<svg enable-background="new 0 0 850.394 850.394" height="850.394" viewBox="0 0 850.394 850.394" width="850.394" xmlns="http://www.w3.org/2000/svg"><path d="m687.97 600.37s9.36 33.41-9.859 51.04c-5.841 5.359-14.32 9.26-26.511 10.32h-228.39-.01-228.39c-12.69-1.11-21.36-5.29-27.22-11-18.26-17.79-9.14-50.36-9.14-50.36s33.13-113.74 40.6-142.01c44.5 78.04 128.47 130.64 224.73 130.64 95.701 0 179.26-52 223.951-129.29 8.109 30.35 40.239 140.66 40.239 140.66z" fill="#fbed24"/><path d="m679.95 651.65 55.68 129.739-623.77-.14 55.68-129.75.05-.77c5.86 5.71 14.53 9.89 27.22 11h228.39.01 228.39c12.19-1.061 20.67-4.961 26.511-10.32z" fill="#fbed24"/><path d="m442.85 301.71c52.46-9.28 92.29-55.09 92.29-110.2 0-61.82-50.109-111.93-111.93-111.93-61.81 0-111.92 50.11-111.92 111.93 0 61.81 50.11 111.92 111.92 111.92 6.7 0 13.27-.59 19.64-1.72zm204.88 158c-44.69 77.29-128.25 129.29-223.95 129.29-96.26 0-180.23-52.6-224.73-130.64-21.5-37.71-33.79-81.351-33.79-127.87 0-142.77 115.74-258.51 258.52-258.51 142.77 0 258.51 115.74 258.51 258.51 0 47.07-12.58 91.21-34.56 129.22zm-186.48-28.32c-11.28 1.9-19.86 11.721-19.86 23.53 0 13.17 10.681 23.86 23.87 23.86 13.181 0 23.86-10.69 23.86-23.86 0-13.18-10.68-23.87-23.86-23.87-1.37 0-2.71.11-4.01.34zm171.04-135.56c0-4.39-3.04-7.95-6.81-7.95-3.771 0-6.82 3.56-6.82 7.95 0 4.4 3.05 7.96 6.82 7.96s6.81-3.56 6.81-7.96zm3.99 65.91c0-18.52-15.011-33.52-33.53-33.52-18.51 0-33.52 15-33.52 33.52 0 18.51 15.01 33.52 33.52 33.52 18.52 0 33.53-15.01 33.53-33.52zm-15.34-106.82c0-4.39-3.051-7.95-6.82-7.95-3.771 0-6.82 3.56-6.82 7.95s3.05 7.96 6.82 7.96 6.82-3.57 6.82-7.96zm-19.33-32.95c0-4.39-3.051-7.95-6.811-7.95-3.77 0-6.819 3.56-6.819 7.95s3.05 7.96 6.819 7.96c3.761 0 6.811-3.57 6.811-7.96zm-25.56 238.62c0-18.52-15-33.51-33.52-33.51-18.511 0-33.521 14.99-33.521 33.51 0 18.51 15.01 33.521 33.521 33.521 18.52-.001 33.52-15.011 33.52-33.521zm-119.32 52.5c0-18.52-15-33.52-33.521-33.52-18.52 0-33.52 15-33.52 33.52 0 18.51 15 33.521 33.52 33.521 18.521-.001 33.521-15.011 33.521-33.521zm-117.04-51.36c0-18.521-15.01-33.521-33.52-33.521-18.52 0-33.52 15-33.52 33.521 0 18.51 15 33.52 33.52 33.52 18.51 0 33.52-15.01 33.52-33.52zm-60.22-98.86c0-18.51-15.01-33.52-33.52-33.52-18.52 0-33.53 15.01-33.53 33.52 0 18.52 15.01 33.53 33.53 33.53 18.51 0 33.52-15.01 33.52-33.53zm-18.75-139.76c0-4.39-3.05-7.95-6.82-7.95s-6.82 3.56-6.82 7.95 3.05 7.95 6.82 7.95 6.82-3.56 6.82-7.95zm-19.32 32.95c0-4.39-3.05-7.95-6.82-7.95-3.76 0-6.82 3.56-6.82 7.95s3.06 7.96 6.82 7.96c3.77 0 6.82-3.57 6.82-7.96zm-11.36 40.91c0-4.39-3.06-7.95-6.82-7.95-3.77 0-6.82 3.56-6.82 7.95s3.05 7.96 6.82 7.96c3.76 0 6.82-3.57 6.82-7.96z" fill="#fbed24"/><path d="m625.48 287.88c3.77 0 6.81 3.56 6.81 7.95 0 4.4-3.04 7.96-6.81 7.96-3.771 0-6.82-3.56-6.82-7.96 0-4.39 3.05-7.95 6.82-7.95z" fill="#fff"/><path d="m602.75 328.22c18.52 0 33.53 15 33.53 33.52 0 18.51-15.011 33.52-33.53 33.52-18.51 0-33.52-15.01-33.52-33.52 0-18.52 15.01-33.52 33.52-33.52z" fill="#8c469b"/><path d="m614.12 246.97c3.77 0 6.82 3.56 6.82 7.95s-3.051 7.96-6.82 7.96c-3.771 0-6.82-3.57-6.82-7.96s3.05-7.95 6.82-7.95z" fill="#fff"/><path d="m594.8 214.02c3.76 0 6.811 3.56 6.811 7.95s-3.051 7.96-6.811 7.96c-3.77 0-6.819-3.57-6.819-7.96-.001-4.39 3.049-7.95 6.819-7.95z" fill="#fff"/><path d="m542.53 427.08c18.52 0 33.52 14.99 33.52 33.51 0 18.51-15 33.521-33.52 33.521-18.511 0-33.521-15.011-33.521-33.521.001-18.52 15.011-33.51 33.521-33.51z" fill="#ed107f"/><path d="m442.85 301.71c-6.369 1.13-12.939 1.72-19.64 1.72-61.81 0-111.92-50.11-111.92-111.92 0-61.82 50.11-111.93 111.92-111.93 61.82 0 111.93 50.11 111.93 111.93 0 55.11-39.83 100.92-92.29 110.2zm-2.71-19.15c43.07-7.95 75.681-45.69 75.681-91.05 0-51.15-41.46-92.61-92.61-92.61s-92.61 41.46-92.61 92.61c0 51.14 41.46 92.6 92.61 92.6 5.779 0 11.439-.53 16.929-1.55z" fill="#f6cc4b"/><path d="m440.14 282.56c-5.489 1.02-11.149 1.55-16.93 1.55-51.15 0-92.61-41.46-92.61-92.6 0-51.15 41.46-92.61 92.61-92.61s92.61 41.46 92.61 92.61c0 45.36-32.61 83.1-75.68 91.05zm-11.36-80.03c5.21-.81 9.2-5.53 9.2-11.24 0-6.27-4.83-11.36-10.79-11.36s-10.8 5.09-10.8 11.36c0 6.28 4.84 11.36 10.8 11.36.54 0 1.07-.04 1.59-.12zm-4.43 42.17c0-13.18-10.68-23.86-23.86-23.86s-23.87 10.68-23.87 23.86 10.69 23.87 23.87 23.87 23.86-10.69 23.86-23.87zm-30.68-57.95c0-13.18-10.69-23.86-23.87-23.86s-23.86 10.68-23.86 23.86 10.68 23.86 23.86 23.86 23.87-10.68 23.87-23.86z" fill="#f6cc4b"/><path d="m461.25 431.39c1.3-.229 2.64-.34 4.01-.34 13.181 0 23.86 10.69 23.86 23.87 0 13.17-10.68 23.86-23.86 23.86-13.189 0-23.87-10.69-23.87-23.86 0-11.81 8.58-21.63 19.86-23.53z" fill="#231f20"/><path d="m423.21 479.57c18.521 0 33.521 15 33.521 33.52 0 18.51-15 33.521-33.521 33.521-18.52 0-33.52-15.011-33.52-33.521 0-18.52 15-33.52 33.52-33.52z" fill="#58b947"/><path d="m428.78 202.53c-.521.08-1.05.12-1.59.12-5.96 0-10.8-5.08-10.8-11.36 0-6.27 4.84-11.36 10.8-11.36s10.79 5.09 10.79 11.36c0 5.71-3.99 10.43-9.2 11.24z" fill="#231f20"/><path d="m400.49 220.84c13.18 0 23.86 10.68 23.86 23.86s-10.68 23.87-23.86 23.87-23.87-10.69-23.87-23.87 10.69-23.86 23.87-23.86z" fill="#ed1e29"/><path d="m369.8 162.89c13.18 0 23.87 10.68 23.87 23.86s-10.69 23.86-23.87 23.86-23.86-10.68-23.86-23.86 10.68-23.86 23.86-23.86z" fill="#ed1e29"/><path d="m306.17 428.21c18.51 0 33.52 15 33.52 33.521 0 18.51-15.01 33.52-33.52 33.52-18.52 0-33.52-15.01-33.52-33.52 0-18.521 15-33.521 33.52-33.521z" fill="#ed1e29"/><path d="m245.95 329.35c18.51 0 33.52 15.01 33.52 33.52 0 18.52-15.01 33.53-33.52 33.53-18.52 0-33.53-15.01-33.53-33.53 0-18.51 15.01-33.52 33.53-33.52z" fill="#0071bc"/><path d="m253.9 215.16c3.77 0 6.82 3.56 6.82 7.95s-3.05 7.95-6.82 7.95-6.82-3.56-6.82-7.95 3.05-7.95 6.82-7.95z" fill="#fff"/><path d="m234.58 248.11c3.77 0 6.82 3.56 6.82 7.95s-3.05 7.96-6.82 7.96c-3.76 0-6.82-3.57-6.82-7.96s3.06-7.95 6.82-7.95z" fill="#fff"/><path d="m223.22 289.02c3.76 0 6.82 3.56 6.82 7.95s-3.06 7.96-6.82 7.96c-3.77 0-6.82-3.57-6.82-7.96s3.05-7.95 6.82-7.95z" fill="#fff"/><g fill="none"><path d="m199.05 458.36c-21.5-37.71-33.79-81.351-33.79-127.87 0-142.77 115.74-258.51 258.52-258.51 142.77 0 258.51 115.74 258.51 258.51 0 47.07-12.58 91.21-34.56 129.22-44.69 77.29-128.25 129.29-223.95 129.29-96.26 0-180.23-52.6-224.73-130.64z" stroke="#231f20" stroke-width="21"/><path d="m535.14 191.51c0 55.11-39.83 100.92-92.29 110.2-6.369 1.13-12.939 1.72-19.64 1.72-61.81 0-111.92-50.11-111.92-111.92 0-61.82 50.11-111.93 111.92-111.93 61.82 0 111.93 50.11 111.93 111.93z" stroke="#231f20" stroke-width="21"/><path d="m515.82 191.51c0 45.36-32.61 83.1-75.681 91.05-5.489 1.02-11.149 1.55-16.93 1.55-51.15 0-92.61-41.46-92.61-92.6 0-51.15 41.46-92.61 92.61-92.61 51.151 0 92.611 41.46 92.611 92.61z" stroke="#231f20" stroke-width="14"/><path d="m199.36 457.19c-.1.369-.2.76-.31 1.17-7.47 28.27-40.6 142.01-40.6 142.01s-9.12 32.57 9.14 50.36c5.86 5.71 14.53 9.89 27.22 11h228.39" stroke="#231f20" stroke-width="21"/><path d="m647.06 457.19c.2.76.421 1.6.671 2.52 8.109 30.35 40.239 140.66 40.239 140.66s9.36 33.41-9.859 51.04c-5.841 5.359-14.32 9.26-26.511 10.32h-228.39-.01" stroke="#231f20" stroke-width="21"/><path d="m393.67 186.75c0 13.18-10.69 23.86-23.87 23.86s-23.86-10.68-23.86-23.86 10.68-23.86 23.86-23.86 23.87 10.68 23.87 23.86z" stroke="#231f20" stroke-width="13.6357"/><path d="m489.12 454.92c0 13.17-10.68 23.86-23.86 23.86-13.189 0-23.87-10.69-23.87-23.86 0-11.81 8.58-21.63 19.86-23.53 1.3-.229 2.64-.34 4.01-.34 13.18 0 23.86 10.69 23.86 23.87z" stroke="#231f20" stroke-width="13.6357"/><path d="m424.35 244.7c0 13.18-10.68 23.87-23.86 23.87s-23.87-10.69-23.87-23.87 10.69-23.86 23.87-23.86 23.86 10.68 23.86 23.86z" stroke="#231f20" stroke-width="13.6357"/><path d="m679.95 651.65 55.68 129.74-623.77-.14 55.68-129.75" stroke="#231f20" stroke-width="21"/><path d="m428.78 202.53 11.36 80.03 2.71 19.15 18.4 129.68.6 4.21" stroke="#231f20" stroke-width="14"/><path d="m456.73 513.09c0 18.51-15 33.521-33.521 33.521-18.52 0-33.52-15.011-33.52-33.521 0-18.52 15-33.52 33.52-33.52 18.521 0 33.521 15 33.521 33.52z" stroke="#231f20" stroke-width="14"/><path d="m437.98 191.29c0 5.71-3.99 10.43-9.2 11.24-.521.08-1.05.12-1.59.12-5.96 0-10.8-5.08-10.8-11.36 0-6.27 4.84-11.36 10.8-11.36s10.79 5.09 10.79 11.36z" stroke="#231f20" stroke-width="13.6357"/><path d="m279.47 362.87c0 18.52-15.01 33.53-33.52 33.53-18.52 0-33.53-15.01-33.53-33.53 0-18.51 15.01-33.52 33.53-33.52 18.51 0 33.52 15.01 33.52 33.52z" stroke="#231f20" stroke-width="14"/><path d="m339.69 461.73c0 18.51-15.01 33.52-33.52 33.52-18.52 0-33.52-15.01-33.52-33.52 0-18.521 15-33.521 33.52-33.521 18.51.001 33.52 15.001 33.52 33.521z" stroke="#231f20" stroke-width="14"/><path d="m260.72 223.11c0 4.39-3.05 7.95-6.82 7.95s-6.82-3.56-6.82-7.95 3.05-7.95 6.82-7.95 6.82 3.56 6.82 7.95z" stroke="#231f20" stroke-width="13.6357"/><path d="m241.4 256.06c0 4.39-3.05 7.96-6.82 7.96-3.76 0-6.82-3.57-6.82-7.96s3.06-7.95 6.82-7.95c3.77 0 6.82 3.56 6.82 7.95z" stroke="#231f20" stroke-width="13.6357"/><path d="m230.04 296.97c0 4.39-3.06 7.96-6.82 7.96-3.77 0-6.82-3.57-6.82-7.96s3.05-7.95 6.82-7.95c3.76 0 6.82 3.56 6.82 7.95z" stroke="#231f20" stroke-width="13.6357"/><path d="m569.23 361.74c0 18.51 15.01 33.52 33.52 33.52 18.52 0 33.53-15.01 33.53-33.52 0-18.52-15.011-33.52-33.53-33.52-18.51 0-33.52 15-33.52 33.52z" stroke="#231f20" stroke-width="14"/><path d="m509.01 460.59c0 18.51 15.01 33.521 33.521 33.521 18.52 0 33.52-15.011 33.52-33.521 0-18.52-15-33.51-33.52-33.51-18.511 0-33.521 14.99-33.521 33.51z" stroke="#231f20" stroke-width="14"/><path d="m587.98 221.97c0 4.39 3.05 7.96 6.819 7.96 3.76 0 6.811-3.57 6.811-7.96s-3.051-7.95-6.811-7.95c-3.769 0-6.819 3.56-6.819 7.95z" stroke="#231f20" stroke-width="13.6357"/><path d="m607.3 254.92c0 4.39 3.05 7.96 6.82 7.96s6.82-3.57 6.82-7.96-3.051-7.95-6.82-7.95c-3.77 0-6.82 3.56-6.82 7.95z" stroke="#231f20" stroke-width="13.6357"/><path d="m618.66 295.83c0 4.4 3.05 7.96 6.82 7.96s6.81-3.56 6.81-7.96c0-4.39-3.04-7.95-6.81-7.95s-6.82 3.56-6.82 7.95z" stroke="#231f20" stroke-width="13.6357"/><path d="m0 0h850.394v850.394h-850.394z"/></g></svg>