<svg enable-background="new 0 0 850.394 850.394" height="850.394" viewBox="0 0 850.394 850.394" width="850.394" xmlns="http://www.w3.org/2000/svg"><path d="m241.88 176.78c7.21 6.95 13.23 15.27 13.02 26.17-.4 20.92-20.17 32.65-20.79 33.01 6.14-14.73-3.45-29.69-13.03-35.69l-3.6-2.59c-8.26-4.91-16.23-11.9-16.14-27 .13-22.46 30.88-33.18 30.88-33.18l-2.9 5.54c-5.52 9.74-1.68 18.68 7.29 28.52 1.17 1.28 5.27 5.22 5.27 5.22z" fill="#fbee34"/><path d="m380.4 108.36c7.21 6.96 13.22 15.27 13.01 26.18-.4 20.92-20.17 32.65-20.79 33.01 6.15-14.74-3.45-29.7-13.03-35.7l-3.59-2.58c-8.26-4.91-16.24-11.91-16.15-27 .13-22.47 30.89-33.18 30.89-33.18l-2.9 5.53c-5.53 9.75-1.69 18.69 7.28 28.52 1.17 1.28 5.28 5.22 5.28 5.22z" fill="#fbee34"/><path d="m509.47 136.6c7.221 6.95 13.23 15.27 13.011 26.17-.391 20.92-20.16 32.65-20.78 33.01 6.14-14.74-3.45-29.7-13.03-35.69l-3.59-2.59c-8.26-4.91-16.24-11.9-16.15-27 .13-22.47 30.88-33.18 30.88-33.18l-2.899 5.53c-5.521 9.75-1.68 18.69 7.29 28.53 1.158 1.27 5.268 5.22 5.268 5.22z" fill="#fbee34"/><path d="m634.09 174.84c7.21 6.95 13.22 15.27 13.01 26.17-.399 20.92-20.17 32.66-20.79 33.02 6.15-14.74-3.439-29.7-13.02-35.7l-3.6-2.58c-8.261-4.92-16.24-11.91-16.15-27.01.13-22.46 30.89-33.18 30.89-33.18l-2.899 5.54c-5.53 9.74-1.69 18.69 7.279 28.52 1.17 1.28 5.28 5.22 5.28 5.22z" fill="#fbee34"/><path d="m545.28 662.58-40.63-4.64-5.811 42.56s-20.64-23.86-40.78-53.66c-30.399-44.979-36.41-94.16-36.47-121.54h10.74c3.27 0 6.28-1.16 8.63-3.1l3.07.26s9.92 12.4 25.52 24.35c5.33 17.79 14.11 38.29 28.51 59.25 30.001 43.7 47.221 56.52 47.221 56.52z" fill="#33a048"/><path d="m304.88 652.81c8.05-8.51 20.35-22.979 36.22-46.1 14.49-21.11 23.29-41.75 28.62-59.6l-.87-1.15c15.86-12.05 25.98-24.69 25.98-24.69l.75-.42c2.48 2.73 6.07 4.45 10.05 4.45h11.93c.03 27.25-5.82 76.851-36.46 122.181-.63.93-1.26 1.859-1.89 2.779-19.52 28.49-38.89 50.891-38.89 50.891l-5.81-42.57-40.63 4.65c0-.001 3.82-2.841 11-10.421z" fill="#33a048"/><path d="m392.06 490.11v21.609c0 3.521 1.34 6.71 3.52 9.13l-.75.42s-10.12 12.641-25.98 24.69c-3.58 2.74-7.46 5.44-11.58 7.95-18.38 11.21-49.42 16.33-49.42 16.33-2.45-4.26-10.95-28.41-15.65-47.19-4.69-18.77-1.79-45.83.23-59.689 2.01-13.86 6.26-23.931 6.26-23.931s16.71 1.11 36.71 5.221c3.7.76 7.52 1.63 11.36 2.609 18.6 4.74 36.06 19.71 43.46 26.73 2.38 2.25 3.72 3.68 3.72 3.68l2.56 2.4c-2.73 2.481-4.44 6.061-4.44 10.041z" fill="#33a048"/><path d="m421.59 525.3h-4.03-11.93c-3.98 0-7.57-1.72-10.05-4.45-2.18-2.42-3.52-5.609-3.52-9.13v-21.61c0-3.98 1.71-7.561 4.44-10.04 2.42-2.181 5.61-3.521 9.13-3.521h26.7c2.81 0 5.41.851 7.58 2.32 3.609 2.43 5.99 6.56 5.99 11.24v21.609c0 4.221-1.931 7.99-4.94 10.48-2.35 1.939-5.36 3.1-8.63 3.1h-10.74z" fill="#33a048"/><path d="m469.3 458.88c6.9-4.41 14.73-8.38 22.79-10.43 9.99-2.54 19.8-4.311 27.92-5.51 11.88-1.761 20.15-2.32 20.15-2.32s4.25 10.07 6.27 23.93c2 13.87 4.92 40.92.23 59.7-4.71 18.77-13.2 42.92-15.67 47.18 0 0-31.03-5.12-49.4-16.33-4.3-2.619-8.33-5.439-12.04-8.29-15.6-11.949-25.52-24.35-25.52-24.35l-3.07-.26c3.01-2.49 4.94-6.26 4.94-10.48v-21.61c0-4.681-2.381-8.811-5.99-11.24l5.01-.01s10.21-10.92 24.38-19.98z" fill="#33a048"/><path d="m645.14 555.27c-15.51 7.461-32.609 13.761-50.949 17.601l-.191-.871-.08-276.15c0-8.96 7.25-16.22 16.2-16.22h17.57c8.96 0 16.22 7.26 16.22 16.22v258.99z" fill="#ed1d31"/><path d="m519.29 438.21.72 4.73c-8.12 1.199-17.93 2.97-27.92 5.51-8.06 2.05-15.89 6.02-22.79 10.43v-201.28c0-8.95 7.26-16.21 16.21-16.21h17.561c8.96 0 16.22 7.26 16.22 16.21v180.61z" fill="#ed1d31"/><path d="m390.22 229.37v244.62c-7.4-7.021-24.86-21.99-43.46-26.73-3.84-.979-7.66-1.85-11.36-2.609l4.83-1.48v-213.8c0-8.95 7.25-16.21 16.2-16.21h17.57c8.96-.001 16.22 7.259 16.22 16.209z" fill="#ed1d31"/><path d="m204.17 555.26c-.93-.439-1.86-.89-2.78-1.35l3.29-3.44-2.97-11.81v-240.88c0-8.95 7.26-16.21 16.21-16.21h17.57c8.95 0 16.21 7.26 16.21 16.21v268.19l-1.4 5.82c-16.52-3.88-31.99-9.72-46.13-16.53z" fill="#ed1d31"/><g fill="none"><path d="m776.78 472.36-42.86 16.71s-34.71 40.189-88.78 66.199c-15.51 7.461-32.609 13.761-50.949 17.601-1.5.32-3.011.62-4.53.899-9.021 1.671-17.86 2.94-26.46 3.891-28.09 3.1-53.59 2.72-74.25 1.1" stroke="#231f20" stroke-linecap="round" stroke-linejoin="round" stroke-width="14"/><path d="m699.69 463.19-14.69 58.17" stroke="#231f20" stroke-linecap="round" stroke-linejoin="round" stroke-width="14"/><path d="m743.34 435.91-14.68 58.15" stroke="#231f20" stroke-linecap="round" stroke-linejoin="round" stroke-width="14"/><path d="m659.26 492.31-14.64 58.16" stroke="#231f20" stroke-linecap="round" stroke-linejoin="round" stroke-width="14"/><path d="m618.86 509.44-14.64 58.15" stroke="#231f20" stroke-linecap="round" stroke-linejoin="round" stroke-width="14"/><path d="m577.76 519.84-14.56 57.82-.09.34" stroke="#231f20" stroke-linecap="round" stroke-linejoin="round" stroke-width="14"/><path d="m779.11 520.15-56.35-19.51" stroke="#231f20" stroke-linecap="round" stroke-linejoin="round" stroke-width="14"/><path d="m746.47 549.49-56.35-19.54" stroke="#231f20" stroke-linecap="round" stroke-linejoin="round" stroke-width="14"/><path d="m699.78 574.19-54.64-18.92-1.23-.43-.49-.17" stroke="#231f20" stroke-linecap="round" stroke-linejoin="round" stroke-width="14"/><path d="m650.82 596.39-56.36-19.52" stroke="#231f20" stroke-linecap="round" stroke-linejoin="round" stroke-width="14"/><path d="m579.92 611.13-32.14-31.8" stroke="#231f20" stroke-linecap="round" stroke-linejoin="round" stroke-width="14"/><path d="m781.84 642.47-45.979-1.229s-47.57 23.569-107.5 26.56c-18.601.92-38.391-.13-58.32-4.49-9.04-1.97-17.74-4.239-26.1-6.729-1.37-.41-2.74-.82-4.091-1.24" stroke="#231f20" stroke-linecap="round" stroke-linejoin="round" stroke-width="14"/><path d="m714.35 604.11-36.1 47.91" stroke="#231f20" stroke-linecap="round" stroke-linejoin="round" stroke-width="14"/><path d="m765.16 595.9-36.09 47.91" stroke="#231f20" stroke-linecap="round" stroke-linejoin="round" stroke-width="14"/><path d="m665.8 615.24-36.06 47.94" stroke="#231f20" stroke-linecap="round" stroke-linejoin="round" stroke-width="14"/><path d="m621.92 615.36-36.05 47.91" stroke="#231f20" stroke-linecap="round" stroke-linejoin="round" stroke-width="14"/><path d="m543.47 609.01.47 47.57v.34" stroke="#231f20" stroke-linecap="round" stroke-linejoin="round" stroke-width="14"/><path d="m765.45 687.42-44.37-39.86" stroke="#231f20" stroke-linecap="round" stroke-linejoin="round" stroke-width="14"/><path d="m723.99 701.78-44.36-39.86" stroke="#231f20" stroke-linecap="round" stroke-linejoin="round" stroke-width="14"/><path d="m671.38 706.45-43.02-38.65-1.36-1.22" stroke="#231f20" stroke-linecap="round" stroke-linejoin="round" stroke-width="14"/><path d="m617.64 707.9-44.37-39.86" stroke="#231f20" stroke-linecap="round" stroke-linejoin="round" stroke-width="14"/><path d="m626.8 760.75-63.819-32.84s-24.511-3.47-56.671-16.73c-25.829-10.63-56.59-27.59-83.56-54.12" stroke="#231f20" stroke-linecap="round" stroke-linejoin="round" stroke-width="14"/><path d="m554.25 691.83-47.94 19.35-3.57 1.44" stroke="#231f20" stroke-linecap="round" stroke-linejoin="round" stroke-width="14"/><path d="m595.22 712.86-39.29 13.29" stroke="#231f20" stroke-linecap="round" stroke-linejoin="round" stroke-width="14"/><path d="m459.71 649.72-32.5 10.7" stroke="#231f20" stroke-linecap="round" stroke-linejoin="round" stroke-width="14"/><path d="m560.93 782.73-13.7-58.05" stroke="#231f20" stroke-linecap="round" stroke-linejoin="round" stroke-width="14"/><path d="m518.68 770.87-13.68-58.05" stroke="#231f20" stroke-linecap="round" stroke-linejoin="round" stroke-width="14"/><path d="m472.81 744.68-13.69-58.06" stroke="#231f20" stroke-linecap="round" stroke-linejoin="round" stroke-width="14"/><path d="m209.83 760.41 63.82-32.84s24.5-3.471 56.66-16.721c3.91-1.609 7.95-3.369 12.06-5.29 21.68-10.09 45.66-24.529 67.49-44.989 1.35-1.271 2.69-2.551 4.02-3.86" stroke="#231f20" stroke-linecap="round" stroke-linejoin="round" stroke-width="14"/><path d="m282.38 691.48 47.93 19.37 3.58 1.44" stroke="#231f20" stroke-linecap="round" stroke-linejoin="round" stroke-width="14"/><path d="m241.41 712.53 39.29 13.29" stroke="#231f20" stroke-linecap="round" stroke-linejoin="round" stroke-width="14"/><path d="m381.9 651.01 27.51 9.08" stroke="#231f20" stroke-linecap="round" stroke-linejoin="round" stroke-width="14"/><path d="m275.7 782.38 13.7-58.04" stroke="#231f20" stroke-linecap="round" stroke-linejoin="round" stroke-width="14"/><path d="m317.95 770.54 13.68-58.05" stroke="#231f20" stroke-linecap="round" stroke-linejoin="round" stroke-width="14"/><path d="m363.81 744.34 13.7-58.06" stroke="#231f20" stroke-linecap="round" stroke-linejoin="round" stroke-width="14"/><path d="m72.53 472.36 42.86 16.71s33.52 38.81 86 64.84c.92.46 1.85.91 2.78 1.35 14.14 6.811 29.61 12.65 46.13 16.53 3.08.74 6.2 1.4 9.35 1.979 9.02 1.671 17.85 2.94 26.45 3.891 26.09 2.89 49.95 2.76 69.78 1.42" stroke="#231f20" stroke-linecap="round" stroke-linejoin="round" stroke-width="14"/><path d="m149.62 463.19 14.68 58.17" stroke="#231f20" stroke-linecap="round" stroke-linejoin="round" stroke-width="14"/><path d="m105.98 435.91 14.67 58.15" stroke="#231f20" stroke-linecap="round" stroke-linejoin="round" stroke-width="14"/><path d="m190.05 492.31 11.66 46.35 2.97 11.81" stroke="#231f20" stroke-linecap="round" stroke-linejoin="round" stroke-width="14"/><path d="m230.44 509.44 14.65 58.15" stroke="#231f20" stroke-linecap="round" stroke-linejoin="round" stroke-width="14"/><path d="m271.55 519.84 14.55 57.82.09.34" stroke="#231f20" stroke-linecap="round" stroke-linejoin="round" stroke-width="14"/><path d="m70.2 520.15 56.35-19.51" stroke="#231f20" stroke-linecap="round" stroke-linejoin="round" stroke-width="14"/><path d="m102.83 549.49 56.35-19.54" stroke="#231f20" stroke-linecap="round" stroke-linejoin="round" stroke-width="14"/><path d="m149.52 574.19 54.65-18.93 1.72-.59" stroke="#231f20" stroke-linecap="round" stroke-linejoin="round" stroke-width="14"/><path d="m198.49 596.39 56.36-19.52" stroke="#231f20" stroke-linecap="round" stroke-linejoin="round" stroke-width="14"/><path d="m269.38 611.13 32.15-31.8" stroke="#231f20" stroke-linecap="round" stroke-linejoin="round" stroke-width="14"/><path d="m67.46 642.47 45.98-1.229s47.58 23.569 107.51 26.56c18.6.92 38.39-.13 58.31-4.49 6.15-1.329 12.14-2.819 17.97-4.409" stroke="#231f20" stroke-linecap="round" stroke-linejoin="round" stroke-width="14"/><path d="m134.95 604.11 36.1 47.91" stroke="#231f20" stroke-linecap="round" stroke-linejoin="round" stroke-width="14"/><path d="m84.14 595.9 36.09 47.91" stroke="#231f20" stroke-linecap="round" stroke-linejoin="round" stroke-width="14"/><path d="m183.51 615.24 36.06 47.94" stroke="#231f20" stroke-linecap="round" stroke-linejoin="round" stroke-width="14"/><path d="m227.38 615.36 36.06 47.91" stroke="#231f20" stroke-linecap="round" stroke-linejoin="round" stroke-width="14"/><path d="m299.75 609.01 5.13 43.8.48 4.11" stroke="#231f20" stroke-linecap="round" stroke-linejoin="round" stroke-width="14"/><path d="m83.85 687.42 44.37-39.86" stroke="#231f20" stroke-linecap="round" stroke-linejoin="round" stroke-width="14"/><path d="m125.32 701.78 44.35-39.86" stroke="#231f20" stroke-linecap="round" stroke-linejoin="round" stroke-width="14"/><path d="m177.93 706.45 43.02-38.65 1.36-1.22" stroke="#231f20" stroke-linecap="round" stroke-linejoin="round" stroke-width="14"/><path d="m231.67 707.9 44.37-39.86" stroke="#231f20" stroke-linecap="round" stroke-linejoin="round" stroke-width="14"/><path d="m439.91 478.87c3.609 2.43 5.99 6.56 5.99 11.24v21.609c0 4.221-1.931 7.99-4.94 10.48-2.35 1.939-5.36 3.1-8.63 3.1h-10.74-4.03-11.93c-3.98 0-7.57-1.72-10.05-4.45-2.18-2.42-3.52-5.609-3.52-9.13v-21.609c0-3.98 1.71-7.561 4.44-10.04 2.42-2.181 5.61-3.521 9.13-3.521h26.7c2.81.001 5.41.851 7.58 2.321z" stroke="#231f20" stroke-width="14"/><path d="m393.94 477.67s-1.34-1.43-3.72-3.68c-7.4-7.021-24.86-21.99-43.46-26.73-3.84-.979-7.66-1.85-11.36-2.609-20-4.11-36.71-5.221-36.71-5.221s-4.25 10.07-6.26 23.931c-2.02 13.859-4.92 40.92-.23 59.689 4.7 18.78 13.2 42.931 15.65 47.19 0 0 31.04-5.12 49.42-16.33 4.12-2.51 8-5.21 11.58-7.95 15.86-12.05 25.98-24.69 25.98-24.69" stroke="#231f20" stroke-width="14"/><path d="m343.85 507.41s22.8 5.81 48.07-8.73" stroke="#231f20" stroke-width="14"/><path d="m444.92 478.86s10.21-10.92 24.38-19.98c6.9-4.41 14.73-8.38 22.79-10.43 9.99-2.54 19.8-4.311 27.92-5.51 11.88-1.761 20.15-2.32 20.15-2.32s4.25 10.07 6.27 23.93c2 13.87 4.92 40.92.23 59.7-4.71 18.77-13.2 42.92-15.67 47.18 0 0-31.03-5.12-49.4-16.33-4.3-2.619-8.33-5.439-12.04-8.29-15.6-11.949-25.52-24.35-25.52-24.35" stroke="#231f20" stroke-width="14"/><path d="m494.99 508.6s-22.8 5.811-48.061-8.72" stroke="#231f20" stroke-width="14"/><path d="m369.72 547.11c-5.33 17.85-14.13 38.489-28.62 59.6-15.87 23.12-28.17 37.59-36.22 46.1-7.18 7.58-11 10.421-11 10.421l40.63-4.65 5.81 42.57s19.37-22.4 38.89-50.891c.63-.92 1.26-1.85 1.89-2.779 30.64-45.33 36.49-94.931 36.46-122.181 0-.28 0-.56 0-.84" stroke="#231f20" stroke-width="14"/><path d="m469.44 546.45c.04.12.069.24.109.359 5.33 17.79 14.11 38.29 28.51 59.25 30 43.7 47.221 56.521 47.221 56.521l-40.63-4.64-5.811 42.56s-20.64-23.86-40.78-53.66c-30.399-44.979-36.41-94.16-36.47-121.54 0-.51 0-1 0-1.49" stroke="#231f20" stroke-width="14"/><path d="m418.68 669.89v52.95" stroke="#231f20" stroke-linecap="round" stroke-linejoin="round" stroke-width="14"/><path d="m201.71 546.11v-7.45-240.88c0-8.95 7.26-16.21 16.21-16.21h17.57c8.95 0 16.21 7.26 16.21 16.21v268.19" stroke="#231f20" stroke-width="14"/><path d="m234.1 235.97s0 0 .01-.01" stroke="#231f20" stroke-width="14"/><path d="m234.11 235.96c.62-.36 20.39-12.09 20.79-33.01.21-10.9-5.81-19.22-13.02-26.17 0 0-4.1-3.94-5.27-5.22-8.97-9.84-12.81-18.78-7.29-28.52l2.9-5.54s-30.75 10.72-30.88 33.18c-.09 15.1 7.88 22.09 16.14 27l3.6 2.59c9.58 6 19.17 20.96 13.03 35.69z" stroke="#231f20" stroke-width="14"/><path d="m226.03 247.12v33.78" stroke="#231f20" stroke-width="14"/><path d="m594 572-.08-276.15c0-8.96 7.25-16.22 16.2-16.22h17.57c8.96 0 16.22 7.26 16.22 16.22v258.99.04" stroke="#231f20" stroke-width="14"/><path d="m626.3 234.04s0 0 .01-.01" stroke="#231f20" stroke-width="14"/><path d="m626.31 234.03c.62-.36 20.391-12.1 20.79-33.02.21-10.9-5.8-19.22-13.01-26.17 0 0-4.109-3.94-5.28-5.22-8.97-9.83-12.81-18.78-7.279-28.52l2.899-5.54s-30.76 10.72-30.89 33.18c-.09 15.1 7.89 22.09 16.15 27.01l3.6 2.58c9.58 6 19.17 20.96 13.02 35.7z" stroke="#231f20" stroke-width="14"/><path d="m618.24 245.18v33.78" stroke="#231f20" stroke-width="14"/><path d="m340.23 443.17v-213.8c0-8.95 7.25-16.21 16.2-16.21h17.57c8.96 0 16.22 7.26 16.22 16.21v244.62 3.71" stroke="#231f20" stroke-width="14"/><path d="m372.61 167.56s0 0 .01-.01" stroke="#231f20" stroke-width="14"/><path d="m372.62 167.55c.62-.36 20.39-12.09 20.79-33.01.21-10.91-5.8-19.22-13.01-26.18 0 0-4.11-3.94-5.28-5.22-8.97-9.83-12.81-18.77-7.28-28.52l2.9-5.53s-30.76 10.71-30.89 33.18c-.09 15.09 7.89 22.09 16.15 27l3.59 2.58c9.58 6 19.18 20.96 13.03 35.7z" stroke="#231f20" stroke-width="14"/><path d="m364.55 178.7v33.78" stroke="#231f20" stroke-width="14"/><path d="m469.3 459.72v-.84-201.28c0-8.95 7.26-16.21 16.21-16.21h17.561c8.96 0 16.22 7.26 16.22 16.21v180.61" stroke="#231f20" stroke-width="14"/><path d="m501.69 195.79s0 0 .01-.01" stroke="#231f20" stroke-width="14"/><path d="m501.7 195.78c.62-.36 20.39-12.09 20.78-33.01.22-10.9-5.79-19.22-13.011-26.17 0 0-4.109-3.95-5.27-5.22-8.97-9.84-12.811-18.78-7.29-28.53l2.899-5.53s-30.75 10.71-30.88 33.18c-.09 15.1 7.891 22.09 16.15 27l3.59 2.59c9.582 5.99 19.172 20.95 13.032 35.69z" stroke="#231f20" stroke-width="14"/><path d="m493.62 206.93v33.79" stroke="#231f20" stroke-width="14"/><path d="m0 0h850.394v850.394h-850.394z"/></g></svg>