<svg enable-background="new 0 0 850.394 850.394" height="850.394" viewBox="0 0 850.394 850.394" width="850.394" xmlns="http://www.w3.org/2000/svg"><path d="m668.18 511.2c0 13.649-2.569 26.689-7.27 38.67h-197.62c-4.69-11.98-7.271-25.03-7.271-38.67 0-58.59 47.49-106.08 106.08-106.08 58.591 0 106.081 47.49 106.081 106.08z" fill="#fff400"/><g fill="none"><path d="m463.32 549.94c-.011-.021-.021-.051-.03-.07-4.69-11.98-7.271-25.03-7.271-38.67 0-58.59 47.49-106.08 106.08-106.08 58.591 0 106.08 47.49 106.08 106.08 0 13.649-2.569 26.689-7.27 38.67" stroke="#231f20" stroke-width="21"/><path d="m561.27 385.8v-80.69" stroke="#231f20" stroke-width="21"/><path d="m496.91 401.52-44.58-67.28" stroke="#231f20" stroke-width="21"/><path d="m450.69 451.11-73.12-34.17" stroke="#231f20" stroke-width="21"/><path d="m627.93 400.23 44.58-67.28" stroke="#231f20" stroke-width="21"/><path d="m674.14 449.81 73.11-34.16" stroke="#231f20" stroke-width="21"/><path d="m435.67 512.45h-80.7" stroke="#231f20" stroke-width="21"/><path d="m767.98 512.45h-80.7" stroke="#231f20" stroke-width="21"/><path d="m80.72 549.87h382.57 197.62 107.37" stroke="#231f20" stroke-width="21"/><path d="m0 0h850.394v850.394h-850.394z"/></g></svg>