<svg enable-background="new 0 0 850.394 850.394" height="850.394" viewBox="0 0 850.394 850.394" width="850.394" xmlns="http://www.w3.org/2000/svg"><path d="m367.17 390.65c0-65.61 22.55-119.3 51.05-123.39.99-.14 1.99-.22 3-.24.16-.01.33-.01.5-.01 30.12 0 54.54 55.36 54.54 123.64 0 68.291-24.42 123.64-54.54 123.64-30.13 0-54.55-55.35-54.55-123.64z" fill="#bd2025"/><path d="m422.32 517.94c50.55 0 91.52 60.239 91.52 134.55 0 74.3-40.97 134.55-91.52 134.55-50.54 0-91.52-60.25-91.52-134.55 0-74.31 40.98-134.55 91.52-134.55z" fill="#bd2025"/><path d="m421.2 265.34.02 1.68c-1.01.02-2.01.1-3 .24l-.14-1.46c-48.01-1.37-63.03-9.7-50.91-58.18 12.13-48.49 47.28-48.49 47.28-48.49l10.39-.46s35.16 0 47.28 48.49c12.13 48.49-2.9 56.81-50.92 58.18z" fill="#bd2025"/><g fill="none"><path d="m641.42 62.71c-26.07 15.52-74.06 47.46-93.99 82.68l-94.04 20.91" stroke="#231f20" stroke-linecap="round" stroke-linejoin="round" stroke-width="21"/><path d="m388.27 165.91s-48.45-6.85-94.81-1.95c0 0-29.06-53.16-89.26-68.02" stroke="#231f20" stroke-linecap="round" stroke-linejoin="round" stroke-width="21"/><path d="m513.84 652.49c0 74.3-40.97 134.55-91.52 134.55-50.54 0-91.52-60.25-91.52-134.55 0-74.311 40.98-134.55 91.52-134.55 50.55 0 91.52 60.24 91.52 134.55z" stroke="#231f20" stroke-linecap="round" stroke-linejoin="round" stroke-width="21"/><path d="m421.2 265.34c48.02-1.37 63.05-9.69 50.92-58.18-12.12-48.49-47.28-48.49-47.28-48.49l-10.39.46s-35.15 0-47.28 48.49c-12.12 48.48 2.9 56.81 50.91 58.18" stroke="#231f20" stroke-linecap="round" stroke-linejoin="round" stroke-width="21"/><path d="m421.22 267.02c.16-.01.33-.01.5-.01 30.12 0 54.54 55.36 54.54 123.64 0 68.291-24.42 123.64-54.54 123.64-30.13 0-54.55-55.35-54.55-123.64 0-65.61 22.55-119.3 51.05-123.39.99-.14 1.99-.22 3-.24z" stroke="#231f20" stroke-linecap="round" stroke-linejoin="round" stroke-width="21"/><path d="m448.39 517.94 106.67 23.02 46.06 155.16 46.07 50.92" stroke="#231f20" stroke-width="21"/><path d="m473.84 441.57 106.67 9.69 71.52 70.31" stroke="#231f20" stroke-width="21"/><path d="m467.78 322.77 77.58 7.28 90.92-30.31" stroke="#231f20" stroke-width="21"/><path d="m396.26 520.37-106.67 23.02-46.06 155.16-46.07 50.91" stroke="#231f20" stroke-width="21"/><path d="m364 438-92.59 8.41-71.52 70.32" stroke="#231f20" stroke-width="21"/><path d="m370 320-63.44 5.2-90.91-30.3" stroke="#231f20" stroke-width="21"/><path d="m0 0h850.394v850.394h-850.394z"/></g></svg>