<svg enable-background="new 0 0 850.394 850.394" height="850.394" viewBox="0 0 850.394 850.394" width="850.394" xmlns="http://www.w3.org/2000/svg"><path d="m553.23 537.89 46.229 142.38-.36.12-60.31-28.38h-115.279l-114.94-.11-59.71 28.1 45.97-141.57.59-2.25c37.63 22.25 81.54 35.021 128.43 35.021 45.8 0 88.75-12.181 125.8-33.49z" fill="#f6cc4b"/><path d="m248.86 680-33.11 101.97-59.87-18.489 81.86-252.08 37.15 11.47.11-.14c6.57 4.8 13.38 9.289 20.42 13.449l-.59 2.25z" fill="#f6cc4b"/><path d="m610.32 510.85 81.86 252.09-59.87 18.489-32.85-101.16-46.23-142.379-3.58-.18c8.17-4.7 16.069-9.85 23.63-15.42z" fill="#f6cc4b"/><path d="m423.05 275.68c24.94 0 45.16 20.22 45.16 45.17 0 24.93-20.22 45.15-45.16 45.15-24.93 0-45.15-20.22-45.15-45.15 0-24.95 20.22-45.17 45.15-45.17z" fill="#fbed24"/><path d="m423.85 218.64c55.13 0 99.82 44.7 99.82 99.83s-44.689 99.82-99.82 99.82c-55.13 0-99.83-44.69-99.83-99.82s44.7-99.83 99.83-99.83zm44.36 102.21c0-24.95-20.22-45.17-45.16-45.17-24.93 0-45.15 20.22-45.15 45.17 0 24.93 20.22 45.15 45.15 45.15 24.94 0 45.16-20.22 45.16-45.15z" fill="#ed1e29"/><path d="m423.85 164.37c85.54 0 154.89 69.35 154.89 154.89s-69.351 154.88-154.89 154.88c-85.54 0-154.89-69.34-154.89-154.88s69.35-154.89 154.89-154.89zm99.82 154.1c0-55.13-44.689-99.83-99.82-99.83-55.13 0-99.83 44.7-99.83 99.83s44.7 99.82 99.83 99.82 99.82-44.69 99.82-99.82z" fill="#0071bc"/><path d="m423.85 115.25c112.66 0 204 91.34 204 204.01 0 112.66-91.34 204-204 204-112.67 0-204.01-91.34-204.01-204 0-112.67 91.34-204.01 204.01-204.01zm154.89 204.01c0-85.54-69.351-154.89-154.89-154.89-85.54 0-154.89 69.35-154.89 154.89s69.35 154.88 154.89 154.88 154.89-69.34 154.89-154.88z" fill="#797878"/><path d="m573.28 522.29c-7.561 5.57-15.46 10.72-23.63 15.42-37.051 21.31-80 33.49-125.8 33.49-46.89 0-90.8-12.771-128.43-35.021-7.04-4.16-13.85-8.649-20.42-13.449-62.97-45.961-103.88-120.34-103.88-204.26 0-139.58 113.15-252.73 252.73-252.73 139.57 0 252.73 113.15 252.73 252.73 0 83.66-40.66 157.83-103.3 203.82zm54.57-203.03c0-112.67-91.34-204.01-204-204.01-112.67 0-204.01 91.34-204.01 204.01 0 112.66 91.34 204 204.01 204 112.66 0 204-91.34 204-204z" fill="#fff"/><g fill="none"><path d="m275 522.73c-62.97-45.961-103.88-120.34-103.88-204.26 0-139.58 113.15-252.73 252.73-252.73 139.57 0 252.73 113.15 252.73 252.73 0 83.66-40.66 157.83-103.3 203.82-7.561 5.57-15.46 10.72-23.63 15.42-37.051 21.31-80 33.49-125.8 33.49-46.89 0-90.8-12.771-128.43-35.021-7.04-4.159-13.85-8.649-20.42-13.449z" stroke="#231f20" stroke-width="21"/><path d="m627.85 319.26c0 112.66-91.34 204-204 204-112.67 0-204.01-91.34-204.01-204 0-112.67 91.34-204.01 204.01-204.01 112.66 0 204 91.34 204 204.01z" stroke="#231f20" stroke-width="21"/><path d="m578.74 319.26c0 85.54-69.351 154.88-154.89 154.88-85.54 0-154.89-69.34-154.89-154.88s69.35-154.89 154.89-154.89 154.89 69.35 154.89 154.89z" stroke="#231f20" stroke-width="21"/><path d="m523.67 318.47c0 55.13-44.689 99.82-99.82 99.82-55.13 0-99.83-44.69-99.83-99.82s44.7-99.83 99.83-99.83 99.82 44.7 99.82 99.83z" stroke="#231f20" stroke-width="21"/><path d="m468.21 320.85c0 24.93-20.22 45.15-45.16 45.15-24.93 0-45.15-20.22-45.15-45.15 0-24.95 20.22-45.17 45.15-45.17 24.94 0 45.16 20.22 45.16 45.17z" stroke="#231f20" stroke-width="21"/><path d="m294.83 538.43-45.97 141.57-33.11 101.97-59.87-18.49 81.86-252.08 37.15 11.47" stroke="#231f20" stroke-width="21"/><path d="m553.23 537.89 46.23 142.38 32.85 101.16 59.87-18.49-81.86-252.09-37.04 11.44-.11.04" stroke="#231f20" stroke-width="21"/><path d="m599.1 680.39-60.31-28.38h-115.28l-114.94-.11-59.71 28.1-.6.28" stroke="#231f20" stroke-width="21"/><path d="m0 0h850.394v850.394h-850.394z"/></g></svg>