<svg enable-background="new 0 0 850.394 850.394" height="850.394" viewBox="0 0 850.394 850.394" width="850.394" xmlns="http://www.w3.org/2000/svg"><path d="m501.06 618.77c15.561 0 28.181 12.631 28.181 28.2 0 15.561-12.62 28.181-28.181 28.181-15.579 0-28.199-12.62-28.199-28.181-.001-15.57 12.619-28.2 28.199-28.2z" fill="#ed1d31"/><path d="m208.71 348.75c13.29 8.1 17.5 25.46 9.39 38.75s-25.46 17.49-38.75 9.38-17.49-25.45-9.39-38.75c8.12-13.29 25.47-17.5 38.75-9.38z" fill="#ed1d31"/><path d="m601.28 228.84c7.93 13.4 3.489 30.7-9.91 38.62-13.39 7.93-30.7 3.49-38.62-9.91-7.93-13.4-3.49-30.69 9.91-38.61 13.4-7.93 30.69-3.5 38.62 9.9z" fill="#ed1d31"/><path d="m397.03 422.45c-.05-.7-.08-1.41-.08-2.12 0-11.64 6.67-21.73 16.41-26.63 4.03-2.04 8.59-3.19 13.41-3.19 16.471 0 29.82 13.35 29.82 29.82 0 1.08-.06 2.15-.17 3.2-1.6 14.97-14.26 26.621-29.65 26.621-15.76-.001-28.66-12.221-29.74-27.701z" fill="#0d72ba"/><path d="m451.65 474.98c-.45 12.64-11.091 22.75-24.15 22.75-11.33 0-20.86-7.62-23.46-17.91l-4.9-2.61c-4.32 2.38-9.2 3.71-14.16 3.71-16.47 0-29.82-13.36-29.82-29.83 0-12.16 7.28-22.62 17.72-27.25 3.27 1.24 6.82 1.91 10.52 1.91 4.91 0 9.54-1.19 13.63-3.3 1.08 15.479 13.98 27.7 29.74 27.7 15.391 0 28.051-11.65 29.65-26.621l3.65.47c2.02.44 4.13.66 6.279.66 3.601 0 7.051-.64 10.25-1.81l5.391.86c9.39 5.021 15.77 14.91 15.77 26.3 0 16.471-13.35 29.82-29.819 29.82-6.011.001-11.611-1.779-16.291-4.849z" fill="#a9d7f3"/><path d="m447.3 366.12 2.08 4.2c4.811-3.34 10.66-5.29 16.97-5.29 16.471 0 29.83 13.35 29.83 29.82 0 12.87-8.149 23.82-19.58 28-3.199 1.17-6.649 1.81-10.25 1.81-2.149 0-4.26-.22-6.279-.66l-3.65-.47c.11-1.05.17-2.12.17-3.2 0-16.47-13.35-29.82-29.82-29.82-4.819 0-9.379 1.15-13.41 3.19l-.27-.53c-.85-9.31-5.99-17.38-13.41-22.21.45-12.64 11.09-22.75 24.15-22.75 11.339 0 20.859 7.63 23.469 17.91z" fill="#f6cc4b"/><path d="m399.68 370.96c7.42 4.83 12.56 12.9 13.41 22.21l.27.53c-9.74 4.9-16.41 14.99-16.41 26.63 0 .71.03 1.42.08 2.12-4.09 2.11-8.72 3.3-13.63 3.3-3.7 0-7.25-.67-10.52-1.91-11.29-4.25-19.31-15.14-19.31-27.91 0-16.47 13.35-29.82 29.83-29.82 6 0 11.6 1.78 16.28 4.85z" fill="#f6cc4b"/><g fill="none"><path d="m484.73 703.77c-16.86 47.29-38.11 75.49-61.21 75.49-39.2 0-73.09-81.229-89.21-199.17-4.37-31.99-7.43-66.689-8.94-103.189-.71-17.051-1.07-34.49-1.07-52.23 0-19.18.43-38.01 1.25-56.37 1.65-36.98 4.9-72.05 9.49-104.27 16.4-115.11 49.86-193.96 88.48-193.96 39.02 0 72.78 80.49 88.99 197.55 4.26 30.81 7.311 64.15 8.92 99.22.86 18.82 1.311 38.14 1.311 57.83 0 18.85-.41 37.35-1.2 55.4-1.56 35.489-4.59 69.229-8.86 100.399-.91 6.63-1.87 13.141-2.89 19.53" stroke="#231f20" stroke-width="14"/><path d="m529.24 646.97c0 15.561-12.62 28.181-28.181 28.181-15.579 0-28.199-12.62-28.199-28.181 0-15.569 12.62-28.2 28.199-28.2 15.561 0 28.181 12.63 28.181 28.2z" stroke="#231f20" stroke-width="14"/><path d="m634.21 228.32c49.29-9.57 84.39-5.64 96.15 14.24 20.279 34.28-34.42 106.56-130.551 181.77-23.729 18.58-49.989 37.33-78.27 55.74-14.75 9.59-30.06 19.1-45.84 28.439-17.181 10.17-34.271 19.74-51.13 28.69-31.13 16.51-61.49 30.88-90.26 42.89-108.52 45.311-194.52 57.07-214.32 23.59-20.28-34.27 34.38-106.51 130.45-181.709 22.84-17.88 48.03-35.93 75.11-53.67 15.75-10.33 32.15-20.55 49.1-30.58 17.3-10.23 34.49-19.86 51.46-28.86 29.739-15.76 58.779-29.57 86.399-41.24 6.63-2.8 13.181-5.48 19.641-8.03" stroke="#231f20" stroke-width="14"/><path d="m562.66 218.94c13.399-7.93 30.689-3.5 38.62 9.9 7.93 13.4 3.489 30.7-9.91 38.62-13.39 7.93-30.7 3.49-38.62-9.91-7.93-13.4-3.49-30.69 9.91-38.61z" stroke="#231f20" stroke-width="14"/><path d="m154.04 329.3c-31.59-39.02-44.61-71.86-32.58-91.58 20.23-33.16 105.87-20.32 213.58 26.31 29.03 12.57 59.67 27.59 91.07 44.83 16.409 9.02 33.029 18.64 49.739 28.83 15.7 9.58 30.92 19.32 45.58 29.15 28.38 19.02 54.681 38.37 78.38 57.49 94.491 76.23 147.761 148.85 127.091 182.74-20.271 33.22-106.21 20.26-214.221-26.601-28.13-12.189-57.76-26.689-88.11-43.27-17.169-9.379-34.569-19.429-52.059-30.099-16.26-9.92-32-20.01-47.14-30.199-27.03-18.181-52.16-36.65-74.93-54.93-7.19-5.76-14.15-11.52-20.86-17.24" stroke="#231f20" stroke-width="14"/><path d="m179.35 396.88c-13.29-8.11-17.49-25.45-9.39-38.75 8.12-13.29 25.47-17.5 38.75-9.38 13.29 8.1 17.5 25.46 9.39 38.75s-25.46 17.49-38.75 9.38z" stroke="#231f20" stroke-width="14"/><path d="m413.36 393.7c4.03-2.04 8.59-3.19 13.41-3.19 16.471 0 29.82 13.35 29.82 29.82 0 1.08-.06 2.15-.17 3.2-1.6 14.97-14.26 26.621-29.65 26.621-15.76 0-28.66-12.221-29.74-27.7-.05-.7-.08-1.41-.08-2.12 0-11.641 6.67-21.731 16.41-26.631z" stroke="#231f20" stroke-width="14"/><path d="m397.58 422.16c-.18.1-.36.19-.55.29-4.09 2.11-8.72 3.3-13.63 3.3-3.7 0-7.25-.67-10.52-1.91-11.29-4.25-19.31-15.14-19.31-27.91 0-16.47 13.35-29.82 29.83-29.82 6 0 11.6 1.78 16.28 4.85 7.42 4.83 12.56 12.9 13.41 22.21" stroke="#231f20" stroke-width="14"/><path d="m437.14 388.85c1.561-7.65 6.04-14.23 12.24-18.53 4.811-3.34 10.66-5.29 16.97-5.29 16.471 0 29.83 13.35 29.83 29.82 0 12.87-8.149 23.82-19.58 28-3.199 1.17-6.649 1.81-10.25 1.81-2.149 0-4.26-.22-6.279-.66" stroke="#231f20" stroke-width="14"/><path d="m399.66 371.8c0-.28.01-.56.02-.84.45-12.64 11.09-22.75 24.15-22.75 11.34 0 20.86 7.63 23.47 17.91" stroke="#231f20" stroke-width="14"/><path d="m481.99 423.71c9.39 5.021 15.77 14.91 15.77 26.3 0 16.471-13.35 29.82-29.819 29.82-6.011 0-11.61-1.78-16.29-4.85-7.42-4.841-12.551-12.91-13.41-22.211" stroke="#231f20" stroke-width="14"/><path d="m414.3 453.95c-.71 10.319-6.9 18.71-15.16 23.26-4.32 2.38-9.2 3.71-14.16 3.71-16.47 0-29.82-13.36-29.82-29.83 0-12.16 7.28-22.62 17.72-27.25.03-.02.05-.03.08-.04" stroke="#231f20" stroke-width="14"/><path d="m451.67 474.14c0 .28-.01.561-.02.841-.45 12.64-11.091 22.75-24.15 22.75-11.33 0-20.86-7.62-23.46-17.91" stroke="#231f20" stroke-width="14"/><path d="m0 0h850.394v850.394h-850.394z"/></g></svg>