<svg enable-background="new 0 0 850.394 850.394" height="850.394" viewBox="0 0 850.394 850.394" width="850.394" xmlns="http://www.w3.org/2000/svg"><path d="m242.29 616.82c0-.021.01-.061.02-.101-.01.041-.02.071-.02.101zm286.13-68.45h65.771 65.75l21.279 46.979 26.681 58.9 29.88 65.96 8.84 19.51-.621.281h-642l-.38-.17 8.89-19.62 29.87-65.96 26.68-58.92 21.28-46.97h69.57l3.82-.15c.54 14.9.79 32.771-4.53 42.72-6.99 13.03-13.21 7.41-16.75 25.07 0-.02 0-.03 0-.05l-.11.609c.03-.189.07-.38.11-.56.04 18.79 21.5 21.92 21.5 21.92 26.14 11.18 37.47 6.32 55.66.53 5.88-1.88 10.04-2.28 15.9-4.5 9.93-3.771 9.04-13.931 5.77-22.63-.01-.021-.02-.04-.02-.061-.5-1.51-1.08-2.84-1.75-4.069-3.28-6.11-8.53-9.49-14.42-16.98-8.26-10.54-10.79-26.91-11.83-41.75l3.62-.1h4.99 65.75 61.12v.01h13.93 65.75z" fill="#6ebe44"/><path d="m741.3 458.39-2.45 2.94v258.39l-1.07.49-29.88-65.96 2.34-1.06v-220.62z" fill="#faa41f"/><path d="m710.24 432.57v220.62l-2.34 1.06-26.68-58.9.39-.18v-185.67l.36-.43z" fill="#faa41f"/><path d="m681.97 409.07-.36.43v185.67l-.39.18-21.28-46.98v-154.18l2.53-1.33z" fill="#faa41f"/><path d="m659.94 394.19v154.18h-65.75v-3.49-150.69z" fill="#faa41f"/><path d="m594.19 544.88v3.49h-65.77v-152.02-2.16h65.77z" fill="#faa41f"/><path d="m528.42 396.35v152.02h-65.75v-2.72-151.46h65.75z" fill="#faa41f"/><path d="m387.62 392.98c-2.05 1.21-4.22 2.38-6.65 3.37-7.85 3.18-17.53 3.76-25.57 1.1-6.94-2.31-9.32-7.24-13.32-11.28-1.13-1.13-2.38-2.2-3.89-3.11-10.66-6.45-23.28 4.33-35.7 5.92-1.27.16-2.4.23-3.41.21-8.07-.11-9.06-5.52-15.58-12.1l-.2.2c-7.36-7.38-27.3-7.34-42.39-2.97-7.85 2.28-14.39 5.73-17.16 9.92-3.12 4.73-6.85 8.59-10.99 11.62-6.67 4.88-14.44 7.6-22.53 8.31-5.49.48-11.12.04-16.68-1.27-9.01-2.13-17.81-6.56-25.41-13.08-22.38-19.19-24.16 9.01-51.3-33.33-3.97-6.18-.88-22.21-3.14-29.5-11.88-38.38 15.96-42.5 11.68-51.94-7.63-16.78-8.77-31.16-.55-48.41 7.17-15.04 17.19-23.61 30.69-32.22 14.11-9.01 14.32-21.3 20.26-36.26 8.76-22.03 28.73-33.5 52-37.13 20.56-3.22 38.59 7.11 57.34-4.74 14.46-9.12 30.24-18.53 48.58-15.57 21.08 3.39 27.29 26.47 46.35 31.85 21.78 6.16 52.1 6.37 61.47 32.34 7.82 21.64-3.43 34.08 19.13 46.72 30.55 17.13 45.869 74.5 36.529 102.29-5.75 17.16-16.699 13.58-21.97 32.02-5.15 17.97-13.64 32.06-32.39 36.29-6.51 1.47-12.85 1.77-19.37 3.16-6.269 1.33-10.719 4.59-15.829 7.59z" fill="#33a048"/><path d="m448.74 548.36h-61.12v-2.71-151.47h.85 60.27v.01h13.93v151.46 2.72h-13.93z" fill="#faa41f"/><path d="m387.62 545.65v2.71h-65.75v-113.28l-1.03-.35c2.77-8.091 6.04-15.82 9.73-24.44 1.54-3.64 3.9-9.87 5.97-15.15.95-2.45 1.84-4.69 2.56-6.37l2.98-2.6c4 4.04 6.38 8.97 13.32 11.28 8.04 2.66 17.72 2.08 25.57-1.1 2.43-.99 4.6-2.16 6.65-3.37v1.2z" fill="#faa41f"/><path d="m341.28 611.32c3.27 8.699 4.16 18.859-5.77 22.63-5.86 2.22-10.02 2.62-15.9 4.5-18.19 5.79-29.52 10.649-55.66-.53 0 0-21.46-3.13-21.5-21.92 3.54-17.66 9.76-12.04 16.75-25.07 5.32-9.949 5.07-27.819 4.53-42.72-.2-5.63-.44-10.83-.44-15.02 0-19.54.56-38.29-4.09-57.19-2.9-11.77-36.46-64.59-46.44-80.14 4.14-3.03 7.87-6.89 10.99-11.62 2.77-4.19 9.31-7.64 17.16-9.92l17.28 22 22.91 29.17 15.51-31.31 2.47-4.99c1.01.02 2.14-.05 3.41-.21 12.42-1.59 25.04-12.37 35.7-5.92 1.51.91 2.76 1.98 3.89 3.11l-2.98 2.6c-.72 1.68-1.61 3.92-2.56 6.37-2.07 5.28-4.43 11.51-5.97 15.15-3.69 8.62-6.96 16.35-9.73 24.44-4.62 13.43-7.88 27.869-9.48 49.06 0 0 .7 38.29 1.19 50.61.17 4.34.36 9.109.71 14.06 1.04 14.84 3.57 31.21 11.83 41.75 5.89 7.49 11.14 10.87 14.42 16.98.62 1.3 1.21 2.659 1.75 4.069 0 .021.01.041.02.061z" fill="#9e5c26"/><path d="m296.61 394.18-15.51 31.31-22.91-29.17 2.72-2.14z" fill="#faa41f"/><path d="m263.73 548.21-3.82.15h-69.57v-143.03l-.11-1.16c8.09-.71 15.86-3.43 22.53-8.31 9.98 15.55 43.54 68.371 46.44 80.14 4.65 18.9 4.09 37.65 4.09 57.19 0 4.19.24 9.39.44 15.02z" fill="#faa41f"/><path d="m190.34 405.33v143.03l-21.28 46.97-.38-.17v-185.67l-.35-.42 4.82-4 .4-2.17c5.56 1.31 11.19 1.75 16.68 1.27z" fill="#faa41f"/><path d="m169.06 595.33-26.68 58.92-2.33-1.06v-220.62l28.28-23.5.35.42v185.67z" fill="#faa41f"/><path d="m142.38 654.25-29.87 65.96-1.08-.49v-258.39l-2.44-2.94 31.06-25.82v220.62z" fill="#faa41f"/><g fill="none"><path d="m448.74 394.19h13.93 65.75 65.77 65.75v154.18h-65.75-65.77-65.75-13.93" stroke="#231f20" stroke-width="14"/><path d="m662.47 392.86 19.5 16.21 28.27 23.5 31.06 25.82 23.09 19.19" stroke="#231f20" stroke-width="14"/><path d="m659.94 548.37 21.28 46.98 26.68 58.9 29.88 65.96 8.84 19.51 2.68 5.92" stroke="#231f20" stroke-width="14"/><path d="m462.67 392.48v1.71 151.46" stroke="#231f20" stroke-width="14"/><path d="m528.42 396.35v152.02 1.16" stroke="#231f20" stroke-width="14"/><path d="m594.19 391.71v2.48 150.69" stroke="#231f20" stroke-width="14"/><path d="m681.61 409.5v185.67" stroke="#231f20" stroke-width="14"/><path d="m710.24 431.16v1.41 220.62" stroke="#231f20" stroke-width="14"/><path d="m738.85 461.33v258.39" stroke="#231f20" stroke-width="14"/><path d="m316.88 548.36h4.99 65.75 61.12 4.64" stroke="#231f20" stroke-width="14"/><path d="m190.34 405.33v143.03h69.57" stroke="#231f20" stroke-width="14"/><path d="m296.71 394.18h-.1-35.7" stroke="#231f20" stroke-width="14"/><path d="m454.16 394.18h-5.42-60.27" stroke="#231f20" stroke-width="14"/><path d="m173.15 405.07-4.82 4-28.28 23.5-31.06 25.82-23.09 19.18" stroke="#231f20" stroke-width="14"/><path d="m190.34 548.36-21.28 46.97-26.68 58.92-29.87 65.96-8.89 19.62-2.63 5.81" stroke="#231f20" stroke-width="14"/><path d="m387.62 392.47v.51 1.2 151.47" stroke="#231f20" stroke-width="14"/><path d="m321.87 435.08v113.28 1.16" stroke="#231f20" stroke-width="14"/><path d="m168.68 409.49v185.67" stroke="#231f20" stroke-width="14"/><path d="m140.05 431.15v1.42 220.62" stroke="#231f20" stroke-width="14"/><path d="m111.43 461.33v258.39" stroke="#231f20" stroke-width="14"/><path d="m341.26 611.26c-.54-1.41-1.13-2.77-1.75-4.069" stroke="#231f20" stroke-width="14"/><path d="m242.34 616.56.11-.609v.05c.04 18.79 21.5 21.92 21.5 21.92 26.14 11.18 37.47 6.32 55.66.53 5.88-1.88 10.04-2.28 15.9-4.5 9.93-3.771 9.04-13.931 5.77-22.63" stroke="#231f20" stroke-width="14"/><path d="m209.97 391.54s1.03 1.58 2.79 4.32c9.98 15.55 43.54 68.371 46.44 80.14 4.65 18.9 4.09 37.65 4.09 57.19 0 4.189.24 9.39.44 15.02.54 14.9.79 32.771-4.53 42.72-6.99 13.03-13.21 7.41-16.75 25.07-.04.18-.08.37-.14.72v-.01c.01-.05.02-.1 0 .01-.01.04-.02.07-.02.101-.01.02-.01.04-.01.05v.01c-.01.01-.01.021.01-.06 0-.021.01-.061.02-.101" stroke="#231f20" stroke-width="14"/><path d="m293.72 441.56-12.62-16.07-22.91-29.17-17.28-22" stroke="#231f20" stroke-width="14"/><path d="m336.54 395.14c-2.07 5.28-4.43 11.51-5.97 15.15-3.69 8.62-6.96 16.35-9.73 24.44-4.62 13.43-7.88 27.869-9.48 49.06 0 0 .7 38.29 1.19 50.61.17 4.34.36 9.109.71 14.06 1.04 14.84 3.57 31.21 11.83 41.75 5.89 7.49 11.14 10.87 14.42 16.98.67 1.229 1.25 2.56 1.75 4.069 0 .021.01.04.02.061.08.27.17.55.25.83" stroke="#231f20" stroke-width="14"/><path d="m339.1 388.77c-.72 1.68-1.61 3.92-2.56 6.37" stroke="#231f20" stroke-width="14"/><path d="m281.1 425.49 15.51-31.31 2.47-4.99.01-.02" stroke="#231f20" stroke-width="14"/><path d="m283.47 377.46c-.05-.06-.11-.11-.17-.17-7.36-7.38-27.3-7.34-42.39-2.97-7.85 2.28-14.39 5.73-17.16 9.92-3.12 4.73-6.85 8.59-10.99 11.62-6.67 4.88-14.44 7.6-22.53 8.31-5.49.48-11.12.04-16.68-1.27-9.01-2.13-17.81-6.56-25.41-13.08-22.38-19.19-24.16 9.01-51.3-33.33-3.97-6.18-.88-22.21-3.14-29.5-11.88-38.38 15.96-42.5 11.68-51.94-7.63-16.78-8.77-31.16-.55-48.41 7.17-15.04 17.19-23.61 30.69-32.22 14.11-9.01 14.32-21.3 20.26-36.26 8.76-22.03 28.73-33.5 52-37.13 20.56-3.22 38.59 7.11 57.34-4.74 14.46-9.12 30.24-18.53 48.58-15.57 21.08 3.39 27.29 26.47 46.35 31.85 21.78 6.16 52.1 6.37 61.47 32.34 7.82 21.64-3.43 34.08 19.13 46.72 30.55 17.13 45.869 74.5 36.529 102.29-5.75 17.16-16.699 13.58-21.97 32.02-5.15 17.97-13.64 32.06-32.39 36.29-6.51 1.47-12.85 1.77-19.37 3.16-6.27 1.33-10.72 4.59-15.83 7.59-2.05 1.21-4.22 2.38-6.65 3.37-7.85 3.18-17.53 3.76-25.57 1.1-6.94-2.31-9.32-7.24-13.32-11.28-1.13-1.13-2.38-2.2-3.89-3.11-10.66-6.45-23.28 4.33-35.7 5.92-1.27.16-2.4.23-3.41.21-8.07-.11-9.06-5.52-15.58-12.1-1.68-1.7-3.73-3.47-6.36-5.25" stroke="#231f20" stroke-width="14"/><path d="m0 0h850.394v850.394h-850.394z"/></g><path d="m482.1 570.285c-5.86-4.274-9.293-9.47-9.296-15.066 0-.003 0-.003 0-.005 0-14.63 23.438-26.492 52.347-26.492 28.908 0 52.343 11.862 52.343 26.492 0 .496-.027.989-.081 1.479-.6 5.517-4.537 10.583-10.806 14.691l-.226-.375c.994-.923 1.867-1.88 2.613-2.872h.002c1.927-2.562 3.005-5.332 3.059-8.229.003-.077.003-.152.003-.23 0-2.354-.679-4.632-1.939-6.779-1.368-2.323-3.417-4.501-6.035-6.467-2.682-2.014-5.956-3.808-9.698-5.317-4.018-1.626-8.572-2.918-13.506-3.806-4.916-.888-10.211-1.371-15.729-1.371-17.638 0-33.006 4.93-41.017 12.211-2.8 2.545-4.7 5.38-5.487 8.392-.269 1.027-.407 2.073-.407 3.138 0 1.405.241 2.784.705 4.122.771 2.231 2.159 4.355 4.07 6.324l-.912.16c-.003.003-.003.003-.003 0z" fill="#be0000"/><path d="m564.083 546.433-83.669 17.362-1.47.006c-.464-1.338-.705-2.717-.705-4.122 0-1.064.139-2.11.407-3.138l75.735-15.421.003-.005c3.743 1.51 7.017 3.304 9.699 5.318z" fill="#c8c8c8"/><path d="m554.385 541.115-.003.005-75.735 15.421c.787-3.012 2.688-5.847 5.487-8.392l.006.005 56.739-10.845c4.934.888 9.488 2.18 13.506 3.806z" fill="#c8c8c8"/><path d="m525.15 535.938c5.518 0 10.813.483 15.729 1.371l-56.739 10.845-.006-.005c8.011-7.281 23.379-12.211 41.016-12.211z" fill="#c8c8c8"/><path d="m525.15 581.702c-5.915 0-11.603-.496-16.902-1.413l.046-.29 60.7-11.861c-.746.992-1.619 1.949-2.613 2.872l.226.375c-9.571 6.275-24.581 10.317-41.457 10.317z" fill="#c8c8c8"/><path d="m508.248 580.289c-5.521-.949-10.626-2.357-15.143-4.13l78.343-16.258.606.008c-.054 2.896-1.132 5.667-3.059 8.229h-.002l-60.7 11.861z" fill="#c8c8c8"/><path d="m493.103 576.159c-3.609-1.416-6.842-3.065-9.611-4.905l85.966-18.095.661-.26c1.261 2.147 1.939 4.425 1.939 6.779 0 .078 0 .153-.003.23l-.606-.008-78.343 16.258h-.003z" fill="#c8c8c8"/><path d="m482.103 570.285c.448.33.912.652 1.389.969 2.77 1.84 6.002 3.489 9.611 4.905h.003c4.517 1.772 9.622 3.181 15.143 4.13 5.3.917 10.987 1.413 16.902 1.413 16.876 0 31.886-4.042 41.456-10.317 6.269-4.108 10.206-9.175 10.806-14.691h.005c.54 2.69.824 5.461.824 8.29 0 18.668-12.304 34.8-30.141 42.413v.003c-6.945 2.964-14.73 4.64-22.956 4.669-.074 0-.151 0-.226 0-8.445 0-16.436-1.734-23.531-4.821-17.65-7.676-29.793-23.716-29.793-42.264 0-2.245-.026-6.67 1.209-9.765.003 5.597 3.436 10.792 9.296 15.066 0 .003 0 .003.003 0z" fill="#be0000"/><path d="m483.491 571.254c-.477-.316-.94-.639-1.389-.969l.912-.16c-1.911-1.969-3.3-4.093-4.07-6.324l1.47-.006 83.669-17.362c2.618 1.966 4.667 4.144 6.035 6.467l-.661.26z" fill="#c8c8c8"/><path d="m493.103 576.159c-3.609-1.416-6.842-3.065-9.611-4.905-.477-.316-.94-.639-1.389-.969-.003.003-.003.003-.003 0-5.86-4.274-9.293-9.47-9.296-15.066 0-.003 0-.003 0-.005 0-14.63 23.438-26.492 52.347-26.492 28.908 0 52.343 11.862 52.343 26.492 0 .496-.027.989-.081 1.479-.6 5.517-4.537 10.583-10.806 14.691-9.57 6.275-24.58 10.317-41.456 10.317-5.915 0-11.603-.496-16.902-1.413-5.521-.949-10.626-2.357-15.143-4.13" fill="none" stroke="#231f20" stroke-width="6.39"/><path d="m568.994 568.138c-.746.992-1.619 1.949-2.613 2.872" fill="none" stroke="#231f20" stroke-width="3.6695"/><path d="m483.015 570.125c-1.911-1.969-3.3-4.093-4.07-6.324-.464-1.338-.705-2.717-.705-4.122 0-1.064.139-2.11.407-3.138.787-3.012 2.688-5.847 5.487-8.392 8.011-7.281 23.379-12.211 41.017-12.211 5.518 0 10.813.483 15.729 1.371 4.934.888 9.488 2.18 13.506 3.806 3.742 1.51 7.017 3.304 9.698 5.317 2.618 1.966 4.667 4.144 6.035 6.467 1.261 2.147 1.939 4.425 1.939 6.779 0 .078 0 .153-.003.23-.054 2.896-1.132 5.667-3.059 8.229" fill="none" stroke="#231f20" stroke-width="3.6695"/><path d="m484.14 548.154 56.739-10.844" fill="none" stroke="#231f20" stroke-width="3.6695"/><path d="m508.294 579.999 60.7-11.861h.002l.4-.078" fill="none" stroke="#231f20" stroke-width="3.6695"/><path d="m478.517 556.567.129-.026 75.736-15.421" fill="none" stroke="#231f20" stroke-width="3.6695"/><path d="m480.414 563.795 83.669-17.362" fill="none" stroke="#231f20" stroke-width="3.6695"/><path d="m493.105 576.159 78.343-16.258" fill="none" stroke="#231f20" stroke-width="3.6695"/><path d="m493.103 576.159h.002" fill="none" stroke="#231f20" stroke-width="6.39"/><path d="m491.071 576.58 2.032-.421" fill="none" stroke="#231f20" stroke-width="3.6695"/><path d="m482.81 571.398.681-.144 85.966-18.095" fill="none" stroke="#231f20" stroke-width="3.6695"/><path d="m548.101 607.399c-6.945 2.964-14.73 4.64-22.956 4.669-.074 0-.151 0-.226 0-8.445 0-16.436-1.734-23.531-4.821-17.65-7.676-29.793-23.716-29.793-42.264 0-2.245-.026-6.67 1.209-9.765 0-.003.003-.003.003-.005" fill="none" stroke="#231f20" stroke-width="6.39"/><path d="m577.417 556.693c.54 2.69.824 5.461.824 8.29 0 18.668-12.304 34.8-30.141 42.413" fill="none" stroke="#231f20" stroke-width="6.39"/><path d="m501.39 607.244-.002.003-13.375 30.3-5.541 12.556-.412.93" fill="none" stroke="#231f20" stroke-linecap="round" stroke-width="6.39"/><path d="m495.938 649.869c.003.081.003.161.003.242 0 4.918-2.516 9.233-6.3 11.671-2.069 1.333-4.521 2.105-7.147 2.105-7.429 0-13.448-6.168-13.448-13.776 0-7.606 6.02-13.774 13.448-13.774 1.965 0 3.835.432 5.519 1.21 4.608 2.126 7.834 6.836 7.925 12.322z" fill="none" stroke="#231f20" stroke-width="6.39"/><path d="m533.173 694.802c3.576 2.478 5.928 6.669 5.928 11.424 0 7.608-6.017 13.774-13.446 13.774-7.426 0-13.446-6.166-13.446-13.774 0-4.116 1.763-7.812 4.558-10.333 2.252-2.038 5.175-3.312 8.385-3.433.166-.008.335-.011.504-.011 2.783 0 5.37.866 7.517 2.353z" fill="none" stroke="#231f20" stroke-width="6.39"/><path d="m525.15 706.438v-13.978-43.121-36.15" fill="none" stroke="#231f20" stroke-linecap="round" stroke-width="6.39"/><path d="m548.101 607.396v.003l21.295 46.965" fill="none" stroke="#231f20" stroke-width="6.39"/><path d="m482.06 652.246 7.582 9.536 27.124 34.111 8.384 10.545" fill="none" stroke="#231f20" stroke-width="6.39"/><path d="m482.494 650.113 13.444-.244 29.212-.53 39.873-.728" fill="none" stroke="#231f20" stroke-width="6.39"/><path d="m565.023 648.611-31.85 46.191-8.023 11.636" fill="none" stroke="#231f20" stroke-width="6.39"/></svg>