<svg enable-background="new 0 0 850.394 850.394" height="850.394" viewBox="0 0 850.394 850.394" width="850.394" xmlns="http://www.w3.org/2000/svg"><g fill="none"><g stroke="#231f20"><path d="m311.873 289.438h228.278v297.205h-228.278z" stroke-width="21"/><path d="m311.873 512.333h228.277" stroke-width="14"/><path d="m311.873 438.039h228.277" stroke-width="14"/><path d="m311.873 363.742h228.277" stroke-width="14"/><path d="m483.079 289.438v297.205" stroke-width="14"/><path d="m426.009 289.438v297.205" stroke-width="14"/><path d="m368.94 289.438v297.205" stroke-width="14"/><path d="m83.155 252.182 228.272 37.597v297.205h-228.272z" stroke-width="21"/><path d="m83.155 458.962 228.272 21.489" stroke-width="14"/><path d="m83.155 391.137 228.272 31.131" stroke-width="14"/><path d="m83.155 315.741 228.272 37.597" stroke-width="14"/><path d="m254.359 284.409v302.575" stroke-width="14"/><path d="m197.288 268.293v318.691" stroke-width="14"/><path d="m140.227 262.923v324.061" stroke-width="14"/><path d="m83.155 529.691 228.272 8.949" stroke-width="14"/><path d="m767.299 252.422-228.273 37.6v297.196h228.273z" stroke-width="21"/><path d="m767.299 459.202-228.273 21.488" stroke-width="14"/><path d="m767.299 391.377-228.273 31.131" stroke-width="14"/><path d="m767.299 315.984-228.273 37.598" stroke-width="14"/><path d="m596.092 284.648v302.57" stroke-width="14"/><path d="m653.163 268.537v318.681" stroke-width="14"/><path d="m710.233 263.166v324.052" stroke-width="14"/><path d="m767.299 529.926-228.273 8.947" stroke-width="14"/></g><path d="m0 0h850.394v850.394h-850.394z"/></g></svg>