<svg enable-background="new 0 0 850.394 850.394" height="850.394" viewBox="0 0 850.394 850.394" width="850.394" xmlns="http://www.w3.org/2000/svg"><path d="m413.23 563.7h.11 6.87l10.45 61.88v167.33h-17.43-.11-17.43v-167.33l10.46-61.88h6.87z" fill="#ed1e29"/><path d="m341.06 278.58v9.19c-2.51-2.92-4.9-5.98-7.17-9.19z" fill="#fff"/><path d="m341.06 90.1v.47h-.41c.14-.16.27-.32.41-.47z" fill="#fff"/><g fill="none"><path d="m516.96 165.41c1.06 7.64 1.62 15.5 1.62 23.52 0 4.99-.22 9.93-.64 14.78-1.131 13.1-3.74 25.63-7.631 37.32-5.8 17.42-14.409 32.97-25.119 45.72-8.15 9.71-17.5 17.8-27.761 23.86-8.93 5.29-18.54 9.04-28.609 10.99-5.26 1.02-10.65 1.55-16.13 1.55-15.22 0-29.7-4.07-42.78-11.41-10.66-5.97-20.39-14.11-28.85-23.97-2.51-2.92-4.9-5.98-7.17-9.19-7.82-11.02-14.21-23.69-18.82-37.55-3.88-11.67-6.49-24.18-7.62-37.25-.43-4.88-.65-9.83-.65-14.85 0-8.11.57-16.05 1.65-23.76 1.85-13.11 5.2-25.56 9.82-37.05 5.68-14.15 13.29-26.85 22.38-37.55.14-.16.27-.32.41-.47 8.32-9.7 17.87-17.73 28.32-23.67 8.96-5.1 18.57-8.66 28.64-10.43 4.8-.84 9.69-1.28 14.67-1.28 5.48 0 10.87.53 16.13 1.55 9.66 1.87 18.899 5.4 27.52 10.35 10.48 6.02 20.061 14.14 28.391 23.95.149.18.31.36.46.55 8.89 10.58 16.329 23.09 21.92 37 4.649 11.56 8.009 24.1 9.849 37.29z" stroke="#231f20" stroke-width="20.917"/><path d="m413.23 326.31v237.39" stroke="#231f20" stroke-width="20.917"/><path d="m413.34 563.7h6.87l10.45 61.88v167.33h-17.43-.11-17.43v-167.33l10.46-61.88h6.87" stroke="#231f20" stroke-width="6.9723"/><path d="m413.34 563.7h-.11-.21" stroke="#231f20" stroke-width="6.9723"/><path d="m338.17 90.57h2.48.41 28.85 28.84 28.74 28.85 28.39.46 5.94" stroke="#231f20" stroke-width="6.9723"/><path d="m504.2 128.12h2.91 6.82" stroke="#231f20" stroke-width="6.9723"/><path d="m323.36 128.12h17.7 28.85 28.84 28.74 28.85 28.85 19.01" stroke="#231f20" stroke-width="6.9723"/><path d="m312.32 128.12h5.95 5.09" stroke="#231f20" stroke-width="6.9723"/><path d="m508.56 165.8h5.37" stroke="#231f20" stroke-width="6.9723"/><path d="m316.38 165.8h24.68 28.85 28.84 28.74 28.85 28.85 23.37" stroke="#231f20" stroke-width="6.9723"/><path d="m312.32 165.8h4.06" stroke="#231f20" stroke-width="6.9723"/><path d="m509.43 203.35h4.5" stroke="#231f20" stroke-width="6.9723"/><path d="m312.32 203.35h28.74 28.85 28.84 28.74 28.85 28.85 24.24" stroke="#231f20" stroke-width="6.9723"/><path d="m504.2 241.03h6.11 3.62" stroke="#231f20" stroke-width="6.9723"/><path d="m319.44 241.03h21.62 28.85 28.84 28.74 28.85 28.85 19.01" stroke="#231f20" stroke-width="6.9723"/><path d="m312.32 241.03h2.75 4.37" stroke="#231f20" stroke-width="6.9723"/><path d="m332.07 278.58h1.82 7.17 28.85 28.84l28.74-.01h28.85 28.85 5.07" stroke="#231f20" stroke-width="6.9723"/><path d="m485.19 90.89v-.32-8.4" stroke="#231f20" stroke-width="6.9723"/><path d="m485.19 280.88v-2.31-37.54-37.68-37.55-37.68-37-.23" stroke="#231f20" stroke-width="6.9723"/><path d="m485.19 287.85s0-.44 0-1.1c0-1.97 0-5.86 0-5.87" stroke="#231f20" stroke-width="6.9723"/><path d="m456.34 307.94v-29.37-37.54-37.68-37.55-37.68-37.55-23.95-.14" stroke="#231f20" stroke-width="6.9723"/><path d="m427.49 314.43v-35.86-37.54-37.68-37.55-37.68-37.55-29.76" stroke="#231f20" stroke-width="6.9723"/><path d="m427.49 316.25v-1.82" stroke="#231f20" stroke-width="6.9723"/><path d="m398.75 314.44v-35.86-37.55-37.68-37.55-37.68-37.55-30.19" stroke="#231f20" stroke-width="6.9723"/><path d="m398.75 316.25v-1.81" stroke="#231f20" stroke-width="6.9723"/><path d="m369.91 305.28v-26.7-37.55-37.68-37.55-37.68-37.55-23.21" stroke="#231f20" stroke-width="6.9723"/><path d="m369.91 316.25v-4.51-6.46" stroke="#231f20" stroke-width="6.9723"/><path d="m341.06 287.85v-.08-9.19-37.55-37.68-37.55-37.68-37.55-.47-3.15" stroke="#231f20" stroke-width="6.9723"/><path d="m0 0h850.394v850.394h-850.394z"/></g></svg>