<svg enable-background="new 0 0 850.394 850.394" height="850.394" viewBox="0 0 850.394 850.394" width="850.394" xmlns="http://www.w3.org/2000/svg"><path d="m233.18 590.17h11.34v11.59h-11.34z" fill="#c8c8c8"/><path d="m252.9 590.17h11.34v11.59h-11.34z" fill="#c8c8c8"/><path d="m252.9 571.77h11.34v11.57h-11.34z" fill="#c8c8c8"/><path d="m253.07 552.59h11.33v11.58h-11.33z" fill="#c8c8c8"/><path d="m233.35 552.59h11.34v11.58h-11.34z" fill="#c8c8c8"/><path d="m233.18 571.77h11.34v11.57h-11.34z" fill="#c8c8c8"/><path d="m213.46 590.17h11.34v11.59h-11.34z" fill="#c8c8c8"/><path d="m213.46 571.77h11.34v11.57h-11.34z" fill="#c8c8c8"/><path d="m213.63 552.59h11.34v11.58h-11.34z" fill="#c8c8c8"/><path d="m289.92 470.08v72.89h-.74-101.36v-72.89z" fill="#797878"/><path d="m289.92 542.97v-72.89h-102.1v72.89l-16.1 59.08h-.1v-152.65h135.36v157.22h-.21l-17.59-61.92v-1.73z" fill="#c8c8c8"/><path d="m306.98 606.62v7h-135.36v-11.57h.1l16.1-59.08h101.36v1.73l17.59 61.92zm-42.58-42.45v-11.58h-11.33v11.58zm-.16 37.59v-11.59h-11.34v11.59zm0-18.42v-11.57h-11.34v11.57zm-19.55-19.17v-11.58h-11.34v11.58zm-.17 37.59v-11.59h-11.34v11.59zm0-18.42v-11.57h-11.34v11.57zm-19.55-19.17v-11.58h-11.34v11.58zm-.17 37.59v-11.59h-11.34v11.59zm0-18.42v-11.57h-11.34v11.57z" fill="#797878"/><path d="m739.14 129.07v265.18h-627.46v-265.18zm-57.26 146.45v-107.22h-86.75v107.22zm-132.56.98v-107.22h-86.75v107.22zm-163.27-.98v-107.22h-86.74v107.22zm-132.56.98v-107.22h-86.74v107.22z" fill="#f6cc4b"/><path d="m530.81 720.06v3.83h-419.13v-327.9h419.13zm-223.83-106.44v-7-157.22h-135.36v152.65 11.57z" fill="#f6cc4b"/><path d="m635.7 723.52v.37h-104.89v-3.83-324.07h104.89v5.88zm-22.24-199.45v-89.67h-58.11v89.67zm-.12 69.38v-40.79h-4.26v40.79z" fill="#ed1e29"/><path d="m738.88 395.99v327.9h-103.18v-.37-321.65-5.88zm-25.02 127.84v-89.68h-58.12v89.68zm-53.49 69.74v-40.79h-4.26v40.79z" fill="#ed1e29"/><path d="m655.74 434.15h58.12v89.68h-58.12z" fill="#fff"/><path d="m555.35 434.4h58.11v89.67h-58.11z" fill="#fff"/><path d="m166.75 169.28h86.74v107.22h-86.74z" fill="#fff"/><path d="m299.31 168.3h86.74v107.22h-86.74z" fill="#fff"/><path d="m462.57 169.28h86.75v107.22h-86.75z" fill="#fff"/><path d="m595.13 168.3h86.75v107.22h-86.75z" fill="#fff"/><g fill="none"><path d="m635.7 395.99h103.18v327.9h-103.18-104.89-419.13v-327.9h419.13z" stroke="#231f20" stroke-width="14"/><path d="m530.81 395.99v324.07" stroke="#231f20" stroke-width="14"/><path d="m555.35 434.4h58.11v89.67h-58.11z" stroke="#231f20" stroke-width="14"/><path d="m655.74 434.15h58.12v89.68h-58.12z" stroke="#231f20" stroke-width="14"/><path d="m609.08 552.66h4.26v40.79h-4.26z" stroke="#231f20" stroke-width="14"/><path d="m656.11 552.78h4.26v40.79h-4.26z" stroke="#231f20" stroke-width="14"/><path d="m306.98 606.62v7h-135.36v-11.57-152.65h135.36z" stroke="#231f20" stroke-width="14"/><path d="m187.82 542.97v-72.89h102.1v72.89h-.74z" stroke="#231f20" stroke-width="14"/><path d="m213.63 552.59h11.34v11.58h-11.34z" stroke="#231f20" stroke-width="5.8482"/><path d="m233.35 552.59h11.34v11.58h-11.34z" stroke="#231f20" stroke-width="5.8482"/><path d="m253.07 552.59h11.33v11.58h-11.33z" stroke="#231f20" stroke-width="5.8482"/><path d="m213.46 571.77h11.34v11.57h-11.34z" stroke="#231f20" stroke-width="5.8482"/><path d="m233.18 571.77h11.34v11.57h-11.34z" stroke="#231f20" stroke-width="5.8482"/><path d="m252.9 571.77h11.34v11.57h-11.34z" stroke="#231f20" stroke-width="5.8482"/><path d="m213.46 590.17h11.34v11.59h-11.34z" stroke="#231f20" stroke-width="5.8482"/><path d="m233.18 590.17h11.34v11.59h-11.34z" stroke="#231f20" stroke-width="5.8482"/><path d="m252.9 590.17h11.34v11.59h-11.34z" stroke="#231f20" stroke-width="5.8482"/><path d="m187.82 542.97-16.1 59.08" stroke="#231f20" stroke-width="14"/><path d="m289.18 544.7 17.59 61.92" stroke="#231f20" stroke-width="14"/><path d="m635.7 401.87v321.65" stroke="#231f20" stroke-width="11.6965"/><path d="m111.68 129.07h627.459v265.18h-627.459z" stroke="#231f20" stroke-width="14"/><path d="m166.75 169.28h86.74v107.22h-86.74z" stroke="#231f20" stroke-width="14"/><path d="m299.31 168.3h86.74v107.22h-86.74z" stroke="#231f20" stroke-width="14"/><path d="m462.57 169.28h86.75v107.22h-86.75z" stroke="#231f20" stroke-width="14"/><path d="m595.13 168.3h86.75v107.22h-86.75z" stroke="#231f20" stroke-width="14"/><path d="m0 0h850.394v850.394h-850.394z"/></g></svg>