<svg enable-background="new 0 0 850.394 850.394" height="850.394" viewBox="0 0 850.394 850.394" width="850.394" xmlns="http://www.w3.org/2000/svg"><path d="m303.07 246.91c17.63 6.61 37.57 11.86 59.13 15.41 20.7 3.42 42.89 5.27 65.979 5.27 65.88 0 124.471-15.07 161.83-38.47 24.471-15.32 39.84-34.22 42.181-54.79h.02c2.11 10.03 3.22 20.36 3.22 30.91 0 69.61-48.029 129.76-117.66 158.15v.01c-27.109 11.05-57.5 17.3-89.609 17.41-.29 0-.59 0-.88 0-32.97 0-64.16-6.47-91.86-17.98-68.9-28.62-116.3-88.43-116.3-157.59 0-8.37-.1-24.89 4.73-36.43 0 20.88 13.41 40.25 36.29 56.21 1.75 1.22 3.56 2.42 5.42 3.6 10.799 6.86 23.419 13.01 37.509 18.29z" fill="#be0000"/><path d="m599.34 217c7.521-9.55 11.73-19.88 11.94-30.68.01-.29.01-.57.01-.86 0-8.78-2.65-17.27-7.57-25.28-5.34-8.66-13.34-16.78-23.56-24.11-10.47-7.51-23.25-14.2-37.86-19.83-15.68-6.06-33.46-10.88-52.72-14.19-19.19-3.31-39.86-5.11-61.4-5.11-68.85 0-128.84 18.38-160.11 45.53-10.93 9.49-18.35 20.06-21.42 31.29-1.05 3.83-1.59 7.73-1.59 11.7 0 5.24.94 10.38 2.75 15.37 3.01 8.32 8.43 16.24 15.89 23.58l-3.56.61c-22.88-15.96-36.29-35.33-36.29-56.21 0-54.55 91.48-98.78 204.33-98.78 112.851 0 204.33 44.23 204.33 98.78 0 1.85-.109 3.69-.319 5.52-2.341 20.57-17.71 39.47-42.181 54.79l-.88-1.41c3.88-3.44 7.29-7.01 10.21-10.71z" fill="#be0000"/><path d="m611.29 185.46c0 .29 0 .57-.01.86l-2.37-.03-305.84 60.62c-14.09-5.28-26.71-11.43-37.51-18.29l335.58-67.47 2.58-.97c4.92 8.01 7.57 16.5 7.57 25.28z" fill="#c8c8c8"/><path d="m608.91 186.29 2.37.03c-.21 10.8-4.42 21.13-11.94 30.68l-236.96 44.23-.18 1.09c-21.56-3.55-41.5-8.8-59.13-15.41z" fill="#c8c8c8"/><path d="m603.72 160.18-2.58.97-335.58 67.47c-1.86-1.18-3.67-2.38-5.42-3.6l3.56-.61c-7.46-7.34-12.88-15.26-15.89-23.58l5.74-.02 326.61-64.74c10.22 7.33 18.22 15.45 23.56 24.11z" fill="#c8c8c8"/><path d="m362.38 261.23 236.96-44.23c-2.92 3.7-6.33 7.27-10.21 10.71l.88 1.41c-37.359 23.4-95.95 38.47-161.83 38.47-23.09 0-45.28-1.85-65.979-5.27z" fill="#c8c8c8"/><path d="m580.16 136.07-326.61 64.74-5.74.02c-1.81-4.99-2.75-10.13-2.75-15.37 0-3.97.54-7.87 1.59-11.7l295.64-57.5.01-.02c14.61 5.63 27.39 12.32 37.86 19.83z" fill="#c8c8c8"/><path d="m542.3 116.24-.01.02-295.64 57.5c3.07-11.23 10.49-21.8 21.42-31.29l.02.02 221.49-40.44c19.26 3.31 37.04 8.13 52.72 14.19z" fill="#c8c8c8"/><path d="m489.58 102.05-221.49 40.44-.02-.02c31.27-27.15 91.26-45.53 160.11-45.53 21.54 0 42.21 1.8 61.4 5.11z" fill="#c8c8c8"/><g fill="none"><path d="m223.85 168.81c0-54.55 91.48-98.78 204.33-98.78 112.851 0 204.33 44.23 204.33 98.78 0 1.85-.109 3.69-.319 5.52-2.341 20.57-17.71 39.47-42.181 54.79-37.359 23.4-95.95 38.47-161.83 38.47-23.09 0-45.28-1.85-65.979-5.27-21.56-3.55-41.5-8.8-59.13-15.41-14.09-5.28-26.71-11.43-37.51-18.29-1.86-1.18-3.67-2.38-5.42-3.6-22.881-15.96-36.291-35.33-36.291-56.21z" stroke="#231f20" stroke-width="21"/><path d="m263.7 224.41c-7.46-7.34-12.88-15.26-15.89-23.58-1.81-4.99-2.75-10.13-2.75-15.37 0-3.97.54-7.87 1.59-11.7 3.07-11.23 10.49-21.8 21.42-31.29 31.27-27.15 91.26-45.53 160.11-45.53 21.54 0 42.21 1.8 61.4 5.11 19.26 3.31 37.04 8.13 52.72 14.19 14.61 5.63 27.391 12.32 37.86 19.83 10.22 7.33 18.22 15.45 23.56 24.11 4.92 8.01 7.57 16.5 7.57 25.28 0 .29 0 .57-.01.86-.21 10.8-4.42 21.13-11.94 30.68-2.92 3.7-6.33 7.27-10.21 10.71" stroke="#231f20" stroke-width="14"/><path d="m268.09 142.49 221.49-40.44" stroke="#231f20" stroke-width="14"/><path d="m362.38 261.23 236.96-44.23 1.56-.29" stroke="#231f20" stroke-width="14"/><path d="m246.14 173.86.51-.1 295.64-57.5" stroke="#231f20" stroke-width="14"/><path d="m253.55 200.81 326.61-64.74" stroke="#231f20" stroke-width="14"/><path d="m295.15 248.48 7.92-1.57 305.84-60.62" stroke="#231f20" stroke-width="14"/><path d="m262.9 229.16 2.66-.54 335.58-67.47" stroke="#231f20" stroke-width="14"/><path d="m517.77 363.4c-27.109 11.05-57.5 17.3-89.609 17.41-.29 0-.59 0-.88 0-32.97 0-64.16-6.47-91.86-17.98-68.9-28.62-116.3-88.43-116.3-157.59 0-8.37-.1-24.89 4.73-36.43" stroke="#231f20" stroke-width="21"/><path d="m632.21 174.33c2.11 10.03 3.22 20.36 3.22 30.91 0 69.61-48.029 129.76-117.66 158.15" stroke="#231f20" stroke-width="21"/><path d="m335.43 362.82-.01.01-52.21 112.98-21.63 46.82-1.61 3.47" stroke="#231f20" stroke-linecap="round" stroke-width="21"/><path d="m314.15 521.76c.01.3.01.601.01.9 0 18.34-9.82 34.43-24.59 43.52-8.08 4.971-17.65 7.851-27.9 7.851-29 0-52.5-23-52.5-51.37 0-28.36 23.5-51.36 52.5-51.36 7.67 0 14.97 1.61 21.54 4.51 17.99 7.929 30.58 25.489 30.94 45.949z" stroke="#231f20" stroke-width="21"/><path d="m459.5 689.3c13.96 9.24 23.14 24.87 23.14 42.601 0 28.369-23.489 51.359-52.489 51.359-28.99 0-52.49-22.99-52.49-51.359 0-15.351 6.88-29.131 17.79-38.53 8.79-7.601 20.2-12.351 32.729-12.8.65-.03 1.311-.04 1.971-.04 10.869-.001 20.969 3.229 29.349 8.769z" stroke="#231f20" stroke-width="21"/><path d="m428.18 732.69v-52.12-160.79-134.79" stroke="#231f20" stroke-linecap="round" stroke-width="21"/><path d="m517.77 363.39v.01l83.13 175.12" stroke="#231f20" stroke-width="21"/><path d="m259.97 530.62 29.6 35.56 105.88 127.19 32.73 39.32" stroke="#231f20" stroke-width="14"/><path d="m261.67 522.67 52.48-.91 114.03-1.98 155.65-2.71" stroke="#231f20" stroke-width="14"/><path d="m583.83 517.07-124.33 172.23-31.32 43.39" stroke="#231f20" stroke-width="14"/><path d="m0 0h850.394v850.394h-850.394z"/></g></svg>