<svg enable-background="new 0 0 850.394 850.394" height="850.394" viewBox="0 0 850.394 850.394" width="850.394" xmlns="http://www.w3.org/2000/svg"><path d="m573.09 493.82s38.75 43.05-2.29 134.87l-.12.14c-19.09-16.17-31.21-40.311-31.21-67.3 0-27.75 12.82-52.511 32.86-68.66z" fill="#ffffc2"/><path d="m570.8 628.69c41.04-91.82 2.29-134.87 2.29-134.87l-.76-.95c15.12-12.2 34.36-19.5 55.3-19.5 20.19 0 38.79 6.79 53.65 18.2l-.021.02s-39.75 47.07 1.29 138.88l.01.021c-15.06 12.01-34.149 19.2-54.93 19.2-21.71 0-41.59-7.851-56.95-20.86z" fill="#ffffc2"/><path d="m681.28 491.57c20.979 16.109 34.51 41.46 34.51 69.96 0 27.92-12.98 52.81-33.23 68.96l-.01-.021c-41.04-91.81-1.29-138.88-1.29-138.88z" fill="#ffffc2"/><path d="m161.18 754.71c3.23 3 3.42 8.04.41 11.28l-19.04 20.45c-3 3.239-8.05 3.409-11.28.409l-52.61-48.939c-3.22-3-3.41-8.061-.41-11.29l19.04-20.46c3.01-3.22 8.05-3.41 11.29-.4l8.95 8.33 31.76 29.55z" fill="#231f20"/><path d="m765.37 152.13c.61 16.93-200.16 219.08-260.32 273.98 0 0-275.46 231.199-354.31 315.97l-1.45 1.56-31.76-29.55 2.91-3.13c78.85-84.77 288.95-373.97 288.95-373.97 50.419-63.97 237.56-278.8 254.5-279.41 16.91-.61 58.82 38.36 58.82 38.36l.17.29s41.88 38.98 42.49 55.9z" fill="#f6cc4b"/><g fill="none"><path d="m681.28 491.57c20.979 16.109 34.51 41.46 34.51 69.96 0 27.92-12.98 52.81-33.23 68.96-15.06 12.01-34.149 19.2-54.93 19.2-21.71 0-41.59-7.851-56.95-20.86-19.09-16.17-31.21-40.311-31.21-67.3 0-27.75 12.82-52.511 32.86-68.66 15.12-12.2 34.36-19.5 55.3-19.5 20.19 0 38.79 6.79 53.65 18.2z" stroke="#231f20" stroke-width="14"/><path d="m120.44 710.96c78.85-84.77 288.95-373.97 288.95-373.97 50.419-63.97 237.56-278.8 254.5-279.41 16.91-.61 58.82 38.36 58.82 38.36l.17.29s41.88 38.98 42.49 55.9c.61 16.93-200.16 219.08-260.32 273.98 0 0-275.46 231.199-354.31 315.97" stroke="#231f20" stroke-width="21"/><path d="m149.29 743.64 11.89 11.07c3.23 3 3.42 8.04.41 11.28l-19.04 20.45c-3 3.239-8.05 3.409-11.28.409l-52.61-48.939c-3.22-3-3.41-8.061-.41-11.29l19.04-20.46c3.01-3.22 8.05-3.41 11.29-.4l8.95 8.33z" stroke="#231f20" stroke-width="21"/><path d="m681.26 491.59s-39.75 47.07 1.29 138.88" stroke="#231f20" stroke-width="14"/><path d="m573.09 493.82s38.75 43.05-2.29 134.87" stroke="#231f20" stroke-width="14"/><path d="m0 0h850.394v850.394h-850.394z"/></g></svg>