<svg enable-background="new 0 0 850.394 850.394" height="850.394" viewBox="0 0 850.394 850.394" width="850.394" xmlns="http://www.w3.org/2000/svg"><path d="m216 736-5.14.12c-8.73-15.33-18.76-35.07-29.27-56.96l2.41-1.16c18.54 1.91 35.11 2.68 65.23 3.93h3.41v55.46c-12.9-.34-24.99-.81-36.64-1.39z" fill="#faa41f"/><path d="m303.61 683.38v54.601c-18.59.039-35.37-.171-50.97-.591v-55.46-53.68c15.57.44 32.54.71 50.97.76z" fill="#faa41f"/><path d="m252.64 628.25v53.68h-3.41c-30.12-1.25-46.69-2.02-65.23-3.93l-2.41 1.16c-8.45-17.61-17.21-36.62-25.84-55.83l1.93-.87c22.9 2.35 54.13 4.64 94.96 5.79z" fill="#faa41f"/><path d="m303.61 737.98v17.029c0 14.021-11.18 25.37-24.96 25.37h-1.05c-.86 0-1.71-.04-2.55-.13-12.59-1.3-22.41-12.1-22.41-25.24v-17.62c15.6.421 32.38.631 50.97.591z" fill="#faa41f"/><path d="m277.6 780.38h1.05c13.78 0 24.96-11.35 24.96-25.37v-17.03-54.6h5.48c25.12.23 53.15.03 84.3-.75v70.51c0 13.87 11.06 25.11 24.71 25.11h1.03c13.64 0 24.71-11.24 24.71-25.11v-70.98-114.23h89.51 5.79v61.09 108.89 17.1c0 14.021 11.19 25.37 24.971 25.37h1.04c.859 0 1.71-.04 2.55-.13l.33 3.67c-13.811 1.17-31.28.08-58.721-.13v.06s-73.829 1.061-152.64 0c-41.45-.56-64.59 1.53-81.95.07l.33-3.67c.84.09 1.69.13 2.55.13z" fill="#faa41f"/><path d="m252.64 515.37v52.189h-4.46c-90.25-3.899-116.18-9.559-116.18-9.559l-4.5.94c-8.93-20.801-17.07-40.12-23.76-56.171l2.26-.769s41.6 10.43 146.64 13.37z" fill="#faa41f"/><path d="m252.64 567.56v60.69c-40.83-1.15-72.06-3.44-94.96-5.79l-1.93.87c-9.78-21.771-19.41-43.811-28.25-64.39l4.5-.94s25.93 5.66 116.18 9.56z" fill="#faa41f"/><path d="m443.84 492.69v75.239h-38.03c-4.19.13-8.33.24-12.42.351v-53.46-22.13c0-13.881 11.06-25.12 24.71-25.12h1.03c13.64 0 24.71 11.24 24.71 25.12z" fill="#faa41f"/><path d="m393.39 514.82v53.46c-31.54.819-59.9 1.04-85.3.8h-4.48v-52.96c26.06.07 55.05-.311 87.18-1.3z" fill="#faa41f"/><path d="m303.61 569.08v59.93c-18.43-.05-35.4-.319-50.97-.76v-60.69-52.19c15.57.43 32.54.7 50.97.75z" fill="#faa41f"/><path d="m277.6 466.51c-13.79 0-24.96 11.351-24.96 25.37v23.49c-105.04-2.94-146.64-13.37-146.64-13.37l-2.26.77c-11.28-27.029-18.45-44.8-18.45-44.8l.79-1.899c4.38 2.279 9.98 4.199 17.07 5.1 11.19 1.42 90.63 2.21 175.51 2.65l-.01 2.689z" fill="#faa41f"/><path d="m418.1 467.57c-13.65 0-24.71 11.239-24.71 25.12v22.13h-2.6c-32.13.989-61.12 1.37-87.18 1.3v-24.24c0-14.02-11.18-25.37-24.96-25.37l.01-2.689c49.04.25 99.9.39 140.47.46v3.29h-1.03z" fill="#faa41f"/><path d="m303.61 491.88v24.24c-18.43-.05-35.4-.32-50.97-.75v-23.49c0-14.02 11.17-25.37 24.96-25.37h1.05c13.78 0 24.96 11.35 24.96 25.37z" fill="#faa41f"/><path d="m760.32 355.63c1.64-1.08 2.699-2.08 3.38-2.86 23.34 19 7.42 89.18 7.42 89.18s-3.99 10.17-18.38 15.92c-3.67 1.47-8.01 2.649-13.141 3.3-10.989 1.4-89.42 2.18-174.46 2.63-22.71.12-45.89.21-68.39.29v.28c-9.38 0-38.79-.021-77.62-.09-40.57-.07-91.43-.21-140.47-.46-84.88-.44-164.32-1.23-175.51-2.65-7.09-.9-12.69-2.82-17.07-5.1-11.2-5.84-14.45-14.12-14.45-14.12s-13.92-61.34 3.35-84.85c1.2-1.64 2.55-3.09 4.07-4.33 2.31 2.64 9.01 7.75 27.26 10.07 24.01 3.06 362.61 3.2 395.01 3.21v-.27c105.85-.34 220.93-1.13 235.12-2.94 12.851-1.63 19.981-4.65 23.881-7.21z" fill="#faa41f"/><path d="m752.74 457.87 4.64.31c-.82 2.011-7.57 18.681-17.84 43.33l-5.54.49s-36.17 8.9-143.88 11.19v-21.31c0-14.02-11.18-25.37-24.97-25.37l-.011-2.71c85.04-.45 163.471-1.229 174.46-2.63 5.131-.65 9.471-1.83 13.141-3.3z" fill="#faa41f"/><path d="m739.54 501.51c-6.65 15.96-14.78 35.26-23.73 56.12l-3.81-1.63s-27.18 7.66-117.43 11.56h-4.45v-54.37c107.71-2.29 143.88-11.19 143.88-11.19z" fill="#faa41f"/><path d="m712 556 3.81 1.63c-8.989 20.95-18.819 43.47-28.81 65.7l-1.93-.87c-22.9 2.36-54.12 4.64-94.95 5.78v-60.68h4.45c90.25-3.9 117.43-11.56 117.43-11.56z" fill="#faa41f"/><path d="m685.07 622.46 1.93.87c-19.88 44.25-40.42 87.4-56.37 114.979l-4.63-2.309c-12.05.6-23.49 1.07-35.88 1.39v-109.15c40.83-1.14 72.05-3.42 94.95-5.78z" fill="#faa41f"/><path d="m590.12 737.39v17.62c0 13.141-9.83 23.94-22.42 25.24-.84.09-1.69.13-2.55.13h-1.04c-13.78 0-24.971-11.35-24.971-25.37v-17.1c20.131.04 36.241-.14 50.981-.52z" fill="#faa41f"/><path d="m590.12 628.24v109.15c-14.74.38-30.851.561-50.98.521v-108.891c18.44-.06 35.41-.33 50.98-.78z" fill="#faa41f"/><path d="m590.12 513.19v54.369 60.681c-15.57.45-32.54.72-50.98.779v-61.09-76.05c0-14.02 11.19-25.37 24.971-25.37h1.04c13.79 0 24.97 11.351 24.97 25.37v21.311z" fill="#faa41f"/><path d="m496.75 464.37v-.28c22.5-.08 45.68-.17 68.39-.29l.011 2.71h-1.04c-13.78 0-24.971 11.351-24.971 25.37v76.05h-5.79-89.51v-75.24c0-13.881-11.07-25.12-24.71-25.12v-3.29c38.83.07 68.24.09 77.62.09z" fill="#faa41f"/><path d="m443.84 682.16v70.979c0 13.87-11.07 25.11-24.71 25.11h-1.03c-13.65 0-24.71-11.24-24.71-25.11v-70.51c5.44-.14 10.98-.3 16.62-.47 0 .001 14.05.001 33.83.001z" fill="#faa41f"/><path d="m443.84 567.93v114.23c-19.78 0-33.83 0-33.83 0-5.64.17-11.18.33-16.62.47v-54.92-59.43c4.09-.11 8.23-.221 12.42-.351h38.03z" fill="#faa41f"/><path d="m393.39 627.71v54.92c-31.15.78-59.18.98-84.3.75h-5.48v-54.37c26.14.07 55.23-.3 87.48-1.3z" fill="#faa41f"/><path d="m393.39 568.28v59.43h-2.3c-32.25 1-61.34 1.37-87.48 1.3v-59.93h4.48c25.4.24 53.76.02 85.3-.8z" fill="#faa41f"/><g fill="none"><path d="m308.09 569.08c25.4.24 53.76.02 85.3-.8 4.09-.11 8.23-.221 12.42-.351h38.03 89.51" stroke="#231f20" stroke-width="35"/><path d="m132 558s25.93 5.66 116.18 9.56" stroke="#231f20" stroke-width="35"/><path d="m503.8 366.05s-.85 0-2.479 0c-32.4-.01-371-.15-395.01-3.21-18.25-2.32-24.95-7.43-27.26-10.07-.88-1.02-1.12-1.67-1.12-1.67" stroke="#231f20" stroke-linecap="round" stroke-linejoin="round" stroke-width="28"/><path d="m499.92 464.37s-1.1 0-3.17 0c-9.38 0-38.79-.021-77.62-.09-40.57-.07-91.43-.21-140.47-.46-84.88-.44-164.32-1.23-175.51-2.65-7.09-.9-12.69-2.82-17.07-5.1-11.2-5.84-14.45-14.12-14.45-14.12s-13.92-61.34 3.35-84.85c1.2-1.64 2.55-3.09 4.07-4.33 2.1-1.71 4.51-3.01 7.29-3.8" stroke="#231f20" stroke-width="28"/><path d="m85.29 457.97s7.17 17.771 18.45 44.8c6.69 16.051 14.83 35.37 23.76 56.171 8.84 20.579 18.47 42.619 28.25 64.39 8.63 19.21 17.39 38.22 25.84 55.83 10.51 21.89 20.54 41.63 29.27 56.96 8.9 15.6 16.46 26.62 21.81 30.649 15.44 11.641 26.4 15.841 42.05 17.15 17.36 1.46 40.5-.63 81.95-.07 78.811 1.061 152.64 0 152.64 0" stroke="#231f20" stroke-width="28"/><path d="m303.61 737.98v17.029c0 14.021-11.18 25.37-24.96 25.37h-1.05c-.86 0-1.71-.04-2.55-.13-12.59-1.3-22.41-12.1-22.41-25.24v-17.62-55.46-53.68-60.69-52.189-23.49c0-14.02 11.17-25.37 24.96-25.37h1.05c13.78 0 24.96 11.351 24.96 25.37v24.24 52.96 59.93 54.37z" stroke="#231f20" stroke-width="28"/><path d="m443.84 682.16v70.979c0 13.87-11.07 25.11-24.71 25.11h-1.03c-13.65 0-24.71-11.24-24.71-25.11v-70.51-54.92-59.43-53.46-22.13c0-13.881 11.06-25.12 24.71-25.12h1.03c13.64 0 24.71 11.239 24.71 25.12v75.239z" stroke="#231f20" stroke-width="28"/><path d="m106 502s41.6 10.43 146.64 13.37c15.57.43 32.54.7 50.97.75 26.06.07 55.05-.311 87.18-1.3" stroke="#231f20" stroke-width="35"/><path d="m448 514 83.13 3.75" stroke="#231f20" stroke-width="35"/><path d="m157.68 622.46c22.9 2.35 54.13 4.64 94.96 5.79 15.57.44 32.54.71 50.97.76 26.14.07 55.23-.3 87.48-1.3" stroke="#231f20" stroke-width="28"/><path d="m446.79 633.05h81.51" stroke="#231f20" stroke-width="36.5163"/><path d="m309.09 683.38c25.12.23 53.15.03 84.3-.75 5.44-.14 10.98-.3 16.62-.47h33.83 85.641" stroke="#231f20" stroke-width="35"/><path d="m184 678c18.54 1.91 35.11 2.68 65.23 3.93" stroke="#231f20" stroke-width="35"/><path d="m216 736c11.65.58 23.74 1.05 36.64 1.39 15.6.42 32.38.63 50.97.591 22.88-.03 48.49-.461 78.02-1.37" stroke="#231f20" stroke-width="35"/><path d="m452 740 75.97 1.94" stroke="#231f20" stroke-width="35"/><path d="m712 556s-27.18 7.66-117.43 11.56" stroke="#231f20" stroke-width="35"/><path d="m501.32 365.78c105.85-.34 220.93-1.13 235.12-2.94 12.85-1.63 19.979-4.65 23.88-7.21 1.64-1.08 2.699-2.08 3.38-2.86.89-1.02 1.13-1.67 1.13-1.67" stroke="#231f20" stroke-linecap="round" stroke-linejoin="round" stroke-width="28"/><path d="m496.75 464.09c22.5-.08 45.68-.17 68.39-.29 85.04-.45 163.471-1.229 174.46-2.63 5.131-.65 9.471-1.83 13.141-3.3 14.39-5.75 18.38-15.92 18.38-15.92s15.92-70.18-7.42-89.18c-1.04-.85-2.16-1.59-3.36-2.22-1.22-.65-2.53-1.18-3.93-1.58" stroke="#231f20" stroke-width="28"/><path d="m757.46 457.97s-.03.07-.08.21c-.82 2.011-7.57 18.681-17.84 43.33-6.65 15.96-14.78 35.26-23.73 56.12-8.989 20.95-18.819 43.47-28.81 65.7-19.88 44.25-40.42 87.4-56.37 114.979-8.36 14.45-15.45 24.62-20.54 28.46-15.439 11.641-26.399 15.841-42.06 17.15-13.811 1.17-31.28.08-58.721-.13-5.319-.04-11.01-.05-17.13 0" stroke="#231f20" stroke-width="28"/><path d="m539.14 737.91v17.1c0 14.021 11.19 25.37 24.971 25.37h1.04c.859 0 1.71-.04 2.55-.13 12.59-1.3 22.42-12.1 22.42-25.24v-17.62-109.15-60.68-54.37-21.31c0-14.02-11.18-25.37-24.97-25.37h-1.04c-13.78 0-24.971 11.351-24.971 25.37v76.05 61.09z" stroke="#231f20" stroke-width="28"/><path d="m734 502s-36.17 8.9-143.88 11.19c-13.29.279-27.67.46-43.21.51" stroke="#231f20" stroke-width="35"/><path d="m685.07 622.46c-22.9 2.36-54.12 4.64-94.95 5.78-15.57.45-32.54.72-50.98.779-.43 0-.87 0-1.31 0" stroke="#231f20" stroke-width="35"/><path d="m656 680c-18.53 1.91-32.36.68-62.47 1.93" stroke="#231f20" stroke-width="35"/><path d="m626 736c-12.05.6-23.49 1.07-35.88 1.39-14.74.38-30.851.561-50.98.521-.81.01-1.63 0-2.449 0" stroke="#231f20" stroke-width="35"/><path d="m75.58 369.68c-.3-4.17-.51-8.37-.6-12.58-.05-1.89-.07-3.79-.07-5.69 0-160.08 153.44-289.85 342.72-289.85 188.94 0 342.17 129.31 342.71 288.99.01.29.01.57.01.86 0 1.41-.01 2.82-.029 4.22-.09 4.76-.301 9.5-.65 14.19" stroke="#231f20" stroke-width="28"/><path d="m0 0h850.394v850.394h-850.394z"/><path d="m0 0h850.394v850.394h-850.394z"/></g></svg>