<svg enable-background="new 0 0 850.394 850.394" height="850.394" viewBox="0 0 850.394 850.394" width="850.394" xmlns="http://www.w3.org/2000/svg"><path d="m694.53 246.4c27.89 12.44 47.33 40.41 47.33 72.92v213.43c0 44.07-35.73 79.8-79.811 79.8h-469.159c-44.07 0-79.8-35.729-79.8-79.8v-213.43c0-35.06 22.6-64.84 54.03-75.56 8.08-2.75 16.75-4.25 25.77-4.25h17.32 7.02 53.76 7.02 57.32 6.97 53.81 6.97 258.97c11.57 0 22.56 2.46 32.48 6.89zm14.19 265.95v-176.17c0-36.38-32.029-65.88-71.55-65.88h-420.57c-39.51 0-71.54 29.5-71.54 65.88v176.17c0 36.381 32.03 65.881 71.54 65.881h420.57c39.52-.001 71.55-29.501 71.55-65.881z" fill="#f0947d"/><path d="m708.72 336.18v176.17c0 36.381-32.029 65.881-71.55 65.881h-420.57c-39.51 0-71.54-29.5-71.54-65.881v-176.17c0-36.38 32.03-65.88 71.54-65.88h420.57c39.52 0 71.55 29.5 71.55 65.88z" fill="#f0947d"/><g fill="none"><path d="m85.18 255 31.04 21.87" stroke="#231f20" stroke-linecap="round" stroke-linejoin="round" stroke-width="21"/><path d="m114.83 235.81 7.24 37.28" stroke="#231f20" stroke-linecap="round" stroke-linejoin="round" stroke-width="21"/><path d="m136.2 221.97 30.92 21.79" stroke="#231f20" stroke-linecap="round" stroke-linejoin="round" stroke-width="21"/><path d="m165.85 202.79 7.25 37.28" stroke="#231f20" stroke-linecap="round" stroke-linejoin="round" stroke-width="21"/><path d="m162.51 650.17 9.34-36.82" stroke="#231f20" stroke-linecap="round" stroke-linejoin="round" stroke-width="21"/><path d="m133.99 629.32 32.24-20.08" stroke="#231f20" stroke-linecap="round" stroke-linejoin="round" stroke-width="21"/><path d="m113.43 614.3 9.35-36.82" stroke="#231f20" stroke-linecap="round" stroke-linejoin="round" stroke-width="21"/><path d="m84.92 593.46 32.23-20.09" stroke="#231f20" stroke-linecap="round" stroke-linejoin="round" stroke-width="21"/><path d="m768.61 595.2-32.54-19.57" stroke="#231f20" stroke-linecap="round" stroke-linejoin="round" stroke-width="21"/><path d="m740.43 616.49-9.92-36.66" stroke="#231f20" stroke-linecap="round" stroke-linejoin="round" stroke-width="21"/><path d="m720.1 631.83-32.54-19.58" stroke="#231f20" stroke-linecap="round" stroke-linejoin="round" stroke-width="21"/><path d="m691.91 653.11-9.92-36.66" stroke="#231f20" stroke-linecap="round" stroke-linejoin="round" stroke-width="21"/><path d="m766.94 264.86-37.31 7.06" stroke="#231f20" stroke-linecap="round" stroke-linejoin="round" stroke-width="21"/><path d="m747.9 235.11-22.03 30.94" stroke="#231f20" stroke-linecap="round" stroke-linejoin="round" stroke-width="21"/><path d="m725.24 224.74-30.71 21.66" stroke="#231f20" stroke-linecap="round" stroke-linejoin="round" stroke-width="21"/><path d="m695.59 205.56-7.24 37.28" stroke="#231f20" stroke-linecap="round" stroke-linejoin="round" stroke-width="21"/><path d="m72.41 572.11 35.23-14.17" stroke="#231f20" stroke-linecap="round" stroke-linejoin="round" stroke-width="21"/><path d="m72.41 536.79 35.23 14.18" stroke="#231f20" stroke-linecap="round" stroke-linejoin="round" stroke-width="21"/><path d="m72.3 504.65 35.23-14.17" stroke="#231f20" stroke-linecap="round" stroke-linejoin="round" stroke-width="21"/><path d="m72.3 469.34 35.23 14.17" stroke="#231f20" stroke-linecap="round" stroke-linejoin="round" stroke-width="21"/><path d="m72.3 443.88 35.23-14.18" stroke="#231f20" stroke-linecap="round" stroke-linejoin="round" stroke-width="21"/><path d="m72.3 408.56 35.23 14.17" stroke="#231f20" stroke-linecap="round" stroke-linejoin="round" stroke-width="21"/><path d="m72.23 379.57 35.22-14.19" stroke="#231f20" stroke-linecap="round" stroke-linejoin="round" stroke-width="21"/><path d="m72.23 344.24 35.22 14.19" stroke="#231f20" stroke-linecap="round" stroke-linejoin="round" stroke-width="21"/><path d="m72.23 318.78 35.22-14.17" stroke="#231f20" stroke-linecap="round" stroke-linejoin="round" stroke-width="21"/><path d="m72.23 283.47 35.22 14.17" stroke="#231f20" stroke-linecap="round" stroke-linejoin="round" stroke-width="21"/><path d="m782.2 281.65-35.22 14.18" stroke="#231f20" stroke-linecap="round" stroke-linejoin="round" stroke-width="21"/><path d="m782.2 316.97-35.22-14.18" stroke="#231f20" stroke-linecap="round" stroke-linejoin="round" stroke-width="21"/><path d="m782.31 349.11-35.22 14.17" stroke="#231f20" stroke-linecap="round" stroke-linejoin="round" stroke-width="21"/><path d="m782.31 384.42-35.22-14.17" stroke="#231f20" stroke-linecap="round" stroke-linejoin="round" stroke-width="21"/><path d="m782.31 409.88-35.22 14.17" stroke="#231f20" stroke-linecap="round" stroke-linejoin="round" stroke-width="21"/><path d="m782.31 445.2-35.22-14.18" stroke="#231f20" stroke-linecap="round" stroke-linejoin="round" stroke-width="21"/><path d="m782.38 474.19-35.22 14.19" stroke="#231f20" stroke-linecap="round" stroke-linejoin="round" stroke-width="21"/><path d="m782.38 509.52-35.22-14.19" stroke="#231f20" stroke-linecap="round" stroke-linejoin="round" stroke-width="21"/><path d="m782.38 534.98-35.22 14.17" stroke="#231f20" stroke-linecap="round" stroke-linejoin="round" stroke-width="21"/><path d="m782.38 570.29-35.22-14.17" stroke="#231f20" stroke-linecap="round" stroke-linejoin="round" stroke-width="21"/><path d="m663.65 653.23-14.17-35.23" stroke="#231f20" stroke-linecap="round" stroke-linejoin="round" stroke-width="21"/><path d="m628.33 653.23 14.18-35.23" stroke="#231f20" stroke-linecap="round" stroke-linejoin="round" stroke-width="21"/><path d="m602.87 653.23-14.18-35.23" stroke="#231f20" stroke-linecap="round" stroke-linejoin="round" stroke-width="21"/><path d="m567.55 653.23 14.18-35.23" stroke="#231f20" stroke-linecap="round" stroke-linejoin="round" stroke-width="21"/><path d="m538.56 653.3-14.18-35.23" stroke="#231f20" stroke-linecap="round" stroke-linejoin="round" stroke-width="21"/><path d="m503.24 653.3 14.18-35.23" stroke="#231f20" stroke-linecap="round" stroke-linejoin="round" stroke-width="21"/><path d="m477.78 653.3-14.18-35.23" stroke="#231f20" stroke-linecap="round" stroke-linejoin="round" stroke-width="21"/><path d="m442.46 653.3 14.17-35.23" stroke="#231f20" stroke-linecap="round" stroke-linejoin="round" stroke-width="21"/><path d="m410.32 653.41-14.17-35.23" stroke="#231f20" stroke-linecap="round" stroke-linejoin="round" stroke-width="21"/><path d="m375 653.41 14.18-35.23" stroke="#231f20" stroke-linecap="round" stroke-linejoin="round" stroke-width="21"/><path d="m349.54 653.41-14.17-35.23" stroke="#231f20" stroke-linecap="round" stroke-linejoin="round" stroke-width="21"/><path d="m314.23 653.41 14.17-35.23" stroke="#231f20" stroke-linecap="round" stroke-linejoin="round" stroke-width="21"/><path d="m285.23 653.48-14.18-35.22" stroke="#231f20" stroke-linecap="round" stroke-linejoin="round" stroke-width="21"/><path d="m249.9 653.48 14.19-35.22" stroke="#231f20" stroke-linecap="round" stroke-linejoin="round" stroke-width="21"/><path d="m224.45 653.48-14.18-35.22" stroke="#231f20" stroke-linecap="round" stroke-linejoin="round" stroke-width="21"/><path d="m189.13 653.48 14.17-35.22" stroke="#231f20" stroke-linecap="round" stroke-linejoin="round" stroke-width="21"/><path d="m449.39 204.18 14.17 35.22" stroke="#231f20" stroke-linecap="round" stroke-linejoin="round" stroke-width="21"/><path d="m484.7 204.18-14.17 35.22" stroke="#231f20" stroke-linecap="round" stroke-linejoin="round" stroke-width="21"/><path d="m510.16 204.18 14.18 35.22" stroke="#231f20" stroke-linecap="round" stroke-linejoin="round" stroke-width="21"/><path d="m545.48 204.18-14.17 35.22" stroke="#231f20" stroke-linecap="round" stroke-linejoin="round" stroke-width="21"/><path d="m574.48 204.1 14.18 35.23" stroke="#231f20" stroke-linecap="round" stroke-linejoin="round" stroke-width="21"/><path d="m609.8 204.1-14.18 35.23" stroke="#231f20" stroke-linecap="round" stroke-linejoin="round" stroke-width="21"/><path d="m635.26 204.1 14.17 35.23" stroke="#231f20" stroke-linecap="round" stroke-linejoin="round" stroke-width="21"/><path d="m670.58 204.1-14.18 35.23" stroke="#231f20" stroke-linecap="round" stroke-linejoin="round" stroke-width="21"/><path d="m196.06 204.36 14.15 35.15" stroke="#231f20" stroke-linecap="round" stroke-linejoin="round" stroke-width="21"/><path d="m231.38 204.36-14.15 35.15" stroke="#231f20" stroke-linecap="round" stroke-linejoin="round" stroke-width="21"/><path d="m256.84 204.36 14.15 35.15" stroke="#231f20" stroke-linecap="round" stroke-linejoin="round" stroke-width="21"/><path d="m292.16 204.36-14.15 35.15" stroke="#231f20" stroke-linecap="round" stroke-linejoin="round" stroke-width="21"/><path d="m321.16 204.29 14.17 35.22" stroke="#231f20" stroke-linecap="round" stroke-linejoin="round" stroke-width="21"/><path d="m356.48 204.29-14.18 35.22" stroke="#231f20" stroke-linecap="round" stroke-linejoin="round" stroke-width="21"/><path d="m381.93 204.29 14.18 35.22" stroke="#231f20" stroke-linecap="round" stroke-linejoin="round" stroke-width="21"/><path d="m417.25 204.29-14.17 35.22" stroke="#231f20" stroke-linecap="round" stroke-linejoin="round" stroke-width="21"/><path d="m694.53 246.4c27.89 12.44 47.33 40.41 47.33 72.92v213.43c0 44.07-35.73 79.8-79.811 79.8h-469.159c-44.07 0-79.8-35.729-79.8-79.8v-213.43c0-35.06 22.6-64.84 54.03-75.56 8.08-2.75 16.75-4.25 25.77-4.25h17.32 7.02 53.76 7.02 57.32 6.97 53.81 6.97 258.97c11.57 0 22.56 2.46 32.48 6.89z" stroke="#231f20" stroke-width="21"/><path d="m708.72 512.35c0 36.381-32.029 65.881-71.55 65.881h-420.57c-39.51 0-71.54-29.5-71.54-65.881v-176.17c0-36.38 32.03-65.88 71.54-65.88h420.57c39.521 0 71.55 29.5 71.55 65.88z" stroke="#231f20" stroke-width="21"/><path d="m0 0h850.394v850.394h-850.394z"/></g></svg>