<svg enable-background="new 0 0 850.394 850.394" height="850.394" viewBox="0 0 850.394 850.394" width="850.394" xmlns="http://www.w3.org/2000/svg"><path d="m465.98 147.07h70.02 39.12c7.8 0 14.13 6.32 14.13 14.13v592.23c0 7.801-6.33 14.13-14.13 14.13h-319.08c-7.8 0-14.12-6.329-14.12-14.13v-592.23c0-7.81 6.32-14.13 14.12-14.13h30.03 78.59zm86.77 91.92c0-29.69-24.08-53.77-53.77-53.77-29.7 0-53.78 24.08-53.78 53.77 0 29.7 24.08 53.78 53.78 53.78 29.69 0 53.77-24.08 53.77-53.78zm-167.96 0c0-29.69-24.08-53.77-53.78-53.77s-53.77 24.08-53.77 53.77c0 29.7 24.07 53.78 53.77 53.78s53.78-24.08 53.78-53.78z" fill="#fbee34"/><path d="m498.98 185.22c29.689 0 53.77 24.08 53.77 53.77 0 29.7-24.08 53.78-53.77 53.78-29.7 0-53.78-24.08-53.78-53.78 0-29.69 24.08-53.77 53.78-53.77z" fill="#6ebe44"/><path d="m536.41 104.68-.41 41.32v1.07h-70.02l-1.101-42.39c0-7.8 6.33-14.13 14.13-14.13h43.271c7.8 0 14.13 6.33 14.13 14.13z" fill="#c8c8c8"/><path d="m363.78 91.43c6.82 0 12.36 5.54 12.36 12.37 0 6.52-5.07 11.88-11.48 12.32-.29.03-.58.04-.88.04h-77.71c-6.83 0-12.36-5.54-12.36-12.36 0-3.42 1.38-6.51 3.62-8.75 2.23-2.23 5.33-3.62 8.74-3.62z" fill="#c8c8c8"/><path d="m331.01 185.22c29.7 0 53.78 24.08 53.78 53.77 0 29.7-24.08 53.78-53.78 53.78s-53.77-24.08-53.77-53.78c0-29.69 24.07-53.77 53.77-53.77z" fill="#ed1d31"/><path d="m364.66 146.18v.89h-78.59v-.89-30.02h77.71c.3 0 .59-.01.88-.04v.04z" fill="#c8c8c8"/><g fill="none"><path d="m536 147.07h39.12c7.8 0 14.13 6.32 14.13 14.13v592.23c0 7.801-6.33 14.13-14.13 14.13h-319.08c-7.8 0-14.12-6.329-14.12-14.13v-592.23c0-7.81 6.32-14.13 14.12-14.13h30.03 78.59 101.32z" stroke="#231f20" stroke-width="21"/><path d="m466 148-.02-.93-1.101-42.39c0-7.8 6.33-14.13 14.13-14.13h43.271c7.8 0 14.13 6.33 14.13 14.13l-.41 41.32" stroke="#231f20" stroke-width="21"/><path d="m286.07 116.16c-6.83 0-12.36-5.54-12.36-12.36 0-3.42 1.38-6.51 3.62-8.75 2.23-2.23 5.33-3.62 8.74-3.62h77.71c6.82 0 12.36 5.54 12.36 12.37 0 6.52-5.07 11.88-11.48 12.32-.29.03-.58.04-.88.04z" stroke="#231f20" stroke-width="21"/><path d="m286.07 116.16v30.02" stroke="#231f20" stroke-width="21"/><path d="m364.66 116.16v30.02" stroke="#231f20" stroke-width="21"/><path d="m384.79 238.99c0 29.7-24.08 53.78-53.78 53.78s-53.77-24.08-53.77-53.78c0-29.69 24.07-53.77 53.77-53.77s53.78 24.08 53.78 53.77z" stroke="#231f20" stroke-width="21"/><path d="m298.35 238.9h64.23" stroke="#231f20" stroke-width="21"/><path d="m498.63 206.38v32.52 31.71" stroke="#231f20" stroke-width="21"/><path d="m552.75 238.99c0 29.7-24.08 53.78-53.77 53.78-29.7 0-53.78-24.08-53.78-53.78 0-29.69 24.08-53.77 53.78-53.77 29.69 0 53.77 24.08 53.77 53.77z" stroke="#231f20" stroke-width="21"/><path d="m466.31 238.9h32.32 31.92" stroke="#231f20" stroke-width="21"/><path d="m0 0h850.394v850.394h-850.394z"/></g></svg>