<svg enable-background="new 0 0 850.394 850.394" height="850.394" viewBox="0 0 850.394 850.394" width="850.394" xmlns="http://www.w3.org/2000/svg"><path d="m530.56 142.65v623.57c0 8.25-6.689 14.94-14.939 14.94h-181.1c-8.24 0-14.93-6.69-14.93-14.94v-623.57c0-8.25 6.69-14.93 14.93-14.93h45.74 90.561 44.8c8.248 0 14.938 6.68 14.938 14.93zm-54.03 75.19c0-28.48-23.09-51.57-51.56-51.57-28.48 0-51.57 23.09-51.57 51.57s23.09 51.57 51.57 51.57c28.47 0 51.56-23.09 51.56-51.57zm-.18 460.66c0-28.48-23.09-51.57-51.56-51.57-28.48 0-51.57 23.09-51.57 51.57s23.09 51.57 51.57 51.57c28.47 0 51.56-23.09 51.56-51.57z" fill="#fbee34"/><path d="m470.82 123.98v3.74h-90.56v-3.74-39.2c0-8.25 6.69-14.94 14.94-14.94h60.68c8.25 0 14.94 6.69 14.94 14.94z" fill="#c8c8c8"/><path d="m424.97 166.27c28.47 0 51.56 23.09 51.56 51.57s-23.09 51.57-51.56 51.57c-28.48 0-51.57-23.09-51.57-51.57s23.09-51.57 51.57-51.57z" fill="#6ebe44"/><path d="m424.79 626.93c28.47 0 51.56 23.09 51.56 51.57s-23.09 51.57-51.56 51.57c-28.48 0-51.57-23.09-51.57-51.57s23.09-51.57 51.57-51.57z" fill="#ed1d31"/><g fill="none"><path d="m380.26 123.98v-39.2c0-8.25 6.69-14.94 14.94-14.94h60.68c8.25 0 14.94 6.69 14.94 14.94v39.2" stroke="#231f20" stroke-width="21"/><path d="m470.82 127.72h44.8c8.25 0 14.939 6.68 14.939 14.93v623.57c0 8.25-6.689 14.94-14.939 14.94h-181.1c-8.24 0-14.93-6.69-14.93-14.94v-623.57c0-8.25 6.69-14.93 14.93-14.93h45.74z" stroke="#231f20" stroke-width="21"/><path d="m476.35 678.5c0 28.48-23.09 51.57-51.56 51.57-28.48 0-51.57-23.09-51.57-51.57s23.09-51.57 51.57-51.57c28.47 0 51.56 23.09 51.56 51.57z" stroke="#231f20" stroke-width="21"/><path d="m393.47 678.4h61.59" stroke="#231f20" stroke-width="21"/><path d="m424.64 186.56v31.18 30.42" stroke="#231f20" stroke-width="21"/><path d="m476.53 217.84c0 28.48-23.09 51.57-51.56 51.57-28.48 0-51.57-23.09-51.57-51.57s23.09-51.57 51.57-51.57c28.47 0 51.56 23.09 51.56 51.57z" stroke="#231f20" stroke-width="21"/><path d="m393.64 217.74h31 30.6" stroke="#231f20" stroke-width="21"/><path d="m0 0h850.394v850.394h-850.394z"/></g></svg>