<svg enable-background="new 0 0 850.394 850.394" height="850.394" viewBox="0 0 850.394 850.394" width="850.394" xmlns="http://www.w3.org/2000/svg"><path d="m468.24 136.26v3.64h-88.32v-3.64-38.25c0-8.04 6.52-14.57 14.57-14.57h59.18c8.05 0 14.57 6.53 14.57 14.57z" fill="#c8c8c8"/><path d="m526.52 154.47v608.27c0 8.04-6.52 14.56-14.569 14.56h-176.651c-8.05 0-14.57-6.52-14.57-14.56v-608.27c0-8.05 6.52-14.57 14.57-14.57h44.62 88.32 43.71c8.05 0 14.57 6.52 14.57 14.57z" fill="#fbee34"/><g fill="none"><path d="m379.92 136.26v-38.25c0-8.04 6.52-14.57 14.57-14.57h59.18c8.05 0 14.57 6.53 14.57 14.57v38.25" stroke="#231f20" stroke-width="21"/><path d="m468.24 139.9h43.71c8.05 0 14.569 6.52 14.569 14.57v608.27c0 8.04-6.52 14.56-14.569 14.56h-176.65c-8.05 0-14.57-6.52-14.57-14.56v-608.27c0-8.05 6.52-14.57 14.57-14.57h44.62z" stroke="#231f20" stroke-width="21"/><path d="m0 0h850.394v850.394h-850.394z"/></g></svg>