<svg enable-background="new 0 0 850.394 850.394" height="850.394" viewBox="0 0 850.394 850.394" width="850.394" xmlns="http://www.w3.org/2000/svg"><path d="m158.104 398.357c.463-9.698.89-19.359 1.28-28.93l.726.027h432.225l2.452-.072c.699 23.373.935 47.154.826 70.791l-437.319 1.925-2.416-.127c.8-14.538 1.544-29.121 2.226-43.614z" fill="#8c469b"/><path d="m528.301 112.417c46.209 20.086 62.799 132.891 66.486 256.965l-2.452.072h-432.225l-.726-.027c.49-12.113.926-24.09 1.298-35.858 3.296-104.07 1.389-191.95-12.949-208.44-5.648-6.501-12.431-10.37-19.532-11.042z" fill="#cb82b7"/><path d="m152.546 498.396c.854-13.62 1.689-27.44 2.488-41.343.291-5.012.572-10.043.844-15.082l2.416.127 437.319-1.925c-.082 19.387-.409 38.664-.899 57.551l-2.143-.055h-.01z" fill="#cb82b7"/><path d="m588.703 563.774 3.587.173c-.927 19.895-1.971 38.8-3.061 56.279l-2.343-.154-438.699-2.179-4.004-.309c1.271-16.572 2.597-34.369 3.923-53.039.1-1.435.2-2.888.299-4.35l2.915.2z" fill="#cb82b7"/><path d="m583.082 704.075v30.128l-226.328-.79h223.658s1.081-10.715 2.67-29.338z" fill="#231f20"/><path d="m583.082 676.961v27.114c-1.589 18.623-2.67 29.338-2.67 29.338h-223.658l-222.105-.771c.372-4.122 2.225-24.58 4.794-55.681z" fill="#231f20"/><path d="m583.082 676.961h-443.639c.045-.545.091-1.099.136-1.652 1.38-16.59 2.951-36.104 4.604-57.724l4.004.309 438.699 2.179 2.343.154c-2.152 34.751-4.44 63.854-6.147 83.849z" fill="#8c469b"/><path d="m128.192 114.088h.009c7.101.672 13.884 4.54 19.532 11.042 14.338 16.49 16.245 104.37 12.949 208.44l-.999-.037h-74.232l-4.704.182c-.49-13.611-1.307-27.486-2.497-41.534-11.35-133.318 21.848-180.736 49.942-178.093z" fill="#cb82b7"/><path d="m159.683 333.533.999.037c-.372 11.768-.808 23.745-1.298 35.858-.391 9.571-.817 19.232-1.28 28.93h-74.741l-2.452-.073c.626-20.503.663-42.178-.164-64.57l4.704-.182z" fill="#8c469b"/><path d="m83.363 398.357h74.741c-.681 14.492-1.426 29.075-2.225 43.613-.272 5.039-.554 10.07-.844 15.082l-2.669-.154h-73.18l-1.68-.146c1.544-17.979 2.779-37.62 3.405-58.468z" fill="#cb82b7"/><path d="m150.294 532.865c.49-7.311.98-14.72 1.462-22.192l1.652.063z" fill="#231f20"/><path d="m151.32 560.396-2.915-.2c.636-8.926 1.262-18.052 1.889-27.331l3.114-22.129-1.652-.063c.054-.809.109-1.607.163-2.416.209-3.277.418-6.564.626-9.861l440.016-.727h.01l2.143.055c-.59 22.828-1.435 45.084-2.424 66.224l-3.587-.173z" fill="#8c469b"/><path d="m152.546 498.396c-.208 3.297-.417 6.584-.626 9.861h-.009l-76.13-.735-3.813-.036c1.961-14.701 3.922-31.79 5.539-50.732l1.68.146h73.179l2.669.154c-.8 13.901-1.635 27.721-2.489 41.342z" fill="#8c469b"/><path d="m145.836 564.546-.264 1.861-47.526-1.861z" fill="#231f20"/><path d="m133.023 732.633 3.923-55.672h2.497c-2.57 31.101-4.422 51.559-4.794 55.681z" fill="#231f20"/><path d="m98.046 564.546-32.453-1.271 10.188-55.672 75.976 3.069c-.481 7.473-.972 14.882-1.462 22.192l-4.458 31.681h-47.791z" fill="#231f20"/><path d="m128.192 114.088-4.04.018" fill="none" stroke="#231f20" stroke-width="19.0687"/><path d="m583.082 704.075c1.707-19.995 3.995-49.098 6.147-83.849 1.09-17.479 2.134-36.385 3.061-56.279.989-21.14 1.834-43.396 2.424-66.224.49-18.887.817-38.164.899-57.551.108-23.637-.127-47.418-.826-70.791-3.688-124.074-20.277-236.879-66.486-256.965l-400.099 1.671" fill="none" stroke="#231f20" stroke-width="19.0687"/><path d="m134.649 732.642c-.045.509-.073.771-.073.771h222.178" fill="none" stroke="#231f20" stroke-width="19.0687"/><path d="m150.294 532.865c-.627 9.279-1.253 18.405-1.889 27.331-.1 1.462-.2 2.915-.299 4.35-1.326 18.67-2.651 36.467-3.923 53.039-1.653 21.62-3.224 41.134-4.604 57.724-.045.554-.091 1.107-.136 1.652" fill="none" stroke="#231f20" stroke-width="19.0687"/><path d="m98.046 564.546h-35.586s4.758-21.565 9.507-57.061c1.961-14.701 3.922-31.79 5.539-50.732 1.544-17.979 2.779-37.62 3.405-58.468.626-20.503.663-42.178-.164-64.57-.49-13.611-1.307-27.486-2.497-41.534-11.35-133.317 21.848-180.735 49.951-178.093 7.101.672 13.884 4.54 19.532 11.042 14.338 16.49 16.245 104.37 12.949 208.44-.372 11.768-.808 23.745-1.298 35.858-.391 9.571-.817 19.232-1.28 28.93-.681 14.492-1.426 29.075-2.225 43.613-.272 5.039-.554 10.07-.844 15.082-.799 13.902-1.634 27.723-2.488 41.343-.208 3.297-.417 6.584-.626 9.861-.054.809-.109 1.607-.163 2.416" fill="none" stroke="#231f20" stroke-width="19.0687"/><path d="m148.097 564.546h-2.261" fill="none" stroke="#231f20" stroke-width="19.0687"/><path d="m139.58 675.309h441.595" fill="none" stroke="#231f20" stroke-width="19.0687"/><path d="m71.123 507.477.844.008 3.814.036 76.13.736" fill="none" stroke="#231f20" stroke-width="19.0687"/><path d="m134.649 732.642-1.626-.009 3.923-55.672h2.497 443.639v27.114 30.128l-226.328-.79z" fill="none" stroke="#231f20" stroke-width="19.0687"/><path d="m75.781 507.604 75.975 3.069 1.653.063-3.115 22.129-4.458 31.681-.264 1.861-47.526-1.861-32.453-1.271z" fill="none" stroke="#231f20" stroke-width="19.0687"/><path d="m148.188 617.894 438.699 2.178" fill="none" stroke="#231f20" stroke-width="19.0687"/><path d="m151.32 560.396 437.383 3.378" fill="none" stroke="#231f20" stroke-width="19.0687"/><path d="m151.03 498.396h1.516l440.016-.727" fill="none" stroke="#231f20" stroke-width="19.0687"/><path d="m158.294 442.098 437.319-1.925h.009" fill="none" stroke="#231f20" stroke-width="19.0687"/><path d="m160.11 369.455h432.225" fill="none" stroke="#231f20" stroke-width="19.0687"/><path d="m167.964 311.585 422.555 1.572" fill="none" stroke="#231f20" stroke-width="19.0687"/><path d="m85.451 333.533h74.232" fill="none" stroke="#231f20" stroke-width="19.0687"/><path d="m83.363 398.357h74.741.526" fill="none" stroke="#231f20" stroke-width="19.0687"/><path d="m79.186 456.898h73.179" fill="none" stroke="#231f20" stroke-width="19.0687"/><path d="m0 0h850.394v850.394h-850.394z" fill="none"/><circle cx="780.204" cy="81.082" fill="#fbed24" r="17.794"/><path d="m635.579 223.94c4.885-1.239 44.295-10.722 93.989-8.003 37.304 2.042 63.534 12.865 76.799 19.784l-.674 20.851-178.717 1.391c4.827-.484 9.646-3.026 9.607-8.588-.033-5.167-1.371-10.397-1.161-15.566.106-2.563.146-5.911.157-9.869z" fill="#f6cc4b"/><path d="m654.693 125.415c.223-14.029.626-19.659-.424-25.198.018-.017.027-.037.041-.058l-.227-.87c-.21-.948-.461-1.906-.769-2.918l-1.764-6.734c-.261-.142-.532-.267-.813-.379-1.287-3.128-2.228-4.828-2.851-5.749.104-.024.169-.027.199-.027h.007l1.828-.399c1.957.457 17.252 4.438 21.301 18.011.143.467.268.948.38 1.438 3.581 15.719-10.546 32.632-16.91 39.596l.196-.995c.003 0-.397-3.186-.194-15.718z" fill="#58b947"/><path d="m654.084 99.289.227.87c-.014.021-.023.041-.041.058-.058-.308-.122-.616-.186-.928z" fill="#fff"/><path d="m651.552 89.637 1.764 6.734c-.335-1.114-.735-2.292-1.212-3.589-.491-1.34-.948-2.508-1.364-3.524.28.112.551.237.812.379z" fill="#fff"/><path d="m652.104 92.782c.477 1.297.877 2.475 1.212 3.589l.769 2.918c.064.312.128.62.186.928-1.147 1.788-3.036 3.047-5.233 3.352-.339.047-.681.071-1.032.071-4.117 0-7.452-3.338-7.452-7.452s3.335-7.448 7.452-7.448c.965 0 1.889.183 2.735.518.414 1.016.871 2.184 1.363 3.524z" fill="#9c5c25"/><path d="m706.022 126.01s-17.908-25.069-33.228-25.265l-1.571.349c-4.049-13.572-19.344-17.554-21.301-18.011l-1.828.399c-.003 0-.003 0-.007 0-.03 0-.095.003-.199.027-.268-.393-.475-.64-.627-.799-.223-.234-.331-.274-.331-.274s10.461-4.523 22.624-3.582c5.512.426 11.375 1.974 16.771 5.572 17.311 11.542 19.697 41.584 19.697 41.584z" fill="#58b947"/><path d="m711.236 76.228c-.552-.132-30.021-7.272-41.668 2.465l-.014.163c-12.163-.941-22.624 3.582-22.624 3.582s.108.041.331.274c-.612-.152-1.746-.41-3.243-.65l.152-.876c-.291-.427-1.131-1.608-2.509-3.135 1.595-3.507 9.368-18.335 27.555-20.549 20.445-2.494 41.607 18.312 42.02 18.726z" fill="#58b947"/><path d="m806.37 235.583-.003.139c-13.265-6.919-39.495-17.743-76.799-19.784-49.694-2.719-89.104 6.764-93.989 8.003 0-.603.003-1.222.003-1.852l13.44-38.668c3.186.034 12.065-1.178 17.607-6.72 10.129-10.132 10.129-7.048 10.129-7.048s-3.009 10.055 6.825 12.113l-.352-.064c.423.108 9.554 2.319 17.675-5.799 10.13-10.129 10.13-7.045 10.13-7.045s-3.01 10.055 6.828 12.109c0 0 8.876 2.712 18.203-5.525 10.738-9.482 10.129-7.045 10.129-7.045s-3.013 10.055 6.829 12.113l-.355-.064c.423.108 9.554 2.319 17.675-5.799 10.133-10.133 10.133-7.048 10.133-7.048s-3.013 10.055 6.821 12.109c0 0 9.5 3.176 18.407-5.731 1.182-1.182 2.224-2.184 3.148-3.033z" fill="#0071bc"/><path d="m635.582 222.089c0 .629-.003 1.249-.003 1.852-.011 3.958-.051 7.306-.156 9.869-.21 5.169 1.128 10.4 1.161 15.566.038 5.562-4.78 8.104-9.607 8.588l-3.192.024c-4.381-.376-8.954-2.982-10.146-7.461 0 0-1.493-5.972 4.178-21.487 5.671-15.519 4.679-56.418 7.624-77.956 2.735-19.998 6.89-32.497 9.141-37.765 3.596-.677 6.314-3.832 6.314-7.624 0-4.286-3.474-7.759-7.76-7.759-1.351 0-2.624.345-3.73.955 2.671-3.511 5.25-5.498 9.16-8.873 6.338-5.464 8.66-6.365 9.324-6.507.623.921 1.563 2.62 2.851 5.749-.847-.335-1.771-.518-2.735-.518-4.117 0-7.452 3.334-7.452 7.448s3.335 7.452 7.452 7.452c.352 0 .693-.024 1.032-.071-2.895 5.508-8.968 20.634-11.26 43.137-2.623 25.72-2.178 56.544-2.196 75.381z" fill="#faa41a"/><path d="m633.135 113.454c-4.286 0-7.76-3.473-7.76-7.759 0-.159.004-.318.018-.474 1.459-2.661 2.745-4.666 4.012-6.331 1.106-.609 2.38-.955 3.73-.955 4.286 0 7.76 3.474 7.76 7.759 0 3.792-2.719 6.947-6.314 7.624-.468.088-.952.136-1.446.136z" fill="#9c5c25"/><path d="m629.404 98.89c-1.267 1.666-2.553 3.67-4.012 6.331.163-2.736 1.74-5.085 4.012-6.331z" fill="#fff"/><path d="m617.843 87.982c7.945-7.641 20.086-6.906 26.176-5.921 1.497.241 2.631.498 3.243.65.152.159.359.406.627.799-.664.142-2.986 1.042-9.324 6.507-3.91 3.375-6.489 5.362-9.16 8.873-2.272 1.246-3.85 3.595-4.012 6.331-.184.332-.369.673-.556 1.025-.688 1.293-1.418 2.732-2.2 4.344-.6 1.235-1.232 2.573-1.899 4.028-.386.83-.782 1.7-1.191 2.607-5.149 11.429-6.887 13.711-6.887 13.711l-.308.965c-2.188-9.181-6.327-30.824 4.435-42.826.341-.382.693-.748 1.056-1.093z" fill="#58b947"/><path d="m644.019 82.061c-6.09-.985-18.23-1.72-26.176 5.921l-1.232-1.053c-13.403-7.214-40.95 5.789-41.313 5.958.258-.386 16.829-25.116 37.405-26.792 14.825-1.206 24.596 7.113 28.959 11.954 1.378 1.527 2.218 2.708 2.509 3.135z" fill="#58b947"/><g fill="none"><path d="m646.931 82.437s10.461-4.523 22.624-3.582c5.512.426 11.375 1.974 16.771 5.572 17.31 11.541 19.696 41.583 19.696 41.583s-17.908-25.069-33.228-25.265" stroke="#231f20" stroke-width="4.7396"/><path d="m678.367 100.941-.596-9.55" stroke="#231f20" stroke-width="4.7396"/><path d="m682.745 102.932-.597-9.55" stroke="#231f20" stroke-width="4.7396"/><path d="m686.726 105.319-.599-9.55" stroke="#231f20" stroke-width="4.7396"/><path d="m641.341 78.794s.102-.268.321-.745c1.595-3.507 9.368-18.335 27.555-20.549 20.444-2.492 41.606 18.315 42.02 18.728.004.003.007.003 0 0-.552-.132-30.021-7.272-41.668 2.465" stroke="#231f20" stroke-width="4.7396"/><path d="m673.929 75.215-6.672-6.862" stroke="#231f20" stroke-width="4.7396"/><path d="m678.547 73.875-6.673-6.859" stroke="#231f20" stroke-width="4.7396"/><path d="m683.12 73.096-6.672-6.859" stroke="#231f20" stroke-width="4.7396"/><path d="m655.645 113.938 8.514-4.36" stroke="#231f20" stroke-width="4.7396"/><path d="m655.566 118.745 8.518-4.36" stroke="#231f20" stroke-width="4.7396"/><path d="m654.967 123.346 8.518-4.36" stroke="#231f20" stroke-width="4.7396"/><path d="m644.286 81.356s-.037-.061-.115-.172c-.291-.427-1.131-1.608-2.509-3.135-4.363-4.841-14.134-13.159-28.959-11.954-20.576 1.676-37.147 26.406-37.408 26.795 0 0 0 0 .003-.003.362-.169 27.909-13.172 41.313-5.958" stroke="#231f20" stroke-width="4.7396"/><path d="m611.644 84.4 5.16-8.061" stroke="#231f20" stroke-width="4.7396"/><path d="m606.851 84.014 5.159-8.06" stroke="#231f20" stroke-width="4.7396"/><path d="m602.212 84.17 5.159-8.061" stroke="#231f20" stroke-width="4.7396"/><path d="m625.202 106.792-.365-.546-4.967-7.4" stroke="#231f20" stroke-linecap="round" stroke-linejoin="round" stroke-width="4.7396"/><path d="m622.935 111.033-.298-.443-5.032-7.506" stroke="#231f20" stroke-linecap="round" stroke-linejoin="round" stroke-width="4.7396"/><path d="m621.225 115.346-.488-.728-4.844-7.221" stroke="#231f20" stroke-linecap="round" stroke-linejoin="round" stroke-width="4.7396"/><path d="m629.404 98.89c2.671-3.511 5.25-5.498 9.16-8.873 6.338-5.464 8.66-6.365 9.324-6.507.104-.024.169-.027.199-.027h.007.017" stroke="#231f20" stroke-width="4.7396"/><path d="m647.78 82.846s-.18-.051-.519-.135c-.612-.152-1.746-.41-3.243-.65-6.09-.985-18.23-1.72-26.176 5.921-.362.345-.715.711-1.057 1.093-10.762 12.001-6.622 33.645-4.435 42.826l.308-.965s1.737-2.282 6.887-13.711c.409-.907.806-1.777 1.191-2.607.667-1.456 1.3-2.793 1.899-4.028.782-1.611 1.513-3.05 2.2-4.344.187-.352.372-.694.556-1.025" stroke="#231f20" stroke-width="4.7396"/><path d="m654.311 100.159c-.014.021-.023.041-.041.058-1.147 1.788-3.036 3.047-5.233 3.352-.339.047-.681.071-1.032.071-4.117 0-7.452-3.338-7.452-7.452s3.335-7.448 7.452-7.448c.965 0 1.889.183 2.735.518.28.112.552.237.813.379" stroke="#231f20" stroke-width="4.7396"/><path d="m629.404 98.89c1.106-.609 2.38-.955 3.73-.955 4.286 0 7.76 3.474 7.76 7.759 0 3.792-2.719 6.947-6.314 7.624-.467.088-.951.135-1.445.135-4.286 0-7.76-3.473-7.76-7.759 0-.159.004-.318.018-.474.162-2.735 1.739-5.084 4.011-6.33z" stroke="#231f20" stroke-width="4.7396"/><path d="m649.134 103.379c-.033.061-.067.125-.098.189-2.895 5.508-8.968 20.634-11.26 43.137-2.621 25.722-2.177 56.547-2.194 75.383 0 .629-.003 1.249-.003 1.852-.011 3.958-.051 7.306-.156 9.869-.21 5.169 1.128 10.4 1.161 15.566.038 5.562-4.78 8.104-9.607 8.588-1.083.108-2.163.112-3.192.024-4.381-.376-8.954-2.982-10.146-7.461 0 0-1.493-5.972 4.178-21.487 5.671-15.519 4.679-56.418 7.624-77.956 2.735-19.998 6.89-32.497 9.141-37.765.099-.233.193-.454.284-.657" stroke="#231f20" stroke-width="4.7396"/><path d="m649.717 83.036s.07.014.206.047c1.957.457 17.252 4.438 21.301 18.011.143.467.268.948.38 1.438 3.581 15.719-10.546 32.632-16.91 39.596l.196-.995s-.399-3.186-.196-15.719c.223-14.029.626-19.659-.424-25.198-.058-.308-.121-.616-.186-.928-.21-.948-.461-1.906-.769-2.918-.335-1.114-.735-2.292-1.212-3.589-.491-1.34-.948-2.508-1.364-3.524-1.287-3.128-2.228-4.828-2.851-5.749-.268-.393-.475-.64-.627-.799-.223-.234-.331-.274-.331-.274" stroke="#231f20" stroke-width="4.7396"/><path d="m649.022 183.42c3.186.034 12.065-1.178 17.607-6.72 10.129-10.132 10.129-7.048 10.129-7.048s-3.009 10.055 6.825 12.113c0 0-.352-.064-.369-.068 0 0 .007 0 .018.003.423.108 9.554 2.319 17.675-5.799 10.13-10.129 10.13-7.045 10.13-7.045s-3.01 10.055 6.828 12.109c0 0 8.876 2.712 18.203-5.525 10.738-9.482 10.129-7.045 10.129-7.045s-3.013 10.055 6.829 12.113c0 0-.355-.064-.373-.067 0 0 .007 0 .018.003.423.108 9.554 2.319 17.675-5.799 10.133-10.133 10.133-7.048 10.133-7.048s-3.013 10.055 6.821 12.109c0 0 9.5 3.176 18.407-5.731 1.182-1.182 2.224-2.184 3.148-3.033" stroke="#231f20" stroke-width="4.7396"/><path d="m646.971 202.69c3.186.041 7.959-1.178 13.498-6.717 10.133-10.133 10.133-7.048 10.133-7.048s-3.01 10.055 6.824 12.109c0 0-.352-.058-.368-.061 0 0 .006 0 .017.003.423.108 9.557 2.316 17.675-5.806 10.126-10.129 10.126-7.045 10.126-7.045s-3.006 10.055 6.828 12.113c0 0 8.877 2.715 18.204-5.525 10.742-9.483 10.133-7.049 10.133-7.049s-3.014 10.058 6.828 12.113c0 0-.355-.058-.372-.061 0 0 .006 0 .017.003.423.108 9.557 2.313 17.675-5.806 10.133-10.129 10.133-7.045 10.133-7.045s-3.013 10.055 6.821 12.11c0 0 11.088 4.78 19.995-4.127 3.236-3.24 5.443-5.129 6.939-6.199" stroke="#231f20" stroke-width="4.7396"/><circle cx="780.204" cy="81.083" r="17.794" stroke="#231f20" stroke-width="4.7396"/><path d="m780.063 60.049v-13.539" stroke="#231f20" stroke-width="4.7396"/><path d="m769.27 62.683-7.482-11.284" stroke="#231f20" stroke-width="4.7396"/><path d="m761.517 71-12.266-5.731" stroke="#231f20" stroke-width="4.7396"/><path d="m791.248 62.466 7.475-11.284" stroke="#231f20" stroke-width="4.7396"/><path d="m798.997 70.784 12.266-5.732" stroke="#231f20" stroke-width="4.7396"/><path d="m790.801 99.628 7.481 11.283" stroke="#231f20" stroke-width="4.7396"/><path d="m798.554 91.31 12.264 5.732" stroke="#231f20" stroke-width="4.7396"/><path d="m768.819 99.844-7.475 11.284" stroke="#231f20" stroke-width="4.7396"/><path d="m761.07 91.526-12.262 5.732" stroke="#231f20" stroke-width="4.7396"/><path d="m758.998 81.292h-13.538" stroke="#231f20" stroke-width="4.7396"/><path d="m814.739 81.292h-13.538" stroke="#231f20" stroke-width="4.7396"/><path d="m780.063 115.374v-13.539" stroke="#231f20" stroke-width="4.7396"/><path d="m635.067 224.073s.173-.047.512-.132c4.885-1.239 44.295-10.722 93.989-8.003 37.304 2.042 63.534 12.865 76.799 19.784.704.366 1.367.721 1.997 1.063" stroke="#231f20" stroke-width="4.7396"/></g></svg>