<svg enable-background="new 0 0 850.394 850.394" height="850.394" viewBox="0 0 850.394 850.394" width="850.394" xmlns="http://www.w3.org/2000/svg"><path d="m251.51 637.61c-.03 11.689-.15 21.58-.46 29.149-.62 15.271 3.33 30.721 3.43 45.98.11 16.43-14.12 23.939-28.38 25.37l-9.43.069c-12.94-1.109-26.45-8.81-29.97-22.04 0 0-4.41-17.64 12.34-63.47 16.75-45.84 13.82-166.65 22.52-230.27 8.08-59.07 20.35-95.99 27-111.55 10.62-2 18.65-11.32 18.65-22.52 0-12.66-10.26-22.92-22.92-22.92-3.99 0-7.75 1.02-11.02 2.82 7.89-10.37 15.51-16.24 27.06-26.21 18.72-16.14 25.58-18.8 27.54-19.22 1.84 2.72 4.62 7.74 8.42 16.98-2.5-.99-5.23-1.53-8.08-1.53-12.16 0-22.01 9.85-22.01 22s9.85 22.01 22.01 22.01c1.04 0 2.05-.07 3.05-.21-8.55 16.272-26.49 60.952-33.26 127.422-7.74 75.98-6.43 167.03-6.48 222.669 0 1.861-.01 3.691-.01 5.471z" fill="#faa41a"/><path d="m195.48 232.9c-39.59-21.31-120.96 17.1-122.03 17.6.76-1.14 49.71-74.19 110.49-79.14 43.79-3.56 72.65 21.01 85.54 35.31 4.07 4.51 6.55 8 7.41 9.26l-.45 2.59c-17.99-2.91-53.85-5.08-77.32 17.49z" fill="#58b947"/><path d="m219.78 289.96c-2.03 3.82-4.19 8.07-6.5 12.83-1.77 3.65-3.64 7.6-5.61 11.9-1.14 2.45-2.31 5.02-3.52 7.7-15.21 33.76-20.34 40.5-20.34 40.5l-.91 2.85c-6.46-27.12-18.69-91.05 13.1-126.5 1.01-1.13 2.05-2.21 3.12-3.23 23.47-22.57 59.33-20.4 77.32-17.49 4.42.71 7.77 1.47 9.58 1.92.45.47 1.06 1.2 1.85 2.36-1.96.42-8.82 3.08-27.54 19.22-11.55 9.97-19.17 15.84-27.06 26.21-6.71 3.68-11.37 10.62-11.85 18.7-.54.98-1.09 1.99-1.64 3.03z" fill="#58b947"/><path d="m288.48 222.72 5.4-1.18c5.78 1.35 50.96 13.11 62.92 53.2.42 1.38.79 2.8 1.12 4.25 10.58 46.43-31.15 96.39-49.95 116.96l.58-2.94s-1.18-9.41-.58-46.43c.66-41.44 1.85-58.07-1.25-74.43.05-.05.08-.11.12-.17l-.67-2.57c-.62-2.8-1.36-5.63-2.27-8.62l-5.21-19.89c-.77-.42-1.57-.79-2.4-1.12-3.8-9.24-6.58-14.26-8.42-16.98.31-.07.5-.08.59-.08z" fill="#58b947"/><path d="m286.02 220.44c-.66-.69-.98-.81-.98-.81s30.9-13.36 66.83-10.58c16.28 1.26 33.6 5.83 49.54 16.46 51.13 34.09 58.18 122.83 58.18 122.83s-52.9-74.05-98.15-74.63l-4.64 1.03c-11.96-40.09-57.14-51.85-62.92-53.2l-5.4 1.18c-.01 0-.01 0-.02 0-.09 0-.28.01-.59.08-.79-1.16-1.4-1.89-1.85-2.36z" fill="#58b947"/><path d="m286.02 220.44c-1.81-.45-5.16-1.21-9.58-1.92l.45-2.59c-.86-1.26-3.34-4.75-7.41-9.26 4.71-10.36 27.67-54.16 81.39-60.7 60.39-7.36 122.899 54.1 124.12 55.32-1.63-.39-88.68-21.48-123.08 7.28l-.04.48c-35.93-2.78-66.83 10.58-66.83 10.58s.32.12.98.81z" fill="#58b947"/><path d="m678.71 163.07c29.021 0 52.56 23.53 52.56 52.56s-23.539 52.56-52.56 52.56c-29.03 0-52.56-23.53-52.56-52.56s23.53-52.56 52.56-52.56z" fill="#fbed24"/><path d="m755.99 672.41-1.99 61.59-527.9 4.11c14.26-1.431 28.49-8.94 28.38-25.37-.1-15.26-4.05-30.71-3.43-45.98.31-7.569.43-17.46.46-29.149 14.43-3.66 130.84-31.67 277.63-23.641 110.19 6.03 187.67 38 226.85 58.44z" fill="#f6cc4b"/><path d="m392.27 512.84c1.25.32 28.22 6.851 52.21-17.13 29.92-29.92 29.92-20.81 29.92-20.81s-8.891 29.699 20.17 35.77c0 0 26.22 8.01 53.77-16.32 31.72-28.01 29.92-20.81 29.92-20.81s-8.899 29.7 20.17 35.78l-1.05-.19c1.25.32 28.22 6.851 52.21-17.13 29.93-29.93 29.93-20.82 29.93-20.82s-8.899 29.7 20.15 35.771c0 0 28.061 9.38 54.37-16.931 3.49-3.489 6.57-6.449 9.3-8.96l-7.34 190.94-.01.41c-39.18-20.44-116.66-52.41-226.85-58.44-146.79-8.029-263.2 19.98-277.63 23.641 0-1.78.01-3.61.01-5.471l39.7-114.22c9.41.1 35.64-3.479 52.01-19.85 29.92-29.931 29.92-20.82 29.92-20.82s-8.89 29.7 20.16 35.78z" fill="#0071bc"/><path d="m306.17 269.41.67 2.57c-.04.06-.07.12-.12.17-.17-.91-.36-1.82-.55-2.74z" fill="#fff"/><path d="m291.26 282.05c-1 .14-2.01.21-3.05.21-12.16 0-22.01-9.86-22.01-22.01s9.85-22 22.01-22c2.85 0 5.58.54 8.08 1.53 1.23 3 2.58 6.45 4.03 10.41 1.41 3.83 2.59 7.31 3.58 10.6l2.27 8.62c.19.92.38 1.83.55 2.74-3.39 5.28-8.97 9-15.46 9.9z" fill="#9c5c25"/><path d="m298.69 240.9 5.21 19.89c-.99-3.29-2.17-6.77-3.58-10.6-1.45-3.96-2.8-7.41-4.03-10.41.83.33 1.63.7 2.4 1.12z" fill="#fff"/><path d="m248.56 310.85c-1.38.26-2.81.4-4.27.4-12.66 0-22.92-10.26-22.92-22.92 0-.47.01-.94.05-1.4 4.31-7.86 8.11-13.78 11.85-18.7 3.27-1.8 7.03-2.82 11.02-2.82 12.66 0 22.92 10.26 22.92 22.92 0 11.2-8.03 20.52-18.65 22.52z" fill="#9c5c25"/><path d="m233.27 268.23c-3.74 4.92-7.54 10.84-11.85 18.7.48-8.08 5.14-15.02 11.85-18.7z" fill="#fff"/><g fill="none"><path d="m285.04 219.63s30.9-13.36 66.83-10.58c16.28 1.26 33.6 5.83 49.54 16.46 51.13 34.09 58.18 122.83 58.18 122.83s-52.9-74.05-98.15-74.63" stroke="#231f20" stroke-width="14"/><path d="m377.9 274.29-1.76-28.21" stroke="#231f20" stroke-width="14"/><path d="m390.83 280.17-1.76-28.21" stroke="#231f20" stroke-width="14"/><path d="m402.59 287.22-1.77-28.21" stroke="#231f20" stroke-width="14"/><path d="m268.53 208.87s.3-.79.95-2.2c4.71-10.36 27.67-54.16 81.39-60.7 60.39-7.36 122.899 54.1 124.12 55.32.01.01.02.01 0 0-1.63-.39-88.68-21.48-123.08 7.28" stroke="#231f20" stroke-width="14"/><path d="m364.79 198.3-19.71-20.27" stroke="#231f20" stroke-width="14"/><path d="m378.43 194.34-19.71-20.26" stroke="#231f20" stroke-width="14"/><path d="m391.94 192.04-19.71-20.26" stroke="#231f20" stroke-width="14"/><path d="m310.78 312.68 25.15-12.88" stroke="#231f20" stroke-width="14"/><path d="m310.55 326.88 25.16-12.88" stroke="#231f20" stroke-width="14"/><path d="m308.78 340.47 25.16-12.88" stroke="#231f20" stroke-width="14"/><path d="m277.23 216.44s-.11-.18-.34-.51c-.86-1.26-3.34-4.75-7.41-9.26-12.89-14.3-41.75-38.87-85.54-35.31-60.78 4.95-109.73 78-110.5 79.15 0 0 0 0 .01-.01 1.07-.5 82.44-38.91 122.03-17.6" stroke="#231f20" stroke-width="14"/><path d="m180.81 225.43 15.24-23.81" stroke="#231f20" stroke-width="14"/><path d="m166.65 224.29 15.24-23.81" stroke="#231f20" stroke-width="14"/><path d="m152.95 224.75 15.24-23.81" stroke="#231f20" stroke-width="14"/><path d="m220.86 291.57-1.08-1.61-14.67-21.86" stroke="#231f20" stroke-linecap="round" stroke-linejoin="round" stroke-width="14"/><path d="m214.16 304.1-.88-1.31-14.86-22.17" stroke="#231f20" stroke-linecap="round" stroke-linejoin="round" stroke-width="14"/><path d="m209.11 316.84-1.44-2.15-14.31-21.33" stroke="#231f20" stroke-linecap="round" stroke-linejoin="round" stroke-width="14"/><path d="m233.27 268.23c7.89-10.37 15.51-16.24 27.06-26.21 18.72-16.14 25.58-18.8 27.54-19.22.31-.07.5-.08.59-.08h.02.05" stroke="#231f20" stroke-width="14"/><path d="m287.55 220.84s-.53-.15-1.53-.4c-1.81-.45-5.16-1.21-9.58-1.92-17.99-2.91-53.85-5.08-77.32 17.49-1.07 1.02-2.11 2.1-3.12 3.23-31.79 35.45-19.56 99.38-13.1 126.5l.91-2.85s5.13-6.74 20.34-40.5c1.21-2.68 2.38-5.25 3.52-7.7 1.97-4.3 3.84-8.25 5.61-11.9 2.31-4.76 4.47-9.01 6.5-12.83.55-1.04 1.1-2.05 1.64-3.03" stroke="#231f20" stroke-width="14"/><path d="m306.84 271.98c-.04.06-.07.12-.12.17-3.39 5.28-8.97 9-15.46 9.9-1 .14-2.01.21-3.05.21-12.16 0-22.01-9.86-22.01-22.01s9.85-22 22.01-22c2.85 0 5.58.54 8.08 1.53.83.33 1.63.7 2.4 1.12" stroke="#231f20" stroke-width="14"/><path d="m233.27 268.23c3.27-1.8 7.03-2.82 11.02-2.82 12.66 0 22.92 10.26 22.92 22.92 0 11.2-8.03 20.52-18.65 22.52-1.38.26-2.81.4-4.27.4-12.66 0-22.92-10.26-22.92-22.92 0-.47.01-.94.05-1.4.48-8.08 5.14-15.02 11.85-18.7z" stroke="#231f20" stroke-width="14"/><path d="m291.55 281.49c-.1.18-.2.37-.29.56-8.55 16.27-26.49 60.95-33.26 127.42-7.74 75.98-6.43 167.03-6.48 222.669 0 1.86-.01 3.69-.01 5.471-.03 11.689-.15 21.58-.46 29.149-.62 15.271 3.33 30.721 3.43 45.98.11 16.43-14.12 23.939-28.38 25.37-3.2.319-6.39.33-9.43.069-12.94-1.109-26.45-8.81-29.97-22.04 0 0-4.41-17.64 12.34-63.47 16.75-45.84 13.82-166.65 22.52-230.27 8.08-59.07 20.35-95.99 27-111.55.29-.69.57-1.34.84-1.94" stroke="#231f20" stroke-width="14"/><path d="m293.27 221.4s.21.04.61.14c5.78 1.35 50.96 13.11 62.92 53.2.42 1.38.79 2.8 1.12 4.25 10.58 46.43-31.15 96.39-49.95 116.96l.58-2.94s-1.18-9.41-.58-46.43c.66-41.44 1.85-58.07-1.25-74.43-.17-.91-.36-1.82-.55-2.74-.62-2.8-1.36-5.63-2.27-8.62-.99-3.29-2.17-6.77-3.58-10.6-1.45-3.96-2.8-7.41-4.03-10.41-3.8-9.24-6.58-14.26-8.42-16.98-.79-1.16-1.4-1.89-1.85-2.36-.66-.69-.98-.81-.98-.81" stroke="#231f20" stroke-width="14"/><path d="m291.22 517.92c9.41.1 35.64-3.479 52.01-19.85 29.92-29.931 29.92-20.82 29.92-20.82s-8.89 29.7 20.16 35.78c0 0-1.04-.19-1.09-.2 0 0 .02 0 .05.01 1.25.32 28.22 6.851 52.21-17.13 29.92-29.92 29.92-20.81 29.92-20.81s-8.891 29.699 20.17 35.77c0 0 26.22 8.01 53.77-16.32 31.72-28.01 29.92-20.81 29.92-20.81s-8.899 29.7 20.17 35.78c0 0-1.05-.19-1.1-.2 0 0 .02 0 .05.01 1.25.32 28.22 6.851 52.21-17.13 29.93-29.93 29.93-20.82 29.93-20.82s-8.899 29.7 20.15 35.771c0 0 28.061 9.38 54.37-16.931 3.49-3.489 6.57-6.449 9.3-8.96" stroke="#231f20" stroke-width="14"/><path d="m285.16 574.84c9.41.12 23.51-3.479 39.87-19.84 29.93-29.93 29.93-20.82 29.93-20.82s-8.89 29.7 20.16 35.771c0 0-1.04-.17-1.09-.181 0 0 .02 0 .05.011 1.25.319 28.23 6.84 52.21-17.15 29.91-29.92 29.91-20.81 29.91-20.81s-8.88 29.699 20.17 35.779c0 0 26.22 8.021 53.77-16.319 31.73-28.011 29.931-20.82 29.931-20.82s-8.9 29.71 20.17 35.78c0 0-1.05-.17-1.101-.181 0 0 .021 0 .051.011 1.25.319 28.229 6.83 52.21-17.15 29.93-29.92 29.93-20.81 29.93-20.81s-8.9 29.699 20.15 35.77c0 0 32.75 14.12 59.06-12.189 9.56-9.57 16.08-15.15 20.5-18.311" stroke="#231f20" stroke-width="14"/><path d="m731.27 215.63c0 29.03-23.539 52.56-52.56 52.56-29.03 0-52.56-23.53-52.56-52.56s23.529-52.56 52.56-52.56c29.02 0 52.56 23.53 52.56 52.56z" stroke="#231f20" stroke-width="14"/><path d="m678.29 153.5v-39.99" stroke="#231f20" stroke-width="14"/><path d="m646.41 161.28-22.1-33.33" stroke="#231f20" stroke-width="14"/><path d="m623.51 185.85-36.23-16.93" stroke="#231f20" stroke-width="14"/><path d="m711.33 160.64 22.08-33.33" stroke="#231f20" stroke-width="14"/><path d="m734.22 185.21 36.23-16.93" stroke="#231f20" stroke-width="14"/><path d="m710.01 270.41 22.1 33.33" stroke="#231f20" stroke-width="14"/><path d="m732.91 245.84 36.23 16.93" stroke="#231f20" stroke-width="14"/><path d="m645.08 271.05-22.08 33.33" stroke="#231f20" stroke-width="14"/><path d="m622.19 246.48-36.22 16.93" stroke="#231f20" stroke-width="14"/><path d="m616.07 216.25h-39.99" stroke="#231f20" stroke-width="14"/><path d="m780.72 216.25h-39.99" stroke="#231f20" stroke-width="14"/><path d="m678.29 316.92v-39.99" stroke="#231f20" stroke-width="14"/><path d="m250 638s.51-.14 1.51-.39c14.43-3.66 130.84-31.67 277.63-23.641 110.19 6.03 187.67 38 226.851 58.44 2.08 1.08 4.04 2.13 5.899 3.14" stroke="#231f20" stroke-width="14"/><path d="m0 0h850.394v850.394h-850.394z"/></g></svg>