<svg enable-background="new 0 0 850.394 850.394" height="850.394" viewBox="0 0 850.394 850.394" width="850.394" xmlns="http://www.w3.org/2000/svg"><g stroke="#231f20"><path d="m332.597 79.859h183.215" fill="#fff" stroke-width="21"/><path d="m483.649 79.796v152.688l144.208 395.282s25.942 83.843-30.54 113.64c-61.067 32.244-173.121 28.919-173.121 28.919-32.21 0-110.279 3.381-171.342-28.836-56.476-29.803-30.541-113.66-30.541-113.66l144.204-395.282v-152.688" fill="none" stroke-width="21"/><path d="m480.526 524.325h-57.686v173.037h57.686" fill="none" stroke-width="14"/><path d="m422.84 611.271h57.686" fill="none" stroke-width="14"/><path d="m426.326 565.489h30.825" fill="none" stroke-width="14"/><path d="m426.326 653.215h30.825" fill="none" stroke-width="14"/><path d="m480.526 351.866h-57.686v173.037h57.686" fill="none" stroke-width="14"/><path d="m422.84 438.813h57.686" fill="none" stroke-width="14"/><path d="m426.326 393.03h30.825" fill="none" stroke-width="14"/><path d="m426.326 480.755h30.825" fill="none" stroke-width="14"/></g><path d="m0 0h850.394v850.394h-850.394z" fill="none"/></svg>