<svg enable-background="new 0 0 850.394 850.394" height="850.394" viewBox="0 0 850.394 850.394" width="850.394" xmlns="http://www.w3.org/2000/svg"><path d="m423.26 581.36v.069c-4 .021-39.53-.17-58.86-12.51l-.53.23c-6.76-20.341-8.34-42.771-6.98-64.181l2.96.16c20.5 13.101 63.21 11.39 63.21 11.39l.76-.079s42.72 1.71 63.22-11.391l2.95-.14c1.37 21.41-.221 43.83-6.971 64.16l-.539-.23c-20.5 13.092-59.22 12.522-59.22 12.522z" fill="#231f20"/><path d="m423.26 581.43v-.069s38.721.569 59.221-12.521l.539.23c-.359 1.069-.729 2.13-1.109 3.18-7.73 21.24-17.83 43.63-34.37 59.58-3.24 3.14-6.81 6.07-10.78 8.24-4.069 2.199-7.6 3.359-14.22 3.359v.051c-5.49-.2-8.73-1.341-12.41-3.33-3.98-2.17-7.54-5.101-10.79-8.24-16.54-15.95-26.64-38.34-34.36-59.58-.38-1.05-.75-2.11-1.11-3.18l.53-.23c19.329 12.34 54.859 12.53 58.859 12.51z" fill="#f6cc4b"/><path d="m489.99 504.91-2.95.14c-20.5 13.101-63.22 11.391-63.22 11.391l-.76.079s-42.71 1.711-63.21-11.39l-2.96-.16c1.28-20.27 5.2-39.62 9.86-55.41 21.79 9.74 57.45 8.311 57.45 8.311v-.04c7.03.14 36.81.189 55.93-8.35 4.66 15.799 8.58 35.159 9.86 55.429z" fill="#f6cc4b"/><path d="m424.2 457.83v.04s-35.66 1.43-57.45-8.311c1.29-4.39 2.64-8.5 4.01-12.27 1.9-5.26 3.84-9.88 5.69-13.7 2.48-5.11 4.81-8.8 6.75-10.71 1.19-1.17 2.68-2.16 4.4-2.99 8.4-4.08 22.23-4.39 32.78-4.24 0 0 21.23-.71 34.57 2.93 3.75 1.03 6.88 2.4 8.729 4.23 1.84 1.81 4.03 5.22 6.36 9.91 1.97 3.97 4.05 8.87 6.08 14.49 1.37 3.78 2.71 7.89 4.01 12.271-19.119 8.54-48.899 8.49-55.929 8.35z" fill="#231f20"/><path d="m372.21 315.02c2.76-19.57 8.99-37.57 22.66-50.46 7.16-6.78 16.37-12.15 28.19-15.61l.76-.08c11.82 3.46 21.03 8.83 28.19 15.6 13.67 12.9 19.9 30.89 22.67 50.45 1.73 12.18 2.11 24.98 2.11 37.53 0 .75 0 1.49-.01 2.22-.25 18.74-3.521 31.36-7.04 39.58-4.271 9.96-8.9 13.43-8.9 13.43l-5.89.9c-13.34-3.64-34.57-2.93-34.57-2.93-10.55-.15-24.38.16-32.78 4.24l-1.56-2.13s-4.63-3.47-8.9-13.44c-3.51-8.2-6.78-20.84-7.03-39.57-.01-.74-.01-1.48-.01-2.23 0-12.54.38-25.33 2.11-37.5z" fill="#f6cc4b"/><path d="m377.14 394.32-.78.34s-112.74 63.78-153.18 50.109c-40.43-13.669-130.98-56.379-154.32-82.569s-27.89-66.06 31.32-64.92c59.22 1.15 199.88 22.21 267.64 57.52l2.29-.05c.25 18.73 3.52 31.37 7.03 39.57z" fill="#fff5b4"/><path d="m746.7 297.21c59.22-1.15 54.67 38.72 31.33 64.92-23.351 26.19-113.9 68.9-154.33 82.57-40.44 13.66-153.17-50.11-153.17-50.11l-.79-.34c3.52-8.22 6.79-20.84 7.04-39.58l2.29.05c67.76-35.3 208.41-56.37 267.63-57.51z" fill="#fff5b4"/><g fill="none"><path d="m350.46 503.85s-20.93 45.7-43.57 73.03c-22.63 27.34-44.41 38.87-61.07 46.561" stroke="#231f20" stroke-width="21"/><path d="m269.31 610.62c25.62-21.2 36.66-45.36 43.84-57.08 8.12-13.24 11.68-39.86 24.07-56.09 12.38-16.23 20.5-19.44 20.5-19.44" stroke="#231f20" stroke-width="21"/><path d="m367.82 436.23-76.88 37.02s-11.48 17.85-26.22 36.24c-14.83 18.47-32.96 37.49-46.09 39.49" stroke="#231f20" stroke-width="21"/><path d="m375.79 422.56s-.31.09-.9.26c-8.78 2.58-79.31 23.85-86.79 43.6-5.8 15.32-3.84 15.01-23.49 42.98" stroke="#231f20" stroke-width="21"/><path d="m362.65 334.29-71.26-46.92s-36.17-77.24-61.6-84.67" stroke="#231f20" stroke-width="21"/><path d="m368.74 348.9s-75.97-33.18-81.07-55.13c-3.72-15.96-1.82-15.4-17.57-45.73" stroke="#231f20" stroke-width="21"/><path d="m376.36 394.66s-112.74 63.78-153.18 50.109c-40.43-13.669-130.98-56.379-154.32-82.569s-27.89-66.06 31.32-64.92c59.22 1.15 199.88 22.21 267.64 57.52" stroke="#231f20" stroke-width="21"/><path d="m372.95 316.64s-.28-.58-.74-1.62c-3.16-7.1-15.02-35.64-6.67-46.78 11.96-15.95 29.04-3.98 29.04-3.98" stroke="#231f20" stroke-width="21"/><path d="m397.43 256.28-82.56-59.79" stroke="#231f20" stroke-linecap="round" stroke-linejoin="round" stroke-width="21"/><path d="m423.63 581.43s-.13 0-.37 0c-4 .021-39.53-.17-58.86-12.51" stroke="#231f20" stroke-width="21"/><path d="m424.2 457.87s-35.66 1.43-57.45-8.311c-2.06-.93-3.99-1.949-5.76-3.079" stroke="#231f20" stroke-width="21"/><path d="m422.54 643.43c6.62 0 10.15-1.16 14.22-3.359 3.971-2.17 7.54-5.101 10.78-8.24 16.54-15.95 26.64-38.34 34.37-59.58.38-1.05.75-2.11 1.109-3.18 6.75-20.33 8.341-42.75 6.971-64.16-1.28-20.271-5.2-39.63-9.86-55.43-1.3-4.381-2.64-8.49-4.01-12.271-2.03-5.62-4.11-10.52-6.08-14.49-2.33-4.69-4.521-8.1-6.36-9.91-1.85-1.83-4.979-3.2-8.729-4.23-13.34-3.64-34.57-2.93-34.57-2.93-10.55-.15-24.38.16-32.78 4.24-1.72.83-3.21 1.82-4.4 2.99-1.94 1.91-4.27 5.6-6.75 10.71-1.85 3.82-3.79 8.44-5.69 13.7-1.37 3.77-2.72 7.88-4.01 12.27-4.66 15.79-8.58 35.141-9.86 55.41-1.36 21.41.22 43.84 6.98 64.181.36 1.069.73 2.13 1.11 3.18 7.72 21.24 17.82 43.63 34.36 59.58 3.25 3.14 6.81 6.07 10.79 8.24 3.68 1.989 6.92 3.13 12.41 3.33.57.02 1.17.029 1.8.029" stroke="#231f20" stroke-width="21"/><path d="m496.43 503.77s20.931 45.7 43.561 73.03c22.64 27.34 44.42 38.87 61.08 46.561" stroke="#231f20" stroke-width="21"/><path d="m577.58 610.54c-25.63-21.2-36.67-45.36-43.85-57.08-8.11-13.24-11.671-39.86-24.061-56.09-12.38-16.23-20.5-19.44-20.5-19.44" stroke="#231f20" stroke-width="21"/><path d="m479.07 436.15 76.87 37.02s11.47 17.85 26.229 36.23c14.82 18.479 32.96 37.5 46.08 39.5" stroke="#231f20" stroke-width="21"/><path d="m471.09 422.49s79.71 22.779 87.7 43.85c5.79 15.32 3.84 15.01 23.479 42.98" stroke="#231f20" stroke-width="21"/><path d="m484.23 334.22 71.26-46.93s36.17-77.23 61.609-84.66" stroke="#231f20" stroke-width="21"/><path d="m478.15 348.82s75.96-33.18 81.06-55.12c3.73-15.96 1.82-15.4 17.57-45.74" stroke="#231f20" stroke-width="21"/><path d="m470.53 394.59s112.729 63.771 153.17 50.11c40.43-13.67 130.979-56.38 154.33-82.57 23.34-26.2 27.89-66.07-31.33-64.92-59.22 1.14-199.87 22.21-267.63 57.51" stroke="#231f20" stroke-width="21"/><path d="m460.84 407.68s4.63-3.47 8.9-13.43c3.52-8.22 6.79-20.84 7.04-39.58.01-.73.01-1.47.01-2.22 0-12.55-.38-25.35-2.11-37.53-2.77-19.56-9-37.55-22.67-50.45-7.16-6.77-16.37-12.14-28.19-15.6l-.76.08c-11.82 3.46-21.03 8.83-28.19 15.61-13.67 12.89-19.9 30.89-22.66 50.46-1.73 12.17-2.11 24.96-2.11 37.5 0 .75 0 1.49.01 2.23.25 18.73 3.52 31.37 7.03 39.57 4.27 9.97 8.9 13.44 8.9 13.44" stroke="#231f20" stroke-width="21"/><path d="m473.93 316.56s.28-.59.75-1.64c3.17-7.13 15.011-35.63 6.66-46.75-11.96-15.95-29.05-3.99-29.05-3.99" stroke="#231f20" stroke-width="21"/><path d="m449.45 256.21 82.56-59.79" stroke="#231f20" stroke-linecap="round" stroke-linejoin="round" stroke-width="21"/><path d="m423.26 581.36s38.721.569 59.221-12.521" stroke="#231f20" stroke-width="21"/><path d="m487.04 505.05c-20.5 13.101-63.22 11.391-63.22 11.391l-.76.079s-42.71 1.711-63.21-11.39" stroke="#231f20" stroke-width="21"/><path d="m422.68 457.79s.54.02 1.52.04c7.03.14 36.81.189 55.93-8.35 2.061-.921 3.99-1.94 5.76-3.07" stroke="#231f20" stroke-width="21"/><path d="m0 0h850.394v850.394h-850.394z"/></g></svg>