<svg enable-background="new 0 0 850.394 850.394" height="850.394" viewBox="0 0 850.394 850.394" width="850.394" xmlns="http://www.w3.org/2000/svg"><path d="m626.05 512.5c.181-1.09.51-2.13.97-3.11 2.15-4.529 7.11-7.71 12.881-7.71 7.729 0 14.01 5.71 14.01 12.74s-6.28 12.74-14.01 12.74c-7.74 0-14.011-5.71-14.011-12.74 0-.65.05-1.29.16-1.92z" fill="#ff001c"/><path d="m376.87 565.38c-13.15-5.16-22.48-18.12-22.48-33.3 0-14.86 8.95-27.6 21.68-32.96 4.13-1.74 8.67-2.7 13.42-2.7 7.08 0 13.67 2.13 19.18 5.79 9.58 6.37 15.92 17.37 15.92 29.87 0 19.7-15.72 35.67-35.1 35.67-4.45 0-8.7-.84-12.62-2.37z" fill="#c8c8c8"/><path d="m293.03 263.6c-18.77 8.68-36.99 10.75-46.9 3.13-11.04-8.49-7.93-16.42-.43-23.92 6.66-6.66 36.51 0 43.03 0 6.51 0 42.45-3.4 42.45-3.4 17.69 0 23.77 22.65 24.04 23.74-.35-.75-6.21-12.79-18.09-13.83-8.38-.73-16.7-.28-37.65 11.04-2.15 1.16-4.3 2.24-6.45 3.24z" fill="#231f20"/><path d="m192.12 509.95c.18-1.101.52-2.141.98-3.13 2.15-4.53 7.11-7.71 12.88-7.71 7.74 0 14.01 5.699 14.01 12.729 0 7.04-6.27 12.74-14.01 12.74-7.73 0-14.01-5.7-14.01-12.74 0-.639.05-1.269.15-1.889z" fill="#ff001c"/><g fill="none"><path d="m344.06 499.11c.47 4.609.71 9.279.71 14.01 0 3.86-.16 7.689-.48 11.47-1.26 14.95-4.95 29.22-10.69 42.41-5.22 12.01-12.13 23.14-20.44 33.08-5.64 6.75-11.92 12.96-18.76 18.53-21.06 17.17-47.35 28.3-76.15 30.72-3.92.33-7.88.5-11.89.5-4.59 0-9.12-.22-13.59-.66-27.85-2.67-53.28-13.5-73.81-30.04-6.66-5.36-12.8-11.32-18.34-17.79-8.58-10.02-15.73-21.29-21.13-33.479-5.91-13.351-9.73-27.82-11.03-42.99-.34-3.87-.51-7.79-.51-11.75 0-4.851.26-9.63.75-14.351 1.51-14.31 5.26-27.97 10.89-40.619 5.41-12.151 12.55-23.361 21.11-33.351 5.54-6.45 11.66-12.38 18.3-17.72 20.47-16.48 45.8-27.28 73.54-29.99 4.54-.45 9.16-.68 13.82-.68 4.08 0 8.11.17 12.1.52 25.47 2.17 48.96 11.16 68.6 25.11 2.48 1.76 4.9 3.6 7.25 5.52 6.87 5.59 13.19 11.82 18.85 18.6 8.34 9.979 15.28 21.149 20.5 33.22 5.38 12.4 8.95 25.76 10.4 39.73z" stroke="#231f20" stroke-width="21"/><path d="m71.77 499.11h103.23.17 17.6 13.21 2.51 9.76 20.74 1.79 103.28.06" stroke="#231f20" stroke-width="7"/><path d="m71.77 524.58h105.72 3.27 12.01 7.7 5.51 7.53 4.74 16.35 1.9 107.62" stroke="#231f20" stroke-width="7"/><path d="m192.77 505.26v-6.15-18.26-101.36" stroke="#231f20" stroke-width="7"/><path d="m192.77 651.84v-2.67-103.85-20.74-4.03" stroke="#231f20" stroke-width="7"/><path d="m218.25 503.99v-4.88-15.29-104.33" stroke="#231f20" stroke-width="7"/><path d="m218.25 651.84v-2.51-106.97-17.78-2.76" stroke="#231f20" stroke-width="7"/><path d="m311.54 426.56-72.55 72.55-1.35 1.34-12.63 12.64-11.5 11.49-6.52 6.52-14.22 14.22-73.81 73.81-.01.01" stroke="#231f20" stroke-width="7"/><path d="m192.77 509.3-.65.65-3.14 3.14-11.49 11.49-2.49 2.49-74.06 74.06" stroke="#231f20" stroke-width="7"/><path d="m293.52 408.54-75.27 75.28-11.26 11.25-1.48 1.49" stroke="#231f20" stroke-width="7"/><path d="m200.47 524.58 6.52 6.52 11.26 11.26 73.98 73.97" stroke="#231f20" stroke-width="7"/><path d="m99.65 423.75 1.05 1.05 74.17 74.18.13.13 13.98 13.98 2.23 2.23" stroke="#231f20" stroke-width="7"/><path d="m220.56 508.64 4.45 4.45 11.49 11.49 1.42 1.42 72.32 72.32" stroke="#231f20" stroke-width="7"/><path d="m117.66 405.74 1.34 1.34 73.77 73.77 14.22 14.22 1.5 1.5" stroke="#231f20" stroke-width="7"/><path d="m223.47 519.81 11.13 4.77 3.32 1.42 95.67 41" stroke="#231f20" stroke-width="7"/><path d="m76.44 456.8 3.15 1.35 95.28 40.83.3.13 17.62 7.55" stroke="#231f20" stroke-width="7"/><path d="m190.19 520.51-9.43 4.07-5.76 2.49-92.47 39.93" stroke="#231f20" stroke-width="7"/><path d="m339.69 456.8-6.03 2.58-92.88 39.73-3.14 1.34-14.72 6.3" stroke="#231f20" stroke-width="7"/><path d="m205.98 499.11c7.74 0 14.01 5.699 14.01 12.729 0 7.04-6.27 12.74-14.01 12.74-7.73 0-14.01-5.7-14.01-12.74 0-.64.05-1.27.15-1.89.18-1.101.52-2.141.98-3.13 2.15-4.529 7.11-7.709 12.88-7.709z" stroke="#231f20" stroke-width="6.7931"/><path d="m777.97 501.68c.471 4.61.71 9.28.71 14.011 0 3.869-.16 7.699-.479 11.479-1.26 14.95-4.95 29.21-10.69 42.4-5.22 12.01-12.13 23.14-20.439 33.08-5.641 6.75-11.92 12.96-18.761 18.529-21.06 17.17-47.35 28.301-76.149 30.721-3.92.33-7.88.5-11.891.5-4.59 0-9.119-.221-13.59-.66-27.84-2.67-53.27-13.5-73.8-30.04-6.66-5.351-12.8-11.32-18.35-17.79-8.58-10.021-15.73-21.29-21.13-33.48-5.91-13.35-9.73-27.81-11.03-42.979-.34-3.88-.51-7.8-.51-11.76 0-4.851.26-9.631.75-14.351 1.51-14.31 5.26-27.97 10.89-40.62 5.41-12.14 12.55-23.359 21.11-33.34 5.529-6.45 11.659-12.39 18.3-17.72 10.359-8.35 21.96-15.23 34.49-20.35 12.229-5 25.35-8.32 39.05-9.65 4.54-.45 9.16-.68 13.819-.68 4.08 0 8.11.17 12.101.52 28.689 2.45 54.86 13.54 75.86 30.63 6.869 5.59 13.18 11.82 18.84 18.601 8.34 9.979 15.279 21.149 20.5 33.22 5.379 12.399 8.949 25.759 10.399 39.729z" stroke="#231f20" stroke-width="21"/><path d="m505.68 501.68h103.23.17 17.6 13.22 12.26 20.73 1.8 103.28.06" stroke="#231f20" stroke-width="7"/><path d="m505.68 527.16h105.71 3.26 12.03 7.7 5.52 7.52 4.74 16.38 1.88 107.61" stroke="#231f20" stroke-width="7"/><path d="m626.68 507.84v-6.16-18.26-4.17-97.19" stroke="#231f20" stroke-width="7"/><path d="m626.68 654.41v-2.67-103.84-20.74-4.04" stroke="#231f20" stroke-width="7"/><path d="m652.16 506.56v-4.88-15.29-104.33" stroke="#231f20" stroke-width="7"/><path d="m652.16 654.41v-2.51-106.96-17.78-2.76" stroke="#231f20" stroke-width="7"/><path d="m745.44 429.13-72.55 72.55-1.34 1.34-12.63 12.64-11.5 11.5-6.52 6.52-14.22 14.22-73.8 73.8-.02.02" stroke="#231f20" stroke-width="7"/><path d="m626.68 511.87-.63.63-3.16 3.16-11.5 11.5-2.48 2.48-74.06 74.06" stroke="#231f20" stroke-width="7"/><path d="m727.43 411.12-75.27 75.27-11.26 11.26-1.48 1.48" stroke="#231f20" stroke-width="7"/><path d="m634.38 527.16 6.52 6.52 11.26 11.26 73.98 73.97" stroke="#231f20" stroke-width="7"/><path d="m533.56 426.33 1.05 1.05 74.17 74.17.13.13 13.98 13.98 2.23 2.23" stroke="#231f20" stroke-width="7"/><path d="m654.47 511.21 4.45 4.45 11.5 11.5 1.41 1.41 72.33 72.33" stroke="#231f20" stroke-width="7"/><path d="m551.57 408.32 1.34 1.34 73.77 73.76 6.36 6.36 7.86 7.87 1.5 1.49" stroke="#231f20" stroke-width="7"/><path d="m657.38 522.38 11.16 4.78 3.29 1.41 95.68 41" stroke="#231f20" stroke-width="7"/><path d="m510.35 459.37 3.15 1.35 95.28 40.83.3.13 17.62 7.55" stroke="#231f20" stroke-width="7"/><path d="m624.1 523.08-9.45 4.08-5.74 2.48-92.47 39.93" stroke="#231f20" stroke-width="7"/><path d="m773.6 459.37-6.03 2.58-92.88 39.73-3.14 1.34-14.72 6.3" stroke="#231f20" stroke-width="7"/><path d="m639.9 501.68c7.729 0 14.01 5.71 14.01 12.74s-6.28 12.74-14.01 12.74c-7.74 0-14.011-5.71-14.011-12.74 0-.65.051-1.29.16-1.92.181-1.09.51-2.13.97-3.11 2.151-4.53 7.111-7.71 12.881-7.71z" stroke="#231f20" stroke-width="6.7931"/><path d="m408.67 502.21c9.58 6.37 15.92 17.37 15.92 29.87 0 19.7-15.72 35.67-35.1 35.67-4.45 0-8.7-.84-12.62-2.37-13.15-5.16-22.48-18.12-22.48-33.3 0-14.86 8.95-27.6 21.68-32.96 4.13-1.74 8.67-2.7 13.42-2.7 7.08 0 13.67 2.13 19.18 5.79z" stroke="#231f20" stroke-width="21"/><path d="m305.03 277.06-.45-1.42" stroke="#231f20" stroke-width="21"/><path d="m376.07 499.13v-.01l-48.48-151.54-22.3-69.72" stroke="#231f20" stroke-width="21"/><path d="m408.65 502.23.02-.02 152.84-175.54.07-.08" stroke="#231f20" stroke-width="28"/><path d="m287.04 402.06.02-.02 40.53-54.46 223.8-43.63" stroke="#231f20" stroke-width="28"/><path d="m566.11 237.15-29.44 29.43 15.34 37.11 9.5 22.98 25.891 62.64 33.05 79.94s2.64 4.15 6.229 10c1.931 3.15 4.141 6.79 6.36 10.53 2.38 4 4.77 8.12 6.86 11.899" stroke="#231f20" stroke-width="21"/><path d="m596.11 192.43-41.88 27.74 24.34 18.11 31.7-20.38" stroke="#231f20" stroke-linecap="round" stroke-linejoin="round" stroke-width="21"/><path d="m355.22 263.15c.02.03.02.04 0 0-.27-1.09-6.35-23.74-24.04-23.74 0 0-35.94 3.4-42.45 3.4-6.52 0-36.37-6.66-43.03 0-7.5 7.5-10.61 15.43.43 23.92 9.91 7.62 28.13 5.55 46.9-3.13 2.15-1 4.3-2.08 6.45-3.24 20.95-11.32 29.27-11.77 37.65-11.04 11.88 1.04 17.74 13.08 18.09 13.83z" stroke="#231f20" stroke-linecap="round" stroke-width="14"/><path d="m305.03 277.06c.09.27.18.53.26.8" stroke="#231f20" stroke-width="21"/><path d="m275 257.39s9.5 1.23 18.03 6.21c5.1 2.97 9.85 7.28 12 13.46" stroke="#231f20" stroke-width="20.3794"/><path d="m401.56 451.28-7.68 39.16" stroke="#231f20" stroke-linecap="round" stroke-width="21"/><path d="m390.71 441.55 26.16 4.73" stroke="#231f20" stroke-linecap="round" stroke-width="21"/><path d="m368.03 605.67 8.84-40.29 6.53-29.76" stroke="#231f20" stroke-linecap="round" stroke-width="21"/><path d="m378.88 615.4-26.16-4.72" stroke="#231f20" stroke-linecap="round" stroke-width="21"/><path d="m0 0h850.394v850.394h-850.394z"/></g></svg>