<svg enable-background="new 0 0 850.394 850.394" height="850.394" viewBox="0 0 850.394 850.394" width="850.394" xmlns="http://www.w3.org/2000/svg"><path d="m652.22 697.01h33.8v72.19h-533.08v-72.19h35.79z" fill="#ed1e29"/><path d="m654.92 374.18h42.21v18.58h-42.21z" fill="#231f20"/><path d="m654.92 357.22h42.21v16.96h-42.21z" fill="#231f20"/><path d="m603.83 498.97h42.21v35.54h-42.21z" fill="#231f20"/><path d="m602.72 217.58h42.2v35.54h-42.2z" fill="#231f20"/><path d="m476.12 601.15h42.2v35.54h-42.2z" fill="#231f20"/><path d="m475 115.41h42.21v35.54h-42.21z" fill="#231f20"/><path d="m322.85 601.15h42.2v35.54h-42.2z" fill="#231f20"/><path d="m321.74 115.41h42.2v35.54h-42.2z" fill="#231f20"/><path d="m195.13 498.97h42.21v35.54h-42.21z" fill="#231f20"/><path d="m194.02 217.58h42.21v35.54h-42.21z" fill="#231f20"/><path d="m148.49 374.18h42.21v20.4h-42.21z" fill="#231f20"/><path d="m148.49 359.03h42.21v15.15h-42.21z" fill="#231f20"/><g fill="none"><path d="m709.34 374.18c0 97.06-47.89 182.94-121.34 235.29-47.14 33.601-104.8 53.391-167.08 53.46-.11 0-.22 0-.33 0-.12 0-.23 0-.35 0-62.44-.069-120.25-19.97-167.45-53.75-73.23-52.37-120.95-138.12-120.95-235 0-159.48 129.28-288.76 288.75-288.76 1.12 0 2.23.01 3.34.02 157.93 1.79 285.41 130.38 285.41 288.74z" stroke="#231f20" stroke-width="21"/><path d="m562.13 313.86c7.91 18.52 12.28 38.91 12.28 60.31v.01c0 2.53-.061 5.04-.18 7.53-.91 18.81-5.2 36.74-12.28 53.18-6.03 14.051-14.11 27.021-23.851 38.54-8.729 10.33-18.8 19.49-29.93 27.221-24.859 17.239-55.039 27.349-87.579 27.349-32.84 0-63.28-10.3-88.27-27.84-11.87-8.33-22.51-18.3-31.58-29.58-8.92-11.07-16.33-23.4-21.93-36.69-7.22-17.1-11.42-35.77-11.97-55.36-.04-1.45-.06-2.9-.06-4.35v-.01c0-20.79 4.12-40.61 11.6-58.7 5.17-12.51 11.95-24.2 20.07-34.8 9.92-12.94 21.85-24.25 35.32-33.47 24.71-16.94 54.61-26.84 86.82-26.84 13.311 0 26.22 1.69 38.54 4.87 16.65 4.3 32.21 11.31 46.18 20.55 13.82 9.13 26.08 20.44 36.29 33.43 8.28 10.53 15.21 22.17 20.53 34.65z" stroke="#231f20" stroke-width="21"/><path d="m446.69 374.18c0 4.79-1.141 9.29-3.15 13.23-3.021 5.9-7.98 10.51-13.98 12.84-2.79 1.09-5.819 1.69-8.97 1.69-4.96 0-9.59-1.47-13.53-4.02-4.31-2.78-7.8-6.85-10-11.71-1.65-3.64-2.57-7.72-2.57-12.03 0-3.87.74-7.55 2.09-10.9 1.98-4.95 5.27-9.15 9.42-12.13 4.16-2.99 9.18-4.74 14.59-4.74 4.56 0 8.84 1.24 12.57 3.43 4.609 2.7 8.359 6.83 10.74 11.84 1.79 3.75 2.79 8 2.79 12.5z" stroke="#231f20" stroke-width="21"/><path d="m420.59 85.42v2.64 132.3 126.05 27.77 27.76 126.06 134.93" stroke="#231f20" stroke-width="13.327"/><path d="m697.13 374.18h12.21 3.33" stroke="#231f20" stroke-width="7"/><path d="m190.7 374.18h69.96 6.12 127.71 26.1 26.1 127.72 6.1 74.41" stroke="#231f20" stroke-width="7"/><path d="m131.84 374.18h16.65" stroke="#231f20" stroke-width="7"/><path d="m419.47 88.06-41.09 131.75-119.94-69.97 37.76 128.82-136.6 4.45 101.06 89.96" stroke="#231f20" stroke-width="7"/><path d="m321.74 115.41h42.2v35.54h-42.2z" stroke="#231f20" stroke-width="13.327"/><path d="m194.02 217.58h42.21v35.54h-42.21z" stroke="#231f20" stroke-width="13.327"/><path d="m423.92 87.64 36.65 132.17 119.95-69.97-37.77 128.82 136.6 4.45-98.84 88.85" stroke="#231f20" stroke-width="7"/><path d="m475 115.41h42.21v35.54h-42.21z" stroke="#231f20" stroke-width="13.327"/><path d="m602.72 217.58h42.2v35.54h-42.2z" stroke="#231f20" stroke-width="13.327"/><path d="m420.58 664.03-.34-1.1-40.75-130.64-119.94 69.96 1.14-3.9 36.62-124.92-136.6-4.45 103.28-90.36" stroke="#231f20" stroke-width="7"/><path d="m322.85 601.15h42.2v35.54h-42.2z" stroke="#231f20" stroke-width="13.327"/><path d="m195.13 498.97h42.21v35.54h-42.21z" stroke="#231f20" stroke-width="13.327"/><path d="m190.7 374.18v-15.15h-42.21v15.15 20.4h42.21z" stroke="#231f20" stroke-width="13.327"/><path d="m420.58 664.03.34-1.1 40.76-130.64 119.95 69.96-.71-2.44-37.06-126.38 136.6-4.45-101.06-87.03" stroke="#231f20" stroke-width="7"/><path d="m476.12 601.15h42.2v35.54h-42.2z" stroke="#231f20" stroke-width="13.327"/><path d="m603.83 498.97h42.21v35.54h-42.21z" stroke="#231f20" stroke-width="13.327"/><path d="m654.92 374.18v-16.96h42.21v16.96 18.58h-42.21z" stroke="#231f20" stroke-width="13.327"/><path d="m506.38 244.24-1.07 1.54-71.4 102.85" stroke="#231f20" stroke-width="7"/><path d="m443.91 361.68 117.44-47.48" stroke="#231f20" stroke-width="7"/><path d="m332.29 245.07 1.48 2.13 70.99 102.26" stroke="#231f20" stroke-width="7"/><path d="m394.76 362.51-116.38-47.04-1.06-.43" stroke="#231f20" stroke-width="7"/><path d="m654.92 700.69-2.7-3.68-64.22-87.54-7.08-9.66-72.75-99.16-73.43-100.09" stroke="#231f20" stroke-width="21"/><path d="m444.74 387.5 117.21 47.39.23.09" stroke="#231f20" stroke-width="7"/><path d="m188.47 697.36.26-.35 64.06-87.83 7.9-10.83 71.63-98.19 73.27-100.44" stroke="#231f20" stroke-width="21"/><path d="m395.6 386.67-116.79 47.22-.66.26" stroke="#231f20" stroke-width="7"/><path d="m652.22 697.01h33.8v72.19h-533.08v-72.19h35.79z" stroke="#231f20" stroke-width="21"/><path d="m0 0h850.394v850.394h-850.394z"/></g></svg>