<svg enable-background="new 0 0 850.394 850.394" height="850.394" viewBox="0 0 850.394 850.394" width="850.394" xmlns="http://www.w3.org/2000/svg"><path d="m413.53 80.28c77.89 6.87 117.14 27.03 127.51 33.16l-2.07 3.76-257.83.14v-4.84c12.76-7.2 51.63-25.59 125.2-32.08z" fill="#c8c8c8"/><path d="m362.01 677.25c6.19 0 11.2 8.85 11.2 19.76 0 10.9-5.01 19.75-11.2 19.75-6.18 0-11.2-8.85-11.2-19.75 0-10.91 5.02-19.76 11.2-19.76z" fill="#7a7878"/><path d="m409.59 676.98c6.19 0 11.2 8.84 11.2 19.75 0 10.909-5.01 19.75-11.2 19.75-6.18 0-11.2-8.841-11.2-19.75 0-10.91 5.02-19.75 11.2-19.75z" fill="#7a7878"/><path d="m457.65 677.25c6.18 0 11.199 8.85 11.199 19.76 0 10.9-5.02 19.75-11.199 19.75-6.19 0-11.2-8.85-11.2-19.75 0-10.91 5.01-19.76 11.2-19.76z" fill="#7a7878"/><path d="m408.65 504.37c92.53 0 93.03-12.3 92.87-13.48l52.11 231.771-24.43 38.01s-54.311 7.061-116.21 7.061l-4.48.14c-61.91 0-117.83-7.061-117.83-7.061l-24.44-38.01 52.12-231.79c-.17 1.01-.34 13.271 90.29 13.49zm60.2 192.64c0-10.91-5.02-19.76-11.199-19.76-6.19 0-11.2 8.85-11.2 19.76 0 10.9 5.01 19.75 11.2 19.75 6.179 0 11.199-8.85 11.199-19.75zm-48.06-.28c0-10.91-5.01-19.75-11.2-19.75-6.18 0-11.2 8.84-11.2 19.75 0 10.909 5.02 19.75 11.2 19.75 6.19 0 11.2-8.84 11.2-19.75zm-47.58.28c0-10.91-5.01-19.76-11.2-19.76-6.18 0-11.2 8.85-11.2 19.76 0 10.9 5.02 19.75 11.2 19.75 6.19 0 11.2-8.85 11.2-19.75z" fill="#c8c8c8"/><g fill="none"><path d="m283.62 142.32h-.21-40.52l48.48 79.43" stroke="#231f20" stroke-width="21"/><path d="m318.36 491.01c-.17 1.01-.34 13.271 90.29 13.49.85.01 1.71.01 2.58.01" stroke="#231f20" stroke-width="21"/><path d="m501.5 490.8 10.55-105.2 24.77-246.93 2.15-21.47-257.83.14h-.24l2.51 24.98 7.96 79.43 27 269.19" stroke="#231f20" stroke-width="21"/><path d="m408.65 504.37c92.53 0 93.03-12.3 92.87-13.48" stroke="#231f20" stroke-width="21"/><path d="m501.5 490.8.02.09 52.11 231.771-24.43 38.01s-54.311 7.061-116.21 7.061l-4.48.14c-61.91 0-117.83-7.061-117.83-7.061l-24.44-38.01 52.12-231.79.01-.069" stroke="#231f20" stroke-width="21"/><path d="m543.89 115.23s-.93-.65-2.85-1.79c-10.37-6.13-49.62-26.29-127.51-33.16l-7.19.14c-73.57 6.49-112.44 24.88-125.2 32.08-3.26 1.84-4.81 2.95-4.81 2.95" stroke="#231f20" stroke-width="21"/><path d="m542.09 139.2s48.93-9.47 52.13 23.21c5.2 53.28 16.29 186.12 16.29 186.12s-57.34 22.61-98.46 37.07" stroke="#231f20" stroke-width="21"/><path d="m369.41 507.36-16.7 126.65" stroke="#231f20" stroke-linecap="round" stroke-linejoin="round" stroke-width="14"/><path d="m449.48 507.8 16.69 126.66" stroke="#231f20" stroke-linecap="round" stroke-linejoin="round" stroke-width="14"/><path d="m373.21 697.01c0 10.9-5.01 19.75-11.2 19.75-6.18 0-11.2-8.85-11.2-19.75 0-10.91 5.02-19.76 11.2-19.76 6.19 0 11.2 8.85 11.2 19.76z" stroke="#231f20" stroke-linecap="round" stroke-linejoin="round" stroke-width="12.5181"/><path d="m420.79 696.73c0 10.909-5.01 19.75-11.2 19.75-6.18 0-11.2-8.841-11.2-19.75 0-10.91 5.02-19.75 11.2-19.75 6.19 0 11.2 8.84 11.2 19.75z" stroke="#231f20" stroke-linecap="round" stroke-linejoin="round" stroke-width="12.5181"/><path d="m468.85 697.01c0 10.9-5.02 19.75-11.199 19.75-6.19 0-11.2-8.85-11.2-19.75 0-10.91 5.01-19.76 11.2-19.76 6.179 0 11.199 8.85 11.199 19.76z" stroke="#231f20" stroke-linecap="round" stroke-linejoin="round" stroke-width="12.5181"/><path d="m0 0h850.394v850.394h-850.394z"/></g></svg>