<svg enable-background="new 0 0 850.394 850.394" height="850.394" viewBox="0 0 850.394 850.394" width="850.394" xmlns="http://www.w3.org/2000/svg"><g fill="#ffeec8"><path d="m627.2 726.94 1.42-1.76 20.86 16.86-18.22 22.52-20.85-16.85z"/><path d="m208.51 207.29h3.85v47.69h-3.85z"/><path d="m627.2 635.8h56.89v47.561h-56.89z"/><path d="m627.2 588.12h56.89v47.68h-56.89z"/><path d="m627.2 540.56h56.89v47.561h-56.89z"/><path d="m627.2 493h56.89v47.56h-56.89z"/><path d="m627.2 445.33h56.89v47.67h-56.89z"/><path d="m627.2 397.76h56.89v47.57h-56.89z"/><path d="m627.2 350.08h56.89v47.68h-56.89z"/><path d="m627.2 302.53h56.89v47.55h-56.89z"/><path d="m627.2 254.98h56.89v47.55h-56.89z"/><path d="m627.2 207.29h56.89v47.69h-56.89z"/><path d="m684.09 159.73v47.56h-56.89v-47.56h56.84z"/><path d="m684.04 88.06v71.67h-56.84-61.9-302.4-50.54-3.85-47.08-.01v-71.67z"/><path d="m565.3 635.8h61.9v47.561h-61.9z"/><path d="m565.3 588.12h61.9v47.68h-61.9z"/><path d="m565.3 540.56h61.9v47.561h-61.9z"/><path d="m565.3 493h61.9v47.56h-61.9z"/><path d="m565.3 445.33h61.9v47.67h-61.9z"/><path d="m565.3 397.76h61.9v47.57h-61.9z"/><path d="m565.3 350.08h61.9v47.68h-61.9z"/><path d="m565.3 302.53h61.9v47.55h-61.9z"/><path d="m565.3 254.98h61.9v47.55h-61.9z"/><path d="m565.3 207.29h61.9v47.69h-61.9z"/><path d="m565.3 159.73h61.9v47.56h-61.9z"/><path d="m262.9 635.8h302.4v47.561h-302.4z"/><path d="m262.9 588.12h302.4v47.68h-302.4z"/><path d="m262.9 540.56h302.4v47.561h-302.4z"/><path d="m262.9 493h302.4v47.56h-302.4z"/><path d="m262.9 445.33h302.4v47.67h-302.4z"/><path d="m262.9 397.76h302.4v47.57h-302.4z"/><path d="m262.9 350.08h302.4v47.68h-302.4z"/><path d="m262.9 302.53h302.4v47.55h-302.4z"/><path d="m262.9 254.98h302.4v47.55h-302.4z"/><path d="m262.9 207.29h302.4v47.69h-302.4z"/><path d="m262.9 159.73h302.4v47.56h-302.4z"/><path d="m161.43 635.8h101.47v47.561h-101.47z"/><path d="m161.43 588.12h101.47v47.68h-101.47z"/><path d="m161.43 540.56h101.47v47.561h-101.47z"/><path d="m161.43 493h101.47v47.56h-101.47z"/><path d="m161.43 445.33h101.47v47.67h-101.47z"/><path d="m262.9 397.76v47.57h-101.47v-47.57h47.08v20.23h3.85v-20.23z"/><path d="m212.36 350.08h50.54v47.68h-50.54z"/><path d="m212.36 302.53h50.54v47.55h-50.54z"/><path d="m212.36 254.98h50.54v47.55h-50.54z"/><path d="m212.36 207.29h50.54v47.69h-50.54z"/><path d="m212.36 159.73h50.54v47.56h-50.54z"/></g><path d="m208.51 159.73h3.85v47.56h-3.85z" fill="#cb82b7"/><path d="m161.43 350.08h47.08v47.68h-47.08z" fill="#ffeec8"/><path d="m161.43 302.53h47.08v47.55h-47.08z" fill="#ffeec8"/><path d="m161.43 254.98h47.08v47.55h-47.08z" fill="#ffeec8"/><path d="m161.43 207.29h47.08v47.69h-47.08z" fill="#ffeec8"/><path d="m161.43 159.73h47.08v47.56h-47.08z" fill="#ffeec8"/><path d="m161.43 159.73h-.01v-71.67h522.62v71.67" fill="none" stroke="#231f20" stroke-width="21"/><path d="m212.36 159.73h50.54 302.4 61.9 56.84.05v47.56 47.69 47.55 47.55 47.68 47.57 47.67 47.56 47.56 47.68 47.56h-56.89-61.9-302.4-101.47v-47.56-47.68-47.56-47.56-47.67-47.57-47.68-47.55-47.55-47.69-47.56h47.08" fill="none" stroke="#231f20" stroke-width="21"/><path d="m161.43 207.29h47.08 3.85 50.54 302.4 61.9 56.89" fill="none" stroke="#231f20" stroke-width="14"/><path d="m161.43 254.98h47.08 3.85 50.54 302.4 61.9 56.89" fill="none" stroke="#231f20" stroke-width="14"/><path d="m161.43 302.53h47.08 3.85 50.54 302.4 61.9 56.89" fill="none" stroke="#231f20" stroke-width="14"/><path d="m161.43 350.08h47.08 3.85 50.54 302.4 61.9 56.89" fill="none" stroke="#231f20" stroke-width="14"/><path d="m161.43 397.76h47.08 3.85 50.54 302.4 61.9 56.89" fill="none" stroke="#231f20" stroke-width="14"/><path d="m161.43 445.33h101.47 302.4 61.9 56.89" fill="none" stroke="#231f20" stroke-width="14"/><path d="m161.43 493h101.47 302.4 61.9 56.89" fill="none" stroke="#231f20" stroke-width="14"/><path d="m161.43 540.56h101.47 302.4 61.9 56.89" fill="none" stroke="#231f20" stroke-width="14"/><path d="m161.43 588.12h101.47 302.4 61.9 56.89" fill="none" stroke="#231f20" stroke-width="14"/><path d="m161.43 635.8h101.47 302.4 61.9 56.89" fill="none" stroke="#231f20" stroke-width="14"/><path d="m212.36 397.76v20.23h-3.85v-20.23-47.68-47.55-47.55-47.69-47.56h3.85v47.56 47.69 47.55 47.55z" fill="none" stroke="#231f20" stroke-width="21"/><path d="m262.9 159.73v47.56 47.69 47.55 47.55 47.68 47.57 47.67 47.56 47.56 47.68 47.56" fill="none" stroke="#231f20" stroke-width="14"/><path d="m565.3 159.73v47.56 47.69 47.55 47.55 47.68 47.57 47.67 47.56 47.56 47.68 47.56" fill="none" stroke="#231f20" stroke-width="14"/><path d="m631.26 764.56-20.85-16.85 16.79-20.77 1.42-1.76 20.86 16.86z" fill="none" stroke="#231f20" stroke-width="14"/><path d="m627.2 159.73v47.56 47.69 47.55 47.55 47.68 47.57 47.67 47.56 47.56 47.68 47.56 43.58 3.09" fill="none" stroke="#231f20" stroke-width="14"/><path d="m0 0h850.394v850.394h-850.394z" fill="none"/></svg>