<svg enable-background="new 0 0 850.394 850.394" height="850.394" viewBox="0 0 850.394 850.394" width="850.394" xmlns="http://www.w3.org/2000/svg"><path d="m321.53 421.12h-85.01l37.74-76.02 4.63 2.3c6.05 11.85 12.89 24.72 20.08 37.2 7.47 13 15.32 25.59 23.02 36.19z" fill="#0d72ba"/><path d="m340.77 442.38c-5.96-5.18-12.32-12.689-18.78-21.59-7.7-10.6-15.55-23.19-23.02-36.19l1.03-.6 48-22 .41-.18 21.48 50.07s12.08 5.35 27.69 12.14c-1.67 6.57-3.34 12.331-4.99 16.98-13.2.4-31.73.73-51.82 1.37z" fill="#ffeec8"/><path d="m533.41 709.4c16.8 10.22 25.76 11.319 25.149 17.449-1.01 10.431-25.31 16.98-49.649 6.61-19-8.09-18.641-6.8-23.601-6.03h-10.64c-25.47-2.449-20.58-17.26-20.84-27.1l-2.04-3.43 34.69-20.631 2.649 4.45c.002.002 32.252 21.352 44.282 28.682z" fill="#231f20"/><path d="m451.79 696.9 2.04 3.43c.26 9.84-4.63 24.65 20.84 27.1h-24.99l-65.96-199.37h-47.02l-2.95.65c-8.49-9.93-18.41-18.62-29.46-25.77v-59.01c12.19-.68 24.61-1.17 36.48-1.55 2.56 2.23 5.04 4.03 7.42 5.32 0 0 62.03 21.05 90.82 30.76 18.73 60.71 55.061 193.29 55.061 193.29l-7.59 4.52z" fill="#2c308c"/><path d="m393.84 656.18c20.27 0 36.7 16.42 36.7 36.69 0 20.28-16.43 36.7-36.7 36.7s-36.69-16.42-36.69-36.7c0-20.27 16.42-36.69 36.69-36.69z" fill="#7a7878"/><path d="m241.52 608.13c.43.71.79 1.47 1.07 2.26.42 1.19.64 2.46.64 3.78 0 6.91-6.17 12.53-13.78 12.53-4.91 0-9.22-2.351-11.65-5.87-.23-.33-.44-.67-.63-1.021l-.01-.01c-.94-1.7-1.47-3.609-1.47-5.63 0-.64.05-1.28.16-1.89.17-1.07.5-2.09.96-3.05 2.1-4.45 6.97-7.57 12.64-7.57 5.2.001 9.72 2.611 12.07 6.471z" fill="#c8c8c8"/><path d="m304.29 443.93v59.011c-21.39-13.851-46.97-21.9-74.46-21.9-35.81 0-68.39 13.66-92.69 36l-2.23-3.521v-81.11h98.81 70.57z" fill="#c8c8c8"/><path d="m304.29 502.94c11.05 7.149 20.97 15.84 29.46 25.77 20.04 23.4 32.12 53.66 32.12 86.7 0 74.21-60.91 134.39-136.04 134.39-75.15 0-136.05-60.18-136.05-134.39 0-38.84 16.69-73.83 43.36-98.37 24.3-22.34 56.88-36 92.69-36 27.49 0 53.07 8.05 74.46 21.9zm-62.77 218.17c20.57-2.23 39.4-10.13 54.89-22.061 6.65-5.12 12.67-10.979 17.94-17.47 5.97-7.311 10.99-15.42 14.86-24.13 4.27-9.57 7.17-19.88 8.43-30.681.5-4.13.75-8.34.75-12.6s-.25-8.46-.75-12.58c-1.16-9.97-3.72-19.53-7.47-28.47-3.76-9.021-8.74-17.42-14.74-25.01-5.16-6.57-11.1-12.53-17.66-17.75-15.74-12.53-35.08-20.83-56.25-23.13-3.96-.44-7.98-.66-12.06-.66-4.4 0-8.73.26-12.99.76-20.31 2.38-38.91 10.29-54.21 22.15-6.63 5.13-12.64 11.02-17.9 17.52-6.07 7.48-11.15 15.79-15.03 24.72-4.08 9.37-6.85 19.42-8.07 29.94-.49 4.1-.74 8.28-.74 12.51 0 4.24.25 8.42.74 12.53 1.32 11.319 4.43 22.1 9.03 32.069 3.99 8.641 9.11 16.681 15.17 23.91 5.36 6.41 11.46 12.2 18.18 17.221 14.94 11.22 32.91 18.71 52.49 21.069 4.37.53 8.82.8 13.33.8 4.08.003 8.1-.217 12.06-.657z" fill="#7a7878"/><path d="m398.8 225.12c-9.17 1.86-18.27.78-26.14-3.73-10.2-5.85-16.48-16.42-18.47-28.93-2.17-13.65.74-29.61 9.18-44.33 16.19-28.24 46.58-41.24 67.91-29.02 21.31 12.22 25.47 45.02 9.279 73.26-10.209 17.82-26.079 29.58-41.759 32.75z" fill="#ffeec8"/><path d="m354.19 192.46c1.99 12.51 8.27 23.08 18.47 28.93 7.87 4.51 16.97 5.59 26.14 3.73 3.83 6.12 24.69 40.43 22.53 59.15-3.45 29.72-13.55 99.69-23.75 139.76-15.61-6.79-27.69-12.14-27.69-12.14l-21.48-50.07-18.2-42.44-51.32 28.02-4.63-2.3 75.7-152.49z" fill="#0d72ba"/><path d="m744.02 536.93c16.91 0 30.601 13.69 30.601 30.601s-13.69 30.609-30.601 30.609c-16.909 0-30.609-13.699-30.609-30.609s13.699-30.601 30.609-30.601z" fill="#ed1d31"/><path d="m505.43 464.64c27.641 18.16 2.42 38.891-11.3 41-13.7 2.11-41.11-22.489-41.11-22.489-1.38-.44-6.59-2.19-14.01-4.69-4.939-15.99-8.649-27-10.149-29.27-5.51-8.29-18.48-9.15-18.48-9.15-3.12.42-9.37.71-17.79.97 1.65-4.649 3.32-10.41 4.99-16.98 21.54 9.36 49.79 21.451 62.34 26.01 21.639 7.869 17.889-3.561 45.509 14.599z" fill="#ffeec8"/><path d="m392.59 441.01c8.42-.26 14.67-.55 17.79-.97 0 0 12.97.86 18.48 9.15 1.5 2.27 5.21 13.279 10.149 29.27-28.79-9.71-90.82-30.76-90.82-30.76-2.38-1.29-4.86-3.09-7.42-5.32 20.091-.64 38.621-.97 51.821-1.37z" fill="#ffeec8"/><path d="m349.96 192.61-75.7 152.49-37.74 76.02h-3.17c-6.54-111.22 34.96-178.4 34.96-178.4 26.23-44.71 81.65-50.11 81.65-50.11z" fill="#0d72ba"/><path d="m330.21 319.38 18.2 42.44-.41.18-48 22-1.03.6c-7.19-12.48-14.03-25.35-20.08-37.2z" fill="#0d72ba"/><path d="m236.52 421.12-2.8 5.64c-.14-1.89-.26-3.77-.37-5.64z" fill="#fff"/><g fill="none"><path d="m333.75 528.71c20.04 23.4 32.12 53.66 32.12 86.7 0 74.21-60.91 134.39-136.04 134.39-75.15 0-136.05-60.18-136.05-134.39 0-38.84 16.69-73.83 43.36-98.37 24.3-22.34 56.88-36 92.69-36 27.49 0 53.07 8.05 74.46 21.9 11.05 7.15 20.97 15.84 29.46 25.77z" stroke="#231f20" stroke-width="21"/><path d="m337.64 601.59c.5 4.12.75 8.32.75 12.58s-.25 8.47-.75 12.6c-1.26 10.801-4.16 21.11-8.43 30.681-3.87 8.71-8.89 16.819-14.86 24.13-5.27 6.49-11.29 12.35-17.94 17.47-15.49 11.931-34.32 19.83-54.89 22.061-3.96.439-7.98.659-12.06.659-4.51 0-8.96-.27-13.33-.8-19.58-2.359-37.55-9.85-52.49-21.069-6.72-5.021-12.82-10.811-18.18-17.221-6.06-7.229-11.18-15.27-15.17-23.91-4.6-9.97-7.71-20.75-9.03-32.069-.49-4.11-.74-8.29-.74-12.53 0-4.229.25-8.41.74-12.51 1.22-10.521 3.99-20.57 8.07-29.94 3.88-8.93 8.96-17.239 15.03-24.72 5.26-6.5 11.27-12.39 17.9-17.52 15.3-11.86 33.9-19.771 54.21-22.15 4.26-.5 8.59-.76 12.99-.76 4.08 0 8.1.22 12.06.66 21.17 2.3 40.51 10.6 56.25 23.13 6.56 5.22 12.5 11.18 17.66 17.75 6 7.59 10.98 15.989 14.74 25.01 3.75 8.938 6.31 18.498 7.47 28.468z" stroke="#231f20" stroke-width="13.4288"/><path d="m120.12 601.66h1.14 77.76.18 17.27 10.01 2.97 4.97 7.1 20.36 1.22 73.91" stroke="#231f20" stroke-width="6.7144"/><path d="m120.12 626.7h1.14 80.17 2.83 12.21 7.57 5.41 7.39 4.68 15.42 2.53 77.54" stroke="#231f20" stroke-width="6.7144"/><path d="m216.47 607.7v-6.04-17.95-76.38-.67" stroke="#231f20" stroke-width="6.7144"/><path d="m216.47 717.89v-70.82-20.37-3.97" stroke="#231f20" stroke-width="6.7144"/><path d="m241.52 609.01v-.88-6.47-15.04-79.39-.57" stroke="#231f20" stroke-width="6.7144"/><path d="m241.52 723.53v-2.42-76.93-17.48-4.68-.56" stroke="#231f20" stroke-width="6.7144"/><path d="m315.43 548.11-53.55 53.55-.91.91-12.81 12.82-5.32 5.31-1.32 1.32-4.68 4.68-6.4 6.4-13.97 13.97-52.83 52.83" stroke="#231f20" stroke-width="6.7144"/><path d="m216.47 611.66-.62.62-3.1 3.11-11.32 11.31-2.16 2.16-53.81 53.82" stroke="#231f20" stroke-width="6.7144"/><path d="m297.77 530.36-56.25 56.26-11.07 11.07-3.97 3.97" stroke="#231f20" stroke-width="6.7144"/><path d="m224.04 626.7 6.4 6.4 11.08 11.08 54.87 54.85" stroke="#231f20" stroke-width="6.7144"/><path d="m144.37 547.01 54.52 54.52.13.13 13.73 13.73 4.41 4.41" stroke="#231f20" stroke-width="6.7144"/><path d="m243.78 611.01 4.38 4.38 11.31 11.31 1.87 1.87 53.01 53.01" stroke="#231f20" stroke-width="6.7144"/><path d="m162.28 529.51 54.19 54.2 13.98 13.98 3.97 3.97" stroke="#231f20" stroke-width="6.7144"/><path d="m242.84 620.7 14.1 6 4.4 1.87 67.86 28.88" stroke="#231f20" stroke-width="6.7144"/><path d="m129.34 571.72 69.55 29.81.31.13 17.29 7.41" stroke="#231f20" stroke-width="6.7144"/><path d="m217.8 620.83-13.54 5.87-4.99 2.16-68.96 29.9" stroke="#231f20" stroke-width="6.7144"/><path d="m330.16 573.12-67.06 28.54-2.13.91-18.38 7.82" stroke="#231f20" stroke-width="6.7144"/><path d="m242.59 610.39c.42 1.19.64 2.46.64 3.78 0 6.91-6.17 12.53-13.78 12.53-4.91 0-9.22-2.351-11.65-5.87-.23-.33-.44-.67-.63-1.021l-.01-.01c-.94-1.7-1.47-3.609-1.47-5.63 0-.64.05-1.28.16-1.89.17-1.07.5-2.09.96-3.05 2.1-4.45 6.97-7.57 12.64-7.57 5.2 0 9.72 2.609 12.07 6.47.43.711.79 1.471 1.07 2.261z" stroke="#231f20" stroke-width="6.7144"/><path d="m134.91 421.12v-122.81s3.53-23.29-64.93 14.12" stroke="#231f20" stroke-linecap="round" stroke-linejoin="round" stroke-width="28"/><path d="m134.91 513.52v-81.11" stroke="#231f20" stroke-linecap="round" stroke-linejoin="round" stroke-width="28"/><path d="m336.7 528.06h47.02l65.96 199.37h24.99 10.64 3.9" stroke="#231f20" stroke-width="14"/><path d="m236.52 421.12h85.01v11.29h-17.24-70.57-98.81v-11.29h98.44" stroke="#231f20" stroke-width="21"/><path d="m304.29 432.41v11.52 59.01.03" stroke="#231f20" stroke-width="21"/><path d="m430.54 692.87c0 20.28-16.43 36.7-36.7 36.7s-36.69-16.42-36.69-36.7c0-20.271 16.42-36.69 36.69-36.69s36.7 16.42 36.7 36.69z" stroke="#231f20" stroke-width="21"/><path d="m393.84 692.87 29.88-21.26" stroke="#231f20" stroke-linecap="round" stroke-linejoin="round" stroke-width="20.1432"/><path d="m439.01 478.46c18.73 60.71 55.061 193.29 55.061 193.29l-7.59 4.52-34.691 20.63-3.54 2.109" stroke="#231f20" stroke-width="14"/><path d="m304.29 443.93c12.19-.68 24.61-1.17 36.48-1.55" stroke="#231f20" stroke-width="14"/><path d="m489.13 680.72s32.25 21.351 44.28 28.681c16.8 10.22 25.76 11.319 25.149 17.449-1.01 10.431-25.31 16.98-49.649 6.61-19-8.09-18.641-6.8-23.601-6.03-1.399.221-3.229.391-6.029.301-1.641-.061-3.17-.16-4.61-.301-25.47-2.449-20.58-17.26-20.84-27.1" stroke="#231f20" stroke-width="14"/><path d="m354.19 192.46c-2.17-13.65.74-29.61 9.18-44.33 16.19-28.24 46.58-41.24 67.91-29.02 21.31 12.22 25.47 45.02 9.279 73.26-10.21 17.82-26.08 29.58-41.76 32.75-9.17 1.86-18.27.78-26.14-3.73-10.199-5.85-16.479-16.42-18.469-28.93z" stroke="#231f20" stroke-width="14"/><path d="m398.2 224.17s.21.33.6.95c3.83 6.12 24.69 40.43 22.53 59.15-3.45 29.72-13.55 99.69-23.75 139.76" stroke="#231f20" stroke-width="14"/><path d="m278.89 347.4c6.05 11.85 12.89 24.72 20.08 37.2 7.47 13 15.32 25.59 23.02 36.19 6.46 8.9 12.82 16.41 18.78 21.59 2.56 2.23 5.04 4.03 7.42 5.32 0 0 62.03 21.05 90.82 30.76 7.42 2.5 12.63 4.25 14.01 4.69 0 0 27.41 24.6 41.11 22.489 13.72-2.109 38.94-22.84 11.3-41-27.62-18.159-23.87-6.729-45.51-14.6-12.55-4.56-40.8-16.65-62.34-26.01-15.61-6.79-27.69-12.14-27.69-12.14l-21.48-50.07-18.2-42.44" stroke="#231f20" stroke-width="14"/><path d="m349.96 192.61s-55.42 5.4-81.65 50.11c0 0-41.5 67.18-34.96 178.4.11 1.87.23 3.75.37 5.64" stroke="#231f20" stroke-width="14"/><path d="m774.62 567.53c0 16.91-13.69 30.609-30.601 30.609-16.909 0-30.609-13.699-30.609-30.609s13.7-30.601 30.609-30.601c16.911.001 30.601 13.691 30.601 30.601z" stroke="#231f20" stroke-width="14"/><path d="m677.32 586.04s-98.73 41.37-170.07-45.13" stroke="#231f20" stroke-width="13.4288"/><path d="m682.08 562.16s-68.99 9.21-118.7-44.26" stroke="#231f20" stroke-width="13.4288"/><path d="m348 362-48 22" stroke="#231f20" stroke-width="14"/><path d="m0 0h850.394v850.394h-850.394z"/></g></svg>