<svg enable-background="new 0 0 850.394 850.394" height="850.394" viewBox="0 0 850.394 850.394" width="850.394" xmlns="http://www.w3.org/2000/svg"><path d="m520.8 398v123.5h-47.41v-123.5h.61z" fill="#c8c8c8"/><path d="m520.8 350.65v47.35h-46.8-.61v-47.35z" fill="#ffffc2"/><path d="m615.55 350.65v47.35h-5.55-41.88v-47.35z" fill="#ffffc2"/><path d="m615.55 398v123.5h-.5-46.93v-123.5h41.88z" fill="#c8c8c8"/><path d="m520.8 350.65h47.32v47.35h-47.32z" fill="#ffffc2"/><path d="m520.8 398h47.32v123.5h-47.32z" fill="#c8c8c8"/><path d="m615.55 521.5v-123.5-47.35h-47.43-47.32-47.41v47.35 123.5h47.41 47.32 46.93zm-422.8 8.36v-211.83h9.8 450.66v211.83zm7.6-129.46v121.1h47.41 47.32 47.43 47.32 47.41v-121.5-49.35h-47.41-47.32-47.43-47.32-47.41z" fill="#f6cc4b"/><path d="m177.42 741.26h494.32v47.48h-494.32z" fill="#f6cc4b"/><path d="m671.74 60.22v47.48h-18.53v-.87h-460.46v.87h-15.33v-47.48z" fill="#f6cc4b"/><path d="m434.77 606v-44.8h-47.42-47.32-47.42-47.32-47.42v44.8 126.06h47.42 47.32 47.42 47.32 47.419v-126.06zm3.11 0v126.06h47.42 47.32 46.92.51v-126.06-44.8h-47.43-47.32-47.42zm215.33-76.14v211.2h-460.46v-211.2z" fill="#f6cc4b"/><path d="m511.57 181.89-16.181-45.81-40.05 15.46 15.75 44.58 39.38 111.5 40.061-15.45zm141.64-74.19v210.33h-450.66v-3.5h47.41 47.32 47.43 47.32 47.411v-117.8-53.05h-47.411-47.32-47.43-47.32-47.41v53.05h-6.44-3.36v-89.03z" fill="#f6cc4b"/><path d="m580.05 606v126.06h-.51-46.92v-126.06h43.38z" fill="#c8c8c8"/><path d="m580.05 561.2v44.8h-4.05-43.38v-44.8z" fill="#ffffc2"/><path d="m511.57 181.89 38.96 110.28-40.06 15.45-39.38-111.5 1.38-.49z" fill="#c8c8c8"/><path d="m485.3 606h47.32v126.06h-47.32z" fill="#c8c8c8"/><path d="m485.3 561.2h47.32v44.8h-47.32z" fill="#ffffc2"/><path d="m495.39 136.08 16.18 45.81-39.1 13.74-1.38.49-15.75-44.58z" fill="#ffffc2"/><path d="m437.88 606h47.42v126.06h-47.42z" fill="#c8c8c8"/><path d="m437.88 561.2h47.42v44.8h-47.42z" fill="#ffffc2"/><path d="m392.03 196.73h47.411v117.8h-47.411z" fill="#c8c8c8"/><path d="m392.03 143.68h47.411v53.05h-47.411z" fill="#ffffc2"/><path d="m437.24 400v121.5h-47.41v-121.42l44.17-.08z" fill="#c8c8c8"/><path d="m437.24 350.65v49.35h-3.24l-44.17.08v-49.43z" fill="#ffffc2"/><path d="m387.35 606h47.419v126.06h-47.419z" fill="#c8c8c8"/><path d="m387.35 561.2h47.419v44.8h-47.419z" fill="#ffffc2"/><path d="m344.71 196.73h47.32v117.8h-47.32z" fill="#c8c8c8"/><path d="m344.71 143.68h47.32v53.05h-47.32z" fill="#ffffc2"/><path d="m389.83 400.08v121.42h-47.32v-121.34z" fill="#c8c8c8"/><path d="m389.83 350.65v49.43l-47.32.08v-49.51z" fill="#ffffc2"/><path d="m340.03 606h47.32v126.06h-47.32z" fill="#c8c8c8"/><path d="m340.03 561.2h47.32v44.8h-47.32z" fill="#ffffc2"/><path d="m297.28 196.73h47.43v117.8h-47.43z" fill="#c8c8c8"/><path d="m297.28 143.68h47.43v53.05h-47.43z" fill="#ffffc2"/><path d="m342.51 400.16v121.34h-47.43v-121.26z" fill="#c8c8c8"/><path d="m342.51 350.65v49.51l-47.43.08v-49.59z" fill="#ffffc2"/><path d="m292.61 606h47.42v126.06h-47.42z" fill="#c8c8c8"/><path d="m292.61 561.2h47.42v44.8h-47.42z" fill="#ffffc2"/><path d="m249.96 196.73h47.32v117.8h-47.32z" fill="#c8c8c8"/><path d="m249.96 143.68h47.32v53.05h-47.32z" fill="#ffffc2"/><path d="m295.08 400.24v121.26h-47.32v-121.18z" fill="#c8c8c8"/><path d="m295.08 350.65v49.59l-47.32.08v-49.67z" fill="#ffffc2"/><path d="m245.29 606h47.32v126.06h-47.32z" fill="#c8c8c8"/><path d="m245.29 561.2h47.32v44.8h-47.32z" fill="#ffffc2"/><path d="m202.55 196.73h47.41v117.8h-47.41z" fill="#c8c8c8"/><path d="m202.55 143.68h47.41v53.05h-47.41z" fill="#ffffc2"/><path d="m247.76 400.32v121.18h-47.41v-121.1z" fill="#c8c8c8"/><path d="m247.76 350.65v49.67l-47.41.08v-49.75z" fill="#ffffc2"/><path d="m197.87 606h47.42v126.06h-47.42z" fill="#c8c8c8"/><path d="m197.87 561.2h47.42v44.8h-47.42z" fill="#ffffc2"/><g fill="none"><path d="m653.21 529.86v211.2h-460.46v-211.2-211.83-121.3-89.03-.87h460.46v.87 210.33z" stroke="#231f20" stroke-width="21"/><path d="m192.75 318.03h9.8 450.66" stroke="#231f20" stroke-width="14"/><path d="m192.75 529.86h460.46" stroke="#231f20" stroke-width="14"/><path d="m192.75 107.7h-15.33v-47.48h494.32v47.48h-18.53z" stroke="#231f20" stroke-width="21"/><path d="m177.42 741.26h494.32v47.48h-494.32z" stroke="#231f20" stroke-width="21"/><path d="m202.55 314.53v-117.8-53.05h47.41 47.32 47.43 47.32 47.41v53.05 117.8h-47.41-47.32-47.43-47.32z" stroke="#231f20" stroke-width="14"/><path d="m392.03 314.53v-117.8-53.05" stroke="#231f20" stroke-width="14"/><path d="m344.71 314.53v-117.8-53.05" stroke="#231f20" stroke-width="14"/><path d="m297.28 314.53v-117.8-53.05" stroke="#231f20" stroke-width="14"/><path d="m249.96 314.53v-117.8-53.05" stroke="#231f20" stroke-width="14"/><path d="m247.76 521.5h-47.41v-121.1-49.75h47.41 47.32 47.43 47.32 47.41v49.35 121.5h-47.41-47.32-47.43z" stroke="#231f20" stroke-width="14"/><path d="m389.83 521.5v-121.42-49.43" stroke="#231f20" stroke-width="14"/><path d="m342.51 521.5v-121.34-49.51" stroke="#231f20" stroke-width="14"/><path d="m295.08 521.5v-121.26-49.59" stroke="#231f20" stroke-width="14"/><path d="m247.76 521.5v-121.18-49.67" stroke="#231f20" stroke-width="14"/><path d="m568.12 350.65h47.43v47.35 123.5h-.5-46.93-47.32-47.41v-123.5-47.35h47.41z" stroke="#231f20" stroke-width="14"/><path d="m568.12 521.5v-123.5-47.35" stroke="#231f20" stroke-width="14"/><path d="m520.8 521.5v-123.5-47.35" stroke="#231f20" stroke-width="14"/><path d="m245.29 732.06h-47.42v-126.06-44.8h47.42 47.32 47.42 47.32 47.42v44.8 126.06h-47.42-47.32-47.42z" stroke="#231f20" stroke-width="14"/><path d="m387.35 732.06v-126.06-44.8" stroke="#231f20" stroke-width="14"/><path d="m340.03 732.06v-126.06-44.8" stroke="#231f20" stroke-width="14"/><path d="m292.61 732.06v-126.06-44.8" stroke="#231f20" stroke-width="14"/><path d="m245.29 732.06v-126.06-44.8" stroke="#231f20" stroke-width="14"/><path d="m532.62 561.2h47.43v44.8 126.06h-.51-46.92-47.32-47.42v-126.06-44.8h47.42z" stroke="#231f20" stroke-width="14"/><path d="m532.62 732.06v-126.06-44.8" stroke="#231f20" stroke-width="14"/><path d="m485.3 732.06v-126.06-44.8" stroke="#231f20" stroke-width="14"/><path d="m511.57 181.89 38.96 110.28-40.06 15.45-39.38-111.5-15.75-44.58 40.05-15.46z" stroke="#231f20" stroke-width="14"/><path d="m196 606h1.87 47.42 47.32 47.42 47.32 47.42 3.11 47.42 47.32 43.38" stroke="#231f20" stroke-width="14"/><path d="m192.84 400.41 7.51-.01 47.41-.08 47.32-.08 47.43-.08 47.32-.08 44.17-.08" stroke="#231f20" stroke-width="14"/><path d="m474 398h46.8 47.32 41.88" stroke="#231f20" stroke-width="14"/><path d="m196.11 196.73h6.44 47.41 47.32 47.43 47.32 47.41" stroke="#231f20" stroke-width="14"/><path d="m472.47 195.63 39.1-13.74 1.63-.57" stroke="#231f20" stroke-width="14"/><path d="m0 0h850.394v850.394h-850.394z"/></g></svg>