<svg enable-background="new 0 0 850.394 850.394" height="850.394" viewBox="0 0 850.394 850.394" width="850.394" xmlns="http://www.w3.org/2000/svg"><path d="m471.14 336.35h-4.16v-95.13-90.03h87.08v90.03h-.1-82.82z" fill="#c8c8c8"/><path d="m380.1 151.19v91.15h-2.97-82.82v95.13h-1.26v-186.28z" fill="#c8c8c8"/><path d="m380.1 242.34v-91.15h86.88v90.03h-1.43-82.82v95.13h-2.63z" fill="#c8c8c8"/><path d="m380.1 336.35v347.23h-87.05v-.33-317.25-28.53h1.26 82.82v-95.13h2.97z" fill="#c8c8c8"/><path d="m380.1 683.58v-347.23h2.63 82.82v-95.13h1.43v95.13 347.23z" fill="#c8c8c8"/><path d="m554.06 366v317.58h-.93-86.15v-347.23h4.16 82.82v-95.13h.1z" fill="#c8c8c8"/><path d="m789.63 596.92v86.7l-235.57-.04v-317.58l96.41 1.85v229.07z" fill="#ed1d31"/><path d="m293.05 366v317.25h-5.7-229.41v-86.71h139.15v-229.06l94.91-1.48z" fill="#ed1d31"/><path d="m471.14 241.22h82.82v95.13h-82.82z" fill="#ffffc2"/><path d="m382.73 241.22h82.82v95.13h-82.82z" fill="#ffffc2"/><path d="m294.31 242.34h82.82v95.13h-82.82z" fill="#ffffc2"/><g fill="none"><path d="m466.98 151.19h87.08v90.03 124.78 317.58h-.93-86.15-86.88-87.05v-.33-317.25-28.53-186.28h87.05z" stroke="#231f20" stroke-width="21"/><path d="m466.98 683.58v-347.23-95.13-90.03" stroke="#231f20" stroke-width="21"/><path d="m380.1 683.58v-347.23-94.01-91.15" stroke="#231f20" stroke-width="21"/><path d="m554 366h.06l96.41 1.85v229.07h139.16v86.7l-235.57-.04" stroke="#231f20" stroke-width="21"/><path d="m292 366-94.91 1.48v229.06h-139.15v86.71h229.41" stroke="#231f20" stroke-width="21"/><path d="m294.31 242.34h82.82v95.13h-82.82z" stroke="#231f20" stroke-width="21"/><path d="m382.73 241.22h82.82v95.13h-82.82z" stroke="#231f20" stroke-width="21"/><path d="m471.14 241.22h82.82v95.13h-82.82z" stroke="#231f20" stroke-width="21"/><path d="m0 0h850.394v850.394h-850.394z"/><path d="m658.931 67.718-.87 220.054" stroke="#23201f" stroke-width="21"/><path d="m708.293 235.198-50.431 53.612-48.502-55.431" stroke="#23201f" stroke-width="21"/></g></svg>