<svg enable-background="new 0 0 850.394 850.394" height="850.394" viewBox="0 0 850.394 850.394" width="850.394" xmlns="http://www.w3.org/2000/svg"><path d="m657.25 169.97 21.25 55.07-2.5.96-56.46 22.57-.97.37-21.25-55.08 54.68-21.86z" fill="#ffffc2"/><path d="m678.5 225.04 74.75 193.72-60.2 23.21-74.48-193.03.97-.37 56.46-22.57z" fill="#c8c8c8"/><path d="m67.32 455.76h714.7v96.36h-714.7z" fill="#ed1d31"/><path d="m644.7 553.73h43.91v178.81h-43.91z" fill="#ed1d31"/><path d="m632.65 106.22 24.6 63.75-5.25 2.03-54.68 21.86-24.85-64.41z" fill="#c8c8c8"/><path d="m558.96 185.94v266.06h-76.63v-209.32h76.18v-56.74z" fill="#c8c8c8"/><path d="m558.96 121.69v64.25h-.45-76.18v-64.25z" fill="#c8c8c8"/><path d="m482.33 185.94h76.18v56.74h-76.18z" fill="#ffffc2"/><path d="m405.84 242.68h76.49v209.32h-76.49z" fill="#c8c8c8"/><path d="m405.84 185.94h76.49v56.74h-76.49z" fill="#ffffc2"/><path d="m405.84 121.69h76.49v64.25h-76.49z" fill="#c8c8c8"/><path d="m329.2 242.68h76.64v209.32h-76.64z" fill="#c8c8c8"/><path d="m329.2 185.94h76.64v56.74h-76.64z" fill="#ffffc2"/><path d="m329.2 121.69h76.64v64.25h-76.64z" fill="#c8c8c8"/><path d="m252.71 242.68h76.49v209.32h-76.49z" fill="#c8c8c8"/><path d="m252.71 185.94h76.49v56.74h-76.49z" fill="#ffffc2"/><path d="m252.71 121.69h76.49v64.25h-76.49z" fill="#c8c8c8"/><path d="m252.71 242.68v209.32h-76.63v-209.32h.19z" fill="#c8c8c8"/><path d="m176.27 185.94h76.44v56.74h-76.44z" fill="#ffffc2"/><path d="m252.71 121.69v64.25h-76.44v56.74h-.19v-120.99z" fill="#c8c8c8"/><path d="m161.81 554.8h43.9v178.811h-43.9z" fill="#ed1d31"/><g fill="none"><path d="m252.71 452h-76.63v-209.32-120.99h76.63 76.49 76.64 76.49 76.63v64.25 266.06h-76.63-76.49-76.64z" stroke="#231f20" stroke-width="14"/><path d="m482.33 452v-209.32-56.74-64.25" stroke="#231f20" stroke-width="14"/><path d="m405.84 452v-209.32-56.74-64.25" stroke="#231f20" stroke-width="14"/><path d="m329.2 452v-209.32-56.74-64.25" stroke="#231f20" stroke-width="14"/><path d="m252.71 452v-209.32-56.74-64.25" stroke="#231f20" stroke-width="14"/><path d="m67.32 455.76h714.7v96.36h-714.7z" stroke="#231f20" stroke-width="14"/><path d="m161.81 554.8h43.9v178.811h-43.9z" stroke="#231f20" stroke-width="14"/><path d="m644.7 553.73h43.91v178.81h-43.91z" stroke="#231f20" stroke-width="14"/><path d="m558.51 185.94v56.74h-76.18-76.49-76.64-76.49-76.44v-56.74h76.44 76.49 76.64 76.49z" stroke="#231f20" stroke-width="14"/><path d="m678.5 225.04 74.75 193.72-60.2 23.21-74.48-193.03-21.25-55.08-24.85-64.41 60.18-23.23 24.6 63.75z" stroke="#231f20" stroke-width="14"/><path d="m597.05 193.97.27-.11 54.68-21.86" stroke="#231f20" stroke-width="14"/><path d="m619.54 248.57 56.46-22.57" stroke="#231f20" stroke-width="14"/><path d="m0 0h850.394v850.394h-850.394z"/></g></svg>