<svg enable-background="new 0 0 850.394 850.394" height="850.394" viewBox="0 0 850.394 850.394" width="850.394" xmlns="http://www.w3.org/2000/svg"><path d="m158.438 69.201h184.124v184.12h-184.124z" fill="none"/><path d="m342.563 243.32c-49.784 0-99.567 0-149.351 0-11.591 0-23.182 0-34.773 0l10 10c0-49.783 0-99.565 0-149.348 0-11.591 0-23.181 0-34.772-3.333 3.333-6.667 6.667-10 10h149.351 34.773c-3.333-3.333-6.667-6.667-10-10v149.348 34.772c0 12.897 20 12.897 20 0 0-49.783 0-99.565 0-149.348 0-11.591 0-23.181 0-34.772 0-5.451-4.549-10-10-10-49.784 0-99.567 0-149.351 0-11.591 0-23.182 0-34.773 0-5.451 0-10 4.549-10 10v149.348 34.772c0 5.451 4.549 10 10 10h149.351 34.773c12.897 0 12.897-20 0-20z" fill="#231f20"/><path d="m158.438 323.522h184.124v184.119h-184.124z" fill="none"/><path d="m342.563 497.642c-49.784 0-99.567 0-149.351 0-11.591 0-23.182 0-34.773 0 3.333 3.333 6.667 6.667 10 10 0-49.782 0-99.565 0-149.347 0-11.591 0-23.181 0-34.772-3.333 3.333-6.667 6.667-10 10h149.351 34.773c-3.333-3.333-6.667-6.667-10-10v149.347 34.772c0 12.897 20 12.897 20 0 0-49.782 0-99.565 0-149.347 0-11.591 0-23.181 0-34.772 0-5.451-4.549-10-10-10-49.784 0-99.567 0-149.351 0-11.591 0-23.182 0-34.773 0-5.451 0-10 4.549-10 10v149.347 34.772c0 5.451 4.549 10 10 10h149.351 34.773c12.897 0 12.897-20 0-20z" fill="#231f20"/><path d="m158.438 595.765h184.124v184.111h-184.124z" fill="none"/><g fill="#5668af"><circle cx="158.438" cy="749.19" r="13.988"/><circle cx="158.438" cy="718.505" r="13.988"/><circle cx="158.438" cy="687.82" r="13.988"/><circle cx="158.438" cy="657.135" r="13.988"/><circle cx="158.438" cy="626.449" r="13.988"/><circle cx="189.126" cy="595.765" r="13.988"/><circle cx="219.813" cy="595.765" r="13.988"/><circle cx="250.501" cy="595.765" r="13.988"/><circle cx="281.188" cy="595.765" r="13.988"/><circle cx="311.876" cy="595.765" r="13.988"/><circle cx="342.563" cy="626.45" r="13.988"/><circle cx="342.563" cy="657.136" r="13.988"/><circle cx="342.563" cy="687.82" r="13.988"/><circle cx="342.563" cy="718.506" r="13.988"/><circle cx="342.563" cy="749.191" r="13.988"/><circle cx="311.875" cy="779.876" r="13.988"/><circle cx="281.188" cy="779.876" r="13.988"/><circle cx="250.5" cy="779.876" r="13.988"/><circle cx="219.813" cy="779.876" r="13.988"/><circle cx="189.125" cy="779.876" r="13.988"/><circle cx="158.439" cy="595.765" r="13.988"/><circle cx="342.563" cy="595.765" r="13.988"/><circle cx="342.562" cy="779.876" r="13.988"/><circle cx="158.438" cy="779.875" r="13.988"/></g><path d="m0 0h850.394v850.394h-850.394z" fill="none"/><path d="m767.185 687.517h-337.132" fill="#fff" stroke="#231f20" stroke-width="28"/><path d="m535.693 590.091-107.693 97.781 107.871 97.752" fill="none" stroke="#231f20" stroke-width="28"/></svg>