<svg enable-background="new 0 0 850.394 850.394" height="850.394" viewBox="0 0 850.394 850.394" width="850.394" xmlns="http://www.w3.org/2000/svg"><path d="m394.421 363.292 6.217-8.35 4.235-5.695 16.978 8.112-14.821 19.917-13.039-13.409z" fill="#c8c8c8"/><path d="m383.023 368.502c.158.854.085 2.66-2.023 5.49-.891 1.206-4.417 5.98-9.101 12.409l-3.563.654c-3.52-1.86-7.458-4.036-10.343-7.144-1.272-1.369-2.339-2.92-3.078-4.702-.097-.23-.194-.437-.303-.636l2.672-.006c4.569-6.022 7.925-10.5 8.792-11.664 1.696-2.284 3.145-3.114 4.096-3.399.751-.224 1.188-.109 1.188-.109l11.482 8.537c0 .001.115.189.181.57z" fill="#f6cc4b"/><path d="m370.154 359.335s5.847-7.865 3.478-15.318c-2.375-7.465-23.782-17.687-23.782-17.687s16.56-1.054 33.356 6.805c16.796 7.858 21.667 16.111 21.667 16.111l-4.235 5.695-6.217 8.35c-5.968-1.769-10.925 5.126-10.925 5.126l-.473.085c-.066-.382-.182-.57-.182-.57l-11.482-8.537s-.437-.115-1.188.109z" fill="#c8c8c8"/><path d="m346.814 415.97 2.975 1.394c-5.284 7.617-9.652 14.197-11.506 17.645-4.92 9.131-10.658 7.992-16.844 3.393-3.793-2.823-6.32-8.798-6.065-13.002 6.762-1.327 11.567-2.357 12.827-2.812 2.848-1.018 3.866-2.872 3.812-5.29 5.264.157 10.154-.237 14.801-1.328z" fill="#f6cc4b"/><path d="m336.774 535.426c1.848 9.149-12.488 2.951-23.431 6.521-1.775.575-3.46 1.411-4.969 2.611-6.683 5.313-9.876-10.549-20.31-22.432l21.886-24.872c14.312 7.737 22.855 18.498 26.824 38.172z" fill="#ffeec8"/><path d="m202.673 529.81-.915 1.793-24.194-9.337-94.444-36.458-.03-.012s16.263-57.98 33.671-99.91c21.025-50.648 42.299-75.97 68.142-80.211 1.666-.272 3.478-.569 5.362-.878 5.12 7.319 52.139 74.395 67.626 90.015 1.054-.012 2.139-.048 3.242-.097 25.903-1.188 63.264-11.373 63.264-11.373-.351.806-.612 1.63-.788 2.466-2.363 10.768 8.247 23.916 8.404 31.49.054 2.417-.964 4.271-3.812 5.29-1.26.455-6.065 1.484-12.827 2.812-13.451 2.629-34.634 6.422-51.085 9.167-5.423.902-10.337 1.696-14.281 2.29l-19.032 37.379z" fill="#a8d7f4"/><path d="m332.012 417.297c-.158-7.574-10.768-20.722-8.404-31.49h.012c15.857-4.544 27.211-18.171 30.993-11.233.109.2.206.406.303.636.739 1.781 1.806 3.333 3.078 4.702 2.884 3.108 6.823 5.284 10.343 7.144 6.011 3.187 10.792 5.453 6.974 9.937-9.21 10.785-18.25 16.572-28.496 18.977-4.648 1.091-9.538 1.485-14.803 1.327z" fill="#ffeec8"/><path d="m309.944 497.247.006.007-21.886 24.872-.006.007-56.06-47.377-1.024-.521 19.032-37.379c3.944-.594 8.858-1.388 14.281-2.29l.43 2.624z" fill="#a8d7f4"/><path d="m253.97 331.632c-3.381.333-6.792.097-10.149-.77-12.991-3.345-22.062-15.348-25.006-30.647-1.618-8.435-1.382-17.875 1.084-27.418 6.938-26.86 28.89-44.419 49.037-39.215 20.159 5.199 30.859 31.199 23.928 58.059-5.787 22.39-21.989 38.313-38.894 39.991z" fill="#ffeec8"/><path d="m257.89 394.811c-15.487-15.62-62.506-82.695-67.626-90.015 12.1-2.005 27.193-4.544 27.193-4.544l1.357-.036c2.944 15.299 12.015 27.302 25.006 30.647 3.357.867 6.768 1.103 10.149.77 7.18 11.27 7.113 61.931 7.113 61.931l.048 1.151c-1.101.048-2.186.084-3.24.096z" fill="#a8d7f4"/><path d="m202.673 529.81-3.521 114.269-22.455-.218-.442-118.209 1.308-3.386 24.195 9.337z" fill="#797878"/><path d="m83.119 485.808 94.444 36.458-1.309 3.387.442 118.209-64.409-.637c-1.266-10.912-6.617-53.169-14.821-67.129-15.522-26.425-25.774-46.735-14.347-90.288z" fill="#797878"/><g fill="none"><path d="m218.814 300.216c-1.618-8.435-1.382-17.875 1.084-27.418 6.938-26.86 28.89-44.419 49.037-39.215 20.159 5.199 30.859 31.199 23.928 58.059-5.787 22.389-21.989 38.312-38.894 39.99-3.381.333-6.792.097-10.149-.77-12.99-3.344-22.061-15.347-25.006-30.646z" stroke="#231f20" stroke-width="14"/><path d="m217.457 300.252s-15.093 2.539-27.193 4.544c-1.885.309-3.696.606-5.362.878-25.843 4.242-47.116 29.563-68.142 80.211-17.408 41.929-33.671 99.91-33.671 99.91l.03.012 94.444 36.458 24.194 9.337.915-1.793 28.302-55.575 19.032-37.379.012-.018" stroke="#231f20" stroke-width="14"/><path d="m261.083 393.563s.066-50.661-7.113-61.931c-.012-.018-.019-.03-.03-.048" stroke="#231f20" stroke-width="14"/><path d="m259.229 396.108c-.418-.382-.86-.812-1.339-1.297-15.487-15.62-62.506-82.695-67.626-90.015-.291-.424-.449-.648-.449-.648" stroke="#231f20" stroke-width="14"/><path d="m183.429 388.007c7.132 6.823 50.382 50.182 57.356 50.019" stroke="#231f20" stroke-width="14"/><path d="m240.785 438.025c1.224-.03 4.551-.461 9.222-1.17 3.944-.594 8.858-1.388 14.281-2.29 16.451-2.745 37.634-6.538 51.085-9.167 6.762-1.327 11.567-2.357 12.827-2.812 2.848-1.018 3.866-2.872 3.812-5.29-.158-7.574-10.768-20.722-8.404-31.49.176-.836.437-1.66.788-2.466 0 0-37.361 10.186-63.264 11.373-1.103.048-2.188.085-3.242.097-1.139.019-2.248.012-3.32-.012" stroke="#231f20" stroke-width="14"/><path d="m357.993 379.912c-1.272-1.369-2.339-2.92-3.078-4.702-.097-.23-.194-.437-.303-.636-3.781-6.938-15.136 6.689-30.993 11.233" stroke="#231f20" stroke-width="14"/><path d="m330.891 417.26c.375.019.751.03 1.121.037 5.265.158 10.155-.236 14.802-1.327 10.246-2.405 19.286-8.192 28.496-18.977 3.817-4.484-.963-6.75-6.974-9.937-3.52-1.86-7.458-4.036-10.343-7.144" stroke="#231f20" stroke-width="14"/><path d="m313.343 541.946c-1.775.575-3.46 1.411-4.969 2.611-6.683 5.313-9.876-10.549-20.31-22.432-.612-.696-1.242-1.375-1.903-2.035" stroke="#231f20" stroke-width="12.7242"/><path d="m309.95 497.254c14.312 7.737 22.855 18.498 26.824 38.172 1.848 9.149-12.488 2.951-23.431 6.521" stroke="#231f20" stroke-width="14"/><path d="m307.805 496.127c.727.363 1.442.732 2.139 1.12" stroke="#231f20" stroke-width="14"/><path d="m371.899 386.401c4.684-6.429 8.21-11.204 9.101-12.409 2.108-2.83 2.181-4.635 2.023-5.49-.066-.382-.182-.57-.182-.57l-11.482-8.537s-.437-.115-1.188.109c-.951.285-2.399 1.115-4.096 3.399-.867 1.163-4.223 5.641-8.792 11.664" stroke="#231f20" stroke-width="7"/><path d="m315.615 423.859c-.127.473-.212.994-.242 1.539-.254 4.205 2.272 10.179 6.065 13.002 6.186 4.6 11.924 5.738 16.844-3.393 1.854-3.447 6.223-10.028 11.506-17.645" stroke="#231f20" stroke-width="7"/><path d="m370.154 359.335s5.847-7.865 3.478-15.318c-2.375-7.465-23.782-17.687-23.782-17.687s16.56-1.054 33.356 6.805c16.796 7.858 21.667 16.111 21.667 16.111" stroke="#231f20" stroke-width="7"/><path d="m383.496 368.417s4.957-6.895 10.925-5.126c.321.097.642.218.969.364" stroke="#231f20" stroke-width="8.4828"/><path d="m404.873 349.247 16.978 8.112-14.821 19.917-13.039-13.409.43-.575 6.217-8.35z" stroke="#231f20" stroke-width="7"/><path d="m83.525 484.287c-.14.509-.273 1.018-.406 1.521-11.427 43.554-1.175 63.863 14.348 90.288 8.204 13.96 13.555 56.217 14.821 67.129.194 1.66.291 2.594.291 2.594" stroke="#231f20" stroke-width="14"/><path d="m202.788 526.064-.115 3.746-3.521 114.269" stroke="#231f20" stroke-width="14"/><path d="m176.255 525.652.442 118.209v.8" stroke="#231f20" stroke-width="14"/><path d="m264.718 437.189 45.226 60.058.006.007-21.886 24.872-.005.007-56.06-47.377" stroke="#231f20" stroke-width="14"/><path d="m0 0h850.394v850.394h-850.394z"/><path d="m586.24 231.234 17.781 76.264s1.959 32.497 2.651 32.029" stroke="#231f20" stroke-width="7"/><path d="m506.701 299.548c.69 0 16.143-16.599 16.143-16.599l68.03-25.718" stroke="#231f20" stroke-width="7"/><path d="m520.769 248.347c16.142 14.028 29.978 26.653 29.978 26.653l9.456 29.927 21.908 6.545" stroke="#231f20" stroke-width="7"/><path d="m478.912 462.737 59.268-43.485 68.607-54.709" stroke="#231f20" stroke-width="7"/><path d="m596.872 372.258-16.604 54.241-40.127 73.878" stroke="#231f20" stroke-width="7"/><path d="m493.095 381.142 38.281 11.222 4.151 28.524" stroke="#231f20" stroke-width="7"/><path d="m605.635 340.463h22.139l-5.074 21.274-7.38 12.392-10.378-18.704-1.382-13.092-5.147-2.148-67.727-28.245-63.42-30.16" stroke="#231f20" stroke-width="7"/><path d="m613.015 371.089-1.614 37.407-6.459 53.541-.436 40.106" stroke="#231f20" stroke-width="7"/><path d="m559.512 325.966 41.28-25.482" stroke="#231f20" stroke-width="7"/><path d="m467.266 331.577 59.037 2.806 29.057 25.25 7.841 40.446" stroke="#231f20" stroke-width="7"/><path d="m535.065 423.225 45.252 2.526 25.318 25.53" stroke="#231f20" stroke-width="7"/><path d="m592.951 387.923 17.296.468" stroke="#231f20" stroke-width="7"/><path d="m668.874 242.042s-14.193 40.414-15.102 40.561c-.91.146-42.142 57.392-42.142 57.392" stroke="#231f20" stroke-width="7"/><path d="m710.901 283.541c-.684.111-18.521-13.813-18.521-13.813l-31.131-4.909" stroke="#231f20" stroke-width="7"/><path d="m595.949 269.389 45.528 9.283 23.028-24.322" stroke="#231f20" stroke-width="7"/><path d="m763.142 361.744-84.78 11.816-56.578-15.232" stroke="#231f20" stroke-width="7"/><path d="m763.707 440.253-65.289-33.475-76.251-43.067" stroke="#231f20" stroke-width="7"/><path d="m630.526 366.384 27.458 54.275 47.277 67.094" stroke="#231f20" stroke-width="7"/><path d="m710.571 370.48-5.604 26.715-3.672 10.778" stroke="#231f20" stroke-width="7"/><path d="m613.937 339.06 12.714-.741 62.493-38.709 57.939-39.914" stroke="#231f20" stroke-width="7"/><path d="m617.035 371.17 7.406 36.682 14.698 51.837 9.853 39.286" stroke="#231f20" stroke-width="7"/><path d="m676.423 374.584-5.693 17.257" stroke="#231f20" stroke-width="7"/><path d="m654.662 418.828-19.048 29.647" stroke="#231f20" stroke-width="7"/><path d="m467.266 390.027 87.632-31.797 50.737-.934" stroke="#231f20" stroke-width="7"/><path d="m749.54 303.991-53.965 21.509-45.2 40.68" stroke="#231f20" stroke-width="7"/><path d="m441.62 188.925h350.38v372.39h-350.38z" stroke="#231f20" stroke-width="21"/></g></svg>