<svg enable-background="new 0 0 850.394 850.394" height="850.394" viewBox="0 0 850.394 850.394" width="850.394" xmlns="http://www.w3.org/2000/svg"><path d="m229.31 246.08v355.05l-114.94 133.24-15.27-15.27v-598.99l14.09-8.61z" fill="#fff5b4"/><path d="m229.31 246.08v-.67h146.62l-9.18 32.88h115.02l-9.18-32.88h145.54v1.38 354.26.08h-388.82z" fill="#fff5b4"/><path d="m750.15 117.12v609.58l-17.66 6.73-114.22-132.38h-.14v-354.26h.82l117.47-136.17z" fill="#fff5b4"/><path d="m618.27 601.05 114.22 132.38-21.67 8.26-287.1.08h-315.74l6.39-7.4 114.94-133.24h388.82v-.08z" fill="#f6cc4b"/><path d="m736.42 110.62-117.47 136.17h-.82v-1.38h-145.54l-12.88-46.11h-35.87-35.03l-12.88 46.11h-146.62v.67l-116.12-134.58 8.61-5.26 302.74-.09h302.44z" fill="#fff"/><path d="m472.59 245.41 9.18 32.88h-115.02l9.18-32.88z" fill="#fbed24"/><path d="m423.84 199.3h35.87l12.88 46.11h-96.66l12.88-46.11z" fill="#fbed24"/><g fill="none"><path d="m472.59 245.41h145.54v1.38 354.26.08h-388.82v-355.05-.67h146.62" stroke="#231f20" stroke-width="18.7605"/><path d="m618.27 601.05 114.22 132.38 7.11 8.25-28.78.01-287.1.08h-315.74l6.39-7.4 114.94-133.24" stroke="#231f20" stroke-width="18.7605"/><path d="m229.99 246.87-.68-.79-116.12-134.58-4.54-5.26h13.15l302.74-.09h302.44 13.3l-3.86 4.47-117.47 136.17" stroke="#231f20" stroke-width="18.7605"/><path d="m99.1 98.05v22.06 598.99 30.86" stroke="#231f20" stroke-width="18.7605"/><path d="m750.15 97.88v19.24 609.58 23.09" stroke="#231f20" stroke-width="18.7605"/><path d="m423.84 147.2v52.1" stroke="#231f20" stroke-width="18.7605"/><path d="m375.93 245.41-9.18 32.88h115.02l-9.18-32.88-12.88-46.11h-35.87-35.03z" stroke="#231f20" stroke-width="18.7605"/><path d="m422.8 349.69v142.96" stroke="#231f20" stroke-width="6.2535"/><path d="m357.14 304.06-84.94 52.12" stroke="#231f20" stroke-width="6.2535"/><path d="m380.59 338.98-68.27 107.87" stroke="#231f20" stroke-width="6.2535"/><path d="m496.28 302.5 84.95 52.11" stroke="#231f20" stroke-width="6.2535"/><path d="m472.83 337.42 68.27 107.87" stroke="#231f20" stroke-width="6.2535"/><path d="m0 0h850.394v850.394h-850.394z"/></g></svg>