<svg enable-background="new 0 0 850.394 850.394" height="850.394" viewBox="0 0 850.394 850.394" width="850.394" xmlns="http://www.w3.org/2000/svg"><path d="m568.6 712.88v89.561h-35.09v-80.53h15.82c7.74-.001 14.66-3.511 19.27-9.031z" fill="#fff400"/><path d="m503.26 721.91h30.25v80.53h-30.25z" fill="#fff400"/><path d="m472.19 721.91h31.069v80.53h-31.069z" fill="#fff400"/><path d="m441.93 721.91h30.261v80.53h-30.261z" fill="#fff400"/><path d="m413.31 721.91h28.62v80.53h-28.62z" fill="#fff400"/><path d="m383.06 721.91h30.25v80.53h-30.25z" fill="#fff400"/><path d="m351.99 721.91h31.07v80.53h-31.07z" fill="#fff400"/><path d="m321.73 721.91h30.26v80.53h-30.26z" fill="#fff400"/><path d="m287.47 712.86c4.59 5.529 11.52 9.05 19.27 9.05h14.99v80.53h-34.27v-89.57z" fill="#fff400"/><path d="m574.4 696.83c0 6.11-2.181 11.7-5.801 16.05-4.609 5.521-11.529 9.03-19.27 9.03h-15.82-30.25-31.069-30.26-28.62-30.25-31.07-30.26-14.99c-7.75 0-14.68-3.521-19.27-9.05-3.62-4.351-5.8-9.931-5.8-16.03 0-6.93 2.81-13.19 7.35-17.72 4.53-4.54 10.8-7.341 17.72-7.341h242.59c13.85.001 25.07 11.211 25.07 25.061z" fill="#9c5b16"/><path d="m455.66 76.78h-.021v589.82h-53.8v-517.29l.09-72.26c0-17.36 12.03-31.43 26.86-31.43 14.761 0 26.751 13.92 26.871 31.16z" fill="#9c5b16"/><g fill="none"><path d="m287.47 712.86c-3.62-4.351-5.8-9.931-5.8-16.03 0-6.93 2.81-13.19 7.35-17.72 4.53-4.54 10.8-7.341 17.72-7.341h242.59c13.85 0 25.07 11.211 25.07 25.061 0 6.11-2.181 11.7-5.801 16.05-4.609 5.521-11.529 9.03-19.27 9.03h-15.82-30.25-31.069-30.26-28.62-30.25-31.07-30.26-14.99c-7.75 0-14.68-3.52-19.27-9.05z" stroke="#231f20" stroke-width="21"/><path d="m455.64 76.78v589.82h-53.8v-517.29l.09-72.26c0-17.36 12.03-31.43 26.86-31.43 14.76 0 26.75 13.92 26.87 31.16.01.09.01.18.01.27" stroke="#231f20" stroke-width="21"/><path d="m568.6 712.88v89.56h-35.09-30.25-31.07-30.26-28.62-30.25-31.07-30.26-34.27v-89.57" stroke="#231f20" stroke-width="21"/><path d="m321.73 721.91v80.53" stroke="#231f20" stroke-width="21"/><path d="m351.99 721.91v80.53" stroke="#231f20" stroke-width="21"/><path d="m383.06 721.91v80.53" stroke="#231f20" stroke-width="21"/><path d="m413.31 721.91v80.53" stroke="#231f20" stroke-width="21"/><path d="m441.93 721.91v80.53" stroke="#231f20" stroke-width="21"/><path d="m472.19 721.91v80.53" stroke="#231f20" stroke-width="21"/><path d="m503.26 721.91v80.53" stroke="#231f20" stroke-width="21"/><path d="m533.51 721.91v80.53" stroke="#231f20" stroke-width="21"/><path d="m0 0h850.394v850.394h-850.394z"/></g></svg>