<svg enable-background="new 0 0 850.394 850.394" height="850.394" viewBox="0 0 850.394 850.394" width="850.394" xmlns="http://www.w3.org/2000/svg"><path d="m696.35 288.32c11 16.62-2.46 44.91-30.08 63.19-27.609 18.28-58.909 19.63-69.899 3.02-11.01-16.62 2.46-44.91 30.07-63.19 27.599-18.29 58.909-19.63 69.909-3.02z" fill="#cd82be"/><path d="m685.28 363.91c33.63 0 60.899 25.48 60.899 56.9 0 31.43-27.27 56.9-60.899 56.9-33.641 0-60.9-25.47-60.9-56.9 0-31.42 27.26-56.9 60.9-56.9z" fill="#cd82be"/><path d="m660.85 485.4c27.62 18.279 41.08 46.58 30.07 63.199-10.99 16.61-42.3 15.261-69.91-3.029-27.6-18.28-41.069-46.57-30.06-63.181 10.99-16.619 42.29-15.269 69.9 3.011z" fill="#cd82be"/><path d="m609.19 559.6c20.52 26.65 16.979 63.79-7.931 82.971-24.88 19.17-61.71 13.1-82.229-13.54-20.511-26.65-16.971-63.8 7.93-82.971 24.9-19.17 61.72-13.11 82.23 13.54z" fill="#cd82be"/><path d="m435.88 564.12c31.43 0 56.9 27.27 56.9 60.899 0 33.631-25.471 60.9-56.9 60.9-31.42 0-56.9-27.27-56.9-60.9 0-33.629 25.48-60.899 56.9-60.899z" fill="#cd82be"/><path d="m345.62 545.66c24.9 19.17 28.44 56.32 7.93 82.96-20.52 26.66-57.35 32.71-82.24 13.54-24.9-19.17-28.45-56.32-7.93-82.97 20.52-26.64 57.34-32.7 82.24-13.53z" fill="#cd82be"/><path d="m281.45 481.9c11.01 16.619-2.46 44.92-30.07 63.199-27.61 18.28-58.91 19.631-69.92 3.011-10.99-16.61 2.46-44.9 30.08-63.181 27.61-18.289 58.91-19.639 69.91-3.029z" fill="#cd82be"/><path d="m186.49 363.91c33.63 0 60.9 25.48 60.9 56.9s-27.27 56.9-60.9 56.9-60.9-25.479-60.9-56.9c0-31.42 27.27-56.9 60.9-56.9z" fill="#cd82be"/><path d="m248.91 289.7c27.61 18.27 41.08 46.57 30.08 63.18-11.01 16.62-42.31 15.27-69.92-3.01-27.61-18.29-41.08-46.58-30.07-63.19 11-16.62 42.3-15.27 69.91 3.02z" fill="#cd82be"/><path d="m353.55 216.55c20.51 26.65 16.97 63.79-7.93 82.96-24.9 19.18-61.72 13.11-82.24-13.53-20.52-26.65-16.97-63.8 7.93-82.97 24.89-19.17 61.72-13.11 82.24 13.54z" fill="#cd82be"/><path d="m435.88 163.99c31.43 0 56.9 27.26 56.9 60.9 0 33.63-25.471 60.9-56.9 60.9-31.42 0-56.9-27.27-56.9-60.9 0-33.64 25.48-60.9 56.9-60.9z" fill="#cd82be"/><path d="m601.26 202.61c24.91 19.17 28.45 56.32 7.931 82.97-20.511 26.64-57.33 32.71-82.23 13.53-24.9-19.17-28.44-56.32-7.93-82.97 20.519-26.64 57.349-32.7 82.229-13.53z" fill="#cd82be"/><path d="m390.97 278.41c18.46 0 33.43 14.26 33.43 31.84s-14.97 31.84-33.43 31.84-33.43-14.26-33.43-31.84 14.97-31.84 33.43-31.84z" fill="#fff"/><path d="m319.9 319.08c18.47 0 33.43 14.26 33.43 31.84s-14.96 31.84-33.43 31.84c-18.46 0-33.42-14.26-33.42-31.84s14.96-31.84 33.42-31.84z" fill="#fff"/><path d="m286.74 394.77c18.46 0 33.43 14.25 33.43 31.84 0 17.58-14.97 31.84-33.43 31.84s-33.43-14.26-33.43-31.84c0-17.59 14.97-31.84 33.43-31.84z" fill="#fff"/><path d="m323.22 467.09c18.46 0 33.42 14.25 33.42 31.84 0 17.58-14.96 31.83-33.42 31.83-18.47 0-33.43-14.25-33.43-31.83 0-17.59 14.96-31.84 33.43-31.84z" fill="#fff"/><path d="m396.89 500.13c18.46 0 33.43 14.26 33.43 31.84s-14.97 31.84-33.43 31.84-33.43-14.26-33.43-31.84 14.97-31.84 33.43-31.84z" fill="#fff"/><path d="m471.13 498.55c18.46 0 33.42 14.25 33.42 31.84 0 17.58-14.96 31.841-33.42 31.841s-33.44-14.261-33.44-31.841c0-17.59 14.98-31.84 33.44-31.84z" fill="#fff"/><path d="m544.8 465.51c18.46 0 33.431 14.25 33.431 31.84 0 17.58-14.971 31.83-33.431 31.83-18.47 0-33.43-14.25-33.43-31.83 0-17.59 14.96-31.84 33.43-31.84z" fill="#fff"/><path d="m581.27 393.19c18.471 0 33.431 14.25 33.431 31.84 0 17.581-14.96 31.84-33.431 31.84-18.449 0-33.42-14.26-33.42-31.84 0-17.59 14.97-31.84 33.42-31.84z" fill="#fff"/><path d="m548.12 317.5c18.45 0 33.42 14.26 33.42 31.84s-14.97 31.84-33.42 31.84c-18.47 0-33.43-14.26-33.43-31.84s14.96-31.84 33.43-31.84z" fill="#fff"/><path d="m477.05 276.83c18.46 0 33.431 14.26 33.431 31.84s-14.971 31.84-33.431 31.84c-18.47 0-33.43-14.26-33.43-31.84s14.96-31.84 33.43-31.84z" fill="#fff"/><path d="m435.85 350.27c56.561 0 102.41 32.07 102.41 71.63s-45.85 71.64-102.41 71.64-102.41-32.08-102.41-71.64 45.85-71.63 102.41-71.63z" fill="#a800d4"/><g fill="none"><path d="m538.26 421.9c0 39.56-45.85 71.64-102.41 71.64s-102.41-32.08-102.41-71.64 45.85-71.63 102.41-71.63 102.41 32.07 102.41 71.63z" stroke="#231f20" stroke-width="21"/><path d="m424.4 310.25c0 17.58-14.97 31.84-33.43 31.84s-33.43-14.26-33.43-31.84 14.97-31.84 33.43-31.84 33.43 14.26 33.43 31.84z" stroke="#231f20" stroke-width="21"/><path d="m353.33 350.92c0 17.58-14.96 31.84-33.43 31.84-18.46 0-33.42-14.26-33.42-31.84s14.96-31.84 33.42-31.84c18.47 0 33.43 14.26 33.43 31.84z" stroke="#231f20" stroke-width="21"/><path d="m320.17 426.61c0 17.58-14.97 31.84-33.43 31.84s-33.43-14.26-33.43-31.84c0-17.59 14.97-31.84 33.43-31.84s33.43 14.25 33.43 31.84z" stroke="#231f20" stroke-width="21"/><path d="m356.64 498.93c0 17.58-14.96 31.83-33.42 31.83-18.47 0-33.43-14.25-33.43-31.83 0-17.59 14.96-31.84 33.43-31.84 18.46 0 33.42 14.25 33.42 31.84z" stroke="#231f20" stroke-width="21"/><path d="m430.32 531.97c0 17.58-14.97 31.84-33.43 31.84s-33.43-14.26-33.43-31.84 14.97-31.84 33.43-31.84 33.43 14.26 33.43 31.84z" stroke="#231f20" stroke-width="21"/><path d="m443.62 308.67c0 17.58 14.96 31.84 33.43 31.84 18.46 0 33.431-14.26 33.431-31.84s-14.971-31.84-33.431-31.84c-18.47 0-33.43 14.26-33.43 31.84z" stroke="#231f20" stroke-width="21"/><path d="m514.69 349.34c0 17.58 14.96 31.84 33.43 31.84 18.45 0 33.42-14.26 33.42-31.84s-14.97-31.84-33.42-31.84c-18.47 0-33.43 14.26-33.43 31.84z" stroke="#231f20" stroke-width="21"/><path d="m547.85 425.03c0 17.581 14.971 31.84 33.42 31.84 18.471 0 33.431-14.26 33.431-31.84 0-17.59-14.96-31.84-33.431-31.84-18.45 0-33.42 14.25-33.42 31.84z" stroke="#231f20" stroke-width="21"/><path d="m511.37 497.35c0 17.58 14.96 31.83 33.43 31.83 18.46 0 33.431-14.25 33.431-31.83 0-17.59-14.971-31.84-33.431-31.84-18.47 0-33.43 14.25-33.43 31.84z" stroke="#231f20" stroke-width="21"/><path d="m437.69 530.39c0 17.58 14.979 31.841 33.439 31.841s33.42-14.261 33.42-31.841c0-17.59-14.96-31.84-33.42-31.84s-33.439 14.25-33.439 31.84z" stroke="#231f20" stroke-width="21"/><path d="m492.78 224.89c0 33.63-25.471 60.9-56.9 60.9-31.42 0-56.9-27.27-56.9-60.9 0-33.64 25.48-60.9 56.9-60.9 31.43 0 56.9 27.26 56.9 60.9z" stroke="#231f20" stroke-width="21"/><path d="m609.19 285.58c-20.511 26.64-57.33 32.71-82.23 13.53-24.9-19.17-28.44-56.32-7.93-82.97 20.52-26.64 57.35-32.7 82.229-13.53 24.911 19.17 28.451 56.32 7.931 82.97z" stroke="#231f20" stroke-width="21"/><path d="m263.38 285.98c20.52 26.64 57.34 32.71 82.24 13.53 24.9-19.17 28.44-56.31 7.93-82.96-20.52-26.65-57.35-32.71-82.24-13.54-24.9 19.17-28.45 56.32-7.93 82.97z" stroke="#231f20" stroke-width="21"/><path d="m609.19 559.6c-20.511-26.649-57.33-32.71-82.23-13.54-24.9 19.171-28.44 56.32-7.93 82.971 20.52 26.64 57.35 32.71 82.229 13.54 24.911-19.181 28.451-56.321 7.931-82.971z" stroke="#231f20" stroke-width="21"/><path d="m263.38 559.19c20.52-26.641 57.34-32.7 82.24-13.53s28.44 56.32 7.93 82.96c-20.52 26.66-57.35 32.71-82.24 13.54-24.9-19.17-28.45-56.32-7.93-82.97z" stroke="#231f20" stroke-width="21"/><path d="m186.49 363.91c33.63 0 60.9 25.48 60.9 56.9s-27.27 56.9-60.9 56.9-60.9-25.479-60.9-56.9c0-31.42 27.27-56.9 60.9-56.9z" stroke="#231f20" stroke-width="21"/><path d="m685.28 363.91c33.63 0 60.899 25.48 60.899 56.9 0 31.43-27.27 56.9-60.899 56.9-33.641 0-60.9-25.47-60.9-56.9 0-31.42 27.26-56.9 60.9-56.9z" stroke="#231f20" stroke-width="21"/><path d="m492.78 625.02c0 33.631-25.471 60.9-56.9 60.9-31.42 0-56.9-27.27-56.9-60.9s25.48-60.899 56.9-60.899c31.43-.001 56.9 27.269 56.9 60.899z" stroke="#231f20" stroke-width="21"/><path d="m278.99 352.88c-11.01 16.62-42.31 15.27-69.92-3.01-27.61-18.29-41.08-46.58-30.07-63.19 11-16.62 42.3-15.27 69.91 3.02 27.61 18.27 41.08 46.57 30.08 63.18z" stroke="#231f20" stroke-width="21"/><path d="m696.35 288.32c-11-16.61-42.31-15.27-69.909 3.02-27.61 18.28-41.08 46.57-30.07 63.19 10.99 16.61 42.29 15.26 69.899-3.02 27.62-18.28 41.08-46.57 30.08-63.19z" stroke="#231f20" stroke-width="21"/><path d="m590.95 482.39c10.99-16.62 42.29-15.27 69.899 3.011 27.62 18.279 41.08 46.58 30.07 63.199-10.99 16.61-42.3 15.261-69.91-3.029-27.599-18.281-41.069-46.571-30.059-63.181z" stroke="#231f20" stroke-width="21"/><path d="m181.46 548.11c11.01 16.62 42.31 15.27 69.92-3.011 27.61-18.279 41.08-46.58 30.07-63.199-11-16.61-42.3-15.261-69.91 3.029-27.62 18.281-41.07 46.571-30.08 63.181z" stroke="#231f20" stroke-width="21"/><path d="m749.48 418.69h29.52" stroke="#231f20" stroke-linecap="round" stroke-linejoin="round" stroke-width="21"/><path d="m69.75 418.69h24.75 27.78" stroke="#231f20" stroke-width="21"/><path d="m94.5 397.99v20.7 24.07" stroke="#231f20" stroke-linecap="round" stroke-linejoin="round" stroke-width="21"/><path d="m0 0h850.394v850.394h-850.394z"/></g></svg>