<svg enable-background="new 0 0 850.394 850.394" height="850.394" viewBox="0 0 850.394 850.394" width="850.394" xmlns="http://www.w3.org/2000/svg"><path d="m452.98 521.85c6.029 40.341 42.38 238.82 41.029 240.53-2.91 3.71-11.609 9.38-23.08 15.021l-2.02-4.271-27.26-242.47-.301-1.7c5.162-.82 9.452-3.51 11.632-7.11z" fill="#f6cc4b"/><path d="m441.65 530.66 27.26 242.47 2.02 4.271c-16.899 8.31-39.84 16.55-59.18 18.35l-.23-2.53s10.09-233.97 13.28-263.989h13.181c1.159 0 2.279-.091 3.369-.271z" fill="#f6cc4b"/><path d="m401.47 529.23-46.63 248.21-.19.229c-12.28-9.71-19.82-21.68-17.03-31.79 5.75-20.81 45.92-200.149 45.92-220.96 0-.43 0-.87 0-1.31 2.98 3.39 8 5.62 13.71 5.62h4.22z" fill="#f6cc4b"/><path d="m401.47 529.23h23.33c-3.19 30.02-13.28 263.989-13.28 263.989l.23 2.53c-3.05.28-6.01.4-8.84.34-16.97-.359-35.27-8.13-48.26-18.42l.19-.229z" fill="#f6cc4b"/><path d="m399.34 447.89 3.11 47.61h-5.2c-5.82 0-10.93 2.32-13.89 5.83-.32-15.85-1.29-31.49-4.13-38.1-3.19-7.45 8.22-16.091 23.68-19.171v2.91z" fill="#f6cc4b"/><path d="m419.78 446.97v48.53h-17.33l-3.11-47.61 3.57-.92z" fill="#f6cc4b"/><path d="m437.34 444.57c18.99 4.6 20.09 17.22 20.09 17.22s-5.479 17.81-5.87 39.2c-2.989-3.32-7.96-5.49-13.579-5.49h-1.801l4.04-46.47-2.88-2.061z" fill="#f6cc4b"/><path d="m440.22 449.03-4.04 46.47h-16.4v-48.53h17.56z" fill="#f6cc4b"/><path d="m454.56 508.35v8.03c0 1.96-.569 3.811-1.579 5.47-.25-1.64-.44-3.02-.58-4.109-.721-5.66-.95-11.32-.841-16.75 1.89 2.079 3 4.619 3 7.359z" fill="#231f20"/><path d="m436.18 495.5h1.801c5.619 0 10.59 2.17 13.579 5.49-.109 5.43.12 11.09.841 16.75.14 1.09.33 2.47.58 4.109-2.181 3.601-6.471 6.29-11.631 7.11-1.09.18-2.21.271-3.369.271h-13.181-23.33-4.22c-5.71 0-10.73-2.23-13.71-5.62 0-6.801-.01-14.561-.18-22.28 2.96-3.51 8.07-5.83 13.89-5.83h5.2 17.33z" fill="#231f20"/><path d="m437.34 71.06v373.51c-2.729-.66-5.82-1.16-9.33-1.431h-7.89c-5.93-.56-11.82-.159-17.21.92v-373c0-9.51 7.71-17.22 17.22-17.22 4.75 0 9.061 1.93 12.17 5.04 3.12 3.121 5.04 7.421 5.04 12.181z" fill="#9e5c26"/><path d="m420.12 443.14h7.89c3.51.271 6.601.771 9.33 1.431v2.399h-17.56-16.87v-2.91c5.39-1.08 11.28-1.48 17.21-.92z" fill="#fff"/><path d="m383.36 501.33c.17 7.72.18 15.479.18 22.28-1.82-2.061-2.87-4.551-2.87-7.23v-8.03c0-2.59.99-5.01 2.69-7.02z" fill="#231f20"/><g fill="none"><path d="m402.91 446.97v-2.91-373c0-9.51 7.71-17.22 17.22-17.22 4.75 0 9.061 1.93 12.17 5.04 3.12 3.12 5.04 7.42 5.04 12.18v373.51 2.399" stroke="#231f20" stroke-width="14"/><path d="m451.56 500.99c.391-21.391 5.87-39.2 5.87-39.2s-1.1-12.62-20.09-17.22c-2.729-.66-5.82-1.16-9.33-1.431h-7.89c-5.93-.56-11.82-.159-17.21.92-15.46 3.08-26.87 11.721-23.68 19.171 2.84 6.609 3.81 22.25 4.13 38.1" stroke="#231f20" stroke-width="14"/><path d="m383.54 523.61v1.31c0 20.811-40.17 200.15-45.92 220.96-2.79 10.11 4.75 22.08 17.03 31.79 12.99 10.29 31.29 18.061 48.26 18.42 2.83.061 5.79-.06 8.84-.34 19.34-1.8 42.28-10.04 59.18-18.35 11.471-5.641 20.17-11.311 23.08-15.021 1.351-1.71-35-200.189-41.029-240.53" stroke="#231f20" stroke-width="14"/><path d="m451.56 500.99c1.891 2.08 3 4.62 3 7.359v8.03c0 1.96-.569 3.811-1.579 5.47-2.181 3.601-6.471 6.29-11.631 7.11-1.09.18-2.21.271-3.369.271h-13.181-23.33-4.22c-5.71 0-10.73-2.23-13.71-5.62-1.82-2.061-2.87-4.551-2.87-7.23v-8.03c0-2.59.99-5.01 2.69-7.02 2.96-3.51 8.07-5.83 13.89-5.83h5.2 17.33 16.4 1.801c5.619 0 10.589 2.17 13.579 5.49z" stroke="#231f20" stroke-width="7"/><path d="m401.61 528.51-.14.72-46.63 248.21" stroke="#231f20" stroke-width="7"/><path d="m412.23 531.38-28.69 256.1" stroke="#231f20" stroke-width="7"/><path d="m425.46 526.25c-.16-.63-.38.45-.66 2.98-3.19 30.02-13.28 263.989-13.28 263.989" stroke="#231f20" stroke-width="7"/><path d="m433.76 532.09c-.72 2.87 10.04 248.94 10.04 248.94" stroke="#231f20" stroke-width="7"/><path d="m441.65 530.66 27.26 242.47" stroke="#231f20" stroke-width="7"/><path d="m399.34 447.89 3.11 47.61.3 4.62" stroke="#231f20" stroke-width="7"/><path d="m419.78 445.62v1.35 48.53 8.03" stroke="#231f20" stroke-width="7"/><path d="m440.22 449.03-4.04 46.47-.5 5.76" stroke="#231f20" stroke-width="7"/><path d="m0 0h850.394v850.394h-850.394z"/></g></svg>