<svg enable-background="new 0 0 850.394 850.394" height="850.394" viewBox="0 0 850.394 850.394" width="850.394" xmlns="http://www.w3.org/2000/svg"><path d="m763.664 184.233h.04v227.187c0 25.778-35.825 46.682-80.007 46.682-44.188 0-80.006-20.903-80.006-46.682h-.007v-227.187s-2.348-32.171 28.238-43.153c0 0 6.3-2.633 16.175-4.417h1.963v10.021l-1.067.265c4.821 8.456 18.304 14.543 34.187 14.543 14.637 0 27.237-5.166 32.895-12.594l-.803-.756v-11.738h1.87c10.419 1.777 17.13 4.583 17.13 4.583 28.762 10.326 29.418 39.764 29.392 43.246zm-30.194 192.774v-180.385s-20.817 12.906-52.743 12.906c-31.933 0-52.04-12.906-52.04-12.906v180.386s18.218 17.243 51.729 17.243c33.516-.001 53.054-17.244 53.054-17.244z" fill="#33a048"/><path d="m733.47 196.622v180.386s-19.538 17.243-53.055 17.243c-33.511 0-51.729-17.243-51.729-17.243v-180.386s20.107 12.906 52.04 12.906c31.926-.001 52.744-12.906 52.744-12.906z" fill="#fbee34"/><path d="m715.271 148.143.803.756c-5.657 7.428-18.258 12.594-32.895 12.594-15.883 0-29.365-6.088-34.187-14.543l1.067-.265v-10.021-52.618c0-1.293.226-2.553.663-3.767l1.777.013c0 5.259 13.734 9.523 30.679 9.523s30.68-4.264 30.68-9.523l.576-.471c.544 1.359.836 2.772.836 4.225v52.358 11.739z" fill="#fbee34"/><path d="m714.436 79.822-.576.471c0 5.259-13.735 9.523-30.68 9.523s-30.679-4.264-30.679-9.523l-1.777-.013c3.038-8.522 16.182-14.935 31.939-14.935 15.479 0 28.438 6.187 31.773 14.477z" fill="#fbee34"/><path d="m650.061 146.684v-10.021-52.617c0-1.293.226-2.553.663-3.767 3.038-8.522 16.182-14.935 31.939-14.935 15.479 0 28.438 6.188 31.772 14.477.544 1.359.836 2.772.836 4.225v52.358 11.738" fill="none" stroke="#000" stroke-width="10.3984"/><path d="m713.859 80.292c0 5.259-13.735 9.523-30.68 9.523s-30.679-4.264-30.679-9.523" fill="none" stroke="#000" stroke-width="10.3984"/><path d="m719.264 140.085c0 3.137-1.141 6.121-3.189 8.813-5.657 7.428-18.258 12.594-32.895 12.594-15.883 0-29.365-6.088-34.187-14.543-1.227-2.155-1.896-4.463-1.896-6.864" fill="none" stroke="#000" stroke-width="10.3984"/><path d="m763.704 415.433v-4.013-227.187" fill="none" stroke="#000" stroke-width="10.3984"/><path d="m648.098 136.663c-9.875 1.784-16.175 4.417-16.175 4.417-30.586 10.982-28.238 43.153-28.238 43.153v227.187 3.15" fill="none" stroke="#000" stroke-width="10.3984"/><path d="m763.657 184.572s.007-.113.007-.338c.026-3.482-.63-32.92-29.393-43.246 0 0-6.711-2.805-17.13-4.583" fill="none" stroke="#000" stroke-width="10.3984"/><path d="m763.704 411.42c0 25.778-35.825 46.682-80.007 46.682-44.188 0-80.006-20.903-80.006-46.682" fill="none" stroke="#000" stroke-width="10.3984"/><path d="m628.687 196.622s20.107 12.906 52.04 12.906c31.926 0 52.743-12.906 52.743-12.906v180.386s-19.538 17.243-53.055 17.243c-33.511 0-51.729-17.243-51.729-17.243v-180.386z" fill="none" stroke="#000" stroke-width="10.3984"/><path d="m0 0h850.394v850.394h-850.394z" fill="none"/><path d="m719.117 275.142c6.753 4.313 8.969 12.865 4.952 19.1-3.994 6.21-12.691 7.764-19.421 3.424-6.754-4.311-8.972-12.862-4.955-19.1 3.995-6.235 12.695-7.764 19.424-3.424z" fill="#a3d9ff"/><path d="m710.686 235.655c6.731 4.338 8.947 12.893 4.953 19.103-3.992 6.235-12.717 7.764-19.443 3.451-6.731-4.34-8.947-12.89-4.955-19.105 3.993-6.233 12.692-7.762 19.445-3.449z" fill="#a3d9ff"/><path d="m681.431 263.68c4.165 2.688 5.521 7.984 3.056 11.83s-7.836 4.785-12.003 2.12c-4.167-2.685-5.546-7.964-3.08-11.805 2.464-3.847 7.862-4.808 12.027-2.145z" fill="#a3d9ff"/><path d="m666.826 290.198c2.555 2.552 4.153 6.23 4.153 10.328 0 4.34-1.794 8.211-4.615 10.768-.155.144-.315.279-.479.415-.326.267-.662.516-1.013.751-.872.581-1.813 1.05-2.807 1.391-1.193.405-2.463.625-3.779.625-1.458 0-2.86-.271-4.167-.771-.064-.025-.129-.049-.193-.077-.108-.044-.22-.089-.328-.138-.027-.01-.055-.022-.084-.037-.106-.047-.213-.097-.318-.146-.216-.104-.431-.215-.641-.333-.081-.044-.163-.091-.244-.138-.064-.04-.129-.077-.192-.116-.084-.049-.166-.101-.247-.156-.055-.037-.111-.071-.166-.111-.113-.072-.225-.151-.333-.23-.119-.084-.235-.17-.349-.259-.037-.027-.074-.057-.111-.086-.047-.037-.096-.074-.143-.114l-1.208-.615c.714-1.554 1.108-3.426 1.108-5.447 0-3.271-1.094-6.166-2.744-7.88-.205-.215-.423-.41-.645-.585-.371-.294-.764-.531-1.171-.704.691-2.512 2.008-4.73 3.752-6.433.623-.607 1.302-1.148 2.023-1.615.217-.139.438-.272.662-.398.452-.252.916-.474 1.393-.667.24-.094.482-.183.729-.264 1.146-.373 2.358-.576 3.616-.576.877 0 1.734.096 2.562.282.207.047.41.099.615.156.911.259 1.786.625 2.606 1.084.091.052.183.104.271.158.902.535 1.737 1.187 2.487 1.938z" fill="#a3d9ff"/><path d="m664.342 288.259c.901.536 1.734 1.188 2.484 1.939-.75-.751-1.585-1.403-2.484-1.939z" fill="#a3d9ff"/><path d="m661.464 287.017c.911.257 1.786.622 2.606 1.084-.82-.46-1.695-.825-2.606-1.084z" fill="#a3d9ff"/><path d="m660.849 286.861c.207.044.41.096.615.156-.205-.058-.408-.109-.615-.156z" fill="#a3d9ff"/><path d="m658.287 286.577c.877 0 1.734.096 2.562.284-.827-.186-1.685-.282-2.562-.282-1.258 0-2.471.203-3.616.576 1.145-.376 2.358-.578 3.616-.578z" fill="#a3d9ff"/><path d="m653.941 287.419c.24-.096.482-.185.729-.264-.246.081-.488.17-.729.264z" fill="#a3d9ff"/><path d="m651.887 288.484c.217-.141.438-.274.662-.398-.225.126-.445.259-.662.398z" fill="#a3d9ff"/><path d="m649.863 290.099c.623-.607 1.302-1.151 2.023-1.615-.721.467-1.4 1.008-2.023 1.615z" fill="#a3d9ff"/><g fill="none"><path d="m653.941 287.419c.24-.096.482-.185.729-.264 1.146-.375 2.358-.578 3.616-.578.877 0 1.734.096 2.562.284" stroke="#000" stroke-linecap="square" stroke-miterlimit="10" stroke-width="4.2932"/><path d="m649.863 290.099c.623-.607 1.302-1.151 2.023-1.615.217-.141.438-.274.662-.398" stroke="#000" stroke-linecap="square" stroke-miterlimit="10" stroke-width="4.2932"/><path d="m647.927 297.821c-.205-.215-.423-.41-.645-.585-.371-.294-.764-.531-1.171-.704" stroke="#000" stroke-linecap="square" stroke-miterlimit="10" stroke-width="4.2932"/><path d="m650.913 311.877c-.047-.037-.096-.074-.143-.114l-1.208-.615" stroke="#000" stroke-linecap="square" stroke-miterlimit="10" stroke-width="4.2932"/><path d="m651.706 312.453c-.113-.072-.225-.151-.333-.23-.119-.084-.235-.17-.349-.259" stroke="#000" stroke-linecap="square" stroke-miterlimit="10" stroke-width="4.2932"/><path d="m652.119 312.719c-.084-.049-.166-.101-.247-.156" stroke="#000" stroke-linecap="square" stroke-miterlimit="10" stroke-width="4.2932"/><path d="m652.556 312.974c-.081-.044-.163-.091-.244-.138" stroke="#000" stroke-linecap="square" stroke-miterlimit="10" stroke-width="4.2932"/><path d="m653.515 313.453c-.106-.047-.213-.097-.318-.146" stroke="#000" stroke-linecap="square" stroke-miterlimit="10" stroke-width="4.2932"/><path d="m653.927 313.628c-.108-.044-.22-.089-.328-.138" stroke="#000" stroke-linecap="square" stroke-miterlimit="10" stroke-width="4.2932"/><path d="m664.873 312.46c-.872.581-1.813 1.05-2.807 1.391-1.193.405-2.463.625-3.779.625-1.458 0-2.86-.271-4.167-.771" stroke="#000" stroke-linecap="square" stroke-miterlimit="10" stroke-width="4.2932"/><path d="m666.364 311.294c-.155.144-.315.279-.479.415" stroke="#000" stroke-linecap="square" stroke-miterlimit="10" stroke-width="4.2932"/><path d="m664.342 288.259c.901.536 1.734 1.188 2.484 1.939" stroke="#000" stroke-linecap="square" stroke-miterlimit="10" stroke-width="4.2932"/><path d="m661.464 287.017c.911.257 1.786.622 2.606 1.084" stroke="#000" stroke-linecap="square" stroke-miterlimit="10" stroke-width="4.2932"/><path d="m645.066 296.216c.215.034.425.086.632.155" stroke="#000" stroke-linecap="square" stroke-miterlimit="10" stroke-width="4.2932"/><path d="m641.685 314.303c-.092-.067-.183-.138-.271-.21-.089-.074-.179-.151-.263-.229" stroke="#000" stroke-linecap="square" stroke-miterlimit="10" stroke-width="4.2932"/><path d="m646.134 314.874c-.184.079-.368.146-.559.203-.378.108-.769.165-1.164.165-.706 0-1.386-.175-2.018-.499-.099-.052-.195-.104-.289-.161-.097-.057-.19-.119-.281-.181" stroke="#000" stroke-linecap="square" stroke-miterlimit="10" stroke-width="4.2932"/><path d="m647.188 314.251c-.168.126-.339.242-.517.346-.116.069-.234.133-.355.193" stroke="#000" stroke-linecap="square" stroke-miterlimit="10" stroke-width="4.2932"/><path d="m627.009 309.33c.099.022.148.022.223.044.024.025.049.025.073.025" stroke="#000" stroke-width="3.2198"/><path d="m646.111 296.534c.407.173.8.41 1.171.702.222.175.438.371.645.585 1.65 1.714 2.744 4.609 2.744 7.88 0 2.021-.395 3.893-1.108 5.447-.604 1.309-1.421 2.384-2.374 3.103-.168.126-.339.242-.517.346-.116.072-.234.136-.355.193-.062.029-.121.059-.183.084-.184.082-.368.148-.559.203-.378.111-.769.168-1.164.168-.706 0-1.386-.176-2.018-.501-.099-.05-.195-.104-.289-.161-.097-.057-.19-.116-.281-.181-.048-.032-.095-.064-.139-.099-.092-.067-.183-.136-.271-.21-.089-.072-.179-.148-.263-.229-1.815-1.672-3.025-4.699-3.025-8.162 0-5.249 2.811-9.538 6.286-9.538.223 0 .44.018.655.052s.425.086.632.155c.139.047.278.102.413.163z" stroke="#000" stroke-linecap="square" stroke-miterlimit="10" stroke-width="4.2932"/><path d="m644.411 315.244v35.416" stroke="#000" stroke-linecap="square" stroke-miterlimit="10" stroke-width="4.2932"/><path d="m646.111 296.559v-.025-.002c.691-2.512 2.008-4.73 3.752-6.433.623-.607 1.302-1.148 2.023-1.615.217-.139.438-.272.662-.398.452-.252.916-.474 1.393-.667.24-.094.482-.183.729-.264 1.146-.373 2.358-.576 3.616-.576.877 0 1.734.096 2.562.282.207.047.41.099.615.156.911.259 1.786.625 2.606 1.084.091.052.183.104.271.158.899.536 1.734 1.188 2.484 1.939 2.555 2.552 4.153 6.23 4.153 10.328 0 4.34-1.794 8.211-4.615 10.768-.155.144-.315.282-.479.415-.326.267-.662.516-1.013.751-.872.583-1.813 1.052-2.807 1.391-1.193.408-2.463.627-3.779.627-1.458 0-2.863-.271-4.167-.773-.064-.025-.129-.049-.193-.077-.111-.042-.22-.089-.328-.138-.027-.01-.055-.022-.084-.037-.106-.044-.213-.094-.318-.146-.216-.104-.431-.215-.641-.333-.081-.044-.163-.091-.244-.138-.064-.04-.129-.077-.192-.116-.084-.049-.166-.101-.247-.156-.055-.037-.111-.071-.166-.111-.111-.072-.222-.148-.333-.23-.119-.082-.235-.168-.349-.259-.037-.027-.074-.057-.111-.086-.049-.035-.096-.074-.143-.111" stroke="#000" stroke-linecap="square" stroke-miterlimit="10" stroke-width="4.2932"/><path d="m710.686 235.655c6.731 4.338 8.947 12.893 4.953 19.103-3.992 6.235-12.717 7.764-19.443 3.451-6.731-4.34-8.947-12.89-4.955-19.105 3.993-6.233 12.692-7.762 19.445-3.449z" stroke="#000" stroke-width="4.2932"/><path d="m719.117 275.142c6.753 4.313 8.969 12.865 4.952 19.1-3.994 6.21-12.691 7.764-19.421 3.424-6.754-4.311-8.972-12.862-4.955-19.1 3.995-6.235 12.695-7.764 19.424-3.424z" stroke="#000" stroke-width="4.2932"/><path d="m681.431 263.68c4.165 2.688 5.521 7.984 3.056 11.83s-7.836 4.785-12.003 2.12c-4.167-2.685-5.546-7.964-3.08-11.805 2.464-3.847 7.862-4.808 12.027-2.145z" stroke="#000" stroke-width="4.2932"/><path d="m339.344 83.259c27.213 11.549 47.481 50.053 47.481 95.451 0 21.065-4.116 40.562-11.549 56.715-11.806 25.669-31.585 42.62-53.628 42.62-36.189 0-65.46-44.395-65.46-99.334 0-54.657 29.271-99.309 65.46-99.309 6.147-.001 12.038 1.285 17.696 3.857z" stroke="#000" stroke-linecap="square" stroke-miterlimit="10" stroke-width="21"/><path d="m321.648 278.044v368.787" stroke="#000" stroke-linecap="square" stroke-miterlimit="10" stroke-width="21"/><circle cx="321.706" cy="706.176" r="47.824" stroke="#000" stroke-linecap="square" stroke-miterlimit="10" stroke-width="28"/><path d="m0 0h850.394v850.394h-850.394z"/></g></svg>