<svg enable-background="new 0 0 850.394 850.394" height="850.394" viewBox="0 0 850.394 850.394" width="850.394" xmlns="http://www.w3.org/2000/svg"><path d="m348.393 214.245c8.798 15.429 33.399 26.537 62.381 26.537 26.707 0 49.699-9.426 60.021-22.979l-1.465-1.38v-21.418h3.413c19.01 3.243 31.257 8.362 31.257 8.362 52.481 18.841 53.68 72.558 53.631 78.911h.073v414.544c0 47.036-65.37 85.179-145.987 85.179-80.629 0-145.986-38.143-145.986-85.179h-.012v-414.545s-4.284-58.702 51.526-78.741c0 0 11.496-4.804 29.515-8.06h3.582v18.285zm154.142 419.783v-329.147s-37.984 23.549-96.239 23.549c-58.266 0-94.957-23.549-94.957-23.549v329.147s33.242 31.463 94.388 31.463c61.159 0 96.808-31.463 96.808-31.463z" fill="#33a048"/><path d="m502.535 304.881v329.147s-35.649 31.463-96.808 31.463c-61.146 0-94.388-31.463-94.388-31.463v-329.147s36.69 23.549 94.957 23.549c58.255 0 96.239-23.549 96.239-23.549z" fill="#fbee34"/><path d="m469.33 216.423 1.465 1.38c-10.322 13.553-33.314 22.979-60.021 22.979-28.982 0-53.583-11.108-62.381-26.537l1.948-.484v-18.285-96.009c0-2.359.412-4.659 1.21-6.873l3.243.024c0 9.596 25.061 17.377 55.979 17.377s55.979-7.781 55.979-17.377l1.053-.859c.992 2.481 1.524 5.059 1.524 7.708v95.538 21.418z" fill="#fbee34"/><path d="m467.806 91.758-1.053.859c0 9.596-25.062 17.377-55.979 17.377s-55.979-7.781-55.979-17.377l-3.243-.024c5.542-15.55 29.526-27.251 58.278-27.251 28.243 0 51.889 11.29 57.976 26.416z" fill="#fbee34"/><path d="m350.341 213.761v-18.285-96.009c0-2.359.412-4.659 1.21-6.873 5.542-15.55 29.526-27.251 58.278-27.251 28.244 0 51.889 11.29 57.976 26.416.992 2.481 1.524 5.059 1.524 7.708v95.538 21.418" fill="none" stroke="#000" stroke-width="18.9738"/><path d="m466.753 92.618c0 9.596-25.062 17.377-55.979 17.377s-55.979-7.781-55.979-17.377" fill="none" stroke="#000" stroke-width="18.9738"/><path d="m476.615 201.72c0 5.724-2.082 11.169-5.82 16.083-10.322 13.553-33.314 22.979-60.021 22.979-28.982 0-53.583-11.108-62.381-26.537-2.238-3.933-3.46-8.144-3.46-12.525" fill="none" stroke="#000" stroke-width="18.9738"/><path d="m557.704 704.142v-7.321-414.544" fill="none" stroke="#000" stroke-width="18.9738"/><path d="m346.759 195.476c-18.019 3.255-29.515 8.06-29.515 8.06-55.81 20.039-51.526 78.741-51.526 78.741v414.544 5.747" fill="none" stroke="#000" stroke-width="18.9738"/><path d="m557.619 282.894s.012-.206.012-.617c.049-6.353-1.149-60.069-53.631-78.911 0 0-12.247-5.119-31.257-8.362" fill="none" stroke="#000" stroke-width="18.9738"/><path d="m557.704 696.821c0 47.036-65.37 85.179-145.987 85.179-80.629 0-145.986-38.143-145.986-85.179" fill="none" stroke="#000" stroke-width="18.9738"/><path d="m311.339 304.881s36.69 23.549 94.957 23.549c58.255 0 96.239-23.549 96.239-23.549v329.147s-35.649 31.463-96.808 31.463c-61.146 0-94.388-31.463-94.388-31.463z" fill="none" stroke="#000" stroke-width="18.9738"/><path d="m0 0h850.394v850.394h-850.394z" fill="none"/><path d="m476.347 448.156c12.323 7.87 16.366 23.475 9.037 34.852-7.288 11.331-23.159 14.166-35.438 6.247-12.323-7.865-16.37-23.471-9.041-34.852 7.288-11.377 23.163-14.167 35.442-6.247z" fill="#a3d9ff"/><path d="m460.963 376.105c12.283 7.915 16.326 23.524 9.037 34.855-7.284 11.377-23.204 14.167-35.478 6.297-12.283-7.919-16.326-23.52-9.042-34.86 7.289-11.372 23.16-14.162 35.483-6.292z" fill="#a3d9ff"/><path d="m407.582 427.241c7.6 4.904 10.074 14.568 5.576 21.586-4.499 7.019-14.298 8.731-21.902 3.868-7.604-4.9-10.119-14.532-5.621-21.541 4.498-7.018 14.347-8.772 21.947-3.913z" fill="#a3d9ff"/><path d="m380.934 475.629c4.661 4.656 7.577 11.367 7.577 18.846 0 7.919-3.272 14.982-8.419 19.647-.284.262-.577.51-.875.758-.595.486-1.208.941-1.848 1.37-1.591 1.059-3.309 1.915-5.121 2.537-2.177.739-4.494 1.141-6.896 1.141-2.659 0-5.219-.496-7.604-1.406-.117-.045-.234-.09-.352-.14-.198-.081-.401-.162-.599-.253-.05-.018-.099-.04-.153-.067-.194-.086-.388-.176-.582-.266-.392-.189-.784-.393-1.167-.608-.149-.081-.297-.167-.446-.253-.117-.072-.234-.14-.352-.212-.153-.09-.302-.185-.451-.283-.099-.068-.203-.131-.302-.203-.208-.131-.411-.275-.609-.419-.216-.153-.428-.312-.635-.474-.068-.05-.135-.104-.203-.158-.085-.067-.176-.135-.261-.207l-2.204-1.122c1.303-2.835 2.024-6.252 2.024-9.939 0-5.968-1.997-11.25-5.008-14.378-.374-.393-.771-.749-1.177-1.068-.676-.537-1.393-.97-2.136-1.285 1.262-4.584 3.665-8.632 6.847-11.737 1.136-1.108 2.375-2.096 3.691-2.947.397-.253.798-.496 1.208-.726.825-.46 1.672-.866 2.542-1.218.437-.171.879-.333 1.33-.482 2.091-.681 4.305-1.05 6.599-1.05 1.601 0 3.165.176 4.674.514.379.086.749.181 1.123.284 1.663.474 3.259 1.141 4.755 1.979.167.095.333.189.496.289 1.64.975 3.163 2.166 4.534 3.536z" fill="#a3d9ff"/><path d="m376.399 472.091c1.646.978 3.164 2.168 4.535 3.538-1.371-1.37-2.894-2.561-4.535-3.538z" fill="#a3d9ff"/><path d="m371.148 469.823c1.663.469 3.259 1.136 4.755 1.979-1.496-.838-3.092-1.505-4.755-1.979z" fill="#a3d9ff"/><path d="m370.025 469.539c.379.081.749.176 1.123.284-.374-.103-.744-.198-1.123-.284z" fill="#a3d9ff"/><path d="m365.351 469.021c1.601 0 3.165.176 4.674.519-1.51-.338-3.074-.514-4.674-.514-2.294 0-4.507.369-6.599 1.05 2.092-.685 4.305-1.055 6.599-1.055z" fill="#a3d9ff"/><path d="m357.423 470.558c.437-.176.879-.338 1.33-.482-.451.149-.893.311-1.33.482z" fill="#a3d9ff"/><path d="m353.672 472.501c.397-.257.798-.501 1.208-.726-.41.23-.811.473-1.208.726z" fill="#a3d9ff"/><path d="m349.981 475.448c1.136-1.108 2.375-2.101 3.691-2.947-1.316.852-2.555 1.839-3.691 2.947z" fill="#a3d9ff"/><g fill="none"><path d="m357.423 470.558c.437-.176.879-.338 1.33-.482 2.091-.685 4.305-1.055 6.599-1.055 1.601 0 3.165.176 4.674.519" stroke="#000" stroke-linecap="square" stroke-miterlimit="10" stroke-width="7.8337"/><path d="m349.981 475.448c1.136-1.108 2.375-2.101 3.691-2.947.397-.257.798-.501 1.208-.726" stroke="#000" stroke-linecap="square" stroke-miterlimit="10" stroke-width="7.8337"/><path d="m346.447 489.539c-.374-.393-.771-.749-1.177-1.068-.676-.537-1.393-.97-2.136-1.285" stroke="#000" stroke-linecap="square" stroke-miterlimit="10" stroke-width="7.8337"/><path d="m351.896 515.186c-.085-.067-.176-.135-.261-.207l-2.204-1.122" stroke="#000" stroke-linecap="square" stroke-miterlimit="10" stroke-width="7.8337"/><path d="m353.344 516.236c-.208-.131-.411-.275-.609-.419-.216-.153-.428-.312-.635-.474" stroke="#000" stroke-linecap="square" stroke-miterlimit="10" stroke-width="7.8337"/><path d="m354.096 516.723c-.153-.09-.302-.185-.451-.283" stroke="#000" stroke-linecap="square" stroke-miterlimit="10" stroke-width="7.8337"/><path d="m354.894 517.188c-.149-.081-.297-.167-.446-.253" stroke="#000" stroke-linecap="square" stroke-miterlimit="10" stroke-width="7.8337"/><path d="m356.643 518.062c-.194-.086-.388-.176-.582-.266" stroke="#000" stroke-linecap="square" stroke-miterlimit="10" stroke-width="7.8337"/><path d="m357.396 518.382c-.198-.081-.401-.162-.599-.253" stroke="#000" stroke-linecap="square" stroke-miterlimit="10" stroke-width="7.8337"/><path d="m377.368 516.25c-1.591 1.059-3.309 1.915-5.121 2.537-2.177.739-4.494 1.141-6.896 1.141-2.659 0-5.219-.496-7.604-1.406" stroke="#000" stroke-linecap="square" stroke-miterlimit="10" stroke-width="7.8337"/><path d="m380.091 514.122c-.284.262-.577.51-.875.758" stroke="#000" stroke-linecap="square" stroke-miterlimit="10" stroke-width="7.8337"/><path d="m376.399 472.091c1.646.978 3.164 2.168 4.535 3.538" stroke="#000" stroke-linecap="square" stroke-miterlimit="10" stroke-width="7.8337"/><path d="m371.148 469.823c1.663.469 3.259 1.136 4.755 1.979" stroke="#000" stroke-linecap="square" stroke-miterlimit="10" stroke-width="7.8337"/><path d="m341.228 486.608c.392.063.775.158 1.154.284" stroke="#000" stroke-linecap="square" stroke-miterlimit="10" stroke-width="7.8337"/><path d="m335.057 519.612c-.167-.122-.334-.253-.496-.383-.162-.136-.325-.275-.478-.42" stroke="#000" stroke-linecap="square" stroke-miterlimit="10" stroke-width="7.8337"/><path d="m343.175 520.653c-.333.145-.672.266-1.019.37-.69.198-1.402.302-2.123.302-1.289 0-2.529-.32-3.683-.91-.18-.095-.356-.189-.527-.294-.176-.104-.347-.216-.514-.328" stroke="#000" stroke-linecap="square" stroke-miterlimit="10" stroke-width="7.8337"/><path d="m345.1 519.518c-.307.229-.618.441-.942.631-.212.126-.428.243-.649.352" stroke="#000" stroke-linecap="square" stroke-miterlimit="10" stroke-width="7.8337"/><path d="m308.278 510.539c.18.04.271.04.406.081.045.045.09.045.135.045" stroke="#000" stroke-width="5.8752"/><path d="m343.134 487.19c.744.315 1.46.748 2.136 1.28.406.319.798.676 1.177 1.068 3.011 3.128 5.008 8.41 5.008 14.378 0 3.688-.721 7.104-2.024 9.939-1.1 2.389-2.592 4.35-4.332 5.661-.307.229-.618.441-.942.631-.212.131-.428.248-.649.352-.113.055-.221.108-.333.153-.333.148-.672.271-1.019.37-.69.202-1.402.306-2.123.306-1.289 0-2.529-.319-3.683-.914-.18-.091-.356-.189-.527-.294-.176-.104-.347-.211-.514-.328-.085-.059-.171-.117-.252-.181-.167-.122-.334-.248-.496-.383-.162-.131-.325-.271-.478-.42-3.313-3.051-5.522-8.573-5.522-14.893 0-9.578 5.129-17.402 11.472-17.402.406 0 .802.031 1.194.094s.775.158 1.154.284c.253.088.505.186.753.299z" stroke="#000" stroke-linecap="square" stroke-miterlimit="10" stroke-width="7.8337"/><path d="m340.033 521.329v64.623" stroke="#000" stroke-linecap="square" stroke-miterlimit="10" stroke-width="7.8337"/><path d="m343.134 487.235v-.045-.005c1.262-4.584 3.665-8.632 6.847-11.737 1.136-1.108 2.375-2.096 3.691-2.947.397-.253.798-.496 1.208-.726.825-.46 1.672-.866 2.542-1.218.437-.171.879-.333 1.33-.482 2.091-.681 4.305-1.05 6.599-1.05 1.601 0 3.165.176 4.674.514.379.086.749.181 1.123.284 1.663.474 3.259 1.141 4.755 1.979.167.095.333.189.496.289 1.641.978 3.164 2.168 4.535 3.538 4.661 4.656 7.577 11.367 7.577 18.846 0 7.919-3.272 14.982-8.419 19.647-.284.262-.577.514-.875.758-.595.486-1.208.941-1.848 1.37-1.591 1.063-3.309 1.92-5.121 2.537-2.177.744-4.494 1.146-6.896 1.146-2.659 0-5.224-.496-7.604-1.411-.117-.045-.234-.09-.352-.14-.203-.077-.401-.162-.599-.253-.05-.018-.099-.04-.153-.067-.194-.081-.388-.171-.582-.266-.392-.189-.784-.393-1.167-.608-.149-.081-.297-.167-.446-.253-.117-.072-.234-.14-.352-.212-.153-.09-.302-.185-.451-.283-.099-.068-.203-.131-.302-.203-.203-.131-.406-.271-.609-.419-.216-.149-.428-.307-.635-.474-.068-.05-.135-.104-.203-.158-.09-.063-.176-.135-.261-.202" stroke="#000" stroke-linecap="square" stroke-miterlimit="10" stroke-width="7.8337"/><path d="m460.963 376.105c12.283 7.915 16.326 23.524 9.037 34.855-7.284 11.377-23.204 14.167-35.478 6.297-12.283-7.919-16.326-23.52-9.042-34.86 7.289-11.372 23.16-14.162 35.483-6.292z" stroke="#000" stroke-width="7.8337"/><path d="m476.347 448.156c12.323 7.87 16.366 23.475 9.037 34.852-7.288 11.331-23.159 14.166-35.438 6.247-12.323-7.865-16.37-23.471-9.041-34.852 7.288-11.377 23.163-14.167 35.442-6.247z" stroke="#000" stroke-width="7.8337"/><path d="m407.582 427.241c7.6 4.904 10.074 14.568 5.576 21.586-4.499 7.019-14.298 8.731-21.902 3.868-7.604-4.9-10.119-14.532-5.621-21.541 4.498-7.018 14.347-8.772 21.947-3.913z" stroke="#000" stroke-width="7.8337"/></g></svg>