<svg enable-background="new 0 0 850.394 850.394" height="850.394" viewBox="0 0 850.394 850.394" width="850.394" xmlns="http://www.w3.org/2000/svg"><path d="m513.45 767.31-181.83-3.279c3.94-18 7.36-39.511 10.22-61.141l158.12-20.359c3.45 29.399 7.97 60.609 13.49 84.779z" fill="#ffffc2"/><path d="m499.96 682.53-158.12 20.36c1.45-10.989 2.76-22.01 3.93-32.609l150.77-19.431c.99 10 2.13 20.71 3.42 31.68z" fill="#faa41f"/><path d="m382.15 555.12c13.11-1.69 37.38-1.78 40.11-1.79 3.66.01 29.101.15 41.49 2 .43.06.84.13 1.24.2 9.7 1.689 19.09 10.13 24.46 32.66l-137.6 17.71c.48-4.16 1.05-8 1.71-11.54 5.07-27.19 15.23-36.99 25.78-38.82.86-.15 1.8-.29 2.81-.42z" fill="#faa41f"/><path d="m422.51 531.47v-.01h32.66l8.58 23.87c-12.39-1.85-37.83-1.99-41.49-2-2.73.01-27 .1-40.11 1.79l8.51-23.65z" fill="#faa41f"/><path d="m493.56 617.83-144.39 18.6c.78-8.529 1.43-16.25 1.94-22.779.21-2.7.46-5.28.74-7.75l137.6-17.71c.47 1.949.91 4.02 1.319 6.189 1.051 5.64 1.881 12.04 2.45 19.271.111 1.339.221 2.739.341 4.179z" fill="#faa41f"/><path d="m496.54 650.85-150.77 19.43c1.32-12.04 2.45-23.54 3.4-33.851l144.39-18.6c.76 9.331 1.75 20.621 2.98 33.021z" fill="#faa41f"/><path d="m294 280c-83.69-12.52-89.98-59.55-90.2-61.47 0-.01 0-.02 0-.02.22-6.31.72-11.17 1.64-13.19 3.99-8.78 27.89-32.36 84.59-48.33 56.69-15.97 132.55-17.57 132.55-17.57l1.16.13s75.859 1.6 132.55 17.57c56.7 15.97 80.6 39.55 84.59 48.34.92 2.01 1.42 6.88 1.64 13.19v.01c-.359 1.75-10.68 48.8-94.52 61.34h-1.29c0-7.51 0-18.41 0-33.45 0-39.64-121.38-39.92-121.38-39.92l-4.34-.13s-121.38.28-121.38 39.92v33.58z" fill="#ffffc2"/><path d="m546.71 280v13.67s46.31 201.22 47.91 208.41c1.26 5.67 2.71 25.71-.53 39.92l-.55.18c-8.41-26.09-81.7-46.489-170.87-46.489-88.15 0-160.78 19.93-170.56 45.6-3.08-14.17-1.65-33.75-.41-39.35 1.6-7.19 47.91-208.4 47.91-208.4s0-4 0-13.54c0-7.51 0-18.45 0-33.58 0-39.64 121.38-39.92 121.38-39.92l4.34.13s121.38.28 121.38 39.92z" fill="#ffffc2"/><path d="m203.79 218.47s-3.99-63.08 0-71.86c3.99-8.79 26.35-31.94 83.05-47.91 56.69-15.97 137.34-16.77 137.34-16.77l-2.04.13s80.65.8 137.35 16.77c56.689 15.97 79.05 39.13 83.04 47.91 3.989 8.78 0 71.87 0 71.87s0 .01-.011.04c-.22-6.31-.72-11.18-1.64-13.19-3.99-8.79-27.89-32.37-84.59-48.34-56.69-15.97-132.55-17.57-132.55-17.57l-1.16-.13s-75.86 1.6-132.55 17.57c-56.7 15.97-80.6 39.55-84.59 48.33-.92 2.02-1.42 6.88-1.64 13.19-.009-.03-.009-.04-.009-.04z" fill="#ffffc2"/><path d="m489.45 588.19c-5.37-22.53-14.76-30.971-24.46-32.66-.4-.07-.811-.141-1.24-.2l-8.58-23.87h-32.66v.01h-31.85l-8.51 23.65c-1.01.13-1.95.27-2.81.42-10.55 1.83-20.71 11.63-25.78 38.82l-.14-.03c-60.33-7.98-102.43-26.08-102.43-47.13 0-2 .38-3.97 1.12-5.9 0-.01 0-.01 0-.01 9.78-25.67 82.41-45.6 170.56-45.6 89.17 0 162.46 20.399 170.87 46.489.54 1.65.81 3.33.81 5.021 0 20.71-40.77 38.569-99.54 46.75l-4.04.43c-.41-2.17-.85-4.24-1.32-6.19z" fill="#ffffc2"/><g fill="none"><path d="m642.52 218.66c-.359 1.75-10.68 48.8-94.52 61.34" stroke="#231f20" stroke-width="21"/><path d="m203.8 218.51c-.01-.03-.01-.04-.01-.04s-3.99-63.08 0-71.86c3.99-8.79 26.35-31.94 83.05-47.91 56.69-15.97 137.34-16.77 137.34-16.77l-2.04.13s80.65.8 137.35 16.77c56.689 15.97 79.05 39.13 83.04 47.91 3.989 8.78 0 71.87 0 71.87s0 .01-.011.04" stroke="#231f20" stroke-width="21"/><path d="m294 280c-83.69-12.52-89.98-59.55-90.2-61.47" stroke="#231f20" stroke-width="21"/><path d="m203.79 218.87c0-.11.01-.23.01-.34 0-.01 0-.02 0-.02.22-6.31.72-11.17 1.64-13.19 3.99-8.78 27.89-32.36 84.59-48.33 56.69-15.97 132.55-17.57 132.55-17.57l1.16.13s75.859 1.6 132.55 17.57c56.7 15.97 80.6 39.55 84.59 48.34.92 2.01 1.42 6.88 1.64 13.19v.01c0 .11.011.23.011.34" stroke="#231f20" stroke-width="21"/><path d="m252.11 541.29c-3.08-14.17-1.65-33.75-.41-39.35 1.6-7.19 47.91-208.4 47.91-208.4s0-4 0-13.54c0-7.51 0-18.45 0-33.58 0-39.64 121.38-39.92 121.38-39.92l4.34.13s121.38.28 121.38 39.92v33.45 13.67s46.31 201.22 47.91 208.41c1.26 5.67 2.71 25.71-.53 39.92" stroke="#231f20" stroke-width="21"/><path d="m252.23 541.87c-.04-.19-.08-.38-.12-.57" stroke="#231f20" stroke-width="21"/><path d="m353.42 594.33c-60.33-7.98-102.43-26.08-102.43-47.13 0-2 .38-3.97 1.12-5.9 0-.01 0-.01 0-.01 9.78-25.67 82.41-45.6 170.56-45.6 89.17 0 162.46 20.399 170.87 46.489.54 1.65.81 3.33.81 5.021 0 20.71-40.77 38.569-99.54 46.75" stroke="#231f20" stroke-width="21"/><path d="m330.53 768.81c.36-1.56.73-3.159 1.09-4.779 3.94-18 7.36-39.511 10.22-61.141 1.45-10.989 2.76-22.01 3.93-32.609 1.32-12.04 2.45-23.54 3.4-33.851.78-8.529 1.43-16.25 1.94-22.779.21-2.7.46-5.28.74-7.75.48-4.16 1.05-8 1.71-11.54 5.07-27.19 15.23-36.99 25.78-38.82.86-.15 1.8-.29 2.81-.42 13.11-1.69 37.38-1.78 40.11-1.79 3.66.01 29.101.15 41.49 2 .43.06.84.13 1.24.2 9.7 1.689 19.09 10.13 24.46 32.66.47 1.949.91 4.02 1.319 6.189 1.051 5.64 1.881 12.04 2.45 19.271.11 1.34.221 2.739.34 4.18.761 9.33 1.75 20.62 2.98 33.02.99 10 2.13 20.71 3.42 31.681 3.45 29.399 7.97 60.609 13.49 84.779" stroke="#231f20" stroke-width="21"/><path d="m504.44 586.26-14.99 1.93-137.6 17.71-10.71 1.38" stroke="#231f20" stroke-linecap="round" stroke-linejoin="round" stroke-width="21"/><path d="m504.42 616.43-10.86 1.4-144.39 18.6-8.04 1.03" stroke="#231f20" stroke-linecap="round" stroke-linejoin="round" stroke-width="21"/><path d="m508.3 649.34-11.76 1.51-150.77 19.43-11.27 1.45" stroke="#231f20" stroke-linecap="round" stroke-linejoin="round" stroke-width="21"/><path d="m508.28 681.46-8.32 1.07-158.12 20.36-7.35.95" stroke="#231f20" stroke-linecap="round" stroke-linejoin="round" stroke-width="21"/><path d="m464.02 556.08-.27-.75-8.58-23.87h-32.66" stroke="#231f20" stroke-width="21"/><path d="m381.8 556.1.35-.98 8.51-23.65h31.85.8" stroke="#231f20" stroke-width="21"/><path d="m0 0h850.394v850.394h-850.394z"/></g></svg>