<svg enable-background="new 0 0 850.394 850.394" height="850.394" viewBox="0 0 850.394 850.394" width="850.394" xmlns="http://www.w3.org/2000/svg"><path d="m502.81 257.87.03.1c-26.56 7.43-56.99 11.65-89.33 11.65-32.06 0-62.24-4.14-88.63-11.45v-.01l.09-.31c22.89-12.4 54.27-20.05 88.9-20.05 34.64 0 66.04 7.66 88.94 20.07z" fill="#ffffc2"/><path d="m734.61 486.53 1.76 98.21c0 104.729-139.51 189.62-311.58 189.62-172.09 0-311.59-84.891-311.59-189.62v-86.72l.38-.069c16.7 95.149 149.03 169.26 309.8 169.26 167.15-.001 303.56-80.111 311.23-180.681z" fill="#ffffc2"/><path d="m556.62 229.97 3.01 3.61c-7.11 4.55-15.01 8.76-23.6 12.57l-1.45-3.34c-16.51-28.07-64.32-48.36-120.71-48.36-57.94 0-106.8 21.41-122 50.66l-.52 1.2c-10.42-4.61-19.85-9.81-28.1-15.48l5.75-.86c0-43.8 64.39-79.31 143.81-79.31s143.81 35.51 143.81 79.31z" fill="#ffffc2"/><path d="m534.58 242.81 1.45 3.34c-10.16 4.53-21.29 8.5-33.19 11.82l-.03-.1c-22.899-12.41-54.3-20.07-88.939-20.07-34.63 0-66.01 7.65-88.9 20.05l-.09.31c-12.03-3.32-23.26-7.3-33.53-11.85l.52-1.2c15.2-29.25 64.06-50.66 122-50.66 56.389 0 104.199 20.29 120.709 48.36z" fill="#ffffc2"/><path d="m601.39 323.55h5.98c82.479 29.61 127.59 93.55 127.59 154.03 0 3-.11 5.979-.35 8.95-7.67 100.57-144.08 180.68-311.23 180.68-160.77 0-293.1-74.11-309.8-169.26-1.18-6.69-1.78-13.49-1.78-20.37 0-56.79 44.62-109.76 109.62-144.51h5.29v-151.56c3.1 18.4 16.23 35.33 36.54 49.32 8.25 5.67 17.68 10.87 28.1 15.48 10.27 4.55 21.5 8.53 33.53 11.85v.01c26.39 7.31 56.57 11.45 88.63 11.45 32.34 0 62.771-4.22 89.33-11.65 11.9-3.32 23.03-7.29 33.19-11.82 8.59-3.81 16.489-8.02 23.6-12.57 25.9-16.56 41.4-37.62 41.4-60.54h.359v150.51z" fill="#ffffc2"/><path d="m226.71 181.51c-.47-2.79-.71-5.62-.71-8.47 0-53.34 83.95-96.58 187.51-96.58 103.561 0 187.521 43.24 187.521 96.58 0 22.92-15.5 43.98-41.4 60.54l-3.01-3.61c0-43.8-64.39-79.31-143.81-79.31s-143.81 35.51-143.81 79.31l-5.75.86c-20.311-13.99-33.441-30.92-36.541-49.32z" fill="#ffffc2"/><g fill="none"><path d="m607.37 323.55c82.479 29.61 127.59 93.55 127.59 154.03 0 3-.11 5.979-.35 8.95-7.67 100.57-144.08 180.68-311.23 180.68-160.77 0-293.1-74.11-309.8-169.26-1.18-6.69-1.78-13.49-1.78-20.37 0-56.79 44.62-109.76 109.62-144.51" stroke="#231f20" stroke-width="21"/><path d="m113.2 498.02v86.721c0 104.729 139.5 189.62 311.59 189.62 172.07 0 311.58-84.891 311.58-189.62l-1.76-98.21-.35-19.531" stroke="#231f20" stroke-width="21"/><path d="m601.03 173.04c0 22.92-15.5 43.98-41.4 60.54-7.11 4.55-15.01 8.76-23.6 12.57-10.16 4.53-21.29 8.5-33.19 11.82-26.56 7.43-56.99 11.65-89.33 11.65-32.06 0-62.24-4.14-88.63-11.45v-.01c-12.03-3.32-23.26-7.3-33.53-11.85-10.42-4.61-19.85-9.81-28.1-15.48-20.31-13.99-33.44-30.92-36.54-49.32-.47-2.79-.71-5.62-.71-8.47 0-53.34 83.95-96.58 187.51-96.58s187.52 43.24 187.52 96.58z" stroke="#231f20" stroke-width="21"/><path d="m226.71 169.87v11.64 151.56 68.03s-4.23 26.78-23.97 36.65" stroke="#231f20" stroke-linecap="round" stroke-linejoin="round" stroke-width="21"/><path d="m601.39 170.93v2.11 150.51 78.6s4.23 26.78 23.971 36.66" stroke="#231f20" stroke-linecap="round" stroke-linejoin="round" stroke-width="21"/><path d="m269 229.97c0-43.8 64.39-79.31 143.81-79.31s143.81 35.51 143.81 79.31" stroke="#231f20" stroke-width="21"/><path d="m291.87 245.11c15.2-29.25 64.06-50.66 122-50.66 56.39 0 104.2 20.29 120.71 48.36" stroke="#231f20" stroke-width="21"/><path d="m324.97 257.85c22.89-12.4 54.27-20.05 88.9-20.05 34.64 0 66.04 7.66 88.939 20.07" stroke="#231f20" stroke-width="21"/><path d="m0 0h850.394v850.394h-850.394z"/></g></svg>