<svg enable-background="new 0 0 850.394 850.394" height="850.394" viewBox="0 0 850.394 850.394" width="850.394" xmlns="http://www.w3.org/2000/svg"><g fill="#fff"><path d="m700.25 602.45 65.15.08s-35.47 17.4-65.15-.08z"/><path d="m530.53 310.77 65.149.08c.001 0-35.469 17.4-65.149-.08z"/><path d="m433.52 602.13 64.881.08c-29.621 17.22-64.881-.08-64.881-.08z"/><path d="m350.12 486.87 64.88-.08s-35.26 17.31-64.88.08z"/><path d="m263.8 310.45 64.87.08c-29.62 17.21-64.87-.08-64.87-.08z"/><path d="m83.12 487.2 65.15-.08c-29.67 17.49-65.15.08-65.15.08z"/></g><path d="m415 486.79s-35.26 17.31-64.88.08c-8.33-4.84-16.22-12.42-22.75-23.88-15.78-27.7-25.47-55.62-66.95-60.96l-22.71.41c-41.48 5.34-51.17 33.26-66.96 60.96-6.46 11.34-14.24 18.869-22.48 23.72-29.67 17.49-65.15.08-65.15.08" fill="none" stroke="#231f20" stroke-width="21"/><path d="m433.52 602.13s35.261 17.3 64.881.08c8.33-4.85 16.22-12.42 22.75-23.89 15.79-27.7 25.47-55.62 66.96-60.96l22.71.409c41.479 5.33 51.17 33.25 66.949 60.95 6.461 11.34 14.25 18.88 22.48 23.73 29.68 17.479 65.15.08 65.15.08" fill="none" stroke="#231f20" stroke-width="21"/><path d="m263.8 310.45s35.25 17.29 64.87.08c8.34-4.85 16.23-12.42 22.77-23.89 15.78-27.71 25.47-55.62 66.95-60.97l22.709.41c41.48 5.34 51.17 33.26 66.95 60.96 6.46 11.34 14.25 18.88 22.48 23.73 29.68 17.48 65.149.08 65.149.08" fill="none" stroke="#231f20" stroke-width="21"/><path d="m0 0h850.394v850.394h-850.394z" fill="none"/></svg>