<svg enable-background="new 0 0 850.394 850.394" height="850.394" viewBox="0 0 850.394 850.394" width="850.394" xmlns="http://www.w3.org/2000/svg"><path d="m581.61 495.82v40.41l-111.99-13.98v-39.4z" fill="#ef947d"/><path d="m581.61 536.23v48.19l-477.15-74.61v-9.32l175.74-37.55 6.11-1.31 183.31 21.22v39.4z" fill="#ef947d"/><path d="m280 462 .2.94-175.74 37.55v-65.28l175.57-35.73z" fill="#f6cc4b"/><path d="m746.27 447.6v82.37h-4.62l-160.04 54.45v-48.19-40.41l160.04-48.22z" fill="#f6cc4b"/><path d="m746.27 529.97v65.65h-4.62l-160.04 54.44v-65.64l160.04-54.45z" fill="#f6cc4b"/><path d="m581.61 584.42v65.64l-477.15-74.61v-65.64z" fill="#f6cc4b"/><path d="m469.62 121.07v93.63l-189.49-4.94-175.67-4.58v-74.6z" fill="#f6cc4b"/><path d="m581.61 118.15v99.47l-111.99-2.92v-93.63z" fill="#f6cc4b"/><path d="m746.27 121.88v84.86l-164.66 10.88v-99.47z" fill="#f6cc4b"/><g fill="none"><path d="m104.46 649.72v-74.27-65.64-9.32-65.28-230.03-74.6l365.16-9.51 111.99-2.92 164.66 3.73v84.86 240.86 82.37 65.65 78.96" stroke="#231f20" stroke-width="21"/><path d="m581.61 118.15v99.47 122.68 89.48 66.04 40.41 48.19 65.64 92.18" stroke="#231f20" stroke-width="21"/><path d="m104.46 509.81 477.15 74.61 160.04-54.45" stroke="#231f20" stroke-width="21"/><path d="m104.46 575.45 477.15 74.61 160.04-54.44" stroke="#231f20" stroke-width="21"/><path d="m104.46 205.18 175.67 4.58 189.49 4.94 111.99 2.92 164.66-10.88" stroke="#231f20" stroke-width="21"/><path d="m469.62 121.06v.01 93.63 114.72 89.48 63.95 39.4l111.99 13.98" stroke="#231f20" stroke-width="21"/><path d="m469.62 418.9 111.99 10.88" stroke="#231f20" stroke-width="21"/><path d="m469.62 329.42 111.99 10.88" stroke="#231f20" stroke-width="21"/><path d="m581.61 495.82 160.04-48.22" stroke="#231f20" stroke-width="21"/><path d="m280 462 .03-62.52.1-189.72" stroke="#231f20" stroke-width="21"/><path d="m104.46 435.21 175.57-35.73.1-.02" stroke="#231f20" stroke-width="21"/><path d="m104.46 500.49 175.74-37.55 6.11-1.31 183.31 21.22 111.99 12.97" stroke="#231f20" stroke-width="21"/><path d="m0 0h850.394v850.394h-850.394z"/></g></svg>