<svg enable-background="new 0 0 850.394 850.394" height="850.394" viewBox="0 0 850.394 850.394" width="850.394" xmlns="http://www.w3.org/2000/svg"><path d="m72.7 564.88h128.92v37.33h-128.92z" fill="#c8c8c8"/><path d="m72.7 527.13h128.92v37.75h-128.92z" fill="#c8c8c8"/><path d="m72.7 489.79h128.92v37.34h-128.92z" fill="#c8c8c8"/><path d="m72.7 452.47h128.92v37.32h-128.92z" fill="#c8c8c8"/><path d="m72.7 414.7h128.92v37.77h-128.92z" fill="#c8c8c8"/><path d="m72.7 377.37h128.92v37.33h-128.92z" fill="#c8c8c8"/><path d="m631.61 579.4v-13.1h144.41v40.09h-144.41z" fill="#c8c8c8"/><path d="m631.61 525.75h144.409v40.55h-144.409z" fill="#c8c8c8"/><path d="m631.61 485.67h144.409v40.08h-144.409z" fill="#c8c8c8"/><path d="m631.61 445.59h144.409v40.08h-144.409z" fill="#c8c8c8"/><path d="m631.61 405.04h144.409v40.55h-144.409z" fill="#c8c8c8"/><path d="m631.61 364.96h144.409v40.08h-144.409z" fill="#c8c8c8"/><path d="m629.6 607.02 22.28 71.12h-469.76l34.27-95.06v-3.68h14.48l2.41.159-2.44 36.45c0 9.78 6.8 12.45 15.17 12.45h45.91 1.2 45.9c8.38 0 15.17-2.66 15.17-12.45l-2.6-36.54.99-.069h214.71 64.32v26.989z" fill="#9c5c25"/><path d="m307.97 595.78h13.17v13.45h-13.17z" fill="#fff5b4"/><path d="m285.08 595.78h13.16v13.45h-13.16z" fill="#fff5b4"/><path d="m262.17 595.78h13.17v13.45h-13.17z" fill="#fff5b4"/><path d="m262.17 574.4h13.17v13.46h-13.17z" fill="#fff5b4"/><path d="m285.08 574.4h13.16v13.46h-13.16z" fill="#fff5b4"/><path d="m307.97 574.4h13.17v13.46h-13.17z" fill="#fff5b4"/><path d="m308.16 552.13h13.17v13.45h-13.17z" fill="#fff5b4"/><path d="m285.26 552.13h13.17v13.45h-13.17z" fill="#fff5b4"/><path d="m262.37 552.13h13.16v13.45h-13.16z" fill="#fff5b4"/><path d="m351.59 579.47 2.6 36.54c0 9.79-6.79 12.45-15.17 12.45h-45.9-1.2-45.91c-8.37 0-15.17-2.67-15.17-12.45l2.44-36.45 1.88-27.989c7.34-.54 14.48-2.271 15.3-4.99 1.61-5.39 1.14-10.94 1.87-15.64l.65.1h12.87v7.53h50.15v-7.53h12.61l.7-.16c.82 4.79.28 10.49 1.94 16.01.94 3.11 9.9 4.61 18.37 4.79zm-30.26-13.89v-13.45h-13.17v13.45zm-.19 43.65v-13.45h-13.17v13.45zm0-21.37v-13.46h-13.17v13.46zm-22.71-22.28v-13.45h-13.17v13.45zm-.19 43.65v-13.45h-13.16v13.45zm0-21.37v-13.46h-13.16v13.46zm-22.71-22.28v-13.45h-13.16v13.45zm-.19 43.65v-13.45h-13.17v13.45zm0-21.37v-13.46h-13.17v13.46z" fill="#58b947"/><path d="m464.46 297.6c.95-4.32 1.78-8.67.78-12.78-.92-3.81-4.471-7.61-3.9-11.66.38-2.77 1.59-5.58 3.34-8.08 2.87-4.1 7.21-7.35 11.761-8.24 7.51-1.46 15.119 5.17 17.6 11.56 2.91 7.44.24 28.15-5.38 38.46-3.49-2.28-8-2.96-14.891-5.36-3.359-1.17-6.409-2.76-9.42-3.4z" fill="#58b947"/><path d="m458.22 350.73c-.51-6.15-1.34-11.04-2.68-12.38-3.87-3.88-12.83-7.8-12.83-7.8-1.55-9.99 5.69-24.68 12.53-30.25 3.149-2.56 6.1-2.85 9.109-2.2 3.011.64 6.061 2.23 9.42 3.4 6.891 2.4 11.4 3.08 14.891 5.36 2.189 1.44 3.97 3.51 5.7 7.04 4.229 8.67 4.46 19.16 3.659 29.06-.25 3.17-.609 6.28-.979 9.26-1.01 8.13-1.16 17.03-.771 25.31.11 2.42 5.131 25.23 6.48 31.32v.01l-24.09 15.06-.61-.98s-19.02-32.21-19.02-39.58c.001-4.83.171-20.97-.809-32.63z" fill="#ffeec8"/><path d="m405.31 354.58c-.51-8.39 4.57-15.46 11.73-19.49 3.93-2.22 7.28-4.15 11.45-1.61 3.45 2.1 10.18 1.55 14.22-2.93 0 0 8.96 3.92 12.83 7.8 1.34 1.34 2.17 6.23 2.68 12.38-3.43 3.7-11.08 10.15-13.77 12.16-4.72 3.55-8.67 6.71-14.69 7.6-10.69 1.57-23.3-3.42-24.41-15.28-.02-.21-.03-.42-.04-.63z" fill="#58b947"/><path d="m351.59 579.47-1.97-27.79c-8.47-.18-17.43-1.68-18.37-4.79-1.66-5.52-1.12-11.22-1.94-16.01-.64-3.72-2.09-6.88-6.04-8.96-1.3-.689-3.68-1.27-6.78-1.74-12.85-1.979-38.17-2.149-51.12-.3l-.35-3.12c9.95-74.06 40.14-144.96 45.69-150.51 6.99-6.97 58.69-30.62 58.69-30.62l.81-.75c9.95 10.95 22.2 18.06 35.1 19.7.01.21.02.42.04.63 1.11 11.86 13.72 16.85 24.41 15.28 6.021-.89 9.971-4.05 14.69-7.6 2.689-2.01 10.34-8.46 13.77-12.16.98 11.66.811 27.8.811 32.63 0 7.37 19.02 39.58 19.02 39.58l.61.98-11.47 7.17s10.21 22.36 23.27 50.44c12.75 27.39 47.34 93.109 76.83 93.109v4.761h-214.711z" fill="#a8d7f4"/><path d="m592.57 506.81-81.93-102.89-7.89 4.93c-1.35-6.09-6.37-28.9-6.48-31.32-.39-8.28-.239-17.18.771-25.31.37-2.98.729-6.09.979-9.26l5.641.43s52.76 10.87 56.64 26.39c3.88 15.51 27.17 95.831 31.04 122.61.469 3.23.959 8.32 1.229 14.42z" fill="#a8d7f4"/><path d="m592.57 506.81c1.12 25.24-1.54 67.83-25.28 67.83-29.49 0-64.08-65.72-76.83-93.109-13.06-28.08-23.27-50.44-23.27-50.44l11.47-7.17 24.09-15.06v-.01l7.89-4.93z" fill="#a8d7f4"/><path d="m465.24 284.82c1 4.11.17 8.46-.78 12.78l-.11.5c-3.01-.65-5.96-.36-9.109 2.2-6.84 5.57-14.08 20.26-12.53 30.25-4.04 4.48-10.77 5.03-14.22 2.93-4.17-2.54-7.52-.61-11.45 1.61-7.16 4.03-12.24 11.1-11.73 19.49-12.9-1.64-25.15-8.75-35.1-19.7-11.54-12.68-20.03-30.53-22.98-51.03-6.29-43.7 14.97-82.91 47.48-87.59 32.06-4.6 63.09 26.08 69.97 68.82-1.75 2.5-2.96 5.31-3.34 8.08-.571 4.05 2.979 7.85 3.899 11.66z" fill="#ffeec8"/><path d="m265.85 531.04h50.15v7.53h-50.15z" fill="#58b947"/><path d="m265.85 523.51h50.15v7.53h-50.15z" fill="#58b947"/><g fill="none"><path d="m464.46 297.6c.95-4.32 1.78-8.67.78-12.78-.92-3.81-4.471-7.61-3.9-11.66.38-2.77 1.59-5.58 3.34-8.08 2.87-4.1 7.21-7.35 11.761-8.24 7.51-1.46 15.119 5.17 17.6 11.56 2.91 7.44.24 28.15-5.38 38.46-.22.4-.44.78-.66 1.14" stroke="#231f20" stroke-width="14"/><path d="m478.05 422.94s-19.02-32.21-19.02-39.58c0-4.83.17-20.97-.811-32.63-.51-6.15-1.34-11.04-2.68-12.38-3.87-3.88-12.83-7.8-12.83-7.8-4.04 4.48-10.77 5.03-14.22 2.93-4.17-2.54-7.52-.61-11.45 1.61-7.16 4.03-12.24 11.1-11.73 19.49.01.21.02.42.04.63 1.11 11.86 13.72 16.85 24.41 15.28 6.021-.89 9.971-4.05 14.69-7.6 2.689-2.01 10.34-8.46 13.77-12.16.63-.67 1.12-1.25 1.41-1.7" stroke="#231f20" stroke-width="14"/><path d="m442.71 330.55c-1.55-9.99 5.69-24.68 12.53-30.25 3.149-2.56 6.1-2.85 9.109-2.2 3.011.64 6.061 2.23 9.42 3.4 6.891 2.4 11.4 3.08 14.891 5.36 2.189 1.44 3.97 3.51 5.7 7.04 4.229 8.67 4.46 19.16 3.659 29.06-.25 3.17-.609 6.28-.979 9.26-1.01 8.13-1.16 17.03-.771 25.31.11 2.42 5.131 25.23 6.48 31.32" stroke="#231f20" stroke-width="14"/><path d="m369.4 335.63s-51.7 23.65-58.69 30.62c-5.55 5.55-35.74 76.45-45.69 150.51" stroke="#231f20" stroke-width="14"/><path d="m503.66 343.39s52.76 10.87 56.64 26.39c3.88 15.51 27.17 95.831 31.04 122.61.47 3.23.96 8.32 1.23 14.42 1.12 25.24-1.54 67.83-25.28 67.83-29.49 0-64.08-65.72-76.83-93.109-13.06-28.08-23.27-50.44-23.27-50.44l11.47-7.17 24.09-15.06v-.01l7.89-4.93 81.931 102.89" stroke="#231f20" stroke-width="14"/><path d="m405.38 354.59c-.02 0-.05-.01-.07-.01-12.9-1.64-25.15-8.75-35.1-19.7-11.54-12.68-20.03-30.53-22.98-51.03-6.29-43.7 14.97-82.91 47.48-87.59 32.06-4.6 63.09 26.08 69.97 68.82.101.61.19 1.22.28 1.83" stroke="#231f20" stroke-width="14"/><path d="m291.92 628.46h-45.91c-8.37 0-15.17-2.67-15.17-12.45l2.44-36.45 1.88-27.989.36-5.34" stroke="#231f20" stroke-width="14"/><path d="m291.92 628.46h1.2 45.9c8.38 0 15.17-2.66 15.17-12.45l-2.6-36.54-1.97-27.79-.38-5.3" stroke="#231f20" stroke-width="14"/><path d="m316 531.04h12.61" stroke="#231f20" stroke-width="13.2636"/><path d="m252.98 531.04h12.87" stroke="#231f20" stroke-width="13.2636"/><path d="m262.37 552.13h13.16v13.45h-13.16z" stroke="#231f20" stroke-width="6.6318"/><path d="m285.26 552.13h13.17v13.45h-13.17z" stroke="#231f20" stroke-width="6.6318"/><path d="m308.16 552.13h13.17v13.45h-13.17z" stroke="#231f20" stroke-width="6.6318"/><path d="m262.17 574.4h13.17v13.46h-13.17z" stroke="#231f20" stroke-width="6.6318"/><path d="m285.08 574.4h13.16v13.46h-13.16z" stroke="#231f20" stroke-width="6.6318"/><path d="m307.97 574.4h13.17v13.46h-13.17z" stroke="#231f20" stroke-width="6.6318"/><path d="m262.17 595.78h13.17v13.45h-13.17z" stroke="#231f20" stroke-width="6.6318"/><path d="m285.08 595.78h13.16v13.45h-13.16z" stroke="#231f20" stroke-width="6.6318"/><path d="m307.97 595.78h13.17v13.45h-13.17z" stroke="#231f20" stroke-width="6.6318"/><path d="m316 531.04v7.53h-50.15v-7.53-7.53h50.15z" stroke="#231f20" stroke-width="7"/><path d="m229.33 551.75c1.88.03 3.86-.03 5.83-.18 7.34-.54 14.48-2.271 15.3-4.99 1.61-5.39 1.14-10.94 1.87-15.64.6-3.881 2.02-7.19 6.11-9.341 1.32-.699 3.75-1.27 6.93-1.72 12.95-1.85 38.27-1.68 51.12.3 3.1.471 5.48 1.051 6.78 1.74 3.95 2.08 5.4 5.24 6.04 8.96.82 4.79.28 10.49 1.94 16.01.94 3.11 9.9 4.61 18.37 4.79 2.21.051 4.39.011 6.38-.12" stroke="#231f20" stroke-width="14"/><path d="m383.7 399.75 15.61.23" stroke="#231f20" stroke-linecap="round" stroke-linejoin="round" stroke-width="13.2636"/><path d="m381.49 414.21 15.4-2.53" stroke="#231f20" stroke-linecap="round" stroke-linejoin="round" stroke-width="13.2636"/><path d="m382.21 430.43 13.97-6.99" stroke="#231f20" stroke-linecap="round" stroke-linejoin="round" stroke-width="13.2636"/><path d="m382.21 447.21 13.97-6.98" stroke="#231f20" stroke-linecap="round" stroke-linejoin="round" stroke-width="13.2636"/><path d="m382.21 460.65 13.97-6.98" stroke="#231f20" stroke-linecap="round" stroke-linejoin="round" stroke-width="13.2636"/><path d="m382.21 474.4 13.97-6.99" stroke="#231f20" stroke-linecap="round" stroke-linejoin="round" stroke-width="13.2636"/><path d="m378.6 503.95 15.6-.77" stroke="#231f20" stroke-linecap="round" stroke-linejoin="round" stroke-width="13.2636"/><path d="m373.19 516.25 15.6-.77" stroke="#231f20" stroke-linecap="round" stroke-linejoin="round" stroke-width="13.2636"/><path d="m367.67 528.82 15.6-.77" stroke="#231f20" stroke-linecap="round" stroke-linejoin="round" stroke-width="13.2636"/><path d="m361.88 541.99 15.6-.77" stroke="#231f20" stroke-linecap="round" stroke-linejoin="round" stroke-width="13.2636"/><path d="m356.48 554.28 15.59-.77" stroke="#231f20" stroke-linecap="round" stroke-linejoin="round" stroke-width="13.2636"/><path d="m350.95 566.87 15.6-.77" stroke="#231f20" stroke-linecap="round" stroke-linejoin="round" stroke-width="13.2636"/><path d="m398.56 374.14 15.01 4.33" stroke="#231f20" stroke-linecap="round" stroke-linejoin="round" stroke-width="13.2636"/><path d="m389.46 384.02 15 4.34" stroke="#231f20" stroke-linecap="round" stroke-linejoin="round" stroke-width="13.2636"/><path d="m380.03 489.83 15.12-3.93" stroke="#231f20" stroke-linecap="round" stroke-linejoin="round" stroke-width="13.2636"/><path d="m352.58 579.4h214.71 64.32.37" stroke="#231f20" stroke-width="14"/><path d="m210.86 579.4h5.53 14.48" stroke="#231f20" stroke-width="19.8955"/><path d="m72.7 414.7v-37.33h128.92v37.33 37.77 37.32 37.34 37.75 37.33h-128.92v-37.33-37.75-37.34-37.32z" stroke="#231f20" stroke-width="14"/><path d="m72.7 564.88h128.92" stroke="#231f20" stroke-width="14"/><path d="m72.7 527.13h128.92" stroke="#231f20" stroke-width="14"/><path d="m72.7 489.79h128.92" stroke="#231f20" stroke-width="14"/><path d="m72.7 452.47h128.92" stroke="#231f20" stroke-width="14"/><path d="m72.7 414.7h128.92" stroke="#231f20" stroke-width="14"/><path d="m631.61 405.04v-40.08h144.41v40.08 40.55 40.08 40.08 40.55 40.09h-144.41v-26.99-13.1-40.55-40.08-40.08z" stroke="#231f20" stroke-width="14"/><path d="m631.61 566.3h144.41" stroke="#231f20" stroke-width="14"/><path d="m631.61 525.75h144.41" stroke="#231f20" stroke-width="14"/><path d="m631.61 485.67h144.41" stroke="#231f20" stroke-width="14"/><path d="m631.61 445.59h144.41" stroke="#231f20" stroke-width="14"/><path d="m631.61 405.04h144.41" stroke="#231f20" stroke-width="14"/><path d="m216.39 583.08-34.27 95.06h469.76l-22.28-71.12-6.46-20.63" stroke="#231f20" stroke-width="14"/><path d="m320.29 446.02-3.32 70.74" stroke="#231f20" stroke-width="14"/><path d="m0 0h850.394v850.394h-850.394z"/></g><path d="m440.805 590.48-11.562 68.673 55.572 11.636 13.263-70.701 1.328.249 5.255 1.343-14.786 77.213-63.951-13.777 13.211-75.813 6.289 1.504z" fill="#ff001c"/><path d="m436.905 589.822-11.555 68.676-57.132-7.335 13.435-71.601.86-4.59 51.29 14.003z" fill="#fff"/><path d="m498.078 600.088-13.263 70.701-55.572-11.636 11.562-68.673 4.619.327.007.002 53.676 3.788z" fill="#fff"/><path d="m439.135 589.303-13.211 75.813-65.475-9.013 14.624-77.771 5.381 1.005 1.199.225-13.435 71.601 57.132 7.335 11.555-68.676-3.102-.847.244-.893z" fill="#ff001c"/><path d="m433.803 588.975 3.102.847-11.555 68.676-57.132-7.335 13.435-71.601.86-4.59z" fill="none" stroke="#231f20" stroke-width="5.0471"/><path d="m445.431 590.809 53.676 3.788-1.029 5.491-13.263 70.701-55.572-11.636 11.562-68.673 4.619.327" fill="none" stroke="#231f20" stroke-width="5.0471"/><path d="m439.283 588.451-.148.852-13.211 75.813" fill="none" stroke="#fff" stroke-dasharray="4.5916" stroke-width="2.2958"/><path d="m425.924 665.116 63.951 13.777 14.786-77.213-5.255-1.343" fill="none" stroke="#231f20" stroke-width="5.0471"/><path d="m425.924 665.116-65.475-9.013 14.624-77.771 5.381 1.005" fill="none" stroke="#231f20" stroke-width="5.0471"/><path d="m385.871 586.382 45.038 12.42" fill="none" stroke="#231f20" stroke-width="2.5236"/><path d="m385.416 592.584 43.43 11.839" fill="none" stroke="#231f20" stroke-width="2.5236"/><path d="m384.576 599.82 43.194 11.753" fill="none" stroke="#231f20" stroke-width="2.5236"/><path d="m382.804 606.771 43.868 11.999" fill="none" stroke="#231f20" stroke-width="2.5236"/><path d="m381.7 614.755 43.691 11.578" fill="none" stroke="#231f20" stroke-width="2.5236"/><path d="m380.555 622.854 44.529 10.463" fill="none" stroke="#231f20" stroke-width="2.5236"/><path d="m379.843 630.498 44.247 8.35" fill="none" stroke="#231f20" stroke-width="2.5236"/><path d="m378.407 636.969 43.648 7.802" fill="none" stroke="#231f20" stroke-width="2.5236"/><path d="m376.229 644.079 45.05 7.944" fill="none" stroke="#231f20" stroke-width="2.5236"/><path d="m491.055 603.081-46.534-4.106" fill="none" stroke="#231f20" stroke-width="2.5236"/><path d="m489.316 609.055-44.831-4.094" fill="none" stroke="#231f20" stroke-width="2.5236"/><path d="m487.57 616.127-44.575-4.093" fill="none" stroke="#231f20" stroke-width="2.5236"/><path d="m486.8 623.258-45.293-4.101" fill="none" stroke="#231f20" stroke-width="2.5236"/><path d="m485.043 631.127-44.979-4.439" fill="none" stroke="#231f20" stroke-width="2.5236"/><path d="m483.288 639.108-45.383-5.762" fill="none" stroke="#231f20" stroke-width="2.5236"/><path d="m481.279 646.522-44.375-7.649" fill="none" stroke="#231f20" stroke-width="2.5236"/><path d="m480.362 653.086-43.624-7.951" fill="none" stroke="#231f20" stroke-width="2.5236"/><path d="m479.913 660.514-44.985-8.312" fill="none" stroke="#231f20" stroke-width="2.5236"/><path d="m445.424 590.807.007.002" fill="none" stroke="#231f20" stroke-width="5.0471"/><path d="m547.246 596.282 42.911-23.144 1.73 4.986 22.27 64.216-47.946 17.653-22.638-61.729z" fill="#fff"/><path d="m597.665 576.211 24.085 70.271-55.345 20.001-24.655-68.366 5.496-1.835-3.673 1.982 22.638 61.729 47.946-17.653-22.27-64.216 1.134-.445z" fill="#ff001c"/><path d="m540.279 599.635 22.647 61.724-47.168 21.923-22.546-65.032-1.443-4.165 45.747-13.627z" fill="#fff"/><path d="m537.292 599.605 4.458-1.488 24.655 68.366-54.334 24.628-24.467-70.647 4.585-1.812 1.023-.402 22.546 65.032 47.168-21.923-22.647-61.724-2.763.823z" fill="#ff001c"/><path d="m537.516 600.458 2.763-.823 22.647 61.724-47.168 21.923-22.546-65.032-1.443-4.165z" fill="none" stroke="#231f20" stroke-width="4.6538"/><path d="m591.887 578.124 22.27 64.216-47.946 17.653-22.638-61.729 3.673-1.982 42.911-23.144z" fill="none" stroke="#231f20" stroke-width="4.6538"/><path d="m541.474 597.353.276.764 24.655 68.366" fill="none" stroke="#fff" stroke-dasharray="4.2337" stroke-width="2.1169"/><path d="m566.405 666.483 55.345-20.001-24.085-70.271-4.644 1.468" fill="none" stroke="#231f20" stroke-width="4.6538"/><path d="m566.405 666.483-54.334 24.628-24.467-70.647 4.585-1.812" fill="none" stroke="#231f20" stroke-width="4.6538"/><path d="m499.578 621.761 40.224-11.865" fill="none" stroke="#231f20" stroke-width="2.3269"/><path d="m502.07 627.045 38.732-11.554" fill="none" stroke="#231f20" stroke-width="2.3269"/><path d="m504.746 633.367 38.507-11.511" fill="none" stroke="#231f20" stroke-width="2.3269"/><path d="m506.58 639.908 39.133-11.638" fill="none" stroke="#231f20" stroke-width="2.3269"/><path d="m509.393 646.965 38.808-11.891" fill="none" stroke="#231f20" stroke-width="2.3269"/><path d="m512.234 654.142 38.935-13.217" fill="none" stroke="#231f20" stroke-width="2.3269"/><path d="m515.191 660.731 37.753-14.804" fill="none" stroke="#231f20" stroke-width="2.3269"/><path d="m517.06 666.717 37.043-14.956" fill="none" stroke="#231f20" stroke-width="2.3269"/><path d="m518.651 673.587 38.182-15.528" fill="none" stroke="#231f20" stroke-width="2.3269"/><path d="m587.876 584-37.556 19.387" fill="none" stroke="#231f20" stroke-width="2.3269"/><path d="m589.288 589.73-36.253 18.56" fill="none" stroke="#231f20" stroke-width="2.3269"/><path d="m591.189 596.358-36.05 18.439" fill="none" stroke="#231f20" stroke-width="2.3269"/><path d="m593.87 602.555-36.606 18.782" fill="none" stroke="#231f20" stroke-width="2.3269"/><path d="m596.134 609.843-36.52 18.352" fill="none" stroke="#231f20" stroke-width="2.3269"/><path d="m598.449 617.214-37.436 17.472" fill="none" stroke="#231f20" stroke-width="2.3269"/><path d="m600.311 624.253-37.53 15.436" fill="none" stroke="#231f20" stroke-width="2.3269"/><path d="m602.618 630.058-37.094 14.822" fill="none" stroke="#231f20" stroke-width="2.3269"/><path d="m605.682 636.346-38.302 15.193" fill="none" stroke="#231f20" stroke-width="2.3269"/><path d="m547.246 596.282.025-.008" fill="none" stroke="#231f20" stroke-width="4.6538"/></svg>