<svg enable-background="new 0 0 850.394 850.394" height="850.394" viewBox="0 0 850.394 850.394" width="850.394" xmlns="http://www.w3.org/2000/svg"><path d="m317.81 663.67c-14.63-5.89-29.56-13.51-44.23-22.28-14.4-8.62-28.55-18.33-41.93-28.58-12.96-9.939-25.2-20.38-36.25-30.819-13.78-13.021-25.71-26.04-34.87-38.061-3.52-4.62-6.63-9.08-9.28-13.35-6.56-10.561-12.78-22.51-18.54-35.47h-.01c-19.92-44.74-34.54-101.49-39.74-154.291-.45-4.55-.82-9.07-1.13-13.55-1.15-16.87.07-31.35 3.19-43.43 6.44-24.94 20.97-39.73 39.4-44.42l.26 1c-.45.76-23.74 40.07 5.03 152.26.81 3.2 1.67 6.46 2.58 9.78 32.59 119.29 84.2 176.99 206.33 238.64l1.03 32.561c-10.3-2.22-20.99-5.62-31.84-9.99z" fill="#33a02c"/><path d="m348.62 641.1c-122.13-61.65-173.74-119.35-206.33-238.64-.91-3.32-1.77-6.58-2.58-9.78-28.77-112.19-5.48-151.5-5.03-152.26l-.26-1c1.13-.29 2.27-.54 3.43-.75 0 0 20.93 11.9 29.99 63.07 9.08 51.18 28.16 125.54 43.28 164.77 21.71 56.34 91.89 114.26 133.72 133.311l2.47-.08.98 31.05z" fill="#33a02c"/><path d="m384.07 672v108.48l-31.04-.41-3.38-106.41-1.03-32.561-.33-10.31 5.21-.17 27.35-12.44h3.22z" fill="#33a02c"/><path d="m204.86 296.42c3.95 13.69 6.7 27.49 8.63 38.29h.01c1.11 6.22 1.95 11.44 2.6 15.09 2.48 13.97 5.21 26.74 8.01 38.24 11.47 47.22 23.97 73.04 23.97 73.04 16.85 48.35 88.1 98.15 98.16 104.99l1.07 33.67-2.47.08c-41.83-19.05-112.01-76.97-133.72-133.31-15.12-39.229-34.2-113.59-43.28-164.77-9.06-51.17-29.99-63.07-29.99-63.07 9.63-1.77 20.2-.92 31.17 2.53 17.45 5.49 28.63 30.19 35.84 55.22z" fill="#33a02c"/><path d="m384.07 322.94v295.24h-3.22l-27.35 12.44-5.21.17-.98-31.05-1.07-33.67-7.34-231.36-.6-18.91c0-12.38 2.09-23.33 5.88-32.81 4.1-10.28 10.2-18.82 17.79-25.58 10.36-9.22 23.5-15.13 38.17-17.57 4.79-.8 9.75-1.23 14.83-1.28.26.05 2.18.5 5.06 1.84-10.98 5.1-35.96 23.22-35.96 82.54z" fill="#33a02c"/><path d="m384.07 672c0-17.45 0-35.51 0-53.82 0-130.25 0-272.979 0-295.24 0-59.32 24.98-77.44 35.96-82.54 10.98 5.11 35.93 23.24 35.93 82.54v17.24 31.51 22.63 35.32 30.62 36 29.141 36.229 31.73 34.729 29.82 26.29 34.52 27.221 19.479 16.021l-71.89-.96c0-29.48 0-67.26 0-108.48z" fill="#33a02c"/><path d="m455.96 322.94c0-59.3-24.95-77.43-35.93-82.54 3.1-1.45 5.08-1.85 5.08-1.85 16.6 0 31.97 4.72 44.59 13.15 11.05 7.36 19.99 17.57 25.79 29.95 4.72 10.07 7.359 21.58 7.359 34.15l-2.34 110.71-.689 32.89-.91 42.79-.66 31.479-5.24 248.26-37.05-.489c0-5.101 0-10.45 0-16.021 0-6.22 0-12.729 0-19.479 0-8.69 0-17.79 0-27.221 0-11.09 0-22.63 0-34.52 0-8.61 0-17.38 0-26.29 0-9.8 0-19.76 0-29.82 0-11.479 0-23.09 0-34.729 0-10.57 0-21.17 0-31.73 0-12.17 0-24.28 0-36.229 0-9.851 0-19.58 0-29.141 0-12.319 0-24.37 0-36 0-10.58 0-20.819 0-30.62 0-12.55 0-24.39 0-35.32 0-8.07 0-15.64 0-22.63 0-12.52 0-23.18 0-31.51 0-8.06 0-13.95 0-17.24z" fill="#33a02c"/><path d="m645.43 156.12c7.21-25.03 18.4-49.73 35.851-55.22 10.97-3.45 21.54-4.3 31.16-2.54v.01s-20.921 11.89-29.99 63.07c-9.07 51.18-28.15 125.54-43.28 164.77-21.71 56.33-91.89 114.26-133.71 133.31l-5.64-.119.689-32.891 2.37.05s81.2-53.729 99.33-105.78c0 0 4.16-8.59 9.88-24.92 4.2-11.98 9.24-28.14 14.09-48.13 2.801-11.5 5.53-24.26 8.011-38.23.649-3.65 1.489-8.88 2.6-15.09h.01c1.929-10.81 4.679-24.6 8.629-38.29z" fill="#33a02c"/><path d="m715.61 100.11s15.689 25.45 6.38 95c-2.21 16.52-5.83 35.53-11.41 57.27-.811 3.2-1.67 6.46-2.58 9.78-32.82 120.19-84.98 177.859-209.09 240.03l.91-42.79 5.64.119c41.82-19.05 112-76.979 133.71-133.31 15.13-39.23 34.21-113.59 43.28-164.77 9.069-51.18 29.99-63.07 29.99-63.07v-.01c1.159.21 2.3.46 3.43.75z" fill="#33a02c"/><path d="m757.34 200.52c-5.2 52.79-19.82 109.55-39.75 154.29-5.77 12.96-11.979 24.91-18.54 35.47-2.649 4.27-5.77 8.74-9.28 13.36-9.17 12.01-21.1 25.03-34.88 38.05-11.05 10.43-23.29 20.869-36.25 30.81-13.39 10.26-27.54 19.97-41.93 28.58-14.67 8.77-29.6 16.4-44.229 22.28-11.431 4.6-22.681 8.14-33.49 10.33l-.74-.021.66-31.479c124.109-62.17 176.269-119.84 209.089-240.03.91-3.32 1.77-6.58 2.58-9.78 5.58-21.74 9.2-40.75 11.41-57.27 9.31-69.55-6.38-95-6.38-95l.26-1c18.43 4.7 32.96 19.48 39.399 44.43 3.131 12.08 4.351 26.56 3.2 43.43-.309 4.48-.679 9-1.129 13.55z" fill="#33a02c"/><g fill="none"><path d="m353.23 786.44-.2-6.37-3.38-106.41-1.03-32.561-.33-10.31-.98-31.05-1.07-33.67-7.34-231.36-.6-18.91c0-12.38 2.09-23.33 5.88-32.81 4.1-10.28 10.2-18.82 17.79-25.58 10.36-9.22 23.5-15.13 38.17-17.57 4.79-.8 9.75-1.23 14.83-1.28.37-.01.73-.01 1.1-.01h9.04c16.6 0 31.97 4.72 44.59 13.15 11.05 7.36 19.99 17.57 25.79 29.95 4.72 10.07 7.359 21.58 7.359 34.15l-2.34 110.71-.689 32.891-.91 42.79-.66 31.479-5.24 248.26-.1 4.511" stroke="#231f20" stroke-width="21"/><path d="m425.11 238.55s-1.98.4-5.08 1.85c-10.98 5.1-35.96 23.22-35.96 82.54v295.24 53.82 108.48 5.96" stroke="#231f20" stroke-width="21"/><path d="m414.94 238.55s.01 0 .03.01c.26.05 2.18.5 5.06 1.84 10.98 5.11 35.93 23.24 35.93 82.54v17.24 31.51 22.63 35.32 30.62 36 29.141 36.229 31.73 34.729 29.82 26.29 34.52 27.221 19.479 16.021 5" stroke="#231f20" stroke-width="21"/><path d="m492.27 283.12 3.22-1.47 21.46-9.84" stroke="#231f20" stroke-width="14"/><path d="m502.85 340.53h29.69" stroke="#231f20" stroke-width="14"/><path d="m504.01 573.85h29.69" stroke="#231f20" stroke-width="14"/><path d="m504.01 637.38h29.69" stroke="#231f20" stroke-width="14"/><path d="m504.01 693.92h29.69" stroke="#231f20" stroke-width="14"/><path d="m316.78 737.26h29.69" stroke="#231f20" stroke-width="14"/><path d="m504.01 750.58h29.69" stroke="#231f20" stroke-width="14"/><path d="m469.7 251.7 20.49-20.51" stroke="#231f20" stroke-width="14"/><path d="m440.18 238.55 7.46-31.08" stroke="#231f20" stroke-width="14"/><path d="m391.66 213.69 8.48 26.15" stroke="#231f20" stroke-width="14"/><path d="m340.65 236.08 21.32 21.33.01.01" stroke="#231f20" stroke-width="14"/><path d="m455.96 340.18-44.81-18.25" stroke="#231f20" stroke-width="14"/><path d="m455.96 394.32-44.81-18.25" stroke="#231f20" stroke-width="14"/><path d="m455.96 460.26-44.81-18.25" stroke="#231f20" stroke-width="14"/><path d="m455.96 525.4-44.81-18.26" stroke="#231f20" stroke-width="14"/><path d="m455.96 593.36-44.81-18.25" stroke="#231f20" stroke-width="14"/><path d="m455.96 657.91-44.81-18.25" stroke="#231f20" stroke-width="14"/><path d="m455.96 718.72-44.81-18.25" stroke="#231f20" stroke-width="14"/><path d="m455.96 765.42-44.81-18.25" stroke="#231f20" stroke-width="14"/><path d="m455.96 371.69 27.35-12.44" stroke="#231f20" stroke-width="14"/><path d="m455.96 429.64 27.35-12.44" stroke="#231f20" stroke-width="14"/><path d="m455.96 496.26 27.35-12.44" stroke="#231f20" stroke-width="14"/><path d="m455.96 561.63 27.35-12.44" stroke="#231f20" stroke-width="14"/><path d="m455.96 628.09 27.35-12.43" stroke="#231f20" stroke-width="14"/><path d="m455.96 684.2 27.35-12.43" stroke="#231f20" stroke-width="14"/><path d="m455.96 745.94 27.35-12.44" stroke="#231f20" stroke-width="14"/><path d="m357.23 684.2 26.84-12.2.5-.23" stroke="#231f20" stroke-width="14"/><path d="m353.5 374.22 27.35-12.44" stroke="#231f20" stroke-width="14"/><path d="m353.5 432.17 27.35-12.44" stroke="#231f20" stroke-width="14"/><path d="m353.5 498.79 27.35-12.45" stroke="#231f20" stroke-width="14"/><path d="m353.5 564.15 27.35-12.44" stroke="#231f20" stroke-width="14"/><path d="m353.5 630.62 27.35-12.44" stroke="#231f20" stroke-width="14"/><path d="m295.23 522.4 16.77-21.3" stroke="#231f20" stroke-width="14"/><path d="m318.08 662.31-.27 1.36-5.48 27.22" stroke="#231f20" stroke-width="14"/><path d="m132.71 495.11c5.76 12.96 11.98 24.909 18.54 35.47 2.65 4.27 5.76 8.729 9.28 13.35 9.16 12.021 21.09 25.04 34.87 38.061 11.05 10.439 23.29 20.88 36.25 30.819 13.38 10.25 27.53 19.96 41.93 28.58 14.67 8.771 29.6 16.391 44.23 22.28 10.85 4.37 21.54 7.771 31.84 9.99.55.109 1.11.229 1.66.34" stroke="#231f20" stroke-width="21"/><path d="m213.49 334.71c-1.93-10.8-4.68-24.6-8.63-38.29-7.21-25.03-18.39-49.73-35.84-55.22-10.97-3.45-21.54-4.3-31.17-2.53-1.16.21-2.3.46-3.43.75-18.43 4.69-32.96 19.48-39.4 44.42-3.12 12.08-4.34 26.56-3.19 43.43.31 4.48.68 9 1.13 13.55 5.2 52.8 19.82 109.55 39.74 154.291" stroke="#231f20" stroke-width="21"/><path d="m347.42 566.87s-.41-.271-1.18-.8c-10.06-6.84-81.31-56.641-98.16-104.99 0 0-12.5-25.82-23.97-73.04-2.8-11.5-5.53-24.27-8.01-38.24-.65-3.65-1.49-8.87-2.6-15.09" stroke="#231f20" stroke-width="21"/><path d="m134.69 240.41s0 0-.01.01c-.45.76-23.74 40.07 5.03 152.26.81 3.2 1.67 6.46 2.58 9.78 32.59 119.29 84.2 176.99 206.33 238.64 1.29.65 2.58 1.301 3.88 1.95" stroke="#231f20" stroke-width="21"/><path d="m137.85 238.67s20.93 11.9 29.99 63.07c9.08 51.18 28.16 125.54 43.28 164.77 21.71 56.34 91.89 114.26 133.72 133.311" stroke="#231f20" stroke-width="21"/><path d="m191.07 255.69 14.26-20.41" stroke="#231f20" stroke-width="14"/><path d="m203.2 297.69 1.66-1.27 21.85-16.63" stroke="#231f20" stroke-width="14"/><path d="m213.49 334.71h.01l27.36-4.85" stroke="#231f20" stroke-width="14"/><path d="m224.11 388.04 25.11-4.45" stroke="#231f20" stroke-width="14"/><path d="m238.21 436.16 23.93-12.71" stroke="#231f20" stroke-width="14"/><path d="m258.32 479.96 23.93-12.72" stroke="#231f20" stroke-width="14"/><path d="m153.82 235.84 2.25-27.03" stroke="#231f20" stroke-width="14"/><path d="m109.7 250.14-12.83-23.09" stroke="#231f20" stroke-width="14"/><path d="m97.57 284.46-2.55-.62-31.02-7.59" stroke="#231f20" stroke-width="14"/><path d="m93.58 340.71-.62.11-27.59 4.89" stroke="#231f20" stroke-width="14"/><path d="m68.22 401.51 27.32-4.84" stroke="#231f20" stroke-width="14"/><path d="m84.79 461.92 27.32-4.84" stroke="#231f20" stroke-width="14"/><path d="m132.71 495.11h-.01l-25.39 14.43" stroke="#231f20" stroke-width="14"/><path d="m160.64 543.77-.11.16-16.3 23.31" stroke="#231f20" stroke-width="14"/><path d="m196.21 580.84-.81 1.15-16.41 23.48" stroke="#231f20" stroke-width="14"/><path d="m232.76 611.22-1.11 1.59-14.77 21.14" stroke="#231f20" stroke-width="14"/><path d="m273.83 640.16-.25 1.23-5.51 27.35" stroke="#231f20" stroke-width="14"/><path d="m128.31 335.41 24.05-18.78" stroke="#231f20" stroke-width="14"/><path d="m139.32 392.98.39-.3 23.66-18.49" stroke="#231f20" stroke-width="14"/><path d="m164.41 459.67 24.05-18.77" stroke="#231f20" stroke-width="14"/><path d="m195.29 516.28 16.53-17.45" stroke="#231f20" stroke-width="14"/><path d="m241.74 569.01 18.02-17.23" stroke="#231f20" stroke-width="14"/><path d="m285.06 604.8 18.02-17.22" stroke="#231f20" stroke-width="14"/><path d="m555.06 382.1-16.77-21.3" stroke="#231f20" stroke-width="14"/><path d="m532.21 522.01.27 1.35 5.49 27.23" stroke="#231f20" stroke-width="14"/><path d="m636.8 194.41c1.931-10.81 4.681-24.6 8.63-38.29 7.21-25.03 18.4-49.73 35.851-55.22 10.97-3.45 21.54-4.3 31.16-2.54 1.159.21 2.3.46 3.43.75 18.43 4.7 32.96 19.48 39.399 44.43 3.131 12.08 4.351 26.56 3.2 43.43-.31 4.48-.68 9-1.13 13.55-5.2 52.79-19.82 109.55-39.75 154.29-5.77 12.96-11.979 24.91-18.54 35.47-2.649 4.27-5.77 8.74-9.28 13.36-9.17 12.01-21.1 25.03-34.88 38.05-11.05 10.43-23.29 20.869-36.25 30.81-13.39 10.26-27.54 19.97-41.93 28.58-14.67 8.77-29.6 16.4-44.229 22.28-11.431 4.6-22.681 8.14-33.49 10.33" stroke="#231f20" stroke-width="21"/><path d="m502.88 426.56s81.2-53.729 99.33-105.78c0 0 4.16-8.59 9.88-24.92 4.2-11.98 9.24-28.14 14.09-48.13 2.801-11.5 5.53-24.26 8.011-38.23.649-3.65 1.489-8.88 2.6-15.09" stroke="#231f20" stroke-width="21"/><path d="m715.61 100.11s15.689 25.45 6.38 95c-2.21 16.52-5.83 35.53-11.41 57.27-.811 3.2-1.67 6.46-2.58 9.78-32.82 120.19-84.98 177.859-209.09 240.03-.37.189-.74.369-1.11.56" stroke="#231f20" stroke-width="21"/><path d="m712.44 98.37s-20.921 11.89-29.99 63.07c-9.07 51.18-28.15 125.54-43.28 164.77-21.71 56.33-91.89 114.26-133.71 133.31" stroke="#231f20" stroke-width="21"/><path d="m659.23 115.39-14.27-20.42" stroke="#231f20" stroke-width="14"/><path d="m647.1 157.39-1.67-1.27-21.85-16.63" stroke="#231f20" stroke-width="14"/><path d="m636.8 194.41h-.01l-27.36-4.85" stroke="#231f20" stroke-width="14"/><path d="m626.18 247.73-25.1-4.44" stroke="#231f20" stroke-width="14"/><path d="m612.09 295.86-23.94-12.71" stroke="#231f20" stroke-width="14"/><path d="m591.98 339.66-23.94-12.72" stroke="#231f20" stroke-width="14"/><path d="m696.47 95.54-2.24-27.03" stroke="#231f20" stroke-width="14"/><path d="m740.6 109.84 12.82-23.09" stroke="#231f20" stroke-width="14"/><path d="m752.73 144.16 2.54-.62 31.02-7.6" stroke="#231f20" stroke-width="14"/><path d="m756.72 200.41.62.11 27.59 4.88" stroke="#231f20" stroke-width="14"/><path d="m782.07 261.21-27.31-4.84" stroke="#231f20" stroke-width="14"/><path d="m765.5 321.62-27.32-4.84" stroke="#231f20" stroke-width="14"/><path d="m717.58 354.8.01.01 25.39 14.42" stroke="#231f20" stroke-width="14"/><path d="m689.65 403.47.12.17 16.29 23.3" stroke="#231f20" stroke-width="14"/><path d="m654.08 440.54.81 1.15 16.41 23.48" stroke="#231f20" stroke-width="14"/><path d="m617.54 470.92 1.1 1.58 14.78 21.14" stroke="#231f20" stroke-width="14"/><path d="m576.46 499.85.25 1.23 5.51 27.35" stroke="#231f20" stroke-width="14"/><path d="m721.99 195.11-24.06-18.79" stroke="#231f20" stroke-width="14"/><path d="m710.97 252.68-.39-.3-23.66-18.49" stroke="#231f20" stroke-width="14"/><path d="m685.88 319.37-24.05-18.78" stroke="#231f20" stroke-width="14"/><path d="m655.01 375.98-16.54-17.46" stroke="#231f20" stroke-width="14"/><path d="m608.56 428.7-18.03-17.22" stroke="#231f20" stroke-width="14"/><path d="m565.23 464.5-18.02-17.23" stroke="#231f20" stroke-width="14"/><path d="m317.01 272.16 27.17 10.83h.01" stroke="#231f20" stroke-width="14"/><path d="m307.05 334.71h31.85.09" stroke="#231f20" stroke-width="14"/><path d="m307.05 396.58h31.94" stroke="#231f20" stroke-width="14"/><path d="m307.05 438.87h31.94" stroke="#231f20" stroke-width="14"/><path d="m0 0h850.394v850.394h-850.394z"/></g></svg>