<svg enable-background="new 0 0 850.394 850.394" height="850.394" viewBox="0 0 850.394 850.394" width="850.394" xmlns="http://www.w3.org/2000/svg"><path d="m292.83 666.44 12.13 107.62-177.6-94.72-26.91-114.47 5.88-1.79.54 1.79 86.96 47.5 96.37 52.63z" fill="#33a02c"/><path d="m735.4 520.33-.83-2.52v-4.2l16.92 5.64-25.12 115.23-421.41 139.58-12.13-107.62 112.85-37.26 123.95-40.92 118.32-39.06z" fill="#33a02c"/><path d="m195.61 535.94v73.16l-1.78 3.27-86.96-47.5-.54-1.79 4.76-1.44z" fill="#abda4d"/><path d="m293.02 552.5-.17 107.64-2.65 4.86-96.37-52.63 1.78-3.27v-73.16l40.92-12.43z" fill="#abda4d"/><path d="m293.09 506.31-.07 46.19-56.49-28.99z" fill="#abda4d"/><path d="m405.68 472.09v43.9l-112.25 36.72-.41-.21.07-46.19z" fill="#abda4d"/><path d="m292.85 660.14.17-107.64.41.21 112.25-36.72v113.19l-112.85 37.26-2.63-1.44z" fill="#abda4d"/><path d="m734.57 517.81.83 2.52-87.45 28.87v-64.49l86.62 28.9z" fill="#abda4d"/><path d="m575.32 460.49-46.16 15.1v-30.5z" fill="#abda4d"/><path d="m647.95 484.71v64.49l-118.32 39.06-.47-1.41v-111.26l46.16-15.1z" fill="#abda4d"/><path d="m529.16 445.09v30.5l-123.48 40.4v-43.9l105.82-32.17 1.13-.34z" fill="#abda4d"/><path d="m529.16 586.85.47 1.41-123.95 40.92v-113.19l123.48-40.4z" fill="#abda4d"/><g fill="none"><path d="m304.96 774.06 421.41-139.58 25.12-115.23-16.92-5.64-86.62-28.9-72.63-24.22-46.16-15.4-16.53-5.51-1.13.34-105.82 32.17-112.59 34.22-56.56 17.2-40.92 12.43-84.52 25.7-4.76 1.44-5.88 1.79 26.91 114.47z" stroke="#231f20" stroke-width="21"/><path d="m292.83 666.44 112.85-37.26 123.95-40.92 118.32-39.06 87.45-28.87 3.26-1.08" stroke="#231f20" stroke-width="21"/><path d="m734.57 149.4-91.53 28.56-114.81 35.83-18.27 5.7-106.14 33.12-110.39 34.45-.21 138.02-.13 81.23-.07 46.19-.17 107.64" stroke="#231f20" stroke-width="21"/><path d="m734.57 517.81v-4.2-105.22-119.33-139.66-8.16" stroke="#231f20" stroke-width="21"/><path d="m117.49 194.75 81.98 43.01 93.96 49.3" stroke="#231f20" stroke-width="21"/><path d="m325.88 128.94-112.69 32.52-97.21 28.04-5.37 1.55-7.8 2.25" stroke="#231f20" stroke-width="21"/><path d="m734.57 149.4-133.66-43.75-91.02-29.79-77.06 22.23-106.94 30.85" stroke="#231f20" stroke-width="21"/><path d="m106.87 564.87 86.96 47.5 96.37 52.63 2.63 1.44 12.13 107.62" stroke="#231f20" stroke-width="21"/><path d="m110.61 186.69v4.36 137.95 129.89 101.18" stroke="#231f20" stroke-width="21"/><path d="m509.96 84.19v43.21 8.18 70.55 13.36 138.88 76.47" stroke="#231f20" stroke-width="21"/><path d="m647.95 552.51v-3.31-64.49-47.98-120.94-135.96l-4.91-1.87-121.54-46.18-11.54-4.38-77.13-29.31" stroke="#231f20" stroke-width="14"/><path d="m529.16 586.85v-111.26-30.5-92.64-138.27l-.93-.39-18.27-7.66-94.26-39.53-89.81-37.66h-.01" stroke="#231f20" stroke-width="14"/><path d="m405.68 629.18v-113.19-43.9-81.54-137.09l-1.86-.85-104.78-47.62-84.35-38.34" stroke="#231f20" stroke-width="14"/><path d="m195.61 609.1v-73.16-33.43-128.79-134.69l3.86-1.27 99.57-32.77 116.66-38.39 94.26-31.02 11.54-3.8 79.41-26.13 7.18-2.36" stroke="#231f20" stroke-width="14"/><path d="m734.57 289.06-86.62 26.73-118.79 36.66-19.2 5.92-104.28 32.18-112.25 34.64-.21-.11-97.61-51.36-85-44.72" stroke="#231f20" stroke-width="14"/><path d="m734.57 408.39-86.62 28.34-72.63 23.76-46.16 15.1-123.48 40.4-112.25 36.72-.41-.21-56.49-28.99-40.92-21-85-43.62" stroke="#231f20" stroke-width="14"/><path d="m0 0h850.394v850.394h-850.394z"/></g></svg>