<svg enable-background="new 0 0 850.394 850.394" height="850.394" viewBox="0 0 850.394 850.394" width="850.394" xmlns="http://www.w3.org/2000/svg"><path d="m718.46 177.25 35.66 35.71-11.68 43.16-.44-.12-49.81-17.67-40.22 53.07-1.08 1.43-24.72-15.55 1.08-1.71 40.07-84.56.79-.49 3.42 5.53z" fill="#ffeec8"/><path d="m742.44 256.12-108.77 401.74c-6.58 28.83-30 51.6-72.84 66.06l92.92-431.17-1.78-1.35 40.221-53.07 49.809 17.67z" fill="#ffeec8"/><path d="m647.13 156.58 20.98 33.94-.79.49-40.07 84.56-1.08 1.71-32.98-20.75-46.23 56.46-1.19 1.45-8.15-3.57.38-.87 42.05-136.06 2.66-1.96 1.55 2.1z" fill="#ffeec8"/><path d="m653.75 292.75-92.92 431.17c-19.99 6.75-44.2 11.68-72.9 14.58l-.42-4.13 61.12-420.01-1.67-1.37 46.23-56.46 32.979 20.75 24.72 15.55 1.08-1.43z" fill="#ffeec8"/><path d="m582.71 171.98-2.66 1.96-42.05 136.06-.38.87-55.12-24.11 1.17-2.68 17.07-130.16 4.35 3.89 48.19-25.66z" fill="#ffeec8"/><path d="m420.5 331.15 60.45-45.07 1.55.68 55.12 24.11 8.149 3.57 1.19-1.45 1.67 1.37-61.12 420.01.42 4.13c-19.67 1.99-41.449 3.02-65.42 3.02-57.23 0-101.02-5.14-134.02-16.84l.39-1.109-89.12-427.76 19.43-12.23 38.27-24.07 47.41 57.91 57.91-25.34 6.91-3.02z" fill="#ffeec8"/><path d="m420.5 164.03 48.23-38.76 32.01 28.65-17.07 130.16-1.17 2.68-1.55-.68-60.45 45.07-50.81-42.09-6.91 3.02-17.22-131.3 36.36-32.54z" fill="#ffeec8"/><path d="m345.56 160.78 17.22 131.3-57.91 25.34-47.41-57.91-38.27 24.07-40.07-84.56 24.39-39.47 62.88 17.5 30.97-41.93z" fill="#ffeec8"/><path d="m199.76 295.81 89.12 427.76-.39 1.109c-44.22-15.67-69.07-43.1-80.92-85.67l-100.13-381.469 51.02-16.23z" fill="#ffeec8"/><path d="m219.19 283.58-19.43 12.23-41.3-54.5-51.02 16.23-10.92-41.61 35.67-35.7 46.93 18.79z" fill="#ffeec8"/><g fill="none"><path d="m106 258 1.44-.46 51.02-16.23 41.3 54.5 19.43-12.23 38.27-24.07 47.41 57.91 57.91-25.34 6.91-3.02 50.81 42.09" stroke="#231f20" stroke-width="21"/><path d="m420.5 164.03 48.23-38.76 32.01 28.65 4.35 3.89 48.19-25.66 29.43 39.83 1.55 2.1 62.87-17.5 20.98 33.94 3.42 5.53 46.93-18.8 35.66 35.71-11.68 43.16-108.77 401.74c-6.58 28.83-30 51.6-72.84 66.06-19.99 6.75-44.2 11.68-72.9 14.58-19.67 1.99-41.449 3.02-65.42 3.02-57.23 0-101.02-5.14-134.02-16.84-44.22-15.67-69.07-43.1-80.92-85.67l-100.13-381.47-10.92-41.61 35.67-35.7 46.93 18.79 24.39-39.47 62.88 17.5 30.97-41.93 48.2 25.66 36.36-32.54z" stroke="#231f20" stroke-width="21"/><path d="m742 256-49.81-17.67-40.22 53.07-1.08 1.43-24.72-15.55-32.98-20.75-46.23 56.46-1.19 1.45-8.15-3.57-55.12-24.11-1.55-.68-60.45 45.07 2.01 403.02" stroke="#231f20" stroke-width="21"/><path d="m199.76 295.81 89.12 427.76" stroke="#231f20" stroke-width="21"/><path d="m304.87 317.42 61.13 412.65" stroke="#231f20" stroke-width="21"/><path d="m653.75 292.75-92.92 431.17-.1.48" stroke="#231f20" stroke-width="21"/><path d="m548.63 314.36-61.12 420.01" stroke="#231f20" stroke-width="21"/><path d="m420.5 158.69v5.34 152.61" stroke="#231f20" stroke-width="21"/><path d="m179.12 199.02 40.07 84.56" stroke="#231f20" stroke-width="21"/><path d="m266.39 181.95 39.02 123.67" stroke="#231f20" stroke-width="21"/><path d="m345.56 160.78 17.22 131.3" stroke="#231f20" stroke-width="21"/><path d="m667.32 191.01-40.07 84.56" stroke="#231f20" stroke-width="21"/><path d="m580.05 173.94-42.05 136.06" stroke="#231f20" stroke-width="21"/><path d="m500.89 152.77-.15 1.15-17.07 130.16" stroke="#231f20" stroke-width="21"/><path d="m0 0h850.394v850.394h-850.394z"/></g></svg>