<svg enable-background="new 0 0 850.673 850.673" height="850.673" viewBox="0 0 850.673 850.673" width="850.673" xmlns="http://www.w3.org/2000/svg"><path d="m711.37 131.45v665.389h-563.24l515.52-49.92z" fill="#0b00ea"/><path d="m198.75 123.76h438.03v222.46h-438.03z" fill="#00e800"/><path d="m603.23 424.51c.3 1.69 1 2.99 1.899 3.79 1 .801 2.29 1.2 3.891 1.2 1.7 0 3-.3 3.899-1.1.801-.7 1.301-1.5 1.301-2.5 0-.6-.2-1.2-.601-1.59-.3-.4-1-.8-1.899-1.1-.601-.3-2-.6-4.301-1.2-2.779-.7-4.79-1.6-5.979-2.6-1.601-1.49-2.4-3.19-2.4-5.29 0-1.4.3-2.6 1.101-3.8.8-1.19 1.89-2.09 3.3-2.69 1.39-.6 3.189-.9 5.18-.9 3.3 0 5.79.7 7.49 2.2 1.7 1.39 2.6 3.39 2.7 5.79l-5.391.2c-.21-1.3-.699-2.3-1.5-2.89-.689-.6-1.8-.91-3.3-.91-1.6 0-2.79.31-3.689 1-.601.4-.79.9-.79 1.6 0 .6.189 1.2.79 1.6.6.6 2.3 1.2 4.89 1.8 2.6.6 4.5 1.2 5.7 1.89 1.29.6 2.29 1.5 2.99 2.7.699 1.1.989 2.49.989 4.19 0 1.5-.39 2.899-1.18 4.189-.91 1.4-2.1 2.301-3.6 3-1.601.601-3.49.9-5.801.9-3.29 0-5.88-.7-7.68-2.3-1.8-1.49-2.8-3.79-3.2-6.69z"/><path d="m513.27 626.4h64.1v58.91h-64.1z" fill="#fff400"/><path d="m513.27 567.69h64.1v58.71h-64.1z" fill="#fff400"/><path d="m513.27 508.98h64.1v58.71h-64.1z" fill="#fff400"/><path d="m513.27 450.06h64.1v58.92h-64.1z" fill="#fff400"/><path d="m539.33 424.51c.3 1.69.9 2.99 1.891 3.79 1.01.801 2.31 1.2 3.909 1.2 1.69 0 2.99-.3 3.891-1.1.8-.7 1.29-1.5 1.29-2.5 0-.6-.19-1.2-.59-1.59-.311-.4-1.011-.8-1.9-1.1-.6-.3-2-.6-4.29-1.2-2.8-.7-4.8-1.6-6-2.6-1.59-1.49-2.39-3.19-2.39-5.29 0-1.4.29-2.6 1.09-3.8.8-1.19 1.899-2.09 3.3-2.69s3.2-.9 5.19-.9c3.3 0 5.8.7 7.489 2.2 1.7 1.39 2.601 3.39 2.601 5.79l-5.3.2c-.19-1.3-.69-2.3-1.49-2.89-.7-.6-1.8-.91-3.3-.91-1.591 0-2.79.31-3.69 1-.6.4-.8.9-.8 1.6 0 .6.2 1.2.8 1.6.59.6 2.29 1.2 4.89 1.8 2.601.6 4.49 1.2 5.69 1.89 1.3.6 2.3 1.5 2.99 2.7.699 1.1 1.01 2.49 1.01 4.19 0 1.5-.4 2.899-1.2 4.189-.899 1.4-2.1 2.301-3.6 3-1.59.601-3.49.9-5.79.9-3.29 0-5.891-.7-7.69-2.3-1.79-1.49-2.79-3.79-3.189-6.69z"/><path d="m601.24 431.69c1.8 1.6 4.39 2.3 7.68 2.3 2.311 0 4.2-.3 5.801-.9 1.5-.699 2.689-1.6 3.6-3 .79-1.29 1.18-2.689 1.18-4.189 0-1.7-.29-3.09-.989-4.19-.7-1.2-1.7-2.1-2.99-2.7-1.2-.69-3.101-1.29-5.7-1.89-2.59-.6-4.29-1.2-4.89-1.8-.601-.4-.79-1-.79-1.6 0-.7.189-1.2.79-1.6.899-.69 2.09-1 3.689-1 1.5 0 2.61.31 3.3.91.801.59 1.29 1.59 1.5 2.89l5.391-.2c-.101-2.4-1-4.4-2.7-5.79-1.7-1.5-4.19-2.2-7.49-2.2-1.99 0-3.79.3-5.18.9-1.41.6-2.5 1.5-3.3 2.69-.801 1.2-1.101 2.4-1.101 3.8 0 2.1.8 3.8 2.4 5.29 1.189 1 3.2 1.9 5.979 2.6 2.301.6 3.7.9 4.301 1.2.899.3 1.6.7 1.899 1.1.4.39.601.99.601 1.59 0 1-.5 1.8-1.301 2.5-.899.8-2.199 1.1-3.899 1.1-1.601 0-2.891-.399-3.891-1.2-.899-.8-1.6-2.1-1.899-3.79l-5.19.49c.399 2.899 1.399 5.199 3.199 6.689zm-63.91 0c1.8 1.6 4.4 2.3 7.69 2.3 2.3 0 4.2-.3 5.79-.9 1.5-.699 2.7-1.6 3.6-3 .8-1.29 1.2-2.689 1.2-4.189 0-1.7-.311-3.09-1.01-4.19-.69-1.2-1.69-2.1-2.99-2.7-1.2-.69-3.09-1.29-5.69-1.89s-4.3-1.2-4.89-1.8c-.6-.4-.8-1-.8-1.6 0-.7.2-1.2.8-1.6.9-.69 2.1-1 3.69-1 1.5 0 2.6.31 3.3.91.8.59 1.3 1.59 1.49 2.89l5.3-.2c0-2.4-.9-4.4-2.601-5.79-1.689-1.5-4.189-2.2-7.489-2.2-1.99 0-3.79.3-5.19.9s-2.5 1.5-3.3 2.69c-.8 1.2-1.09 2.4-1.09 3.8 0 2.1.8 3.8 2.39 5.29 1.2 1 3.2 1.9 6 2.6 2.29.6 3.69.9 4.29 1.2.89.3 1.59.7 1.9 1.1.399.39.59.99.59 1.59 0 1-.49 1.8-1.29 2.5-.9.8-2.2 1.1-3.891 1.1-1.6 0-2.899-.399-3.909-1.2-.99-.8-1.591-2.1-1.891-3.79l-5.189.489c.4 2.9 1.4 5.2 3.19 6.69zm-176.83-365.54h50.93 46.42 46.939 47.42 47.431 47.13 46.43 18.17v65.3l-47.72 615.47-515.52 49.92h-8.39v-730.69h32.55 46.43 46.93 47.42zm88.77 383.91h-64.11-64-64.1v58.92 58.71 58.71 58.91h64.1 64 64.11 64 64.1v-58.91-58.71-58.71-58.92h-64.1zm187.51-103.84v-222.46h-438.03v222.46zm-145.77 66.6v-4.49h-18.08v26.36h5.3v-11.18h10.97v-4.5h-10.97v-6.19zm-63.51 0v-4.49h-21.07v4.49h7.89v21.87h5.29v-21.87zm-64.9 21.87 6.39-26.36h-5.39l-4.1 18.47-4.59-18.47h-6.39l-4.79 18.17-3.9-18.17h-5.49l6.29 26.36h5.79l5.19-19.67 5.3 19.67zm-62.71-21.87v-4.49h-20.96v4.49h7.89v21.87h5.29v-21.87zm-62.8 21.87v-26.36h-7.99l-4.79 17.97-4.69-17.97h-7.99v26.36h4.89v-20.77l5.19 20.77h5.2l5.19-20.77v20.77z" fill="#fff400"/><path d="m449.27 626.4h64v58.91h-64z" fill="#fff400"/><path d="m449.27 567.69h64v58.71h-64z" fill="#fff400"/><path d="m449.27 508.98h64v58.71h-64z" fill="#fff400"/><path d="m449.27 450.06h64v58.92h-64z" fill="#fff400"/><path d="m491.01 408.33v4.49h-12.78v6.19h10.97v4.5h-10.97v11.18h-5.3v-26.36z"/><path d="m385.16 626.4h64.11v58.91h-64.11z" fill="#fff400"/><path d="m385.16 567.69h64.11v58.71h-64.11z" fill="#fff400"/><path d="m385.16 508.98h64.11v58.71h-64.11z" fill="#fff400"/><path d="m385.16 450.06h64.11v58.92h-64.11z" fill="#fff400"/><path d="m427.5 408.33v4.49h-7.89v21.87h-5.29v-21.87h-7.89v-4.49z"/><path d="m321.16 626.4h64v58.91h-64z" fill="#fff400"/><path d="m321.16 567.69h64v58.71h-64z" fill="#fff400"/><path d="m321.16 508.98h64v58.71h-64z" fill="#fff400"/><path d="m321.16 450.06h64v58.92h-64z" fill="#fff400"/><path d="m368.99 408.33-6.39 26.36h-5.69l-5.3-19.67-5.19 19.67h-5.79l-6.29-26.36h5.49l3.9 18.17 4.79-18.17h6.39l4.59 18.469 4.1-18.469z"/><path d="m257.06 626.4h64.1v58.91h-64.1z" fill="#fff400"/><path d="m257.06 567.69h64.1v58.71h-64.1z" fill="#fff400"/><path d="m257.06 508.98h64.1v58.71h-64.1z" fill="#fff400"/><path d="m257.06 450.06h64.1v58.92h-64.1z" fill="#fff400"/><path d="m299.89 408.33v4.49h-7.78v21.87h-5.29v-21.87h-7.89v-4.49z"/><path d="m237.09 408.33v26.36h-4.99v-20.77l-5.19 20.77h-5.2l-5.19-20.77v20.77h-4.89v-26.36h7.99l4.69 17.969 4.79-17.969z"/><g fill="none"><path d="m711.37 131.45v665.389h-563.24-8.39v-730.689h32.55 46.43 46.93 47.42 47.43 50.93 46.42 46.94 47.419 47.431 47.13 46.43 18.17z" stroke="#000" stroke-width="27.6602"/><path d="m711.37 131.45-47.72 615.469-515.52 49.92" stroke="#000" stroke-width="27.6602"/><path d="m198.75 123.76h438.03v222.46h-438.03z" stroke="#000" stroke-width="27.6602"/><path d="m172.29 52.27v13.88 10.39" stroke="#000" stroke-linecap="round" stroke-linejoin="round" stroke-width="36.8802"/><path d="m218.72 52.27v13.88 10.39" stroke="#000" stroke-linecap="round" stroke-linejoin="round" stroke-width="36.8802"/><path d="m265.65 52.27v13.88 10.39" stroke="#000" stroke-linecap="round" stroke-linejoin="round" stroke-width="36.8802"/><path d="m313.07 52.07v14.08 10.18" stroke="#000" stroke-linecap="round" stroke-linejoin="round" stroke-width="36.8802"/><path d="m360.5 51.87v14.28 9.98" stroke="#000" stroke-linecap="round" stroke-linejoin="round" stroke-width="36.8802"/><path d="m411.43 52.27v13.88 10.39" stroke="#000" stroke-linecap="round" stroke-linejoin="round" stroke-width="36.8802"/><path d="m457.85 52.27v13.88 10.39" stroke="#000" stroke-linecap="round" stroke-linejoin="round" stroke-width="36.8802"/><path d="m504.79 52.27v13.88 10.39" stroke="#000" stroke-linecap="round" stroke-linejoin="round" stroke-width="36.8802"/><path d="m552.209 52.07v14.08 10.18" stroke="#000" stroke-linecap="round" stroke-linejoin="round" stroke-width="36.8802"/><path d="m599.64 51.87v14.28 9.98" stroke="#000" stroke-linecap="round" stroke-linejoin="round" stroke-width="36.8802"/><path d="m646.77 52.37v13.78 10.39" stroke="#000" stroke-linecap="round" stroke-linejoin="round" stroke-width="36.8802"/><path d="m693.2 52.37v13.78 10.39" stroke="#000" stroke-linecap="round" stroke-linejoin="round" stroke-width="36.8802"/><path d="m193.06 685.31h64 64.1 64 64.11 64 64.1 64.009" stroke="#000" stroke-width="9.9848"/><path d="m193.06 626.4h64 64.1 64 64.11 64 64.1 64.009" stroke="#000" stroke-width="9.9848"/><path d="m193.06 567.69h64 64.1 64 64.11 64 64.1 64.009" stroke="#000" stroke-width="9.9848"/><path d="m193.06 508.98h64 64.1 64 64.11 64 64.1 64.009" stroke="#000" stroke-width="9.9848"/><path d="m193.06 450.06h64 64.1 64 64.11 64 64.1 64.009" stroke="#000" stroke-width="9.9848"/><path d="m577.37 391.35v58.71 58.92 58.71 58.71 58.91 58.71" stroke="#000" stroke-width="9.9848"/><path d="m513.27 391.35v58.71 58.92 58.71 58.71 58.91 58.71" stroke="#000" stroke-width="9.9848"/><path d="m449.27 391.35v58.71 58.92 58.71 58.71 58.91 58.71" stroke="#000" stroke-width="9.9848"/><path d="m385.16 391.35v58.71 58.92 58.71 58.71 58.91 58.71" stroke="#000" stroke-width="9.9848"/><path d="m321.16 391.35v58.71 58.92 58.71 58.71 58.91 58.71" stroke="#000" stroke-width="9.9848"/><path d="m257.06 391.35v58.71 58.92 58.71 58.71 58.91 58.71" stroke="#000" stroke-width="9.9848"/><path d="m237.09 434.69h-4.99v-20.77l-5.19 20.77h-5.2l-5.19-20.77v20.77h-4.89v-26.36h7.99l4.69 17.969 4.79-17.969h7.99z" stroke="#000" stroke-width="2.4962"/><path d="m299.89 412.82h-7.78v21.87h-5.29v-21.87h-7.89v-4.49h20.96z" stroke="#000" stroke-width="2.4962"/><path d="m427.5 412.82h-7.89v21.87h-5.29v-21.87h-7.89v-4.49h21.07z" stroke="#000" stroke-width="2.4962"/><path d="m491.01 412.82h-12.78v6.19h10.97v4.5h-10.97v11.18h-5.3v-26.36h18.08z" stroke="#000" stroke-width="2.4962"/><path d="m534.14 425 5.189-.49c.3 1.69.9 2.99 1.891 3.79 1.01.801 2.31 1.2 3.909 1.2 1.69 0 2.99-.3 3.891-1.1.8-.7 1.29-1.5 1.29-2.5 0-.6-.19-1.2-.59-1.59-.311-.4-1.011-.8-1.9-1.1-.6-.3-2-.6-4.29-1.2-2.8-.7-4.8-1.6-6-2.6-1.59-1.49-2.39-3.19-2.39-5.29 0-1.4.29-2.6 1.09-3.8.8-1.19 1.899-2.09 3.3-2.69s3.2-.9 5.19-.9c3.3 0 5.8.7 7.489 2.2 1.7 1.39 2.601 3.39 2.601 5.79l-5.3.2c-.19-1.3-.69-2.3-1.49-2.89-.7-.6-1.8-.91-3.3-.91-1.591 0-2.79.31-3.69 1-.6.4-.8.9-.8 1.6 0 .6.2 1.2.8 1.6.59.6 2.29 1.2 4.89 1.8 2.601.6 4.49 1.2 5.69 1.89 1.3.6 2.3 1.5 2.99 2.7.699 1.1 1.01 2.49 1.01 4.19 0 1.5-.4 2.899-1.2 4.189-.899 1.4-2.1 2.301-3.6 3-1.59.601-3.49.9-5.79.9-3.29 0-5.891-.7-7.69-2.3-1.79-1.489-2.79-3.789-3.19-6.689z" stroke="#000" stroke-width="2.4962"/><path d="m598.04 425 5.19-.49c.3 1.69 1 2.99 1.899 3.79 1 .801 2.29 1.2 3.891 1.2 1.7 0 3-.3 3.899-1.1.801-.7 1.301-1.5 1.301-2.5 0-.6-.2-1.2-.601-1.59-.3-.4-1-.8-1.899-1.1-.601-.3-2-.6-4.301-1.2-2.779-.7-4.79-1.6-5.979-2.6-1.601-1.49-2.4-3.19-2.4-5.29 0-1.4.3-2.6 1.101-3.8.8-1.19 1.89-2.09 3.3-2.69 1.39-.6 3.189-.9 5.18-.9 3.3 0 5.79.7 7.49 2.2 1.7 1.39 2.6 3.39 2.7 5.79l-5.391.2c-.21-1.3-.699-2.3-1.5-2.89-.689-.6-1.8-.91-3.3-.91-1.6 0-2.79.31-3.689 1-.601.4-.79.9-.79 1.6 0 .6.189 1.2.79 1.6.6.6 2.3 1.2 4.89 1.8 2.6.6 4.5 1.2 5.7 1.89 1.29.6 2.29 1.5 2.99 2.7.699 1.1.989 2.49.989 4.19 0 1.5-.39 2.899-1.18 4.189-.91 1.4-2.1 2.301-3.6 3-1.601.601-3.49.9-5.801.9-3.29 0-5.88-.7-7.68-2.3-1.799-1.489-2.799-3.789-3.199-6.689z" stroke="#000" stroke-width="2.4962"/><path d="m362.6 434.69h-5.69l-5.3-19.67-5.19 19.67h-5.79l-6.29-26.36h5.49l3.9 18.17 4.79-18.17h6.39l4.59 18.469 4.1-18.469h5.39z" stroke="#000" stroke-width="2.4962"/><path d="m.25.25h850.423v850.423h-850.423z"/></g></svg>