<svg enable-background="new 0 0 850.394 850.394" height="850.394" viewBox="0 0 850.394 850.394" width="850.394" xmlns="http://www.w3.org/2000/svg"><path d="m696.88 111.76v119.33h-.22v-.44h-135.44-135.44-135.44-135.44v-118.89z" fill="#ff001c"/><path d="m561.22 636.97h135.44v135.44h-135.44z" fill="#fff"/><path d="m561.22 501.53h135.44v135.439h-135.44z" fill="#fff"/><path d="m561.22 366.09h135.44v135.44h-135.44z" fill="#fff"/><path d="m561.22 231.09h135.44v135h-135.44z" fill="#fff"/><path d="m425.78 636.97h135.44v135.44h-135.44z" fill="#fff"/><path d="m425.78 501.53h135.44v135.439h-135.44z" fill="#fff"/><path d="m425.78 366.09h135.44v135.44h-135.44z" fill="#fff"/><path d="m425.78 231.09h135.44v135h-135.44z" fill="#fff"/><path d="m290.34 636.97h135.44v135.44h-135.44z" fill="#fff"/><path d="m290.34 501.53h135.44v135.439h-135.44z" fill="#fff"/><path d="m290.34 366.09h135.44v135.44h-135.44z" fill="#fff"/><path d="m290.34 231.09h135.44v135h-135.44z" fill="#fff"/><path d="m154.9 636.97h135.44v135.44h-135.44z" fill="#fff"/><path d="m154.9 501.53h135.44v135.439h-135.44z" fill="#fff"/><path d="m154.9 366.09h135.44v135.44h-135.44z" fill="#fff"/><path d="m154.9 231.09h135.44v135h-135.44z" fill="#fff"/><g fill="none"><path d="m154.9 230.65h135.44 135.44 135.44 135.44v.44 135 135.44 135.44 135.44h-135.44-135.44-135.44-135.44v-135.44-135.44-135.44-135" stroke="#231f20" stroke-width="21"/><path d="m154.9 636.97h135.44 135.44 135.44 135.44" stroke="#231f20" stroke-width="21"/><path d="m154.9 501.53h135.44 135.44 135.44 135.44" stroke="#231f20" stroke-width="21"/><path d="m154.9 366.09h135.44 135.44 135.44 135.44" stroke="#231f20" stroke-width="21"/><path d="m561.22 230.65v.44 135 135.44 135.44 135.44" stroke="#231f20" stroke-width="21"/><path d="m425.78 230.65v.44 135 135.44 135.44 135.44" stroke="#231f20" stroke-width="21"/><path d="m290.34 230.65v.44 135 135.44 135.44 135.44" stroke="#231f20" stroke-width="21"/><path d="m154.9 230.65v-118.89h541.98v119.33h-.22-135.44-135.44-135.44-135.44z" stroke="#231f20" stroke-width="21"/><path d="m176.79 82.73v21.22" stroke="#231f20" stroke-linecap="round" stroke-linejoin="round" stroke-width="27.8716"/><path d="m225.56 82.73v21.22" stroke="#231f20" stroke-linecap="round" stroke-linejoin="round" stroke-width="27.8716"/><path d="m275.5 82.82v21.21" stroke="#231f20" stroke-linecap="round" stroke-linejoin="round" stroke-width="27.8716"/><path d="m324.27 82.98v21.21" stroke="#231f20" stroke-linecap="round" stroke-linejoin="round" stroke-width="27.8716"/><path d="m374.21 83.31v21.21" stroke="#231f20" stroke-linecap="round" stroke-linejoin="round" stroke-width="27.8716"/><path d="m425.78 83.46v21.21" stroke="#231f20" stroke-linecap="round" stroke-linejoin="round" stroke-width="27.8716"/><path d="m474.56 83.46v21.21" stroke="#231f20" stroke-linecap="round" stroke-linejoin="round" stroke-width="27.8716"/><path d="m524.49 83.54v21.21" stroke="#231f20" stroke-linecap="round" stroke-linejoin="round" stroke-width="27.8716"/><path d="m573.26 83.71v21.21" stroke="#231f20" stroke-linecap="round" stroke-linejoin="round" stroke-width="27.8716"/><path d="m623.2 84.04v21.21" stroke="#231f20" stroke-linecap="round" stroke-linejoin="round" stroke-width="27.8716"/><path d="m675.32 82.83v21.21" stroke="#231f20" stroke-linecap="round" stroke-linejoin="round" stroke-width="27.8716"/><path d="m0 0h850.394v850.394h-850.394z"/></g></svg>