<svg enable-background="new 0 0 850.394 850.394" height="850.394" viewBox="0 0 850.394 850.394" width="850.394" xmlns="http://www.w3.org/2000/svg"><path d="m249.7 310.15c-3.13.29-6.65.63-10.47.99-.01 0-.01 0-.01 0-6.32.6-13.48 1.29-21.11 2.03l-8.83-25.65-.25-2.79 18.06-1.64s13.65 12.03 22.61 27.06z" fill="#787878"/><path d="m150.95 290 .03.35-10.38 30.12.02.25c-10.01.98-18.43 1.8-24.05 2.35l-.21-3.29 11.34-27.67z" fill="#787878"/><path d="m209.28 287.52 8.83 25.65c-25.08 2.42-55.24 5.37-77.49 7.55l-.02-.25 10.38-30.12-.03-.35 58.08-5.27z" fill="#f73900"/><path d="m119.08 489.05v21.72l-34.91-.77h-2.33v-20.95z" fill="#f73900"/><path d="m257.9 488.92c6.17 20.3-9.66 23.021-9.66 23.021l-64-.391v-18.62-3.88h67.49s2.52.01 6.17-.13z" fill="#f73900"/><path d="m310.11 440.37.1 2.189c-22.08 1.921-25.13 32.53-25.13 32.53l-24.5 2.45-.32-3.23v-16.75-16.6-17.84h-23.27l-155.92 6.71c-.48-6.11-.78-12.13-.78-17.58 0-4.79.95-10.76 2.5-17.32l3.38.81s123.67-6.76 143.06-6.76c9.42 0 13.72-4.02 16.08-11.63h61.42c.54 7.1.85 11.97.85 11.97z" fill="#33a02c"/><path d="m306.73 377.35h-61.42c2.52-8.05 2.87-20.12 4.87-35.69 3.82-29.77-10.5-30.5-10.95-30.52 3.82-.36 7.34-.7 10.47-.99 6.98-.66 12.02-1.12 14.24-1.29 14.77-1.18 30.46 9.53 35.11 14.18 3.34 3.35 6.29 36.14 7.68 54.31z" fill="#fff"/><path d="m218.11 313.17c7.63-.74 14.79-1.43 21.11-2.03h.01c.45.02 14.77.75 10.95 30.52-2 15.57-2.35 27.64-4.87 35.69-2.36 7.61-6.66 11.63-16.08 11.63-19.39 0-143.06 6.76-143.06 6.76l-3.38-.81c6.98-29.55 26.2-71.11 26.2-71.11s2.77-.27 7.58-.75c5.62-.55 14.04-1.37 24.05-2.35 22.25-2.18 52.41-5.13 77.49-7.55z" fill="#fff"/><path d="m260.26 423.12v17.84l-177.64 4.76c-.6-5.17-1.14-10.569-1.55-15.89l155.92-6.71z" fill="#c8c8c8"/><path d="m260.26 440.96v16.6l-175.49 4.71c-.7-4.88-1.46-10.56-2.15-16.55z" fill="#c8c8c8"/><path d="m260.26 474.31.32 3.23-6.53.65h-166.78s-1.14-6.471-2.5-15.921l175.49-4.71z" fill="#c8c8c8"/><path d="m523.38 435.98 42.76 7.42 3.89 25.16-121.47-17.33-91.27-13.02-28.41-4.05-2.17-32.31 6.54 1.14 97.53 16.92 36.74 6.38z" fill="#787878"/><path d="m620.34 452.81-6.53 22-9.66-1.38-34.12-4.87-3.89-25.16z" fill="#787878"/><path d="m770.08 478.8-6.52 22-149.75-25.99 6.53-22 5.5.96z" fill="#787878"/><path d="m141.7 572.83s-17.02 1.5-31.03-.771c-9.81-1.6-12.84-23.6-13.68-32.64 6.32.37 14.54.771 24.53 1.09 2.46 18.641 10.57 32.321 20.18 32.321z" fill="#787878"/><path d="m157.09 541.03h4.67v.37c-2.6 18.189-10.6 31.43-20.06 31.43-9.61 0-17.72-13.68-20.18-32.32 10.09.3 22 .52 35.57.52z" fill="#787878"/><path d="m287.62 484.4h26.17c-11.57 0-20.95 19.79-20.95 44.21 0 24.43 9.38 44.22 20.95 44.22 0 0-17.02 1.5-31.03-.771-12.37-2.02-13.97-36.47-13.97-36.47l-2.9-.09c.04-1.13.07-2.4.11-3.78l15.21-5.43 3.18-42.13z" fill="#787878"/><path d="m313.79 484.4c11.21 0 20.35 18.569 20.91 41.93.02.76.03 1.52.03 2.28 0 24.43-9.37 44.22-20.94 44.22s-20.95-19.79-20.95-44.22c0-24.42 9.38-44.21 20.95-44.21z" fill="#787878"/><path d="m428 471.7h30.25c-10.02 0-18.14 17.14-18.14 38.3s8.12 38.3 18.14 38.3c0 0-14.74 1.29-26.87-.68-7.99-1.3-10.79-18.24-11.69-26.75l.37-.021c0 .001-3.71-27.969 7.94-49.149z" fill="#787878"/><path d="m523.29 502.96c.32 2.63.49 5.4.49 8.25 0 18.37-7.061 33.25-15.761 33.25-8.699 0-15.75-14.88-15.75-33.25 0-22.11 7.051-33.25 15.75-33.25 7.351 0 13.531 10.62 15.271 25z" fill="#787878"/><path d="m476.4 510c0 1.48-.04 2.94-.12 4.37v.06c-1.04 19.07-8.721 33.87-18.03 33.87-10.02 0-18.14-17.14-18.14-38.3s8.12-38.3 18.14-38.3 18.15 17.14 18.15 38.3z" fill="#787878"/><path d="m284.39 484.16-3.18 42.13-15.21 5.43c-.04 1.38-.07 2.65-.11 3.78-.1 3.4-.2 5.53-.2 5.53s-52.43 0-103.93 0c-1.56 0-3.12 0-4.67 0-13.57 0-25.48-.221-35.57-.521-9.99-.319-18.21-.72-24.53-1.09-9.92-.59-15.15-1.11-15.15-1.11v-28.309h2.33l34.91.77v-21.72h65.16v3.88 18.62l64 .391s15.83-2.721 9.66-23.021c9.13-.38 25.3-1.77 26.66-6.979z"/><path d="m570.03 468.56 34.12 4.87-.24 1.66v31.021l-80.13 5.1c0-2.85-.17-5.62-.49-8.25-1.74-14.38-7.92-25-15.271-25-8.699 0-15.75 11.14-15.75 33.25 0 18.37 7.051 33.25 15.75 33.25 0 0-12.8 1.13-23.34-.58-9.029-1.479-8.439-27.96-8.399-29.45 0-.04 0-.06 0-.06.08-1.43.12-2.89.12-4.37 0-21.16-8.131-38.3-18.15-38.3h-30.25c4.33-7.88 10.79-14.811 20.35-19.021l.21-1.449z" fill="#33a02c"/><path d="m428 471.7c-11.65 21.18-7.94 49.149-7.94 49.149l-.37.021-81.86 5.42-3.13.04c-.56-23.36-9.7-41.93-20.91-41.93h-26.17l-3.23-.24.17-2.22.52-6.851s3.05-30.609 25.13-32.53c2.17-.18 4.52-.09 7.07.33 13.37 2.221 20.13 16.23 23.14 28.99l16.81-3.78v-29.479l.06-.41 91.27 13.021-.21 1.449c-9.56 4.21-16.02 11.14-20.35 19.02z" fill="#33a02c"/><g fill="none"><path d="m239.22 311.14c-6.32.6-13.48 1.29-21.11 2.03-25.08 2.42-55.24 5.37-77.49 7.55-10.01.98-18.43 1.8-24.05 2.35-4.81.48-7.58.75-7.58.75s-19.22 41.56-26.2 71.11c-1.55 6.56-2.5 12.53-2.5 17.32 0 5.45.3 11.47.78 17.58.41 5.32.95 10.72 1.55 15.89.69 5.99 1.45 11.67 2.15 16.55 1.36 9.45 2.5 15.921 2.5 15.921h166.78l6.53-.65 24.5-2.45s3.05-30.609 25.13-32.53c2.17-.18 4.52-.09 7.07.33 13.37 2.221 20.13 16.23 23.14 28.99 1.5 6.3 2.07 12.29 2.07 16.4" stroke="#231f20" stroke-width="14"/><path d="m307.58 389.32s-.31-4.87-.85-11.97c-1.39-18.17-4.34-50.96-7.68-54.31-4.65-4.65-20.34-15.36-35.11-14.18-2.22.17-7.26.63-14.24 1.29-3.13.29-6.65.63-10.47.99" stroke="#231f20" stroke-width="14"/><path d="m239.22 311.14h.01c.45.02 14.77.75 10.95 30.52-2 15.57-2.35 27.64-4.87 35.69-2.36 7.61-6.66 11.63-16.08 11.63-19.39 0-143.06 6.76-143.06 6.76" stroke="#231f20" stroke-width="14"/><path d="m430.78 419.91-97.53-16.92-6.54-1.14 2.17 32.31 28.41 4.05 91.27 13.02 121.47 17.33 34.12 4.87 9.66 1.38 6.53-22-54.2-9.41-42.76-7.42-55.86-9.69z" stroke="#231f20" stroke-width="14"/><path d="m613.81 474.81 149.75 25.99 6.52-22-144.24-25.03" stroke="#231f20" stroke-width="14"/><path d="m340.42 471.88 16.81-3.78v-29.48" stroke="#231f20" stroke-width="14"/><path d="m284.65 481.42c-.01.18-.04.35-.09.521-1.36 5.21-17.53 6.6-26.66 6.979-3.65.14-6.17.13-6.17.13h-67.49-65.16-37.24v20.95 28.31s5.23.521 15.15 1.11c6.32.37 14.54.771 24.53 1.09 10.09.3 22 .521 35.57.521h4.67 103.93s.1-2.13.2-5.53c.04-1.13.07-2.4.11-3.78l15.21-5.43 3.18-42.13.17-2.22.52-6.851" stroke="#231f20" stroke-width="14"/><path d="m334.7 526.33c.02.76.03 1.52.03 2.28 0 24.43-9.37 44.22-20.94 44.22s-20.95-19.79-20.95-44.22c0-24.42 9.38-44.21 20.95-44.21 11.21 0 20.35 18.57 20.91 41.93z" stroke="#231f20" stroke-width="18"/><path d="m313.79 484.4h-26.17" stroke="#231f20" stroke-width="18.8128"/><path d="m268.79 535.59s1.6 34.45 13.97 36.47c14.01 2.271 31.03.771 31.03.771" stroke="#231f20" stroke-width="18"/><path d="m161.76 541.4c-2.6 18.189-10.6 31.43-20.06 31.43-9.61 0-17.72-13.68-20.18-32.32-.13-.979-.24-1.979-.34-2.99" stroke="#231f20" stroke-width="18"/><path d="m96.71 535.59s.07 1.47.28 3.83c.84 9.04 3.87 31.04 13.68 32.64 14.01 2.271 31.03.771 31.03.771" stroke="#231f20" stroke-width="18"/><path d="m476.28 514.43c-1.04 19.07-8.721 33.87-18.03 33.87-10.02 0-18.14-17.14-18.14-38.3s8.12-38.3 18.14-38.3 18.15 17.14 18.15 38.3c0 1.48-.04 2.94-.12 4.37" stroke="#231f20" stroke-width="18"/><path d="m458.25 471.7h-30.25-1.71" stroke="#231f20" stroke-width="18.8128"/><path d="m419.29 516.05s.09 1.92.4 4.82c.9 8.51 3.7 25.45 11.69 26.75 12.13 1.97 26.87.68 26.87.68" stroke="#231f20" stroke-width="18"/><path d="m523.78 511.21c0 18.37-7.061 33.25-15.761 33.25-8.699 0-15.75-14.88-15.75-33.25 0-22.11 7.051-33.25 15.75-33.25 7.351 0 13.53 10.62 15.271 25 .32 2.63.49 5.4.49 8.25z" stroke="#231f20" stroke-width="18"/><path d="m476.28 514.37v.06c-.04 1.49-.63 27.971 8.399 29.45 10.54 1.71 23.34.58 23.34.58" stroke="#231f20" stroke-width="18"/><path d="m337.83 526.29 81.86-5.42.37-.021s-3.71-27.97 7.94-49.149c4.33-7.88 10.79-14.811 20.35-19.021" stroke="#231f20" stroke-width="14"/><path d="m527.51 468.87c-.5 14.41-1.63 31.43-4.22 34.09-.01.01-.01.01-.021.021" stroke="#231f20" stroke-width="14"/><path d="m116.36 319.78 11.34-27.67 23.25-2.11 58.08-5.27 18.06-1.64s13.65 12.03 22.61 27.06" stroke="#231f20" stroke-width="14"/><path d="m245.29 377.35h.02 61.42" stroke="#231f20" stroke-width="14"/><path d="m84.17 510 34.91.77v-21.72" stroke="#231f20" stroke-width="14"/><path d="m184.24 492.93v18.62l64 .391s15.83-2.721 9.66-23.021" stroke="#231f20" stroke-width="14"/><path d="m81.06 429.83h.01l155.92-6.71h23.27v17.84 16.6 16.75" stroke="#231f20" stroke-width="14"/><path d="m82.62 445.72 177.64-4.76" stroke="#231f20" stroke-width="12.5419"/><path d="m82.62 462.33 2.15-.06 175.49-4.71" stroke="#231f20" stroke-width="12.5419"/><path d="m307.58 389.32 2.53 51.05" stroke="#231f20" stroke-width="14"/><path d="m150.98 290.35-10.38 30.12" stroke="#231f20" stroke-width="14"/><path d="m209.28 287.52 8.83 25.65 1.54 4.48" stroke="#231f20" stroke-width="14"/><path d="m430.78 419.91v-36.36l36.74.9 55.86 1.37 33.99.83 8.77 56.75 3.89 25.16v.01" stroke="#231f20" stroke-width="14"/><path d="m467.52 384.45v41.84" stroke="#231f20" stroke-width="14"/><path d="m523.38 385.81v.01 50.16.01" stroke="#231f20" stroke-width="14"/><path d="m523.78 511.21 80.13-5.1v-31.02" stroke="#231f20" stroke-width="14"/><path d="m0 0h850.394v850.394h-850.394z"/></g></svg>