<svg enable-background="new 0 0 850.394 850.394" height="850.394" viewBox="0 0 850.394 850.394" width="850.394" xmlns="http://www.w3.org/2000/svg"><path d="m376.8 544.33c-2.66-50.38-6.24-91.65-7.05-151.53-.43-32-10.75-146.3-11.3-157.96-.86-18.06 4.71-38.64 15.49-56.07 9.04-14.63 25.08-22.08 41.56-24.36 7.39-1.03 14.86-1.02 21.84-.16 12.48 1.54 23.37 5.8 29.3 11.73 25.931 25.94 23.051 74.81 21.66 112.4-2.29 61.74-1.45 94.82-4.18 142.38-1.32 23.04-27.561 256.51-28.98 271.96-2.39 26.07-4.529 63.011-15.069 74.36-3.561 3.81-9.65 12.14-18.67 8.61-26.34-10.32-32.69-74.44-33.78-91.561-1.45-22.78-4.2-44.52-5.48-67.24-1.351-24.189-4.061-48.309-5.341-72.559z" fill="#ffa500"/><g fill="none"><path d="m437.34 154.25c12.48 1.54 23.37 5.8 29.3 11.73 25.931 25.94 23.051 74.81 21.66 112.4-2.29 61.74-1.45 94.82-4.18 142.38-1.32 23.04-27.561 256.51-28.98 271.96-2.39 26.07-4.529 63.011-15.069 74.36-3.561 3.81-9.65 12.14-18.67 8.61-26.34-10.32-32.69-74.44-33.78-91.561-1.45-22.78-4.2-44.52-5.48-67.24-1.35-24.189-4.06-48.31-5.34-72.56-2.66-50.38-6.24-91.65-7.05-151.53-.43-32-10.75-146.3-11.3-157.96-.86-18.06 4.71-38.64 15.49-56.07 9.04-14.63 25.08-22.08 41.56-24.36 7.389-1.029 14.859-1.019 21.839-.159z" stroke="#000" stroke-width="18.5852"/><path d="m415.5 154.41-18.88-73.66" stroke="#000" stroke-width="18.5852"/><path d="m437.41 154.4s-.03-.05-.07-.15c-.63-1.45-4.37-14.15 24.73-70.4" stroke="#000" stroke-width="18.5852"/><path d="m431.73 153.75s0-59.1 0-84.92" stroke="#000" stroke-width="18.5852"/><path d="m361.62 250.61s13.36-10.25 32.97-10.25" stroke="#000" stroke-width="18.5852"/><path d="m371.95 417.62s8.62-7.29 28.24-7.29" stroke="#000" stroke-width="18.5852"/><path d="m461.08 607s-13.34-8.79-32.96-8.79" stroke="#000" stroke-width="18.5852"/><path d="m0 0h850.394v850.394h-850.394z"/></g></svg>