<svg enable-background="new 0 0 850.394 850.394" height="850.394" viewBox="0 0 850.394 850.394" width="850.394" xmlns="http://www.w3.org/2000/svg"><g fill="#fff5b4"><path d="m677.52 299.42 3.24-.3v425.93l-373.23 53.94v-445.42z"/><path d="m618.29 171.91 55.93 102.74 3.3 24.77-369.99 34.15-72.19-147.24.3-.02 373.75-30.74z"/><path d="m605.7 117.37 12.59 54.54-8.9-16.34-373.75 30.74-.3-3.67v-49.22s3.29-25.84 25.84-25.84c22.56 0 326.07-22.56 326.07-22.56s18.45 4.94 18.45 18.47z"/><path d="m307.53 333.57v445.42l-135.35-110.74v-399.14l.31-2.65z"/><path d="m235.34 186.33 72.19 147.24-135.04-67.11 2.25-19.53z"/></g><path d="m307.53 778.99v-445.42l-135.04-67.11-.31-.15v2.8 399.14l135.35 110.74 373.23-53.94v-425.93l-3.24.3-369.99 34.15" fill="none" stroke="#231f20" stroke-width="28"/><path d="m167.67 254 7.07-7.07 60.6-60.6.3-.02 373.75-30.74 8.9 16.34 55.93 102.74 8.69 15.96" fill="none" stroke="#231f20" stroke-width="28"/><path d="m235.34 186.33 72.19 147.24" fill="none" stroke="#231f20" stroke-width="28"/><path d="m235.34 182.64v-49.22s3.29-25.84 25.84-25.84c22.56 0 326.07-22.56 326.07-22.56s18.45 4.94 18.45 18.47v13.88 27.54" fill="none" stroke="#231f20" stroke-width="28"/><path d="m0 0h850.394v850.394h-850.394z" fill="none"/></svg>