<svg enable-background="new 0 0 850.394 850.394" height="850.394" viewBox="0 0 850.394 850.394" width="850.394" xmlns="http://www.w3.org/2000/svg"><path d="m374.81 705.41h32.78v33.49h-32.78z" fill="#c8c8c8"/><path d="m374.81 652.19h32.78v33.479h-32.78z" fill="#c8c8c8"/><path d="m375.29 596.76h32.77v33.48h-32.77z" fill="#c8c8c8"/><path d="m318.3 596.76h32.77v33.48h-32.77z" fill="#c8c8c8"/><path d="m317.82 652.19h32.77v33.479h-32.77z" fill="#c8c8c8"/><path d="m317.82 705.41h32.77v33.49h-32.77z" fill="#c8c8c8"/><path d="m260.82 705.41h32.78v33.49h-32.78z" fill="#c8c8c8"/><path d="m260.82 652.19h32.78v33.479h-32.78z" fill="#c8c8c8"/><path d="m261.3 596.76h32.77v33.48h-32.77z" fill="#c8c8c8"/><path d="m481.81 358.3v210.68h-2.14-292.96v-210.68zm-26.71 154.17v-3.149h-4.109v3.149zm-.37-26.34v-3.149h-4.11v3.149zm-.18 52.67v-3.14h-4.109v3.14zm-.19-79.19v-3.15h-4.11v3.15zm-15.88 88.64v-168.29h-207.32v168.29zm-220.02-35.22v-3.15h-4.11v3.15zm-.37-26.34v-3.15h-4.11v3.15zm-.19 52.68v-3.16h-4.11v3.16zm-.19-79.2v-3.15h-4.11v3.15z" fill="#797878"/><path d="m231.16 379.96h207.32v168.29h-207.32z" fill="#c8c8c8"/><path d="m522.91 582.43h120.28v40.34h-120.28z" fill="#c8c8c8"/><path d="m522.91 423.29h75.46v25.4h-75.46z" fill="#c8c8c8"/><path d="m140.88 96.8h565.811v129.69h-565.811z" fill="#abd150"/><path d="m750.53 777.17h-654.48v-706.27h654.48zm-610.65-3.98h394.79 171.78v-520.98h-566.57v487.5zm566.81-546.7v-129.69h-565.81v129.69z" fill="#34a047"/><path d="m481.81 568.98v-210.68h-295.1v210.68l-46.54 170.73h-.29v-487.5h566.57v520.98h-171.78v-1.221l-55-198.02v-4.97h2.14zm169.6-198.73v-6.73h-129.99v6.73zm-8.22 252.52v-40.34h-120.28v40.34zm-44.82-174.08v-25.4h-75.46v25.4z" fill="#abd150"/><path d="m534.67 771.97v1.221h-394.79v-33.48h.29l46.54-170.729h292.96v4.97zm-126.61-141.73v-33.48h-32.77v33.48zm-.47 108.66v-33.49h-32.78v33.49zm0-53.23v-33.48h-32.78v33.479h32.78zm-56.52-55.43v-33.48h-32.77v33.48zm-.48 108.66v-33.49h-32.77v33.49zm0-53.23v-33.48h-32.77v33.479h32.77zm-56.52-55.43v-33.48h-32.77v33.48zm-.47 108.66v-33.49h-32.78v33.49zm0-53.23v-33.48h-32.78v33.479h32.78z" fill="#797878"/><g fill="none"><path d="m96.05 70.9h654.48v706.27h-654.48z" stroke="#231f20" stroke-width="21"/><path d="m140.88 96.8h565.811v129.69h-565.811z" stroke="#231f20" stroke-width="14"/><path d="m139.88 739.71v-487.5h566.57v520.98h-171.78-394.79z" stroke="#231f20" stroke-width="21"/><path d="m186.71 568.98v-210.68h295.1v210.68h-2.14z" stroke="#231f20" stroke-width="14"/><path d="m213.79 536.21h4.11v3.16h-4.11z" stroke="#231f20" stroke-width="19.8491"/><path d="m214.35 509.88h4.11v3.15h-4.11z" stroke="#231f20" stroke-width="19.8491"/><path d="m213.98 483.54h4.11v3.15h-4.11z" stroke="#231f20" stroke-width="19.8491"/><path d="m213.6 457.02h4.11v3.15h-4.11z" stroke="#231f20" stroke-width="19.8491"/><path d="m450.44 535.66h4.109v3.14h-4.109z" stroke="#231f20" stroke-width="19.8491"/><path d="m450.99 509.32h4.109v3.149h-4.109z" stroke="#231f20" stroke-width="19.8491"/><path d="m450.62 482.98h4.11v3.149h-4.11z" stroke="#231f20" stroke-width="19.8491"/><path d="m450.25 456.46h4.11v3.15h-4.11z" stroke="#231f20" stroke-width="19.8491"/><path d="m231.16 379.96h207.32v168.29h-207.32z" stroke="#231f20" stroke-width="14"/><path d="m522.91 423.29h75.46v25.4h-75.46z" stroke="#231f20" stroke-width="14"/><path d="m521.42 363.52h129.99v6.73h-129.99z" stroke="#231f20" stroke-width="21"/><path d="m522.91 582.43h120.28v40.34h-120.28z" stroke="#231f20" stroke-width="21"/><path d="m261.3 596.76h32.77v33.48h-32.77z" stroke="#231f20" stroke-width="14"/><path d="m318.3 596.76h32.77v33.48h-32.77z" stroke="#231f20" stroke-width="14"/><path d="m375.29 596.76h32.77v33.48h-32.77z" stroke="#231f20" stroke-width="14"/><path d="m260.82 652.19h32.78v33.479h-32.78z" stroke="#231f20" stroke-width="14"/><path d="m317.82 652.19h32.77v33.479h-32.77z" stroke="#231f20" stroke-width="14"/><path d="m374.81 652.19h32.78v33.479h-32.78z" stroke="#231f20" stroke-width="14"/><path d="m260.82 705.41h32.78v33.49h-32.78z" stroke="#231f20" stroke-width="14"/><path d="m317.82 705.41h32.77v33.49h-32.77z" stroke="#231f20" stroke-width="14"/><path d="m374.81 705.41h32.78v33.49h-32.78z" stroke="#231f20" stroke-width="14"/><path d="m186.71 568.98-46.54 170.73" stroke="#231f20" stroke-width="14"/><path d="m479.67 573.95 55 198.02" stroke="#231f20" stroke-width="14"/><path d="m0 0h850.394v850.394h-850.394z"/></g></svg>