<svg enable-background="new 0 0 850.394 850.394" height="850.394" viewBox="0 0 850.394 850.394" width="850.394" xmlns="http://www.w3.org/2000/svg"><path d="m221.84 408.11c-4.32 0-38.33 0-51.14 0-38.55 0-84.13-10.1-85-10.3-5.49-15.94-8.1-32.92-1.03-37.83 4.72-3.27 11.13-6.6 18.2-9.79l5.23 1.47c.06 13.1 1.05 29 13.38 36.31 10.86 6.45 32.29 4.79 36.55-9.05l3.04-4.28c13.42 12.6 34.29 23.96 60.77 33.47z" fill="#f6cc4b"/><path d="m765.84 358.77c7.07 4.91 4.46 21.88-1.02 37.82 0 0-46.09 10.31-85 10.31-11.971 0-42.431 0-49.92 0 24.909-9.26 44.6-20.19 57.46-32.26l5.13 1.47c4.26 13.83 25.689 17.1 36.55 10.65 12.33-7.32 13.32-23.22 13.38-36.31l1.11-3.27c8.69 3.72 16.7 7.69 22.31 11.59z" fill="#f6cc4b"/><path d="m690.75 439.98-37.56 152.28s-61.431 78.29-229.03 75.351c-165.92-2.9-226.83-74.13-226.83-74.13l-37.57-152.29c-25.23-3.36-53.28-8.2-58.7-13.62-4.59-4.59-10.92-16.83-15.36-29.76.87.2 46.45 10.3 85 10.3h51.14.01c51 18.3 122.8 29.7 202.36 29.7 81.31 0 154.521-11.899 205.69-30.91h49.92c38.91 0 85-10.31 85-10.31-4.44 12.93-10.771 25.18-15.36 29.76-5.42 5.419-33.48 10.269-58.71 13.629z" fill="#f6cc4b"/><path d="m629.9 406.9c-51.17 19.01-124.381 30.91-205.69 30.91-79.56 0-151.36-11.399-202.36-29.7h-.01c-26.48-9.51-47.35-20.87-60.77-33.47-11-10.32-17-21.47-17-33.1 0-2.37.25-4.72.74-7.05 1.22-5.79 3.93-11.44 8-16.9l2.62.22c0 50.9 120.08 92.17 268.22 92.17s268.22-41.27 268.22-92.17c0-1.76-.14-3.5-.42-5.23 6.05 6.58 10.08 13.48 11.859 20.59.7 2.76 1.051 5.55 1.051 8.37 0 11.63-6 22.78-17 33.1-12.86 12.07-32.55 23-57.46 32.26z" fill="#f6cc4b"/><path d="m475.17 204.32s-.01.01-.02.02c-.091.1-.44.45-.99 1.04-.021.02-.04.05-.07.07-6.47 5.71-26.609 9.87-50.44 9.87-21.8 0-40.51-3.49-48.49-8.45-.01-.01-.02-.02-.02-.02-2.64-1.64-4.1-3.45-4.1-5.35 0-7.64 23.56-13.83 52.61-13.83 29.06 0 52.62 6.19 52.62 13.83 0 .97-.38 1.91-1.1 2.82z" fill="#f6cc4b"/><path d="m423.65 215.32c23.831 0 43.97-4.16 50.44-9.87-4.52 4.84-22.109 24.15-28.72 39.69-1.58 3.72-2.54 7.22-2.54 10.26 0 17.66.77 28.03-10.37 28.03-.71 0-7.71-.13-7.71-.13-.57 0-7.55 0-8.27 0-11.13 0-10.37-10.37-10.37-28.04 0-3.31-1.09-7.08-2.86-11.02-7.52-16.76-27.33-36.61-28.09-37.37 7.98 4.96 26.69 8.45 48.49 8.45z" fill="#f6cc4b"/><path d="m691.45 312.58c.28 1.73.42 3.47.42 5.23 0 50.9-120.08 92.17-268.22 92.17s-268.22-41.27-268.22-92.17l-2.62-.22c29.08-39.02 127.54-68.48 247.53-71.97l2.91-1.38c1.77 3.94 2.86 7.71 2.86 11.02 0 17.67-.76 28.04 10.37 28.04h8.27s7 .13 7.71.13c11.14 0 10.37-10.37 10.37-28.03 0-3.04.96-6.54 2.54-10.26l3.37.5c114.51 3.41 209.3 30.5 242.71 66.94z" fill="#f6cc4b"/><g fill="none"><path d="m202.45 446s-20.23-1.82-42.69-4.81c-25.23-3.36-53.28-8.2-58.7-13.62-4.59-4.59-10.92-16.83-15.36-29.76-5.49-15.94-8.1-32.92-1.03-37.83 4.72-3.27 11.13-6.6 18.2-9.79 13.97-6.28 30.56-12.02 41.94-15.7.43-.14.85-.28 1.27-.41" stroke="#231f20" stroke-width="21"/><path d="m85.69 397.81h.01c.87.2 46.45 10.3 85 10.3h51.14" stroke="#231f20" stroke-width="21"/><path d="m448.74 245.64c114.51 3.41 209.3 30.5 242.71 66.94 6.05 6.58 10.08 13.48 11.859 20.59.7 2.76 1.051 5.55 1.051 8.37 0 11.63-6 22.78-17 33.1-12.86 12.07-32.551 23-57.46 32.26-51.17 19.01-124.381 30.91-205.69 30.91-79.56 0-151.36-11.399-202.36-29.7h-.01c-26.48-9.51-47.35-20.87-60.77-33.47-11-10.32-17-21.47-17-33.1 0-2.37.25-4.72.74-7.05 1.22-5.79 3.93-11.44 8-16.9 29.08-39.02 127.54-68.48 247.53-71.97" stroke="#231f20" stroke-width="21"/><path d="m691.45 312.55v.03c.28 1.73.42 3.47.42 5.23 0 50.9-120.08 92.17-268.22 92.17s-268.22-41.27-268.22-92.17" stroke="#231f20" stroke-width="21"/><path d="m108.1 351.66c.06 13.1 1.05 29 13.38 36.31 10.86 6.45 32.29 4.79 36.55-9.05" stroke="#231f20" stroke-width="21"/><path d="m691.08 438.64-.33 1.341-37.56 152.279s-61.431 78.29-229.03 75.351c-165.92-2.9-226.83-74.13-226.83-74.13l-37.57-152.29-.33-1.33" stroke="#231f20" stroke-width="21"/><path d="m648.07 444.79s20.22-1.82 42.68-4.81c25.23-3.36 53.29-8.211 58.71-13.631 4.59-4.58 10.92-16.83 15.36-29.76 5.479-15.94 8.09-32.91 1.02-37.82-5.609-3.9-13.62-7.87-22.31-11.59-13.55-5.8-28.75-10.99-39.09-14.31" stroke="#231f20" stroke-width="21"/><path d="m764.82 396.59s-46.09 10.31-85 10.31c-11.971 0-42.431 0-49.92 0-.53 0-.95 0-1.23 0" stroke="#231f20" stroke-width="21"/><path d="m742.42 350.45c-.06 13.09-1.05 28.99-13.38 36.31-10.86 6.45-32.29 3.18-36.55-10.65" stroke="#231f20" stroke-width="21"/><path d="m474.09 205.45c-6.47 5.71-26.609 9.87-50.44 9.87-21.8 0-40.51-3.49-48.49-8.45" stroke="#231f20" stroke-width="21"/><path d="m475.15 204.34c-.271.35-.61.7-.99 1.04" stroke="#231f20" stroke-width="21"/><path d="m375.14 206.85c-2.64-1.64-4.1-3.45-4.1-5.35 0-7.64 23.56-13.83 52.61-13.83 29.06 0 52.62 6.19 52.62 13.83 0 .97-.38 1.91-1.1 2.82" stroke="#231f20" stroke-width="21"/><path d="m475.17 204.32s-.01.01-.02.02c-.091.1-.44.45-.99 1.04-.021.02-.04.05-.07.07-4.52 4.84-22.109 24.15-28.72 39.69-1.58 3.72-2.54 7.22-2.54 10.26 0 17.66.77 28.03-10.37 28.03-.71 0-7.71-.13-7.71-.13-.57 0-7.55 0-8.27 0-11.13 0-10.37-10.37-10.37-28.04 0-3.31-1.09-7.08-2.86-11.02-7.52-16.76-27.33-36.61-28.09-37.37-.01-.01-.02-.02-.02-.02" stroke="#231f20" stroke-width="21"/><path d="m0 0h850.394v850.394h-850.394z"/></g></svg>