<svg enable-background="new 0 0 850.394 850.394" height="850.394" viewBox="0 0 850.394 850.394" width="850.394" xmlns="http://www.w3.org/2000/svg"><path d="m161.19 355.9h41.32v80.46h-41.32z" fill="#fff"/><path d="m161.19 223.25h41.32v80.46h-41.32z" fill="#fff"/><path d="m398.58 290.3h41.31v80.46h-41.31z" fill="#fff"/><path d="m634.86 356.18h41.319v80.45h-41.319z" fill="#fff"/><path d="m634.86 223.53h41.319v80.46h-41.319z" fill="#fff"/><path d="m514.52 532.86c0-20.341-10.67-38.75-27.92-52.091-17.239-13.329-41.06-21.579-67.359-21.579-52.61 0-95.28 33-95.28 73.67l.039 163.14v.57h-222.13v-550.15h58.6v32.62h43.49v-32.62h56.54v100.03h78.28v-98.58l159.82.27v98.58h78.28v-100.02h56.54v32.61h43.49v-32.61h58.59v550.16h-221.5v-.86zm161.66-96.23v-80.45h-41.32v80.45zm0-132.64v-80.46h-41.32v80.46zm-236.29 66.77v-80.46h-41.31v80.46zm-237.38 65.6v-80.46h-41.32v80.46zm0-132.65v-80.46h-41.32v80.46z" fill="#c8c8c8"/><path d="m323.96 532.86c0-40.67 42.67-73.67 95.28-73.67 26.3 0 50.12 8.25 67.359 21.579 17.25 13.341 27.92 31.75 27.92 52.091l-.519 163.14v.86h-95.86v-.29h-94.14v-.57z" fill="#9c5b16"/><g fill="none"><path d="m161.19 223.25h41.32v80.46h-41.32z" stroke="#231f20" stroke-width="28"/><path d="m161.19 355.9h41.32v80.46h-41.32z" stroke="#231f20" stroke-width="28"/><path d="m398.58 290.3h41.31v80.46h-41.31z" stroke="#231f20" stroke-width="28"/><path d="m324 696-.04-163.14c0-40.67 42.67-73.67 95.28-73.67 26.3 0 50.12 8.25 67.359 21.579 17.25 13.341 27.92 31.75 27.92 52.091l-.519 163.14" stroke="#231f20" stroke-width="28"/><path d="m634.86 223.53h41.319v80.46h-41.319z" stroke="#231f20" stroke-width="28"/><path d="m634.86 356.18h41.319v80.45h-41.319z" stroke="#231f20" stroke-width="28"/><path d="m418.14 696.86h95.86 221.5v-550.16h-58.59v32.61h-43.49v-32.61h-56.54v100.02h-78.28v-98.58l-159.82-.27v98.58h-78.28v-100.03h-56.54v32.62h-43.49v-32.62h-58.6v550.15h222.13 94.14 1.1" stroke="#231f20" stroke-width="28"/><path d="m0 0h850.394v850.394h-850.394z"/></g></svg>