<svg enable-background="new 0 0 850.394 850.394" height="850.394" viewBox="0 0 850.394 850.394" width="850.394" xmlns="http://www.w3.org/2000/svg"><path d="m718.62 545.82c4.84 1.149 7.91 5.75 6.84 10.26-1.07 4.52-5.87 7.26-10.71 6.11-4.87-1.141-7.93-5.74-6.87-10.261 1.08-4.519 5.88-7.249 10.74-6.109z" fill="#f6cc4b"/><path d="m679.88 474.17c4.84 1.16 7.91 5.76 6.84 10.271-1.069 4.52-5.87 7.26-10.72 6.109-4.86-1.14-7.92-5.74-6.86-10.26 1.07-4.52 5.88-7.25 10.74-6.12z" fill="#f6cc4b"/><path d="m725.46 428.06c4.85 1.15 7.92 5.74 6.85 10.261-1.069 4.52-5.869 7.26-10.71 6.109-4.869-1.149-7.93-5.75-6.869-10.26 1.079-4.52 5.879-7.26 10.729-6.11z" fill="#f6cc4b"/><path d="m642.63 350.08c4.84 1.15 7.91 5.75 6.84 10.27-1.06 4.51-5.87 7.25-10.72 6.1s-7.93-5.74-6.85-10.26c1.06-4.52 5.87-7.26 10.73-6.11z" fill="#f6cc4b"/><path d="m610.72 395.67c4.84 1.15 7.91 5.75 6.84 10.27-1.069 4.52-5.869 7.25-10.71 6.11-4.869-1.15-7.93-5.75-6.869-10.27 1.079-4.52 5.879-7.25 10.739-6.11z" fill="#f6cc4b"/><path d="m578.39 467.41c4.841 1.16 7.91 5.76 6.841 10.27-1.07 4.53-5.87 7.261-10.721 6.101-4.859-1.141-7.93-5.74-6.859-10.261 1.069-4.52 5.869-7.25 10.739-6.11z" fill="#f6cc4b"/><path d="m509.83 441.54c4.97 0 9.02 3.77 9.02 8.42 0 4.64-4.05 8.41-9.02 8.41-5 0-9.04-3.771-9.04-8.41 0-4.65 4.04-8.42 9.04-8.42z" fill="#f6cc4b"/><path d="m524.78 364.28c4.979 0 9.02 3.77 9.02 8.42 0 4.64-4.04 8.41-9.02 8.41-5 0-9.04-3.77-9.04-8.41 0-4.65 4.04-8.42 9.04-8.42z" fill="#f6cc4b"/><path d="m545.34 312.57c4.98 0 9.021 3.77 9.021 8.41 0 4.65-4.04 8.41-9.021 8.41-5 0-9.04-3.76-9.04-8.41 0-4.64 4.04-8.41 9.04-8.41z" fill="#f6cc4b"/><path d="m418.23 417.25c4.99 0 9.03 3.76 9.03 8.41 0 4.64-4.04 8.41-9.03 8.41s-9.03-3.771-9.03-8.41c0-4.65 4.04-8.41 9.03-8.41z" fill="#f6cc4b"/><path d="m434.43 343.72c4.98 0 9.03 3.77 9.03 8.41 0 4.65-4.05 8.42-9.03 8.42-4.989 0-9.04-3.77-9.04-8.42 0-4.64 4.05-8.41 9.04-8.41z" fill="#f6cc4b"/><path d="m332.87 395.44c4.98 0 9.03 3.76 9.03 8.41 0 4.64-4.05 8.41-9.03 8.41-4.99 0-9.04-3.77-9.04-8.41 0-4.65 4.05-8.41 9.04-8.41z" fill="#f6cc4b"/><path d="m331 332.51c4.99 0 9.03 3.77 9.03 8.41s-4.04 8.41-9.03 8.41-9.04-3.77-9.04-8.41 4.05-8.41 9.04-8.41z" fill="#f6cc4b"/><path d="m245.02 391.08c4.99 0 9.03 3.76 9.03 8.41 0 4.64-4.04 8.41-9.03 8.41s-9.03-3.77-9.03-8.41c0-4.65 4.04-8.41 9.03-8.41z" fill="#f6cc4b"/><path d="m237.85 339.05c4.99 0 9.04 3.77 9.04 8.41 0 4.65-4.05 8.41-9.04 8.41s-9.03-3.76-9.03-8.41c0-4.64 4.04-8.41 9.03-8.41z" fill="#f6cc4b"/><path d="m177.73 407.28c4.99 0 9.03 3.77 9.03 8.41s-4.04 8.41-9.03 8.41-9.03-3.77-9.03-8.41 4.04-8.41 9.03-8.41z" fill="#f6cc4b"/><path d="m170.56 355.25c4.99 0 9.04 3.77 9.04 8.41 0 4.65-4.05 8.42-9.04 8.42s-9.03-3.77-9.03-8.42c0-4.64 4.04-8.41 9.03-8.41z" fill="#f6cc4b"/><path d="m97.36 398.55c4.98 0 9.03 3.77 9.03 8.41 0 4.65-4.05 8.42-9.03 8.42-4.99 0-9.04-3.77-9.04-8.42 0-4.64 4.05-8.41 9.04-8.41z" fill="#f6cc4b"/><path d="m148.85 344.62c-10.09 20.7-8.02 55-2.27 76.05 2.28 8.38 8.23 17.69 16.34 25.51l-1.39.04c-11.22-6.229-22.43 3.74-36.14 12.46-13.71 8.73-36.13 21.801-50.47-9.97-14.33-31.78 7.48-74.15 29.29-95.95 21.81-21.81 39.87-10.6 39.87-10.6zm-42.46 62.34c0-4.64-4.05-8.41-9.03-8.41-4.99 0-9.04 3.77-9.04 8.41 0 4.65 4.05 8.42 9.04 8.42 4.98 0 9.03-3.77 9.03-8.42z" fill="#abd150"/><path d="m162.92 446.18c-8.11-7.819-14.06-17.13-16.34-25.51-5.75-21.05-7.82-55.35 2.27-76.05 3.04-6.25 7.19-11.26 12.68-14.29 23.67-13.08 56.47-2.33 56.47-2.33l.42.3c-3.46 4.8-6.04 10.52-7.37 17.07-4.44 21.82 18.79 80.02 27.37 100.439l-4.62 2.28c-22.93 25.961-52.47 15.861-70.88-1.909zm23.84-30.49c0-4.64-4.04-8.41-9.03-8.41s-9.03 3.77-9.03 8.41 4.04 8.41 9.03 8.41 9.03-3.77 9.03-8.41zm-7.16-52.03c0-4.64-4.05-8.41-9.04-8.41s-9.03 3.77-9.03 8.41c0 4.65 4.04 8.42 9.03 8.42s9.04-3.77 9.04-8.42z" fill="#abd150"/><path d="m256.43 310.77c2.67.22 5.32.72 7.9 1.49 21.7 6.46 28.26 12.44 28.26 12.44l5.07 2.39c-1.41 2.37-2.65 4.91-3.69 7.6-10.44 26.95 13.95 111.87 16.2 119.55l-3.16.89c-10.09 4.021-18.25 21.93-31.69 24.86-15.27 3.34-23.35-7.66-33.81-26.98 0 0-1.18-2.67-3.09-7.2-8.58-20.419-31.81-78.62-27.37-100.439 1.33-6.55 3.91-12.27 7.37-17.07 7.31-10.16 18.55-16.24 30.18-17.46 2.6-.271 5.22-.301 7.83-.071zm-2.38 88.72c0-4.65-4.04-8.41-9.03-8.41s-9.03 3.76-9.03 8.41c0 4.64 4.04 8.41 9.03 8.41s9.03-3.77 9.03-8.41zm-7.16-52.03c0-4.64-4.05-8.41-9.04-8.41s-9.03 3.77-9.03 8.41c0 4.65 4.04 8.41 9.03 8.41s9.04-3.76 9.04-8.41z" fill="#abd150"/><path d="m476.71 466.61c-14.63-16.37-32.09 25.6-53.59 24.63-14.27-.65-20.76-9.15-25.5-23.851-1.34-4.159-2.54-8.81-3.74-13.92 0 0-15.3-102.5-2.06-131.729.3-.67.62-1.3.95-1.89 14.89-26.36 48.66-32.5 71-19.61 22.341 12.89 27.771 21 27.771 21l1.43.67c-17.37 26.01-14.93 131.78-14.93 131.78.51 4.819 1.07 9.25 1.79 13.279l-2.41.431c-.231-.26-.471-.53-.711-.79zm-33.25-114.48c0-4.64-4.05-8.41-9.03-8.41-4.989 0-9.04 3.77-9.04 8.41 0 4.65 4.05 8.42 9.04 8.42 4.98 0 9.03-3.77 9.03-8.42zm-16.2 73.53c0-4.65-4.04-8.41-9.03-8.41s-9.03 3.76-9.03 8.41c0 4.64 4.04 8.41 9.03 8.41s9.03-3.77 9.03-8.41z" fill="#abd150"/><path d="m566.51 310.39c20.561 15.58 24.931 24.3 24.931 24.3l.89 1.25c-9.15 3.73-15.71 11.44-23.32 28.65-14.33 32.4-25.55 107.8-25.55 107.8l-1.979 2.44c-10.41 0-22.171 22.91-39.141 19.99-14.39-2.48-19.689-12.08-22.51-27.851-.72-4.029-1.28-8.46-1.79-13.279 0 0-2.44-105.771 14.93-131.78.21-.32.431-.63.65-.93 18.069-24.3 52.329-26.17 72.889-10.59zm-12.15 10.59c0-4.64-4.04-8.41-9.021-8.41-5 0-9.04 3.77-9.04 8.41 0 4.65 4.04 8.41 9.04 8.41 4.981 0 9.021-3.76 9.021-8.41zm-20.56 51.72c0-4.65-4.04-8.42-9.02-8.42-5 0-9.04 3.77-9.04 8.42 0 4.64 4.04 8.41 9.04 8.41 4.98 0 9.02-3.77 9.02-8.41zm-14.95 77.26c0-4.65-4.05-8.42-9.02-8.42-5 0-9.04 3.77-9.04 8.42 0 4.64 4.04 8.41 9.04 8.41 4.97 0 9.02-3.77 9.02-8.41z" fill="#abd150"/><path d="m690 388.48c12.26-4.73 25.78-.57 39.76 12.88 16.19 15.57 28.04 42.36 28.04 42.36s2.33 3.971 5.391 10.681l-1.66.54c-10.59 18.689-32.57 45.75-61.061 61.68-36.76 20.57-64.17 18.07-64.17 18.07l-5.37 1.399c-14.87-26.27-15.75-51.88-29.52-42.52-17.45 11.84-39.88 4.359-52.34-13.71-2.49-3.61-5-5.03-7.59-5.03l1.979-2.44s11.22-75.399 25.55-107.8c7.61-17.21 14.17-24.92 23.32-28.65 8.07-3.3 18.15-3.5 32.75-4.37 31.15-1.87 55.46 39.88 63.56 52.96zm42.31 49.84c1.07-4.521-2-9.11-6.85-10.261-4.85-1.149-9.65 1.591-10.729 6.11-1.061 4.51 2 9.11 6.869 10.26 4.84 1.151 9.64-1.589 10.71-6.109zm-45.59 46.12c1.07-4.511-2-9.11-6.84-10.271-4.86-1.13-9.67 1.6-10.74 6.12-1.06 4.52 2 9.12 6.86 10.26 4.85 1.151 9.65-1.589 10.72-6.109zm-37.25-124.09c1.07-4.52-2-9.12-6.84-10.27-4.86-1.15-9.67 1.59-10.729 6.11-1.08 4.52 2 9.11 6.85 10.26 4.849 1.15 9.659-1.59 10.719-6.1zm-31.91 45.59c1.07-4.52-2-9.12-6.84-10.27-4.859-1.14-9.66 1.59-10.739 6.11-1.061 4.52 2 9.12 6.869 10.27 4.84 1.14 9.64-1.59 10.71-6.11zm-32.33 71.74c1.069-4.51-2-9.109-6.841-10.27-4.87-1.141-9.67 1.59-10.739 6.109-1.07 4.521 2 9.12 6.859 10.261 4.851 1.16 9.651-1.57 10.721-6.1z" fill="#abd150"/><path d="m763.19 454.4c8.569 18.77 22.84 58.939 7.689 93.369-20.56 46.73-97.82 37.391-126.479 6.86-5.54-5.899-9.91-12.24-13.471-18.54l5.37-1.399s27.41 2.5 64.17-18.07c28.49-15.93 50.471-42.99 61.061-61.68zm-37.73 101.68c1.07-4.51-2-9.11-6.84-10.26-4.86-1.141-9.66 1.59-10.74 6.109-1.06 4.521 2 9.12 6.87 10.261 4.84 1.15 9.64-1.59 10.71-6.11z" fill="#abd150"/><path d="m393.88 453.47c1.2 5.11 2.4 9.761 3.74 13.92-16.63-12.939-31.75 18.46-52.91 20.57-18.25 1.82-25.67-11.01-34.38-33.16 0 0-.06-.189-.16-.56-2.25-7.681-26.64-92.6-16.2-119.55 1.04-2.69 2.28-5.23 3.69-7.6 13.38-22.53 42.07-30.66 63.75-22.02 22.34 8.88 29.53 15.77 30.41 16.67-13.24 29.23 2.06 131.73 2.06 131.73zm-51.98-49.62c0-4.65-4.05-8.41-9.03-8.41-4.99 0-9.04 3.76-9.04 8.41 0 4.64 4.05 8.41 9.04 8.41 4.98 0 9.03-3.77 9.03-8.41zm-1.87-62.93c0-4.64-4.04-8.41-9.03-8.41s-9.04 3.77-9.04 8.41 4.05 8.41 9.04 8.41 9.03-3.77 9.03-8.41z" fill="#abd150"/><g fill="none"><path d="m612.62 487.34s57.939-87.23 71.649-95.95c1.87-1.19 3.79-2.16 5.73-2.91 12.26-4.73 25.78-.57 39.76 12.88 16.19 15.57 28.04 42.36 28.04 42.36s2.33 3.971 5.391 10.681c8.569 18.77 22.84 58.939 7.689 93.369-20.56 46.73-97.82 37.391-126.479 6.86-5.54-5.899-9.91-12.24-13.471-18.54-14.87-26.27-15.75-51.88-29.52-42.52-17.45 11.84-39.88 4.359-52.34-13.71-2.49-3.61-5-5.03-7.59-5.03-10.41 0-22.171 22.91-39.141 19.99-14.39-2.48-19.689-12.08-22.51-27.851-.72-4.029-1.28-8.46-1.79-13.279 0 0-2.44-105.771 14.93-131.78.21-.32.431-.63.65-.93 18.07-24.3 52.33-26.17 72.89-10.59 20.561 15.58 24.931 24.3 24.931 24.3" stroke="#231f20" stroke-width="21"/><path d="m477.42 467.4c-.229-.261-.47-.53-.71-.79-14.63-16.37-32.09 25.6-53.59 24.63-14.27-.65-20.76-9.15-25.5-23.851-1.34-4.159-2.54-8.81-3.74-13.92 0 0-15.3-102.5-2.06-131.729.3-.67.62-1.3.95-1.89 14.89-26.36 48.66-32.5 71-19.61 22.341 12.89 27.771 21 27.771 21" stroke="#231f20" stroke-width="21"/><path d="m398.99 468.52c-.27-.229-.55-.46-.82-.68-.18-.149-.37-.3-.55-.45-16.63-12.939-31.75 18.46-52.91 20.57-18.25 1.82-25.67-11.01-34.38-33.16 0 0-.06-.189-.16-.56-2.25-7.681-26.64-92.6-16.2-119.55 1.04-2.69 2.28-5.23 3.69-7.6 13.38-22.53 42.07-30.66 63.75-22.02 22.34 8.88 29.53 15.77 30.41 16.67.06.07.09.1.09.1" stroke="#231f20" stroke-width="21"/><path d="m307.01 455.13c-10.09 4.021-18.25 21.93-31.69 24.86-15.27 3.34-23.35-7.66-33.81-26.98 0 0-1.18-2.67-3.09-7.2-8.58-20.419-31.81-78.62-27.37-100.439 1.33-6.55 3.91-12.27 7.37-17.07 7.31-10.16 18.55-16.24 30.18-17.46 2.6-.27 5.22-.3 7.83-.07 2.67.22 5.32.72 7.9 1.49 21.7 6.46 28.26 12.44 28.26 12.44" stroke="#231f20" stroke-width="21"/><path d="m543.46 472.39s11.22-75.399 25.55-107.8c7.61-17.21 14.17-24.92 23.32-28.65 8.07-3.3 18.15-3.5 32.75-4.37 31.15-1.87 55.46 39.88 63.56 52.96" stroke="#231f20" stroke-width="21"/><path d="m218 328s-32.8-10.75-56.47 2.33c-5.49 3.03-9.64 8.04-12.68 14.29-10.09 20.7-8.02 55-2.27 76.05 2.28 8.38 8.23 17.69 16.34 25.51 18.41 17.771 47.95 27.87 70.88 1.91" stroke="#231f20" stroke-width="21"/><path d="m144.08 342.16s-18.06-11.21-39.87 10.6c-21.81 21.8-43.62 64.17-29.29 95.95 14.34 31.771 36.76 18.7 50.47 9.97 13.71-8.72 24.92-18.689 36.14-12.46" stroke="#231f20" stroke-width="21"/><path d="m246.89 347.46c0 4.65-4.05 8.41-9.04 8.41s-9.03-3.76-9.03-8.41c0-4.64 4.04-8.41 9.03-8.41s9.04 3.77 9.04 8.41z" stroke="#231f20" stroke-width="7.4766"/><path d="m340.03 340.92c0 4.64-4.04 8.41-9.03 8.41s-9.04-3.77-9.04-8.41 4.05-8.41 9.04-8.41 9.03 3.77 9.03 8.41z" stroke="#231f20" stroke-width="7.4766"/><path d="m341.9 403.85c0 4.64-4.05 8.41-9.03 8.41-4.99 0-9.04-3.77-9.04-8.41 0-4.65 4.05-8.41 9.04-8.41 4.98 0 9.03 3.76 9.03 8.41z" stroke="#231f20" stroke-width="7.4766"/><path d="m443.46 352.13c0 4.65-4.05 8.42-9.03 8.42-4.989 0-9.04-3.77-9.04-8.42 0-4.64 4.05-8.41 9.04-8.41 4.98 0 9.03 3.77 9.03 8.41z" stroke="#231f20" stroke-width="7.4766"/><path d="m554.36 320.98c0 4.65-4.04 8.41-9.021 8.41-5 0-9.04-3.76-9.04-8.41 0-4.64 4.04-8.41 9.04-8.41 4.981 0 9.021 3.77 9.021 8.41z" stroke="#231f20" stroke-width="7.4766"/><path d="m533.8 372.7c0 4.64-4.04 8.41-9.02 8.41-5 0-9.04-3.77-9.04-8.41 0-4.65 4.04-8.42 9.04-8.42 4.98 0 9.02 3.77 9.02 8.42z" stroke="#231f20" stroke-width="7.4766"/><path d="m518.85 449.96c0 4.64-4.05 8.41-9.02 8.41-5 0-9.04-3.771-9.04-8.41 0-4.65 4.04-8.42 9.04-8.42 4.97 0 9.02 3.77 9.02 8.42z" stroke="#231f20" stroke-width="7.4766"/><path d="m649.47 360.35c-1.06 4.51-5.87 7.25-10.72 6.1s-7.93-5.74-6.85-10.26c1.06-4.52 5.869-7.26 10.729-6.11 4.841 1.15 7.911 5.75 6.841 10.27z" stroke="#231f20" stroke-width="7.4766"/><path d="m617.56 405.94c-1.069 4.52-5.869 7.25-10.71 6.11-4.869-1.15-7.93-5.75-6.869-10.27 1.079-4.52 5.88-7.25 10.739-6.11 4.84 1.15 7.91 5.75 6.84 10.27z" stroke="#231f20" stroke-width="7.4766"/><path d="m732.31 438.32c-1.069 4.52-5.869 7.26-10.71 6.109-4.869-1.149-7.93-5.75-6.869-10.26 1.079-4.52 5.88-7.26 10.729-6.11 4.85 1.151 7.92 5.741 6.85 10.261z" stroke="#231f20" stroke-width="7.4766"/><path d="m686.72 484.44c-1.069 4.52-5.87 7.26-10.72 6.109-4.86-1.14-7.92-5.74-6.86-10.26 1.07-4.521 5.88-7.25 10.74-6.12 4.84 1.161 7.91 5.761 6.84 10.271z" stroke="#231f20" stroke-width="7.4766"/><path d="m725.46 556.08c-1.07 4.52-5.87 7.26-10.71 6.11-4.87-1.141-7.93-5.74-6.87-10.261 1.08-4.52 5.88-7.25 10.74-6.109 4.84 1.15 7.91 5.75 6.84 10.26z" stroke="#231f20" stroke-width="7.4766"/><path d="m585.23 477.68c-1.07 4.53-5.87 7.261-10.721 6.101-4.859-1.141-7.93-5.74-6.859-10.261 1.069-4.52 5.869-7.25 10.739-6.109 4.841 1.159 7.911 5.759 6.841 10.269z" stroke="#231f20" stroke-width="7.4766"/><path d="m427.26 425.66c0 4.64-4.04 8.41-9.03 8.41s-9.03-3.771-9.03-8.41c0-4.65 4.04-8.41 9.03-8.41s9.03 3.76 9.03 8.41z" stroke="#231f20" stroke-width="7.4766"/><path d="m254.05 399.49c0 4.64-4.04 8.41-9.03 8.41s-9.03-3.77-9.03-8.41c0-4.65 4.04-8.41 9.03-8.41s9.03 3.76 9.03 8.41z" stroke="#231f20" stroke-width="7.4766"/><path d="m179.6 363.66c0 4.65-4.05 8.42-9.04 8.42s-9.03-3.77-9.03-8.42c0-4.64 4.04-8.41 9.03-8.41s9.04 3.77 9.04 8.41z" stroke="#231f20" stroke-width="7.4766"/><path d="m186.76 415.69c0 4.64-4.04 8.41-9.03 8.41s-9.03-3.77-9.03-8.41 4.04-8.41 9.03-8.41 9.03 3.77 9.03 8.41z" stroke="#231f20" stroke-width="7.4766"/><path d="m106.39 406.96c0 4.65-4.05 8.42-9.03 8.42-4.99 0-9.04-3.77-9.04-8.42 0-4.64 4.05-8.41 9.04-8.41 4.98 0 9.03 3.77 9.03 8.41z" stroke="#231f20" stroke-width="7.4766"/><path d="m88.01 314.75 22.43 25.55" stroke="#231f20" stroke-width="5.6075"/><path d="m104.25 306.08 12.38 31.67" stroke="#231f20" stroke-width="5.6075"/><path d="m119.49 299.93 8.39 36.01" stroke="#231f20" stroke-width="5.6075"/><path d="m150.14 292.16 13.82 31.05" stroke="#231f20" stroke-width="5.6075"/><path d="m168.22 288.71 2.41 33.91" stroke="#231f20" stroke-width="5.6075"/><path d="m184.61 287.36.59 32.37" stroke="#231f20" stroke-width="5.6075"/><path d="m236.12 282.81 12.48 28.03 1.35 3.03" stroke="#231f20" stroke-width="5.6075"/><path d="m254.2 279.37 2.23 31.4.18 2.5" stroke="#231f20" stroke-width="5.6075"/><path d="m276.17 283.6-7.48 29.28" stroke="#231f20" stroke-width="5.6075"/><path d="m334.74 273.01 6.85 27.41" stroke="#231f20" stroke-width="5.6075"/><path d="m360.28 271.76-2.49 25.54" stroke="#231f20" stroke-width="5.6075"/><path d="m652.3 303.47-10.95 26.06" stroke="#231f20" stroke-width="5.6075"/><path d="m673.5 317.8-17.33 18.94" stroke="#231f20" stroke-width="5.6075"/><path d="m740.78 372.01-10.96 26.05" stroke="#231f20" stroke-width="5.6075"/><path d="m761.97 386.34-17.32 18.94" stroke="#231f20" stroke-width="5.6075"/><path d="m454.99 263.66-6.23 29.91" stroke="#231f20" stroke-width="5.6075"/><path d="m473.68 273.63-11.21 24.3" stroke="#231f20" stroke-width="5.6075"/><path d="m566.51 271.76-9.34 33.02" stroke="#231f20" stroke-width="5.6075"/><path d="m588.94 282.35-19.31 28.04" stroke="#231f20" stroke-width="5.6075"/><path d="m761.53 454.94c-10.59 18.689-32.57 45.75-61.061 61.68-36.76 20.57-64.17 18.07-64.17 18.07" stroke="#231f20" stroke-width="21"/><path d="m0 0h850.394v850.394h-850.394z"/></g></svg>