<svg enable-background="new 0 0 850.394 850.394" height="850.394" viewBox="0 0 850.394 850.394" width="850.394" xmlns="http://www.w3.org/2000/svg"><path d="m742.57 117.67v607.56l-15.14 3.45-113.67-131.76h-.14v-346.01h.8l118.51-137.36v-.01z" fill="#fff5b4"/><path d="m423.86 249.57h-190v.67l-117.85-136.6h10.21l298.32-.09h308.39l-118.51 137.36h-.8v-1.34z" fill="#fff"/><path d="m727.43 728.68 4.84 5.61-308.53.08h-308.39l2.85-3.3 115.66-134.06h225.58 112.16 42.02v-.09h.14z" fill="#f6cc4b"/><path d="m423.86 249.57h189.76v1.34 346.01.09h-42.02v-4.62-212.25h-112.16v212.25 4.62h-225.58v-346.77-.67zm-43.44 229.06v-57.26-42.75h-56.12-56.04v100.01h56.04z" fill="#fff5b4"/><path d="m571.6 592.39v4.62h-112.16v-4.62-212.25h112.16z" fill="#9c5c25"/><path d="m233.86 250.24v346.77l-115.66 134.06-11.52-18.71v-606.72l19.54 8h-10.21z" fill="#fff5b4"/><g fill="none"><path d="m613.62 596.92v.09h-42.02-112.16-225.58v-346.77-.67h190 189.76v1.34z" stroke="#231f20" stroke-width="21"/><path d="m613.76 596.92 113.67 131.76 4.84 5.61-308.53.08h-308.39l2.85-3.3 115.66-134.06" stroke="#231f20" stroke-width="21"/><path d="m234.52 251-.66-.76-117.85-136.6h10.21l298.32-.09h308.39l-118.51 137.36" stroke="#231f20" stroke-width="21"/><path d="m106.68 105.64v606.72 30.01" stroke="#231f20" stroke-width="21"/><path d="m742.57 105.47v12.2 607.56 16.97" stroke="#231f20" stroke-width="21"/><path d="m380.42 421.37v57.26h-56.12-56.04v-100.01h56.04 56.12z" stroke="#231f20" stroke-width="14"/><path d="m459.44 592.39v-212.25h112.16v212.25" stroke="#231f20" stroke-width="21"/><path d="m324.3 380.14v41.23 51.92" stroke="#231f20" stroke-width="14"/><path d="m324.3 421.37h56.12" stroke="#231f20" stroke-width="14"/><path d="m423.86 348.6v-99.03-88.33" stroke="#231f20" stroke-width="28"/><path d="m369.06 222.49 55-62.44 54.99 62.55" stroke="#231f20" stroke-width="28"/><path d="m106.68 105.64 19.54 8 5.78 2.36" stroke="#231f20" stroke-width=".25"/><path d="m720 108 12.93 5.54 9.64 4.13 5.43 2.33" stroke="#231f20" stroke-width=".25"/><path d="m104 708 2.68 4.36 11.52 18.71 1.8 2.93" stroke="#231f20" stroke-width=".25"/><path d="m704 734 23.43-5.32 15.14-3.45 5.43-1.23" stroke="#231f20" stroke-width=".25"/><path d="m0 0h850.394v850.394h-850.394z"/></g></svg>