<svg enable-background="new 0 0 850.394 850.394" height="850.394" viewBox="0 0 850.394 850.394" width="850.394" xmlns="http://www.w3.org/2000/svg"><path d="m754.07 111.93v623.62l-15 5.63-118.74-137.64h-.14v-359.25h.83l119.21-138.18z" fill="#fff5b4"/><path d="m423.16 196.13h-35.52l-13.06 46.76h-148.69v.69l-118.59-137.44 4.38-4.38 312.19-.09h305.84l10.52 4.44-119.21 138.18h-.83v-1.4h-147.59l-13.06-46.76z" fill="#fff"/><path d="m620.33 603.54 118.74 137.64-13.3 4.98-302.73.09h-303.13l-10.1-8.08 116.08-134.54h234.21 116.46 43.63v-.09z" fill="#f6cc4b"/><path d="m225.89 243.58v-.69h148.69l-9.31 33.34h116.64l-9.311-33.34h147.591v1.4 359.25.09h-43.63v-4.79-220.38h-116.46v220.38 4.79h-234.21zm152.17 237.14v-59.45-44.39h-58.27-58.18v103.84h58.18z" fill="#fff5b4"/><path d="m576.56 598.84v4.79h-116.46v-4.79-220.38h116.46z" fill="#9c5c25"/><path d="m472.6 242.89 9.31 33.34h-116.64l9.31-33.34z" fill="#8c469b"/><path d="m423.16 196.13h36.38l13.06 46.76h-98.02l13.06-46.76z" fill="#8c469b"/><path d="m225.89 243.58v360.05l-116.08 134.54-15.97-12.78v-605.79l13.46-13.46z" fill="#fff5b4"/><g fill="none"><path d="m472.6 242.89h147.59v1.4 359.25.09h-43.63-116.46-234.21v-360.05-.69h148.69" stroke="#231f20" stroke-width="21"/><path d="m620.33 603.54 118.74 137.64 4.3 4.98h-17.6l-302.73.09h-303.13-17.07l6.97-8.08 116.08-134.54" stroke="#231f20" stroke-width="21"/><path d="m226.58 244.38-.69-.8-118.59-137.44-3.77-4.38h8.15l312.19-.09h305.84 14.35l-3.83 4.44-119.21 138.18" stroke="#231f20" stroke-width="21"/><path d="m93.84 93.46v26.14 605.79 29.16" stroke="#231f20" stroke-width="21"/><path d="m754.07 93.28v18.65 623.62 18.83" stroke="#231f20" stroke-width="21"/><path d="m378.06 421.27v59.45h-58.27-58.18v-103.84h58.18 58.27z" stroke="#231f20" stroke-width="14"/><path d="m460.1 598.84v-220.38h116.46v220.38" stroke="#231f20" stroke-width="21"/><path d="m319.79 378.46v42.81 53.9" stroke="#231f20" stroke-width="14"/><path d="m319.79 421.27h58.27" stroke="#231f20" stroke-width="14"/><path d="m423.16 143.3v52.83" stroke="#231f20" stroke-width="21"/><path d="m374.58 242.89-9.31 33.34h116.64l-9.31-33.34-13.06-46.76h-36.38-35.52z" stroke="#231f20" stroke-width="21"/><path d="m0 0h850.394v850.394h-850.394z"/><path d="m212.379 143.313 138.878 50.106" stroke="#000" stroke-linecap="round" stroke-linejoin="round" stroke-width="14"/><path d="m320.511 136.419 31.575 57.468-61.07 24.032" stroke="#000" stroke-linecap="round" stroke-linejoin="round" stroke-width="14"/></g></svg>