<svg enable-background="new 0 0 850.394 850.394" height="850.394" viewBox="0 0 850.394 850.394" width="850.394" xmlns="http://www.w3.org/2000/svg"><path d="m653.21 112.83v633.34h-460.91v-633.34zm-53.74 496.38c7.771-7.68 12.55-18.07 12.55-29.5 0-23.67-20.47-42.85-45.71-42.85-25.25 0-45.71 19.18-45.71 42.85 0 11.86 5.141 22.59 13.44 30.35v.011 102.489l32.27-38.569 33.57 33.569v-97.95z" fill="#a3d9ff"/><path d="m675.59 91.28v676.44h-505.68v-676.44zm-22.38 654.89v-633.34h-460.91v633.34z" fill="#0b00ea"/><path d="m599.88 609.61v97.949l-33.57-33.569-32.27 38.569v-102.489c8.27 7.72 19.67 12.5 32.27 12.5 13.051 0 24.83-5.13 33.16-13.36z" fill="#fff400"/><path d="m612.02 579.71c0 11.43-4.779 21.82-12.55 29.5-8.33 8.23-20.109 13.36-33.16 13.36-12.6 0-24-4.78-32.27-12.5v-.011c-8.3-7.76-13.44-18.489-13.44-30.35 0-23.67 20.46-42.85 45.71-42.85 25.24.001 45.71 19.181 45.71 42.851z" fill="#fff400"/><g fill="none"><path d="m192.3 112.83h460.91v633.34h-460.91z" stroke="#231f20" stroke-width="14"/><path d="m169.91 91.28h505.68v676.44h-505.68z" stroke="#231f20" stroke-width="14"/><path d="m534.04 610.06c-8.3-7.76-13.44-18.489-13.44-30.35 0-23.67 20.46-42.85 45.71-42.85 25.24 0 45.71 19.18 45.71 42.85 0 11.43-4.779 21.82-12.55 29.5-8.33 8.23-20.109 13.36-33.16 13.36-12.6 0-24-4.78-32.27-12.5" stroke="#231f20" stroke-width="21"/><path d="m534.04 610.06v.01 102.49l32.27-38.57 33.57 33.57v-97.95" stroke="#231f20" stroke-width="21"/><path d="m237.89 269.51h371.38" stroke="#231f20" stroke-width="21"/><path d="m237.89 310.13h371.38" stroke="#231f20" stroke-width="21"/><path d="m237.89 352.13h371.38" stroke="#231f20" stroke-width="21"/><path d="m237.89 396.06h371.38" stroke="#231f20" stroke-width="21"/><path d="m237.89 436.68h371.38" stroke="#231f20" stroke-width="21"/><path d="m237.89 478.69h371.38" stroke="#231f20" stroke-width="21"/><path d="m299.23 200.7h246.21" stroke="#231f20" stroke-width="21"/><path d="m237.89 565.45h159.99" stroke="#231f20" stroke-width="21"/><path d="m0 0h850.394v850.394h-850.394z"/></g></svg>