<svg enable-background="new 0 0 850.394 850.394" height="850.394" viewBox="0 0 850.394 850.394" width="850.394" xmlns="http://www.w3.org/2000/svg"><path d="m630.6 402.69-70.06 5.39-14.66 1.13v-323.51l201.07 23.2v284.84z" fill="#7a7878"/><path d="m165.02 152.72v69.6c0 8.54-6.92 15.47-15.47 15.47h-20.62c-8.54 0-15.47-6.93-15.47-15.47v-69.6c0-8.54 6.93-15.46 15.47-15.46h10.95 9.67c8.55 0 15.47 6.92 15.47 15.46z" fill="#7a7878"/><path d="m429.88 133.39h113.42v198.49h-113.42z" fill="#231f20"/><path d="m630.6 402.69-40.58 136.05h-29.48v-130.66z" fill="#231f20"/><g fill="none"><path d="m293.26 176.57h131.47" stroke="#231f20" stroke-linecap="round" stroke-linejoin="round" stroke-width="21"/><path d="m291.32 291.93h131.46" stroke="#231f20" stroke-linecap="round" stroke-linejoin="round" stroke-width="21"/><path d="m429.88 133.39h113.42v198.49h-113.42z" stroke="#231f20" stroke-width="21"/><path d="m560.54 408.08-14.66 1.13v-323.51l201.07 23.2v284.84l-116.35 8.95z" stroke="#231f20" stroke-width="21"/><path d="m560.54 405.83v2.25 130.66h29.48l40.58-136.05.51-1.7" stroke="#231f20" stroke-width="21"/><path d="m139.88 70.23v67.03" stroke="#231f20" stroke-linecap="round" stroke-linejoin="round" stroke-width="21"/><path d="m165.02 222.32c0 8.54-6.92 15.47-15.47 15.47h-20.62c-8.54 0-15.47-6.93-15.47-15.47v-69.6c0-8.54 6.93-15.46 15.47-15.46h10.95 9.67c8.55 0 15.47 6.92 15.47 15.46z" stroke="#231f20" stroke-linecap="round" stroke-linejoin="round" stroke-width="21"/><path d="m136.66 241.01s-56.06 484.3 22.24 526.83 83.13-144.03 60.9-248.43c-22.24-104.4-28.55-177.09 15.46-179.8 62.83-3.87 65.97 252.88 94.73 324.8 36.74 91.83 116.97 148.859 187.54 81.2 70.56-67.67 56.06-204.94 56.06-204.94" stroke="#231f20" stroke-linecap="round" stroke-linejoin="round" stroke-width="21"/><path d="m0 0h850.394v850.394h-850.394z"/></g></svg>