<svg enable-background="new 0 0 850.394 850.394" height="850.394" viewBox="0 0 850.394 850.394" width="850.394" xmlns="http://www.w3.org/2000/svg"><path d="m685.57 191.38c0 5.51 5.399 8.99 12.06 8.99 6.65 0 12.05-4.48 12.05-9.99 0-5.53-5.399-10-12.05-10-6.66 0-12.06 5.47-12.06 11zm-96.01-39.67c12.57 0 22.771-8.45 22.771-18.88 0-10.42-10.2-18.87-22.771-18.87-12.579 0-22.77 8.45-22.77 18.87 0 10.43 10.19 18.88 22.77 18.88zm-137.26-48.99c-1.75-5.19-.62-11.16 8.99-16.06 19.84-10.12 65.64-19.49 74.71-22.66 0 .24 23.12-10.8 36.84-2.31 17.49 10.82 220.61 172.49 220.61 172.49l-52.04 27.5-.42-.79c0-10.41-10.2-18.87-22.771-18.87-12.58 0-22.77 8.46-22.77 18.87 0 7.13 4.76 13.33 11.78 16.54l.96 1.81-31.29 16.54-215.609-180.81c1.54.77-6.55-4.98-8.99-12.25zm162.9 99.95c0 7.37 7.22 14.35 16.1 14.35 8.91 0 16.12-5.98 16.12-13.35 0-7.38-7.21-14.36-16.12-14.36-8.88 0-16.1 5.98-16.1 13.36zm-116.02-96.06c0 5.52 5.391 9.99 12.051 9.99 6.649 0 12.05-4.47 12.05-9.99s-5.4-9.99-12.05-9.99c-6.661 0-12.051 4.47-12.051 9.99z" fill="#f6cc4b"/><path d="m718.22 242.02c12.57 0 22.771 8.46 22.771 18.87l.42.79-33.22 17.56-.96-1.81c-7.021-3.21-11.78-9.41-11.78-16.54-.001-10.41 10.189-18.87 22.769-18.87z" fill="#f6cc4b"/><path d="m461.29 114.97 215.61 180.81-.221.52-224.379-95.14v-98.44c2.44 7.27 10.53 13.02 8.99 12.25z" fill="#f6cc4b"/><path d="m697.63 180.38c6.65 0 12.05 4.47 12.05 10 0 5.51-5.399 9.99-12.05 9.99-6.66 0-12.06-3.48-12.06-8.99 0-5.53 5.4-11 12.06-11z" fill="#f6cc4b"/><path d="m517.96 402.61 24.73-8.68c9.84-3.46 20.619 1.72 24.06 11.56l91.17 259.8c3.45 9.84-1.729 20.62-11.56 24.07l-286.52 100.54c-9.84 3.449-20.61-1.73-24.07-11.561l-39.75-113.28-51.41-146.529c-3.46-9.84 1.72-20.61 11.56-24.07z" fill="#f6cc4b"/><path d="m631.3 189.31c8.91 0 16.12 6.98 16.12 14.36 0 7.37-7.21 13.35-16.12 13.35-8.88 0-16.1-6.98-16.1-14.35 0-7.38 7.22-13.36 16.1-13.36z" fill="#f6cc4b"/><path d="m589.56 113.96c12.57 0 22.771 8.45 22.771 18.87 0 10.43-10.2 18.88-22.771 18.88-12.579 0-22.77-8.45-22.77-18.88 0-10.42 10.19-18.87 22.77-18.87z" fill="#f6cc4b"/><path d="m511.23 96.62c6.649 0 12.05 4.47 12.05 9.99s-5.4 9.99-12.05 9.99c-6.66 0-12.051-4.47-12.051-9.99s5.391-9.99 12.051-9.99z" fill="#f6cc4b"/><path d="m478.21 289.33 39.75 113.28-261.79 91.85c-9.84 3.46-15.02 14.23-11.56 24.07l51.41 146.529-24.73 8.681c-9.83 3.45-20.61-1.73-24.07-11.561l-39.52-112.639-51.64-147.17c-3.45-9.84 1.73-20.62 11.57-24.07l255.84-89.78 30.669-10.76c9.851-3.45 20.621 1.73 24.071 11.57z" fill="#f6cc4b"/><path d="m383.95 175.89 39.52 112.63-255.84 89.78c-9.84 3.45-15.02 14.23-11.57 24.07l51.64 147.17-30.67 10.77c-9.84 3.44-20.62-1.729-24.07-11.569l-91.16-259.801c-3.46-9.84 1.72-20.62 11.56-24.07l286.52-100.54c9.84-3.45 20.62 1.72 24.07 11.56z" fill="#f6cc4b"/><g fill="none"><path d="m708.19 279.24-31.29 16.54" stroke="#000" stroke-width="14"/><path d="m452.3 102.72c-1.75-5.19-.62-11.16 8.99-16.06 19.84-10.12 65.64-19.49 74.71-22.66 0 .24 23.12-10.8 36.84-2.31 17.49 10.82 220.61 172.49 220.61 172.49l-52.04 27.5" stroke="#000" stroke-width="14"/><path d="m452.3 102.72c2.44 7.27 10.53 13.02 8.99 12.25l215.61 180.81" stroke="#000" stroke-width="14"/><path d="m741.41 261.68-33.22 17.56" stroke="#000" stroke-width="14"/><path d="m452.3 100.83v1.89 98.44l224.38 95.14 1.83.78" stroke="#000" stroke-width="14"/><path d="m612.33 132.83c0 10.43-10.2 18.88-22.771 18.88-12.579 0-22.77-8.45-22.77-18.88 0-10.42 10.19-18.87 22.77-18.87 12.571 0 22.771 8.45 22.771 18.87z" stroke="#000" stroke-width="14"/><path d="m707.23 277.43c-7.021-3.21-11.78-9.41-11.78-16.54 0-10.41 10.189-18.87 22.77-18.87 12.57 0 22.771 8.46 22.771 18.87" stroke="#000" stroke-width="14"/><path d="m647.42 203.67c0 7.37-7.21 13.35-16.12 13.35-8.88 0-16.1-6.98-16.1-14.35 0-7.38 7.22-13.36 16.1-13.36 8.91 0 16.12 6.98 16.12 14.36z" stroke="#000" stroke-width="14"/><path d="m709.68 190.38c0 5.51-5.399 9.99-12.05 9.99-6.66 0-12.06-3.48-12.06-8.99 0-5.53 5.399-11 12.06-11 6.65 0 12.05 4.47 12.05 10z" stroke="#000" stroke-width="14"/><path d="m523.28 106.61c0 5.52-5.4 9.99-12.05 9.99-6.66 0-12.051-4.47-12.051-9.99s5.391-9.99 12.051-9.99c6.65 0 12.05 4.47 12.05 9.99z" stroke="#000" stroke-width="14"/><path d="m207.7 549.54-30.67 10.77c-9.84 3.44-20.62-1.729-24.07-11.569l-91.16-259.801c-3.46-9.84 1.72-20.62 11.56-24.07l286.52-100.54c9.84-3.45 20.62 1.72 24.07 11.56l39.52 112.63" stroke="#000" stroke-width="21"/><path d="m296.03 665.06h-.01l-24.73 8.681c-9.83 3.45-20.61-1.73-24.07-11.561l-39.52-112.64-51.64-147.17c-3.45-9.84 1.73-20.62 11.57-24.07l255.84-89.78 30.669-10.76c9.851-3.45 20.62 1.73 24.07 11.57l39.75 113.28v.01" stroke="#000" stroke-width="21"/><path d="m517.96 402.61 24.73-8.68c9.84-3.46 20.619 1.72 24.06 11.56l91.17 259.8c3.45 9.84-1.729 20.62-11.56 24.07l-286.52 100.54c-9.84 3.449-20.61-1.73-24.07-11.561l-39.75-113.28-51.41-146.529c-3.46-9.84 1.72-20.61 11.56-24.07z" stroke="#000" stroke-width="21"/><path d="m0 0h850.394v850.394h-850.394z"/></g></svg>