<svg enable-background="new 0 0 850.394 850.394" height="850.394" viewBox="0 0 850.394 850.394" width="850.394" xmlns="http://www.w3.org/2000/svg"><path d="m741.71 614.46-.34 48.95-14.37 14.37-23.67-5.05.67-26.73-2.03-2.81z" fill="#f6cc4b"/><path d="m745.09 130.1-3.38 484.36-39.74 28.73-59.6 43.09h-.01l2.14-539.15.26-4.48 4 .23 95.58-16.98z" fill="#f6cc4b"/><path d="m596.12 139.88-.32 5.66-.31 142.11-238.44-23.49 1.73-137.82z" fill="#fff5b4"/><path d="m755.06 124-10.72 1.9-95.58 16.98-4-.23-48.64-2.77-237.34-13.54-217.08-12.38-35.77-2.05-6.42-.36 164.97-18.7z" fill="#f6cc4b"/><path d="m358.78 126.34-1.73 137.82-215.35-21.22v-128.98z" fill="#fff5b4"/><path d="m141.7 113.96v128.98 239.5 147.97 32.1l-5.75 2.76-30.34-7.19v-540.48l.32-5.69z" fill="#f6cc4b"/><path d="m594.93 547.91-.37 171.8-438.3-87.32-9.93-1.98h-4.63v-147.97z" fill="#fff5b4"/><path d="m595.21 416.62-.28 131.29-453.23-65.47v-239.5l215.35 21.22 238.44 23.49z" fill="#fff5b4"/><path d="m595.49 287.65.31-142.11.32-5.66 48.64 2.77-.26 4.48-2.14 539.15-.26 66.8-13.57 13.58-34.06-7.12.09-39.83.37-171.8.28-131.29z" fill="#f6cc4b"/><g fill="none"><path d="m155.91 634.13v21.56l-14.21 6.82-5.75 2.76-30.34-7.19v-540.48" stroke="#231f20" stroke-width="21"/><path d="m755.07 124 7.59-1.35" stroke="#231f20" stroke-width="21"/><path d="m99.51 111.55 6.42.36 35.77 2.05 217.08 12.38 237.34 13.54 48.64 2.77 4 .23 95.58-16.98 10.72-1.9" stroke="#231f20" stroke-width="21"/><path d="m88.85 110.94 10.64.61" stroke="#231f20" stroke-width="21"/><path d="m99.49 111.55h.02l164.97-18.7 490.58 31.15h.01" stroke="#231f20" stroke-width="21"/><path d="m141.7 113.96v128.98 239.5 147.97 32.1 2.76" stroke="#231f20" stroke-width="21"/><path d="m644.5 147.13-2.14 539.15-.26 66.8-13.57 13.58-34.06-7.12.09-39.83.37-171.8.28-131.29.28-128.97.31-142.11" stroke="#231f20" stroke-width="21"/><path d="m146.33 630.41 9.93 1.98 438.3 87.32 1.44.29" stroke="#231f20" stroke-width="21"/><path d="m642.37 686.28 59.6-43.09 39.74-28.73" stroke="#231f20" stroke-width="21"/><path d="m745.09 130.1-3.38 484.36-.34 48.95-14.37 14.37-23.67-5.05.67-26.73" stroke="#231f20" stroke-width="21"/><path d="m141.7 242.94 215.35 21.22 238.44 23.49h.01" stroke="#231f20" stroke-width="21"/><path d="m149.43 364.2 445.78 52.42.29.03" stroke="#231f20" stroke-width="21"/><path d="m141.7 482.44 453.23 65.47" stroke="#231f20" stroke-width="21"/><path d="m358.78 126.34-1.73 137.82" stroke="#231f20" stroke-width="21"/><path d="m210.34 193.63 69.31 6.99" stroke="#231f20" stroke-linecap="round" stroke-linejoin="round" stroke-width="21"/><path d="m315.1 325.88 69.32 6.99" stroke="#231f20" stroke-linecap="round" stroke-linejoin="round" stroke-width="21"/><path d="m315.1 449.7 69.32 7" stroke="#231f20" stroke-linecap="round" stroke-linejoin="round" stroke-width="21"/><path d="m314.25 572.88 68.4 13.24" stroke="#231f20" stroke-linecap="round" stroke-linejoin="round" stroke-width="21"/><path d="m439.54 215.21 69.31 6.99" stroke="#231f20" stroke-linecap="round" stroke-linejoin="round" stroke-width="21"/><path d="m0 0h850.394v850.394h-850.394z"/></g></svg>