<svg enable-background="new 0 0 850.394 850.394" height="850.394" viewBox="0 0 850.394 850.394" width="850.394" xmlns="http://www.w3.org/2000/svg"><path d="m443.04 285.31v61.89l-33.13 9.46v-74.58l18.38-15.53z" fill="#9e5b16"/><path d="m277.39 282.08v112.46l-36.72 10.49v-307.33c0-6.35 2.92-12.02 7.49-15.73l.06.07 29.17 33.73v123.39l-29.29 22.03z" fill="#9e5b16"/><path d="m575.55 244.39v-1.88l27.86 20.5-27.86 21.59v-2.95h-132.51v3.66l-14.75-18.76 14.75-22.16z" fill="#9e5b16"/><path d="m575.55 242.51v1.88h-132.51v-129.05h3.48 129.03v3.75z" fill="#9e5b16"/><path d="m612.04 97.7v202.61h-.021c-1.579.49-4.279.51-6.02.46l.05-.16-30.5 8.72v-24.73l27.86-21.59-27.86-20.5v-123.42l29.05-33.57 2.181-1.45c3.26 3.6 5.26 8.38 5.26 13.63z" fill="#9e5b16"/><path d="m277.39 239.16v-123.39h132.52v129.06h-2.05-130.47z" fill="#9e5b16"/><path d="m407.86 244.91 20.43 21.64-18.38 15.53h-132.52l-29.29-20.89 29.29-22.03v5.67h130.47z" fill="#9e5b16"/><path d="m591.78 77.44c5.939 0 11.29 2.56 15 6.63l-2.181 1.45-29.05 33.57v-3.75h-129.029-3.479v129.05l-14.75 22.16-20.43-21.64v-.08h2.05v-129.06l12.33-38.33z" fill="#9e5b16"/><path d="m422.24 77.44-12.33 38.33h-132.52l-29.17-33.73-.06-.07c3.49-2.83 7.93-4.53 12.77-4.53z" fill="#9e5b16"/><path d="m409.91 282.08v74.58l-132.52 37.88v-112.46z" fill="#9e5b16"/><path d="m575.55 284.6v24.73l-132.51 37.87v-61.89-3.66h132.51z" fill="#9e5b16"/><path d="m612.04 300.31v477.59h-371.37v-372.87s246.44-6.09 295.73 105.43l69.6-209.69c1.74.05 4.44.03 6.02-.46z" fill="#a800d4"/><path d="m443.04 347.2 132.51-37.87 30.5-8.72-.05.16-69.6 209.69c-49.29-111.52-295.73-105.43-295.73-105.43l36.72-10.49 132.52-37.88z" fill="#f6cc4b"/><g fill="none"><path d="m409.91 115.77v129.06h-2.05-130.47v-5.67-123.39z" stroke="#000" stroke-width="21.4426"/><path d="m575.55 242.51v1.88h-132.51v-129.05h3.48 129.03v3.75z" stroke="#000" stroke-width="21.4426"/><path d="m277.39 394.56v-.02-112.46h132.52v74.58.07" stroke="#000" stroke-width="21.4426"/><path d="m443.04 347.28v-.08-61.89-3.66h132.51v2.95 24.73.14" stroke="#000" stroke-width="21.4426"/><path d="m606 300.77.05-.16-30.5 8.72-132.51 37.87-33.13 9.46-132.52 37.88-36.72 10.49s246.44-6.09 295.73 105.43z" stroke="#000" stroke-width="21.4426"/><path d="m612.04 300.31v477.59h-371.37v-372.87-307.33c0-6.35 2.92-12.02 7.49-15.73 3.49-2.83 7.93-4.53 12.77-4.53h161.31 169.54c5.939 0 11.29 2.56 15 6.63 3.26 3.6 5.26 8.38 5.26 13.63z" stroke="#000" stroke-width="21.4426"/><path d="m248.22 82.04 29.17 33.73" stroke="#000" stroke-width="21.4426"/><path d="m248.1 261.19 29.29-22.03.78-.59" stroke="#000" stroke-width="21.4426"/><path d="m604.6 85.52-29.05 33.57-.13.15" stroke="#000" stroke-width="21.4426"/><path d="m422.24 77.44-12.33 38.33" stroke="#000" stroke-width="21.4426"/><path d="m431.14 82.55 15.38 32.79" stroke="#000" stroke-width="21.4426"/><path d="m428.29 266.55 14.75-22.16" stroke="#000" stroke-width="21.4426"/><path d="m428.29 266.55-20.43-21.64" stroke="#000" stroke-width="21.4426"/><path d="m248.1 261.19 29.29 20.89" stroke="#000" stroke-width="21.4426"/><path d="m603.41 263.01-27.86 21.59-1.32 1.02" stroke="#000" stroke-width="21.4426"/><path d="m603.41 263.01-27.86-20.5-.53-.39" stroke="#000" stroke-width="21.4426"/><path d="m409.91 282.08 18.38-15.53 14.75 18.76" stroke="#000" stroke-width="21.4426"/><path d="m0 0h850.394v850.394h-850.394z"/></g></svg>