<svg enable-background="new 0 0 850.394 850.394" height="850.394" viewBox="0 0 850.394 850.394" width="850.394" xmlns="http://www.w3.org/2000/svg"><path d="m579.33 485.44c14.41 5.39 22.83 29.18 38.45 36.25l-22.38 42.61-68.46-12.75-.011-.03c1.391-.229 2.91-.34 4.561-.34.779-18.609-5.87-29.43-7.95-46.47 15.64-8.11 42.67-24.18 55.79-19.27z" fill="#fbee34"/><path d="m357.4 366.79 4.61 104.979h-20.4v-1.149l-7.68-46.06-.27-.03c.54-6.4-.89-13.23-4.78-19.82-13.73-23.23-48.93-26.42-60.15-2.89-2.26 2.98-3.94 6.66-4.76 10.98-.69 3.65-.85 7.33-.46 10.91l-7.67 48.06h-15.53l4.61-104.979h112.48z" fill="#ffffc2"/><path d="m341.61 471.77h-85.77l7.67-48.06c1.56 14.88 12.4 28.04 32.9 30.13 20.1 2.061 35.79-12.07 37.25-29.31l.27.03 7.68 46.06z" fill="#9e5c26"/><path d="m255.84 471.77h85.77 20.4l4.59 104.83h-18.55v-1.239l-5.12-34.391-.13.011-4.34-49.981c0-1.81-1.79-3.28-3.99-3.28h-60.79c-2.2 0-3.98 1.471-3.98 3.28l-8.44 51.21-5.13 34.39h-20.41l4.59-104.83z" fill="#ffffc2"/><path d="m141.27 545.48c-2.2 0-3.98-1.461-3.98-3.271l8.44-51.21c0-1.81 1.78-3.28 3.98-3.28h60.8c2.2 0 3.98 1.471 3.98 3.28l4.35 49.98.11 1.229c0 1.81-1.79 3.271-3.99 3.271h-73.69z" fill="#9e5c26"/><path d="m218.96 540.97 5.13 34.391v1.239h-91.93l5.13-34.39c0 1.81 1.78 3.271 3.98 3.271h73.69c2.2 0 3.99-1.461 3.99-3.271l-.11-1.229z" fill="#9e5c26"/><path d="m268.73 401.82c11.22-23.53 46.42-20.34 60.15 2.89 3.89 6.59 5.32 13.42 4.78 19.82-1.46 17.24-17.15 31.371-37.25 29.31-20.5-2.09-31.34-15.25-32.9-30.13-.39-3.58-.23-7.26.46-10.91.82-4.32 2.5-8 4.76-10.98z" fill="#9e5c26"/><path d="m265.24 545.48c-2.2 0-3.98-1.461-3.98-3.271l8.44-51.209c0-1.81 1.78-3.28 3.98-3.28h60.79c2.2 0 3.99 1.471 3.99 3.28l4.34 49.98.11 1.229c0 1.81-1.78 3.271-3.99 3.271z" fill="#9e5c26"/><path d="m342.93 540.97 5.12 34.391v1.239h-91.92l5.13-34.39c0 1.81 1.78 3.271 3.98 3.271h73.68c2.21 0 3.99-1.461 3.99-3.271l-.11-1.229z" fill="#9e5c26"/><path d="m265.24 648.74c-2.2 0-3.98-1.471-3.98-3.28l8.44-51.21c0-1.81 1.78-3.27 3.98-3.27h60.79c2.2 0 3.99 1.46 3.99 3.27l4.34 49.99.11 1.22c0 1.81-1.78 3.28-3.99 3.28z" fill="#9e5c26"/><path d="m342.93 644.23 5.12 34.39v2.96h-91.92v-1.73l5.13-34.39c0 1.81 1.78 3.28 3.98 3.28h73.68c2.21 0 3.99-1.471 3.99-3.28l-.11-1.22z" fill="#9e5c26"/><path d="m400.61 607.4c11.2-23.601 46.46-20.44 60.2 2.819 3.891 6.59 5.32 13.42 4.78 19.82-1.46 17.229-17.149 31.37-37.25 29.32-20.5-2.091-31.35-15.261-32.9-30.13v-.011c-.39-3.58-.22-7.26.47-10.91.82-4.288 2.47-7.938 4.7-10.908z" fill="#9e5c26"/><path d="m473.53 678.12v3.46h-85.76v-4.29l7.67-48.06c1.55 14.869 12.4 28.039 32.9 30.13 20.101 2.05 35.79-12.091 37.25-29.32l.271.03z" fill="#9e5c26"/><path d="m739.78 712.77s.62 8.961-6.91 16.5c-8.771 8.771-19.8 13.521-42.37 11.841-37.9-2.811-36.48-29.181-36.48-29.181l7.671-74.279c1.55 14.869 12.399 28.029 32.899 30.119 20.101 2.051 35.79-12.079 37.25-29.31l.271.03z" fill="#9e5c26"/><path d="m666.86 615.82c11.199-23.601 46.46-20.44 60.199 2.819 3.891 6.591 5.32 13.42 4.78 19.82-1.46 17.23-17.149 31.36-37.25 29.31-20.5-2.09-31.35-15.25-32.899-30.119v-.011c-.391-3.58-.221-7.26.47-10.909.82-4.29 2.47-7.94 4.7-10.91z" fill="#9e5c26"/><path d="m492.8 681.58.62 4.25-17.28 86.29h-349.83l-17.27-86.29.48-4.25h121.59 25.02 91.92 23.16 16.56 85.76z" fill="#8c469b"/><path d="m673.88 513.91c-4.31 12.149-2.86 47.12-11.33 55.66-9.2 9.26-30.76 24.37-50.939 36.479v-.01l-16.211-41.739 22.38-42.609c12.49-8.541 40.8-6.141 56.1-7.781z" fill="#fbee34"/><path d="m611.61 606.04v.01c-9.53 5.72-18.75 10.76-26.21 14.21-14.25 6.59-20.67-10.46-32.721-16.79-13.59-7.13-19.449-1.399-35.489 3.83 1.729-10.59-16.521-51.68 9.739-55.78l.011.03 68.46 12.75z" fill="#fbee34"/><path d="m486.66 576.6 6.14 104.98h-19.27v-3.46l-7.67-48.05-.271-.03c.54-6.4-.89-13.23-4.78-19.82-13.739-23.26-49-26.42-60.2-2.819-2.23 2.97-3.88 6.619-4.7 10.909-.69 3.65-.86 7.33-.47 10.91v.011l-7.67 48.06v4.29h-16.56l-4.609-104.981z" fill="#ffffc2"/><path d="m366.6 576.6 4.61 104.98h-23.16v-2.96l-5.12-34.39-.13.01-4.34-49.99c0-1.81-1.79-3.27-3.99-3.27h-60.79c-2.2 0-3.98 1.46-3.98 3.27l-8.44 51.21-5.13 34.39v1.73h-25.02l4.61-104.98h20.41 91.92z" fill="#ffffc2"/><path d="m235.72 576.6-4.61 104.98h-121.59l6.14-104.98h16.5 91.93z" fill="#ffffc2"/><path d="m240.31 471.77-4.59 104.83h-11.63v-1.239l-5.13-34.391-.12.011-4.35-49.981c0-1.81-1.78-3.28-3.98-3.28h-60.8c-2.2 0-3.98 1.471-3.98 3.28l-8.44 51.21-5.13 34.39h-16.5l6.14-104.83z" fill="#ffffc2"/><path d="m480.52 471.77 6.14 104.83h-120.06l-4.59-104.83z" fill="#ffffc2"/><path d="m474.38 366.79 6.14 104.98h-118.51l-4.61-104.98z" fill="#ffffc2"/><path d="m244.92 366.79-4.61 104.98h-118.51l6.14-104.98z" fill="#ffffc2"/><path d="m127.37 78.47h347.01v56.52h-347.01z" fill="#ffffc2"/><path d="m474.38 134.99v231.8h-116.98-112.48-116.98-.57v-231.8z" fill="#ffffc2"/><g fill="none"><path d="m493.42 685.83-17.28 86.29h-349.83l-17.27-86.29" stroke="#231f20" stroke-width="14"/><path d="m474.38 366.79 6.14 104.98 6.14 104.83 6.14 104.98h-19.27-85.76-16.56-23.16-91.92-25.02-121.59l6.14-104.98 6.14-104.83 6.14-104.98" stroke="#231f20" stroke-width="14"/><path d="m109.52 576.6h6.14 16.5 91.93 11.63 20.41 91.92 18.55 120.06 6.14" stroke="#231f20" stroke-width="7"/><path d="m118.73 471.77h3.07 118.51 15.53 85.77 20.4 118.51 3.07" stroke="#231f20" stroke-width="7"/><path d="m357.4 366.79 4.61 104.98 4.59 104.83 4.61 104.98" stroke="#231f20" stroke-width="7"/><path d="m244.92 366.79-4.61 104.98-4.59 104.83-4.61 104.98" stroke="#231f20" stroke-width="7"/><path d="m218.84 540.98.11 1.229c0 1.81-1.79 3.271-3.99 3.271h-73.69c-2.2 0-3.98-1.461-3.98-3.271l8.44-51.21c0-1.81 1.78-3.28 3.98-3.28h60.8c2.2 0 3.98 1.471 3.98 3.28z" stroke="#231f20" stroke-width="7"/><path d="m137.29 542.21-5.13 34.39" stroke="#231f20" stroke-width="7"/><path d="m218.96 540.97 5.13 34.39" stroke="#231f20" stroke-width="7"/><path d="m342.8 540.98.11 1.229c0 1.81-1.78 3.271-3.99 3.271h-73.68c-2.2 0-3.98-1.461-3.98-3.271l8.44-51.209c0-1.81 1.78-3.28 3.98-3.28h60.79c2.2 0 3.99 1.471 3.99 3.28z" stroke="#231f20" stroke-width="7"/><path d="m261.26 542.21-5.13 34.39" stroke="#231f20" stroke-width="7"/><path d="m342.93 540.97 5.12 34.39" stroke="#231f20" stroke-width="7"/><path d="m342.8 644.24.11 1.22c0 1.81-1.78 3.28-3.99 3.28h-73.68c-2.2 0-3.98-1.471-3.98-3.28l8.44-51.21c0-1.81 1.78-3.27 3.98-3.27h60.79c2.2 0 3.99 1.46 3.99 3.27z" stroke="#231f20" stroke-width="7"/><path d="m261.26 645.46-5.13 34.39" stroke="#231f20" stroke-width="7"/><path d="m342.93 644.23 5.12 34.39" stroke="#231f20" stroke-width="7"/><path d="m292.85 404.48c-21.61-2.19-25.98 25.55-6.43 30.19 20.14 4.8 33.23-14.03 20.62-31.19-10.53-14.35-29.19-13.71-38.31-1.66-2.26 2.98-3.94 6.66-4.76 10.98-.69 3.65-.85 7.33-.46 10.91 1.56 14.88 12.4 28.04 32.9 30.13 20.1 2.061 35.79-12.07 37.25-29.31.54-6.4-.89-13.23-4.78-19.82-13.73-23.23-48.93-26.42-60.15-2.89-.03.05-.05.11-.08.16" stroke="#231f20" stroke-linecap="round" stroke-linejoin="round" stroke-width="7"/><path d="m263.51 423.71-7.67 48.06" stroke="#231f20" stroke-width="7"/><path d="m333.93 424.56 7.68 46.06" stroke="#231f20" stroke-width="7"/><path d="m395.44 629.23c1.55 14.869 12.4 28.039 32.9 30.13 20.101 2.05 35.79-12.091 37.25-29.32.54-6.4-.89-13.23-4.78-19.82-13.739-23.26-49-26.42-60.2-2.819-.01.029-.03.06-.04.09" stroke="#231f20" stroke-linecap="round" stroke-linejoin="round" stroke-width="7"/><path d="m424.78 609.99c-21.6-2.19-25.99 25.55-6.43 30.2 20.14 4.79 33.24-14.04 20.63-31.2-10.551-14.38-29.271-13.7-38.371-1.59-2.23 2.97-3.88 6.619-4.7 10.909-.69 3.65-.86 7.33-.47 10.91" stroke="#231f20" stroke-linecap="round" stroke-linejoin="round" stroke-width="7"/><path d="m395.44 629.22v.01l-7.67 48.06" stroke="#231f20" stroke-width="7"/><path d="m465.86 630.07 7.67 48.05" stroke="#231f20" stroke-width="7"/><path d="m661.69 637.65c1.55 14.869 12.399 28.029 32.899 30.119 20.101 2.051 35.79-12.079 37.25-29.31.54-6.4-.89-13.229-4.78-19.82-13.739-23.26-49-26.42-60.199-2.819-.011.029-.03.06-.04.09" stroke="#231f20" stroke-linecap="round" stroke-linejoin="round" stroke-width="7"/><path d="m691.03 618.41c-21.601-2.19-25.99 25.55-6.431 30.2 20.141 4.79 33.24-14.04 20.631-31.21-10.551-14.37-29.271-13.69-38.37-1.58-2.23 2.97-3.88 6.62-4.7 10.91-.69 3.649-.86 7.329-.47 10.909" stroke="#231f20" stroke-linecap="round" stroke-linejoin="round" stroke-width="7"/><path d="m661.69 637.64v.011l-7.671 74.279s-1.42 26.37 36.48 29.181c22.57 1.68 33.6-3.07 42.37-11.841 7.53-7.539 6.91-16.5 6.91-16.5l-7.67-74.279" stroke="#231f20" stroke-width="7"/><path d="m474.38 366.79h-116.98-112.48-116.98-.57v-231.8-56.52h347.01v56.52z" stroke="#231f20" stroke-width="14"/><path d="m127.37 134.99h347.01" stroke="#231f20" stroke-width="14"/><path d="m518.57 507.18c1.47-.68 3.14-1.52 4.97-2.47 15.64-8.11 42.67-24.18 55.79-19.27 14.41 5.39 22.83 29.18 38.45 36.25 12.489-8.54 40.8-6.141 56.1-7.78-4.31 12.149-2.86 47.12-11.33 55.66-9.2 9.26-30.76 24.37-50.939 36.479-9.53 5.72-18.75 10.76-26.21 14.21-14.25 6.59-20.67-10.46-32.721-16.79-13.59-7.13-19.449-1.399-35.489 3.83 1.729-10.59-16.521-51.68 9.739-55.78 1.391-.229 2.91-.34 4.561-.34.779-18.609-5.87-29.43-7.95-46.47-.17-1.32-.31-2.68-.41-4.09" stroke="#231f20" stroke-width="14"/><path d="m617.78 521.69-22.38 42.61-68.46-12.75" stroke="#231f20" stroke-width="7"/><path d="m595.4 564.3 16.21 41.74" stroke="#231f20" stroke-width="7"/><path d="m0 0h850.394v850.394h-850.394z"/></g></svg>