<svg enable-background="new 0 0 850.394 850.394" height="850.394" viewBox="0 0 850.394 850.394" width="850.394" xmlns="http://www.w3.org/2000/svg"><path d="m408.04 241.37v-.09h2.03v-127.83l17.35-36.57 18.91 36.15h-3.45v125.74l-16.27 24.02z" fill="#9e5b16"/><path d="m427.42 75.49v1.39l-17.35 36.57h-131.25l-28.83-33.32c3.44-2.91 7.78-4.64 12.52-4.64z" fill="#9e5b16"/><path d="m446.33 113.03-18.91-36.15v-1.39h162.78c5.54 0 10.56 2.37 14.189 6.21l-1.5 1.79-28.76 33.26v-3.72z" fill="#9e5b16"/><path d="m575.52 736.44v-125.96l28.721-18.95-30.11-21.471v-122.019h.09l32.141-23.91-30.841-18.85v-125.89h.74l30.101-20.1-32.23-20.36v-122.18l28.76-33.26 1.5-1.79c3.63 3.84 5.88 9.14 5.88 15v659.01c0 11.71-8.989 21.21-20.069 21.21h-327.693c-11.08 0-20.06-9.5-20.06-21.21v-659.01c0-6.71 2.94-12.69 7.54-16.57l28.83 33.32v122.27l-29.85 24.55-.2.33 31.44 19.21v122.33l-30.25 27.2 30.25 15.2h-1.39v122.27l-31.74 26.59 31.74 15.859 1.39 1.641v126.53 1.311h129.22v.08l19.65 33.39 15.189-33.9h131.25v-1.871z" fill="#9e5b16"/><path d="m606.36 259.29-30.1 20.1h-.74-131.25v1.99h-1.39l-16.27-18.59 16.27-24.02v2.08h131.25v-1.92z" fill="#9e5b16"/><path d="m606.36 424.13-32.14 23.91h-.09v-3.92h-131.25l-12.26-16.98-.95-1.31 14.6-18.62h131.25v-1.93z" fill="#9e5b16"/><path d="m604.24 591.53-28.72 18.95h-131.25v1.98h-1.39l-14.6-18.58 14.6-21.94h131.25v-1.88z" fill="#9e5b16"/><path d="m575.52 736.44v1.87h-131.25v-125.85-1.98h131.25z" fill="#9e5b16"/><path d="m575.52 405.28v1.93h-131.25v-125.83-1.99h131.25z" fill="#9e5b16"/><path d="m574.13 570.06v1.88h-131.25v-127.82h131.25v3.92z" fill="#9e5b16"/><path d="m574.13 238.93v1.92h-131.25v-2.08-125.74h3.45 127.8v3.72z" fill="#9e5b16"/><path d="m444.27 612.46v125.85l-15.19 33.9-19.65-33.39v-.08h2.03v-127.84h-1.39v-1.64l18.21-15.38 14.6 18.58z" fill="#9e5b16"/><path d="m444.27 281.38v125.83l-14.6 18.62-20.24-18.1v-.09h2.03v-127.83h-1.39v-1.63l16.54-15.39 16.27 18.59z" fill="#9e5b16"/><path d="m442.88 444.12v127.82l-14.6 21.94-20.24-21.42v-.09h2.03v-127.83h1.39l19.16-17.4z" fill="#9e5b16"/><path d="m429.67 425.83.95 1.31-19.16 17.4h-1.39-129.86l-30.25-15.2 30.25-27.2v5.5h129.22v.09z" fill="#9e5b16"/><path d="m408.04 572.46 20.24 21.42-18.21 15.38v1.64h-129.86l-1.39-1.64-31.74-15.86 31.74-26.59v5.56h129.22z" fill="#9e5b16"/><path d="m408.04 241.37 18.57 21.42-16.54 15.39v1.63h-129.86l-31.44-19.21.2-.33 29.85-24.55v5.56h129.22z" fill="#9e5b16"/><path d="m280.21 737.43v-126.53h129.86 1.39v127.84h-2.03-129.22z" fill="#9e5b16"/><path d="m280.21 402.14v-122.33h129.86 1.39v127.83h-2.03-129.22z" fill="#9e5b16"/><path d="m278.82 566.81v-122.27h1.39 129.86v127.83h-2.03-129.22z" fill="#9e5b16"/><path d="m278.82 235.72v-122.27h131.25v127.83h-2.03-129.22z" fill="#9e5b16"/><g fill="none"><path d="m410.07 113.45v127.83h-2.03-129.22v-5.56-122.27z" stroke="#000" stroke-width="21.2377"/><path d="m574.13 238.93v1.92h-131.25v-2.08-125.74h3.45 127.8v3.72z" stroke="#000" stroke-width="21.2377"/><path d="m249.92 80.05.07.08 28.83 33.32" stroke="#000" stroke-width="21.2377"/><path d="m248.97 260.27 29.85-24.55.77-.63" stroke="#000" stroke-width="21.2377"/><path d="m602.89 83.49-28.76 33.26-.13.15" stroke="#000" stroke-width="21.2377"/><path d="m427.42 76.88-17.35 36.57" stroke="#000" stroke-width="21.2377"/><path d="m427.42 76.88 18.91 36.15" stroke="#000" stroke-width="21.2377"/><path d="m426.61 262.79 16.27-24.02" stroke="#000" stroke-width="21.2377"/><path d="m426.61 262.79-18.57-21.42" stroke="#000" stroke-width="21.2377"/><path d="m248.03 260.15.74.45 31.44 19.21" stroke="#000" stroke-width="21.2377"/><path d="m606.36 259.29-30.1 20.1" stroke="#000" stroke-width="21.2377"/><path d="m606.36 259.29-32.23-20.36-.54-.34" stroke="#000" stroke-width="21.2377"/><path d="m410.07 278.18 16.54-15.39 16.27 18.59" stroke="#000" stroke-width="21.2377"/><path d="m410.07 279.81h1.39v127.83h-2.03-129.22v-5.5-122.33z" stroke="#000" stroke-width="21.2377"/><path d="m575.52 405.28v1.93h-131.25v-125.83-1.99h131.25z" stroke="#000" stroke-width="21.2377"/><path d="m249.96 429.34 30.25-27.2.77-.69" stroke="#000" stroke-width="21.2377"/><path d="m429.67 425.83 14.6-18.62" stroke="#000" stroke-width="21.2377"/><path d="m429.67 425.83-20.24-18.1" stroke="#000" stroke-width="21.2377"/><path d="m249.96 429.34 30.25 15.2" stroke="#000" stroke-width="21.2377"/><path d="m606.36 424.13-32.14 23.91" stroke="#000" stroke-width="21.2377"/><path d="m606.36 424.13-30.84-18.85-.53-.32" stroke="#000" stroke-width="21.2377"/><path d="m411.46 444.54 19.16-17.4 12.26 16.98" stroke="#000" stroke-width="21.2377"/><path d="m410.07 444.54v127.83h-2.03-129.22v-5.56-122.27h1.39z" stroke="#000" stroke-width="21.2377"/><path d="m574.13 570.06v1.88h-131.25v-127.82h131.25v3.92z" stroke="#000" stroke-width="21.2377"/><path d="m247.08 593.4 31.74-26.59.77-.64" stroke="#000" stroke-width="21.2377"/><path d="m428.28 593.88 14.6-21.94" stroke="#000" stroke-width="21.2377"/><path d="m428.28 593.88-20.24-21.42" stroke="#000" stroke-width="21.2377"/><path d="m247.08 593.4 31.74 15.86" stroke="#000" stroke-width="21.2377"/><path d="m604.24 591.53-28.72 18.95" stroke="#000" stroke-width="21.2377"/><path d="m604.24 591.53-30.11-21.47-.54-.38" stroke="#000" stroke-width="21.2377"/><path d="m410.07 609.26 18.21-15.38 14.6 18.58" stroke="#000" stroke-width="21.2377"/><path d="m410.07 610.9h1.39v127.84h-2.03-129.22v-1.31-126.53z" stroke="#000" stroke-width="21.2377"/><path d="m575.52 736.44v1.87h-131.25v-125.85-1.98h131.25z" stroke="#000" stroke-width="21.2377"/><path d="m252.09 769.95 28.12-32.52.77-.89" stroke="#000" stroke-width="21.2377"/><path d="m429.08 772.21 15.19-33.9" stroke="#000" stroke-width="21.2377"/><path d="m429.08 772.21-19.65-33.39" stroke="#000" stroke-width="21.2377"/><path d="m603.11 756.74-27.59-20.3-.53-.39" stroke="#000" stroke-width="21.2377"/><path d="m604.39 81.7c3.63 3.84 5.88 9.14 5.88 15v659.01c0 11.71-8.989 21.21-20.069 21.21h-327.691c-11.08 0-20.06-9.5-20.06-21.21v-659.01c0-6.71 2.94-12.69 7.54-16.57 3.44-2.91 7.78-4.64 12.52-4.64h164.91 162.78c5.54 0 10.56 2.37 14.19 6.21z" stroke="#000" stroke-width="21.2377"/><path d="m0 0h850.394v850.394h-850.394z"/></g></svg>