<svg enable-background="new 0 0 850.394 850.394" height="850.394" viewBox="0 0 850.394 850.394" width="850.394" xmlns="http://www.w3.org/2000/svg"><path d="m428.33 304c.05 21.57 3.4 55.28 17.3 90.92-6.53-1.33-13.29-2.03-20.22-2.03-6.31 0-12.48.58-18.46 1.7 13.71-35.64 16.91-69.25 16.89-90.59z" fill="#fbee34"/><path d="m478.11 572.37c-15.261 9.46-33.33 14.939-52.7 14.939-20.54 0-39.61-6.159-55.42-16.689-18.97-12.65-33.23-31.61-39.67-53.811-2.46-8.479-3.78-17.449-3.78-26.71 0-10.979 1.85-21.54 5.28-31.39l5.69 41.81s15.06-17.409 32.72-41.67c4.19-5.76 8.54-11.909 12.86-18.31 10.25-15.16 18.01-30.74 23.86-45.95 5.98-1.12 12.15-1.7 18.46-1.7 6.93 0 13.689.7 20.22 2.03 5.8 14.88 13.45 30.1 23.46 44.91 3.4 5.04 6.82 9.92 10.17 14.58 18.79 26.17 35.391 45.38 35.391 45.38l5.25-38.41c2.85 9.08 4.39 18.72 4.39 28.72 0 8.801-1.19 17.33-3.43 25.431-6.531 23.81-22.051 44-42.751 56.84z" fill="#fbee34"/><path d="m445.54 58.05c6.9 0 12.5 5.6 12.5 12.51v173.58l2.43 2.06c-3.85 3.53-6.069 5.91-6.069 5.91l-.131 6.58c-2.119-4.91-6.75-8.47-12.27-9.08l.1-.85v-189.96-.75z" fill="#fbee34"/><path d="m408.94 249.6c-4.83.49-8.99 3.25-11.4 7.2l-.12-6.02s-2.46-2.64-6.69-6.47l2.05-.17v-173.58c0-6.91 5.59-12.51 12.49-12.51h3.58v188.51z" fill="#fbee34"/><path d="m408.85 246.56v-188.51h33.25v.75 189.96l-.1.85c-.55-.06-1.1-.09-1.67-.09h-29.84c-.52 0-1.04.03-1.55.08z" fill="#ed1d31"/><path d="m428.33 302.34v1.66h-4.49c0-.32 0-.63 0-.94l-1.99.94h-11.36c-4.94 0-9.33-2.36-12.09-6.02l-.86-41.18c2.41-3.95 6.57-6.71 11.4-7.2.51-.05 1.03-.08 1.55-.08h29.84c.57 0 1.12.03 1.67.09 5.52.61 10.15 4.17 12.27 9.08l-.77 37.66c-2.61 4.57-7.53 7.65-13.17 7.65h-8.49z" fill="#ed1d31"/><path d="m521.49 329.63c1.42-35.15-5.57-66.24-10.431-83.16h.011l38.569-35.85-.02-.16c6.93-.8 11.21-1.09 11.21-1.09s4.75 11.26 7.01 26.74c2.24 15.51 5.49 45.73.25 66.72-3.27 13.08-8.2 28.51-12.12 39.42l-.06-.02-12.769 11.87c-5.779-1.22-14.279-3.25-23.159-6.12.789-6.2 1.269-12.33 1.509-18.35z" fill="#ed1d31"/><path d="m523.58 408.12c27.46 37.729 42.97 49.3 42.97 49.3l-45.399-5.189-1.25 9.149c-4.641-14.79-12.78-28.07-23.46-38.91 1.09-2.31 2.18-4.66 3.239-7.06l.221.1z" fill="#ed1d31"/><path d="m555.91 342.23.06.02c-2.35 6.58-4.35 11.52-5.38 13.3 0 0-2.87-.47-7.45-1.45z" fill="#fff"/><path d="m508.46 217.8c15.9-3.97 31.24-6.18 41.16-7.34l.02.16-38.569 35.85h-.011c-.85-2.93-1.63-5.44-2.279-7.46-1.271-3.9-2.101-6.04-2.101-6.04z" fill="#ed1d31"/><path d="m505 402.8c1.8-4.52 3.53-9.17 5.18-13.95 1.16 1.8 2.37 3.6 3.61 5.41 3.42 4.97 6.68 9.59 9.79 13.86l-23.68 7.39-.221-.1c1.821-4.08 3.601-8.29 5.321-12.61z" fill="#ed1d31"/><path d="m511.06 246.47c4.86 16.92 11.851 48.01 10.431 83.16-.24 6.02-.721 12.15-1.51 18.35-8.54-2.76-17.431-6.31-24.601-10.68-4.8-2.93-9.31-6.08-13.46-9.26-.04-.13-.08-.27-.12-.4l-1.01-.48c-16.78-13.08-27.38-26.34-27.38-26.34l.09-4.47c1.27-2.22 2-4.78 2-7.52v-24.15c0-2.13-.44-4.15-1.23-5.99l.131-6.58s2.22-2.38 6.069-5.91c6.62-6.07 18.05-15.55 31.23-22.16l16.68 15.1.4-.13c.65 2.02 1.43 4.53 2.28 7.46z" fill="#ed1d31"/><path d="m519.9 461.38-5.25 38.41s-16.601-19.21-35.391-45.38c5.681-9.37 11.57-20.061 17.181-31.94 10.68 10.84 18.82 24.12 23.46 38.91z" fill="#ed1d31"/><path d="m506.68 232.97s.83 2.14 2.101 6.04l-.4.13-16.68-15.1c4.95-2.49 10.14-4.57 15.42-5.91.45-.11.89-.23 1.34-.33z" fill="#ed1d31"/><path d="m505 402.8c-1.72 4.32-3.5 8.53-5.32 12.61-1.06 2.4-2.149 4.75-3.239 7.06-13.511-13.71-31.08-23.52-50.811-27.55-13.899-35.64-17.25-69.35-17.3-90.92h3.51l48.95 23.16c.37.3.75.59 1.13.88 1.32 4.38 2.82 8.91 4.53 13.56 5.46 14.81 13.09 30.86 23.729 47.25-1.649 4.78-3.379 9.43-5.179 13.95z" fill="#ed1d31"/><path d="m496.44 422.47c-5.61 11.879-11.5 22.57-17.181 31.94-3.35-4.66-6.77-9.54-10.17-14.58-10.01-14.81-17.66-30.03-23.46-44.91 19.731 4.03 37.301 13.84 50.811 27.55z" fill="#ed1d31"/><path d="m481.8 327.64c.04.13.08.27.12.4-.38-.29-.76-.58-1.13-.88z" fill="#fff"/><path d="m455.5 264.68v24.15c0 2.74-.73 5.3-2 7.52l.77-37.66c.79 1.84 1.23 3.86 1.23 5.99z" fill="#fff"/><path d="m431.84 304h-3.51c0-.57 0-1.12 0-1.66z" fill="#fff"/><path d="m423.84 303.06v.94h-1.99z" fill="#fff"/><path d="m325.89 330.67c-1.42-35.15 5.58-66.23 10.44-83.15.84-2.93 1.62-5.44 2.28-7.47l.39.13 19.94-18.05c13.26 6.42 24.88 15.91 31.79 22.18 4.23 3.83 6.69 6.47 6.69 6.47l.12 6.02c-1.4 2.3-2.21 5-2.21 7.88v24.15c0 3.44 1.14 6.6 3.07 9.15l.03 1.51s-11.31 14.13-29.03 27.6c-4 3.05-8.34 6.07-12.95 8.88-8.46 5.17-19.32 9.17-29.17 12.09-.72-5.88-1.17-11.69-1.39-17.39z" fill="#ed1d31"/><path d="m397.54 256.8.86 41.18c-1.93-2.55-3.07-5.71-3.07-9.15v-24.15c0-2.88.81-5.58 2.21-7.88z" fill="#fff"/><path d="m406.95 394.59c-5.85 15.21-13.61 30.79-23.86 45.95-4.32 6.4-8.67 12.55-12.86 18.31l-.04-.029c-6.03-9.7-12.37-20.95-18.42-33.57 14.18-15.581 33.42-26.631 55.18-30.661z" fill="#ed1d31"/><path d="m342.38 403.83c-1.23-3.08-2.43-6.23-3.59-9.44 13.83-20.28 22.98-40.16 29.01-57.98.92-2.73 1.77-5.41 2.56-8.04l51.49-24.37h1.99c.02 21.34-3.18 54.95-16.89 90.59-21.76 4.03-41 15.08-55.18 30.66-1.38-2.86-2.74-5.8-4.07-8.8-1.82-4.08-3.6-8.29-5.32-12.62z" fill="#ed1d31"/><path d="m370.19 458.82.04.029c-17.66 24.261-32.72 41.67-32.72 41.67l-5.69-41.81c4.32-12.49 11.17-23.84 19.95-33.46 6.05 12.621 12.39 23.871 18.42 33.571z" fill="#ed1d31"/><path d="m301.2 442.95c6.75-7.431 15.6-18 26.31-32.63l19.97 6.23.22-.1c1.33 3 2.69 5.94 4.07 8.8-8.78 9.62-15.63 20.97-19.95 33.46l-.79-5.77-45.41 5.199c0 .001 5.44-4.049 15.58-15.189z" fill="#ed1d31"/><path d="m342.38 403.83c1.72 4.33 3.5 8.54 5.32 12.62l-.22.1-19.97-6.23c3.44-4.69 7.07-9.8 10.88-15.35.13-.19.26-.39.4-.58 1.16 3.21 2.36 6.36 3.59 9.44z" fill="#ed1d31"/><path d="m340.71 234.01-2.19-18.71c2.05.47 4.12.97 6.19 1.5 4.85 1.24 9.64 3.1 14.23 5.33l-19.94 18.05-.39-.13c1.27-3.9 2.1-6.04 2.1-6.04z" fill="#ed1d31"/><path d="m338.52 215.3 2.19 18.71s-.83 2.14-2.1 6.04c-.66 2.03-1.44 4.54-2.28 7.47l-.02-.01-38.56-35.86.16-2.99c8.54.88 23.98 2.82 40.61 6.64z" fill="#ed1d31"/><path d="m336.33 247.52c-4.86 16.92-11.86 48-10.44 83.15l-37.41-34.77-5.77.76c-3.73-20.57-.8-47.54 1.28-61.88 2.25-15.49 7-26.74 7-26.74s2.56.17 6.92.62l-.16 2.99 38.56 35.86z" fill="#ed1d31"/><path d="m325.89 330.67c.22 5.7.67 11.51 1.39 17.39-10.91 3.25-20.59 5.17-24.36 5.86l-3.25-3.02c-3.81-9.02-11.44-31.42-15.93-49.41-.39-1.56-.73-3.17-1.03-4.83l5.77-.76z" fill="#ed1d31"/><path d="m299.67 350.9 3.25 3.02c-1.09.2-1.69.3-1.69.3-.39-.68-.92-1.81-1.56-3.32z" fill="#fff"/><g fill="none"><path d="m123.54 422.31 37.84 14.76s30.65 35.489 78.4 58.449c14.81 7.131 31.27 13.061 48.98 16.341 7.97 1.47 15.78 2.6 23.37 3.43 6.22.7 12.3 1.19 18.19 1.52" stroke="#231f20" stroke-linecap="round" stroke-linejoin="round" stroke-width="14"/><path d="m191.61 414.22 12.96 51.36" stroke="#231f20" stroke-linecap="round" stroke-linejoin="round" stroke-width="14"/><path d="m153.07 390.13 12.96 51.35" stroke="#231f20" stroke-linecap="round" stroke-linejoin="round" stroke-width="14"/><path d="m227.31 439.93 12.92 51.35" stroke="#231f20" stroke-linecap="round" stroke-linejoin="round" stroke-width="14"/><path d="m262.97 455.06 12.94 51.34" stroke="#231f20" stroke-linecap="round" stroke-linejoin="round" stroke-width="14"/><path d="m299.28 464.25 12.85 51.04.07.3" stroke="#231f20" stroke-linecap="round" stroke-linejoin="round" stroke-width="14"/><path d="m121.48 464.52 49.75-17.23" stroke="#231f20" stroke-linecap="round" stroke-linejoin="round" stroke-width="14"/><path d="m150.29 490.42 49.76-17.25" stroke="#231f20" stroke-linecap="round" stroke-linejoin="round" stroke-width="14"/><path d="m191.52 512.24 48.26-16.72 1.51-.52" stroke="#231f20" stroke-linecap="round" stroke-linejoin="round" stroke-width="14"/><path d="m234.75 531.84 49.78-17.24" stroke="#231f20" stroke-linecap="round" stroke-linejoin="round" stroke-width="14"/><path d="m297.36 544.85 28.39-28.08" stroke="#231f20" stroke-linecap="round" stroke-linejoin="round" stroke-width="14"/><path d="m119.06 572.52 40.6-1.079s42.02 20.81 94.94 23.439c16.42.82 33.89-.11 51.48-3.96 5.43-1.17 10.72-2.479 15.87-3.89" stroke="#231f20" stroke-linecap="round" stroke-linejoin="round" stroke-width="14"/><path d="m178.65 538.65 31.88 42.31" stroke="#231f20" stroke-linecap="round" stroke-linejoin="round" stroke-width="14"/><path d="m133.79 531.4 31.87 42.31" stroke="#231f20" stroke-linecap="round" stroke-linejoin="round" stroke-width="14"/><path d="m221.53 548.48 31.84 42.33" stroke="#231f20" stroke-linecap="round" stroke-linejoin="round" stroke-width="14"/><path d="m260.27 548.58 31.84 42.31" stroke="#231f20" stroke-linecap="round" stroke-linejoin="round" stroke-width="14"/><path d="m324.17 542.98 4.96 42.31" stroke="#231f20" stroke-linecap="round" stroke-linejoin="round" stroke-width="14"/><path d="m133.53 612.21 39.18-35.19" stroke="#231f20" stroke-linecap="round" stroke-linejoin="round" stroke-width="14"/><path d="m170.15 624.9 39.16-35.2" stroke="#231f20" stroke-linecap="round" stroke-linejoin="round" stroke-width="14"/><path d="m216.6 629.02 38-34.14 1.19-1.07" stroke="#231f20" stroke-linecap="round" stroke-linejoin="round" stroke-width="14"/><path d="m264.06 630.3 39.18-35.2" stroke="#231f20" stroke-linecap="round" stroke-linejoin="round" stroke-width="14"/><path d="m234.93 757.52 22.07-34.09s40.93-22.88 73.04-65.029c9.97-13.08 19.08-28.011 25.86-44.69 3.04-7.5 5.72-14.92 8.07-22.19 2.31-7.13 4.3-14.119 6.02-20.899" stroke="#231f20" stroke-linecap="round" stroke-linejoin="round" stroke-width="14"/><path d="m240.7 689.22 52.92-2.36" stroke="#231f20" stroke-linecap="round" stroke-linejoin="round" stroke-width="14"/><path d="m209.35 722.12 52.9-2.36" stroke="#231f20" stroke-linecap="round" stroke-linejoin="round" stroke-width="14"/><path d="m273.07 659.43 52.91-2.32" stroke="#231f20" stroke-linecap="round" stroke-linejoin="round" stroke-width="14"/><path d="m295.06 627.54 52.9-2.34" stroke="#231f20" stroke-linecap="round" stroke-linejoin="round" stroke-width="14"/><path d="m311.38 593.83 52.59-2.31.3-.01" stroke="#231f20" stroke-linecap="round" stroke-linejoin="round" stroke-width="14"/><path d="m275.85 768.03-6.86-52.2" stroke="#231f20" stroke-linecap="round" stroke-linejoin="round" stroke-width="14"/><path d="m307.02 745.02-6.87-52.2" stroke="#231f20" stroke-linecap="round" stroke-linejoin="round" stroke-width="14"/><path d="m336.69 709.03-6.65-50.63-.21-1.59" stroke="#231f20" stroke-linecap="round" stroke-linejoin="round" stroke-width="14"/><path d="m364.6 670.64-6.87-52.23" stroke="#231f20" stroke-linecap="round" stroke-linejoin="round" stroke-width="14"/><path d="m389.95 611.93-21.8-33.46" stroke="#231f20" stroke-linecap="round" stroke-linejoin="round" stroke-width="14"/><path d="m381.16 792.15 7.11-39.99s28.85-36.97 42.08-88.28c4.101-15.92 6.71-33.22 6.48-51.22-.061-5.55-.28-11-.62-16.33" stroke="#231f20" stroke-linecap="round" stroke-linejoin="round" stroke-width="14"/><path d="m359.98 726.95 47.85-22.7" stroke="#231f20" stroke-linecap="round" stroke-linejoin="round" stroke-width="14"/><path d="m343.84 769.44 47.86-22.7" stroke="#231f20" stroke-linecap="round" stroke-linejoin="round" stroke-width="14"/><path d="m378.24 686.93 47.87-22.67" stroke="#231f20" stroke-linecap="round" stroke-linejoin="round" stroke-width="14"/><path d="m386.14 649.01 47.85-22.68" stroke="#231f20" stroke-linecap="round" stroke-linejoin="round" stroke-width="14"/><path d="m393.51 585.29 42.43 3.66" stroke="#231f20" stroke-linecap="round" stroke-linejoin="round" stroke-width="19.9525"/><path d="m422.95 785.96-26.58-45.46" stroke="#231f20" stroke-linecap="round" stroke-linejoin="round" stroke-width="14"/><path d="m442.74 752.65-26.59-45.45" stroke="#231f20" stroke-linecap="round" stroke-linejoin="round" stroke-width="14"/><path d="m456.13 707.98-25.78-44.1-.81-1.38" stroke="#231f20" stroke-linecap="round" stroke-linejoin="round" stroke-width="14"/><path d="m466.94 661.75-26.59-45.46" stroke="#231f20" stroke-linecap="round" stroke-linejoin="round" stroke-width="14"/><path d="m327.28 348.06c.81 6.64 1.96 13.36 3.52 20.1.76 3.32 1.63 6.65 2.6 9.97.34 1.15.69 2.31 1.05 3.46 1.38 4.36 2.83 8.63 4.34 12.8" stroke="#231f20" stroke-linecap="round" stroke-linejoin="round" stroke-width="14"/><path d="m335.98 193.67 2.54 21.63" stroke="#231f20" stroke-linecap="round" stroke-linejoin="round" stroke-width="14"/><path d="m378.25 204.64-19.31 17.49" stroke="#231f20" stroke-linecap="round" stroke-linejoin="round" stroke-width="14"/><path d="m367.8 336.41-34.56 31.27" stroke="#231f20" stroke-linecap="round" stroke-linejoin="round" stroke-width="19.9525"/><path d="m302.92 353.92 27.13 25.21" stroke="#231f20" stroke-linecap="round" stroke-linejoin="round" stroke-width="19.9525"/><path d="m291.46 343.27 8.21 7.63" stroke="#231f20" stroke-linecap="round" stroke-linejoin="round" stroke-width="19.9525"/><path d="m309.36 404.66 18.15 5.66" stroke="#231f20" stroke-linecap="round" stroke-linejoin="round" stroke-width="14"/><path d="m201.24 260.21 20.01 35.34s1.35 46.87 23.86 94.84c6.98 14.88 16 29.87 27.65 43.6 3.59 4.24 7.23 8.3 10.89 12.18" stroke="#231f20" stroke-linecap="round" stroke-linejoin="round" stroke-width="14"/><path d="m259.12 296.94-22.4 48" stroke="#231f20" stroke-linecap="round" stroke-linejoin="round" stroke-width="14"/><path d="m244.46 253.91-22.4 48" stroke="#231f20" stroke-linecap="round" stroke-linejoin="round" stroke-width="14"/><path d="m270.56 339.41-22.43 47.98" stroke="#231f20" stroke-linecap="round" stroke-linejoin="round" stroke-width="14"/><path d="m288.65 373.66-22.41 47.98" stroke="#231f20" stroke-linecap="round" stroke-linejoin="round" stroke-width="14"/><path d="m301.2 442.95-12.64 8.74" stroke="#231f20" stroke-linecap="round" stroke-linejoin="round" stroke-width="19.9525"/><path d="m172.98 291.62 49.47 18.08" stroke="#231f20" stroke-linecap="round" stroke-linejoin="round" stroke-width="14"/><path d="m178.97 329.9 49.46 18.07" stroke="#231f20" stroke-linecap="round" stroke-linejoin="round" stroke-width="14"/><path d="m197.13 372.86 47.98 17.53 1.5.55" stroke="#231f20" stroke-linecap="round" stroke-linejoin="round" stroke-width="14"/><path d="m218.27 415.36 49.47 18.08" stroke="#231f20" stroke-linecap="round" stroke-linejoin="round" stroke-width="14"/><path d="m723.84 421.28-37.84 14.75s-30.65 35.489-78.4 58.46c-14.81 7.12-31.27 13.05-48.979 16.33-7.96 1.47-15.771 2.6-23.36 3.43-4.899.56-9.7.98-14.399 1.28" stroke="#231f20" stroke-linecap="round" stroke-linejoin="round" stroke-width="14"/><path d="m655.77 413.18-12.96 51.36" stroke="#231f20" stroke-linecap="round" stroke-linejoin="round" stroke-width="14"/><path d="m694.31 389.09-12.96 51.35" stroke="#231f20" stroke-linecap="round" stroke-linejoin="round" stroke-width="14"/><path d="m620.07 438.89-12.92 51.36" stroke="#231f20" stroke-linecap="round" stroke-linejoin="round" stroke-width="14"/><path d="m584.4 454.02-12.93 51.35" stroke="#231f20" stroke-linecap="round" stroke-linejoin="round" stroke-width="14"/><path d="m548.1 463.21-12.84 51.04-.08.31" stroke="#231f20" stroke-linecap="round" stroke-linejoin="round" stroke-width="14"/><path d="m725.9 463.48-49.75-17.23" stroke="#231f20" stroke-linecap="round" stroke-linejoin="round" stroke-width="14"/><path d="m697.08 489.38-49.75-17.25" stroke="#231f20" stroke-linecap="round" stroke-linejoin="round" stroke-width="14"/><path d="m655.85 511.2-48.25-16.71-1.52-.53" stroke="#231f20" stroke-linecap="round" stroke-linejoin="round" stroke-width="14"/><path d="m612.62 530.8-49.77-17.24" stroke="#231f20" stroke-linecap="round" stroke-linejoin="round" stroke-width="14"/><path d="m550.02 543.81-28.39-28.08" stroke="#231f20" stroke-linecap="round" stroke-linejoin="round" stroke-width="14"/><path d="m728.32 571.48-40.601-1.08s-42.02 20.81-94.939 23.439c-16.42.82-33.891-.109-51.48-3.96-5.43-1.17-10.72-2.479-15.87-3.89" stroke="#231f20" stroke-linecap="round" stroke-linejoin="round" stroke-width="14"/><path d="m668.72 537.61-31.87 42.31" stroke="#231f20" stroke-linecap="round" stroke-linejoin="round" stroke-width="14"/><path d="m713.59 530.36-31.87 42.31" stroke="#231f20" stroke-linecap="round" stroke-linejoin="round" stroke-width="14"/><path d="m625.85 547.44-31.84 42.33" stroke="#231f20" stroke-linecap="round" stroke-linejoin="round" stroke-width="14"/><path d="m587.11 547.54-31.84 42.31" stroke="#231f20" stroke-linecap="round" stroke-linejoin="round" stroke-width="14"/><path d="m523.21 541.94-4.96 42.31" stroke="#231f20" stroke-linecap="round" stroke-linejoin="round" stroke-width="14"/><path d="m713.84 611.17-39.17-35.19" stroke="#231f20" stroke-linecap="round" stroke-linejoin="round" stroke-width="14"/><path d="m677.24 623.86-39.17-35.2" stroke="#231f20" stroke-linecap="round" stroke-linejoin="round" stroke-width="14"/><path d="m630.78 627.98-38-34.14-1.19-1.07" stroke="#231f20" stroke-linecap="round" stroke-linejoin="round" stroke-width="14"/><path d="m583.32 629.26-39.18-35.2" stroke="#231f20" stroke-linecap="round" stroke-linejoin="round" stroke-width="14"/><path d="m612.46 756.48-22.08-34.091s-40.939-22.88-73.04-65.029c-9.97-13.08-19.08-28.011-25.859-44.69-3.04-7.5-5.721-14.92-8.07-22.189-2-6.16-3.75-12.211-5.3-18.11" stroke="#231f20" stroke-linecap="round" stroke-linejoin="round" stroke-width="14"/><path d="m606.67 688.18-52.91-2.36" stroke="#231f20" stroke-linecap="round" stroke-linejoin="round" stroke-width="14"/><path d="m638.03 721.08-52.91-2.36" stroke="#231f20" stroke-linecap="round" stroke-linejoin="round" stroke-width="14"/><path d="m574.32 658.39-52.92-2.32" stroke="#231f20" stroke-linecap="round" stroke-linejoin="round" stroke-width="14"/><path d="m552.32 626.5-52.9-2.34" stroke="#231f20" stroke-linecap="round" stroke-linejoin="round" stroke-width="14"/><path d="m536 592.79-52.59-2.31-.3-.01" stroke="#231f20" stroke-linecap="round" stroke-linejoin="round" stroke-width="14"/><path d="m571.53 767 6.85-52.21" stroke="#231f20" stroke-linecap="round" stroke-linejoin="round" stroke-width="14"/><path d="m540.36 743.99 6.87-52.21" stroke="#231f20" stroke-linecap="round" stroke-linejoin="round" stroke-width="14"/><path d="m510.69 708 6.65-50.64.21-1.59" stroke="#231f20" stroke-linecap="round" stroke-linejoin="round" stroke-width="14"/><path d="m482.78 669.6 6.87-52.23" stroke="#231f20" stroke-linecap="round" stroke-linejoin="round" stroke-width="14"/><path d="m457.43 610.89 21.79-33.46" stroke="#231f20" stroke-linecap="round" stroke-linejoin="round" stroke-width="14"/><path d="m519.98 347.98c-.801 6.33-1.921 12.73-3.4 19.14-.76 3.32-1.63 6.65-2.6 9.97-.341 1.16-.69 2.31-1.051 3.46-.89 2.81-1.8 5.58-2.75 8.3" stroke="#231f20" stroke-linecap="round" stroke-linejoin="round" stroke-width="14"/><path d="m511.4 192.63-2.94 25.17" stroke="#231f20" stroke-linecap="round" stroke-linejoin="round" stroke-width="14"/><path d="m469.12 203.6 22.58 20.44" stroke="#231f20" stroke-linecap="round" stroke-linejoin="round" stroke-width="14"/><path d="m486.45 341.6 27.69 25.04" stroke="#231f20" stroke-linecap="round" stroke-linejoin="round" stroke-width="19.9525"/><path d="m543.14 354.1-25.81 23.99" stroke="#231f20" stroke-linecap="round" stroke-linejoin="round" stroke-width="19.9525"/><path d="m538.02 403.62-14.44 4.5" stroke="#231f20" stroke-linecap="round" stroke-linejoin="round" stroke-width="14"/><path d="m646.14 259.17-20.01 35.34s-1.35 46.87-23.86 94.84c-6.979 14.88-16.01 29.87-27.659 43.6-3.591 4.24-7.221 8.3-10.88 12.18" stroke="#231f20" stroke-linecap="round" stroke-linejoin="round" stroke-width="14"/><path d="m588.26 295.9 22.4 48" stroke="#231f20" stroke-linecap="round" stroke-linejoin="round" stroke-width="14"/><path d="m602.92 252.87 22.4 48.01" stroke="#231f20" stroke-linecap="round" stroke-linejoin="round" stroke-width="14"/><path d="m576.82 338.37 22.43 47.98" stroke="#231f20" stroke-linecap="round" stroke-linejoin="round" stroke-width="14"/><path d="m558.73 372.62 22.41 47.98" stroke="#231f20" stroke-linecap="round" stroke-linejoin="round" stroke-width="14"/><path d="m674.4 290.58-49.47 18.08" stroke="#231f20" stroke-linecap="round" stroke-linejoin="round" stroke-width="14"/><path d="m668.42 328.86-49.47 18.07" stroke="#231f20" stroke-linecap="round" stroke-linejoin="round" stroke-width="14"/><path d="m650.25 371.82-47.98 17.53-1.51.55" stroke="#231f20" stroke-linecap="round" stroke-linejoin="round" stroke-width="14"/><path d="m629.1 414.32-49.46 18.08" stroke="#231f20" stroke-linecap="round" stroke-linejoin="round" stroke-width="14"/><path d="m406.95 394.59c5.98-1.12 12.15-1.7 18.46-1.7 6.93 0 13.689.7 20.22 2.03" stroke="#231f20" stroke-width="21"/><path d="m519.9 461.38c2.85 9.08 4.39 18.72 4.39 28.72 0 8.801-1.19 17.33-3.43 25.431-6.53 23.81-22.051 44-42.75 56.84-15.261 9.46-33.33 14.939-52.7 14.939-20.54 0-39.61-6.159-55.42-16.689-18.97-12.65-33.23-31.61-39.67-53.811-2.46-8.479-3.78-17.449-3.78-26.71 0-10.979 1.85-21.54 5.28-31.39" stroke="#231f20" stroke-width="21"/><path d="m370.36 328.37c-.79 2.63-1.64 5.31-2.56 8.04-6.03 17.82-15.18 37.7-29.01 57.98-.14.19-.27.39-.4.58-3.81 5.55-7.44 10.66-10.88 15.35-10.71 14.63-19.56 25.2-26.31 32.63-10.14 11.14-15.58 15.189-15.58 15.189l45.41-5.199.79 5.77 5.69 41.81s15.06-17.409 32.72-41.67c4.19-5.76 8.54-11.909 12.86-18.31 10.25-15.16 18.01-30.74 23.86-45.95 13.71-35.64 16.91-69.25 16.89-90.59 0-.32 0-.63 0-.94" stroke="#231f20" stroke-width="21"/><path d="m481.92 328.04c1.32 4.38 2.82 8.91 4.53 13.56 5.46 14.81 13.09 30.86 23.729 47.25 1.16 1.8 2.37 3.6 3.61 5.41 3.42 4.97 6.68 9.59 9.79 13.86 27.46 37.729 42.97 49.3 42.97 49.3l-45.399-5.189-1.25 9.149-5.25 38.41s-16.601-19.21-35.391-45.38c-3.35-4.66-6.77-9.54-10.17-14.58-10.01-14.81-17.66-30.03-23.46-44.91-13.899-35.64-17.25-69.35-17.3-90.92 0-.57 0-1.12 0-1.66" stroke="#231f20" stroke-width="21"/><path d="m397.42 250.78s-2.46-2.64-6.69-6.47c-6.91-6.27-18.53-15.76-31.79-22.18-4.59-2.23-9.38-4.09-14.23-5.33-2.07-.53-4.14-1.03-6.19-1.5-16.63-3.82-32.07-5.76-40.61-6.64-4.36-.45-6.92-.62-6.92-.62s-4.75 11.25-7 26.74c-2.08 14.34-5.01 41.31-1.28 61.88.3 1.66.64 3.27 1.03 4.83 4.49 17.99 12.12 40.39 15.93 49.41.64 1.51 1.17 2.64 1.56 3.32 0 0 .6-.1 1.69-.3 3.77-.69 13.45-2.61 24.36-5.86 9.85-2.92 20.71-6.92 29.17-12.09 4.61-2.81 8.95-5.83 12.95-8.88 17.72-13.47 29.03-27.6 29.03-27.6" stroke="#231f20" stroke-width="21"/><path d="m341.45 284s25.49 6.51 53.73-9.75" stroke="#231f20" stroke-width="21"/><path d="m454.4 252.11s2.22-2.38 6.069-5.91c6.62-6.07 18.05-15.55 31.23-22.16 4.95-2.49 10.14-4.57 15.42-5.91.45-.11.89-.23 1.34-.33 15.9-3.97 31.24-6.18 41.16-7.34 6.93-.8 11.21-1.09 11.21-1.09s4.75 11.26 7.01 26.74c2.24 15.51 5.49 45.73.25 66.72-3.27 13.08-8.2 28.51-12.12 39.42-2.35 6.58-4.35 11.52-5.38 13.3 0 0-2.87-.47-7.45-1.45-5.779-1.22-14.279-3.25-23.159-6.12-8.54-2.76-17.431-6.31-24.601-10.68-4.8-2.93-9.31-6.08-13.46-9.26-.38-.29-.76-.58-1.13-.88-16.78-13.08-27.38-26.34-27.38-26.34" stroke="#231f20" stroke-width="21"/><path d="m510.36 285.34s-25.48 6.5-53.71-9.74" stroke="#231f20" stroke-width="21"/><path d="m454.27 258.69c.79 1.84 1.23 3.86 1.23 5.99v24.15c0 2.74-.73 5.3-2 7.52-2.61 4.57-7.53 7.65-13.17 7.65h-8.49-3.51-4.49-1.99-11.36c-4.94 0-9.33-2.36-12.09-6.02-1.93-2.55-3.07-5.71-3.07-9.15v-24.15c0-2.88.81-5.58 2.21-7.88 2.41-3.95 6.57-6.71 11.4-7.2.51-.05 1.03-.08 1.55-.08h29.84c.57 0 1.12.03 1.67.09 5.52.61 10.15 4.17 12.27 9.08z" stroke="#231f20" stroke-width="21"/><path d="m392.78 244.14v-173.58c0-6.91 5.59-12.51 12.49-12.51h3.58 33.25 3.44c6.9 0 12.5 5.6 12.5 12.51v173.58" stroke="#231f20" stroke-width="21"/><path d="m408.85 56.61v1.44 188.51" stroke="#231f20" stroke-width="6.6508"/><path d="m442.1 58.8v189.96" stroke="#231f20" stroke-width="6.6508"/><path d="m0 0h850.394v850.394h-850.394z"/></g></svg>