<svg enable-background="new 0 0 850.394 850.394" height="850.394" viewBox="0 0 850.394 850.394" width="850.394" xmlns="http://www.w3.org/2000/svg"><circle cx="612.87" cy="579.13" fill="#fbed24" r="51.31"/><path d="m242.09 527.82c28.35 0 51.32 22.97 51.32 51.31s-22.97 51.311-51.32 51.311c-28.33 0-51.3-22.971-51.3-51.311s22.97-51.31 51.3-51.31z" fill="#fbed24"/><path d="m410.63 729.89h-335.27" fill="none" stroke="#231f20" stroke-width="21"/><path d="m293.41 579.13c0 28.34-22.97 51.311-51.32 51.311-28.33 0-51.3-22.971-51.3-51.311s22.97-51.31 51.3-51.31c28.35 0 51.32 22.97 51.32 51.31z" fill="none" stroke="#231f20" stroke-width="14"/><path d="m241.7 518.48v-39.04" fill="none" stroke="#231f20" stroke-width="14"/><path d="m210.56 526.08-21.57-32.55" fill="none" stroke="#231f20" stroke-width="14"/><path d="m188.21 550.05-35.37-16.52" fill="none" stroke="#231f20" stroke-width="14"/><path d="m273.94 525.45 21.56-32.54" fill="none" stroke="#231f20" stroke-width="14"/><path d="m296.29 549.44 35.36-16.53" fill="none" stroke="#231f20" stroke-width="14"/><path d="m272.65 632.62 21.58 32.54" fill="none" stroke="#231f20" stroke-width="14"/><path d="m295.01 608.62 35.37 16.53" fill="none" stroke="#231f20" stroke-width="14"/><path d="m209.28 633.25-21.57 32.52" fill="none" stroke="#231f20" stroke-width="14"/><path d="m186.93 609.25-35.37 16.52" fill="none" stroke="#231f20" stroke-width="14"/><path d="m180.94 579.74h-39.04" fill="none" stroke="#231f20" stroke-width="14"/><path d="m341.68 579.74h-39.03" fill="none" stroke="#231f20" stroke-width="14"/><path d="m241.7 678.01v-39.03" fill="none" stroke="#231f20" stroke-width="14"/><path d="m781.4 729.89h-335.27" fill="none" stroke="#231f20" stroke-width="21"/><circle cx="612.87" cy="579.13" fill="none" r="51.31" stroke="#231f20" stroke-width="14"/><path d="m612.47 518.48v-39.04" fill="none" stroke="#231f20" stroke-width="14"/><path d="m581.33 526.08-21.57-32.55" fill="none" stroke="#231f20" stroke-width="14"/><path d="m558.98 550.05-35.37-16.52" fill="none" stroke="#231f20" stroke-width="14"/><path d="m644.71 525.45 21.56-32.54" fill="none" stroke="#231f20" stroke-width="14"/><path d="m667.06 549.44 35.36-16.53" fill="none" stroke="#231f20" stroke-width="14"/><path d="m643.42 632.62 21.57 32.54" fill="none" stroke="#231f20" stroke-width="14"/><path d="m665.78 608.62 35.37 16.53" fill="none" stroke="#231f20" stroke-width="14"/><path d="m580.05 633.25-21.56 32.52" fill="none" stroke="#231f20" stroke-width="14"/><path d="m557.69 609.25-35.36 16.52" fill="none" stroke="#231f20" stroke-width="14"/><path d="m551.71 579.74h-39.04" fill="none" stroke="#231f20" stroke-width="14"/><path d="m712.45 579.74h-39.03" fill="none" stroke="#231f20" stroke-width="14"/><path d="m612.47 678.01v-39.03" fill="none" stroke="#231f20" stroke-width="14"/><path d="m307.63 343.44 31.73 95 90.25-43.59" fill="none" stroke="#231f20" stroke-width="21"/><path d="m546.17 399.29c-10.24-42.6-52.77-78.14-96.6-78.14-55.4 0-103.76 45.26-103.76 109.87" fill="none" stroke="#231f20" stroke-width="21"/><path d="m0 0h850.394v850.394h-850.394z" fill="none"/><path d="m775.78 186.507v.018c-8.864 0-1.96 6.292-1.96 6.292s13.811 16.2 25.234 28.992c10.927 12.229 1.71 12.956 1.71 12.956h-12.967l-33.586-.011-40.938-.019-33.764-.011h-12.956s-9.225-.731 1.698-12.959c11.432-12.792 25.428-29.178 25.428-29.178s7.162-6.144-1.702-6.144l-.018.019h-4.092-12.967s-9.217-.735 1.713-12.963c6.827-7.646 14.505-16.505 19.583-22.401 3.419-3.968 5.652-6.591 5.652-6.591s7.165-6.136-1.706-6.136c-1.229 0-3.695-.12-3.695-.12h-5.372s-8.497-.055 3.75-12.959c12.09-12.741 28.312-31.04 19.444-31.04-.371 0-3.572-.073-3.572-.073h-8.871s-9.217-.735 1.71-12.963c6.827-7.645 20.608-22.907 25.686-28.799 0 0 1.451-2.048 3.667-2.215l1.527.044c1.884.124 3.666 2.215 3.666 2.215 5.078 5.893 18.863 21.154 25.693 28.8 10.923 12.228 1.699 12.963 1.699 12.963h-8.864s-3.204.077-3.572.077c-8.867 0 7.409 16.913 19.441 31.036 10.373 12.181 3.754 12.959 3.754 12.959h-5.372s-2.47.116-3.696.116c-8.871 0-1.705 6.14-1.705 6.14s2.233 2.626 5.652 6.591c5.073 5.896 12.755 14.756 19.59 22.402 10.919 12.232 1.698 12.963 1.698 12.963h-12.956-3.664z" fill="#33a048"/><path d="m754.212 236.875v20.471c0 3.386-2.754 6.136-6.144 6.136h-28.65c-3.394 0-6.144-2.75-6.144-6.136v-20.471-2.139l40.938.019z" fill="#ed1d31"/><path d="m644.182 160.359c-2.233 1.633-6.678 2.36-9.435 1.328-.396-.149-.76-.334-1.077-.56l-.494-.051c.272-.342.443-.724.494-1.149.448-3.885-1.192-13.451-1.192-13.451l-.095-.083c.186-.208.367-.426.542-.662.833-1.139.869-4.212.502-7.991l.844-.08s12.999-1.495 15.243 3.884l.375.062c-1.215 7.533-3.826 15.182-4.412 17.124-.182.603-.644 1.157-1.295 1.629z" fill="#fff"/><path d="m644.538 298.49c.673 2.382 3.183 5.634-1.745 7.274-4.929 1.648-14.142 1.211-18.732-1.033-4.586-2.255-6.973 1.862-17.644-.833-1.227-.306-.139-7.045.298-12.971.433-5.936-1.852-13.869-2.343-20.143-.37-4.765-.29-9.515-.229-11.53 3.539.619 11.719 1.099 17.681-.469l1.734.062s-.829 27.661 4.237 33.07c5.064 5.402 16.078 4.194 16.743 6.573z" fill="#231f20"/><path d="m642.12 206.836c1.131 7.325 1.822 13.148 1.517 15.018-.593 3.655-6.158 5.31-12.989 6.278-3.444.487-7.209.8-10.827 1.109l-.048-.564s-.149-3.441.601-17.338c0 0 14.098-.844 21.271-4.43z" fill="#fff"/><path d="m644.182 160.359c-1.316 3.648-4.521 12.461-7.648 14.931-1.463-7.649-2.564-13.119-2.564-13.119l.778-.484c2.756 1.033 7.2.306 9.434-1.328z" fill="#ed1d31"/><path d="m636.533 175.29c1.771 9.275 4.073 21.751 5.587 31.546l-.477.073c-7.173 3.586-21.271 4.43-21.271 4.43.68-12.749 1.247-41.548 1.331-45.917.167-.429.291-.884.367-1.353l.24.043s8.656-.24 10.864-3.037l.494.051c.317.226.681.411 1.077.56l-.778.484c.002.001 1.103 5.471 2.566 13.12z" fill="#ed1d31"/><path d="m628.211 113.712c3.495 0 6.329-2.83 6.329-6.325 0 0 13.628 14.284 15.57 23.1.677 3.077.43 7.082-.222 11.119l-.375-.062c-2.244-5.379-15.243-3.884-15.243-3.884l-.844.08c-.877-9.122-4.088-22.347-4.088-22.347z" fill="#ed1d31"/><path d="m634.54 107.387c0 3.496-2.834 6.325-6.329 6.325-3.149 0-5.762-2.299-6.249-5.311.316-1.171.499-2.429.542-3.746 1.019-2.128 3.19-3.597 5.707-3.597 3.495 0 6.329 2.834 6.329 6.329z" fill="#fff"/><path d="m632.478 146.476s1.641 9.566 1.192 13.451c-.051.425-.222.807-.494 1.149-2.208 2.797-10.864 3.037-10.864 3.037l-.24-.043c.062-.375.095-.76.095-1.153v-8.37c0-1.818-.691-3.473-1.826-4.725l.928-.058c.644-.113 1.356-.186 2.105-.262 3.016-.295 6.653-.571 9.01-3.11z" fill="#231f20"/><path d="m633.427 137.739c.367 3.779.331 6.853-.502 7.991-.175.236-.356.455-.542.662-2.356 2.539-5.994 2.815-9.01 3.11l-.163-1.677c0-6.878-4.783-33.928-4.783-33.928l-1.921-.291c2.368-.742 4.066-1.68 4.612-2.848.342-.734.63-1.524.844-2.357.487 3.012 3.1 5.311 6.249 5.311l1.128 1.681s3.211 13.224 4.088 22.346z" fill="#ed1d31"/><path d="m604.144 259.255c-.451-.08-.826-.16-1.113-.24-2.571-.713-1.589-25.923-1.502-28.098 5.456-.437 10.141-.906 13.014-1.2 1.681-.171 3.459-.324 5.278-.477 3.618-.309 7.383-.622 10.827-1.109l.037.244s-1.048 10.912-3.14 20.925c-2.091 10.01-4.484 9.119-4.484 9.119-.4.135-.814.254-1.236.367-5.963 1.568-14.142 1.088-17.681.469z" fill="#ed1d31"/><path d="m625.501 72.102c.156 15.611-2.371 20.587 2.71 28.956-2.517 0-4.688 1.469-5.707 3.597.128-3.692-.862-7.827-3.28-11.73-2.267-3.663-4.074-9.973-5.18-14.593-.793-3.299-1.233-5.732-1.233-5.732l-.53-.098c1.287 0 1.924-6.987 1.044-12.498-1.495-9.362-13.928-11.119-29.768-7.431l-.232-.204c5.361-6.096 15.272-12.01 21.95-10.159 11.159 3.089 20.026 9.465 20.226 29.892z" fill="#ed1d31"/><path d="m619.224 92.925c2.418 3.903 3.408 8.038 3.28 11.73-.399.826-.622 1.753-.622 2.731 0 .346.029.684.08 1.015-.214.833-.502 1.623-.844 2.357-.546 1.168-2.244 2.106-4.612 2.848-3.946 1.233-9.747 1.917-15.148 2.171-4.368.208-8.475.142-11.126-.138-10.079-1.055-21.551-13.582-19.965-23.405.058-.371.138-.739.236-1.103 2.222-8.224 7.496-15.018 8.937-19.663l.429.135c1.695 2.291 12.108 7.809 17.837 7.369 1.088-.083 1.968-.331 2.961-.869.735-.396 1.415-.88 2.139-1.258.331-.171.67-.324 1.029-.437 1.434-.451 3.096-.735 4.634-.524 1.674.226 4.176 1.695 5.314 2.51l.262-.062c1.104 4.62 2.912 10.931 5.179 14.593z" fill="#fff"/><path d="m621.704 165.422c-1.008 2.644-3.568 4.518-6.565 4.518-1.938 0-3.695-.786-4.965-2.055-.557-.557-1.022-1.208-1.367-1.92-.444-.924-.691-1.957-.691-3.048v-8.37c0-.607.076-1.193.222-1.756.778-3.03 3.532-5.267 6.802-5.267 1.938 0 3.699.786 4.969 2.055.08.08.156.16.232.244 1.135 1.251 1.826 2.906 1.826 4.725v8.37c0 .393-.033.778-.095 1.153-.077.468-.201.922-.368 1.351z" fill="#fff"/><path d="m620.107 149.579c-1.27-1.27-3.03-2.055-4.969-2.055-3.27 0-6.023 2.237-6.802 5.267l-1.418-.335c-.898.058-1.801.102-2.695.124l-.019-.818c-.447-8.518-2.815-35.321-2.815-35.321l-.032-.662c5.401-.254 11.202-.938 15.148-2.171l1.921.291s4.783 27.05 4.783 33.928l.163 1.677c-.749.076-1.462.149-2.105.262l-.928.058c-.075-.085-.151-.165-.232-.245z" fill="#fff"/><path d="m579.796 69.062c-.858-1.517-1.354-4.51-.127-10.41.393-1.884 1.73-4.096 3.655-6.282l.232.204c15.84-3.688 28.272-1.931 29.768 7.431.88 5.51.243 12.498-1.044 12.498-.346 0-.738-.509-1.164-1.699-1.223-3.423-4.274-4.707-8.449-5.234-2.626-.335-5.7-.364-9.046-.444-7.188-.167-11.461 5.481-11.461 5.481s-1.408.139-2.364-1.545z" fill="#fff"/><path d="m608.807 165.964-1.288.691c-1.426.124-2.881.182-4.343.186-10.643.044-21.682-2.786-25.101-3.575l-.004.003c-1.916-4.528-4.928-9.169-4.928-9.169l-1.459-.138c2.917-1.375 5.114-2.477 5.296-3.048.139-.447-.283-1.113-1.044-1.92 1.932.542 14.72 3.964 28.287 3.586.895-.021 1.797-.065 2.695-.124l1.418.335c-.146.563-.222 1.149-.222 1.756v8.37c.001 1.09.248 2.124.693 3.047z" fill="#231f20"/><path d="m605.234 67.741c1.193 0 2.161.953 2.161 2.131 0 1.175-.968 2.128-2.161 2.128-1.189 0-2.156-.953-2.156-2.128 0-1.178.967-2.131 2.156-2.131z" fill="#9e5c26"/><path d="m602.547 76.289c-.866-2.51-1.896-6.078 0-9.766l.12-.953c4.175.527 7.227 1.811 8.449 5.234.426 1.189.818 1.699 1.164 1.699l.53.098s.44 2.433 1.233 5.732l-.262.062c-1.139-.815-3.641-2.284-5.314-2.51-1.538-.211-3.2.073-4.634.524-.359.113-.698.266-1.029.437zm.531-6.416c0 1.175.967 2.128 2.156 2.128 1.193 0 2.161-.953 2.161-2.128 0-1.179-.968-2.131-2.161-2.131-1.189-.001-2.156.952-2.156 2.131z" fill="#ffeec8"/><path d="m602.805 76.845c-.724.378-1.403.862-2.139 1.258-.993.538-1.873.786-2.961.869-5.729.44-16.142-5.078-17.837-7.369l-.429-.135c.272-.88.407-1.688.356-2.408.956 1.684 2.364 1.546 2.364 1.546s4.273-5.649 11.461-5.481c3.346.08 6.42.109 9.046.444l-.12.953c-1.896 3.688-.866 7.256 0 9.766zm-7.064-6.743c0-1.178-.964-2.128-2.156-2.128-1.189 0-2.153.95-2.153 2.128 0 1.175.964 2.128 2.153 2.128 1.192-.001 2.156-.954 2.156-2.128z" fill="#ffeec8"/><path d="m601.528 230.918c-.498.04-1.004.08-1.513.12l-.019-.215s1.204-8.515 1.92-17.928c.273-3.564.477-7.264.517-10.672.153-12.406.75-34.67.75-34.67l-.008-.713c1.462-.003 2.917-.062 4.343-.186l1.288-.691c.345.713.811 1.364 1.367 1.92 1.27 1.27 3.026 2.055 4.965 2.055 2.997 0 5.558-1.874 6.565-4.518-.084 4.368-.651 33.168-1.331 45.917-.75 13.897-.601 17.338-.601 17.338l.048.564c-1.819.153-3.598.306-5.278.477-2.872.296-7.557.765-13.013 1.202z" fill="#fff"/><path d="m560.115 229.157c-.211-.244-.354-.501-.422-.782-1.004-4.019-.946-10.104-.582-17.095l.232.011c.451-.153 26.108 5.976 42.442 1.593l.131.011c-.716 9.413-1.92 17.928-1.92 17.928l.019.215c-.139.011-.277.021-.415.033-15.574 1.189-36.139 1.978-39.485-1.914z" fill="#fff"/><path d="m588.034 258.663c-6.034.458-14.996-.287-20.838-1.011-2.771-.342-4.837-.68-5.562-.88-2.447-.68-1.68-23.497-1.52-27.614 3.346 3.892 23.911 3.103 39.485 1.914.069 17.448-7.177 26.85-7.177 26.85-1.11.37-2.624.606-4.388.741z" fill="#ed1d31"/><path d="m598.862 307.54c0 5.158-.313 3.91-5.787 4.379-5.471.473-9.063-1.724-13.6-5.787-4.535-4.063-7.66.469-5.783-13.439 1.237-9.188-1.091-13.287-3.437-22.983-1.594-6.587-2.587-10.337-3.06-12.058 5.842.724 14.804 1.47 20.838 1.011-.04 2.248-.521 29.836.982 34.179 1.561 4.532 9.847 10.253 9.847 14.698z" fill="#231f20"/><path d="m593.585 67.974c1.192 0 2.156.95 2.156 2.128 0 1.175-.964 2.128-2.156 2.128-1.189 0-2.153-.953-2.153-2.128 0-1.179.964-2.128 2.153-2.128z" fill="#9e5c26"/><path d="m578.071 163.269c1.041 2.462 1.761 4.892 1.499 6.525-.749 4.63-6.129 8.067-10.017 7.02-1.881-.505-4.18-4.416-6.053-8.307-.175-.364-.346-.724-.513-1.081-1.735-3.753-2.993-7.198-2.993-7.198l-.477-.065c3.346-2.157 8.365-4.412 12.166-6.202l1.459.138c.002.001 3.013 4.642 4.929 9.17z" fill="#ed1d31"/><path d="m570.267 92.234c-1.586 9.824 9.886 22.351 19.965 23.405 2.651.28 6.758.346 11.126.138l.032.662s2.368 26.803 2.815 35.321l.019.818c-13.567.378-26.355-3.044-28.287-3.586-1.949-2.07-6.11-5.063-8.62-7.646-.546-.56-1.051-1.346-1.517-2.27l-.375.276c-14.749 3.786-18.437 9.566-19.83 12.155l-.742.099c-2.469-6.3-4.841-12.69-5.932-16.139-2.594-8.169-1.793-13.254 2.888-17.935 4.648-4.645 27.632-24.988 27.992-25.304z" fill="#ed1d31"/><path d="m562.988 167.426-.055.026c-2.295 2.295-9.067 2.691-10.362 1.79-.102-.069-.255-.284-.451-.626l.746-.069s.105-1.793 3.79-6.078c.633-.734 1.637-1.513 2.862-2.306l.477.065c0 .001 1.258 3.445 2.993 7.198z" fill="#fff"/><path d="m559.111 211.28c.232-4.448.593-9.26.884-14.141.745-12.552 2.985-28.243 2.985-28.243l.521-.389c1.873 3.892 4.172 7.802 6.053 8.307 3.888 1.048 9.268-2.39 10.017-7.02.262-1.633-.458-4.063-1.499-6.525l.004-.003c3.419.789 14.458 3.619 25.101 3.575l.008.713s-.597 22.264-.75 34.67c-.04 3.408-.243 7.107-.517 10.672l-.131-.011c-16.334 4.383-41.991-1.746-42.442-1.593z" fill="#ed1d31"/><path d="m575.937 148.993c.761.807 1.183 1.473 1.044 1.92-.182.571-2.379 1.673-5.296 3.048-3.801 1.79-8.82 4.044-12.166 6.202-1.226.793-2.229 1.571-2.862 2.306-3.685 4.285-3.79 6.078-3.79 6.078l-.746.069c-1.262-2.186-4.336-9.537-7.268-17.007l.742-.099c1.394-2.589 5.081-8.369 19.83-12.155l.375-.276c.466.924.971 1.709 1.517 2.27 2.509 2.581 6.67 5.574 8.62 7.644z" fill="#fff"/><g fill="none"><path d="m754.212 236.875v20.471c0 3.386-2.754 6.136-6.144 6.136h-28.65c-3.394 0-6.144-2.75-6.144-6.136v-20.471" stroke="#231f20" stroke-width="7.6382"/><path d="m775.78 186.525c-8.864 0-1.96 6.292-1.96 6.292s13.811 16.2 25.234 28.992c10.927 12.229 1.71 12.956 1.71 12.956h-12.967l-33.586-.011-40.938-.019-33.764-.011h-12.956s-9.225-.731 1.698-12.959c11.432-12.792 25.428-29.178 25.428-29.178s7.162-6.144-1.702-6.144l-.018.019h-4.092-12.967s-9.217-.735 1.713-12.963c6.827-7.646 14.505-16.505 19.583-22.401" stroke="#231f20" stroke-width="7.6382"/><path d="m775.006 186.507h.774 3.666 12.956s9.221-.731-1.698-12.963c-6.835-7.646-14.517-16.506-19.59-22.402" stroke="#231f20" stroke-width="7.6382"/><path d="m771.114 151.143c-3.419-3.964-5.652-6.591-5.652-6.591s-7.166-6.14 1.705-6.14c1.227 0 3.696-.116 3.696-.116h5.372s6.619-.778-3.754-12.959c-12.032-14.124-28.308-31.037-19.441-31.037.368 0 3.572-.077 3.572-.077h8.864s9.224-.735-1.699-12.963c-6.83-7.646-20.615-22.907-25.693-28.8 0 0-1.782-2.091-3.666-2.215l-1.527-.044c-2.216.167-3.667 2.215-3.667 2.215-5.077 5.892-18.858 21.154-25.686 28.799-10.927 12.229-1.71 12.963-1.71 12.963h8.871s3.201.073 3.572.073c8.867 0-7.354 18.299-19.444 31.04-12.247 12.905-3.75 12.959-3.75 12.959h5.372s2.466.12 3.695.12c8.871 0 1.706 6.136 1.706 6.136s-2.233 2.623-5.652 6.591" stroke="#231f20" stroke-width="7.6382"/><path d="m623.559 258.848s-.829 27.661 4.237 33.07c5.063 5.401 16.077 4.193 16.742 6.572.673 2.382 3.183 5.634-1.745 7.274-4.929 1.648-14.142 1.211-18.732-1.033-4.586-2.255-6.973 1.862-17.644-.833-1.227-.306-.139-7.045.298-12.971.433-5.936-1.852-13.869-2.343-20.143-.37-4.765-.29-9.515-.229-11.53.018-.644.036-1.007.036-1.007" stroke="#231f20" stroke-width="5.0921"/><path d="m588.038 258.517s0 .051-.004.146c-.04 2.248-.521 29.836.982 34.179 1.56 4.532 9.846 10.253 9.846 14.698 0 5.158-.313 3.91-5.787 4.379-5.471.473-9.063-1.724-13.6-5.787-4.535-4.063-7.66.469-5.783-13.439 1.237-9.188-1.091-13.287-3.437-22.983-1.594-6.587-2.587-10.337-3.06-12.058-.222-.814-.331-1.178-.331-1.178" stroke="#231f20" stroke-width="5.0921"/><path d="m628.211 101.058c-5.081-8.369-2.554-13.345-2.71-28.956-.2-20.427-9.067-26.803-20.227-29.891-6.678-1.852-16.589 4.063-21.95 10.159-1.925 2.186-3.263 4.397-3.655 6.282-1.227 5.899-.731 8.893.127 10.41.956 1.684 2.364 1.546 2.364 1.546s4.273-5.649 11.461-5.481c3.346.08 6.42.109 9.046.444 4.175.527 7.227 1.811 8.449 5.234.426 1.189.818 1.699 1.164 1.699 1.287 0 1.924-6.987 1.044-12.498-1.495-9.362-13.928-11.119-29.768-7.431" stroke="#231f20" stroke-width="5.0921"/><path d="m612.811 72.601s.44 2.433 1.233 5.732c1.105 4.62 2.913 10.93 5.18 14.593 2.418 3.903 3.408 8.038 3.28 11.73-.043 1.317-.226 2.575-.542 3.746-.214.833-.502 1.623-.844 2.357-.546 1.168-2.244 2.106-4.612 2.848-3.946 1.233-9.747 1.917-15.148 2.171-4.368.208-8.475.142-11.126-.138-10.079-1.055-21.551-13.582-19.965-23.405.058-.371.138-.739.236-1.103 2.222-8.224 7.496-15.018 8.937-19.663.272-.88.407-1.688.356-2.408-.004-.084-.015-.167-.025-.248" stroke="#231f20" stroke-width="5.0921"/><path d="m634.54 107.387c0 3.496-2.834 6.325-6.329 6.325-3.149 0-5.762-2.299-6.249-5.311-.051-.331-.08-.669-.08-1.015 0-.979.223-1.906.622-2.731 1.019-2.128 3.19-3.597 5.707-3.597 3.495 0 6.329 2.834 6.329 6.329z" stroke="#231f20" stroke-width="5.0921"/><path d="m579.868 71.604c1.695 2.291 12.108 7.809 17.837 7.369 1.088-.083 1.968-.331 2.961-.869.735-.396 1.415-.88 2.139-1.258.331-.171.67-.324 1.029-.437 1.434-.451 3.096-.735 4.634-.524 1.674.226 4.176 1.695 5.314 2.51" stroke="#231f20" stroke-width="5.0921"/><path d="m569.805 92.227s0 0-.004.003c-.36.316-23.344 20.66-27.992 25.304-4.681 4.681-5.481 9.766-2.888 17.935 1.091 3.448 3.463 9.839 5.932 16.139 2.932 7.471 6.006 14.821 7.268 17.007.196.342.35.557.451.626 1.295.902 8.067.505 10.362-1.79" stroke="#231f20" stroke-width="5.0921"/><path d="m561.938 125.005s1.346 9.083 3.862 14.073c.466.924.971 1.709 1.517 2.27 2.51 2.583 6.671 5.576 8.62 7.646.761.807 1.183 1.473 1.044 1.92-.182.571-2.379 1.673-5.296 3.048-3.801 1.79-8.82 4.044-12.166 6.202-1.226.793-2.229 1.571-2.862 2.306-3.685 4.285-3.79 6.078-3.79 6.078" stroke="#231f20" stroke-width="5.0921"/><path d="m545.595 151.51c1.394-2.589 5.081-8.369 19.83-12.155" stroke="#231f20" stroke-width="5.0921"/><path d="m601.39 116.44s2.368 26.803 2.815 35.321" stroke="#231f20" stroke-width="5.0921"/><path d="m618.427 113.897s4.783 27.05 4.783 33.928" stroke="#231f20" stroke-width="5.0921"/><path d="m634.54 107.387s13.628 14.284 15.57 23.1c.677 3.077.43 7.082-.222 11.119-1.215 7.533-3.826 15.182-4.412 17.124-.182.604-.644 1.157-1.295 1.629-2.233 1.633-6.678 2.36-9.435 1.328-.396-.149-.76-.334-1.077-.56" stroke="#231f20" stroke-width="5.0921"/><path d="m629.339 115.393s3.211 13.225 4.088 22.347c.367 3.779.331 6.853-.502 7.991-.175.236-.356.455-.542.662-2.356 2.539-5.994 2.815-9.01 3.11-.749.076-1.462.149-2.105.262" stroke="#231f20" stroke-width="5.0921"/><path d="m575.686 148.92s.088.025.251.073c1.932.542 14.72 3.964 28.287 3.586.895-.021 1.797-.065 2.695-.124" stroke="#231f20" stroke-width="5.0921"/><path d="m634.271 137.66s12.999-1.495 15.243 3.884" stroke="#231f20" stroke-width="5.0921"/><path d="m620.34 149.822c1.135 1.251 1.826 2.906 1.826 4.725v8.37c0 .393-.033.778-.095 1.153-.076.469-.2.924-.367 1.353-1.008 2.644-3.568 4.518-6.565 4.518-1.938 0-3.695-.786-4.965-2.055-.557-.557-1.022-1.208-1.367-1.92-.444-.924-.691-1.957-.691-3.048v-8.37c0-.607.076-1.193.222-1.756.778-3.03 3.532-5.267 6.802-5.267 1.938 0 3.699.786 4.969 2.055.079.079.155.159.231.242z" stroke="#231f20" stroke-width="5.0921"/><path d="m578.075 163.266c3.419.789 14.458 3.619 25.101 3.575 1.462-.003 2.917-.062 4.343-.186" stroke="#231f20" stroke-width="5.0921"/><path d="m622.312 164.113s8.656-.24 10.864-3.037c.272-.342.443-.724.494-1.149.448-3.885-1.192-13.451-1.192-13.451" stroke="#231f20" stroke-width="5.0921"/><path d="m633.969 162.171s1.102 5.47 2.564 13.119c1.771 9.275 4.073 21.751 5.587 31.546 1.131 7.325 1.822 13.148 1.517 15.018-.593 3.655-6.158 5.31-12.989 6.278-3.444.487-7.209.8-10.827 1.109-1.819.153-3.598.306-5.278.477-2.873.294-7.558.764-13.014 1.2-.498.04-1.004.08-1.513.12-.139.011-.277.021-.415.033-15.574 1.189-36.14 1.979-39.485-1.914-.211-.244-.354-.501-.422-.782-1.004-4.019-.946-10.104-.582-17.095.232-4.448.593-9.26.884-14.141.745-12.552 2.985-28.243 2.985-28.243" stroke="#231f20" stroke-width="5.0921"/><path d="m603.184 167.554s-.597 22.264-.75 34.67c-.04 3.408-.243 7.107-.517 10.672-.716 9.413-1.92 17.928-1.92 17.928" stroke="#231f20" stroke-width="5.0921"/><path d="m559.344 211.292c.451-.153 26.108 5.976 42.442 1.593" stroke="#231f20" stroke-width="5.0921"/><path d="m621.715 164.862s-.004.196-.011.56c-.084 4.368-.651 33.168-1.331 45.917-.75 13.897-.601 17.338-.601 17.338" stroke="#231f20" stroke-width="5.0921"/><path d="m620.373 211.339s14.098-.844 21.271-4.43" stroke="#231f20" stroke-width="5.0921"/><path d="m601.535 230.769s-.003.051-.007.149c-.087 2.175-1.069 27.385 1.502 28.098.287.08.662.16 1.113.24 3.539.619 11.719 1.099 17.681-.469.422-.113.836-.232 1.236-.367 0 0 2.394.891 4.484-9.119 2.092-10.013 3.14-20.925 3.14-20.925" stroke="#231f20" stroke-width="5.0921"/><path d="m560.141 228.524s-.012.226-.025.633c-.16 4.118-.928 26.934 1.52 27.614.725.2 2.79.538 5.562.88 5.842.724 14.804 1.47 20.838 1.011 1.764-.135 3.277-.371 4.39-.742 0 0 7.246-9.402 7.177-26.85 0-.149-.004-.298-.004-.451" stroke="#231f20" stroke-width="5.0921"/><path d="m559.995 160.229s1.258 3.444 2.993 7.198c.167.356.338.717.513 1.081 1.873 3.892 4.172 7.802 6.053 8.307 3.888 1.048 9.268-2.39 10.017-7.02.262-1.633-.458-4.063-1.499-6.525-1.916-4.528-4.928-9.169-4.928-9.169" stroke="#231f20" stroke-width="5.0921"/><path d="m644.284 160.079c-.033.091-.065.182-.103.28-1.316 3.648-4.521 12.461-7.648 14.931-.255.208-.513.368-.768.477" stroke="#231f20" stroke-width="5.0921"/><path d="m595.741 70.102c0 1.175-.964 2.128-2.156 2.128-1.189 0-2.153-.953-2.153-2.128 0-1.178.964-2.128 2.153-2.128 1.192 0 2.156.949 2.156 2.128z" stroke="#231f20" stroke-width="2.5609"/><path d="m607.396 69.873c0 1.175-.968 2.128-2.161 2.128-1.189 0-2.156-.953-2.156-2.128 0-1.179.967-2.131 2.156-2.131 1.193-.001 2.161.952 2.161 2.131z" stroke="#231f20" stroke-width="2.5609"/><path d="m602.547 66.522c-1.896 3.688-.866 7.256 0 9.766" stroke="#231f20" stroke-width="2.5609"/></g></svg>