<svg enable-background="new 0 0 850.394 850.394" height="850.394" viewBox="0 0 850.394 850.394" width="850.394" xmlns="http://www.w3.org/2000/svg"><path d="m153.33 358.99c33.27.28 60.14 27.34 60.14 60.67 0 33.32-26.87 60.38-60.14 60.66-.18.01-.35.01-.53.01-33.51 0-60.67-27.17-60.67-60.67 0-33.51 27.16-60.68 60.67-60.68.18 0 .35 0 .53.01z" fill="#c8c8c8"/><g fill="none"><path d="m153.33 358.99c33.27.28 60.14 27.34 60.14 60.67 0 33.32-26.87 60.38-60.14 60.66-.18.01-.35.01-.53.01-33.51 0-60.67-27.17-60.67-60.67 0-33.51 27.16-60.68 60.67-60.68.18 0 .35 0 .53.01z" stroke="#231f20" stroke-width="21"/><path d="m153.33 361.32v-2.33-126.44h381.32 186.52l-.52 110.64 36.53 22.48-74.37 37.96 66.54 25.89-59.5 36.23 31.32 11.06v129.43h-332.15-235.69v-125.92-1.96" stroke="#231f20" stroke-width="14"/><path d="m501.58 262.68 33.13-30.08-.06-.05-33.11-30.01" stroke="#231f20" stroke-width="14"/><path d="m421.93 636.11-32.91-29.87-.22-.2 33.18-30.07" stroke="#231f20" stroke-width="14"/><path d="m191.38 302.83v23.82 24.06" stroke="#231f20" stroke-width="14"/><path d="m167.55 326.65h23.83 24.05" stroke="#231f20" stroke-width="14"/><path d="m166.63 501.86h47.88" stroke="#231f20" stroke-width="14"/><path d="m0 0h850.394v850.394h-850.394z"/></g></svg>