<svg enable-background="new 0 0 850.394 850.394" height="850.394" viewBox="0 0 850.394 850.394" width="850.394" xmlns="http://www.w3.org/2000/svg"><path d="m480.47 750.16c2.99-.91 6.29-1.33 9.75-1.33h10.07c3.47 0 6.78.72 9.77 2.02 8.66 3.75 14.74 12.351 14.811 22.381v.17c0 13.58-11.01 24.58-24.58 24.58h-10.07c-13.569 0-24.569-11-24.569-24.58l.409-6.5c.36-2.271 1.04-4.641 2.311-7.07 2.598-5.001 6.878-8.091 12.098-9.671z" fill="#c8c8c8"/><path d="m480.47 750.16v-178.76l-.02-.301 29.609-1.92.101 181.45-.101.22c-2.989-1.3-6.3-2.02-9.77-2.02h-10.07c-3.459.001-6.759.421-9.749 1.331z" fill="#c8c8c8"/><path d="m480.45 571.1-3.29.21s-128.31 16.311-195.2-3.42c-66.9-19.739-71.29-118.439-71.29-118.439s-7.8-186.43 0-264.3c7.81-77.86 31.61-124.14 122.83-116.24 109.19 9.46 163.44 50.26 181.79 67.44h-42.79c-4.78 0-9.1 1.93-12.22 5.06-2.601 2.6-4.37 6.03-4.891 9.84l-.1-.01-110.83-.08s-38.38-3.29-38.38 64.7v202.88s-6.58 42.76 34 61.41c40.57 18.649 137.08 35.1 137.08 35.1l3.29.16 29.5 1.45 11.76.58v50.989l-11.65.75z" fill="#0b00ea"/><path d="m515.29 136.35h8.75c9.54 0 17.28 7.74 17.28 17.27 0 9.54-7.74 17.28-17.28 17.28h-51.54c-9.55 0-17.28-7.74-17.28-17.28 0-.8.061-1.59.17-2.37.521-3.81 2.29-7.24 4.891-9.84 3.12-3.13 7.439-5.06 12.22-5.06z" fill="#0b00ea"/><path d="m430.55 761.45c6.36 0 11.51 5.27 11.51 11.78 0 6.52-5.149 11.789-11.51 11.789-6.36 0-11.51-5.27-11.51-11.789 0-6.51 5.15-11.78 11.51-11.78z" fill="#c8c8c8"/><path d="m674.98 773.23c.17-6.351 5.25-11.44 11.5-11.44 6.359 0 11.51 5.27 11.51 11.78 0 6.52-5.15 11.79-11.51 11.79s-11.511-5.271-11.511-11.79c.001-.11.001-.23.011-.34z" fill="#c8c8c8"/><path d="m510.06 370.59v143.97l-.11 2.3-29.5-1.45v-144.1-6.58h29.61z" fill="#c8c8c8"/><path d="m530.91 312.64-20.85 57.95v-5.86h-29.61v6.58l-21.11-58.67h10.16 51.25z" fill="#c8c8c8"/><g fill="none"><path d="m455.29 151.24-110.83-.08s-38.38-3.29-38.38 64.7v202.88s-6.58 42.76 34 61.41c40.57 18.649 137.08 35.1 137.08 35.1l3.29.16 29.5 1.45 11.76.58v50.989l-11.65.75-29.609 1.92-3.29.21s-128.31 16.311-195.2-3.42c-66.9-19.739-71.29-118.439-71.29-118.439s-7.8-186.43 0-264.3c7.81-77.86 31.61-124.14 122.83-116.24 109.19 9.46 163.44 50.26 181.79 67.44l.01.01" stroke="#000" stroke-width="19.7397"/><path d="m515.29 136.35h8.75c9.54 0 17.28 7.74 17.28 17.27 0 9.54-7.74 17.28-17.28 17.28h-51.54c-9.55 0-17.28-7.74-17.28-17.28 0-.8.061-1.59.17-2.37.521-3.81 2.29-7.24 4.891-9.84 3.12-3.13 7.439-5.06 12.22-5.06z" stroke="#000" stroke-width="19.7397"/><path d="m510.06 569.18.1 181.45" stroke="#000" stroke-width="19.7397"/><path d="m480.45 515.41v-144.1-6.58h29.61v5.86 143.97" stroke="#000" stroke-width="19.7397"/><path d="m480.47 750.94v-.78-178.76" stroke="#000" stroke-width="19.7397"/><path d="m480.45 371.31-21.11-58.67h10.16" stroke="#000" stroke-width="19.7397"/><path d="m509.8 371.31.26-.72 20.85-57.95h-10.16-51.25" stroke="#000" stroke-width="19.7397"/><path d="m524.87 773.23v.17c0 13.58-11.01 24.58-24.58 24.58h-10.07c-13.569 0-24.569-11-24.569-24.58l.409-6.5c.36-2.271 1.04-4.641 2.311-7.07 2.6-5 6.88-8.09 12.1-9.67 2.99-.91 6.29-1.33 9.75-1.33h10.07c3.47 0 6.78.72 9.77 2.02 8.659 3.75 14.739 12.35 14.809 22.38z" stroke="#000" stroke-width="19.7397"/><path d="m442.06 773.23c0 6.52-5.149 11.789-11.51 11.789-6.36 0-11.51-5.27-11.51-11.789 0-6.511 5.15-11.78 11.51-11.78s11.51 5.27 11.51 11.78z" stroke="#000" stroke-width="13.1598"/><path d="m697.99 773.57c0 6.52-5.15 11.79-11.51 11.79s-11.511-5.271-11.511-11.79c0-.11 0-.23.011-.34.17-6.351 5.25-11.44 11.5-11.44 6.36 0 11.51 5.27 11.51 11.78z" stroke="#000" stroke-width="13.1598"/><path d="m524.86 773.23h.01 150.11.12" stroke="#000" stroke-width="26.3196"/><path d="m442.06 773.23 23.18.09" stroke="#000" stroke-width="26.3196"/><path d="m0 0h850.394v850.394h-850.394z"/></g></svg>