<svg enable-background="new 0 0 850.394 850.394" height="850.394" viewBox="0 0 850.394 850.394" width="850.394" xmlns="http://www.w3.org/2000/svg"><path d="m647.225 246.511v511.312l-18.346 8.836-94.952-110.06h-.12v-304.35h.707l98.265-113.901z" fill="#fff5b4"/><path d="m366.898 311.452h-30.098l-11.062 39.615h-125.965v.586l-99.059-114.824 16.662-5.333 250.117-.069h253.051l12.235 6.921-98.265 113.901h-.707v-1.182h-125.025l-11.071-39.615z" fill="#fff"/><path d="m103.976 767.712 95.798-111.036h334.033v-.077h.12l94.952 110.061-22.374 10.77-239.711.068h-271.257zm171.611-53.749v-.034l.017-.009h-.017-.043l.026.025z" fill="#faa41a"/><path d="m199.773 351.653v-.586h125.964l-7.887 28.242h98.818l-7.887-28.242h125.024v1.182 304.35.077h-334.032zm230.28 144.733v-.043l.009-.009h-.009-.061l.034.034zm-101.364 56.165v-50.366-37.605h-49.366-49.288v87.971h49.288z" fill="#fff5b4"/><path d="m408.782 351.067 7.887 28.242h-98.818l7.887-28.242z" fill="#f6cc4b"/><path d="m366.898 311.452h30.813l11.071 39.615h-83.044l11.062-39.615z" fill="#f6cc4b"/><path d="m328.689 502.185v50.366h-49.366v-4.702-45.664z" fill="#fff"/><path d="m328.689 464.58v37.605h-49.366v-36.268-1.337z" fill="#fff"/><path d="m279.323 547.849v4.702h-49.288v-87.971h49.288v1.337 36.268z" fill="#fff"/><path d="m199.773 351.653v305.023l-95.797 111.036-16.067-21.011v-505.773l12.805-4.099z" fill="#fff5b4"/><g fill="none"><path d="m408.782 351.067h125.025v1.182 304.35.077h-334.034v-305.023-.586h125.965" stroke="#231f20" stroke-width="14"/><path d="m533.927 656.599 94.952 110.06 9.285 10.761-31.659.009-239.711.068h-271.257l8.439-9.785 95.797-111.036" stroke="#231f20" stroke-width="14"/><path d="m200.352 352.327-.579-.674-99.059-114.824-4.599-5.324 21.261-.009 250.117-.069h253.051 18.207l-5.972 6.921-98.265 113.901" stroke="#231f20" stroke-width="14"/><path d="m87.909 224.472v16.456 505.773 37.829" stroke="#231f20" stroke-width="14"/><path d="m647.225 224.317v22.194 511.312 26.561" stroke="#231f20" stroke-width="14"/><path d="m328.689 502.185v50.366h-49.366-49.288v-87.971h49.288 49.366z" stroke="#231f20" stroke-width="14"/><path d="m279.323 465.917v36.268 45.664" stroke="#231f20" stroke-width="14"/><path d="m279.323 502.185h49.366" stroke="#231f20" stroke-width="14"/><path d="m366.898 266.693v44.759" stroke="#231f20" stroke-width="14"/><path d="m325.738 351.067-7.887 28.242h98.818l-7.887-28.242-11.071-39.615h-30.813-30.098z" stroke="#231f20" stroke-width="14"/><path d="m430.053 459.929v36.405.009.043 36.69" stroke="#231f20" stroke-linecap="round" stroke-linejoin="round" stroke-width="7"/><path d="m397.901 496.334h32.091.061.009 32.306" stroke="#231f20" stroke-linecap="round" stroke-linejoin="round" stroke-width="7"/><path d="m411.475 514.006 18.551-17.638.027-.025.009-.009 18.741-17.818" stroke="#231f20" stroke-linecap="round" stroke-linejoin="round" stroke-width="7"/><path d="m448.406 513.842-18.353-17.456-.027-.018-.034-.034-18.906-17.982" stroke="#231f20" stroke-linecap="round" stroke-linejoin="round" stroke-width="7"/><path d="m275.587 677.506v36.414.009.034 36.699" stroke="#231f20" stroke-linecap="round" stroke-linejoin="round" stroke-width="7"/><path d="m243.444 713.92h32.1.043.017 32.307" stroke="#231f20" stroke-linecap="round" stroke-linejoin="round" stroke-width="7"/><path d="m257.009 731.592 18.561-17.647.017-.016.017-.009 18.742-17.818" stroke="#231f20" stroke-linecap="round" stroke-linejoin="round" stroke-width="7"/><path d="m293.949 731.428-18.362-17.465-.017-.018-.026-.025-18.915-17.991" stroke="#231f20" stroke-linecap="round" stroke-linejoin="round" stroke-width="7"/><path d="m0 0h850.394v850.394h-850.394z"/></g><path d="m660.172 41.843v121.984" fill="#fff" stroke="#231f20" stroke-linecap="round" stroke-linejoin="round" stroke-width="14"/><path d="m606.57 102.552h107.491" fill="#fff" stroke="#231f20" stroke-linecap="round" stroke-linejoin="round" stroke-width="14"/><path d="m629.192 132.025 62.246-59.176" fill="#fff" stroke="#231f20" stroke-linecap="round" stroke-linejoin="round" stroke-width="14"/><path d="m690.783 131.746-62.236-59.178" fill="#fff" stroke="#231f20" stroke-linecap="round" stroke-linejoin="round" stroke-width="14"/><path d="m774.777 51.462v66.133" fill="#fff" stroke="#231f20" stroke-linecap="round" stroke-linejoin="round" stroke-width="7"/><path d="m745.718 84.375h58.276" fill="#fff" stroke="#231f20" stroke-linecap="round" stroke-linejoin="round" stroke-width="7"/><path d="m757.983 100.354 33.746-32.083" fill="#fff" stroke="#231f20" stroke-linecap="round" stroke-linejoin="round" stroke-width="7"/><path d="m791.373 100.202-33.739-32.083" fill="#fff" stroke="#231f20" stroke-linecap="round" stroke-linejoin="round" stroke-width="7"/><path d="m717.63 168.36v66.133" fill="#fff" stroke="#231f20" stroke-linecap="round" stroke-linejoin="round" stroke-width="7"/><path d="m688.57 201.273h58.277" fill="#fff" stroke="#231f20" stroke-linecap="round" stroke-linejoin="round" stroke-width="7"/><path d="m700.837 217.253 33.744-32.084" fill="#fff" stroke="#231f20" stroke-linecap="round" stroke-linejoin="round" stroke-width="7"/><path d="m734.227 217.101-33.741-32.084" fill="#fff" stroke="#231f20" stroke-linecap="round" stroke-linejoin="round" stroke-width="7"/></svg>