<svg enable-background="new 0 0 850.394 850.394" height="850.394" viewBox="0 0 850.394 850.394" width="850.394" xmlns="http://www.w3.org/2000/svg"><path d="m623.182 332v402h-402.01v-396" fill="none"/><g fill="#5668af"><path d="m589.648 371.056c0 18.523 15.018 33.533 33.535 33.533 18.523 0 33.531-15.01 33.531-33.533 0-18.522-15.008-33.535-33.531-33.535-18.517 0-33.535 15.013-33.535 33.535z"/><path d="m589.648 443.646c0 18.522 15.018 33.533 33.535 33.533 18.523 0 33.531-15.011 33.531-33.533s-15.008-33.535-33.531-33.535c-18.517-.001-33.535 15.012-33.535 33.535z"/><path d="m589.648 516.234c0 18.523 15.018 33.533 33.535 33.533 18.523 0 33.531-15.01 33.531-33.533 0-18.522-15.008-33.535-33.531-33.535-18.517 0-33.535 15.013-33.535 33.535z"/><path d="m589.648 588.824c0 18.522 15.018 33.532 33.535 33.532 18.523 0 33.531-15.01 33.531-33.532 0-18.523-15.008-33.535-33.531-33.535-18.517 0-33.535 15.012-33.535 33.535z"/><path d="m589.648 661.413c0 18.522 15.018 33.533 33.535 33.533 18.523 0 33.531-15.011 33.531-33.533s-15.008-33.535-33.531-33.535c-18.517 0-33.535 15.013-33.535 33.535z"/><path d="m542.779 700.467c-18.522 0-33.533 15.018-33.533 33.535 0 18.523 15.011 33.531 33.533 33.531s33.535-15.008 33.535-33.531c0-18.518-15.012-33.535-33.535-33.535z"/><path d="m462.377 700.467c-18.522 0-33.533 15.018-33.533 33.535 0 18.523 15.011 33.531 33.533 33.531s33.535-15.008 33.535-33.531c0-18.518-15.013-33.535-33.535-33.535z"/><path d="m381.975 700.467c-18.522 0-33.533 15.018-33.533 33.535 0 18.523 15.01 33.531 33.533 33.531s33.535-15.008 33.535-33.531c0-18.518-15.012-33.535-33.535-33.535z"/><path d="m301.572 700.467c-18.522 0-33.533 15.018-33.533 33.535 0 18.523 15.01 33.531 33.533 33.531s33.535-15.008 33.535-33.531c0-18.518-15.012-33.535-33.535-33.535z"/><path d="m254.705 662.411c0-18.523-15.017-33.533-33.535-33.533-18.522 0-33.53 15.01-33.53 33.533 0 18.522 15.008 33.535 33.53 33.535 18.518 0 33.535-15.012 33.535-33.535z"/><path d="m254.705 590.821c0-18.522-15.017-33.532-33.535-33.532-18.522 0-33.53 15.01-33.53 33.532s15.008 33.535 33.53 33.535c18.518 0 33.535-15.012 33.535-33.535z"/><path d="m254.705 519.232c0-18.522-15.017-33.533-33.535-33.533-18.522 0-33.53 15.011-33.53 33.533s15.008 33.535 33.53 33.535c18.518.001 33.535-15.012 33.535-33.535z"/><path d="m254.705 447.643c0-18.522-15.017-33.532-33.535-33.532-18.522 0-33.53 15.01-33.53 33.532 0 18.523 15.008 33.535 33.53 33.535 18.518 0 33.535-15.012 33.535-33.535z"/><path d="m254.705 376.054c0-18.522-15.017-33.533-33.535-33.533-18.522 0-33.53 15.01-33.53 33.533s15.008 33.535 33.53 33.535c18.518 0 33.535-15.013 33.535-33.535z"/><path d="m623.181 700.467c-18.522 0-33.533 15.018-33.533 33.535 0 18.523 15.011 33.531 33.533 33.531s33.535-15.008 33.535-33.531c0-18.518-15.013-33.535-33.535-33.535z"/><path d="m254.705 733.999c0-18.522-15.017-33.533-33.535-33.533-18.522 0-33.53 15.011-33.53 33.533s15.008 33.535 33.53 33.535c18.518 0 33.535-15.013 33.535-33.535z"/></g><path d="m0 0h850.394v850.394h-850.394z" fill="none"/><path d="m254 376 330-6" fill="none"/><path d="m300.494 408.693c18.52-.336 33.254-15.624 32.917-34.139-.336-18.52-15.617-33.252-34.137-32.915-18.52.336-33.257 15.615-32.92 34.134.337 18.515 15.62 33.257 34.14 32.92z" fill="#5668af"/><path d="m379.905 407.249c18.52-.336 33.254-15.624 32.917-34.139-.337-18.52-15.617-33.252-34.137-32.915-18.52.336-33.257 15.615-32.92 34.134.338 18.515 15.62 33.257 34.14 32.92z" fill="#5668af"/><path d="m459.316 405.805c18.52-.336 33.254-15.624 32.918-34.139-.337-18.52-15.617-33.252-34.137-32.915-18.52.336-33.257 15.615-32.92 34.134.337 18.515 15.62 33.257 34.139 32.92z" fill="#5668af"/><path d="m538.728 404.361c18.52-.336 33.255-15.624 32.918-34.139-.337-18.52-15.617-33.252-34.137-32.915-18.52.336-33.257 15.615-32.92 34.134.336 18.516 15.619 33.257 34.139 32.92z" fill="#5668af"/><path d="m371.698 111.055 99.426 188.364" fill="none" stroke="#000" stroke-linecap="round" stroke-linejoin="round" stroke-width="14"/><path d="m489.17 231.399-17.732 68.992-66.989-24.371" fill="none" stroke="#000" stroke-linecap="round" stroke-linejoin="round" stroke-width="14"/></svg>