<svg enable-background="new 0 0 850.394 850.394" height="850.394" viewBox="0 0 850.394 850.394" width="850.394" xmlns="http://www.w3.org/2000/svg"><path d="m640.14 315.21h-66.31-59.87-.02l-.21-30.8h262.8l-13.07 480.43h-101.15l-22.17-386.26v-.58z" fill="#787878"/><path d="m640.14 315.21v62.79l-22.05 386.93h-101.15l-2.54-379.73h.08s26.46 6.64 49.55-25.2c11.62-16.03 9.8-44.79 9.8-44.79z" fill="#787878"/><path d="m573.83 315.21s1.82 28.76-9.8 44.79c-23.09 31.84-49.55 25.2-49.55 25.2h-.08l-.46-69.99h.02z" fill="#787878"/><path d="m418.27 454.17-7.61-36.51 61.87-13.02h.01c5.06 21.93 9.02 37.41 9.02 37.41zm45.19-27.89c0-2.65-2.16-4.8-4.82-4.8-2.649 0-4.8 2.15-4.8 4.8 0 2.66 2.15 4.819 4.8 4.819 2.66.001 4.82-2.159 4.82-4.819z" fill="#a3d9ff"/><path d="m291.31 499.62v-346c8.37-3.79 15.88-5.53 27.33 1.27 12.31 7.31 46.09 32.92 46.09 32.92s-3.82-45.32-12.05-63.02c15.62 6.52 47.79 21.18 56.74 26.26 14.24 8.08 24.63 53.47 24.63 53.47s17.94 101.76 28.65 154.83c3.25 16.13 6.74 31.91 9.84 45.29h-.01l-61.87 13.02 7.61 36.51v45.64h-155.41v-.189h.75 27.7z" fill="#a3d9ff"/><path d="m458.64 421.48c2.66 0 4.82 2.15 4.82 4.8 0 2.66-2.16 4.819-4.82 4.819-2.649 0-4.8-2.159-4.8-4.819 0-2.65 2.15-4.8 4.8-4.8z" fill="#0b00ea"/><path d="m361.78 580.41h30.2s-13.2 74.22-2.03 102.31c7.09 17.82 5.13 46.48-26.26 50.41-2.28.29-36.01-2.8-81.96 21.5-48.54 25.65-68.77 1.07-67.94-20.91.41-11.109 6.21-21.56 16.44-24.529 15.08-4.381 62.56-21.62 70.1-29.15 10.01-10.03 19.87-23.78 15.63-50.8-3.52-22.521-4.23-48.83-4.23-48.83h16.11 11.47 8.17 2.82 11.48z" fill="#c8c8c8"/><path d="m352.68 124.79c8.23 17.7 12.05 63.02 12.05 63.02s-33.78-25.61-46.09-32.92c-11.45-6.8-18.96-5.06-27.33-1.27v-4.31l-.82-.28c12.69-11.41 28.06-26.02 24.3-51.07-.38-2.56-1.63-4.69-3.45-6.46 1.97 1.22 23.32 14.53 37.68 27.73 1.31 1.2 2.53 3.12 3.66 5.56z" fill="#a3d9ff"/><path d="m333.18 549.35h18.59s-2.4 13.45-4.29 31.051v.01h-8.17-11.47-16.11s.71 26.31 4.23 48.83c4.24 27.02-5.62 40.77-15.63 50.8-7.54 7.53-55.02 24.77-70.1 29.15-10.23 2.97-16.03 13.42-16.44 24.529-47.09 8.12-49.87-48.01-23.78-55.58 15.08-4.38 62.56-21.63 70.1-29.17 10.01-10.01 19.87-23.77 15.63-50.79-3.52-22.52-4.23-48.83-4.23-48.83h16.73 10.99 11.48 10.99z" fill="#c8c8c8"/><path d="m291.31 153.62v346h-27.7v-346.37-5.51c-12.43-11.26-26.71-25.71-23.08-49.97.39-2.61 1.69-4.77 3.58-6.55.01 0 .02-.01.02-.01 9.47-8.88 33.71-8.44 33.71-8.44s24.19-.31 33.49 8.73h.01c1.82 1.77 3.07 3.9 3.45 6.46 3.76 25.05-11.61 39.66-24.3 51.07l.82.28zm-8.85 37.59c0-2.66-2.15-4.81-4.81-4.81-2.65 0-4.81 2.15-4.81 4.81s2.16 4.81 4.81 4.81c2.66 0 4.81-2.15 4.81-4.81zm-.19 52.49c0-2.66-2.16-4.82-4.81-4.82s-4.81 2.16-4.81 4.82c0 2.65 2.16 4.8 4.81 4.8s4.81-2.15 4.81-4.8zm0 51.41c0-2.65-2.16-4.81-4.81-4.81s-4.81 2.16-4.81 4.81 2.16 4.81 4.81 4.81 4.81-2.16 4.81-4.81zm0 51.54c0-2.65-2.16-4.8-4.81-4.8s-4.81 2.15-4.81 4.8c0 2.66 2.16 4.81 4.81 4.81s4.81-2.15 4.81-4.81zm0 52.71c0-2.66-2.16-4.81-4.81-4.81s-4.81 2.15-4.81 4.81c0 2.65 2.16 4.81 4.81 4.81s4.81-2.16 4.81-4.81zm0 53.54c0-2.65-2.16-4.801-4.81-4.801s-4.81 2.15-4.81 4.801c0 2.659 2.16 4.819 4.81 4.819s4.81-2.159 4.81-4.819z" fill="#a3d9ff"/><path d="m277.65 186.4c2.66 0 4.81 2.15 4.81 4.81s-2.15 4.81-4.81 4.81c-2.65 0-4.81-2.15-4.81-4.81s2.16-4.81 4.81-4.81z" fill="#0b00ea"/><path d="m277.46 238.88c2.65 0 4.81 2.16 4.81 4.82 0 2.65-2.16 4.8-4.81 4.8s-4.81-2.15-4.81-4.8c0-2.66 2.16-4.82 4.81-4.82z" fill="#0b00ea"/><path d="m277.46 290.3c2.65 0 4.81 2.16 4.81 4.81s-2.16 4.81-4.81 4.81-4.81-2.16-4.81-4.81 2.16-4.81 4.81-4.81z" fill="#0b00ea"/><path d="m277.46 341.85c2.65 0 4.81 2.15 4.81 4.8 0 2.66-2.16 4.81-4.81 4.81s-4.81-2.15-4.81-4.81c0-2.65 2.16-4.8 4.81-4.8z" fill="#0b00ea"/><path d="m277.46 394.55c2.65 0 4.81 2.15 4.81 4.81 0 2.65-2.16 4.81-4.81 4.81s-4.81-2.16-4.81-4.81c0-2.66 2.16-4.81 4.81-4.81z" fill="#0b00ea"/><path d="m277.46 448.1c2.65 0 4.81 2.15 4.81 4.801 0 2.659-2.16 4.819-4.81 4.819s-4.81-2.16-4.81-4.819c0-2.651 2.16-4.801 4.81-4.801z" fill="#0b00ea"/><path d="m144.66 417.46-61.86-13.01c3.08-13.38 6.57-29.16 9.82-45.29 10.7-53.07 28.66-154.84 28.66-154.84s10.38-45.39 24.62-53.47c8.95-5.08 41.13-19.74 56.74-26.26-8.22 17.68-12.04 63.02-12.04 63.02s33.77-25.6 46.08-32.91c11.26-6.69 18.71-5.12 26.93-1.45v346.37h-.75-125.81v-45.64z" fill="#a3d9ff"/><path d="m263.61 147.74v5.51c-8.22-3.67-15.67-5.24-26.93 1.45-12.31 7.31-46.08 32.91-46.08 32.91s3.82-45.34 12.04-63.02c1.13-2.44 2.35-4.35 3.65-5.55 14.84-13.63 37.13-27.39 37.82-27.82-1.89 1.78-3.19 3.94-3.58 6.55-3.63 24.26 10.65 38.71 23.08 49.97z" fill="#a3d9ff"/><path d="m137.05 453.98-63.28-12.11s3.96-15.49 9.02-37.42h.01l61.86 13.01zm-34.81-27.7c0-2.65-2.16-4.8-4.81-4.8-2.66 0-4.81 2.15-4.81 4.8 0 2.66 2.15 4.819 4.81 4.819 2.65.001 4.81-2.159 4.81-4.819z" fill="#a3d9ff"/><path d="m97.43 421.48c2.65 0 4.81 2.15 4.81 4.8 0 2.66-2.16 4.819-4.81 4.819-2.66 0-4.81-2.159-4.81-4.819 0-2.65 2.15-4.8 4.81-4.8z" fill="#0b00ea"/><g fill="none"><path d="m213.79 733.72c.41-11.109 6.21-21.56 16.44-24.529 15.08-4.381 62.56-21.62 70.1-29.15 10.01-10.03 19.87-23.78 15.63-50.8-3.52-22.521-4.23-48.83-4.23-48.83h16.11 11.47 8.17 2.82 11.48 30.2s-13.2 74.22-2.03 102.31c7.09 17.82 5.13 46.48-26.26 50.41-2.28.29-36.01-2.8-81.96 21.5-48.54 25.649-68.77 1.069-67.94-20.911z" stroke="#231f20" stroke-width="21"/><path d="m327.84 580.4v.01 24.41" stroke="#231f20" stroke-width="6.4429"/><path d="m339.31 580.4v.01 24.41" stroke="#231f20" stroke-width="6.4429"/><path d="m350.3 580.4v.01 24.41" stroke="#231f20" stroke-width="6.4429"/><path d="m361.78 580.4v.01 24.41" stroke="#231f20" stroke-width="6.4429"/><path d="m372.52 580.49v24.41" stroke="#231f20" stroke-width="6.4429"/><path d="m213.8 733.72h-.01c-47.09 8.12-49.87-48.01-23.78-55.58 15.08-4.38 62.56-21.63 70.1-29.17 10.01-10.01 19.87-23.77 15.63-50.79-3.52-22.52-4.23-48.83-4.23-48.83h16.73 10.99 11.48 10.99 11.48 18.59s-2.4 13.45-4.29 31.051" stroke="#231f20" stroke-width="21"/><path d="m288.24 549.35v24.41" stroke="#231f20" stroke-width="6.4429"/><path d="m299.23 549.35v24.41" stroke="#231f20" stroke-width="6.4429"/><path d="m310.71 549.35v24.41" stroke="#231f20" stroke-width="6.4429"/><path d="m321.7 549.35v24.41" stroke="#231f20" stroke-width="6.4429"/><path d="m333.18 549.35v24.41" stroke="#231f20" stroke-width="6.4429"/><path d="m640.14 378-22.05 386.93h-101.15l-2.54-379.73-.46-69.99-.21-30.8h262.8" stroke="#231f20" stroke-width="21"/><path d="m640.14 378.58 22.17 386.26h101.15l13.07-480.43" stroke="#231f20" stroke-width="21"/><path d="m513.96 315.21h59.87 66.31 64.35 65.13" stroke="#231f20" stroke-width="21"/><path d="m640.14 315.21v62.79.58 17.99" stroke="#231f20" stroke-width="21"/><path d="m573.83 315.21s1.82 28.76-9.8 44.79c-23.09 31.84-49.55 25.2-49.55 25.2" stroke="#231f20" stroke-width="21"/><path d="m704.51 314.83s-.01.13-.02.38c-.16 3.44-1.021 29.46 9.819 44.4 23.091 31.85 49.54 25.21 49.54 25.21" stroke="#231f20" stroke-width="21"/><path d="m82.79 404.45c-5.06 21.93-9.02 37.42-9.02 37.42l63.28 12.11 7.61-36.521 28.94-138.89" stroke="#231f20" stroke-width="21"/><path d="m202.64 124.59c-15.61 6.52-47.79 21.18-56.74 26.26-14.24 8.08-24.62 53.47-24.62 53.47s-17.96 101.77-28.66 154.84c-3.25 16.13-6.74 31.91-9.82 45.29" stroke="#231f20" stroke-width="21"/><path d="m291.31 149.31v4.31 346" stroke="#231f20" stroke-width="14"/><path d="m265.92 154.32c-.78-.37-1.55-.73-2.31-1.07-8.22-3.67-15.67-5.24-26.93 1.45-12.31 7.31-46.08 32.91-46.08 32.91s3.82-45.34 12.04-63.02c1.13-2.44 2.35-4.35 3.65-5.55 14.84-13.63 37.13-27.39 37.82-27.82" stroke="#231f20" stroke-width="21"/><path d="m292.46 499.62h-1.15-27.7-.75-125.81v-45.64-4.62" stroke="#231f20" stroke-width="21"/><path d="m82.79 404.45h.01l61.86 13.01" stroke="#231f20" stroke-width="21"/><path d="m263.61 147.74v5.51 346.37" stroke="#231f20" stroke-width="14"/><path d="m282.46 191.21c0 2.66-2.15 4.81-4.81 4.81-2.65 0-4.81-2.15-4.81-4.81s2.16-4.81 4.81-4.81c2.66 0 4.81 2.15 4.81 4.81z" stroke="#231f20" stroke-width="6.4429"/><path d="m282.27 243.7c0 2.65-2.16 4.8-4.81 4.8s-4.81-2.15-4.81-4.8c0-2.66 2.16-4.82 4.81-4.82s4.81 2.16 4.81 4.82z" stroke="#231f20" stroke-width="6.4429"/><path d="m282.27 295.11c0 2.65-2.16 4.81-4.81 4.81s-4.81-2.16-4.81-4.81 2.16-4.81 4.81-4.81 4.81 2.16 4.81 4.81z" stroke="#231f20" stroke-width="6.4429"/><path d="m282.27 346.65c0 2.66-2.16 4.81-4.81 4.81s-4.81-2.15-4.81-4.81c0-2.65 2.16-4.8 4.81-4.8s4.81 2.15 4.81 4.8z" stroke="#231f20" stroke-width="6.4429"/><path d="m282.27 399.36c0 2.65-2.16 4.81-4.81 4.81s-4.81-2.16-4.81-4.81c0-2.66 2.16-4.81 4.81-4.81s4.81 2.15 4.81 4.81z" stroke="#231f20" stroke-width="6.4429"/><path d="m102.24 426.28c0 2.66-2.16 4.819-4.81 4.819-2.66 0-4.81-2.159-4.81-4.819 0-2.65 2.15-4.8 4.81-4.8 2.65 0 4.81 2.15 4.81 4.8z" stroke="#231f20" stroke-width="6.4429"/><path d="m463.46 426.28c0 2.66-2.16 4.819-4.82 4.819-2.649 0-4.8-2.159-4.8-4.819 0-2.65 2.15-4.8 4.8-4.8 2.66 0 4.82 2.15 4.82 4.8z" stroke="#231f20" stroke-width="6.4429"/><path d="m282.27 452.9c0 2.659-2.16 4.819-4.81 4.819s-4.81-2.16-4.81-4.819c0-2.65 2.16-4.801 4.81-4.801s4.81 2.151 4.81 4.801z" stroke="#231f20" stroke-width="6.4429"/><path d="m352.68 124.79c15.62 6.52 47.79 21.18 56.74 26.26 14.24 8.08 24.63 53.47 24.63 53.47s17.94 101.76 28.65 154.83c3.25 16.13 6.74 31.91 9.84 45.29 5.06 21.93 9.02 37.41 9.02 37.41l-63.29 12.12-7.61-36.51-28.93-138.9" stroke="#231f20" stroke-width="21"/><path d="m311.33 91.5c-9.3-9.04-33.49-8.73-33.49-8.73s-24.24-.44-33.71 8.44c0 0-.01.01-.02.01-1.89 1.78-3.19 3.94-3.58 6.55-3.63 24.26 10.65 38.71 23.08 49.97 3.34 3.02 6.54 5.81 9.23 8.5" stroke="#231f20" stroke-width="21"/><path d="m282.48 156.43c2.36-2.36 5.12-4.8 8.01-7.4 12.69-11.41 28.06-26.02 24.3-51.07-.38-2.56-1.63-4.69-3.45-6.46" stroke="#231f20" stroke-width="21"/><path d="m289.41 154.51c.64-.3 1.27-.6 1.9-.89 8.37-3.79 15.88-5.53 27.33 1.27 12.31 7.31 46.09 32.92 46.09 32.92s-3.82-45.32-12.05-63.02c-1.13-2.44-2.35-4.36-3.66-5.56-14.36-13.2-35.71-26.51-37.68-27.73-.01 0-.01 0-.01 0-.09-.06-.14-.09-.14-.09" stroke="#231f20" stroke-width="21"/><path d="m262.86 499.81h155.41v-45.64-4.61" stroke="#231f20" stroke-width="21"/><path d="m472.53 404.64-61.87 13.02" stroke="#231f20" stroke-width="21"/><path d="m0 0h850.394v850.394h-850.394z"/></g></svg>