<svg enable-background="new 0 0 850.394 850.394" height="850.394" viewBox="0 0 850.394 850.394" width="850.394" xmlns="http://www.w3.org/2000/svg"><path d="m163.218 383.103h130.978" fill="none" stroke="#231f20" stroke-width="21"/><path d="m243.87 200.81v-.04c20.95 0 38.7-7.04 44.76-16.77l1.5-3.2 45.29 21.22s8.46 4.01 20.21 12.46l-13.81 73.77-17.76 94.8-160.84.05-17.76-94.81-13.81-73.77c11.76-8.45 20.22-12.46 20.22-12.46l45.29-21.22 1.5 3.2c6.05 9.73 23.8 16.77 44.75 16.77z" fill="#cd82be"/><path d="m324.06 383.05 56.81 270.84h-138.52v.04h-135.93l56.8-270.83z" fill="#cd82be"/><path d="m641.43 501.16h-86.95-48.01v-26.89h181.76v26.89z" fill="#0b00ea"/><path d="m554.48 501.16-63.061 85.22c7.63-39.439 15.05-85.22 15.05-85.22z" fill="#0b00ea"/><path d="m688.23 501.16s8.359 45.689 16.189 85.109l-62.99-85.109z" fill="#0b00ea"/><path d="m729.18 735.23c2.34 12.1-111.42 22.34-111.42 22.34l-19-162.44-1.66.061-19.01 162.439s-113.75-10.22-111.41-22.33c5.65-29.29 13.601-93.97 22.08-135.56.88-4.311 1.771-8.8 2.66-13.36l63.061-85.22h86.949l62.99 85.109c.91 4.58 1.811 9.07 2.69 13.4 8.47 41.601 16.43 106.271 22.07 135.561z" fill="#0b00ea"/><path d="m640.94 110.97c3.42 4.58 5.359 9.81 5.359 15.36 0 17.99-19.95 37.81-45.069 37.81-25.11 0-45.881-19.82-45.881-37.81 0-5.65 2.011-10.97 5.551-15.61h.01c7.7-10.11 22.689-16.97 39.91-16.97 17.37 0 32.46 6.97 40.12 17.22z" fill="#fff400"/><path d="m709.64 121.15 63.86 78.39-47.9 47.89-28.06-28.06 1.45 196.93-197.431-.07 1.441-196.92-28.06 28.06-47.9-47.91 63.87-78.37 69.99-10.37c-3.54 4.64-5.551 9.96-5.551 15.61 0 17.99 20.771 37.81 45.881 37.81 25.119 0 45.069-19.82 45.069-37.81 0-5.55-1.939-10.78-5.359-15.36z" fill="#fff400"/><path d="m413.44 284.28-31.42 31.42-40.2-27.45 13.81-73.77c17.7 12.72 42.87 35.51 57.81 69.8z" fill="#cd82be"/><path d="m131.65 214.52 13.81 73.77-40.2 27.45-31.42-31.42c14.94-34.29 40.1-57.08 57.81-69.8z" fill="#cd82be"/><g fill="none"><path d="m560.91 110.72c7.7-10.11 22.689-16.97 39.91-16.97 17.37 0 32.46 6.97 40.12 17.22 3.42 4.58 5.359 9.81 5.359 15.36 0 17.99-19.95 37.81-45.069 37.81-25.11 0-45.881-19.82-45.881-37.81 0-5.65 2.011-10.97 5.551-15.61" stroke="#231f20" stroke-width="21"/><path d="m639.64 110.78 1.3.19 68.7 10.18 63.86 78.39-47.9 47.89-28.06-28.06 1.45 196.93-197.43-.07 1.44-196.92-28.06 28.06-47.9-47.91 63.87-78.37 69.99-10.37h.01" stroke="#231f20" stroke-width="21"/><path d="m688.23 501.16h-46.8-86.95-48.01v-26.89h181.76z" stroke="#231f20" stroke-width="21"/><path d="m554.48 501.16-63.06 85.22-.03.03" stroke="#231f20" stroke-width="21"/><path d="m688.23 501.16s8.359 45.689 16.189 85.109c.91 4.58 1.811 9.07 2.69 13.4 8.47 41.6 16.43 106.271 22.069 135.561 2.34 12.1-111.42 22.34-111.42 22.34l-19-162.44-1.66.061-19.008 162.439s-113.75-10.22-111.41-22.33c5.65-29.29 13.601-93.97 22.08-135.56.88-4.311 1.771-8.8 2.66-13.36 7.63-39.439 15.05-85.22 15.05-85.22" stroke="#231f20" stroke-width="21"/><path d="m641.38 501.09.05.07 62.99 85.11.05.07" stroke="#231f20" stroke-width="21"/><path d="m204.33 177.48-7.17 3.36-45.29 21.22s-8.46 4.01-20.22 12.46c-17.71 12.72-42.87 35.51-57.81 69.8l31.42 31.42 40.2-27.45" stroke="#231f20" stroke-width="21"/><path d="m244.93 200.8c-.36.01-.71.01-1.06.01-.15 0-.31 0-.46 0-20.95 0-38.7-7.04-44.75-16.77" stroke="#231f20" stroke-width="21"/><path d="m244.94 243.24c-.52.03-1.03.04-1.55.04-26.78 0-48.49-24.04-48.49-53.69" stroke="#231f20" stroke-width="21"/><path d="m131.65 214.52 13.81 73.77 17.76 94.81-56.8 270.83h135.93 2.59" stroke="#231f20" stroke-width="21"/><path d="m282.96 177.44 7.17 3.36 45.29 21.22s8.46 4.01 20.21 12.46c17.7 12.72 42.87 35.51 57.81 69.8l-31.42 31.42-40.2-27.45" stroke="#231f20" stroke-width="21"/><path d="m242.35 200.75c.51.01 1.01.02 1.52.02 20.95 0 38.7-7.04 44.76-16.77" stroke="#231f20" stroke-width="21"/><path d="m242.35 243.21c.51.01 1.03.01 1.54.01 26.79 0 48.49-24.03 48.49-53.67" stroke="#231f20" stroke-width="21"/><path d="m355.63 214.48-13.81 73.77-17.76 94.8 56.81 270.84h-138.52" stroke="#231f20" stroke-width="21"/><path d="m324.06 383.05-160.84.05" stroke="#231f20" stroke-width="19.4252"/><path d="m99.238 661.345h288.606"/></g><circle cx="114.118" cy="661.345" fill="#444041" r="13.881"/><circle cx="142.879" cy="661.345" fill="#444041" r="13.881"/><circle cx="171.64" cy="661.345" fill="#444041" r="13.881"/><circle cx="200.4" cy="661.345" fill="#444041" r="13.881"/><circle cx="229.161" cy="661.345" fill="#444041" r="13.881"/><circle cx="257.922" cy="661.345" fill="#444041" r="13.881"/><circle cx="286.683" cy="661.345" fill="#444041" r="13.881"/><circle cx="315.444" cy="661.345" fill="#444041" r="13.881"/><circle cx="344.205" cy="661.345" fill="#444041" r="13.881"/><circle cx="372.966" cy="661.345" fill="#444041" r="13.881"/><path d="m0 0h850.394v850.394h-850.394z" fill="none"/></svg>