<svg enable-background="new 0 0 850.394 850.394" height="850.394" viewBox="0 0 850.394 850.394" width="850.394" xmlns="http://www.w3.org/2000/svg"><path d="m792.53 325.88c0 23.67-37.67 45.19-99.28 61.19-13.96 3.64-29.15 6.98-45.42 10-61.89 11.51-139.29 18.34-223.39 18.34-88.78 0-170.23-7.61-233.87-20.3-16.63-3.31-32.05-6.97-46.06-10.94-55.42-15.66-88.9-36.03-88.9-58.29v-42.91c9.42 47.4 170.75 85.14 368.39 85.14 198.7 0 360.71-38.15 368.53-85.91z" fill="#f6cc4b"/><path d="m55.61 282.97c-.29-1.46-.44-2.92-.44-4.39 0-49.44 165.13-89.52 368.83-89.52 198.7 0 360.71 38.14 368.53 85.9v7.24c-7.82 47.76-169.83 85.91-368.53 85.91-197.64 0-358.97-37.74-368.39-85.14z" fill="#f6cc4b"/><g fill="none"><path d="m792.53 274.96c.2 1.2.3 2.41.3 3.62s-.1 2.42-.3 3.62c-7.82 47.76-169.83 85.91-368.53 85.91-197.64 0-358.97-37.74-368.39-85.14-.29-1.46-.44-2.92-.44-4.39 0-49.44 165.13-89.52 368.83-89.52 198.7 0 360.71 38.14 368.53 85.9z" stroke="#231f20" stroke-width="21"/><path d="m55.61 274.56v8.41 42.91c0 22.26 33.48 42.63 88.9 58.29 14.01 3.97 29.43 7.63 46.06 10.94 63.64 12.69 145.09 20.3 233.87 20.3 84.1 0 161.5-6.83 223.39-18.34 16.27-3.02 31.46-6.36 45.42-10 61.61-16 99.28-37.52 99.28-61.19v-43.68-7.24-.4" stroke="#231f20" stroke-width="21"/><path d="m190 398 1.24 96.63 225.94 72.36 277.18 88.78-.36-265.77" stroke="#231f20" stroke-width="28"/><path d="m648 398 .7 94.84-231.52 74.15-271.59 86.99-1.59-267.98" stroke="#231f20" stroke-width="28"/><path d="m0 0h850.394v850.394h-850.394z"/></g></svg>