<svg enable-background="new 0 0 850.394 850.394" height="850.394" viewBox="0 0 850.394 850.394" width="850.394" xmlns="http://www.w3.org/2000/svg"><path d="m368 368.25h113.386v113.386h-113.386z" fill="none"/><path d="m772.08 373.8-659.49 230.19-22.69-65.43c-35.36-101.95 70.37-166.15 282.95-239.88 212.57-73.73 343.79-84.77 379.15 17.19z" fill="#33a02c"/><g fill="none"><path d="m112.59 603.99-22.69-65.43c-35.36-101.95 70.37-166.15 282.95-239.88 212.57-73.73 343.79-84.77 379.15 17.19l20.08 57.93" stroke="#000" stroke-linecap="round" stroke-linejoin="round" stroke-width="19.7093"/><path d="m147.41 446.18c47.68-40.45 129.99-76.64 241.93-115.459 106.29-36.86 192.23-58.05 256.03-57.28" stroke="#000" stroke-linecap="round" stroke-linejoin="round" stroke-width="13.1395"/><path d="m107.93 490.82 34.8 100.34" stroke="#000" stroke-linecap="round" stroke-linejoin="round" stroke-width="19.7093"/><path d="m134.33 481.11 34.8 100.35" stroke="#000" stroke-linecap="round" stroke-linejoin="round" stroke-width="19.7093"/><path d="m158.62 472.94 34.81 100.35" stroke="#000" stroke-linecap="round" stroke-linejoin="round" stroke-width="19.7093"/><path d="m182.43 464.72 34.79 100.34" stroke="#000" stroke-linecap="round" stroke-linejoin="round" stroke-width="19.7093"/><path d="m206.72 456.55 34.8 100.34" stroke="#000" stroke-linecap="round" stroke-linejoin="round" stroke-width="19.7093"/><path d="m233.12 446.84 34.8 100.35" stroke="#000" stroke-linecap="round" stroke-linejoin="round" stroke-width="19.7093"/><path d="m257.42 438.68 34.8 100.35" stroke="#000" stroke-linecap="round" stroke-linejoin="round" stroke-width="19.7093"/><path d="m282.95 430.43 34.8 100.35" stroke="#000" stroke-linecap="round" stroke-linejoin="round" stroke-width="19.7093"/><path d="m307.25 422.27 34.8 100.34" stroke="#000" stroke-linecap="round" stroke-linejoin="round" stroke-width="19.7093"/><path d="m333.65 412.56 34.8 100.35" stroke="#000" stroke-linecap="round" stroke-linejoin="round" stroke-width="19.7093"/><path d="m357.95 404.39 34.8 100.35" stroke="#000" stroke-linecap="round" stroke-linejoin="round" stroke-width="19.7093"/><path d="m381.75 396.17 34.8 100.34" stroke="#000" stroke-linecap="round" stroke-linejoin="round" stroke-width="19.7093"/><path d="m406.04 388 34.8 100.34" stroke="#000" stroke-linecap="round" stroke-linejoin="round" stroke-width="19.7093"/><path d="m432.44 378.29 34.8 100.36" stroke="#000" stroke-linecap="round" stroke-linejoin="round" stroke-width="19.7093"/><path d="m456.74 370.12 34.81 100.35" stroke="#000" stroke-linecap="round" stroke-linejoin="round" stroke-width="19.7093"/><path d="m482.71 361.73 34.8 100.35" stroke="#000" stroke-linecap="round" stroke-linejoin="round" stroke-width="19.7093"/><path d="m507.01 353.56 34.8 100.35" stroke="#000" stroke-linecap="round" stroke-linejoin="round" stroke-width="19.7093"/><path d="m533.4 343.85 34.8 100.35" stroke="#000" stroke-linecap="round" stroke-linejoin="round" stroke-width="19.7093"/><path d="m557.7 335.68 34.8 100.35" stroke="#000" stroke-linecap="round" stroke-linejoin="round" stroke-width="19.7093"/><path d="m581.5 327.46 34.8 100.35" stroke="#000" stroke-linecap="round" stroke-linejoin="round" stroke-width="19.7093"/><path d="m605.8 319.29 34.8 100.35" stroke="#000" stroke-linecap="round" stroke-linejoin="round" stroke-width="19.7093"/><path d="m632.19 309.59 34.81 100.35" stroke="#000" stroke-linecap="round" stroke-linejoin="round" stroke-width="19.7093"/><path d="m656.5 301.42 34.8 100.35" stroke="#000" stroke-linecap="round" stroke-linejoin="round" stroke-width="19.7093"/><path d="m680.57 291.89 34.8 100.36" stroke="#000" stroke-linecap="round" stroke-linejoin="round" stroke-width="19.7093"/><path d="m704.87 283.72 34.8 100.36" stroke="#000" stroke-linecap="round" stroke-linejoin="round" stroke-width="19.7093"/><path d="m0 0h850.394v850.394h-850.394z"/></g></svg>