<svg enable-background="new 0 0 850.394 850.394" height="850.394" viewBox="0 0 850.394 850.394" width="850.394" xmlns="http://www.w3.org/2000/svg"><path d="m699.22 629.83.29.15c-4.14 8.88-12.899 15.01-23.04 15.01h-6.21-81.06v-5.24-54.36h110.02z" fill="#ed1e29"/><path d="m589.2 531.05h110.02v54.34h-110.02z" fill="#ed1e29"/><path d="m589.2 476.7h110.02v54.35h-110.02z" fill="#ed1e29"/><path d="m589.2 422.35h110.02v54.35h-110.02z" fill="#ed1e29"/><path d="m589.2 368h110.02v54.35h-110.02z" fill="#ed1e29"/><path d="m479.18 639.75v5.24h-110.02v-5.24-54.36h110.02z" fill="#abd150"/><path d="m369.16 531.05h110.02v54.34h-110.02z" fill="#abd150"/><path d="m369.16 476.7h110.02v54.35h-110.02z" fill="#abd150"/><path d="m369.16 422.35h110.02v54.35h-110.02z" fill="#abd150"/><path d="m589.2 639.75v5.24h-110.02v-5.24-54.36h110.02z" fill="#a8d7f4"/><path d="m479.18 531.05h110.021v54.34h-110.021z" fill="#a8d7f4"/><path d="m479.18 476.7h110.021v54.35h-110.021z" fill="#a8d7f4"/><path d="m479.18 422.35h110.021v54.35h-110.021z" fill="#a8d7f4"/><path d="m479.18 368h110.021v54.35h-110.021z" fill="#a8d7f4"/><path d="m369.16 368h110.02v54.35h-110.02z" fill="#abd150"/><path d="m369.16 639.75v5.24h-110.01v-5.24-54.36h110.01z" fill="#fbed24"/><path d="m259.15 531.05h110.01v54.34h-110.01z" fill="#fbed24"/><path d="m259.15 476.7h110.01v54.35h-110.01z" fill="#fbed24"/><path d="m259.15 422.35h110.01v54.35h-110.01z" fill="#fbed24"/><path d="m259.15 368h110.01v54.35h-110.01z" fill="#fbed24"/><path d="m259.15 639.75v5.24h-80.14-6.22c-12.08 0-22.21-8.73-24.88-20.44l1.22-.27v-38.89h110.02z" fill="#fff"/><path d="m149.13 531.05h110.02v54.34h-110.02z" fill="#fff"/><path d="m149.13 476.7h110.02v54.35h-110.02z" fill="#fff"/><path d="m149.13 422.35h110.02v54.35h-110.02z" fill="#fff"/><path d="m149.13 368h110.02v54.35h-110.02z" fill="#fff"/><path d="m551.05 726.3v-25.23-5.79h32.16v5.79 31.05c0 8.88-7.2 16.08-16.08 16.08-4.439 0-8.46-1.8-11.37-4.71s-4.71-6.931-4.71-11.37z" fill="#394ea1"/><path d="m292.67 726.3v4.99c0 8.88-7.2 16.08-16.08 16.08-4.44 0-8.46-1.8-11.37-4.71-2.9-2.91-4.7-6.93-4.7-11.37v-31.05-4.96h32.15v4.96z" fill="#394ea1"/><path d="m702.06 614.3v4.101c0 4.149-.92 8.08-2.55 11.58l-.29-.15v-44.44-54.34-54.351-54.35-54.35h-110.02-110.02-110.02-110.01-110.02v54.35 54.35 54.35 54.34 38.891l-1.22.27c-.45-1.97-.69-4.03-.69-6.149v-2.44-353.962c0-14.69 11.45-26.59 25.57-26.59h503.68c14.141 0 25.59 11.9 25.59 26.59z" fill="#fff"/><path d="m767.86 200.54v469.59c0 13.89-11.261 25.15-25.15 25.15h-159.5-32.16-258.38-32.15-153.15c-13.88 0-25.14-11.261-25.14-25.15v-469.59c0-13.89 11.26-25.15 25.14-25.15h204.71 225.11 205.52c13.89 0 25.15 11.26 25.15 25.15zm-21.55 216.93c0-7.09-5.75-12.85-12.85-12.85-7.08 0-12.84 5.76-12.84 12.85 0 7.08 5.76 12.83 12.84 12.83 7.1 0 12.85-5.75 12.85-12.83zm0 64.31c0-7.08-5.75-12.84-12.85-12.84-7.08 0-12.84 5.76-12.84 12.84 0 7.09 5.76 12.84 12.84 12.84 7.1 0 12.85-5.75 12.85-12.84zm-.27-126.7c0-7.08-5.76-12.84-12.85-12.84-7.091 0-12.841 5.76-12.841 12.84 0 7.1 5.75 12.85 12.841 12.85 7.09 0 12.85-5.75 12.85-12.85zm-43.98 263.32v-4.1-352.3c0-14.69-11.449-26.59-25.59-26.59h-503.68c-14.12 0-25.57 11.9-25.57 26.59v353.96 2.44c0 2.119.24 4.18.69 6.149 2.67 11.71 12.8 20.44 24.88 20.44h6.22 80.14 110.01 110.02 110.02 81.06 6.21c10.141 0 18.9-6.13 23.04-15.01 1.63-3.499 2.55-7.429 2.55-11.579zm-574.53-202.04c0-7.09-5.75-12.85-12.85-12.85-7.08 0-12.84 5.76-12.84 12.85 0 7.08 5.76 12.84 12.84 12.84 7.1 0 12.85-5.76 12.85-12.84zm0 64.31c0-7.08-5.75-12.83-12.85-12.83-7.08 0-12.84 5.75-12.84 12.83 0 7.09 5.76 12.84 12.84 12.84 7.1 0 12.85-5.75 12.85-12.84zm-.28-126.69c0-7.09-5.75-12.84-12.84-12.84s-12.84 5.75-12.84 12.84 5.75 12.84 12.84 12.84 12.84-5.75 12.84-12.84z" fill="#394ea1"/><path d="m733.46 404.62c7.1 0 12.85 5.76 12.85 12.85 0 7.08-5.75 12.83-12.85 12.83-7.08 0-12.84-5.75-12.84-12.83 0-7.09 5.76-12.85 12.84-12.85z" fill="#231f20"/><path d="m733.46 468.94c7.1 0 12.85 5.76 12.85 12.84 0 7.09-5.75 12.84-12.85 12.84-7.08 0-12.84-5.75-12.84-12.84 0-7.08 5.76-12.84 12.84-12.84z" fill="#231f20"/><path d="m733.19 342.24c7.09 0 12.85 5.76 12.85 12.84 0 7.1-5.76 12.85-12.85 12.85-7.091 0-12.841-5.75-12.841-12.85.001-7.08 5.751-12.84 12.841-12.84z" fill="#231f20"/><path d="m114.68 403.51c7.1 0 12.85 5.76 12.85 12.85 0 7.08-5.75 12.84-12.85 12.84-7.08 0-12.84-5.76-12.84-12.84 0-7.09 5.76-12.85 12.84-12.85z" fill="#231f20"/><path d="m114.68 467.84c7.1 0 12.85 5.75 12.85 12.83 0 7.09-5.75 12.84-12.85 12.84-7.08 0-12.84-5.75-12.84-12.84 0-7.08 5.76-12.83 12.84-12.83z" fill="#231f20"/><circle cx="114.41" cy="353.98" fill="#231f20" r="12.84"/><g fill="none"><path d="m537.19 175.39h205.52c13.89 0 25.15 11.26 25.15 25.15v469.59c0 13.89-11.261 25.15-25.15 25.15h-159.5-32.16-258.38-32.15-153.15c-13.88 0-25.14-11.261-25.14-25.15v-469.59c0-13.89 11.26-25.15 25.14-25.15h204.71z" stroke="#231f20" stroke-width="21"/><path d="m179.01 644.99h-6.22c-12.08 0-22.21-8.73-24.88-20.44-.45-1.97-.69-4.03-.69-6.149v-2.44" stroke="#231f20" stroke-width="21"/><path d="m670.26 644.99h-81.06-110.02-110.02-110.01-80.14" stroke="#231f20" stroke-width="21"/><path d="m702.06 614.3v4.101c0 4.149-.92 8.08-2.55 11.58-4.14 8.88-12.899 15.01-23.04 15.01h-6.21" stroke="#231f20" stroke-width="21"/><path d="m147.22 615.96v-353.96c0-14.69 11.45-26.59 25.57-26.59h503.68c14.141 0 25.59 11.9 25.59 26.59v352.3" stroke="#231f20" stroke-width="21"/><path d="m312.08 171.28v-27.72c0-19.6 15.89-35.49 35.49-35.49h154.14c19.59 0 35.48 15.89 35.48 35.49v27.72" stroke="#231f20" stroke-width="28"/><path d="m293.78 726.3h257.27 5.55" stroke="#231f20" stroke-width="21"/><path d="m292.67 700.24v26.06 4.99c0 8.88-7.2 16.08-16.08 16.08-4.44 0-8.46-1.8-11.37-4.71-2.9-2.91-4.7-6.93-4.7-11.37v-31.05" stroke="#231f20" stroke-width="21"/><path d="m583.21 701.07v31.05c0 8.88-7.2 16.08-16.08 16.08-4.439 0-8.46-1.8-11.37-4.71s-4.71-6.931-4.71-11.37v-5.82-25.23" stroke="#231f20" stroke-width="21"/><path d="m699.22 629.83v-44.44-54.34-54.35-54.35-54.35h-110.02-110.02-110.02-110.01-110.02v54.35 54.35 54.35 54.34 38.89" stroke="#231f20" stroke-width="14"/><path d="m149.13 422.35h110.02 110.01 110.02 110.02 110.02" stroke="#231f20" stroke-width="14"/><path d="m149.13 476.7h110.02 110.01 110.02 110.02 110.02" stroke="#231f20" stroke-width="14"/><path d="m149.13 531.05h110.02 110.01 110.02 110.02 110.02" stroke="#231f20" stroke-width="14"/><path d="m149.13 585.39h110.02 110.01 110.02 110.02 110.02" stroke="#231f20" stroke-width="14"/><path d="m589.2 639.75v-54.36-54.34-54.35-54.35-54.35" stroke="#231f20" stroke-width="14"/><path d="m479.18 639.75v-54.36-54.34-54.35-54.35-54.35" stroke="#231f20" stroke-width="14"/><path d="m369.16 639.75v-54.36-54.34-54.35-54.35-54.35" stroke="#231f20" stroke-width="14"/><path d="m259.15 639.75v-54.36-54.34-54.35-54.35-54.35" stroke="#231f20" stroke-width="14"/><path d="m0 0h850.394v850.394h-850.394z"/></g></svg>