<svg enable-background="new 0 0 850.394 850.394" height="850.394" viewBox="0 0 850.394 850.394" width="850.394" xmlns="http://www.w3.org/2000/svg"><path d="m747.88 482.83v.01h-25.89-619.12c-12.61 0-25.52-2.01-22.84-22.84l37.6-110.11c3.27-15.88 10.22-22.84 22.84-22.84h570.4c12.26.21 19.04 7.2 22.25 22.84l37.6 110.1c2.69 20.83-10.23 22.84-22.84 22.84z" fill="#c8c8c8"/><path d="m770.5 482.84v61.78h-689.97v-61.78h22.34 619.12 25.89z" fill="#c8c8c8"/><g fill="none"><path d="m102.87 482.84c-12.61 0-25.52-2.01-22.84-22.84l37.6-110.11c3.27-15.88 10.22-22.84 22.84-22.84h570.4.37" stroke="#231f20" stroke-width="21"/><path d="m710.52 482.83h37.36c12.61 0 25.53-2.01 22.84-22.84l-37.6-110.1c-3.21-15.64-9.99-22.63-22.25-22.84-.19-.01-.39-.01-.59-.01h-19.9" stroke="#231f20" stroke-width="21"/><path d="m146.85 437.68h557.34" stroke="#231f20" stroke-dasharray="24.1739" stroke-width="24.1739"/><path d="m169.68 396.38h511.84" stroke="#231f20" stroke-dasharray="24.1739" stroke-width="24.1739"/><path d="m188.31 357.1h474.41" stroke="#231f20" stroke-dasharray="24.1739" stroke-width="24.1739"/><path d="m278.28 469.41h288.08" stroke="#231f20" stroke-width="21"/><path d="m747.88 482.84h22.62v61.78h-689.97v-61.78h22.34 619.12z" stroke="#231f20" stroke-width="21"/><path d="m0 0h850.394v850.394h-850.394z"/></g></svg>