<svg enable-background="new 0 0 850.394 850.394" height="850.394" viewBox="0 0 850.394 850.394" width="850.394" xmlns="http://www.w3.org/2000/svg"><path d="m760.37 335.37-77.41 326.49h-14.89l9.92-326.49z" fill="#a9d7f3"/><path d="m93.47 275.83h206.4 378.12v59.54h-502.15l-77.41 326.49h569.64v.01h-574.61v-386.04z" fill="#a9d7f3"/><path d="m677.99 335.37-9.92 326.49h-569.64l77.41-326.49z" fill="#a9d7f3"/><path d="m299.87 274.79v1.04h-206.4v-73.44h182.6z" fill="#a9d7f3"/><g fill="none"><path d="m668.07 661.87h-574.61v-386.04h.01 206.4 378.12v59.54" stroke="#231f20" stroke-width="21"/><path d="m677.99 335.37h82.38l-77.41 326.49h-14.89-569.64l77.41-326.49z" stroke="#231f20" stroke-width="21"/><path d="m93.47 281.78v-5.95-73.44h182.6l23.8 72.4" stroke="#231f20" stroke-width="21"/><path d="m0 0h850.394v850.394h-850.394z"/><path d="m773.028 111.683-51.829 155.185-147.432-71.22" stroke="#231f20" stroke-width="21"/><path d="m376.372 269.913c-8.372-101.913 73.628-195.913 164.804-194.635 90.483 1.268 169.487 73.925 169.487 179.46" stroke="#231f20" stroke-width="21"/></g></svg>