<svg enable-background="new 0 0 850.394 850.394" height="850.394" viewBox="0 0 850.394 850.394" width="850.394" xmlns="http://www.w3.org/2000/svg"><path d="m677.75 252.77h-486.78-1-1.89v-21.27-1.42h15.83 36.94 72.82 36.94 35.88 145.63 42.21 40.1 64.38v2.64 20.05z" fill="#a9d7f3"/><path d="m188.08 252.77h1.89 1 486.78 1.06v248.11 2h-490.73z" fill="#fff"/><path d="m678.81 502.88v-2-248.11-20.05-2.64h19.53v-32.72h2.01v305.52h-.21z" fill="#a9d7f3"/><path d="m154.31 232.5v270.38h33.77 490.73 21.33.21v26.14h-549.69v-298.94h3.65z" fill="#7a7878"/><path d="m188.08 252.77v250.11h-33.77v-270.38-2.42h33.77v1.42z" fill="#a9d7f3"/><path d="m600.83 736.12v29.47l-123.45.37h-229.33v-29.48c70.07-10.36 90.25-36.891 90.25-36.891v-84.77-.08h172.3v84.5c0 .001 20.16 26.521 90.23 36.881z" fill="#c8c8c8"/><path d="m700.74 554.75c9.68 0 17.52 7.85 17.52 17.51 0 9.681-7.84 17.53-17.52 17.53-9.681 0-17.521-7.85-17.521-17.53.001-9.66 7.841-17.51 17.521-17.51z" fill="#231f20"/><path d="m698.34 197.36v32.72h-19.53-64.38v-2.06-24.49-3.53h28.04 55.33v-2.64z" fill="#fff"/><path d="m684.9 184.35 7.28 10.38h-6.4l-4-6.11-4.03 6.11h-6.1l7.09-10.16-6.78-9.56h6.36l3.46 5.42 3.67-5.42h6.1z" fill="#231f20"/><path d="m685.78 194.73h6.399l-7.279-10.38 6.649-9.34h-6.1l-3.67 5.42-3.46-5.42h-6.36l6.78 9.56-7.09 10.16h6.1l4.03-6.11zm12.02-27.44v30.07 2.64h-55.33v-4.22h18.86v-23.22-5.27z" fill="#ed1d31"/><path d="m510.6 614.74h-172.3-208.6c-23.68 0-42.88-19.19-42.88-42.88v-428.63c0-23.68 19.2-42.88 42.88-42.88h590c23.68 0 42.88 19.2 42.88 42.88v428.63c0 23.689-19.2 42.88-42.88 42.88zm168.12-42.2c0-9.68-7.84-17.51-17.52-17.51-9.69 0-17.521 7.83-17.521 17.51s7.83 17.52 17.521 17.52c9.68 0 17.52-7.84 17.52-17.52zm4.5-.28c0 9.681 7.84 17.53 17.521 17.53 9.68 0 17.52-7.85 17.52-17.53 0-9.66-7.84-17.51-17.52-17.51-9.681 0-17.521 7.85-17.521 17.51zm17.13-69.38v-305.52-36.49h-549.69v39.13 30.08 298.94h549.69z" fill="#c8c8c8"/><path d="m661.2 555.03c9.68 0 17.52 7.83 17.52 17.51s-7.84 17.52-17.52 17.52c-9.69 0-17.521-7.84-17.521-17.52s7.831-17.51 17.521-17.51z" fill="#231f20"/><path d="m642.47 172.56h18.86v23.22h-18.86z" fill="#fff"/><path d="m642.47 172.56v23.22 4.22h-28.04-40.1-42.21-145.63-35.88-36.94-72.82-36.94-50.66v-32.71h508.08v5.27z" fill="#a9d7f3"/><path d="m614.43 228.02v2.06h-40.1v-1.06-26.49-2.53h40.1v3.53z" fill="#fff"/><path d="m574.33 229.02v1.06h-42.21v-2.11-26.5-1.47h42.21v2.53z" fill="#fff"/><path d="m532.12 227.97v2.11h-145.63v-2.12-26.49-1.47h145.63v1.47z" fill="#fff"/><path d="m386.49 227.96v2.12h-35.88v-2.64-25.5-1.94h35.88v1.47z" fill="#fff"/><path d="m350.61 227.44v2.64h-36.94v-1-27.5-1.58h36.94v1.94z" fill="#fff"/><path d="m313.67 229.08v1h-72.82v-2.06-26.49-1.53h72.82v1.58z" fill="#fff"/><path d="m240.85 228.02v2.06h-36.94v-.42-26.49-3.17h36.94v1.53z" fill="#fff"/><path d="m150.66 230.08v-30.08h2.59 50.66v3.17 26.49.42h-15.83-33.77z" fill="#fff"/><path d="m700.35 160.87v36.49h-2.01-.54v-30.07h-36.47-508.08v32.71h-2.59v-39.13z" fill="#fff"/><g fill="none"><path d="m338.3 614.74h-208.6c-23.68 0-42.88-19.19-42.88-42.88v-428.63c0-23.68 19.2-42.88 42.88-42.88h590c23.68 0 42.88 19.2 42.88 42.88v428.63c0 23.689-19.2 42.88-42.88 42.88h-209.1z" stroke="#231f20" stroke-width="21"/><path d="m700.35 502.88v26.14h-549.69v-298.94-30.08-39.13h549.69v36.49z" stroke="#231f20" stroke-width="7"/><path d="m510.6 614.46v.28 84.5s20.16 26.52 90.23 36.88v29.47l-123.45.37h-229.33v-29.48c70.07-10.36 90.25-36.891 90.25-36.891v-84.77" stroke="#231f20" stroke-width="21"/><path d="m697.8 197.36v2.64h-55.33-28.04-40.1-42.21-145.63-35.88-36.94-72.82-36.94-50.66v-32.71h508.08 36.47z" stroke="#231f20" stroke-width="7"/><path d="m698.34 197.36v32.72h-19.53-64.38-40.1-42.21-145.63-35.88-36.94-72.82-36.94-15.83-33.77-3.65-2.15v-32.72" stroke="#231f20" stroke-width="7"/><path d="m154.31 502.88v-270.38" stroke="#231f20" stroke-width="7"/><path d="m188.08 231.5v21.27 250.11" stroke="#231f20" stroke-width="7"/><path d="m154.31 502.88h33.77 490.73 21.33" stroke="#231f20" stroke-width="7"/><path d="m678.81 232.72v20.05 248.11" stroke="#231f20" stroke-width="6.3319"/><path d="m203.91 203.17v26.49" stroke="#231f20" stroke-width="7"/><path d="m240.85 201.53v26.49" stroke="#231f20" stroke-width="7"/><path d="m532.12 201.47v26.5" stroke="#231f20" stroke-width="7"/><path d="m574.33 202.53v26.49" stroke="#231f20" stroke-width="7"/><path d="m614.43 203.53v24.49" stroke="#231f20" stroke-width="7"/><path d="m313.67 201.58v27.5" stroke="#231f20" stroke-width="7"/><path d="m350.61 201.94v25.5" stroke="#231f20" stroke-width="7"/><path d="m386.49 201.47v26.49" stroke="#231f20" stroke-width="7"/><path d="m190.97 252.77h486.78" stroke="#231f20" stroke-width="7"/><path d="m519.5 382.11-43.78-45.76" stroke="#231f20" stroke-width="12.6639"/><path d="m504.83 338.18-29.45-2.07.8 29.53" stroke="#231f20" stroke-width="12.6639"/><path d="m642.47 172.56h18.86v23.22h-18.86z" stroke="#231f20" stroke-width="7"/><path d="m614.43 188.39h20.06" stroke="#231f20" stroke-width="12.6639"/><path d="m0 0h850.394v850.394h-850.394z"/></g></svg>