<svg enable-background="new 0 0 850.394 850.394" height="850.394" viewBox="0 0 850.394 850.394" width="850.394" xmlns="http://www.w3.org/2000/svg"><path d="m239.13 287.1v.1h-20.61l-.26-22.7h20.87z" fill="#c8c8c8"/><path d="m219.04 332.69h20.09v22.71h-19.23-.6z" fill="#c8c8c8"/><path d="m218 242 .26 22.5h-18.77v-22.78h18.51z" fill="#c8c8c8"/><path d="m218.26 264.5.26 22.7h-19.03v-22.7z" fill="#c8c8c8"/><path d="m239.13 309.8v.12h-20.35l-.26-22.72h20.61z" fill="#c8c8c8"/><path d="m219.04 332.69.26 22.71h-19.21-.6v-22.71z" fill="#c8c8c8"/><path d="m218.78 309.92.26 22.77h-19.55v-22.77z" fill="#c8c8c8"/><path d="m239.13 264.39v.11h-20.87l-.26-22.5v-.28h21.13z" fill="#c8c8c8"/><path d="m239.13 332.58v.11h-20.09l-.26-22.77h20.35z" fill="#c8c8c8"/><path d="m218.52 287.2.26 22.72h-19.29v-22.72z" fill="#c8c8c8"/><path d="m132.45 241.72c-8.79 1.67-15.46 9.8-15.46 19.58v3.2 215.66c0 4.5 1.41 8.649 3.79 11.99v2.52h2.14c3.37 3.35 7.9 5.4 12.88 5.4h186.92c5.04 0 9.61-2.101 12.99-5.511 3.59-3.619 5.83-8.729 5.83-14.399v-8.3-22.79-22.71-22.71-22.77-22.71-25.59-22.78-22.7-22.71-3.09c0-10.99-8.43-19.9-18.82-19.9h-4.87-19.83-19.85-19.79-19.25-39.64-19.84-19.84-24.01c-1.14 0-2.26.11-3.35.32zm244.94-29.02v426.04c0 10.979-8.92 19.899-19.91 19.899h-255.15c-10.99 0-19.91-8.92-19.91-19.899v-426.04c0-11 8.92-19.91 19.91-19.91h255.15c10.99 0 19.91 8.91 19.91 19.91zm-27.51 390.35c0-11.33-9.17-20.49-20.49-20.49-11.31 0-20.47 9.16-20.47 20.49 0 11.29 9.16 20.48 20.47 20.48 11.32 0 20.49-9.19 20.49-20.48z" fill="#797878"/><path d="m520.38 238.58c-8.79 1.67-15.46 9.81-15.46 19.59v3.19 215.67c0 4.5 1.41 8.649 3.79 11.989v2.521h2.14c3.37 3.35 7.9 5.4 12.891 5.4h186.92c5.03 0 9.609-2.101 12.979-5.511 3.601-3.62 5.841-8.729 5.841-14.399v-8.3-22.8-22.7-22.71-22.78-22.71-25.58-22.78-22.7-22.72-3.08c0-10.99-8.44-19.91-18.82-19.91h-4.87-19.84-19.84-19.801-19.24-19.83-19.82-19.84-19.83-24.01c-1.15 0-2.27.11-3.36.32zm244.94-29.01v426.05c0 10.979-8.91 19.89-19.91 19.89h-255.14c-11 0-19.909-8.91-19.909-19.89v-426.05c0-11 8.909-19.91 19.909-19.91h255.14c11 0 19.91 8.91 19.91 19.91zm-27.51 390.35c0-11.33-9.17-20.49-20.479-20.49-11.311 0-20.47 9.16-20.47 20.49 0 11.3 9.159 20.48 20.47 20.48 11.309 0 20.479-9.18 20.479-20.48z" fill="#797878"/><path d="m717.33 579.43c11.31 0 20.479 9.16 20.479 20.49 0 11.3-9.17 20.48-20.479 20.48-11.311 0-20.47-9.181-20.47-20.48 0-11.33 9.16-20.49 20.47-20.49z" fill="#231f20"/><g fill="#c8c8c8"><path d="m729.48 468.73v8.3c0 5.67-2.24 10.779-5.841 14.399h-17.25v-22.699z"/><path d="m706.39 445.93h23.091v22.801h-23.091z"/><path d="m706.39 423.23h23.091v22.7h-23.091z"/><path d="m706.39 400.52h23.091v22.71h-23.091z"/><path d="m706.39 377.74h23.091v22.78h-23.091z"/><path d="m706.39 355.03h23.091v22.71h-23.091z"/><path d="m729.48 329.45v25.58h-23.09-.6v-2.87-22.71z"/><path d="m705.79 306.67h23.69v22.78h-23.69z"/><path d="m705.79 283.97h23.69v22.7h-23.69z"/><path d="m705.79 261.25h23.69v22.72h-23.69z"/><path d="m729.48 258.17v3.08h-23.69v-22.99h4.87c10.38 0 18.82 8.92 18.82 19.91z"/><path d="m686.55 468.73h19.84v22.699h-19.84z"/><path d="m686.55 445.93h19.84v22.801h-19.84z"/><path d="m686.55 423.23h19.84v22.7h-19.84z"/><path d="m686.55 400.52h19.84v22.71h-19.84z"/><path d="m686.55 377.74h19.84v22.78h-19.84z"/><path d="m706.39 355.03v22.71h-19.84v-22.71h19.24z"/><path d="m705.79 352.16v2.87h-19.24-.6v-2.87-22.71h19.84z"/><path d="m685.95 306.67h19.84v22.78h-19.84z"/><path d="m685.95 283.97h19.84v22.7h-19.84z"/><path d="m685.95 261.25h19.84v22.72h-19.84z"/><path d="m685.95 238.26h19.84v22.99h-19.84z"/><path d="m666.72 468.73h19.83v22.699h-19.83z"/><path d="m666.72 445.93h19.83v22.801h-19.83z"/><path d="m666.72 423.23h19.83v22.7h-19.83z"/><path d="m686.55 400.52v22.71h-19.83l-.01-22.71z"/><path d="m666.71 377.74h19.84v22.78h-19.84z"/><path d="m686.55 355.03v22.71h-19.84v-22.71h19.24z"/><path d="m685.95 352.16v2.87h-19.24-.59v-2.87-22.71h19.83z"/><path d="m666.12 306.67h19.83v22.78h-19.83z"/><path d="m685.95 283.97v22.7h-19.83l-.01-22.7z"/><path d="m666.11 261.25h19.84v22.72h-19.84z"/><path d="m666.11 238.26h19.84v22.99h-19.84z"/><path d="m646.92 468.73h19.8v22.699h-19.8z"/><path d="m646.92 445.93h19.8v22.801h-19.8z"/><path d="m646.92 423.23h19.8v22.7h-19.8z"/><path d="m666.72 423.23h-19.8v-22.71h19.79z"/><path d="m646.92 377.74h19.79v22.78h-19.79z"/><path d="m666.71 355.03v22.71h-19.79v-22.71h19.2z"/><path d="m666.12 352.16v2.87h-19.2-.61v-2.87-22.71h19.81z"/><path d="m646.31 306.67h19.811v22.78h-19.811z"/><path d="m666.11 283.97.01 22.7h-19.81v-22.7z"/><path d="m646.31 261.25h19.801v22.72h-19.801z"/><path d="m646.31 238.26h19.801v22.99h-19.801z"/><path d="m646.92 468.73v22.7h-19.25v-22.6-.1z"/><path d="m646.92 445.93v22.8h-19.25v-22.69-.11z"/><path d="m646.92 423.23v22.7h-19.25v-22.59-.11z"/><path d="m646.92 400.52v22.71h-19.25v-22.6-.11z"/><path d="m646.92 377.74v22.78h-19.25v-22.67-.11z"/><path d="m627.67 377.74h-.6v-22.71h19.24.61v22.71z"/><path d="m646.31 352.16v2.87h-19.24v-2.77-22.7-.11h19.24z"/><path d="m646.31 306.67v22.78h-19.24v-22.67-.11z"/><path d="m646.31 283.97v22.7h-19.24v-22.61-.09z"/><path d="m646.31 261.25v22.72h-19.24v-22.61-.11z"/><path d="m646.31 238.26v22.99h-19.24v-22.67-.32z"/><path d="m627.67 491.43v.11h-19.84v-22.71h19.24v22.6z"/><path d="m627.07 468.73v.1h-19.24v-22.79h19.24z"/><path d="m627.07 445.93v.11h-19.24v-22.7h19.24z"/><path d="m627.07 423.23v.11h-19.24v-22.71h19.24z"/><path d="m627.07 400.52v.11h-19.24v-22.78h19.24z"/><path d="m627.07 377.74v.11h-19.24v-22.71-2.88h19.24v2.77z"/><path d="m627.07 329.56v22.7h-19.24-.59v-22.7z"/><path d="m627.07 329.45v.11h-19.83v-22.78h19.83z"/><path d="m627.07 306.67v.11h-19.83v-22.72h19.83z"/><path d="m627.07 283.97v.09h-19.83v-22.7h19.83z"/><path d="m627.07 261.25v.11h-19.83v-22.78h19.83z"/><path d="m588.03 468.83h19.8v22.71h-19.8z"/><path d="m588.03 446.04h19.8v22.79h-19.8z"/><path d="m588.03 423.34h19.8v22.7h-19.8z"/><path d="m588.03 400.63h19.8v22.71h-19.8z"/><path d="m588.03 377.85h19.8v22.78h-19.8z"/><path d="m607.83 355.14v22.71h-19.8v-22.71-2.88h19.21.59z"/><path d="m607.24 329.56v22.7h-19.21-.61v-22.7z"/><path d="m587.42 306.78h19.82v22.78h-19.82z"/><path d="m587.42 284.06h19.82v22.72h-19.82z"/><path d="m587.42 261.36h19.82v22.7h-19.82z"/><path d="m587.42 238.58h19.82v22.78h-19.82z"/><path d="m568.19 468.83h19.84v22.71h-19.84z"/><path d="m568.19 446.04h19.84v22.79h-19.84z"/><path d="m568.19 423.34h19.84v22.7h-19.84z"/><path d="m568.19 400.63h19.84v22.71h-19.84z"/><path d="m568.19 377.85h19.84v22.78h-19.84z"/><path d="m588.03 355.14v22.71h-19.84v-22.71-2.88h19.23.61z"/><path d="m587.42 329.56v22.7h-19.23-.61v-22.7z"/><path d="m567.58 306.78h19.84v22.78h-19.84z"/><path d="m567.58 284.06h19.84v22.72h-19.84z"/><path d="m567.58 261.36h19.84v22.7h-19.84z"/><path d="m567.58 238.58h19.84v22.78h-19.84z"/><path d="m548.35 468.83h19.841v22.71h-19.841z"/><path d="m548.35 446.04h19.841v22.79h-19.841z"/><path d="m548.35 423.34h19.841v22.7h-19.841z"/><path d="m548.35 400.63h19.841v22.71h-19.841z"/><path d="m548.35 377.85h19.841v22.78h-19.841z"/><path d="m568.19 355.14v22.71h-19.84v-22.71-2.88h19.23.61z"/><path d="m567.58 329.56v22.7h-19.23-.6v-22.7z"/><path d="m547.75 306.78h19.83v22.78h-19.83z"/><path d="m547.75 284.06h19.83v22.72h-19.83z"/><path d="m547.75 261.36h19.83v22.7h-19.83z"/><path d="m547.75 238.58h19.83v22.78h-19.83z"/><path d="m528.54 468.83h19.81v22.71h-19.81z"/><path d="m528.54 446.04h19.81v22.79h-19.81z"/><path d="m528.54 423.34h19.81v22.7h-19.81z"/><path d="m528.54 400.63h19.81v22.71h-19.81z"/><path d="m528.54 377.85h19.81v22.78h-19.81z"/><path d="m548.35 355.14v22.71h-19.81v-22.71-2.88h19.21.6z"/><path d="m547.75 329.56v22.7h-19.21-.59v-22.7z"/><path d="m527.95 306.78h19.8v22.78h-19.8z"/><path d="m527.95 284.06h19.8v22.72h-19.8z"/><path d="m527.95 261.36h19.8v22.7h-19.8z"/><path d="m527.95 238.58h19.8v22.78h-19.8z"/><path d="m528.54 468.83v22.71h-17.69c-.77-.771-1.489-1.62-2.14-2.521v-20.189z"/><path d="m508.71 446.04h19.83v22.79h-19.83z"/><path d="m508.71 423.34h19.83v22.7h-19.83z"/><path d="m508.71 400.63h19.83v22.71h-19.83z"/><path d="m508.71 377.85h19.83v22.78h-19.83z"/><path d="m528.54 355.14v22.71h-19.83v-22.71-2.88h19.24.59z"/><path d="m527.95 329.56v22.7h-19.24-.6v-22.7z"/><path d="m508.11 306.78h19.84v22.78h-19.84z"/><path d="m508.11 284.06h19.84v22.72h-19.84z"/><path d="m508.11 284.06v22.72 22.78 22.7h.6v2.88 22.71 22.78 22.71 22.7 22.79 20.189c-2.38-3.34-3.79-7.489-3.79-11.989v-215.67h3.19 19.84v22.7z"/><path d="m527.95 238.58v22.78h-19.84-3.19v-3.19c0-9.78 6.67-17.92 15.46-19.59z"/></g><path d="m329.39 582.56c11.32 0 20.49 9.16 20.49 20.49 0 11.29-9.17 20.48-20.49 20.48-11.31 0-20.47-9.19-20.47-20.48 0-11.33 9.16-20.49 20.47-20.49z" fill="#231f20"/><path d="m341.54 471.86v8.3c0 5.67-2.24 10.78-5.83 14.399h-17.26v-22.699z" fill="#c8c8c8"/><path d="m318.45 449.07h23.09v22.79h-23.09z" fill="#c8c8c8"/><path d="m318.45 426.36h23.09v22.71h-23.09z" fill="#c8c8c8"/><path d="m318.45 403.65h23.09v22.71h-23.09z" fill="#c8c8c8"/><path d="m318.45 380.88h23.09v22.77h-23.09z" fill="#c8c8c8"/><path d="m318.45 358.17h23.09v22.71h-23.09z" fill="#c8c8c8"/><path d="m341.54 332.58v25.59h-23.09-.6v-2.88-22.71z" fill="#c8c8c8"/><path d="m317.85 309.8h23.69v22.78h-23.69z" fill="#c8c8c8"/><path d="m317.85 287.1h23.69v22.7h-23.69z" fill="#c8c8c8"/><path d="m317.85 264.39h23.69v22.71h-23.69z" fill="#c8c8c8"/><path d="m341.54 261.3v3.09h-23.69v-22.99h4.87c10.39 0 18.82 8.91 18.82 19.9z" fill="#c8c8c8"/><path d="m298.61 471.86h19.84v22.699h-19.84z" fill="#c8c8c8"/><path d="m298.61 449.07h19.84v22.79h-19.84z" fill="#c8c8c8"/><path d="m298.61 426.36h19.84v22.71h-19.84z" fill="#c8c8c8"/><path d="m298.61 403.65h19.84v22.71h-19.84z" fill="#c8c8c8"/><path d="m298.61 380.88h19.84v22.77h-19.84z" fill="#c8c8c8"/><path d="m318.45 358.17v22.71h-19.84v-22.71h19.24z" fill="#c8c8c8"/><path d="m317.85 355.29v2.88h-19.24-.59v-2.88-22.71h19.83z" fill="#c8c8c8"/><path d="m298.02 309.8h19.83v22.78h-19.83z" fill="#c8c8c8"/><path d="m298.02 287.1h19.83v22.7h-19.83z" fill="#c8c8c8"/><path d="m298.02 264.39h19.83v22.71h-19.83z" fill="#c8c8c8"/><path d="m298.02 241.4h19.83v22.99h-19.83z" fill="#c8c8c8"/><path d="m278.78 471.86h19.83v22.699h-19.83z" fill="#c8c8c8"/><path d="m278.78 449.07h19.83v22.79h-19.83z" fill="#c8c8c8"/><path d="m298.61 426.36v22.71h-19.83l-.01-22.71z" fill="#c8c8c8"/><path d="m278.77 403.65h19.84v22.71h-19.84z" fill="#c8c8c8"/><path d="m278.77 380.88h19.84v22.77h-19.84z" fill="#c8c8c8"/><path d="m298.61 358.17v22.71h-19.84v-22.71h19.25z" fill="#c8c8c8"/><path d="m298.02 355.29v2.88h-19.25-.58v-2.88-22.71h19.83z" fill="#c8c8c8"/><path d="m298.02 309.8v22.78h-19.83l-.01-22.78z" fill="#c8c8c8"/><path d="m278.18 287.1h19.84v22.7h-19.84z" fill="#c8c8c8"/><path d="m298.02 264.39v22.71h-19.84l-.01-22.71z" fill="#c8c8c8"/><path d="m278.17 241.4h19.85v22.99h-19.85z" fill="#c8c8c8"/><path d="m258.98 471.86h19.8v22.699h-19.8z" fill="#c8c8c8"/><path d="m258.98 449.07h19.8v22.79h-19.8z" fill="#c8c8c8"/><path d="m278.77 426.36.01 22.71h-19.8v-22.71z" fill="#c8c8c8"/><path d="m258.98 403.65h19.79v22.71h-19.79z" fill="#c8c8c8"/><path d="m258.98 380.88h19.79v22.77h-19.79z" fill="#c8c8c8"/><path d="m278.77 358.17v22.71h-19.79v-22.71h19.21z" fill="#c8c8c8"/><path d="m278.19 355.29v2.88h-19.21-.6v-2.88-22.71h19.81z" fill="#c8c8c8"/><path d="m278.18 309.8.01 22.78h-19.81v-22.78z" fill="#c8c8c8"/><path d="m258.38 287.1h19.8v22.7h-19.8z" fill="#c8c8c8"/><path d="m278.17 264.39.01 22.71h-19.8v-22.71z" fill="#c8c8c8"/><path d="m258.38 241.4h19.79v22.99h-19.79z" fill="#c8c8c8"/><path d="m258.98 471.86v22.7h-19.25v-22.59-.11z" fill="#c8c8c8"/><path d="m258.98 449.07v22.79h-19.25v-22.68-.11z" fill="#c8c8c8"/><path d="m258.98 426.36v22.71h-19.25v-22.6-.11z" fill="#c8c8c8"/><path d="m258.98 403.65v22.71h-19.25v-22.6-.11z" fill="#c8c8c8"/><path d="m258.98 380.88v22.77h-19.25v-22.67-.1z" fill="#c8c8c8"/><path d="m239.73 380.88h-.6v-22.71h19.25.6v22.71z" fill="#c8c8c8"/><path d="m258.38 355.29v2.88h-19.25v-2.77-22.71-.11h19.25z" fill="#c8c8c8"/><path d="m258.38 309.8v22.78h-19.25v-22.66-.12z" fill="#c8c8c8"/><path d="m258.38 287.1v22.7h-19.25v-22.6-.1z" fill="#c8c8c8"/><path d="m258.38 264.39v22.71h-19.25v-22.6-.11z" fill="#c8c8c8"/><path d="m258.38 241.4v22.99h-19.25v-22.67-.32z" fill="#c8c8c8"/><path d="m239.73 494.56v.11h-19.83v-22.7h19.23v22.59z" fill="#c8c8c8"/><path d="m239.13 471.86v.11h-19.23v-22.79h19.23z" fill="#c8c8c8"/><path d="m239.13 449.07v.11h-19.23v-22.71h19.23z" fill="#c8c8c8"/><path d="m239.13 426.36v.11h-19.23v-22.71h19.23z" fill="#c8c8c8"/><path d="m239.13 403.65v.11h-19.23v-22.78h19.23z" fill="#c8c8c8"/><path d="m239.13 380.88v.1h-19.23v-22.71-2.87h19.23v2.77z" fill="#c8c8c8"/><path d="m200.09 471.97h19.81v22.7h-19.81z" fill="#c8c8c8"/><path d="m200.09 449.18h19.81v22.79h-19.81z" fill="#c8c8c8"/><path d="m200.09 426.47h19.81v22.71h-19.81z" fill="#c8c8c8"/><path d="m200.09 403.76h19.81v22.71h-19.81z" fill="#c8c8c8"/><path d="m200.09 380.98h19.81v22.78h-19.81z" fill="#c8c8c8"/><path d="m219.9 358.27v22.71h-19.81v-22.71-2.87h19.21.6z" fill="#c8c8c8"/><path d="m180.25 471.97h19.84v22.7h-19.84z" fill="#c8c8c8"/><path d="m180.25 449.18h19.84v22.79h-19.84z" fill="#c8c8c8"/><path d="m180.25 426.47h19.84v22.71h-19.84z" fill="#c8c8c8"/><path d="m180.25 403.76h19.84v22.71h-19.84z" fill="#c8c8c8"/><path d="m180.25 380.98h19.84v22.78h-19.84z" fill="#c8c8c8"/><path d="m200.09 358.27v22.71h-19.84v-22.71-2.87h19.24.6z" fill="#c8c8c8"/><path d="m199.49 332.69v22.71h-19.24-.6v-22.71z" fill="#c8c8c8"/><path d="m179.65 309.92h19.84v22.77h-19.84z" fill="#c8c8c8"/><path d="m179.65 287.2h19.84v22.72h-19.84z" fill="#c8c8c8"/><path d="m179.65 264.5h19.84v22.7h-19.84z" fill="#c8c8c8"/><path d="m179.65 241.72h19.84v22.78h-19.84z" fill="#c8c8c8"/><path d="m160.42 471.97h19.83v22.7h-19.83z" fill="#c8c8c8"/><path d="m160.42 449.18h19.83v22.79h-19.83z" fill="#c8c8c8"/><path d="m160.42 426.47h19.83v22.71h-19.83z" fill="#c8c8c8"/><path d="m160.42 403.76h19.83v22.71h-19.83z" fill="#c8c8c8"/><path d="m160.42 380.98h19.83v22.78h-19.83z" fill="#c8c8c8"/><path d="m180.25 358.27v22.71h-19.83v-22.71-2.87h19.23.6z" fill="#c8c8c8"/><path d="m179.65 332.69v22.71h-19.23-.61v-22.71z" fill="#c8c8c8"/><path d="m159.81 309.92h19.84v22.77h-19.84z" fill="#c8c8c8"/><path d="m159.81 287.2h19.84v22.72h-19.84z" fill="#c8c8c8"/><path d="m159.81 264.5h19.84v22.7h-19.84z" fill="#c8c8c8"/><path d="m159.81 241.72h19.84v22.78h-19.84z" fill="#c8c8c8"/><path d="m140.61 471.97h19.81v22.7h-19.81z" fill="#c8c8c8"/><path d="m140.61 449.18h19.81v22.79h-19.81z" fill="#c8c8c8"/><path d="m140.61 426.47h19.81v22.71h-19.81z" fill="#c8c8c8"/><path d="m140.61 403.76h19.81v22.71h-19.81z" fill="#c8c8c8"/><path d="m140.61 380.98h19.81v22.78h-19.81z" fill="#c8c8c8"/><path d="m160.42 358.27v22.71h-19.81v-22.71-2.87h19.2.61z" fill="#c8c8c8"/><path d="m159.81 332.69v22.71h-19.2-.59v-22.71z" fill="#c8c8c8"/><path d="m140.02 309.92h19.79v22.77h-19.79z" fill="#c8c8c8"/><path d="m140.02 287.2h19.79v22.72h-19.79z" fill="#c8c8c8"/><path d="m140.02 264.5h19.79v22.7h-19.79z" fill="#c8c8c8"/><path d="m140.02 241.72h19.79v22.78h-19.79z" fill="#c8c8c8"/><path d="m140.61 471.97v22.7h-17.69c-.78-.77-1.49-1.62-2.14-2.52v-20.18z" fill="#c8c8c8"/><path d="m120.78 449.18h19.83v22.79h-19.83z" fill="#c8c8c8"/><path d="m120.78 426.47h19.83v22.71h-19.83z" fill="#c8c8c8"/><path d="m120.78 403.76h19.83v22.71h-19.83z" fill="#c8c8c8"/><path d="m120.78 380.98h19.83v22.78h-19.83z" fill="#c8c8c8"/><path d="m140.61 358.27v22.71h-19.83v-22.71-2.87h19.24.59z" fill="#c8c8c8"/><path d="m140.02 332.69v22.71h-19.24-.6v-22.71z" fill="#c8c8c8"/><path d="m120.18 309.92h19.84v22.77h-19.84z" fill="#c8c8c8"/><path d="m120.18 287.2h19.84v22.72h-19.84z" fill="#c8c8c8"/><path d="m120.18 287.2v22.72 22.77 22.71h.6v2.87 22.71 22.78 22.71 22.71 22.79 20.181c-2.38-3.341-3.79-7.49-3.79-11.99v-215.661h3.19 19.84v22.7z" fill="#c8c8c8"/><path d="m140.02 241.72v22.78h-19.84-3.19v-3.2c0-9.78 6.67-17.91 15.46-19.58z" fill="#c8c8c8"/><path d="m377.39 638.74c0 10.979-8.92 19.899-19.91 19.899h-255.15c-10.99 0-19.91-8.92-19.91-19.899v-426.04c0-11 8.92-19.91 19.91-19.91h255.15c10.99 0 19.91 8.91 19.91 19.91z" fill="none" stroke="#231f20" stroke-width="28"/><path d="m341.62 494.56h-5.91-17.26-19.84-19.83-19.8-19.25-.6v-22.59-.11-22.68-.11-22.6-.11-22.6-.11-22.67-.1-22.71h19.25.6 19.21.58 19.25.59 19.24.6 23.09.08" fill="none" stroke="#231f20" stroke-width="7"/><path d="m239.13 471.86h.6 19.25 19.8 19.83 19.84 23.09 3.16" fill="none" stroke="#231f20" stroke-width="7"/><path d="m239.13 449.07h.6 19.25 19.8 19.83 19.84 23.09 2.39" fill="none" stroke="#231f20" stroke-width="7"/><path d="m239.13 426.36h.6 19.25 19.79 19.84 19.84 23.09.08" fill="none" stroke="#231f20" stroke-width="7"/><path d="m239.13 403.65h.6 19.25 19.79 19.84 19.84 23.09 2.39" fill="none" stroke="#231f20" stroke-width="7"/><path d="m239.13 380.88h.6 19.25 19.79 19.84 19.84 23.09.85" fill="none" stroke="#231f20" stroke-width="7"/><path d="m318.45 358.17v22.71 22.77 22.71 22.71 22.79 22.7" fill="none" stroke="#231f20" stroke-width="7"/><path d="m298.61 358.17v22.71 22.77 22.71 22.71 22.79 22.7" fill="none" stroke="#231f20" stroke-width="7"/><path d="m278.77 358.17v22.71 22.77 22.71l.01 22.71v22.79 22.7" fill="none" stroke="#231f20" stroke-width="7"/><path d="m258.98 358.17v22.71 22.77 22.71 22.71 22.79 22.7" fill="none" stroke="#231f20" stroke-width="7"/><path d="m239.73 358.27v22.61.1 22.67.11 22.6.11 22.6.11 22.68.11 22.59.11h-19.83-19.81-19.84-19.83-19.81-17.69-2.14v-2.52-20.18-22.79-22.71-22.71-22.78-22.71" fill="none" stroke="#231f20" stroke-width="7"/><path d="m120.78 471.97h19.83 19.81 19.83 19.84 19.81 19.23.6" fill="none" stroke="#231f20" stroke-width="7"/><path d="m120.78 449.18h19.83 19.81 19.83 19.84 19.81 19.23.6" fill="none" stroke="#231f20" stroke-width="7"/><path d="m120.78 426.47h19.83 19.81 19.83 19.84 19.81 19.23.6" fill="none" stroke="#231f20" stroke-width="7"/><path d="m120.78 403.76h19.83 19.81 19.83 19.84 19.81 19.23.6" fill="none" stroke="#231f20" stroke-width="7"/><path d="m120.78 380.98h19.83 19.81 19.83 19.84 19.81 19.23.6" fill="none" stroke="#231f20" stroke-width="7"/><path d="m219.9 358.27v22.71 22.78 22.71 22.71 22.79 22.7" fill="none" stroke="#231f20" stroke-width="7"/><path d="m200.09 358.27v22.71 22.78 22.71 22.71 22.79 22.7" fill="none" stroke="#231f20" stroke-width="7"/><path d="m180.25 358.27v22.71 22.78 22.71 22.71 22.79 22.7" fill="none" stroke="#231f20" stroke-width="7"/><path d="m160.42 358.27v22.71 22.78 22.71 22.71 22.79 22.7" fill="none" stroke="#231f20" stroke-width="7"/><path d="m140.61 358.27v22.71 22.78 22.71 22.71 22.79 22.7" fill="none" stroke="#231f20" stroke-width="7"/><path d="m238.53 332.58h.6 19.25 19.81 19.83 19.83 23.69 3.16" fill="none" stroke="#231f20" stroke-width="7"/><path d="m238.53 309.8h.6 19.25 19.8 19.84 19.83 23.69 1.62" fill="none" stroke="#231f20" stroke-width="7"/><path d="m238.53 287.1h.6 19.25 19.8 19.84 19.83 23.69.85" fill="none" stroke="#231f20" stroke-width="7"/><path d="m238.53 264.39h.6 19.25 19.79 19.85 19.83 23.69.85" fill="none" stroke="#231f20" stroke-width="7"/><path d="m317.85 241.4v22.99 22.71 22.7 22.78 22.71" fill="none" stroke="#231f20" stroke-width="7"/><path d="m298.02 241.4v22.99 22.71 22.7 22.78 22.71" fill="none" stroke="#231f20" stroke-width="7"/><path d="m278.17 241.4v22.99l.01 22.71v22.7l.01 22.78v22.71" fill="none" stroke="#231f20" stroke-width="7"/><path d="m258.38 241.4v22.99 22.71 22.7 22.78 22.71" fill="none" stroke="#231f20" stroke-width="7"/><path d="m239.13 241.4v.32 22.67.11 22.6.1 22.6.12 22.66.11 22.71h-19.23-.6-19.21-.6-19.24-.6-19.23-.61-19.2-.59-19.24-.6v-22.71-22.77-22.72-14.24" fill="none" stroke="#231f20" stroke-width="7"/><path d="m120.18 332.69h19.84 19.79 19.84 19.84 19.55 20.09" fill="none" stroke="#231f20" stroke-width="7"/><path d="m120.18 309.92h19.84 19.79 19.84 19.84 19.29 20.35" fill="none" stroke="#231f20" stroke-width="7"/><path d="m120.18 287.2h19.84 19.79 19.84 19.84 19.03 20.61" fill="none" stroke="#231f20" stroke-width="7"/><path d="m120.18 264.5h19.84 19.79 19.84 19.84 18.77 20.87" fill="none" stroke="#231f20" stroke-width="7"/><path d="m120.18 241.72h12.27 7.57 19.79 19.84 19.84 18.51 21.13" fill="none" stroke="#231f20" stroke-width="9.2176"/><path d="m218 242 .26 22.5.26 22.7.26 22.72.26 22.77.26 22.71" fill="none" stroke="#231f20" stroke-width="7"/><path d="m199.49 241.4v.32 22.78 22.7 22.72 22.77 22.71" fill="none" stroke="#231f20" stroke-width="7"/><path d="m179.65 241.4v.32 22.78 22.7 22.72 22.77 22.71" fill="none" stroke="#231f20" stroke-width="7"/><path d="m159.81 241.4v.32 22.78 22.7 22.72 22.77 22.71" fill="none" stroke="#231f20" stroke-width="7"/><path d="m140.02 241.72v22.78 22.7 22.72 22.77 22.71" fill="none" stroke="#231f20" stroke-width="7"/><path d="m341.54 471.86v8.3c0 5.67-2.24 10.78-5.83 14.399-3.38 3.41-7.95 5.511-12.99 5.511h-186.92c-4.98 0-9.51-2.051-12.88-5.4-.78-.77-1.49-1.62-2.14-2.52-2.38-3.341-3.79-7.49-3.79-11.99v-215.66-3.2c0-9.78 6.67-17.91 15.46-19.58 1.09-.21 2.21-.32 3.35-.32h24.01 19.84 19.84 39.64 19.25 19.79 19.85 19.83 4.87c10.39 0 18.82 8.91 18.82 19.9v3.09 22.71 22.7 22.78 25.59 22.71 22.77 22.71 22.71z" fill="none" stroke="#231f20" stroke-width="18.4352"/><path d="m765.32 635.62c0 10.979-8.91 19.89-19.91 19.89h-255.14c-11 0-19.909-8.91-19.909-19.89v-426.05c0-11 8.909-19.91 19.909-19.91h255.14c11 0 19.91 8.91 19.91 19.91z" fill="none" stroke="#231f20" stroke-width="28"/><path d="m729.55 491.43h-5.91-17.25-19.84-19.83-19.8-19.25-.6v-22.6-.1-22.69-.11-22.59-.11-22.6-.11-22.67-.11-22.71h19.24.61 19.2.59 19.24.6 19.24.6 23.09.07" fill="none" stroke="#231f20" stroke-width="7"/><path d="m627.07 468.73h.6 19.25 19.8 19.83 19.84 23.09 3.15" fill="none" stroke="#231f20" stroke-width="7"/><path d="m627.07 445.93h.6 19.25 19.8 19.83 19.84 23.09 2.38" fill="none" stroke="#231f20" stroke-width="7"/><path d="m627.07 423.23h.6 19.25 19.8 19.83 19.84 23.09.08" fill="none" stroke="#231f20" stroke-width="7"/><path d="m627.07 400.52h.6 19.25 19.79 19.84 19.84 23.09 2.38" fill="none" stroke="#231f20" stroke-width="7"/><path d="m627.07 377.74h.6 19.25 19.79 19.84 19.84 23.09.84" fill="none" stroke="#231f20" stroke-width="7"/><path d="m706.39 355.03v22.71 22.78 22.71 22.7 22.8 22.7" fill="none" stroke="#231f20" stroke-width="7"/><path d="m686.55 355.03v22.71 22.78 22.71 22.7 22.8 22.7" fill="none" stroke="#231f20" stroke-width="7"/><path d="m666.71 355.03v22.71 22.78l.01 22.71v22.7 22.8 22.7" fill="none" stroke="#231f20" stroke-width="7"/><path d="m646.92 355.03v22.71 22.78 22.71 22.7 22.8 22.7" fill="none" stroke="#231f20" stroke-width="7"/><path d="m627.67 355.14v22.6.11 22.67.11 22.6.11 22.59.11 22.69.1 22.6.11h-19.84-19.8-19.84-19.84-19.81-17.69-2.14v-2.52-20.19-22.79-22.7-22.71-22.78-22.71" fill="none" stroke="#231f20" stroke-width="7"/><path d="m508.71 468.83h19.83 19.81 19.84 19.84 19.8 19.24.6" fill="none" stroke="#231f20" stroke-width="7"/><path d="m508.71 446.04h19.83 19.81 19.84 19.84 19.8 19.24.6" fill="none" stroke="#231f20" stroke-width="7"/><path d="m508.71 423.34h19.83 19.81 19.84 19.84 19.8 19.24.6" fill="none" stroke="#231f20" stroke-width="7"/><path d="m508.71 400.63h19.83 19.81 19.84 19.84 19.8 19.24.6" fill="none" stroke="#231f20" stroke-width="7"/><path d="m508.71 377.85h19.83 19.81 19.84 19.84 19.8 19.24.6" fill="none" stroke="#231f20" stroke-width="7"/><path d="m607.83 355.14v22.71 22.78 22.71 22.7 22.79 22.71" fill="none" stroke="#231f20" stroke-width="7"/><path d="m588.03 355.14v22.71 22.78 22.71 22.7 22.79 22.71" fill="none" stroke="#231f20" stroke-width="7"/><path d="m568.19 355.14v22.71 22.78 22.71 22.7 22.79 22.71" fill="none" stroke="#231f20" stroke-width="7"/><path d="m548.35 355.14v22.71 22.78 22.71 22.7 22.79 22.71" fill="none" stroke="#231f20" stroke-width="7"/><path d="m528.54 355.14v22.71 22.78 22.71 22.7 22.79 22.71" fill="none" stroke="#231f20" stroke-width="7"/><path d="m626.46 329.45h.61 19.24 19.81 19.83 19.84 23.69 3.15" fill="none" stroke="#231f20" stroke-width="7"/><path d="m626.46 306.67h.61 19.24 19.81 19.83 19.84 23.69 1.62" fill="none" stroke="#231f20" stroke-width="7"/><path d="m626.46 283.97h.61 19.24 19.8 19.84 19.84 23.69.84" fill="none" stroke="#231f20" stroke-width="7"/><path d="m626.46 261.25h.61 19.24 19.8 19.84 19.84 23.69.84" fill="none" stroke="#231f20" stroke-width="7"/><path d="m705.79 238.26v22.99 22.72 22.7 22.78 22.71" fill="none" stroke="#231f20" stroke-width="7"/><path d="m685.95 238.26v22.99 22.72 22.7 22.78 22.71" fill="none" stroke="#231f20" stroke-width="7"/><path d="m666.11 238.26v22.99 22.72l.01 22.7v22.78 22.71" fill="none" stroke="#231f20" stroke-width="7"/><path d="m646.31 238.26v22.99 22.72 22.7 22.78 22.71" fill="none" stroke="#231f20" stroke-width="7"/><path d="m627.07 238.26v.32 22.67.11 22.61.09 22.61.11 22.67.11 22.7h-19.24-.59-19.21-.61-19.23-.61-19.23-.6-19.21-.59-19.24-.6v-22.7-22.78-22.72-14.23" fill="none" stroke="#231f20" stroke-width="7"/><path d="m508.11 329.56h19.84 19.8 19.83 19.84 19.82 19.83" fill="none" stroke="#231f20" stroke-width="7"/><path d="m508.11 306.78h19.84 19.8 19.83 19.84 19.82 19.83" fill="none" stroke="#231f20" stroke-width="7"/><path d="m508.11 284.06h19.84 19.8 19.83 19.84 19.82 19.83" fill="none" stroke="#231f20" stroke-width="7"/><path d="m508.11 261.36h19.84 19.8 19.83 19.84 19.82 19.83" fill="none" stroke="#231f20" stroke-width="7"/><path d="m508.11 238.58h12.27 7.57 19.8 19.83 19.84 19.82 19.83" fill="none" stroke="#231f20" stroke-width="9.2176"/><path d="m607.24 238v.26.32 22.78 22.7 22.72 22.78 22.7" fill="none" stroke="#231f20" stroke-width="7"/><path d="m587.42 238.26v.32 22.78 22.7 22.72 22.78 22.7" fill="none" stroke="#231f20" stroke-width="7"/><path d="m567.58 238.26v.32 22.78 22.7 22.72 22.78 22.7" fill="none" stroke="#231f20" stroke-width="7"/><path d="m547.75 238.26v.32 22.78 22.7 22.72 22.78 22.7" fill="none" stroke="#231f20" stroke-width="7"/><path d="m527.95 238.58v22.78 22.7 22.72 22.78 22.7" fill="none" stroke="#231f20" stroke-width="7"/><path d="m729.48 468.73v8.3c0 5.67-2.24 10.779-5.841 14.399-3.37 3.41-7.949 5.511-12.979 5.511h-186.92c-4.99 0-9.521-2.051-12.891-5.4-.77-.771-1.489-1.62-2.14-2.521-2.38-3.34-3.79-7.489-3.79-11.989v-215.67-3.19c0-9.78 6.67-17.92 15.46-19.59 1.09-.21 2.21-.32 3.36-.32h24.01 19.83 19.84 19.82 19.83 19.239 19.801 19.84 19.84 4.87c10.38 0 18.82 8.92 18.82 19.91v3.08 22.72 22.7 22.78 25.58 22.71 22.78 22.71 22.7 22.8z" fill="none" stroke="#231f20" stroke-width="18.4352"/><path d="m0 0h850.394v850.394h-850.394z" fill="none"/></svg>