<svg enable-background="new 0 0 850.394 850.394" height="850.394" viewBox="0 0 850.394 850.394" width="850.394" xmlns="http://www.w3.org/2000/svg"><g fill="#f6cc4b"><path d="m276.07 202.39 23.8 72.4v1.04h-206.4v-73.44z"/><path d="m93.47 275.83h206.4 378.12v59.54h-502.15l-77.41 326.49h569.64v.01h-574.61v-386.04z"/><path d="m760.37 335.37-77.41 326.49h-14.89l9.92-326.49z"/><path d="m677.99 335.37-9.92 326.49h-569.64l77.41-326.49z"/></g><path d="m668.07 661.87h-574.61v-386.04h.01 206.4 378.12v59.54" fill="none" stroke="#231f20" stroke-width="21"/><path d="m677.99 335.37h82.38l-77.41 326.49h-14.89-569.64l77.41-326.49z" fill="none" stroke="#231f20" stroke-width="21"/><path d="m93.47 281.78v-5.95-73.44h182.6l23.8 72.4" fill="none" stroke="#231f20" stroke-width="21"/><path d="m0 0h850.394v850.394h-850.394z" fill="none"/></svg>