<svg enable-background="new 0 0 850.394 850.394" height="850.394" viewBox="0 0 850.394 850.394" width="850.394" xmlns="http://www.w3.org/2000/svg"><path d="m528.42 450.39v152.64h-350.5v-152.64h188.79 140.79z" fill="#c8c8c8"/><path d="m366.71 450.39h-188.79v-123.58z" fill="#c8c8c8"/><path d="m507.5 450.39h-140.79l-188.79-123.58v-14.47h120.75v1.36z" fill="#c8c8c8"/><path d="m528.42 375.22v75.17h-20.92l-208.83-136.69v-1.36h129.94z" fill="#c8c8c8"/><path d="m528.42 312.34v62.88l-99.81-62.88z" fill="#c8c8c8"/><path d="m528.42 204.95v107.39h-99.81-129.94-120.75v-107.39z" fill="#c8c8c8"/><path d="m692.56 163.54v472.47l-121.17-24.35-42.97-8.63v-152.64-75.17-62.88-107.39l42.97-10.84z" fill="#c8c8c8"/><path d="m571.71 646.74v127.31h-432.91v-127.31h432.59z" fill="#fff"/><path d="m177.92 326.81v123.58 152.64h350.5l42.97 8.63v35.08h-432.59v-483.2h432.59v30.57l-42.97 10.84h-350.5v107.39z" fill="#fff"/><path d="m571.39 149.73v13.81h-432.59v-90.51h432.59zm-34.53-15.34v-31.44h-39.12v31.44zm-73.95-15.92c0-8.4-6.83-15.2-15.22-15.2-8.381 0-15.19 6.8-15.19 15.2 0 8.41 6.81 15.21 15.19 15.21 8.39 0 15.22-6.8 15.22-15.21zm-68.65.06c0-8.4-6.82-15.21-15.22-15.21-8.39 0-15.2 6.81-15.2 15.21 0 8.41 6.81 15.21 15.2 15.21 8.4 0 15.22-6.8 15.22-15.21zm-68.24-.06c0-8.4-6.82-15.2-15.22-15.2-8.38 0-15.2 6.8-15.2 15.2 0 8.41 6.82 15.21 15.2 15.21 8.4 0 15.22-6.8 15.22-15.21zm-65.61 0c0-8.4-6.82-15.2-15.22-15.2-8.39 0-15.2 6.8-15.2 15.2 0 8.41 6.81 15.21 15.2 15.21 8.4 0 15.22-6.8 15.22-15.21z" fill="#fff"/><path d="m497.74 102.95h39.12v31.44h-39.12z" fill="#ff001c"/><path d="m447.69 103.27c8.39 0 15.22 6.8 15.22 15.2 0 8.41-6.83 15.21-15.22 15.21-8.381 0-15.19-6.8-15.19-15.21 0-8.4 6.81-15.2 15.19-15.2z" fill="#ff001c"/><path d="m379.04 103.32c8.4 0 15.22 6.81 15.22 15.21 0 8.41-6.82 15.21-15.22 15.21-8.39 0-15.2-6.8-15.2-15.21 0-8.4 6.81-15.21 15.2-15.21z" fill="#ff001c"/><path d="m310.8 103.27c8.4 0 15.22 6.8 15.22 15.2 0 8.41-6.82 15.21-15.22 15.21-8.38 0-15.2-6.8-15.2-15.21 0-8.4 6.82-15.2 15.2-15.2z" fill="#ff001c"/><path d="m245.19 103.27c8.4 0 15.22 6.8 15.22 15.2 0 8.41-6.82 15.21-15.22 15.21-8.39 0-15.2-6.8-15.2-15.21 0-8.4 6.81-15.2 15.2-15.2z" fill="#ff001c"/><g fill="none"><path d="m528.42 204.95 42.97-10.84 121.17-30.57v472.47l-121.17-24.35-42.97-8.63" stroke="#231f20" stroke-width="21.2622"/><path d="m571.39 646.74v-35.08" stroke="#231f20" stroke-width="21.2622"/><path d="m571.39 194.11v-30.57-13.81-76.7h-432.59v90.51 483.2" stroke="#231f20" stroke-width="21.2622"/><path d="m138.8 163.54h432.59" stroke="#231f20" stroke-width="21.2622"/><path d="m177.92 450.39v152.64h350.5v-152.64-75.17-62.88-107.39h-350.5v107.39 14.47z" stroke="#231f20" stroke-width="21.2622"/><path d="m528.42 312.34h-99.81-129.94-120.75" stroke="#231f20" stroke-width="21.2622"/><path d="m528.42 450.39h-20.92-140.79-188.79" stroke="#231f20" stroke-width="21.2622"/><path d="m528.42 375.22-99.81-62.88" stroke="#231f20" stroke-width="21.2622"/><path d="m507.5 450.39-208.83-136.69" stroke="#231f20" stroke-width="21.2622"/><path d="m366.71 450.39-188.79-123.58-.01-.01" stroke="#231f20" stroke-width="21.2622"/><path d="m706.37 447.34h18.4v-93.59h-18.4" stroke="#231f20" stroke-width="21.2622"/><path d="m497.74 102.95h39.12v31.44h-39.12z" stroke="#231f20" stroke-width="14.1748"/><path d="m432.5 118.47c0 8.41 6.81 15.21 15.19 15.21 8.39 0 15.22-6.8 15.22-15.21 0-8.4-6.83-15.2-15.22-15.2-8.38 0-15.19 6.8-15.19 15.2z" stroke="#231f20" stroke-width="14.1748"/><path d="m363.84 118.53c0 8.41 6.81 15.21 15.2 15.21 8.4 0 15.22-6.8 15.22-15.21 0-8.4-6.82-15.21-15.22-15.21-8.39 0-15.2 6.81-15.2 15.21z" stroke="#231f20" stroke-width="14.1748"/><path d="m295.6 118.47c0 8.41 6.82 15.21 15.2 15.21 8.4 0 15.22-6.8 15.22-15.21 0-8.4-6.82-15.2-15.22-15.2-8.38 0-15.2 6.8-15.2 15.2z" stroke="#231f20" stroke-width="14.1748"/><path d="m229.99 118.47c0 8.41 6.81 15.21 15.2 15.21 8.4 0 15.22-6.8 15.22-15.21 0-8.4-6.82-15.2-15.22-15.2-8.39 0-15.2 6.8-15.2 15.2z" stroke="#231f20" stroke-width="14.1748"/><path d="m571.39 646.74h.32v127.31h-432.91v-127.31z" stroke="#231f20" stroke-width="21.2622"/><path d="m0 0h850.394v850.394h-850.394z"/></g></svg>