<svg enable-background="new 0 0 850.394 850.394" height="850.394" viewBox="0 0 850.394 850.394" width="850.394" xmlns="http://www.w3.org/2000/svg"><path d="m326.27 239.35v370.21h-.99-1-168.07v-544.9h242.95v127.55h115.39v47.14z" fill="#ffffc2"/><path d="m569.22 239.35 115.41 127.55h-115.41z" fill="#ffffc2"/><path d="m399.16 64.66 115.39 127.55h-115.39z" fill="#ffffc2"/><path d="m514.55 239.35h54.67v127.55h115.41v417.35h-358.36v-174.69-370.21z" fill="#ffffc2"/><g fill="none"><path d="m514.55 239.93v-.58-47.14l-115.39-127.55h-242.95v544.9h168.07" stroke="#231f20" stroke-width="21"/><path d="m399.16 63.79v.87 127.55h115.39" stroke="#231f20" stroke-width="21"/><path d="m208.56 262.49h115.25" stroke="#231f20" stroke-width="21"/><path d="m207.4 360.83h114.1" stroke="#231f20" stroke-width="21"/><path d="m207.4 460.32h115.26" stroke="#231f20" stroke-width="21"/><path d="m569.22 239.35h-54.67-188.28v370.21 174.69h358.36v-417.35z" stroke="#231f20" stroke-width="21"/><path d="m569.22 238.48v.87 127.55h115.41" stroke="#231f20" stroke-width="21"/><path d="m378.62 437.18h255.68" stroke="#231f20" stroke-width="21"/><path d="m377.46 535.51h255.69" stroke="#231f20" stroke-width="21"/><path d="m377.46 635.01h255.69" stroke="#231f20" stroke-width="21"/><path d="m0 0h850.394v850.394h-850.394z"/></g></svg>