<svg enable-background="new 0 0 850.394 850.394" height="850.394" viewBox="0 0 850.394 850.394" width="850.394" xmlns="http://www.w3.org/2000/svg"><path d="m696.89 176.78-73.22 23.8h-200.23-2.28-200.22l-73.22-23.8-18.31-5.95v-34.32l1.53-.41 92.78 30.15h185.34 31.64 185.33l89.16-28.97v33.55z" fill="#f6cc4b"/><path d="m715.19 136.51v.77l-89.16 28.97h-185.33-31.64-185.34l-92.78-30.15 290.42-78.1z" fill="#f6cc4b"/><path d="m696.89 676.06 10.29 2.75v34.33l-91.52 29.75h-202.51v-.01h-184.2l-91.53-29.74v-34.33l10.3-2.76 2.47-.65 86.2 28.01h27.45 145.53 29.53 141.86 31.12l84.55-27.48z" fill="#f6cc4b"/><path d="m696.43 675.93-84.55 27.48h-31.12v-1.13-327.22h-316.92v327.22 1.13h-27.45l-86.2-28.01-2.47-.811v-497.809l73.22 23.8h200.22 2.28 200.23l73.22-23.8v499zm-116.24-339.2v-104.11h-315.78v104.11z" fill="#f6cc4b"/><path d="m556.17 744.04h53.771v45.76h-53.771z" fill="#9e5c26"/><path d="m580.76 702.28v1.13h-141.86-29.53-145.53v-1.13-327.22h316.92z" fill="#f6cc4b"/><path d="m264.41 232.62h315.78v104.11h-315.78z" fill="#f6cc4b"/><path d="m234.67 744.03h53.77v45.76h-53.77z" fill="#9e5c26"/><g fill="none"><path d="m424.02 57.28-2.66.72-290.42 78.1-1.53.41v34.32l18.31 5.95 73.22 23.8h200.22" stroke="#231f20" stroke-width="21"/><path d="m156.71 673.65-6.52 1.75-2.47.65-10.3 2.76v34.33l91.53 29.74h184.2 18.31" stroke="#231f20" stroke-width="21"/><path d="m147.72 174.27v2.51 497.81 1.46 7.34" stroke="#231f20" stroke-width="21"/><path d="m234.67 744.03h53.77v45.76h-53.77z" stroke="#231f20" stroke-width="21"/><path d="m146.23 674.11 1.49.48 2.47.81 86.2 28.01h27.45 145.53" stroke="#231f20" stroke-width="14"/><path d="m702.04 674.11-5.15 1.67-.46.15-84.55 27.48h-31.12-141.86-29.53" stroke="#231f20" stroke-width="14"/><path d="m127.12 134.86 3.82 1.24 92.78 30.15h185.34" stroke="#231f20" stroke-width="14"/><path d="m722.63 134.86-7.44 2.42-89.16 28.97h-185.33-31.64" stroke="#231f20" stroke-width="14"/><path d="m418.15 57.14 3.21.86 293.83 78.51v.77 33.55l-18.3 5.95-73.22 23.8h-200.23-2.28" stroke="#231f20" stroke-width="21"/><path d="m687.89 673.65 8.54 2.28.46.13 10.29 2.75v34.33l-91.52 29.75h-202.51" stroke="#231f20" stroke-width="21"/><path d="m696.89 174.27v2.51 499 .28 7.34" stroke="#231f20" stroke-width="21"/><path d="m556.17 744.04h53.771v45.76h-53.771z" stroke="#231f20" stroke-width="21"/><path d="m263.84 702.28v-327.22h316.92v327.22" stroke="#231f20" stroke-width="21"/><path d="m526.99 418.53v137.3" stroke="#231f20" stroke-linecap="round" stroke-width="27.4585"/><path d="m353.11 282.39h137.29" stroke="#231f20" stroke-linecap="round" stroke-width="27.4585"/><path d="m264.41 232.62h315.78v104.11h-315.78z" stroke="#231f20" stroke-linecap="round" stroke-width="21"/><path d="m0 0h850.394v850.394h-850.394z"/></g></svg>