<svg enable-background="new 0 0 850.394 850.394" height="850.394" viewBox="0 0 850.394 850.394" width="850.394" xmlns="http://www.w3.org/2000/svg"><path d="m688.7 400.03v-36.43l41.3 10.4 1.8 3.44z" fill="#fff5b4"/><path d="m600.03 248.74v92.54l-87.11-21.93v-37.94l-1.47-4.19 87.75-30.84z" fill="#ffeec8"/><path d="m688.7 363.6v36.43l-88.67 46.47v-105.22z" fill="#fff5b4"/><path d="m600.03 341.28v105.22l-87.11 45.65v-172.8z" fill="#fff5b4"/><path d="m688.7 214.92v148.68l-88.67-22.32v-92.54l-.83-2.36z" fill="#ffeec8"/><path d="m512.92 319.35v172.8l-85.27 44.69v-227.44l-.85-2.43 16.86-5.93.34.96z" fill="#fff5b4"/><path d="m743.14 196.33v175.17l-11.34 5.94-1.8-3.44-41.3-10.4v-148.68l52.89-18.59z" fill="#ffeec8"/><path d="m427.65 309.4v227.44l-55.65 29.16h-2.19v-236.34-2.66l25.63-9.01 31.36-11.02z" fill="#fff5b4"/><path d="m427.65 536.84v91.32l-57.84 31.73v-93.89h2.19z" fill="#fff5b4"/><path d="m512.92 492.15v89.24l-85.27 46.77v-91.32z" fill="#fff5b4"/><path d="m600.03 446.5v87.11l-87.11 47.78v-89.24z" fill="#fff5b4"/><path d="m688.7 400.03v84.94l-88.67 48.64v-87.11z" fill="#fff5b4"/><path d="m743.14 371.5v86.17h-4.66l-49.78 27.3v-84.94l43.1-22.59z" fill="#fff5b4"/><path d="m369.81 566v93.89l-264.45-94.89v-300.67l.1-.02c3.2-.68 80.66-16.73 147.68.02 23.63 5.9 44.85 15.52 62.51 25.58 33.48 19.08 54.16 39.75 54.16 39.75zm-40.74 47.16 2.79-272.86c-17.17-17.17-48.16-39.99-78.44-47.56-38.67-9.67-80.66-13.08-112.49-.23v252.35z" fill="#ffeec8"/><path d="m331.86 340.3-2.79 272.86-188.14-68.3v-252.35c31.83-12.85 73.82-9.44 112.49.23 30.28 7.57 61.27 30.39 78.44 47.56z" fill="#ef947d"/><path d="m502.03 167.16v-16.84h1.18s67.2-25.56 129.42-19.69 105.38 37.64 105.38 37.64h5.13v28.06h-1.55l-52.89 18.59-89.5 31.46-87.75 30.84-9.25 3.25-.17-.49z" fill="#ffeec8"/><g fill="none"><path d="m105.36 638.11v-73.11-300.67-54" stroke="#231f20" stroke-width="21"/><path d="m369.81 280.33v46.67 2.66 236.34 93.89 73.11" stroke="#231f20" stroke-width="21"/><path d="m743.14 127.89v40.38 28.06 175.17 86.17 98" stroke="#231f20" stroke-width="21"/><path d="m738.48 457.67-49.78 27.3-88.67 48.64-87.11 47.78-85.27 46.77-57.84 31.73-264.45-94.89" stroke="#231f20" stroke-width="21"/><path d="m105.46 264.31c3.2-.68 80.66-16.73 147.68.02 23.63 5.9 44.85 15.52 62.51 25.58 33.48 19.08 54.16 39.75 54.16 39.75" stroke="#231f20" stroke-width="21"/><path d="m331.86 340.3c-17.17-17.17-48.16-39.99-78.44-47.56-38.67-9.67-80.66-13.08-112.49-.23v252.35l188.14 68.3z" stroke="#231f20" stroke-width="14"/><path d="m503.21 150.32s67.2-25.56 129.42-19.69 105.38 37.64 105.38 37.64" stroke="#231f20" stroke-width="21"/><path d="m105.36 264.33.1-.02 210.54-51.58 78.04-19.11 67.4-16.52 40.59-9.94 1.56-.38" stroke="#231f20" stroke-width="21"/><path d="m369.81 327 25.63-9.01 31.36-11.02 16.86-5.93 17.92-6.29 40.62-14.28 9.25-3.25 87.75-30.84 89.5-31.46 52.89-18.59" stroke="#231f20" stroke-width="21"/><path d="m502.03 117v33.32 16.84 112.82" stroke="#231f20" stroke-width="21"/><path d="m427.65 309.4v227.44 91.32.27" stroke="#231f20" stroke-width="21"/><path d="m512.92 281.41v37.94 172.8 89.24 6.59" stroke="#231f20" stroke-width="21"/><path d="m600.03 248.74v92.54 105.22 87.11 3.04" stroke="#231f20" stroke-width="21"/><path d="m688.7 214.52v.4 148.68 36.43 84.94 5.01" stroke="#231f20" stroke-width="21"/><path d="m316.92 216.5v71.21" stroke="#231f20" stroke-width="21"/><path d="m394.7 196.33v119.57" stroke="#231f20" stroke-width="21"/><path d="m461.58 177.67v117.08 2.48" stroke="#231f20" stroke-width="21"/><path d="m372 566 55.65-29.16 85.27-44.69 87.11-45.65 88.67-46.47 43.1-22.59 11.34-5.94 2.86-1.5" stroke="#231f20" stroke-width="7"/><path d="m730 374-41.3-10.4-88.67-22.32-87.11-21.93-68.92-17.35" stroke="#231f20" stroke-width="7"/><path d="m0 0h850.394v850.394h-850.394z"/></g></svg>