<svg enable-background="new 0 0 850.89 850.89" height="850.89" viewBox="0 0 850.89 850.89" width="850.89" xmlns="http://www.w3.org/2000/svg"><path d="m814.05 186.44h-207.47l-.021-2.21h203.23c0-.34 0-.68 0-1.02h3.37c0-14.47 0-28.93 0-43.4h.89v46.63z" fill="#fff"/><path d="m810.4 88.75c-.271-.06-.471-.05-.61.02 0-12.09 0-24.18 0-36.27h3.37v11.77 31.63c-1.11-.17-2.24-.32-3.37-.45 0-.53 0-1.06 0-1.59h2.45c-.44-1.55.99-5.18-.92-5.11-.28 1.23.58 3.71-.45 4.09-1.04-.38-.19-2.86-.47-4.09z"/><path d="m813.16 139.81c-1.07.96-2.21 1.26-3.37 1.25 0-15.21 0-30.41 0-45.61 1.13.13 2.26.28 3.37.45 0-10.54 0-21.09 0-31.63l.89-.5v76.04z" fill="#fff"/><path d="m809.79 88.77c.14-.07.34-.08.61-.02.279 1.23-.57 3.71.47 4.09 1.03-.38.17-2.86.45-4.09 1.91-.07.479 3.56.92 5.11-.811 0-1.63 0-2.45 0 0-1.7 0-3.39 0-5.09z" fill="#fff"/><path d="m809.79 146.96c0-1.69 0-3.39 0-5.09.14-.07.34-.08.61-.02.279 1.23-.57 3.71.47 4.09 1.03-.38.17-2.86.45-4.09 1.91-.07.479 3.56.92 5.11-.81 0-1.63 0-2.45 0z" fill="#fff"/><path d="m809.79 146.96h2.45c-.44-1.55.99-5.18-.92-5.11-.28 1.23.58 3.71-.45 4.09-1.04-.38-.19-2.86-.47-4.09-.271-.06-.471-.05-.61.02 0-.27 0-.54 0-.81 1.16.01 2.3-.29 3.37-1.25v43.4c-1.12 0-2.25 0-3.37 0 0-12.08 0-24.17 0-36.25z"/><path d="m803.97 146.96c0-1.02 0-2.04 0-3.06 1.67-.19 4.521.93 3.67-2.05 2.16-.51-.08 3.84 1.391 4.09 1.27-.22-.28-3.58.76-4.07v5.09c-.72 0-1.43 0-2.15 0 0-.68 0-1.36 0-2.04-.92 0-1.84 0-2.76 0-.71 2.15 2.561-.12 1.84 2.04-.921 0-1.841 0-2.751 0z" fill="#fff"/><path d="m803.97 90.79c1.67-.18 4.521.94 3.67-2.04 2.16-.51-.08 3.84 1.391 4.09 1.27-.22-.28-3.58.76-4.07v5.09c-.72 0-1.43 0-2.15 0 0-.68 0-1.36 0-2.05-.92 0-1.84 0-2.76 0-.71 2.16 2.561-.11 1.84 2.05-.92 0-1.84 0-2.75 0-.001-1.02-.001-2.05-.001-3.07z" fill="#fff"/><path d="m794.31 141.85h12.41c-2.06 1.69-10.35 1.69-12.41 0z" fill="#fff"/><path d="m794.31 88.75h12.41c-2.06 1.69-10.35 1.69-12.41 0z" fill="#fff"/><path d="m795.23 93.86c-1.66.48-.641-2.01-.921-3.07h5.061v2.05h2.76c.7-2.31-3 .27-2.3-2.05h3.22v3.07c-1.689 0-3.38 0-5.06 0 0-.68 0-1.36 0-2.05-.62 0-1.23 0-1.84 0-1.25-.36.33 2.41-.92 2.05z" fill="#fff"/><path d="m795.23 146.96c-1.66.48-.641-2.01-.921-3.06h5.061v2.04h2.76c.71-2.16-2.56.11-1.84-2.04h2.76v3.06c-1.54 0-3.069 0-4.6 0-.36-.46-.5-1.15-.46-2.04-.62 0-1.23 0-1.84 0-1.25-.37.33 2.4-.92 2.04z" fill="#fff"/><path d="m788.33 88.75c-2.061 1.69-10.35 1.69-12.41 0z" fill="#fff"/><path d="m785.11 143.9c1.67-.19 4.52.93 3.68-2.05h1.38v4.09c1.33-.23-.41-3.86.92-4.09 1.811-.31.54 2.81.92 4.09 1.33-.23-.41-3.86.92-4.09 1.9-.07.48 3.56.92 5.11-1.689 0-3.369 0-5.06 0 0-.68 0-1.36 0-2.04-.92 0-1.84 0-2.76 0-.271 1.83 2.75.01 2.3 2.04-1.07 0-2.14 0-3.22 0 0-1.02 0-2.04 0-3.06z" fill="#fff"/><path d="m785.11 90.79c1.67-.18 4.52.94 3.68-2.04h1.38v4.09c1.33-.23-.41-3.86.92-4.09 1.811-.31.54 2.81.92 4.09 1.33-.23-.41-3.86.92-4.09 1.9-.07.48 3.56.92 5.11-1.689 0-3.369 0-5.06 0 0-.68 0-1.36 0-2.05-.76 0-1.53 0-2.3 0-.71 2.16 2.55-.11 1.84 2.05-1.07 0-2.14 0-3.22 0 0-1.02 0-2.05 0-3.07z" fill="#fff"/><path d="m775.92 141.85h12.41c-2.06 1.69-10.35 1.69-12.41 0z" fill="#fff"/><path d="m779.6 91.81c-2.81-1.07-2.31 1.54-3.68 2.05 0-1.02 0-2.05 0-3.07h4.59v2.05h2.76c.721-2.16-2.55.11-1.84-2.05h2.761v3.07c-1.53 0-3.061 0-4.591 0 0-.68 0-1.36 0-2.05z" fill="#fff"/><path d="m779.6 144.92c-2.81-1.07-2.31 1.53-3.68 2.04 0-1.02 0-2.04 0-3.06h4.59v2.04h2.76c.721-2.16-2.55.11-1.84-2.04h2.761v3.06c-1.53 0-3.061 0-4.591 0 0-.68 0-1.36 0-2.04z" fill="#fff"/><path d="m766.26 93.86c0-1.02 0-2.05 0-3.07 1.721-.3 5.01 1.14 4.141-2.04 2.149-.51-.091 3.84 1.38 4.09 1.46-.25-.78-4.6 1.38-4.09.28 1.23-.58 3.71.45 4.09 1.04-.38.189-2.86.47-4.09 1.9-.07.479 3.56.92 5.11-1.54 0-3.07 0-4.6 0 0-.68 0-1.36 0-2.05-.92 0-1.841 0-2.761 0-.72 2.16 2.551-.11 1.841 2.05-1.081 0-2.151 0-3.221 0z" fill="#fff"/><path d="m766.26 143.9c1.851-.17 4.73.82 4.141-2.05 2.149-.51-.091 3.84 1.38 4.09 1.46-.25-.78-4.6 1.38-4.09.28 1.23-.58 3.71.45 4.09 1.04-.38.189-2.86.47-4.09 1.9-.07.479 3.56.92 5.11-1.54 0-3.07 0-4.6 0 0-.68 0-1.36 0-2.04-.92 0-1.841 0-2.761 0-.72 2.15 2.551-.12 1.841 2.04-1.221-.01-2.631.19-3.221-.51 0-.85 0-1.7 0-2.55z" fill="#fff"/><path d="m757.06 141.85h12.421c-2.071 1.69-10.351 1.69-12.421 0z" fill="#fff"/><path d="m757.06 88.75h12.421c-2.071 1.69-10.351 1.69-12.421 0z" fill="#fff"/><path d="m757.98 93.86c-1.66.48-.641-2.01-.921-3.07h5.061v2.05h2.3c.71-2.16-2.55.11-1.84-2.05h3.22v3.07c-1.689 0-3.38 0-5.06 0 0-.68 0-1.36 0-2.05-.61 0-1.23 0-1.84 0-1.25-.36.33 2.41-.92 2.05z" fill="#fff"/><path d="m757.06 143.9h5.061v2.04h2.3c.71-2.16-2.55.11-1.84-2.04h3.22v3.06c-1.689 0-3.38 0-5.06 0 0-.68 0-1.36 0-2.04-.61 0-1.23 0-1.84 0-1.25-.37.33 2.4-.92 2.04-1.661.48-.641-2.01-.921-3.06z" fill="#fff"/><path d="m750.62 146.96c-.92 0-1.84 0-2.76 0 0-1.02 0-2.04 0-3.06 1.68-.19 4.52.93 3.68-2.05 2.15-.51-.08 3.84 1.38 4.09 1.04-.38.18-2.86.46-4.09 1.99-.33.15 3.58 1.38 4.09 1.33-.23-.41-3.86.92-4.09 1.91-.07.48 3.56.92 5.11-1.68 0-3.369 0-5.06 0 0-.68 0-1.36 0-2.04-.92 0-1.84 0-2.76 0-.71 2.15 2.56-.12 1.84 2.04z" fill="#fff"/><path d="m747.86 93.86c0-1.02 0-2.05 0-3.07 1.68-.18 4.52.94 3.68-2.04 2.15-.51-.08 3.84 1.38 4.09 1.33-.23-.41-3.86.92-4.09 1.82-.31.54 2.81.92 4.09 1.33-.23-.41-3.86.92-4.09 1.91-.07.48 3.56.92 5.11-1.68 0-3.369 0-5.06 0 0-.68 0-1.36 0-2.05-.92 0-1.84 0-2.76 0-.71 2.16 2.56-.11 1.84 2.05-.92 0-1.84 0-2.76 0z" fill="#fff"/><path d="m750.62 142.87c-3.98 0-7.97 0-11.95 0 1.91-1.68 10.04-1.68 11.95 0z" fill="#fff"/><path d="m750.62 89.77c-3.98 0-7.97 0-11.95 0 1.91-1.69 10.04-1.69 11.95 0z" fill="#fff"/><path d="m742.34 91.81c-2.8-1.07-2.29 1.54-3.67 2.05 0-1.02 0-2.05 0-3.07h4.59v2.05h2.76c.721-2.16-2.55.11-1.84-2.05h2.761v3.07c-1.53 0-3.061 0-4.601 0 0-.68 0-1.36 0-2.05z" fill="#fff"/><path d="m738.67 146.96c0-1.02 0-2.04 0-3.06h4.59v2.04h2.76c.721-2.16-2.55.11-1.84-2.04h2.761v3.06c-1.53 0-3.061 0-4.601 0 0-.68 0-1.36 0-2.04-2.8-1.07-2.29 1.53-3.67 2.04z" fill="#fff"/><path d="m732.23 88.75c-2.07 1.69-10.351 1.69-12.421 0z" fill="#fff"/><path d="m719.81 141.85h12.421c-2.071 1.69-10.351 1.69-12.421 0z" fill="#fff"/><path d="m729.01 143.9c1.67-.19 4.521.93 3.681-2.05h1.38v4.09c2.04.22-.311-4.43 1.84-4.09.28 1.23-.58 3.71.46 4.09 1.04-.38.18-2.86.46-4.09 1.9-.07.47 3.56.92 5.11-1.69 0-3.38 0-5.06 0 0-.68 0-1.36 0-2.04-.771 0-1.53 0-2.301 0-.71 2.15 2.551-.12 1.841 2.04-1.07 0-2.15 0-3.221 0 0-1.02 0-2.04 0-3.06z" fill="#fff"/><path d="m732.23 93.86c-1.07 0-2.15 0-3.221 0 0-1.02 0-2.05 0-3.07 1.67-.18 4.521.94 3.681-2.04h1.38v4.09c1.33-.23-.41-3.86.92-4.09 1.81-.31.54 2.81.92 4.09 1.81.31.54-2.8.92-4.09 1.9-.07.47 3.56.92 5.11-1.69 0-3.38 0-5.06 0 0-.68 0-1.36 0-2.05-.771 0-1.53 0-2.301 0-.709 2.16 2.551-.11 1.841 2.05z" fill="#fff"/><path d="m719.81 93.86c0-1.02 0-2.05 0-3.07h5.061v2.05h2.3c.71-2.16-2.55.11-1.84-2.05h3.22v3.07c-1.689 0-3.37 0-5.06 0 0-.68 0-1.36 0-2.05-2.801-1.07-2.301 1.54-3.681 2.05z" fill="#fff"/><path d="m723.49 144.92c-2.8-1.07-2.3 1.53-3.681 2.04 0-1.02 0-2.04 0-3.06h5.061v2.04h2.3c.71-2.16-2.55.11-1.84-2.04h3.22v3.06c-1.689 0-3.37 0-5.06 0 0-.68 0-1.36 0-2.04z" fill="#fff"/><path d="m718.89 130.62c4.25-6.66 4.091-22.98-3.67-27.06 10.14.14 12.89 21.7 3.67 27.06z" fill="#ed1e29"/><path d="m710.62 143.9c1.66-.19 4.52.93 3.68-2.05 2.15-.51-.09 3.84 1.37 4.09 1.46-.25-.77-4.6 1.38-4.09.28 1.23-.569 3.71.46 4.09 1.04-.38.181-2.86.46-4.09 1.91-.07.48 3.56.92 5.11-1.529 0-3.06 0-4.59 0 0-.68 0-1.36 0-2.04-.92 0-1.84 0-2.76 0-.72 2.15 2.55-.12 1.84 2.04-.92 0-1.84 0-2.76 0 0-1.02 0-2.04 0-3.06z" fill="#fff"/><path d="m710.62 90.79c1.66-.18 4.52.94 3.68-2.04 2.15-.51-.09 3.84 1.37 4.09 1.46-.25-.77-4.6 1.38-4.09.28 1.23-.569 3.71.46 4.09 1.04-.38.181-2.86.46-4.09 1.91-.07.48 3.56.92 5.11-1.529 0-3.06 0-4.59 0 0-.68 0-1.36 0-2.05-.92 0-1.84 0-2.76 0-.72 2.16 2.55-.11 1.84 2.05-.92 0-1.84 0-2.76 0 0-1.02 0-2.05 0-3.07z" fill="#fff"/><path d="m700.96 141.85h12.42c-2.07 1.69-10.36 1.69-12.42 0z" fill="#fff"/><path d="m715.22 103.56c7.761 4.08 7.92 20.4 3.67 27.06 9.22-5.36 6.47-26.92-3.67-27.06zm-4.14-4.09c-.57 2.45-3.3 1.38-4.14 0l2.05-3.88c.24.1.47.2.71.31 1.899-1.57 8.21-1.57 10.109 0 9.33-1.54 18.99-1.38 28.051 0 8.42-1.52 19.689-1.44 27.14 0 1.9-1.57 8.21-1.57 10.11 0 8.18-1.35 16.609-1.4 24.68-.45v45.61c-2.26-.03-4.61-1.26-6.74-1.25-7.81.03-15.649 1.02-23 1.02-1.68 0-3.45-1.03-5.05-1.02-19.83.07-40.67 1.02-60.25 1.02-1.68 0-3.45-1.03-5.05-1.02-.75 0-1.5.01-2.25.02l-.05-2.57c.399-4.44 6.619-.41 9.189-3.06-2.66.06-5.13-.09-6.43-1.54 9.43-1.92 10.93-24.36 3.22-28.08 5.34 7.46 2.061 22.38-4.6 25.53-.58-9.17 1.399-18.16 0-26.55-.83-.6-1.271-.73-1.641-.63l.07-1.08c.76.08 1.47.52 2.95.69.512-.5 2.252-2.2.922-3.07z" fill="#fff"/><path d="m705.1 102.54c-1.399-.32-2.35-1.14-2.3-3.07.87 1.02 3.75 2.72 4.141 0 .84 1.38 3.569 2.45 4.14 0 1.33.87-.41 2.57-.92 3.07-1.48-.17-2.19-.61-2.95-.69-.571-.06-1.161.08-2.111.69z" fill="#ed1e29"/><path d="m713.38 88.75c-2.07 1.69-10.36 1.69-12.42 0z" fill="#fff"/><path d="m701.88 146.96c-1.66.48-.64-2.01-.92-3.06h5.06v2.04h2.761c.71-2.16-2.561.11-1.84-2.04h2.76v3.06c-1.53 0-3.07 0-4.601 0 0-.68 0-1.36 0-2.04-.77 0-1.529 0-2.3 0-1.25-.37.33 2.4-.92 2.04z" fill="#fff"/><path d="m701.88 93.86c-1.66.48-.64-2.01-.92-3.07h5.06v2.05h2.761c.71-2.16-2.561.11-1.84-2.05h2.76v3.07c-1.53 0-3.07 0-4.601 0 0-.68 0-1.36 0-2.05-.77 0-1.529 0-2.3 0-1.25-.36.33 2.41-.92 2.05z" fill="#fff"/><path d="m704.18 133.17c-8.529-3.5-11.18-21.97-3.68-29.1-3.64 7.11-2.39 22.66 5.06 26.04-.109-8.73.32-18.06-.46-26.04 1.15-.41 1.53-1 2.04-1.14.37-.1.811.03 1.641.63 1.399 8.39-.58 17.38 0 26.55 6.66-3.15 9.939-18.07 4.6-25.53 7.71 3.72 6.21 26.16-3.22 28.08 1.3 1.45 3.77 1.6 6.43 1.54-2.57 2.65-8.79-1.38-9.189 3.06-1.04-3.74-5.9-1.21-9.66-2.56 1.668-1.04 5.008-.22 6.438-1.53z" fill="#ed1e29"/><path d="m696.36 130.11c-9.65-2.69-8.431-26.13 3.22-27.06-6.79 3.39-9.85 20.67-3.22 27.06z" fill="#ed1e29"/><path d="m694.98 88.75c-2.061 1.69-10.351 1.69-12.421 0z" fill="#fff"/><path d="m682.56 141.85h12.421c-2.061 1.69-10.351 1.69-12.421 0z" fill="#fff"/><path d="m691.76 143.9c1.67-.19 4.521.93 3.681-2.05h1.38v4.09c1.33-.23-.41-3.86.92-4.09 1.81-.31.54 2.81.92 4.09 1.33-.23-.41-3.86.92-4.09 1.9-.07.479 3.56.92 5.11-1.69 0-3.37 0-5.06 0 0-.68 0-1.36 0-2.04-.771 0-1.53 0-2.301 0-.71 2.15 2.551-.12 1.841 2.04-1.07 0-2.15 0-3.221 0 0-1.02 0-2.04 0-3.06z" fill="#fff"/><path d="m691.76 93.86c0-1.02 0-2.05 0-3.07 1.67-.18 4.521.94 3.681-2.04h1.38v4.09c1.33-.23-.41-3.86.92-4.09 1.81-.31.54 2.81.92 4.09 1.33-.23-.41-3.86.92-4.09 1.9-.07.479 3.56.92 5.11-1.69 0-3.37 0-5.06 0 0-.68 0-1.36 0-2.05-.771 0-1.53 0-2.301 0-.71 2.16 2.551-.11 1.841 2.05-1.071 0-2.151 0-3.221 0z" fill="#fff"/><path d="m682.56 93.86c0-1.02 0-2.05 0-3.07h4.601v2.05h2.76c.72-2.16-2.55.11-1.84-2.05h3.22v3.07c-1.68 0-3.37 0-5.06 0 0-.68 0-1.36 0-2.05-2.801-1.07-2.301 1.54-3.681 2.05z" fill="#fff"/><path d="m682.56 146.96c0-1.02 0-2.04 0-3.06h4.601v2.04h2.76c.72-2.16-2.55.11-1.84-2.04h3.22v2.55c-.99.95-3.37.34-5.06.51 0-.68 0-1.36 0-2.04-2.801-1.07-2.301 1.53-3.681 2.04z" fill="#fff"/><path d="m673.37 143.9c1.67-.19 4.52.93 3.67-2.05 2.16-.51-.08 3.84 1.39 4.09 1.46-.25-.779-4.6 1.37-4.09.28 1.23-.569 3.71.47 4.09 1.03-.38.181-2.86.45-4.09 1.91-.07.48 3.56.92 5.11-1.529 0-3.06 0-4.6 0 0-.68 0-1.36 0-2.04-.91 0-1.83 0-2.75 0-.72 2.15 2.55-.12 1.84 2.04-.92 0-1.84 0-2.76 0 0-1.02 0-2.04 0-3.06z" fill="#fff"/><path d="m673.37 90.79c1.67-.18 4.52.94 3.67-2.04 2.16-.51-.08 3.84 1.39 4.09 1.46-.25-.779-4.6 1.37-4.09.28 1.23-.569 3.71.47 4.09 1.03-.38.181-2.86.45-4.09 1.91-.07.48 3.56.92 5.11-1.529 0-3.06 0-4.6 0 0-.68 0-1.36 0-2.05-.91 0-1.83 0-2.75 0-.72 2.16 2.55-.11 1.84 2.05-.92 0-1.84 0-2.76 0 0-1.02 0-2.05 0-3.07z" fill="#fff"/><path d="m663.71 88.75h12.42c-2.07 1.69-10.36 1.69-12.42 0z" fill="#fff"/><path d="m664.63 93.86c-1.66.48-.64-2.01-.92-3.07h5.06v2.05h2.301c.71-2.16-2.551.11-1.84-2.05h3.22v3.07c-1.69 0-3.38 0-5.061 0 0-.68 0-1.36 0-2.05-.609 0-1.229 0-1.84 0-1.25-.36.33 2.41-.92 2.05z" fill="#fff"/><path d="m664.63 146.96c-1.66.48-.64-2.01-.92-3.06h5.06v2.04c1.131.07 2.221.07 2.761-.51.08-1.45-3.011.61-2.3-1.53h3.22v3.06c-1.69 0-3.38 0-5.061 0 0-.68 0-1.36 0-2.04-.609 0-1.229 0-1.84 0-1.25-.37.33 2.4-.92 2.04z" fill="#fff"/><path d="m663.71 141.85h12.42c-2.07 1.69-10.36 1.69-12.42 0z" fill="#fff"/><path d="m657.73 88.75c-2.061 1.69-10.351 1.69-12.41 0z" fill="#fff"/><path d="m657.27 146.96c-.92 0-1.84 0-2.76 0 0-1.02 0-2.04 0-3.06 1.67-.19 4.521.93 3.681-2.05h1.38v4.09c1.33-.23-.41-3.86.92-4.09 1.819-.31.54 2.81.92 4.09 1.33-.23-.41-3.86.92-4.09 1.9-.07.479 3.56.92 5.11-1.69 0-3.37 0-5.06 0 0-.68 0-1.36 0-2.04-.921 0-1.841 0-2.761 0-.71 2.15 2.56-.12 1.84 2.04z" fill="#fff"/><path d="m654.51 93.86c0-1.02 0-2.05 0-3.07 1.67-.18 4.521.94 3.681-2.04h1.38v4.09c1.33-.23-.41-3.86.92-4.09 1.819-.31.54 2.81.92 4.09 1.33-.23-.41-3.86.92-4.09 1.9-.07.479 3.56.92 5.11-1.69 0-3.37 0-5.06 0 0-.68 0-1.36 0-2.05-.921 0-1.841 0-2.761 0-.699 2.32 3.011-.26 2.301 2.05-1.071 0-2.141 0-3.221 0z" fill="#fff"/><path d="m657.27 142.87c-3.979 0-7.97 0-11.949 0 1.909-1.68 10.039-1.68 11.949 0z" fill="#fff"/><path d="m645.32 143.9h4.6v2.04h2.75c.72-2.16-2.55.11-1.83-2.04h2.75v3.06c-1.53 0-3.06 0-4.59 0 0-.68 0-1.36 0-2.04-2.81-1.07-2.3 1.53-3.68 2.04 0-1.02 0-2.04 0-3.06z" fill="#fff"/><path d="m649 91.81c-2.81-1.07-2.3 1.54-3.68 2.05 0-1.02 0-2.05 0-3.07h4.6v2.05h2.75c.72-2.16-2.55.11-1.83-2.05h2.75v3.07c-1.53 0-3.06 0-4.59 0 0-.68 0-1.36 0-2.05z" fill="#fff"/><path d="m263.02 567.46c-3.86-4.19-5.91-13.08-13.55-14.04.09-5.42 2.13-8.91 1.27-15.29-.94-2.87-7.15-.5-10.19-1.27-1.35-11.13 2.27-17.28 5.1-24.221-4.54-7.79-10.53-14.109-14.02-22.939-13.79 2.62-16.49-16.55-33.14-15.29 3.84-7.94 1.72-14.43-6.37-16.57.03-1.24 1.56-.99 2.55-1.27-6.62-1.21-7.97-10.32-15.29-14.021 3.65-3.18 8-11.02 1.27-14.02.79-3.88 2.83-6.521 7.65-6.37.02-3-2.2-3.75-1.28-7.65 4.78 1.27 2.78-6.26 6.37-2.55.17-2.28-1.56-2.69-1.27-5.1 3.71-2.74 6.32 1.31 8.92-2.55-.9-6.31-5.81-8.63-6.37-15.29.95-4.14 6.8-3.39 10.19-5.1-3.65-1.45-6.78-2.8-14.01-1.27-4.16-4.87-7.69-6.04-12.75-7.65-.04-5.9 1.24-13.13-6.37-11.47-4.03-4.43 2.18-12.09-6.37-12.74-.12-9.05.46-18.68-7.65-22.94-.74-4.14.87-5.93 1.27-8.92-2-3.1-5.42-4.78-10.19-5.1.89-6.33 3.45-11 6.37-15.29-1.15-4.29-2.85-.15-5.1-2.55-.35-14.24-1.11-22.35-6.37-34.41 1.63-1.75 6.02-1.75 7.65 0 4.54-1.41 2.67-9.22 5.1-12.75 5.54-3.1 6.11 4.38 11.47 5.1 4.38 18.09 22.13 26.86 42.05 25.49 11.26-11.26 23.1-21.93 38.23-29.31 5.65 1.57 6.9 7.55 11.48 10.19.89 4.72-4.47 3.18-6.38 5.1.22 3.68 8.37 5.98 5.1 8.92 1.17 5-6.72.93-7.65 3.83 3.92 10.33 13.37 7.23 16.57 17.84 2.43-.55 2.31-3.64 6.37-2.55-3.46 27.25 12.99 34.59 35.69 35.68.42 2.98 1.53 5.27 2.55 7.65 21.26 28.51 63.55 14.34 98.13 7.65.06-6.01-4.11-7.79-3.82-14.02 11.12 3.37 18.28-2.99 24.21-5.1 1.609-18.48 24.85-22.62 40.779-19.12 1.28-1-.47-4.45 2.55-6.37 11.4-2.69 15.681 5.6 22.94-1.27 1.09 4.86 3.79 8.1 5.1 12.74 11.891-.42 20.15 2.79 24.21 10.2 11.671-4.56 22.271 2.28 28.04 3.82 1.351 16.92 23.45 13.08 25.49 29.31h22.94c-2.07 13.32 3.979 26.18 2.55 36.96-.46 3.43-4.16 5.38-5.1 8.92-1.86 7.03 3.659 21.74-8.921 22.94 0 4.25 4.15 4.35 3.82 8.919-11.33-4.869-9.84 11.841-10.189 19.12.34 5.181 8.319 2.721 11.47 5.101-3.68 3.96-7.38 7.91-10.2 12.739 4.18 15.78 9.48 28.23 6.37 48.431 4.64 5.979 17.4 3.85 25.49 6.37 5.95 12.949-3.04 24.31-11.471 34.409-3.619 4.341-12.67 9.95-12.739 12.75-.07 2.82 9.71 9.311 12.739 14.021 3.921 6.08 3.19 11.43 6.381 16.56 7.069 11.391 19.6 9.41 25.479 19.12 3.08.521 2.78-2.33 6.38-1.27-1.569 7.85 4.94 23.1 0 30.58 4.73 2.85 11.74-2.67 15.29 2.55-3.85 3.8-1.64 13.66-5.1 17.84-7.67-1.15-22.28-2.04-22.94 7.65-5.34-.67-7.12 2.229-11.47 2.55-.71 11.18-6.86 16.92-5.09 30.59-2.96.86-4.4 3.25-6.38 5.09-8.29-4.02-21.86-2.77-25.49-11.47-1.62 1.729-3.87 2.55 0 3.83-7.94 1.47-26.89-7.46-35.68-1.28-8.271-4.56-14.45-8.649-26.761-5.1-7.949-5.16-10.08-6.13-22.939-6.37-7.13-11.561-3.99-33.4-14.021-42.05-13.37-3.21-22.13 1.39-28.04 8.92 4.021-1.98 9.61-7.58 15.29-3.83-4.399 8.47-20.09 12.02-28.04 12.75-1.27-4.26 1.771-4.181 5.101-3.82-5.96-6.01-11.761 5.771-19.11 6.37-8.86-3.6-14.61-9.17-26.77-6.37-8.25-8.32-18.74-14.399-30.58-19.12.69-10.46-13.07-15.22-26.77-15.3-8.13-5.46-12-15.18-14.02-26.76-1.85-2.82-5.71-3.63-7.64-6.37-1.98-4.53 4.33-.771 3.82-3.82-.9-5.1-5.98-.08-7.65-2.55 3.43-15.479-13-18.63-15.08-30.22.07-.17.12-.351.13-.57-.07-.08-.16-.16-.25-.24-.08-.67-.11-1.37-.09-2.109-1.42.14-2.62.51-3.68 1.01-.01-.01-.01-.01-.01 0-1.74 0-3.37.65-3.59 2.25-1.92 1.37-3.84 2.729-6.74 3.11-2.07-7.271-13.03-5.65-16.57-11.471.68 4.5 3.74 5.7 1.28 10.2-6.128 4.771-9.418 4.031-11.938 1.291z" fill="#fff5b4"/><path d="m638.88 88.75c-2.06 1.69-10.35 1.69-12.42 0z" fill="#fff"/><path d="m635.66 146.96c0-1.02 0-2.04 0-3.06 1.85-.17 4.729.82 4.14-2.05 2.15-.51-.08 3.84 1.38 4.09 1.46-.25-.77-4.6 1.38-4.09.28 1.23-.579 3.71.46 4.09 1.03-.38.181-2.86.461-4.09 1.899-.07.479 3.56.92 5.11-1.53 0-3.07 0-4.601 0 0-.68 0-1.36 0-2.04-.92 0-1.84 0-2.76 0-.71 2.15 2.55-.12 1.84 2.04-1.08 0-2.15 0-3.22 0z" fill="#fff"/><path d="m635.66 90.79c1.67-.18 4.52.94 3.68-2.04h1.38v4.09c2.34.56-.51-4.65 1.84-4.09.28 1.23-.579 3.71.46 4.09 1.03-.38.181-2.86.461-4.09 1.899-.07.479 3.56.92 5.11-.92 0-1.841 0-2.761 0-.77 0-1.529 0-2.3 0 0-.68 0-1.36 0-2.05-.77 0-1.54 0-2.3 0-.71 2.16 2.55-.11 1.84 2.05-1.08 0-2.149 0-3.22 0 0-1.02 0-2.05 0-3.07z" fill="#fff"/><path d="m638.88 141.85c-2.06 1.69-10.35 1.69-12.42 0z" fill="#fff"/><path d="m627.38 93.86c-1.66.48-.64-2.01-.92-3.07h5.06v2.05h2.301c.71-2.16-2.551.11-1.84-2.05h3.22v3.07c-1.69 0-3.37 0-5.061 0 0-.68 0-1.36 0-2.05-.609 0-1.22 0-1.84 0-1.25-.36.33 2.41-.92 2.05z" fill="#fff"/><path d="m627.38 146.96c-1.66.48-.64-2.01-.92-3.06h5.06v2.04h2.301c.71-2.16-2.551.11-1.84-2.04h3.22v3.06c-1.69 0-3.37 0-5.061 0 0-.68 0-1.36 0-2.04-.609 0-1.22 0-1.84 0-1.25-.37.33 2.4-.92 2.04z" fill="#fff"/><path d="m620.03 93.86c.71-2.16-2.561.11-1.84-2.05h2.76v2.05h5.05c-.21-.76.02-2.02.09-3.09l.37.02c.28 1.06-.74 3.55.92 3.07 1.25.36-.33-2.41.92-2.05h1.84v2.05h5.061.46 3.22c.71-2.16-2.55.11-1.84-2.05h2.3v2.05h2.3v.7c-2.05 0-4.35 1.34-5.979 1.34-1.49 0-2.98-.99-4.601-1.02-1.5-.03-3.05 1.02-4.6 1.02-1.99.01-4.29-1.41-6.42-1.33z" fill="#58b947"/><path d="m618.19 144.92c-.721 2.15 2.55-.12 1.84 2.04-.92 0-1.84 0-2.761 0 0-1.02 0-2.04 0-3.06 1.671-.19 4.521.93 3.681-2.05 2.149-.51-.09 3.84 1.37 4.09 1.47-.25-.771-4.6 1.39-4.09.271 1.23-.58 3.71.45 4.09 1.04-.38.18-2.86.47-4.09 1.9-.07.47 3.56.91 5.11-1.53 0-3.06 0-4.59 0 0-.68 0-1.36 0-2.04-.92 0-1.84 0-2.76 0z" fill="#fff"/><path d="m620.03 93.86c-.92 0-1.84 0-2.761 0 0-1.02 0-2.05 0-3.07 1.671-.18 4.521.94 3.681-2.04 2.149-.51-.09 3.84 1.37 4.09 1.47-.25-.771-4.6 1.39-4.09.271 1.23-.58 3.71.45 4.09 1.33-.23-.41-3.86.92-4.09.979-.03 1.08.9 1.01 2.02-.07 1.07-.3 2.33-.09 3.09-1.68 0-3.37 0-5.05 0 0-.68 0-1.36 0-2.05-.92 0-1.84 0-2.76 0-.72 2.16 2.55-.11 1.84 2.05z" fill="#fff"/><path d="m608.07 146.96c0-1.02 0-2.04 0-3.06h4.6v2.04h2.76c.71-2.16-2.56.11-1.84-2.04h2.76v3.06c-1.54 0-3.069 0-4.6 0 0-.68 0-1.36 0-2.04-2.81-1.07-2.3 1.53-3.68 2.04z" fill="#fff"/><path d="m608.07 142.87c1.92-1.68 10.04-1.68 11.96 0-3.99 0-7.98 0-11.96 0z" fill="#fff"/><path d="m607.61 88.75h12.42c-2.07 1.69-10.36 1.69-12.42 0z" fill="#fff"/><path d="m794.31 141.85c2.061 1.69 10.351 1.69 12.41 0-4.13 0-8.27 0-12.41 0zm0 2.05c.28 1.05-.739 3.54.921 3.06 1.25.36-.33-2.41.92-2.04h1.84c-.04.89.1 1.58.46 2.04h4.6c0-1.02 0-2.04 0-3.06-.92 0-1.84 0-2.76 0-.72 2.15 2.55-.12 1.84 2.04-.92 0-1.84 0-2.76 0 0-.68 0-1.36 0-2.04-1.691 0-3.371 0-5.061 0zm-5.52-2.05c.84 2.98-2.01 1.86-3.68 2.05v3.06h3.22c.45-2.03-2.57-.21-2.3-2.04h2.76v2.04h5.06c-.439-1.55.98-5.18-.92-5.11-1.33.23.41 3.86-.92 4.09-.38-1.28.891-4.4-.92-4.09-1.33.23.41 3.86-.92 4.09 0-1.36 0-2.72 0-4.09-.46 0-.92 0-1.38 0zm-12.87 2.05v3.06c1.37-.51.87-3.11 3.68-2.04v2.04h4.591c0-1.02 0-2.04 0-3.06-.921 0-1.841 0-2.761 0-.71 2.15 2.561-.12 1.84 2.04-.92 0-1.84 0-2.76 0 0-.68 0-1.36 0-2.04-1.53 0-3.06 0-4.59 0zm0-2.05c2.061 1.69 10.35 1.69 12.41 0-4.14 0-8.28 0-12.41 0zm-5.52 0c.59 2.87-2.29 1.88-4.141 2.05v2.55c.59.7 2 .5 3.221.51.71-2.16-2.561.11-1.841-2.04h2.761v2.04h4.6c-.44-1.55.98-5.18-.92-5.11-.28 1.23.57 3.71-.47 4.09-1.03-.38-.17-2.86-.45-4.09-2.16-.51.08 3.84-1.38 4.09-1.47-.25.77-4.6-1.38-4.09zm-13.34 0c2.07 1.69 10.351 1.69 12.421 0-4.141 0-8.281 0-12.421 0zm0 2.05c.28 1.05-.739 3.54.921 3.06 1.25.36-.33-2.41.92-2.04h1.84v2.04h5.06c0-1.02 0-2.04 0-3.06-1.069 0-2.149 0-3.22 0-.71 2.15 2.55-.12 1.84 2.04-.77 0-1.53 0-2.3 0 0-.68 0-1.36 0-2.04-1.691 0-3.371 0-5.061 0zm-5.52-2.05c.84 2.98-2 1.86-3.68 2.05v3.06h2.76c.72-2.16-2.55.11-1.84-2.04h2.76v2.04h5.06c-.439-1.55.99-5.18-.92-5.11-1.33.23.41 3.86-.92 4.09-1.229-.51.61-4.42-1.38-4.09-.28 1.23.58 3.71-.46 4.09-1.46-.25.77-4.6-1.38-4.09zm-.92 1.02c-1.91-1.68-10.04-1.68-11.95 0zm-11.95 4.09c1.38-.51.87-3.11 3.67-2.04v2.04h4.601c0-1.02 0-2.04 0-3.06-.921 0-1.841 0-2.761 0-.71 2.15 2.561-.12 1.84 2.04-.92 0-1.84 0-2.76 0 0-.68 0-1.36 0-2.04-1.529 0-3.06 0-4.59 0zm-9.66-3.06v3.06h3.221c.71-2.16-2.551.11-1.841-2.04h2.301v2.04h5.06c-.45-1.55.98-5.18-.92-5.11-.28 1.23.58 3.71-.46 4.09-1.04-.38-.18-2.86-.46-4.09-2.15-.34.2 4.31-1.84 4.09 0-1.36 0-2.72 0-4.09-.46 0-.92 0-1.38 0 .839 2.98-2.011 1.86-3.681 2.05zm-9.2 0v3.06c1.381-.51.881-3.11 3.681-2.04v2.04h5.06c0-1.02 0-2.04 0-3.06-1.069 0-2.14 0-3.22 0-.71 2.15 2.55-.12 1.84 2.04-.76 0-1.53 0-2.3 0 0-.68 0-1.36 0-2.04-1.691 0-3.371 0-5.061 0zm0-2.05c2.07 1.69 10.351 1.69 12.421 0-4.141 0-8.281 0-12.421 0zm-5.51 0c.84 2.98-2.02 1.86-3.68 2.05v3.06h2.76c.71-2.16-2.56.11-1.84-2.04h2.76v2.04h4.59c-.439-1.55.99-5.18-.92-5.11-.279 1.23.58 3.71-.46 4.09-1.029-.38-.18-2.86-.46-4.09-2.149-.51.08 3.84-1.38 4.09-1.46-.25.78-4.6-1.37-4.09zm-.92 0c-4.14 0-8.28 0-12.42 0 2.06 1.69 10.35 1.69 12.42 0zm-12.42 2.05c.28 1.05-.74 3.54.92 3.06 1.25.36-.33-2.41.92-2.04h2.3v2.04h4.601c0-1.02 0-2.04 0-3.06-.92 0-1.84 0-2.76 0-.721 2.15 2.55-.12 1.84 2.04-.92 0-1.84 0-2.761 0 0-.68 0-1.36 0-2.04-1.69 0-3.37 0-5.06 0zm-9.2 0v3.06h3.221c.71-2.16-2.551.11-1.841-2.04h2.301v2.04h5.06c-.44-1.55.98-5.18-.92-5.11-1.33.23.41 3.86-.92 4.09-.38-1.28.89-4.4-.92-4.09-1.33.23.41 3.86-.92 4.09 0-1.36 0-2.72 0-4.09-.46 0-.92 0-1.38 0 .839 2.98-2.011 1.86-3.681 2.05zm-9.2 3.06c1.381-.51.881-3.11 3.681-2.04v2.04c1.689-.17 4.069.44 5.06-.51 0-.85 0-1.7 0-2.55-1.069 0-2.14 0-3.22 0-.71 2.15 2.56-.12 1.84 2.04-.92 0-1.84 0-2.76 0 0-.68 0-1.36 0-2.04-1.53 0-3.061 0-4.601 0zm0-5.11c2.07 1.69 10.36 1.69 12.421 0-4.141 0-8.281 0-12.421 0zm-5.52 0c.85 2.98-2 1.86-3.67 2.05v3.06h2.76c.71-2.16-2.56.11-1.84-2.04h2.75v2.04h4.6c-.439-1.55.99-5.18-.92-5.11-.27 1.23.58 3.71-.45 4.09-1.039-.38-.189-2.86-.47-4.09-2.149-.51.09 3.84-1.37 4.09-1.47-.25.77-4.6-1.39-4.09zm-13.33 0c2.06 1.69 10.35 1.69 12.42 0-4.14 0-8.28 0-12.42 0zm0 2.05c.28 1.05-.74 3.54.92 3.06 1.25.36-.33-2.41.92-2.04h1.84v2.04h5.061c0-1.02 0-2.04 0-3.06-1.08 0-2.15 0-3.22 0-.711 2.14 2.38.08 2.3 1.53-.54.58-1.63.58-2.761.51 0-.68 0-1.36 0-2.04-1.69 0-3.37 0-5.06 0zm-9.2 0v3.06h2.76c.721-2.16-2.55.11-1.84-2.04h2.761v2.04h5.06c-.44-1.55.98-5.18-.92-5.11-1.33.23.41 3.86-.92 4.09-.38-1.28.899-4.4-.92-4.09-1.33.23.41 3.86-.92 4.09 0-1.36 0-2.72 0-4.09-.46 0-.92 0-1.38 0 .839 2.98-2.011 1.86-3.681 2.05zm-9.19 0v3.06c1.38-.51.87-3.11 3.68-2.04v2.04h4.59c0-1.02 0-2.04 0-3.06-.92 0-1.84 0-2.75 0-.72 2.15 2.55-.12 1.83 2.04-.92 0-1.83 0-2.75 0 0-.68 0-1.36 0-2.04-1.54 0-3.07 0-4.6 0zm0-1.03h11.949c-1.909-1.68-10.039-1.68-11.949 0zm-9.66 1.03v3.06h3.22c.71-2.16-2.55.11-1.84-2.04h2.76v2.04h4.601c-.44-1.55.979-5.18-.92-5.11-.28 1.23.569 3.71-.461 4.09-1.039-.38-.18-2.86-.46-4.09-2.149-.51.08 3.84-1.38 4.09-1.46-.25.771-4.6-1.38-4.09.59 2.87-2.29 1.88-4.14 2.05zm3.22-2.05c-4.14 0-8.28 0-12.42 0 2.07 1.69 10.36 1.69 12.42 0zm-12.42 2.05c.28 1.05-.74 3.54.92 3.06 1.25.36-.33-2.41.92-2.04h1.84v2.04h5.061c0-1.02 0-2.04 0-3.06-1.07 0-2.15 0-3.22 0-.711 2.15 2.55-.12 1.84 2.04-.771 0-1.53 0-2.301 0 0-.68 0-1.36 0-2.04-1.68 0-3.37 0-5.06 0zm-9.19 0v3.06h2.761c.71-2.16-2.561.11-1.84-2.04h2.76v2.04h4.59c-.44-1.55.99-5.18-.91-5.11-.29 1.23.57 3.71-.47 4.09-1.03-.38-.18-2.86-.45-4.09-2.16-.51.08 3.84-1.39 4.09-1.46-.25.779-4.6-1.37-4.09.839 2.98-2.011 1.86-3.681 2.05zm-9.2 0v3.06c1.38-.51.87-3.11 3.68-2.04v2.04h4.6c0-1.02 0-2.04 0-3.06-.92 0-1.84 0-2.76 0-.72 2.15 2.55-.12 1.84 2.04-.92 0-1.84 0-2.76 0 0-.68 0-1.36 0-2.04-1.54 0-3.07 0-4.6 0zm11.96-1.03c-1.92-1.68-10.04-1.68-11.96 0zm-12.88-3.06c1.56 2.73 6.8-.01 10.119 0 19.61.07 39.7 1.02 60.24 1.02 9.61 0 19.86-.85 29.94-1 .75-.01 1.5-.02 2.25-.02 1.6-.01 3.37 1.02 5.05 1.02 19.58 0 40.42-.95 60.25-1.02 1.6-.01 3.37 1.02 5.05 1.02 7.351 0 15.19-.99 23-1.02 2.13-.01 4.48 1.22 6.74 1.25v.81c-1.04.49.51 3.85-.76 4.07-1.471-.25.77-4.6-1.391-4.09.851 2.98-2 1.86-3.67 2.05v3.06h2.75c.721-2.16-2.55.11-1.84-2.04h2.76v2.04h2.15v36.25c-67.55 0-135.09 0-202.64 0 .002-14.47.002-28.93.002-43.4z" fill="#ed1e29"/><path d="m608.53 93.86c-1.66.48-.641-2.01-.92-3.07h5.06v2.05h2.76c.71-2.16-2.56.11-1.84-2.05h2.76v3.07c-1.54 0-3.069 0-4.6 0 0-.68 0-1.36 0-2.05-.77 0-1.54 0-2.3 0-1.25-.36.33 2.41-.92 2.05z" fill="#fff"/><path d="m794.31 88.75c2.061 1.69 10.351 1.69 12.41 0-4.13 0-8.27 0-12.41 0zm0 2.04c.28 1.06-.739 3.55.921 3.07 1.25.36-.33-2.41.92-2.05h1.84v2.05h5.06c0-1.02 0-2.05 0-3.07-1.08 0-2.149 0-3.22 0-.7 2.32 3-.26 2.3 2.05-.92 0-1.84 0-2.76 0 0-.69 0-1.37 0-2.05-1.691 0-3.371 0-5.061 0zm-5.52-2.04c.84 2.98-2.01 1.86-3.68 2.04v3.07h3.22c.71-2.16-2.55.11-1.84-2.05h2.3v2.05h5.06c-.439-1.55.98-5.18-.92-5.11-1.33.23.41 3.86-.92 4.09-.38-1.28.891-4.4-.92-4.09-1.33.23.41 3.86-.92 4.09 0-1.37 0-2.73 0-4.09-.46 0-.92 0-1.38 0zm-12.87 5.11c1.37-.51.87-3.12 3.68-2.05v2.05h4.591c0-1.02 0-2.05 0-3.07-.921 0-1.841 0-2.761 0-.71 2.16 2.561-.11 1.84 2.05-.92 0-1.84 0-2.76 0 0-.69 0-1.37 0-2.05-1.529 0-3.06 0-4.59 0zm0-5.11c2.061 1.69 10.35 1.69 12.41 0-4.14 0-8.28 0-12.41 0zm-9.66 2.04v3.07h3.221c.71-2.16-2.561.11-1.841-2.05h2.761v2.05h4.6c-.44-1.55.98-5.18-.92-5.11-.28 1.23.57 3.71-.47 4.09-1.03-.38-.17-2.86-.45-4.09-2.16-.51.08 3.84-1.38 4.09-1.471-.25.77-4.6-1.38-4.09.869 3.18-2.421 1.74-4.141 2.04zm-9.2 0c.28 1.06-.739 3.55.921 3.07 1.25.36-.33-2.41.92-2.05h1.84v2.05h5.06c0-1.02 0-2.05 0-3.07-1.069 0-2.149 0-3.22 0-.71 2.16 2.55-.11 1.84 2.05-.77 0-1.53 0-2.3 0 0-.69 0-1.37 0-2.05-1.691 0-3.371 0-5.061 0zm0-2.04c2.07 1.69 10.351 1.69 12.421 0-4.141 0-8.281 0-12.421 0zm-9.2 2.04v3.07h2.76c.72-2.16-2.55.11-1.84-2.05h2.76v2.05h5.06c-.439-1.55.99-5.18-.92-5.11-1.33.23.41 3.86-.92 4.09-.38-1.28.9-4.4-.92-4.09-1.33.23.41 3.86-.92 4.09-1.46-.25.771-4.6-1.38-4.09.84 2.98-2 1.86-3.68 2.04zm-9.19 3.07c1.38-.51.87-3.12 3.67-2.05v2.05h4.601c0-1.02 0-2.05 0-3.07-.921 0-1.841 0-2.761 0-.71 2.16 2.561-.11 1.84 2.05-.92 0-1.84 0-2.76 0 0-.69 0-1.37 0-2.05-1.529 0-3.06 0-4.59 0zm11.95-4.09c-1.91-1.69-10.04-1.69-11.95 0zm-21.61 4.09h3.221c.71-2.16-2.551.11-1.841-2.05h2.301v2.05h5.06c-.45-1.55.98-5.18-.92-5.11-.38 1.29.89 4.4-.92 4.09-.38-1.28.89-4.4-.92-4.09-1.33.23.41 3.86-.92 4.09 0-1.37 0-2.73 0-4.09-.46 0-.92 0-1.38 0 .84 2.98-2.011 1.86-3.681 2.04zm-9.2-3.07v3.07c1.381-.51.881-3.12 3.681-2.05v2.05h5.06c0-1.02 0-2.05 0-3.07-1.069 0-2.14 0-3.22 0-.71 2.16 2.55-.11 1.84 2.05-.76 0-1.53 0-2.3 0 0-.69 0-1.37 0-2.05-1.691 0-3.371 0-5.061 0zm0-2.04c2.07 1.69 10.351 1.69 12.421 0-4.141 0-8.281 0-12.421 0zm-5.51 0c.84 2.98-2.02 1.86-3.68 2.04v3.07h2.76c.71-2.16-2.56.11-1.84-2.05h2.76v2.05h4.59c-.439-1.55.99-5.18-.92-5.11-.279 1.23.58 3.71-.46 4.09-1.029-.38-.18-2.86-.46-4.09-2.149-.51.08 3.84-1.38 4.09-1.46-.25.78-4.6-1.37-4.09zm-13.34 0c2.06 1.69 10.35 1.69 12.42 0-4.14 0-8.28 0-12.42 0zm0 2.04c.28 1.06-.74 3.55.92 3.07 1.25.36-.33-2.41.92-2.05h2.3v2.05h4.601c0-1.02 0-2.05 0-3.07-.92 0-1.84 0-2.76 0-.721 2.16 2.55-.11 1.84 2.05-.92 0-1.84 0-2.761 0 0-.69 0-1.37 0-2.05-1.69 0-3.37 0-5.06 0zm-5.52-2.04c.84 2.98-2.011 1.86-3.681 2.04v3.07h3.221c.71-2.16-2.551.11-1.841-2.05h2.301v2.05h5.06c-.44-1.55.98-5.18-.92-5.11-1.33.23.41 3.86-.92 4.09-.38-1.28.89-4.4-.92-4.09-1.33.23.41 3.86-.92 4.09 0-1.37 0-2.73 0-4.09-.46 0-.92 0-1.38 0zm-12.88 5.11c1.381-.51.881-3.12 3.681-2.05v2.05h5.06c0-1.02 0-2.05 0-3.07-1.069 0-2.14 0-3.22 0-.71 2.16 2.56-.11 1.84 2.05-.92 0-1.84 0-2.76 0 0-.69 0-1.37 0-2.05-1.53 0-3.061 0-4.601 0zm0-5.11c2.07 1.69 10.36 1.69 12.421 0-4.141 0-8.281 0-12.421 0zm-5.52 0c.85 2.98-2 1.86-3.67 2.04v3.07h2.76c.71-2.16-2.56.11-1.84-2.05h2.75v2.05h4.6c-.439-1.55.99-5.18-.92-5.11-.27 1.23.58 3.71-.45 4.09-1.039-.38-.189-2.86-.47-4.09-2.149-.51.09 3.84-1.37 4.09-1.47-.25.77-4.6-1.39-4.09zm-13.33 0c2.06 1.69 10.35 1.69 12.42 0-4.14 0-8.28 0-12.42 0zm0 2.04c.28 1.06-.74 3.55.92 3.07 1.25.36-.33-2.41.92-2.05h1.84v2.05h5.061c0-1.02 0-2.05 0-3.07-1.08 0-2.15 0-3.22 0-.711 2.16 2.55-.11 1.84 2.05-.771 0-1.53 0-2.301 0 0-.69 0-1.37 0-2.05-1.69 0-3.37 0-5.06 0zm-5.52-2.04c.84 2.98-2.011 1.86-3.681 2.04v3.07h3.221c.71-2.31-3 .27-2.301-2.05h2.761v2.05h5.06c-.44-1.55.98-5.18-.92-5.11-1.33.23.41 3.86-.92 4.09-.38-1.28.899-4.4-.92-4.09-1.33.23.41 3.86-.92 4.09 0-1.37 0-2.73 0-4.09-.46 0-.92 0-1.38 0zm-12.87 0c2.06 1.69 10.35 1.69 12.41 0-4.14 0-8.27 0-12.41 0zm0 5.11c1.38-.51.87-3.12 3.68-2.05v2.05h4.59c0-1.02 0-2.05 0-3.07-.92 0-1.84 0-2.75 0-.72 2.16 2.55-.11 1.83 2.05-.92 0-1.83 0-2.75 0 0-.69 0-1.37 0-2.05-1.54 0-3.07 0-4.6 0zm-6.44-5.11c-4.14 0-8.28 0-12.42 0 2.07 1.69 10.36 1.69 12.42 0zm-31.27 0c2.06 1.69 10.35 1.69 12.42 0-4.14 0-8.28 0-12.42 0zm0 2.04c.279 1.06-.74 3.55.92 3.07 1.25.36-.33-2.41.92-2.05h2.3v2.05h4.6c0-1.02 0-2.05 0-3.07-.92 0-1.84 0-2.76 0-.72 2.16 2.55-.11 1.84 2.05-.92 0-1.84 0-2.76 0 0-.69 0-1.37 0-2.05-1.69 0-3.38 0-5.06 0zm0 5.11c-1.07-13.45-.16-29.1-.46-43.4h202.64v36.27c-1.04.49.51 3.85-.76 4.07-1.471-.25.77-4.6-1.391-4.09.851 2.98-2 1.86-3.67 2.04v3.07h2.75c.721-2.16-2.55.11-1.84-2.05h2.76v2.05h2.15v1.59c-8.07-.95-16.5-.9-24.68.45-1.9-1.57-8.21-1.57-10.11 0-7.45-1.44-18.72-1.52-27.14 0-9.061-1.38-18.721-1.54-28.051 0-1.899-1.57-8.21-1.57-10.109 0-.24-.11-.47-.21-.71-.31-5.48-2.12-11.601.3-17.23.31-2.62 0-6.979-2.99-9.2 0-1.899-1.57-8.21-1.57-10.109 0-9.141-1.53-18.38-1.4-28.05 0-.78-1.01-1.74-1.34-2.761-1.34v-.7h2.761c-.44-1.55.979-5.18-.92-5.11-.28 1.23.569 3.71-.461 4.09-1.039-.38-.18-2.86-.46-4.09-2.35-.56.5 4.65-1.84 4.09 0-1.37 0-2.73 0-4.09-.46 0-.92 0-1.38 0 .84 2.98-2.01 1.86-3.68 2.04v3.07h-.46c0-1.02 0-2.05 0-3.07-1.07 0-2.15 0-3.22 0-.711 2.16 2.55-.11 1.84 2.05-.771 0-1.53 0-2.301 0 0-.69 0-1.37 0-2.05-1.68 0-3.369 0-5.06 0l-.37-.02c.07-1.12-.03-2.05-1.01-2.02-1.33.23.41 3.86-.92 4.09-1.03-.38-.18-2.86-.45-4.09-2.16-.51.08 3.84-1.39 4.09-1.46-.25.779-4.6-1.37-4.09.84 2.98-2.01 1.86-3.681 2.04v3.07h2.761l.01.71c-.97.04-1.91.39-2.771 1.33-1.547-1.28-8.227-1.97-9.657 0z" fill="#58b947"/><path d="m699.58 103.05c-11.65.93-12.87 24.37-3.22 27.06-6.63-6.39-3.57-23.67 3.22-27.06zm-92.43-50.55c.3 14.3-.61 29.95.46 43.4 1.43-1.97 8.109-1.28 9.659 0 .86-.94 1.801-1.29 2.771-1.33 2.13-.08 4.43 1.34 6.42 1.33 1.55 0 3.1-1.05 4.6-1.02 1.62.03 3.11 1.02 4.601 1.02 1.63 0 3.93-1.34 5.979-1.34 1.021 0 1.98.33 2.761 1.34 9.67-1.4 18.909-1.53 28.05 0 1.899-1.57 8.21-1.57 10.109 0 2.221-2.99 6.58 0 9.2 0 5.63-.01 11.75-2.43 17.23-.31l-2.05 3.88c-.391 2.72-3.271 1.02-4.141 0-.05 1.93.9 2.75 2.3 3.07.95-.61 1.54-.75 2.11-.69l-.07 1.08c-.51.14-.89.73-2.04 1.14.78 7.98.351 17.31.46 26.04-7.449-3.38-8.699-18.93-5.06-26.04-7.5 7.13-4.85 25.6 3.68 29.1-1.43 1.31-4.77.49-6.439 1.53 3.76 1.35 8.62-1.18 9.66 2.56l.05 2.57c-10.08.15-20.33 1-29.94 1-20.54 0-40.63-.95-60.24-1.02-3.319-.01-8.56 2.73-10.119 0v43.4h202.64v1.02c-67.74 0-135.49 0-203.23 0l-.329-36.36c0-31.62 0-63.24 0-94.86-.04-.72-.07-1.45.449-1.53h203.11v1.02c-67.551 0-135.091 0-202.641 0z" fill="#fff"/><path d="m606.23 147.87.329 36.36c-.109 0-.22 0-.329 0 0-12.12 0-24.24 0-36.36z" fill="#fff"/><path d="m605.33 50.48h208.72v13.29l-.89.5c0-3.92 0-7.84 0-11.77-1.12 0-2.25 0-3.37 0 0-.34 0-.68 0-1.02-67.71 0-135.41 0-203.11 0-.52.08-.489.81-.449 1.53v94.86z" fill="#fff"/><path d="m597.05 42.79c-2.609 0-5.05-.53-7.13-1.46-3.93-1.75-6.56-4.91-6.56-8.52 0-5.51 6.13-9.98 13.689-9.98 7.561 0 13.69 4.47 13.69 9.98 0 3.53-2.5 6.62-6.28 8.4-2.139 1-4.679 1.58-7.409 1.58z" fill="#c8c8c8"/><path d="m597.05 42.79c2.73 0 5.271-.58 7.41-1.58v240.16h-14.14l-.4-240.04c2.08.93 4.52 1.46 7.13 1.46z" fill="#c8c8c8"/><path d="m304.61 563.42c-.01.22-.06.4-.13.57-.05-.26-.09-.53-.12-.811.09.081.18.161.25.241z" fill="#fff"/><path d="m300.58 562.08c-1.33.61-2.46 1.43-3.59 2.25.22-1.6 1.85-2.25 3.59-2.25z" fill="#fff"/><path d="m296.99 564.33c1.13-.82 2.26-1.64 3.59-2.25 0-.01 0-.01.01 0 1.43 0 2.94.43 3.77 1.1.03.28.07.551.12.811-.82 1.92-5.45.04-7.52.71 0-.131.01-.251.03-.371z" fill="#fff"/><g fill="none"><path d="m605.33 50.48h208.72v13.29 76.04 46.63h-207.47" stroke="#231f20" stroke-width="7.5168"/><path d="m589.92 41.33c-3.93-1.75-6.56-4.91-6.56-8.52 0-5.51 6.13-9.98 13.689-9.98 7.561 0 13.69 4.47 13.69 9.98 0 3.53-2.5 6.62-6.28 8.4-2.14 1-4.68 1.58-7.41 1.58-2.609 0-5.049-.53-7.129-1.46z" stroke="#231f20" stroke-width="7.5168"/><path d="m589.92 41.06v.27l.4 240.04" stroke="#231f20" stroke-width="7.5168"/><path d="m604.46 40.55v.66 240.16" stroke="#231f20" stroke-width="7.5168"/><path d="m813.16 64.27.89-.5.72-.41" stroke="#231f20" stroke-width="5.0112"/><path d="m809.79 183.21v1.02c-67.74 0-135.49 0-203.23 0-.109 0-.22 0-.329 0 0-12.12 0-24.24 0-36.36 0-31.62 0-63.24 0-94.86-.04-.72-.07-1.45.449-1.53h203.11v1.02" stroke="#231f20" stroke-width=".3548"/><path d="m809.79 95.45v45.61" stroke="#231f20" stroke-width=".3548"/><path d="m707.21 101.85c-.57-.06-1.16.08-2.11.69-1.399-.32-2.35-1.14-2.3-3.07.87 1.02 3.75 2.72 4.141 0 .84 1.38 3.569 2.45 4.14 0 1.33.87-.41 2.57-.92 3.07-1.481-.17-2.191-.61-2.951-.69z" stroke="#231f20" stroke-width=".3586"/><path d="m715.22 103.56c10.141.14 12.891 21.7 3.67 27.06 4.25-6.66 4.09-22.98-3.67-27.06z" stroke="#231f20" stroke-width=".3586"/><path d="m707.4 137.26c-1.04-3.74-5.9-1.21-9.66-2.56 1.67-1.04 5.01-.22 6.439-1.53-8.529-3.5-11.18-21.97-3.68-29.1-3.64 7.11-2.39 22.66 5.06 26.04-.109-8.73.32-18.06-.46-26.04 1.15-.41 1.53-1 2.04-1.14.37-.1.811.03 1.641.63 1.399 8.39-.58 17.38 0 26.55 6.66-3.15 9.939-18.07 4.6-25.53 7.71 3.72 6.21 26.16-3.22 28.08 1.3 1.45 3.77 1.6 6.43 1.54-2.57 2.65-8.79-1.38-9.19 3.06z" stroke="#231f20" stroke-width=".3586"/><path d="m696.36 130.11c-9.65-2.69-8.431-26.13 3.22-27.06-6.79 3.39-9.85 20.67-3.22 27.06z" stroke="#231f20" stroke-width=".3586"/><path d="m809.79 52.5h3.37v11.77 31.63c-1.11-.17-2.24-.32-3.37-.45-8.07-.95-16.5-.9-24.68.45-1.9-1.57-8.21-1.57-10.11 0-7.45-1.44-18.72-1.52-27.14 0-9.061-1.38-18.721-1.54-28.051 0-1.899-1.57-8.21-1.57-10.109 0-.24-.11-.47-.21-.71-.31-5.48-2.12-11.601.3-17.23.31-2.62 0-6.979-2.99-9.2 0-1.899-1.57-8.21-1.57-10.109 0-9.141-1.53-18.38-1.4-28.05 0-.78-1.01-1.74-1.34-2.761-1.34-2.05 0-4.35 1.34-5.979 1.34-1.49 0-2.98-.99-4.601-1.02-1.5-.03-3.05 1.02-4.6 1.02-1.99.01-4.29-1.41-6.42-1.33-.97.04-1.91.39-2.771 1.33-1.55-1.28-8.229-1.97-9.659 0-1.07-13.45-.16-29.1-.46-43.4z" stroke="#231f20" stroke-width=".3586"/><path d="m607.61 88.75c2.06 1.69 10.35 1.69 12.42 0-4.14 0-8.28 0-12.42 0z" stroke="#231f20" stroke-width=".3586"/><path d="m626.09 90.77c.07-1.12-.03-2.05-1.01-2.02-1.33.23.41 3.86-.92 4.09-1.03-.38-.18-2.86-.45-4.09-2.16-.51.08 3.84-1.39 4.09-1.46-.25.779-4.6-1.37-4.09.84 2.98-2.01 1.86-3.681 2.04v3.07h2.761c.71-2.16-2.561.11-1.84-2.05h2.76v2.05h5.05c-.21-.76.02-2.02.09-3.09z" stroke="#231f20" stroke-width=".3586"/><path d="m626.46 88.75c2.07 1.69 10.36 1.69 12.42 0-4.14 0-8.28 0-12.42 0z" stroke="#231f20" stroke-width=".3586"/><path d="m641.64 93.86h2.761c-.44-1.55.979-5.18-.92-5.11-.28 1.23.569 3.71-.461 4.09-1.039-.38-.18-2.86-.46-4.09-2.35-.56.5 4.65-1.84 4.09 0-1.37 0-2.73 0-4.09-.46 0-.92 0-1.38 0 .84 2.98-2.01 1.86-3.68 2.04v3.07h3.22c.71-2.16-2.55.11-1.84-2.05h2.3v2.05z" stroke="#231f20" stroke-width=".3586"/><path d="m645.32 88.75c2.06 1.69 10.35 1.69 12.41 0-4.14 0-8.27 0-12.41 0z" stroke="#231f20" stroke-width=".3586"/><path d="m663.25 93.86c-.44-1.55.98-5.18-.92-5.11-1.33.23.41 3.86-.92 4.09-.38-1.28.899-4.4-.92-4.09-1.33.23.41 3.86-.92 4.09 0-1.37 0-2.73 0-4.09-.46 0-.92 0-1.38 0 .84 2.98-2.011 1.86-3.681 2.04v3.07h3.221c.71-2.31-3 .27-2.301-2.05h2.761v2.05z" stroke="#231f20" stroke-width=".3586"/><path d="m663.71 88.75c2.06 1.69 10.35 1.69 12.42 0-4.14 0-8.28 0-12.42 0z" stroke="#231f20" stroke-width=".3586"/><path d="m680.72 88.75c-.27 1.23.58 3.71-.45 4.09-1.039-.38-.189-2.86-.47-4.09-2.149-.51.09 3.84-1.37 4.09-1.47-.25.771-4.6-1.39-4.09.85 2.98-2 1.86-3.67 2.04v3.07h2.76c.71-2.16-2.56.11-1.84-2.05h2.75v2.05h4.6c-.44-1.55.99-5.18-.92-5.11z" stroke="#231f20" stroke-width=".3586"/><path d="m682.56 88.75c2.07 1.69 10.36 1.69 12.421 0-4.141 0-8.281 0-12.421 0z" stroke="#231f20" stroke-width=".3586"/><path d="m700.5 93.86c-.44-1.55.98-5.18-.92-5.11-1.33.23.41 3.86-.92 4.09-.38-1.28.89-4.4-.92-4.09-1.33.23.41 3.86-.92 4.09 0-1.37 0-2.73 0-4.09-.46 0-.92 0-1.38 0 .84 2.98-2.011 1.86-3.681 2.04v3.07h3.221c.71-2.16-2.551.11-1.841-2.05h2.301v2.05z" stroke="#231f20" stroke-width=".3586"/><path d="m700.96 88.75c2.06 1.69 10.35 1.69 12.42 0-4.14 0-8.28 0-12.42 0z" stroke="#231f20" stroke-width=".3586"/><path d="m710.62 90.79v3.07h2.76c.71-2.16-2.56.11-1.84-2.05h2.76v2.05h4.59c-.439-1.55.99-5.18-.92-5.11-.279 1.23.58 3.71-.46 4.09-1.029-.38-.18-2.86-.46-4.09-2.149-.51.08 3.84-1.38 4.09-1.46-.25.78-4.6-1.37-4.09.84 2.98-2.02 1.86-3.68 2.04z" stroke="#231f20" stroke-width=".3586"/><path d="m719.81 88.75c2.07 1.69 10.351 1.69 12.421 0-4.141 0-8.281 0-12.421 0z" stroke="#231f20" stroke-width=".3586"/><path d="m732.69 88.75c.84 2.98-2.011 1.86-3.681 2.04v3.07h3.221c.71-2.16-2.551.11-1.841-2.05h2.301v2.05h5.06c-.45-1.55.98-5.18-.92-5.11-.38 1.29.89 4.4-.92 4.09-.38-1.28.89-4.4-.92-4.09-1.33.23.41 3.86-.92 4.09 0-1.37 0-2.73 0-4.09-.46 0-.92 0-1.38 0z" stroke="#231f20" stroke-width=".3586"/><path d="m750.62 89.77c-1.91-1.69-10.04-1.69-11.95 0z" stroke="#231f20" stroke-width=".3586"/><path d="m748.78 91.81h2.76v2.05h5.06c-.439-1.55.99-5.18-.92-5.11-1.33.23.41 3.86-.92 4.09-.38-1.28.9-4.4-.92-4.09-1.33.23.41 3.86-.92 4.09-1.46-.25.771-4.6-1.38-4.09.84 2.98-2 1.86-3.68 2.04v3.07h2.76c.72-2.16-2.55.11-1.84-2.05z" stroke="#231f20" stroke-width=".3586"/><path d="m757.06 88.75c2.07 1.69 10.351 1.69 12.421 0-4.141 0-8.281 0-12.421 0z" stroke="#231f20" stroke-width=".3586"/><path d="m766.26 90.79v3.07h3.221c.71-2.16-2.561.11-1.841-2.05h2.761v2.05h4.6c-.44-1.55.98-5.18-.92-5.11-.28 1.23.57 3.71-.47 4.09-1.03-.38-.17-2.86-.45-4.09-2.16-.51.08 3.84-1.38 4.09-1.471-.25.77-4.6-1.38-4.09.869 3.18-2.421 1.74-4.141 2.04z" stroke="#231f20" stroke-width=".3586"/><path d="m775.92 88.75c2.061 1.69 10.35 1.69 12.41 0-4.14 0-8.28 0-12.41 0z" stroke="#231f20" stroke-width=".3586"/><path d="m788.79 88.75c.84 2.98-2.01 1.86-3.68 2.04v3.07h3.22c.71-2.16-2.55.11-1.84-2.05h2.3v2.05h5.06c-.439-1.55.98-5.18-.92-5.11-1.33.23.41 3.86-.92 4.09-.38-1.28.891-4.4-.92-4.09-1.33.23.41 3.86-.92 4.09 0-1.37 0-2.73 0-4.09-.46 0-.92 0-1.38 0z" stroke="#231f20" stroke-width=".3586"/><path d="m806.72 88.75c-4.13 0-8.27 0-12.41 0 2.06 1.69 10.35 1.69 12.41 0z" stroke="#231f20" stroke-width=".3586"/><path d="m809.79 88.77c-1.04.49.51 3.85-.76 4.07-1.471-.25.77-4.6-1.391-4.09.851 2.98-2 1.86-3.67 2.04v3.07h2.75c.721-2.16-2.55.11-1.84-2.05h2.76v2.05h2.15 2.45c-.44-1.55.99-5.18-.92-5.11-.28 1.23.58 3.71-.45 4.09-1.04-.38-.19-2.86-.47-4.09-.269-.06-.469-.05-.609.02z" stroke="#231f20" stroke-width=".3586"/><path d="m613.59 90.79c-.72 2.16 2.55-.11 1.84 2.05-.92 0-1.84 0-2.76 0 0-.69 0-1.37 0-2.05-1.689 0-3.38 0-5.06 0 .279 1.06-.74 3.55.92 3.07 1.25.36-.33-2.41.92-2.05h2.3v2.05h4.6c0-1.02 0-2.05 0-3.07-.92 0-1.84 0-2.76 0z" stroke="#231f20" stroke-width=".3586"/><path d="m626.46 90.79c.28 1.06-.74 3.55.92 3.07 1.25.36-.33-2.41.92-2.05h1.84v2.05h5.061c0-1.02 0-2.05 0-3.07-1.07 0-2.15 0-3.22 0-.711 2.16 2.55-.11 1.84 2.05-.771 0-1.53 0-2.301 0 0-.69 0-1.37 0-2.05-1.68 0-3.37 0-5.06 0z" stroke="#231f20" stroke-width=".3586"/><path d="m653.59 93.86c0-1.02 0-2.05 0-3.07-.92 0-1.84 0-2.75 0-.72 2.16 2.55-.11 1.83 2.05-.92 0-1.83 0-2.75 0 0-.69 0-1.37 0-2.05-1.54 0-3.07 0-4.6 0v3.07c1.38-.51.87-3.12 3.68-2.05v2.05z" stroke="#231f20" stroke-width=".3586"/><path d="m669.23 90.79c-.711 2.16 2.55-.11 1.84 2.05-.771 0-1.53 0-2.301 0 0-.69 0-1.37 0-2.05-1.689 0-3.369 0-5.06 0 .28 1.06-.74 3.55.92 3.07 1.25.36-.33-2.41.92-2.05h1.84v2.05h5.061c0-1.02 0-2.05 0-3.07-1.08 0-2.15 0-3.22 0z" stroke="#231f20" stroke-width=".3586"/><path d="m688.08 90.79c-.71 2.16 2.56-.11 1.84 2.05-.92 0-1.84 0-2.76 0 0-.69 0-1.37 0-2.05-1.53 0-3.061 0-4.601 0v3.07c1.381-.51.881-3.12 3.681-2.05v2.05h5.06c0-1.02 0-2.05 0-3.07-1.07 0-2.14 0-3.22 0z" stroke="#231f20" stroke-width=".3586"/><path d="m709.7 93.86c0-1.02 0-2.05 0-3.07-.92 0-1.84 0-2.76 0-.721 2.16 2.55-.11 1.84 2.05-.92 0-1.84 0-2.761 0 0-.69 0-1.37 0-2.05-1.689 0-3.369 0-5.06 0 .28 1.06-.74 3.55.92 3.07 1.25.36-.33-2.41.92-2.05h2.3v2.05z" stroke="#231f20" stroke-width=".3586"/><path d="m723.49 91.81v2.05h5.06c0-1.02 0-2.05 0-3.07-1.069 0-2.14 0-3.22 0-.71 2.16 2.55-.11 1.84 2.05-.76 0-1.53 0-2.3 0 0-.69 0-1.37 0-2.05-1.69 0-3.37 0-5.061 0v3.07c1.381-.51.881-3.12 3.681-2.05z" stroke="#231f20" stroke-width=".3586"/><path d="m738.67 90.79v3.07c1.38-.51.87-3.12 3.67-2.05v2.05h4.601c0-1.02 0-2.05 0-3.07-.921 0-1.841 0-2.761 0-.71 2.16 2.561-.11 1.84 2.05-.92 0-1.84 0-2.76 0 0-.69 0-1.37 0-2.05-1.53 0-3.06 0-4.59 0z" stroke="#231f20" stroke-width=".3586"/><path d="m757.06 90.79c.28 1.06-.739 3.55.921 3.07 1.25.36-.33-2.41.92-2.05h1.84v2.05h5.06c0-1.02 0-2.05 0-3.07-1.069 0-2.149 0-3.22 0-.71 2.16 2.55-.11 1.84 2.05-.77 0-1.53 0-2.3 0 0-.69 0-1.37 0-2.05-1.691 0-3.371 0-5.061 0z" stroke="#231f20" stroke-width=".3586"/><path d="m779.6 91.81v2.05h4.591c0-1.02 0-2.05 0-3.07-.921 0-1.841 0-2.761 0-.71 2.16 2.561-.11 1.84 2.05-.92 0-1.84 0-2.76 0 0-.69 0-1.37 0-2.05-1.529 0-3.06 0-4.59 0v3.07c1.37-.51.87-3.12 3.68-2.05z" stroke="#231f20" stroke-width=".3586"/><path d="m794.31 90.79c.28 1.06-.739 3.55.921 3.07 1.25.36-.33-2.41.92-2.05h1.84v2.05h5.06c0-1.02 0-2.05 0-3.07-1.08 0-2.149 0-3.22 0-.7 2.32 3-.26 2.3 2.05-.92 0-1.84 0-2.76 0 0-.69 0-1.37 0-2.05-1.691 0-3.371 0-5.061 0z" stroke="#231f20" stroke-width=".3586"/><path d="m809.79 183.21c-67.55 0-135.09 0-202.64 0 0-14.47 0-28.93 0-43.4 1.56 2.73 6.8-.01 10.119 0 19.61.07 39.7 1.02 60.24 1.02 9.61 0 19.86-.85 29.94-1 .75-.01 1.5-.02 2.25-.02 1.6-.01 3.37 1.02 5.05 1.02 19.58 0 40.42-.95 60.25-1.02 1.6-.01 3.37 1.02 5.05 1.02 7.351 0 15.19-.99 23-1.02 2.13-.01 4.48 1.22 6.74 1.25 1.16.01 2.3-.29 3.37-1.25v43.4c-1.119 0-2.249 0-3.369 0z" stroke="#231f20" stroke-width=".3586"/><path d="m620.03 142.87c-1.92-1.68-10.04-1.68-11.96 0z" stroke="#231f20" stroke-width=".3586"/><path d="m625.54 146.96c-.44-1.55.99-5.18-.91-5.11-.29 1.23.57 3.71-.47 4.09-1.03-.38-.18-2.86-.45-4.09-2.16-.51.08 3.84-1.39 4.09-1.46-.25.779-4.6-1.37-4.09.84 2.98-2.01 1.86-3.681 2.05v3.06h2.761c.71-2.16-2.561.11-1.84-2.04h2.76v2.04z" stroke="#231f20" stroke-width=".3586"/><path d="m626.46 141.85c2.07 1.69 10.36 1.69 12.42 0-4.14 0-8.28 0-12.42 0z" stroke="#231f20" stroke-width=".3586"/><path d="m644.4 146.96c-.44-1.55.979-5.18-.92-5.11-.28 1.23.569 3.71-.461 4.09-1.039-.38-.18-2.86-.46-4.09-2.149-.51.08 3.84-1.38 4.09-1.46-.25.771-4.6-1.38-4.09.59 2.87-2.29 1.88-4.14 2.05v3.06h3.22c.71-2.16-2.55.11-1.84-2.04h2.76v2.04z" stroke="#231f20" stroke-width=".3586"/><path d="m657.27 142.87c-1.909-1.68-10.039-1.68-11.949 0z" stroke="#231f20" stroke-width=".3586"/><path d="m663.25 146.96c-.44-1.55.98-5.18-.92-5.11-1.33.23.41 3.86-.92 4.09-.38-1.28.899-4.4-.92-4.09-1.33.23.41 3.86-.92 4.09 0-1.36 0-2.72 0-4.09-.46 0-.92 0-1.38 0 .84 2.98-2.011 1.86-3.681 2.05v3.06h2.76c.721-2.16-2.55.11-1.84-2.04h2.761v2.04z" stroke="#231f20" stroke-width=".3586"/><path d="m676.13 141.85c-4.14 0-8.28 0-12.42 0 2.06 1.69 10.35 1.69 12.42 0z" stroke="#231f20" stroke-width=".3586"/><path d="m681.64 146.96c-.439-1.55.99-5.18-.92-5.11-.27 1.23.58 3.71-.45 4.09-1.039-.38-.189-2.86-.47-4.09-2.149-.51.09 3.84-1.37 4.09-1.47-.25.771-4.6-1.39-4.09.85 2.98-2 1.86-3.67 2.05v3.06h2.76c.71-2.16-2.56.11-1.84-2.04h2.75v2.04z" stroke="#231f20" stroke-width=".3586"/><path d="m682.56 141.85c2.07 1.69 10.36 1.69 12.421 0-4.141 0-8.281 0-12.421 0z" stroke="#231f20" stroke-width=".3586"/><path d="m699.58 141.85c-1.33.23.41 3.86-.92 4.09-.38-1.28.89-4.4-.92-4.09-1.33.23.41 3.86-.92 4.09 0-1.36 0-2.72 0-4.09-.46 0-.92 0-1.38 0 .84 2.98-2.011 1.86-3.681 2.05v3.06h3.221c.71-2.16-2.551.11-1.841-2.04h2.301v2.04h5.06c-.44-1.55.98-5.18-.92-5.11z" stroke="#231f20" stroke-width=".3586"/><path d="m700.96 141.85c2.06 1.69 10.35 1.69 12.42 0-4.14 0-8.28 0-12.42 0z" stroke="#231f20" stroke-width=".3586"/><path d="m714.3 141.85c.84 2.98-2.02 1.86-3.68 2.05v3.06h2.76c.71-2.16-2.56.11-1.84-2.04h2.76v2.04h4.59c-.439-1.55.99-5.18-.92-5.11-.279 1.23.58 3.71-.46 4.09-1.029-.38-.18-2.86-.46-4.09-2.149-.51.08 3.84-1.38 4.09-1.46-.25.78-4.6-1.37-4.09z" stroke="#231f20" stroke-width=".3586"/><path d="m719.81 141.85c2.07 1.69 10.351 1.69 12.421 0-4.141 0-8.281 0-12.421 0z" stroke="#231f20" stroke-width=".3586"/><path d="m729.01 143.9v3.06h3.221c.71-2.16-2.551.11-1.841-2.04h2.301v2.04h5.06c-.45-1.55.98-5.18-.92-5.11-.28 1.23.58 3.71-.46 4.09-1.04-.38-.18-2.86-.46-4.09-2.15-.34.2 4.31-1.84 4.09 0-1.36 0-2.72 0-4.09-.46 0-.92 0-1.38 0 .839 2.98-2.011 1.86-3.681 2.05z" stroke="#231f20" stroke-width=".3586"/><path d="m750.62 142.87c-1.91-1.68-10.04-1.68-11.95 0z" stroke="#231f20" stroke-width=".3586"/><path d="m751.54 141.85c.84 2.98-2 1.86-3.68 2.05v3.06h2.76c.72-2.16-2.55.11-1.84-2.04h2.76v2.04h5.06c-.439-1.55.99-5.18-.92-5.11-1.33.23.41 3.86-.92 4.09-1.229-.51.61-4.42-1.38-4.09-.28 1.23.58 3.71-.46 4.09-1.46-.25.77-4.6-1.38-4.09z" stroke="#231f20" stroke-width=".3586"/><path d="m757.06 141.85c2.07 1.69 10.351 1.69 12.421 0-4.141 0-8.281 0-12.421 0z" stroke="#231f20" stroke-width=".3586"/><path d="m769.48 146.96c.71-2.16-2.561.11-1.841-2.04h2.761v2.04h4.6c-.44-1.55.98-5.18-.92-5.11-.28 1.23.57 3.71-.47 4.09-1.03-.38-.17-2.86-.45-4.09-2.16-.51.08 3.84-1.38 4.09-1.471-.25.77-4.6-1.38-4.09.59 2.87-2.29 1.88-4.141 2.05v2.55c.591.7 2.001.5 3.221.51z" stroke="#231f20" stroke-width=".3586"/><path d="m775.92 141.85c2.061 1.69 10.35 1.69 12.41 0-4.14 0-8.28 0-12.41 0z" stroke="#231f20" stroke-width=".3586"/><path d="m788.33 146.96c.45-2.03-2.57-.21-2.3-2.04h2.76v2.04h5.06c-.439-1.55.98-5.18-.92-5.11-1.33.23.41 3.86-.92 4.09-.38-1.28.891-4.4-.92-4.09-1.33.23.41 3.86-.92 4.09 0-1.36 0-2.72 0-4.09-.46 0-.92 0-1.38 0 .84 2.98-2.01 1.86-3.68 2.05v3.06z" stroke="#231f20" stroke-width=".3586"/><path d="m806.72 141.85c-4.13 0-8.27 0-12.41 0 2.06 1.69 10.35 1.69 12.41 0z" stroke="#231f20" stroke-width=".3586"/><path d="m809.79 141.87c-1.04.49.51 3.85-.76 4.07-1.471-.25.77-4.6-1.391-4.09.851 2.98-2 1.86-3.67 2.05v3.06h2.75c.721-2.16-2.55.11-1.84-2.04h2.76v2.04h2.15 2.45c-.44-1.55.99-5.18-.92-5.11-.28 1.23.58 3.71-.45 4.09-1.04-.38-.19-2.86-.47-4.09-.269-.06-.469-.05-.609.02z" stroke="#231f20" stroke-width=".3586"/><path d="m613.59 143.9c-.72 2.15 2.55-.12 1.84 2.04-.92 0-1.84 0-2.76 0 0-.68 0-1.36 0-2.04-1.54 0-3.07 0-4.6 0v3.06c1.38-.51.87-3.11 3.68-2.04v2.04h4.6c0-1.02 0-2.04 0-3.06-.92 0-1.84 0-2.76 0z" stroke="#231f20" stroke-width=".3586"/><path d="m635.2 146.96c0-1.02 0-2.04 0-3.06-1.07 0-2.15 0-3.22 0-.711 2.15 2.55-.12 1.84 2.04-.771 0-1.53 0-2.301 0 0-.68 0-1.36 0-2.04-1.68 0-3.369 0-5.06 0 .28 1.05-.74 3.54.92 3.06 1.25.36-.33-2.41.92-2.04h1.84v2.04z" stroke="#231f20" stroke-width=".3586"/><path d="m653.59 143.9c-.92 0-1.84 0-2.75 0-.72 2.15 2.55-.12 1.83 2.04-.92 0-1.83 0-2.75 0 0-.68 0-1.36 0-2.04-1.54 0-3.07 0-4.6 0v3.06c1.38-.51.87-3.11 3.68-2.04v2.04h4.59c0-1.02 0-2.04 0-3.06z" stroke="#231f20" stroke-width=".3586"/><path d="m669.23 143.9c-.711 2.14 2.38.08 2.3 1.53-.54.58-1.63.58-2.761.51 0-.68 0-1.36 0-2.04-1.689 0-3.369 0-5.06 0 .28 1.05-.74 3.54.92 3.06 1.25.36-.33-2.41.92-2.04h1.84v2.04h5.061c0-1.02 0-2.04 0-3.06-1.08 0-2.15 0-3.22 0z" stroke="#231f20" stroke-width=".3586"/><path d="m688.08 143.9c-.71 2.15 2.56-.12 1.84 2.04-.92 0-1.84 0-2.76 0 0-.68 0-1.36 0-2.04-1.53 0-3.061 0-4.601 0v3.06c1.381-.51.881-3.11 3.681-2.04v2.04c1.689-.17 4.069.44 5.06-.51 0-.85 0-1.7 0-2.55-1.07 0-2.14 0-3.22 0z" stroke="#231f20" stroke-width=".3586"/><path d="m709.7 146.96c0-1.02 0-2.04 0-3.06-.92 0-1.84 0-2.76 0-.721 2.15 2.55-.12 1.84 2.04-.92 0-1.84 0-2.761 0 0-.68 0-1.36 0-2.04-1.689 0-3.369 0-5.06 0 .28 1.05-.74 3.54.92 3.06 1.25.36-.33-2.41.92-2.04h2.3v2.04z" stroke="#231f20" stroke-width=".3586"/><path d="m723.49 144.92v2.04h5.06c0-1.02 0-2.04 0-3.06-1.069 0-2.14 0-3.22 0-.71 2.15 2.55-.12 1.84 2.04-.76 0-1.53 0-2.3 0 0-.68 0-1.36 0-2.04-1.69 0-3.37 0-5.061 0v3.06c1.381-.51.881-3.11 3.681-2.04z" stroke="#231f20" stroke-width=".3586"/><path d="m738.67 146.96c1.38-.51.87-3.11 3.67-2.04v2.04h4.601c0-1.02 0-2.04 0-3.06-.921 0-1.841 0-2.761 0-.71 2.15 2.561-.12 1.84 2.04-.92 0-1.84 0-2.76 0 0-.68 0-1.36 0-2.04-1.529 0-3.06 0-4.59 0z" stroke="#231f20" stroke-width=".3586"/><path d="m757.06 143.9c.28 1.05-.739 3.54.921 3.06 1.25.36-.33-2.41.92-2.04h1.84v2.04h5.06c0-1.02 0-2.04 0-3.06-1.069 0-2.149 0-3.22 0-.71 2.15 2.55-.12 1.84 2.04-.77 0-1.53 0-2.3 0 0-.68 0-1.36 0-2.04-1.691 0-3.371 0-5.061 0z" stroke="#231f20" stroke-width=".3586"/><path d="m779.6 144.92v2.04h4.591c0-1.02 0-2.04 0-3.06-.921 0-1.841 0-2.761 0-.71 2.15 2.561-.12 1.84 2.04-.92 0-1.84 0-2.76 0 0-.68 0-1.36 0-2.04-1.529 0-3.06 0-4.59 0v3.06c1.37-.51.87-3.11 3.68-2.04z" stroke="#231f20" stroke-width=".3586"/><path d="m794.31 143.9c.28 1.05-.739 3.54.921 3.06 1.25.36-.33-2.41.92-2.04h1.84c-.04.89.1 1.58.46 2.04h4.6c0-1.02 0-2.04 0-3.06-.92 0-1.84 0-2.76 0-.72 2.15 2.55-.12 1.84 2.04-.92 0-1.84 0-2.76 0 0-.68 0-1.36 0-2.04-1.691 0-3.371 0-5.061 0z" stroke="#231f20" stroke-width=".3586"/><path d="m300.59 562.08c1.43 0 2.94.43 3.77 1.1" stroke="#231f20" stroke-width="7"/><path d="m304.48 563.99c-.82 1.92-5.45.04-7.52.71 0-.13.01-.25.03-.37" stroke="#231f20" stroke-width="7"/><path d="m304.48 563.99c2.08 11.59 18.51 14.74 15.08 30.22 1.67 2.47 6.75-2.55 7.65 2.55.51 3.05-5.8-.71-3.82 3.82 1.93 2.74 5.79 3.55 7.64 6.37 2.02 11.58 5.89 21.3 14.02 26.76 13.7.08 27.46 4.84 26.77 15.3 11.84 4.721 22.33 10.8 30.58 19.12 12.16-2.8 17.91 2.771 26.77 6.37 7.35-.6 13.15-12.38 19.11-6.37-3.33-.36-6.37-.439-5.101 3.82 7.95-.73 23.641-4.28 28.04-12.75-5.68-3.75-11.27 1.85-15.29 3.83 5.91-7.53 14.67-12.13 28.04-8.92 10.03 8.649 6.891 30.489 14.021 42.05 12.859.24 14.99 1.21 22.939 6.37 12.311-3.55 18.49.54 26.761 5.1 8.79-6.18 27.739 2.75 35.68 1.28-3.87-1.28-1.62-2.101 0-3.83 3.63 8.7 17.2 7.45 25.49 11.47 1.979-1.84 3.42-4.229 6.38-5.09-1.771-13.67 4.38-19.41 5.09-30.59 4.35-.32 6.13-3.22 11.47-2.55.66-9.69 15.271-8.801 22.94-7.65 3.46-4.18 1.25-14.04 5.1-17.84-3.55-5.22-10.56.3-15.29-2.55 4.94-7.48-1.569-22.73 0-30.58-3.6-1.061-3.3 1.79-6.38 1.27-5.88-9.71-18.41-7.729-25.479-19.12-3.19-5.13-2.46-10.479-6.381-16.56-3.029-4.71-12.81-11.2-12.739-14.021.069-2.8 9.12-8.409 12.739-12.75 8.431-10.1 17.421-21.46 11.471-34.409-8.09-2.521-20.851-.391-25.49-6.37 3.11-20.2-2.19-32.65-6.37-48.431 2.82-4.829 6.521-8.779 10.2-12.739-3.15-2.38-11.13.08-11.47-5.101.35-7.279-1.141-23.989 10.189-19.12.33-4.569-3.82-4.67-3.82-8.919 12.58-1.2 7.061-15.91 8.921-22.94.939-3.54 4.64-5.49 5.1-8.92 1.43-10.78-4.62-23.64-2.55-36.96-7.65 0-15.29 0-22.94 0-2.04-16.23-24.14-12.39-25.49-29.31-5.77-1.54-16.369-8.38-28.04-3.82-4.06-7.41-12.319-10.62-24.21-10.2-1.31-4.64-4.01-7.88-5.1-12.74-7.26 6.87-11.54-1.42-22.94 1.27-3.02 1.92-1.27 5.37-2.55 6.37-15.93-3.5-39.17.64-40.779 19.12-5.931 2.11-13.09 8.47-24.21 5.1-.29 6.23 3.88 8.01 3.82 14.02-34.58 6.69-76.87 20.86-98.13-7.65-1.02-2.38-2.13-4.67-2.55-7.65-22.7-1.09-39.15-8.43-35.69-35.68-4.06-1.09-3.94 2-6.37 2.55-3.2-10.61-12.65-7.51-16.57-17.84.93-2.9 8.82 1.17 7.65-3.83 3.27-2.94-4.88-5.24-5.1-8.92 1.91-1.92 7.27-.38 6.38-5.1-4.58-2.64-5.83-8.62-11.48-10.19-15.13 7.38-26.97 18.05-38.23 29.31-19.92 1.37-37.67-7.4-42.05-25.49-5.36-.72-5.93-8.2-11.47-5.1-2.43 3.53-.56 11.34-5.1 12.75-1.63-1.75-6.02-1.75-7.65 0 5.26 12.06 6.02 20.17 6.37 34.41 2.25 2.4 3.95-1.74 5.1 2.55-2.92 4.29-5.48 8.96-6.37 15.29 4.77.32 8.19 2 10.19 5.1-.4 2.99-2.01 4.78-1.27 8.92 8.11 4.26 7.53 13.89 7.65 22.94 8.55.65 2.34 8.31 6.37 12.74 7.61-1.66 6.33 5.57 6.37 11.47 5.06 1.61 8.59 2.78 12.75 7.65 7.23-1.53 10.36-.18 14.01 1.27-3.39 1.71-9.24.96-10.19 5.1.56 6.66 5.47 8.98 6.37 15.29-2.6 3.86-5.21-.19-8.92 2.55-.29 2.41 1.44 2.82 1.27 5.1-3.59-3.71-1.59 3.82-6.37 2.55-.92 3.9 1.3 4.65 1.28 7.65-4.82-.15-6.86 2.49-7.65 6.37 6.73 3 2.38 10.84-1.27 14.02 7.32 3.7 8.67 12.811 15.29 14.021-.99.279-2.52.029-2.55 1.27 8.09 2.141 10.21 8.63 6.37 16.57 16.65-1.26 19.35 17.91 33.14 15.29 3.49 8.83 9.48 15.149 14.02 22.939-2.83 6.94-6.45 13.091-5.1 24.221 3.04.77 9.25-1.601 10.19 1.27.86 6.38-1.18 9.87-1.27 15.29 7.64.96 9.69 9.85 13.55 14.04 2.52 2.74 5.81 3.48 11.94-1.29 2.46-4.5-.6-5.7-1.28-10.2 3.54 5.82 14.5 4.2 16.57 11.471 2.9-.381 4.82-1.74 6.74-3.11 1.13-.82 2.26-1.64 3.59-2.25 0-.01 0-.01.01 0 1.06-.5 2.26-.87 3.68-1.01-.02.739.01 1.439.09 2.109.028.279.068.549.118.809z" stroke="#231f20" stroke-width="7"/><path d="m273.68 293.44 8.57-71.19" stroke="#231f20" stroke-width="7"/><path d="m406.23 330.4.02-70.15" stroke="#231f20" stroke-width="7"/><path d="m605.04 391.57 75.21 16.68" stroke="#231f20" stroke-width="7"/><path d="m593.57 571.27 98.68 20.98" stroke="#231f20" stroke-width="7"/><path d="m608.86 716.55 97.39 27.7" stroke="#231f20" stroke-width="7"/><path d="m266.25 566.25-3.23 1.21-44.77 16.79" stroke="#231f20" stroke-width="7"/><path d="m164.25 346.25-60-8" stroke="#231f20" stroke-width="7"/><path d="m184.25 274.25-8-60" stroke="#231f20" stroke-width="7"/><path d="m212.25 274.25-4-50" stroke="#231f20" stroke-width="7"/><path d="m.25.25h850.394v850.394h-850.394z"/></g></svg>