<svg enable-background="new 0 0 850.394 850.394" height="850.394" viewBox="0 0 850.394 850.394" width="850.394" xmlns="http://www.w3.org/2000/svg"><path d="m158 678.47c-8.63-10.71 3.22-27.95 26.36-25.83-.9-5.14-2.82-9.239-6.03-12.06 11.94-.1 35.25 6.18 40.22-10.061-11-10.21-7.32-22.689-22.12-34.189-14.02-10.89-40.36-8.2-44.25-24.13-4.11-16.84 14.31-19.5 10.06-42.24-7.94-4.57-10.94 2.41-16.09 6.04-5.94-2.78-8.14-9.29-14.08-12.07 5.09-22.39 27.69-27.279 36.2-46.25-9.84-9.75-32.12-24.77-46.26-12.069-6.07-4.65-4.76-16.681-10.05-22.12 13.73-23.14 34.19-39.56 62.34-48.27 1-5.81 8.85-15.15 4.03-20.11 27.24.92 76.37-2.65 86.47 22.12 26.43 3.07 56.19 2.8 78.44 10.06 19.12-8.36 34.2-20.77 54.3-28.16 1.71-11.7 6.71-20.1 10.05-30.17 29.47-19.08 69.11-8.63 106.59-12.06 30.03-2.75 64.601-13.7 90.5-20.11 8.811-2.18 16.23-7.05 24.13-10.06-1.13-9.18 3.57-12.52 2.011-22.12 20.76-7.85 53.09-20.41 72.399-2.01.761 8.81-5.75 10.34-6.029 18.1 21.069 27.2 24.529 72 58.319 86.48-18.6 8.25-31.33-21.61-62.34-14.08-11.49 4.04-7.17 19.95-6.04 32.18-14.89 1.19-28.06 4.11-38.21 10.05-1.16 6.53 1.37 9.36 2.01 14.08-21.62 17.93-49.5 29.6-84.46 34.189-16.319 12.45-14.33 43.771 10.05 46.25 2.07 22.46 2.33 42.15-2.01 62.351-8.25 4.109-13.96 4.31-20.109-2.01-27.391 6.119-53.301 13.729-62.341 38.209 1.07 3.489 9.69-2.19 14.08-2.011v16.08c-18.53 10.011-6.14 38.531-16.09 56.321-8.78 1.95-14.479 6.97-22.13 10.05-15.5-14.77-43.07-27.51-64.35-10.05-20.41-15.12-41.81-29.25-48.27-58.33-16.65 14.19-18.29 43.39-40.22 52.29-36.57-10.31-109.44 23.51-146.81 12.07-4.77-1.46-8.14-3.71-10.27-6.35z" fill="#fff5b4"/><path d="m813.43 130.9v40.97c-64.34 0-128.67 0-193.01 0 0-13.66 0-27.31 0-40.97z" fill="#ed1e29"/><path d="m681.99 90.13c.34-4.66.63-9.41.63-14.5.06 5.36.07 8.43-.101 10.74v.04c-.119.97-.25 1.96-.38 2.96-.039.25-.089.5-.149.76z" fill="#fff"/><path d="m682.14 89.37c.13-1 .261-1.99.38-2.96-.07 1.1-.19 2.03-.38 2.96z" fill="#fff"/><path d="m682.14 89.37c-.069.52-.14 1.05-.21 1.58 0-.06.011-.13.011-.19.02-.2.029-.41.05-.61 0-.01 0-.01 0-.02.059-.26.109-.51.149-.76z" fill="#fff"/><path d="m672.07 72.52c.75 0 .47 1.27 1.51.93-.271.38-.59 1.29 0 1.41-.16.9-1.47.37-1.14 1.87-.721-.19-.301-1.81-1.511-1.4.271-.38.59-1.29 0-1.41.051-.89 1.251-.32 1.141-1.4z" fill="#fbed24"/><path d="m661.13 103.92c5.04-.75 9.67-.75 14.7 0-2.89 6.91-11.91 7.38-14.7 0z" fill="#fff"/><path d="m666.79 79.55c.1-.97 1.67-.12 1.51-1.41.32-.09.351.18.38.47.051.55.681.39 1.12.46-.7.9-.04 1.18 0 2.35-.75-.16-1.18.1-1.12.94-.72-.2-.689-1.34-1.89-.94.33-.83 1.26-1.45 0-1.87z" fill="#fbed24"/><path d="m664.9 76.26c-1.16.36-.46-1.61-1.881-.93.261-.38.591-1.29 0-1.41-.149-1.12 1.721.26 1.131-1.4 1.159-.36.46 1.61 1.88.93-.261.38-.58 1.29 0 1.41.15 1.12-1.71-.26-1.13 1.4z" fill="#fbed24"/><path d="m660 100.63c-5.28-3.91 1.24-8.74 2.64-12.65 1.021.77 1.801 1.83 2.261 3.28 1.399-2.17 2.33-4.92 3.399-7.5 1.2 2.1 2.05 4.63 3.01 7.03 1.381-.16 1.73-1.6 2.271-2.81 2.12 2.52 3.84 5.53 5.65 8.44-2.791 8.1-12.621 1.21-19.231 4.21z" fill="#fff"/><path d="m670.93 75.33c1.21-.41.79 1.21 1.511 1.4-.33-1.5.979-.97 1.14-1.87-.59-.12-.271-1.03 0-1.41-1.04.34-.76-.93-1.51-.93.109 1.08-1.09.51-1.141 1.4.59.12.27 1.03 0 1.41zm-4.14 6.09c1.2-.4 1.17.74 1.89.94-.06-.84.37-1.1 1.12-.94-.04-1.17-.7-1.45 0-2.35-.439-.07-1.069.09-1.12-.46-.029-.29-.06-.56-.38-.47.16 1.29-1.41.44-1.51 1.41 1.26.42.33 1.04 0 1.87zm-2.64-8.9c.59 1.66-1.28.28-1.131 1.4.591.12.261 1.03 0 1.41 1.421-.68.721 1.29 1.881.93-.58-1.66 1.279-.28 1.13-1.4-.58-.12-.261-1.03 0-1.41-1.42.68-.72-1.29-1.88-.93zm-3.02 31.4c2.79 7.38 11.811 6.91 14.7 0-5.03-.75-9.66-.75-14.7 0zm-1.88-2.82c.29 3.69 3.58.87 5.65.94 2.85.1 4.97.04 7.54 0 2.1-.03 4.939 2.61 5.279-.94-6.349.05-12.149.13-18.469 0zm9.24 11.49c-6.95 0-12.73-8.97-13.99-20.86h.23c0-6.09-.641-11.39-.761-17.34 7.37-5.19 21.34-5.35 28.65 0v.49.75c0 5.09-.29 9.84-.63 14.5v.02c-.021.2-.03.41-.05.61 0 .06-.011.13-.011.19-1.258 8.71-3.608 17.81-13.438 21.64zm-5.85-24.61c-1.399 3.91-7.92 8.74-2.64 12.65 6.61-3 16.44 3.89 19.23-4.21-1.811-2.91-3.53-5.92-5.65-8.44-.54 1.21-.89 2.65-2.271 2.81-.96-2.4-1.81-4.93-3.01-7.03-1.069 2.58-2 5.33-3.399 7.5-.46-1.45-1.24-2.51-2.26-3.28z" fill="#394ea1"/><path d="m659.25 101.1c6.32.13 12.12.05 18.47 0-.34 3.55-3.18.91-5.279.94-2.57.04-4.69.1-7.54 0-2.071-.07-5.361 2.75-5.651-.94z" fill="#fff"/><path d="m654.5 91.73c1.26 11.89 7.04 20.86 13.99 20.86 9.83-3.83 12.18-12.93 13.439-21.64-.02.26-.04.51-.06.78h131.56v39.17h-193.009c0-13.06 0-26.11 0-39.17h32.47z" fill="#394ea1"/><path d="m653.97 74.39c.12 5.95.761 11.25.761 17.34-.08 0-.15 0-.23 0-.54 0-1.08 0-1.61 0-10.83 0-21.649 0-32.47 0v39.17h-.81c0-13.35 0-26.7 0-40.04 0-13.07 0-26.14 0-39.21-.03-.67-.061-1.33.38-1.41h195.74v9.94 70.72h-2.301c0-13.06 0-26.11 0-39.17-43.859 0-87.71 0-131.56 0 .02-.27.04-.52.06-.78.07-.53.141-1.06.21-1.58.19-.93.311-1.86.38-2.96 0-.02 0-.03 0-.04.171-2.31.16-5.38.101-10.74 0-.25 0-.5 0-.75 0-.16 0-.33 0-.49-7.311-5.35-21.281-5.19-28.651 0z" fill="#fff"/><path d="m620.42 130.9v40.97h193.01c0-13.66 0-27.31 0-40.97h2.301v41.19c-65.37 0-130.75 0-196.12 0 0-13.73 0-27.46 0-41.19z" fill="#fff"/><path d="m618.75 130.9-.37-40.01 1.23-.03v40.04z" fill="#fff"/><path d="m815.73 176.4h-196.57l-.41-45.5h.86v41.19h196.12z" fill="#fff"/><path d="m618.38 90.89-.399-43.3h197.75v2.65c-65.25 0-130.49 0-195.74 0-.44.08-.41.74-.38 1.41v39.21z" fill="#fff"/><path d="m610.13 21.4c7.16 0 12.97 4.23 12.97 9.45 0 3.34-2.369 6.27-5.949 7.95-2.03.95-4.44 1.51-7.021 1.51-2.479 0-4.79-.51-6.76-1.39-3.72-1.66-6.21-4.65-6.21-8.07 0-5.22 5.81-9.45 12.97-9.45z" fill="#c8c8c8"/><path d="m610.13 40.31c2.58 0 4.99-.56 7.021-1.51v227.54h-13.4l-.38-227.42c1.969.88 4.279 1.39 6.759 1.39z" fill="#c8c8c8"/><g fill="none"><path d="m617.98 47.59h197.75v2.65 9.94 70.72 41.19 4.31h-196.57" stroke="#231f20" stroke-width="7.1217"/><path d="m603.37 38.92c-3.72-1.66-6.21-4.65-6.21-8.07 0-5.22 5.81-9.45 12.97-9.45s12.97 4.23 12.97 9.45c0 3.34-2.369 6.27-5.949 7.95-2.03.95-4.44 1.51-7.021 1.51-2.48 0-4.79-.51-6.76-1.39z" stroke="#231f20" stroke-width="7.1217"/><path d="m603.37 38.66v.26l.38 227.42" stroke="#231f20" stroke-width="7.1217"/><path d="m617.15 38.19v.61 227.54" stroke="#231f20" stroke-width="7.1217"/><path d="m814.57 60.84 1.16-.66.68-.39" stroke="#231f20" stroke-width="4.7478"/><path d="m619.61 130.9c0-13.35 0-26.7 0-40.04 0-13.07 0-26.14 0-39.21-.03-.67-.061-1.33.38-1.41h195.74 1.109v9.55 71.11 41.19c-.37 0-.74 0-1.109 0-65.37 0-130.75 0-196.12 0 0-13.73 0-27.46 0-41.19z" stroke="#231f20" stroke-width="1.0174"/><path d="m681.99 90.13c.34-4.66.63-9.41.63-14.5" stroke="#231f20" stroke-width="2.3739"/><path d="m681.99 90.15c-.021.2-.03.41-.05.61 0 .06-.011.13-.011.19-.02.26-.04.51-.06.78h131.56v39.17 40.97c-64.34 0-128.67 0-193.01 0 0-13.66 0-27.31 0-40.97 0-13.06 0-26.11 0-39.17h32.47" stroke="#231f20" stroke-width="2.3739"/><path d="m682.52 86.41c-.069 1.1-.189 2.03-.38 2.96-.04.25-.09.5-.149.76v.02" stroke="#ed1e29" stroke-width="3.0521"/><path d="m652.89 91.73h1.61.23c0-6.09-.641-11.39-.761-17.34 7.37-5.19 21.34-5.35 28.65 0v.49.75c.06 5.36.07 8.43-.101 10.74" stroke="#ed1e29" stroke-width="3.0521"/><path d="m666.03 74.86c.149 1.12-1.71-.26-1.13 1.4-1.16.36-.46-1.61-1.881-.93.261-.38.591-1.29 0-1.41-.149-1.12 1.721.26 1.131-1.4 1.159-.36.46 1.61 1.88.93-.26.38-.58 1.29 0 1.41z" stroke="#231f20" stroke-width=".6783"/><path d="m672.07 72.52c.75 0 .47 1.27 1.51.93-.271.38-.59 1.29 0 1.41-.16.9-1.47.37-1.14 1.87-.721-.19-.301-1.81-1.511-1.4.271-.38.59-1.29 0-1.41.051-.89 1.251-.32 1.141-1.4z" stroke="#231f20" stroke-width=".6783"/><path d="m669.8 81.42c-.75-.16-1.18.1-1.12.94-.72-.2-.689-1.34-1.89-.94.33-.83 1.26-1.45 0-1.87.1-.97 1.67-.12 1.51-1.41.32-.09.351.18.38.47.051.55.681.39 1.12.46-.7.9-.04 1.18 0 2.35z" stroke="#231f20" stroke-width=".6783"/><path d="m668.3 83.76c1.2 2.1 2.05 4.63 3.01 7.03 1.381-.16 1.73-1.6 2.271-2.81 2.12 2.52 3.84 5.53 5.65 8.44-2.79 8.1-12.62 1.21-19.23 4.21-5.28-3.91 1.24-8.74 2.64-12.65 1.021.77 1.801 1.83 2.261 3.28 1.398-2.17 2.328-4.92 3.398-7.5z" stroke="#231f20" stroke-width=".6783"/><path d="m659.25 101.1c6.32.13 12.12.05 18.47 0-.34 3.55-3.18.91-5.279.94-2.57.04-4.69.1-7.54 0-2.071-.07-5.361 2.75-5.651-.94z" stroke="#231f20" stroke-width="1.0174"/><path d="m661.13 103.92c5.04-.75 9.67-.75 14.7 0-2.89 6.91-11.91 7.38-14.7 0z" stroke="#231f20" stroke-width=".6783"/><path d="m618.29 130.9h.46.86.81 193.01 2.3.61" stroke="#231f20" stroke-width="4.7478"/><path d="m618.29 90.89h.09l1.23-.03 33.28-.65" stroke="#231f20" stroke-width="4.7478"/><path d="m682.73 90.21 132.94.68" stroke="#231f20" stroke-width="4.7478"/><path d="m654.24 86.82c0 1.68.09 3.32.26 4.91 1.26 11.89 7.04 20.86 13.99 20.86" stroke="#ed1e29" stroke-width="3.0521"/><path d="m668.49 112.59c9.83-3.83 12.18-12.93 13.439-21.64.07-.53.141-1.06.21-1.58.13-1 .261-1.99.38-2.96 0-.02 0-.03 0-.04.07-.54.141-1.07.211-1.59" stroke="#ed1e29" stroke-width="3.0521"/><path d="m703.22 282.6c-19.31-18.4-51.64-5.84-72.399 2.01 1.56 9.6-3.141 12.94-2.011 22.12-7.899 3.01-15.319 7.88-24.13 10.06-25.899 6.41-60.47 17.36-90.5 20.11-37.479 3.43-77.12-7.02-106.59 12.06-3.34 10.07-8.34 18.47-10.05 30.17-20.1 7.39-35.18 19.8-54.3 28.16-22.25-7.26-52.01-6.99-78.44-10.06-10.1-24.77-59.23-21.2-86.47-22.12 4.82 4.96-3.03 14.3-4.03 20.11-28.15 8.71-48.61 25.13-62.34 48.27 5.29 5.439 3.98 17.47 10.05 22.12 14.14-12.7 36.42 2.319 46.26 12.069-8.51 18.971-31.11 23.86-36.2 46.25 5.94 2.78 8.14 9.29 14.08 12.07 5.15-3.63 8.15-10.61 16.09-6.04 4.25 22.74-14.17 25.4-10.06 42.24 3.89 15.93 30.23 13.24 44.25 24.13 14.8 11.5 11.12 23.979 22.12 34.189-4.97 16.24-28.28 9.961-40.22 10.061 3.21 2.82 5.13 6.92 6.03 12.06-23.14-2.12-34.99 15.12-26.36 25.83 2.13 2.641 5.5 4.891 10.27 6.351 37.37 11.439 110.24-22.38 146.81-12.07 21.93-8.9 23.57-38.1 40.22-52.29 6.46 29.08 27.86 43.21 48.27 58.33 21.28-17.46 48.85-4.72 64.35 10.05 7.65-3.08 13.35-8.1 22.13-10.05 9.95-17.79-2.439-46.31 16.09-56.32 0-5.359 0-10.72 0-16.08-4.39-.18-13.01 5.5-14.08 2.011 9.04-24.48 34.95-32.091 62.341-38.21 6.149 6.319 11.859 6.119 20.109 2.01 4.34-20.2 4.08-39.891 2.01-62.351-24.38-2.479-26.369-33.8-10.05-46.25 34.96-4.59 62.84-16.26 84.46-34.189-.64-4.72-3.17-7.55-2.01-14.08 10.15-5.94 23.32-8.86 38.21-10.05-1.13-12.23-5.45-28.14 6.04-32.18 31.01-7.53 43.74 22.33 62.34 14.08-33.79-14.48-37.25-59.28-58.319-86.48.279-7.761 6.789-9.291 6.029-18.101z" stroke="#231f20" stroke-width="7"/><path d="m755.51 387.18 58.49 24.82" stroke="#231f20" stroke-width="7"/><path d="m703.22 282.6 50.78-30.6" stroke="#231f20" stroke-width="7"/><path d="m178.33 375.11-68.33-25.11" stroke="#231f20" stroke-width="7"/><path d="m158 678v.47 53.53" stroke="#231f20" stroke-width="7"/><path d="m166 654-14-34" stroke="#231f20" stroke-width="7"/><path d="m152 620-46 2" stroke="#231f20" stroke-width="7"/><path d="m0 0h850.394v850.394h-850.394z"/></g></svg>