<svg enable-background="new 0 0 851.394 851.394" height="851.394" viewBox="0 0 851.394 851.394" width="851.394" xmlns="http://www.w3.org/2000/svg"><path d="m490.71 441.35c26.45 20.46 50.29 28.62 91.04 28.57-7.27 22.99-.61 48.35-8.92 66.05-2.49 5.3-6.28 9.101-10.6 12.23-8.841 6.399-19.95 10.03-26.891 18.109-11 49.24-36.75 85.69-26.78 146.391-13.319-4.91-24.85-11.601-35.409-19.26-6.341-4.601-12.33-9.54-18.141-14.66-13.64-1.851-24.25-.67-32.83 2.54-1.51.29-3.07.63-4.66 1.029-2.49 1.42-4.65 3.11-6.58 4.98-10.21 7.36-17.01 18.13-23.77 28.939-18.95-1.649-35.22 6.08-49.99 3.57-8.13-1.38-29.34-14.29-44.55-24.859-8.95-7.61-17.09-15.87-24.39-23.561l-.01-.01c-3.76-6.07-6.95-12.08-11.38-15.84 3.05-1.45 5.96-3.221 8.72-5.271.07-.02.14-.05.21-.08 4.89-2.04 9.71-7.55 14.08-14.779 8.59-12.091 14.34-27.54 16.48-43.801.98-4.87 1.53-9.279 1.57-12.83.08-6.97-.78-13.77-2.4-20.35-1.61-8.46-4.34-16.67-8.31-24.28-13.29-25.47-33.68-45.26-55.34-55.34-12.94-44.04-4.34-105.87 27-129.58 1-.68 1.99-1.36 2.93-2.06 2.4-1.57 4.92-2.92 7.56-4.03 1.01-3.04 2-6.1 2.98-9.17 3.54-7.53 5.83-15.98 7.78-24.73 9.16-28.88 19.13-56.96 36.1-78.03 9.31-11.55 20.72-21 35.26-27.32 7.54 22.81 33.66 27.04 53.55 37.49-8.72 16.04-10.94 33.58-9.21 51.49 1.27 13.14 4.67 26.47 9.21 39.56 16.101 46.463 49.761 81.103 85.691 108.893z" fill="#fff5b4"/><path d="m809.66 64.74v45.16h-.06-219.57l-.41-45.16z" fill="#ed1e29"/><path d="m809.66 109.9v49.81h-.82-218.12-.23l-.46-49.81h219.57z" fill="#fff"/><path d="m809.66 159.71v48.37h-218.73l-.44-48.37h.23 218.12z" fill="#0071bc"/><path d="m573.36 55.09c-4.141-1.84-6.91-5.17-6.91-8.98 0-5.81 6.46-10.52 14.43-10.52 7.98 0 14.44 4.71 14.44 10.52 0 3.71-2.641 6.98-6.63 8.85-2.25 1.06-4.931 1.67-7.811 1.67-2.749 0-5.329-.56-7.519-1.54z" fill="#c8c8c8"/><path d="m580.88 56.63c2.88 0 5.561-.61 7.811-1.67v253.2h-14.9l-.43-253.07c2.189.98 4.769 1.54 7.519 1.54z" fill="#c8c8c8"/><path d="m583.54 469.92c-3.47 22.11-5.45 45.72-8.93 67.83-3.641 3.97-7.91 7.33-12.33 10.52l-.05-.069c4.319-3.13 8.109-6.931 10.6-12.23 8.31-17.7 1.65-43.06 8.92-66.05l.03-.21c.58.069 1.17.139 1.76.209z"/><path d="m535.34 566.31c6.94-8.079 18.05-11.71 26.891-18.109l.05.069c-9.05 6.54-18.75 12.431-25.16 21.61-12.481 45.82-36.121 82.99-26.771 141.03 9.761-2.13 15.221-8.58 24.99-10.71 44.58 15.52 67.21 52.99 87.47 92.83-.59 0-1.189 0-1.779 0-19.88-39.03-41.78-76.04-85.69-91.04-10.95 2.74-17.62 9.75-28.56 12.49-13.58-4.131-23.34-12.971-33.9-20.671l.271-.369c10.56 7.659 22.09 14.35 35.409 19.26-9.971-60.7 15.779-97.15 26.779-146.39z"/><path d="m473.15 693.44-.271.369c-12.89-9.39-26.979-17.1-50.7-12.489 8.58-3.21 19.19-4.391 32.83-2.54 5.811 5.12 11.801 10.06 18.141 14.66z"/><path d="m458.48 141.13c16.26-12.83 33.22-24.96 51.869-35.39h7.141c-12.25 6.61-37.25 20.41-59.01 35.39z"/><path d="m458.46 141.14c-10.55 8.32-20.81 16.94-31.04 25.57 7.34-8.16 18.66-17.05 31.04-25.57z"/><path d="m417.52 682.35c1.59-.399 3.15-.739 4.66-1.029-4.19 1.56-7.9 3.6-11.24 6.01 1.93-1.871 4.09-3.561 6.58-4.981z"/><path d="m396.23 292.86c2.98 30.7 19.43 59.22 35.57 82.44 22.08 31.76 33.58 44.29 64.271 67.84 26.91 20.65 47.38 21.95 85.71 26.57l-.03.21c-40.75.05-64.59-8.11-91.04-28.57-35.93-27.79-69.59-62.43-85.69-108.89-4.54-13.09-7.94-26.42-9.21-39.56z"/><path d="m410.94 687.33c-9.47 9.189-13.35 22.67-23.76 28.96l-.01-.021c6.76-10.809 13.56-21.579 23.77-28.939z"/><path d="m337.18 719.84c14.77 2.51 31.04-5.22 49.99-3.57l.01.021c-1.11.67-2.3 1.27-3.58 1.76-35.83 13.851-66.42-2.18-90.97-23.069 15.21 10.568 36.42 23.478 44.55 24.858z"/><path d="m405.02 239.63c2.22-24.56 9.41-44.15 14.28-66.05 2.71-2.29 5.41-4.57 8.12-6.87-2.7 3-4.86 5.9-6.33 8.65-7.65 14.24-8.32 41.93-14.28 66.05-3.8 15.35-12.42 29.48-10.71 49.99.04.49.08.98.13 1.46l-.42.04c-1.73-17.91.49-35.45 9.21-51.49-19.89-10.45-46.01-14.68-53.55-37.49-14.54 6.32-25.95 15.77-35.26 27.32l-.04-.03c1.11-1.37 2.17-2.73 3.16-4.08 8.71-11.9 18.39-24 35.71-24.99 3.55 25.6 31.95 26.36 49.98 37.49z"/><path d="m295.51 558.46c1.62 6.58 2.48 13.38 2.4 20.35-.04 3.551-.59 7.96-1.57 12.83 1.44-10.95 1.25-22.27-.83-33.18z"/><path d="m279.86 635.44c7.53-12.44 13.7-29.99 16.48-43.801-2.14 16.261-7.89 31.711-16.48 43.801z"/><path d="m316.21 231.24c-16.97 21.07-26.94 49.15-36.1 78.03 3.51-15.74 5.91-32.45 12.45-46.44 5.52-11.81 15.84-22.02 23.61-31.62z"/><path d="m292.63 694.98c-6.22-4.33-11.44-8.261-14.36-10.851-4.16-3.689-7.25-8.22-10.03-12.71 7.3 7.691 15.44 15.951 24.39 23.561z"/><path d="m272.33 334c2.62-8.21 5.17-16.51 7.78-24.73-1.95 8.75-4.24 17.2-7.78 24.73z"/><path d="m272.33 334c-.98 3.07-1.97 6.13-2.98 9.17-2.64 1.11-5.16 2.46-7.56 4.03 3.09-2.27 5.8-4.68 7.56-7.6 1.09-1.8 2.07-3.67 2.98-5.6z"/><path d="m279.86 635.44c-4.37 7.229-9.19 12.739-14.08 14.779-.07.03-.14.061-.21.08 5.36-3.989 10.16-9.029 14.29-14.859z"/><path d="m261.79 347.2c-.94.7-1.93 1.38-2.93 2.06.96-.73 1.93-1.41 2.93-2.06z"/><path d="m256.85 655.57c4.43 3.76 7.62 9.77 11.38 15.84-6.19-6.53-11.78-12.65-16.73-17.62-1.71-.15-3.39-.271-5.05-.38 7.12-.22 13.83-.95 19.12-3.11-2.76 2.05-5.67 3.82-8.72 5.27z"/><path d="m246.45 653.41c-9.05.29-18.76-.23-27.09.38-.41.03-.82.06-1.22.09 8.74-.84 18.09-1.09 28.31-.47z"/><path d="m231.86 478.84c21.66 10.08 42.05 29.87 55.34 55.34 3.97 7.61 6.7 15.82 8.31 24.28-9.01-36.54-41.44-66.27-65.44-79.62-8.91-39.52-9.66-84.47 12.5-116.04 4.05-5.78 10.51-9.62 16.29-13.54-31.34 23.71-39.94 85.54-27 129.58z"/><path d="m218.14 653.88c-42.43 4.14-70.59 22.561-114.81 24.9-2.37-35.71-10.69-65.48-35.71-78.55 0-.591 0-1.19 0-1.78 25.94 12.729 34.43 42.93 37.49 78.54 40.93-2.7 66.75-19.5 113.03-23.11z"/><g fill="none" stroke="#231f20"><path d="m589.62 64.74h220.04v45.16 49.81 48.37h-218.73" stroke-width="7"/><path d="m573.36 55.09c-4.141-1.84-6.91-5.17-6.91-8.98 0-5.81 6.46-10.52 14.43-10.52 7.98 0 14.44 4.71 14.44 10.52 0 3.71-2.641 6.98-6.63 8.85-2.25 1.06-4.931 1.67-7.811 1.67-2.749 0-5.329-.56-7.519-1.54z" stroke-width="7"/><path d="m573.36 54.8v.29l.43 253.07" stroke-width="7"/><path d="m588.69 54.27v.69 253.2" stroke-width="7"/><path d="m589.21 109.9h.82 219.57" stroke-width="7"/><path d="m590.72 159.71h218.12" stroke-width="7"/><path d="m268.23 671.41c-6.19-6.53-11.78-12.65-16.73-17.62-1.71-.15-3.39-.271-5.05-.38-10.22-.62-19.57-.37-28.31.47" stroke-width="7"/><path d="m458.46 141.14c-12.38 8.52-23.7 17.41-31.04 25.57-2.7 3-4.86 5.9-6.33 8.65-7.65 14.24-8.32 41.93-14.28 66.05-3.8 15.35-12.42 29.48-10.71 49.99.04.49.08.98.13 1.46 2.98 30.7 19.43 59.22 35.57 82.44 22.08 31.76 33.58 44.29 64.271 67.84 26.91 20.65 47.38 21.95 85.71 26.57.58.07 1.17.14 1.76.21-3.47 22.11-5.45 45.72-8.93 67.83-3.641 3.97-7.91 7.33-12.33 10.52-9.05 6.54-18.75 12.431-25.16 21.61-12.481 45.82-36.121 82.99-26.771 141.03 9.761-2.13 15.221-8.58 24.99-10.71 44.58 15.52 67.21 52.99 87.47 92.83-.59 0-1.189 0-1.779 0-19.88-39.03-41.78-76.04-85.69-91.04-10.95 2.74-17.62 9.75-28.56 12.49-13.58-4.131-23.34-12.971-33.9-20.671-12.89-9.39-26.979-17.1-50.7-12.489-1.51.29-3.07.63-4.66 1.029-2.49 1.42-4.65 3.11-6.58 4.98-9.47 9.189-13.35 22.67-23.76 28.96-1.11.67-2.3 1.27-3.58 1.76-35.83 13.851-66.42-2.18-90.97-23.069-8.95-7.61-17.09-15.87-24.39-23.561" stroke-width="7"/><path d="m458.48 141.13c16.26-12.83 33.22-24.96 51.869-35.39h7.141c-12.25 6.61-37.25 20.41-59.01 35.39z" stroke-width="7"/><path d="m218.14 653.88c.4-.03.81-.06 1.22-.09 8.33-.61 18.04-.09 27.09-.38 7.12-.22 13.83-.95 19.12-3.11.07-.02.14-.05.21-.08 4.89-2.04 9.71-7.55 14.08-14.779 7.53-12.44 13.7-29.99 16.48-43.801.98-4.87 1.53-9.279 1.57-12.83.08-6.97-.78-13.77-2.4-20.35-9.01-36.54-41.44-66.27-65.44-79.62-8.91-39.52-9.66-84.47 12.5-116.04 4.05-5.78 10.51-9.62 16.29-13.54 1-.68 1.99-1.36 2.93-2.06 3.09-2.27 5.8-4.68 7.56-7.6 1.09-1.8 2.07-3.67 2.98-5.6 3.54-7.53 5.83-15.98 7.78-24.73 3.51-15.74 5.91-32.45 12.45-46.44 5.52-11.81 15.84-22.02 23.61-31.62 1.11-1.37 2.17-2.73 3.16-4.08 8.71-11.9 18.39-24 35.71-24.99 3.55 25.6 31.95 26.36 49.98 37.49 2.22-24.56 9.41-44.15 14.28-66.05 2.71-2.29 5.41-4.57 8.12-6.87 10.23-8.63 20.49-17.25 31.061-25.58-.011 0-.021.01-.021.01" stroke-width="7"/><path d="m218.14 653.88c-42.43 4.14-70.59 22.561-114.81 24.9-2.37-35.71-10.69-65.48-35.71-78.55 0-.591 0-1.19 0-1.78 25.94 12.729 34.43 42.93 37.49 78.54 40.93-2.7 66.75-19.5 113.03-23.11z" stroke-width="7"/><path d="m272.33 334c-.98 3.07-1.97 6.13-2.98 9.17-2.64 1.11-5.16 2.46-7.56 4.03-1 .65-1.97 1.33-2.93 2.06-31.34 23.71-39.94 85.54-27 129.58 21.66 10.08 42.05 29.87 55.34 55.34 3.97 7.61 6.7 15.82 8.31 24.28 2.08 10.91 2.27 22.23.83 33.18-2.14 16.261-7.89 31.71-16.48 43.801-4.13 5.829-8.93 10.869-14.29 14.859-2.76 2.05-5.67 3.82-8.72 5.271 4.43 3.76 7.62 9.77 11.38 15.84l.01.01c2.78 4.49 5.87 9.021 10.03 12.71 2.92 2.59 8.14 6.521 14.36 10.851 15.21 10.569 36.42 23.479 44.55 24.859 14.77 2.51 31.04-5.22 49.99-3.57 6.76-10.81 13.56-21.579 23.77-28.939 3.34-2.41 7.05-4.45 11.24-6.01 8.58-3.21 19.19-4.391 32.83-2.54 5.811 5.12 11.8 10.06 18.141 14.66 10.56 7.659 22.09 14.35 35.409 19.26-9.97-60.7 15.78-97.15 26.78-146.391 6.94-8.079 18.05-11.71 26.891-18.109 4.319-3.13 8.109-6.931 10.6-12.23 8.31-17.7 1.65-43.06 8.92-66.05-40.75.05-64.59-8.11-91.04-28.57-35.93-27.79-69.59-62.43-85.69-108.89-4.54-13.09-7.94-26.42-9.21-39.56-1.73-17.91.49-35.45 9.21-51.49-19.89-10.45-46.01-14.68-53.55-37.49-14.54 6.32-25.95 15.77-35.26 27.32-16.97 21.07-26.94 49.15-36.1 78.03-2.611 8.218-5.161 16.518-7.781 24.728z" stroke-width="7"/><path clip-rule="evenodd" d="m.5.5h850.394v850.394h-850.394z"/></g></svg>