<svg enable-background="new 0 0 850.89 850.89" height="850.89" viewBox="0 0 850.89 850.89" width="850.89" xmlns="http://www.w3.org/2000/svg"><path d="m796.06 204.32v16.09h-232.15l-.15-16.09h231.42z" fill="#ed1e29"/><path d="m796.06 190.7v13.62h-.88-231.42l-.12-13.62h231.54z" fill="#fff"/><path d="m796.06 177.89v12.81h-.88-231.54l-.12-12.81h232.47z" fill="#ed1e29"/><path d="m796.06 165.87v12.02h-.07-232.47l-.11-12.02z" fill="#fff"/><path d="m796.06 151.45v14.42h-232.65l-.13-14.42h232.71z" fill="#ed1e29"/><path d="m796.06 137.03v14.42h-.07-232.71l-.14-14.42h232.04z" fill="#fff"/><path d="m796.06 123.42v13.61h-.88-232.04l-.12-13.61h75.96 157.01z" fill="#ed1e29"/><path d="m796.06 108.99v14.43h-.07-157.01v-.81-14.41h1.6z" fill="#fff"/><path d="m796.06 96.18v12.81l-155.48-.79h-1.6v-12.02h.8z" fill="#ed1e29"/><path d="m796.06 83.15v13.03h-156.28-.8v-14.42h.8l156.28.93z" fill="#fff"/><path d="m796.06 68.28v14.41l-156.28-.93h-.8v-13.48z" fill="#ed1e29"/><path d="m681.9 716.23v1.829c-25.721.98-32.511 20.891-61.79 18.311.52-.59 1.01-1.21 1.479-1.86 28.281 2.08 34.961-17.43 60.311-18.28z"/><path d="m638.98 122.61v.81h-75.96l-.51-55.14h76.471v13.48 14.42 12.02 14.41zm-26.33-21.36 9.979-9.72-13.79-2.01-6.16-12.49-6.16 12.49-13.789 2.01 9.979 9.72-2.36 13.73 12.33-6.48 12.33 6.48z" fill="#394ea1"/><path d="m622.63 91.53-9.98 9.72 2.36 13.73-12.33-6.48-12.33 6.48 2.36-13.73-9.98-9.72 13.79-2.01 6.16-12.49 6.16 12.49z" fill="#fff"/><path d="m619.76 736.34c.12.01.24.021.351.03-.311.38-.63.74-.971 1.09.22-.36.42-.73.62-1.12z"/><path d="m585.04 752.78c12.53-5 25.18-5.84 34.1-15.32-7.17 12.41-21.199 12.51-37.76 18.98-5.11 2-8.71 4.29-11.78 6.52l-.1-.14c5.06-3.74 9.96-7.81 15.54-10.04z"/><path d="m569.5 762.82.1.14c-8.31 6.07-12.63 11.71-32.08 9.93-13.56-1.239-19.239-10.899-31.069-16.449-9.76-4.57-20.5-2.561-32.9-7.311-7.64-2.93-15.609-11.229-25.59-16.45-17.9-9.37-34.12-14.51-51.17-23.76-29.85-16.18-61.49-35.439-76.76-63.97-28.08-9.34-39.77-37.91-60.32-54.82-9.66-7.97-24.7-8.12-29.24-21.939-13.54-.261-29.38.329-38.38-7.311-7.17-6.08-5.45-18.89-12.79-25.59-15.27-13.91-31.56-11.1-53-21.93-5.4-5.48.75-13.771-5.49-20.101-18.791-13.149-38.511-25.359-60.351-35.459l5.56.92c17.14 8.37 33.19 17.84 49.31 27.23 18.28-45.681 65.1-62.83 93.21-98.7-5.1-30.86 11.25-38.7 31.07-40.2 2.94-9.61 7.33-26.3 3.66-36.56-18.8 4.35-18 28.31-45.69 23.76 2.55-19.98 13.48-31.59 21.93-45.69-6.85-9.51-15.42-26.61-7.31-40.21-6.39-.92-13.8-.82-18.28-3.65 1.11-6.81 3.87-11.97 7.31-16.45h1.83c-3.44 4.48-6.2 9.64-7.31 16.45 7.18.13 13.73.88 18.27 3.65-8.11 13.6.47 30.7 7.31 40.21-8.31 13.62-18.55 25.31-21.93 43.87 23.21 2.49 26.88-14.56 38.38-23.76 31.91 7.73 77.05-11.51 96.87 20.1-1.55 19.32 12.54 33.78 3.65 49.35 14.68 13.96 6.95 39.29-.05 51.899-1.01.551-1.67 1.471-1.77 2.931.57-.87 1.17-1.86 1.77-2.931 2.9-1.63 8.75-.31 12.85-.729 12.01 5.66 16.96 18.38 29.24 23.76 5.53-4.83 17.44-3.27 23.76-7.31 14.08-12.11 3.15-49.25 32.9-45.69-1.63 7.72 1.86 10.32 5.48 12.79 7.81-4.88 19.239-4.36 30.859 3.52-.51.65-1.05 1.31-1.62 1.97-6.069-3.07-15.39-10.57-21.93-7.32-2.8 11.24 6.07 39.42 16.45 49.351 4.26 38.38-13.42 54.819-32.9 69.449 10.94 8.391 23.3 24.03 45.69 27.421 15.97 2.409 30.17-3.971 38.38 9.13 4.27 6.819 2.85 14.97 3.66 25.59 13.22 5.35 28.18 9.24 40.21 14.62-5.82 19.939 11.97 30.699-1.83 45.689 2.109 4.59 7.28 6.12 7.31 12.8-24.91 23.2-25.16 61.21-18.279 106 8.29.48 14.77-3.63 21.02-8.24z" fill="#fff5b4"/><path d="m545.26 58.04c-4.399-1.96-7.34-5.5-7.34-9.53 0-6.17 6.86-11.17 15.32-11.17s15.319 5 15.319 11.17c0 3.94-2.8 7.4-7.029 9.39-2.391 1.12-5.24 1.77-8.29 1.77-2.92 0-5.66-.59-7.98-1.63z" fill="#c8c8c8"/><path d="m561.53 137.03v14.42 14.42 12.02 12.81 13.62 122.31h-15.82l-.45-268.59c2.32 1.04 5.061 1.63 7.98 1.63 3.05 0 5.899-.65 8.29-1.77v65.52z" fill="#c8c8c8"/><path d="m506.66 278.92c25.84-1.9 31.63 30.8 25.38 48.02-13.21 2.24-7.2-14.73-18.28-14.62-12.47.98-28.83-1.92-38.979 1.39 9.04-5.65 25.87-3.48 40.8-3.22 8.68 1.69 5.39 15.34 16.46 14.63 4.649-28.52-6.681-41.05-25.381-46.2z"/><path d="m526.55 248.35c-9.95-1.42-14.25 2.81-20.1 5.49.33 9.64-4.561 14.05-3.811 24.09-.55-.11-1.109-.22-1.68-.33-1.07-10.22 4.19-14.09 3.66-23.76 5.8-3.34 9.79-8.49 20.1-7.31-2.46-10.33-20.45-5.14-20.1-18.28h1.83v3.66c4.891 7.29 20.011 4.35 20.101 16.44z"/><path d="m506.66 278.92c-1.24.08-2.53.25-3.87.5-.06-.51-.11-1.01-.15-1.49 1.38.3 2.72.62 4.02.99z"/><path d="m495.48 345.22c.85 8.29 7.439 10.84 7.31 20.1-4.3.04-5.38-3.15-10.96-1.82-7.44 19.77-5.23 35.29-17.67 51.8 10.38-20.6 8.109-33.42 17.67-53.63 4.24-.58 7.01.29 9.13 1.83-.25-6.45-5.22-8.18-5.479-14.63-7.33.46-18.211-2.59-23.98-8.92l.22-.21c7.859 2.17 13.809 10.86 23.759 5.48z"/><path d="m473.55 314.15c.4-.16.811-.31 1.23-.44-.601.36-1.16.76-1.681 1.2.141-.27.291-.52.451-.76z"/><path d="m474.16 415.3c-.2.4-.4.8-.61 1.2-.069-.05-.14-.1-.21-.14.28-.36.56-.71.82-1.06z"/><path d="m473.1 314.91c-3 5.73-.619 16.85-1.38 24.83l-.22.21c-.6-.65-1.14-1.33-1.61-2.04-3.29-12.02-1.54-19.01 3.21-23z"/><g fill="none"><path d="m562.51 68.28h76.47 157.08v14.41.46 13.03 12.81 14.43 13.61 14.42 14.42 12.02 12.81 13.62 16.09h-232.15" stroke="#231f20" stroke-width="8"/><path d="m545.26 58.04c-4.399-1.96-7.34-5.5-7.34-9.53 0-6.17 6.86-11.17 15.32-11.17s15.319 5 15.319 11.17c0 3.94-2.8 7.4-7.029 9.39-2.391 1.12-5.24 1.77-8.29 1.77-2.92 0-5.66-.59-7.98-1.63z" stroke="#231f20" stroke-width="7"/><path d="m545.26 57.73v.31l.45 268.59" stroke="#231f20" stroke-width="7"/><path d="m561.53 57.17v.73 65.52 13.61 14.42 14.42 12.02 12.81 13.62 122.31" stroke="#231f20" stroke-width="7"/><path d="m794.69 83.92 1.37-.77.8-.46" stroke="#231f20" stroke-width="7"/><path d="m639.78 81.76 156.28.93h.8" stroke="#231f20" stroke-width="7"/><path d="m639.78 96.18h156.28.73" stroke="#231f20" stroke-width="7"/><path d="m640.58 108.2 155.48.79 1.53.01" stroke="#231f20" stroke-width="7"/><path d="m562.08 123.42h.94 75.96 157.01" stroke="#231f20" stroke-width="7"/><path d="m561.28 137.03h.25 1.61 232.04" stroke="#231f20" stroke-width="7"/><path d="m562.08 151.45h1.2 232.71" stroke="#231f20" stroke-width="7"/><path d="m562.08 165.87h1.33 232.65.73" stroke="#231f20" stroke-width="7"/><path d="m562.08 177.89h1.44 232.47" stroke="#231f20" stroke-width="7"/><path d="m561.28 190.7h.25 2.11 231.54" stroke="#231f20" stroke-width="7"/><path d="m562.08 204.32h1.68 231.42" stroke="#231f20" stroke-width="7"/><path d="m638.98 67.34v.94 13.48 14.42 12.02 14.41" stroke="#231f20" stroke-width="7"/><path d="m602.68 77.03 6.16 12.49 13.79 2.01-9.98 9.72 2.36 13.73-12.33-6.48-12.33 6.48 2.36-13.73-9.98-9.72 13.79-2.01z" stroke="#231f20" stroke-width="4"/><path d="m620.11 736.37c-.11-.01-.23-.021-.351-.03-.2.391-.399.76-.62 1.12-7.17 12.41-21.199 12.51-37.76 18.98-5.11 2-8.71 4.29-11.78 6.52-8.31 6.07-12.63 11.71-32.08 9.93-13.56-1.239-19.239-10.899-31.069-16.449-9.76-4.57-20.5-2.561-32.9-7.311-7.64-2.93-15.609-11.229-25.59-16.45-17.9-9.37-34.12-14.51-51.17-23.76-29.85-16.18-61.49-35.439-76.76-63.97-28.08-9.34-39.77-37.91-60.32-54.82-9.66-7.97-24.7-8.12-29.24-21.939-13.54-.261-29.38.329-38.38-7.311-7.17-6.08-5.45-18.89-12.79-25.59-15.27-13.91-31.56-11.1-53-21.93-5.4-5.48.75-13.771-5.49-20.101-18.79-13.149-38.51-25.359-60.35-35.459" stroke="#231f20" stroke-width="7.3507"/><path d="m620.11 736.37c.52-.59 1.01-1.21 1.479-1.86 28.28 2.08 34.96-17.43 60.311-18.279v1.829c-25.72.98-32.51 20.89-61.79 18.31z" stroke="#231f20" stroke-width="7.3507"/><path d="m502.64 277.93c.04.48.091.98.15 1.49 1.34-.25 2.63-.42 3.87-.5 25.84-1.9 31.63 30.8 25.38 48.02-13.21 2.24-7.2-14.73-18.28-14.62-12.47.98-28.83-1.92-38.979 1.39-.42.13-.83.28-1.23.44-.16.24-.31.49-.45.76-3 5.73-.619 16.85-1.38 24.83 7.86 2.17 13.811 10.86 23.761 5.48.85 8.29 7.439 10.84 7.31 20.1-4.3.04-5.38-3.15-10.96-1.82-7.44 19.77-5.23 35.29-17.67 51.8-.26.35-.54.7-.82 1.06-.51.65-1.05 1.31-1.62 1.97-6.069-3.07-15.39-10.57-21.93-7.32-2.8 11.24 6.07 39.42 16.45 49.351 4.26 38.38-13.42 54.819-32.9 69.449 10.94 8.391 23.3 24.03 45.69 27.421 15.97 2.409 30.17-3.971 38.38 9.13 4.27 6.819 2.85 14.97 3.66 25.59 13.22 5.35 28.18 9.24 40.21 14.62-5.82 19.939 11.97 30.699-1.83 45.689 2.109 4.59 7.28 6.12 7.31 12.8-24.91 23.2-25.16 61.21-18.279 106 8.289.48 14.77-3.63 21.02-8.239 5.06-3.74 9.96-7.811 15.54-10.04 12.53-5 25.18-5.84 34.1-15.32.341-.35.66-.71.971-1.09" stroke="#231f20" stroke-width="7.3507"/><path d="m502.64 277.93c-.55-.11-1.109-.22-1.68-.33-1.07-10.22 4.19-14.09 3.66-23.76 5.8-3.34 9.79-8.49 20.1-7.31-2.46-10.33-20.45-5.14-20.1-18.28h1.83v3.66c4.89 7.29 20.01 4.35 20.1 16.44-9.95-1.42-14.25 2.81-20.1 5.49.33 9.64-4.56 14.05-3.81 24.09z" stroke="#231f20" stroke-width="7.3507"/><path d="m338.25 430.02c2.9-1.63 8.75-.31 12.85-.729 12.01 5.66 16.96 18.38 29.24 23.76 5.53-4.83 17.44-3.27 23.76-7.31 14.08-12.11 3.15-49.25 32.9-45.69-1.63 7.72 1.86 10.32 5.48 12.79 7.81-4.88 19.239-4.36 30.859 3.52.07.04.141.09.21.14.21-.4.41-.8.61-1.2 10.38-20.6 8.109-33.42 17.67-53.63 4.24-.58 7.01.29 9.13 1.83-.25-6.45-5.22-8.18-5.479-14.63-7.33.46-18.211-2.59-23.98-8.92-.6-.65-1.14-1.33-1.61-2.04-3.29-12.02-1.54-19.01 3.21-23 .521-.44 1.08-.84 1.681-1.2 9.04-5.65 25.87-3.48 40.8-3.22 8.68 1.69 5.39 15.34 16.46 14.63 4.65-28.52-6.68-41.05-25.38-46.2-1.3-.37-2.641-.69-4.021-.99" stroke="#231f20" stroke-width="7.3507"/><path d="m338.25 430.02c-.6 1.07-1.2 2.061-1.77 2.931.1-1.461.76-2.381 1.77-2.931z" stroke="#231f20" stroke-width="7.3507"/><path d="m66.02 458.72c17.14 8.37 33.19 17.84 49.31 27.23 18.28-45.681 65.1-62.83 93.21-98.7-5.1-30.86 11.25-38.7 31.07-40.2 2.94-9.61 7.33-26.3 3.66-36.56-18.8 4.35-18 28.31-45.69 23.76 2.55-19.98 13.48-31.59 21.93-45.69-6.85-9.51-15.42-26.61-7.31-40.21-6.39-.92-13.8-.82-18.28-3.65 1.11-6.81 3.87-11.97 7.31-16.45h1.83c-3.44 4.48-6.2 9.64-7.31 16.45 7.18.13 13.73.88 18.27 3.65-8.11 13.6.47 30.7 7.31 40.21-8.31 13.62-18.55 25.31-21.93 43.87 23.21 2.49 26.88-14.56 38.38-23.76 31.91 7.73 77.05-11.51 96.87 20.1-1.55 19.32 12.54 33.78 3.65 49.35 14.68 13.96 6.95 39.29-.05 51.899" stroke="#231f20" stroke-width="7.3507"/><path clip-rule="evenodd" d="m.25.25h850.394v850.394h-850.394z"/></g></svg>