<svg enable-background="new 0 0 850.89 850.89" height="850.89" viewBox="0 0 850.89 850.89" width="850.89" xmlns="http://www.w3.org/2000/svg"><path d="m82.25 353.65c22.93 7.01 53.17-5.39 82-4.21 9.63-5.4 13.82-16.25 18.79-26.3 5.04 13.74 15.08 22.48 26.29 30.05 13.02-6.52 25.98-5.85 33.81 5.64 4.7-1.56 7.38-5.15 13.15-5.64-2.43-14.99 14.86-37.38 1.88-39.44 6.01-14.24 26.92-19.9 39.44-16.91 10.8-12.39 4.6-37.38-7.51-43.2.98-5.9 3.29-10.48 5.63-15.02 20.37-3.7 44.54-8.4 45.08-26.3 6.65-.86 10.85-4.18 18.79-3.76.3-5.8-4.44-10.61 0-15.02 25.74-4.33 44.54 14.21 61.98 24.41-2.62 20.81 21.58 18.55 31.93 30.06 12.48 13.86 9.34 42.21 43.2 33.81 3.96 3.55 5.8 9.23 7.51 15.02 13.011 9.1 35.8 5.08 54.48 7.52 9.85 1.28 15.49 6.59 24.41 5.63 16.85-1.81 21.02-16.4 31.939-24.42 12.71 3.55 24.98 13.8 26.29 33.81-.35 7.94-12.979 10.98-5.63 20.66 8.05 3.86 11.67-4.47 18.78 3.76-1.04 7.23-7.26-1.45-11.271 3.76-6.38 29.24 23.38 34.35 45.08 41.32-2.97 11.34-18.14 2.13-24.42 0-9.83 5.68-5.08 17.43-7.51 26.3-2.71 9.89-12.101 17.07-9.39 26.29-10.58.561-17.881-2.149-24.421-5.63 7.69-30.88-31.729-29.17-54.47-35.69-7.29-1.03-4.41 8.11-9.39 9.39-9.891-7.5-24.311-5.19-31.931 3.76-30.119-20.03-74.399-7.1-99.56-31.93-5.92 1.58-5.34 9.68-11.26 11.27-12.01.1-16.45-7.34-30.06-5.64-9.92 8.24-12.59 23.72-20.66 33.81-21.79-4.77-29.59-51.98-58.23-26.3-.77 28.6-13.17 69.82 18.79 71.38 5.5 24.04 35.39 42.591 18.78 71.37 2.68 6.431 10.19.891 13.15 3.76 7.49 10.04 11.12 23.94 28.17 24.421 23.35 28 35.93 66.75 75.14 78.89-6.261 37.9 34.12 42.81 45.069 69.5-11.489 14.11-15.119-.39-22.54-7.521-9.06-8.699-22.979-14.149-33.8-22.54-11.34-8.779-11.729-21.96-22.55-28.17-6.72-3.859-13.52-.449-22.53-3.76-12.42-4.56-21.85-19.54-33.81-20.66-11.26-1.05-23.87 13.12-33.81 11.271-7.38-1.37-18.7-13.42-9.39-22.54-14.99-18.641-38.37-26.13-56.35-43.2-13.21-12.54-25.57-31.13-31.93-48.84 6.25.63 8.33 5.45 16.9 3.76 5.63-1.24-1.8-4.01 0-7.51 10.68 2.13 12.95 10.67 26.3 5.63-22.77-13.4-43.82-28.77-58.23-46.96-2.49-3.14-8.36-12.35-9.39-16.9-5.01-22.05 9.68-44.85-5.64-61.979-2.29-2.58-8.53-2.45-13.14-5.64-15.4-10.64-18.18-29.04-39.45-30.05-8.64 16.39-19.07 38.93-18.78 58.23-20.65-.24-15.36 23.12-26.3 28.17-14.89-29.35-35.7-62.87-41.32-107.06 3.685 2.828 7.675 4.788 11.915 6.088z" fill="#fff5b4"/><path d="m817.38 60.09c-57.68 0-115.36 0-173.04 0 0-.28 0-.57 0-.85h173.04z"/><path d="m817.38 59.24c-57.68 0-115.36 0-173.04 0 0-.32 0-.64 0-.96h173.04z"/><path d="m748.77 95.12h.061c-.021.11-.04.24-.061.36-.01-.01-.02-.02-.029-.02.009-.12.019-.23.029-.34z" fill="#fff"/><path d="m748.41 104.83c0-3.27.05-6.46.33-9.37.01 0 .02.01.029.02.021-.12.04-.25.061-.36h68.55v1.21c-22.87 0-45.74 0-68.61 0-.27 2.64-.35 5.52-.36 8.5z"/><path d="m741 105.28h.34 6.42c0-1.41 0-2.82 0-4.23h.15c0 5.62.55 11.12.43 16.29-.03 1.64-.14 3.25-.35 4.83l-.36-.05c.33-2.28.021-5.35.13-7.89-2.14 0-4.279 0-6.42 0h-.34c0-2.98 0-5.96 0-8.95z" fill="#fff"/><path d="m747.76 105.28c-2.14 0-4.279 0-6.42 0 0-2.84 0-5.68 0-8.53h6.42v4.3z" fill="#ed1e29"/><path d="m741.34 114.23h6.42c-.109 2.54.2 5.61-.13 7.89-.05.38-.12.74-.21 1.06-2.03 0-4.06 0-6.08 0 0-2.98 0-5.96 0-8.95z" fill="#ed1e29"/><path d="m747.08 85.24c.229-1.33.9-.55 1.689-.42-.42-1.3-.26-1.66.341-2.56l1.26-.38c.83 1.64 1.14 3.52.09 5.49-1.25-.46-2.43-1.03-3.63-1.56v-.01z" fill="#a8d7f4"/><path d="m745.76 132.39h71.62v.6c-24 0-47.99 0-71.99 0 .13-.19.25-.39.37-.6z" fill="#fff"/><path d="m748.46 115.83c-.04 6.59-.5 12.69-2.7 16.56-.12 0-.25 0-.37 0 2.24-3.45 2.891-8.93 3.04-15.05.01-.5.02-1 .03-1.51z"/><path d="m742.53 84.39 1.17-3.41c1.49-.68 2.819-1.56 4.39-2.13.83.84 1.69 1.87 2.28 3.03l-1.26.38c-1.261.45-.66-1.44-1.351-1.71-.04 1.09-1.26 1.01-1.689.43.189 1.38-.11 2.15-.681 2.56 1.16-.18 1.021 1.28 1.69 1.7l-.25.56c-1.3-.57-2.63-1.1-4.14-1.41z" fill="#a8d7f4"/><path d="m747.08 85.24c-.67-.42-.53-1.88-1.69-1.7.57-.41.87-1.18.681-2.56.43.58 1.649.66 1.689-.43.69.27.09 2.16 1.351 1.71-.601.9-.761 1.26-.341 2.56-.79-.13-1.46-.91-1.69.42z" fill="#fbed24"/><path d="m741 132.14c0-2.99 0-5.97 0-8.96h.34 6.08c.09-.32.16-.68.21-1.06l.36.05c-.07.48-.141.96-.23 1.44-.72 3.95-2.12 7.46-3.99 10.32l-.25-.16c.311-.51.601-1.05.86-1.63-1.02 0-2.03 0-3.04 0z" fill="#fff"/><path d="m740.92 89.12 1.61-4.73h.16c1.01 3.13 5.199 2.24 7.1 4.26.22 1.56-.74 1.64-.68 2.99-2.71-.56-4.471-2.33-7.44-2.56z" fill="#a8d7f4"/><path d="m743.52 133.77c-.539.83-1.159 1.57-1.85 2.2-.76-.45-.13-2.68-.33-3.83h3.04c-.26.58-.55 1.12-.86 1.63z" fill="#ed1e29"/><path d="m734.24 95.9h13.85c-.13 1.73-.18 3.44-.18 5.15h-.15c0-1.43 0-2.87 0-4.3-2.14 0-4.279 0-6.42 0v8.53h-.34c-2.26 0-4.51 0-6.76 0 0-2.84 0-5.68 0-8.53z" fill="#fff"/><path d="m742.53 84.39-1.61 4.73-.36.02c1.04-1.78.091-2.65 1.11-4.75z"/><path d="m740.18 91.29.74-2.17.75-.04c.93 3.24 5.76 1.56 6.76 4.69-2.36-1.02-5.19-1.88-8.25-2.48z" fill="#a8d7f4"/><path d="m738.11 87.38c-.011.01-.021.01-.021.02.001-.01.001-.01.021-.02z" fill="#fbed24"/><path d="m738.09 87.4c-.02.02-.04.05-.07.08.02-.03.04-.05.07-.08z" fill="#fbed24"/><path d="m735.81 83.18c.24-.76.58-1.41 1.131-1.77 1.27.81-.19 1.81 1.02 2.98 1.73.01 2.21-.62 3.71 0-1.02 2.1-.07 2.97-1.11 4.75-.069.11-.149.24-.239.37-.99-.36.439-1.07 0-2.14-1.08-.37-.7 1.11-1.351 1.28-.55 1.27.11-1.32.34-1.7-.47-.14-.81.01-1.09.3-.04.04-.08.08-.109.13-.021.01-.021.01-.021.02-.03.03-.05.05-.07.08-.06.08-.13.18-.189.28-.05.07-.09.13-.13.2s-.08.14-.12.21c-.09.14-.17.29-.26.43-.051.08-.09.15-.141.22-.17.25-.35.49-.58.69.271-.8.57-1.56.681-2.56-1.261-.45-.53 1.6-1.69 1.28.34-1.03 1.811-4.37 0-4.26.068-.28.138-.54.218-.79z" fill="#fbed24"/><path d="m734.02 89.82.53-6.7 1.26.06c-.079.25-.149.51-.22.79 1.811-.11.34 3.23 0 4.26 1.16.32.43-1.73 1.69-1.28-.11 1-.41 1.76-.681 2.56.23-.2.41-.44.58-.69.051-.07.09-.14.141-.22.09-.14.17-.29.26-.43.04-.07.08-.14.12-.21s.08-.13.13-.2c.06-.1.13-.2.189-.28.03-.03.051-.06.07-.08 0-.01.01-.01.021-.02.029-.05.069-.09.109-.13.28-.29.62-.44 1.09-.3-.229.38-.89 2.97-.34 1.7.65-.17.271-1.65 1.351-1.28.439 1.07-.99 1.78 0 2.14.09-.13.17-.26.239-.37l.36-.02-.74 2.17c-1.989-.4-4.08-.69-6.21-.85z" fill="#394ea1"/><path d="m734.85 79.22c.021.02.04.04.07.06l-.07.04z"/><path d="m734.55 83.12.3-3.8.07-.04c1.74-.93 3.21-2.2 4.72-3.42 1.591 1.42 2.341 3.88 4.061 5.12l-1.17 3.41h-.86c-1.5-.62-1.979.01-3.71 0-1.21-1.17.25-2.17-1.02-2.98-.551.36-.891 1.01-1.131 1.77z" fill="#394ea1"/><path d="m734.24 83.11c-.11-1.59-.57-2.44-.681-2.98l1.29-.81-.3 3.8z"/><path d="m741 123.18c-2.26 0-4.51 0-6.76 0 .21-2.77-.42-6.61.279-8.79.021-.05.04-.1.061-.16h6.42.34v8.95z" fill="#fff"/><path d="m733.9 132.14c.79-2.14.119-6.11.34-8.96h6.76v8.96c-2.26 0-4.51 0-6.76 0z" fill="#ed1e29"/><path d="m734.24 96.75v8.53c-2.26 0-4.51 0-6.76 0 0-2.84 0-5.68 0-8.53z" fill="#ed1e29"/><path d="m734.52 114.39-.619-.16c.79-2.14.119-6.1.34-8.95h6.76v8.95c-2.14 0-4.28 0-6.42 0-.021.06-.041.11-.061.16z" fill="#ed1e29"/><path d="m727.48 105.28h6.76c-.221 2.85.45 6.81-.34 8.95-2.141 0-4.28 0-6.42 0 0-2.98 0-5.96 0-8.95z" fill="#fff"/><path d="m733.9 132.14c-2.141 0-4.28 0-6.42 0 .22-2.78-.41-6.62.279-8.79.021-.06.04-.11.061-.17h6.42c-.22 2.85.45 6.82-.34 8.96z" fill="#fff"/><path d="m733.9 132.14h.34v8.52c-2.26 0-4.51 0-6.76 0 0-2.84 0-5.68 0-8.52z" fill="#ed1e29"/><path d="m731.77 83.72c-.189-.16-.38-.36-.569-.61.43-1.94.58-1.74 1.35-3.41.49-.22.82 1.66 1.01.43.11.54.57 1.39.681 2.98-.832 1.08-1.652 1.29-2.472.61z" fill="#fbed24"/><path d="m730.86 84.39.909-.67c.82.68 1.641.47 2.471-.61l.31.01-.53 6.7-.05.62c-.91-.07-1.819-.12-2.739-.13l.029-1.58c.19 0 .391-.03.61-.08.97-2.02-.07-2.72-.34-3.81-.16.72-.36-.21-.67-.45z" fill="#a8d7f4"/><path d="m729.51 87.8c-.43-1.3 1.15-2.17.33-2.56.101-.88.92.64 1.021-.85.31.24.51 1.17.67.45.27 1.09 1.31 1.79.34 3.81-.22.05-.42.08-.61.08-.831 0-1.291-.47-1.751-.93z" fill="#fbed24"/><path d="m734.85 79.22c-1.47-1.37-2.569-3.2-4.33-4.21l-.01-.06c1.62-.25 3.23.78 4.41 3.47z" fill="#ed1e29"/><path d="m727.48 83.11c.43-1.94.579-1.74 1.35-3.41.49-.22.82 1.66 1.01.43.11.54.57 1.39.68 2.98-1.02 1.33-2.02 1.33-3.04 0z" fill="#fbed24"/><path d="m727.48 114.23h6.42l.619.16c-.699 2.18-.069 6.02-.279 8.79-2.141 0-4.28 0-6.42 0-.021.06-.04.11-.061.17l-.62-.17c.791-2.13.121-6.1.341-8.95z" fill="#ed1e29"/><path d="m727.14 123.18c-2.14 0-4.279 0-6.42 0 .221-2.77-.41-6.61.28-8.79.02-.05.04-.1.06-.16h6.421c-.221 2.85.449 6.82-.341 8.95z" fill="#fff"/><path d="m727.48 140.66h6.76c0-2.84 0-5.68 0-8.52h6.76.34c.2 1.15-.43 3.38.33 3.83.69-.63 1.311-1.37 1.85-2.2l.25.16c-3.939 6.04-10.02 9.17-16.47 7.35z" fill="#fff"/><path d="m726.47 78.42c1.15-1.99 2.601-3.24 4.04-3.47l.01.06c-1.05 1.8-2.51 3.09-4.05 4.27-.01-.01-.02-.02-.029-.02z" fill="#ed1e29"/><path d="m726.47 79.28c1.54-1.18 3-2.47 4.05-4.27 1.761 1.01 2.86 2.84 4.33 4.21v.1l-1.29.81c-.189 1.23-.52-.65-1.01-.43-.77 1.67-.92 1.47-1.35 3.41h-.681c-.109-1.59-.569-2.44-.68-2.98-.189 1.23-.52-.65-1.01-.43-.771 1.67-.92 1.47-1.35 3.41l-1.131-.03.091-3.82c.011 0 .021.01.031.02z" fill="#a8d7f4"/><path d="m726.35 83.08 1.131.03c1.02 1.33 2.02 1.33 3.039 0h.681c.189.25.38.45.569.61l-.909.67c-.101 1.49-.92-.03-1.021.85.82.39-.76 1.26-.33 2.56.46.46.92.93 1.75.93l-.029 1.58c-1.69-.04-3.4.01-5.07.16v-.04z" fill="#a8d7f4"/><path d="m718.03 80.79c1.72-1.03 2.55-3.19 3.7-4.93 1.689.99 3.21 2.18 4.71 3.4l-.091 3.82-.189 7.35v.04c-1.641.14-3.26.39-4.82.74l-.01-.18-1.35-4.19z" fill="#394ea1"/><path d="m720.38 114.23c.79-2.14.12-6.1.34-8.95l.12-.36c1.61.88 4.55.09 6.641.36v8.95c-2.141 0-4.28 0-6.421 0-.02.06-.04.11-.06.16z" fill="#ed1e29"/><path d="m727.48 132.14c-2.141 0-4.28 0-6.421 0-.06.04-.109.1-.149.16l-.19-.16c0-2.99 0-5.97 0-8.96h6.42l.62.17c-.69 2.17-.06 6.01-.28 8.79z" fill="#ed1e29"/><path d="m720.72 105.28c-2.25 0-4.51 0-6.76 0 0-2.83 0-5.66 0-8.49 0-.01 0-.02 0-.04h6.76v8.1c.04.03.08.05.12.07z" fill="#ed1e29"/><path d="m721.73 75.86c-1.15 1.74-1.98 3.9-3.7 4.93l-.351-1.09c2-.74 2.521-3.35 4.051-4.69 1.8.86 3.35 2.03 4.739 3.41l-.029.84c-1.5-1.22-3.02-2.41-4.71-3.4z" fill="#ed1e29"/><path d="m723.08 139.39c-2.3-1.44-4.07-3.31-5.44-5.57l.511-.28c.649 1.05 1.8 2.21 2.569 2.86.2-1.2-.34-3.32.19-4.1.04-.06.09-.12.149-.16h6.421v8.52l-.181.62c-1.389-.39-2.799-1.02-4.219-1.89z" fill="#fff"/><path d="m713.28 95.55c-22.3-1.01-46.07-.14-68.94-.43 0-11.68 0-23.35 0-35.03h173.04v35.03c-22.85 0-45.7 0-68.55 0 .78-4.13 2.51-7.07 3.32-11.15-1.341-2-2.021-4.84-3.721-6.4-1.63.64-2.85 1.81-4.729 2.13-1.75-1.06-2.181-3.78-4.061-4.69-1.59 1.12-3.13 2.3-4.72 3.41-1.18-2.69-2.79-3.72-4.41-3.47-1.439.23-2.89 1.48-4.04 3.47-1.39-1.38-2.939-2.55-4.739-3.41-1.53 1.34-2.051 3.95-4.051 4.69-1.72-.53-2.939-1.69-4.729-2.13-1.16 2.1-2.22 4.31-3.38 6.4 1.02 4.1 2.39 7.78 3.71 11.51z" fill="#ed1e29"/><path d="m718.15 133.54c-.32-.52-.511-1.01-.471-1.4h3.04l.19.16c-.53.78.01 2.9-.19 4.1-.769-.65-1.919-1.81-2.569-2.86z" fill="#ed1e29"/><path d="m716.33 132.99c-24 0-47.99 0-71.99 0 0-.2 0-.4 0-.6h71.62c.12.21.24.41.37.6z" fill="#fff"/><path d="m715.65 86.52c-1.261-.42-.881-.91-2.37-.42-.66-3.03.47-2.22.68-4.69.57.56 1.13 1.13 2.37.85-.73.88-.18 2.03.67 2.13-.23.99-1.77.32-1.35 2.13z" fill="#fbed24"/><path d="m714.3 123.18h6.42v8.96c-1.01 0-2.029 0-3.04 0-.04.39.15.88.471 1.4l-.511.28c-1.899-3.16-3-7.08-3.609-11.68l.09-.01c.049.37.099.72.179 1.05z" fill="#fff"/><path d="m720.72 123.18c-2.14 0-4.279 0-6.42 0-.08-.33-.13-.68-.18-1.05-.3-2.33-.11-5.26-.16-7.9h6.42l.62.16c-.69 2.18-.06 6.02-.28 8.79z" fill="#ed1e29"/><path d="m713.6 96.79c0-.29.011-.59.021-.89h20.62v.85c-2.26 0-4.51 0-6.76 0v8.53c-2.091-.27-5.03.52-6.641-.36-.04-.02-.08-.04-.12-.07 0-2.69 0-5.4 0-8.1-2.25 0-4.51 0-6.76 0v.04z" fill="#fff"/><path d="m714.03 122.14c-.62-4.68-.73-10.06-.65-16.02.04-2.96.12-6.08.22-9.33h.36v8.49h6.76c-.22 2.85.45 6.81-.34 8.95-2.14 0-4.28 0-6.42 0 .05 2.64-.14 5.57.16 7.9z" fill="#fff"/><path d="m713.28 102.19c.01-1.01.01-2.01.02-2.99 0-.12 0-.24 0-.36 0-.39 0-.77-.01-1.15l-.01-2.14v-.07c9.5-5.99 25.87-5.66 35.46-.02-.28 2.91-.33 6.1-.33 9.37v.09c.01 2.89.06 5.85.06 8.73v.23c0 .65 0 1.3-.01 1.95-.01.51-.02 1.01-.03 1.51h-.09c.12-5.17-.43-10.67-.43-16.29 0-1.71.05-3.42.18-5.15-4.609 0-9.229 0-13.85 0-6.87 0-13.75 0-20.62 0-.01.3-.021.6-.021.89-.1 3.25-.18 6.37-.22 9.33h-.13c.011-1.32.031-2.64.031-3.93z" fill="#ed1e29"/><path d="m713.28 96.75c-5.25-.23-10.59-.36-15.98-.43 5.351-.17 10.681-.41 15.98-.77l.01 2.14c0-.32-.01-.63-.01-.94z" fill="#fff"/><path d="m715.96 132.39c-2.26-4-2.72-11.43-2.75-19.42.08 8.19.64 15.68 3.12 19.42-.13 0-.25 0-.37 0z" fill="#fff"/><path d="m713.28 102.19c0 1.29-.021 2.61-.03 3.93-.02 1.73-.04 3.48-.05 5.21 0-3.03.05-6.13.08-9.14z" fill="#fff"/><path d="m713.25 106.12h.13c-.08 5.96.03 11.34.65 16.02.609 4.6 1.71 8.52 3.609 11.68 1.37 2.26 3.141 4.13 5.44 5.57 1.42.87 2.83 1.5 4.22 1.89 6.45 1.82 12.53-1.31 16.47-7.35 1.87-2.86 3.271-6.37 3.99-10.32.09-.48.16-.96.23-1.44.21-1.58.319-3.19.35-4.83h.09c-.149 6.12-.8 11.6-3.04 15.05h.37c-.12.21-.24.41-.37.6h71.99v36.23c-57.68 0-115.36 0-173.04 0 0-12.07 0-24.15 0-36.23h71.99c-.13-.19-.25-.39-.37-.6h.37c-2.48-3.74-3.04-11.23-3.12-19.42 0-.42-.01-.86-.01-1.29 0-.12 0-.23 0-.35.011-1.73.031-3.48.051-5.21z" fill="#394ea1"/><path d="m713.2 111.68c0 .43.01.87.01 1.29-.01-.43-.01-.86-.01-1.29z" fill="#fff"/><path d="m713.28 86.1c1.489-.49 1.109 0 2.37.42-.42-1.81 1.119-1.14 1.35-2.13-.85-.1-1.4-1.25-.67-2.13-1.24.28-1.8-.29-2.37-.85-.21 2.47-1.34 1.66-.68 4.69zm-.67 3.41-.511.16c-.569-1.82-1.149-3.62-1.859-5.28 1.109-1.73 1.79-4 3.04-5.54 1.649.48 3.229 1.05 4.399 2.13.12-.06.23-.12.351-.19l1.95 6.05-1.25.41c-.08-.25-.211-.49-.37-.73-.26 3.14-4.05 2.96-5.75 2.99z" fill="#a8d7f4"/><path d="m718.73 87.25c.989 3-4.631 5.85-6.12 2.26 1.699-.03 5.489.15 5.75-2.99.16.24.29.48.37.73z" fill="#fff"/><path d="m713.62 94.2c-.55-1.46-1.03-3-1.521-4.53l.511-.16c1.489 3.59 7.109.74 6.12-2.26l1.25-.41 1.35 4.19.01.18c-2.82.63-5.45 1.6-7.72 2.99z" fill="#a8d7f4"/><path d="m709.57 83.97c1.16-2.09 2.22-4.3 3.38-6.4 1.79.44 3.01 1.6 4.729 2.13l.351 1.09c-.12.07-.23.13-.351.19-1.17-1.08-2.75-1.65-4.399-2.13-1.25 1.54-1.931 3.81-3.04 5.54.71 1.66 1.29 3.46 1.859 5.28.49 1.53.971 3.07 1.521 4.53 2.27-1.39 4.899-2.36 7.72-2.99 1.561-.35 3.18-.6 4.82-.74 1.67-.15 3.38-.2 5.07-.16.92.01 1.829.06 2.739.13 2.13.16 4.221.45 6.21.85 3.061.6 5.891 1.46 8.25 2.48-1-3.13-5.83-1.45-6.76-4.69 2.97.23 4.73 2 7.44 2.56-.061-1.35.899-1.43.68-2.99-1.9-2.02-6.09-1.13-7.1-4.26 1.51.31 2.84.84 4.14 1.41v.01c1.2.53 2.38 1.1 3.63 1.56 1.05-1.97.74-3.85-.09-5.49-.59-1.16-1.45-2.19-2.28-3.03-1.57.57-2.899 1.45-4.39 2.13-1.72-1.24-2.47-3.7-4.061-5.12-1.51 1.22-2.979 2.49-4.72 3.42-.03-.02-.05-.04-.07-.06l.07-.8c1.59-1.11 3.13-2.29 4.72-3.41 1.88.91 2.311 3.63 4.061 4.69 1.88-.32 3.1-1.49 4.729-2.13 1.7 1.56 2.38 4.4 3.721 6.4-.811 4.08-2.54 7.02-3.32 11.15-.021 0-.04 0-.061 0-.01.11-.02.22-.029.34-9.59-5.64-25.96-5.97-35.46.02-1.319-3.73-2.689-7.41-3.709-11.51z" fill="#ed1e29"/><path d="m697.3 96.32c-17.62.55-35.42.23-52.96.01 17.48.22 35.49-.23 52.96-.01z" fill="#ed1e29"/><path d="m697.3 96.32c-17.47-.22-35.479.23-52.96.01 0-.41 0-.81 0-1.21 22.87.29 46.641-.58 68.94.43-5.3.36-10.63.6-15.98.77z" fill="#ed1e29"/><path d="m715.96 132.39c-23.87 0-47.75 0-71.62 0v.6 36.23h-.67c0-36.23 0-72.47 0-108.7-.04-.61-.06-1.21.33-1.28h.34v.85 35.03 1.21c17.54.22 35.34.54 52.96-.01 5.391.07 10.73.2 15.98.43 0 .31.01.62.01.94.01.38.01.76.01 1.15v.36c-.01.98-.01 1.98-.02 2.99-.03 3.01-.08 6.11-.08 9.14v.35c0 .43 0 .86.01 1.29.03 7.99.49 15.42 2.75 19.42z" fill="#fff"/><path d="m644.34 169.22h173.04c0-12.07 0-24.15 0-36.23 0-.2 0-.4 0-.6-23.88 0-47.75 0-71.62 0 2.2-3.87 2.66-9.97 2.7-16.56.01-.65.01-1.3.01-1.95 0-.08 0-.15 0-.23 0-2.88-.05-5.84-.06-8.73 0-.03 0-.06 0-.09.01-2.98.09-5.86.359-8.5h68.61c0-.41 0-.81 0-1.21 0-11.68 0-23.35 0-35.03 0-.28 0-.57 0-.85h.67v9.02 101.82c-58.13 0-116.26 0-174.38 0 0-.29 0-.57 0-.86z" fill="#fff"/><path d="m817.38 58.28c-57.68 0-115.36 0-173.04 0v.96c-.109 0-.229 0-.34 0-.39.07-.37.67-.33 1.28v108.7.86h-.15l-1.05-113.4h176.22v11.22l-.641.36c0-3.01 0-6.01 0-9.02-.22 0-.45 0-.67 0 .001-.32.001-.64.001-.96z" fill="#fff"/><path d="m643.67 170.08h174.38c0-33.94 0-67.88 0-101.82l.641-.36v103.57h-175.161l-.011-1.39z" fill="#fff"/><path d="m641.73 48.85c-1.801.85-3.95 1.34-6.25 1.34-2.211 0-4.271-.45-6.021-1.23-3.32-1.48-5.54-4.15-5.54-7.19 0-4.66 5.18-8.43 11.561-8.43 6.38 0 11.56 3.77 11.56 8.43 0 2.97-2.11 5.58-5.31 7.08z" fill="#c8c8c8"/><path d="m635.48 50.19c2.3 0 4.449-.49 6.25-1.34v202.76h-11.93l-.34-202.65c1.75.78 3.81 1.23 6.02 1.23z" fill="#c8c8c8"/><path d="m470.42 743.88c8.49-5.91 16.7 4.53 26.29 3.75-6.59 4.02-19.13-2.09-26.29-3.75z" fill="#fff5b4"/><path d="m442.89 693.19c1.061-.021 2.101-.03 3.11-.03-1.05.04-2.09.05-3.11.03z" fill="#fff"/><path d="m442.89 693.19c-22.62.439-54.83 5.609-68.27-9.421 25.35-5.939 42.8 9.101 68.27 9.421z" fill="#fff5b4"/><path d="m423.46 670.62c-16.18 3.78-39.73 6.49-48.84-5.63 4.79-13.58 44.99-5.89 48.84 5.63z" fill="#fff5b4"/><path d="m337.06 706.31c-.5-7.739 14.55-6.609 18.78-3.75-.44 6.5-16.27 11-18.78 3.75z" fill="#fff5b4"/><path d="m248.78 584.22c-5.11 3.271-11.78-4.88-13.15-11.27 5.66 2.48 11.59 4.69 13.15 11.27z" fill="#fff5b4"/><path d="m205.58 426.45c-15.6 4.689-26.37-9.31-37.57-15.03 2.25-10.28 9.03-16.02 11.27-26.3 8.24 14.3 17.69 27.39 26.3 41.33z" fill="#fff5b4"/><path d="m154.86 396.39c5.84.42 3.18 9.35 3.76 15.03-2.78-.98-4.74-2.78-7.51-3.76-.9-5.91 2.67-7.34 3.75-11.27z" fill="#fff5b4"/><g fill="none"><path d="m817.38 95.12c0-11.68 0-23.35 0-35.03 0-.28 0-.57 0-.85" stroke="#231f20" stroke-width="2.1154"/><path d="m745.76 132.39c2.2-3.87 2.66-9.97 2.7-16.56.01-.65.01-1.3.01-1.95" stroke="#231f20" stroke-width="2.1154"/><path d="m643.67 169.22h.67 173.04c0-12.07 0-24.15 0-36.23" stroke="#231f20" stroke-width="2.1154"/><path d="m643.67 169.22v.86" stroke="#231f20" stroke-width="2.1154"/><path d="m818.05 68.26c0-3.01 0-6.01 0-9.02-.22 0-.45 0-.67 0" stroke="#231f20" stroke-width="2.1154"/><path d="m748.41 104.92c.01 2.89.06 5.85.06 8.73v.23" stroke="#231f20" stroke-width="2.1154"/><path d="m644.34 132.99c0-.2 0-.4 0-.6h71.62c.12.21.24.41.37.6-24 0-47.99 0-71.99 0z" stroke="#231f20" stroke-width="2.1154"/><path d="m817.38 95.12v1.21c-22.87 0-45.74 0-68.61 0-.27 2.64-.35 5.52-.359 8.5v.09" stroke="#231f20" stroke-width="2.1154"/><path d="m737.32 88.6c-.051.08-.09.15-.141.22" stroke="#231f20" stroke-width=".6044"/><path d="m737.7 87.96c-.04.07-.08.14-.12.21" stroke="#231f20" stroke-width=".6044"/><path d="m738.11 87.38c-.021.01-.021.01-.021.02-.03.03-.05.05-.07.08" stroke="#231f20" stroke-width=".6044"/><path d="m643.67 170.08h174.38c0-33.94 0-67.88 0-101.82" stroke="#231f20" stroke-width="2.1154"/><path d="m642.47 56.68h176.22v11.22 103.57h-175.16" stroke="#231f20" stroke-width="7"/><path d="m629.46 48.96c-3.32-1.48-5.54-4.15-5.54-7.19 0-4.66 5.18-8.43 11.561-8.43 6.38 0 11.56 3.77 11.56 8.43 0 2.97-2.11 5.58-5.31 7.08-1.801.85-3.95 1.34-6.25 1.34-2.211 0-4.271-.45-6.021-1.23z" stroke="#231f20" stroke-width="7"/><path d="m629.46 48.72v.24l.34 202.65" stroke="#231f20" stroke-width="7"/><path d="m641.73 48.3v.55 202.76" stroke="#231f20" stroke-width="7"/><path d="m818.05 68.26.64-.36.6-.34" stroke="#231f20" stroke-width="4.2307"/><path d="m734.92 79.28c1.74-.93 3.21-2.2 4.72-3.42 1.591 1.42 2.341 3.88 4.061 5.12 1.49-.68 2.819-1.56 4.39-2.13.83.84 1.69 1.87 2.28 3.03.83 1.64 1.14 3.52.09 5.49-1.25-.46-2.43-1.03-3.63-1.56v-.01c-1.3-.57-2.63-1.1-4.14-1.41 1.01 3.13 5.199 2.24 7.1 4.26.22 1.56-.74 1.64-.68 2.99-2.71-.56-4.471-2.33-7.44-2.56.93 3.24 5.76 1.56 6.76 4.69-2.359-1.02-5.189-1.88-8.25-2.48-1.989-.4-4.08-.69-6.21-.85-.91-.07-1.819-.12-2.739-.13-1.69-.04-3.4.01-5.07.16-1.641.14-3.26.39-4.82.74-2.82.63-5.45 1.6-7.72 2.99-.55-1.46-1.03-3-1.521-4.53-.569-1.82-1.149-3.62-1.859-5.28 1.109-1.73 1.79-4 3.04-5.54 1.649.48 3.229 1.05 4.399 2.13.12-.06.23-.12.351-.19 1.72-1.03 2.55-3.19 3.7-4.93 1.689.99 3.21 2.18 4.71 3.4.01 0 .02.01.029.02 1.54-1.18 3-2.47 4.05-4.27 1.761 1.01 2.86 2.84 4.33 4.21.019.02.039.04.069.06z" stroke="#231f20" stroke-width=".6044"/><path d="m730.52 83.11c-.109-1.59-.569-2.44-.68-2.98-.189 1.23-.52-.65-1.01-.43-.771 1.67-.92 1.47-1.35 3.41 1.02 1.33 2.02 1.33 3.04 0z" stroke="#231f20" stroke-width=".6044"/><path d="m733.56 80.13c-.189 1.23-.52-.65-1.01-.43-.77 1.67-.92 1.47-1.35 3.41.189.25.38.45.569.61.82.68 1.641.47 2.471-.61-.11-1.59-.57-2.44-.68-2.98z" stroke="#231f20" stroke-width=".6044"/><path d="m749.11 82.26c-1.261.45-.66-1.44-1.351-1.71-.04 1.09-1.26 1.01-1.689.43.189 1.38-.11 2.15-.681 2.56 1.16-.18 1.021 1.28 1.69 1.7.229-1.33.9-.55 1.689-.42-.418-1.3-.258-1.66.342-2.56z" stroke="#231f20" stroke-width=".6044"/><path d="m713.96 81.41c-.21 2.47-1.34 1.66-.68 4.69 1.489-.49 1.109 0 2.37.42-.42-1.81 1.119-1.14 1.35-2.13-.85-.1-1.4-1.25-.67-2.13-1.24.28-1.8-.29-2.37-.85z" stroke="#231f20" stroke-width=".6044"/><path d="m712.61 89.51c1.489 3.59 7.109.74 6.12-2.26-.08-.25-.211-.49-.37-.73-.26 3.14-4.05 2.96-5.75 2.99z" stroke="#231f20" stroke-width=".6044"/><path d="m737.18 88.82c-.17.25-.35.49-.58.69.271-.8.57-1.56.681-2.56-1.261-.45-.53 1.6-1.69 1.28.34-1.03 1.811-4.37 0-4.26.07-.28.141-.54.22-.79.24-.76.58-1.41 1.131-1.77 1.27.81-.19 1.81 1.02 2.98 1.73.01 2.21-.62 3.71 0-1.02 2.1-.07 2.97-1.11 4.75-.069.11-.149.24-.239.37-.99-.36.439-1.07 0-2.14-1.08-.37-.7 1.11-1.351 1.28-.55 1.27.11-1.32.34-1.7-.47-.14-.81.01-1.09.3-.04.04-.08.08-.109.13-.011.01-.021.01-.021.02-.02.02-.04.05-.07.08-.06.08-.13.18-.189.28-.05.07-.09.13-.13.2" stroke="#231f20" stroke-width=".6044"/><path d="m737.58 88.17c-.09.14-.17.29-.26.43" stroke="#231f20" stroke-width=".6044"/><path d="m731.26 88.73c-.83 0-1.29-.47-1.75-.93-.43-1.3 1.15-2.17.33-2.56.101-.88.92.64 1.021-.85.31.24.51 1.17.67.43v.02c.27 1.09 1.31 1.79.34 3.81-.221.05-.421.08-.611.08z" stroke="#231f20" stroke-width=".6044"/><path d="m713.6 96.79c0-.29.011-.59.021-.89h20.62 13.85c-.13 1.73-.18 3.44-.18 5.15 0 5.62.55 11.12.43 16.29-.03 1.64-.14 3.25-.35 4.83-.07.48-.141.96-.23 1.44-.72 3.95-2.12 7.46-3.99 10.32-3.939 6.04-10.02 9.17-16.47 7.35-1.39-.39-2.8-1.02-4.22-1.89-2.3-1.44-4.07-3.31-5.44-5.57-1.899-3.16-3-7.08-3.609-11.68-.62-4.68-.73-10.06-.65-16.02.038-2.96.118-6.08.218-9.33z" stroke="#231f20" stroke-width="2.1154"/><path d="m741.34 105.28h6.42c0-1.41 0-2.82 0-4.23 0-1.43 0-2.87 0-4.3-2.14 0-4.279 0-6.42 0z" stroke="#231f20" stroke-width=".6044"/><path d="m741.34 123.18h6.08c.09-.32.16-.68.21-1.06.33-2.28.021-5.35.13-7.89-2.14 0-4.279 0-6.42 0z" stroke="#231f20" stroke-width=".6044"/><path d="m734.24 123.18h6.76v8.96c-2.26 0-4.51 0-6.76 0v8.52c-2.26 0-4.51 0-6.76 0 0-2.84 0-5.68 0-8.52h6.42c.79-2.14.12-6.11.34-8.96z" stroke="#231f20" stroke-width=".6044"/><path d="m734.24 105.28h6.76v8.95c-2.14 0-4.28 0-6.42 0-.021.06-.04.11-.061.16-.699 2.18-.069 6.02-.279 8.79-2.141 0-4.28 0-6.42 0-.021.06-.04.11-.061.17-.689 2.17-.06 6.01-.279 8.79-2.141 0-4.28 0-6.421 0-.06.04-.109.1-.149.16-.53.78.01 2.9-.19 4.1-.77-.65-1.92-1.81-2.569-2.86-.32-.52-.511-1.01-.471-1.4h3.04c0-2.99 0-5.97 0-8.96h6.42c.79-2.13.12-6.1.341-8.95h6.42c.789-2.14.119-6.1.339-8.95z" stroke="#231f20" stroke-width=".6044"/><path d="m734.24 105.28c-2.26 0-4.51 0-6.76 0v8.95c-2.141 0-4.28 0-6.421 0-.02.06-.04.11-.06.16-.69 2.18-.06 6.02-.28 8.79-2.14 0-4.279 0-6.42 0-.08-.33-.13-.68-.18-1.05-.3-2.33-.11-5.26-.16-7.9h6.42c.79-2.14.12-6.1.34-8.95-2.25 0-4.51 0-6.76 0 0-2.83 0-5.66 0-8.49 0-.01 0-.02 0-.04h6.76v8.1c.04.03.08.05.12.07 1.61.88 4.55.09 6.641.36 0-2.84 0-5.68 0-8.53h6.76z" stroke="#231f20" stroke-width=".6044"/><path d="m615.05 285.57c12.71 3.55 24.98 13.8 26.29 33.81-.35 7.94-12.979 10.98-5.63 20.66 8.05 3.86 11.67-4.47 18.78 3.76-1.04 7.23-7.26-1.45-11.271 3.76-6.38 29.24 23.38 34.35 45.08 41.32-2.97 11.34-18.14 2.13-24.42 0-9.83 5.68-5.08 17.43-7.51 26.3-2.71 9.89-12.101 17.07-9.39 26.29-10.58.561-17.881-2.149-24.421-5.63 7.69-30.88-31.729-29.17-54.47-35.69-7.29-1.03-4.41 8.11-9.39 9.39-9.891-7.5-24.311-5.19-31.931 3.76-30.119-20.03-74.399-7.1-99.56-31.93-5.92 1.58-5.34 9.68-11.26 11.27-12.01.1-16.45-7.34-30.06-5.64-9.92 8.24-12.59 23.72-20.66 33.81-21.79-4.77-29.59-51.98-58.23-26.3-.77 28.6-13.17 69.82 18.79 71.38 5.5 24.04 35.39 42.591 18.78 71.37 2.68 6.431 10.19.891 13.15 3.76 7.49 10.04 11.12 23.94 28.17 24.421 23.35 28 35.93 66.75 75.14 78.89-6.261 37.9 34.12 42.81 45.069 69.5-11.489 14.11-15.119-.39-22.54-7.521-9.06-8.699-22.979-14.149-33.8-22.54-11.34-8.779-11.729-21.96-22.55-28.17-6.72-3.859-13.52-.449-22.53-3.76-12.42-4.56-21.85-19.54-33.81-20.66-11.26-1.05-23.87 13.12-33.81 11.271-7.38-1.37-18.7-13.42-9.39-22.54-14.99-18.641-38.37-26.13-56.35-43.2-13.21-12.54-25.57-31.13-31.93-48.84 6.25.63 8.33 5.45 16.9 3.76 5.63-1.24-1.8-4.01 0-7.51 10.68 2.13 12.95 10.67 26.3 5.63-22.77-13.4-43.82-28.77-58.23-46.96-2.49-3.14-8.36-12.35-9.39-16.9-5.01-22.05 9.68-44.85-5.64-61.979-2.29-2.58-8.53-2.45-13.14-5.64-15.4-10.64-18.18-29.04-39.45-30.05-8.64 16.39-19.07 38.93-18.78 58.23-20.65-.24-15.36 23.12-26.3 28.17-14.89-29.35-35.7-62.87-41.32-107.06 3.68 2.83 7.67 4.79 11.91 6.09 22.93 7.01 53.17-5.39 82-4.21 9.63-5.4 13.82-16.25 18.79-26.3 5.04 13.74 15.08 22.48 26.29 30.05 13.02-6.52 25.98-5.85 33.81 5.64 4.7-1.56 7.38-5.15 13.15-5.64-2.43-14.99 14.86-37.38 1.88-39.44 6.01-14.24 26.92-19.9 39.44-16.91 10.8-12.39 4.6-37.38-7.51-43.2.98-5.9 3.29-10.48 5.63-15.02 20.37-3.7 44.54-8.4 45.08-26.3 6.65-.86 10.85-4.18 18.79-3.76.3-5.8-4.44-10.61 0-15.02 25.74-4.33 44.54 14.21 61.98 24.41-2.62 20.81 21.58 18.55 31.93 30.06 12.48 13.86 9.34 42.21 43.2 33.81 3.96 3.55 5.8 9.23 7.51 15.02 13.011 9.1 35.8 5.08 54.48 7.52 9.85 1.28 15.49 6.59 24.41 5.63 16.854-1.812 21.024-16.402 31.944-24.422z" stroke="#231f20" stroke-width="5.6456"/><path d="m179.28 385.12c8.24 14.3 17.69 27.39 26.3 41.33-15.6 4.689-26.37-9.31-37.57-15.03 2.25-10.28 9.03-16.02 11.27-26.3z" stroke="#231f20" stroke-width="5.6456"/><path d="m158.62 411.42c-2.78-.98-4.74-2.78-7.51-3.76-.9-5.91 2.67-7.34 3.75-11.27 5.84.42 3.18 9.35 3.76 15.03z" stroke="#231f20" stroke-width="5.6456"/><path d="m235.63 572.95c5.66 2.479 11.59 4.689 13.15 11.27-5.11 3.27-11.78-4.88-13.15-11.27z" stroke="#231f20" stroke-width="5.6456"/><path d="m423.46 670.62c-16.18 3.78-39.73 6.49-48.84-5.63 4.79-13.58 44.99-5.89 48.84 5.63z" stroke="#231f20" stroke-width="5.6456"/><path d="m442.89 693.19c-22.62.439-54.83 5.609-68.27-9.421 25.35-5.939 42.8 9.101 68.27 9.421z" stroke="#231f20" stroke-width="5.6456"/><path d="m442.89 693.19c1.021.02 2.061.01 3.11-.03-1.01 0-2.05.01-3.11.03z" stroke="#231f20" stroke-width="5.6456"/><path d="m355.84 702.56c-.44 6.5-16.27 11-18.78 3.75-.5-7.74 14.55-6.61 18.78-3.75z" stroke="#231f20" stroke-width="5.6456"/><path d="m496.71 747.63c-6.59 4.021-19.13-2.09-26.29-3.75 8.49-5.91 16.7 4.53 26.29 3.75z" stroke="#231f20" stroke-width="5.6456"/><path d="m506.1 713.83 38.15-43.58" stroke="#231f20" stroke-width="7"/><path d="m82.25 354.25c0-.2 0-.4 0-.6.1-30.67 8.11-55.4 18-55.4" stroke="#231f20" stroke-width="7"/><path d="m615.05 285.57 83.2-19.32" stroke="#231f20" stroke-width="7"/><path d="m359.6 193.54-39.35-53.29" stroke="#231f20" stroke-width="7"/><path d="m.25.25h850.394v850.394h-850.394z"/></g></svg>