<svg enable-background="new 0 0 850.89 854.244" height="854.244" viewBox="0 0 850.89 854.244" width="850.89" xmlns="http://www.w3.org/2000/svg"><path d="m590.75 650.01c-5.87-13.17-23.44-21.8-27.27-37.2-6.4-25.72 0-64.229 0-97.319 0-26.33 0-52.34 0-76.521.319 9.55 1.449 19.82 1.449 28.58v146.71c7.261 11.85 20.741 23.16 25.821 35.75z" fill="#fff"/><path d="m563.48 438.97v76.521c0 33.09-6.4 71.6 0 97.319 3.829 15.4 21.399 24.03 27.27 37.2.02.021.03.05.03.07.83 2.07 1.439 4.17 1.75 6.31l.319.221c-3.55 5.189-7.05 10.449-10.489 15.76-11.92-2.101-15.49 6.399-24.7 2.899-1.11 8.82 6.91 10.41 4.359 13.07-.159 6.79-2.659-1.03-4.359-1.45-7.891 3.82-2.92 12.271-11.62 15.98-22.69-3.87-29.29 17.63-29.05 37.77-17.431 20.341-22.28 53.25-39.221 74.08-2.88 1.86-6.47-4.239-8.72 2.9-28.39-21.47-59.58-40.15-85.7-63.91-.33-5.17 2.09-7.59 7.27-7.26.9-20.42-24.86-29.021-44.37-37.62-16.46-9.49-32.92-18.49-49.64-27.66-24.36-14.46-49.07-29.49-73.57-42.43-11.4-7.24-25.26-15.91-36.01-19.141-2.3-21.85 6.64-41.84-1.23-56.18 5.22-8.83 14.23-13.85 14.53-27.6 10.79-3.73 16.35-12.7 17.43-26.141 7.44 3.801 6.51-8.76 17.43-5.81-4.06-12.021 5.02-16.43 10.17-23.25-.11-28.521-7.16-43.25-13.08-63.91-4.06 1.14-17.73-17.97-18.88-26.15-.92-6.54 2.22-10.92 2.9-17.43-12.74-5.65-20.33-16.46-23.24-31.95.42-1.05.89-2.05 1.41-2.99 3.3-3.36 6.65-6.67 10.12-9.85 19.68-10.94 56.71-4.52 85.8-6.05 5.06-.7 1.62 7.09 5.81 7.26 19.61 5.83 36.58-1 52.29 4.36 8.08 2.76 15.35 11.4 24.69 17.43 14.27 9.21 26.47 13.07 36.32 24.7 30.62 1.34 54.12 4.11 76.99 11.62 3.72-9.82 14.06-13.03 16.92-23.71 1.95-1.65 4-3.2 6.13-4.67 14.94-6.16 28.61-13.61 43.76-19.56 7.53 5.06 12.021 13.16 18.891 18.89 14.659 2.48 24.46-5.75 36.31-1.46l.43.34c-12.649 15.81-23.109 37.44-36.13 52-2.29 1.83-4.38 3.65-5.91 5.9-1.109.99-2.25 1.91-3.409 2.77v11.939c-.131 2.833-.111 5.813-.001 8.873z" fill="#fff5b4"/><path d="m810.27 218.05c-80.529 0-161.039 0-241.56 0v-.22h240.41.63v-.63-151.62h.52v12.91z" fill="#fff"/><path d="m809.12 216.57v.63c-.21 0-.42 0-.63 0z" fill="#231f20"/><path d="m809.12 63.7v.63l-.63-.63z" fill="#231f20"/><path d="m809.12 64.33v1.25c-.2 0-.4 0-.601 0v-.69-.56z" fill="#231f20"/><path d="m809.12 65.58v150.99h-.601v-.55-45.46-.63h-.029v-6.42h.029v-.63-44.86-.63h-.029v-6.42h.029v-.63-44.76z" fill="#231f20"/><path d="m808.52 64.33v-.07h-.03v-.56l.63.63z" fill="#fff"/><path d="m808.49 64.26h.029v.07h-.029z" fill="#231f20"/><path d="m808.52 64.33v.56.69c-.01 0-.02 0-.029 0v-1.25z" fill="#231f20"/><path d="m808.52 110.34v.63h-.029v-45.39h.029z" fill="#231f20"/><path d="m808.52 162.88v.63h-.03v-46.12h.03v.63z" fill="#231f20"/><path d="m808.49 216.57v-46.64h.03v.63 45.46.55z" fill="#231f20"/><path d="m808.49 216.57h.029v.07h-.029z" fill="#231f20"/><path d="m808.49 217.2v-.56h.03v-.07h.6z" fill="#fff"/><path d="m807.89 109.71v.63c-.21 0-.42 0-.63 0z" fill="#231f20"/><path d="m807.89 162.25v.63c-.21 0-.42 0-.63 0z" fill="#231f20"/><path d="m807.89 215.39v.63c-.21 0-.42 0-.63 0z" fill="#231f20"/><path d="m807.89 64.89v.62l-.63-.62z" fill="#231f20"/><path d="m807.89 65.51v.07c-.21 0-.42 0-.63 0v-.07z" fill="#231f20"/><path d="m807.89 65.58v44.13h-.63v-44.13z" fill="#231f20"/><path d="m807.89 109.71-.63.63v-.63z"/><path d="m807.89 118.02v.63l-.63-.63z" fill="#231f20"/><path d="m807.89 118.65v43.6h-.63v-43.6z" fill="#231f20"/><path d="m807.89 162.25-.63.63v-.63z"/><path d="m807.89 170.56v.63l-.63-.63z" fill="#231f20"/><path d="m807.89 171.19v44.2h-.63v-44.2z" fill="#231f20"/><path d="m807.89 215.39-.63.63v-.63z"/><path d="m807.26 64.89.63.62h-.63z"/><path d="m807.26 118.02.63.63h-.63z"/><path d="m807.26 170.56.63.63h-.63z"/><path d="m807.26 216.02c-78.45 0-156.89 0-235.34 0v-.63h235.34z" fill="#231f20"/><path d="m724.3 84.89c.11-.32.23-.63.351-.94l.439.33c-.27.2-.53.4-.79.61z"/><path d="m724.57 83.89c.05-.04.1-.07.14-.11-.02.05-.04.11-.06.17z" fill="#231f20"/><path d="m724.71 83.78c-.04.04-.09.07-.14.11l-.44-.33-.06-.08c.08-.07.17-.14.26-.21l1.74-1.31-.77 2.04c-.04.1-.08.21-.12.31l-.09-.03-.439-.33c.019-.06.039-.12.059-.17z" fill="#231f20"/><path d="m724.57 83.89c-.261.19-.53.4-.801.61.12-.32.24-.63.36-.94z"/><path d="m724.65 83.95c-.12.31-.24.62-.351.94-.319.24-.63.49-.939.74.14-.38.27-.76.409-1.13.271-.21.54-.42.801-.61z" fill="#fff"/><path d="m720.39 189.75c-.01-.19-.029-.38-.05-.57.15.13.29.25.45.37z"/><path d="m720.4 190.04c-.08-.06-.15-.12-.23-.18l.22-.11c0 .1.01.2.01.29z" fill="#231f20"/><path d="m720.34 189.18c.021.19.04.38.05.57l-.22.11c-.14-.12-.29-.24-.43-.37-.03-.32-.07-.64-.13-.96.24.23.48.45.73.65z" fill="#fff"/><path d="m719.74 189.49c.14.13.29.25.43.37l-.4.2c0-.19-.02-.38-.03-.57z"/><path d="m712.72 163.42c-.04.02-.09.05-.13.09h-.2z" fill="#fff"/><path d="m712.07 117.39c.06.07.12.15.18.22l-.48-.22z" fill="#fff"/><path d="m711.2 170.56h96.06v.63h-95.84c-.08-.21-.15-.42-.22-.63z" fill="#231f20"/><path d="m711.14 170.37c.021.07.04.13.061.19-.061 0-.13 0-.19 0z" fill="#fff"/><path d="m710.68 170.99.33-.43h.19c.069.21.14.42.22.63h-.67c-.02-.06-.04-.13-.07-.2z"/><path d="m711.01 170.56-.33.43c-.05-.14-.09-.28-.14-.43z" fill="#231f20"/><path d="m709.91 109.71c.24-2.52 4.28-1.39 5.56-2.91 3.79-6.49 6.07-14.43 8.83-21.91.26-.21.521-.41.79-.61l.09.03c-.77 2.04-1.5 4.17-2.22 6.22-1.99 5.7-4.04 11.6-6.95 16.59l-.029.04-.03.04c-.69.82-1.851 1.02-2.97 1.2-1.58.27-2.33.48-2.431 1.31h-.62z" fill="#231f20"/><path d="m710.68 170.99c.03.07.051.14.07.2h-.21z" fill="#fff"/><path d="m710.55 110.27-.62-.56h.62c-.03.16-.03.35 0 .56z"/><path d="m709.93 109.71.62.56c-.03-.21-.03-.4 0-.56h96.71v.63c-32.45 0-64.89 0-97.33 0-.029-.23-.029-.44-.02-.63z" fill="#231f20"/><path d="m710.54 169.93h-.85l-.37-.2c.39-.74.68-1.55.979-2.34.58-1.57 1.13-3.07 2.29-3.88h95.3.601v6.42h-.601z" fill="#fff"/><path d="m708.29 171.23c.42-.44.75-.95 1.03-1.5l.37.2.25.81c.989 3.23 2.989 6.04 4.93 8.75 2.13 2.99 4.16 5.85 4.74 9.04-3.011-2.82-5.12-6.65-7.16-10.37-1.28-2.34-2.6-4.76-4.16-6.93z" fill="#fff"/><path d="m709.3 110.42c-.31-2.63 1.87-2.99 3.47-3.25.881-.15 1.79-.31 2.2-.75 2.82-4.87 4.851-10.68 6.8-16.3.521-1.48 1.051-2.99 1.591-4.49.31-.25.62-.5.939-.74-2.76 7.48-5.04 15.42-8.83 21.91-1.279 1.52-5.319.39-5.56 2.91-.01.19-.01.4.02.63h97.33.63c0-.21 0-.42 0-.63 0-14.7 0-29.42 0-44.13h.601v45.39h-.601-97.96-.569z" fill="#231f20"/><path d="m712.07 117.39c-1.79-2.18-2.94-4.46-3.431-6.83l.66-.14.061.55h.569 97.96.601v6.42h-.601z" fill="#fff"/><path d="m708.64 110.56c-.3-1.4-.37-2.82-.199-4.27.71-6.41 5.72-13.35 14.92-20.66-.54 1.5-1.07 3.01-1.591 4.49-1.949 5.62-3.979 11.43-6.8 16.3-.41.44-1.319.6-2.2.75-1.6.26-3.779.62-3.47 3.25z" fill="#fff"/><path d="m709.55 124.58-.45.56c-.01-.1-.02-.2-.04-.3.19-.01.37-.11.49-.26z"/><path d="m709.37 148.34c.16-7.64.34-15.55-.78-22.39l-.03-.14.54-.67c.67 4.81 1.03 9.94 1.03 15.26 0 4.89-.3 9.62-.87 14.08.021-2.02.061-4.04.101-6.04z"/><path d="m709.33 162.49c-.16 0-.79.62-1.01.9.02-.3-.21-1.03-.301-1.4v-.01c.49-2.4.91-4.9 1.24-7.5-.029 2.73-.01 5.44.101 8.05 0-.02-.01-.04-.03-.04z" fill="#231f20"/><path d="m708.56 125.81-.25-1.56c.051.27.25.5.521.57.08.02.15.03.229.02.021.1.03.2.04.3z"/><path d="m708.32 163.39c-.011.06-.021.1-.051.12-.059.03-.029-.03.051-.12z" fill="#231f20"/><path d="m719.74 189.49c-5.351-4.62-7.79-12.03-11.91-17.83l.03-.03c.149-.12.3-.26.43-.4 1.56 2.17 2.88 4.59 4.16 6.93 2.04 3.72 4.149 7.55 7.16 10.37.06.32.1.64.13.96z" fill="#231f20"/><path d="m707.96 170.78c.11.15.23.3.33.45-.13.14-.28.28-.43.4z" fill="#fff"/><path d="m708.03 161.77c-9.351-7.65-6.17-27.63.359-35.75l.17-.21.03.14c1.12 6.84.94 14.75.78 22.39l-.01.1c-.04 2-.08 4.02-.101 6.04-.33 2.6-.75 5.1-1.24 7.5-.038-.17-.048-.26.012-.21z" fill="#231f20"/><path d="m711.77 118.02c-11.029-13.06 3-26.53 12-33.52-.14.37-.27.75-.409 1.13-9.2 7.31-14.21 14.25-14.92 20.66-.171 1.45-.101 2.87.199 4.27.49 2.37 1.641 4.65 3.431 6.83h-.301l.48.22c-.06-.07-.12-.15-.18-.22h95.819.601v46.12h-.601-95.3c.04-.04.09-.07.13-.09l-.33.09h.2c-1.16.81-1.71 2.31-2.29 3.88-.3.79-.59 1.6-.979 2.34-.28.55-.61 1.06-1.03 1.5-.1-.15-.22-.3-.33-.45l-.1.85-.03.03c-.12-.17-.25-.34-.37-.51 2.41-2.02 2.2-6.55 4.93-8.27h94.87.63c0-.21 0-.42 0-.63 0-14.53 0-29.07 0-43.6 0-.21 0-.42 0-.63-.21 0-.42 0-.63 0-31.83 0-63.66 0-95.49 0z" fill="#fff"/><path d="m709.12 166.96c-.42 1.14-.82 2.24-1.46 3.07.74-2.37 1.39-4.86 1.93-7.45 1.45-6.84 2.21-14.38 2.21-22.18 0-9.19-1.05-18.01-3.04-25.75.65 1.29 1.5 2.55 2.53 3.77l.19.23h.289 95.49v43.6h-94.87-.18l-.16.1c-1.619 1.02-2.279 2.85-2.929 4.61z" fill="#ed1e29"/><path d="m707.16 109.23c-.101-1.01-.09-2.04.03-3.08.779-7.09 6.46-14.72 16.88-22.67l.06.08c-.12.31-.24.62-.36.94-9 6.99-23.029 20.46-12 33.52h95.49v.63h-95.49-.289l-.19-.23c-1.03-1.22-1.88-2.48-2.53-3.77-.481-1.87-1.011-3.68-1.601-5.42z" fill="#231f20"/><path d="m707.66 170.03c.64-.83 1.04-1.93 1.46-3.07.649-1.76 1.31-3.59 2.93-4.61l.16-.1h.18 94.87v.63c-31.62 0-63.25 0-94.87 0-2.729 1.72-2.52 6.25-4.93 8.27l-.14-.05c.12-.35.23-.71.34-1.07z" fill="#231f20"/><path d="m707.11 171.74c.069-.21.14-.42.21-.64l.14.05c.12.17.25.34.37.51 4.12 5.8 6.56 13.21 11.91 17.83.01.19.029.38.029.57l.4-.2c.08.06.15.12.23.18 0-.09-.011-.19-.011-.29l.4-.2c-.16-.12-.3-.24-.45-.37-.71-6.49-7.27-11.43-9.59-17.99h.67c1 2.7 2.76 5.18 4.47 7.57 2.471 3.46 5.03 7.05 5.13 11.27l.04 1.33-1.05-.82c-3.87-3.05-6.3-7.49-8.66-11.78-1.308-2.39-2.658-4.85-4.238-7.02z" fill="#231f20"/><path d="m708.76 114.65c-.89-1.75-1.42-3.56-1.6-5.42.59 1.74 1.12 3.55 1.6 5.42z" fill="#231f20"/><path d="m707.32 171.1c-.07.22-.141.43-.21.64-.051-.07-.101-.15-.15-.22l-.36-.47.46-.38c.221-.19.421-.4.601-.64-.111.36-.221.72-.341 1.07z" fill="#231f20"/><path d="m705.7 170.76c.89-2.72 1.67-5.66 2.319-8.77.091.37.32 1.1.301 1.4-.08.09-.11.15-.051.12.03-.02.04-.06.051-.12.22-.28.85-.9 1.01-.9.02 0 .03.02.03.04l.229.05c-.54 2.59-1.189 5.08-1.93 7.45-.18.24-.38.45-.601.64l-.46.38z" fill="#231f20"/><path d="m691.98 129.07c.029.23.05.45.079.68l-.47-.13c.141-.18.271-.36.391-.55z"/><path d="m691.98 187.54c.029.21.05.43.079.65l-.46-.13c.131-.17.261-.34.381-.52z"/><path d="m691.5 152.74c5.99 7.57 5.48 25.65.37 33.82-.67-6.52-.55-13.91-.43-21.08.07-4.23.15-8.58.06-12.74z" fill="#fff"/><path d="m691.44 107.03c.069-4.23.149-8.58.06-12.74 6.04 7.57 5.45 25.44.37 33.79-.67-6.51-.55-13.89-.43-21.05z" fill="#fff"/><path d="m691.41 188.01c-.03-.21-.05-.42-.08-.64.189-.25.37-.52.54-.81.04.33.08.65.11.98-.12.18-.25.35-.381.52z" fill="#fff"/><path d="m691.41 129.56c-.03-.21-.05-.43-.08-.65.189-.26.37-.54.54-.83.03.33.07.66.11.99-.12.19-.25.37-.391.55z" fill="#fff"/><path d="m691.5 94.29c-.01-.34-.02-.67-.03-1 6.9 7.61 6.2 27.35.511 35.78-.04-.33-.08-.66-.11-.99 5.079-8.35 5.669-26.22-.371-33.79z" fill="#231f20"/><path d="m691.6 188.06c-.05.07-.109.14-.159.21-.011-.09-.021-.18-.03-.26z" fill="#231f20"/><path d="m691.44 129.82c-.011-.08-.021-.17-.03-.26l.18.06c-.04.07-.1.13-.15.2z" fill="#231f20"/><path d="m691.5 152.74c-.01-.34-.02-.67-.03-1 6.851 7.57 6.32 27.48.511 35.8-.03-.33-.07-.65-.11-.98 5.109-8.17 5.619-26.25-.371-33.82z" fill="#231f20"/><path d="m691.47 151.74c-.149-.17-.3-.33-.46-.48l.44-.2c.01.22.01.45.02.68z"/><path d="m691.47 93.29c-.149-.17-.3-.33-.46-.48l.44-.2c.01.23.01.45.02.68z"/><path d="m690.95 129.44c.13-.17.26-.35.38-.53.03.22.05.44.08.65z"/><path d="m690.95 187.88c.13-.17.26-.33.38-.51.03.22.05.43.08.64z"/><path d="m690.85 151.99c-.01-.22-.01-.44-.02-.65l.18-.08c.16.15.311.31.46.48.011.33.021.66.03 1-.21-.26-.42-.52-.65-.75z" fill="#fff"/><path d="m690.85 93.54c-.01-.21-.01-.43-.02-.64l.18-.09c.16.15.311.31.46.48.011.33.021.66.03 1-.21-.26-.42-.51-.65-.75z" fill="#fff"/><path d="m691.33 187.37c-1.23-10.76-.16-23.74-.48-35.38.23.23.44.49.65.75.09 4.16.01 8.51-.06 12.74-.12 7.17-.24 14.56.43 21.08-.17.29-.35.56-.54.81z" fill="#231f20"/><path d="m690.83 151.34c0-.09 0-.18-.01-.26.069.05.13.11.189.18z" fill="#231f20"/><path d="m691.44 107.03c-.12 7.16-.24 14.54.43 21.05-.17.29-.351.57-.54.83-1.23-10.76-.16-23.73-.48-35.37.23.24.44.49.65.75.09 4.16.01 8.51-.06 12.74z" fill="#231f20"/><path d="m690.82 92.63c.069.06.13.12.189.18l-.18.09c.001-.09.001-.18-.009-.27z" fill="#231f20"/><path d="m690.85 93.54c-.149-.15-.3-.3-.449-.45l.43-.19c.009.21.009.43.019.64z"/><path d="m690.85 151.99c-.149-.16-.3-.31-.449-.45l.43-.2c.009.21.009.43.019.65z"/><path d="m690.85 93.54c.32 11.64-.75 24.61.48 35.37-.12.18-.25.36-.38.53l.46.12c.01.09.02.18.03.26.05-.07.109-.13.149-.2l.47.13c-.029-.23-.05-.45-.079-.68 5.689-8.43 6.39-28.17-.511-35.78-.01-.23-.01-.45-.02-.68l-.44.2c-.06-.06-.12-.12-.189-.18.01.09.01.18.01.27l-.43.19c.15.15.3.3.45.45zm-.03 36.36c-.9-6.99-.761-15.07-.63-22.89.079-4.78.159-9.73.01-14.36l-.061-1.51 1.11 1.03c3.73 3.48 5.86 10.3 5.83 18.72-.03 7.89-2 15.29-5.15 19.32l-.92 1.19z" fill="#231f20"/><path d="m690.85 151.99c.32 11.64-.75 24.62.48 35.38-.12.18-.25.34-.38.51l.46.13c.01.08.02.17.03.26.05-.07.109-.14.159-.21l.46.13c-.029-.22-.05-.44-.079-.65 5.81-8.32 6.34-28.23-.511-35.8-.01-.23-.01-.46-.02-.68l-.44.2c-.06-.07-.12-.13-.189-.18.01.08.01.17.01.26l-.43.2c.15.14.3.29.45.45zm-.03 36.36c-.9-6.99-.761-15.08-.63-22.89.079-4.79.159-9.73.01-14.36l-.061-1.52 1.11 1.04c8.14 7.57 7.33 29.8.68 38.04l-.93 1.15z" fill="#231f20"/><path d="m686.13 140.45c0-2.5 1.09-5.26 3.5-5.85 2.17.33 3.18 3.19 3.18 5.75.011 2.72-1.079 5.61-3.189 5.95-2.401-.6-3.491-3.35-3.491-5.85z" fill="#fff"/><path d="m689.52 134.58.211-.01c-.04.01-.07.02-.101.03-.04-.01-.07-.02-.11-.02z" fill="#fff"/><path d="m690.14 91.14.08-.48c8.811 1.39 16.181 15.31 18.84 34.18-.079.01-.149 0-.229-.02-.271-.07-.47-.3-.521-.57l.25 1.56-.17.21c-6.529 8.12-9.71 28.1-.359 35.75-.061-.05-.05.04-.011.21v.01c-.649 3.11-1.43 6.05-2.319 8.77-3.47 10.52-8.7 17.73-14.65 19.21l-.05-.16.93-1.15c6.65-8.24 7.46-30.47-.68-38.04l-1.11-1.04-.58-2 .11-.01c3.04-.37 4.41-4 4.4-7.22-.011-3.24-1.38-6.67-4.41-7.02l-.101-.01 1.45-1.92.92-1.19c3.15-4.03 5.12-11.43 5.15-19.32.03-8.42-2.1-15.24-5.83-18.72z" fill="#ed1e29"/><path d="m689.62 146.3c.03.01.07.02.11.03l-.211-.01c.031 0 .071-.01.101-.02z" fill="#fff"/><path d="m688.2 128.8-.46.19c-.01-.24-.021-.49-.03-.74.16.19.32.38.49.55z"/><path d="m688.19 187.24-.45.2c-.01-.24-.021-.49-.03-.73.16.19.32.36.48.53z"/><path d="m687.74 129.23c-.05-.05-.11-.11-.16-.17l.16-.07z" fill="#231f20"/><path d="m687.74 187.68c-.05-.06-.11-.12-.16-.18l.16-.06z" fill="#231f20"/><path d="m687.09 128.49c-.01-.36-.02-.72-.02-1.09.199.3.42.59.64.85.01.25.021.5.03.74l-.16.07c-.17-.18-.33-.37-.49-.57z" fill="#fff"/><path d="m687.58 187.5c-.17-.17-.33-.36-.49-.55-.01-.35-.02-.71-.02-1.07.199.29.41.57.64.83.01.24.021.49.03.73z" fill="#fff"/><path d="m687.58 187.5-.46.2c-.01-.25-.021-.5-.03-.75.16.19.32.38.49.55z"/><path d="m687.25 93.64c-.03-.26-.06-.52-.09-.78l.5.11c-.14.22-.28.44-.41.67z"/><path d="m687.58 129.06-.46.19c-.01-.25-.021-.5-.03-.76.16.2.32.39.49.57z"/><path d="m687.12 173.5c.12-6.94.24-14.09-.4-20.42.17-.34.351-.68.53-.99 1.21 10.54.16 23.23.46 34.62-.229-.26-.44-.54-.64-.83-.09-4.05-.02-8.28.05-12.38z" fill="#231f20"/><path d="m687.12 115.05c.12-6.94.24-14.1-.4-20.43.17-.34.351-.66.53-.98 1.21 10.53.16 23.22.46 34.61-.22-.26-.44-.55-.64-.85-.09-4.04-.02-8.25.05-12.35z" fill="#231f20"/><path d="m687.16 151.31.5.11c-.141.21-.28.44-.41.67-.03-.26-.06-.52-.09-.78z"/><path d="m687.01 151.27c.03-.06.08-.13.12-.19.01.08.021.15.03.23z" fill="#231f20"/><path d="m687.01 92.82c.04-.06.08-.13.12-.19.01.08.021.15.03.23z" fill="#231f20"/><path d="m686.6 151.95c.131-.23.271-.46.41-.68l.15.04c.03.26.06.52.09.78-.18.31-.36.65-.53.99-.03-.38-.07-.75-.12-1.13z" fill="#fff"/><path d="m686.72 94.62c-.04-.38-.069-.75-.12-1.11.131-.24.271-.47.41-.69l.15.04c.03.26.06.52.09.78-.18.32-.36.64-.53.98z" fill="#fff"/><path d="m687.07 127.4c-5.141-7.46-4.681-24.12-.351-32.78.641 6.33.521 13.49.4 20.43-.069 4.1-.139 8.31-.049 12.35z" fill="#fff"/><path d="m687.07 185.88c-5.49-7.71-4.37-24.56-.351-32.8.641 6.33.521 13.48.4 20.42-.069 4.1-.139 8.33-.049 12.38z" fill="#fff"/><path d="m686.6 151.95c-.029-.26-.06-.53-.1-.79l.51.11c-.14.22-.28.45-.41.68z"/><path d="m686.6 93.51c-.029-.27-.06-.54-.1-.8l.51.11c-.14.22-.28.45-.41.69z"/><path d="m686.13 140.45c0 2.5 1.09 5.25 3.49 5.85-.03.01-.07.02-.101.02l.211.01c-.04-.01-.08-.02-.11-.03 2.11-.34 3.2-3.23 3.189-5.95 0-2.56-1.01-5.42-3.18-5.75.03-.01.061-.02.101-.03l-.211.01c.04 0 .07.01.11.02-2.409.59-3.499 3.35-3.499 5.85zm3.46 6.49c-5.439-1.2-5.439-11.78 0-12.98 5.2.59 5.07 12.37 0 12.98z" fill="#231f20"/><path d="m689.59 133.96c-5.439 1.2-5.439 11.78 0 12.98 5.07-.61 5.2-12.39 0-12.98zm-.14 13.6c-3.16-.7-4.57-4.08-4.57-7.11s1.41-6.41 4.57-7.11l.109-.02.101.01c3.03.35 4.399 3.78 4.41 7.02.01 3.22-1.36 6.85-4.4 7.22l-.11.01z" fill="#231f20"/><path d="m686.6 92.29c-5.33 8.26-6.979 29.42.69 37.38l1.14 1.18-.06-1.64c-.16-4.56-.07-9.43.01-14.14.13-7.7.26-15.65-.63-22.52l-.22-1.7zm0 58.45c-5.359 8.31-7.01 29.51.69 37.38l1.14 1.16-.06-1.62c-.16-4.56-.07-9.43.01-14.14.13-7.7.26-15.66-.63-22.52l-.22-1.7zm2.16 39.52c-6.63 0-12.56-7.08-16.49-18.17l.25-.23-.25-.43c-.189-.33-.38-.67-.56-1.01-.89-2.73-1.66-5.69-2.29-8.82v-.01c3.23-4.14 5.25-11.68 5.28-19.69.03-8.53-2.13-15.48-5.94-19.1.58-3.56 1.33-6.92 2.221-10.04.319-.78.56-1.57.729-2.37 3.9-12.05 10.09-19.85 17.05-19.85.49 0 .971.04 1.46.12l-.08.48.061 1.51c.149 4.63.069 9.58-.01 14.36-.131 7.82-.271 15.9.63 22.89l.189 1.5-1.45 1.92-.109.02c-3.16.7-4.57 4.08-4.57 7.11s1.41 6.41 4.57 7.11l.109.02.58 2 .061 1.52c.149 4.63.069 9.57-.01 14.36-.131 7.81-.271 15.9.63 22.89l.18 1.46.05.16c-.761.19-1.521.29-2.291.29z" fill="#ed1e29"/><path d="m687.09 128.49c-6.25-7.74-5.32-26.36-.49-34.98.051.36.08.73.12 1.11-4.33 8.66-4.79 25.32.351 32.78-.001.37.009.73.019 1.09z" fill="#231f20"/><path d="m687.09 186.95c-6.3-7.69-5.29-26.39-.49-35 .051.38.091.75.12 1.13-4.02 8.24-5.14 25.09.351 32.8-.001.36.009.72.019 1.07z" fill="#231f20"/><path d="m687.29 129.67c-7.67-7.96-6.021-29.12-.69-37.38l.931-1.44.22 1.7c.89 6.87.76 14.82.63 22.52-.08 4.71-.17 9.58-.01 14.14l.06 1.64zm-.69-36.16c-4.83 8.62-5.76 27.24.49 34.98.01.26.021.51.03.76l.46-.19c.05.06.11.12.16.17 0-.08 0-.16 0-.24l.46-.19c-.17-.17-.33-.36-.49-.55-.3-11.39.75-24.08-.46-34.61.13-.23.27-.45.41-.67l-.5-.11c-.01-.08-.021-.15-.03-.23-.04.06-.08.13-.12.19l-.51-.11c.04.26.07.53.1.8z" fill="#231f20"/><path d="m687.29 188.12c-7.7-7.87-6.05-29.07-.69-37.38l.931-1.44.22 1.7c.89 6.86.76 14.82.63 22.52-.08 4.71-.17 9.58-.01 14.14l.06 1.62zm-.69-36.17c-4.8 8.61-5.81 27.31.49 35 .01.25.021.5.03.75l.46-.2c.05.06.11.12.16.18 0-.08 0-.16 0-.24l.45-.2c-.16-.17-.32-.34-.48-.53-.3-11.39.75-24.08-.46-34.62.13-.23.27-.46.41-.67l-.5-.11c-.01-.08-.021-.15-.03-.23-.04.06-.09.13-.12.19l-.51-.11c.04.26.07.53.1.79z" fill="#231f20"/><path d="m675.53 321.2c5.149-4.34 11.42-7.57 18.37-10.11l14.479-2.59c-9.77 2.13-16.6 3.1-25.8 7.98-1.289.69-4.319 2.66-7.049 4.72z" fill="#fff"/><path d="m672.29 176.58c-.45-1.02-.88-2.08-1.29-3.17.37-.44.75-.85 1.14-1.21l.13-.11c3.931 11.09 9.86 18.17 16.49 18.17.771 0 1.53-.1 2.29-.29 5.95-1.48 11.181-8.69 14.65-19.21l.899.29.36.47c.05.07.1.15.15.22-.58 1.69-1.21 3.31-1.88 4.84-4.341 9.91-10.19 15.36-16.471 15.36-6.288 0-12.138-5.45-16.468-15.36z" fill="#231f20"/><path d="m672.27 171.43.25.43-.25.23c-.189-.55-.38-1.1-.56-1.67.18.34.37.68.56 1.01z" fill="#231f20"/><path d="m671.99 107.08c-.03-.58-.09-1.16-.181-1.74.15-.38.311-.76.48-1.12 4.33-9.9 10.18-15.36 16.47-15.36 6.28 0 12.13 5.46 16.471 15.36.689 1.58 1.34 3.26 1.93 5.01.18 1.86.71 3.67 1.6 5.42 1.99 7.74 3.04 16.56 3.04 25.75 0 7.8-.76 15.34-2.21 22.18l-.229-.05c-.11-2.61-.13-5.32-.101-8.05.57-4.46.87-9.19.87-14.08 0-5.32-.36-10.45-1.03-15.26l.45-.56c-.12.15-.3.25-.49.26-2.659-18.87-10.029-32.79-18.84-34.18-.489-.08-.97-.12-1.46-.12-6.96 0-13.149 7.8-17.05 19.85.23-1.09.32-2.19.28-3.31z" fill="#231f20"/><path d="m666.79 180.32c1.3-2.47 2.64-5.02 4.21-6.91.41 1.09.84 2.15 1.29 3.17 4.33 9.91 10.18 15.36 16.47 15.36 6.28 0 12.13-5.45 16.471-15.36.67-1.53 1.3-3.15 1.88-4.84 1.58 2.17 2.93 4.63 4.239 7.02 2.36 4.29 4.79 8.73 8.66 11.78l1.05.82-.04-1.33c-.1-4.22-2.659-7.81-5.13-11.27-1.71-2.39-3.47-4.87-4.47-7.57h95.84v44.2h-235.34v-44.2h95.76c-1.25 2.75-2.88 5.2-4.47 7.59-2.1 3.17-4.28 6.44-5.64 10.47l-.351 1.05 1.08-.24c3.801-.82 6.081-5.15 8.491-9.74z" fill="#34a047"/><path d="m671.71 110.39c-.17.8-.41 1.59-.729 2.37.229-.81.469-1.59.729-2.37z" fill="#231f20"/><path d="m670.94 171.63c.119-.13.239-.24.359-.35l-.12.78c-.079-.15-.169-.29-.239-.43z" fill="#231f20"/><path d="m670.96 325.2c.91-1.08 2.61-2.51 4.46-3.91-2.31 1.96-4.4 4.14-6.22 6.59.44-.88 1-1.78 1.76-2.68z" fill="#fff"/><path d="m669.8 169.86c-.1-.33-.2-.66-.3-1 .46.94.93 1.87 1.44 2.77-.141.13-.28.27-.421.43-.249-.72-.489-1.45-.719-2.2z" fill="#231f20"/><path d="m669.96 110.43.2.54h-.37c.01-.06.03-.11.05-.17.01-.04.03-.09.05-.13.02-.08.05-.16.07-.24z" fill="#231f20"/><path d="m669.85 110.12.021.07-.03-.07c-.03-.09-.07-.17-.1-.25.049.08.079.16.109.25z"/><path d="m669.67 109.71c.03.05.05.09.061.14-.021-.05-.041-.09-.061-.14z"/><path d="m669.11 165.07-.95-2.07c.13-.03.25-.1.34-.22l.92-1.18c.63 3.13 1.4 6.09 2.29 8.82-.93-1.73-1.78-3.56-2.6-5.35z" fill="#231f20"/><path d="m667.39 140.4c0-6.19.48-12.13 1.37-17.6 3.811 3.62 5.971 10.57 5.94 19.1-.03 8.01-2.05 15.55-5.28 19.69-1.3-6.44-2.03-13.61-2.03-21.19z"/><path d="m670.72 108.18c-.08 2.11-.7 4.12-1.87 6.1.29-1.13.61-2.23.94-3.31h.37l-.2-.54c.25-.77.5-1.51.76-2.25z" fill="#231f20"/><path d="m668.98 109.71h.26l-.15.22c-.04-.07-.08-.15-.11-.22z" fill="#fff"/><path d="m669.24 110.34c-.021-.07-.05-.13-.07-.19.04.06.07.12.09.19-.01 0-.01 0-.02 0z" fill="#231f20"/><path d="m669.26 109.71-.17.24c0-.01 0-.01 0-.02l.15-.22z" fill="#231f20"/><path d="m669.09 109.95c.03.06.061.13.08.2-.03-.06-.06-.12-.09-.18z" fill="#231f20"/><path d="m669.09 109.95-.01.02c0-.01-.01-.01-.01-.02l.02-.02z" fill="#231f20"/><path d="m668.85 114.28c1.17-1.98 1.79-3.99 1.87-6.1v-.01c.2-.55.4-1.09.601-1.62.26 3.12-.561 6.31-2.92 9.53.149-.61.299-1.21.449-1.8z" fill="#231f20"/><path d="m667.28 121.53c.239-1.36.5-2.7.79-4.02 1.29-1.53 2.26-3.12 2.91-4.75-.891 3.12-1.641 6.48-2.221 10.04-.029-.04-.06-.06-.09-.09l-1.1-1.03c-.079-.08-.179-.13-.289-.15z" fill="#231f20"/><path d="m669.24 110.34c-.141 0-.28 0-.42 0l.26-.37c.03.06.06.12.09.18.02.06.05.12.07.19z" fill="#231f20"/><path d="m669.5 168.86c-.34-1.15-.65-2.31-.95-3.5 1.01 2.18 2 4.36 3.17 6.38-.33.3-.649.63-.96.99-.08-.22-.16-.45-.24-.67.141-.16.28-.3.421-.43.069.14.159.28.239.43l.12-.78c-.12.11-.24.22-.359.35-.511-.9-.981-1.83-1.441-2.77z" fill="#231f20"/><path d="m668.58 110.34h.21l-.13.19c-.03-.06-.05-.13-.08-.19z" fill="#fff"/><path d="m668.79 110.34h.03l-.15.22c-.01-.01-.01-.02-.01-.03z" fill="#231f20"/><path d="m668.64 170.56c-.05.13-.109.25-.159.38l-.261-.38z" fill="#231f20"/><path d="m668.58 110.34c-.1-.23-.21-.44-.32-.63h.7.021c.029.07.069.15.109.22l-.02.02c0 .01.01.01.01.02l-.26.37c-.011 0-.021 0-.03 0-.07 0-.14 0-.21 0z"/><path d="m668.58 110.34c.03.06.05.13.08.19l-.021.03c-.04-.08-.06-.15-.09-.22z"/><path d="m670.98 112.76c-.65 1.63-1.62 3.22-2.91 4.75.109-.48.22-.96.33-1.43 2.359-3.22 3.18-6.41 2.92-9.53.16-.41.33-.81.489-1.21.091.58.15 1.16.181 1.74.04 1.12-.05 2.22-.28 3.31-.26.78-.5 1.56-.73 2.37z" fill="#231f20"/><path d="m668.48 170.94.159.25h-.27c.041-.09.081-.17.111-.25z" fill="#fff"/><path d="m668.06 170.32.16.24c-.09 0-.17 0-.26 0 .04-.08.07-.16.1-.24z" fill="#fff"/><path d="m668.54 165.33c-.17-.76-.35-1.53-.521-2.31.051.01.091 0 .141-.02l.95 2.07c.819 1.79 1.67 3.62 2.6 5.35.18.57.37 1.12.56 1.67l-.13.11c-.39.36-.77.77-1.14 1.21-.08-.23-.16-.45-.24-.68.311-.36.63-.69.96-.99-1.17-2.02-2.16-4.2-3.17-6.38 0-.01 0-.02-.01-.03z" fill="#231f20"/><path d="m668.02 163.02c-.039-.2-.09-.39-.13-.59l.091.19.18.38c-.051.02-.091.03-.141.02z" fill="#231f20"/><path d="m667.68 171.19c.101-.21.19-.42.28-.63h.26l.261.38c-.03.08-.07.16-.11.25z"/><path d="m667.68 171.19h-95.76v-.63h96.04c-.09.21-.18.42-.28.63z" fill="#231f20"/><path d="m667.38 162.48-.03-.23h.061.399l.08.18c.04.2.091.39.13.59-.06.01-.119 0-.189-.02-.241-.06-.421-.27-.451-.52z"/><path d="m666.62 125.96c.189-1.5.41-2.98.66-4.43.109.02.21.07.29.15l1.1 1.03c.03.03.061.05.09.09-.89 5.47-1.37 11.41-1.37 17.6 0 7.58.73 14.75 2.03 21.19v.01l-.92 1.18c-.09.12-.21.19-.34.22l-.18-.38-.091-.19c-.479-2.32-.89-4.72-1.22-7.18-.31-5.51-.21-11.41-.12-17.17v-.08-.11c.071-3.96.141-8.03.071-11.93z" fill="#231f20"/><path d="m667.01 163.51-.17-.36.57.36z" fill="#fff"/><path d="m667.41 162.88c-31.83 0-63.66 0-95.49 0v-.63h95.43l.03.23c.03.25.21.46.45.52.07.02.13.03.189.02.171.78.351 1.55.521 2.31-.37-.82-.74-1.64-1.13-2.45z" fill="#231f20"/><path d="m667.18 160.98c-.229-1.85-.399-3.77-.51-5.73.33 2.46.74 4.86 1.22 7.18l-.08-.18h-.399-.061z"/><path d="m667.28 121.53c-.25 1.45-.471 2.93-.66 4.43-.01-.77-.04-1.54-.061-2.29l-.05-1.51c-.01-.26.141-.49.37-.6.131-.06.271-.07.401-.03z"/><path d="m667.35 162.25h-95.43v-43.6h94.87.28l.18-.21c.29-.3.56-.61.82-.93-.29 1.32-.551 2.66-.79 4.02-.13-.04-.271-.03-.4.03-.229.11-.38.34-.37.6l.05 1.51c.021.75.051 1.52.061 2.29-.601 4.63-.91 9.48-.91 14.44 0 5.1.33 10.09.96 14.85.11 1.96.28 3.88.51 5.73z" fill="#ed1e29"/><path d="m666.79 117.39-.46.2c.07-.07.13-.13.189-.2z" fill="#fff"/><path d="m665.71 140.4c0-4.96.31-9.81.91-14.44.07 3.9 0 7.97-.07 11.93v.11.08c-.09 5.76-.189 11.66.12 17.17-.63-4.76-.96-9.75-.96-14.85z" fill="#231f20"/><path d="m666.79 118.65h-94.87v-.63h94.87c.61-.65 1.14-1.3 1.61-1.94-.11.47-.221.95-.33 1.43-.261.32-.53.63-.82.93l-.18.21z" fill="#231f20"/><path d="m668.26 109.71h-96.33c.141-5.51.061-11.31-.02-16.92-.13-9.23-.26-18.75.56-27.21h234.79v44.13h-96.71c.101-.83.851-1.04 2.431-1.31 1.119-.18 2.279-.38 2.97-1.2l.03-.04.029-.04c2.91-4.99 4.96-10.89 6.95-16.59.72-2.05 1.45-4.18 2.22-6.22.04-.1.08-.21.12-.31l.771-2.04-1.74 1.31c-.09.07-.18.14-.26.21-10.42 7.95-16.101 15.58-16.88 22.67-.12 1.04-.131 2.07-.03 3.08-.59-1.75-1.24-3.43-1.93-5.01-4.341-9.9-10.19-15.36-16.471-15.36-6.29 0-12.14 5.46-16.47 15.36-.17.36-.33.74-.48 1.12-1.34-8.29-9.659-15.95-15.85-21.63l-.88-.82-.18-.16-1 .72c1.199 2.65 2.05 5.83 2.859 8.91 1.351 5.09 2.75 10.36 5.88 13.69.971 1.03 2.08 1.49 3.061 1.89 1.06.44 1.94.81 2.56 1.77z" fill="#231f20"/><path d="m624.56 344.07c10.36-3.75 24.421-1.71 39.141-5.8 1.38-3.92 3.229-7.36 5.5-10.39-2.271 4.53-1.4 8.77-6.95 11.84-9.381 5.2-22.431 2.37-37.691 4.35z" fill="#fff"/><path d="m659.22 188.4c1.311-3.32 3.2-6.16 5.04-8.93 1.78-2.68 3.62-5.45 4.96-8.67l.36-.87.22-.07c.23.75.47 1.48.72 2.2-1.88 2.04-3.39 4.91-4.84 7.68-1.98 3.76-3.87 7.34-6.46 8.66z" fill="#fff"/><path d="m658.91 189.23c.1-.28.2-.56.31-.83 2.59-1.32 4.48-4.9 6.46-8.66 1.45-2.77 2.96-5.64 4.84-7.68.08.22.16.45.24.67-4.36 4.98-6.74 14.58-11.85 16.5z" fill="#231f20"/><path d="m659.22 188.4c-.109.27-.21.55-.31.83-.13.05-.271.1-.4.14l-.229-.25c.05-.13.1-.26.14-.39.279-.08.539-.19.799-.33z" fill="#fff"/><path d="m658.91 189.23c-.05.14-.101.28-.15.42l-.25-.28c.13-.04.27-.09.4-.14z"/><path d="m658.42 188.73c-.04.13-.09.26-.14.39l-.25-.28c.13-.03.26-.07.39-.11z"/><path d="m658.28 189.12.229.25c-.12.03-.229.06-.34.08.041-.11.071-.22.111-.33z" fill="#231f20"/><path d="m657.57 189.25c1.359-4.03 3.54-7.3 5.64-10.47 1.59-2.39 3.22-4.84 4.47-7.59h.69c-2.811 6.32-7.48 10.87-9.95 17.54-.13.04-.26.08-.39.11l.25.28c-.04.11-.07.22-.11.33.11-.02.22-.05.34-.08l.25.28c.05-.14.101-.28.15-.42 5.109-1.92 7.49-11.52 11.85-16.5.08.23.16.45.24.68-1.57 1.89-2.91 4.44-4.21 6.91-2.41 4.59-4.69 8.92-8.49 9.74l-1.08.24z" fill="#231f20"/><path d="m657.97 92.04c-.569-2.2-1.16-4.44-1.899-6.53 6.33 5.85 14.35 13.6 14.66 21.62.01.35.01.69-.011 1.04v.01c-.26.74-.51 1.48-.76 2.25l-.05-.13-.04-.11-.021-.07c-.029-.09-.06-.17-.109-.25 0-.01-.01-.01-.01-.02-.011-.05-.03-.09-.061-.14-.81-1.81-2.17-2.38-3.49-2.93-.949-.39-1.85-.76-2.62-1.59-2.919-3.1-4.269-8.21-5.589-13.15z" fill="#fff"/><path d="m670.73 107.13c-.311-8.02-8.33-15.77-14.66-21.62-.16-.44-.32-.87-.49-1.3 6.55 6.02 15.06 13.88 15.74 22.34-.2.53-.4 1.07-.601 1.62.021-.35.021-.69.011-1.04z"/><path d="m657.67 92.04c-.59-2.2-1.2-4.44-1.95-6.53-.16-.14-.319-.28-.479-.42v-.01c-.061-.16-.12-.33-.19-.5l.061.05c.319.29.64.58.96.88.739 2.09 1.33 4.33 1.899 6.53 1.32 4.94 2.67 10.05 5.59 13.15.771.83 1.671 1.2 2.62 1.59 1.32.55 2.681 1.12 3.49 2.93-.83-1.81-2.229-2.38-3.59-2.93-.97-.39-1.89-.76-2.69-1.59-2.991-3.1-4.371-8.21-5.721-13.15z"/><path d="m671.32 106.55c-.681-8.46-9.19-16.32-15.74-22.34-.17-.44-.35-.86-.54-1.28l.04-.04.88.82c6.19 5.68 14.51 13.34 15.85 21.63-.16.4-.33.8-.49 1.21z" fill="#231f20"/><path d="m655.58 84.21c-.35-.32-.69-.63-1.021-.94l.48-.34c.191.42.371.84.541 1.28z"/><path d="m655.05 84.58c-.16-.43-.34-.86-.53-1.28l.04-.03c.33.31.671.62 1.021.94.17.43.33.86.49 1.3-.32-.3-.641-.59-.96-.88z" fill="#fff"/><path d="m654.74 84.63c.17.15.34.3.5.45v.01c2.569 6.9 3.38 15.78 7.85 20.53 1.97 2.08 4.58 1.59 5.891 4.09h-.021c-1.34-2.5-4.03-2.01-6.04-4.09-4.689-4.86-5.46-14.07-8.24-21.04z" fill="#231f20"/><path d="m654.47 83.19c.03.03.061.05.09.08l-.04.03c-.02-.04-.03-.08-.05-.11z" fill="#231f20"/><path d="m654.52 83.3c.19.42.37.85.53 1.28l-1.01-.93z"/><path d="m655.24 85.08c-.16-.15-.33-.3-.5-.45l-.061-.05c2.78 6.97 3.551 16.18 8.24 21.04 2.01 2.08 4.7 1.59 6.04 4.09h-.7c-.62-.96-1.5-1.33-2.56-1.77-.98-.4-2.09-.86-3.061-1.89-3.13-3.33-4.529-8.6-5.88-13.69-.81-3.08-1.66-6.26-2.859-8.91l1-.72.18.16-.04.04-.48.34c-.029-.03-.06-.05-.09-.08.021.03.03.07.05.11l-.479.35 1.01.93c.07.17.13.34.19.5z"/><path d="m624.56 344.07c-.04.02-.09.03-.13.05.021-.02.03-.03.051-.04.029 0 .049-.01.079-.01z" fill="#fff"/><path d="m608.93 357.49c2.65-3.31 5.4-6.37 8.29-9.05 2.12-1.97 4.54-3.34 7.21-4.32-17.069 12.52-27.64 38.38-42.069 56.61-2.95 3.72-6.44 6.26-9.561 8.76 13.02-14.56 23.48-36.19 36.13-52z" fill="#fff"/><path d="m592.53 656.39c-.311-2.14-.92-4.239-1.75-6.31.88 1.99 1.49 4.08 1.75 6.31z" fill="#fff"/><path d="m566.89 415.39c1.53-2.25 3.62-4.07 5.91-5.9-1.91 2.14-3.87 4.12-5.91 5.9z" fill="#fff"/><path d="m572.48 65.51h234.78v.07c-78.26 0-156.529 0-234.79 0 0-.02 0-.05.01-.07z"/><path d="m572.48 65.51h-.57l.62-.56c-.02.19-.03.38-.05.56z"/><path d="m668.55 110.34c-32.21 0-64.42 0-96.63 0 .01-.21.01-.42.01-.63h96.33c.11.19.221.4.32.63-.01 0-.02 0-.03 0z" fill="#231f20"/><path d="m571.92 170.56v.63h-.63z"/><path d="m571.92 118.02v.63h-.63z"/><path d="m571.9 110.34h.02v.02z" fill="#231f20"/><path d="m571.92 118.02-.63.63c0-.21 0-.42 0-.63z" fill="#231f20"/><path d="m571.29 162.25c0-14.53 0-29.07 0-43.6h.63v43.6z" fill="#231f20"/><path d="m571.29 162.25h.63v.63z"/><path d="m571.29 170.56h.63l-.63.63c0-.21 0-.42 0-.63z" fill="#231f20"/><path d="m571.29 171.19h.63v44.2h-.63c0-14.73 0-29.47 0-44.2z" fill="#231f20"/><path d="m571.92 215.39v.63l-.63-.63z"/><path d="m571.91 64.26h235.98.6v.07h-237.16l.01-.07z" fill="#231f20"/><path d="m572.53 64.95-.62.56h.57c-.011.02-.011.05-.011.07-.21 0-.42 0-.63 0 .021-.23.04-.46.07-.69h235.35v.62h-234.779c.02-.18.03-.37.05-.56z" fill="#231f20"/><path d="m571.93 109.71c0 .21 0 .42-.01.63-.01 0-.01 0-.02 0l-.601-.61c.01 0 .01-.01.01-.02z"/><path d="m571.31 109.71c.351-14.54-.779-30.5.53-44.13h.63c-.819 8.46-.689 17.98-.56 27.21.08 5.61.16 11.41.02 16.92z" fill="#231f20"/><path d="m571.29 162.88c0-.21 0-.42 0-.63l.63.63c-.21 0-.42 0-.63 0z" fill="#231f20"/><path d="m571.29 215.39.63.63c-.21 0-.42 0-.63 0 0-.21 0-.42 0-.63z" fill="#231f20"/><path d="m571.9 110.34c-.2 0-.41 0-.61 0 0-.2.01-.4.01-.61z" fill="#231f20"/><path d="m571.3 109.73-.01-.02h.02c0 .01 0 .02-.01.02z" fill="#fff"/><path d="m571.29 216.64h-.6v-.07h237.8v.07h-.6z" fill="#231f20"/><path d="m570.69 110.34h.6s.41 0 .61 0l.02.02c0-.01 0-.01 0-.02h96.63c.03.07.05.14.09.22l.021-.03c0 .01 0 .02.01.03l.15-.22h.42.02c-.02-.07-.05-.13-.09-.19-.02-.07-.05-.14-.08-.2l.17-.24h-.02-.26c-1.311-2.5-3.921-2.01-5.891-4.09-4.47-4.75-5.28-13.63-7.85-20.53.16.14.319.28.479.42.75 2.09 1.36 4.33 1.95 6.53 1.35 4.94 2.73 10.05 5.72 13.15.801.83 1.721 1.2 2.69 1.59 1.36.55 2.76 1.12 3.59 2.93.021.05.04.09.061.14 0 .01.01.01.01.02.029.08.069.16.1.25l.03.07.04.11.05.13c-.02.08-.05.16-.07.24-.02.04-.04.09-.05.13-.02.06-.04.11-.05.17h-.53-97.97-.6z" fill="#231f20"/><path d="m570.69 110.97h.6 97.97.53c-.33 1.08-.65 2.18-.94 3.31-.619 1.04-1.399 2.08-2.33 3.11h-95.23-.6z" fill="#fff"/><path d="m570.69 117.39h.6 95.229c-.06.07-.119.13-.189.2l.46-.2h-.271c.931-1.03 1.711-2.07 2.33-3.11-.149.59-.3 1.19-.449 1.8-.471.64-1 1.29-1.61 1.94-31.62 0-63.25 0-94.87 0-.21 0-.42 0-.63 0v.63 43.6.63h.63 95.49c.39.81.76 1.63 1.13 2.45.01.01.01.02.01.03.3 1.19.61 2.35.95 3.5-.53-1.09-1.03-2.19-1.53-3.27l-.96-2.08h.4l-.57-.36.17.36h-95.72-.6z" fill="#231f20"/><path d="m570.69 163.51h.6 95.72l.96 2.08c.5 1.08 1 2.18 1.53 3.27.1.34.2.67.3 1l-.22.07h-.94-97.35-.6z" fill="#fff"/><path d="m570.69 216.57v-46.64h.6 97.35.94l-.36.87c-1.34 3.22-3.18 5.99-4.96 8.67-1.84 2.77-3.729 5.61-5.04 8.93-.26.14-.52.25-.8.33 2.47-6.67 7.14-11.22 9.95-17.54h.27l-.159-.25c.05-.13.109-.25.159-.38-.14 0-.279 0-.42 0l-.16-.24c-.029.08-.06.16-.1.24-32.02 0-64.03 0-96.04 0-.21 0-.42 0-.63 0v.63 44.2.63h.63 235.34.63c0-.21 0-.42 0-.63 0-14.73 0-29.47 0-44.2 0-.21 0-.42 0-.63-.21 0-.42 0-.63 0-32.02 0-64.04 0-96.06 0-.021-.06-.04-.12-.061-.19l-.13.19c-.16 0-.31 0-.47 0 .05.15.09.29.14.43l-.14.2h.21c2.32 6.56 8.88 11.5 9.59 17.99-.25-.2-.49-.42-.729-.65-.58-3.19-2.61-6.05-4.74-9.04-1.94-2.71-3.94-5.52-4.93-8.75l-.25-.81h.85 97.35.601v46.64z" fill="#231f20"/><path d="m808.49 217.2c-79.271 0-158.53 0-237.8 0v-.56h.6 236.6.601v.56z" fill="#231f20"/><path d="m571.28 64.82.05-.49h237.16v1.25c-.2 0-.4 0-.601 0 0-.02 0-.04 0-.07 0-.21 0-.42 0-.62-.21 0-.42 0-.63 0-78.45 0-156.899 0-235.35 0-.03.23-.05.46-.07.69-.21 0-.42 0-.63 0 .021-.25.051-.51.071-.76z" fill="#231f20"/><path d="m570.69 65.48c-.021-.36-.07-1.01.04-1.15h.02.58l-.05.49c-.021.25-.05.51-.07.76-.18 0-.35 0-.52 0z" fill="#fff"/><path d="m570.69 95.05c-.011-.75-.021-1.5-.03-2.25-.09-6.24-.18-12.63.03-18.75z" fill="#231f20"/><path d="m570.66 110.32c.01-.35.02-.7.03-1.06v1.08c-.011 0-.021 0-.03 0z" fill="#231f20"/><path d="m570.64 110.97.021-.63h.03v.63z" fill="#231f20"/><path d="m570.66 163.51v-.63-44.86-.63h.03v46.12z" fill="#231f20"/><path d="m570.69 169.93v46.64h-.03v-.55-45.46-.63z" fill="#231f20"/><path d="m570.66 216.57h.03v.07h-.03z" fill="#231f20"/><path d="m570.69 217.2-.63-.63h.6v.07h.03z" fill="#fff"/><path d="m570.06 216.57.631.63c-.21 0-.421 0-.631 0 0-.21 0-.42 0-.63z" fill="#231f20"/><path d="m570.06 65.58c0-.03 0-.07 0-.1-.05-.84-.1-1.68.61-1.78h237.82v.56h-.601-235.979-.57l-.01.07h-.58-.02c-.11.14-.061.79-.04 1.15v.1c-.21 0-.42 0-.63 0z" fill="#231f20"/><path d="m568.7 217.2-.3-32.83c0-24.46 0-48.93 0-73.4h.39 1.85.051v6.42h-.03v.63 44.86.63h.03v6.42h-.03v.63 45.46.55h-.601v.63c-.34 0-.689 0-1.02 0-.12 0-.23 0-.34 0z" fill="#fff"/><path d="m569.43 65.48c-.05-.81-.14-2.22 1.16-2.4h.04.04 238.45.63v.62 1.88c-.21 0-.42 0-.63 0 0-.41 0-.83 0-1.25 0-.21 0-.42 0-.63-.21 0-.42 0-.63 0-79.271 0-158.54 0-237.82 0-.71.1-.66.94-.61 1.78v.1c-.21 0-.42 0-.63 0z" fill="#231f20"/><path d="m570.66 92.8c.01.75.02 1.5.03 2.25v-21c-.21 6.12-.12 12.51-.03 18.75zm-1.85 16.91c.36-14.54-.8-30.5.54-44.13h.08.63s.421 0 .631 0h.52.63c-1.31 13.63-.18 29.59-.53 44.13h-.02l.01.02c0 .21-.01.41-.01.61-.2 0-.4 0-.6 0v-1.08c-.011.36-.021.71-.03 1.06v.02c-.41 0-.82 0-1.23 0v.02l-.01-.02c-.21 0-.42 0-.63 0 0-.2.01-.4.01-.61l-.01-.02z" fill="#231f20"/><path d="m568.4 69.36c.09-1.27.18-2.53.3-3.78h.649c-1.34 13.63-.18 29.59-.54 44.13h-.02l.01.02c0 .21-.01.41-.01.61h.63l.01.02c0-.01 0-.01 0-.02h1.23l-.021.63h-1.85-.39c.002-13.87.002-27.74.002-41.61z" fill="#231f20"/><path d="m811.6 221.34h-242.86l-.03-3.29h241.56c0-46.52 0-93.04 0-139.56l1.33-.75z" fill="#fff"/><path d="m568.7 217.2h.34 1.02.631 237.8.63c0-.21 0-.42 0-.63 0-50.33 0-100.66 0-150.99h.63v151.62.63h-.63-240.411z" fill="#231f20"/><path d="m568.4 65.58h.3c-.12 1.25-.21 2.51-.3 3.78 0-1.26 0-2.51 0-3.78z" fill="#231f20"/><path d="m568.4 184.37.3 32.83c-.101 0-.2 0-.3 0 0-.21 0-.42 0-.63 0-10.73 0-21.46 0-32.2z" fill="#fff"/><path d="m568.4 65.58c-.091 0-.57-.61-1.101-1.31l-.02-2.08h244.321v15.55l-1.33.75c0-4.3 0-8.6 0-12.91-.18 0-.35 0-.52 0v-1.88-.62h-.63-238.45-.04-.04c-1.3.18-1.21 1.59-1.16 2.4v.1c-.029 0-.05 0-.08 0-.21 0-.43 0-.649 0-.101 0-.201 0-.301 0z" fill="#fff"/><path d="m568.17 109.26c.11-4.64.07-9.46 0-14.21v-21c.061-1.58.13-3.15.23-4.69v41.61h-.23z" fill="#231f20"/><path d="m568.4 184.37-1.09-118.79h1.091v3.78c-.101 1.54-.17 3.11-.23 4.69v21c.07 4.75.11 9.57 0 14.21v1.71h.23c-.001 24.47-.001 48.94-.001 73.4z" fill="#231f20"/><path d="m567.77 217.83h.631.31v.22c-.76 0-1.53 0-2.29 0 0-32.44 0-64.79 0-97.39l1.35 96.54v.63z" fill="#fff"/><path d="m567.3 64.27c.53.7 1.01 1.31 1.101 1.31-.36 0-.73 0-1.091 0z" fill="#231f20"/><path d="m566.99 65.58h.319l1.091 118.79v32.2.63h.3l.01.63h-.31-.631v-.63l-1.35-96.54c0-17.68 0-35.44 0-53.32-.049-.83-.099-1.66.571-1.76z" fill="#231f20"/><path d="m566.25 108.36v-45.45c.31.39.69.9 1.05 1.36l.01 1.31c-.109 0-.22 0-.319 0-.67.1-.62.93-.57 1.76v53.32z" fill="#231f20"/><path d="m566.25 51.33v11.58c-.33-.42-.58-.72-.65-.72l.65 46.17v224.1h-16.55l-.47-280.98c2.43 1.08 5.289 1.71 8.35 1.71 3.19 0 6.17-.69 8.67-1.86z" fill="#c8c8c8"/><path d="m566.25 62.91v45.45l-.65-46.17c.07 0 .32.3.65.72z" fill="#231f20"/><path d="m566.89 415.39c-.85 1.25-1.52 2.63-1.96 4.23-.859 3.11-1.29 6.66-1.449 10.479 0-4.04 0-8.02 0-11.939 1.159-.86 2.299-1.78 3.409-2.77z" fill="#fff"/><path d="m563.48 430.1v8.87c-.11-3.06-.13-6.04 0-8.87z" fill="#fff"/><path d="m549.23 51.48c-4.601-2.05-7.681-5.75-7.681-9.97 0-6.46 7.181-11.69 16.03-11.69s16.03 5.23 16.03 11.69c0 4.12-2.931 7.74-7.36 9.82-2.5 1.17-5.48 1.86-8.67 1.86-3.059 0-5.919-.63-8.349-1.71z" fill="#c8c8c8"/><path d="m509.54 359.28c12.76-8.84 28.36-14.83 43.76-21.01 7.29 5.3 12.49 12.69 18.891 18.88 14.319 3.2 26.88-7.59 36.31 0-11.85-4.29-21.65 3.94-36.31 1.46-6.87-5.73-11.36-13.83-18.891-18.89-15.15 5.95-28.82 13.4-43.76 19.56z" fill="#fff"/><path d="m503.92 361.51c1.9-.72 3.771-1.46 5.62-2.23-2.13 1.47-4.18 3.02-6.13 4.67.22-.77.39-1.58.51-2.44z" fill="#fff"/><path d="m346.25 708.83c-3.37-1.48-6.55-2.97-9.38-4.51-13.25-7.24-26.7-15.11-40.26-23.15 16.72 9.17 33.18 18.17 49.64 27.66z" fill="#fff"/><path d="m187.03 619.6c10.75 3.23 24.61 11.9 36.01 19.141-12-6.34-23.95-12.181-35.79-17.21-.09-.651-.16-1.291-.22-1.931z" fill="#fff"/><path d="m194.47 338.19c2.38-4.27 5.84-7.47 10.12-9.85-3.47 3.18-6.82 6.49-10.12 9.85z" fill="#fff"/><g fill="none"><path d="m570.69 163.51h-.03v-.63-44.86-.63h.03z" stroke="#231f20" stroke-width=".419"/><path d="m570.66 216.57v-.55-45.46-.63h.03v46.64z" stroke="#231f20" stroke-width=".419"/><path d="m567.28 62.19h244.32v15.55 143.6h-242.86" stroke="#231f20" stroke-width="8.7988"/><path d="m549.23 51.48c-4.601-2.05-7.681-5.75-7.681-9.97 0-6.46 7.181-11.69 16.03-11.69s16.03 5.23 16.03 11.69c0 4.12-2.931 7.74-7.36 9.82-2.5 1.17-5.48 1.86-8.67 1.86-3.059 0-5.919-.63-8.349-1.71z" stroke="#231f20" stroke-width="8.7988"/><path d="m549.23 51.15v.33l.47 280.98" stroke="#231f20" stroke-width="8.7988"/><path d="m566.25 50.57v.76 11.58 45.45 224.1" stroke="#231f20" stroke-width="8.7988"/><path d="m810.27 78.49 1.33-.75.84-.47" stroke="#231f20" stroke-width="5.8659"/><path d="m669.79 110.97c-.33 1.08-.65 2.18-.94 3.31-.149.59-.3 1.19-.449 1.8-.11.47-.221.95-.33 1.43-.29 1.32-.551 2.66-.79 4.02-.25 1.45-.471 2.93-.66 4.43-.601 4.63-.91 9.48-.91 14.44 0 5.1.33 10.09.96 14.85.33 2.46.74 4.86 1.22 7.18.04.2.091.39.13.59.171.78.351 1.55.521 2.31.01.01.01.02.01.03.3 1.19.61 2.35.95 3.5.1.34.2.67.3 1 .23.75.47 1.48.72 2.2.08.22.16.45.24.67.08.23.16.45.24.68.41 1.09.84 2.15 1.29 3.17 4.33 9.91 10.18 15.36 16.47 15.36 6.28 0 12.13-5.45 16.471-15.36.67-1.53 1.3-3.15 1.88-4.84.069-.21.14-.42.21-.64.12-.35.229-.71.34-1.07.74-2.37 1.39-4.86 1.93-7.45 1.45-6.84 2.21-14.38 2.21-22.18 0-9.19-1.05-18.01-3.04-25.75-.479-1.87-1.01-3.68-1.6-5.42-.59-1.75-1.24-3.43-1.93-5.01-4.341-9.9-10.19-15.36-16.471-15.36-6.29 0-12.14 5.46-16.47 15.36-.17.36-.33.74-.48 1.12-.159.4-.329.8-.489 1.21-.2.53-.4 1.07-.601 1.62v.01c-.26.74-.51 1.48-.76 2.25-.02.08-.05.16-.07.24" stroke="#000" stroke-width="1.676"/><path d="m194.47 338.19c-9.83 10.02-19.26 20.46-30.46 29.13-11.91 1.26-19.6-1.7-24.69-7.26-6.63 2.65-11.82 6.74-20.39 7.45" stroke="#231f20" stroke-width="6.7833"/><path d="m258.18 277.32c.15 2.02.4 4.01 3.16 5.75 2.76-2.79 5.65-3.78 8.63-3.78 5.62 0 11.55 3.53 17.51 5.23-4.35 10.35-2.92 31.96 4.36 36.32-26.15 0-52.29 0-78.44 0-3.05 2.38-5.97 4.9-8.81 7.5" stroke="#231f20" stroke-width="6.7833"/><path d="m346.25 708.83c12.42 7.18 24.84 14.63 37.37 22.67 5.98 9.08-3.78 13.6-4.46 20.79 7.8 5.13 13.38 12.07 20.79 17.82 19.54 15.18 50.47 32.52 65.479 49.92" stroke="#231f20" stroke-width="6.934"/><path d="m223.04 638.74c3.89 2.47 7.5 4.779 10.6 6.64 21.66 13.03 42.5 24.54 62.97 35.79" stroke="#231f20" stroke-width="6.934"/><path d="m102.98 618.65c27.9 3.149 56.26-4.29 80.18 0 1.23.22 2.53.54 3.87.949" stroke="#231f20" stroke-width="6.934"/><path d="m711.47 520.85c-44.47 40.31-84.18 85.39-118.62 135.76-3.55 5.189-7.05 10.449-10.489 15.76-11.92-2.101-15.49 6.399-24.7 2.899-1.11 8.82 6.91 10.41 4.359 13.07-.159 6.79-2.659-1.03-4.359-1.45-7.891 3.82-2.92 12.271-11.62 15.98-22.69-3.87-29.29 17.63-29.05 37.77-17.431 20.341-22.28 53.25-39.221 74.08-2.88 1.86-6.47-4.239-8.72 2.9-28.39-21.47-59.58-40.15-85.7-63.91-.33-5.17 2.09-7.59 7.27-7.26.9-20.42-24.86-29.021-44.37-37.62-3.37-1.48-6.55-2.97-9.38-4.51-13.25-7.24-26.7-15.11-40.26-23.15-24.36-14.46-49.07-29.49-73.57-42.43-12-6.34-23.95-12.181-35.79-17.21-.09-.65-.16-1.29-.22-1.931-2.3-21.85 6.64-41.84-1.23-56.18 5.22-8.83 14.23-13.85 14.53-27.6 10.79-3.73 16.35-12.7 17.43-26.141 7.44 3.801 6.51-8.76 17.43-5.81-4.06-12.021 5.02-16.43 10.17-23.25-.11-28.521-7.16-43.25-13.08-63.91-4.06 1.14-17.73-17.97-18.88-26.15-.92-6.54 2.22-10.92 2.9-17.43-12.74-5.65-20.33-16.46-23.24-31.95.42-1.05.89-2.05 1.41-2.99 2.38-4.27 5.84-7.47 10.12-9.85 19.68-10.94 56.71-4.52 85.8-6.05 5.06-.7 1.62 7.09 5.81 7.26 19.61 5.83 36.58-1 52.29 4.36 8.08 2.76 15.35 11.4 24.69 17.43 14.27 9.21 26.47 13.07 36.32 24.7 30.62 1.34 54.12 4.11 76.99 11.62 3.72-9.82 14.06-13.03 16.92-23.71.22-.77.39-1.58.51-2.44 1.9-.72 3.771-1.46 5.62-2.23 14.94-6.16 28.61-13.61 43.76-19.56 7.53 5.06 12.021 13.16 18.891 18.89 14.659 2.48 24.46-5.75 36.31-1.46-9.43-7.59-21.99 3.2-36.31 0-6.4-6.19-11.601-13.58-18.891-18.88-15.399 6.18-31 12.17-43.76 21.01-2.13 1.47-4.18 3.02-6.13 4.67-7.09 5.96-12.96 13.16-16.92 22.26-22.63-7.75-46.53-10.12-76.99-11.63-7.88-8.32-18.27-15.01-29.05-21.78-9.61-6.04-20.47-16.62-30.51-20.34-15.9-5.9-33.74 1.9-53.74-4.36-7.42-12.5-13.65-28.58-7.27-43.58-5.61-5.27-12.62-5.72-18.97-5.56-1.5.03-2.96.09-4.35.14" stroke="#231f20" stroke-width="6.7833"/><path d="m675.53 321.2c2.729-2.06 5.76-4.03 7.05-4.72 9.2-4.88 16.03-5.85 25.8-7.98" stroke="#231f20" stroke-width="6.7833"/><path d="m590.75 650.01c-5.08-12.59-18.56-23.899-25.82-35.75 0-48.72 0-96.22 0-146.71 0-8.76-1.13-19.03-1.449-28.58-.11-3.06-.131-6.04 0-8.87.159-3.819.59-7.37 1.449-10.479.44-1.6 1.11-2.98 1.96-4.23 1.53-2.25 3.62-4.07 5.91-5.9 3.12-2.5 6.61-5.04 9.561-8.76 14.43-18.23 25-44.09 42.069-56.61.021-.02.03-.03.051-.04.029 0 .05-.01.079-.01 15.261-1.98 28.311.85 37.69-4.35 5.55-3.07 4.68-7.31 6.95-11.84.439-.88 1-1.78 1.76-2.68.91-1.08 2.61-2.51 4.46-3.91" stroke="#231f20" stroke-width="6.7833"/><path d="m693.9 311.09c-6.95 2.54-13.221 5.77-18.48 10.2.03-.03.07-.06 0 0-2.31 1.96-4.4 4.14-6.22 6.59-2.271 3.03-4.12 6.47-5.5 10.39-14.72 4.09-28.78 2.05-39.141 5.8-.04.02-.09.03-.13.05-2.67.98-5.09 2.35-7.21 4.32-2.89 2.68-5.64 5.74-8.29 9.05-12.649 15.81-23.109 37.44-36.13 52-1.91 2.14-3.87 4.12-5.91 5.9-1.109.99-2.25 1.91-3.409 2.77v11.939 8.87 76.521c0 33.09-6.4 71.6 0 97.319 3.829 15.4 21.399 24.03 27.3 37.271 0-.021-.011-.05 0 0 .88 1.99 1.489 4.08 1.75 6.31-.311-2.14-.92-4.239-1.75-6.31" stroke="#231f20" stroke-width="6.7833"/><path d="m.25 3.85h850.394v850.394h-850.394z"/></g></svg>