<svg enable-background="new 0 0 850.89 850.89" height="850.89" viewBox="0 0 850.89 850.89" width="850.89" xmlns="http://www.w3.org/2000/svg"><path d="m751 105.39c.01.08.01.16.02.24l-.579-.12z" fill="#fff"/><path d="m750.11 108.07.71.03c-.021.1-.04.2-.061.3z" fill="#fff"/><path d="m750.51 102.93-.399.02.34-.18c.019.05.039.1.059.16z" fill="#fff"/><path d="m749.89 110.71c-.06.1-.109.2-.17.3l-.6-.55z" fill="#fff"/><path d="m743.11 115.06.33.66c-.101.02-.2.04-.301.06z" fill="#fff"/><path d="m740.43 115.96.12-.56.12.58c-.08-.01-.16-.01-.24-.02z" fill="#fff"/><path d="m737.99 115.06-.021.41c-.05-.02-.109-.04-.16-.06z" fill="#fff"/><path d="m735.6 114.08-.06.17c-.021-.01-.04-.02-.06-.04z" fill="#fff"/><path d="m547.47 488.36c-1.42 4.77-3.72 9.27-5.939 13.939 1.119-5.129 2.939-9.879 5.939-13.939z"/><path d="m535.34 523.19c.36-8.011 3.2-14.61 6.19-20.891-3.91 17.931.72 40.49-6.66 54.55 4.08-8.879-.06-21.859.47-33.659z"/><path d="m534.87 556.85c-.54 1.181-1.22 2.28-2.09 3.301.78-1.031 1.48-2.141 2.09-3.301z"/><path d="m528.73 442.2c-.98-9.01 6.939-22.88 6.609-36.36-.39-16.32-12.26-27.37-1.649-39.67-9.301-18.25-22.46-32.63-21.49-61.15-4.01-2.78-7.48-6.11-10.4-9.97 5.351 1.94 9.82 4.9 12.061 11.62-.82 28.36 13.58 41.51 21.479 61.15-11 11.17 1.58 24.65 1.66 39.67.07 12.73-8.14 24.979-6.61 36.359 2.23 16.641 18.44 26.29 19.83 41.32-1.01 1.01-1.92 2.07-2.75 3.19.48-1.58.851-3.181 1.101-4.841-3.111-14.038-18.071-25.098-19.841-41.318z"/><path d="m517.16 184.36c6.81-1.11 13.63-1.63 20.53-1.77l-10.971 1.89c-3.72.35-7.45.85-11.21 1.54-5.81 1.06-11.5 3.51-17.26 6.37 5.891-3.56 12.051-6.91 18.911-8.03z"/><path d="m500.64 293.45c.38.54.761 1.08 1.16 1.6-6.02-2.18-13.13-3.06-19.35-6.56-2.8-1.57-5.58-3.91-8.28-6.84 6.68 6.08 15.18 10.33 26.47 11.8z"/><path d="m498.25 192.39c-7 4.21-13.63 8.71-20.65 10.13 7.16-2.93 13.95-6.81 20.65-10.13z"/><path d="m494.02 731.44c13.511 4.909 28.2 2.029 42.98 0-7.9 21.909 2.61 42.47 0 62.81-.55 0-1.11 0-1.66 0 3.021-19.85-8.27-40.07 0-61.15-15.2 3.53-29.55 3.301-44.62 0-3.58-8.92-9.31-15.699-16.939-20.56 7.679 2.58 14.779 9.6 20.239 18.9z"/><path d="m469.23 709.96c1.579.79 3.1 1.65 4.55 2.58-2.7-.9-5.46-1.26-8.25-.97 1.13-.65 2.35-1.19 3.7-1.61z"/><path d="m95.7 665.33c-9.59-6.94-20.16-12.9-31.41-18.18-11.08-21.17-17.88-54.601-6.61-80.99 14.74-5.26 28.22-11.76 40.65-19.34 4.56-2.03 8.61-4.45 11.64-7.61 1.32-.92 2.62-1.85 3.91-2.8 3.72-18.32 18.05-29.17 14.87-54.54-1.44-11.51-8.77-21.7-9.91-31.41-5.83-49.26 31.28-74.9 51.96-113.65 1.81-2.84 3.48-5.7 5-8.6 8.51.48 13.09-2.96 22.37-1.71 8.99-13.04 18.64-25.44 33.06-33.05 30.35 3.36 34.45-19.54 62.8-18.18 15.21 5.73 4.4 37.47 19.84 42.97 4.53-1.64 9.07-3.71 13.58-6.15 3.33-1.47 6.55-3.44 9.68-5.74 0 0 .01-.01.02-.01 19.55-12.66 38.07-30.7 52.75-45.95 9.28-9.65 14.98-21.46 20.58-34.62.01-.01.01-.02.02-.03 3.66-6.55 7.04-13.65 10.14-21.5 8.69.1 18.84-5.6 25.45-1.7 2.96.11 2.771 1.44 1.601 3.27-1.62 2.49-5.091 5.9-4.9 8.3 9.09 23.87 14.11 51.81 31.36 67.52 0 0 .01.02.02.02 2.7 2.93 5.48 5.27 8.28 6.84 6.22 3.5 13.33 4.38 19.35 6.56 2.92 3.86 6.391 7.19 10.4 9.97-.97 28.52 12.189 42.9 21.49 61.15-10.61 12.3 1.26 23.35 1.649 39.67.33 13.48-7.59 27.351-6.609 36.36 1.77 16.22 16.729 27.28 19.84 41.319-.25 1.66-.62 3.261-1.101 4.841-3 4.06-4.819 8.81-5.939 13.939-2.99 6.28-5.83 12.88-6.19 20.891-.53 11.8 3.61 24.779-.47 33.659-.61 1.16-1.311 2.271-2.09 3.301-2.21 2.64-5.601 4.71-10.66 6.01-16.44-14.7-40.4-2.09-56.19 6.609-16.58-4.359-22.56-19.31-36.37-26.439-7.939 4.08-14.49 7.439-28.089 13.22-13.69 5.82-26.16 19.45-34.71 19.83-20.6.93-28.22-25.189-46.28-33.05-.66 1.03-1.28 2.1-1.85 3.189-13.02 24.7-3.8 63.381-8.07 92.671-4.47 30.699-38.43 49.96-67.76 34.71-11 5.779-18.4 5.54-28.1 13.22-11.4-10.58-27.57-5.61-36.36-1.65-10.47-2.96-11.34-19.729-4.96-26.45-1.05-3.06-3.07-5.149-4.65-7.68-.37-2.47-1.05-5.02-2.21-7.66.01-.87.09-1.819.25-2.84-19.42-7.47-42.52-26.689-66.12-14.87-3.032 10.74-2.892 24.65-4.952 36.36z" fill="#fff5b4"/><path d="m465.53 711.57c-6.61 3.739-10.03 10.66-17.78 13.26-8.08-7.34-12.01-14.94-13.38-23.44 4.17 7.551 10.28 13.16 13.38 21.79 5.73-7.44 11.81-11 17.78-11.61z"/><path d="m447.75 205.85c-3.08 19.67 10.19 58.22 26.4 75.78-17.25-15.71-22.271-43.65-31.36-67.52-.19-2.4 3.28-5.81 4.9-8.3z"/><path d="m421.3 202.54c18.59-7.67 34.91 4.22 56.2 0 .03-.01.07-.01.1-.02-9.14 3.73-18.899 5.89-29.85 3.33l-.06-.04c1.17-1.83 1.359-3.16-1.601-3.27-6.609-3.9-16.76 1.8-25.45 1.7.221-.56.441-1.13.661-1.7z"/><path d="m433.81 694.66c.03 2.31.21 4.55.561 6.729-.54-.96-1.04-1.96-1.5-3 .319-1.209.629-2.449.939-3.729z"/><path d="m419.65 204.2c.32.02.66.04.99.04-3.1 7.85-6.48 14.95-10.14 21.5 2.91-6.85 5.8-14.07 9.15-21.54z"/><path d="m361.8 283.53c19.55-18.56 35.84-34.8 48.68-57.76-5.6 13.16-11.3 24.97-20.58 34.62-14.68 15.25-33.2 33.29-52.75 45.95 8.74-6.42 16.77-15.33 24.65-22.81z"/><path d="m399.81 561.2c-14.11 6.54-25 19.96-34.71 19.84-21-.271-24.62-27.05-46.27-31.41l-.2-.11c.57-1.09 1.19-2.159 1.85-3.189 18.06 7.86 25.68 33.979 46.28 33.05 8.55-.38 21.02-14.01 34.71-19.83 13.6-5.78 20.15-9.14 28.089-13.22 13.811 7.13 19.79 22.08 36.37 26.439 15.79-8.699 39.75-21.31 56.19-6.609 5.06-1.3 8.45-3.37 10.66-6.01-2.49 3.29-5.92 5.93-10.66 7.67-70.38-32.761-75.65 74.449-88.311 126.84-.22-13.72 4.62-29.91 8.98-50.82 6.15-29.54 12.03-51.78 24.79-69.41-18.811-3.229-23.84-20.239-39.67-26.449-6.118 6.868-14.938 7.128-28.098 13.218z"/><path d="m327.45 312.09c3.24-1.74 6.47-3.67 9.68-5.74-3.13 2.3-6.35 4.27-9.68 5.74z"/><path d="m198.17 326.5c-9.28-1.25-13.86 2.19-22.37 1.71.3-.57.59-1.14.88-1.71 8.1.39 12.52-2.91 21.49-1.65 7.61-16.08 23.04-24.34 34.71-36.36 2.96-40.64-9.95-79.14-4.96-127.27 14.04-4.73 16.47-25.99 13.22-42.97h1.66c2.37 16.11 2.27 39.7-13.23 42.97-5.12 49.56 8.47 88.01 4.96 130.57 27.63 1.74 32.1-19.68 59.5-18.18 16.43 3.97 5.49 35.29 19.84 41.32 4.76.16 9.27-.92 13.58-2.84-4.51 2.44-9.05 4.51-13.58 6.15-15.44-5.5-4.63-37.24-19.84-42.97-28.35-1.36-32.45 21.54-62.8 18.18-14.42 7.61-24.07 20.01-33.06 33.05z"/><path d="m175.03 328.16c.26.02.52.04.77.05-1.52 2.9-3.19 5.76-5 8.6 1.51-2.81 2.92-5.69 4.23-8.65z"/><path d="m175.03 690.12c-10.83-11.83-4.37-22.811-6.3-35.78 1.58 2.53 3.6 4.62 4.65 7.68-6.38 6.721-5.51 23.49 4.96 26.45 8.79-3.96 24.96-8.93 36.36 1.65 9.7-7.68 17.1-7.44 28.1-13.22 29.33 15.25 63.29-4.011 67.76-34.71 4.27-29.29-4.95-67.971 8.07-92.671l.2.11c-11.36 28.54-1.91 66.22-6.62 94.21-3.83 22.84-27.28 42.36-52.89 41.32-13.2-.53-12.83-9.311-24.79-3.3-6.63 3.34-11.55 3.18-19.83 9.909-13.15-12.198-27.34-3.298-39.67-1.648z"/><path d="m166.52 646.68c1.16 2.641 1.84 5.19 2.21 7.66-1.27-2.03-2.24-4.34-2.21-7.66z"/><path d="m113.88 536.41c-1.29.95-2.59 1.88-3.91 2.8.83-.88 1.58-1.81 2.25-2.8 3.2-16.44 13.15-24.25 14.88-39.67 1.95-17.33-8.22-30.79-9.92-47.931-4.82-48.689 32.67-78.95 53.62-112-20.68 38.75-57.79 64.39-51.96 113.65 1.14 9.71 8.47 19.9 9.91 31.41 3.18 25.371-11.15 36.221-14.87 54.541z"/><path d="m98.33 546.82c3.99-2.431 7.87-4.971 11.64-7.61-3.03 3.16-7.08 5.58-11.64 7.61z"/><path d="m82.47 681.86c-.14 8.399 14.24 22.04 21.49 31.399 10.57 13.65 17.31 29.91 34.71 33.061 13.28 16.72-.3 28.989-1.65 47.93-.55 0-1.1 0-1.66 0 .3-19.95 13.82-25.44 4.96-41.32-3.48-6.239-11.94-7.67-18.18-13.22-6.46-5.76-41.34-48.66-41.32-57.85.02-9.351 10.15-9.891 8.26-18.181-6.21-8.279-17.65-9.319-25.04-16.25l.25-.279c11.25 5.279 21.82 11.239 31.41 18.18 2.06-11.71 1.92-25.62 4.95-36.36 23.6-11.819 46.7 7.4 66.12 14.87-.16 1.021-.24 1.97-.25 2.84-.4-.93-.87-1.88-1.41-2.84-19.46-5.35-41.05-25.46-62.8-13.22-6.18 11.83.6 21.32-4.96 33.06-3.63 7.65-14.72 8.8-14.88 18.18z"/><path d="m60.99 643.84c-12.19-18.399-17.96-61.189-4.96-77.68 8.14-10.32 27.8-12.87 42.3-19.34-12.43 7.58-25.91 14.08-40.65 19.34-11.27 26.39-4.47 59.82 6.61 80.99l-.25.279c-1.12-1.039-2.15-2.219-3.05-3.589z"/><path d="m410.5 225.74c3.66-6.55 7.04-13.65 10.14-21.5.22-.56.44-1.13.66-1.7 18.59-7.67 34.91 4.22 56.2 0 .03-.01.07-.01.1-.02 7.021-1.42 13.65-5.92 20.65-10.13 5.89-3.56 12.05-6.91 18.91-8.03 6.81-1.11 13.63-1.63 20.53-1.77" fill="none" stroke="#231f20" stroke-width="7.6818"/><path d="m337.15 306.34c8.74-6.42 16.77-15.33 24.65-22.81 19.55-18.56 35.84-34.8 48.68-57.76" fill="none" stroke="#231f20" stroke-width="7.6818"/><path d="m473.78 712.54c-1.45-.93-2.971-1.79-4.55-2.58-1.351.42-2.57.96-3.7 1.61-6.61 3.739-10.03 10.66-17.78 13.26-8.08-7.34-12.01-14.94-13.38-23.44-.351-2.18-.53-4.42-.561-6.729-.22-13.72 4.62-29.91 8.98-50.82 6.15-29.54 12.03-51.78 24.79-69.41-18.811-3.229-23.84-20.239-39.67-26.449-6.12 6.869-14.94 7.13-28.1 13.22-14.11 6.54-25 19.96-34.71 19.84-21-.271-24.62-27.05-46.27-31.41-11.36 28.54-1.91 66.22-6.62 94.21-3.83 22.84-27.28 42.36-52.89 41.32-13.2-.53-12.83-9.311-24.79-3.3-6.63 3.34-11.55 3.18-19.83 9.909-13.15-12.199-27.34-3.3-39.67-1.649-10.83-11.83-4.37-22.811-6.3-35.78-.37-2.47-1.05-5.02-2.21-7.66-.4-.93-.87-1.88-1.41-2.84-19.46-5.35-41.05-25.46-62.8-13.22-6.18 11.83.6 21.32-4.96 33.06-3.63 7.65-14.72 8.801-14.88 18.181-.14 8.399 14.24 22.04 21.49 31.399 10.57 13.65 17.31 29.91 34.71 33.061 13.28 16.72-.3 28.989-1.65 47.93-.55 0-1.1 0-1.66 0 .3-19.95 13.82-25.44 4.96-41.32-3.48-6.239-11.94-7.67-18.18-13.22-6.46-5.76-41.34-48.66-41.32-57.85.02-9.351 10.15-9.891 8.26-18.181-6.21-8.279-17.65-9.319-25.04-16.25-1.12-1.04-2.15-2.22-3.05-3.59-12.19-18.399-17.96-61.189-4.96-77.68 8.14-10.32 27.8-12.87 42.3-19.34 4.56-2.03 8.61-4.45 11.64-7.61.83-.88 1.58-1.81 2.25-2.8 3.2-16.44 13.15-24.25 14.88-39.67 1.95-17.33-8.22-30.79-9.92-47.931-4.82-48.689 32.67-78.95 53.62-112 1.81-2.84 3.48-5.7 5-8.6.3-.57.59-1.14.88-1.71 8.1.39 12.52-2.91 21.49-1.65 7.61-16.08 23.04-24.34 34.71-36.36 2.96-40.64-9.95-79.14-4.96-127.27 14.04-4.73 16.47-25.99 13.22-42.97h1.66c2.37 16.11 2.27 39.7-13.23 42.97-5.12 49.56 8.47 88.01 4.96 130.57 27.63 1.74 32.1-19.68 59.5-18.18 16.43 3.97 5.49 35.29 19.84 41.32 4.76.16 9.27-.92 13.58-2.84 3.33-1.47 6.55-3.44 9.68-5.74" fill="none" stroke="#231f20" stroke-width="7.6818"/><path d="m473.78 712.54c7.68 2.58 14.779 9.6 20.239 18.9 13.511 4.909 28.2 2.029 42.98 0-7.9 21.909 2.61 42.47 0 62.81-.55 0-1.11 0-1.66 0 3.021-19.85-8.27-40.07 0-61.15-15.2 3.53-29.55 3.301-44.62 0-3.579-8.92-9.309-15.7-16.939-20.56z" fill="none" stroke="#231f20" stroke-width="7.6818"/><path d="m474.17 281.65c2.7 2.93 5.48 5.27 8.28 6.84 6.22 3.5 13.33 4.38 19.35 6.56 5.351 1.94 9.82 4.9 12.061 11.62-.82 28.36 13.58 41.51 21.479 61.15-11 11.17 1.58 24.65 1.66 39.67.07 12.73-8.14 24.979-6.61 36.359 2.23 16.641 18.44 26.29 19.83 41.32-1.01 1.01-1.92 2.07-2.75 3.19-3 4.06-4.819 8.81-5.939 13.939-3.91 17.931.72 40.49-6.66 54.55-.61 1.16-1.311 2.271-2.09 3.301-2.49 3.29-5.92 5.93-10.66 7.67-70.38-32.761-75.65 74.449-88.311 126.84-.31 1.28-.619 2.52-.939 3.729.46 1.04.96 2.04 1.5 3 4.17 7.551 10.28 13.16 13.38 21.79 5.73-7.439 11.81-11 17.78-11.609 2.79-.29 5.55.069 8.25.97" fill="none" stroke="#231f20" stroke-width="7.6818"/><path d="m526.72 184.48c-3.72.35-7.45.85-11.21 1.54-5.81 1.06-11.5 3.51-17.26 6.37-6.7 3.32-13.49 7.2-20.65 10.13-9.14 3.73-18.899 5.89-29.85 3.33-3.08 19.67 10.19 58.22 26.4 75.78" fill="none" stroke="#231f20" stroke-width="7.6818"/><path d="m420.64 204.24c-.33 0-.67-.02-.99-.04-3.35 7.47-6.24 14.69-9.15 21.54-.01.01-.01.02-.02.03-5.6 13.16-11.3 24.97-20.58 34.62-14.68 15.25-33.2 33.29-52.75 45.95-.01 0-.02.01-.02.01-3.21 2.07-6.44 4-9.68 5.74-4.51 2.44-9.05 4.51-13.58 6.15-15.44-5.5-4.63-37.24-19.84-42.97-28.35-1.36-32.45 21.54-62.8 18.18-14.42 7.61-24.07 20.01-33.06 33.05-9.28-1.25-13.86 2.19-22.37 1.71-.25-.01-.51-.03-.77-.05-1.31 2.96-2.72 5.84-4.23 8.65-20.68 38.75-57.79 64.39-51.96 113.65 1.14 9.71 8.47 19.9 9.91 31.41 3.18 25.37-11.15 36.22-14.87 54.54-1.29.95-2.59 1.88-3.91 2.8-3.77 2.64-7.65 5.18-11.64 7.61-12.43 7.58-25.91 14.08-40.65 19.34-11.27 26.39-4.47 59.82 6.61 80.99 11.25 5.279 21.82 11.239 31.41 18.18 2.06-11.71 1.92-25.62 4.95-36.36 23.6-11.819 46.7 7.4 66.12 14.87-.16 1.021-.24 1.97-.25 2.84-.03 3.32.94 5.63 2.21 7.66 1.58 2.53 3.6 4.62 4.65 7.68-6.38 6.721-5.51 23.49 4.96 26.45 8.79-3.96 24.96-8.93 36.36 1.65 9.7-7.68 17.1-7.44 28.1-13.22 29.33 15.25 63.29-4.011 67.76-34.71 4.27-29.29-4.95-67.971 8.07-92.671.57-1.09 1.19-2.159 1.85-3.189 18.06 7.86 25.68 33.979 46.28 33.05 8.55-.38 21.02-14.01 34.71-19.83 13.6-5.78 20.15-9.14 28.089-13.22 13.811 7.13 19.79 22.08 36.37 26.439 15.79-8.699 39.75-21.31 56.19-6.609 5.06-1.3 8.45-3.37 10.66-6.01.87-1.021 1.55-2.12 2.09-3.301 4.08-8.88-.061-21.859.47-33.659.36-8.011 3.2-14.61 6.19-20.891 2.22-4.67 4.52-9.17 5.939-13.939.48-1.58.851-3.181 1.101-4.841-3.11-14.039-18.07-25.1-19.84-41.319-.98-9.01 6.939-22.88 6.609-36.36-.39-16.32-12.26-27.37-1.649-39.67-9.301-18.25-22.46-32.63-21.49-61.15-4.01-2.78-7.48-6.11-10.4-9.97-.399-.52-.78-1.06-1.16-1.6-11.29-1.47-19.79-5.72-26.47-11.8-.01 0-.02-.02-.02-.02-17.25-15.71-22.271-43.65-31.36-67.52-.19-2.4 3.28-5.81 4.9-8.3 1.17-1.83 1.359-3.16-1.601-3.27-6.608-3.9-16.758 1.8-25.448 1.7z" fill="none" stroke="#231f20" stroke-width="7.6818"/><path clip-rule="evenodd" d="m.25.25h850.394v850.394h-850.394z" fill="none"/><path d="m810.215 156.241v34.483h-212.242l-.32-34.483h212.496z" fill="#58b947"/><path d="m810.215 124.017v32.224h-.066-212.496l-.293-32.224z" fill="#fbed24"/><path d="m810.215 65.231v58.786h-212.855l-.666-72.378h213.521zm-48.053 24.252 13.801-3.002-14.266.681c-.015-.051-.033-.103-.052-.15l12.703-6.551-13.798 4.409c-.011-.018-.025-.04-.044-.059l10.726-9.748-12.333 7.928 7.928-12.333-9.861 10.85 4.464-13.966-6.72 13.032.699-14.647-3.115 14.329-3.116-14.329.699 14.647-6.72-13.032 4.464 13.966-9.861-10.85 7.928 12.333-12.333-7.928 10.851 9.861-13.967-4.464 13.032 6.719-14.646-.699 14.328 3.116-14.328 3.116 14.646-.7-13.032 6.72 13.967-4.464-10.851 9.861 12.333-7.928-7.928 12.333 9.748-10.725c.018.018.04.033.059.044l-4.409 13.797 6.551-12.703c.048.019.1.037.15.051l-.681 14.266 3.002-13.801c.077.007.154.011.231.015l2.998 13.787-.666-13.97c.096-.018.19-.04.282-.062l6.404 12.417-4.229-13.236c.099-.051.194-.103.286-.157l9.341 10.278-7.499-11.663c.084-.077.164-.158.241-.242l11.663 7.5-10.279-9.341c.056-.092.106-.187.158-.286l13.237 4.229-12.417-6.405c.021-.091.044-.187.062-.282l13.97.667-13.786-2.999c-.004-.076-.008-.153-.015-.23z" fill="#a8d7f4"/><path d="m775.963 86.48-13.801 3.002c-.055-.809-.216-1.585-.465-2.321z" fill="#f6cc4b"/><path d="m775.963 92.713-13.97-.667c.129-.612.194-1.245.194-1.897 0-.146-.004-.293-.011-.436z" fill="#f6cc4b"/><path d="m774.349 80.46-12.703 6.551c-.271-.765-.641-1.483-1.095-2.142z" fill="#f6cc4b"/><path d="m774.349 98.733-13.237-4.229c.358-.677.637-1.41.82-2.175z" fill="#f6cc4b"/><path d="m771.232 75.063-10.726 9.748c-.458-.667-1.011-1.271-1.63-1.794l.022-.026z" fill="#f6cc4b"/><path d="m771.232 104.13-11.663-7.5c.535-.553 1-1.172 1.384-1.842z" fill="#f6cc4b"/><path d="m766.827 70.658-7.928 12.333-.022.026c-.714-.604-1.52-1.103-2.395-1.472l.483-.037z" fill="#f6cc4b"/><path d="m759.328 96.873 7.499 11.663-9.341-10.278c.67-.386 1.288-.851 1.842-1.385z" fill="#f6cc4b"/><path d="m762.177 89.714c.007.143.011.289.011.436 0 .652-.065 1.285-.194 1.897l-.677-.033.615.315c-.184.766-.462 1.498-.82 2.175l-.729-.234.571.52c-.384.67-.849 1.289-1.384 1.842l-.67-.428.429.67c-.554.535-1.172 1-1.842 1.384l-.521-.571.234.729c-.678.359-1.41.637-2.175.82l-.315-.615.033.677c-.611.128-1.245.194-1.896.194-.146 0-.293-.004-.436-.011l-.117-.542-.114.527c-.809-.055-1.585-.216-2.321-.465l.019-.381-.169.33c-.765-.271-1.482-.641-2.142-1.095l.055-.168-.113.125c-.667-.458-1.271-1.011-1.795-1.629-.509-.601-.94-1.264-1.285-1.981-.34-.707-.597-1.464-.75-2.259-.114-.578-.173-1.179-.173-1.791 0-.161.004-.322.012-.479.241-4.779 4.071-8.609 8.851-8.851.157-.007.318-.011.479-.011.611 0 1.212.059 1.79.172.641.125 1.26.315 1.846.564.875.37 1.681.868 2.395 1.472.619.523 1.172 1.127 1.63 1.794l-.125.114.169-.055c.454.659.824 1.377 1.095 2.142l-.329.168.381-.018c.249.736.41 1.512.465 2.321l-.527.114zm-3.622.435c0-3.153-2.556-5.708-5.708-5.708-3.153 0-5.709 2.556-5.709 5.708s2.556 5.709 5.709 5.709c3.152 0 5.708-2.556 5.708-5.709z" fill="#a8d7f4"/><path d="m762.162 89.483c.007.077.011.154.015.231l-.542-.117z" fill="#fff"/><path d="m761.993 92.046c-.018.095-.04.19-.062.282l-.615-.315z" fill="#fff"/><path d="m761.646 87.011c.019.048.037.099.052.15l-.381.018z" fill="#fff"/><path d="m761.43 67.542-4.464 13.966-.483.037c-.586-.249-1.205-.439-1.846-.564l.073-.406z" fill="#f6cc4b"/><path d="m757.2 98.414 4.229 13.237-6.404-12.417c.765-.183 1.497-.461 2.175-.82z" fill="#f6cc4b"/><path d="m761.111 94.503c-.052.099-.103.194-.158.286l-.571-.52z" fill="#fff"/><path d="m760.507 84.811c.019.019.033.041.044.059l-.169.055z" fill="#fff"/><path d="m759.569 96.631c-.077.084-.157.165-.241.242l-.429-.67z" fill="#fff"/><path d="m756.966 97.686.521.571c-.092.055-.188.106-.286.157z" fill="#fff"/><circle cx="752.847" cy="90.15" fill="#f6cc4b" r="5.709"/><path d="m755.409 65.927-.699 14.647-.073.406c-.578-.113-1.179-.172-1.79-.172-.161 0-.322.003-.479.011l-.073-.564z" fill="#f6cc4b"/><path d="m754.743 99.296.666 13.97-2.998-13.787c.143.007.289.011.436.011.651.001 1.285-.065 1.896-.194z" fill="#f6cc4b"/><path d="m754.71 98.619.315.615c-.092.022-.187.044-.282.062z" fill="#fff"/><path d="m752.294 98.938.117.542c-.077-.003-.154-.007-.231-.015z" fill="#fff"/><path d="m752.294 80.255.073.564c-4.779.242-8.609 4.072-8.851 8.851l-.564-.073-14.328-3.116 14.646.699-13.032-6.719 13.967 4.464-10.851-9.861 12.333 7.928-7.928-12.333 9.861 10.85-4.464-13.966 6.72 13.032-.699-14.647z" fill="#f6cc4b"/><path d="m752.18 99.465-3.002 13.801.68-14.266c.737.249 1.513.41 2.322.465z" fill="#f6cc4b"/><path d="m749.877 98.619-.019.381c-.051-.015-.103-.033-.15-.051z" fill="#fff"/><path d="m749.708 98.949-6.551 12.703 4.409-13.797c.66.453 1.377.823 2.142 1.094z" fill="#f6cc4b"/><path d="m747.621 97.686-.055.168c-.019-.011-.041-.026-.059-.044z" fill="#fff"/><path d="m747.508 97.81-9.748 10.725 7.928-12.333.025-.022c.524.619 1.128 1.172 1.795 1.63z" fill="#f6cc4b"/><path d="m745.713 96.181-.025.022-12.333 7.928 10.851-9.861.223-.07c.343.717.775 1.38 1.284 1.981z" fill="#f6cc4b"/><path d="m744.428 94.199-.223.07-13.967 4.464 13.032-6.72.407-.073c.154.795.411 1.553.751 2.259z" fill="#f6cc4b"/><path d="m743.678 91.94-.407.073-14.646.7 14.328-3.116.564.073c-.008.157-.012.318-.012.479 0 .612.058 1.213.173 1.791z" fill="#f6cc4b"/><path d="m595.794 42.147c-2.183 1.025-4.786 1.622-7.576 1.622-2.674 0-5.171-.545-7.295-1.494-4.024-1.791-6.712-5.024-6.712-8.715 0-5.639 6.272-10.209 14.007-10.209 7.737 0 14.01 4.57 14.01 10.209 0 3.604-2.564 6.771-6.434 8.587z" fill="#c8c8c8"/><path d="m595.794 156.241v131.596h-14.461l-.41-245.561c2.124.948 4.621 1.494 7.295 1.494 2.79 0 5.394-.597 7.576-1.622v81.87z" fill="#c8c8c8"/><g fill="none"><path d="m596.694 51.639h213.521v13.592 58.786 32.224 34.483h-212.242" stroke="#231f20" stroke-width="7.6897"/><path d="m580.923 42.276c-4.024-1.791-6.712-5.024-6.712-8.715 0-5.639 6.272-10.209 14.007-10.209 7.737 0 14.01 4.57 14.01 10.209 0 3.604-2.563 6.771-6.434 8.587-2.183 1.025-4.786 1.622-7.576 1.622-2.674 0-5.171-.546-7.295-1.494z" stroke="#231f20" stroke-width="7.6897"/><path d="m580.923 41.994v.282l.41 245.561" stroke="#231f20" stroke-width="7.6897"/><path d="m595.794 41.481v.666 81.87 32.224 131.596" stroke="#231f20" stroke-width="7.6897"/><path d="m808.963 65.938 1.252-.707.736-.417" stroke="#231f20" stroke-width="5.1265"/><path d="m596.303 124.017h1.057 212.855 1.399" stroke="#231f20" stroke-width="5.1265"/><path d="m596.303 156.241h1.35 212.496" stroke="#231f20" stroke-width="5.1265"/><path d="m747.508 97.81-9.748 10.725 7.928-12.332-12.334 7.927 10.851-9.861-13.967 4.464 13.033-6.72-14.647.7 14.328-3.116-14.328-3.117 14.647.7-13.033-6.72 13.967 4.464-10.851-9.861 12.334 7.928-7.928-12.333 9.861 10.85-4.464-13.966 6.72 13.032-.699-14.647 3.116 14.328 3.115-14.328-.699 14.647 6.72-13.032-4.464 13.966 9.861-10.85-7.928 12.333 12.333-7.928-10.725 9.748" stroke="#231f20" stroke-width="1.0985"/><path d="m749.708 98.949-6.551 12.702 4.409-13.797" stroke="#231f20" stroke-width="1.0985"/><path d="m752.18 99.465-3.002 13.801.68-14.266" stroke="#231f20" stroke-width="1.0985"/><path d="m754.743 99.296.666 13.97-2.998-13.787" stroke="#231f20" stroke-width="1.0985"/><path d="m757.2 98.414 4.23 13.237-6.405-12.417" stroke="#231f20" stroke-width="1.0985"/><path d="m759.328 96.873 7.499 11.662-9.341-10.278" stroke="#231f20" stroke-width="1.0985"/><path d="m760.953 94.789 10.279 9.341-11.663-7.499" stroke="#231f20" stroke-width="1.0985"/><path d="m761.932 92.328 12.417 6.405-13.238-4.23" stroke="#231f20" stroke-width="1.0985"/><path d="m762.177 89.714 13.786 2.999-13.97-.667" stroke="#231f20" stroke-width="1.0985"/><path d="m761.697 87.162 14.266-.682-13.801 3.003" stroke="#231f20" stroke-width="1.0985"/><path d="m760.551 84.869 13.798-4.409-12.703 6.551" stroke="#231f20" stroke-width="1.0985"/><path d="m762.177 89.714c.007.143.011.289.011.436 0 .652-.065 1.285-.194 1.897-.018.095-.04.19-.062.282-.184.766-.462 1.498-.82 2.175-.052.099-.103.194-.158.286-.384.67-.849 1.289-1.384 1.842-.077.084-.157.165-.241.242-.554.535-1.172 1-1.842 1.384-.092.055-.188.106-.286.157-.678.359-1.41.637-2.175.82-.092.022-.187.044-.282.062-.611.128-1.245.194-1.896.194-.146 0-.293-.004-.436-.011-.077-.003-.154-.007-.231-.015-.809-.055-1.585-.216-2.321-.465-.051-.015-.103-.033-.15-.051-.765-.271-1.482-.641-2.142-1.095-.019-.011-.041-.026-.059-.044-.667-.458-1.271-1.011-1.795-1.629-.509-.601-.94-1.264-1.285-1.981-.34-.707-.597-1.464-.75-2.259-.114-.578-.173-1.179-.173-1.791 0-.161.004-.322.012-.479.241-4.779 4.071-8.609 8.851-8.851.157-.007.318-.011.479-.011.611 0 1.212.059 1.79.172.641.125 1.26.315 1.846.564.875.37 1.681.868 2.395 1.472.619.523 1.172 1.127 1.63 1.794.019.019.033.041.044.059.454.659.824 1.377 1.095 2.142.019.048.037.099.052.15.249.736.41 1.512.465 2.321.004.077.008.154.012.231z" stroke="#231f20" stroke-width="2.5632"/><circle cx="752.846" cy="90.149" r="5.708" stroke="#231f20" stroke-width="1.4647"/><path d="m546.25 41.25h256.394v256.394h-256.394z"/></g></svg>