<svg enable-background="new 0 0 850.89 850.89" height="850.89" viewBox="0 0 850.89 850.89" width="850.89" xmlns="http://www.w3.org/2000/svg"><path d="m286.63 237.76c.42-.4.84-.8 1.26-1.19 16.31-8.53 27-22.66 42.23-32.26 6.14-.01 6.41 5.85 10.04 8.36.57-.56 1.14-1.1 1.72-1.62 12.06-11 25.75-15.58 45.12-16.78-.19 1.08-.28 2.21-.27 3.36.11 12.1 10.77 27.84 18.67 38.46 7.06 9.49 18.18 20.96 25.1 31.79.5 9.68 2.74 18.29 6.37 25.94 1.33 5.14 3.29 9.78 7 14.21.85 1.01 2.58 2 4.78 3.1 14.67 15.93 36.5 26.26 59.08 33.27.689.5 1.34 1.03 1.949 1.61 0 0 .011 0 .011.01 2.75 6.14 3.38 14.4 2.77 23.9 5.53 1.87 15.59 1.45 26.771 1.67 1.27 14.66-2.08 24.68-1.681 38.48.55.57 1.09 1.14 1.63 1.72 8.08 8.66 15.12 18.34 18.45 31.74 27.101 2.779 43.17 6.75 65.24 15.05-1.271 3.95-3.29 11.56 0 15.06-3.47 1.7.05 5.99.75 8.891-2.46 1.319-1.5 1.12.03.14.3 1.41-.12 2.46-2.45 2.68-4.63 2.66-4.2 10.391-6.22 15.66-.011.01-.011.01-.011.01-.79.881-1.64 1.69-2.56 2.421-.01 0-.021.01-.021.01-10.59 6.16-20.75 2.1-31.34 5.319-22.64 6.9-22.2 39.66-46.84 43.49-2.29 2.431-4.32 5.101-4.86 9.26-.5.79-.93 1.641-1.279 2.561-16.32 1.55-26.37 9.38-32.71 20.93-.42.25-.851.49-1.301.71-.13.91-.27 1.811-.42 2.71-4.25 9.2-6.529 20.37-7.939 32.42-8.78 9.631-21.73 15.08-26.771 28.44-11.83-4.22-21.35 7.39-35.13 6.69-.77 18.92-5.78 51.46-18.4 63.569-8.3 7.96-17.33 2.63-31.78 5.021-3.18.529-5.92 1.989-8.46 3.41-.01 0-.02 0-.02.01-3.24 1.21-5.46 2.59-8.35 3.27-14.74.49-23.89-8.529-34.45-11.72-.21-.521-.4-1.07-.58-1.66-1.39.07-2.56.36-3.63.74-3.03-.38-6.23-.18-9.76.93-17.24-10.45-28.36-34.689-60.22-25.09-7.88 9.89-12.46 17.8-15.46 29.33-.52 1.42-.96 2.8-1.27 4.13-.67 2.8-.93 5.311-1.09 7.65-.2 1.3-.4 2.66-.58 4.06-6.38 14.82-21.22 21.16-33.46 30.11-.82 6.99-3.85 11.76-6.69 16.729-2.74.971-4.95 1.46-6.96 1.761-3.84.579-6.93.449-11.44 1.579-1.73 5.261-.77 8.261-3.84 11.28-.71.69-1.63 1.391-2.85 2.11-23.82-3.47-45.65-2.32-63.57-1.681-2.01-3.25-3.11-6.27-3.54-9.09-2.27-15.029 14.63-24.8 16.92-37.75 2.43-13.77-7.01-30.01-11.71-45.17-3.59-11.56-9.64-22.319-17.38-31.109-.34-.771-.68-1.551-1.02-2.341-.69-.29-1.45-.699-2.28-1.199-5.65-5.681-12.05-10.341-18.94-13.601-.11-4.5-.23-8.99-.36-13.47.48-59.69-2.89-115.54-1.84-175.82h60.22c.03-.56.06-1.12.08-1.68 3.77-77.05.49-161.17 1.59-240.89 52.74-1.36 91.77-16.41 140.53-21.75 6.2 10.52 18.48 14.98 18.4 31.79 1.64-.64 3.23-1.35 4.76-2.11.092.14.182.29.262.43z" fill="#fff5b4"/><path d="m794.51 156v9.34h-.07-225.78l-.09-9.34z" fill="#fff"/><path d="m794.51 138.12v17.88h-225.94l-.16-17.88z" fill="#231f20"/><path d="m794.51 85.81v43.75h-.07-226.11l-.54-58.18h226.72z" fill="#5eabf4"/><path d="m794.51 129.56v8.56h-226.1l-.08-8.56h226.11z" fill="#fff"/><path d="m794.51 165.34v53.72h-225.36l-.49-53.72h225.78z" fill="#5eabf4"/><path d="m625.19 481.53c.569-.41 1.54-.84 3.06-1.28-1.47.69-2.63 1.25-3.52 1.7.039-.05.09-.101.14-.15.03-.03.07-.06.1-.08.05-.05.101-.09.15-.13.02-.02.04-.03.07-.06z"/><path d="m623.62 482.53c.02.05.03.09.03.14-1.53.98-2.49 1.18-.03-.14z"/><path d="m624.73 481.95c-1.86 2.25 6.239 4.069-3.53 5.069-.91 5.83-3.03 10.45-6.22 13.99 2.02-5.27 1.59-13 6.22-15.66 2.33-.22 2.75-1.27 2.45-2.68.29-.18.6-.39.909-.63.061-.029.111-.059.171-.089z"/><path d="m614.97 501.02c-.14.37-.29.721-.46 1.061-.7.5-1.399.95-2.1 1.36.92-.731 1.77-1.541 2.56-2.421z"/><path d="m566.84 165.34v156.83h-15.36l-.43-260.74c2.25 1.01 4.9 1.59 7.74 1.59 2.96 0 5.729-.63 8.05-1.72v68.26 26.44z" fill="#c8c8c8"/><path d="m551.05 61.43c-4.28-1.9-7.13-5.33-7.13-9.25 0-5.99 6.66-10.84 14.87-10.84 8.22 0 14.88 4.85 14.88 10.84 0 3.83-2.72 7.19-6.83 9.12-2.32 1.09-5.09 1.72-8.05 1.72-2.84 0-5.49-.58-7.74-1.59z" fill="#c8c8c8"/><path d="m539.23 411.74c11.409 5.32 14.449 19.01 20.069 30.109 26.49 3.57 44.48 6.471 65.25 16.73-2.17 4.86-2.17 11.88 0 16.729 4 2.04 2.57 4.53.641 6.221-.03.029-.051.04-.07.06-.05.04-.101.08-.15.13-.029.021-.069.05-.1.08-.101.08-.21.16-.311.24-.359.18-.67.35-.939.49-.7-2.9-4.22-7.19-.75-8.891 1 1.681 1.39 2.32 1.43 2.351-.09-.33-4.45-7.94-1.43-2.351-3.29-3.5-1.271-11.109 0-15.06-22.07-8.3-38.14-12.271-65.24-15.05-3.33-13.4-10.37-23.08-18.45-31.74z"/><path d="m534.21 552.26c24.64-3.83 24.2-36.59 46.84-43.49 10.59-3.22 20.75.841 31.34-5.319-7.35 6-18.739 7.939-33.01 6.99-13.649 6.6-16.97 22.949-26.77 33.46-6.521 7-18.101 9.189-23.261 17.619.541-4.16 2.571-6.83 4.861-9.26z"/><path d="m529.35 561.52c-.109.771-.17 1.58-.159 2.461-.381.029-.75.06-1.12.1.349-.921.779-1.771 1.279-2.561z"/><path d="m495.36 585.01c6.34-11.55 16.39-19.38 32.71-20.93-.21.5-.391 1.02-.551 1.57-18.029-.86-21.329 13.02-32.159 19.36z"/><path d="m540.9 371.59c1.3 15.25-2.311 25.58-1.67 40.15l-.051.05c-.54-.58-1.08-1.15-1.63-1.72-.399-13.8 2.95-23.82 1.681-38.48-11.181-.22-21.24.2-26.771-1.67.61-9.5-.02-17.76-2.77-23.9 4.76 4.52 7.06 11.53 4.439 23.9 5.872-1.29 19.422-.59 26.772 1.67z"/><path d="m509.12 344.83c.2.38.39.78.56 1.18-.609-.58-1.26-1.11-1.949-1.61.459.15.929.29 1.389.43z"/><path d="m494.06 585.72c.45-.22.881-.46 1.301-.71-.601 1.11-1.181 2.25-1.721 3.42.15-.9.29-1.8.42-2.71z"/><path d="m507.73 344.4c-22.58-7.01-44.41-17.34-59.08-33.27 4.3 2.16 10.42 4.72 15.3 8.61 6.83 5.43 11.7 10.81 16.729 13.38 8.941 4.56 19.911 6.03 27.051 11.28z"/><path d="m448.65 311.13c-2.2-1.1-3.931-2.09-4.78-3.1-3.71-4.43-5.67-9.07-7-14.21 3.03 6.41 7.03 12.15 11.78 17.31z"/><path d="m432.17 269.55c2.26 9.43 2.9 17.3 4.7 24.27-3.63-7.65-5.87-16.26-6.37-25.94-6.92-10.83-18.04-22.3-25.1-31.79-7.9-10.62-18.56-26.36-18.67-38.46l.27-.01c9.48 29.55 31.29 46.77 45.17 71.93z"/><path d="m458.93 649.29c5.04-13.36 17.99-18.81 26.771-28.44 1.41-12.05 3.689-23.22 7.939-32.42-1.85 11.601-4.55 22.36-6.27 34.101-11.21 7.739-21.79 16.12-28.44 28.439-10.72-3.12-23.56 5.16-33.459 8.36-3.83 25.17-7.25 63.28-33.45 68.59-5.34 1.08-13.27-2.7-20.08-1.68-2.79.42-4.95 1.05-6.78 1.74 2.54-1.421 5.28-2.881 8.46-3.41 14.45-2.391 23.48 2.939 31.78-5.021 12.62-12.109 17.63-44.649 18.4-63.569 13.779.7 23.299-10.91 35.129-6.69z"/><path d="m365.14 727.99c-2.9 1.609-5.53 3.17-8.25 3.27-.03 0-.07 0-.1 0 2.89-.68 5.11-2.06 8.35-3.27z"/><path d="m363.58 175.87c-28.67-1.5-56 1.52-82.84 6.38 25.17-9.85 53.58-9.18 82.84-8.05 14.94 8.99 26.85 31.35 51.86 20.07 8.19 4.95 8.22 8.81 15.06 13.38 11.57-9.11 34.31-7.53 43.49 3.35 29.55-3.35 36.74-29.06 55.2-43.5h1.68c-18.92 15.11-26.37 41.67-56.88 45.17-9.181-10.88-31.92-12.46-43.49-3.35-8.35-4.56-7.1-8.43-15.06-13.38-9.32 4.62-21.84 1.73-28.44 1.68l-.27.01c-.01-1.15.08-2.28.27-3.36-19.37 1.2-33.06 5.78-45.12 16.78l-.05-.05c9.17-12.59 24.53-16.02 40.15-18.41-.61-4.44-12.35-12.15-18.4-16.72z"/><path d="m322.34 719.54c10.56 3.19 19.71 12.21 34.45 11.72-3.28.78-7.43.641-14.96-1.67-8.27-2.55-16.02-1.41-19.49-10.05z"/><path d="m321.76 717.88c.18.59.37 1.14.58 1.66-1.37-.42-2.77-.74-4.21-.92 1.07-.38 2.24-.67 3.63-.74z"/><path d="m330.12 204.31c-15.23 9.6-25.92 23.73-42.23 32.26 13.3-12.64 28.47-23.42 43.9-33.94 4.54 1.6 6.26 6.02 10.04 8.37l.05.05c-.58.52-1.15 1.06-1.72 1.62-3.63-2.51-3.9-8.37-10.04-8.36z"/><path d="m287.89 236.57c-.42.39-.84.79-1.26 1.19-.08-.14-.17-.29-.26-.43.52-.24 1.02-.5 1.52-.76z"/><path d="m280.74 182.25c-.27.1-.54.2-.81.31-.08-.04-.15-.09-.23-.12.35-.07.69-.13 1.04-.19z"/><path d="m274.92 180.89c-.77.24-1.54.48-2.32.71-2.77.49-5.61 1.59-8.27 2.38-.15.05-.3.09-.46.13-.35.11-.69.2-1.03.28-.05.02-.11.03-.17.04-1.49.35-2.91.54-4.22.37 5.43-2.21 11.74-5.65 16.47-3.91z"/><path d="m258.45 184.8c-4.41 1.77-8.24 2.74-10.2-.55.56 0 5.44-2 6-2 1.17 1.6 2.6 2.34 4.2 2.55z"/><path d="m308.37 719.55c3.53-1.109 6.73-1.31 9.76-.93-3.03 1.09-5.31 2.93-9.76 2.61-17.24-10.461-28.36-34.7-60.22-25.101-4.68 7.8-12.04 18.47-15.46 27.66 3-11.53 7.58-19.44 15.46-29.33 31.86-9.599 42.98 14.641 60.22 25.091z"/><path d="m231.42 727.92c.31-1.33.75-2.71 1.27-4.13-.92 3.53-1.69 7.4-2.36 11.78.16-2.34.42-4.85 1.09-7.65z"/><path d="m196.29 769.74c12.24-8.95 27.08-15.29 33.46-30.11.18-1.399.38-2.76.58-4.06-.45 6.42-.17 11.489-5.6 17.439-6.05 6.641-18.16 9.4-25.09 15.061-3.9 6.699-4.34 16.85-11.71 20.069-2.02-.02-3.75.101-5.25.341l-.04-.25c2.01-.301 4.22-.79 6.96-1.761 2.84-4.969 5.87-9.739 6.69-16.729z"/><path d="m171.2 789.81c4.51-1.13 7.6-1 11.44-1.579l.04.25c-9.18 1.479-9.64 7.409-15.11 12.819l-.21-.21c3.07-3.02 2.11-6.02 3.84-11.28z"/><path d="m286.37 237.33c-1.53.76-3.12 1.47-4.76 2.11.08-16.81-12.2-21.27-18.4-31.79-48.76 5.34-87.79 20.39-140.53 21.75-1.1 79.72 2.18 163.84-1.59 240.89h-.08c0-80.85 0-161.71 0-242.56 54.32-.89 93.5-16.91 143.87-21.75 7.35 10.26 14.96 20.26 21.49 31.35z"/><path d="m102.61 709.51c4.7 15.16 14.14 31.4 11.71 45.17-2.29 12.95-19.19 22.721-16.92 37.75l-.33.051c-3.33-20.7 21.22-30.36 13.9-56.2-1.35-4.78-6.69-9.181-8.36-15.05-4.78-16.79-10.97-28.29-17.38-42.83 7.74 8.789 13.79 19.549 17.38 31.109z"/><path d="m100.94 803.2c-2.14-3.92-3.36-7.46-3.87-10.72l.33-.051c.43 2.82 1.53 5.84 3.54 9.09 17.92-.64 39.75-1.789 63.57 1.681 1.22-.72 2.14-1.42 2.85-2.11l.21.21c-1.26 1.23-2.78 2.44-4.74 3.57-22.73-3.61-44.48-2.24-61.89-1.67z"/><path d="m84.21 676.06c.34.79.68 1.57 1.02 2.341-1.06-1.221-2.16-2.4-3.3-3.54.83.499 1.59.909 2.28 1.199z"/><path d="m62.99 661.26c6.89 3.26 13.29 7.92 18.94 13.601-6.14-3.69-15.46-12.181-18.83-9.591-.04-1.34-.07-2.67-.11-4.01z"/><path d="m63.1 665.27c.97 39.771 1.35 80.4-.55 124.54.13-7.779.18-15.649.17-23.56 0-33.33-.89-67.54-.26-100.23.18-.32.39-.57.64-.75z"/><path d="m62.99 661.26c-.17-.09-.35-.18-.53-.26.08-4.42.13-8.83.17-13.21.13 4.48.25 8.97.36 13.47z"/><path d="m62.25 796.25c.01-.22.02-.44.03-.66l-.01.67c-.01-.01-.01-.01-.02-.01z"/><path d="m62.27 796.67c.06-.24.07-.4 0-.41l.01-.67c.09-1.939.18-3.859.27-5.78-.1 5.57-.24 11.091-.43 16.551l.14-9.67z"/><path d="m62.26 796.69-.14 9.67c-.53-2.86-.86-5.091-1.08-6.63.5-1.15 1.04-2.4 1.22-3.04z"/><path d="m60.79 470.29h60.22.08c-.02.56-.05 1.12-.08 1.68-20.07 0-40.15 0-60.22 0h-.05c.01-.56.03-1.12.05-1.68z"/><path d="m60.79 471.97c-1.05 60.28 2.32 116.13 1.84 175.82-1.59-56.94-3.9-112.91-1.89-175.82z"/><path d="m82.53 197.62c16.87 18.85 46.32-1.53 66.92 10.03 36.93-8.54 77.38-13.57 113.22-23.22.06-.01.12-.02.17-.04.34-.08.68-.17 1.03-.28.15-.04.31-.08.46-.13 2.79-.76 5.55-1.55 8.27-2.38 2.47-.43 4.89-.38 7.1.84-44.04 8.05-86.77 20.97-131.92 26.88-19.33-11.68-49.09 8.93-65.25-10.03-15.79 4.47-14.01-.77-32.28.96 18.4-1.87 16.62 1.7 32.28-2.63z"/><path d="m60.29 801.63c.38-5.34.23-5.68.75-1.899-.31.729-.59 1.419-.75 1.899z"/><path d="m60.29 801.64c-.01.2-.02.4-.04.61-.11 0-.08-.23.04-.61z"/><g fill="none"><path d="m567.79 71.38h226.72v14.43 43.75 8.56 17.88 9.34 53.72h-225.36" stroke="#231f20" stroke-width="8.165"/><path d="m551.05 61.43c-4.28-1.9-7.13-5.33-7.13-9.25 0-5.99 6.66-10.84 14.87-10.84 8.22 0 14.88 4.85 14.88 10.84 0 3.83-2.72 7.19-6.83 9.12-2.32 1.09-5.09 1.72-8.05 1.72-2.84 0-5.49-.58-7.74-1.59z" stroke="#231f20" stroke-width="8.165"/><path d="m551.05 61.13v.3l.43 260.74" stroke="#231f20" stroke-width="8.165"/><path d="m566.84 60.59v.71 68.26 26.44 9.34 156.83" stroke="#231f20" stroke-width="8.165"/><path d="m793.18 86.56 1.33-.75.78-.45" stroke="#231f20" stroke-width="5.4433"/><path d="m567.38 129.56h.95 226.11" stroke="#231f20" stroke-width="5.4433"/><path d="m566.6 165.34h.24 1.82 225.78" stroke="#231f20" stroke-width="5.4433"/><path d="m568.15 138.12h.26 226.1 1.49" stroke="#231f20" stroke-width="5.4433"/><path d="m565.82 156h1.02 1.73 225.94.71" stroke="#231f20" stroke-width="5.4433"/><path d="m365.14 727.99c-3.24 1.21-5.46 2.59-8.35 3.27-3.28.78-7.43.641-14.96-1.67-8.27-2.55-16.02-1.41-19.49-10.05-.21-.521-.4-1.07-.58-1.66-1.39.07-2.56.36-3.63.74-3.03 1.09-5.31 2.93-9.76 2.61-17.24-10.461-28.36-34.7-60.22-25.101-4.68 7.8-12.04 18.47-15.46 27.66-.52 1.42-.96 2.8-1.27 4.13-.67 2.8-.93 5.311-1.09 7.65-.45 6.42-.17 11.489-5.6 17.439-6.05 6.641-18.16 9.4-25.09 15.061-3.9 6.699-4.34 16.85-11.71 20.069-2.02-.02-3.75.101-5.25.341-9.18 1.479-9.64 7.409-15.11 12.819-1.26 1.23-2.78 2.44-4.74 3.57-22.73-3.61-44.48-2.24-61.89-1.67-2.14-3.92-3.36-7.46-3.87-10.72-3.33-20.7 21.22-30.36 13.9-56.2-1.35-4.78-6.69-9.181-8.36-15.05-4.78-16.79-10.97-28.29-17.38-42.83-.34-.771-.68-1.551-1.02-2.341-.69-.29-1.45-.699-2.28-1.199-6.14-3.69-15.46-12.181-18.83-9.591-.25.181-.46.431-.64.75-.63 32.69.26 66.9.26 100.23" stroke="#231f20" stroke-width="7"/><path d="m612.39 503.45c-7.35 6-18.739 7.939-33.01 6.99-13.649 6.6-16.97 22.949-26.77 33.46-6.521 7-18.101 9.189-23.261 17.619-.5.79-.93 1.641-1.279 2.561-.21.5-.391 1.02-.551 1.57-18.029-.86-21.329 13.02-32.159 19.359-.42.25-.851.49-1.301.71-.13.91-.27 1.811-.42 2.71-1.85 11.601-4.55 22.36-6.27 34.101-11.21 7.739-21.79 16.12-28.44 28.439-10.72-3.12-23.56 5.16-33.459 8.36-3.83 25.17-7.25 63.28-33.45 68.59-5.34 1.08-13.27-2.7-20.08-1.68-2.79.42-4.95 1.05-6.78 1.74" stroke="#231f20" stroke-width="7"/><path d="m614.97 501.02c-.79.881-1.64 1.69-2.56 2.421" stroke="#231f20" stroke-width="7"/><path d="m624.87 481.8c-.05.05-.101.101-.14.15-1.86 2.25 6.239 4.069-3.53 5.069-.91 5.83-3.03 10.45-6.22 13.99" stroke="#231f20" stroke-width="7"/><path d="m625.12 481.59c-.05.04-.101.08-.15.13" stroke="#231f20" stroke-width="7"/><path d="m509.69 346.02c4.76 4.52 7.06 11.53 4.439 23.9 5.87-1.29 19.42-.59 26.771 1.67 1.3 15.25-2.311 25.58-1.67 40.15 11.409 5.32 14.449 19.01 20.069 30.109 26.49 3.57 44.48 6.471 65.25 16.73-2.17 4.86-2.17 11.88 0 16.729 4 2.04 2.57 4.53.641 6.221-.03.029-.051.04-.07.06-.05.04-.101.08-.15.13-.029.021-.069.05-.1.08-.101.08-.21.16-.311.24-.31.24-.619.45-.909.63-1.53.98-2.49 1.18-.03-.14.27-.141.58-.311.939-.49.061-.03.11-.06.171-.09.89-.45 2.05-1.01 3.52-1.7 0 .12 0 .16 0 0-1.52.44-2.49.87-3.06 1.28" stroke="#231f20" stroke-width="7"/><path d="m263.87 184.11c.15-.04.31-.08.46-.13 2.66-.79 5.5-1.89 8.27-2.38 2.47-.43 4.89-.38 7.1.84.08.03.15.08.23.12.27-.11.54-.21.81-.31 25.17-9.85 53.58-9.18 82.84-8.05 14.94 8.99 26.85 31.35 51.86 20.07 8.19 4.95 8.22 8.81 15.06 13.38 11.57-9.11 34.31-7.53 43.49 3.35 29.55-3.35 36.74-29.06 55.2-43.5h1.68c-18.92 15.11-26.37 41.67-56.88 45.17-9.181-10.88-31.92-12.46-43.49-3.35-8.35-4.56-7.1-8.43-15.06-13.38-9.32 4.62-21.84 1.73-28.44 1.68 9.48 29.55 31.29 46.77 45.17 71.93 2.26 9.43 2.9 17.3 4.7 24.27 1.33 5.14 3.29 9.78 7 14.21.85 1.01 2.58 2 4.78 3.1 4.3 2.16 10.42 4.72 15.3 8.61 6.83 5.43 11.7 10.81 16.729 13.38 8.94 4.56 19.91 6.03 27.051 11.28.689.5 1.34 1.03 1.949 1.61" stroke="#231f20" stroke-width="7"/><path d="m258.45 184.8c1.31.17 2.73-.02 4.22-.37" stroke="#231f20" stroke-width="7"/><path d="m258.45 184.8c-4.41 1.77-8.24 2.74-10.2-.55.56 0 5.44-2 6-2 1.17 1.6 2.6 2.34 4.2 2.55z" stroke="#231f20" stroke-width="7"/><path d="m62.27 796.67c.06-.24.07-.4 0-.41-.01-.01-.01-.01-.02-.01.01-.22.02-.44.03-.66.09-1.939.18-3.859.27-5.78 1.9-44.14 1.52-84.77.55-124.54-.04-1.34-.07-2.67-.11-4.01-.11-4.5-.23-8.99-.36-13.47-1.59-56.94-3.9-112.91-1.89-175.82.01-.56.03-1.12.05-1.68h60.22c0-80.85 0-161.71 0-242.56 54.32-.89 93.5-16.91 143.87-21.75 7.35 10.26 14.96 20.26 21.49 31.35.09.14.18.29.26.43.42-.4.84-.8 1.26-1.19 13.3-12.64 28.47-23.42 43.9-33.94 4.54 1.6 6.26 6.02 10.04 8.37 9.17-12.59 24.53-16.02 40.15-18.41-.61-4.44-12.35-12.15-18.4-16.72-28.67-1.5-56 1.52-82.84 6.38-.35.06-.69.12-1.04.19-44.04 8.05-86.77 20.97-131.92 26.88-19.33-11.68-49.09 8.93-65.25-10.03-15.79 4.47-14.01-.77-32.28.96 0-.12 0-.16 0 .16 0 0 0-.04 0-.16 18.4-1.87 16.62 1.7 32.28-2.63 16.87 18.85 46.32-1.53 66.92 10.03 36.93-8.54 77.38-13.57 113.22-23.22.06-.01.12-.02.17-.04.34-.08.68-.17 1.03-.28.16-.04.31-.08.46-.13 2.79-.76 5.55-1.55 8.27-2.38.78-.23 1.55-.47 2.32-.71-4.73-1.74-11.04 1.7-16.47 3.91" stroke="#231f20" stroke-width="7"/><path d="m60.29 801.63c.16-.479.44-1.17.75-1.899.5-1.15 1.04-2.4 1.22-3.04" stroke="#231f20" stroke-width="7"/><path d="m60.29 801.64c-.01.2-.02.4-.04.61-.11 0-.08-.23.04-.61z" stroke="#231f20" stroke-width="7"/><path d="m62.12 806.36c-.53-2.86-.86-5.091-1.08-6.63-.52-3.78-.37-3.44-.75 1.909v-.01" stroke="#231f20" stroke-width="7"/><path d="m62.72 766.25c.01 7.91-.04 15.78-.17 23.56-.1 5.57-.24 11.091-.43 16.551" stroke="#231f20" stroke-width="7"/><path d="m62.26 796.69.01-.02" stroke="#231f20" stroke-width="7"/><path d="m341.88 211.05c-.58.52-1.15 1.06-1.72 1.62-3.63-2.51-3.9-8.37-10.04-8.36-15.23 9.6-25.92 23.73-42.23 32.26-.5.26-1 .52-1.52.76-1.53.76-3.12 1.47-4.76 2.11.08-16.81-12.2-21.27-18.4-31.79-48.76 5.34-87.79 20.39-140.53 21.75-1.1 79.72 2.18 163.84-1.59 240.89-.02.56-.05 1.12-.08 1.68-20.07 0-40.15 0-60.22 0-1.05 60.28 2.32 116.13 1.84 175.82-.04 4.38-.09 8.79-.17 13.21.18.08.36.17.53.26 6.89 3.26 13.29 7.92 18.94 13.601 1.14 1.14 2.24 2.319 3.3 3.54 7.74 8.79 13.79 19.55 17.38 31.109 4.7 15.16 14.14 31.4 11.71 45.17-2.29 12.95-19.19 22.721-16.92 37.75.43 2.82 1.53 5.84 3.54 9.09 17.92-.64 39.75-1.789 63.57 1.681 1.22-.72 2.14-1.42 2.85-2.11 3.07-3.02 2.11-6.02 3.84-11.28 4.51-1.13 7.6-1 11.44-1.579 2.01-.301 4.22-.79 6.96-1.761 2.84-4.97 5.87-9.739 6.69-16.729 12.24-8.95 27.08-15.29 33.46-30.11.18-1.399.38-2.76.58-4.06.67-4.38 1.44-8.25 2.36-11.78 3-11.53 7.58-19.44 15.46-29.33 31.86-9.6 42.98 14.64 60.22 25.09 3.53-1.109 6.73-1.31 9.76-.93 1.44.18 2.84.5 4.21.92 10.56 3.19 19.71 12.21 34.45 11.72h.1c2.72-.1 5.35-1.66 8.25-3.27 0-.01.01-.01.02-.01 2.54-1.421 5.28-2.881 8.46-3.41 14.45-2.391 23.48 2.939 31.78-5.021 12.62-12.109 17.63-44.649 18.4-63.569 13.78.699 23.3-10.91 35.13-6.69 5.04-13.36 17.99-18.81 26.771-28.44 1.41-12.05 3.689-23.22 7.939-32.42.54-1.17 1.12-2.31 1.721-3.42 6.34-11.55 16.39-19.38 32.71-20.93.37-.04.739-.07 1.12-.1-.011-.881.05-1.69.159-2.461.54-4.159 2.57-6.829 4.86-9.26 24.64-3.83 24.2-36.59 46.84-43.49 10.59-3.22 20.75.841 31.34-5.319 0 0 .011-.01.021-.01.7-.41 1.399-.86 2.1-1.36.17-.34.32-.69.46-1.061 0 0 0 0 .011-.01 2.02-5.27 1.59-13 6.22-15.66 2.33-.22 2.75-1.27 2.45-2.68 0-.05-.011-.09-.03-.14-.7-2.9-4.22-7.19-.75-8.891-3.021-5.59 1.34 2.021 1.43 2.351.01.01.01.01 0 0-.04-.03-.43-.67-1.43-2.351-3.29-3.5-1.271-11.109 0-15.06-22.07-8.3-38.14-12.271-65.24-15.05-3.33-13.4-10.37-23.08-18.45-31.74-.54-.58-1.08-1.15-1.63-1.72-.399-13.8 2.95-23.82 1.681-38.48-11.181-.22-21.24.2-26.771-1.67.61-9.5-.02-17.76-2.77-23.9 0-.01-.011-.01-.011-.01-.17-.4-.359-.8-.56-1.18-.46-.14-.93-.28-1.39-.43-22.58-7.01-44.41-17.34-59.08-33.27-4.75-5.16-8.75-10.9-11.78-17.31-3.63-7.65-5.87-16.26-6.37-25.94-6.92-10.83-18.04-22.3-25.1-31.79-7.9-10.62-18.56-26.36-18.67-38.46-.01-1.15.08-2.28.27-3.36-19.371 1.2-33.061 5.78-45.121 16.78z" stroke="#231f20" stroke-width="7"/><path clip-rule="evenodd" d="m.25.25h850.394v850.394h-850.394z"/></g></svg>