<svg enable-background="new 0 0 850.89 850.89" height="850.89" viewBox="0 0 850.89 850.89" width="850.89" xmlns="http://www.w3.org/2000/svg"><path d="m503.22 398.27c.86-10.45 3.5-19.1 4.48-29.41.37-.82.76-1.62 1.149-2.42 7.881-9.24 13.891-20.35 21.931-29.42.58 5.04 8.14 3.09 7.66 9.19-3.101 9.14-6.61 17.89-13.78 22.96-1.01-2.05-3.271-2.85-6.12-3.06-11.4 5-10.45 22.36-14.2 35.01l-1.33-.41c.13-.45.22-1.23.21-2.44z" fill="#fff5b4"/><path d="m513.94 188.5c4.68 1.11 4.5-2.65 9.189-1.54-2.46 16.95-10.939 27.85-18.38 39.81 5.14 2.09-2.91 25.21-15.31 24.5 4.081-18.96 15.341-43.81 24.501-62.77z" fill="#fff5b4"/><path d="m275.08 738.19c-20.11-.28-49.7-9.431-66.12-.71-.42.06-.83.119-1.23.18 7.46-158.26 20.46-324.21 15.29-500.17 7.14-6.13 15.87-10.66 29.09-10.72 7.47 13.46 24.08 17.78 38.28 24.5l1.47-1.56.06.03c.1-.14.2-.27.3-.41 17.16-18.33 32.93-38.05 37.98-68.49 6.44-2.43 11.31-6.42 15.24-11.36 12.56-15.75 15.49-41.11 28.87-56.04 2.23-1.96 4.69-3.65 7.46-5.01 11.8-1.75 25.81.11 37.24 1.97 3.62 8.97-8.44 12.11-4.6 26.03 15.13 6.28 34.77 4.1 50.53 0 7.119 32.98 3.649 70.25-10.721 96.47-3.76 6.86-11.529 11.07-13.779 18.37-6.671 21.73-.561 43.6-12.521 59.69-1.6 2.16-3.52 4.21-5.85 6.15-3.76 15.52 7.6 24.12 7.661 39.82.09 24.64-23.05 58.97-7.661 88.8 5.44 10.56 17.31 15.359 15.31 32.159-6.13 4.13-9.55 9.811-11.41 16.42-5.81 17.07-1.49 43.671-6.96 64.73-1.25 4.81-3.34 7.14-5.71 8.52-.53.131-1 .4-1.43.71-1.03.45-2.08.78-3.13 1.11-.16-.26-.31-.64-.45-1.149-.98.329-2.01.85-3.05 1.55 0-.011-.01-.011-.01-.021-.01.021-.02.03-.03.05-.98.66-1.96 1.49-2.89 2.46-.88.28-1.65.91-1.94 2.37-3.22 4.62-5.12 11.38-2.8 19.62-12.11 14.431-21.57 31.51-33.69 45.94-17.34-.15-29.51 4.88-39.01 12.58-2.41 1.319-4.71 2.739-6.92 4.26-.1.9-.24 1.79-.41 2.67-9.46 10.31-16.31 23.21-24.39 34.89-5.85 5.86-11.42 11.561-15.05 17.5-1.91 1.67-3.94 3.23-6.09 4.65-.889 9.071 1.501 14.841 3.071 21.441z" fill="#fff5b4"/><path d="m716.64 133.84 1.061-5.48.38-.08c1.07 2.11 2.17 4.17 2.4 4.17.5 0 2.22-4.91 2.22-4.91l.479-.65 2.301 1.72 2.909 1.59c0 1.62 1.271 2.93 2.841 2.94.109 1.12.159 2.25.159 3.39 0 1.54-.1 3.05-.29 4.54-.31 2.46-.89 4.84-1.68 7.11-.9 2.56-2.09 4.98-3.53 7.22-1.43 2.23-3.1 4.28-4.989 6.1-.061-.05-.12-.1-.17-.16-.98-.98-1.061-2.51-.311-3.63l-2.32-1.38c.07 0 .15 0 .23-.02 1.28-.25.52-1.9.05-2.49l-.06-.89.12-.01s-1.4-18.5-1.561-18.75z" fill="#fff"/><path d="m716.77 122.37.36.01 6.05 4.51-.479.65s-1.72 4.91-2.22 4.91c-.23 0-1.33-2.06-2.4-4.17-1.15-2.26-2.26-4.59-2.26-4.59l-.25-.11c.509-.28.919-.7 1.199-1.21z" fill="#fff"/><path d="m709.02 152.51-.319-6.3h-.04v-12.53h.2l7.779.16.24.33c.16.25 1.561 18.75 1.561 18.75l-.12.01-2.34.15-3.03-10.07-1.391 9.42z" fill="#fff"/><path d="m712.98 123.71c-1.07-.46-1.83-1.52-1.83-2.76 0-1.65 1.34-2.99 2.989-2.99 1.65 0 2.99 1.34 2.99 2.99 0 .52-.13 1-.36 1.42-.279.51-.689.93-1.199 1.21-.431.23-.91.36-1.431.36-.409 0-.799-.09-1.159-.23z" fill="#9c5c25"/><path d="m708.66 132.77-3.65.01v-.41s4.181-.66 4.09-2.29c-.22-4.43 3.69-5.65 3.69-5.65l.19-.72c.359.14.75.23 1.159.23.521 0 1-.13 1.431-.36l.25.11s1.109 2.33 2.26 4.59l-.38.08-1.061 5.48-7.779-.16h-.2z" fill="#9c5c25"/><path d="m700.6 116.76c-1.06-.31-1.77-.88-1.77-1.54 0-.19.05-.37.16-.54.47-.73 1.85-1.26 3.479-1.26 2.021 0 3.65.8 3.65 1.8s-1.63 1.8-3.65 1.8c-.679 0-1.319-.09-1.869-.26z" fill="#58b947"/><path d="m698.26 123.73c0-.7.811-1.31 1.99-1.6.5-.12 1.06-.2 1.65-.2 2.01 0 3.64.81 3.64 1.8 0 1-1.63 1.8-3.64 1.8-.23 0-.45-.01-.67-.03-1.69-.15-2.97-.88-2.97-1.77z" fill="#58b947"/><path d="m699.4 132.79 5.609-.01 3.65-.01v.91 12.53.32s-.16 1.34-.851 3.1l-.71-.27-8.52-6.88v-9.69z" fill="#fbed24"/><path d="m696.95 132.41-3.36-9.33-.02-.19c1.729-.14 3.05-.88 3.05-1.78 0-.51-.44-.98-1.14-1.31l.069-.16-.399-4.58-.04-.16c.63-.14 1.159-.36 1.54-.64l2.34.42c-.11.17-.16.35-.16.54 0 .66.71 1.23 1.77 1.54l-.05.18-.33 5.07.03.12c-1.18.29-1.99.9-1.99 1.6 0 .89 1.28 1.62 2.971 1.77l-.03.36-1.8 6.47v.46h-.82l-1.63.01v-.39z" fill="#fff"/><path d="m693.63 115.06c-2.01 0-3.64-.81-3.64-1.81 0-.99 1.63-1.8 3.64-1.8s3.64.81 3.64 1.8c0 .38-.229.72-.619 1.01-.381.28-.91.5-1.54.64-.451.1-.951.16-1.481.16z" fill="#58b947"/><path d="m692.98 122.92c-2.021 0-3.65-.81-3.65-1.81 0-.99 1.63-1.8 3.65-1.8.96 0 1.85.19 2.5.49.699.33 1.14.8 1.14 1.31 0 .9-1.32 1.64-3.05 1.78-.19.02-.39.03-.59.03z" fill="#58b947"/><path d="m698.58 142.48-9.25 6.72-.73.19c-.609-1.62-.739-2.82-.739-2.82v-.32-12.53-.91h3.68l5.41-.01 1.63-.01v9.69z" fill="#fff"/><path d="m689.33 149.2 9.25-6.72 8.52 6.88.71.27c-.699 1.8-1.97 4.04-4.21 5.77-2.029 1.57-5.319 1.9-5.319 1.9s-3.34-.3-5.37-1.86c-2.351-1.82-3.63-4.21-4.311-6.05z" fill="#a8d7f4"/><path d="m680.74 123.47c-.471-.32-.851-.78-1.08-1.32-.15-.35-.23-.75-.23-1.16 0-1.65 1.33-2.99 2.98-2.99 1.66 0 2.99 1.34 2.99 2.99s-1.33 2.99-2.99 2.99c-.62 0-1.19-.19-1.67-.51z" fill="#ffeec8"/><path d="m678.48 128.32c1.14-2.26 2.26-4.59 2.26-4.59v-.26c.479.32 1.05.51 1.67.51l1.35.49s3.91 1.22 3.69 5.65c-.08 1.64 4.09 2.29 4.09 2.29v.4h-3.68v.91h-.17l-7.771.17-1.07-5.49z" fill="#ffeec8"/><path d="m678.11 152.96s1.399-18.5 1.56-18.74l.25-.33 7.771-.17h.17v12.53l-.33 6.3-2.54-.08-1.391-9.41-3.029 10.07-2.33-.16z" fill="#fff"/><path d="m673.37 126.93 6.06-4.51.23-.27c.229.54.609 1 1.08 1.32v.26s-1.12 2.33-2.26 4.59c-1.07 2.12-2.171 4.18-2.41 4.18-.49 0-2.21-4.92-2.21-4.92z" fill="#fff"/><path d="m675.98 162.15c-2.051-1.88-3.881-4.02-5.431-6.37.28-.25.62-.46 1-.58 1.2-.41 2.49.05 3.22 1.04l2.841-.31c-.29-.61.22-1.63.569-2.07l.061-.89 2.33.16 3.029-10.07 1.391 9.41 2.54.08.33-6.3v.32s.13 1.2.739 2.82c.681 1.84 1.96 4.23 4.311 6.05 2.03 1.56 5.37 1.86 5.37 1.86s3.29-.33 5.319-1.9c2.24-1.73 3.511-3.97 4.21-5.77.69-1.76.851-3.1.851-3.1v-.32h.04l.319 6.3 2.54-.08 1.391-9.42 3.03 10.07 2.34-.15.06.89c.47.59 1.23 2.24-.05 2.49-.08.02-.16.02-.23.02l2.32 1.38c-.75 1.12-.67 2.65.311 3.63.05.06.109.11.17.16-2.131 2.07-4.53 3.85-7.131 5.28-2.35 1.29-4.869 2.3-7.5 2.99-2.619.67-5.359 1.04-8.18 1.04-.01 0-.02 0-.04 0-2.39-.01-4.729-.27-6.979-.77-2.721-.6-5.32-1.54-7.75-2.78-2.671-1.37-5.131-3.09-7.341-5.11z" fill="#fff"/><path d="m673.37 126.93-2.29 1.72-2.811.02c.971-1.3.74-3.12-.52-4.07-.23-.17-.47-.3-.73-.4.95-2.54 2.19-4.94 3.681-7.14 1.47-2.19 3.18-4.2 5.1-5.98 2.16-2 4.57-3.72 7.19-5.1 2.34-1.23 4.84-2.18 7.46-2.81 2.45-.6 5.01-.91 7.64-.91h.42c2.32.03 4.57.3 6.75.8 2.681.6 5.23 1.53 7.62 2.75 2.62 1.34 5.05 3.03 7.22 5 2.021 1.83 3.82 3.91 5.351 6.19 1.54 2.26 2.81 4.73 3.77 7.35h.011c1.02 2.78 1.71 5.73 2 8.79-1.57-.01-2.841-1.32-2.841-2.94l-2.909-1.59-2.301-1.72-6.05-4.51-.36-.01c.23-.42.36-.9.36-1.42 0-1.65-1.34-2.99-2.99-2.99-1.649 0-2.989 1.34-2.989 2.99 0 1.24.76 2.3 1.83 2.76l-.19.72s-3.91 1.22-3.69 5.65c.091 1.63-4.09 2.29-4.09 2.29v.41l-5.609.01v-.46l1.8-6.47.03-.36c.22.02.439.03.67.03 2.01 0 3.64-.8 3.64-1.8 0-.99-1.63-1.8-3.64-1.8-.591 0-1.15.08-1.65.2l-.03-.12.33-5.07.05-.18c.551.17 1.19.26 1.87.26 2.021 0 3.65-.8 3.65-1.8s-1.63-1.8-3.65-1.8c-1.63 0-3.01.53-3.479 1.26l-2.34-.42c.39-.29.619-.63.619-1.01 0-.99-1.63-1.8-3.64-1.8s-3.64.81-3.64 1.8c0 1 1.63 1.81 3.64 1.81.53 0 1.03-.06 1.48-.16l.04.16.399 4.58-.069.16c-.65-.3-1.54-.49-2.5-.49-2.021 0-3.65.81-3.65 1.8 0 1 1.63 1.81 3.65 1.81.199 0 .399-.01.59-.03l.02.19 3.36 9.33v.39l-5.41.01v-.4s-4.17-.65-4.09-2.29c.22-4.43-3.69-5.65-3.69-5.65l-1.35-.49c1.66 0 2.99-1.34 2.99-2.99s-1.33-2.99-2.99-2.99c-1.65 0-2.98 1.34-2.98 2.99 0 .41.08.81.23 1.16l-.23.27z" fill="#fff"/><path d="m664.81 136.53c0-1.77.12-3.51.381-5.21.359-2.47.979-4.85 1.829-7.12.261.1.5.23.73.4 1.26.95 1.49 2.77.52 4.07l2.811-.02 2.29-1.72.49.65s1.72 4.92 2.21 4.92c.239 0 1.34-2.06 2.41-4.18l.369.08 1.07 5.49-.25.33c-.16.24-1.56 18.74-1.56 18.74l.13.01-.061.89c-.35.44-.859 1.46-.569 2.07l-2.841.31c-.729-.99-2.02-1.45-3.22-1.04-.38.12-.72.33-1 .58-1.54-2.32-2.8-4.85-3.75-7.54-1-2.83-1.64-5.83-1.89-8.94-.069-.91-.099-1.84-.099-2.77z" fill="#fff"/><path d="m664.91 139.3c.25 3.11.89 6.11 1.89 8.94.95 2.69 2.21 5.22 3.75 7.54 1.55 2.35 3.38 4.49 5.431 6.37 2.21 2.02 4.67 3.74 7.34 5.11 2.43 1.24 5.029 2.18 7.75 2.78 2.25.5 4.59.76 6.979.77h.04c2.82 0 5.561-.37 8.18-1.04 2.631-.69 5.15-1.7 7.5-2.99 2.601-1.43 5-3.21 7.131-5.28 1.89-1.82 3.56-3.87 4.989-6.1 1.44-2.24 2.63-4.66 3.53-7.22.79-2.27 1.37-4.65 1.68-7.11.19-1.49.29-3 .29-4.54 0-1.14-.05-2.27-.159-3.39-.29-3.06-.98-6.01-2-8.79h-.011c-.96-2.62-2.229-5.09-3.77-7.35-1.53-2.28-3.33-4.36-5.351-6.19-2.17-1.97-4.6-3.66-7.22-5-2.39-1.22-4.939-2.15-7.62-2.75-2.18-.5-4.43-.77-6.75-.8-.14 0-.279 0-.42 0-2.63 0-5.189.31-7.64.91-2.62.63-5.12 1.58-7.46 2.81-2.62 1.38-5.03 3.1-7.19 5.1-1.92 1.78-3.63 3.79-5.1 5.98-1.49 2.2-2.73 4.6-3.681 7.14-.85 2.27-1.47 4.65-1.829 7.12-.261 1.7-.381 3.44-.381 5.21.002.93.032 1.86.102 2.77zm-8.84-3.26c0-23.3 18.89-42.19 42.189-42.19s42.19 18.89 42.19 42.19-18.891 42.19-42.19 42.19-42.189-18.89-42.189-42.19z" fill="#fff"/><path d="m590.12 189.26h218.12v17.91h-217.9-2.23v-17.91z" fill="#ed1e29"/><path d="m589.03 64.37h219.21v19.65h-219.43-.7v-19.65z" fill="#ed1e29"/><path d="m588.81 84.02h219.43v105.24h-218.12-2.01v-105.24zm67.26 52.02c0 23.3 18.89 42.19 42.189 42.19s42.19-18.89 42.19-42.19-18.891-42.19-42.19-42.19-42.189 18.89-42.189 42.19z" fill="#0071bc"/><path d="m580.33 56.3c-2.88 0-5.57-.62-7.82-1.69-3.95-1.87-6.56-5.11-6.56-8.8 0-5.78 6.439-10.48 14.38-10.48 7.95 0 14.38 4.7 14.38 10.48 0 3.7-2.63 6.95-6.6 8.82-2.24 1.05-4.91 1.67-7.78 1.67z" fill="#c8c8c8"/><path d="m572.51 54.61c2.25 1.07 4.94 1.69 7.82 1.69 2.87 0 5.54-.62 7.78-1.67v9.74 19.65 105.24 17.91 99.7h-14.85z" fill="#c8c8c8"/><path d="m508.85 366.44c5.681-11.44 13.73-20.51 20.4-30.95.51.5 1.06.96 1.64 1.38l-.109.15c-8.041 9.07-14.051 20.18-21.931 29.42z"/><path d="m507.82 367.64c.35-.4.699-.8 1.029-1.2-.39.8-.779 1.6-1.149 2.42.05-.4.09-.81.12-1.22z"/><path d="m503.22 404.39c.42-1.04.79-2.14 1.12-3.27 3.75-12.65 2.8-30.01 14.2-35.01 2.85.21 5.11 1.01 6.12 3.06 7.17-5.07 10.68-13.82 13.78-22.96.479-6.1-7.08-4.15-7.66-9.19l.109-.15c3.221 2.42 7.21 4.05 9.08 7.81-1.739 11.52-8.069 18.46-13.779 26.03-2.271-.8-3.86-2.27-6.12-3.07-14.9 2.97-7.77 27.97-16.85 36.75z"/><path d="m507.7 368.86c-.98 10.31-3.62 18.96-4.48 29.41.011 1.21-.08 1.99-.21 2.44-.6 2.01-2.229-2.78-1.319-5.5.339-10.45 2.649-18.92 6.009-26.35z"/><path d="m486.38 251.27c7.64-21.44 16.851-41.33 24.5-62.77 4.87-.24 6.73-3.48 12.25-3.07 4.96 11.4-7.66 21.86-12.25 33.69-5.1 13.13-5.72 37.36-24.5 32.15zm27.56-62.77c-9.16 18.96-20.421 43.81-24.5 62.77 12.399.71 20.449-22.41 15.31-24.5 7.44-11.96 15.92-22.86 18.38-39.81-4.69-1.11-4.51 2.65-9.19 1.54z"/><path d="m419.01 107.34c8.3-7.51 12.8-18.84 18.37-29.09h1.53c-6.38 9.95-9.19 23.47-19.9 29.09z"/><path d="m423.6 447.26c12.14 3.69 13.11 18.54 15.31 32.16-6.74 2.83-10.641 8.11-12.94 14.89 1.86-6.609 5.28-12.29 11.41-16.42 2-16.8-9.87-21.6-15.31-32.159-15.39-29.831 7.75-64.161 7.661-88.8-.061-15.7-11.42-24.3-7.661-39.82 2.33-1.94 4.25-3.99 5.85-6.15l.09.07c-2.14 2.97-3.95 5.9-4.41 9.15-1.87 13.03 7.93 24.85 7.66 38.28-.53 25.709-23.74 62.579-7.66 88.799z"/><path d="m419.01 559.04c5.47-21.06 1.15-47.66 6.96-64.73-6.22 22 4.78 54.301-9.72 73.94-1.14-.81-2.12-.92-2.95-.69 2.37-1.38 4.46-3.71 5.71-8.52z"/><path d="m419.01 110.4c-11.43-1.86-25.44-3.72-37.24-1.97 8.83-4.37 20.66-5.39 37.24-1.09 7.44 10.71-6.76 13.48-3.07 29.09 17.59 4.02 33.85 2.22 50.53-1.53 5.99 37.74 5.311 68.76-10.71 98-3.49 6.35-11.609 11.29-13.79 18.37-4.2 13.7-.54 32.85-6.12 47.47-1.77 4.62-5.09 8.48-7.84 12.29l-.09-.07c11.96-16.09 5.85-37.96 12.521-59.69 2.25-7.3 10.02-11.51 13.779-18.37 14.37-26.22 17.84-63.49 10.721-96.47-15.761 4.1-35.4 6.28-50.53 0-3.841-13.92 8.219-17.06 4.599-26.03z"/><path d="m413.3 567.56c-.47.271-.95.5-1.43.71.43-.31.9-.58 1.43-.71z"/><path d="m411.87 568.27c-1.41 1.03-2.35 2.48-3.13 1.11 1.05-.33 2.1-.66 3.13-1.11z"/><path d="m405.24 569.78c1.04-.7 2.07-1.221 3.05-1.55.14.51.29.89.45 1.149-1.07.34-2.12.68-3.13 1.13-.09-.209-.21-.449-.37-.729z"/><path d="m405.61 570.51c.66 1.59-.46 1.46-1.85 1.53.18-.28.36-.56.55-.85.42-.25.85-.48 1.3-.68z"/><path d="m405.23 569.76c0 .01.01.01.01.021-.01.01-.02.02-.04.029.01-.02.02-.03.03-.05z"/><path d="m405.2 569.81c-.3.48-.6.94-.89 1.381-.44.27-.87.569-1.27.92-.25.04-.49.09-.73.159.93-.97 1.91-1.8 2.89-2.46z"/><path d="m402.31 572.27c-.68.711-1.33 1.5-1.94 2.37.29-1.46 1.06-2.09 1.94-2.37z"/><path d="m379.2 108.87c.84-.17 1.7-.31 2.57-.44-2.77 1.36-5.23 3.05-7.46 5.01 1.49-1.66 3.11-3.19 4.89-4.57z"/><path d="m403.76 572.04c-4.3 6.52-7 10.09-4.66 22.22-12.7 14.86-22.08 33.04-35.22 47.471-15.38 1.31-28.23 5.149-39.01 11.05 9.5-7.7 21.67-12.73 39.01-12.58 12.12-14.431 21.58-31.51 33.69-45.94-2.32-8.24-.42-15 2.8-19.62-.09.45-.14.98-.12 1.61.73-1.88 1.69-3.19 2.79-4.14.24-.031.48-.051.72-.071z"/><path d="m374.31 113.44c-13.38 14.93-16.31 40.29-28.87 56.04l-.01-.01c.6-.74 1.14-1.54 1.61-2.41 8.58-18.23 13.14-41.25 27.27-53.62z"/><path d="m374.6 736.66c18.87 14.439 39.47 30.06 59.72 41.34-13.62-6.73-28.43-15.28-41.34-24.5-12.17-8.68-24.1-25.29-36.75-22.96-1.35 6.979 17.8 13.31 15.31 21.43-9.37 11.561-14.8 27.05-27.56 35.221-10.59-17.36-23.7-32.19-42.61-41.221 20.23 5.94 32.35 24.67 44.14 39.69 9.37-10.53 17.66-22.16 24.5-35.22 2.28-7.091-21.16-13.881-13.78-21.44 6.61-4.4 13.43 3.88 18.37 7.66z"/><path d="m317.95 657.04c2.21-1.521 4.51-2.94 6.92-4.26-2.63 2.12-5.06 4.45-7.33 6.93.17-.88.31-1.77.41-2.67z"/><path d="m345.44 169.48c-3.93 4.94-8.8 8.93-15.24 11.36-5.05 30.44-20.82 50.16-37.98 68.49 14.68-20.3 32.27-37.69 36.45-68.49 5.54-3.84 12.56-6.2 16.76-11.37z"/><path d="m301.37 745.97c-.15-.05-.31-.09-.47-.13.07 0 .14.01.21.01.09.04.17.08.26.12z"/><path d="m317.54 659.71c-2.69 13.58-13.98 24.47-24.39 34.89 8.08-11.68 14.93-24.58 24.39-34.89z"/><path d="m292.22 249.33c-.1.14-.2.27-.3.41-.02-.01-.04-.02-.06-.03.12-.13.24-.26.36-.38z"/><path d="m293.15 694.6c-4.44 6.41-9.24 12.46-15.05 17.5 3.63-5.94 9.2-11.64 15.05-17.5z"/><path d="m285.79 747.38c-14.18-13.149-56.06-12.88-76.83-9.899 16.42-8.721 46.01.43 66.12.71-1.57-6.601-3.96-12.37-3.07-21.44 2.15-1.42 4.18-2.98 6.09-4.65-5.84 9.57-6.63 19.771 4.63 32.21 6.74-.619 12.74 0 18.17 1.53-5.84-.291-11.13-.031-15.11 1.539z"/><path d="m252.11 226.77c-13.22.06-21.95 4.59-29.09 10.72 5.17 175.96-7.83 341.91-15.29 500.17-1.1.17-2.13.35-3.09.53 9.61-151.671 21.09-301.48 16.84-467.01-32.66 0-65.32 0-97.99 0 0-.51 0-1.02 0-1.53h97.99c0-10.72 0-21.44 0-32.16 8.85-6.53 18.4-14.79 29.1-12.25 5.44 1.3 6.77 8.33 12.25 12.25 9.57 6.86 21.13 8.21 29.03 12.22-.49.52-.98 1.04-1.47 1.56-14.2-6.72-30.81-11.04-38.28-24.5z"/><path d="m208.96 737.48c-.43.22-.85.46-1.26.71.01-.181.02-.351.03-.53.4-.06.81-.12 1.23-.18z"/><g fill="none"><path d="m589.03 64.37h219.21v19.65 105.24 17.91h-217.9" stroke="#231f20" stroke-width="7.8601"/><path d="m572.51 54.61c-3.95-1.87-6.56-5.11-6.56-8.8 0-5.78 6.439-10.48 14.38-10.48 7.95 0 14.38 4.7 14.38 10.48 0 3.7-2.63 6.95-6.6 8.82-2.24 1.05-4.91 1.67-7.78 1.67-2.88 0-5.57-.62-7.82-1.69z" stroke="#231f20" stroke-width="7.8601"/><path d="m572.51 54.23v.38l.75 252.26" stroke="#231f20" stroke-width="7.8601"/><path d="m588.11 53.94v.69 9.74 19.65 105.24 17.91 99.7" stroke="#231f20" stroke-width="7.8601"/><path d="m588.81 84.02h219.43.01" stroke="#231f20" stroke-width="5.2401"/><path d="m590.12 189.26h218.12 1.31" stroke="#231f20" stroke-width="5.2401"/><circle cx="698.26" cy="136.04" r="42.19" stroke="#231f20" stroke-width="5.2401"/><path d="m729.23 124.35c1.02 2.78 1.71 5.73 2 8.79.109 1.12.159 2.25.159 3.39 0 1.54-.1 3.05-.29 4.54-.31 2.46-.89 4.84-1.68 7.11-.9 2.56-2.09 4.98-3.53 7.22-1.43 2.23-3.1 4.28-4.989 6.1-2.131 2.07-4.53 3.85-7.131 5.28-2.35 1.29-4.869 2.3-7.5 2.99-2.619.67-5.359 1.04-8.18 1.04-.01 0-.02 0-.04 0-2.39-.01-4.729-.27-6.979-.77-2.721-.6-5.32-1.54-7.75-2.78-2.67-1.37-5.13-3.09-7.34-5.11-2.051-1.88-3.881-4.02-5.431-6.37-1.54-2.32-2.8-4.85-3.75-7.54-1-2.83-1.64-5.83-1.89-8.94-.07-.91-.101-1.84-.101-2.77 0-1.77.12-3.51.381-5.21.359-2.47.979-4.85 1.829-7.12.95-2.54 2.19-4.94 3.681-7.14 1.47-2.19 3.18-4.2 5.1-5.98 2.16-2 4.57-3.72 7.19-5.1 2.34-1.23 4.84-2.18 7.46-2.81 2.45-.6 5.01-.91 7.64-.91h.42c2.32.03 4.57.3 6.75.8 2.681.6 5.23 1.53 7.62 2.75 2.62 1.34 5.05 3.03 7.22 5 2.021 1.83 3.82 3.91 5.351 6.19 1.54 2.26 2.81 4.73 3.77 7.35" stroke="#231f20" stroke-width="1.965"/><path d="m688.6 149.39c.681 1.84 1.96 4.23 4.311 6.05 2.03 1.56 5.37 1.86 5.37 1.86s3.29-.33 5.319-1.9c2.24-1.73 3.511-3.97 4.21-5.77.69-1.76.851-3.1.851-3.1v-.32-12.53-.91l-3.65.01-5.609.01h-.82l-1.63.01-5.41.01h-3.68v.91 12.53.32c-.002 0 .128 1.2.738 2.82z" stroke="#231f20" stroke-width="2.62"/><path d="m698.58 132.74v.05 9.69l-9.25 6.72" stroke="#231f20" stroke-width="2.62"/><path d="m698.58 142.48 8.52 6.88" stroke="#231f20" stroke-width="2.62"/><path d="m662.99 144c-.38-.5-.601-1.12-.601-1.79 0-1.5 1.101-2.74 2.521-2.91.12-.02.229-.03.35-.03 1.58 0 2.87 1.32 2.87 2.94" stroke="#231f20" stroke-linecap="round" stroke-linejoin="round" stroke-width="2.62"/><path d="m665.77 152.67c-.369-.49-.59-1.11-.59-1.78 0-1.17.66-2.18 1.62-2.65.38-.19.8-.29 1.24-.29 1.59 0 2.87 1.32 2.87 2.94" stroke="#231f20" stroke-linecap="round" stroke-linejoin="round" stroke-width="2.62"/><path d="m670.89 160.4c-.5-.35-.909-.87-1.12-1.5-.39-1.16-.039-2.37.78-3.12.28-.25.62-.46 1-.58 1.2-.41 2.49.05 3.22 1.04.181.24.33.52.431.83" stroke="#231f20" stroke-linecap="round" stroke-linejoin="round" stroke-width="2.62"/><path d="m677.63 166.49c-.59-.18-1.13-.56-1.52-1.11-.71-1-.721-2.27-.13-3.23.189-.32.449-.6.77-.83 1.28-.91 3.1-.58 4.03.74" stroke="#231f20" stroke-linecap="round" stroke-linejoin="round" stroke-width="2.62"/><path d="m686.13 171.08c-.62-.01-1.24-.21-1.78-.62-1.01-.78-1.38-2.08-1.029-3.2.1-.31.25-.6.46-.87.97-1.25 2.79-1.46 4.069-.47" stroke="#231f20" stroke-linecap="round" stroke-linejoin="round" stroke-width="2.62"/><path d="m694.98 173.18c-.591.2-1.25.22-1.881.01-1.39-.44-2.229-1.79-2.029-3.15.02-.16.05-.32.1-.47.49-1.51 2.14-2.33 3.68-1.83" stroke="#231f20" stroke-linecap="round" stroke-linejoin="round" stroke-width="2.62"/><path d="m662.26 135.34c-.22-.57-.26-1.23-.08-1.88.391-1.37 1.67-2.24 3.011-2.14.18.01.369.04.55.1 1.529.43 2.399 2.05 1.96 3.61" stroke="#231f20" stroke-linecap="round" stroke-linejoin="round" stroke-width="2.62"/><path d="m663.09 127.01c0-.62.19-1.25.601-1.78.8-1.07 2.17-1.45 3.329-1.03.261.1.5.23.73.4 1.26.95 1.49 2.77.52 4.07" stroke="#231f20" stroke-linecap="round" stroke-linejoin="round" stroke-width="2.62"/><path d="m666.24 119.15c.09-.61.38-1.19.859-1.67.99-.98 2.5-1.12 3.601-.42.18.11.35.24.5.4 1.109 1.13 1.069 2.97-.08 4.1" stroke="#231f20" stroke-linecap="round" stroke-linejoin="round" stroke-width="2.62"/><path d="m670.82 112.77c.09-.61.38-1.2.859-1.68 1.16-1.13 2.99-1.14 4.11-.02 0 .01 0 .01.01.01 1.101 1.13 1.05 2.96-.1 4.1" stroke="#231f20" stroke-linecap="round" stroke-linejoin="round" stroke-width="2.62"/><path d="m677.96 105.97c.33-.53.83-.95 1.46-1.2 1.36-.52 2.87.02 3.57 1.21.069.14.14.27.2.42.56 1.48-.21 3.15-1.73 3.73" stroke="#231f20" stroke-linecap="round" stroke-linejoin="round" stroke-width="2.62"/><path d="m685.75 101.69c.48-.39 1.09-.62 1.77-.65 1.391-.04 2.591.87 2.931 2.13.06.2.09.42.1.64.05 1.59-1.229 2.91-2.85 2.96" stroke="#231f20" stroke-linecap="round" stroke-linejoin="round" stroke-width="2.62"/><path d="m694.58 99.36c.59-.2 1.24-.22 1.88-.01 1.3.42 2.11 1.64 2.05 2.91-.02.24-.06.48-.14.72-.48 1.51-2.14 2.32-3.68 1.82" stroke="#231f20" stroke-linecap="round" stroke-linejoin="round" stroke-width="2.62"/><path d="m733.53 128.42c.37.49.59 1.11.59 1.78 0 1.62-1.29 2.94-2.87 2.94-.01 0-.01 0-.02 0-1.57-.01-2.841-1.32-2.841-2.94" stroke="#231f20" stroke-linecap="round" stroke-linejoin="round" stroke-width="2.62"/><path d="m729.22 124.35c-.229.08-.489.11-.75.11-1.58 0-2.87-1.31-2.87-2.94" stroke="#231f20" stroke-linecap="round" stroke-linejoin="round" stroke-width="2.62"/><path d="m729.23 124.35h-.01" stroke="#231f20" stroke-width="1.965"/><path d="m730.75 119.74c.37.49.59 1.11.59 1.78 0 1.36-.899 2.5-2.109 2.83" stroke="#231f20" stroke-linecap="round" stroke-linejoin="round" stroke-width="2.62"/><path d="m725.62 112.01c.51.36.91.87 1.13 1.51.45 1.36-.12 2.81-1.3 3.48-.15.08-.311.16-.49.22-1.5.5-3.13-.34-3.65-1.88" stroke="#231f20" stroke-linecap="round" stroke-linejoin="round" stroke-width="2.62"/><path d="m718.89 105.92c.58.19 1.12.56 1.511 1.11.85 1.2.699 2.81-.301 3.78-.1.1-.21.19-.33.28-1.289.92-3.1.59-4.039-.74" stroke="#231f20" stroke-linecap="round" stroke-linejoin="round" stroke-width="2.62"/><path d="m710.39 101.33c.61.01 1.24.22 1.771.63 1.22.94 1.51 2.62.72 3.85-.04.08-.09.15-.14.21-.971 1.26-2.8 1.47-4.08.47" stroke="#231f20" stroke-linecap="round" stroke-linejoin="round" stroke-width="2.62"/><path d="m701.54 99.23c.58-.2 1.24-.22 1.88-.01 1.54.5 2.4 2.12 1.92 3.63-.02.07-.05.14-.08.21-.56 1.36-2.13 2.09-3.6 1.61" stroke="#231f20" stroke-linecap="round" stroke-linejoin="round" stroke-width="2.62"/><path d="m734.25 137.07c.22.58.26 1.23.08 1.88-.41 1.45-1.82 2.34-3.23 2.12-.109-.02-.22-.04-.33-.07-1.52-.44-2.399-2.06-1.949-3.62" stroke="#231f20" stroke-linecap="round" stroke-linejoin="round" stroke-width="2.62"/><path d="m733.43 145.4c0 .62-.199 1.25-.6 1.79-.82 1.08-2.23 1.46-3.41.99-.229-.09-.45-.21-.65-.36-1.27-.96-1.5-2.78-.529-4.08" stroke="#231f20" stroke-linecap="round" stroke-linejoin="round" stroke-width="2.62"/><path d="m730.28 153.26c-.101.61-.391 1.2-.86 1.67-.97.96-2.43 1.12-3.53.47-.21-.12-.399-.27-.58-.45-1.109-1.12-1.069-2.96.091-4.1" stroke="#231f20" stroke-linecap="round" stroke-linejoin="round" stroke-width="2.62"/><path d="m725.69 159.64c-.091.62-.381 1.2-.86 1.68-1.1 1.08-2.8 1.14-3.93.18-.061-.05-.12-.1-.17-.16-.98-.98-1.061-2.51-.311-3.63.11-.17.24-.32.39-.47" stroke="#231f20" stroke-linecap="round" stroke-linejoin="round" stroke-width="2.62"/><path d="m718.56 166.45c-.329.52-.829.95-1.46 1.19-1.229.46-2.569.08-3.33-.86-.18-.23-.329-.49-.439-.77-.57-1.48.2-3.15 1.72-3.72" stroke="#231f20" stroke-linecap="round" stroke-linejoin="round" stroke-width="2.62"/><path d="m710.76 170.72c-.479.39-1.09.63-1.76.65-1.2.04-2.24-.62-2.73-1.6-.189-.35-.289-.75-.3-1.17-.05-1.58 1.23-2.91 2.84-2.96" stroke="#231f20" stroke-linecap="round" stroke-linejoin="round" stroke-width="2.62"/><path d="m701.93 173.06c-.58.2-1.239.21-1.88.01-1.069-.35-1.81-1.25-2-2.26-.08-.45-.06-.92.09-1.38.49-1.5 2.141-2.32 3.681-1.82" stroke="#231f20" stroke-linecap="round" stroke-linejoin="round" stroke-width="2.62"/><path d="m679.66 122.15c-.15-.35-.23-.75-.23-1.16 0-1.65 1.33-2.99 2.98-2.99 1.66 0 2.99 1.34 2.99 2.99s-1.33 2.99-2.99 2.99c-.62 0-1.19-.19-1.67-.51-.47-.32-.85-.78-1.08-1.32z" stroke="#231f20" stroke-linecap="round" stroke-linejoin="round" stroke-width="2.62"/><path d="m680.74 123.73s-1.12 2.33-2.26 4.59c-1.07 2.12-2.171 4.18-2.41 4.18-.49 0-2.21-4.92-2.21-4.92" stroke="#231f20" stroke-linecap="round" stroke-linejoin="round" stroke-width="2.62"/><path d="m683.76 124.47s3.91 1.22 3.69 5.65c-.08 1.64 4.09 2.29 4.09 2.29" stroke="#231f20" stroke-linecap="round" stroke-linejoin="round" stroke-width="2.62"/><path d="m678.85 128.4 1.07 5.49 7.77-.17" stroke="#231f20" stroke-linecap="round" stroke-linejoin="round" stroke-width="2.62"/><path d="m671.08 128.65 2.29-1.72 6.06-4.51" stroke="#231f20" stroke-linecap="round" stroke-linejoin="round" stroke-width="2.62"/><path d="m679.67 134.22c-.16.24-1.56 18.74-1.56 18.74l.13.01 2.33.16 3.029-10.07 1.391 9.41 2.54.08.33-6.3" stroke="#231f20" stroke-linecap="round" stroke-linejoin="round" stroke-width="2.62"/><path d="m678.18 153.86c-.35.44-.859 1.46-.569 2.07.1.2.29.36.62.42 1.189.24 1.85-1.38 1.539-2.29" stroke="#231f20" stroke-linecap="round" stroke-linejoin="round" stroke-width="1.965"/><path d="m687.21 153.54c.47.58 1.23 2.23-.04 2.49-1.189.24-1.85-1.39-1.55-2.3" stroke="#231f20" stroke-linecap="round" stroke-linejoin="round" stroke-width="1.965"/><path d="m716.77 122.37c.23-.42.36-.9.36-1.42 0-1.65-1.34-2.99-2.99-2.99-1.649 0-2.989 1.34-2.989 2.99 0 1.24.76 2.3 1.83 2.76.359.14.75.23 1.159.23.521 0 1-.13 1.431-.36.509-.28.919-.7 1.199-1.21z" stroke="#231f20" stroke-linecap="round" stroke-linejoin="round" stroke-width="2.62"/><path d="m715.82 123.69s1.109 2.33 2.26 4.59c1.07 2.11 2.17 4.17 2.4 4.17.5 0 2.22-4.91 2.22-4.91" stroke="#231f20" stroke-linecap="round" stroke-linejoin="round" stroke-width="2.62"/><path d="m712.79 124.43s-3.91 1.22-3.69 5.65c.091 1.63-4.09 2.29-4.09 2.29" stroke="#231f20" stroke-linecap="round" stroke-linejoin="round" stroke-width="2.62"/><path d="m717.7 128.36-1.06 5.48-7.78-.16" stroke="#231f20" stroke-linecap="round" stroke-linejoin="round" stroke-width="2.62"/><path d="m725.48 128.61-2.3-1.72-6.05-4.51" stroke="#231f20" stroke-linecap="round" stroke-linejoin="round" stroke-width="2.62"/><path d="m716.88 134.17c.16.25 1.561 18.75 1.561 18.75l-.12.01-2.34.15-3.03-10.07-1.391 9.42-2.54.08-.319-6.3" stroke="#231f20" stroke-linecap="round" stroke-linejoin="round" stroke-width="2.62"/><path d="m718.38 153.82c.47.59 1.23 2.24-.05 2.49-.08.02-.16.02-.23.02-1.04 0-1.6-1.47-1.319-2.31" stroke="#231f20" stroke-linecap="round" stroke-linejoin="round" stroke-width="1.965"/><path d="m709.34 153.5c-.47.58-1.229 2.23.05 2.49 1.19.24 1.851-1.39 1.551-2.3" stroke="#231f20" stroke-linecap="round" stroke-linejoin="round" stroke-width="1.965"/><path d="m695.11 114.9c-.45.1-.95.16-1.48.16-2.01 0-3.64-.81-3.64-1.81 0-.99 1.63-1.8 3.64-1.8s3.64.81 3.64 1.8c0 .38-.229.72-.619 1.01-.381.28-.911.5-1.541.64z" stroke="#231f20" stroke-linecap="round" stroke-linejoin="round" stroke-width="1.965"/><path d="m698.99 114.68c.47-.73 1.85-1.26 3.479-1.26 2.021 0 3.65.8 3.65 1.8s-1.63 1.8-3.65 1.8c-.68 0-1.319-.09-1.87-.26-1.06-.31-1.77-.88-1.77-1.54.001-.19.051-.37.161-.54z" stroke="#231f20" stroke-linecap="round" stroke-linejoin="round" stroke-width="1.965"/><path d="m700.25 122.13c.5-.12 1.06-.2 1.65-.2 2.01 0 3.64.81 3.64 1.8 0 1-1.63 1.8-3.64 1.8-.23 0-.45-.01-.67-.03-1.69-.15-2.971-.88-2.971-1.77.001-.7.811-1.31 1.991-1.6z" stroke="#231f20" stroke-linecap="round" stroke-linejoin="round" stroke-width="1.965"/><path d="m695.48 119.8c.699.33 1.14.8 1.14 1.31 0 .9-1.32 1.64-3.05 1.78-.19.02-.391.03-.59.03-2.021 0-3.65-.81-3.65-1.81 0-.99 1.63-1.8 3.65-1.8.96 0 1.85.19 2.5.49z" stroke="#231f20" stroke-linecap="round" stroke-linejoin="round" stroke-width="1.965"/><path d="m693.59 123.08 3.36 9.33" stroke="#231f20" stroke-linecap="round" stroke-linejoin="round" stroke-width="1.965"/><path d="m695.55 119.64-.4-4.58" stroke="#231f20" stroke-linecap="round" stroke-linejoin="round" stroke-width="1.965"/><path d="m700.55 116.94-.33 5.07" stroke="#231f20" stroke-linecap="round" stroke-linejoin="round" stroke-width="1.965"/><path d="m701.2 125.86-1.8 6.47" stroke="#231f20" stroke-linecap="round" stroke-linejoin="round" stroke-width="1.965"/><path d="m301.37 745.97c-.09-.04-.17-.08-.26-.12-.07 0-.14-.01-.21-.01-5.84-.29-11.13-.03-15.11 1.54-14.18-13.149-56.06-12.88-76.83-9.899-.42.06-.83.119-1.23.18-1.1.17-2.13.35-3.09.53 9.61-151.671 21.09-301.48 16.84-467.01-32.66 0-65.32 0-97.99 0 0-.51 0-1.02 0-1.53h97.99c0-10.72 0-21.44 0-32.16 8.85-6.53 18.4-14.79 29.1-12.25 5.44 1.3 6.77 8.33 12.25 12.25 9.57 6.86 21.13 8.21 29.03 12.22l.06.03c.1-.14.2-.27.3-.41 14.68-20.3 32.27-37.69 36.45-68.49 5.54-3.84 12.56-6.2 16.76-11.37.6-.74 1.14-1.54 1.61-2.41 8.58-18.23 13.14-41.25 27.27-53.62 2.23-1.96 4.69-3.65 7.46-5.01 8.83-4.37 20.66-5.39 37.24-1.09" stroke="#231f20" stroke-width="7"/><path d="m301.37 745.97c20.23 5.94 32.35 24.67 44.14 39.69 9.37-10.53 17.66-22.16 24.5-35.22 2.28-7.091-21.16-13.881-13.78-21.44 6.61-4.4 13.43 3.88 18.37 7.66 18.87 14.439 39.47 30.06 59.72 41.34-13.62-6.73-28.43-15.28-41.34-24.5-12.17-8.68-24.1-25.29-36.75-22.96-1.35 6.979 17.8 13.31 15.31 21.43-9.37 11.561-14.8 27.05-27.56 35.221-10.59-17.361-23.7-32.191-42.61-41.221z" stroke="#231f20" stroke-width="7"/><path d="m419.01 107.34c7.44 10.71-6.76 13.48-3.07 29.09 17.59 4.02 33.85 2.22 50.53-1.53 5.99 37.74 5.311 68.76-10.71 98-3.49 6.35-11.609 11.29-13.79 18.37-4.2 13.7-.54 32.85-6.12 47.47-1.77 4.62-5.09 8.48-7.84 12.29-2.14 2.97-3.95 5.9-4.41 9.15-1.87 13.03 7.93 24.85 7.66 38.28-.529 25.71-23.74 62.58-7.66 88.8 12.14 3.69 13.11 18.54 15.31 32.16-6.74 2.83-10.641 8.11-12.94 14.89-5.81 17.07-1.49 43.671-6.96 64.73-1.25 4.81-3.34 7.14-5.71 8.52-.47.271-.95.5-1.43.71-1.03.45-2.08.78-3.13 1.11-1.07.34-2.12.68-3.13 1.13-.45.2-.88.431-1.3.681-.44.27-.87.569-1.27.92-1.1.949-2.06 2.26-2.79 4.14-.02-.63.03-1.16.12-1.61.29-1.46 1.06-2.09 1.94-2.37.24-.069.48-.119.73-.159.24-.03.48-.051.72-.07 1.39-.07 2.51.06 1.85-1.53-.09-.21-.21-.45-.37-.729 0-.011-.01-.011-.01-.021-.01.021-.02.03-.03.05-.3.48-.6.94-.89 1.381-.19.29-.37.569-.55.85-4.3 6.52-7 10.09-4.66 22.22-12.7 14.86-22.08 33.04-35.22 47.471-15.38 1.31-28.23 5.149-39.01 11.05-2.41 1.319-4.71 2.739-6.92 4.26-.1.9-.24 1.79-.41 2.67-2.69 13.58-13.98 24.47-24.39 34.89-5.85 5.86-11.42 11.561-15.05 17.5-5.84 9.57-6.63 19.771 4.63 32.21 6.74-.619 12.74 0 18.17 1.53.16.04.32.08.47.13" stroke="#231f20" stroke-width="7"/><path d="m419.01 107.34c8.3-7.51 12.8-18.84 18.37-29.09h1.53c-6.38 9.95-9.19 23.47-19.9 29.09z" stroke="#231f20" stroke-width="7"/><path d="m381.77 108.43c-.87.13-1.73.27-2.57.44-1.78 1.38-3.4 2.91-4.89 4.57-13.38 14.93-16.31 40.29-28.87 56.04-3.93 4.94-8.8 8.93-15.24 11.36-5.05 30.44-20.82 50.16-37.98 68.49-.12.12-.24.25-.36.38-.49.52-.98 1.04-1.47 1.56-14.2-6.72-30.81-11.04-38.28-24.5-13.22.06-21.95 4.59-29.09 10.72 5.17 175.96-7.83 341.91-15.29 500.17-.01.18-.02.35-.03.53.41-.25.83-.49 1.26-.71 16.42-8.721 46.01.43 66.12.71-1.57-6.601-3.96-12.37-3.07-21.44 2.15-1.42 4.18-2.98 6.09-4.65 5.81-5.04 10.61-11.09 15.05-17.5 8.08-11.68 14.93-24.58 24.39-34.89 2.27-2.479 4.7-4.81 7.33-6.93 9.5-7.7 21.67-12.73 39.01-12.58 12.12-14.431 21.58-31.51 33.69-45.94-2.32-8.24-.42-15 2.8-19.62.61-.87 1.26-1.659 1.94-2.37.93-.97 1.91-1.8 2.89-2.46.02-.01.03-.02.04-.029 1.04-.7 2.07-1.221 3.05-1.55.14.51.29.89.45 1.149.78 1.37 1.72-.08 3.13-1.11.43-.31.9-.579 1.43-.71.83-.229 1.81-.119 2.95.69 14.5-19.64 3.5-51.94 9.72-73.94 1.86-6.609 5.28-12.29 11.41-16.42 2-16.8-9.87-21.6-15.31-32.159-15.39-29.831 7.75-64.161 7.661-88.8-.061-15.7-11.42-24.3-7.661-39.82 2.33-1.94 4.25-3.99 5.85-6.15 11.96-16.09 5.85-37.96 12.521-59.69 2.25-7.3 10.02-11.51 13.779-18.37 14.37-26.22 17.84-63.49 10.721-96.47-15.761 4.1-35.4 6.28-50.53 0-3.84-13.92 8.22-17.06 4.6-26.03-11.431-1.861-25.441-3.721-37.241-1.971z" stroke="#231f20" stroke-width="7"/><path d="m523.13 185.43c4.96 11.4-7.66 21.86-12.25 33.69-5.1 13.13-5.72 37.36-24.5 32.15 7.64-21.44 16.851-41.33 24.5-62.77 4.87-.24 6.73-3.48 12.25-3.07z" stroke="#231f20" stroke-width="5"/><path d="m513.94 188.5c-9.16 18.96-20.421 43.81-24.5 62.77 12.399.71 20.449-22.41 15.31-24.5 7.44-11.96 15.92-22.86 18.38-39.81-4.69-1.11-4.51 2.65-9.19 1.54z" stroke="#231f20" stroke-width="5"/><path d="m530.89 336.87c3.221 2.42 7.21 4.05 9.08 7.81-1.739 11.52-8.069 18.46-13.779 26.03-2.271-.8-3.86-2.27-6.12-3.07-14.9 2.97-7.771 27.97-16.851 36.75.42-1.04.79-2.14 1.12-3.27 3.75-12.65 2.8-30.01 14.2-35.01 2.85.21 5.11 1.01 6.12 3.06 7.17-5.07 10.68-13.82 13.78-22.96.479-6.1-7.08-4.15-7.66-9.19-8.04 9.07-14.05 20.18-21.931 29.42-.33.4-.68.8-1.029 1.2-.03.41-.07.82-.12 1.22-.98 10.31-3.62 18.96-4.48 29.41.011 1.21-.08 1.99-.21 2.44-.6 2.01-2.229-2.78-1.319-5.5.34-10.45 2.649-18.92 6.01-26.35.37-.82.76-1.62 1.149-2.42 5.681-11.44 13.73-20.51 20.4-30.95.51.5 1.06.96 1.64 1.38z" stroke="#231f20" stroke-width="5"/><path clip-rule="evenodd" d="m.25.25h850.394v850.394h-850.394z"/></g></svg>