<svg enable-background="new 0 0 850.89 850.89" height="850.89" viewBox="0 0 850.89 850.89" width="850.89" xmlns="http://www.w3.org/2000/svg"><path d="m504.19 355.83-.011-.05c10.511-2.52 60.71-13.84 68.301-2.29l.1-.06c67.75 113.629 81.63-4.56 44.71-41.21 27.55-24.55 42.63 14.93 59.2 32.24.01.02.02.04.04.05.12.15.25.29.39.4 7.68 6.59 44.33-29.45 86.311-11.46l.01-.01c18.99 18.66-24.74 149.68-41.41 152.75-17.67 7.71-84.72 8.029-95.19 24.46-21.75 73.029-14 153.729-32.25 153.729-49.391 36.221 26.449 133.451-29.261 128.861-3.8-30.061-10.18-65.51-79.59-28.07 0 0 0 .01-.01.01-3.311 1.79-6.78 3.74-10.391 5.88-3.72.12-7.08-1.51-9.439-2.93-9.021-11.189-45.88-44.229-77.29-15.96-34.65 34.65-361.16-108.92-289.16-120.92l.06-.71c16.34 4.88 76.17 9.14 69.54-.56 25.94-34.061 18.26-96.79 30.88-111.181 1.24-1.12 2.8-2.06 4.47-2.8 6.76-2.99 15.44-2.53 13.05 4.25l1.06.34c10.84-14.64 59.8-31.29 65.49-26.189 2.22 41.71 67.46 11.27 67.46 11.27 40.53-27.02 5.52-70.42 12.99-70.42l1.22-.79c4.45 9.73 29.64 17.18 60.08 17.18 27.021-10.13 12.09-60.78 27.021-60.78 38.899 16.2 28.619-28.75 51.619-35.03z" fill="#fff5b4"/><path d="m789.95 67.32h7.28v12.26 132.6c-2.391 0-4.771 0-7.16 0v-.55c1.85 0 3.859-.18 6.08-.57 0-2.78 0-5.57 0-8.35-32.99-21.79-67.99-41.5-100.75-63.52 33.88-20.67 68.1-41.01 100.75-62.96 0-2.6 0-5.2 0-7.8-2.28-.37-4.33-.54-6.2-.54z" fill="#fff"/><path d="m699.3 75.98c-.06.07-.109.14-.16.22l-.109-.18c.089-.02.179-.03.269-.04z" fill="#231f20"/><path d="m699.38 76.61c-.22.03-.42.06-.61.1 0-.01 0-.01 0-.01.12-.17.24-.34.37-.5z" fill="#fff"/><path d="m698.79 75.59.24.43c-.23.03-.45.07-.641.12.121-.18.261-.37.401-.55z" fill="#fff"/><path d="m698.96 76.27-.63-.05c.02-.03.03-.05.06-.08.19-.05.41-.09.641-.12l.109.18c-.13.16-.25.33-.37.5z"/><path d="m698.39 76.14c-.029.03-.04.05-.06.08l-.2-.02c.08-.02.17-.04.26-.06z" fill="#231f20"/><path d="m698.33 76.22.63.05-.19.43v.01h-.01c-.29.06-.55.13-.779.2.01-.03.02-.05.039-.08-.039 0-.079-.01-.109 0 .139-.21.269-.41.419-.61z" fill="#231f20"/><path d="m697.73 77.46c.029-.07.069-.14.1-.21l.13.22c-.08-.01-.16-.01-.23-.01z" fill="#231f20"/><path d="m697.98 76.91c-.061.02-.11.04-.16.05.029-.04.06-.09.09-.13.03-.01.07 0 .109 0-.019.03-.029.05-.039.08z" fill="#231f20"/><path d="m697.98 76.91c-.051.12-.101.23-.15.34l-.09-.15v-.01c.02-.04.06-.08.069-.12l.011-.01c.05-.01.1-.03.16-.05z" fill="#231f20"/><path d="m697.5 77.48c.08-.13.16-.25.24-.38l.09.15c-.03.07-.07.14-.1.21-.09 0-.16.01-.23.02z" fill="#231f20"/><path d="m697.68 77.01c.051-.02.09-.03.13-.04-.01.04-.05.08-.069.12z" fill="#231f20"/><path d="m697.68 77.01-.1-.18c.1-.01.21-.01.33 0-.03.04-.061.09-.09.13l-.011.01c-.039.01-.079.02-.129.04z" fill="#231f20"/><path d="m697.43 76.58.15.25c-.11.01-.2.02-.29.04.05-.1.09-.19.14-.29z" fill="#231f20"/><path d="m697.12 77.26c.06-.13.12-.26.17-.39.09-.02.18-.03.29-.04l.1.18c-.2.08-.39.16-.56.25z" fill="#231f20"/><path d="m696.51 77.58c-.1.06-.189.12-.29.16.23-.42.55-.75 1.07-.87-.05.13-.11.26-.17.39-.22.1-.41.22-.61.32z" fill="#231f20"/><path d="m696.22 77.74c0 .01-.01.01-.01.01s0-.01.01-.01z" fill="#231f20"/><path d="m697.34 79.69c-.45.87-.979 2.09-1.49 3.46.58-2.36 1.561-4.5 2.91-6.44h.01l-.17.38c-.39.9-.83 1.76-1.26 2.6z" fill="#231f20"/><path d="m695.39 78.32c-.029-.04-.06-.08-.1-.12v-.01c.01-.02.01-.04.02-.05.33-.1.61-.24.9-.39-.19.32-.32.68-.47 1.03-.12-.13-.23-.29-.35-.46z" fill="#231f20"/><path d="m698.13 76.2c-1.12.3-1.74.74-2.37 1.05.42-.65 1.08-1.16 2.311-1.06z" fill="#231f20"/><path d="m695.67 78.94c.03-.05.05-.1.07-.16.04.05.09.09.13.13z" fill="#fff"/><path d="m695.76 77.25c0 .01-.01.01-.01.01s0-.01.01-.01z" fill="#231f20"/><path d="m695.57 80.34c.199-.42.42-.83.63-1.24.31-.6.63-1.22.92-1.84.17-.09.36-.17.56-.25l.061.08v.01c-.08.13-.16.25-.24.38-.55.1-.75.54-1.08 1.33-.12.3-.24.61-.41.9l-.39.68z" fill="#fff"/><path d="m697.73 77.46c-.721 1.54-1.551 2.97-2.23 4.55.47-1.59 1.14-3.1 2-4.53.07-.01.14-.02.23-.02z" fill="#231f20"/><path d="m695.31 78.14c.12-.29.261-.6.44-.88 0 0 .01 0 .01-.01.63-.31 1.25-.75 2.37-1.05l.2.02c-.15.2-.28.4-.42.61-.12-.01-.23-.01-.33 0l-.15-.25c-.05.1-.09.19-.14.29-.521.12-.84.45-1.07.87-.01 0-.01.01-.01.01-.29.15-.57.29-.9.39z" fill="#231f20"/><path d="m695.45 79.4c-.12-.11-.23-.23-.33-.36l.55-.1c-.06.16-.13.31-.22.46z" fill="#231f20"/><path d="m695.26 78.15c.021 0 .04-.01.05-.01-.01.01-.01.03-.02.05-.01-.01-.02-.03-.03-.04z"/><path d="m694.63 87.29.61.02-.67.02c.02-.1.05-.2.069-.31.001.09-.009.18-.009.27z" fill="#231f20"/><path d="m695 78.88c.08-.17.16-.36.23-.55.02-.05.039-.08.06-.13.04.04.07.08.1.12.12.17.23.33.351.46-.021.06-.04.11-.07.16l-.55.1c-.041-.06-.081-.11-.121-.16z"/><path d="m694.89 79.08c.04-.07.08-.13.11-.2.04.05.08.1.12.16z" fill="#fff"/><path d="m695 78.88c-.15-.21-.29-.41-.44-.6.261-.02.49-.07.7-.13.01.01.021.03.03.04v.01c-.021.05-.04.08-.06.13-.07.19-.15.38-.23.55z" fill="#231f20"/><path d="m695.26 78.15c-.13-.18-.279-.38-.47-.55.36-.07.66-.19.96-.34-.18.28-.32.59-.44.88-.01 0-.03.01-.05.01z" fill="#231f20"/><path d="m694.64 87.02c.091-1.74.37-3.41.851-5 0 0 0-.01.01-.01.68-1.58 1.51-3.01 2.23-4.55.069 0 .149 0 .229.01l-.13-.22c.05-.11.1-.22.15-.34.229-.07.489-.14.779-.2-1.35 1.94-2.33 4.08-2.91 6.44-.459 1.23-.889 2.57-1.209 3.87z" fill="#231f20"/><path d="m694.64 87.02c.32-1.3.75-2.64 1.21-3.87-.33 1.32-.52 2.71-.58 4.16h-.029l-.61-.02c-.001-.09.009-.18.009-.27z" fill="#231f20"/><path d="m694.22 86.79c.181-1.83.67-3.36 1.271-4.77-.48 1.59-.76 3.26-.851 5-.02.11-.05.21-.069.31l-.29.01.239-.37c-.1-.06-.19-.12-.3-.18z" fill="#231f20"/><path d="m693.62 86.43c.28-2.42 1.07-4.32 1.95-6.09l.05.05.39-.68c.17-.29.29-.6.41-.9.33-.79.53-1.23 1.08-1.33-.86 1.43-1.53 2.94-2 4.53-.01 0-.01.01-.01.01-.601 1.41-1.09 2.94-1.271 4.77-.189-.13-.389-.25-.599-.36z" fill="#231f20"/><path d="m694.22 86.79c.11.06.2.12.3.18l-.239.37h-.101c.01-.19.03-.37.04-.55z"/><path d="m694.28 87.34-.11.17c0-.05 0-.11.01-.17z" fill="#fff"/><path d="m694.12 90.23-.45-2.11c.23.07.46.14.69.21-.13.67-.21 1.31-.24 1.9z" fill="#ed1e29"/><path d="m694.17 87.51c-.08-.05-.17-.11-.25-.16l.26-.01c-.01.06-.01.12-.01.17z"/><path d="m693.55 87.13c.021-.23.04-.47.07-.7.21.11.41.23.6.36-.01.18-.029.36-.04.55l-.26.01c-.12-.07-.24-.14-.37-.22z" fill="#fff"/><path d="m693.54 87.36c0-.07 0-.15.01-.23.13.08.25.15.37.22z"/><path d="m693.62 87.93c.07.04.14.08.2.12l.35-.54.11-.17.29-.01c-.08.34-.15.67-.21 1-.23-.07-.46-.14-.69-.21z" fill="#fff"/><path d="m694.79 77.6c-.3-.29-.68-.53-1.23-.61l.011-.02c1.109.16 1.609-.12 2.319-.51.73-.4 1.63-.91 3.33-1.12l1.511-.19-.921 1.22c-2.43 3.18-3.739 6.87-3.899 10.97l-.641-.03c.061-1.45.25-2.84.58-4.16.511-1.37 1.04-2.59 1.49-3.46.43-.84.87-1.7 1.26-2.6l.17-.38c.19-.04.391-.07.61-.1l-.24-.41c.051-.08.101-.15.16-.22-.09.01-.18.02-.27.04l-.24-.43c-.14.18-.28.37-.4.55-.09.02-.18.04-.26.06l-.06-.01c-1.23-.1-1.891.41-2.311 1.06-.01 0-.01.01-.01.01-.299.15-.599.27-.959.34z" fill="#231f20"/><path d="m693.62 87.93-.09-.45c0-.04 0-.08.01-.12l.38-.01c.08.05.17.11.25.16l-.35.54c-.06-.04-.13-.08-.2-.12z" fill="#231f20"/><path d="m693.56 78.3c-.01-.02-.02-.04-.029-.05.39.05.729.05 1.029.03.15.19.29.39.44.6-.03.07-.07.13-.11.2l.23-.04c.1.13.21.25.33.36.09-.15.16-.3.22-.46l.2-.03c-.04-.04-.09-.08-.13-.13.149-.35.279-.71.47-1.03 0 0 .01 0 .01-.01.101-.04.19-.1.29-.16.2-.1.391-.22.61-.32-.29.62-.61 1.24-.92 1.84-.21.41-.431.82-.63 1.24l-.54-.46c-.29-.25-.5-.55-.69-.81-.26-.38-.45-.65-.78-.77z" fill="#231f20"/><path d="m693.62 87.93c-.29-.19-.601-.37-.92-.54l.84-.03c-.01.04-.01.08-.01.12z" fill="#231f20"/><path d="m693.53 78.25c-.101-.21-.221-.42-.36-.65.68.01 1.07.3 1.39.68-.3.02-.64.02-1.03-.03z" fill="#231f20"/><path d="m693.17 77.6c-.01-.02-.02-.04-.04-.06.71.14 1.23.14 1.66.06.19.17.34.37.47.55-.21.06-.439.11-.7.13-.32-.38-.71-.67-1.39-.68z" fill="#231f20"/><path d="m692.99 77.33c.05.07.1.14.14.21-.07-.02-.13-.03-.21-.04z" fill="#231f20"/><path d="m692.92 77.5c.08.01.14.02.21.04.021.02.03.04.04.06-.09 0-.189.01-.29.02z" fill="#231f20"/><path d="m692.82 78.27c-.03-.05-.061-.11-.101-.16.3.06.57.11.811.14.01.01.02.03.029.05-.189-.06-.429-.08-.739-.03z" fill="#fff"/><path d="m692.7 78.06.18-.44c.101-.01.2-.02.29-.02.14.23.26.44.36.65-.24-.03-.511-.08-.811-.14.001-.02-.009-.03-.019-.05z" fill="#231f20"/><path d="m692.68 78.1.021-.04c.01.02.02.03.02.05-.011-.01-.021-.01-.041-.01z" fill="#231f20"/><path d="m693.67 88.12c-.88-.25-1.78-.48-2.71-.67l1.74-.06c.319.17.63.35.92.54z" fill="#fff"/><path d="m692.6 78.31.08-.21c.021 0 .03 0 .04.01.04.05.07.11.101.16-.071.01-.141.03-.221.04z"/><path d="m692.7 78.06c-.061-.1-.12-.2-.2-.31.01-.03.02-.05.04-.08.12-.02.229-.04.34-.05z" fill="#231f20"/><path d="m692.5 77.75c.08.11.14.21.2.31l-.021.04c-.069-.02-.14-.04-.21-.06-.019-.1.001-.2.031-.29z" fill="#231f20"/><path d="m693.35 80.15c-.109-.43-.319-.82-.489-1.15-.23-.43-.37-.72-.391-.96.07.02.141.04.21.06l-.08.21c.08-.01.15-.03.221-.04.389.72.549 1.35.529 1.88z" fill="#231f20"/><path d="m692.5 77.75c-.01-.02-.02-.04-.04-.06.03-.01.05-.01.08-.02-.02.03-.03.05-.04.08z" fill="#231f20"/><path d="m692.47 78.04c-.2-.05-.399-.1-.62-.17l.71-.25c-.01.02-.02.03-.02.05-.03.01-.05.01-.08.02.021.02.03.04.04.06-.03.09-.05.19-.03.29z" fill="#231f20"/><path d="m692.26 82.6.181-.14c.97-.8 1.079-1.6.909-2.31.021-.53-.14-1.16-.529-1.88.31-.05.55-.03.739.03.99 2.1.051 3.32-.449 3.79-.25.22-.53.41-.841.54z" fill="#231f20"/><path d="m692.7 80.2c-.23-.77-.9-1.53-.87-2.3l.1.15c.57.82.83 1.55.77 2.15z" fill="#231f20"/><path d="m691.4 77.27.92-.21c.489-.11.899-.12 1.239-.07.551.08.931.32 1.23.61-.43.08-.95.08-1.66-.06-.04-.07-.09-.14-.14-.21l-.07.17c-.27-.06-.56-.14-.88-.24-.14.21-.21.41-.21.62z" fill="#231f20"/><path d="m691.96 81.35-.33.11c.061-.05.11-.09.16-.14h.229s-.01.01-.02.01c-.009.01-.029.02-.039.02z" fill="#fff"/><path d="m691.79 81.32c.54-.51.38-.87-.06-1.72-.381-.71-.891-1.67-.23-2.69l.26-.41.46.15c.54.16.98.26 1.351.32l-.011.02c-.34-.05-.75-.04-1.239.07l-.92.21.43.61v.01.01c-.03.77.64 1.53.87 2.3v.01c-.03.37-.19.69-.46.94-.07.06-.141.12-.221.17z" fill="#231f20"/><path d="m689.19 87.11c.6.1 1.189.22 1.77.34l-1.85.06z"/><path d="m690.27 81.44-.359-.12h.22c.039.04.089.08.139.12z" fill="#fff"/><path d="m690.07 77.64c-.04-.06-.07-.11-.12-.17h.22z" fill="#231f20"/><path d="m689.65 78.35.42-.7c.43.75.189 1.61.02 2.2-.22.8-.28 1.16.04 1.47h-.22l.359.12c-.05-.04-.1-.08-.14-.12h1.66c-.05.05-.1.09-.16.14l.33-.11c-.75.47-1.9.46-2.54-.06-.04-.03-.07-.06-.09-.09-.269-.9.481-1.97.321-2.85z" fill="#231f20"/><path d="m689.9 81.96c-.32-.23-.5-.49-.57-.76.02.03.05.06.09.09.64.52 1.79.53 2.54.06.01 0 .03-.01.04-.02.01 0 .02-.01.02-.01.08-.05.15-.11.221-.17.27-.25.43-.57.46-.94.16.56.08 1.14-.66 1.75-.721 0-1.431 0-2.141 0z" fill="#231f20"/><path d="m689.65 78.35c.159.88-.591 1.95-.32 2.85-.76-.74-.17-2.04.27-2.76z" fill="#231f20"/><path d="m689.03 78.73.01.02h-.01s0-.01 0-.02z" fill="#231f20"/><path d="m689.04 77.47h.91c.05.06.08.11.12.17v.01l-.42.7c-.051-.32-.23-.62-.631-.88z" fill="#231f20"/><path d="m688.96 78.27c-.04-.06-.09-.11-.14-.16h.22c-.03.06-.06.11-.08.16z" fill="#231f20"/><path d="m689.03 78.73-.17-.3c.029-.05.06-.1.1-.16.07.13.09.27.07.46z" fill="#231f20"/><path d="m688.78 81.57c1.239 1.39 4.479.85 4.569-1.42.17.71.061 1.51-.909 2.31l-.181.14h-.22-2.14-.21l-.171-.12c-.388-.28-.618-.59-.738-.91z" fill="#231f20"/><path d="m688.7 78.75c.05-.1.1-.21.16-.32l.17.3v.02z"/><path d="m688.86 78.43-.181-.32h.141c.05.05.1.1.14.16-.04.06-.07.11-.1.16z" fill="#231f20"/><path d="m688.6 77.97c.091.04.16.09.221.14-.051 0-.09 0-.141 0z" fill="#231f20"/><path d="m688.59 77.96s.01 0 .01.01z" fill="#231f20"/><path d="m688.56 77.91-.02-.03.13.02c-.03 0-.07.01-.11.01z" fill="#231f20"/><path d="m688.56 77.91.03.05c-.03-.02-.05-.03-.08-.04.02-.01.04-.01.05-.01z" fill="#231f20"/><path d="m688.44 77.88c0-.01.01-.01.01-.02l.09.02.02.03c-.01 0-.029 0-.05.01-.02-.01-.05-.03-.07-.04z"/><path d="m688.31 78.11c.03-.06.061-.12.101-.18.03-.01.07-.01.1-.01.03.01.05.02.08.04l.01.01.08.14c-.121 0-.251 0-.371 0z"/><path d="m688.45 77.86c.01-.02.03-.05.04-.07l.05.09z" fill="#231f20"/><path d="m688.44 77.88c.02.01.05.03.069.04-.029 0-.069 0-.1.01.011-.02.021-.03.031-.05z" fill="#231f20"/><path d="m688.44 77.88c-.03-.01-.051-.02-.08-.03l.09.01c0 .01-.01.01-.01.02z" fill="#231f20"/><path d="m688.76 81.53c-.27-.31-.43-.71-.43-1.22 0-.01 0-.02 0-.03.04-.18.07-.4.07-.63.05-.28.149-.57.3-.9h.33c-.021.2-.09.45-.17.76-.16.56-.37 1.31-.1 2.02z" fill="#231f20"/><path d="m688.33 80.28c-.01-.19.01-.4.07-.63 0 .23-.03.45-.07.63z"/><path d="m688.61 82.29c-.221-.19-.54-.51-.73-1v-.01c.17-.24.351-.56.45-.97 0 .51.16.91.43 1.22v.01c0 .01.01.02.021.03.12.32.35.63.739.91l.171.12h.21 2.14.22l.01.03c-1.171.54-2.701.44-3.661-.34z" fill="#231f20"/><path d="m688.4 79.65c-.011-.27-.04-.57-.131-.9h.431c-.15.33-.25.62-.3.9z" fill="#231f20"/><path d="m688.01 78.75c.04-.11.09-.22.141-.34.05.12.09.23.119.34h-.079z" fill="#231f20"/><path d="m687.64 77.47c.261-.11.58-.18.98-.21.149.07.29.14.399.21h-.829z" fill="#231f20"/><path d="m688.27 78.75c-.029-.11-.069-.22-.119-.34v-.01c.05-.09.1-.18.159-.29h.37l.181.32c-.061.11-.11.22-.16.32z" fill="#fff"/><path d="m688.15 78.4c-.03-.09-.07-.19-.11-.29h.15.119c-.059.11-.109.2-.159.29z" fill="#231f20"/><path d="m687.78 78.11c.06-.03.14-.06.22-.08.01.02.03.06.04.08-.09 0-.17 0-.26 0z"/><path d="m688.41 77.93c-.04.06-.07.12-.101.18-.04 0-.079 0-.119 0-.051 0-.101 0-.15 0-.01-.02-.03-.06-.04-.08.12-.05.25-.08.41-.1z" fill="#231f20"/><path d="m687.88 81.28c-.13-.28-.2-.61-.2-1.01 0-.01 0-.01 0-.02s0-.01 0-.02c.061-.19.08-.41.07-.64.05-.25.14-.53.26-.84h.181.079c.091.33.12.63.131.9-.061.23-.08.44-.07.63v.03c-.101.41-.281.73-.451.97z" fill="#fff"/><path d="m687.73 78.11.18-.28c.03.06.06.13.09.2-.08.02-.16.05-.22.08h-.011c-.009 0-.019 0-.039 0z" fill="#231f20"/><path d="m687.71 78.16.021-.05h.039c-.03.02-.04.03-.06.05z" fill="#231f20"/><path d="m687.5 78.48.21-.32c.021-.02.03-.03.06-.05h.011.26c.04.1.08.2.11.29v.01c-.051.12-.101.23-.141.34h-.41c-.029-.08-.06-.16-.1-.26z" fill="#fff"/><path d="m687.75 79.59c-.01-.25-.05-.54-.15-.84h.41c-.12.31-.21.59-.26.84z" fill="#231f20"/><path d="m687.75 79.59c.01.23-.01.45-.07.64 0-.19.03-.41.07-.64z"/><path d="m687.63 81.58.01.08-.12.02c.021-.02.03-.03.051-.04.019-.02.039-.04.059-.06z" fill="#231f20"/><path d="m687.63 81.58-.09-.58-.03-.2c0-.03-.01-.06-.02-.09v-.01c.09-.13.149-.27.189-.43 0 .4.07.73.2 1.01v.01c-.089.12-.169.21-.249.29z" fill="#231f20"/><path d="m687.46 78.39c.01-.02.03-.04.05-.06.05-.07.11-.13.2-.17l-.21.32c-.01-.03-.02-.05-.04-.08z" fill="#231f20"/><path d="m687.46 78.39c-.03-.09-.08-.18-.13-.28h.4l-.021.05c-.09.04-.15.1-.2.17-.019.02-.039.04-.049.06z" fill="#231f20"/><path d="m682.14 68.61-.159-.11v-1.18h107.97v.57c-9.4 0-14.22 4.28-20.74 8.34-28.07 17.47-55.69 33.97-82.59 50.95l-2.15-3.4c4.08-2.53 6.561-6.72 8.07-11.9.479-1.65.86-3.4 1.16-5.24.92-5.51 1.12-11.74 1.149-18.15-.159-.06-.319-.11-.489-.16.06-.33.13-.66.21-1l.67-.02h.029l.641.03c.16-4.1 1.47-7.79 3.899-10.97l.921-1.22-1.511.19c-1.7.21-2.6.72-3.33 1.12-.71.39-1.21.67-2.319.51-.37-.06-.811-.16-1.351-.32l-.46-.15-.26.41c-.66 1.02-.15 1.98.23 2.69.439.85.6 1.21.06 1.72h-1.66c-.32-.31-.26-.67-.04-1.47.17-.59.41-1.45-.02-2.2v-.01l.1-.17h-.22c-.21-.3-.561-.57-1.08-.8l-.15-.06-.16.01c-.579.05-1.06.18-1.439.39v-.19c-.021-1.07-.33-1.89-.94-2.44-.489-.45-1.149-.7-1.979-.75.138-2.3-.552-3.98-2.062-5.02z" fill="#fff"/><path d="m687.13 77.47-.01-.46c.38-.21.86-.34 1.439-.39l.16-.01.15.06c.52.23.87.5 1.08.8h-.91-.021c-.109-.07-.25-.14-.399-.21-.4.03-.72.1-.98.21h-.01-.3z" fill="#231f20"/><path d="m687.5 78.49-.14.22c.02-.12.05-.22.1-.31.021.03.03.05.04.08z" fill="#231f20"/><path d="m687.36 78.71-.011.02c.001-.01.001-.02.011-.02z" fill="#231f20"/><path d="m687.36 78.71.14-.22c.04.1.07.18.1.26h-.26s0 0 .01-.01v-.01z"/><path d="m687.49 80.7c-.12-.78-.23-1.47-.15-1.95h.26c.101.3.141.59.15.84-.04.23-.07.45-.07.64v.02s0 .01 0 .02c-.04.16-.1.3-.19.43z" fill="#231f20"/><path d="m687.14 77.58-.6-.09c0-.01.01-.01.01-.02h.58z" fill="#231f20"/><path d="m686.55 77.47c.16-.18.351-.34.57-.46l.01.46z" fill="#fff"/><path d="m686.81 80.5c0-.01 0-.02-.01-.03h.04z"/><path d="m686.8 80.47c-.12-.82-.2-1.52-.04-2.06.32.65.58 1.52.061 2.16 0-.03-.011-.04-.011-.06v-.01l.03-.03c-.01 0-.02 0-.04 0z" fill="#231f20"/><path d="m686.76 78.4-.359-.72c.029-.05.06-.1.09-.14.02-.02.029-.04.05-.05l.6.09-.01-.11h.2.3c-.481.2-.741.52-.871.93z" fill="#231f20"/><path d="m686.61 80.77.199-.26c0 .02.011.03.011.06-.03.04-.08.09-.13.13-.02.03-.05.05-.08.07z" fill="#231f20"/><path d="m686.61 80.77c0 .01 0 .01-.011.01z" fill="#231f20"/><path d="m686.6 80.78-.01.01z" fill="#231f20"/><path d="m686.57 80.81.01-.01z" fill="#231f20"/><path d="m686.45 77.47h.1c0 .01-.01.01-.01.02z" fill="#231f20"/><path d="m686.44 76.32c-.011-.05-.011-.1-.021-.15.05.01.1.02.16.03z" fill="#fff"/><path d="m685.92 76.78.521-.46c.02.16.029.33.04.51-.201-.03-.381-.05-.561-.05z" fill="#231f20"/><path d="m686.4 77.68-.101-.21h.12.01.021l.09.02c-.021.01-.03.03-.05.05-.03.04-.06.09-.09.14z" fill="#231f20"/><path d="m686.31 81.16.261-.35.01-.01.01-.01.01-.01c.011 0 .011 0 .011-.01.029-.02.06-.04.08-.07.05-.04.1-.09.13-.13.029.17.06.35.09.53-.202.03-.402.05-.602.06z" fill="#231f20"/><path d="m691.62 91.27c-.93-2.4-4.2-.58-5.38-1.67 1.33.09 2.229-.28 2.689-1.11l.181-.98 1.85-.06c.93.19 1.83.42 2.71.67l.45 2.11c.03-.59.11-1.23.24-1.9.17.05.33.1.489.16-.029 6.41-.229 12.64-1.149 18.15l-1.13-.19c.21-.98-.46-2.32.13-2.92-1.26-1.11-3.04 1.04-4.311-.56 1.7-.1 3.21-.39 3.23-2.23-1.061-.94-3.33-.64-4.311-1.67.931.03 1.391-.42 1.62-1.11-.47.14-.96.26-1.46.37l-.16-1.48c.62-1.76-.84-1.36-1.069-2.23h4.84c.28 1.75-1.271 2.28.54 2.78.12-.67.6-.34 1.08 0 .609-1.75.05-1.26 0-3.34-.96-.68-3.13-.1-3.771-1.11 1.542.1 2.942.06 2.692-1.68z" fill="#ed1e29"/><path d="m686.01 76.14c.07-.09.13-.19.19-.3l.08-.17c.06.16.109.33.14.5-.14-.01-.28-.03-.41-.03z" fill="#231f20"/><path d="m686.27 81.16h.04l-.029.04z" fill="#231f20"/><path d="m686.27 81.16-.03-.16c.12-.06.229-.12.33-.19l-.261.35c-.019 0-.029 0-.039 0z" fill="#231f20"/><path d="m686.81 80.51-.199.26-.011.01-.01.01-.01.01-.01.01c-.101.07-.21.13-.33.19-.021-.16-.05-.32-.07-.48.2-.01.41-.03.63-.05.01.01.01.02.01.03z" fill="#fff"/><path d="m686.17 80.52c-.18-1.12-.26-2.1.23-2.84l.359.72v.01c-.16.54-.08 1.24.04 2.06-.219.02-.429.04-.629.05z" fill="#231f20"/><path d="m685.81 76.38c.07-.07.141-.15.2-.24.13 0 .271.02.41.03.01.05.01.1.021.15l-.521.46c-.03-.01-.05-.01-.08-.01-.01-.14-.02-.27-.03-.39z"/><path d="m685.92 76.78-.08.06c0-.02 0-.04 0-.07.03 0 .05 0 .08.01z" fill="#fff"/><path d="m686.98 81.74c-.48.06-.921.08-1.311.08.76-.1 1.47-.47 1.82-1.11.01.03.02.06.02.09l.03.2.09.58c-.02.02-.04.04-.06.06-.021.01-.03.02-.051.04z" fill="#231f20"/><path d="m685.84 76.77c-.2-.01-.39 0-.56.03.18-.12.37-.26.529-.42.011.12.021.25.031.39z" fill="#231f20"/><path d="m685.81 76.38c-.02-.09-.04-.17-.06-.25.09 0 .17 0 .26.01-.06.09-.13.17-.2.24z" fill="#231f20"/><path d="m685.65 81.18c.21-.03.409-.09.59-.18l.029.16c-.219.01-.429.02-.619.02z" fill="#231f20"/><path d="m685.05 76.18c.21-.14.391-.31.521-.53.08.14.14.3.18.48-.241-.01-.481.01-.701.05z" fill="#231f20"/><path d="m684.81 75.55c.11-.08.19-.18.24-.29l-.01.54c-.05-.11-.13-.2-.23-.25z" fill="#fff"/><path d="m683.71 79.4c.29-1.67 1.021-2.19 2.67-1.94l.04.01h-.12l.101.21c-.49.74-.41 1.72-.23 2.84-1 .06-1.689-.07-2.07-.37-.21-.17-.33-.4-.39-.72 0-.01 0-.01 0-.02v-.01z" fill="#fff"/><path d="m684.15 74.18c.75-.02 1.64.13 2.06 1.11l.12.28-.05.1c-.311-.86-1.021-1.34-2.141-1.4.001-.03.011-.06.011-.09z" fill="#231f20"/><path d="m684.13 74.27v.08l-.09-.09c.03 0 .07 0 .09.01z" fill="#231f20"/><path d="m684.08 80.88c.41.2.93.29 1.53.3-.511.07-1.07-.02-1.521-.28.001-.01-.009-.01-.009-.02z" fill="#231f20"/><path d="m684.04 74.26-.07-.08h.181c0 .03-.011.06-.011.09h-.01c-.02-.01-.06-.01-.09-.01z" fill="#231f20"/><path d="m683.87 81.5c.479.21 1.07.31 1.8.32-.61.08-1.26-.03-1.8-.32z" fill="#231f20"/><path d="m683.97 74.18-.37-.39c.021-.06.03-.11.04-.17.19-.01.38-.01.561.01-.01.18-.03.36-.05.55-.061 0-.131 0-.181 0z" fill="#fff"/><path d="m683.77 77.56c.341-.41.83-.69 1.511-.76-.271.16-.55.29-.811.41-.28.13-.51.23-.7.35z" fill="#231f20"/><path d="m683.49 74.27c0-.02 0-.03 0-.05.149-.01.3-.03.479-.04l.07.08c-.169-.01-.359 0-.549.01z" fill="#231f20"/><path d="m686.77 99.63c-.789 1.01-4.689 3.28-4.85 0z" fill="#ed1e29"/><path d="m683.7 79.37c.01.01.01.02.01.03v.01.02c0 .01-.01.03-.01.04z" fill="#fff"/><path d="m686.77 109.66c-.789 1.01-4.689 3.29-4.85 0z" fill="#ed1e29"/><path d="m683.51 74.07c.01-.11.03-.23.03-.34l.06.06c-.03.1-.06.19-.09.28z" fill="#231f20"/><path d="m683.6 73.79-.06-.06c.01-.04.01-.07.01-.1.03-.01.061-.01.09-.01-.01.06-.02.11-.04.17z" fill="#231f20"/><path d="m683.45 73.63h.1c0 .03 0 .06-.01.1z" fill="#231f20"/><path d="m683.51 74.07c.03-.09.061-.18.09-.28l.37.39c-.18.01-.33.03-.479.04.01-.05.01-.09.02-.14v-.01z" fill="#231f20"/><path d="m683.51 74.08c-.01.05-.01.09-.02.14-.01 0-.021.01-.03.01s-.01 0-.02 0c.03-.05.05-.1.07-.15z" fill="#231f20"/><path d="m685.05 76.18c-.5.34-1.16.53-1.67.87.43-.47.98-.76 1.67-.87z" fill="#231f20"/><path d="m683.16 78.91c.01-.2.05-.42.1-.65.061-.32.23-.52.51-.7-.3.36-.49.82-.61 1.35z" fill="#231f20"/><path d="m684.07 80.88c-.66-.39-.971-1.07-.91-1.96 0 0 0 0 0-.01.12-.53.31-.99.609-1.35.19-.12.421-.22.7-.35.261-.12.54-.25.811-.41.17-.03.359-.04.56-.03v.07l.08-.06c.18 0 .36.02.561.05-.011-.18-.021-.35-.04-.51l.14-.12c-.061-.01-.11-.02-.16-.03-.03-.17-.08-.34-.14-.5l.05-.1-.12-.28c-.42-.98-1.31-1.13-2.06-1.11.02-.19.04-.37.05-.55.83.05 1.49.3 1.979.75.61.55.92 1.37.94 2.44v.19c-.22.12-.41.28-.57.46h-.1-.021-.01l-.04-.01c-1.649-.25-2.38.27-2.67 1.94 0-.01 0-.02-.01-.03v.1c0-.01.01-.03.01-.04.06.32.18.55.39.72.381.3 1.07.43 2.07.37.021.16.05.32.07.48-.181.09-.38.15-.59.18-.011 0-.011 0-.021 0s-.02 0-.02 0c-.601-.01-1.12-.1-1.53-.3-.008 0-.008 0-.008 0z" fill="#231f20"/><path d="m684.07 80.88c-.561-.27-.92-.74-1.011-1.48.03-.17.061-.33.101-.48-.06.89.25 1.57.91 1.96z" fill="#231f20"/><path d="m682.98 74.91c.189-.18.35-.42.46-.68h.02s.021-.01.03-.01v.05c.189-.01.38-.02.55-.01l.09.09c0-.03 0-.05 0-.08h.01c1.12.06 1.83.54 2.141 1.4l-.08.17c-.061.11-.12.21-.19.3-.09-.01-.17-.01-.26-.01-.04-.18-.1-.34-.18-.48.02-.03.04-.06.06-.1-.471-1.08-1.761-.67-2.651-.64z" fill="#231f20"/><path d="m682.98 74.91c.89-.03 2.18-.44 2.649.64-.02.04-.04.07-.06.1-.07-.13-.15-.23-.25-.32-.36-.33-.96-.48-1.79-.42l-.58.04c.011-.01.021-.03.031-.04z" fill="#231f20"/><path d="m683.7 81.41c-.75-.47-1.28-1.32-1.17-2.58.17-.74.45-1.33.84-1.77l.01-.01c.51-.34 1.17-.53 1.67-.87.22-.04.46-.06.7-.05.02.08.04.16.06.25-.159.16-.35.3-.529.42-.681.07-1.17.35-1.511.76-.279.18-.449.38-.51.7-.05.23-.09.45-.1.65v.01c-.04.15-.07.31-.101.48.091.74.45 1.21 1.011 1.48h.01c0 .01.01.01.01.02.45.26 1.01.35 1.521.28h.02s.01 0 .021 0c.189 0 .399-.01.619-.02l.011.04.029-.04c.2-.01.4-.03.601-.06-.03-.18-.061-.36-.09-.53.52-.64.26-1.51-.061-2.16 0-.01 0-.01 0-.01.13-.41.391-.73.87-.93h.01.551.829c.4.26.58.56.631.88l-.051.09c-.439.72-1.029 2.02-.27 2.76.07.27.25.53.57.76h2.14c.74-.61.82-1.19.66-1.75v-.01c.06-.6-.2-1.33-.771-2.15l-.1-.15v-.01-.01c0-.21.07-.41.21-.62.32.1.61.18.88.24l-.04.12c-.11.01-.22.03-.34.05 0-.02.01-.03.02-.05l-.71.25c.221.07.42.12.62.17.021.24.16.53.391.96.17.33.38.72.489 1.15-.09 2.27-3.33 2.81-4.569 1.42-.011-.01-.021-.02-.021-.03s0-.01 0-.01c-.27-.71-.06-1.46.101-2.02.08-.31.149-.56.17-.76h.01l-.01-.02c.02-.19 0-.33-.07-.46.021-.05.05-.1.08-.16-.07 0-.15 0-.22 0-.061-.05-.13-.1-.221-.14 0-.01-.01-.01-.01-.01l-.03-.05c.04 0 .08-.01.11-.01l-.13-.02-.05-.09c-.01.02-.03.05-.04.07l-.09-.01c.029.01.05.02.08.03-.011.02-.021.03-.03.05-.16.02-.29.05-.41.1-.03-.07-.06-.14-.09-.2l-.18.28c-.131 0-.261 0-.4 0 .05.1.1.19.13.28v.01c-.05.09-.08.19-.1.31-.011 0-.011.01-.011.02v.01c-.01.01-.01.01-.01.01-.08.48.03 1.17.15 1.95v.01c-.351.64-1.061 1.01-1.82 1.11-.729-.01-1.32-.11-1.8-.32-.01-.01-.03-.01-.04-.02-.03-.01-.05-.02-.07-.03-.019-.02-.039-.03-.059-.04z" fill="#231f20"/><path d="m682.76 74.91.08-.63c.17 0 .41-.03.601-.05-.11.26-.271.5-.46.68-.071.01-.151.01-.221 0z" fill="#231f20"/><path d="m682.76 74.96v-.05c.07.01.15.01.221 0-.011.01-.021.03-.03.04z" fill="#231f20"/><path d="m682.69 74.26.199-.37c-.01.09-.02.19-.029.3l-.021.09c-.059 0-.119-.01-.149-.02z" fill="#231f20"/><path d="m682.67 74.26h.021v.01h-.011c-.01 0-.01-.01-.01-.01z" fill="#fff"/><path d="m682.76 74.91c-.06 0-.12-.01-.18-.02l.12-.61c-.01 0-.01 0-.01-.01v-.01c.029.01.09.02.149.02z"/><path d="m685.7 90.72c-.54 1-3.84.96-3.86-.63.2-.22.44-.4.7-.55h.13c1.39 0 2.03.77 3.03 1.18z" fill="#ed1e29"/><path d="m682.58 74.89c-.15-.03-.28-.08-.37-.19.19-.11.35-.25.47-.43h.011c0 .01 0 .01.01.01z" fill="#231f20"/><path d="m682.51 75.26.07-.37c.06.01.12.02.18.02v.05l.19-.01c-.13.12-.28.23-.44.31z" fill="#fff"/><path d="m682.53 78.83c.01-.23.05-.47.109-.72.101-.5.37-.81.73-1.05-.389.44-.669 1.03-.839 1.77z" fill="#231f20"/><path d="m682.43 79.47-.01-.09.01-.08c.021-.17.061-.32.101-.47-.11 1.26.42 2.11 1.17 2.58-.15-.07-.28-.16-.4-.26-.501-.4-.791-.97-.871-1.68z" fill="#231f20"/><path d="m683.55 73.63c.141-2.07-.439-3.42-1.5-4.29.08 0 .16.01.24.02l.229.03.16.17c.75.8 1.21 2.58.99 3.89-.01.06-.02.12-.03.17-.029 0-.059 0-.089.01z" fill="#231f20"/><path d="m681.84 90.09c0-.15.021-.31.08-.49.22-.03.43-.05.62-.06-.26.15-.5.33-.7.55z" fill="#fff"/><path d="m681.88 70.61c-.05-.06-.09-.13-.14-.18l.38.2c-.08-.01-.16-.02-.24-.02z" fill="#fff"/><path d="m681.8 69.98c.12-.01.26 0 .41.02.67.7 1.16 2.68.68 3.89.18-1.79-.18-3.08-1.09-3.91z" fill="#231f20"/><path d="m682.05 69.34c-.34-.02-.649.01-.93.1.07-.1.149-.2.24-.3h.42c.09.06.18.13.27.2z" fill="#231f20"/><path d="m681.78 69.78h-.12c.01-.01.01-.02.03-.03z" fill="#231f20"/><path d="m681.53 69.7.31-.14c-.05.06-.109.13-.149.19z" fill="#231f20"/><path d="m681.49 70.01c.04-.07.09-.13.14-.18.061.04.12.09.17.15-.11 0-.21.01-.31.03z" fill="#231f20"/><path d="m681.63 69.83c-.02-.02-.04-.03-.06-.05h.09c-.01.01-.02.03-.03.05z" fill="#231f20"/><path d="m681.48 69.72h.01c.029.02.06.04.08.06h-.21z" fill="#231f20"/><path d="m681.53 69.7.16.05c-.021.01-.021.02-.03.03h-.09c-.021-.02-.051-.04-.08-.06z" fill="#231f20"/><path d="m681.53 69.7-.04.02h-.01c-.021-.02-.04-.03-.061-.05z" fill="#231f20"/><path d="m681.24 74.48c-.471-.74-.771-2.4-.3-3.32.199-.38.489-.55.939-.55.37.57.67 1.75.53 2.63-.061.32-.18.72-.5.89z" fill="#fff"/><path d="m681.38 74.71-.16-.19-.02-.02.04-.02c.05.08.1.15.149.21z" fill="#fff"/><path d="m680.81 75.08.04-.05c.021.03.04.06.061.08-.031 0-.061-.02-.101-.03z" fill="#231f20"/><path d="m680.42 74.26c.28.08.54.18.78.28l-.351.49c-.169-.2-.309-.47-.429-.77z" fill="#fff"/><path d="m680.3 79.93s-.01.01-.01.02c.01-.01.01-.02.01-.02z" fill="#231f20"/><path d="m680.36 80c-.03.1-.061.2-.091.29-.01-.1 0-.21.011-.28z" fill="#231f20"/><path d="m680.28 80.01-.11.02c.04-.01.1-.05.12-.08 0 .02-.01.04-.01.06z" fill="#231f20"/><path d="m680.42 74.26c-.2-.49-.33-1.09-.35-1.68.439-.93.88-1.82 1.42-2.57.1-.02.2-.03.31-.03.91.83 1.271 2.12 1.09 3.91l-.199.37c-.011 0-.011 0-.021 0 0 0 0 .01.01.01-.12.18-.279.32-.47.43.09.11.22.16.37.19l-.07.37c.16-.08.311-.19.44-.31l.58-.04c.83-.06 1.43.09 1.79.42.1.09.18.19.25.32-.13.22-.311.39-.521.53-.689.11-1.24.4-1.67.87l-.01.01c-.36.24-.63.55-.73 1.05-.06.25-.1.49-.109.72-.04.15-.08.3-.101.47l-.01.08.01.09c.08.71.37 1.28.87 1.68.12.1.25.19.4.26.02.01.04.02.06.04.021.01.04.02.07.03.01.01.03.01.04.02.54.29 1.189.4 1.8.32.39 0 .83-.02 1.311-.08l.539-.06c-1.039.93-2.77 1.07-4.069.33-1.34-.78-1.86-2.25-1.44-4.02.221-1.17 1.17-1.6 1.92-1.95.351-.16.67-.3.88-.49.101.05.181.14.23.25l.01-.54c-.05.11-.13.21-.24.29-.21-.12-.569-.12-1.21-.05-.659.07-1.42.16-1.88-.39l-.34-.4.01-.02c-.05-.06-.1-.13-.149-.21l.67-.35c.32-.17.439-.57.5-.89.14-.88-.16-2.06-.53-2.63.08 0 .16.01.24.02l-.38-.2c.05.05.09.12.14.18-.45 0-.74.17-.939.55-.471.92-.171 2.58.3 3.32l-.04.02.02.02-.02.02c-.242-.1-.502-.2-.782-.28z" fill="#231f20"/><path d="m680.07 72.58c-.061-1.19.31-2.36 1.42-2.57-.54.75-.98 1.64-1.42 2.57z" fill="#231f20"/><path d="m680.46 75.55c-.18-.2-.35-.44-.5-.74.29.05.58.15.85.27z" fill="#fff"/><path d="m679.96 74.81c-.1-.21-.19-.44-.27-.69.25.02.489.07.729.14.12.3.26.57.43.77l-.04.05c-.269-.12-.559-.22-.849-.27z"/><path d="m680.36 80c.22-.94.02-2.04-.53-2.85.54.49.91 1.19.88 2.26l-.01.54z" fill="#231f20"/><path d="m679.69 74.12c-.051-.16-.091-.33-.131-.51.171-.33.33-.67.5-1.01 0 0 .011-.01.011-.02.02.59.149 1.19.35 1.68-.24-.07-.48-.12-.73-.14z" fill="#231f20"/><path d="m679.79 78.97c0-.05 0-.11-.01-.16.06-.02.13-.04.2-.05z" fill="#231f20"/><path d="m680.11 81.11c-.221.24-.5.4-.82.49.479-.31.8-.78.979-1.31 0 .12.011.26.011.35l.02.28z" fill="#231f20"/><path d="m679.56 73.61c-.079-.38-.13-.77-.14-1.16.51-1.06 1.01-2.11 1.69-3 .01 0 .01-.01.01-.01.28-.09.59-.12.93-.1 1.061.87 1.641 2.22 1.5 4.29-.03 0-.069 0-.1 0l.09.1c0 .11-.021.23-.03.34v.01c-.02.05-.04.1-.069.15-.19.02-.431.05-.601.05l.021-.09c.01-.11.02-.21.029-.3.48-1.21-.01-3.19-.68-3.89-.15-.02-.29-.03-.41-.02-.05-.06-.109-.11-.17-.15.01-.02.021-.04.03-.05h.12l-.09-.03c.04-.06.1-.13.149-.19l-.31.14-.11-.03c.021.02.04.03.061.05l-.12.06h.21c.02.02.04.03.06.05-.05.05-.1.11-.14.18-1.11.21-1.48 1.38-1.42 2.57 0 .01-.011.02-.011.02-.169.34-.329.68-.499 1.01z" fill="#231f20"/><path d="m679.62 80.19c.01-.24.04-.46.149-.61-.019.21-.069.42-.149.61z" fill="#231f20"/><path d="m679.31 74.1c.091-.16.171-.33.25-.49.04.18.08.35.131.51-.131-.02-.251-.02-.381-.02z"/><path d="m679.43 79.38c.011-.14 0-.26-.02-.38.1-.08.22-.15.37-.19.01.05.01.11.01.16z" fill="#fff"/><path d="m681.11 69.45c-.681.89-1.181 1.94-1.69 3-.01-.68.1-1.34.38-1.87.3-.58.74-.97 1.31-1.13z" fill="#231f20"/><path d="m678.52 74.18c.33-.55.61-1.14.9-1.73.01.39.061.78.14 1.16-.079.16-.159.33-.25.49-.27 0-.53.02-.79.08z" fill="#231f20"/><path d="m679.35 77.59c.45.39.75.94.721 1.81-.13.02-.221.07-.29.15.029-.19.029-.38.01-.58l.19-.21c-.07.01-.141.03-.2.05-.05-.37-.16-.74-.34-1.08-.031-.04-.061-.09-.091-.14z" fill="#231f20"/><path d="m679.18 80.24-.01.01z" fill="#fff"/><path d="m679 81.02c.15-.11.28-.24.39-.39.091-.14.17-.27.23-.43 0 .15.02.31.02.48-.16.16-.38.27-.64.34z" fill="#231f20"/><path d="m678.93 74.76c.13-.22.261-.44.38-.66.131 0 .25 0 .381.02.079.25.17.48.27.69-.351-.07-.711-.09-1.031-.05z" fill="#231f20"/><path d="m679.01 80.72c-.01-.11-.02-.23-.02-.37.08-.02.13-.06.18-.1z" fill="#fff"/><path d="m678.48 75.44c.159-.22.3-.45.449-.68.32-.04.681-.02 1.03.05.15.3.32.54.5.74l.35-.47c.04.01.07.03.101.03-.021-.02-.04-.05-.061-.08l.351-.49.02-.02.16.19-.729.99c-.7-.33-1.5-.41-2-.21-.051-.02-.111-.04-.171-.05z" fill="#231f20"/><path d="m677.8 75.34c.271-.34.67-.52 1.13-.58-.149.23-.29.46-.449.68-.221-.06-.451-.09-.681-.1z" fill="#231f20"/><path d="m678.04 75.99c.15-.18.3-.36.44-.55.06.01.119.03.17.05-.03.01-.051.02-.08.03-.21.11-.34.27-.41.5-.04 0-.07-.01-.11-.01z" fill="#fff"/><path d="m678.05 76.01c.04 0 .07.01.11.01-.01.03-.021.06-.03.09z"/><path d="m677.66 75.55c.04-.08.09-.15.14-.21.23.01.46.04.681.1-.141.19-.29.37-.44.55l-.38-.43v-.01z" fill="#231f20"/><path d="m678.04 75.99.01.02c-.01-.01-.02-.01-.03-.01.01 0 .01 0 .02-.01z" fill="#231f20"/><path d="m677.89 76.15c.051-.04.091-.09.13-.15.011 0 .021 0 .03.01l.08.1c.01-.03.021-.06.03-.09.71.14 1.27.56 1.649 1.11-.559-.49-1.279-.76-1.919-.98z" fill="#231f20"/><path d="m677.74 75.34c.29-.36.55-.75.779-1.16.261-.06.521-.08.79-.08-.119.22-.25.44-.38.66-.46.06-.859.24-1.13.58-.019 0-.039-.01-.059 0z" fill="#231f20"/><path d="m677.61 75.5c.05-.05.09-.11.13-.16.02-.01.04 0 .06 0-.05.06-.1.13-.14.21z" fill="#231f20"/><path d="m677.51 75.98c.03-.16.09-.29.15-.42l.38.43c-.01.01-.01.01-.02.01-.16-.02-.33-.03-.51-.02z" fill="#231f20"/><path d="m677.61 75.5-.13-.16c.09-.01.17-.01.26 0-.04.05-.08.11-.13.16z" fill="#231f20"/><path d="m677.4 76.62h.14c.97-.05 1.52.52 1.8.96-.52-.45-1.25-.68-1.979-.92.009-.01.029-.02.039-.04z" fill="#231f20"/><path d="m677.36 76.66c-.03-.01-.051-.02-.08-.03l.12-.01c-.01.02-.03.03-.04.04z"/><path d="m677.21 75.93c.14-.14.28-.28.4-.43l.05.05v.01c-.061.13-.12.26-.15.42.181-.01.351 0 .51.02-.039.06-.079.11-.13.15-.08-.02-.159-.05-.239-.07-.151-.05-.301-.1-.441-.15z" fill="#231f20"/><path d="m678 74.37c-.28.14-.52.34-.7.57l-.03-.03c.641-.81 1.131-1.82 1.631-2.86.56-1.16 1.14-2.35 1.97-3.32l.189-.23h.301.42.2l.159.11c1.511 1.04 2.2 2.72 2.061 5.02-.181-.02-.37-.02-.561-.01.011-.05.021-.11.03-.17.22-1.31-.24-3.09-.99-3.89l-.16-.17-.229-.03c-.08-.01-.16-.02-.24-.02-.09-.07-.18-.14-.27-.2-.141 0-.28 0-.42 0-.091.1-.17.2-.24.3 0 0 0 .01-.01.01-.57.16-1.011.55-1.311 1.13-.28.53-.39 1.19-.38 1.87-.29.59-.57 1.18-.9 1.73-.18.05-.35.11-.52.19z" fill="#231f20"/><path d="m677.32 81.36-.12-.03h.06c.02.02.04.02.06.03z" fill="#231f20"/><path d="m677.28 76.63c.029.01.05.02.08.03-.101.09-.21.18-.32.26l-.04-.28z" fill="#fff"/><path d="m676.94 76.18c.09-.08.189-.17.27-.25.14.05.29.1.44.15.08.02.159.05.239.07-.149.17-.319.33-.489.47l-.12.01c-.101-.03-.2-.07-.3-.1z" fill="#231f20"/><path d="m677.28 76.63-.28.01-.02-.11c.1.03.2.07.3.1z" fill="#231f20"/><path d="m676.71 76.66.04-.21c.08.02.16.05.23.08l.02.11z" fill="#231f20"/><path d="m676.75 76.45.04-.14c.05-.05.1-.09.15-.13l.04.35c-.07-.03-.15-.06-.23-.08z" fill="#231f20"/><path d="m677.21 75.93c-.11-.04-.21-.08-.32-.12.07-.34.21-.63.41-.87.181-.23.42-.43.7-.57.17-.08.34-.14.52-.19-.229.41-.489.8-.779 1.16-.09-.01-.17-.01-.26 0l.13.16c-.121.15-.261.29-.401.43z" fill="#231f20"/><path d="m676.87 81.1.07-.5c.01-.05.02-.09.02-.14.1 0 .2.01.3.01.61.02 1.351.04 1.73-.12 0 .14.01.26.02.37l.16-.47.01-.01-.01.01c-.05.04-.1.08-.18.1-.01-.46.04-1.02.42-1.35.02.12.03.24.02.38l.36-.41c.02.2.02.39-.01.58 0 .01 0 .02-.011.03-.109.15-.14.37-.149.61v.01c-.061.16-.14.29-.23.43-.109.15-.239.28-.39.39-.59.15-1.37.09-2.13.08z" fill="#231f20"/><path d="m676.87 81.1c.76.01 1.54.07 2.13-.08-.43.31-1.02.42-1.74.31-.149-.06-.279-.14-.39-.2z" fill="#231f20"/><path d="m676.94 76.18-.051-.37c.11.04.21.08.32.12-.079.08-.179.17-.269.25z" fill="#231f20"/><path d="m676.79 76.31.09-.47c0-.01 0-.02.01-.03l.051.37c-.051.04-.101.08-.151.13z" fill="#231f20"/><path d="m677.08 81.96c-.15-.07-.29-.14-.42-.22.18 0 .359 0 .56.01.721.02 1.46.04 2.07-.15-.54.35-1.27.51-2.21.36z" fill="#231f20"/><path d="m676.87 81.13c-.01-.01-.03-.02-.03-.03h.03z"/><path d="m676.86 81.18-.07-.08h.04.01c0 .01.021.02.03.03z" fill="#231f20"/><path d="m676.65 76.41c.05-.04.09-.07.14-.1l-.04.14c-.03-.02-.06-.03-.1-.04z" fill="#231f20"/><path d="m676.71 81.02c.04.03.08.06.12.08-.01 0-.03 0-.04 0z" fill="#231f20"/><path d="m676.65 80.96.05.05c-.02-.01-.04-.03-.05-.05z" fill="#231f20"/><path d="m676.62 80.93.02.02c-.01 0-.02 0-.02-.02z" fill="#231f20"/><path d="m676.32 80.46c.109-.8.21-1.46.069-1.97 0-.01 0-.02 0-.03.011-.08.03-.15.04-.23l.141-.76h.01c.67.77.55 1.85.38 2.99-.21 0-.43-.01-.64 0z" fill="#231f20"/><path d="m676.81 82.54c-.5-.23-.89-.49-1.17-.77.23-.01.62-.03.62-.03h.4c.13.08.27.15.42.22.939.15 1.67-.01 2.21-.36.32-.09.6-.25.82-.49l.189-.19-.02-.28c0-.09-.011-.23-.011-.35.03-.09.061-.19.091-.29l.34-.05.01-.54c.03-1.07-.34-1.77-.88-2.26 0-.01-.01-.01-.021-.02-.38-.55-.939-.97-1.649-1.11.07-.23.2-.39.41-.5.029-.01.05-.02.08-.03.8.25 1.46.81 1.909 1.63.74 1.36.69 3.1-.119 4.25-.431.6-1.44 1.55-3.46 1.22l-.091-.01z" fill="#231f20"/><path d="m676.62 80.93c-.08-.06-.15-.13-.19-.21z" fill="#231f20"/><path d="m676.4 80.69.029.03c-.019-.01-.029-.02-.029-.03z" fill="#231f20"/><path d="m675.54 77.47h.26.771l-.141.76c-.01.08-.029.15-.04.23-.11-.42-.36-.74-.85-.99z" fill="#231f20"/><path d="m676.38 80.66c0-.01-.01-.01-.01-.02-.03-.04-.04-.08-.061-.13 0-.02.011-.03.011-.05.21-.01.43 0 .64 0 0 .05-.01.09-.02.14l-.07.5c-.01 0-.021 0-.03 0h-.01c-.04-.02-.08-.05-.12-.08l-.01-.01-.05-.05-.011-.01-.02-.02-.19-.21-.029-.03v-.01h-.011z" fill="#fff"/><path d="m676.3 80.56c0-.02.01-.03.01-.05.021.05.03.09.061.13l-.07-.07v-.01z" fill="#231f20"/><path d="m676.29 80.46c-.14-.42-.08-1 .1-1.97.141.51.04 1.17-.069 1.97-.011 0-.021 0-.031 0z" fill="#231f20"/><path d="m676.23 81.1c.02-.18.05-.36.069-.53l.07.07c0 .01.01.01.01.02l.01.02h.011v.01c0 .01.01.02.029.03.04.08.11.15.19.21 0 .02.01.02.02.02l.011.01c.01.02.029.04.05.05l.01.01.08.08c-.2-.01-.38-.01-.56 0z" fill="#231f20"/><path d="m676.31 80.51c-.01-.01-.02-.03-.02-.05h.03c0 .02-.01.03-.01.05z"/><path d="m676.3 80.56-.1-.1h.09c0 .02.01.04.02.05 0 .02-.01.03-.01.05z" fill="#231f20"/><path d="m675.71 78.64c.01-.04.01-.08.021-.12.029.06.05.13.06.22z" fill="#231f20"/><path d="m676.58 77.46c-.21-.25-.51-.46-.92-.63l.04-.11.72.28c.271.11.561.2.83.29 1.27.43 2.04.73 2.16 1.71-.38.33-.43.89-.42 1.35-.38.16-1.12.14-1.73.12-.1 0-.2-.01-.3-.01.17-1.14.29-2.22-.38-2.99z" fill="#fff"/><path d="m675.73 78.52c-.07-.17-.181-.3-.351-.41h.42c-.019.14-.049.28-.069.41z" fill="#231f20"/><path d="m675.79 78.74v.01h-.1c.01-.03.01-.07.02-.11z"/><path d="m675.66 80.55c-.13-.47-.09-1.04.03-1.8h.1c.06.37 0 .89-.11 1.66z" fill="#231f20"/><path d="m675.51 81.61.08-.59.07-.43c.13.46.43.82 1 1.15-.141 0-.28 0-.4 0 0 0-.39.02-.62.03-.05-.05-.09-.09-.13-.15z" fill="#231f20"/><path d="m675.7 76.72-.36-.14.94-.69c.37-.28.7-.61.989-.98l.03.03c-.2.24-.34.53-.41.87-.01.01-.01.02-.01.03l-.09.47c-.05.03-.09.06-.14.1.04.01.069.02.1.04l-.04.21.29-.02.04.28c.11-.08.22-.17.32-.26.729.24 1.46.47 1.979.92 0 0 0 .01.01.01.03.05.061.1.091.14.18.34.29.71.34 1.08-.15.04-.271.11-.37.19-.12-.98-.891-1.28-2.16-1.71-.27-.09-.56-.18-.83-.29z" fill="#231f20"/><path d="m675.48 81.78.029-.16c.04.06.08.1.13.15-.089 0-.159.01-.159.01z" fill="#231f20"/><path d="m675.26 78.11h.12c.17.11.28.24.351.41-.011.04-.011.08-.021.12z" fill="#231f20"/><path d="m675.26 78.11-.06-.08c.069.02.12.05.18.08-.04 0-.08 0-.12 0z" fill="#231f20"/><path d="m675.19 78.02.01.01z" fill="#231f20"/><path d="m675.19 78.02.01.01.06.08c-.04 0-.08 0-.109 0 0-.03.01-.06.02-.1-.001 0 .009.01.019.01z"/><path d="m675.04 78.75c.03-.2.07-.41.11-.64h.109l.45.53c-.01.04-.01.08-.02.11z" fill="#fff"/><path d="m674.92 77.92-.15-.04.301.01c-.051.01-.101.02-.151.03z" fill="#231f20"/><path d="m674.97 79.3c.021-.18.04-.36.07-.55h.65c-.12.76-.16 1.33-.03 1.8v.02.02l-.07.43-.08.59c-.08-.07-.13-.13-.18-.21.08-.16.15-.32.22-.5l.03-.09.01-.09c.04-.75-.34-1.16-.62-1.42z" fill="#231f20"/><path d="m675.33 81.4c-.19-.29-.3-.62-.36-.97-.05-.35-.04-.72 0-1.13.28.26.66.67.62 1.42l-.01.09-.03.09c-.07.18-.14.34-.22.5z" fill="#fff"/><path d="m675.15 78.11c-.25 0-.48 0-.73 0 .13-.07.29-.14.5-.19l.25.09c-.01.04-.02.07-.02.1z" fill="#231f20"/><path d="m674.87 79.22c-.19-.17-.29-.25-.271-.47h.44c-.03.19-.05.37-.07.55-.039-.03-.069-.06-.099-.08z" fill="#fff"/><path d="m674.25 77.47c.19-.09.42-.16.7-.21.22.06.41.13.58.21z" fill="#231f20"/><path d="m674.34 80.46-.01.02c.01-.01.01-.01.01-.02z" fill="#231f20"/><path d="m674.33 80.48-.021.09c-.01-.01-.01-.02-.01-.02.021-.02.031-.05.031-.07z" fill="#231f20"/><path d="m674.29 79.5c-.06-.26-.13-.52-.15-.75h.46c-.02.22.08.3.271.47.03.02.06.05.1.08-.04.41-.05.78 0 1.13h-.029c-.07-.43-.381-.62-.641-.86-.001-.02-.011-.04-.011-.07z" fill="#231f20"/><path d="m674.14 81.96c.53-.77.33-1.71.16-2.39.26.24.57.43.641.86.01.08.01.16.01.25-.211.55-.481.97-.811 1.28z" fill="#231f20"/><path d="m674.14 78.72c0-.01 0-.01 0-.01l.561-.39c-.061.2-.101.33-.101.43h-.46c0-.01 0-.02 0-.03z" fill="#fff"/><path d="m681.39 125.26c-3.939-1.42-6.77-4-8.779-7.43l1.229-.37c2.29 1.59 6.28-1.5 5.93-2.79.761 1.63 1.86-.98 3.23-.55-.02.76.26 1.22.54 1.67-1.54.78-2.94-1.73-2.69.56.301 2.33 3.9-.8 4.851.55.09-.83-.2-2.05.54-2.23.77-.62 1.31-.6 1.609.56.16 1.1-.729 1.11-1.08 1.67 1.44 2.01 3.181.21 2.7-2.78-1.01-.08-1.8-.37-2.16-1.12 1.69-.17 3.61-.09 4.181-1.42l1.05.3c-1.51 5.18-3.99 9.37-8.07 11.9-.941.58-1.961 1.08-3.081 1.48z" fill="#ed1e29"/><path d="m674.14 78.71c-.01-.17 0-.31.061-.41.04-.07.109-.13.21-.19h.01.73c-.04.23-.08.44-.11.64h-.44c0-.1.04-.23.101-.43z" fill="#231f20"/><path d="m674.14 78.72v.03h-.05z" fill="#231f20"/><path d="m674.3 79.57c-.28-.27-.5-.61-.21-1.46h.32c-.101.06-.17.12-.21.19-.061.1-.07.24-.061.41v.01l-.05.03h.05c.021.23.091.49.15.75.001.03.011.05.011.07z" fill="#231f20"/><path d="m673.72 79.88.011.02c-.011-.01-.011-.01-.011-.02z" fill="#231f20"/><path d="m673.65 81.53c.3-.47.21-1.05.08-1.63.1.1.199.19.3.29.2.17.27.23.27.36-.15.42-.38.75-.65.98z" fill="#231f20"/><path d="m681.92 109.66c.16 3.29 4.061 1.01 4.85 0-1.61 0-3.23 0-4.85 0zm-4.84 6.13c-2.89.42-5.47-2.81-5.39-5.57.35-.75 1.149-1.04 2.149-1.12-.59 1.5-.1 2.86.54 4.46 1.04-1.37 2.59-2.52 1.62-4.46 1.53-.58 2.24-.58 3.77 0 .45 1.58-.76 1.45-.539 2.79 2.939 1.17 8.81.58 11.85 0-.86-4.62-9.13 3.86-9.69-2.23 2.21-.69 5.021-.75 7-1.67-.189.73-.949.88-1.08 1.67 2.03-.43 2.58.68 4.311.56.07.57.02 1.01-.13 1.36-.57 1.33-2.49 1.25-4.181 1.42.36.75 1.15 1.04 2.16 1.12.48 2.99-1.26 4.79-2.7 2.78.351-.56 1.24-.57 1.08-1.67-.3-1.16-.84-1.18-1.609-.56-.74.18-.45 1.4-.54 2.23-.95-1.35-4.55 1.78-4.851-.55-.25-2.29 1.15.22 2.69-.56-.28-.45-.56-.91-.54-1.67-1.37-.43-2.47 2.18-3.23.55.351 1.29-3.64 4.38-5.93 2.79-.59-2.34 3.21 1.01 3.24-1.67z" fill="#fbed24"/><path d="m673.72 79.88c-.35-.4-.58-.97-.239-1.97l.149-.44h.46.16c-1.09.5-.75 1.46-.53 2.41z" fill="#231f20"/><path d="m672.89 81.42c.04-.03.08-.07.11-.1h.24z" fill="#fff"/><path d="m672.89 81.42-.02.01c.01 0 .01-.01.02-.01z" fill="#fff"/><path d="m671.55 81.5.01.01z" fill="#fff"/><path d="m671.26 77.97.24-.28h.03c-.061.14-.11.28-.17.42z" fill="#231f20"/><path d="m671.26 78.32c.03-.07.061-.14.101-.21l.14.22c-.081-.01-.161-.01-.241-.01z" fill="#fff"/><path d="m671.26 77.97-.2-.3c.141 0 .28.01.44.02z" fill="#231f20"/><path d="m671.55 81.5-.45-.18h.29c.05.06.1.12.16.18z" fill="#fff"/><path d="m684.62 94.62c-3.95-1.1-11.2 6.5-14.55 1.11 1.029-.56 4.27 1.61 6.47 0-.5-1.52-1.69.78-3.23 0-1.88-2.17-5.06-6.31 0-6.69-1.069 1.38-.72 4.87 1.07 5.02-.57-.81 2.5-2.56 1.08-3.9 1.32-1.82 2.44-1.64 4.31-.56-.069 1.04-.35 1.87-1.079 2.23 1.869 1.79 9.6.88 11.859-.56-2.49-2.21-7.16 2.89-9.16-.55.12-.24.28-.45.45-.63.021 1.59 3.32 1.63 3.86.63-1-.41-1.641-1.18-3.03-1.18h-.13c1.93-1.1 5.08-.41 6.39-1.05-.46.83-1.359 1.2-2.689 1.11 1.18 1.09 4.45-.73 5.38 1.67.25 1.74-1.15 1.78-2.69 1.68.641 1.01 2.811.43 3.771 1.11.05 2.08.609 1.59 0 3.34-.48-.34-.96-.67-1.08 0-1.811-.5-.26-1.03-.54-2.78-1.61 0-3.23 0-4.84 0 .229.87 1.689.47 1.069 2.23-2.699-.37-4.35.69-5.92 0 .521-2.2.94-1.03 3.23-1.12-.331-.5-.651-1-.001-1.11z" fill="#fbed24"/><path d="m671.17 78.09.09-.12.101.14c-.04.07-.07.14-.101.21-.08-.01-.17-.01-.25-.02.05-.07.11-.14.16-.21z"/><path d="m672.68 81.94c-.569.03-1.16-.2-1.59-.61l.01-.01.45.18.01.01-.01-.01c-.06-.06-.109-.12-.16-.18h1.61c-.03.03-.07.07-.11.1-.01 0-.01.01-.02.01l.02-.01.351-.1h-.241c.3-.3.24-.71.04-1.51-.17-.71-.36-1.51.08-2.2.31-.49.87-.81 1.7-.98l.149-.03.15.04c.2.06.38.12.54.19.41.17.71.38.92.63v.01h-.01-.769-.26-.01c-.17-.08-.36-.15-.58-.21-.28.05-.51.12-.7.21h-.16-.46l-.149.44c-.341 1-.11 1.57.239 1.97 0 .01 0 .01.011.02.13.58.22 1.16-.08 1.63-.281.25-.601.38-.971.41z" fill="#231f20"/><path d="m670.85 77.66c.03-.06.051-.12.07-.19l.14.2c-.08-.01-.14-.01-.21-.01z" fill="#231f20"/><path d="m670.56 78.28c.11-.2.21-.41.29-.62.07 0 .131 0 .21.01l.2.3-.09.12c-.05.07-.11.14-.16.21-.16 0-.3-.01-.45-.02z" fill="#231f20"/><path d="m681.92 99.63c.16 3.28 4.061 1.01 4.85 0-1.61 0-3.23 0-4.85 0zm-11.85 6.69c.489-2.02 1.59-.34 3.239-.56-1.96-1.2-4.22-6.64-1.079-6.69.779.85-.681 3.98 1.609 4.46 1.03-1.36 2.59-2.52 1.62-4.46 1.69-.86 3-.35 4.31.56-.01 1.11-1.47.71-1.079 2.23 2.75.79 9.909 1.34 11.859-.56-2.83-2.35-8.819 3.55-9.7-1.67 2.15-.49 4.471-.8 6.62-1.3.5-.11.99-.23 1.46-.37-.229.69-.689 1.14-1.62 1.11.98 1.03 3.25.73 4.311 1.67-.021 1.84-1.53 2.13-3.23 2.23 1.271 1.6 3.051-.55 4.311.56-.59.6.08 1.94-.13 2.92-.09.43-.351.78-.95.98.32-2.63-5.33-5.22-4.851-.55-.59-1.05-4.27 1.14-5.38-.56-.06-2.51 1.62.24 3.23-.56-.19-.73-.95-.88-1.08-1.67-6.03 1.62-9.03 5.07-13.47 2.23z" fill="#fbed24"/><path d="m689.19 87.11c-6.271-1.04-13.301-.82-19.181.75 5.4-3.71 16.271-3.86 22.69-.47l-1.74.06c-.579-.12-1.169-.24-1.769-.34z" fill="#ed1e29"/><path d="m670.85 77.66c-.08.21-.18.42-.29.62-.02 0-.04 0-.06 0l-.08-.25c.08-.11.16-.23.25-.34-.07-.02-.14-.04-.21-.05.13 0 .26.01.39.02z" fill="#231f20"/><path d="m670.46 80.1s0 0 0-.01c.13-.57.49-1.13.8-1.77.08 0 .16 0 .24.01l-.14-.22c.06-.14.109-.28.17-.42-.011 0-.021 0-.03 0l.29-.36-.95-.26c-.1-.03-.189-.05-.28-.07.301.02.631.03.99.05l.87.03-.29.82c-.16.46-.38.87-.57 1.24-.52 1-.739 1.49-.17 2.18h-.29l-.01.01c-.17-.16-.31-.35-.42-.56s-.18-.44-.21-.67z" fill="#231f20"/><path d="m672.61 117.83c-1.851-3.14-3.011-7-3.721-11.33l1.181-.18c4.439 2.84 7.439-.61 13.47-2.23.13.79.89.94 1.08 1.67-1.61.8-3.29-1.95-3.23.56 1.11 1.7 4.79-.49 5.38.56-.479-4.67 5.171-2.08 4.851.55.6-.2.86-.55.95-.98l1.13.19c-.3 1.84-.681 3.59-1.16 5.24l-1.05-.3c.149-.35.2-.79.13-1.36-1.73.12-2.28-.99-4.311-.56.131-.79.891-.94 1.08-1.67-1.979.92-4.79.98-7 1.67.561 6.09 8.83-2.39 9.69 2.23-3.04.58-8.91 1.17-11.85 0-.221-1.34.989-1.21.539-2.79-1.529-.58-2.239-.58-3.77 0 .97 1.94-.58 3.09-1.62 4.46-.64-1.6-1.13-2.96-.54-4.46-1 .08-1.8.37-2.149 1.12-.08 2.76 2.5 5.99 5.39 5.57-.03 2.68-3.83-.67-3.24 1.67z" fill="#ed1e29"/><path d="m670.38 78.27c.04.01.08.01.12.01l.01.02c-.05-.01-.09-.02-.13-.03z"/><path d="m670.46 80.09c-.06-.57.12-1.18.55-1.79.08.01.17.01.25.02-.31.64-.67 1.2-.8 1.77z" fill="#231f20"/><path d="m670.42 78.03-.14-.4c.06 0 .12.01.18.01.07.01.14.03.21.05-.09.11-.17.23-.25.34z" fill="#231f20"/><path d="m671.1 81.96c-.659-.68-.77-1.27-.64-1.86.03.23.1.46.21.67s.25.4.42.56c.43.41 1.021.64 1.59.61.37-.03.69-.16.971-.41-.091.16-.23.3-.41.43-.711 0-1.431 0-2.141 0z" fill="#231f20"/><path d="m670.38 78.27c-.04 0-.07 0-.11-.01.011 0 .011 0 .011-.01.029.01.059.01.099.02z" fill="#231f20"/><path d="m670.38 78.27c-.04-.01-.07-.01-.1-.02.04-.07.09-.14.14-.22l.08.25c-.04 0-.08 0-.12-.01z" fill="#231f20"/><path d="m670.28 77.6c.06.01.12.02.18.04-.06 0-.12-.01-.18-.01z" fill="#231f20"/><path d="m669.82 80.07c.1-.55.359-1.07.609-1.53.04-.08.09-.17.13-.26.15.01.29.02.45.02-.43.61-.609 1.22-.55 1.79v.01c-.13.59-.02 1.18.64 1.86h2.141c.18-.13.319-.27.41-.43.27-.23.5-.56.649-.98 0 0 0 .01.01.02l.021-.09.01-.02c0 .01 0 .01-.01.02 0 .02-.01.05-.03.07 0-.13-.069-.19-.27-.36-.101-.1-.2-.19-.3-.29l-.011-.02c-.22-.95-.56-1.91.53-2.41h1.28.01c.49.25.74.57.85.99v.03c-.18.97-.239 1.55-.1 1.97-.03 0-.06 0-.09 0l.1.1v.01c-.02.17-.05.35-.069.53.18-.01.359-.01.56 0l.07.08.01-.05c.11.06.24.14.39.2-.02 0-.04 0-.06 0l.12.03c-.021-.01-.04-.01-.061-.03.721.11 1.311 0 1.74-.31.26-.07.48-.18.64-.34 0-.17-.02-.33-.02-.48v-.01c.08-.19.13-.4.149-.61.011-.01.011-.02.011-.03.069-.08.16-.13.29-.15.029-.87-.271-1.42-.721-1.81-.01 0-.01-.01-.01-.01-.28-.44-.83-1.01-1.8-.96h-.14c.17-.14.34-.3.489-.47.641.22 1.36.49 1.92.98.011.01.021.01.021.02.55.81.75 1.91.53 2.85l-.08.01c0-.02.01-.04.01-.06 0-.01.01-.02.01-.02s0 .01-.01.02c-.021.03-.08.07-.12.08l.11-.02c-.011.07-.021.18-.011.28-.18.53-.5 1-.979 1.31-.61.19-1.35.17-2.07.15-.2-.01-.38-.01-.56-.01-.57-.33-.87-.69-1-1.15v-.02c0-.01 0-.01 0-.02l.02-.14c.11-.77.17-1.29.11-1.66v-.01c-.01-.09-.03-.16-.06-.22.02-.13.05-.27.069-.41-.14 0-.29 0-.42 0-.06-.03-.11-.06-.18-.08l-.01-.01c-.011 0-.021-.01-.021-.01l-.25-.09c.05-.01.1-.02.15-.03l-.301-.01.15.04c-.21.05-.37.12-.5.19h-.01c-.11 0-.21 0-.32 0-.29.85-.07 1.19.21 1.46.17.68.37 1.62-.16 2.39l-.01.01c-1.54 1.42-4.12.2-4.31-1.86.005-.01.005-.03.005-.04z" fill="#231f20"/><path d="m670.56 77c-.329-.01-.63-.03-.89-.06.26-.02.55-.01.89.06z" fill="#231f20"/><path d="m669.96 77.58c.06-.1.14-.2.21-.29l.11.31c-.12-.02-.22-.02-.32-.02z" fill="#231f20"/><path d="m669.71 78.23c.15-.03.33-.03.57.02 0 .01 0 .01-.011.01-.189 0-.379-.02-.559-.03z" fill="#231f20"/><path d="m669.93 87.14c-.08-.2-.16-.4-.229-.61 6.03-3.8 17.24-3.83 23.92-.1-.03.23-.05.47-.07.7-6.201-3.59-17.571-3.89-23.621.01z" fill="#231f20"/><path d="m669.99 87.87c.01-.01.01-.01.02-.01-.01 0-.01.01-.02.01z" fill="#231f20"/><path d="m670.28 77.63c-.12-.01-.23-.02-.34-.03.01-.02.01-.02.02-.02.1 0 .2 0 .32.02z" fill="#231f20"/><path d="m669.81 87.22c.04-.03.08-.05.12-.08.021.05.04.09.051.13z"/><path d="m669.69 77.59c.079-.02.17-.02.27-.01-.01 0-.01 0-.02.02h-.011c-.079 0-.159-.01-.239-.01z" fill="#231f20"/><path d="m669.82 80.07c-.051-.56.08-1.17.449-1.81.04.01.07.01.11.01.04.01.08.02.13.03l-.01-.02h.06c-.04.09-.09.18-.13.26-.249.46-.509.98-.609 1.53z" fill="#231f20"/><path d="m669.39 87.51c-.06-.15-.12-.3-.18-.46l.6.17c-.14.09-.28.19-.42.29z" fill="#231f20"/><path d="m670.64 82.4c-.79-.82-.939-1.59-.819-2.29.189 2.06 2.77 3.28 4.31 1.86-.13.18-.3.36-.53.51l-.159.12h-.2-2.142-.27z" fill="#231f20"/><path d="m689.11 87.51-19.49.64.149-.12c.07-.06.15-.11.221-.16.01 0 .01-.01.02-.01 5.88-1.57 12.91-1.79 19.181-.75z" fill="#ed1e29"/><path d="m669.54 81.36c-.5-.95-.49-2.03 0-3.07.05-.03.11-.05.17-.06.18.01.37.03.56.03-.369.64-.5 1.25-.449 1.81v.04c-.12.7.029 1.47.819 2.29l.19.2h.27 2.141.2l.159-.12c.23-.15.4-.33.53-.51l.01-.01c.33-.31.601-.73.811-1.28 0-.09 0-.17-.01-.25h.029c.061.35.17.68.36.97-.54 1.09-1.46 1.74-2.57 1.82-1.3.08-2.6-.66-3.22-1.86z" fill="#231f20"/><path d="m668.51 77.46c.28-.26.641-.47 1.16-.52.26.03.561.05.89.06.091.02.181.04.28.07l.95.26-.29.36c-.16-.01-.3-.02-.44-.02l-.14-.2c-.02.07-.04.13-.07.19-.13-.01-.26-.02-.39-.02-.06-.02-.12-.03-.18-.04l-.11-.31c-.07.09-.15.19-.21.29-.1-.01-.19-.01-.27.01-.44-.04-.83-.08-1.18-.13z" fill="#231f20"/><path d="m669.58 78.22c.09-.21.21-.42.35-.62h.011c.109.01.22.02.34.03l.14.4c-.05.08-.1.15-.14.22-.24-.05-.42-.05-.57-.02-.041 0-.091-.01-.131-.01z" fill="#231f20"/><path d="m669.62 88.15-.65.02v-.02c.33-.1.681-.2 1.021-.28-.07.05-.15.1-.221.16z" fill="#231f20"/><path d="m669.71 78.23c-.06.01-.12.03-.17.06.01-.03.02-.05.04-.07.04 0 .09.01.13.01z" fill="#fff"/><path d="m669.81 87.22-.6-.17c-.02-.05-.04-.1-.06-.15.18-.13.359-.25.55-.37.069.21.149.41.229.61-.039.03-.079.05-.119.08z" fill="#fff"/><path d="m669.01 86.99c.05-.03.09-.06.141-.09.02.05.04.1.06.15z"/><path d="m669.62 88.15-.51.36-.14-.34z" fill="#231f20"/><path d="m668.97 88.15v.02h-.05c.01-.01.03-.01.05-.02z"/><path d="m667.92 88.49c.33-.11.66-.22 1-.32h.05l.141.34.51-.36 19.49-.64-.181.98c-1.31.64-4.46-.05-6.39 1.05-.19.01-.4.03-.62.06-.06.18-.08.34-.08.49-.17.18-.33.39-.45.63 2 3.44 6.67-1.66 9.16.55-2.26 1.44-9.99 2.35-11.859.56.729-.36 1.01-1.19 1.079-2.23-1.869-1.08-2.989-1.26-4.31.56 1.42 1.34-1.65 3.09-1.08 3.9-1.79-.15-2.14-3.64-1.07-5.02-5.06.38-1.88 4.52 0 6.69 1.54.78 2.73-1.52 3.23 0-2.2 1.61-5.44-.56-6.47 0 3.35 5.39 10.6-2.21 14.55-1.11-.65.11-.33.61 0 1.11-2.29.09-2.71-1.08-3.23 1.12 1.57.69 3.221-.37 5.92 0l.16 1.48c-2.149.5-4.47.81-6.62 1.3.881 5.22 6.87-.68 9.7 1.67-1.95 1.9-9.109 1.35-11.859.56-.391-1.52 1.069-1.12 1.079-2.23-1.31-.91-2.619-1.42-4.31-.56.97 1.94-.59 3.1-1.62 4.46-2.29-.48-.83-3.61-1.609-4.46-3.141.05-.881 5.49 1.079 6.69-1.649.22-2.75-1.46-3.239.56l-1.181.18c-.88-5.42-1.05-11.59-.97-18.01z" fill="#ed1e29"/><path d="m668.86 83.92c-.41-1.33-.811-2.69-1.37-3.91.819-.15 1.22-.73 1.52-1.16.19-.27.33-.46.53-.56-.49 1.04-.5 2.12 0 3.07.62 1.2 1.92 1.94 3.22 1.86 1.11-.08 2.03-.73 2.57-1.82.05.08.1.14.18.21v.01l-.029.16s.069-.01.159-.01c.28.28.67.54 1.17.77l.08.04.091.01c2.02.33 3.029-.62 3.46-1.22.81-1.15.859-2.89.119-4.25-.449-.82-1.109-1.38-1.909-1.63.5-.2 1.3-.12 2 .21l.729-.99.34.4c.46.55 1.221.46 1.88.39.641-.07 1-.07 1.21.05-.21.19-.529.33-.88.49-.75.35-1.699.78-1.92 1.95-.42 1.77.101 3.24 1.44 4.02 1.3.74 3.03.6 4.069-.33l.12-.02-.01-.08c.08-.08.16-.17.25-.29.19.49.51.81.73 1 .96.78 2.489.88 3.659.34.311-.13.591-.32.841-.54.5-.47 1.439-1.69.449-3.79.33.12.521.39.78.77.19.26.4.56.69.81l.54.46c-.88 1.77-1.67 3.67-1.95 6.09-6.68-3.73-17.89-3.7-23.92.1-.318-.84-.578-1.73-.838-2.61z" fill="#fbed24"/><path d="m668.74 78.14c.229-.27.51-.5.95-.55.079 0 .159.01.239.01-.14.2-.26.41-.35.62-.309-.02-.579-.05-.839-.08z" fill="#231f20"/><path d="m668.49 88.18c0-.46-.03-.93-.061-1.39.11.33.24.65.37.97l.17.39c-.02.01-.04.01-.05.02z"/><path d="m668.49 88.2h-.57l.57-.02z" fill="#231f20"/><path d="m668.03 78.02c.13-.18.279-.38.479-.56.351.05.74.09 1.181.13-.44.05-.721.28-.95.55-.25-.03-.49-.07-.71-.12z" fill="#231f20"/><path d="m667.98 79.09c.039-.33.02-.64-.051-.93.011-.01.021-.02.03-.04.021-.03.04-.06.07-.1.22.05.46.09.71.12-.259.31-.449.69-.759.95z" fill="#231f20"/><path d="m667.96 78.12c-.01.02-.02.03-.03.04-.01-.05-.029-.11-.05-.17.05.01.101.02.15.03-.03.04-.05.07-.07.1z"/><path d="m667.98 79.09c-.021.17-.061.33-.12.5l-.23-.29c.13-.05.25-.12.35-.21z" fill="#fff"/><path d="m667.88 77.99c-.08-.28-.22-.53-.399-.76.34.1.67.17 1.029.23-.2.18-.35.38-.479.56-.051-.01-.101-.02-.151-.03z" fill="#231f20"/><path d="m667.63 79.3-.28-.34v-.01c.011-.09.011-.16.011-.23.22-.08.359-.26.569-.56.07.29.09.6.051.93-.101.09-.221.16-.351.21z"/><path d="m666.88 80.08.44-.05c.06 0 .109-.01.17-.02.56 1.22.96 2.58 1.37 3.91.26.88.52 1.77.84 2.61-.19.12-.37.24-.55.37-.681-1.83-1.16-3.87-1.87-5.69-.011-.01-.011-.02-.011-.03 0-.02-.01-.03-.02-.05-.01-.04-.03-.08-.04-.12-.02-.07-.04-.13-.07-.19-.079-.26-.159-.5-.259-.74z" fill="#231f20"/><path d="m667.25 79.4c.05-.16.08-.3.1-.44l.28.34c-.11.05-.24.08-.38.1z" fill="#231f20"/><path d="m667.35 78.95-.159-.19c.06-.01.119-.02.17-.04-.001.07-.001.14-.011.23z" fill="#fff"/><path d="m668.43 86.79c-.149-1.98-.6-3.86-1.149-5.58.71 1.82 1.189 3.86 1.87 5.69-.051.03-.091.06-.141.09l.2.06c.06.16.12.31.18.46.141-.1.28-.2.42-.29l.171.05c-.011-.04-.03-.08-.051-.13 6.051-3.9 17.42-3.6 23.62-.01-.01.08-.01.16-.01.23l-.84.03c-6.42-3.39-17.29-3.24-22.69.47-.01 0-.01 0-.02.01-.34.08-.69.18-1.021.28l-.17-.39c-.129-.32-.259-.64-.369-.97z" fill="#231f20"/><path d="m667.25 81.13c.01.02.02.03.02.05-.01-.02-.02-.03-.02-.05z" fill="#231f20"/><path d="m667.36 78.72c0-.35-.11-.67-.271-.93.271.08.53.15.79.2.021.06.04.12.05.17-.209.3-.349.48-.569.56z" fill="#231f20"/><path d="m666.82 80.09.06-.01c.101.24.18.48.26.74-.1-.25-.21-.49-.32-.73z" fill="#231f20"/><path d="m666.88 80.08c-.09-.25-.189-.49-.28-.73l.051-.15c.069-.23.08-.44.06-.62.29.44.54.93.78 1.43-.061.01-.11.02-.17.02z" fill="#fff"/><path d="m667.85 88.2c-.02-2.44-.51-4.82-1.26-7.03.391.97.71 2.03 1.04 3.12.25.83.5 1.68.8 2.5.03.46.061.93.061 1.39l-.57.02h-.01z" fill="#231f20"/><path d="m666.82 80.09-.48.05.2-.6c.09.18.19.36.28.55z" fill="#231f20"/><path d="m666.82 80.09c-.09-.19-.19-.37-.28-.55l.06-.19c.091.24.19.48.28.73z" fill="#231f20"/><path d="m666.71 78.58c-.21-.34-.44-.65-.7-.94.03.01.05.03.07.04.3.17.57.48.63.9z" fill="#fff"/><path d="m666.6 79.35c-.26-.63-.52-1.22-.79-1.79.07.02.141.05.2.08.26.29.49.6.7.94.021.18.01.39-.06.62z" fill="#231f20"/><path d="m666.54 79.54c-.38-.7-.82-1.32-1.37-1.85v-.01c.16-.16.4-.18.64-.12.271.57.53 1.16.79 1.79z" fill="#231f20"/><path d="m665.66 77.27c.54.22.99.39 1.43.52.16.26.271.58.271.93-.051.02-.11.03-.17.04l.159.19v.01c-.02.14-.05.28-.1.44.14-.02.27-.05.38-.1l.23.29c.06-.17.1-.33.12-.5.31-.26.5-.64.76-.95.26.03.529.06.84.08-.021.02-.03.04-.04.07-.2.1-.34.29-.53.56-.3.43-.7 1.01-1.52 1.16-.24-.5-.49-.99-.78-1.43-.06-.42-.33-.73-.63-.9-.021-.01-.04-.03-.07-.04-.11-.13-.22-.26-.35-.37z" fill="#231f20"/><path d="m665.66 77.27c.13.11.24.24.35.37-.06-.03-.13-.06-.2-.08-.05-.1-.1-.2-.15-.29z" fill="#fff"/><path d="m665.65 77.26.01.01z" fill="#231f20"/><path d="m665.65 77.26c-.051-.13-.11-.25-.181-.37.59-.04 1.261.31 1.62.9-.439-.13-.89-.3-1.43-.52z" fill="#231f20"/><path d="m665.47 76.89c.07.12.13.24.181.37h-.011c-.109-.13-.239-.25-.359-.34.059-.02.129-.02.189-.03z" fill="#231f20"/><path d="m665.47 76.89c-.08-.17-.17-.34-.26-.5.95.4 1.63.66 2.271.84.18.23.319.48.399.76-.26-.05-.52-.12-.79-.2-.36-.59-1.03-.94-1.62-.9z" fill="#231f20"/><path d="m665.17 77.68-.06-.65c.18.09.37.15.529.23h.011l.01.01c.05.09.1.19.149.29-.239-.06-.479-.04-.639.12z" fill="#231f20"/><path d="m665.21 76.39c-.01-.04-.03-.07-.05-.1.49-.11 1.04-.02 1.56.28.28.16.55.38.761.66-.641-.18-1.321-.44-2.271-.84z" fill="#231f20"/><path d="m665.11 77.03v-.06c.06-.02.109-.04.17-.05.12.09.25.21.359.34-.159-.08-.349-.14-.529-.23z" fill="#fff"/><path d="m665.16 76.29c.02.03.04.06.05.1-.05-.03-.1-.05-.16-.07.03-.02.07-.03.11-.03z" fill="#231f20"/><path d="m666.58 81.14c-.41-1.22-.91-2.39-1.45-3.5.01.01.03.02.04.04v.01c.55.53.99 1.15 1.37 1.85l-.2.6.48-.05c.109.24.22.48.319.73.03.06.051.12.07.19.01.04.03.08.04.12 0 .02.01.03.02.05 0 .01 0 .02.011.03.55 1.72 1 3.6 1.149 5.58-.3-.82-.55-1.67-.8-2.5-.33-1.09-.649-2.15-1.04-3.12.001-.01.001-.02-.009-.03z" fill="#231f20"/><path d="m665.09 76.76c.061.05.13.1.19.16-.061.01-.11.03-.17.05z"/><path d="m665.11 76.97v.06c-.03 0-.051-.02-.08-.03.03-.01.05-.02.08-.03z" fill="#231f20"/><path d="m664.46 76.06.36-.39c.109.19.22.4.34.62-.04 0-.08.01-.11.03-.18-.08-.38-.17-.59-.26z" fill="#fff"/><path d="m664.75 76.88c-.06-.12-.12-.23-.18-.35.14-.1.31-.17.479-.21.061.02.11.04.16.07.09.16.18.33.26.5-.06.01-.13.01-.189.03-.061-.06-.13-.11-.19-.16l.021.21c-.03.01-.051.02-.08.03-.091-.03-.181-.08-.281-.12z" fill="#231f20"/><path d="m665.13 77.64c-.14-.13-.28-.26-.439-.38.05-.06.109-.11.17-.16.099.18.189.36.269.54z" fill="#231f20"/><path d="m667.21 88.21c-.04-3.87-1.29-7.47-2.6-10.18.87.8 1.47 1.88 1.97 3.11.01.01.01.02.01.03.75 2.21 1.24 4.59 1.26 7.03z" fill="#231f20"/><path d="m665.13 77.64c-.08-.18-.17-.36-.27-.54.06-.04.109-.07.17-.1.029.01.05.03.08.03l.06.65c-.01-.02-.03-.03-.04-.04z" fill="#231f20"/><path d="m664.75 76.88c.1.04.19.09.28.12-.061.03-.11.06-.17.1-.03-.07-.07-.15-.11-.22z" fill="#231f20"/><path d="m664.57 76.53c-.07-.12-.13-.24-.2-.36l.09-.11c.21.09.41.18.59.26-.17.04-.34.11-.48.21z"/><path d="m664.57 76.53c.06.12.12.23.18.35-.13-.05-.27-.11-.41-.18.07-.06.15-.12.23-.17z" fill="#231f20"/><path d="m664.26 75.98c.07.03.141.06.2.08l-.09.11c-.04-.07-.07-.13-.11-.19z" fill="#231f20"/><path d="m664.61 78.03c-.17-.37-.351-.72-.53-1.05l.13-.15c.04-.05.09-.09.13-.13.141.07.28.13.41.18.04.07.08.15.11.22-.061.05-.12.1-.17.16.159.12.3.25.439.38.54 1.11 1.04 2.28 1.45 3.5-.499-1.23-1.099-2.31-1.969-3.11z" fill="#231f20"/><path d="m664.01 76.56.36-.39c.07.12.13.24.2.36-.08.05-.16.11-.23.17-.11-.04-.21-.09-.33-.14z" fill="#fff"/><path d="m664.26 75.98c.04.06.07.12.11.19l-.36.39c.12.05.221.1.33.14-.04.04-.09.08-.13.13l-.13.15c-.13-.24-.25-.47-.37-.69l-.93-1.65 1.739.75c2.591 1.11 3.28 1.41 5.15 1.55-.52.05-.88.26-1.16.52-.359-.06-.689-.13-1.029-.23-.211-.28-.48-.5-.761-.66-.52-.3-1.069-.39-1.56-.28-.12-.22-.23-.43-.34-.62l-.36.39c-.059-.02-.129-.05-.199-.08z" fill="#231f20"/><path d="m664.08 76.98c.18.33.36.68.53 1.05-.101-.09-.21-.18-.311-.27l-.54-.42z" fill="#231f20"/><path d="m567.16 68.43c17.32-2.11 27.01 8.98 37.72 15.6 25.69 15.89 51.07 30.86 75.97 46.8 1.92-1.22 3.841-2.44 5.771-3.65 26.899-16.98 54.52-33.48 82.59-50.95 6.521-4.06 11.34-8.34 20.74-8.34 1.87 0 3.92.17 6.2.54v7.8c-32.65 21.95-66.87 42.29-100.75 62.96 32.76 22.02 67.76 41.73 100.75 63.52v8.35c-2.221.39-4.23.57-6.08.57-8.99 0-14.07-4.19-20.86-8.37-29.51-18.15-59.27-36.58-88.36-54.6-28.93 17.91-58.229 36.07-88.359 54.6-7.41 4.56-12.36 9.61-24.771 7.96l-.1-10.24c32.95-20.36 65.84-40.76 98.68-61.23-32.95-20.91-66.17-41.53-99.68-61.85.21-1.79-.09-4.11-.09-6.12-.001-1.33.139-2.53.629-3.35z" fill="#ed1e29"/><path d="m567.72 211.22c12.41 1.65 17.36-3.4 24.771-7.96 30.13-18.53 59.43-36.69 88.359-54.6 29.091 18.02 58.851 36.45 88.36 54.6 6.79 4.18 11.87 8.37 20.86 8.37v.55c-74.12 0-148.23 0-222.351 0v-.96z" fill="#fff"/><path d="m798.49 215.3h-230.74l-.03-3.12h222.351 7.16c0-44.2 0-88.4 0-132.6l1.26-.71v136.43z" fill="#fff"/><path d="m567.62 200.98.1 10.24c-.359-.05-.729-.1-1.1-.16 0-3.15 0-6.31 0-9.47.34-.2.67-.41 1-.61z"/><path d="m566.62 77.9c33.51 20.32 66.729 40.94 99.68 61.85-32.84 20.47-65.729 40.87-98.68 61.23l-1.19-129.2h.101c-.001 2.01.299 4.33.089 6.12z" fill="#fff"/><path d="m604.88 84.03c-10.71-6.62-20.399-17.71-37.72-15.6-.49.82-.63 2.02-.63 3.35h-.101l-.04-4.46h115.591v1.18h-.2-.42-.301l-.189.23c-.83.97-1.41 2.16-1.97 3.32-.5 1.04-.99 2.05-1.631 2.86-.289.37-.619.7-.989.98l-.94.69.36.14-.04.11c-.16-.07-.34-.13-.54-.19l-.15-.04-.149.03c-.83.17-1.391.49-1.7.98-.44.69-.25 1.49-.08 2.2.2.8.26 1.21-.04 1.51h-1.61c-.569-.69-.35-1.18.17-2.18.19-.37.41-.78.57-1.24l.29-.82-.87-.03c-.359-.02-.689-.03-.99-.05-.34-.07-.63-.08-.89-.06-1.87-.14-2.56-.44-5.15-1.55l-1.739-.75.93 1.65c.12.22.24.45.37.69l-.32.36.54.42c.101.09.21.18.311.27 1.31 2.71 2.56 6.31 2.6 10.18l.64-.01h.061.01.57c0-.01 0-.01 0-.02l.43-.01c-.34.1-.67.21-1 .32-.08 6.42.09 12.59.97 18.01.71 4.33 1.87 8.19 3.721 11.33 2.01 3.43 4.84 6.01 8.779 7.43 1.12-.4 2.141-.9 3.08-1.48l2.15 3.4c-1.93 1.21-3.851 2.43-5.771 3.65-24.903-15.94-50.283-30.91-75.973-46.8z" fill="#fff"/><path d="m566.36 64.09h232.13v14.78l-1.26.71c0-4.09 0-8.17 0-12.26-2.431 0-4.851 0-7.28 0-35.99 0-71.98 0-107.97 0-38.53 0-77.061 0-115.591 0z" fill="#fff"/><path d="m567.72 211.22v.96c-.72 0-1.45 0-2.17 0 0-47.73 0-95.46 0-143.2-.05-.78-.09-1.57.53-1.66h.31l.04 4.46 1.19 129.2c-.33.2-.66.41-1 .61v9.47c.37.06.74.11 1.1.16z" fill="#fff"/><path d="m557.15 33.34c8.409 0 15.229 4.97 15.229 11.1 0 3.92-2.79 7.36-7 9.33-2.37 1.12-5.2 1.77-8.229 1.77-2.91 0-5.62-.6-7.931-1.63-4.38-1.94-7.3-5.46-7.3-9.47.001-6.13 6.821-11.1 15.231-11.1z" fill="#c8c8c8"/><path d="m557.15 55.54c3.029 0 5.859-.65 8.229-1.77v267.11h-15.72l-.44-266.97c2.311 1.03 5.021 1.63 7.931 1.63z" fill="#c8c8c8"/><g fill="none"><path d="m566.36 64.09h232.13v14.78 136.43h-230.74" stroke="#231f20" stroke-width="8.3599"/><path d="m549.22 53.91c-4.38-1.94-7.3-5.46-7.3-9.47 0-6.13 6.82-11.1 15.23-11.1 8.409 0 15.229 4.97 15.229 11.1 0 3.92-2.79 7.36-7 9.33-2.37 1.12-5.2 1.77-8.229 1.77-2.91 0-5.62-.6-7.93-1.63z" stroke="#231f20" stroke-width="8.3599"/><path d="m549.22 53.61v.3l.44 266.97" stroke="#231f20" stroke-width="8.3599"/><path d="m565.38 53.05v.72 267.11" stroke="#231f20" stroke-width="8.3599"/><path d="m797.23 79.58 1.26-.71.8-.45" stroke="#231f20" stroke-width="5.5733"/><path d="m566.53 71.78c0-1.33.14-2.53.63-3.35 17.32-2.11 27.01 8.98 37.72 15.6 25.69 15.89 51.07 30.86 75.97 46.8 1.92-1.22 3.841-2.44 5.771-3.65 26.899-16.98 54.52-33.48 82.59-50.95 6.521-4.06 11.34-8.34 20.74-8.34 1.87 0 3.92.17 6.2.54v7.8c-32.65 21.95-66.87 42.29-100.75 62.96 32.76 22.02 67.76 41.73 100.75 63.52v8.35c-2.221.39-4.23.57-6.08.57-8.99 0-14.07-4.19-20.86-8.37-29.51-18.15-59.27-36.58-88.36-54.6-28.93 17.91-58.229 36.07-88.359 54.6-7.41 4.56-12.36 9.61-24.771 7.96-.359-.05-.729-.1-1.1-.16 0-3.15 0-6.31 0-9.47.34-.2.67-.41 1-.61 32.95-20.36 65.84-40.76 98.68-61.23-32.95-20.91-66.17-41.53-99.68-61.85.209-1.79-.091-4.11-.091-6.12z" stroke="#231f20" stroke-width="2.7866"/><path d="m694.36 88.33c.17.05.33.1.489.16-.029 6.41-.229 12.64-1.149 18.15-.3 1.84-.681 3.59-1.16 5.24-1.51 5.18-3.99 9.37-8.07 11.9-.939.58-1.96 1.08-3.08 1.48-3.939-1.42-6.77-4-8.779-7.43-1.851-3.14-3.011-7-3.721-11.33-.88-5.42-1.05-11.59-.97-18.01.33-.11.66-.22 1-.32" stroke="#231f20" stroke-width="1.1943"/><path d="m690.96 87.45c.93.19 1.83.42 2.71.67" stroke="#231f20" stroke-width="1.1943"/><path d="m682.54 89.54c1.93-1.1 5.08-.41 6.39-1.05-.46.83-1.359 1.2-2.689 1.11 1.18 1.09 4.45-.73 5.38 1.67.25 1.74-1.15 1.78-2.69 1.68.641 1.01 2.811.43 3.771 1.11.05 2.08.609 1.59 0 3.34-.48-.34-.96-.67-1.08 0-1.811-.5-.26-1.03-.54-2.78-1.61 0-3.23 0-4.84 0 .229.87 1.689.47 1.069 2.23-2.699-.37-4.35.69-5.92 0 .521-2.2.94-1.03 3.23-1.12-.33-.5-.65-1 0-1.11-3.95-1.1-11.2 6.5-14.55 1.11 1.029-.56 4.27 1.61 6.47 0-.5-1.52-1.69.78-3.23 0-1.88-2.17-5.06-6.31 0-6.69-1.069 1.38-.72 4.87 1.07 5.02-.57-.81 2.5-2.56 1.08-3.9 1.32-1.82 2.44-1.64 4.31-.56-.069 1.04-.35 1.87-1.079 2.23 1.869 1.79 9.6.88 11.859-.56-2.49-2.21-7.16 2.89-9.16-.55.12-.24.28-.45.45-.63.199-.22.439-.4.699-.55" stroke="#231f20" stroke-width=".3981"/><path d="m670.07 106.32c.489-2.02 1.59-.34 3.239-.56-1.96-1.2-4.22-6.64-1.079-6.69.779.85-.681 3.98 1.609 4.46 1.03-1.36 2.59-2.52 1.62-4.46 1.69-.86 3-.35 4.31.56-.01 1.11-1.47.71-1.079 2.23 2.75.79 9.909 1.34 11.859-.56-2.83-2.35-8.819 3.55-9.7-1.67 2.15-.49 4.471-.8 6.62-1.3.5-.11.99-.23 1.46-.37-.229.69-.689 1.14-1.62 1.11.98 1.03 3.25.73 4.311 1.67-.021 1.84-1.53 2.13-3.23 2.23 1.271 1.6 3.051-.55 4.311.56-.59.6.08 1.94-.13 2.92-.09.43-.351.78-.95.98.32-2.63-5.33-5.22-4.851-.55-.59-1.05-4.27 1.14-5.38-.56-.06-2.51 1.62.24 3.23-.56-.19-.73-.95-.88-1.08-1.67-6.03 1.62-9.03 5.07-13.47 2.23z" stroke="#231f20" stroke-width=".3981"/><path d="m673.84 117.46c-.59-2.34 3.21 1.01 3.24-1.67-2.89.42-5.47-2.81-5.39-5.57.35-.75 1.149-1.04 2.149-1.12-.59 1.5-.1 2.86.54 4.46 1.04-1.37 2.59-2.52 1.62-4.46 1.53-.58 2.24-.58 3.77 0 .45 1.58-.76 1.45-.539 2.79 2.939 1.17 8.81.58 11.85 0-.86-4.62-9.13 3.86-9.69-2.23 2.21-.69 5.021-.75 7-1.67-.189.73-.949.88-1.08 1.67 2.03-.43 2.58.68 4.311.56.07.57.02 1.01-.13 1.36-.57 1.33-2.49 1.25-4.181 1.42.36.75 1.15 1.04 2.16 1.12.48 2.99-1.26 4.79-2.7 2.78.351-.56 1.24-.57 1.08-1.67-.3-1.16-.84-1.18-1.609-.56-.74.18-.45 1.4-.54 2.23-.95-1.35-4.55 1.78-4.851-.55-.25-2.29 1.15.22 2.69-.56-.28-.45-.56-.91-.54-1.67-1.37-.43-2.47 2.18-3.23.55.35 1.29-3.64 4.38-5.93 2.79z" stroke="#231f20" stroke-width=".3981"/><path d="m95.25 628.25c0 .74 1.49 1.52 4.06 2.29 16.34 4.88 76.17 9.14 69.54-.56-.16-.24-.36-.48-.6-.73" stroke="#000" stroke-width="7"/><path d="m165.54 633.98c1.17-1.28 2.27-2.62 3.31-4 25.94-34.061 18.26-96.79 30.88-111.181 1.27-1.45 2.74-2.399 4.47-2.8.59-.13 1.21-.2 1.86-.2" stroke="#000" stroke-width="7"/><path d="m216.19 525.93c.01-1.72.77-3.52 2.12-5.34 10.84-14.64 59.8-31.29 65.49-26.189.5.449.67 1.06.45 1.85" stroke="#000" stroke-width="7"/><path d="m283.73 492.16c0 .77.02 1.52.07 2.24 2.22 41.71 67.46 11.27 67.46 11.27" stroke="#000" stroke-width="7"/><path d="m351.26 505.67c40.53-27.02 5.52-70.42 12.99-70.42" stroke="#000" stroke-width="7"/><path d="m364.77 431.38c0 1.05.24 2.08.7 3.08 4.45 9.73 29.64 17.18 60.08 17.18" stroke="#000" stroke-width="7"/><path d="m425.55 451.64c27.021-10.13 12.09-60.78 27.021-60.78" stroke="#000" stroke-width="7"/><path d="m452.57 390.86c38.899 16.2 28.62-28.75 51.62-35.03.96-.27 1.979-.46 3.06-.58" stroke="#000" stroke-width="7"/><path d="m502.25 356.25s.69-.17 1.93-.47c10.511-2.52 60.71-13.84 68.301-2.29.35.53.609 1.12.77 1.76" stroke="#000" stroke-width="7"/><path d="m570.75 350.33c.61 1.05 1.22 2.09 1.83 3.1 67.75 113.629 81.63-4.56 44.71-41.21-.85-.85-1.73-1.65-2.64-2.41" stroke="#000" stroke-width="7"/><path d="m676.53 344.51c.13.14.26.27.39.4.11.11.22.23.33.34" stroke="#000" stroke-width="7"/><path d="m617.25 312.25c.01-.01.03-.02.04-.03 27.55-24.55 42.63 14.93 59.2 32.24" stroke="#000" stroke-width="7"/><path d="m675.44 340.2c0 1.99.359 3.38 1.05 4.26.01.02.02.04.04.05.12.15.25.29.39.4 7.68 6.59 44.33-29.45 86.311-11.46" stroke="#000" stroke-width="7"/><path d="m758.25 331.25c2 .11 3.66.87 4.99 2.19 18.99 18.66-24.74 149.68-41.41 152.75-.2.04-.39.06-.58.06" stroke="#000" stroke-width="7"/><path d="m726.09 482.03c0 1.62-1.55 2.979-4.26 4.16-17.67 7.71-84.72 8.029-95.19 24.46-.909 1.409-1.39 2.939-1.39 4.6" stroke="#000" stroke-width="7"/><path d="m485.53 765.18c-3.311 1.79-6.78 3.74-10.391 5.88-.76.44-1.529.9-2.31 1.37" stroke="#000" stroke-width="7"/><path d="m565.25 794.25c-.04-.34-.08-.67-.12-1.01-3.8-30.061-10.18-65.51-79.59-28.07" stroke="#000" stroke-width="7"/><path d="m467.25 770.25c-.35-.56-.87-1.28-1.55-2.12-9.021-11.189-45.88-44.229-77.29-15.96" stroke="#000" stroke-width="7"/><path d="m388.41 752.17c-34.65 34.65-361.16-108.92-289.16-120.92" stroke="#000" stroke-width="7"/><path d="m628.16 505.67c-.53 1.65-1.04 3.311-1.521 4.98-21.75 73.029-14 153.729-32.25 153.729" stroke="#000" stroke-width="7"/><path d="m594.39 664.38c-49.39 36.22 26.45 133.45-29.26 128.86-1.41-.11-2.92-.3-4.51-.55" stroke="#000" stroke-width="7"/><path d="m199.25 519.25c.15-.15.31-.3.48-.45 1.24-1.12 2.8-2.06 4.47-2.8 6.76-2.99 15.44-2.53 13.05 4.25" stroke="#000" stroke-width="7"/><path d="m462.25 766.25c0-.53 1.31.59 3.45 1.88 2.359 1.42 5.72 3.05 9.439 2.93 3.33-.1 6.94-1.6 10.391-5.88.01 0 .01-.01.01-.01.24-.29.479-.6.71-.92" stroke="#000" stroke-width="7"/><path d="m.25.25h850.394v850.394h-850.394z"/></g></svg>