<svg enable-background="new 0 0 850.89 850.89" height="850.89" viewBox="0 0 850.89 850.89" width="850.89" xmlns="http://www.w3.org/2000/svg"><path d="m671.17 113.5v20.02h-.04-23.3v-4.24l-.99-4.45 4.2-3.14-5.8-.65-2.6-4.04v-3.5z" fill="#ed1e29"/><path d="m671.17 85.09v20.76h-32.67v-.37l32.63-20.39z" fill="#394ea1"/><path d="m616.07 170.78h-7.65v-1.06-17.61-18.49c.04-.03.061-.07.1-.1h39.311 23.3.04v7.65h-.04-27.54-9.899-9.65-7.97v3.57 25.49.55z" fill="#fff"/><path d="m671.17 141.17v17.25h-1.91l-25.67-17.11v-.14h27.54z" fill="#394ea1"/><path d="m671.17 169.21v1.57h-13.3v-.55l-41.8-25.49v-3.57h7.97l45.56 28.04z" fill="#fff"/><path d="m657.87 170.78h-41.8v-.55-25.49l41.8 25.49z" fill="#394ea1"/><path d="m656.9 74.75-40.32 25.77h-.51v-26.56h40.83z" fill="#394ea1"/><path d="m577.18 170.78h1.12 6.02 24.1 7.65 41.8 13.3v-1.57-5.1-5.69-17.25-7.65-20.02-7.65-20.76-9.04-2.09h-5.65-8.62-40.83v-1.11-.79h184.48v17.65 162.92h-275.54l-.75-81.85h7.18 8.51z" fill="#fbed24"/><path d="m669.6 164.11-35.91-22.94h9.9v.14l25.67 17.11h1.91v5.69z" fill="#fff"/><path d="m640.04 121.04 2.6-4.04 2.6 4.04 5.8.65-4.2 3.14.99 4.45-5.19-2.1-5.2 2.1.99-4.45-4.2-3.14z" fill="#fbed24"/><path d="m638.5 105.48v.37h-12.03l44.7-29.8v9.04h-.04z" fill="#fff"/><path d="m633.69 141.17 35.91 22.94h1.57v5.1h-1.57l-45.56-28.04z" fill="#ed1e29"/><path d="m671.17 76.05-44.7 29.8h-7.85v-.37l46.9-31.1v-.42h5.65z" fill="#ed1e29"/><path d="m626.47 105.85h12.03 32.67v7.65h-28.53-32.6c-.48-.71-1.021-1.4-1.62-2.02v-22.25-15.27h7.65v26.56 5.33h2.55z" fill="#fff"/><path d="m665.52 74.38-46.9 31.1v.37h-2.55v-5.33h.51l40.32-25.77v-.79h8.62z" fill="#fff"/><path d="m616.07 73.96h-7.65v-1.11-.79h7.65v.79z" fill="#fff"/><path d="m637.44 129.28 5.199-2.1 5.19 2.1v4.24h-39.309c2.671-2.88 4.301-6.73 4.301-10.97 0-3.36-1.021-6.47-2.78-9.05h32.6v3.5l-2.6 4.04-5.81.65 4.199 3.14z" fill="#ed1e29"/><path d="m608.42 111.48c.6.62 1.14 1.31 1.62 2.02h-1.62z" fill="#fff"/><path d="m608.52 133.52c-.039.03-.06.07-.1.1v-.1z" fill="#fff"/><path d="m608.42 73.96v15.27h-3.96l-5.81-.65-2.6-4.04-2.6 4.04-5.81.65h-4.34v-15.27z" fill="#ed1e29"/><path d="m583.3 73.96h-7.65v-1.11-.79h32.77v.79 1.11z" fill="#fff"/><path d="m592.8 155.26-1 4.44 5.2-2.1 5.19 2.1-.99-4.44 4.21-3.15h3.01v17.61 1.06h-24.1v-.04-18.63h4.27z" fill="#ed1e29"/><path d="m596.68 106.41c-5.569 0-10.479 2.81-13.38 7.1v-24.28h4.34l4.21 3.15-1 4.44 5.2-2.1 5.19 2.1-.99-4.44 4.21-3.15h3.96v22.25c-2.94-3.13-7.11-5.07-11.74-5.07z" fill="#ed1e29"/><path d="m587.57 118.43 7.17-1.04 3.21-6.51 3.21 6.51 7.17 1.04-5.19 5.06 1.23 7.15-6.42-3.38-6.42 3.38 1.23-7.15z" fill="#fbed24"/><path d="m604.37 130.64-1.23-7.15 5.19-5.06-7.17-1.04-3.21-6.51-3.21 6.51-7.17 1.04 5.189 5.06-1.229 7.15 6.42-3.38zm-7.69 8.05c-4.939 0-9.359-2.21-12.319-5.71-2.391-2.81-3.83-6.45-3.83-10.43 0-3.14.89-6.06 2.439-8.54h.33v-.5c2.9-4.29 7.811-7.1 13.38-7.1 4.63 0 8.801 1.94 11.74 5.07v2.02h1.62c1.76 2.58 2.78 5.69 2.78 9.05 0 4.24-1.63 8.09-4.301 10.97h-.1v.1c-2.939 3.12-7.109 5.07-11.739 5.07z" fill="#394ea1"/><path d="m588.59 152.11 5.81-.65 2.6-4.04 2.6 4.04 5.81.65-4.21 3.15.99 4.44-5.19-2.1-5.2 2.1 1-4.44z" fill="#fbed24"/><path d="m587.64 89.23 5.81-.65 2.6-4.04 2.6 4.04 5.81.65-4.21 3.15.99 4.44-5.19-2.1-5.2 2.1 1-4.44z" fill="#fbed24"/><path d="m584.36 132.98c2.96 3.5 7.38 5.71 12.319 5.71 4.63 0 8.801-1.95 11.74-5.07v18.49h-3.01l-5.811-.65-2.6-4.04-2.6 4.04-5.811.65h-4.27v-19.1z" fill="#ed1e29"/><path d="m584.32 170.74v.04h-6.02-1.12v-.55-20.37-6.83-2.88h-5.47-13.69-34.04l-.07-7.14h34.07 26.34v19.1z" fill="#fff"/><path d="m583.3 113.51v.5h-.33c.11-.17.22-.34.33-.5z" fill="#fff"/><path d="m584.32 133.01h-26.34v-4.21l-.99-4.44 4.21-3.15-5.811-.65-2.6-4.04v-2.51h30.18c-1.55 2.48-2.439 5.4-2.439 8.54 0 3.98 1.439 7.62 3.83 10.43z" fill="#ed1e29"/><path d="m577.18 149.86v20.37.55h-37.23v-.95l35.18-19.97z" fill="#394ea1"/><path d="m575.65 73.96v29.48h-.37l-38.74-29.06v-.42z" fill="#394ea1"/><path d="m571.71 140.15v.51l-47.48 27.13-.07-7.84 33.86-19.59v-.21z" fill="#fff"/><path d="m520.89 455.84c18.811 33.93 58.641 60.78 48.32 113.73-9.18 47.069-44.96 77.62-70.46 115.75-11.24 16.8-21.14 38.39-33.22 60.39-9.37 17.08-26.5 45.2-44.28 48.32-10.12 1.77-19.83-5.08-30.2-5.04-15.7.069-41.99 12.729-57.37 18.12-18.78 6.58-40.37 18.149-59.39 15.1-9.79-1.57-17.28-12.7-26.16-18.12-9.06-5.52-20.93-10.95-32.21-18.12-10.86-6.89-23-13.899-34.22-16.1-16.44-3.22-33.07 1.09-55.36-3.021-5.26 5.41-10.11 15.71-22.15 11.07-3.06-26.9 22.85-37.64 28.19-63.41 5.59-27.05-10.52-74.43-27.18-85.55-18.26-12.2-58.88-6.34-65.42-28.19-2.07-6.88.6-19.729 3.02-25.159 8.9-20.051 30.66-27.11 45.29-47.311 8.4-11.58 14.58-26.93 15.1-48.31 1.19-49.71-23.33-108.29 7.04-142.92 13.08-14.91 43.18-20.9 57.37-36.24 14.15-15.29 12.93-40.84 26.17-58.38 7.15-9.46 16.76-17.56 26.17-28.18 10.01-11.28 17.06-24.68 28.19-31.2 15.16-8.89 33.49-7.7 57.37-10.07 20.83-2.06 42.73-8.25 61.39-3.02 27.64 7.75 38.13 49.48 50.33 75.49 6.49 13.83 13.94 26.9 22.14 40.26 15.72 25.61 35.09 48.65 47.31 78.51 11.95 29.191 19.66 65.321 34.22 91.601zm-204.84 351.86-10.36-.48c3.32.59 6.79.71 10.36.48z" fill="#fff5b4"/><path d="m558.77 106.36h9.711 7.17v-2.92-29.48h7.649v15.27 24.28c-.109.16-.22.33-.33.5h-30.18-29.06l-.07-7.65h24.85z" fill="#fff"/><path d="m558.02 140.36-33.86 19.59-.18-19.8h34.04z" fill="#394ea1"/><path d="m557.98 133.01h-34.07l-.18-19h29.06v2.51l-2.6 4.04-5.81.65 4.21 3.15-1 4.44 5.2-2.1 5.19 2.1z" fill="#ed1e29"/><path d="m548.51 106.13-25.01-16.97-.07-7.83 35.34 25.03h-10.26z" fill="#fff"/><path d="m561.2 121.21-4.21 3.15.99 4.44-5.19-2.1-5.2 2.1 1-4.44-4.21-3.15 5.81-.65 2.6-4.04 2.6 4.04z" fill="#fbed24"/><path d="m548.51 106.36h-24.85l-.16-17.2 25.01 16.97z" fill="#394ea1"/><path d="m576.84 143.03h.34v6.83h-2.05l-35.18 19.97v.95h-8.51v-1.06z" fill="#fff"/><path d="m575.65 103.44v2.92h-7.17v-.23l-44.69-32.17h12.75v.42l38.74 29.06z" fill="#fff"/><path d="m571.71 140.15h5.47v2.88h-.34l-45.4 26.69v1.06h-7.18l-.03-2.99 47.48-27.13z" fill="#ed1e29"/><path d="m523.79 73.96 44.69 32.17v.23h-9.71l-35.34-25.03-.06-7.37z" fill="#ed1e29"/><path d="m523.36 73.65.43.31h-.42z" fill="#fff"/><path d="m523.35 72.06h52.3v.79 1.11h-39.11-12.75l-.43-.31z" fill="#fff"/><path d="m502.87 59.91c2.76 1.23 6 1.94 9.47 1.94 3.62 0 7-.78 9.84-2.11v13.06 7.7 7.76 18.1 7.65 19 7.14 20.9 7.92 209.73h-18.77z" fill="#c8c8c8"/><path d="m502.87 59.91c-5.22-2.33-8.71-6.52-8.71-11.32 0-7.32 8.14-13.25 18.18-13.25 10.05 0 18.19 5.93 18.19 13.25 0 4.68-3.33 8.79-8.351 11.15-2.84 1.33-6.22 2.11-9.84 2.11-3.469 0-6.709-.71-9.469-1.94z" fill="#c8c8c8"/><path d="m305.69 807.22 10.36.48c-3.57.23-7.04.11-10.36-.48z" fill="#fff"/><g fill="none"><path d="m523.35 72.06h52.3 32.77 7.65 184.48v17.65 162.92h-275.54" stroke="#231f20" stroke-width="7"/><path d="m502.87 59.91c-5.22-2.33-8.71-6.52-8.71-11.32 0-7.32 8.14-13.25 18.18-13.25 10.05 0 18.19 5.93 18.19 13.25 0 4.68-3.33 8.79-8.351 11.15-2.84 1.33-6.22 2.11-9.84 2.11-3.469 0-6.709-.71-9.469-1.94z" stroke="#231f20" stroke-width="7"/><path d="m502.87 59.54v.37l.54 318.79" stroke="#231f20" stroke-width="7"/><path d="m522.18 58.88v.86 13.06 7.7 7.76 18.1 7.65 19 7.14 20.9 7.92 209.73" stroke="#231f20" stroke-width="7"/><path d="m798.92 90.63 1.63-.92.95-.54" stroke="#231f20" stroke-width="2"/><path d="m578.3 170.78h-1.12-37.23-8.51-7.18-.84" stroke="#231f20" stroke-width="2"/><path d="m522.54 73.96h.83.42 12.75 39.11 7.65 25.12 7.65 40.83 8.62 5.65v2.09 9.04 20.76 7.65 20.02 7.65 17.25 5.69 5.1 1.57h-13.3-41.8-7.65-24.1-6.02" stroke="#231f20" stroke-width="2"/><path d="m608.42 111.48v-22.25-15.27-1.11" stroke="#231f20" stroke-width="2"/><path d="m671.64 113.5h-.47-28.53-32.6" stroke="#231f20" stroke-width="2"/><path d="m582.97 114.01h-30.18-29.06-1.55-.43" stroke="#231f20" stroke-width="2"/><path d="m583.3 73.36v.6 15.27 24.28" stroke="#231f20" stroke-width="2"/><path d="m521.75 133.01h.43 1.73 34.07 26.34v19.1 18.63" stroke="#231f20" stroke-width="2"/><path d="m608.52 133.52h39.31 23.3" stroke="#231f20" stroke-width="2"/><path d="m608.42 169.72v-17.61-18.49" stroke="#231f20" stroke-width="2"/><path d="m575.65 72.85v1.11 29.48 2.92h-7.17-9.71-10.26-24.85-1.48-.43" stroke="#231f20" stroke-width="2"/><path d="m671.64 105.85h-.47-32.67-12.03-7.85-2.55v-5.33-26.56-1.11" stroke="#231f20" stroke-width="2"/><path d="m521.24 140.15h.94 1.8 34.04 13.69 5.47v2.88 6.83 20.37" stroke="#231f20" stroke-width="2"/><path d="m616.07 170.23v-25.49-3.57h7.97 9.65 9.9 27.54" stroke="#231f20" stroke-width="2"/><path d="m536.54 74.38 38.74 29.06" stroke="#231f20" stroke-width="2"/><path d="m522.26 80.5 1.17.83 35.34 25.03.2.14" stroke="#231f20" stroke-width="2"/><path d="m521.89 88.06.29.2 1.32.9 25.01 16.97" stroke="#231f20" stroke-width="2"/><path d="m616.58 100.52 40.32-25.77" stroke="#231f20" stroke-width="2"/><path d="m618.62 105.48 46.9-31.1" stroke="#231f20" stroke-width="2"/><path d="m626.26 105.99.21-.14 44.7-29.8.98-.65" stroke="#231f20" stroke-width="2"/><path d="m638.5 105.48 32.63-20.39" stroke="#231f20" stroke-width="2"/><path d="m531.44 169.72 45.4-26.69" stroke="#231f20" stroke-width="2"/><path d="m521.75 169.21.43-.24 2.05-1.18 47.48-27.13" stroke="#231f20" stroke-width="2"/><path d="m575.13 149.86-35.18 19.97" stroke="#231f20" stroke-width="2"/><path d="m522.26 161.05 1.9-1.1 33.86-19.59" stroke="#231f20" stroke-width="2"/><path d="m669.6 169.21-45.56-28.04-.83-.51" stroke="#231f20" stroke-width="2"/><path d="m616.07 144.74 41.8 25.49" stroke="#231f20" stroke-width="2"/><path d="m632.89 140.66.8.51 35.91 22.94" stroke="#231f20" stroke-width="2"/><path d="m643.59 141.31 25.67 17.11" stroke="#231f20" stroke-width="2"/><path d="m520.94 71.9 1.24.9 1.18.85.43.31 44.69 32.17" stroke="#231f20" stroke-width="2"/><path d="m610.04 113.5c1.76 2.58 2.78 5.69 2.78 9.05 0 4.24-1.63 8.09-4.301 10.97-.039.03-.06.07-.1.1-2.939 3.12-7.11 5.07-11.74 5.07-4.939 0-9.359-2.21-12.319-5.71-2.391-2.81-3.83-6.45-3.83-10.43 0-3.14.89-6.06 2.439-8.54.11-.17.221-.34.33-.5 2.9-4.29 7.811-7.1 13.38-7.1 4.63 0 8.801 1.94 11.74 5.07.601.62 1.141 1.31 1.621 2.02z" stroke="#231f20" stroke-width="2"/><path d="m608.33 118.43-5.19 5.06 1.23 7.15-6.42-3.38-6.42 3.38 1.23-7.15-5.19-5.06 7.17-1.04 3.21-6.51 3.21 6.51z" stroke="#231f20" stroke-width="2"/><path d="m557.98 128.8-5.19-2.1-5.2 2.1 1-4.44-4.21-3.15 5.81-.65 2.6-4.04 2.6 4.04 5.81.65-4.21 3.15z" stroke="#231f20" stroke-width="2"/><path d="m604.46 89.23-4.21 3.15.99 4.44-5.19-2.1-5.2 2.1 1-4.44-4.21-3.15 5.81-.65 2.6-4.04 2.6 4.04z" stroke="#231f20" stroke-width="2"/><path d="m605.41 152.11-4.21 3.15.99 4.44-5.19-2.1-5.2 2.1 1-4.44-4.21-3.15 5.81-.65 2.6-4.04 2.6 4.04z" stroke="#231f20" stroke-width="2"/><path d="m647.83 129.28-5.19-2.1-5.2 2.1.99-4.45-4.2-3.14 5.81-.65 2.6-4.04 2.6 4.04 5.8.65-4.2 3.14z" stroke="#231f20" stroke-width="2"/><path d="m104.19 777.92c-3.06-26.9 22.85-37.64 28.19-63.41 5.59-27.05-10.52-74.43-27.18-85.55-18.26-12.2-58.88-6.34-65.42-28.19-2.07-6.88.6-19.729 3.02-25.159 8.9-20.051 30.66-27.11 45.29-47.311 8.4-11.58 14.58-26.93 15.1-48.31 1.19-49.71-23.33-108.29 7.04-142.92 13.08-14.91 43.18-20.9 57.37-36.24 14.15-15.29 12.93-40.84 26.17-58.38 7.15-9.46 16.76-17.56 26.17-28.18 10.01-11.28 17.06-24.68 28.19-31.2 15.16-8.89 33.49-7.7 57.37-10.07 20.83-2.06 42.73-8.25 61.39-3.02 27.64 7.75 38.13 49.48 50.33 75.49 6.49 13.83 13.94 26.9 22.14 40.26 15.72 25.61 35.09 48.65 47.31 78.51 11.95 29.19 19.66 65.319 34.22 91.6 18.811 33.93 58.641 60.78 48.32 113.73-9.18 47.069-44.96 77.62-70.46 115.75-11.24 16.8-21.14 38.39-33.22 60.39-9.37 17.08-26.5 45.2-44.28 48.32-10.12 1.77-19.83-5.08-30.2-5.04-15.7.069-41.99 12.729-57.37 18.12-18.78 6.58-40.37 18.149-59.39 15.1-9.79-1.57-17.28-12.7-26.16-18.12-9.06-5.52-20.93-10.95-32.21-18.12-10.86-6.89-23-13.899-34.22-16.1-16.44-3.22-33.07 1.09-55.36-3.021-5.26 5.411-10.11 15.711-22.15 11.071z" stroke="#231f20" stroke-width="6.8708"/><path clip-rule="evenodd" d="m.25.25h850.394v850.394h-850.394z"/></g></svg>