<svg enable-background="new 0 0 850.394 850.394" height="850.394" viewBox="0 0 850.394 850.394" width="850.394" xmlns="http://www.w3.org/2000/svg"><path d="m780.36 496.07v250.76h-61.92l-.66.01-.03-123.67c0-13.8-13.34-25.01-29.79-25.01h-524.71c-16.45 0-29.78 11.21-29.78 25.01v123.67l-.75-.01h-65.72v-250.76z" fill="#ffa500"/><path d="m675.99 286.15 104.37 209.92h-713.36l104.6-210.31z" fill="#ffffc2"/><path d="m780.36 496.07-104.37-209.92-504.39-.39-104.6 210.31" fill="none" stroke="#000" stroke-width="26.2776"/><path d="m780.36 496.07v250.76h-61.92l-.66.01-.03-123.67c0-13.8-13.34-25.01-29.79-25.01h-524.71c-16.45 0-29.78 11.21-29.78 25.01v123.67l-.75-.01h-65.72v-250.76z" fill="none" stroke="#000" stroke-width="26.2776"/><path d="m0 0h850.394v850.394h-850.394z" fill="none"/><path d="m689.854 378.038-66.088 109.711-88.479-53.297 7.529-12.498 58.56-97.213 77.679 46.792z" fill="#a3d9ff"/><path d="m686.584 359.035-7.529 12.498-77.679-46.792-58.56 97.213-10.798-6.505 6.82-11.322 59.267-98.39 77.551 46.716z" fill="#ffd3f7"/><path d="m682.477 341.131-6.821 11.322-77.551-46.716-59.267 98.39-10.928-6.583 66.089-109.711z" fill="#ffeec8"/><path d="m675.656 352.453 10.928 6.582-7.529 12.498" fill="none" stroke="#000" stroke-width="7"/><path d="m538.838 404.127 59.267-98.39 77.551 46.716" fill="none" stroke="#000" stroke-width="7"/><path d="m538.838 404.127-10.928-6.583 66.089-109.711 88.478 53.298-6.821 11.322" fill="none" stroke="#000" stroke-width="7"/><path d="m542.816 421.954-10.798-6.505 6.82-11.322" fill="none" stroke="#000" stroke-width="7"/><path d="m542.816 421.954 58.56-97.213 77.679 46.792" fill="none" stroke="#000" stroke-width="7"/><path d="m679.055 371.533 10.799 6.505-66.088 109.711-88.479-53.297 7.529-12.498" fill="none" stroke="#000" stroke-width="7"/><path d="m524.388 304.113v.601h-5.665-10.795-5.885v-.601-28.471h22.345z" fill="#fff"/><path d="m518.723 304.714v92.03c0 2.982-2.416 5.398-5.396 5.398-1.488 0-2.84-.604-3.817-1.581s-1.581-2.326-1.581-3.817v-92.03z" fill="#fff"/><path d="m486.106 306.337-.224 83.921s-.432 9.066-9.084 12.901c0 0-16.129 6.523-34.985 5.825l.494.02c-18.856.696-34.987-5.828-34.987-5.828-8.653-3.835-9.082-12.901-9.082-12.901l-.222-83.921c0-7.641 1.813-9.646 5.788-11.735 0 0 6.239-4.955 17.774-6.862l-.332 1.237s3.965 4.658 21.026 4.658h.519c17.062 0 20.844-4.658 20.844-4.658l-.294-1.092c11.537 1.908 16.974 6.7 16.974 6.7 3.977 2.09 5.791 4.095 5.791 11.735z" fill="#fff"/><path d="m463.341 287.902.294 1.092s-3.782 4.658-20.844 4.658h-.519c-17.061 0-21.026-4.658-21.026-4.658l.332-1.237 4.924-18.34h2.863 12.906 1.811 11.354 2.939z" fill="#f73900"/><path d="m455.437 268.931v.486c-2.138 0-5.679 0-11.354 0h-1.811c-6.361 0-10.48 0-12.906 0v-.299s3.177-16.974 5.309-25.699 13.32-8.912 15.452-.187c2.135 8.726 5.31 25.699 5.31 25.699z" fill="#f73900"/><path d="m463.341 287.902c11.537 1.908 16.974 6.7 16.974 6.7 3.978 2.09 5.792 4.094 5.792 11.735l-.224 83.921s-.432 9.066-9.084 12.901c0 0-16.129 6.523-34.985 5.825l.494.02c-18.856.696-34.987-5.828-34.987-5.828-8.653-3.835-9.082-12.901-9.082-12.901l-.222-83.921c0-7.641 1.813-9.646 5.788-11.735 0 0 6.239-4.955 17.774-6.862" fill="none" stroke="#000" stroke-width="7"/><path d="m421.579 287.758-.332 1.237s3.965 4.658 21.026 4.658h.519c17.062 0 20.844-4.658 20.844-4.658l-.294-1.092-4.965-18.485s-.698 0-2.939 0c-2.138 0-5.679 0-11.354 0h-1.811c-6.361 0-10.48 0-12.906 0-2.013 0-2.863 0-2.863 0z" fill="none" stroke="#000" stroke-width="7"/><path d="m518.723 304.714v92.03c0 2.982-2.416 5.398-5.396 5.398-1.488 0-2.84-.604-3.817-1.581s-1.581-2.326-1.581-3.817v-92.03" fill="none" stroke="#000" stroke-width="4.8823"/><path d="m455.437 268.931s-3.175-16.974-5.31-25.699c-2.132-8.725-13.32-8.538-15.452.187s-5.309 25.699-5.309 25.699" fill="none" stroke="#000" stroke-width="7"/><path d="m502.043 304.113v-28.471h22.345v28.471" fill="none" stroke="#000" stroke-width="7"/><path d="m499.455 304.714h2.588 5.885 10.795 5.665 2.883" fill="none" stroke="#000" stroke-linecap="round" stroke-linejoin="round" stroke-width="4.8823"/><path d="m259.575 358.105 3.039 3.437-3.91 4.849c-.211-1.977-3.112-2.641-3.6-2.738z" fill="#f73900"/><path d="m255.104 363.653c.488.097 3.389.761 3.6 2.738.167 1.553-8.25 17.683-8.381 17.933-.087-2.098-1.521-4.632-4.011-6.636-1.925-1.553-4.059-2.448-5.903-2.622l14.627-11.427c-.001 0 .023.005.068.014z" fill="#ffeec8"/><path d="m240.408 375.066c1.844.173 3.978 1.069 5.903 2.622 2.491 2.004 3.924 4.538 4.011 6.636 0 .003-.001.004-.001.004.04.951-.198 1.813-.742 2.497l-47.812 59.319c.526-1.352.203-3.133-.805-4.896-.703-1.23-1.742-2.453-3.06-3.515-1.231-.991-2.544-1.714-3.815-2.153-2.465-.854-4.762-.63-5.933.8l48.387-60.033.007.005c.827-1.026 2.229-1.439 3.86-1.286z" fill="#f73900"/><path d="m225.362 363.722 2.483 3.857-4.599 4.203c.089-1.988-2.677-3.083-3.144-3.254z" fill="#0b00ea"/><path d="m220.103 368.528c.467.17 3.233 1.266 3.144 3.254-.071 1.572-11.002 16.461-11.002 16.461.234-2.089-.799-4.811-2.957-7.172-1.667-1.825-3.643-3.036-5.438-3.484l16.187-9.083c-.001 0 .022.007.066.024z" fill="#ffeec8"/><path d="m200.778 441.389.184-.14c1.008 1.763 1.332 3.544.805 4.896l-11.535 14.313c.534-1.365.2-3.17-.833-4.95z" fill="#f73900"/><path d="m186.642 452.266c1.171.991 2.105 2.112 2.758 3.241 1.033 1.78 1.367 3.585.833 4.95-.117.306-.279.586-.484.842-1.763 2.188-6.133 1.591-9.761-1.334-3.63-2.926-5.143-7.069-3.379-9.259.086-.11.183-.212.283-.307 1.243-1.178 3.415-1.305 5.73-.49 1.25.442 2.54 1.158 3.75 2.132.091.073.18.148.27.225z" fill="#f73900"/><path d="m186.642 452.266c-.09-.076-.178-.151-.271-.225-1.209-.974-2.5-1.689-3.75-2.132l11.314-14.037.152-.291c1.271.439 2.584 1.162 3.815 2.153 1.318 1.062 2.356 2.284 3.06 3.515l-.184.14-11.378 14.118c-.653-1.129-1.587-2.25-2.758-3.241z" fill="#f73900"/><path d="m182.621 449.909c-2.315-.814-4.487-.688-5.73.49l-.018-.02 11.267-13.98.014-.019c1.171-1.43 3.468-1.653 5.933-.8l-.152.291z" fill="#f73900"/><path d="m154.833 437.027c-.51-1.321-1.352-2.686-2.489-3.931-1.078-1.179-2.282-2.101-3.485-2.727-2.306-1.202-4.601-1.317-5.965-.07l56.937-52.034.007.008c.974-.89 2.421-1.087 4.011-.687 1.796.449 3.771 1.659 5.438 3.484 2.158 2.361 3.191 5.083 2.957 7.172-.107.944-.474 1.76-1.112 2.354l-56.248 51.404c.732-1.256.682-3.071-.051-4.973z" fill="#0b00ea"/><path d="m152.344 433.097c1.138 1.245 1.979 2.609 2.489 3.931l-.199.117-13.385 12.232c-.476-1.215-1.229-2.463-2.237-3.621-.077-.088-.154-.176-.233-.262-1.048-1.147-2.216-2.051-3.385-2.674l13.311-12.165.155-.285c1.202.626 2.406 1.548 3.484 2.727z" fill="#0b00ea"/><path d="m141.323 454.395c.732-1.269.676-3.102-.074-5.018l13.385-12.232.199-.117c.733 1.901.783 3.717.051 4.975l-.168.153z" fill="#0b00ea"/><path d="m135.393 442.82c-2.162-1.159-4.329-1.362-5.735-.386l-.017-.024 13.252-12.11c1.364-1.247 3.659-1.132 5.965.07l-.155.285z" fill="#0b00ea"/><path d="m140.716 455.153c-2.073 1.897-6.304.645-9.448-2.796-3.144-3.439-4.012-7.767-1.938-9.662.105-.096.213-.182.328-.261 1.406-.977 3.573-.773 5.735.386 1.169.623 2.337 1.526 3.385 2.674.079.086.156.174.233.262 1.008 1.158 1.761 2.406 2.237 3.621.75 1.916.807 3.749.074 5.018-.162.282-.364.538-.606.758z" fill="#0b00ea"/><g fill="none"><path d="m135.393 442.82c1.169.623 2.337 1.526 3.385 2.674.079.086.156.174.233.262 1.008 1.158 1.761 2.406 2.237 3.621.75 1.916.807 3.749.074 5.018-.163.282-.366.538-.607.759-2.073 1.897-6.304.645-9.448-2.796-3.144-3.439-4.012-7.767-1.938-9.662.105-.096.213-.182.328-.261 1.407-.977 3.574-.774 5.736.385z" stroke="#000" stroke-width="3.0721"/><path d="m142.894 430.3c1.364-1.247 3.659-1.132 5.965.07 1.203.626 2.408 1.548 3.485 2.727 1.138 1.245 1.979 2.609 2.489 3.931.733 1.901.783 3.717.051 4.975-.01.021-.021.039-.032.058" stroke="#000" stroke-width="3.0721"/><path d="m211.24 390.716c-.006.006-.011.01-.017.016" stroke="#000" stroke-width="3.0721"/><path d="m199.837 378.273c.974-.89 2.421-1.087 4.011-.687 1.796.449 3.771 1.659 5.438 3.484 2.158 2.361 3.191 5.083 2.957 7.172-.107.944-.474 1.76-1.112 2.354" stroke="#000" stroke-width="3.0721"/><path d="m154.716 442.155-13.393 12.24-.103.094" stroke="#000" stroke-width="3.0721"/><path d="m211.132 390.598-56.248 51.404-.168.153" stroke="#000" stroke-width="3.0721"/><path d="m129.642 442.41 13.252-12.11 56.937-52.034.016-.016" stroke="#000" stroke-width="3.0721"/><path d="m135.322 442.885.071-.065 13.311-12.165" stroke="#000" stroke-width="3.0721"/><path d="m138.929 445.832.083-.076 12.801-11.699" stroke="#000" stroke-width="3.0721"/><path d="m141.145 449.473.104-.096 13.385-12.232" stroke="#000" stroke-width="3.0721"/><path d="m203.712 377.663.137-.077 16.187-9.083s.023.007.067.024c.467.17 3.233 1.266 3.144 3.254-.071 1.572-11.002 16.461-11.002 16.461" stroke="#000" stroke-width="3.0721"/><path d="m220.078 368.55.025-.022 5.259-4.806 2.483 3.857-4.599 4.203" stroke="#000" stroke-width="3.0721"/><path d="m182.621 449.909c1.25.442 2.54 1.158 3.75 2.132.093.073.181.148.271.225 1.171.991 2.105 2.112 2.758 3.241 1.033 1.78 1.367 3.585.833 4.95-.117.306-.279.586-.484.842-1.763 2.188-6.133 1.591-9.761-1.334-3.63-2.926-5.143-7.069-3.379-9.259.086-.11.183-.212.283-.307 1.242-1.177 3.414-1.304 5.729-.49z" stroke="#000" stroke-width="3.0721"/><path d="m188.154 436.381c1.171-1.43 3.468-1.653 5.933-.8 1.271.439 2.584 1.162 3.815 2.153 1.318 1.062 2.356 2.284 3.06 3.515 1.008 1.763 1.332 3.544.805 4.896-.012.037-.027.073-.042.106" stroke="#000" stroke-width="3.0721"/><path d="m249.704 386.925c-.003.006-.008.013-.014.019" stroke="#000" stroke-width="3.0721"/><path d="m250.321 384.329c.04.951-.198 1.813-.742 2.497" stroke="#000" stroke-width="3.0721"/><path d="m236.549 376.353c.827-1.027 2.229-1.44 3.859-1.287 1.844.173 3.978 1.069 5.903 2.622 2.491 2.004 3.924 4.538 4.011 6.636" stroke="#000" stroke-width="3.0721"/><path d="m249.579 386.825-47.812 59.32-11.535 14.312-.026.033" stroke="#000" stroke-width="3.0721"/><path d="m176.873 450.38 11.267-13.981.014-.018 48.388-60.033.015-.02" stroke="#000" stroke-width="3.0721"/><path d="m182.532 450.02.089-.111 11.314-14.037" stroke="#000" stroke-width="3.0721"/><path d="m186.59 452.33.052-.064 10.88-13.502" stroke="#000" stroke-width="3.0721"/><path d="m189.321 455.604.079-.097 11.378-14.118" stroke="#000" stroke-width="3.0721"/><path d="m240.287 375.16.121-.094 14.627-11.427s.023.004.069.014c.488.097 3.389.761 3.6 2.738.167 1.553-8.25 17.683-8.381 17.933 0 .003-.001.004-.001.004" stroke="#000" stroke-width="3.0721"/><path d="m255.082 363.679.022-.026 4.471-5.548 3.039 3.437-3.91 4.849" stroke="#000" stroke-width="3.0721"/></g><path d="m358.389 205.012v120.676h-.153-78.083-.059v-120.676h.089 78.087z" fill="#33a02c"/><path d="m358.236 329.19v4.849c0 9.156-5.803 16.58-12.926 16.58h-52.229c-7.153 0-12.929-7.424-12.929-16.58v-4.849-3.502h78.083v3.502z" fill="#33a02c"/><path d="m358.27 197.949v4.846 2.217h-78.086v-2.217-4.846c0-6.107 2.572-11.465 6.405-14.309 1.917-1.466 4.131-2.274 6.524-2.274h52.229c2.033 0 3.952.599 5.654 1.678 4.311 2.691 7.274 8.351 7.274 14.905z" fill="#33a02c"/><path d="m331.362 153.622v3.442h-8.708v-1.466-26.759h8.708z" fill="#fff"/><path d="m314.991 128.839h7.663v26.759 1.466h-16.014v-3.532-24.693z" fill="#fff"/><path d="m358.27 205.012h.119v120.676h-.153-78.083-.059v-120.676h.089z" fill="none" stroke="#000" stroke-width="8.0937"/><path d="m280.183 202.795v-4.846c0-6.107 2.572-11.465 6.405-14.309 1.917-1.466 4.131-2.274 6.524-2.274h52.229c2.033 0 3.952.599 5.654 1.678 4.313 2.691 7.275 8.351 7.275 14.905v4.846" fill="none" stroke="#000" stroke-width="8.0937"/><path d="m358.236 329.19v4.849c0 9.156-5.803 16.58-12.926 16.58h-52.229c-7.153 0-12.929-7.424-12.929-16.58v-4.849" fill="none" stroke="#000" stroke-width="8.0937"/><path d="m286.588 183.64 20.052-30.108" fill="none" stroke="#000" stroke-width="8.0937"/><path d="m351.388 183.64-.394-.596-19.632-29.422-.059-.09" fill="none" stroke="#000" stroke-width="8.0937"/><path d="m331.362 153.622v3.442h-8.708-16.014v-3.532-24.693h8.351 7.663 8.708z" fill="none" stroke="#000" stroke-width="8.0937"/><path d="m322.654 128.839v26.759" fill="none" stroke="#000" stroke-width="5.3958"/><path d="m314.991 128.839v26.759" fill="none" stroke="#000" stroke-width="5.3958"/><path d="m461.74 487.711s2.69 4.836-2.121 4.845c-4.485.005-68.207-34.888-68.207-34.888l-17.057-9.844 13.273-1.243s9.97-.597 22.71-1.466z" fill="#c8c8c8"/><path d="m410.338 445.115c-12.74.869-22.71 1.466-22.71 1.466l-13.273 1.243-13.434 1.259s-27.541-5.479-31.314-3.313c-3.347 1.92-6.139 4.036-7.245 7.175.311-1.345.472-2.744.469-4.18-.014-5.05-2.066-9.622-5.384-12.944l37.26-2.157 1.155-1.065 10.586-9.745.952-.877 95.767 12.657s4.848 2.664.777 5.229c-2.387 1.502-31.986 3.775-53.606 5.252zm-32.022-7.608c1.475-1.99.787-4.997-1.534-6.717s-5.398-1.504-6.873.487c-1.475 1.99-.789 4.999 1.533 6.719 2.32 1.721 5.399 1.501 6.874-.489z" fill="#c8c8c8"/><ellipse cx="374.112" cy="434.393" fill="#787878" rx="4.485" ry="5.232" transform="matrix(.5954 -.8034 .8034 .5954 -197.639 476.3216)"/><path d="m366.449 422.853-10.586 9.745-.314-.339-31.432-22.04c4.567-1.09 8.712-3.9 11.375-8.19.577-.928 1.061-1.888 1.453-2.868-.791 3.621.99 5.752 2.739 8.979 1.903 3.498 23.166 13.105 26.765 14.713z" fill="#c8c8c8"/><path d="m322.358 452.956c-.572 2.495-1.656 4.793-3.135 6.788-3.372 4.551-8.794 7.51-14.92 7.526l-10.747.028c-10.257.024-18.592-8.219-18.623-18.41-.011-4.108 1.332-7.907 3.608-10.979 3.372-4.551 8.794-7.511 14.918-7.524l10.749-.03c5.174-.014 9.859 2.078 13.236 5.463l.002.002c3.317 3.322 5.37 7.895 5.384 12.944.003 1.436-.158 2.835-.469 4.18.002.005.003.009-.003.012zm-9.488 3.699c1.581-2.133 2.511-4.766 2.503-7.616-.019-7.073-5.8-12.787-12.915-12.771l-7.455.02c-4.247.011-8.009 2.063-10.348 5.221-1.579 2.131-2.511 4.766-2.503 7.616.022 7.068 5.801 12.784 12.916 12.768l7.455-.02c4.248-.011 8.01-2.063 10.347-5.218z" fill="#c8c8c8"/><path d="m324.117 410.219c-4.652 1.108-9.742.428-14.14-2.305l-9.131-5.671c-.443-.275-.871-.567-1.284-.874-7.684-5.694-9.861-16.387-4.759-24.606 5.38-8.657 16.801-11.293 25.513-5.883l9.135 5.67c.443.275.869.565 1.279.87 6.185 4.583 8.803 12.402 6.932 19.562 0 .004-.001.006-.003.008-.337.782-.571 1.501-.713 2.167 0 0 0 0-.001.002-.392.979-.876 1.94-1.453 2.868-2.662 4.291-6.808 7.102-11.375 8.192zm-12.521-8.258c6.043 3.752 13.967 1.924 17.697-4.079 3.536-5.703 2.028-13.118-3.301-17.067-.287-.212-.584-.416-.891-.607l-6.333-3.932c-6.045-3.754-13.969-1.926-17.701 4.079-3.536 5.699-2.028 13.114 3.302 17.064.287.213.585.416.891.607z" fill="#c8c8c8"/><path d="m322.363 452.944c1.106-3.139 3.898-5.255 7.245-7.175 3.773-2.165 31.314 3.313 31.314 3.313l13.434-1.259 13.273-1.243s9.97-.597 22.71-1.466c21.62-1.478 51.218-3.75 53.607-5.255 4.07-2.564-.777-5.229-.777-5.229l-95.767-12.657-.952.877-10.586 9.745-1.155 1.065-37.26 2.157" fill="none" stroke="#000" stroke-width="4.4856"/><path d="m322.024 454.198c.083-.433.195-.844.334-1.242" fill="none" stroke="#000" stroke-width="4.4856"/><ellipse cx="374.112" cy="434.392" fill="none" rx="5.232" ry="4.486" stroke="#000" stroke-width="4.4856" transform="matrix(.8035 .5953 -.5953 .8035 332.138 -137.3549)"/><path d="m295.068 461.893c-7.115.017-12.894-5.699-12.916-12.768-.007-2.851.924-5.485 2.503-7.616 2.339-3.157 6.101-5.21 10.348-5.221l7.455-.02c7.115-.017 12.896 5.697 12.915 12.771.007 2.851-.923 5.483-2.503 7.616-2.337 3.154-6.099 5.207-10.347 5.218z" fill="none" stroke="#000" stroke-width="4.4856"/><path d="m322.358 452.956c-.572 2.495-1.656 4.793-3.135 6.788-3.372 4.551-8.794 7.51-14.92 7.526l-10.747.028c-10.257.024-18.592-8.219-18.623-18.41-.011-4.108 1.332-7.907 3.608-10.979 3.372-4.551 8.794-7.511 14.918-7.524l10.749-.03c5.174-.014 9.859 2.078 13.236 5.463l.002.002c3.317 3.322 5.37 7.895 5.384 12.944.003 1.436-.158 2.835-.469 4.18.002.005.003.009-.003.012z" fill="none" stroke="#000" stroke-width="4.4856"/><path d="m374.355 447.824 17.057 9.844s63.722 34.893 68.207 34.888c4.812-.009 2.121-4.845 2.121-4.845l-51.402-42.596-.002-.002" fill="none" stroke="#000" stroke-width="4.4856"/><path d="m355.549 432.259-31.432-22.04-.005-.004" fill="none" stroke="#000" stroke-width="4.4856"/><path d="m336.945 399.161c-.791 3.621.99 5.752 2.739 8.979 1.903 3.498 23.166 13.105 26.765 14.712.334.148.516.229.516.229" fill="none" stroke="#000" stroke-width="4.4856"/><path d="m337.66 396.991c-.337.782-.571 1.501-.713 2.167" fill="none" stroke="#000" stroke-width="4.4856"/><path d="m318.768 376.277c-6.045-3.754-13.969-1.926-17.701 4.079-3.536 5.699-2.028 13.114 3.302 17.064.287.213.585.416.891.607l6.335 3.934c6.043 3.752 13.967 1.924 17.697-4.079 3.536-5.703 2.028-13.118-3.301-17.067-.287-.212-.584-.416-.891-.607z" fill="none" stroke="#000" stroke-width="4.4856"/><path d="m337.663 396.983c1.871-7.16-.747-14.979-6.932-19.562-.411-.305-.836-.595-1.279-.87l-9.135-5.67c-8.712-5.41-20.133-2.774-25.513 5.883-5.102 8.219-2.925 18.912 4.759 24.606.414.307.841.598 1.284.874l9.131 5.671c4.398 2.733 9.488 3.414 14.14 2.305 4.567-1.09 8.712-3.9 11.375-8.19.577-.928 1.061-1.888 1.453-2.868.001-.002.001-.002.001-.002.287-.712.524-1.437.713-2.167.002-.004.004-.006.003-.01z" fill="none" stroke="#000" stroke-width="4.4856"/></svg>