<svg enable-background="new 0 0 850.394 850.394" height="850.394" viewBox="0 0 850.394 850.394" width="850.394" xmlns="http://www.w3.org/2000/svg"><path d="m422.85 318.75c6.55 0 11.85 5.44 11.85 12.13 0 6.7-5.3 12.13-11.85 12.13-6.54 0-11.84-5.43-11.84-12.13 0-6.69 5.3-12.13 11.84-12.13z" fill="#f6cc4b"/><path d="m403.11 375.66 5.8.15c-.39 3.03-.63 6.23-.7 9.53l-.87-.01s-34.41 54.72-56.99 84.06c-2.82 3.66-107.43 77.61-126.93 83.5-35.54 10.721-51.9-7.34-17.49-49.649 34.41-42.32 196.33-124.68 196.33-124.68l.68-2.94z" fill="#fff5b4"/><path d="m643.44 502.1c34.409 42.32 18.06 60.381-17.48 49.66-35.55-10.729-108.08-59-126.94-83.51-22.569-29.33-56.979-84.05-56.979-84.05l4.229-3.67 4.73-1.1c24.83 12.82 161.2 84.25 192.44 122.67z" fill="#fff5b4"/><path d="m432.73 426.23v253.87c0 5.141-4.171 9.311-9.311 9.311-2.57 0-4.9-1.04-6.58-2.73-1.69-1.68-2.73-4.01-2.73-6.58v-253.871l3.54-3.701c2.02 2.2 4.26 3.42 6.62 3.42.97 0 1.92-.21 2.84-.6z" fill="#f6cc4b"/><path d="m410.59 367.01c2.83-11.02 7.9-18.36 13.68-18.36 8.87 0 16.07 17.31 16.07 38.65 0 19.01-5.71 34.82-13.229 38.05-.92.39-1.87.6-2.84.6-2.36 0-4.6-1.22-6.62-3.42-4.1-4.45-7.28-12.93-8.68-23.33-.51-3.75-.78-7.75-.78-11.9 0-.66.01-1.31.02-1.96.07-3.3.31-6.5.7-9.53.409-3.12.969-6.07 1.679-8.8z" fill="#f6cc4b"/><g fill="none"><path d="m432.73 426.23v253.87c0 5.141-4.171 9.311-9.311 9.311-2.57 0-4.9-1.04-6.58-2.73-1.69-1.68-2.73-4.01-2.73-6.58v-253.871" stroke="#231f20" stroke-width="14"/><path d="m438.65 366.14 60.93-117.62s70.24-137.1 132.02-187.02" stroke="#231f20" stroke-linecap="round" stroke-linejoin="round" stroke-width="21"/><path d="m446.27 380.53 4.73-1.1 140.82-32.75 126.94 8.46" stroke="#231f20" stroke-linecap="round" stroke-linejoin="round" stroke-width="21"/><path d="m440.34 403.94 128.63 262.62 82.94 121.86" stroke="#231f20" stroke-linecap="round" stroke-linejoin="round" stroke-width="21"/><path d="m447.11 377.43s1.37.7 3.89 2c24.83 12.82 161.2 84.25 192.44 122.669 34.409 42.32 18.06 60.381-17.48 49.66-35.55-10.729-108.08-59-126.94-83.51-22.569-29.33-56.979-84.05-56.979-84.05" stroke="#231f20" stroke-linecap="round" stroke-linejoin="round" stroke-width="21"/><path d="m410.72 367.27-.13-.26-60.8-117.36s-70.24-137.1-132.01-187.02" stroke="#231f20" stroke-linecap="round" stroke-linejoin="round" stroke-width="21"/><path d="m403.11 375.66-.17-.04-145.39-33.81-126.93 14.46" stroke="#231f20" stroke-linecap="round" stroke-linejoin="round" stroke-width="21"/><path d="m409.03 399.07-.06.13-128.57 262.49-82.93 127.86" stroke="#231f20" stroke-linecap="round" stroke-linejoin="round" stroke-width="21"/><path d="m402.26 378.56s-161.92 82.36-196.33 124.68c-34.41 42.31-18.05 60.37 17.49 49.649 19.5-5.89 124.11-79.84 126.93-83.5 22.58-29.34 56.99-84.06 56.99-84.06" stroke="#231f20" stroke-linecap="round" stroke-linejoin="round" stroke-width="21"/><path d="m410.59 367.01c2.83-11.02 7.9-18.36 13.68-18.36 8.87 0 16.07 17.31 16.07 38.65 0 19.01-5.71 34.82-13.229 38.05-.92.39-1.87.6-2.84.6-2.36 0-4.6-1.22-6.62-3.42-4.1-4.45-7.28-12.93-8.68-23.33-.51-3.75-.78-7.75-.78-11.9 0-.66.01-1.31.02-1.96.07-3.3.31-6.5.7-9.53.409-3.12.969-6.07 1.679-8.8z" stroke="#231f20" stroke-linecap="round" stroke-linejoin="round" stroke-width="21"/><path d="m434.7 330.88c0 6.7-5.3 12.13-11.85 12.13-6.54 0-11.84-5.43-11.84-12.13 0-6.69 5.3-12.13 11.84-12.13 6.55 0 11.85 5.44 11.85 12.13z" stroke="#231f20" stroke-linecap="round" stroke-linejoin="round" stroke-width="14"/><path d="m0 0h850.394v850.394h-850.394z"/></g></svg>