<svg enable-background="new 0 0 850.394 850.394" height="850.394" viewBox="0 0 850.394 850.394" width="850.394" xmlns="http://www.w3.org/2000/svg"><path d="m601.29 132.45 109.55-41.96 23.75-9.09.54 114.45-143.1 44.59v-4.41-100.03z" fill="#fff400"/><path d="m710.84 90.49-109.55 41.96v-23.37l109.38-44.85v25.81z" fill="#fff400"/><path d="m233.18 423.09-.11 11.25-16.24 12.01v-23.26z" fill="#231f20"/><path d="m216.83 423.09v23.26l-.48.35-17.02-11.41v-12.2z" fill="#231f20"/><g fill="none"><path d="m361.83 312.18 13.27-4.13 26.58-8.28 9.85-3.07 26.91-8.39 10.1-3.15 27.65-8.62 10.07-3.13 29.61-9.23 7.03-2.19 29.44-9.17v-.01l7.35-2.29 32.34-10.08 143.1-44.59-.54-114.45-23.75 9.09-109.55 41.96-9.26 3.55" stroke="#231f20" stroke-width="21"/><path d="m592.03 240.44v-4.41-100.03l-29.7 11.3-4.15 1.58-32.25 12.28-4.8 1.83-30.87 11.74v.01l-4.75 1.8-34.09 12.98-3.19 1.22-32.47 12.35-4.23 1.61-31.67 12.06-4.76 1.81-33.07 12.59-6.88 2.61v.01l-31.65 12.04-5.11 1.95-32.24 12.27-34.38 13.08-7.33 2.79-28.92 11.01-37.71 14.36-3.98 1.51-29.25 11.14-15.33 5.83-3.68 60.48 15.64 6.93 32.62-10.17 34.33-10.7 2.13-.66 26.54-8.27 10.71-3.33v-.01l106.18-33.09 3.87-1.2 24.24-7.55" stroke="#231f20" stroke-width="21"/><path d="m559.41 152.11v97.51" stroke="#231f20" stroke-width="21"/><path d="m522.44 166.44v94.06" stroke="#231f20" stroke-width="21"/><path d="m486.01 177.86v94.74" stroke="#231f20" stroke-width="21"/><path d="m448.5 191.45v93.6" stroke="#231f20" stroke-width="21"/><path d="m411.53 203.41v1.29 92 .63" stroke="#231f20" stroke-width="21"/><path d="m375.1 218.09v.48 89.48.29" stroke="#231f20" stroke-width="21"/><path d="m336 236 1.59 83.74v.02" stroke="#231f20" stroke-width="21"/><path d="m300 252 .62 68.84" stroke="#231f20" stroke-width="21"/><path d="m267.12 262.6-3.47 70.75" stroke="#231f20" stroke-width="21"/><path d="m226 280 .67 69.85.01 1.44" stroke="#231f20" stroke-width="21"/><path d="m196.51 289.51-6.8 74.28" stroke="#231f20" stroke-width="21"/><path d="m153.83 301.27v1.52 71.54 2.67 1.47" stroke="#231f20" stroke-width="21"/><path d="m562.85 148.67 24.83 87.36" stroke="#231f20" stroke-width="21"/><path d="m527.23 164.58 24.83 87.35" stroke="#231f20" stroke-width="21"/><path d="m490.94 176.51 24.83 87.35" stroke="#231f20" stroke-width="21"/><path d="m450.98 187.96.44 1.56 24.39 85.79" stroke="#231f20" stroke-width="21"/><path d="m415.9 203.45 22.12 83.52" stroke="#231f20" stroke-width="21"/><path d="m379.59 215.71.27 1.05 21.82 83.01.2.76" stroke="#231f20" stroke-width="21"/><path d="m342.69 232.89 19.14 79.29v.01" stroke="#231f20" stroke-width="21"/><path d="m303.5 245.82 30.15 74.89" stroke="#231f20" stroke-width="21"/><path d="m267.12 262.6 28.66 60.35" stroke="#231f20" stroke-width="21"/><path d="m233.01 276.37 27.71 58.37.94 1.98" stroke="#231f20" stroke-width="21"/><path d="m196.51 289.51 28.65 60.35" stroke="#231f20" stroke-width="21"/><path d="m159.17 304.86 28.65 60.34" stroke="#231f20" stroke-width="21"/><path d="m124.6 313.98 28.66 60.35" stroke="#231f20" stroke-width="21"/><path d="m216.83 446.35v110.45" stroke="#231f20" stroke-width="21"/><path d="m216.83 357.37v65.72" stroke="#231f20" stroke-width="21"/><path d="m216.83 446.35 16.24-12.01.11-11.25h-16.35-17.5v12.2l17.02 11.41z" stroke="#231f20" stroke-width="21"/><path d="m601.29 132.65v-.2-23.37l109.38-44.85v25.81" stroke="#231f20" stroke-width="21"/><path d="m414.35 296.37.9 491.29" stroke="#231f20" stroke-width="21"/><path d="m439.86 289.86v11.98 37.81 14.5 37.82 16.95 36.74 23.23 36.05 23.28 38.61 21.37 39.71 18.95 37.95 22.03 35.98 24.75 20.09" stroke="#231f20" stroke-width="21"/><path d="m531.13 266.38v35.46 52.31 53.71 1.06 119.3.79 59.19 1.89 56.91 59.84 60.73 20.09" stroke="#231f20" stroke-width="21"/><path d="m439.86 391.97 91.27-37.82" stroke="#231f20" stroke-width="21"/><path d="m439.86 445.66 88.71-36.74 2.56-1.06" stroke="#231f20" stroke-width="21"/><path d="m442.68 504.94 81.32-36.94" stroke="#231f20" stroke-width="21"/><path d="m439.87 566.83 91.26-37.82" stroke="#231f20" stroke-width="21"/><path d="m439.87 627.91 91.26-37.82" stroke="#231f20" stroke-width="21"/><path d="m439.87 684.81 85.53-35.44 5.73-2.37" stroke="#231f20" stroke-width="21"/><path d="m442.85 742.82 88.28-35.98" stroke="#231f20" stroke-width="21"/><path d="m439.86 354.15h91.27" stroke="#231f20" stroke-width="21"/><path d="m439.86 339.65 91.27-37.81" stroke="#231f20" stroke-width="21"/><path d="m439.86 301.84h91.27" stroke="#231f20" stroke-width="21"/><path d="m439.86 408.92h88.71 2.56" stroke="#231f20" stroke-width="21"/><path d="m439.86 468.89 84.14-.89" stroke="#231f20" stroke-width="21"/><path d="m439.86 528.22h91.27" stroke="#231f20" stroke-width="21"/><path d="m439.86 588.2h91.27" stroke="#231f20" stroke-width="21"/><path d="m439.86 646.86 84.14-.86" stroke="#231f20" stroke-width="21"/><path d="m439.86 706.84h91.27" stroke="#231f20" stroke-width="21"/><path d="m439.86 767.57h91.27" stroke="#231f20" stroke-width="21"/><path d="m0 0h850.394v850.394h-850.394z"/></g></svg>