<svg enable-background="new 0 0 850.394 850.394" height="850.394" viewBox="0 0 850.394 850.394" width="850.394" xmlns="http://www.w3.org/2000/svg"><path d="m368 368.25h113.386v113.386h-113.386z" fill="none"/><path d="m391.13 380.43-35.55 337.47c0 37.8-52.34 68.439-116.91 68.439s-116.91-30.64-116.91-68.439l-35.48-336.81c5.72 16.34 88.7 35.72 152.34 35.72 65.84 0 149.83-13.61 152.44-36.39z" fill="#ed1d31"/><path d="m391.12 379.33c0 .37-.02.73-.06 1.09-2.61 22.78-86.6 36.39-152.44 36.39-63.64 0-146.62-19.38-152.34-35.72l-.27-2.56c2.13-21.6 90.93-31.02 152.66-31.02 65.5 0 152.45 4.27 152.45 31.82z" fill="#ed1d31"/><path d="m399.3 302.91c0 .87-.09 1.74-.27 2.59-4.84 23.43-74.79 42.01-160.36 42.01-85.58 0-155.52-18.58-160.36-42.01-.18-.85-.27-1.72-.27-2.59 0-24.64 71.91-44.61 160.63-44.61 88.71 0 160.63 19.97 160.63 44.61z" fill="none" stroke="#000" stroke-width="21.4636"/><path d="m238.67 347.51c65.5 0 152.45 4.27 152.45 31.82 0 .37-.02.73-.06 1.09-2.61 22.78-86.6 36.39-152.44 36.39-63.64 0-146.62-19.38-152.34-35.72-.21-.59-.32-1.18-.32-1.76 0-.27.01-.53.05-.8 2.13-21.6 90.93-31.02 152.66-31.02z" fill="none" stroke="#000" stroke-width="21.4636"/><path d="m78.04 302.91.27 2.59 7.7 73.03.27 2.56 35.48 336.81c0 37.8 52.34 68.439 116.91 68.439s116.91-30.64 116.91-68.439l35.55-337.47 7.9-74.93.27-2.59" fill="none" stroke="#000" stroke-width="21.4636"/><path d="m0 0h850.394v850.394h-850.394z" fill="none"/><path d="m0 0h850.394v850.394h-850.394z" fill="none"/><circle cx="792.509" cy="275.424" fill="#9e5c26" r="7.479"/><path d="m808.203 184.033c-5.876 19.214-22.308 31.228-36.725 26.815-14.401-4.412-21.329-23.541-15.459-42.76 5.876-19.204 22.313-31.212 36.719-26.815 14.402 4.407 21.341 23.551 15.465 42.76z" fill="#ef3d27"/><path d="m785.03 275.424c0 4.129 3.35 7.479 7.479 7.479s7.479-3.349 7.479-7.479c0-4.129-3.35-7.479-7.479-7.479s-7.479 3.35-7.479 7.479zm8.013 10.15c-6.196 0-11.218-5.021-11.218-11.218s5.021-11.217 11.218-11.217 11.218 5.021 11.218 11.217-5.022 11.218-11.218 11.218z" fill="#fbee34"/><path d="m793.043 285.574c6.196 0 11.218-5.021 11.218-11.218s-5.021-11.217-11.218-11.217-11.218 5.021-11.218 11.217 5.022 11.218 11.218 11.218zm1.811.827c-13.947 5.689-31.409-4.738-39.026-23.343-7.601-18.583-2.468-38.289 11.479-43.983 13.932-5.715 31.404 4.728 39.021 23.327 7.601 18.589 2.473 38.284-11.474 43.999z" fill="#bd2226"/><path d="m735.582 241.333c-14.865 2.42-29.539-11.677-32.776-31.5-3.231-19.828 6.201-37.867 21.067-40.298 14.866-2.414 29.54 11.688 32.782 31.516 3.227 19.824-6.202 37.858-21.073 40.282z" fill="#ef3d27"/><path d="m746.815 324.381c-13.941 5.689-31.409-4.738-39.026-23.338-7.601-18.583-2.468-38.284 11.475-43.989 13.937-5.705 31.414 4.738 39.031 23.338 7.601 18.589 2.468 38.274-11.48 43.989z" fill="#ef3d27"/><circle cx="720.93" cy="154.702" fill="#9e5c26" r="7.479"/><path d="m710.247 153.634c0 6.196 5.021 11.217 11.217 11.217s11.218-5.021 11.218-11.217c0-6.197-5.021-11.218-11.218-11.218s-11.217 5.021-11.217 11.218zm9.107 12.098c-14.407-4.401-21.33-23.541-15.465-42.75.925-3.018 2.104-5.865 3.51-8.488 7.483-14.086 21.063-22.04 33.209-18.328 7.195 2.195 12.526 8.077 15.326 15.801 2.81 7.751 3.082 17.345.144 26.959-5.876 19.205-22.311 31.219-36.724 26.806z" fill="#ef3d27"/><path d="m713.451 154.702c0 4.129 3.35 7.479 7.479 7.479 4.13 0 7.479-3.349 7.479-7.479 0-4.129-3.349-7.478-7.479-7.478-4.129 0-7.479 3.349-7.479 7.478zm8.013 10.149c-6.196 0-11.217-5.021-11.217-11.217 0-6.197 5.021-11.218 11.217-11.218s11.218 5.021 11.218 11.218c0 6.196-5.022 11.217-11.218 11.217z" fill="#fbee34"/><path d="m676.68 201.362c-11.944 1.944-23.76-6.784-29.625-20.566-1.432-3.371-2.506-7.04-3.146-10.945-.609-3.75-.77-7.43-.523-10.956 1.047-15.127 9.524-27.371 21.586-29.331 3.627-.588 7.232-.203 10.667 1.02 10.673 3.771 19.668 15.486 22.12 30.485 3.225 19.828-6.203 37.868-21.079 40.293z" fill="#ef3d27"/><circle cx="688.88" cy="265.809" fill="#9e5c26" r="7.478"/><path d="m678.196 264.741c0 6.196 5.021 11.217 11.218 11.217s11.218-5.021 11.218-11.217c0-6.197-5.021-11.218-11.218-11.218s-11.218 5.021-11.218 11.218zm11.464 12.286c-14.872 2.415-29.54-11.682-32.782-31.511-3.222-19.828 6.201-37.856 21.067-40.287 14.866-2.425 29.551 11.677 32.782 31.516 3.232 19.818-6.202 37.857-21.067 40.282z" fill="#bd2226"/><path d="m681.401 265.809c0 4.129 3.35 7.479 7.479 7.479s7.479-3.349 7.479-7.479c0-4.129-3.35-7.478-7.479-7.478s-7.479 3.349-7.479 7.478zm8.013 10.149c-6.196 0-11.218-5.021-11.218-11.217 0-6.197 5.021-11.218 11.218-11.218s11.218 5.021 11.218 11.218-5.022 11.217-11.218 11.217z" fill="#fbee34"/><path d="m672.32 125.323c6.196 0 11.218-5.021 11.218-11.218s-5.021-11.218-11.218-11.218-11.218 5.021-11.218 11.218 5.022 11.218 11.218 11.218zm3.361 4.412c-2.174.042-4.343-.251-6.469-.897-14.401-4.412-21.319-23.546-15.448-42.755.433-1.426.93-2.815 1.484-4.156 6.812-16.747 21.886-26.735 35.224-22.66 5.39 1.65 9.738 5.357 12.751 10.357 2.66 4.412 4.289 9.839 4.7 15.742.369 5.299-.246 10.972-1.987 16.666-.935 3.066-2.147 5.951-3.573 8.605-6.181 11.555-16.474 18.953-26.682 19.098z" fill="#bd2226"/><circle cx="671.786" cy="115.173" fill="#9e5c26" r="7.479"/><path d="m692.673 317.378c-3.232 19.829-17.911 33.931-32.777 31.511-14.866-2.425-24.305-20.464-21.073-40.282 3.243-19.839 17.916-33.941 32.782-31.516 14.866 2.43 24.299 20.47 21.068 40.287z" fill="#bd2226"/><path d="m664.308 115.173c0 4.129 3.35 7.479 7.479 7.479s7.479-3.35 7.479-7.479-3.35-7.479-7.479-7.479-7.479 3.35-7.479 7.479zm8.012 10.15c-6.196 0-11.218-5.021-11.218-11.218s5.021-11.218 11.218-11.218 11.218 5.021 11.218 11.218-5.021 11.218-11.218 11.218z" fill="#fbee34"/><path d="m649.72 78.561c-5.256 15.764-18.022 26.116-30.934 24.017-10.123-1.656-17.724-10.534-20.528-22.291-1.309-5.518-1.57-11.661-.539-17.991 2.756-16.933 13.872-29.695 26.313-31.548 2.126-.315 4.29-.315 6.464.038 9.732 1.586 17.125 9.861 20.176 20.95.074 2.275.47 4.476 1.25 6.591.448 4.06.357 8.354-.353 12.74-.428 2.607-1.053 5.117-1.849 7.494z" fill="#ef3d27"/><path d="m651.921 58.327c-.78-2.115-1.176-4.316-1.25-6.591.582 2.104 1.004 4.31 1.25 6.591z" fill="#ef3d27"/><path d="m638.908 173.008c2.425-3.996 3.841-8.856 4.161-14.139l.315.026c-.246 3.526-.086 7.206.523 10.956.641 3.905 1.715 7.574 3.146 10.945-1.87 1.175-4.204 2.18-6.122 3.002-.721-2.207-1.618-4.413-2.708-6.592-.652-1.309-1.357-2.569-2.104-3.782z" fill="#bd2226"/><path d="m653.684 265.238c-3.243 19.829-17.916 33.931-32.782 31.511-5.251-.86-9.823-3.665-13.402-7.804-.876-1.453-1.854-2.805-2.928-4.044-4.524-7.489-6.49-17.702-4.737-28.444 3.231-19.829 17.91-33.931 32.776-31.505 14.866 2.419 24.293 20.468 21.073 40.286z" fill="#ef3d27"/><path d="m625.313 221.473c6.196 0 11.218-5.021 11.218-11.218 0-6.196-5.021-11.217-11.218-11.217s-11.218 5.021-11.218 11.217c.001 6.197 5.022 11.218 11.218 11.218zm-27.745-64.629c12.489-6.228 29.043 1.148 38.552 16.581.747 1.212 1.452 2.473 2.104 3.782 1.09 2.179 1.987 4.385 2.708 6.592 5.229 16.036.973 32.216-10.865 38.134-13.482 6.725-31.687-2.382-40.655-20.352-4.258-8.525-5.673-17.51-4.541-25.325.775-5.422 2.778-10.267 5.903-14.006 1.875-2.238 4.151-4.076 6.794-5.406z" fill="#ef3d27"/><circle cx="624.779" cy="211.324" fill="#9e5c26" r="7.478"/><path d="m617.301 211.324c0 4.129 3.35 7.479 7.479 7.479s7.479-3.349 7.479-7.479c0-4.129-3.35-7.478-7.479-7.478s-7.479 3.349-7.479 7.478zm8.012 10.149c-6.196 0-11.218-5.021-11.218-11.218 0-6.196 5.021-11.217 11.218-11.217s11.218 5.021 11.218 11.217c0 6.197-5.021 11.218-11.218 11.218z" fill="#fbee34"/><path d="m597.568 156.844c-2.644 1.33-4.919 3.168-6.794 5.406l-1.362-1.33c-8.979-17.975-5.32-37.995 8.156-44.726 13.472-6.725 31.671 2.393 40.656 20.357 3.712 7.452 5.267 15.261 4.845 22.318-.32 5.283-1.736 10.144-4.161 14.139l-2.788.417c-9.509-15.433-26.062-22.809-38.552-16.581z" fill="#bd2226"/><path d="m604.571 284.9c1.074 1.239 2.052 2.591 2.928 4.044-1.063-1.234-2.041-2.585-2.928-4.044z" fill="#ef3d27"/><circle cx="580.978" cy="336.32" fill="#9e5c26" r="7.479"/><path d="m581.512 346.469c6.196 0 11.218-5.021 11.218-11.218s-5.021-11.218-11.218-11.218-11.218 5.021-11.218 11.218 5.021 11.218 11.218 11.218zm30.736-29.091c-3.232 19.829-17.916 33.931-32.782 31.511-14.866-2.425-24.294-20.464-21.063-40.282 3.227-19.839 17.905-33.941 32.771-31.516 5.256.866 9.834 3.67 13.396 7.81.887 1.458 1.864 2.81 2.928 4.044 4.536 7.493 6.496 17.701 4.75 28.433z" fill="#ef3d27"/><path d="m573.499 336.32c0 4.129 3.35 7.479 7.479 7.479s7.479-3.35 7.479-7.479-3.35-7.479-7.479-7.479-7.479 3.349-7.479 7.479zm8.013 10.149c-6.196 0-11.218-5.021-11.218-11.218s5.021-11.218 11.218-11.218 11.218 5.021 11.218 11.218-5.022 11.218-11.218 11.218z" fill="#fbee34"/><circle cx="565.486" cy="267.412" fill="#9e5c26" r="7.479"/><circle cx="560.679" cy="120.515" fill="#9e5c26" r="7.479"/><path d="m558.008 267.412c0 4.129 3.35 7.479 7.479 7.479s7.479-3.349 7.479-7.479c0-4.129-3.35-7.478-7.479-7.478s-7.479 3.349-7.479 7.478zm.406 7.179c-2.223-2.051-3.611-4.989-3.611-8.248 0-6.196 5.021-11.217 11.218-11.217s11.218 5.021 11.218 11.217c0 5.299-3.67 9.733-8.605 10.908-3.522-.043-6.978-.977-10.22-2.66z" fill="#fbee34"/><path d="m558.414 274.591c-9.246-4.792-16.741-15.63-18.947-29.118-3.221-19.818 6.202-37.857 21.073-40.282 14.866-2.431 29.545 11.677 32.776 31.51 3.237 19.829-6.201 37.857-21.067 40.288-1.207.197-2.414.283-3.616.262 4.936-1.175 8.605-5.609 8.605-10.908 0-6.196-5.021-11.217-11.218-11.217s-11.218 5.021-11.218 11.217c.001 3.259 1.389 6.197 3.612 8.248z" fill="#bd2226"/><path d="m553.2 120.515c0 4.129 3.35 7.478 7.479 7.478s7.479-3.349 7.479-7.478-3.35-7.479-7.479-7.479-7.479 3.35-7.479 7.479zm8.013 10.149c-6.196 0-11.218-5.021-11.218-11.217s5.021-11.218 11.218-11.218 11.218 5.021 11.218 11.218-5.022 11.217-11.218 11.217z" fill="#f6cc4b"/><path d="m549.995 119.447c0 6.196 5.021 11.217 11.218 11.217s11.218-5.021 11.218-11.217-5.021-11.218-11.218-11.218-11.218 5.021-11.218 11.218zm9.429 12.366c-12.708-3.05-22.377-17.836-22.468-35.645-.021-4.214.503-8.264 1.47-12.035 1.437-5.572 3.861-10.529 7.003-14.508 4.845-6.148 11.404-9.936 18.637-9.973 11.399-.054 21.207 9.22 25.347 22.435 1.335 4.257 2.083 8.915 2.109 13.808.086 20.09-12.04 36.431-27.104 36.505-1.693.011-3.354-.187-4.968-.583-.005.001-.015.001-.026-.004z" fill="#bd2226"/><path d="m540.904 203.626c-14.546-3.932-22.094-22.831-16.858-42.221.619-2.308 1.394-4.514 2.302-6.603 6.576-15.234 20.133-24.492 32.734-21.607.262.064.523.133.779.198 13.964 3.771 21.474 21.367 17.409 39.935-.155.758-.348 1.522-.551 2.286-5.24 19.402-21.27 31.928-35.815 28.012z" fill="#ef3d27"/><path d="m480.452 219c.688-20.08 13.455-35.939 28.514-35.426 15.053.518 26.698 17.216 26.02 37.285-.689 20.085-13.45 35.934-28.503 35.426-15.065-.518-26.71-17.211-26.031-37.285z" fill="#ef3d27"/><circle cx="486.964" cy="163.249" fill="#9e5c26" r="7.479"/><path d="m479.485 163.249c0 4.129 3.349 7.479 7.479 7.479 4.129 0 7.478-3.349 7.478-7.479 0-4.129-3.349-7.479-7.478-7.479-4.13 0-7.479 3.35-7.479 7.479zm8.013 10.149c-6.197 0-11.218-5.021-11.218-11.218s5.021-11.217 11.218-11.217c6.196 0 11.217 5.021 11.217 11.217s-5.021 11.218-11.217 11.218z" fill="#fbee34"/><path d="m487.498 150.963c-6.197 0-11.218 5.021-11.218 11.217s5.021 11.218 11.218 11.218c6.196 0 11.217-5.021 11.217-11.218s-5.021-11.217-11.217-11.217zm-17.27-18.061c3.382-12.521 11.261-22.189 20.336-26.409 4.989-2.313 10.331-2.997 15.491-1.603 14.54 3.931 22.083 22.831 16.858 42.221-.519 1.917-1.138 3.782-1.869 5.55-6.539 16.169-20.844 25.993-33.947 22.462-14.545-3.92-22.088-22.83-16.869-42.221z" fill="#ef3d27"/><g fill="none"><path d="m650.671 51.735c.074 2.275.47 4.476 1.25 6.591" stroke="#000" stroke-width="11.2176"/><path d="m487.097 175.123c-14.545-3.92-22.088-22.83-16.869-42.221 3.382-12.521 11.261-22.189 20.336-26.409 4.989-2.313 10.331-2.997 15.491-1.603 14.54 3.931 22.083 22.831 16.858 42.221-.519 1.917-1.138 3.782-1.869 5.55-6.539 16.17-20.844 25.993-33.947 22.462z" stroke="#000" stroke-width="11.2176"/><path d="m638.822 308.607c3.243-19.839 17.916-33.941 32.782-31.516 14.866 2.431 24.3 20.47 21.068 40.287-3.232 19.829-17.911 33.931-32.777 31.511-14.866-2.425-24.304-20.464-21.073-40.282z" stroke="#000" stroke-width="11.2176"/><path d="m607.499 288.944c4.535 7.494 6.495 17.702 4.749 28.434-3.232 19.829-17.916 33.931-32.782 31.511-14.866-2.425-24.294-20.464-21.063-40.282 3.227-19.839 17.905-33.941 32.771-31.516 5.256.866 9.834 3.67 13.396 7.81 1.076 1.239 2.053 2.59 2.929 4.043z" stroke="#000" stroke-width="11.2176"/><path d="m604.571 284.9c-4.524-7.489-6.49-17.702-4.737-28.444 3.231-19.829 17.91-33.931 32.776-31.505 14.866 2.42 24.294 20.469 21.073 40.287-3.243 19.829-17.916 33.931-32.782 31.511-5.251-.86-9.823-3.665-13.402-7.804-1.063-1.235-2.041-2.586-2.928-4.045z" stroke="#000" stroke-width="11.2176"/><path d="m590.774 162.25c1.875-2.238 4.15-4.076 6.794-5.406 12.489-6.228 29.043 1.148 38.552 16.581.747 1.212 1.452 2.473 2.104 3.782 1.09 2.179 1.987 4.385 2.708 6.592 5.229 16.036.973 32.216-10.865 38.134-13.482 6.725-31.687-2.382-40.655-20.352-4.258-8.525-5.673-17.51-4.541-25.325.775-5.422 2.778-10.267 5.903-14.006z" stroke="#000" stroke-width="11.2176"/><path d="m589.412 160.919c-8.979-17.975-5.32-37.995 8.156-44.726 13.472-6.725 31.671 2.393 40.656 20.357 3.712 7.452 5.267 15.261 4.845 22.318-.32 5.283-1.736 10.144-4.161 14.139" stroke="#000" stroke-width="11.2176"/><path d="m689.66 277.027c14.865-2.425 24.299-20.464 21.067-40.282-3.231-19.839-17.916-33.941-32.782-31.516-14.866 2.431-24.289 20.459-21.067 40.287 3.242 19.829 17.91 33.925 32.782 31.511z" stroke="#000" stroke-width="11.2176"/><path d="m643.385 158.895c-.246 3.526-.086 7.206.523 10.956.641 3.905 1.715 7.574 3.146 10.945 5.865 13.782 17.681 22.51 29.625 20.566 14.876-2.425 24.305-20.464 21.078-40.292-2.452-15-11.447-26.714-22.12-30.485-3.435-1.223-7.04-1.608-10.667-1.02-12.061 1.959-20.538 14.203-21.585 29.33z" stroke="#000" stroke-width="11.2176"/><path d="m735.582 241.333c14.871-2.425 24.3-20.458 21.073-40.282-3.242-19.828-17.916-33.93-32.782-31.516-14.866 2.431-24.299 20.47-21.067 40.298 3.237 19.824 17.911 33.92 32.776 31.5z" stroke="#000" stroke-width="11.2176"/><path d="m758.295 280.392c-7.617-18.6-25.095-29.043-39.031-23.338-13.942 5.705-19.075 25.405-11.475 43.989 7.617 18.6 25.085 29.027 39.026 23.338 13.948-5.715 19.081-25.4 11.48-43.989z" stroke="#000" stroke-width="11.2176"/><path d="m794.854 286.401c13.947-5.715 19.075-25.41 11.475-44-7.617-18.6-25.09-29.042-39.021-23.327-13.947 5.694-19.08 25.4-11.479 43.983 7.615 18.607 25.077 29.033 39.025 23.344z" stroke="#000" stroke-width="11.2176"/><path d="m508.966 183.574c15.053.518 26.698 17.216 26.02 37.285-.689 20.085-13.45 35.934-28.503 35.426-15.064-.518-26.709-17.211-26.03-37.285.688-20.08 13.454-35.939 28.513-35.426z" stroke="#000" stroke-width="11.2176"/><path d="m576.72 175.615c-5.24 19.401-21.271 31.927-35.815 28.012-14.546-3.932-22.094-22.831-16.858-42.221.619-2.308 1.394-4.514 2.302-6.603 6.576-15.234 20.133-24.492 32.734-21.607.262.064.523.133.779.198 13.964 3.771 21.474 21.367 17.409 39.935-.156.758-.348 1.522-.551 2.286z" stroke="#000" stroke-width="11.2176"/><path d="m568.633 277.251c1.202.021 2.409-.064 3.616-.262 14.866-2.431 24.305-20.459 21.067-40.288-3.231-19.833-17.91-33.941-32.776-31.51-14.871 2.425-24.294 20.464-21.073 40.282 2.206 13.488 9.701 24.326 18.947 29.118 3.242 1.683 6.698 2.617 10.219 2.66z" stroke="#000" stroke-width="11.2176"/><path d="m651.921 58.327c.448 4.06.357 8.354-.353 12.74-.428 2.607-1.053 5.117-1.849 7.494-5.256 15.764-18.022 26.116-30.934 24.017-10.123-1.656-17.724-10.534-20.528-22.291-1.309-5.518-1.57-11.661-.539-17.991 2.756-16.933 13.872-29.695 26.313-31.548 2.126-.315 4.29-.315 6.464.038 9.732 1.586 17.125 9.861 20.176 20.95.582 2.104 1.004 4.31 1.25 6.591z" stroke="#000" stroke-width="11.2176"/><path d="m559.424 131.813c-12.708-3.05-22.377-17.836-22.468-35.645-.021-4.214.503-8.264 1.47-12.035 1.437-5.572 3.861-10.529 7.003-14.508 4.845-6.148 11.404-9.936 18.637-9.973 11.399-.054 21.207 9.22 25.347 22.435 1.335 4.257 2.083 8.915 2.109 13.808.086 20.09-12.04 36.431-27.104 36.505-1.693.011-3.354-.187-4.968-.583-.005.001-.015.001-.026-.004z" stroke="#000" stroke-width="11.2176"/><path d="m719.354 165.732c14.412 4.412 30.848-7.601 36.724-26.805 2.938-9.615 2.666-19.208-.144-26.959-2.8-7.724-8.131-13.605-15.326-15.801-12.146-3.712-25.726 4.241-33.209 18.328-1.405 2.623-2.585 5.47-3.51 8.488-5.865 19.208 1.058 38.348 15.465 42.749z" stroke="#000" stroke-width="11.2176"/><path d="m808.203 184.033c5.876-19.209-1.063-38.354-15.465-42.76-14.406-4.396-30.843 7.612-36.719 26.815-5.87 19.219 1.058 38.348 15.459 42.76 14.418 4.413 30.849-7.601 36.725-26.815z" stroke="#000" stroke-width="11.2176"/><path d="m675.681 129.735c10.208-.145 20.501-7.542 26.682-19.097 1.426-2.655 2.639-5.54 3.573-8.605 1.741-5.694 2.356-11.367 1.987-16.666-.411-5.903-2.04-11.33-4.7-15.742-3.013-5-7.361-8.707-12.751-10.357-13.338-4.076-28.412 5.913-35.224 22.66-.555 1.34-1.052 2.729-1.484 4.156-5.871 19.208 1.047 38.343 15.448 42.755 2.126.645 4.295.938 6.469.896z" stroke="#000" stroke-width="11.2176"/><circle cx="561.213" cy="119.447" r="11.218" stroke="#000" stroke-width="3.7392"/><circle cx="560.679" cy="120.515" r="7.479" stroke="#000" stroke-width="2.6709"/><circle cx="625.313" cy="210.256" r="11.218" stroke="#000" stroke-linecap="round" stroke-linejoin="round" stroke-width="3.7392"/><circle cx="624.779" cy="211.324" r="7.479" stroke="#000" stroke-linecap="round" stroke-linejoin="round" stroke-width="2.6709"/><path d="m558.414 274.591c-2.223-2.051-3.611-4.989-3.611-8.248 0-6.196 5.021-11.217 11.218-11.217s11.218 5.021 11.218 11.217c0 5.299-3.67 9.733-8.605 10.908-.839.203-1.715.31-2.612.31-2.939 0-5.61-1.127-7.608-2.97z" stroke="#000" stroke-linecap="round" stroke-linejoin="round" stroke-width="3.7392"/><circle cx="565.486" cy="267.412" r="7.479" stroke="#000" stroke-linecap="round" stroke-linejoin="round" stroke-width="2.6709"/><circle cx="689.414" cy="264.741" r="11.218" stroke="#000" stroke-linecap="round" stroke-linejoin="round" stroke-width="3.7392"/><circle cx="688.88" cy="265.809" r="7.479" stroke="#000" stroke-linecap="round" stroke-linejoin="round" stroke-width="2.6709"/><circle cx="672.32" cy="114.105" r="11.218" stroke="#000" stroke-linecap="round" stroke-linejoin="round" stroke-width="3.7392"/><circle cx="671.786" cy="115.173" r="7.479" stroke="#000" stroke-linecap="round" stroke-linejoin="round" stroke-width="2.6709"/><circle cx="793.043" cy="274.356" r="11.218" stroke="#000" stroke-linecap="round" stroke-linejoin="round" stroke-width="3.7392"/><circle cx="792.509" cy="275.424" r="7.479" stroke="#000" stroke-linecap="round" stroke-linejoin="round" stroke-width="2.6709"/><circle cx="721.464" cy="153.634" r="11.217" stroke="#000" stroke-linecap="round" stroke-linejoin="round" stroke-width="3.7392"/><circle cx="720.93" cy="154.702" r="7.479" stroke="#000" stroke-linecap="round" stroke-linejoin="round" stroke-width="2.6709"/><circle cx="487.498" cy="162.18" r="11.217" stroke="#000" stroke-linecap="round" stroke-linejoin="round" stroke-width="3.7392"/><circle cx="486.963" cy="163.249" r="7.478" stroke="#000" stroke-linecap="round" stroke-linejoin="round" stroke-width="2.6709"/><circle cx="581.512" cy="335.251" r="11.218" stroke="#000" stroke-linecap="round" stroke-linejoin="round" stroke-width="3.7392"/><circle cx="580.978" cy="336.32" r="7.479" stroke="#000" stroke-linecap="round" stroke-linejoin="round" stroke-width="2.6709"/></g></svg>