<svg enable-background="new 0 0 850.394 850.394" height="850.394" viewBox="0 0 850.394 850.394" width="850.394" xmlns="http://www.w3.org/2000/svg"><path d="m493.02 648.38c0 1.71-.229 3.41-.569 5.12v-5.12z" fill="#fff"/><path d="m492.45 771.5h.569c0 1.71-.229 3.41-.569 5.12z" fill="#fff"/><path d="m492.56 325.33c0 .46 0 1.02-.109 1.48v-1.48z" fill="#fff"/><path d="m492.45 771.5v5.12c-4.21 20.83-34.021 36.979-70.21 36.979-37.09 0-67.47-17.06-70.55-38.569v-.69-2.84z" fill="#190d81"/><path d="m492.45 648.38v5.12c-4.21 20.93-34.021 37.09-70.21 37.09-37.55 0-68.16-17.41-70.55-39.37v-2.84z" fill="#f73900"/><path d="m351.69 326.01c0 23.33 30.96 41.42 70.1 41.42 38.34 0 69.41-17.98 70.66-40.62v321.57h-140.76z" fill="#f73900"/><path d="m351.69 651.22c2.39 21.96 33 39.37 70.55 39.37 36.189 0 66-16.16 70.21-37.09v118h-140.76z" fill="#190d81"/><path d="m492.45 326.81c-1.25 22.64-32.32 40.62-70.66 40.62-39.14 0-70.1-18.09-70.1-41.42l140.76-.68z" fill="#190d81"/><path d="m423.5 50.98c17.63 3.07 22.52 26.06 22.52 26.06l46.431 177.17c0 22.08-32.431 38.24-68.95 39.83v-243.06z" fill="#190d81"/><path d="m423.5 50.53v.45c-.69-.22-1.37-.34-2.06-.22.69-.23 1.37-.23 2.06-.23z" fill="#fff"/><path d="m351.69 253.07c0 23.33 32.66 41.2 71.81 41.2v-.23c36.52-1.59 68.95-17.75 68.95-39.83v71.12l-140.76.68z" fill="#190d81"/><path d="m423.5 294.04v.23c-39.15 0-71.81-17.87-71.81-41.2l45.29-175.92s5.35-24.8 24.46-26.39c.69-.12 1.37 0 2.06.22z" fill="#190d81"/><path d="m351.69 648.38v2.84c-.23-.91-.23-1.93-.23-2.84z" fill="#fff"/><path d="m351.69 771.5v2.84c-.23-.91-.23-1.93-.23-2.84z" fill="#fff"/><g fill="none"><path d="m351.69 774.34c-.23-.91-.23-1.93-.23-2.84" stroke="#000" stroke-width="22.7579"/><path d="m493.02 771.5c0 1.71-.229 3.41-.569 5.12-4.21 20.83-34.021 36.979-70.21 36.979-37.09 0-67.47-17.06-70.55-38.569" stroke="#000" stroke-width="22.7579"/><path d="m492.56 325.33c0 .46 0 1.02-.109 1.48-1.25 22.64-32.32 40.62-70.66 40.62-39.14 0-70.1-18.09-70.1-41.42" stroke="#000" stroke-width="22.7579"/><path d="m423.5 294.27c-39.15 0-71.81-17.87-71.81-41.2l45.29-175.92s5.35-24.8 24.46-26.39c.69-.23 1.37-.23 2.06-.23" stroke="#000" stroke-width="22.7579"/><path d="m421.79 294.15c.56 0 1.13 0 1.71-.11 36.52-1.59 68.95-17.75 68.95-39.83l-46.43-177.17s-4.89-22.99-22.52-26.06c-.69-.22-1.37-.34-2.06-.22-.68-.23-1.36-.23-2.04-.23" stroke="#000" stroke-width="22.7579"/><path d="m492.45 653.5v118 5.12" stroke="#000" stroke-width="22.7579"/><path d="m492.45 251.14v3.07 71.12 1.48 321.57" stroke="#000" stroke-width="22.7579"/><path d="m351.69 648.38v-322.37-72.94-1.93" stroke="#000" stroke-width="22.7579"/><path d="m351.69 775.03v-.69-2.84-120.28" stroke="#000" stroke-width="22.7579"/><path d="m493.02 648.38c0 1.71-.229 3.41-.569 5.12-4.21 20.93-34.021 37.09-70.21 37.09-37.55 0-68.16-17.41-70.55-39.37-.23-.91-.23-1.93-.23-2.84" stroke="#000" stroke-width="22.7579"/><path d="m0 0h850.394v850.394h-850.394z"/></g></svg>