<svg enable-background="new 0 0 850.394 850.394" height="850.394" viewBox="0 0 850.394 850.394" width="850.394" xmlns="http://www.w3.org/2000/svg"><path d="m286.49 670.17c4.64 0 8.43 3.771 8.43 8.42 0 4.65-3.79 8.43-8.43 8.43-4.67 0-8.43-3.779-8.43-8.43 0-4.65 3.76-8.42 8.43-8.42z" fill="#ffffc2"/><path d="m332.77 602.54c4.66 0 8.45 3.77 8.45 8.44 0 4.64-3.79 8.42-8.45 8.42s-8.43-3.78-8.43-8.42c0-4.67 3.77-8.44 8.43-8.44z" fill="#ffffc2"/><path d="m366.49 690.44c4.66 0 8.42 3.77 8.42 8.42 0 4.659-3.76 8.439-8.42 8.439-4.64 0-8.42-3.78-8.42-8.439 0-4.65 3.78-8.42 8.42-8.42z" fill="#ffffc2"/><path d="m448.37 692.84c4.66 0 8.43 3.78 8.43 8.42 0 4.66-3.77 8.44-8.43 8.44-4.65 0-8.42-3.78-8.42-8.44 0-4.64 3.77-8.42 8.42-8.42z" fill="#ffffc2"/><path d="m414.67 620.61c4.64 0 8.42 3.77 8.42 8.409 0 4.66-3.78 8.45-8.42 8.45-4.67 0-8.44-3.79-8.44-8.45 0-4.639 3.77-8.409 8.44-8.409z" fill="#ffffc2"/><path d="m509.78 602.55c4.649 0 8.439 3.78 8.439 8.431 0 4.649-3.79 8.42-8.439 8.42-4.65 0-8.431-3.771-8.431-8.42.001-4.651 3.781-8.431 8.431-8.431z" fill="#ffffc2"/><path d="m523.32 660.01c4.66 0 8.43 3.78 8.43 8.431 0 4.649-3.77 8.43-8.43 8.43s-8.431-3.78-8.431-8.43c.001-4.651 3.771-8.431 8.431-8.431z" fill="#ffffc2"/><path d="m578.42 695.27c4.65 0 8.42 3.78 8.42 8.421 0 4.649-3.77 8.43-8.42 8.43-4.66 0-8.42-3.78-8.42-8.43 0-4.641 3.76-8.421 8.42-8.421z" fill="#ffffc2"/><path d="m663.9 684.43c4.67 0 8.43 3.771 8.43 8.41 0 4.67-3.76 8.44-8.43 8.44-4.65 0-8.42-3.771-8.42-8.44 0-4.64 3.77-8.41 8.42-8.41z" fill="#ffffc2"/><path d="m603.68 613.5c4.65 0 8.431 3.78 8.431 8.43s-3.78 8.431-8.431 8.431c-4.66 0-8.43-3.78-8.43-8.431 0-4.65 3.77-8.43 8.43-8.43z" fill="#ffffc2"/><path d="m668.67 592.89c4.66 0 8.42 3.771 8.42 8.42 0 4.65-3.76 8.44-8.42 8.44s-8.43-3.79-8.43-8.44 3.77-8.42 8.43-8.42z" fill="#ffffc2"/><path d="m568.81 543.54c4.641 0 8.421 3.77 8.421 8.42 0 4.66-3.78 8.42-8.421 8.42-4.659 0-8.43-3.76-8.43-8.42 0-4.65 3.77-8.42 8.43-8.42z" fill="#ffffc2"/><path d="m425.27 542.29c4.67 0 8.44 3.78 8.44 8.43 0 4.66-3.77 8.431-8.44 8.431-4.66 0-8.41-3.771-8.41-8.431 0-4.65 3.75-8.43 8.41-8.43z" fill="#ffffc2"/><path d="m425.27 559.15c4.67 0 8.44-3.771 8.44-8.431 0-4.649-3.77-8.43-8.44-8.43-4.66 0-8.41 3.78-8.41 8.43 0 4.661 3.75 8.431 8.41 8.431zm280.78 4.86h-411.85v-5.68l4.86-31.64h408.74 37.97l28.9 187.819h-40.92l-4.45.681-16-104.04c1.521 2.149 4.03 3.55 6.86 3.55 4.66 0 8.43-3.78 8.43-8.42 0-4.67-3.77-8.45-8.43-8.45-3.74 0-6.92 2.45-8.01 5.84zm-137.24-3.63c4.641 0 8.421-3.76 8.421-8.42 0-4.65-3.78-8.42-8.421-8.42-4.659 0-8.43 3.77-8.43 8.42 0 4.66 3.77 8.42 8.43 8.42z" fill="#f6cc4b"/><path d="m729.3 715.19 5.641 36.649h-504.511l15.04-97.79 13.85-90.04h34.88 411.85l6.101 39.66c-.271.82-.41 1.7-.41 2.61 0 1.81.58 3.489 1.56 4.87zm-52.21-113.88c0-4.649-3.76-8.42-8.42-8.42s-8.43 3.771-8.43 8.42c0 4.65 3.77 8.44 8.43 8.44s8.42-3.79 8.42-8.44zm-4.76 91.53c0-4.64-3.76-8.41-8.43-8.41-4.65 0-8.42 3.771-8.42 8.41 0 4.67 3.77 8.44 8.42 8.44 4.67 0 8.43-3.77 8.43-8.44zm-60.22-70.91c0-4.649-3.78-8.43-8.431-8.43-4.66 0-8.43 3.78-8.43 8.43s3.77 8.431 8.43 8.431c4.651-.001 8.431-3.781 8.431-8.431zm-25.27 81.76c0-4.641-3.77-8.421-8.42-8.421-4.66 0-8.42 3.78-8.42 8.421 0 4.649 3.76 8.43 8.42 8.43 4.65 0 8.42-3.78 8.42-8.43zm-55.09-35.25c0-4.65-3.77-8.431-8.43-8.431s-8.431 3.78-8.431 8.431c0 4.649 3.771 8.43 8.431 8.43s8.43-3.78 8.43-8.43zm-13.53-57.46c0-4.65-3.79-8.431-8.439-8.431-4.65 0-8.431 3.78-8.431 8.431 0 4.649 3.78 8.42 8.431 8.42 4.649 0 8.439-3.77 8.439-8.42zm-61.42 90.28c0-4.64-3.77-8.42-8.43-8.42-4.65 0-8.42 3.78-8.42 8.42 0 4.66 3.77 8.44 8.42 8.44 4.66 0 8.43-3.78 8.43-8.44zm-33.71-72.24c0-4.64-3.78-8.409-8.42-8.409-4.67 0-8.44 3.77-8.44 8.409 0 4.66 3.77 8.45 8.44 8.45 4.64 0 8.42-3.79 8.42-8.45zm-48.18 69.84c0-4.65-3.76-8.42-8.42-8.42-4.64 0-8.42 3.77-8.42 8.42 0 4.659 3.78 8.439 8.42 8.439 4.66.001 8.42-3.779 8.42-8.439zm-33.69-87.88c0-4.671-3.79-8.44-8.45-8.44s-8.43 3.77-8.43 8.44c0 4.64 3.77 8.42 8.43 8.42s8.45-3.78 8.45-8.42zm-46.3 67.61c0-4.649-3.79-8.42-8.43-8.42-4.67 0-8.43 3.771-8.43 8.42 0 4.65 3.76 8.43 8.43 8.43 4.64 0 8.43-3.78 8.43-8.43z" fill="#f6cc4b"/><path d="m707.8 521.65v5.04h-408.74l-4.86 31.64v5.68h-34.88l-13.85 90.04-.04-.01-37.36 6.67-.63-.28v-473.81l1.28-5.13 498.44-47.41h.64z" fill="#6ebe44"/><path d="m208.72 181.49-1.28 5.13v473.81l-124.22-56.1v-465.23h1.05z" fill="#ffffc2"/><path d="m707.16 134.08-498.44 47.41-124.45-42.39h-1.05v-6.4l491.79-38.96 132.79 37.14v3.2z" fill="#ffffc2"/><g fill="none"><path d="m84.27 139.1 124.45 42.39 498.44-47.41" stroke="#231f20" stroke-width="21"/><path d="m245.43 654.04-37.36 6.67-.63-.28-124.22-56.1v-465.23-6.4l491.79-38.96 132.79 37.14v3.2 387.57" stroke="#231f20" stroke-width="21"/><path d="m207.44 186.62v473.81.28" stroke="#231f20" stroke-width="21"/><path d="m729.3 715.19 5.64 36.65h-504.51l15.04-97.79 13.85-90.04h34.88 411.85l6.1 39.66 1.15 7.48z" stroke="#231f20" stroke-width="21"/><path d="m294.2 558.33 4.86-31.64h408.74 37.97l28.9 187.82h-40.92" stroke="#231f20" stroke-width="21"/><path d="m341.22 610.98c0 4.64-3.79 8.42-8.45 8.42s-8.43-3.78-8.43-8.42c0-4.671 3.77-8.44 8.43-8.44s8.45 3.77 8.45 8.44z" stroke="#231f20" stroke-width="12.5842"/><path d="m294.92 678.59c0 4.65-3.79 8.43-8.43 8.43-4.67 0-8.43-3.779-8.43-8.43 0-4.649 3.76-8.42 8.43-8.42 4.64 0 8.43 3.77 8.43 8.42z" stroke="#231f20" stroke-width="12.5842"/><path d="m423.09 629.02c0 4.66-3.78 8.45-8.42 8.45-4.67 0-8.44-3.79-8.44-8.45 0-4.64 3.77-8.409 8.44-8.409 4.64-.001 8.42 3.769 8.42 8.409z" stroke="#231f20" stroke-width="12.5842"/><path d="m456.8 701.26c0 4.66-3.77 8.44-8.43 8.44-4.65 0-8.42-3.78-8.42-8.44 0-4.64 3.77-8.42 8.42-8.42 4.66 0 8.43 3.78 8.43 8.42z" stroke="#231f20" stroke-width="12.5842"/><path d="m518.22 610.98c0 4.649-3.79 8.42-8.439 8.42-4.65 0-8.431-3.771-8.431-8.42 0-4.65 3.78-8.431 8.431-8.431 4.649.001 8.439 3.781 8.439 8.431z" stroke="#231f20" stroke-width="12.5842"/><path d="m577.23 551.96c0 4.66-3.78 8.42-8.421 8.42-4.659 0-8.43-3.76-8.43-8.42 0-4.65 3.771-8.42 8.43-8.42 4.641 0 8.421 3.77 8.421 8.42z" stroke="#231f20" stroke-width="12.5842"/><path d="m433.71 550.72c0 4.66-3.77 8.431-8.44 8.431-4.66 0-8.41-3.771-8.41-8.431 0-4.649 3.75-8.43 8.41-8.43 4.67 0 8.44 3.78 8.44 8.43z" stroke="#231f20" stroke-width="12.5842"/><path d="m531.75 668.44c0 4.649-3.77 8.43-8.43 8.43s-8.431-3.78-8.431-8.43 3.771-8.431 8.431-8.431 8.43 3.781 8.43 8.431z" stroke="#231f20" stroke-width="12.5842"/><path d="m586.84 703.69c0 4.649-3.77 8.43-8.42 8.43-4.66 0-8.42-3.78-8.42-8.43 0-4.641 3.76-8.421 8.42-8.421 4.65.001 8.42 3.781 8.42 8.421z" stroke="#231f20" stroke-width="12.5842"/><path d="m612.11 621.93c0 4.65-3.78 8.431-8.431 8.431-4.66 0-8.43-3.78-8.43-8.431 0-4.649 3.77-8.43 8.43-8.43 4.651 0 8.431 3.78 8.431 8.43z" stroke="#231f20" stroke-width="12.5842"/><path d="m672.33 692.84c0 4.67-3.76 8.44-8.43 8.44-4.65 0-8.42-3.771-8.42-8.44 0-4.64 3.77-8.41 8.42-8.41 4.67 0 8.43 3.77 8.43 8.41z" stroke="#231f20" stroke-width="12.5842"/><path d="m677.09 601.31c0 4.65-3.76 8.44-8.42 8.44s-8.43-3.79-8.43-8.44c0-4.649 3.77-8.42 8.43-8.42s8.42 3.77 8.42 8.42z" stroke="#231f20" stroke-width="12.5842"/><path d="m712.15 603.67c1.09-3.39 4.27-5.84 8.01-5.84 4.66 0 8.43 3.78 8.43 8.45 0 4.64-3.77 8.42-8.43 8.42-2.83 0-5.34-1.4-6.86-3.55-.979-1.381-1.56-3.061-1.56-4.87 0-.91.14-1.79.41-2.61z" stroke="#231f20" stroke-width="12.5842"/><path d="m374.91 698.86c0 4.659-3.76 8.439-8.42 8.439-4.64 0-8.42-3.78-8.42-8.439 0-4.65 3.78-8.42 8.42-8.42 4.66 0 8.42 3.77 8.42 8.42z" stroke="#231f20" stroke-width="12.5842"/><path d="m0 0h850.394v850.394h-850.394z"/></g></svg>