<svg enable-background="new 0 0 850.394 850.394" height="850.394" viewBox="0 0 850.394 850.394" width="850.394" xmlns="http://www.w3.org/2000/svg"><path d="m624.82 226.55-277.84-31.07-238-26.62-1.94-4.34 149.57-66.93 495.06 43.71.41 484-127.26 132.36z" fill="#f6cc4b"/><path d="m346.98 195.48v501.86l-238-51.67v-476.81z" fill="#f6cc4b"/><path d="m624.82 226.55v531.11l-277.84-60.32v-501.86z" fill="#f6cc4b"/><g fill="none"><path d="m624.82 226.55v531.11" stroke="#231f20" stroke-width="20.3619"/><path d="m346.98 195.48v501.86.51" stroke="#231f20" stroke-width="20.3619"/><path d="m103.04 166.31 4-1.79 149.57-66.93 495.06 43.71.41 484-127.26 132.36-277.84-60.32-238-51.67v-476.81l238 26.62 277.84 31.07 117.11-75.51" stroke="#231f20" stroke-width="20.3619"/><path d="m379.63 285.94v99.26" stroke="#231f20" stroke-linecap="round" stroke-linejoin="round" stroke-width="20.3619"/><path d="m316.84 275.76v99.26" stroke="#231f20" stroke-linecap="round" stroke-linejoin="round" stroke-width="20.3619"/><path d="m0 0h850.394v850.394h-850.394z"/></g></svg>