<svg enable-background="new 0 0 850.394 850.394" height="850.394" viewBox="0 0 850.394 850.394" width="850.394" xmlns="http://www.w3.org/2000/svg"><path d="m402 196.33v3.67c-11.51 149.62-96.34 281.1-96.34 281.1s-3.11 0-16.04-3.83c52.2-87.72 68.38-279.27 68.38-279.27v-1.64z" fill="#fff5b4"/><path d="m558.43 477.06v.011c-12.939 3.83-16.05 3.83-16.05 3.83s-86.87-131.281-98.38-280.901v-3.69h46v1.69s16.23 191.35 68.43 279.06z" fill="#fff5b4"/><path d="m358 196.36v1.64s-16.18 191.55-68.38 279.27c-3.84-1.149-8.55-2.619-14.3-4.539l20.68-270.731v-5.59z" fill="#cb82b7"/><path d="m291.12 748.96-13.71-224.82c10.68 4.92 21.59 8.591 32.29 10.15l38.86 189.56c6.57 19.061-3.34 31.75-22.01 34.811-13.96 2.29-16.71-6.55-35.43-5.33z" fill="#cb82b7"/><path d="m554 202 18.73 270.53c-5.75 1.92-10.461 3.399-14.301 4.54v-.011c-52.199-87.709-68.429-279.059-68.429-279.059v-1.69h64z" fill="#cb82b7"/><path d="m570.63 523.94-13.7 224.81-.239 4.36c-18.511-1.12-21.29 7.63-35.2 5.35-18.67-3.07-28.57-15.76-22-34.82l38.859-189.56c10.7-1.56 21.61-5.22 32.28-10.14z" fill="#cb82b7"/><path d="m613.54 750.85.04 4.58c-2.93 0-6.21 2.13-11.66 7.58-5.07 5.061-16.33 4.91-21.84 3.61-8.04-1.9-16.18-13.04-23.15-13.5-.08-.01-.16-.01-.239-.01l.239-4.36 13.7-224.81v-.011c13.94-6.42 27.47-15.01 39.601-23.89l3.31.74v250.071z" fill="#fff5b4"/><path d="m619.12 451.11c-15.99 8.51-33.62 17.159-46.39 21.42l-18.73-270.53v-5.69h62v1.69z" fill="#fff5b4"/><path d="m296 196.41v5.59l-20.68 270.73c-12.78-4.25-30.4-12.891-46.39-21.41v-.011l5.07-253.309v-1.54z" fill="#fff5b4"/><path d="m654.34 93.78 23.01 102.53h-21.35-40-62-64-46-19.84l-22.16.02-44 .03-62 .05-62 .05-40 .03-23.31.02 23.01-102.53 230.46-.2z" fill="#cb82b7"/><path d="m275.32 472.73c5.75 1.92 10.46 3.39 14.3 4.539 12.93 3.83 16.04 3.83 16.04 3.83l2.6 46.15 1.44 7.04c-10.7-1.56-21.61-5.23-32.29-10.15v-.01c-14.83-6.84-29.2-16.12-41.91-25.6-23.06-17.21-40.63-35.05-45.46-40.101.16-9.64.3-19.25.45-28.77 4.76 2.84 20.58 12.16 38.44 21.66 15.99 8.522 33.61 17.162 46.39 21.412z" fill="#cb82b7"/><path d="m235.5 498.53-.99 2.45v250.07l-.04 4.59c-4.67 0-8.42 5.41-18.55 11.431-3.87 2.3-30.71 11.26-30.59 0 .02-1.38 2.44-159.67 4.71-308.641 4.83 5.05 22.4 22.89 45.46 40.1z" fill="#cb82b7"/><path d="m234 196.46v1.54l-5.07 253.31v.011c-17.86-9.5-33.68-18.82-38.44-21.66 1.86-121.701 3.51-229.661 3.51-229.661v-3.51z" fill="#cb82b7"/><path d="m291.12 748.96v4.37c-6.98.45-15.11 11.59-23.15 13.49-5.52 1.3-16.77 1.449-21.84-3.61-5.45-5.45-8.74-7.57-11.66-7.57l.04-4.59v-250.07l.99-2.45c12.71 9.479 27.08 18.76 41.91 25.6v.01z" fill="#fff5b4"/><path d="m662.71 766.86c.13 11.27-26.71 2.31-30.58.01-10.13-6.021-13.89-11.44-18.55-11.44l-.04-4.58v-250.07l-3.31-.74c26.5-19.4 46.27-40.2 48.81-42.91 1.77 149.27 3.65 308.35 3.67 309.73z" fill="#cb82b7"/><path d="m656 200s1.27 107.45 2.71 228.78c-2.51 1.5-19.8 11.81-39.59 22.33l-3.12-253.11v-1.69h40z" fill="#cb82b7"/><path d="m658.71 428.78c.11 9.38.22 18.85.33 28.35-2.54 2.71-22.31 23.51-48.81 42.91-12.131 8.88-25.66 17.47-39.601 23.89v.011c-10.67 4.92-21.58 8.579-32.28 10.14l1.44-7.03 2.59-46.149s3.11 0 16.05-3.83c3.84-1.141 8.551-2.62 14.301-4.54 12.77-4.261 30.399-12.91 46.39-21.42 19.79-10.522 37.08-20.832 39.59-22.332z" fill="#cb82b7"/><g fill="none"><path d="m194 200s-1.65 107.96-3.51 229.66c-.15 9.52-.29 19.13-.45 28.77-2.27 148.971-4.69 307.261-4.71 308.641-.12 11.26 26.72 2.3 30.59 0 10.13-6.021 13.88-11.431 18.55-11.431 2.92 0 6.21 2.12 11.66 7.57 5.07 5.06 16.32 4.91 21.84 3.61 8.04-1.9 16.17-13.04 23.15-13.49 18.72-1.22 21.47 7.62 35.43 5.33 18.67-3.061 28.58-15.75 22.01-34.811l-38.86-189.559-1.44-7.04-2.6-46.15s84.83-131.479 96.34-281.1" stroke="#231f20" stroke-width="21"/><path d="m234.51 751.05v-250.07" stroke="#231f20" stroke-width="14"/><path d="m291.12 748.96-13.71-224.82" stroke="#231f20" stroke-width="14"/><path d="m189.03 428.79s.51.31 1.46.87c4.76 2.84 20.58 12.16 38.44 21.66 15.99 8.52 33.61 17.16 46.39 21.41 5.75 1.92 10.46 3.39 14.3 4.539 12.93 3.83 16.04 3.83 16.04 3.83" stroke="#231f20" stroke-width="14"/><path d="m188.72 457.03s.46.489 1.32 1.399c4.83 5.051 22.4 22.891 45.46 40.101 12.71 9.479 27.08 18.76 41.91 25.6v.01c10.68 4.92 21.59 8.591 32.29 10.15" stroke="#231f20" stroke-width="14"/><path d="m228.93 451.31 5.07-253.31" stroke="#231f20" stroke-width="14"/><path d="m296 202-20.68 270.73" stroke="#231f20" stroke-width="14"/><path d="m358 198s-16.18 191.55-68.38 279.27" stroke="#231f20" stroke-width="14"/><path d="m656 200s1.27 107.45 2.71 228.78c.11 9.38.22 18.85.33 28.35 1.77 149.271 3.65 308.351 3.67 309.73.13 11.27-26.71 2.31-30.58.01-10.13-6.021-13.89-11.44-18.55-11.44-2.93 0-6.21 2.13-11.66 7.58-5.07 5.061-16.33 4.91-21.84 3.61-8.04-1.9-16.18-13.04-23.15-13.5-.08-.01-.16-.01-.239-.01-18.511-1.12-21.29 7.63-35.2 5.35-18.67-3.07-28.57-15.76-22-34.82l38.859-189.56 1.44-7.03 2.59-46.149s-86.87-131.28-98.38-280.9" stroke="#231f20" stroke-width="21"/><path d="m613.54 750.85v-250.07" stroke="#231f20" stroke-width="14"/><path d="m556.93 748.75 13.7-224.81" stroke="#231f20" stroke-width="14"/><path d="m659.02 428.59s-.109.061-.31.19c-2.51 1.5-19.8 11.81-39.59 22.33-15.99 8.51-33.62 17.159-46.39 21.42-5.75 1.92-10.461 3.399-14.301 4.54-12.939 3.83-16.05 3.83-16.05 3.83" stroke="#231f20" stroke-width="14"/><path d="m659.32 456.83s-.09.1-.28.3c-2.54 2.71-22.31 23.51-48.81 42.91-12.131 8.88-25.66 17.47-39.601 23.89v.011c-10.67 4.92-21.58 8.579-32.28 10.14" stroke="#231f20" stroke-width="14"/><path d="m619.12 451.11-3.12-253.11" stroke="#231f20" stroke-width="14"/><path d="m554 202 18.73 270.53" stroke="#231f20" stroke-width="14"/><path d="m490 198s16.23 191.35 68.43 279.06" stroke="#231f20" stroke-width="14"/><path d="m402 196.33 22.16-.02h19.84 46 64 62 40 21.35l-23.01-102.53h-230.18l-230.46.2-23.01 102.53 23.31-.02 40-.03 62-.05 62-.05z" stroke="#231f20" stroke-width="21"/><path d="m0 0h850.394v850.394h-850.394z"/></g></svg>