<svg enable-background="new 0 0 850.394 850.394" height="850.394" viewBox="0 0 850.394 850.394" width="850.394" xmlns="http://www.w3.org/2000/svg"><path d="m0 0h850.394v850.394h-850.394z" fill="none"/><path d="m72.79 70h322.82v546h-322.82z" fill="#ffffc2"/><path d="m72.79 70h322.82v546h-322.82z" fill="none" stroke="#231f20" stroke-width="14"/><path d="m471.911 590.937c2.334 1.397 6.865 4.23 12.177 7.922l-1.519 2.344-89.702-42.518-2.681.565-28.769 6.065-2.549.534-164.757-132.057s-5.67-9.6 4.034-9.853c5.818-.154 66.882 32.501 109.554 55.723 23.525 12.813 41.467 22.754 41.467 22.754l24.268 11.513 24.55 11.653s31.932 23.815 44.015 28.414l2.853.133c.913 12.092 7.831 25.288 27.059 36.808zm-107.811-43.772c4.597-1.921 6.509-7.853 4.257-13.219-2.251-5.365-7.807-8.152-12.404-6.231-4.6 1.929-6.513 7.841-4.257 13.218 2.244 5.363 7.793 8.165 12.404 6.232z" fill="#c8c8c8"/><path d="m471.911 590.937c-19.229-11.52-26.146-24.716-27.06-36.808-.68-8.961 1.942-17.31 5.292-23.92 7.734-15.225 18.283-7.096 33.293 7.315 5.271 5.058 10.65 9.828 16.147 14.271 15.5 12.557 31.911 22.567 49.369 29.457 4.356 10.45 3.922 22.728-2.259 33.184-6.57 11.098-18.038 17.52-30.065 18.162-.188-.661-.28-1.027-.28-1.027-1.807-7.078-10.147-15.538-19.262-22.981-4.371-3.567-8.916-6.904-12.999-9.73-5.311-3.693-9.842-6.526-12.176-7.923z" fill="#ffeec8"/><path d="m708.822 653.015-51.152 109.032.298 4.606c-34.022-2.284-74.981 7.444-74.981 7.444l-.209-.183c8.872-10.492 15.413-18.602 17.004-22.323 1.924-4.497-4.499-21.598-20.118-9.127l11.325-11.402s6.788-24.095-13.391-23.131c-2.918.137-6.487 3.052-9.621 5.182l8.592-6.872s11.966-19.892-3.43-25.161c-7.784-2.654-14.388-1.453-20.11 1.383-23.625-8.616-34.558-43.423-36.399-49.865 12.027-.643 23.495-7.064 30.065-18.162 6.181-10.456 6.615-22.733 2.259-33.184 1.589.645 3.193 1.251 4.805 1.823 28.303 10.149 72.823 29.146 112.18 53.352-.001 0 19.343 10.884 42.883 16.588z" fill="#ffeec8"/><path d="m599.781 751.592c-1.591 3.722-8.132 11.831-17.004 22.323-2.409 2.847-4.983 5.865-7.685 9.026-10.202 11.933-41.676.851-41.676.851l-.104-.443c4.692-1.128 7.633-1.915 7.633-1.915l38.717-38.969c15.62-12.471 22.043 4.63 20.119 9.127z" fill="#ffeec8"/><path d="m579.663 742.465-38.717 38.969s-2.94.787-7.633 1.915c-12.518 3.013-37.476 8.449-52.112 7.79-19.088-.861-23.723-18.921-24.148-20.771l.134-1.271c4.438.478 9.687.814 16.235 1.199 17.926 1.056 26.788-2.977 26.788-2.977l67.742-54.189.024-.017c3.134-2.13 6.703-5.045 9.621-5.182 20.179-.964 13.391 23.131 13.391 23.131z" fill="#ffeec8"/><path d="m553.028 682.463c5.723-2.836 12.326-4.037 20.11-1.383 15.396 5.27 3.43 25.161 3.43 25.161l-8.592 6.872-.024.017-67.742 54.189s-8.862 4.032-26.788 2.977c-6.549-.385-11.798-.722-16.235-1.199-10.771-1.165-16.724-3.213-24.675-9.024-14.469-10.584-13.576-27.008-17.942-29.354-3.925-2.114-6.728-5.797-8.758-10.144l2.609.894 75.596 9.291s28.322-18.188 48.349-32.374c5.581-3.956 12.154-11.726 20.662-15.923z" fill="#ffeec8"/><path d="m405.273 719.353c-4.016-9.496-4.617-21.596-5.052-27.474 4.46 5.297 11.949 7.08 19.572 9.917 11.697 4.365 24.038 7.45 35.448 12.53 12.341 5.49 23.034-21.027 5.136-34.277-.403-.295-.811-.583-1.221-.862-1.135-.752-2.313-1.424-3.522-2.046-.555-2.541-.701-6.402-1.836-8.593l-9.974-19.223c-3.425-6.604-8.534-11.763-14.52-15.218 14.271-8.272 31.183-14.37 44.401-18.359l21.859 11.665c1.32.779 2.67 1.473 4.042 2.075 5.492 2.416 11.319 3.414 17.022 3.109 1.842 6.442 12.774 41.249 36.399 49.865-8.509 4.197-15.081 11.967-20.663 15.923-20.026 14.187-48.349 32.374-48.349 32.374l-75.596-9.291-2.609-.894c-.185-.397-.365-.811-.537-1.221z" fill="#ffeec8"/><path d="m400.221 691.879c-1.914-2.271-3.262-5.187-3.833-9.109-.871-5.997 1.349-14.994 5.985-20.686 3.222-3.954 7.604-6.313 12.94-4.979 6.338 1.603 13.788 7.627 19.444 11.009 6.533 3.895 14.169 5.589 20.876 9.026 1.21.622 2.388 1.294 3.522 2.046.41.279.817.567 1.221.862 17.898 13.25 7.205 39.768-5.136 34.277-11.41-5.08-23.751-8.165-35.448-12.53-7.622-2.836-15.111-4.619-19.571-9.916z" fill="#ffeec8"/><path d="m453.797 668.548c1.135 2.19 1.281 6.052 1.836 8.593-6.707-3.438-14.343-5.132-20.876-9.026-5.656-3.382-13.106-9.406-19.444-11.009-5.336-1.334-9.718 1.024-12.94 4.979l-.44-.356c3.947-11.013 14.593-20.191 27.371-27.62 5.985 3.455 11.095 8.613 14.52 15.218z" fill="#ffeec8"/><path d="m421.716 630.78-.003.008c-9.019-2.827-19.1-2.232-28.133 2.457-1.944 1.008-3.766 2.169-5.455 3.461 5.082-5.451 4.187-10.98 4.488-18.37.312-8.009-26.613-46.521-31.196-53.021l28.769-6.065.633 2.982z" fill="#c8c8c8"/><path d="m368.357 533.946c2.251 5.366.339 11.298-4.257 13.219-4.611 1.933-10.16-.869-12.404-6.232-2.256-5.377-.343-11.289 4.257-13.218 4.597-1.921 10.153.866 12.404 6.231z" fill="#c8c8c8"/><path d="m373.435 513.929-24.268-11.513s-17.942-9.941-41.467-22.754l-41.645-127.75s.328-11.149 8.669-6.206c7.765 4.608 98.711 168.223 98.711 168.223z" fill="#c8c8c8"/><g fill="none"><path d="m583.68 699.322c8.386 5.768 21.317 8.578 32.441 11.183" stroke="#231f20" stroke-width="14"/><path d="m708.822 653.015c-23.54-5.704-42.885-16.588-42.885-16.588-39.356-24.205-83.877-43.202-112.18-53.352-1.611-.572-3.216-1.179-4.805-1.823-17.458-6.89-33.869-16.9-49.369-29.457-5.497-4.442-10.876-9.213-16.147-14.271-15.01-14.411-25.559-22.54-33.293-7.315-3.35 6.61-5.972 14.959-5.292 23.92.913 12.092 7.831 25.288 27.06 36.808 2.334 1.397 6.865 4.23 12.177 7.922 4.083 2.826 8.628 6.163 12.999 9.73 9.114 7.443 17.455 15.903 19.262 22.981 0 0 .092.366.28 1.027 1.842 6.442 12.774 41.249 36.399 49.865.224.09.449.171.68.245" stroke="#231f20" stroke-width="14"/><path d="m459.155 679.187c-1.135-.752-2.313-1.424-3.522-2.046-6.707-3.438-14.343-5.132-20.876-9.026-5.656-3.382-13.106-9.406-19.444-11.009-5.336-1.334-9.718 1.024-12.94 4.979-4.636 5.691-6.856 14.688-5.985 20.686.572 3.923 1.92 6.839 3.833 9.109 4.46 5.297 11.949 7.08 19.572 9.917 11.697 4.365 24.038 7.45 35.448 12.53 12.341 5.49 23.034-21.027 5.136-34.277-.404-.296-.812-.584-1.222-.863" stroke="#231f20" stroke-width="14"/><path d="m567.952 713.13c-.879.6-1.72 1.134-2.508 1.528" stroke="#231f20" stroke-width="14"/><path d="m457.02 770.217s.014.051.033.15c.426 1.851 5.061 19.91 24.148 20.771 14.637.659 39.595-4.777 52.112-7.79 4.692-1.128 7.633-1.915 7.633-1.915l38.717-38.969 11.325-11.402s6.788-24.095-13.391-23.131c-2.918.137-6.487 3.052-9.621 5.182" stroke="#231f20" stroke-width="14"/><path d="m408.42 721.469 75.596 9.291s28.322-18.188 48.349-32.374c5.582-3.956 12.154-11.726 20.663-15.923 5.723-2.836 12.326-4.037 20.11-1.383 15.396 5.27 3.43 25.161 3.43 25.161l-8.592 6.872-.024.017-67.742 54.189s-8.862 4.032-26.788 2.977c-6.549-.385-11.798-.722-16.235-1.199-10.771-1.165-16.724-3.213-24.675-9.024-14.469-10.584-13.576-27.008-17.942-29.354-3.925-2.114-6.728-5.797-8.758-10.144-.187-.398-.366-.813-.539-1.223-4.016-9.496-4.617-21.596-5.052-27.474-.064-.924-.135-1.688-.205-2.27" stroke="#231f20" stroke-width="14"/><path d="m533.417 783.792s31.474 11.082 41.676-.851c2.701-3.161 5.275-6.18 7.685-9.026 8.872-10.492 15.413-18.602 17.004-22.323 1.924-4.497-4.499-21.598-20.118-9.127-.788.621-1.592 1.316-2.424 2.1" stroke="#231f20" stroke-width="14"/><path d="m582.986 774.098s40.959-9.729 74.981-7.444c.538.029 1.082.068 1.613.113" stroke="#231f20" stroke-width="14"/><path d="m495.962 609.957s-9.371 1.9-22.257 5.791c-13.219 3.989-30.131 10.087-44.401 18.359-12.778 7.429-23.424 16.607-27.371 27.62" stroke="#231f20" stroke-width="14"/><path d="m441.999 553.996c-12.083-4.599-44.015-28.414-44.015-28.414l-24.55-11.653-24.268-11.513s-17.942-9.941-41.467-22.754c-42.672-23.222-103.736-55.877-109.554-55.723-9.705.253-4.034 9.853-4.034 9.853l164.757 132.058 2.549-.534 28.769-6.065 2.681-.565 89.702 42.518" stroke="#231f20" stroke-width="11.5872"/><path d="m355.953 527.715c4.597-1.921 10.153.866 12.404 6.231 2.251 5.366.339 11.298-4.257 13.219-4.611 1.933-10.16-.869-12.404-6.232-2.256-5.377-.343-11.289 4.257-13.218z" stroke="#231f20" stroke-width="15.1584"/><path d="m500.114 550.301c.267-.072.541-.142.828-.196 4.757-.928 11.701 1.022 13.805 2.265l18.656 11.033c7.265 4.288 12.548 10.635 15.55 17.85 4.356 10.45 3.922 22.728-2.259 33.184-6.57 11.098-18.038 17.52-30.065 18.162-5.703.305-11.53-.693-17.022-3.109-1.372-.603-2.722-1.296-4.042-2.075l-21.859-11.665-.609-.321" stroke="#231f20" stroke-width="14"/><path d="m373.435 513.929s-90.946-163.614-98.711-168.222c-8.341-4.943-8.669 6.206-8.669 6.206l41.645 127.75.629 1.922" stroke="#231f20" stroke-width="11.5872"/><path d="m390.819 562.232 30.897 68.548" stroke="#231f20" stroke-width="11.5872"/><path d="m388.125 636.706c5.082-5.451 4.187-10.98 4.488-18.37.312-8.009-26.613-46.521-31.196-53.021-.43-.604-.666-.935-.666-.935" stroke="#231f20" stroke-width="11.5872"/><path d="m384.658 639.72c1.381-1.002 2.514-1.996 3.45-2.994" stroke="#231f20" stroke-width="11.5872"/><path d="m455.787 677.777c-.058-.197-.105-.417-.154-.637-.555-2.541-.701-6.402-1.836-8.593l-9.974-19.223c-3.425-6.604-8.534-11.763-14.52-15.218-2.4-1.39-4.949-2.501-7.591-3.319-9.019-2.827-19.1-2.232-28.133 2.457-1.944 1.008-3.766 2.169-5.455 3.461-.011.004-.014.012-.018.02-1.222.927-2.376 1.93-3.45 2.994-.011.004-.022.009-.029.023-3.368 3.32-6.021 7.217-7.883 11.452-4.398 10.001-4.377 21.881 1.074 32.389l9.974 19.223c3.461 6.666 10.902 13.78 17.479 16.546.973.419 1.922.729 2.844.935" stroke="#231f20" stroke-width="14"/></g><path d="m790.092 256.285v1.517h-14.304-27.256-14.858v-1.517-71.887h56.418z" fill="#fff"/><path d="m775.788 257.802v232.364c0 7.53-6.102 13.631-13.625 13.631-3.759 0-7.171-1.523-9.639-3.991-2.469-2.468-3.992-5.874-3.992-9.64v-232.364z" fill="#fff"/><path d="m693.437 261.895-.566 211.896s-1.089 22.892-22.937 32.575c0 0-40.722 16.464-88.332 14.707l1.247.044c-47.61 1.757-88.339-14.707-88.339-14.707-21.847-9.684-22.93-32.575-22.93-32.575l-.561-211.896c0-19.284 4.577-24.346 14.613-29.623 0 0 15.753-12.516 44.878-17.326l-.838 3.123s10.011 11.761 53.088 11.761h1.31c43.076 0 52.627-11.761 52.627-11.761l-.742-2.757c29.131 4.81 42.856 16.911 42.856 16.911 10.043 5.275 14.626 10.343 14.626 29.628z" fill="#fff"/><path d="m635.955 215.355.742 2.757s-9.551 11.761-52.627 11.761h-1.31c-43.077 0-53.088-11.761-53.088-11.761l.838-3.123 12.434-46.307h7.229 32.588 4.57 28.666 7.423z" fill="#f73900"/><path d="m615.997 167.456v1.228c-5.396 0-14.336 0-28.666 0h-4.57c-16.062 0-26.462 0-32.588 0v-.755s8.021-42.856 13.403-64.886c5.384-22.029 33.634-22.501 39.017-.472 5.388 22.028 13.404 64.885 13.404 64.885z" fill="#f73900"/><path d="m635.955 215.355c29.131 4.81 42.856 16.911 42.856 16.911 10.042 5.276 14.625 10.344 14.625 29.629l-.566 211.896s-1.089 22.892-22.937 32.575c0 0-40.722 16.464-88.332 14.707l1.247.044c-47.61 1.757-88.339-14.707-88.339-14.707-21.847-9.684-22.93-32.575-22.93-32.575l-.561-211.896c0-19.284 4.577-24.346 14.613-29.623 0 0 15.753-12.516 44.878-17.326" fill="none" stroke="#000" stroke-width="14"/><path d="m530.511 214.99-.838 3.123s10.011 11.761 53.088 11.761h1.31c43.076 0 52.627-11.761 52.627-11.761l-.742-2.757-12.535-46.672s-1.764 0-7.423 0c-5.396 0-14.336 0-28.666 0h-4.57c-16.062 0-26.462 0-32.588 0-5.081 0-7.229 0-7.229 0z" fill="none" stroke="#000" stroke-width="14"/><path d="m775.788 257.802v232.364c0 7.53-6.102 13.631-13.625 13.631-3.759 0-7.171-1.523-9.639-3.991-2.469-2.468-3.992-5.874-3.992-9.64v-232.364" fill="none" stroke="#000" stroke-width="14"/><path d="m615.997 167.456s-8.016-42.857-13.404-64.886c-5.383-22.029-33.633-21.557-39.017.472-5.383 22.03-13.403 64.886-13.403 64.886" fill="none" stroke="#000" stroke-width="14"/><path d="m733.674 256.285v-71.887h56.418v71.887" fill="none" stroke="#000" stroke-width="14"/><path d="m727.139 257.802h6.535 14.858 27.256 14.304 7.278" fill="none" stroke="#000" stroke-linecap="round" stroke-linejoin="round" stroke-width="14"/></svg>