<svg enable-background="new 0 0 850.394 850.394" height="850.394" viewBox="0 0 850.394 850.394" width="850.394" xmlns="http://www.w3.org/2000/svg"><path d="m70.232 503.621c-.712-6.794 2.238-13.943 13.326-19.604 25.096-12.802 114.698-44.401 114.698-44.401s24.667-8.631 50.57 7.397c25.902 16.035 326.845 254.077 326.845 254.077l-172.672 91.272-319.441-266.406s-12.105-10.63-13.326-22.335zm381.338 134.062c0-8.182-8-14.809-17.859-14.809-9.867 0-17.867 6.627-17.867 14.809 0 8.166 8 14.8 17.867 14.8 9.859-.001 17.859-6.634 17.859-14.8zm-92.254 18.208c0-10.928-10.681-19.785-23.868-19.785-13.173 0-23.861 8.857-23.861 19.785 0 10.92 10.688 19.784 23.861 19.784 13.187 0 23.868-8.864 23.868-19.784zm-51.987-104.948c0-15.44-15.105-27.966-33.735-27.966s-33.735 12.525-33.735 27.966c0 15.447 15.105 27.966 33.735 27.966s33.735-12.518 33.735-27.966zm-131.932-38.85c0-8.174-7.992-14.808-17.859-14.808-9.859 0-17.859 6.634-17.859 14.808 0 8.167 8 14.801 17.859 14.801 9.867 0 17.859-6.634 17.859-14.801z" fill="#f6cc4b"/><path d="m433.711 622.874c9.859 0 17.859 6.627 17.859 14.809 0 8.166-8 14.8-17.859 14.8-9.867 0-17.867-6.634-17.867-14.8 0-8.182 8-14.809 17.867-14.809z" fill="#f6cc4b"/><path d="m402.998 792.363-.327.771-332.439-140.971v-148.542c1.221 11.705 13.326 22.335 13.326 22.335z" fill="#f6cc4b"/><path d="m335.448 636.105c13.188 0 23.868 8.857 23.868 19.785 0 10.92-10.681 19.784-23.868 19.784-13.173 0-23.861-8.864-23.861-19.784 0-10.927 10.688-19.785 23.861-19.785z" fill="#f6cc4b"/><path d="m273.594 522.978c18.629 0 33.735 12.525 33.735 27.966 0 15.447-15.105 27.966-33.735 27.966s-33.735-12.519-33.735-27.966c0-15.441 15.106-27.966 33.735-27.966z" fill="#f6cc4b"/><path d="m157.538 497.285c9.867 0 17.859 6.634 17.859 14.808 0 8.167-7.992 14.801-17.859 14.801-9.859 0-17.859-6.634-17.859-14.801-.001-8.174 7.999-14.808 17.859-14.808z" fill="#f6cc4b"/><g fill="none"><path d="m70.232 503.621c-.712-6.794 2.238-13.943 13.326-19.604 25.096-12.802 114.698-44.401 114.698-44.401s24.667-8.631 50.57 7.397c25.902 16.035 326.845 254.077 326.845 254.077l-172.672 91.272-319.441-266.406s-12.105-10.63-13.326-22.335z" stroke="#000" stroke-width="14.8005"/><path d="m70.232 503.534v.087 148.542l332.439 140.971 2.718 1.155" stroke="#000" stroke-width="14.8005"/><path d="m273.594 522.978c18.629 0 33.735 12.525 33.735 27.966 0 15.447-15.105 27.966-33.735 27.966s-33.735-12.519-33.735-27.966c0-15.441 15.106-27.966 33.735-27.966z" stroke="#000" stroke-width="14.8005"/><path d="m447.937 765.175c-10.411-4.759-17.459-13.95-17.459-24.493 0-15.446 15.112-27.966 33.734-27.966 18.63 0 33.735 12.52 33.735 27.966" stroke="#000" stroke-width="14.8005"/><path d="m335.448 636.105c13.188 0 23.868 8.857 23.868 19.785 0 10.92-10.681 19.784-23.868 19.784-13.173 0-23.861-8.864-23.861-19.784 0-10.927 10.688-19.785 23.861-19.785z" stroke="#000" stroke-width="14.8005"/><path d="m433.711 622.874c9.859 0 17.859 6.627 17.859 14.809 0 8.166-8 14.8-17.859 14.8-9.867 0-17.867-6.634-17.867-14.8 0-8.182 8-14.809 17.867-14.809z" stroke="#000" stroke-width="14.8005"/><path d="m157.538 497.285c9.867 0 17.859 6.634 17.859 14.808 0 8.167-7.992 14.801-17.859 14.801-9.859 0-17.859-6.634-17.859-14.801-.001-8.174 7.999-14.808 17.859-14.808z" stroke="#000" stroke-width="14.8005"/><path d="m0 0h850.394v850.394h-850.394z"/></g><path d="m794.833 278.682c2.55 26.069.64 63.248.64 63.248v204.423s6.381 53.657-37.054 53.657c-35.774 0-191.652 0-227.427 0-43.436 0-37.055-53.657-37.055-53.657v-286.193c8.884-81.206 88.609-120.333 89.728-120.887 2.254 1.719 4.938 2.703 7.813 2.703h8.512 24.702 25.123 25.983 24.703 7.651c2.436 0 4.738-.707 6.754-1.968 0 0 57.563 17.93 63.954 35.182 6.392 17.251 12.839 71.539 15.973 103.492zm-58.576 70.88c18.169-1.815 30.921-23.212 28.457-47.801l-8.34-83.709c-2.445-24.579-19.162-43.034-37.341-41.219l-3.114.306c-18.178 1.815-30.921 23.212-28.476 47.791l8.349 83.709c2.455 24.579 19.172 43.043 37.351 41.238z" fill="#fff"/><path d="m722.645 104.769v20.099c0 6.572-3.134 12.275-7.737 15.141-2.016 1.261-4.318 1.968-6.754 1.968h-7.651v-54.308h7.651c8.004 0 14.491 7.662 14.491 17.1z" fill="#00e800"/><path d="m675.799 87.669h24.703v54.306h-24.703z" fill="#00e800"/><path d="m649.815 87.669h25.983v54.306h-25.983z" fill="#00e800"/><path d="m624.692 87.669h25.123v54.306h-25.123z" fill="#00e800"/><path d="m599.99 87.669h24.702v54.306h-24.702z" fill="#00e800"/><path d="m583.665 139.272c-4.022-3.038-6.678-8.358-6.678-14.405v-20.099c0-9.438 6.486-17.099 14.491-17.099h8.512v54.306h-8.512c-2.874.001-5.559-.983-7.813-2.703z" fill="#00e800"/><path d="m700.502 87.669h7.651c8.005 0 14.491 7.661 14.491 17.099v20.099c0 6.572-3.134 12.275-7.737 15.141-2.016 1.261-4.318 1.968-6.754 1.968h-7.651-24.703-25.983-25.123-24.703-8.512c-2.875 0-5.56-.984-7.813-2.703-4.022-3.038-6.678-8.358-6.678-14.405v-20.099c0-9.438 6.486-17.099 14.491-17.099h8.512 24.702 25.123 25.983 24.704z" fill="none" stroke="#000" stroke-width="15.3319"/><path d="m764.714 301.761c2.464 24.588-10.288 45.986-28.457 47.801l-3.114.315c-18.179 1.805-34.896-16.66-37.351-41.238l-8.349-83.709c-2.445-24.579 10.298-45.976 28.476-47.791l3.114-.306c18.179-1.815 34.896 16.64 37.341 41.219z" fill="none" stroke="#000" stroke-width="15.3319"/><path d="m714.907 140.008s57.563 17.93 63.954 35.182c6.391 17.251 12.838 71.539 15.972 103.492 2.55 26.069.64 63.248.64 63.248v204.423s6.381 53.657-37.054 53.657c-35.774 0-191.652 0-227.427 0-43.436 0-37.055-53.657-37.055-53.657v-286.193c8.884-81.206 88.609-120.333 89.728-120.887h.009" fill="none" stroke="#000" stroke-width="15.3319"/><path d="m599.99 87.669v54.307" fill="none" stroke="#000" stroke-width="15.3319"/><path d="m624.692 87.669v54.307" fill="none" stroke="#000" stroke-width="15.3319"/><path d="m649.815 87.669v54.307" fill="none" stroke="#000" stroke-width="15.3319"/><path d="m675.799 87.669v54.307" fill="none" stroke="#000" stroke-width="15.3319"/><path d="m700.502 87.669v54.307" fill="none" stroke="#000" stroke-width="15.3319"/><path d="m446.81 271.726-152.81 121.418-239.45-137.596 44.684-26.144.036 18.382 194.273 108.966 1.328-1.035 111.992-87.632-.03-14.327h.889z" fill="#ffeec8"/><path d="m99.234 229.404-.195-107.218h1.096l193.116 112.223.28-.189.268.402v119.725l1.072 1.37-1.328 1.035-194.273-108.966z" fill="#ffff4b"/><path d="m100.135 122.186h-1.096v-.944l117.46-55.765 190.133 93.66.201 94.621.03 14.327-111.992 87.632-1.072-1.37v-119.725l-.268-.402-.28.189z" fill="#ffff4b"/><path d="m100.135 122.186 193.116 112.223.28-.189 109.971-73.61" fill="none" stroke="#000" stroke-width="16.0882"/><path d="m294.871 355.717-1.328 1.035-194.273-108.966-.036-18.382-.195-107.218v-.944l117.46-55.765 190.133 93.66.201 94.621.03 14.327z" fill="none" stroke="#000" stroke-width="16.0882"/><path d="m293.799 234.622v119.725" fill="none" stroke="#000" stroke-width="16.0882"/><path d="m407.722 253.758 39.088 17.968-152.81 121.418-239.45-137.596 44.684-26.144h.006" fill="none" stroke="#000" stroke-width="16.0882"/></svg>