<svg enable-background="new 0 0 850.394 850.394" height="850.394" viewBox="0 0 850.394 850.394" width="850.394" xmlns="http://www.w3.org/2000/svg"><path d="m756.73 528.04s17.05 20.35 9.31 34.1c-7.74 13.771-35.92 37.74-35.92 37.74l-47.8 6.3-1.61-1.59.03-.03 7.029-7.149 68.591-69.74z" fill="#ed1e29"/><path d="m756.34 527.62.03.04-.01.01-68.591 69.74-7.029 7.149-1.74-1.71 5.79-47.869s23.68-28.41 37.36-36.301c13.68-7.889 34.19 8.941 34.19 8.941z" fill="#ed1e29"/><path d="m741.14 400.39s17.051 20.35 9.311 34.11-35.91 37.73-35.91 37.73l-47.8 6.3-1.61-1.59.021-.03 7.04-7.15 68.579-69.74z" fill="#ed1e29"/><path d="m740.79 400-.021.02-68.579 69.74-7.04 7.15-1.73-1.7 5.79-47.88s23.67-28.41 37.35-36.3c13.69-7.89 34.2 8.94 34.2 8.94z" fill="#ed1e29"/><path d="m558.01 304.81c2.2 12.05 3.36 24.47 3.36 37.15 0 8.34-.5 16.56-1.47 24.63l-4.15-.54-77.66-8.63c.71-5.31 1.07-10.72 1.07-16.22 0-7.24-.62-14.32-1.83-21.22-.09-.53-.19-1.06-.29-1.59z" fill="#fff5b4"/><path d="m559.9 366.59c-.131 1.15-.28 2.3-.44 3.45-3 22-9.5 42.88-18.89 62.09-.471.96-.94 1.91-1.431 2.86l-4.8-2.41-68.2-36.41c.58-1.14 1.141-2.29 1.67-3.45 4.96-10.66 8.431-22.15 10.141-34.22.05-.36.1-.72.14-1.08l77.66 8.63z" fill="#231f20"/><path d="m558.01 304.81-80.97 13.58c-2.25-11.91-6.22-23.21-11.65-33.64-.08-.16-.17-.32-.26-.48l68.45-38.02 3.24-1.72c.54.99 1.069 1.99 1.59 3 9.21 17.74 15.9 36.99 19.6 57.28z" fill="#231f20"/><path d="m171.69 436c8.42 16.33 18.98 31.38 31.3 44.79.88.97 1.78 1.92 2.68 2.87 14.81 15.53 32.03 28.74 51.06 39.02 16.93 9.17 35.3 16.021 54.68 20.12 2.03.44 4.08.84 6.14 1.21 11.91 2.15 24.17 3.28 36.71 3.28h1.79c12.53 0 24.8-1.13 36.71-3.28 1.12-.2 2.25-.41 3.36-.64 19.06-3.76 37.16-10.17 53.92-18.83 1.19-.61 2.36-1.23 3.53-1.86 19.029-10.279 36.26-23.489 51.069-39.02.86-.9 1.721-1.82 2.561-2.74 12.63-13.71 23.399-29.16 31.939-45.93.49-.95.96-1.9 1.431-2.86 9.39-19.21 15.89-40.09 18.89-62.09.16-1.15.31-2.3.44-3.45.97-8.07 1.47-16.29 1.47-24.63 0-12.68-1.16-25.1-3.36-37.15-3.7-20.29-10.39-39.54-19.6-57.28-.521-1.01-1.05-2.01-1.59-3-9.431-17.47-21.32-33.41-35.21-47.37-.761-.77-1.53-1.53-2.301-2.28-16-15.58-34.52-28.57-54.909-38.31-.87-.41-1.74-.82-2.61-1.22-16.41-7.56-33.99-13.01-52.41-16.01-1.06-.18-2.13-.34-3.2-.5-9.83-1.45-19.9-2.19-30.13-2.19h-1.79c-10.24 0-20.3.74-30.13 2.19-1.07.16-2.14.32-3.2.5-19.39 3.16-37.87 9.04-55.03 17.23-20.38 9.74-38.91 22.73-54.9 38.31-.77.75-1.54 1.51-2.3 2.28-13.14 13.21-24.5 28.2-33.67 44.57-1.08 1.91-2.13 3.85-3.14 5.8-9.2 17.74-15.89 36.99-19.6 57.28-.17.93-.33 1.86-.49 2.8-1.88 11.17-2.86 22.65-2.86 34.35 0 8.34.49 16.56 1.46 24.63.13 1.15.28 2.3.44 3.45 3.01 22 9.5 42.88 18.9 62.09.64 1.3 1.28 2.59 1.95 3.87zm182.57-365.12c149.71 0 271.08 121.37 271.08 271.08 0 149.72-121.37 271.09-271.08 271.09s-271.08-121.37-271.08-271.09c0-149.71 121.37-271.08 271.08-271.08z" fill="#797878"/><path d="m534.34 432.58 4.8 2.41c-8.54 16.77-19.31 32.22-31.939 45.93l-60.46-56.76c.069-.07.13-.14.2-.21 7.399-8.07 13.739-17.13 18.79-26.96.14-.27.279-.55.409-.82z" fill="#fff5b4"/><path d="m536.82 244.53-3.24 1.72-68.45 38.02c-5.68-10.81-12.939-20.66-21.479-29.25l56.029-55.92 1.931-1.94c13.889 13.96 25.779 29.9 35.209 47.37z" fill="#fff5b4"/><path d="m446.74 424.16 60.46 56.76c-.84.92-1.7 1.84-2.561 2.74-14.81 15.53-32.04 28.74-51.069 39.02-1.17.63-2.34 1.25-3.53 1.86l-1.47-4.4-34.83-70.62c.73-.38 1.46-.77 2.18-1.17 10.26-5.67 19.61-12.76 27.79-21.02 1.02-1.04 2.04-2.1 3.03-3.17z" fill="#231f20"/><path d="m501.61 197.16-1.931 1.94-56.029 55.92c-.36-.37-.73-.74-1.101-1.1-9.7-9.52-20.98-17.45-33.41-23.34l32.65-75.23c.87.4 1.74.81 2.61 1.22 20.39 9.74 38.909 22.73 54.909 38.31.772.75 1.542 1.51 2.302 2.28z" fill="#231f20"/><path d="m479.16 341.2c0 5.5-.36 10.91-1.07 16.22l-98.09-10.89-5.3-.59c.22-1.17.33-2.36.33-3.59 0-2.34-.4-4.58-1.15-6.67l103.16-17.29c.1.53.2 1.06.29 1.59 1.21 6.9 1.83 13.98 1.83 21.22z" fill="#fff5b4"/><path d="m478.09 357.42c-.04.36-.09.72-.14 1.08-1.71 12.07-5.181 23.56-10.141 34.22-.529 1.16-1.09 2.31-1.67 3.45l-86.52-46.18.38-3.46z" fill="#231f20"/><path d="m477.04 318.39-103.16 17.29c-.07-.2-.14-.4-.23-.6l91.48-50.81c.09.16.18.32.26.48 5.43 10.43 9.4 21.73 11.65 33.64z" fill="#231f20"/><path d="m466.14 396.17c-.13.27-.27.55-.409.82-5.051 9.83-11.391 18.89-18.79 26.96-.07.07-.131.14-.2.21l-74.741-70.16-.5-.35c1.58-2.27 2.69-4.89 3.2-7.71l5.3.59-.38 3.46z" fill="#fff5b4"/><path d="m465.13 284.27-91.48 50.81c-1.29-3.32-3.46-6.2-6.22-8.36l.78-1.82 3.77 1.64 71.67-71.52c8.54 8.59 15.8 18.44 21.48 29.25z" fill="#fff5b4"/><path d="m448.57 520.14 1.47 4.4c-16.76 8.66-34.86 15.07-53.92 18.83l-1.08-5.65-17.27-75.96c.7-.12 1.4-.25 2.1-.38 12-2.3 23.39-6.34 33.87-11.86z" fill="#fff5b4"/><path d="m372 354 74.74 70.16c-.99 1.07-2.01 2.13-3.03 3.17-8.18 8.26-17.53 15.35-27.79 21.02-.72.4-1.45.79-2.18 1.17l-43.8-88.819-5.31-.87c2.75-1.49 5.11-3.62 6.87-6.18z" fill="#231f20"/><path d="m443.65 255.02-71.67 71.52-3.77-1.64 40.93-94.32c12.43 5.89 23.709 13.82 33.41 23.34.37.36.74.73 1.1 1.1z" fill="#231f20"/><path d="m441.79 155.35-32.65 75.23c-.18-.08-.35-.17-.53-.25-10.04-4.71-20.83-8.08-32.13-9.91l12.32-77.4.58-3.68c18.42 3 36 8.45 52.41 16.01z" fill="#fff5b4"/><path d="m369.94 360.7 43.8 88.819c-10.48 5.521-21.87 9.561-33.87 11.86-.7.13-1.4.26-2.1.38l-22.62-99.53c3.43 0 6.66-.87 9.48-2.4z" fill="#fff5b4"/><path d="m409.14 230.58-40.93 94.32-.78 1.82c-2.12-1.67-4.6-2.92-7.29-3.61l16.34-102.69c11.3 1.83 22.09 5.2 32.13 9.91.18.08.35.17.53.25z" fill="#fff5b4"/><path d="m395.04 537.72 1.08 5.65c-1.11.229-2.24.439-3.36.64-11.91 2.15-24.18 3.28-36.71 3.28h-1.79c-12.54 0-24.8-1.13-36.71-3.28-2.06-.37-4.11-.77-6.14-1.21l.59-2.8 15.98-79.11c.81.17 1.63.33 2.45.49 1.16.22 2.33.42 3.5.61 6.37 1.029 12.91 1.56 19.56 1.56h3.32c6.66 0 13.19-.53 19.56-1.56.47-.08.94-.15 1.4-.23z" fill="#231f20"/><path d="m389.38 139.34-.58 3.68-12.32 77.4c-.82-.13-1.64-.25-2.46-.37-5.62-.79-11.37-1.2-17.21-1.2h-3.32c-5.84 0-11.58.41-17.2 1.2-.62.09-1.23.18-1.84.27l-12.94-77.3-.58-3.68c1.06-.18 2.13-.34 3.2-.5 9.83-1.45 19.89-2.19 30.13-2.19h1.79c10.23 0 20.3.74 30.13 2.19 1.07.16 2.14.32 3.2.5z" fill="#231f20"/><path d="m355.15 362.23 22.62 99.53c-.46.08-.93.15-1.4.23-6.37 1.029-12.9 1.56-19.56 1.56h-3.32c-6.65 0-13.19-.53-19.56-1.56-1.17-.19-2.34-.391-3.5-.61-.82-.16-1.64-.32-2.45-.49l20.04-99.25.29-.62c2.14.78 4.44 1.21 6.84 1.21z" fill="#231f20"/><path d="m376.48 220.42-16.34 102.69c-1.6-.42-3.27-.64-4.99-.64-1.37 0-2.71.14-4.01.4l-.32-4.74-16.37-97.81c.61-.09 1.22-.18 1.84-.27 5.62-.79 11.36-1.2 17.2-1.2h3.32c5.84 0 11.59.41 17.21 1.2.82.12 1.64.24 2.46.37z" fill="#231f20"/><path d="m336.9 334.46c.87-2.02 2.07-3.87 3.53-5.48 1.29-1.41 2.77-2.64 4.41-3.63 1.91-1.16 4.04-2.01 6.3-2.48 1.3-.26 2.64-.4 4.01-.4 1.72 0 3.39.22 4.99.64 2.69.69 5.17 1.94 7.29 3.61 2.76 2.16 4.93 5.04 6.22 8.36l-1.65.92 1.88-.32c.75 2.09 1.15 4.33 1.15 6.67 0 1.23-.11 2.42-.33 3.59-.51 2.82-1.62 5.44-3.2 7.71-1.76 2.56-4.12 4.69-6.87 6.18-2.82 1.53-6.05 2.4-9.48 2.4-2.4 0-4.7-.43-6.84-1.21-2.13-.78-4.09-1.91-5.81-3.33-1.47-1.21-2.76-2.64-3.83-4.22-1.51-2.23-2.57-4.78-3.07-7.53-.22-1.17-.33-2.36-.33-3.59 0-2.8.58-5.47 1.63-7.89z" fill="#ed1e29"/><path d="m350.82 318.13.32 4.74c-2.26.47-4.39 1.32-6.3 2.48l-.9-1.87-43.31-92.64c.35-.18.71-.34 1.06-.51 10.23-4.8 21.22-8.2 32.76-10.01z" fill="#fff5b4"/><path d="m348.31 361.02-.29.62-20.04 99.25c-11.1-2.37-21.65-6.229-31.42-11.359l43.81-88.83 2.13-3.01c1.72 1.419 3.68 2.549 5.81 3.329z" fill="#fff5b4"/><path d="m343.94 323.48.9 1.87c-1.64.99-3.12 2.22-4.41 3.63l-2.1-2.44-71.67-71.53c.36-.37.72-.73 1.09-1.09 9.56-9.39 20.66-17.23 32.88-23.08z" fill="#231f20"/><path d="m342.5 357.69-2.13 3.01-43.81 88.83c-.73-.391-1.46-.78-2.18-1.181-10.25-5.67-19.6-12.76-27.78-21.02-1.01-1.021-2-2.05-2.96-3.1l72.65-69.14 2.38-1.62c1.07 1.581 2.36 3.011 3.83 4.221z" fill="#231f20"/><path d="m338.33 326.54 2.1 2.44c-1.46 1.61-2.66 3.46-3.53 5.48l-90.76-51.99c5.54-10.11 12.46-19.34 20.52-27.46z" fill="#fff5b4"/><path d="m338.67 353.47-2.38 1.62-72.65 69.14c-.1-.09-.18-.19-.27-.28-7.41-8.07-13.75-17.13-18.8-26.96-.06-.11-.11-.22-.16-.33l86.27-46.67-.38-3.46 5.3-.59c.5 2.75 1.56 5.3 3.07 7.53z" fill="#fff5b4"/><path d="m246.14 282.47 90.76 51.99c-1.05 2.42-1.63 5.09-1.63 7.89l-102.76-19.52c.15-.96.3-1.9.47-2.85 2.18-12.49 6.27-24.34 11.94-35.23.4-.76.8-1.52 1.22-2.28z" fill="#231f20"/><path d="m335.6 345.94-5.3.59-98.08 10.89c-.71-5.31-1.08-10.72-1.08-16.22 0-6.25.47-12.38 1.37-18.37l102.76 19.52c0 1.23.11 2.42.33 3.59z" fill="#fff5b4"/><path d="m321.51 143.02 12.94 77.3c-11.54 1.81-22.53 5.21-32.76 10.01-.35.17-.71.33-1.06.51l-34.73-74.27c17.16-8.19 35.64-14.07 55.03-17.23z" fill="#fff5b4"/><path d="m330.3 346.53.38 3.46-86.27 46.67c-.67-1.3-1.3-2.61-1.92-3.94-4.96-10.66-8.42-22.15-10.13-34.22-.05-.36-.1-.72-.14-1.08z" fill="#231f20"/><path d="m327.98 460.89-15.98 79.11-.59 2.8c-19.38-4.1-37.75-10.95-54.68-20.12l5-2.54 34.83-70.609c9.77 5.129 20.32 8.989 31.42 11.359z" fill="#fff5b4"/><path d="m265.9 156.57 34.73 74.27c-12.22 5.85-23.32 13.69-32.88 23.08-.37.36-.73.72-1.09 1.09l-56.03-55.91-1.93-1.94c.76-.77 1.53-1.53 2.3-2.28 15.99-15.58 34.52-28.57 54.9-38.31z" fill="#231f20"/><path d="m296.56 449.53-34.83 70.609-5 2.54c-19.03-10.279-36.25-23.489-51.06-39.02-.9-.95-1.8-1.9-2.68-2.87l4.26-2.9 56.39-53.66c.96 1.05 1.95 2.08 2.96 3.1 8.18 8.26 17.53 15.35 27.78 21.02.72.401 1.45.791 2.18 1.181z" fill="#231f20"/><path d="m210.63 199.1 56.03 55.91c-8.06 8.12-14.98 17.35-20.52 27.46l-71.11-40.74c9.17-16.37 20.53-31.36 33.67-44.57z" fill="#fff5b4"/><path d="m263.64 424.23-56.39 53.66-4.26 2.9c-12.32-13.41-22.88-28.46-31.3-44.79l72.72-39.34c.05.11.1.22.16.33 5.05 9.83 11.39 18.89 18.8 26.96.09.09.17.19.27.28z" fill="#fff5b4"/><path d="m175.03 241.73 71.11 40.74c-.42.76-.82 1.52-1.22 2.28-5.67 10.89-9.76 22.74-11.94 35.23-.17.95-.32 1.89-.47 2.85l-75.67-14.38-5.04-.84c.16-.94.32-1.87.49-2.8 3.71-20.29 10.4-39.54 19.6-57.28 1.01-1.95 2.06-3.89 3.14-5.8z" fill="#231f20"/><path d="m244.41 396.66-72.72 39.34c-.67-1.28-1.31-2.57-1.95-3.87-9.4-19.21-15.89-40.09-18.9-62.09-.16-1.15-.31-2.3-.44-3.45l4.15-.54 77.67-8.63c.04.36.09.72.14 1.08 1.71 12.07 5.17 23.56 10.13 34.22.62 1.33 1.25 2.64 1.92 3.94z" fill="#231f20"/><path d="m156.84 308.45 75.67 14.38c-.9 5.99-1.37 12.12-1.37 18.37 0 5.5.37 10.91 1.08 16.22l-77.67 8.63-4.15.54c-.97-8.07-1.46-16.29-1.46-24.63 0-11.7.98-23.18 2.86-34.35z" fill="#fff5b4"/><g fill="none"><path d="m625.34 341.96c0 149.72-121.37 271.09-271.08 271.09s-271.08-121.37-271.08-271.09c0-149.71 121.37-271.08 271.08-271.08s271.08 121.37 271.08 271.08z" stroke="#231f20" stroke-width="21"/><path d="m265.9 156.57c17.16-8.19 35.64-14.07 55.03-17.23 1.06-.18 2.13-.34 3.2-.5" stroke="#231f20" stroke-width="14"/><path d="m211 194.88c15.99-15.58 34.52-28.57 54.9-38.31" stroke="#231f20" stroke-width="14"/><path d="m171.89 247.53c1.01-1.95 2.06-3.89 3.14-5.8 9.17-16.37 20.53-31.36 33.67-44.57.76-.77 1.53-1.53 2.3-2.28" stroke="#231f20" stroke-width="14"/><path d="m152.29 304.81c3.71-20.29 10.4-39.54 19.6-57.28" stroke="#231f20" stroke-width="14"/><path d="m150.84 370.04c-.16-1.15-.31-2.3-.44-3.45-.97-8.07-1.46-16.29-1.46-24.63 0-11.7.98-23.18 2.86-34.35.16-.94.32-1.87.49-2.8" stroke="#231f20" stroke-width="14"/><path d="m169.74 432.13c-9.4-19.21-15.89-40.09-18.9-62.09" stroke="#231f20" stroke-width="14"/><path d="m205.67 483.66c-.9-.95-1.8-1.9-2.68-2.87-12.32-13.41-22.88-28.46-31.3-44.79-.67-1.28-1.31-2.57-1.95-3.87" stroke="#231f20" stroke-width="14"/><path d="m256.73 522.68c-19.03-10.279-36.25-23.489-51.06-39.02" stroke="#231f20" stroke-width="14"/><path d="m317.55 544.01c-2.06-.37-4.11-.77-6.14-1.21-19.38-4.1-37.75-10.95-54.68-20.12" stroke="#231f20" stroke-width="14"/><path d="m301.69 230.33c10.23-4.8 21.22-8.2 32.76-10.01.61-.09 1.22-.18 1.84-.27" stroke="#34a047" stroke-width="14"/><path d="m267.75 253.92c9.56-9.39 20.66-17.23 32.88-23.08.35-.18.71-.34 1.06-.51" stroke="#ed1e29" stroke-width="14"/><path d="m244.92 284.75c.4-.76.8-1.52 1.22-2.28 5.54-10.11 12.46-19.34 20.52-27.46.36-.37.72-.73 1.09-1.09" stroke="#34a047" stroke-width="14"/><path d="m232.98 319.98c2.18-12.49 6.27-24.34 11.94-35.23" stroke="#ed1e29" stroke-width="14"/><path d="m232.36 358.5c-.05-.36-.1-.72-.14-1.08-.71-5.31-1.08-10.72-1.08-16.22 0-6.25.47-12.38 1.37-18.37.15-.96.3-1.9.47-2.85" stroke="#34a047" stroke-width="14"/><path d="m242.49 392.72c-4.96-10.66-8.42-22.15-10.13-34.22" stroke="#ed1e29" stroke-width="14"/><path d="m244.57 396.99c-.06-.11-.11-.22-.16-.33-.67-1.3-1.3-2.61-1.92-3.94" stroke="#231f20" stroke-width="18.9402"/><path d="m263.37 423.95c-7.41-8.07-13.75-17.13-18.8-26.96" stroke="#34a047" stroke-width="14"/><path d="m266.6 427.33c-1.01-1.021-2-2.05-2.96-3.1-.1-.09-.18-.19-.27-.28" stroke="#231f20" stroke-width="18.9402"/><path d="m294.38 448.35c-10.25-5.67-19.6-12.76-27.78-21.02" stroke="#ed1e29" stroke-width="14"/><path d="m330.43 461.38c-.82-.16-1.64-.32-2.45-.49-11.1-2.37-21.65-6.229-31.42-11.359-.73-.391-1.46-.78-2.18-1.181" stroke="#34a047" stroke-width="14"/><path d="m333.93 461.99c-1.17-.19-2.34-.391-3.5-.61" stroke="#231f20" stroke-width="18.9402"/><path d="m265.9 156.57 34.73 74.27 43.31 92.64" stroke="#231f20" stroke-width="7"/><path d="m210.63 199.1 56.03 55.91 71.67 71.53" stroke="#231f20" stroke-width="7"/><path d="m172 240 3.03 1.73 71.11 40.74 90.76 51.99 1.56.9" stroke="#231f20" stroke-width="7"/><path d="m156.84 308.45 75.67 14.38 102.76 19.52" stroke="#231f20" stroke-width="7"/><path d="m154.55 366.05 77.67-8.63 98.08-10.89 5.3-.59.18-.02" stroke="#231f20" stroke-width="7"/><path d="m168 438 3.69-2 72.72-39.34 86.27-46.67" stroke="#231f20" stroke-width="7"/><path d="m207.25 477.89 56.39-53.66 72.65-69.14" stroke="#231f20" stroke-width="7"/><path d="m261.73 520.14 34.83-70.61 43.81-88.83" stroke="#231f20" stroke-width="7"/><path d="m348.02 361.64-20.04 99.25-15.98 79.11" stroke="#231f20" stroke-width="7"/><path d="m321.51 143.02 12.94 77.3 16.37 97.81" stroke="#231f20" stroke-width="7"/><path d="m444.4 156.57c-.87-.41-1.74-.82-2.61-1.22-16.41-7.56-33.99-13.01-52.41-16.01-1.06-.18-2.13-.34-3.2-.5" stroke="#231f20" stroke-width="14"/><path d="m499.31 194.88c-16-15.58-34.52-28.57-54.909-38.31" stroke="#231f20" stroke-width="14"/><path d="m538.41 247.53c-.521-1.01-1.05-2.01-1.59-3-9.431-17.47-21.32-33.41-35.21-47.37-.761-.77-1.53-1.53-2.301-2.28" stroke="#231f20" stroke-width="14"/><path d="m558.01 304.81c-3.7-20.29-10.39-39.54-19.6-57.28" stroke="#231f20" stroke-width="14"/><path d="m559.46 370.04c.16-1.15.31-2.3.44-3.45.97-8.07 1.47-16.29 1.47-24.63 0-12.68-1.16-25.1-3.36-37.15" stroke="#231f20" stroke-width="14"/><path d="m540.57 432.13c9.39-19.21 15.89-40.09 18.89-62.09" stroke="#231f20" stroke-width="14"/><path d="m504.64 483.66c.86-.9 1.721-1.82 2.561-2.74 12.63-13.71 23.399-29.16 31.939-45.93.49-.95.96-1.9 1.431-2.86" stroke="#231f20" stroke-width="14"/><path d="m453.57 522.68c19.029-10.279 36.26-23.489 51.069-39.02" stroke="#231f20" stroke-width="14"/><path d="m392.76 544.01c1.12-.2 2.25-.41 3.36-.64 19.06-3.76 37.16-10.17 53.92-18.83 1.19-.61 2.36-1.23 3.53-1.86" stroke="#231f20" stroke-width="14"/><path d="m392.76 544.01c-11.91 2.15-24.18 3.28-36.71 3.28h-1.79c-12.54 0-24.8-1.13-36.71-3.28" stroke="#231f20" stroke-width="14"/><path d="m386.18 138.84c-9.83-1.45-19.9-2.19-30.13-2.19h-1.79c-10.24 0-20.3.74-30.13 2.19" stroke="#231f20" stroke-width="14"/><path d="m374.02 220.05c-5.62-.79-11.37-1.2-17.21-1.2h-3.32c-5.84 0-11.58.41-17.2 1.2" stroke="#ed1e29" stroke-width="14"/><path d="m408.61 230.33c-10.04-4.71-20.83-8.08-32.13-9.91-.82-.13-1.64-.25-2.46-.37" stroke="#34a047" stroke-width="14"/><path d="m442.55 253.92c-9.7-9.52-20.98-17.45-33.41-23.34-.18-.08-.35-.17-.53-.25" stroke="#ed1e29" stroke-width="14"/><path d="m465.39 284.75c-.08-.16-.17-.32-.26-.48-5.68-10.81-12.939-20.66-21.479-29.25-.36-.37-.73-.74-1.101-1.1" stroke="#34a047" stroke-width="14"/><path d="m477.33 319.98c-.09-.53-.19-1.06-.29-1.59-2.25-11.91-6.22-23.21-11.65-33.64" stroke="#ed1e29" stroke-width="14"/><path d="m477.95 358.5c.05-.36.1-.72.14-1.08.71-5.31 1.07-10.72 1.07-16.22 0-7.24-.62-14.32-1.83-21.22" stroke="#34a047" stroke-width="14"/><path d="m467.81 392.72c4.96-10.66 8.431-22.15 10.141-34.22" stroke="#ed1e29" stroke-width="14"/><path d="m465.73 396.99c.14-.27.279-.55.409-.82.58-1.14 1.141-2.29 1.67-3.45" stroke="#231f20" stroke-width="18.9402"/><path d="m446.94 423.95c7.399-8.07 13.739-17.13 18.79-26.96" stroke="#34a047" stroke-width="14"/><path d="m443.71 427.33c1.021-1.04 2.04-2.1 3.03-3.17.069-.07.13-.14.2-.21" stroke="#231f20" stroke-width="18.9402"/><path d="m415.92 448.35c10.26-5.67 19.61-12.76 27.79-21.02" stroke="#ed1e29" stroke-width="14"/><path d="m379.87 461.38c12-2.3 23.39-6.34 33.87-11.86.73-.38 1.46-.77 2.18-1.17" stroke="#34a047" stroke-width="14"/><path d="m376.37 461.99c.47-.08.94-.15 1.4-.23.7-.12 1.4-.25 2.1-.38" stroke="#231f20" stroke-width="18.9402"/><path d="m376.37 461.99c-6.37 1.029-12.9 1.56-19.56 1.56h-3.32c-6.65 0-13.19-.53-19.56-1.56" stroke="#ed1e29" stroke-width="14"/><path d="m335.27 342.35c0 1.23.11 2.42.33 3.59.5 2.75 1.56 5.3 3.07 7.53 1.07 1.58 2.36 3.01 3.83 4.22 1.72 1.42 3.68 2.55 5.81 3.33 2.14.78 4.44 1.21 6.84 1.21 3.43 0 6.66-.87 9.48-2.4 2.75-1.49 5.11-3.62 6.87-6.18 1.58-2.27 2.69-4.89 3.2-7.71.22-1.17.33-2.36.33-3.59 0-2.34-.4-4.58-1.15-6.67-.07-.2-.14-.4-.23-.6-1.29-3.32-3.46-6.2-6.22-8.36-2.12-1.67-4.6-2.92-7.29-3.61-1.6-.42-3.27-.64-4.99-.64-1.37 0-2.71.14-4.01.4-2.26.47-4.39 1.32-6.3 2.48-1.64.99-3.12 2.22-4.41 3.63-1.46 1.61-2.66 3.46-3.53 5.48-1.05 2.42-1.63 5.09-1.63 7.89z" stroke="#231f20" stroke-width="21"/><path d="m443.6 151.17-1.81 4.18-32.65 75.23-40.93 94.32-.78 1.82-1.43 3.28" stroke="#231f20" stroke-width="7"/><path d="m499.68 199.1-56.03 55.92-71.67 71.52" stroke="#231f20" stroke-width="7"/><path d="m533.58 246.25-68.45 38.02-91.48 50.81-1.65.92" stroke="#231f20" stroke-width="7"/><path d="m558.01 304.81-80.97 13.58-103.16 17.29-1.88.32" stroke="#231f20" stroke-width="7"/><path d="m555.75 366.05-77.66-8.63-98.09-10.89-5.3-.59-.18-.02" stroke="#231f20" stroke-width="7"/><path d="m534.34 432.58-68.2-36.41-86.52-46.18" stroke="#231f20" stroke-width="7"/><path d="m508.12 481.78-.92-.86-60.46-56.76-74.74-70.16" stroke="#231f20" stroke-width="7"/><path d="m448.57 520.14-34.83-70.62-43.8-88.82" stroke="#231f20" stroke-width="7"/><path d="m355.15 362.23 22.62 99.53 17.27 75.96" stroke="#231f20" stroke-width="7"/><path d="m388.8 143.02-12.32 77.4-16.34 102.69-.14.89" stroke="#231f20" stroke-width="7"/><path d="m687.77 597.41 68.59-69.74.01-.01h.01l3.65-3.72" stroke="#231f20" stroke-linecap="round" stroke-linejoin="round" stroke-width="14"/><path d="m551.33 736.13 129.38-131.54.03-.03 7.03-7.15" stroke="#231f20" stroke-linecap="round" stroke-linejoin="round" stroke-width="14"/><path d="m508.54 779.63 42.79-43.5" stroke="#231f20" stroke-linecap="round" stroke-linejoin="round" stroke-width="7"/><path d="m756.34 527.62s-20.51-16.83-34.189-8.94c-13.681 7.891-37.36 36.301-37.36 36.301l-5.791 47.869" stroke="#231f20" stroke-width="14"/><path d="m756.73 528.04s17.05 20.35 9.31 34.1c-7.74 13.771-35.92 37.74-35.92 37.74l-47.8 6.3" stroke="#231f20" stroke-width="14"/><path d="m672.19 469.76 68.58-69.74.02-.02 3.65-3.71" stroke="#231f20" stroke-linecap="round" stroke-linejoin="round" stroke-width="14"/><path d="m535.75 608.48 129.38-131.54.02-.03 7.04-7.15" stroke="#231f20" stroke-linecap="round" stroke-linejoin="round" stroke-width="14"/><path d="m492.96 651.98 42.79-43.5" stroke="#231f20" stroke-linecap="round" stroke-linejoin="round" stroke-width="7"/><path d="m740.76 399.97s-20.51-16.83-34.2-8.94c-13.68 7.89-37.35 36.3-37.35 36.3l-5.79 47.88" stroke="#231f20" stroke-width="14"/><path d="m741.14 400.39s17.051 20.35 9.311 34.11-35.91 37.73-35.91 37.73l-47.8 6.3" stroke="#231f20" stroke-width="14"/><path d="m0 0h850.394v850.394h-850.394z"/></g></svg>