<svg enable-background="new 0 0 850.394 850.394" height="850.394" viewBox="0 0 850.394 850.394" width="850.394" xmlns="http://www.w3.org/2000/svg"><path d="m108.26 642.62h633.21v128.42h-633.21z" fill="#ff001c"/><path d="m422.74 171.24c55.319 0 100.16 44.85 100.16 100.17 0 55.31-44.841 100.15-100.16 100.15-55.32 0-100.16-44.84-100.16-100.15 0-55.32 44.84-100.17 100.16-100.17z" fill="#fff400"/><g fill="none"><path d="m751.73 565.69h-654.46" stroke="#231f20" stroke-width="21"/><path d="m522.9 271.41c0 55.31-44.841 100.15-100.16 100.15-55.32 0-100.16-44.84-100.16-100.15 0-55.32 44.84-100.17 100.16-100.17s100.16 44.85 100.16 100.17z" stroke="#231f20" stroke-width="21"/><path d="m421.96 153.01v-76.2" stroke="#231f20" stroke-width="21"/><path d="m361.18 167.84-42.1-63.52" stroke="#231f20" stroke-width="21"/><path d="m317.54 214.66-69.03-32.26" stroke="#231f20" stroke-width="21"/><path d="m484.9 166.63 42.09-63.52" stroke="#231f20" stroke-width="21"/><path d="m528.52 213.45 69.04-32.26" stroke="#231f20" stroke-width="21"/><path d="m482.39 375.81 42.11 63.52" stroke="#231f20" stroke-width="21"/><path d="m526.03 328.98 69.04 32.26" stroke="#231f20" stroke-width="21"/><path d="m358.68 377.03-42.1 63.51" stroke="#231f20" stroke-width="21"/><path d="m315.04 330.21-69.04 32.26" stroke="#231f20" stroke-width="21"/><path d="m303.35 272.59h-76.19" stroke="#231f20" stroke-width="21"/><path d="m617.14 272.59h-76.2" stroke="#231f20" stroke-width="21"/><path d="m421.96 464.44v-76.2" stroke="#231f20" stroke-width="21"/><path d="m108.26 642.62h633.21v128.42h-633.21z" stroke="#231f20" stroke-width="21"/><path d="m0 0h850.394v850.394h-850.394z"/></g></svg>