<svg enable-background="new 0 0 850.394 850.394" height="850.394" viewBox="0 0 850.394 850.394" width="850.394" xmlns="http://www.w3.org/2000/svg"><path d="m422.62 248.98c59.14 0 107.07 47.94 107.07 107.08 0 59.13-47.931 107.06-107.07 107.06-59.14 0-107.07-47.93-107.07-107.06 0-59.14 47.93-107.08 107.07-107.08z" fill="#fbed24"/><g fill="none"><path d="m774.31 670.64h-699.62" stroke="#231f20" stroke-width="21"/><path d="m529.69 356.06c0 59.13-47.931 107.06-107.07 107.06-59.14 0-107.07-47.93-107.07-107.06 0-59.14 47.93-107.08 107.07-107.08s107.07 47.94 107.07 107.08z" stroke="#231f20" stroke-width="21"/><path d="m421.78 229.49v-81.46" stroke="#231f20" stroke-width="21"/><path d="m356.81 245.34-45-67.9" stroke="#231f20" stroke-width="21"/><path d="m310.16 295.39-73.79-34.48" stroke="#231f20" stroke-width="21"/><path d="m489.07 244.05 44.99-67.91" stroke="#231f20" stroke-width="21"/><path d="m535.7 294.09 73.81-34.48" stroke="#231f20" stroke-width="21"/><path d="m486.39 467.66 45.01 67.9" stroke="#231f20" stroke-width="21"/><path d="m533.04 417.6 73.8 34.49" stroke="#231f20" stroke-width="21"/><path d="m354.14 468.96-45 67.9" stroke="#231f20" stroke-width="21"/><path d="m307.5 418.91-73.81 34.48" stroke="#231f20" stroke-width="21"/><path d="m295 357.32h-81.45" stroke="#231f20" stroke-width="21"/><path d="m630.43 357.32h-81.45" stroke="#231f20" stroke-width="21"/><path d="m421.78 562.4v-81.46" stroke="#231f20" stroke-width="21"/><path d="m0 0h850.394v850.394h-850.394z"/></g></svg>