<svg enable-background="new 0 0 850.394 850.394" height="850.394" viewBox="0 0 850.394 850.394" width="850.394" xmlns="http://www.w3.org/2000/svg"><path d="m691.18 161.08 1.351-40.65c.25-.01.489-.02.729-.04 9.75-.55 19.54-1.5 29.15-3.06 9.63-1.56 19.08-3.73 28.149-6.71-2.859 12.67-7.8 30.49-15.199 44.3-7.181 1.5-14.42 2.75-21.681 3.75-7.489 1.05-14.999 1.84-22.499 2.41z" fill="#be0000"/><path d="m618.91 120.36c11.59.47 23.41.42 36.07.61.609.01 1.22.02 1.829.02 11.58.16 23.62.11 35.721-.56l-1.351 40.65c-1.739.14-3.479.26-5.21.36-9.8.63-19.55.87-29.16.81-9.399-.06-18.67-.42-27.699-1.02-10.04-.67-19.801-1.64-29.15-2.83-6.36-.81-12.53-1.72-18.47-2.71-6.19-10.2-12.25-24.27-16.94-36.34l15.851-3.45c3.64.78 7.239 1.43 10.81 1.97 9.299 1.41 18.429 2.11 27.699 2.49z" fill="#be0000"/><path d="m750.56 110.62c2.131-9.42 3.12-16.01 3.12-16.01s-13.26-1.77-31.27-3.71c-8.9-.96-18.95-1.96-29.15-2.8-12.58-1.04-25.37-1.84-36.45-2.05-1.81-.03-3.56-.05-5.27-.05-9.96 0-21.31.59-32.63 1.47-9.54.74-19.061 1.68-27.7 2.63-20.11 2.22-35.5 4.51-35.5 4.51s2.15 6.71 5.6 16.13c.98 2.68 2.07 5.58 3.24 8.61l-8 1.74c-4.95-16.31-7.51-28.89-7.51-28.89s30.65-24.34 107.66-24.34c61.859 0 107.88 24.46 107.88 24.46s-11.12 67.48-35.79 92.16c-7.521 7.52-21.96 12.54-38.9 15.25l.45-13.66c9.43-.76 14.63-2.89 23.47-8.7 2.29-1.5 4.82-3.25 7.74-5.29 5.32-3.72 9.91-9.89 13.811-17.16 7.399-13.81 12.339-31.63 15.199-44.3z" fill="#fad7d9"/><path d="m713.68 158.67c.03 6.13.721 14.32.13 18.7-8.84 5.81-14.04 7.94-23.47 8.7l.84-24.99c7.5-.57 15.01-1.36 22.5-2.41z" fill="#fff"/><path d="m629.11 161.3v-.07c9.029.6 18.3.96 27.699 1.02v.01 22.6 1.56c-.04 0-.069 0-.109 0-11.26 0-20.22-.36-27.59-1.18 0-11.17 0-12.77 0-23.94z" fill="#fff"/><path d="m629.11 161.23v.07 23.94c-13.63-1.51-21.83-4.58-29.15-9.83 0-7.04 0-9.53 0-16.99v-.02c9.35 1.19 19.11 2.16 29.15 2.83z" fill="#fff"/><path d="m691.18 161.08-.84 24.99c-1.359.11-2.81.19-4.37.25 0-5.76 0-18.94 0-24.88 1.73-.1 3.47-.22 5.21-.36z" fill="#fff"/><path d="m581.49 155.69c5.939.99 12.109 1.9 18.47 2.71v.02 16.99c-3.69-2.63-7.15-5.82-10.97-9.64-2.47-2.47-5-5.96-7.5-10.08z" fill="#fff"/><path d="m735.36 154.92c-3.9 7.27-8.49 13.44-13.811 17.16-2.92 2.04-5.45 3.79-7.74 5.29.591-4.38-.1-12.57-.13-18.7 7.261-1 14.501-2.25 21.681-3.75z" fill="#fff"/><path d="m656.81 162.25c9.61.06 19.36-.18 29.16-.81v24.88c-6.88.27-15.92.1-29.16.1v-1.56c0-7.77 0-14.83 0-22.6z" fill="#fff"/><path d="m785.75 366.06h.01c47.41 47.81-3.33 112.31-43.52 134.33-13.48 7.391-19.101 44.95-22.28 57.301-3.77 14.64-8.67 28.859-13.96 42.92-29.58 0-64.12-34.73-64.32-73.261 18.23-51.529 24.86-84.489 16.44-105.379-15.23-37.75-10.24-51.84-5.62-63.8 3.67-9.52 9.35-19.42 29.25-24.14-10.1 35.56 3.36 63.1 15.79 62.24 31.88-12.77 56.21-71.47-12.03-64.98 17.05-26.56 36.32-29.83 63.88-5.05 5.681 5.12 13.45 9.44 17.061 18.37 11.299 8.329 17.049 14.599 19.299 21.449z" fill="#ffeec8"/><path d="m753.68 94.61s-.989 6.59-3.12 16.01c-9.069 2.98-18.52 5.15-28.149 6.71v-.01c0-7.29 0-19.13 0-26.42 18.009 1.94 31.269 3.71 31.269 3.71z" fill="#fff"/><path d="m722.41 117.32v.01c-9.61 1.56-19.4 2.51-29.15 3.06 0-8.76 0-14.82 0-21.92 0-3.14 0-6.49 0-10.37 10.2.84 20.25 1.84 29.15 2.8z" fill="#fff"/><path d="m693.26 88.1v10.37l-.729 21.96c-12.101.67-24.141.72-35.721.56v-.04c0-7.57 0-14.54 0-21.66 0-4.31 0-8.67 0-13.24 11.08.21 23.87 1.01 36.45 2.05z" fill="#fff"/><path d="m685.97 186.32c1.561-.06 3.011-.14 4.37-.25l-.45 13.66c-35.75 5.69-82.609 1.04-98.89-12.48-15.9-13.2-27.52-43.33-34.45-66.16l8-1.74c4.69 12.07 10.75 26.14 16.94 36.34 2.5 4.12 5.029 7.61 7.5 10.08 3.819 3.82 7.279 7.01 10.97 9.64 7.32 5.25 15.521 8.32 29.15 9.83 7.37.82 16.33 1.18 27.59 1.18h.109c13.241 0 22.281.17 29.161-.1z" fill="#fad7d9"/><path d="m656.81 120.95v.04c-.609 0-1.22-.01-1.829-.02-12.66-.19-24.48-.14-36.07-.61 0-4.43 0-8.66 0-12.83l37.899-8.24z" fill="#fff"/><path d="m656.81 86.05v13.24l-37.899 8.24c0-6.58 0-13.04 0-20.05v-.01c11.32-.88 22.67-1.47 32.63-1.47 1.709 0 3.459.02 5.269.05z" fill="#fff"/><path d="m618.91 107.53v12.83c-9.271-.38-18.4-1.08-27.7-2.49 0-1.4 0-2.85 0-4.32z" fill="#fff"/><path d="m618.91 87.48v20.05l-27.7 6.02c0-7.68 0-16.14 0-23.44v-.01c8.64-.95 18.16-1.89 27.7-2.63z" fill="#fff"/><path d="m591.21 90.11v23.44l-10.81 2.35c-6.21-1.31-12.54-3-19.091-5.16-3.449-9.42-5.6-16.13-5.6-16.13s15.39-2.29 35.5-4.51v.01z" fill="#fff"/><path d="m580.4 115.9-15.851 3.45c-1.17-3.03-2.26-5.93-3.24-8.61 6.551 2.16 12.881 3.85 19.091 5.16z" fill="#fff"/><path d="m101.79 744.64s-22-357.729-22-390.939 53.87-33.91 53.87-33.91h131.94 31.94 131.95s53.87.7 53.87 33.91-22.01 390.939-22.01 390.939 2.19 55.351-81.939 55.351h-97.04-1.59-97.05c-84.131-.001-81.941-55.351-81.941-55.351zm316.14.47v-256.48h-273.14v256.48z" fill="#fff"/><path d="m144.79 488.63h273.14v256.48h-273.14z" fill="#a3d9ff"/><path d="m360.87 88.38c0 .01.01.01.01.01 3.31 1.93 6.32 4.17 9.35 5.92 30.99 17.91 33.73 36.59 14.42 60.18-14.39-64.61-61.04-24.76-63.26 8.34 2.92 11.66 32.23 15.81 61.88-4.07 1.59 19.68-5.8 27.85-13.45 34.07-9.61 7.81-21.05 16.59-60.27 13.87-21.74-1.5-50.09 14.48-92.08 46.7-29.52 4.92-76.37-4.21-86.48-37.31l.19-.06c11.34-9.05 22.93-17.79 35.26-25.62 10.4-6.61 43.21-22.98 45.98-37.57 8.23-43.48 57.32-107.13 115.38-77.85 10.49.61 21.31 4.98 33.07 13.39z" fill="#ffeec8"/><g fill="none"><path d="m265.6 319.79h-131.94s-53.87.7-53.87 33.91 22 390.939 22 390.939-2.19 55.351 81.94 55.351h97.05" stroke="#000" stroke-width="22.0013"/><path d="m265.6 319.79h31.94 131.95s53.87.7 53.87 33.91-22.01 390.94-22.01 390.94 2.19 55.351-81.939 55.351h-97.04-1.59" stroke="#000" stroke-width="22.0013"/><path d="m80.58 376.59h123.64s16.89 41.9 23.52 52.53c8.96 14.39 28.1 20.74 49.82 21.39 1.26.04 2.52.061 3.8.061" stroke="#000" stroke-width="22.0013"/><path d="m478.34 376.94h-123.64s-16.89 41.89-23.52 52.53c-9.49 15.221-30.35 21.04-53.62 21.04" stroke="#000" stroke-width="22.0013"/><path d="m360.87 88.38c-10.53-6.14-24.15-9.26-51.38 15.73" stroke="#000" stroke-width="12.7723"/><path d="m217.47 253.4c41.99-32.22 70.34-48.2 92.08-46.7 39.22 2.72 50.66-6.06 60.27-13.87 7.65-6.22 15.04-14.39 13.45-34.07-29.65 19.88-58.96 15.73-61.88 4.07 2.22-33.1 48.87-72.95 63.26-8.34 19.31-23.59 16.57-42.27-14.42-60.18-3.03-1.75-6.04-3.99-9.35-5.92" stroke="#000" stroke-width="12.7723"/><path d="m360.88 88.39s-.01 0-.01-.01c-11.76-8.41-22.58-12.78-33.07-13.39-10.69-.63-21.04 2.64-31.7 9.49" stroke="#000" stroke-width="10.6436"/><path d="m327.8 74.99c-58.06-29.28-107.15 34.37-115.38 77.85-2.77 14.59-35.58 30.96-45.98 37.57-12.33 7.83-23.92 16.57-35.26 25.62" stroke="#000" stroke-width="12.7723"/><path d="m561.31 110.74c6.551 2.16 12.881 3.85 19.091 5.16 3.64.78 7.239 1.43 10.81 1.97 9.3 1.41 18.43 2.11 27.7 2.49 11.59.47 23.41.42 36.07.61.609.01 1.22.02 1.829.02 11.58.16 23.62.11 35.721-.56.25-.01.489-.02.729-.04 9.75-.55 19.54-1.5 29.15-3.06 9.63-1.56 19.08-3.73 28.149-6.71h.011" stroke="#000" stroke-width="9.1883"/><path d="m689.89 199.73c16.94-2.71 31.38-7.73 38.9-15.25 24.67-24.68 35.79-92.16 35.79-92.16s-46.02-24.46-107.88-24.46c-77.01 0-107.66 24.34-107.66 24.34s2.56 12.58 7.51 28.89c6.931 22.83 18.55 52.96 34.45 66.16 16.28 13.52 63.14 18.17 98.89 12.48z" stroke="#000" stroke-width="9.1883"/><path d="m581.49 155.69c5.939.99 12.109 1.9 18.47 2.71 9.35 1.19 19.11 2.16 29.15 2.83 9.029.6 18.3.96 27.699 1.02 9.61.06 19.36-.18 29.16-.81 1.73-.1 3.471-.22 5.21-.36 7.5-.57 15.011-1.36 22.5-2.41 7.261-1 14.5-2.25 21.681-3.75" stroke="#000" stroke-width="9.1883"/><path d="m656.81 86.05v13.24 21.66" stroke="#000" stroke-width="9.1883"/><path d="m618.91 87.48v20.05 12.83.59" stroke="#000" stroke-width="9.1883"/><path d="m591.21 90.11v23.44 4.32.16" stroke="#000" stroke-width="9.1883"/><path d="m693.26 88.1v10.37 21.92" stroke="#000" stroke-width="9.1883"/><path d="m722.41 90.9v26.42" stroke="#000" stroke-width="9.1883"/><path d="m656.81 162.26v22.6" stroke="#000" stroke-width="9.1883"/><path d="m629.11 161.3v23.94" stroke="#000" stroke-width="9.1883"/><path d="m599.96 158.42v16.99.93" stroke="#000" stroke-width="9.1883"/><path d="m685.97 161.23v.21 24.88.01" stroke="#000" stroke-width="9.1883"/><path d="m713.67 158.12c0 .18 0 .36.01.55.03 6.13.721 14.32.13 18.7" stroke="#000" stroke-width="9.1883"/><path d="m641.59 527.59c.03-.08.061-.16.09-.24 18.23-51.529 24.86-84.489 16.44-105.379-15.23-37.75-10.24-51.84-5.62-63.8 3.67-9.52 9.35-19.42 29.25-24.14-10.1 35.56 3.36 63.1 15.79 62.24 31.88-12.77 56.21-71.47-12.03-64.98 17.05-26.56 36.32-29.83 63.88-5.05 5.681 5.12 13.45 9.44 17.061 18.37 3.53 8.75 3.069 21.92-7.28 44.59" stroke="#000" stroke-width="13.2257"/><path d="m766.45 344.61c11.3 8.33 17.05 14.6 19.3 21.45 2.62 7.9.58 16.57-2.96 30.05" stroke="#000" stroke-width="11.0214"/><path d="m785.76 366.06c47.41 47.81-3.33 112.31-43.52 134.33-13.48 7.391-19.101 44.95-22.28 57.301-3.77 14.64-8.67 28.859-13.96 42.92" stroke="#000" stroke-width="13.2257"/><path d="m561.31 110.74c-3.449-9.42-5.6-16.13-5.6-16.13s15.39-2.29 35.5-4.51c8.64-.95 18.16-1.89 27.7-2.63 11.32-.88 22.67-1.47 32.63-1.47 1.71 0 3.46.02 5.27.05 11.08.21 23.87 1.01 36.45 2.05 10.2.84 20.25 1.84 29.15 2.8 18.01 1.94 31.27 3.71 31.27 3.71s-.989 6.59-3.12 16.01c-2.859 12.67-7.8 30.49-15.199 44.3-3.9 7.27-8.49 13.44-13.811 17.16-2.92 2.04-5.45 3.79-7.74 5.29-8.84 5.81-14.04 7.94-23.47 8.7-1.359.11-2.81.19-4.37.25-6.88.27-15.92.1-29.16.1-.04 0-.069 0-.109 0-11.26 0-20.22-.36-27.59-1.18-13.63-1.51-21.83-4.58-29.15-9.83-3.69-2.63-7.15-5.82-10.97-9.64-2.471-2.47-5-5.96-7.5-10.08-6.19-10.2-12.25-24.27-16.94-36.34-1.171-3.03-2.261-5.93-3.241-8.61z" stroke="#000" stroke-width="9.1883"/><path d="m383.27 158.76 173.28-37.67 8-1.74 15.85-3.45 10.81-2.35 27.7-6.02 37.9-8.24" stroke="#000" stroke-width="3"/><path d="m693.26 98.47-.73 21.96-1.35 40.65-.84 24.99-.45 13.66-4.38 131.56" stroke="#000" stroke-width="3"/><path d="m144.79 488.63h273.14v256.48h-273.14z" stroke="#000" stroke-width="22.0013"/><path d="m0 0h850.394v850.394h-850.394z"/></g></svg>