<svg enable-background="new 0 0 850.394 850.394" height="850.394" viewBox="0 0 850.394 850.394" width="850.394" xmlns="http://www.w3.org/2000/svg"><g fill="#50264b"><path d="m423.83 543.88c35.939 0 65.08 29.14 65.08 65.08s-29.141 65.08-65.08 65.08c-35.94 0-65.09-29.14-65.09-65.08s29.15-65.08 65.09-65.08z"/><path d="m124 361.41h582v104h-582z"/><path d="m424.92 295.96c-35.95 0-65.09-29.14-65.09-65.09 0-35.94 29.14-65.08 65.09-65.08 35.94 0 65.08 29.14 65.08 65.08 0 35.95-29.14 65.09-65.08 65.09z"/></g><path d="m359.83 230.87c0-35.94 29.14-65.08 65.09-65.08 35.94 0 65.08 29.14 65.08 65.08 0 35.95-29.14 65.09-65.08 65.09-35.95 0-65.09-29.14-65.09-65.09z" fill="none" stroke="#50264b" stroke-width="7"/><path d="m488.91 608.96c0 35.94-29.141 65.08-65.08 65.08-35.94 0-65.09-29.14-65.09-65.08s29.15-65.08 65.09-65.08 65.08 29.14 65.08 65.08z" fill="none" stroke="#50264b" stroke-linecap="round" stroke-linejoin="round" stroke-width="7"/><path d="m0 0h850.394v850.394h-850.394z" fill="none"/></svg>