<svg enable-background="new 0 0 850.394 850.394" height="850.394" viewBox="0 0 850.394 850.394" width="850.394" xmlns="http://www.w3.org/2000/svg"><path d="m391.97 477.8v98.92l-2.49.65-.16-.63-321.89-124.85v-88.37l134.27 47.28z" fill="#ee947d"/><path d="m771.86 386.38v92.2h-2.04l-377.85 98.14v-98.92z" fill="#ee947d"/><path d="m396.83 370.17 175.13-35.94 199.9 47.2v4.95l-379.89 91.42-190.27-67 .22-.64z" fill="#ffeec8"/><path d="m571.96 334.23-175.13 35.94-132.75-38.23-.23-1.38 171-28.7z" fill="#ffeec8"/><path d="m264.08 331.94 132.75 38.23-194.91 39.99-.22.64-134.27-47.28 196.42-32.96z" fill="#ffeec8"/><path d="m434.85 210.19v91.67l-171 28.7-196.42 32.96v-94.46z" fill="#ee947d"/><g fill="none"><path d="m67.43 234.01v35.05 94.46 88.37 91.42" stroke="#231f20" stroke-linecap="round" stroke-linejoin="round" stroke-width="21"/><path d="m434.85 182.76v27.43 91.67" stroke="#231f20" stroke-linecap="round" stroke-linejoin="round" stroke-width="25.7191"/><path d="m67.43 269.06 367.42-58.87" stroke="#231f20" stroke-width="21"/><path d="m67.43 363.52 196.42-32.96 171-28.7 137.11 32.37 199.9 47.2 10.38 2.45-10.38 2.5-379.89 91.42-190.27-67z" stroke="#231f20" stroke-width="21"/><path d="m769.82 478.58-377.85 98.14-2.49.65-4.02 1.04" stroke="#231f20" stroke-width="21"/><path d="m389.32 576.74-321.89-124.85" stroke="#231f20" stroke-width="21"/><path d="m391.97 477.8v98.92 88.48" stroke="#231f20" stroke-width="21"/><path d="m771.86 379.28v2.15 4.95 92.2 88.1" stroke="#231f20" stroke-width="21"/><path d="m201.92 410.16 194.91-39.99 175.13-35.94.74-.15" stroke="#231f20" stroke-width="21"/><path d="m264.08 331.94 132.75 38.23 1.2.34" stroke="#231f20" stroke-width="19.2893"/><path d="m0 0h850.394v850.394h-850.394z"/></g></svg>