<svg enable-background="new 0 0 850.394 850.394" height="850.394" viewBox="0 0 850.394 850.394" width="850.394" xmlns="http://www.w3.org/2000/svg"><circle cx="422.188" cy="396.938" fill="#fff" r="12.417" stroke="#231f20" stroke-width="2"/><path d="m494.82 568.08h63.46v18.3h-63.46z" fill="#7a7878"/><path d="m456.37 608.97h101.91v18.311h-101.91z" fill="#7a7878"/><path d="m586.96 543.68v120.58h-330.72v-120.58h118.98 92.75zm-28.68 83.6v-18.31h-101.91v18.311h101.91zm0-40.9v-18.3h-63.46v18.3z" fill="#c8c8c8"/><path d="m581.03 703.7h28.62l-6.141-15.07h-16.35zm46.35 17.93-6.13-15.07h-16.36l-6.13 15.07zm-8.97-35.36 13.03 50.421c1.619 12.609-6.2 13.829-13.841 13.829h-15.68-6.96-368.1c-7.64 0-15.46-1.21-13.84-13.829l13.02-50.421c1.98-9.63 6.19-13.84 13.83-13.84h352.651v-.02h12.07c7.64 0 11.86 4.22 13.82 13.86zm-370.35 21.15h-16.36l-6.13 15.061h28.63zm28.53-3.61-6.13-15.06h-16.35l-6.13 15.06zm16.74 3.38h-16.35l-6.14 15.06h28.62zm28.54-3.61-6.14-15.061h-16.36l-6.13 15.061zm18.91 3.5h-16.36l-6.13 15.05h28.62zm28.53-3.62-6.14-15.05h-16.35l-6.14 15.05zm20.15 3.85h-16.35l-6.14 15.051h28.63zm-.08-3.61h28.61l-6.13-15.07h-16.35zm50.33 3.72h-16.36l-6.13 15.061h28.629zm28.53-3.61-6.13-15.06h-16.36l-6.13 15.06zm16.74 3.38h-16.36l-6.12 15.06h28.62zm28.53-3.61-6.13-15.061h-16.35l-6.141 15.061zm18.91 3.5h-16.36l-6.13 15.05h28.62zm28.53-3.62-6.12-15.05h-16.35l-6.15 15.05zm1.32 3.85-6.14 15.051h28.62l-6.14-15.051z" fill="#c8c8c8"/><path d="m631.31 750.52v27.67h-417.99v-27.67h13.54 368.1 6.96 15.68z" fill="#c8c8c8"/><path d="m621.25 706.56 6.13 15.07h-28.62l6.13-15.07z" fill="#231f20"/><path d="m603.51 688.63 6.14 15.07h-28.62l6.13-15.07z" fill="#231f20"/><path d="m578.61 707.31 6.14 15.05h-28.62l6.14-15.05z" fill="#231f20"/><path d="m554.83 688.41 6.12 15.05h-28.62l6.15-15.05z" fill="#231f20"/><path d="m532.42 707.08 6.13 15.05h-28.62l6.13-15.05z" fill="#231f20"/><path d="m527.05 478.58c3.72 0 6.71 3.02 6.71 6.729 0 3.69-2.99 6.7-6.71 6.7-3.71 0-6.71-3.01-6.71-6.7 0-3.709 3-6.729 6.71-6.729z" fill="#231f20"/><path d="m316.29 327.67h210.62v141.061h-210.62z" fill="#fff"/><path d="m518.62 485.4c0-3.7-3.01-6.71-6.71-6.71-3.71 0-6.71 3.01-6.71 6.71 0 3.71 3 6.72 6.71 6.72 3.7 0 6.71-3.01 6.71-6.72zm1.72-.09c0 3.69 3 6.7 6.71 6.7 3.72 0 6.71-3.01 6.71-6.7 0-3.71-2.99-6.729-6.71-6.729-3.71-.001-6.71 3.019-6.71 6.729zm30.41-164.4v164.24c0 9.069-7.36 16.42-16.44 16.42h-226.05c-9.07 0-16.43-7.351-16.43-16.42v-164.24c0-9.07 7.36-16.43 16.43-16.43h226.05c9.08 0 16.44 7.36 16.44 16.43zm-23.84 147.82v-141.06h-210.62v141.06z" fill="#c8c8c8"/><path d="m511.91 478.69c3.7 0 6.71 3.01 6.71 6.71 0 3.71-3.01 6.72-6.71 6.72-3.71 0-6.71-3.01-6.71-6.72 0-3.7 3-6.71 6.71-6.71z" fill="#231f20"/><path d="m507.38 688.52 6.13 15.06h-28.62l6.14-15.06z" fill="#231f20"/><path d="m484.98 707.19 6.14 15.06h-28.62l6.12-15.06z" fill="#231f20"/><path d="m462.11 688.75 6.13 15.06h-28.62l6.13-15.06z" fill="#231f20"/><path d="m460.71 171.86-20.07 34.74-20.06 34.75-20.06-34.75-20.06-34.74h40.12z" fill="#231f20"/><path d="m439.71 707.42 6.14 15.06h-28.63l6.13-15.06z" fill="#231f20"/><path d="m411.86 688.63 6.13 15.07h-28.61l6.13-15.07z" fill="#231f20"/><path d="m389.46 707.31 6.14 15.05h-28.63l6.14-15.05z" fill="#231f20"/><path d="m363.17 688.41 6.14 15.05h-28.63l6.14-15.05z" fill="#231f20"/><path d="m340.78 707.08 6.13 15.05h-28.62l6.13-15.05z" fill="#231f20"/><path d="m315.73 688.52 6.14 15.06h-28.63l6.13-15.06z" fill="#231f20"/><path d="m293.33 707.19 6.13 15.06h-28.62l6.14-15.06z" fill="#231f20"/><path d="m270.46 688.75 6.13 15.06h-28.61l6.13-15.06z" fill="#231f20"/><path d="m248.06 707.42 6.14 15.06h-28.63l6.13-15.06z" fill="#231f20"/><g fill="none"><path d="m550.75 485.15c0 9.069-7.36 16.42-16.44 16.42h-226.05c-9.07 0-16.43-7.351-16.43-16.42v-164.24c0-9.07 7.36-16.43 16.43-16.43h226.05c9.08 0 16.44 7.36 16.44 16.43z" stroke="#231f20" stroke-width="14"/><path d="m316.29 327.67h210.62v141.061h-210.62z" stroke="#231f20" stroke-width="14"/><path d="m375.22 543.68v-41.63h92.75v41.63" stroke="#231f20" stroke-width="14"/><path d="m467.97 543.68h118.99v120.58h-330.72v-120.58h118.98z" stroke="#231f20" stroke-width="14"/><path d="m456.37 608.97h101.91v18.311h-101.91z" stroke="#231f20" stroke-width="9.5349"/><path d="m494.82 568.08h63.46v18.3h-63.46z" stroke="#231f20" stroke-width="9.5349"/><path d="m226.86 750.52c-7.64 0-15.46-1.21-13.84-13.829l13.02-50.421c1.98-9.63 6.19-13.84 13.83-13.84h352.65 7.771" stroke="#231f20" stroke-width="14"/><path d="m617.6 750.52c7.641 0 15.46-1.22 13.841-13.829l-13.03-50.421c-1.96-9.64-6.18-13.859-13.82-13.859h-12.07" stroke="#231f20" stroke-width="14"/><path d="m333.76 733.01h174.51" stroke="#231f20" stroke-width="9.5349"/><path d="m617.6 750.52h13.71v27.67h-417.99v-27.67h13.54 368.1 6.96z" stroke="#231f20" stroke-width="14"/><path d="m420.58 241.35-20.06-34.75-20.06-34.74h40.12 40.13l-20.07 34.74z" stroke="#231f20" stroke-width="19.0697"/><path d="m0 0h850.394v850.394h-850.394z"/><path d="m394.834 130 58-.125" stroke="#231f20" stroke-width="28"/><path d="m394.668 86.125 58-.126" stroke="#231f20" stroke-width="28"/><path d="m394 47.875 58-.125" stroke="#231f20" stroke-width="28"/></g></svg>