<svg enable-background="new 0 0 850.394 850.394" height="850.394" viewBox="0 0 850.394 850.394" width="850.394" xmlns="http://www.w3.org/2000/svg"><path d="m400.22 433.13 37.03.14.44-.039c.72 9.09.43 16.319.43 16.319l-.89 151.811h10.51v1.81 176.21h-67.77-103.84v-205.271c15.24.26 40.68-.69 45.52-5.53 14.08-14.08 15.64-37.57 15.64-37.57v-62.98h-61.16v-60.13l3.49-17.15c0 21.25 57.86 39.45 120.6 42.38z" fill="#be0000"/><path d="m400.22 433.13c-62.74-2.93-120.6-21.13-120.6-42.38l7.04-34.61.36.07c0 23.22 59.94 42.07 130.58 42.07 2.18 0 4.34-.02 6.49-.05 9.36 4.5 12.55 21.73 13.601 35l-.44.039z" fill="#a800d4"/><path d="m466.17 430.47c.85 5.84 1.37 12.601 1.37 20.4v150.49h-19.8-10.51l.89-151.811s.29-7.229-.43-16.319c-1.051-13.271-4.24-30.5-13.601-35 6.25-.11 12.38-.36 18.36-.75 3.03-.19 6.02-.42 8.96-.69.82-.07 1.63-.15 2.439-.23l.16 1.72c.002 0 8.732 8.38 12.162 32.19z" fill="#a800d4"/><path d="m526.5 123.16c6.18 30.2-15.15 71.85-40.48 111.02-19.619 30.34-31.77 44.93-46.789 65.23-5.5-14.45-12.75-30.64-22.221-48.7 6.08-11.97 13.061-24.82 21.04-38.58 8.66-14.9 51.9-92.35 40.24-123.86-.5-1.33-1.09-2.58-1.79-3.74-1.89-3.15-5.6-5.73-10.3-7.84l2.49-.55c20.55-9.22 50.42 21.3 57.06 44.01.3 1.02.55 2.02.75 3.01z" fill="#a800d4"/><path d="m370.37 74.75c17.45-6.59 43.48-7.38 43.48-7.38s33.88 1.05 52.35 9.32c4.7 2.11 8.41 4.69 10.3 7.84.7 1.16 1.29 2.41 1.79 3.74 11.66 31.51-31.58 108.96-40.24 123.86-7.979 13.76-14.96 26.61-21.04 38.58-6.32-12.07-13.64-24.98-22.08-38.77-9.37-15.32-55.61-99.01-38.45-127.61 2.46-4.09 7.62-7.21 13.89-9.58z" fill="#a800d4"/><path d="m439.23 299.41c20.76 54.58 16.52 84.46 12.18 97.38-2.94.27-5.93.5-8.96.69v-.02c-14.15-51.62-51.56-83.96-102.96-163.47-25.32-39.18-39.18-80.82-33-111.02.27-1.31.64-2.67 1.12-4.05 7.82-22.85 42.41-53.69 62.76-44.17-6.27 2.37-11.43 5.49-13.89 9.58-17.16 28.6 29.08 112.29 38.45 127.61 8.44 13.79 15.76 26.7 22.08 38.77 9.47 18.06 16.72 34.25 22.22 48.7z" fill="#a800d4"/><path d="m424.09 398.23c-2.15.03-4.31.05-6.49.05-70.64 0-130.58-18.85-130.58-42.07l-.36-.07-7.04 34.61-3.49 17.15-11.88 58.38-69.53-9.681s9.2-34.609 15.84-76.57c9.69-61.16 29.49-173.81 29.49-173.81s11.88-63.04 28.16-72.28c9.59-5.45 20.14-8.7 37.38-15.73l2.02.71c-.48 1.38-.85 2.74-1.12 4.05-6.18 30.2 7.68 71.84 33 111.02 51.4 79.51 88.81 111.85 102.96 163.47v.02c-5.98.391-12.11.641-18.36.751z" fill="#be0000"/><path d="m553.48 391.48v.01c-.021 17.62-40.53 32.72-87.311 38.979-3.43-23.81-12.16-32.19-12.16-32.19l-.16-1.72c53-5.14 91.67-21.27 91.67-40.35l.75-.15z" fill="#a800d4"/><path d="m556.86 468.23v105.8c-17.101.76-39.7.569-45.521-5.25-14.08-14.08-15.649-37.57-15.649-37.57v-62.98z" fill="#a800d4"/><path d="m447.74 779.38v-176.21-1.81h19.8s0-110.88 0-150.49c0-7.8-.521-14.561-1.37-20.4 46.78-6.26 87.29-21.36 87.311-38.979l3.38 16.61v60.13h-61.17v62.979s1.569 23.49 15.649 37.57c5.82 5.819 28.42 6.01 45.521 5.25v205.54h-176.891v-.19z" fill="#be0000"/><path d="m337.29 468.03v62.979s-1.56 23.49-15.64 37.57c-4.84 4.84-30.28 5.79-45.52 5.53v-106.079z" fill="#a800d4"/><path d="m546.27 356.06-.75.15c0 19.08-38.67 35.21-91.67 40.35-.81.08-1.619.16-2.439.23 4.34-12.92 8.58-42.8-12.18-97.38 15.02-20.3 27.17-34.89 46.789-65.23 25.33-39.17 46.66-80.82 40.48-111.02-.2-.99-.45-1.99-.75-3.01l1.65-.5c17.239 7.03 27.779 10.28 37.38 15.73 16.29 9.24 28.16 71.03 28.16 71.03s19.8 112.65 29.479 173.82c6.64 41.95 15.84 76.56 15.84 76.56l-69.52 9.69-11.88-58.38-3.38-16.61v-.01z" fill="#be0000"/><g fill="none"><path d="m305.59 118.21c-17.24 7.03-27.79 10.28-37.38 15.73-16.28 9.24-28.16 72.28-28.16 72.28s-19.8 112.65-29.49 173.81c-6.64 41.96-15.84 76.57-15.84 76.57l69.53 9.681 11.88-58.38 3.49-17.15 7.04-34.61 13.23-65" stroke="#000" stroke-width="15.8409"/><path d="m453.02 779.38h-5.28-67.77-103.84v-205.27-106.08-60.13" stroke="#000" stroke-width="15.8409"/><path d="m275.36 468.03h.77 61.16v62.979s-1.56 23.49-15.64 37.57c-4.84 4.84-30.28 5.79-45.52 5.53" stroke="#000" stroke-width="15.8409"/><path d="m447.74 603.17v176.21" stroke="#000" stroke-width="15.8409"/><path d="m370.39 74.76c-.01 0-.01-.01-.02-.01-20.35-9.52-54.94 21.32-62.76 44.17-.48 1.38-.85 2.74-1.12 4.05-6.18 30.2 7.68 71.84 33 111.02 51.4 79.51 88.81 111.85 102.96 163.47" stroke="#000" stroke-width="15.8409"/><path d="m553.48 391.48-7.21-35.42-13.17-64.72" stroke="#000" stroke-width="15.8409"/><path d="m527.4 119.65c17.239 7.03 27.779 10.28 37.38 15.73 16.29 9.24 28.16 71.03 28.16 71.03s19.8 112.65 29.479 173.82c6.64 41.95 15.84 76.56 15.84 76.56l-69.52 9.69-11.88-58.38-3.38-16.61" stroke="#000" stroke-width="15.8409"/><path d="m379.97 779.57h176.89v-205.54-105.8-60.13" stroke="#000" stroke-width="15.8409"/><path d="m557.62 468.23h-.76-61.17v62.979s1.569 23.49 15.649 37.57c5.82 5.819 28.42 6.01 45.521 5.25" stroke="#000" stroke-width="15.8409"/><path d="m478.29 88.27c-.5-1.33-1.09-2.58-1.79-3.74-1.89-3.15-5.6-5.73-10.3-7.84-18.47-8.27-52.35-9.32-52.35-9.32s-26.03.79-43.48 7.38c-6.27 2.37-11.43 5.49-13.89 9.58-17.16 28.6 29.08 112.29 38.45 127.61 8.44 13.79 15.76 26.7 22.08 38.77 9.471 18.06 16.721 34.25 22.221 48.7 20.76 54.58 16.52 84.46 12.18 97.38" stroke="#000" stroke-width="15.8409"/><path d="m416.55 251.62c.15-.3.3-.6.46-.91 6.08-11.97 13.061-24.82 21.04-38.58 8.66-14.9 51.9-92.35 40.24-123.86" stroke="#000" stroke-width="15.8409"/><path d="m468.69 76.14c20.55-9.22 50.42 21.3 57.06 44.01.3 1.02.55 2.02.75 3.01 6.18 30.2-15.15 71.85-40.48 111.02-19.619 30.34-31.77 44.93-46.789 65.23-.011 0-.011.01-.011.01" stroke="#000" stroke-width="15.8409"/><path d="m545.52 356.21c0 19.08-38.67 35.21-91.67 40.35-.81.08-1.619.16-2.439.23-2.94.27-5.93.5-8.96.69-5.98.39-12.11.64-18.36.75-2.15.03-4.31.05-6.49.05-70.64 0-130.58-18.85-130.58-42.07" stroke="#000" stroke-width="15.8409"/><path d="m279.62 390.75c0 21.25 57.86 39.45 120.6 42.38l37.03.14" stroke="#000" stroke-width="15.8409"/><path d="m553.48 391.48v.01c-.021 17.62-40.53 32.72-87.311 38.979h-.01" stroke="#000" stroke-width="15.8409"/><path d="m454.01 398.28s8.73 8.38 12.16 32.19c.85 5.84 1.37 12.601 1.37 20.4v150.49h-19.8-10.51l.89-151.811s.29-7.229-.43-16.319c-1.051-13.271-4.24-30.5-13.601-35-.01-.01-.03-.01-.04-.02" stroke="#000" stroke-linecap="round" stroke-linejoin="round" stroke-width="15.8409"/><path d="m0 0h850.394v850.394h-850.394z"/></g></svg>