<svg enable-background="new 0 0 850.394 850.394" height="850.394" viewBox="0 0 850.394 850.394" width="850.394" xmlns="http://www.w3.org/2000/svg"><path d="m745.6 180v208.55l-.25 4.07-534.12-32.74v-187.88h2.77l528 8z" fill="#9c5c25"/><path d="m745.6 78.83v101.17h-3.6l-528-8h-2.77v-87.04z" fill="#9c5c25"/><path d="m211.23 359.88 534.12 32.74 1.79.11v4.89l-82.56 24.54-5.58 1.66-556.86-39-10.59-.74 118.13-24.29z" fill="#9c5c25"/><path d="m747.14 397.62v311.58l-60.77 29.56-.37-.76-20.93 1.05v-113.2-107.09-94.94l-.49-1.66z" fill="#9c5c25"/><path d="m665.07 739.05v4.92l-562.93-77.83v-108.32l259.87 31.4 303.06 36.63z" fill="#9c5c25"/><path d="m665.07 518.76v107.09l-303.06-36.63v-100.77z" fill="#9c5c25"/><path d="m362.01 488.45-259.87-25.99v-77.64l556.86 39 5.58-1.66.49 1.66v94.94z" fill="#9c5c25"/><path d="m620.36 742.3v32.04h-26.19v-38.66z" fill="#9c5c25"/><path d="m362.01 488.45v100.77l-259.87-31.4v-95.36z" fill="#9c5c25"/><path d="m177.11 683.79v32.03h-26.19v-38.65z" fill="#9c5c25"/><g fill="none"><path d="m211.23 364.89v-5.01-187.88-87.04l534.37-6.13v101.17 208.55" stroke="#231f20" stroke-width="21"/><path d="m747.87 397.4-.73.22-82.56 24.54-5.58 1.66-556.86-39-10.59-.74 118.13-24.29 1.55.09 534.12 32.74 1.79.11v4.89 311.58l-60.77 29.56-16.02 7.8" stroke="#231f20" stroke-width="21"/><path d="m102.14 384.82v77.64 95.36 108.32l562.93 77.83v-4.92-113.2-107.09-94.94" stroke="#231f20" stroke-width="21"/><path d="m102.14 462.46 259.87 25.99 303.06 30.31" stroke="#231f20" stroke-width="21"/><path d="m102.14 557.82 259.87 31.4 303.06 36.63" stroke="#231f20" stroke-width="21"/><path d="m362.02 409.47-.01 78.98v100.77l-.01 106.78" stroke="#231f20" stroke-width="21"/><path d="m177.11 715.82h-26.19v-38.65l26.19 6.62z" stroke="#231f20" stroke-width="21"/><path d="m620.36 774.34h-26.19v-38.66l26.19 6.62z" stroke="#231f20" stroke-width="21"/><path d="m210.91 423.96 37.8 4.29" stroke="#231f20" stroke-linecap="round" stroke-linejoin="round" stroke-width="21"/><path d="m210.91 516.29 37.8 4.3" stroke="#231f20" stroke-linecap="round" stroke-linejoin="round" stroke-width="21"/><path d="m210.91 615.12 37.8 4.29" stroke="#231f20" stroke-linecap="round" stroke-linejoin="round" stroke-width="21"/><path d="m481.4 445.92 37.8 4.3" stroke="#231f20" stroke-linecap="round" stroke-linejoin="round" stroke-width="21"/><path d="m481.4 538.26 37.8 4.29" stroke="#231f20" stroke-linecap="round" stroke-linejoin="round" stroke-width="21"/><path d="m481.4 643.71 37.8 4.29" stroke="#231f20" stroke-linecap="round" stroke-linejoin="round" stroke-width="21"/><path d="m214 172 528 8" stroke="#231f20" stroke-width="14"/><path d="m212 262 526 20" stroke="#231f20" stroke-width="14"/><path d="m0 0h850.394v850.394h-850.394z"/></g></svg>