<svg enable-background="new 0 0 850.394 850.394" height="850.394" viewBox="0 0 850.394 850.394" width="850.394" xmlns="http://www.w3.org/2000/svg"><path d="m446.09 437.45h.73v337.69l-42.22.141v-287.951h1.66zm-7.18 332.51v-112.86h-25.77v112.86z" fill="#c8c8c8"/><path d="m446.82 362.49v74.96h-.73l-39.83 49.88h-1.66v-74.67h1.66l39.83-50.17z" fill="#c8c8c8"/><path d="m446.82 287.63v74.86h-.73l-39.83 50.17h-1.66v-73l41.72-52.03z" fill="#c8c8c8"/><path d="m446.82 209.74v77.89h-.5l-41.72 52.03v-77.27z" fill="#c8c8c8"/><path d="m446.82 133.98v75.76l-42.22 52.65v-75.76z" fill="#c8c8c8"/><path d="m446.82 103.03v30.95l-42.22 52.65v-83.18l20.59-20.58z" fill="#c8c8c8"/><path d="m413.14 657.1h25.77v112.86h-25.77z"/><g fill="none"><path d="m446.82 437.45v337.69l-42.22.14v-287.95-74.67-73-77.27-75.76-83.18l20.59-20.58 21.63 20.16v30.95 75.76 77.89 74.86z" stroke="#000" stroke-width="20.1631"/><path d="m413.14 657.1h25.77v112.86h-25.77z" stroke="#000" stroke-width="20.1631"/><path d="m404.6 186.63 42.22-52.65" stroke="#000" stroke-width="20.1631"/><path d="m404.6 262.39 42.22-52.65" stroke="#000" stroke-width="20.1631"/><path d="m404.1 340.28.5-.62 41.72-52.03" stroke="#000" stroke-width="20.1631"/><path d="m406.26 412.66 39.83-50.17" stroke="#000" stroke-width="20.1631"/><path d="m406.26 487.33 39.83-49.88" stroke="#000" stroke-width="20.1631"/><path d="m0 0h850.394v850.394h-850.394z"/></g></svg>