<svg enable-background="new 0 0 850.394 850.394" height="850.394" viewBox="0 0 850.394 850.394" width="850.394" xmlns="http://www.w3.org/2000/svg"><path d="m184.77 543.31c-37.18-81.17-28.78-182.24-28.78-182.24 0 16.39 12.81 31.57 34.62 44.02 34.52 19.71 91.59 32.59 156.15 32.59 58.1 0 110.13-10.43 145.13-26.88 27.681-13 44.7-29.78 45.62-48.15.15 2.34.41 6.98.55 13.44.681 28.46-.72 92.29-22.54 150.4-1.92 5.109-4 10.189-6.25 15.189-11.989 26.65-28.829 51.25-52.42 69.54-.68.521-1.359 1.04-2.05 1.561-26.76 20.02-62 32.029-108.36 30.12l.48.149c-47.45 1.95-83.25-10.68-110.24-31.56-23.23-17.959-39.94-42.039-51.91-68.179z" fill="#abd153"/><path d="m345.45 782.41c-157.71 0-285.57-58.601-285.57-130.88 0-44.99 49.5-84.66 124.89-108.221 11.97 26.141 28.68 50.221 51.91 68.181-8.55 6.85-13.37 14.569-13.37 22.79 0 27.779 55.34 50.31 123.61 50.31 68.28 0 123.63-22.53 123.63-50.31 0-8.3-4.93-16.15-13.689-23.04l-.011-.021c23.591-18.29 40.431-42.89 52.42-69.54l.73.321c77.02 23.44 121.02 63.97 121.02 109.53 0 72.28-127.86 130.88-285.57 130.88z" fill="#abd153"/><path d="m456.86 611.24c8.76 6.89 13.689 14.74 13.689 23.04 0 27.779-55.35 50.31-123.63 50.31-68.27 0-123.61-22.53-123.61-50.31 0-8.221 4.82-15.94 13.37-22.79 26.99 20.88 62.79 33.51 110.24 31.56l-.48-.149c46.36 1.909 81.6-10.101 108.36-30.12.69-.521 1.37-1.04 2.05-1.561z" fill="#fff"/><path d="m537.51 362.65c-.92 18.37-17.939 35.15-45.62 48.15 4.42-4.04 10.45-8.32 10.45-12.74 0-24.08-70.229-43.61-156.89-43.61-86.63 0-156.88 19.53-156.88 43.61 0 2.39.7 4.74 2.04 7.03-21.81-12.45-34.62-27.63-34.62-44.02 0-42.3 85.42-76.6 190.77-76.6 105.37 0 190.79 34.3 190.79 76.6 0 .53-.01 1.05-.04 1.58z" fill="#ffffc2"/><path d="m502.34 398.06c0 4.42-6.03 8.7-10.45 12.74-35 16.45-87.03 26.88-145.13 26.88-64.56 0-121.63-12.88-156.15-32.59-1.34-2.29-2.04-4.64-2.04-7.03 0-24.08 70.25-43.61 156.88-43.61 86.66 0 156.89 19.53 156.89 43.61z" fill="#bd2226"/><g fill="none"><path d="m518.33 527.54c17.09-5.14 47.36-25.521 73.09-73.28 9.6-17.819 19.36-38.97 22.79-54.77 0 0 5.15-21.61-3.83-21.99-23.08-1-72.189-1.41-72.189-1.41" stroke="#231f20" stroke-width="21"/><path d="m155.99 361.07c0-42.3 85.42-76.6 190.77-76.6 105.37 0 190.79 34.3 190.79 76.6 0 .53-.01 1.05-.04 1.58-.92 18.37-17.939 35.15-45.62 48.15-35 16.45-87.03 26.88-145.13 26.88-64.56 0-121.63-12.88-156.15-32.59-21.81-12.45-34.62-27.63-34.62-44.02z" stroke="#231f20" stroke-width="14"/><path d="m510 542c77.02 23.44 121.02 63.97 121.02 109.53 0 72.279-127.859 130.88-285.569 130.88s-285.571-58.6-285.571-130.88c0-44.99 49.5-84.66 124.89-108.221.01-.01.01-.01.02-.01" stroke="#231f20" stroke-width="14"/><path d="m454.8 612.78c-26.76 20.02-62 32.029-108.36 30.12l.48.149c-47.45 1.95-83.25-10.68-110.24-31.56-23.23-17.96-39.94-42.04-51.91-68.181-37.18-81.17-28.78-182.24-28.78-182.24" stroke="#231f20" stroke-width="14"/><path d="m537.38 360.93s.05.59.13 1.72c.15 2.34.41 6.98.55 13.44.681 28.46-.72 92.29-22.54 150.4-1.92 5.109-4 10.189-6.25 15.189-11.989 26.65-28.829 51.25-52.42 69.54-.68.521-1.359 1.04-2.05 1.561" stroke="#231f20" stroke-width="14"/><path d="m456.86 611.24c8.76 6.89 13.689 14.74 13.689 23.04 0 27.779-55.35 50.31-123.63 50.31-68.27 0-123.61-22.53-123.61-50.31 0-8.221 4.82-15.94 13.37-22.79l.01-.01" stroke="#231f20" stroke-width="14"/><path d="m191.76 406.84c-.42-.58-.81-1.16-1.15-1.75-1.34-2.29-2.04-4.64-2.04-7.03 0-24.08 70.25-43.61 156.88-43.61 86.66 0 156.89 19.53 156.89 43.61 0 4.42-6.03 8.7-10.45 12.74" stroke="#231f20" stroke-width="14"/><path d="m731.75 77.93-65.74 106.29-.25.41-.14.22" stroke="#231f20" stroke-width="14"/><path d="m757.93 107.99-50.45 10.72" stroke="#231f20" stroke-width="14"/><path d="m693.17 67.93 12.94 49.94" stroke="#231f20" stroke-width="14"/><path d="m599.9 291.08 65.84-106.45.02-.03" stroke="#231f20" stroke-width="14"/><path d="m573.73 261.02 50.45-10.72" stroke="#231f20" stroke-width="14"/><path d="m638.49 301.07-12.94-49.93" stroke="#231f20" stroke-width="14"/><path d="m599.7 77.01 65.98 106.67" stroke="#231f20" stroke-width="14"/><path d="m573.51 107.07 50.46 10.72" stroke="#231f20" stroke-width="14"/><path d="m638.28 67.01-12.94 49.94" stroke="#231f20" stroke-width="14"/><path d="m731.54 290.16-65.27-105.52-.26-.42-.18-.29-.15-.25" stroke="#231f20" stroke-width="14"/><path d="m757.72 260.1-50.45-10.72" stroke="#231f20" stroke-width="14"/><path d="m692.96 300.15 12.93-49.92" stroke="#231f20" stroke-width="14"/><path d="m791.54 184.64h-125.27-.44" stroke="#231f20" stroke-width="14"/><path d="m779.75 222.72-35.66-37.27" stroke="#231f20" stroke-width="14"/><path d="m779.75 146.57-35.66 37.27" stroke="#231f20" stroke-width="14"/><path d="m540.92 184.63h124.82.02.35" stroke="#231f20" stroke-width="14"/><path d="m552.71 146.56 35.66 37.26" stroke="#231f20" stroke-width="14"/><path d="m552.71 222.71 35.66-37.27" stroke="#231f20" stroke-width="14"/><path d="m0 0h850.394v850.394h-850.394z"/></g></svg>