<svg enable-background="new 0 0 850.394 850.394" height="850.394" viewBox="0 0 850.394 850.394" width="850.394" xmlns="http://www.w3.org/2000/svg"><path d="m368 368.249h113.386v113.386h-113.386z" fill="none"/><path d="m461.45 335.69-39.7 376.77c0 41.66-57.68 75.43-128.84 75.43s-128.85-33.77-128.85-75.43l-39.76-377.38.2-.02c2.3 25.27 76.79 45.57 168.36 45.57 90.83 0 164.88-19.98 168.3-44.97z" fill="#faa41f"/><g fill="none"><path d="m469.94 255.1c0 .97-.101 1.93-.301 2.89-5.39 25.8-82.45 46.26-176.729 46.26-94.28 0-171.35-20.46-176.74-46.26-.2-.96-.3-1.92-.3-2.89 0-27.16 79.27-49.17 177.04-49.17s177.03 22.01 177.03 49.17z" stroke="#231f20" stroke-width="14"/><path d="m461.28 333.85c0 .61-.04 1.21-.12 1.81-3.42 24.99-77.47 44.97-168.3 44.97-91.57 0-166.06-20.3-168.36-45.57-.04-.4-.06-.81-.06-1.21" stroke="#231f20" stroke-width="14"/><path d="m115.87 255.1.3 2.89 8.13 77.09 39.76 377.38c0 41.66 57.69 75.43 128.85 75.43s128.84-33.77 128.84-75.43l39.7-376.77 8.189-77.7.301-2.89" stroke="#231f20" stroke-width="14"/><path d="m691.19 71.53-67.63 109.33-.26.41-.01.03" stroke="#231f20" stroke-width="14"/><path d="m718.12 102.46-51.91 11.02" stroke="#231f20" stroke-width="14"/><path d="m651.49 61.25 13.31 51.36" stroke="#231f20" stroke-width="14"/><path d="m555.54 290.81 67.61-109.29.13-.22.02-.03" stroke="#231f20" stroke-width="14"/><path d="m528.61 259.88 51.91-11.03" stroke="#231f20" stroke-width="14"/><path d="m595.24 301.08-13.31-51.36" stroke="#231f20" stroke-width="14"/><path d="m555.33 70.58 68.03 109.99" stroke="#231f20" stroke-width="14"/><path d="m528.4 101.51 51.9 11.03" stroke="#231f20" stroke-width="14"/><path d="m595.02 60.3-13.31 51.37" stroke="#231f20" stroke-width="14"/><path d="m690.97 289.86-67.14-108.55-.27-.45-.34-.54" stroke="#231f20" stroke-width="14"/><path d="m717.9 258.93-51.9-11.03" stroke="#231f20" stroke-width="14"/><path d="m651.27 300.14 13.31-51.36" stroke="#231f20" stroke-width="14"/><path d="m752.7 181.31h-128.87-.46" stroke="#231f20" stroke-width="14"/><path d="m740.56 220.48-36.68-38.34" stroke="#231f20" stroke-width="14"/><path d="m740.56 142.15-36.68 38.33" stroke="#231f20" stroke-width="14"/><path d="m494.86 181.3h128.42.01.37" stroke="#231f20" stroke-width="14"/><path d="m506.99 142.13 36.69 38.34" stroke="#231f20" stroke-width="14"/><path d="m506.99 220.47 36.69-38.34" stroke="#231f20" stroke-width="14"/><path d="m0 0h850.394v850.394h-850.394z"/></g></svg>