<svg enable-background="new 0 0 850.394 850.394" height="850.394" viewBox="0 0 850.394 850.394" width="850.394" xmlns="http://www.w3.org/2000/svg"><path d="m368 368.249h113.386v113.386h-113.386z" fill="none"/><path d="m471.11 266.9c4.89 6.3 7.67 13.55 7.67 21.27 0 24.25-26.9 50.98-60.771 50.98-33.85 0-61.85-26.73-61.85-50.98 0-7.63 2.71-14.81 7.49-21.05h.01c10.4-13.63 30.6-22.87 53.8-22.87 23.091 0 43.201 9.14 53.651 22.65z" fill="#abd150"/><path d="m564.61 245.23 85.64 105.1-64.57 64.57-37.83-37.83 1.96 265.47-266.16-.09 1.96-265.47-37.83 37.83-64.58-64.57 86.1-105.66 94.35 22.54c-4.78 6.24-7.49 13.42-7.49 21.05 0 24.25 28 50.98 61.85 50.98 33.87 0 60.771-26.73 60.771-50.98 0-7.72-2.78-14.97-7.67-21.27l93.04-22.23z" fill="#abd150"/><g fill="none"><path d="m363.66 267.12c10.4-13.63 30.6-22.87 53.8-22.87 23.09 0 43.2 9.14 53.65 22.65 4.89 6.3 7.67 13.55 7.67 21.27 0 24.25-26.9 50.98-60.771 50.98-33.85 0-61.85-26.73-61.85-50.98 0-7.63 2.71-14.81 7.49-21.05" stroke="#231f20" stroke-width="21"/><path d="m469.8 267.21 1.31-.31 93.04-22.23.46.56 85.64 105.1-64.57 64.57-37.83-37.83 1.96 265.47-266.16-.09 1.96-265.47-37.83 37.83-64.58-64.57 86.1-105.66 94.35 22.54h.01" stroke="#231f20" stroke-width="21"/><path d="m70.1 205.66h198.58 295.93 214.67" stroke="#231f20" stroke-width="21"/><path d="m268.68 180.9v24.76 38.13" stroke="#231f20" stroke-width="21"/><path d="m564.61 180.64v25.02 39.57 4.56" stroke="#231f20" stroke-width="21"/><path d="m0 0h850.394v850.394h-850.394z"/></g></svg>