<svg enable-background="new 0 0 850.394 850.394" height="850.394" viewBox="0 0 850.394 850.394" width="850.394" xmlns="http://www.w3.org/2000/svg"><path d="m382 724c-2.42.6-4.59 1.11-6.52 1.53 2.25-.44 4.43-.95 6.52-1.53zm142.67-63.97c34.51 14.41 39.33 23.97 87.33-6.03 46-108 32.67-369.62-57.7-407.68 22 118 27.61 355.04-29.63 413.71zm55.45-510.98c-.82 4.14 1.71 8.32 5.88-1.05-.73-1.14-1.47-2.26-2.24-3.37 1.971-.46 4.76.37 8.54 3.69 183.7 39.68 175.7 557.68-.3 595.68-71.02 15.33-128.13 1-208-14-23.35-3.59-25.73-.73-8.59-4.46-66.44 12.83-200.68-37.76-219.11-129.22-8.85-43.91-10.99-156.24-22-240-7.26-55.19-10.65-91.56-8.3-118.25-9.79 186.02 421.17 134.97 453.14-89.16z" fill="#f6cc4b"/><path d="m579.14 148.91c-31.97 224.13-462.93 275.18-453.14 89.16 0-.03 0-.05 0-.07 3.62-40.93 20.73-59.14 58.1-87.68 91.26-69.72 320.66-121.18 399.66-5.69-2.1.49-3.24 2.45-3.64 4.42z" fill="#fff"/><path d="m375.48 725.53c1.93-.42 4.1-.931 6.52-1.53-2.09.58-4.27 1.09-6.52 1.53z" fill="#f6cc4b"/><g fill="none"><path d="m126 238c3.62-40.93 20.73-59.14 58.1-87.68 91.26-69.72 320.66-121.18 399.66-5.69.771 1.11 1.51 2.23 2.24 3.37-4.17 9.37-6.7 5.19-5.88 1.05.399-1.97 1.54-3.93 3.64-4.42 1.971-.46 4.76.37 8.54 3.69 183.7 39.68 175.7 557.68-.3 595.68-71.02 15.33-128.13 1-208-14-23.35-3.59-25.73-.73-8.52-4.47-.02 0-.05.01 0 0 1.93-.42 4.1-.931 6.52-1.53-2.09.58-4.27 1.09-6.52 1.53" stroke="#231f20" stroke-width="14"/><path d="m375.41 725.54c-66.44 12.83-200.68-37.76-219.11-129.22-8.85-43.91-10.99-156.24-22-240-7.26-55.19-10.65-91.56-8.3-118.25" stroke="#231f20" stroke-width="14"/><path d="m524.67 660.03c34.51 14.41 39.33 23.97 87.33-6.03 46-108 32.67-369.62-57.7-407.68 22 118 27.61 355.04-29.63 413.71z" stroke="#231f20" stroke-width="14"/><path d="m126 238v.07c-9.79 186.02 421.17 134.97 453.14-89.16.33-2.28.62-4.59.86-6.91" stroke="#231f20" stroke-width="14"/><path d="m382 724c120-22 114-34 146-68" stroke="#231f20" stroke-width="14"/><path d="m0 0h850.394v850.394h-850.394z"/></g></svg>