<svg enable-background="new 0 0 850.394 850.394" height="850.394" viewBox="0 0 850.394 850.394" width="850.394" xmlns="http://www.w3.org/2000/svg"><path d="m455.12 509.23c-26.18-44.66-31.6-91.26-31.66-118.141h11.44c3.489 0 6.699-1.24 9.199-3.3l3.261.28s10.58 13.21 27.22 25.96c5.68 18.951 15.04 40.81 30.38 63.15 6.5 9.471 12.44 17.57 17.78 24.48 20.93 27.12 32.58 35.79 32.58 35.79l-8.9-1.021-3.31-3.17-1.601 2.62-29.509-3.368-6.19 45.38s-22.01-25.46-43.479-57.22c-2.561-3.79-4.961-7.61-7.211-11.44z" fill="#ed177f"/><path d="m367.26 413.12c16.89-12.85 27.67-26.32 27.67-26.32l.79-.44c2.65 2.9 6.47 4.73 10.71 4.73h12.73c.04 26.43-5.13 72.59-30.68 117.101-2.52 4.409-5.25 8.8-8.2 13.159-21.47 31.771-43.48 57.221-43.48 57.221l-6.19-45.38-27.63 3.159-1.89-3.09-3.91 3.75-9.89 1.13s11.8-8.779 32.97-36.29c5.23-6.8 11.04-14.739 17.38-23.979 15.45-22.49 24.84-44.5 30.51-63.55z" fill="#ed177f"/><path d="m423.46 391.09h-4.3-12.73c-4.24 0-8.06-1.83-10.71-4.73-2.33-2.57-3.75-5.99-3.75-9.73v-23.05c0-4.24 1.83-8.05 4.73-10.7 2.57-2.33 5.99-3.75 9.73-3.75h28.47c2.989 0 5.779.91 8.09 2.47 3.84 2.59 6.38 6.99 6.38 11.98v23.05c0 4.49-2.05 8.51-5.271 11.16-2.5 2.06-5.71 3.3-9.199 3.3z" fill="#ed177f"/><path d="m391.97 353.58v23.05c0 3.74 1.42 7.16 3.75 9.73l-.79.44s-10.78 13.47-27.67 26.32c-3.83 2.91-7.97 5.79-12.38 8.47-19.59 11.96-52.68 17.391-52.68 17.391-2.62-4.511-11.68-30.25-16.69-50.271-5.01-20.03-1.91-48.87.23-63.65 2.15-14.78 6.68-25.51 6.68-25.51s25.03 1.67 51.25 8.35c26.22 6.67 50.3 32.41 50.3 32.41l2.73 2.57c-2.9 2.65-4.73 6.46-4.73 10.7z" fill="#ed177f"/><path d="m474.58 414.03c-16.64-12.75-27.22-25.96-27.22-25.96l-3.261-.28c3.221-2.65 5.271-6.67 5.271-11.16v-23.05c0-4.99-2.54-9.39-6.38-11.98l5.34-.02s24.07-25.74 50.28-32.41c26.22-6.68 51.25-8.35 51.25-8.35s4.529 10.74 6.67 25.51c2.16 14.78 5.26 43.63.239 63.65-4.989 20.01-14.039 45.76-16.689 50.29 0 0-33.07-5.449-52.66-17.399-4.58-2.801-8.89-5.801-12.84-8.841z" fill="#ed177f"/><path d="m423.46 391.09c.06 26.88 5.48 73.48 31.66 118.141-10.33.529-20.88.8-31.59.8-.05 0-.1 0-.15 0-11.28 0-22.37-.3-33.23-.88l-1.67-.96c25.55-44.511 30.72-90.67 30.68-117.101z" fill="#fbee34"/><path d="m638.77 467c-3.31 12.72-33.38 126.05-33.38 126.05l-58.97-56.62 8.9 1.021s-11.65-8.67-32.58-35.79l2.85-.07c46.79-7.911 88.11-21.361 113.18-34.591z" fill="#6ebe44"/><path d="m512 532.51 29.51 3.37-49.46 80.83-68.51-100.89-.01-5.79c10.71 0 21.26-.271 31.59-.8 2.25 3.829 4.649 7.649 7.21 11.439 21.47 31.76 43.479 57.22 43.479 57.22z" fill="#6ebe44"/><path d="m390.15 509.15c10.86.58 21.95.88 33.23.88h.15l.01 5.79h-2.88l-68.5 100.89-49.18-80.36 27.63-3.159 6.19 45.38s22.01-25.45 43.48-57.221c2.95-4.359 5.68-8.75 8.2-13.159z" fill="#6ebe44"/><path d="m319.56 501.31.7.54c-21.17 27.511-32.97 36.29-32.97 36.29l9.89-1.13-58.37 56.04s-32.39-122.069-33.63-127.05l.83-1.32c22.28 13.85 62.8 27.92 113.55 36.63z" fill="#6ebe44"/><path d="m571.2 190.59-11.04 69.88-53.56-43.59-37.369 67.26-41.101-62.28-.05-3.68c63.39-.74 117.68-14.12 143.12-27.59z" fill="#6ebe44"/><path d="m271.57 189.33c25.05 14.27 83.21 28.89 150.96 28.89l-47.95 69.66-37.37-67.26-53.56 43.59z" fill="#6ebe44"/><path d="m605.39 593.05s30.07-113.33 33.38-126.05c8.711-4.6 15.461-9.16 19.801-13.46l1.08-.09c3.35 40.95 2.6 82.01-4.221 121.09-13.39 7.97-30.18 15.68-49.689 22.64z" fill="#2c308c"/><path d="m605.39 593.05.351 4.13c-31.51 11.221-70.13 20.45-113 25.44l-.69-5.91 49.46-80.83 4.91.55z" fill="#2c308c"/><path d="m492.05 616.71.69 5.91c-22.28 2.6-45.71 4.06-69.89 4.06-24.72 0-48.65-1.52-71.38-4.229l.69-5.74 68.5-100.89h2.88z" fill="#2c308c"/><path d="m302.98 536.35 49.18 80.36-.69 5.74c-43.33-5.16-82.27-14.63-113.84-26.101l1.18-3.3 58.37-56.04z" fill="#2c308c"/><path d="m238.81 593.05-1.18 3.3c-18.79-6.83-34.97-14.369-47.92-22.13-7.36-42.29-7.6-86.899-3.25-131.189l.65.069c0 6.521 6.73 14.021 18.9 21.58l-.83 1.32c1.24 4.98 33.63 127.05 33.63 127.05z" fill="#2c308c"/><path d="m469.23 284.14.64 5.91c-15.23 1.61-31.22 2.5-47.71 2.5-16.53 0-32.55-.9-47.81-2.51l.23-2.16 47.95-69.66c1.86 0 3.71-.01 5.55-.04l.05 3.68z" fill="#2c308c"/><path d="m586.64 175.58c0-.39-.04-.78-.12-1.17l.051-.02c7.18 17.13 14.8 36.53 22.33 57.65l-.62.22c.069.56.12 1.12.12 1.7 0 19.99-58.79 47.72-138.53 56.09l-.64-5.91 37.369-67.26 53.561 43.59 11.04-69.88c9.909-5.24 15.439-10.49 15.439-15.01z" fill="#2c308c"/><path d="m337.21 220.62 37.37 67.26-.23 2.16c-79.69-8.39-138.43-36.1-138.43-56.08l-.3-.11c7.57-21.38 15.26-41.04 22.51-58.39l.3.12c0 4.16 4.68 8.94 13.14 13.75l12.08 74.88z" fill="#2c308c"/><path d="m271.57 189.33c-8.46-4.81-13.14-9.59-13.14-13.75l-.3-.12c2.99-7.15 5.9-13.9 8.7-20.23 50.45-113.98 155.08-112.11 155.08-112.11l1.36.08s104.63-1.87 155.08 112.1c2.65 5.99 5.4 12.36 8.221 19.09l-.051.02c.08.39.12.78.12 1.17 0 4.52-5.529 9.77-15.439 15.01-25.44 13.47-79.73 26.85-143.12 27.59-1.84.03-3.69.04-5.55.04-67.751 0-125.911-14.62-150.961-28.89zm257.46-30.99c0-11.69-9.48-21.17-21.181-21.17-11.689 0-21.159 9.48-21.159 21.17s9.47 21.17 21.159 21.17c11.701 0 21.181-9.48 21.181-21.17zm-73.49-67.26c0-11.69-9.48-21.17-21.18-21.17-11.69 0-21.17 9.48-21.17 21.17 0 11.7 9.48 21.18 21.17 21.18 11.7 0 21.18-9.48 21.18-21.18zm-21.18 80.96c0-11.69-9.48-21.18-21.17-21.18-11.7 0-21.17 9.49-21.17 21.18s9.47 21.17 21.17 21.17c11.69 0 21.17-9.48 21.17-21.17zm-66.01-32.38c0-11.7-9.48-21.18-21.18-21.18-11.69 0-21.17 9.48-21.17 21.18 0 11.69 9.48 21.17 21.17 21.17 11.7 0 21.18-9.48 21.18-21.17z" fill="#fbee34"/><path d="m655.43 574.54c-6.71 38.46-19.319 75-39.71 107.63-76.18 121.88-153.76 122.45-193.81 124.3l-.47.05c-40.16-1.819-116.07-2.96-191.97-124.409-20.44-32.71-33.06-69.341-39.76-107.891 12.95 7.761 29.13 15.3 47.92 22.13 31.57 11.471 70.51 20.94 113.84 26.101 22.73 2.71 46.66 4.229 71.38 4.229 24.18 0 47.61-1.46 69.89-4.06 42.87-4.99 81.49-14.22 113-25.44 19.51-6.96 36.3-14.67 49.69-22.64zm-96.5 104.47c0-16.51-13.39-29.91-29.899-29.91-16.5 0-29.891 13.4-29.891 29.91 0 16.5 13.391 29.88 29.891 29.88 16.509 0 29.899-13.38 29.899-29.88zm-105.88 69.75c0-16.51-13.38-29.91-29.89-29.91s-29.89 13.4-29.89 29.91c0 16.5 13.38 29.88 29.89 29.88s29.89-13.38 29.89-29.88zm-107.13-69.75c0-16.51-13.38-29.91-29.89-29.91s-29.89 13.4-29.89 29.91c0 16.5 13.38 29.88 29.89 29.88s29.89-13.38 29.89-29.88z" fill="#fbee34"/><path d="m608.9 232.04c22.569 63.37 44.3 142.2 50.75 221.41l-1.08.09c-4.34 4.3-11.09 8.86-19.801 13.46-25.069 13.23-66.39 26.68-113.18 34.59l-2.85.07c-5.34-6.91-11.28-15.01-17.78-24.48-15.34-22.34-24.7-44.199-30.38-63.15 3.95 3.04 8.26 6.04 12.84 8.84 19.59 11.95 52.66 17.399 52.66 17.399 2.65-4.529 11.7-30.279 16.689-50.29 5.021-20.02 1.921-48.87-.239-63.65-2.141-14.77-6.67-25.51-6.67-25.51s-25.03 1.67-51.25 8.35c-26.21 6.67-50.28 32.41-50.28 32.41l-5.34.02c-2.311-1.56-5.101-2.47-8.09-2.47h-28.47c-3.74 0-7.16 1.42-9.73 3.75l-2.73-2.57s-24.08-25.74-50.3-32.41c-26.22-6.68-51.25-8.35-51.25-8.35s-4.53 10.73-6.68 25.51c-2.14 14.78-5.24 43.62-.23 63.65 5.01 20.02 14.07 45.76 16.69 50.271 0 0 33.09-5.431 52.68-17.391 4.41-2.68 8.55-5.56 12.38-8.47l.89 1.2c-5.67 19.05-15.06 41.06-30.51 63.55-6.34 9.24-12.15 17.18-17.38 23.979l-.7-.54c-50.75-8.71-91.27-22.779-113.55-36.63-12.17-7.56-18.9-15.06-18.9-21.58l-.65-.069c7.34-74.92 27.81-148.91 49.16-209.18l.3.11c0 19.98 58.74 47.69 138.43 56.08 15.26 1.61 31.28 2.51 47.81 2.51 16.49 0 32.479-.89 47.71-2.5 79.74-8.37 138.53-36.1 138.53-56.09 0-.58-.051-1.14-.12-1.7z" fill="#fbee34"/><path d="m529.03 649.1c16.51 0 29.899 13.4 29.899 29.91 0 16.5-13.39 29.88-29.899 29.88-16.5 0-29.891-13.38-29.891-29.88.001-16.51 13.391-29.91 29.891-29.91z" fill="#231f20"/><path d="m507.85 137.17c11.7 0 21.181 9.48 21.181 21.17s-9.48 21.17-21.181 21.17c-11.689 0-21.159-9.48-21.159-21.17s9.469-21.17 21.159-21.17z" fill="#231f20"/><path d="m434.36 69.91c11.699 0 21.18 9.48 21.18 21.17 0 11.7-9.48 21.18-21.18 21.18-11.69 0-21.17-9.48-21.17-21.18 0-11.69 9.48-21.17 21.17-21.17z" fill="#231f20"/><path d="m423.16 718.85c16.51 0 29.89 13.4 29.89 29.91 0 16.5-13.38 29.88-29.89 29.88s-29.89-13.38-29.89-29.88c0-16.51 13.38-29.91 29.89-29.91z" fill="#231f20"/><path d="m413.19 150.86c11.69 0 21.17 9.49 21.17 21.18s-9.48 21.17-21.17 21.17c-11.7 0-21.17-9.48-21.17-21.17s9.47-21.18 21.17-21.18z" fill="#231f20"/><path d="m347.17 118.48c11.7 0 21.18 9.48 21.18 21.18 0 11.69-9.48 21.17-21.18 21.17-11.69 0-21.17-9.48-21.17-21.17 0-11.7 9.48-21.18 21.17-21.18z" fill="#231f20"/><path d="m316.03 649.1c16.51 0 29.89 13.4 29.89 29.91 0 16.5-13.38 29.88-29.89 29.88s-29.89-13.38-29.89-29.88c0-16.51 13.38-29.91 29.89-29.91z" fill="#231f20"/><g fill="none"><path d="m189.71 574.22c6.7 38.55 19.32 75.181 39.76 107.891 75.9 121.449 151.81 122.589 191.97 124.409l.47-.05c40.05-1.85 117.63-2.42 193.81-124.3 20.391-32.63 33-69.17 39.71-107.63 6.82-39.08 7.57-80.14 4.221-121.09-6.45-79.21-28.181-158.04-50.75-221.41-7.53-21.12-15.15-40.52-22.33-57.65-2.82-6.73-5.57-13.1-8.221-19.09-50.45-113.97-155.08-112.1-155.08-112.1l-1.36-.08s-104.63-1.87-155.08 112.11c-2.8 6.33-5.71 13.08-8.7 20.23-7.25 17.35-14.94 37.01-22.51 58.39-21.35 60.27-41.82 134.26-49.16 209.18-4.35 44.29-4.11 88.9 3.25 131.19z" stroke="#231f20" stroke-width="21"/><path d="m586.52 174.41c.08.39.12.78.12 1.17 0 4.52-5.529 9.77-15.439 15.01-25.44 13.47-79.73 26.85-143.12 27.59-1.84.03-3.69.04-5.55.04-67.75 0-125.91-14.62-150.96-28.89-8.46-4.81-13.14-9.59-13.14-13.75" stroke="#231f20" stroke-width="21"/><path d="m608.28 232.26c.069.56.12 1.12.12 1.7 0 19.99-58.79 47.72-138.53 56.09-15.23 1.61-31.22 2.5-47.71 2.5-16.53 0-32.55-.9-47.81-2.51-79.69-8.39-138.43-36.1-138.43-56.08" stroke="#231f20" stroke-width="21"/><path d="m319.56 501.31c-50.75-8.71-91.27-22.779-113.55-36.63-12.17-7.56-18.9-15.06-18.9-21.58" stroke="#231f20" stroke-width="21"/><path d="m456.32 509.17c-.4.021-.801.04-1.2.061-10.33.529-20.88.8-31.59.8-.05 0-.1 0-.15 0-11.28 0-22.37-.3-33.23-.88" stroke="#231f20" stroke-width="21"/><path d="m658.57 453.54c-4.34 4.3-11.09 8.86-19.801 13.46-25.069 13.23-66.39 26.68-113.18 34.59" stroke="#231f20" stroke-width="21"/><path d="m656.89 573.67c-.479.29-.97.58-1.46.87-13.39 7.97-30.18 15.68-49.689 22.64-31.51 11.221-70.13 20.45-113 25.44-22.28 2.6-45.71 4.06-69.89 4.06-24.72 0-48.65-1.52-71.38-4.229-43.33-5.16-82.27-14.63-113.84-26.101-18.79-6.83-34.97-14.369-47.92-22.13-1.2-.71-2.38-1.439-3.53-2.16" stroke="#231f20" stroke-width="21"/><path d="m442.99 341.6c3.84 2.59 6.38 6.99 6.38 11.98v23.05c0 4.49-2.05 8.51-5.271 11.16-2.5 2.06-5.71 3.3-9.199 3.3h-11.44-4.3-12.73c-4.24 0-8.06-1.83-10.71-4.73-2.33-2.57-3.75-5.99-3.75-9.73v-23.05c0-4.24 1.83-8.05 4.73-10.7 2.57-2.33 5.99-3.75 9.73-3.75h28.47c2.99 0 5.78.91 8.09 2.47z" stroke="#231f20" stroke-width="21"/><path d="m393.97 340.31s-24.08-25.74-50.3-32.41c-26.22-6.68-51.25-8.35-51.25-8.35s-4.53 10.73-6.68 25.51c-2.14 14.78-5.24 43.62-.23 63.65 5.01 20.02 14.07 45.76 16.69 50.271 0 0 33.09-5.431 52.68-17.391 4.41-2.68 8.55-5.56 12.38-8.47 16.89-12.85 27.67-26.32 27.67-26.32" stroke="#231f20" stroke-width="21"/><path d="m340.57 372.02s24.31 6.2 51.25-9.3" stroke="#231f20" stroke-width="21"/><path d="m448.33 341.58s24.07-25.74 50.28-32.41c26.22-6.68 51.25-8.35 51.25-8.35s4.529 10.74 6.67 25.51c2.16 14.78 5.26 43.63.239 63.65-4.989 20.01-14.039 45.76-16.689 50.29 0 0-33.07-5.449-52.66-17.399-4.58-2.8-8.89-5.8-12.84-8.84-16.64-12.75-27.22-25.96-27.22-25.96" stroke="#231f20" stroke-width="21"/><path d="m501.72 373.29s-24.33 6.2-51.25-9.29" stroke="#231f20" stroke-width="21"/><path d="m368.15 414.32c-5.67 19.05-15.06 41.06-30.51 63.55-6.34 9.24-12.15 17.18-17.38 23.979-21.17 27.511-32.97 36.29-32.97 36.29l9.89-1.13 5.8-.66 27.63-3.159 6.19 45.38s22.01-25.45 43.48-57.221c2.95-4.359 5.68-8.75 8.2-13.159 25.55-44.511 30.72-90.67 30.68-117.101 0-.3 0-.6 0-.89" stroke="#231f20" stroke-width="21"/><path d="m474.46 413.65c.04.13.08.25.12.38 5.68 18.951 15.04 40.81 30.38 63.15 6.5 9.471 12.44 17.57 17.78 24.48 20.93 27.12 32.58 35.79 32.58 35.79l-8.9-1.021-4.91-.55-29.51-3.369-6.19 45.38s-22.01-25.46-43.479-57.22c-2.561-3.79-4.96-7.61-7.21-11.439-26.18-44.66-31.6-91.26-31.66-118.141 0-.54 0-1.06 0-1.58" stroke="#231f20" stroke-width="21"/><path d="m271.19 186.99.38 2.34 12.08 74.88 53.56-43.59 37.37 67.26 47.95-69.66" stroke="#231f20" stroke-width="14"/><path d="m571.38 189.48-.18 1.11-11.04 69.88-53.56-43.59-37.37 67.26-41.1-62.28" stroke="#231f20" stroke-width="14"/><path d="m205.18 466c1.24 4.98 33.63 127.05 33.63 127.05l58.37-56.04 3.91-3.75 1.89 3.09 49.18 80.36 68.5-100.89" stroke="#231f20" stroke-width="14"/><path d="m639.02 466c-.05.18-.13.52-.25 1-3.31 12.72-33.38 126.05-33.38 126.05l-58.97-56.62-3.31-3.17-1.601 2.62-49.46 80.83-68.51-100.89" stroke="#231f20" stroke-width="14"/><path d="m0 0h850.394v850.394h-850.394z"/></g></svg>