<svg enable-background="new 0 0 850.394 850.394" height="850.394" viewBox="0 0 850.394 850.394" width="850.394" xmlns="http://www.w3.org/2000/svg"><path d="m272 530-95.94-450.94c1.33 5.5 14.22 56.02 42 62.5 29.39 6.87 135 20.77 158.07 33.35 23.08 12.57 77.73 83.59 129.03 203.75 46.7 109.38 77.31 180.8 77.31 219.82 0 39.029-92.59 132.76-155.7 159.46l-.09 1.46-154.64-9.99c20.07-30.48 129.67-144.61 168.979-166.38 0 0-60.5-91.24-104.2-166.38-43.22-31.48-58.5 89.18-60.65 112.37-.03.32-.06.65-.09.98z" fill="#ffeec8"/><g fill="none"><path d="m176.06 79.06c1.33 5.5 14.22 56.02 42 62.5 29.39 6.87 135 20.77 158.07 33.35 23.08 12.57 77.73 83.59 129.03 203.75 46.7 109.38 77.31 180.8 77.31 219.82 0 39.029-92.59 132.76-155.7 159.46" stroke="#231f20" stroke-width="20.9074"/><path d="m175.99 78.73c.01.05.03.12.04.2" stroke="#231f20" stroke-width="20.9074"/><path d="m302.58 352.99c8.01 17.23 20.27 39.62 34.24 63.66 43.7 75.14 104.2 166.38 104.2 166.38-39.31 21.77-148.91 135.9-168.98 166.38" stroke="#231f20" stroke-width="20.9074"/><path d="m336.84 416.66c-.01 0-.01-.01-.02-.01-43.22-31.48-58.5 89.18-60.65 112.37-.03.32-.06.65-.09.98-3.8 42.05-8.11 159.68-8.11 196.82" stroke="#231f20" stroke-width="20.9074"/><path d="m176.03 78.93.03.13" stroke="#231f20" stroke-width="20.9074"/><path d="m175.95 78.57.04.16" stroke="#231f20" stroke-width="20.9074"/><path d="m752.13 575.9-144.57-1.77" stroke="#231f20" stroke-linejoin="round" stroke-width="21"/><path d="m654.25 618.23-47.62-44.28 48.75-43.1" stroke="#231f20" stroke-linejoin="round" stroke-width="21"/><path d="m0 0h850.394v850.394h-850.394z"/></g></svg>