<svg enable-background="new 0 0 850.394 850.394" height="850.394" viewBox="0 0 850.394 850.394" width="850.394" xmlns="http://www.w3.org/2000/svg"><path d="m700.75 546.98c9.68 0 17.53 7.859 17.53 17.52 0 9.68-7.851 17.53-17.53 17.53s-17.51-7.851-17.51-17.53c0-9.66 7.83-17.52 17.51-17.52z" fill="#231f20"/><path d="m678.75 564.77c0-9.67-7.86-17.5-17.53-17.5-9.689 0-17.52 7.83-17.52 17.5 0 9.69 7.83 17.521 17.52 17.521 9.67-.001 17.53-7.831 17.53-17.521zm4.49-.27c0 9.68 7.83 17.53 17.51 17.53s17.53-7.851 17.53-17.53c0-9.66-7.851-17.52-17.53-17.52s-17.51 7.86-17.51 17.52zm79.35-428.98v428.57c0 23.69-19.2 42.88-42.87 42.88h-209.08-172.28-208.58c-23.68 0-42.87-19.189-42.87-42.88v-428.57c0-23.69 19.19-42.88 42.87-42.88h589.94c23.67 0 42.87 19.19 42.87 42.88zm-62.22 385.73v-368.1h-549.63v368.1z" fill="#7a7878"/><path d="m661.22 547.27c9.67 0 17.53 7.83 17.53 17.5 0 9.69-7.86 17.521-17.53 17.521-9.689 0-17.52-7.83-17.52-17.521 0-9.67 7.83-17.5 17.52-17.5z" fill="#231f20"/><path d="m600.86 728.34v29.46l-123.44.38h-229.3v-29.48c70.06-10.36 90.24-36.9 90.24-36.9v-83.76-1.07h172.28v1.73 82.76s20.15 26.51 90.22 36.88z" fill="#7a7878"/><path d="m150.74 153.15h549.63v368.1h-549.63z" fill="#fff"/><path d="m338.36 606.97h-208.58c-23.68 0-42.87-19.189-42.87-42.88v-428.57c0-23.69 19.19-42.88 42.87-42.88h589.94c23.67 0 42.87 19.19 42.87 42.88v428.57c0 23.69-19.2 42.88-42.87 42.88h-209.08z" fill="none" stroke="#231f20" stroke-width="21"/><path d="m150.74 153.15h549.63v368.1h-549.63z" fill="none" stroke="#231f20" stroke-width="14"/><path d="m510.64 608.7v82.76s20.15 26.51 90.221 36.88v29.46l-123.44.38h-229.3v-29.48c70.06-10.36 90.24-36.9 90.24-36.9v-83.76" fill="none" stroke="#231f20" stroke-width="21"/><path d="m0 0h850.394v850.394h-850.394z" fill="none"/><path d="m589.658 389.271v65.788l-75.046 9.262v-71.805z" fill="#ee947d"/><path d="m435.04 204.597 39.407-5.399v83.686l-39.407 2.158-.688.01c-.035-4.631-.075-9.826-.12-15.364 0-.065 0-.125 0-.185.17-21.107.404-46.935.653-64.911z" fill="#f6cc4b"/><path d="m435.04 285.042 39.407-2.158v-83.686l-39.407 5.399-.154-.005c.05-3.809.1-7.268.154-10.254.27-15.454 44.268-15.658 64.243-15.115 19.98.539 105.824 15.653 105.824 15.653l-.538 276.973s-80.988 13.495-122.021 16.197c-38.654 2.547-47.603-9.771-48.505-11.207.324-.424.459-.668.459-.668v-46.437-124.179s-.055-8.26-.149-20.503zm154.618 170.017v-65.788l-75.046 3.245v71.806z" fill="#ffffc2"/><path d="m433.42 284.503-39.413-2.164v-83.685l39.413 5.399.154-.005c.249 18.131.483 44.253.658 65.455v.185c-.045 5.309-.085 10.319-.119 14.826z" fill="#f6cc4b"/><path d="m385.907 487.507c-41.033-2.701-122.021-16.196-122.021-16.196l-.539-276.973s85.844-15.12 105.824-15.658c19.975-.539 63.979-.339 64.248 15.12.05 2.986.104 6.44.154 10.249l-.154.005-39.413-5.399v83.685l39.413 2.164.693.01c-.095 12.837-.155 21.585-.155 21.585v123.098 47.508s.025.045.085.135c-2.128 2.756-12.532 13.011-48.135 10.667zm-28.076-206.244v-83.686l-75.046 10.798v76.666z" fill="#ffffc2"/><path d="m357.831 197.578v83.685l-75.046 3.779v-76.667z" fill="#33a048"/><g fill="none"><path d="m434.232 269.688c.045 5.539.085 10.733.12 15.364.095 12.243.149 20.503.149 20.503v124.179 46.437s-.135.244-.459.668c-2.129 2.757-12.533 13.012-48.136 10.668-41.033-2.701-122.021-16.196-122.021-16.196l-.539-276.973s85.844-15.12 105.824-15.658c19.975-.539 63.979-.339 64.248 15.12.05 2.986.104 6.44.154 10.249.249 18.131.483 44.253.658 65.455" stroke="#231f20" stroke-width="14"/><path d="m282.785 208.375 75.046-10.797v83.685l-75.046 3.779z" stroke="#231f20" stroke-width="7"/><path d="m277.386 310.416 65.33-1.077" stroke="#231f20" stroke-width="9.7183"/><path d="m277.929 336.329 65.33-1.077" stroke="#231f20" stroke-width="9.7183"/><path d="m278.468 363.328 65.329-1.082" stroke="#231f20" stroke-width="9.7183"/><path d="m279.006 389.241 65.33 2.163" stroke="#231f20" stroke-width="9.7183"/><path d="m278.468 416.778 66.945 2.702" stroke="#231f20" stroke-width="9.7183"/><path d="m280.083 444.854 64.253 5.399" stroke="#231f20" stroke-width="9.7183"/><path d="m364.311 308.257s35.634-3.779 68.027 5.399" stroke="#231f20" stroke-width="9.7183"/><path d="m363.773 337.41s35.633-3.779 68.027 5.399" stroke="#231f20" stroke-width="9.7183"/><path d="m364.85 364.948s35.634-3.779 68.032 5.399" stroke="#231f20" stroke-width="9.7183"/><path d="m365.393 394.64s35.633-3.774 68.027 5.404" stroke="#231f20" stroke-width="9.7183"/><path d="m365.931 423.797s35.634-3.779 68.027 5.399" stroke="#231f20" stroke-width="9.7183"/><path d="m364.311 456.19s35.634-3.778 68.027 5.399" stroke="#231f20" stroke-width="9.7183"/><path d="m433.42 204.054-39.413-5.399v83.685l39.413 2.163" stroke="#231f20" stroke-width="7"/><path d="m434.113 284.513c-.095 12.837-.155 21.585-.155 21.585v123.098 47.508s.025.045.085.135c.902 1.436 9.851 13.754 48.505 11.207 41.033-2.702 122.021-16.197 122.021-16.197l.538-276.973s-85.844-15.115-105.824-15.653c-19.976-.543-63.974-.339-64.243 15.115-.055 2.986-.104 6.446-.154 10.254-.249 17.977-.483 43.804-.653 64.911v.185c-.045 5.309-.086 10.319-.12 14.825z" stroke="#231f20" stroke-width="14"/><path d="m589.658 455.059-75.046 9.262v-71.805l75.046-3.245z" stroke="#231f20" stroke-width="7"/><path d="m585.586 232.189-65.33-7.557" stroke="#231f20" stroke-width="9.7183"/><path d="m585.042 258.107-65.33-5.065" stroke="#231f20" stroke-width="9.7183"/><path d="m584.504 285.102-65.325-3.575" stroke="#231f20" stroke-width="9.7183"/><path d="m583.966 311.014-65.325 2.164" stroke="#231f20" stroke-width="9.7183"/><path d="m584.504 338.552-66.945 2.702" stroke="#231f20" stroke-width="9.7183"/><path d="m582.889 366.628-64.248 5.399" stroke="#231f20" stroke-width="9.7183"/><path d="m504.144 308.796s-35.634-3.774-68.026 5.404" stroke="#231f20" stroke-width="9.7183"/><path d="m504.688 337.954s-35.634-3.773-68.027 5.399" stroke="#231f20" stroke-width="9.7183"/><path d="m503.605 365.486s-35.634-3.779-68.027 5.399" stroke="#231f20" stroke-width="9.7183"/><path d="m503.067 395.183s-35.634-3.778-68.027 5.399" stroke="#231f20" stroke-width="9.7183"/><path d="m502.523 424.336s-35.629-3.774-68.021 5.398h-.005" stroke="#231f20" stroke-width="9.7183"/><path d="m504.144 456.734s-35.634-3.779-68.026 5.394" stroke="#231f20" stroke-width="9.7183"/><path d="m435.04 204.597 39.407-5.399v83.685l-39.407 2.159" stroke="#231f20" stroke-width="7"/></g></svg>