<svg enable-background="new 0 0 850.394 850.394" height="850.394" viewBox="0 0 850.394 850.394" width="850.394" xmlns="http://www.w3.org/2000/svg"><path d="m654.64 509.02v1 35.68s8.811 11.59 39.44 16.109v12.891l-53.96.16h-100.24v-12.9c30.63-4.51 39.45-16.11 39.45-16.11v-35.68-1.4h75.31z" fill="#7a7878"/><path d="m309.93 561.81v12.89l-53.96.16h-100.24v-12.9c30.63-4.51 39.45-16.11 39.45-16.11v-35.68-1.4h75.31v1.25 35.68s8.81 11.59 39.44 16.11z" fill="#7a7878"/><path d="m353.43 390.49v80.8h-240.27v-160.91h240.27z" fill="#fff"/><path d="m737.75 482.55c4.23 0 7.65 3.42 7.65 7.65 0 4.229-3.42 7.66-7.65 7.66-4.24 0-7.66-3.431-7.66-7.66 0-4.23 3.42-7.65 7.66-7.65z" fill="#231f20"/><path d="m497.31 390.49v80.8h112.73 104 23.54v-160.91h-240.27zm157.33 118.28h-75.31-91.18c-10.351 0-18.74-8.39-18.74-18.75v-99.53-87.82c0-10.36 8.39-18.75 18.74-18.75h257.88c10.35 0 18.75 8.39 18.75 18.75v187.35c0 10.36-8.4 18.75-18.75 18.75zm73.48-18.46c0-4.229-3.43-7.659-7.66-7.659-4.229 0-7.65 3.43-7.65 7.659 0 4.23 3.421 7.66 7.65 7.66 4.23 0 7.66-3.43 7.66-7.66zm1.97-.11c0 4.229 3.42 7.66 7.66 7.66 4.23 0 7.65-3.431 7.65-7.66 0-4.23-3.42-7.65-7.65-7.65-4.24 0-7.66 3.42-7.66 7.65z" fill="#7a7878"/><path d="m720.46 482.65c4.23 0 7.66 3.43 7.66 7.659 0 4.23-3.43 7.66-7.66 7.66-4.229 0-7.65-3.43-7.65-7.66 0-4.229 3.42-7.659 7.65-7.659z" fill="#231f20"/><path d="m680.54 336.44 33.5 37.02h-33.5z" fill="#f6cc4b"/><path d="m648.93 386.72v20.73c0 5.38-4.34 9.72-9.71 9.72-2.68 0-5.1-1.09-6.859-2.84-1.75-1.76-2.841-4.19-2.841-6.88v-18.52h2.631c0 1.88.76 3.58 2 4.81 1.229 1.24 2.93 2 4.819 2 3.761 0 6.811-3.05 6.811-6.81l.06-33.48h3.09v31.27z" fill="#f6cc4b"/><path d="m645.84 336.44h34.7v37.02h33.5v93.99 3.84h-104v-1.72-133.13h19.479v1.58 17.43 33.48 18.52c0 2.69 1.091 5.12 2.841 6.88 1.76 1.75 4.18 2.84 6.859 2.84 5.37 0 9.71-4.34 9.71-9.72v-20.73-31.27h-3.09v-17.43-1.58z" fill="#f6cc4b"/><path d="m632.15 388.93h-2.631v-33.48-17.43-1.58h16.32v1.58 17.43l-.06 33.48c0 3.76-3.05 6.81-6.811 6.81-1.89 0-3.59-.76-4.819-2-1.239-1.23-1.999-2.93-1.999-4.81z" fill="#f6cc4b"/><path d="m680.54 336.44h-34.7-16.32-19.48v133.13 1.72h-112.73v-80.8-80.11h240.27v160.91h-23.54v-3.84-93.99z" fill="#fff"/><path d="m353.6 482.55c4.23 0 7.65 3.42 7.65 7.65 0 4.229-3.42 7.66-7.65 7.66s-7.66-3.431-7.66-7.66c0-4.23 3.43-7.65 7.66-7.65z" fill="#231f20"/><path d="m343.97 490.31c0-4.229-3.43-7.659-7.65-7.659-4.24 0-7.66 3.43-7.66 7.659 0 4.23 3.42 7.66 7.66 7.66 4.22 0 7.65-3.43 7.65-7.66zm1.97-.11c0 4.229 3.43 7.66 7.66 7.66s7.65-3.431 7.65-7.66c0-4.23-3.42-7.65-7.65-7.65s-7.66 3.42-7.66 7.65zm7.49-99.71v-80.11h-240.27v160.91h240.27zm27.2 0v99.529c0 10.36-8.4 18.75-18.75 18.75h-91.39-75.31-91.18c-10.35 0-18.74-8.39-18.74-18.75v-187.349c0-10.36 8.39-18.75 18.74-18.75h257.88c10.35 0 18.75 8.39 18.75 18.75z" fill="#7a7878"/><path d="m336.32 482.65c4.22 0 7.65 3.43 7.65 7.659 0 4.23-3.43 7.66-7.65 7.66-4.24 0-7.66-3.43-7.66-7.66 0-4.229 3.42-7.659 7.66-7.659z" fill="#231f20"/><g fill="none"><path d="m469.41 390.49v-87.82c0-10.36 8.39-18.75 18.74-18.75h257.88c10.35 0 18.75 8.39 18.75 18.75v187.35c0 10.36-8.4 18.75-18.75 18.75h-91.39-75.31-91.18c-10.351 0-18.74-8.39-18.74-18.75z" stroke="#231f20" stroke-width="21"/><path d="m497.31 390.49v-80.11h240.27v160.91h-23.54-104-112.73z" stroke="#231f20" stroke-width="14"/><path d="m654.64 510.02v35.68s8.811 11.59 39.44 16.109v12.891l-53.96.16h-100.24v-12.9c30.63-4.51 39.45-16.11 39.45-16.11v-35.68" stroke="#231f20" stroke-width="21"/><path d="m380.63 390.49v99.529c0 10.36-8.4 18.75-18.75 18.75h-91.39-75.31-91.18c-10.35 0-18.74-8.39-18.74-18.75v-187.349c0-10.36 8.39-18.75 18.74-18.75h257.88c10.35 0 18.75 8.39 18.75 18.75z" stroke="#231f20" stroke-width="21"/><path d="m353.43 471.29h-240.27v-160.91h240.27v80.11z" stroke="#231f20" stroke-width="14"/><path d="m270.49 510.02v35.68s8.81 11.59 39.44 16.109v12.891l-53.96.16h-100.24v-12.9c30.63-4.51 39.45-16.11 39.45-16.11v-35.68" stroke="#231f20" stroke-width="21"/><path d="m240.2 390.49h113.23 27.2 88.78 27.9 73.33" stroke="#231f20" stroke-width="21"/><path d="m527.02 430.72 44.47-40.38-44.54-40.36" stroke="#231f20" stroke-width="21"/><path d="m645.84 338.02v17.43l-.06 33.48c0 3.76-3.05 6.81-6.811 6.81-1.89 0-3.59-.76-4.819-2-1.24-1.23-2-2.93-2-4.81v-14.56-18.19" stroke="#231f20" stroke-width="7"/><path d="m648.93 342.17v13.28 31.27 20.73c0 5.38-4.34 9.72-9.71 9.72-2.68 0-5.1-1.09-6.859-2.84-1.75-1.76-2.841-4.19-2.841-6.88v-18.52-33.48-17.43" stroke="#231f20" stroke-width="7"/><path d="m714.04 467.45v-93.99l-33.5-37.02h-34.7-16.32-19.48v133.13" stroke="#231f20" stroke-width="7"/><path d="m680.54 336.19v.25 37.02h33.5" stroke="#231f20" stroke-width="7"/><path d="m0 0h850.394v850.394h-850.394z"/></g></svg>