<svg enable-background="new 0 0 850.394 850.394" height="850.394" viewBox="0 0 850.394 850.394" width="850.394" xmlns="http://www.w3.org/2000/svg"><path d="m707.46 206.28c8.78 2.89 15.14 11.31 15.14 21.25 0 9.47-5.76 17.55-13.89 20.8-2.47 1-5.16 1.54-7.97 1.54-12.07 0-21.86-10-21.86-22.34 0-12.33 9.79-22.33 21.86-22.33 2.35 0 4.61.38 6.72 1.08z" fill="#787878"/><path d="m760.61 326.37s14.26 73.65-5.7 85.05-28.521 0-28.521 0h-.01c2.09-9.87 2.82-21.86 2.9-33.24.149-20.98-1.931-39.93-1.931-39.93l-11.88-11.88z" fill="#787878"/><path d="m725.45 378.16 3.83.02c-.08 11.38-.811 23.37-2.9 33.24-2.67 12.67-7.56 21.86-16.13 21.86-15.52 0-29.23 0-38.25 0-6.99 0-11.17 0-11.17 0v-55.12z" fill="#787878"/><path d="m647.52 451.33c6.04 0 10.931 5.11 10.931 11.41 0 6.29-4.891 11.399-10.931 11.399-6.029 0-10.93-5.109-10.93-11.399 0-6.3 4.9-11.41 10.93-11.41z" fill="#787878"/><path d="m493.1 605.76c6.03 0 10.92 5.11 10.92 11.41 0 6.29-4.89 11.4-10.92 11.4-6.04 0-10.93-5.11-10.93-11.4 0-6.3 4.89-11.41 10.93-11.41z" fill="#787878"/><path d="m613.61 409.52v31.95h-67.8v-31.95h3.51z" fill="#787878"/><path d="m613.61 383.03v26.49h-64.29-3.51v-10.91-15.58z" fill="#787878"/><path d="m518.58 324.64v31.96h-67.8v-31.96h3.51z" fill="#787878"/><path d="m518.58 298.15v26.49h-64.29-3.51v-10.91-15.58z" fill="#787878"/><path d="m324.71 410.36v31.95h-67.8v-31.95h3.51z" fill="#787878"/><path d="m324.71 383.86v26.5h-64.29-3.51v-10.91-15.59z" fill="#787878"/><path d="m420.69 298.15v26.49h-64.29-3.5v-10.91-15.58z" fill="#787878"/><path d="m420.69 324.64v31.96h-67.79v-31.96h3.5z" fill="#787878"/><path d="m204.03 173.84h44.36v121.64h-53.22-4.75v-36.11-71.28-14.25z" fill="#c8c8c8"/><path d="m199.27 534.31c6.56 0 11.88 5.32 11.88 11.881 0 3.279-1.33 6.25-3.48 8.399-2.15 2.15-5.12 3.48-8.4 3.48h-19.96-6c0-6.99 0-14.94 0-23.761h6 19.96z" fill="#787878"/><path d="m256.91 442.31h67.8v-31.95-26.5h-67.8v15.59 10.91zm288.9-.84h67.801v-31.95-26.49h-67.801v15.58 10.91zm179.64-63.31h-64.62v55.12h11.17v.72l-.67 36.27-1.68 91.721-1.22 66.109-49.42 85.521v-73.17c-12.35-4.75-125.439 24.71-183.41 38.01-57.97 13.31-85.53 0-95.979-28.51-10.46-28.51-85.53-28.51-85.53-28.51h-5.7v-317.411h4.75 74.12 4.76v145.4h102.63v-306h266.56l6.25 62.85c-2.11-.7-4.37-1.08-6.72-1.08-12.07 0-21.86 10-21.86 22.33 0 12.34 9.79 22.34 21.86 22.34 2.81 0 5.5-.54 7.97-1.54l-15.57 55.7 22.33 22.34 11.88 11.88s2.08 18.95 1.931 39.93zm-67 84.58c0-6.3-4.891-11.41-10.931-11.41-6.029 0-10.93 5.11-10.93 11.41 0 6.29 4.9 11.399 10.93 11.399 6.041.001 10.931-5.109 10.931-11.399zm-139.87-106.14v-31.96-26.49h-67.8v15.58 10.91 31.96zm-14.56 260.57c0-6.3-4.89-11.41-10.92-11.41-6.04 0-10.93 5.11-10.93 11.41 0 6.29 4.89 11.4 10.93 11.4 6.03 0 10.92-5.11 10.92-11.4z" fill="#c8c8c8"/><path d="m420.69 298.15h-67.79v15.58 10.91 31.96h67.79v-31.96zm13.96-154.72v306h-102.63v-145.4-160.6z" fill="#c8c8c8"/><path d="m327.26 304.03h-74.12-4.75v-8.55-121.64h-44.36l10.14-52.27 199.57-11.4 17.11-17.11 95.03-5.7 89.33 31.36 84.58 10.45 1.42 14.26h-266.56-102.63v160.6z" fill="#c8c8c8"/><path d="m619.01 713.62v14.26s-70.319 11.4-157.75 28.51c-87.43 17.11-122.59 7.601-131.15-25.659-8.55-33.261-81.72-25.66-81.72-25.66v-28.511-55.12h5.7s75.07 0 85.53 28.51c10.45 28.51 38.01 41.819 95.979 28.51 57.971-13.3 171.061-42.76 183.41-38.01v73.17z" fill="#787878"/><path d="m190.42 372.16v-5.4-71.28h4.75 53.22v8.55 317.41 55.119h-4.76l-61.77 24.71v29.461l-95.03 4.75-7.6-160.601 36.77 7.05 57.31 11s0-12.54 0-34.859h6 19.96c3.28 0 6.25-1.33 8.4-3.48 2.15-2.149 3.48-5.12 3.48-8.399 0-6.561-5.32-11.881-11.88-11.881h-19.96-6c0-15.59 0-33.899 0-54.47 0-69.37 17.11-100.73 17.11-100.73z" fill="#787878"/><path d="m116.29 423.77 34.21-47.51 39.92-4.1v6.95s-17.11 31.36-17.11 100.73v54.47 23.761 34.859l-57.31-11z" fill="#787878"/><path d="m190.42 188.09v71.28s-68.43 14.25-68.43-19.01c0-22.81 0-90.28 0-90.28h33.26v38.01z" fill="#787878"/><path d="m742.56 470.34v105.49h-31.36l-7.61-15.21-33.59 1.38-.35-.01 1.68-91.72 3.75.07z" fill="#787878"/><g fill="none"><path d="m695.04 177.64h-76.03v123.54 339.27 73.17 14.26s-70.319 11.4-157.75 28.51c-87.43 17.11-122.59 7.601-131.15-25.659-8.55-33.261-81.72-25.66-81.72-25.66v-28.511-55.12-317.41-8.55-121.64h-44.36-13.61v14.25 71.28 36.11 71.28 5.4 6.95s-17.11 31.36-17.11 100.73v54.47 23.761 34.859l-57.31-11-36.77-7.05 7.6 160.601 95.03-4.75v-29.461l61.77-24.71" stroke="#231f20" stroke-width="21"/><path d="m192 372-1.58.16-39.92 4.1-34.21 47.51-.29 158.16v.07" stroke="#231f20" stroke-width="21"/><path d="m182.12 462.08h19.96c6.56 0 11.88 5.32 11.88 11.88 0 3.28-1.33 6.26-3.48 8.4-2.15 2.149-5.12 3.479-8.4 3.479h-19.96" stroke="#231f20" stroke-width="14"/><path d="m179.31 534.31h19.96c6.56 0 11.88 5.32 11.88 11.881 0 3.279-1.33 6.25-3.48 8.399-2.15 2.15-5.12 3.48-8.4 3.48h-19.96" stroke="#231f20" stroke-width="14"/><path d="m170.46 595.78 4.75 125.45" stroke="#231f20" stroke-width="15.2052"/><path d="m195.17 295.48h53.22" stroke="#231f20" stroke-width="14"/><path d="m204 174 .03-.16 10.14-52.27 199.57-11.4 17.11-17.11 95.03-5.7 89.33 31.36 84.58 10.45 1.42 14.26 6.25 62.85.41 4.15" stroke="#231f20" stroke-width="21"/><path d="m420.69 324.64v31.96h-67.79v-31.96-10.91-15.58h67.79z" stroke="#231f20" stroke-width="21"/><path d="m420.69 324.64h-64.29" stroke="#231f20" stroke-width="21"/><path d="m324.71 410.36v31.95h-67.8v-31.95-10.91-15.59h67.8z" stroke="#231f20" stroke-width="21"/><path d="m324.71 410.36h-64.29" stroke="#231f20" stroke-width="21"/><path d="m518.58 324.64v31.96h-67.8v-31.96-10.91-15.58h67.8z" stroke="#231f20" stroke-width="21"/><path d="m518.58 324.64h-64.29" stroke="#231f20" stroke-width="21"/><path d="m613.61 409.52v31.95h-67.8v-31.95-10.91-15.58h67.8z" stroke="#231f20" stroke-width="21"/><path d="m613.61 409.52h-64.29" stroke="#231f20" stroke-width="21"/><path d="m217.98 143.43h114.04 102.63 266.56.36" stroke="#231f20" stroke-width="21"/><path d="m707.46 206.28c8.78 2.89 15.14 11.31 15.14 21.25 0 9.47-5.76 17.55-13.89 20.8-2.47 1-5.16 1.54-7.97 1.54-12.07 0-21.86-10-21.86-22.34 0-12.33 9.79-22.33 21.86-22.33 2.35 0 4.61.38 6.72 1.08z" stroke="#231f20" stroke-width="21"/><path d="m332.02 143.43v160.6 145.4 153.96" stroke="#231f20" stroke-width="21"/><path d="m434.65 143.43v306 153.96" stroke="#231f20" stroke-width="21"/><path d="m533.48 151.98v459.96" stroke="#231f20" stroke-width="21"/><path d="m256.94 181.44h32.31" stroke="#231f20" stroke-width="21"/><path d="m256.94 211.54h32.31" stroke="#231f20" stroke-width="21"/><path d="m256.94 241h32.31" stroke="#231f20" stroke-width="22.8078"/><path d="m342.47 170.35h32.31" stroke="#231f20" stroke-width="21"/><path d="m342.47 200.45h32.31" stroke="#231f20" stroke-width="21"/><path d="m342.47 229.91h32.31" stroke="#231f20" stroke-width="21"/><path d="m444.15 170.35h32.31" stroke="#231f20" stroke-width="21"/><path d="m444.15 200.45h32.31" stroke="#231f20" stroke-width="21"/><path d="m444.15 229.91h32.31" stroke="#231f20" stroke-width="21"/><path d="m542.99 177.96h32.31" stroke="#231f20" stroke-width="21"/><path d="m542.99 208.05h32.31" stroke="#231f20" stroke-width="21"/><path d="m542.99 237.51h32.31" stroke="#231f20" stroke-width="21"/><path d="m274.04 247.01v54.17" stroke="#231f20" stroke-width="21"/><path d="m461.26 232.76v54.17" stroke="#231f20" stroke-width="21"/><path d="m253.14 304.03h74.12" stroke="#231f20" stroke-width="21"/><path d="m363.38 236.56v56.07" stroke="#231f20" stroke-width="21"/><path d="m558.19 238.46v54.17" stroke="#231f20" stroke-width="21"/><path d="m543.94 301.18h75.07" stroke="#231f20" stroke-width="21"/><path d="m332.02 449.43h102.63 94.08" stroke="#231f20" stroke-width="21"/><path d="m190.42 259.37s-68.43 14.25-68.43-19.01c0-22.81 0-90.28 0-90.28h33.26v38.01h35.17" stroke="#231f20" stroke-width="21"/><path d="m254.09 621.44s75.07 0 85.53 28.51c10.45 28.51 38.01 41.819 95.979 28.51 57.971-13.3 171.061-42.76 183.41-38.01" stroke="#231f20" stroke-width="21"/><path d="m708.72 248.31-.01.02-15.57 55.7 22.33 22.34 11.88 11.88s2.08 18.95 1.931 39.93c-.08 11.38-.811 23.37-2.9 33.24-2.67 12.67-7.56 21.86-16.13 21.86-15.52 0-29.23 0-38.25 0-6.99 0-11.17 0-11.17 0v-55.12h64.62" stroke="#231f20" stroke-width="21"/><path d="m672 434-.67 36.27-1.68 91.72-1.22 66.11-49.42 85.52" stroke="#231f20" stroke-width="21"/><path d="m715.47 326.37h45.141s14.26 73.65-5.7 85.05-28.521 0-28.521 0" stroke="#231f20" stroke-width="21"/><path d="m675.08 470.34h67.48v105.49h-31.36l-7.61-15.21-33.59 1.38" stroke="#231f20" stroke-width="21"/><path d="m658.45 462.74c0 6.29-4.891 11.399-10.931 11.399-6.029 0-10.93-5.109-10.93-11.399 0-6.3 4.9-11.41 10.93-11.41 6.041 0 10.931 5.11 10.931 11.41z" stroke="#231f20" stroke-width="14"/><path d="m504.02 617.17c0 6.29-4.89 11.4-10.92 11.4-6.04 0-10.93-5.11-10.93-11.4 0-6.3 4.89-11.41 10.93-11.41 6.03 0 10.92 5.11 10.92 11.41z" stroke="#231f20" stroke-width="14"/><path d="m401.71 458.62v105.18c0 11.891-9.65 21.54-21.54 21.54-5.95 0-11.33-2.41-15.23-6.31s-6.31-9.29-6.31-15.23v-110.24" stroke="#231f20" stroke-width="14"/><path d="m505.61 458.62v105.18c0 11.891-9.65 21.54-21.54 21.54-5.95 0-11.34-2.41-15.24-6.31s-6.311-9.29-6.311-15.23v-110.24" stroke="#231f20" stroke-width="14"/><path d="m598.11 452.29v105.18c0 11.891-9.65 21.53-21.54 21.53-5.95 0-11.34-2.41-15.24-6.31-3.9-3.891-6.311-9.271-6.311-15.221v-110.239" stroke="#231f20" stroke-width="14"/><path d="m311.74 452.29v105.18c0 11.891-9.64 21.53-21.54 21.53-5.94 0-11.33-2.41-15.23-6.31-3.9-3.891-6.31-9.271-6.31-15.221v-110.239" stroke="#231f20" stroke-width="14"/><path d="m0 0h850.394v850.394h-850.394z"/></g></svg>