<svg enable-background="new 0 0 850.394 850.394" height="850.394" viewBox="0 0 850.394 850.394" width="850.394" xmlns="http://www.w3.org/2000/svg"><path d="m368 368.249h113.386v113.386h-113.386z" fill="none"/><path d="m466.88 256.44-43.28 410.89c0 45.43-62.91 82.25-140.51 82.25s-140.52-36.82-140.52-82.25l-43.36-411.55.22-.02c2.51 27.55 83.75 49.69 183.6 49.69 99.05 0 179.8-21.79 183.541-49.04z" fill="#faa41a"/><g fill="none"><path d="m476.14 168.55c0 1.07-.109 2.12-.33 3.17-5.909 28.14-89.93 50.44-192.72 50.44-102.8 0-186.83-22.3-192.74-50.44-.22-1.05-.33-2.1-.33-3.17 0-29.61 86.44-53.62 193.07-53.62 106.62 0 193.05 24.01 193.05 53.62z" stroke="#231f20" stroke-width="21"/><path d="m466.7 254.44c0 .66-.05 1.32-.13 1.97-3.74 27.25-84.49 49.04-183.541 49.04-99.85 0-181.09-22.14-183.6-49.69-.04-.44-.06-.88-.06-1.32" stroke="#231f20" stroke-width="21"/><path d="m90.02 168.55.33 3.17 8.86 84.06 43.36 411.55c0 45.43 62.92 82.25 140.52 82.25s140.51-36.82 140.51-82.25l43.28-410.89 8.93-84.72.33-3.17" stroke="#231f20" stroke-width="21"/><path d="m544.88 140.22c16.57 15.18 31.9 31.21 45.44 53.26 46.11-53.58 88.45-104.36 155.09-131.65" stroke="#231f20" stroke-linecap="round" stroke-linejoin="round" stroke-width="28"/><path d="m0 0h850.394v850.394h-850.394z"/><path d="m661.987 280.694-120.333.167" stroke="#000" stroke-linecap="round" stroke-linejoin="round" stroke-width="14"/><path d="m588.98 220.938-48.247 60.142 48.327 60.128" stroke="#000" stroke-linecap="round" stroke-linejoin="round" stroke-width="14"/><path d="m661.987 280.694v461.306" stroke="#000" stroke-linecap="round" stroke-linejoin="round" stroke-width="14"/><path d="m661.987 742h-44.289" stroke="#000" stroke-linecap="round" stroke-linejoin="round" stroke-width="14"/><path d="m661.987 519.347h-44.289" stroke="#000" stroke-linecap="round" stroke-linejoin="round" stroke-width="14"/><path d="m661.987 396.443h-44.289" stroke="#000" stroke-linecap="round" stroke-linejoin="round" stroke-width="14"/><path d="m661.987 455.224h-44.289" stroke="#000" stroke-linecap="round" stroke-linejoin="round" stroke-width="14"/><path d="m661.987 334.099h-44.289" stroke="#000" stroke-linecap="round" stroke-linejoin="round" stroke-width="14"/><path d="m661.987 624.439h-44.289" stroke="#000" stroke-linecap="round" stroke-linejoin="round" stroke-width="14"/><path d="m661.987 571.001h-44.289" stroke="#000" stroke-linecap="round" stroke-linejoin="round" stroke-width="14"/><path d="m661.987 681.438h-44.289" stroke="#000" stroke-linecap="round" stroke-linejoin="round" stroke-width="14"/></g></svg>