<svg enable-background="new 0 0 850.394 850.394" height="850.394" viewBox="0 0 850.394 850.394" width="850.394" xmlns="http://www.w3.org/2000/svg"><path d="m466.001 161.579h-361.074v553.139h361.073" fill="none"/><g fill="#5668af"><path d="m422.37 125.849c-19.736 0-35.73 16.001-35.73 35.732 0 19.736 15.994 35.728 35.73 35.728 19.737 0 35.733-15.991 35.733-35.728 0-19.731-15.997-35.732-35.733-35.732z"/><path d="m343.008 125.849c-19.736 0-35.73 16.001-35.73 35.732 0 19.736 15.994 35.728 35.73 35.728s35.732-15.991 35.732-35.728c.001-19.731-15.995-35.732-35.732-35.732z"/><path d="m263.647 125.849c-19.736 0-35.73 16.001-35.73 35.732 0 19.736 15.994 35.728 35.73 35.728s35.732-15.991 35.732-35.728c.001-19.731-15.995-35.732-35.732-35.732z"/><path d="m184.286 125.849c-19.736 0-35.73 16.001-35.73 35.732 0 19.736 15.994 35.728 35.73 35.728s35.732-15.991 35.732-35.728c.001-19.731-15.996-35.732-35.732-35.732z"/><path d="m69.197 240.599c0 19.736 16.001 35.73 35.732 35.73 19.736 0 35.728-15.994 35.728-35.73s-15.991-35.732-35.728-35.732c-19.731-.001-35.732 15.995-35.732 35.732z"/><path d="m69.197 319.619c0 19.736 16.001 35.73 35.732 35.73 19.736 0 35.728-15.994 35.728-35.73s-15.991-35.732-35.728-35.732c-19.731 0-35.732 15.996-35.732 35.732z"/><path d="m69.197 398.639c0 19.736 16.001 35.73 35.732 35.73 19.736 0 35.728-15.994 35.728-35.73s-15.991-35.732-35.728-35.732c-19.731 0-35.732 15.996-35.732 35.732z"/><path d="m69.197 477.659c0 19.736 16.001 35.73 35.732 35.73 19.736 0 35.728-15.994 35.728-35.73s-15.991-35.732-35.728-35.732c-19.731 0-35.732 15.996-35.732 35.732z"/><path d="m69.197 556.68c0 19.736 16.001 35.73 35.732 35.73 19.736 0 35.728-15.994 35.728-35.73s-15.991-35.732-35.728-35.732c-19.731-.001-35.732 15.995-35.732 35.732z"/><path d="m69.197 635.7c0 19.736 16.001 35.729 35.732 35.729 19.736 0 35.728-15.993 35.728-35.729s-15.991-35.732-35.728-35.732c-19.731 0-35.732 15.996-35.732 35.732z"/><path d="m184.288 750.447c19.736 0 35.73-16 35.73-35.732 0-19.736-15.994-35.727-35.73-35.727s-35.732 15.99-35.732 35.727c0 19.732 15.996 35.732 35.732 35.732z"/><path d="m263.649 750.447c19.736 0 35.73-16 35.73-35.732 0-19.736-15.994-35.727-35.73-35.727s-35.732 15.99-35.732 35.727c0 19.732 15.996 35.732 35.732 35.732z"/><path d="m343.01 750.447c19.736 0 35.73-16 35.73-35.732 0-19.736-15.994-35.727-35.73-35.727s-35.732 15.99-35.732 35.727c0 19.732 15.996 35.732 35.732 35.732z"/><path d="m422.372 750.447c19.736 0 35.73-16 35.73-35.732 0-19.736-15.994-35.727-35.73-35.727s-35.732 15.99-35.732 35.727c-.001 19.732 15.995 35.732 35.732 35.732z"/><path d="m140.657 161.58c0 19.736-16.001 35.729-35.732 35.729-19.736 0-35.728-15.993-35.728-35.729s15.991-35.732 35.728-35.732c19.731 0 35.732 15.996 35.732 35.732z"/><path d="m104.929 678.988c19.736 0 35.729 16 35.729 35.732 0 19.736-15.993 35.727-35.729 35.727s-35.732-15.99-35.732-35.727c-.001-19.732 15.995-35.732 35.732-35.732z"/></g><path d="m0 0h850.394v850.394h-850.394z" fill="none"/><path d="m648 385.727h114.33v114.325h-114.33z" fill="none"/><circle cx="762.33" cy="423.835" fill="#5668af" r="14.292"/><circle cx="762.33" cy="461.944" fill="#5668af" r="14.292"/><circle cx="724.22" cy="500.052" fill="#5668af" r="14.292"/><circle cx="686.109" cy="500.052" fill="#5668af" r="14.292"/><circle cx="648" cy="461.943" fill="#5668af" r="14.292"/><circle cx="648" cy="423.834" fill="#5668af" r="14.292"/><circle cx="686.11" cy="385.727" fill="#5668af" r="14.292"/><circle cx="724.221" cy="385.727" fill="#5668af" r="14.292"/><circle cx="762.33" cy="500.052" fill="#5668af" r="14.292"/><circle cx="648" cy="500.051" fill="#5668af" r="14.292"/><circle cx="648" cy="385.727" fill="#5668af" r="14.292"/><circle cx="762.33" cy="385.727" fill="#5668af" r="14.292"/><path d="m611.964 441.436-289.74.86" fill="#fff" stroke="#231f20" stroke-width="28"/><path d="m417.209 526.754-96.823-84.767 96.468-85.312" fill="none" stroke="#231f20" stroke-width="28"/><path d="m0 0h850.394v850.394h-850.394z" fill="none"/></svg>