<svg enable-background="new 0 0 850.394 850.394" height="850.394" viewBox="0 0 850.394 850.394" width="850.394" xmlns="http://www.w3.org/2000/svg"><path d="m336.4 523.76v.48 68.5h-17.9-9.87v-68.5-.57z" fill="#c8c8c8"/><path d="m308.63 523.67v.57 68.5h-15.63v-69.12z" fill="#c8c8c8"/><path d="m479.36 434.82 31.609-38.23 20.63-22.22h-2.27l2.72-3.29h2.851l15.2-18.78 40.74-50.33h-1.66l4.971-6.01 53.54-64.78 2.89-3.49 51.419-62.21 28.18-34.09 29.42 9.81-309.3 374.18c-24.55 27.59-26.53 71.67-2.51 105.9 8.58 12.239 34.35 26 61.44 26.439-24.53-.149-43.801-2.97-59.391-10.2-12.42-5.75-22.52-14.3-31.09-26.52-2.06-2.94-3.93-5.95-5.6-9.01l-.02-.17h-.08c-1.62-2.98-3.07-6.011-4.33-9.08-9.46-22.82-9.15-47.7.12-68.36 1.23-2.75 2.61-5.42 4.16-8h2.84l19.09-23.26 40.73-49.64h-3.45z" fill="#797878"/><path d="m566.37 232.23h-28.39-27.77-27.76-25.31v69.12h25.311 27.76 27.771 28.39 19.54l8.24-10.26v4.87l-4.971 6.01h-39.26-27.78-28.39-27.76-27.771-21.81v69.11h21.81 27.771 27.76 28.39 9.91l-2.72 3.29h-49.97-28.391-27.77-27.77-20.16v69.11h-24.27-21.8v72.899h21.8 27.77 27.77 6.46c-1.55 2.58-2.93 5.25-4.16 8l-.84-.379-15.45-.05-28.38-.09-27.77-.101-27.77-.09-15.63-.049v69.12h-2.27v9.08h-27.77-12.75v44.64c-26.87-.14-54.23-13.9-71.85-39.02-24.02-34.23-22.04-78.311 2.51-105.891l310.58-375.72 60.55 32.171v4.07h-13.12-25.3v69.11h25.3 27.771 27.77v.42.63h-.27z" fill="#fff5b4"/><path d="m392.55 592.74h-17.89-10.49v-68.5-.38l28.38.09z" fill="#c8c8c8"/><path d="m364.17 524.24v68.5h-17.28-10.49v-68.5-.48l27.77.1z" fill="#c8c8c8"/><path d="m408.72 592.74h-6.29-9.88v-68.79l15.45.05.84.38c-9.27 20.66-9.58 45.54-.12 68.36z" fill="#fff"/><path d="m702 165.48-51.42 62.21v-65.61-.01h47.3z" fill="#c8c8c8"/><path d="m650.58 162.08v65.61l-2.89 3.49h-24.88v-69.1-.01h27.77z" fill="#c8c8c8"/><path d="m622.81 162.08v69.1h-28.39v-68.69-.42h28.39z" fill="#c8c8c8"/><path d="m594.42 162.49v68.69h-27.77v-68.69-.42h27.77z" fill="#c8c8c8"/><path d="m538.88 162.49v68.69h-25.3v-69.11h25.3z" fill="#c8c8c8"/><path d="m566.65 162.49v68.69h-27.77v-68.69-.42h13.12 14.65z" fill="#c8c8c8"/><path d="m449.84 637.52-.59 1.24-31.18 12.9-.34-.83-4.58-48.84c1.67 3.06 3.54 6.069 5.6 9.01 8.57 12.22 18.67 20.77 31.09 26.52z" fill="#c8c8c8"/><path d="m417.73 650.83.34.83-169.07 69.95-175.38-8.04 176.59-62.74h12.75 27.77 27.77 28.39 27.77 27.77z" fill="#797878"/><path d="m762 142-2 496 .04 4.29-183.73 1.82c-25.399 2.21-47.09 3.67-65.76 3.62-.439 0-.88 0-1.319-.011-27.091-.439-52.86-14.2-61.44-26.439-24.02-34.23-22.04-78.311 2.51-105.9l309.299-374.18z" fill="#abd150"/><path d="m594.15 232.24v-.01h.27 47.02l-47.29 58.86z" fill="#c8c8c8"/><path d="m590.84 301.97-40.74 50.33-.18-.14v-2.7l39.26-47.49z" fill="#fff"/><path d="m549.92 301.97h39.26l-39.26 47.49v-46.46z" fill="#c8c8c8"/><path d="m566.37 232.24v-.01h27.78v.01 58.85l-8.24 10.26h-19.54z" fill="#c8c8c8"/><path d="m550.1 352.3-15.2 18.78h-2.85l17.87-21.62v2.7z" fill="#fff"/><path d="m549.92 303v46.46l-17.87 21.62h-9.91v-68.08-1.03h27.78z" fill="#c8c8c8"/><path d="m537.98 232.23h28.39v.01 69.11h-28.39v-68.7z" fill="#c8c8c8"/><path d="m531.6 374.37-20.63 22.22 18.36-22.22z" fill="#fff"/><path d="m529.33 374.37-18.36 22.22-31.61 34.03v-54.39-1.86z" fill="#c8c8c8"/><path d="m522.14 303v68.08h-28.39v-67.67-1.44h28.39z" fill="#c8c8c8"/><path d="m510.21 232.23h27.77v.42 68.7h-27.77v-68.7z" fill="#c8c8c8"/><path d="m510.21 232.65v68.7h-27.76v-68.7-.42h27.76z" fill="#c8c8c8"/><path d="m493.75 303.41v67.67h-27.76v-67.67-1.44h27.76z" fill="#c8c8c8"/><path d="m482.45 232.65v68.7h-25.31v-69.12h25.31z" fill="#c8c8c8"/><path d="m479.36 376.23v54.39l-11.94 12.86h-16.45v-66.84-2.27h28.39z" fill="#c8c8c8"/><path d="m475.66 443.48-40.73 49.64v-4.55l37.28-45.09z" fill="#fff"/><path d="m450.97 443.48h16.45 4.79l-37.28 45.09v-44.87-.22z" fill="#c8c8c8"/><path d="m465.99 303.41v67.67h-27.77v-67.67-1.44h27.77z" fill="#c8c8c8"/><path d="m450.97 376.64v66.84h-16.04-11.73v-66.84-2.27h27.77z" fill="#c8c8c8"/><path d="m438.22 303.41v67.67h-21.81v-69.11h21.81z" fill="#c8c8c8"/><path d="m423.2 443.48h11.729v.22 44.87l-13.659 16.53c-3.13 3.511-5.88 7.29-8.27 11.28h-6.46v-3.16-69.11-.63z" fill="#c8c8c8"/><path d="m423.2 376.64v66.84h-16.66-11.11v-66.84-2.27h27.77z" fill="#c8c8c8"/><path d="m413.15 601.99 4.58 48.84h-15.3v-.41-48.6h10.62c.03.06.06.11.1.17z" fill="#c8c8c8"/><path d="m413 516.38c2.39-3.99 5.14-7.77 8.27-11.28l13.66-16.529v4.55l-19.09 23.26h-2.84z" fill="#fff"/><path d="m413.13 601.82.02.17c-.04-.061-.07-.11-.1-.17z" fill="#fff"/><path d="m395.43 443.48h11.11v.63 69.11 3.16h-27.77v-3.16-69.11-.63z" fill="#c8c8c8"/><path d="m402.43 650.42v.41h-27.77v-.41-48.6h27.77z" fill="#c8c8c8"/><path d="m395.43 376.64v66.84h-16.66-3.5v-69.11h20.16z" fill="#c8c8c8"/><path d="m378.77 444.11v69.11 3.16h-27.77v-3.16-69.11-.63h24.27 3.5z" fill="#c8c8c8"/><path d="m374.66 650.42v.41h-27.77v-.41-48.6h27.77z" fill="#c8c8c8"/><path d="m351 513.22v3.16h-21.8v-72.9h21.8v.63z" fill="#c8c8c8"/><path d="m346.89 650.42v.41h-28.39v-49.01h28.39z" fill="#c8c8c8"/><path d="m290.73 601.82h27.77v49.01h-27.77z" fill="#c8c8c8"/><path d="m262.96 601.82h27.77v49.01h-27.77z" fill="#c8c8c8"/><path d="m262.96 601.82v49.01h-12.75v-4.37-44.64z" fill="#c8c8c8"/><g fill="none"><path d="m417.73 650.83h-15.3-27.77-27.77-28.39-27.77-27.77-12.75v-4.37-44.64h12.75 27.77 27.77 28.39 27.77 27.77 10.62.08" stroke="#231f20" stroke-width="16.5402"/><path d="m409.83 592.74h-1.11-6.29-9.88-17.89-10.49-17.28-10.49-17.9-9.87-15.63v-69.12l15.63.05 27.77.09 27.77.1 28.38.09 15.45.05" stroke="#231f20" stroke-width="16.5402"/><path d="m467.42 443.48h4.79 3.45" stroke="#231f20" stroke-width="16.5402"/><path d="m415.84 516.38h-2.84-6.46-27.77-27.77-21.8v-72.9h21.8 24.27" stroke="#231f20" stroke-width="16.5402"/><path d="m467.42 443.48h-16.45-16.04-11.73-16.66-11.11-16.66-3.5v-69.11h20.16 27.77 27.77 28.39 49.97 2.27" stroke="#231f20" stroke-width="16.5402"/><path d="m534.9 371.08h-2.85-9.91-28.39-27.76-27.77-21.81v-69.11h21.81 27.77 27.76 28.39 27.78 39.26 1.66" stroke="#231f20" stroke-width="16.5402"/><path d="m585.91 301.35h-19.54-28.39-27.77-27.76-25.31v-69.12h25.31 27.76 27.77 28.39 27.78.27 47.02" stroke="#231f20" stroke-width="16.5402"/><path d="m250.21 650.83-176.59 62.74 175.38 8.04 169.07-69.95 31.18-12.9" stroke="#231f20" stroke-width="16.5402"/><path d="m250.21 646.46c-26.87-.14-54.23-13.9-71.85-39.02-24.02-34.23-22.04-78.311 2.51-105.891l310.58-375.72 1.399-1.69" stroke="#231f20" stroke-width="22.0537"/><path d="m510.55 647.73c18.67.05 40.36-1.41 65.76-3.62l183.73-1.82 1.89-.021" stroke="#231f20" stroke-width="22.0537"/><path d="m733.24 127.69-3.061 3.7-28.179 34.09-51.42 62.21-2.89 3.49-53.54 64.78-4.971 6.01-39.26 47.49-17.87 21.62-2.72 3.29-18.36 22.22-31.609 38.23-7.15 8.66-37.28 45.09-13.66 16.53c-3.13 3.511-5.88 7.29-8.27 11.28-1.55 2.58-2.93 5.25-4.16 8-9.27 20.66-9.58 45.54-.12 68.36 1.26 3.069 2.71 6.1 4.33 9.08.03.06.06.109.1.17 1.67 3.06 3.54 6.069 5.6 9.01 8.57 12.22 18.67 20.77 31.09 26.52 15.59 7.23 34.86 10.051 59.391 10.2" stroke="#231f20" stroke-width="22.0537"/><path d="m762.27 137.97-2.67 3.23-309.3 374.18c-24.55 27.59-26.53 71.67-2.51 105.9 8.58 12.239 34.35 26 61.44 26.439.439.011.88.011 1.319.011" stroke="#231f20" stroke-width="22.0537"/><path d="m262.96 598.25v3.57 49.01" stroke="#231f20" stroke-width="5.5134"/><path d="m290.73 581.71v11.03 9.08 49.01" stroke="#231f20" stroke-width="5.5134"/><path d="m318.5 598.25v3.57 49.01" stroke="#231f20" stroke-width="5.5134"/><path d="m346.89 592.33v.41 9.08 48.6" stroke="#231f20" stroke-width="5.5134"/><path d="m374.66 592.33v.41 9.08 48.6" stroke="#231f20" stroke-width="5.5134"/><path d="m402.43 581.3v11.44 9.08 48.6" stroke="#231f20" stroke-width="5.5134"/><path d="m308.63 524.24v68.5.62" stroke="#231f20" stroke-width="5.5134"/><path d="m336.4 524.24v68.5.62" stroke="#231f20" stroke-width="5.5134"/><path d="m364.17 524.24v68.5.62" stroke="#231f20" stroke-width="5.5134"/><path d="m392.55 523.83v.12 68.79.21" stroke="#231f20" stroke-width="5.5134"/><path d="m351 444.11v69.11" stroke="#231f20" stroke-width="5.5134"/><path d="m378.77 444.11v69.11" stroke="#231f20" stroke-width="5.5134"/><path d="m406.54 444.11v69.11" stroke="#231f20" stroke-width="5.5134"/><path d="m434.93 443.7v44.87 4.55.55" stroke="#231f20" stroke-width="5.5134"/><path d="m395.43 376.64v66.84 2.28" stroke="#231f20" stroke-width="5.5134"/><path d="m423.2 376.64v66.84 2.28" stroke="#231f20" stroke-width="5.5134"/><path d="m450.97 376.64v66.84 2.28" stroke="#231f20" stroke-width="5.5134"/><path d="m479.36 376.23v54.39 4.2 10.53" stroke="#231f20" stroke-width="5.5134"/><path d="m438.22 303.41v67.67 1.45" stroke="#231f20" stroke-width="5.5134"/><path d="m465.99 303.41v67.67 1.45" stroke="#231f20" stroke-width="5.5134"/><path d="m493.75 303.41v67.67 1.45" stroke="#231f20" stroke-width="5.5134"/><path d="m522.14 303v68.08 1.04" stroke="#231f20" stroke-width="5.5134"/><path d="m549.92 303v46.46 2.7" stroke="#231f20" stroke-width="5.5134"/><path d="m482.45 232.65v68.7.42" stroke="#231f20" stroke-width="5.5134"/><path d="m510.21 232.65v68.7.42" stroke="#231f20" stroke-width="5.5134"/><path d="m537.98 232.65v68.7.42" stroke="#231f20" stroke-width="5.5134"/><path d="m566.37 232.24v69.11.01" stroke="#231f20" stroke-width="5.5134"/><path d="m594.15 232.24v58.85 4.87 5.4" stroke="#231f20" stroke-width="5.5134"/><path d="m647.86 231.18h-.17-24.88-28.39-27.77-27.77-25.3v-69.11h25.3 13.12 14.65 27.77 28.39 27.77 47.3" stroke="#231f20" stroke-width="16.5402"/><path d="m538.88 162.49v68.69.42" stroke="#231f20" stroke-width="5.5134"/><path d="m566.65 162.49v68.69.42" stroke="#231f20" stroke-width="5.5134"/><path d="m594.42 162.49v68.69.42" stroke="#231f20" stroke-width="5.5134"/><path d="m622.81 162.08v69.1.01" stroke="#231f20" stroke-width="5.5134"/><path d="m650.58 162.08v65.61 3.5" stroke="#231f20" stroke-width="5.5134"/><path d="m0 0h850.394v850.394h-850.394z"/></g></svg>