<svg enable-background="new 0 0 850.394 850.394" height="850.394" viewBox="0 0 850.394 850.394" width="850.394" xmlns="http://www.w3.org/2000/svg"><path d="m466.001 183.579h-361.074v508.139h361.073" fill="none"/><g fill="#5668af"><path d="m422.37 147.849c-19.736 0-35.73 16.001-35.73 35.732 0 19.736 15.994 35.728 35.73 35.728 19.737 0 35.733-15.991 35.733-35.728 0-19.731-15.997-35.732-35.733-35.732z"/><path d="m343.008 147.849c-19.736 0-35.73 16.001-35.73 35.732 0 19.736 15.994 35.728 35.73 35.728s35.732-15.991 35.732-35.728c.001-19.731-15.995-35.732-35.732-35.732z"/><path d="m263.647 147.849c-19.736 0-35.73 16.001-35.73 35.732 0 19.736 15.994 35.728 35.73 35.728s35.732-15.991 35.732-35.728c.001-19.731-15.995-35.732-35.732-35.732z"/><path d="m184.286 147.849c-19.736 0-35.73 16.001-35.73 35.732 0 19.736 15.994 35.728 35.73 35.728s35.732-15.991 35.732-35.728c.001-19.731-15.996-35.732-35.732-35.732z"/><path d="m69.197 256.17c0 19.736 16.001 35.73 35.732 35.73 19.736 0 35.728-15.994 35.728-35.73s-15.991-35.732-35.728-35.732c-19.731 0-35.732 15.996-35.732 35.732z"/><path d="m69.197 328.762c0 19.736 16.001 35.73 35.732 35.73 19.736 0 35.728-15.994 35.728-35.73s-15.991-35.732-35.728-35.732c-19.731-.001-35.732 15.995-35.732 35.732z"/><path d="m69.197 401.354c0 19.736 16.001 35.73 35.732 35.73 19.736 0 35.728-15.994 35.728-35.73s-15.991-35.732-35.728-35.732c-19.731-.001-35.732 15.995-35.732 35.732z"/><path d="m69.197 473.945c0 19.736 16.001 35.729 35.732 35.729 19.736 0 35.728-15.993 35.728-35.729s-15.991-35.732-35.728-35.732c-19.731 0-35.732 15.996-35.732 35.732z"/><path d="m69.197 546.537c0 19.736 16.001 35.729 35.732 35.729 19.736 0 35.728-15.993 35.728-35.729s-15.991-35.732-35.728-35.732c-19.731 0-35.732 15.996-35.732 35.732z"/><path d="m69.197 619.129c0 19.736 16.001 35.729 35.732 35.729 19.736 0 35.728-15.993 35.728-35.729s-15.991-35.732-35.728-35.732c-19.731-.001-35.732 15.996-35.732 35.732z"/><path d="m184.288 727.447c19.736 0 35.73-16 35.73-35.732 0-19.736-15.994-35.727-35.73-35.727s-35.732 15.99-35.732 35.727c0 19.732 15.996 35.732 35.732 35.732z"/><path d="m263.649 727.447c19.736 0 35.73-16 35.73-35.732 0-19.736-15.994-35.727-35.73-35.727s-35.732 15.99-35.732 35.727c0 19.732 15.996 35.732 35.732 35.732z"/><path d="m343.01 727.447c19.736 0 35.73-16 35.73-35.732 0-19.736-15.994-35.727-35.73-35.727s-35.732 15.99-35.732 35.727c0 19.732 15.996 35.732 35.732 35.732z"/><path d="m422.372 727.447c19.736 0 35.73-16 35.73-35.732 0-19.736-15.994-35.727-35.73-35.727s-35.732 15.99-35.732 35.727c-.001 19.732 15.995 35.732 35.732 35.732z"/><path d="m140.657 183.58c0 19.736-16.001 35.729-35.732 35.729-19.736 0-35.728-15.993-35.728-35.729s15.991-35.732 35.728-35.732c19.731 0 35.732 15.996 35.732 35.732z"/><path d="m104.929 655.988c19.736 0 35.729 16 35.729 35.732 0 19.736-15.993 35.727-35.729 35.727s-35.732-15.99-35.732-35.727c-.001-19.732 15.995-35.732 35.732-35.732z"/></g><path d="m0 0h850.394v850.394h-850.394z" fill="none"/><path d="m264 392.727h114.33v114.325h-114.33z" fill="none"/><circle cx="378.33" cy="430.835" fill="#5668af" r="14.292"/><circle cx="378.33" cy="468.944" fill="#5668af" r="14.292"/><circle cx="340.22" cy="507.052" fill="#5668af" r="14.292"/><circle cx="302.109" cy="507.052" fill="#5668af" r="14.292"/><circle cx="264" cy="468.943" fill="#5668af" r="14.292"/><circle cx="264" cy="430.834" fill="#5668af" r="14.292"/><circle cx="302.11" cy="392.727" fill="#5668af" r="14.292"/><circle cx="340.221" cy="392.727" fill="#5668af" r="14.292"/><circle cx="378.33" cy="507.052" fill="#5668af" r="14.292"/><circle cx="264" cy="507.051" fill="#5668af" r="14.292"/><circle cx="264" cy="392.727" fill="#5668af" r="14.292"/><circle cx="378.33" cy="392.727" fill="#5668af" r="14.292"/><path d="m443.885 449.804 289.74-.566" fill="#fff" stroke="#231f20" stroke-width="28"/><path d="m638.726 364.684 96.737 84.865-96.555 85.215" fill="none" stroke="#231f20" stroke-width="28"/><path d="m0 0h850.394v850.394h-850.394z" fill="none"/></svg>