<svg enable-background="new 0 0 850.394 850.394" height="850.394" viewBox="0 0 850.394 850.394" width="850.394" xmlns="http://www.w3.org/2000/svg" xmlns:xlink="http://www.w3.org/1999/xlink"><pattern id="a" height="72" patternUnits="userSpaceOnUse" viewBox="28.856 -76.621 71.999 72" width="71.999" x="368" y="480.385"><path d="m28.856-4.621v-72h71.999v72z" fill="none"/><path d="m5.106-10.621 6 6" fill="#fff"/><path d="m5.106-4.621 6-6" fill="#fff"/><path d="m21.372-66.105 17.999-18" fill="none" stroke="#231f20" stroke-linejoin="round" stroke-width=".3"/><path d="m21.372-60.105 23.999-24" fill="none" stroke="#231f20" stroke-linejoin="round" stroke-width=".3"/><path d="m21.372-54.105 29.999-30" fill="none" stroke="#231f20" stroke-linejoin="round" stroke-width=".3"/><path d="m21.372-48.105 35.999-36" fill="none" stroke="#231f20" stroke-linejoin="round" stroke-width=".3"/><path d="m21.372-42.105 41.999-42" fill="none" stroke="#231f20" stroke-linejoin="round" stroke-width=".3"/><path d="m21.372-36.105 47.999-48" fill="none" stroke="#231f20" stroke-linejoin="round" stroke-width=".3"/><path d="m21.372-30.105 53.999-54" fill="none" stroke="#231f20" stroke-linejoin="round" stroke-width=".3"/><path d="m21.372-24.105 59.999-60" fill="none" stroke="#231f20" stroke-linejoin="round" stroke-width=".3"/><path d="m21.372-18.105 65.999-66" fill="none" stroke="#231f20" stroke-linejoin="round" stroke-width=".3"/><path d="m21.372-12.105 71.999-72" fill="none" stroke="#231f20" stroke-linejoin="round" stroke-width=".3"/><path d="m21.372-6.105 77.999-78" fill="none" stroke="#231f20" stroke-linejoin="round" stroke-width=".3"/><path d="m21.372-.106 83.999-83.999" fill="none" stroke="#231f20" stroke-linejoin="round" stroke-width=".3"/><path d="m27.372-.106 77.999-77.999" fill="none" stroke="#231f20" stroke-linejoin="round" stroke-width=".3"/><path d="m33.371-.106 72-71.999" fill="none" stroke="#231f20" stroke-linejoin="round" stroke-width=".3"/><path d="m39.371-.106 66-65.999" fill="none" stroke="#231f20" stroke-linejoin="round" stroke-width=".3"/><path d="m45.371-.106 60-59.999" fill="none" stroke="#231f20" stroke-linejoin="round" stroke-width=".3"/><path d="m51.371-.106 54-53.999" fill="none" stroke="#231f20" stroke-linejoin="round" stroke-width=".3"/><path d="m57.371-.106 48-47.999" fill="none" stroke="#231f20" stroke-linejoin="round" stroke-width=".3"/><path d="m63.371-.106 42-41.999" fill="none" stroke="#231f20" stroke-linejoin="round" stroke-width=".3"/><path d="m69.371-.106 36-35.999" fill="none" stroke="#231f20" stroke-linejoin="round" stroke-width=".3"/><path d="m75.371-.106 30-29.999" fill="none" stroke="#231f20" stroke-linejoin="round" stroke-width=".3"/><path d="m81.371-.106 24-23.999" fill="none" stroke="#231f20" stroke-linejoin="round" stroke-width=".3"/><path d="m87.371-.106 18-17.999" fill="none" stroke="#231f20" stroke-linejoin="round" stroke-width=".3"/><path d="m93.371-.106 12-11.999" fill="none" stroke="#231f20" stroke-linejoin="round" stroke-width=".3"/><path d="m.106-63.121 10-10" fill="none" stroke="#231f20" stroke-linejoin="bevel" stroke-width=".3"/></pattern><pattern id="b" patternTransform="matrix(6.7617 0 0 6.7617 48373.2891 45342.6055)" xlink:href="#a"/><path d="m590.19 404.2h160.59v238.35h-160.59z" fill="#abd150"/><path d="m513 221.35h16.62v51.45l-98.97 126.51v4.81h-61.62v-69.34h1.13l90.3-113.43z" fill="#58b947"/><path d="m529.62 340.26v63.86h-.5-44.6v-4.58-.01l44.37-58.32c.27-.36.52-.67.73-.95z" fill="#58b947"/><path d="m529.62 404.12v238.14h-160.59v-238.14h61.62 53.87 44.6z" fill="#abd150"/><path d="m528.89 341.21-44.37 58.32c0-.62 35.91-47.33 44.37-58.32z" fill="url(#b)"/><path d="m529.62 340.25v.01c-.21.28-.46.59-.73.95-8.46 10.99-44.37 57.7-44.37 58.32v.01 4.58h-53.87v-4.81l98.97-126.51z" fill="#58b947"/><path d="m460.46 221.35-90.3 113.43h-1.13v-71.55h2.45l31.38-39.54v-2.34z" fill="#58b947"/><path d="m402.86 221.35v2.34l-31.38 39.54h-2.45v-41.88z" fill="#58b947"/><g fill="none"><path d="m529.62 340.26v63.86 238.14h-160.59v-238.14-69.34-71.55-41.88h33.83 57.6 52.54 16.62v51.45 67.45" stroke="#231f20" stroke-width="21"/><path d="m590.19 404.2h160.59v238.35h-160.59z" stroke="#231f20" stroke-width="21"/><path d="m376 404-6.97.12h61.62 53.87 44.6" stroke="#231f20" stroke-width="21"/><path d="m371.48 263.23 31.38-39.54" stroke="#231f20" stroke-width="14"/><path d="m370.16 334.78 90.3-113.43.06-.08" stroke="#231f20" stroke-width="14"/><path d="m375.07 397.12 137.93-175.77.45-.57" stroke="#231f20" stroke-width="14"/><path d="m430.65 399.31 98.97-126.51.66-.84" stroke="#231f20" stroke-width="14"/><path d="m530 339.76c.09-.13.18-.24.25-.33" stroke="#231f20" stroke-width="14"/><path d="m484.52 399.53c0-.62 35.91-47.33 44.37-58.32.271-.36.521-.67.73-.95v-.01c.08-.11.16-.21.229-.3" stroke="#231f20" stroke-width="14"/><path d="m484.52 399.53v.01" stroke="#231f20" stroke-width="14"/><path d="m530 339.76-.15.19" stroke="#231f20" stroke-width="14"/><path d="m530.25 339.43.4-.52" stroke="#231f20" stroke-width="14"/><path d="m0 0h850.394v850.394h-850.394z"/><path d="m126 223.745 191.259.241" stroke="#000" stroke-linecap="round" stroke-linejoin="round" stroke-width="16.349"/><path d="m242.04 136.938 76.681 87.37-76.812 87.348" stroke="#000" stroke-linecap="round" stroke-linejoin="round" stroke-width="16.349"/><path d="m126 223.745v168.151" stroke="#000" stroke-linecap="round" stroke-linejoin="round" stroke-width="16.349"/><path d="m126 391.896h70.394" stroke="#000" stroke-linecap="round" stroke-linejoin="round" stroke-width="16.349"/><path d="m126 301.328h70.394" stroke="#000" stroke-linecap="round" stroke-linejoin="round" stroke-width="16.349"/></g></svg>