<svg enable-background="new 0 0 850.394 850.394" height="850.394" viewBox="0 0 850.394 850.394" width="850.394" xmlns="http://www.w3.org/2000/svg"><path d="m538.701 136.016c9.288 5.972 16.942 12.274 20.608 18.392-28.953 31.531-68.771 69.792-68.771 69.792l-80.811 38.222 2.665-21.649 81.151-57.07 42.453-43.698z" fill="#c8c8c8"/><path d="m412.393 240.772 1.663-13.577s2.247-65.24 49.494-112.478c3.404-3.404 6.662-6.662 9.746-9.755 0 0 39.224 14.219 65.405 31.054l-2.704 3.988-42.453 43.698z" fill="#c8c8c8"/><path d="m559.31 154.408c-3.666-6.118-11.32-12.42-20.608-18.392-26.182-16.835-65.405-31.054-65.405-31.054 28.943-28.943 44.242-44.242 44.242-44.242s80.188 46.285 63.985 67.74c-5.379 7.128-13.276 16.212-22.214 25.948z" fill="#c8c8c8"/><path d="m464.844 586.122c4.931-27.241 24.879-50.573 53.229-58.334 6.507-1.78 13.043-2.626 19.472-2.626 32.62 0 62.546 21.805 71.64 54.96l11.379 41.597c10.863 39.7-12.313 80.626-51.751 91.432-1.565.428-3.132.797-4.697 1.118.612-2.373-.078-4.62-3.316-6.74-3.832-2.519-16.311 6.905-21.688 7.528-2.606-.37-5.174-.876-7.703-1.508-.02-.01-.038-.01-.058-.02-5.136-1.565-9.58-3.852-15.309-5.981-10.057-3.744-37.24-53.608-30.636-34.556h-2.023c.729 1.965 1.508 4.183 2.334 6.595-3.433-5.729-6.156-12.021-8.004-18.78l-11.379-41.598c-3.056-11.165-3.426-22.427-1.49-33.087zm97.305 98.823c27.349-7.498 43.436-35.878 35.897-63.421l-7.896-28.847c-6.293-23.001-27.067-38.125-49.68-38.125-4.464 0-8.996.584-13.499 1.818-27.378 7.489-43.444 35.879-35.907 63.412l7.897 28.847c6.292 23.011 27.066 38.135 49.698 38.135 4.455.001 8.987-.593 13.49-1.819z" fill="#c8c8c8"/><path d="m576.223 781.211c9.074 9.074-14.005 5.028-19.957 2.889-15.639-5.642-29.274-15.387-39.535-28.37-12.099-15.318-23.458-54.056-31.016-76.143 10.231 17.078 26.805 29.177 45.634 33.942.02.01.038.01.058.02 2.092.642 4.289 1.167 6.74 1.508.282.039.604.039.963 0 3.365.477 6.788.72 10.241.72 4.882 0 9.823-.486 14.764-1.508-1.089 4.338-6.507 9.074-8.529 14.151-4.173 10.445-5.485 22.184 1.702 31.754 5.261 7.013 14.51 16.611 18.935 21.037z" fill="#c8c8c8"/><path d="m560.798 707.528c3.238 2.12 3.929 4.367 3.316 6.74-4.94 1.021-9.882 1.508-14.764 1.508-3.453 0-6.876-.243-10.241-.72 5.378-.622 17.857-10.046 21.689-7.528z" fill="#fff"/><path d="m516.04 707.548c5.729 2.13 10.173 4.416 15.309 5.981-18.829-4.766-35.402-16.864-45.634-33.942-.826-2.412-1.604-4.63-2.334-6.595h2.023c-6.604-19.053 20.579 30.812 30.636 34.556z" fill="#fff"/><path d="m373.51 577.885c3.939 13.412 4.172 28.107-.146 42.53l-12.381 41.306c-1.138 3.803-2.558 7.44-4.211 10.912.107-.302.214-.594.321-.885h-2.023c6.302-18.158-18.1 26.278-29.109 33.729-.486.282-.982.545-1.478.808-.01.01-.029.019-.049.019-8.063 3.006-13.587 6.332-22.106 7.519-4.678.642-18.566-10.222-22.651-7.537-3.569 2.344-4.036 4.843-3.093 7.488-2.655-.486-5.3-1.128-7.936-1.916-39.166-11.748-61.36-53.219-49.543-92.638l12.381-41.324c9.697-32.328 39.233-53.238 71.153-53.238 7.002 0 14.122 1.011 21.173 3.122 24.848 7.438 42.851 26.841 49.698 50.105zm-24.898 42.511c8.199-27.349-7.197-56.107-34.361-64.258-4.892-1.468-9.823-2.158-14.676-2.158-22.146 0-42.638 14.501-49.368 36.938l-8.588 28.652c-8.189 27.339 7.197 56.107 34.371 64.248 4.882 1.469 9.823 2.159 14.676 2.159 22.136 0 42.638-14.501 49.358-36.938z" fill="#c8c8c8"/><path d="m357.093 671.748c-.107.291-.214.583-.321.885-6.798 14.209-17.72 25.511-30.811 32.844 11.01-7.45 35.412-51.887 29.109-33.729z" fill="#fff"/><path d="m356.771 672.633c-7.45 20.365-19.801 65.104-33.028 81.852-10.251 12.983-23.896 22.729-39.535 28.37-5.942 2.14-29.031 6.195-19.957-2.879 4.435-4.435 13.674-14.034 18.936-21.047 7.187-9.569 5.874-21.299 1.711-31.754-1.906-4.775-6.847-9.269-8.315-13.402 4.416.808 8.841 1.196 13.217 1.196 12.215 0 24.091-3.063 34.633-8.666.02 0 .039-.009.049-.019.457-.176.953-.448 1.478-.808 13.091-7.332 24.013-18.634 30.811-32.843z" fill="#c8c8c8"/><path d="m302.327 713.821c8.52-1.187 14.044-4.513 22.106-7.519-10.542 5.603-22.418 8.666-34.633 8.666-4.376 0-8.802-.389-13.217-1.196-.943-2.646-.477-5.145 3.093-7.488 4.085-2.684 17.973 8.179 22.651 7.537z" fill="#fff"/><g fill="none"><path d="m324.482 706.284c.457-.176.953-.448 1.478-.808" stroke="#231f20" stroke-width="20.424"/><path d="m356.771 672.633c-7.45 20.365-19.801 65.104-33.028 81.852-10.251 12.983-23.896 22.729-39.535 28.37-5.942 2.14-29.031 6.195-19.957-2.879 4.435-4.435 13.674-14.034 18.936-21.047 7.187-9.569 5.874-21.299 1.711-31.754-1.906-4.775-6.847-9.269-8.315-13.402" stroke="#231f20" stroke-width="20.424"/><path d="m539.109 715.057c-.359.039-.681.039-.963 0-2.451-.341-4.648-.866-6.74-1.508" stroke="#231f20" stroke-width="20.424"/><path d="m485.715 679.587c7.558 22.087 18.917 60.824 31.016 76.143 10.261 12.983 23.896 22.729 39.535 28.37 5.952 2.14 29.031 6.186 19.957-2.889-4.425-4.426-13.674-14.024-18.936-21.037-7.188-9.57-5.875-21.309-1.702-31.754 2.022-5.077 7.44-9.813 8.529-14.151" stroke="#231f20" stroke-width="20.424"/><path d="m373.51 577.885 25.948-231.239.282-2.46.389-3.502" stroke="#231f20" stroke-width="20.424"/><path d="m464.844 586.122-43.289-208.947-22.097-30.529-2.898-4.007" stroke="#231f20" stroke-width="20.424"/><path d="m464.844 586.122c4.931-27.241 24.879-50.573 53.229-58.334 6.507-1.78 13.043-2.626 19.472-2.626 32.62 0 62.546 21.805 71.64 54.96l11.379 41.597c10.863 39.7-12.313 80.626-51.751 91.432-1.565.428-3.132.797-4.697 1.118-4.94 1.021-9.882 1.508-14.764 1.508-3.453 0-6.876-.243-10.241-.72-2.606-.37-5.174-.876-7.703-1.508-.02-.01-.038-.01-.058-.02-18.829-4.766-35.402-16.864-45.634-33.942-3.433-5.729-6.156-12.021-8.004-18.78l-11.379-41.598c-3.055-11.165-3.425-22.427-1.489-33.087z" stroke="#231f20" stroke-width="20.424"/><path d="m373.51 577.885c-6.847-23.264-24.85-42.667-49.699-50.106-7.051-2.111-14.17-3.122-21.173-3.122-31.92 0-61.457 20.91-71.153 53.238l-12.381 41.324c-11.817 39.419 10.377 80.89 49.543 92.638 2.636.788 5.281 1.43 7.936 1.916 4.416.808 8.841 1.196 13.217 1.196 12.215 0 24.091-3.063 34.633-8.666.02 0 .039-.009.049-.019.496-.263.992-.525 1.478-.808 13.091-7.333 24.013-18.635 30.811-32.844 1.653-3.472 3.073-7.109 4.211-10.912l12.381-41.306c4.319-14.422 4.086-29.117.147-42.529z" stroke="#231f20" stroke-width="20.424"/><path d="m598.047 621.524c7.538 27.543-8.549 55.923-35.897 63.421-4.503 1.226-9.035 1.819-13.489 1.819-22.632 0-43.406-15.124-49.698-38.135l-7.897-28.847c-7.537-27.533 8.529-55.923 35.907-63.412 4.503-1.234 9.035-1.818 13.499-1.818 22.612 0 43.387 15.124 49.68 38.125z" stroke="#231f20" stroke-width="20.424"/><path d="m400.129 340.684 9.599-78.263 2.665-21.649 1.663-13.577s2.247-65.24 49.494-112.478c3.404-3.404 6.662-6.662 9.746-9.755 28.943-28.943 44.242-44.242 44.242-44.242s80.188 46.285 63.985 67.74c-5.379 7.129-13.275 16.213-22.214 25.948-28.953 31.531-68.771 69.792-68.771 69.792l-80.811 38.222-44.417 21.018" stroke="#231f20" stroke-width="20.424"/><path d="m241.619 619.569c-8.189 27.339 7.197 56.107 34.371 64.248 4.882 1.469 9.823 2.159 14.676 2.159 22.136 0 42.638-14.501 49.358-36.938l8.588-28.643c8.199-27.349-7.197-56.107-34.361-64.258-4.892-1.468-9.823-2.158-14.676-2.158-22.146 0-42.638 14.501-49.368 36.938z" stroke="#231f20" stroke-width="20.424"/><path d="m399.701 344.137-38.397-58.043-4.241-6.409 55.33-38.913 81.151-57.07 42.453-43.698" stroke="#231f20" stroke-width="20.424"/><path d="m402.512 348.387-2.772-4.201-.039-.049" stroke="#231f20" stroke-width="20.424"/><path d="m473.296 104.962s39.224 14.219 65.405 31.054c9.288 5.972 16.942 12.274 20.608 18.392.535.895.992 1.79 1.352 2.674" stroke="#231f20" stroke-width="20.424"/><path d="m0 0h850.394v850.394h-850.394z"/></g></svg>