<svg enable-background="new 0 0 850.394 850.394" height="850.394" viewBox="0 0 850.394 850.394" width="850.394" xmlns="http://www.w3.org/2000/svg"><path d="m439.98 623.39.159.04c-.01.051-.02.09-.029.141-.16.85-.33 1.71-.511 2.56l-2.81-.56s-17.13.819-46.5-37.53c-.8-1.04-1.57-2.12-2.31-3.24l1.04-.09z" fill="#f6cc4b"/><path d="m460.25 466.36c.16-3.75.29-7.54.42-11.37l2.23.069 53.39-82.02c.85 12.26 1.34 24.15 1.35 35.26l-55.56 78.58-2.9-.18c.42-6.629.77-13.409 1.07-20.339z" fill="#9e5c26"/><path d="m460.91 445.41c.13-5.98.2-12.061.21-18.22.01-2.11.01-4.24 0-6.38l3.41-.01 47.779-73.77 1.71-.17c.9 8.8 1.671 17.58 2.271 26.18l-53.39 82.02-2.23-.069c.09-3.171.17-6.361.24-9.581z" fill="#f6cc4b"/><path d="m514.02 346.86-1.71.17-47.78 73.77-3.41.01c-.021-5.65-.09-11.37-.22-17.15-.101-5.08-.25-10.2-.45-15.38l3.26-.12 45.25-69.2 1.81-.23c1.19 9.28 2.29 18.72 3.25 28.13z" fill="#f6cc4b"/><path d="m508.24 484.97 2.939.471c-1.5 9.59-3.42 19.97-5.85 30.68l-52.22 58.87-3.46-.55c.26-1.671.52-3.36.77-5.07.99-6.5 1.95-13.34 2.86-20.5l.13.1 1.33-.09z" fill="#9e5c26"/><path d="m510.77 318.73-1.81.23-45.25 69.2-3.26.12c-.11-3.03-.23-6.09-.38-9.16-.23-5.05-.511-10.13-.83-15.26l3.45-.23 40.96-68.92 3.739-.54c1.171 7.97 2.311 16.2 3.381 24.56z" fill="#f6cc4b"/><path d="m507.39 294.17-3.739.54-40.96 68.92-3.45.23c-.141-2.14-.28-4.29-.431-6.45-.46-6.61-1-13.28-1.619-20.01l1.77-.16c6.24-10.56 25.48-43.14 41.56-70.37l2.53-.41c1.429 8.69 2.899 18.01 4.339 27.71z" fill="#f6cc4b"/><path d="m447.24 588.83c.81-4.57 1.609-9.37 2.41-14.39l3.46.55 52.22-58.87c-3.24 14.36-7.39 29.33-12.71 43.84l-44.41 46.03-4.15-.2c.091-.46.19-.94.28-1.41.96-4.83 1.93-10.02 2.9-15.55z" fill="#9e5c26"/><path d="m498.85 242.18-2.34.43-41.49 68.77-.569.07c-1.09-9.08-2.271-17.92-3.521-26.52-.149-1.09-.31-2.17-.479-3.24l.8-.12 40.25-67.97 1.86-.39c1.159 5.77 3.139 15.92 5.489 28.97z" fill="#f6cc4b"/><path d="m491.5 213.6-40.25 67.97-.8.12c-1.11-7.53-2.29-14.88-3.51-22.04-.28-1.64-.561-3.27-.851-4.89l.45-.08 39.58-65.25 1.88-.49c1.59 6.11 3.01 12.42 4.27 18.92 0 0 .4 1.89 1.091 5.35z" fill="#f6cc4b"/><path d="m488 188.94-1.88.49-39.58 65.25-.45.08c-.93-5.32-1.88-10.52-2.859-15.62-.391-1.99-.771-3.97-1.16-5.93l.79-.16c13.47-23.51 38.229-66.69 38.229-66.69l.08-.03c2.5 7.2 4.79 14.74 6.83 22.61z" fill="#f6cc4b"/><path d="m481.17 166.33-.08.03s-24.76 43.18-38.229 66.69l-.79.16c-1.34-6.74-2.721-13.29-4.12-19.65-.49-2.24-.99-4.45-1.49-6.64l1.78-.24c11.59-19.35 30.38-50.71 35.529-59.31 2.62 6.03 5.1 12.35 7.4 18.96z" fill="#f6cc4b"/><path d="m464.44 128.13c3.26 6.04 6.39 12.45 9.329 19.24-5.149 8.6-23.939 39.96-35.529 59.31l-1.78.24c-2.03-8.87-4.1-17.35-6.2-25.44-.27-1.03-.529-2.05-.8-3.06l3.42-.46 29.48-48.72z" fill="#c8c8c8"/><path d="m457.27 511.93c.601-6.76 1.15-13.729 1.631-20.88.09-1.439.189-2.89.279-4.35l2.9.18 55.56-78.58c.011 8.5-.27 16.54-.899 23.92 0 0-.11 3.34-.51 9.19l-57.41 79.729-2.391-.239c.3-2.95.57-5.94.84-8.97z" fill="#9e5c26"/><path d="m457.19 337.4c-.101-1.17-.21-2.34-.33-3.51-.62-6.6-1.33-13.26-2.12-19.97-.07-.56-.13-1.12-.2-1.67-.03-.27-.06-.53-.09-.8l.569-.07 41.49-68.77 2.34-.43c1.311 7.28 2.74 15.45 4.2 24.28l-2.53.41c-16.079 27.23-35.319 59.81-41.56 70.37z" fill="#f6cc4b"/><path d="m508.24 484.97-53.5 63.91-1.33.09-.13-.1c.85-6.561 1.649-13.39 2.39-20.47.271-2.471.521-4.971.76-7.5l2.391.239 57.41-79.729c-.65 9.37-2.061 25.18-5.051 44.03z" fill="#9e5c26"/><path d="m471.87 602.73c-8.97 13.869-19.58 18.76-31.82 23.659l-.479-.1c.02-.05.029-.11.029-.16.181-.85.351-1.71.511-2.56.01-.051.02-.09.029-.141.86-3.399 1.65-6.779 2.36-10.09.51-2.399 1.03-4.92 1.56-7.55l4.15.2 44.41-46.03c-5.55 15.162-12.37 29.832-20.75 42.772z" fill="#9e5c26"/><path d="m508.24 484.97-53.5 63.91-1.33.09-.13-.1c.85-6.561 1.649-13.39 2.39-20.47.271-2.471.521-4.971.76-7.5l2.391.239 57.41-79.729c-.65 9.37-2.061 25.18-5.051 44.03z" fill="#c8c8c8"/><path d="m457.19 337.4c-.101-1.17-.21-2.34-.33-3.51-.62-6.6-1.33-13.26-2.12-19.97-.07-.56-.13-1.12-.2-1.67-.03-.27-.06-.53-.09-.8l.569-.07 41.49-68.77 2.34-.43c1.311 7.28 2.74 15.45 4.2 24.28l-2.53.41c-16.079 27.23-35.319 59.81-41.56 70.37z" fill="#c8c8c8"/><path d="m508.24 484.97 2.939.471c-1.5 9.59-3.42 19.97-5.85 30.68l-52.22 58.87-3.46-.55c.26-1.671.52-3.36.77-5.07.99-6.5 1.95-13.34 2.86-20.5l.13.1 1.33-.09z" fill="#c8c8c8"/><path d="m457.27 511.93c.601-6.76 1.15-13.729 1.631-20.88.09-1.439.189-2.89.279-4.35l2.9.18 55.56-78.58c.011 8.5-.27 16.54-.899 23.92 0 0-.11 3.34-.51 9.19l-57.41 79.729-2.391-.239c.3-2.95.57-5.94.84-8.97z" fill="#c8c8c8"/><path d="m498.85 242.18-2.34.43-41.49 68.77-.569.07c-1.09-9.08-2.271-17.92-3.521-26.52-.149-1.09-.31-2.17-.479-3.24l.8-.12 40.25-67.97 1.86-.39c1.159 5.77 3.139 15.92 5.489 28.97z" fill="#c8c8c8"/><path d="m464.44 128.13c3.26 6.04 6.39 12.45 9.329 19.24-5.149 8.6-23.939 39.96-35.529 59.31l-1.78.24c-2.03-8.87-4.1-17.35-6.2-25.44-.27-1.03-.529-2.05-.8-3.06l3.42-.46 29.48-48.72z" fill="#c8c8c8"/><path d="m491.5 213.6-40.25 67.97-.8.12c-1.11-7.53-2.29-14.88-3.51-22.04-.28-1.64-.561-3.27-.851-4.89l.45-.08 39.58-65.25 1.88-.49c1.59 6.11 3.01 12.42 4.27 18.92 0 0 .4 1.89 1.091 5.35z" fill="#c8c8c8"/><path d="m488 188.94-1.88.49-39.58 65.25-.45.08c-.93-5.32-1.88-10.52-2.859-15.62-.391-1.99-.771-3.97-1.16-5.93l.79-.16c13.47-23.51 38.229-66.69 38.229-66.69l.08-.03c2.5 7.2 4.79 14.74 6.83 22.61z" fill="#c8c8c8"/><path d="m447.24 588.83c.81-4.57 1.609-9.37 2.41-14.39l3.46.55 52.22-58.87c-3.24 14.36-7.39 29.33-12.71 43.84l-44.41 46.03-4.15-.2c.091-.46.19-.94.28-1.41.96-4.83 1.93-10.02 2.9-15.55z" fill="#c8c8c8"/><path d="m510.77 318.73-1.81.23-45.25 69.2-3.26.12c-.11-3.03-.23-6.09-.38-9.16-.23-5.05-.511-10.13-.83-15.26l3.45-.23 40.96-68.92 3.739-.54c1.171 7.97 2.311 16.2 3.381 24.56z" fill="#c8c8c8"/><path d="m481.17 166.33-.08.03s-24.76 43.18-38.229 66.69l-.79.16c-1.34-6.74-2.721-13.29-4.12-19.65-.49-2.24-.99-4.45-1.49-6.64l1.78-.24c11.59-19.35 30.38-50.71 35.529-59.31 2.62 6.03 5.1 12.35 7.4 18.96z" fill="#c8c8c8"/><path d="m507.39 294.17-3.739.54-40.96 68.92-3.45.23c-.141-2.14-.28-4.29-.431-6.45-.46-6.61-1-13.28-1.619-20.01l1.77-.16c6.24-10.56 25.48-43.14 41.56-70.37l2.53-.41c1.429 8.69 2.899 18.01 4.339 27.71z" fill="#c8c8c8"/><path d="m460.91 445.41c.13-5.98.2-12.061.21-18.22.01-2.11.01-4.24 0-6.38l3.41-.01 47.779-73.77 1.71-.17c.9 8.8 1.671 17.58 2.271 26.18l-53.39 82.02-2.23-.069c.09-3.171.17-6.361.24-9.581z" fill="#c8c8c8"/><path d="m514.02 346.86-1.71.17-47.78 73.77-3.41.01c-.021-5.65-.09-11.37-.22-17.15-.101-5.08-.25-10.2-.45-15.38l3.26-.12 45.25-69.2 1.81-.23c1.19 9.28 2.29 18.72 3.25 28.13z" fill="#c8c8c8"/><path d="m471.87 602.73c-8.97 13.869-19.58 18.76-31.82 23.659l-.479-.1c.02-.05.029-.11.029-.16.181-.85.351-1.71.511-2.56.01-.051.02-.09.029-.141.86-3.399 1.65-6.779 2.36-10.09.51-2.399 1.03-4.92 1.56-7.55l4.15.2 44.41-46.03c-5.55 15.162-12.37 29.832-20.75 42.772z" fill="#c8c8c8"/><path d="m460.25 466.36c.16-3.75.29-7.54.42-11.37l2.23.069 53.39-82.02c.85 12.26 1.34 24.15 1.35 35.26l-55.56 78.58-2.9-.18c.42-6.629.77-13.409 1.07-20.339z" fill="#c8c8c8"/><path d="m454.74 313.92c.79 6.71 1.5 13.37 2.12 19.97l-1.57.15-106.23-80.87-2.65.3c-.64-7.02-1.25-14.32-1.81-21.95-.03-.36-.05-.72-.08-1.07l109.68 81.84.34-.04c.07.55.13 1.11.2 1.67z" fill="#c8c8c8"/><path d="m450.93 284.93-2.04.3-104.29-79.19-1.47.06c-.31-7.31-.48-14.25-.55-20.84l2.04-.02 100.6 74.7 1.721-.29c1.22 7.16 2.399 14.51 3.51 22.04.169 1.07.329 2.15.479 3.24z" fill="#c8c8c8"/><path d="m449.84 569.28.58.09c-.25 1.71-.51 3.399-.77 5.07-.801 5.02-1.601 9.819-2.41 14.39l-74.53-58.271-.75.091c-.78-7-1.29-14.21-1.61-21.511z" fill="#c8c8c8"/><path d="m371.12 465.62 84.55 62.78c-.74 7.08-1.54 13.909-2.39 20.47l-82.39-62.55h-1.03c0-2.261.01-4.53.03-6.78.04-4.76.03-9.4-.01-13.91z" fill="#c8c8c8"/><path d="m370.3 443.93 86.97 68c-.27 3.03-.539 6.021-.84 8.971-.239 2.529-.489 5.029-.76 7.5l-84.55-62.78-1.24.01c-.09-7.52-.29-14.71-.61-21.649z" fill="#c8c8c8"/><path d="m370.89 486.32 82.39 62.55c-.91 7.16-1.87 14-2.86 20.5l-.58-.09-79.49-60.141c-.35-7.569-.48-15.22-.49-22.819z" fill="#c8c8c8"/><path d="m456.86 333.89c.12 1.17.229 2.34.33 3.51.619 6.73 1.159 13.4 1.619 20.01l-.26.02-107.81-81.61-2.06.05c-.79-7.15-1.55-14.6-2.27-22.4l2.65-.3 106.23 80.87z" fill="#c8c8c8"/><path d="m454.45 311.45c.03.27.06.53.09.8l-.34.04-109.68-81.84c-.62-8.54-1.07-16.65-1.39-24.35l1.47-.06 104.29 79.19 2.04-.3c1.25 8.6 2.43 17.44 3.52 26.52z" fill="#c8c8c8"/><path d="m437.95 213.56-1.29.28-90.15-67.71-2.98-.28c.58-9.03 1.37-17 2.27-23.99l81.2 60.46 3.26-.84c2.101 8.09 4.17 16.57 6.2 25.44.5 2.19 1 4.4 1.49 6.64z" fill="#c8c8c8"/><path d="m370.44 424.61 88.46 66.44c-.48 7.15-1.03 14.12-1.631 20.88l-86.97-68-1.03.051c-.29-6.61-.68-12.98-1.15-19.19z" fill="#c8c8c8"/><path d="m367.4 395.85 92.85 70.51c-.3 6.93-.65 13.71-1.07 20.34-.09 1.46-.189 2.91-.279 4.35l-88.46-66.44-2.32.18c-.75-9.91-1.71-19.4-2.81-28.7z" fill="#c8c8c8"/><path d="m460.07 379.12-1.521.07-104.99-80.34-2.06.27c-.97-7.42-1.91-15.14-2.82-23.25l2.06-.05 107.81 81.61.26-.02c.15 2.16.29 4.31.431 6.45.32 5.13.6 10.21.83 15.26z" fill="#c8c8c8"/><path d="m361.99 371.02 98.92 74.39c-.07 3.22-.15 6.41-.24 9.58-.13 3.83-.26 7.62-.42 11.37l-92.85-70.51-2.09.24c-1.01-8.44-2.13-16.73-3.32-25.07z" fill="#c8c8c8"/><path d="m460.9 403.66h-.181l-102.8-76.69-2.48.36c-1.33-8.99-2.66-18.33-3.94-28.21l2.06-.27 104.99 80.34 1.521-.07c.149 3.07.27 6.13.38 9.16.2 5.18.35 10.3.45 15.38z" fill="#c8c8c8"/><path d="m461.12 420.81c.01 2.14.01 4.27 0 6.38l-102.11-79.82-.54.07c-1-6.55-2.01-13.23-3.03-20.11l2.48-.36 102.8 76.69h.181c.129 5.78.199 11.5.219 17.15z" fill="#c8c8c8"/><path d="m359.01 347.37 102.11 79.82c-.01 6.159-.08 12.239-.21 18.22l-98.92-74.39c-1.12-7.77-2.31-15.58-3.52-23.58z" fill="#c8c8c8"/><path d="m464.44 128.13-2.08 1.11-29.48 48.72-3.42.46c-1.9-7.21-3.81-14.09-5.72-20.66-.09-.29-.18-.58-.26-.87l3.43-1.01c8.54-14.09 24.06-39.7 27.24-44.96 3.54 5.34 6.99 11.08 10.29 17.21z" fill="#c8c8c8"/><path d="m444.34 604.38c-.09.47-.189.95-.28 1.41-.529 2.63-1.05 5.15-1.56 7.55-.71 3.311-1.5 6.69-2.36 10.09l-.159-.04-50.96-38.68-1.04.09c-5.31-8.06-9.14-18.13-11.86-29.43l1.53-.37 66.43 49.33z" fill="#c8c8c8"/><path d="m407.04 107.22c-.87-2.34-1.73-4.58-2.57-6.75l1.53-.59 15-25.51.35-.45c3.73 2.95 7.54 6.36 11.36 10.23l-18.36 31.52-3.94.77c-1.15-3.2-2.27-6.28-3.37-9.22z" fill="#c8c8c8"/><path d="m423.48 156.89c.08.29.17.58.26.87l-1.63.29-70.17-52.17-3.5-.68c1.72-9 3.49-15.31 4.79-19.28l1.16.38 58.74 44.85 2.1-.69c.77 2.3 1.54 4.66 2.31 7.07 1.96 6.1 3.95 12.56 5.94 19.36z" fill="#c8c8c8"/><path d="m430.26 181.48-3.26.84-81.2-60.46c.81-6.35 1.72-11.88 2.64-16.66l3.5.68 70.17 52.17 1.63-.29c1.91 6.57 3.819 13.45 5.72 20.66.27 1.01.53 2.03.8 3.06z" fill="#c8c8c8"/><path d="m410.41 116.44c1.58 4.43 3.19 9.1 4.82 14.02l-2.1.69-58.74-44.85-1.16-.38c1.19-3.64 1.98-5.33 1.98-5.33s1.89-3.37 5.59-7.37l1.75.02 44.49 33.98c1.1 2.94 2.22 6.02 3.37 9.22z" fill="#c8c8c8"/><path d="m421.35 73.92-.35.45-15 25.51-1.53.59c-9.03-23.32-16-36.86-17.8-40.25 7.93-.42 17.31 1.86 28.09 8.94 2.16 1.42 4.36 3.01 6.59 4.76z" fill="#c8c8c8"/><path d="m407.04 107.22-44.49-33.98-1.75-.02c5.16-5.58 13.85-12.38 25.87-13 1.8 3.39 8.77 16.93 17.8 40.25.84 2.17 1.7 4.41 2.57 6.75z" fill="#c8c8c8"/><path d="m443.4 96.18-23.98 40.75-1.88.6c-.77-2.41-1.54-4.77-2.31-7.07-1.63-4.92-3.24-9.59-4.82-14.02l3.94-.77 18.36-31.52c3.57 3.62 7.15 7.63 10.69 12.03z" fill="#c8c8c8"/><path d="m443.23 239.14-2.091.4-98.37-76.91c.17-5.96.43-11.55.76-16.78l2.98.28 90.15 67.71 1.29-.28c1.399 6.36 2.78 12.91 4.12 19.65.391 1.96.771 3.94 1.161 5.93z" fill="#c8c8c8"/><path d="m446.94 259.65-1.721.29-100.6-74.7-2.04.02c-.09-8.07-.01-15.61.19-22.63l98.37 76.91 2.091-.4c.979 5.1 1.93 10.3 2.859 15.62.291 1.62.571 3.25.851 4.89z" fill="#c8c8c8"/><path d="m372.71 530.56 74.53 58.271c-.971 5.53-1.94 10.72-2.9 15.55l-.26-.05-66.43-49.331-1.53.37c-1.86-7.74-3.21-16.07-4.16-24.72z" fill="#c8c8c8"/><path d="m454.15 110.92c-3.181 5.26-18.7 30.87-27.24 44.96l-3.43 1.01c-1.99-6.8-3.98-13.26-5.94-19.36l1.88-.6 23.98-40.75c3.64 4.51 7.24 9.43 10.75 14.74z" fill="#c8c8c8"/><g fill="none"><path d="m440.05 626.39c12.24-4.899 22.851-9.79 31.82-23.659 8.38-12.94 15.2-27.61 20.75-42.771 5.32-14.51 9.47-29.479 12.71-43.84 2.43-10.71 4.35-21.09 5.85-30.68 2.99-18.851 4.4-34.66 5.051-44.03.399-5.851.51-9.19.51-9.19.63-7.38.91-15.42.899-23.92-.01-11.11-.5-23-1.35-35.26-.6-8.6-1.37-17.38-2.271-26.18-.96-9.41-2.06-18.85-3.25-28.13-1.069-8.36-2.21-16.59-3.38-24.56-1.439-9.7-2.909-19.02-4.34-27.71-1.46-8.83-2.89-17-4.2-24.28-2.35-13.05-4.33-23.2-5.489-28.97-.69-3.46-1.091-5.35-1.091-5.35-1.26-6.5-2.68-12.81-4.27-18.92-2.04-7.87-4.33-15.41-6.83-22.61-2.3-6.61-4.78-12.93-7.4-18.96-2.939-6.79-6.069-13.2-9.329-19.24-3.301-6.13-6.75-11.87-10.29-17.21-3.511-5.31-7.11-10.23-10.75-14.74-3.54-4.4-7.12-8.41-10.69-12.03-3.82-3.87-7.63-7.28-11.36-10.23-2.23-1.75-4.43-3.34-6.59-4.76-10.78-7.08-20.16-9.36-28.09-8.94-12.02.62-20.71 7.42-25.87 13-3.7 4-5.59 7.37-5.59 7.37s-.79 1.69-1.98 5.33c-1.3 3.97-3.07 10.28-4.79 19.28-.92 4.78-1.83 10.31-2.64 16.66-.9 6.99-1.69 14.96-2.27 23.99-.33 5.23-.59 10.82-.76 16.78-.2 7.02-.28 14.56-.19 22.63.07 6.59.24 13.53.55 20.84.32 7.7.77 15.81 1.39 24.35.03.35.05.71.08 1.07.56 7.63 1.17 14.93 1.81 21.95.72 7.8 1.48 15.25 2.27 22.4.91 8.11 1.85 15.83 2.82 23.25 1.28 9.88 2.61 19.22 3.94 28.21 1.02 6.88 2.03 13.56 3.03 20.11 1.21 8 2.4 15.81 3.52 23.58 1.19 8.34 2.31 16.63 3.32 25.07 1.1 9.3 2.06 18.79 2.81 28.7.47 6.21.86 12.58 1.15 19.19.32 6.939.52 14.13.61 21.649.04 4.51.05 9.15.01 13.91-.02 2.25-.03 4.52-.03 6.78.01 7.6.14 15.25.49 22.819.32 7.301.83 14.511 1.61 21.511.95 8.649 2.3 16.979 4.16 24.72 2.72 11.3 6.55 21.37 11.86 29.43.74 1.12 1.51 2.2 2.31 3.24 29.37 38.35 46.5 37.53 46.5 37.53" stroke="#231f20" stroke-width="14"/><path d="m440.11 623.57c-.16.85-.33 1.71-.511 2.56 0 .05-.01.11-.029.16-17.561 88.17-61.521 164.97-61.521 164.97" stroke="#231f20" stroke-linecap="round" stroke-linejoin="round" stroke-width="21"/><path d="m386.21 59.37s.16.28.46.85c1.8 3.39 8.77 16.93 17.8 40.25.84 2.17 1.7 4.41 2.57 6.75 1.1 2.94 2.22 6.02 3.37 9.22 1.58 4.43 3.19 9.1 4.82 14.02.77 2.3 1.54 4.66 2.31 7.07 1.96 6.1 3.95 12.56 5.94 19.36.08.29.17.58.26.87 1.91 6.57 3.819 13.45 5.72 20.66.271 1.01.53 2.03.8 3.06 2.101 8.09 4.17 16.57 6.2 25.44.5 2.19 1 4.4 1.49 6.64 1.399 6.36 2.78 12.91 4.12 19.65.39 1.96.77 3.94 1.16 5.93.979 5.1 1.93 10.3 2.859 15.62.29 1.62.57 3.25.851 4.89 1.22 7.16 2.399 14.51 3.51 22.04.17 1.07.33 2.15.479 3.24 1.25 8.6 2.431 17.44 3.521 26.52.03.27.06.53.09.8.07.55.13 1.11.2 1.67.79 6.71 1.5 13.37 2.12 19.97.12 1.17.229 2.34.33 3.51.619 6.73 1.159 13.4 1.619 20.01.15 2.16.29 4.31.431 6.45.319 5.13.6 10.21.83 15.26.149 3.07.27 6.13.38 9.16.2 5.18.35 10.3.45 15.38.13 5.78.199 11.5.22 17.15.01 2.14.01 4.27 0 6.38-.01 6.159-.08 12.239-.21 18.22-.07 3.22-.15 6.41-.24 9.58-.13 3.83-.26 7.62-.42 11.37-.3 6.93-.65 13.71-1.07 20.34-.09 1.46-.189 2.91-.279 4.35-.48 7.15-1.03 14.12-1.631 20.88-.27 3.03-.539 6.021-.84 8.971-.239 2.529-.489 5.029-.76 7.5-.74 7.08-1.54 13.909-2.39 20.47-.91 7.16-1.87 14-2.86 20.5-.25 1.71-.51 3.399-.77 5.07-.801 5.02-1.601 9.819-2.41 14.39-.971 5.53-1.94 10.72-2.9 15.55-.09.47-.189.95-.28 1.41-.529 2.63-1.05 5.15-1.56 7.55-.71 3.311-1.5 6.69-2.36 10.09-.01.051-.02.09-.029.141" stroke="#231f20" stroke-width="14"/><path d="m362.55 73.24 44.49 33.98.38.29" stroke="#231f20" stroke-width="6.5268"/><path d="m354.39 86.3 58.74 44.85" stroke="#231f20" stroke-width="6.5268"/><path d="m351.94 105.88 70.17 52.17" stroke="#231f20" stroke-width="6.5268"/><path d="m342.97 119.75 2.83 2.11 81.2 60.46" stroke="#231f20" stroke-width="6.5268"/><path d="m346.51 146.13 90.15 67.71" stroke="#231f20" stroke-width="6.5268"/><path d="m338.35 159.18 4.42 3.45 98.37 76.91" stroke="#231f20" stroke-width="6.5268"/><path d="m344.62 185.24 100.6 74.7" stroke="#231f20" stroke-width="6.5268"/><path d="m344.6 206.04 104.29 79.19" stroke="#231f20" stroke-width="6.5268"/><path d="m343.78 229.89.74.56 109.68 81.84" stroke="#231f20" stroke-width="6.5268"/><path d="m349.06 253.17 106.23 80.87" stroke="#231f20" stroke-width="6.5268"/><path d="m350.74 275.82 107.81 81.61" stroke="#231f20" stroke-width="6.5268"/><path d="m353.56 298.85 104.99 80.34" stroke="#231f20" stroke-width="6.5268"/><path d="m370.44 424.61 88.46 66.44 1.69 1.27" stroke="#231f20" stroke-width="6.5268"/><path d="m370.3 443.93 86.97 68 .53.41" stroke="#231f20" stroke-width="6.5268"/><path d="m371.12 465.62 84.55 62.78 2.05 1.52" stroke="#231f20" stroke-width="6.5268"/><path d="m370.89 486.32 82.39 62.55.13.1" stroke="#231f20" stroke-width="6.5268"/><path d="m365 505.1 5.35 4.04 79.49 60.14" stroke="#231f20" stroke-width="6.5268"/><path d="m372.71 530.56 74.53 58.27 1.26.98" stroke="#231f20" stroke-width="6.5268"/><path d="m377.65 555 66.43 49.33" stroke="#231f20" stroke-width="6.5268"/><path d="m389.02 584.71 50.96 38.68" stroke="#231f20" stroke-width="6.5268"/><path d="m357.92 326.97 102.8 76.69" stroke="#231f20" stroke-width="6.5268"/><path d="m359.01 347.37 102.11 79.82.69.54" stroke="#231f20" stroke-width="6.5268"/><path d="m356.57 366.95 5.42 4.07 98.92 74.39.36.27" stroke="#231f20" stroke-width="6.5268"/><path d="m367.4 395.85 92.85 70.51 1.34 1.02" stroke="#231f20" stroke-width="6.5268"/><path d="m433.17 83.35-.46.8-18.36 31.52" stroke="#231f20" stroke-width="6.5268"/><path d="m421 74.37-15 25.51" stroke="#231f20" stroke-width="6.5268"/><path d="m443.75 95.59-.35.59-23.98 40.75" stroke="#231f20" stroke-width="6.5268"/><path d="m454.74 109.96s-.2.34-.59.96c-3.181 5.26-18.7 30.87-27.24 44.96" stroke="#231f20" stroke-width="6.5268"/><path d="m462.36 129.24-29.48 48.72" stroke="#231f20" stroke-width="6.5268"/><path d="m475.12 145.12s-.48.8-1.351 2.25c-5.149 8.6-23.939 39.96-35.529 59.31" stroke="#231f20" stroke-width="6.5268"/><path d="m481.09 166.36s-24.76 43.18-38.229 66.69" stroke="#231f20" stroke-width="6.5268"/><path d="m486.12 189.43-39.58 65.25" stroke="#231f20" stroke-width="6.5268"/><path d="m491.5 213.6-40.25 67.97" stroke="#231f20" stroke-width="6.5268"/><path d="m496.51 242.61-41.49 68.77" stroke="#231f20" stroke-width="6.5268"/><path d="m500.52 266.87c-16.079 27.23-35.319 59.81-41.56 70.37" stroke="#231f20" stroke-width="6.5268"/><path d="m503.65 294.71-40.96 68.92" stroke="#231f20" stroke-width="6.5268"/><path d="m508.96 318.96-45.25 69.2" stroke="#231f20" stroke-width="6.5268"/><path d="m517.56 439.56-1.33 1.85-57.41 79.73" stroke="#231f20" stroke-width="6.5268"/><path d="m508.24 484.97-53.5 63.91" stroke="#231f20" stroke-width="6.5268"/><path d="m510.98 509.75-5.65 6.37-52.22 58.87" stroke="#231f20" stroke-width="6.5268"/><path d="m493.08 559.49-.46.47-44.41 46.03" stroke="#231f20" stroke-width="6.5268"/><path d="m512.31 347.03-47.78 73.77" stroke="#231f20" stroke-width="6.5268"/><path d="m519.19 368.58-2.9 4.46-53.39 82.02" stroke="#231f20" stroke-width="6.5268"/><path d="m519.19 406.11-1.55 2.19-55.56 78.58" stroke="#231f20" stroke-width="6.5268"/><path d="m0 0h850.394v850.394h-850.394z"/><path d="m0 0h850.394v850.394h-850.394z"/></g></svg>