<svg enable-background="new 0 0 850.394 850.394" height="850.394" viewBox="0 0 850.394 850.394" width="850.394" xmlns="http://www.w3.org/2000/svg"><path d="m806.9 396.8-.36 21.97-29.49 4.51c5.641-7.67-2.47-19.39-3.88-21.31z" fill="#f73900"/><path d="m773.17 401.97c1.41 1.92 9.521 13.64 3.88 21.31-4.43 6.03-86.3 35.86-87.569 36.32 6.47-7.699 9.59-21.29 7.26-36.419-1.79-11.71-6.44-21.77-12.4-28.34l88.63 6.86c-.001-.001.069.089.199.269z" fill="#ffeec8"/><path d="m684.34 394.84c5.96 6.57 10.61 16.63 12.4 28.34 2.33 15.129-.79 28.72-7.26 36.419-.011.011-.021.011-.021.011-2.93 3.489-6.56 5.77-10.69 6.43l-360.68 55.24c6.23-3.08 10.84-10.42 12.97-19.91 1.49-6.62 1.77-14.3.54-22.311-1.15-7.479-3.46-14.279-6.53-19.939-5.96-10.98-14.8-17.61-23.56-16.34l365.021-55.9.01.04c6.24-.96 12.53 2.11 17.8 7.92z" fill="#f73900"/><path d="m667.8 306.12-3.68 21.66h-29.84c6.739-6.74.5-19.55-.601-21.66z" fill="#0b00ea"/><path d="m633.68 306.12c1.101 2.11 7.34 14.92.601 21.66-5.33 5.33-92.08 22.65-92.08 22.65 7.58-6.63 12.72-19.59 12.72-34.91 0-11.84-3.07-22.5-7.97-29.89l86.569 20.19s.06.1.16.3z" fill="#ffeec8"/><path d="m546.95 285.63c4.899 7.39 7.97 18.05 7.97 29.89 0 15.32-5.14 28.28-12.72 34.91-3.431 2.99-7.351 4.69-11.53 4.73h-364.91c6.64-2.1 12.32-8.67 15.86-17.75 2.47-6.32 3.9-13.86 3.9-21.94 0-7.67-1.29-14.84-3.53-20.95-4.27-11.67-12-19.46-20.83-19.46h369.39v.04c6.32 0 12.07 3.98 16.4 10.53z" fill="#0b00ea"/><path d="m244.84 494.05c-.07-.56-.14-1.109-.23-1.67-1.13-7.35-3.38-14.05-6.37-19.649l85.35-13.07 1.48-.54c3.07 5.66 5.38 12.46 6.53 19.939 1.23 8.011.95 15.69-.54 22.311l-1.1-.101-85.84 13.15c1.34-6.1 1.66-13.08.72-20.37z" fill="#f73900"/><path d="m329.96 501.27 1.1.101c-2.13 9.49-6.74 16.83-12.97 19.91l-87.02 13.33c6.3-3.101 10.95-10.561 13.05-20.19z" fill="#f73900"/><path d="m325.07 459.12-1.48.54-85.35 13.07c-5.55-10.36-13.64-16.931-21.84-16.78v-.13l85-13.021.11-.02c8.76-1.269 17.6 5.361 23.56 16.341z" fill="#f73900"/><path d="m244.84 494.05c.94 7.29.62 14.271-.72 20.37-2.1 9.63-6.75 17.09-13.05 20.19-1.4.699-2.88 1.17-4.43 1.409-13.3 2.04-26.82-14.189-30.2-36.25-3.38-22.069 4.66-41.609 17.97-43.649.66-.11 1.33-.16 1.99-.17 8.2-.15 16.29 6.42 21.84 16.78 2.99 5.6 5.24 12.3 6.37 19.649.09.561.16 1.111.23 1.671z" fill="#f73900"/><path d="m97.5 317.15c.01-.56.02-1.12.02-1.68 0-7.44-1.21-14.41-3.33-20.39h86.35l1.45-.56c2.24 6.11 3.53 13.28 3.53 20.95 0 8.08-1.43 15.62-3.9 21.94l-1.08-.23h-86.84c2.25-5.83 3.62-12.68 3.8-20.03z" fill="#0b00ea"/><path d="m181.99 294.52-1.45.56h-86.35c-3.91-11.08-10.91-18.79-19.04-19.88l.02-.14h85.99c8.83 0 16.56 7.79 20.83 19.46z" fill="#0b00ea"/><path d="m180.54 337.18 1.08.23c-3.54 9.08-9.22 15.65-15.86 17.75h-1.12-86.86c6.69-2.13 12.4-8.79 15.92-17.98z" fill="#0b00ea"/><path d="m94.19 295.08c2.12 5.98 3.33 12.95 3.33 20.39 0 .56-.01 1.12-.02 1.68-.18 7.35-1.55 14.2-3.8 20.03-3.52 9.19-9.23 15.85-15.92 17.98-1.5.48-3.05.73-4.63.73-13.46 0-24.36-18.1-24.36-40.42s10.9-40.41 24.36-40.41c.67 0 1.34.05 2 .14 8.13 1.09 15.13 8.8 19.04 19.88z" fill="#0b00ea"/><g fill="none"><path d="m94.19 295.08c2.12 5.98 3.33 12.95 3.33 20.39 0 .56-.01 1.12-.02 1.68-.18 7.35-1.55 14.2-3.8 20.03-3.52 9.19-9.23 15.85-15.92 17.98-1.5.48-3.05.73-4.63.73-13.46 0-24.36-18.1-24.36-40.42s10.9-40.41 24.36-40.41c.67 0 1.34.05 2 .14 8.13 1.09 15.13 8.8 19.04 19.88z" stroke="#000" stroke-width="14.7128"/><path d="m161.16 275.06c8.83 0 16.56 7.79 20.83 19.46 2.24 6.11 3.53 13.28 3.53 20.95 0 8.08-1.43 15.62-3.9 21.94-3.54 9.08-9.22 15.65-15.86 17.75-.11.04-.22.08-.33.11" stroke="#000" stroke-width="14.7128"/><path d="m530.67 355.93c-.04 0-.08 0-.12 0" stroke="#000" stroke-width="14.7128"/><path d="m530.55 275.1c6.32 0 12.07 3.98 16.4 10.53 4.899 7.39 7.97 18.05 7.97 29.89 0 15.32-5.14 28.28-12.72 34.91-3.431 2.99-7.351 4.69-11.53 4.73" stroke="#000" stroke-width="14.7128"/><path d="m164.64 355.16h-86.86-.7" stroke="#000" stroke-width="14.7128"/><path d="m530.67 355.16h-364.91-1.12" stroke="#000" stroke-width="14.7128"/><path d="m75.17 275.06h85.99 369.39.12" stroke="#000" stroke-width="14.7128"/><path d="m93.72 295.08h.47 86.35" stroke="#000" stroke-width="14.7128"/><path d="m96.95 317.15h.55 83.04" stroke="#000" stroke-width="14.7128"/><path d="m93.02 337.18h.68 86.84" stroke="#000" stroke-width="14.7128"/><path d="m546.22 285.46.73.17 86.569 20.19s.061.1.16.3c1.101 2.11 7.34 14.92.601 21.66-5.33 5.33-92.08 22.65-92.08 22.65" stroke="#000" stroke-width="14.7128"/><path d="m633.52 306.12h.16 34.12l-3.68 21.66h-29.84" stroke="#000" stroke-width="14.7128"/><path d="m238.24 472.73c2.99 5.6 5.24 12.3 6.37 19.649.09.561.16 1.11.23 1.67.94 7.29.62 14.271-.72 20.37-2.1 9.63-6.75 17.09-13.05 20.19-1.4.699-2.88 1.17-4.43 1.409-13.3 2.04-26.82-14.189-30.2-36.25-3.38-22.069 4.66-41.609 17.97-43.649.66-.11 1.33-.16 1.99-.17 8.2-.149 16.29 6.421 21.84 16.781z" stroke="#000" stroke-width="14.7128"/><path d="m301.51 442.78c8.76-1.271 17.6 5.359 23.56 16.34 3.07 5.66 5.38 12.46 6.53 19.939 1.23 8.011.95 15.69-.54 22.311-2.13 9.49-6.74 16.83-12.97 19.91-.16.09-.33.17-.49.239" stroke="#000" stroke-width="14.7128"/><path d="m678.89 466.8c-.029.01-.069.021-.109.021" stroke="#000" stroke-width="14.7128"/><path d="m689.46 459.61c-2.93 3.489-6.56 5.77-10.69 6.43" stroke="#000" stroke-width="14.7128"/><path d="m666.54 386.92c6.24-.96 12.53 2.11 17.8 7.92 5.96 6.57 10.61 16.63 12.4 28.34 2.33 15.129-.79 28.72-7.26 36.419" stroke="#000" stroke-width="14.7128"/><path d="m678.77 466.04-360.68 55.24-87.02 13.33-.2.03" stroke="#000" stroke-width="14.7128"/><path d="m216.4 455.82 85-13.02.11-.02 365.02-55.9.12-.02" stroke="#000" stroke-width="14.7128"/><path d="m237.57 472.83.67-.1 85.35-13.07" stroke="#000" stroke-width="14.7128"/><path d="m244.45 494.11.39-.06 82.09-12.58" stroke="#000" stroke-width="14.7128"/><path d="m243.53 514.51.59-.09 85.84-13.15" stroke="#000" stroke-width="14.7128"/><path d="m683.61 394.78.729.06 88.63 6.86s.07.09.2.27c1.41 1.92 9.521 13.64 3.88 21.31-4.43 6.03-86.3 35.86-87.569 36.32-.011.011-.021.011-.021.011" stroke="#000" stroke-width="14.7128"/><path d="m773.01 401.99.16-.02 33.73-5.17-.36 21.97-29.49 4.51" stroke="#000" stroke-width="14.7128"/><path d="m0 0h850.394v850.394h-850.394z"/></g></svg>