<svg enable-background="new 0 0 850.394 850.394" height="850.394" viewBox="0 0 850.394 850.394" width="850.394" xmlns="http://www.w3.org/2000/svg"><path d="m535.16 437.9-2.96 16.28-13.29-.32 4.14-16.21z" fill="#fff"/><path d="m510.24 438.08-2.96 16.28-13.3-.32 4.14-16.21z" fill="#fff"/><path d="m485.01 438.26-2.96 16.28-13.29-.31 4.13-16.22z" fill="#fff"/><path d="m459.55 438.45-2.96 16.27-13.29-.31 4.13-16.22z" fill="#fff"/><path d="m434.52 438.62-2.95 16.28-13.29-.31 4.13-16.22z" fill="#fff"/><path d="m410.91 438.8-2.97 16.28-13.29-.32 4.14-16.22z" fill="#fff"/><path d="m138.95 441.69-3.08 16.26-13.29-.42 4.25-16.18z" fill="#fff"/><path d="m162.58 441.69-3.09 16.26-13.29-.42 4.26-16.18z" fill="#fff"/><path d="m187.6 441.69-3.08 16.26-13.29-.42 4.25-16.18z" fill="#fff"/><path d="m213.06 441.69-3.08 16.26-13.29-.42 4.25-16.18z" fill="#fff"/><path d="m238.29 441.69-3.08 16.26-13.29-.42 4.25-16.18z" fill="#fff"/><path d="m263.21 441.69-3.08 16.26-13.29-.42 4.25-16.18z" fill="#fff"/><path d="m371.07 380.55-1.97 16.43-13.28.5 3.14-16.44z" fill="#fff"/><path d="m346.21 382.25-1.97 16.43-13.29.49 3.14-16.44z" fill="#fff"/><path d="m321.04 383.97-1.97 16.43-13.29.49 3.14-16.43z" fill="#fff"/><path d="m295.63 385.7-1.96 16.43-13.29.5 3.14-16.44z" fill="#fff"/><path d="m511.24 372.69s1.55.42 4.33 1.19l-.5 2.64-37.74.56-23.98-27.36.11-3c5.65.23 10.58.61 14.28 1.18 22.1 3.4 43.5 24.79 43.5 24.79z" fill="#fff"/><path d="m477.33 377.08-28.44.43h-.279l-20.87-27.66-.03-3.42c1.16-.02 2.32-.02 3.48-.03h.109l18.15.18c1.37.04 2.71.08 4.01.14l-.11 3z" fill="#fff"/><path d="m448.89 377.51.08 5.6c-13-1.93-24.21-3.31-31.67-4.6l1.51-29.1-.07-2.86c2.96-.05 5.97-.1 8.97-.12l.03 3.42 20.87 27.66z" fill="#fff"/><path d="m686.93 450.75c11.271 11.83 19.41 21.83 19.41 21.83-10.83-.05-27.979-.29-48.24-.63l.07-3.9v-16.76z" fill="#fff"/><path d="m686.93 450.75-28.76.54v-13.36l-.02-1.29 14.319-.199c5.101 4.709 10.021 9.649 14.461 14.309z" fill="#fff"/><path d="m658.17 437.93v13.36l-41.37.78v-14.14l-.01-.71 41.36-.58z" fill="#fff"/><path d="m658.17 451.29v16.76l-.07 3.9c-12.81-.21-26.869-.47-41.359-.74l.06-3.16v-15.98z" fill="#fff"/><path d="m616.8 452.07v15.979l-.06 3.16c-9.521-.19-19.21-.38-28.87-.58l-11.67-17.689.17-.11z" fill="#fff"/><path d="m616.8 437.93v14.14l-40.43.76-.17.11-9.77-14.8.32-.21 50.04-.71z" fill="#fff"/><path d="m477.33 377.08 37.74-.56.5-2.64c20.93 5.8 111.52 31.3 133.54 44.3 7.479 4.42 15.63 11.08 23.359 18.26l-14.319.199-41.36.58-50.04.71-.32.21-9.779-14.84c0-.01-.011-.01-.021-.02-20.34-24.91-71.05-34.74-107.66-40.17l-.08-5.6z" fill="#fff"/><path d="m556.63 423.28-207.75 2.39-34.76.4-53.76.62-.05-3.98 6.8-49.87 97.48-8.5 14.74-16.44s18.62-.95 39.41-1.35l.07 2.86-1.51 29.1c7.46 1.29 18.67 2.67 31.67 4.6 36.61 5.43 87.32 15.26 107.66 40.17zm-187.53-26.3 1.97-16.43-12.11.49-3.14 16.44zm-24.86 1.7 1.97-16.43-12.12.48-3.14 16.44zm-25.17 1.72 1.97-16.43-12.12.49-3.14 16.43zm-25.4 1.73 1.96-16.43-12.11.49-3.14 16.44z" fill="#fff"/><path d="m576.2 452.94 11.67 17.689c-60.91-1.229-120.13-2.58-120.13-2.58l-32.87 19.84-89.38-1.889.02-.73v-22.32l3.4-34.57-.03-2.71 207.75-2.39c.01.01.021.01.021.02l9.779 14.84zm-44 1.24 2.96-16.279-12.11-.25-4.14 16.21zm-24.92.18 2.96-16.28-12.12-.25-4.14 16.21zm-25.23.18 2.96-16.28-12.12-.25-4.13 16.221zm-25.46.18 2.96-16.27-12.12-.26-4.13 16.22zm-25.02.18 2.949-16.28-12.109-.25-4.13 16.22zm-23.63.18 2.97-16.28-12.12-.26-4.14 16.22z" fill="#a3d9ff"/><path d="m348.88 425.67.03 2.71-3.4 34.57v22.32l-.02.73-34.74-.73v-22.32l3.4-34.57-.03-2.31z" fill="#fff"/><path d="m314.12 426.07.03 2.31-3.4 34.57v22.319l-246.61-5.199.07-3.511 8.5-20.97h30.04l11.33-27.21 146.28-1.689zm-53.99 31.88 3.08-16.26-12.12-.341-4.25 16.181zm-24.92 0 3.08-16.26-12.12-.341-4.25 16.181zm-25.23 0 3.08-16.26-12.12-.341-4.25 16.181zm-25.46 0 3.08-16.26-12.12-.341-4.25 16.181zm-25.03 0 3.09-16.26-12.12-.341-4.26 16.181zm-23.62 0 3.08-16.26-12.12-.341-4.25 16.181z" fill="#a3d9ff"/><path d="m761.46 471.18c17.51-.93 28.771-1.989 28.771-1.989s-62.671 114.8-77.08 117.88c-39.681 8.51-218.21-2.261-218.21-2.261l-431.3-31.17-4.54-73.68 5.04.11 246.61 5.199 34.74.73 89.38 1.89 32.87-19.84s59.22 1.351 120.13 2.58c9.66.2 19.35.39 28.87.58 14.49.271 28.55.53 41.359.74 20.261.34 37.41.58 48.24.63 1.44.01 2.771.01 3.98.01 19.33.001 37.21-.669 51.14-1.409z" fill="#ff001c"/><g fill="none"><path d="m761.46 471.18c17.51-.93 28.771-1.989 28.771-1.989s-62.671 114.8-77.08 117.88c-39.681 8.51-218.21-2.261-218.21-2.261l-431.3-31.17-4.54-73.68 5.04.11 246.61 5.199 34.74.73 89.38 1.89 32.87-19.84s59.22 1.351 120.13 2.58c9.66.2 19.35.39 28.87.58 14.49.271 28.55.53 41.359.74 20.261.34 37.41.58 48.24.63 1.44.01 2.771.01 3.98.01 19.33.001 37.21-.669 51.14-1.409z" stroke="#231f20" stroke-width="21"/><path d="m556.65 423.3 9.78 14.84 9.77 14.8 11.67 17.69" stroke="#231f20" stroke-width="14"/><path d="m64.21 476.56 8.5-20.97h30.04l11.33-27.21 146.28-1.69 53.76-.62 34.76-.4 207.75-2.39" stroke="#231f20" stroke-width="14"/><path d="m431.3 346.4c6.29-.03 12.49.01 18.15.18 1.37.04 2.71.08 4.01.14 5.65.23 10.58.61 14.28 1.18 22.1 3.4 43.5 24.79 43.5 24.79s1.55.42 4.33 1.19c20.93 5.8 111.52 31.3 133.54 44.3 7.479 4.42 15.63 11.08 23.359 18.26 5.101 4.71 10.021 9.649 14.46 14.31 11.271 11.83 19.41 21.83 19.41 21.83" stroke="#231f20" stroke-width="21"/><path d="m260.31 422.71 6.8-49.87 97.48-8.5 14.74-16.44s18.62-.95 39.41-1.35c2.96-.05 5.97-.1 8.97-.12 1.16-.02 2.32-.02 3.48-.03" stroke="#231f20" stroke-width="21"/><path d="m557.92 424.93c-.41-.55-.83-1.09-1.27-1.63 0-.01-.011-.01-.021-.02-20.34-24.91-71.05-34.74-107.66-40.17-13-1.93-24.21-3.31-31.67-4.6l1.51-29.1" stroke="#231f20" stroke-width="13.6023"/><path d="m314.15 428.38-3.4 34.57v22.32" stroke="#231f20" stroke-width="14"/><path d="m348.91 428.38-3.4 34.57v22.32" stroke="#231f20" stroke-width="14"/><path d="m122.58 457.53 4.25-16.18 12.12.34-3.08 16.26z" stroke="#231f20" stroke-width="7"/><path d="m146.2 457.53 4.26-16.18 12.12.34-3.09 16.26z" stroke="#231f20" stroke-width="7"/><path d="m171.23 457.53 4.25-16.18 12.12.34-3.08 16.26z" stroke="#231f20" stroke-width="7"/><path d="m196.69 457.53 4.25-16.18 12.12.34-3.08 16.26z" stroke="#231f20" stroke-width="7"/><path d="m221.92 457.53 4.25-16.18 12.12.34-3.08 16.26z" stroke="#231f20" stroke-width="7"/><path d="m246.84 457.53 4.25-16.18 12.12.34-3.08 16.26z" stroke="#231f20" stroke-width="7"/><path d="m394.65 454.76 4.14-16.22 12.12.26-2.97 16.28z" stroke="#231f20" stroke-width="7"/><path d="m418.28 454.59 4.13-16.22 12.11.25-2.95 16.28z" stroke="#231f20" stroke-width="7"/><path d="m443.3 454.41 4.13-16.22 12.12.26-2.96 16.27z" stroke="#231f20" stroke-width="7"/><path d="m468.76 454.23 4.13-16.22 12.12.25-2.96 16.28z" stroke="#231f20" stroke-width="7"/><path d="m493.98 454.04 4.14-16.21 12.12.25-2.96 16.28z" stroke="#231f20" stroke-width="7"/><path d="m518.91 453.86 4.14-16.21 12.11.25-2.96 16.28z" stroke="#231f20" stroke-width="7"/><path d="m280.38 402.63 3.14-16.44 12.11-.49-1.96 16.43z" stroke="#231f20" stroke-width="7"/><path d="m305.78 400.89 3.14-16.43 12.12-.49-1.97 16.43z" stroke="#231f20" stroke-width="7"/><path d="m330.95 399.17 3.14-16.44 12.12-.48-1.97 16.43z" stroke="#231f20" stroke-width="7"/><path d="m355.82 397.48 3.14-16.44 12.11-.49-1.97 16.43z" stroke="#231f20" stroke-width="7"/><path d="m431.19 346.4-13.61-36.9s5.48 1.98 19.55 19.56c14.08 17.57 12.32 17.52 12.32 17.52l-18.15-.18z" stroke="#231f20" stroke-width="7"/><path d="m418.86 308.23v-35.28" stroke="#231f20" stroke-linecap="round" stroke-linejoin="round" stroke-width="7"/><path d="m415.46 295.05-8.55-3-1.71 6.4z" stroke="#231f20" stroke-width="7"/><path d="m409.32 313.19-8.55-3-1.71 6.4z" stroke="#231f20" stroke-width="7"/><path d="m427.74 349.85 20.87 27.66h.28l28.44-.43 37.74-.56" stroke="#231f20" stroke-width="7"/><path d="m453.35 349.72 23.98 27.36.09.11" stroke="#231f20" stroke-width="7"/><path d="m566.75 437.93 50.04-.71 41.36-.58 14.32-.2 53.15-.76 35.7-.5v14.17 19.27" stroke="#231f20" stroke-width="7"/><path d="m576.37 452.83 40.43-.76 41.37-.78 28.76-.54 38.69-.73 35.7-.67" stroke="#231f20" stroke-width="6.8011"/><path d="m616.8 437.93v14.14 15.98" stroke="#231f20" stroke-width="7"/><path d="m658.17 437.93v13.36 16.76" stroke="#231f20" stroke-width="7"/><path d="m725.62 435.09v.59 14.34 15.2" stroke="#231f20" stroke-width="7"/><path d="m0 0h850.394v850.394h-850.394z"/></g></svg>