<svg enable-background="new 0 0 850.394 850.394" height="850.394" viewBox="0 0 850.394 850.394" width="850.394" xmlns="http://www.w3.org/2000/svg"><path d="m466.96 545.76 42.89 185.49s-15.609 29.79-82.89 29.57c-69-.221-81.26-29.641-81.26-29.641l42.9-185.479z" fill="#8c469b"/><path d="m417.46 504.26c2.81 25.87 2.44 37.67 2.44 37.67-.85-9.25-1.94-18.29-3.26-27.109.28-3.161.56-6.681.82-10.561z" fill="#fbed24"/><path d="m401.64 538.45s-34.38-62.96-123.47-112.17c-91.29-50.43-165.2-28.91-165.2-28.91" fill="none" stroke="#ed107f" stroke-width="7"/><path d="m94.71 315.64s259.11 33.26 317.37 226.29" fill="none" stroke="#8c469b" stroke-width="7"/><path d="m126.88 255.86s110.07 13.52 205.2 112.17c46.95 48.69 66.95 100.86 80 173.9" fill="none" stroke="#faa41a" stroke-width="7"/><path d="m186.63 195.41s194.94 83.64 230.01 319.41c1.32 8.819 2.41 17.859 3.26 27.109" fill="none" stroke="#cb82b7" stroke-width="7"/><path d="m253.83 149.78s127.22 128.58 154.17 304.22" fill="none" stroke="#34a047" stroke-width="7"/><path d="m315.56 129.79s41.74 93.03 73.91 225.19c17.24 70.82 24.74 119.41 27.99 149.28 2.81 25.87 2.44 37.67 2.44 37.67" fill="none" stroke="#0071bc" stroke-width="7"/><path d="m379.93 113.63s25.58 98.7 35.18 234.39c5.41 76.37 4.33 126.77 2.35 156.24-.26 3.88-.54 7.4-.82 10.561-1.36 15.52-2.8 22.6-2.8 22.6" fill="none" stroke="#fbed24" stroke-width="7"/><path d="m447.74 540.19s34.38-62.96 123.47-112.171c91.29-50.43 165.2-28.91 165.2-28.91" fill="none" stroke="#ef947d" stroke-width="7"/><path d="m754.67 317.38s-259.11 33.26-317.37 226.29" fill="none" stroke="#faa41a" stroke-width="7"/><path d="m722.5 257.6s-110.07 13.52-205.2 112.17c-46.96 48.69-66.95 100.86-80 173.9" fill="none" stroke="#ed107f" stroke-width="7"/><path d="m662.75 197.14s-201.98 90.03-225.45 346.53" fill="none" stroke="#8c469b" stroke-width="7"/><path d="m595.55 151.52s-128.6 146.84-155.55 322.48" fill="none" stroke="#58b947" stroke-width="7"/><path d="m533.82 131.52s-49.891 91.32-73.91 225.2c-14.78 82.41-22.92 134.379-26.97 162.049-2.511 17.08-3.46 24.9-3.46 24.9" fill="none" stroke="#ef947d" stroke-width="7"/><path d="m469.45 115.37s-25.58 98.7-35.19 234.39c-6.279 88.82-3.79 142.521-1.319 169.01 1.3 13.971 2.6 20.381 2.6 20.381" fill="none" stroke="#8c469b" stroke-width="7"/><path d="m426.96 760.82c67.28.22 82.89-29.57 82.89-29.57l-42.89-185.49-78.36-.06-42.9 185.48s12.26 29.42 81.26 29.64z" fill="none" stroke="#231f20" stroke-width="21"/><path d="m0 0h850.394v850.394h-850.394z" fill="none"/><g stroke-width="2"><path d="m106 410-4 8" fill="none" stroke="#ed107f"/><path d="m100 398h-12" fill="none" stroke="#ed107f"/><path d="m102 388-8-6" fill="none" stroke="#ed107f"/><path d="m110 372 4 6" fill="none" stroke="#ed107f"/><path d="m88 326-10 2" fill="none" stroke="#8c469b"/><path d="m86 314-12-4" fill="none" stroke="#8c469b"/><path d="m88 302-2-6" fill="none" stroke="#8c469b"/><path d="m96 296 8-4" fill="#8c469b" stroke="#8c469b"/><path d="m118 264-10 4" fill="none" stroke="#faa41a"/><path d="m114 252-10-6" fill="none" stroke="#faa41a"/><path d="m122 240-4-8" fill="none" stroke="#faa41a"/><path d="m132 236 4-6" fill="#faa41a" stroke="#faa41a"/><path d="m200 184 8-12" fill="none" stroke="#cb82b7"/><path d="m188 180-6-10" fill="none" stroke="#cb82b7"/><path d="m180 186-14 2" fill="none" stroke="#cb82b7"/><path d="m178 204-16 6" fill="none" stroke="#cb82b7"/><path d="m240 158h-14" fill="none" stroke="#34a047"/><path d="m242 144-4-8" fill="none" stroke="#34a047"/><path d="m252 136 4-10" fill="none" stroke="#34a047"/><path d="m264 142 6-4" fill="#34a047" stroke="#34a047"/><path d="m298 128-12-6" fill="none" stroke="#0071bc"/><path d="m308 122 2-8" fill="none" stroke="#0071bc"/><path d="m324 118 14-8" fill="none" stroke="#0071bc"/><path d="m364 116-8-6" fill="none" stroke="#fbed24"/><path d="m376 102v-8" fill="none" stroke="#fbed24"/><path d="m390 100 6-12" fill="none" stroke="#fbed24"/><path d="m396 108 10-2" fill="none" stroke="#fbed24"/><path d="m452 114-14-6" fill="none" stroke="#8c469b"/><path d="m458 106-2-16" fill="none" stroke="#8c469b"/><path d="m472 102 8-10" fill="none" stroke="#8c469b"/><path d="m482 118 16-2" fill="none" stroke="#8c469b"/><path d="m516 112 6 14" fill="none" stroke="#ef947d"/><path d="m536 116v-16" fill="none" stroke="#ef947d"/><path d="m544 122 18-12" fill="none" stroke="#ef947d"/><path d="m548 132h16" fill="none" stroke="#ef947d"/><path d="m578 144-6-10" fill="none" stroke="#34a047"/><path d="m592 138 2-12" fill="none" stroke="#34a047"/><path d="m602 144 12-6" fill="none" stroke="#34a047"/><path d="m604 162h10" fill="none" stroke="#34a047"/><path d="m648 184 2-10" fill="none" stroke="#8c469b"/><path d="m662 184 6-12" fill="none" stroke="#8c469b"/><path d="m670 192h18" fill="none" stroke="#8c469b"/><path d="m664 208 14 2" fill="none" stroke="#8c469b"/><path d="m708 244 4-14" fill="none" stroke="#ed107f"/><path d="m726 246 16-10" fill="none" stroke="#ed107f"/><path d="m730 256 10 4" fill="none" stroke="#ed107f"/><path d="m720 272 16 8" fill="none" stroke="#ed107f"/><path d="m744 306 4-10" fill="none" stroke="#faa41a"/><path d="m762 306 10-4" fill="none" stroke="#faa41a"/><path d="m764 320 12 4" fill="none" stroke="#faa41a"/><path d="m750 328 8 8" fill="none" stroke="#faa41a"/><path d="m728 382 10-10" fill="none" stroke="#ef947d"/><path d="m742 394 12-6" fill="none" stroke="#ef947d"/><path d="m744 410 10 4" fill="none" stroke="#ef947d"/><path d="m724 410v12" fill="none" stroke="#ef947d"/></g></svg>