<svg enable-background="new 0 0 850.394 850.394" height="850.394" viewBox="0 0 850.394 850.394" width="850.394" xmlns="http://www.w3.org/2000/svg"><path d="m353.43 156.01-1.03.07-7.3 632.61-194.57-154.23v-545.67z" fill="#c8c8c8"/><path d="m353.43 156.01 341.54-21.95v603.17l-343.79 56.28-6.08-4.819 7.3-632.61zm312.18 529.84v-263.05-244.7l-282.62 19.58-1.21 261.8-1.24 270.409z" fill="#c8c8c8"/><path d="m694.97 134.06-341.54 21.95-202.9-67.22v-3.67l302.19-24.47z" fill="#c8c8c8"/><path d="m569.57 513.95v55.05l-89.31 14.68v-55.05z" fill="#ffffc2"/><path d="m573.85 261.3v55.05l-89.31 7.34v-55.05z" fill="#ffffc2"/><path d="m665.61 422.8v263.05l-285.07 44.04 1.24-270.409 4.88.02zm-96.04 146.2v-55.05l-89.311 14.68v55.05z" fill="#c8c8c8"/><path d="m665.61 178.1v244.7l-278.95 36.7-4.88-.02 1.21-261.8zm-91.76 138.25v-55.05l-89.31 7.34v55.05z" fill="#c8c8c8"/><g fill="none"><path d="m694.97 134.06-242.25-73.41-302.19 24.47v3.67 545.67l194.57 154.23 6.08 4.82 343.79-56.28z" stroke="#231f20" stroke-width="21"/><path d="m345.06 792.29.04-3.6 7.3-632.61 1.03-.07 341.54-21.95" stroke="#231f20" stroke-width="21"/><path d="m150.53 88.79 202.9 67.22.2.07" stroke="#231f20" stroke-width="21"/><path d="m665.61 422.8v263.05l-285.07 44.04 1.24-270.41 1.21-261.8 282.62-19.58z" stroke="#231f20" stroke-width="21"/><path d="m386.66 459.5 278.95-36.7" stroke="#231f20" stroke-width="21"/><path d="m573.85 316.35-89.31 7.34v-55.05l89.31-7.34z" stroke="#231f20" stroke-width="21"/><path d="m569.57 569-89.31 14.68v-55.05l89.31-14.68z" stroke="#231f20" stroke-width="21"/><path d="m0 0h850.394v850.394h-850.394z"/></g></svg>