<svg enable-background="new 0 0 850.394 850.394" height="850.394" viewBox="0 0 850.394 850.394" width="850.394" xmlns="http://www.w3.org/2000/svg"><path d="m323.02 561.81-12.1 12.63-10.57-10.14-13.27-12.73-10.58-10.15 12.09-12.61z" fill="#9e5c26"/><path d="m300.35 564.3-3.15 3.28-43.19 45.05c-2.52 2.64-7.54 1.93-11.21-1.59l-3.48-7.3c0-1.471.46-2.82 1.42-3.82l43.19-45.06 3.15-3.29z" fill="#9e5c26"/><path d="m689.43 140.55c12.69 11.89 24.181 25.01 34.29 39.15 7.96 11.12 15.061 22.89 21.19 35.19-137.23-14.05-184.42 90.3-184.42 90.3l3.68 4.7c14.71-10.55 99.94-64.87 207.49 6.91.229 4.37.34 8.77.34 13.2 0 9.67-.53 19.23-1.58 28.63-1.89 17.08-5.45 33.66-10.52 49.59-4.101 12.87-9.181 25.32-15.16 37.25-18.311 36.521-45.021 68.25-77.66 92.75-11.08 8.32-22.84 15.8-35.19 22.36-14.79 7.86-30.42 14.38-46.729 19.4-12.82 3.96-26.05 6.989-39.62 9.02 51.09-116.29-21.32-191.63-26-196.33 2.87-3.18 3.89-7.61 3.21-12.34 1.84-23.44 8.6-65.88 4.1-67.06-4.17-1.09-50.84 6.5-65.47 8.92-4.59-.27-8.78 1.05-11.689 4.09l-35.34 36.86-1.38-1.32c-40.17 13.9-106.51 22.59-174.96-29.68-.012-.71-.012-1.43-.012-2.14 0-23.96 3.28-47.17 9.42-69.22 3.77-13.54 8.62-26.65 14.45-39.22 18.33-39.51 46.36-73.76 81.11-99.83 11.26-8.45 23.23-16.04 35.8-22.66 15.19-8.02 31.26-14.62 48.03-19.65 12.87-3.87 26.15-6.8 39.761-8.72-54.34 125.95 27.76 201.85 31.689 205.38l2.431-.01c-5.96-16.35-36.5-115.87 66.55-200.91 32.31 7.57 62.35 20.9 88.91 38.84 11.809 7.97 22.939 16.85 33.279 26.55z" fill="#fbee34"/><path d="m744.91 214.89c15.49 31.02 24.92 65.48 26.75 101.91-107.55-71.78-192.78-17.46-207.49-6.91l-3.68-4.7s47.19-104.35 184.42-90.3z" fill="#fbee34"/><path d="m468.14 589.52c-32.34-4.38-62.84-14.439-90.399-29.14 93.319-37.13 116.779-105.8 122.43-144.01l-1.729-1.66 20.84-21.75c.09-.09.18-.19.26-.29 4.68 4.7 77.09 80.04 26 196.33-13.22 1.98-26.76 3-40.54 3-12.512 0-24.812-.84-36.862-2.48z" fill="#fbee34"/><path d="m567.24 75.16c-103.05 85.04-72.51 184.56-66.55 200.91l-2.431.01c-3.93-3.53-86.03-79.43-31.689-205.38 12.55-1.78 25.38-2.7 38.43-2.7 21.43 0 42.27 2.48 62.24 7.16z" fill="#fbee34"/><path d="m414.35 363.14-52.89 55.18-1.06-1.01c-32.07 8.17-69.95 8.38-110.66-10.25-7.43-23.71-11.52-48.86-11.73-74.92 68.45 52.27 134.79 43.58 174.96 29.68z" fill="#fbee34"/><path d="m364.46 462.95 28.5 27.33c9.52 9.12 22.53 10.97 29.07 4.14l4.14-4.32 72.271-75.39 1.729 1.66c-5.65 38.21-29.11 106.88-122.43 144.01-14.37-7.649-27.94-16.57-40.56-26.6l47.82-49.9-21.15-20.29z" fill="#fbee34"/><path d="m364.46 462.95-.61.64-48.62 50.71c-29.93-29.67-52.68-66.319-65.49-107.24 40.71 18.63 78.59 18.42 110.66 10.25l1.06 1.01-4.88 5.09-4.13 4.31c-6.55 6.82-4.14 19.74 5.37 28.87z" fill="#fbee34"/><path d="m744.91 214.89c15.49 31.02 24.92 65.48 26.75 101.91-107.55-71.78-192.78-17.46-207.49-6.91l-3.68-4.7s47.19-104.35 184.42-90.3z" fill="#fbee34"/><path d="m364.46 462.95 28.5 27.33c9.52 9.12 22.53 10.97 29.07 4.14l4.14-4.32 72.271-75.39 1.729 1.66c-5.65 38.21-29.11 106.88-122.43 144.01-14.37-7.649-27.94-16.57-40.56-26.6l47.82-49.9-21.15-20.29z" fill="#fbee34"/><path d="m567.24 75.16c-103.05 85.04-72.51 184.56-66.55 200.91l-2.431.01c-3.93-3.53-86.03-79.43-31.689-205.38 12.55-1.78 25.38-2.7 38.43-2.7 21.43 0 42.27 2.48 62.24 7.16z" fill="#fbee34"/><path d="m364.46 462.95-.61.64-48.62 50.71c-29.93-29.67-52.68-66.319-65.49-107.24 40.71 18.63 78.59 18.42 110.66 10.25l1.06 1.01-4.88 5.09-4.13 4.31c-6.55 6.82-4.14 19.74 5.37 28.87z" fill="#fbee34"/><path d="m414.35 363.14-52.89 55.18-1.06-1.01c-32.07 8.17-69.95 8.38-110.66-10.25-7.43-23.71-11.52-48.86-11.73-74.92 68.45 52.27 134.79 43.58 174.96 29.68z" fill="#fbee34"/><path d="m468.14 589.52c-32.34-4.38-62.84-14.439-90.399-29.14 93.319-37.13 116.779-105.8 122.43-144.01l-1.729-1.66 20.84-21.75c.09-.09.18-.19.26-.29 4.68 4.7 77.09 80.04 26 196.33-13.22 1.98-26.76 3-40.54 3-12.512 0-24.812-.84-36.862-2.48z" fill="#fbee34"/><path d="m689.43 140.55c12.69 11.89 24.181 25.01 34.29 39.15 7.96 11.12 15.061 22.89 21.19 35.19-137.23-14.05-184.42 90.3-184.42 90.3l3.68 4.7c14.71-10.55 99.94-64.87 207.49 6.91.229 4.37.34 8.77.34 13.2 0 9.67-.53 19.23-1.58 28.63-1.89 17.08-5.45 33.66-10.52 49.59-4.101 12.87-9.181 25.32-15.16 37.25-18.311 36.521-45.021 68.25-77.66 92.75-11.08 8.32-22.84 15.8-35.19 22.36-14.79 7.86-30.42 14.38-46.729 19.4-12.82 3.96-26.05 6.989-39.62 9.02 51.09-116.29-21.32-191.63-26-196.33 2.87-3.18 3.89-7.61 3.21-12.34 1.84-23.44 8.6-65.88 4.1-67.06-4.17-1.09-50.84 6.5-65.47 8.92-4.59-.27-8.78 1.05-11.689 4.09l-35.34 36.86-1.38-1.32c-40.17 13.9-106.51 22.59-174.96-29.68-.012-.71-.012-1.43-.012-2.14 0-23.96 3.28-47.17 9.42-69.22 3.77-13.54 8.62-26.65 14.45-39.22 18.33-39.51 46.36-73.76 81.11-99.83 11.26-8.45 23.23-16.04 35.8-22.66 15.19-8.02 31.26-14.62 48.03-19.65 12.87-3.87 26.15-6.8 39.761-8.72-54.34 125.95 27.76 201.85 31.689 205.38l2.431-.01c-5.96-16.35-36.5-115.87 66.55-200.91 32.31 7.57 62.35 20.9 88.91 38.84 11.809 7.97 22.939 16.85 33.279 26.55z" fill="#fbee34"/><path d="m426.17 490.1-4.14 4.32c-6.54 6.83-19.55 4.98-29.07-4.14l-28.5-27.33-6.64-6.36c-9.51-9.13-11.92-22.05-5.37-28.87l4.13-4.31 1.81 1.73 67.07 64.28z" fill="#0d72ba"/><path d="m337.18 533.78-20.54 21.43-21.17-20.3 19.76-20.61c6.94 6.88 14.27 13.39 21.95 19.48z" fill="#9e5c26"/><path d="m385 483.88-47.82 49.9c-7.68-6.09-15.01-12.601-21.95-19.48l48.62-50.71z" fill="#9e5c26"/><path d="m526.85 313.27c4.5 1.18-2.26 43.62-4.1 67.06-.76-5.49-3.8-11.4-8.85-16.22l-35.15-33.7c-5.27-5.06-11.64-7.88-17.37-8.22 14.63-2.42 61.3-10.01 65.47-8.92z" fill="#a9d7f3"/><path d="m522.75 380.33c.68 4.73-.34 9.16-3.21 12.34-.08.1-.17.2-.26.29l-20.84 21.75-72.27 75.39-.71-.68-67.07-64.28-1.81-1.73 4.88-5.09 52.89-55.18 35.34-36.86c2.909-3.04 7.1-4.36 11.689-4.09 5.73.34 12.101 3.16 17.37 8.22l35.15 33.7c5.051 4.82 8.091 10.73 8.851 16.22z" fill="#0d72ba"/><g fill="none"><path d="m426.17 490.1-4.14 4.32c-6.54 6.83-19.55 4.98-29.07-4.14l-28.5-27.33-6.64-6.36c-9.51-9.13-11.92-22.05-5.37-28.87l4.13-4.31 4.88-5.09 52.89-55.18 35.34-36.86c2.909-3.04 7.1-4.36 11.689-4.09 5.73.34 12.101 3.16 17.37 8.22l35.15 33.7c5.05 4.82 8.09 10.73 8.85 16.22.68 4.73-.34 9.16-3.21 12.34-.08.1-.17.2-.26.29l-20.84 21.75z" stroke="#231f20" stroke-width="14"/><path d="m457.02 322.92s1.62-.27 4.36-.73c14.63-2.42 61.3-10.01 65.47-8.92 4.5 1.18-2.26 43.62-4.1 67.06-.12 1.53-.22 2.97-.29 4.32" stroke="#231f20" stroke-width="14"/><path d="m358.39 425.14 67.07 64.28" stroke="#231f20" stroke-width="14"/><path d="m337.18 533.78-20.54 21.43-21.17-20.3 19.76-20.61 48.62-50.71 21.15 20.29z" stroke="#231f20" stroke-width="14"/><path d="m287.08 551.57-10.58-10.15 12.09-12.61 34.43 33-12.1 12.63-10.57-10.14z" stroke="#231f20" stroke-width="14"/><path d="m297.2 567.58-43.19 45.05c-2.52 2.64-7.54 1.93-11.21-1.59l-3.48-7.3c0-1.471.46-2.82 1.42-3.82l43.19-45.06" stroke="#231f20" stroke-width="14"/><path d="m241.27 611.68-129.99 135.61" stroke="#231f20" stroke-width="14"/><path d="m521.66 279.73s-4.021-119.73 134.49-165.73c5.64-1.88 11.52-3.63 17.649-5.25" stroke="#231f20" stroke-dasharray="19.8465" stroke-width="19.8465"/><path d="m539.03 283.72s13.01-115.31 150.399-143.17c7.9-1.6 16.21-2.91 24.95-3.9" stroke="#231f20" stroke-width="14"/><path d="m545.19 296.05s32.909-114.96 178.529-116.35c6.061-.07 12.311.07 18.771.42" stroke="#231f20" stroke-dasharray="19.8465" stroke-width="19.8465"/><path d="m560.49 305.19s47.189-104.35 184.42-90.3c8.84.91 18.05 2.31 27.649 4.25" stroke="#231f20" stroke-width="14"/><path d="m561.92 311.57s.771-.62 2.25-1.68c14.71-10.55 99.94-64.87 207.49 6.91 6.06 4.04 12.189 8.49 18.38 13.36" stroke="#231f20" stroke-dasharray="19.8465" stroke-width="19.8465"/><path d="m569.21 327.85s97.6-57.66 201.21 30.78c7.24 6.17 14.5 13.06 21.771 20.73" stroke="#231f20" stroke-width="14"/><path d="m563.03 340.2s108.7-41.8 196.87 68.02c4.899 6.1 9.739 12.68 14.489 19.76" stroke="#231f20" stroke-dasharray="19.8465" stroke-width="19.8465"/><path d="m564.96 357.9s108.31-24.35 179.78 87.57c5.8 9.08 11.35 19.05 16.59 30.011" stroke="#231f20" stroke-width="14"/><path d="m556.33 364.48s109.5 35.12 110.75 173.74c.08 8.641-.26 17.681-1.08 27.141" stroke="#231f20" stroke-dasharray="19.8465" stroke-width="19.8465"/><path d="m546.75 379.47s99.76 48.98 85.14 181.11c-1.17 10.65-3.09 21.84-5.859 33.59" stroke="#231f20" stroke-width="14"/><path d="m533.04 381.09s93.15 66.91 52.12 198.891c-2.61 8.399-5.76 17.069-9.521 26" stroke="#231f20" stroke-dasharray="19.8465" stroke-width="19.8465"/><path d="m519.3 392.43s.08.08.24.24c4.68 4.7 77.09 80.04 26 196.33-4.56 10.38-10.1 21.09-16.771 32.1" stroke="#231f20" stroke-width="14"/><path d="m500.17 416.37c-5.65 38.21-29.11 106.88-122.43 144.01-6.15 2.46-12.59 4.771-19.36 6.92" stroke="#231f20" stroke-dasharray="19.8465" stroke-width="19.8465"/><path d="m517.07 415.62c9.64 36.24 15.109 105.11-48.931 173.899-6.39 6.881-13.489 13.771-21.359 20.62" stroke="#231f20" stroke-dasharray="19.8465" stroke-width="19.8465"/><path d="m360.4 417.31c-32.07 8.17-69.95 8.38-110.66-10.25-11.18-5.12-22.57-11.65-34.12-19.84" stroke="#231f20" stroke-dasharray="19.8465" stroke-width="19.8465"/><path d="m412.97 361.82c-40.17 13.9-106.51 22.59-174.96-29.68-7.12-5.43-14.26-11.53-21.39-18.34" stroke="#231f20" stroke-width="14"/><path d="m423.1 339.4c-41.09 5.83-112.38.92-175.68-78.62-1.86-2.35-3.73-4.76-5.58-7.24" stroke="#231f20" stroke-dasharray="19.8465" stroke-width="19.8465"/><path d="m454.54 312.97s-115.28 32.1-192.67-91.41c-3.19-5.1-6.32-10.47-9.38-16.12" stroke="#231f20" stroke-width="14"/><path d="m462.79 305.99s-119.73-31.87-119.81-184.26c0-3.55.06-7.17.19-10.85" stroke="#231f20" stroke-dasharray="19.8465" stroke-width="19.8465"/><path d="m471.64 290.51s-109.649-47.13-92.86-191.44c.72-6.15 1.67-12.47 2.86-18.98" stroke="#231f20" stroke-width="14"/><path d="m485.24 288.2s-102.53-66.07-58.431-208.78c1.381-4.47 2.91-9.02 4.591-13.65" stroke="#231f20" stroke-dasharray="19.8465" stroke-width="19.8465"/><path d="m501.59 278.4s-.34-.8-.899-2.33c-5.96-16.35-36.5-115.87 66.55-200.91 4.54-3.75 9.34-7.48 14.42-11.16" stroke="#231f20" stroke-dasharray="19.8465" stroke-width="19.8465"/><path d="m498.4 276.21s-.051-.04-.141-.13c-3.93-3.53-86.03-79.43-31.689-205.38 3.149-7.3 6.75-14.76 10.859-22.39" stroke="#231f20" stroke-width="14"/><path d="m293.06 603.44s-88.5 113.949-90.52 198.119" stroke="#231f20" stroke-width="14"/><path d="m244.79 559.19s-100.77 90.109-184.9 93.329" stroke="#231f20" stroke-width="14"/><path d="m0 0h850.394v850.394h-850.394z"/></g></svg>