<svg enable-background="new 0 0 850.394 850.394" height="850.394" viewBox="0 0 850.394 850.394" width="850.394" xmlns="http://www.w3.org/2000/svg"><path d="m106.972 427.557c-1.695 2.869-2.661 6.213-2.661 9.783 0 4.442 1.496 8.524 4.025 11.791-4.631-3.438-9.3-6.979-13.988-10.616 4.233-3.742 8.438-7.398 12.624-10.958z" fill="#fff"/><path d="m525.491 547.174c10.873 3.372 20.012 6.545 28.726 8.912-8.714-1.581-17.853-3.012-28.726-2.822l-2.064-5.294c.691-.266 1.383-.53 2.064-.806z" fill="#fff"/><path d="m108.336 449.131c2.889 2.16 5.768 4.281 8.638 6.355-3.457-1.269-6.441-3.495-8.638-6.355z"/><path d="m106.972 427.557c2.235-3.845 5.777-6.838 10.02-8.401-3.324 2.737-6.667 5.54-10.02 8.401z"/><path d="m123.679 417.972c10.674 0 19.34 8.666 19.34 19.368 0 10.674-8.666 19.34-19.34 19.34-2.358 0-4.622-.427-6.705-1.193-2.87-2.074-5.749-4.195-8.638-6.355-2.529-3.267-4.025-7.349-4.025-11.791 0-3.57.966-6.914 2.661-9.783 3.353-2.86 6.696-5.664 10.02-8.401 2.084-.768 4.338-1.185 6.687-1.185z"/><path d="m210.072 433.59c0-10.731 8.694-19.425 19.425-19.425 10.702 0 19.396 8.694 19.396 19.425 0 10.73-8.694 19.396-19.396 19.396-10.73 0-19.425-8.666-19.425-19.396z"/><path d="m454.308 298.269c102.996 14.936 161.441 77.245 161.441 77.245s20.429-82.738 131.153-103.876c0 0-85.286 159.84-11.252 277.905-75.729-24.72-111.027-67.253-111.027-67.253s-9.414 10.892-27.807 24.946c-16.574 12.672-40.459 27.873-71.325 39.929-.682.275-1.373.54-2.064.806-28.262 10.815-62.252 18.941-101.736 20.116-26.803.833-56.153-1.544-87.966-8.467-62.821-13.657-135.264-44.959-216.751-104.133 2.083.767 4.347 1.193 6.705 1.193 10.674 0 19.34-8.666 19.34-19.34 0-10.702-8.666-19.368-19.34-19.368-2.349 0-4.603.417-6.687 1.184 74.053-61.097 141.609-95.021 201.446-111.387 51.219-14.046 96.765-15.192 135.87-9.5zm-244.236 135.321c0 10.73 8.694 19.396 19.425 19.396 10.702 0 19.396-8.666 19.396-19.396 0-10.731-8.694-19.425-19.396-19.425-10.73 0-19.425 8.694-19.425 19.425z" fill="#a3d9ff"/><path d="m421.956 575.928c-6.525 17.853-16.139 38.594-29.161 53.037-19.197-22.229-40.336-43.689-59.79-65.975l.72-3.371c31.813 6.923 61.163 9.3 87.966 8.467z" fill="#a3d9ff"/><path d="m318.438 307.769c30.354-14.822 128.236-89.405 135.643-90.693 1.061 22.977.227 58.132.227 81.194-39.105-5.693-84.651-4.547-135.87 9.499z" fill="#a3d9ff"/><path d="m525.491 547.164c30.866-12.056 54.751-27.257 71.325-39.929-.464 17.445 4.291 33.811 2.917 51.437-.672.113-1.345.228-1.998.322-16.925 2.538-29.682-.389-43.519-2.908-8.714-2.367-17.853-5.54-28.726-8.912v-.01z" fill="#a3d9ff"/><g fill="none"><path d="m454.308 298.269c102.996 14.936 161.441 77.245 161.441 77.245s20.429-82.738 131.153-103.876c0 0-85.286 159.84-11.252 277.905-75.729-24.72-111.027-67.253-111.027-67.253s-9.414 10.892-27.807 24.946c-16.574 12.672-40.459 27.873-71.325 39.929-.682.275-1.373.54-2.064.806-28.262 10.815-62.252 18.941-101.736 20.116-26.803.833-56.153-1.544-87.966-8.467-62.821-13.657-135.264-44.959-216.751-104.133-2.87-2.074-5.749-4.195-8.638-6.355-4.631-3.438-9.3-6.979-13.988-10.616 4.233-3.741 8.438-7.397 12.625-10.958 3.353-2.86 6.696-5.664 10.02-8.401 74.053-61.097 141.609-95.021 201.446-111.387 51.218-14.047 96.764-15.193 135.869-9.501z" stroke="#000" stroke-width="28.4127"/><path d="m336.177 415.651c22.948 7.236 70.53 17.881 39.371 41.918-18.743 14.443-21.234 16.82-42.117 14.443" stroke="#000" stroke-width="28.4127"/><path d="m333.005 562.99c19.453 22.285 40.592 43.746 59.79 65.975 13.022-14.443 22.636-35.185 29.161-53.037" stroke="#000" stroke-width="28.4127"/><path d="m525.491 547.174c10.873 3.372 20.012 6.545 28.726 8.912 13.827 3.77 26.585 5.531 43.519 2.908.653-.095 1.326-.209 1.998-.322 1.374-17.626-3.381-33.991-2.917-51.437" stroke="#000" stroke-width="28.4127"/><path d="m318.438 307.769c30.354-14.822 128.236-89.405 135.643-90.693 1.061 22.977.227 58.132.227 81.194" stroke="#000" stroke-width="28.4127"/><path d="m0 0h850.394v850.394h-850.394z"/></g></svg>