<svg enable-background="new 0 0 850.394 850.394" height="850.394" viewBox="0 0 850.394 850.394" width="850.394" xmlns="http://www.w3.org/2000/svg"><path d="m748.73 280v106h-398.73l-1.03-1.42 75.52-54.56-69.3-48.87.81-1.15z" fill="#231f20"/><path d="m355.19 281.15-44.16-31.15h437.7v30h-392.73z" fill="#fff"/><path d="m299.08 363.92-2.9-16.92 36.76-35.83-50.8-2.34-.57-1.29 9.1-6.85 23.43-20.04-1.47-1.77-23.73 17.39-3.1-.3-7.36 4.55-19.02-42.77-16.75 37.66c-1.45-1.6-3.33-3.6-4.91-5.04-1.51-1.36-3.93 2.06-4.82 3.44-.21.33-.33.54-.34.54l-7.96.15-12.21 15.45-26.53 1.22 36.16 35.24c-.07.24-.13.48-.2.71l-20.95 15.92 7.66 9.72 11.77-12.25-6.36 37.08 45.44-28.93 45.44 28.93zm11.95-113.92 44.16 31.15 69.3 48.87-75.52 54.56-33.73 24.37-155.23 112.15-4.01 2.9h-1.66v-384.4h.15z" fill="#ed1d31"/><path d="m748.73 136.06v113.94h-437.7l-156.54-110.4h-.15v-3.54h2.5z" fill="#6ebe44"/><path d="m315.24 408.95 33.73-24.37 1.03 1.42h398.73v24h-2.73-430z" fill="#fff"/><path d="m160.01 521.1 155.23-112.15.76 1.05h430 2.73v111.62h-588.35z" fill="#fbee34"/><path d="m233.04 294.5 7.03 6.76-3.37 7.57-5.95.27 3.03-3.8.33-9.62z" fill="#231f20"/><path d="m154.34 524v266.82l-40.09-2.551-.25-677.789c5.69 2.4 12.3 3.77 19.34 3.77 7.74 0 14.95-1.65 21-4.5v26.31 3.54z" fill="#c8c8c8"/><path d="m261.93 321.47s22.44-.06 23.58 4.28c1.52 5.8 7.95 29.69 8.76 32.7l-32.46-36.88z" fill="#fff"/><path d="m257.58 323.33v14.3c-5.57-1.97-10.98-4.37-10.98-4.37z" fill="#fff"/><path d="m294.27 358.46 1.7 1.92h-38.39v-1.18-12.4c4.04 1.34 6.41 1.79 6.41 1.79l1.33-8.69c-2.19-.42-4.99-1.3-7.74-2.27v-14.3l3.22-2.91 1.01 1.15 32.46 36.88z" fill="#fff"/><path d="m222.06 346.41c2.26-8 5.64-18.9 6.41-21.84.95-3.61 15.02-3.56 19.71-3.44l-24.43 20.83-.14 3.83-1.23.94z" fill="#fff"/><path d="m235.4 358.32v2.06h-14.93l9.77-10.17z" fill="#fff"/><path d="m257.58 360.38h-22.18v-2.06l2.95-1.62-3.84-10.17 5.46-7.52c7.2 3.94 13.34 6.36 17.61 7.79v12.4z" fill="#fff"/><path d="m299.08 363.92 5.78 33.67-45.44-28.93-45.44 28.93 6.36-37.08.13-.13h14.93 22.18 38.39z" fill="#fbee34"/><path d="m240.07 301.26.63.61c2.26 1.25 3.43 1.03 4.02.27l11.03 12.54-7.57 6.45c-4.69-.12-18.76-.17-19.71 3.44-.77 2.94-4.15 13.84-6.41 21.84l-36.16-35.24 26.53-1.22-6.66 8.43 9.73 9.87 15.25-19.15 5.95-.27z" fill="#fbee34"/><path d="m296.18 347 2.9 16.92-3.11-3.54-1.7-1.92c0-.01 0-.01 0-.01-.81-3.01-7.24-26.9-8.76-32.7-1.14-4.34-23.58-4.28-23.58-4.28l-.12.1-1.01-1.15 12.03-10.88 3.54 1.91 5.2-3.91.57 1.29 50.8 2.34z" fill="#fbee34"/><path d="m259.42 257.75 19.02 42.77-2.66 1.64-5.01-.29-15.02 12.81-11.03-12.54c.98-1.27.33-4.03.33-4.03s-1-1.17-2.38-2.7z" fill="#fbee34"/><path d="m288.9 296.27 23.73-17.39 1.47 1.77-23.43 20.04-9.1 6.85-3.13-7.02 7.36-4.55z" fill="#231f20"/><path d="m281.57 307.54-5.2 3.91-3.54-1.91-12.03 10.88-5.05-5.74 15.02-12.81 5.01.29 2.66-1.64z" fill="#231f20"/><path d="m265.32 339.9-1.33 8.69s-2.37-.45-6.41-1.79v-9.17c2.75.97 5.55 1.85 7.74 2.27z" fill="#231f20"/><path d="m255.75 314.68 5.05 5.74-3.22 2.91-10.98 9.93s5.41 2.4 10.98 4.37v9.17c-4.27-1.43-10.41-3.85-17.61-7.79l-5.46 7.52 3.84 10.17-2.95 1.62-5.16-8.11-9.77 10.17h-.11l2.3-13.38-.28-.27 1.23-.94.14-3.83 24.43-20.83z" fill="#231f20"/><path d="m244.72 302.14c-.59.76-1.76.98-4.02-.27l-.63-.61 2.6-5.85c1.38 1.53 2.38 2.7 2.38 2.7s.65 2.76-.33 4.03z" fill="#231f20"/><path d="m237.76 290.37c1.58 1.44 3.46 3.44 4.91 5.04l-2.6 5.85-7.03-6.76-.44-.15c.01 0 .13-.21.34-.54.89-1.38 3.31-4.8 4.82-3.44z" fill="#231f20"/><path d="m233.04 294.5 1.07 1.18-.33 9.62-3.03 3.8-18.32.85 12.21-15.45 7.96-.15z" fill="#231f20"/><path d="m230.75 309.1-15.25 19.15-9.73-9.87 6.66-8.43z" fill="#231f20"/><path d="m221.86 347.12.52-.39.28.27-2.3 13.38-.02.13-11.77 12.25-7.66-9.72z" fill="#231f20"/><path d="m220.47 360.38-.13.13.02-.13z" fill="#231f20"/><path d="m154.34 109.75c-6.05 2.85-13.26 4.5-21 4.5-7.04 0-13.65-1.37-19.34-3.77-11.64-4.87-19.48-14.03-19.48-24.53 0-15.63 17.38-28.3 38.82-28.3 21.45 0 38.83 12.67 38.83 28.3 0 9.99-7.1 18.77-17.83 23.8z" fill="#c8c8c8"/><g fill="none"><path d="m156.84 136.06h591.89v113.94 30 106 24 111.62h-588.35" stroke="#231f20" stroke-width="21.2233"/><path d="m114 110.48c-11.64-4.87-19.48-14.03-19.48-24.53 0-15.63 17.38-28.3 38.82-28.3 21.45 0 38.83 12.67 38.83 28.3 0 9.99-7.1 18.77-17.83 23.8-6.05 2.85-13.26 4.5-21 4.5-7.04 0-13.65-1.37-19.34-3.77z" stroke="#231f20" stroke-width="21.2233"/><path d="m114 110v.48l.25 677.79v2.55" stroke="#231f20" stroke-width="21.2233"/><path d="m154.34 107.91v1.84 26.31 3.54 384.4 266.82" stroke="#231f20" stroke-width="21.2233"/><path d="m154.49 139.6 156.54 110.4 44.16 31.15 69.3 48.87-75.52 54.56-33.73 24.37-155.23 112.15-4.01 2.9" stroke="#231f20" stroke-width="7"/><path d="m310 250h1.03 437.7 3.27" stroke="#231f20" stroke-width="7"/><path d="m356 280h392.73 1.27" stroke="#231f20" stroke-width="7"/><path d="m350 386h398.73 1.27" stroke="#231f20" stroke-width="7"/><path d="m316 410h430" stroke="#231f20" stroke-width="7"/><path d="m234.11 295.68-.33 9.62-3.03 3.8-15.25 19.15-9.73-9.87 6.66-8.43 12.21-15.45 7.96-.15c.01 0 .13-.21.34-.54.89-1.38 3.31-4.8 4.82-3.44 1.58 1.44 3.46 3.44 4.91 5.04 1.38 1.53 2.38 2.7 2.38 2.7s.65 2.76-.33 4.03c-.59.76-1.76.98-4.02-.27l-.63-.61-7.03-6.76" stroke="#231f20" stroke-width="1.7686"/><path d="m294.27 358.46 1.7 1.92 3.11 3.54 4.41 5.01" stroke="#231f20" stroke-width="5.3058"/><path d="m260.8 320.42 1.01 1.15 32.46 36.88" stroke="#231f20" stroke-width="5.3058"/><path d="m244.09 301.43.63.71 11.03 12.54" stroke="#231f20" stroke-width="5.3058"/><path d="m220.47 360.38h14.93 22.18 38.39.15" stroke="#231f20" stroke-width="5.3058"/><path d="m257.58 337.63v-14.3" stroke="#231f20" stroke-width="5.3058"/><path d="m257.58 359.2v-12.4" stroke="#231f20" stroke-width="5.3058"/><path d="m261.93 321.47s22.44-.06 23.58 4.28c1.52 5.8 7.95 29.69 8.76 32.7v.01c.05.2.08.3.08.3" stroke="#231f20" stroke-width="5.3058"/><path d="m248.18 321.13c-4.69-.12-18.76-.17-19.71 3.44-.77 2.94-4.15 13.84-6.41 21.84-.07.24-.13.48-.2.71" stroke="#231f20" stroke-width="5.3058"/><path d="m220.34 360.51-11.77 12.25-7.66-9.72 20.95-15.92.52-.39 1.23-.94.14-3.83 24.43-20.83 7.57-6.45 15.02-12.81 5.01.29 2.66-1.64 7.36-4.55 3.1.3 23.73-17.39 1.47 1.77-23.43 20.04-9.1 6.85-5.2 3.91-3.54-1.91-12.03 10.88-3.22 2.91-10.98 9.93s5.41 2.4 10.98 4.37c2.75.97 5.55 1.85 7.74 2.27l-1.33 8.69s-2.37-.45-6.41-1.79c-4.27-1.43-10.41-3.85-17.61-7.79l-5.46 7.52 3.84 10.17-2.95 1.62-5.16-8.11-9.77 10.17z" stroke="#231f20" stroke-width="1.7686"/><path d="m242.67 295.41 16.75-37.66 19.02 42.77 3.13 7.02.57 1.29 50.8 2.34-36.76 35.83 2.9 16.92 5.78 33.67-45.44-28.93-45.44 28.93 6.36-37.08.02-.13 2.3-13.38-.28-.27-.32-.32-36.16-35.24 26.53-1.22 18.32-.85 5.95-.27 3.37-7.57z" stroke="#231f20" stroke-width="5.3058"/><path d="m0 0h850.394v850.394h-850.394z"/></g></svg>