<svg enable-background="new 0 0 850.394 850.394" height="850.394" viewBox="0 0 850.394 850.394" width="850.394" xmlns="http://www.w3.org/2000/svg"><path d="m162.61 476.41v308.97h-39.49l-1.12-670.61c5.8 2.59 12.62 4.08 19.92 4.08 7.62 0 14.73-1.63 20.69-4.43v62.66z" fill="#c8c8c8"/><path d="m748.18 479.6v40.57h-32.18v-2.17l-270.54-159.41-251.46 161.41v.17h-25.44l-.43-47.13 84.63-51.62 166.77-96.82-167.23-96.02-86.88-49.88-.35-38.36h32.93v1.66l251.51 154.34 266.49-152.34v-3.66h32.18v37.12l-3.42 1.93-90.42 51.2-167.8 95.01 166.18 97.81 88.34 52z" fill="#fbed24"/><path d="m748.18 177.46v302.14l-7.12-4.19-88.34-52-166.18-97.81 167.8-95.01 90.42-51.2z" fill="#231f20"/><path d="m716 518v2.17h-522v-.17l251.46-161.41z" fill="#34a047"/><path d="m716 140.34v3.66l-266.49 152.34-251.51-154.34v-1.66z" fill="#34a047"/><path d="m419.53 324.6-166.77 96.82-84.63 51.62-2.71-294.34 86.88 49.88z" fill="#231f20"/><path d="m162.61 114.42c-5.96 2.8-13.07 4.43-20.69 4.43-7.3 0-14.12-1.49-19.92-4.08-10.99-4.89-18.33-13.72-18.33-23.8 0-15.4 17.13-27.88 38.25-27.88 21.13 0 38.26 12.48 38.26 27.88 0 9.84-7 18.49-17.57 23.45z" fill="#c8c8c8"/><g fill="none"><path d="m165.07 140.34h32.93 518 32.18v37.12 302.14 40.57h-32.18-522-25.44" stroke="#231f20" stroke-width="21"/><path d="m122 114.77c-10.99-4.89-18.33-13.72-18.33-23.8 0-15.4 17.13-27.88 38.25-27.88 21.13 0 38.26 12.48 38.26 27.88 0 9.84-7 18.49-17.57 23.45-5.96 2.8-13.07 4.43-20.69 4.43-7.3 0-14.12-1.49-19.92-4.08z" stroke="#231f20" stroke-width="21"/><path d="m122 114v.77l1.12 670.61" stroke="#231f20" stroke-width="21"/><path d="m162.61 112.6v1.82 62.66 299.33 308.97" stroke="#231f20" stroke-width="21"/><path d="m744.76 179.39 3.42-1.93 2.01-1.14" stroke="#231f20" stroke-width="14"/><path d="m741.06 475.41-88.34-52-166.18-97.81 167.8-95.01 90.42-51.2" stroke="#231f20" stroke-width="14"/><path d="m751.2 481.38-3.02-1.78-7.12-4.19" stroke="#231f20" stroke-width="14"/><path d="m162.55 177.05.06.03 2.81 1.62 86.88 49.88 167.23 96.02-166.77 96.82-84.63 51.62-5.52 3.37-2.61 1.59" stroke="#231f20" stroke-width="14"/><path d="m194 520 251.46-161.41 270.54 159.41" stroke="#231f20" stroke-width="14"/><path d="m716 144-266.49 152.34-251.51-154.34" stroke="#231f20" stroke-width="14"/><path d="m0 0h850.394v850.394h-850.394z"/></g></svg>