<svg enable-background="new 0 0 850.394 850.394" height="850.394" viewBox="0 0 850.394 850.394" width="850.394" xmlns="http://www.w3.org/2000/svg"><path d="m162.61 114.42v670.96h-39.49l-1.12-670.61c5.8 2.59 12.62 4.08 19.92 4.08 7.62 0 14.73-1.63 20.69-4.43z" fill="#c8c8c8"/><path d="m362.84 340h182.32 49.36l-38.27 49.73-2.25-1.73h-194l-3.24 2.49-37.98-49.56 1.22-.93h42.83z" fill="#0071bc"/><path d="m356.76 390.49 99.24 129.51v.17h-287.44l-3.49-379.83 153.71 200.59z" fill="#ed1e29"/><path d="m748.18 177.46v342.71h-292.18v-.17l100.25-130.27 38.27-49.73 153.66-199.66z" fill="#ed1e29"/><path d="m360 388h194l2.25 1.73-100.25 130.27-99.24-129.51z" fill="#fff"/><path d="m566.06 336-20.9 4h-182.32-.01l-20.89-4 57.11-10.93-48.57-31.95 56.93 11.75-32.65-48.1 48.11 32.64-11.75-56.94 31.95 48.58 10.93-57.1 10.93 57.1 31.95-48.58-11.75 56.94 48.11-32.64-32.65 48.1 56.93-11.75-48.57 31.95z" fill="#fbed24"/><path d="m508.95 325.07 48.57-31.95-56.93 11.75 32.65-48.1-48.11 32.64 11.75-56.94-31.95 48.58-10.93-57.1-10.93 57.1-31.95-48.58 11.75 56.94-48.11-32.64 32.65 48.1-56.93-11.75 48.57 31.95-57.11 10.93 20.89 4h-42.83l-1.22.93-153.71-200.59h583.11l-153.66 199.66h-49.36l20.9-4z" fill="#231f20"/><path d="m162.61 114.42c-5.96 2.8-13.07 4.43-20.69 4.43-7.3 0-14.12-1.49-19.92-4.08-10.99-4.89-18.33-13.72-18.33-23.8 0-15.4 17.13-27.88 38.25-27.88 21.13 0 38.26 12.48 38.26 27.88 0 9.84-7 18.49-17.57 23.45z" fill="#c8c8c8"/><g fill="none"><path d="m165.07 140.34h583.11v37.12 342.71h-292.18-287.44" stroke="#231f20" stroke-width="21"/><path d="m122 114.77c-10.99-4.89-18.33-13.72-18.33-23.8 0-15.4 17.13-27.88 38.25-27.88 21.13 0 38.26 12.48 38.26 27.88 0 9.84-7 18.49-17.57 23.45-5.96 2.8-13.07 4.43-20.69 4.43-7.3 0-14.12-1.49-19.92-4.08z" stroke="#231f20" stroke-width="21"/><path d="m122 114v.77l1.12 670.61" stroke="#231f20" stroke-width="21"/><path d="m162.61 112.6v1.82 670.96" stroke="#231f20" stroke-width="21"/><path d="m744.76 179.39 3.42-1.93 2.01-1.14" stroke="#231f20" stroke-width="14"/><path d="m165.07 140.34 153.71 200.59 37.98 49.56 99.24 129.51" stroke="#231f20" stroke-width="14"/><path d="m748.18 140.34-153.66 199.66-38.27 49.73-100.25 130.27" stroke="#231f20" stroke-width="14"/><path d="m362.83 340-20.89-4 57.11-10.93-48.57-31.95 56.93 11.75-32.65-48.1 48.11 32.64-11.75-56.94 31.95 48.58 10.93-57.1 10.93 57.1 31.95-48.58-11.75 56.94 48.11-32.64-32.65 48.1 56.93-11.75-48.57 31.95 57.11 10.93-20.9 4-6.9 1.32" stroke="#231f20" stroke-width="7"/><path d="m373.59 342.06-10.75-2.06" stroke="#231f20" stroke-width="7"/><path d="m362.84 340h182.32 49.36 1.48" stroke="#231f20" stroke-width="14"/><path d="m362.83 340h.01" stroke="#231f20" stroke-width="7"/><path d="m320 340h42.83" stroke="#231f20" stroke-width="14"/><path d="m360 388h194" stroke="#231f20" stroke-width="14"/><path d="m0 0h850.394v850.394h-850.394z"/></g></svg>