<svg enable-background="new 0 0 850.394 850.394" height="850.394" viewBox="0 0 850.394 850.394" width="850.394" xmlns="http://www.w3.org/2000/svg"><path d="m424 334-179.95 124.58-75.58 52.32-3.4-370.56 78.56 58.76z" fill="#ed1e29"/><path d="m243.63 199.1-78.56-58.76h10.93v1.66l562 194-564 178-5.5.05-.03-3.15 75.58-52.32.19.27 401.76-122.85z" fill="#fff"/><path d="m162.61 140.34v373.66 271.38h-39.49l-1.12-670.61c5.8 2.59 12.62 4.08 19.92 4.08 7.62 0 14.73-1.63 20.69-4.43z" fill="#c8c8c8"/><path d="m646 336-401.76 122.85-.19-.27 179.95-124.58-180.37-134.9z" fill="#fbed24"/><path d="m748.18 177.46v342.71h-579.62l-.06-6.12 5.5-.05 564-178-562-194v-1.66h572.18z" fill="#58b947"/><path d="m162.61 114.42c-5.96 2.8-13.07 4.43-20.69 4.43-7.3 0-14.12-1.49-19.92-4.08-10.99-4.89-18.33-13.72-18.33-23.8 0-15.4 17.13-27.88 38.25-27.88 21.13 0 38.26 12.48 38.26 27.88 0 9.84-7 18.49-17.57 23.45z" fill="#c8c8c8"/><g fill="none"><path d="m165.07 140.34h10.93 572.18v37.12 342.71h-579.62" stroke="#231f20" stroke-width="21"/><path d="m122 114.77c-10.99-4.89-18.33-13.72-18.33-23.8 0-15.4 17.13-27.88 38.25-27.88 21.13 0 38.26 12.48 38.26 27.88 0 9.84-7 18.49-17.57 23.45-5.96 2.8-13.07 4.43-20.69 4.43-7.3 0-14.12-1.49-19.92-4.08z" stroke="#231f20" stroke-width="21"/><path d="m122 114v.77l1.12 670.61" stroke="#231f20" stroke-width="21"/><path d="m162.61 112.6v1.82 25.92 373.66 271.38" stroke="#231f20" stroke-width="21"/><path d="m744.76 179.39 3.42-1.93 2.01-1.14" stroke="#231f20" stroke-width="14"/><path d="m176 142 562 194-564 178" stroke="#231f20" stroke-width="14"/><path d="m240.05 197.88 3.58 1.22 402.37 136.9-401.76 122.85" stroke="#231f20" stroke-width="7"/><path d="m165.07 140.34 78.56 58.76 180.37 134.9-179.95 124.58-75.58 52.32-4.47 3.1" stroke="#231f20" stroke-width="21"/><path d="m0 0h850.394v850.394h-850.394z"/></g></svg>