<svg enable-background="new 0 0 850.394 850.394" height="850.394" viewBox="0 0 850.394 850.394" width="850.394" xmlns="http://www.w3.org/2000/svg"><path d="m141.92 118.85c7.62 0 14.73-1.63 20.69-4.43v74.58h-4.61v14h4.61v248h-.61v14h.61v315.65l-39.49 4.729-1.12-670.609c5.8 2.59 12.62 4.08 19.92 4.08z" fill="#c8c8c8"/><path d="m748.18 140.34v48.66h-.18-582.48l-.45-48.66z" fill="#ed1e29"/><path d="m748.18 189v68h-2.18-579.86l-.49-54h582.35v-14z" fill="#fff"/><path d="m746 271v-14h2.18v135h-4.18-576l-.62.01-1.11-121.01z" fill="#0071bc"/><path d="m744 392h4.18v59h-.18-580.08l-.54-58.99.62-.01z" fill="#fff"/><path d="m748 451h.18v69.17h-579.62l-.51-55.17h579.95z" fill="#ed1e29"/><path d="m748 451v14h-579.95l-.13-14z" fill="#231f20"/><path d="m748 189v14h-582.35l-.13-14z" fill="#231f20"/><path d="m746 257v14h-579.73l-.13-14z" fill="#231f20"/><path d="m162.61 114.42c-5.96 2.8-13.07 4.43-20.69 4.43-7.3 0-14.12-1.49-19.92-4.08-10.99-4.89-18.33-13.72-18.33-23.8 0-15.4 17.13-27.88 38.25-27.88 21.13 0 38.26 12.48 38.26 27.88 0 9.84-7 18.49-17.57 23.45z" fill="#c8c8c8"/><path d="m167.92 451 .13 14h-5.44v-14z" fill="#231f20"/><path d="m166.14 257 .13 14h-2.27v-14z" fill="#231f20"/><path d="m165.52 189 .13 14h-3.04v-14z" fill="#231f20"/><path d="m162 451h.61v14h-.61z" fill="#231f20"/><path d="m158 189h4.61v14h-4.61z" fill="#231f20"/><g fill="none"><path d="m165.07 140.34h583.11v48.66 68 135 59 69.17h-579.62" stroke="#231f20" stroke-width="14"/><path d="m122 114.77c-10.99-4.89-18.33-13.72-18.33-23.8 0-15.4 17.13-27.88 38.25-27.88 21.13 0 38.26 12.48 38.26 27.88 0 9.84-7 18.49-17.57 23.45-5.96 2.8-13.07 4.43-20.69 4.43-7.3 0-14.12-1.49-19.92-4.08z" stroke="#231f20" stroke-width="21"/><path d="m122 114v.77l1.12 670.61" stroke="#231f20" stroke-width="21"/><path d="m162.61 465v315.65 4.73" stroke="#231f20" stroke-width="21"/><path d="m162.61 203v248" stroke="#231f20" stroke-width="21"/><path d="m162.61 112.6v1.82 74.58" stroke="#231f20" stroke-width="21"/><path d="m168 392h576" stroke="#231f20" stroke-width="14"/><path d="m0 0h850.394v850.394h-850.394z"/></g></svg>