<svg enable-background="new 0 0 850.394 850.394" height="850.394" viewBox="0 0 850.394 850.394" width="850.394" xmlns="http://www.w3.org/2000/svg"><path d="m162.61 426v359.38h-39.49l-1.12-670.61c5.8 2.59 12.62 4.08 19.92 4.08 7.62 0 14.73-1.63 20.69-4.43v223.58z" fill="#c8c8c8"/><path d="m616.99 244.32c.02.39.029.79.029 1.19 0 1.78-.18 3.51-.529 5.18l-1.851-.09 1.681.86c-.5 2.09-1.261 4.09-2.24 5.94l-1.99-.64 1.561 1.42c-1.051 1.83-2.32 3.52-3.78 5.03l-1.83-1.17 1.17 1.83c-1.51 1.46-3.2 2.73-5.03 3.78l-1.42-1.56.641 1.99c-1.851.98-3.851 1.74-5.94 2.24l-.86-1.68.091 1.85c-1.671.35-3.4.53-5.181.53-.399 0-.8-.01-1.189-.03l-.32-1.48-.31 1.44c-2.21-.15-4.33-.59-6.341-1.27l.051-1.04-.46.9c-2.091-.74-4.051-1.75-5.851-2.99l.15-.46-.311.34c-1.819-1.25-3.47-2.76-4.899-4.45-1.391-1.64-2.57-3.45-3.511-5.41-.93-1.93-1.63-4-2.05-6.17-.31-1.58-.47-3.22-.47-4.89 0-.44.01-.88.03-1.31.66-13.05 11.12-23.51 24.17-24.17.43-.02.87-.03 1.31-.03 1.67 0 3.311.16 4.891.47 1.75.34 3.439.86 5.04 1.54 2.39 1.01 4.59 2.37 6.54 4.02 1.689 1.43 3.199 3.08 4.449 4.9l-.34.31.46-.15c1.24 1.8 2.25 3.76 2.99 5.85l-.9.46 1.04-.05c.681 2.01 1.12 4.13 1.271 6.34l-1.44.31z" fill="#a8d7f4"/><path d="m748.18 426v94.17h-579.62l-.87-94.17h580.31z" fill="#58b947"/><path d="m748.18 338v88h-.18-580.31l-.8-88z" fill="#fbed24"/><path d="m748.18 177.46v160.54h-581.29l-1.82-197.66h583.11zm-131.23 66.23 37.689-8.2-38.96 1.86c-.04-.14-.09-.28-.14-.41l34.69-17.89-37.681 12.04c-.03-.05-.069-.11-.12-.16l29.29-26.62-33.68 21.65 21.65-33.68-26.931 29.63 12.19-38.14-18.347 35.59 1.91-40-8.51 39.13-8.51-39.13 1.91 40-18.351-35.59 12.19 38.14-26.931-29.63 21.65 33.68-33.68-21.65 29.63 26.93-38.141-12.19 35.591 18.35-40-1.91 39.13 8.51-39.13 8.51 40-1.91-35.591 18.35 38.141-12.19-29.63 26.93 33.68-21.65-21.65 33.68 26.62-29.29c.051.05.11.09.16.12l-12.04 37.68 17.891-34.69c.13.05.27.1.409.14l-1.859 38.96 8.2-37.69c.21.02.42.03.63.04l8.189 37.65-1.819-38.15c.26-.05.52-.11.77-.17l17.49 33.91-11.55-36.15c.27-.14.529-.28.779-.43l25.511 28.07-20.48-31.85c.23-.21.45-.43.66-.66l31.85 20.48-28.069-25.51c.149-.25.29-.51.43-.78l36.15 11.55-33.91-17.49c.06-.25.12-.51.17-.77l38.149 1.82-37.649-8.19c-.01-.21-.02-.42-.04-.63z" fill="#a8d7f4"/><path d="m654.64 235.49-37.689 8.2c-.15-2.21-.59-4.33-1.271-6.34z" fill="#fbed24"/><path d="m654.64 252.51-38.149-1.82c.35-1.67.529-3.4.529-5.18 0-.4-.01-.8-.029-1.19z" fill="#fbed24"/><path d="m650.23 219.05-34.69 17.89c-.74-2.09-1.75-4.05-2.99-5.85z" fill="#fbed24"/><path d="m650.23 268.95-36.15-11.55c.979-1.85 1.74-3.85 2.24-5.94z" fill="#fbed24"/><path d="m641.72 204.31-29.29 26.62c-1.25-1.82-2.76-3.47-4.449-4.9l.06-.07z" fill="#fbed24"/><path d="m641.72 283.69-31.85-20.48c1.46-1.51 2.729-3.2 3.78-5.03z" fill="#fbed24"/><path d="m629.69 192.28-21.65 33.68-.06.07c-1.95-1.65-4.15-3.01-6.54-4.02l1.319-.1z" fill="#fbed24"/><path d="m609.21 263.87 20.48 31.85-25.511-28.07c1.831-1.05 3.521-2.32 5.031-3.78z" fill="#fbed24"/><path d="m616.95 243.69c.02.21.03.42.04.63l-1.48-.32z" fill="#fff"/><path d="m616.49 250.69c-.05.26-.11.52-.17.77l-1.681-.86z" fill="#fff"/><path d="m615.54 236.94c.05.13.1.27.14.41l-1.04.05z" fill="#fff"/><path d="m614.95 183.77-12.19 38.14-1.319.1c-1.601-.68-3.29-1.2-5.04-1.54l.199-1.11z" fill="#fbed24"/><path d="m603.4 268.08 11.55 36.15-17.49-33.91c2.09-.5 4.09-1.26 5.94-2.24z" fill="#fbed24"/><path d="m612.09 256.76 1.99.64c-.14.27-.28.53-.43.78z" fill="#fff"/><path d="m612.55 231.09-.46.15.34-.31c.05.05.09.11.12.16z" fill="#fff"/><path d="m609.87 263.21c-.21.23-.43.45-.66.66l-1.17-1.83z" fill="#fff"/><path d="m602.76 266.09 1.42 1.56c-.25.15-.51.29-.779.43z" fill="#fff"/><path d="m598.51 179.36-1.91 40-.199 1.11c-1.58-.31-3.221-.47-4.891-.47-.439 0-.88.01-1.31.03l-.2-1.54z" fill="#fbed24"/><path d="m596.69 270.49 1.819 38.15-8.189-37.65c.39.02.79.03 1.189.03 1.781 0 3.511-.18 5.181-.53z" fill="#fbed24"/><path d="m596.6 268.64.86 1.68c-.25.06-.51.12-.77.17z" fill="#fff"/><path d="m590 269.51.32 1.48c-.21-.01-.42-.02-.63-.04z" fill="#fff"/><path d="m590 218.49.2 1.54c-13.05.66-23.51 11.12-24.17 24.17l-1.54-.2-39.13-8.51 40 1.91-35.591-18.35 38.141 12.19-29.63-26.93 33.68 21.65-21.65-33.68 26.931 29.63-12.19-38.14 18.351 35.59-1.91-40z" fill="#fbed24"/><path d="m589.69 270.95-8.2 37.69 1.859-38.96c2.011.68 4.131 1.12 6.341 1.27z" fill="#fbed24"/><path d="m583.4 268.64-.051 1.04c-.14-.04-.279-.09-.409-.14z" fill="#fff"/><path d="m582.94 269.54-17.891 34.69 12.04-37.68c1.801 1.24 3.761 2.25 5.851 2.99z" fill="#fbed24"/><path d="m577.24 266.09-.15.46c-.05-.03-.109-.07-.16-.12z" fill="#fff"/><path d="m576.93 266.43-26.62 29.29 21.65-33.68.07-.06c1.43 1.69 3.08 3.2 4.9 4.45z" fill="#fbed24"/><path d="m572.03 261.98-.07.06-33.68 21.65 29.63-26.93.609-.19c.941 1.96 2.121 3.77 3.511 5.41z" fill="#fbed24"/><path d="m568.52 256.57-.609.19-38.141 12.19 35.591-18.35 1.109-.2c.42 2.17 1.12 4.24 2.05 6.17z" fill="#fbed24"/><path d="m566.47 250.4-1.109.2-40 1.91 39.13-8.51 1.54.2c-.021.43-.03.87-.03 1.31-.001 1.67.159 3.31.469 4.89z" fill="#fbed24"/><path d="m122 114.77c-10.99-4.89-18.33-13.72-18.33-23.8 0-15.4 17.13-27.88 38.25-27.88 21.13 0 38.26 12.48 38.26 27.88 0 9.84-7 18.49-17.57 23.45-5.96 2.8-13.07 4.43-20.69 4.43-7.3 0-14.12-1.49-19.92-4.08z" fill="#c8c8c8"/><g stroke="#231f20"><path d="m165.07 140.34h583.11v37.12 160.54 88 94.17h-579.62" fill="none" stroke-width="21"/><path d="m122 114.77c-10.99-4.89-18.33-13.72-18.33-23.8 0-15.4 17.13-27.88 38.25-27.88 21.13 0 38.26 12.48 38.26 27.88 0 9.84-7 18.49-17.57 23.45-5.96 2.8-13.07 4.43-20.69 4.43-7.3 0-14.12-1.49-19.92-4.08z" fill="none" stroke-width="21"/><path d="m122 114v.77l1.12 670.61" fill="none" stroke-width="21"/><path d="m162.61 112.6v1.82 223.58 88 359.38" fill="none" stroke-width="21"/><path d="m744.76 179.39 3.42-1.93 2.01-1.14" fill="none" stroke-width="14"/><path d="m164 338h2.89 581.29 3.82" fill="none" stroke-width="14"/><path d="m164 426h3.69 580.31" fill="none" stroke-width="14"/><path d="m576.93 266.43-26.62 29.29 21.65-33.68-33.68 21.65 29.63-26.93-38.14 12.19 35.59-18.35-40 1.91 39.13-8.51-39.13-8.51 40 1.91-35.59-18.35 38.14 12.19-29.63-26.93 33.68 21.65-21.65-33.68 26.93 29.63-12.19-38.14 18.35 35.59-1.91-40 8.51 39.13 8.51-39.13-1.91 40 18.35-35.59-12.19 38.14 26.93-29.63-21.65 33.68 33.68-21.65-29.29 26.62" fill="none" stroke-width="3"/><path d="m582.94 269.54-17.89 34.69 12.04-37.68" fill="none" stroke-width="3"/><path d="m589.69 270.95-8.2 37.69 1.86-38.96" fill="none" stroke-width="3"/><path d="m596.69 270.49 1.82 38.15-8.19-37.65" fill="none" stroke-width="3"/><path d="m603.4 268.08 11.55 36.15-17.49-33.91" fill="none" stroke-width="3"/><path d="m609.21 263.87 20.48 31.85-25.51-28.07" fill="none" stroke-width="3"/><path d="m613.65 258.18 28.07 25.51-31.85-20.48" fill="none" stroke-width="3"/><path d="m616.32 251.46 33.91 17.49-36.15-11.55" fill="none" stroke-width="3"/><path d="m616.99 244.32 37.65 8.19-38.15-1.82" fill="none" stroke-width="3"/><path d="m615.68 237.35 38.96-1.86-37.69 8.2" fill="none" stroke-width="3"/><path d="m612.55 231.09 37.68-12.04-34.69 17.89" fill="none" stroke-width="3"/><path d="m616.99 244.32c.02.39.029.79.029 1.19 0 1.78-.18 3.51-.529 5.18-.05.26-.11.52-.17.77-.5 2.09-1.261 4.09-2.24 5.94-.14.27-.28.53-.43.78-1.051 1.83-2.32 3.52-3.78 5.03-.21.23-.43.45-.66.66-1.51 1.46-3.2 2.73-5.03 3.78-.25.15-.51.29-.779.43-1.851.98-3.851 1.74-5.94 2.24-.25.06-.51.12-.77.17-1.671.35-3.4.53-5.181.53-.399 0-.8-.01-1.189-.03-.21-.01-.42-.02-.63-.04-2.21-.15-4.33-.59-6.341-1.27-.14-.04-.279-.09-.409-.14-2.091-.74-4.051-1.75-5.851-2.99-.05-.03-.109-.07-.16-.12-1.819-1.25-3.47-2.76-4.899-4.45-1.391-1.64-2.57-3.45-3.511-5.41-.93-1.93-1.63-4-2.05-6.17-.31-1.58-.47-3.22-.47-4.89 0-.44.01-.88.03-1.31.66-13.05 11.12-23.51 24.17-24.17.43-.02.87-.03 1.31-.03 1.67 0 3.311.16 4.891.47 1.75.34 3.439.86 5.04 1.54 2.39 1.01 4.59 2.37 6.54 4.02 1.689 1.43 3.199 3.08 4.449 4.9.051.05.09.11.12.16 1.24 1.8 2.25 3.76 2.99 5.85.05.13.1.27.14.41.681 2.01 1.12 4.13 1.271 6.34.019.21.029.42.039.63z" fill="none" stroke-width="7"/><circle cx="591.509" cy="245.509" fill="#fbed24" r="15.59" stroke-width="4"/></g><path d="m0 0h850.394v850.394h-850.394z" fill="none"/></svg>