<svg enable-background="new 0 0 850.89 850.89" height="850.89" viewBox="0 0 850.89 850.89" width="850.89" xmlns="http://www.w3.org/2000/svg"><path d="m493.14 450.1-.21.21v-.21z" fill="#231f20"/><path d="m406.25 362.25.02 1.83h-5.97v-7h11.79l.12 5.17z" fill="#231f20"/><path d="m492.25 284.25v1h86.56v71.69l-78.69-1.5v-1.19h-9.68l1.67-70z" fill="#fff"/><path d="m490.42 355.25 9.7.19v7l-9.87-.19z" fill="#231f20"/><path d="m414.3 356.25v6h-2.05v-5.17h-.16l-.02-.83z" fill="#231f20"/><path d="m490.46 369.26 9.66.18.02 87.66.01 7h-7l-85.83.03h-7v-7l-.02-86.05h6.05l.97 86.05h7l71.82-.03h7l-.21-6.79.21-.21h-.21z" fill="#231f20"/><path d="m490.12 369.25.34.01 2.47 80.84h-6.79l-.02-87.85h4.13z" fill="#231f20"/><path d="m412.25 362.25v1.83l-.04-1.83z" fill="#231f20"/><path d="m492.93 450.1v.21l-6.79 6.79v-7z" fill="#231f20"/><path d="m486.12 362.25.02 87.85-71.82.03-.02-87.88z" fill="#fff"/><path d="m486.12 354.25v8h-71.82v-6h-2.23l-1.68-72h3.89l-.02-86.02 71.83-.04.02 86.06h6l-1.67 70z" fill="#fff"/><path d="m490.25 362.25 9.87.19v7l-9.66-.18z" fill="#231f20"/><path d="m414.32 457.13h-7l-.97-86.05h5.9v-7-1.83h2.05l.02 87.88h-7z" fill="#231f20"/><path d="m493.14 457.1h-7l6.79-6.79z" fill="#231f20"/><path d="m406.27 364.08-.02-1.83h5.96l.04 1.83z" fill="#231f20"/><path d="m412.25 357.08v5.17h-.04l-.12-5.17z" fill="#231f20"/><path d="m490.25 362.25.21 7.01-.34-.01z" fill="#231f20"/><path d="m490.44 354.25h9.68v1.19l-9.7-.19z" fill="#231f20"/><path d="m490.44 354.25-.02 1h-.04l-.13 7h-4.13v-8z" fill="#231f20"/><path d="m414.32 450.13v7l-7-7z" fill="#231f20"/><path d="m410.39 284.25 1.68 72h-11.77v.83h-85.05v-71.83h95v-1z" fill="#fff"/><path d="m400.3 356.25h11.77l.02.83h-11.79z" fill="#231f20"/><path d="m406.27 364.08.08 7h-6.05v-7z" fill="#231f20"/><path d="m406.27 364.08h5.98v7h-5.9z" fill="#231f20"/><path d="m675.55 123.4v393.18h-454.48l-1.76-143.87v-249.31zm-82.74 247.81v-7.13-85.83-7h-7-85.7l-.021-80.06v-7h-7.01l-85.82.04h-7v7l.02 80.02h-92.03-7v7 85.83 7h7 92.05l.02 86.05v7h7l85.831-.03h7l-.011-7-.02-87.66 85.55 1.64z" fill="#ed1e29"/><g fill="#231f20"><path d="m592.81 364.08v7.13l-7.14-.13-85.55-1.64v-7l78.69 1.51v.13l.13-.13 6.87.13v-6.87l.13-.13h-.13v-71.83-7h-7-78.7v-7h85.7 7v7z"/><path d="m585.94 357.08-.13.13v-.13z"/><path d="m585.81 357.21v6.87l-6.87-.13z"/><path d="m585.81 357.08v.13l-6.87 6.74h-.13v-7.01z"/><path d="m585.81 285.25v71.83l-7-.14v-71.69z"/><path d="m585.81 278.25v7l-7-7z"/><path d="m585.81 285.25h-7v-7z"/><path d="m578.94 363.95-.13.13v-.13z"/><path d="m578.81 356.94v7.01l-78.69-1.51v-7z"/><path d="m578.81 278.25v7h-86.56v-1h7.86v-6z"/><path d="m492.25 278.25h7.86v6h-7.86z"/><path d="m492.25 271.25h7.86v7h-7.86z"/><path d="m493.09 198.19h-7v-6.99z"/><path d="m492.25 278.25v6h-.14z"/><path d="m490.42 355.25-.17 7 .13-7z"/><path d="m486.14 450.1v7l-71.82.03v-7z"/><path d="m410.25 271.25h-9.97l-.02-80.02v-7h7l85.82-.04h7.01v7l.02 80.06h-7.86v7l-.14 6h-6l-.02-86.06h7l-7-6.99v6.99l-71.83.04v-7l-7 7h7l.02 86.02h-3.89l-.14-6z"/><path d="m414.26 191.23v7h-7z"/><path d="m410.25 278.25.14 6h-.14z"/><path d="m410.25 284.25v1h-95v-7h85.03v6z"/><path d="m400.28 278.25h9.97v6h-9.97z"/><path d="m400.28 271.25h9.97v7h-9.97z"/><path d="m400.3 364.08v7h-92.05-7v-7-85.83-7h7 92.03v7h-85.03-7v7 71.83 7h7z"/><path d="m315.25 357.08h85.05v7h-85.05z"/><path d="m315.25 357.08v7l-7-7z"/><path d="m308.25 285.25h7v71.83h-7z"/><path d="m315.25 278.25v7h-7z"/><path d="m315.25 278.25-7 7v-7z"/><path d="m315.25 364.08h-7v-7z"/></g><path d="m195.9 50.66c21.87 0 39.6 12.92 39.6 28.86 0 9.55-6.37 18.02-16.19 23.27-6.56 3.52-14.65 5.59-23.41 5.59-7.15 0-13.86-1.38-19.65-3.81-11.92-4.96-19.95-14.32-19.95-25.05 0-15.94 17.73-28.86 39.6-28.86z" fill="#c8c8c8"/><path d="m219.31 123.4v249.31l-3.05-249.31z" fill="#fff"/><path d="m195.9 108.38c8.76 0 16.85-2.07 23.41-5.59v20.61h-3.05l3.05 249.31v421.54h-42.88l-.18-689.68c5.79 2.43 12.5 3.81 19.65 3.81z" fill="#c8c8c8"/><path d="m216.26 123.4h3.05 456.24v393.18h-454.48" fill="none" stroke="#231f20" stroke-width="21.6426"/><path d="m176.25 104.57c-11.92-4.96-19.95-14.32-19.95-25.05 0-15.94 17.73-28.86 39.6-28.86s39.6 12.92 39.6 28.86c0 9.55-6.37 18.02-16.19 23.27-6.56 3.52-14.65 5.59-23.41 5.59-7.15 0-13.86-1.38-19.65-3.81z" fill="none" stroke="#231f20" stroke-width="21.6426"/><path d="m176.25 100.25v4.32l.18 689.68v4.06" fill="none" stroke="#231f20" stroke-width="21.6426"/><path d="m219.31 101.91v.88 20.61 249.31 421.54 4.06" fill="none" stroke="#231f20" stroke-width="21.6426"/><path d="m.25.25h850.394v850.394h-850.394z" fill="none"/></svg>