<svg enable-background="new 0 0 850.394 850.394" height="850.394" viewBox="0 0 850.394 850.394" width="850.394" xmlns="http://www.w3.org/2000/svg"><path d="m449.21 322.75c9.65 0 17.48 11.4 17.48 25.47 0 14.06-7.83 25.46-17.48 25.46-9.66 0-17.49-11.4-17.49-25.46 0-14.07 7.83-25.47 17.49-25.47z" fill="#a8d7f4"/><path d="m458.94 379.59c-3.12 1.52-6.49 2.35-10.011 2.35-3.649 0-7.13-.89-10.34-2.52-3.29-1.67-6.28-4.12-8.83-7.16-5.73-6.8-9.32-16.59-9.32-27.48 0-6.15 1.14-11.95 3.18-17.06 1.06-2.68 2.37-5.18 3.88-7.43 4.38-6.51 10.47-11.01 17.36-12.3l.109-.43c2.811 1.25 5.86 2.15 8.511 2.53 2.43.35 9.27 2.67 13.97 4.34 1.399 1.31 2.689 3.06 3.83 5.1 1.35 2.38 2.5 5.16 3.439 8.13 1.73 5.51 2.71 11.65 2.71 17.12 0 10.99-3.66 20.87-9.479 27.68-2.619 3.05-5.669 5.49-9.009 7.13zm7.75-31.37c0-14.07-7.83-25.47-17.48-25.47-9.66 0-17.49 11.4-17.49 25.47 0 14.06 7.83 25.46 17.49 25.46 9.65 0 17.48-11.4 17.48-25.46z" fill="#fbed24"/><path d="m508.56 314.92 5.68-.96 5.68-.96-3.4 4.65-3.4 4.65-2.06-3.34-.22-.35z" fill="#fff"/><path d="m513.64 299.14-2.93 4.97-2.92 4.96-2.55-3.33-.09-.11-2.64-3.45 5.57-1.52z" fill="#fff"/><path d="m493.44 291.37 5.42-1.96 5.42-1.95-2.52 5.18-2.52 5.18-2.87-3.18-.03-.04z" fill="#fff"/><path d="m395.94 292.43-2.52-5.18 5.42 1.95 5.42 1.96-2.9 3.23-.03.03-2.86 3.19z" fill="#fff"/><path d="m395.18 301.97-2.63 3.45-.09.11-2.55 3.33-2.92-4.96-2.92-4.97 5.55 1.52z" fill="#fff"/><path d="m386.64 318.75-2.06 3.34-3.4-4.65-3.4-4.65 5.68.96 5.68.96-2.28 3.69z" fill="#fff"/><path d="m507.79 309.07.77 5.85 2.28 3.69.22.35-11.3 7.09c-2.12-4.15-4.74-8-7.18-11.2l12.01-8.61.65-.5z" fill="#fbed24"/><path d="m505.15 305.63.09.11-.65.5-12.01 8.61c-4.04-5.31-7.6-8.82-7.6-8.82l-.051-.05 11.44-11.34 2.87 3.18 3.27 4.36z" fill="#fbed24"/><path d="m499.76 326.05-10.24 6.41-.659.11c-.87-5.45-2.221-9.5-3.601-12.47l7.32-5.25c2.44 3.2 5.06 7.05 7.18 11.2z" fill="#ed1e29"/><path d="m492.58 314.85-7.32 5.25c-2.56-5.51-5.24-7.26-5.24-7.26l-.979-.99c1.16-.79 1.81-1.34 1.22-1.23l4.67-4.64.051.05c-.002 0 3.558 3.51 7.598 8.82z" fill="#ed1e29"/><path d="m471.28 319.53 7.689-7.63c.03-.02.05-.03.07-.05l.979.99s2.681 1.75 5.24 7.26l-10.54 7.56c-.938-2.97-2.088-5.75-3.438-8.13z" fill="#ed1e29"/><path d="m427.18 320.07.32.22c-1.51 2.25-2.82 4.75-3.88 7.43l-.57-.22-10.61-7.61c2.56-5.51 5.24-7.26 5.24-7.26l.99-1z" fill="#ed1e29"/><path d="m405.12 314.65 7.32 5.24c-1.38 2.97-2.73 7.02-3.6 12.47l-.65-.11-10.25-6.42c2.12-4.14 4.74-7.99 7.18-11.18z" fill="#ed1e29"/><path d="m412.77 305.77 5.9 5.86-.99 1s-2.68 1.75-5.24 7.26l-7.32-5.24c4.05-5.32 7.61-8.83 7.61-8.83z" fill="#ed1e29"/><path d="m401.33 294.42 11.44 11.35-.04.05s-3.56 3.51-7.61 8.83l-12.01-8.62-.65-.5.09-.11 2.63-3.45 3.29-4.36z" fill="#fbed24"/><path d="m393.11 306.03 12.01 8.62c-2.44 3.19-5.06 7.04-7.18 11.18l-11.3-7.08.22-.35 2.28-3.69.77-5.85 2.55-3.33z" fill="#fbed24"/><path d="m489.52 332.46 10.24-6.41c1.42 2.73 2.61 5.59 3.391 8.47 3.92 14.46-1.45 45.84-18.79 50.59-16.94 4.64-20.101-4.51-25.42-5.52 3.34-1.64 6.39-4.08 9.01-7.13l.3.26c18.38-.83 22.09-20.85 21.47-32-.17-3.01-.47-5.72-.859-8.15z" fill="#ed1e29"/><path d="m467.95 372.46c5.819-6.81 9.479-16.69 9.479-27.68 0-5.47-.979-11.61-2.71-17.12l10.54-7.56c1.38 2.97 2.73 7.02 3.601 12.47.39 2.43.689 5.14.859 8.15.62 11.15-3.09 31.17-21.47 32z" fill="#ed1e29"/><path d="m420.44 344.78c0 10.89 3.59 20.68 9.32 27.48l-.31.25c-18.37-.83-22.09-20.85-21.47-32 .17-3.01.47-5.72.86-8.15.87-5.45 2.22-9.5 3.6-12.47l10.61 7.61.57.22c-2.04 5.11-3.18 10.91-3.18 17.06z" fill="#ed1e29"/><path d="m397.94 325.83 10.25 6.42.65.11c-.39 2.43-.69 5.14-.86 8.15-.62 11.15 3.1 31.17 21.47 32l.31-.25c2.55 3.04 5.54 5.49 8.83 7.16-5.229 1.17-8.5 10.07-25.24 5.48-17.35-4.75-22.71-36.13-18.79-50.59.78-2.88 1.97-5.74 3.38-8.48z" fill="#ed1e29"/><path d="m454.07 289.08-4.181 6.97c-.67.9-2.26 1.56-4.26 1.92-7.08.33-33.73-17.62-33.73-17.62s21.21 0 25.06.55c3.85.56 16.79 7.99 16.79 7.99z" fill="#faa41a"/><path d="m480.26 310.62-1.229 1.22-.061.06c-2.38 1.63-6.779 4.24-6.779 4.24s-2.011-.75-4.74-1.71c-4.7-1.67-11.54-3.99-13.97-4.34-2.65-.38-5.7-1.28-8.511-2.53-1.27-.56-2.5-1.19-3.609-1.88-3.58-2.2-8.25-2.75-10.181-2.48-1.93.28-.56-7.43 4.67-5.78 3.101.98 6.87 1.09 9.78.55 2-.36 3.59-1.02 4.26-1.92l4.181-6.97 4.91-8.18 34.14.28s-13.49 8.53-19.82 10.46c-6.34 1.93-12.67 8.26-12.67 8.26l12.11 7.71s5.229 3.57 7.43 3.03c.029-.01.069-.01.089-.02z" fill="#faa41a"/><path d="m173.01 514v248.36l-35.44 4.25v-629l2.11-5.5c4.75 1.67 10.08 2.61 15.72 2.61 6.39 0 12.4-1.21 17.61-3.32v23.69 108.91 138z" fill="#c8c8c8"/><path d="m730.15 402.86v112.32l-557.14-1.18v-112h.99z" fill="#58b947"/><path d="m441.36 305.68c1.109.69 2.34 1.32 3.609 1.88l-.109.43c-6.891 1.29-12.98 5.79-17.36 12.3l-.32-.22-8.51-8.44-5.9-5.86-11.44-11.35.03-.03 2.9-3.23-5.42-1.96-5.42-1.95 2.52 5.18 2.53 5.18-3.29 4.36-5.56-1.52-5.55-1.52 2.92 4.97 2.92 4.96-.77 5.85-5.68-.96-5.68-.96 3.4 4.65 3.4 4.65 2.06-3.34 11.3 7.08c-1.41 2.74-2.6 5.6-3.38 8.48-3.92 14.46 1.44 45.84 18.79 50.59 16.74 4.59 20.01-4.31 25.24-5.48 3.21 1.63 6.69 2.52 10.34 2.52 3.521 0 6.891-.83 10.011-2.35 5.319 1.01 8.479 10.16 25.42 5.52 17.34-4.75 22.71-36.13 18.79-50.59-.78-2.88-1.971-5.74-3.391-8.47l11.3-7.09 2.061 3.34 3.399-4.65 3.4-4.65-5.68.96-5.681.96-.77-5.85 2.92-4.96 2.93-4.97-5.56 1.52-5.57 1.52-3.27-4.36 2.52-5.18 2.521-5.18-5.42 1.95-5.42 1.96 2.899 3.23.03.04-11.44 11.34-4.67 4.64c-.02.01-.06.01-.09.02-2.2.54-7.43-3.03-7.43-3.03l-12.11-7.71s6.33-6.33 12.67-8.26c6.33-1.93 19.82-10.46 19.82-10.46l-34.14-.28-4.91 8.18-.32-.19s-12.94-7.43-16.79-7.99c-3.85-.55-25.06-.55-25.06-.55s26.65 17.95 33.73 17.62c-2.91.54-6.68.43-9.78-.55-5.229-1.65-6.6 6.06-4.67 5.78 1.931-.27 6.601.28 10.181 2.48zm288.79-41.57v138.75l-556.15-.86h-.99v-138h.99z" fill="#fbed24"/><path d="m191.67 108.29c0 9.94-7.53 18.6-18.66 23.11-5.21 2.11-11.22 3.32-17.61 3.32-5.64 0-10.97-.94-15.72-2.61-12.16-4.26-20.54-13.33-20.54-23.82 0-14.59 16.23-26.43 36.26-26.43s36.27 11.84 36.27 26.43z" fill="#c8c8c8"/><path d="m173.01 155.09h4.33 552.81v109.02l-556.15-.11h-.99z" fill="#ed1e29"/><g fill="none"><path d="m177.34 155.09h552.81v109.02 138.75 112.32l-557.14-1.18h-1.01" stroke="#231f20" stroke-width="21"/><path d="m139.68 132.11c-12.16-4.26-20.54-13.33-20.54-23.82 0-14.59 16.23-26.43 36.26-26.43s36.27 11.84 36.27 26.43c0 9.94-7.53 18.6-18.66 23.11-5.21 2.11-11.22 3.32-17.61 3.32-5.64 0-10.97-.94-15.72-2.61z" stroke="#231f20" stroke-width="21"/><path d="m137.57 137.61v629" stroke="#231f20" stroke-width="21"/><path d="m173.01 128.8v2.6 23.69 108.91 138 112 248.36 4.25" stroke="#231f20" stroke-width="21"/><path d="m174 264 556.15.11h3.03" stroke="#231f20" stroke-width="14"/><path d="m174 402 556.15.86h.55" stroke="#231f20" stroke-width="14"/><path d="m449.89 296.05 4.181-6.97 4.91-8.18 34.14.28s-13.49 8.53-19.82 10.46c-6.34 1.93-12.67 8.26-12.67 8.26l12.11 7.71s5.229 3.57 7.43 3.03c.03-.01.07-.01.09-.02.59-.11-.06.44-1.22 1.23-.021.02-.04.03-.07.05-2.38 1.63-6.779 4.24-6.779 4.24s-2.011-.75-4.74-1.71c-4.7-1.67-11.54-3.99-13.97-4.34-2.65-.38-5.7-1.28-8.511-2.53-1.27-.56-2.5-1.19-3.609-1.88-3.58-2.2-8.25-2.75-10.181-2.48-1.93.28-.56-7.43 4.67-5.78 3.101.98 6.87 1.09 9.78.55 1.999-.36 3.589-1.02 4.259-1.92" stroke="#231f20" stroke-width="4.9554"/><path d="m453.75 288.89s-12.94-7.43-16.79-7.99c-3.85-.55-25.06-.55-25.06-.55s26.65 17.95 33.73 17.62c.05.01.09 0 .13 0" stroke="#231f20" stroke-width="4.9554"/><path d="m466.69 348.22c0 14.06-7.83 25.46-17.48 25.46-9.66 0-17.49-11.4-17.49-25.46 0-14.07 7.83-25.47 17.49-25.47 9.65 0 17.48 11.4 17.48 25.47z" stroke="#231f20" stroke-width="4.9554"/><path d="m467.24 314.22c.069.06.14.13.21.21 1.399 1.31 2.689 3.06 3.83 5.1 1.35 2.38 2.5 5.16 3.439 8.13 1.73 5.51 2.71 11.65 2.71 17.12 0 10.99-3.66 20.87-9.479 27.68-2.62 3.05-5.67 5.49-9.01 7.13-3.12 1.52-6.49 2.35-10.011 2.35-3.649 0-7.13-.89-10.34-2.52-3.29-1.67-6.28-4.12-8.83-7.16-5.73-6.8-9.32-16.59-9.32-27.48 0-6.15 1.14-11.95 3.18-17.06 1.06-2.68 2.37-5.18 3.88-7.43 4.38-6.51 10.47-11.01 17.36-12.3" stroke="#231f20" stroke-width="4.9554"/><path d="m417.68 312.63s-2.68 1.75-5.24 7.26c-1.38 2.97-2.73 7.02-3.6 12.47-.39 2.43-.69 5.14-.86 8.15-.62 11.15 3.1 31.17 21.47 32" stroke="#231f20" stroke-width="4.9554"/><path d="m400.96 294.05.37.37 11.44 11.35 5.9 5.86 8.51 8.44" stroke="#231f20" stroke-width="4.9554"/><path d="m393.11 306.03 12.01 8.62 7.32 5.24 10.61 7.61" stroke="#231f20" stroke-width="4.9554"/><path d="m386.09 318.41.55.34 11.3 7.08 10.25 6.42" stroke="#231f20" stroke-width="4.9554"/><path d="m412.73 305.82s-3.56 3.51-7.61 8.83c-2.44 3.19-5.06 7.04-7.18 11.18-1.41 2.74-2.6 5.6-3.38 8.48-3.92 14.46 1.44 45.84 18.79 50.59 16.74 4.59 20.01-4.31 25.24-5.48.19-.05.38-.08.57-.1" stroke="#231f20" stroke-width="4.9554"/><path d="m398.47 297.61-2.53-5.18-2.52-5.18 5.42 1.95 5.42 1.96-2.9 3.23-.03.03z" stroke="#231f20" stroke-width="1.6518"/><path d="m389.91 308.86-2.92-4.96-2.92-4.97 5.55 1.52 5.56 1.52-2.63 3.45-.09.11z" stroke="#231f20" stroke-width="1.6518"/><path d="m386.64 318.75-2.06 3.34-3.4-4.65-3.4-4.65 5.68.96 5.68.96-2.28 3.69z" stroke="#231f20" stroke-width="1.6518"/><path d="m480.02 312.84s2.681 1.75 5.24 7.26c1.38 2.97 2.73 7.02 3.601 12.47.39 2.43.689 5.14.859 8.15.62 11.15-3.09 31.17-21.47 32" stroke="#231f20" stroke-width="4.9554"/><path d="m496.75 294.26-.38.38-11.44 11.34-4.67 4.64-1.23 1.22-.06.06-7.69 7.63-.76.75" stroke="#231f20" stroke-width="4.9554"/><path d="m504.59 306.24-12.01 8.61-7.32 5.25-10.54 7.56-.07.05" stroke="#231f20" stroke-width="4.9554"/><path d="m511.61 318.62-.55.34-11.3 7.09-10.24 6.41" stroke="#231f20" stroke-width="4.9554"/><path d="m484.98 306.03s3.56 3.51 7.6 8.82c2.439 3.2 5.06 7.05 7.18 11.2 1.42 2.73 2.61 5.59 3.391 8.47 3.92 14.46-1.45 45.84-18.79 50.59-16.94 4.64-20.101-4.51-25.42-5.52-.131-.03-.261-.05-.391-.06" stroke="#231f20" stroke-width="4.9554"/><path d="m499.24 297.82 2.52-5.18 2.52-5.18-5.42 1.95-5.42 1.96 2.9 3.23.03.04z" stroke="#231f20" stroke-width="1.6518"/><path d="m507.79 309.07 2.92-4.96 2.93-4.97-5.56 1.52-5.57 1.52 2.64 3.45.09.11z" stroke="#231f20" stroke-width="1.6518"/><path d="m511.06 318.96 2.06 3.34 3.4-4.65 3.4-4.65-5.68.96-5.68.96 2.28 3.69z" stroke="#231f20" stroke-width="1.6518"/><path d="m403.09 330.46s-7.59 19.07 4.56 37.42" stroke="#231f20" stroke-width="3.3036"/><path d="m495.33 329.36s7.6 19.07-4.55 37.42" stroke="#231f20" stroke-width="3.3036"/><path d="m0 0h850.394v850.394h-850.394z"/></g></svg>