<svg enable-background="new 0 0 850.394 850.394" height="850.394" viewBox="0 0 850.394 850.394" width="850.394" xmlns="http://www.w3.org/2000/svg"><path d="m748.18 398v122.17h-579.62l-1.12-122.17h208.56l2.39.41-8.77 51.14 82.38-43.31 82.38 43.31-8.71-50.81 4.33-.74z" fill="#ed1d31"/><path d="m748.18 264v134h-218.18l-4.33.74-.11-.66-6.91-40.27 66.65-64.96-92.11-13.39-7.54-15.29.35-.17h262z" fill="#33a048"/><path d="m748.18 177.46v86.54h-.18-262l-.35.17-33.65-68.17-33.65 68.17-.35-.17h-251.79l-1.14-123.66h583.11z" fill="#fbee34"/><path d="m585.3 292.85-66.65 64.96 6.91 40.27.11.66 8.71 50.81-82.38-43.31-82.38 43.31 8.77-51.14 6.96-40.6-66.65-64.96 92.11-13.39 7.54-15.29 33.65-68.17 33.65 68.17 7.54 15.29z" fill="#fff"/><path d="m418.35 264.17-7.54 15.29-92.11 13.39 66.65 64.96-6.96 40.6-2.39-.41h-208.56l-1.23-134h251.79z" fill="#33a048"/><path d="m122 114.77c-10.99-4.89-18.33-13.72-18.33-23.8 0-15.4 17.13-27.88 38.25-27.88 21.13 0 38.26 12.48 38.26 27.88 0 9.84-7 18.49-17.57 23.45-5.96 2.8-13.07 4.43-20.69 4.43-7.3 0-14.12-1.49-19.92-4.08z" fill="#c8c8c8"/><path d="m162.61 264v134 387.38h-39.49l-1.12-670.61c5.8 2.59 12.62 4.08 19.92 4.08 7.62 0 14.73-1.63 20.69-4.43z" fill="#c8c8c8"/><g fill="none"><path d="m165.07 140.34h583.11v37.12 86.54 134 122.17h-579.62" stroke="#231f20" stroke-width="21"/><path d="m122 114.77c-10.99-4.89-18.33-13.72-18.33-23.8 0-15.4 17.13-27.88 38.25-27.88 21.13 0 38.26 12.48 38.26 27.88 0 9.84-7 18.49-17.57 23.45-5.96 2.8-13.07 4.43-20.69 4.43-7.3 0-14.12-1.49-19.92-4.08z" stroke="#231f20" stroke-width="21"/><path d="m122 114v.77l1.12 670.61" stroke="#231f20" stroke-width="21"/><path d="m162.61 112.6v1.82 149.58 134 387.38" stroke="#231f20" stroke-width="21"/><path d="m744.76 179.39 3.42-1.93 2.01-1.14" stroke="#231f20" stroke-width="14"/><path d="m486 264h262" stroke="#231f20" stroke-width="7"/><path d="m162 264h.61 3.6 251.79" stroke="#231f20" stroke-width="7"/><path d="m530 398h218.18 1.82" stroke="#231f20" stroke-width="7"/><path d="m162 398h.61 4.83 208.56" stroke="#231f20" stroke-width="7"/><path d="m525.56 398.08.11.66 8.71 50.81-82.38-43.31-82.38 43.31 8.77-51.14 6.96-40.6-66.65-64.96 92.11-13.39 7.54-15.29 33.65-68.17 33.65 68.17 7.54 15.29 92.11 13.39-66.65 64.96z" stroke="#231f20" stroke-width="9"/><path d="m0 0h850.394v850.394h-850.394z"/></g></svg>