<svg enable-background="new 0 0 850.394 850.394" height="850.394" viewBox="0 0 850.394 850.394" width="850.394" xmlns="http://www.w3.org/2000/svg"><path d="m748.18 406v114.17h-579.62l-.07-7.76 167.22-106.87.29.46h410z" fill="#231f20"/><path d="m748.18 274v132h-2.18-410l-.29-.46 96.29-61.54-89.39-70h401.39z" fill="#fff"/><path d="m748.18 177.46v96.54h-4.18-401.39l-170.67-133.66h576.24z" fill="#ed1e29"/><path d="m342.61 274 89.39 70-96.29 61.54-167.22 106.87-.92-100.07 4.2-272h.17z" fill="#58b947"/><path d="m171.94 140.34h-.17v-.13z" fill="#fff"/><path d="m171.77 140.34-4.2 272-2.5-272z" fill="#fff"/><path d="m162.61 114.42c-5.96 2.8-13.07 4.43-20.69 4.43-7.3 0-14.12-1.49-19.92-4.08-10.99-4.89-18.33-13.72-18.33-23.8 0-15.4 17.13-27.88 38.25-27.88 21.13 0 38.26 12.48 38.26 27.88 0 9.84-7 18.49-17.57 23.45z" fill="#c8c8c8"/><path d="m167.57 412.34.92 100.07-2.49 1.59z" fill="#fff"/><path d="m162.61 114.42v670.96h-39.49l-1.12-670.61c5.8 2.59 12.62 4.08 19.92 4.08 7.62 0 14.73-1.63 20.69-4.43z" fill="#c8c8c8"/><g fill="none"><path d="m171.94 140.34h576.24v37.12 96.54 132 114.17h-579.62" stroke="#231f20" stroke-width="21"/><path d="m165.07 140.34h6.7" stroke="#231f20" stroke-width="21"/><path d="m122 114.77c-10.99-4.89-18.33-13.72-18.33-23.8 0-15.4 17.13-27.88 38.25-27.88 21.13 0 38.26 12.48 38.26 27.88 0 9.84-7 18.49-17.57 23.45-5.96 2.8-13.07 4.43-20.69 4.43-7.3 0-14.12-1.49-19.92-4.08z" stroke="#231f20" stroke-width="21"/><path d="m122 114v.77l1.12 670.61" stroke="#231f20" stroke-width="21"/><path d="m162.61 112.6v1.82 670.96" stroke="#231f20" stroke-width="21"/><path d="m744.76 179.39 3.42-1.93 2.01-1.14" stroke="#231f20" stroke-width="14"/><path d="m171.77 140.21.17.13 170.67 133.66 89.39 70-96.29 61.54-167.22 106.87-2.49 1.59" stroke="#231f20" stroke-width="14"/><path d="m336 406h410" stroke="#231f20" stroke-width="14"/><path d="m342 274h.61 401.39" stroke="#231f20" stroke-width="14"/><path d="m0 0h850.394v850.394h-850.394z"/></g></svg>