<svg enable-background="new 0 0 850.394 850.394" height="850.394" viewBox="0 0 850.394 850.394" width="850.394" xmlns="http://www.w3.org/2000/svg"><path d="m162.61 450v335.38h-39.49l-1.12-670.61c5.8 2.59 12.62 4.08 19.92 4.08 7.62 0 14.73-1.63 20.69-4.43v283.58 26z" fill="#c8c8c8"/><path d="m748.18 470.7v49.47h-579.62l-.45-49.47z" fill="#a8d7f4"/><path d="m748.18 450v20.7h-580.07l-.19-20.7h580.08z" fill="#fbed24"/><path d="m748.18 424v26h-.18-580.08l-.24-26h580.32z" fill="#a8d7f4"/><path d="m748.18 398v26h-.18-580.32l-.24-26z" fill="#fbed24"/><path d="m748.18 177.46v220.54h-580.74l-2.37-257.66h583.11zm-472.29 82.43 34.53-18.89-34.53-18.89-18.89-34.53-18.89 34.53-34.53 18.89 34.53 18.89 18.89 34.53z" fill="#a8d7f4"/><path d="m310.42 241-34.53 18.89-18.89 34.53-18.89-34.53-34.53-18.89 34.53-18.89 18.89-34.53 18.89 34.53z" fill="#ed1e29"/><path d="m162.61 114.42c-5.96 2.8-13.07 4.43-20.69 4.43-7.3 0-14.12-1.49-19.92-4.08-10.99-4.89-18.33-13.72-18.33-23.8 0-15.4 17.13-27.88 38.25-27.88 21.13 0 38.26 12.48 38.26 27.88 0 9.84-7 18.49-17.57 23.45z" fill="#c8c8c8"/><g fill="none"><path d="m165.07 140.34h583.11v37.12 220.54 26 26 20.7 49.47h-579.62" stroke="#231f20" stroke-width="21"/><path d="m122 114.77c-10.99-4.89-18.33-13.72-18.33-23.8 0-15.4 17.13-27.88 38.25-27.88 21.13 0 38.26 12.48 38.26 27.88 0 9.84-7 18.49-17.57 23.45-5.96 2.8-13.07 4.43-20.69 4.43-7.3 0-14.12-1.49-19.92-4.08z" stroke="#231f20" stroke-width="21"/><path d="m122 114v.77l1.12 670.61" stroke="#231f20" stroke-width="21"/><path d="m162.61 112.6v1.82 283.58 26 26 335.38" stroke="#231f20" stroke-width="21"/><path d="m744.76 179.39 3.42-1.93 2.01-1.14" stroke="#231f20" stroke-width="14"/><path d="m167.88 470.7h.23 580.07 5.57" stroke="#231f20" stroke-width="7"/><path d="m160 450h2.61 5.31 580.08" stroke="#231f20" stroke-width="7"/><path d="m162 424h.61 5.07 580.32" stroke="#231f20" stroke-width="7"/><path d="m162 398h.61 4.83 580.74 3.82" stroke="#231f20" stroke-width="7"/><path d="m257 187.58 18.89 34.53 34.53 18.89-34.53 18.89-18.89 34.53-18.89-34.53-34.53-18.89 34.53-18.89z" stroke="#fff" stroke-width="8.0555"/><path d="m0 0h850.394v850.394h-850.394z"/></g></svg>