<svg enable-background="new 0 0 850.394 850.394" height="850.394" viewBox="0 0 850.394 850.394" width="850.394" xmlns="http://www.w3.org/2000/svg"><path d="m161.38 139.01v381 267.06h-39.68l-1.7-673.07.36-.78c5.87 2.66 12.81 4.2 20.24 4.2 7.66 0 14.79-1.63 20.78-4.45z" fill="#c8c8c8"/><path d="m166 520.01h-4.62v-381h2.47 229.32v93.54h-5.47v5.57c-29.19 1.93-54.45 18.53-68.65 42.6l-5.09-3.78-4.81 10.28 4.51 4.24c-3.94 9.41-6.31 19.67-6.76 30.43l-5.19 1.58-.22 8.97 5.69 1.43c1.14 12.59 4.9 24.41 10.74 34.9l-6.22 2.04 3.29 7.44 9.45.57c14.84 19.81 37.8 33.02 63.85 34.57v6.76h4.88v100.1z" fill="#33a048"/><path d="m749.69 520.62-356.521-.37v-100.1h4.31v-6.69c25.66-1.19 48.4-13.68 63.49-32.68l6.601-.42 3.5-6.34-3.471-2.81c5.7-9.52 9.66-20.23 11.44-31.68l6.33-.67.88-12.25-6.16-2.18c-.18-13.26-3.27-25.8-8.649-37.01l6.05-2.53-3.061-5.47-8.989-2.59c-14.96-22.57-39.98-37.72-68.55-38.84v-5.44h-3.72v-93.54h356.52z" fill="#ed1d31"/><path d="m480.09 324.43c.021.43.021.87.021 1.3 0 4.7-.36 9.31-1.07 13.8l-34.45 3.63h-.939v-28-2.85h2.26z" fill="#fbee34"/><path d="m480.09 324.43-34.18-12.12h-2.26v-13.28l27.79-11.61c5.38 11.21 8.47 23.75 8.65 37.01z" fill="#ed1d31"/><path d="m471.44 287.42-27.79 11.61v-28.07h1.38l20.41 5.87c2.24 3.37 4.25 6.91 6 10.59z" fill="#fbee34"/><path d="m443.5 351.7 24.1 19.51c-2 3.34-4.21 6.54-6.63 9.57l-38.69 2.43-.51-.59c13.39-11.49 18.76-24.46 20.77-31.2z" fill="#fbee34"/><path d="m422.28 383.21 38.69-2.43c-15.09 19-37.83 31.49-63.49 32.68v-19.13h-3.97c3.64-.49 16.71-2.67 25.25-9.26 1.05-.81 2.05-1.62 3.01-2.45z" fill="#ed1d31"/><path d="m443.65 268.29-46.76.09v-.6-29.79c28.57 1.12 53.59 16.27 68.55 38.84l-20.41-5.87h-1.38z" fill="#ed1d31"/><path d="m444.59 343.16 34.45-3.63c-1.78 11.45-5.74 22.16-11.44 31.68l-24.1-19.51-.96-.28c.86-2.87 1.11-4.61 1.11-4.61v-3.65z" fill="#ed1d31"/><path d="m428.92 315.16h9.91v9.91h-9.91z" fill="#fbee34"/><path d="m427.17 275.41h9.91v9.92h-9.91z" fill="#fbee34"/><path d="m429.95 365.56-6.88 7.15-7.15-6.86 6.87-7.16z" fill="#fbee34"/><path d="m417.46 321.51v9.9s-.38 2.7-3.14 4.82c-1.25.98-3.3 1.18-3.3 1.18s-2.07-.18-3.33-1.16c-2.75-2.12-3.14-4.82-3.14-4.82v-9.89z" fill="#a9d7f3"/><path d="m399.08 298.97v9.9s-.38 2.7-3.14 4.82c-1.25.98-3.3 1.19-3.3 1.19s-2.07-.19-3.33-1.16c-2.76-2.13-3.14-4.83-3.14-4.83v-9.89z" fill="#a9d7f3"/><path d="m398.86 345.14v9.9s-.38 2.7-3.14 4.82c-1.25.98-3.3 1.19-3.3 1.19s-2.07-.19-3.33-1.16c-2.75-2.13-3.14-4.83-3.14-4.83v-9.89z" fill="#a9d7f3"/><path d="m398.86 321.73v9.9s-.38 2.7-3.14 4.82c-1.25.97-3.3 1.18-3.3 1.18s-2.07-.18-3.33-1.16c-2.75-2.12-3.14-4.82-3.14-4.82v-9.9z" fill="#a9d7f3"/><path d="m397.48 394.33v19.13c-1.33.06-2.67.09-4.02.09-1.74 0-3.46-.05-5.17-.16v-19.06h3.21c.67.09 1.04.12 1.04.12s.35-.04.97-.12z" fill="#fbee34"/><path d="m387.34 275.55h9.92v9.92h-9.92z" fill="#fbee34"/><path d="m396.89 237.99v29.79h-9.19v-29.66c1.9-.14 3.82-.2 5.76-.2 1.15 0 2.29.02 3.43.07z" fill="#fbee34"/><path d="m391.5 394.33h-3.21v19.06c-26.05-1.55-49.01-14.76-63.85-34.57l36.13 2.2.25-.27c1.63 1.53 3.39 3.04 5.3 4.51 8.5 6.56 21.62 8.61 25.38 9.07z" fill="#33a048"/><path d="m396.89 268.38-55.65.1v27.64h-1.46l-20.73-15.4c14.2-24.07 39.46-40.67 68.65-42.6v29.66h9.19z" fill="#33a048"/><path d="m380.05 321.73-12.91.02v9.9s.38 2.7 3.13 4.82c1.26.98 3.33 1.16 3.33 1.16s2.05-.21 3.31-1.18c2.75-2.12 3.14-4.82 3.14-4.82zm24.5 9.7s.39 2.7 3.14 4.82c1.26.98 3.33 1.16 3.33 1.16s2.05-.2 3.3-1.18c2.76-2.12 3.14-4.82 3.14-4.82v-9.9l-12.91.03zm-5.69.2v-9.9l-12.91.02v9.9s.39 2.7 3.14 4.82c1.26.98 3.33 1.16 3.33 1.16s2.05-.21 3.3-1.18c2.76-2.12 3.14-4.82 3.14-4.82zm25.26-6.56v14.82s-1.89 13.25-15.39 23.67c-6.18 4.77-16.21 5.8-16.21 5.8s-10.15-.9-16.35-5.68c-13.49-10.42-15.38-23.67-15.38-23.67v-24.56-23.99l63.33-.12zm-25.04-16.2v-9.9l-12.91.03v9.89s.38 2.7 3.14 4.83c1.26.97 3.33 1.16 3.33 1.16s2.05-.21 3.3-1.19c2.76-2.12 3.14-4.82 3.14-4.82zm-.22 46.17v-9.9l-12.91.03v9.89s.39 2.7 3.14 4.83c1.26.97 3.33 1.16 3.33 1.16s2.05-.21 3.3-1.19c2.76-2.12 3.14-4.82 3.14-4.82z" fill="#fff"/><path d="m380.05 321.73v9.9s-.39 2.7-3.14 4.82c-1.26.97-3.31 1.18-3.31 1.18s-2.07-.18-3.33-1.16c-2.75-2.12-3.13-4.82-3.13-4.82v-9.9z" fill="#a9d7f3"/><path d="m361.81 358.69 6.87 7.16-7.16 6.86-6.87-7.15z" fill="#fbee34"/><path d="m347.74 275.62h9.91v9.92h-9.91z" fill="#fbee34"/><path d="m346.2 315.45h9.92v9.92h-9.92z" fill="#fbee34"/><path d="m354.65 365.56 6.87 7.15 7.16-6.86-6.87-7.16zm75.3 0-7.16-6.87-6.87 7.16 7.15 6.86zm-69.13 15.19c-7.7-7.19-12.44-14.78-15.32-20.94-3.5-7.46-4.26-12.82-4.26-12.82v-4.7-16.92h4.96 9.92v-9.92h4.67v24.56s1.89 13.25 15.38 23.67c6.2 4.78 16.35 5.68 16.35 5.68s10.03-1.03 16.21-5.8c13.5-10.42 15.39-23.67 15.39-23.67v-14.82h4.8 9.91v-9.91h4.82v28 3.65s-.25 1.74-1.11 4.61c-2.01 6.74-7.38 19.71-20.77 31.2-.96.83-1.96 1.64-3.01 2.45-8.54 6.59-21.61 8.77-25.25 9.26h-2.01c-3.76-.46-16.88-2.51-25.38-9.07-1.91-1.47-3.67-2.98-5.3-4.51z" fill="#ed1d31"/><path d="m397.26 285.47v-9.92h-9.92v9.92zm-56.02 39.9v-13.71-15.54-27.64l55.65-.1 46.76-.09v2.67 28.07 13.28 2.85h-4.82-9.91v9.91h-4.8v-33.73l-63.33.12v23.99h-4.67-9.92v9.92zm95.84-40.04v-9.92h-9.91v9.92zm-79.43.21v-9.92h-9.91v9.92z" fill="#ed1d31"/><path d="m344.6 360.01.9-.2c2.88 6.16 7.62 13.75 15.32 20.94l-.25.27-36.13-2.2c-2.4-3.19-4.58-6.54-6.52-10.05z" fill="#fbee34"/><path d="m341.24 346.99s.76 5.36 4.26 12.82l-.9.2-26.68 8.76c-5.84-10.49-9.6-22.31-10.74-34.9l33.48 8.42h.58z" fill="#33a048"/><path d="m341.24 325.37v16.92h-.58l-33.48-8.42c-.25-2.68-.37-5.4-.37-8.14 0-1.29.03-2.57.09-3.84l29.43-8.98 4.11-1.25h.8z" fill="#fbee34"/><path d="m341.24 296.12v15.54h-.8l-4.11 1.25-.05-.16-22.62-21.29c1.56-3.72 3.36-7.31 5.39-10.74l20.73 15.4z" fill="#fbee34"/><path d="m336.28 312.75.05.16-29.43 8.98c.45-10.76 2.82-21.02 6.76-30.43z" fill="#33a048"/><path d="m161.38 112.97c-5.99 2.82-13.12 4.45-20.78 4.45-7.43 0-14.37-1.54-20.24-4.2-10.92-4.94-18.19-13.75-18.19-23.81 0-15.46 17.2-28.01 38.43-28.01s38.43 12.55 38.43 28.01c0 9.89-7.03 18.58-17.65 23.56z" fill="#c8c8c8"/><g fill="none"><path d="m163.85 139.01h229.32 356.52v381.61l-356.52-.37-227.17-.24" stroke="#231f20" stroke-width="21"/><path d="m120.36 113.22c-10.92-4.94-18.19-13.75-18.19-23.81 0-15.46 17.2-28.01 38.43-28.01s38.43 12.55 38.43 28.01c0 9.89-7.03 18.58-17.65 23.56-5.99 2.82-13.12 4.45-20.78 4.45-7.43 0-14.37-1.54-20.24-4.2z" stroke="#231f20" stroke-width="21"/><path d="m120 114 1.7 673.07" stroke="#231f20" stroke-width="21"/><path d="m161.38 111.15v1.82 26.04 381 267.06" stroke="#231f20" stroke-width="21"/><path d="m393.51 394.33c3.64-.49 16.71-2.67 25.25-9.26 1.05-.81 2.05-1.62 3.01-2.45 13.39-11.49 18.76-24.46 20.77-31.2.86-2.87 1.11-4.61 1.11-4.61v-3.65-28-2.85-13.28-28.07-2.67l-46.76.09-55.65.1v27.64 15.54 13.71 16.92 4.7s.76 5.36 4.26 12.82c2.88 6.16 7.62 13.75 15.32 20.94 1.63 1.53 3.39 3.04 5.3 4.51 8.5 6.56 21.62 8.61 25.38 9.07.67.09 1.04.12 1.04.12s.35-.04.97-.12z" stroke="#231f20" stroke-width="7.002"/><path d="m360.79 315.45v24.56s1.89 13.25 15.38 23.67c6.2 4.78 16.35 5.68 16.35 5.68s10.03-1.03 16.21-5.8c13.5-10.42 15.39-23.67 15.39-23.67v-14.82-33.73l-63.33.12z" stroke="#231f20" stroke-width="7.002"/><path d="m395.94 313.69c2.76-2.12 3.14-4.82 3.14-4.82v-9.9l-12.91.03v9.89s.38 2.7 3.14 4.83c1.26.97 3.33 1.16 3.33 1.16s2.05-.21 3.3-1.19z" stroke="#231f20" stroke-width="3.501"/><path d="m395.72 336.45c2.76-2.12 3.14-4.82 3.14-4.82v-9.9l-12.91.02v9.9s.39 2.7 3.14 4.82c1.26.98 3.33 1.16 3.33 1.16s2.05-.21 3.3-1.18z" stroke="#231f20" stroke-width="3.501"/><path d="m414.32 336.23c2.76-2.12 3.14-4.82 3.14-4.82v-9.9l-12.91.03v9.89s.39 2.7 3.14 4.82c1.26.98 3.33 1.16 3.33 1.16s2.05-.2 3.3-1.18z" stroke="#231f20" stroke-width="3.501"/><path d="m376.91 336.45c2.75-2.12 3.14-4.82 3.14-4.82v-9.9l-12.91.02v9.9s.38 2.7 3.13 4.82c1.26.98 3.33 1.16 3.33 1.16s2.05-.21 3.31-1.18z" stroke="#231f20" stroke-width="3.501"/><path d="m395.72 359.86c2.76-2.12 3.14-4.82 3.14-4.82v-9.9l-12.91.03v9.89s.39 2.7 3.14 4.83c1.26.97 3.33 1.16 3.33 1.16s2.05-.21 3.3-1.19z" stroke="#231f20" stroke-width="3.501"/><path d="m480.09 324.43c.021.43.021.87.021 1.3 0 4.7-.36 9.31-1.07 13.8-1.78 11.45-5.74 22.16-11.44 31.68-2 3.34-4.21 6.54-6.63 9.57-15.09 19-37.83 31.49-63.49 32.68-1.33.06-2.67.09-4.02.09-1.74 0-3.46-.05-5.17-.16-26.05-1.55-49.01-14.76-63.85-34.57-2.4-3.19-4.58-6.54-6.52-10.05-5.84-10.49-9.6-22.31-10.74-34.9-.25-2.68-.37-5.4-.37-8.14 0-1.29.03-2.57.09-3.84.45-10.76 2.82-21.02 6.76-30.43 1.56-3.72 3.36-7.31 5.39-10.74 14.2-24.07 39.46-40.67 68.65-42.6 1.9-.14 3.82-.2 5.76-.2 1.15 0 2.29.02 3.43.07 28.57 1.12 53.59 16.27 68.55 38.84 2.239 3.37 4.25 6.91 6 10.59 5.379 11.21 8.469 23.75 8.649 37.01z" stroke="#231f20" stroke-width="14.004"/><path d="m347.74 275.62h9.91v9.92h-9.91z" stroke="#231f20" stroke-width="3.501"/><path d="m346.2 315.45h9.92v9.92h-9.92z" stroke="#231f20" stroke-width="3.501"/><path d="m368.68 365.85-7.16 6.86-6.87-7.15 7.16-6.87z" stroke="#231f20" stroke-width="3.501"/><path d="m429.95 365.56-7.16-6.87-6.87 7.16 7.15 6.86z" stroke="#231f20" stroke-width="3.501"/><path d="m387.34 275.55h9.92v9.92h-9.92z" stroke="#231f20" stroke-width="3.501"/><path d="m428.92 315.16h9.91v9.91h-9.91z" stroke="#231f20" stroke-width="3.501"/><path d="m427.17 275.41h9.91v9.92h-9.91z" stroke="#231f20" stroke-width="3.501"/><path d="m396.89 267.78h-9.19v-29.66-5.57h5.47 3.72v5.44z" stroke="#231f20" stroke-width="7.002"/><path d="m397.48 413.46v6.69h-4.31-4.88v-6.76-19.06h3.21 2.01 3.97z" stroke="#231f20" stroke-width="7.002"/><path d="m445.03 270.96 20.41 5.87 8.99 2.59 3.06 5.47-6.05 2.53-27.79 11.61-.37.15" stroke="#231f20" stroke-width="7.002"/><path d="m445.91 312.31 34.18 12.12 6.16 2.18-.88 12.25-6.33.67-34.45 3.63" stroke="#231f20" stroke-width="7.002"/><path d="m443.5 351.7 24.1 19.51 3.47 2.81-3.5 6.34-6.6.42-38.69 2.43" stroke="#231f20" stroke-width="7.002"/><path d="m360.57 381.02-36.13-2.2-9.45-.57-3.29-7.44 6.22-2.04 26.68-8.76" stroke="#231f20" stroke-width="7.002"/><path d="m340.66 342.29-33.48-8.42-5.69-1.43.22-8.97 5.19-1.58 29.43-8.98 4.11-1.25" stroke="#231f20" stroke-width="7.002"/><path d="m336.28 312.75-22.62-21.29-4.51-4.24 4.81-10.28 5.09 3.78 20.73 15.4" stroke="#231f20" stroke-width="7.002"/><path d="m393.17 415.59v4.56 100.1 3.87" stroke="#231f20" stroke-width="7"/><path d="m393.17 131.13v7.88 93.54 4.49" stroke="#231f20" stroke-width="7"/><path d="m0 0h850.394v850.394h-850.394z"/></g></svg>