<svg enable-background="new 0 0 851.89 851.89" height="851.89" viewBox="0 0 851.89 851.89" width="851.89" xmlns="http://www.w3.org/2000/svg"><path d="m851.14 850.64-.5.5v-.5z" fill="#231f20"/><path d="m851.14 1.25h-.5v-.5z" fill="#231f20"/><path d="m740.93 137.09v379.83h-442.18v-378.17-1.66zm-88.68 279.66c0-.37-.06-.73-.17-1.06-.021-.08-.05-.16-.08-.24-.01-.02-.02-.04-.03-.06-.05-.12-.1-.24-.17-.35-.04-.08-.08-.15-.14-.22-.01-.03-.021-.05-.04-.06-.11-.17-.24-.33-.4-.48-.069-.08-.149-.16-.239-.22-.12-.1-.24-.19-.381-.27-.08-.06-.17-.11-.26-.15-.07-.05-.149-.08-.229-.11-.141-.07-.29-.12-.45-.15-.11-.04-.22-.06-.34-.08-.03-.01-.061-.01-.101-.01-.149-.03-.31-.04-.47-.04-38.29 0-68.92-3.24-93.65-9.91-30.439-8.21-52.47-21.55-67.35-40.76-12.04-15.54-19.32-35.3-21.62-58.72-2.52-25.73.84-56.76 10.01-92.23.011-.03.021-.07.021-.1.04-.13.06-.26.07-.39s.02-.26.02-.39c0-.11 0-.21-.01-.32-.01-.08-.021-.17-.04-.26-.061-.39-.19-.76-.38-1.1-.09-.16-.181-.31-.29-.45-.05-.07-.11-.14-.181-.21-.06-.07-.119-.13-.18-.19 0-.01-.01-.01-.02-.02-.16-.15-.341-.29-.53-.41-.11-.07-.23-.14-.351-.19-.109-.06-.229-.11-.35-.15h-.01c-.09-.04-.18-.07-.28-.09-.03-.01-.07-.02-.1-.02-.13-.04-.261-.06-.391-.07-.239-.03-.479-.03-.71-.01-.08.01-.17.02-.26.04-.66.11-1.27.41-1.77.85-33.16 25.48-51.69 69.93-51.69 113.47 0 23.32 5.31 46.38 16.55 66.12 15.78 27.73 41.65 46.069 74.79 53.05 38.42 8.09 85.521 1.09 140-20.79.021-.01.04-.02.061-.03l.35-.17c.08-.04.15-.08.22-.14l.061-.04c.17-.11.33-.24.479-.4.08-.07.16-.15.221-.24.1-.12.189-.24.27-.38.06-.08.11-.17.15-.26.05-.07.08-.15.109-.23.07-.14.12-.29.15-.45.04-.11.06-.22.08-.34.01-.03.01-.06.01-.1.031-.15.041-.31.041-.47zm-29.73-101.62-4.25-5.68-1.659-2.23-15.04-20.15 8.08-23.82.89-2.63 2.28-6.72-6.721 2.28-2.63.89-23.819 8.08-20.15-15.04-2.22-1.66-5.69-4.24.09 7.09.04 2.78.32 25.14-20.53 14.52-2.27 1.6-5.79 4.1 6.77 2.1 2.65.82v.01l24.02 7.46 7.46 24.02h.011l.819 2.65 2.101 6.77 4.1-5.79 1.601-2.27 14.52-20.53 25.15.32 2.77.04z" fill="#34a047"/><path d="m652.21 417.22c.03-.16.04-.31.04-.47 0 .16-.01.32-.04.47z"/><path d="m652.12 417.66c.04-.11.06-.23.08-.34-.02.12-.04.23-.08.34z"/><path d="m652.08 415.69c-.03-.1-.061-.2-.11-.3.011.02.021.04.03.06.03.08.06.16.08.24z"/><path d="m651.86 418.34c.04-.07.08-.15.109-.23-.029.08-.059.16-.109.23z"/><path d="m651.71 418.6c.06-.08.11-.17.15-.26-.04.09-.09.18-.15.26z"/><path d="m651.8 415.04c-.04-.08-.09-.15-.14-.22.06.07.1.14.14.22z"/><path d="m651.22 414.28c.16.15.29.31.4.48-.12-.17-.25-.33-.4-.48z"/><path d="m651.22 419.22c.08-.08.15-.15.221-.24-.061.09-.141.17-.221.24z"/><path d="m651.22 414.28c-.08-.08-.149-.15-.239-.22.089.06.169.14.239.22z"/><path d="m650.74 419.62c.17-.12.33-.25.479-.4-.149.16-.309.29-.479.4z"/><path d="m650.46 419.8c.08-.04.15-.09.22-.14-.07.06-.14.1-.22.14z"/><path d="m650.6 413.79c-.08-.06-.17-.11-.26-.15.09.04.18.09.26.15z"/><path d="m650.34 413.64c-.07-.04-.149-.08-.229-.11.079.03.159.06.229.11z"/><path d="m651.22 414.28c.15.15.28.31.4.48.02.01.03.03.04.06.05.07.1.14.14.22.07.11.12.23.17.35.05.1.08.2.11.3.11.33.17.69.17 1.06 0 .16-.01.31-.04.47 0 .04 0 .07-.01.1-.021.11-.04.23-.08.34-.03.16-.08.31-.15.45-.029.08-.069.16-.109.23-.04.09-.091.18-.15.26-.08.14-.17.26-.27.38-.07.09-.141.16-.221.24-.149.15-.31.28-.479.4l-.061.04c-.069.05-.14.1-.22.14l-.35.17c-.42.18-.88.28-1.36.28-6.38 0-12.56-.09-18.53-.27 5.66-1.98 11.4-4.14 17.23-6.48.43-.17.87-.25 1.3-.25.16 0 .31.01.47.04.04 0 .07 0 .101.01.109.02.229.04.34.08.16.03.31.08.45.15.08.03.159.07.229.11.09.04.18.09.26.15.141.08.261.17.381.27.089.07.159.14.239.22z"/><path d="m650.11 419.97c-.021.01-.04.02-.061.03-54.479 21.88-101.58 28.88-140 20.79-33.14-6.98-59.01-25.32-74.79-53.05-11.24-19.74-16.55-42.8-16.55-66.12 0-43.54 18.53-87.99 51.69-113.47-.49.44-.87 1.03-1.04 1.72-.92 3.57-1.79 7.09-2.601 10.57-18.81 17.74-32.5 43.47-38.149 72.17-6.44 32.72-1.79 66.13 12.739 91.67 31.011 54.49 99.311 67.161 188.87 35.7 5.971.18 12.15.27 18.53.27.482 0 .942-.1 1.362-.28z"/><path d="m649.66 413.38c-.11-.04-.23-.06-.34-.08.12.02.23.04.34.08z"/><path d="m649.22 413.29c-.16-.03-.31-.04-.47-.04.16 0 .32.01.47.04z"/><path d="m647.45 413.5c-5.83 2.34-11.57 4.5-17.23 6.48-30.47-.91-55.77-4.17-76.939-9.88-31.98-8.63-55.221-22.77-71.07-43.23-16.01-20.69-24-47.21-24-80.2 0-19.72 2.85-41.76 8.55-66.23 2.61-2.46 5.32-4.77 8.12-6.91.67-.52 1.11-1.23 1.28-2 0 .03-.01.07-.021.1-9.17 35.47-12.529 66.5-10.01 92.23 2.3 23.42 9.58 43.18 21.62 58.72 14.88 19.21 36.91 32.55 67.35 40.76 24.73 6.67 55.36 9.91 93.65 9.91-.43 0-.87.08-1.3.25z"/><path d="m618.27 309.45 4.25 5.68-7.1-.09-2.77-.04.02-1.37 2.84-5.59 1.1-.82z" fill="#231f20"/><path d="m615.51 308.04-2.84 5.59-4.24-5.68z" fill="#231f20"/><path d="m612.82 253.9-2.28 6.72-.89 2.63-1.3-.44-4.44-4.44-.44-1.3 2.63-.89z" fill="#231f20"/><path d="m608.43 307.95-22.68-.29-1.84-.03-1.06 1.51-13.09 18.51-6.73-21.65-.55-1.76-1.76-.55-21.65-6.73 18.51-13.09 1.51-1.06-.03-1.84-.29-22.67 18.17 13.56 1.48 1.1 1.74-.59 21.47-7.28-7.28 21.47-.59 1.74 1.1 1.48z" fill="#fff"/><path d="m608.35 262.81-6.72 2.28 2.28-6.72z" fill="#231f20"/><path d="m600.47 285.59 1.1 1.48-.59 1.74z" fill="#231f20"/><path d="m600.98 288.81.59-1.74 15.04 20.15-1.1.82-7.08-.09-13.57-18.17-1.1-1.48.59-1.74 7.28-21.47 6.72-2.28 1.3.44-8.08 23.82-1.1-1.48z" fill="#231f20"/><path d="m553.28 410.1c21.17 5.71 46.47 8.97 76.939 9.88-89.56 31.46-157.859 18.79-188.87-35.7-14.529-25.54-19.18-58.95-12.739-91.67 5.649-28.7 19.34-54.43 38.149-72.17-5.7 24.47-8.55 46.51-8.55 66.23 0 32.99 7.99 59.51 24 80.2 15.851 20.46 39.091 34.6 71.071 43.23z" fill="#fff"/><g fill="#231f20"><path d="m588.56 313.18-1.06 1.5-1.84-.02z"/><path d="m585.75 307.66 22.68.29 4.24 5.68-.02 1.37-25.15-.32 1.06-1.5-2.9 1.48 1.84.02-14.52 20.53-1.12-.79-2.1-6.77 13.09-18.51 1.06-1.51z"/><path d="m581.13 266.25-3.22-.51 1.74-.59z"/><path d="m601.63 265.09-21.47 7.28-1.74.59-1.48-1.1-18.17-13.56-.09-7.09.82-1.1 20.15 15.04-1.74.59 3.22.51-1.48-1.1 23.82-8.08.44 1.3z"/><path d="m569.76 327.65 2.1 6.77-6.2-.98z"/><path d="m565.66 333.44 6.2.98 1.12.79-1.6 2.27-4.1 5.79-2.1-6.77-.82-2.65z"/><path d="m552.06 281.06 1.48-2.9-1.5 1.06-.32-25.14 1.37-.02 5.68 4.24.29 22.67.03 1.84-1.51 1.06-18.51 13.09-6.77-2.1-.79-1.12 20.53-14.52z"/><path d="m558.68 251.21.09 7.09-5.68-4.24z"/><path d="m558.64 310.38-1.75-.55-.55-1.75z"/><path d="m563.03 306 6.73 21.65-4.1 5.79-1.3.41h-.01l-7.46-24.02 1.75.55-2.3-2.3.55 1.75-24.02-7.46v-.01l.41-1.3 5.79-4.1 21.65 6.73 1.76.55z"/><path d="m553.54 278.16-1.48 2.9-.02-1.84z"/><path d="m558.68 251.21-5.59 2.85-1.37.02-.04-2.78-.09-7.09 5.69 4.24 2.22 1.66z"/><path d="m539.07 296.96-5.79 4.1-.98-6.2z"/><path d="m532.3 294.86.98 6.2-.41 1.3-2.65-.82-6.77-2.1 5.79-4.1 2.27-1.6z"/></g><path d="m476.24 210.43c.01.11.01.21.01.32 0 .13-.01.26-.02.39-.021.13-.04.26-.07.39-.17.77-.61 1.48-1.28 2-2.8 2.14-5.51 4.45-8.12 6.91.811-3.48 1.681-7 2.601-10.57.17-.69.55-1.28 1.04-1.72.5-.44 1.109-.74 1.77-.85.09-.02.17-.03.26-.04.23-.02.471-.02.71.01.13.02.261.04.391.07s.25.06.38.11h.01c.12.04.24.09.35.15.12.05.24.12.351.19.189.12.37.26.53.41.01.01.02.01.02.02.061.06.12.12.18.19.07.07.131.14.181.21.109.14.21.29.29.45.189.34.319.71.38 1.1.016.09.026.17.036.26z"/><path d="m476.24 210.43c-.01-.09-.021-.17-.04-.26.02.09.03.18.04.26z"/><path d="m476.16 211.53c.03-.13.05-.26.07-.39-.01.13-.03.26-.07.39z"/><path d="m475.53 208.62c.109.14.2.29.29.45-.08-.16-.18-.31-.29-.45z"/><path d="m475.35 208.41c-.06-.07-.119-.13-.18-.19.06.06.12.12.18.19z"/><path d="m475.15 208.2c-.16-.15-.341-.29-.53-.41.19.12.37.26.53.41z"/><path d="m474.62 207.79c-.11-.07-.23-.14-.351-.19.121.05.241.12.351.19z"/><path d="m474.27 207.6c-.109-.06-.229-.11-.35-.15.12.04.24.09.35.15z"/><path d="m473.91 207.45c-.13-.05-.25-.08-.38-.11.029 0 .069.01.1.02.1.02.19.05.28.09z"/><path d="m473.53 207.34c-.13-.03-.261-.05-.391-.07.131.01.261.03.391.07z"/><path d="m472.43 207.26c-.09.01-.17.02-.26.04.09-.02.18-.03.26-.04z"/><path d="m163.36 137.09h135.39v1.66 378.17h-129.48l-3.45-375.83h-2.46z" fill="#fff"/><path d="m142.67 63.84c21.13 0 38.26 12.48 38.26 27.88 0 9.84-7 18.49-17.57 23.45-5.96 2.8-13.07 4.43-20.69 4.43-7.3 0-14.12-1.49-19.92-4.08-10.99-4.89-18.33-13.72-18.33-23.8 0-15.4 17.13-27.88 38.25-27.88z" fill="#c8c8c8"/><path d="m165.82 141.09 3.45 375.83h-5.91v-375.83z" fill="#c8c8c8"/><path d="m163.36 516.92v269.21h-39.49l-1.12-670.61c5.8 2.59 12.62 4.08 19.92 4.08 7.62 0 14.73-1.63 20.69-4.43v21.92 4z" fill="#c8c8c8"/><path d="m1.25 850.64v.5l-.5-.5z" fill="#231f20"/><path d="m1.25.75v.5h-.5z" fill="#231f20"/><path d="m.75 850.64.5.5v-.5h849.39v.5l.5-.5h-.5v-849.39h.5l-.5-.5v.5h-849.39v-.5l-.5.5h.5v849.39zm-.5.5v-850.39-.5h.5 850.39.5v.5 850.39.5h-.5-850.39-.5z" fill="#231f20"/><path d="m157.82 137.09h5.54 135.39 442.18v379.83h-442.18-129.48-5.91-2.05" fill="none" stroke="#231f20" stroke-width="21"/><path d="m122.75 115.52c-10.99-4.89-18.33-13.72-18.33-23.8 0-15.4 17.13-27.88 38.25-27.88 21.13 0 38.26 12.48 38.26 27.88 0 9.84-7 18.49-17.57 23.45-5.96 2.8-13.07 4.43-20.69 4.43-7.3 0-14.12-1.49-19.92-4.08z" fill="none" stroke="#231f20" stroke-width="21"/><path d="m122.75 114.75v.77l1.12 670.61" fill="none" stroke="#231f20" stroke-width="21"/><path d="m163.36 113.35v1.82 21.92 4 375.83 269.21" fill="none" stroke="#231f20" stroke-width="21"/><path d="m298.75 138.75v378.17 1.83" fill="none" stroke="#231f20" stroke-width="14"/></svg>