<svg enable-background="new 0 0 850.394 850.394" height="850.394" viewBox="0 0 850.394 850.394" width="850.394" xmlns="http://www.w3.org/2000/svg"><path d="m141.92 118.85c7.62 0 14.73-1.63 20.69-4.43v670.96h-39.49l-1.12-670.61c5.8 2.59 12.62 4.08 19.92 4.08z" fill="#c8c8c8"/><path d="m173.01 292.77h194.72c-5.1 11.7-7.93 24.64-7.93 38.23 0 11.2 1.92 21.95 5.45 31.94-62.28 2.71-129.57.17-193.57 1.06.53-14.07-.23-29.48-.23-44.1 0-9.59.33-18.83 1.56-27.13z" fill="#ed1e29"/><path d="m741.17 292.77v217.87c-106.89 0-213.78 0-320.67 0v-2.79h67.86c0-29.39 0-58.779 0-88.169 24.92-9.9 44.689-30.25 54.01-55.68h196.14c0-23.75 0-47.49 0-71.23h2.66z" fill="#fff"/><path d="m741.17 179.39v113.38h-2.66c-66.08 0-132.16 0-198.24 0-10-22.98-28.729-41.24-51.909-50.45 0-30.67 0-61.33 0-92.01v-2.79h252.81c-.001 10.62-.001 21.25-.001 31.87z" fill="#fff"/><path d="m738.51 292.77v71.23c-65.38 0-130.76 0-196.14 0 3.77-10.29 5.83-21.41 5.83-33 0-13.59-2.83-26.53-7.931-38.23z" fill="#ed1e29"/><path d="m540.27 292.77c5.101 11.7 7.931 24.64 7.931 38.23 0 11.59-2.061 22.71-5.83 33-1.59 0-3.19 0-4.78 0 8.8-19.6 7.93-51.35 0-71.23z" fill="#231f20"/><path d="m372.6 292.77c-1.62 0-3.25 0-4.87 0 10.12-23.27 29.19-41.69 52.77-50.78v1.9c20-6.87 47.56-7.87 67.86 0 0-.52 0-1.05 0-1.57 23.18 9.21 41.909 27.47 51.909 50.45-.89 0-1.789 0-2.68 0 7.93 19.88 8.8 51.63 0 71.23h4.78c-9.32 25.43-29.09 45.78-54.01 55.68 0-1.8 0-3.61 0-5.41-16.54 6.35-47.96 8.99-63.87 0 1.24-.33 1.04-.88.35-.88l2.95-3.9c8.229 2.83 17.05 4.36 26.21 4.36 14.37 0 27.89-3.77 39.64-10.39 25.13-14.16 42.16-41.34 42.16-72.46 0-25.7-11.609-48.7-29.79-63.91-8.89-7.43-19.34-13-30.779-16.11-6.771-1.85-13.891-2.83-21.23-2.83-22.56 0-43 9.29-57.82 24.29-14.81 15.01-23.98 35.72-23.98 58.56 0 10.71 2.01 20.94 5.68 30.35l-5.7.46c-9.3-17.83-7.13-51.07.42-69.04z" fill="#231f20"/><path d="m535.8 331c0 31.12-17.03 58.3-42.16 72.46l-.149-.26c7.52-4.15 12.66-10.87 12.17-18.26-.24 2.37-6.33-.64-5.33-4.19.13-7.23 6.86-5.39 11.979-4.19-7.899-19.32 10.011-33.08 11.971-41.89 5.569-25.01-11.681-48.79-21.29-62.85l3.02-4.73c18.179 15.21 29.789 38.21 29.789 63.91z" fill="#fbed24"/><path d="m485.7 320.7c10.29-13.46 20 3.05 25.28 11.17-5.811 3.27-12.48-4.56-14.641-9.77-3.28-.19-6.41-.21-7.979 1.39 1.899 8.26 10.72 23.44 9.529 31.95h-2.88c.151-15-11.419-17.69-9.309-34.74z" fill="#fbed24"/><path d="m488.36 419.68v88.169c-22.62 0-45.24 0-67.86 0 0-29.279 0-58.569 0-87.84 10.41 4.03 21.71 6.23 33.5 6.23 12.12.001 23.71-2.319 34.36-6.559z" fill="#ed1e29"/><path d="m488.36 150.31v92.01c-10.65-4.24-22.24-6.56-34.36-6.56-11.79 0-23.09 2.2-33.5 6.23 0-30.56 0-61.11 0-91.68z" fill="#ed1e29"/><path d="m481.71 277.41c-4.39-6.85 1.36-8.14-4-13.97 3.31.21 5.53-.72 6.66-2.79-3.86 5.4-4.79-5.52-2.771-4.27-1.67-1.3-4.109-2.37-6.989-3.15l.62-2.25c11.439 3.11 21.89 8.68 30.779 16.11l-3.02 4.73c-.37 2.87-3.55 2.79-5.32 4.19-.229-2.09.48-5.16-1.33-5.59-.41 4.69-4.45 5.57-7.979 6.99-2.73-5.22 6.229-8.2 0-8.38-3.05 1.92-3.13 6.96-6.65 8.38z" fill="#fbed24"/><path d="m377.88 361.35c8.8 22.56 27.12 40.31 49.91 48.14l-2.95 3.9c-.44 0-1.09.23-1.68.88-1.34.01-1.58-1.13-2.66-1.39v7.13c-25.67-9.9-45.99-30.85-55.25-57.07 2.46-.1 4.91-.22 7.35-.34-.14-.26-.28-.52-.42-.79z" fill="#231f20"/><path d="m420.5 241.99c10.41-4.03 21.71-6.23 33.5-6.23 12.12 0 23.71 2.32 34.36 6.56v1.57c-20.301-7.87-47.86-6.87-67.86 0 0-.63 0-1.27 0-1.9z" fill="#231f20"/><path d="m454 426.24c-11.79 0-23.09-2.2-33.5-6.23 0-2.38 0-4.75 0-7.13 1.08.26 1.32 1.4 2.66 1.39.59-.65 1.24-.88 1.68-.88.69 0 .89.55-.35.88 15.91 8.99 47.33 6.35 63.87 0v5.41c-10.65 4.24-22.24 6.56-34.36 6.56z" fill="#231f20"/><path d="m420.5 150.31v91.68c-23.58 9.09-42.65 27.51-52.77 50.78-64.91 0-129.81 0-194.72 0-1.23 8.3-1.56 17.54-1.56 27.13h-2.44c0-56.06 0-112.13 0-168.19-.11-1.98-.21-3.95 1.34-4.19h318.01v2.79c-22.62 0-45.24 0-67.86 0z" fill="#fff"/><path d="m439.13 336.06c-16.63 2.57-39.54-1.27-45.24-18.15 11.02-3.26 20.98 14.21 34.59 4.19-6.201-10.52-12.911-12.3-21.291-20.95-3.16.87.21 8.59-2.66 9.77-1.12-7.73-2.44-11.69-.92-16.67.63-2.07 1.75-4.31 3.58-7.07 9.87 9.19 19.7 18.44 30.6 26.54 4.16-2.16 12.5.08 13.31-5.59-1.97-6.12-10.949.53-13.31-2.79 1.81-7.1 9.09-1.44 13.31-4.19.7-6.32-1.06-10.07-5.319-11.18-3.21 3.49-5.431-.67-6.65 4.2-10.689-16.25 17.42-13.7 18.62-26.54 2.74.39 2.66 3.73 4 5.59 1.56-.7-1.01-10.33 5.32-9.78.37 2.5-1.261 2.86-1.33 1.4-1.87 1.91.819 5.75-1.33 8.38 2.27.06 3.439-1.04 3.99-2.8 2.01 1.22-.37 2.09 1.33 5.59 1.289-.04 1.029-1.71 1.329-2.79 5.61-.24-.02 2.14 0 4.19 9.61 5.04 8.03 12.26 11.98 18.15-1.75 5.4-2.92 8.29-4 16.76-1.63-.61-2.73-1.79-2.66-4.19-3.36 6.05-2.67 22.89-7.979 22.35v8.38c8.119 5.58 13.359 21.16 26.609 16.76 0-.06 0-.12 0-.18h2.88c-.649 4.62-4.25 7.27-13.52 5.76 1.17 7.15 2.43 14.21 7.979 16.76-1.449 8.26-.64 18.88-7.979 20.95-5.42.1-6.311-4.56-13.311-2.79.19-5.86 6.101-5.71 11.98-5.59.64-11.38-8.15-12.86-15.97-15.36-1.63-8.07-6.32-12.92-17.301-11.17-3.14 1.81-2.56 7.54-3.989 11.17-6.78 1.26-13.65 2.43-17.3 6.98-2.8-3.58-8.561-4.05-10.641-8.38-.34-7.41 9.71-3.47 11.97-1.39 7.431-.98 11.16-7.08 7.98-15.37 4.41-2.82 10.64-3.73 15.97-5.58-4.317-4.99-12.347-8.96-14.627-15.37z" fill="#fbed24"/><path d="m407.19 287.18c-1.83 2.76-2.95 5-3.58 7.07l-3.07-.08c2.12-8.75-3.61-9.25-5.32-13.97.9-2.9 2.38-5.18 4.28-7.02 5.73-5.52 15.34-6.94 24.99-8.34 1.899 7.12 16.2 10.4 18.63 1.39.2-3.47-.69-5.79-2.66-6.98 4.76-7.87 22.85-9.09 34.15-6.02 2.88.78 5.319 1.85 6.989 3.15-2.02-1.25-1.09 9.67 2.771 4.27-1.13 2.07-3.351 3-6.66 2.79 5.36 5.83-.39 7.12 4 13.97 3.521-1.42 3.6-6.46 6.65-8.38 6.229.18-2.73 3.16 0 8.38 3.529-1.42 7.569-2.3 7.979-6.99 1.811.43 1.101 3.5 1.33 5.59 1.771-1.4 4.95-1.32 5.32-4.19 9.609 14.06 26.859 37.84 21.29 62.85-1.96 8.81-19.87 22.57-11.971 41.89-5.119-1.2-11.85-3.04-11.979 4.19-1 3.55 5.09 6.56 5.33 4.19.49 7.39-4.65 14.11-12.17 18.26-8.65 4.79-20.45 6.18-30.41 1.3-.53-3.35 6.06.77 3.99-4.19-.48-2.1-1.13-3.4-1.9-4.14l5.89-.05c7-1.77 7.891 2.89 13.311 2.79 7.34-2.07 6.53-12.69 7.979-20.95-5.55-2.55-6.81-9.61-7.979-16.76 9.27 1.51 12.87-1.14 13.52-5.76 1.19-8.51-7.63-23.69-9.529-31.95 1.569-1.6 4.699-1.58 7.979-1.39 2.16 5.21 8.83 13.04 14.641 9.77-5.28-8.12-14.99-24.63-25.28-11.17-2.11 17.05 9.46 19.74 9.31 34.74v.18c-13.25 4.4-18.49-11.18-26.609-16.76 0-2.8 0-5.59 0-8.38 5.31.54 4.619-16.3 7.979-22.35-.07 2.4 1.03 3.58 2.66 4.19 1.08-8.47 2.25-11.36 4-16.76-3.95-5.89-2.37-13.11-11.98-18.15-.02-2.05 5.61-4.43 0-4.19-.3 1.08-.04 2.75-1.329 2.79-1.7-3.5.68-4.37-1.33-5.59-.551 1.76-1.721 2.86-3.99 2.8 2.149-2.63-.54-6.47 1.33-8.38.069 1.46 1.7 1.1 1.33-1.4-6.33-.55-3.761 9.08-5.32 9.78-1.34-1.86-1.26-5.2-4-5.59-1.2 12.84-29.31 10.29-18.62 26.54 1.22-4.87 3.44-.71 6.65-4.2 4.26 1.11 6.02 4.86 5.319 11.18-4.22 2.75-11.5-2.91-13.31 4.19 2.36 3.32 11.34-3.33 13.31 2.79-.81 5.67-9.149 3.43-13.31 5.59-10.901-8.1-20.731-17.35-30.601-26.54z" fill="#58b947"/><path d="m424.49 264.84c-9.65 1.4-19.26 2.82-24.99 8.34l-3.32-.74c14.82-15 35.26-24.29 57.82-24.29 7.34 0 14.46.98 21.23 2.83l-.62 2.25c-11.301-3.07-29.391-1.85-34.15 6.02 1.97 1.19 2.86 3.51 2.66 6.98-2.43 9.01-16.73 5.73-18.63-1.39z" fill="#fbed24"/><path d="m372.2 331c0-22.84 9.17-43.55 23.98-58.56l3.32.74c-1.9 1.84-3.38 4.12-4.28 7.02 1.71 4.72 7.44 5.22 5.32 13.97-3.77 1.45-5.55 1.45-9.32 0-6.5 15.47-12.73 54.88 1.33 67.03-.96 4.27 1.37 5.09 1.34 8.38 2.71 3.32 5.26-1.92 7.98 1.4 1.25 21.85 23.71 36.02 43.91 34.91-1.83-3.18 3.43-5.25 0-5.58-2.84 2.88-10.521-1-10.65-5.59 9.91 1.07 15.87-9.38 22.62-6.98-2.36 3.57-5.71 6.1-6.65 11.17 4.301 2.54 10.49-6.15 14.07-2.74.771.74 1.42 2.04 1.9 4.14 2.069 4.96-4.521.84-3.99 4.19 9.96 4.88 21.76 3.49 30.41-1.3l.149.26c-11.75 6.62-25.27 10.39-39.64 10.39-9.16 0-17.98-1.53-26.21-4.36-22.79-7.83-41.11-25.58-49.91-48.14-3.669-9.41-5.679-19.64-5.679-30.35z" fill="#fbed24"/><path d="m428.48 322.1c-13.61 10.02-23.57-7.45-34.59-4.19 5.7 16.88 28.61 20.72 45.24 18.15 2.28 6.41 10.311 10.38 14.63 15.37-5.33 1.85-11.56 2.76-15.97 5.58 3.18 8.29-.55 14.39-7.98 15.37-2.26-2.08-12.31-6.02-11.97 1.39 2.08 4.33 7.84 4.8 10.641 8.38 3.649-4.55 10.52-5.72 17.3-6.98 1.43-3.63.85-9.36 3.989-11.17 10.98-1.75 15.671 3.1 17.301 11.17 7.819 2.5 16.609 3.98 15.97 15.36-5.88-.12-11.79-.27-11.98 5.59l-5.89.05c-3.58-3.41-9.77 5.28-14.07 2.74.94-5.07 4.29-7.6 6.65-11.17-6.75-2.4-12.71 8.05-22.62 6.98.13 4.59 7.811 8.47 10.65 5.59 3.43.33-1.83 2.4 0 5.58-20.2 1.11-42.66-13.06-43.91-34.91-2.72-3.32-5.27 1.92-7.98-1.4.03-3.29-2.3-4.11-1.34-8.38-14.06-12.15-7.83-51.56-1.33-67.03 3.77 1.45 5.55 1.45 9.32 0l3.07.08c-1.52 4.98-.2 8.94.92 16.67 2.87-1.18-.5-8.9 2.66-9.77 8.379 8.65 15.089 10.43 21.289 20.95z" fill="#58b947"/><path d="m367.73 292.77h4.87c-7.55 17.97-9.72 51.21-.42 69.04.14.27.28.53.42.79-2.44.12-4.89.24-7.35.34-3.53-9.99-5.45-20.74-5.45-31.94 0-13.59 2.83-26.53 7.93-38.23z" fill="#231f20"/><path d="m169.01 510.64c0-63.58 0-127.16 0-190.74h2.44c0 14.62.76 30.03.23 44.1 64-.89 131.29 1.65 193.57-1.06 9.26 26.22 29.58 47.17 55.25 57.07v87.84 2.79c-83.83 0-167.66 0-251.49 0z" fill="#fff"/><path d="m141.92 63.09c21.13 0 38.26 12.48 38.26 27.88 0 9.84-7 18.49-17.57 23.45-5.96 2.8-13.07 4.43-20.69 4.43-7.3 0-14.12-1.49-19.92-4.08-10.99-4.89-18.33-13.72-18.33-23.8 0-15.4 17.13-27.88 38.25-27.88z" fill="#c8c8c8"/><path d="m170.35 147.52c-1.55.24-1.45 2.21-1.34 4.19v168.19 190.74h-.54l-3.4-370.3h583.11v37.12l-3.42 1.93h-3.59c0-10.62 0-21.25 0-31.87-84.27 0-168.54 0-252.81 0-106 0-212.01 0-318.01 0z" fill="#fff"/><path d="m169.01 510.64h251.49 320.67c0-72.63 0-145.25 0-217.87 0-37.79 0-75.59 0-113.38h3.59l3.42-1.93v342.71h-579.62l-.09-9.53z" fill="#fff"/><g fill="none"><path d="m165.07 140.34h583.11v37.12 342.71h-579.62" stroke="#231f20" stroke-width="21"/><path d="m122 114.77c-10.99-4.89-18.33-13.72-18.33-23.8 0-15.4 17.13-27.88 38.25-27.88 21.13 0 38.26 12.48 38.26 27.88 0 9.84-7 18.49-17.57 23.45-5.96 2.8-13.07 4.43-20.69 4.43-7.3 0-14.12-1.49-19.92-4.08z" stroke="#231f20" stroke-width="21"/><path d="m122 114v.77l1.12 670.61" stroke="#231f20" stroke-width="21"/><path d="m162.61 112.6v1.82 670.96" stroke="#231f20" stroke-width="21"/><path d="m744.76 179.39 3.42-1.93 2.01-1.14" stroke="#231f20" stroke-width="14"/><path d="m488.36 242.32c0-30.67 0-61.33 0-92.01-22.62 0-45.24 0-67.86 0v91.68" stroke="#231f20" stroke-width="14"/><path d="m367.73 292.77c-64.91 0-129.81 0-194.72 0-1.23 8.3-1.56 17.54-1.56 27.13 0 14.62.76 30.03.23 44.1 64-.89 131.29 1.65 193.57-1.06" stroke="#231f20" stroke-width="14"/><path d="m542.37 364h196.14c0-23.75 0-47.49 0-71.23-66.08 0-132.16 0-198.24 0" stroke="#231f20" stroke-width="14"/><path d="m420.5 420.01v87.84h67.86c0-29.39 0-58.779 0-88.169" stroke="#231f20" stroke-width="14"/><path d="m0 0h850.394v850.394h-850.394z"/></g></svg>