<svg enable-background="new 0 0 850.394 850.394" height="850.394" viewBox="0 0 850.394 850.394" width="850.394" xmlns="http://www.w3.org/2000/svg"><path d="m748.18 177.46v342.71h-579.62l-3.49-379.83h583.11zm-335.92 128.42 10-9.74-13.82-2.01-6.18-12.52-6.18 12.52-13.82 2.01 10 9.74-2.36 13.77 12.36-6.5 12.36 6.5zm-.51-59.49 10.05-9.79-13.88-2.02-6.21-12.58-6.21 12.58-13.88 2.02 10.04 9.79-2.37 13.82 12.42-6.52 12.42 6.52zm-32.72-53.7 9.35-9.11-12.92-1.88-5.77-11.7-5.78 11.7-12.91 1.88 9.34 9.11-2.2 12.86 11.55-6.07 11.55 6.07zm-6.59 158.41 10.45-10.18-14.44-2.1-6.45-13.08-6.46 13.08-14.44 2.1 10.45 10.18-2.46 14.38 12.91-6.79 12.91 6.79zm-68.05-80.9 25.74-25.09-35.57-5.17-15.91-32.23-15.91 32.23-35.58 5.17 25.74 25.09-6.07 35.43 31.82-16.72 31.81 16.72z" fill="#ed1e29"/><path d="m162.61 114.42v670.96h-39.49l-1.12-670.61c5.8 2.59 12.62 4.08 19.92 4.08 7.62 0 14.73-1.63 20.69-4.43z" fill="#c8c8c8"/><path d="m422.26 296.14-10 9.74 2.36 13.77-12.36-6.5-12.36 6.5 2.36-13.77-10-9.74 13.82-2.01 6.18-12.52 6.18 12.52z" fill="#fbed24"/><path d="m421.8 236.6-10.05 9.79 2.38 13.82-12.42-6.52-12.42 6.52 2.37-13.82-10.04-9.79 13.88-2.02 6.21-12.58 6.21 12.58z" fill="#fbed24"/><path d="m388.38 183.58-9.35 9.11 2.21 12.86-11.55-6.07-11.55 6.07 2.2-12.86-9.34-9.11 12.91-1.88 5.78-11.7 5.77 11.7z" fill="#fbed24"/><path d="m382.89 340.92-10.45 10.18 2.47 14.38-12.91-6.79-12.91 6.79 2.46-14.38-10.45-10.18 14.44-2.1 6.46-13.08 6.45 13.08z" fill="#fbed24"/><path d="m330.13 245.11-25.74 25.09 6.07 35.43-31.81-16.72-31.82 16.72 6.07-35.43-25.74-25.09 35.58-5.17 15.91-32.23 15.91 32.23z" fill="#fbed24"/><path d="m162.61 114.42c-5.96 2.8-13.07 4.43-20.69 4.43-7.3 0-14.12-1.49-19.92-4.08-10.99-4.89-18.33-13.72-18.33-23.8 0-15.4 17.13-27.88 38.25-27.88 21.13 0 38.26 12.48 38.26 27.88 0 9.84-7 18.49-17.57 23.45z" fill="#c8c8c8"/><g fill="none"><path d="m165.07 140.34h583.11v37.12 342.71h-579.62" stroke="#231f20" stroke-width="21"/><path d="m122 114.77c-10.99-4.89-18.33-13.72-18.33-23.8 0-15.4 17.13-27.88 38.25-27.88 21.13 0 38.26 12.48 38.26 27.88 0 9.84-7 18.49-17.57 23.45-5.96 2.8-13.07 4.43-20.69 4.43-7.3 0-14.12-1.49-19.92-4.08z" stroke="#231f20" stroke-width="21"/><path d="m122 114v.77l1.12 670.61" stroke="#231f20" stroke-width="21"/><path d="m162.61 112.6v1.82 670.96" stroke="#231f20" stroke-width="21"/><path d="m744.76 179.39 3.42-1.93 2.01-1.14" stroke="#231f20" stroke-width="14"/><path d="m278.65 288.91-31.82 16.72 6.07-35.43-25.74-25.09 35.58-5.17 15.91-32.23 15.91 32.23 35.57 5.17-25.74 25.09 6.07 35.43z" stroke="#231f20" stroke-width="7.5979"/><path d="m369.69 199.48-11.55 6.07 2.2-12.86-9.34-9.11 12.91-1.88 5.78-11.7 5.77 11.7 12.92 1.88-9.35 9.11 2.21 12.86z" stroke="#231f20" stroke-width="7"/><path d="m401.71 253.69-12.42 6.52 2.37-13.82-10.04-9.79 13.88-2.02 6.21-12.58 6.21 12.58 13.88 2.02-10.05 9.79 2.38 13.82z" stroke="#231f20" stroke-width="7"/><path d="m362 358.69-12.91 6.79 2.46-14.38-10.45-10.18 14.44-2.1 6.46-13.08 6.45 13.08 14.44 2.1-10.45 10.18 2.47 14.38z" stroke="#231f20" stroke-width="7.0001"/><path d="m402.26 313.15-12.36 6.5 2.36-13.77-10-9.74 13.82-2.01 6.18-12.52 6.18 12.52 13.82 2.01-10 9.74 2.36 13.77z" stroke="#231f20" stroke-width="7"/><path d="m0 0h850.394v850.394h-850.394z"/></g></svg>