<svg enable-background="new 0 0 850.394 850.394" height="850.394" viewBox="0 0 850.394 850.394" width="850.394" xmlns="http://www.w3.org/2000/svg"><path d="m748.18 374v146.17h-246.18v-4.17-142h246z" fill="#394ea1"/><path d="m748.18 295.46v78.54h-.18-246v142 4.17h-94.54v-.17-148h-240.26l-.69-74.54h236.95v-157.12h98.54v155.12z" fill="#fff"/><path d="m502 140.34h246.18v155.12h-246.18z" fill="#ed1e29"/><path d="m407.46 520v.17h-238.9l-1.36-148.17h240.26z" fill="#ed1e29"/><path d="m403.46 140.34v157.12h-236.95l-1.44-157.12z" fill="#394ea1"/><path d="m122 114.77c-10.99-4.89-18.33-13.72-18.33-23.8 0-15.4 17.13-27.88 38.25-27.88 21.13 0 38.26 12.48 38.26 27.88 0 9.84-7 18.49-17.57 23.45-5.96 2.8-13.07 4.43-20.69 4.43-7.3 0-14.12-1.49-19.92-4.08z" fill="#c8c8c8"/><path d="m162.61 297.46v74.54 413.38h-39.49l-1.12-670.61c5.8 2.59 12.62 4.08 19.92 4.08 7.62 0 14.73-1.63 20.69-4.43z" fill="#c8c8c8"/><g fill="none"><path d="m165.07 140.34h238.39 98.54 246.18v155.12 78.54 146.17h-246.18-94.54-238.9" stroke="#231f20" stroke-width="21"/><path d="m122 114.77c-10.99-4.89-18.33-13.72-18.33-23.8 0-15.4 17.13-27.88 38.25-27.88 21.13 0 38.26 12.48 38.26 27.88 0 9.84-7 18.49-17.57 23.45-5.96 2.8-13.07 4.43-20.69 4.43-7.3 0-14.12-1.49-19.92-4.08z" stroke="#231f20" stroke-width="21"/><path d="m122 114v.77l1.12 670.61" stroke="#231f20" stroke-width="21"/><path d="m162.61 112.6v1.82 183.04 74.54 413.38" stroke="#231f20" stroke-width="21"/><path d="m750 295.46h-1.82-246.18v-155.12-4.34" stroke="#231f20" stroke-width="14"/><path d="m403.46 138v2.34 157.12h-236.95-3.9-.61" stroke="#231f20" stroke-width="14"/><path d="m162 372h.61 4.59 240.26v148" stroke="#231f20" stroke-width="14"/><path d="m502 516v-142h246" stroke="#231f20" stroke-width="14"/><path d="m0 0h850.394v850.394h-850.394z"/></g></svg>