<svg enable-background="new 0 0 850.394 850.394" height="850.394" viewBox="0 0 850.394 850.394" width="850.394" xmlns="http://www.w3.org/2000/svg"><path d="m748.18 338v182.17h-579.62l-1.67-182.17h150.97c-.34 55.94 29.81 97 70.83 121.22-.35-.2-1.07.21-1.42 0 23.02 13.54 45.42 21.641 74.93 21.2 42.66-.62 74.54-19.689 96.13-40.99 28.53-28.15 41.08-65 40.31-101.43h149.36z" fill="#394ea1"/><path d="m748.18 177.46v160.54h-.18-149.36c-1.58-74.45-58.83-147.16-149.17-140.3-39.6 3-68.71 20.47-90.47 42.41-19.86 20.01-38.93 45.33-40.99 91.88-.09 2.02-.14 4.03-.15 6.01h-150.97l-1.82-197.66h583.11z" fill="#a8d7f4"/><path d="m598.64 338c.771 36.43-11.779 73.28-40.31 101.43-21.59 21.301-53.47 40.37-96.13 40.99-29.51.44-51.91-7.66-74.93-21.2.35.21 1.07-.2 1.42 0-41.02-24.22-71.17-65.28-70.83-121.22h63.76v22.27h57.96v60.78h101.78c-1.561-5.97 3.33-18.4-2.83-19.79-1.88 0-3.771 0-5.65 0-6.45-1.74.13 9.56-4.24 9.9-26.39 0-52.779 0-79.17 0 .94-16.5-1.87-36.75 1.42-50.89h32.511c-1.99-6.5 4.479-21.44-4.24-21.21-1.19-.45-2.13-.65-2.86-.65v-.41h54.9c1.92 2.15 5 2.65 7.33 1.06.8-.18 1.41-.54 1.88-1.06z" fill="#fbed24"/><path d="m598.64 338h-58.23c3.12-3.44-.41-13.53.95-18.73-33.931 0-67.86 0-101.78 0v18.73h-47.87c.09-23.53-1.63-48.85 1.22-69.62h80.57c-.52 6.18-.99 12.31 7.07 9.9 6.16-1.39 1.27-13.82 2.83-19.8-33.931 0-67.851 0-101.78 0v79.52h-63.76c.01-1.98.06-3.99.15-6.01 2.06-46.55 21.13-71.87 40.99-91.88 21.76-21.94 50.87-39.41 90.47-42.41 90.34-6.86 147.59 65.85 149.17 140.3z" fill="#fbed24"/><path d="m439.58 319.27h101.78c-1.36 5.2 2.17 15.29-.95 18.73h-9.21c-1.641-1.83-2.42-4.87-1.15-8.83-26.39 0-52.77 0-79.16 0-1.6 1.87-1.75 5.2-1.59 8.83h-9.72c0-6.24 0-12.48 0-18.73z"/><path d="m541.36 421.05c-33.931 0-67.86 0-101.78 0 0-20.26 0-40.52 0-60.78-19.32 0-38.64 0-57.96 0 0-7.42 0-14.85 0-22.27h10.09c-.01 3.71-.06 7.37-.19 10.96h48.06c0-3.65 0-7.31 0-10.96h9.72c.15 3.75.641 7.83.17 10.96h22.62c3.271-1.65-.71-10.55 4.21-10.55.73 0 1.67.2 2.86.65 8.72-.23 2.25 14.71 4.24 21.21-10.841 0-21.67 0-32.511 0-3.29 14.14-.479 34.39-1.42 50.89h79.17c4.37-.34-2.21-11.64 4.24-9.9h5.65c6.161 1.39 1.271 13.82 2.831 19.79z"/><path d="m531.2 338h9.21c-.47.52-1.08.88-1.88 1.06-2.33 1.59-5.41 1.09-7.33-1.06z"/><path d="m531.2 338h-54.9-27c-.16-3.63-.01-6.96 1.59-8.83h79.16c-1.27 3.96-.49 7 1.15 8.83z" fill="#fbed24"/><path d="m381.62 258.48h101.78c-1.561 5.98 3.33 18.41-2.83 19.8-8.061 2.41-7.59-3.72-7.07-9.9-26.85 0-53.71 0-80.57 0-2.85 20.77-1.13 46.09-1.22 69.62h-10.09c0-26.51 0-53.01 0-79.52z"/><path d="m476.3 338v.41c-4.92 0-.939 8.9-4.21 10.55-7.54 0-15.08 0-22.62 0 .471-3.13-.02-7.21-.17-10.96z" fill="#fbed24"/><path d="m439.58 338v10.96c-16.02 0-32.04 0-48.06 0 .13-3.59.18-7.25.19-10.96z" fill="#fbed24"/><path d="m162.61 114.42c-5.96 2.8-13.07 4.43-20.69 4.43-7.3 0-14.12-1.49-19.92-4.08-10.99-4.89-18.33-13.72-18.33-23.8 0-15.4 17.13-27.88 38.25-27.88 21.13 0 38.26 12.48 38.26 27.88 0 9.84-7 18.49-17.57 23.45z" fill="#c8c8c8"/><path d="m162.61 338v447.38h-39.49l-1.12-670.61c5.8 2.59 12.62 4.08 19.92 4.08 7.62 0 14.73-1.63 20.69-4.43z" fill="#c8c8c8"/><g fill="none"><path d="m165.07 140.34h583.11v37.12 160.54 182.17h-579.62" stroke="#231f20" stroke-width="21"/><path d="m122 114.77c-10.99-4.89-18.33-13.72-18.33-23.8 0-15.4 17.13-27.88 38.25-27.88 21.13 0 38.26 12.48 38.26 27.88 0 9.84-7 18.49-17.57 23.45-5.96 2.8-13.07 4.43-20.69 4.43-7.3 0-14.12-1.49-19.92-4.08z" stroke="#231f20" stroke-width="21"/><path d="m122 114v.77l1.12 670.61" stroke="#231f20" stroke-width="21"/><path d="m162.61 112.6v1.82 223.58 447.38" stroke="#231f20" stroke-width="21"/><path d="m744.76 179.39 3.42-1.93 2.01-1.14" stroke="#231f20" stroke-width="14"/><path d="m598.64 338h149.36" stroke="#231f20" stroke-width="14"/><path d="m162 338h.61 4.28 150.97" stroke="#231f20" stroke-width="14"/><path d="m598.64 338c.771 36.43-11.779 73.28-40.31 101.43-21.59 21.301-53.47 40.37-96.13 40.99-29.51.44-51.91-7.66-74.93-21.2.35.21 1.07-.2 1.42 0-41.02-24.22-71.17-65.28-70.83-121.22.01-1.98.06-3.99.15-6.01 2.06-46.55 21.13-71.87 40.99-91.88 21.76-21.94 50.87-39.41 90.47-42.41 90.34-6.86 147.59 65.85 149.17 140.3z" stroke="#abd150" stroke-width="14"/><path d="m381.62 338v22.27h57.96v60.78h101.78c-1.561-5.97 3.33-18.4-2.83-19.79-1.88 0-3.771 0-5.65 0-6.45-1.74.13 9.56-4.24 9.9-26.39 0-52.779 0-79.17 0 .94-16.5-1.87-36.75 1.42-50.89h32.511c-1.99-6.5 4.479-21.44-4.24-21.21-1.19-.45-2.13-.65-2.86-.65-4.92 0-.939 8.9-4.21 10.55-7.54 0-15.08 0-22.62 0 .471-3.13-.02-7.21-.17-10.96-.16-3.63-.01-6.96 1.59-8.83h79.16c-1.27 3.96-.49 7 1.15 8.83 1.92 2.15 5 2.65 7.33 1.06.8-.18 1.41-.54 1.88-1.06 3.12-3.44-.41-13.53.95-18.73-33.931 0-67.86 0-101.78 0v18.73 10.96c-16.02 0-32.04 0-48.06 0 .13-3.59.18-7.25.19-10.96.09-23.53-1.63-48.85 1.22-69.62h80.57c-.52 6.18-.99 12.31 7.07 9.9 6.16-1.39 1.27-13.82 2.83-19.8-33.931 0-67.851 0-101.78 0-.001 26.51-.001 53.01-.001 79.52z" stroke="#231f20" stroke-width="7"/><path d="m0 0h850.394v850.394h-850.394z"/></g></svg>