<svg enable-background="new 0 0 850.394 850.394" height="850.394" viewBox="0 0 850.394 850.394" width="850.394" xmlns="http://www.w3.org/2000/svg"><path d="m162.61 114.42v670.96h-39.49l-1.12-670.61c5.8 2.59 12.62 4.08 19.92 4.08 7.62 0 14.73-1.63 20.69-4.43z" fill="#c8c8c8"/><path d="m748.18 514v6.17h-42.14l-402.04-376.17v-3.66h36.54l405.46 373.66z" fill="#fff"/><path d="m748.18 177.46v336.54h-2.18l-405.46-373.66h407.64z" fill="#ed1e29"/><path d="m304 144 402.04 376.17h-92.04v-4.17l-407.63-375.66h97.63z" fill="#231f20"/><path d="m614 516v4.17h-40v-2.17l-408.93-377.66h41.3z" fill="#fff"/><path d="m574 518v2.17h-405.44l-3.49-379.83z" fill="#ed1e29"/><path d="m162.61 114.42c-5.96 2.8-13.07 4.43-20.69 4.43-7.3 0-14.12-1.49-19.92-4.08-10.99-4.89-18.33-13.72-18.33-23.8 0-15.4 17.13-27.88 38.25-27.88 21.13 0 38.26 12.48 38.26 27.88 0 9.84-7 18.49-17.57 23.45z" fill="#c8c8c8"/><g fill="none"><path d="m165.07 140.34h41.3 97.63 36.54 407.64v37.12 336.54 6.17h-42.14-92.04-40-405.44" stroke="#231f20" stroke-width="21"/><path d="m122 114.77c-10.99-4.89-18.33-13.72-18.33-23.8 0-15.4 17.13-27.88 38.25-27.88 21.13 0 38.26 12.48 38.26 27.88 0 9.84-7 18.49-17.57 23.45-5.96 2.8-13.07 4.43-20.69 4.43-7.3 0-14.12-1.49-19.92-4.08z" stroke="#231f20" stroke-width="21"/><path d="m122 114v.77l1.12 670.61" stroke="#231f20" stroke-width="21"/><path d="m162.61 112.6v1.82 670.96" stroke="#231f20" stroke-width="21"/><path d="m744.76 179.39 3.42-1.93 2.01-1.14" stroke="#231f20" stroke-width="14"/><path d="m165.07 140.34 408.93 377.66" stroke="#231f20" stroke-width="14"/><path d="m746 514-405.46-373.66-2.54-2.34" stroke="#231f20" stroke-width="14"/><path d="m206 140 .37.34 407.63 375.66" stroke="#231f20" stroke-width="14"/><path d="m304 144 402.04 376.17 1.96 1.83" stroke="#231f20" stroke-width="14"/><path d="m0 0h850.394v850.394h-850.394z"/></g></svg>