<svg enable-background="new 0 0 850.89 850.89" height="850.89" viewBox="0 0 850.89 850.89" width="850.89" xmlns="http://www.w3.org/2000/svg"><path d="m162.86 114.67v670.96h-39.49l-1.12-670.61c5.8 2.59 12.62 4.08 19.92 4.08 7.62 0 14.73-1.63 20.69-4.43z" fill="#c8c8c8"/><path d="m492.08 336.25h20.61v33.11h-20.61z" fill="#231f20"/><path d="m493.81 264.7h16.881v27.1h-16.881z" fill="#231f20"/><path d="m482.3 196.68c.061 19.79 7.69 54.05 1.101 78.07-2.57 0-5.131 0-7.7 0-5.54-16.96-2.59-44.9-3.29-68.13 3.39-.82 3.859-5.42 3.29-11.36.8.32 1.46.47 2 .47z" fill="#fff"/><path d="m444.06 326.11h27.601v44.36h-27.601z" fill="#231f20"/><path d="m443.81 260.7h16.881v27.1h-16.881z" fill="#231f20"/><path d="m453.72 500.45c-5.09-17.561-.76-47.28-2.2-69.561 1.78-.399 1.9 1.351 3.301 1.42-.731 22.241 1.459 48.261-1.101 68.141z" fill="#fbed24"/><path d="m448.81 406.03c-.939-4.45-1.239-10.27-.34-14.81.851-4.33 2.8-7.48 6.351-7.17-.511 3.03 1.569 2.7 3.3 2.84-.9 1.15-.66 2.63-.3 4.51.34 1.87.79 4.14.3 6.85-.93 7.65-1.44-4.27-1.101-7.1-6.069-11.92-7.84 5.43-6.6 15.61.64 4.68 4.15 2.04 6.6 1.42-.119 3.63-3.68 2.82-6.6 2.84-.63-1.21-1.19-2.96-1.61-4.99z" fill="#fff"/><path d="m439.43 412.44c3.391-1.19 6.641-2.58 7.641-6.85l1.739.44c.421 2.03.98 3.78 1.61 4.99 2.92-.02 6.48.79 6.6-2.84l.521-1.2c3 1.98 6.2 3.7 8.27 6.88-4.89 2.19-7.63 7.18-13.189 8.52-4.182-3.59-10.212-4.79-13.192-9.94z"/><path d="m435.04 413.86c2.4-4.03 9.85-8.98 12.09-8.52-.02.08-.04.17-.06.25-1 4.27-4.25 5.66-7.641 6.85 2.98 5.15 9.011 6.35 13.19 9.94 5.56-1.34 8.3-6.33 13.189-8.52-2.069-3.18-5.27-4.9-8.27-6.88-2.34-1.54-4.55-3.24-6.021-5.9 5.511.71 15.551 7.18 19.79 14.2-8.1 1.84-11.92 9.21-19.79 11.35-4.617-5.38-11.527-7.81-16.477-12.77z" fill="#fbed24"/><path d="m450.42 499.03c-6.22 0-12.45 0-18.68 0 0-3.311 0-6.63 0-9.94h2.2c3.3-1.43 1.939 3.16 2.199 5.68h7.69c2.979 1.021-.79-6.689 2.2-5.68h4.39c.001 3.31.001 6.63.001 9.94z" fill="#fbed24"/><path d="m451.52 430.89c1.44 22.28-2.89 52 2.2 69.561 2.561-19.88.37-45.9 1.101-68.141-1.401-.07-1.521-1.82-3.301-1.42zm-2.71-24.86-1.739-.44c.02-.08.04-.17.06-.25-2.24-.46-9.689 4.49-12.09 8.52 4.95 4.96 11.86 7.39 16.479 12.77 7.87-2.14 11.69-9.51 19.79-11.35-4.239-7.02-14.279-13.49-19.79-14.2 1.471 2.66 3.681 4.36 6.021 5.9l-.521 1.2c-2.449.62-5.96 3.26-6.6-1.42-1.24-10.18.53-27.53 6.6-15.61-.34 2.83.171 14.75 1.101 7.1.49-2.71.04-4.98-.3-6.85l1.399-.25c90.12 3.31 185.011.47 276.971 1.42v120.65c-187.58 0-375.161 0-562.74 0 0-40.22 0-80.43 0-120.65 90.86-.95 184.65 1.89 273.68-1.42l1.34.07c-.901 4.54-.601 10.36.339 14.81zm-14.87 83.06c-.73 0-1.471 0-2.2 0v9.94h18.68c0-3.311 0-6.63 0-9.94-1.46 0-2.93 0-4.39 0-2.99-1.01.779 6.7-2.2 5.68-2.57 0-5.13 0-7.69 0-.26-2.52 1.1-7.11-2.2-5.68zm-2.2-15.61c.8 3.22-1.98 11.069 2.2 9.93 4.319 2.28.38-6.13 3.29-5.67h7.699c.25 2.51-1.109 7.1 2.2 5.67h3.29c0-3.311 0-6.62 0-9.93-6.219 0-12.449 0-18.679 0z" fill="#ed1e29"/><path d="m433.94 483.41c-4.181 1.14-1.4-6.71-2.2-9.93h18.68v9.93c-1.1 0-2.189 0-3.29 0-3.31 1.43-1.95-3.16-2.2-5.67-2.569 0-5.13 0-7.699 0-2.911-.46 1.029 7.95-3.291 5.67z" fill="#fbed24"/><path d="m420.75 219.39c2.23-3.39 6.76-15.1 3.57-20.98l5.44-.14c8.21 16.57 4.771 66.41-.22 76.48-2.56 0-5.13 0-7.69 0-1.73-16.7-.95-36.62-1.1-55.36z" fill="#fff"/><path d="m404.74 337.14h20.05v32.22h-20.05z" fill="#231f20"/><path d="m397.81 262.7h16.88v27.1h-16.88z" fill="#231f20"/><path d="m510.69 291.8v-27.1h-16.88v27.1zm-112.88-29.1v27.1h16.88v-27.1zm-23.22 3.54c5.94-2.94 1.33 7.73 4.39 8.51 10.34 4.84 4.32-11.46 13.19-8.51 0-15.62 0-31.23 0-46.85-2.4-5.44-8.42-13.68-4.39-22.71 8.05-3.78 4.23 7.78 9.89 7.1 5.51 2.86 1.6-6.45 4.39-7.1h7.7c4.98-2.17-.58 9.27 4.39 7.1 7.5 3.52 1.3-10.62 8.8-7.1.56.49 1.02 1.08 1.37 1.73 3.19 5.88-1.34 17.59-3.57 20.98.15 18.74-.63 38.66 1.1 55.36h7.69c4.99-10.07 8.43-59.91.22-76.48-.99-2.01-2.16-3.53-3.52-4.43 0-3.31 0-6.62 0-9.93 6.899-2.29 8.399 2.4 10.99 5.67 5.649 3.03 1-7.22 5.5-5.67 6.819-2.66 6.979 3.29 9.89 5.67 5.149.5 2.33-9.29 9.89-5.67 5.65-3.03 1 7.22 5.5 5.67 6.36 1.12 3.61-9.53 12.09-5.67-.359 4.51 1.45 11.82-2.399 11.82-.54 0-1.2-.15-2-.47.569 5.94.1 10.54-3.29 11.36.7 23.23-2.25 51.17 3.29 68.13h7.7c6.59-24.02-1.04-58.28-1.101-78.07 8-4.19 2.78 8.7 8.79 7.1 5.51 2.86 1.601-6.45 4.4-7.1h7.689c4.98-2.17-.58 9.27 4.4 7.1 8.36 4.17 2.47-10.06 9.89-7.1 4.33-.87 1.29 7.8 2.2 11.36-8.939 9.75-4.42 36.87-5.5 56.78 7.38-1.5 4.24 10.61 10.99 9.93 6.81 3.12-.21-11.63 6.6-8.51 6.431-1.22 1.98 11.63 3.29 17.03-7.21-2.22-4.79 8-10.99 7.1 3.75 22.44-5.05 54.61 0 73.81 2.57 9.74 11.79 5.74 10.99 17.03-6.81 12.02-34.91-3.46-41.76 8.52-11 .94-24.91-1.89-34.07 1.42l-1.399.25c-.36-1.88-.601-3.36.3-4.51-1.73-.14-3.811.19-3.3-2.84-3.551-.31-5.5 2.84-6.351 7.17l-1.34-.07c-25.33-2.78-51.68-4.24-75.84-8.52-1.59-12.46 8.99-9.2 10.99-17.03 0-24.6 0-49.21 0-73.81-4.61-1.62-4.3-9.59-10.99-8.52.941-5.89-2.529-17.46 3.301-17.03zm138.1 103.12v-33.11h-20.61v33.11zm-41.03 1.11v-44.36h-27.6v44.36zm-10.97-82.67v-27.1h-16.88v27.1zm-35.9 81.56v-32.22h-20.05v32.22z" fill="#ed1e29"/><path d="m738.39 516.06c-189.05 0-378.09 0-567.14 0 0-121.6 0-243.2 0-364.8-.09-2.02-.18-4.02 1.1-4.26h566.04zm-291.26-124.91c-89.03 3.31-182.82.47-273.68 1.42v120.65h562.74c0-40.22 0-80.43 0-120.65-91.96-.95-186.851 1.89-276.971-1.42 9.16-3.31 23.07-.48 34.07-1.42 6.85-11.98 34.95 3.5 41.76-8.52.8-11.29-8.42-7.29-10.99-17.03-5.05-19.2 3.75-51.37 0-73.81 6.2.9 3.78-9.32 10.99-7.1-1.31-5.4 3.141-18.25-3.29-17.03-6.81-3.12.21 11.63-6.6 8.51-6.75.68-3.61-11.43-10.99-9.93 1.08-19.91-3.439-47.03 5.5-56.78-.91-3.56 2.13-12.23-2.2-11.36-7.42-2.96-1.529 11.27-9.89 7.1-4.98 2.17.58-9.27-4.4-7.1-2.56 0-5.13 0-7.689 0-2.8.65 1.109 9.96-4.4 7.1-6.01 1.6-.79-11.29-8.79-7.1l-4.6-.95c3.85 0 2.04-7.31 2.399-11.82-8.479-3.86-5.729 6.79-12.09 5.67-4.5 1.55.15-8.7-5.5-5.67-7.56-3.62-4.74 6.17-9.89 5.67-2.91-2.38-3.07-8.33-9.89-5.67-4.5-1.55.149 8.7-5.5 5.67-2.591-3.27-4.091-7.96-10.99-5.67v9.93c1.359.9 2.529 2.42 3.52 4.43l-5.44.14c-.35-.65-.81-1.24-1.37-1.73-7.5-3.52-1.3 10.62-8.8 7.1-4.97 2.17.59-9.27-4.39-7.1-2.57 0-5.13 0-7.7 0-2.79.65 1.12 9.96-4.39 7.1-5.66.68-1.84-10.88-9.89-7.1-4.03 9.03 1.99 17.27 4.39 22.71v46.85c-8.87-2.95-2.85 13.35-13.19 8.51-3.06-.78 1.55-11.45-4.39-8.51-5.83-.43-2.36 11.14-3.3 17.03 6.69-1.07 6.38 6.9 10.99 8.52v73.81c-2 7.83-12.58 4.57-10.99 17.03 24.161 4.28 50.511 5.74 75.841 8.52z" fill="#fff"/><path d="m748.43 520.42h-579.62l-3.49-379.83h583.11v37.12zm-577.18-4.36h567.14c0-123.02 0-246.04 0-369.06-188.68 0-377.36 0-566.04 0-1.28.24-1.19 2.24-1.1 4.26z" fill="#fff"/><path d="m162.86 114.67c-5.96 2.8-13.07 4.43-20.69 4.43-7.3 0-14.12-1.49-19.92-4.08-10.99-4.89-18.33-13.72-18.33-23.8 0-15.4 17.13-27.88 38.25-27.88 21.13 0 38.26 12.48 38.26 27.88 0 9.84-7 18.49-17.57 23.45z" fill="#c8c8c8"/><g fill="none"><path d="m165.32 140.59h583.11v37.12 342.71h-579.62" stroke="#231f20" stroke-width="21"/><path d="m122.25 115.02c-10.99-4.89-18.33-13.72-18.33-23.8 0-15.4 17.13-27.88 38.25-27.88 21.13 0 38.26 12.48 38.26 27.88 0 9.84-7 18.49-17.57 23.45-5.96 2.8-13.07 4.43-20.69 4.43-7.3 0-14.12-1.49-19.92-4.08z" stroke="#231f20" stroke-width="21"/><path d="m122.25 114.25v.77l1.12 670.61" stroke="#231f20" stroke-width="21"/><path d="m162.86 112.85v1.82 670.96" stroke="#231f20" stroke-width="21"/><path d="m745.01 179.64 3.42-1.93 2.01-1.14" stroke="#231f20" stroke-width="14"/><path d="m172.35 147h566.04v369.06c-189.05 0-378.09 0-567.14 0 0-121.6 0-243.2 0-364.8-.09-2.02-.18-4.02 1.1-4.26z" stroke="#231f20" stroke-width="3"/><path d="m429.76 198.27c-.99-2.01-2.16-3.53-3.52-4.43 0-3.31 0-6.62 0-9.93 6.899-2.29 8.399 2.4 10.99 5.67 5.649 3.03 1-7.22 5.5-5.67 6.819-2.66 6.979 3.29 9.89 5.67 5.149.5 2.33-9.29 9.89-5.67 5.65-3.03 1 7.22 5.5 5.67 6.36 1.12 3.61-9.53 12.09-5.67-.359 4.51 1.45 11.82-2.399 11.82-.54 0-1.2-.15-2-.47.569 5.94.1 10.54-3.29 11.36.7 23.23-2.25 51.17 3.29 68.13h7.7c6.59-24.02-1.04-58.28-1.101-78.07 8-4.19 2.78 8.7 8.79 7.1 5.51 2.86 1.601-6.45 4.4-7.1h7.689c4.98-2.17-.58 9.27 4.4 7.1 8.36 4.17 2.47-10.06 9.89-7.1 4.33-.87 1.29 7.8 2.2 11.36-8.939 9.75-4.42 36.87-5.5 56.78 7.38-1.5 4.24 10.61 10.99 9.93 6.81 3.12-.21-11.63 6.6-8.51 6.431-1.22 1.98 11.63 3.29 17.03-7.21-2.22-4.79 8-10.99 7.1 3.75 22.44-5.05 54.61 0 73.81 2.57 9.74 11.79 5.74 10.99 17.03-6.81 12.02-34.91-3.46-41.76 8.52-11 .94-24.91-1.89-34.07 1.42 90.12 3.31 185.011.47 276.971 1.42v120.65c-187.58 0-375.161 0-562.74 0 0-40.22 0-80.43 0-120.65 90.86-.95 184.65 1.89 273.68-1.42-25.33-2.78-51.68-4.24-75.84-8.52-1.59-12.46 8.99-9.2 10.99-17.03 0-24.6 0-49.21 0-73.81-4.61-1.62-4.3-9.59-10.99-8.52.94-5.89-2.53-17.46 3.3-17.03 5.94-2.94 1.33 7.73 4.39 8.51 10.34 4.84 4.32-11.46 13.19-8.51 0-15.62 0-31.23 0-46.85-2.4-5.44-8.42-13.68-4.39-22.71 8.05-3.78 4.23 7.78 9.89 7.1 5.51 2.86 1.6-6.45 4.39-7.1h7.7c4.98-2.17-.58 9.27 4.39 7.1 7.5 3.52 1.3-10.62 8.8-7.1.56.49 1.02 1.08 1.37 1.73 3.19 5.88-1.34 17.59-3.57 20.98.15 18.74-.63 38.66 1.1 55.36h7.69c4.99-10.07 8.43-59.91.22-76.48z" stroke="#231f20" stroke-width="7"/><path d="m457.02 408.18c-2.449.62-5.96 3.26-6.6-1.42-1.24-10.18.53-27.53 6.6-15.61-.34 2.83.171 14.75 1.101 7.1.49-2.71.04-4.98-.3-6.85-.36-1.88-.601-3.36.3-4.51-1.73-.14-3.811.19-3.3-2.84-3.551-.31-5.5 2.84-6.351 7.17-.899 4.54-.6 10.36.34 14.81.421 2.03.98 3.78 1.61 4.99 2.92-.02 6.48.79 6.6-2.84z" stroke="#231f20" stroke-width="2"/><path d="m447.07 405.59c.02-.08.04-.17.06-.25-2.24-.46-9.689 4.49-12.09 8.52 4.95 4.96 11.86 7.39 16.479 12.77 7.87-2.14 11.69-9.51 19.79-11.35-4.239-7.02-14.279-13.49-19.79-14.2 1.471 2.66 3.681 4.36 6.021 5.9 3 1.98 6.2 3.7 8.27 6.88-4.89 2.19-7.63 7.18-13.189 8.52-4.18-3.59-10.21-4.79-13.19-9.94 3.389-1.19 6.639-2.58 7.639-6.85z" stroke="#231f20" stroke-width="2"/><path d="m453.72 500.45c2.561-19.88.37-45.9 1.101-68.141-1.4-.069-1.521-1.819-3.301-1.42 1.44 22.281-2.89 52.001 2.2 69.561z" stroke="#231f20" stroke-width="2"/><path d="m433.94 483.41c4.319 2.28.38-6.13 3.29-5.67h7.699c.25 2.51-1.109 7.1 2.2 5.67h3.29c0-3.311 0-6.62 0-9.93-6.22 0-12.45 0-18.68 0 .801 3.22-1.979 11.07 2.201 9.93z" stroke="#231f20" stroke-width="3"/><path d="m431.74 489.09v9.94h18.68c0-3.311 0-6.63 0-9.94-1.46 0-2.93 0-4.39 0-2.99-1.01.779 6.7-2.2 5.68-2.57 0-5.13 0-7.69 0-.26-2.52 1.101-7.109-2.199-5.68-.731 0-1.471 0-2.201 0z" stroke="#231f20" stroke-width="3"/><path d="m444.06 326.11h27.601v44.36h-27.601z" stroke="#231f20" stroke-width=".9259"/><path d="m404.74 337.14h20.05v32.22h-20.05z" stroke="#231f20" stroke-width=".6725"/><path d="m492.08 336.25h20.61v33.11h-20.61z" stroke="#231f20" stroke-width=".6911"/><path d="m397.81 262.7h16.88v27.1h-16.88z" stroke="#231f20" stroke-width=".5659"/><path d="m493.81 264.7h16.881v27.1h-16.881z" stroke="#231f20" stroke-width=".5659"/><path d="m443.81 260.7h16.881v27.1h-16.881z" stroke="#231f20" stroke-width=".5659"/><path d="m.25.25h850.394v850.394h-850.394z"/></g></svg>