<svg enable-background="new 0 0 850.394 850.394" height="850.394" viewBox="0 0 850.394 850.394" width="850.394" xmlns="http://www.w3.org/2000/svg"><path d="m748.18 202.97v317.2h-579.62l-.09-9.48z" fill="#34a047"/><path d="m748.18 177.46v25.51l-579.71 307.72-.52-56.96 576.05-309.73v-3.66h4.18z" fill="#fbed24"/><path d="m744 140.34v3.66l-576.05 309.73-2.88-313.391h578.93zm-445.57 106.38 12.65-12.33-17.49-2.54-7.82-15.85-7.82 15.85-17.49 2.54 12.66 12.33-2.99 17.42 15.64-8.23 15.65 8.23z" fill="#394ea1"/><path d="m311.08 234.39-12.65 12.33 2.99 17.42-15.65-8.23-15.64 8.23 2.99-17.42-12.66-12.33 17.49-2.54 7.82-15.85 7.82 15.85z" fill="#fff"/><path d="m162.61 114.42c-5.96 2.8-13.07 4.43-20.69 4.43-7.3 0-14.12-1.49-19.92-4.08-10.99-4.89-18.33-13.72-18.33-23.8 0-15.4 17.13-27.88 38.25-27.88 21.13 0 38.26 12.48 38.26 27.88 0 9.84-7 18.49-17.57 23.45z" fill="#c8c8c8"/><path d="m162.61 456.6v55.4 273.38h-39.49l-1.12-670.61c5.8 2.59 12.62 4.08 19.92 4.08 7.62 0 14.73-1.63 20.69-4.43v25.92z" fill="#c8c8c8"/><g fill="none"><path d="m165.07 140.34h578.93 4.18v37.12 25.51 317.2h-579.62" stroke="#231f20" stroke-width="21"/><path d="m122 114.77c-10.99-4.89-18.33-13.72-18.33-23.8 0-15.4 17.13-27.88 38.25-27.88 21.13 0 38.26 12.48 38.26 27.88 0 9.84-7 18.49-17.57 23.45-5.96 2.8-13.07 4.43-20.69 4.43-7.3 0-14.12-1.49-19.92-4.08z" stroke="#231f20" stroke-width="21"/><path d="m122 114v.77l1.12 670.61" stroke="#231f20" stroke-width="21"/><path d="m162.61 112.6v1.82 25.92 316.26 55.4 273.38" stroke="#231f20" stroke-width="21"/><path d="m744.76 179.39 3.42-1.93 2.01-1.14" stroke="#231f20" stroke-width="14"/><path d="m744 144-576.05 309.73-5.34 2.87-2.61 1.4" stroke="#231f20" stroke-width="14"/><path d="m166 512 2.47-1.31 579.71-307.72 1.82-.97" stroke="#231f20" stroke-width="14"/><path d="m285.77 255.91-15.64 8.23 2.99-17.42-12.66-12.33 17.49-2.54 7.82-15.85 7.82 15.85 17.49 2.54-12.65 12.33 2.99 17.42z" stroke="#231f20" stroke-width="7"/><path d="m0 0h850.394v850.394h-850.394z"/></g><path d="m347.772 207.913-15.643 8.224 2.989-17.416-12.653-12.331 17.486-2.542 7.821-15.848 7.822 15.848 17.486 2.542-12.654 12.331 2.989 17.416z" fill="#fff" stroke="#000" stroke-linecap="round" stroke-linejoin="round" stroke-width="7"/><path d="m237.772 205.913-15.643 8.224 2.989-17.416-12.653-12.331 17.486-2.542 7.821-15.848 7.822 15.848 17.486 2.542-12.654 12.331 2.989 17.416z" fill="#fff" stroke="#000" stroke-linecap="round" stroke-linejoin="round" stroke-width="7"/><path d="m235.366 303.761-15.643 8.223 2.989-17.416-12.653-12.331 17.486-2.542 7.821-15.847 7.822 15.847 17.486 2.542-12.654 12.331 2.989 17.416z" fill="#fff" stroke="#000" stroke-linecap="round" stroke-linejoin="round" stroke-width="7"/><path d="m343.772 299.913-15.643 8.224 2.989-17.416-12.653-12.331 17.486-2.542 7.821-15.848 7.822 15.848 17.486 2.542-12.654 12.331 2.989 17.416z" fill="#fff" stroke="#000" stroke-linecap="round" stroke-linejoin="round" stroke-width="7"/><path d="m0 0h850.394v850.394h-850.394z" fill="none"/></svg>