<svg enable-background="new 0 0 850.394 850.394" height="850.394" viewBox="0 0 850.394 850.394" width="850.394" xmlns="http://www.w3.org/2000/svg"><path d="m162.61 114.42v670.96h-39.49l-1.12-670.61c5.8 2.59 12.62 4.08 19.92 4.08 7.62 0 14.73-1.63 20.69-4.43z" fill="#c8c8c8"/><path d="m290.43 264.42c-6.34-3.35-13.22-5.18-20.42-5.18-31.38 0-56.81 34.9-56.81 77.95 0 43.04 25.43 77.95 56.81 77.95 6.88 0 13.47-1.68 19.57-4.75-10.58 9.81-28.44 16.06-42.17 16.06-36.61 0-66.28-40.71-66.28-90.94 0-50.22 29.67-90.94 66.28-90.94 16.23 0 31.49 6.57 43.02 19.85z" fill="#fff"/><path d="m748.18 428v92.17h-579.62l138.85-92.17z" fill="#394ea1"/><path d="m748.18 336v92h-440.77l138.59-92h302z" fill="#ed1e29"/><path d="m748.18 238v98h-.18-302l-140.23-97.67.23-.33h442z" fill="#fff"/><path d="m748.18 177.46v60.54h-.18-442l-.23.33-140.7-97.99h583.11z" fill="#fbed24"/><path d="m307.41 428-138.85 92.17-3.49-379.83 140.7 97.99 140.23 97.67zm-11.18-104.05 8.07-7.87-11.15-1.62-5-10.11-4.99 10.11-11.16 1.62 8.08 7.87-1.91 11.12 9.98-5.25 9.99 5.25zm0 34 8.07-7.87-11.15-1.62-5-10.11-4.99 10.11-11.16 1.62 8.08 7.87-1.91 11.12 9.98-5.25 9.99 5.25zm0 34 8.07-7.87-11.15-1.62-5-10.11-4.99 10.11-11.16 1.62 8.08 7.87-1.91 11.12 9.98-5.25 9.99 5.25zm-1-102 8.08-7.87-11.16-1.62-5-10.11-4.99 10.11-11.16 1.62 8.08 7.87-1.91 11.12 9.98-5.25 9.99 5.25zm-25.22-30.71c7.2 0 14.08 1.83 20.42 5.18-11.53-13.28-26.79-19.85-43.02-19.85-36.61 0-66.28 40.72-66.28 90.94 0 50.23 29.67 90.94 66.28 90.94 13.73 0 31.59-6.25 42.17-16.06-6.1 3.07-12.69 4.75-19.57 4.75-31.38 0-56.81-34.91-56.81-77.95 0-43.05 25.43-77.95 56.81-77.95z" fill="#58b947"/><path d="m304.3 316.08-8.07 7.87 1.91 11.12-9.99-5.25-9.98 5.25 1.91-11.12-8.08-7.87 11.16-1.62 4.99-10.11 5 10.11z" fill="#fff"/><path d="m304.3 350.08-8.07 7.87 1.91 11.12-9.99-5.25-9.98 5.25 1.91-11.12-8.08-7.87 11.16-1.62 4.99-10.11 5 10.11z" fill="#fff"/><path d="m304.3 384.08-8.07 7.87 1.91 11.12-9.99-5.25-9.98 5.25 1.91-11.12-8.08-7.87 11.16-1.62 4.99-10.11 5 10.11z" fill="#fff"/><path d="m303.31 282.08-8.08 7.87 1.91 11.12-9.99-5.25-9.98 5.25 1.91-11.12-8.08-7.87 11.16-1.62 4.99-10.11 5 10.11z" fill="#fff"/><path d="m122 114.77c-10.99-4.89-18.33-13.72-18.33-23.8 0-15.4 17.13-27.88 38.25-27.88 21.13 0 38.26 12.48 38.26 27.88 0 9.84-7 18.49-17.57 23.45-5.96 2.8-13.07 4.43-20.69 4.43-7.3 0-14.12-1.49-19.92-4.08z" fill="#c8c8c8"/><g fill="none"><path d="m165.07 140.34h583.11v37.12 60.54 98 92 92.17h-579.62" stroke="#231f20" stroke-width="21"/><path d="m122 114.77c-10.99-4.89-18.33-13.72-18.33-23.8 0-15.4 17.13-27.88 38.25-27.88 21.13 0 38.26 12.48 38.26 27.88 0 9.84-7 18.49-17.57 23.45-5.96 2.8-13.07 4.43-20.69 4.43-7.3 0-14.12-1.49-19.92-4.08z" stroke="#231f20" stroke-width="21"/><path d="m122 114v.77l1.12 670.61" stroke="#231f20" stroke-width="21"/><path d="m162.61 112.6v1.82 670.96" stroke="#231f20" stroke-width="21"/><path d="m744.76 179.39 3.42-1.93 2.01-1.14" stroke="#231f20" stroke-width="14"/><path d="m165.07 140.34 140.7 97.99 140.23 97.67-138.59 92-138.85 92.17" stroke="#231f20" stroke-width="14"/><path d="m446 336h302" stroke="#231f20" stroke-width="14"/><path d="m306 238h442" stroke="#231f20" stroke-width="14"/><path d="m306 428h1.41 440.77 1.82" stroke="#231f20" stroke-width="14"/><path d="m289.58 410.39c-10.58 9.81-28.44 16.06-42.17 16.06-36.61 0-66.28-40.71-66.28-90.94 0-50.22 29.67-90.94 66.28-90.94 16.23 0 31.49 6.57 43.02 19.85" stroke="#000" stroke-linecap="round" stroke-linejoin="round" stroke-width="7"/><path d="m289.58 410.39c-6.1 3.07-12.69 4.75-19.57 4.75-31.38 0-56.81-34.91-56.81-77.95 0-43.05 25.43-77.95 56.81-77.95 7.2 0 14.08 1.83 20.42 5.18" stroke="#000" stroke-linecap="round" stroke-linejoin="round" stroke-width="7"/><path d="m287.15 295.82-9.98 5.25 1.91-11.12-8.08-7.87 11.16-1.62 4.99-10.11 5 10.11 11.16 1.62-8.08 7.87 1.91 11.12z" stroke="#000" stroke-linecap="round" stroke-linejoin="round" stroke-width="4.1936"/><path d="m288.15 329.82-9.98 5.25 1.91-11.12-8.08-7.87 11.16-1.62 4.99-10.11 5 10.11 11.15 1.62-8.07 7.87 1.91 11.12z" stroke="#000" stroke-linecap="round" stroke-linejoin="round" stroke-width="4.1936"/><path d="m288.15 363.82-9.98 5.25 1.91-11.12-8.08-7.87 11.16-1.62 4.99-10.11 5 10.11 11.15 1.62-8.07 7.87 1.91 11.12z" stroke="#000" stroke-linecap="round" stroke-linejoin="round" stroke-width="4.1936"/><path d="m288.15 397.82-9.98 5.25 1.91-11.12-8.08-7.87 11.16-1.62 4.99-10.11 5 10.11 11.15 1.62-8.07 7.87 1.91 11.12z" stroke="#000" stroke-linecap="round" stroke-linejoin="round" stroke-width="4.1936"/><path d="m0 0h850.394v850.394h-850.394z"/></g></svg>