<svg enable-background="new 0 0 850.89 850.89" height="850.89" viewBox="0 0 850.89 850.89" width="850.89" xmlns="http://www.w3.org/2000/svg"><path d="m748.43 177.71v19.66l-518.18 318.88v4.17h-61.44l-.63-68.17h.07l520-308v-3.66h60.18zm-222.18 78.13-8.6 20.34-21.99 1.89 16.68 14.45-5 21.5 18.91-11.39 18.91 11.39-5-21.5 16.68-14.45-21.99-1.89zm-144.83 131.91 17.91-15.51-23.61-2.03-9.23-21.84-9.22 21.84-23.61 2.03 17.91 15.51-5.37 23.07 20.29-12.23 20.3 12.23z" fill="#231f20"/><path d="m495.66 278.07 21.99-1.89 8.6-20.34 8.6 20.34 21.99 1.89-16.68 14.45 5 21.5-18.91-11.39-18.91 11.39 5-21.5z" fill="#fff"/><path d="m386.79 410.82-20.3-12.23-20.29 12.23 5.37-23.07-17.91-15.51 23.61-2.03 9.22-21.84 9.23 21.84 23.61 2.03-17.91 15.51z" fill="#fff"/><path d="m748.43 197.37v32.88h-.18l-472 288v2.17h-46v-4.17z" fill="#fbed24"/><path d="m748.25 230.25h.18v290.17h-472.18v-2.17z" fill="#ed1e29"/><path d="m688.25 140.59v3.66l-520 308h-.07l-.26-28.99 472.33-281.01v-1.66z" fill="#fbed24"/><path d="m640.25 140.59v1.66l-472.33 281.01-2.6-282.67z" fill="#34a047"/><path d="m103.92 91.22c0-15.4 17.13-27.88 38.25-27.88 21.13 0 38.26 12.48 38.26 27.88 0 9.84-7 18.49-17.57 23.45-5.96 2.8-13.07 4.43-20.69 4.43-7.3 0-14.12-1.49-19.92-4.08-10.99-4.89-18.33-13.72-18.33-23.8z" fill="#c8c8c8"/><path d="m122.25 115.02c5.8 2.59 12.62 4.08 19.92 4.08 7.62 0 14.73-1.63 20.69-4.43v670.96h-39.49z" fill="#c8c8c8"/><g fill="none"><path d="m165.32 140.59h474.93 48 60.18v37.12 19.66 32.88 290.17h-472.18-46-61.44" stroke="#231f20" stroke-width="21"/><path d="m122.25 115.02c-10.99-4.89-18.33-13.72-18.33-23.8 0-15.4 17.13-27.88 38.25-27.88 21.13 0 38.26 12.48 38.26 27.88 0 9.84-7 18.49-17.57 23.45-5.96 2.8-13.07 4.43-20.69 4.43-7.3 0-14.12-1.49-19.92-4.08z" stroke="#231f20" stroke-width="21"/><path d="m122.25 114.25v.77l1.12 670.61" stroke="#231f20" stroke-width="21"/><path d="m162.86 112.85v1.82 670.96" stroke="#231f20" stroke-width="21"/><path d="m745.01 179.64 3.42-1.93 2.01-1.14" stroke="#231f20" stroke-width="14"/><path d="m168.25 452.25 520-308" stroke="#231f20" stroke-width="14"/><path d="m230.25 516.25 518.18-318.88 1.82-1.12" stroke="#231f20" stroke-width="14"/><path d="m166.25 424.25 1.67-.99 472.33-281.01" stroke="#231f20" stroke-width="14"/><path d="m276.25 518.25 472-288" stroke="#231f20" stroke-width="14"/><path d="m366.49 398.59-20.29 12.23 5.37-23.07-17.91-15.51 23.61-2.03 9.22-21.84 9.23 21.84 23.61 2.03-17.91 15.51 5.37 23.07z" stroke="#231f20" stroke-width="4.1461"/><path d="m526.25 302.63-18.91 11.39 5-21.5-16.68-14.45 21.99-1.89 8.6-20.34 8.6 20.34 21.99 1.89-16.68 14.45 5 21.5z" stroke="#231f20" stroke-width="4.1461"/><path d="m.25.25h850.394v850.394h-850.394z"/></g></svg>