<svg enable-background="new 0 0 850.394 850.394" height="850.394" viewBox="0 0 850.394 850.394" width="850.394" xmlns="http://www.w3.org/2000/svg"><path d="m162.61 456v329.38h-39.49l-1.12-670.61c5.8 2.59 12.62 4.08 19.92 4.08 7.62 0 14.73-1.63 20.69-4.43v105.58 38 158z" fill="#c8c8c8"/><path d="m748.18 456v64.17h-579.62l-.59-64.17h580.03z" fill="#394ea1"/><path d="m748.18 416v40h-.18-580.03l-.37-40h578.4z" fill="#fff"/><path d="m748.18 258v158h-2.18-578.4l-1.45-158h579.85zm-395.49 77.35c0-29.47-23.88-53.35-53.34-53.35-29.47 0-53.35 23.88-53.35 53.35 0 29.46 23.88 53.34 53.35 53.34 29.46 0 53.34-23.88 53.34-53.34z" fill="#ed1e29"/><path d="m748.18 220v38h-2.18-579.85l-.35-38h580.2z" fill="#fff"/><path d="m748.18 177.46v42.54h-2.18-580.2l-.73-79.66h583.11z" fill="#394ea1"/><path d="m299.35 282c29.46 0 53.34 23.88 53.34 53.35 0 29.46-23.88 53.34-53.34 53.34-29.47 0-53.35-23.88-53.35-53.34 0-29.47 23.88-53.35 53.35-53.35zm17.76 58.32 20.53-17.79-27.07-2.33-10.57-25.02-10.57 25.02-27.07 2.33 20.53 17.79-6.15 26.45 23.26-14.02 23.26 14.02z" fill="#fff"/><path d="m337.64 322.53-20.53 17.79 6.15 26.45-23.26-14.02-23.26 14.02 6.15-26.45-20.53-17.79 27.07-2.33 10.57-25.02 10.57 25.02z" fill="#ed1e29"/><path d="m162.61 114.42c-5.96 2.8-13.07 4.43-20.69 4.43-7.3 0-14.12-1.49-19.92-4.08-10.99-4.89-18.33-13.72-18.33-23.8 0-15.4 17.13-27.88 38.25-27.88 21.13 0 38.26 12.48 38.26 27.88 0 9.84-7 18.49-17.57 23.45z" fill="#c8c8c8"/><g fill="none"><path d="m165.07 140.34h583.11v37.12 42.54 38 158 40 64.17h-579.62" stroke="#231f20" stroke-width="21"/><path d="m122 114.77c-10.99-4.89-18.33-13.72-18.33-23.8 0-15.4 17.13-27.88 38.25-27.88 21.13 0 38.26 12.48 38.26 27.88 0 9.84-7 18.49-17.57 23.45-5.96 2.8-13.07 4.43-20.69 4.43-7.3 0-14.12-1.49-19.92-4.08z" stroke="#231f20" stroke-width="21"/><path d="m122 114v.77l1.12 670.61" stroke="#231f20" stroke-width="21"/><path d="m162.61 112.6v1.82 105.58 38 158 40 329.38" stroke="#231f20" stroke-width="21"/><path d="m744.76 179.39 3.42-1.93 2.01-1.14" stroke="#231f20" stroke-width="14"/><path d="m164 220h1.8 580.2" stroke="#231f20" stroke-width="14"/><path d="m164 258h2.15 579.85" stroke="#231f20" stroke-width="14"/><path d="m166 456h1.97 580.03" stroke="#231f20" stroke-width="14"/><path d="m164 416h3.6 578.4" stroke="#231f20" stroke-width="14"/><path d="m352.69 335.35c0 29.46-23.88 53.34-53.34 53.34-29.47 0-53.35-23.88-53.35-53.34 0-29.47 23.88-53.35 53.35-53.35 29.46 0 53.34 23.88 53.34 53.35z" stroke="#231f20" stroke-width="7"/><path d="m300 352.75-23.26 14.02 6.15-26.45-20.53-17.79 27.07-2.33 10.57-25.02 10.57 25.02 27.07 2.33-20.53 17.79 6.15 26.45z" stroke="#231f20" stroke-width="7"/><path d="m0 0h850.394v850.394h-850.394z"/></g></svg>