<svg enable-background="new 0 0 850.394 850.394" height="850.394" viewBox="0 0 850.394 850.394" width="850.394" xmlns="http://www.w3.org/2000/svg"><path d="m748.18 382v138.17h-579.62l-1.27-138.17h580.71z" fill="#5eabf4"/><path d="m748.18 358v24h-.18-580.71l-.22-24z" fill="#fff"/><path d="m748.18 312v46h-581.11l-.42-46z" fill="#231f20"/><path d="m748.18 290v22h-581.53l-.2-22h581.55z" fill="#fff"/><path d="m748.18 177.46v112.54h-.18-581.55l-1.38-149.66h583.11z" fill="#5eabf4"/><path d="m162.61 114.42c-5.96 2.8-13.07 4.43-20.69 4.43-7.3 0-14.12-1.49-19.92-4.08-10.99-4.89-18.33-13.72-18.33-23.8 0-15.4 17.13-27.88 38.25-27.88 21.13 0 38.26 12.48 38.26 27.88 0 9.84-7 18.49-17.57 23.45z" fill="#c8c8c8"/><path d="m162.61 382v403.38h-39.49l-1.12-670.61c5.8 2.59 12.62 4.08 19.92 4.08 7.62 0 14.73-1.63 20.69-4.43v175.58 68z" fill="#c8c8c8"/><g fill="none"><path d="m165.07 140.34h583.11v37.12 112.54 22 46 24 138.17h-579.62" stroke="#231f20" stroke-width="21"/><path d="m122 114.77c-10.99-4.89-18.33-13.72-18.33-23.8 0-15.4 17.13-27.88 38.25-27.88 21.13 0 38.26 12.48 38.26 27.88 0 9.84-7 18.49-17.57 23.45-5.96 2.8-13.07 4.43-20.69 4.43-7.3 0-14.12-1.49-19.92-4.08z" stroke="#231f20" stroke-width="21"/><path d="m122 114v.77l1.12 670.61" stroke="#231f20" stroke-width="21"/><path d="m162.61 112.6v1.82 175.58 68 24 403.38" stroke="#231f20" stroke-width="21"/><path d="m744.76 179.39 3.42-1.93 2.01-1.14" stroke="#231f20" stroke-width="14"/><path d="m164 290h2.45 581.55" stroke="#231f20" stroke-width="14"/><path d="m162 382h.61 4.68 580.71" stroke="#231f20" stroke-width="14"/><path d="m166 312h.65 581.53 3.82" stroke="#231f20" stroke-width="14"/><path d="m160 358h2.61 4.46 581.11 1.82" stroke="#231f20" stroke-width="14"/><path d="m0 0h850.394v850.394h-850.394z"/></g></svg>