<svg enable-background="new 0 0 850.394 850.394" height="850.394" viewBox="0 0 850.394 850.394" width="850.394" xmlns="http://www.w3.org/2000/svg"><path d="m748.18 386.4v133.77h-579.62l-.07-8.16 1.51-.01z" fill="#34a047"/><path d="m748.18 278v108.4l-578.18 125.6 576-234z" fill="#fff"/><path d="m748.18 177.46v100.54h-2.18l-576 234 450-368v-3.66h128.18z" fill="#ed1e29"/><path d="m620 140.34v3.66l-450 368 207.81-371.66z" fill="#fbed24"/><path d="m377.81 140.34-207.81 371.66-1.51.01-3.42-371.67z" fill="#394ea1"/><path d="m122 114.77c-10.99-4.89-18.33-13.72-18.33-23.8 0-15.4 17.13-27.88 38.25-27.88 21.13 0 38.26 12.48 38.26 27.88 0 9.84-7 18.49-17.57 23.45-5.96 2.8-13.07 4.43-20.69 4.43-7.3 0-14.12-1.49-19.92-4.08z" fill="#c8c8c8"/><path d="m162.61 114.42v670.96h-39.49l-1.12-670.61c5.8 2.59 12.62 4.08 19.92 4.08 7.62 0 14.73-1.63 20.69-4.43z" fill="#c8c8c8"/><g fill="none"><path d="m165.07 140.34h212.74 242.19 128.18v37.12 100.54 108.4 133.77h-579.62" stroke="#231f20" stroke-width="21"/><path d="m122 114.77c-10.99-4.89-18.33-13.72-18.33-23.8 0-15.4 17.13-27.88 38.25-27.88 21.13 0 38.26 12.48 38.26 27.88 0 9.84-7 18.49-17.57 23.45-5.96 2.8-13.07 4.43-20.69 4.43-7.3 0-14.12-1.49-19.92-4.08z" stroke="#231f20" stroke-width="21"/><path d="m122 114v.77l1.12 670.61" stroke="#231f20" stroke-width="21"/><path d="m162.61 112.6v1.82 670.96" stroke="#231f20" stroke-width="21"/><path d="m744.76 179.39 3.42-1.93 2.01-1.14" stroke="#231f20" stroke-width="14"/><path d="m170 512 207.81-371.66.19-.34" stroke="#231f20" stroke-width="7"/><path d="m170 512 450-368" stroke="#231f20" stroke-width="7"/><path d="m170 512 576-234" stroke="#231f20" stroke-width="7"/><path d="m170 512 578.18-125.6 1.82-.4" stroke="#231f20" stroke-width="7"/><path d="m0 0h850.394v850.394h-850.394z"/></g></svg>