<svg enable-background="new 0 0 850.89 850.89" height="850.89" viewBox="0 0 850.89 850.89" width="850.89" xmlns="http://www.w3.org/2000/svg"><path d="m748.43 264.25v132h-2.18-438v-132h438z" fill="#fff"/><path d="m162.86 114.67v670.96h-39.49l-1.12-670.61c5.8 2.59 12.62 4.08 19.92 4.08 7.62 0 14.73-1.63 20.69-4.43z" fill="#c8c8c8"/><path d="m748.43 396.25v124.17h-440.18v-4.17-120h438z" fill="#231f20"/><path d="m748.43 177.71v86.54h-2.18-438v-123.66h440.18z" fill="#34a047"/><path d="m308.25 516.25v4.17h-139.44l-3.49-379.83h142.93v123.66 132z" fill="#ed1e29"/><path d="m122.25 115.02c-10.99-4.89-18.33-13.72-18.33-23.8 0-15.4 17.13-27.88 38.25-27.88 21.13 0 38.26 12.48 38.26 27.88 0 9.84-7 18.49-17.57 23.45-5.96 2.8-13.07 4.43-20.69 4.43-7.3 0-14.12-1.49-19.92-4.08z" fill="#c8c8c8"/><g fill="none"><path d="m165.32 140.59h142.93 440.18v37.12 86.54 132 124.17h-440.18-139.44" stroke="#231f20" stroke-width="21"/><path d="m122.25 115.02c-10.99-4.89-18.33-13.72-18.33-23.8 0-15.4 17.13-27.88 38.25-27.88 21.13 0 38.26 12.48 38.26 27.88 0 9.84-7 18.49-17.57 23.45-5.96 2.8-13.07 4.43-20.69 4.43-7.3 0-14.12-1.49-19.92-4.08z" stroke="#231f20" stroke-width="21"/><path d="m122.25 114.25v.77l1.12 670.61" stroke="#231f20" stroke-width="21"/><path d="m162.86 112.85v1.82 670.96" stroke="#231f20" stroke-width="21"/><path d="m745.01 179.64 3.42-1.93 2.01-1.14" stroke="#231f20" stroke-width="14"/><path d="m308.25 140.25v.34 123.66 132 120" stroke="#231f20" stroke-width="14"/><path d="m308.25 264.25h438" stroke="#231f20" stroke-width="14"/><path d="m308.25 396.25h438" stroke="#231f20" stroke-width="14"/><path d="m.25.25h850.394v850.394h-850.394z"/></g></svg>