<svg enable-background="new 0 0 850.394 850.394" height="850.394" viewBox="0 0 850.394 850.394" width="850.394" xmlns="http://www.w3.org/2000/svg"><path d="m162.61 518.17v267.21h-39.49l-1.12-670.61c5.8 2.59 12.62 4.08 19.92 4.08 7.62 0 14.73-1.63 20.69-4.43v23.92h-3.54l3.49 379.83z" fill="#c8c8c8"/><path d="m742.18 138.34v379.83h-190.18v-2.17-376-1.66z" fill="#ed1e29"/><path d="m552 516v2.17h-194v-4.17-370-5.66h194v1.66z" fill="#fbed24"/><path d="m358 514v4.17h-195.39v-379.83h195.39v5.66z" fill="#394ea1"/><path d="m122 114.77c-10.99-4.89-18.33-13.72-18.33-23.8 0-15.4 17.13-27.88 38.25-27.88 21.13 0 38.26 12.48 38.26 27.88 0 9.84-7 18.49-17.57 23.45-5.96 2.8-13.07 4.43-20.69 4.43-7.3 0-14.12-1.49-19.92-4.08z" fill="#c8c8c8"/><path d="m162.61 138.34v379.83h-.05l-3.49-379.83z" fill="#fff"/><g fill="none"><path d="m159.07 138.34h3.54 195.39 194 190.18v379.83h-190.18-194-195.39-.05" stroke="#231f20" stroke-width="14"/><path d="m122 114.77c-10.99-4.89-18.33-13.72-18.33-23.8 0-15.4 17.13-27.88 38.25-27.88 21.13 0 38.26 12.48 38.26 27.88 0 9.84-7 18.49-17.57 23.45-5.96 2.8-13.07 4.43-20.69 4.43-7.3 0-14.12-1.49-19.92-4.08z" stroke="#231f20" stroke-width="21"/><path d="m122 114v.77l1.12 670.61" stroke="#231f20" stroke-width="21"/><path d="m162.61 112.6v1.82 23.92 379.83 267.21" stroke="#231f20" stroke-width="21"/><path d="m358 144v370" stroke="#231f20" stroke-width="14"/><path d="m552 140v376" stroke="#231f20" stroke-width="14"/><path d="m0 0h850.394v850.394h-850.394z"/></g></svg>