<svg enable-background="new 0 0 850.394 850.394" height="850.394" viewBox="0 0 850.394 850.394" width="850.394" xmlns="http://www.w3.org/2000/svg"><path d="m162.61 114.42v670.96h-39.49l-1.12-670.61c5.8 2.59 12.62 4.08 19.92 4.08 7.62 0 14.73-1.63 20.69-4.43z" fill="#c8c8c8"/><path d="m748.18 177.46v342.71h-579.62l-3.49-379.83h583.11zm-91.82 50.68 18.62-18.14-25.73-3.74-11.5-23.31-11.5 23.31-25.73 3.74 18.62 18.14-4.399 25.62 23.01-12.09 23.01 12.09zm-114.61 146.15 10.61-9.4-14.66-1.94-6.561-12.08-6.56 12.08-14.67 1.94 10.609 9.4-2.5 13.28 13.12-6.27 13.12 6.27zm-45.03 96.49 10.38-9.2-14.34-1.89-6.41-11.811-6.42 11.811-14.34 1.89 10.38 9.2-2.45 12.979 12.83-6.13 12.82 6.13zm-82.84-90.63 10.61-9.41-14.67-1.94-6.56-12.08-6.56 12.08-14.66 1.94 10.61 9.41-2.51 13.27 13.12-6.27 13.12 6.27zm-18 78 10.61-9.41-14.67-1.94-6.56-12.08-6.56 12.08-14.66 1.94 10.61 9.41-2.51 13.27 13.12-6.27 13.12 6.27zm-44.59-97.54 11.15-9.88-15.41-2.04-6.89-12.69-6.9 12.69-15.41 2.04 11.15 9.88-2.63 13.96 13.79-6.59 13.78 6.59zm-62.72-32.55 8.9-13.66-15.07-1.99-4.74-8.41-6.74 12.41-15.07 1.99 10.9 9.66-2.57 13.65 13.48-6.44 13.48 6.44zm-63.67-15.26 11.23-9.96-15.52-2.05-6.95-12.79-6.94 12.79-15.53 2.05 11.23 9.96-2.65 14.06 13.89-6.64 13.89 6.64z" fill="#394ea1"/><path d="m674.98 210-18.62 18.14 4.4 25.62-23.01-12.09-23.01 12.09 4.4-25.62-18.62-18.14 25.73-3.74 11.5-23.31 11.5 23.31z" fill="#fbed24"/><path d="m552.36 364.89-10.61 9.4 2.51 13.28-13.12-6.27-13.12 6.27 2.5-13.28-10.61-9.4 14.67-1.94 6.56-12.08 6.56 12.08z" fill="#fbed24"/><path d="m507.1 461.58-10.38 9.2 2.45 12.98-12.82-6.13-12.83 6.13 2.45-12.98-10.38-9.2 14.34-1.89 6.42-11.81 6.41 11.81z" fill="#fbed24"/><path d="m424.49 370.74-10.61 9.41 2.5 13.27-13.12-6.27-13.12 6.27 2.51-13.27-10.61-9.41 14.66-1.94 6.56-12.08 6.56 12.08z" fill="#fbed24"/><path d="m406.49 448.74-10.61 9.41 2.5 13.27-13.12-6.27-13.12 6.27 2.51-13.27-10.61-9.41 14.66-1.94 6.56-12.08 6.56 12.08z" fill="#fbed24"/><path d="m362.44 350.73-11.15 9.88 2.63 13.96-13.78-6.59-13.79 6.59 2.63-13.96-11.15-9.88 15.41-2.04 6.9-12.69 6.89 12.69z" fill="#fbed24"/><path d="m297.47 314.4-8.9 13.66 2.57 13.65-13.48-6.44-13.48 6.44 2.57-13.65-10.9-9.66 15.07-1.99 6.74-12.41 4.74 8.41z" fill="#fbed24"/><path d="m236.13 302.84-11.23 9.96 2.65 14.06-13.89-6.64-13.89 6.64 2.65-14.06-11.23-9.96 15.53-2.05 6.94-12.79 6.95 12.79z" fill="#fbed24"/><path d="m122 114.77c-10.99-4.89-18.33-13.72-18.33-23.8 0-15.4 17.13-27.88 38.25-27.88 21.13 0 38.26 12.48 38.26 27.88 0 9.84-7 18.49-17.57 23.45-5.96 2.8-13.07 4.43-20.69 4.43-7.3 0-14.12-1.49-19.92-4.08z" fill="#c8c8c8"/><g fill="none"><path d="m165.07 140.34h583.11v37.12 342.71h-579.62" stroke="#231f20" stroke-width="21"/><path d="m122 114.77c-10.99-4.89-18.33-13.72-18.33-23.8 0-15.4 17.13-27.88 38.25-27.88 21.13 0 38.26 12.48 38.26 27.88 0 9.84-7 18.49-17.57 23.45-5.96 2.8-13.07 4.43-20.69 4.43-7.3 0-14.12-1.49-19.92-4.08z" stroke="#231f20" stroke-width="21"/><path d="m122 114v.77l1.12 670.61" stroke="#231f20" stroke-width="21"/><path d="m162.61 112.6v1.82 670.96" stroke="#231f20" stroke-width="21"/><path d="m744.76 179.39 3.42-1.93 2.01-1.14" stroke="#231f20" stroke-width="14"/><path d="m637.75 241.67-23.01 12.09 4.4-25.62-18.62-18.14 25.73-3.74 11.5-23.31 11.5 23.31 25.73 3.74-18.62 18.14 4.4 25.62z" stroke="#231f20" stroke-width="6.8169"/><path d="m486.35 477.63-12.83 6.13 2.45-12.98-10.38-9.2 14.34-1.89 6.42-11.81 6.41 11.81 14.34 1.89-10.38 9.2 2.45 12.98z" stroke="#231f20" stroke-width="3.6236"/><path d="m385.26 465.15-13.12 6.27 2.51-13.27-10.61-9.41 14.66-1.94 6.56-12.08 6.56 12.08 14.67 1.94-10.61 9.41 2.5 13.27z" stroke="#231f20" stroke-width="3.5047"/><path d="m403.26 387.15-13.12 6.27 2.51-13.27-10.61-9.41 14.66-1.94 6.56-12.08 6.56 12.08 14.67 1.94-10.61 9.41 2.5 13.27z" stroke="#231f20" stroke-width="3.5047"/><path d="m531.14 381.3-13.12 6.27 2.5-13.28-10.61-9.4 14.67-1.94 6.56-12.08 6.56 12.08 14.66 1.94-10.61 9.4 2.51 13.28z" stroke="#231f20" stroke-width="4"/><path d="m340.14 367.98-13.79 6.59 2.63-13.96-11.15-9.88 15.41-2.04 6.9-12.69 6.89 12.69 15.41 2.04-11.15 9.88 2.63 13.96z" stroke="#231f20" stroke-width="4.2036"/><path d="m277.66 335.27-13.48 6.44 2.57-13.65-10.9-9.66 15.07-1.99 6.74-12.41 4.74 8.41 15.07 1.99-8.9 13.66 2.57 13.65z" stroke="#231f20" stroke-width="4.11"/><path d="m213.66 320.22-13.89 6.64 2.65-14.06-11.23-9.96 15.53-2.05 6.94-12.79 6.95 12.79 15.52 2.05-11.23 9.96 2.65 14.06z" stroke="#231f20" stroke-width="4.2351"/><path d="m0 0h850.394v850.394h-850.394z"/></g></svg>