<svg enable-background="new 0 0 851.394 851.394" height="851.394" viewBox="0 0 851.394 851.394" width="851.394" xmlns="http://www.w3.org/2000/svg"><path d="m163.11 114.92v670.96h-39.49l-1.12-670.61c5.8 2.59 12.62 4.08 19.92 4.08 7.62 0 14.73-1.63 20.69-4.43z" fill="#c8c8c8"/><path d="m748.68 140.84v379.83h-450.18v-2.17-377.66z" fill="#ed1e29"/><path d="m298.5 518.5v2.17h-129.44l-3.49-379.83h132.93z" fill="#fff"/><path d="m122.5 115.27c-10.99-4.89-18.33-13.72-18.33-23.8 0-15.4 17.13-27.88 38.25-27.88 21.13 0 38.26 12.48 38.26 27.88 0 9.84-7 18.49-17.57 23.45-5.96 2.8-13.07 4.43-20.69 4.43-7.3 0-14.12-1.49-19.92-4.08z" fill="#c8c8c8"/><g fill="none" stroke="#231f20"><path d="m165.57 140.84h132.93 450.18v379.83h-450.18-129.44" stroke-width="21"/><path d="m122.5 115.27c-10.99-4.89-18.33-13.72-18.33-23.8 0-15.4 17.13-27.88 38.25-27.88 21.13 0 38.26 12.48 38.26 27.88 0 9.84-7 18.49-17.57 23.45-5.96 2.8-13.07 4.43-20.69 4.43-7.3 0-14.12-1.49-19.92-4.08z" stroke-width="21"/><path d="m122.5 114.5v.77l1.12 670.61" stroke-width="21"/><path d="m163.11 113.1v1.82 670.96" stroke-width="21"/><path d="m298.5 138.5v2.34 377.66" stroke-width="14"/><path d="m.5.5h850.394v850.394h-850.394z"/></g></svg>