<svg enable-background="new 0 0 850.89 850.89" height="850.89" viewBox="0 0 850.89 850.89" width="850.89" xmlns="http://www.w3.org/2000/svg"><path d="m162.86 114.67v670.96h-39.49l-1.12-670.61c5.8 2.59 12.62 4.08 19.92 4.08 7.62 0 14.73-1.63 20.69-4.43z" fill="#c8c8c8"/><path d="m748.43 390.15v130.27h-579.62l-.06-6.17h567.76c0-.95 0-1.9 0-2.85h9.431c0-40.42 0-80.841 0-121.25z" fill="#fff"/><path d="m745.94 267.48c0-29.46 0-58.92 0-88.37l2.489-1.4v212.44h-2.489c-2.99 2.67-6.181 3.52-9.431 3.48 0-42.47 0-84.94 0-127.42 3.171.37 6.311.79 9.431 1.27z" fill="#fff"/><path d="m736.51 261.77c0-4.74 0-9.48 0-14.22.41-.2.971-.23 1.721-.05.779 3.42-1.61 10.35 1.289 11.42 2.891-1.07.5-8 1.28-11.42 5.32-.2 1.34 9.93 2.57 14.27-2.28 0-4.57 0-6.86 0z" fill="#fff"/><path d="m736.51 410.12c0-4.73 0-9.47 0-14.21.41-.2.971-.23 1.721-.05.779 3.41-1.61 10.34 1.289 11.41 2.891-1.07.5-8 1.28-11.41 5.32-.21 1.34 9.92 2.57 14.26-2.28 0-4.57 0-6.86 0z" fill="#fff"/><path d="m736.51 247.55c0-33.77 0-67.55 0-101.32h9.431v32.88 88.37c-3.12-.48-6.261-.9-9.431-1.27 0-1.48 0-2.96 0-4.44h6.86c-1.23-4.34 2.75-14.47-2.57-14.27-.78 3.42 1.61 10.35-1.28 11.42-2.899-1.07-.51-8-1.289-11.42-.751-.18-1.311-.15-1.721.05z"/><path d="m736.51 395.91c0-.76 0-1.52 0-2.28 3.25.04 6.44-.81 9.431-3.48v121.25c-3.141 0-6.29 0-9.431 0 0-33.761 0-67.521 0-101.28h6.86c-1.23-4.34 2.75-14.47-2.57-14.26-.78 3.41 1.61 10.34-1.28 11.41-2.899-1.07-.51-8-1.289-11.41-.751-.18-1.311-.15-1.721.05z"/><path d="m727.95 247.5c-5.76 4.73-28.92 4.73-34.681 0z" fill="#fff"/><path d="m693.27 395.86h34.681c-5.761 4.72-28.921 4.72-34.681 0z" fill="#fff"/><path d="m722.81 256.06c-1.989 6.02 7.141-.31 5.141 5.71-2.57 0-5.141 0-7.7 0 0-2.85 0-5.71 0-8.56 4.66-.52 12.62 2.61 10.27-5.71 6.021-1.44-.229 10.72 3.86 11.42 3.57-.61-.77-10.01 2.13-11.37v14.22c-2 0-3.99 0-5.99 0 0-1.9 0-3.8 0-5.71-2.571 0-5.141 0-7.711 0z" fill="#fff"/><path d="m722.81 404.41c-1.989 6.02 7.141-.31 5.141 5.71-2.57 0-5.141 0-7.7 0 0-2.85 0-5.71 0-8.56 4.66-.52 12.62 2.61 10.27-5.7 6.021-1.45-.229 10.71 3.86 11.41 3.57-.61-.76-10 2.13-11.36v14.21c-2 0-3.99 0-5.99 0 0-1.9 0-3.8 0-5.71-2.571 0-5.141 0-7.711 0z" fill="#fff"/><path d="m695.84 261.77c-4.649 1.35-1.8-5.62-2.57-8.56h14.131v5.71h7.71c1.96-6.46-8.391.75-6.431-5.71h9v8.56c-4.72 0-9.43 0-14.14 0 0-1.9 0-3.8 0-5.71-1.71 0-3.42 0-5.13 0-3.49-1.02.91 6.73-2.57 5.71z" fill="#fff"/><path d="m695.84 410.12c-4.649 1.35-1.8-5.62-2.57-8.56h14.131v5.71h7.71c1.989-6.02-7.141.31-5.141-5.71h7.71v8.56c-4.29 0-8.569 0-12.85 0-1-1.27-1.38-3.22-1.29-5.71-1.71 0-3.42 0-5.13 0-3.49-1.02.91 6.73-2.57 5.71z" fill="#fff"/><path d="m641.88 247.5h34.69c-5.77 4.73-28.92 4.73-34.69 0z" fill="#fff"/><path d="m641.88 395.86h34.69c-5.77 4.72-28.92 4.72-34.69 0z" fill="#fff"/><path d="m667.57 253.21c4.67-.52 12.63 2.61 10.279-5.71h3.86v11.42c3.7-.64-1.15-10.78 2.56-11.42 5.07-.87 1.521 7.84 2.57 11.42 3.71-.64-1.14-10.78 2.57-11.42 5.32-.2 1.34 9.93 2.57 14.27-4.711 0-9.421 0-14.131 0 0-1.9 0-3.8 0-5.71-2.14 0-4.279 0-6.42 0-2 6.02 7.13-.31 5.141 5.71-3 0-6 0-9 0 .001-2.85.001-5.71.001-8.56z" fill="#fff"/><path d="m667.57 401.56c4.67-.52 12.63 2.61 10.279-5.7h3.86v11.41c3.7-.64-1.15-10.78 2.56-11.41 5.07-.88 1.521 7.83 2.57 11.41 3.71-.64-1.14-10.78 2.57-11.41 5.32-.21 1.34 9.92 2.57 14.26-4.711 0-9.421 0-14.131 0 0-1.9 0-3.8 0-5.71-2.569 0-5.14 0-7.71 0-.76 5.12 7.67.04 6.431 5.71-3 0-6 0-9 0 .001-2.85.001-5.71.001-8.56z" fill="#fff"/><path d="m652.16 256.06c-7.84-2.99-6.43 4.28-10.28 5.71 0-2.85 0-5.71 0-8.56h12.84v5.71h7.71c2-6.02-7.13.31-5.14-5.71h7.71v8.56c-4.28 0-8.56 0-12.84 0 0-1.9 0-3.8 0-5.71z" fill="#fff"/><path d="m652.16 404.41c-7.84-2.99-6.43 4.28-10.28 5.71 0-2.85 0-5.71 0-8.56h12.84v5.71h7.71c2-6.02-7.13.31-5.14-5.71h7.71v8.56c-4.28 0-8.56 0-12.84 0 0-1.9 0-3.8 0-5.71z" fill="#fff"/><path d="m623.89 247.5c-5.77 4.73-28.92 4.73-34.689 0z" fill="#fff"/><path d="m623.89 395.86c-5.77 4.72-28.92 4.72-34.689 0z" fill="#fff"/><path d="m614.9 253.21c4.8-.85 13.989 3.17 11.56-5.71 6.021-1.44-.229 10.72 3.86 11.42 4.08-.7-2.17-12.86 3.85-11.42.78 3.42-1.61 10.35 1.28 11.42 2.899-1.07.51-8 1.29-11.42 5.319-.2 1.34 9.93 2.569 14.27-4.279 0-8.569 0-12.85 0 0-1.9 0-3.8 0-5.71-2.57 0-5.14 0-7.71 0-1.99 6.02 7.14-.31 5.14 5.71-3 0-5.989 0-8.989 0 0-2.85 0-5.71 0-8.56z" fill="#fff"/><path d="m623.89 410.12c-3.409-.02-7.34.54-8.989-1.43 0-2.37 0-4.75 0-7.13 5.159-.45 13.21 2.31 11.56-5.7 6.021-1.45-.229 10.71 3.86 11.41 4.08-.7-2.17-12.86 3.85-11.41.78 3.41-1.61 10.34 1.28 11.41 2.899-1.07.51-8 1.29-11.41 5.319-.21 1.34 9.92 2.569 14.26-4.279 0-8.569 0-12.85 0 0-1.9 0-3.8 0-5.71-2.57 0-5.14 0-7.71 0-1.99 6.02 7.14-.31 5.14 5.71z" fill="#fff"/><path d="m591.77 261.77c-4.64 1.35-1.789-5.62-2.569-8.56h14.14v5.71h6.42c1.99-6.02-7.13.31-5.14-5.71h8.99v8.56c-4.71 0-9.42 0-14.13 0 0-1.9 0-3.8 0-5.71-1.711 0-3.421 0-5.141 0-3.49-1.02.92 6.73-2.57 5.71z" fill="#fff"/><path d="m591.77 410.12c-4.64 1.35-1.789-5.62-2.569-8.56h14.14v5.71h6.42c1.99-6.02-7.13.31-5.14-5.71h8.99v8.56c-4.71 0-9.42 0-14.13 0 0-1.9 0-3.8 0-5.71-1.711 0-3.421 0-5.141 0-3.49-1.02.92 6.73-2.57 5.71z" fill="#fff"/><path d="m563.51 253.21c4.67-.52 12.63 2.61 10.28-5.71 6.01-1.44-.23 10.72 3.85 11.42 3.71-.64-1.14-10.78 2.57-11.42 5.07-.87 1.51 7.84 2.57 11.42 3.71-.64-1.141-10.78 2.569-11.42 5.32-.2 1.341 9.93 2.57 14.27-4.71 0-9.42 0-14.13 0 0-1.9 0-3.8 0-5.71-2.57 0-5.14 0-7.71 0-2 6.02 7.13-.31 5.14 5.71-2.569 0-5.14 0-7.71 0 .001-2.85.001-5.71.001-8.56z" fill="#fff"/><path d="m563.51 401.56c4.67-.52 12.63 2.61 10.28-5.7 6.01-1.45-.23 10.71 3.85 11.41 2.9-1.07.5-8 1.29-11.41 5.551-.95.42 9.99 3.851 11.41 3.71-.64-1.141-10.78 2.569-11.41 5.32-.21 1.341 9.92 2.57 14.26-4.71 0-9.42 0-14.13 0 0-1.9 0-3.8 0-5.71-2.57 0-5.14 0-7.71 0-2 6.02 7.13-.31 5.14 5.71-2.569 0-5.14 0-7.71 0 0-2.85 0-5.71 0-8.56z" fill="#fff"/><path d="m537.82 398.71c5.35-4.72 28.05-4.72 33.399 0-11.139 0-22.269 0-33.399 0z" fill="#fff"/><path d="m537.82 250.36c5.35-4.72 28.05-4.72 33.399 0-11.139 0-22.269 0-33.399 0z" fill="#fff"/><path d="m548.09 256.06c-7.84-2.99-6.42 4.28-10.27 5.71 0-2.85 0-5.71 0-8.56h12.84v5.71h7.71c2-6.02-7.13.31-5.14-5.71h7.71v8.56c-4.28 0-8.561 0-12.851 0 .001-1.9.001-3.8.001-5.71z" fill="#fff"/><path d="m548.09 404.41c-7.84-2.99-6.42 4.28-10.27 5.71 0-2.85 0-5.71 0-8.56h12.84v5.71h7.71c2-6.02-7.13.31-5.14-5.71h7.71v8.56c-4.28 0-8.561 0-12.851 0 .001-1.9.001-3.8.001-5.71z" fill="#fff"/><path d="m485.14 247.5h34.69c-5.77 4.73-28.92 4.73-34.69 0z" fill="#fff"/><path d="m485.14 395.86h34.69c-5.77 4.72-28.92 4.72-34.69 0z" fill="#fff"/><path d="m510.84 401.56c4.66-.52 12.63 2.61 10.28-5.7h3.85v11.41c5.71.63-.87-12.38 5.141-11.41.779 3.41-1.61 10.34 1.279 11.41 2.9-1.07.5-8 1.29-11.41 5.32-.21 1.33 9.92 2.57 14.26-4.71 0-9.43 0-14.13 0 0-1.9 0-3.8 0-5.71-2.15 0-4.29 0-6.43 0-1.99 6.02 7.13-.31 5.14 5.71-3 0-6 0-8.99 0 0-2.85 0-5.71 0-8.56z" fill="#fff"/><path d="m510.84 253.21c4.66-.52 12.63 2.61 10.28-5.71h3.85v11.42c3.71-.64-1.14-10.78 2.57-11.42 5.07-.87 1.51 7.84 2.57 11.42 5.06.87 1.51-7.83 2.569-11.42 5.32-.2 1.33 9.93 2.57 14.27-4.71 0-9.43 0-14.13 0 0-1.9 0-3.8 0-5.71-2.15 0-4.29 0-6.43 0-1.99 6.02 7.13-.31 5.14 5.71-3 0-6 0-8.99 0 .001-2.85.001-5.71.001-8.56z" fill="#fff"/><path d="m472.3 288.87c28.34.4 36.01 60.63 10.271 75.6 11.879-18.61 11.429-64.2-10.271-75.6z" fill="#ed1e29"/><path d="m495.42 256.06c-7.84-2.99-6.42 4.28-10.28 5.71 0-2.85 0-5.71 0-8.56h14.13v5.71h6.431c1.99-6.02-7.141.31-5.141-5.71h8.99v8.56c-4.71 0-9.42 0-14.13 0 0-1.9 0-3.8 0-5.71z" fill="#fff"/><path d="m495.42 404.41c-7.84-2.99-6.42 4.28-10.28 5.71 0-2.85 0-5.71 0-8.56h14.13v5.71h6.431c1.99-6.02-7.141.31-5.141-5.71h8.99v8.56c-4.71 0-9.42 0-14.13 0 0-1.9 0-3.8 0-5.71z" fill="#fff"/><path d="m467.16 247.5c-5.771 4.73-28.92 4.73-34.69 0z" fill="#fff"/><path d="m432.47 395.86h34.69c-5.77 4.72-28.92 4.72-34.69 0z" fill="#fff"/><path d="m459.45 253.21c4.66-.52 12.63 2.61 10.28-5.71 6.01-1.44-.23 10.72 3.85 11.42 4.08-.7-2.16-12.86 3.85-11.42.79 3.42-1.609 10.35 1.29 11.42 2.9-1.07.5-8 1.28-11.42 5.32-.2 1.34 9.93 2.57 14.27-4.28 0-8.561 0-12.84 0 0-1.9 0-3.8 0-5.71-2.57 0-5.141 0-7.711 0-2 6.02 7.131-.31 5.141 5.71-2.57 0-5.141 0-7.71 0 0-2.85 0-5.71 0-8.56z" fill="#fff"/><path d="m459.45 401.56c4.66-.52 12.63 2.61 10.28-5.7 6.01-1.45-.23 10.71 3.85 11.41 4.08-.7-2.16-12.86 3.85-11.41.79 3.41-1.609 10.34 1.29 11.41 2.9-1.07.5-8 1.28-11.41 5.32-.21 1.34 9.92 2.57 14.26-4.28 0-8.561 0-12.84 0 0-1.9 0-3.8 0-5.71-2.57 0-5.141 0-7.711 0-2 6.02 7.131-.31 5.141 5.71-2.57 0-5.141 0-7.71 0 0-2.85 0-5.71 0-8.56z" fill="#fff"/><path d="m437.61 277.46c2.439 2.83 10.489 7.58 11.56 0 2.35 3.83 9.97 6.82 11.561 0 3.739 2.43-1.141 7.16-2.57 8.56-7.23-.83-7.92-3.96-14.13 0-3.911-.89-6.571-3.17-6.421-8.56z" fill="#ed1e29"/><path d="m435.04 261.77c-4.64 1.35-1.79-5.62-2.57-8.56h14.13v5.71h7.71c1.99-6.02-7.13.31-5.14-5.71h7.71v8.56c-4.28 0-8.56 0-12.85 0 0-1.9 0-3.8 0-5.71-2.141 0-4.28 0-6.42 0-3.49-1.02.92 6.73-2.57 5.71z" fill="#fff"/><path d="m435.04 410.12c-4.64 1.35-1.79-5.62-2.57-8.56h14.13v5.71h7.71c1.99-6.02-7.13.31-5.14-5.71h7.71v8.56c-4.28 0-8.56 0-12.85 0 0-1.9 0-3.8 0-5.71-2.141 0-4.28 0-6.42 0-3.49-1.02.92 6.73-2.57 5.71z" fill="#fff"/><path d="m431.18 290.3c-10.16 19.86-6.66 63.3 14.141 72.75-.301-24.4.899-50.46-1.29-72.75 5.54-1.99 4.739-5.41 10.279-1.43 3.921 23.45-1.609 48.56 0 74.18 18.62-8.81 27.78-50.5 12.851-71.32 21.56 10.39 17.35 73.09-9 78.45 3.64 4.04 10.54 4.46 17.99 4.28-7.181 7.42-24.58-3.85-25.69 8.56-2.9-10.44-16.49-3.39-26.98-7.14 4.65-2.91 13.99-.62 17.98-4.27-23.821-9.8-31.221-61.4-10.281-81.31z" fill="#ed1e29"/><path d="m419.62 363.05c-26.96-7.52-23.56-72.99 9-75.61-18.96 9.47-27.53 57.75-9 75.61z" fill="#ed1e29"/><path d="m381.08 247.5h34.69c-5.77 4.73-28.92 4.73-34.69 0z" fill="#fff"/><path d="m415.77 395.86c-5.77 4.72-28.92 4.72-34.69 0z" fill="#fff"/><path d="m417.05 256.06c-2.14 0-4.28 0-6.42 0-2 6.02 7.13-.31 5.14 5.71-3 0-6 0-9 0 0-2.85 0-5.71 0-8.56 4.67-.52 12.63 2.61 10.28-5.71h3.86v11.42c3.71-.64-1.14-10.78 2.57-11.42 5.06-.87 1.51 7.84 2.57 11.42 3.71-.64-1.15-10.78 2.57-11.42 5.31-.2 1.33 9.93 2.56 14.27-4.71 0-9.42 0-14.13 0 0-1.9 0-3.8 0-5.71z" fill="#fff"/><path d="m417.05 404.41c-2.14 0-4.28 0-6.42 0-2 6.02 7.13-.31 5.14 5.71-3 0-6 0-9 0 0-2.85 0-5.71 0-8.56 4.67-.52 12.63 2.61 10.28-5.7h3.86v11.41c3.71-.64-1.14-10.78 2.57-11.41 5.06-.88 1.51 7.83 2.57 11.41 3.71-.64-1.15-10.78 2.57-11.41 5.31-.21 1.33 9.92 2.56 14.26-4.71 0-9.42 0-14.13 0 0-1.9 0-3.8 0-5.71z" fill="#fff"/><path d="m391.36 256.06c-7.84-2.99-6.43 4.28-10.28 5.71 0-2.85 0-5.71 0-8.56h12.85v5.71h7.71c1.99-6.02-7.14.31-5.14-5.71h8.99v8.56c-4.71 0-9.42 0-14.13 0 0-1.9 0-3.8 0-5.71z" fill="#fff"/><path d="m381.08 410.12c0-2.85 0-5.71 0-8.56h12.85v5.71h7.71c1.99-6.02-7.14.31-5.14-5.71h8.99v7.13c-2.76 2.65-9.41.97-14.13 1.43 0-1.9 0-3.8 0-5.71-7.84-2.99-6.43 4.28-10.28 5.71z" fill="#fff"/><path d="m363.09 247.5c-5.76 4.73-28.92 4.73-34.68 0z" fill="#fff"/><path d="m328.41 395.86h34.68c-5.76 4.72-28.92 4.72-34.68 0z" fill="#fff"/><path d="m357.96 256.06c-2 6.02 7.13-.31 5.13 5.71-2.57 0-5.13 0-7.7 0 0-2.85 0-5.71 0-8.56 4.66-.52 12.63 2.61 10.27-5.71 6.02-1.44-.23 10.72 3.86 11.42 4.08-.7-2.16-12.86 3.85-11.42.78 3.42-1.61 10.35 1.29 11.42 2.89-1.07.5-8 1.28-11.42 5.32-.2 1.34 9.93 2.57 14.27-4.28 0-8.56 0-12.85 0 0-1.9 0-3.8 0-5.71-2.57 0-5.14 0-7.7 0z" fill="#fff"/><path d="m357.96 404.41c-2 6.02 7.13-.31 5.13 5.71-2.57 0-5.13 0-7.7 0 0-2.85 0-5.71 0-8.56 4.66-.52 12.63 2.61 10.27-5.7 6.02-1.45-.23 10.71 3.86 11.41 4.08-.7-2.16-12.86 3.85-11.41.78 3.41-1.61 10.34 1.29 11.41 2.89-1.07.5-8 1.28-11.41 5.32-.21 1.34 9.92 2.57 14.26-4.28 0-8.56 0-12.85 0 0-1.9 0-3.8 0-5.71-2.57 0-5.14 0-7.7 0z" fill="#fff"/><path d="m330.98 261.77c-4.65 1.35-1.79-5.62-2.57-8.56h14.13v5.71h6.42c2-6.02-7.13.31-5.14-5.71h9v8.56c-4.71 0-9.43 0-14.13 0 0-1.9 0-3.8 0-5.71-1.72 0-3.43 0-5.14 0-3.49-1.02.92 6.73-2.57 5.71z" fill="#fff"/><path d="m330.98 410.12c-4.65 1.35-1.79-5.62-2.57-8.56h14.13v5.71c3.17.19 6.19.21 7.71-1.43.22-4.05-8.41 1.72-6.43-4.28h9v8.56c-4.71 0-9.43 0-14.13 0 0-1.9 0-3.8 0-5.71-1.72 0-3.43 0-5.14 0-3.49-1.02.92 6.73-2.57 5.71z" fill="#fff"/><path d="m277.02 247.5h34.69c-5.77 4.73-28.92 4.73-34.69 0z" fill="#fff"/><path d="m311.71 261.77c-3 0-6 0-9 0 0-2.85 0-5.71 0-8.56 4.67-.52 12.63 2.61 10.28-5.71h3.85v11.42c3.72-.64-1.14-10.78 2.57-11.42 5.07-.87 1.52 7.84 2.57 11.42 3.71-.64-1.14-10.78 2.57-11.42 5.32-.2 1.34 9.93 2.57 14.27-4.71 0-9.42 0-14.13 0 0-1.9 0-3.8 0-5.71-2.57 0-5.14 0-7.71 0-1.96 6.46 8.39-.75 6.43 5.71z" fill="#fff"/><path d="m302.71 410.12c0-2.85 0-5.71 0-8.56 4.67-.52 12.63 2.61 10.28-5.7h3.85v11.41c3.72-.64-1.14-10.78 2.57-11.41 5.07-.88 1.52 7.83 2.57 11.41 3.71-.64-1.14-10.78 2.57-11.41 5.32-.21 1.34 9.92 2.57 14.26-4.71 0-9.42 0-14.13 0 0-1.9 0-3.8 0-5.71-2.57 0-5.14 0-7.71 0-1.99 6.02 7.14-.31 5.14 5.71-2.57 0-5.14 0-7.71 0z" fill="#fff"/><path d="m310.42 398.71c-11.13 0-22.27 0-33.4 0 5.35-4.72 28.05-4.72 33.4 0z" fill="#fff"/><path d="m287.3 256.06c-7.84-2.99-6.43 4.28-10.28 5.71 0-2.85 0-5.71 0-8.56h12.85v5.71h7.7c2-6.02-7.13.31-5.13-5.71h7.7v8.56c-4.28 0-8.56 0-12.84 0 0-1.9 0-3.8 0-5.71z" fill="#fff"/><path d="m287.3 404.41c-7.84-2.99-6.43 4.28-10.28 5.71 0-2.85 0-5.71 0-8.56h12.85v5.71h7.7c2-6.02-7.13.31-5.13-5.71h7.7v8.56c-4.28 0-8.56 0-12.84 0 0-1.9 0-3.8 0-5.71z" fill="#fff"/><path d="m224.35 247.5h34.68c-5.76 4.73-28.92 4.73-34.68 0z" fill="#fff"/><path d="m259.03 395.86c-5.76 4.72-28.92 4.72-34.68 0z" fill="#fff"/><path d="m253.89 404.41c-1.99 6.02 7.14-.31 5.14 5.71-3 0-5.99 0-8.99 0 0-2.85 0-5.71 0-8.56 5.16-.45 13.21 2.31 11.56-5.7 6.02-1.45-.23 10.71 3.86 11.41 4.08-.7-2.16-12.86 3.85-11.41.78 3.41-1.61 10.34 1.29 11.41 2.89-1.07.5-8 1.28-11.41 5.32-.21 1.34 9.92 2.57 14.26-4.28 0-8.57 0-12.85 0 0-1.9 0-3.8 0-5.71-2.57 0-5.14 0-7.71 0z" fill="#fff"/><path d="m253.89 256.06c-1.99 6.02 7.14-.31 5.14 5.71-3 0-5.99 0-8.99 0 0-2.85 0-5.71 0-8.56 4.67-.52 12.63 2.61 10.28-5.71h3.85v11.42c6.55 1.57-1.41-12.98 5.14-11.42.78 3.42-1.61 10.35 1.29 11.42 2.89-1.07.5-8 1.28-11.42 5.32-.2 1.34 9.93 2.57 14.27-2.57 0-5.14 0-7.71 0-2.14 0-4.28 0-6.42 0 0-1.9 0-3.8 0-5.71-2.14 0-4.29 0-6.43 0z" fill="#fff"/><path d="m226.91 261.77c-4.64 1.35-1.79-5.62-2.56-8.56h14.13v5.71h6.42c1.99-6.02-7.13.31-5.14-5.71h9v8.56c-4.72 0-9.43 0-14.14 0 0-1.9 0-3.8 0-5.71-1.71 0-3.42 0-5.14 0-3.48-1.02.92 6.73-2.57 5.71z" fill="#fff"/><path d="m226.91 410.12c-4.64 1.35-1.79-5.62-2.56-8.56h14.13v5.71h6.42c1.99-6.02-7.13.31-5.14-5.71h9v8.56c-4.72 0-9.43 0-14.14 0 0-1.9 0-3.8 0-5.71-1.71 0-3.42 0-5.14 0-3.48-1.02.92 6.73-2.57 5.71z" fill="#fff"/><path d="m206.36 247.5c-5.77 4.73-28.92 4.73-34.69 0z" fill="#fff"/><path d="m201.22 256.06h7.71v5.71h14.13c-.6-2.12.04-5.63.24-8.63l1.05.07c.77 2.94-2.08 9.91 2.56 8.56 3.49 1.02-.91-6.73 2.57-5.71h5.14v5.71h14.14 1.28 8.99c2-6.02-7.13.31-5.14-5.71h6.43v5.71h6.42v1.96c-5.71 0-12.15 3.74-16.7 3.75-4.17 0-8.32-2.77-12.85-2.86-4.2-.08-8.51 2.85-12.84 2.86-5.58.01-12-3.96-17.96-3.72l-.03-1.99c1.99-6.02-7.13.31-5.14-5.71z" fill="#58b947"/><path d="m198.65 401.56c4.67-.52 12.63 2.61 10.28-5.7 6.01-1.45-.23 10.71 3.85 11.41 4.09-.7-2.16-12.86 3.86-11.41.78 3.41-1.62 10.34 1.28 11.41 2.9-1.07.5-8 1.29-11.41 5.32-.21 1.34 9.92 2.57 14.26-4.29 0-8.57 0-12.85 0 0-1.9 0-3.8 0-5.71-2.57 0-5.14 0-7.71 0-1.99 6.02 7.13-.31 5.14 5.71-2.57 0-5.14 0-7.71 0 0-2.85 0-5.71 0-8.56z" fill="#fff"/><path d="m198.65 253.21c4.67-.52 12.63 2.61 10.28-5.71 6.01-1.44-.23 10.72 3.85 11.42 4.09-.7-2.16-12.86 3.86-11.42.78 3.42-1.62 10.35 1.28 11.42 3.71-.64-1.14-10.78 2.57-11.42 2.72-.1 3.01 2.5 2.81 5.64-.2 3-.84 6.51-.24 8.63-4.71 0-9.42 0-14.13 0 0-1.9 0-3.8 0-5.71-2.57 0-5.14 0-7.71 0-1.99 6.02 7.13-.31 5.14 5.71-2.57 0-5.14 0-7.71 0 0-2.85 0-5.71 0-8.56z" fill="#fff"/><path d="m206.36 398.71c-11.13 0-22.27 0-33.4 0 5.35-4.72 28.05-4.72 33.4 0z" fill="#fff"/><path d="m185.8 407.27h7.71c2-6.02-7.13.31-5.14-5.71h7.71v8.56c-4.28 0-8.56 0-12.85 0 0-1.9 0-3.8 0-5.71-7.83-2.99-6.42 4.28-10.27 5.71 0-2.85 0-5.71 0-8.56h12.84z" fill="#fff"/><path d="m693.27 395.86c5.761 4.72 28.921 4.72 34.681 0-11.561 0-23.121 0-34.681 0zm0 5.7c.771 2.94-2.079 9.91 2.57 8.56 3.48 1.02-.92-6.73 2.57-5.71h5.13c-.09 2.49.29 4.44 1.29 5.71h12.85c0-2.85 0-5.71 0-8.56-2.569 0-5.14 0-7.71 0-2 6.02 7.13-.31 5.141 5.71-2.57 0-5.141 0-7.71 0 0-1.9 0-3.81 0-5.71-4.711 0-9.421 0-14.131 0zm-15.42-5.7c2.351 8.31-5.609 5.18-10.279 5.7v8.56h9c1.239-5.67-7.19-.59-6.431-5.71h7.71v5.71h14.131c-1.23-4.34 2.75-14.47-2.57-14.26-3.71.63 1.14 10.77-2.57 11.41-1.05-3.58 2.5-12.29-2.57-11.41-3.71.63 1.141 10.77-2.56 11.41 0-3.81 0-7.61 0-11.41-1.291 0-2.581 0-3.861 0zm-23.13 5.7c-4.279 0-8.56 0-12.84 0v8.56c3.851-1.43 2.44-8.7 10.28-5.71v5.71h12.84c0-2.85 0-5.71 0-8.56-2.57 0-5.14 0-7.71 0-1.99 6.02 7.14-.31 5.14 5.71-2.569 0-5.14 0-7.71 0 0-1.9 0-3.81 0-5.71zm-12.84-5.7c5.771 4.72 28.92 4.72 34.69 0-11.57 0-23.13 0-34.69 0zm-15.42 0c1.65 8.01-6.4 5.25-11.56 5.7v7.13c1.649 1.97 5.58 1.41 8.989 1.43 2-6.02-7.13.31-5.14-5.71h7.71v5.71h12.85c-1.229-4.34 2.75-14.47-2.569-14.26-.78 3.41 1.609 10.34-1.29 11.41-2.891-1.07-.5-8-1.28-11.41-6.02-1.45.23 10.71-3.85 11.41-4.09-.7 2.16-12.86-3.86-11.41zm-37.26 0c5.77 4.72 28.92 4.72 34.689 0-11.559 0-23.119 0-34.689 0zm0 5.7c.78 2.94-2.07 9.91 2.569 8.56 3.49 1.02-.92-6.73 2.57-5.71h5.141v5.71h14.13c0-2.85 0-5.71 0-8.56-2.99 0-5.99 0-8.99 0-1.99 6.02 7.13-.31 5.14 5.71-2.14 0-4.279 0-6.42 0 0-1.9 0-3.81 0-5.71-4.71 0-9.42 0-14.14 0zm-15.41-5.7c2.35 8.31-5.61 5.18-10.28 5.7v8.56h7.71c1.99-6.02-7.14.31-5.14-5.71h7.71v5.71h14.13c-1.229-4.34 2.75-14.47-2.57-14.26-3.71.63 1.141 10.77-2.569 11.41-3.431-1.42 1.7-12.36-3.851-11.41-.79 3.41 1.61 10.34-1.29 11.41-4.08-.7 2.16-12.86-3.85-11.41zm-2.57 2.85c-5.35-4.72-28.05-4.72-33.399 0zm-33.4 11.41c3.85-1.43 2.43-8.7 10.27-5.71v5.71h12.851c0-2.85 0-5.71 0-8.56-2.57 0-5.141 0-7.71 0-1.99 6.02 7.14-.31 5.14 5.71-2.57 0-5.14 0-7.71 0 0-1.9 0-3.81 0-5.71-4.28 0-8.561 0-12.84 0-.001 2.85-.001 5.71-.001 8.56zm-16.7-14.26c2.35 8.31-5.62 5.18-10.28 5.7v8.56h8.99c1.99-6.02-7.13.31-5.14-5.71h6.43v5.71h14.13c-1.24-4.34 2.75-14.47-2.57-14.26-.79 3.41 1.61 10.34-1.29 11.41-2.89-1.07-.5-8-1.279-11.41-6.011-.97.569 12.04-5.141 11.41 0-3.81 0-7.61 0-11.41-1.29 0-2.57 0-3.85 0zm-21.85 5.7c-4.71 0-9.42 0-14.13 0v8.56c3.86-1.43 2.44-8.7 10.28-5.71v5.71h14.13c0-2.85 0-5.71 0-8.56-3 0-5.99 0-8.99 0-2 6.02 7.131-.31 5.141 5.71-2.141 0-4.28 0-6.431 0 0-1.9 0-3.81 0-5.71zm-14.13-5.7c5.771 4.72 28.92 4.72 34.69 0-11.56 0-23.12 0-34.69 0zm-15.41 0c2.35 8.31-5.62 5.18-10.28 5.7v8.56h7.71c1.99-6.02-7.141.31-5.141-5.71h7.711v5.71h12.84c-1.23-4.34 2.75-14.47-2.57-14.26-.78 3.41 1.62 10.34-1.28 11.41-2.899-1.07-.5-8-1.29-11.41-6.01-1.45.23 10.71-3.85 11.41-4.08-.7 2.16-12.86-3.85-11.41zm-2.57 0c-11.57 0-23.13 0-34.69 0 5.77 4.72 28.92 4.72 34.69 0zm-34.69 5.7c.78 2.94-2.069 9.91 2.57 8.56 3.49 1.02-.92-6.73 2.57-5.71h6.42v5.71h12.85c0-2.85 0-5.71 0-8.56-2.57 0-5.14 0-7.71 0-1.99 6.02 7.13-.31 5.14 5.71-2.569 0-5.14 0-7.71 0 0-1.9 0-3.81 0-5.71-4.71 0-9.42 0-14.13 0zm-25.7 0v8.56h9c1.99-6.02-7.14.31-5.14-5.71h6.42v5.71h14.13c-1.229-4.34 2.75-14.47-2.56-14.26-3.72.63 1.14 10.77-2.57 11.41-1.06-3.58 2.49-12.29-2.57-11.41-3.71.63 1.14 10.77-2.57 11.41 0-3.81 0-7.61 0-11.41-1.29 0-2.57 0-3.86 0 2.35 8.31-5.61 5.18-10.28 5.7zm-12.84 0c-4.29 0-8.57 0-12.85 0v8.56c3.85-1.43 2.44-8.7 10.28-5.71v5.71c4.72-.46 11.37 1.22 14.13-1.43 0-2.37 0-4.75 0-7.13-3 0-5.99 0-8.99 0-2 6.02 7.13-.31 5.14 5.71-2.57 0-5.14 0-7.71 0 0-1.9 0-3.81 0-5.71zm-12.85-5.7c5.77 4.72 28.92 4.72 34.69 0-11.56 0-23.13 0-34.69 0zm-15.42 0c2.36 8.31-5.61 5.18-10.27 5.7v8.56h7.7c2-6.02-7.13.31-5.13-5.71h7.7v5.71h12.85c-1.23-4.34 2.75-14.47-2.57-14.26-.78 3.41 1.61 10.34-1.28 11.41-2.9-1.07-.51-8-1.29-11.41-6.01-1.45.23 10.71-3.85 11.41-4.09-.7 2.16-12.86-3.86-11.41zm-37.25 0c5.76 4.72 28.92 4.72 34.68 0-11.56 0-23.12 0-34.68 0zm0 5.7c.78 2.94-2.08 9.91 2.57 8.56 3.49 1.02-.92-6.73 2.57-5.71h5.14v5.71h14.13c0-2.85 0-5.71 0-8.56-3 0-6 0-9 0-1.98 6 6.65.23 6.43 4.28-1.52 1.64-4.54 1.62-7.71 1.43 0-1.9 0-3.81 0-5.71-4.71 0-9.42 0-14.13 0zm-15.42-5.7c2.35 8.31-5.61 5.18-10.28 5.7v8.56h7.71c2-6.02-7.13.31-5.14-5.71h7.71v5.71h14.13c-1.23-4.34 2.75-14.47-2.57-14.26-3.71.63 1.14 10.77-2.57 11.41-1.05-3.58 2.5-12.29-2.57-11.41-3.71.63 1.15 10.77-2.57 11.41 0-3.81 0-7.61 0-11.41-1.28 0-2.56 0-3.85 0zm-35.97 5.7v8.56c3.85-1.43 2.44-8.7 10.28-5.71v5.71h12.84c0-2.85 0-5.71 0-8.56-2.57 0-5.14 0-7.7 0-2 6.02 7.13-.31 5.13 5.71-2.57 0-5.13 0-7.7 0 0-1.9 0-3.81 0-5.71-4.29 0-8.57 0-12.85 0zm33.4-2.85c-5.35-4.72-28.05-4.72-33.4 0zm-51.39 11.41c2-6.02-7.13.31-5.14-5.71h7.71v5.71h12.85c-1.23-4.34 2.75-14.47-2.57-14.26-.78 3.41 1.61 10.34-1.28 11.41-2.9-1.07-.51-8-1.29-11.41-6.01-1.45.23 10.71-3.85 11.41-4.09-.7 2.16-12.86-3.86-11.41 1.65 8.01-6.4 5.25-11.56 5.7v8.56zm0-14.26c-11.56 0-23.12 0-34.68 0 5.76 4.72 28.92 4.72 34.68 0zm-34.68 5.7c.77 2.94-2.08 9.91 2.56 8.56 3.49 1.02-.91-6.73 2.57-5.71h5.14v5.71h14.14c0-2.85 0-5.71 0-8.56-3 0-6 0-9 0-1.99 6.02 7.13-.31 5.14 5.71-2.14 0-4.28 0-6.42 0 0-1.9 0-3.81 0-5.71-4.71 0-9.42 0-14.13 0zm-15.42-5.7c2.35 8.31-5.61 5.18-10.28 5.7v8.56h7.71c1.99-6.02-7.13.31-5.14-5.71h7.71v5.71h12.85c-1.23-4.34 2.75-14.47-2.57-14.26-.79 3.41 1.61 10.34-1.29 11.41-2.9-1.07-.5-8-1.28-11.41-6.02-1.45.23 10.71-3.86 11.41-4.08-.7 2.16-12.86-3.85-11.41zm-38.54 115.54c0-40.42 0-80.841 0-121.25 4.36 7.63 19.01-.03 28.26 0 54.8.2 110.93 2.85 168.3 2.85 28.87 0 59.76-2.74 89.93-2.85 4.47-.02 9.43 2.85 14.13 2.85 54.7 0 112.9-2.65 168.3-2.85 4.471-.02 9.431 2.85 14.131 2.85 20.52 0 42.43-2.77 64.239-2.85 5.96-.02 12.521 3.4 18.83 3.48v2.28c-2.89 1.36 1.44 10.75-2.13 11.36-4.09-.7 2.16-12.86-3.86-11.41 2.351 8.31-5.609 5.18-10.27 5.7v8.56h7.7c2-6.02-7.13.31-5.141-5.71h7.71v5.71h5.99v101.28c-188.709 0-377.409 0-566.119 0zm2.57-109.84v8.56c3.85-1.43 2.44-8.7 10.27-5.71v5.71h12.85c0-2.85 0-5.71 0-8.56-2.57 0-5.14 0-7.71 0-1.99 6.02 7.14-.31 5.14 5.71-2.57 0-5.14 0-7.71 0 0-1.9 0-3.81 0-5.71-4.28 0-8.56 0-12.84 0zm33.4-2.85c-5.35-4.72-28.05-4.72-33.4 0z" fill="#ed1e29"/><path d="m174.24 261.77c-4.64 1.35-1.79-5.62-2.57-8.56h14.13v5.71h7.71c2-6.02-7.13.31-5.14-5.71h7.71v8.56c-4.28 0-8.56 0-12.85 0 0-1.9 0-3.8 0-5.71-2.14 0-4.28 0-6.42 0-3.49-1.02.92 6.73-2.57 5.71z" fill="#fff"/><path d="m693.27 247.5c5.761 4.73 28.921 4.73 34.681 0-11.561 0-23.121 0-34.681 0zm0 5.71c.771 2.94-2.079 9.91 2.57 8.56 3.48 1.02-.92-6.73 2.57-5.71h5.13v5.71h14.14c0-2.85 0-5.71 0-8.56-3 0-6 0-9 0-1.96 6.46 8.391-.75 6.431 5.71-2.57 0-5.141 0-7.71 0 0-1.91 0-3.81 0-5.71-4.711 0-9.421 0-14.131 0zm-15.42-5.71c2.351 8.32-5.609 5.19-10.279 5.71v8.56h9c1.989-6.02-7.141.31-5.141-5.71h6.42v5.71h14.131c-1.23-4.34 2.75-14.47-2.57-14.27-3.71.64 1.14 10.78-2.57 11.42-1.05-3.58 2.5-12.29-2.57-11.42-3.71.64 1.141 10.78-2.56 11.42 0-3.81 0-7.61 0-11.42-1.291 0-2.581 0-3.861 0zm-23.13 5.71c-4.279 0-8.56 0-12.84 0v8.56c3.851-1.43 2.44-8.7 10.28-5.71v5.71h12.84c0-2.85 0-5.71 0-8.56-2.57 0-5.14 0-7.71 0-1.99 6.02 7.14-.31 5.14 5.71-2.569 0-5.14 0-7.71 0 0-1.91 0-3.81 0-5.71zm-12.84-5.71c5.771 4.73 28.92 4.73 34.69 0-11.57 0-23.13 0-34.69 0zm-17.99 14.27c2-6.02-7.13.31-5.14-5.71h7.71v5.71h12.85c-1.229-4.34 2.75-14.47-2.569-14.27-.78 3.42 1.609 10.35-1.29 11.42-2.891-1.07-.5-8-1.28-11.42-6.02-1.44.23 10.72-3.85 11.42-4.09-.7 2.16-12.86-3.86-11.42 2.43 8.88-6.76 4.86-11.56 5.71v8.56zm-34.69-14.27c5.77 4.73 28.92 4.73 34.689 0-11.559 0-23.119 0-34.689 0zm0 5.71c.78 2.94-2.07 9.91 2.569 8.56 3.49 1.02-.92-6.73 2.57-5.71h5.141v5.71h14.13c0-2.85 0-5.71 0-8.56-2.99 0-5.99 0-8.99 0-1.99 6.02 7.13-.31 5.14 5.71-2.14 0-4.279 0-6.42 0 0-1.91 0-3.81 0-5.71-4.71 0-9.42 0-14.14 0zm-15.41-5.71c2.35 8.32-5.61 5.19-10.28 5.71v8.56h7.71c1.99-6.02-7.14.31-5.14-5.71h7.71v5.71h14.13c-1.229-4.34 2.75-14.47-2.57-14.27-3.71.64 1.141 10.78-2.569 11.42-1.061-3.58 2.5-12.29-2.57-11.42-3.71.64 1.14 10.78-2.57 11.42-4.081-.7 2.159-12.86-3.851-11.42zm-2.57 2.86c-5.35-4.72-28.05-4.72-33.399 0zm-33.4 11.41c3.85-1.43 2.43-8.7 10.27-5.71v5.71h12.851c0-2.85 0-5.71 0-8.56-2.57 0-5.141 0-7.71 0-1.99 6.02 7.14-.31 5.14 5.71-2.57 0-5.14 0-7.71 0 0-1.91 0-3.81 0-5.71-4.28 0-8.561 0-12.84 0-.001 2.85-.001 5.71-.001 8.56zm-16.7-14.27c2.35 8.32-5.62 5.19-10.28 5.71v8.56h8.99c1.99-6.02-7.13.31-5.14-5.71h6.43v5.71h14.13c-1.24-4.34 2.75-14.47-2.57-14.27-1.06 3.59 2.49 12.29-2.569 11.42-1.061-3.58 2.5-12.29-2.57-11.42-3.71.64 1.14 10.78-2.57 11.42 0-3.81 0-7.61 0-11.42-1.291 0-2.571 0-3.851 0zm-35.98 14.27c3.86-1.43 2.44-8.7 10.28-5.71v5.71h14.13c0-2.85 0-5.71 0-8.56-3 0-5.99 0-8.99 0-2 6.02 7.131-.31 5.141 5.71-2.141 0-4.28 0-6.431 0 0-1.91 0-3.81 0-5.71-4.71 0-9.42 0-14.13 0zm0-14.27c5.771 4.73 28.92 4.73 34.69 0-11.56 0-23.12 0-34.69 0zm-15.41 0c2.35 8.32-5.62 5.19-10.28 5.71v8.56h7.71c1.99-6.02-7.141.31-5.141-5.71h7.711v5.71h12.84c-1.23-4.34 2.75-14.47-2.57-14.27-.78 3.42 1.62 10.35-1.28 11.42-2.899-1.07-.5-8-1.29-11.42-6.01-1.44.23 10.72-3.85 11.42-4.08-.7 2.16-12.86-3.85-11.42zm-2.57 0c-11.57 0-23.13 0-34.69 0 5.77 4.73 28.92 4.73 34.69 0zm-34.69 5.71c.78 2.94-2.069 9.91 2.57 8.56 3.49 1.02-.92-6.73 2.57-5.71h6.42v5.71h12.85c0-2.85 0-5.71 0-8.56-2.57 0-5.14 0-7.71 0-1.99 6.02 7.13-.31 5.14 5.71-2.569 0-5.14 0-7.71 0 0-1.91 0-3.81 0-5.71-4.71 0-9.42 0-14.13 0zm-16.7 8.56c1.99-6.02-7.14.31-5.14-5.71h6.42v5.71h14.13c-1.229-4.34 2.75-14.47-2.56-14.27-3.72.64 1.14 10.78-2.57 11.42-1.06-3.58 2.49-12.29-2.57-11.42-3.71.64 1.14 10.78-2.57 11.42 0-3.81 0-7.61 0-11.42-1.29 0-2.57 0-3.86 0 2.35 8.32-5.61 5.19-10.28 5.71v8.56zm-21.84-8.56c-4.29 0-8.57 0-12.85 0v8.56c3.85-1.43 2.44-8.7 10.28-5.71v5.71h14.13c0-2.85 0-5.71 0-8.56-3 0-5.99 0-8.99 0-2 6.02 7.13-.31 5.14 5.71-2.57 0-5.14 0-7.71 0 0-1.91 0-3.81 0-5.71zm-12.85-5.71c5.77 4.73 28.92 4.73 34.69 0-11.56 0-23.13 0-34.69 0zm-15.42 0c2.36 8.32-5.61 5.19-10.27 5.71v8.56h7.7c2-6.02-7.13.31-5.13-5.71h7.7v5.71h12.85c-1.23-4.34 2.75-14.47-2.57-14.27-.78 3.42 1.61 10.35-1.28 11.42-2.9-1.07-.51-8-1.29-11.42-6.01-1.44.23 10.72-3.85 11.42-4.09-.7 2.16-12.86-3.86-11.42zm-37.25 0c5.76 4.73 28.92 4.73 34.68 0-11.56 0-23.12 0-34.68 0zm0 5.71c.78 2.94-2.08 9.91 2.57 8.56 3.49 1.02-.92-6.73 2.57-5.71h5.14v5.71h14.13c0-2.85 0-5.71 0-8.56-3 0-6 0-9 0-1.99 6.02 7.14-.31 5.14 5.71-2.14 0-4.28 0-6.42 0 0-1.91 0-3.81 0-5.71-4.71 0-9.42 0-14.13 0zm-25.7 8.56h9c1.96-6.46-8.39.75-6.43-5.71h7.71v5.71h14.13c-1.23-4.34 2.75-14.47-2.57-14.27-3.71.64 1.14 10.78-2.57 11.42-1.05-3.58 2.5-12.29-2.57-11.42-3.71.64 1.15 10.78-2.57 11.42 0-3.81 0-7.61 0-11.42-1.28 0-2.56 0-3.85 0 2.35 8.32-5.61 5.19-10.28 5.71zm-25.69 0c3.85-1.43 2.44-8.7 10.28-5.71v5.71h12.84c0-2.85 0-5.71 0-8.56-2.57 0-5.14 0-7.7 0-2 6.02 7.13-.31 5.13 5.71-2.57 0-5.13 0-7.7 0 0-1.91 0-3.81 0-5.71-4.29 0-8.57 0-12.85 0zm0-14.27c5.77 4.73 28.92 4.73 34.69 0-11.57 0-23.13 0-34.69 0zm-17.99 0c-11.56 0-23.12 0-34.68 0 5.76 4.73 28.92 4.73 34.68 0zm-60.38 19.98c-4.31-3.59-22.97-5.5-26.98 0-2.99-37.57-.43-81.31-1.28-121.25h566.12v101.32c-2.899 1.36 1.44 10.76-2.13 11.37-4.09-.7 2.16-12.86-3.86-11.42 2.351 8.32-5.609 5.19-10.27 5.71v8.56h7.7c2-6.02-7.13.31-5.141-5.71h7.71v5.71h5.99v4.44c-22.529-2.64-46.1-2.51-68.939 1.27-5.32-4.4-22.94-4.4-28.261 0-20.8-4.04-52.29-4.24-75.8 0-25.319-3.87-52.319-4.31-78.37 0-5.31-4.4-22.939-4.4-28.26 0-15.79-7.4-33.69-.03-50.11 0-7.33 0-19.51-8.37-25.69 0-5.32-4.4-22.95-4.4-28.26 0-25.54-4.27-51.34-3.93-78.37 0-2.17-2.82-4.85-3.75-7.71-3.75v-1.96h7.71c-1.23-4.34 2.75-14.47-2.57-14.27-.78 3.42 1.61 10.35-1.28 11.42-2.9-1.07-.51-8-1.29-11.42-6.55-1.56 1.41 12.99-5.14 11.42 0-3.81 0-7.61 0-11.42-1.28 0-2.57 0-3.85 0 2.35 8.32-5.61 5.19-10.28 5.71v8.56h-1.28c0-2.85 0-5.71 0-8.56-3 0-6 0-9 0-1.99 6.02 7.13-.31 5.14 5.71-2.14 0-4.28 0-6.42 0 0-1.91 0-3.81 0-5.71-4.71 0-9.42 0-14.13 0l-1.05-.07c.2-3.14-.09-5.74-2.81-5.64-3.71.64 1.14 10.78-2.57 11.42-2.9-1.07-.5-8-1.28-11.42-6.02-1.44.23 10.72-3.86 11.42-4.08-.7 2.16-12.86-3.85-11.42 2.35 8.32-5.61 5.19-10.28 5.71v8.56h7.71l.03 1.99c-2.709.12-5.329 1.1-7.739 3.72zm7.71-19.98c-11.56 0-23.13 0-34.69 0 5.77 4.73 28.92 4.73 34.69 0zm-34.69 5.71c.78 2.94-2.07 9.91 2.57 8.56 3.49 1.02-.92-6.73 2.57-5.71h6.42v5.71h12.85c0-2.85 0-5.71 0-8.56-2.57 0-5.14 0-7.71 0-1.99 6.02 7.14-.31 5.14 5.71-2.57 0-5.14 0-7.71 0 0-1.91 0-3.81 0-5.71-4.71 0-9.42 0-14.13 0z" fill="#58b947"/><path d="m472.3 288.87c21.7 11.4 22.15 56.99 10.271 75.6 25.739-14.97 18.069-75.2-10.271-75.6zm-28.27-2.85c6.21-3.96 6.899-.83 14.13 0 1.43-1.4 6.31-6.13 2.57-8.56-1.591 6.82-9.211 3.83-11.561 0-1.07 7.58-9.12 2.83-11.56 0-.149 5.39 2.511 7.67 6.421 8.56zm-12.85 4.28c-20.939 19.91-13.54 71.51 10.28 81.31-3.99 3.65-13.33 1.36-17.98 4.27 10.49 3.75 24.08-3.3 26.98 7.14 1.11-12.41 18.51-1.14 25.69-8.56-7.45.18-14.351-.24-17.99-4.28 26.35-5.36 30.56-68.06 9-78.45 14.93 20.82 5.77 62.51-12.851 71.32-1.609-25.62 3.921-50.73 0-74.18-5.54-3.98-4.739-.56-10.279 1.43 2.189 22.29.989 48.35 1.29 72.75-20.8-9.45-24.3-52.89-14.14-72.75zm-11.56 72.75c-18.53-17.86-9.96-66.14 9-75.61-32.56 2.62-35.96 68.09-9 75.61zm-251.8-215.4c-.11-2.02-.21-4.04 1.26-4.28h567.43v2.86c-188.71 0-377.41 0-566.12 0 .85 39.94-1.71 83.68 1.28 121.25 4.01-5.5 22.67-3.59 26.98 0 2.41-2.62 5.03-3.6 7.74-3.72 5.96-.24 12.38 3.73 17.96 3.72 4.33-.01 8.64-2.94 12.84-2.86 4.53.09 8.68 2.86 12.85 2.86 4.55-.01 10.99-3.75 16.7-3.75 2.86 0 5.54.93 7.71 3.75 27.03-3.93 52.83-4.27 78.37 0 5.31-4.4 22.94-4.4 28.26 0 6.18-8.37 18.36 0 25.69 0 16.42-.03 34.32-7.4 50.11 0 5.32-4.4 22.95-4.4 28.26 0 26.051-4.31 53.051-3.87 78.37 0 23.51-4.24 55-4.04 75.8 0 5.32-4.4 22.94-4.4 28.261 0 22.84-3.78 46.41-3.91 68.939-1.27v127.42c-6.31-.08-12.87-3.5-18.83-3.48-21.81.08-43.72 2.85-64.239 2.85-4.7 0-9.66-2.87-14.131-2.85-55.399.2-113.6 2.85-168.3 2.85-4.7 0-9.66-2.87-14.13-2.85-30.17.11-61.06 2.85-89.93 2.85-57.37 0-113.5-2.65-168.3-2.85-9.25-.03-23.9 7.63-28.26 0v121.25h566.12v2.85c-189.25 0-378.51 0-567.76 0l-.93-101.58c0-88.34 0-176.68 0-265.02z" fill="#fff"/><path d="m122.25 115.02c-10.99-4.89-18.33-13.72-18.33-23.8 0-15.4 17.13-27.88 38.25-27.88 21.13 0 38.26 12.48 38.26 27.88 0 9.84-7 18.49-17.57 23.45-5.96 2.8-13.07 4.43-20.69 4.43-7.3 0-14.12-1.49-19.92-4.08z" fill="#c8c8c8"/><path d="m167.82 412.67.93 101.58c-.31 0-.62 0-.93 0 0-33.86 0-67.72 0-101.58z" fill="#fff"/><path d="m169.08 143.37c-1.47.24-1.37 2.26-1.26 4.28v265.02l-2.5-272.08h583.11v37.12l-2.489 1.4c0-10.96 0-21.92 0-32.88-3.141 0-6.29 0-9.431 0 0-.95 0-1.91 0-2.86-189.15 0-378.29 0-567.43 0z" fill="#fff"/><g fill="none"><path d="m165.32 140.59h583.11v37.12 212.44 130.27h-579.62" stroke="#231f20" stroke-width="21"/><path d="m122.25 115.02c-10.99-4.89-18.33-13.72-18.33-23.8 0-15.4 17.13-27.88 38.25-27.88 21.13 0 38.26 12.48 38.26 27.88 0 9.84-7 18.49-17.57 23.45-5.96 2.8-13.07 4.43-20.69 4.43-7.3 0-14.12-1.49-19.92-4.08z" stroke="#231f20" stroke-width="21"/><path d="m122.25 114.25v.77l1.12 670.61" stroke="#231f20" stroke-width="21"/><path d="m162.86 112.85v1.82 670.96" stroke="#231f20" stroke-width="21"/><path d="m745.94 179.11 2.49-1.4 2.01-1.14" stroke="#231f20" stroke-width="14"/><path d="m736.51 511.4v2.85c-189.25 0-378.51 0-567.76 0-.31 0-.62 0-.93 0 0-33.86 0-67.72 0-101.58 0-88.34 0-176.68 0-265.02-.11-2.02-.21-4.04 1.26-4.28h567.43v2.86" stroke="#231f20" stroke-width=".9913"/><path d="m736.51 266.21v127.42" stroke="#231f20" stroke-width=".9913"/><path d="m437.61 277.46c2.439 2.83 10.489 7.58 11.56 0 2.35 3.83 9.97 6.82 11.561 0 3.739 2.43-1.141 7.16-2.57 8.56-7.23-.83-7.92-3.96-14.13 0-3.911-.89-6.571-3.17-6.421-8.56z" stroke="#231f20" stroke-width="1.0017"/><path d="m472.3 288.87c28.34.4 36.01 60.63 10.271 75.6 11.879-18.61 11.429-64.2-10.271-75.6z" stroke="#231f20" stroke-width="1.0017"/><path d="m431.18 290.3c-10.16 19.86-6.66 63.3 14.141 72.75-.301-24.4.899-50.46-1.29-72.75 5.54-1.99 4.739-5.41 10.279-1.43 3.921 23.45-1.609 48.56 0 74.18 18.62-8.81 27.78-50.5 12.851-71.32 21.56 10.39 17.35 73.09-9 78.45 3.64 4.04 10.54 4.46 17.99 4.28-7.181 7.42-24.58-3.85-25.69 8.56-2.9-10.44-16.49-3.39-26.98-7.14 4.65-2.91 13.99-.62 17.98-4.27-23.821-9.8-31.221-61.4-10.281-81.31z" stroke="#231f20" stroke-width="1.0017"/><path d="m419.62 363.05c-26.96-7.52-23.56-72.99 9-75.61-18.96 9.47-27.53 57.75-9 75.61z" stroke="#231f20" stroke-width="1.0017"/><path d="m736.51 146.23h9.431v32.88 88.37c-3.12-.48-6.261-.9-9.431-1.27-22.529-2.64-46.1-2.51-68.939 1.27-5.32-4.4-22.94-4.4-28.261 0-20.8-4.04-52.29-4.24-75.8 0-25.319-3.87-52.319-4.31-78.37 0-5.31-4.4-22.939-4.4-28.26 0-15.79-7.4-33.69-.03-50.11 0-7.33 0-19.51-8.37-25.69 0-5.32-4.4-22.95-4.4-28.26 0-25.54-4.27-51.34-3.93-78.37 0-2.17-2.82-4.85-3.75-7.71-3.75-5.71 0-12.15 3.74-16.7 3.75-4.17 0-8.32-2.77-12.85-2.86-4.2-.08-8.51 2.85-12.84 2.86-5.58.01-12-3.96-17.96-3.72-2.71.12-5.33 1.1-7.74 3.72-4.31-3.59-22.97-5.5-26.98 0-2.99-37.57-.43-81.31-1.28-121.25z" stroke="#231f20" stroke-width="1.0017"/><path d="m206.36 247.5c-11.56 0-23.13 0-34.69 0 5.77 4.73 28.92 4.73 34.69 0z" stroke="#231f20" stroke-width="1.0017"/><path d="m223.3 253.14c.2-3.14-.09-5.74-2.81-5.64-3.71.64 1.14 10.78-2.57 11.42-2.9-1.07-.5-8-1.28-11.42-6.02-1.44.23 10.72-3.86 11.42-4.08-.7 2.16-12.86-3.85-11.42 2.35 8.32-5.61 5.19-10.28 5.71v8.56h7.71c1.99-6.02-7.13.31-5.14-5.71h7.71v5.71h14.13c-.6-2.12.04-5.63.24-8.63z" stroke="#231f20" stroke-width="1.0017"/><path d="m259.03 247.5c-11.56 0-23.12 0-34.68 0 5.76 4.73 28.92 4.73 34.68 0z" stroke="#231f20" stroke-width="1.0017"/><path d="m266.74 261.77h7.71c-1.23-4.34 2.75-14.47-2.57-14.27-.78 3.42 1.61 10.35-1.28 11.42-2.9-1.07-.51-8-1.29-11.42-6.55-1.56 1.41 12.99-5.14 11.42 0-3.81 0-7.61 0-11.42-1.28 0-2.57 0-3.85 0 2.35 8.32-5.61 5.19-10.28 5.71v8.56h8.99c2-6.02-7.13.31-5.14-5.71h6.43v5.71z" stroke="#231f20" stroke-width="1.0017"/><path d="m311.71 247.5c-11.57 0-23.13 0-34.69 0 5.77 4.73 28.92 4.73 34.69 0z" stroke="#231f20" stroke-width="1.0017"/><path d="m302.71 253.21v8.56h9c1.96-6.46-8.39.75-6.43-5.71h7.71v5.71h14.13c-1.23-4.34 2.75-14.47-2.57-14.27-3.71.64 1.14 10.78-2.57 11.42-1.05-3.58 2.5-12.29-2.57-11.42-3.71.64 1.15 10.78-2.57 11.42 0-3.81 0-7.61 0-11.42-1.28 0-2.56 0-3.85 0 2.35 8.32-5.61 5.19-10.28 5.71z" stroke="#231f20" stroke-width="1.0017"/><path d="m363.09 247.5c-11.56 0-23.12 0-34.68 0 5.76 4.73 28.92 4.73 34.68 0z" stroke="#231f20" stroke-width="1.0017"/><path d="m355.39 253.21v8.56h7.7c2-6.02-7.13.31-5.13-5.71h7.7v5.71h12.85c-1.23-4.34 2.75-14.47-2.57-14.27-.78 3.42 1.61 10.35-1.28 11.42-2.9-1.07-.51-8-1.29-11.42-6.01-1.44.23 10.72-3.85 11.42-4.09-.7 2.16-12.86-3.86-11.42 2.36 8.32-5.61 5.19-10.27 5.71z" stroke="#231f20" stroke-width="1.0017"/><path d="m415.77 247.5c-11.56 0-23.13 0-34.69 0 5.77 4.73 28.92 4.73 34.69 0z" stroke="#231f20" stroke-width="1.0017"/><path d="m406.77 253.21v8.56h9c1.99-6.02-7.14.31-5.14-5.71h6.42v5.71h14.13c-1.229-4.34 2.75-14.47-2.56-14.27-3.72.64 1.14 10.78-2.57 11.42-1.06-3.58 2.49-12.29-2.57-11.42-3.71.64 1.14 10.78-2.57 11.42 0-3.81 0-7.61 0-11.42-1.29 0-2.57 0-3.86 0 2.35 8.32-5.61 5.19-10.28 5.71z" stroke="#231f20" stroke-width="1.0017"/><path d="m467.16 247.5c-11.57 0-23.13 0-34.69 0 5.77 4.73 28.92 4.73 34.69 0z" stroke="#231f20" stroke-width="1.0017"/><path d="m459.45 253.21v8.56h7.71c1.99-6.02-7.141.31-5.141-5.71h7.711v5.71h12.84c-1.23-4.34 2.75-14.47-2.57-14.27-.78 3.42 1.62 10.35-1.28 11.42-2.899-1.07-.5-8-1.29-11.42-6.01-1.44.23 10.72-3.85 11.42-4.08-.7 2.16-12.86-3.85-11.42 2.35 8.32-5.62 5.19-10.28 5.71z" stroke="#231f20" stroke-width="1.0017"/><path d="m519.83 247.5c-11.561 0-23.12 0-34.69 0 5.77 4.73 28.92 4.73 34.69 0z" stroke="#231f20" stroke-width="1.0017"/><path d="m510.84 253.21v8.56h8.99c1.99-6.02-7.13.31-5.14-5.71h6.43v5.71h14.13c-1.24-4.34 2.75-14.47-2.57-14.27-1.06 3.59 2.49 12.29-2.569 11.42-1.061-3.58 2.5-12.29-2.57-11.42-3.71.64 1.14 10.78-2.57 11.42 0-3.81 0-7.61 0-11.42-1.29 0-2.569 0-3.85 0 2.349 8.32-5.621 5.19-10.281 5.71z" stroke="#231f20" stroke-width="1.0017"/><path d="m537.82 250.36h33.399c-5.349-4.72-28.049-4.72-33.399 0z" stroke="#231f20" stroke-width="1.0017"/><path d="m563.51 253.21v8.56h7.71c1.99-6.02-7.14.31-5.14-5.71h7.71v5.71h14.13c-1.229-4.34 2.75-14.47-2.57-14.27-3.71.64 1.141 10.78-2.569 11.42-1.061-3.58 2.5-12.29-2.57-11.42-3.71.64 1.14 10.78-2.57 11.42-4.08-.7 2.16-12.86-3.85-11.42 2.349 8.32-5.611 5.19-10.281 5.71z" stroke="#231f20" stroke-width="1.0017"/><path d="m623.89 247.5c-11.56 0-23.12 0-34.689 0 5.769 4.73 28.919 4.73 34.689 0z" stroke="#231f20" stroke-width="1.0017"/><path d="m614.9 253.21v8.56h8.989c2-6.02-7.13.31-5.14-5.71h7.71v5.71h12.85c-1.229-4.34 2.75-14.47-2.569-14.27-.78 3.42 1.609 10.35-1.29 11.42-2.891-1.07-.5-8-1.28-11.42-6.02-1.44.23 10.72-3.85 11.42-4.09-.7 2.16-12.86-3.86-11.42 2.43 8.88-6.76 4.86-11.56 5.71z" stroke="#231f20" stroke-width="1.0017"/><path d="m676.57 247.5c-11.57 0-23.13 0-34.69 0 5.77 4.73 28.92 4.73 34.69 0z" stroke="#231f20" stroke-width="1.0017"/><path d="m667.57 253.21v8.56h9c1.989-6.02-7.141.31-5.141-5.71h6.42v5.71h14.131c-1.23-4.34 2.75-14.47-2.57-14.27-3.71.64 1.14 10.78-2.57 11.42-1.05-3.58 2.5-12.29-2.57-11.42-3.71.64 1.141 10.78-2.56 11.42 0-3.81 0-7.61 0-11.42-1.29 0-2.58 0-3.86 0 2.35 8.32-5.61 5.19-10.28 5.71z" stroke="#231f20" stroke-width="1.0017"/><path d="m727.95 247.5c-11.561 0-23.12 0-34.681 0 5.761 4.73 28.921 4.73 34.681 0z" stroke="#231f20" stroke-width="1.0017"/><path d="m736.51 247.55c-2.899 1.36 1.44 10.76-2.13 11.37-4.09-.7 2.16-12.86-3.86-11.42 2.351 8.32-5.609 5.19-10.27 5.71v8.56h7.7c2-6.02-7.13.31-5.141-5.71h7.71v5.71h5.99 6.86c-1.23-4.34 2.75-14.47-2.57-14.27-.78 3.42 1.61 10.35-1.28 11.42-2.899-1.07-.51-8-1.289-11.42-.75-.18-1.31-.15-1.72.05z" stroke="#231f20" stroke-width="1.0017"/><path d="m174.24 261.77c3.49 1.02-.92-6.73 2.57-5.71h6.42v5.71h12.85c0-2.85 0-5.71 0-8.56-2.57 0-5.14 0-7.71 0-1.99 6.02 7.14-.31 5.14 5.71-2.57 0-5.14 0-7.71 0 0-1.91 0-3.81 0-5.71-4.71 0-9.42 0-14.13 0 .78 2.94-2.07 9.91 2.57 8.56z" stroke="#231f20" stroke-width="1.0017"/><path d="m224.35 253.21c.77 2.94-2.08 9.91 2.56 8.56 3.49 1.02-.91-6.73 2.57-5.71h5.14v5.71h14.14c0-2.85 0-5.71 0-8.56-3 0-6 0-9 0-1.99 6.02 7.13-.31 5.14 5.71-2.14 0-4.28 0-6.42 0 0-1.91 0-3.81 0-5.71-4.71 0-9.42 0-14.13 0z" stroke="#231f20" stroke-width="1.0017"/><path d="m277.02 261.77c3.85-1.43 2.44-8.7 10.28-5.71v5.71h12.84c0-2.85 0-5.71 0-8.56-2.57 0-5.14 0-7.7 0-2 6.02 7.13-.31 5.13 5.71-2.57 0-5.13 0-7.7 0 0-1.91 0-3.81 0-5.71-4.29 0-8.57 0-12.85 0z" stroke="#231f20" stroke-width="1.0017"/><path d="m330.98 261.77c3.49 1.02-.92-6.73 2.57-5.71h5.14v5.71h14.13c0-2.85 0-5.71 0-8.56-3 0-6 0-9 0-1.99 6.02 7.14-.31 5.14 5.71-2.14 0-4.28 0-6.42 0 0-1.91 0-3.81 0-5.71-4.71 0-9.42 0-14.13 0 .78 2.94-2.08 9.91 2.57 8.56z" stroke="#231f20" stroke-width="1.0017"/><path d="m381.08 261.77c3.85-1.43 2.44-8.7 10.28-5.71v5.71h14.13c0-2.85 0-5.71 0-8.56-3 0-5.99 0-8.99 0-2 6.02 7.13-.31 5.14 5.71-2.57 0-5.14 0-7.71 0 0-1.91 0-3.81 0-5.71-4.29 0-8.57 0-12.85 0z" stroke="#231f20" stroke-width="1.0017"/><path d="m435.04 261.77c3.49 1.02-.92-6.73 2.57-5.71h6.42v5.71h12.85c0-2.85 0-5.71 0-8.56-2.57 0-5.14 0-7.71 0-1.99 6.02 7.13-.31 5.14 5.71-2.569 0-5.14 0-7.71 0 0-1.91 0-3.81 0-5.71-4.71 0-9.42 0-14.13 0 .78 2.94-2.07 9.91 2.57 8.56z" stroke="#231f20" stroke-width="1.0017"/><path d="m485.14 261.77c3.86-1.43 2.44-8.7 10.28-5.71v5.71h14.13c0-2.85 0-5.71 0-8.56-3 0-5.99 0-8.99 0-2 6.02 7.131-.31 5.141 5.71-2.141 0-4.28 0-6.431 0 0-1.91 0-3.81 0-5.71-4.71 0-9.42 0-14.13 0z" stroke="#231f20" stroke-width="1.0017"/><path d="m537.82 261.77c3.85-1.43 2.43-8.7 10.27-5.71v5.71h12.851c0-2.85 0-5.71 0-8.56-2.57 0-5.141 0-7.71 0-1.99 6.02 7.14-.31 5.14 5.71-2.57 0-5.14 0-7.71 0 0-1.91 0-3.81 0-5.71-4.28 0-8.561 0-12.84 0-.001 2.85-.001 5.71-.001 8.56z" stroke="#231f20" stroke-width="1.0017"/><path d="m591.77 261.77c3.49 1.02-.92-6.73 2.57-5.71h5.141v5.71h14.13c0-2.85 0-5.71 0-8.56-2.99 0-5.99 0-8.99 0-1.99 6.02 7.13-.31 5.14 5.71-2.14 0-4.279 0-6.42 0 0-1.91 0-3.81 0-5.71-4.71 0-9.42 0-14.14 0 .779 2.94-2.071 9.91 2.569 8.56z" stroke="#231f20" stroke-width="1.0017"/><path d="m641.88 261.77c3.851-1.43 2.44-8.7 10.28-5.71v5.71h12.84c0-2.85 0-5.71 0-8.56-2.57 0-5.14 0-7.71 0-1.99 6.02 7.14-.31 5.14 5.71-2.569 0-5.14 0-7.71 0 0-1.91 0-3.81 0-5.71-4.279 0-8.56 0-12.84 0z" stroke="#231f20" stroke-width="1.0017"/><path d="m695.84 261.77c3.48 1.02-.92-6.73 2.57-5.71h5.13v5.71h14.14c0-2.85 0-5.71 0-8.56-3 0-6 0-9 0-1.96 6.46 8.391-.75 6.431 5.71-2.57 0-5.141 0-7.71 0 0-1.91 0-3.81 0-5.71-4.71 0-9.42 0-14.131 0 .77 2.94-2.08 9.91 2.57 8.56z" stroke="#231f20" stroke-width="1.0017"/><path d="m736.51 511.4c-188.71 0-377.41 0-566.12 0 0-40.42 0-80.841 0-121.25 4.36 7.63 19.01-.03 28.26 0 54.8.2 110.93 2.85 168.3 2.85 28.87 0 59.76-2.74 89.93-2.85 4.47-.02 9.43 2.85 14.13 2.85 54.7 0 112.9-2.65 168.3-2.85 4.471-.02 9.431 2.85 14.131 2.85 20.52 0 42.43-2.77 64.239-2.85 5.96-.02 12.521 3.4 18.83 3.48 3.25.04 6.44-.81 9.431-3.48v121.25c-3.141 0-6.291 0-9.431 0z" stroke="#231f20" stroke-width="1.0017"/><path d="m172.96 398.71h33.4c-5.35-4.72-28.05-4.72-33.4 0z" stroke="#231f20" stroke-width="1.0017"/><path d="m198.65 401.56v8.56h7.71c1.99-6.02-7.13.31-5.14-5.71h7.71v5.71h12.85c-1.23-4.34 2.75-14.47-2.57-14.26-.79 3.41 1.61 10.34-1.29 11.41-2.9-1.07-.5-8-1.28-11.41-6.02-1.45.23 10.71-3.86 11.41-4.08-.7 2.16-12.86-3.85-11.41 2.35 8.31-5.61 5.18-10.28 5.7z" stroke="#231f20" stroke-width="1.0017"/><path d="m259.03 395.86c-11.56 0-23.12 0-34.68 0 5.76 4.72 28.92 4.72 34.68 0z" stroke="#231f20" stroke-width="1.0017"/><path d="m250.04 401.56v8.56h8.99c2-6.02-7.13.31-5.14-5.71h7.71v5.71h12.85c-1.23-4.34 2.75-14.47-2.57-14.26-.78 3.41 1.61 10.34-1.28 11.41-2.9-1.07-.51-8-1.29-11.41-6.01-1.45.23 10.71-3.85 11.41-4.09-.7 2.16-12.86-3.86-11.41 1.65 8.01-6.4 5.25-11.56 5.7z" stroke="#231f20" stroke-width="1.0017"/><path d="m277.02 398.71h33.4c-5.35-4.72-28.05-4.72-33.4 0z" stroke="#231f20" stroke-width="1.0017"/><path d="m302.71 401.56v8.56h7.71c2-6.02-7.13.31-5.14-5.71h7.71v5.71h14.13c-1.23-4.34 2.75-14.47-2.57-14.26-3.71.63 1.14 10.77-2.57 11.41-1.05-3.58 2.5-12.29-2.57-11.41-3.71.63 1.15 10.77-2.57 11.41 0-3.81 0-7.61 0-11.41-1.28 0-2.56 0-3.85 0 2.35 8.31-5.61 5.18-10.28 5.7z" stroke="#231f20" stroke-width="1.0017"/><path d="m363.09 395.86c-11.56 0-23.12 0-34.68 0 5.76 4.72 28.92 4.72 34.68 0z" stroke="#231f20" stroke-width="1.0017"/><path d="m355.39 401.56v8.56h7.7c2-6.02-7.13.31-5.13-5.71h7.7v5.71h12.85c-1.23-4.34 2.75-14.47-2.57-14.26-.78 3.41 1.61 10.34-1.28 11.41-2.9-1.07-.51-8-1.29-11.41-6.01-1.45.23 10.71-3.85 11.41-4.09-.7 2.16-12.86-3.86-11.41 2.36 8.31-5.61 5.18-10.27 5.7z" stroke="#231f20" stroke-width="1.0017"/><path d="m415.77 395.86c-11.56 0-23.13 0-34.69 0 5.77 4.72 28.92 4.72 34.69 0z" stroke="#231f20" stroke-width="1.0017"/><path d="m406.77 401.56v8.56h9c1.99-6.02-7.14.31-5.14-5.71h6.42v5.71h14.13c-1.229-4.34 2.75-14.47-2.56-14.26-3.72.63 1.14 10.77-2.57 11.41-1.06-3.58 2.49-12.29-2.57-11.41-3.71.63 1.14 10.77-2.57 11.41 0-3.81 0-7.61 0-11.41-1.29 0-2.57 0-3.86 0 2.35 8.31-5.61 5.18-10.28 5.7z" stroke="#231f20" stroke-width="1.0017"/><path d="m467.16 395.86c-11.57 0-23.13 0-34.69 0 5.77 4.72 28.92 4.72 34.69 0z" stroke="#231f20" stroke-width="1.0017"/><path d="m459.45 401.56v8.56h7.71c1.99-6.02-7.141.31-5.141-5.71h7.711v5.71h12.84c-1.23-4.34 2.75-14.47-2.57-14.26-.78 3.41 1.62 10.34-1.28 11.41-2.899-1.07-.5-8-1.29-11.41-6.01-1.45.23 10.71-3.85 11.41-4.08-.7 2.16-12.86-3.85-11.41 2.35 8.31-5.62 5.18-10.28 5.7z" stroke="#231f20" stroke-width="1.0017"/><path d="m519.83 395.86c-11.561 0-23.12 0-34.69 0 5.77 4.72 28.92 4.72 34.69 0z" stroke="#231f20" stroke-width="1.0017"/><path d="m510.84 401.56v8.56h8.99c1.99-6.02-7.13.31-5.14-5.71h6.43v5.71h14.13c-1.24-4.34 2.75-14.47-2.57-14.26-.79 3.41 1.61 10.34-1.29 11.41-2.89-1.07-.5-8-1.279-11.41-6.011-.97.569 12.04-5.141 11.41 0-3.81 0-7.61 0-11.41-1.29 0-2.569 0-3.85 0 2.35 8.31-5.62 5.18-10.28 5.7z" stroke="#231f20" stroke-width="1.0017"/><path d="m537.82 398.71h33.399c-5.349-4.72-28.049-4.72-33.399 0z" stroke="#231f20" stroke-width="1.0017"/><path d="m563.51 401.56v8.56h7.71c1.99-6.02-7.14.31-5.14-5.71h7.71v5.71h14.13c-1.229-4.34 2.75-14.47-2.57-14.26-3.71.63 1.141 10.77-2.569 11.41-3.431-1.42 1.7-12.36-3.851-11.41-.79 3.41 1.61 10.34-1.29 11.41-4.08-.7 2.16-12.86-3.85-11.41 2.35 8.31-5.61 5.18-10.28 5.7z" stroke="#231f20" stroke-width="1.0017"/><path d="m623.89 395.86c-11.56 0-23.12 0-34.689 0 5.769 4.72 28.919 4.72 34.689 0z" stroke="#231f20" stroke-width="1.0017"/><path d="m614.9 401.56v7.13c1.649 1.97 5.58 1.41 8.989 1.43 2-6.02-7.13.31-5.14-5.71h7.71v5.71h12.85c-1.229-4.34 2.75-14.47-2.569-14.26-.78 3.41 1.609 10.34-1.29 11.41-2.891-1.07-.5-8-1.28-11.41-6.02-1.45.23 10.71-3.85 11.41-4.09-.7 2.16-12.86-3.86-11.41 1.65 8.01-6.4 5.25-11.56 5.7z" stroke="#231f20" stroke-width="1.0017"/><path d="m676.57 395.86c-11.57 0-23.13 0-34.69 0 5.77 4.72 28.92 4.72 34.69 0z" stroke="#231f20" stroke-width="1.0017"/><path d="m667.57 401.56v8.56h9c1.239-5.67-7.19-.59-6.431-5.71h7.71v5.71h14.131c-1.23-4.34 2.75-14.47-2.57-14.26-3.71.63 1.14 10.77-2.57 11.41-1.05-3.58 2.5-12.29-2.57-11.41-3.71.63 1.141 10.77-2.56 11.41 0-3.81 0-7.61 0-11.41-1.29 0-2.58 0-3.86 0 2.35 8.31-5.61 5.18-10.28 5.7z" stroke="#231f20" stroke-width="1.0017"/><path d="m727.95 395.86c-11.561 0-23.12 0-34.681 0 5.761 4.72 28.921 4.72 34.681 0z" stroke="#231f20" stroke-width="1.0017"/><path d="m736.51 395.91c-2.89 1.36 1.44 10.75-2.13 11.36-4.09-.7 2.16-12.86-3.86-11.41 2.351 8.31-5.609 5.18-10.27 5.7v8.56h7.7c2-6.02-7.13.31-5.141-5.71h7.71v5.71h5.99 6.86c-1.23-4.34 2.75-14.47-2.57-14.26-.78 3.41 1.61 10.34-1.28 11.41-2.899-1.07-.51-8-1.289-11.41-.75-.18-1.31-.15-1.72.05z" stroke="#231f20" stroke-width="1.0017"/><path d="m172.96 410.12c3.85-1.43 2.44-8.7 10.27-5.71v5.71h12.85c0-2.85 0-5.71 0-8.56-2.57 0-5.14 0-7.71 0-1.99 6.02 7.14-.31 5.14 5.71-2.57 0-5.14 0-7.71 0 0-1.9 0-3.81 0-5.71-4.28 0-8.56 0-12.84 0z" stroke="#231f20" stroke-width="1.0017"/><path d="m226.91 410.12c3.49 1.02-.91-6.73 2.57-5.71h5.14v5.71h14.14c0-2.85 0-5.71 0-8.56-3 0-6 0-9 0-1.99 6.02 7.13-.31 5.14 5.71-2.14 0-4.28 0-6.42 0 0-1.9 0-3.81 0-5.71-4.71 0-9.42 0-14.13 0 .77 2.94-2.08 9.91 2.56 8.56z" stroke="#231f20" stroke-width="1.0017"/><path d="m277.02 410.12c3.85-1.43 2.44-8.7 10.28-5.71v5.71h12.84c0-2.85 0-5.71 0-8.56-2.57 0-5.14 0-7.7 0-2 6.02 7.13-.31 5.13 5.71-2.57 0-5.13 0-7.7 0 0-1.9 0-3.81 0-5.71-4.29 0-8.57 0-12.85 0z" stroke="#231f20" stroke-width="1.0017"/><path d="m330.98 410.12c3.49 1.02-.92-6.73 2.57-5.71h5.14v5.71h14.13c0-2.85 0-5.71 0-8.56-3 0-6 0-9 0-1.98 6 6.65.23 6.43 4.28-1.52 1.64-4.54 1.62-7.71 1.43 0-1.9 0-3.81 0-5.71-4.71 0-9.42 0-14.13 0 .78 2.94-2.08 9.91 2.57 8.56z" stroke="#231f20" stroke-width="1.0017"/><path d="m381.08 410.12c3.85-1.43 2.44-8.7 10.28-5.71v5.71c4.72-.46 11.37 1.22 14.13-1.43 0-2.37 0-4.75 0-7.13-3 0-5.99 0-8.99 0-2 6.02 7.13-.31 5.14 5.71-2.57 0-5.14 0-7.71 0 0-1.9 0-3.81 0-5.71-4.29 0-8.57 0-12.85 0z" stroke="#231f20" stroke-width="1.0017"/><path d="m435.04 410.12c3.49 1.02-.92-6.73 2.57-5.71h6.42v5.71h12.85c0-2.85 0-5.71 0-8.56-2.57 0-5.14 0-7.71 0-1.99 6.02 7.13-.31 5.14 5.71-2.569 0-5.14 0-7.71 0 0-1.9 0-3.81 0-5.71-4.71 0-9.42 0-14.13 0 .78 2.94-2.07 9.91 2.57 8.56z" stroke="#231f20" stroke-width="1.0017"/><path d="m485.14 410.12c3.86-1.43 2.44-8.7 10.28-5.71v5.71h14.13c0-2.85 0-5.71 0-8.56-3 0-5.99 0-8.99 0-2 6.02 7.131-.31 5.141 5.71-2.141 0-4.28 0-6.431 0 0-1.9 0-3.81 0-5.71-4.71 0-9.42 0-14.13 0z" stroke="#231f20" stroke-width="1.0017"/><path d="m537.82 410.12c3.85-1.43 2.43-8.7 10.27-5.71v5.71h12.851c0-2.85 0-5.71 0-8.56-2.57 0-5.141 0-7.71 0-1.99 6.02 7.14-.31 5.14 5.71-2.57 0-5.14 0-7.71 0 0-1.9 0-3.81 0-5.71-4.28 0-8.561 0-12.84 0-.001 2.85-.001 5.71-.001 8.56z" stroke="#231f20" stroke-width="1.0017"/><path d="m591.77 410.12c3.49 1.02-.92-6.73 2.57-5.71h5.141v5.71h14.13c0-2.85 0-5.71 0-8.56-2.99 0-5.99 0-8.99 0-1.99 6.02 7.13-.31 5.14 5.71-2.14 0-4.279 0-6.42 0 0-1.9 0-3.81 0-5.71-4.71 0-9.42 0-14.14 0 .779 2.94-2.071 9.91 2.569 8.56z" stroke="#231f20" stroke-width="1.0017"/><path d="m641.88 410.12c3.851-1.43 2.44-8.7 10.28-5.71v5.71h12.84c0-2.85 0-5.71 0-8.56-2.57 0-5.14 0-7.71 0-1.99 6.02 7.14-.31 5.14 5.71-2.569 0-5.14 0-7.71 0 0-1.9 0-3.81 0-5.71-4.279 0-8.56 0-12.84 0z" stroke="#231f20" stroke-width="1.0017"/><path d="m695.84 410.12c3.48 1.02-.92-6.73 2.57-5.71h5.13c-.09 2.49.29 4.44 1.29 5.71h12.85c0-2.85 0-5.71 0-8.56-2.569 0-5.14 0-7.71 0-2 6.02 7.13-.31 5.141 5.71-2.57 0-5.141 0-7.71 0 0-1.9 0-3.81 0-5.71-4.71 0-9.42 0-14.131 0 .77 2.94-2.08 9.91 2.57 8.56z" stroke="#231f20" stroke-width="1.0017"/><path clip-rule="evenodd" d="m.25.25h850.394v850.394h-850.394z"/></g></svg>