<svg enable-background="new 0 0 850.394 850.394" height="850.394" viewBox="0 0 850.394 850.394" width="850.394" xmlns="http://www.w3.org/2000/svg"><path d="m162.61 519.08v266.3h-39.49l-1.12-670.61c5.8 2.59 12.62 4.08 19.92 4.08 7.62 0 14.73-1.63 20.69-4.43v28.5c-.95 0-1.9 0-2.85 0-1.32.24-1.23 2.28-1.13 4.34v371.82z" fill="#c8c8c8"/><path d="m748.18 140.34v37.12l-1.79 1.01c0-11.85 0-23.7 0-35.55-193.76 0-387.53 0-581.3 0l-.02-2.58z" fill="#fff"/><path d="m626.79 144.36c-159.07 82.99-270.13 226.94-410.07 334.21h470.44c-32.061-30.91-64.68-78.061-79.74-140.34-15.65-64.74-9.76-149.5 20.51-193.87 34.261.09 78.15-.06 116.181 0 .26 11.62.47 23.3.64 35.03 1.61 109.95-.19 224.22.5 335.35-11.99 1.92-20.3-14.17-33.03-17.36-17.63-4.42-43.14 0-66.069 0-130.101 0-257.97 0-389.561 0-32.84 0-60.31-4.939-80.86 8.67-.22.2-3.86 2.95-7.25 5.48l-3.37-367.17h347.77c39.939 0 80.009.24 113.909 0zm-287.81 82.98c-4.54 0-9.08 0-13.61 0-1.34-4.21-1.89-9.21-4.54-12.1-2.76 3.29-1.46 10.65-6.05 12.1-3.62.92-10.98-1.9-12.1 1.51 4.69 1.86 9.78 3.33 10.59 9.08-.56 2.61-4.58 9.35-1.52 10.58 2.9-3.15 5.8-6.3 10.59-7.56 2.07 3.47 6.23 4.87 9.08 7.56.46-6.01-3.5-7.59-3.03-13.61 4.39-1.66 7.27-4.83 10.59-7.56zm-49.92 116.47c-5.54 0-11.09 0-16.63 0-2.69-4.37-2.73-11.4-6.05-15.13-2.69 4.37-2.73 11.39-6.05 15.13-4.6.94-13.03-1.94-15.13 1.51 4.45 3.11 10.56 4.57 12.1 10.58-.73 3.9-6.1 10.93-3.02 13.62 4.48-3.08 7.89-7.24 13.61-9.08 3.19 3.86 7.43 6.69 12.1 9.08-.2-6.86-3.7-10.42-4.54-16.64 6.09-1.47 9.26-5.87 13.61-9.07zm-3.02-164.87c-5.04 0-10.08 0-15.13 0-.58-5.47-2.01-10.09-4.53-13.61-2.66 3.89-2.19 10.92-6.05 13.61-4.11.94-12.01-1.92-13.62 1.51 3.79 3.27 9.35 4.77 12.1 9.08-.72 3.89-6.09 10.92-3.02 13.61 3.46-3.09 5.72-7.39 12.1-7.56 3.92 2.13 6.98 5.11 10.59 7.56.47-6.01-3.5-7.6-3.03-13.61 2.01-5.05 8.85-5.27 10.59-10.59zm-63.53 65.04c-4.53 0-9.07 0-13.61 0-2.69-4.37-2.72-11.4-6.05-15.13-1.81 5.25-2.37 11.75-6.05 15.13-3.62.92-10.97-1.9-12.1 1.51 4.39 1.66 7.27 4.83 10.59 7.56-.73 3.9-6.1 10.93-3.03 13.61 3.71-2.84 6.85-6.25 12.1-7.56 3.61 2.45 6.67 5.43 10.59 7.56.47-6.01-3.49-7.59-3.02-13.61 2.49-4.05 7.67-5.43 10.58-9.07z" fill="#394ea1"/><path d="m704.25 517.63c-177.72 0-349.95 0-529.15 0 8.77-.31 19.37-1.45 23.39-1.45h508.029c7.271 0 34.101 1.551 34.181 1.45-1.94 2.46-26.93 0-36.45 0z" fill="#fff"/><path d="m325.37 227.34h13.61c-3.32 2.73-6.2 5.9-10.59 7.56-.47 6.02 3.49 7.6 3.03 13.61-2.85-2.69-7.01-4.09-9.08-7.56-4.79 1.26-7.69 4.41-10.59 7.56-3.06-1.23.96-7.97 1.52-10.58-.81-5.75-5.9-7.22-10.59-9.08 1.12-3.41 8.48-.59 12.1-1.51 4.59-1.45 3.29-8.81 6.05-12.1 2.65 2.89 3.2 7.89 4.54 12.1z" fill="#fff"/><path d="m512.88 144.36c-114.89 0-236.89 0-347.77 0l-.02-1.44h581.3v35.55l-1.63.92h-.01c-.17-11.73-.38-23.41-.64-35.03-38.03-.06-81.92.09-116.181 0-30.27 44.37-36.16 129.13-20.51 193.87 15.061 62.28 47.68 109.43 79.74 140.34-156.811 0-313.63 0-470.44 0 139.94-107.271 251-251.22 410.07-334.21-33.899.24-73.969 0-113.909 0z" fill="#fbed24"/><path d="m272.43 343.81h16.63c-4.35 3.2-7.52 7.6-13.61 9.07.84 6.22 4.34 9.78 4.54 16.64-4.67-2.39-8.91-5.22-12.1-9.08-5.72 1.84-9.13 6-13.61 9.08-3.08-2.69 2.29-9.72 3.02-13.62-1.54-6.01-7.65-7.47-12.1-10.58 2.1-3.45 10.53-.57 15.13-1.51 3.32-3.74 3.36-10.76 6.05-15.13 3.32 3.73 3.36 10.76 6.05 15.13z" fill="#fff"/><path d="m270.91 178.94h15.13c-1.74 5.32-8.58 5.54-10.59 10.59-.47 6.01 3.5 7.6 3.03 13.61-3.61-2.45-6.67-5.43-10.59-7.56-6.38.17-8.64 4.47-12.1 7.56-3.07-2.69 2.3-9.72 3.02-13.61-2.75-4.31-8.31-5.81-12.1-9.08 1.61-3.43 9.51-.57 13.62-1.51 3.86-2.69 3.39-9.72 6.05-13.61 2.52 3.52 3.95 8.14 4.53 13.61z" fill="#fff"/><path d="m208.9 243.98h13.61c-2.91 3.64-8.09 5.02-10.58 9.07-.47 6.02 3.49 7.6 3.02 13.61-3.92-2.13-6.98-5.11-10.59-7.56-5.25 1.31-8.39 4.72-12.1 7.56-3.07-2.68 2.3-9.71 3.03-13.61-3.32-2.73-6.2-5.9-10.59-7.56 1.13-3.41 8.48-.59 12.1-1.51 3.68-3.38 4.24-9.88 6.05-15.13 3.33 3.73 3.36 10.76 6.05 15.13z" fill="#fff"/><path d="m168.54 517.63h6.56c-2.37.09-4.62.11-6.56.03z" fill="#fff"/><path d="m162.61 114.42c-5.96 2.8-13.07 4.43-20.69 4.43-7.3 0-14.12-1.49-19.92-4.08-10.99-4.89-18.33-13.72-18.33-23.8 0-15.4 17.13-27.88 38.25-27.88 21.13 0 38.26 12.48 38.26 27.88 0 9.84-7 18.49-17.57 23.45z" fill="#c8c8c8"/><path d="m168.54 517.66c1.94.08 4.19.06 6.56-.03h529.15c9.52 0 34.51 2.46 36.45 0-.08.101-26.91-1.45-34.181-1.45-173.819 0-337.779 0-508.029 0-4.02 0-14.62 1.141-23.39 1.45-2.19 0-4.37 0-6.56 0l-.06-6.1c3.39-2.53 7.03-5.28 7.25-5.48 20.55-13.609 48.02-8.67 80.86-8.67h389.561c22.93 0 48.439-4.42 66.069 0 12.73 3.19 21.04 19.28 33.03 17.36-.69-111.13 1.11-225.4-.5-335.35h.01l1.63-.92v340.61c-192.609 0-385.229 0-577.84 0z" fill="#fbed24"/><path d="m168.55 519.08h577.84c0-113.54 0-227.08 0-340.61l1.79-1.01v342.71h-579.62z" fill="#fff"/><path d="m168.54 517.66.01 1.42c-1.98 0-3.96 0-5.94 0v-1.45h5.29c.21.01.42.02.64.03z" fill="#fff"/><path d="m168.48 511.53.06 6.1c-.21 0-.43 0-.64 0-2.41-.13-4.29-.43-5.29-.99v-.819c1.06-.731 3.43-2.481 5.87-4.291z" fill="#fff"/><path d="m165.09 142.92.02 1.44c-.83 0-1.67 0-2.5 0v-1.44z" fill="#fff"/><path d="m162.61 515.82v.819c-.25-.14-.44-.29-.57-.46.04.001.24-.129.57-.359z" fill="#fff"/><path d="m162.61 142.92v1.44c-.57 0-1.14 0-1.71 0-1.92 113.41-1.83 265.45 0 373.27h1.71v1.45c-1.33 0-2.65 0-3.98 0 0-123.94 0-247.88 0-371.82-.1-2.06-.19-4.1 1.13-4.34z" fill="#fff"/><g fill="none"><path d="m165.07 140.34h583.11v37.12 342.71h-579.62" stroke="#231f20" stroke-width="21"/><path d="m122 114.77c-10.99-4.89-18.33-13.72-18.33-23.8 0-15.4 17.13-27.88 38.25-27.88 21.13 0 38.26 12.48 38.26 27.88 0 9.84-7 18.49-17.57 23.45-5.96 2.8-13.07 4.43-20.69 4.43-7.3 0-14.12-1.49-19.92-4.08z" stroke="#231f20" stroke-width="21"/><path d="m122 114v.77l1.12 670.61" stroke="#231f20" stroke-width="21"/><path d="m162.61 519.08v266.3" stroke="#231f20" stroke-width="21"/><path d="m162.61 516.64v.99" stroke="#231f20" stroke-width="21"/><path d="m162.61 144.36v371.46" stroke="#231f20" stroke-width="21"/><path d="m162.61 112.6v1.82 28.5" stroke="#231f20" stroke-width="21"/><path d="m746.39 178.47 1.79-1.01 2.01-1.14" stroke="#231f20" stroke-width="14"/><path d="m162.61 519.08c-1.33 0-2.65 0-3.98 0 0-123.94 0-247.88 0-371.82-.1-2.06-.19-4.1 1.13-4.34h2.85 2.48 581.3v35.55 340.61c-192.609 0-385.229 0-577.84 0-1.98 0-3.96 0-5.94 0z" stroke="#231f20" stroke-width="7"/><path d="m175.1 517.63c-2.37.09-4.62.11-6.56.03-.22-.01-.43-.021-.64-.03-2.41-.13-4.29-.43-5.29-.99-.25-.14-.44-.29-.57-.46.04 0 .24-.13.57-.359 1.06-.73 3.43-2.48 5.87-4.29 3.39-2.53 7.03-5.28 7.25-5.48 20.55-13.609 48.02-8.67 80.86-8.67h389.561c22.93 0 48.439-4.42 66.069 0 12.73 3.19 21.04 19.28 33.03 17.36-.69-111.13 1.11-225.4-.5-335.35-.17-11.73-.38-23.41-.64-35.03-38.03-.06-81.92.09-116.181 0-30.27 44.37-36.16 129.13-20.51 193.87 15.061 62.28 47.68 109.43 79.74 140.34-156.811 0-313.63 0-470.44 0 139.94-107.271 251-251.22 410.07-334.21-33.9.24-73.97 0-113.91 0-114.89 0-236.89 0-347.77 0-.83 0-1.67 0-2.5 0-.57 0-1.14 0-1.71 0-1.92 113.41-1.83 265.45 0 373.27h1.71 5.29.64c2.191-.001 4.371-.001 6.561-.001" stroke="#231f20" stroke-width="7"/><path d="m175.1 517.63h529.15c9.52 0 34.51 2.46 36.45 0-.08.101-26.91-1.45-34.181-1.45-173.819 0-337.779 0-508.029 0-4.02 0-14.62 1.14-23.39 1.45z" stroke="#231f20" stroke-width="7"/><path d="m266.38 165.33c2.52 3.52 3.95 8.14 4.53 13.61h15.13c-1.74 5.32-8.58 5.54-10.59 10.59-.47 6.01 3.5 7.6 3.03 13.61-3.61-2.45-6.67-5.43-10.59-7.56-6.38.17-8.64 4.47-12.1 7.56-3.07-2.69 2.3-9.72 3.02-13.61-2.75-4.31-8.31-5.81-12.1-9.08 1.61-3.43 9.51-.57 13.62-1.51 3.86-2.69 3.39-9.72 6.05-13.61z" stroke="#231f20" stroke-width="4"/><path d="m320.83 215.24c2.65 2.89 3.2 7.89 4.54 12.1h13.61c-3.32 2.73-6.2 5.9-10.59 7.56-.47 6.02 3.49 7.6 3.03 13.61-2.85-2.69-7.01-4.09-9.08-7.56-4.79 1.26-7.69 4.41-10.59 7.56-3.06-1.23.96-7.97 1.52-10.58-.81-5.75-5.9-7.22-10.59-9.08 1.12-3.41 8.48-.59 12.1-1.51 4.59-1.45 3.29-8.81 6.05-12.1z" stroke="#231f20" stroke-width="4"/><path d="m202.85 228.85c3.33 3.73 3.36 10.76 6.05 15.13h13.61c-2.91 3.64-8.09 5.02-10.58 9.07-.47 6.02 3.49 7.6 3.02 13.61-3.92-2.13-6.98-5.11-10.59-7.56-5.25 1.31-8.39 4.72-12.1 7.56-3.07-2.68 2.3-9.71 3.03-13.61-3.32-2.73-6.2-5.9-10.59-7.56 1.13-3.41 8.48-.59 12.1-1.51 3.68-3.38 4.24-9.88 6.05-15.13z" stroke="#231f20" stroke-width="4"/><path d="m266.38 328.68c3.32 3.73 3.36 10.76 6.05 15.13h16.63c-4.35 3.2-7.52 7.6-13.61 9.07.84 6.22 4.34 9.78 4.54 16.64-4.67-2.39-8.91-5.22-12.1-9.08-5.72 1.84-9.13 6-13.61 9.08-3.08-2.69 2.29-9.72 3.02-13.62-1.54-6.01-7.65-7.47-12.1-10.58 2.1-3.45 10.53-.57 15.13-1.51 3.32-3.74 3.36-10.76 6.05-15.13z" stroke="#231f20" stroke-width="4"/><path clip-rule="evenodd" d="m0 0h850.394v850.394h-850.394z"/></g></svg>