<svg enable-background="new 0 0 850.394 850.394" height="850.394" viewBox="0 0 850.394 850.394" width="850.394" xmlns="http://www.w3.org/2000/svg"><path d="m748.18 266v136h-2.18l-427.54-2 75.54-58-85-74.87 1-1.13h438zm-217.06 71.6 14.88-14.51-20.56-2.98-9.2-18.64-9.19 18.64-20.56 2.98 14.88 14.51-3.521 20.47 18.391-9.66 18.39 9.66zm-51.12 42.4c6.74 0-50-44 6-98-93.75 46.88-34 88-6 98z" fill="#fff"/><path d="m318.46 400-148.46 114-1.5.01-3.43-373.67 143.93 126.79 85 74.87z" fill="#ed1e29"/><path d="m170 514 148.46-114 427.54 2h2.18v118.17h-579.62l-.06-6.16z" fill="#58b947"/><path d="m748.18 140.34v125.66h-.18-438l-1 1.13-143.93-126.79z" fill="#231f20"/><path d="m162.61 114.42v670.96h-39.49l-1.12-670.61c5.8 2.59 12.62 4.08 19.92 4.08 7.62 0 14.73-1.63 20.69-4.43z" fill="#c8c8c8"/><path d="m546 323.09-14.88 14.51 3.51 20.47-18.39-9.66-18.39 9.66 3.52-20.47-14.88-14.51 20.56-2.98 9.19-18.64 9.2 18.64z" fill="#ed1e29"/><path d="m486 282c-56 54 .74 98-6 98-28-10-87.75-51.12 6-98z" fill="#ed1e29"/><path d="m162.61 114.42c-5.96 2.8-13.07 4.43-20.69 4.43-7.3 0-14.12-1.49-19.92-4.08-10.99-4.89-18.33-13.72-18.33-23.8 0-15.4 17.13-27.88 38.25-27.88 21.13 0 38.26 12.48 38.26 27.88 0 9.84-7 18.49-17.57 23.45z" fill="#c8c8c8"/><g fill="none"><path d="m165.07 140.34h583.11v125.66 136 118.17h-579.62" stroke="#231f20" stroke-width="21"/><path d="m122 114.77c-10.99-4.89-18.33-13.72-18.33-23.8 0-15.4 17.13-27.88 38.25-27.88 21.13 0 38.26 12.48 38.26 27.88 0 9.84-7 18.49-17.57 23.45-5.96 2.8-13.07 4.43-20.69 4.43-7.3 0-14.12-1.49-19.92-4.08z" stroke="#231f20" stroke-width="21"/><path d="m122 114v.77l1.12 670.61" stroke="#231f20" stroke-width="21"/><path d="m162.61 112.6v1.82 670.96" stroke="#231f20" stroke-width="21"/><path d="m394 342-85-74.87-143.93-126.79" stroke="#231f20" stroke-width="14"/><path d="m394 342-75.54 58-148.46 114" stroke="#231f20" stroke-width="14"/><path d="m310 266h438" stroke="#231f20" stroke-width="14"/><path d="m318 400h.46l427.54 2" stroke="#231f20" stroke-width="14"/><path d="m516.24 348.41-18.39 9.66 3.52-20.47-14.88-14.51 20.56-2.98 9.19-18.64 9.2 18.64 20.56 2.98-14.88 14.51 3.51 20.47z" stroke="#231f20" stroke-width="4.3803"/><path d="m486 282c-93.75 46.88-34 88-6 98" stroke="#231f20" stroke-width="4.3803"/><path d="m486 282c-56 54 .74 98-6 98" stroke="#231f20" stroke-width="4.3803"/><path d="m0 0h850.394v850.394h-850.394z"/></g></svg>