<svg enable-background="new 0 0 850.394 850.394" height="850.394" viewBox="0 0 850.394 850.394" width="850.394" xmlns="http://www.w3.org/2000/svg"><path d="m408.75 306.61s-2.76 5.79-5.6 11.39c-2.66 5.26-5.4 10.37-5.99 10.37-1.22 0-5.49-12.2-5.49-12.2l-1.2-1.61 15.03-11.2.58-.67c.57 1.33 1.51 2.46 2.69 3.26z" fill="#fff"/><path d="m499.13 303.25 15.03 11.2-1.2 1.61s-4.28 12.2-5.5 12.2c-.58 0-3.32-5.11-5.979-10.37-2.841-5.6-5.601-11.38-5.601-11.38l-.63-.29c1.26-.68 2.3-1.73 2.99-2.99z" fill="#fff"/><path d="m502.38 379.1-6.1.4-7.521-25.01-3.46 23.39-6.3.2-.81-15.66h-.11v-31.11h.51l19.32.41.609.81c.402.61 3.862 46.57 3.862 46.57z" fill="#fff"/><path d="m426.44 331.42v31.1l-.811 15.66-6.31-.2-3.45-23.38-7.53 25-6.1-.4s3.46-45.95 3.87-46.56l.61-.82 19.31-.4z" fill="#fff"/><path d="m426.44 329.16v2.26h-.41l-19.31.4-2.65-13.62-.92-.2c2.84-5.6 5.6-11.39 5.6-11.39l.02-.66c1.18.8 2.61 1.27 4.15 1.27l3.35 1.22s9.71 3.03 9.15 14.03c-.2 4.07 10.17 5.69 10.17 5.69v.98z" fill="#ffeec8"/><path d="m412.92 307.22c-1.54 0-2.97-.47-4.15-1.27s-2.12-1.93-2.69-3.26c-.37-.89-.58-1.87-.58-2.89 0-4.1 3.32-7.42 7.42-7.42s7.42 3.32 7.42 7.42-3.32 7.42-7.42 7.42z" fill="#ffeec8"/><path d="m495.88 306.51s2.76 5.78 5.601 11.38l-.931.21-2.64 13.62-19.32-.41h-.51v-2.25l-9.04.02v-1.02s10.37-1.63 10.16-5.69c-.55-11 9.149-14.03 9.149-14.03l.471-1.8c.89.37 1.859.58 2.89.58 1.28 0 2.49-.32 3.54-.9z" fill="#9c5c25"/><path d="m499.13 299.7c0 1.28-.32 2.48-.89 3.53-.69 1.26-1.73 2.31-2.99 2.99-1.05.58-2.26.9-3.54.9-1.03 0-2-.21-2.89-.58-2.66-1.13-4.53-3.77-4.53-6.84 0-4.1 3.32-7.42 7.42-7.42s7.42 3.32 7.42 7.42z" fill="#9c5c25"/><path d="m453.08 329.11v24.06l-22.98 16.67-1.83.49c-1.5-4.03-1.829-7-1.829-7v-.81-31.1-2.26l9.149-.02 13.42-.02z" fill="#fff"/><path d="m478.08 362.42v.81s-.37 3.31-2.09 7.69l-1.771-.67-21.14-17.08v-24.06l2.03-.01 13.93-.02 9.04-.02v2.25 31.11z" fill="#fbed24"/><path d="m474.22 370.25 1.771.67c-1.75 4.46-4.9 10.03-10.45 14.32-5.05 3.9-13.23 4.73-13.23 4.73s-8.279-.74-13.319-4.63c-5.851-4.51-9.03-10.44-10.721-15.01l1.83-.49 22.98-16.67z" fill="#a8d7f4"/><path d="m455.11 327.96v1.14l-2.03.01-4.07.01v-.96l-8.34-23.18-.04-.46c4.29-.35 7.57-2.19 7.57-4.42 0-1.28-1.09-2.44-2.84-3.25l.189-.41-1.01-11.38-.09-.39c1.56-.34 2.88-.89 3.83-1.58l5.81 1.04c-.27.42-.41.87-.41 1.33 0 1.64 1.771 3.07 4.41 3.84l-.13.43-.82 12.61.07.29c-2.94.73-4.95 2.24-4.95 3.98 0 2.19 3.19 4.01 7.391 4.39l-.07.9z" fill="#fff"/><path d="m448.2 300.1c0 2.23-3.28 4.07-7.57 4.42-.479.04-.979.06-1.479.06-5 0-9.051-2-9.051-4.48 0-2.47 4.051-4.47 9.051-4.47 2.399 0 4.59.46 6.21 1.22 1.749.81 2.839 1.97 2.839 3.25z" fill="#58b947"/><path d="m449.82 280.58c0 .93-.57 1.79-1.54 2.51-.95.69-2.271 1.24-3.83 1.58-1.12.25-2.37.39-3.681.39-4.989 0-9.039-2-9.039-4.48 0-2.47 4.05-4.47 9.039-4.47 5.001 0 9.051 2 9.051 4.47z" fill="#58b947"/><path d="m461.31 302.14c4.99 0 9.051 2 9.051 4.47s-4.061 4.47-9.051 4.47c-.569 0-1.119-.03-1.659-.08-4.2-.38-7.391-2.2-7.391-4.39 0-1.74 2.01-3.25 4.95-3.98 1.23-.31 2.63-.49 4.1-.49z" fill="#58b947"/><path d="m462.73 280.99c5 0 9.05 2 9.05 4.47 0 2.48-4.05 4.48-9.05 4.48-1.69 0-3.28-.23-4.641-.64-2.64-.77-4.41-2.2-4.41-3.84 0-.46.141-.91.41-1.33 1.151-1.82 4.591-3.14 8.641-3.14z" fill="#58b947"/><path d="m390.47 314.56 1.2 1.61s4.27 12.2 5.49 12.2c.59 0 3.33-5.11 5.99-10.37l.92.2 2.65 13.62-.61.82c-.41.61-3.87 46.56-3.87 46.56l6.1.4 7.53-25 3.45 23.38 6.31.2.811-15.66v.81s.329 2.97 1.829 7c1.69 4.57 4.87 10.5 10.721 15.01 5.04 3.89 13.319 4.63 13.319 4.63s8.181-.83 13.23-4.73c5.55-4.29 8.7-9.86 10.45-14.32 1.72-4.38 2.09-7.69 2.09-7.69v-.81h.11l.81 15.66 6.3-.2 3.46-23.39 7.521 25.01 6.1-.4s-3.46-45.96-3.86-46.57l-.609-.81 2.64-13.62.931-.21c2.659 5.26 5.399 10.37 5.979 10.37 1.22 0 5.5-12.2 5.5-12.2l1.2-1.61-15.03-11.2-.89-.02c.569-1.05.89-2.25.89-3.53 0-4.1-3.32-7.42-7.42-7.42s-7.42 3.32-7.42 7.42c0 3.07 1.87 5.71 4.53 6.84l-.471 1.8s-9.699 3.03-9.149 14.03c.21 4.06-10.16 5.69-10.16 5.69v1.02l-13.93.02v-1.14l4.47-16.06.07-.9c.54.05 1.09.08 1.659.08 4.99 0 9.051-2 9.051-4.47s-4.061-4.47-9.051-4.47c-1.47 0-2.869.18-4.1.49l-.07-.29.82-12.61.13-.43c1.36.41 2.95.64 4.641.64 5 0 9.05-2 9.05-4.48 0-2.47-4.05-4.47-9.05-4.47-4.051 0-7.49 1.32-8.641 3.14l-5.81-1.04c.97-.72 1.54-1.58 1.54-2.51 0-2.47-4.051-4.47-9.051-4.47-4.989 0-9.039 2-9.039 4.47 0 2.48 4.05 4.48 9.039 4.48 1.311 0 2.561-.14 3.681-.39l.09.39 1.01 11.38-.189.41c-1.62-.76-3.811-1.22-6.21-1.22-5 0-9.051 2-9.051 4.47 0 2.48 4.051 4.48 9.051 4.48.5 0 1-.02 1.479-.06l.04.46 8.34 23.18v.96l-13.42.02v-.98s-10.37-1.62-10.17-5.69c.56-11-9.15-14.03-9.15-14.03l-3.35-1.22c4.1 0 7.42-3.32 7.42-7.42s-3.32-7.42-7.42-7.42-7.42 3.32-7.42 7.42c0 1.02.21 2 .58 2.89l-.58.67zm6.02-39.36c5.36-4.98 11.36-9.25 17.85-12.67 5.81-3.05 12.021-5.42 18.53-6.99 6.1-1.48 12.46-2.26 19-2.26.34 0 .68 0 1.01.01 5.76.07 11.37.74 16.78 1.97 6.64 1.5 12.99 3.82 18.92 6.85 6.51 3.33 12.53 7.51 17.93 12.41 5.01 4.54 9.48 9.7 13.3 15.36 3.801 5.63 6.96 11.76 9.36 18.27 2.55 6.89 4.26 14.21 4.98 21.83.27 2.77.399 5.57.399 8.41 0 3.82-.24 7.58-.72 11.27-.78 6.12-2.2 12.03-4.18 17.66-2.23 6.37-5.181 12.38-8.75 17.94-3.551 5.53-7.721 10.61-12.4 15.14-5.29 5.13-11.24 9.55-17.71 13.11-5.83 3.21-12.08 5.72-18.64 7.42-6.49 1.68-13.28 2.58-20.28 2.58-.04 0-.08 0-.12 0-5.95-.01-11.75-.66-17.34-1.91-6.76-1.49-13.2-3.83-19.23-6.91-6.64-3.39-12.76-7.67-18.24-12.69-5.1-4.66-9.63-9.97-13.48-15.79-3.82-5.78-6.96-12.06-9.31-18.73-2.49-7.03-4.1-14.48-4.69-22.23-.18-2.26-.27-4.55-.27-6.86 0-4.4.32-8.72.95-12.94.91-6.13 2.45-12.04 4.56-17.67 2.36-6.32 5.44-12.27 9.13-17.75 3.651-5.44 7.901-10.41 12.661-14.83z" fill="#fff"/><path d="m396.94 402c5.48 5.02 11.6 9.3 18.24 12.69 6.03 3.08 12.47 5.42 19.23 6.91 5.59 1.25 11.39 1.9 17.34 1.91h.12c7 0 13.79-.9 20.28-2.58 6.56-1.7 12.81-4.21 18.64-7.42 6.47-3.56 12.42-7.98 17.71-13.11 4.68-4.53 8.85-9.61 12.4-15.14 3.569-5.56 6.52-11.57 8.75-17.94 1.979-5.63 3.399-11.54 4.18-17.66.479-3.69.72-7.45.72-11.27 0-2.84-.13-5.64-.399-8.41-.721-7.62-2.431-14.94-4.98-21.83-2.4-6.51-5.56-12.64-9.36-18.27-3.819-5.66-8.29-10.82-13.3-15.36-5.399-4.9-11.42-9.08-17.93-12.41-5.93-3.03-12.28-5.35-18.92-6.85-5.41-1.23-11.021-1.9-16.78-1.97-.33-.01-.67-.01-1.01-.01-6.54 0-12.9.78-19 2.26-6.51 1.57-12.72 3.94-18.53 6.99-6.49 3.42-12.49 7.69-17.85 12.67-4.76 4.42-9.01 9.39-12.66 14.83-3.69 5.48-6.77 11.43-9.13 17.75-2.11 5.63-3.65 11.54-4.56 17.67-.63 4.22-.95 8.54-.95 12.94 0 2.31.09 4.6.27 6.86.59 7.75 2.2 15.2 4.69 22.23 2.35 6.67 5.49 12.95 9.31 18.73 3.849 5.82 8.379 11.13 13.479 15.79zm55.33-169.6c57.86 0 104.771 46.9 104.771 104.77 0 57.86-46.91 104.771-104.771 104.771-57.859 0-104.77-46.911-104.77-104.771 0-57.87 46.91-104.77 104.77-104.77z" fill="#fff"/><path d="m178.72 513.8v247.59h-36.87l-1.85-626.44c5.59 2.65 12.25 4.19 19.41 4.19 7.12 0 13.75-1.52 19.31-4.14v24.2 48.8 261.33z" fill="#c8c8c8"/><path d="m725.39 469.33v44.47h-541.11-5.56v-44.47h5.01z" fill="#ed1e29"/><path d="m725.39 159.2v48.8h-544.91-1.76v-48.8h2.3z" fill="#ed1e29"/><path d="m725.39 208v261.33h-541.66-5.01v-261.33h1.76zm-168.35 129.17c0-57.87-46.91-104.77-104.771-104.77-57.859 0-104.77 46.9-104.77 104.77 0 57.86 46.91 104.771 104.77 104.771 57.861-.001 104.771-46.911 104.771-104.771z" fill="#0071bc"/><path d="m178.72 135c-5.56 2.62-12.19 4.14-19.31 4.14-7.16 0-13.82-1.54-19.41-4.19-9.81-4.63-16.3-12.69-16.3-21.84 0-14.37 15.99-26.03 35.71-26.03 19.73 0 35.71 11.66 35.71 26.03 0 9.19-6.53 17.26-16.4 21.89z" fill="#c8c8c8"/><g fill="none"><path d="m181.02 159.2h544.37v48.8 261.33 44.47h-541.11" stroke="#231f20" stroke-width="19.5194"/><path d="m140 134.95c-9.81-4.63-16.3-12.69-16.3-21.84 0-14.37 15.99-26.03 35.71-26.03 19.73 0 35.71 11.66 35.71 26.03 0 9.19-6.53 17.26-16.4 21.89-5.56 2.62-12.19 4.14-19.31 4.14-7.16 0-13.82-1.54-19.41-4.19z" stroke="#231f20" stroke-width="19.5194"/><path d="m140 134v.95l1.85 626.44" stroke="#231f20" stroke-width="19.5194"/><path d="m178.72 133.31v1.69 24.2 48.8 261.33 44.47 247.59" stroke="#231f20" stroke-width="19.5194"/><path d="m180.48 208h544.91.01" stroke="#231f20" stroke-width="13.0129"/><path d="m183.73 469.33h541.66 3.26" stroke="#231f20" stroke-width="13.0129"/><path d="m557.04 337.17c0 57.86-46.91 104.771-104.771 104.771-57.859 0-104.77-46.911-104.77-104.771 0-57.87 46.91-104.77 104.77-104.77 57.861 0 104.771 46.9 104.771 104.77z" stroke="#231f20" stroke-width="13.0129"/><path d="m534.15 329.98c.27 2.77.399 5.57.399 8.41 0 3.82-.24 7.58-.72 11.27-.78 6.12-2.2 12.03-4.18 17.66-2.23 6.37-5.181 12.38-8.75 17.94-3.551 5.53-7.721 10.61-12.4 15.14-5.29 5.13-11.24 9.55-17.71 13.11-5.83 3.21-12.08 5.72-18.64 7.42-6.49 1.68-13.28 2.58-20.28 2.58-.04 0-.08 0-.12 0-5.95-.01-11.75-.66-17.34-1.91-6.76-1.49-13.2-3.83-19.23-6.91-6.64-3.39-12.76-7.67-18.24-12.69-5.1-4.66-9.63-9.97-13.48-15.79-3.82-5.78-6.96-12.06-9.31-18.73-2.49-7.03-4.1-14.48-4.69-22.23-.18-2.26-.27-4.55-.27-6.86 0-4.4.32-8.72.95-12.94.91-6.13 2.45-12.04 4.56-17.67 2.36-6.32 5.44-12.27 9.13-17.75 3.65-5.44 7.9-10.41 12.66-14.83 5.36-4.98 11.36-9.25 17.85-12.67 5.81-3.05 12.021-5.42 18.53-6.99 6.1-1.48 12.46-2.26 19-2.26.34 0 .68 0 1.01.01 5.76.07 11.37.74 16.78 1.97 6.64 1.5 12.99 3.82 18.92 6.85 6.51 3.33 12.53 7.51 17.93 12.41 5.01 4.54 9.48 9.7 13.3 15.36 3.801 5.63 6.96 11.76 9.36 18.27 2.551 6.89 4.261 14.21 4.981 21.83z" stroke="#231f20" stroke-width="4.8799"/><path d="m428.27 370.33c1.69 4.57 4.87 10.5 10.721 15.01 5.04 3.89 13.319 4.63 13.319 4.63s8.181-.83 13.23-4.73c5.55-4.29 8.7-9.86 10.45-14.32 1.72-4.38 2.09-7.69 2.09-7.69v-.81-31.11-2.25l-9.04.02-13.93.02-2.03.01-4.07.01-13.42.02-9.149.02v2.26 31.1.81c-.001 0 .329 2.97 1.829 7z" stroke="#231f20" stroke-width="6.5065"/><path d="m453.08 328.98v.13 24.06l-22.98 16.67" stroke="#231f20" stroke-width="6.5065"/><path d="m453.08 353.17 21.14 17.08" stroke="#231f20" stroke-width="6.5065"/><path d="m364.67 356.93c-.92-1.23-1.47-2.76-1.47-4.43 0-3.73 2.73-6.82 6.26-7.25.28-.04.57-.06.86-.06 3.93 0 7.12 3.28 7.12 7.31" stroke="#231f20" stroke-linecap="round" stroke-linejoin="round" stroke-width="6.5065"/><path d="m371.58 378.49c-.92-1.23-1.46-2.77-1.46-4.44 0-2.9 1.64-5.4 4.03-6.57.93-.47 1.97-.73 3.08-.73 3.93 0 7.12 3.27 7.12 7.3" stroke="#231f20" stroke-linecap="round" stroke-linejoin="round" stroke-width="6.5065"/><path d="m384.32 397.67c-1.27-.88-2.27-2.16-2.8-3.74-.96-2.85-.1-5.86 1.94-7.72.69-.65 1.53-1.15 2.48-1.47 3.73-1.25 7.79.84 9.07 4.66" stroke="#231f20" stroke-linecap="round" stroke-linejoin="round" stroke-width="6.5065"/><path d="m401.04 412.8c-1.47-.47-2.8-1.4-3.77-2.76-1.76-2.48-1.79-5.65-.33-8.04.47-.78 1.11-1.48 1.9-2.04 3.2-2.28 7.7-1.46 10.03 1.83" stroke="#231f20" stroke-linecap="round" stroke-linejoin="round" stroke-width="6.5065"/><path d="m422.14 424.19c-1.54-.02-3.08-.53-4.41-1.55-2.51-1.94-3.44-5.15-2.55-7.95.23-.76.61-1.49 1.12-2.15 2.41-3.11 6.95-3.63 10.13-1.17" stroke="#231f20" stroke-linecap="round" stroke-linejoin="round" stroke-width="6.5065"/><path d="m444.12 429.41c-1.46.5-3.09.54-4.67.03-3.44-1.11-5.521-4.47-5.04-7.84.05-.39.13-.78.26-1.17 1.22-3.74 5.311-5.78 9.14-4.53" stroke="#231f20" stroke-linecap="round" stroke-linejoin="round" stroke-width="6.5065"/><path d="m362.87 335.44c-.55-1.43-.65-3.06-.19-4.67.97-3.4 4.14-5.58 7.46-5.32.46.03.92.11 1.38.24 3.78 1.08 5.95 5.1 4.85 8.98" stroke="#231f20" stroke-linecap="round" stroke-linejoin="round" stroke-width="6.5065"/><path d="m364.92 314.75c0-1.54.49-3.1 1.49-4.43 1.99-2.65 5.39-3.6 8.29-2.54.63.23 1.23.55 1.79.97 3.14 2.37 3.72 6.9 1.3 10.12" stroke="#231f20" stroke-linecap="round" stroke-linejoin="round" stroke-width="6.5065"/><path d="m372.75 295.24c.22-1.52.94-2.98 2.13-4.16 2.47-2.43 6.21-2.79 8.95-1.05.44.28.86.61 1.24 1 2.76 2.8 2.66 7.37-.21 10.19" stroke="#231f20" stroke-linecap="round" stroke-linejoin="round" stroke-width="6.5065"/><path d="m384.13 279.38c.23-1.52.94-2.98 2.14-4.16 2.87-2.82 7.43-2.85 10.19-.05l.03.03c2.73 2.8 2.62 7.35-.24 10.17" stroke="#231f20" stroke-linecap="round" stroke-linejoin="round" stroke-width="6.5065"/><path d="m401.86 262.49c.81-1.3 2.05-2.36 3.61-2.96 3.39-1.3 7.13.04 8.87 3 .19.33.36.67.5 1.04 1.4 3.67-.52 7.82-4.28 9.25" stroke="#231f20" stroke-linecap="round" stroke-linejoin="round" stroke-width="6.5065"/><path d="m421.21 251.87c1.19-.97 2.71-1.55 4.38-1.61 3.46-.1 6.44 2.15 7.28 5.28.149.51.229 1.05.25 1.6.12 3.93-3.05 7.22-7.08 7.35" stroke="#231f20" stroke-linecap="round" stroke-linejoin="round" stroke-width="6.5065"/><path d="m443.13 246.08c1.46-.5 3.08-.54 4.68-.03 3.221 1.05 5.24 4.07 5.07 7.24-.03.59-.14 1.19-.33 1.78-1.21 3.74-5.31 5.76-9.14 4.52" stroke="#231f20" stroke-linecap="round" stroke-linejoin="round" stroke-width="6.5065"/><path d="m539.86 318.24c.909 1.23 1.46 2.76 1.46 4.43 0 4.03-3.19 7.31-7.12 7.31-.021 0-.03 0-.05 0-3.9-.03-7.061-3.3-7.061-7.31" stroke="#231f20" stroke-linecap="round" stroke-linejoin="round" stroke-width="6.5065"/><path d="m532.94 296.69c.92 1.22 1.47 2.76 1.47 4.43 0 3.36-2.22 6.2-5.24 7.03-.6.18-1.229.27-1.88.27-3.93 0-7.12-3.27-7.12-7.3" stroke="#231f20" stroke-linecap="round" stroke-linejoin="round" stroke-width="6.5065"/><path d="m520.21 277.5c1.26.88 2.26 2.16 2.8 3.74 1.13 3.38-.279 6.98-3.2 8.64-.38.22-.79.4-1.229.55-3.72 1.25-7.79-.84-9.07-4.66" stroke="#231f20" stroke-linecap="round" stroke-linejoin="round" stroke-width="6.5065"/><path d="m503.49 262.37c1.46.47 2.79 1.4 3.76 2.76 2.12 2.99 1.74 6.97-.74 9.39-.25.25-.52.48-.819.69-3.21 2.28-7.71 1.46-10.04-1.83" stroke="#231f20" stroke-linecap="round" stroke-linejoin="round" stroke-width="6.5065"/><path d="m482.39 250.98c1.53.02 3.08.53 4.4 1.55 3.02 2.34 3.75 6.51 1.79 9.58-.11.18-.23.35-.36.52-2.399 3.11-6.95 3.63-10.13 1.17" stroke="#231f20" stroke-linecap="round" stroke-linejoin="round" stroke-width="6.5065"/><path d="m460.41 245.76c1.45-.5 3.08-.54 4.67-.03 3.84 1.24 5.97 5.28 4.77 9.02-.06.17-.119.34-.189.51-1.4 3.4-5.3 5.2-8.95 4.02" stroke="#231f20" stroke-linecap="round" stroke-linejoin="round" stroke-width="6.5065"/><path d="m541.65 339.73c.55 1.43.649 3.06.199 4.67-1.02 3.59-4.51 5.81-8.02 5.26-.28-.04-.55-.1-.82-.18-3.79-1.08-5.96-5.1-4.859-8.98" stroke="#231f20" stroke-linecap="round" stroke-linejoin="round" stroke-width="6.5065"/><path d="m539.6 360.42c0 1.54-.489 3.1-1.489 4.43-2.03 2.7-5.53 3.64-8.46 2.47-.561-.22-1.11-.52-1.61-.9-3.15-2.37-3.72-6.9-1.31-10.12" stroke="#231f20" stroke-linecap="round" stroke-linejoin="round" stroke-width="6.5065"/><path d="m531.78 379.93c-.23 1.52-.95 2.98-2.141 4.16-2.409 2.37-6.01 2.77-8.739 1.17-.521-.3-1.011-.67-1.45-1.12-2.76-2.8-2.66-7.37.21-10.19" stroke="#231f20" stroke-linecap="round" stroke-linejoin="round" stroke-width="6.5065"/><path d="m520.39 395.79c-.229 1.52-.939 2.98-2.14 4.16-2.72 2.67-6.96 2.84-9.75.45-.15-.12-.3-.26-.44-.4-2.76-2.8-2.649-7.37.221-10.19" stroke="#231f20" stroke-linecap="round" stroke-linejoin="round" stroke-width="6.5065"/><path d="m502.67 412.68c-.82 1.31-2.06 2.36-3.62 2.96-3.04 1.16-6.359.21-8.26-2.13-.46-.56-.83-1.2-1.1-1.91-1.41-3.67.51-7.82 4.27-9.25" stroke="#231f20" stroke-linecap="round" stroke-linejoin="round" stroke-width="6.5065"/><path d="m483.32 423.3c-1.2.97-2.721 1.55-4.391 1.61-2.96.09-5.56-1.55-6.779-3.98-.45-.87-.71-1.86-.74-2.9-.12-3.93 3.05-7.22 7.07-7.35" stroke="#231f20" stroke-linecap="round" stroke-linejoin="round" stroke-width="6.5065"/><path d="m461.39 429.1c-1.449.49-3.08.53-4.67.021-2.67-.87-4.51-3.09-4.97-5.61-.21-1.11-.15-2.27.22-3.41 1.21-3.74 5.311-5.76 9.141-4.52" stroke="#231f20" stroke-linecap="round" stroke-linejoin="round" stroke-width="6.5065"/><path d="m406.08 302.69c-.37-.89-.58-1.87-.58-2.89 0-4.1 3.32-7.42 7.42-7.42s7.42 3.32 7.42 7.42-3.32 7.42-7.42 7.42c-1.54 0-2.97-.47-4.15-1.27s-2.12-1.93-2.69-3.26z" stroke="#231f20" stroke-linecap="round" stroke-linejoin="round" stroke-width="6.5065"/><path d="m408.75 306.61s-2.76 5.79-5.6 11.39c-2.66 5.26-5.4 10.37-5.99 10.37-1.22 0-5.49-12.2-5.49-12.2" stroke="#231f20" stroke-linecap="round" stroke-linejoin="round" stroke-width="6.5065"/><path d="m416.27 308.44s9.71 3.03 9.15 14.03c-.2 4.07 10.17 5.69 10.17 5.69" stroke="#231f20" stroke-linecap="round" stroke-linejoin="round" stroke-width="6.5065"/><path d="m404.07 318.2 2.65 13.62 19.31-.4" stroke="#231f20" stroke-linecap="round" stroke-linejoin="round" stroke-width="6.5065"/><path d="m384.76 318.81 5.71-4.25 15.03-11.2" stroke="#231f20" stroke-linecap="round" stroke-linejoin="round" stroke-width="6.5065"/><path d="m406.11 332.64c-.41.61-3.87 46.56-3.87 46.56l6.1.4 7.53-25 3.45 23.38 6.31.2.811-15.66" stroke="#231f20" stroke-linecap="round" stroke-linejoin="round" stroke-width="6.5065"/><path d="m402.4 381.43c-1.16 1.46-3.05 5.55.12 6.19 2.95.59 4.59-3.45 3.84-5.71" stroke="#231f20" stroke-linecap="round" stroke-linejoin="round" stroke-width="4.8799"/><path d="m424.84 380.62c1.15 1.46 3.05 5.55-.12 6.19-2.95.59-4.59-3.46-3.84-5.71" stroke="#231f20" stroke-linecap="round" stroke-linejoin="round" stroke-width="4.8799"/><path d="m498.24 303.23c.569-1.05.89-2.25.89-3.53 0-4.1-3.32-7.42-7.42-7.42s-7.42 3.32-7.42 7.42c0 3.07 1.87 5.71 4.53 6.84.89.37 1.859.58 2.89.58 1.28 0 2.49-.32 3.54-.9 1.26-.68 2.3-1.73 2.99-2.99z" stroke="#231f20" stroke-linecap="round" stroke-linejoin="round" stroke-width="6.5065"/><path d="m495.88 306.51s2.76 5.78 5.601 11.38c2.659 5.26 5.399 10.37 5.979 10.37 1.22 0 5.5-12.2 5.5-12.2" stroke="#231f20" stroke-linecap="round" stroke-linejoin="round" stroke-width="6.5065"/><path d="m488.35 308.34s-9.699 3.03-9.149 14.03c.21 4.06-10.16 5.69-10.16 5.69" stroke="#231f20" stroke-linecap="round" stroke-linejoin="round" stroke-width="6.5065"/><path d="m500.55 318.1-2.64 13.62-19.32-.41" stroke="#231f20" stroke-linecap="round" stroke-linejoin="round" stroke-width="6.5065"/><path d="m519.87 318.71-5.71-4.26-15.03-11.2" stroke="#231f20" stroke-linecap="round" stroke-linejoin="round" stroke-width="6.5065"/><path d="m498.52 332.53c.4.61 3.86 46.57 3.86 46.57l-6.1.4-7.521-25.01-3.46 23.39-6.3.2-.81-15.66" stroke="#231f20" stroke-linecap="round" stroke-linejoin="round" stroke-width="6.5065"/><path d="m502.23 381.33c1.159 1.46 3.05 5.55-.131 6.19-2.949.59-4.59-3.46-3.84-5.71" stroke="#231f20" stroke-linecap="round" stroke-linejoin="round" stroke-width="4.8799"/><path d="m479.78 380.52c-1.15 1.46-3.04 5.55.12 6.19 2.96.59 4.6-3.46 3.85-5.71" stroke="#231f20" stroke-linecap="round" stroke-linejoin="round" stroke-width="4.8799"/><path d="m444.45 284.67c-1.12.25-2.37.39-3.681.39-4.989 0-9.039-2-9.039-4.48 0-2.47 4.05-4.47 9.039-4.47 5 0 9.051 2 9.051 4.47 0 .93-.57 1.79-1.54 2.51-.95.69-2.27 1.24-3.83 1.58z" stroke="#231f20" stroke-linecap="round" stroke-linejoin="round" stroke-width="4.8799"/><path d="m454.09 284.13c1.15-1.82 4.59-3.14 8.641-3.14 5 0 9.05 2 9.05 4.47 0 2.48-4.05 4.48-9.05 4.48-1.69 0-3.28-.23-4.641-.64-2.64-.77-4.41-2.2-4.41-3.84 0-.46.14-.91.41-1.33z" stroke="#231f20" stroke-linecap="round" stroke-linejoin="round" stroke-width="4.8799"/><path d="m457.21 302.63c1.23-.31 2.63-.49 4.1-.49 4.99 0 9.051 2 9.051 4.47s-4.061 4.47-9.051 4.47c-.569 0-1.119-.03-1.659-.08-4.2-.38-7.391-2.2-7.391-4.39 0-1.74 2.01-3.25 4.95-3.98z" stroke="#231f20" stroke-linecap="round" stroke-linejoin="round" stroke-width="4.8799"/><path d="m445.36 296.85c1.75.81 2.84 1.97 2.84 3.25 0 2.23-3.28 4.07-7.57 4.42-.479.04-.979.06-1.479.06-5 0-9.051-2-9.051-4.48 0-2.47 4.051-4.47 9.051-4.47 2.399 0 4.589.46 6.209 1.22z" stroke="#231f20" stroke-linecap="round" stroke-linejoin="round" stroke-width="4.8799"/><path d="m440.67 304.98 8.34 23.18" stroke="#231f20" stroke-linecap="round" stroke-linejoin="round" stroke-width="4.8799"/><path d="m445.55 296.44-1.01-11.38" stroke="#231f20" stroke-linecap="round" stroke-linejoin="round" stroke-width="4.8799"/><path d="m457.96 289.73-.82 12.61" stroke="#231f20" stroke-linecap="round" stroke-linejoin="round" stroke-width="4.8799"/><path d="m459.58 311.9-4.47 16.06" stroke="#231f20" stroke-linecap="round" stroke-linejoin="round" stroke-width="4.8799"/><path d="m0 0h850.394v850.394h-850.394z"/></g></svg>