<svg enable-background="new 0 0 850.394 850.394" height="850.394" viewBox="0 0 850.394 850.394" width="850.394" xmlns="http://www.w3.org/2000/svg"><path d="m748.18 140.34v127.12h-.18-282v-127.12z" fill="#0071bc"/><path d="m748.18 267.46v48.54l-333.84-.39v-175.27h51.66v127.12h282z" fill="#fbed24"/><path d="m166.24 267.46-1.17-127.12h138.39v127.12z" fill="#0071bc"/><path d="m303.46 140.34h50v173.48h-186.8l-.42-46.36h137.22z" fill="#fbed24"/><path d="m162.61 412.25v373.13h-39.49l-1.12-670.61c5.8 2.59 12.62 4.08 19.92 4.08 7.62 0 14.73-1.63 20.69-4.43v153.04 46.36 56.18z" fill="#c8c8c8"/><path d="m465.88 416.7h282.12.18v103.47h-282.3v-2.17z" fill="#0071bc"/><path d="m748 416.7h-282.12v101.3 2.17h-49.88v-.17-146.41h328 4.18v43.11z" fill="#fbed24"/><path d="m744 373.59h-328v146.41.17h-66.39v-2.17-148h-182.43l-.52-56.18h186.8v-173.48h60.88v175.27l333.84.39v57.59z" fill="#ed1e29"/><path d="m349.61 518v2.17h-43.98v-2.17-105.75h-138.06l-.39-42.25h182.43z" fill="#fbed24"/><path d="m305.63 518v2.17h-137.07l-.99-107.92h138.06z" fill="#0071bc"/><path d="m162.61 114.42c-5.96 2.8-13.07 4.43-20.69 4.43-7.3 0-14.12-1.49-19.92-4.08-10.99-4.89-18.33-13.72-18.33-23.8 0-15.4 17.13-27.88 38.25-27.88 21.13 0 38.26 12.48 38.26 27.88 0 9.84-7 18.49-17.57 23.45z" fill="#c8c8c8"/><g fill="none"><path d="m165.07 140.34h138.39 50 60.88 51.66 282.18v127.12 48.54 57.59 43.11 103.47h-282.3-49.88-66.39-43.98-137.07" stroke="#231f20" stroke-width="21"/><path d="m122 114.77c-10.99-4.89-18.33-13.72-18.33-23.8 0-15.4 17.13-27.88 38.25-27.88 21.13 0 38.26 12.48 38.26 27.88 0 9.84-7 18.49-17.57 23.45-5.96 2.8-13.07 4.43-20.69 4.43-7.3 0-14.12-1.49-19.92-4.08z" stroke="#231f20" stroke-width="21"/><path d="m122 114v.77l1.12 670.61" stroke="#231f20" stroke-width="21"/><path d="m162.61 112.6v1.82 153.04 46.36 56.18 42.25 373.13" stroke="#231f20" stroke-width="21"/><path d="m353.46 138v2.34 173.48h-186.8-4.05-2.61" stroke="#231f20" stroke-width="15.4362"/><path d="m162 370h.61 4.57 182.43v148" stroke="#231f20" stroke-width="14.8"/><path d="m752 316h-3.82l-333.84-.39v-175.27-2.34" stroke="#231f20" stroke-width="14.7242"/><path d="m416 520v-146.41h328" stroke="#231f20" stroke-width="14.6405"/><path d="m303.46 136v4.34 127.12h-137.22-3.63-2.61" stroke="#231f20" stroke-width="14"/><path d="m162 412.25h.61 4.96 138.06v105.75" stroke="#231f20" stroke-width="14"/><path d="m748 267.46h-282v-127.12-4.34" stroke="#231f20" stroke-width="14"/><path d="m465.88 518v-101.3h282.12" stroke="#231f20" stroke-width="14"/><path d="m0 0h850.394v850.394h-850.394z"/></g></svg>