<svg enable-background="new 0 0 850.394 850.394" height="850.394" viewBox="0 0 850.394 850.394" width="850.394" xmlns="http://www.w3.org/2000/svg"><path d="m748.18 420v100.17h-476.18v-2.17l166-100 308 2z" fill="#0071bc"/><path d="m748.18 388v32h-2.18l-308-2-166 100v2.17h-50.22v-3.86l208.22-128.31z" fill="#fff"/><path d="m748.18 262v28h-4.18-318l-204-146v-3.66h50.45l161.55 121.66h310z" fill="#fff"/><path d="m748.18 177.46v84.54h-4.18-310l-161.55-121.66h475.73z" fill="#ed1e29"/><path d="m383.83 343.75-215.73 126.74-.31-34.42 161.13-94.67-162.7-113.08-.22-34.32z" fill="#fbed24"/><path d="m328.92 341.4-161.13 94.67-.83-89.49-.74-118.26z" fill="#231f20"/><path d="m162.61 114.42c-5.96 2.8-13.07 4.43-20.69 4.43-7.3 0-14.12-1.49-19.92-4.08-10.99-4.89-18.33-13.72-18.33-23.8 0-15.4 17.13-27.88 38.25-27.88 21.13 0 38.26 12.48 38.26 27.88 0 9.84-7 18.49-17.57 23.45z" fill="#c8c8c8"/><path d="m167.79 436.07.31 34.42-.35.21-.22-34.48z" fill="#fff"/><path d="m167.79 436.07-.26.15-.57-89.64z" fill="#fff"/><path d="m166.22 228.32.74 118.26-1.08-118.5z" fill="#fff"/><path d="m166 194 .22 34.32-.34-.24-.81-87.74h56.93v3.66l204 146h318 4.18v98h-318.18l-208.22 128.31v3.86h-53.22l-.46-49.68 215.73-126.74z" fill="#34a047"/><path d="m162.61 439.11v346.27h-39.49l-1.12-670.61c5.8 2.59 12.62 4.08 19.92 4.08 7.62 0 14.73-1.63 20.69-4.43v111.39z" fill="#c8c8c8"/><g fill="none"><path d="m165.07 140.34h56.93 50.45 475.73v37.12 84.54 28 98 32 100.17h-476.18-50.22-53.22" stroke="#231f20" stroke-width="21"/><path d="m122 114.77c-10.99-4.89-18.33-13.72-18.33-23.8 0-15.4 17.13-27.88 38.25-27.88 21.13 0 38.26 12.48 38.26 27.88 0 9.84-7 18.49-17.57 23.45-5.96 2.8-13.07 4.43-20.69 4.43-7.3 0-14.12-1.49-19.92-4.08z" stroke="#231f20" stroke-width="21"/><path d="m122 114v.77l1.12 670.61" stroke="#231f20" stroke-width="21"/><path d="m162.61 112.6v1.82 111.39 213.3 346.27" stroke="#231f20" stroke-width="21"/><path d="m744.76 179.39 3.42-1.93 2.01-1.14" stroke="#231f20" stroke-width="14"/><path d="m166 194 217.83 149.75-215.73 126.74-.35.21" stroke="#231f20" stroke-width="14"/><path d="m160 224 2.61 1.81 3.27 2.27.34.24 162.7 113.08-161.13 94.67-.26.15-4.92 2.89-2.95 1.73" stroke="#231f20" stroke-width="14"/><path d="m221.78 516.31 208.22-128.31h318.18 1.82" stroke="#231f20" stroke-width="14"/><path d="m272 518 166-100 308 2" stroke="#231f20" stroke-width="14"/><path d="m744 290h-318l-204-146" stroke="#231f20" stroke-width="14"/><path d="m744 262h-310l-161.55-121.66-.45-.34" stroke="#231f20" stroke-width="14"/><path d="m0 0h850.394v850.394h-850.394z"/></g></svg>