<svg enable-background="new 0 0 850.394 850.394" height="850.394" viewBox="0 0 850.394 850.394" width="850.394" xmlns="http://www.w3.org/2000/svg"><path d="m748.18 177.46v9.44h-3.47l-81.08 47.31-161.61 91.51 164.05 96.2 82.11 48.33v49.92h-52.62v-1.45l-250-147.3-229.21 147.12v1.63h-47.79l-.5-54.84 80.57-48.77 159.38-91.81-159.82-91.06-82.7-47.11-.42-46.24h63.53l223.08 136.9 239.48-136.9h.01 57.01z" fill="#fff"/><path d="m748.18 186.9v283.35l-82.11-48.33-164.05-96.2 161.61-91.51 81.08-47.31z" fill="#0071bc"/><path d="m695.56 518.72v1.45h-479.21v-1.63l229.21-147.12z" fill="#0071bc"/><path d="m691.16 140.34-239.48 136.9-223.08-136.9z" fill="#0071bc"/><path d="m408.01 324.75-159.38 91.81-80.57 48.77-2.57-278.75 82.7 47.11z" fill="#0071bc"/><path d="m162.61 114.42c-5.96 2.8-13.07 4.43-20.69 4.43-7.3 0-14.12-1.49-19.92-4.08-10.99-4.89-18.33-13.72-18.33-23.8 0-15.4 17.13-27.88 38.25-27.88 21.13 0 38.26 12.48 38.26 27.88 0 9.84-7 18.49-17.57 23.45z" fill="#c8c8c8"/><path d="m165.49 186.58 2.57 278.75-5.45 3.3v-283.69z" fill="#c8c8c8"/><path d="m162.61 468.63v316.75h-39.49l-1.12-670.61c5.8 2.59 12.62 4.08 19.92 4.08 7.62 0 14.73-1.63 20.69-4.43v70.52z" fill="#c8c8c8"/><g fill="none"><path d="m691.17 140.34h57.01v37.12 9.44 283.35 49.92h-52.62-479.21-47.79" stroke="#231f20" stroke-width="21"/><path d="m165.07 140.34h63.53 462.56" stroke="#231f20" stroke-width="21"/><path d="m122 114.77c-10.99-4.89-18.33-13.72-18.33-23.8 0-15.4 17.13-27.88 38.25-27.88 21.13 0 38.26 12.48 38.26 27.88 0 9.84-7 18.49-17.57 23.45-5.96 2.8-13.07 4.43-20.69 4.43-7.3 0-14.12-1.49-19.92-4.08z" stroke="#231f20" stroke-width="21"/><path d="m122 114v.77l1.12 670.61" stroke="#231f20" stroke-width="21"/><path d="m162.61 112.6v1.82 70.52 283.69 316.75" stroke="#231f20" stroke-width="21"/><path d="m744.76 179.39 3.42-1.93 2.01-1.14" stroke="#231f20" stroke-width="14"/><path d="m751.15 472-2.97-1.75-82.11-48.33-164.05-96.2 161.61-91.51 81.08-47.31" stroke="#231f20" stroke-width="14"/><path d="m162.42 184.83.19.11 2.88 1.64 82.7 47.11 159.82 91.06-159.38 91.81-80.57 48.77-5.45 3.3-2.63 1.59" stroke="#231f20" stroke-width="14"/><path d="m216.35 518.54 229.21-147.12 250 147.3" stroke="#231f20" stroke-width="14"/><path d="m692.81 139.4-1.64.94h-.01l-239.48 136.9-223.08-136.9-1.47-.9" stroke="#231f20" stroke-width="14"/><path d="m0 0h850.394v850.394h-850.394z"/></g></svg>