<svg enable-background="new 0 0 850.394 850.394" height="850.394" viewBox="0 0 850.394 850.394" width="850.394" xmlns="http://www.w3.org/2000/svg"><path d="m167.45 399-.13-14h5.79v14z" fill="#231f20"/><path d="m167.32 385 .13 14h-4.84v-14z" fill="#231f20"/><path d="m173.11 385h564.57v14h-564.57z" fill="#231f20"/><path d="m167.45 399 .27 30h-5.11v-30z" fill="#231f20"/><path d="m166.93 342.95.39 42.05h-4.71v-42.05z" fill="#231f20"/><path d="m737.68 385h10.5v14h-10.5z" fill="#231f20"/><path d="m748.18 399v30h-4.18-6.32v-30z" fill="#231f20"/><path d="m737.68 347.03v37.97h-564.57v-42.05h73.91 50.18 74.32l.03 5.85z" fill="#fff"/><path d="m748.18 385v-38-52-28h3.82v-14h-3.82v-44-23.56l.03.05 5.43-3.08h5.04v337.76 10.5h-10.5-575.07v-10.5h564.57 10.5v-10.5-40.67-40-30h3.82v-14z" fill="#231f20"/><path d="m737.68 385v-37.97l6.35-.03h4.15v38z" fill="#231f20"/><path d="m167.32 385-.39-42.05h6.18v42.05z" fill="#231f20"/><path d="m160 385h2.61v14h-2.61z" fill="#231f20"/><path d="m173.11 399h564.57v30h-564.57z" fill="#a8d7f4"/><path d="m162.61 342.95v42.05h-2.61v14h2.61v30h-.61v14h.61v342.38h-10.5v-656.84c3.68-.59 7.2-1.5 10.5-2.69v13.18h-4.05v203.83h4.05z" fill="#231f20"/><path d="m748.18 385h3.82v14h-3.82z" fill="#231f20"/><path d="m173.11 399v30h-5.39l-.27-30z" fill="#231f20"/><path d="m152.11 128.54v656.84h-28.99l10.5-.02-1.1-656.7c3.03.46 6.18.69 9.4.69 3.51 0 6.92-.28 10.19-.81z" fill="#c8c8c8"/><path d="m297.2 140.34h-52.3-71.79v-10.5h575.07 10.5v10.5 42.07h-5.04l-3.45-6.09-2.01-3.55v-21.93-10.5h-10.5-359.16v-.25h-3.82-10.18v.06l-32.88.19z" fill="#231f20"/><path d="m750.19 176.32 3.45 6.09-5.43 3.08-.03-.05v-7.98z" fill="#231f20"/><path d="m748.18 253h3.82v14h-3.82z" fill="#231f20"/><path d="m748.18 172.77 2.01 3.55-2.01 1.14z" fill="#231f20"/><path d="m748.18 509.67v10.5h-10.5z" fill="#231f20"/><path d="m748.18 469v40.67h-10.5v-26.67h10.32v-14z" fill="#231f20"/><path d="m748.18 429v40h-.18-10.32v-26h6.32v-14z" fill="#231f20"/><path d="m748.18 295v52h-4.15l-.06-14-6.29.03v-24.03h10.32v-14z" fill="#231f20"/><path d="m748.18 267v28h-.18-10.32v-28z" fill="#231f20"/><path d="m737.68 253h10.5v14h-10.5z" fill="#231f20"/><path d="m748.18 209v44h-10.5v-30h10.32v-14z" fill="#231f20"/><path d="m748.18 185.44v23.56h-.18-10.32v-22h10.32v-1.88z" fill="#231f20"/><path d="m748.18 177.46v7.98l-.18-.32v-7.56z" fill="#231f20"/><path d="m748.18 172.77v4.69l-.18.1v-4.56h-6.16l4.9-2.77z" fill="#231f20"/><path d="m748.18 150.84v21.93l-1.44-2.54-4.9 2.77h-4.16v-22.16z" fill="#231f20"/><path d="m748.18 140.34v10.5l-10.5-10.5z" fill="#231f20"/><path d="m748.18 509.67-10.5 10.5v-10.5z" fill="#231f20"/><path d="m748.18 150.84h-10.5v-10.5z" fill="#231f20"/><path d="m737.68 469h10.32v14h-10.32z" fill="#231f20"/><path d="m737.68 295h10.32v14h-10.32z" fill="#231f20"/><path d="m737.68 209h10.32v14h-10.32z" fill="#231f20"/><path d="m748 177.56v7.56l-3.24-5.73z" fill="#231f20"/><path d="m748 173v4.56l-3.24 1.83-3.45-6.09.53-.3z" fill="#231f20"/><path d="m743.97 333 .06 14-6.35.03v-14z" fill="#231f20"/><path d="m737.68 429h6.32v14h-6.32z" fill="#231f20"/><path d="m737.68 187v-14h4.16l-.53.3 3.45 6.09 3.24 5.73v1.88z" fill="#231f20"/><path d="m173.11 509.67h564.57v10.5h-564.57z" fill="#231f20"/><path d="m173.11 483h564.57v26.67h-564.57z" fill="#a8d7f4"/><path d="m173.11 469h564.57v14h-564.57z" fill="#231f20"/><path d="m173.11 443h564.57v26h-564.57z" fill="#fff"/><path d="m173.11 429h564.57v14h-564.57z" fill="#231f20"/><path d="m737.68 309v24.03l-359.16 1.74v-25.77z" fill="#a8d7f4"/><path d="m378.52 295h359.16v14h-359.16z" fill="#231f20"/><path d="m378.52 267h359.16v28h-359.16z" fill="#fff"/><path d="m378.52 253h359.16v14h-359.16z" fill="#231f20"/><path d="m378.52 223h359.16v30h-359.16z" fill="#a8d7f4"/><path d="m378.52 209h359.16v14h-359.16z" fill="#231f20"/><path d="m378.52 187h359.16v22h-359.16z" fill="#fff"/><path d="m378.52 173h359.16v14h-359.16z" fill="#231f20"/><path d="m378.52 150.84h359.16v22.16h-359.16z" fill="#a8d7f4"/><path d="m378.52 140.34h359.16v10.5h-359.16z" fill="#231f20"/><path d="m378.52 334.77v7.03h-7l-.04-7z" fill="#231f20"/><path d="m378.52 309v25.77l-7.04.03.04 7h-7v-32.8h3.48z" fill="#231f20"/><path d="m368 295h10.52v14h-10.52z" fill="#231f20"/><path d="m378.52 253v14h-4.52v-1.64-12.36z" fill="#231f20"/><path d="m378.52 223v30h-4.52v12.36h-9.48v-41.69h9.48v-.67z" fill="#231f20"/><path d="m374 209h4.52v14h-4.52z" fill="#231f20"/><path d="m378.52 187v22h-4.52v14 .67h-9.48v-36.67h3.48z" fill="#231f20"/><path d="m368 173h10.52v14h-10.52z" fill="#231f20"/><path d="m364.52 140.34h14v10.5h-14z" fill="#231f20"/><path d="m378.52 140.09v.25h-14v-.19l10.18-.06z" fill="#231f20"/><path d="m378.52 341.8v-7.03l359.16-1.74v14l-366.13 1.77-.03-5.85v-1.15z" fill="#231f20"/><path d="m374.7 140.09-10.18.06v-.06z" fill="#231f20"/><path d="m374 267h4.52v28h-10.52v14h-3.48v-43.64h9.48z" fill="#231f20"/><path d="m368 173v14h-3.48v-36.16h14v22.16z" fill="#231f20"/><path d="m364.52 341.8h7v1.15h-74.32v-2.22-75.37h67.32v43.64z" fill="#a8d7f4"/><path d="m364.52 223.67v41.69h-67.32v75.37 2.22h-50.18v-.09-78.56h-73.91v-39.57h71.79v-73.89h52.3v72.83z" fill="#fff"/><path d="m364.52 187v36.67h-67.32v-72.83h67.32z" fill="#a8d7f4"/><path d="m364.52 140.34v10.5h-67.32v-10.3l34.44-.2z" fill="#231f20"/><path d="m364.52 140.15v.19h-32.88z" fill="#231f20"/><path d="m331.64 140.34-34.44.2v-.2z" fill="#231f20"/><path d="m297.2 140.54v10.3h-52.3v-10z" fill="#231f20"/><path d="m297.2 140.34v.2l-52.3.3v-.5z" fill="#231f20"/><path d="m247.02 342.86v.09h-73.91v-78.65h73.91z" fill="#a8d7f4"/><path d="m173.11 150.84h71.79v73.89h-71.79z" fill="#a8d7f4"/><g fill="#231f20"><path d="m244.9 140.84v10h-71.79v-9.58z"/><path d="m244.9 140.34v.5l-71.79.42v-.92z"/><path d="m168.56 520.17h4.55v10.5h-4.55z"/><path d="m168.56 509.67h4.55v10.5h-4.55z"/><path d="m173.11 483v26.67h-4.55v10.5l-.34-37.17z"/><path d="m173.11 469v14h-4.89l-.13-14z"/><path d="m173.11 443v26h-5.02l-.24-26z"/><path d="m173.11 429v14h-5.26l-.13-14z"/><path d="m173.11 264.3v78.65h-6.18v-.09h5.63v-78.56z"/><path d="m172.56 224.73h.55v39.57h-.55z"/><path d="m172.56 150.84h.55v73.89h-.55z"/><path d="m172.56 141.26h.55v9.58h-.55z"/><path d="m172.56 140.34h.55v.92h-.55z"/><path d="m172.56 139.03h-7.49v-9.19h8.04v10.5h-.55z"/><path d="m173.11 112.6v8.08c-3.17 2.06-6.69 3.8-10.5 5.17v-11.43c1.19-.56 2.34-1.16 3.43-1.82z"/><path d="m172.56 264.3v78.56h-5.63l-.72-78.56z"/><path d="m172.56 224.73v39.57h-6.35l-.36-39.57z"/><path d="m172.56 150.84v73.89h-6.71l-.68-73.89z"/><path d="m172.56 141.26v9.58h-7.39l-.09-9.53z"/><path d="m172.56 140.34v.92l-7.48.05-.01-.97z"/><path d="m165.07 139.03h7.49v1.31h-7.49z"/><path d="m162.61 112.6h-10.5v5.24c-3.24.66-6.66 1.01-10.19 1.01-3.25 0-6.4-.29-9.41-.86l-.01-4.01-10.5.02h-1.63c-10.08-5.02-16.7-13.46-16.7-23.03 0-15.4 17.13-27.88 38.25-27.88 21.13 0 38.26 12.48 38.26 27.88 0 8.73-5.51 16.53-14.14 21.63zm-20.69-4.25c14.79 0 27.76-8.12 27.76-17.38s-12.97-17.38-27.76-17.38c-14.78 0-27.75 8.12-27.75 17.38s12.97 17.38 27.75 17.38z"/><path d="m168.09 469 .13 14h-2.1v-14z"/><path d="m167.72 429 .13 14h-5.24v-14z"/><path d="m162.61 342.86h4.32v.09h-4.32z"/><path d="m166.21 264.3.72 78.56h-4.32v-78.56z"/><path d="m165.85 224.73.36 39.57h-3.6v-39.57z"/><path d="m168.56 520.17v10.5h4.55v254.71h-10.5v-342.38h5.24l.24 26h-1.97v14h2.1z"/><path d="m162.61 112.6h3.43c-1.09.66-2.24 1.26-3.43 1.82z"/><path d="m165.08 141.31.09 9.53h-.1v-9.53z"/><path d="m165.07 140.34.01.97h-.01z"/><path d="m165.07 140.34v.97l-2.46.01v-2.29h2.46z"/><path d="m165.07 150.84h.1l.68 73.89h-3.24v-83.41l2.46-.01z"/><path d="m173.11 129.84h-8.04v9.19h-2.46v-13.18c3.81-1.37 7.33-3.11 10.5-5.17z"/><path d="m162 429h.61v14h-.61z"/><path d="m162.61 264.3v78.56h-4.05v-203.83h4.05v2.29 83.41z"/><path d="m162.61 114.42v11.43c-3.3 1.19-6.82 2.1-10.5 2.69v-10.7c3.77-.75 7.3-1.91 10.5-3.42z"/><path d="m162.61 112.6v1.82c-3.2 1.51-6.73 2.67-10.5 3.42v-5.24z"/></g><path d="m141.92 73.59c14.79 0 27.76 8.12 27.76 17.38s-12.97 17.38-27.76 17.38c-14.78 0-27.75-8.12-27.75-17.38s12.97-17.38 27.75-17.38z" fill="#c8c8c8"/><path d="m152.11 117.84v10.7c-3.27.53-6.68.81-10.19.81-3.22 0-6.37-.23-9.4-.69l-.01-10.67c3.01.57 6.16.86 9.41.86 3.53 0 6.95-.35 10.19-1.01z" fill="#231f20"/><path d="m132.52 128.66 1.1 656.7-10.5.02-1.1-659.26c3.31 1.14 6.83 2 10.5 2.54z" fill="#231f20"/><path d="m132.51 117.99.01 10.67c-3.67-.54-7.19-1.4-10.5-2.54l-.02-11.35c3.22 1.44 6.76 2.54 10.51 3.22z" fill="#231f20"/><path d="m132.5 113.98.01 4.01c-3.75-.68-7.29-1.78-10.51-3.22v-.77z" fill="#231f20"/><path d="m122.02 126.12 1.1 659.26-10.5.021-1.11-664.22c3.19 1.979 6.72 3.649 10.51 4.939z" fill="#231f20"/><path d="m122 114.77.02 11.35c-3.79-1.29-7.32-2.96-10.51-4.94l-.01-7.16 8.87-.02c.53.27 1.08.53 1.63.77z" fill="#231f20"/><path d="m122 114v.77c-.55-.24-1.1-.5-1.63-.77z" fill="#231f20"/><path d="m111.5 114.02.01 7.16c-11.24-6.98-18.34-17.82-18.34-30.21 0-21.52 21.42-38.38 48.75-38.38 27.34 0 48.76 16.86 48.76 38.38 0 12.1-6.77 22.73-17.57 29.71v-8.08h-7.07c8.63-5.1 14.14-12.9 14.14-21.63 0-15.4-17.13-27.88-38.26-27.88-21.12 0-38.25 12.48-38.25 27.88 0 9.57 6.62 18.01 16.7 23.03z" fill="#231f20"/><path d="m371.52 342.95h-74.32-50.18-73.91-6.18-4.32-1.29" fill="none" stroke="#231f20" stroke-width="14"/><path d="m172.56 141.26h.55l71.79-.42 52.3-.3 34.44-.2 32.88-.19" fill="none" stroke="#231f20" stroke-width="14"/><path d="m364.52 223.67h-67.32v-72.83-10.3-.2-1.31" fill="none" stroke="#231f20" stroke-width="14"/><path d="m244.9 140.09v.25.5 10 73.89h-71.79-.55" fill="none" stroke="#231f20" stroke-width="14"/><path d="m172.56 264.3h.55 73.91v78.56" fill="none" stroke="#231f20" stroke-width="14"/><path d="m297.2 340.73v-75.37h67.32" fill="none" stroke="#231f20" stroke-width="14"/><path d="m0 0h850.394v850.394h-850.394z" fill="none"/></svg>