<svg enable-background="new 0 0 850.394 850.394" height="850.394" viewBox="0 0 850.394 850.394" width="850.394" xmlns="http://www.w3.org/2000/svg"><path d="m748.18 380v140.17h-310.18v-.17-140h306z" fill="#ed1e29"/><path d="m748.18 292v88h-4.18-306v140 .17h-98.54v-2.17-140h-172.21l-.74-80.54h168.95v-157.12h100.54v155.12l312-3.46z" fill="#fff"/><path d="m748.18 140.34v151.66h-.18l-312 3.46v-155.12z" fill="#ed1e29"/><path d="m339.46 518v2.17h-170.9l-1.31-142.17h172.21z" fill="#ed1e29"/><path d="m335.46 140.34v157.12h-168.95l-1.44-157.12z" fill="#ed1e29"/><path d="m162.61 114.42c-5.96 2.8-13.07 4.43-20.69 4.43-7.3 0-14.12-1.49-19.92-4.08-10.99-4.89-18.33-13.72-18.33-23.8 0-15.4 17.13-27.88 38.25-27.88 21.13 0 38.26 12.48 38.26 27.88 0 9.84-7 18.49-17.57 23.45z" fill="#c8c8c8"/><path d="m162.61 378v407.38h-39.49l-1.12-670.61c5.8 2.59 12.62 4.08 19.92 4.08 7.62 0 14.73-1.63 20.69-4.43v183.04z" fill="#c8c8c8"/><g fill="none"><path d="m165.07 140.34h170.39 100.54 312.18v151.66 88 140.17h-310.18-98.54-170.9" stroke="#231f20" stroke-width="21"/><path d="m122 114.77c-10.99-4.89-18.33-13.72-18.33-23.8 0-15.4 17.13-27.88 38.25-27.88 21.13 0 38.26 12.48 38.26 27.88 0 9.84-7 18.49-17.57 23.45-5.96 2.8-13.07 4.43-20.69 4.43-7.3 0-14.12-1.49-19.92-4.08z" stroke="#231f20" stroke-width="21"/><path d="m122 114v.77l1.12 670.61" stroke="#231f20" stroke-width="21"/><path d="m162.61 112.6v1.82 183.04 80.54 407.38" stroke="#231f20" stroke-width="21"/><path d="m335.46 138v2.34 157.12h-168.95-3.9-2.61" stroke="#231f20" stroke-width="14"/><path d="m162 378h.61 4.64 172.21v140" stroke="#231f20" stroke-width="14"/><path d="m748 292-312 3.46v-155.12-2.34" stroke="#231f20" stroke-width="14"/><path d="m438 520v-140h306" stroke="#231f20" stroke-width="14"/><path d="m0 0h850.394v850.394h-850.394z"/></g></svg>