<svg enable-background="new 0 0 850.394 850.394" height="850.394" viewBox="0 0 850.394 850.394" width="850.394" xmlns="http://www.w3.org/2000/svg"><path d="m122 114.77c5.8 2.59 12.62 4.08 19.92 4.08 7.62 0 14.73-1.63 20.69-4.43v25.92 130.66 509h-2.61l-36.89 1.76z" fill="#c8c8c8"/><path d="m162.61 271v-130.66h2.46 583.11v116.66h-2.18-579.86-2.14v14z" fill="#fbed24"/><path d="m167.38 392.01.62-.01h186 232 158 4.18v128.17h-579.62z" fill="#ed1e29"/><path d="m746 257v14h-245.67-49.9-284.16l-.13-14z" fill="#231f20"/><path d="m597.88 364.85.57 1.76-2.46-.17z" fill="#231f20"/><path d="m593.63 381.45-1.5 1.09-.6-2.4z" fill="#231f20"/><path d="m591.24 373.03.33-1.01.15.61z" fill="#231f20"/><path d="m598.45 366.61.18.21-6.91 5.81-.15-.61-.33 1.01.48-.4 2.18 8.75-.27.07-2.1-1.31-1.9-7.63-.15-.61.48-.4 6.03-5.06z" fill="#231f20"/><path d="m588.9 363.93.23.58-.86-.62z" fill="#231f20"/><path d="m584.67 375.85c-.729-3.83-1.729-7.63-2.99-11.37l2.65-6.52 2.95 7.3.229.58.62.04 7.86.56-6.03 5.06-.479.4.149.61 1.9 7.63-6.681-4.17z" fill="#fff"/><path d="m585.12 378.5c-.14-.88-.29-1.77-.45-2.65l.18.12 6.681 4.17.6 2.4 1.5-1.09.271-.07.17.68.59 2.4-2.09-1.31z" fill="#231f20"/><path d="m583.4 355.67h1.85l-.92 2.29z" fill="#231f20"/><path d="m583.79 377.67h1.06l-.53.33z" fill="#231f20"/><path d="m584.33 357.96.92-2.29h-1.85l.93 2.29-2.65 6.52c-.319-.94-.649-1.89-1-2.83l2.721-6.73.92-2.29.93 2.29 3.65 9.01-.631-.04.86.62-.229-.58 9.689.68 2.47.18-1.899 1.59-.53.44-.18-.21-.57-1.76-1.89 1.59-7.86-.56-.62-.04-.229-.58z" fill="#231f20"/><path d="m581.7 329.97.57 1.76-2.46-.17z" fill="#231f20"/><path d="m578.69 371.5-6.03-5.06 7.859-.56.62-.04.23-.58.31-.78c1.261 3.74 2.261 7.54 2.99 11.37l-.35-.21-.53.33-6.67 4.17 1.899-7.64.15-.6z" fill="#fff"/><path d="m579.75 363.93.63-.04-.86.62z" fill="#231f20"/><path d="m577.37 346.82-1.5 1.09-.6-2.4z" fill="#231f20"/><path d="m577.08 372.02.33 1.01-.48-.4z" fill="#231f20"/><path d="m575.02 381.45 2.1-1.31-.6 2.4z" fill="#231f20"/><path d="m574.95 338.25.32-1.01.15.61z" fill="#231f20"/><path d="m577.12 380.14 6.67-4.17.53-.33.35.21c.16.88.311 1.77.45 2.65l-.8-.5.529-.33h-1.06l.53.33-8.24 5.15-2.09 1.31.59-2.4.17-.68.27.07 1.5 1.09z" fill="#231f20"/><path d="m577.81 347.43.601 2.4-2.101-1.31-2.64-1.65c-.72-1.27-1.479-2.52-2.27-3.77l3.869 2.41.601 2.4 1.5-1.09-2.101-1.31-1.939-7.78-.15-.61.48-.4 6.149-5.16 2.46.17.181.21-7.03 5.91-.15-.61-.319 1.01.47-.4z" fill="#231f20"/><path d="m570.2 366.61 2.46-.17 6.03 5.06.48.4-.15.6-1.9 7.64-2.1 1.31-.27-.07 2.18-8.75.48.4-.33-1.01-.15.61-6.91-5.81z" fill="#231f20"/><path d="m570.2 366.61.57-1.76 1.89 1.59z" fill="#231f20"/><path d="m572.57 329.04.23.58-.86-.62z" fill="#231f20"/><path d="m571.18 330.95.62.05 8.01.56-6.149 5.16-.48.4.15.61 1.939 7.78-3.869-2.41c-2.61-4.14-5.53-8.15-8.7-12l1.37-.1.62-.05.239-.57 3.011-7.44 3 7.44z" fill="#fff"/><path d="m572.66 366.44-1.891-1.59-.569 1.76-.181.21-.529-.44-1.9-1.59 2.47-.18 9.69-.68-.23.58.86-.62-.63.04.93-2.28c.351.94.681 1.89 1 2.83l-.31.78-.23.58-.62.04z" fill="#231f20"/><path d="m571.8 331-.62-.05-.24-.57-3-7.44.92-2.29.26-.11 3.45 8.5-.63-.04.86.62-.23-.58 9.84.7 2.47.17-1.9 1.59-.53.44-.18-.21-.57-1.76-1.89 1.59z" fill="#231f20"/><path d="m567.01 320.65h1.85l-.92 2.29z" fill="#231f20"/><path d="m567.41 342.96h1.05l-.52.33z" fill="#231f20"/><path d="m567.41 341.26-6.811 4.25 1.94-7.78.15-.61-.48-.4-6.15-5.16 6.641-.46c3.17 3.85 6.09 7.86 8.7 12l-2.94-1.84-.52-.33z" fill="#fff"/><path d="m563.3 329.04.63-.04-.86.62z" fill="#231f20"/><path d="m569.12 320.54-.26.11h-1.851l.931 2.29-3.011 7.44-.239.57-.62.05-1.37.1c-.521-.63-1.05-1.27-1.59-1.9l2.189-.16-.229.58.859-.62-.63.04 3.71-9.14.931-2.3.92 2.3z" fill="#231f20"/><path d="m560.6 337.24.32 1.01-.47-.4z" fill="#231f20"/><path d="m558.5 346.82 2.1-1.31-.6 2.4z" fill="#231f20"/><path d="m560.6 345.51 6.811-4.25.53-.33.52.33 2.94 1.84c.79 1.25 1.55 2.5 2.27 3.77l-5.729-3.58.52-.33h-1.05l.53.33-8.381 5.23-2.09 1.31.59-2.4.171-.68.27.07 1.5 1.09z" fill="#231f20"/><path d="m560.92 338.25-.32-1.01-.15.61-7.03-5.91.18-.21 2.46-.17 6.15 5.16.48.4-.15.61-1.94 7.78-2.1 1.31-.27-.07 2.22-8.9z" fill="#231f20"/><path d="m553.6 331.73.57-1.76 1.89 1.59z" fill="#231f20"/><path d="m553.96 305.13.55 1.71-2.39-.17z" fill="#231f20"/><path d="m562.7 331.1-6.641.46-1.89-1.59-.57 1.76-.18.21-.53-.44-1.899-1.59 2.47-.17 7.65-.54c.54.63 1.07 1.27 1.59 1.9z" fill="#231f20"/><path d="m549.51 322.25-1.46 1.06-.58-2.33z" fill="#231f20"/><path d="m547.05 313.47.31-.98.15.6z" fill="#231f20"/><path d="m545.79 311.98 6.33-5.31 2.39.17-.55-1.71.021-.28.67.05 2.399.17-1.84 1.55-7.7 6.47-.149-.6-.311.98.46-.38.78 3.14c-.84-.74-1.69-1.47-2.54-2.19l-.27-1.08-.15-.59z" fill="#231f20"/><path d="m544.62 304.19.23.57-.83-.61z" fill="#231f20"/><path d="m552.12 306.67-8.24-.57-.61-.05-.22-.56-3.1-7.65.9-2.23.25-.1 3.52 8.68-.6-.04.83.61-.23-.57 9.36.66-.02.28z" fill="#231f20"/><path d="m539.44 318.25h1.03l-.51.32z" fill="#231f20"/><path d="m539.05 295.61h1.8l-.9 2.23z" fill="#231f20"/><path d="m534.11 311.98-6.32-5.31 7.61-.53c3.569 2.47 7.029 5.11 10.35 7.9l1.72 6.94-7-4.38-.52-.32-.51.32-7.011 4.38 2-8.02.15-.59z" fill="#fff"/><path d="m543.88 306.1 8.24.57-6.33 5.31-.46.39.15.59.27 1.08c-3.32-2.79-6.78-5.43-10.35-7.9l.619-.04.61-.05.23-.56 3.09-7.65 3.1 7.65.22.56z" fill="#fff"/><path d="m535.28 304.19.61-.04-.84.61z" fill="#231f20"/><path d="m535.4 306.14c-.87-.59-1.75-1.19-2.631-1.77l2.511-.18-.23.57.84-.61-.609.04 3.77-9.31.9-2.23.899 2.23.25.63-.25.1h-1.8l.9 2.23-3.09 7.65-.23.56-.61.05z" fill="#231f20"/><path d="m532.54 312.49.32.98-.47-.39z" fill="#231f20"/><path d="m532.43 320.98-.58 2.33-1.45-1.06z" fill="#231f20"/><path d="m532.43 320.98 7.011-4.38.51-.32.52.32 7 4.38.58 2.33 1.46-1.06-2.04-1.27-1.72-6.94c.85.72 1.7 1.45 2.54 2.19l1.65 6.61.579 2.33-2.039-1.27-8.521-5.33.51-.32h-1.029l.52.32-8.53 5.33-2.05 1.27.59-2.33.16-.65.26.06h.011l1.449 1.06z" fill="#231f20"/><path d="m525.39 306.84.56-1.71 1.84 1.54z" fill="#231f20"/><path d="m527.79 306.67 6.32 5.31.47.39-.15.59-2 8.02-2.029 1.27h-.011l-.26-.06 2.26-9.11.471.39-.32-.98-.15.59-7.689-6.46-1.851-1.55 2.4-.17 7.52-.53c.881.58 1.761 1.18 2.631 1.77l-7.612.53-1.84-1.54-.561 1.71z" fill="#231f20"/><path d="m512.97 284.8.57 1.76-2.46-.17z" fill="#231f20"/><path d="m513.54 286.56.18.21-5.689 4.79c-.721-.28-1.431-.55-2.15-.81l5.2-4.36z" fill="#231f20"/><path d="m506.97 299.01 2.1 1.31-1.5 1.09z" fill="#231f20"/><path d="m507.32 292.15 2.02 8.1-.27.07-2.101-1.31-1.739-6.98-.15-.61.479-.4.32-.27c.72.26 1.43.53 2.15.81l-.709.59-.15-.61-.32 1.01z" fill="#231f20"/><path d="m507.17 291.54.15.61-.47.4z" fill="#231f20"/><path d="m504.66 283.93.23.58-.86-.62z" fill="#231f20"/><path d="m504.89 284.51-.23-.58 9.02.63 2.47.18-1.9 1.59-.53.44-.18-.21-.57-1.76-1.89 1.59-7.19-.51-.62-.04-.24-.58-2.7-6.67.93-2.3.26-.11 3.14 7.75-.63-.04z" fill="#231f20"/><path d="m500.33 271h245.67v-14h2.18v135h-4.18-158v-2c0-3.86-.3-7.7-.88-11.5l7.45 4.65 2.09 1.31-.59-2.4-.17-.68-2.181-8.75 6.91-5.81.53-.44 1.899-1.59-2.47-.18-9.689-.68-3.65-9.01-.93-2.29-.92 2.29-2.721 6.73c-1.89-5.05-4.25-9.99-7.01-14.78l2.64 1.65 2.101 1.31-.601-2.4-2.39-9.58 7.03-5.91.53-.44 1.899-1.59-2.47-.17-9.84-.7-3.45-8.5-.26-.64-.92-2.3-.931 2.3-3.71 9.14-2.189.16c-3.931-4.58-8.23-8.92-12.82-12.97l-.78-3.14 7.7-6.47 1.84-1.55-2.399-.17-.67-.05-9.36-.66-3.521-8.68-.25-.63-.899-2.23-.9 2.23-3.77 9.31-2.511.18c-7.84-5.15-16.18-9.48-24.739-12.81l5.689-4.79.53-.44 1.9-1.59-2.471-.18-9.02-.63-3.141-7.75-.26-.64-.93-2.29v-2.25z" fill="#394ea1"/><path d="m499.4 276.29h1.86l-.93 2.3z" fill="#231f20"/><path d="m499.8 296.9h1.06l-.53.33z" fill="#231f20"/><path d="m493.7 299.01 6.1-3.81.53-.33.53.33 6.11 3.81.6 2.4 1.5-1.09.27-.07.17.68.6 2.4-2.1-1.31-7.68-4.79.53-.33h-1.06l.53.33-7.08 4.42-.15-.24z" fill="#231f20"/><path d="m503.89 285.88 7.19.51-5.2 4.36c-5-1.84-10.07-3.33-15.149-4.44l6.039-.43.631-.04.229-.58 2.7-6.67 2.7 6.67.239.58z" fill="#fff"/><path d="m496.63 283.89-.85.62.23-.58z" fill="#231f20"/><path d="m493.7 299.01-.6 2.4-1.5-1.09z" fill="#231f20"/><path d="m493.49 291.54.33 1.01-.48-.4z" fill="#231f20"/><path d="m490.71 286.31-1.12.08-.49-.41c.54.1 1.07.21 1.61.33z" fill="#231f20"/><path d="m495.43 292.03.15-.61-.48-.4-5.51-4.63 1.12-.08h.021c5.079 1.11 10.149 2.6 15.149 4.44l-.32.27-.479.4.15.61 1.739 6.98-6.109-3.81-.53-.33-.53.33-6.1 3.81z" fill="#fff"/><path d="m487.7 284.8 1.399 1.18c-.56-.13-1.119-.23-1.68-.33z" fill="#231f20"/><path d="m489.1 285.98.49.41-2.47.17.3-.91c.56.1 1.12.2 1.68.33z" fill="#231f20"/><path d="m495.58 291.42-.15.61-1.729 6.98-2.101 1.31 1.5 1.09.15.24-.6.37-2.091 1.31.591-2.4 2.189-8.78.48.4-.33-1.01-.15.61-6.93-5.82-1.29-1.08c.76.12 1.53.25 2.3.4l-.3.91 2.47-.17 5.51 4.63z" fill="#231f20"/><path d="m496.77 285.88-6.039.43h-.021c-.54-.12-1.07-.23-1.61-.33l-1.399-1.18-.28.85c-.77-.15-1.54-.28-2.3-.4l-.601-.51 2.461-.18 9.029-.63-.229.58.85-.62-.62.04 3.391-8.39.93-2.29.93 2.29.26.64-.26.11h-1.862l.93 2.3-2.7 6.67-.229.58z" fill="#231f20"/><path d="m462.85 283.93.12.37c-.2 0-.41.02-.609.04z" fill="#231f20"/><path d="m462.97 284.3.391 1.2-2.2-.15 1.2-1.01c.199-.02.409-.04.609-.04z" fill="#231f20"/><path d="m462.36 284.34-1.2 1.01-4.57-.32c1.93-.3 3.85-.53 5.77-.69z" fill="#231f20"/><path d="m458.93 299.13-1.33.97-.53-2.13z" fill="#231f20"/><path d="m456.74 291.38.3-.89.13.53z" fill="#231f20"/><path d="m462.97 284.3c.811-.08 1.61-.13 2.42-.17l-1.399 1.17-6.82 5.72-.13-.53-.3.89.43-.36 2.15 8.65.529 2.14-1.859-1.17-.521-.33.13-.21 1.33-.97-1.859-1.16-1.761-7.05-.14-.54.43-.36 5.561-4.67 2.2.15z" fill="#231f20"/><path d="m454.59 283.1.2.51-.75-.55z" fill="#231f20"/><path d="m453.36 284.8-.21-.52-2.721-6.73.82-2.04.23-.09 3.109 7.68-.55-.04.75.55-.2-.51 8.891.63 2.199.15-.29.25c-.81.04-1.609.09-2.42.17l-.12-.37-.489.41c-1.92.16-3.841.39-5.771.69l-2.67-.19z" fill="#231f20"/><path d="m450.43 271h49.9v2.25l-.93 2.29-3.391 8.39-9.029.63-2.461.18.601.51c-5.06-.82-10.12-1.25-15.12-1.25-1.53 0-3.07.04-4.61.13l.29-.25-2.199-.15-8.891-.63-3.109-7.68-.23-.58-.82-2.04v-1.8z" fill="#394ea1"/><path d="m449.6 275.51h1.65l-.82 2.04z" fill="#231f20"/><path d="m449.96 295.63h.94l-.47.29z" fill="#231f20"/><path d="m450.43 295.92-7.04 4.39-.13-.21.53-2.13 6.17-3.85.47-.29.47.29 6.17 3.85.53 2.13-.13.21-7.04-4.39.47-.29h-.94z" fill="#231f20"/><path d="m446.26 283.1.56-.04-.76.55z" fill="#231f20"/><path d="m445.26 290.02-2.35-1.97c4.54-1.33 9.12-2.35 13.68-3.02l4.57.32-5.561 4.67-.43.36.14.54 1.761 7.05-6.17-3.85-.471-.29-.47.29-6.17 3.85 1.76-7.05.13-.54z" fill="#fff"/><path d="m439.7 285.35 7.24-.51.55-.04.21-.52 2.729-6.73 2.721 6.73.21.52.56.04 2.67.19c-4.56.67-9.14 1.69-13.68 3.02z" fill="#fff"/><path d="m443.82 290.49.29.89-.42-.36z" fill="#231f20"/><path d="m443.79 297.97-.53 2.13-1.33-.97z" fill="#231f20"/><path d="m443.69 291.02-2.82-2.36c.68-.22 1.36-.42 2.04-.61l2.35 1.97.42.36-.13.54-1.76 7.05-1.86 1.16 1.33.97.13.21-.52.33-1.87 1.17.53-2.14 2.16-8.65.42.36-.29-.89z" fill="#231f20"/><path d="m417.57 298.7c7.52-4.17 15.35-7.57 23.3-10.04l2.82 2.36-2.16 8.65-.53 2.14 1.87-1.17.52-.33 7.04-4.39 7.04 4.39.521.33 1.859 1.17-.529-2.14-2.15-8.65 6.82-5.72 1.399-1.17c1.54-.09 3.08-.13 4.61-.13 5 0 10.06.43 15.12 1.25l1.29 1.08 6.93 5.82-2.189 8.78-.591 2.4 2.091-1.31.6-.37 7.08-4.42 7.68 4.79 2.101 1.31-.601-2.4-.17-.68-2.02-8.1.71-.59c8.56 3.33 16.899 7.66 24.739 12.81l-7.52.53-2.4.17 1.851 1.55 7.689 6.46-2.26 9.11-.16.65-.59 2.33 2.05-1.27 8.53-5.33 8.521 5.33 2.039 1.27-.579-2.33-1.65-6.61c4.59 4.05 8.89 8.39 12.82 12.97l-7.65.54-2.47.17 1.899 1.59.53.44 7.03 5.91-2.22 8.9-.171.68-.59 2.4 2.09-1.31 8.381-5.23 5.729 3.58c2.76 4.79 5.12 9.73 7.01 14.78l-.93 2.28-9.69.68-2.47.18 1.9 1.59.529.44 6.91 5.81-2.18 8.75-.17.68-.59 2.4 2.09-1.31 8.24-5.15.8.5c.58 3.8.88 7.64.88 11.5v2h-231.998c0-4.07.34-8.13.99-12.16l7.28 4.55 1.98 1.24-.57-2.27-.16-.63-2.23-8.98 7.08-5.94.51-.43 1.78-1.5-2.33-.16-9.57-.68c1.39-3.96 3.06-7.87 4.98-11.69l1.82-1.14 8.91-5.56 8.9 5.56 1.97 1.23-.56-2.25-.16-.64-2.38-9.56 7.54-6.33.5-.42 1.78-1.49-2.31-.16-10.48-.74-.49-1.22c6.26-7.47 13.45-14.35 21.27-20.39l-1.34 5.36-.54 2.18 1.91-1.19 7.89-4.93 7.37 4.6.53.33 1.9 1.19-.54-2.18-2.24-9.04 7.12-5.98 1.72-1.44-2.24-.16z" fill="#394ea1"/><path d="m437.5 285.5.51-1.57 1.69 1.42z" fill="#231f20"/><path d="m437.5 285.5 2.2-.15 3.21 2.7c-.68.19-1.36.39-2.04.61l-4.01-3.36-1.681-1.42 2.19-.15 8.89-.63-.2.51.761-.55-.561.04 3.34-8.26.83-2.04.82 2.04.23.58-.23.09h-1.65l.83 2.04-2.729 6.73-.21.52-.55.04-7.24.51-1.69-1.42z" fill="#231f20"/><path d="m419.23 300.63 1.72-1.44.52 1.6z" fill="#231f20"/><path d="m414.93 313.86 1.9 1.19-1.36.99z" fill="#231f20"/><path d="m414.99 306.56-.44.37.3-.91z" fill="#231f20"/><path d="m413.09 306.45-.14-.55.43-.36 5.85-4.91 2.24.16-.52-1.6-1.72 1.44-4.51-.31c.95-.55 1.9-1.1 2.85-1.62l4.02.28 2.24.16-1.72 1.44-7.12 5.98-.14-.54-.3.91.44-.37 2.24 9.04.54 2.18-1.9-1.19-.53-.33.13-.22 1.36-.99-1.9-1.19z" fill="#231f20"/><path d="m411.74 298.29.57.04.21.52z" fill="#231f20"/><path d="m412.52 298.85-.21-.52 5.26.37c-.95.52-1.9 1.07-2.85 1.62l-3.11-.22-.56-.04-.21-.53-2.87-7.08.84-2.08.24-.1 3.26 8.06-.57-.04z" fill="#231f20"/><path d="m407.97 292.45-.84-2.08h1.68z" fill="#231f20"/><path d="m407.97 311.66-.48-.3h.96z" fill="#231f20"/><path d="m412.95 305.9.14.55 1.84 7.41-6.48-4.04-.48-.3-.48.3-6.47 4.04 1.33-5.37c3.99-2.94 8.13-5.68 12.37-8.17l4.51.31-5.85 4.91z" fill="#fff"/><path d="m411.61 300.1 3.11.22c-4.24 2.49-8.38 5.23-12.37 8.17l.51-2.04.14-.55-.44-.36-5.84-4.91 7.61-.53.57-.04.21-.53 2.86-7.08 2.87 7.08.21.53z" fill="#fff"/><g fill="#231f20"><path d="m403.64 298.33.57-.04-.78.56z"/><path d="m401.1 306.02.3.91-.44-.37z"/><path d="m401.02 313.86-.54 2.18-1.37-.99z"/><path d="m415.34 316.26-7.37-4.6.48-.3h-.96l.48.3-7.89 4.93-1.91 1.19.54-2.18 1.34-5.36c.77-.59 1.53-1.17 2.3-1.75l-1.33 5.37-1.91 1.19 1.37.99.54-2.18 6.47-4.04.48-.3.48.3 6.48 4.04.54 2.18z"/><path d="m403.64 298.33 3.49-8.64.84-2.08.85 2.08.23.58-.24.1h-1.68l.84 2.08-2.86 7.08-.21.53-.57.04-7.61.53-1.72-1.44-.02-.25 8.66-.61-.21.52.78-.56z"/><path d="m396.72 300.63-2.24.16.52-1.6z"/><path d="m401.4 306.93-.3-.91-.14.54-7.13-5.98-1.71-1.44 2.23-.16.63-.04.02.25-.52 1.6 2.24-.16 5.84 4.91.44.36-.14.55-.51 2.04c-.77.58-1.53 1.16-2.3 1.75l.91-3.68z"/><path d="m389.08 332.81.53 1.65-2.3-.16z"/><path d="m382.4 349.4 1.96 1.22-1.4 1.02z"/><path d="m382.24 340.99 2.38 9.56-.26.07-1.96-1.22-2.12-8.52-.14-.56.45-.38 6.72-5.64 2.3.16.17.2-7.54 6.33-.14-.56-.31.94z"/><path d="m381.79 341.37.31-.94.14.56z"/><path d="m378.69 331.81.58.04.22.55z"/><path d="m389.08 332.81-1.77 1.49-8.75-.62-.59-.04-.22-.54-.33-.82c.45-.55.9-1.1 1.36-1.65l.49 1.22-.58-.04.8.59-.22-.55 10.48.74 2.31.16-1.78 1.49-.5.42-.17-.2z"/><path d="m374.46 324.97.87-2.15.24-.1 3.21 7.91c-.46.55-.91 1.1-1.36 1.65z"/><path d="m374.47 346.65-.5-.31h.99z"/><path d="m373.59 322.82h1.74l-.87 2.15z"/><path d="m370.24 331.81-.8.59.22-.55z"/></g><path d="m368.34 339.94-6.72-5.64 8.75-.62.59-.04.21-.54 3.29-8.13 2.96 7.31c-3.85 4.76-7.32 9.75-10.34 14.91l1.57-6.31.14-.56z" fill="#fff"/><path d="m365.88 367.44 1.78-1.5.54 1.66z" fill="#231f20"/><path d="m373.97 344.75-7.44 4.64.55-2.2c3.02-5.16 6.49-10.15 10.34-14.91l.33.82.22.54.59.04 8.75.62-6.72 5.64-.45.38.14.56 2.12 8.52-7.44-4.65-.5-.31z" fill="#fff"/><path d="m366.83 340.43.3.94-.44-.37z" fill="#231f20"/><path d="m366.53 349.39-1.07.67c.52-.96 1.06-1.92 1.62-2.87z" fill="#231f20"/><path d="m365.46 350.06 1.07-.67-.56 2.25-.99-.71z" fill="#231f20"/><path d="m366.53 349.39 7.44-4.64.49-.31.5.31 7.44 4.65.56 2.24 1.4-1.02.26-.07.16.64.56 2.25-1.97-1.23-8.9-5.56.49-.31h-.99l.5.31-8.91 5.56-1.82 1.14c.4-.81.82-1.61 1.24-2.42l.99.71z" fill="#231f20"/><path d="m364.56 350.62.9-.56c-.16.29-.32.58-.48.87z" fill="#231f20"/><path d="m361.29 381.55 1.98 1.24-1.42 1.03z" fill="#231f20"/><path d="m368.65 340.88-1.57 6.31c-.56.95-1.1 1.91-1.62 2.87l-.9.56.42.31c-.42.81-.84 1.61-1.24 2.42l-.15.09.56-2.25 2.54-10.19.44.37-.3-.94-.14.57-7.55-6.34.17-.2 2.31-.16 6.72 5.64.45.38z" fill="#231f20"/><path d="m359.31 334.46.54-1.65 1.77 1.49z" fill="#231f20"/><path d="m360.84 374.13.31-.95.14.57z" fill="#231f20"/><path d="m368.37 367.81-7.08 5.94-.14-.57-.31.95.45-.38 2.23 8.98-.25.06-1.98-1.24-1.97-7.91-.14-.58.45-.38 6.25-5.24 2.32.16z" fill="#231f20"/><path d="m358.13 366.9 7.75.54-6.25 5.24-.45.38.14.58 1.97 7.91-5.96-3.72c.69-3.67 1.63-7.32 2.8-10.93z" fill="#fff"/><path d="m359.18 332.59 10.48-.74-.22.55.8-.59-.58.04 3.93-9.73.87-2.15.87 2.15.24.6-.24.1h-1.74l.87 2.15-3.29 8.13-.21.54-.59.04-8.75.62-1.77-1.49-.54 1.65-.17.2-.5-.42-1.77-1.49z" fill="#231f20"/><path d="m358.63 365.43.05.14-.08-.06c.01-.03.02-.06.03-.08z" fill="#231f20"/><path d="m358.46 365.02.3.02c-.04.13-.09.26-.13.39z" fill="#231f20"/><path d="m358.6 365.51-.73-.53.59.04.17.41c-.01.02-.02.05-.03.08z" fill="#231f20"/><path d="m367.66 365.94-1.78 1.5-7.75-.54c.16-.46.31-.93.47-1.39l.08.06-.05-.14c.04-.13.09-.26.13-.39l9.57.68 2.33.16-1.78 1.5-.51.43-.17-.21z" fill="#231f20"/><path d="m361.29 381.55.56 2.27 1.42-1.03.25-.06.16.63.57 2.27-1.98-1.24-7.28-4.55c.1-.67.22-1.34.34-2.01z" fill="#231f20"/><path d="m357.15 366.82.59.05.39.03c-1.17 3.61-2.11 7.26-2.8 10.93l-.96-.6-.5-.31-.5.31-6.93 4.33 1.98-7.92.14-.58-.45-.38-6.25-5.24 8.14-.57.59-.05.22-.54 3.06-7.57 3.06 7.57z" fill="#fff"/><path d="m357.87 364.98.73.53c-.16.46-.31.93-.47 1.39l-.39-.03-.59-.05-.22-.54-3.06-7.57.87-2.16.25-.1 3.47 8.57z" fill="#231f20"/><path d="m436.86 285.3 4.01 3.36c-7.95 2.47-15.78 5.87-23.3 10.04l-5.26-.37-3.26-8.06-.23-.58-.85-2.08-.84 2.08-3.49 8.64-8.66.61-.63.04-2.23.16 1.71 1.44 7.13 5.98-.91 3.68c-7.82 6.04-15.01 12.92-21.27 20.39l-3.21-7.91-.24-.6-.87-2.15-.87 2.15-3.93 9.73-10.48.74-2.31.16 1.77 1.49.5.42 7.55 6.34-2.54 10.19-.56 2.25.15-.09c-1.92 3.82-3.59 7.73-4.98 11.69l-.3-.02-3.47-8.57-.25-.61-.87-2.16-.88 2.16-3.71 9.18-9.88.7-2.33.16 1.79 1.5.5.42 7.08 5.95-2.39 9.61-.56 2.27 1.97-1.24.56-.35 7.85-4.9 1.12.7c-.65 4.03-.99 8.09-.99 12.16h-186l-.62.01-1.11-121.01h284.16v1.8l-.83 2.04-3.34 8.26-8.89.63-2.19.15z" fill="#394ea1"/><path d="m353.87 358.71-.88-2.16h1.75z" fill="#231f20"/><path d="m353.87 379.14-.5-.31h1z" fill="#231f20"/><path d="m346.44 381.56 6.93-4.33.5-.31.5.31.96.6c-.12.67-.24 1.34-.34 2.01l-1.12-.7.5-.31h-1l.5.31-7.85 4.9-.14-.22z" fill="#231f20"/><path d="m349.28 365.02.59-.04-.81.59z" fill="#231f20"/><path d="m346.44 373.75.14-.57.31.95z" fill="#231f20"/><path d="m346.44 381.56-.56 2.26-1.41-1.03z" fill="#231f20"/><path d="m348.11 372.68.45.38-.14.58-1.98 7.92-1.97 1.23 1.41 1.03.14.22-.56.35-1.97 1.24.56-2.27 2.39-9.61.45.38-.31-.95-.14.57-7.08-5.95.17-.2 2.33-.16z" fill="#231f20"/><path d="m341.86 367.44-2.33.16.54-1.66z" fill="#231f20"/><path d="m349.28 365.02 3.71-9.18.88-2.16.87 2.16.25.61-.25.1h-1.75l.88 2.16-3.06 7.57-.22.54-.59.05-8.14.57-1.79-1.5-.54 1.66-.17.2-.5-.42-1.79-1.5 2.33-.16 9.88-.7-.22.55.81-.59z" fill="#231f20"/><path d="m141.92 63.09c21.13 0 38.26 12.48 38.26 27.88 0 9.84-7 18.49-17.57 23.45-5.96 2.8-13.07 4.43-20.69 4.43-7.3 0-14.12-1.49-19.92-4.08-10.99-4.89-18.33-13.72-18.33-23.8 0-15.4 17.13-27.88 38.25-27.88z" fill="#c8c8c8"/><path d="m166.14 257 .13 14h-2.27v-14z" fill="#231f20"/><path d="m165.07 140.34h583.11v116.66 135 128.17h-579.62" fill="none" stroke="#231f20" stroke-width="14"/><path d="m122 114.77c-10.99-4.89-18.33-13.72-18.33-23.8 0-15.4 17.13-27.88 38.25-27.88 21.13 0 38.26 12.48 38.26 27.88 0 9.84-7 18.49-17.57 23.45-5.96 2.8-13.07 4.43-20.69 4.43-7.3 0-14.12-1.49-19.92-4.08z" fill="none" stroke="#231f20" stroke-width="21"/><path d="m122 114v.77l1.11 666.99.01 3.62" fill="none" stroke="#231f20" stroke-width="21"/><path d="m162.61 112.6v1.82 25.92 130.66 509 5.38" fill="none" stroke="#231f20" stroke-width="21"/><path d="m168 392h186 232 158" fill="none" stroke="#231f20" stroke-width="14"/><path d="m0 0h850.394v850.394h-850.394z" fill="none"/></svg>