<svg enable-background="new 0 0 850.394 850.394" height="850.394" viewBox="0 0 850.394 850.394" width="850.394" xmlns="http://www.w3.org/2000/svg"><path d="m162.61 114.42v670.96h-39.49l-1.12-670.61c5.8 2.59 12.62 4.08 19.92 4.08 7.62 0 14.73-1.63 20.69-4.43z" fill="#c8c8c8"/><path d="m748.18 177.46v342.71h-579.62l-3.49-379.83h583.11zm-136.93 202.17c0-27.89 0-55.77 0-83.65-32.84-.89-69.24 1.77-99.84-1.35 0-32.83 0-65.66 0-98.5-27.44 0-54.87 0-82.3 0-4.03 30.15 1.33 69.69-2.7 99.85-32.83 0-65.66 0-98.49 0v83.65c32.84.88 69.23-1.78 99.84 1.35v98.49h83.65c.88-32.85-1.78-69.24 1.35-99.84z" fill="#fff"/><path d="m611.25 295.98v83.65c-32.83 0-65.66 0-98.49 0-3.13 30.6-.47 66.99-1.35 99.84-27.88 0-55.771 0-83.65 0 0-32.83 0-65.66 0-98.49-30.61-3.13-67-.47-99.84-1.35 0-27.89 0-55.77 0-83.65h98.49c4.03-30.16-1.33-69.7 2.7-99.85h82.3v98.5c30.6 3.12 67 .46 99.84 1.35z" fill="#ed1e29"/><path d="m162.61 114.42c-5.96 2.8-13.07 4.43-20.69 4.43-7.3 0-14.12-1.49-19.92-4.08-10.99-4.89-18.33-13.72-18.33-23.8 0-15.4 17.13-27.88 38.25-27.88 21.13 0 38.26 12.48 38.26 27.88 0 9.84-7 18.49-17.57 23.45z" fill="#c8c8c8"/><g fill="none"><path d="m165.07 140.34h583.11v37.12 342.71h-579.62" stroke="#231f20" stroke-width="21"/><path d="m122 114.77c-10.99-4.89-18.33-13.72-18.33-23.8 0-15.4 17.13-27.88 38.25-27.88 21.13 0 38.26 12.48 38.26 27.88 0 9.84-7 18.49-17.57 23.45-5.96 2.8-13.07 4.43-20.69 4.43-7.3 0-14.12-1.49-19.92-4.08z" stroke="#231f20" stroke-width="21"/><path d="m122 114v.77l1.12 670.61" stroke="#231f20" stroke-width="21"/><path d="m162.61 112.6v1.82 670.96" stroke="#231f20" stroke-width="21"/><path d="m744.76 179.39 3.42-1.93 2.01-1.14" stroke="#231f20" stroke-width="14"/><path d="m511.41 196.13v98.5c30.6 3.12 67 .46 99.84 1.35v83.65c-32.83 0-65.66 0-98.49 0-3.13 30.6-.47 66.99-1.35 99.84-27.88 0-55.771 0-83.65 0 0-32.83 0-65.66 0-98.49-30.61-3.13-67-.47-99.84-1.35 0-27.89 0-55.77 0-83.65h98.49c4.03-30.16-1.33-69.7 2.7-99.85z" stroke="#231f20" stroke-width="14"/><path d="m0 0h850.394v850.394h-850.394z"/></g></svg>