<svg enable-background="new 0 0 850.394 850.394" height="850.394" viewBox="0 0 850.394 850.394" width="850.394" xmlns="http://www.w3.org/2000/svg"><path d="m162.61 430v54 301.38h-39.49l-1.12-670.61c5.8 2.59 12.62 4.08 19.92 4.08 7.62 0 14.73-1.63 20.69-4.43v211.58 20.16 23.84 30z" fill="#c8c8c8"/><path d="m748.18 484v36.17h-579.62l-.33-36.17h579.77z" fill="#ed1e29"/><path d="m748.18 458v26h-.18-579.77l-.24-26h.01 580z" fill="#fff"/><path d="m748.18 430v28h-.18-580-.01l-.26-28h578.27z" fill="#ed1e29"/><path d="m748.18 400v30h-2.18-578.27l-.27-30z" fill="#fff"/><path d="m748.18 370v30h-580.72l-.28-30h578.82z" fill="#ed1e29"/><path d="m748.18 340v30h-2.18-578.82l-.22-23.84h259.2v-6.16h317.84z" fill="#fff"/><path d="m748.18 310v30h-4.18-317.84v-30h321.84z" fill="#ed1e29"/><path d="m748.18 280v30h-.18-321.84v-30h1.84 318z" fill="#fff"/><path d="m748.18 252.02v27.98h-2.18-318-1.84v-26h1.84z" fill="#ed1e29"/><path d="m748.18 226v26.02l-320.18 1.98h-1.84v-28h1.84z" fill="#fff"/><path d="m748.18 198v28h-320.18-1.84v-28h321.84z" fill="#ed1e29"/><path d="m748.18 177.46v20.54h-.18-321.84v-26h1.84 318 2.18z" fill="#fff"/><path d="m748.18 140.34v31.66h-2.18-318-1.84v-31.66z" fill="#ed1e29"/><path d="m415 320.89-4.6 5.6.64 7.44-6.4-2.96-6.4 2.96.65-7.44-4.6-5.6 6.8-1.64 3.55-6.43 3.56 6.43z" fill="#fff"/><path d="m412.63 245.64-4.6 5.61.64 7.44-6.4-2.96-6.4 2.96.65-7.44-4.6-5.61 6.8-1.64 3.55-6.42 3.56 6.42z" fill="#fff"/><path d="m412.6 278.39-4.6 5.61.65 7.44-6.41-2.96-6.4 2.96.65-7.44-4.6-5.61 6.8-1.64 3.55-6.42 3.56 6.42z" fill="#fff"/><path d="m411.64 164.61-4.28 5.22.6 6.92-5.96-2.75-5.96 2.75.6-6.92-4.28-5.22 6.33-1.53 3.31-5.98 3.31 5.98z" fill="#fff"/><path d="m411.46 204.27-4.6 5.61.64 7.43-6.4-2.95-6.4 2.95.65-7.43-4.61-5.61 6.81-1.64 3.55-6.43 3.56 6.43z" fill="#fff"/><path d="m396.03 298.03-4.6 5.61.64 7.44-6.4-2.96-6.4 2.96.65-7.44-4.61-5.61 6.81-1.64 3.55-6.42 3.56 6.42z" fill="#fff"/><path d="m392.86 226.59-4.6 5.61.65 7.44-6.41-2.96-6.4 2.96.65-7.44-4.6-5.61 6.8-1.64 3.55-6.43 3.56 6.43z" fill="#fff"/><path d="m392.12 260.39-4.61 5.61.65 7.44-6.4-2.96-6.41 2.96.65-7.44-4.6-5.61 6.8-1.64 3.56-6.42 3.55 6.42z" fill="#fff"/><path d="m391.54 184.36-4.52 5.51.64 7.31-6.29-2.91-6.29 2.91.63-7.31-4.52-5.51 6.68-1.61 3.5-6.31 3.49 6.31z" fill="#fff"/><path d="m373.92 283.64-4.61 5.61.65 7.44-6.4-2.96-6.41 2.96.65-7.44-4.6-5.61 6.8-1.64 3.56-6.42 3.55 6.42z" fill="#fff"/><path d="m372.65 244.39-4.6 5.61.64 7.44-6.4-2.96-6.4 2.96.65-7.44-4.61-5.61 6.81-1.64 3.55-6.42 3.56 6.42z" fill="#fff"/><path d="m372.12 318.39-4.61 5.61.65 7.44-6.4-2.96-6.41 2.96.65-7.44-4.6-5.61 6.8-1.64 3.56-6.42 3.55 6.42z" fill="#fff"/><path d="m368.12 207.43-4.61 5.61.65 7.44-6.4-2.96-6.41 2.96.65-7.44-4.6-5.61 6.8-1.64 3.56-6.42 3.55 6.42z" fill="#fff"/><path d="m367.64 164.61-4.28 5.22.6 6.92-5.96-2.75-5.96 2.75.6-6.92-4.28-5.22 6.33-1.53 3.31-5.98 3.31 5.98z" fill="#fff"/><path d="m352.07 297.82-4.6 5.61.64 7.44-6.4-2.96-6.4 2.96.64-7.44-4.6-5.61 6.8-1.64 3.56-6.42 3.56 6.42z" fill="#fff"/><path d="m351.01 263.35-4.61 5.61.65 7.44-6.4-2.96-6.41 2.96.65-7.44-4.6-5.61 6.8-1.64 3.56-6.42 3.55 6.42z" fill="#fff"/><path d="m350.12 225.43-4.61 5.61.65 7.44-6.4-2.96-6.41 2.96.65-7.44-4.6-5.61 6.8-1.64 3.56-6.42 3.55 6.42z" fill="#fff"/><path d="m348.29 186.78-4.29 5.22.6 6.93-5.96-2.76-5.96 2.76.6-6.93-4.28-5.22 6.33-1.53 3.31-5.98 3.31 5.98z" fill="#fff"/><path d="m426.16 340v6.16h-259.2l-1.89-205.82h261.09v31.66 26 28 28 26 30zm-91.92-63.6 6.41-2.96 6.4 2.96-.65-7.44 4.61-5.61-6.81-1.64-3.55-6.42-3.56 6.42-6.8 1.64 4.6 5.61zm15.88-50.97-6.81-1.64-3.55-6.42-3.56 6.42-6.8 1.64 4.6 5.61-.65 7.44 6.41-2.96 6.4 2.96-.65-7.44zm1.95 72.39-6.8-1.64-3.56-6.42-3.56 6.42-6.8 1.64 4.6 5.61-.64 7.44 6.4-2.96 6.4 2.96-.64-7.44zm-.72-77.34 6.41-2.96 6.4 2.96-.65-7.44 4.61-5.61-6.81-1.64-3.55-6.42-3.56 6.42-6.8 1.64 4.6 5.61zm17.34 36.96-.64-7.44 4.6-5.61-6.8-1.64-3.56-6.42-3.55 6.42-6.81 1.64 4.61 5.61-.65 7.44 6.4-2.96zm1.27 39.25-.65-7.44 4.61-5.61-6.81-1.64-3.55-6.42-3.56 6.42-6.8 1.64 4.6 5.61-.65 7.44 6.41-2.96zm5.35 1.34 4.61 5.61-.65 7.44 6.4-2.96 6.4 2.96-.64-7.44 4.6-5.61-6.8-1.64-3.56-6.42-3.55 6.42zm.79-58.39 6.4-2.96 6.41 2.96-.65-7.44 4.6-5.61-6.8-1.64-3.56-6.43-3.55 6.43-6.8 1.64 4.6 5.61zm16.02 20.75-6.81-1.64-3.55-6.42-3.56 6.42-6.8 1.64 4.6 5.61-.65 7.44 6.41-2.96 6.4 2.96-.65-7.44zm3.75-1.7 6.4-2.96 6.4 2.96-.64-7.44 4.6-5.61-6.8-1.64-3.56-6.42-3.55 6.42-6.8 1.64 4.6 5.61zm-148.52-17.25 6.41-2.96 6.4 2.96-.65-7.44 4.61-5.61-6.81-1.64-3.55-6.42-3.56 6.42-6.8 1.64 4.6 5.61zm16.81 32-.65-7.44 4.61-5.61-6.81-1.64-3.55-6.42-3.56 6.42-6.8 1.64 4.6 5.61-.65 7.44 6.41-2.96zm3.24 4.95 4.6 5.61-.65 7.44 6.41-2.96 6.4 2.96-.65-7.44 4.61-5.61-6.81-1.64-3.55-6.42-3.56 6.42zm21.2-34-6.8-1.64-3.56-6.42-3.55 6.42-6.8 1.64 4.6 5.61-.65 7.44 6.4-2.96 6.41 2.96-.65-7.44zm-4.2-23.43-.64-7.44 4.6-5.61-6.8-1.64-3.56-6.42-3.56 6.42-6.8 1.64 4.6 5.61-.64 7.44 6.4-2.96zm5.2 18 6.4-2.96 6.4 2.96-.64-7.44 4.6-5.61-6.8-1.64-3.56-6.42-3.56 6.42-6.8 1.64 4.6 5.61zm17.92 36.54-.65-7.44 4.6-5.6-6.8-1.64-3.56-6.43-3.55 6.43-6.8 1.64 4.6 5.6-.65 7.44 6.4-2.96zm22.6 3.93-6.81-1.64-3.55-6.42-3.56 6.42-6.8 1.64 4.6 5.61-.65 7.44 6.41-2.96 6.4 2.96-.65-7.44zm-2.85-57.99-.65-7.44 4.61-5.61-6.81-1.64-3.55-6.42-3.56 6.42-6.8 1.64 4.6 5.61-.64 7.44 6.4-2.96zm6.2 22.47-6.8-1.64-3.56-6.42-3.55 6.42-6.81 1.64 4.61 5.61-.65 7.44 6.4-2.96 6.4 2.96-.64-7.44zm-108.53-17.8-6.8-1.64-3.56-6.43-3.56 6.43-6.8 1.64 4.6 5.6-.64 7.44 6.4-2.96 6.4 2.96-.64-7.44zm2.41-4.67 6.41-2.96 6.4 2.96-.65-7.44 4.61-5.61-6.81-1.64-3.55-6.42-3.56 6.42-6.8 1.64 4.6 5.61zm17.25 23.99-6.8-1.64-3.56-6.42-3.55 6.42-6.8 1.64 4.6 5.61-.65 7.44 6.4-2.96 6.41 2.96-.65-7.44zm165.8 81.06 4.6-5.6-6.8-1.64-3.56-6.43-3.55 6.43-6.8 1.64 4.6 5.6-.65 7.44 6.4-2.96 6.4 2.96zm-2.4-42.49 4.6-5.61-6.8-1.64-3.56-6.42-3.55 6.42-6.8 1.64 4.6 5.61-.65 7.44 6.4-2.96 6.41 2.96zm-.64-114.17 4.28-5.22-6.33-1.53-3.31-5.98-3.31 5.98-6.33 1.53 4.28 5.22-.6 6.92 5.96-2.75 5.96 2.75zm-.5 40.05 4.6-5.61-6.8-1.64-3.56-6.43-3.55 6.43-6.81 1.64 4.61 5.61-.65 7.43 6.4-2.95 6.4 2.95zm-19.84-20.01 4.52-5.51-6.68-1.61-3.49-6.31-3.5 6.31-6.68 1.61 4.52 5.51-.63 7.31 6.29-2.91 6.29 2.91zm-19.51 134.13 4.61-5.61-6.81-1.64-3.55-6.42-3.56 6.42-6.8 1.64 4.6 5.61-.65 7.44 6.41-2.96 6.4 2.96zm-4.15-154.17 4.28-5.22-6.33-1.53-3.31-5.98-3.31 5.98-6.33 1.53 4.28 5.22-.6 6.92 5.96-2.75 5.96 2.75zm-19.36 22.17 4.29-5.22-6.34-1.53-3.31-5.98-3.31 5.98-6.33 1.53 4.28 5.22-.6 6.93 5.96-2.76 5.96 2.76zm-18 130 4.6-5.61-6.8-1.64-3.56-6.42-3.55 6.42-6.8 1.64 4.6 5.61-.65 7.44 6.4-2.96 6.41 2.96zm-9.28-153.18 4.42-5.38-6.53-1.58-3.42-6.16-3.41 6.16-6.53 1.58 4.42 5.38-.62 7.14 6.14-2.84 6.15 2.84zm-14.72 135.18 4.6-5.61-6.8-1.64-3.56-6.42-3.55 6.42-6.8 1.64 4.6 5.61-.65 7.44 6.4-2.96 6.41 2.96zm-1.96-113.86 4.66-5.67-6.88-1.66-3.6-6.49-3.59 6.49-6.88 1.66 4.65 5.67-.65 7.52 6.47-2.99 6.48 2.99zm-18.28 133.38 4.6-5.61-6.8-1.64-3.56-6.42-3.56 6.42-6.8 1.64 4.6 5.61-.64 7.44 6.4-2.96 6.4 2.96zm-.96-154.66 4.29-5.22-6.33-1.53-3.31-5.98-3.32 5.98-6.33 1.53 4.29 5.22-.61 6.93 5.97-2.76 5.96 2.76zm-17.29 135.14 4.61-5.61-6.81-1.64-3.55-6.42-3.56 6.42-6.8 1.64 4.6 5.61-.65 7.44 6.41-2.96 6.4 2.96zm-6.65-109.82 4.61-5.61-6.81-1.63-3.55-6.43-3.56 6.43-6.8 1.63 4.6 5.61-.64 7.44 6.4-2.96 6.4 2.96zm-12.86 129.82 4.6-5.61-6.8-1.64-3.56-6.42-3.55 6.42-6.8 1.64 4.6 5.61-.65 7.44 6.4-2.96 6.41 2.96zm-.24-38.48 4.6-5.61-6.8-1.64-3.56-6.42-3.56 6.42-6.8 1.64 4.6 5.61-.64 7.44 6.4-2.96 6.4 2.96zm-2.99-114.68 4.62-5.62-6.82-1.65-3.57-6.44-3.57 6.44-6.82 1.65 4.62 5.62-.65 7.46 6.42-2.97 6.42 2.97zm-22.15 22.31 4.61-5.61-6.81-1.64-3.55-6.42-3.56 6.42-6.8 1.64 4.6 5.61-.65 7.44 6.41-2.96 6.4 2.96zm-.62 113.89 4.6-5.61-6.8-1.64-3.56-6.42-3.55 6.42-6.8 1.64 4.6 5.61-.65 7.44 6.4-2.96 6.41 2.96zm-.69-39.79 4.61-5.61-6.81-1.64-3.55-6.42-3.56 6.42-6.8 1.64 4.6 5.61-.65 7.44 6.41-2.96 6.4 2.96zm-19.18 60.15 4.61-5.61-6.81-1.64-3.55-6.42-3.56 6.42-6.8 1.64 4.6 5.61-.65 7.44 6.41-2.96 6.4 2.96zm-2.54-157.4 4.64-5.65-6.85-1.65-3.58-6.47-3.58 6.47-6.86 1.65 4.64 5.65-.65 7.49 6.45-2.98 6.45 2.98zm-.48 43.51 4.61-5.61-6.81-1.64-3.55-6.43-3.56 6.43-6.8 1.64 4.6 5.61-.64 7.43 6.4-2.95 6.4 2.95zm-.09 77.15 4.61-5.61-6.81-1.64-3.55-6.43-3.56 6.43-6.8 1.64 4.6 5.61-.64 7.43 6.4-2.95 6.4 2.95zm-2.4-36 4.61-5.61-6.81-1.64-3.55-6.43-3.56 6.43-6.8 1.64 4.6 5.61-.64 7.43 6.4-2.95 6.4 2.95z" fill="#394ea1"/><path d="m333.47 243.91-4.6 5.61.64 7.44-6.4-2.96-6.4 2.96.65-7.44-4.61-5.61 6.81-1.64 3.55-6.42 3.56 6.42z" fill="#fff"/><path d="m331.23 208.39-4.61 5.61.65 7.44-6.4-2.96-6.4 2.96.64-7.44-4.6-5.61 6.8-1.64 3.56-6.42 3.55 6.42z" fill="#fff"/><path d="m330.6 316.39-4.6 5.61.65 7.44-6.41-2.96-6.4 2.96.65-7.44-4.6-5.61 6.8-1.64 3.55-6.42 3.56 6.42z" fill="#fff"/><path d="m330.12 279.43-4.61 5.61.65 7.44-6.4-2.96-6.41 2.96.65-7.44-4.6-5.61 6.8-1.64 3.56-6.42 3.55 6.42z" fill="#fff"/><path d="m321.14 163.44-4.42 5.38.62 7.14-6.15-2.84-6.14 2.84.62-7.14-4.42-5.38 6.53-1.58 3.41-6.16 3.42 6.16z" fill="#fff"/><path d="m311.47 262.46-4.6 5.6.65 7.44-6.41-2.96-6.4 2.96.65-7.44-4.6-5.6 6.8-1.64 3.55-6.43 3.56 6.43z" fill="#fff"/><path d="m306.6 298.39-4.6 5.61.65 7.44-6.41-2.96-6.4 2.96.65-7.44-4.6-5.61 6.8-1.64 3.55-6.42 3.56 6.42z" fill="#fff"/><path d="m306.36 225.91-4.6 5.61.64 7.44-6.4-2.96-6.4 2.96.64-7.44-4.6-5.61 6.8-1.64 3.56-6.42 3.56 6.42z" fill="#fff"/><path d="m304.7 184.47-4.66 5.67.66 7.52-6.48-2.99-6.47 2.99.65-7.52-4.65-5.67 6.88-1.66 3.59-6.49 3.6 6.49z" fill="#fff"/><path d="m288.6 244.39-4.6 5.61.65 7.44-6.41-2.96-6.4 2.96.65-7.44-4.6-5.61 6.8-1.64 3.55-6.42 3.56 6.42z" fill="#fff"/><path d="m288.36 207.91-4.6 5.61.64 7.44-6.4-2.96-6.4 2.96.64-7.44-4.6-5.61 6.8-1.64 3.56-6.42 3.56 6.42z" fill="#fff"/><path d="m288.12 278.39-4.61 5.61.65 7.44-6.4-2.96-6.41 2.96.65-7.44-4.6-5.61 6.8-1.64 3.56-6.42 3.55 6.42z" fill="#fff"/><path d="m286.36 317.91-4.6 5.61.64 7.44-6.4-2.96-6.4 2.96.64-7.44-4.6-5.61 6.8-1.64 3.56-6.42 3.56 6.42z" fill="#fff"/><path d="m285.09 163.64-4.29 5.22.61 6.93-5.96-2.76-5.97 2.76.61-6.93-4.29-5.22 6.33-1.53 3.32-5.98 3.31 5.98z" fill="#fff"/><path d="m268.12 260.39-4.61 5.61.65 7.44-6.4-2.96-6.41 2.96.65-7.44-4.6-5.61 6.8-1.64 3.56-6.42 3.55 6.42z" fill="#fff"/><path d="m268.12 298.39-4.61 5.61.65 7.44-6.4-2.96-6.41 2.96.65-7.44-4.6-5.61 6.8-1.64 3.56-6.42 3.55 6.42z" fill="#fff"/><path d="m264.12 228.39-4.61 5.61.65 7.44-6.4-2.96-6.41 2.96.65-7.44-4.6-5.61 6.8-1.64 3.56-6.42 3.55 6.42z" fill="#fff"/><path d="m261.47 188.57-4.61 5.61.65 7.44-6.4-2.96-6.4 2.96.64-7.44-4.6-5.61 6.8-1.63 3.56-6.43 3.55 6.43z" fill="#fff"/><path d="m248.6 318.39-4.6 5.61.65 7.44-6.41-2.96-6.4 2.96.65-7.44-4.6-5.61 6.8-1.64 3.55-6.42 3.56 6.42z" fill="#fff"/><path d="m248.36 279.91-4.6 5.61.64 7.44-6.4-2.96-6.4 2.96.64-7.44-4.6-5.61 6.8-1.64 3.56-6.42 3.56 6.42z" fill="#fff"/><path d="m245.39 165.22-4.62 5.62.65 7.46-6.42-2.97-6.42 2.97.65-7.46-4.62-5.62 6.82-1.65 3.57-6.44 3.57 6.44z" fill="#fff"/><path d="m244.6 245.43-4.6 5.61.65 7.44-6.41-2.96-6.4 2.96.65-7.44-4.6-5.61 6.8-1.64 3.55-6.42 3.56 6.42z" fill="#fff"/><path d="m244.12 208.39-4.61 5.61.65 7.44-6.4-2.96-6.41 2.96.65-7.44-4.6-5.61 6.8-1.64 3.56-6.42 3.55 6.42z" fill="#fff"/><path d="m224.94 226.11-4.6 5.6.64 7.44-6.4-2.96-6.4 2.96.64-7.44-4.6-5.6 6.8-1.64 3.56-6.43 3.56 6.43z" fill="#fff"/><path d="m223.23 187.54-4.61 5.61.65 7.44-6.4-2.96-6.41 2.96.65-7.44-4.6-5.61 6.8-1.64 3.56-6.42 3.55 6.42z" fill="#fff"/><path d="m222.6 301.43-4.6 5.61.65 7.44-6.41-2.96-6.4 2.96.65-7.44-4.6-5.61 6.8-1.64 3.55-6.42 3.56 6.42z" fill="#fff"/><path d="m221.92 261.64-4.61 5.61.65 7.44-6.4-2.96-6.41 2.96.65-7.44-4.6-5.61 6.8-1.64 3.56-6.42 3.55 6.42z" fill="#fff"/><path d="m202.74 321.79-4.61 5.61.65 7.44-6.4-2.96-6.41 2.96.65-7.44-4.6-5.61 6.8-1.64 3.56-6.42 3.55 6.42z" fill="#fff"/><path d="m200.23 164.35-4.64 5.65.66 7.49-6.45-2.98-6.45 2.98.65-7.49-4.64-5.65 6.86-1.65 3.58-6.47 3.58 6.47z" fill="#fff"/><path d="m199.72 207.9-4.61 5.61.65 7.43-6.4-2.95-6.4 2.95.64-7.43-4.6-5.61 6.8-1.64 3.56-6.43 3.55 6.43z" fill="#fff"/><path d="m199.63 285.05-4.61 5.61.65 7.43-6.4-2.95-6.4 2.95.64-7.43-4.6-5.61 6.8-1.64 3.56-6.43 3.55 6.43z" fill="#fff"/><path d="m197.23 249.05-4.61 5.61.65 7.43-6.4-2.95-6.4 2.95.64-7.43-4.6-5.61 6.8-1.64 3.56-6.43 3.55 6.43z" fill="#fff"/><path d="m162.61 114.42c-5.96 2.8-13.07 4.43-20.69 4.43-7.3 0-14.12-1.49-19.92-4.08-10.99-4.89-18.33-13.72-18.33-23.8 0-15.4 17.13-27.88 38.25-27.88 21.13 0 38.26 12.48 38.26 27.88 0 9.84-7 18.49-17.57 23.45z" fill="#c8c8c8"/><g fill="none"><path d="m165.07 140.34h261.09 322.02v31.66 5.46 20.54 28 26.02 27.98 30 30 30 30 30 28 26 36.17h-579.62" stroke="#231f20" stroke-width="21"/><path d="m122 114.77c-10.99-4.89-18.33-13.72-18.33-23.8 0-15.4 17.13-27.88 38.25-27.88 21.13 0 38.26 12.48 38.26 27.88 0 9.84-7 18.49-17.57 23.45-5.96 2.8-13.07 4.43-20.69 4.43-7.3 0-14.12-1.49-19.92-4.08z" stroke="#231f20" stroke-width="21"/><path d="m122 114v.77l1.12 670.61" stroke="#231f20" stroke-width="21"/><path d="m162.61 326v20.16 23.84 30 30 54 301.38" stroke="#231f20" stroke-width="21"/><path d="m162.61 112.6v1.82 211.58" stroke="#231f20" stroke-width="21"/><path d="m744.76 179.39 3.42-1.93 2.01-1.14" stroke="#231f20" stroke-width="14"/><path d="m426.16 138v2.34 31.66 26 28 28 26 30 30 6.16h-259.2-2.96" stroke="#231f20" stroke-width="14"/><path d="m428 254 320.18-1.98 3.82-.02" stroke="#231f20" stroke-width="7"/><path d="m160 430h2.61 5.12 578.27" stroke="#231f20" stroke-width="7"/><path d="m162 370h.61 4.57 578.82" stroke="#231f20" stroke-width="7"/><path d="m162 400h.61 4.85 580.72 1.82" stroke="#231f20" stroke-width="7"/><path d="m168 458h580" stroke="#231f20" stroke-width="7"/><path d="m164 484h4.23 579.77" stroke="#231f20" stroke-width="7"/><path d="m424 340h2.16 317.84" stroke="#231f20" stroke-width="7"/><path d="m426 310h.16 321.84" stroke="#231f20" stroke-width="7"/><path d="m428 280h318" stroke="#231f20" stroke-width="7"/><path d="m428 226h320.18 3.82" stroke="#231f20" stroke-width="7"/><path d="m428 172h318" stroke="#231f20" stroke-width="7"/><path d="m235 175.33-6.42 2.97.65-7.46-4.62-5.62 6.82-1.65 3.57-6.44 3.57 6.44 6.82 1.65-4.62 5.62.65 7.46z" stroke="#231f20" stroke-width="3.1018"/><path d="m275.45 173.03-5.97 2.76.61-6.93-4.29-5.22 6.33-1.53 3.32-5.98 3.31 5.98 6.33 1.53-4.29 5.22.61 6.93z" stroke="#231f20" stroke-width="2.8802"/><path d="m189.8 174.51-6.45 2.98.65-7.49-4.64-5.65 6.86-1.65 3.58-6.47 3.58 6.47 6.85 1.65-4.64 5.65.66 7.49z" stroke="#231f20" stroke-width="3.1156"/><path d="m311.19 173.12-6.14 2.84.62-7.14-4.42-5.38 6.53-1.58 3.41-6.16 3.42 6.16 6.53 1.58-4.42 5.38.62 7.14z" stroke="#231f20" stroke-width="2.9691"/><path d="m358 174-5.96 2.75.6-6.92-4.28-5.22 6.33-1.53 3.31-5.98 3.31 5.98 6.33 1.53-4.28 5.22.6 6.92z" stroke="#231f20" stroke-width="2.8802"/><path d="m251.11 198.66-6.4 2.96.64-7.44-4.6-5.61 6.8-1.63 3.56-6.43 3.55 6.43 6.81 1.63-4.61 5.61.65 7.44z" stroke="#231f20" stroke-width="3.0935"/><path d="m294.22 194.67-6.47 2.99.65-7.52-4.65-5.67 6.88-1.66 3.59-6.49 3.6 6.49 6.88 1.66-4.66 5.67.66 7.52z" stroke="#231f20" stroke-width="3.093"/><path d="m338.64 196.17-5.96 2.76.6-6.93-4.28-5.22 6.33-1.53 3.31-5.98 3.31 5.98 6.34 1.53-4.29 5.22.6 6.93z" stroke="#231f20" stroke-width="2.8802"/><path d="m381.37 194.27-6.29 2.91.63-7.31-4.52-5.51 6.68-1.61 3.5-6.31 3.49 6.31 6.68 1.61-4.52 5.51.64 7.31z" stroke="#231f20" stroke-width="3.0397"/><path d="m212.87 197.63-6.41 2.96.65-7.44-4.6-5.61 6.8-1.64 3.56-6.42 3.55 6.42 6.81 1.64-4.61 5.61.65 7.44z" stroke="#231f20" stroke-width="3.0935"/><path d="m189.36 217.99-6.4 2.95.64-7.43-4.6-5.61 6.8-1.64 3.56-6.43 3.55 6.43 6.81 1.64-4.61 5.61.65 7.43z" stroke="#231f20" stroke-width="3.0935"/><path d="m186.87 259.14-6.4 2.95.64-7.43-4.6-5.61 6.8-1.64 3.56-6.43 3.55 6.43 6.81 1.64-4.61 5.61.65 7.43z" stroke="#231f20" stroke-width="3.0935"/><path d="m189.27 295.14-6.4 2.95.64-7.43-4.6-5.61 6.8-1.64 3.56-6.43 3.55 6.43 6.81 1.64-4.61 5.61.65 7.43z" stroke="#231f20" stroke-width="3.0935"/><path d="m192.38 331.88-6.41 2.96.65-7.44-4.6-5.61 6.8-1.64 3.56-6.42 3.55 6.42 6.81 1.64-4.61 5.61.65 7.44z" stroke="#231f20" stroke-width="3.0935"/><path d="m214.58 236.19-6.4 2.96.64-7.44-4.6-5.6 6.8-1.64 3.56-6.43 3.56 6.43 6.8 1.64-4.6 5.6.64 7.44z" stroke="#231f20" stroke-width="3.0935"/><path d="m211.56 271.73-6.41 2.96.65-7.44-4.6-5.61 6.8-1.64 3.56-6.42 3.55 6.42 6.81 1.64-4.61 5.61.65 7.44z" stroke="#231f20" stroke-width="3.0935"/><path d="m212.24 311.52-6.4 2.96.65-7.44-4.6-5.61 6.8-1.64 3.55-6.42 3.56 6.42 6.8 1.64-4.6 5.61.65 7.44z" stroke="#231f20" stroke-width="3.0935"/><path d="m233.76 218.48-6.41 2.96.65-7.44-4.6-5.61 6.8-1.64 3.56-6.42 3.55 6.42 6.81 1.64-4.61 5.61.65 7.44z" stroke="#231f20" stroke-width="3.0935"/><path d="m320.87 218.48-6.4 2.96.64-7.44-4.6-5.61 6.8-1.64 3.56-6.42 3.55 6.42 6.81 1.64-4.61 5.61.65 7.44z" stroke="#231f20" stroke-width="3.0935"/><path d="m278 218-6.4 2.96.64-7.44-4.6-5.61 6.8-1.64 3.56-6.42 3.56 6.42 6.8 1.64-4.6 5.61.64 7.44z" stroke="#231f20" stroke-width="3.0935"/><path d="m357.76 217.52-6.41 2.96.65-7.44-4.6-5.61 6.8-1.64 3.56-6.42 3.55 6.42 6.81 1.64-4.61 5.61.65 7.44z" stroke="#231f20" stroke-width="3.0935"/><path d="m401.1 214.36-6.4 2.95.65-7.43-4.61-5.61 6.81-1.64 3.55-6.43 3.56 6.43 6.8 1.64-4.6 5.61.64 7.43z" stroke="#231f20" stroke-width="3.0935"/><path d="m253.76 238.48-6.41 2.96.65-7.44-4.6-5.61 6.8-1.64 3.56-6.42 3.55 6.42 6.81 1.64-4.61 5.61.65 7.44z" stroke="#231f20" stroke-width="3.0935"/><path d="m296 236-6.4 2.96.64-7.44-4.6-5.61 6.8-1.64 3.56-6.42 3.56 6.42 6.8 1.64-4.6 5.61.64 7.44z" stroke="#231f20" stroke-width="3.0935"/><path d="m339.76 235.52-6.41 2.96.65-7.44-4.6-5.61 6.8-1.64 3.56-6.42 3.55 6.42 6.81 1.64-4.61 5.61.65 7.44z" stroke="#231f20" stroke-width="3.0935"/><path d="m382.5 236.68-6.4 2.96.65-7.44-4.6-5.61 6.8-1.64 3.55-6.43 3.56 6.43 6.8 1.64-4.6 5.61.65 7.44z" stroke="#231f20" stroke-width="3.0935"/><path d="m234.24 255.52-6.4 2.96.65-7.44-4.6-5.61 6.8-1.64 3.55-6.42 3.56 6.42 6.8 1.64-4.6 5.61.65 7.44z" stroke="#231f20" stroke-width="3.0935"/><path d="m278.24 254.48-6.4 2.96.65-7.44-4.6-5.61 6.8-1.64 3.55-6.42 3.56 6.42 6.8 1.64-4.6 5.61.65 7.44z" stroke="#231f20" stroke-width="3.0935"/><path d="m323.11 254-6.4 2.96.65-7.44-4.61-5.61 6.81-1.64 3.55-6.42 3.56 6.42 6.8 1.64-4.6 5.61.64 7.44z" stroke="#231f20" stroke-width="3.0935"/><path d="m362.29 254.48-6.4 2.96.65-7.44-4.61-5.61 6.81-1.64 3.55-6.42 3.56 6.42 6.8 1.64-4.6 5.61.64 7.44z" stroke="#231f20" stroke-width="3.0935"/><path d="m402.27 255.73-6.4 2.96.65-7.44-4.6-5.61 6.8-1.64 3.55-6.42 3.56 6.42 6.8 1.64-4.6 5.61.64 7.44z" stroke="#231f20" stroke-width="3.0935"/><path d="m257.76 270.48-6.41 2.96.65-7.44-4.6-5.61 6.8-1.64 3.56-6.42 3.55 6.42 6.81 1.64-4.61 5.61.65 7.44z" stroke="#231f20" stroke-width="3.0935"/><path d="m301.11 272.54-6.4 2.96.65-7.44-4.6-5.6 6.8-1.64 3.55-6.43 3.56 6.43 6.8 1.64-4.6 5.6.65 7.44z" stroke="#231f20" stroke-width="3.0935"/><path d="m340.65 273.44-6.41 2.96.65-7.44-4.6-5.61 6.8-1.64 3.56-6.42 3.55 6.42 6.81 1.64-4.61 5.61.65 7.44z" stroke="#231f20" stroke-width="3.0935"/><path d="m381.76 270.48-6.41 2.96.65-7.44-4.6-5.61 6.8-1.64 3.56-6.42 3.55 6.42 6.81 1.64-4.61 5.61.65 7.44z" stroke="#231f20" stroke-width="3.0935"/><path d="m238 290-6.4 2.96.64-7.44-4.6-5.61 6.8-1.64 3.56-6.42 3.56 6.42 6.8 1.64-4.6 5.61.64 7.44z" stroke="#231f20" stroke-width="3.0935"/><path d="m277.76 288.48-6.41 2.96.65-7.44-4.6-5.61 6.8-1.64 3.56-6.42 3.55 6.42 6.81 1.64-4.61 5.61.65 7.44z" stroke="#231f20" stroke-width="3.0935"/><path d="m319.76 289.52-6.41 2.96.65-7.44-4.6-5.61 6.8-1.64 3.56-6.42 3.55 6.42 6.81 1.64-4.61 5.61.65 7.44z" stroke="#231f20" stroke-width="3.0935"/><path d="m363.56 293.73-6.41 2.96.65-7.44-4.6-5.61 6.8-1.64 3.56-6.42 3.55 6.42 6.81 1.64-4.61 5.61.65 7.44z" stroke="#231f20" stroke-width="3.0935"/><path d="m402.24 288.48-6.4 2.96.65-7.44-4.6-5.61 6.8-1.64 3.55-6.42 3.56 6.42 6.8 1.64-4.6 5.61.65 7.44z" stroke="#231f20" stroke-width="3.0935"/><path d="m257.76 308.48-6.41 2.96.65-7.44-4.6-5.61 6.8-1.64 3.56-6.42 3.55 6.42 6.81 1.64-4.61 5.61.65 7.44z" stroke="#231f20" stroke-width="3.0935"/><path d="m296.24 308.48-6.4 2.96.65-7.44-4.6-5.61 6.8-1.64 3.55-6.42 3.56 6.42 6.8 1.64-4.6 5.61.65 7.44z" stroke="#231f20" stroke-width="3.0935"/><path d="m341.71 307.91-6.4 2.96.64-7.44-4.6-5.61 6.8-1.64 3.56-6.42 3.56 6.42 6.8 1.64-4.6 5.61.64 7.44z" stroke="#231f20" stroke-width="3.0935"/><path d="m385.67 308.12-6.4 2.96.65-7.44-4.61-5.61 6.81-1.64 3.55-6.42 3.56 6.42 6.8 1.64-4.6 5.61.64 7.44z" stroke="#231f20" stroke-width="3.0935"/><path d="m238.24 328.48-6.4 2.96.65-7.44-4.6-5.61 6.8-1.64 3.55-6.42 3.56 6.42 6.8 1.64-4.6 5.61.65 7.44z" stroke="#231f20" stroke-width="3.0935"/><path d="m276 328-6.4 2.96.64-7.44-4.6-5.61 6.8-1.64 3.56-6.42 3.56 6.42 6.8 1.64-4.6 5.61.64 7.44z" stroke="#231f20" stroke-width="3.0935"/><path d="m320.24 326.48-6.4 2.96.65-7.44-4.6-5.61 6.8-1.64 3.55-6.42 3.56 6.42 6.8 1.64-4.6 5.61.65 7.44z" stroke="#231f20" stroke-width="3.0935"/><path d="m361.76 328.48-6.41 2.96.65-7.44-4.6-5.61 6.8-1.64 3.56-6.42 3.55 6.42 6.81 1.64-4.61 5.61.65 7.44z" stroke="#231f20" stroke-width="3.0935"/><path d="m404.64 330.97-6.4 2.96.65-7.44-4.6-5.6 6.8-1.64 3.55-6.43 3.56 6.43 6.8 1.64-4.6 5.6.64 7.44z" stroke="#231f20" stroke-width="3.0935"/><path d="m426 198h.16 321.84" stroke="#231f20" stroke-width="7"/><path d="m402 174-5.96 2.75.6-6.92-4.28-5.22 6.33-1.53 3.31-5.98 3.31 5.98 6.33 1.53-4.28 5.22.6 6.92z" stroke="#231f20" stroke-width="2.8802"/><path d="m0 0h850.394v850.394h-850.394z"/></g></svg>