<svg enable-background="new 0 0 850.89 850.89" height="850.89" viewBox="0 0 850.89 850.89" width="850.89" xmlns="http://www.w3.org/2000/svg"><path d="m168.55 492.25h579.88v26h-2.18-580-3.39v-26z" fill="#ed1e29"/><path d="m748.43 518.25v34.17h-579.62-5.95v-34.17h3.39 580z" fill="#fff"/><path d="m748.43 262.24v26.01h-.18-308l-1.28-.01.24-27.98z" fill="#ed1e29"/><path d="m748.43 202.25v30h-.18-308l-.8-.01.25-29.99z" fill="#ed1e29"/><path d="m748.43 172.25v5.46 24.54h-308.73l.26-30h.29z" fill="#fff"/><path d="m748.43 140.59v31.66h-308.18-.29l.27-31.66z" fill="#ed1e29"/><path d="m748.43 232.25v29.99l-309.22-1.98.24-28.02.8.01h308z" fill="#fff"/><path d="m748.43 288.25v26h-.18-308l-1.5-.01.22-26 1.28.01h308z" fill="#fff"/><path d="m748.43 314.25v28h-.18-309.74l.24-28.01 1.5.01h308z" fill="#ed1e29"/><path d="m748.43 342.25v32h-.18-310v-2l.26-30h309.74z" fill="#fff"/><path d="m748.43 374.25v26h-.18-580.54l-.24-26h270.78 310z" fill="#ed1e29"/><path d="m748.43 400.25v32h-2.18-578.25l-.29-32h580.54z" fill="#fff"/><path d="m748.43 432.25v32h-2.18-577.96l-.29-32h578.25z" fill="#ed1e29"/><path d="m748.43 464.25v28h-579.88l-.26-28h577.96z" fill="#fff"/><path d="m342.25 208.25c-173.27 28.54-70.76 126-14 126 7.74 0-134-56 14-126zm96 166h-270.78l-2.15-233.66h274.91l-.271 31.66-.26 30-.25 29.99-.24 28.02-.24 27.98-.22 26-.24 28.01-.26 30v2zm-44.88-104.23 27.23-3.97-27.23-3.97 22.81-15.4-26.26 8.24 13.87-23.78-20.09 18.82 2.19-27.44-9.93 25.67-9.94-25.67 2.19 27.44-20.09-18.82 13.87 23.78-26.26-8.24 22.81 15.4-27.23 3.97 27.23 3.97-22.81 15.4 26.26-8.24-13.87 23.78 20.09-18.82-2.19 27.44 9.94-25.67 9.93 25.67-2.19-27.44 20.09 18.82-13.87-23.78 26.26 8.24z" fill="#394ea1"/><path d="m420.6 266.05-27.23 3.97 22.81 15.4-26.26-8.24 13.87 23.78-20.09-18.82 2.19 27.44-9.93-25.67-9.94 25.67 2.19-27.44-20.09 18.82 13.87-23.78-26.26 8.24 22.81-15.4-27.23-3.97 27.23-3.97-22.81-15.4 26.26 8.24-13.87-23.78 20.09 18.82-2.19-27.44 9.94 25.67 9.93-25.67-2.19 27.44 20.09-18.82-13.87 23.78 26.26-8.24-22.81 15.4z" fill="#fbed24"/><path d="m342.25 208.25c-148 70-6.26 126-14 126-56.76 0-159.27-97.46 14-126z" fill="#fbed24"/><path d="m142.17 63.34c21.13 0 38.26 12.48 38.26 27.88 0 9.84-7 18.49-17.57 23.45-5.96 2.8-13.07 4.43-20.69 4.43-7.3 0-14.12-1.49-19.92-4.08-10.99-4.89-18.33-13.72-18.33-23.8 0-15.4 17.13-27.88 38.25-27.88z" fill="#c8c8c8"/><path d="m142.17 119.1c7.62 0 14.73-1.63 20.69-4.43v259.58 26 32 32 28 26 34.17 233.21h-39.49l-1.12-670.61c5.8 2.59 12.62 4.08 19.92 4.08z" fill="#c8c8c8"/><g fill="none"><path d="m165.32 140.59h274.91 308.2v31.66 5.46 24.54 30 29.99 26.01 26 28 32 26 32 32 28 26 34.17h-579.62" stroke="#231f20" stroke-width="21"/><path d="m122.25 115.02c-10.99-4.89-18.33-13.72-18.33-23.8 0-15.4 17.13-27.88 38.25-27.88 21.13 0 38.26 12.48 38.26 27.88 0 9.84-7 18.49-17.57 23.45-5.96 2.8-13.07 4.43-20.69 4.43-7.3 0-14.12-1.49-19.92-4.08z" stroke="#231f20" stroke-width="21"/><path d="m122.25 114.25v.77l1.12 670.61" stroke="#231f20" stroke-width="21"/><path d="m162.86 112.85v1.82 259.58 26 32 32 28 26 34.17 233.21" stroke="#231f20" stroke-width="21"/><path d="m745.01 179.64 3.42-1.93 2.01-1.14" stroke="#231f20" stroke-width="14"/><path d="m164.25 374.25h3.22 270.78 310" stroke="#231f20" stroke-width="7"/><path d="m440.25 138.25-.02 2.34-.27 31.66-.26 30-.25 29.99-.24 28.02-.24 27.98-.22 26-.24 28.01-.26 30" stroke="#231f20" stroke-width="7"/><path d="m164.25 400.25h3.46 580.54" stroke="#231f20" stroke-width="7"/><path d="m160.25 432.25h2.61 5.14 578.25" stroke="#231f20" stroke-width="7"/><path d="m164.25 464.25h4.04 577.96" stroke="#231f20" stroke-width="7"/><path d="m162.25 492.25h.61 5.69 579.88 1.82" stroke="#231f20" stroke-width="7"/><path d="m438.25 202.25h1.45 308.73 1.82" stroke="#231f20" stroke-width="7"/><path d="m440.25 232.25h308" stroke="#231f20" stroke-width="7"/><path d="m440.25 172.25h308.18 1.82" stroke="#231f20" stroke-width="7"/><path d="m438.25 260.25.96.01 309.22 1.98 1.82.01" stroke="#231f20" stroke-width="7"/><path d="m440.25 288.25h308" stroke="#231f20" stroke-width="7"/><path d="m440.25 314.25h308" stroke="#231f20" stroke-width="7"/><path d="m438.25 342.25h.26 309.74" stroke="#231f20" stroke-width="7"/><path d="m342.25 208.25c-173.27 28.54-70.76 126-14 126" stroke="#231f20" stroke-width="7"/><path d="m342.25 208.25c-148 70-6.26 126-14 126" stroke="#231f20" stroke-width="7"/><path d="m393.37 270.02 22.81 15.4-26.26-8.24 13.87 23.78-20.09-18.82 2.19 27.44-9.93-25.67-9.94 25.67 2.19-27.44-20.09 18.82 13.87-23.78-26.26 8.24 22.81-15.4-27.23-3.97 27.23-3.97-22.81-15.4 26.26 8.24-13.87-23.78 20.09 18.82-2.19-27.44 9.94 25.67 9.93-25.67-2.19 27.44 20.09-18.82-13.87 23.78 26.26-8.24-22.81 15.4 27.23 3.97z" stroke="#231f20" stroke-width="4"/><path d="m166.25 518.25h580" stroke="#231f20" stroke-width="7"/><path d="m.25.25h850.394v850.394h-850.394z"/></g></svg>