<svg enable-background="new 0 0 850.394 850.394" height="850.394" viewBox="0 0 850.394 850.394" width="850.394" xmlns="http://www.w3.org/2000/svg"><path d="m351.19 143.46h393.46v375.66l-578.65-1.07h-.5v-187.92h4.48l1.12-.64 2.09 3.66h15.4 8.82 79.07 2.14 11.57 46.31 14.69 80.32 25.55v-9.88-9.79-37.23-14.69-38.46-14.7-39.89-17.36-4.02h-10.86-11.75-83.26v-2.13zm312.26 161.4c.06-24.37-1.23-47.1-1.23-47.1-27.279-12.06-61.75-12.35-61.75-12.35l-.21.01s-34.47.29-61.75 12.35c0 0-1.29 22.74-1.229 47.1.01 3.41.05 6.86.109 10.28.29 14.22 1.16 27.98 3.13 37.11 3.261 15.1 11.24 27.81 20.32 37.98 17.34 19.41 38.66 29.58 38.66 29.58l.76.43s29.59-14.1 47.71-40.43c4.44-6.45 8.19-13.63 10.65-21.52.61-1.97 1.149-3.99 1.59-6.05 2.44-11.32 3.19-29.78 3.24-47.39z" fill="#2c308c"/><path d="m630.66 345.83v-11.53-11.41-9.7-6.53-1.8h32.71.08c-.05 17.61-.8 36.07-3.24 47.39-.44 2.06-.979 4.08-1.59 6.05l-2.71-.02h-25.25z" fill="#a9d7f3"/><path d="m630.66 358.28h25.25l2.71.02c-2.46 7.89-6.21 15.07-10.65 21.52l-2.979-1.72h-49.98l-2.58-9.48 1.75-.05 17.49-.52 2.23-1.49 12.42-8.28z" fill="#9e5c26"/><path d="m630.66 345.83v12.45h-4.34l-12.42 8.28-.9-1.35v-17.12h8.15l.94-2.26z" fill="#a9d7f3"/><path d="m630.66 334.3v11.53h-8.57l-.94 2.26h-8.15v-11.52h8.26l.94-2.27z" fill="#a9d7f3"/><path d="m630.66 322.89v11.41h-8.46l-.94 2.27h-8.26v-11.42h8.37l.93-2.26z" fill="#a9d7f3"/><path d="m630.66 313.19v9.7h-8.36l-.93 2.26h-8.37v-9.69h8.37l.93-2.27z" fill="#a9d7f3"/><path d="m630.66 306.66v6.53h-8.36l-.93 2.27h-8.37v-6.54-4.06h17.66z" fill="#a9d7f3"/><path d="m628.33 283.32c4.31 1.73-6.311 6.61-10.33 4.31-4.03-2.29-10.63-4.02-14.08-2.58-3.45 1.43-16.08.86-16.939-6.03-.86-6.9.859-12.64-1.73-14.94-2.58-2.3-12.06-4.59-12.06-4.59s12.64-1.15 19.819-2.59c7.17-1.43 6.021 4.6 8.9 8.04 2.87 3.45 22.12 16.66 26.42 18.38z" fill="#fff"/><path d="m613 365.21.9 1.35-2.23 1.49-17.49.52-.03-1.09v-17.13h8.15l2.12-2.26h8.58z" fill="#a9d7f3"/><path d="m613 336.57v11.52h-8.58l-2.12 2.26h-8.15v-11.52h8.26l2.12-2.26z" fill="#a9d7f3"/><path d="m613 325.15v11.42h-8.47l-2.12 2.26h-8.26v-11.42h8.37l2.12-2.26z" fill="#a9d7f3"/><path d="m613 315.46v9.69h-8.36l-2.12 2.26h-8.37v-9.69h8.37l2.12-2.26z" fill="#a9d7f3"/><path d="m594.15 317.72v9.69 11.42 11.52h-8.57l-5.11.15c-1.13-2.24-2.279-4.4-3.26-6.29-3.74-7.18-5.46-24.41-8.62-26.71-3.149-2.3-7.18 9.77-11.77 12.07-4.59 2.29-16.09-14.37-16.09-14.37l-3.341-.05c-.06-3.42-.1-6.87-.109-10.28l2.31-.01h73.41v4.06 6.54h-8.36l-2.12 2.26z" fill="#a9d7f3"/><path d="m580.47 350.5c3.17 6.27 6.28 13.08 5.65 15.83-.87 3.73-14.94 1.72-14.08 5.45.86 3.74 5.17 8.33 5.17 11.21 0 2.87-6.32 6.89-12.92 6.6l-3.45.65c-9.08-10.17-17.06-22.88-20.32-37.98-1.97-9.13-2.84-22.89-3.13-37.11l3.341.05s11.5 16.66 16.09 14.37c4.59-2.3 8.62-14.37 11.77-12.07 3.16 2.3 4.88 19.53 8.62 26.71.979 1.89 2.129 4.05 3.259 6.29z" fill="#9e5c26"/><path d="m564.29 389.59c6.6.29 12.92-3.73 12.92-6.6 0-2.88-4.31-7.47-5.17-11.21-.86-3.73 13.21-1.72 14.08-5.45.63-2.75-2.48-9.56-5.65-15.83l5.11-.15h8.57v17.13l.029 1.09-1.75.05 2.58 9.48h49.98l2.979 1.72c-18.12 26.33-47.71 40.43-47.71 40.43l-.76-.43s-21.32-10.17-38.66-29.58z" fill="#0d72ba"/><path d="m603.92 285.05c3.45-1.44 10.05.29 14.08 2.58 4.02 2.3 14.64-2.58 10.33-4.31-4.3-1.72-23.55-14.93-26.42-18.38-2.88-3.44-1.73-9.47-8.9-8.04-7.18 1.44-19.819 2.59-19.819 2.59s9.479 2.29 12.06 4.59c2.59 2.3.87 8.04 1.73 14.94.859 6.89 13.489 7.46 16.939 6.03zm-66.64 19.82c-.061-24.36 1.229-47.1 1.229-47.1 27.28-12.06 61.75-12.35 61.75-12.35l.21-.01s34.471.29 61.75 12.35c0 0 1.29 22.73 1.23 47.1h-.08-32.71-17.659-73.41z" fill="#fbee34"/><path d="m457.06 147.13v4.02l-85.88 57.25h-15.09v-.71l90.11-59.75v-.81z" fill="#ed1e29"/><path d="m456.98 168.51h.08v39.89h-62.77v-.71z" fill="#2c308c"/><path d="m351.19 333.15h-14.69v-2.04-69.55h120.48.08v14.69h-.08-56.82-13.71-17.63-17.63v6.86 48.98z" fill="#fff"/><path d="m456.98 276.25h.08v37.23h-.08l-56.82-36.25v-.98z" fill="#2c308c"/><path d="m400.16 276.25v.98l56.82 36.25h.08v9.79h-.08l-70.53-46.04v-.98z" fill="#fff"/><path d="m386.45 276.25v.98l70.53 46.04h.08v9.88l-88.24-55.92v-.98z" fill="#ed1e29"/><path d="m434.45 147.13v.81l-82.28 53.87h-.98v-54.68z" fill="#2c308c"/><path d="m431.51 332.09v1.06h-80.32v-1.06-48.98z" fill="#2c308c"/><path d="m394.29 207.69v.71h-23.11l85.88-57.25v17.36h-.08z" fill="#fff"/><path d="m371.18 208.4h23.11 62.77v14.7h-120.56v-75.97h14.69v54.68 6.59h4.9z" fill="#fff"/><path d="m368.82 277.23 88.24 55.92h-25.55v-1.06l-80.32-48.98v-6.86h17.63z" fill="#fff"/><path d="m446.2 147.13v.81l-90.11 59.75v.71h-4.9v-6.59h.98l82.28-53.87v-.81z" fill="#fff"/><path d="m336.5 331.11v2.04h-46.31v-.08-72.49h-120.21-4.48v-36.5h4.48 118.26v-76.95h48.26v75.97h120.56v38.46h-.08-120.48z" fill="#ed1d31"/><path d="m290.19 333.07v.08h-11.57-2.14v-1.06-44.08-8.18-5.54h-10.51-25.47-71.5-3.5v-13.71h4.48 120.21z" fill="#fff"/><path d="m288.24 147.13v76.95h-118.26-4.48v-14.7h4.48 56.81 11.75 17.64 17.36v-5.61-56.64z" fill="#fff"/><path d="m276.48 279.83v8.18h-1.69l-77.38 45.06v.08h-8.82v-2.04l87.24-51.28z" fill="#fff"/><path d="m274.79 288.01h1.69v44.08 1.06h-79.07v-.08z" fill="#2c308c"/><path d="m265.97 274.29h10.51v5.54h-.65l-87.24 51.28v2.04h-15.4l-2.09-3.66 94.87-54.22z" fill="#ed1d31"/><path d="m273.54 147.13v56.64h-.71l-74.44-55.83v-.81z" fill="#2c308c"/><path d="m265.97 274.29v.98l-94.87 54.22-1.12.64h-4.48v-15.68h5.46l69.54-40.16z" fill="#fff"/><path d="m240.5 274.29-69.54 40.16h-5.46v-40.16h3.5z" fill="#2c308c"/><path d="m238.54 208.67v.71h-11.75v-.71l-55.83-40.16h-5.46v-8.82h5.46z" fill="#fff"/><path d="m226.79 208.67v.71h-56.81-4.48v-40.87h5.46z" fill="#2c308c"/><path d="m273.54 203.77v5.61h-17.36v-.71l-84.7-61.54h26.91v.81l74.44 55.83z" fill="#fff"/><path d="m165.5 117.82c-5.9 2.78-12.92 4.38-20.46 4.38-6.71 0-13.02-1.27-18.48-3.51-11.55-4.72-19.35-13.72-19.35-24.06 0-15.23 16.94-27.57 37.83-27.57 20.9 0 37.84 12.34 37.84 27.57 0 9.74-6.92 18.29-17.38 23.19z" fill="#c8c8c8"/><path d="m273.54 147.13h-75.15-26.91l84.7 61.54v.71h-17.64v-.71l-67.58-48.98h-5.46v-16.23h2.44 105.6v1.54z" fill="#ed1d31"/><path d="m165.5 330.13v187.92 263.37h-39.06l-.44-661.42.56-1.31c5.46 2.24 11.77 3.51 18.48 3.51 7.54 0 14.56-1.6 20.46-4.38v25.64 16.23 8.82 40.87 14.7 36.5 13.71 40.16z" fill="#c8c8c8"/><g fill="none"><path d="m167.94 143.46h105.6 77.65 393.46v375.66l-578.65-1.07" stroke="#231f20" stroke-width="21"/><path d="m126.56 118.69c-11.55-4.72-19.35-13.72-19.35-24.06 0-15.23 16.94-27.57 37.83-27.57 20.9 0 37.84 12.34 37.84 27.57 0 9.74-6.92 18.29-17.38 23.19-5.9 2.78-12.92 4.38-20.46 4.38-6.71 0-13.02-1.27-18.48-3.51z" stroke="#231f20" stroke-width="21"/><path d="m126 120 .44 661.42" stroke="#231f20" stroke-width="21"/><path d="m165.5 116.02v1.8 25.64 16.23 8.82 40.87 14.7 36.5 13.71 40.16 15.68 187.92 263.37" stroke="#231f20" stroke-width="21"/><path d="m647.97 379.82c-18.12 26.33-47.71 40.43-47.71 40.43l-.76-.43s-21.32-10.17-38.66-29.58c-9.08-10.17-17.06-22.88-20.32-37.98-1.97-9.13-2.84-22.89-3.13-37.11-.06-3.42-.1-6.87-.109-10.28-.061-24.36 1.229-47.1 1.229-47.1 27.28-12.06 61.75-12.35 61.75-12.35l.21-.01s34.471.29 61.75 12.35c0 0 1.29 22.73 1.23 47.1-.05 17.61-.8 36.07-3.24 47.39-.44 2.06-.979 4.08-1.59 6.05-2.46 7.89-6.21 15.07-10.65 21.52z" stroke="#231f20" stroke-width="7"/><path d="m539.59 304.86h73.41 17.66 32.71" stroke="#231f20" stroke-width="6.893"/><path d="m540.73 315.2s11.5 16.66 16.09 14.37c4.59-2.3 8.62-14.37 11.77-12.07 3.16 2.3 4.88 19.53 8.62 26.71.98 1.89 2.13 4.05 3.26 6.29 3.17 6.27 6.28 13.08 5.65 15.83-.87 3.73-14.94 1.72-14.08 5.45.86 3.74 5.17 8.33 5.17 11.21 0 2.87-6.32 6.89-12.92 6.6" stroke="#231f20" stroke-width="6.893"/><path d="m573.19 259.49s12.64-1.15 19.819-2.59c7.17-1.43 6.021 4.6 8.9 8.04 2.87 3.45 22.12 16.66 26.42 18.38 4.31 1.73-6.311 6.61-10.33 4.31-4.03-2.29-10.63-4.02-14.08-2.58-3.45 1.43-16.08.86-16.939-6.03-.86-6.9.859-12.64-1.73-14.94-2.58-2.3-12.06-4.59-12.06-4.59z" stroke="#231f20" stroke-width="6.893"/><path d="m595.01 285.34s1.44 8.32-1.43 9.76-5.18 1.72-5.46 2.87" stroke="#231f20" stroke-linecap="round" stroke-linejoin="round" stroke-width="6.893"/><path d="m606.79 285.34s1.44 8.32-1.44 9.76c-2.869 1.44-5.17 1.72-5.46 2.87" stroke="#231f20" stroke-linecap="round" stroke-linejoin="round" stroke-width="6.893"/><path d="m655.91 358.28h-25.25-4.34l-12.42 8.28-2.23 1.49-17.49.52-1.75.05 2.58 9.48h49.98" stroke="#231f20" stroke-width="6.893"/><path d="m594.15 311.19v6.53 9.69 11.42 11.52 17.13" stroke="#231f20" stroke-width="3.4465"/><path d="m585.79 327.41h8.36 8.37" stroke="#231f20" stroke-width="3.4465"/><path d="m585.79 317.72h8.36 8.37" stroke="#231f20" stroke-width="3.4465"/><path d="m585.68 338.83h8.47 8.26" stroke="#231f20" stroke-width="3.4465"/><path d="m585.58 350.35h8.57 8.15" stroke="#231f20" stroke-width="3.4465"/><path d="m613 308.92v6.54 9.69 11.42 11.52 17.12" stroke="#231f20" stroke-width="3.4465"/><path d="m604.64 325.15h8.36 8.37" stroke="#231f20" stroke-width="3.4465"/><path d="m604.64 315.46h8.36 8.37" stroke="#231f20" stroke-width="3.4465"/><path d="m604.53 336.57h8.47 8.26" stroke="#231f20" stroke-width="3.4465"/><path d="m604.42 348.09h8.58 8.15" stroke="#231f20" stroke-width="3.4465"/><path d="m630.66 306.66v6.53 9.7 11.41 11.53 12.45 1.33" stroke="#231f20" stroke-width="3.4465"/><path d="m622.3 322.89h8.36 8.37" stroke="#231f20" stroke-width="3.4465"/><path d="m622.3 313.19h8.36 8.37" stroke="#231f20" stroke-width="3.4465"/><path d="m622.2 334.3h8.46 8.26" stroke="#231f20" stroke-width="3.4465"/><path d="m622.09 345.83h8.57 8.16" stroke="#231f20" stroke-width="3.4465"/><path d="m278.62 333.15h-2.14-79.07-8.82-15.4" stroke="#231f20" stroke-width="10.2848"/><path d="m171.48 147.13h26.91 75.15 14.7 48.26 14.69 83.26 11.75 10.86v4.02 17.36 39.89 14.7 38.46 14.69 37.23 9.79 9.88h-25.55-80.32-14.69-46.31-11.57" stroke="#231f20" stroke-width="10.2848"/><path d="m457.96 223.1h-.9-120.56v-75.97-2.13" stroke="#231f20" stroke-width="3.4283"/><path d="m288.24 145.98v1.15 76.95h-118.26" stroke="#231f20" stroke-width="3.4283"/><path d="m169.98 260.58h120.21v72.49" stroke="#231f20" stroke-width="3.4283"/><path d="m336.5 331.11v-69.55h120.48" stroke="#231f20" stroke-width="3.4283"/><path d="m273.54 145v2.13 56.64 5.61h-17.36-17.64-11.75-56.81" stroke="#231f20" stroke-width="3.4283"/><path d="m457.96 208.4h-.9-62.77-23.11-15.09-4.9v-6.59-54.68-2.13" stroke="#231f20" stroke-width="3.4283"/><path d="m169 274.29h71.5 25.47 10.51v5.54 8.18 44.08" stroke="#231f20" stroke-width="3.4283"/><path d="m351.19 332.09v-48.98-6.86h17.63 17.63 13.71 56.82" stroke="#231f20" stroke-width="3.4283"/><path d="m198.39 147.94 74.44 55.83" stroke="#231f20" stroke-width="3.4283"/><path d="m171.48 147.13 84.7 61.54" stroke="#231f20" stroke-width="3.4283"/><path d="m170.96 159.69 67.58 48.98" stroke="#231f20" stroke-width="3.4283"/><path d="m170.96 168.51 55.83 40.16" stroke="#231f20" stroke-width="3.4283"/><path d="m352.17 201.81 82.28-53.87" stroke="#231f20" stroke-width="3.4283"/><path d="m356.09 207.69 90.11-59.75" stroke="#231f20" stroke-width="3.4283"/><path d="m370.78 208.67.4-.27 85.88-57.25 1.87-1.25" stroke="#231f20" stroke-width="3.4283"/><path d="m394.29 207.69 62.69-39.18" stroke="#231f20" stroke-width="3.4283"/><path d="m188.59 331.11 87.24-51.28" stroke="#231f20" stroke-width="3.4283"/><path d="m169.98 330.13 1.12-.64 94.87-54.22" stroke="#231f20" stroke-width="3.4283"/><path d="m274.79 288.01-77.38 45.06" stroke="#231f20" stroke-width="3.4283"/><path d="m170.96 314.45 69.54-40.16" stroke="#231f20" stroke-width="3.4283"/><path d="m457.06 333.15-88.24-55.92" stroke="#231f20" stroke-width="3.4283"/><path d="m351.19 283.11 80.32 48.98" stroke="#231f20" stroke-width="3.4283"/><path d="m386.45 277.23 70.53 46.04" stroke="#231f20" stroke-width="3.4283"/><path d="m400.16 277.23 56.82 36.25" stroke="#231f20" stroke-width="3.4283"/><path d="m0 0h850.394v850.394h-850.394z"/></g></svg>