<svg enable-background="new 0 0 850.394 850.394" height="850.394" viewBox="0 0 850.394 850.394" width="850.394" xmlns="http://www.w3.org/2000/svg"><path d="m748.18 404v76h-.18l-116-74v-2h116z" fill="#394ea1"/><path d="m604 404h28v2l116 74h.18v20h-.18l-144-94z" fill="#fff"/><path d="m632 404h-28-36-36v14 100 2.17h-30v-4.17-142h246 .18v30h-.18z" fill="#fff"/><path d="m568 404h36v2l144 94h.18v20.17l-180.18-114.17z" fill="#ed1e29"/><path d="m748.18 520.17h-52.18v-2.17l-164-100v-14h36v2z" fill="#fff"/><path d="m306 400-142 82h-1.39v-82z" fill="#394ea1"/><path d="m306 400h52v2l-195.39 111.65v-31.65h1.39z" fill="#fff"/><path d="m383.83 520.17h-4.37v-2.17-90-16.7-11.3h-21.46-52-143.39v-28h244.85v148 .17z" fill="#fff"/><path d="m302 266v1.46h-24v-1.46l-114-82h-1.39v-18h1.39z" fill="#fff"/><path d="m338 267.46h-36v-1.46l-138-100h-1.39v-25.66h2.46l172.93 125.66z" fill="#ed1e29"/><path d="m302 267.46h36 35.46v-11.46-115.66h30v157.12h-240.85v-30h115.39z" fill="#fff"/><path d="m162.61 513.65v6.52 265.21h-39.49l-1.12-670.61c5.8 2.59 12.62 4.08 19.92 4.08 7.62 0 14.73-1.63 20.69-4.43v25.92 25.66 18 83.46 30 74.54 28 82z" fill="#c8c8c8"/><path d="m379.46 518v2.17h-161.46v-.17l158-92h3.46z" fill="#394ea1"/><path d="m278 266v1.46h-115.39v-83.46h1.39z" fill="#394ea1"/><path d="m379.46 411.3v16.7h-3.46l-158 92v.17h-18v-4.17l178.12-104.7z" fill="#fff"/><path d="m162.61 297.46h240.85v-157.12h98.54v155.12h246.18v78.54h-.18-246v142 4.17h-94.54v-.17-148h-244.85z" fill="#ed1e29"/><path d="m162.61 513.65 195.39-111.65v-2h21.46v11.3h-1.34l-178.12 104.7v4.17h-31.44-5.95z" fill="#ed1e29"/><path d="m572.81 265.46h47.19 128.18v30h-246.18v-155.12h30v111.66 13.46h10z" fill="#fff"/><path d="m748.18 184v81.46h-128.18v-1.46l128-80z" fill="#394ea1"/><path d="m748.18 148.55v35.45h-.18l-128 80v1.46h-47.19z" fill="#fff"/><path d="m748.18 140.34v8.21l-175.37 116.91h-30.81v-1.46l184-122v-1.66z" fill="#ed1e29"/><path d="m726 140.34v1.66l-184 122v1.46h-10v-13.46h2l168-110v-1.66z" fill="#fff"/><path d="m702 140.34v1.66l-168 110h-2v-111.66z" fill="#394ea1"/><path d="m696 518v2.17h-164v-2.17-100z" fill="#394ea1"/><path d="m373.46 256v11.46h-35.46v-1.46l-172.93-125.66h54.93v1.66l152 114z" fill="#fff"/><path d="m373.46 140.34v115.66h-1.46l-152-114v-1.66z" fill="#394ea1"/><path d="m162.61 114.42c-5.96 2.8-13.07 4.43-20.69 4.43-7.3 0-14.12-1.49-19.92-4.08-10.99-4.89-18.33-13.72-18.33-23.8 0-15.4 17.13-27.88 38.25-27.88 21.13 0 38.26 12.48 38.26 27.88 0 9.84-7 18.49-17.57 23.45z" fill="#c8c8c8"/><g fill="none"><path d="m383.83 520.17h-4.37-161.46-18-31.44" stroke="#231f20" stroke-width="21"/><path d="m165.07 140.34h54.93 153.46 30 98.54 30 170 24 22.18v8.21 35.45 81.46 30 78.54 30 76 20 20.17h-52.18-164-30-94.54-23.63" stroke="#231f20" stroke-width="21"/><path d="m122 114.77c-10.99-4.89-18.33-13.72-18.33-23.8 0-15.4 17.13-27.88 38.25-27.88 21.13 0 38.26 12.48 38.26 27.88 0 9.84-7 18.49-17.57 23.45-5.96 2.8-13.07 4.43-20.69 4.43-7.3 0-14.12-1.49-19.92-4.08z" stroke="#231f20" stroke-width="21"/><path d="m122 114v.77l1.12 670.61" stroke="#231f20" stroke-width="21"/><path d="m162.61 112.6v1.82 25.92 25.66 18 83.46 30 74.54 28 82 31.65 6.52 265.21" stroke="#231f20" stroke-width="21"/><path d="m750 295.46h-1.82-246.18v-155.12-4.34" stroke="#231f20" stroke-width="7"/><path d="m403.46 138v2.34 157.12h-240.85-.61" stroke="#231f20" stroke-width="7"/><path d="m162 372h.61 244.85v148" stroke="#231f20" stroke-width="7"/><path d="m502 516v-142h246" stroke="#231f20" stroke-width="7"/><path d="m373.46 136v4.34 115.66 11.46h-35.46-36-24-115.39-.61" stroke="#231f20" stroke-width="7"/><path d="m750 265.46h-1.82-128.18-47.19-30.81-10v-13.46-111.66-4.34" stroke="#231f20" stroke-width="7"/><path d="m160 400h2.61 143.39 52 21.46v11.3 16.7 90" stroke="#231f20" stroke-width="7"/><path d="m532 518v-100-14h36 36 28 116" stroke="#231f20" stroke-width="7"/><path d="m220 142 152 114" stroke="#231f20" stroke-width="7"/><path d="m165.07 140.34 172.93 125.66" stroke="#231f20" stroke-width="7"/><path d="m164 166 138 100" stroke="#231f20" stroke-width="7"/><path d="m164 184 114 82" stroke="#231f20" stroke-width="7"/><path d="m534 252 168-110" stroke="#231f20" stroke-width="7"/><path d="m542 264 184-122" stroke="#231f20" stroke-width="7"/><path d="m572 266 .81-.54 175.37-116.91 3.82-2.55" stroke="#231f20" stroke-width="7"/><path d="m620 264 128-80" stroke="#231f20" stroke-width="7"/><path d="m200 516 178.12-104.7" stroke="#231f20" stroke-width="7"/><path d="m162 514 .61-.35 195.39-111.65" stroke="#231f20" stroke-width="7"/><path d="m376 428-158 92" stroke="#231f20" stroke-width="7"/><path d="m164 482 142-82" stroke="#231f20" stroke-width="7"/><path d="m748.18 520.17-180.18-114.17" stroke="#231f20" stroke-width="7"/><path d="m532 418 164 100" stroke="#231f20" stroke-width="7"/><path d="m604 406 144 94" stroke="#231f20" stroke-width="7"/><path d="m632 406 116 74" stroke="#231f20" stroke-width="7"/><path d="m0 0h850.394v850.394h-850.394z"/></g></svg>