<svg enable-background="new 0 0 850.394 850.394" height="850.394" viewBox="0 0 850.394 850.394" width="850.394" xmlns="http://www.w3.org/2000/svg"><path d="m162.61 114.42v670.96h-39.49l-1.12-670.61c5.8 2.59 12.62 4.08 19.92 4.08 7.62 0 14.73-1.63 20.69-4.43z" fill="#c8c8c8"/><path d="m748.18 332v188.17h-579.62l-1.73-188.17z" fill="#fff"/><path d="m748.18 177.46v154.54h-581.35l-1.76-191.66h583.11zm-404 49.43 6.82-6.03-9.43-1.25-4.23-7.75-4.22 7.75-9.44 1.25 6.84 6.03-1.62 8.53 8.44-4.03 8.45 4.03zm-9.46 34.64 6.16-6.01-8.52-1.24-3.82-7.73-3.81 7.73-8.53 1.24 6.17 6.01-1.46 8.5 7.63-4.01 7.64 4.01zm-18.72-55.53 6.18-6.02-8.53-1.23-3.83-7.73-3.81 7.73-8.53 1.23 6.18 6.02-1.47 8.5 7.63-4.01 7.64 4.01zm-20 57.08 6.51-6.35-8.99-1.31-4.04-8.15-4.02 8.15-9 1.31 6.51 6.35-1.54 8.97 8.05-4.23 8.06 4.23zm-8.48-37.53 6.51-6.35-9-1.3-4.03-8.16-4.03 8.16-9 1.3 6.52 6.35-1.54 8.97 8.05-4.23 8.06 4.23zm-16.42-41.66c4.89 0 9.57 1.24 13.87 3.52-7.83-9.03-18.2-13.49-29.22-13.49-24.88 0-45.03 27.67-45.03 61.79s20.15 61.78 45.03 61.78c9.33 0 21.46-4.25 28.65-10.91-4.15 2.09-8.62 3.23-13.3 3.23-21.32 0-38.6-23.72-38.6-52.96 0-29.25 17.28-52.96 38.6-52.96z" fill="#ed1e29"/><path d="m351 220.86-6.82 6.03 1.61 8.53-8.45-4.03-8.44 4.03 1.62-8.53-6.84-6.03 9.44-1.25 4.22-7.75 4.23 7.75z" fill="#fff"/><path d="m340.88 255.52-6.16 6.01 1.46 8.5-7.64-4.01-7.63 4.01 1.46-8.5-6.17-6.01 8.53-1.24 3.81-7.73 3.82 7.73z" fill="#fff"/><path d="m322.18 199.98-6.18 6.02 1.46 8.5-7.64-4.01-7.63 4.01 1.47-8.5-6.18-6.02 8.53-1.23 3.81-7.73 3.83 7.73z" fill="#fff"/><path d="m302.51 256.73-6.51 6.35 1.54 8.97-8.06-4.23-8.05 4.23 1.54-8.97-6.51-6.35 9-1.31 4.02-8.15 4.04 8.15z" fill="#fff"/><path d="m294.03 219.2-6.51 6.35 1.54 8.97-8.06-4.23-8.05 4.23 1.54-8.97-6.52-6.35 9-1.3 4.03-8.16 4.03 8.16z" fill="#fff"/><path d="m284.4 286.58c-7.19 6.66-19.32 10.91-28.65 10.91-24.88 0-45.03-27.66-45.03-61.78s20.15-61.79 45.03-61.79c11.02 0 21.39 4.46 29.22 13.49-4.3-2.28-8.98-3.52-13.87-3.52-21.32 0-38.6 23.71-38.6 52.96 0 29.24 17.28 52.96 38.6 52.96 4.68 0 9.15-1.14 13.3-3.23z" fill="#fff"/><path d="m162.61 114.42c-5.96 2.8-13.07 4.43-20.69 4.43-7.3 0-14.12-1.49-19.92-4.08-10.99-4.89-18.33-13.72-18.33-23.8 0-15.4 17.13-27.88 38.25-27.88 21.13 0 38.26 12.48 38.26 27.88 0 9.84-7 18.49-17.57 23.45z" fill="#c8c8c8"/><g fill="none"><path d="m165.07 140.34h583.11v37.12 154.54 188.17h-579.62" stroke="#231f20" stroke-width="21"/><path d="m122 114.77c-10.99-4.89-18.33-13.72-18.33-23.8 0-15.4 17.13-27.88 38.25-27.88 21.13 0 38.26 12.48 38.26 27.88 0 9.84-7 18.49-17.57 23.45-5.96 2.8-13.07 4.43-20.69 4.43-7.3 0-14.12-1.49-19.92-4.08z" stroke="#231f20" stroke-width="21"/><path d="m122 114v.77l1.12 670.61" stroke="#231f20" stroke-width="21"/><path d="m162.61 112.6v1.82 670.96" stroke="#231f20" stroke-width="21"/><path d="m744.76 179.39 3.42-1.93 2.01-1.14" stroke="#231f20" stroke-width="14"/><path d="m164 332h2.83 581.35 1.82" stroke="#231f20" stroke-width="14"/><path d="m284.4 286.58c-7.19 6.66-19.32 10.91-28.65 10.91-24.88 0-45.03-27.66-45.03-61.78s20.15-61.79 45.03-61.79c11.02 0 21.39 4.46 29.22 13.49" stroke="#000" stroke-linecap="round" stroke-linejoin="round" stroke-width="7"/><path d="m284.4 286.58c-4.15 2.09-8.62 3.23-13.3 3.23-21.32 0-38.6-23.72-38.6-52.96 0-29.25 17.28-52.96 38.6-52.96 4.89 0 9.57 1.24 13.87 3.52" stroke="#000" stroke-linecap="round" stroke-linejoin="round" stroke-width="7"/><path d="m309.82 210.49-7.63 4.01 1.47-8.5-6.18-6.02 8.53-1.23 3.81-7.73 3.83 7.73 8.53 1.23-6.18 6.02 1.46 8.5z" stroke="#000" stroke-linecap="round" stroke-linejoin="round" stroke-width="4.5"/><path d="m289.48 267.82-8.05 4.23 1.54-8.97-6.51-6.35 9-1.31 4.02-8.15 4.04 8.15 8.99 1.31-6.51 6.35 1.54 8.97z" stroke="#000" stroke-linecap="round" stroke-linejoin="round" stroke-width="4.75"/><path d="m328.54 266.02-7.63 4.01 1.46-8.5-6.17-6.01 8.53-1.24 3.81-7.73 3.82 7.73 8.52 1.24-6.16 6.01 1.46 8.5z" stroke="#000" stroke-linecap="round" stroke-linejoin="round" stroke-width="4.5"/><path d="m281 230.29-8.05 4.23 1.54-8.97-6.52-6.35 9-1.3 4.03-8.16 4.03 8.16 9 1.3-6.51 6.35 1.54 8.97z" stroke="#000" stroke-linecap="round" stroke-linejoin="round" stroke-width="4.75"/><path d="m337.34 231.39-8.44 4.03 1.62-8.53-6.84-6.03 9.44-1.25 4.22-7.75 4.23 7.75 9.43 1.25-6.82 6.03 1.61 8.53z" stroke="#000" stroke-linecap="round" stroke-linejoin="round" stroke-width="4.7418"/><path d="m0 0h850.394v850.394h-850.394z"/></g></svg>