<svg enable-background="new 0 0 850.394 850.394" height="850.394" viewBox="0 0 850.394 850.394" width="850.394" xmlns="http://www.w3.org/2000/svg"><path d="m163.58 422.61v95.57 264.52l-39.2-4.23-.38-661.09c5.6 2.38 12.1 3.74 19.05 3.74 7.57 0 14.61-1.61 20.53-4.4v25.73 111.83z" fill="#c8c8c8"/><path d="m166 518.18h-2.42v-95.57h.72 578.2 2.3v96.85z" fill="#6ebe44"/><path d="m744.8 142.45v111.83h-575.89-5.33v-111.83h2.44z" fill="#ed1d31"/><path d="m521.19 359.46-4.8 4.67 1.14 6.6-5.92-3.11-5.93 3.11 1.13-6.6-4.79-4.67 6.63-.96 2.96-6 2.95 6z" fill="#fbee34"/><path d="m512.67 321.85-4.8 4.67 1.13 6.6-5.92-3.12-5.93 3.12 1.13-6.6-4.79-4.67 6.63-.96 2.96-6.01 2.96 6.01z" fill="#fbee34"/><path d="m486.72 295.04-4.79 4.67 1.13 6.6-5.92-3.11-5.93 3.11 1.13-6.6-4.79-4.67 6.63-.96 2.96-6.01 2.96 6.01z" fill="#fbee34"/><path d="m466.92 390.15c.75.61 1.6.5 2.7-1.77 1.49-3.07 3.61-2.39 3.61-2.39l.149.05s2.11.68 1.54 4.04c-.43 2.49.2 3.07 1.16 3.01 1.34-.08 4.689 1.19 1.63 3.46-2.95 2.18-6.34 2.53-8.34 1.79.06.02.12.04.18.05l-.399-.13c.069.03.14.06.22.08-2.05-.54-4.64-2.8-5.78-6.32-1.17-3.62 2.29-2.71 3.33-1.87z" fill="#fbee34"/><path d="m452.14 284.23-4.8 4.68 1.13 6.59-5.91-3.11-5.94 3.11 1.13-6.59-4.79-4.68 6.63-.96 2.97-6 2.95 6z" fill="#fbee34"/><path d="m453.11 335.93s-12.32-2.16-12.32 4.97c0-7.13-12.33-4.97-12.33-4.97.65-14.7 11.68-15.14 11.68-15.14h1.29s11.03.44 11.68 15.14z" fill="#fbee34"/><path d="m449.01 391.47c-2.149 2.99-5.29 4.35-7.41 4.26.07 0 .141 0 .21-.01h-.42c.07.01.141.01.21.01-2.119.09-5.26-1.27-7.409-4.26-2.221-3.09 1.35-3.28 2.6-2.8.9.35 1.67-.01 2.03-2.51.479-3.37 2.699-3.37 2.699-3.37h.16s2.221 0 2.7 3.37c.351 2.5 1.13 2.86 2.03 2.51 1.25-.48 4.82-.29 2.6 2.8z" fill="#fbee34"/><path d="m440.79 340.9c0-7.13 12.32-4.97 12.32-4.97-.65-14.7-11.681-15.14-11.681-15.14h-1.29s-11.029.44-11.68 15.14c.001 0 12.331-2.16 12.331 4.97zm304.01-86.62v168.33h-2.3-578.2-.72v-168.33h5.33zm-228.41 109.85 4.801-4.67-6.631-.96-2.949-6-2.96 6-6.631.96 4.79 4.67-1.13 6.6 5.931-3.11 5.92 3.11zm-8.52-37.61 4.8-4.67-6.63-.96-2.96-6.01-2.96 6.01-6.63.96 4.79 4.67-1.13 6.6 5.93-3.12 5.92 3.12zm-25.94-26.81 4.79-4.67-6.62-.96-2.96-6.01-2.96 6.01-6.63.96 4.79 4.67-1.13 6.6 5.93-3.11 5.92 3.11zm-4.22 96.84c3.06-2.27-.29-3.54-1.63-3.46-.96.06-1.59-.52-1.16-3.01.57-3.36-1.54-4.04-1.54-4.04l-.149-.05s-2.12-.68-3.61 2.39c-1.101 2.27-1.95 2.38-2.7 1.77-1.04-.84-4.5-1.75-3.33 1.87 1.141 3.52 3.73 5.78 5.78 6.32 1.999.74 5.389.39 8.339-1.79zm-30.37-107.64 4.8-4.68-6.63-.96-2.95-6-2.97 6-6.63.96 4.79 4.68-1.13 6.59 5.939-3.11 5.91 3.11zm1.67 102.56c2.221-3.09-1.35-3.28-2.6-2.8-.9.35-1.68-.01-2.03-2.51-.479-3.37-2.7-3.37-2.7-3.37h-.16s-2.22 0-2.699 3.37c-.36 2.5-1.13 2.86-2.03 2.51-1.25-.48-4.82-.29-2.6 2.8 2.149 2.99 5.29 4.35 7.409 4.26 2.12.09 5.26-1.27 7.41-4.26zm-30.01.68c1.17-3.62-2.28-2.72-3.33-1.87-.75.6-1.6.5-2.7-1.77-1.49-3.07-3.6-2.4-3.6-2.4l-.15.05s-2.12.68-1.54 4.04c.42 2.49-.21 3.07-1.17 3.01-1.34-.08-4.68 1.2-1.63 3.46 2.92 2.17 6.28 2.52 8.28 1.82 2.06-.53 4.69-2.79 5.84-6.34zm-9.08-92.87 4.79-4.67-6.63-.96-2.96-6.01-2.96 6.01-6.62.96 4.79 4.67-1.13 6.6 5.92-3.12 5.93 3.12zm-25.94 26.81 4.79-4.68-6.63-.96-2.96-6-2.96 6-6.62.96 4.79 4.68-1.13 6.59 5.92-3.11 5.93 3.11zm-8.53 37.61 4.79-4.67-6.62-.96-2.97-6.01-2.95 6.01-6.63.96 4.8 4.67-1.14 6.6 5.92-3.11 5.93 3.11z" fill="#fff"/><path d="m414.71 294.61-4.79 4.67 1.13 6.6-5.93-3.12-5.92 3.12 1.13-6.6-4.79-4.67 6.62-.96 2.96-6.01 2.96 6.01z" fill="#fbee34"/><path d="m412.97 388.51c1.1 2.27 1.95 2.37 2.7 1.77 1.05-.85 4.5-1.75 3.33 1.87-1.15 3.55-3.78 5.81-5.84 6.34.1-.03.19-.06.28-.1l-.4.13c.04-.01.08-.02.12-.03-2 .7-5.36.35-8.28-1.82-3.05-2.26.29-3.54 1.63-3.46.96.06 1.59-.52 1.17-3.01-.58-3.36 1.54-4.04 1.54-4.04l.15-.05s2.11-.67 3.6 2.4z" fill="#fbee34"/><path d="m388.77 321.41-4.79 4.68 1.13 6.59-5.93-3.11-5.92 3.11 1.13-6.59-4.79-4.68 6.62-.96 2.96-6 2.96 6z" fill="#fbee34"/><path d="m380.24 359.03-4.79 4.67 1.13 6.6-5.93-3.11-5.92 3.11 1.14-6.6-4.8-4.67 6.63-.96 2.95-6.01 2.97 6.01z" fill="#fbee34"/><path d="m124 117.38c-11.31-4.78-18.92-13.71-18.92-23.93 0-15.28 17-27.67 37.97-27.67s37.97 12.39 37.97 27.67c0 9.77-6.95 18.36-17.44 23.27-5.92 2.79-12.96 4.4-20.53 4.4-6.95 0-13.45-1.36-19.05-3.74z" fill="#c8c8c8"/><g fill="none"><path d="m166.02 142.45h578.78v111.83 168.33 96.85l-578.8-1.28" stroke="#231f20" stroke-width="21"/><path d="m124 117.38c-11.31-4.78-18.92-13.71-18.92-23.93 0-15.28 17-27.67 37.97-27.67s37.97 12.39 37.97 27.67c0 9.77-6.95 18.36-17.44 23.27-5.92 2.79-12.96 4.4-20.53 4.4-6.95 0-13.45-1.36-19.05-3.74z" stroke="#231f20" stroke-width="21"/><path d="m124 116v1.38l.38 661.09v4.23" stroke="#231f20" stroke-width="21"/><path d="m163.58 114.92v1.8 25.73 111.83 168.33 95.57 264.52" stroke="#231f20" stroke-width="21"/><path d="m442.56 277.27 2.95 6 6.63.96-4.8 4.68 1.13 6.59-5.91-3.11-5.94 3.11 1.13-6.59-4.79-4.68 6.63-.96z" stroke="#231f20" stroke-width="3.4588"/><path d="m477.14 288.07 2.96 6.01 6.62.96-4.79 4.67 1.13 6.6-5.92-3.11-5.93 3.11 1.13-6.6-4.79-4.67 6.63-.96z" stroke="#231f20" stroke-width="3.4588"/><path d="m503.08 314.88 2.96 6.01 6.63.96-4.8 4.67 1.13 6.6-5.92-3.12-5.93 3.12 1.13-6.6-4.79-4.67 6.63-.96z" stroke="#231f20" stroke-width="3.4588"/><path d="m511.61 352.5 2.95 6 6.63.96-4.8 4.67 1.14 6.6-5.92-3.11-5.93 3.11 1.13-6.6-4.79-4.67 6.63-.96z" stroke="#231f20" stroke-width="3.4588"/><path d="m405.12 287.64-2.96 6.01-6.62.96 4.79 4.67-1.13 6.6 5.92-3.12 5.93 3.12-1.13-6.6 4.79-4.67-6.63-.96z" stroke="#231f20" stroke-width="3.4588"/><path d="m379.18 314.45-2.96 6-6.62.96 4.79 4.68-1.13 6.59 5.92-3.11 5.93 3.11-1.13-6.59 4.79-4.68-6.63-.96z" stroke="#231f20" stroke-width="3.4588"/><path d="m370.65 352.06-2.95 6.01-6.63.96 4.8 4.67-1.14 6.6 5.92-3.11 5.93 3.11-1.13-6.6 4.79-4.67-6.62-.96z" stroke="#231f20" stroke-width="3.4588"/><path d="m440.79 340.9c0-7.13 12.32-4.97 12.32-4.97-.65-14.7-11.681-15.14-11.681-15.14h-1.29s-11.029.44-11.68 15.14c.001 0 12.331-2.16 12.331 4.97z" stroke="#231f20" stroke-width="10.3765"/><path d="m440.79 361.22c0 1.09 0 1.73 0-20.32z" stroke="#231f20" stroke-width="10.3765"/><path d="m441 361.65s-.02.23-.08.65c-.49 3.18-3.479 16.91-19.16 17.29-13.03.32-15.56-7.56-15.56-7.56s-.43 13.83-12.54 15.78c-12.11 1.94-19.24-6.05-19.24-6.05" stroke="#231f20" stroke-width="10.3765"/><path d="m440.79 361.22s.02.4.13 1.08c.57 3.86 3.61 16.71 18.67 17.08 13.03.32 15.57-7.57 15.57-7.57s.43 13.84 12.54 15.78c12.1 1.95 19.24-6.05 19.24-6.05" stroke="#231f20" stroke-width="10.3765"/><path d="m492.56 410.51s-19.779-8-50.04-7.35l-1.3.11c-30.27-.65-49.83 7.35-49.83 7.35" stroke="#231f20" stroke-width="10.3765"/><path d="m441.6 395.73c2.12.09 5.261-1.27 7.41-4.26 2.221-3.09-1.35-3.28-2.6-2.8-.9.35-1.68-.01-2.03-2.51-.479-3.37-2.7-3.37-2.7-3.37h-.16s-2.22 0-2.699 3.37c-.36 2.5-1.13 2.86-2.03 2.51-1.25-.48-4.82-.29-2.6 2.8 2.149 2.99 5.289 4.35 7.409 4.26z" stroke="#231f20" stroke-width="1.7294"/><path d="m441.39 395.72c.07.01.141.01.21.01.07 0 .141 0 .21-.01z" stroke="#231f20" stroke-width="1.7294"/><path d="m469.37 398.34c2 .74 5.39.39 8.34-1.79 3.06-2.27-.29-3.54-1.63-3.46-.96.06-1.59-.52-1.16-3.01.57-3.36-1.54-4.04-1.54-4.04l-.149-.05s-2.12-.68-3.61 2.39c-1.101 2.27-1.95 2.38-2.7 1.77-1.04-.84-4.5-1.75-3.33 1.87 1.139 3.52 3.729 5.78 5.779 6.32z" stroke="#231f20" stroke-width="1.7294"/><path d="m469.15 398.26c.069.03.14.06.22.08.06.02.12.04.18.05z" stroke="#231f20" stroke-width="1.7294"/><path d="m413.16 398.49c-2 .7-5.36.35-8.28-1.82-3.05-2.26.29-3.54 1.63-3.46.96.06 1.59-.52 1.17-3.01-.58-3.36 1.54-4.04 1.54-4.04l.15-.05s2.11-.67 3.6 2.4c1.1 2.27 1.95 2.37 2.7 1.77 1.05-.85 4.5-1.75 3.33 1.87-1.15 3.55-3.78 5.81-5.84 6.34z" stroke="#231f20" stroke-width="1.7294"/><path d="m413.16 398.49c-.04.01-.08.02-.12.03l.4-.13c-.09.04-.18.07-.28.1z" stroke="#231f20" stroke-width="1.7294"/><path d="m168.91 254.28h575.89 2.31" stroke="#231f20" stroke-width="7"/><path d="m164.3 422.61h578.2" stroke="#231f20" stroke-width="7"/><path d="m0 0h850.394v850.394h-850.394z"/></g></svg>