<svg enable-background="new 0 0 850.394 850.394" height="850.394" viewBox="0 0 850.394 850.394" width="850.394" xmlns="http://www.w3.org/2000/svg"><path d="m748.18 428v92.17h-240.18v-92.17h240z" fill="#fbed24"/><path d="m162.61 332v96 357.38h-39.49l-1.12-670.61c5.8 2.59 12.62 4.08 19.92 4.08 7.62 0 14.73-1.63 20.69-4.43v121.58z" fill="#c8c8c8"/><path d="m748.18 332v96h-.18-240v-96h240z" fill="#34a047"/><path d="m748.18 236v96h-.18-240v-96h240z" fill="#fff"/><path d="m748.18 177.46v58.54h-.18-240v-95.66h240.18z" fill="#394ea1"/><path d="m508 428v92.17h-98v-92.17-96-96-95.66h98v95.66 96z" fill="#ed1e29"/><path d="m410 428v92.17h-241.44l-.85-92.17z" fill="#fbed24"/><path d="m410 332v96h-242.29l-.88-96z" fill="#34a047"/><path d="m410 236v96h-243.17l-.88-96z" fill="#fff"/><path d="m410 140.34v95.66h-244.05l-.88-95.66zm-145.51 52.34 12.45-13.3-17.89-3.43-8.79-15.95-8.8 15.95-17.88 3.43 12.45 13.3-2.26 18.07 16.49-7.74 16.49 7.74z" fill="#394ea1"/><path d="m276.94 179.38-12.45 13.3 2.26 18.07-16.49-7.74-16.49 7.74 2.26-18.07-12.45-13.3 17.88-3.43 8.8-15.95 8.79 15.95z" fill="#fbed24"/><path d="m162.61 114.42c-5.96 2.8-13.07 4.43-20.69 4.43-7.3 0-14.12-1.49-19.92-4.08-10.99-4.89-18.33-13.72-18.33-23.8 0-15.4 17.13-27.88 38.25-27.88 21.13 0 38.26 12.48 38.26 27.88 0 9.84-7 18.49-17.57 23.45z" fill="#c8c8c8"/><g fill="none"><path d="m165.07 140.34h244.93 98 240.18v37.12 58.54 96 96 92.17h-240.18-98-241.44" stroke="#231f20" stroke-width="21"/><path d="m122 114.77c-10.99-4.89-18.33-13.72-18.33-23.8 0-15.4 17.13-27.88 38.25-27.88 21.13 0 38.26 12.48 38.26 27.88 0 9.84-7 18.49-17.57 23.45-5.96 2.8-13.07 4.43-20.69 4.43-7.3 0-14.12-1.49-19.92-4.08z" stroke="#231f20" stroke-width="21"/><path d="m122 114v.77l1.12 670.61" stroke="#231f20" stroke-width="21"/><path d="m162.61 112.6v1.82 121.58 96 96 357.38" stroke="#231f20" stroke-width="21"/><path d="m744.76 179.39 3.42-1.93 2.01-1.14" stroke="#231f20" stroke-width="14"/><path d="m508 332h240" stroke="#231f20" stroke-width="14"/><path d="m162 332h.61 4.22 243.17" stroke="#231f20" stroke-width="14"/><path d="m508 236h240" stroke="#231f20" stroke-width="14"/><path d="m164 236h1.95 244.05" stroke="#231f20" stroke-width="14"/><path d="m506 428h2 240" stroke="#231f20" stroke-width="14"/><path d="m164 428h3.71 242.29" stroke="#231f20" stroke-width="14"/><path d="m410 140v.34 95.66 96 96 92.17 1.83" stroke="#231f20" stroke-width="14"/><path d="m508 136v4.34 95.66 96 96 92.17 1.83" stroke="#231f20" stroke-width="14"/><path d="m250.26 203.01-16.49 7.74 2.26-18.07-12.45-13.3 17.88-3.43 8.8-15.95 8.79 15.95 17.89 3.43-12.45 13.3 2.26 18.07z" stroke="#231f20" stroke-width="4.6183"/><path d="m0 0h850.394v850.394h-850.394z"/></g></svg>