<svg enable-background="new 0 0 850.394 850.394" height="850.394" viewBox="0 0 850.394 850.394" width="850.394" xmlns="http://www.w3.org/2000/svg"><path d="m152.11 128.54v656.84h-28.99l10.5-.02-1.1-656.7c3.03.46 6.18.69 9.4.69 3.51 0 6.92-.28 10.19-.81z" fill="#c8c8c8"/><path d="m758.68 520.17v10.5h-10.5-575.07v-10.5h564.57 10.5v-10.5-62.67h1.82v-14h-1.82v-40-42-22h1.82v-14h-1.82v-129.56l.03.05 5.43-3.08h5.04z" fill="#231f20"/><path d="m758.68 140.34v42.07h-5.04l-3.45-6.09-2.01-3.55v-21.93-10.5h-10.5-564.57v-10.5h575.07 10.5z" fill="#231f20"/><path d="m750.19 176.32 3.45 6.09-5.43 3.08-.03-.05v-7.98z" fill="#231f20"/><path d="m748.18 172.77 2.01 3.55-2.01 1.14z" fill="#231f20"/><path d="m748.18 433h1.82v14h-1.82z" fill="#231f20"/><path d="m748.18 315h1.82v14h-1.82z" fill="#231f20"/><path d="m748.18 509.67v10.5h-10.5z" fill="#231f20"/><path d="m737.68 447h10.5v62.67h-10.5z" fill="#231f20"/><path d="m737.68 433h10.5v14h-10.5z" fill="#231f20"/><path d="m748.18 393v40h-10.5v-26h6.32v-14z" fill="#231f20"/><path d="m748.18 351v42h-4.18-6.32v-28h10.32v-14z" fill="#231f20"/><path d="m748.18 329v22h-.18-10.32v-22z" fill="#231f20"/><path d="m737.68 315h10.5v14h-10.5z" fill="#231f20"/><path d="m748.18 185.44v129.56h-10.5v-141.7h3.63l3.45 6.09z" fill="#231f20"/><path d="m748.18 177.46v7.98l-3.42-6.05z" fill="#231f20"/><path d="m748.18 172.77v4.69l-3.42 1.93-3.45-6.09 5.43-3.07z" fill="#231f20"/><path d="m748.18 150.84v21.93l-1.44-2.54-5.43 3.07h-3.63v-22.46z" fill="#231f20"/><path d="m748.18 140.34v10.5l-10.5-10.5z" fill="#231f20"/><path d="m748.18 509.67-10.5 10.5v-10.5z" fill="#231f20"/><path d="m748.18 150.84h-10.5v-10.5z" fill="#231f20"/><path d="m737.68 351h10.32v14h-10.32z" fill="#231f20"/><path d="m737.68 393h6.32v14h-6.32z" fill="#231f20"/><path d="m173.11 509.67h564.57v10.5h-564.57z" fill="#231f20"/><path d="m737.68 447v62.67h-564.57v-62.67h138.15l.68.66 9.64 9.41-2.28 13.26-.68 4 3.59-1.89 11.92-6.26 11.91 6.26 3.59 1.89-.68-4-2.28-13.26 9.64-9.41.68-.66h26.71l-3.21 6.49-13.32 1.93-4.01.59 2.9 2.83 9.64 9.39-2.27 13.28-.68 3.99 3.58-1.88 11.92-6.27 11.92 6.27 3.59 1.88-.69-3.99-2.27-13.28 9.64-9.39 2.9-2.83-4.01-.59-13.32-1.93-3.21-6.49h34.62l4.03 3.93-2.27 13.28-.69 4 3.59-1.89 11.92-6.27 11.92 6.27 3.59 1.89-.69-4-2.27-13.28 4.03-3.93z" fill="#394ea1"/><path d="m737.68 433v14h-277.1l5.61-5.46 2.9-2.83-4.01-.58-13.32-1.94-1.58-3.19z" fill="#231f20"/><path d="m737.68 407v26h-287.5l-4.39-8.89-1.79-3.63-1.79 3.63-4.39 8.89h-49.57-50.97l-1.36-2.76-1.8-3.64-1.79 3.64-1.36 2.76h-17.46v-2.79l-.69-4-2.27-13.28 6.09-5.93h142.83l1.98 1.93-2.27 13.28-.69 4 3.59-1.89 11.92-6.27 11.92 6.27 3.59 1.89-.69-4-2.27-13.28 1.98-1.93z" fill="#fff"/><path d="m737.68 393v14h-249.15l7.66-7.46 2.9-2.83-4.01-.58-13.32-1.94-.59-1.19z" fill="#231f20"/><path d="m737.68 365v28h-256.51l-5.38-10.89-1.79-3.63-1.79 3.63-5.38 10.89h-163.64l-3.4-6.89-1.79-3.63-1.79 3.63-3.4 6.89h-119.7v-28h113.95l-1.88 11-.69 4 3.59-1.89 11.92-6.26 11.92 6.26 3.59 1.89-.69-4-1.88-11h143.83l-1.19 6.97-.69 3.99 3.59-1.88 11.92-6.27 11.92 6.27 3.58 1.88-.68-3.99-1.2-6.97z" fill="#ed1e29"/><path d="m737.68 351v14h-253.66l-1.08-6.3 7.9-7.7z" fill="#231f20"/><path d="m737.68 329v22h-246.84l1.74-1.7 2.91-2.83-4.01-.58-13.32-1.94-5.97-12.08-1.42-2.87z" fill="#fff"/><path d="m737.68 315v14h-266.91l-.37-.76-.38.76h-18.09v-.81l-.68-4-1.58-9.19z" fill="#231f20"/><path d="m737.68 173.3v141.7h-288.01l-.7-4.08 9.64-9.4 2.9-2.83-4.01-.58-13.32-1.94-5.96-12.07-1.8-3.64-1.79 3.64-5.96 12.07-13.32 1.94-4.02.58 2.91 2.83 9.64 9.4-.7 4.08h-23.84v-3.92l-.68-3.99-2.28-13.28 9.64-9.4 2.9-2.82-4.01-.59-13.32-1.93-5.96-12.08-1.8-3.63-1.79 3.63-5.96 12.08-13.33 1.93-4.01.59 2.91 2.82 9.64 9.41-2.28 13.27-.68 3.99v3.92h-27.11l-.67-3.94 9.64-9.4 2.9-2.82-4.01-.59-13.32-1.93-5.97-12.08-1.79-3.63-1.79 3.63-5.97 12.08-13.32 1.93-4.01.59 2.9 2.82 9.64 9.4-.67 3.94h-141.67v-164.16h564.57z" fill="#394ea1"/><path d="m173.11 140.34h564.57v10.5h-564.57z" fill="#231f20"/><path d="m499.09 396.71-2.9 2.83-7.66 7.46h-2.86l7.32-7.13 1.51.22-.42-1.29.71-.69-.97-.14-.42-1.3-1.1 1.08-11.88-1.73-1.49-3.02h2.24l.59 1.19-1.05-.15 1.51 1.09-.46-.94 13.32 1.94z" fill="#231f20"/><path d="m449.61 347.87.7.69-.42 1.29 1.52-.22 1.4 1.37h-2.86l-1.74-1.7-2.9-2.83 4.01-.58 13.32-1.94-.46.94 1.5-1.09-1.04.15 5.96-12.08 1.42-2.87h.75l1.42 2.87 5.97 12.08-1.05-.15 1.51 1.09-.46-.94 13.32 1.94 4.01.58-2.91 2.83-1.74 1.7h-2.86l1.4-1.37 1.52.22-.42-1.29.7-.69-.97-.14-.42-1.3-1.1 1.08-11.87-1.73-5.31-10.76.68-1.37h-1.35l-.44-.89-.44.89h-1.36l.68 1.38-5.31 10.75-11.87 1.73-1.1-1.08-.42 1.3z" fill="#231f20"/><path d="m494.79 398.11-.71.69-.26-.83z" fill="#231f20"/><path d="m494.08 398.8.42 1.29-1.51-.22z" fill="#231f20"/><path d="m493.82 397.97.26.83-1.09 1.07-2.5-.36 1.81-1.76z" fill="#231f20"/><path d="m493.4 396.67.42 1.3-1.52-.22z" fill="#231f20"/><path d="m492.99 399.87-7.32 7.13h-2.87l.2-.19 7.49-7.3z" fill="#231f20"/><path d="m492.3 397.75-1.81 1.76-10.35-1.51-1.04-.15-.47-.95-1.92-3.9h2.22l1.49 3.02z" fill="#231f20"/><path d="m491.18 347.87-.7.69-.27-.83z" fill="#231f20"/><path d="m490.48 348.56.42 1.29-1.52-.22z" fill="#231f20"/><path d="m490.84 351-7.9 7.7-.18-1.04-.57 1.77.75-.73 1.08 6.3h-2.03l-1.2-7 7.19-7z" fill="#231f20"/><path d="m490.49 399.51-7.49 7.3-.2.19h-17.6l-.2-.19-7.49-7.3 10.35-1.51 1.04-.15.47-.95 1.92-3.9h5.42l1.92 3.9.47.95 1.04.15z" fill="#fbed24"/><path d="m490.21 347.73.27.83-1.1 1.07-2.5-.36 1.81-1.76z" fill="#231f20"/><path d="m489.79 346.43.42 1.3-1.52-.22z" fill="#231f20"/><path d="m488.82 422.21.69 4-3.59-1.89-11.92-6.27.93-.49h-1.86l.93.49-11.92 6.27-3.59 1.89.69-4 2.27-13.28.76.74-.58-1.77-.18 1.03-1.98-1.93h2.86l1.27 1.24-2.02 11.83-1.36.71 1.1.8-.17.97.87-.46 1.1.8.26-1.51 10.62-5.59 10.62 5.59.26 1.51 1.1-.8.87.46-.17-.97 1.1-.8-1.36-.71-2.02-11.83 1.27-1.24h2.86l-1.98 1.93-.18-1.03-.58 1.77.76-.74z" fill="#231f20"/><path d="m489.38 349.63-1.4 1.37h-2.87l1.77-1.73z" fill="#231f20"/><path d="m488.69 347.51-1.81 1.76-10.35-1.51-1.04-.15-.46-.95-4.63-9.38 1.11-2.26 5.31 10.76z" fill="#231f20"/><path d="m487.98 351-7.19 7 1.2 7h-2.03l-1.14-6.66-.18-1.04.76-.73 5.71-5.57z" fill="#231f20"/><path d="m487.78 420.78-1.1.8-.26-1.51z" fill="#231f20"/><path d="m476.53 347.76 10.35 1.51-1.77 1.73h-29.42l-1.78-1.73 10.35-1.51 1.04-.15.47-.95 4.63-9.38 4.63 9.38.46.95z" fill="#fbed24"/><path d="m486.68 421.58.17.97-.87-.46z" fill="#231f20"/><path d="m486.42 420.07.26 1.51-.7.51-1.36-.71-.43-2.49z" fill="#231f20"/><path d="m486.37 407.9.18 1.03-.76.74z" fill="#231f20"/><path d="m486.42 420.07-2.23-1.18-1.77-10.31-.17-1.04.55-.54h2.87l-1.27 1.24z" fill="#231f20"/><path d="m485.98 422.09-1.1.8-.26-1.51z" fill="#231f20"/><path d="m485.22 371.97.68 3.99-3.58-1.88-11.92-6.27.93-.49h-1.86l.93.49-11.92 6.27-3.59 1.88.69-3.99 1.19-6.97h2.03l-.82 4.83-1.36.71 1.1.8-.17.97.87-.46 1.1.8.26-1.51 10.62-5.59 10.62 5.59.26 1.51 1.1-.8.87.46-.17-.97 1.1-.8-1.36-.71-.83-4.83h2.03z" fill="#231f20"/><path d="m485.11 351-5.71 5.57-.76.73.18 1.04 1.14 6.66h-6.31l-2.32-1.22-.93-.49-.93.49-2.32 1.22h-6.32l1.14-6.66.18-1.04-.75-.73-5.71-5.57z" fill="#fbed24"/><path d="m484.62 421.38-10.62-5.59-10.62 5.59.43-2.49 9.26-4.87.93-.49.93.49 9.26 4.87z" fill="#231f20"/><path d="m482.42 408.58 1.77 10.31-9.26-4.87-.93-.49-.93.49-9.26 4.87 1.77-10.31.17-1.04-.55-.54h17.6l-.55.54z" fill="#fbed24"/><path d="m484.18 370.54-1.1.8-.26-1.51z" fill="#231f20"/><path d="m483.08 371.34.17.97-.87-.46z" fill="#231f20"/><path d="m482.82 369.83.26 1.51-.7.51-1.36-.71-.43-2.49z" fill="#231f20"/><path d="m482.76 357.66.18 1.04-.75.73z" fill="#231f20"/><path d="m482.82 369.83-2.23-1.18-.63-3.65h2.03z" fill="#231f20"/><path d="m482.38 371.85-1.1.8-.26-1.51z" fill="#231f20"/><path d="m481.76 394.19.46.94-1.51-1.09z" fill="#231f20"/><path d="m475.79 382.11 5.38 10.89h-2.24l-3.82-7.74.68-1.37h-1.35l-.44-.89-.44.89h-1.35l.68 1.37-3.82 7.74h-2.24l5.38-10.89 1.79-3.63z" fill="#231f20"/><path d="m481.02 371.14-10.62-5.59-10.62 5.59.42-2.49 6.95-3.65h6.5l6.94 3.65z" fill="#231f20"/><path d="m479.96 365 .63 3.65-6.94-3.65z" fill="#fbed24"/><path d="m475.11 385.26 3.82 7.74h-2.22l-2.71-5.48z" fill="#231f20"/><path d="m478.16 343.95.46.94-1.51-1.09z" fill="#231f20"/><path d="m476.71 393h-5.42l2.71-5.48z" fill="#fbed24"/><path d="m475.79 383.89-.68 1.37-.67-1.37z" fill="#231f20"/><path d="m474.44 383.89.67 1.37-1.11 2.26-1.11-2.26.67-1.37z" fill="#231f20"/><path d="m474.93 417.56-.93.49-.93-.49z" fill="#231f20"/><path d="m474 383 .44.89h-.88z" fill="#231f20"/><path d="m472.89 385.26 1.11 2.26-2.71 5.48h-2.22z" fill="#231f20"/><path d="m473.65 365h-6.5l2.32-1.22.93-.49.93.49z" fill="#231f20"/><path d="m473.56 383.89-.67 1.37-.68-1.37z" fill="#231f20"/><path d="m472.19 333.65-.68 1.37-.67-1.37z" fill="#231f20"/><path d="m470.84 333.65.67 1.37-1.11 2.26-1.12-2.25.68-1.38z" fill="#231f20"/><path d="m471.33 367.32-.93.49-.93-.49z" fill="#231f20"/><path d="m471.29 393-1.92 3.9-.47.95-1.04.15-10.35 1.51-1.81-1.76 11.88-1.73 1.49-3.02z" fill="#231f20"/><path d="m470.4 332.76.44.89h-.88z" fill="#231f20"/><path d="m470.4 328.24.37.76h-.75z" fill="#231f20"/><path d="m470.4 337.28-4.63 9.38-.47.95-1.04.15-10.35 1.51-1.81-1.76 11.87-1.73 5.31-10.75z" fill="#231f20"/><path d="m470.02 329-1.42 2.87-5.96 12.08-13.32 1.94-4.01.58 2.9 2.83 1.74 1.7h-125.37l.51-.5-4.01-.58-13.33-1.94-5.96-12.07-1.79-3.64v-3.27h12.49 31.02 77.41 31.01z" fill="#fff"/><path d="m469.96 333.65-.68 1.38-.68-1.38z" fill="#231f20"/><path d="m469.09 438.71-2.9 2.83-5.61 5.46h-2.86l5.27-5.13 1.51.22-.42-1.29.71-.69-.97-.14-.42-1.3-1.1 1.08-11.88-1.73-2.48-5.02h2.24l1.58 3.19-1.05-.15 1.51 1.09-.46-.94 13.32 1.94z" fill="#231f20"/><path d="m469.07 393-1.49 3.02-11.88 1.73-1.1-1.08-.42 1.3-.97.14.71.69-.42 1.29 1.51-.22 7.32 7.13h-2.86l-7.66-7.46-2.9-2.83 4.01-.58 13.32-1.94-.46.94 1.51-1.09-1.05.15.59-1.19z" fill="#231f20"/><path d="m467.29 394.04-1.51 1.09.46-.94z" fill="#231f20"/><path d="m467.15 365-6.95 3.65.63-3.65z" fill="#fbed24"/><path d="m466.83 393-.59 1.19-13.32 1.94-4.01.58 2.9 2.83 7.66 7.46h-142.83l3.55-3.46 2.9-2.83-4.01-.58-13.32-1.94-2.57-5.19z" fill="#231f20"/><path d="m465.75 407.54-.17 1.04-1.77 10.31-2.23 1.18 2.02-11.83-1.27-1.24h2.87z" fill="#231f20"/><path d="m465.2 407h-2.87l-7.32-7.13 2.5-.36 7.49 7.3z" fill="#231f20"/><path d="m464.79 440.11-.71.69-.26-.83z" fill="#231f20"/><path d="m464.08 440.8.42 1.29-1.51-.22z" fill="#231f20"/><path d="m463.82 439.97.26.83-1.09 1.07-2.5-.36 1.81-1.76z" fill="#231f20"/><path d="m463.4 438.67.42 1.3-1.52-.22z" fill="#231f20"/><path d="m463.81 418.89-.43 2.49-1.36.71-.7-.51.26-1.51z" fill="#231f20"/><path d="m463.68 343.8-1.5 1.09.46-.94z" fill="#231f20"/><path d="m463.38 421.38-.26 1.51-1.1-.8z" fill="#231f20"/><path d="m462.99 441.87-5.27 5.13h-2.86l5.63-5.49z" fill="#231f20"/><path d="m462.3 439.75-1.81 1.76-10.35-1.51-1.04-.15-.47-.95-2.91-5.9h2.22l2.48 5.02z" fill="#231f20"/><path d="m461.63 407.9.58 1.77-.76-.74z" fill="#231f20"/><path d="m462.15 357.3-.18 1.04-1.14 6.66h-2.03l1.2-7-7.19-7h2.88l5.71 5.57z" fill="#231f20"/><path d="m462.02 422.09-.87.46.17-.97z" fill="#231f20"/><path d="m461.58 420.07-.26 1.51-1.1-.8z" fill="#231f20"/><path d="m415.64 300.09.7.69-.42 1.29 1.52-.22 8.59 8.37-.82 4.78h-2.03l.7-4.08.75.73-.57-1.77-.18 1.04-9.64-9.4-2.91-2.83 4.02-.58 13.32-1.94-.46.94 1.5-1.09-1.04.15 5.96-12.07 1.79-3.64 1.8 3.64 5.96 12.07-1.04-.15 1.5 1.09-.46-.94 13.32 1.94 4.01.58-2.9 2.83-9.64 9.4-.18-1.04-.57 1.77.75-.73.7 4.08h-2.03l-.82-4.78 8.59-8.37 1.52.22-.42-1.29.7-.69-.97-.14-.42-1.29-1.1 1.07-11.87-1.73-5.31-10.75.68-1.38h-1.36l-.44-.89-.44.89h-1.35l.68 1.37-5.31 10.76-11.88 1.73-1.09-1.07-.42 1.29z" fill="#231f20"/><path d="m460.83 365-.63 3.65-2.22 1.18.82-4.83z" fill="#231f20"/><path d="m460.58 447-4.03 3.93-.18-1.03-.58 1.77.76-.74 2.27 13.28.69 4-3.59-1.89-11.92-6.27.93-.49h-1.86l.93.49-11.92 6.27-3.59 1.89.69-4 2.27-13.28.76.74-.58-1.77-.18 1.03-4.03-3.93h2.86l3.32 3.24-2.02 11.83-1.36.71 1.1.8-.17.97.87-.46 1.1.8.26-1.51 10.62-5.59 10.62 5.59.26 1.51 1.1-.8.87.46-.17-.97 1.1-.8-1.36-.71-2.02-11.83 3.32-3.24z" fill="#231f20"/><path d="m460.49 441.51-5.63 5.49h-21.72l-5.63-5.49 10.35-1.51 1.04-.15.47-.95 2.91-5.9h3.44l2.91 5.9.47.95 1.04.15z" fill="#fbed24"/><path d="m457.98 369.83 2.22-1.18-.42 2.49-1.36.71-.7-.51z" fill="#231f20"/><path d="m460 358-1.2 7h-2.03l1.08-6.3.75.73-.57-1.77-.18 1.04-7.9-7.7h2.86z" fill="#231f20"/><path d="m459.78 371.14-.26 1.51-1.1-.8z" fill="#231f20"/><path d="m458.03 357.66.57 1.77-.75-.73z" fill="#231f20"/><path d="m458.42 371.85-.87.46.17-.97z" fill="#231f20"/><path d="m457.98 369.83-.26 1.51-1.1-.8z" fill="#231f20"/><path d="m457.85 358.7-1.08 6.3h-143.83l-.39-2.27 9.64-9.4 2.39-2.33h125.37z" fill="#231f20"/><path d="m457.78 462.78-1.1.8-.26-1.51z" fill="#231f20"/><path d="m457.72 447-3.32 3.24 2.02 11.83-2.23-1.18-1.77-10.31-.17-1.04.75-.73 1.86-1.81z" fill="#231f20"/><path d="m455.7 397.75 1.81 1.76-2.5.36-1.09-1.07.26-.83z" fill="#231f20"/><path d="m457.21 300.09-.7.69-.27-.83z" fill="#231f20"/><path d="m456.51 300.78.42 1.29-1.52-.22z" fill="#231f20"/><path d="m456.68 463.58.17.97-.87-.46z" fill="#231f20"/><path d="m456.42 462.07.26 1.51-.7.51-1.36-.71-.43-2.49z" fill="#231f20"/><path d="m456.37 449.9.18 1.03-.76.74z" fill="#231f20"/><path d="m456.24 299.95.27.83-1.1 1.07-2.49-.36 1.8-1.76z" fill="#231f20"/><path d="m455.82 298.66.42 1.29-1.52-.22z" fill="#231f20"/><path d="m455.98 464.09-1.1.8-.26-1.51z" fill="#231f20"/><path d="m454.6 396.67 1.1 1.08-1.52.22z" fill="#231f20"/><path d="m455.69 351h-2.88l-1.4-1.37 2.5-.36z" fill="#231f20"/><path d="m455.41 301.85-8.59 8.37.82 4.78h-2.03l-.76-4.44-.18-1.04.75-.73 7.5-7.3z" fill="#231f20"/><path d="m453.92 398.8 1.09 1.07-1.51.22z" fill="#231f20"/><path d="m454.86 447-1.86 1.81-.75.73.17 1.04 1.77 10.31-9.26-4.87-.93-.49-.93.49-9.26 4.87 1.77-10.31.17-1.04-.75-.73-1.86-1.81z" fill="#fbed24"/><path d="m454.72 299.73-1.8 1.76-10.36-1.51-1.04-.15-.46-.94-4.63-9.39 1.11-2.25 5.31 10.75z" fill="#231f20"/><path d="m454.62 463.38-10.62-5.59-10.62 5.59.43-2.49 9.26-4.87.93-.49.93.49 9.26 4.87z" fill="#231f20"/><path d="m454.18 397.97-.26.83-.71-.69z" fill="#231f20"/><path d="m452.1 347.51 1.81 1.76-2.5.36-1.1-1.07.27-.83z" fill="#231f20"/><path d="m452.92 301.49-7.5 7.3-.75.73.18 1.04.76 4.44h-9.19-9.18l.76-4.44.18-1.04-.76-.73-7.49-7.3 10.36-1.51 1.04-.15.46-.94 4.64-9.39 4.63 9.39.46.94 1.04.15z" fill="#fbed24"/><path d="m451.76 436.19.46.94-1.51-1.09z" fill="#231f20"/><path d="m451 346.43 1.1 1.08-1.52.22z" fill="#231f20"/><path d="m451.93 328.19v.81h-31.01v-.81l3.59-1.89 11.92-6.27 11.91 6.27z" fill="#231f20"/><path d="m451.25 324.19.68 4-3.59-1.89-11.91-6.27.93-.49h-1.87l.94.49-11.92 6.27-3.59 1.89.68-4 1.58-9.19h2.03l-1.2 7.04-1.37.72 1.11.8-.17.97.87-.46 1.1.8.26-1.51 10.61-5.59 10.62 5.58.26 1.52 1.1-.8.88.46-.17-.97 1.1-.8-1.36-.71-1.21-7.05h2.03z" fill="#231f20"/><path d="m451.41 349.63-1.52.22.42-1.29z" fill="#231f20"/><path d="m450.58 347.73-.27.83-.7-.69z" fill="#231f20"/><path d="m450.21 322.76-1.1.8-.26-1.51z" fill="#231f20"/><path d="m445.79 424.11 4.39 8.89h-2.24l-2.83-5.74.68-1.37h-1.35l-.44-.89-.44.89h-1.35l.68 1.37-2.83 5.74h-2.24l4.39-8.89 1.79-3.63z" fill="#231f20"/><path d="m449.11 323.56.17.97-.88-.46z" fill="#231f20"/><path d="m448.85 322.05.26 1.51-.71.51-1.36-.72-.43-2.48z" fill="#231f20"/><path d="m448.79 309.88.18 1.04-.75.73z" fill="#231f20"/><path d="m448.85 322.05-2.24-1.18-1-5.87h2.03z" fill="#231f20"/><path d="m447.04 323.35 1.36.72-1.1.8z" fill="#231f20"/><path d="m445.11 427.26 2.83 5.74h-2.22l-1.72-3.48z" fill="#231f20"/><path d="m446.61 320.87.43 2.48-10.62-5.58-10.61 5.59.43-2.49 9.25-4.87.93-.49.94.49z" fill="#231f20"/><path d="m445.61 315 1 5.87-9.25-4.87-.94-.49v-.51z" fill="#fbed24"/><path d="m445.79 425.89-.68 1.37-.67-1.37z" fill="#231f20"/><path d="m444 429.52 1.72 3.48h-3.44z" fill="#fbed24"/><path d="m444.44 425.89.67 1.37-1.11 2.26-1.11-2.26.67-1.37z" fill="#231f20"/><path d="m444.93 459.56-.93.49-.93-.49z" fill="#231f20"/><path d="m444.18 296.17.46.94-1.5-1.09z" fill="#231f20"/><path d="m444 425 .44.89h-.88z" fill="#231f20"/><path d="m442.89 427.26 1.11 2.26-1.72 3.48h-2.22z" fill="#231f20"/><path d="m443.56 425.89-.67 1.37-.68-1.37z" fill="#231f20"/><path d="m442.28 433-2.91 5.9-.47.95-1.04.15-10.35 1.51-1.81-1.76 11.88-1.73 2.48-5.02z" fill="#231f20"/><path d="m440.06 433-2.48 5.02-11.88 1.73-1.1-1.08-.42 1.3-.97.14.71.69-.42 1.29 1.51-.22 5.27 5.13h-2.86l-5.61-5.46-2.9-2.83 4.01-.58 13.32-1.94-.46.94 1.51-1.09-1.05.15 1.58-3.19z" fill="#231f20"/><path d="m438.22 285.87-.68 1.38-.68-1.38z" fill="#231f20"/><path d="m437.82 433-1.58 3.19-13.32 1.94-4.01.58 2.9 2.83 5.61 5.46h-34.62l-2.76-5.59-1.79-3.63v-4.78z" fill="#231f20"/><path d="m436.86 285.87.68 1.38-1.11 2.25-1.12-2.26.67-1.37z" fill="#231f20"/><path d="m437.36 319.54-.93.49-.94-.49z" fill="#231f20"/><path d="m437.29 436.04-1.51 1.09.46-.94z" fill="#231f20"/><path d="m436.42 284.98.44.89h-.88z" fill="#231f20"/><path d="m436.43 289.5-4.64 9.39-.46.94-1.04.15-10.36 1.51-1.81-1.76 11.88-1.73 5.31-10.76z" fill="#231f20"/><path d="m436.42 315v.51l-.93.49-9.25 4.87 1-5.87z" fill="#fbed24"/><path d="m435.98 285.87-.67 1.37-.68-1.37z" fill="#231f20"/><path d="m435.75 449.54-.17 1.04-1.77 10.31-2.23 1.18 2.02-11.83-3.32-3.24h2.86l1.86 1.81z" fill="#231f20"/><path d="m433.81 460.89-.43 2.49-1.36.71-.7-.51.26-1.51z" fill="#231f20"/><path d="m433.38 463.38-.26 1.51-1.1-.8z" fill="#231f20"/><path d="m427.51 441.51 5.63 5.49h-2.86l-5.27-5.13z" fill="#231f20"/><path d="m431.63 449.9.58 1.77-.76-.74z" fill="#231f20"/><path d="m432.02 464.09-.87.46.17-.97z" fill="#231f20"/><path d="m431.58 462.07-.26 1.51-1.1-.8z" fill="#231f20"/><path d="m429.71 296.02-1.5 1.09.46-.94z" fill="#231f20"/><path d="m428.18 309.52-.18 1.04-.76 4.44h-2.03l.82-4.78-8.59-8.37 2.49-.36 7.49 7.3z" fill="#231f20"/><path d="m425.7 439.75 1.81 1.76-2.5.36-1.09-1.07.26-.83z" fill="#231f20"/><path d="m427.24 315-1 5.87-2.23 1.17 1.2-7.04z" fill="#231f20"/><path d="m426.24 320.87-.43 2.49-1.36.71-.7-.51.26-1.52z" fill="#231f20"/><path d="m425.81 323.36-.26 1.51-1.1-.8z" fill="#231f20"/><path d="m424.6 438.67 1.1 1.08-1.52.22z" fill="#231f20"/><path d="m423.92 440.8 1.09 1.07-1.51.22z" fill="#231f20"/><path d="m424.06 309.88.57 1.77-.75-.73z" fill="#231f20"/><path d="m424.45 324.07-.87.46.17-.97z" fill="#231f20"/><path d="m424.18 439.97-.26.83-.71-.69z" fill="#231f20"/><path d="m424.01 322.04-.26 1.52-1.11-.8z" fill="#231f20"/><path d="m423.18 315-1.58 9.19-.68 4v.81h-77.41v-.67l-.69-3.99-1.6-9.34h27.11 31.01z" fill="#231f20"/><path d="m418.12 299.73 1.81 1.76-2.49.36-1.1-1.07.27-.83z" fill="#231f20"/><path d="m417.03 298.66 1.09 1.07-1.51.22z" fill="#231f20"/><path d="m417.44 301.85-1.52.22.42-1.29z" fill="#231f20"/><path d="m416.61 299.95-.27.83-.7-.69z" fill="#231f20"/><path d="m394.97 453.34 1.5 1.09-.46-.94 13.32 1.93 4.01.59-2.9 2.83-9.64 9.39-.18-1.03-.58 1.77.76-.74 2.27 13.28.69 3.99-3.59-1.88-11.92-6.27.93-.49h-1.86l.93.49-11.92 6.27-3.58 1.88.68-3.99 2.27-13.28.76.74-.58-1.77-.18 1.03-9.64-9.39-2.9-2.83 4.01-.59 13.32-1.93-.46.94 1.51-1.09-1.05.15 3.21-6.49h2.23l-4.1 8.32-11.88 1.72-1.1-1.07-.42 1.29-.97.14.71.69-.42 1.29 1.51-.22 8.59 8.38-2.02 11.83-1.36.71 1.1.79-.17.98.88-.46 1.09.79.26-1.5 10.62-5.59 10.62 5.59.26 1.5 1.09-.79.88.46-.17-.98 1.1-.79-1.36-.71-2.02-11.83 8.59-8.38 1.52.22-.42-1.3.7-.68-.97-.14-.42-1.29-1.1 1.07-11.87-1.72-4.11-8.32h2.23l3.21 6.49z" fill="#231f20"/><path d="m409.04 457.4-.7.68-.27-.82z" fill="#231f20"/><path d="m404.62 282.98-.97-.14-.42-1.29-1.1 1.07-11.87-1.73-5.31-10.75.68-1.38h-1.37l-.43-.88-.43.88h-1.36l.68 1.37-5.31 10.76-11.88 1.73-1.09-1.07-.42 1.29-.98.14.71.69-.42 1.29 1.51-.22 8.6 8.38-2.03 11.82-1.36.71 1.1.8-.17.97.87-.46 1.1.8.26-1.51 10.62-5.58 10.62 5.58.26 1.51 1.1-.8.87.46-.17-.97 1.1-.8-1.36-.71-2.02-11.82 8.6-8.38 1.51.22-.42-1.29zm4.3-1.39-2.9 2.82-9.64 9.4-.18-1.03-.58 1.77.76-.74 2.28 13.28.68 3.99-3.59-1.89-11.92-6.26.93-.49h-1.86l.93.49-11.92 6.26-3.58 1.89.68-3.99 2.28-13.27.75.73-.57-1.77-.18 1.04-9.64-9.41-2.91-2.82 4.01-.59 13.33-1.93-.46.94 1.5-1.09-1.04.15 5.96-12.08 1.79-3.63 1.8 3.63 5.96 12.08-1.04-.15 1.5 1.09-.46-.94 13.32 1.93z" fill="#231f20"/><path d="m408.34 458.08.42 1.3-1.52-.22z" fill="#231f20"/><path d="m408.07 457.26.27.82-1.1 1.08-2.49-.36 1.8-1.76z" fill="#231f20"/><path d="m407.65 455.97.42 1.29-1.52-.22z" fill="#231f20"/><path d="m407.24 459.16-8.59 8.38 2.02 11.83-2.22-1.17-1.77-10.32-.18-1.04.75-.74 7.5-7.3z" fill="#231f20"/><path d="m406.55 457.04-1.8 1.76-10.36-1.51-1.04-.15-.47-.94-4.54-9.2h2.23l4.11 8.32z" fill="#231f20"/><path d="m404.75 458.8-7.5 7.3-.75.74.18 1.04 1.77 10.32-9.27-4.88-.93-.49-.93.49-9.26 4.87 1.77-10.31.17-1.04-.75-.73-7.5-7.31 10.36-1.51 1.04-.15.47-.94 4.54-9.2h.18l4.54 9.2.47.94 1.04.15z" fill="#fbed24"/><path d="m404.62 282.98-.7.69-.27-.83z" fill="#231f20"/><path d="m403.92 283.67.42 1.29-1.51-.22z" fill="#231f20"/><path d="m403.65 282.84.27.83-1.09 1.07-2.5-.36 1.8-1.76z" fill="#231f20"/><path d="m403.23 281.55.42 1.29-1.52-.22z" fill="#231f20"/><path d="m402.83 284.74-8.6 8.38 2.02 11.82-2.22-1.17-1.77-10.32-.18-1.03.75-.74 7.5-7.3z" fill="#231f20"/><path d="m402.13 282.62-1.8 1.76-10.36-1.51-1.04-.15-.47-.94-4.63-9.38 1.12-2.26 5.31 10.75z" fill="#231f20"/><path d="m402.03 480.08-1.1.79-.26-1.5z" fill="#231f20"/><path d="m400.93 480.87.17.98-.88-.46z" fill="#231f20"/><path d="m400.67 479.37.26 1.5-.71.52-1.35-.71-.42-2.48z" fill="#231f20"/><path d="m400.62 467.2.18 1.03-.76.74z" fill="#231f20"/><path d="m400.33 284.38-7.5 7.3-.75.74.18 1.03 1.77 10.32-9.27-4.87-.93-.49-.93.49-9.26 4.87 1.77-10.32.18-1.03-.76-.74-7.49-7.3 10.36-1.51 1.04-.15.46-.94 4.63-9.38 4.63 9.38.47.94 1.04.15z" fill="#fbed24"/><path d="m398.87 480.68 1.35.71-1.09.79z" fill="#231f20"/><path d="m399.34 311.08v3.92h-31.01v-3.92l3.58-1.89 11.92-6.26 11.92 6.26z" fill="#394ea1"/><path d="m398.45 478.2.42 2.48-10.62-5.59-10.62 5.59.43-2.49 9.26-4.87.93-.49.93.49z" fill="#231f20"/><path d="m397.61 305.65-1.1.8-.26-1.51z" fill="#231f20"/><path d="m396.51 306.45.17.97-.87-.46z" fill="#231f20"/><path d="m396.25 304.94.26 1.51-.7.51-1.36-.71-.42-2.48z" fill="#231f20"/><path d="m396.01 453.49.46.94-1.5-1.09z" fill="#231f20"/><path d="m396.2 292.78.18 1.03-.76.74z" fill="#231f20"/><path d="m395.81 306.96-1.1.8-.26-1.51z" fill="#231f20"/><path d="m394.03 303.77.42 2.48-10.62-5.58-10.62 5.58.43-2.48 9.26-4.87.93-.49.93.49z" fill="#231f20"/><path d="m390.04 441.41 2.76 5.59h-2.23l-1.21-2.45.68-1.37h-1.36l-.43-.88-.43.88h-1.36l.68 1.38-1.21 2.44h-2.23l2.76-5.59 1.79-3.63z" fill="#231f20"/><path d="m391.59 279.07.46.94-1.5-1.09z" fill="#231f20"/><path d="m389.36 444.55 1.21 2.45h-2.23l-.09-.19z" fill="#231f20"/><path d="m390.04 443.18-.68 1.37-.68-1.37z" fill="#231f20"/><path d="m389.36 444.55-1.11 2.26-1.11-2.25.68-1.38h.86z" fill="#231f20"/><path d="m389.18 476.86-.93.49-.93-.49z" fill="#231f20"/><path d="m388.25 442.3.43.88h-.86z" fill="#231f20"/><path d="m388.25 446.81.09.19h-.18z" fill="#fff"/><g fill="#231f20"><path d="m388.25 433v4.78l-1.79 3.63-2.76 5.59h-26.71l2.22-2.17-4.01-.58-13.33-1.94-4.59-9.31z"/><path d="m387.14 444.56 1.11 2.25-.09.19h-2.23z"/><path d="m388.16 447-4.54 9.2-.47.94-1.04.15-10.36 1.51-1.8-1.76 11.88-1.72 4.1-8.32z"/><path d="m387.82 443.18-.68 1.38-.68-1.38z"/><path d="m385.63 268.76-.68 1.38-.69-1.38z"/><path d="m384.95 270.14-1.12 2.26-1.11-2.27.68-1.37h.86z"/><path d="m384.76 302.44-.93.49-.93-.49z"/><path d="m383.83 267.88.43.88h-.86z"/><path d="m382.72 270.13 1.11 2.27-4.63 9.38-.46.94-1.04.15-10.36 1.51-1.81-1.76 11.88-1.73z"/><path d="m383.4 268.76-.68 1.37-.68-1.37z"/><path d="m381.54 453.34-1.51 1.09.46-.94z"/><path d="m380 466.84-.17 1.04-1.77 10.31-2.23 1.18 2.02-11.83-8.59-8.38 2.49-.36 7.5 7.31z"/><path d="m378.06 478.19-.43 2.49-1.35.71-.71-.52.26-1.5z"/><path d="m377.63 480.68-.26 1.5-1.09-.79z"/><path d="m377.12 278.92-1.5 1.09.46-.94z"/><path d="m375.88 467.2.58 1.77-.76-.74z"/><path d="m376.28 481.39-.88.46.17-.98z"/><path d="m375.83 479.37-.26 1.5-1.1-.79z"/><path d="m375.59 292.42-.18 1.03-1.77 10.32-2.23 1.17 2.03-11.82-8.6-8.38 2.5-.36 7.49 7.3z"/><path d="m373.64 303.77-.43 2.48-1.36.71-.7-.51.26-1.51z"/><path d="m373.21 306.25-.26 1.51-1.1-.8z"/><path d="m371.47 292.78.57 1.77-.75-.73z"/><path d="m371.85 306.96-.87.46.17-.97z"/><path d="m369.95 457.04 1.8 1.76-2.49.36-1.09-1.07.26-.83z"/><path d="m371.41 304.94-.26 1.51-1.1-.8z"/><path d="m369.95 457.04-1.52.22.42-1.29z"/><path d="m368.17 458.09 1.09 1.07-1.51.22z"/><path d="m368.43 457.26-.26.83-.71-.69z"/><path d="m365.53 282.62 1.81 1.76-2.5.36-1.09-1.07.27-.83z"/><path d="m364.44 281.55 1.09 1.07-1.51.22z"/><path d="m363.75 283.67 1.09 1.07-1.51.22z"/><path d="m364.02 282.84-.27.83-.71-.69z"/><path d="m354.91 446.23-.97-.14-.42-1.29-1.1 1.07-11.87-1.73-5.31-10.75.19-.39h1.85l4.59 9.31-1.03-.15 1.5 1.1-.47-.95 13.33 1.94 4.01.58-2.22 2.17h-2.75l-.03-.08z"/><path d="m356.99 447-.68.66-9.64 9.41-.18-1.04-.57 1.77.75-.73 2.28 13.26.68 4-3.59-1.89-11.91-6.26.93-.49h-1.87l.94.49-11.92 6.26-3.59 1.89.68-4 2.28-13.26.75.73-.57-1.77-.18 1.04-9.64-9.41-.68-.66h2.75l-.39 1.21 1.52-.22 8.59 8.37-2.03 11.83-1.36.71 1.1.8-.17.97.88-.46 1.1.8.26-1.52 10.61-5.57 10.62 5.57.26 1.52 1.1-.8.88.46-.17-.97 1.1-.8-1.36-.71-2.03-11.83 8.59-8.37 1.52.22-.39-1.21z"/><path d="m354.91 446.23-.7.69-.27-.83z"/><path d="m354.24 447 .39 1.21-1.52-.22 1.02-.99z"/><path d="m354.24 447h-.11l.08-.08z"/><path d="m353.94 446.09.27.83-.08.08h-2.87l1.16-1.13z"/><path d="m354.13 447-1.02.99-2.49-.36.64-.63z"/><path d="m353.52 444.8.42 1.29-1.52-.22z"/><path d="m353.11 447.99-8.59 8.37 2.03 11.83-2.23-1.18-1.77-10.31-.18-1.03.75-.74 7.5-7.3z"/><path d="m353.09 298.84-2.9 2.82-9.64 9.4-.18-1.03-.58 1.77.76-.74.67 3.94h-2.03l-.79-4.63 8.59-8.38 1.51.22-.42-1.29.71-.69-.97-.14-.42-1.29-1.1 1.07-11.88-1.73-5.31-10.76.68-1.37h-1.36l-.43-.88-.43.88h-1.36l.68 1.37-5.31 10.76-11.88 1.73-1.1-1.07-.42 1.29-.97.14.71.69-.42 1.29 1.51-.22 8.59 8.38-.79 4.63h-2.03l.67-3.94.76.74-.58-1.77-.18 1.03-9.64-9.4-2.9-2.82 4.01-.59 13.32-1.93-.46.94 1.51-1.09-1.05.15 5.97-12.08 1.79-3.63 1.79 3.63 5.97 12.08-1.05-.15 1.51 1.09-.46-.94 13.32 1.93z"/><path d="m352.42 445.87-1.16 1.13h-4.95l-6.05-.88-1.04-.15-.46-.94-4.63-9.39 1.11-2.25 5.31 10.75z"/><path d="m351.26 447-.64.63-4.31-.63z"/></g><path d="m350.62 447.63-7.5 7.3-.75.74.18 1.03 1.77 10.31-9.26-4.86-.94-.49-.93.49-9.26 4.86 1.77-10.31.18-1.03-.76-.74-7.49-7.3 4.31-.63h24.37z" fill="#fbed24"/><path d="m348.79 300.23-.71.69-.26-.83z" fill="#231f20"/><path d="m348.08 300.92.42 1.29-1.51-.22z" fill="#231f20"/><path d="m347.82 300.09.26.83-1.09 1.07-2.49-.36 1.8-1.76z" fill="#231f20"/><path d="m347.91 468.9-1.1.8-.26-1.51z" fill="#231f20"/><path d="m347.82 300.09-1.52-.22 1.1-1.07z" fill="#231f20"/><path d="m346.99 301.99-8.59 8.38.79 4.63h-2.03l-.74-4.3-.17-1.03.75-.74 7.5-7.3z" fill="#231f20"/><path d="m346.81 469.7.17.97-.88-.46z" fill="#231f20"/><path d="m346.55 468.19.26 1.51-.71.51-1.36-.72-.42-2.48z" fill="#231f20"/><path d="m346.49 456.03.18 1.04-.75.73z" fill="#231f20"/><path d="m346.31 447h-24.37l6.05-.88 1.04-.15.46-.94 4.64-9.39 4.63 9.39.46.94 1.04.15z" fill="#fbed24"/><path d="m346.3 299.87-1.8 1.76-10.36-1.51-1.04-.15-.47-.94-4.63-9.39 1.11-2.26 5.31 10.76z" fill="#231f20"/><path d="m346.1 470.21-1.1.8-.26-1.52z" fill="#231f20"/><path d="m344.32 467.01.42 2.48-10.62-5.57-10.61 5.57.42-2.48 9.26-4.86.93-.49.94.49z" fill="#231f20"/><path d="m344.5 301.63-7.5 7.3-.75.74.17 1.03.74 4.3h-9.16-9.17l.74-4.3.18-1.03-.75-.74-7.5-7.3 10.36-1.51 1.04-.15.47-.94 4.63-9.39 4.63 9.39.47.94 1.04.15z" fill="#fbed24"/><path d="m343.51 328.33v.67h-31.02v-.67l3.59-1.89 11.92-6.26 11.92 6.26z" fill="#231f20"/><path d="m342.82 324.34.69 3.99-3.59-1.89-11.92-6.26.93-.49h-1.86l.93.49-11.92 6.26-3.59 1.89.69-3.99 1.6-9.34h2.03l-1.23 7.19-1.36.71 1.1.8-.17.97.87-.46 1.1.8.26-1.51 10.62-5.58 10.62 5.58.26 1.51 1.1-.8.87.46-.17-.97 1.1-.8-1.36-.71-1.23-7.19h2.03z" fill="#231f20"/><path d="m341.87 442.31.47.95-1.5-1.1z" fill="#231f20"/><path d="m341.78 322.9-1.1.8-.26-1.51z" fill="#231f20"/><path d="m340.68 323.7.17.97-.87-.46z" fill="#231f20"/><path d="m340.42 322.19.26 1.51-.7.51-1.36-.71-.43-2.48z" fill="#231f20"/><path d="m340.37 310.03.18 1.03-.76.74z" fill="#231f20"/><path d="m339.19 315 1.23 7.19-2.23-1.17-1.03-6.02z" fill="#231f20"/><path d="m339.98 324.21-1.1.8-.26-1.51z" fill="#231f20"/><path d="m338.19 321.02.43 2.48-10.62-5.58-10.62 5.58.42-2.48 9.27-4.87.93-.49.93.49z" fill="#231f20"/><path d="m338.19 321.02-9.26-4.87-.93-.49v-.66h9.16z" fill="#fbed24"/><path d="m335.92 430.24 1.36 2.76h-1.85l.49-.99h-1.36l-.44-.89-.44.89h-1.35l.49.99h-1.85l1.36-2.76 1.79-3.64z" fill="#231f20"/><path d="m335.76 296.32.46.94-1.51-1.09z" fill="#231f20"/><path d="m335.92 432.01-.49.99h-.38l-.49-.99z" fill="#231f20"/><path d="m335.43 433-.19.39-.19-.39z" fill="#231f20"/><path d="m335.05 433 .19.39-1.11 2.25-1.12-2.26.18-.38z" fill="#231f20"/><path d="m335.06 465.69-.93.49-.94-.49z" fill="#231f20"/><path d="m334.56 432.01.49.99h-1.86l.49-.99z" fill="#231f20"/><path d="m334.12 431.12.44.89h-.88z" fill="#231f20"/><path d="m334.13 435.64-4.64 9.39-.46.94-1.04.15-6.05.88h-4.95l-1.17-1.13 11.88-1.73 5.31-10.76z" fill="#231f20"/><path d="m333.68 432.01-.49.99h-.37l-.49-.99z" fill="#231f20"/><path d="m333.19 433-.18.38-.19-.38z" fill="#231f20"/><path d="m333.01 433.38-5.31 10.76-11.88 1.73-1.09-1.07-.42 1.29-.98.14.71.69-.03.08h-2.75l-2.23-2.17 4.01-.58 13.34-1.94-.47.95 1.5-1.1-1.03.15 4.59-9.31h1.85z" fill="#231f20"/><path d="m330.97 433-4.59 9.31-13.34 1.94-4.01.58 2.23 2.17h-138.15v-14h109.38 31.02z" fill="#231f20"/><path d="m329.79 286.01-.68 1.37-.68-1.37z" fill="#231f20"/><path d="m329.11 287.38-1.11 2.26-1.11-2.26.68-1.37h.86z" fill="#231f20"/><path d="m328.93 319.69-.93.49-.93-.49z" fill="#231f20"/><path d="m328 285.13.43.88h-.86z" fill="#231f20"/><path d="m328 315v.66l-.93.49-9.27 4.87 1.03-6.02z" fill="#fbed24"/><path d="m326.89 287.38 1.11 2.26-4.63 9.39-.47.94-1.04.15-10.36 1.51-1.8-1.76 11.88-1.73z" fill="#231f20"/><path d="m327.57 286.01-.68 1.37-.68-1.37z" fill="#231f20"/><path d="m327.41 442.16-1.5 1.1.47-.95z" fill="#231f20"/><path d="m325.88 455.67-.18 1.03-1.77 10.31-2.23 1.18 2.03-11.83-8.59-8.37 2.49-.36 7.49 7.3z" fill="#231f20"/><path d="m325.09 350.5-.51.5h-5.01l-.17-.53-.54.53h-4.26l-8.18-1.19-5.31-10.76.68-1.37h-1.35l-.44-.89-.44.89h-1.35l.68 1.37-5.31 10.76-8.18 1.19h-4.26l-.54-.53-.17.53h-5.01l-.51-.5 4.01-.58 13.33-1.94-.47.95 1.51-1.1-1.04.15 5.96-12.07 1.79-3.64 1.79 3.64 5.96 12.07-1.04-.15 1.51 1.1-.47-.95 13.33 1.94z" fill="#231f20"/><path d="m324.58 351-2.39 2.33-9.64 9.4-.18-1.04-.58 1.78.76-.74.39 2.27h-2.03l-.51-2.97 8.59-8.37 1.51.22-.42-1.29.71-.69-.97-.14-.25-.76z" fill="#231f20"/><path d="m323.93 467.01-.42 2.48-1.36.72-.71-.51.26-1.51z" fill="#231f20"/><path d="m322.15 470.21 1.36-.72-.26 1.52z" fill="#231f20"/><path d="m323.09 400.71-2.9 2.83-3.55 3.46h-2.87l3.22-3.13 1.51.22-.42-1.29.71-.69-.97-.14-.42-1.3-1.1 1.08-11.88-1.73-3.46-7.02h2.23l2.57 5.19-1.05-.15 1.51 1.09-.46-.94 13.32 1.94z" fill="#231f20"/><path d="m321.76 456.03.57 1.77-.75-.73z" fill="#231f20"/><path d="m322.15 470.21-.88.46.17-.97z" fill="#231f20"/><path d="m321.94 447-4.31.63-.64-.63z" fill="#231f20"/><path d="m321.7 468.19-.26 1.51-1.1-.8z" fill="#231f20"/><path d="m321.29 296.17-1.51 1.09.46-.94z" fill="#231f20"/><path d="m320.79 351.9-.71.69-.26-.83z" fill="#231f20"/><path d="m320.08 352.59.42 1.29-1.51-.22z" fill="#231f20"/><path d="m319.82 351.76.26.83-1.09 1.07-2.49-.36 1.8-1.76z" fill="#231f20"/><path d="m319.82 351.76-1.52-.22.56-.54h.71z" fill="#231f20"/><path d="m319.75 309.67-.18 1.03-.74 4.3h-2.02l.79-4.63-8.59-8.38 2.49-.36 7.5 7.3z" fill="#231f20"/><path d="m319.4 350.47.17.53h-.71z" fill="#231f20"/><path d="m318.99 353.66-8.59 8.37.51 2.97h-2.04l-.45-2.63-.17-1.04.75-.73 7.5-7.3z" fill="#231f20"/><path d="m318.86 351-.56.54-3.7-.54z" fill="#231f20"/><path d="m318.83 315-1.03 6.02-2.22 1.17 1.23-7.19z" fill="#231f20"/><path d="m318.79 402.11-.71.69-.26-.83z" fill="#231f20"/><path d="m318.08 402.8.42 1.29-1.51-.22z" fill="#231f20"/><path d="m318.3 351.54-1.8 1.76-10.36-1.51-1.04-.15-.32-.64h9.82z" fill="#231f20"/><path d="m317.82 401.97.26.83-1.09 1.07-2.5-.36 1.81-1.76z" fill="#231f20"/><path d="m317.4 400.67.42 1.3-1.52-.22z" fill="#231f20"/><path d="m317.8 321.02-.42 2.48-1.36.71-.7-.51.26-1.51z" fill="#231f20"/><path d="m316.99 447 .64.63-2.49.36-1.02-.99z" fill="#231f20"/><path d="m317.38 323.5-.26 1.51-1.1-.8z" fill="#231f20"/><path d="m316.99 403.87-3.22 3.13h-2.86l3.58-3.49z" fill="#231f20"/><path d="m316.99 447h-2.87l-.08-.08.27-.83 1.51-.22z" fill="#231f20"/><path d="m316.64 407-6.09 5.93-.18-1.03-.58 1.77.76-.74 2.27 13.28.69 4-3.59-1.89-11.92-6.27.93-.49h-1.86l.93.49-11.92 6.27-3.59 1.89.69-4 2.27-13.28.76.74-.58-1.77-.18 1.03-6.09-5.93h2.87l5.37 5.24-2.02 11.83-1.36.71 1.1.8-.17.97.87-.46 1.1.8.26-1.51 10.62-5.59 10.62 5.59.26 1.51 1.1-.8.87.46-.17-.97 1.1-.8-1.36-.71-2.02-11.83 5.37-5.24z" fill="#231f20"/><path d="m316.5 353.3-7.5 7.3-.75.73.17 1.04.45 2.63h-17.75l.45-2.63.18-1.04-.75-.73-7.5-7.3 10.36-1.51 1.04-.15.32-.64h9.56l.32.64 1.04.15z" fill="#fbed24"/><path d="m316.3 401.75-1.81 1.76-10.35-1.51-1.04-.15-.47-.95-3.9-7.9h2.23l3.46 7.02z" fill="#231f20"/><path d="m315.63 310.03.58 1.77-.76-.74z" fill="#231f20"/><path d="m316.02 324.21-.87.46.17-.97z" fill="#231f20"/><path d="m314.73 444.8 1.09 1.07-1.51.22z" fill="#231f20"/><path d="m315.58 322.19-.26 1.51-1.1-.8z" fill="#231f20"/><path d="m314.82 376 .69 4-3.59-1.89-11.92-6.26.93-.49h-1.86l.93.49-11.92 6.26-3.59 1.89.69-4 1.88-11h2.03l-1.52 8.86-1.35.71 1.1.8-.17.97.87-.46 1.1.8.26-1.51 10.62-5.58 10.62 5.58.26 1.51 1.1-.8.87.46-.17-.97 1.1-.8-1.35-.71-1.52-8.86h2.03z" fill="#231f20"/><path d="m315.14 447.99-1.52.22.39-1.21h.11z" fill="#231f20"/><path d="m314.78 315-1.6 9.34-.69 3.99v.67h-12.49-126.89v-14z" fill="#231f20"/><path d="m314.6 351h-9.82l-.15-.3-4.63-9.39 1.11-2.26 5.31 10.76z" fill="#231f20"/><path d="m314.49 403.51-3.58 3.49h-25.82l-3.58-3.49 10.35-1.51 1.04-.15.47-.95 3.9-7.9h1.46l3.9 7.9.47.95 1.04.15z" fill="#fbed24"/><path d="m314.31 446.09-.27.83-.71-.69z" fill="#231f20"/><path d="m314.04 446.92.08.08h-.11z" fill="#231f20"/><path d="m313.78 374.57-1.1.8-.25-1.51z" fill="#231f20"/><path d="m313.77 407-5.37 5.24 2.02 11.83-2.23-1.18-1.77-10.31-.17-1.04.75-.73 3.91-3.81z" fill="#231f20"/><path d="m313.51 430.21v2.79h-31.02v-2.79l3.59-1.89 11.92-6.27 11.92 6.27z" fill="#fff"/><path d="m312.68 375.37.17.97-.87-.46z" fill="#231f20"/><path d="m312.43 373.86.25 1.51-.7.51-1.36-.71-.43-2.48z" fill="#231f20"/><path d="m312.37 361.69.18 1.04-.76.74z" fill="#231f20"/><path d="m312.43 373.86-2.24-1.17-1.32-7.69h2.04z" fill="#231f20"/><path d="m311.98 375.88-1.1.8-.26-1.51z" fill="#231f20"/><path d="m311.78 424.78-1.1.8-.26-1.51z" fill="#231f20"/><path d="m309.7 299.87 1.8 1.76-2.49.36-1.09-1.07.26-.83z" fill="#231f20"/><path d="m310.91 407-3.91 3.81-.75.73.17 1.04 1.77 10.31-9.26-4.87-.93-.49-.93.49-9.27 4.87 1.77-10.31.18-1.04-.75-.73-3.91-3.81z" fill="#fbed24"/><path d="m310.68 425.58.17.97-.87-.46z" fill="#231f20"/><path d="m310.42 424.07.26 1.51-.7.51-1.36-.71-.43-2.49z" fill="#231f20"/><path d="m310.19 372.69.43 2.48-10.62-5.58-10.62 5.58.42-2.48 9.27-4.87.93-.49.93.49z" fill="#231f20"/><path d="m310.37 411.9.18 1.03-.76.74z" fill="#231f20"/><path d="m310.19 372.69-9.26-4.87-.93-.49-.93.49-9.27 4.87 1.32-7.69h17.75z" fill="#fbed24"/><path d="m309.98 426.09-1.1.8-.26-1.51z" fill="#231f20"/><path d="m309.7 299.87-1.52.22.42-1.29z" fill="#231f20"/><path d="m307.92 300.92 1.09 1.07-1.51.22z" fill="#231f20"/><path d="m308.62 425.38-10.62-5.59-10.62 5.59.42-2.49 9.27-4.87.93-.49.93.49 9.26 4.87z" fill="#231f20"/><path d="m307.75 347.98.47.95-1.51-1.1z" fill="#231f20"/><path d="m308.18 300.09-.26.83-.71-.69z" fill="#231f20"/><path d="m305.76 398.19.46.94-1.51-1.09z" fill="#231f20"/><path d="m304.63 350.7.15.3h-9.56l.15-.3 4.63-9.39z" fill="#fbed24"/><path d="m299.79 386.11 3.4 6.89h-2.23l-1.85-3.74.68-1.37h-1.35l-.44-.89-.44.89h-1.35l.68 1.37-1.85 3.74h-2.23l3.4-6.89 1.79-3.63z" fill="#231f20"/><path d="m301.79 337.68-.68 1.37-.67-1.37z" fill="#231f20"/><path d="m300.44 337.68.67 1.37-1.11 2.26-1.11-2.26.67-1.37z" fill="#231f20"/><path d="m299.11 389.26 1.85 3.74h-2.23l-.73-1.48z" fill="#231f20"/><path d="m300.93 371.36-.93.49-.93-.49z" fill="#231f20"/><path d="m300 336.79.44.89h-.88z" fill="#231f20"/><path d="m300 329v3.27l-1.79 3.64-5.96 12.07-13.33 1.94-4.01.58.51.5h-102.31v-22z" fill="#fff"/><path d="m298.89 339.05 1.11 2.26-4.63 9.39-.15.3h-9.82l8.18-1.19z" fill="#231f20"/><path d="m299.79 387.89-.68 1.37-.67-1.37z" fill="#231f20"/><path d="m299.56 337.68-.67 1.37-.68-1.37z" fill="#231f20"/><path d="m298.44 387.89.67 1.37-1.11 2.26-1.11-2.26.67-1.37z" fill="#231f20"/><path d="m298.93 421.56-.93.49-.93-.49z" fill="#231f20"/><path d="m298 391.52.73 1.48h-1.46z" fill="#fff"/><path d="m298 387 .44.89h-.88z" fill="#231f20"/><path d="m296.89 389.26 1.11 2.26-.73 1.48h-2.23z" fill="#231f20"/><path d="m297.56 387.89-.67 1.37-.68-1.37z" fill="#231f20"/><path d="m297.27 393-3.9 7.9-.47.95-1.04.15-10.35 1.51-1.81-1.76 11.88-1.73 3.46-7.02z" fill="#231f20"/><path d="m295.22 351-.32.64-1.04.15-10.36 1.51-1.8-1.76 3.7-.54z" fill="#231f20"/><path d="m295.04 393-3.46 7.02-11.88 1.73-1.1-1.08-.42 1.3-.97.14.71.69-.42 1.29 1.51-.22 3.22 3.13h-2.87l-3.55-3.46-2.9-2.83 4.01-.58 13.32-1.94-.46.94 1.51-1.09-1.05.15 2.57-5.19z" fill="#231f20"/><path d="m293.29 347.83-1.51 1.1.47-.95z" fill="#231f20"/><path d="m292.81 393-2.57 5.19-13.32 1.94-4.01.58 2.9 2.83 3.55 3.46h-106.25v-14z" fill="#231f20"/><path d="m291.75 361.33-.18 1.04-.45 2.63h-2.03l.51-2.97-8.59-8.37 2.49-.36 7.5 7.3z" fill="#231f20"/><path d="m291.29 398.04-1.51 1.09.46-.94z" fill="#231f20"/><path d="m291.12 365-1.32 7.69-2.23 1.17 1.52-8.86z" fill="#231f20"/><path d="m289.8 372.69-.42 2.48-1.36.71-.7-.51.25-1.51z" fill="#231f20"/><path d="m289.75 411.54-.18 1.04-1.77 10.31-2.22 1.18 2.02-11.83-5.37-5.24h2.86l3.91 3.81z" fill="#231f20"/><path d="m289.6 362.03-.51 2.97h-2.03l.39-2.27.76.74-.58-1.77-.18 1.03-9.64-9.4-2.39-2.33h5.01l-.25.76-.97.14.71.69-.42 1.29 1.51-.22z" fill="#231f20"/><path d="m289.38 375.17-.26 1.51-1.1-.8z" fill="#231f20"/><path d="m287.63 361.7.58 1.77-.76-.74z" fill="#231f20"/><path d="m288.02 375.88-.87.46.17-.97z" fill="#231f20"/><path d="m285.58 424.07 2.22-1.18-.42 2.49-1.36.71-.7-.51z" fill="#231f20"/><path d="m287.57 373.86-.25 1.51-1.1-.8z" fill="#231f20"/><path d="m287.45 362.73-.39 2.27h-113.95v-14h102.31l2.39 2.33z" fill="#231f20"/><path d="m287.38 425.38-.26 1.51-1.1-.8z" fill="#231f20"/><path d="m285.63 411.9.58 1.77-.76-.74z" fill="#231f20"/><path d="m286.02 426.09-.87.46.17-.97z" fill="#231f20"/><path d="m285.58 424.07-.26 1.51-1.1-.8z" fill="#231f20"/><path d="m285.45 412.93-2.27 13.28-.69 4v2.79h-109.38v-26h106.25z" fill="#fff"/><path d="m285.4 351-3.7.54-.56-.54z" fill="#231f20"/><path d="m281.51 403.51 3.58 3.49h-2.86l-3.22-3.13z" fill="#231f20"/><path d="m281.7 351.54 1.8 1.76-2.49.36-1.09-1.07.26-.83z" fill="#231f20"/><path d="m281.7 351.54-1.52.22.25-.76h.71z" fill="#231f20"/><path d="m279.7 401.75 1.81 1.76-2.5.36-1.09-1.07.26-.83z" fill="#231f20"/><path d="m280.6 350.47.54.53h-.71z" fill="#231f20"/><path d="m279.92 352.59 1.09 1.07-1.51.22z" fill="#231f20"/><path d="m280.18 351.76-.26.83-.71-.69z" fill="#231f20"/><path d="m278.6 400.67 1.1 1.08-1.52.22z" fill="#231f20"/><path d="m277.92 402.8 1.09 1.07-1.51.22z" fill="#231f20"/><path d="m278.18 401.97-.26.83-.71-.69z" fill="#231f20"/><path d="m141.92 52.59c27.34 0 48.76 16.86 48.76 38.38 0 12.1-6.77 22.73-17.57 29.71v-8.08h-7.07c8.63-5.1 14.14-12.9 14.14-21.63 0-15.4-17.13-27.88-38.26-27.88-21.12 0-38.25 12.48-38.25 27.88 0 9.57 6.62 18.01 16.7 23.03l-8.87.02.01 7.16c-11.24-6.98-18.34-17.82-18.34-30.21 0-21.52 21.42-38.38 48.75-38.38z" fill="#231f20"/><path d="m173.11 530.67v254.71h-10.5v-378.38h1.39 3.52l.37 40 .67 73.17v10.5z" fill="#231f20"/><path d="m168.56 520.17h4.55v10.5h-4.55z" fill="#231f20"/><path d="m168.56 509.67h4.55v10.5h-4.55z" fill="#231f20"/><path d="m173.11 447v62.67h-4.55v10.5l-.67-73.17h.11z" fill="#231f20"/><path d="m168 433h5.11v14h-5.11z" fill="#231f20"/><path d="m173.11 407v26h-5.11v14h-.11l-.37-40z" fill="#231f20"/><path d="m173.11 393v14h-5.59l-.13-14z" fill="#231f20"/><path d="m173.11 365v28h-5.72l-.26-28z" fill="#231f20"/><path d="m173.11 351v14h-5.98l-.12-14z" fill="#231f20"/><path d="m173.11 329v22h-6.1l-.21-21.99 1.2-.01z" fill="#231f20"/><path d="m168 315h5.11v14h-5.11z" fill="#231f20"/><path d="m173.11 150.84v164.16h-5.11v14l-1.2.01-1.63-178.17z" fill="#231f20"/><path d="m173.11 140.34v10.5h-7.94l-.1-10.5z" fill="#231f20"/><path d="m165.07 129.84h8.04v10.5h-8.04z" fill="#231f20"/><path d="m173.11 120.68v9.16h-8.04v10.5 10.5h.1l1.63 178.17.21 21.99h-1.01v14h1.13l.26 28h-3.39v14h-1.39v-281.15c3.8-1.37 7.33-3.11 10.5-5.17z" fill="#231f20"/><path d="m173.11 112.6v8.08c-3.17 2.06-6.7 3.8-10.5 5.17v-11.43c1.19-.56 2.34-1.16 3.43-1.82z" fill="#231f20"/><path d="m141.92 63.09c21.13 0 38.26 12.48 38.26 27.88 0 8.73-5.51 16.53-14.14 21.63h-3.43-10.5v5.24c-3.24.66-6.66 1.01-10.19 1.01-3.25 0-6.4-.29-9.41-.86l-.01-4.01-10.5.02h-1.63c-10.08-5.02-16.7-13.46-16.7-23.03 0-15.4 17.13-27.88 38.25-27.88zm27.76 27.88c0-9.26-12.97-17.38-27.76-17.38-14.78 0-27.75 8.12-27.75 17.38s12.97 17.38 27.75 17.38c14.79 0 27.76-8.12 27.76-17.38z" fill="#231f20"/><path d="m167.39 393 .13 14h-3.52v-14z" fill="#231f20"/><path d="m167.01 351 .12 14h-1.13v-14z" fill="#231f20"/><path d="m162.61 112.6h3.43c-1.09.66-2.24 1.26-3.43 1.82z" fill="#231f20"/><path d="m165.07 140.34.1 10.5h-.1z" fill="#231f20"/><path d="m162.61 407v378.38h-10.5v-656.84c3.68-.59 7.2-1.5 10.5-2.69z" fill="#231f20"/><path d="m162.61 114.42v11.43c-3.3 1.19-6.82 2.1-10.5 2.69v-10.7c3.77-.75 7.3-1.91 10.5-3.42z" fill="#231f20"/><path d="m162.61 112.6v1.82c-3.2 1.51-6.73 2.67-10.5 3.42v-5.24z" fill="#231f20"/><path d="m141.92 73.59c14.79 0 27.76 8.12 27.76 17.38s-12.97 17.38-27.76 17.38c-14.78 0-27.75-8.12-27.75-17.38s12.97-17.38 27.75-17.38z" fill="#c8c8c8"/><path d="m152.11 117.84v10.7c-3.27.53-6.68.81-10.19.81-3.22 0-6.37-.23-9.4-.69l-.01-10.67c3.01.57 6.16.86 9.41.86 3.53 0 6.95-.35 10.19-1.01z" fill="#231f20"/><path d="m132.52 128.66 1.1 656.7-10.5.02-1.1-659.26c3.31 1.14 6.83 2 10.5 2.54z" fill="#231f20"/><path d="m132.51 117.99.01 10.67c-3.67-.54-7.19-1.4-10.5-2.54l-.02-11.35c3.22 1.44 6.76 2.54 10.51 3.22z" fill="#231f20"/><path d="m132.5 113.98.01 4.01c-3.75-.68-7.29-1.78-10.51-3.22v-.77z" fill="#231f20"/><path d="m122.02 126.12 1.1 659.26-10.5.021-1.11-664.22c3.19 1.979 6.72 3.649 10.51 4.939z" fill="#231f20"/><path d="m122 114.77.02 11.35c-3.79-1.29-7.32-2.96-10.51-4.94l-.01-7.16 8.87-.02c.53.27 1.08.53 1.63.77z" fill="#231f20"/><path d="m122 114v.77c-.55-.24-1.1-.5-1.63-.77z" fill="#231f20"/><path d="m0 0h850.394v850.394h-850.394z" fill="none"/></svg>