<svg enable-background="new 0 0 850.394 850.394" height="850.394" viewBox="0 0 850.394 850.394" width="850.394" xmlns="http://www.w3.org/2000/svg"><path d="m174.91 515.69v248.31h-.91-36.74v-627.99l2.12-5.52c4.78 1.68 10.15 2.62 15.81 2.62 7.27 0 14.04-1.55 19.72-4.23v24.71 16.17 7.87 42.04 14.76 36.67 13.78 40.34 15.74z" fill="#c8c8c8"/><path d="m549.85 334.37c3.261 7.04 8.301 14.84 16.08 21.87 21.59 19.51 36.13 22.84 36.13 22.84l.62-.11s14.53-3.32 36.13-22.84c7.74-7 12.761-14.75 16.021-21.76 5.59-12.02 5.99-21.84 5.99-21.84v-83.05s-13.67 8.08-27.41 8.72c-17.86.83-30.94-11.52-30.94-11.52s-13.29 12.46-31.14 11.63c-13.74-.64-27.41-8.72-27.41-8.72v83.05c-.001 0 .389 9.76 5.929 21.73zm-106.22-177.23h-83.63v-2.14-1.41h373.13v362.1h-552.55-5.67v-174.73h3.06l1.13-.64 2.1 3.68h15.46 8.86 79.43 2.15 11.63 46.51 14.76 80.68 25.67v-9.92-9.84-37.39-14.76-38.64-14.76-40.08-17.44-4.03h-10.91z" fill="#394ea1"/><path d="m549.85 334.37h104.98c-3.26 7.01-8.28 14.76-16.021 21.76-21.6 19.52-36.13 22.84-36.13 22.84l-.62.11s-14.54-3.33-36.13-22.84c-7.779-7.03-12.819-14.83-16.079-21.87z" fill="#a8d7f4"/><path d="m614.62 290.73-6.24 4.08-1.81-2.31s-9.29 6.7-19.95 10.38c-10.68 3.67-18.91-6.78-19.68-16.26-.681-8.09 3.72-12.08 5.029-13.08l-4 2.76-5.109-7.82s2.93 29.11 7.81 35.94c5.32 7.49 15.36 12.76 25.39 9.58 13.05-4.12 18.4-22.69 18.56-23.27zm14.36-30.98-.601-4.94 9.311-.9s-27.15-10.9-35.46-9.76c-9.101 1.25-18.431 7.69-20.271 18.06-2.44 13.68 12.01 27.24 12.01 27.24l-.72-7.43 2.88-.53s-1.63-11.34.061-22.5c1.699-11.15 14.779-13.6 23.529-9.89 7.671 3.24 9.041 9.21 9.261 10.65zm-20.67 55.01 4.15 2.67-5.25 7.74s25.73-13.95 30.14-21.08c4.841-7.81 5.841-19.1-.97-27.14-8.99-10.6-28.649-8.12-28.649-8.12l6.189 4.18-1.439 2.57s9.779 5.97 17.289 14.39c7.511 8.42 1.051 20.05-7.39 24.44-7.33 3.81-12.77 1.12-14.07.35zm52.51-85.28v83.05s-.4 9.82-5.99 21.84h-104.98c-5.54-11.97-5.93-21.73-5.93-21.73v-83.05s13.67 8.08 27.41 8.72c17.85.83 31.14-11.63 31.14-11.63s13.08 12.35 30.94 11.52c13.74-.64 27.41-8.72 27.41-8.72z" fill="#fff"/><path d="m570.67 304.42c-4.88-6.83-7.81-35.94-7.81-35.94l5.109 7.82 4-2.76c-1.31 1-5.71 4.99-5.029 13.08.77 9.48 9 19.93 19.68 16.26 10.66-3.68 19.95-10.38 19.95-10.38l1.81 2.31 6.24-4.08c-.16.58-5.51 19.15-18.561 23.27-10.029 3.18-20.069-2.09-25.389-9.58z" fill="#faa41a"/><path d="m619.72 249.1c-8.75-3.71-21.83-1.26-23.529 9.89-1.69 11.16-.061 22.5-.061 22.5l-2.88.53.72 7.43s-14.45-13.56-12.01-27.24c1.84-10.37 11.17-16.81 20.271-18.06 8.31-1.14 35.46 9.76 35.46 9.76l-9.311.9.601 4.94c-.221-1.44-1.591-7.41-9.261-10.65z" fill="#faa41a"/><path d="m608.31 314.76c1.301.77 6.74 3.46 14.07-.35 8.44-4.39 14.9-16.02 7.39-24.44s-17.289-14.39-17.289-14.39l1.439-2.57-6.189-4.18s19.659-2.48 28.649 8.12c6.811 8.04 5.811 19.33.97 27.14-4.409 7.13-30.14 21.08-30.14 21.08l5.25-7.74z" fill="#faa41a"/><path d="m274.39 284.88v.98l-95.29 54.46-1.13.64h-3.06v-15.74h4.04l69.86-40.34z" fill="#fff"/><path d="m298.73 343.92v.08h-11.63-2.15v-1.07-44.27-8.22-5.56h-10.56-25.58-71.83-2.07v-13.78h3.06 120.76z" fill="#fff"/><path d="m235.64 219.67h11.2 17.71 17.45v-5.63-56.9h14.76v77.29h-118.79-3.06v-14.76h3.06z" fill="#fff"/><path d="m246.84 218.96v.71h-11.2l-59.64-42.04h-1.09v-7.87h4.04z" fill="#fff"/><path d="m248.81 284.88-69.86 40.34h-4.04v-40.34h2.07z" fill="#394ea1"/><path d="m235.64 219.67h-57.67-3.06v-42.04h1.09z" fill="#394ea1"/><path d="m284.29 290.44-87.63 51.51v2.05h-15.46l-2.1-3.68 95.29-54.46v-.98h10.56v5.56z" fill="#ed1e29"/><path d="m264.55 219.67h-17.71v-.71l-67.89-49.2h-4.04v-16.17h2.34 104.75v1.41 2.14h-75.5-27.02l85.07 61.82z" fill="#ed1e29"/><path d="m345.24 344h-46.51v-.08-72.82h-120.76-3.06v-36.67h3.06 118.79v-77.29h48.48v76.31h121.11v38.64h-.09-121.02v69.86z" fill="#ed1e29"/><path d="m466.35 157.14v4.03l-86.28 57.52h-15.15v-.72l90.52-60.02v-.81z" fill="#ed1e29"/><path d="m466.35 178.61v40.08h-63.06v-.72l62.97-39.36z" fill="#394ea1"/><path d="m360 342.93v1.07h-14.76v-2.05-69.86h121.02.09v14.76h-.09-57.07-13.77-17.71-17.71v6.89z" fill="#fff"/><path d="m466.26 286.85h.09v37.39h-.09l-57.07-36.41v-.98z" fill="#394ea1"/><path d="m466.35 324.24v9.84h-.09l-70.84-46.25v-.98h13.77v.98l57.07 36.41z" fill="#fff"/><path d="m395.42 287.83 70.84 46.25h.09v9.92l-88.64-56.17v-.98h17.71z" fill="#ed1e29"/><path d="m443.63 157.14v.81l-82.65 54.12h-.98v-54.93z" fill="#394ea1"/><path d="m440.68 344h-80.68v-1.07-49.19l80.68 49.19z" fill="#394ea1"/><path d="m403.29 217.97v.72h-23.22l86.28-57.52v17.44h-.09z" fill="#fff"/><path d="m364.92 218.69h15.15 23.22 63.06v14.76h-121.11v-76.31h14.76v54.93 6.62z" fill="#fff"/><path d="m377.71 286.85v.98l88.64 56.17h-25.67v-1.07l-80.68-49.19v-6.89z" fill="#fff"/><path d="m364.92 217.97v.72h-4.92v-6.62h.98l82.65-54.12v-.81h11.81v.81z" fill="#fff"/><path d="m284.95 290.44v8.22h-1.7l-77.73 45.26v.08h-8.86v-2.05l87.63-51.51z" fill="#fff"/><path d="m284.95 298.66v44.27 1.07h-79.43v-.08l77.73-45.26z" fill="#394ea1"/><path d="m282 157.14v56.9h-.72l-74.78-56.09v-.81z" fill="#394ea1"/><path d="m282 214.04v5.63h-17.45v-.71l-85.07-61.82h27.02v.81l74.78 56.09z" fill="#fff"/><path d="m174.91 128.88c-5.68 2.68-12.45 4.23-19.72 4.23-5.66 0-11.03-.94-15.81-2.62-12.22-4.29-20.66-13.41-20.66-23.96 0-14.67 16.33-26.57 36.47-26.57s36.46 11.9 36.46 26.57c0 9.38-6.67 17.63-16.74 22.35z" fill="#c8c8c8"/><g fill="none"><path d="m177.25 153.59h104.75 78 373.13v362.1h-552.55" stroke="#231f20" stroke-width="21"/><path d="m139.38 130.49c-12.22-4.29-20.66-13.41-20.66-23.96 0-14.67 16.33-26.57 36.47-26.57s36.46 11.9 36.46 26.57c0 9.38-6.67 17.63-16.74 22.35-5.68 2.68-12.45 4.23-19.72 4.23-5.66 0-11.03-.94-15.81-2.62z" stroke="#231f20" stroke-width="21"/><path d="m137.26 136.01v627.99 4.52" stroke="#231f20" stroke-width="21"/><path d="m174.91 127.15v1.73 24.71 16.17 7.87 42.04 14.76 36.67 13.78 40.34 15.74 174.73 248.31 4.52" stroke="#231f20" stroke-width="21"/><path d="m549.85 334.37c3.261 7.04 8.301 14.84 16.08 21.87 21.59 19.51 36.13 22.84 36.13 22.84l.62-.11s14.53-3.32 36.13-22.84c7.74-7 12.761-14.75 16.021-21.76 5.59-12.02 5.99-21.84 5.99-21.84v-83.05s-13.67 8.08-27.41 8.72c-17.86.83-30.94-11.52-30.94-11.52s-13.29 12.46-31.14 11.63c-13.74-.64-27.41-8.72-27.41-8.72v83.05c-.001 0 .389 9.76 5.929 21.73z" stroke="#231f20" stroke-width="14"/><path d="m548.77 334.37h1.08 104.98.52" stroke="#231f20" stroke-width="14"/><path d="m608.01 314.57s.01.01.03.02l.229.15c.021.01.03.01.04.02" stroke="#231f20" stroke-width="4.983"/><path d="m608.31 314.76c1.301.77 6.74 3.46 14.07-.35 8.44-4.39 14.9-16.02 7.39-24.44s-17.289-14.39-17.289-14.39l1.439-2.57-6.189-4.18s19.659-2.48 28.649 8.12c6.811 8.04 5.811 19.33.97 27.14-4.409 7.13-30.14 21.08-30.14 21.08l5.25-7.74z" stroke="#231f20" stroke-width="4.983"/><path d="m629.02 260.07-.02-.18c-.01-.04-.01-.09-.02-.14" stroke="#231f20" stroke-width="4.983"/><path d="m628.98 259.75c-.221-1.44-1.591-7.41-9.261-10.65-8.75-3.71-21.83-1.26-23.529 9.89-1.69 11.16-.061 22.5-.061 22.5l-2.88.53.72 7.43s-14.45-13.56-12.01-27.24c1.84-10.37 11.17-16.81 20.271-18.06 8.31-1.14 35.46 9.76 35.46 9.76l-9.311.9z" stroke="#231f20" stroke-width="4.983"/><path d="m614.62 290.73c.01-.01.01-.01 0 0-.16.58-5.51 19.15-18.561 23.27-10.029 3.18-20.069-2.09-25.39-9.58-4.88-6.83-7.81-35.94-7.81-35.94l5.109 7.82s4-2.76 4.36-3.01l-.12.08c-.06.04-.14.1-.24.17-1.31 1-5.71 4.99-5.029 13.08.77 9.48 9 19.93 19.68 16.26 10.66-3.68 19.95-10.38 19.95-10.38l1.81 2.31z" stroke="#231f20" stroke-width="4.983"/><path d="m287.1 344h-2.15-79.43-8.86-15.46" stroke="#231f20" stroke-width="14"/><path d="m179.48 157.14h27.02 75.5 14.76 48.48 14.76 83.63 11.81 10.91v4.03 17.44 40.08 14.76 38.64 14.76 37.39 9.84 9.92h-25.67-80.68-14.76-46.51-11.63" stroke="#231f20" stroke-width="14"/><path d="m467.25 233.45h-.9-121.11v-76.31-2.14" stroke="#231f20" stroke-width="3.4438"/><path d="m296.76 155.98v1.16 77.29h-118.79" stroke="#231f20" stroke-width="3.4438"/><path d="m177.97 271.1h120.76v72.82" stroke="#231f20" stroke-width="3.4438"/><path d="m345.24 341.95v-69.86h121.02" stroke="#231f20" stroke-width="3.4438"/><path d="m282 155v2.14 56.9 5.63h-17.45-17.71-11.2-57.67" stroke="#231f20" stroke-width="3.4438"/><path d="m467.25 218.69h-.9-63.06-23.22-15.15-4.92v-6.62-54.93-2.14" stroke="#231f20" stroke-width="3.4438"/><path d="m176.98 284.88h71.83 25.58 10.56v5.56 8.22 44.27" stroke="#231f20" stroke-width="3.4438"/><path d="m360 342.93v-49.19-6.89h17.71 17.71 13.77 57.07" stroke="#231f20" stroke-width="3.4438"/><path d="m206.5 157.95 74.78 56.09" stroke="#231f20" stroke-width="3.4438"/><path d="m179.48 157.14 85.07 61.82" stroke="#231f20" stroke-width="3.4438"/><path d="m178.95 169.76 67.89 49.2" stroke="#231f20" stroke-width="3.4438"/><path d="m360.98 212.07 82.65-54.12" stroke="#231f20" stroke-width="3.4438"/><path d="m364.92 217.97 90.52-60.02" stroke="#231f20" stroke-width="3.4438"/><path d="m379.68 218.96.39-.27 86.28-57.52 1.88-1.25" stroke="#231f20" stroke-width="3.4438"/><path d="m403.29 217.97 62.97-39.36" stroke="#231f20" stroke-width="3.4438"/><path d="m196.66 341.95 87.63-51.51" stroke="#231f20" stroke-width="3.4438"/><path d="m177.97 340.96 1.13-.64 95.29-54.46" stroke="#231f20" stroke-width="3.4438"/><path d="m283.25 298.66-77.73 45.26" stroke="#231f20" stroke-width="3.4438"/><path d="m178.95 325.22 69.86-40.34" stroke="#231f20" stroke-width="3.4438"/><path d="m466.35 344-88.64-56.17" stroke="#231f20" stroke-width="3.4438"/><path d="m360 293.74 80.68 49.19" stroke="#231f20" stroke-width="3.4438"/><path d="m395.42 287.83 70.84 46.25" stroke="#231f20" stroke-width="3.4438"/><path d="m409.19 287.83 57.07 36.41" stroke="#231f20" stroke-width="3.4438"/><path d="m176 177.63 59.64 42.04.38.27" stroke="#231f20" stroke-width="3.4438"/><path d="m0 0h850.394v850.394h-850.394z"/></g></svg>