<svg enable-background="new 0 0 850.394 850.394" height="850.394" viewBox="0 0 850.394 850.394" width="850.394" xmlns="http://www.w3.org/2000/svg"><path d="m162.61 272v124 389.38l-39.49-2.99-1.12-667.62c5.8 2.59 12.62 4.08 19.92 4.08 7.62 0 14.73-1.63 20.69-4.43z" fill="#c8c8c8"/><path d="m748.18 177.46v94.54h-.18-581.72l-1.21-131.66h583.11z" fill="#0071bc"/><path d="m748.18 396v124.17h-579.62l-1.14-124.17h580.58z" fill="#0071bc"/><path d="m748.18 272v124h-.18-580.58l-1.14-124h581.72zm-222.48 38.88 9.42-9.34-12.43-1.22-4.851-13.14-4.859 13.14-12.421 1.22 9.421 9.34-2.82 13.89 10.68-7.36 10.68 7.36zm0 53 9.42-9.34-12.43-1.22-4.851-13.14-4.859 13.14-12.421 1.22 9.421 9.34-2.82 13.89 10.68-7.36 10.68 7.36zm-50.93-25.26 10.351-8.84-13.65-1.16-5.34-12.44-5.33 12.44-13.649 1.16 10.35 8.84-3.1 13.15 11.729-6.97 11.74 6.97zm-55.07 26.26 9.42-9.34-12.43-1.22-4.85-13.14-4.86 13.14-12.42 1.22 9.42 9.34-2.82 13.89 10.68-7.36 10.68 7.36zm-2-54 9.42-9.34-12.43-1.22-4.85-13.14-4.86 13.14-12.42 1.22 9.42 9.34-2.82 13.89 10.68-7.36 10.68 7.36z" fill="#fff"/><path d="m535.12 301.54-9.42 9.34 2.82 13.89-10.68-7.36-10.68 7.36 2.82-13.89-9.42-9.34 12.42-1.22 4.86-13.14 4.85 13.14z" fill="#0071bc"/><path d="m535.12 354.54-9.42 9.34 2.82 13.89-10.68-7.36-10.68 7.36 2.82-13.89-9.42-9.34 12.42-1.22 4.86-13.14 4.85 13.14z" fill="#0071bc"/><path d="m485.12 329.78-10.35 8.84 3.1 13.15-11.74-6.97-11.73 6.97 3.1-13.15-10.35-8.84 13.65-1.16 5.33-12.44 5.34 12.44z" fill="#0071bc"/><path d="m429.12 355.54-9.42 9.34 2.82 13.89-10.68-7.36-10.68 7.36 2.82-13.89-9.42-9.34 12.42-1.22 4.86-13.14 4.85 13.14z" fill="#0071bc"/><path d="m427.12 301.54-9.42 9.34 2.82 13.89-10.68-7.36-10.68 7.36 2.82-13.89-9.42-9.34 12.42-1.22 4.86-13.14 4.85 13.14z" fill="#0071bc"/><path d="m122 114.77c-10.99-4.89-18.33-13.72-18.33-23.8 0-15.4 17.13-27.88 38.25-27.88 21.13 0 38.26 12.48 38.26 27.88 0 9.84-7 18.49-17.57 23.45-5.96 2.8-13.07 4.43-20.69 4.43-7.3 0-14.12-1.49-19.92-4.08z" fill="#c8c8c8"/><g fill="none"><path d="m165.07 140.34h583.11v37.12 94.54 124 124.17h-579.62" stroke="#231f20" stroke-width="21"/><path d="m122 114.77c-10.99-4.89-18.33-13.72-18.33-23.8 0-15.4 17.13-27.88 38.25-27.88 21.13 0 38.26 12.48 38.26 27.88 0 9.84-7 18.49-17.57 23.45-5.96 2.8-13.07 4.43-20.69 4.43-7.3 0-14.12-1.49-19.92-4.08z" stroke="#231f20" stroke-width="21"/><path d="m122 114v.77l1.12 667.62v2.99" stroke="#231f20" stroke-width="21"/><path d="m162.61 112.6v1.82 157.58 124 389.38" stroke="#231f20" stroke-width="21"/><path d="m744.76 179.39 3.42-1.93 2.01-1.14" stroke="#231f20" stroke-width="14"/><path d="m160 272h2.61 3.67 581.72" stroke="#231f20" stroke-width="14"/><path d="m164 396h3.42 580.58" stroke="#231f20" stroke-width="14"/><path d="m466.13 344.8-11.73 6.97 3.1-13.15-10.35-8.84 13.65-1.16 5.33-12.44 5.34 12.44 13.65 1.16-10.35 8.84 3.1 13.15z" stroke="#231f20" stroke-width="4.4496"/><path d="m517.84 370.41-10.68 7.36 2.82-13.89-9.42-9.34 12.42-1.22 4.86-13.14 4.85 13.14 12.43 1.22-9.42 9.34 2.82 13.89z" stroke="#231f20" stroke-width="4.3628"/><path d="m411.84 371.41-10.68 7.36 2.82-13.89-9.42-9.34 12.42-1.22 4.86-13.14 4.85 13.14 12.43 1.22-9.42 9.34 2.82 13.89z" stroke="#231f20" stroke-width="4.3628"/><path d="m517.84 317.41-10.68 7.36 2.82-13.89-9.42-9.34 12.42-1.22 4.86-13.14 4.85 13.14 12.43 1.22-9.42 9.34 2.82 13.89z" stroke="#231f20" stroke-width="4.3628"/><path d="m409.84 317.41-10.68 7.36 2.82-13.89-9.42-9.34 12.42-1.22 4.86-13.14 4.85 13.14 12.43 1.22-9.42 9.34 2.82 13.89z" stroke="#231f20" stroke-width="4.3628"/><path d="m0 0h850.394v850.394h-850.394z"/></g></svg>