<svg enable-background="new 0 0 850.394 850.394" height="850.394" viewBox="0 0 850.394 850.394" width="850.394" xmlns="http://www.w3.org/2000/svg"><path d="m390 384v2h-222.67l-2.26-245.66h224.93v1.66 88 74zm-81-99.87 33-32.17-45.6-6.63-20.4-41.33-20.4 41.33-45.6 6.63 33 32.17-7.79 45.42 40.79-21.45 40.79 21.45z" fill="#ed1e29"/><path d="m748.18 304v82h-.18-358v-2-80h2 356z" fill="#58b947"/><path d="m748.18 230v74h-.18-356-2v-74h358z" fill="#fbed24"/><path d="m748.18 454v66.17h-579.62l-.61-66.17z" fill="#58b947"/><path d="m748.18 386v68h-580.23l-.62-68h222.67 358z" fill="#fbed24"/><path d="m748.18 177.46v52.54h-.18-358v-88-1.66h358.18z" fill="#58b947"/><path d="m342 251.96-33 32.17 7.79 45.42-40.79-21.45-40.79 21.45 7.79-45.42-33-32.17 45.6-6.63 20.4-41.33 20.4 41.33z" fill="#fff"/><path d="m162.61 114.42c-5.96 2.8-13.07 4.43-20.69 4.43-7.3 0-14.12-1.49-19.92-4.08-10.99-4.89-18.33-13.72-18.33-23.8 0-15.4 17.13-27.88 38.25-27.88 21.13 0 38.26 12.48 38.26 27.88 0 9.84-7 18.49-17.57 23.45z" fill="#c8c8c8"/><path d="m162.61 454v331.38h-39.49l-1.12-670.61c5.8 2.59 12.62 4.08 19.92 4.08 7.62 0 14.73-1.63 20.69-4.43v271.58z" fill="#c8c8c8"/><g fill="none"><path d="m165.07 140.34h224.93 358.18v37.12 52.54 74 82 68 66.17h-579.62" stroke="#231f20" stroke-width="21"/><path d="m122 114.77c-10.99-4.89-18.33-13.72-18.33-23.8 0-15.4 17.13-27.88 38.25-27.88 21.13 0 38.26 12.48 38.26 27.88 0 9.84-7 18.49-17.57 23.45-5.96 2.8-13.07 4.43-20.69 4.43-7.3 0-14.12-1.49-19.92-4.08z" stroke="#231f20" stroke-width="21"/><path d="m122 114v.77l1.12 670.61" stroke="#231f20" stroke-width="21"/><path d="m162.61 112.6v1.82 271.58 68 331.38" stroke="#231f20" stroke-width="21"/><path d="m744.76 179.39 3.42-1.93 2.01-1.14" stroke="#231f20" stroke-width="14"/><path d="m390 230h358" stroke="#231f20" stroke-width="14"/><path d="m392 304h356" stroke="#231f20" stroke-width="14"/><path d="m164 386h3.33 222.67 358" stroke="#231f20" stroke-width="14"/><path d="m166 454h1.95 580.23 3.82" stroke="#231f20" stroke-width="14"/><path d="m390 142v88 74 80" stroke="#231f20" stroke-width="14"/><path d="m276 308.1-40.79 21.45 7.79-45.42-33-32.17 45.6-6.63 20.4-41.33 20.4 41.33 45.6 6.63-33 32.17 7.79 45.42z" stroke="#231f20" stroke-width="9.7163"/><path d="m0 0h850.394v850.394h-850.394z"/></g></svg>