<svg enable-background="new 0 0 850.394 850.394" height="850.394" viewBox="0 0 850.394 850.394" width="850.394" xmlns="http://www.w3.org/2000/svg"><path d="m748.18 177.46v342.71h-579.62l-3.49-379.83h583.11zm-204.98 158.97c0-43.32-35.19-78.43-78.601-78.43-43.41 0-78.6 35.11-78.6 78.43 0 43.31 35.19 78.42 78.6 78.42 43.411 0 78.601-35.11 78.601-78.42z" fill="#fff"/><path d="m162.61 114.42v670.96h-39.49l-1.12-670.61c5.8 2.59 12.62 4.08 19.92 4.08 7.62 0 14.73-1.63 20.69-4.43z" fill="#c8c8c8"/><path d="m543.2 336.43c0 43.31-35.19 78.42-78.601 78.42-43.41 0-78.6-35.11-78.6-78.42 0 0 46 61.57 78.6 0 .001 0 39.401-64.43 78.601 0z" fill="#394ea1"/><path d="m543.2 336.43c-39.2-64.43-78.601 0-78.601 0-32.6 61.57-78.6 0-78.6 0 0-43.32 35.19-78.43 78.6-78.43 43.411 0 78.601 35.11 78.601 78.43z" fill="#ed1e29"/><path d="m162.61 114.42c-5.96 2.8-13.07 4.43-20.69 4.43-7.3 0-14.12-1.49-19.92-4.08-10.99-4.89-18.33-13.72-18.33-23.8 0-15.4 17.13-27.88 38.25-27.88 21.13 0 38.26 12.48 38.26 27.88 0 9.84-7 18.49-17.57 23.45z" fill="#c8c8c8"/><g fill="none"><path d="m165.07 140.34h583.11v37.12 342.71h-579.62" stroke="#231f20" stroke-width="21"/><path d="m122 114.77c-10.99-4.89-18.33-13.72-18.33-23.8 0-15.4 17.13-27.88 38.25-27.88 21.13 0 38.26 12.48 38.26 27.88 0 9.84-7 18.49-17.57 23.45-5.96 2.8-13.07 4.43-20.69 4.43-7.3 0-14.12-1.49-19.92-4.08z" stroke="#231f20" stroke-width="21"/><path d="m122 114v.77l1.12 670.61" stroke="#231f20" stroke-width="21"/><path d="m162.61 112.6v1.82 670.96" stroke="#231f20" stroke-width="21"/><path d="m744.76 179.39 3.42-1.93 2.01-1.14" stroke="#231f20" stroke-width="14"/><path d="m543.2 336.43c0 43.31-35.19 78.42-78.601 78.42-43.41 0-78.6-35.11-78.6-78.42 0-43.32 35.19-78.43 78.6-78.43 43.411 0 78.601 35.11 78.601 78.43z" stroke="#231f20" stroke-width="7"/><path d="m386 336.43s46 61.57 78.6 0" stroke="#231f20" stroke-width="7"/><path d="m464.6 336.43s39.4-64.43 78.601 0" stroke="#231f20" stroke-width="7"/><path d="m282 414 84 64" stroke="#231f20" stroke-width="14"/><path d="m319.95 370.13 81.51 63.95" stroke="#231f20" stroke-width="14"/><path d="m302 392 36 28" stroke="#231f20" stroke-width="14"/><path d="m346 426 37.83 27.75" stroke="#231f20" stroke-width="14"/><path d="m345.38 187.85-71.38 68.15" stroke="#231f20" stroke-width="14"/><path d="m389.72 230.93-67.72 65.07" stroke="#231f20" stroke-width="14"/><path d="m366 206-70 70" stroke="#231f20" stroke-width="14"/><path d="m568 206 74 74" stroke="#231f20" stroke-width="14"/><path d="m592.98 264.98 29.02 29.02" stroke="#231f20" stroke-width="14"/><path d="m550 222 32 32" stroke="#231f20" stroke-width="14"/><path d="m623 227 35 35" stroke="#231f20" stroke-width="14"/><path d="m584 188 28 28" stroke="#231f20" stroke-width="14"/><path d="m593 423-29 29" stroke="#231f20" stroke-width="14"/><path d="m634 382-31 31" stroke="#231f20" stroke-width="14"/><path d="m570.87 406.88-28.87 29.12" stroke="#231f20" stroke-width="14"/><path d="m614.66 362.73-33.83 34.11" stroke="#231f20" stroke-width="14"/><path d="m617.18 445.09-27.44 28.82" stroke="#231f20" stroke-width="14"/><path d="m657.11 403.15-29.25 30.72" stroke="#231f20" stroke-width="14"/><path d="m0 0h850.394v850.394h-850.394z"/><path d="m0 0h850.394v850.394h-850.394z"/></g></svg>