<svg enable-background="new 0 0 850.394 850.394" height="850.394" viewBox="0 0 850.394 850.394" width="850.394" xmlns="http://www.w3.org/2000/svg"><path d="m162.61 114.42v670.96h-39.49l-1.12-670.61c5.8 2.59 12.62 4.08 19.92 4.08 7.62 0 14.73-1.63 20.69-4.43z" fill="#c8c8c8"/><path d="m748.18 177.46v342.71h-579.62l-3.49-379.83h583.11zm-166.86 156.19 8.37-8.16-11.57-1.68-5.17-10.49-5.181 10.49-11.569 1.68 8.37 8.16-1.971 11.53 10.351-5.44 10.34 5.44zm-15-60.53 8.37-8.16-11.57-1.68-5.17-10.49-5.181 10.49-11.569 1.68 8.37 8.16-1.971 11.53 10.351-5.44 10.34 5.44zm0 118 8.37-8.16-11.57-1.68-5.17-10.49-5.181 10.49-11.569 1.68 8.37 8.16-1.971 11.53 10.351-5.44 10.34 5.44zm-40 42 8.37-8.16-11.57-1.68-5.17-10.49-5.181 10.49-11.569 1.68 8.37 8.16-1.971 11.53 10.351-5.44 10.34 5.44zm-3.95-203.2 8.38-8.17-11.58-1.68-5.17-10.48-5.17 10.48-11.58 1.68 8.38 8.17-1.979 11.52 10.349-5.44 10.35 5.44zm-54 223.26 8.38-8.16-11.58-1.68-5.17-10.49-5.17 10.49-11.58 1.68 8.38 8.16-1.98 11.52 10.35-5.44 10.35 5.44zm-4-238 8.38-8.16-11.58-1.68-5.17-10.49-5.17 10.49-11.58 1.68 8.38 8.16-1.979 11.52 10.35-5.44 10.35 5.44zm-56.05 225.94 8.37-8.16-11.57-1.68-5.17-10.49-5.18 10.49-11.57 1.68 8.37 8.16-1.97 11.53 10.35-5.44 10.34 5.44zm-6-214 8.37-8.16-11.57-1.68-5.17-10.49-5.18 10.49-11.57 1.68 8.37 8.16-1.97 11.53 10.35-5.44 10.34 5.44zm-40 170 8.37-8.16-11.57-1.68-5.17-10.49-5.18 10.49-11.57 1.68 8.37 8.16-1.97 11.53 10.35-5.44 10.34 5.44zm-4-124 8.37-8.16-11.57-1.68-5.17-10.49-5.18 10.49-11.57 1.68 8.37 8.16-1.97 11.53 10.35-5.44 10.34 5.44zm-14 62 8.37-8.16-11.57-1.68-5.17-10.49-5.18 10.49-11.57 1.68 8.37 8.16-1.97 11.53 10.35-5.44 10.34 5.44z" fill="#394ea1"/><path d="m589.69 325.49-8.37 8.16 1.97 11.53-10.34-5.44-10.35 5.44 1.97-11.53-8.37-8.16 11.57-1.68 5.18-10.49 5.17 10.49z" fill="#fbed24"/><path d="m574.69 264.96-8.37 8.16 1.97 11.53-10.34-5.44-10.35 5.44 1.97-11.53-8.37-8.16 11.57-1.68 5.18-10.49 5.17 10.49z" fill="#fbed24"/><path d="m574.69 382.96-8.37 8.16 1.97 11.53-10.34-5.44-10.35 5.44 1.97-11.53-8.37-8.16 11.57-1.68 5.18-10.49 5.17 10.49z" fill="#fbed24"/><path d="m534.69 424.96-8.37 8.16 1.97 11.53-10.34-5.44-10.35 5.44 1.97-11.53-8.37-8.16 11.57-1.68 5.18-10.49 5.17 10.49z" fill="#fbed24"/><path d="m530.75 221.75-8.38 8.17 1.98 11.52-10.35-5.44-10.35 5.44 1.98-11.52-8.38-8.17 11.58-1.68 5.17-10.48 5.17 10.48z" fill="#fbed24"/><path d="m476.75 445.02-8.38 8.16 1.98 11.52-10.35-5.44-10.35 5.44 1.98-11.52-8.38-8.16 11.58-1.68 5.17-10.49 5.17 10.49z" fill="#fbed24"/><path d="m472.75 207.02-8.38 8.16 1.98 11.52-10.35-5.44-10.35 5.44 1.98-11.52-8.38-8.16 11.58-1.68 5.17-10.49 5.17 10.49z" fill="#fbed24"/><path d="m416.69 432.96-8.37 8.16 1.97 11.53-10.34-5.44-10.35 5.44 1.97-11.53-8.37-8.16 11.57-1.68 5.18-10.49 5.17 10.49z" fill="#fbed24"/><path d="m410.69 218.96-8.37 8.16 1.97 11.53-10.34-5.44-10.35 5.44 1.97-11.53-8.37-8.16 11.57-1.68 5.18-10.49 5.17 10.49z" fill="#fbed24"/><path d="m370.69 388.96-8.37 8.16 1.97 11.53-10.34-5.44-10.35 5.44 1.97-11.53-8.37-8.16 11.57-1.68 5.18-10.49 5.17 10.49z" fill="#fbed24"/><path d="m366.69 264.96-8.37 8.16 1.97 11.53-10.34-5.44-10.35 5.44 1.97-11.53-8.37-8.16 11.57-1.68 5.18-10.49 5.17 10.49z" fill="#fbed24"/><path d="m352.69 326.96-8.37 8.16 1.97 11.53-10.34-5.44-10.35 5.44 1.97-11.53-8.37-8.16 11.57-1.68 5.18-10.49 5.17 10.49z" fill="#fbed24"/><path d="m122 114.77c-10.99-4.89-18.33-13.72-18.33-23.8 0-15.4 17.13-27.88 38.25-27.88 21.13 0 38.26 12.48 38.26 27.88 0 9.84-7 18.49-17.57 23.45-5.96 2.8-13.07 4.43-20.69 4.43-7.3 0-14.12-1.49-19.92-4.08z" fill="#c8c8c8"/><g fill="none"><path d="m165.07 140.34h583.11v37.12 342.71h-579.62" stroke="#231f20" stroke-width="21"/><path d="m122 114.77c-10.99-4.89-18.33-13.72-18.33-23.8 0-15.4 17.13-27.88 38.25-27.88 21.13 0 38.26 12.48 38.26 27.88 0 9.84-7 18.49-17.57 23.45-5.96 2.8-13.07 4.43-20.69 4.43-7.3 0-14.12-1.49-19.92-4.08z" stroke="#231f20" stroke-width="21"/><path d="m122 114v.77l1.12 670.61" stroke="#231f20" stroke-width="21"/><path d="m162.61 112.6v1.82 670.96" stroke="#231f20" stroke-width="21"/><path d="m744.76 179.39 3.42-1.93 2.01-1.14" stroke="#231f20" stroke-width="14"/><path d="m456 194.85 5.17 10.49 11.58 1.68-8.38 8.16 1.98 11.52-10.35-5.44-10.35 5.44 1.98-11.52-8.38-8.16 11.58-1.68z" stroke="#231f20" stroke-width="4"/><path d="m460 432.85 5.17 10.49 11.58 1.68-8.38 8.16 1.98 11.52-10.35-5.44-10.35 5.44 1.98-11.52-8.38-8.16 11.58-1.68z" stroke="#231f20" stroke-width="4"/><path d="m572.95 313.32 5.17 10.49 11.57 1.68-8.37 8.16 1.97 11.53-10.34-5.44-10.35 5.44 1.97-11.53-8.37-8.16 11.57-1.68z" stroke="#231f20" stroke-width="4"/><path d="m335.95 314.79 5.17 10.49 11.57 1.68-8.37 8.16 1.97 11.53-10.34-5.44-10.35 5.44 1.97-11.53-8.37-8.16 11.57-1.68z" stroke="#231f20" stroke-width="4"/><path d="m353.95 376.79 5.17 10.49 11.57 1.68-8.37 8.16 1.97 11.53-10.34-5.44-10.35 5.44 1.97-11.53-8.37-8.16 11.57-1.68z" stroke="#231f20" stroke-width="4"/><path d="m399.95 420.79 5.17 10.49 11.57 1.68-8.37 8.16 1.97 11.53-10.34-5.44-10.35 5.44 1.97-11.53-8.37-8.16 11.57-1.68z" stroke="#231f20" stroke-width="4"/><path d="m349.95 252.79 5.17 10.49 11.57 1.68-8.37 8.16 1.97 11.53-10.34-5.44-10.35 5.44 1.97-11.53-8.37-8.16 11.57-1.68z" stroke="#231f20" stroke-width="4"/><path d="m393.95 206.79 5.17 10.49 11.57 1.68-8.37 8.16 1.97 11.53-10.34-5.44-10.35 5.44 1.97-11.53-8.37-8.16 11.57-1.68z" stroke="#231f20" stroke-width="4"/><path d="m514 209.59 5.17 10.48 11.58 1.68-8.38 8.17 1.98 11.52-10.35-5.44-10.35 5.44 1.98-11.52-8.38-8.17 11.58-1.68z" stroke="#231f20" stroke-width="4"/><path d="m557.95 252.79 5.17 10.49 11.57 1.68-8.37 8.16 1.97 11.53-10.34-5.44-10.35 5.44 1.97-11.53-8.37-8.16 11.57-1.68z" stroke="#231f20" stroke-width="4"/><path d="m517.95 412.79 5.17 10.49 11.57 1.68-8.37 8.16 1.97 11.53-10.34-5.44-10.35 5.44 1.97-11.53-8.37-8.16 11.57-1.68z" stroke="#231f20" stroke-width="4"/><path d="m557.95 370.79 5.17 10.49 11.57 1.68-8.37 8.16 1.97 11.53-10.34-5.44-10.35 5.44 1.97-11.53-8.37-8.16 11.57-1.68z" stroke="#231f20" stroke-width="4"/><path d="m0 0h850.394v850.394h-850.394z"/></g></svg>