<svg enable-background="new 0 0 850.394 850.394" height="850.394" viewBox="0 0 850.394 850.394" width="850.394" xmlns="http://www.w3.org/2000/svg"><path d="m476.03 322v11.97h-3.31l-75.53-48.26h20.81v.29l54 36z" fill="#fff"/><path d="m418 286v-.29h57.94.09v36.29h-4.03z" fill="#394ea1"/><path d="m476.03 148.73v-4.4h-11.89-18.14-85.89v-2.33-1.66h388.07v37.12 342.71h-579.62l-1.58-172.17h15.11 17.91 78.32 2.34 12.67 50.7 16.08 87.94 27.98v-3.31-10.72-11.97-36.29-16.09-42.11-16.09-43.68z" fill="#fbed24"/><path d="m397.19 285.71h-20.31-16.77v7.5 53.62 1.17h-16.08v-2.24-75.93c.07-.07.13-.14.2-.21h131.71.09v16.09h-.09-57.94z" fill="#fff"/><path d="m200 346v2h-17.91v-2.24l95.51-56.14h.72v14.38h-4.32z" fill="#fff"/><path d="m280.66 348h-2.34v-1.17-42.83-14.38-6.06h-11.51-28.81-71.61l-.14-15.01h127.08v79.36.09z" fill="#fff"/><path d="m278.32 346.83v1.17h-78.32v-2l74-42h4.32z" fill="#394ea1"/><path d="m238 283.56v.44l-71.23 41.22-.38-41.66z" fill="#394ea1"/><path d="m166.92 341.71-.15-16.49 71.23-41.22v-.44h28.81v1.07z" fill="#fff"/><path d="m162.61 212.49v16.09 39.97 15.01 43.97 16.65 441.2h-39.49l-1.12-670.61c5.8 2.59 12.62 4.08 19.92 4.08 7.62 0 14.73-1.63 20.69-4.43v27.46 16.21 16.32z" fill="#c8c8c8"/><path d="m218 212v.49h-52.27l-.33-36.18z" fill="#394ea1"/><path d="m218 212.49h21.59 20.41 15.1v-6.14-62.02h16.09v83.19c-.24.35-.47.7-.7 1.06h-124.61l-.15-16.09z" fill="#fff"/><path d="m239.59 212.49h-21.59v-.49l-52.6-35.69-.15-16.47z" fill="#fff"/><path d="m446 146v-1.67h18.14v.89l-98.66 65.42v.78h-5.37v-11.22h1.08z" fill="#fff"/><path d="m361.19 200.2h-1.08v-55.87h85.89v1.67z" fill="#394ea1"/><path d="m381.99 211.42h25.31 68.73v16.09h-128.59c-1.02-1.51-2.16-2.94-3.41-4.26v-78.92h16.08v55.87 11.22h5.37z" fill="#fff"/><path d="m166.92 341.71 99.89-57.08v-1.07h11.51v6.06h-.72l-95.51 56.14v2.24h-15.11z" fill="#ed1e29"/><path d="m165.88 228.58h124.61c-3.25 5.21-5.13 11.36-5.13 17.96 0 8.37 3.03 16.03 8.05 21.95l-.08.06h-127.08zm61.12 26.7 10.93 4.41-2.09-9.35 8.85-6.61-12.22-1.37-5.47-8.5-5.47 8.5-12.22 1.37 8.85 6.61-2.09 9.35z" fill="#ed1e29"/><path d="m237.93 259.69-10.93-4.41-10.93 4.41 2.09-9.35-8.85-6.61 12.22-1.37 5.47-8.5 5.47 8.5 12.22 1.37-8.85 6.61z" fill="#fbed24"/><path d="m239.59 212.49-74.34-52.65-.14-15.51h.9l93.99 67.67v.49z" fill="#ed1e29"/><path d="m476.03 333.97v10.72h-3.31l-95.84-58.98h20.31l75.53 48.26z" fill="#ed1e29"/><path d="m476.03 227.51v42.11h-.09-131.71c5.62-6.06 9.05-14.16 9.05-23.08 0-7.06-2.15-13.6-5.84-19.03zm-51.19 23.83 8.851-6.61-12.22-1.37-5.47-8.5-5.47 8.5-12.22 1.37 8.85 6.61-2.09 9.35 10.93-4.41 10.93 4.41z" fill="#ed1e29"/><path d="m476.03 167.74v43.68h-68.73v-.78l68.64-42.9z" fill="#394ea1"/><path d="m476.03 148.73v19.01h-.09l-68.64 42.9v.78h-25.31z" fill="#fff"/><path d="m476.03 144.33v4.4l-94.04 62.69h-16.51v-.78l98.66-65.42v-.89z" fill="#ed1e29"/><path d="m472.72 344.69h3.31v3.31h-27.98v-1.17l-87.94-53.62v-7.5h16.77z" fill="#fff"/><path d="m448.05 346.83v1.17h-87.94v-1.17-53.62z" fill="#394ea1"/><path d="m433.69 244.73-8.85 6.61 2.09 9.35-10.93-4.41-10.93 4.41 2.09-9.35-8.85-6.61 12.22-1.37 5.47-8.5 5.47 8.5z" fill="#fbed24"/><path d="m360.11 142v2.33h-16.08v-2.33-1.66h16.08z" fill="#fff"/><path d="m347.44 227.51c3.69 5.43 5.84 11.97 5.84 19.03 0 8.92-3.43 17.02-9.05 23.08h-.2v.21c-6.19 6.57-14.97 10.67-24.71 10.67-10.39 0-19.68-4.66-25.91-12.01-5.02-5.92-8.05-13.58-8.05-21.95 0-6.6 1.88-12.75 5.13-17.96h.7v-1.06c6.1-9.02 16.42-14.94 28.13-14.94 9.74 0 18.52 4.1 24.71 10.67v4.26zm-14.52 21.01 10.92-10.65-15.09-2.19-6.75-13.68-6.75 13.68-15.09 2.19 10.92 10.65-2.58 15.03 13.5-7.1 13.5 7.1z" fill="#394ea1"/><path d="m347.44 227.51h-3.41v-4.26c1.25 1.32 2.39 2.75 3.41 4.26z" fill="#fff"/><path d="m344.23 269.62c-.07.07-.13.14-.2.21v-.21z" fill="#fff"/><path d="m344.03 144.33v78.92c-6.19-6.57-14.97-10.67-24.71-10.67-11.71 0-22.03 5.92-28.13 14.94v-83.19zm-17.19 38.74 8.85-6.62-12.22-1.36-5.47-8.51-5.47 8.51-12.22 1.36 8.85 6.62-2.09 9.34 10.93-4.41 10.93 4.41z" fill="#ed1e29"/><path d="m343.84 237.87-10.92 10.65 2.58 15.03-13.5-7.1-13.5 7.1 2.58-15.03-10.92-10.65 15.09-2.19 6.75-13.68 6.75 13.68z" fill="#fbed24"/><path d="m337.69 308.73-8.85 6.61 2.09 9.35-10.93-4.41-10.93 4.41 2.09-9.35-8.85-6.61 12.22-1.37 5.47-8.5 5.47 8.5z" fill="#fbed24"/><path d="m335.69 176.45-8.85 6.62 2.09 9.34-10.93-4.41-10.93 4.41 2.09-9.34-8.85-6.62 12.22-1.36 5.47-8.51 5.47 8.51z" fill="#fbed24"/><path d="m293.41 268.49c6.23 7.35 15.52 12.01 25.91 12.01 9.74 0 18.52-4.1 24.71-10.67v75.93 2.24h-50.7v-.09-79.36zm35.43 46.85 8.85-6.61-12.22-1.37-5.47-8.5-5.47 8.5-12.22 1.37 8.85 6.61-2.09 9.35 10.93-4.41 10.93 4.41z" fill="#ed1e29"/><path d="m291.19 227.52v1.06h-.7c.23-.36.46-.71.7-1.06z" fill="#fff"/><path d="m275.1 140.34h68.93v1.66 2.33h-52.84-16.09v-2.33z" fill="#fff"/><path d="m275.1 206.35v6.14h-15.1v-.49l-93.99-67.67h26.8v.89l81.51 61.13z" fill="#fff"/><path d="m275.1 144.33v62.02h-.78l-81.51-61.13v-.89z" fill="#394ea1"/><path d="m275.1 142v2.33h-82.29-26.8l-.91-.66-.03-3.33h110.03z" fill="#fff"/><path d="m162.61 114.42c-5.96 2.8-13.07 4.43-20.69 4.43-7.3 0-14.12-1.49-19.92-4.08-10.99-4.89-18.33-13.72-18.33-23.8 0-15.4 17.13-27.88 38.25-27.88 21.13 0 38.26 12.48 38.26 27.88 0 9.84-7 18.49-17.57 23.45z" fill="#c8c8c8"/><path d="m165.1 143.67.91.66h-.9z" fill="#fff"/><g fill="none"><path d="m165.07 140.34h110.03 68.93 16.08 388.07v37.12 342.71h-579.62" stroke="#231f20" stroke-width="21"/><path d="m122 114.77c-10.99-4.89-18.33-13.72-18.33-23.8 0-15.4 17.13-27.88 38.25-27.88 21.13 0 38.26 12.48 38.26 27.88 0 9.84-7 18.49-17.57 23.45-5.96 2.8-13.07 4.43-20.69 4.43-7.3 0-14.12-1.49-19.92-4.08z" stroke="#231f20" stroke-width="21"/><path d="m122 114v.77l1.12 670.61" stroke="#231f20" stroke-width="21"/><path d="m162.61 112.6v1.82 27.46 16.21 16.32 38.08 16.09 39.97 15.01 43.97 16.65 441.2" stroke="#231f20" stroke-width="21"/><path d="m744.76 179.39 3.42-1.93 2.01-1.14" stroke="#231f20" stroke-width="14"/><path d="m280.66 348h-2.34-78.32-17.91-15.11-1.75" stroke="#231f20" stroke-width="7"/><path d="m163.36 144.33h1.75.9 26.8 82.29 16.09 52.84 16.08 85.89 18.14 11.89v4.4 19.01 43.68 16.09 42.11 16.09 36.29 11.97 10.72 3.31h-27.98-87.94-16.08-50.7-12.67" stroke="#231f20" stroke-width="7"/><path d="m344.03 223.25v-78.92-2.33" stroke="#231f20" stroke-width="7"/><path d="m477.01 227.51h-.98-128.59" stroke="#231f20" stroke-width="7"/><path d="m290.49 228.58h-124.61-3.27-.9" stroke="#231f20" stroke-width="7"/><path d="m291.19 143.07v1.26 83.19" stroke="#231f20" stroke-width="7"/><path d="m161.71 268.55h.9 3.64 127.08v79.36" stroke="#231f20" stroke-width="7"/><path d="m344.23 269.62h131.71" stroke="#231f20" stroke-width="7"/><path d="m344.03 345.76v-75.93" stroke="#231f20" stroke-width="7"/><path d="m275.1 142v2.33 62.02 6.14h-15.1-20.41-21.59-52.27-3.12-.9" stroke="#231f20" stroke-width="7"/><path d="m477.01 211.42h-.98-68.73-25.31-16.51-5.37v-11.22-55.87-2.33" stroke="#231f20" stroke-width="7"/><path d="m160.64 283.56h1.97 3.78 71.61 28.81 11.51v6.06 14.38 42.83" stroke="#231f20" stroke-width="7"/><path d="m360.11 346.83v-53.62-7.5h16.77 20.31 20.81 57.94" stroke="#231f20" stroke-width="7"/><path d="m192.81 145.22 81.51 61.13" stroke="#231f20" stroke-width="7"/><path d="m162.78 158.09 2.47 1.75 74.34 52.65.41.29" stroke="#231f20" stroke-width="7"/><path d="m162 174 .61.41 2.79 1.9 52.6 35.69" stroke="#231f20" stroke-width="7"/><path d="m361.19 200.2 84.81-54.2" stroke="#231f20" stroke-width="7"/><path d="m365.48 210.64 98.66-65.42" stroke="#231f20" stroke-width="7"/><path d="m381.56 211.71.43-.29 94.04-62.69 2.05-1.37" stroke="#231f20" stroke-width="7"/><path d="m407.3 210.64 68.64-42.9" stroke="#231f20" stroke-width="7"/><path d="m182.09 345.76 95.51-56.14" stroke="#231f20" stroke-width="7"/><path d="m161.71 344.69.9-.51 4.31-2.47 99.89-57.08" stroke="#231f20" stroke-width="7"/><path d="m274 304-74 42" stroke="#231f20" stroke-width="7"/><path d="m162.78 327.53 3.99-2.31 71.23-41.22" stroke="#231f20" stroke-width="7"/><path d="m472.72 344.69-95.84-58.98-1.75-1.08" stroke="#231f20" stroke-width="7"/><path d="m360.11 293.21 87.94 53.62" stroke="#231f20" stroke-width="7"/><path d="m395.5 284.63 1.69 1.08 75.53 48.26" stroke="#231f20" stroke-width="7"/><path d="m418 286 54 36" stroke="#231f20" stroke-width="7"/><path d="m160 140 2.61 1.88 2.49 1.79.91.66 93.99 67.67" stroke="#231f20" stroke-width="7"/><path d="m347.44 227.51c3.69 5.43 5.84 11.97 5.84 19.03 0 8.92-3.43 17.02-9.05 23.08-.07.07-.13.14-.2.21-6.19 6.57-14.97 10.67-24.71 10.67-10.39 0-19.68-4.66-25.91-12.01-5.02-5.92-8.05-13.58-8.05-21.95 0-6.6 1.88-12.75 5.13-17.96.23-.36.46-.71.7-1.06 6.1-9.02 16.42-14.94 28.13-14.94 9.74 0 18.52 4.1 24.71 10.67 1.25 1.32 2.39 2.75 3.41 4.26z" stroke="#231f20" stroke-width="4.754"/><path d="m322 256.45-13.5 7.1 2.58-15.03-10.92-10.65 15.09-2.19 6.75-13.68 6.75 13.68 15.09 2.19-10.92 10.65 2.58 15.03z" stroke="#231f20" stroke-width="4"/><path d="m227 255.28-10.93 4.41 2.09-9.35-8.85-6.61 12.22-1.37 5.47-8.5 5.47 8.5 12.22 1.37-8.85 6.61 2.09 9.35z" stroke="#231f20" stroke-width="3"/><path d="m318 188-10.93 4.41 2.09-9.34-8.85-6.62 12.22-1.36 5.47-8.51 5.47 8.51 12.22 1.36-8.85 6.62 2.09 9.34z" stroke="#231f20" stroke-width="3"/><path d="m320 320.28-10.93 4.41 2.09-9.35-8.85-6.61 12.22-1.37 5.47-8.5 5.47 8.5 12.22 1.37-8.85 6.61 2.09 9.35z" stroke="#231f20" stroke-width="3"/><path d="m416 256.28-10.93 4.41 2.09-9.35-8.85-6.61 12.22-1.37 5.47-8.5 5.47 8.5 12.22 1.37-8.85 6.61 2.09 9.35z" stroke="#231f20" stroke-width="3"/><path d="m0 0h850.394v850.394h-850.394z"/></g></svg>