<svg enable-background="new 0 0 850.394 850.394" height="850.394" viewBox="0 0 850.394 850.394" width="850.394" xmlns="http://www.w3.org/2000/svg"><path d="m748.18 424v96.17h-579.62l-.88-96.17z" fill="#58b947"/><path d="m162.61 332v453.38h-39.49l-1.12-670.61c5.8 2.59 12.62 4.08 19.92 4.08 7.62 0 14.73-1.63 20.69-4.43v123.58z" fill="#c8c8c8"/><path d="m748.18 238v94h-581.35l-.86-94h580.03z" fill="#394ea1"/><path d="m748.18 332v92h-580.5l-.85-92z" fill="#fbed24"/><path d="m748.18 177.46v60.54h-2.18-580.03l-.9-97.66h583.11z" fill="#ed1e29"/><path d="m162.61 114.42c-5.96 2.8-13.07 4.43-20.69 4.43-7.3 0-14.12-1.49-19.92-4.08-10.99-4.89-18.33-13.72-18.33-23.8 0-15.4 17.13-27.88 38.25-27.88 21.13 0 38.26 12.48 38.26 27.88 0 9.84-7 18.49-17.57 23.45z" fill="#c8c8c8"/><g fill="none"><path d="m165.07 140.34h583.11v37.12 60.54 94 92 96.17h-579.62" stroke="#231f20" stroke-width="21"/><path d="m122 114.77c-10.99-4.89-18.33-13.72-18.33-23.8 0-15.4 17.13-27.88 38.25-27.88 21.13 0 38.26 12.48 38.26 27.88 0 9.84-7 18.49-17.57 23.45-5.96 2.8-13.07 4.43-20.69 4.43-7.3 0-14.12-1.49-19.92-4.08z" stroke="#231f20" stroke-width="21"/><path d="m122 114v.77l1.12 670.61" stroke="#231f20" stroke-width="21"/><path d="m162.61 112.6v1.82 123.58 94 453.38" stroke="#231f20" stroke-width="21"/><path d="m744.76 179.39 3.42-1.93 2.01-1.14" stroke="#231f20" stroke-width="14"/><path d="m164 332h2.83 581.35 1.82" stroke="#231f20" stroke-width="14"/><path d="m164 238h1.97 580.03" stroke="#231f20" stroke-width="14"/><path d="m166 424h1.68 580.5 1.82" stroke="#231f20" stroke-width="14"/><path d="m0 0h850.394v850.394h-850.394z"/></g></svg>