<svg enable-background="new 0 0 850.394 850.394" height="850.394" viewBox="0 0 850.394 850.394" width="850.394" xmlns="http://www.w3.org/2000/svg"><path d="m748.18 232.98v287.19h-530.18v-2.17z" fill="#a8d7f4"/><path d="m162.61 425.67v30.93 55.4 273.38h-39.49l-1.12-670.61c5.8 2.59 12.62 4.08 19.92 4.08 7.62 0 14.73-1.63 20.69-4.43z" fill="#c8c8c8"/><path d="m691.66 140.34-523.99 282.6-2.6-282.6zm-392.12 100.81 23.54-22.94-32.53-4.73-14.55-29.48-14.55 29.48-32.53 4.73 23.54 22.94-5.56 32.4 29.1-15.3 29.1 15.3z" fill="#a8d7f4"/><path d="m748.18 202.97v30.01l-530.18 285.02v2.17h-49.44l-.09-9.48z" fill="#fbed24"/><path d="m744 144v-3.66h4.18v37.12 25.51l-579.71 307.72-.52-56.96z" fill="#ed1e29"/><path d="m744 140.34v3.66l-576.05 309.73-.28-30.79 523.99-282.6z" fill="#fbed24"/><path d="m323.08 218.21-23.54 22.94 5.56 32.4-29.1-15.3-29.1 15.3 5.56-32.4-23.54-22.94 32.53-4.73 14.55-29.48 14.55 29.48z" fill="#fbed24"/><path d="m122 114.77c-10.99-4.89-18.33-13.72-18.33-23.8 0-15.4 17.13-27.88 38.25-27.88 21.13 0 38.26 12.48 38.26 27.88 0 9.84-7 18.49-17.57 23.45-5.96 2.8-13.07 4.43-20.69 4.43-7.3 0-14.12-1.49-19.92-4.08z" fill="#c8c8c8"/><g fill="none"><path d="m165.07 140.34h526.59 52.34 4.18v37.12 25.51 30.01 287.19h-530.18-49.44" stroke="#231f20" stroke-width="21"/><path d="m122 114.77c-10.99-4.89-18.33-13.72-18.33-23.8 0-15.4 17.13-27.88 38.25-27.88 21.13 0 38.26 12.48 38.26 27.88 0 9.84-7 18.49-17.57 23.45-5.96 2.8-13.07 4.43-20.69 4.43-7.3 0-14.12-1.49-19.92-4.08z" stroke="#231f20" stroke-width="21"/><path d="m122 114v.77l1.12 670.61" stroke="#231f20" stroke-width="21"/><path d="m162.61 112.6v1.82 311.25 30.93 55.4 273.38" stroke="#231f20" stroke-width="21"/><path d="m744.76 179.39 3.42-1.93 2.01-1.14" stroke="#231f20" stroke-width="14"/><path d="m744 144-576.05 309.73-5.34 2.87-2.61 1.4" stroke="#231f20" stroke-width="14"/><path d="m166 512 2.47-1.31 579.71-307.72 1.82-.97" stroke="#231f20" stroke-width="14"/><path d="m218 518 530.18-285.02 1.82-.98" stroke="#231f20" stroke-width="14"/><path d="m162 426 .61-.33 5.06-2.73 523.99-282.6 4.34-2.34" stroke="#231f20" stroke-width="14"/><path d="m276 258.25-29.1 15.3 5.56-32.4-23.54-22.94 32.53-4.73 14.55-29.48 14.55 29.48 32.53 4.73-23.54 22.94 5.56 32.4z" stroke="#231f20" stroke-width="7"/><path d="m0 0h850.394v850.394h-850.394z"/></g></svg>