<svg enable-background="new 0 0 850.394 850.394" height="850.394" viewBox="0 0 850.394 850.394" width="850.394" xmlns="http://www.w3.org/2000/svg"><path d="m162.61 114.42v670.96h-39.49l-1.12-670.61c5.8 2.59 12.62 4.08 19.92 4.08 7.62 0 14.73-1.63 20.69-4.43z" fill="#c8c8c8"/><path d="m748.18 177.46v342.71h-579.62l-3.49-379.83h583.11zm-158.65 179.18-14.08-23.74 9.25-26.01-26.94 6.06-21.87-16.83-2.56 27.48-22.78 15.61 25.351 10.93 7.81 26.48 18.23-20.74zm-105.21-107.39 19.529-20.85-28.06-5.38-13.789-25.02-13.79 25.02-28.06 5.38 19.53 20.85-3.54 28.35 25.86-12.13 25.86 12.13zm18.12 198.89-18.87-20.149 3.42-27.39-24.99 11.719-24.99-11.72 3.42 27.39-18.87 20.149 27.11 5.21 13.33 24.171 13.33-24.17zm-121.4-95.61 26.23-8.63-21.29-17.57-.1-27.6-23.29 14.81-26.29-8.44 6.9 26.73-16.15 22.4 27.55 1.7 16.31 22.28z" fill="#a8d7f4"/><path d="m575.45 332.9 14.08 23.74-27.59-.76-18.23 20.74-7.81-26.48-25.35-10.93 22.78-15.61 2.56-27.48 21.87 16.83 26.94-6.06z" fill="#fff"/><path d="m503.85 228.4-19.53 20.85 3.54 28.35-25.86-12.13-25.86 12.13 3.54-28.35-19.53-20.85 28.06-5.38 13.79-25.02 13.79 25.02z" fill="#fff"/><path d="m483.57 427.99 18.87 20.15-27.11 5.21-13.33 24.17-13.33-24.17-27.11-5.21 18.87-20.15-3.42-27.39 24.99 11.72 24.99-11.72z" fill="#fff"/><path d="m407.27 343.9-26.23 8.63-10.13 25.68-16.31-22.28-27.55-1.7 16.15-22.4-6.9-26.73 26.29 8.44 23.29-14.81.1 27.6z" fill="#fff"/><path d="m122 114.77c-10.99-4.89-18.33-13.72-18.33-23.8 0-15.4 17.13-27.88 38.25-27.88 21.13 0 38.26 12.48 38.26 27.88 0 9.84-7 18.49-17.57 23.45-5.96 2.8-13.07 4.43-20.69 4.43-7.3 0-14.12-1.49-19.92-4.08z" fill="#c8c8c8"/><g fill="none"><path d="m165.07 140.34h583.11v37.12 342.71h-579.62" stroke="#231f20" stroke-width="21"/><path d="m122 114.77c-10.99-4.89-18.33-13.72-18.33-23.8 0-15.4 17.13-27.88 38.25-27.88 21.13 0 38.26 12.48 38.26 27.88 0 9.84-7 18.49-17.57 23.45-5.96 2.8-13.07 4.43-20.69 4.43-7.3 0-14.12-1.49-19.92-4.08z" stroke="#231f20" stroke-width="21"/><path d="m122 114v.77l1.12 670.61" stroke="#231f20" stroke-width="21"/><path d="m162.61 112.6v1.82 670.96" stroke="#231f20" stroke-width="21"/><path d="m744.76 179.39 3.42-1.93 2.01-1.14" stroke="#231f20" stroke-width="14"/><path d="m362.59 313.54 23.29-14.81.1 27.6 21.29 17.57-26.23 8.63-10.13 25.68-16.31-22.28-27.55-1.7 16.15-22.4-6.9-26.73z" stroke="#231f20" stroke-width="7"/><path d="m462 265.47-25.86 12.13 3.54-28.35-19.53-20.85 28.06-5.38 13.79-25.02 13.79 25.02 28.06 5.38-19.53 20.85 3.54 28.35z" stroke="#231f20" stroke-width="7.244"/><path d="m557.76 312.95 26.94-6.06-9.25 26.01 14.08 23.74-27.59-.76-18.23 20.74-7.81-26.48-25.35-10.93 22.78-15.61 2.56-27.48z" stroke="#231f20" stroke-width="7"/><path d="m462 412.32 24.99-11.72-3.42 27.39 18.87 20.15-27.11 5.21-13.33 24.17-13.33-24.17-27.11-5.21 18.87-20.15-3.42-27.39z" stroke="#231f20" stroke-width="7"/><path d="m0 0h850.394v850.394h-850.394z"/></g></svg>