<svg enable-background="new 0 0 850.394 850.394" height="850.394" viewBox="0 0 850.394 850.394" width="850.394" xmlns="http://www.w3.org/2000/svg"><path d="m632.36 291.32c0 .04-.011.08-.011.13-.069 1-.069 2.23 0 3.61.021.28.03.56.051.85l-.33.02c-2.82-1.93-5.71-3.37-8.46-4.45-.021-2.36.12-4.8.6-6.96 2.46 1.19 4.9 2.56 7 4.07l1.47.29c-.14.75-.25 1.56-.32 2.44z" fill="#9e5c26"/><path d="m659.41 291.52c-2.75 1.07-5.641 2.51-8.46 4.44l-.33-.02c.11-1.77.14-3.33.04-4.55 0-.01 0-.02 0-.03-.07-.88-.18-1.7-.32-2.46l1.47-.27c2.101-1.51 4.54-2.88 7-4.07.48 2.17.61 4.61.6 6.96z" fill="#9e5c26"/><path d="m633.17 286.82c-.189.63-.36 1.32-.49 2.06l-1.47-.29c-2.1-1.51-4.54-2.88-7-4.07.64-2.95 1.91-5.39 4.271-6.43 1.149-.51 2.21-.78 3.18-.87 4.22-.4 6.6 2.45 6.6 2.45l.19.38c-1.881.89-4.081 2.79-5.281 6.77z" fill="#9e5c26"/><path d="m641.73 336.66-.021-.9v-16.55h5.57c-.3 1.64-.5 2.63-.5 2.63s6.75 4.17 7.899 5.75c.221.3.32.64.32 1 0 1.59-1.88 3.67-4.2 5.04-4.718 2.79-8.108 3.02-9.068 3.03z" fill="#9e5c26"/><path d="m433.26 148.13h-83.51v-2.13-2.94h395.34v376.19l-575.09-1.25h-4.86v-186.31h2.84l1.13-.64 2.1 3.68h15.44 8.84 79.32 2.15 11.61 46.44 14.74 80.56 25.631v-9.92-9.82-37.33-14.74-38.58-14.74-40.02-17.41-4.04h-10.891zm219.56 246.23c25.6-27.9 24.16-66.44 24.16-66.44v-28.22-11.36-9.35-24.98l-146.73.07v73.91s-1.43 38.54 24.16 66.44c25.6 27.9 48.609 39.4 48.609 39.4s24.211-11.57 49.801-39.47z" fill="#2c308c"/><path d="m629.26 401.57c.55-.44 1-.87 1.36-1.28 3.02-3.45 4.75-11.65 2.16-22.97-2.3-10.04-12.91-27.36-15.3-31.17.5-.26.71-.43.71-.43l-.11-9.71c0-8.04-5.51-14.56-12.29-14.56h-.33c-6.79 0-12.29 6.52-12.29 14.56l-.11 9.71s.261.21.891.52c-2.7 4.18-13.41 21.2-15.67 31.08-2.58 11.32-.86 19.52 2.16 22.97.189.21.399.43.649.66 1.91 1.75 5.53 3.78 10.01 5.32 4.221 1.46 9.2 2.48 14.25 2.43h.551.43c5.03.05 9.87-.96 13.939-2.41 3.85-1.37 7.01-3.12 8.99-4.72zm12.2-64.92s.09.01.271.01c.96-.01 4.35-.24 9.069-3.03 2.32-1.37 4.2-3.45 4.2-5.04l2.41.01c.02-10.73 1.29-25.37 1.59-29.48.03-.4.06-.83.1-1.29 7.261-1.27 14.28 1.87 14.28 1.87h3.601v28.22s1.439 38.54-24.16 66.44c-25.59 27.9-49.801 39.47-49.801 39.47s-23.01-11.5-48.609-39.4c-25.59-27.9-24.16-66.44-24.16-66.44v-73.91l146.73-.07v24.98h-3.601s-7.399 2.07-14.57 5.57c-.64-2.95-1.909-5.39-4.27-6.43-1.15-.51-2.22-.78-3.18-.87l.02-.28s1.87-3.31-.149-6.91c-2.011-3.59-.711-10.21-2.87-7.62-2.16 2.59-5.471 16.54-5.471 16.54l-.109.48c-.4-.1-.75-.15-1.021-.17-.37-.03-.59-.02-.59-.02v-.01c-.26.03-.58.07-.939.16l-.11-.47s-3.311-13.95-5.46-16.54c-2.16-2.59-.86 4.03-2.87 7.62-2.021 3.59-.15 6.9-.15 6.9l.021.28c-.97.09-2.03.36-3.18.87-2.36 1.04-3.631 3.48-4.271 6.43-.479 2.16-.62 4.6-.6 6.96.02 2.29.18 4.5.31 6.32.04.46.07.89.1 1.29.301 4.1 1.57 18.74 1.591 29.48l2.409-.01c0 1.58 1.881 3.67 4.2 5.04 5.07 2.99 8.601 3.04 9.24 3.02v.03zm-61.02-66.54c-3.23-3.88-9.271.86-9.271 6.9 0 1.09-.04 2.18-.14 3.25l-.08-.01c-1.01-.16-2.021-.21-3.01-.16-4.471-8.12-15.99-17.52-17.051-16.88-1.08.65-2.37 12.29-1.729 15.1.649 2.8-9.49 9.06-5.61 8.63 3.891-.43 5.4 2.37 5.4 2.37l1.479 1.8c-2.859 2.69-6.199 5.99-8.39 9.63-3.88 6.47 11.65 10.57 17.05 13.81 5.391 3.23 5.15 9.09 9.271 11.65 4.489 2.78 8.239-.87 9.37-2.17 1.399.12 2.52-.11 3.39-.53 2.67-1.26 3.2-4.21 3.2-4.21s.87-3.66 5.83-14.45c4.96-10.78-.431-15.96-2.381-19.41-1.88-3.34-3.96-10.95-7.029-14.94-.099-.13-.199-.26-.299-.38z" fill="#fbee34"/><path d="m641.71 279.82.05-.52c.271.02.62.07 1.021.17.529.11 1.14.3 1.8.62 1.88.9 4.08 2.79 5.27 6.78h-8.14v-7.05z" fill="#9e5c26"/><path d="m640.12 278.96.11.47c-.521.11-1.131.31-1.78.62l-.19-.38s-2.38-2.85-6.6-2.45l-.021-.28s-1.87-3.31.15-6.9c2.01-3.59.71-10.21 2.87-7.62 2.151 2.59 5.461 16.54 5.461 16.54z" fill="#9e5c26"/><path d="m658.81 284.56c-2.46 1.19-4.899 2.56-7 4.07l-1.47.27c-.13-.73-.29-1.41-.49-2.03-1.189-3.99-3.39-5.88-5.27-6.78l.18-.38s2.38-2.86 6.601-2.45c.96.09 2.029.36 3.18.87 2.359 1.04 3.629 3.48 4.269 6.43z" fill="#9e5c26"/><path d="m641.76 279.3-.05.52v7.05h-8.35l-.19-.05c1.2-3.98 3.4-5.88 5.28-6.77.649-.31 1.26-.51 1.78-.62.359-.09.68-.13.939-.16v.01c.001 0 .221-.01.591.02z" fill="#9e5c26"/><path d="m676.98 288.34v11.36h-3.601s-7.02-3.14-14.28-1.87c.131-1.81.29-4.02.311-6.31 8.34-3.26 15.41-3.18 15.41-3.18z" fill="#fbee34"/><path d="m676.98 278.99v9.35h-2.16s-7.07-.08-15.41 3.18c.01-2.35-.12-4.79-.601-6.96 7.171-3.5 14.57-5.57 14.57-5.57z" fill="#fbee34"/><path d="m659.41 291.52c-.021 2.29-.18 4.5-.311 6.31-2.92.51-5.88 1.74-8.439 4.17l-.63-.03c.12-.99.229-1.95.33-2.89.109-1.09.199-2.15.26-3.14l.33.02c2.82-1.93 5.71-3.37 8.46-4.44z" fill="#9e5c26"/><path d="m647.28 319.21c.21-1.09.46-2.46.739-4.02.211-1.23.44-2.57.671-3.97.21-1.27.42-2.6.619-3.94.181-1.24.36-2.48.521-3.72.07-.54.14-1.07.2-1.59l.63.03c2.56-2.43 5.52-3.66 8.439-4.17-.04.46-.069.89-.1 1.29-.3 4.11-1.57 18.75-1.59 29.48l-2.41-.01c0-.36-.1-.7-.32-1-1.149-1.58-7.899-5.75-7.899-5.75s.2-.99.5-2.63z" fill="#9e5c26"/><path d="m651.23 270.07c2.02 3.6.149 6.91.149 6.91l-.02.28c-4.221-.41-6.601 2.45-6.601 2.45l-.18.38c-.66-.32-1.271-.51-1.8-.62l.109-.48s3.311-13.95 5.471-16.54c2.162-2.59.862 4.03 2.872 7.62z" fill="#9e5c26"/><path d="m641.71 295.06v-3.59h7.91l1.04-.08c.1 1.22.07 2.78-.04 4.55-.061.99-.15 2.05-.26 3.14h-1.17-7.48z" fill="#9e5c26"/><path d="m650.66 291.36v.03l-1.04.08h-7.91v-4.6h8.14c.2.62.36 1.3.49 2.03.14.76.25 1.58.32 2.46z" fill="#9e5c26"/><path d="m649.19 299.08h1.17c-.101.94-.21 1.9-.33 2.89-.061.52-.13 1.05-.2 1.59l-.21-.02h-7.91v-4.46z" fill="#9e5c26"/><path d="m649.62 303.54.21.02c-.16 1.24-.34 2.48-.521 3.72h-7.6v-3.74z" fill="#9e5c26"/><path d="m641.71 307.28h7.6c-.199 1.34-.409 2.67-.619 3.94l-.37-.06h-6.61v-3.88z" fill="#9e5c26"/><path d="m648.32 311.16.37.06c-.23 1.4-.46 2.74-.671 3.97h-6.31v-4.03z" fill="#9e5c26"/><path d="m641.71 315.19h6.31c-.279 1.56-.529 2.93-.739 4.02h-5.57v-4.02z" fill="#9e5c26"/><path d="m641.46 336.62c-.64.02-4.17-.03-9.24-3.02-2.319-1.37-4.2-3.46-4.2-5.04 0-.37.101-.7.311-1 1.16-1.58 7.91-5.75 7.91-5.75s-.2-.98-.5-2.6h5.97v16.55l.021.9c-.181 0-.271-.01-.271-.01v-.03z" fill="#9e5c26"/><path d="m641.71 315.19v4.02h-5.97c-.2-1.08-.46-2.46-.73-4.02z" fill="#9e5c26"/><path d="m641.71 311.16v4.03h-6.7c-.22-1.24-.45-2.59-.689-4.02l.05-.01z" fill="#9e5c26"/><path d="m641.71 307.28v3.88h-7.34l-.05.01c-.2-1.25-.41-2.56-.61-3.89z" fill="#9e5c26"/><path d="m641.71 303.54v3.74h-8c-.18-1.24-.36-2.5-.52-3.74z" fill="#9e5c26"/><path d="m641.71 299.08v4.46h-8.52c-.07-.53-.141-1.06-.2-1.58-.12-.98-.23-1.95-.33-2.88z" fill="#9e5c26"/><path d="m641.71 295.06v4.02h-9.05c-.11-1.11-.2-2.17-.26-3.17-.021-.29-.03-.57-.051-.85z" fill="#9e5c26"/><path d="m641.71 291.47v3.59h-9.36c-.069-1.38-.069-2.61 0-3.61l.29.02z" fill="#9e5c26"/><path d="m641.71 286.87v4.6h-9.07l-.29-.02c0-.05.011-.09.011-.13.069-.88.18-1.69.319-2.44.13-.74.301-1.43.49-2.06l.19.05z" fill="#9e5c26"/><path d="m635.74 319.21c.3 1.62.5 2.6.5 2.6s-6.75 4.17-7.91 5.75c-.21.3-.311.63-.311 1l-2.409.01c-.021-10.74-1.29-25.38-1.591-29.48-.029-.4-.06-.83-.1-1.29 2.92.51 5.88 1.73 8.44 4.17l.63-.01c.06.52.13 1.05.2 1.58.159 1.24.34 2.5.52 3.74.2 1.33.41 2.64.61 3.89.239 1.43.47 2.78.689 4.02.272 1.56.532 2.94.732 4.02z" fill="#9e5c26"/><path d="m632.78 377.32c2.59 11.32.859 19.52-2.16 22.97-.36.41-.811.84-1.36 1.28 2.15-6.99-2.83-22.45-5.67-29.72-3-7.67-9.49-23.01-9.49-23.01l-3.02 1.15-.29-2.04c3.69-.49 5.72-1.29 6.69-1.8 2.39 3.81 13 21.13 15.3 31.17z" fill="#7a7878"/><path d="m632.66 299.08c.1.93.21 1.9.33 2.88l-.63.01c-2.561-2.44-5.521-3.66-8.44-4.17-.13-1.82-.29-4.03-.31-6.32 2.75 1.08 5.64 2.52 8.46 4.45l.33-.02c.06 1 .15 2.06.26 3.17z" fill="#9e5c26"/><path d="m623.59 371.85c2.84 7.27 7.82 22.73 5.67 29.72-1.979 1.6-5.14 3.35-8.99 4.72-.069-1-.409-5.47-1.43-14.02-1.01-8.48-7.76-42.28-7.76-42.28l3.02-1.15s6.49 15.34 9.49 23.01z" fill="#7a7878"/><path d="m618.84 392.27c1.021 8.55 1.36 13.02 1.43 14.02-4.069 1.45-8.909 2.46-13.939 2.41h-.43v-59.14-1.25h.319c1.75-.06 3.261-.19 4.57-.36l.29 2.04s6.75 33.8 7.76 42.28z" fill="#7a7878"/><path d="m617.48 346.15c-.971.51-3 1.31-6.69 1.8-1.31.17-2.82.3-4.57.36h-.32-.87c-1.641-.06-3.08-.18-4.33-.33-1.181-.15-2.19-.33-3.061-.52-1.81-.41-2.979-.87-3.689-1.22-.63-.31-.891-.52-.891-.52l.11-9.71c0-8.04 5.5-14.56 12.29-14.56h.33c6.78 0 12.29 6.52 12.29 14.56l.11 9.71c.001 0-.209.17-.709.43z" fill="#9e5c26"/><path d="m605.9 349.56v59.14h-.551c-5.05.05-10.029-.97-14.25-2.43l.271-.77s.27-4.43 1.439-14.23c1.011-8.49 7.771-42.28 7.771-42.28l.12-1.01c1.25.15 2.689.27 4.33.33h.87z" fill="#7a7878"/><path d="m597.55 347.85.09-.39c.87.19 1.88.37 3.061.52l-.12 1.01s-6.76 33.79-7.771 42.28c-1.17 9.8-1.439 14.23-1.439 14.23l-.271.77c-4.479-1.54-8.1-3.57-10.01-5.32l1.37-.19c-2.3-6.9 2.73-22.58 5.6-29.91 2.91-7.43 9.101-22.06 9.48-22.97.01-.01.01-.02.01-.03z" fill="#7a7878"/><path d="m597.64 347.46-.09.39c0 .01 0 .02-.01.03-.38.91-6.57 15.54-9.48 22.97-2.869 7.33-7.899 23.01-5.6 29.91l-1.37.19c-.25-.23-.46-.45-.649-.66-3.021-3.45-4.74-11.65-2.16-22.97 2.26-9.88 12.97-26.9 15.67-31.08.709.35 1.879.81 3.689 1.22z" fill="#7a7878"/><path d="m587.77 285.43c1.95 3.45 7.341 8.63 2.381 19.41-4.96 10.79-5.83 14.45-5.83 14.45s-.53 2.95-3.2 4.21l-.24-.54c0-3.95-.64-8.13-1.62-11.97-.77-3.02-2.12-6.21-2.26-9.17-.14-2.75 1.49-5.01 2-7.62.56-2.82-.1-5.58-.82-8.23-1.529-5.53.4-10.28 2.12-15.36l.44-.12c3.069 3.99 5.149 11.6 7.029 14.94z" fill="#ee947d"/><path d="m577.73 324.03c-.431-.03-.9-.1-1.391-.21-6.899-1.51-3.229-10.35-6.25-13.16-3.02-2.8-10.14-14.23-5.18-17.9 4.07-3.01 5.67-7.61 6.12-12.5.1-1.07.14-2.16.14-3.25 0-6.04 6.04-10.78 9.271-6.9.1.12.199.25.3.38l-.44.12c-1.72 5.08-3.649 9.83-2.12 15.36.721 2.65 1.38 5.41.82 8.23-.51 2.61-2.14 4.87-2 7.62.14 2.96 1.49 6.15 2.26 9.17.98 3.84 1.62 8.02 1.62 11.97l.24.54c-.87.42-1.99.65-3.39.53z" fill="#ee947d"/><path d="m567.94 280.09c.989-.05 2 0 3.01.16l.08.01c-.45 4.89-2.05 9.49-6.12 12.5-4.96 3.67 2.16 15.1 5.18 17.9 3.021 2.81-.649 11.65 6.25 13.16.49.11.96.18 1.391.21-1.131 1.3-4.881 4.95-9.37 2.17-4.12-2.56-3.88-8.42-9.271-11.65-5.399-3.24-20.93-7.34-17.05-13.81 2.19-3.64 5.53-6.94 8.39-9.63 2.221-2.09 4.141-3.81 4.99-5.04 1.65-2.38 6.88-5.7 12.52-5.98z" fill="#ee947d"/><path d="m567.94 280.09c-5.641.28-10.87 3.6-12.521 5.98-.85 1.23-2.77 2.95-4.99 5.04l-1.479-1.8s-1.51-2.8-5.4-2.37c-3.88.43 6.26-5.83 5.61-8.63-.641-2.81.649-14.45 1.729-15.1 1.061-.64 12.581 8.76 17.051 16.88z" fill="#ee947d"/><path d="m455.94 324.81v9.92l-88.51-56.09v-.98h17.69v.98l70.74 46.17z" fill="#ed1e29"/><path d="m455.94 314.99v9.82h-.08l-70.74-46.17v-.98h13.75v.98l56.99 36.35z" fill="#fff"/><path d="m455.94 277.66v37.33h-.08l-56.99-36.35v-.98h56.99z" fill="#2c308c"/><path d="m455.94 262.92v14.74h-.08-56.99-13.75-17.69-17.68v6.87 49.13 1.07h-14.74v-2.05-69.76h120.85z" fill="#fff"/><path d="m455.94 224.34v38.58h-.08-120.85v69.76 2.05h-46.44v-.09-72.7h-120.59-2.84v-36.62h2.84 118.62v-77.19h48.41v76.21z" fill="#ed1d31"/><path d="m369.79 209.6h23.19 62.96v14.74h-120.93v-76.21h14.74v54.86 6.61h4.91z" fill="#fff"/><path d="m455.94 169.58v40.02h-62.96v-.72l62.88-39.3z" fill="#2c308c"/><path d="m455.94 152.17v17.41h-.08l-62.88 39.3v.72h-23.19z" fill="#fff"/><path d="m455.94 148.13v4.04l-86.15 57.43h-15.13v-.72l90.39-59.93v-.82z" fill="#ed1e29"/><path d="m455.94 334.73h-25.63v-1.07l-80.56-49.13v-6.87h17.68v.98z" fill="#fff"/><path d="m445.05 148.13v.82l-90.39 59.93v.72h-4.91v-6.61h.98l82.53-54.04v-.82z" fill="#fff"/><path d="m433.26 148.13v.82l-82.53 54.04h-.98v-54.86z" fill="#2c308c"/><path d="m430.31 333.66v1.07h-80.56v-1.07-49.13z" fill="#2c308c"/><path d="m288.57 334.64v.09h-11.61-2.15v-1.07-44.21-8.21-5.55h-10.54-25.55-71.72-1.86v-13.75h2.84 120.59z" fill="#fff"/><path d="m286.6 148.13v77.19h-118.62-2.84v-14.74h2.84 56.99 11.79 17.68 17.42v-5.63-56.82z" fill="#fff"/><path d="m274.81 333.66v1.07h-79.32v-.09l77.62-45.19h1.7z" fill="#2c308c"/><path d="m274.81 281.24v8.21h-1.7l-77.62 45.19v.09h-8.84v-2.05l87.5-51.44z" fill="#fff"/><path d="m274.81 275.69v5.55h-.66l-87.5 51.44v2.05h-15.44l-2.1-3.68 95.16-54.38v-.98z" fill="#ed1d31"/><path d="m271.86 204.95v5.63h-17.42v-.72l-84.95-61.73h26.99v.82l74.67 56z" fill="#fff"/><path d="m271.86 148.13v56.82h-.71l-74.67-56v-.82z" fill="#2c308c"/><path d="m271.86 146v2.13h-75.38-26.99l84.95 61.73v.72h-17.68v-.72l-67.79-49.12h-3.83v-17.68h2.43 104.29z" fill="#ed1d31"/><path d="m264.27 275.69v.98l-95.16 54.38-1.13.64h-2.84v-15.72h3.83l69.75-40.28z" fill="#fff"/><path d="m238.72 275.69-69.75 40.28h-3.83v-40.28h1.86z" fill="#2c308c"/><path d="m236.76 209.86v.72h-11.79v-.72l-56-40.28h-3.83v-8.84h3.83z" fill="#fff"/><path d="m224.97 209.86v.72h-56.99-2.84v-41h3.83z" fill="#2c308c"/><path d="m165.14 117.39c-5.9 2.78-12.93 4.39-20.49 4.39-6.78 0-13.15-1.3-18.65-3.58-11.48-4.74-19.23-13.72-19.23-24.03 0-15.25 16.96-27.61 37.88-27.61 20.93 0 37.89 12.36 37.89 27.61 0 9.75-6.93 18.31-17.4 23.22z" fill="#c8c8c8"/><path d="m165.14 518v260h-5.14l-33.98 3.92-.02-663.72c5.5 2.28 11.87 3.58 18.65 3.58 7.56 0 14.59-1.61 20.49-4.39v25.67 17.68 8.84 41 14.74 36.62 13.75 40.28 15.72z" fill="#c8c8c8"/><g fill="none"><path d="m167.57 143.06h104.29 63.15 14.74 395.34v376.19l-575.09-1.25" stroke="#231f20" stroke-width="21"/><path d="m126 118.2c-11.48-4.74-19.23-13.72-19.23-24.03 0-15.25 16.96-27.61 37.88-27.61 20.93 0 37.89 12.36 37.89 27.61 0 9.75-6.93 18.31-17.4 23.22-5.9 2.78-12.93 4.39-20.49 4.39-6.78 0-13.15-1.3-18.65-3.58z" stroke="#231f20" stroke-width="21"/><path d="m126 118v.2l.02 663.72" stroke="#231f20" stroke-width="21"/><path d="m165.14 115.59v1.8 25.67 17.68 8.84 41 14.74 36.62 13.75 40.28 15.72 186.31 260 3.92" stroke="#231f20" stroke-width="21"/><path d="m676.98 278.99v-24.98l-146.73.07v73.91s-1.43 38.54 24.16 66.44c25.6 27.9 48.609 39.4 48.609 39.4s24.211-11.57 49.801-39.47c25.6-27.9 24.16-66.44 24.16-66.44v-28.22-11.36z" stroke="#231f20" stroke-width="6.9026"/><path d="m578.07 323.61s-.12.16-.34.42c-1.131 1.3-4.881 4.95-9.37 2.17-4.12-2.56-3.88-8.42-9.271-11.65-5.399-3.24-20.93-7.34-17.05-13.81 2.19-3.64 5.53-6.94 8.39-9.63 2.221-2.09 4.141-3.81 4.99-5.04 1.65-2.38 6.88-5.7 12.521-5.98.989-.05 2 0 3.01.16" stroke="#231f20" stroke-width="5.177"/><path d="m548.95 289.31s-1.51-2.8-5.4-2.37c-3.88.43 6.26-5.83 5.61-8.63-.641-2.81.649-14.45 1.729-15.1 1.061-.64 12.58 8.76 17.051 16.88.079.13.14.25.21.38" stroke="#231f20" stroke-width="5.177"/><path d="m580.74 270.49c3.069 3.99 5.149 11.6 7.029 14.94 1.95 3.45 7.341 8.63 2.381 19.41-4.96 10.79-5.83 14.45-5.83 14.45s-.53 2.95-3.2 4.21c-.87.42-1.99.65-3.39.53-.431-.03-.9-.1-1.391-.21-6.899-1.51-3.229-10.35-6.25-13.16-3.02-2.8-10.14-14.23-5.18-17.9 4.07-3.01 5.67-7.61 6.12-12.5.1-1.07.14-2.16.14-3.25 0-6.04 6.04-10.78 9.271-6.9.1.12.2.25.3.38z" stroke="#231f20" stroke-width="5.177"/><path d="m605.9 348.31h.319c1.75-.06 3.261-.19 4.57-.36 3.69-.49 5.72-1.29 6.69-1.8.5-.26.71-.43.71-.43l-.11-9.71c0-8.04-5.51-14.56-12.29-14.56h-.33c-6.79 0-12.29 6.52-12.29 14.56l-.11 9.71s.261.21.891.52c.71.35 1.88.81 3.689 1.22.87.19 1.88.37 3.061.52 1.25.15 2.689.27 4.33.33z" stroke="#231f20" stroke-width="5.177"/><path d="m617 345.39s.17.27.48.76c2.39 3.81 13 21.13 15.3 31.17 2.59 11.32.859 19.52-2.16 22.97-.36.41-.811.84-1.36 1.28-1.979 1.6-5.14 3.35-8.99 4.72-4.069 1.45-8.909 2.46-13.939 2.41h-.43-.551c-5.05.05-10.029-.97-14.25-2.43-4.479-1.54-8.1-3.57-10.01-5.32-.25-.23-.46-.45-.649-.66-3.021-3.45-4.74-11.65-2.16-22.97 2.26-9.88 12.97-26.9 15.67-31.08.399-.61.62-.95.62-.95" stroke="#231f20" stroke-width="5.177"/><path d="m640.12 278.96s-3.311-13.95-5.46-16.54c-2.16-2.59-.86 4.03-2.87 7.62-2.021 3.59-.15 6.9-.15 6.9" stroke="#231f20" stroke-width="3.4513"/><path d="m641.85 279.24s-.25-.01-.68.03c-.26.03-.58.07-.939.16-.521.11-1.131.31-1.78.62-1.88.89-4.08 2.79-5.28 6.77-.189.63-.36 1.32-.49 2.06-.14.75-.25 1.56-.319 2.44 0 .04-.011.08-.011.13-.069 1-.069 2.23 0 3.61.021.28.03.56.051.85.06 1 .149 2.06.26 3.17.1.93.21 1.9.33 2.88.06.52.13 1.05.2 1.58.159 1.24.34 2.5.52 3.74.2 1.33.41 2.64.61 3.89.239 1.43.47 2.78.689 4.02.271 1.56.53 2.94.73 4.02.3 1.62.5 2.6.5 2.6s-6.75 4.17-7.91 5.75c-.21.3-.311.63-.311 1 0 1.58 1.881 3.67 4.2 5.04 5.07 2.99 8.601 3.04 9.24 3.02h.1" stroke="#231f20" stroke-width="3.4513"/><path d="m638.26 279.67s-2.38-2.85-6.6-2.45c-.97.09-2.03.36-3.18.87-2.36 1.04-3.631 3.48-4.271 6.43-.479 2.16-.62 4.6-.6 6.96.02 2.29.18 4.5.31 6.32.04.46.07.89.1 1.29.301 4.1 1.57 18.74 1.591 29.48.01 4.69-.221 8.63-.88 10.64" stroke="#231f20" stroke-linecap="round" stroke-linejoin="round" stroke-width="3.4513"/><path d="m615.67 262.99 12.81 15.1" stroke="#231f20" stroke-linecap="round" stroke-linejoin="round" stroke-width="3.4513"/><path d="m609.63 278.96s7.41 2.07 14.58 5.56c2.46 1.19 4.9 2.56 7 4.07" stroke="#231f20" stroke-linecap="round" stroke-linejoin="round" stroke-width="3.4513"/><path d="m608.2 288.3s7.069-.08 15.41 3.18c2.75 1.08 5.64 2.52 8.46 4.45" stroke="#231f20" stroke-linecap="round" stroke-linejoin="round" stroke-width="3.4513"/><path d="m609.63 299.66s7.021-3.14 14.29-1.86c2.92.51 5.88 1.73 8.44 4.17" stroke="#231f20" stroke-linecap="round" stroke-linejoin="round" stroke-width="3.4513"/><path d="m642.89 278.99s3.311-13.95 5.471-16.54c2.159-2.59.859 4.03 2.87 7.62 2.02 3.6.149 6.91.149 6.91" stroke="#231f20" stroke-width="3.4513"/><path d="m641.17 279.28s.22-.01.59.02c.271.02.62.07 1.021.17.529.11 1.14.3 1.8.62 1.88.9 4.08 2.79 5.27 6.78.2.62.36 1.3.49 2.03.141.76.25 1.58.32 2.46v.03c.1 1.22.07 2.78-.04 4.55-.061.99-.15 2.05-.26 3.14-.101.94-.21 1.9-.33 2.89-.061.52-.13 1.05-.2 1.59-.16 1.24-.34 2.48-.521 3.72-.199 1.34-.409 2.67-.619 3.94-.23 1.4-.46 2.74-.671 3.97-.279 1.56-.529 2.93-.739 4.02-.3 1.64-.5 2.63-.5 2.63s6.75 4.17 7.899 5.75c.221.3.32.64.32 1 0 1.59-1.88 3.67-4.2 5.04-4.72 2.79-8.109 3.02-9.069 3.03-.181 0-.271-.01-.271-.01" stroke="#231f20" stroke-width="3.4513"/><path d="m644.76 279.71s2.38-2.86 6.601-2.45c.96.09 2.029.36 3.18.87 2.36 1.04 3.63 3.48 4.27 6.43.48 2.17.61 4.61.601 6.96-.021 2.29-.18 4.5-.311 6.31-.04.46-.069.89-.1 1.29-.3 4.11-1.57 18.75-1.59 29.48-.01 4.69.22 8.63.87 10.64" stroke="#231f20" stroke-linecap="round" stroke-linejoin="round" stroke-width="3.4513"/><path d="m667.34 263.03-12.8 15.1" stroke="#231f20" stroke-linecap="round" stroke-linejoin="round" stroke-width="3.4513"/><path d="m673.38 278.99s-7.399 2.07-14.57 5.57c-2.46 1.19-4.899 2.56-7 4.07" stroke="#231f20" stroke-linecap="round" stroke-linejoin="round" stroke-width="3.4513"/><path d="m674.82 288.34s-7.07-.08-15.41 3.18c-2.75 1.07-5.641 2.51-8.46 4.44" stroke="#231f20" stroke-linecap="round" stroke-linejoin="round" stroke-width="3.4513"/><path d="m673.38 299.7s-7.02-3.14-14.28-1.87c-2.92.51-5.88 1.74-8.439 4.17" stroke="#231f20" stroke-linecap="round" stroke-linejoin="round" stroke-width="3.4513"/><path d="m641.71 279.82v7.05 4.6 3.59 4.02 4.46 3.74 3.88 4.03 4.02 16.55" stroke="#231f20" stroke-width="1.7256"/><path d="m633.36 286.87h8.35 8.14.49" stroke="#231f20" stroke-width="1.7256"/><path d="m632.64 291.47h9.07 7.91" stroke="#231f20" stroke-width="1.7256"/><path d="m632.07 295.06h.28 9.36 7.33" stroke="#231f20" stroke-width="1.7256"/><path d="m632.22 299.08h.44 9.05 7.48" stroke="#231f20" stroke-width="1.7256"/><path d="m632.65 303.54h.54 8.52 7.91" stroke="#231f20" stroke-width="1.7256"/><path d="m632.94 307.28h.77 8 7.6.6" stroke="#231f20" stroke-width="1.7256"/><path d="m634.37 311.16h7.34 6.61" stroke="#231f20" stroke-width="1.7256"/><path d="m634.52 315.19h.49 6.7 6.31.44" stroke="#231f20" stroke-width="1.7256"/><path d="m634.23 319.21h1.51 5.97 5.57.89" stroke="#231f20" stroke-width="1.7256"/><path d="m580.3 270.61c-1.72 5.08-3.649 9.83-2.12 15.36.721 2.65 1.38 5.41.82 8.23-.51 2.61-2.14 4.87-2 7.62.14 2.96 1.49 6.15 2.26 9.17.98 3.84 1.62 8.02 1.62 11.97" stroke="#231f20" stroke-width="5.177"/><path d="m605.9 349.56v59.14" stroke="#231f20" stroke-width="3.4513"/><path d="m600.58 348.99s-6.76 33.79-7.771 42.28c-1.17 9.8-1.439 14.23-1.439 14.23" stroke="#231f20" stroke-width="3.4513"/><path d="m597.56 347.84s0 0-.01.01c0 .01 0 .02-.01.03-.38.91-6.57 15.54-9.48 22.97-2.869 7.33-7.899 23.01-5.6 29.91" stroke="#231f20" stroke-width="3.4513"/><path d="m611.08 349.99s6.75 33.8 7.76 42.28c1.021 8.55 1.36 13.02 1.43 14.02.011.15.011.22.011.22" stroke="#231f20" stroke-width="3.4513"/><path d="m614.1 348.84s6.49 15.34 9.49 23.01c2.84 7.27 7.82 22.73 5.67 29.72-.02.07-.04.13-.06.19" stroke="#231f20" stroke-width="3.4513"/><path d="m276.96 334.73h-2.15-79.32-8.84-15.44" stroke="#231f20" stroke-width="10.3162"/><path d="m169.49 148.13h26.99 75.38 14.74 48.41 14.74 83.51 11.79 10.89v4.04 17.41 40.02 14.74 38.58 14.74 37.33 9.82 9.92h-25.63-80.56-14.74-46.44-11.61" stroke="#231f20" stroke-width="10.3162"/><path d="m456.84 224.34h-.9-120.93v-76.21-2.13" stroke="#231f20" stroke-width="3.4388"/><path d="m286.6 146.98v1.15 77.19h-118.62" stroke="#231f20" stroke-width="3.4388"/><path d="m167.98 261.94h120.59v72.7" stroke="#231f20" stroke-width="3.4388"/><path d="m335.01 332.68v-69.76h120.85" stroke="#231f20" stroke-width="3.4388"/><path d="m271.86 146v2.13 56.82 5.63h-17.42-17.68-11.79-56.99" stroke="#231f20" stroke-width="3.4388"/><path d="m456.84 209.6h-.9-62.96-23.19-15.13-4.91v-6.61-54.86-2.13" stroke="#231f20" stroke-width="3.4388"/><path d="m167 275.69h71.72 25.55 10.54v5.55 8.21 44.21" stroke="#231f20" stroke-width="3.4388"/><path d="m349.75 333.66v-49.13-6.87h17.68 17.69 13.75 56.99" stroke="#231f20" stroke-width="3.4388"/><path d="m196.48 148.95 74.67 56" stroke="#231f20" stroke-width="3.4388"/><path d="m169.49 148.13 84.95 61.73" stroke="#231f20" stroke-width="3.4388"/><path d="m168.97 160.74 67.79 49.12" stroke="#231f20" stroke-width="3.4388"/><path d="m168.97 169.58 56 40.28" stroke="#231f20" stroke-width="3.4388"/><path d="m350.73 202.99 82.53-54.04" stroke="#231f20" stroke-width="3.4388"/><path d="m354.66 208.88 90.39-59.93" stroke="#231f20" stroke-width="3.4388"/><path d="m369.4 209.86.39-.26 86.15-57.43 1.88-1.26" stroke="#231f20" stroke-width="3.4388"/><path d="m392.98 208.88 62.88-39.3" stroke="#231f20" stroke-width="3.4388"/><path d="m186.65 332.68 87.5-51.44" stroke="#231f20" stroke-width="3.4388"/><path d="m167.98 331.69 1.13-.64 95.16-54.38" stroke="#231f20" stroke-width="3.4388"/><path d="m273.11 289.45-77.62 45.19" stroke="#231f20" stroke-width="3.4388"/><path d="m168.97 315.97 69.75-40.28" stroke="#231f20" stroke-width="3.4388"/><path d="m455.94 334.73-88.51-56.09" stroke="#231f20" stroke-width="3.4388"/><path d="m349.75 284.53 80.56 49.13" stroke="#231f20" stroke-width="3.4388"/><path d="m385.12 278.64 70.74 46.17" stroke="#231f20" stroke-width="3.4388"/><path d="m398.87 278.64 56.99 36.35" stroke="#231f20" stroke-width="3.4388"/><path d="m0 0h850.394v850.394h-850.394z"/></g></svg>