<svg enable-background="new 0 0 850.394 850.394" height="850.394" viewBox="0 0 850.394 850.394" width="850.394" xmlns="http://www.w3.org/2000/svg"><path d="m122 114.77c5.8 2.59 12.62 4.08 19.92 4.08 7.62 0 14.73-1.63 20.69-4.43v667.48l-39.49 2.979z" fill="#c8c8c8"/><path d="m748.18 140.34v116.66h-2.18-579.86l-1.07-116.66z" fill="#58b947"/><path d="m748.18 257v135h-4.18-576l-.62.01-1.11-121.01h579.73v-14z" fill="#fff"/><path d="m748.18 392v128.17h-579.62l-1.18-128.16.62-.01h576z" fill="#0071bc"/><path d="m746 257v14h-579.73l-.13-14z" fill="#231f20"/><path d="m141.92 63.09c21.13 0 38.26 12.48 38.26 27.88 0 9.84-7 18.49-17.57 23.45-5.96 2.8-13.07 4.43-20.69 4.43-7.3 0-14.12-1.49-19.92-4.08-10.99-4.89-18.33-13.72-18.33-23.8 0-15.4 17.13-27.88 38.25-27.88z" fill="#c8c8c8"/><path d="m167.96 781.5.08 1-5.43.41v-1.01z" fill="#231f20"/><path d="m166.14 257 .13 14h-2.27v-14z" fill="#231f20"/><path d="m162.61 781.9v1.01l-39.45 2.97-.04-.5v-.5z" fill="#231f20"/><path d="m123.12 784.88v.5l-.04-.5z" fill="#231f20"/><g fill="none"><path d="m165.07 140.34h583.11v116.66 135 128.17h-579.62" stroke="#231f20" stroke-width="14"/><path d="m122 114.77c-10.99-4.89-18.33-13.72-18.33-23.8 0-15.4 17.13-27.88 38.25-27.88 21.13 0 38.26 12.48 38.26 27.88 0 9.84-7 18.49-17.57 23.45-5.96 2.8-13.07 4.43-20.69 4.43-7.3 0-14.12-1.49-19.92-4.08z" stroke="#231f20" stroke-width="21"/><path d="m122 114v.77l1.12 670.11" stroke="#231f20" stroke-width="21"/><path d="m162.61 782.91v2.47" stroke="#231f20" stroke-width="21"/><path d="m162.61 112.6v1.82 667.48" stroke="#231f20" stroke-width="21"/><path d="m168 392h576" stroke="#231f20" stroke-width="14"/><path d="m0 0h850.394v850.394h-850.394z"/></g></svg>