<svg enable-background="new 0 0 850.394 850.394" height="850.394" viewBox="0 0 850.394 850.394" width="850.394" xmlns="http://www.w3.org/2000/svg"><path d="m162.61 264v24 110 22 365.38h-39.49l-1.12-670.61c5.8 2.59 12.62 4.08 19.92 4.08 7.62 0 14.73-1.63 20.69-4.43z" fill="#c8c8c8"/><path d="m748.18 420v100.17h-579.62l-.92-100.17h580.36z" fill="#58b947"/><path d="m748.18 398v22h-.18-580.36l-.2-22z" fill="#ed1e29"/><path d="m748.18 288v110h-580.74l-1.01-110h581.57z" fill="#fff"/><path d="m748.18 264v24h-.18-581.57l-.22-24h581.79z" fill="#ed1e29"/><path d="m309.41 222.95 5.99 5.84-1.42 8.25 7.41-3.9 7.41 3.9-1.42-8.25 6-5.84-8.29-1.2-3.7-7.51-3.7 7.51zm-5.52.94-8.22-1.19-3.67-7.45-3.67 7.45-8.21 1.19 5.94 5.79-1.4 8.18 7.34-3.86 7.35 3.86-1.41-8.18zm444.29-46.43v86.54h-.18-581.79l-1.14-123.66h583.11zm-324.8-4.67 6-5.84-8.29-1.2-3.7-7.51-3.7 7.51-8.28 1.2 5.99 5.84-1.42 8.25 7.41-3.9 7.41 3.9zm.24 28.16 5.62-5.48-7.77-1.12-3.47-7.04-3.47 7.04-7.77 1.12 5.62 5.48-1.32 7.73 6.94-3.65 6.94 3.65zm-.05 29.97 5.57-5.43-7.7-1.11-3.44-6.98-3.44 6.98-7.7 1.11 5.57 5.43-1.32 7.67 6.89-3.62 6.89 3.62zm-32.24-32.11 5.53-5.39-7.64-1.11-3.42-6.93-3.42 6.93-7.64 1.11 5.53 5.39-1.31 7.62 6.84-3.6 6.84 3.6zm-.65 31.33 6-5.84-8.28-1.2-3.71-7.51-3.7 7.51-8.28 1.2 5.99 5.84-1.42 8.25 7.41-3.89 7.41 3.89zm-2-58 6-5.84-8.28-1.2-3.71-7.5-3.7 7.5-8.28 1.2 5.99 5.84-1.42 8.25 7.41-3.89 7.41 3.89zm-29.69 58.62 5.94-5.79-8.21-1.19-3.68-7.44-3.67 7.44-8.21 1.19 5.94 5.79-1.4 8.18 7.34-3.86 7.35 3.86zm-1.51-31.69 5.61-5.47-7.76-1.13-3.47-7.04-3.47 7.04-7.77 1.13 5.62 5.47-1.33 7.73 6.95-3.65 6.94 3.65zm-2.63-26.8 5.99-5.84-8.28-1.21-3.7-7.5-3.71 7.5-8.28 1.21 6 5.84-1.42 8.25 7.41-3.9 7.41 3.9zm-29.42 26.61 5.55-5.41-7.67-1.11-3.43-6.94-3.42 6.94-7.66 1.11 5.54 5.41-1.31 7.63 6.85-3.6 6.86 3.6zm-49.73-27.41c-7.09-5.95-16.48-8.9-26.47-8.9-22.52 0-40.78 18.26-40.78 40.79 0 22.52 18.26 40.78 40.78 40.78 8.45 0 19.44-2.8 25.94-7.2-3.75 1.37-7.8 2.13-12.03 2.13-19.31 0-34.96-15.66-34.96-34.96 0-19.31 15.65-34.96 34.96-34.96 4.43 0 8.66.82 12.56 2.32z" fill="#0071bc"/><path d="m429.38 166.95-6 5.84 1.42 8.25-7.41-3.9-7.41 3.9 1.42-8.25-5.99-5.84 8.28-1.2 3.7-7.51 3.7 7.51z" fill="#fff"/><path d="m429.24 195.47-5.62 5.48 1.32 7.73-6.94-3.65-6.94 3.65 1.32-7.73-5.62-5.48 7.77-1.12 3.47-7.04 3.47 7.04z" fill="#fff"/><path d="m429.14 225.49-5.57 5.43 1.32 7.67-6.89-3.62-6.89 3.62 1.32-7.67-5.57-5.43 7.7-1.11 3.44-6.98 3.44 6.98z" fill="#fff"/><path d="m396.86 193.42-5.53 5.39 1.31 7.62-6.84-3.6-6.84 3.6 1.31-7.62-5.53-5.39 7.64-1.11 3.42-6.93 3.42 6.93z" fill="#fff"/><path d="m396.68 224.3-6 5.84 1.42 8.25-7.41-3.89-7.41 3.89 1.42-8.25-5.99-5.84 8.28-1.2 3.7-7.51 3.71 7.51z" fill="#fff"/><path d="m394.68 166.3-6 5.84 1.42 8.25-7.41-3.89-7.41 3.89 1.42-8.25-5.99-5.84 8.28-1.2 3.7-7.5 3.71 7.5z" fill="#fff"/><path d="m364.93 224.97-5.94 5.79 1.4 8.18-7.35-3.86-7.34 3.86 1.4-8.18-5.94-5.79 8.21-1.19 3.67-7.44 3.68 7.44z" fill="#fff"/><path d="m363.09 193.6-5.61 5.47 1.32 7.73-6.94-3.65-6.95 3.65 1.33-7.73-5.62-5.47 7.77-1.13 3.47-7.04 3.47 7.04z" fill="#fff"/><path d="m360.84 166.43-5.99 5.84 1.42 8.25-7.41-3.9-7.41 3.9 1.42-8.25-6-5.84 8.28-1.21 3.71-7.5 3.7 7.5z" fill="#fff"/><path d="m333.38 222.95-6 5.84 1.42 8.25-7.41-3.9-7.41 3.9 1.42-8.25-5.99-5.84 8.28-1.2 3.7-7.51 3.7 7.51z" fill="#fff"/><path d="m330.98 193.47-5.55 5.41 1.31 7.63-6.86-3.6-6.85 3.6 1.31-7.63-5.54-5.41 7.66-1.11 3.42-6.94 3.43 6.94z" fill="#fff"/><path d="m303.89 223.89-5.95 5.79 1.41 8.18-7.35-3.86-7.34 3.86 1.4-8.18-5.94-5.79 8.21-1.19 3.67-7.45 3.67 7.45z" fill="#fff"/><path d="m249.23 162.57c9.99 0 19.38 2.95 26.47 8.9-3.9-1.5-8.13-2.32-12.56-2.32-19.31 0-34.96 15.65-34.96 34.96 0 19.3 15.65 34.96 34.96 34.96 4.23 0 8.28-.76 12.03-2.13-6.5 4.4-17.49 7.2-25.94 7.2-22.52 0-40.78-18.26-40.78-40.78 0-22.53 18.26-40.79 40.78-40.79z" fill="#fff"/><path d="m122 114.77c-10.99-4.89-18.33-13.72-18.33-23.8 0-15.4 17.13-27.88 38.25-27.88 21.13 0 38.26 12.48 38.26 27.88 0 9.84-7 18.49-17.57 23.45-5.96 2.8-13.07 4.43-20.69 4.43-7.3 0-14.12-1.49-19.92-4.08z" fill="#c8c8c8"/><g fill="none"><path d="m165.07 140.34h583.11v37.12 86.54 24 110 22 100.17h-579.62" stroke="#231f20" stroke-width="21"/><path d="m122 114.77c-10.99-4.89-18.33-13.72-18.33-23.8 0-15.4 17.13-27.88 38.25-27.88 21.13 0 38.26 12.48 38.26 27.88 0 9.84-7 18.49-17.57 23.45-5.96 2.8-13.07 4.43-20.69 4.43-7.3 0-14.12-1.49-19.92-4.08z" stroke="#231f20" stroke-width="21"/><path d="m122 114v.77l1.12 670.61" stroke="#231f20" stroke-width="21"/><path d="m162.61 112.6v1.82 149.58 24 110 22 365.38" stroke="#231f20" stroke-width="21"/><path d="m744.76 179.39 3.42-1.93 2.01-1.14" stroke="#231f20" stroke-width="14"/><path d="m162 264h.61 3.6 581.79" stroke="#231f20" stroke-width="14"/><path d="m162 398h.61 4.83 580.74 1.82" stroke="#231f20" stroke-width="14"/><path d="m164 288h2.43 581.57" stroke="#231f20" stroke-width="14"/><path d="m164 420h3.64 580.36" stroke="#231f20" stroke-width="14"/><path d="m275.17 236.94c-6.5 4.4-17.49 7.2-25.94 7.2-22.52 0-40.78-18.26-40.78-40.78 0-22.53 18.26-40.79 40.78-40.79 9.99 0 19.38 2.95 26.47 8.9" stroke="#000" stroke-linecap="round" stroke-linejoin="round" stroke-width="7"/><path d="m275.17 236.94c-3.75 1.37-7.8 2.13-12.03 2.13-19.31 0-34.96-15.66-34.96-34.96 0-19.31 15.65-34.96 34.96-34.96 4.43 0 8.66.82 12.56 2.32" stroke="#000" stroke-linecap="round" stroke-linejoin="round" stroke-width="7"/><path d="m348.86 176.62-7.41 3.9 1.42-8.25-6-5.84 8.28-1.21 3.71-7.5 3.7 7.5 8.28 1.21-5.99 5.84 1.42 8.25z" stroke="#000" stroke-linecap="round" stroke-linejoin="round" stroke-width="3.8898"/><path d="m382.69 176.5-7.41 3.89 1.42-8.25-5.99-5.84 8.28-1.2 3.7-7.5 3.71 7.5 8.28 1.2-6 5.84 1.42 8.25z" stroke="#000" stroke-linecap="round" stroke-linejoin="round" stroke-width="3.8898"/><path d="m417.39 177.14-7.41 3.9 1.42-8.25-5.99-5.84 8.28-1.2 3.7-7.51 3.7 7.51 8.29 1.2-6 5.84 1.42 8.25z" stroke="#000" stroke-linecap="round" stroke-linejoin="round" stroke-width="3.8898"/><path d="m418 205.03-6.94 3.65 1.32-7.73-5.62-5.48 7.77-1.12 3.47-7.04 3.47 7.04 7.77 1.12-5.62 5.48 1.32 7.73z" stroke="#000" stroke-linecap="round" stroke-linejoin="round" stroke-width="3.6467"/><path d="m385.8 202.83-6.84 3.6 1.31-7.62-5.53-5.39 7.64-1.11 3.42-6.93 3.42 6.93 7.64 1.11-5.53 5.39 1.31 7.62z" stroke="#000" stroke-linecap="round" stroke-linejoin="round" stroke-width="3.5911"/><path d="m351.86 203.15-6.95 3.65 1.33-7.73-5.62-5.47 7.77-1.13 3.47-7.04 3.47 7.04 7.76 1.13-5.61 5.47 1.32 7.73z" stroke="#000" stroke-linecap="round" stroke-linejoin="round" stroke-width="3.6467"/><path d="m319.88 202.91-6.85 3.6 1.31-7.63-5.54-5.41 7.66-1.11 3.42-6.94 3.43 6.94 7.67 1.11-5.55 5.41 1.31 7.63z" stroke="#000" stroke-linecap="round" stroke-linejoin="round" stroke-width="3.5994"/><path d="m418 234.97-6.89 3.62 1.32-7.67-5.57-5.43 7.7-1.11 3.44-6.98 3.44 6.98 7.7 1.11-5.57 5.43 1.32 7.67z" stroke="#000" stroke-linecap="round" stroke-linejoin="round" stroke-width="3.6163"/><path d="m384.69 234.5-7.41 3.89 1.42-8.25-5.99-5.84 8.28-1.2 3.7-7.51 3.71 7.51 8.28 1.2-6 5.84 1.42 8.25z" stroke="#000" stroke-linecap="round" stroke-linejoin="round" stroke-width="3.8898"/><path d="m353.04 235.08-7.34 3.86 1.4-8.18-5.94-5.79 8.21-1.19 3.67-7.44 3.68 7.44 8.21 1.19-5.94 5.79 1.4 8.18z" stroke="#000" stroke-linecap="round" stroke-linejoin="round" stroke-width="3.8574"/><path d="m321.39 233.14-7.41 3.9 1.42-8.25-5.99-5.84 8.28-1.2 3.7-7.51 3.7 7.51 8.29 1.2-6 5.84 1.42 8.25z" stroke="#000" stroke-linecap="round" stroke-linejoin="round" stroke-width="3.8898"/><path d="m292 234-7.34 3.86 1.4-8.18-5.94-5.79 8.21-1.19 3.67-7.45 3.67 7.45 8.22 1.19-5.95 5.79 1.41 8.18z" stroke="#000" stroke-linecap="round" stroke-linejoin="round" stroke-width="3.8574"/><path d="m0 0h850.394v850.394h-850.394z"/></g></svg>