<svg enable-background="new 0 0 850.394 850.394" height="850.394" viewBox="0 0 850.394 850.394" width="850.394" xmlns="http://www.w3.org/2000/svg"><path d="m121.6 114.37c-11.97-4.74-20.09-13.98-20.09-24.61 0-15.45 17.18-27.98 38.39-27.98 21.2 0 38.39 12.53 38.39 27.98 0 9.88-7.02 18.57-17.63 23.54-5.98 2.82-13.11 4.45-20.76 4.45-6.62 0-12.86-1.22-18.3-3.38z" fill="#c8c8c8"/><path d="m160.66 520v262h-2.66l-36.98 4.69-1.01-668.69 1.59-3.63c5.44 2.16 11.68 3.38 18.3 3.38 7.65 0 14.78-1.63 20.76-4.45v26.01 6.12 368.97z" fill="#c8c8c8"/><path d="m748.35 139.31v188.86h-338.65l-245.69-182.74h-3.35v-6.12h2.47z" fill="#2c308c"/><path d="m376.56 326.53-6.39 6.22 1.51 8.8-7.88-4.15-7.9 4.15 1.5-8.8-6.38-6.22 8.83-1.28 3.95-7.99 3.93 7.99z" fill="#fbee34"/><path d="m286.12 330.06c0 16.18-13.11 29.29-29.29 29.29-16.17 0-29.29-13.11-29.29-29.29 0-16.12 13.04-29.21 29.15-29.29h.14c16.18 0 29.29 13.12 29.29 29.29z" fill="#fbee34"/><path d="m227.54 330.06c0 16.18 13.12 29.29 29.29 29.29 16.18 0 29.29-13.11 29.29-29.29 0-16.17-13.11-29.29-29.29-29.29-.05 0-.09 0-.14 0-16.11.08-29.15 13.17-29.15 29.29zm182.16-1.89-245.69 186.23h-3.35v-368.97h3.35zm-39.53 4.58 6.39-6.22-8.83-1.28-3.93-7.99-3.95 7.99-8.83 1.28 6.38 6.22-1.5 8.8 7.9-4.15 7.88 4.15zm-173.25-103.65 6.4-6.22-8.84-1.28-3.92-7.99-3.95 7.99-8.83 1.28 6.38 6.22-1.51 8.8 7.91-4.15 7.88 4.15zm-1.62 208.58 6.39-6.229-8.83-1.28-3.93-7.99-3.95 7.99-8.83 1.28 6.38 6.229-1.5 8.78 7.9-4.14 7.88 4.14z" fill="#fff"/><path d="m203.32 222.88-6.4 6.22 1.52 8.8-7.88-4.15-7.91 4.15 1.51-8.8-6.38-6.22 8.83-1.28 3.95-7.99 3.92 7.99z" fill="#fbee34"/><path d="m201.69 431.45-6.39 6.23 1.51 8.78-7.88-4.14-7.9 4.14 1.5-8.78-6.38-6.23 8.83-1.28 3.95-7.99 3.93 7.99z" fill="#fbee34"/><path d="m164.01 514.4 245.69-186.23h338.65v192.35l-587.69-.52v-5.6z" fill="#ed1d31"/><g fill="none"><path d="m163.13 139.31h585.22v188.86 192.35l-587.69-.52h-.66" stroke="#231f20" stroke-width="21"/><path d="m121.6 114.37c-11.97-4.74-20.09-13.98-20.09-24.61 0-15.45 17.18-27.98 38.39-27.98 21.2 0 38.39 12.53 38.39 27.98 0 9.88-7.02 18.57-17.63 23.54-5.98 2.82-13.11 4.45-20.76 4.45-6.62 0-12.86-1.22-18.3-3.38z" stroke="#231f20" stroke-width="21"/><path d="m120.01 118 1.01 668.69" stroke="#231f20" stroke-width="21"/><path d="m160.66 111.48v1.82 26.01 6.12 368.97 5.6 262 4.69" stroke="#231f20" stroke-width="21"/><path d="m164.01 145.43 245.69 182.74-245.69 186.23" stroke="#231f20" stroke-width="7"/><path d="m409.7 328.17h338.65 2.34" stroke="#231f20" stroke-width="7"/><path d="m190.56 213.61 3.92 7.99 8.84 1.28-6.4 6.22 1.52 8.8-7.88-4.15-7.91 4.15 1.51-8.8-6.38-6.22 8.83-1.28z" stroke="#231f20" stroke-width="3.4974"/><path d="m363.8 317.26 3.93 7.99 8.83 1.28-6.39 6.22 1.51 8.8-7.88-4.15-7.9 4.15 1.5-8.8-6.38-6.22 8.83-1.28z" stroke="#231f20" stroke-width="3.4974"/><path d="m188.93 422.18 3.93 7.99 8.83 1.28-6.39 6.23 1.51 8.78-7.88-4.14-7.9 4.14 1.5-8.78-6.38-6.23 8.83-1.28z" stroke="#231f20" stroke-width="3.4974"/><path d="m286.12 330.06c0 16.18-13.11 29.29-29.29 29.29-16.17 0-29.29-13.11-29.29-29.29 0-16.12 13.04-29.21 29.15-29.29h.14c16.18 0 29.29 13.12 29.29 29.29z" stroke="#231f20" stroke-width="6.9947"/><path d="m256.69 271.34v29.43" stroke="#231f20" stroke-linecap="round" stroke-linejoin="round" stroke-width="6.9947"/><path d="m265.76 275.71-3.72 24.15" stroke="#231f20" stroke-width="6.9947"/><path d="m247.51 275.6 3.71 24.15" stroke="#231f20" stroke-width="6.9947"/><path d="m315.65 331h-29.44" stroke="#231f20" stroke-linecap="round" stroke-linejoin="round" stroke-width="6.9947"/><path d="m311.27 340.07-24.15-3.72" stroke="#231f20" stroke-width="6.9947"/><path d="m311.38 321.81-24.15 3.72" stroke="#231f20" stroke-width="6.9947"/><path d="m197.9 330.85h29.43" stroke="#231f20" stroke-linecap="round" stroke-linejoin="round" stroke-width="6.9947"/><path d="m202.27 339.92 24.16-3.72" stroke="#231f20" stroke-width="6.9947"/><path d="m202.16 321.67 24.16 3.71" stroke="#231f20" stroke-width="6.9947"/><path d="m297.37 286.45-20.48 21.14" stroke="#231f20" stroke-linecap="round" stroke-linejoin="round" stroke-width="6.9947"/><path d="m300.84 295.9-19.47 14.76" stroke="#231f20" stroke-width="6.9947"/><path d="m287.81 283.12-14.14 19.94" stroke="#231f20" stroke-width="6.9947"/><path d="m215.65 286.31 20.48 21.14" stroke="#231f20" stroke-linecap="round" stroke-linejoin="round" stroke-width="6.9947"/><path d="m212.18 295.76 19.47 14.76" stroke="#231f20" stroke-width="6.9947"/><path d="m225.21 282.98 14.14 19.94" stroke="#231f20" stroke-width="6.9947"/><path d="m297.65 373.2-20.48-21.14" stroke="#231f20" stroke-linecap="round" stroke-linejoin="round" stroke-width="6.9947"/><path d="m301.13 363.75-19.48-14.76" stroke="#231f20" stroke-width="6.9947"/><path d="m288.09 376.53-14.13-19.94" stroke="#231f20" stroke-width="6.9947"/><path d="m215.94 373.35 20.48-21.15" stroke="#231f20" stroke-linecap="round" stroke-linejoin="round" stroke-width="6.9947"/><path d="m212.47 363.9 19.47-14.77" stroke="#231f20" stroke-width="6.9947"/><path d="m225.5 376.67 14.14-19.94" stroke="#231f20" stroke-width="6.9947"/><path d="m256.69 389.19v-29.44" stroke="#231f20" stroke-linecap="round" stroke-linejoin="round" stroke-width="6.9947"/><path d="m265.76 384.82-3.72-24.16" stroke="#231f20" stroke-width="6.9947"/><path d="m247.51 384.92 3.71-24.15" stroke="#231f20" stroke-width="6.9947"/><path d="m0 0h850.394v850.394h-850.394z"/></g></svg>