<svg enable-background="new 0 0 850.394 850.394" height="850.394" viewBox="0 0 850.394 850.394" width="850.394" xmlns="http://www.w3.org/2000/svg"><path d="m744.65 143.46v375.66h-190.65v-1.12-374.54z" fill="#ed1e29"/><path d="m506.56 326.12v-34.18h2.881s19.529-17.23 6.609-27.28c-12.14-9.44-16.79-9.05-16.66-4.6.29 10.06-3.739 11.49-3.739 11.49v1.15h-20.67v-1.72s-1.15-6.32 3.449-14.07c4.59-7.76-3.729-17.24-12.069-13.5-4.591 2.06-7.351 3.59-10.061 3.98l-2.01-.29c-2.7-.39-5.46-1.92-10.06-3.98-8.33-3.74-16.65 5.74-12.061 13.5 4.59 7.75 3.44 14.07 3.44 14.07v1.97h-20.67v-1.4s-4.02-1.43-3.74-11.49c.13-4.45-4.52-4.84-16.65 4.6-11.36 8.83 2.34 23.21 5.83 26.56v35.19 32.13s-1.73 19.24 16.07 21.54c17.81 2.3 26.71-3.45 37.05 6.32l1.93.32c.7-.67 1.391-1.26 2.07-1.79 9.26-7.26 16.38-2.68 32.98-4.81 17.8-2.3 16.079-21.55 16.079-21.55v-32.16zm47.44 191.88v1.12h-202v-375.66h202z" fill="#fbed24"/><path d="m516.05 264.66c12.92 10.05-6.609 27.28-6.609 27.28h-2.881v-19.24h-10.91v-1.15s4.029-1.43 3.739-11.49c-.129-4.45 4.521-4.84 16.661 4.6z" fill="#f6cc4b"/><path d="m506.56 358.28s1.721 19.25-16.079 21.55c-16.601 2.13-23.721-2.45-32.98 4.81l-3.21-3.66v-54.86h52.27v32.16z" fill="#ed1e29"/><path d="m506.56 291.94v34.18h-52.27v-50.84-2.58h20.69 20.67 10.91z" fill="#fbed24"/><path d="m453.43 272.66h-17.82v-1.97s1.149-6.32-3.44-14.07c-4.59-7.76 3.73-17.24 12.061-13.5 4.6 2.06 7.359 3.59 10.06 3.98l2.01.29c2.71-.39 5.47-1.92 10.061-3.98 8.34-3.74 16.659 5.74 12.069 13.5-4.6 7.75-3.449 14.07-3.449 14.07v1.72h-20.69-.86v-.04z" fill="#f6cc4b"/><path d="m454.29 380.98 3.21 3.66c-.68.53-1.37 1.12-2.07 1.79l-1.93-.32c-10.34-9.77-19.24-4.02-37.05-6.32-17.8-2.3-16.07-21.54-16.07-21.54v-32.13h1.63 52.28z" fill="#fbed24"/><path d="m400.38 290.93v-18.27h14.56 20.67 17.82v.04h.86v2.58 50.84h-52.28-1.63z" fill="#ed1e29"/><path d="m414.94 271.26v1.4h-14.56v18.27c-3.49-3.35-17.19-17.73-5.83-26.56 12.13-9.44 16.78-9.05 16.65-4.6-.28 10.06 3.74 11.49 3.74 11.49z" fill="#f6cc4b"/><path d="m352 143.46v375.66h-180.61-5.89v-375.66h2.44z" fill="#394ea1"/><path d="m165.5 117.82c-5.9 2.78-12.92 4.38-20.46 4.38-6.94 0-13.45-1.36-19.04-3.75-11.24-4.77-18.79-13.65-18.79-23.82 0-15.23 16.94-27.57 37.83-27.57 20.9 0 37.84 12.34 37.84 27.57 0 9.74-6.92 18.29-17.38 23.19z" fill="#c8c8c8"/><path d="m165.5 519.12v262.3l-39.06-2.939-.44-660.031c5.59 2.39 12.1 3.75 19.04 3.75 7.54 0 14.56-1.6 20.46-4.38v25.64z" fill="#c8c8c8"/><g fill="none"><path d="m167.94 143.46h184.06 202 190.65v375.66h-190.65-202-180.61" stroke="#231f20" stroke-width="21"/><path d="m126 118.45c-11.24-4.77-18.79-13.65-18.79-23.82 0-15.23 16.94-27.57 37.83-27.57 20.9 0 37.84 12.34 37.84 27.57 0 9.74-6.92 18.29-17.38 23.19-5.9 2.78-12.92 4.38-20.46 4.38-6.94 0-13.45-1.36-19.04-3.75z" stroke="#231f20" stroke-width="21"/><path d="m126 118v.45l.44 660.03v2.94" stroke="#231f20" stroke-width="21"/><path d="m165.5 116.02v1.8 25.64 375.66 262.3" stroke="#231f20" stroke-width="21"/><path d="m554 140v3.46 374.54" stroke="#231f20" stroke-width="14"/><path d="m352 140v3.46 375.66.88" stroke="#231f20" stroke-width="14"/><path d="m453.5 272.66h-.07-17.82-20.67-14.56v18.27 35.19 32.13s-1.73 19.24 16.07 21.54c17.81 2.3 26.71-3.45 37.05 6.32l1.93.32c.7-.67 1.391-1.26 2.07-1.79 9.26-7.26 16.38-2.68 32.98-4.81 17.8-2.3 16.079-21.55 16.079-21.55v-32.16-34.18-19.24h-10.909-20.67-20.69-.86" stroke="#231f20" stroke-width="7"/><path d="m454.29 275.28v50.84 54.86" stroke="#231f20" stroke-width="7"/><path d="m402.01 326.12h52.28 52.27.57" stroke="#231f20" stroke-width="7"/><path d="m414.94 271.26s-4.02-1.43-3.74-11.49c.13-4.45-4.52-4.84-16.65 4.6-11.36 8.83 2.34 23.21 5.83 26.56.48.47.77.72.77.72" stroke="#231f20" stroke-width="6.893"/><path d="m397.13 299.12c-.86-.28-10.62-12.92-21.83-2.3-6.59 6.25-7.75 21.83 4.31 29.87s13.2 17.16 11.2 23.55c-2.87 9.2-11.48 13.79-14.36 8.05" stroke="#231f20" stroke-linecap="round" stroke-linejoin="round" stroke-width="14"/><path d="m395.69 378.68c5.85 4.48 10.75-2.71 5.82-7.54-4.35-4.26-12.81-3.29-16.17 1.8-8.45 12.8 10.25 25.83 21.05 26.98 12.95 1.38 27.87-2.51 39.07 5.47 3.72 2.65 8.86 9.79 5.61 14.36-3.511 4.92-14.45 1.91-13.11-4.61.48-2.3 3.05-3.12 4.55-1.71" stroke="#231f20" stroke-linecap="round" stroke-linejoin="round" stroke-width="14"/><path d="m474.98 270.98s-1.15-6.32 3.449-14.07c4.59-7.76-3.729-17.24-12.069-13.5-4.591 2.06-7.351 3.59-10.061 3.98l-2.01-.29c-2.7-.39-5.46-1.92-10.06-3.98-8.33-3.74-16.65 5.74-12.061 13.5 4.59 7.75 3.44 14.07 3.44 14.07" stroke="#231f20" stroke-width="14"/><path d="m495.65 271.55s4.029-1.43 3.739-11.49c-.13-4.45 4.521-4.84 16.66 4.6 12.92 10.05-6.609 27.28-6.609 27.28" stroke="#231f20" stroke-width="6.893"/><path d="m513.46 299.41c.86-.28 10.62-12.92 21.83-2.3 6.59 6.25 7.75 21.83-4.31 29.87-12.061 8.04-13.2 17.16-11.2 23.55 2.87 9.2 11.489 13.79 14.359 8.05" stroke="#231f20" stroke-linecap="round" stroke-linejoin="round" stroke-width="14"/><path d="m514.9 378.97c-5.851 4.48-10.74-2.71-5.811-7.54 4.351-4.26 12.8-3.29 16.17 1.8 8.45 12.79-10.26 25.83-21.05 26.97-12.95 1.38-27.88-2.5-39.07 5.48-3.72 2.65-8.87 9.79-5.62 14.36 3.511 4.92 14.45 1.91 13.11-4.61-.479-2.3-3.04-3.12-4.54-1.71" stroke="#231f20" stroke-linecap="round" stroke-linejoin="round" stroke-width="14"/><path d="m0 0h850.394v850.394h-850.394z"/></g></svg>