<svg enable-background="new 0 0 850.394 850.394" height="850.394" viewBox="0 0 850.394 850.394" width="850.394" xmlns="http://www.w3.org/2000/svg"><path d="m162.61 114.42v670.96h-39.49l-1.12-670.61c5.8 2.59 12.62 4.08 19.92 4.08 7.62 0 14.73-1.63 20.69-4.43z" fill="#c8c8c8"/><path d="m748.18 448v72.17h-579.62l-.07-7.86 98.92-67.18.59.87 476 2z" fill="#0071bc"/><path d="m748.18 370v78h-4.18l-476-2-.59-.87 110.63-75.13h369.96z" fill="#fff"/><path d="m748.18 288v82h-.18-369.96l55.96-38-59.11-44h371.11z" fill="#0071bc"/><path d="m748.18 212v76h-2.18-371.11l-101.32-75.42.43-.58h474z" fill="#fff"/><path d="m748.18 177.46v34.54h-.18-474l-.43.58-97.05-72.24h571.66z" fill="#0071bc"/><path d="m378.04 370-110.63 75.13-98.92 67.18-1.58-171.53 1.06-200.44h8.55l97.05 72.24 101.32 75.42 59.11 44zm-100.82-39.92 27.22-26.53-37.62-5.46-16.82-34.09-16.82 34.09-37.62 5.46 27.22 26.53-6.43 37.47 33.65-17.69 33.65 17.69z" fill="#ed1e29"/><path d="m304.44 303.55-27.22 26.53 6.43 37.47-33.65-17.69-33.65 17.69 6.43-37.47-27.22-26.53 37.62-5.46 16.82-34.09 16.82 34.09z" fill="#fff"/><path d="m176.52 140.34h-8.55l.03-6.34z" fill="#fff"/><path d="m122 114.77c-10.99-4.89-18.33-13.72-18.33-23.8 0-15.4 17.13-27.88 38.25-27.88 21.13 0 38.26 12.48 38.26 27.88 0 9.84-7 18.49-17.57 23.45-5.96 2.8-13.07 4.43-20.69 4.43-7.3 0-14.12-1.49-19.92-4.08z" fill="#c8c8c8"/><path d="m166.91 340.78 1.58 171.53-2.49 1.69z" fill="#fff"/><path d="m167.97 140.34-1.06 200.44-1.84-200.44z" fill="#fff"/><g fill="none"><path d="m176.52 140.34h571.66v37.12 34.54 76 82 78 72.17h-579.62" stroke="#231f20" stroke-width="21"/><path d="m165.07 140.34h2.9" stroke="#231f20" stroke-width="21"/><path d="m122 114.77c-10.99-4.89-18.33-13.72-18.33-23.8 0-15.4 17.13-27.88 38.25-27.88 21.13 0 38.26 12.48 38.26 27.88 0 9.84-7 18.49-17.57 23.45-5.96 2.8-13.07 4.43-20.69 4.43-7.3 0-14.12-1.49-19.92-4.08z" stroke="#231f20" stroke-width="21"/><path d="m122 114v.77l1.12 670.61" stroke="#231f20" stroke-width="21"/><path d="m162.61 112.6v1.82 670.96" stroke="#231f20" stroke-width="21"/><path d="m744.76 179.39 3.42-1.93 2.01-1.14" stroke="#231f20" stroke-width="14"/><path d="m168 134 8.52 6.34 97.05 72.24 101.32 75.42 59.11 44-55.96 38-110.63 75.13-98.92 67.18-2.49 1.69" stroke="#231f20" stroke-width="14"/><path d="m374 288h.89 371.11" stroke="#231f20" stroke-width="14"/><path d="m274 212h474" stroke="#231f20" stroke-width="14"/><path d="m376 370h2.04 369.96" stroke="#231f20" stroke-width="14"/><path d="m268 446 476 2" stroke="#231f20" stroke-width="14"/><path d="m250 349.86-33.65 17.69 6.43-37.47-27.22-26.53 37.62-5.46 16.82-34.09 16.82 34.09 37.62 5.46-27.22 26.53 6.43 37.47z" stroke="#231f20" stroke-width="8.0137"/><path d="m0 0h850.394v850.394h-850.394z"/></g></svg>