<svg enable-background="new 0 0 850.394 850.394" height="850.394" viewBox="0 0 850.394 850.394" width="850.394" xmlns="http://www.w3.org/2000/svg"><path d="m162.61 458v327.38h-39.49l-.01-5.38-1.11-665.23c5.8 2.59 12.62 4.08 19.92 4.08 7.62 0 14.73-1.63 20.69-4.43v87.58 62 134z" fill="#c8c8c8"/><path d="m748.18 177.46v24.54h-2.18-580.36l-.57-61.66h583.11z" fill="#394ea1"/><path d="m748.18 458v62.17h-579.62l-.57-62.17h580.01z" fill="#394ea1"/><path d="m748.18 398v60h-.18-580.01l-.55-60z" fill="#fff"/><path d="m748.18 264v134h-580.74l-1.23-134h581.79z" fill="#ed1e29"/><path d="m748.18 202v62h-.18-581.79l-.57-62h580.36z" fill="#fff"/><path d="m122 114.77c-10.99-4.89-18.33-13.72-18.33-23.8 0-15.4 17.13-27.88 38.25-27.88 21.13 0 38.26 12.48 38.26 27.88 0 9.84-7 18.49-17.57 23.45-5.96 2.8-13.07 4.43-20.69 4.43-7.3 0-14.12-1.49-19.92-4.08z" fill="#c8c8c8"/><g fill="none"><path d="m165.07 140.34h583.11v37.12 24.54 62 134 60 62.17h-579.62" stroke="#231f20" stroke-width="21"/><path d="m122 114.77c-10.99-4.89-18.33-13.72-18.33-23.8 0-15.4 17.13-27.88 38.25-27.88 21.13 0 38.26 12.48 38.26 27.88 0 9.84-7 18.49-17.57 23.45-5.96 2.8-13.07 4.43-20.69 4.43-7.3 0-14.12-1.49-19.92-4.08z" stroke="#231f20" stroke-width="21"/><path d="m122 114v.77l1.11 665.23.01 5.38" stroke="#231f20" stroke-width="21"/><path d="m162.61 112.6v1.82 87.58 62 134 60 327.38" stroke="#231f20" stroke-width="21"/><path d="m744.76 179.39 3.42-1.93 2.01-1.14" stroke="#231f20" stroke-width="14"/><path d="m162 264h.61 3.6 581.79" stroke="#231f20" stroke-width="14"/><path d="m162 398h.61 4.83 580.74 1.82" stroke="#231f20" stroke-width="14"/><path d="m160 202h2.61 3.03 580.36" stroke="#231f20" stroke-width="14"/><path d="m162 458h.61 5.38 580.01" stroke="#231f20" stroke-width="14"/><path d="m0 0h850.394v850.394h-850.394z"/></g></svg>