<svg enable-background="new 0 0 850.394 850.394" height="850.394" viewBox="0 0 850.394 850.394" width="850.394" xmlns="http://www.w3.org/2000/svg"><path d="m748.18 340v180.17h-579.62l-1.66-180.17h251.34l6.22 7.35-4.69 41.57 34.23-17.79 34.23 17.79-4.69-41.57 6.22-7.35z" fill="#34a047"/><path d="m162.61 114.42v670.96h-39.49l-1.12-670.61c5.8 2.59 12.62 4.08 19.92 4.08 7.62 0 14.73-1.63 20.69-4.43z" fill="#c8c8c8"/><path d="m748.18 177.46v162.54h-258.42l19.63-23.22-37.13-7.91-18.26-36.68-18.26 36.68-37.13 7.91 19.63 23.22h-251.34l-1.83-199.66h583.11z" fill="#ed1e29"/><path d="m509.39 316.78-19.63 23.22h-71.52l-19.63-23.22 37.13-7.91 18.26-36.68 18.26 36.68z" fill="#fbed24"/><path d="m489.76 340-6.22 7.35 4.69 41.57-34.23-17.79-34.23 17.79 4.69-41.57-6.22-7.35z" fill="#fbed24"/><path d="m122 114.77c-10.99-4.89-18.33-13.72-18.33-23.8 0-15.4 17.13-27.88 38.25-27.88 21.13 0 38.26 12.48 38.26 27.88 0 9.84-7 18.49-17.57 23.45-5.96 2.8-13.07 4.43-20.69 4.43-7.3 0-14.12-1.49-19.92-4.08z" fill="#c8c8c8"/><g fill="none"><path d="m165.07 140.34h583.11v37.12 162.54 180.17h-579.62" stroke="#231f20" stroke-width="21"/><path d="m122 114.77c-10.99-4.89-18.33-13.72-18.33-23.8 0-15.4 17.13-27.88 38.25-27.88 21.13 0 38.26 12.48 38.26 27.88 0 9.84-7 18.49-17.57 23.45-5.96 2.8-13.07 4.43-20.69 4.43-7.3 0-14.12-1.49-19.92-4.08z" stroke="#231f20" stroke-width="21"/><path d="m122 114v.77l1.12 670.61" stroke="#231f20" stroke-width="21"/><path d="m162.61 112.6v1.82 670.96" stroke="#231f20" stroke-width="21"/><path d="m744.76 179.39 3.42-1.93 2.01-1.14" stroke="#231f20" stroke-width="14"/><path d="m489.76 340h258.42 1.82" stroke="#231f20" stroke-width="14"/><path d="m164 340h2.9 251.34" stroke="#231f20" stroke-width="14"/><path d="m489.76 340-6.22 7.35 4.69 41.57-34.23-17.79-34.23 17.79 4.69-41.57-6.22-7.35-19.63-23.22 37.13-7.91 18.26-36.68 18.26 36.68 37.13 7.91z" stroke="#231f20" stroke-width="14"/><path d="m0 0h850.394v850.394h-850.394z"/></g></svg>