<svg enable-background="new 0 0 850.394 850.394" height="850.394" viewBox="0 0 850.394 850.394" width="850.394" xmlns="http://www.w3.org/2000/svg"><path d="m162.61 114.42v670.96h-39.49l-1.12-670.61c5.8 2.59 12.62 4.08 19.92 4.08 7.62 0 14.73-1.63 20.69-4.43z" fill="#c8c8c8"/><path d="m640 140.34v1.66l-472.33 281.01-2.6-282.67z" fill="#58b947"/><path d="m748.18 230v290.17h-472.18v-2.17l472-288z" fill="#394ea1"/><path d="m748.18 197.12v32.88h-.18l-472 288v2.17h-46v-4.17z" fill="#fbed24"/><path d="m748.18 177.46v19.66l-518.18 318.88v4.17h-61.44l-.63-68.17h.07l520-308v-3.66h60.18z" fill="#231f20"/><path d="m688 140.34v3.66l-520 308h-.07l-.26-28.99 472.33-281.01v-1.66z" fill="#fbed24"/><path d="m162.61 114.42c-5.96 2.8-13.07 4.43-20.69 4.43-7.3 0-14.12-1.49-19.92-4.08-10.99-4.89-18.33-13.72-18.33-23.8 0-15.4 17.13-27.88 38.25-27.88 21.13 0 38.26 12.48 38.26 27.88 0 9.84-7 18.49-17.57 23.45z" fill="#c8c8c8"/><g fill="none"><path d="m165.07 140.34h474.93 48 60.18v37.12 19.66 32.88 290.17h-472.18-46-61.44" stroke="#231f20" stroke-width="21"/><path d="m122 114.77c-10.99-4.89-18.33-13.72-18.33-23.8 0-15.4 17.13-27.88 38.25-27.88 21.13 0 38.26 12.48 38.26 27.88 0 9.84-7 18.49-17.57 23.45-5.96 2.8-13.07 4.43-20.69 4.43-7.3 0-14.12-1.49-19.92-4.08z" stroke="#231f20" stroke-width="21"/><path d="m122 114v.77l1.12 670.61" stroke="#231f20" stroke-width="21"/><path d="m162.61 112.6v1.82 670.96" stroke="#231f20" stroke-width="21"/><path d="m744.76 179.39 3.42-1.93 2.01-1.14" stroke="#231f20" stroke-width="14"/><path d="m168 452 520-308" stroke="#231f20" stroke-width="14"/><path d="m230 516 518.18-318.88 1.82-1.12" stroke="#231f20" stroke-width="14"/><path d="m166 424 1.67-.99 472.33-281.01" stroke="#231f20" stroke-width="14"/><path d="m276 518 472-288" stroke="#231f20" stroke-width="14"/><path d="m0 0h850.394v850.394h-850.394z"/></g></svg>