<svg enable-background="new 0 0 850.394 850.394" height="850.394" viewBox="0 0 850.394 850.394" width="850.394" xmlns="http://www.w3.org/2000/svg"><path d="m752.73 373.5v148.96l-253.601.66-.01-2.44v-121.55c10.59-6.44 19.59-15.23 26.3-25.64l.021.01z" fill="#33a048"/><path d="m752.73 328v45.5h-227.29l-.021-.01c8.2-12.72 12.95-27.88 12.95-44.14 0-.42 0-.85-.021-1.27l5.652-.08h206z" fill="#fff"/><path d="m752.73 284.31v43.69h-2.73-206l-5.65.08c-.229-16.04-5.109-30.97-13.34-43.49l.431-.28z" fill="#fbee34"/><path d="m752.73 133.57v150.74h-227.29l-.431.28c-7.029-10.7-16.5-19.64-27.63-26.04l2.19-.11v-123.53-1.34z" fill="#33a048"/><path d="m499.12 399.13c-12.021 7.32-26.09 11.61-41.14 11.82-.41.02-.811.02-1.221.02-15.52 0-30.029-4.33-42.38-11.86-10.72-6.52-19.82-15.44-26.54-26.02-8.04-12.64-12.7-27.65-12.7-43.74 0-.66.01-1.31.03-1.97.37-15.86 5.28-30.62 13.47-43 6.64-10.04 15.44-18.53 25.75-24.79 12.35-7.52 26.85-11.85 42.37-11.85.63 0 1.25.01 1.88.03 14.091.31 27.29 4.2 38.74 10.78 11.13 6.4 20.601 15.34 27.63 26.04 8.23 12.52 13.11 27.45 13.34 43.49.021.42.021.85.021 1.27 0 16.26-4.75 31.42-12.95 44.14-6.71 10.41-15.71 19.2-26.3 25.64zm20.58-88.34 3.95-3.85-5.45-.78-2.431-4.94-2.439 4.94-5.45.78 3.94 3.85-.931 5.42 4.88-2.56 4.87 2.56zm-.3 38.95 3.949-3.85-5.449-.78-2.431-4.94-2.439 4.94-5.45.78 3.939 3.85-.93 5.42 4.88-2.56 4.87 2.56zm-20.81 33.89 3.95-3.84-5.45-.79-2.42-4.94-2.44 4.94-5.45.79 3.93 3.84-.92 5.43 4.88-2.56 4.86 2.56zm-2.09-104.66 3.95-3.84-5.45-.79-2.43-4.93-2.431 4.93-5.449.79 3.93 3.84-.92 5.43 4.87-2.56 4.87 2.56zm-8.75 88.51s1.34-3.57-1.78-20.96-10.93-29.88-14.05-37.68c-3.12-7.81-.45-20.96-12.04-29.66-7.03-5.27-15.61 3.34-15.61 3.34s-5.479.34-5.13 7.81c.221 4.68.221 6.69.221 6.69s5.06-10.04 8.18-5.13l.84.05c-1.76 1.22-5.939 4.85-7.52 12.44-2.83 13.53 3.12 26.01 6.39 33.74 3.26 7.73 6.38 15.91 6.38 15.91l.12 1.11c-1.93.18-3.7.77-4.13 2.31-.18.63-.311 1.26-.39 1.89l-.65-.11h-11.521c-.68 0-1.29.27-1.729.72-.45.45-.72 1.06-.72 1.74 0 1.35 1.1 2.45 2.449 2.45h11.221l1.13-.25c.28.94.75 1.62 1.399 1.89 1.79.74 11.011-.15 11.011-.15s-.04-.61-.07-1.5l.96.01h5.5v.15s8.021 20.07 11.15 21.11c3.12 1.04 2.6-3.53 2.819-7.44.301-5.2.74-14.56.74-14.56l.12-.13c2.84 2.62 4.71 4.21 4.71 4.21zm-26.62-99.81 3.94-3.84-5.45-.79-2.42-4.93-2.44 4.93-5.45.79 3.94 3.84-.93 5.43 4.88-2.56 4.859 2.56zm-1.23 125.33 3.939-3.84-5.45-.79-2.42-4.94-2.439 4.94-5.45.79 3.939 3.84-.93 5.43 4.88-2.57 4.86 2.57zm-36.54-113.43 3.95-3.84-5.45-.79-2.43-4.94-2.43 4.94-5.45.79 3.93 3.84-.92 5.42 4.87-2.56 4.87 2.56zm-1.48 100.2 3.94-3.85-5.45-.78-2.42-4.94-2.44 4.94-5.45.78 3.94 3.85-.93 5.42 4.88-2.56 4.86 2.56zm-20.81-69.58 3.94-3.84-5.45-.79-2.42-4.94-2.44 4.94-5.45.79 3.93 3.84-.92 5.43 4.88-2.56 4.86 2.56zm-.9 39.84 3.95-3.84-5.45-.79-2.43-4.93-2.44 4.93-5.45.79 3.94 3.84-.92 5.43 4.87-2.56 4.87 2.56z" fill="#ed1d31"/><path d="m523.65 306.94-3.95 3.85.94 5.42-4.87-2.56-4.88 2.56.93-5.42-3.94-3.85 5.45-.78 2.44-4.94 2.43 4.94z" fill="#33a048"/><path d="m523.35 345.89-3.95 3.85.94 5.42-4.87-2.56-4.88 2.56.93-5.42-3.94-3.85 5.45-.78 2.44-4.94 2.43 4.94z" fill="#33a048"/><path d="m502.54 379.79-3.95 3.84.94 5.43-4.86-2.56-4.88 2.56.92-5.43-3.93-3.84 5.45-.79 2.44-4.94 2.42 4.94z" fill="#33a048"/><path d="m500.45 275.13-3.95 3.84.94 5.43-4.87-2.56-4.87 2.56.92-5.43-3.93-3.84 5.45-.79 2.43-4.93 2.43 4.93z" fill="#33a048"/><path d="m499.57 134.91v123.53l-2.19.11c-11.45-6.58-24.649-10.47-38.74-10.78l.03-2.44-.67-107.33v-4.43h41.57z" fill="#fff"/><path d="m499.12 520.68.01 2.44-41.12.1-.01-5.22v-105.33l-.02-1.72c15.05-.21 29.119-4.5 41.14-11.82z" fill="#fff"/><path d="m448.38 291.94-.84-.05c-3.12-4.91-8.18 5.13-8.18 5.13s0-2.01-.221-6.69c-.35-7.47 5.13-7.81 5.13-7.81s8.58-8.61 15.61-3.34c11.59 8.7 8.92 21.85 12.04 29.66 3.12 7.8 10.93 20.29 14.05 37.68s1.78 20.96 1.78 20.96-1.87-1.59-4.71-4.21c-1.07-.97-2.26-2.09-3.55-3.33l-2.05.01c-.44-.45-1.061-.72-1.73-.72h-12.709l-1.02-.16c.109-.54.239-1 .43-1.32 1.189-2.09-4.46-2.53-4.46-2.53l-.01.04c-1.141-.13-2.71-.24-4.19-.12l-.12-1.11s-3.12-8.18-6.38-15.91c-3.27-7.73-9.22-20.21-6.39-33.74 1.58-7.59 5.76-11.22 7.52-12.44z" fill="#a9d7f3"/><path d="m483.04 363.27-.12.13s-.439 9.36-.74 14.56c-.22 3.91.301 8.48-2.819 7.44-3.13-1.04-11.15-21.11-11.15-21.11v-.15h7.5c.67 0 1.29-.28 1.73-.72.439-.44.72-1.06.72-1.73 0-.68-.28-1.29-.72-1.74l2.05-.01c1.289 1.24 2.479 2.36 3.549 3.33z" fill="#a9d7f3"/><path d="m465.07 263.83-3.94 3.84.93 5.43-4.86-2.56-4.88 2.56.93-5.43-3.94-3.84 5.45-.79 2.44-4.93 2.42 4.93z" fill="#33a048"/><path d="m463.84 389.16-3.94 3.84.93 5.43-4.86-2.57-4.88 2.57.93-5.43-3.94-3.84 5.45-.79 2.44-4.94 2.42 4.94z" fill="#33a048"/><path d="m457.94 355.26.01-.04s5.649.44 4.46 2.53c-.19.32-.32.78-.43 1.32-.28 1.51-.28 3.64-.23 5.06.03.89.07 1.5.07 1.5s-9.221.89-11.011.15c-.649-.27-1.119-.95-1.399-1.89-.38-1.2-.44-2.83-.18-4.55.079-.63.21-1.26.39-1.89.43-1.54 2.2-2.13 4.13-2.31 1.48-.12 3.05-.01 4.19.12z" fill="#fbee34"/><path d="m458 138 .67 107.33-.03 2.44c-.63-.02-1.25-.03-1.88-.03-15.52 0-30.02 4.33-42.37 11.85v-122.01-4.01h43.61z" fill="#fbee34"/><path d="m458 518 .01 5.22-44.07.12v-123.52l.44-.71c12.351 7.53 26.86 11.86 42.38 11.86.41 0 .811 0 1.221-.02l.02 1.72v105.33z" fill="#fbee34"/><path d="m427.31 275.73-3.95 3.84.94 5.42-4.87-2.56-4.87 2.56.92-5.42-3.93-3.84 5.45-.79 2.43-4.94 2.43 4.94z" fill="#33a048"/><path d="m425.82 375.92-3.94 3.85.93 5.42-4.86-2.56-4.88 2.56.93-5.42-3.94-3.85 5.45-.78 2.44-4.94 2.42 4.94z" fill="#33a048"/><path d="m414.39 137.58v122.01c-10.31 6.26-19.11 14.75-25.75 24.79l-.11-.07h-235.33v-150.74h2.52 258.67z" fill="#33a048"/><path d="m414.38 399.11-.44.71v123.52l-255.94.66h-4.8v-150.5h1.63 232.35l.66-.41c6.72 10.58 15.82 19.5 26.54 26.02z" fill="#33a048"/><path d="m405.01 306.35-3.94 3.84.93 5.43-4.86-2.56-4.88 2.56.92-5.43-3.93-3.84 5.45-.79 2.44-4.94 2.42 4.94z" fill="#33a048"/><path d="m404.12 346.19-3.95 3.84.94 5.43-4.87-2.56-4.87 2.56.92-5.43-3.94-3.84 5.45-.79 2.44-4.93 2.43 4.93z" fill="#33a048"/><path d="m388.53 284.31.11.07c-8.19 12.38-13.1 27.14-13.47 43l-3.84-.05h-214-4.13v-43.02z" fill="#fbee34"/><path d="m387.84 373.09-.66.41h-232.35-1.63v-46.17h4.13 214l3.84.05c-.02.66-.03 1.31-.03 1.97 0 16.09 4.66 31.1 12.7 43.74z" fill="#fff"/><path d="m153.2 107.04c-6.11 2.87-13.38 4.53-21.18 4.53-7.32 0-14.16-1.46-20.02-4.01-11.46-4.98-19.14-14.1-19.14-24.54 0-15.76 17.53-28.54 39.16-28.54s39.17 12.78 39.17 28.54c0 10.08-7.17 18.94-17.99 24.02z" fill="#c8c8c8"/><path d="m153.2 284.31v43.02 46.17 150.5 269.99h-40.44l-.76-686.43c5.86 2.55 12.7 4.01 20.02 4.01 7.8 0 15.07-1.66 21.18-4.53v26.53z" fill="#c8c8c8"/><g fill="none"><path d="m155.72 133.57h258.67 43.61 41.57 253.16v150.74 43.69 45.5 148.96l-253.6.66-41.12.1-44.07.12-255.94.66" stroke="#231f20" stroke-width="21"/><path d="m112 107.56c-11.46-4.98-19.14-14.1-19.14-24.54 0-15.76 17.53-28.54 39.16-28.54s39.17 12.78 39.17 28.54c0 10.08-7.17 18.94-17.99 24.02-6.11 2.87-13.38 4.53-21.18 4.53-7.32 0-14.16-1.46-20.02-4.01z" stroke="#231f20" stroke-width="21"/><path d="m112 106v1.56l.76 686.43" stroke="#231f20" stroke-width="21"/><path d="m153.2 105.17v1.87 26.53 150.74 43.02 46.17 150.5 269.99" stroke="#231f20" stroke-width="21"/><path d="m538.35 328.08c.021.42.021.85.021 1.27 0 16.26-4.75 31.42-12.95 44.14-6.71 10.41-15.71 19.2-26.3 25.64-12.021 7.32-26.09 11.61-41.14 11.82-.41.02-.811.02-1.221.02-15.52 0-30.029-4.33-42.38-11.86-10.72-6.52-19.82-15.44-26.54-26.02-8.04-12.64-12.7-27.65-12.7-43.74 0-.66.01-1.31.03-1.97.37-15.86 5.28-30.62 13.47-43 6.64-10.04 15.44-18.53 25.75-24.79 12.35-7.52 26.85-11.85 42.37-11.85.63 0 1.25.01 1.88.03 14.091.31 27.29 4.2 38.74 10.78 11.13 6.4 20.601 15.34 27.63 26.04 8.23 12.52 13.11 27.45 13.34 43.49z" stroke="#231f20" stroke-width="18"/><path d="m457.2 258.11 2.42 4.93 5.45.79-3.94 3.84.93 5.43-4.86-2.56-4.88 2.56.93-5.43-3.94-3.84 5.45-.79z" stroke="#231f20" stroke-width="3.5678"/><path d="m492.57 269.41 2.43 4.93 5.45.79-3.95 3.84.94 5.43-4.87-2.56-4.87 2.56.92-5.43-3.93-3.84 5.45-.79z" stroke="#231f20" stroke-width="3.5678"/><path d="m419.43 270 2.43 4.94 5.45.79-3.95 3.84.94 5.42-4.87-2.56-4.87 2.56.92-5.42-3.93-3.84 5.45-.79z" stroke="#231f20" stroke-width="3.5678"/><path d="m397.14 300.62 2.42 4.94 5.45.79-3.94 3.84.93 5.43-4.86-2.56-4.88 2.56.92-5.43-3.93-3.84 5.45-.79z" stroke="#231f20" stroke-width="3.5678"/><path d="m396.24 340.47 2.43 4.93 5.45.79-3.95 3.84.94 5.43-4.87-2.56-4.87 2.56.92-5.43-3.94-3.84 5.45-.79z" stroke="#231f20" stroke-width="3.5678"/><path d="m417.95 370.2 2.42 4.94 5.45.78-3.94 3.85.93 5.42-4.86-2.56-4.88 2.56.93-5.42-3.94-3.85 5.45-.78z" stroke="#231f20" stroke-width="3.5678"/><path d="m515.77 301.22 2.43 4.94 5.45.78-3.95 3.85.94 5.42-4.87-2.56-4.88 2.56.93-5.42-3.94-3.85 5.45-.78z" stroke="#231f20" stroke-width="3.5678"/><path d="m515.47 340.17 2.43 4.94 5.45.78-3.95 3.85.94 5.42-4.87-2.56-4.88 2.56.93-5.42-3.94-3.85 5.45-.78z" stroke="#231f20" stroke-width="3.5678"/><path d="m494.67 374.06 2.42 4.94 5.45.79-3.95 3.84.94 5.43-4.86-2.56-4.88 2.56.92-5.43-3.93-3.84 5.45-.79z" stroke="#231f20" stroke-width="3.5678"/><path d="m455.97 383.43 2.42 4.94 5.45.79-3.94 3.84.93 5.43-4.86-2.57-4.88 2.57.93-5.43-3.94-3.84 5.45-.79z" stroke="#231f20" stroke-width="3.5678"/><path d="m451.26 309.28c-.67 11.15.971 16.8 10.11 30.18 5 7.32 12.42 15.01 18.12 20.48 1.29 1.24 2.479 2.36 3.55 3.33 2.84 2.62 4.71 4.21 4.71 4.21s1.34-3.57-1.78-20.96-10.93-29.88-14.05-37.68c-3.12-7.81-.45-20.96-12.04-29.66-7.03-5.27-15.61 3.34-15.61 3.34s-5.479.34-5.13 7.81c.221 4.68.221 6.69.221 6.69s5.06-10.04 8.18-5.13" stroke="#231f20" stroke-width="7.1356"/><path d="m449.17 291.44s-.3.16-.79.5c-1.76 1.22-5.939 4.85-7.52 12.44-2.83 13.53 3.12 26.01 6.39 33.74 3.26 7.73 6.38 15.91 6.38 15.91" stroke="#231f20" stroke-width="7.1356"/><path d="m468.21 364.29s8.021 20.07 11.15 21.11c3.12 1.04 2.6-3.53 2.819-7.44.301-5.2.74-14.56.74-14.56" stroke="#231f20" stroke-width="7.1356"/><path d="m448.28 364.14h-11.22c-1.35 0-2.449-1.1-2.449-2.45 0-.68.27-1.29.72-1.74.439-.45 1.05-.72 1.729-.72h11.521" stroke="#231f20" stroke-width="7.1356"/><path d="m463 359.23h12.71c.67 0 1.29.27 1.73.72.439.45.72 1.06.72 1.74 0 .67-.28 1.29-.72 1.73s-1.061.72-1.73.72h-7.5-5.5" stroke="#231f20" stroke-width="7.1356"/><path d="m459.59 355.52s-.66-.13-1.649-.25v-.01c-1.141-.13-2.71-.24-4.19-.12-1.93.18-3.7.77-4.13 2.31-.18.63-.311 1.26-.39 1.89-.261 1.72-.2 3.35.18 4.55.28.94.75 1.62 1.399 1.89 1.79.74 11.011-.15 11.011-.15s-.04-.61-.07-1.5c-.05-1.42-.05-3.55.23-5.06.109-.54.239-1 .43-1.32 1.189-2.09-4.46-2.53-4.46-2.53" stroke="#231f20" stroke-width="7.1356"/><path d="m544 328h206" stroke="#231f20" stroke-width="28"/><path d="m157.33 327.33h214" stroke="#231f20" stroke-width="28"/><path d="m458 412.67v105.33" stroke="#231f20" stroke-width="28"/><path d="m458 138 .67 107.33" stroke="#231f20" stroke-width="28"/><path d="m414.39 137.58v122.01 1.53" stroke="#231f20" stroke-width="1.7839"/><path d="m499.57 134.91v123.53" stroke="#231f20" stroke-width="1.7839"/><path d="m413.94 399.82v123.52.01" stroke="#231f20" stroke-width="1.7839"/><path d="m499.12 397.14v1.99 121.55" stroke="#231f20" stroke-width="1.7839"/><path d="m525.44 284.31h227.29 7.29" stroke="#231f20" stroke-width="1.7839"/><path d="m152.6 284.31h.6 235.33" stroke="#231f20" stroke-width="1.7839"/><path d="m525.44 373.5h227.29 5.95" stroke="#231f20" stroke-width="1.7839"/><path d="m154.83 373.5h232.35" stroke="#231f20" stroke-width="1.7839"/><path d="m0 0h850.394v850.394h-850.394z"/></g></svg>