<svg enable-background="new 0 0 850.394 850.394" height="850.394" viewBox="0 0 850.394 850.394" width="850.394" xmlns="http://www.w3.org/2000/svg"><path d="m162.61 114.42v670.96h-39.49l-1.12-670.61c5.8 2.59 12.62 4.08 19.92 4.08 7.62 0 14.73-1.63 20.69-4.43z" fill="#c8c8c8"/><path d="m748.18 177.46v342.71h-579.62l-1.75-190.97h264.39v-188.86h316.98z" fill="#ed1e29"/><path d="m369.49 269.84c-7.42 1.35-19.08-6.09-30.24-6.04.22-6.85 6.73-7.39 6.05-15.12 10.45 4.67 15 15.23 24.19 21.16z" fill="#fff"/><path d="m366.47 198.78c3.65 5.44-14.31 14.72-18.14 22.68-5.5-2.56-4.45-11.69-10.59-13.61 7.7-4.9 20.5-4.7 28.73-9.07z" fill="#fff"/><path d="m378.57 233.56c-7.21 5.9-20.01 6.2-30.24 9.07 0-5.55 0-11.09 0-16.63 9.87 2.72 19.17 6.02 30.24 7.56z" fill="#fff"/><path d="m340.76 173.07c3.71 8.78-4.91 18.25-4.53 28.73-4.6 2.73-8.85-5.65-15.12-6.05 4.17-9.93 14.23-13.99 19.65-22.68z" fill="#fff"/><path d="m333.2 266.82c5.93 6.67 6.76 18.44 9.08 28.73-7.46-7.16-16.23-13-21.17-22.68 6.25.21 8.66-3.44 12.09-6.05z" fill="#fff"/><path d="m298.43 200.29c54.78-11.85 55.82 67.76 12.09 71.07-43.69 3.3-54.93-61.81-12.09-71.07z" fill="#fff"/><path d="m298.43 277.41c2.59-3.47 11.54-.56 16.63-1.52-1.78 10.82-4.84 20.36-7.56 30.24-4.52-8.07-4.84-20.36-9.07-28.72z" fill="#fff"/><path d="m298.43 194.24c2.72-9.88 5.77-19.42 7.56-30.24 5.46 7.65 7.06 19.15 9.07 30.24-4.56-2.04-12.07-2.04-16.63 0z" fill="#fff"/><path d="m293.89 274.38c-6.16 8.46-15.01 14.23-21.17 22.68-2.08-8.16 4.95-20.23 6.05-30.24 5.77 1.79 9.58 5.54 15.12 7.56z" fill="#fff"/><path d="m293.89 194.24c-3.72 3.84-10.37 4.75-13.61 9.07-4.53-8.57-6.13-20.08-9.07-30.24 8.45 6.16 14.23 15.01 22.68 21.17z" fill="#fff"/><path d="m265.16 248.68c6.19 1.37 5.08 10.04 10.59 12.09-7.43 5.68-19.09 7.13-30.24 9.07 5.65-7.94 13.99-13.21 19.65-21.16z" fill="#fff"/><path d="m275.75 206.34c-2.1 5.46-6.65 8.47-7.56 15.12-8.46-6.16-14.23-15.01-22.68-21.17 8.18-2.11 19.68 5.49 30.24 6.05z" fill="#fff"/><path d="m266.67 242.63c-4.74-4.39 3.04-16.42-3.02-16.63-7.03 5.06-20.18 4-27.22 9.07 10.01 2.59 18.77 6.44 30.24 7.56zm9.08 18.14c-5.51-2.05-4.4-10.72-10.59-12.09-5.66 7.95-14 13.22-19.65 21.16 11.15-1.94 22.81-3.39 30.24-9.07zm-7.56-39.31c.91-6.65 5.46-9.66 7.56-15.12-10.56-.56-22.06-8.16-30.24-6.05 8.45 6.16 14.22 15.01 22.68 21.17zm12.09-18.15c3.24-4.32 9.89-5.23 13.61-9.07-8.45-6.16-14.23-15.01-22.68-21.17 2.94 10.16 4.54 21.67 9.07 30.24zm-7.56 93.75c6.16-8.45 15.01-14.22 21.17-22.68-5.54-2.02-9.35-5.77-15.12-7.56-1.1 10.01-8.13 22.08-6.05 30.24zm25.71-102.82c4.56-2.04 12.07-2.04 16.63 0-2.01-11.09-3.61-22.59-9.07-30.24-1.79 10.82-4.84 20.36-7.56 30.24zm16.63 81.65c-5.09.96-14.04-1.95-16.63 1.52 4.23 8.36 4.55 20.65 9.07 28.72 2.72-9.88 5.78-19.42 7.56-30.24zm6.05-80.14c6.27.4 10.52 8.78 15.12 6.05-.38-10.48 8.24-19.95 4.53-28.73-5.42 8.69-15.48 12.75-19.65 22.68zm12.09 71.07c-3.43 2.61-5.84 6.26-12.09 6.05 4.94 9.68 13.71 15.52 21.17 22.68-2.32-10.29-3.15-22.06-9.08-28.73zm-22.68 4.54c43.73-3.31 42.69-82.92-12.09-71.07-42.84 9.26-31.6 74.37 12.09 71.07zm37.81-49.9c3.83-7.96 21.79-17.24 18.14-22.68-8.23 4.37-21.03 4.17-28.73 9.07 6.14 1.92 5.09 11.05 10.59 13.61zm0 4.54v16.63c10.23-2.87 23.03-3.17 30.24-9.07-11.07-1.54-20.37-4.84-30.24-7.56zm82.87-85.66v188.86h-264.39l-1.74-188.86zm-91.95 123.46c11.16-.05 22.82 7.39 30.24 6.04-9.19-5.93-13.74-16.49-24.19-21.16.68 7.73-5.83 8.27-6.05 15.12z" fill="#394ea1"/><path d="m263.65 226c6.06.21-1.72 12.24 3.02 16.63-11.47-1.12-20.23-4.97-30.24-7.56 7.04-5.07 20.19-4.01 27.22-9.07z" fill="#fff"/><path d="m162.61 114.42c-5.96 2.8-13.07 4.43-20.69 4.43-7.3 0-14.12-1.49-19.92-4.08-10.99-4.89-18.33-13.72-18.33-23.8 0-15.4 17.13-27.88 38.25-27.88 21.13 0 38.26 12.48 38.26 27.88 0 9.84-7 18.49-17.57 23.45z" fill="#c8c8c8"/><g fill="none"><path d="m165.07 140.34h266.13 316.98v37.12 342.71h-579.62" stroke="#231f20" stroke-width="21"/><path d="m122 114.77c-10.99-4.89-18.33-13.72-18.33-23.8 0-15.4 17.13-27.88 38.25-27.88 21.13 0 38.26 12.48 38.26 27.88 0 9.84-7 18.49-17.57 23.45-5.96 2.8-13.07 4.43-20.69 4.43-7.3 0-14.12-1.49-19.92-4.08z" stroke="#231f20" stroke-width="21"/><path d="m122 114v.77l1.12 670.61" stroke="#231f20" stroke-width="21"/><path d="m162.61 112.6v1.82 670.96" stroke="#231f20" stroke-width="21"/><path d="m744.76 179.39 3.42-1.93 2.01-1.14" stroke="#231f20" stroke-width="14"/><path d="m431.2 136v4.34 188.86h-264.39-2.81" stroke="#231f20" stroke-width="14"/><path d="m305.99 164c5.46 7.65 7.06 19.15 9.07 30.24-4.56-2.04-12.07-2.04-16.63 0 2.72-9.88 5.77-19.42 7.56-30.24z" stroke="#231f20" stroke-width="5"/><path d="m271.21 173.07c8.45 6.16 14.23 15.01 22.68 21.17-3.72 3.84-10.37 4.75-13.61 9.07-4.53-8.57-6.13-20.08-9.07-30.24z" stroke="#231f20" stroke-width="5"/><path d="m336.23 201.8c-4.6 2.73-8.85-5.65-15.12-6.05 4.17-9.93 14.23-13.99 19.65-22.68 3.71 8.78-4.91 18.25-4.53 28.73z" stroke="#231f20" stroke-width="5"/><path d="m268.19 221.46c-8.46-6.16-14.23-15.01-22.68-21.17 8.18-2.11 19.68 5.49 30.24 6.05-2.1 5.46-6.65 8.47-7.56 15.12z" stroke="#231f20" stroke-width="5"/><path d="m298.43 200.29c54.78-11.85 55.82 67.76 12.09 71.07-43.69 3.3-54.93-61.81-12.09-71.07z" stroke="#231f20" stroke-width="5"/><path d="m348.33 221.46c-5.5-2.56-4.45-11.69-10.59-13.61 7.7-4.9 20.5-4.7 28.73-9.07 3.65 5.44-14.31 14.72-18.14 22.68z" stroke="#231f20" stroke-width="5"/><path d="m263.65 226c6.06.21-1.72 12.24 3.02 16.63-11.47-1.12-20.23-4.97-30.24-7.56 7.04-5.07 20.19-4.01 27.22-9.07z" stroke="#231f20" stroke-width="5"/><path d="m348.33 226c9.87 2.72 19.17 6.02 30.24 7.56-7.21 5.9-20.01 6.2-30.24 9.07 0-5.55 0-11.09 0-16.63z" stroke="#231f20" stroke-width="5"/><path d="m265.16 248.68c6.19 1.37 5.08 10.04 10.59 12.09-7.43 5.68-19.09 7.13-30.24 9.07 5.65-7.94 13.99-13.21 19.65-21.16z" stroke="#231f20" stroke-width="5"/><path d="m293.89 274.38c-6.16 8.46-15.01 14.23-21.17 22.68-2.08-8.16 4.95-20.23 6.05-30.24 5.77 1.79 9.58 5.54 15.12 7.56z" stroke="#231f20" stroke-width="5"/><path d="m333.2 266.82c5.93 6.67 6.76 18.44 9.08 28.73-7.46-7.16-16.23-13-21.17-22.68 6.25.21 8.66-3.44 12.09-6.05z" stroke="#231f20" stroke-width="5"/><path d="m298.43 277.41c2.59-3.47 11.54-.56 16.63-1.52-1.78 10.82-4.84 20.36-7.56 30.24-4.52-8.07-4.84-20.36-9.07-28.72z" stroke="#231f20" stroke-width="5"/><path d="m339.25 263.8c.22-6.85 6.73-7.39 6.05-15.12 10.45 4.67 15 15.23 24.19 21.16-7.42 1.35-19.08-6.09-30.24-6.04z" stroke="#231f20" stroke-width="5"/><path clip-rule="evenodd" d="m0 0h850.394v850.394h-850.394z"/></g></svg>