<svg enable-background="new 0 0 850.394 850.394" height="850.394" viewBox="0 0 850.394 850.394" width="850.394" xmlns="http://www.w3.org/2000/svg"><path d="m162.61 412.25v373.13h-39.49l-1.12-670.61c5.8 2.59 12.62 4.08 19.92 4.08 7.62 0 14.73-1.63 20.69-4.43v151.04 32 80.54z" fill="#c8c8c8"/><path d="m436 295.46v-155.12h34v117.12h278 .18v38.54z" fill="#fff"/><path d="m748.18 296v84h-4.18-306v140 .17h-98.54v-2.17-140h-172.21l-.74-80.54h168.95v-157.12h100.54v155.12z" fill="#394ea1"/><path d="m303.46 140.34v125.12h-137.24l-1.15-125.12z" fill="#ed1e29"/><path d="m748.18 416.7v103.47h-274.3v-2.17-101.3h274.12z" fill="#ed1e29"/><path d="m748.18 380v36.7h-.18-274.12v101.3 2.17h-35.88v-.17-140h306z" fill="#fff"/><path d="m748.18 140.34v117.12h-.18-278v-117.12z" fill="#ed1e29"/><path d="m339.46 518v2.17h-33.83v-2.17-105.75h-138.06l-.32-34.25h172.21z" fill="#fff"/><path d="m335.46 140.34v157.12h-168.95l-.29-32h137.24v-125.12z" fill="#fff"/><path d="m305.63 518v2.17h-137.07l-.99-107.92h138.06z" fill="#ed1e29"/><path d="m122 114.77c-10.99-4.89-18.33-13.72-18.33-23.8 0-15.4 17.13-27.88 38.25-27.88 21.13 0 38.26 12.48 38.26 27.88 0 9.84-7 18.49-17.57 23.45-5.96 2.8-13.07 4.43-20.69 4.43-7.3 0-14.12-1.49-19.92-4.08z" fill="#c8c8c8"/><g fill="none"><path d="m165.07 140.34h138.39 32 100.54 34 278.18v117.12 38.54 84 36.7 103.47h-274.3-35.88-98.54-33.83-137.07" stroke="#231f20" stroke-width="21"/><path d="m122 114.77c-10.99-4.89-18.33-13.72-18.33-23.8 0-15.4 17.13-27.88 38.25-27.88 21.13 0 38.26 12.48 38.26 27.88 0 9.84-7 18.49-17.57 23.45-5.96 2.8-13.07 4.43-20.69 4.43-7.3 0-14.12-1.49-19.92-4.08z" stroke="#231f20" stroke-width="21"/><path d="m122 114v.77l1.12 670.61" stroke="#231f20" stroke-width="21"/><path d="m162.61 112.6v1.82 151.04 32 80.54 34.25 373.13" stroke="#231f20" stroke-width="21"/><path d="m335.46 138v2.34 157.12h-168.95-3.9-2.61" stroke="#231f20" stroke-width="14"/><path d="m162 378h.61 4.64 172.21v140" stroke="#231f20" stroke-width="14"/><path d="m750 296h-1.82l-312.18-.54v-155.12-2.34" stroke="#231f20" stroke-width="14"/><path d="m438 520v-140h306" stroke="#231f20" stroke-width="14"/><path d="m303.46 136v4.34 125.12h-137.24-3.61-2.61" stroke="#231f20" stroke-width="14"/><path d="m162 412.25h.61 4.96 138.06v105.75" stroke="#231f20" stroke-width="14"/><path d="m748 257.46h-278v-117.12-4.34" stroke="#231f20" stroke-width="14"/><path d="m473.88 518v-101.3h274.12" stroke="#231f20" stroke-width="14"/><path d="m0 0h850.394v850.394h-850.394z"/></g></svg>