<svg enable-background="new 0 0 850.394 850.394" height="850.394" viewBox="0 0 850.394 850.394" width="850.394" xmlns="http://www.w3.org/2000/svg"><path d="m746.81 389.51v130.63h-579.4-5.95v-130.63h4.79z" fill="#a8d7f4"/><path d="m474.23 332.76c-.03-2.59-.58-5.06-1.551-7.31-2.939-6.88-9.779-11.71-17.739-11.71-2.631 0-5.131.52-7.41 1.47-2.271.95-4.32 2.31-6.061 4.01-1.85 1.79-3.33 3.96-4.34 6.37-.97 2.3-1.5 4.82-1.5 7.46 0 2.37.43 4.63 1.21 6.73.96 2.6 2.47 4.93 4.38 6.86 1.84 1.85 4.05 3.33 6.511 4.31 2.18.89 4.56 1.38 7.06 1.4h.15c2.699 0 5.26-.55 7.6-1.55 2.43-1.05 4.61-2.58 6.41-4.48 1.859-1.96 3.31-4.31 4.21-6.91.7-1.99 1.08-4.13 1.08-6.36 0-.1 0-.19-.01-.29zm272.58-56.46v113.21h-580.56-4.79v-113.21h1.89z" fill="#fff"/><path d="m746.81 140.44v135.86h-583.46-1.89v-135.86h2.46z" fill="#a8d7f4"/><path d="m472.68 325.45c.971 2.25 1.521 4.72 1.551 7.31.01.1.01.19.01.29 0 2.23-.38 4.37-1.08 6.36-.9 2.6-2.351 4.95-4.21 6.91-1.8 1.9-3.98 3.43-6.41 4.48-2.34 1-4.9 1.55-7.6 1.55-.051 0-.101 0-.15 0-2.5-.02-4.88-.51-7.06-1.4-2.461-.98-4.671-2.46-6.511-4.31-1.91-1.93-3.42-4.26-4.38-6.86-.78-2.1-1.21-4.36-1.21-6.73 0-2.64.53-5.16 1.5-7.46 1.01-2.41 2.49-4.58 4.34-6.37 1.74-1.7 3.79-3.06 6.061-4.01 2.279-.95 4.779-1.47 7.41-1.47 7.959 0 14.799 4.83 17.739 11.71z" fill="#fbed24"/><path d="m161.46 114.54c-5.96 2.81-13.05 4.43-20.67 4.43-6.6 0-12.81-1.22-18.23-3.36-11.92-4.72-20.01-13.93-20.01-24.51 0-15.39 17.12-27.87 38.24-27.87s38.23 12.48 38.23 27.87c0 9.84-6.99 18.49-17.56 23.44z" fill="#c8c8c8"/><path d="m161.46 520.14v265.1h-39.48l-1.98-665.24 2.56-4.39c5.42 2.14 11.63 3.36 18.23 3.36 7.62 0 14.71-1.62 20.67-4.43v25.9 135.86 113.21z" fill="#c8c8c8"/><g fill="none"><path d="m163.92 140.44h582.89v135.86 113.21 130.63h-579.4" stroke="#231f20" stroke-width="21"/><path d="m122.56 115.61c-11.92-4.72-20.01-13.93-20.01-24.51 0-15.39 17.12-27.87 38.24-27.87s38.23 12.48 38.23 27.87c0 9.84-6.99 18.49-17.56 23.44-5.96 2.81-13.05 4.43-20.67 4.43-6.6 0-12.81-1.22-18.23-3.36z" stroke="#231f20" stroke-width="21"/><path d="m120 120 1.98 665.24" stroke="#231f20" stroke-width="21"/><path d="m161.46 112.72v1.82 25.9 135.86 113.21 130.63 265.1" stroke="#231f20" stroke-width="21"/><path d="m163.35 276.3h583.46" stroke="#231f20" stroke-width="14"/><path d="m166.25 389.51h580.56 2.91" stroke="#231f20" stroke-width="14"/><path d="m474.23 332.76c.01.1.01.19.01.29 0 2.23-.38 4.37-1.08 6.36-.9 2.6-2.351 4.95-4.21 6.91-1.8 1.9-3.98 3.43-6.41 4.48-2.34 1-4.9 1.55-7.6 1.55-.051 0-.101 0-.15 0-2.5-.02-4.88-.51-7.06-1.4-2.461-.98-4.671-2.46-6.511-4.31-1.91-1.93-3.42-4.26-4.38-6.86-.78-2.1-1.21-4.36-1.21-6.73 0-2.64.53-5.16 1.5-7.46 1.01-2.41 2.49-4.58 4.34-6.37 1.74-1.7 3.79-3.06 6.061-4.01 2.279-.95 4.779-1.47 7.41-1.47 7.96 0 14.8 4.83 17.739 11.71.971 2.25 1.521 4.72 1.551 7.31z" stroke="#231f20" stroke-width="13.9337"/><path d="m454.64 289.8v23.8" stroke="#231f20" stroke-linecap="round" stroke-linejoin="round" stroke-width="6.9668"/><path d="m437.91 293.58 9.62 21.63.05.11" stroke="#231f20" stroke-linecap="round" stroke-linejoin="round" stroke-width="6.9668"/><path d="m423.73 303.29 17.74 15.93.25.22" stroke="#231f20" stroke-linecap="round" stroke-linejoin="round" stroke-width="6.9668"/><path d="m415.31 317.08 21.82 8.51.6.23" stroke="#231f20" stroke-linecap="round" stroke-linejoin="round" stroke-width="6.9668"/><path d="m438.63 371.39 9.1-20.44.58-1.3" stroke="#231f20" stroke-linecap="round" stroke-linejoin="round" stroke-width="6.9668"/><path d="m424.46 361.68 16.76-15.04 1.24-1.11" stroke="#231f20" stroke-linecap="round" stroke-linejoin="round" stroke-width="6.9668"/><path d="m416.05 347.89 20.79-8.11 1.62-.63" stroke="#231f20" stroke-linecap="round" stroke-linejoin="round" stroke-width="6.9668"/><path d="m454.79 351.77v.58 23.23" stroke="#231f20" stroke-linecap="round" stroke-linejoin="round" stroke-width="6.9668"/><path d="m436.64 333.05h-1.01-22.79" stroke="#231f20" stroke-linecap="round" stroke-linejoin="round" stroke-width="6.9668"/><path d="m472.29 293.29-9.67 21.74" stroke="#231f20" stroke-linecap="round" stroke-linejoin="round" stroke-width="6.9668"/><path d="m486.47 303.01-17.99 16.14" stroke="#231f20" stroke-linecap="round" stroke-linejoin="round" stroke-width="6.9668"/><path d="m494.88 316.79-22.2 8.66-.21.08" stroke="#231f20" stroke-linecap="round" stroke-linejoin="round" stroke-width="6.9668"/><path d="m471.57 371.11-9.03-20.31-.64-1.44" stroke="#231f20" stroke-linecap="round" stroke-linejoin="round" stroke-width="6.9668"/><path d="m485.74 361.39-16.79-15.07-1.2-1.08" stroke="#231f20" stroke-linecap="round" stroke-linejoin="round" stroke-width="6.9668"/><path d="m494.16 347.6-21-8.19-1.41-.55" stroke="#231f20" stroke-linecap="round" stroke-linejoin="round" stroke-width="6.9668"/><path d="m473.56 332.76h.67 23.13" stroke="#231f20" stroke-linecap="round" stroke-linejoin="round" stroke-width="6.9668"/><path d="m0 0h850.394v850.394h-850.394z"/></g></svg>