<svg enable-background="new 0 0 850.89 850.89" height="850.89" viewBox="0 0 850.89 850.89" width="850.89" xmlns="http://www.w3.org/2000/svg"><path d="m170.26 321.75 187.46-.54c1.93-.01 3.48-1.56 3.49-3.49l.01-3.5.53-167.96c0-.01 0-.01 0-.02 0-1.92-1.57-3.48-3.49-3.49v-2.16h51.99v.16c-1.93 0-3.5 1.57-3.5 3.5v176.46c0 .93.37 1.82 1.03 2.48.65.65 1.55 1.02 2.47 1.02h3.5l330.5-.46c.97 0 1.84-.39 2.48-1.03.63-.63 1.02-1.51 1.02-2.47h.68v30h-2.68c0-1.93-1.57-3.5-3.5-3.5h-329.5-3.5c-.93 0-1.83.37-2.48 1.03-.66.66-1.03 1.56-1.02 2.49l1 164c.01 1.921 1.58 3.48 3.5 3.48h.02v2.67h-44.01v-4.67c1.92 0 3.48-1.57 3.49-3.49l.46-160c0-.93-.36-1.82-1.02-2.48s-1.55-1.03-2.48-1.03h-3.5-195.98l-.27-29.32c.48 1.36 1.78 2.33 3.3 2.32z" fill="#ed1e29"/><path d="m744.72 352.72c.641-.63 1.03-1.51 1.03-2.47h2.68v30h-4.18-306v140 .17h-27.98v-2.67c1.93-.01 3.49-1.59 3.48-3.52l-.98-160.48h329.48c.96 0 1.84-.39 2.47-1.03z" fill="#0071bc"/><path d="m748.43 140.59v151.66h-.18l-312 3.46v-155.12z" fill="#fff"/><path d="m748.43 380.25v140.17h-310.18v-.17-140h306z" fill="#fff"/><path d="m744.25 316.75c1.93 0 3.5 1.56 3.5 3.5 0 .96-.39 1.84-1.02 2.47-.641.64-1.511 1.03-2.48 1.03l-330.5.46v-3.5-3.5z"/><path d="m742.25 346.75c1.93 0 3.5 1.57 3.5 3.5 0 .96-.39 1.84-1.03 2.47-.63.64-1.51 1.03-2.47 1.03h-329.48l-.02-3.48v-.04-3.48z"/><path d="m413.75 317.21v3.5c0-.93-.37-1.82-1.03-2.48-.65-.65-1.55-1.02-2.47-1.02z"/><path d="m412.75 350.27.02 3.48h-3.52c.93 0 1.83-.37 2.48-1.03.65-.65 1.02-1.54 1.02-2.45z"/><path d="m748.25 292.25h.18v28h-.68c0-1.94-1.57-3.5-3.5-3.5l-330.5.46v-172.96c0-.96-.39-1.84-1.03-2.47-.63-.64-1.51-1.03-2.47-1.03v-.16h26v155.12z" fill="#0071bc"/><path d="m412.72 318.23c.66.66 1.03 1.55 1.03 2.48v3.5h-3.5c-.92 0-1.82-.37-2.47-1.02-.66-.66-1.03-1.55-1.03-2.48v-176.46c0-1.93 1.57-3.5 3.5-3.5.96 0 1.84.39 2.47 1.03.64.63 1.03 1.51 1.03 2.47v172.96h-3.5c.92 0 1.82.37 2.47 1.02z"/><path d="m412.75 350.27c0 .91-.37 1.8-1.02 2.45-.65.66-1.55 1.03-2.48 1.03h3.52l.98 160.48c.01 1.93-1.55 3.51-3.48 3.52-.01 0-.01 0-.02 0-1.92 0-3.49-1.56-3.5-3.48l-1-164c-.01-.93.36-1.83 1.02-2.49.65-.66 1.55-1.03 2.48-1.03h3.5v3.48z"/><path d="m366.71 355.75h-3.51l.01-3.51c0 .93.36 1.82 1.02 2.48s1.55 1.03 2.48 1.03z"/><path d="m366.24 515.75h.02v4.67h-26.55v-2.17-140h-172.21l-.21-22.5h195.91l-.45 156.49v.02c0 1.92 1.57 3.48 3.49 3.49z" fill="#0071bc"/><path d="m370.21 352.26-.46 160c-.01 1.92-1.57 3.49-3.49 3.49-.01 0-.01 0-.02 0-1.92-.01-3.49-1.57-3.49-3.49 0-.01 0-.01 0-.02l.45-156.49h3.51c-.93 0-1.82-.37-2.48-1.03s-1.02-1.55-1.02-2.48v-3.49h3.5c.93 0 1.82.37 2.48 1.03s1.02 1.55 1.02 2.48z"/><path d="m363.21 348.75v3.49l-.01 3.51h-195.91l-.06-7z"/><path d="m361.75 146.26-.53 167.96-3.52-.01-3.48.01.53-167.98c.01-1.93 1.58-3.5 3.51-3.49 1.92.01 3.49 1.57 3.49 3.49z"/><path d="m354.22 314.22 3.48-.01c-1.93.01-3.48 1.56-3.49 3.49z"/><path d="m335.71 140.59h22.55v2.16c-1.93-.01-3.5 1.56-3.51 3.49l-.53 167.98-183.98.53c-1.53.01-2.84 1-3.3 2.38l-.18-19.42h168.95z" fill="#0071bc"/><path d="m357.72 321.21-187.46.54c-1.52.01-2.82-.96-3.3-2.32l-.02-2.3c.46-1.38 1.77-2.37 3.3-2.38l183.98-.53-.01 3.48c.01-1.93 1.56-3.48 3.49-3.49l3.52.01-.01 3.5c-.01 1.93-1.56 3.48-3.49 3.49z"/><path d="m339.71 520.42h-170.9l-1.31-142.17h172.21v140z" fill="#fff"/><path d="m335.71 140.59v157.12h-168.95l-1.44-157.12z" fill="#fff"/><path d="m142.17 63.34c21.13 0 38.26 12.48 38.26 27.88 0 9.84-7 18.49-17.57 23.45-5.96 2.8-13.07 4.43-20.69 4.43-7.3 0-14.12-1.49-19.92-4.08-10.99-4.89-18.33-13.72-18.33-23.8 0-15.4 17.13-27.88 38.25-27.88z" fill="#c8c8c8"/><path d="m167.23 348.75.06 7h-1.04c-1.64 0-3.01-1.13-3.39-2.65v-1.7c.15-.62.48-1.18.92-1.62.63-.64 1.51-1.03 2.47-1.03z"/><path d="m166.94 317.13.02 2.3c-.14-.37-.21-.76-.21-1.17 0-.01 0-.01 0-.02 0-.39.06-.76.19-1.11z"/><path d="m162.86 351.4v1.7c-.07-.27-.11-.56-.11-.85s.04-.58.11-.85z"/><path d="m142.17 119.1c7.62 0 14.73-1.63 20.69-4.43v183.04 53.69c-.07.27-.11.56-.11.85s.04.58.11.85v25.15 407.38h-39.49l-1.12-670.61c5.8 2.59 12.62 4.08 19.92 4.08z" fill="#c8c8c8"/><g fill="none"><path d="m165.32 140.59h170.39 22.55 51.99 26 312.18v151.66 28 30 30 140.17h-310.18-27.98-44.01-26.55-170.9" stroke="#231f20" stroke-width="21"/><path d="m122.25 115.02c-10.99-4.89-18.33-13.72-18.33-23.8 0-15.4 17.13-27.88 38.25-27.88 21.13 0 38.26 12.48 38.26 27.88 0 9.84-7 18.49-17.57 23.45-5.96 2.8-13.07 4.43-20.69 4.43-7.3 0-14.12-1.49-19.92-4.08z" stroke="#231f20" stroke-width="21"/><path d="m122.25 114.25v.77l1.12 670.61" stroke="#231f20" stroke-width="21"/><path d="m162.86 353.1v25.15 407.38" stroke="#231f20" stroke-width="21"/><path d="m162.86 112.85v1.82 183.04 53.69" stroke="#231f20" stroke-width="21"/><path d="m335.71 138.25v2.34 157.12h-168.95-3.9-2.61" stroke="#231f20" stroke-width="14"/><path d="m162.25 378.25h.61 4.64 172.21v140" stroke="#231f20" stroke-width="14"/><path d="m748.25 292.25-312 3.46v-155.12-2.34" stroke="#231f20" stroke-width="14"/><path d="m438.25 520.25v-140h306" stroke="#231f20" stroke-width="14"/><path d="m.25.25h850.394v850.394h-850.394z"/></g></svg>