<svg enable-background="new 0 0 850.394 850.394" height="850.394" viewBox="0 0 850.394 850.394" width="850.394" xmlns="http://www.w3.org/2000/svg"><path d="m365.28 308.94c-5.54 28.16-27.36 50.48-55.25 56.75h-.05c.12-6.18 1.2-12.13 3.11-17.69 15.34-6.15 27.43-18.68 33.01-34.31 1.77-4.95 2.88-10.22 3.23-15.69.08-1.25.12-2.5.12-3.77 0-32-25.94-57.94-57.94-57.94s-57.94 25.94-57.94 57.94 25.94 57.94 57.94 57.94c2.39 0 4.75-.14 7.07-.42l.96.21c-1.08 4.96-1.65 10.11-1.66 15.39-1.26.07-2.54.1-3.82.1-40.09 0-72.59-32.5-72.59-72.58 0-40.09 32.5-72.58 72.59-72.58 40.08 0 72.58 32.49 72.58 72.58v.1c-.01 4.78-.48 9.45-1.36 13.97z" fill="#0d72ba"/><path d="m748.18 177.46v342.71h-579.62l-.07-7.84h576.51c0-111.03 0-222.06 0-333.08z" fill="#fff"/><path d="m745 148.44c-193.28 0-386.58 0-579.86 0l-.07-8.1h583.11v37.12l-3.18 1.79c0-10.27 0-20.54 0-30.81z" fill="#fff"/><path d="m592.74 349.45c1.439.12 2.899.17 4.37.17 32 0 57.939-25.94 57.939-57.93 0-32-25.939-57.95-57.939-57.95s-57.931 25.95-57.931 57.95c0 1.91.09 3.79.271 5.66l-.09.39c-4.04-.95-8.2-1.56-12.471-1.8l.19-3.62c0-40.08 32.49-72.58 72.58-72.58s72.58 32.5 72.58 72.58c0 40.09-32.49 72.59-72.58 72.59-1.51 0-3.021-.05-4.51-.14-6.04-.37-11.891-1.48-17.44-3.25-23.65-7.49-42.05-26.78-48.31-50.95 5.149.82 10.06 2.33 14.659 4.42 5.71 12.98 16.03 23.46 28.891 29.37 6.101 2.8 12.771 4.57 19.791 5.09z" fill="#ed1d31"/><path d="m597.11 233.74c32 0 57.939 25.95 57.939 57.95 0 31.99-25.939 57.93-57.939 57.93-1.471 0-2.931-.05-4.37-.17-6.9-25.6-27.46-45.61-53.38-51.71l.09-.39c-.181-1.87-.271-3.75-.271-5.66.001-32 25.931-57.95 57.931-57.95z" fill="#fff"/><path d="m467.82 342.79c-2.771 5.79-4.61 12.12-5.311 18.78-.22 2.03-.33 4.09-.33 6.18 0 32 25.931 57.94 57.931 57.94s57.939-25.94 57.939-57.94c0-2.11-.109-4.19-.34-6.23 5.55 1.77 11.4 2.88 17.44 3.25.06 1.2.09 2.41.09 3.62 0 40.09-32.5 72.58-72.58 72.58-40.09 0-72.59-32.49-72.59-72.58 0-1.65.06-3.29.17-4.91.359-5.53 1.35-10.89 2.89-16.01 6.84-22.77 24.58-40.84 47.15-48.14-.87 5.71-2.59 11.14-5.021 16.17l-.1-.05c-11.948 5.71-21.628 15.39-27.338 27.34z" fill="#33a048"/><path d="m577.71 361.52c.23 2.04.34 4.12.34 6.23 0 32-25.939 57.94-57.939 57.94s-57.931-25.94-57.931-57.94c0-2.09.11-4.15.33-6.18l.2.02c25.75-6.23 46.14-26.18 52.98-51.68l.199.06c1.391-.1 2.801-.15 4.221-.15 3.159 0 6.27.25 9.29.75 6.26 24.17 24.66 43.46 48.31 50.95z" fill="#fff"/><path d="m573.04 344.17-.09.19c-12.86-5.91-23.181-16.39-28.891-29.37 12.871 5.84 23.221 16.26 28.981 29.18z" fill="#fff"/><path d="m520.11 309.82c-1.42 0-2.83.05-4.221.15l-.199-.06c1.21-4.49 2-9.16 2.319-13.95 1.54-.1 3.09-.15 4.65-.15 1.42 0 2.83.04 4.229.13 4.271.24 8.431.85 12.471 1.8 25.92 6.1 46.479 26.11 53.38 51.71-7.021-.52-13.69-2.29-19.79-5.09l.09-.19c-5.76-12.92-16.11-23.34-28.98-29.18-4.6-2.09-9.51-3.6-14.659-4.42-3.02-.5-6.13-.75-9.29-.75z" fill="#33a048"/><path d="m518.01 295.96c-.319 4.79-1.109 9.46-2.319 13.95-6.841 25.5-27.23 45.45-52.98 51.68l-.2-.02c.7-6.66 2.54-12.99 5.311-18.78 11.989-5.68 21.71-15.35 27.439-27.29 2.431-5.03 4.15-10.46 5.021-16.17.46-2.91.689-5.89.689-8.92 0-32-25.939-57.94-57.93-57.94-32 0-57.94 25.94-57.94 57.94 0 1.71.08 3.39.22 5.06l-.18.89c-3.92-.81-7.96-1.3-12.09-1.44l.02-.7c-.05-1.06-.06-2.11-.06-3.17 0-40.09 32.49-72.58 72.57-72.58 40.09 0 72.59 32.49 72.59 72.58-.001 1.65-.061 3.29-.161 4.91z" fill="#231f20"/><path d="m500.97 290.41c0 3.03-.229 6.01-.689 8.92-22.57 7.3-40.311 25.37-47.15 48.14-3.27.57-6.64.88-10.09.88-.86 0-1.71-.02-2.56-.06-7.141-26.16-28.541-46.43-55.34-51.93l.18-.89c-.14-1.67-.22-3.35-.22-5.06 0-32 25.94-57.94 57.94-57.94 31.989 0 57.929 25.94 57.929 57.94z" fill="#fff"/><path d="m495.26 315.5c-5.729 11.94-15.45 21.61-27.439 27.29 5.71-11.95 15.39-21.63 27.34-27.34z" fill="#fff"/><path d="m440.48 348.29c.85.04 1.699.06 2.56.06 3.45 0 6.82-.31 10.09-.88-1.54 5.12-2.53 10.48-2.89 16.01h-.04c-1.53.1-3.061.15-4.62.15-.89 0-1.771-.02-2.65-.05-6.01-.21-11.84-1.16-17.39-2.75-24.55-7.04-43.77-26.68-50.21-51.49 5.03.64 9.86 1.93 14.4 3.78 5.96 14 17.28 25.16 31.38 30.93 6.02 2.47 12.54 3.95 19.37 4.24z" fill="#231f20"/><path d="m366.64 294.87c0-40.09-32.5-72.58-72.58-72.58-40.09 0-72.59 32.49-72.59 72.58 0 40.08 32.5 72.58 72.59 72.58 1.28 0 2.56-.03 3.82-.1v.1c0 40.08 32.49 72.58 72.58 72.58 40.08 0 72.58-32.5 72.58-72.58 0-1.3-.04-2.59-.11-3.87.88.03 1.761.05 2.65.05 1.56 0 3.09-.05 4.62-.15h.04c-.11 1.62-.17 3.26-.17 4.91 0 40.09 32.5 72.58 72.59 72.58 40.08 0 72.58-32.49 72.58-72.58 0-1.21-.03-2.42-.09-3.62 1.489.09 3 .14 4.51.14 40.09 0 72.58-32.5 72.58-72.59 0-40.08-32.49-72.58-72.58-72.58s-72.58 32.5-72.58 72.58l-.19 3.62c-1.399-.09-2.81-.13-4.229-.13-1.561 0-3.11.05-4.65.15.101-1.62.16-3.26.16-4.91 0-40.09-32.5-72.58-72.59-72.58-40.08 0-72.57 32.49-72.57 72.58 0 1.06.01 2.11.06 3.17l-.02.7c-.86-.03-1.72-.05-2.59-.05-1.29 0-2.56.03-3.82.1-.001-.03-.001-.07-.001-.1zm378.36-115.62v333.08c-192.18 0-384.34 0-576.51 0l-3.35-363.89h579.86z" fill="#fff"/><path d="m297.88 367.35c.01-5.28.58-10.43 1.66-15.39 5.59-25.75 24.84-46.39 49.79-53.96-.35 5.47-1.46 10.74-3.23 15.69l-.74-.26c-15.09 6.39-26.91 18.97-32.27 34.57-1.91 5.56-2.99 11.51-3.11 17.69-.01.37-.01.75-.01 1.12 0 32 25.94 57.94 57.94 57.94s57.94-25.94 57.94-57.94c0-2.02-.11-4.01-.31-5.98 5.55 1.59 11.38 2.54 17.39 2.75.07 1.28.11 2.57.11 3.87 0 40.08-32.5 72.58-72.58 72.58-40.09 0-72.58-32.5-72.58-72.58 0-.03 0-.07 0-.1z" fill="#fbee34"/><path d="m421.16 343.93-.05.12c-14.1-5.77-25.42-16.93-31.38-30.93 14.09 5.73 25.42 16.86 31.43 30.81z" fill="#fff"/><path d="m389.73 313.12c-4.54-1.85-9.37-3.14-14.4-3.78-2.43-.31-4.91-.47-7.42-.47-.88 0-1.76.02-2.63.07.88-4.52 1.35-9.19 1.36-13.97 1.26-.07 2.53-.1 3.82-.1.87 0 1.73.02 2.59.05 4.13.14 8.17.63 12.09 1.44 26.8 5.5 48.2 25.77 55.34 51.93-6.83-.29-13.351-1.77-19.371-4.24l.05-.12c-6.009-13.95-17.339-25.08-31.429-30.81z" fill="#fbee34"/><path d="m349.45 294.23c0 1.27-.04 2.52-.12 3.77-24.95 7.57-44.2 28.21-49.79 53.96l-.96-.21c-2.32.28-4.68.42-7.07.42-32 0-57.94-25.94-57.94-57.94s25.94-57.94 57.94-57.94 57.94 25.94 57.94 57.94z" fill="#fff"/><path d="m345.36 313.43.74.26c-5.58 15.63-17.67 28.16-33.01 34.31 5.36-15.6 17.18-28.18 32.27-34.57z" fill="#fff"/><path d="m309.97 366.81c0-.37 0-.75.01-1.12h.05c27.89-6.27 49.71-28.59 55.25-56.75.87-.05 1.75-.07 2.63-.07 2.51 0 4.99.16 7.42.47 6.44 24.81 25.66 44.45 50.21 51.49.2 1.97.31 3.96.31 5.98 0 32-25.94 57.94-57.94 57.94s-57.94-25.94-57.94-57.94z" fill="#fff"/><path d="m141.92 63.09c21.13 0 38.26 12.48 38.26 27.88 0 9.84-7 18.49-17.57 23.45-5.96 2.8-13.07 4.43-20.69 4.43-7.3 0-14.12-1.49-19.92-4.08-10.99-4.89-18.33-13.72-18.33-23.8 0-15.4 17.13-27.88 38.25-27.88z" fill="#c8c8c8"/><path d="m165.14 148.44 3.35 363.89c-1.82 0-3.65 0-5.47 0 0-119.9 0-239.8 0-359.7-.12-1.98-.23-3.96 1.35-4.19z" fill="#fff"/><path d="m141.92 118.85c7.62 0 14.73-1.63 20.69-4.43v670.96h-39.49l-1.12-670.61c5.8 2.59 12.62 4.08 19.92 4.08z" fill="#c8c8c8"/><g fill="none"><path d="m165.07 140.34h583.11v37.12 342.71h-579.62" stroke="#231f20" stroke-width="21"/><path d="m122 114.77c-10.99-4.89-18.33-13.72-18.33-23.8 0-15.4 17.13-27.88 38.25-27.88 21.13 0 38.26 12.48 38.26 27.88 0 9.84-7 18.49-17.57 23.45-5.96 2.8-13.07 4.43-20.69 4.43-7.3 0-14.12-1.49-19.92-4.08z" stroke="#231f20" stroke-width="21"/><path d="m122 114v.77l1.12 670.61" stroke="#231f20" stroke-width="21"/><path d="m162.61 112.6v1.82 670.96" stroke="#231f20" stroke-width="21"/><path d="m745 179.25 3.18-1.79 2.01-1.14" stroke="#231f20" stroke-width="14"/><path d="m298.02 367.34c-.05 0-.09.01-.14.01-1.26.07-2.54.1-3.82.1-40.09 0-72.59-32.5-72.59-72.58 0-40.09 32.5-72.58 72.59-72.58 40.08 0 72.58 32.49 72.58 72.58v.1c-.01 4.78-.48 9.45-1.36 13.97-5.54 28.16-27.36 50.48-55.25 56.75" stroke="#000" stroke-linecap="round" stroke-linejoin="round" stroke-width="7"/><path d="m298.58 351.75c-2.32.28-4.68.42-7.07.42-32 0-57.94-25.94-57.94-57.94s25.94-57.94 57.94-57.94 57.94 25.94 57.94 57.94c0 1.27-.04 2.52-.12 3.77-.35 5.47-1.46 10.74-3.23 15.69-5.58 15.63-17.67 28.16-33.01 34.31-.08.04-.17.08-.25.11" stroke="#000" stroke-linecap="round" stroke-linejoin="round" stroke-width="7"/><path d="m442.91 363.05c.01.18.02.35.02.53.07 1.28.11 2.57.11 3.87 0 40.08-32.5 72.58-72.58 72.58-40.09 0-72.58-32.5-72.58-72.58 0-.03 0-.07 0-.1.01-5.28.58-10.43 1.66-15.39 5.59-25.75 24.84-46.39 49.79-53.96.05-.02.1-.03.15-.05" stroke="#000" stroke-linecap="round" stroke-linejoin="round" stroke-width="7"/><path d="m370.46 294.87c.87 0 1.73.02 2.59.05 4.13.14 8.17.63 12.09 1.44 26.8 5.5 48.2 25.77 55.34 51.93.01.02.01.05.02.07" stroke="#000" stroke-linecap="round" stroke-linejoin="round" stroke-width="7"/><path d="m366.64 294.97c1.26-.07 2.53-.1 3.82-.1" stroke="#000" stroke-linecap="round" stroke-linejoin="round" stroke-width="7"/><path d="m425.51 360.51c.01.11.02.21.03.32.2 1.97.31 3.96.31 5.98 0 32-25.94 57.94-57.94 57.94s-57.94-25.94-57.94-57.94c0-.37 0-.75.01-1.12.12-6.18 1.2-12.13 3.11-17.69 5.36-15.6 17.18-28.18 32.27-34.57" stroke="#000" stroke-linecap="round" stroke-linejoin="round" stroke-width="7"/><path d="m367.91 308.87c2.51 0 4.99.16 7.42.47 5.03.64 9.86 1.93 14.4 3.78 14.09 5.73 25.42 16.86 31.43 30.81" stroke="#000" stroke-linecap="round" stroke-linejoin="round" stroke-width="7"/><path d="m364.97 308.95c.1-.01.2-.01.31-.01.87-.05 1.75-.07 2.63-.07" stroke="#000" stroke-linecap="round" stroke-linejoin="round" stroke-width="7"/><path d="m450.2 363.48c-1.53.1-3.061.15-4.62.15-.89 0-1.771-.02-2.65-.05-6.01-.21-11.84-1.16-17.39-2.75-24.55-7.04-43.77-26.68-50.21-51.49-.06-.21-.12-.43-.17-.64" stroke="#000" stroke-linecap="round" stroke-linejoin="round" stroke-width="7"/><path d="m373.07 294.22c-.05-1.06-.06-2.11-.06-3.17 0-40.09 32.49-72.58 72.57-72.58 40.09 0 72.59 32.49 72.59 72.58 0 1.65-.06 3.29-.16 4.91-.319 4.79-1.109 9.46-2.319 13.95-6.841 25.5-27.23 45.45-52.98 51.68" stroke="#000" stroke-linecap="round" stroke-linejoin="round" stroke-width="7"/><path d="m453.34 347.44c-.07.01-.14.02-.21.03-3.27.57-6.64.88-10.09.88-.86 0-1.71-.02-2.56-.06-6.83-.29-13.351-1.77-19.371-4.24-14.1-5.77-25.42-16.93-31.38-30.93-.13-.29-.25-.58-.37-.87" stroke="#000" stroke-linecap="round" stroke-linejoin="round" stroke-width="7"/><path d="m385.32 295.47c-.14-1.67-.22-3.35-.22-5.06 0-32 25.94-57.94 57.94-57.94 31.99 0 57.93 25.94 57.93 57.94 0 3.03-.229 6.01-.689 8.92-.87 5.71-2.59 11.14-5.021 16.17-5.729 11.94-15.45 21.61-27.439 27.29l-.011.01" stroke="#000" stroke-linecap="round" stroke-linejoin="round" stroke-width="7"/><path d="m595.13 364.33c.01.15.01.29.021.44.06 1.2.09 2.41.09 3.62 0 40.09-32.5 72.58-72.58 72.58-40.09 0-72.59-32.49-72.59-72.58 0-1.65.06-3.29.17-4.91.359-5.53 1.35-10.89 2.89-16.01 6.84-22.77 24.58-40.84 47.15-48.14.04-.01.08-.03.12-.04" stroke="#000" stroke-linecap="round" stroke-linejoin="round" stroke-width="7"/><path d="m522.66 295.81c1.42 0 2.83.04 4.229.13 4.271.24 8.431.85 12.471 1.8 25.92 6.1 46.479 26.11 53.38 51.71.04.15.08.3.12.45" stroke="#000" stroke-linecap="round" stroke-linejoin="round" stroke-width="7"/><path d="m517.7 295.98c.1-.01.21-.01.31-.02 1.54-.1 3.09-.15 4.65-.15" stroke="#000" stroke-linecap="round" stroke-linejoin="round" stroke-width="7"/><path d="m577.67 361.13c.01.13.03.26.04.39.23 2.04.34 4.12.34 6.23 0 32-25.939 57.94-57.939 57.94s-57.931-25.94-57.931-57.94c0-2.09.11-4.15.33-6.18.7-6.66 2.54-12.99 5.311-18.78 5.71-11.95 15.39-21.63 27.34-27.34" stroke="#000" stroke-linecap="round" stroke-linejoin="round" stroke-width="7"/><path d="m515.89 309.97c1.391-.1 2.801-.15 4.221-.15 3.159 0 6.27.25 9.29.75 5.149.82 10.06 2.33 14.659 4.42 12.87 5.84 23.221 16.26 28.98 29.18" stroke="#000" stroke-linecap="round" stroke-linejoin="round" stroke-width="7"/><path d="m527.08 292.32c0-40.08 32.49-72.58 72.58-72.58s72.58 32.5 72.58 72.58c0 40.09-32.49 72.59-72.58 72.59-1.51 0-3.021-.05-4.51-.14-6.04-.37-11.891-1.48-17.44-3.25-23.65-7.49-42.05-26.78-48.31-50.95-.051-.16-.091-.32-.131-.48" stroke="#000" stroke-linecap="round" stroke-linejoin="round" stroke-width="7"/><path d="m597.11 349.62c-1.471 0-2.931-.05-4.37-.17-7.021-.52-13.69-2.29-19.79-5.09-12.86-5.91-23.181-16.39-28.891-29.37-.06-.14-.13-.28-.189-.43" stroke="#000" stroke-linecap="round" stroke-linejoin="round" stroke-width="7"/><path d="m539.45 297.35c-.181-1.87-.271-3.75-.271-5.66 0-32 25.931-57.95 57.931-57.95s57.939 25.95 57.939 57.95c0 31.99-25.939 57.93-57.939 57.93" stroke="#000" stroke-linecap="round" stroke-linejoin="round" stroke-width="7"/><path d="m0 0h850.394v850.394h-850.394z"/></g></svg>