<svg enable-background="new 0 0 850.89 850.89" height="850.89" viewBox="0 0 850.89 850.89" width="850.89" xmlns="http://www.w3.org/2000/svg"><path d="m748.43 390.75v42h-580.18v7h-.18l-.39-41.99.57-.01h578v-7z" fill="#394ea1"/><path d="m748.43 432.75h1.82v7h-1.82z" fill="#231f20"/><path d="m748.43 472.05v48.37h-579.62l-.38-41.37h577.7v-7z" fill="#ed1e29"/><path d="m748.43 439.75v32.3h-2.3-577.76l-.3-32.3h.18z" fill="#fff"/><path d="m168.25 432.75h580.18v7h-580.18z" fill="#231f20"/><path d="m748.43 292.75v59h-2.16l-.04-7-282.05 1.27v-7.35-7.6-31.32h.07 284v-7z" fill="#fff"/><path d="m464.25 292.75h284v7h-284z" fill="#231f20"/><path d="m464.25 246.75h284v7h-284z" fill="#231f20"/><path d="m168.25 390.75h578v7h-578z" fill="#231f20"/><path d="m464.25 198.75h282v7h-282z" fill="#231f20"/><path d="m746.13 472.05v7h-577.7l-.06-7z" fill="#231f20"/><path d="m464.18 146.61h-11.12-12.04-85.24v-2.36-3.66h392.65v37.12 21.04h-2.18-282v7h-.07v-35.43-19.26z" fill="#fff"/><path d="m464.18 214.56v-8.81h.07 282v-7h2.18v48h-.18-284v7h-.07v-22.9z" fill="#ed1e29"/><path d="m464.25 292.75v7h-.07v-9.96-16.29-19.75h.07 284v-7h.18v46h-.18z" fill="#394ea1"/><path d="m464.18 346.02v3.51h-3.1l-.02-3.5z" fill="#231f20"/><path d="m464.18 151.06-87.94 63.5h-15.45v-.8l92.27-66.25v-.9h11.12z" fill="#ed1e29"/><path d="m464.18 170.32v35.43 8.81h-64.27v-.8l64.18-43.44z" fill="#394ea1"/><path d="m390.43 289.79h-18.99-15.66v7.61 54.3 1.18h-15.04v-2.26-77.12h123.35.09v16.29h-.09-61.57z" fill="#fff"/><path d="m464.09 289.79h.09v9.96 31.32h-.09l-61.57-41.28z" fill="#394ea1"/><path d="m464.18 331.07v7.6h-3.1l-70.65-48.88h12.09l61.57 41.28z" fill="#fff"/><path d="m464.18 338.67v7.35l-3.12.01.02 3.5-89.64-59.74h18.99l70.65 48.88z" fill="#ed1e29"/><path d="m464.18 352.88h-3.08l-.02-3.35h3.1z" fill="#231f20"/><path d="m461.1 352.88h3.08v-3.35-3.51l282.05-1.27.04 7-285.17 1.28z" fill="#231f20"/><path d="m279.3 352.88h2.19 11.85 47.4 15.04 82.24 23.08v.15l285.17-1.28h2.16v39h-2.18-578v7l-.57.01-.44-48.2 3.01-.03.88-.54 2.41 3.89h15.77 9.02z" fill="#ed1e29"/><path d="m461.08 349.53.02 3.35h-23.08v-1.18l-82.24-54.3v-7.61h15.66z" fill="#fff"/><path d="m441.02 147.51-84.24 59.74h-1v-60.64h85.24z" fill="#394ea1"/><path d="m438.02 351.7v1.18h-82.24v-1.18-54.3z" fill="#394ea1"/><path d="m399.91 213.76v.8h-23.67l87.94-63.5v19.26h-.09z" fill="#fff"/><path d="m376.24 214.56h23.67 64.27v16.29h-123.44v-84.24h15.04v60.64 7.31h5.01z" fill="#fff"/><path d="m355.78 214.56v-7.31h1l84.24-59.74v-.9h12.04v.9l-92.27 66.25v.8z" fill="#fff"/><path d="m340.74 352.88h-47.4v-.09-80.37h-123.09l-3.72.03-.37-40.47 4.09-.04h121.08v-85.33h49.41v84.24h123.44v22.9 19.75h-.09-123.35v77.12z" fill="#ed1e29"/><path d="m293.34 352.79v.09h-11.85-2.19v-1.18-48.87-9.07-6.14h-10.77-23.84-75.44l-2.58.02-.14-15.19 3.72-.03h123.09z" fill="#fff"/><path d="m355.78 144.25v2.36h-15.04-49.41-15.04v-2.36-3.66h79.49z" fill="#fff"/><path d="m279.3 293.76v9.07h-1.74l-79.23 49.96v.09h-9.02v-2.26l89.31-56.86z" fill="#fff"/><path d="m277.56 302.83h1.74v48.87 1.18h-80.97v-.09z" fill="#394ea1"/><path d="m276.29 146.61v62.81h-.74l-76.21-61.91v-.9z" fill="#394ea1"/><path d="m276.29 144.25v2.36h-76.95-27.55l86.71 68.24v.8h-15.42l-71.82-55.11-5.76.05-.18-20h110.97z" fill="#ed1e29"/><path d="m199.34 147.51 76.21 61.91h.74v6.23h-17.79v-.8l-86.71-68.24h27.55z" fill="#fff"/><path d="m244.69 287.62-73.43 44.53-4.18.04-.41-44.55 2.58-.02z" fill="#394ea1"/><path d="m166.01 215.69 4.24-.04h58.17 14.66 15.42 17.79v-6.23-62.81h15.04v85.33h-121.08l-4.09.04z" fill="#fff"/><path d="m243.08 215.65h-14.66v-.8l-57.16-44.53-5.67.05-.09-9.78 5.76-.05z" fill="#fff"/><path d="m228.42 214.85v.8h-58.17l-4.24.04-.42-45.32 5.67-.05z" fill="#394ea1"/><path d="m189.31 352.88h-15.77l-2.41-3.89 97.4-60.28v-1.09h10.77v6.14h-.68l-89.31 56.86z" fill="#ed1e29"/><path d="m268.53 287.62v1.09l-97.4 60.28-.88.54-3.01.03-.16-17.37 4.18-.04 73.43-44.53z" fill="#fff"/><path d="m122.25 115.02c-10.99-4.89-18.33-13.72-18.33-23.8 0-15.4 17.13-27.88 38.25-27.88 21.13 0 38.26 12.48 38.26 27.88 0 9.84-7 18.49-17.57 23.45-5.96 2.8-13.07 4.43-20.69 4.43-7.3 0-14.12-1.49-19.92-4.08z" fill="#c8c8c8"/><path d="m168.37 472.05.06 7h-.3v-7z" fill="#231f20"/><path d="m122.25 115.02c5.8 2.59 12.62 4.08 19.92 4.08 7.62 0 14.73-1.63 20.69-4.43v670.96h-39.49z" fill="#c8c8c8"/><g fill="none"><path d="m748.43 439.75v32.3 48.37h-579.62" stroke="#231f20" stroke-width="21"/><path d="m165.32 140.59h110.97 79.49 392.65v37.12 21.04 48 46 59 39 42" stroke="#231f20" stroke-width="21"/><path d="m122.25 115.02c-10.99-4.89-18.33-13.72-18.33-23.8 0-15.4 17.13-27.88 38.25-27.88 21.13 0 38.26 12.48 38.26 27.88 0 9.84-7 18.49-17.57 23.45-5.96 2.8-13.07 4.43-20.69 4.43-7.3 0-14.12-1.49-19.92-4.08z" stroke="#231f20" stroke-width="21"/><path d="m122.25 114.25v.77l1.12 670.61" stroke="#231f20" stroke-width="21"/><path d="m162.86 112.85v1.82 670.96" stroke="#231f20" stroke-width="21"/><path d="m745.01 179.64 3.42-1.93 2.01-1.14" stroke="#231f20" stroke-width="14"/><path d="m281.49 352.88h-2.19-80.97-9.02-15.77" stroke="#231f20" stroke-width="7"/><path d="m461.1 352.88h-23.08-82.24-15.04-47.4-11.85" stroke="#231f20" stroke-width="7"/><path d="m171.79 146.61h27.55 76.95 15.04 49.41 15.04 85.24 12.04 11.12v4.45 19.26 35.43 8.81 16.29 22.9 19.75 16.29 9.96 31.32 7.6 7.35" stroke="#231f20" stroke-width="7"/><path d="m465.09 230.85h-.91-123.44v-84.24-2.36" stroke="#231f20" stroke-width="5"/><path d="m291.33 145.34v1.27 85.33h-121.08" stroke="#231f20" stroke-width="5"/><path d="m170.25 272.42h123.09v80.37" stroke="#231f20" stroke-width="5"/><path d="m340.74 350.62v-77.12h123.35" stroke="#231f20" stroke-width="5"/><path d="m276.29 144.25v2.36 62.81 6.23h-17.79-15.42-14.66-58.17" stroke="#231f20" stroke-width="7"/><path d="m465.09 214.56h-.91-64.27-23.67-15.45-5.01v-7.31-60.64-2.36" stroke="#231f20" stroke-width="7"/><path d="m169.25 287.62h75.44 23.84 10.77v6.14 9.07 48.87" stroke="#231f20" stroke-width="7"/><path d="m355.78 351.7v-54.3-7.61h15.66 18.99 12.09 61.57" stroke="#231f20" stroke-width="7"/><path d="m199.34 147.51 76.21 61.91" stroke="#231f20" stroke-width="5"/><path d="m171.79 146.61 86.71 68.24" stroke="#231f20" stroke-width="5"/><path d="m171.26 160.54 71.82 55.11.38.29" stroke="#231f20" stroke-width="5"/><path d="m171.26 170.32 57.16 44.53" stroke="#231f20" stroke-width="5"/><path d="m356.78 207.25 84.24-59.74" stroke="#231f20" stroke-width="5"/><path d="m360.79 213.76 92.27-66.25" stroke="#231f20" stroke-width="5"/><path d="m375.84 214.85.4-.29 87.94-63.5 1.91-1.38" stroke="#231f20" stroke-width="5"/><path d="m399.91 213.76 64.18-43.44" stroke="#231f20" stroke-width="5"/><path d="m189.31 350.62 89.31-56.86" stroke="#231f20" stroke-width="5"/><path d="m170.25 349.53.88-.54 97.4-60.28" stroke="#231f20" stroke-width="5"/><path d="m277.56 302.83-79.23 49.96" stroke="#231f20" stroke-width="5"/><path d="m171.26 332.15 73.43-44.53 1.78-1.08" stroke="#231f20" stroke-width="5"/><path d="m461.08 349.53-89.64-59.74-1.62-1.08" stroke="#231f20" stroke-width="5"/><path d="m355.78 297.4 82.24 54.3" stroke="#231f20" stroke-width="5"/><path d="m388.87 288.71 1.56 1.08 70.65 48.88" stroke="#231f20" stroke-width="5"/><path d="m400.91 288.71 1.61 1.08 61.57 41.28" stroke="#231f20" stroke-width="5"/><path d="m.25.25h850.394v850.394h-850.394z"/></g></svg>