<svg enable-background="new 0 0 850.394 850.394" height="850.394" viewBox="0 0 850.394 850.394" width="850.394" xmlns="http://www.w3.org/2000/svg"><path d="m162.61 114.42v670.96h-39.49l-1.12-670.61c5.8 2.59 12.62 4.08 19.92 4.08 7.62 0 14.73-1.63 20.69-4.43z" fill="#c8c8c8"/><path d="m246.91 268.13.43-1.91c4.22 2.85 9.26 4.58 14.69 4.75l-.03 1.21-3.79 6.83c-4.06-.54-7.9-1.74-11.42-3.5z" fill="#394ea1"/><path d="m292.18 242 7.02 3.9c-.31 4-1.27 7.8-2.77 11.33l-8.3-.14-.7-.4c2.28-4.05 3.57-8.72 3.57-13.69 0-.33-.01-.65-.03-.97z" fill="#394ea1"/><path d="m262 272.18.03-1.21c.32.02.64.03.97.03 4.97 0 9.64-1.29 13.69-3.57l.4.7.14 8.3c-3.53 1.5-7.33 2.46-11.33 2.77z" fill="#394ea1"/><path d="m246.91 215.87-.09-5.4c3.81-1.9 8-3.14 12.43-3.6l2.75 4.95.09 3.21c-4.98.14-9.62 1.6-13.61 4.02z" fill="#394ea1"/><path d="m262.03 270.97c-5.43-.17-10.47-1.9-14.69-4.75-3.72-2.52-6.81-5.9-8.96-9.87-2.16-3.96-3.38-8.51-3.38-13.35 0-.31 0-.61.03-.91.14-4.98 1.6-9.62 4.02-13.61 2.34-3.85 5.58-7.09 9.43-9.43 3.99-2.42 8.63-3.88 13.61-4.02.3-.03.6-.03.91-.03 9.67 0 18.19 4.89 23.22 12.34 2.85 4.22 4.58 9.25 4.75 14.69.02.32.03.64.03.97 0 4.97-1.29 9.64-3.57 13.69-2.52 4.49-6.25 8.22-10.74 10.74-4.05 2.28-8.72 3.57-13.69 3.57-.33 0-.65-.01-.97-.03z" fill="#fbed24"/><path d="m231.82 242 3.21.09c-.03.3-.03.6-.03.91 0 4.84 1.22 9.39 3.38 13.35l-2.51.74-6.32.1c-1.62-3.83-2.61-7.99-2.82-12.36z" fill="#394ea1"/><path d="m248.48 219.05c-3.85 2.34-7.09 5.58-9.43 9.43l-3.18-1.57-2.74-4.57c2.49-3.6 5.61-6.72 9.21-9.21l4.57 2.74z" fill="#394ea1"/><path d="m246.91 268.13-6.07 3.64c-3.27-2.51-6.1-5.58-8.35-9.05l3.38-5.63 2.51-.74c2.15 3.97 5.24 7.35 8.96 9.87z" fill="#394ea1"/><path d="m288.13 226.91 7.38-.12c1.76 3.52 2.96 7.36 3.5 11.42l-6.83 3.79-1.21.03c-.17-5.44-1.9-10.47-4.75-14.69z" fill="#394ea1"/><path d="m239.05 228.48c-2.42 3.99-3.88 8.63-4.02 13.61l-3.21-.09-4.95-2.75c.46-4.43 1.7-8.62 3.6-12.43l5.4.09z" fill="#394ea1"/><path d="m288.13 257.09 4.31 7.18c-2.27 3.14-5.03 5.9-8.17 8.17l-7.18-4.31-.4-.7c4.49-2.52 8.22-6.25 10.74-10.74z" fill="#394ea1"/><path d="m263 215c-.31 0-.61 0-.91.03l-.09-3.21 2.83-5.09c4.37.21 8.53 1.2 12.36 2.82l-.1 6.32 5.63-3.38c3.47 2.25 6.54 5.08 9.05 8.35l-3.64 6.07-1.91.43c-5.03-7.45-13.55-12.34-23.22-12.34z" fill="#394ea1"/><path d="m748.18 230v290.17h-472.18v-2.17l472-288z" fill="#58b947"/><path d="m748.18 197.12v32.88h-.18l-472 288v2.17h-46v-4.17z" fill="#fff"/><path d="m748.18 177.46v19.66l-518.18 318.88v4.17h-61.44l-.63-68.17h.07l520-308v-3.66h60.18z" fill="#ed1e29"/><path d="m688 140.34v3.66l-520 308h-.07l-.26-28.99 472.33-281.01v-1.66z" fill="#fff"/><path d="m640 140.34v1.66l-472.33 281.01-2.6-282.67zm-340.99 97.87 21.29-11.83-24.79.41c-1.05-2.11-2.31-4.1-3.74-5.95l12.91-21.52-21.96 13.17c-1.75-1.13-3.6-2.11-5.53-2.94l.43-25.85-12.79 23.03c-.61-.03-1.22-.05-1.83-.05-1.27 0-2.52.06-3.75.19l-12.87-23.17.44 26.77c-1.56.78-3.06 1.67-4.48 2.66l-23.02-13.81 13.81 23.02c-.99 1.42-1.88 2.92-2.66 4.48l-26.77-.44 23.17 12.87c-.13 1.23-.19 2.48-.19 3.75 0 .61.02 1.22.05 1.83l-23.03 12.79 25.85-.43c.83 1.93 1.81 3.78 2.94 5.53l-13.17 21.96 21.52-12.91c1.85 1.43 3.84 2.69 5.95 3.74l-.41 24.79 11.83-21.29c1.57.2 3.17.31 4.79.31.98 0 1.95-.04 2.9-.12l11.72 21.1-.39-23.87c2.5-1.07 4.87-2.41 7.04-3.99l20.41 12.24-12.24-20.41c1.58-2.17 2.92-4.54 3.99-7.04l23.87.39-21.1-11.72c.08-.95.12-1.92.12-2.9 0-1.62-.11-3.22-.31-4.79z" fill="#394ea1"/><path d="m320.3 226.38-21.29 11.83c-.54-4.06-1.74-7.9-3.5-11.42z" fill="#fbed24"/><path d="m320.3 257.62-23.87-.39c1.5-3.53 2.46-7.33 2.77-11.33z" fill="#fbed24"/><path d="m304.68 199.32-12.91 21.52c-2.51-3.27-5.58-6.1-9.05-8.35z" fill="#fbed24"/><path d="m292.44 264.27 12.24 20.41-20.41-12.24c3.14-2.27 5.9-5.03 8.17-8.17z" fill="#fbed24"/><path d="m299.32 243c0 .98-.04 1.95-.12 2.9l-7.02-3.9 6.83-3.79c.2 1.57.31 3.17.31 4.79z" fill="#394ea1"/><path d="m288.13 257.09 8.3.14c-1.07 2.5-2.41 4.87-3.99 7.04z" fill="#394ea1"/><path d="m295.51 226.79-7.38.12 3.64-6.07c1.43 1.85 2.69 3.84 3.74 5.95z" fill="#394ea1"/><path d="m277.09 268.13 7.18 4.31c-2.17 1.58-4.54 2.92-7.04 3.99z" fill="#394ea1"/><path d="m282.72 212.49-5.63 3.38.1-6.32c1.93.83 3.78 1.81 5.53 2.94z" fill="#394ea1"/><path d="m277.62 183.7-.43 25.85c-3.83-1.62-7.99-2.61-12.36-2.82z" fill="#fbed24"/><path d="m277.23 276.43.39 23.87-11.72-21.1c4-.31 7.8-1.27 11.33-2.77z" fill="#fbed24"/><path d="m262 272.18 3.9 7.02c-.95.08-1.92.12-2.9.12-1.62 0-3.22-.11-4.79-.31z" fill="#394ea1"/><path d="m264.83 206.73-2.83 5.09-2.75-4.95c1.23-.13 2.48-.19 3.75-.19.61 0 1.22.02 1.83.05z" fill="#394ea1"/><path d="m246.38 183.7 12.87 23.17c-4.43.46-8.62 1.7-12.43 3.6z" fill="#fbed24"/><path d="m258.21 279.01-11.83 21.29.41-24.79c3.52 1.76 7.36 2.96 11.42 3.5z" fill="#fbed24"/><path d="m246.82 210.47.09 5.4-4.57-2.74c1.42-.99 2.92-1.88 4.48-2.66z" fill="#394ea1"/><path d="m246.91 268.13-.12 7.38c-2.11-1.05-4.1-2.31-5.95-3.74z" fill="#394ea1"/><path d="m219.32 199.32 23.02 13.81c-3.6 2.49-6.72 5.61-9.21 9.21z" fill="#fbed24"/><path d="m240.84 271.77-21.52 12.91 13.17-21.96c2.25 3.47 5.08 6.54 8.35 9.05z" fill="#fbed24"/><path d="m233.13 222.34 2.74 4.57-5.4-.09c.78-1.56 1.67-3.06 2.66-4.48z" fill="#394ea1"/><path d="m235.87 257.09-3.38 5.63c-1.13-1.75-2.11-3.6-2.94-5.53z" fill="#394ea1"/><path d="m231.82 242-5.09 2.83c-.03-.61-.05-1.22-.05-1.83 0-1.27.06-2.52.19-3.75z" fill="#394ea1"/><path d="m203.7 226.38 26.77.44c-1.9 3.81-3.14 8-3.6 12.43z" fill="#fbed24"/><path d="m229.55 257.19-25.85.43 23.03-12.79c.21 4.37 1.2 8.53 2.82 12.36z" fill="#fbed24"/><path d="m162.61 114.42c-5.96 2.8-13.07 4.43-20.69 4.43-7.3 0-14.12-1.49-19.92-4.08-10.99-4.89-18.33-13.72-18.33-23.8 0-15.4 17.13-27.88 38.25-27.88 21.13 0 38.26 12.48 38.26 27.88 0 9.84-7 18.49-17.57 23.45z" fill="#c8c8c8"/><g fill="none"><path d="m165.07 140.34h474.93 48 60.18v37.12 19.66 32.88 290.17h-472.18-46-61.44" stroke="#231f20" stroke-width="21"/><path d="m122 114.77c-10.99-4.89-18.33-13.72-18.33-23.8 0-15.4 17.13-27.88 38.25-27.88 21.13 0 38.26 12.48 38.26 27.88 0 9.84-7 18.49-17.57 23.45-5.96 2.8-13.07 4.43-20.69 4.43-7.3 0-14.12-1.49-19.92-4.08z" stroke="#231f20" stroke-width="21"/><path d="m122 114v.77l1.12 670.61" stroke="#231f20" stroke-width="21"/><path d="m162.61 112.6v1.82 670.96" stroke="#231f20" stroke-width="21"/><path d="m744.76 179.39 3.42-1.93 2.01-1.14" stroke="#231f20" stroke-width="14"/><path d="m168 452 520-308" stroke="#231f20" stroke-width="14"/><path d="m230 516 518.18-318.88 1.82-1.12" stroke="#231f20" stroke-width="14"/><path d="m166 424 1.67-.99 472.33-281.01" stroke="#231f20" stroke-width="14"/><path d="m276 518 472-288" stroke="#231f20" stroke-width="14"/><path d="m246.82 210.47-.44-26.77 12.87 23.17" stroke="#231f20" stroke-width="5"/><path d="m233.13 222.34-13.81-23.02 23.02 13.81" stroke="#231f20" stroke-width="5"/><path d="m226.87 239.25-23.17-12.87 26.77.44" stroke="#231f20" stroke-width="5"/><path d="m229.55 257.19-25.85.43 23.03-12.79" stroke="#231f20" stroke-width="5"/><path d="m240.84 271.77-21.52 12.91 13.17-21.96" stroke="#231f20" stroke-width="5"/><path d="m258.21 279.01-11.83 21.29.41-24.79" stroke="#231f20" stroke-width="5"/><path d="m277.23 276.43.39 23.87-11.72-21.1" stroke="#231f20" stroke-width="5"/><path d="m292.44 264.27 12.24 20.41-20.41-12.24" stroke="#231f20" stroke-width="5"/><path d="m299.2 245.9 21.1 11.72-23.87-.39" stroke="#231f20" stroke-width="5"/><path d="m295.51 226.79 24.79-.41-21.29 11.83" stroke="#231f20" stroke-width="5"/><path d="m282.72 212.49 21.96-13.17-12.91 21.52" stroke="#231f20" stroke-width="5"/><path d="m264.83 206.73 12.79-23.03-.43 25.85" stroke="#231f20" stroke-width="5"/><path d="m299.01 238.21c.2 1.57.31 3.17.31 4.79 0 .98-.04 1.95-.12 2.9-.31 4-1.27 7.8-2.77 11.33-1.07 2.5-2.41 4.87-3.99 7.04-2.27 3.14-5.03 5.9-8.17 8.17-2.17 1.58-4.54 2.92-7.04 3.99-3.53 1.5-7.33 2.46-11.33 2.77-.95.08-1.92.12-2.9.12-1.62 0-3.22-.11-4.79-.31-4.06-.54-7.9-1.74-11.42-3.5-2.11-1.05-4.1-2.31-5.95-3.74-3.27-2.51-6.1-5.58-8.35-9.05-1.13-1.75-2.11-3.6-2.94-5.53-1.62-3.83-2.61-7.99-2.82-12.36-.03-.61-.05-1.22-.05-1.83 0-1.27.06-2.52.19-3.75.46-4.43 1.7-8.62 3.6-12.43.78-1.56 1.67-3.06 2.66-4.48 2.49-3.6 5.61-6.72 9.21-9.21 1.42-.99 2.92-1.88 4.48-2.66 3.81-1.9 8-3.14 12.43-3.6 1.23-.13 2.48-.19 3.75-.19.61 0 1.22.02 1.83.05 4.37.21 8.53 1.2 12.36 2.82 1.93.83 3.78 1.81 5.53 2.94 3.47 2.25 6.54 5.08 9.05 8.35 1.43 1.85 2.69 3.84 3.74 5.95 1.76 3.52 2.96 7.36 3.5 11.42z" stroke="#231f20" stroke-width="5"/><path d="m290.97 242.03c.02.32.03.64.03.97 0 4.97-1.29 9.64-3.57 13.69-2.52 4.49-6.25 8.22-10.74 10.74-4.05 2.28-8.72 3.57-13.69 3.57-.33 0-.65-.01-.97-.03-5.43-.17-10.47-1.9-14.69-4.75-3.72-2.52-6.81-5.9-8.96-9.87-2.16-3.96-3.38-8.51-3.38-13.35 0-.31 0-.61.03-.91.14-4.98 1.6-9.62 4.02-13.61 2.34-3.85 5.58-7.09 9.43-9.43 3.99-2.42 8.63-3.88 13.61-4.02.3-.03.6-.03.91-.03 9.67 0 18.19 4.89 23.22 12.34 2.85 4.22 4.58 9.25 4.75 14.69z" stroke="#231f20" stroke-width="5"/><path d="m0 0h850.394v850.394h-850.394z"/></g></svg>