<svg enable-background="new 0 0 850.394 850.394" height="850.394" viewBox="0 0 850.394 850.394" width="850.394" xmlns="http://www.w3.org/2000/svg"><path d="m168.56 520.17-.47-51.47h577.53 2.56v10.9 40.57z" fill="#fff"/><path d="m162.61 196v58 162 52.7 316.68h-39.49l-1.12-670.61c5.8 2.59 12.62 4.08 19.92 4.08 7.62 0 14.73-1.63 20.69-4.43z" fill="#c8c8c8"/><path d="m748.18 416v52.7h-2.56-577.53l-.49-52.7z" fill="#0071bc"/><path d="m748.18 254v162h-580.58l-1.49-162h581.89zm-253.46 116.4-19.109-35.44 15.159-28.22-32.119-.65-17.651-28.43-17.34 28.14-35.79.94 16.97 31.57-17.28 32.25 36.77 1.06 14.99 24.24 14.96-24.17z" fill="#fff"/><path d="m458.65 306.09 32.12.65-15.16 28.22-6.33-11.74z" fill="#fff"/><path d="m424.33 371.62-36.77-1.06 17.28-32.25 7.4 13.77z" fill="#fff"/><path d="m441 277.66 17.65 28.43-25.95-.53-9.04.24z" fill="#fff"/><path d="m441.14 372.11 13.14-.42-14.96 24.17-14.99-24.24z" fill="#fff"/><path d="m469.28 323.22 6.33 11.74-9.2 17.12-12.13 19.61-13.14.42-16.81-.49-12.09-19.54-7.4-13.77 8.03-15 10.79-17.51 9.04-.24 25.95.53z" fill="#fff"/><path d="m475.61 334.96 19.11 35.44-40.44 1.29 12.13-19.61z" fill="#fff"/><path d="m404.84 338.31-16.97-31.57 35.79-.94-10.79 17.51z" fill="#fff"/><path d="m748.18 196v58h-.18-581.89l-.53-58h582.42z" fill="#0071bc"/><path d="m748.18 177.46v18.54h-.18-582.42l-.51-55.66h583.11z" fill="#fff"/><path d="m162.61 114.42c-5.96 2.8-13.07 4.43-20.69 4.43-7.3 0-14.12-1.49-19.92-4.08-10.99-4.89-18.33-13.72-18.33-23.8 0-15.4 17.13-27.88 38.25-27.88 21.13 0 38.26 12.48 38.26 27.88 0 9.84-7 18.49-17.57 23.45z" fill="#c8c8c8"/><g fill="none"><path d="m165.07 140.34h583.11v37.12 18.54 58 162 52.7 10.9 40.57h-579.62" stroke="#231f20" stroke-width="21"/><path d="m122 114.77c-10.99-4.89-18.33-13.72-18.33-23.8 0-15.4 17.13-27.88 38.25-27.88 21.13 0 38.26 12.48 38.26 27.88 0 9.84-7 18.49-17.57 23.45-5.96 2.8-13.07 4.43-20.69 4.43-7.3 0-14.12-1.49-19.92-4.08z" stroke="#231f20" stroke-width="21"/><path d="m122 114v.77l1.12 670.61" stroke="#231f20" stroke-width="21"/><path d="m162.61 112.6v1.82 81.58 58 162 52.7 316.68" stroke="#231f20" stroke-width="21"/><path d="m744.76 179.39 3.42-1.93 2.01-1.14" stroke="#231f20" stroke-width="14"/><path d="m751.2 481.38-3.02-1.78-7.12-4.19" stroke="#231f20" stroke-width="14"/><path d="m164 254h2.11 581.89" stroke="#231f20" stroke-width="14"/><path d="m164 416h3.6 580.58 1.82" stroke="#231f20" stroke-width="14"/><path d="m165.74 468.7h2.35 577.53" stroke="#231f20" stroke-width="14"/><path d="m162 196h.61 2.97 582.42" stroke="#231f20" stroke-width="14"/><path d="m423.66 305.8 9.04-.24 25.95.53 32.12.65-15.16 28.22-9.2 17.12-12.13 19.61-14.96 24.17-14.99-24.24-12.09-19.54-7.4-13.77-16.97-31.57z" stroke="#0071bc" stroke-width="14"/><path d="m454.28 371.69-13.14.42-16.81-.49-36.77-1.06 17.28-32.25 8.03-15 10.79-17.51 17.34-28.14 17.65 28.43 10.63 17.13 6.33 11.74 19.11 35.44z" stroke="#0071bc" stroke-width="14"/><path d="m0 0h850.394v850.394h-850.394z"/></g></svg>