<svg enable-background="new 0 0 850.394 850.394" height="850.394" viewBox="0 0 850.394 850.394" width="850.394" xmlns="http://www.w3.org/2000/svg"><path d="m162.61 114.42v670.96h-39.49l-1.12-670.61c5.8 2.59 12.62 4.08 19.92 4.08 7.62 0 14.73-1.63 20.69-4.43z" fill="#c8c8c8"/><path d="m748.18 177.46v342.71h-112.18v-.17-6-372-1.66h112.18z" fill="#394ea1"/><path d="m636 520.17h-467.44l-3.49-379.83h130.38v3.58l7.77 6.73-3.82 16.42 14.44-8.71 14.43 8.71-3.82-16.42 11.9-10.31h9.91l285.74 373.66h4v6zm-65.17-5.95 19.15-.21-1-4.31 10.26-8.891-13.53-1.159-5.28-12.511-5.29 12.511-13.529 1.159 10.27 8.891zm-15.85-43.52 10.26-8.891-13.53-1.159-5.28-12.511-5.29 12.511-13.529 1.159 10.27 8.891-3.08 13.229 11.63-7.01 11.62 7.01zm-36.55-45.14 10.261-8.89-13.521-1.16-5.29-12.51-5.28 12.51-13.529 1.16 10.26 8.89-3.08 13.22 11.63-7.011 11.63 7.011zm-31.85-38.33 10.11-8.76-13.33-1.15-5.21-12.32-5.2 12.32-13.33 1.15 10.11 8.76-3.03 13.03 11.45-6.91 11.46 6.91zm-33.01-43.79 11.12-9.63-14.65-1.26-5.73-13.55-5.729 13.55-14.66 1.26 11.12 9.63-3.33 14.33 12.6-7.59 12.601 7.59zm-33.97-48.06 11.09-9.61-14.621-1.25-5.709-13.52-5.71 13.52-14.62 1.25 11.09 9.61-3.33 14.3 12.57-7.58 12.57 7.58zm-31.69-45.44 11.12-9.63-14.66-1.26-5.73-13.55-5.72 13.55-14.66 1.26 11.12 9.63-3.34 14.33 12.6-7.59 12.6 7.59zm-32.91-44.23 11.69-10.14-15.41-1.32-6.02-14.25-6.02 14.25-15.42 1.32 11.69 10.14-3.5 15.06 13.25-7.99 13.25 7.99z" fill="#394ea1"/><path d="m636 142v372h-4l-285.74-373.66h289.74z" fill="#fbed24"/><path d="m599.24 500.81-10.26 8.89 1 4.31-19.15.21 1.05-4.52-10.27-8.89 13.53-1.16 5.29-12.51 5.28 12.51z" fill="#fff"/><path d="m565.24 461.81-10.26 8.89 3.07 13.23-11.62-7.01-11.63 7.01 3.08-13.23-10.27-8.89 13.53-1.16 5.29-12.51 5.28 12.51z" fill="#fff"/><path d="m528.69 416.67-10.26 8.89 3.08 13.22-11.63-7.01-11.63 7.01 3.08-13.22-10.26-8.89 13.53-1.16 5.28-12.51 5.29 12.51z" fill="#fff"/><path d="m496.69 378.47-10.11 8.76 3.03 13.03-11.46-6.91-11.45 6.91 3.03-13.03-10.11-8.76 13.33-1.15 5.2-12.32 5.21 12.32z" fill="#fff"/><path d="m464.69 333.81-11.12 9.63 3.34 14.33-12.6-7.59-12.6 7.59 3.33-14.33-11.12-9.63 14.66-1.26 5.73-13.55 5.73 13.55z" fill="#fff"/><path d="m430.69 285.77-11.09 9.61 3.33 14.3-12.57-7.58-12.57 7.58 3.33-14.3-11.09-9.61 14.62-1.25 5.71-13.52 5.71 13.52z" fill="#fff"/><path d="m399.03 240.31-11.12 9.63 3.33 14.33-12.6-7.59-12.6 7.59 3.34-14.33-11.12-9.63 14.66-1.26 5.72-13.55 5.73 13.55z" fill="#fff"/><path d="m366.69 195.57-11.69 10.14 3.51 15.06-13.25-7.99-13.25 7.99 3.5-15.06-11.69-10.14 15.42-1.32 6.02-14.25 6.02 14.25z" fill="#fff"/><path d="m336.35 140.34-11.9 10.31 3.82 16.42-14.43-8.71-14.44 8.71 3.82-16.42-7.77-6.73v-3.58z" fill="#fff"/><path d="m122 114.77c-10.99-4.89-18.33-13.72-18.33-23.8 0-15.4 17.13-27.88 38.25-27.88 21.13 0 38.26 12.48 38.26 27.88 0 9.84-7 18.49-17.57 23.45-5.96 2.8-13.07 4.43-20.69 4.43-7.3 0-14.12-1.49-19.92-4.08z" fill="#c8c8c8"/><g fill="none"><path d="m165.07 140.34h130.38 40.9 9.91 289.74 112.18v37.12 342.71h-112.18-467.44" stroke="#231f20" stroke-width="21"/><path d="m122 114.77c-10.99-4.89-18.33-13.72-18.33-23.8 0-15.4 17.13-27.88 38.25-27.88 21.13 0 38.26 12.48 38.26 27.88 0 9.84-7 18.49-17.57 23.45-5.96 2.8-13.07 4.43-20.69 4.43-7.3 0-14.12-1.49-19.92-4.08z" stroke="#231f20" stroke-width="21"/><path d="m122 114v.77l1.12 670.61" stroke="#231f20" stroke-width="21"/><path d="m162.61 112.6v1.82 670.96" stroke="#231f20" stroke-width="21"/><path d="m744.76 179.39 3.42-1.93 2.01-1.14" stroke="#231f20" stroke-width="14"/><path d="m636 142v372 6" stroke="#231f20" stroke-width="14"/><path d="m346 140 .26.34 285.74 373.66" stroke="#231f20" stroke-width="14"/><path d="m345.26 212.78-13.25 7.99 3.5-15.06-11.69-10.14 15.42-1.32 6.02-14.25 6.02 14.25 15.41 1.32-11.69 10.14 3.51 15.06z" stroke="#231f20" stroke-width="5.0599"/><path d="m337.19 139.61-.84.73-11.9 10.31 3.82 16.42-14.43-8.71-14.44 8.71 3.82-16.42-7.77-6.73" stroke="#231f20" stroke-width="5.5133"/><path d="m378.64 256.68-12.6 7.59 3.34-14.33-11.12-9.63 14.66-1.26 5.72-13.55 5.73 13.55 14.66 1.26-11.12 9.63 3.33 14.33z" stroke="#231f20" stroke-width="4.8117"/><path d="m410.36 302.1-12.57 7.58 3.33-14.3-11.09-9.61 14.62-1.25 5.71-13.52 5.71 13.52 14.62 1.25-11.09 9.61 3.33 14.3z" stroke="#231f20" stroke-width="4.7997"/><path d="m444.31 350.18-12.6 7.59 3.33-14.33-11.12-9.63 14.66-1.26 5.73-13.55 5.73 13.55 14.65 1.26-11.12 9.63 3.34 14.33z" stroke="#231f20" stroke-width="4.8117"/><path d="m478.15 393.35-11.45 6.91 3.03-13.03-10.11-8.76 13.33-1.15 5.2-12.32 5.21 12.32 13.33 1.15-10.11 8.76 3.03 13.03z" stroke="#231f20" stroke-width="4.3761"/><path d="m509.88 431.77-11.63 7.01 3.08-13.22-10.26-8.89 13.53-1.16 5.28-12.51 5.29 12.51 13.52 1.16-10.26 8.89 3.08 13.22z" stroke="#231f20" stroke-width="4.4407"/><path d="m546.43 476.92-11.63 7.01 3.08-13.23-10.27-8.89 13.53-1.16 5.29-12.51 5.28 12.51 13.53 1.16-10.26 8.89 3.07 13.23z" stroke="#231f20" stroke-width="4.4407"/><path d="m570.83 514.22 1.05-4.52-10.27-8.89 13.53-1.16 5.29-12.51 5.28 12.51 13.53 1.16-10.26 8.89 1 4.31" stroke="#231f20" stroke-width="4.4407"/><path d="m0 0h850.394v850.394h-850.394z"/></g></svg>