<svg enable-background="new 0 0 850.394 850.394" height="850.394" viewBox="0 0 850.394 850.394" width="850.394" xmlns="http://www.w3.org/2000/svg"><path d="m162.61 312v36 36 30 32 34 305.38h-39.49l-1.12-670.61c5.8 2.59 12.62 4.08 19.92 4.08 7.62 0 14.73-1.63 20.69-4.43v163.58z" fill="#c8c8c8"/><path d="m748.18 312v36h-.18-581.02l-.33-36h579.35z" fill="#fff"/><path d="m748.18 480v40.17h-579.62l-.37-40.17h577.81z" fill="#ed1e29"/><path d="m748.18 446v34h-2.18-577.81l-.31-34h578.12z" fill="#fff"/><path d="m748.18 414v32h-2.18-578.12l-.3-32h580.42z" fill="#ed1e29"/><path d="m748.18 384v30h-.18-580.42l-.27-30z" fill="#fff"/><path d="m748.18 348v36h-580.87l-.33-36h581.02z" fill="#ed1e29"/><path d="m748.18 278v34h-2.18-579.35l-.32-34h189.67 392z" fill="#ed1e29"/><path d="m748.18 241.98v36.02h-.18-392v-2-36h4z" fill="#fff"/><path d="m748.18 210v31.98l-388.18-1.98h-4v-30h2z" fill="#ed1e29"/><path d="m748.18 177.46v32.54h-390.18-2v-36h2l390.18 2.31z" fill="#fff"/><path d="m748.18 140.34v35.97l-390.18-2.31h-2v-33.66z" fill="#ed1e29"/><path d="m356 276v2h-189.67l-1.26-137.66h190.93v33.66 36 30zm-65.74-53.35 24.91-24.27-34.42-5-15.39-31.19-15.39 31.19-34.41 5 24.9 24.27-5.88 34.28 30.78-16.18 30.78 16.18z" fill="#394ea1"/><path d="m315.17 198.38-24.91 24.27 5.88 34.28-30.78-16.18-30.78 16.18 5.88-34.28-24.9-24.27 34.41-5 15.39-31.19 15.39 31.19z" fill="#fff"/><path d="m122 114.77c-10.99-4.89-18.33-13.72-18.33-23.8 0-15.4 17.13-27.88 38.25-27.88 21.13 0 38.26 12.48 38.26 27.88 0 9.84-7 18.49-17.57 23.45-5.96 2.8-13.07 4.43-20.69 4.43-7.3 0-14.12-1.49-19.92-4.08z" fill="#c8c8c8"/><g fill="none"><path d="m165.07 140.34h190.93 392.18v35.97 1.15 32.54 31.98 36.02 34 36 36 30 32 34 40.17h-579.62" stroke="#231f20" stroke-width="14"/><path d="m122 114.77c-10.99-4.89-18.33-13.72-18.33-23.8 0-15.4 17.13-27.88 38.25-27.88 21.13 0 38.26 12.48 38.26 27.88 0 9.84-7 18.49-17.57 23.45-5.96 2.8-13.07 4.43-20.69 4.43-7.3 0-14.12-1.49-19.92-4.08z" stroke="#231f20" stroke-width="21"/><path d="m122 114v.77l1.12 670.61" stroke="#231f20" stroke-width="21"/><path d="m162.61 112.6v1.82 163.58 34 36 36 30 32 34 305.38" stroke="#231f20" stroke-width="21"/><path d="m744.76 179.39 3.42-1.93 2.01-1.14" stroke="#231f20" stroke-width="14"/><path d="m358 174 390.18 2.31 2.01.01" stroke="#231f20" stroke-width="7"/><path d="m358 210h390.18 1.82" stroke="#231f20" stroke-width="7"/><path d="m360 240 388.18 1.98 3.82.02" stroke="#231f20" stroke-width="7"/><path d="m164 278h2.33 189.67 392" stroke="#231f20" stroke-width="7"/><path d="m162 312h.61 4.04 579.35" stroke="#231f20" stroke-width="7"/><path d="m164 348h2.98 581.02" stroke="#231f20" stroke-width="7"/><path d="m164 384h3.31 580.87 1.82" stroke="#231f20" stroke-width="7"/><path d="m164 414h3.58 580.42" stroke="#231f20" stroke-width="7"/><path d="m162 446h.61 5.27 578.12" stroke="#231f20" stroke-width="7"/><path d="m164 480h4.19 577.81" stroke="#231f20" stroke-width="7"/><path d="m356 138v2.34 33.66 36 30 36" stroke="#231f20" stroke-width="7"/><path d="m265.36 162.19 15.39 31.19 34.42 5-24.91 24.27 5.88 34.28-30.78-16.18-30.78 16.18 5.88-34.28-24.9-24.27 34.41-5z" stroke="#231f20" stroke-width="7.8938"/><path d="m0 0h850.394v850.394h-850.394z"/></g></svg>