<svg enable-background="new 0 0 850.394 850.394" height="850.394" viewBox="0 0 850.394 850.394" width="850.394" xmlns="http://www.w3.org/2000/svg"><path d="m388.39 321.84c0 2.07-1.57 3.73-3.51 3.73s-3.51-1.66-3.51-3.73c0-2.06 1.57-3.73 3.51-3.73s3.51 1.67 3.51 3.73z" fill="#fff"/><path d="m160.56 422.59h5.11 582.98 2.05v98.33l-590.14-.92z" fill="#ed1d31"/><path d="m411.89 392.59h20.74v7.9h-20.74z" fill="#a9d7f3"/><path d="m427.24 359.54c3.06 1.23 6.14 3.17 6.72 5.97.71 3.35-3.13 9.76-6.72 11.17z" fill="#fbee34"/><path d="m435.67 344.03c-.93 2.74-4.5 4.25-8.43 5.19v-12.42c5.78.98 9.8 3.2 8.43 7.23z" fill="#fbee34"/><path d="m427.24 336.8c-3.35-.58-7.3-.75-11.12-.6v-18.16h1.03 9.61.48z" fill="#fff"/><path d="m423.13 358.26c-2.02-.45-4.77-.53-7.01-1.24v-6.03c.17-.04.35-.07.52-.1 2.32-.4 6.64-.74 10.6-1.67v10.32c-1.47-.59-2.94-1.01-4.11-1.28z" fill="#fff"/><path d="m423.13 358.26c1.17.27 2.64.69 4.11 1.28v17.14 14.59h-11.12v-34.25c2.24.71 4.99.79 7.01 1.24z" fill="#fff"/><path d="m421.82 300.36c2.17-3.83 9.32-1.26 8.45 5.93-.409 3.49-3.51 11.12-3.51 11.12v.63h-9.61v-.55s-3.1-7.64-3.52-11.12c-.86-7.27 6.05-9.88 8.13-5.91-.02.03-.03.06-.05.09h.11z" fill="#ed1d31"/><path d="m416.12 336.2c3.82-.15 7.77.02 11.12.6v12.42c-3.96.93-8.28 1.27-10.6 1.67-.17.03-.35.06-.52.1z" fill="#fff"/><path d="m396.14 332.45-.73-10.98 2.2-5.55h4.24v22.7 13.73h-15.36v-4.1l4.39-4.97c-.52-.67-.94-1.23-1.33-1.75l.01-.01-.99-3.03.11-.04z" fill="#fff"/><path d="m401.85 367.72s-1.16 8.1-7.73 17.26c1.26-2.39 1.52-4.2 1.52-4.2v-21.19l-23.24.05c.95-2.12 1.5-4.62 1.5-7.29h12.59 15.36z" fill="#ed1d31"/><path d="m395.64 359.59v21.19s-.26 1.81-1.52 4.2c0 .01-.01.03-.02.04-1.44 1.98-3.12 4.02-5.09 6.03-.03.02-.05.04-.08.06-2.7 2.07-7.08 2.52-7.08 2.52s-4.43-.39-7.13-2.48c-5.89-4.54-6.71-10.32-6.71-10.32v-15.29l-.71-.14c.16-.08.31-.16.46-.25v-.01c1.93-1.13 3.55-3.06 4.64-5.5z" fill="#f6cc4b"/><path d="m390.88 343.28-4.39 4.97v4.1h-12.59c0-4.79-1.77-9.03-4.45-11.52l5.62-.18 3.51 2.33 7.32-6.29c1.77 2.22 2.53 3.32 3.65 4.84.39.52.81 1.08 1.33 1.75z" fill="#fff"/><path d="m386.57 272.67c14.7-2.19 16.68 10.54 15.14 15.15-.96 2.88-5.69 8.19-9.11 11.77l-.54-.8-10.46-11.54.58-.53s4.06-7.82 2.94-13.77z" fill="#ed1d31"/><path d="m385.12 272.95c1.12 5.95-2.94 13.77-2.94 13.77l-.58.53-.08-.09-7.68 3.73-8.34-3.51s-.43-3.02-.44-12.51c0-.07 0-.15 0-.22 0-8.12 7.02-10.1 14.7-7.68 3.36 1.05 4.88 3.33 5.36 5.98z" fill="#ed1d31"/><path d="m389.55 341.53c-1.12-1.52-1.88-2.62-3.65-4.84l-7.32 6.29-3.51-2.33-5.62.18c-1.56-1.46-3.44-2.33-5.46-2.38l.01-.45v-28-.1l37.85-.07v6.09h-4.24l-2.2 5.55.73 10.98-7.46 6-.11.04.99 3.03zm-4.67-15.96c1.94 0 3.51-1.66 3.51-3.73 0-2.06-1.57-3.73-3.51-3.73s-3.51 1.67-3.51 3.73c0 2.07 1.57 3.73 3.51 3.73z" fill="#fff"/><path d="m369.45 340.83c2.68 2.49 4.45 6.73 4.45 11.52h-20.19c0-7.67 4.52-13.9 10.1-13.9h.18c2.02.05 3.9.92 5.46 2.38z" fill="#2c308c"/><path d="m392.6 299.59c-2.04 2.15-3.62 3.67-3.62 3.67l-48.59.22s-1.85-1.79-4.15-4.22l1.08-.25 10.46-11.55.07-.08 7.69 3.73 8.34-3.51s.44-3.07.44-12.73h.74c.01 9.49.44 12.51.44 12.51l8.34 3.51 7.68-3.73.08.09 10.46 11.54z" fill="#fbee34"/><path d="m389.01 391.05c-1.63 1.66-3.46 3.3-5.51 4.88-7.38 5.7-19.33 6.92-19.33 6.92s-.16-.01-.46-.05v-36.55h.1c1.23 0 2.4-.3 3.49-.85l.71.14v15.29s.82 5.78 6.71 10.32c2.7 2.09 7.13 2.48 7.13 2.48s4.38-.45 7.08-2.52c.03-.02.05-.04.08-.06z" fill="#ed1d31"/><path d="m363.71 402.8c-1.37-.16-5.65-.74-10.26-2.29l.48-1.5v-43.8c.95 6.26 4.96 10.97 9.78 11.04z" fill="#ed1d31"/><path d="m364.1 272.54c.14.71.22 1.49.22 2.33 0 9.66-.44 12.73-.44 12.73l-8.34 3.51-7.69-3.73-.07.08-.58-.52s-4.06-7.82-2.94-13.77c.48-2.65 2-4.93 5.35-5.98 6.88-2.17 13.24-.81 14.49 5.35z" fill="#ed1d31"/><path d="m336.44 328.65h17.56v18.21h-17.56z" fill="#f6cc4b"/><path d="m372.4 359.64c-1.09 2.44-2.71 4.37-4.64 5.5v.01c-.15.09-.3.17-.46.25-1.09.55-2.26.85-3.49.85-.03 0-.07 0-.1 0-4.82-.07-8.83-4.78-9.78-11.04-.15-.92-.22-1.88-.22-2.86h20.19c0 2.67-.55 5.17-1.5 7.29z" fill="#2c308c"/><path d="m353.93 399.01-.48 1.5c-3.02-1.01-6.18-2.45-8.76-4.44-.75-.58-1.48-1.17-2.17-1.77l1.48-.3.15-41.65h9.56c0 .98.07 1.94.22 2.86z" fill="#fbee34"/><path d="m363.81 338.45c-5.58 0-10.1 6.23-10.1 13.9h-9.56-8.78-8.73-.3v-13.36-29.02l37.66-.07v.1 28l-.01.45c-.06 0-.12 0-.18 0zm-9.81-9.8h-17.56v18.21h17.56z" fill="#ed1d31"/><path d="m344 394-1.48.3c-4.17-3.57-7.29-7.33-9.61-10.87l2.46-.13v-30.29-.66h8.78z" fill="#ed1d31"/><path d="m327.66 288.04c-1.54-4.61.44-17.34 15.15-15.15l1.45.28c-1.12 5.95 2.94 13.77 2.94 13.77l.58.52-10.46 11.55-1.08.25c-3.35-3.55-7.67-8.48-8.58-11.22z" fill="#ed1d31"/><path d="m335.37 383.3-2.46.13c-5.55-8.44-6.57-15.57-6.57-15.57v-15.51h.3 8.73v.66z" fill="#fbee34"/><path d="m295.78 392.59h20.74v7.9h-20.74z" fill="#a9d7f3"/><path d="m305.29 358.26c2.02-.45 4.77-.53 7.01-1.24v34.25h-11.12v-14.59-17.14c1.47-.59 2.93-1.01 4.11-1.28z" fill="#fff"/><path d="m311.27 318.04h1.03v18.11c-3.79-.17-7.75-.03-11.12.54v-18.65h.47z" fill="#fff"/><path d="m301.18 336.69c3.37-.57 7.33-.71 11.12-.54v14.84c-.17-.04-.35-.07-.52-.1-2.31-.4-6.63-.74-10.6-1.67z" fill="#fff"/><path d="m306.65 300.46c2.09-3.97 9-1.36 8.13 5.91-.42 3.48-3.51 11.12-3.51 11.12v.55h-9.62v-.63s-3.09-7.63-3.51-11.12c-.87-7.19 6.28-9.76 8.45-5.93v.19h.11c-.02-.03-.03-.06-.05-.09z" fill="#ed1d31"/><path d="m432.63 392.59h-20.74v7.9h20.74zm-19-86.22c.42 3.48 3.52 11.12 3.52 11.12v.55h-1.03v18.16 14.79c-2.73.63-5.27 2.58-2.18 4.95.62.48 1.37.82 2.18 1.08v34.25h11.12v-14.59c3.59-1.41 7.43-7.82 6.72-11.17-.58-2.8-3.66-4.74-6.72-5.97v-10.32c3.93-.94 7.5-2.45 8.43-5.19 1.37-4.03-2.65-6.25-8.43-7.23v-18.76h-.48v-.63s3.101-7.63 3.51-11.12c.87-7.19-6.279-9.76-8.45-5.93-.03.03-.04.06-.06.1-2.08-3.97-8.99-1.36-8.13 5.91zm-247.96-69.03h584.74.29v185.25h-2.05-582.98-5.11v-185.25zm150.85 155.25h-20.74v7.9h20.74zm-4.22-56.44v-18.11h-1.03v-.55s3.09-7.64 3.51-11.12c.87-7.27-6.04-9.88-8.13-5.91-.02-.04-.03-.07-.06-.1-2.17-3.83-9.32-1.26-8.45 5.93.42 3.49 3.51 11.12 3.51 11.12v.63h-.47v18.65c-5.78.98-9.84 3.23-8.44 7.34.94 2.74 4.51 4.26 8.44 5.19v10.32c-3.07 1.22-6.15 3.17-6.73 5.97-.71 3.35 3.13 9.76 6.73 11.17v14.59h11.12v-34.25c.82-.26 1.56-.61 2.18-1.08 3.08-2.37.55-4.32-2.18-4.95zm32.39 59.92c2.58 1.99 5.74 3.43 8.76 4.44 4.61 1.55 8.89 2.13 10.26 2.29.3.04.46.05.46.05s11.95-1.22 19.33-6.92c2.05-1.58 3.88-3.22 5.51-4.88 2.53-1.98 4.11-4.18 5.09-6.03.01-.01.02-.03.02-.04 6.57-9.16 7.73-17.26 7.73-17.26v-15.37-13.73-22.7-6.09l-37.85.07-37.66.07v29.02 13.36 15.51s1.02 7.13 6.57 15.57c2.32 3.54 5.44 7.3 9.61 10.87.69.6 1.42 1.19 2.17 1.77zm41.88-123.4-1.45.28c-.48-2.65-2-4.93-5.36-5.98-7.68-2.42-14.7-.44-14.7 7.68v.22h-.74c0-.84-.08-1.62-.22-2.33-1.25-6.16-7.61-7.52-14.49-5.35-3.35 1.05-4.87 3.33-5.35 5.98l-1.45-.28c-14.71-2.19-16.69 10.54-15.15 15.15.91 2.74 5.23 7.67 8.58 11.22 2.3 2.43 4.15 4.22 4.15 4.22l48.59-.22s1.58-1.52 3.62-3.67c3.42-3.58 8.15-8.89 9.11-11.77 1.54-4.61-.44-17.34-15.14-15.15z" fill="#fbee34"/><path d="m301.18 349.22c3.97.93 8.29 1.27 10.6 1.67.17.03.35.06.52.1v6.03c-2.24.71-4.99.79-7.01 1.24-1.18.27-2.64.69-4.11 1.28z" fill="#fff"/><path d="m292.74 344.03c-1.4-4.11 2.66-6.36 8.44-7.34v12.53c-3.93-.93-7.5-2.45-8.44-5.19z" fill="#fbee34"/><path d="m294.45 365.51c.58-2.8 3.66-4.75 6.73-5.97v17.14c-3.6-1.41-7.44-7.82-6.73-11.17z" fill="#fbee34"/><path d="m139.71 60.28c21.29 0 38.55 12.58 38.55 28.09 0 9.92-7.05 18.64-17.7 23.63-6.01 2.83-13.16 4.47-20.85 4.47-7.21 0-13.95-1.44-19.71-3.95-11.28-4.9-18.84-13.88-18.84-24.15 0-15.51 17.26-28.09 38.55-28.09z" fill="#c8c8c8"/><path d="m160.56 138.12h2.48 587.66v99.22h-.29-584.74-5.11z" fill="#ed1d31"/><path d="m120.01 118-.01-5.48c5.76 2.51 12.5 3.95 19.71 3.95 7.69 0 14.84-1.64 20.85-4.47v26.12 99.22 185.25 97.41 264h-2.56-37.25z" fill="#c8c8c8"/><g fill="none"><path d="m163.04 138.12h587.66v99.22 185.25 98.33l-590.14-.92h-.56" stroke="#231f20" stroke-width="21"/><path d="m120 112.52c-11.28-4.9-18.84-13.88-18.84-24.15 0-15.51 17.26-28.09 38.55-28.09s38.55 12.58 38.55 28.09c0 9.92-7.05 18.64-17.7 23.63-6.01 2.83-13.16 4.47-20.85 4.47-7.21 0-13.95-1.44-19.71-3.95z" stroke="#231f20" stroke-width="21"/><path d="m120.01 118 .74 666v4.2" stroke="#231f20" stroke-width="21"/><path d="m120 112.52.01 5.48" stroke="#231f20" stroke-width="21"/><path d="m160.56 110.17v1.83 26.12 99.22 185.25 97.41 264 4.2" stroke="#231f20" stroke-width="21"/><path d="m394.12 384.98c6.57-9.16 7.73-17.26 7.73-17.26v-15.37-13.73-22.7-6.09l-37.85.07-37.66.07v29.02 13.36 15.51s1.02 7.13 6.57 15.57c2.32 3.54 5.44 7.3 9.61 10.87.69.6 1.42 1.19 2.17 1.77 2.58 1.99 5.74 3.43 8.76 4.44 4.61 1.55 8.89 2.13 10.26 2.29.3.04.46.05.46.05s11.95-1.22 19.33-6.92c2.05-1.58 3.88-3.22 5.51-4.88 1.97-2.01 3.65-4.05 5.09-6.03" stroke="#231f20" stroke-width="5.2679"/><path d="m368.01 365.54v15.29s.82 5.78 6.71 10.32c2.7 2.09 7.13 2.48 7.13 2.48s4.38-.45 7.08-2.52c.03-.02.05-.04.08-.06 2.53-1.98 4.11-4.18 5.09-6.03.01-.01.02-.03.02-.04 1.26-2.39 1.52-4.2 1.52-4.2v-21.19l-23.24.05h-.19" stroke="#231f20" stroke-width="3.5119"/><path d="m312.3 357.02v34.25h-11.12v-14.59-17.14-10.32-12.53-18.65h.47 9.62 1.03v18.11 14.84z" stroke="#231f20" stroke-width="5.2679"/><path d="m295.78 392.59h20.74v7.9h-20.74z" stroke="#231f20" stroke-width="5.2679"/><path d="m326.64 352.35h8.73 8.78 9.56 20.19 12.59 15.36.3" stroke="#231f20" stroke-width="5.2679"/><path d="m373.9 352.35c0 2.67-.55 5.17-1.5 7.29-1.09 2.44-2.71 4.37-4.64 5.5v.01c-.15.09-.3.17-.46.25-1.09.55-2.26.85-3.49.85-.03 0-.07 0-.1 0-4.82-.07-8.83-4.78-9.78-11.04-.15-.92-.22-1.88-.22-2.86 0-7.67 4.52-13.9 10.1-13.9h.18c2.02.05 3.9.92 5.46 2.38 2.68 2.49 4.45 6.73 4.45 11.52z" stroke="#231f20" stroke-width="5.2679"/><path d="m326.45 339.07c-.04-.03-.07-.06-.11-.08-1.98-1.44-7.78-2.56-14.04-2.84-3.79-.17-7.75-.03-11.12.54-5.78.98-9.84 3.23-8.44 7.34.94 2.74 4.51 4.26 8.44 5.19 3.97.93 8.29 1.27 10.6 1.67.17.03.35.06.52.1 2.73.63 5.26 2.58 2.18 4.95-.62.47-1.36.82-2.18 1.08-2.24.71-4.99.79-7.01 1.24-1.18.27-2.64.69-4.11 1.28-3.07 1.22-6.15 3.17-6.73 5.97-.71 3.35 3.13 9.76 6.73 11.17.3.12.59.21.88.25" stroke="#231f20" stroke-width="5.2679"/><path d="m311.27 317.49s3.09-7.64 3.51-11.12c.87-7.27-6.04-9.88-8.13-5.91-.03.03-.04.06-.06.09h.11c-.02-.03-.03-.06-.05-.09-.02-.04-.03-.07-.06-.1-2.17-3.83-9.32-1.26-8.45 5.93.42 3.49 3.51 11.12 3.51 11.12" stroke="#231f20" stroke-width="5.2679"/><path d="m306.59 294.4v5.96.19" stroke="#231f20" stroke-linecap="round" stroke-linejoin="round" stroke-width="5.2679"/><path d="m416.12 357.02v34.25h11.12v-14.59-17.14-10.32-12.42-18.76h-.48-9.61-1.03v18.16 14.79z" stroke="#231f20" stroke-width="5.2679"/><path d="m411.89 392.59h20.74v7.9h-20.74z" stroke="#231f20" stroke-width="5.2679"/><path d="m400.9 339.18c.25-.19.57-.38.95-.56 2.63-1.26 8.3-2.21 14.27-2.42 3.82-.15 7.77.02 11.12.6 5.779.98 9.8 3.2 8.43 7.23-.93 2.74-4.5 4.25-8.43 5.19-3.96.93-8.28 1.27-10.6 1.67-.17.03-.35.06-.52.1-2.73.63-5.27 2.58-2.18 4.95.62.48 1.37.82 2.18 1.08 2.24.71 4.99.79 7.01 1.24 1.17.27 2.64.69 4.11 1.28 3.06 1.23 6.14 3.17 6.72 5.97.71 3.35-3.13 9.76-6.72 11.17-.3.12-.59.21-.88.25" stroke="#231f20" stroke-width="5.2679"/><path d="m417.15 317.49s-3.1-7.64-3.52-11.12c-.86-7.27 6.05-9.88 8.13-5.91.03.03.04.06.06.09h-.11c.02-.03.03-.06.05-.09.02-.04.03-.07.06-.1 2.17-3.83 9.32-1.26 8.45 5.93-.409 3.49-3.51 11.12-3.51 11.12" stroke="#231f20" stroke-width="5.2679"/><path d="m421.82 294.4v5.96.19" stroke="#231f20" stroke-linecap="round" stroke-linejoin="round" stroke-width="5.2679"/><path d="m335.37 353.01v30.29" stroke="#231f20" stroke-linecap="round" stroke-linejoin="round" stroke-width="5.2679"/><path d="m344.15 352.11v.24l-.15 41.65" stroke="#231f20" stroke-linecap="round" stroke-linejoin="round" stroke-width="5.2679"/><path d="m353.93 354.67v.54 43.8" stroke="#231f20" stroke-linecap="round" stroke-linejoin="round" stroke-width="5.2679"/><path d="m363.71 366.08v.17 36.55.16" stroke="#231f20" stroke-linecap="round" stroke-linejoin="round" stroke-width="5.2679"/><path d="m337.32 299.01 10.46-11.55.07-.08 7.69 3.73 8.34-3.51s.44-3.07.44-12.73c0-.84-.08-1.62-.22-2.33-1.25-6.16-7.61-7.52-14.49-5.35-3.35 1.05-4.87 3.33-5.35 5.98-1.12 5.95 2.94 13.77 2.94 13.77" stroke="#231f20" stroke-width="5.2679"/><path d="m386.57 272.67c14.7-2.19 16.68 10.54 15.14 15.15-.96 2.88-5.69 8.19-9.11 11.77-2.04 2.15-3.62 3.67-3.62 3.67l-48.59.22s-1.85-1.79-4.15-4.22c-3.35-3.55-7.67-8.48-8.58-11.22-1.54-4.61.44-17.34 15.15-15.15" stroke="#231f20" stroke-width="5.2679"/><path d="m392.06 298.79-10.46-11.54-.08-.09-7.68 3.73-8.34-3.51s-.43-3.02-.44-12.51c0-.07 0-.15 0-.22 0-8.12 7.02-10.1 14.7-7.68 3.36 1.05 4.88 3.33 5.36 5.98 1.12 5.95-2.94 13.77-2.94 13.77" stroke="#231f20" stroke-width="5.2679"/><path d="m364.1 259.07v13.47.57" stroke="#231f20" stroke-linecap="round" stroke-linejoin="round" stroke-width="5.2679"/><path d="m336.44 328.65h17.56v18.21h-17.56z" stroke="#231f20" stroke-width="5.2679"/><path d="m345.11 316.24v11.64" stroke="#231f20" stroke-width="5.2679"/><path d="m338.75 321.07v6.59" stroke="#231f20" stroke-width="5.2679"/><path d="m351.48 321.07v6.59" stroke="#231f20" stroke-width="5.2679"/><path d="m388.39 321.84c0 2.07-1.57 3.73-3.51 3.73s-3.51-1.66-3.51-3.73c0-2.06 1.57-3.73 3.51-3.73s3.51 1.67 3.51 3.73z" stroke="#231f20" stroke-width="5.2679"/><path d="m370.1 319.43c.43.44 8.05 6.29 8.05 6.29l3.8-.73" stroke="#231f20" stroke-width="5.2679"/><path d="m371.27 332.74 13.31-5.41" stroke="#231f20" stroke-width="5.2679"/><path d="m385.9 336.69-7.32 6.29-3.51-2.33" stroke="#231f20" stroke-width="5.2679"/><path d="m380.63 329.81 5.05 6.6" stroke="#231f20" stroke-width="5.2679"/><path d="m386.49 348.25 4.39-4.97c-.52-.67-.94-1.23-1.33-1.75-1.12-1.52-1.88-2.62-3.65-4.84-.07-.09-.14-.18-.22-.28-.44-.56-.95-1.19-1.54-1.91" stroke="#231f20" stroke-width="5.2679"/><path d="m397.61 315.92-2.2 5.55.73 10.98-7.46 6" stroke="#231f20" stroke-width="3.5119"/><path d="m384.44 325.86 4.13 12.63.99 3.03" stroke="#231f20" stroke-width="5.2679"/><path d="m165.67 237.34h584.74" stroke="#231f20" stroke-width="7"/><path d="m165.67 422.59h582.98" stroke="#231f20" stroke-width="7"/><path d="m364 310v28" stroke="#231f20" stroke-width="5.268"/><path d="m0 0h850.394v850.394h-850.394z"/></g></svg>