<svg enable-background="new 0 0 850.394 850.394" height="850.394" viewBox="0 0 850.394 850.394" width="850.394" xmlns="http://www.w3.org/2000/svg"><path d="m742.53 120.61v605.52l-12.96 5.04-115.83-134.27h-.14v-345.97h.8l116.46-134.99z" fill="#fff5b4"/><path d="m730.86 115.94-116.46 134.99h-.8v-1.35h-379.72v.67l-115.3-133.64 6.86-2.94 299.1-.08h300.44z" fill="#fff"/><path d="m424.25 596.98h35.19 112.14 42.02v-.08h.14l115.83 134.27-7.93 3.08-297.9.08h-300.68l-3.03-5.38 113.85-131.97z" fill="#f6cc4b"/><path d="m424.25 596.98h-190.37v-346.73-.67h379.72v1.35 345.97.08h-42.02v-4.61-212.22h-112.14v212.22 4.61zm-43.82-118.36v-57.25-42.75h-56.12-56.03v100h56.03z" fill="#fff5b4"/><path d="m571.58 592.37v4.61h-112.14v-4.61-212.22h112.14z" fill="#9c5c25"/><path d="m233.88 250.25v346.73l-113.85 131.97-13.31-23.67v-583.59l11.86-5.08z" fill="#fff5b4"/><g fill="none"><path d="m613.6 596.9v.08h-42.02-112.14-35.19-190.37v-346.73-.67h379.72v1.35z" stroke="#231f20" stroke-width="18.3214"/><path d="m613.74 596.9 115.83 134.27 2.66 3.08h-10.59l-297.9.08h-300.68-7.67l4.64-5.38 113.85-131.97" stroke="#231f20" stroke-width="18.3214"/><path d="m234.54 251.02-.66-.77-115.3-133.64-2.53-2.94h9.39l299.1-.08h300.44 7.91l-2.03 2.35-116.46 134.99" stroke="#231f20" stroke-width="18.3214"/><path d="m106.72 105.68v16.01 583.59 37.05" stroke="#231f20" stroke-width="18.3214"/><path d="m742.53 105.51v15.1 605.52 16.03" stroke="#231f20" stroke-width="18.3214"/><path d="m380.43 421.37v57.25h-56.12-56.03v-100h56.03 56.12z" stroke="#231f20" stroke-width="18.3214"/><path d="m459.44 592.37v-212.22h112.14v212.22" stroke="#231f20" stroke-width="18.3214"/><path d="m324.31 380.15v41.22 51.91" stroke="#231f20" stroke-width="12.2142"/><path d="m324.31 421.37h56.12" stroke="#231f20" stroke-width="12.2142"/><path d="m424.25 508.19v88.79 98.54" stroke="#231f20" stroke-width="24.4285"/><path d="m479.04 634.28-54.99 62.43-54.98-62.53" stroke="#231f20" stroke-width="24.4285"/><path d="m712 738 9.64-3.75 7.93-3.08 12.96-5.04 5.47-2.13" stroke="#f6cc4b"/><path d="m0 0h850.394v850.394h-850.394z"/></g></svg>