<svg enable-background="new 0 0 850.394 850.394" height="850.394" viewBox="0 0 850.394 850.394" width="850.394" xmlns="http://www.w3.org/2000/svg"><path d="m458.82 546.402 47.684 220.812s-43.556 19.926-131.975 32.385l-11.003-82.242s-3.297-19.927-14.29-19.927h-3.172c-10.993 0-14.29 19.927-14.29 19.927l-11.003 82.242c-88.431-12.459-131.964-32.385-131.964-32.385l47.798-221.362 3.203.687h218.398z" fill="#fff"/><path d="m412.509 102.576-6.302-17.794.603-1.675 61.796 22.475 88.264 94.171-53.882 61.047-44.719-43.222.01 2.371-4.233.031z" fill="#fff"/><path d="m347.967 468.538v-295.7c23.836 1.549 48.942-16.203 64.542-70.262l41.537 117.404 4.233-.031 1.611 248.642z" fill="#0071bc"/><path d="m449.044 501.152 9.776 45.25-.614.136h-218.398l-3.203-.686 9.651-44.7z" fill="#fff"/><path d="m347.967 172.838c-30.534-1.986-58.978-35.63-62.722-65.249l8.643-20.727-1.269-3.671v-.01l11.918-4.098c-3.983 5.907-6.24 12.688-6.24 19.895 0 22.942 35.172 71.042 64.229 52.364 29.12-18.72 31.2-33.28 38.084-52.364 2.247-6.219 1.29-12.313-1.893-17.825l1.248-.531 6.843 2.486-.604 1.674 6.303 17.794c-15.598 54.059-40.703 71.811-64.54 70.262z" fill="#ed1e29"/><path d="m237.78 468.486 1.633-250.991 45.832-109.906c3.744 29.619 32.188 63.263 62.722 65.249v295.7z" fill="#fff"/><path d="m304.537 79.083c8.684-12.875 25.532-21.622 44.907-21.622 20.103 0 41.444 10.099 49.275 23.691 3.183 5.512 4.139 11.606 1.893 17.825-6.884 19.084-8.964 33.644-38.084 52.364-29.057 18.678-64.229-29.421-64.229-52.364-.002-7.206 2.255-13.987 6.238-19.894z" fill="#fff"/><path d="m239.413 217.495-44.73 43.212-53.882-61.058 92.767-96.148 59.051-20.311 1.269 3.672-8.643 20.727z" fill="#0071bc"/><path d="m398.719 81.152c3.183 5.512 4.139 11.606 1.893 17.825-6.884 19.084-8.964 33.644-38.084 52.364-29.057 18.678-64.229-29.421-64.229-52.364 0-7.207 2.257-13.988 6.24-19.895 8.684-12.875 25.532-21.622 44.907-21.622 20.101.001 41.442 10.1 49.273 23.692z" fill="none" stroke="#231f20" stroke-width="14.5599"/><path d="m399.967 80.622 6.843 2.485 61.796 22.475 88.264 94.171-53.882 61.047-44.719-43.222.01 2.371 1.612 248.642-111.924-.053-110.187-.052 1.633-250.991-44.73 43.212-53.882-61.058 92.767-96.148 59.051-20.311v-.01l11.918-4.097h.01" fill="none" stroke="#231f20" stroke-width="14.5599"/><path d="m236.605 545.852 9.651-44.699h202.788l9.776 45.25 47.684 220.812s-43.556 19.926-131.975 32.385l-11.003-82.242s-3.297-19.927-14.29-19.927h-3.172c-10.993 0-14.29 19.927-14.29 19.927l-11.003 82.242c-88.431-12.459-131.964-32.385-131.964-32.385z" fill="none" stroke="#231f20" stroke-width="14.5599"/><path d="m239.808 546.538h218.398" fill="none" stroke="#231f20" stroke-width="14.5599"/><path d="m293.888 86.862-8.643 20.727-45.832 109.906" fill="none" stroke="#231f20" stroke-width="7.2799"/><path d="m406.207 84.782 6.302 17.794 41.537 117.404" fill="none" stroke="#231f20" stroke-width="7.2799"/><path d="m285.568 93.102c-.884 4.597-.957 9.485-.323 14.487 3.744 29.619 32.188 63.263 62.722 65.249 23.836 1.549 48.942-16.203 64.542-70.262.697-2.392 1.362-4.857 2.018-7.395" fill="none" stroke="#231f20" stroke-width="7.2799"/><path d="m347.967 172.141v.697 295.7 1.04" fill="none" stroke="#231f20" stroke-width="7.2799"/><path d="m0 0h850.394v850.394h-850.394z" fill="none"/><path d="m793.139 173.317-2.643-8.913-1.674-.14c5.352-1.38 9.739-5.811 13.634-4.379 3.137 1.158 2.145 6.224 2.934 8.168 1.34 3.313 2.877 4.06 4.351 7.248 2.764 5.967 2.874 15.151-3.164 7.829-2.914-3.533-7.351-9.204-13.372-8.667z" fill="#9c5c25"/><path d="m793.139 173.317.065 1.146c-.268.026-.539.063-.815.111 0 0-16.3 5.061-28.551 14.689-9.243 7.262-14.358 9.902-19.804 1.979-1.748-2.543-3.676-5.537-5.486-8.434l17.284-10.891c.602 1.075 2.221 3.501 4.046 2.327 2.309-1.486 6.27-9.737 17.987-9.409l7.986-.174c1.023 0 2.013-.148 2.971-.396l1.674.14z" fill="#ffeec8"/><path d="m782.281 120.232c-.011.365-.146.884-.724 1.246-.844.511-1.794 1.152-2.258.559.042.299.085 1.029-.439 1.434-.667.519-1.73.718-2.287.642l-.128-.034c-.154.647-.964.929-1.568.504-.573-.399-1.154-2.198-3.042-4.738-.336-.457-.716-.933-1.146-1.432-1.205-1.394-2.574-2.605-3.427-3.806-.388-.544-.67-1.086-.778-1.642-.453-2.272.094-4.066-.239-7.972 2.295-1.192 4.642-3.513 8.87-4.362 1.42 1.271 4.621 3.632 5.482 5.269.18.345 2.688 7.786 2.632 11.567-.012.769-.545 2.096-.948 2.765z" fill="#ffeec8"/><path d="m766.244 104.993c-.645.331-1.286.573-1.962.67-2.631.376-6.075-3.162-8.071-4.371-8.713-5.275-13.968-9.848-18.982-10.658-1.534-.251-3.048-.146-4.631.402-11.948-3.709-12.827-21.264-12.827-21.264l.015-.576c6.891.191 14.307 2.138 23.772 6.004 17.506 7.156 25.107 15.242 31.557 25.429-4.229.851-6.576 3.172-8.871 4.364z" fill="#fff"/><path d="m768.696 122.87c.547-2.862-.068-5.697-1.723-8.057l.288-.206c.853 1.201 2.222 2.412 3.427 3.806.431.499.811.975 1.146 1.432-.29 1.551-1.501 3.843-3.138 3.025z" fill="#ffeec8"/><path d="m755.832 171.917-17.284 10.891c-3.829-6.124-7.136-11.801-7.136-11.801l-.146-.188c2.39-1.831 4.938-4.06 7.98-6.974l.504-.501c7.105-6.561 14.171-14.355 16.109-18.678 1.719 4.63 2.307 18.447 4.1 24.651z" fill="#fff"/><path d="m754.004 128.535c2.899 5.015 4.564 10.067 1.856 16.132-1.938 4.322-9.004 12.117-16.109 18.678l-.504.501c-3.042 2.914-5.591 5.144-7.98 6.974-.941.718-1.856 1.377-2.769 1.99l-.146-.216-24.79-17.238-.129-.091s6.336-9.714 8.924-14.481l.24-.408c.544.293 1.212.536 2.044.727 5.032 1.143 11.063-1.919 15.533-3.25 7.812-2.329 19.496-8.057 19.279-16.437 1.571 2.429 3.199 4.77 4.551 7.119z" fill="#fff"/><path d="m728.353 172.593.146.216c-2.809 1.894-5.577 3.359-8.893 4.901-4.521 2.11-10.31 3.949-14.278 6.674-4.456 3.068-1.442 10.184-2.059 15.111-1.816 14.524-9.243 20.297-10.563 30.037-.043.319-.083.63-.117.938l-.456-.048-8.251-1.981-1.172-.151c.108-.807.131-1.702.063-2.688 0 0 .693-5.808.362-13.728-.331-7.923 0-29.871 1.651-35.154 1.645-5.28 18.152-20.465 18.152-20.465l.625-.898z" fill="#ffeec8"/><path d="m686.37 80.844c4.841 0 9.166-2.751 12.028-7.071h.003v.003l.245.162c7.584-3.298 14.088-4.941 21.139-4.741l-.015.576s.879 17.554 12.827 21.264c1.583-.548 3.097-.653 4.631-.402l-.206 1.483c4.933 11.458 10.467 18.361 12.271 27.798.097.507.151 1.009.16 1.497.003.003 0 .003 0 .003.217 8.379-11.468 14.107-19.279 16.437-4.471 1.332-10.501 4.394-15.533 3.25-.832-.191-1.5-.434-2.044-.727-2.142-1.163-2.438-3.165-3.826-6.221-5.161-11.353-11.51-17.597-20.574-25.415.134-.002.269-.002.405-.002l.105-.08c-3.872-5.212-8.813-19.564-9.813-26.923 1.328-.893 2.705-1.369 4.097-1.229l.031-.111c1.079.295 2.199.449 3.348.449z" fill="#fff"/><path d="m692.132 230.422.456.048c-1.108 9.531 1.132 14.011-4.53 15.53-2.397.644-5.811-1.426-7.849-1.913-3.476-.833-4.979-.017-8.431-.673-6.458-1.215-13.999-6.466-4.525-7.122 4.354-.302 14.35.45 15.456-8.003l1.172.151z" fill="#9c5c25"/><path d="m688.197 108.739c-12.527.12-11.598 11.445-20.203 15.596-8.645 4.174-10.492-1.035-14.638-8.123-.1-.171-.202-.345-.305-.519h.003c2.335-1.868 6.139-5.719 6.375-9.129l.468.006c5.987 2.013 4.875-2.247 7.33-7.407 1.879-3.952 6.409-13.917 11.667-17.429 1.001 7.358 5.941 21.711 9.813 26.923l-.105.08c-.136 0-.271 0-.405.002z" fill="#fff"/><path d="m683.022 80.394c-7.02-1.913-12.276-9.728-12.276-19.074 0-10.786 6.996-19.527 15.624-19.527 8.63 0 15.621 8.741 15.621 19.527 0 4.733-1.349 9.072-3.59 12.454h-.003c-2.862 4.319-7.188 7.071-12.028 7.071-1.149-.001-2.269-.155-3.348-.451z" fill="#ffeec8"/><path d="m646.748 203.354c9.934 0 17.987 8.057 17.987 17.99 0 9.937-8.054 17.991-17.987 17.991-9.937 0-17.99-8.054-17.99-17.991 0-9.933 8.054-17.99 17.99-17.99z" fill="#fff"/><path d="m644.324 97.344c.879-.778 1.819-.342 2.021-.234l.006-.014c.456.202 1.286.644 2.078 1.254.234.681.616 1.249 1.164 1.659.18.134.373.231.57.299.287.61.364 1.269.073 1.947-.854 1.99-2.512 1.352-2.999 1.001-.003-.006-.006-.009-.009-.006-.116-.123-.242-.228-.37-.319-1.192-.855-2.139-2.304-3.473-2.951-.234-.114-.385-.24-.474-.376l-.003-.003c-.408-.649.615-1.528 1.416-2.257z" fill="#ffeec8"/><path d="m643.112 104.885c.3.285.579.539.853.747.442 1.038.105 2.007-.804 2.575-1.448.915-3.684-.625-4.334-1.292l-.832.168c-.402-.636-.79-1.32-.955-1.825-.325-.981.604-2.518 1.768-2.518h.02c1.212.014 1.081.801 3.636 2.212z" fill="#ffeec8"/><path d="m642.913 99.604c.089.137.239.262.474.376 1.334.647 2.28 2.095 3.473 2.951.128.091.254.197.37.319.003-.003.006 0 .009.006.77.778 1.169 2.042-.379 2.68-1.292.527-2.076.313-2.895-.305-.273-.208-.553-.462-.853-.747l-.649.068c-2.555-1.411-2.424-2.198-3.636-2.212-.005 0-.014 0-.02 0l1.004-.801c.097-.636.661-1.733 1.451-2.295.573-.414 1.3-.194 1.647-.043z" fill="#ffeec8"/><path d="m653.055 115.693h-.003c.103.174.205.348.305.519l-.872.051c-4.793-1.528-4.784-1.175-9.192-3.496-1.836-.972-3.244-2.754-4.425-4.394-.236-.331-.562-.795-.872-1.292l.832-.168c.65.667 2.886 2.207 4.334 1.292.909-.567 1.246-1.537.804-2.575.818.619 1.603.833 2.895.305 1.548-.639 1.148-1.902.379-2.68.487.351 2.145.989 2.999-1.001.291-.678.214-1.337-.073-1.947-.354-.747-1.029-1.417-1.734-1.958-.193-.564-.285-1.203-.285-1.896 0-.642 1.187-.662 2.446-.399h.003c3.639 1.167 5.326 2.708 5.623 3.002 1.647 1.602 1.722 3.561 2.885 5.73l.068-.025c.229.576.303 1.183.26 1.802-.239 3.411-4.042 7.263-6.377 9.13z" fill="#ffeec8"/><g fill="none"><path d="m683.022 80.394c-7.02-1.913-12.276-9.728-12.276-19.074 0-10.786 6.996-19.527 15.624-19.527 8.63 0 15.621 8.741 15.621 19.527 0 4.733-1.349 9.072-3.59 12.454h-.003c-2.862 4.319-7.188 7.071-12.028 7.071-1.149-.001-2.269-.155-3.348-.451z" stroke="#231f20" stroke-width="5.9873"/><path d="m682.991 80.505c-1.392-.14-2.769.336-4.097 1.229-5.258 3.512-9.788 13.477-11.667 17.429-2.455 5.161-1.343 9.42-7.33 7.407" stroke="#231f20" stroke-width="5.9873"/><path d="m653.052 115.693c.103.174.205.348.305.519 4.146 7.088 5.993 12.297 14.638 8.123 8.605-4.151 7.676-15.476 20.203-15.596.134-.002.269-.002.405-.002" stroke="#231f20" stroke-width="5.9873"/><path d="m749.454 121.413c-.009-.487-.063-.989-.16-1.497-1.805-9.438-7.339-16.34-12.271-27.798" stroke="#231f20" stroke-width="5.9873"/><path d="m686.78 107.522c.479.411.952.815 1.417 1.217 9.064 7.818 15.413 14.062 20.574 25.415 1.389 3.057 1.685 5.058 3.826 6.221.544.293 1.212.536 2.044.727 5.032 1.143 11.063-1.919 15.533-3.25 7.812-2.329 19.496-8.057 19.279-16.437" stroke="#231f20" stroke-width="5.9873"/><path d="m698.646 73.938c7.584-3.298 14.088-4.941 21.139-4.741 6.891.191 14.307 2.138 23.772 6.004 17.506 7.156 25.107 15.242 31.557 25.429-4.229.85-6.575 3.17-8.87 4.362-.645.331-1.286.573-1.962.67-2.631.376-6.075-3.162-8.071-4.371-8.713-5.275-13.968-9.848-18.982-10.658-1.534-.251-3.048-.146-4.631.402-.419.142-.844.316-1.274.524" stroke="#231f20" stroke-width="5.9873"/><path d="m754.004 128.535c-1.352-2.349-2.979-4.69-4.55-7.119 0 0 .003 0 0-.003s-.006-.003-.006-.005" stroke="#231f20" stroke-width="6.6016"/><path d="m702.938 156.253s-16.508 15.185-18.152 20.465c-1.651 5.283-1.982 27.231-1.651 35.154.331 7.92-.362 13.728-.362 13.728.068.986.046 1.882-.063 2.688-1.106 8.454-11.103 7.701-15.456 8.003-9.474.656-1.933 5.907 4.525 7.122 3.452.656 4.955-.16 8.431.673 2.038.487 5.451 2.557 7.849 1.913 5.662-1.52 3.422-5.999 4.53-15.53.034-.308.074-.619.117-.938 1.32-9.739 8.747-15.513 10.563-30.037.616-4.927-2.397-12.043 2.059-15.111 3.969-2.726 9.757-4.564 14.278-6.674 3.315-1.542 6.084-3.008 8.893-4.901.912-.613 1.827-1.271 2.769-1.99 2.39-1.831 4.938-4.06 7.98-6.974l.504-.501c7.105-6.561 14.171-14.355 16.109-18.678 2.708-6.064 1.043-11.117-1.856-16.132" stroke="#231f20" stroke-width="5.9873"/><path d="m755.86 144.667c1.719 4.63 2.307 18.447 4.1 24.651l-4.128 2.6-17.284 10.891-.29.183" stroke="#231f20" stroke-width="5.9873"/><path d="m678.84 81.326c.018.134.034.271.055.408 1.001 7.358 5.941 21.711 9.813 26.923.562.755 1.098 1.32 1.6 1.642" stroke="#231f20" stroke-width="5.9873"/><path d="m647.229 103.251c-.014-.011-.028-.02-.04-.031" stroke="#231f20" stroke-width="1.9958"/><path d="m650.591 96.055c-.233-.077-.479-.151-.729-.222-1.32-.374-4.191.966-3.513 1.26l.003.003c.456.202 1.286.644 2.078 1.254.705.542 1.381 1.211 1.734 1.958.287.61.364 1.269.073 1.947-.854 1.99-2.512 1.352-2.999 1.001" stroke="#231f20" stroke-width="1.9958"/><path d="m659.102 104.788c-1.163-2.169-1.237-4.128-2.885-5.73-.297-.294-1.984-1.836-5.623-3.002" stroke="#231f20" stroke-width="1.9958"/><path d="m642.913 99.604c.089.137.239.262.474.376 1.334.647 2.28 2.095 3.473 2.951.128.091.254.197.37.319.003-.003.006 0 .009.006.77.778 1.169 2.042-.379 2.68-1.292.527-2.076.313-2.895-.305-.273-.208-.553-.462-.853-.747-.447-.425-.943-.918-1.559-1.445" stroke="#231f20" stroke-width="1.9958"/><path d="m646.386 97.132s-.014-.008-.04-.022c-.202-.108-1.143-.544-2.021.234-.801.729-1.824 1.608-1.414 2.258" stroke="#231f20" stroke-width="1.9958"/><path d="m643.115 99.702s-.076-.046-.202-.097l-.003-.003c-.348-.151-1.074-.371-1.647.043-.79.562-1.354 1.659-1.451 2.295" stroke="#231f20" stroke-width="1.9958"/><path d="m652.484 116.264c-4.793-1.528-4.784-1.175-9.192-3.496-1.836-.972-3.244-2.754-4.425-4.394-.236-.331-.562-.795-.872-1.292-.402-.636-.79-1.32-.955-1.825-.325-.981.604-2.518 1.768-2.518h.02c1.212.014 1.081.801 3.636 2.212" stroke="#231f20" stroke-width="1.9958"/><path d="m642.656 104.038c.656.519 1.084 1.066 1.309 1.594.442 1.038.105 2.007-.804 2.575-1.448.915-3.684-.625-4.334-1.292" stroke="#231f20" stroke-width="1.9958"/><path d="m775.114 100.631c1.42 1.271 4.621 3.632 5.482 5.269.18.345 2.688 7.786 2.632 11.567-.012.77-.545 2.096-.947 2.766-.219.374-.401.544-.431.316-.094-.721.098-.893-.86-4.727-.285-1.161-2.219-4.405-2.219-4.405" stroke="#231f20" stroke-miterlimit="10" stroke-width="1.9958"/><path d="m779.3 122.034c-.08-.105-.146-.245-.194-.433-.354-1.434-.371-2.318-1.742-5.03-.863-1.699-2.175-4.385-2.175-4.385" stroke="#231f20" stroke-miterlimit="10" stroke-width="1.9958"/><path d="m782.241 119.802s.049.177.04.431c-.011.365-.146.884-.724 1.246-.844.511-1.794 1.152-2.258.559" stroke="#231f20" stroke-miterlimit="10" stroke-width="1.9958"/><path d="m779.273 121.9s.012.051.026.134v.003c.042.299.085 1.029-.439 1.434-.667.519-1.73.718-2.287.642" stroke="#231f20" stroke-miterlimit="10" stroke-width="1.9958"/><path d="m766.173 104.257c.028.254.051.499.071.736.333 3.906-.214 5.699.239 7.972.108.556.391 1.098.778 1.642.853 1.201 2.222 2.412 3.427 3.806.431.499.811.975 1.146 1.432 1.888 2.54 2.469 4.339 3.042 4.738.604.425 1.414.143 1.568-.504.037-.154.037-.325-.012-.516-.282-1.152.037-1.343-1.69-4.682-.553-1.061-.938-2.569-3.689-5.845" stroke="#231f20" stroke-miterlimit="10" stroke-width="1.9958"/><path d="m653.055 115.693c2.335-1.868 6.139-5.719 6.375-9.129.043-.619-.031-1.226-.26-1.802-.045-.125-.1-.248-.162-.368" stroke="#231f20" stroke-miterlimit="10" stroke-width="3.9916"/><path d="m766.817 114.59c.054.074.105.148.156.223 1.654 2.36 2.27 5.195 1.723 8.057 1.637.818 2.848-1.474 3.139-3.025.015-.068.025-.137.034-.203" stroke="#231f20" stroke-width="1.9958"/><path d="m653.257 97.11c-.51-.417-1.61-.835-2.663-1.055-.003 0-.003 0-.003 0-1.26-.262-2.446-.242-2.446.399 0 .693.092 1.332.285 1.896.234.681.616 1.249 1.164 1.659.18.134.373.231.57.299 1.294.451 2.822-.273 2.822.95 0 4.242 1.206 4.986 2.48 6.264" stroke="#231f20" stroke-width="1.9958"/><path d="m755.584 171.438s.088.191.248.479c.602 1.075 2.221 3.501 4.046 2.327 2.309-1.486 6.27-9.737 17.987-9.409l7.986-.174c1.023 0 2.013-.148 2.971-.396 5.352-1.38 9.739-5.811 13.634-4.379 3.137 1.158 2.145 6.224 2.934 8.168 1.34 3.313 2.877 4.06 4.351 7.248 2.764 5.967 2.874 15.151-3.164 7.829-2.914-3.533-7.351-9.204-13.372-8.667-.268.026-.539.063-.815.111 0 0-16.3 5.061-28.551 14.689-9.243 7.262-14.358 9.902-19.804 1.979-1.748-2.543-3.676-5.537-5.486-8.434-3.829-6.124-7.136-11.801-7.136-11.801" stroke="#231f20" stroke-width="5.9873"/><path d="m728.353 172.593-24.79-17.238-.129-.091s6.336-9.714 8.924-14.481" stroke="#231f20" stroke-width="5.9873"/><path d="m719.771 69.773s.879 17.554 12.827 21.264c.741.23 1.528.408 2.358.524" stroke="#231f20" stroke-width="5.9873"/><path d="m683.881 228.441 8.251 1.981" stroke="#231f20" stroke-width="6.6016"/><path d="m790.496 164.405 2.643 8.912" stroke="#231f20" stroke-width="6.6016"/><path d="m664.735 221.344c0 9.937-8.054 17.991-17.987 17.991-9.937 0-17.99-8.054-17.99-17.991 0-9.933 8.054-17.99 17.99-17.99 9.934 0 17.987 8.057 17.987 17.99z" stroke="#231f20" stroke-width="5.9873"/></g></svg>