<svg enable-background="new 0 0 850.394 850.394" height="850.394" viewBox="0 0 850.394 850.394" width="850.394" xmlns="http://www.w3.org/2000/svg"><path d="m562.783 189.965 6.087 6.488-54.659 61.928-3.344-3.239 2.226-2.3c5.961-19.875 22.461-58.456 49.69-62.877z" fill="#fff"/><path d="m479.333 100.924 83.45 89.041c-27.229 4.42-43.729 43.001-49.69 62.877l-2.226 2.3-42.021-40.606 1.646 254.622-225.313-.096 1.656-254.611-45.375 43.835c-6.33-21.1-21.743-56.083-40.733-75.073l-.654-.622 80.833-83.777 55.535-19.106c-24.349 38.539 77.964 167.575 131.937 5.296z" fill="#0071bc"/><path d="m468.245 542.765 49.532 229.333s-44.183 20.214-133.878 32.853l-11.162-83.429s-3.344-20.214-14.496-20.214h-3.218c-11.151 0-14.496 20.214-14.496 20.214l-11.162 83.429c-89.706-12.639-133.868-32.853-133.868-32.853l49.015-227.013 4.832 1.045 213.107-2.11z" fill="#fff"/><path d="m459.489 502.2 8.756 40.565-5.792 1.255-213.107 2.11-4.832-1.045 9.263-42.885z" fill="#fff"/><path d="m411.814 79.825 16.563 5.18c-53.973 162.278-156.286 33.243-131.937-5.296l16.458-5.665c-4.041 5.992-6.33 12.871-6.33 20.182 0 23.273 35.68 72.066 65.156 53.119 29.54-18.99 31.649-33.759 38.634-53.119 1.73-4.79 1.593-9.495.01-13.936z" fill="#fff"/><path d="m312.898 74.043c8.809-13.061 25.9-21.933 45.554-21.933 22.397 0 46.293 12.354 51.916 28.179 1.583 4.441 1.72 9.146-.01 13.936-6.984 19.359-9.094 34.129-38.634 53.119-29.477 18.948-65.156-29.845-65.156-53.119 0-7.311 2.29-14.189 6.33-20.182z" fill="#a8d7f4"/><path d="m201.46 258.287-54.659-61.938 13.272-13.757.654.622c18.99 18.99 34.403 53.973 40.733 75.073z" fill="#fff"/><path d="m410.369 80.289c1.583 4.441 1.72 9.146-.01 13.936-6.984 19.359-9.094 34.129-38.634 53.119-29.477 18.948-65.156-29.845-65.156-53.119 0-7.311 2.29-14.189 6.33-20.182 8.809-13.061 25.9-21.933 45.554-21.933 22.397 0 46.293 12.354 51.916 28.179z" fill="none" stroke="#231f20" stroke-width="14.7698"/><path d="m411.814 79.825 16.563 5.18 50.956 15.919 83.45 89.041 6.087 6.489-54.659 61.927-3.344-3.238-42.02-40.607 1.645 254.622-225.313-.095 1.656-254.611-45.375 43.835-54.659-61.939 13.272-13.757 80.833-83.777 55.534-19.106 16.458-5.665h.011" fill="none" stroke="#231f20" stroke-width="14.7698"/><path d="m244.514 545.085 9.263-42.885h205.712l8.756 40.564 49.532 229.333s-44.183 20.214-133.878 32.853l-11.162-83.429s-3.344-20.214-14.496-20.214h-3.218c-11.151 0-14.496 20.214-14.496 20.214l-11.162 83.429c-89.706-12.639-133.868-32.853-133.868-32.853z" fill="none" stroke="#231f20" stroke-width="14.7698"/><path d="m249.346 546.13 213.107-2.11" fill="none" stroke="#231f20" stroke-width="14.7698"/><path d="m160.727 183.213c18.99 18.99 34.403 53.974 40.733 75.073" fill="none" stroke="#231f20" stroke-width="7.3849"/><path d="m513.093 252.843c5.961-19.876 22.461-58.457 49.69-62.877 1.677-.274 3.407-.422 5.169-.422" fill="none" stroke="#231f20" stroke-width="7.3849"/><path d="m297.875 77.715c-.517.633-1.002 1.297-1.435 1.994-24.349 38.539 77.964 167.575 131.937 5.296.106-.317.212-.644.317-.96" fill="none" stroke="#231f20" stroke-width="7.3849"/><path d="m0 0h850.394v850.394h-850.394z" fill="none"/><path d="m798.015 171.685-2.693-9.073-1.7-.143c5.444-1.405 9.914-5.918 13.879-4.458 3.19 1.176 2.183 6.336 2.986 8.315 1.364 3.373 2.929 4.133 4.43 7.378 2.813 6.075 2.923 15.423-3.222 7.97-2.97-3.599-7.482-9.369-13.615-8.823z" fill="#9c5c25"/><path d="m798.015 171.685.064 1.167c-.273.026-.549.061-.83.113 0 0-16.591 5.152-29.063 14.954-9.409 7.392-14.616 10.08-20.16 2.014-1.781-2.589-3.744-5.637-5.584-8.585l17.595-11.087c.612 1.094 2.258 3.561 4.118 2.368 2.352-1.512 6.383-9.912 18.309-9.578l8.133-.177c1.042 0 2.049-.151 3.024-.404l1.7.143z" fill="#ffeec8"/><path d="m781.019 121.557c-.154.662-.979.949-1.597.517-.58-.406-1.175-2.238-3.097-4.824-.343-.462-.729-.949-1.167-1.457-1.228-1.422-2.62-2.653-3.488-3.872-.395-.557-.679-1.109-.792-1.675-.459-2.313.099-4.142-.247-8.118 2.339-1.208 4.728-3.573 9.035-4.438 1.442 1.292 4.705 3.698 5.581 5.364.181.351 2.737 7.926 2.677 11.772-.009.79-.555 2.142-.964 2.824 0 0 .003.003 0 .003-.012.372-.151.897-.737 1.26-.856.52-1.828 1.175-2.299.566.047.305.093 1.048-.444 1.46-.682.531-1.762.734-2.327.656z" fill="#ffeec8"/><path d="m770.631 102.128c-.656.336-1.306.586-1.994.685-2.676.383-6.185-3.219-8.214-4.449-8.869-5.37-14.222-10.028-19.327-10.852-1.562-.255-3.103-.148-4.714.409-12.16-3.776-13.055-21.644-13.055-21.644l.015-.586c7.012.194 14.562 2.177 24.2 6.112 17.818 7.285 25.559 15.517 32.124 25.887-4.308.865-6.696 3.231-9.035 4.438z" fill="#fff"/><path d="m771.67 111.921c.868 1.219 2.261 2.45 3.488 3.872.438.508.824.995 1.167 1.457-.293 1.579-1.526 3.912-3.195 3.079.558-2.914-.066-5.799-1.753-8.202z" fill="#ffeec8"/><path d="m760.037 170.26-17.595 11.087c-3.897-6.234-7.265-12.013-7.265-12.013l-.147-.191c2.432-1.863 5.026-4.136 8.12-7.099l.514-.511c7.236-6.681 14.429-14.613 16.402-19.014 1.747 4.714 2.348 18.779 4.17 25.094z" fill="#fff"/><path d="m758.177 126.096c2.951 5.105 4.646 10.249 1.89 16.422-1.974 4.4-9.166 12.333-16.402 19.014l-.514.511c-3.094 2.963-5.688 5.236-8.12 7.099-.958.731-1.893 1.402-2.821 2.029l-.148-.224-25.233-17.548v-.003l-.131-.09s6.449-9.889 9.085-14.742l.24-.415c.555.302 1.234.546 2.081.74 5.123 1.164 11.265-1.953 15.813-3.309 7.956-2.372 19.85-8.202 19.629-16.732 1.598 2.477 3.255 4.857 4.631 7.248z" fill="#fff"/><path d="m732.061 170.947.148.224c-2.859 1.924-5.678 3.413-9.053 4.986-4.604 2.145-10.492 4.017-14.532 6.794-4.54 3.123-1.472 10.368-2.099 15.38-1.846 14.785-9.41 20.666-10.751 30.58-.043.325-.084.641-.122.955l-.464-.049-8.396-2.017-1.193-.154c.11-.821.134-1.732.064-2.737 0 0 .705-5.912.365-13.975-.337-8.066 0-30.409 1.681-35.787 1.678-5.375 18.479-20.833 18.479-20.833l.639-.914z" fill="#ffeec8"/><path d="m705.228 57.669c0 4.821-1.373 9.238-3.657 12.681-2.914 4.395-7.316 7.195-12.242 7.195-1.17 0-2.313-.157-3.41-.459-7.148-1.95-12.495-9.903-12.495-19.417 0-10.977 7.117-19.878 15.905-19.878 8.782 0 15.899 8.901 15.899 19.878z" fill="#ffeec8"/><path d="m695.188 229.817.464.049c-1.129 9.703 1.155 14.263-4.608 15.81-2.444.656-5.918-1.451-7.993-1.947-3.538-.848-5.068-.018-8.58-.685-6.574-1.236-14.254-6.583-4.608-7.25 4.435-.308 14.61.459 15.736-8.147l1.193.154z" fill="#9c5c25"/><path d="m691.705 105.861c-3.944-5.306-8.974-19.919-9.99-27.411 1.353-.905 2.755-1.39 4.171-1.248l.032-.116c1.097.302 2.24.459 3.41.459 4.926 0 9.328-2.801 12.242-7.195l.253.168c7.721-3.358 14.338-5.03 21.519-4.827l-.015.586s.895 17.868 13.055 21.644c1.611-.557 3.152-.665 4.714-.409l-.206 1.512c5.019 11.662 10.655 18.691 12.492 28.298.099.52.153 1.027.162 1.527.221 8.53-11.673 14.361-19.629 16.732-4.548 1.355-10.689 4.473-15.813 3.309-.847-.194-1.526-.438-2.081-.74-2.18-1.184-2.481-3.225-3.895-6.333-5.254-11.554-11.717-17.911-20.938-25.872.134-.003.271-.003.409-.003z" fill="#fff"/><path d="m648.99 202.262c10.109 0 18.312 8.199 18.312 18.314s-8.202 18.314-18.312 18.314c-10.114 0-18.313-8.199-18.313-18.314s8.199-18.314 18.313-18.314z" fill="#fff"/><path d="m691.188 105.945c-12.756.122-11.81 11.65-20.569 15.876-8.8 4.246-10.684-1.054-14.9-8.269-.102-.174-.206-.351-.311-.528 2.377-1.901 6.251-5.825 6.492-9.293l.474.006c6.098 2.049 4.966-2.287 7.465-7.541 1.912-4.023 6.524-14.17 11.876-17.746 1.017 7.491 6.046 22.105 9.99 27.411l-.107.081c-.139 0-.276 0-.41.003z" fill="#fff"/><path d="m646.523 94.344c.894-.795 1.852-.348 2.058-.238l.006-.015c.465.206 1.31.656 2.116 1.277 0 .003.003.003.003.003.235.69.624 1.268 1.181 1.686.184.137.378.235.575.305h.003c.296.618.374 1.292.078 1.982-.87 2.017-2.548 1.379-3.05 1.021-.122-.125-.256-.238-.39-.333-1.213-.871-2.177-2.345-3.535-3.004-.237-.116-.392-.244-.481-.383l-.003-.003c-.421-.661.621-1.555 1.439-2.298z" fill="#ffeec8"/><path d="m645.287 102.018-.659.072c-2.598-1.437-2.47-2.238-3.703-2.252-.006 0-.009 0-.018 0l1.021-.816c.099-.647.671-1.765 1.478-2.336.583-.421 1.323-.197 1.678-.043l.003.003c.09.139.244.267.481.383 1.358.659 2.322 2.133 3.535 3.004.134.096.268.209.39.333.777.792 1.184 2.076-.39 2.723-1.317.54-2.118.319-2.951-.313-.279-.212-.558-.467-.862-.757-.003-.001-.003-.001-.003-.001z" fill="#ffeec8"/><path d="m640.969 105.573c-.244-.336-.572-.813-.892-1.314l.848-.171c.665.679 2.94 2.247 4.412 1.315.929-.581 1.271-1.57.815-2.627.833.633 1.634.854 2.951.313 1.573-.647 1.167-1.93.39-2.723.502.357 2.18.996 3.05-1.021.296-.691.218-1.364-.078-1.982 0 0 0 0-.003 0-.357-.76-1.042-1.442-1.756-1.991 0 0-.003 0-.003-.003-.2-.575-.293-1.225-.293-1.93 0-.656 1.21-.676 2.493-.406.006 0 .015.003.021.006 1.056.336 1.95.708 2.693 1.068 1.86.906 2.795 1.765 3.01 1.979 1.678 1.634 1.753 3.625 2.937 5.837l.073-.029c.231.586.308 1.205.264 1.837-.241 3.468-4.115 7.393-6.492 9.293.104.177.209.354.311.528l-.892.052c-4.876-1.556-4.867-1.196-9.354-3.559-1.87-.989-3.304-2.803-4.505-4.472z" fill="#ffeec8"/><path d="m639.107 102.401c-.333-.998.616-2.563 1.797-2.563h.003.018c1.233.014 1.105.815 3.703 2.252l.659-.072h.003c.305.29.583.545.862.757.455 1.057.113 2.046-.815 2.627-1.472.932-3.747-.636-4.412-1.315l-.848.171c-.409-.647-.801-1.343-.97-1.857z" fill="#ffeec8"/><g fill="none"><path d="m685.918 77.086c-7.148-1.95-12.495-9.903-12.495-19.417 0-10.977 7.117-19.878 15.905-19.878 8.783 0 15.899 8.901 15.899 19.878 0 4.821-1.373 9.238-3.657 12.681-2.914 4.395-7.316 7.195-12.242 7.195-1.17 0-2.313-.157-3.41-.459z" stroke="#231f20" stroke-width="6.0951"/><path d="m685.886 77.202c-1.416-.142-2.818.343-4.171 1.248-5.352 3.576-9.964 13.723-11.876 17.746-2.499 5.253-1.367 9.589-7.465 7.541" stroke="#231f20" stroke-width="6.0951"/><path d="m655.408 113.024c.104.177.209.354.311.528 4.217 7.215 6.101 12.515 14.9 8.269 8.76-4.226 7.813-15.754 20.569-15.876.134-.003.271-.003.409-.003" stroke="#231f20" stroke-width="6.0951"/><path d="m689.743 104.703c.491.418.973.833 1.445 1.242 9.222 7.961 15.685 14.318 20.938 25.872 1.413 3.108 1.715 5.149 3.895 6.333.555.302 1.234.546 2.081.74 5.123 1.164 11.265-1.953 15.813-3.309 7.956-2.372 19.85-8.202 19.629-16.732-.009-.5-.063-1.007-.162-1.527-1.837-9.607-7.474-16.637-12.492-28.298" stroke="#231f20" stroke-width="6.0951"/><path d="m701.823 70.518c7.721-3.358 14.338-5.03 21.519-4.827 7.012.194 14.562 2.177 24.2 6.112 17.818 7.285 25.559 15.517 32.124 25.887-4.308.865-6.696 3.23-9.035 4.438-.656.336-1.306.586-1.994.685-2.676.383-6.185-3.219-8.214-4.449-8.869-5.37-14.222-10.028-19.327-10.852-1.562-.255-3.103-.148-4.714.409-.426.145-.855.322-1.294.534" stroke="#231f20" stroke-width="6.0951"/><path d="m758.177 126.096c-1.376-2.392-3.033-4.771-4.633-7.247-.003-.003-.006-.009-.009-.012" stroke="#231f20" stroke-width="6.7204"/><path d="m706.188 154.313s-16.802 15.458-18.479 20.833c-1.681 5.378-2.018 27.721-1.681 35.787.34 8.063-.365 13.975-.365 13.975.069 1.004.046 1.916-.064 2.737-1.126 8.606-11.302 7.839-15.736 8.147-9.646.668-1.966 6.014 4.608 7.25 3.512.667 5.042-.163 8.58.685 2.075.496 5.549 2.604 7.993 1.947 5.764-1.547 3.479-6.106 4.608-15.81.038-.313.079-.629.122-.955 1.341-9.915 8.905-15.795 10.751-30.58.627-5.012-2.441-12.257 2.099-15.38 4.04-2.777 9.929-4.649 14.532-6.794 3.375-1.573 6.193-3.062 9.053-4.986.929-.627 1.863-1.297 2.821-2.029 2.432-1.863 5.026-4.136 8.12-7.099l.514-.511c7.236-6.681 14.429-14.613 16.402-19.014 2.757-6.173 1.062-11.316-1.89-16.422" stroke="#231f20" stroke-width="6.0951"/><path d="m760.066 142.518c1.747 4.714 2.348 18.779 4.17 25.094l-4.199 2.647-17.595 11.087-.296.186" stroke="#231f20" stroke-width="6.0951"/><path d="m681.66 78.038c.018.134.035.273.055.412 1.017 7.491 6.046 22.105 9.99 27.411.569.769 1.115 1.344 1.626 1.672" stroke="#231f20" stroke-width="6.0951"/><path d="m652.465 97.362c.296.618.374 1.292.078 1.982-.87 2.017-2.548 1.379-3.05 1.021-.021-.014-.038-.026-.056-.041" stroke="#231f20" stroke-width="2.0317"/><path d="m650.706 95.372c.714.548 1.398 1.23 1.756 1.991" stroke="#231f20" stroke-width="2.0317"/><path d="m652.903 93.032c-.238-.079-.488-.154-.743-.227-1.347-.38-4.267.984-3.576 1.283l.003.003c.465.206 1.31.656 2.116 1.277" stroke="#231f20" stroke-width="2.0317"/><path d="m661.563 101.922c-1.184-2.212-1.259-4.203-2.937-5.837-.215-.215-1.149-1.074-3.01-1.979-.743-.36-1.638-.731-2.693-1.068" stroke="#231f20" stroke-width="2.0317"/><path d="m645.087 96.646c.09.139.244.267.481.383 1.358.659 2.322 2.133 3.535 3.004.134.096.268.209.39.333.777.792 1.184 2.076-.39 2.723-1.317.54-2.118.319-2.951-.313-.279-.212-.558-.467-.862-.757-.003 0-.003 0-.003 0-.453-.433-.961-.935-1.585-1.469" stroke="#231f20" stroke-width="2.0317"/><path d="m648.622 94.129s-.015-.009-.041-.023c-.206-.11-1.164-.557-2.058.238-.818.743-1.86 1.637-1.439 2.299" stroke="#231f20" stroke-width="2.0317"/><path d="m645.293 96.744s-.078-.046-.206-.099l-.003-.003c-.354-.154-1.095-.377-1.678.043-.807.572-1.379 1.689-1.478 2.336" stroke="#231f20" stroke-width="2.0317"/><path d="m654.827 113.604c-4.876-1.556-4.867-1.196-9.354-3.559-1.869-.99-3.303-2.804-4.504-4.473-.244-.336-.572-.813-.892-1.314-.409-.647-.801-1.344-.97-1.858-.333-.998.616-2.563 1.797-2.563h.003.018c1.233.014 1.105.815 3.703 2.252" stroke="#231f20" stroke-width="2.0317"/><path d="m644.825 101.156c.665.528 1.098 1.083 1.327 1.62.455 1.057.113 2.046-.815 2.627-1.472.932-3.747-.636-4.412-1.315" stroke="#231f20" stroke-width="2.0317"/><path d="m786.96 117.653c-.224.375-.406.545-.436.313-.096-.734.099-.909-.877-4.813-.293-1.181-2.258-4.484-2.258-4.484" stroke="#231f20" stroke-miterlimit="10" stroke-width="2.0317"/><path d="m779.666 97.69c1.442 1.292 4.705 3.698 5.581 5.364.181.351 2.737 7.926 2.677 11.772-.009.79-.555 2.142-.964 2.824" stroke="#231f20" stroke-miterlimit="10" stroke-width="2.0317"/><path d="m783.924 119.476c-.081-.107-.146-.25-.194-.438-.36-1.46-.38-2.362-1.773-5.12-.88-1.73-2.218-4.464-2.218-4.464" stroke="#231f20" stroke-miterlimit="10" stroke-width="2.0317"/><path d="m786.922 117.206s.05.186.038.444c0 0 .003.003 0 .003-.012.372-.151.897-.737 1.26-.856.52-1.828 1.175-2.299.566" stroke="#231f20" stroke-miterlimit="10" stroke-width="2.0317"/><path d="m783.9 119.342s.012.049.023.134v.003c.047.305.093 1.048-.444 1.46-.682.531-1.762.734-2.327.656" stroke="#231f20" stroke-miterlimit="10" stroke-width="2.0317"/><path d="m770.562 101.382c.025.258.052.505.069.746.346 3.976-.212 5.805.247 8.118.113.566.397 1.118.792 1.675.868 1.219 2.261 2.45 3.488 3.872.438.508.824.995 1.167 1.457 1.922 2.586 2.517 4.417 3.097 4.824.618.432 1.442.145 1.597-.517.038-.154.038-.331-.012-.522-.284-1.173.041-1.367-1.718-4.769-.563-1.077-.955-2.612-3.756-5.95" stroke="#231f20" stroke-miterlimit="10" stroke-width="2.0317"/><path d="m655.408 113.024c2.377-1.901 6.251-5.825 6.492-9.293.044-.633-.032-1.251-.264-1.837-.047-.125-.102-.25-.166-.372" stroke="#231f20" stroke-miterlimit="10" stroke-width="4.0634"/><path d="m771.217 111.901c.056.075.11.151.16.226 1.687 2.403 2.311 5.288 1.753 8.202 1.669.833 2.902-1.5 3.195-3.079.015-.07.026-.14.035-.206" stroke="#231f20" stroke-width="2.0317"/><path d="m655.617 94.106c-.517-.424-1.629-.845-2.693-1.068-.006-.003-.015-.006-.021-.006-1.283-.27-2.493-.25-2.493.406 0 .705.093 1.355.293 1.93 0 .003.003.003.003.003.235.69.624 1.268 1.181 1.686.184.137.378.235.575.305h.003c1.32.461 2.876-.278 2.876.967 0 4.319 1.228 5.073 2.525 6.374" stroke="#231f20" stroke-width="2.0317"/><path d="m759.784 169.772s.09.194.253.488c.612 1.094 2.258 3.561 4.118 2.368 2.352-1.512 6.383-9.912 18.309-9.578l8.133-.177c1.042 0 2.049-.151 3.024-.404 5.444-1.405 9.914-5.918 13.879-4.458 3.19 1.176 2.183 6.336 2.986 8.315 1.364 3.373 2.929 4.133 4.43 7.378 2.813 6.075 2.923 15.423-3.222 7.97-2.97-3.599-7.482-9.369-13.615-8.823-.273.026-.549.061-.83.113 0 0-16.591 5.152-29.063 14.954-9.409 7.392-14.616 10.08-20.16 2.014-1.781-2.589-3.744-5.637-5.584-8.585-3.897-6.234-7.265-12.013-7.265-12.013" stroke="#231f20" stroke-width="6.0951"/><path d="m732.061 170.947-25.233-17.548v-.003l-.131-.09s6.449-9.889 9.085-14.742" stroke="#231f20" stroke-width="6.0951"/><path d="m723.327 66.277s.895 17.868 13.055 21.644c.758.235 1.557.415 2.403.534" stroke="#231f20" stroke-width="6.0951"/><path d="m686.792 227.8 8.396 2.017" stroke="#231f20" stroke-width="6.7204"/><path d="m795.321 162.612 2.694 9.073" stroke="#231f20" stroke-width="6.7204"/><path d="m667.302 220.576c0 10.115-8.202 18.314-18.312 18.314-10.114 0-18.313-8.199-18.313-18.314s8.199-18.314 18.313-18.314c10.11 0 18.312 8.199 18.312 18.314z" stroke="#231f20" stroke-width="6.0951"/></g></svg>