<svg enable-background="new 0 0 850.394 850.394" height="850.394" viewBox="0 0 850.394 850.394" width="850.394" xmlns="http://www.w3.org/2000/svg"><path d="m546.414 178.41 14.456 14.744-55.436 62.808-13.204-12.765 1.37-1.412 42.093-50.514z" fill="#fff"/><path d="m546.414 178.41-10.721 12.861-3.574-2.985-74.898-68.479-51.36-29.96-5.756-.107c0-.085 0-.182 0-.268 0-10.229-4.43-19.613-11.823-26.974l.46-.471 81.319 38.52z" fill="#0071bc"/><path d="m535.693 191.271-42.093 50.514-1.369 1.412-32.806-31.704 1.669 258.242-170.792-.075v-5.317c-4.28-17.12 10.7-32.1 32.1-36.38 47.08-19.26 106.999-10.7 117.699-36.38l2.14-218.277c6.249-33.352-91.056-1.723-76.311-37.653 19.966-7.768 34.036-27.531 34.175-45.913l5.756.107 51.36 29.96 74.898 68.479z" fill="#0071bc"/><path d="m459.007 545.276 50.044 231.705s-44.812 20.501-135.782 33.32l-11.32-84.615s-3.392-20.501-14.702-20.501h-3.263c-11.31 0-14.702 20.501-14.702 20.501l-11.321 84.615c-90.981-12.819-135.771-33.32-135.771-33.32l49.487-229.159 225.543-2.161z" fill="#fff"/><path d="m449.934 503.247 9.073 42.029-1.786.385-225.543 2.161 9.619-44.575z" fill="#fff"/><path d="m365.929 135.653c-14.745 35.93 82.56 4.301 76.311 37.653l-2.14 218.277c-10.7 25.68-70.619 17.12-117.699 36.38-21.399 4.28-36.379 19.26-32.1 36.38v5.317l-23.54-.011v-5.307c0-17.12 10.7-49.22 27.82-51.36 49.219-23.54 119.838-12.84 115.559-47.08l2.14-175.478c2.14-17.12-154.078 4.28-94.159-59.919l.246-.91c8.474 5.821 18.671 9.47 29.574 9.47 6.347.001 12.403-1.229 17.988-3.412z" fill="#fff"/><path d="m157.859 190.201-10.411-12.005 82.935-84.069 70.876-25.113c-4.098 6.078-6.42 13.054-6.42 20.458 0 14.755 9.384 30.441 23.529 40.125l-.246.91c-59.919 64.199 96.299 42.799 94.159 59.919l-2.14 175.478c4.28 34.24-66.339 23.54-115.559 47.08-17.12 2.14-27.82 34.24-27.82 51.36v5.307l-34.186-.011 1.68-258.23-31.575 30.505-.118-.128z" fill="#0071bc"/><path d="m365.929 135.653c-5.585 2.183-11.642 3.414-17.987 3.414-10.903 0-21.1-3.649-29.574-9.47-14.145-9.683-23.529-25.369-23.529-40.125 0-7.404 2.322-14.38 6.42-20.458 8.923-13.257 26.268-22.256 46.202-22.256 16.467 0 31.169 6.131 40.82 15.74 7.394 7.361 11.823 16.745 11.823 26.974v.268c-.139 18.382-14.209 38.145-34.175 45.913z" fill="#0071bc"/><path d="m157.859 190.201 44.704 51.584.118.129-14.445 13.952-55.436-62.819 14.648-14.851z" fill="#fff"/><path d="m388.281 62.498c7.394 7.361 11.823 16.745 11.823 26.974v.268c-.139 18.382-14.209 38.145-34.175 45.913-5.585 2.183-11.642 3.414-17.987 3.414-10.903 0-21.1-3.649-29.574-9.47-14.145-9.683-23.529-25.369-23.529-40.125 0-7.404 2.322-14.38 6.42-20.458 8.923-13.257 26.268-22.256 46.202-22.256 16.467 0 31.169 6.132 40.82 15.74z" fill="none" stroke="#231f20" stroke-width="14"/><path d="m388.741 62.027 81.32 38.52 76.353 77.863 14.456 14.744-55.436 62.808-13.204-12.765-32.805-31.703 1.669 258.241-170.792-.075-23.539-.011-34.186-.01 1.679-258.231-31.575 30.506-14.445 13.952-55.436-62.819 14.648-14.851 82.935-84.069 70.876-25.113.011-.011" fill="none" stroke="#231f20" stroke-width="14"/><path d="m231.678 547.822 9.619-44.575h208.637l9.073 42.029 50.044 231.705s-44.812 20.501-135.782 33.32l-11.32-84.615s-3.392-20.501-14.702-20.501h-3.263c-11.31 0-14.702 20.501-14.702 20.501l-11.321 84.615c-90.981-12.819-135.771-33.32-135.771-33.32z" fill="none" stroke="#231f20" stroke-width="14"/><path d="m230.137 547.833 1.541-.011 225.543-2.161" fill="none" stroke="#231f20" stroke-width="14"/><path d="m247.503 556.361-23.54 109.139" fill="none" stroke="#0071bc" stroke-width="7.4899"/><path d="m442.24 554.222 17.12 96.299" fill="none" stroke="#0071bc" stroke-width="7.4899"/><path d="m367.341 132.646c-.556 1.048-1.027 2.054-1.412 3.006-14.745 35.93 82.56 4.301 76.311 37.653" fill="none" stroke="#231f20" stroke-width="7.4899"/><path d="m442.24 173.306-2.139 218.277" fill="none" stroke="#231f20" stroke-width="7.4899"/><path d="m440.101 391.583c-10.7 25.68-70.619 17.12-117.699 36.38" fill="none" stroke="#231f20" stroke-width="7.4899"/><path d="m322.402 427.963c-21.399 4.28-36.379 19.26-32.1 36.38" fill="none" stroke="#231f20" stroke-width="7.4899"/><path d="m318.122 130.506c-59.919 64.199 96.299 42.799 94.159 59.919" fill="none" stroke="#231f20" stroke-width="7.4899"/><path d="m412.281 190.426-2.14 175.477" fill="none" stroke="#231f20" stroke-width="7.4899"/><path d="m410.141 365.903c4.28 34.24-66.339 23.54-115.559 47.08" fill="none" stroke="#231f20" stroke-width="7.4899"/><path d="m294.583 412.983c-17.12 2.14-27.82 34.24-27.82 51.36" fill="none" stroke="#231f20" stroke-width="7.4899"/><path d="m286.022 94.127-47.079 19.26" fill="none" stroke="#fff" stroke-width="7.4899"/><path d="m238.943 113.387-81.084 76.814-.235.225" fill="none" stroke="#fff" stroke-width="7.4899"/><path d="m146.924 177.586.524.61 10.411 12.005 44.704 51.584" fill="none" stroke="#231f20" stroke-width="7.4899"/><path d="m547.1 177.586-.686.824-10.721 12.861-42.093 50.514" fill="none" stroke="#231f20" stroke-width="7.4899"/><path d="m405.861 89.847 51.36 29.96" fill="none" stroke="#fff" stroke-width="7.4899"/><path d="m457.221 119.807 74.898 68.479" fill="none" stroke="#fff" stroke-width="7.4899"/><path d="m0 0h850.394v850.394h-850.394z" fill="none"/><path d="m795.315 191.98c-2.973-3.606-7.499-9.389-13.642-8.842l-.066-1.169-2.696-9.092-1.707-.143c5.456-1.408 9.935-5.93 13.908-4.467 3.199 1.178 2.188 6.349 2.993 8.33 1.366 3.379 2.935 4.145 4.438 7.396 2.821 6.088 2.933 15.457-3.228 7.987z" fill="#9c5c25"/><path d="m781.607 181.969.066 1.169c-.273.026-.553.061-.832.113 0 0-16.628 5.163-29.125 14.985-9.43 7.408-14.647 10.098-20.203 2.019-1.786-2.597-3.752-5.651-5.596-8.606l17.634-11.11h.003c.611 1.096 2.261 3.572 4.122 2.376 2.355-1.515 6.396-9.933 18.35-9.601l8.146-.174c1.044 0 2.054-.151 3.031-.404l1.707.143z" fill="#ffeec8"/><path d="m767.041 131.117c-.681.532-1.766.736-2.332.657l-.131-.035c-.157.66-.983.948-1.6.515-.585-.407-1.179-2.243-3.104-4.834-.344-.462-.73-.954-1.17-1.463-1.229-1.422-2.626-2.656-3.496-3.88-.396-.558-.68-1.111-.794-1.678-.459-2.315.097-4.147-.247-8.132 2.342-1.213 4.735-3.583 9.052-4.45 1.448 1.297 4.715 3.706 5.593 5.378.184.349 2.743 7.943 2.685 11.797-.012.785-.556 2.138-.966 2.824-.012.369-.148.901-.738 1.268-.858.521-1.827 1.175-2.301.576.044.308.081 1.047-.451 1.457z" fill="#ffeec8"/><path d="m754.168 112.267c-.657.337-1.309.587-1.998.686-2.685.384-6.198-3.226-8.23-4.461-8.892-5.378-14.252-10.046-19.368-10.872-1.567-.256-3.112-.148-4.727.41-12.187-3.784-13.082-21.692-13.082-21.692l.015-.587c7.026.195 14.595 2.184 24.251 6.128 17.858 7.3 25.612 15.546 32.191 25.938-4.317.867-6.71 3.237-9.052 4.45z" fill="#fff"/><path d="m756.673 130.506c.558-2.923-.07-5.814-1.757-8.22l.293-.209c.87 1.225 2.267 2.458 3.496 3.88.439.509.826 1 1.17 1.463-.297 1.58-1.533 3.921-3.202 3.086z" fill="#ffeec8"/><path d="m743.552 180.539-17.634 11.11c-3.906-6.248-7.28-12.035-7.28-12.035l-.148-.192v-.003c2.438-1.864 5.041-4.142 8.142-7.111l.515-.515c7.248-6.692 14.458-14.642 16.433-19.051 1.754 4.724 2.354 18.818 4.183 25.147l-4.206 2.65z" fill="#fff"/><path d="m741.688 136.286c2.955 5.116 4.654 10.27 1.891 16.456-1.975 4.409-9.185 12.358-16.433 19.051l-.515.515c-3.101 2.97-5.704 5.247-8.142 7.111v.003c-.96.733-1.896 1.405-2.824 2.03l-.148-.224-25.286-17.584-.131-.093c.172-.268 6.494-9.976 9.101-14.77l.244-.416c.556.303 1.233.547 2.086.742 5.133 1.167 11.285-1.96 15.846-3.315 7.972-2.379 19.891-8.223 19.667-16.771 1.602 2.477 3.263 4.868 4.644 7.265z" fill="#fff"/><path d="m715.517 181.228.148.224c-2.867 1.931-5.688 3.423-9.071 4.997-4.613 2.152-10.518 4.028-14.566 6.812-4.546 3.129-1.472 10.386-2.1 15.412-1.853 14.816-9.43 20.706-10.776 30.644-.043.326-.084.643-.119.957l-.465-.049-8.417-2.021-1.196-.154c.111-.826.134-1.736.064-2.743 0 0 .707-5.927.369-14.007-.337-8.08 0-30.47 1.685-35.859 1.681-5.39 18.519-20.877 18.519-20.877l.64-.919z" fill="#ffeec8"/><path d="m688.628 67.714c0 4.828-1.376 9.258-3.662 12.704-2.923 4.404-7.335 7.21-12.273 7.21-1.173 0-2.318-.157-3.418-.459-7.161-1.952-12.521-9.921-12.521-19.455 0-11 7.135-19.92 15.939-19.92 8.8 0 15.935 8.92 15.935 19.92z" fill="#ffeec8"/><path d="m678.567 240.224.465.049c-1.131 9.723 1.155 14.292-4.621 15.843-2.446.657-5.928-1.457-8.008-1.952-3.545-.849-5.078-.018-8.6-.687-6.588-1.239-14.281-6.596-4.616-7.268 4.441-.309 14.639.459 15.767-8.162l1.196.154z" fill="#9c5c25"/><path d="m674.97 116.086.104-.082c-3.95-5.32-8.99-19.961-10.012-27.465 1.355-.91 2.761-1.396 4.18-1.253l.032-.116c1.1.302 2.245.459 3.418.459 4.938 0 9.351-2.807 12.273-7.21l.247.169c7.737-3.365 14.368-5.041 21.564-4.837l-.015.587s.896 17.908 13.082 21.692c1.614-.559 3.159-.666 4.727-.41l-.21 1.512c5.032 11.689 10.678 18.734 12.519 28.358.099.518.154 1.029.163 1.53.224 8.548-11.695 14.391-19.667 16.771-4.561 1.355-10.713 4.482-15.846 3.315-.853-.195-1.53-.439-2.086-.742-2.185-1.187-2.486-3.231-3.903-6.346-5.264-11.579-11.741-17.954-20.987-25.929.137-.003.273-.003.413-.003z" fill="#fff"/><path d="m632.27 212.608c10.133 0 18.35 8.219 18.35 18.353 0 10.139-8.217 18.353-18.35 18.353-10.137 0-18.353-8.213-18.353-18.353 0-10.134 8.216-18.353 18.353-18.353z" fill="#fff"/><path d="m674.967 116.086c-.14 0-.276 0-.413.003-12.783.125-11.832 11.675-20.61 15.912-8.818 4.255-10.703-1.059-14.932-8.289-.103-.174-.207-.352-.312-.529h.003c2.382-1.902 6.262-5.834 6.503-9.31l.478.003c6.107 2.056 4.974-2.289 7.478-7.554 1.917-4.031 6.538-14.199 11.901-17.783 1.021 7.504 6.062 22.146 10.012 27.465l-.104.082z" fill="#fff"/><path d="m629.797 104.466c.934-.832 1.938-.308 2.086-.227l.009-.017c.471.209 1.3.657 2.094 1.268.238.695.628 1.274 1.187 1.692.184.137.378.236.579.306.297.623.375 1.294.078 1.989-.866 2.019-2.545 1.385-3.051 1.027-.003-.003-.006-.006-.009-.006-.122-.128-.253-.238-.387-.334-1.216-.87-2.182-2.347-3.54-3.007-.238-.116-.396-.248-.485-.39-.42-.661.621-1.559 1.439-2.301z" fill="#ffeec8"/><path d="m628.562 112.156c.305.291.587.55.866.762.454 1.059.113 2.047-.817 2.629-1.478.934-3.758-.64-4.421-1.318l-.847.169c-.412-.648-.806-1.347-.974-1.861-.335-1 .616-2.568 1.803-2.568h.018c1.236.018 1.105.817 3.709 2.26z" fill="#ffeec8"/><path d="m629.428 112.918c-.279-.212-.562-.471-.866-.762l-.663.073c-2.604-1.442-2.473-2.242-3.709-2.26-.006 0-.012 0-.018 0l1.021-.814c.099-.648.675-1.769 1.483-2.341.584-.428 1.326-.198 1.681-.046.09.142.247.273.485.39 1.358.66 2.324 2.138 3.54 3.007.134.096.265.207.387.334.003 0 .006.003.009.006.779.794 1.178 2.077-.396 2.725-1.319.538-2.119.319-2.954-.312z" fill="#ffeec8"/><path d="m635.751 107.488c-.36-.762-1.047-1.446-1.766-1.998-.197-.573-.291-1.228-.291-1.935 0-.657 1.222-.674 2.517-.401.006.003.008.003.014.006 1.054.337 1.943.707 2.685 1.067 1.868.908 2.805 1.769 3.02 1.984 1.681 1.637 1.757 3.633 2.943 5.849l.069-.026c.233.587.309 1.207.265 1.838-.241 3.476-4.121 7.408-6.503 9.31h-.004c.104.177.209.355.312.529l-.891.055c-4.889-1.562-4.88-1.201-9.374-3.566-1.873-.992-3.31-2.813-4.514-4.485-.241-.337-.573-.812-.891-1.317l.847-.169c.663.678 2.943 2.251 4.421 1.318.931-.582 1.271-1.571.817-2.629.835.631 1.635.849 2.955.311 1.573-.648 1.175-1.931.396-2.725.506.358 2.185.992 3.051-1.027.297-.694.219-1.366-.078-1.989z" fill="#ffeec8"/><g fill="none"><path d="m669.274 87.169c-7.161-1.952-12.521-9.921-12.521-19.455 0-11 7.135-19.92 15.939-19.92 8.801 0 15.936 8.92 15.936 19.92 0 4.828-1.376 9.258-3.662 12.704-2.923 4.404-7.335 7.21-12.273 7.21-1.173.001-2.319-.156-3.419-.459z" stroke="#231f20" stroke-width="6.1079"/><path d="m669.242 87.286c-1.419-.143-2.824.343-4.18 1.253-5.363 3.583-9.984 13.751-11.901 17.783-2.504 5.265-1.37 9.61-7.478 7.554" stroke="#231f20" stroke-width="6.1079"/><path d="m638.7 123.183c.104.177.209.355.312.529 4.229 7.23 6.113 12.544 14.932 8.289 8.778-4.237 7.827-15.787 20.61-15.912.137-.003.273-.003.413-.003" stroke="#231f20" stroke-width="6.1079"/><path d="m673.108 114.847c.488.419.971.835 1.445 1.242 9.246 7.975 15.724 14.351 20.987 25.929 1.417 3.115 1.719 5.16 3.903 6.346.556.303 1.233.547 2.086.742 5.133 1.167 11.285-1.96 15.846-3.315 7.972-2.379 19.891-8.223 19.667-16.771-.009-.5-.064-1.012-.163-1.53-1.841-9.625-7.486-16.669-12.519-28.358" stroke="#231f20" stroke-width="6.1079"/><path d="m685.213 80.587c7.737-3.365 14.368-5.041 21.564-4.837 7.026.195 14.595 2.184 24.251 6.128 17.858 7.3 25.612 15.546 32.191 25.938-4.316.867-6.71 3.237-9.052 4.45-.657.337-1.309.587-1.998.686-2.685.384-6.198-3.226-8.23-4.461-8.892-5.378-14.252-10.046-19.368-10.872-1.567-.256-3.112-.148-4.727.41-.428.146-.857.323-1.297.535" stroke="#231f20" stroke-width="6.1079"/><path d="m741.688 136.286c-1.381-2.397-3.042-4.788-4.645-7.266-.003-.003-.003-.006-.006-.009" stroke="#231f20" stroke-width="6.7345"/><path d="m689.591 164.562s-16.838 15.488-18.519 20.877c-1.685 5.389-2.021 27.779-1.685 35.859.338 8.08-.369 14.007-.369 14.007.069 1.006.047 1.917-.064 2.743-1.128 8.621-11.325 7.853-15.767 8.162-9.665.672-1.972 6.029 4.616 7.268 3.521.669 5.055-.163 8.6.687 2.08.495 5.562 2.609 8.008 1.952 5.776-1.55 3.49-6.12 4.621-15.843.035-.314.076-.631.119-.957 1.347-9.938 8.924-15.828 10.776-30.644.628-5.026-2.446-12.283 2.1-15.412 4.049-2.783 9.953-4.659 14.566-6.812 3.383-1.574 6.204-3.066 9.071-4.997.928-.625 1.864-1.297 2.824-2.03v-.003c2.438-1.864 5.041-4.142 8.142-7.111l.515-.515c7.248-6.692 14.458-14.642 16.433-19.051 2.764-6.187 1.064-11.34-1.891-16.456" stroke="#231f20" stroke-width="6.1079"/><path d="m743.552 180.539-17.634 11.11-.297.186" stroke="#231f20" stroke-width="6.1079"/><path d="m743.578 152.742c1.754 4.724 2.354 18.818 4.183 25.147l-4.206 2.65" stroke="#231f20" stroke-width="6.1079"/><path d="m665.011 88.126c.018.134.035.273.052.413 1.021 7.504 6.062 22.146 10.012 27.465.57.773 1.12 1.35 1.632 1.678" stroke="#231f20" stroke-width="6.1079"/><path d="m632.77 110.499c-.018-.015-.035-.026-.049-.038" stroke="#231f20" stroke-width="2.036"/><path d="m636.211 103.154c-.245-.078-.501-.157-.766-.232-1.347-.378-4.275.989-3.583 1.286.009.003.018.009.029.015.471.209 1.3.657 2.094 1.268.719.552 1.405 1.236 1.766 1.998.297.623.375 1.294.078 1.989-.866 2.019-2.545 1.385-3.051 1.027" stroke="#231f20" stroke-width="2.036"/><path d="m644.872 112.061c-1.187-2.216-1.263-4.212-2.943-5.849-.215-.215-1.151-1.076-3.02-1.984-.741-.36-1.631-.73-2.685-1.067" stroke="#231f20" stroke-width="2.036"/><path d="m631.9 104.251s-.006-.003-.018-.012c-.148-.081-1.152-.605-2.086.227-.817.742-1.858 1.64-1.439 2.301.09.142.247.273.485.39 1.358.66 2.324 2.138 3.54 3.007.134.096.265.207.387.334.003 0 .006.003.009.006.779.794 1.178 2.077-.396 2.725-1.32.538-2.12.32-2.955-.311-.279-.212-.562-.471-.866-.762-.457-.43-.963-.937-1.592-1.472" stroke="#231f20" stroke-width="2.036"/><path d="m628.564 106.869s-.079-.046-.207-.102c-.354-.151-1.097-.381-1.681.046-.809.573-1.385 1.693-1.483 2.341" stroke="#231f20" stroke-width="2.036"/><path d="m638.121 123.767c-4.889-1.562-4.88-1.201-9.374-3.566-1.873-.992-3.31-2.813-4.514-4.485-.241-.337-.573-.812-.891-1.317-.412-.648-.806-1.347-.974-1.861-.335-1 .616-2.568 1.803-2.568h.018c1.236.018 1.105.817 3.709 2.26" stroke="#231f20" stroke-width="2.036"/><path d="m628.096 111.292c.669.529 1.103 1.085 1.332 1.626.454 1.059.113 2.047-.817 2.629-1.478.934-3.758-.64-4.421-1.318" stroke="#231f20" stroke-width="2.036"/><path d="m763.22 107.817c1.448 1.297 4.715 3.706 5.593 5.378.184.349 2.743 7.943 2.685 11.797-.012.785-.556 2.138-.966 2.824-.224.381-.41.556-.438.323-.097-.739.099-.913-.879-4.822-.291-1.184-2.263-4.494-2.263-4.494" stroke="#231f20" stroke-miterlimit="10" stroke-width="2.036"/><path d="m770.491 127.376s.049.181.04.439c-.012.369-.148.901-.738 1.268-.858.521-1.827 1.175-2.301.576-.081-.107-.151-.253-.201-.448-.36-1.463-.378-2.368-1.776-5.131-.879-1.733-2.22-4.473-2.22-4.473" stroke="#231f20" stroke-miterlimit="10" stroke-width="2.036"/><path d="m767.466 129.517s.015.053.026.143c.044.309.081 1.047-.451 1.458-.681.532-1.766.736-2.332.657" stroke="#231f20" stroke-miterlimit="10" stroke-width="2.036"/><path d="m754.099 111.517c.029.259.052.509.069.75.344 3.984-.212 5.817.247 8.132.114.567.398 1.12.794 1.678.87 1.225 2.267 2.458 3.496 3.88.439.509.826 1 1.17 1.463 1.925 2.591 2.519 4.427 3.104 4.834.616.433 1.442.145 1.6-.515.037-.157.037-.332-.012-.526-.288-1.175.037-1.37-1.725-4.779-.564-1.079-.957-2.618-3.761-5.962" stroke="#231f20" stroke-miterlimit="10" stroke-width="2.036"/><path d="m638.703 123.183c2.382-1.902 6.262-5.834 6.503-9.31.044-.631-.031-1.251-.265-1.838-.046-.128-.102-.253-.165-.375" stroke="#231f20" stroke-miterlimit="10" stroke-width="4.0719"/><path d="m754.756 122.06c.055.075.107.151.16.227 1.687 2.405 2.314 5.296 1.757 8.22 1.669.834 2.905-1.507 3.202-3.086.015-.07.026-.14.034-.207" stroke="#231f20" stroke-width="2.036"/><path d="m638.909 104.228c-.515-.421-1.622-.843-2.685-1.067-.006-.003-.008-.003-.014-.006-1.295-.273-2.517-.256-2.517.401 0 .707.094 1.361.291 1.935.238.695.628 1.274 1.187 1.692.184.137.378.236.579.306 1.323.462 2.882-.279 2.882.968 0 4.331 1.23 5.087 2.534 6.39" stroke="#231f20" stroke-width="2.036"/><path d="m743.299 180.05s.091.195.253.489h.003c.611 1.096 2.261 3.572 4.122 2.376 2.355-1.515 6.396-9.933 18.35-9.601l8.146-.174c1.044 0 2.054-.151 3.031-.404 5.456-1.408 9.935-5.93 13.908-4.467 3.199 1.178 2.188 6.349 2.993 8.33 1.366 3.379 2.935 4.145 4.438 7.396 2.821 6.087 2.933 15.456-3.228 7.987-2.973-3.606-7.499-9.389-13.642-8.842-.273.026-.553.061-.832.113 0 0-16.628 5.163-29.125 14.985-9.43 7.408-14.647 10.098-20.203 2.019-1.786-2.597-3.752-5.651-5.596-8.606-3.906-6.248-7.28-12.035-7.28-12.035" stroke="#231f20" stroke-width="6.1079"/><path d="m715.517 181.228-25.286-17.584s-.131-.093-.134-.093h.003c.172-.268 6.494-9.976 9.101-14.77" stroke="#231f20" stroke-width="6.1079"/><path d="m706.763 76.338s.896 17.908 13.082 21.692c.759.235 1.559.416 2.408.535" stroke="#231f20" stroke-width="6.1079"/><path d="m670.15 238.203 8.417 2.021" stroke="#231f20" stroke-width="6.7345"/><path d="m778.911 172.877 2.696 9.092" stroke="#231f20" stroke-width="6.7345"/><path d="m650.619 230.96c0 10.139-8.217 18.353-18.35 18.353-10.137 0-18.353-8.213-18.353-18.353 0-10.133 8.216-18.353 18.353-18.353 10.133.001 18.35 8.22 18.35 18.353z" stroke="#231f20" stroke-width="6.1079"/></g></svg>