<svg enable-background="new 0 0 850.394 850.394" height="850.394" viewBox="0 0 850.394 850.394" width="850.394" xmlns="http://www.w3.org/2000/svg"><path d="m479.334 100.924 89.536 95.53-54.658 61.928-45.365-43.845c-98.525-19.011-15.213 187.852 1.445 223.13l.201 31.492-225.314-.096.105-16.426c4.589-14.654 102.376-270.584 1.551-238.185l-45.375 43.834-54.659-61.938 94.105-97.534 71.993-24.771c-4.041 5.992-6.33 12.871-6.33 20.182 0 23.273 35.68 72.066 65.156 53.119 29.54-18.99 31.649-33.76 38.634-53.119 2.289-6.33 1.308-12.512-1.941-18.114z" fill="#fff"/><path d="m468.436 543.64 49.342 228.459s-44.183 20.213-133.878 32.852l-11.162-83.428s-3.344-20.214-14.496-20.214h-3.218c-11.151 0-14.496 20.214-14.496 20.214l-11.162 83.428c-89.706-12.639-133.868-32.852-133.868-32.852l49.702-230.168 221.474 2.089z" fill="#002954"/><path d="m468.847 214.536 1.445 223.13c-16.658-35.278-99.971-242.141-1.445-223.13z" fill="#fbed24"/><path d="m459.489 502.2 8.947 41.44-1.762.38-221.474-2.089 8.577-39.731z" fill="#002954"/><path d="m312.898 74.043c8.809-13.061 25.9-21.933 45.554-21.933 20.382 0 42 10.223 49.964 24.001 3.25 5.602 4.23 11.784 1.941 18.114-6.984 19.359-9.094 34.129-38.634 53.119-29.477 18.947-65.156-29.846-65.156-53.119.001-7.311 2.291-14.19 6.331-20.182z" fill="#fff"/><path d="m246.835 214.452c100.825-32.399 3.038 223.531-1.551 238.185z" fill="#fbed24"/><path d="m408.417 76.111c3.25 5.602 4.23 11.784 1.941 18.114-6.984 19.359-9.094 34.129-38.634 53.119-29.477 18.947-65.156-29.846-65.156-53.119 0-7.311 2.29-14.189 6.33-20.182 8.809-13.061 25.9-21.933 45.554-21.933 20.383 0 42 10.223 49.965 24.001z" fill="none" stroke="#231f20" stroke-width="14.7699"/><path d="m402.762 74.127 5.655 1.984 70.917 24.813 89.536 95.53-54.658 61.927-45.365-43.845 1.445 223.13.201 31.492-225.314-.095.105-16.426 1.551-238.185-45.376 43.834-54.658-61.938 94.105-97.534 71.992-24.771h.011" fill="none" stroke="#231f20" stroke-width="14.7699"/><path d="m245.2 541.931 8.577-39.73h205.712l8.946 41.439 49.342 228.459s-44.183 20.213-133.878 32.852l-11.162-83.428s-3.344-20.214-14.496-20.214h-3.218c-11.151 0-14.496 20.214-14.496 20.214l-11.162 83.428c-89.706-12.639-133.868-32.852-133.868-32.852z" fill="none" stroke="#231f20" stroke-width="14.7699"/><path d="m243.016 541.91 2.184.021 221.474 2.089" fill="none" stroke="#231f20" stroke-width="14.7699"/><path d="m259.896 100.924 67.519 97.059" fill="none" stroke="#fbed24" stroke-width="14.7699"/><path d="m460.344 103.034-61.19 97.059" fill="none" stroke="#fbed24" stroke-width="14.7699"/><path d="m246.835 214.452c100.825-32.399 3.038 223.531-1.551 238.185-.137.433-.19.654-.159.654" fill="none" stroke="#231f20" stroke-width="7.3849"/><path d="m468.847 214.536c-98.525-19.011-15.213 187.852 1.445 223.13 1.541 3.281 2.511 5.075 2.712 5.075" fill="none" stroke="#231f20" stroke-width="7.3849"/><path d="m0 0h850.394v850.394h-850.394z" fill="none"/><path d="m810.364 179.214c-2.916-3.538-7.354-9.212-13.38-8.675l-.065-1.147-2.645-8.917-1.675-.14c5.355-1.381 9.745-5.814 13.643-4.382 3.138 1.158 2.146 6.228 2.936 8.173 1.341 3.315 2.878 4.063 4.354 7.251 2.766 5.971 2.874 15.16-3.168 7.837z" fill="#9c5c25"/><path d="m796.919 169.392.065 1.147c-.268.025-.539.063-.815.111 0 0-16.31 5.063-28.567 14.697-9.249 7.266-14.367 9.908-19.815 1.98-1.749-2.545-3.678-5.54-5.489-8.438l17.297-10.898c.602 1.076 2.219 3.503 4.045 2.328 2.311-1.486 6.273-9.742 17.998-9.414l7.99-.174c1.024 0 2.015-.148 2.973-.396l1.675.14z" fill="#ffeec8"/><path d="m786.053 116.285c-.012.365-.148.881-.725 1.238-.842.511-1.791 1.153-2.257.559.046.303.086 1.03-.438 1.435-.668.52-1.732.719-2.288.642l-.129-.034c-.153.65-.964.933-1.568.505-.574-.399-1.155-2.2-3.044-4.741-.337-.457-.717-.933-1.147-1.432-1.206-1.395-2.576-2.607-3.429-3.809-.388-.545-.67-1.087-.778-1.643-.451-2.274.094-4.071-.243-7.977 2.297-1.189 4.645-3.515 8.878-4.365 1.421 1.272 4.624 3.634 5.486 5.272.18.345 2.689 7.791 2.633 11.574-.012.773-.548 2.103-.95 2.773-.001 0 .002.003-.001.003z" fill="#ffeec8"/><path d="m770.006 101.028c-.645.331-1.283.574-1.96.67-2.633.376-6.079-3.164-8.073-4.373-8.718-5.278-13.976-9.856-18.993-10.667-1.538-.249-3.053-.146-4.639.402-11.953-3.711-12.832-21.273-12.832-21.273l.015-.576c6.895.191 14.314 2.14 23.786 6.008 17.516 7.161 25.121 15.251 31.574 25.444-4.234.85-6.581 3.175-8.878 4.365z" fill="#fff"/><path d="m772.462 118.915c.548-2.864-.068-5.7-1.723-8.062l.288-.206c.853 1.201 2.223 2.414 3.429 3.809.431.499.811.976 1.147 1.432-.29 1.552-1.503 3.845-3.141 3.027z" fill="#ffeec8"/><path d="m759.594 167.991-17.297 10.898c-3.831-6.128-7.141-11.808-7.141-11.808l-.146-.188c2.391-1.832 4.941-4.063 7.985-6.978l.505-.502c7.109-6.564 14.182-14.364 16.118-18.688 1.721 4.633 2.308 18.458 4.103 24.668z" fill="#fff"/><path d="m733.916 133.906c7.819-2.331 19.51-8.062 19.293-16.446 1.572 2.431 3.201 4.772 4.556 7.123 2.898 5.018 4.564 10.073 1.854 16.141-1.937 4.325-9.009 12.125-16.118 18.688l-.505.502c-3.044 2.916-5.595 5.146-7.985 6.978-.941.719-1.856 1.378-2.77 1.991l-.146-.217-24.805-17.248-.129-.091s6.339-9.72 8.93-14.489l.236-.411c.548.297 1.213.54 2.046.73 5.036 1.148 11.072-1.919 15.543-3.251z" fill="#fff"/><path d="m732.096 168.667.146.217c-2.81 1.895-5.58 3.361-8.897 4.904-4.524 2.111-10.316 3.951-14.287 6.679-4.459 3.069-1.443 10.19-2.06 15.12-1.817 14.532-9.249 20.309-10.569 30.054-.043.319-.083.63-.117.938l-.456-.048-8.256-1.983-1.173-.151c.108-.808.131-1.703.063-2.69 0 0 .693-5.811.362-13.736-.331-7.928 0-29.889 1.652-35.175 1.648-5.283 18.163-20.477 18.163-20.477l.625-.898z" fill="#ffeec8"/><path d="m705.722 57.326c0 4.739-1.35 9.081-3.595 12.464-2.866 4.319-7.194 7.072-12.035 7.072-1.15 0-2.271-.157-3.353-.451-7.023-1.917-12.281-9.734-12.281-19.085 0-10.789 6.998-19.539 15.634-19.539 8.632.001 15.63 8.75 15.63 19.539z" fill="#ffeec8"/><path d="m695.854 226.53.456.048c-1.109 9.537 1.133 14.019-4.533 15.539-2.399.645-5.813-1.426-7.854-1.914-3.478-.833-4.98-.017-8.436-.673-6.462-1.212-14.007-6.47-4.527-7.126 4.356-.303 14.357.451 15.465-8.008l1.173.151z" fill="#9c5c25"/><path d="m753.209 117.457v.003c.217 8.384-11.474 14.115-19.293 16.446-4.471 1.332-10.507 4.399-15.542 3.252-.833-.191-1.498-.434-2.046-.73-2.14-1.161-2.438-3.167-3.828-6.222-5.161-11.36-11.514-17.607-20.583-25.43.135-.003.269-.003.405-.003l.105-.08c-3.874-5.215-8.817-19.579-9.816-26.942 1.33-.89 2.705-1.366 4.097-1.227l.031-.114c1.081.293 2.202.451 3.353.451 4.841 0 9.169-2.753 12.035-7.072l.246.166c7.588-3.301 14.095-4.944 21.15-4.744l-.015.576s.879 17.562 12.832 21.273c1.586-.547 3.101-.65 4.639-.402l-.209 1.486c4.933 11.465 10.473 18.375 12.278 27.814.098.509.152 1.011.161 1.499z" fill="#fff"/><path d="m691.917 104.776c-12.535.12-11.604 11.451-20.215 15.604-8.649 4.177-10.498-1.035-14.646-8.127-.1-.171-.203-.345-.306-.519h.003c2.337-1.869 6.143-5.723 6.379-9.135l.468.006c5.991 2.014 4.878-2.248 7.335-7.412 1.88-3.954 6.413-13.927 11.676-17.442.999 7.363 5.942 21.727 9.816 26.942l-.105.08c-.136 0-.27 0-.405.003z" fill="#fff"/><circle cx="650.443" cy="217.446" fill="#fff" r="18.001"/><path d="m648.019 93.374c.879-.779 1.82-.342 2.022-.234l.006-.014c.457.202 1.287.645 2.08 1.255.233.682.616 1.25 1.164 1.661.18.134.373.231.57.299.288.61.365 1.27.074 1.948-.855 1.991-2.514 1.353-3.001 1.001-.003-.006-.006-.008-.009-.006-.117-.123-.242-.228-.371-.319-1.192-.856-2.14-2.305-3.472-2.953-.23-.111-.385-.24-.474-.376-.42-.647.607-1.532 1.411-2.262z" fill="#ffeec8"/><path d="m646.807 100.919c.3.285.579.539.853.748.442 1.039.105 2.011-.805 2.579-1.449.913-3.686-.627-4.336-1.295l-.833.168c-.402-.636-.79-1.321-.955-1.826-.325-.981.604-2.519 1.769-2.519h.02c1.213.014 1.081.801 3.638 2.213z" fill="#ffeec8"/><path d="m646.609 95.636c.089.137.243.265.474.376 1.332.647 2.279 2.097 3.472 2.953.129.091.254.197.371.319.003-.002.006 0 .009.006.771.779 1.17 2.042-.38 2.682-1.292.528-2.076.314-2.896-.305-.273-.208-.553-.462-.853-.748l-.65.068c-2.557-1.412-2.425-2.199-3.638-2.213-.006 0-.014 0-.02 0l1.004-.802c.097-.636.662-1.734 1.455-2.296.574-.416 1.305-.191 1.652-.04z" fill="#ffeec8"/><path d="m656.184 112.305c-4.796-1.529-4.787-1.175-9.197-3.497-1.837-.973-3.247-2.756-4.428-4.396-.236-.331-.562-.796-.873-1.292l.833-.168c.65.667 2.887 2.208 4.336 1.295.91-.567 1.247-1.54.805-2.579.819.619 1.604.833 2.896.305 1.55-.639 1.15-1.903.38-2.682.487.351 2.146.99 3.001-1.001.291-.679.214-1.338-.074-1.948-.354-.748-1.03-1.418-1.734-1.96-.194-.565-.285-1.204-.285-1.897 0-.642 1.187-.662 2.447-.399h.003c3.641 1.167 5.329 2.71 5.626 3.004 1.648 1.604 1.723 3.563 2.887 5.734l.068-.026c.229.576.303 1.184.26 1.803-.236 3.412-4.042 7.266-6.379 9.135h-.003c.103.174.206.348.306.519z" fill="#ffeec8"/><g fill="none"><path d="m686.739 76.412c-7.023-1.917-12.281-9.734-12.281-19.085 0-10.789 6.998-19.539 15.634-19.539 8.632 0 15.63 8.75 15.63 19.539 0 4.739-1.35 9.081-3.595 12.464-2.866 4.319-7.194 7.072-12.035 7.072-1.151-.001-2.272-.158-3.353-.451z" stroke="#231f20" stroke-width="5.9908"/><path d="m686.708 76.525c-1.392-.14-2.767.337-4.097 1.227-5.263 3.515-9.796 13.488-11.676 17.442-2.457 5.164-1.344 9.426-7.335 7.412" stroke="#231f20" stroke-width="5.9908"/><path d="m656.751 111.734c.103.174.206.348.306.519 4.147 7.092 5.996 12.304 14.646 8.127 8.61-4.153 7.68-15.484 20.215-15.604.135-.003.269-.003.405-.003" stroke="#231f20" stroke-width="5.9908"/><path d="m753.209 117.457c-.009-.488-.063-.99-.16-1.498-1.806-9.44-7.346-16.35-12.278-27.814" stroke="#231f20" stroke-width="5.9908"/><path d="m690.499 103.558c.479.411.953.816 1.418 1.218 9.069 7.822 15.422 14.07 20.583 25.43 1.39 3.055 1.688 5.061 3.828 6.222.548.297 1.213.54 2.046.73 5.035 1.147 11.071-1.92 15.542-3.252 7.819-2.331 19.51-8.062 19.293-16.446" stroke="#231f20" stroke-width="5.9908"/><path d="m702.373 69.956c7.588-3.301 14.095-4.944 21.15-4.744 6.895.191 14.314 2.14 23.786 6.008 17.516 7.161 25.121 15.251 31.574 25.444-4.233.85-6.581 3.175-8.878 4.365-.645.331-1.283.574-1.96.67-2.633.376-6.079-3.164-8.073-4.373-8.718-5.278-13.976-9.856-18.993-10.667-1.538-.249-3.053-.146-4.639.402-.42.146-.842.32-1.272.528" stroke="#231f20" stroke-width="5.9908"/><path d="m753.209 117.457-.006-.006" stroke="#231f20" stroke-width="6.6054"/><path d="m753.209 117.46v-.003" stroke="#231f20" stroke-width="5.9908"/><path d="m757.765 124.583c-1.354-2.351-2.983-4.692-4.556-7.123" stroke="#231f20" stroke-width="6.6054"/><path d="m706.666 152.318s-16.515 15.194-18.163 20.477c-1.652 5.286-1.983 27.247-1.652 35.175.331 7.925-.362 13.736-.362 13.736.068.987.046 1.883-.063 2.69-1.107 8.458-11.108 7.705-15.465 8.008-9.479.656-1.935 5.914 4.527 7.126 3.455.656 4.958-.16 8.436.673 2.04.488 5.454 2.559 7.854 1.914 5.666-1.521 3.424-6.002 4.533-15.539.034-.308.074-.619.117-.938 1.32-9.745 8.752-15.522 10.569-30.054.616-4.93-2.399-12.05 2.06-15.12 3.971-2.728 9.763-4.567 14.287-6.679 3.317-1.543 6.088-3.009 8.897-4.904.913-.613 1.828-1.272 2.77-1.991 2.391-1.832 4.941-4.063 7.985-6.978l.505-.502c7.109-6.564 14.182-14.364 16.118-18.688 2.71-6.068 1.044-11.123-1.854-16.141" stroke="#231f20" stroke-width="5.9908"/><path d="m759.619 140.724c1.721 4.633 2.308 18.458 4.103 24.668l-4.128 2.599-17.297 10.898-.291.183" stroke="#231f20" stroke-width="5.9908"/><path d="m682.558 77.347c.017.131.034.268.054.405.999 7.363 5.942 21.727 9.816 26.942.563.756 1.099 1.321 1.601 1.643" stroke="#231f20" stroke-width="5.9908"/><path d="m650.926 99.285c-.015-.011-.028-.02-.04-.031" stroke="#231f20" stroke-width="1.9969"/><path d="m654.289 92.084c-.233-.077-.479-.151-.73-.223-1.32-.374-4.193.967-3.515 1.261l.003.003c.457.202 1.287.645 2.08 1.255.704.542 1.381 1.212 1.734 1.96.288.61.365 1.27.074 1.948-.855 1.991-2.514 1.353-3.001 1.001" stroke="#231f20" stroke-width="1.9969"/><path d="m662.805 100.823c-1.164-2.171-1.238-4.131-2.887-5.734-.297-.294-1.985-1.837-5.626-3.004" stroke="#231f20" stroke-width="1.9969"/><path d="m650.081 93.163s-.014-.008-.04-.022c-.202-.108-1.144-.545-2.022.234-.804.73-1.831 1.615-1.409 2.262.089.137.243.265.474.376 1.332.647 2.279 2.097 3.472 2.953.129.091.254.197.371.319.003-.002.006 0 .009.006.771.779 1.17 2.042-.38 2.682-1.292.528-2.076.314-2.896-.305-.273-.208-.553-.462-.853-.748-.448-.425-.944-.918-1.561-1.446" stroke="#231f20" stroke-width="1.9969"/><path d="m646.81 95.733s-.074-.043-.2-.097c-.348-.151-1.078-.376-1.651.04-.793.562-1.358 1.66-1.455 2.296" stroke="#231f20" stroke-width="1.9969"/><path d="m656.184 112.305c-4.796-1.529-4.787-1.175-9.197-3.497-1.837-.973-3.247-2.756-4.428-4.396-.236-.331-.562-.796-.873-1.292-.402-.636-.79-1.321-.955-1.826-.325-.981.604-2.519 1.769-2.519h.02c1.213.014 1.081.801 3.638 2.213" stroke="#231f20" stroke-width="1.9969"/><path d="m646.35 100.072c.656.519 1.084 1.067 1.31 1.595.442 1.039.105 2.011-.805 2.579-1.449.913-3.686-.627-4.336-1.295" stroke="#231f20" stroke-width="1.9969"/><path d="m786.053 116.285c-.22.368-.399.536-.428.308-.094-.722.097-.893-.861-4.73-.285-1.161-2.22-4.408-2.22-4.408" stroke="#231f20" stroke-miterlimit="10" stroke-width="1.9969"/><path d="m778.884 96.663c1.421 1.272 4.624 3.634 5.486 5.272.18.345 2.689 7.791 2.633 11.574-.012.773-.548 2.103-.95 2.773" stroke="#231f20" stroke-miterlimit="10" stroke-width="1.9969"/><path d="m786.016 115.845s.049.183.037.437c0 0 .003.003 0 .003-.012.365-.148.881-.725 1.238-.842.511-1.791 1.153-2.257.559-.079-.105-.145-.248-.193-.436-.354-1.435-.371-2.319-1.743-5.033-.861-1.7-2.177-4.387-2.177-4.387" stroke="#231f20" stroke-miterlimit="10" stroke-width="1.9969"/><path d="m783.049 117.945s.012.051.022.137c.046.303.086 1.03-.438 1.435-.668.52-1.732.719-2.288.642" stroke="#231f20" stroke-miterlimit="10" stroke-width="1.9969"/><path d="m769.938 100.292c.028.254.052.499.068.736.337 3.906-.208 5.703.243 7.977.108.556.391 1.098.778 1.643.853 1.201 2.223 2.414 3.429 3.809.431.499.811.976 1.147 1.432 1.889 2.542 2.47 4.342 3.044 4.741.604.428 1.415.146 1.568-.505.037-.151.037-.325-.011-.517-.283-1.152.037-1.344-1.692-4.684-.553-1.062-.938-2.57-3.688-5.848" stroke="#231f20" stroke-miterlimit="10" stroke-width="1.9969"/><path d="m656.754 111.734c2.337-1.869 6.143-5.723 6.379-9.135.043-.619-.031-1.227-.26-1.803-.046-.125-.1-.248-.162-.368" stroke="#231f20" stroke-miterlimit="10" stroke-width="3.9939"/><path d="m770.582 110.63c.055.074.105.148.157.223 1.654 2.362 2.271 5.198 1.723 8.062 1.638.819 2.851-1.475 3.142-3.026.014-.069.025-.137.034-.203" stroke="#231f20" stroke-width="1.9969"/><path d="m656.957 93.14c-.511-.417-1.612-.836-2.665-1.056-.003 0-.003 0-.003 0-1.261-.262-2.447-.243-2.447.399 0 .693.091 1.332.285 1.897.233.682.616 1.25 1.164 1.661.18.134.373.231.57.299 1.295.451 2.824-.274 2.824.95 0 4.245 1.207 4.989 2.482 6.267" stroke="#231f20" stroke-width="1.9969"/><path d="m759.346 167.512s.088.191.248.479c.602 1.076 2.219 3.503 4.045 2.328 2.311-1.486 6.273-9.742 17.998-9.414l7.99-.174c1.024 0 2.015-.148 2.973-.396 5.355-1.381 9.745-5.814 13.643-4.382 3.138 1.158 2.146 6.228 2.936 8.173 1.341 3.315 2.878 4.063 4.354 7.251 2.767 5.971 2.875 15.16-3.167 7.837-2.916-3.538-7.354-9.212-13.38-8.675-.268.025-.539.063-.815.111 0 0-16.31 5.063-28.567 14.697-9.249 7.266-14.367 9.908-19.815 1.98-1.749-2.545-3.678-5.54-5.489-8.438-3.831-6.128-7.141-11.808-7.141-11.808" stroke="#231f20" stroke-width="5.9908"/><path d="m732.096 168.667-24.805-17.248-.129-.091s6.339-9.72 8.93-14.489" stroke="#231f20" stroke-width="5.9908"/><path d="m723.509 65.788s.879 17.562 12.832 21.273c.744.234 1.529.411 2.362.528" stroke="#231f20" stroke-width="5.9908"/><path d="m687.599 224.547 8.255 1.983" stroke="#231f20" stroke-width="6.6054"/><path d="m794.274 160.474 2.645 8.918" stroke="#231f20" stroke-width="6.6054"/><circle cx="650.442" cy="217.446" r="18" stroke="#231f20" stroke-width="5.9908"/></g></svg>