<svg enable-background="new 0 0 850.394 850.394" height="850.394" viewBox="0 0 850.394 850.394" width="850.394" xmlns="http://www.w3.org/2000/svg"><path d="m470.606 109.741 88.264 90.012-53.882 61.047-40.581-39.229-58.281-132.63-4.826.666c-.967-3.421-2.465-6.687-4.42-9.724z" fill="#231f20"/><path d="m459.863 542.004 48.64 225.21s-43.555 19.926-131.975 32.386l-11.003-82.243s-3.297-19.926-14.29-19.926h-3.172c-10.993 0-14.289 19.926-14.289 19.926l-11.003 82.243c-88.431-12.46-131.965-32.386-131.965-32.386l48.1-222.735 219.22-2.101z" fill="#231f20"/><path d="m464.407 221.571-4.139-3.994 1.622 251.002-222.111-.094 1.633-250.992-3.11 3.005 57.512-137.612 10.722-3.796c-3.983 5.907-6.24 12.688-6.24 19.885 0 22.942 23.358 48.204 51.615 48.204s50.7-25.262 50.7-48.204c0-3.224-.458-6.365-1.311-9.371l4.826-.666z" fill="#fff"/><path d="m451.044 501.152 8.819 40.852-1.737.374-219.22 2.101 9.349-43.327z" fill="#231f20"/><path d="m306.537 79.092c8.674-12.886 25.532-21.632 44.907-21.632 19.78 0 36.93 9.1 45.437 22.422 1.955 3.037 3.453 6.302 4.42 9.724.853 3.006 1.311 6.146 1.311 9.371 0 22.942-22.443 48.204-50.7 48.204-28.256 0-51.615-25.262-51.615-48.204 0-7.197 2.257-13.977 6.24-19.885z" fill="#fff"/><path d="m295.814 82.888-57.511 137.612-41.621 40.206-53.882-61.058 94.847-96.147z" fill="#231f20"/><path d="m401.301 89.606c.853 3.006 1.311 6.146 1.311 9.371 0 22.942-22.443 48.204-50.7 48.204-28.256 0-51.615-25.262-51.615-48.204 0-7.197 2.257-13.978 6.24-19.885 8.674-12.886 25.532-21.632 44.907-21.632 19.78 0 36.93 9.1 45.437 22.422 1.955 3.037 3.452 6.303 4.42 9.724z" fill="none" stroke="#231f20" stroke-width="14.5599"/><path d="m395.124 79.165 1.757.718 73.725 29.858 88.264 90.011-53.882 61.048-40.581-39.229-4.138-3.993 1.622 251.002-222.111-.094 1.633-250.991-3.11 3.005-41.621 40.206-53.882-61.058 94.847-96.147 58.167-20.613 10.723-3.796.01-.01" fill="none" stroke="#231f20" stroke-width="14.5599"/><path d="m238.906 544.479 9.349-43.326h202.789l8.819 40.852 48.64 225.21s-43.555 19.926-131.975 32.386l-11.003-82.243s-3.297-19.926-14.29-19.926h-3.172c-10.993 0-14.289 19.926-14.289 19.926l-11.003 82.242c-88.431-12.46-131.965-32.386-131.965-32.386z" fill="none" stroke="#231f20" stroke-width="14.5599"/><path d="m237.408 544.489 1.498-.01 219.22-2.101" fill="none" stroke="#231f20" stroke-width="14.5599"/><path d="m237.647 222.06.656-1.56 57.511-137.612.073-.187" fill="none" stroke="#231f20" stroke-width="1.04"/><path d="m406.126 88.941 58.281 132.63 2.039 4.649" fill="none" stroke="#231f20" stroke-width="1.04"/><path d="m146.128 211.66c39.52-29.12 89.439-114.399 145.599-122.719" fill="none" stroke="#fff" stroke-width="7.2799"/><path d="m406.126 88.941c49.92 12.479 122.72 91.519 147.68 124.799" fill="none" stroke="#fff" stroke-width="7.2799"/><path d="m0 0h850.394v850.394h-850.394z" fill="none"/><path d="m807.653 185.803c-3.051-3.702-7.697-9.638-14.003-9.077l-.068-1.2-2.768-9.333-1.753-.146c5.602-1.445 10.199-6.088 14.277-4.586 3.284 1.209 2.245 6.518 3.072 8.554 1.403 3.469 3.013 4.251 4.557 7.589 2.896 6.25 3.01 15.866-3.314 8.199z" fill="#9c5c25"/><path d="m793.582 175.526.068 1.2c-.28.027-.567.063-.854.117 0 0-17.069 5.299-29.898 15.382-9.68 7.604-15.036 10.369-20.738 2.072-1.833-2.663-3.852-5.798-5.745-8.832l18.103-11.405c.63 1.125 2.323 3.664 4.233 2.436 2.419-1.555 6.565-10.196 18.837-9.853l8.362-.182c1.072 0 2.108-.155 3.111-.415l1.753.146z" fill="#ffeec8"/><path d="m778.63 123.325c-.699.546-1.813.755-2.395.675l-.135-.036c-.161.678-1.009.974-1.642.529-.601-.418-1.209-2.302-3.186-4.959-.353-.478-.75-.979-1.2-1.501-1.264-1.463-2.696-2.729-3.589-3.983-.406-.573-.699-1.141-.815-1.723-.472-2.38.102-4.261-.254-8.351 2.403-1.242 4.861-3.675 9.292-4.565 1.486 1.329 4.84 3.804 5.741 5.517.188.361 2.815 8.154 2.756 12.11-.013.81-.57 2.195-.991 2.899-.013.382-.152.925-.759 1.305-.881.531-1.875 1.203-2.361.588.046.316.084 1.074-.462 1.495z" fill="#ffeec8"/><path d="m765.415 103.975c-.675.346-1.344.603-2.051.705-2.756.394-6.362-3.311-8.449-4.577-9.128-5.523-14.63-10.315-19.882-11.163-1.609-.263-3.194-.152-4.852.421-12.51-3.884-13.43-22.264-13.43-22.264l.015-.603c7.217.2 14.982 2.239 24.895 6.288 18.332 7.494 26.292 15.961 33.046 26.629-4.431.889-6.889 3.322-9.292 4.564z" fill="#fff"/><path d="m766.484 114.049c.893 1.254 2.325 2.52 3.589 3.983.45.522.848 1.024 1.2 1.501-.305 1.625-1.574 4.022-3.287 3.165.573-2.998-.072-5.965-1.804-8.438z" fill="#ffeec8"/><path d="m754.518 174.061-18.103 11.405c-4.009-6.413-7.473-12.358-7.473-12.358l-.152-.197c2.502-1.917 5.174-4.255 8.357-7.303l.528-.525c7.44-6.873 14.842-15.033 16.869-19.559 1.8 4.849 2.415 19.317 4.293 25.814z" fill="#fff"/><path d="m752.604 128.631c3.034 5.251 4.777 10.542 1.941 16.893-2.027 4.526-9.429 12.686-16.869 19.559l-.528.525c-3.184 3.048-5.855 5.386-8.357 7.303-.985.755-1.946 1.442-2.899 2.087l-.151-.23-25.961-18.051-.134-.096s6.634-10.172 9.345-15.164l.251-.427c.57.311 1.266.561 2.141.761 5.27 1.197 11.584-2.009 16.266-3.404 8.187-2.439 20.419-8.44 20.189-17.215 1.642 2.547 3.348 4.998 4.766 7.459z" fill="#fff"/><path d="m725.739 174.768.151.23c-2.943 1.979-5.84 3.511-9.312 5.129-4.735 2.207-10.797 4.132-14.952 6.989-4.667 3.213-1.511 10.665-2.156 15.821-1.901 15.209-9.68 21.258-11.062 31.457-.045.334-.087.66-.122.982l-.479-.051-8.641-2.075-1.227-.159c.113-.845.138-1.782.065-2.815 0 0 .726-6.082.379-14.376-.346-8.297 0-31.281 1.729-36.813 1.726-5.529 19.01-21.431 19.01-21.431l.653-.94z" fill="#ffeec8"/><path d="m698.137 58.241c0 4.959-1.412 9.503-3.763 13.044-3 4.52-7.529 7.401-12.596 7.401-1.204 0-2.38-.161-3.509-.472-7.351-2.006-12.854-10.187-12.854-19.974 0-11.292 7.324-20.449 16.362-20.449 9.036.001 16.36 9.158 16.36 20.45z" fill="#ffeec8"/><path d="m687.809 235.326.479.051c-1.162 9.981 1.185 14.671-4.745 16.263-2.511.674-6.084-1.493-8.219-2.003-3.64-.872-5.213-.018-8.829-.705-6.763-1.272-14.659-6.771-4.738-7.458 4.56-.316 15.027.472 16.186-8.381l1.227.159z" fill="#9c5c25"/><path d="m747.836 121.172c.229 8.775-12.003 14.776-20.189 17.215-4.682 1.395-10.996 4.601-16.266 3.404-.875-.2-1.57-.451-2.141-.761-2.242-1.218-2.553-3.317-4.007-6.515-5.404-11.886-12.054-18.425-21.542-26.614.141-.003.281-.003.424-.003l.108-.084c-4.055-5.458-9.229-20.49-10.274-28.196 1.392-.932 2.831-1.43 4.288-1.284l.032-.119c1.129.311 2.305.472 3.509.472 5.066 0 9.596-2.881 12.596-7.401l.257.173c7.942-3.454 14.753-5.174 22.136-4.965l-.015.603s.92 18.38 13.43 22.264c1.657-.573 3.242-.684 4.852-.421l-.215 1.555c5.165 11.997 10.96 19.228 12.851 29.11.1.531.154 1.054.166 1.567z" fill="#fff"/><circle cx="640.283" cy="225.82" fill="#fff" r="18.84"/><path d="m683.691 107.901c-13.122.125-12.148 11.981-21.159 16.332-9.053 4.368-10.987-1.084-15.328-8.506-.104-.179-.212-.361-.319-.543h.003c2.445-1.956 6.428-5.989 6.676-9.56l.489.006c6.271 2.108 5.105-2.353 7.677-7.756 1.967-4.138 6.712-14.576 12.22-18.254 1.045 7.706 6.22 22.739 10.274 28.196l-.108.084c-.143-.002-.284-.002-.425.001z" fill="#fff"/><path d="m637.745 95.967c.92-.818 1.905-.358 2.117-.245l.006-.015c.478.212 1.347.675 2.177 1.314.244.713.645 1.308 1.218 1.738.188.14.392.242.598.313.301.639.382 1.329.077 2.039-.896 2.084-2.63 1.415-3.141 1.048-.003-.006-.006-.009-.009-.006-.123-.128-.254-.239-.389-.334-1.248-.896-2.239-2.412-3.634-3.09-.241-.116-.402-.25-.495-.394-.442-.678.633-1.603 1.475-2.368z" fill="#ffeec8"/><path d="m631.117 106.164c-.421-.666-.824-1.382-1-1.911-.341-1.024.633-2.634 1.851-2.634h.021c1.269.015 1.135.839 3.807 2.317l.681-.074c.313.298.603.564.89.782.466 1.086.116 2.102-.839 2.699-1.517.958-3.857-.654-4.538-1.353z" fill="#ffeec8"/><path d="m640.788 102.154c.003-.003.006 0 .009.006.806.812 1.224 2.138-.397 2.804-1.355.552-2.177.328-3.033-.319-.287-.218-.576-.484-.89-.782l-.681.074c-2.672-1.478-2.538-2.302-3.807-2.317-.006 0-.016 0-.021 0l1.052-.839c.101-.666.692-1.815 1.522-2.403.6-.436 1.364-.2 1.729-.042.093.144.254.278.495.394 1.395.678 2.386 2.195 3.634 3.09.134.095.265.205.388.334z" fill="#ffeec8"/><path d="m646.888 115.183h-.003c.107.182.215.364.319.543l-.914.054c-5.019-1.6-5.01-1.23-9.622-3.66-1.926-1.018-3.398-2.884-4.634-4.601-.248-.346-.589-.836-.917-1.355l.872-.173c.681.699 3.021 2.311 4.538 1.353.955-.597 1.305-1.612.839-2.699.856.647 1.678.872 3.033.319 1.621-.666 1.203-1.992.397-2.804.511.367 2.245 1.036 3.141-1.048.305-.71.224-1.4-.077-2.039-.37-.782-1.078-1.484-1.815-2.051-.203-.591-.299-1.26-.299-1.985 0-.675 1.242-.696 2.562-.418h.003c1.096.349 2.019.731 2.789 1.104 1.917.932 2.878 1.815 3.099 2.036 1.726 1.681 1.804 3.729 3.021 6.004l.072-.027c.238.603.316 1.239.271 1.887-.248 3.571-4.23 7.605-6.675 9.56z" fill="#ffeec8"/><g fill="none"><path d="m678.27 78.215c-7.351-2.006-12.854-10.187-12.854-19.974 0-11.292 7.324-20.449 16.362-20.449 9.034 0 16.358 9.157 16.358 20.449 0 4.959-1.412 9.503-3.763 13.044-3 4.52-7.529 7.401-12.596 7.401-1.203.001-2.379-.161-3.507-.471z" stroke="#231f20" stroke-width="6.2699"/><path d="m678.237 78.334c-1.457-.146-2.896.353-4.288 1.284-5.508 3.678-10.253 14.116-12.22 18.254-2.571 5.404-1.406 9.864-7.677 7.756" stroke="#231f20" stroke-width="6.2699"/><path d="m646.885 115.183c.107.182.215.364.319.543 4.341 7.422 6.275 12.874 15.328 8.506 9.011-4.35 8.037-16.207 21.159-16.332.141-.003.281-.003.424-.003" stroke="#231f20" stroke-width="6.2699"/><path d="m682.205 106.624c.504.43 1 .856 1.486 1.278 9.488 8.189 16.138 14.728 21.542 26.614 1.454 3.197 1.765 5.296 4.007 6.515.57.311 1.266.561 2.141.761 5.27 1.197 11.584-2.009 16.266-3.404 8.187-2.439 20.419-8.44 20.189-17.215-.012-.514-.066-1.036-.167-1.567-1.891-9.882-7.686-17.114-12.851-29.11" stroke="#231f20" stroke-width="6.2699"/><path d="m694.631 71.458c7.942-3.454 14.753-5.174 22.136-4.965 7.217.2 14.982 2.239 24.895 6.288 18.332 7.494 26.292 15.961 33.046 26.629-4.431.89-6.889 3.323-9.292 4.565-.675.346-1.344.603-2.051.705-2.756.394-6.362-3.311-8.449-4.577-9.128-5.523-14.63-10.315-19.882-11.163-1.609-.263-3.194-.152-4.852.421-.439.149-.881.331-1.332.549" stroke="#231f20" stroke-width="6.2699"/><path d="m752.604 128.631c-1.418-2.46-3.123-4.912-4.768-7.458-.003-.003-.003-.006-.006-.009" stroke="#231f20" stroke-width="6.9131"/><path d="m699.125 157.657s-17.284 15.902-19.01 21.431c-1.729 5.532-2.075 28.516-1.729 36.813.347 8.294-.379 14.376-.379 14.376.072 1.033.048 1.971-.065 2.815-1.158 8.853-11.626 8.064-16.186 8.381-9.921.687-2.024 6.187 4.738 7.458 3.616.687 5.189-.167 8.829.705 2.135.51 5.708 2.678 8.219 2.003 5.93-1.592 3.583-6.282 4.745-16.263.035-.322.077-.648.122-.982 1.382-10.199 9.16-16.248 11.062-31.457.646-5.156-2.511-12.608 2.156-15.821 4.155-2.857 10.217-4.783 14.952-6.989 3.472-1.618 6.368-3.15 9.312-5.129.953-.645 1.914-1.332 2.899-2.087 2.502-1.917 5.174-4.255 8.357-7.303l.528-.525c7.44-6.873 14.842-15.033 16.869-19.559 2.836-6.351 1.093-11.641-1.941-16.893" stroke="#231f20" stroke-width="6.2699"/><path d="m754.545 145.523c1.8 4.849 2.415 19.317 4.293 25.814l-4.32 2.723-18.103 11.405-.304.191" stroke="#231f20" stroke-width="6.2699"/><path d="m673.893 79.194c.019.138.036.281.057.424 1.045 7.706 6.22 22.739 10.274 28.196h.003c.585.792 1.146 1.382 1.672 1.72" stroke="#231f20" stroke-width="6.2699"/><path d="m640.788 102.154c-.016-.012-.03-.024-.042-.033" stroke="#231f20" stroke-width="2.09"/><path d="m644.308 94.618c-.244-.081-.501-.158-.764-.233-1.383-.391-4.39 1.012-3.679 1.319l.003.003c.478.212 1.347.675 2.177 1.314.737.567 1.445 1.269 1.815 2.051.301.639.382 1.329.077 2.039-.896 2.084-2.63 1.415-3.141 1.048" stroke="#231f20" stroke-width="2.09"/><path d="m653.22 103.763c-1.218-2.275-1.296-4.323-3.021-6.004-.221-.221-1.182-1.104-3.099-2.036-.771-.373-1.693-.755-2.789-1.104" stroke="#231f20" stroke-width="2.09"/><path d="m639.904 95.747s-.016-.009-.042-.024c-.212-.113-1.197-.573-2.117.245-.842.765-1.917 1.69-1.475 2.368.093.144.254.278.495.394 1.395.678 2.386 2.195 3.634 3.09.135.096.266.206.389.334.003-.003.006 0 .009.006.806.812 1.224 2.138-.397 2.804-1.355.552-2.177.328-3.033-.319-.287-.218-.576-.484-.89-.782-.469-.442-.988-.961-1.633-1.511" stroke="#231f20" stroke-width="2.09"/><path d="m636.479 98.437s-.078-.044-.209-.102c-.364-.158-1.129-.394-1.729.042-.83.588-1.422 1.738-1.522 2.403" stroke="#231f20" stroke-width="2.09"/><path d="m646.29 115.78c-5.019-1.6-5.01-1.23-9.622-3.66-1.926-1.018-3.398-2.884-4.634-4.601-.248-.346-.589-.836-.917-1.355-.421-.666-.824-1.382-1-1.911-.341-1.024.633-2.634 1.851-2.634h.021c1.269.015 1.135.839 3.807 2.317" stroke="#231f20" stroke-width="2.09"/><path d="m635.999 102.975c.687.543 1.131 1.113 1.367 1.669.466 1.086.116 2.102-.839 2.699-1.517.958-3.857-.654-4.538-1.353" stroke="#231f20" stroke-width="2.09"/><path d="m774.707 99.41c1.486 1.329 4.84 3.804 5.741 5.517.188.361 2.815 8.154 2.756 12.11-.013.81-.57 2.195-.991 2.899-.23.391-.421.57-.451.331-.099-.755.102-.934-.901-4.95-.299-1.215-2.323-4.613-2.323-4.613" stroke="#231f20" stroke-miterlimit="10" stroke-width="2.09"/><path d="m782.171 119.485s.051.186.042.451c-.013.382-.152.925-.759 1.305-.881.531-1.875 1.203-2.361.588-.084-.11-.155-.26-.206-.459-.37-1.502-.389-2.431-1.824-5.267-.901-1.78-2.278-4.592-2.278-4.592" stroke="#231f20" stroke-miterlimit="10" stroke-width="2.09"/><path d="m779.065 121.683s.016.054.027.146c.045.317.083 1.075-.463 1.496-.699.546-1.813.755-2.395.675" stroke="#231f20" stroke-miterlimit="10" stroke-width="2.09"/><path d="m765.344 103.208c.026.266.054.52.071.768.355 4.09-.218 5.971.254 8.351.116.582.409 1.149.815 1.723.893 1.254 2.325 2.52 3.589 3.983.45.522.848 1.024 1.2 1.501 1.977 2.657 2.585 4.542 3.186 4.959.633.445 1.48.149 1.642-.529.039-.161.039-.34-.012-.54-.296-1.207.039-1.406-1.771-4.906-.579-1.107-.982-2.687-3.86-6.121" stroke="#231f20" stroke-miterlimit="10" stroke-width="2.09"/><path d="m646.888 115.183c2.445-1.956 6.428-5.989 6.676-9.56.045-.648-.033-1.284-.271-1.887-.048-.131-.104-.26-.171-.385" stroke="#231f20" stroke-miterlimit="10" stroke-width="4.1799"/><path d="m766.019 114.028c.057.078.11.155.164.233 1.731 2.472 2.377 5.44 1.804 8.438 1.713.857 2.982-1.541 3.287-3.165.015-.071.026-.146.035-.215" stroke="#231f20" stroke-width="2.09"/><path d="m647.1 95.723c-.534-.436-1.688-.875-2.789-1.104-.003 0-.003 0-.003 0-1.319-.278-2.562-.257-2.562.418 0 .726.096 1.394.299 1.985.244.713.645 1.308 1.218 1.738.188.14.392.242.598.313 1.355.472 2.955-.284 2.955.994 0 4.442 1.264 5.219 2.601 6.557" stroke="#231f20" stroke-width="2.09"/><path d="m754.258 173.559s.093.2.26.501c.63 1.125 2.323 3.664 4.233 2.436 2.419-1.555 6.565-10.196 18.837-9.853l8.362-.182c1.072 0 2.108-.155 3.111-.415 5.602-1.445 10.199-6.088 14.277-4.586 3.284 1.209 2.245 6.518 3.072 8.554 1.403 3.469 3.013 4.251 4.557 7.589 2.896 6.249 3.009 15.866-3.314 8.199-3.051-3.702-7.697-9.638-14.003-9.077-.28.027-.567.063-.854.117 0 0-17.069 5.299-29.898 15.382-9.68 7.604-15.036 10.369-20.738 2.072-1.833-2.663-3.852-5.798-5.745-8.832-4.009-6.413-7.473-12.358-7.473-12.358" stroke="#231f20" stroke-width="6.2699"/><path d="m725.739 174.768-25.961-18.051-.134-.096s6.634-10.172 9.345-15.164" stroke="#231f20" stroke-width="6.2699"/><path d="m716.752 67.096s.92 18.38 13.43 22.264c.779.242 1.601.427 2.472.549" stroke="#231f20" stroke-width="6.2699"/><path d="m679.168 233.251 8.641 2.075" stroke="#231f20" stroke-width="6.9131"/><path d="m790.814 166.193 2.768 9.333" stroke="#231f20" stroke-width="6.9131"/><circle cx="640.282" cy="225.82" r="18.838" stroke="#231f20" stroke-width="6.2699"/></g></svg>