<svg enable-background="new 0 0 850.89 856.64" height="856.64" viewBox="0 0 850.89 856.64" width="850.89" xmlns="http://www.w3.org/2000/svg"><path d="m530.437 540.03 46.25 214.16s-41.881 19.159-126.9 31.14l-10.58-79.08s-3.17-19.16-13.74-19.16h-3.05c-10.57 0-13.74 19.16-13.74 19.16l-10.58 79.08c-85.03-11.98-126.89-31.14-126.89-31.14l46.24-214.16z" fill="#231f20"/><path d="m530.956 326.21.91 140.83-25.62-.01v-114.73c8.231-7.17 16.49-15.8 24.71-26.09z" fill="#fff"/><path d="m530.437 540.03h-212.991l9-41.67h194.991z" fill="#231f20"/><path d="m506.246 352.3v114.73l-24.02-.011-1.98-95.02-.65-1.26c8.8-4.589 17.71-10.649 26.65-18.439z" fill="#394ea1"/><path d="m480.246 372 1.98 95.02-47.98-.02v-3-81.3c14.51-.33 29.76-3.84 45.35-11.96z" fill="#fff"/><path d="m476.916 96.35 63.33 25.65 84.87 86.55-51.81 58.7-43-41.56.07 10.31h-.13l-54-138z" fill="#fff"/><path d="m426.116 158c-27.17 0-49.63-24.29-49.63-46.35 0-6.92 2.17-13.44 6-19.12l.01-.01c8.34-12.38 24.55-20.79 43.17-20.79 19.021 0 35.51 8.75 43.69 21.56 3.52 5.5 5.51 11.74 5.51 18.36 0 22.06-21.58 46.35-48.75 46.35z" fill="#fff"/><path d="m469.356 93.29 7.56 3.06-.67 1.65 54 138h.13l.58 90.21c-8.22 10.29-16.479 18.92-24.71 26.09-8.94 7.79-17.85 13.85-26.65 18.44-15.59 8.12-30.84 11.63-45.35 11.96-5.45.11-10.79-.21-16-.91-17.69-2.36-33.94-9.02-47.91-17.01-9.07-5.19-17.18-10.94-24.09-16.45-16.33-13.01-26-24.66-26-24.33l-1.02-.01.64-98.38 50.49-128.79 12.13-4.29c-3.83 5.68-6 12.2-6 19.12 0 22.06 22.46 46.35 49.63 46.35s48.75-24.29 48.75-46.35c0-6.62-1.99-12.86-5.51-18.36z" fill="#fff"/><path d="m434.246 464v3l-16-.01v-.99-84.21c5.21.7 10.55 1.02 16 .91z" fill="#394ea1"/><path d="m418.246 466v.99l-50-.021v-4.969-94l2.09-3.22c13.97 7.99 30.22 14.65 47.91 17.01z" fill="#fff"/><path d="m370.356 96.82-50.49 128.79-18.37 17.75-3.25-3.36 65.61-140.87z" fill="#394ea1"/><path d="m363.856 99.13-65.61 140.87 3.25 3.36-24.64 23.8-51.81-58.71 91.2-92.45z" fill="#fff"/><path d="m346.246 464v-115.67c6.91 5.51 15.02 11.26 24.09 16.45l-2.09 3.22v94 4.97l-22-.01z" fill="#394ea1"/><path d="m346.246 464v2.96l-27.95-.01.93-142.96 1.02.01c0-.33 9.67 11.32 26 24.33z" fill="#fff"/><path d="m382.496 92.52c8.34-12.38 24.55-20.79 43.17-20.79 19.021 0 35.51 8.75 43.69 21.56 3.52 5.5 5.51 11.74 5.51 18.36 0 22.06-21.58 46.35-48.75 46.35s-49.63-24.29-49.63-46.35c0-6.92 2.17-13.44 6-19.12" fill="none" stroke="#231f20" stroke-width="14"/><path d="m467.666 92.6 1.69.69 7.56 3.06 63.33 25.65 84.87 86.55-51.81 58.7-43-41.56.07 10.31.58 90.21.91 140.83-25.62-.01-24.019-.01-47.981-.02-16-.01-50-.02-22-.01-27.95-.01.93-142.96.64-98.38-18.37 17.75-24.64 23.8-51.81-58.71 91.2-92.45 47.61-16.87 6.5-2.31 12.13-4.29.01-.01" fill="none" stroke="#231f20" stroke-width="14"/><path d="m317.446 540.03 9-41.67h194.99l9 41.67 46.25 214.16s-41.881 19.159-126.9 31.14l-10.58-79.08s-3.17-19.16-13.74-19.16h-3.05c-10.57 0-13.74 19.16-13.74 19.16l-10.58 79.08c-85.03-11.98-126.89-31.14-126.89-31.14z" fill="none" stroke="#231f20" stroke-width="14"/><path d="m316.016 540.03h1.43 212.991l-6.191-.03" fill="none" stroke="#231f20" stroke-width="14"/><path d="m319.866 225.61 50.49-128.79 1.89-4.82" fill="none" stroke="#231f20" stroke-width="7"/><path d="m298.246 240 65.61-140.87 2.39-5.13" fill="none" stroke="#231f20"/><path d="m476.246 98 54 138" fill="none" stroke="#231f20" stroke-width="7"/><path d="m320.246 324c0-.33 9.67 11.32 26 24.33 6.91 5.51 15.02 11.26 24.09 16.45 13.97 7.99 30.22 14.65 47.91 17.01 5.21.7 10.55 1.02 16 .91 14.51-.33 29.76-3.84 45.35-11.96 8.801-4.59 17.71-10.65 26.65-18.44 8.23-7.17 16.49-15.8 24.71-26.09 1.1-1.38 2.19-2.78 3.29-4.21" fill="none" stroke="#231f20" stroke-width="7"/><path d="m346.246 348v.33 115.67" fill="none" stroke="#231f20" stroke-width="7"/><path d="m368.246 368v94" fill="none" stroke="#231f20" stroke-width="7"/><path d="m418.246 380v1.79 84.21" fill="none" stroke="#231f20" stroke-width="7"/><path d="m434.246 382v.7 81.3" fill="none" stroke="#231f20" stroke-width="7"/><path d="m480.246 372 1.981 95.02.019.98" fill="none" stroke="#231f20" stroke-width="7"/><path d="m506.246 352v.3 114.73.97" fill="none" stroke="#231f20" stroke-width="7"/><path d="m.246 0h850.394v850.394h-850.394z" fill="none"/><path d="m805.465 157.457-2.646-8.922-1.675-.137c5.357-1.384 9.75-5.82 13.648-4.387 3.14 1.159 2.146 6.231 2.938 8.178 1.341 3.316 2.88 4.064 4.355 7.255 2.766 5.974 2.877 15.167-3.168 7.84-2.918-3.539-7.358-9.213-13.387-8.68z" fill="#9c5c25"/><path d="m805.465 157.457.065 1.147c-.269.026-.539.06-.816.111 0 0-16.317 5.066-28.582 14.705-9.253 7.27-14.374 9.913-19.825 1.98-1.75-2.546-3.679-5.542-5.491-8.442l17.305-10.9c.603 1.079 2.221 3.502 4.047 2.326 2.313-1.487 6.276-9.744 18.008-9.419l7.994-.171c1.025 0 2.016-.148 2.975-.396l1.675.137z" fill="#ffeec8"/><path d="m788.75 108.165c-.151.65-.962.933-1.566.505-.574-.399-1.156-2.2-3.046-4.744-.337-.454-.716-.933-1.147-1.433-1.21-1.398-2.58-2.609-3.434-3.808-.388-.548-.668-1.09-.779-1.647-.45-2.275.098-4.073-.239-7.986 2.298-1.188 4.649-3.511 8.882-4.361 1.422 1.273 4.627 3.636 5.489 5.274.177.346 2.691 7.795 2.631 11.58-.008.773-.545 2.104-.947 2.774 0 0 .003.003 0 .003-.012.365-.148.882-.725 1.239-.842.511-1.796 1.153-2.258.559.043.3.086 1.031-.439 1.436-.668.52-1.732.719-2.289.642z" fill="#ffeec8"/><path d="m778.538 89.053c-.646.334-1.284.579-1.961.676-2.635.377-6.082-3.165-8.08-4.375-8.723-5.28-13.983-9.858-19.004-10.669-1.538-.251-3.054-.146-4.638.402-11.959-3.713-12.837-21.287-12.837-21.287l.014-.577c6.896.191 14.319 2.141 23.799 6.011 17.524 7.164 25.134 15.258 31.59 25.457-4.233.851-6.585 3.174-8.883 4.362z" fill="#fff"/><path d="m779.557 98.686c.854 1.199 2.224 2.409 3.434 3.808.432.5.811.979 1.147 1.433-.291 1.553-1.504 3.848-3.146 3.028.549-2.866-.065-5.703-1.721-8.066z" fill="#ffeec8"/><path d="m768.12 156.055v.003l-17.305 10.9c-3.834-6.131-7.145-11.814-7.145-11.814l-.146-.188c2.392-1.833 4.943-4.067 7.986-6.981l.508-.502c7.109-6.567 14.183-14.368 16.126-18.695 1.722 4.638 2.31 18.464 4.104 24.678z" fill="#fff"/><path d="m766.288 112.625c2.902 5.023 4.569 10.081 1.857 16.149v.002c-1.943 4.327-9.017 12.128-16.126 18.695l-.508.502c-3.043 2.914-5.595 5.149-7.986 6.981-.942.722-1.861 1.381-2.774 1.992l-.146-.217-24.814-17.256-.129-.091s6.343-9.724 8.935-14.497l.239-.408c.545.297 1.213.537 2.047.728 5.034 1.147 11.074-1.921 15.547-3.254 7.823-2.332 19.517-8.066 19.303-16.452 1.575 2.434 3.202 4.774 4.555 7.126z" fill="#fff"/><path d="m740.751 156.949v.003c-2.812 1.892-5.583 3.356-8.899 4.903-4.529 2.112-10.32 3.953-14.294 6.685-4.464 3.068-1.444 10.192-2.061 15.125-1.818 14.539-9.253 20.319-10.575 30.069-.043.32-.082.631-.117.939l-.456-.046-8.26-1.984-1.174-.151c.108-.811.132-1.704.063-2.692 0 0 .693-5.817.362-13.746-.331-7.932 0-29.904 1.649-35.192 1.649-5.286 18.176-20.488 18.176-20.488l.625-.899 24.814 17.256z" fill="#ffeec8"/><path d="m714.221 45.337c0 4.741-1.35 9.085-3.593 12.467h-.003c-2.868 4.321-7.198 7.076-12.042 7.076-1.15 0-2.274-.154-3.354-.451-7.03-1.918-12.288-9.738-12.288-19.092 0-10.797 6.999-19.551 15.642-19.551 8.637 0 15.638 8.754 15.638 19.551z" fill="#ffeec8"/><path d="m704.349 214.626.456.046c-1.112 9.542 1.134 14.025-4.535 15.547-2.4.645-5.819-1.427-7.857-1.913-3.479-.836-4.986-.02-8.439-.676-6.465-1.213-14.015-6.474-4.53-7.13 4.358-.303 14.365.451 15.473-8.009l1.174.151z" fill="#9c5c25"/><path d="m721.003 118.251c-5.163-11.365-11.522-17.616-20.594-25.442.135-.003.269-.003.406-.003l.105-.08c-3.876-5.215-8.822-19.583-9.824-26.953 1.33-.893 2.708-1.37 4.102-1.23l.031-.114c1.079.297 2.203.451 3.354.451 4.844 0 9.174-2.754 12.042-7.076h.003l.242.166c7.593-3.302 14.1-4.946 21.161-4.747l-.014.577s.879 17.573 12.838 21.287c1.584-.548 3.1-.653 4.638-.402l-.205 1.484c4.938 11.471 10.478 18.381 12.284 27.828.098.511.151 1.014.16 1.504.214 8.386-11.479 14.12-19.303 16.452-4.473 1.333-10.513 4.401-15.547 3.254-.834-.191-1.502-.431-2.047-.728-2.143-1.165-2.442-3.168-3.832-6.228z" fill="#fff"/><path d="m691.097 65.773c1.002 7.37 5.948 21.738 9.824 26.953l-.105.08c-.138 0-.271 0-.406.003-12.541.12-11.61 11.457-20.225 15.613-8.654 4.179-10.503-1.036-14.653-8.132-.1-.171-.203-.345-.306-.52h.003c2.338-1.867 6.146-5.726 6.382-9.139l.466.006c5.996 2.015 4.883-2.249 7.341-7.415 1.88-3.956 6.415-13.932 11.679-17.449z" fill="#fff"/><path d="m658.915 187.526c9.944 0 18.007 8.066 18.007 18.01 0 9.95-8.063 18.01-18.007 18.01-9.947 0-18.01-8.06-18.01-18.01 0-9.944 8.063-18.01 18.01-18.01z" fill="#fff"/><path d="m658.513 81.167.006-.014c.456.203 1.287.645 2.08 1.256.234.682.617 1.25 1.165 1.661.18.134.371.231.565.299.294.608.371 1.271.079 1.95-.85 1.978-2.491 1.364-2.993 1.01 0-.003 0-.003-.003-.003-.12-.125-.252-.237-.386-.331-1.193-.856-2.141-2.303-3.477-2.954-.233-.114-.388-.243-.474-.379h-.003c-.411-.651.614-1.53 1.416-2.261.88-.78 1.822-.343 2.025-.234z" fill="#ffeec8"/><path d="m659.412 87.326c.003 0 .003 0 .003.003.765.779 1.155 2.038-.389 2.674-1.296.528-2.081.314-2.899-.308 0 0 0 0-.003-.003-.271-.206-.548-.457-.848-.742l-.654.071c-2.554-1.416-2.423-2.2-3.636-2.217-.006 0-.012 0-.018 0l1.002-.802c.098-.637.659-1.735 1.453-2.298.573-.414 1.302-.194 1.649-.042h.003c.086.137.24.265.474.379 1.336.651 2.283 2.098 3.477 2.954.134.094.266.205.386.331z" fill="#ffeec8"/><path d="m664.658 100.344c-4.798-1.533-4.79-1.179-9.202-3.499-1.838-.976-3.248-2.76-4.43-4.401-.237-.331-.563-.796-.874-1.293l.831-.168c.653.668 2.892 2.209 4.338 1.296.914-.571 1.248-1.544.806-2.583.818.622 1.604.836 2.899.308 1.544-.636 1.153-1.895.389-2.674.502.354 2.144.968 2.993-1.01.292-.679.215-1.342-.079-1.95-.354-.748-1.028-1.418-1.73-1.96-.193-.565-.285-1.205-.285-1.898 0-.642 1.188-.662 2.449-.399h.003c3.642 1.167 5.331 2.711 5.628 3.005 1.65 1.604 1.722 3.565 2.886 5.737l.071-.029c.229.577.303 1.185.26 1.807-.236 3.414-4.044 7.272-6.382 9.139h-.003c.103.174.206.348.306.52z" fill="#ffeec8"/><path d="m649.196 89.324c-.325-.982.608-2.52 1.772-2.52h.018c1.213.017 1.082.802 3.636 2.217l.654-.071c.3.286.576.537.848.742.003.003.003.003.003.003.442 1.039.108 2.012-.806 2.583-1.446.914-3.685-.628-4.338-1.296l-.831.168c-.402-.636-.79-1.321-.956-1.826z" fill="#ffeec8"/><g fill="none"><path d="m695.229 64.429c-7.03-1.918-12.288-9.738-12.288-19.092 0-10.797 6.999-19.551 15.642-19.551 8.637 0 15.638 8.754 15.638 19.551 0 4.741-1.35 9.085-3.593 12.467h-.003c-2.868 4.321-7.198 7.076-12.042 7.076-1.15 0-2.274-.154-3.354-.451z" stroke="#231f20" stroke-width="5.9938"/><path d="m695.198 64.543c-1.394-.14-2.771.337-4.102 1.23-5.264 3.517-9.799 13.492-11.68 17.448-2.458 5.166-1.345 9.43-7.341 7.415" stroke="#231f20" stroke-width="5.9938"/><path d="m665.226 99.77c.103.174.206.348.306.52 4.15 7.096 5.999 12.311 14.653 8.132 8.614-4.156 7.684-15.493 20.225-15.613.135-.003.269-.003.406-.003" stroke="#231f20" stroke-width="5.9938"/><path d="m698.991 91.59c.479.411.953.816 1.418 1.219 9.071 7.826 15.431 14.077 20.594 25.442 1.39 3.06 1.689 5.063 3.833 6.228.545.297 1.213.537 2.047.728 5.034 1.147 11.074-1.921 15.547-3.254 7.823-2.332 19.517-8.066 19.303-16.452-.009-.491-.063-.993-.16-1.504-1.807-9.447-7.347-16.357-12.284-27.828" stroke="#231f20" stroke-width="5.9938"/><path d="m710.87 57.97c7.593-3.302 14.1-4.946 21.161-4.747 6.896.191 14.319 2.141 23.799 6.011 17.524 7.164 25.134 15.258 31.59 25.457-4.232.851-6.584 3.174-8.882 4.361-.646.334-1.284.579-1.961.676-2.635.377-6.082-3.165-8.08-4.375-8.723-5.28-13.983-9.858-19.004-10.669-1.538-.251-3.054-.146-4.638.402-.42.143-.842.317-1.273.525" stroke="#231f20" stroke-width="5.9938"/><path d="m766.288 112.625c-1.354-2.352-2.98-4.692-4.556-7.124-.003-.003-.006-.009-.009-.011" stroke="#231f20" stroke-width="6.6087"/><path d="m768.146 128.775c2.712-6.068 1.045-11.126-1.857-16.149" stroke="#231f20" stroke-width="5.9938"/><path d="m715.166 140.374s-16.526 15.202-18.176 20.488c-1.649 5.289-1.98 27.26-1.649 35.192.331 7.929-.362 13.746-.362 13.746.068.988.045 1.881-.063 2.692-1.107 8.46-11.114 7.706-15.473 8.009-9.484.656-1.935 5.917 4.53 7.13 3.453.656 4.96-.16 8.439.676 2.038.485 5.457 2.558 7.857 1.913 5.669-1.521 3.423-6.005 4.535-15.547.035-.309.074-.62.117-.939 1.322-9.75 8.757-15.53 10.575-30.069.616-4.932-2.403-12.056 2.061-15.125 3.974-2.731 9.765-4.572 14.294-6.685 3.316-1.547 6.088-3.011 8.899-4.903v-.003c.913-.611 1.832-1.27 2.774-1.992 2.392-1.833 4.943-4.067 7.986-6.981l.508-.502c7.109-6.567 14.183-14.368 16.126-18.695" stroke="#231f20" stroke-width="5.9938"/><path d="m768.12 156.058-17.305 10.9-.292.183" stroke="#231f20" stroke-width="5.9938"/><path d="m768.146 128.775v.002c1.722 4.638 2.31 18.464 4.104 24.678l-4.13 2.6" stroke="#231f20" stroke-width="5.9938"/><path d="m691.042 65.366c.018.134.034.271.055.408 1.002 7.37 5.948 21.738 9.824 26.953.562.756 1.099 1.321 1.601 1.644" stroke="#231f20" stroke-width="5.9938"/><path d="m659.412 87.326c-.021-.014-.04-.028-.058-.042" stroke="#231f20" stroke-width="1.9979"/><path d="m662.763 80.11c-.234-.077-.479-.151-.73-.223-1.324-.374-4.196.968-3.517 1.262l.003.003c.456.203 1.287.645 2.08 1.256.702.542 1.376 1.213 1.73 1.96.294.608.371 1.271.079 1.95-.85 1.978-2.491 1.364-2.993 1.01" stroke="#231f20" stroke-width="1.9979"/><path d="m671.279 88.853c-1.164-2.172-1.235-4.133-2.886-5.737-.297-.294-1.986-1.838-5.628-3.005" stroke="#231f20" stroke-width="1.9979"/><path d="m656.124 89.692c-.271-.206-.548-.457-.848-.742-.448-.425-.945-.919-1.562-1.447" stroke="#231f20" stroke-width="1.9979"/><path d="m655.076 83.661c.086.137.24.265.474.379 1.336.651 2.283 2.098 3.477 2.954.134.094.266.206.386.331.003 0 .003 0 .003.003.765.779 1.155 2.038-.389 2.674-1.296.528-2.081.314-2.899-.308" stroke="#231f20" stroke-width="1.9979"/><path d="m658.553 81.189s-.015-.009-.04-.023c-.203-.108-1.145-.545-2.023.234-.802.731-1.827 1.61-1.416 2.261" stroke="#231f20" stroke-width="1.9979"/><path d="m655.279 83.761s-.077-.045-.203-.1h-.003c-.348-.151-1.076-.371-1.649.042-.794.563-1.355 1.661-1.453 2.298" stroke="#231f20" stroke-width="1.9979"/><path d="m664.658 100.344c-4.798-1.533-4.79-1.179-9.202-3.499-1.838-.976-3.248-2.76-4.43-4.401-.237-.331-.563-.796-.874-1.293-.402-.636-.79-1.321-.956-1.827-.325-.982.608-2.52 1.772-2.52h.018c1.213.017 1.082.802 3.636 2.217" stroke="#231f20" stroke-width="1.9979"/><path d="m654.819 88.102c.653.517 1.079 1.062 1.305 1.59.003.003.003.003.003.003.442 1.039.108 2.012-.806 2.583-1.446.914-3.685-.628-4.338-1.296" stroke="#231f20" stroke-width="1.9979"/><path d="m794.593 104.323c-.22.368-.399.537-.428.308-.095-.722.097-.894-.862-4.732-.288-1.162-2.221-4.41-2.221-4.41" stroke="#231f20" stroke-miterlimit="10" stroke-width="1.9979"/><path d="m787.42 84.691c1.422 1.273 4.627 3.636 5.489 5.274.177.346 2.691 7.795 2.631 11.58-.008.773-.545 2.104-.947 2.774" stroke="#231f20" stroke-miterlimit="10" stroke-width="1.9979"/><path d="m791.61 106.118c-.08-.106-.146-.246-.194-.434-.354-1.436-.374-2.32-1.744-5.032-.864-1.704-2.178-4.393-2.178-4.393" stroke="#231f20" stroke-miterlimit="10" stroke-width="1.9979"/><path d="m794.556 103.883s.049.183.037.437c0 0 .003.003 0 .003-.012.365-.148.882-.725 1.239-.842.511-1.796 1.153-2.258.559" stroke="#231f20" stroke-miterlimit="10" stroke-width="1.9979"/><path d="m791.585 105.984s.011.048.025.134v.002c.043.3.086 1.031-.439 1.436-.668.52-1.732.719-2.289.642" stroke="#231f20" stroke-miterlimit="10" stroke-width="1.9979"/><path d="m778.47 88.322c.028.251.051.494.068.731.337 3.913-.211 5.711.239 7.986.111.557.392 1.099.779 1.647.854 1.199 2.224 2.409 3.434 3.808.432.5.811.979 1.147 1.433 1.89 2.543 2.472 4.344 3.046 4.744.604.428 1.415.146 1.566-.505.037-.154.037-.328-.011-.517-.28-1.153.04-1.344-1.69-4.687-.554-1.062-.938-2.572-3.693-5.852" stroke="#231f20" stroke-miterlimit="10" stroke-width="1.9979"/><path d="m665.229 99.77c2.338-1.867 6.146-5.726 6.382-9.139.043-.622-.031-1.23-.26-1.807-.045-.123-.1-.246-.162-.365" stroke="#231f20" stroke-miterlimit="10" stroke-width="3.9959"/><path d="m779.114 98.666c.055.074.105.148.157.223 1.655 2.363 2.27 5.2 1.721 8.066 1.642.819 2.854-1.476 3.146-3.028.015-.068.026-.137.034-.203" stroke="#231f20" stroke-width="1.9979"/><path d="m665.432 81.167c-.512-.417-1.613-.836-2.666-1.056-.003 0-.003 0-.003 0-1.262-.263-2.449-.243-2.449.399 0 .694.092 1.333.285 1.898.234.682.617 1.25 1.165 1.661.18.134.371.231.565.299 1.298.454 2.831-.274 2.831.951 0 4.247 1.207 4.992 2.483 6.271" stroke="#231f20" stroke-width="1.9979"/><path d="m767.869 155.576s.088.191.251.479v.003c.603 1.079 2.221 3.502 4.047 2.326 2.313-1.487 6.276-9.744 18.008-9.419l7.994-.171c1.025 0 2.016-.148 2.975-.396 5.357-1.384 9.75-5.82 13.648-4.387 3.14 1.159 2.146 6.231 2.938 8.178 1.341 3.316 2.88 4.064 4.355 7.255 2.766 5.974 2.877 15.167-3.168 7.84-2.918-3.539-7.358-9.213-13.387-8.68-.269.026-.539.06-.816.111 0 0-16.317 5.066-28.582 14.705-9.253 7.27-14.374 9.913-19.825 1.98-1.75-2.546-3.679-5.542-5.491-8.442-3.834-6.131-7.145-11.814-7.145-11.814" stroke="#231f20" stroke-width="5.9938"/><path d="m740.605 156.731-24.814-17.256-.129-.091s6.343-9.724 8.935-14.497" stroke="#231f20" stroke-width="5.9938"/><path d="m732.018 53.8s.879 17.573 12.838 21.287c.745.231 1.53.408 2.363.525" stroke="#231f20" stroke-width="5.9938"/><path d="m696.089 212.643 8.26 1.983" stroke="#231f20" stroke-width="6.6087"/><path d="m802.818 148.534 2.647 8.923" stroke="#231f20" stroke-width="6.6087"/><path d="m676.922 205.536c0 9.95-8.063 18.01-18.007 18.01-9.947 0-18.01-8.06-18.01-18.01 0-9.944 8.063-18.01 18.01-18.01 9.944 0 18.007 8.066 18.007 18.01z" stroke="#231f20" stroke-width="5.9938"/></g></svg>