<svg enable-background="new 0 0 850.394 850.394" height="850.394" viewBox="0 0 850.394 850.394" width="850.394" xmlns="http://www.w3.org/2000/svg"><path d="m467.333 100.924 89.536 95.529-14.833 16.806-2.964-2.616-83.872-83.872-.527-27.957.58-1.794z" fill="#231f20"/><path d="m542.036 213.259-19.939 22.598h-.01l-63.194-69.524-2.955.053-.738-39.615 83.872 83.872z" fill="#fff"/><path d="m458.893 166.333 63.194 69.524-19.876 22.524-45.365-43.845-.908-48.15z" fill="#231f20"/><path d="m502.791 758.288 2.985 13.81s-44.183 20.214-133.878 32.853l-1.835-13.757 2.321-.306z" fill="#fff"/><path d="m457.215 547.237 45.576 211.051-130.408 32.6-2.321.306-9.326-69.672s-3.344-20.213-14.496-20.213h-3.218c-11.151 0-14.496 20.213-14.496 20.213l-9.199 68.796-132.623-31.08-.412-.084 46.125-213.636 2.817.612 217.328 2.109z" fill="#231f20"/><path d="m455.2 126.771.738 39.615.908 48.15 1.646 254.621-39.636-.02 6.256-381.875 30.141 9.758-.58 1.794z" fill="#fff"/><path d="m447.488 502.2 9.727 45.037-4.652 1.002-217.328-2.109-2.817-.612 9.357-43.318z" fill="#231f20"/><path d="m425.112 87.262-6.256 381.875-25.373-.011v-1.065-359.932c1.667-4.441 3.112-9.031 4.874-13.905 1.983-5.486 1.508-10.877-.781-15.867z" fill="#231f20"/><path d="m368.164 141.488c-2.532 1.909-5.338 3.861-8.44 5.855-11.995 7.712-25.024 4.199-36.26-4.251-14.137-10.634-25.436-29.097-28.231-42.822-.433-2.152-.665-4.178-.665-6.045 0-7.311 2.289-14.189 6.33-20.182 8.809-13.061 25.9-21.933 45.554-21.933 21.469 0 44.331 11.352 51.125 26.248 2.289 4.99 2.764 10.381.781 15.867-1.762 4.874-3.208 9.463-4.874 13.905-4.231 11.319-9.812 21.658-25.32 33.358z" fill="#fff"/><path d="m393.483 468.061v1.065l-25.32-.011v-5.274-322.353c15.508-11.7 21.089-22.039 25.32-33.359z" fill="#fff"/><path d="m368.164 463.841v5.274l-46.42-.011v-5.264-318.607l1.72-2.142c11.236 8.45 24.265 11.963 36.26 4.251 3.102-1.994 5.908-3.946 8.44-5.855z" fill="#231f20"/><path d="m323.463 143.092-1.72 2.142v318.607 5.264l-29.54-.021v-1.023-367.137l3.028-.654c2.797 13.725 14.096 32.188 28.232 42.822z" fill="#fff"/><path d="m319.328 790.317-1.962 14.633c-89.706-12.639-133.868-32.853-133.868-32.853l2.795-12.944.412.084z" fill="#fff"/><path d="m261.683 87.536 39.214-13.494c-4.041 5.993-6.33 12.871-6.33 20.182 0 1.867.232 3.893.665 6.045l-3.028.654v367.137 1.023l-29.54-.011v-3.123-375.575z" fill="#231f20"/><path d="m262.665 465.95v3.123l-29.488-.01 1.657-254.612 1.002-45.945.96-44.341.549-25.351-.897-2.596 25.235-8.682.982 2.838z" fill="#fff"/><path d="m236.448 96.218.897 2.596-.549 25.351-1.561-.032-84.4 86.51-1.919 1.698-14.116-15.993 94.105-97.534z" fill="#231f20"/><path d="m236.796 124.165-.96 44.341-2.711-.063-65.41 63.3-.949.833-17.85-20.235 1.919-1.698 84.4-86.51z" fill="#fff"/><path d="m235.836 168.506-1.002 45.945-45.376 43.835-22.692-25.71.949-.833 65.41-63.3z" fill="#231f20"/><path d="m397.577 78.357c2.289 4.99 2.764 10.381.781 15.867-1.762 4.874-3.208 9.463-4.874 13.905-4.23 11.32-9.812 21.659-25.32 33.359-2.532 1.909-5.338 3.861-8.44 5.855-11.995 7.712-25.024 4.199-36.26-4.251-14.137-10.634-25.436-29.097-28.231-42.822-.433-2.152-.665-4.178-.665-6.045 0-7.311 2.289-14.189 6.33-20.182 8.809-13.061 25.9-21.933 45.554-21.933 21.469-.001 44.33 11.351 51.125 26.247z" fill="none" stroke="#231f20" stroke-width="14"/><path d="m522.087 235.857-19.876 22.524-45.365-43.845 1.646 254.621-39.636-.02-25.373-.011-25.319-.011-46.42-.011-29.54-.02-29.539-.011-29.488-.01 1.657-254.612-45.376 43.835-22.692-25.71-17.85-20.235-14.116-15.993 94.105-97.534 7.543-2.596 25.235-8.682 39.214-13.494h.011" fill="none" stroke="#231f20" stroke-width="14"/><path d="m395.593 77.714 1.984.643 27.535 8.905 30.141 9.758 12.08 3.904 89.536 95.529-14.833 16.806-19.939 22.598" fill="none" stroke="#231f20" stroke-width="14"/><path d="m232.418 545.518 9.357-43.317h205.713l9.727 45.037 45.576 211.051 2.985 13.81s-44.183 20.214-133.878 32.853l-1.835-13.757-9.326-69.672s-3.344-20.213-14.496-20.213h-3.218c-11.151 0-14.496 20.213-14.496 20.213l-9.199 68.796-1.962 14.633c-89.706-12.639-133.868-32.853-133.868-32.853l2.795-12.944z" fill="none" stroke="#231f20" stroke-width="14"/><path d="m235.235 546.13 217.328 2.109" fill="none" stroke="#231f20" stroke-width="14.7699"/><path d="m321.744 145.233v318.608" fill="none" stroke="#231f20" stroke-width="7.3849"/><path d="m368.164 141.013v.475 322.353" fill="none" stroke="#231f20" stroke-width="7.3849"/><path d="m292.204 100.924v367.137" fill="none" stroke="#231f20" stroke-width="7.3849"/><path d="m393.483 103.034v5.095 359.932" fill="none" stroke="#231f20" stroke-width="7.3849"/><path d="m262.665 90.374v375.576" fill="none" stroke="#231f20" stroke-width="7.3849"/><path d="m425.133 86.154-.021 1.108-6.256 381.875-.053 3.143" fill="none" stroke="#231f20" stroke-width="7.3849"/><path d="m237.345 98.814-.549 25.351-.96 44.341-1.002 45.945" fill="none" stroke="#231f20" stroke-width="14"/><path d="m454.673 98.814.527 27.957.738 39.615.908 48.15" fill="none" stroke="#231f20" stroke-width="14"/><path d="m522.097 235.857.095.105" fill="none" stroke="#231f20" stroke-width="7.3849"/><path d="m522.087 235.857h.01" fill="none" stroke="#231f20" stroke-width="14"/><path d="m458.893 166.333 63.194 69.524" fill="none" stroke="#231f20" stroke-width="7.3849"/><path d="m454.673 126.244.527.527 83.872 83.872" fill="none" stroke="#231f20" stroke-width="7.3849"/><path d="m235.235 124.133-84.4 86.51" fill="none" stroke="#231f20" stroke-width="7.3849"/><path d="m233.125 168.443-65.41 63.3" fill="none" stroke="#231f20" stroke-width="7.3849"/><path d="m186.705 759.237 132.623 31.08 2.416.571" fill="none" stroke="#231f20" stroke-width="7.3849"/><path d="m372.383 790.888 130.408-32.6 4.631-1.16" fill="none" stroke="#231f20" stroke-width="7.3849"/><path d="m0 0h850.394v850.394h-850.394z" fill="none"/><path d="m791.503 173.382-2.768-9.323-1.748-.146c5.595-1.443 10.188-6.081 14.263-4.581 3.28 1.208 2.242 6.511 3.068 8.545 1.402 3.466 3.01 4.247 4.552 7.582 2.89 6.243 3.006 15.849-3.311 8.19-3.048-3.698-7.689-9.627-13.988-9.067z" fill="#9c5c25"/><path d="m791.503 173.382.068 1.199c-.28.027-.563.063-.853.117 0 0-17.052 5.294-29.867 15.366-9.67 7.597-15.021 10.358-20.717 2.07-1.828-2.66-3.845-5.792-5.738-8.822l18.08-11.393c.629 1.125 2.32 3.66 4.232 2.434 2.415-1.554 6.559-10.185 18.813-9.842l8.354-.182c1.071 0 2.106-.155 3.111-.415l1.748.146z" fill="#ffeec8"/><path d="m777.025 119.738c.045.316.087 1.077-.459 1.497-.698.546-1.811.754-2.393.674l-.134-.036c-.161.677-1.008.972-1.641.528-.6-.417-1.208-2.296-3.183-4.951-.352-.478-.751-.979-1.201-1.503-1.262-1.461-2.693-2.726-3.585-3.979-.406-.573-.698-1.14-.814-1.721-.472-2.377.102-4.256-.254-8.342 2.404-1.241 4.858-3.672 9.285-4.561 1.482 1.327 4.834 3.8 5.735 5.512.185.361 2.813 8.146 2.75 12.097-.01.811-.57 2.201-.99 2.902 0 0 .003.003 0 .003-.013.382-.155.922-.758 1.294-.878.536-1.874 1.206-2.358.586z" fill="#ffeec8"/><path d="m763.362 101.906c-.674.346-1.342.602-2.049.704-2.75.394-6.355-3.308-8.44-4.572-9.114-5.518-14.614-10.305-19.86-11.151-1.604-.263-3.188-.152-4.844.42-12.497-3.88-13.416-22.241-13.416-22.241l.016-.603c7.205.2 14.963 2.237 24.868 6.281 18.31 7.486 26.264 15.944 33.011 26.601-4.427.889-6.881 3.32-9.286 4.561z" fill="#fff"/><path d="m765.931 120.609c.575-2.994-.068-5.959-1.799-8.429l.299-.211c.892 1.252 2.323 2.517 3.585 3.979.45.525.85 1.026 1.201 1.503-.307 1.622-1.571 4.014-3.286 3.158z" fill="#ffeec8"/><path d="m752.477 171.917-18.08 11.393c-4.006-6.406-7.466-12.345-7.466-12.345l-.151-.197c2.499-1.915 5.165-4.25 8.345-7.295l.531-.525c7.432-6.866 14.823-15.017 16.851-19.538 1.796 4.843 2.413 19.297 4.289 25.787z" fill="#fff"/><path d="m750.564 126.535c3.033 5.247 4.775 10.531 1.941 16.875-2.027 4.521-9.419 12.672-16.851 19.538l-.531.525c-3.18 3.045-5.846 5.381-8.345 7.295-.984.751-1.945 1.44-2.899 2.085l-.152-.23-25.93-18.035-.135-.092s6.628-10.162 9.336-15.148l.25-.426c.57.31 1.268.561 2.139.76 5.262 1.196 11.572-2.007 16.246-3.4 8.178-2.437 20.4-8.432 20.171-17.197 1.641 2.544 3.346 4.993 4.76 7.45z" fill="#fff"/><path d="m723.728 172.624.152.23c-2.938 1.978-5.834 3.507-9.303 5.124-4.73 2.204-10.781 4.128-14.934 6.982-4.664 3.209-1.512 10.654-2.153 15.805-1.899 15.193-9.669 21.235-11.05 31.424-.045.334-.087.659-.122.981l-.478-.051-8.632-2.073-1.226-.158c.113-.844.138-1.78.065-2.813 0 0 .725-6.075.376-14.361-.346-8.288 0-31.248 1.727-36.774 1.725-5.523 18.99-21.409 18.99-21.409l.656-.942z" fill="#ffeec8"/><path d="m696.154 56.219c0 4.954-1.411 9.493-3.755 13.031h-.003c-2.994 4.516-7.52 7.394-12.58 7.394-1.202 0-2.378-.161-3.505-.471-7.346-2.004-12.84-10.176-12.84-19.953 0-11.28 7.313-20.427 16.345-20.427 9.025-.001 16.338 9.146 16.338 20.426z" fill="#ffeec8"/><path d="m685.841 233.119.478.051c-1.164 9.971 1.184 14.656-4.739 16.246-2.512.674-6.082-1.491-8.214-2.001-3.636-.871-5.208-.018-8.816-.704-6.756-1.271-14.647-6.765-4.733-7.451 4.554-.316 15.011.471 16.168-8.372l1.226.158z" fill="#9c5c25"/><path d="m728.169 87.306c1.655-.573 3.239-.683 4.844-.42l-.212 1.554c5.159 11.984 10.948 19.208 12.834 29.08.104.531.158 1.053.17 1.566.229 8.766-11.993 14.76-20.171 17.197-4.674 1.393-10.984 4.596-16.246 3.4-.871-.2-1.568-.45-2.139-.76-2.239-1.217-2.553-3.314-4.005-6.508-5.398-11.874-12.041-18.405-21.517-26.586.138-.003.277-.003.421-.003l.107-.083c-4.048-5.452-9.216-20.469-10.263-28.167 1.39-.931 2.83-1.429 4.285-1.283l.033-.119c1.127.31 2.303.471 3.505.471 5.061 0 9.586-2.878 12.58-7.394h.003l.257.173c7.933-3.451 14.733-5.169 22.112-4.96l-.016.603c.002-.002.921 18.359 13.418 22.239z" fill="#fff"/><path d="m638.365 204.803c10.388 0 18.816 8.426 18.816 18.82s-8.429 18.82-18.816 18.82c-10.395 0-18.82-8.426-18.82-18.82s8.426-18.82 18.82-18.82z" fill="#fff"/><path d="m681.728 105.828c-13.111.122-12.136 11.966-21.137 16.314-9.043 4.363-10.979-1.083-15.313-8.497-.104-.179-.212-.361-.319-.543 2.446-1.954 6.425-5.986 6.672-9.55l.486.006c6.267 2.105 5.104-2.351 7.671-7.749 1.966-4.134 6.705-14.561 12.205-18.235 1.047 7.698 6.215 22.715 10.263 28.167l-.107.083c-.144.001-.284.001-.421.004z" fill="#fff"/><path d="m634.354 96.271-.003-.003c-.43-.68.641-1.599 1.479-2.362.918-.817 1.902-.358 2.114-.245l.006-.015c.478.212 1.346.674 2.175 1.313.244.712.644 1.306 1.217 1.736.188.14.388.241.59.313.308.635.388 1.327.084 2.037-.889 2.07-2.613 1.419-3.132 1.053-.003-.006-.009-.012-.015-.012-.122-.128-.254-.239-.388-.334-1.247-.895-2.237-2.41-3.633-3.087-.244-.119-.402-.25-.494-.394z" fill="#ffeec8"/><path d="m632.627 96.313c.599-.433 1.359-.203 1.724-.045l.003.003c.093.143.25.274.495.394 1.396.677 2.386 2.192 3.633 3.087.134.096.266.206.388.334.006 0 .012.006.015.012.8.814 1.214 2.129-.402 2.794-1.354.552-2.175.328-3.03-.319 0 0 0 0 0-.003-.286-.215-.576-.48-.889-.779l-.684.075c-2.669-1.476-2.532-2.299-3.803-2.314-.006 0-.012 0-.021 0l1.053-.838c.101-.665.688-1.813 1.518-2.401z" fill="#ffeec8"/><path d="m644.365 113.698c-5.013-1.599-5.004-1.229-9.615-3.656-1.921-1.017-3.395-2.881-4.629-4.596-.247-.346-.588-.835-.912-1.354l.867-.173c.684.698 3.021 2.308 4.533 1.351.955-.594 1.307-1.611.842-2.696.855.647 1.676.871 3.03.319 1.616-.665 1.202-1.98.402-2.794.519.367 2.243 1.017 3.132-1.053.304-.71.224-1.402-.084-2.037-.369-.781-1.073-1.482-1.807-2.049-.203-.591-.302-1.259-.302-1.983 0-.674 1.244-.695 2.563-.418.006 0 .015.003.021.006 1.086.346 2.001.728 2.768 1.097 1.912.931 2.875 1.813 3.096 2.034 1.722 1.679 1.799 3.725 3.016 5.998l.074-.03c.239.603.316 1.238.271 1.888-.247 3.564-4.226 7.597-6.672 9.55.107.182.215.364.319.543z" fill="#ffeec8"/><path d="m629.209 104.092c-.424-.665-.826-1.378-1-1.906-.343-1.026.633-2.634 1.847-2.634h.021c1.271.015 1.134.838 3.803 2.314l.684-.075c.313.298.603.564.889.779v.003c.465 1.085.113 2.103-.842 2.696-1.512.957-3.85-.653-4.533-1.351z" fill="#ffeec8"/><g fill="none"><path d="m676.312 76.172c-7.346-2.004-12.84-10.176-12.84-19.953 0-11.28 7.313-20.427 16.345-20.427 9.024 0 16.338 9.147 16.338 20.427 0 4.954-1.411 9.493-3.755 13.031h-.003c-2.994 4.516-7.52 7.394-12.58 7.394-1.203 0-2.379-.162-3.505-.472z" stroke="#231f20" stroke-width="6.2633"/><path d="m676.278 76.292c-1.455-.146-2.896.352-4.285 1.283-5.5 3.674-10.239 14.101-12.205 18.235-2.567 5.398-1.404 9.854-7.671 7.749" stroke="#231f20" stroke-width="6.2633"/><path d="m644.959 113.102c.107.182.215.364.319.543 4.334 7.415 6.27 12.86 15.313 8.497 9.001-4.349 8.025-16.192 21.137-16.314.138-.003.277-.003.421-.003" stroke="#231f20" stroke-width="6.2633"/><path d="m680.242 104.551c.504.429.999.856 1.485 1.276 9.476 8.181 16.118 14.713 21.517 26.586 1.452 3.194 1.766 5.291 4.005 6.508.57.31 1.268.561 2.139.76 5.262 1.196 11.572-2.007 16.246-3.4 8.178-2.437 20.4-8.432 20.171-17.197-.012-.513-.065-1.035-.17-1.566-1.886-9.872-7.675-17.096-12.834-29.08" stroke="#231f20" stroke-width="6.2633"/><path d="m692.656 69.423c7.933-3.451 14.733-5.169 22.112-4.96 7.205.2 14.963 2.237 24.868 6.281 18.31 7.486 26.264 15.944 33.011 26.601-4.427.889-6.881 3.32-9.285 4.561-.674.346-1.342.602-2.049.704-2.75.394-6.355-3.308-8.44-4.572-9.114-5.518-14.614-10.305-19.86-11.151-1.604-.263-3.188-.152-4.844.42-.438.149-.88.331-1.33.549" stroke="#231f20" stroke-width="6.2633"/><path d="m750.564 126.535c-1.414-2.458-3.119-4.906-4.76-7.45-.003-.003-.003-.006-.006-.009" stroke="#231f20" stroke-width="6.9059"/><path d="m697.142 155.531s-17.266 15.885-18.99 21.409c-1.727 5.527-2.072 28.486-1.727 36.774.349 8.286-.376 14.361-.376 14.361.072 1.032.048 1.969-.065 2.813-1.157 8.843-11.614 8.056-16.168 8.372-9.914.686-2.022 6.18 4.733 7.451 3.608.686 5.181-.167 8.816.704 2.132.51 5.702 2.675 8.214 2.001 5.923-1.59 3.575-6.275 4.739-16.246.035-.322.077-.647.122-.981 1.381-10.188 9.15-16.231 11.05-31.424.642-5.151-2.511-12.595 2.153-15.805 4.152-2.854 10.203-4.778 14.934-6.982 3.469-1.617 6.365-3.146 9.303-5.124.954-.645 1.915-1.333 2.899-2.085 2.499-1.915 5.165-4.25 8.345-7.295l.531-.525c7.432-6.866 14.823-15.017 16.851-19.538 2.834-6.344 1.092-11.629-1.941-16.875" stroke="#231f20" stroke-width="6.2633"/><path d="m752.506 143.411c1.796 4.843 2.413 19.297 4.289 25.787l-4.318 2.72-18.08 11.393-.305.191" stroke="#231f20" stroke-width="6.2633"/><path d="m671.937 77.15c.018.137.035.281.057.424 1.047 7.698 6.215 22.715 10.263 28.167.588.79 1.151 1.381 1.673 1.718" stroke="#231f20" stroke-width="6.2633"/><path d="m638.869 100.086c-.016-.009-.03-.021-.045-.033" stroke="#231f20" stroke-width="2.0878"/><path d="m642.386 92.558c-.245-.08-.502-.158-.764-.232-1.381-.391-4.385 1.011-3.675 1.318l.003.003c.478.212 1.346.674 2.175 1.313.733.566 1.438 1.268 1.807 2.049.308.635.388 1.327.084 2.037-.889 2.07-2.613 1.419-3.132 1.053" stroke="#231f20" stroke-width="2.0878"/><path d="m651.285 101.694c-1.217-2.273-1.294-4.319-3.016-5.998-.221-.221-1.184-1.104-3.096-2.034-.767-.37-1.682-.751-2.768-1.097" stroke="#231f20" stroke-width="2.0878"/><path d="m635.451 102.571c-.286-.215-.576-.48-.889-.779-.469-.441-.987-.96-1.632-1.509" stroke="#231f20" stroke-width="2.0878"/><path d="m634.354 96.271c.093.143.25.274.495.394 1.396.677 2.386 2.192 3.633 3.087.134.096.266.206.388.334.006 0 .012.006.015.012.8.814 1.214 2.129-.402 2.794-1.354.552-2.175.328-3.03-.319" stroke="#231f20" stroke-width="2.0878"/><path d="m637.986 93.686s-.016-.009-.042-.024c-.212-.113-1.196-.572-2.114.245-.839.764-1.909 1.682-1.479 2.362" stroke="#231f20" stroke-width="2.0878"/><path d="m634.565 96.373s-.081-.048-.212-.102l-.003-.003c-.364-.158-1.125-.388-1.724.045-.83.587-1.417 1.736-1.519 2.401" stroke="#231f20" stroke-width="2.0878"/><path d="m644.365 113.698c-5.013-1.599-5.004-1.229-9.615-3.656-1.921-1.017-3.395-2.881-4.629-4.596-.247-.346-.588-.835-.912-1.354-.424-.665-.826-1.378-1-1.906-.343-1.026.633-2.634 1.847-2.634h.021c1.271.015 1.134.838 3.803 2.314" stroke="#231f20" stroke-width="2.0878"/><path d="m634.085 100.906c.683.543 1.13 1.113 1.366 1.665v.003c.465 1.085.113 2.103-.842 2.696-1.512.957-3.85-.653-4.533-1.351" stroke="#231f20" stroke-width="2.0878"/><path d="m780.143 117.859c-.229.385-.418.561-.447.322-.099-.754.101-.934-.901-4.945-.301-1.214-2.32-4.608-2.32-4.608" stroke="#231f20" stroke-miterlimit="10" stroke-width="2.0878"/><path d="m772.647 97.345c1.482 1.327 4.834 3.8 5.735 5.512.185.361 2.813 8.146 2.75 12.097-.01.811-.57 2.201-.99 2.902" stroke="#231f20" stroke-miterlimit="10" stroke-width="2.0878"/><path d="m777.025 119.735c-.083-.11-.152-.256-.203-.453-.369-1.5-.391-2.428-1.822-5.261-.903-1.777-2.275-4.587-2.275-4.587" stroke="#231f20" stroke-miterlimit="10" stroke-width="2.0878"/><path d="m780.104 117.4s.051.191.039.456c0 0 .003.003 0 .003-.013.382-.155.922-.758 1.294-.88.534-1.876 1.205-2.359.585" stroke="#231f20" stroke-miterlimit="10" stroke-width="2.0878"/><path d="m776.999 119.595s.012.054.026.14v.003c.045.316.087 1.077-.459 1.497-.698.546-1.811.754-2.393.674" stroke="#231f20" stroke-miterlimit="10" stroke-width="2.0878"/><path d="m763.291 101.139c.026.265.054.519.071.767.355 4.086-.218 5.965.254 8.342.116.582.408 1.148.814 1.721.892 1.252 2.323 2.517 3.585 3.979.45.525.85 1.026 1.201 1.503 1.975 2.654 2.583 4.533 3.183 4.951.633.444 1.479.149 1.641-.528.036-.161.036-.343-.015-.54-.293-1.205.041-1.405-1.766-4.9-.579-1.106-.981-2.685-3.859-6.114" stroke="#231f20" stroke-miterlimit="10" stroke-width="2.0878"/><path d="m644.959 113.102c2.446-1.954 6.425-5.986 6.672-9.55.045-.65-.032-1.285-.271-1.888-.047-.128-.104-.256-.17-.382" stroke="#231f20" stroke-miterlimit="10" stroke-width="4.1755"/><path d="m763.968 111.948c.057.078.11.155.164.232 1.73 2.47 2.374 5.435 1.799 8.429 1.715.856 2.979-1.536 3.286-3.158.016-.075.027-.146.036-.218" stroke="#231f20" stroke-width="2.0878"/><path d="m645.174 93.662c-.53-.435-1.673-.868-2.768-1.097-.006-.003-.015-.006-.021-.006-1.318-.277-2.563-.256-2.563.418 0 .725.099 1.393.302 1.983.244.712.644 1.306 1.217 1.736.188.14.388.241.59.313 1.357.474 2.959-.286 2.959.993 0 4.438 1.262 5.213 2.595 6.55" stroke="#231f20" stroke-width="2.0878"/><path d="m752.217 171.417s.093.2.26.501c.629 1.125 2.32 3.66 4.232 2.434 2.415-1.554 6.559-10.185 18.813-9.842l8.354-.182c1.071 0 2.106-.155 3.111-.415 5.595-1.443 10.188-6.081 14.263-4.581 3.28 1.208 2.242 6.511 3.068 8.545 1.402 3.466 3.01 4.247 4.552 7.582 2.89 6.243 3.006 15.849-3.311 8.19-3.048-3.698-7.689-9.627-13.988-9.067-.28.027-.563.063-.853.117 0 0-17.052 5.294-29.867 15.366-9.67 7.597-15.021 10.358-20.717 2.07-1.828-2.66-3.845-5.792-5.738-8.822-4.006-6.406-7.466-12.345-7.466-12.345" stroke="#231f20" stroke-width="6.2633"/><path d="m723.728 172.624-25.93-18.035-.135-.092s6.628-10.162 9.336-15.148" stroke="#231f20" stroke-width="6.2633"/><path d="m714.753 65.065s.919 18.36 13.416 22.241c.778.242 1.599.426 2.47.549" stroke="#231f20" stroke-width="6.2633"/><path d="m677.209 231.046 8.632 2.073" stroke="#231f20" stroke-width="6.9059"/><path d="m788.735 164.059 2.768 9.323" stroke="#231f20" stroke-width="6.9059"/><path d="m657.182 223.623c0 10.394-8.429 18.82-18.816 18.82-10.395 0-18.82-8.426-18.82-18.82s8.426-18.82 18.82-18.82c10.387 0 18.816 8.426 18.816 18.82z" stroke="#231f20" stroke-width="6.2633"/></g></svg>