<svg enable-background="new 0 0 850.394 850.394" height="850.394" viewBox="0 0 850.394 850.394" width="850.394" xmlns="http://www.w3.org/2000/svg"><path d="m487.61 565.53-.83.76 33.569 30.42c-44.08 36.9-87.59 69.15-111.379 81.86l-51.79 60.97c-15.86 11.69-80.48 28.87-86.02 30.9-22.19 8.109-49.21 15.489-51.93 10.02-5.08-10.21-3.2-10.02 2.67-16.44-7.35 2.98-13.96 5.69-19.04 7.82-12.06 5.04-14.22 3.561-19.08.74 0 0-5.83-9.85.92-14.01.75-.46 1.7-1.011 2.81-1.62-11.79 5.26-19.29 5.8-25.25.72 0 0-6.58-11.3.5-14.84 5.33-2.65 15.04-7.48 26.6-13.22l-.05-.091c-18.38 6.681-27.32-14.26-15.86-19.97 1.53-.76 8.47-4.149 18.2-8.99 18.91-9.359 39.59-17.6 60.17-28.89 13.5-7.42 23.18-13.33 23.6-15.229 1.36-6.33-23.76-2.28-23.76-2.28-3.31 1.01-6.24 1.49-8.81 1.58-18.03.62-18.76-18.54-11.01-19.37 8.84-.92 30.77-8.55 43.7-11.5 12.92-2.96 39.4 1.24 51.71.09 34.11-3.18 43.3-15.72 43.3-15.72s16.42-19.221 39.24-45.351c45.45-52.009 116.31-131.379 133.64-140.889 0 0-49.63-74.2-85.47-135.31l-.01-.01c-25.9-18.7-39.57 28.57-45.75 62.79l-4.2-.47-26.54-282.04c35.13 6.07 93.6 14.95 108.73 23.13 18.93 10.22 63.77 67.98 105.859 165.7 38.32 88.95 59.55 157.94 61.811 189.6 1.39 19.48-46.45 70.11-102.03 119.681h-67.73z" fill="#ffeec8"/><path d="m488.1 566.07h67.73c-11.61 10.35-23.57 20.67-35.48 30.64l-33.569-30.42.83-.76z" fill="#ffeec8"/><g fill="none"><path d="m457.95 287.68c-25.9-18.7-39.57 28.57-45.75 62.79-2.28 12.65-3.54 23.51-4.02 28.6-3.1 33 1.49 152.27 1.61 184.82.01.471.01.931.01 1.36" stroke="#231f20" stroke-width="14"/><path d="m191.65 700.56c-9.73 4.841-16.67 8.23-18.2 8.99-11.46 5.71-2.52 26.65 15.86 19.97" stroke="#231f20" stroke-width="14"/><path d="m251.82 671.67c-20.58 11.29-41.26 19.53-60.17 28.89" stroke="#231f20" stroke-width="14"/><path d="m429.84 235.91c6.57 14.01 16.641 32.22 28.11 51.77l.01.01c35.84 61.11 85.47 135.31 85.47 135.31-17.33 9.51-88.189 88.88-133.64 140.89-22.82 26.13-39.24 45.351-39.24 45.351s-9.19 12.54-43.3 15.72c-12.31 1.15-38.79-3.05-51.71-.09-12.93 2.95-34.86 10.58-43.7 11.5-7.75.83-7.02 19.99 11.01 19.37 2.57-.09 5.5-.57 8.81-1.58 0 0 25.12-4.05 23.76 2.28-.42 1.899-10.1 7.81-23.6 15.229" stroke="#231f20" stroke-width="14"/><path d="m381.46 67.96c35.13 6.07 93.6 14.95 108.73 23.13 18.93 10.22 63.77 67.98 105.859 165.7 38.32 88.95 59.55 157.94 61.811 189.6 1.39 19.48-46.45 70.11-102.03 119.681-11.61 10.35-23.57 20.67-35.48 30.64-44.08 36.9-87.59 69.15-111.379 81.86l-51.79 60.97c-15.86 11.69-80.48 28.87-86.02 30.9-22.19 8.109-49.21 15.489-51.93 10.02-5.08-10.21-3.2-10.02 2.67-16.44.11-.13.23-.26.35-.39" stroke="#231f20" stroke-width="14"/><path d="m295.05 734.77s-42.85 16.95-73.15 29.25c-7.35 2.98-13.96 5.69-19.04 7.82-12.06 5.04-14.22 3.561-19.08.74 0 0-5.83-9.85.92-14.01.75-.46 1.7-1.011 2.81-1.62 17.21-9.47 74.45-35.17 74.45-35.17" stroke="#231f20" stroke-width="14"/><path d="m187.73 756.85c-.07.03-.15.07-.22.101-11.79 5.26-19.29 5.8-25.25.72 0 0-6.58-11.3.5-14.84 5.33-2.65 15.04-7.48 26.6-13.22 34.28-17.04 84.76-42.11 84.76-42.11" stroke="#231f20" stroke-width="14"/><path d="m698.12 566.07h-142.29-67.73" stroke="#231f20" stroke-width="21"/><path d="m555.77 503.66-68.16 61.87-.83.76 33.57 30.42 35.54 32.2" stroke="#231f20" stroke-width="21"/><path d="m0 0h850.394v850.394h-850.394z"/></g></svg>