<svg enable-background="new 0 0 850.394 850.394" height="850.394" viewBox="0 0 850.394 850.394" width="850.394" xmlns="http://www.w3.org/2000/svg"><path d="m455.39 580.76v115.01h-3.42l-266.26 23.97-.53-121.59 2.78-.01 264.8-17.38z" fill="#fff"/><path d="m455.39 461.15v119.61h-2.63l-264.8 17.38-2.78.01-.55-128.83h.26z" fill="#fff"/><path d="m455.39 335.41v125.74l-270.5 8.17h-.26l-.57-130.85 2.88-.01z" fill="#fff"/><path d="m455.39 226.97v108.44l-268.45 3.05-2.88.01-.48-111.28z" fill="#fff"/><path d="m455.39 461.15v-125.74-108.44-14h4.77l164.85-17.14v577.43l-5.59 2.63-164.03-69.65v-10.47-115.01z" fill="#fff"/><path d="m654.96 205.87.72 552.96-30.67 14.43v-577.43z" fill="#fff5b4"/><path d="m153.01 186.68v581.01l-68.97-84.2v-462.7z" fill="#fff5b4"/><path d="m455.39 706.24v40.22l-297.41 27.3-4.97-6.07v-581.01l302.38 2.13v24.16 14l-271.81.22.48 111.28.57 130.85.55 128.83.53 121.59 266.26-23.97h3.42z" fill="#fff5b4"/><g fill="none"><path d="m153.01 186.68-68.97 34.11v462.7l68.97 84.2 4.97 6.07 297.41-27.3v-40.22-10.47-115.01-119.61-125.74-108.44-14-24.16z" stroke="#231f20" stroke-width="21"/><path d="m153.01 186.68v581.01" stroke="#231f20" stroke-width="21"/><path d="m455.39 226.97-271.81.22.48 111.28.57 130.85.55 128.83.53 121.59 266.26-23.97" stroke="#231f20" stroke-width="14"/><path d="m460.16 212.97 164.85-17.14 29.95 10.04.72 552.96-30.67 14.43-5.59 2.63-164.03-69.65" stroke="#231f20" stroke-width="21"/><path d="m625.01 195.83v577.43 2.63" stroke="#231f20" stroke-width="21"/><path d="m186.94 338.46 268.45-3.05 1.45-.02" stroke="#231f20" stroke-width="14"/><path d="m184.89 469.32 270.5-8.17.43-.01" stroke="#231f20" stroke-width="14"/><path d="m187.96 598.14 264.8-17.38" stroke="#231f20" stroke-width="14"/><path d="m779.39 36.76-46.48 75.15-.17.27" stroke="#231f20" stroke-width="7.4108"/><path d="m797.9 58.02-35.67 7.58" stroke="#231f20" stroke-width="7.4108"/><path d="m752.12 29.7 9.14 35.3" stroke="#231f20" stroke-width="7.4108"/><path d="m686.18 187.46 46.46-75.11.09-.15.01-.02" stroke="#231f20" stroke-width="7.4108"/><path d="m667.67 166.2 35.67-7.58" stroke="#231f20" stroke-width="7.4108"/><path d="m713.46 194.52-9.15-35.3" stroke="#231f20" stroke-width="7.4108"/><path d="m686.03 36.11 46.65 75.42" stroke="#231f20" stroke-width="7.4108"/><path d="m667.52 57.37 35.67 7.58" stroke="#231f20" stroke-width="7.4108"/><path d="m713.31 29.05-9.15 35.3" stroke="#231f20" stroke-width="7.4108"/><path d="m779.25 186.81-46.15-74.6-.19-.3-.13-.21-.1-.17" stroke="#231f20" stroke-width="7.4108"/><path d="m797.75 165.55-35.67-7.58" stroke="#231f20" stroke-width="7.4108"/><path d="m751.96 193.87 9.15-35.3" stroke="#231f20" stroke-width="7.4108"/><path d="m821.66 112.21h-88.56-.31" stroke="#231f20" stroke-width="7.4108"/><path d="m813.33 139.13-25.21-26.35" stroke="#231f20" stroke-width="7.4108"/><path d="m813.33 85.29-25.21 26.35" stroke="#231f20" stroke-width="7.4108"/><path d="m644.47 112.2h88.26.26" stroke="#231f20" stroke-width="7.4108"/><path d="m652.82 85.28 25.2 26.35" stroke="#231f20" stroke-width="7.4108"/><path d="m652.82 139.11 25.2-26.34" stroke="#231f20" stroke-width="7.4108"/><path d="m0 0h850.394v850.394h-850.394z"/></g></svg>