<svg enable-background="new 0 0 850.394 850.394" height="850.394" viewBox="0 0 850.394 850.394" width="850.394" xmlns="http://www.w3.org/2000/svg"><path d="m320.89 134.97h76.51v327.89h-76.51z" fill="#0071bc"/><path d="m320.89 547.3h76.51v180.62h-76.51z" fill="#0071bc"/><path d="m455.47 547.3h76.511v180.62h-76.511z" fill="#0071bc"/><path d="m589.09 94.12v680.69h-324.62v-680.69zm-29.38 407.55c0-7.25-5.87-13.12-13.11-13.12-7.25 0-13.119 5.87-13.119 13.12 0 7.24 5.869 13.11 13.119 13.11 7.24 0 13.11-5.87 13.11-13.11zm-26.77-38.81v-327.89h-76.52v327.89zm-.96 265.06v-180.62h-76.51v180.62zm-60.8-213.14v-21.31h-89.35v21.311h89.35zm-73.78 213.14v-180.62h-76.51v180.62zm0-265.06v-327.89h-76.51v327.89z" fill="#394ea1"/><path d="m456.42 134.97h76.521v327.89h-76.521z" fill="#0071bc"/><path d="m546.6 488.55c7.24 0 13.11 5.87 13.11 13.12 0 7.24-5.87 13.11-13.11 13.11-7.25 0-13.119-5.87-13.119-13.11-.001-7.25 5.869-13.12 13.119-13.12z" fill="#fbed24"/><path d="m381.83 493.47h89.35v21.311h-89.35z" fill="#fbed24"/><path d="m611.14 70.94v703.87h-22.05v-680.69h-324.62v680.69h-22.02v-703.87z" fill="#0071bc"/><g fill="none"><path d="m264.47 777.79v-2.98-680.69h324.62v680.69 2.98" stroke="#231f20" stroke-width="6.558"/><path d="m242.45 779.2v-4.39-703.87h368.69v703.87 4.39" stroke="#231f20" stroke-width="19.6739"/><path d="m320.89 134.97h76.51v327.89h-76.51z" stroke="#231f20" stroke-width="19.6739"/><path d="m320.89 547.3h76.51v180.62h-76.51z" stroke="#231f20" stroke-width="19.6739"/><path d="m455.47 547.3h76.511v180.62h-76.511z" stroke="#231f20" stroke-width="19.6739"/><path d="m456.42 134.97h76.521v327.89h-76.521z" stroke="#231f20" stroke-width="19.6739"/><path d="m381.83 493.47h89.35v21.311h-89.35z" stroke="#231f20" stroke-width="13.1159"/><path d="m559.71 501.67c0 7.24-5.87 13.11-13.11 13.11-7.25 0-13.119-5.87-13.119-13.11 0-7.25 5.869-13.12 13.119-13.12 7.24 0 13.11 5.87 13.11 13.12z" stroke="#231f20" stroke-width="13.1159"/><path d="m226.45 774.81h16 22.02 324.62 22.05 16.44" stroke="#231f20" stroke-width="26.2318"/><path d="m0 0h850.394v850.394h-850.394z"/></g></svg>