<svg enable-background="new 0 0 850.394 850.394" height="850.394" viewBox="0 0 850.394 850.394" width="850.394" xmlns="http://www.w3.org/2000/svg"><path d="m649.76 214.13-.14-.23-.14.21-.011.02h.05.16zm88.93-77.22 21.76 446.03c0 3.51-1.24 6.729-3.311 9.229-2.659 3.23-6.68 5.28-11.189 5.28h-642.06c-4.76 0-8.98-2.29-11.63-5.83-1.81-2.41-2.88-5.42-2.88-8.68l21.77-446.03c0-8.01 6.5-14.51 14.51-14.51h598.52c8.01.001 14.51 6.501 14.51 14.511z" fill="#6ebe44"/><path d="m757.32 592.32-12.55 121.25c0 6.92-5.609 12.54-12.539 12.54h-615.671c-6.93 0-12.54-5.62-12.54-12.54l-12.55-121.25.79-.7c2.65 3.54 6.87 5.83 11.63 5.83h642.06c4.51 0 8.53-2.05 11.189-5.28z" fill="#6ebe44"/><path d="m649.76 214.13h-.08-.16-.05l.01-.02.14-.21z" fill="#fff"/><g fill="none"><path d="m92.26 591.62c-1.81-2.41-2.88-5.42-2.88-8.68l21.77-446.03c0-8.01 6.5-14.51 14.51-14.51h598.52c8.011 0 14.511 6.5 14.511 14.51l21.76 446.03c0 3.51-1.24 6.729-3.311 9.229-2.659 3.23-6.68 5.28-11.189 5.28h-642.061c-4.76.001-8.98-2.289-11.63-5.829z" stroke="#231f20" stroke-width="21"/><path d="m686.04 155.01-36.42 58.89-.14.21" stroke="#231f20" stroke-width="14"/><path d="m700.54 171.66-27.95 5.94" stroke="#231f20" stroke-width="14"/><path d="m664.66 149.47 7.17 27.66" stroke="#231f20" stroke-width="14"/><path d="m612.99 273.1 36.41-58.85.07-.12.01-.02" stroke="#231f20" stroke-width="14"/><path d="m598.49 256.45 27.95-5.94" stroke="#231f20" stroke-width="14"/><path d="m634.36 278.64-7.16-27.66" stroke="#231f20" stroke-width="14"/><path d="m612.87 154.5 36.56 59.1" stroke="#231f20" stroke-width="14"/><path d="m598.37 171.15 27.95 5.94" stroke="#231f20" stroke-width="14"/><path d="m634.25 148.96-7.17 27.66" stroke="#231f20" stroke-width="14"/><path d="m685.92 272.59-36.16-58.46-.14-.23-.11-.17-.08-.13" stroke="#231f20" stroke-width="14"/><path d="m700.42 255.94-27.95-5.94" stroke="#231f20" stroke-width="14"/><path d="m664.54 278.13 7.17-27.66" stroke="#231f20" stroke-width="14"/><path d="m719.17 214.13h-69.41-.08" stroke="#231f20" stroke-width="14"/><path d="m712.63 235.22-19.76-20.64" stroke="#231f20" stroke-width="14"/><path d="m712.63 193.04-19.76 20.64" stroke="#231f20" stroke-width="14"/><path d="m580.31 214.13h69.16.05.16" stroke="#231f20" stroke-width="14"/><path d="m586.84 193.03 19.76 20.65" stroke="#231f20" stroke-width="14"/><path d="m586.84 235.22 19.76-20.65" stroke="#231f20" stroke-width="14"/><path d="m757.32 592.32-12.55 121.25c0 6.92-5.609 12.54-12.539 12.54h-615.671c-6.93 0-12.54-5.62-12.54-12.54l-12.55-121.25" stroke="#231f20" stroke-width="21"/><path d="m0 0h850.394v850.394h-850.394z"/></g></svg>