<svg enable-background="new 0 0 850.394 850.394" height="850.394" viewBox="0 0 850.394 850.394" width="850.394" xmlns="http://www.w3.org/2000/svg"><path d="m656.78 207.57-.15-.24-.14.22-.01.02h.05.16zm91.7-79.63 22.45 459.96c0 3.609-1.279 6.93-3.41 9.52-2.75 3.32-6.899 5.44-11.55 5.44h-662.1c-4.91 0-9.26-2.36-11.99-6.011-1.87-2.5-2.97-5.59-2.97-8.949l22.44-459.96c0-8.26 6.7-14.96 14.96-14.96h617.21c8.27 0 14.96 6.7 14.96 14.96zm-87.55 362.56c4.21-1.73 6.23-6.53 4.5-10.74l-16.649-40.62c-1.73-4.199-6.53-6.21-10.74-4.489l-176.7 72.439c-4.2 1.72-6.22 6.53-4.49 10.74l16.65 40.62c1.72 4.21 6.53 6.22 10.73 4.49zm-118.44-49.25c4.22-1.73 6.229-6.53 4.5-10.74l-16.65-40.62c-1.72-4.2-6.53-6.22-10.74-4.49l-176.7 72.44c-4.2 1.72-6.22 6.53-4.49 10.74l16.65 40.62c1.73 4.21 6.53 6.22 10.74 4.479zm-29.17-198.13 21.04-5.38c0-10.25-17.721-32.21-34.061-41.91-16.1-9.56-40.26-16.2-62.06-19.06 0 0 0-.01-.01-.01-.74-.76-24.771-25.26-60.42-30.88 0 0-41.46 23.15-57.89 54.23-35.94 14.1-65.71 28.94-66.4 29.01-21.58 2.28-69.11-31.56-69.11-31.56s12.15 32.93 19.53 40.3c5.43 5.43 7.33 8.45 3.47 14.16-.24.36-.5.71-.79 1.09-1.35 1.8-3.23 3.86-5.69 6.32-11.27 11.26-22.83 32.94-22.83 32.94s41.13-19.25 58.75-26.63c17.61-7.37 28.07-.14 28.07-.14s37.21 24.55 71.78 36.94l-.07.19 7.7 26.37s10.25 2.24 22.64-18.24l.2-1.13c5.4.98 22.85 3.69 45.83 2.54l.12 2.43 20.18 25.78s14.16-2.34 19.9-34.13c4.2-1.06 8.45-2.29 12.729-3.7 42.7-14.14 58.67-35.65 64.32-42.72zm-119.12 164.42c4.18-1.79 6.1-6.63 4.31-10.81l-17.33-40.33c-1.8-4.18-6.63-6.11-10.82-4.31l-175.45 75.4c-4.17 1.8-6.1 6.649-4.31 10.819l17.33 40.32c1.8 4.18 6.64 6.101 10.81 4.311z" fill="#6ebe44"/><path d="m767.69 597.56-12.93 125.04c0 7.141-5.79 12.931-12.939 12.931h-634.891c-7.14 0-12.93-5.79-12.93-12.931l-12.94-125.04.82-.71c2.73 3.65 7.08 6.011 11.99 6.011h662.1c4.65 0 8.8-2.12 11.55-5.44z" fill="#6ebe44"/><path d="m665.43 479.76c1.73 4.21-.29 9.01-4.5 10.74l-176.7 72.44c-4.2 1.729-9.011-.28-10.73-4.49l-16.65-40.62c-1.729-4.21.29-9.021 4.49-10.74l176.7-72.439c4.21-1.721 9.01.29 10.74 4.489z" fill="#faa41f"/><path d="m656.63 207.33.15.24h-.09-.16-.05l.01-.02z" fill="#fff"/><path d="m546.99 430.51c1.729 4.21-.28 9.01-4.5 10.74l-176.69 72.43c-4.21 1.74-9.01-.27-10.74-4.479l-16.65-40.62c-1.73-4.21.29-9.021 4.49-10.74l176.7-72.44c4.21-1.73 9.021.29 10.74 4.49z" fill="#faa41f"/><path d="m453.2 306.35c-14.3 3.62-28.03 5.31-40.2 5.92-22.98 1.15-40.43-1.56-45.83-2.54-1.14-.21-1.74-.34-1.74-.34-8.68-.62-18.59-3.21-28.73-6.85-34.57-12.39-71.78-36.94-71.78-36.94s-10.46-7.23-28.07.14c-17.62 7.38-58.75 26.63-58.75 26.63s11.56-21.68 22.83-32.94c2.46-2.46 4.34-4.52 5.69-6.32.29-.38.55-.73.79-1.09 3.86-5.71 1.96-8.73-3.47-14.16-7.38-7.37-19.53-40.3-19.53-40.3s47.53 33.84 69.11 31.56c.69-.07 30.46-14.91 66.4-29.01-.18.34-.36.69-.53 1.03l118.86-24.36s0 0-.01-.01c21.8 2.86 45.96 9.5 62.06 19.06 16.34 9.7 34.061 31.66 34.061 41.91l-21.04 5.38 16.93 16.81c-5.65 7.07-21.62 28.58-64.32 42.72-4.281 1.41-8.531 2.64-12.731 3.7zm36.22-92.39c0-5.14-4.16-9.3-9.3-9.3-5.12 0-9.28 4.16-9.28 9.3 0 5.12 4.16 9.28 9.28 9.28 5.14 0 9.3-4.16 9.3-9.28z" fill="#7a7878"/><path d="m480.12 204.66c5.14 0 9.3 4.16 9.3 9.3 0 5.12-4.16 9.28-9.3 9.28-5.12 0-9.28-4.16-9.28-9.28 0-5.14 4.16-9.3 9.28-9.3z" fill="#231f20"/><path d="m453.2 306.35c-5.74 31.79-19.9 34.13-19.9 34.13l-20.18-25.78-.12-2.43c12.17-.61 25.9-2.3 40.2-5.92z" fill="#c8c8c8"/><path d="m438.25 176.78-118.86 24.36c.17-.34.35-.69.53-1.03 32.57-12.76 70.23-24.93 95.91-24.93 6.81 0 14.45.54 22.4 1.58.01 0 .01.01.01.01.01.01.01.01.01.01z" fill="#fff"/><path d="m377.81 145.88c35.65 5.62 59.68 30.12 60.42 30.88-7.95-1.04-15.59-1.58-22.4-1.58-25.68 0-63.34 12.17-95.91 24.93 16.43-31.08 57.89-54.23 57.89-54.23z" fill="#c8c8c8"/><path d="m398.51 396.73c1.79 4.18-.13 9.02-4.31 10.81l-175.46 75.4c-4.17 1.79-9.01-.131-10.81-4.311l-17.33-40.32c-1.79-4.17.14-9.02 4.31-10.819l175.45-75.4c4.19-1.8 9.02.13 10.82 4.31z" fill="#faa41f"/><path d="m367.17 309.73-.2 1.13c-12.39 20.48-22.64 18.24-22.64 18.24l-7.7-26.37.07-.19c10.14 3.64 20.05 6.23 28.73 6.85 0 0 .6.13 1.74.34z" fill="#c8c8c8"/><g fill="none"><path d="m81.88 596.85c-1.87-2.5-2.97-5.59-2.97-8.949l22.44-459.96c0-8.26 6.7-14.96 14.96-14.96h617.21c8.271 0 14.961 6.7 14.961 14.96l22.449 459.959c0 3.609-1.279 6.93-3.41 9.52-2.75 3.32-6.899 5.44-11.55 5.44h-662.1c-4.91 0-9.26-2.36-11.99-6.01z" stroke="#231f20" stroke-width="21"/><path d="m694.19 146.6-37.56 60.73-.14.22" stroke="#231f20" stroke-width="14"/><path d="m709.14 163.78-28.82 6.12" stroke="#231f20" stroke-width="14"/><path d="m672.15 140.89 7.39 28.53" stroke="#231f20" stroke-width="14"/><path d="m618.86 268.38 37.55-60.69.07-.12.01-.02" stroke="#231f20" stroke-width="14"/><path d="m603.91 251.21 28.82-6.13" stroke="#231f20" stroke-width="14"/><path d="m640.9 274.09-7.39-28.52" stroke="#231f20" stroke-width="14"/><path d="m618.74 146.08 37.7 60.94" stroke="#231f20" stroke-width="14"/><path d="m603.78 163.25 28.83 6.13" stroke="#231f20" stroke-width="14"/><path d="m640.78 140.36-7.39 28.53" stroke="#231f20" stroke-width="14"/><path d="m694.07 267.86-37.29-60.29-.15-.24-.11-.17-.08-.14" stroke="#231f20" stroke-width="14"/><path d="m709.02 250.68-28.82-6.12" stroke="#231f20" stroke-width="14"/><path d="m672.02 273.56 7.4-28.52" stroke="#231f20" stroke-width="14"/><path d="m728.35 207.57h-71.57-.09" stroke="#231f20" stroke-width="14"/><path d="m721.61 229.32-20.37-21.29" stroke="#231f20" stroke-width="14"/><path d="m721.61 185.82-20.37 21.29" stroke="#231f20" stroke-width="14"/><path d="m585.16 207.57h71.32.05.16" stroke="#231f20" stroke-width="14"/><path d="m591.9 185.81 20.37 21.29" stroke="#231f20" stroke-width="14"/><path d="m591.9 229.32 20.37-21.29" stroke="#231f20" stroke-width="14"/><path d="m767.69 597.56-12.93 125.04c0 7.141-5.79 12.931-12.939 12.931h-634.891c-7.14 0-12.93-5.79-12.93-12.931l-12.94-125.04" stroke="#231f20" stroke-width="21"/><path d="m336.63 302.73 7.7 26.37s10.25 2.24 22.64-18.24" stroke="#231f20" stroke-width="14"/><path d="m206.62 253.11c.29-.38.55-.73.79-1.09" stroke="#231f20" stroke-width="19.4025"/><path d="m435.65 285.51s-35.51-19.32-43.891-37.35c-8.36-18.04 38.75-9.61 38.75-9.61" stroke="#231f20" stroke-width="14"/><path d="m413.12 314.7 20.18 25.78s14.16-2.34 19.9-34.13c.109-.58.21-1.18.31-1.78" stroke="#231f20" stroke-width="14"/><path d="m438.23 176.76c-.74-.76-24.771-25.26-60.42-30.88 0 0-41.46 23.15-57.89 54.23-.18.34-.36.69-.53 1.03" stroke="#231f20" stroke-width="14"/><path d="m438.25 176.78s0 0-.01-.01" stroke="#231f20" stroke-width="14"/><path d="m207.41 252.02c3.86-5.71 1.96-8.73-3.47-14.16-7.38-7.37-19.53-40.3-19.53-40.3s47.53 33.84 69.11 31.56c.69-.07 30.46-14.91 66.4-29.01 32.57-12.76 70.23-24.93 95.91-24.93 6.81 0 14.45.54 22.4 1.58.01 0 .01.01.01.01 21.8 2.86 45.96 9.5 62.06 19.06 16.34 9.7 34.061 31.66 34.061 41.91l-21.04 5.38 16.93 16.81c-5.65 7.07-21.62 28.58-64.32 42.72-4.279 1.41-8.529 2.64-12.729 3.7-14.3 3.62-28.03 5.31-40.2 5.92-22.98 1.15-40.43-1.56-45.83-2.54-1.14-.21-1.74-.34-1.74-.34-8.68-.62-18.59-3.21-28.73-6.85-34.57-12.39-71.78-36.94-71.78-36.94s-10.46-7.23-28.07.14c-17.62 7.38-58.75 26.63-58.75 26.63s11.56-21.68 22.83-32.94c2.46-2.46 4.34-4.52 5.69-6.32" stroke="#231f20" stroke-width="21"/><path d="m546.99 430.51c1.729 4.21-.28 9.01-4.5 10.74l-176.69 72.43c-4.21 1.74-9.01-.27-10.74-4.479l-16.65-40.62c-1.73-4.21.29-9.021 4.49-10.74l176.7-72.44c4.21-1.73 9.021.29 10.74 4.49z" stroke="#231f20" stroke-width="14"/><path d="m665.43 479.76c1.73 4.21-.29 9.01-4.5 10.74l-176.7 72.44c-4.2 1.729-9.011-.28-10.73-4.49l-16.65-40.62c-1.729-4.21.29-9.021 4.49-10.74l176.7-72.439c4.21-1.721 9.01.29 10.74 4.489z" stroke="#231f20" stroke-width="14"/><path d="m398.51 396.73c1.79 4.18-.13 9.02-4.31 10.81l-175.46 75.4c-4.17 1.79-9.01-.131-10.81-4.311l-17.33-40.32c-1.79-4.17.14-9.02 4.31-10.819l175.45-75.4c4.19-1.8 9.02.13 10.82 4.31z" stroke="#231f20" stroke-width="14"/><path d="m0 0h850.394v850.394h-850.394z"/></g></svg>