<svg enable-background="new 0 0 850.394 850.394" height="850.394" viewBox="0 0 850.394 850.394" width="850.394" xmlns="http://www.w3.org/2000/svg"><path d="m368 372.249h113.386v113.386h-113.386z" fill="none"/><path d="m754.52 160.23-.34 3.19c-5.949 28.72-91.699 51.5-196.609 51.5-104.92 0-190.68-22.78-196.63-51.5l-.34-3.19c0-30.22 88.19-54.7 196.97-54.7 108.769 0 196.949 24.48 196.949 54.7z" fill="#faa41a"/><path d="m754.18 163.42-53.26 505.65c0 46.35-64.18 83.92-143.35 83.92s-143.36-37.57-143.36-83.92l-53.27-505.65c5.95 28.72 91.71 51.5 196.63 51.5 104.91 0 190.66-22.78 196.61-51.5z" fill="#faa41a"/><g fill="none"><path d="m754.52 160.23c0 1.07-.109 2.14-.34 3.19-5.949 28.72-91.699 51.5-196.609 51.5-104.92 0-190.68-22.78-196.63-51.5-.23-1.05-.34-2.12-.34-3.19 0-30.22 88.19-54.7 196.97-54.7 108.769 0 196.949 24.48 196.949 54.7z" stroke="#231f20" stroke-width="21"/><path d="m360.6 160.23.34 3.19 53.27 505.65c0 46.35 64.19 83.92 143.36 83.92s143.35-37.57 143.35-83.92l53.26-505.65.34-3.19" stroke="#231f20" stroke-width="21"/><path d="m0 0h850.394v850.394h-850.394z"/><path d="m120.849 164.456 195.528.204" stroke="#000" stroke-linecap="round" stroke-linejoin="round" stroke-width="14"/><path d="m239.479 90.938 78.393 73.993-78.526 73.976" stroke="#000" stroke-linecap="round" stroke-linejoin="round" stroke-width="14"/><path d="m120.849 164.456v567.544" stroke="#000" stroke-linecap="round" stroke-linejoin="round" stroke-width="14"/><path d="m120.849 732h71.965" stroke="#000" stroke-linecap="round" stroke-linejoin="round" stroke-width="14"/><path d="m120.849 458.069h71.965" stroke="#000" stroke-linecap="round" stroke-linejoin="round" stroke-width="14"/><path d="m120.849 306.862h71.965" stroke="#000" stroke-linecap="round" stroke-linejoin="round" stroke-width="14"/><path d="m120.849 379.18h71.965" stroke="#000" stroke-linecap="round" stroke-linejoin="round" stroke-width="14"/><path d="m120.849 230.161h71.965" stroke="#000" stroke-linecap="round" stroke-linejoin="round" stroke-width="14"/><path d="m120.849 587.365h71.965" stroke="#000" stroke-linecap="round" stroke-linejoin="round" stroke-width="14"/><path d="m120.849 521.621h71.965" stroke="#000" stroke-linecap="round" stroke-linejoin="round" stroke-width="14"/><path d="m120.849 657.491h71.965" stroke="#000" stroke-linecap="round" stroke-linejoin="round" stroke-width="14"/></g></svg>