<svg enable-background="new 0 0 850.394 850.394" height="850.394" viewBox="0 0 850.394 850.394" width="850.394" xmlns="http://www.w3.org/2000/svg"><path d="m657.41 359.34s56.95 22.9 55.479 35.33c-.05.48-.199.94-.43 1.38-6.33 12.02-29.1 25.31-51.88 38.59-22.79 13.29-41.78 20.25-68.35 8.23-26.58-12.021-79.73-46.2-79.73-46.2s-12.97-8.53-6.33-15.18c6.64-6.64 82.9-29.11 82.9-29.11s14.979-4.1 33.59-2.74c5.08.36 10.439 1.13 15.84 2.51z" fill="#abd150"/><path d="m546.78 577.33v3.7l-214.28 51.65-242.55-85.4 204.97-29.42z" fill="#ef947d"/><path d="m332.5 632.68v73.9l-1.86.5-.12-.46-240.57-93.29v-66.05z" fill="#ef947d"/><path d="m546.78 581.03v68.91h-1.52l-212.76 56.64v-73.9z" fill="#ef947d"/><path d="m493.22 110.35.22 235.47-63.19 65.71v-263.69l58.14-37.49z" fill="#f6cc4b"/><path d="m247.43 83.81 245.79 21.7v4.84h-4.83l-58.14 37.49-137.95-15.43-118.16-13.22-.96-2.15z" fill="#f6cc4b"/><path d="m292.3 132.41v249.17l-118.16-25.65v-236.74z" fill="#f6cc4b"/><path d="m430.25 147.84v263.69l-137.95-29.95v-249.17z" fill="#f6cc4b"/><g fill="none"><path d="m622.66 349.64c5.08.36 10.439 1.13 15.84 2.51l18.91 7.19s56.95 22.9 55.479 35.33c-.05.48-.199.94-.43 1.38-6.33 12.02-29.1 25.31-51.88 38.59-22.79 13.29-41.78 20.25-68.35 8.23-26.58-12.021-79.73-46.2-79.73-46.2s-12.97-8.53-6.33-15.18c6.64-6.64 82.9-29.11 82.9-29.11s14.981-4.1 33.591-2.74z" stroke="#231f20" stroke-width="21"/><path d="m623.04 344.16s8.29-97.35 11.38-120.23c.2-1.51.41-3.01.6-4.49 2.431-18.15 4.311-33.17 4.311-33.17" stroke="#231f20" stroke-width="21"/><path d="m760.65 211.46s-3.9 10.28-9.75 28.65c-.16.5-.33 1.01-.49 1.53-6.97 22.01-34.19 138.22-34.19 138.22s-1.029 4.62-2.02 14.94c-.891 9.36-1.74 23.42-1.74 43 0 53.16 2.21 91.13 2.21 91.13" stroke="#231f20" stroke-width="21"/><path d="m635.9 219.56s63.119-1.45 115 20.55c.58.25 1.159.5 1.739.75" stroke="#231f20" stroke-width="21"/><path d="m515.35 399.53v132.25" stroke="#231f20" stroke-width="21"/><path d="m617.79 451.78v148.27" stroke="#231f20" stroke-width="21"/><path d="m430.25 147.84v263.69" stroke="#231f20" stroke-width="21"/><path d="m292.3 132.41v249.17.26" stroke="#231f20" stroke-width="21"/><path d="m171.18 117.93 2-.89 74.25-33.23 245.79 21.7v4.84l.22 235.47-63.19 65.71-137.95-29.95-118.16-25.65v-236.74l118.16 13.22 137.95 15.43 58.14-37.49" stroke="#231f20" stroke-width="21"/><path d="m314.68 177.33v49.28" stroke="#231f20" stroke-linecap="round" stroke-linejoin="round" stroke-width="21"/><path d="m271.17 172.27v49.29" stroke="#231f20" stroke-linecap="round" stroke-linejoin="round" stroke-width="21"/><path d="m89.95 450.48v26.19 70.61 66.05 68.32" stroke="#231f20" stroke-linecap="round" stroke-linejoin="round" stroke-width="21"/><path d="m294.92 428.85v20.5 61.49" stroke="#231f20" stroke-linecap="round" stroke-linejoin="round" stroke-width="21"/><path d="m89.95 476.67 204.97-27.32" stroke="#231f20" stroke-width="21"/><path d="m89.95 547.28 204.97-29.42 251.86 59.47 7.77 1.83-7.77 1.87-214.28 51.65z" stroke="#231f20" stroke-width="21"/><path d="m545.26 649.94-212.76 56.64-1.86.5-3.01.8" stroke="#231f20" stroke-width="21"/><path d="m330.52 706.62-240.57-93.29" stroke="#231f20" stroke-width="21"/><path d="m332.5 632.68v73.9 66.16" stroke="#231f20" stroke-width="21"/><path d="m546.78 575.73v1.6 3.7 68.91 65.84" stroke="#231f20" stroke-width="21"/><path d="m0 0h850.394v850.394h-850.394z"/></g></svg>