<svg enable-background="new 0 0 850.394 850.394" height="850.394" viewBox="0 0 850.394 850.394" width="850.394" xmlns="http://www.w3.org/2000/svg"><path d="m719.76 94.25 45.1 280.28-234.03 32.17-4.39-22.8 8.31-1.53 202.94-29.09-42.18-256z" fill="#ff001c"/><path d="m695.51 97.28 42.18 256-202.94 29.09-45.51-247.33 202.94-57.98z" fill="#fff"/><path d="m526.44 383.9 4.39 22.8-59.13 12.72c-.25-.9-.521-1.81-.8-2.71-2.011-6.53-4.351-12.86-7-18.99l56.819-12.77z" fill="#ff001c"/><path d="m386.78 311.89c-.73-.42-1.47-.83-2.21-1.24-19.04-10.46-39.94-17.53-61.7-20.68-9.39-1.36-18.94-1.99-28.57-1.85l-19.17-116.36-2.87-17.43 202.94-16.72 45.52 247.34-56.82 12.77c-3.25-7.53-6.971-14.74-11.11-21.61-5.1-8.46-10.83-16.41-17.12-23.81-6.13-7.2-12.78-13.88-19.87-19.98-9.01-7.76-18.73-14.6-29.02-20.43z" fill="#fff"/><path d="m471.7 419.42c27.66 95.08-25.9 195.08-120.7 224.57-.21.069-.41.13-.62.189-9.6 2.95-19.27 5.07-28.91 6.391-16.11 2.22-32.16 2.229-47.79.199-68.62-8.85-129.13-56.659-150.79-127.1-24.09-78.4 7.38-160.63 71.97-204.3l.01.03c-5.03 6.34-15.85 29.16-8.55 36.16 8.84 8.49 17.34-.87 22.41 13.75 1.39 3.99-2.07 8.37.92 11.68 3.39 3.72 14.51 2.39 18.95 1.68 21.1-3.41 27.99-9.05 47.41 4.94 3.77 2.72 7.53 5.55 11.38 7.84l6.76 41.149c-21.94-10.38-49.81 6.53-70.4 21.521-14.86 10.82-54.92-9.32-60.43 35.01-1.92 15.41 16.9 33.771 27.46 40.98 17.43 11.89 28.99 3.939 47.26 8.38 21.69 5.27 25.93 22.21 36.45 39.21 7.06 11.41 24.57 31.05 38.2 16.5 14.96-15.98-4.78-44.97-5.17-62.86-.39-18.39 8.81-26.72 15.61-41.93 6.32-14.17-.38-28.061-10.03-39.87zm-42.04 125.13c8.71-13.5 31.28-67.22 3.27-60.62-11.09 2.62-23.6 7.32-33.42 25.84-9.24 17.44-29.69 24.961-14.6 36.511 12.52 9.579 35.54 12.559 44.75-1.731z" fill="#a3d9ff"/><path d="m471.7 419.42-158.6 34.12c-2.88-3.54-6.03-6.89-9.17-10-3.08-3.05-6.36-5.33-9.78-6.94l-6.76-41.149c7.7 4.59 15.73 7 24.9 1.84l5.48 33.26 146.13-32.83c2.649 6.13 4.989 12.46 7 18.99.28.899.55 1.809.8 2.709z" fill="#a3d9ff"/><path d="m463.9 397.72-146.13 32.83-5.48-33.26c.63-.34 1.25-.73 1.89-1.15 14.38-9.56 16.9-19.8 30.23-22.21 3.59-.65 7.97-.73 13.58-.08 14.01 1.64 31.97.19 35.24-14.19l42.44-7.36c6.29 7.4 12.021 15.35 17.12 23.81 4.14 6.87 7.86 14.08 11.11 21.61z" fill="#a3d9ff"/><path d="m432.93 483.93c28.011-6.6 5.44 47.12-3.27 60.62-9.21 14.29-32.23 11.311-44.75 1.73-15.09-11.55 5.36-19.07 14.6-36.511 9.82-18.519 22.33-23.219 33.42-25.839z" fill="#33a02c"/><path d="m435.67 352.3-42.44 7.36c.57-2.43.7-5.23.33-8.45-.54-4.61-3.29-9.42-6.02-14.27l28.26-4.62c7.09 6.1 13.74 12.78 19.87 19.98z" fill="#a3d9ff"/><path d="m415.8 332.32-28.26 4.62c-4.3-7.62-8.55-15.36-4.11-22.61l.66-2.13 2.69-.31c10.29 5.83 20.01 12.67 29.02 20.43z" fill="#a3d9ff"/><path d="m393.56 351.21c.37 3.22.24 6.02-.33 8.45l-49.8 8.65.98 5.62c-13.33 2.41-15.85 12.65-30.23 22.21-.64.42-1.26.81-1.89 1.15l-17.99-109.17c9.63-.14 19.18.49 28.57 1.85 21.76 3.15 42.66 10.22 61.7 20.68l-.48 1.55-.66 2.13c-4.44 7.25-.19 14.99 4.11 22.61 2.73 4.85 5.48 9.66 6.02 14.27z" fill="#fff"/><path d="m343.43 368.31 49.8-8.65c-3.27 14.38-21.23 15.83-35.24 14.19-5.61-.65-9.99-.57-13.58.08z" fill="#fff"/><path d="m386.78 311.89-2.69.31.48-1.55c.74.41 1.48.82 2.21 1.24z" fill="#a3d9ff"/><path d="m373.26 754.59v21.42h-75.53-75.77v-21.42s32.94 0 42.24-23.06c4.96-12.32 7.15-33.16 8.11-49.91 16.57 2.01 33.54 2.06 50.6.01.96 16.75 3.14 37.59 8.11 49.9 9.29 23.06 42.24 23.06 42.24 23.06z" fill="#ffa500"/><path d="m351 644 9.13 29.71c-12.36 3.81-24.82 6.42-37.22 7.92-.84-14.62-.75-26.12-.75-26.12l-.69-4.939c9.64-1.32 19.31-3.44 28.91-6.391.21-.06.41-.12.62-.189z" fill="#ffa500"/><path d="m313.1 453.54c9.65 11.81 16.35 25.7 10.03 39.87-6.8 15.21-16 23.54-15.61 41.93.39 17.891 20.13 46.88 5.17 62.86-13.63 14.55-31.14-5.09-38.2-16.5-10.52-17-14.76-33.94-36.45-39.21-18.27-4.44-29.83 3.51-47.26-8.38-10.56-7.21-29.38-25.57-27.46-40.98 5.51-44.33 45.57-24.189 60.43-35.01 20.59-14.99 48.46-31.9 70.4-21.521l3.34 20.301z" fill="#abda4d"/><path d="m322.16 655.51s-.09 11.5.75 26.12c-17.06 2.05-34.03 2-50.6-.01.84-14.62.75-26.11.75-26.11l.62-4.74c15.63 2.03 31.68 2.021 47.79-.199z" fill="#ffa500"/><path d="m313.1 453.54-15.61 3.36-3.34-20.301c3.42 1.61 6.7 3.891 9.78 6.94 3.14 3.111 6.29 6.461 9.17 10.001z" fill="#abda4d"/><path d="m294.3 288.12 17.99 109.17c-9.17 5.16-17.2 2.75-24.9-1.84l-17.3-105.34c8.1-1.22 16.18-1.87 24.21-1.99z" fill="#fff"/><path d="m275.13 171.76 19.17 116.36c-8.03.12-16.11.77-24.21 1.99l-18.93-115.19z" fill="#ff001c"/><path d="m270.09 290.11 17.3 105.34c-3.85-2.29-7.61-5.12-11.38-7.84-19.42-13.99-26.31-8.35-47.41-4.94-4.44.71-15.56 2.04-18.95-1.68-2.99-3.31.47-7.69-.92-11.68-5.07-14.62-13.57-5.26-22.41-13.75-7.3-7 3.52-29.82 8.55-36.16l-.01-.03c14.58-9.85 30.85-17.75 48.56-23.19.21-.06.41-.12.63-.19 8.66-2.63 17.35-4.58 26.04-5.88z" fill="#fff"/><path d="m273.68 650.77-.62 4.74s.09 11.49-.75 26.11c-80.82-9.771-152.3-65.79-177.74-148.61-34.49-112.2 28.51-231.1 140.7-265.58l8.78 28.56c-.22.07-.42.13-.63.19-17.71 5.44-33.98 13.34-48.56 23.19-64.59 43.67-96.06 125.899-71.97 204.3 21.66 70.44 82.17 118.25 150.79 127.1z" fill="#ffa500"/><g fill="none"><path d="m294.3 288.12-19.17-116.36-2.87-17.43 202.94-16.72 45.52 247.34-56.82 12.77" stroke="#231f20" stroke-width="13.1584"/><path d="m695.51 97.28 42.18 256-202.94 29.09-45.51-247.33 202.94-57.98z" stroke="#231f20" stroke-width="13.1584"/><path d="m477.56 130.07 1.32 6.83 47.56 247 4.39 22.8" stroke="#fff" stroke-dasharray="11.5988" stroke-width="6.5792"/><path d="m530.83 406.7 234.03-32.17-45.1-280.28-24.25 3.03-3.33.42" stroke="#231f20" stroke-width="13.1584"/><path d="m270.09 290.11-18.93-115.19 23.97-3.16 3.59-.47" stroke="#231f20" stroke-width="13.1584"/><path d="m530.83 406.7-59.13 12.72" stroke="#231f20" stroke-width="13.1584"/><path d="m297.74 188.91 168.18-13.42" stroke="#231f20" stroke-width="6.5792"/><path d="m303.85 210.52 162.01-13.41" stroke="#231f20" stroke-width="6.5792"/><path d="m309.94 236.11 161.08-13.4" stroke="#231f20" stroke-width="6.5792"/><path d="m312.49 261.89 163.68-13.41" stroke="#231f20" stroke-width="6.5792"/><path d="m322.87 289.97 158.28-14.25" stroke="#231f20" stroke-width="6.5792"/><path d="m386.78 311.89 101.96-12.08" stroke="#231f20" stroke-width="6.5792"/><path d="m415.8 332.32 76.39-12.5" stroke="#231f20" stroke-width="6.5792"/><path d="m435.67 352.3 56.92-9.88" stroke="#231f20" stroke-width="6.5792"/><path d="m452.79 376.11 46.13-8.12" stroke="#231f20" stroke-width="6.5792"/><path d="m675.33 115.79-163.01 43.48" stroke="#231f20" stroke-width="6.5792"/><path d="m676.79 138.21-157.2 41.43" stroke="#231f20" stroke-width="6.5792"/><path d="m679.59 164.37-156.32 41.11" stroke="#231f20" stroke-width="6.5792"/><path d="m685.78 189.52-158.77 41.97" stroke="#231f20" stroke-width="6.5792"/><path d="m689.52 218.39-158.11 40.45" stroke="#231f20" stroke-width="6.5792"/><path d="m693.42 247.64-161.13 36.44" stroke="#231f20" stroke-width="6.5792"/><path d="m695.75 275.29-160.04 28.8" stroke="#231f20" stroke-width="6.5792"/><path d="m700.74 298.69-157.86 26.85" stroke="#231f20" stroke-width="6.5792"/><path d="m708.38 324.45-162.93 27.3" stroke="#231f20" stroke-width="6.5792"/><path d="m384.57 310.65c.74.41 1.48.82 2.21 1.24 10.29 5.83 20.01 12.67 29.02 20.43 7.09 6.1 13.74 12.78 19.87 19.98 6.29 7.4 12.021 15.35 17.12 23.81 4.14 6.87 7.86 14.08 11.11 21.61 2.649 6.13 4.989 12.46 7 18.99.279.9.55 1.81.8 2.71 27.66 95.08-25.9 195.08-120.7 224.57-.21.069-.41.13-.62.189-9.6 2.95-19.27 5.07-28.91 6.391-16.11 2.22-32.16 2.229-47.79.199-68.62-8.85-129.13-56.659-150.79-127.1-24.09-78.4 7.38-160.63 71.97-204.3 14.58-9.85 30.85-17.75 48.56-23.19.21-.06.41-.12.63-.19 8.66-2.63 17.35-4.58 26.04-5.88 8.1-1.22 16.18-1.87 24.21-1.99 9.63-.14 19.18.49 28.57 1.85 21.76 3.151 42.66 10.221 61.7 20.681z" stroke="#231f20" stroke-width="16.5094"/><path d="m244.05 295.99-8.78-28.56c-112.19 34.48-175.19 153.38-140.7 265.58 25.44 82.82 96.92 138.84 177.74 148.61 16.57 2.01 33.54 2.06 50.6.01 12.4-1.5 24.86-4.11 37.22-7.92l-9.13-29.71" stroke="#231f20" stroke-width="16.5094"/><path d="m322.16 655.51s-.09 11.5.75 26.12c.96 16.75 3.14 37.59 8.11 49.9 9.29 23.06 42.24 23.06 42.24 23.06v21.42h-75.53-75.77v-21.42s32.94 0 42.24-23.06c4.96-12.32 7.15-33.16 8.11-49.91.84-14.62.75-26.11.75-26.11" stroke="#231f20" stroke-width="16.5094"/><path d="m194.87 319.4c-5.03 6.34-15.85 29.16-8.55 36.16 8.84 8.49 17.34-.87 22.41 13.75 1.39 3.99-2.07 8.37.92 11.68 3.39 3.72 14.51 2.39 18.95 1.68 21.1-3.41 27.99-9.05 47.41 4.94 3.77 2.72 7.53 5.55 11.38 7.84 7.7 4.59 15.73 7 24.9 1.84.63-.34 1.25-.73 1.89-1.15 14.38-9.56 16.9-19.8 30.23-22.21 3.59-.65 7.97-.73 13.58-.08 14.01 1.64 31.97.19 35.24-14.19.57-2.43.7-5.23.33-8.45-.54-4.61-3.29-9.42-6.02-14.27-4.3-7.62-8.55-15.36-4.11-22.61" stroke="#231f20" stroke-width="16.5094"/><path d="m294.15 436.6c-21.94-10.38-49.81 6.53-70.4 21.521-14.86 10.82-54.92-9.32-60.43 35.01-1.92 15.41 16.9 33.771 27.46 40.98 17.43 11.89 28.99 3.939 47.26 8.38 21.69 5.27 25.93 22.21 36.45 39.21 7.06 11.41 24.57 31.05 38.2 16.5 14.96-15.98-4.78-44.97-5.17-62.86-.39-18.39 8.81-26.72 15.61-41.93 6.32-14.17-.38-28.061-10.03-39.87-2.88-3.54-6.03-6.89-9.17-10-3.08-3.051-6.36-5.331-9.78-6.941z" stroke="#231f20" stroke-width="16.5094"/><path d="m429.66 544.55c8.71-13.5 31.28-67.22 3.27-60.62-11.09 2.62-23.6 7.32-33.42 25.84-9.24 17.44-29.69 24.961-14.6 36.511 12.52 9.579 35.54 12.559 44.75-1.731z" stroke="#231f20" stroke-width="16.5094"/><path d="m0 0h850.394v850.394h-850.394z"/></g></svg>