<svg enable-background="new 0 0 850.394 850.394" height="850.394" viewBox="0 0 850.394 850.394" width="850.394" xmlns="http://www.w3.org/2000/svg"><path d="m0 0h850.394v850.394h-850.394z" fill="none"/><path d="m230.38 674.4 21.23 36.59h-14.51-119.71-19.45l19.87-33.15 3.07-5.11h11.18 84.09 13.26z" fill="#9c5b16"/><path d="m237.1 711.29v89.04h-119.71v-89.04-.3h119.71z" fill="#9c5b16"/><path d="m433.7 711.29v89.04h-119.71v-89.04-.3h119.71z" fill="#9c5b16"/><path d="m426.98 674.4 21.23 36.59h-14.51-119.71-19.45l19.87-33.15 3.07-5.11h11.17 84.09 13.27z" fill="#9c5b16"/><path d="m153.63 601.27c-12.62 3.771-21.57 13.311-21.57 24.471v46.99h-11.18l-3.07 5.109s0 0 0-30.58c0-43.56 33.47-45.89 35.82-45.99z" fill="#0b00ea"/><path d="m153.63 601.27c3.74-1.13 7.82-1.75 12.08-1.75h16.79c4.07 0 7.98.561 11.6 1.601 12.87 3.68 22.05 13.31 22.05 24.62v46.99h-84.09v-46.99c0-11.161 8.95-20.701 21.57-24.471z" fill="#0b00ea"/><path d="m229.41 672.73h-13.26v-46.99c0-11.311-9.18-20.94-22.05-24.62l.33-1.08s35.95.86 35.95 46v28.36z" fill="#0b00ea"/><path d="m350.23 601.27c-12.63 3.771-21.58 13.311-21.58 24.471v46.99h-11.17l-3.07 5.109s0 0 0-30.58c0-43.56 33.47-45.89 35.82-45.99z" fill="#0b00ea"/><path d="m350.23 601.27c3.74-1.13 7.82-1.75 12.08-1.75h16.79c4.08 0 7.99.561 11.6 1.601 12.87 3.68 22.04 13.32 22.04 24.62v46.99h-84.09v-46.99c0-11.161 8.95-20.701 21.58-24.471z" fill="#0b00ea"/><path d="m426.98 646.04v28.36l-.971-1.67h-13.27v-46.99c0-11.3-9.17-20.94-22.04-24.62l.33-1.08c.001 0 35.951.86 35.951 46z" fill="#0b00ea"/><path d="m173.4 524.08c16.57 0 30.02 16.3 30.02 36.39 0 20.11-13.45 36.41-30.02 36.41-16.58 0-30.01-16.3-30.01-36.41 0-20.09 13.43-36.39 30.01-36.39z" fill="#ffeec8"/><path d="m370 524.08c16.57 0 30.01 16.3 30.01 36.39 0 20.11-13.44 36.41-30.01 36.41-16.58 0-30.01-16.3-30.01-36.41 0-20.09 13.43-36.39 30.01-36.39z" fill="#ffeec8"/><path d="m737.28 87.57 27.58 171.43-143.13 19.67-2.69-13.94 5.08-.94 124.12-17.79-25.79-156.57z" fill="#ff001c"/><path d="m722.45 89.43 25.79 156.57-124.12 17.79-27.83-151.27 124.12-35.46z" fill="#fff"/><path d="m585.07 284.79c-1.23-3.99-2.66-7.86-4.28-11.61l34.75-7.81 3.5-.64 2.69 13.94-36.171 7.78c-.149-.55-.319-1.11-.489-1.66z" fill="#ff001c"/><path d="m561.85 325.91c17.131-4.04 3.33 28.82-2 37.07-5.63 8.74-19.71 6.92-27.369 1.06-9.23-7.06 3.279-11.66 8.93-22.33 5.999-11.33 13.659-14.2 20.439-15.8z" fill="#33a02c"/><path d="m551.37 233.18c4.34 3.73 8.41 7.82 12.149 12.22l-25.949 4.5c.35-1.48.43-3.2.199-5.17-.329-2.82-2.01-5.76-3.68-8.72z" fill="#a3d9ff"/><path d="m533.62 220.68c6.3 3.57 12.24 7.75 17.75 12.5l-17.28 2.83c-2.63-4.67-5.229-9.4-2.52-13.83l.41-1.31z" fill="#a3d9ff"/><path d="m533.62 220.68-1.64.19.289-.94c.451.25.911.5 1.351.75z" fill="#a3d9ff"/><path d="m499.52 477.34c5.681 14.101 25.83 14.101 25.83 14.101v13.1h-46.19-46.34v-13.1s20.14 0 25.83-14.101c3.04-7.53 4.369-20.28 4.96-30.53 10.14 1.23 20.51 1.271 30.949.011.591 10.249 1.921 22.989 4.961 30.519z" fill="#ffa500"/><path d="m563.52 245.4c3.851 4.53 7.36 9.39 10.48 14.56 2.53 4.2 4.8 8.61 6.79 13.22l-89.37 20.08-3.36-20.34c.391-.21.771-.45 1.16-.71 8.79-5.84 10.34-12.11 18.49-13.58 2.19-.4 4.87-.45 8.3-.05 8.57 1 19.561.12 21.561-8.68z" fill="#a3d9ff"/><path d="m511.74 423.8v.01l5.58 18.17c-7.561 2.329-15.181 3.92-22.761 4.84-.51-8.94-.46-15.971-.46-15.971l-.42-3.029c5.891-.801 11.811-2.1 17.681-3.9.13-.04.25-.08.38-.12z" fill="#ffa500"/><path d="m516.01 258.58c-3.43-.4-6.109-.35-8.3.05l-.6-3.44 30.46-5.29c-2 8.8-12.99 9.68-21.56 8.68z" fill="#fff"/><path d="m574 259.96c-3.12-5.17-6.63-10.03-10.48-14.56-3.739-4.4-7.81-8.49-12.149-12.22-5.51-4.75-11.45-8.93-17.75-12.5-.44-.25-.9-.5-1.351-.75-11.64-6.4-24.43-10.73-37.729-12.65-5.75-.83-11.59-1.22-17.48-1.13l-11.72-71.17-1.76-10.66 124.12-10.23 27.84 151.28-34.75 7.81c-1.991-4.61-4.261-9.02-6.791-13.22z" fill="#fff"/><path d="m537.77 244.73c.23 1.97.15 3.69-.199 5.17l-30.46 5.29.6 3.44c-8.15 1.47-9.7 7.74-18.49 13.58-.39.26-.77.5-1.16.71l-11-66.77c5.891-.09 11.73.3 17.48 1.13 13.3 1.92 26.09 6.25 37.729 12.65l-.289.94-.41 1.31c-2.71 4.43-.11 9.16 2.52 13.83 1.669 2.96 3.349 5.9 3.679 8.72z" fill="#fff"/><path d="m482.95 301.2c1.92 1.9 3.85 3.95 5.609 6.12l-9.55 2.05-2.04-12.41c2.091.98 4.101 2.38 5.981 4.24z" fill="#abda4d"/><path d="m465.34 134.98 11.72 71.17c-4.909.07-9.85.47-14.81 1.21l-11.57-70.45z" fill="#ff001c"/><path d="m580.79 273.18c1.62 3.75 3.05 7.62 4.28 11.61.17.55.34 1.11.489 1.66l-97 20.87c-1.76-2.17-3.689-4.22-5.609-6.12-1.88-1.86-3.891-3.26-5.98-4.24l-4.14-25.17c4.71 2.81 9.63 4.28 15.229 1.13l3.36 20.34z" fill="#a3d9ff"/><path d="m488.56 307.32c5.9 7.22 10 15.72 6.131 24.38-4.15 9.31-9.78 14.4-9.54 25.65.229 10.94 12.31 28.67 3.159 38.44-8.34 8.9-19.05-3.11-23.359-10.09-6.44-10.39-9.03-20.76-22.3-23.98-11.17-2.71-18.24 2.15-28.9-5.12-6.46-4.41-17.97-15.64-16.8-25.07 3.37-27.11 27.87-14.79 36.96-21.41 12.59-9.17 29.64-19.51 43.06-13.16l2.04 12.41z" fill="#abda4d"/><path d="m494.1 430.85s-.05 7.03.46 15.971c-10.439 1.26-20.81 1.22-30.949-.011.52-8.939.46-15.96.46-15.96l.38-2.899c9.56 1.24 19.38 1.229 29.229-.13z" fill="#ffa500"/><path d="m462.25 207.36c4.96-.74 9.9-1.14 14.81-1.21l11 66.77c-5.6 3.15-10.52 1.68-15.229-1.13z" fill="#fff"/><path d="m446.33 210.96c5.29-1.61 10.61-2.8 15.92-3.6l10.58 64.43c-2.35-1.4-4.65-3.13-6.95-4.79-11.88-8.56-16.1-5.11-29-3.03-2.72.44-9.52 1.25-11.59-1.02-1.83-2.03.29-4.71-.56-7.15-3.11-8.94-8.3-3.21-13.71-8.41-4.47-4.28 2.15-18.23 5.23-22.11l-.01-.02c8.92-6.03 18.87-10.86 29.7-14.18.13-.04.25-.08.39-.12z" fill="#fff"/><path d="m532.48 364.04c7.659 5.86 21.739 7.68 27.369-1.06 5.33-8.25 19.131-41.11 2-37.07-6.779 1.6-14.439 4.47-20.439 15.8-5.65 10.67-18.16 15.27-8.93 22.33zm53.08-77.59c16.921 58.15-15.84 119.31-73.819 137.35-.13.04-.25.08-.38.12-5.87 1.8-11.79 3.1-17.681 3.9-9.85 1.359-19.67 1.37-29.229.13-41.97-5.42-78.98-34.66-92.22-77.74-14.74-47.95 4.51-98.24 44.01-124.95l.01.02c-3.08 3.88-9.7 17.83-5.23 22.11 5.41 5.2 10.6-.53 13.71 8.41.85 2.44-1.27 5.12.56 7.15 2.07 2.27 8.87 1.46 11.59 1.02 12.9-2.08 17.12-5.53 29 3.03 2.3 1.66 4.601 3.39 6.95 4.79l4.14 25.17c-13.42-6.35-30.47 3.99-43.06 13.16-9.09 6.62-33.59-5.7-36.96 21.41-1.17 9.43 10.34 20.66 16.8 25.07 10.66 7.27 17.73 2.41 28.9 5.12 13.27 3.22 15.859 13.59 22.3 23.98 4.31 6.98 15.02 18.99 23.359 10.09 9.15-9.77-2.93-27.5-3.159-38.44-.24-11.25 5.39-16.34 9.54-25.65 3.869-8.66-.23-17.16-6.131-24.38z" fill="#a3d9ff"/><path d="m416.24 225.26c-39.5 26.71-58.75 77-44.01 124.95 13.24 43.08 50.25 72.32 92.22 77.74l-.38 2.899s.06 7.021-.46 15.96c-49.43-5.97-93.15-40.229-108.71-90.89-21.09-68.62 17.44-141.34 86.06-162.43l5.37 17.47c-.14.04-.26.08-.39.12-10.83 3.321-20.78 8.151-29.7 14.181z" fill="#ffa500"/><g fill="none"><path d="m477.06 206.15-11.72-71.17-1.76-10.66 124.12-10.23 27.84 151.28-34.75 7.81" stroke="#231f20" stroke-width="8.0478"/><path d="m722.45 89.43 25.79 156.57-124.12 17.79-27.83-151.27 124.12-35.46z" stroke="#231f20" stroke-width="8.0478"/><path d="m589.14 109.48.81 4.18 29.09 151.07 2.69 13.94" stroke="#fff" stroke-dasharray="7.0939" stroke-width="4.0239"/><path d="m621.73 278.67 143.13-19.67-27.58-171.43-14.83 1.86-2.04.25" stroke="#231f20" stroke-width="8.0478"/><path d="m462.25 207.36-11.57-70.45 14.66-1.93 2.19-.29" stroke="#231f20" stroke-width="8.0478"/><path d="m621.73 278.67-36.17 7.78" stroke="#231f20" stroke-width="8.0478"/><path d="m479.17 145.47 102.86-8.21" stroke="#231f20" stroke-width="4.0239"/><path d="m482.9 158.69 99.09-8.21" stroke="#231f20" stroke-width="4.0239"/><path d="m486.63 174.34 98.51-8.2" stroke="#231f20" stroke-width="4.0239"/><path d="m488.19 190.1 100.1-8.2" stroke="#231f20" stroke-width="4.0239"/><path d="m494.54 207.28 96.8-8.72" stroke="#231f20" stroke-width="4.0239"/><path d="m533.62 220.68 62.36-7.38" stroke="#231f20" stroke-width="4.0239"/><path d="m551.37 233.18 46.72-7.65" stroke="#231f20" stroke-width="4.0239"/><path d="m563.52 245.4 34.82-6.04" stroke="#231f20" stroke-width="4.0239"/><path d="m574 259.96 28.21-4.96" stroke="#231f20" stroke-width="4.0239"/><path d="m710.1 100.75-99.7 26.59" stroke="#231f20" stroke-width="4.0239"/><path d="m711 114.46-96.15 25.34" stroke="#231f20" stroke-width="4.0239"/><path d="m712.71 130.46-95.61 25.14" stroke="#231f20" stroke-width="4.0239"/><path d="m716.49 145.84-97.1 25.67" stroke="#231f20" stroke-width="4.0239"/><path d="m718.78 163.5-96.7 24.74" stroke="#231f20" stroke-width="4.0239"/><path d="m721.17 181.39-98.55 22.29" stroke="#231f20" stroke-width="4.0239"/><path d="m722.59 198.3-97.88 17.61" stroke="#231f20" stroke-width="4.0239"/><path d="m725.64 212.61-96.55 16.42" stroke="#231f20" stroke-width="4.0239"/><path d="m730.32 228.37-99.65 16.69" stroke="#231f20" stroke-width="4.0239"/><path d="m532.27 219.93c.45.25.91.5 1.351.75 6.3 3.57 12.24 7.75 17.75 12.5 4.34 3.73 8.41 7.82 12.149 12.22 3.851 4.53 7.36 9.39 10.48 14.56 2.53 4.2 4.8 8.61 6.79 13.22 1.62 3.75 3.05 7.62 4.28 11.61.17.55.34 1.11.489 1.66 16.921 58.15-15.84 119.31-73.819 137.35-.13.04-.25.08-.38.12-5.87 1.8-11.79 3.1-17.681 3.9-9.85 1.359-19.67 1.37-29.229.13-41.97-5.42-78.98-34.66-92.22-77.74-14.74-47.95 4.51-98.24 44.01-124.95 8.92-6.03 18.87-10.86 29.7-14.18.13-.04.25-.08.39-.12 5.29-1.61 10.61-2.8 15.92-3.6 4.96-.74 9.9-1.14 14.81-1.21 5.891-.09 11.73.3 17.48 1.13 13.3 1.92 26.09 6.25 37.73 12.65z" stroke="#231f20" stroke-width="10.0973"/><path d="m446.33 210.96-5.37-17.47c-68.62 21.09-107.15 93.81-86.06 162.43 15.56 50.66 59.28 84.92 108.71 90.89 10.14 1.23 20.51 1.271 30.949.011 7.58-.92 15.2-2.511 22.761-4.84l-5.58-18.17" stroke="#231f20" stroke-width="10.0973"/><path d="m494.1 430.85s-.05 7.03.46 15.971c.591 10.25 1.921 22.989 4.96 30.52 5.681 14.101 25.83 14.101 25.83 14.101v13.1h-46.19-46.34v-13.1s20.14 0 25.83-14.101c3.04-7.53 4.369-20.28 4.96-30.53.52-8.939.46-15.96.46-15.96" stroke="#231f20" stroke-width="10.0973"/><path d="m416.25 225.28c-3.08 3.88-9.7 17.83-5.23 22.11 5.41 5.2 10.6-.53 13.71 8.41.85 2.44-1.27 5.12.56 7.15 2.07 2.27 8.87 1.46 11.59 1.02 12.9-2.08 17.12-5.53 29 3.03 2.3 1.66 4.601 3.39 6.95 4.79 4.71 2.81 9.63 4.28 15.229 1.13.391-.21.771-.45 1.16-.71 8.79-5.84 10.34-12.11 18.49-13.58 2.19-.4 4.87-.45 8.3-.05 8.57 1 19.561.12 21.561-8.68.35-1.48.43-3.2.199-5.17-.329-2.82-2.01-5.76-3.68-8.72-2.63-4.67-5.229-9.4-2.52-13.83" stroke="#231f20" stroke-width="10.0973"/><path d="m476.97 296.96c-13.42-6.35-30.47 3.99-43.06 13.16-9.09 6.62-33.59-5.7-36.96 21.41-1.17 9.43 10.34 20.66 16.8 25.07 10.66 7.27 17.73 2.41 28.9 5.12 13.27 3.22 15.859 13.59 22.3 23.98 4.31 6.98 15.02 18.99 23.359 10.09 9.15-9.77-2.93-27.5-3.159-38.44-.24-11.25 5.39-16.34 9.54-25.65 3.869-8.66-.23-17.16-6.131-24.38-1.76-2.17-3.689-4.22-5.609-6.12-1.88-1.86-3.89-3.26-5.98-4.24z" stroke="#231f20" stroke-width="10.0973"/><path d="m559.85 362.98c5.33-8.25 19.131-41.11 2-37.07-6.779 1.6-14.439 4.47-20.439 15.8-5.65 10.67-18.16 15.27-8.93 22.33 7.659 5.86 21.739 7.68 27.369-1.06z" stroke="#231f20" stroke-width="10.0973"/><path d="m203.42 560.47c0 20.11-13.45 36.41-30.02 36.41-16.58 0-30.01-16.3-30.01-36.41 0-20.09 13.43-36.39 30.01-36.39 16.57 0 30.02 16.3 30.02 36.39z" stroke="#231f20" stroke-width="14.2534"/><path d="m216.15 672.73v-46.99c0-11.311-9.18-20.94-22.05-24.62-3.62-1.04-7.53-1.601-11.6-1.601h-16.79c-4.26 0-8.34.62-12.08 1.75-12.62 3.771-21.57 13.311-21.57 24.471v46.99" stroke="#231f20" stroke-width="14.2534"/><path d="m216.15 672.73h13.26l.97 1.67 21.23 36.59h-14.51-119.71-19.45l19.87-33.15 3.07-5.11h11.18z" stroke="#231f20" stroke-width="21.3801"/><path d="m117.39 711.29v89.04h119.71v-89.04" stroke="#231f20" stroke-width="21.3801"/><path d="m153.76 601.26s-.04 0-.13.01c-2.35.101-35.82 2.431-35.82 45.99v30.58" stroke="#231f20" stroke-width="14.2534"/><path d="m194.43 600.04s35.95.86 35.95 46v28.36 2.229" stroke="#231f20" stroke-width="14.2534"/><path d="m400.01 560.47c0 20.11-13.44 36.41-30.01 36.41-16.58 0-30.01-16.3-30.01-36.41 0-20.09 13.43-36.39 30.01-36.39 16.57 0 30.01 16.3 30.01 36.39z" stroke="#231f20" stroke-width="14.2534"/><path d="m412.74 672.73v-46.99c0-11.3-9.17-20.94-22.04-24.62-3.61-1.04-7.52-1.601-11.6-1.601h-16.79c-4.26 0-8.34.62-12.08 1.75-12.63 3.771-21.58 13.311-21.58 24.471v46.99" stroke="#231f20" stroke-width="14.2534"/><path d="m412.74 672.73h13.27l.97 1.67 21.23 36.59h-14.51-119.71-19.45l19.87-33.15 3.07-5.11h11.17z" stroke="#231f20" stroke-width="21.3801"/><path d="m313.99 711.29v89.04h119.71v-89.04" stroke="#231f20" stroke-width="21.3801"/><path d="m350.36 601.26s-.04 0-.13.01c-2.35.101-35.82 2.431-35.82 45.99v30.58" stroke="#231f20" stroke-width="14.2534"/><path d="m391.03 600.04s35.951.86 35.951 46v28.36 2.229" stroke="#231f20" stroke-width="14.2534"/><path d="m0 0h850.394v850.394h-850.394z"/></g></svg>