<svg enable-background="new 0 0 850.394 850.394" height="850.394" viewBox="0 0 850.394 850.394" width="850.394" xmlns="http://www.w3.org/2000/svg"><path d="m647.09 354.81h-43.29-23.6v-2.41-114.18h89.61v114.18 2.41z" fill="#fff"/><path d="m647.09 723.88c0 11.96-9.689 21.65-21.64 21.65-5.97 0-11.391-2.42-15.311-6.34-3.92-3.921-6.34-9.33-6.34-15.311v-369.069h43.29v369.07z" fill="#fff"/><path d="m516.29 361.31-.9 336.56s-1.729 36.36-36.43 51.74c0 0-64.68 26.149-140.3 23.359l1.98.07c-75.62 2.79-140.31-23.36-140.31-23.36-34.7-15.38-36.42-51.739-36.42-51.739l-.89-336.561c0-30.63 7.27-38.67 23.21-47.05 0 0 25.02-19.88 71.28-27.52l-1.33 4.96s15.9 18.68 84.32 18.68h2.08c68.42 0 83.59-18.68 83.59-18.68l-1.18-4.38c46.27 7.64 68.069 26.86 68.069 26.86 15.951 8.381 23.231 16.431 23.231 47.061z" fill="#fff"/><path d="m424.99 287.39 1.18 4.38s-15.17 18.68-83.59 18.68h-2.08c-68.42 0-84.32-18.68-84.32-18.68l1.33-4.96 19.75-73.55h11.48 51.76 7.26 45.53 11.79z" fill="#f73900"/><path d="m340.5 213.26c-25.51 0-42.03 0-51.76 0v-1.2s12.74-68.07 21.29-103.06 53.42-35.74 61.97-.75c8.56 34.99 21.29 103.06 21.29 103.06v1.95c-8.57 0-22.77 0-45.53 0z" fill="#f73900"/><g fill="none"><path d="m424.99 287.39c46.27 7.64 68.069 26.86 68.069 26.86 15.95 8.38 23.23 16.43 23.23 47.06l-.9 336.56s-1.729 36.36-36.43 51.74c0 0-64.68 26.149-140.3 23.359l1.98.07c-75.62 2.79-140.31-23.36-140.31-23.36-34.7-15.38-36.42-51.739-36.42-51.739l-.89-336.561c0-30.63 7.27-38.67 23.21-47.05 0 0 25.02-19.88 71.28-27.52" stroke="#000" stroke-width="19.5797"/><path d="m257.51 286.81-1.33 4.96s15.9 18.68 84.32 18.68h2.08c68.42 0 83.59-18.68 83.59-18.68l-1.18-4.38-19.91-74.13s-2.8 0-11.79 0c-8.57 0-22.77 0-45.53 0h-7.26c-25.51 0-42.03 0-51.76 0-8.07 0-11.48 0-11.48 0z" stroke="#000" stroke-width="19.5797"/><path d="m647.09 354.81v369.07c0 11.96-9.689 21.65-21.64 21.65-5.97 0-11.391-2.42-15.311-6.34-3.92-3.921-6.34-9.33-6.34-15.311v-369.069" stroke="#000" stroke-width="19.5797"/><path d="m393.29 211.31s-12.73-68.07-21.29-103.06c-8.55-34.99-53.42-34.24-61.97.75s-21.29 103.06-21.29 103.06" stroke="#000" stroke-width="19.5797"/><path d="m580.2 352.4v-114.18h89.61v114.18" stroke="#000" stroke-width="19.5797"/><path d="m569.82 354.81h10.38 23.6 43.29 22.72 11.56" stroke="#000" stroke-linecap="round" stroke-linejoin="round" stroke-width="19.5797"/><path d="m0 0h850.394v850.394h-850.394z"/></g></svg>