<svg enable-background="new 0 0 850.394 850.394" height="850.394" viewBox="0 0 850.394 850.394" width="850.394" xmlns="http://www.w3.org/2000/svg"><g fill="none"><g stroke="#231f20"><path d="m364.332 558.062 201.429-51.501" stroke-width="27.9073"/><path d="m74.317 632.204 290.015-74.142" stroke-width="27.9073"/><path d="m214.15 170.146 97.277-18.239 1.012 562.377s2.027 19.247-15.197 14.186c-17.228-5.069-221.913-90.188-221.913-90.188z" stroke-width="27.9073"/><path d="m671.271 136.642 78.599-6.633 20.242 426.88s1.642 15.555-12.277 11.46c-13.927-4.102-198.737-53.443-198.737-53.443z" stroke-width="27.9073"/><path d="m321.129 149.809 438.94-21.282" stroke-width="27.9073"/><path d="m312.234 601.23h-225.915" stroke-width="13.9536"/><path d="m312.234 670.154h-170.101" stroke-width="13.9536"/><path d="m400.776 141.077h262.789" stroke-width="13.9536"/><path d="m103.093 524.615h374.428" stroke-width="13.9536"/><path d="m125.192 447.774h462.793l179.45 52.708" stroke-width="13.9536"/><path d="m149.611 371.149h460.47l152.891 35.187" stroke-width="13.9536"/><path d="m169.376 294.537h455.074l134.441 25.727" stroke-width="13.9536"/><path d="m193.792 217.696h460.474l100.544 16.547" stroke-width="13.9536"/><path d="m571.19 141.077v369.776" stroke-width="13.9536"/><path d="m465.741 141.077v391.054" stroke-width="13.9536"/><path d="m360.128 141.077v418.062" stroke-width="13.9536"/><path d="m233.588 155.031-.003 554.661" stroke-width="13.9536"/><path d="m149.063 379.451v291.548" stroke-width="13.9536"/><path d="m686.54 135.354v401.607" stroke-width="13.9536"/><path d="m614.734 345.732v191.229" stroke-width="13.9536"/></g><path d="m0 0h850.394v850.394h-850.394z"/></g></svg>