<svg enable-background="new 0 0 850.394 850.394" height="850.394" viewBox="0 0 850.394 850.394" width="850.394" xmlns="http://www.w3.org/2000/svg"><path d="m323.81 727.74-.21 1.08s-39.44 12.319-55.85 50.76c-16.99 39.83-35.17 10.32-35.17 10.32s-6.6-2.69 5.67-22.521c12.25-19.82 20.65-40.85 1.05-79.43 17.07 14.1 36.43 25.21 57.84 32.67 8.79 3.061 17.7 5.431 26.67 7.121z" fill="#9e5c26"/><path d="m508.14 150.01c115.43 48.44 165.56 206.85 111.94 360.84-51.33 147.38-179.66 238.88-296.27 216.89-8.97-1.69-17.88-4.061-26.67-7.12-21.41-7.46-40.77-18.57-57.84-32.67-81.02-66.92-110.57-201.23-64.9-332.32 55.27-158.72 199.85-252.64 322.93-209.77 3.66 1.28 7.27 2.66 10.81 4.15z" fill="#abd153"/><g fill="none"><path d="m239.3 687.95c-81.02-66.92-110.57-201.23-64.9-332.32 55.27-158.72 199.85-252.64 322.93-209.77 3.66 1.28 7.27 2.66 10.81 4.15 115.43 48.44 165.56 206.85 111.94 360.84-51.33 147.38-179.66 238.88-296.27 216.89-8.97-1.69-17.88-4.061-26.67-7.12-21.41-7.46-40.77-18.57-57.84-32.67z" stroke="#231f20" stroke-width="21"/><path d="m323.6 728.82s-39.44 12.319-55.85 50.76c-16.99 39.83-35.17 10.32-35.17 10.32s-6.6-2.69 5.67-22.521c12.25-19.82 20.65-40.85 1.05-79.43-.01-.01-.01-.021-.02-.03" stroke="#231f20" stroke-width="21"/><path d="m507.87 150.77s.09-.26.27-.76c3.42-9.21 40.641-99.45 187.79-97.75" stroke="#231f20" stroke-width="28"/><path d="m320 250c0 1.29 0 2.57-.01 3.84-.46 139.7-26.06 190.68-33.99 248.16" stroke="#231f20" stroke-width="7"/><path d="m440 382c0 114.97-132.62 248-168 248" stroke="#231f20" stroke-width="7"/><path d="m520 164c62 276-61.73 446-96 446" stroke="#231f20" stroke-width="7"/><path d="m462 138c-51.87 21.45-101.12 65.13-142.01 115.84-77.39 95.93-124.92 216.98-103.99 260.16" stroke="#231f20" stroke-width="7"/><path d="m534 386c0 223.3-54 238-88 266" stroke="#231f20" stroke-width="7"/><path d="m490 146c0 179.09-80 314-144 346" stroke="#231f20" stroke-width="7"/><path d="m590 224c46 170-6.26 312-14 312" stroke="#231f20" stroke-width="7"/><path d="m302 430c-92 74-66 136-52 146" stroke="#231f20" stroke-width="7"/><path d="m0 0h850.394v850.394h-850.394z"/></g></svg>