<svg enable-background="new 0 0 850.394 850.394" height="850.394" viewBox="0 0 850.394 850.394" width="850.394" xmlns="http://www.w3.org/2000/svg"><path d="m602.096 408.036h119.642v366.332h-119.642z" fill="#9e5c26"/><path d="m481.927 656.542h119.651v119.651h-119.651z" fill="#8c469b"/><path d="m361.631 534.136h119.652v239.293h-119.652z" fill="#a9d7f3"/><path d="m241.335 175.359h119.652v598.239h-119.652z" fill="#ed1d31"/><path d="m121.039 322.035h119.652v452.902h-119.652z" fill="#fbee34"/><g fill="none"><path d="m739.401 776.837h-626.803v-681.675" stroke="#231f20" stroke-width="22.1597"/><path d="m121.039 322.035h119.652v452.902h-119.652z" stroke="#231f20" stroke-width="7.3866"/><path d="m241.335 175.359h119.652v598.239h-119.652z" stroke="#231f20" stroke-width="7.3866"/><path d="m361.631 534.136h119.652v239.293h-119.652z" stroke="#231f20" stroke-width="7.3866"/><path d="m481.927 656.542h119.651v119.651h-119.651z" stroke="#231f20" stroke-width="7.3866"/><path d="m602.096 408.036h119.642v366.332h-119.642z" stroke="#231f20" stroke-width="7.3866"/><path d="m0 0h850.394v850.394h-850.394z"/></g></svg>