<svg enable-background="new 0 0 850.394 850.394" height="850.394" viewBox="0 0 850.394 850.394" width="850.394" xmlns="http://www.w3.org/2000/svg"><path d="m489.63 152.43c0-38.55-.979-50.03-1.41-53.25 33.24-1.82 62.261-.56 73.53 5.82 6.34 23.48 6.66 62.16 6.62 72.1l-79.09-23.48z" fill="#c8c8c8"/><path d="m568.37 177.1 18.8 5.58-1.49 5.01-211.54 38.91-51.62-15.75 1.48-4.85s2.07-22.06 7.37-43.61l5.17 1.03 121.94-18.95 30.8 9.15z" fill="#c8c8c8"/><path d="m488.22 99.18c-58.47 3.2-130.02 15.9-141.04 26.92-7.04 7.04-12.18 21.55-15.81 36.29-5.3 21.55-7.37 43.61-7.37 43.61l-1.48 4.85-62.82-19.16s.81-7.01 2.35-17.24c3.29-21.89 9.93-58.5 19.08-72.47 17.32-26.44 194.53-38.06 208.811-35.56 23.35 4.08 52.64 14.76 62.689 21.4 3.94 2.6 6.9 8.96 9.12 17.18-11.27-6.38-40.29-7.64-73.53-5.82z" fill="#c8c8c8"/><path d="m452.45 668.56-5.15 19.33-7.78-18.489c2 1.04 4.29 1.55 6.69 1.369 2.33-.17 4.46-.97 6.24-2.21z" fill="#c8c8c8"/><path d="m496.53 659.62-5.15 19.3-7.79-18.479c1.99 1.05 4.29 1.56 6.7 1.39 2.33-.181 4.46-.971 6.24-2.211z" fill="#c8c8c8"/><path d="m542.25 650.19-5.14 19.329-7.801-18.51c1.99 1.05 4.29 1.57 6.7 1.391 2.331-.17 4.461-.96 6.241-2.21z" fill="#c8c8c8"/><path d="m587.34 641.09-5.149 19.33-7.78-18.479c1.99 1.029 4.29 1.54 6.689 1.359 2.33-.17 4.46-.96 6.24-2.21z" fill="#c8c8c8"/><path d="m581.12 556.53-5.15 19.33-7.779-18.49c1.989 1.04 4.29 1.55 6.699 1.38 2.32-.18 4.45-.97 6.23-2.22z" fill="#c8c8c8"/><path d="m536.03 565.64-5.13 19.32-7.801-18.51c1.99 1.05 4.29 1.569 6.7 1.39 2.321-.17 4.451-.96 6.231-2.2z" fill="#c8c8c8"/><path d="m490.31 575.05-5.14 19.32-7.79-18.49c1.99 1.04 4.29 1.55 6.7 1.37 2.32-.17 4.45-.96 6.23-2.2z" fill="#c8c8c8"/><path d="m446.24 583.99-5.15 19.33-7.79-18.48c1.99 1.03 4.29 1.54 6.69 1.36 2.33-.17 4.46-.96 6.25-2.21z" fill="#c8c8c8"/><path d="m574.86 471.48-5.141 19.31-7.79-18.49c1.99 1.04 4.29 1.561 6.7 1.38 2.321-.17 4.451-.96 6.231-2.2z" fill="#c8c8c8"/><path d="m529.8 480.55-5.149 19.34-7.801-18.5c2 1.04 4.301 1.551 6.71 1.38 2.33-.18 4.46-.98 6.24-2.22z" fill="#c8c8c8"/><path d="m484.07 489.97-5.15 19.34-7.8-18.5c2 1.04 4.3 1.561 6.7 1.381 2.33-.171 4.46-.971 6.25-2.221z" fill="#c8c8c8"/><path d="m439.98 498.95-5.15 19.3-7.78-18.47c1.99 1.04 4.29 1.55 6.69 1.38 2.33-.17 4.46-.97 6.24-2.21z" fill="#c8c8c8"/><path d="m568.8 388.93-5.14 19.29-7.79-18.47c1.99 1.04 4.29 1.56 6.7 1.38 2.32-.17 4.45-.96 6.23-2.2z" fill="#c8c8c8"/><path d="m523.73 397.99-5.15 19.33-7.79-18.49c1.99 1.05 4.29 1.56 6.69 1.38 2.33-.17 4.46-.97 6.25-2.22z" fill="#c8c8c8"/><path d="m477.98 407.42-5.141 19.32-7.8-18.51c2 1.05 4.3 1.57 6.71 1.39 2.321-.17 4.451-.96 6.231-2.2z" fill="#c8c8c8"/><path d="m433.91 416.37-5.141 19.34-7.79-18.48c1.99 1.03 4.29 1.54 6.69 1.36 2.331-.18 4.461-.97 6.241-2.22z" fill="#c8c8c8"/><path d="m562.45 300.11-5.16 19.33-7.79-18.49c2 1.04 4.3 1.56 6.7 1.38 2.33-.17 4.46-.97 6.25-2.22z" fill="#c8c8c8"/><path d="m517.36 309.22-5.15 19.32-7.78-18.5c1.99 1.05 4.29 1.56 6.69 1.38 2.33-.17 4.46-.96 6.24-2.2z" fill="#c8c8c8"/><path d="m471.63 318.63-5.149 19.32-7.78-18.49c1.99 1.04 4.29 1.56 6.7 1.38 2.319-.17 4.449-.96 6.229-2.21z" fill="#c8c8c8"/><path d="m427.55 327.59-5.14 19.32-7.8-18.5c2 1.05 4.3 1.57 6.71 1.39 2.32-.17 4.45-.96 6.23-2.21z" fill="#c8c8c8"/><path d="m362.28 760.1-.3 13.6-201.82-102.13 70.51-488.74 29.03 8.86 62.82 19.16 51.62 15.75z" fill="#c8c8c8"/><path d="m585.68 187.69 102.83 525.06-322.53 66.95-3.7-19.601 11.86-533.5zm1.66 453.4c3.521-2.439 5.69-6.62 5.36-11.21-.521-6.92-6.54-12.09-13.44-11.59-6.91.5-12.1 6.51-11.59 13.42.32 4.51 2.99 8.29 6.74 10.23l7.78 18.479zm-6.22-84.56c3.52-2.44 5.7-6.63 5.37-11.21-.521-6.931-6.54-12.101-13.44-11.601-6.92.511-12.1 6.521-11.59 13.431.33 4.51 2.99 8.279 6.73 10.22l7.779 18.49zm-6.26-85.05c3.529-2.45 5.699-6.641 5.37-11.23-.511-6.92-6.53-12.09-13.431-11.59-6.91.5-12.109 6.51-11.6 13.42.33 4.51 3 8.28 6.729 10.22l7.79 18.49zm-6.06-82.55c3.521-2.45 5.7-6.65 5.36-11.24-.5-6.91-6.54-12.1-13.43-11.59-6.921.51-12.101 6.52-11.601 13.44.33 4.49 3.01 8.27 6.74 10.21l7.79 18.47zm-6.35-88.82c3.52-2.44 5.689-6.63 5.35-11.21-.51-6.91-6.52-12.1-13.43-11.59s-12.101 6.52-11.59 13.43c.33 4.5 3 8.27 6.72 10.21l7.79 18.49zm-20.2 350.08c3.52-2.44 5.7-6.631 5.36-11.221-.5-6.91-6.53-12.09-13.431-11.58-6.91.511-12.09 6.511-11.59 13.41.33 4.5 3 8.271 6.72 10.21l7.801 18.51zm-6.22-84.55c3.529-2.449 5.71-6.649 5.37-11.239-.511-6.9-6.521-12.091-13.431-11.58-6.91.5-12.1 6.52-11.59 13.43.33 4.49 2.99 8.26 6.72 10.2l7.801 18.51zm-6.23-85.09c3.521-2.45 5.69-6.63 5.351-11.21-.5-6.91-6.53-12.1-13.44-11.59-6.9.51-12.1 6.51-11.59 13.44.33 4.5 3 8.26 6.729 10.199l7.801 18.5zm-6.07-82.56c3.52-2.44 5.689-6.63 5.35-11.21-.51-6.91-6.53-12.1-13.44-11.59-6.909.51-12.1 6.52-11.59 13.43.33 4.51 3 8.28 6.74 10.21l7.79 18.49zm-6.37-88.77c3.529-2.45 5.71-6.64 5.359-11.23-.5-6.91-6.52-12.1-13.43-11.59-6.92.51-12.1 6.52-11.59 13.43.33 4.51 3 8.28 6.729 10.21l7.78 18.5zm-20.83 350.4c3.52-2.46 5.689-6.65 5.35-11.24-.5-6.91-6.52-12.1-13.43-11.58-6.91.5-12.101 6.51-11.59 13.431.33 4.5 3 8.27 6.729 10.21l7.79 18.479zm-6.22-84.57c3.521-2.439 5.7-6.64 5.36-11.24-.51-6.89-6.53-12.09-13.42-11.579-6.92.51-12.11 6.52-11.6 13.43.33 4.5 3 8.28 6.729 10.22l7.79 18.49zm-6.24-85.08c3.51-2.45 5.68-6.64 5.35-11.21-.51-6.91-6.53-12.12-13.439-11.6-6.91.5-12.091 6.52-11.591 13.43.33 4.5 3 8.28 6.73 10.22l7.8 18.5zm-6.09-82.55c3.529-2.44 5.71-6.63 5.369-11.23-.51-6.91-6.529-12.1-13.439-11.59s-12.09 6.53-11.59 13.44c.33 4.49 2.989 8.26 6.72 10.19l7.8 18.51zm-6.35-88.79c3.521-2.44 5.7-6.63 5.37-11.22-.53-6.91-6.53-12.1-13.44-11.59-6.909.5-12.1 6.52-11.6 13.43.34 4.51 3.01 8.27 6.74 10.21l7.78 18.49zm-19.18 349.93c3.51-2.449 5.68-6.63 5.35-11.21-.5-6.909-6.52-12.109-13.43-11.6-6.91.5-12.101 6.52-11.601 13.44.341 4.51 3.011 8.279 6.75 10.21l7.78 18.489zm-6.21-84.57c3.51-2.45 5.68-6.63 5.35-11.221-.52-6.909-6.53-12.09-13.439-11.59-6.9.521-12.091 6.54-11.58 13.44.33 4.51 2.989 8.29 6.729 10.22l7.79 18.48zm-6.26-85.04c3.52-2.46 5.689-6.65 5.35-11.24-.51-6.9-6.51-12.09-13.43-11.58-6.9.5-12.101 6.521-11.59 13.43.33 4.49 3.01 8.271 6.74 10.221l7.78 18.47zm-6.07-82.58c3.52-2.44 5.689-6.63 5.35-11.21-.5-6.92-6.52-12.1-13.43-11.6-6.9.51-12.09 6.52-11.59 13.44.34 4.49 3.01 8.28 6.74 10.23l7.79 18.48zm-6.36-88.78c3.521-2.44 5.7-6.63 5.36-11.22-.51-6.91-6.521-12.1-13.42-11.59-6.92.5-12.1 6.52-11.6 13.43.33 4.5 2.99 8.27 6.72 10.2l7.8 18.5z" fill="#c8c8c8"/><path d="m587.34 641.09c-1.78 1.25-3.91 2.04-6.24 2.21-2.399.181-4.699-.33-6.689-1.359-3.75-1.94-6.42-5.721-6.74-10.23-.51-6.91 4.68-12.92 11.59-13.42 6.9-.5 12.92 4.67 13.44 11.59.329 4.589-1.841 8.769-5.361 11.209z" fill="#231f20"/><path d="m581.12 556.53c-1.78 1.25-3.91 2.04-6.23 2.22-2.409.17-4.71-.34-6.699-1.38-3.74-1.94-6.4-5.71-6.73-10.22-.51-6.91 4.67-12.92 11.59-13.431 6.9-.5 12.92 4.67 13.44 11.601.329 4.58-1.851 8.77-5.371 11.21z" fill="#231f20"/><path d="m574.86 471.48c-1.78 1.239-3.91 2.029-6.23 2.199-2.41.181-4.71-.34-6.7-1.38-3.729-1.939-6.399-5.71-6.729-10.22-.51-6.91 4.689-12.92 11.6-13.42 6.9-.5 12.92 4.67 13.431 11.59.328 4.591-1.842 8.781-5.372 11.231z" fill="#231f20"/><path d="m568.8 388.93c-1.78 1.24-3.91 2.03-6.229 2.2-2.41.18-4.71-.34-6.7-1.38-3.73-1.94-6.41-5.72-6.74-10.21-.5-6.92 4.68-12.93 11.601-13.44 6.89-.51 12.93 4.68 13.43 11.59.338 4.59-1.842 8.79-5.362 11.24z" fill="#231f20"/><path d="m562.45 300.11c-1.79 1.25-3.92 2.05-6.25 2.22-2.4.18-4.7-.34-6.7-1.38-3.72-1.94-6.39-5.71-6.72-10.21-.511-6.91 4.68-12.92 11.59-13.43s12.92 4.68 13.43 11.59c.34 4.58-1.83 8.77-5.35 11.21z" fill="#231f20"/><path d="m542.25 650.19c-1.78 1.25-3.91 2.04-6.24 2.21-2.41.18-4.71-.341-6.7-1.391-3.72-1.939-6.39-5.71-6.72-10.21-.5-6.899 4.68-12.899 11.59-13.41 6.9-.51 12.931 4.67 13.431 11.58.339 4.591-1.841 8.781-5.361 11.221z" fill="#231f20"/><path d="m536.03 565.64c-1.78 1.24-3.91 2.03-6.23 2.2-2.41.18-4.71-.34-6.7-1.39-3.729-1.94-6.39-5.71-6.72-10.2-.51-6.91 4.68-12.93 11.59-13.43 6.91-.511 12.92 4.68 13.431 11.58.339 4.59-1.841 8.79-5.371 11.24z" fill="#231f20"/><path d="m529.8 480.55c-1.78 1.24-3.91 2.04-6.24 2.22-2.409.171-4.71-.34-6.71-1.38-3.729-1.939-6.399-5.699-6.729-10.199-.51-6.931 4.689-12.931 11.59-13.44 6.91-.51 12.94 4.68 13.44 11.59.339 4.579-1.831 8.759-5.351 11.209z" fill="#231f20"/><path d="m510.79 398.83c-3.74-1.93-6.41-5.7-6.74-10.21-.51-6.91 4.681-12.92 11.59-13.43 6.91-.51 12.931 4.68 13.44 11.59.34 4.58-1.83 8.77-5.35 11.21-1.79 1.25-3.921 2.05-6.25 2.22-2.4.18-4.7-.33-6.69-1.38z" fill="#231f20"/><path d="m504.43 310.04c-3.729-1.93-6.399-5.7-6.729-10.21-.51-6.91 4.67-12.92 11.59-13.43 6.91-.51 12.93 4.68 13.43 11.59.351 4.59-1.83 8.78-5.359 11.23-1.78 1.24-3.91 2.03-6.24 2.2-2.402.18-4.702-.33-6.692-1.38z" fill="#231f20"/><path d="m496.53 659.62c-1.78 1.24-3.91 2.03-6.24 2.21-2.41.17-4.71-.34-6.7-1.39-3.729-1.94-6.399-5.71-6.729-10.21-.511-6.921 4.68-12.931 11.59-13.431 6.91-.52 12.93 4.67 13.43 11.58.339 4.591-1.831 8.781-5.351 11.241z" fill="#231f20"/><path d="m490.31 575.05c-1.779 1.24-3.909 2.03-6.229 2.2-2.41.18-4.71-.33-6.7-1.37-3.729-1.939-6.399-5.72-6.729-10.22-.511-6.91 4.68-12.92 11.6-13.43 6.89-.511 12.91 4.689 13.42 11.579.338 4.601-1.842 8.801-5.362 11.241z" fill="#231f20"/><path d="m484.07 489.97c-1.79 1.25-3.92 2.05-6.25 2.221-2.4.18-4.7-.341-6.7-1.381-3.73-1.939-6.4-5.72-6.73-10.22-.5-6.91 4.681-12.93 11.591-13.43 6.909-.521 12.93 4.689 13.439 11.6.33 4.57-1.84 8.76-5.35 11.21z" fill="#231f20"/><path d="m477.98 407.42c-1.78 1.24-3.91 2.03-6.23 2.2-2.41.18-4.71-.34-6.71-1.39-3.73-1.93-6.39-5.7-6.72-10.19-.5-6.91 4.68-12.93 11.59-13.44s12.93 4.68 13.439 11.59c.341 4.6-1.839 8.79-5.369 11.23z" fill="#231f20"/><path d="m471.63 318.63c-1.78 1.25-3.91 2.04-6.229 2.21-2.41.18-4.71-.34-6.7-1.38-3.73-1.94-6.4-5.7-6.74-10.21-.5-6.91 4.69-12.93 11.6-13.43 6.91-.51 12.91 4.68 13.44 11.59.329 4.59-1.851 8.78-5.371 11.22z" fill="#231f20"/><path d="m452.45 668.56c-1.78 1.24-3.91 2.04-6.24 2.21-2.4.181-4.69-.329-6.69-1.369-3.739-1.931-6.409-5.7-6.75-10.21-.5-6.921 4.69-12.94 11.601-13.44 6.91-.51 12.93 4.69 13.43 11.6.329 4.579-1.841 8.759-5.351 11.209z" fill="#231f20"/><path d="m446.24 583.99c-1.79 1.25-3.92 2.04-6.25 2.21-2.4.18-4.7-.33-6.69-1.36-3.74-1.93-6.399-5.71-6.729-10.22-.511-6.9 4.68-12.92 11.58-13.44 6.909-.5 12.92 4.681 13.439 11.59.33 4.59-1.84 8.77-5.35 11.22z" fill="#231f20"/><path d="m439.98 498.95c-1.78 1.24-3.91 2.04-6.24 2.21-2.4.17-4.7-.34-6.69-1.38-3.73-1.95-6.41-5.73-6.74-10.221-.51-6.909 4.69-12.93 11.59-13.43 6.92-.51 12.92 4.68 13.43 11.58.34 4.591-1.83 8.781-5.35 11.241z" fill="#231f20"/><path d="m433.91 416.37c-1.78 1.25-3.91 2.04-6.24 2.22-2.4.18-4.7-.33-6.69-1.36-3.73-1.95-6.4-5.74-6.74-10.23-.5-6.92 4.69-12.93 11.59-13.44 6.91-.5 12.93 4.68 13.43 11.6.34 4.58-1.83 8.77-5.35 11.21z" fill="#231f20"/><path d="m427.55 327.59c-1.78 1.25-3.91 2.04-6.23 2.21-2.41.18-4.71-.34-6.71-1.39-3.73-1.93-6.39-5.7-6.72-10.2-.5-6.91 4.68-12.93 11.6-13.43 6.899-.51 12.91 4.68 13.42 11.59.34 4.59-1.84 8.78-5.36 11.22z" fill="#231f20"/><g fill="none"><path d="m410.79 319.34 3.82 9.07 7.8 18.5 5.14-19.32 2.83-10.62" stroke="#231f20" stroke-width="7.2947"/><path d="m454.88 310.38 3.82 9.08 7.78 18.49 5.15-19.32 2.83-10.62" stroke="#231f20" stroke-width="7.2947"/><path d="m500.61 300.96 3.82 9.08 7.78 18.5 5.15-19.32 2.83-10.62" stroke="#231f20" stroke-width="7.2947"/><path d="m545.68 291.87 3.82 9.08 7.79 18.49 5.16-19.33 2.83-10.6" stroke="#231f20" stroke-width="7.2947"/><path d="m417.15 408.13 3.83 9.1 7.79 18.48 5.14-19.34 2.83-10.62" stroke="#231f20" stroke-width="7.2947"/><path d="m461.22 399.17 3.82 9.06 7.8 18.51 5.14-19.32 2.83-10.62" stroke="#231f20" stroke-width="7.2947"/><path d="m506.96 389.75 3.83 9.08 7.79 18.49 5.15-19.33 2.82-10.6" stroke="#231f20" stroke-width="7.2947"/><path d="m552.04 380.66 3.83 9.09 7.79 18.47 5.14-19.29 2.83-10.64" stroke="#231f20" stroke-width="7.2947"/><path d="m423.22 490.68 3.83 9.1 7.78 18.47 5.15-19.3 2.83-10.63" stroke="#231f20" stroke-width="7.2947"/><path d="m467.29 481.72 3.83 9.09 7.8 18.5 5.15-19.34 2.82-10.61" stroke="#231f20" stroke-width="7.2947"/><path d="m513.03 472.31 3.82 9.08 7.8 18.5 5.15-19.34 2.82-10.61" stroke="#231f20" stroke-width="7.2947"/><path d="m558.11 463.23 3.82 9.07 7.79 18.49 5.14-19.31 2.83-10.63" stroke="#231f20" stroke-width="7.2947"/><path d="m429.47 575.75 3.83 9.09 7.79 18.48 5.15-19.33 2.82-10.6" stroke="#231f20" stroke-width="7.2947"/><path d="m473.55 566.8 3.83 9.08 7.79 18.49 5.14-19.32 2.83-10.61" stroke="#231f20" stroke-width="7.2947"/><path d="m519.28 557.38 3.82 9.07 7.8 18.51 5.13-19.32 2.83-10.63" stroke="#231f20" stroke-width="7.2947"/><path d="m564.37 548.29 3.82 9.08 7.78 18.49 5.15-19.33 2.83-10.61" stroke="#231f20" stroke-width="7.2947"/><path d="m435.7 660.31 3.82 9.09 7.78 18.49 5.15-19.33 2.82-10.62" stroke="#231f20" stroke-width="7.2947"/><path d="m479.76 651.35 3.83 9.09 7.79 18.48 5.15-19.3 2.83-10.62" stroke="#231f20" stroke-width="7.2947"/><path d="m525.49 641.95 3.82 9.06 7.8 18.51 5.14-19.33 2.83-10.62" stroke="#231f20" stroke-width="7.2947"/><path d="m570.58 632.85 3.83 9.09 7.78 18.48 5.15-19.33 2.82-10.6" stroke="#231f20" stroke-width="7.2947"/><path d="m374.14 226.6-11.86 533.5-.3 13.6-201.82-102.13 70.51-488.74 29.03 8.86 62.82 19.16z" stroke="#231f20" stroke-width="21.8841"/><path d="m365.98 779.7 322.53-66.95-102.83-525.06-211.54 38.91" stroke="#231f20" stroke-width="21.8841"/><path d="m259.7 191.69s.81-7.01 2.35-17.24c3.29-21.89 9.93-58.5 19.08-72.47 17.32-26.44 194.53-38.06 208.811-35.56 23.35 4.08 52.64 14.76 62.689 21.4 3.94 2.6 6.9 8.96 9.12 17.18 6.34 23.48 6.66 62.16 6.62 72.1 0 1.54-.01 2.39-.01 2.39" stroke="#231f20" stroke-width="21.8841"/><path d="m324 206s2.07-22.06 7.37-43.61c3.63-14.74 8.77-29.25 15.81-36.29 11.02-11.02 82.57-23.72 141.04-26.92 33.24-1.82 62.261-.56 73.53 5.82.08.04.17.09.25.14" stroke="#231f20" stroke-width="21.8841"/><path d="m488 98s.08.24.22 1.18c.431 3.22 1.41 14.7 1.41 53.25" stroke="#231f20" stroke-width="21.8841"/><path d="m223.38 179.79 6.71-.97 31.09-4.5" stroke="#231f20" stroke-width="21.8841"/><path d="m336.54 163.42 121.94-18.95 30.8 9.15 79.09 23.48 18.8 5.58 4.6 1.37" stroke="#231f20" stroke-width="21.8841"/><path d="m244.05 313.01 93.61 42.55" stroke="#231f20" stroke-width="29.1788"/><path d="m228.42 457.04 93.61 42.55" stroke="#231f20" stroke-width="29.1788"/><path d="m215.62 591.17 93.61 42.55" stroke="#231f20" stroke-width="29.1788"/><path d="m360 748 2.28 12.1 3.7 19.6" stroke="#231f20" stroke-width=".5"/><path d="m0 0h850.394v850.394h-850.394z"/></g></svg>