<svg enable-background="new 0 0 850.394 850.394" height="850.394" viewBox="0 0 850.394 850.394" width="850.394" xmlns="http://www.w3.org/2000/svg"><path d="m394.96 241.78v25.15c-5.5-3.62-10.45-6.54-14.29-8.33-3.14-1.46-8.4-4.4-14.79-8.16l1.17-2 7.31-6.66z" fill="#c8c8c8"/><path d="m421.52 241.78h-26.56v-37.31h14.92c-3.38 16.72 3.38 26.69 11.64 37.31z" fill="#c8c8c8"/><path d="m464.39 352.77s-2.149-2.64-5.81-6.94c-11.68-13.72-38.76-44.33-60.15-59.53-17.86-12.7-35.97-17.55-83.98-47.53-1.61-1.01-3.26-2.05-4.94-3.11-29.51-18.68-61.32-41.93-83.51-48.23-22.2-6.31-63.11 9.86-63.11 9.86l-.39-.19c4.07-8.45 7.88-15.91 7.88-15.91s16.81-10.53 38.17-10.53c2.17 0 4.4.11 6.65.35 15.79 1.68 27.25 4.69 45.33 14.35 9.88 5.28 21.74 12.55 37.37 22.67 0 0 3.7 2.38 9.55 6.12 14.08 8.99 40.64 25.82 58.43 36.29 6.39 3.76 11.65 6.7 14.79 8.16 3.84 1.79 8.79 4.71 14.29 8.33 1.79 1.18 3.64 2.43 5.53 3.75 15.76 10.93 34.21 25.92 44.06 36.12 3.04 3.16 5.9 6.08 8.521 8.82 1.989 2.09 3.84 4.07 5.52 5.99 6.75 7.68 10.83 14.26 10.65 21.79-.07 2.84-1.9 6.14-4.84 9.38z" fill="#fff"/><path d="m463.53 353.7c-1.44 1.49-3.11 2.95-4.931 4.35-4.01 3.07-8.779 5.79-13.58 7.62 6.681-14.35-12.659-19.41-20.31-27.25-3.87-3.97-7.07-10.2-12.89-11.62-5.53-1.35-13.11 4.24-15.28 9.49l-1.6-.03-.03 1.38c-2.02-1.9-4.06-3.78-6.1-5.6l2.5-.47c4.84-10.41 4.54-14.95-4.07-21.93-7.4-5.98-14.31-9.37-23.53-13.2-10.11-4.19-15.08-13.06-25-16.79-9-3.38-28.69 9.38-36.82 13.15l-.04-.08c.62-.31 1.19-.62 1.67-.95 5.87-3.92 12.99-10.69 16.31-16.89 5.3-9.9 3.28-27.7-5.38-36.11 48.01 29.98 66.12 34.83 83.98 47.53 21.39 15.2 48.47 45.81 60.15 59.53 3.66 4.3 5.81 6.94 5.81 6.94l.011.01c-.28.3-.57.61-.87.92z" fill="#fff"/><path d="m489.14 625.7c10.04 12.95 3.471 29.58-.699 42.26-2.41 7.38 3.01 26.38 10.359 45.45-5.24 9.91-11.54 13.84-31.22 13.84 0 0-21.58-4.34-24.76-29.51-.54-4.29-1.29-8.58-2.181-12.9 3.78-6.45.721-14.07-5-20.7-3.58-13.6-7.54-27.739-10.03-43.05.61-2.8.3-5.51-1.15-8.1-.71-5.76-1.17-11.7-1.31-17.84-.04-1.67-.15-3.53-.34-5.561-.69-7.5-2.35-17.28-4.64-28.38 1.09 1.82 2.34 3.771 3.75 5.83 18.011 26.431 57.171 45.721 67.221 58.661z"/><path d="m471.93 534.01c.511 7 1.141 13.08 1.92 17.721-8.489-4.82-14.35-8.051-14.35-8.051s-16.8-18.37-29.27-14.66c-8.271 2.44-14.49 5.091-17.07 9.79-4.91-20.659-10.97-43.31-16.55-63.52-7.68-27.71-14.48-50.84-16.29-57.95h50.85 38.83v2.66s-.37 25.03-.07 54.02c.21 20.49.75 42.97 2 59.99z"/><path d="m396.61 475.29-2.61.71-259.63-1.06-31.82-61.581.29-.75c5.41 2.14 11.66 3.76 18.87 4.73h258.61c1.81 7.111 8.61 30.241 16.29 57.951z" fill="#be0000"/><path d="m472 474-2.07.02c-.3-28.99.07-54.02.07-54.02v-2.66h256.87c7.42-1 13.83-2.69 19.35-4.92l.4.94-31.82 61.58z" fill="#be0000"/><path d="m705.61 167.72c-.771-1.99-1.521-3.84-2.261-5.53-13.6-31.23-71.949-26.29-71.949-26.29h-44-128.8-33.83-.27-29.54-130.57-46.98s-62.9-6.19-71.96 26.29c-.48 1.71-.99 3.56-1.53 5.53-2.67 9.72-6.1 22.5-9.83 36.49-3.19 12.03-6.61 24.94-9.93 37.57-3.43 13.09-6.78 25.86-9.69 37-5.6 21.44-9.6 36.84-9.6 36.84s-6.71 18.41-6.1 36.48c.32 9.65 2.72 19.19 9.33 25.8 9.81 9.81 46.02 10.33 46.02 10.33h90.52 149.36 30.04.73 269.92s36.199-.52 46.02-10.33c6.24-6.24 8.73-15.11 9.26-24.2 1.07-18.57-6.029-38.08-6.029-38.08s-3.2-15.28-8.061-36.53c-2.56-11.22-5.59-24.12-8.85-37.31-3.17-12.83-6.57-25.95-9.971-38.08-3.909-13.93-7.829-26.56-11.449-35.98zm-325.29 249.62h-258.61c-7.21-.97-13.46-2.59-18.87-4.73-49.66-19.61-28.86-82.5-28.86-82.5s29.63-138.25 44.44-184.34c14.81-46.08 93.81-39.5 93.81-39.5h212.32 211.8s79-6.58 93.811 39.5c14.81 46.09 44.439 184.34 44.439 184.34s20.66 62.48-28.38 82.31c-5.52 2.23-11.93 3.92-19.35 4.92h-256.87-38.83z" fill="#be0000"/><path d="m418.69 657.37 2.82-4.73c5.061 2.92 10.21 6.98 14.13 11.5 1.851 7.021 3.601 13.891 5 20.7-3.38 5.78-12.239 10.641-29.56 13.021-9.81-.7-19.38-3.61-23.08-9.86-4.63-7.85 7.81-17.84 18.23-24.23 6.26-3.851 11.8-6.401 12.46-6.401z" fill="#ffeec8"/><path d="m424.46 612.99c.33 2.74.72 5.439 1.15 8.1-1.85 8.57-12.31 18.04-25.1 27.73-1.46 1.109-2.95 2.22-4.46 3.33-8.19 6.02-14.95 12.6-23.54.069-6.57-9.529-11.08-22.489-3.45-32.319 5.5-7.101 19.34-13.721 30.95-19.301.36-.069.73-.159 1.1-.25l6-3.21c2.05-1.04 3.92-2.02 5.52-2.96.01 0 .03-.01.04-.02l8.24-4.41 1.9-.16c.19 2.03.3 3.891.34 5.561.14 6.14.6 12.08 1.31 17.84z" fill="#ffeec8"/><path d="m360.4 589.78c-8.68-13.2 32.99-32.761 51.02-38.58l1.55-.811c1 3.091 2.7 6.66 5.2 10.82 2.29 11.1 3.95 20.88 4.64 28.38l-1.9.16-8.24 4.41c-.01.01-.03.02-.04.02l-5.52 2.96c-2.19 1.101-4.59 2.25-7.1 3.46-18.89 4.321-34.16-2.509-39.61-10.819z" fill="#ffeec8"/><path d="m473.85 551.73c-.779-4.641-1.409-10.721-1.92-17.721l.07-.009c25.65 5.21 53.9 7.52 59.41 9.8 24.27 10.05 79.72 29.061 79.72 29.061s23.561 10.029 31.18 36.47c7.61 26.4 53.37 134.189 53.37 134.189l-146.93 48.08s-22.19-20.609-33.27-41.21c-5.101-9.479-11.4-23.25-16.681-36.979-7.35-19.07-12.77-38.07-10.359-45.45 4.17-12.68 10.739-29.31.699-42.26-10.05-12.94-49.21-32.23-67.22-58.66-1.41-2.06-2.66-4.01-3.75-5.83-1.45-7.02-3.15-14.56-5.01-22.4 2.58-4.699 8.8-7.35 17.07-9.79 12.47-3.71 29.27 14.66 29.27 14.66s5.861 3.229 14.351 8.049z" fill="#ffeec8"/><path d="m245.21 352-.57 36.23h-90.52s-36.21-.52-46.02-10.33c-6.61-6.61-9.01-16.15-9.33-25.8l3.23-.1z" fill="#c8c8c8"/><path d="m394.64 352.01-.64 33.99v2.23h-149.36l.57-36.23h148.79z" fill="#c8c8c8"/><path d="m394.91 337.64-.27 14.37-.64-.01h-148.79l.58-36.38h108.79l-13.6 8.8 40.61 1.45c2.39 1.94 4.81 4.02 7.22 6.17 2.04 1.82 4.08 3.7 6.1 5.6z" fill="#c8c8c8"/><path d="m245.79 315.62-.58 36.38h-143.21l-3.23.1c-.61-18.07 6.1-36.48 6.1-36.48h3.94z" fill="#c8c8c8"/><path d="m358.98 312.77-4.4 2.85h-108.79l.21-13.62.29-4.99c1.81.1 3.63.19 5.46.28 11.87.55 23.82.79 33.35 1.23 4.81.23 9 .5 12.25.9 16.88 2.03 41.75 9.59 61.47 13.32.05.01.11.02.16.03z" fill="#c8c8c8"/><path d="m246.29 297.01-.29 4.99-.21 13.62h-136.98-3.94s4-15.4 9.6-36.84l4.21.31h54.03l2.8 9.32h26.4c8 3.25 14.08 5.19 14.08 5.19 8.22 1.79 19.04 2.78 30.3 3.41z" fill="#c8c8c8"/><path d="m170.18 270.64 2.53 8.45h-54.03l-4.21-.31c2.91-11.14 6.26-23.91 9.69-37h.01l21.83-1.78 5.16-.32c1.97 10.69 8.82 18.5 15.79 27.5.91 1.17 2 2.33 3.23 3.46z" fill="#c8c8c8"/><path d="m154 204 4.46 1.72c-2.01 4.39-3.76 8.46-4.75 11.3-3.18 9.1-3.7 16.38-2.55 22.66l-5.16.32-21.83 1.78h-.01c3.32-12.63 6.74-25.54 9.93-37.57l3.25.26z" fill="#c8c8c8"/><path d="m208.55 167.72v2.94c-21.36 0-38.17 10.53-38.17 10.53s-3.81 7.46-7.88 15.91c-1.36 2.84-2.75 5.79-4.04 8.62l-4.46-1.72-16.66.47-3.25-.26c3.73-13.99 7.16-26.77 9.83-36.49z" fill="#c8c8c8"/><path d="m264.39 135.9-2.48 31.82h-53.36-64.63c.54-1.97 1.05-3.82 1.53-5.53 9.06-32.48 71.96-26.29 71.96-26.29z" fill="#c8c8c8"/><path d="m458.6 139.19v11.48c-17.239 2.13-29.83 10.02-29.83 10.02s-1.46 2.85-3.529 7.03h-30.28v-31.82h29.54.27 33.83v3.29z" fill="#c8c8c8"/><path d="m394.96 135.9v31.82h-133.05l2.48-31.82z" fill="#c8c8c8"/><path d="m286.07 194.74 23.76 15.83-2.38 3.58c-5.85-3.74-9.55-6.12-9.55-6.12-15.63-10.12-27.49-17.39-37.37-22.67l1.38-17.64h133.05v36.75h-77.68l9.82-8.95z" fill="#c8c8c8"/><path d="m394.96 167.72h30.28c-1.28 2.57-2.79 5.65-4.33 8.87h-.01c-3.49 7.26-7.17 15.26-8.8 19.92-.99 2.82-1.72 5.47-2.22 7.96h-14.92z" fill="#c8c8c8"/><path d="m357.05 241.78 10 6.66-1.17 2c-17.79-10.47-44.35-27.3-58.43-36.29l2.38-3.58.44.29 7.01-6.39h77.68v37.31h-20.6l9.52-8.68-41.03-.78z" fill="#c8c8c8"/><path d="m400.49 270.68c-1.89-1.32-3.74-2.57-5.53-3.75v-25.15h26.56c1.25 1.6 2.53 3.23 3.82 4.89 6.33 8.18 21.47 15.65 33.26 20.54v11.88h-26.96l10.13-9.23-41.04-.78.57.38z" fill="#c8c8c8"/><path d="m651.68 315.62h-50.72l-2.09-27.41c6.33 1.52 12.55 2.94 18.34 4.03 9.6 1.81 22.37 12.15 34.47 23.38z" fill="#c8c8c8"/><path d="m458.6 279.09h98.521c11.76 1.58 27.05 5.6 41.75 9.12l2.09 27.41h-142.361-5.529c-2.62-2.74-5.48-5.66-8.521-8.82-9.85-10.2-28.3-25.19-44.06-36.12l.81-1.22 14.49 9.65 9.14 6.09 6.709-6.11z" fill="#c8c8c8"/><path d="m458.59 321.61c-1.68-1.92-3.53-3.9-5.52-5.99h5.529 142.36l2.89 38.08h-140.319c.3-.31.59-.62.87-.92 2.939-3.24 4.77-6.54 4.84-9.38.18-7.53-3.9-14.11-10.65-21.79z" fill="#c8c8c8"/><path d="m458.6 358.05c1.82-1.4 3.49-2.86 4.931-4.35h140.319 146.07.05c-.529 9.09-3.02 17.96-9.26 24.2-9.82 9.81-46.02 10.33-46.02 10.33h-269.92-.73-30.04v-2.23l.64-33.99.27-14.37c1.07 1 2.14 2 3.19 3.01 10.93 10.45 20.85 20.79 26.72 24.99 5.02 3.58 12.661 2.9 20.2.03 4.8-1.83 9.57-4.55 13.58-7.62z" fill="#c8c8c8"/><path d="m743.94 315.62s7.1 19.51 6.029 38.08h-.05-146.069l-2.89-38.08h50.72c12.78 11.85 24.801 24.7 31.53 29.51 5.01 3.58 12.66 2.9 20.2.03 7.43-2.83 14.77-7.79 19.38-12.89 2.93-3.24 4.77-6.54 4.84-9.38.061-2.5-.35-4.9-1.18-7.27z" fill="#c8c8c8"/><path d="m735.88 279.09c4.86 21.25 8.061 36.53 8.061 36.53h-17.49c-3.08-8.87-11.96-17.33-23.521-29.32-2.13-2.21-4.66-4.64-7.479-7.21z" fill="#c8c8c8"/><path d="m735.88 279.09h-40.43c-14.07-12.79-35.311-28.94-49.521-37.31h81.101c3.26 13.19 6.29 26.09 8.85 37.31z" fill="#c8c8c8"/><path d="m727.03 241.78h-81.1c-2.54-1.5-4.859-2.75-6.87-3.68-7.59-3.53-27.609-15.75-46.069-27.28l-.48-6.35h121.75l2.8-.77c3.399 12.13 6.799 25.25 9.969 38.08z" fill="#c8c8c8"/><path d="m589.72 167.72 2.79 36.75h-9.62c-14.83-9.35-26.6-16.94-26.6-16.94-12.98-8.41-23.36-14.85-32.17-19.81z" fill="#c8c8c8"/><path d="m717.06 203.7-2.8.77h-121.75l-2.79-36.75h115.89c3.62 9.42 7.54 22.05 11.45 35.98z" fill="#c8c8c8"/><path d="m705.61 167.72h-115.89l-2.319-30.54v-1.28h44s58.35-4.94 71.949 26.29c.74 1.69 1.49 3.54 2.26 5.53z" fill="#c8c8c8"/><path d="m587.4 137.18 2.319 30.54h-65.6c-21.19-11.95-33.271-15.38-50.53-17.22-5.24-.56-10.29-.41-14.99.17v-11.48-3.29h128.801z" fill="#c8c8c8"/><path d="m398.1 340.65c-1.05-1.01-2.12-2.01-3.19-3.01l.03-1.38 1.6.03c2.17-5.25 9.75-10.84 15.28-9.49 5.82 1.42 9.02 7.65 12.89 11.62 7.65 7.84 26.99 12.9 20.31 27.25-7.539 2.87-15.18 3.55-20.2-.03-5.87-4.2-15.79-14.54-26.72-24.99z" fill="#f0947d"/><path d="m387.24 309.64c8.61 6.98 8.91 11.52 4.07 21.93l-2.5.47c-2.41-2.15-4.83-4.23-7.22-6.17l5.94.21-24.2-16.12-4.35 2.81c-.05-.01-.11-.02-.16-.03-19.72-3.73-44.59-11.29-61.47-13.32-3.25-.4-7.44-.67-12.25-.9 3.57-1.44 11.93-3.4 16.75-5.8l.04.08c8.13-3.77 27.82-16.53 36.82-13.15 9.92 3.73 14.89 12.6 25 16.79 9.22 3.83 16.13 7.22 23.53 13.2z" fill="#f0947d"/><path d="m314.45 238.77c8.66 8.41 10.68 26.21 5.38 36.11-3.32 6.2-10.44 12.97-16.31 16.89-.48.33-1.05.64-1.67.95-4.82 2.4-13.18 4.36-16.75 5.8-9.53-.44-21.48-.68-33.35-1.23-1.83-.09-3.65-.18-5.46-.28-11.26-.63-22.08-1.62-30.3-3.41 0 0-6.08-1.94-14.08-5.19h3.78l-35.52-17.8.01.03c-1.23-1.13-2.32-2.29-3.23-3.46-6.97-9-13.82-16.81-15.79-27.5-1.15-6.28-.63-13.56 2.55-22.66.99-2.84 2.74-6.91 4.75-11.3 1.29-2.83 2.68-5.78 4.04-8.62l.39.19s40.91-16.17 63.11-9.86c22.19 6.3 54 29.55 83.51 48.23 1.68 1.06 3.33 2.1 4.94 3.11z" fill="#f0947d"/><path d="m726.45 315.62c.83 2.37 1.24 4.77 1.18 7.27-.07 2.84-1.91 6.14-4.84 9.38l-.01-.01s-5.67-6.95-14.24-16.64z" fill="#fff"/><path d="m726.45 315.62h-17.91c-9.51-10.74-22.59-24.84-35.49-36.53h22.4c2.819 2.57 5.35 5 7.479 7.21 11.561 11.99 20.441 20.45 23.521 29.32z" fill="#fff"/><path d="m722.78 332.26-32.271-16.64h18.03c8.571 9.69 14.241 16.64 14.241 16.64z" fill="#fff"/><path d="m708.54 315.62h-18.03l-38.979-20.1c-1.141-2.06-3.08-4.09-5.91-6.39-5.34-4.31-10.44-7.29-16.33-10.04h43.76c12.899 11.69 25.979 25.79 35.489 36.53z" fill="#fff"/><path d="m683.1 317.91c7.65 7.84 26.98 12.9 20.311 27.25l-48.48-29.38c.021-.05.04-.11.07-.16h26.09c.659.81 1.319 1.58 2.009 2.29z" fill="#f0947d"/><path d="m695.45 279.09h-22.4c-5.54-5.03-11.05-9.62-16.229-13.3-11.66-8.29-23.431-13.24-43.551-24.01h32.66c14.21 8.37 35.45 24.52 49.52 37.31z" fill="#fff"/><path d="m681.09 315.62h9.42l32.271 16.64.01.01c-4.61 5.1-11.95 10.06-19.38 12.89 6.67-14.35-12.66-19.41-20.311-27.25-.69-.71-1.35-1.48-2.01-2.29z" fill="#fff"/><path d="m681.09 315.62h-26.09c2.25-5.2 9.73-10.67 15.2-9.33 4.8 1.17 7.81 5.59 10.89 9.33z" fill="#f0947d"/><path d="m673.05 279.09h-43.76c-2.26-1.06-4.64-2.09-7.19-3.15-10.109-4.2-15.08-13.06-25-16.79-.14-.05-.29-.1-.439-.14l-1.311-17.23h17.92c20.12 10.77 31.891 15.72 43.551 24.01 5.179 3.68 10.689 8.27 16.229 13.3z" fill="#fff"/><path d="m654.93 315.78 48.48 29.38c-7.54 2.87-15.19 3.55-20.2-.03-6.729-4.81-18.75-17.66-31.53-29.51h3.32c-.03.05-.05.11-.07.16z" fill="#f0947d"/><path d="m651.53 295.52 38.979 20.1h-9.42c-3.08-3.74-6.09-8.16-10.89-9.33-5.47-1.34-12.95 4.13-15.2 9.33h-3.32c-12.1-11.23-24.87-21.57-34.47-23.38-5.79-1.09-12.01-2.51-18.34-4.03l-.69-9.12h21.5z" fill="#f0947d"/><path d="m645.93 241.78h-32.66c-5.55-2.97-11.729-6.38-18.72-10.43l-1.56-20.53c18.46 11.53 38.479 23.75 46.069 27.28 2.011.93 4.331 2.18 6.871 3.68z" fill="#fff"/><path d="m619.68 279.09h9.61c5.89 2.75 10.99 5.73 16.33 10.04 2.83 2.3 4.77 4.33 5.91 6.39z" fill="#fff"/><path d="m619.68 279.09h-21.5l-.87-11.54z" fill="#f0947d"/><path d="m613.27 241.78h-17.92l-.8-10.43c6.99 4.05 13.17 7.46 18.72 10.43z" fill="#fff"/><path d="m622.1 275.94c2.551 1.06 4.931 2.09 7.19 3.15h-9.61l-22.37-11.54-.649-8.54c.149.04.3.09.439.14 9.92 3.73 14.89 12.59 25 16.79z" fill="#f0947d"/><path d="m597.31 267.55-13.31-6.85c4.85-1.78 9.39-2.71 12.66-1.69z" fill="#fff"/><path d="m595.35 241.78 1.311 17.23c-3.271-1.02-7.811-.09-12.66 1.69l-7.33-3.79c.58-.85 1.1-1.7 1.55-2.54 1.86-3.47 2.82-7.91 2.9-12.59z" fill="#fff"/><path d="m594.55 231.35.8 10.43h-14.23c.16-8.64-2.66-18.06-8.28-23.51 8.03 5.01 15.22 9.32 21.71 13.08z" fill="#fff"/><path d="m592.99 210.82 1.56 20.53c-6.49-3.76-13.68-8.07-21.71-13.08-1.609-1.01-3.26-2.04-4.939-3.11-5.46-3.45-10.99-7.06-16.521-10.69h31.51c3.25 2.05 6.65 4.19 10.1 6.35z" fill="#fff"/><path d="m557.12 279.09h41.06l.69 9.12c-14.7-3.52-29.99-7.54-41.75-9.12z" fill="#fff"/><path d="m582.89 204.47h-31.51c-23.27-15.26-46.61-30.88-64.41-36.75h37.15c8.81 4.96 19.189 11.4 32.17 19.81 0 0 11.77 7.59 26.6 16.94z" fill="#fff"/><path d="m572.84 218.27c5.62 5.45 8.44 14.87 8.28 23.51h-19.99z" fill="#f0947d"/><path d="m561.13 241.78h19.99c-.08 4.68-1.04 9.12-2.9 12.59-.45.84-.97 1.69-1.55 2.54l-18.37-9.47z" fill="#f0947d"/><path d="m558.3 247.44 18.37 9.47c-3.68 5.44-9.689 10.96-14.76 14.35-.49.32-1.05.64-1.67.95-4.82 2.41-13.21 4.37-16.771 5.81-.13-.01-.26-.02-.39-.02z" fill="#f0947d"/><path d="m572.84 218.27-11.71 23.51h-13.8l-72.35-37.31h76.399c5.53 3.63 11.061 7.24 16.521 10.69 1.68 1.07 3.33 2.1 4.94 3.11z" fill="#f0947d"/><path d="m584 260.7c-8.78 3.21-18.57 9.21-23.72 11.6l-.04-.09c.62-.31 1.18-.63 1.67-.95 5.07-3.39 11.08-8.91 14.76-14.35z" fill="#fff"/><path d="m561.13 241.78-2.83 5.66-10.97-5.66z" fill="#f0947d"/><path d="m558.3 247.44-15.22 30.56c-20.12-.92-50.7-.96-68.71-4.9 0 0-6.95-2.23-15.771-5.89v-25.43h88.73z" fill="#f0947d"/><path d="m598.18 279.09h-41.06c-.47-.07-.93-.13-1.38-.18-3.26-.39-7.46-.67-12.271-.89 3.561-1.44 11.95-3.4 16.771-5.81l.04.09c5.149-2.39 14.939-8.39 23.72-11.6l13.31 6.85z" fill="#f0947d"/><path d="m551.38 204.47h-76.4l-16.381-8.44v-28.31h28.37c17.801 5.87 41.141 21.49 64.411 36.75z" fill="#f0947d"/><path d="m547.33 241.78h-88.73v-37.31h16.38z" fill="#f0947d"/><path d="m543.08 278c.13 0 .26.01.39.02-.18.08-.35.15-.51.22z" fill="#fff"/><path d="m524.12 167.72h-37.15c-.88-.29-1.739-.56-2.59-.8-7.28-2.07-16.57-1.72-25.78-.32v-15.93c4.7-.58 9.75-.73 14.99-.17 17.26 1.84 29.34 5.27 50.53 17.22z" fill="#fff"/><path d="m486.97 167.72h-28.37v-1.12c9.21-1.4 18.5-1.75 25.78.32.85.24 1.71.51 2.59.8z" fill="#fff"/><path d="m474.98 204.47h-16.38v-8.44z" fill="#f0947d"/><path d="m458.6 241.78v25.43c-11.79-4.89-26.93-12.36-33.26-20.54-1.29-1.66-2.57-3.29-3.82-4.89z" fill="#f0947d"/><path d="m458.6 204.47v37.31h-37.08c-8.26-10.62-15.02-20.59-11.64-37.31z" fill="#f0947d"/><path d="m458.6 196.03v8.44h-48.72c.5-2.49 1.23-5.14 2.22-7.96 1.63-4.66 5.31-12.66 8.8-19.92h.01l.37.19z" fill="#f0947d"/><path d="m458.6 167.72v28.31l-37.32-19.25s14.56-5.76 31.03-9.06z" fill="#f0947d"/><path d="m458.6 166.6v1.12h-6.29c2.07-.42 4.18-.79 6.29-1.12z" fill="#fff"/><path d="m458.6 150.67v15.93c-2.109.33-4.22.7-6.29 1.12h-27.07c2.069-4.18 3.529-7.03 3.529-7.03s12.591-7.89 29.831-10.02z" fill="#fff"/><path d="m431.64 279.09-6.71 6.11-9.14-6.09.01-.02z" fill="#231f20"/><path d="m452.31 167.72c-16.47 3.3-31.03 9.06-31.03 9.06l-.37-.19c1.54-3.22 3.05-6.3 4.33-8.87z" fill="#fff"/><path d="m415.8 279.09-.01.02-14.49-9.65-.57-.38 41.04.78-10.13 9.23z" fill="#231f20"/><path d="m383.88 233.1-9.52 8.68h-17.31l-14.2-9.46z" fill="#231f20"/><path d="m374.36 241.78-7.31 6.66-10-6.66z" fill="#231f20"/><path d="m373.34 319.67c-5.19-3.53-10.09-6.05-14.36-6.9l4.35-2.81 24.2 16.12-5.94-.21c-2.79-2.28-5.56-4.38-8.25-6.2z" fill="#231f20"/><path d="m358.98 312.77c4.27.85 9.17 3.37 14.36 6.9 2.69 1.82 5.46 3.92 8.25 6.2l-40.61-1.45 13.6-8.8z" fill="#231f20"/><path d="m317.28 204.47-7.01 6.39-.44-.29-23.76-15.83 41.03.78z" fill="#231f20"/><path d="m205.69 288.41h-3.78c-10.36-4.2-23.94-10.58-31.73-17.77l-.01-.03z" fill="#231f20"/><path d="m170.18 270.64c7.79 7.19 21.37 13.57 31.73 17.77h-26.4l-2.8-9.32z" fill="#231f20"/><g fill="none"><path d="m358.98 312.77 4.35-2.81 24.2 16.12-5.94-.21-40.61-1.45 13.6-8.8z" stroke="#231f20" stroke-width="1.6458"/><path d="m431.64 279.09-6.71 6.11-9.14-6.09-14.49-9.65-.57-.38 41.04.78z" stroke="#231f20" stroke-width="1.6458"/><path d="m367.05 248.44-10-6.66-14.2-9.46 41.03.78-9.52 8.68z" stroke="#231f20" stroke-width="1.6458"/><path d="m317.28 204.47-7.01 6.39-.44-.29-23.76-15.83 41.03.78z" stroke="#231f20" stroke-width="1.6458"/><path d="m172.71 279.09 2.8 9.32h26.4 3.78l-35.52-17.8.01.03z" stroke="#231f20" stroke-width="1.6458"/><path d="m380.32 417.34h-258.61c-7.21-.97-13.46-2.59-18.87-4.73-49.66-19.61-28.86-82.5-28.86-82.5s29.63-138.25 44.44-184.34c14.81-46.08 93.81-39.5 93.81-39.5h212.32 211.8s79-6.58 93.811 39.5c14.81 46.09 44.439 184.34 44.439 184.34s20.66 62.48-28.38 82.31c-5.52 2.23-11.93 3.92-19.35 4.92h-256.87-38.83z" stroke="#231f20" stroke-width="21"/><path d="m394 388.23h30.04.73 269.92s36.199-.52 46.02-10.33c6.24-6.24 8.73-15.11 9.26-24.2 1.07-18.57-6.029-38.08-6.029-38.08s-3.2-15.28-8.061-36.53c-2.56-11.22-5.59-24.12-8.85-37.31-3.17-12.83-6.57-25.95-9.971-38.08-3.909-13.93-7.829-26.56-11.449-35.98-.771-1.99-1.521-3.84-2.261-5.53-13.6-31.23-71.949-26.29-71.949-26.29h-44-128.8-33.83-.27-29.54-130.57-46.98s-62.9-6.19-71.96 26.29c-.48 1.71-.99 3.56-1.53 5.53-2.67 9.72-6.1 22.5-9.83 36.49-3.19 12.03-6.61 24.94-9.93 37.57-3.43 13.09-6.78 25.86-9.69 37-5.6 21.44-9.6 36.84-9.6 36.84s-6.71 18.41-6.1 36.48c.32 9.65 2.72 19.19 9.33 25.8 9.81 9.81 46.02 10.33 46.02 10.33h90.52z" stroke="#231f20" stroke-width="21"/><path d="m246 302-.21 13.62-.58 36.38-.57 36.23" stroke="#231f20" stroke-width="21"/><path d="m264.39 135.9-2.48 31.82-1.38 17.64" stroke="#231f20" stroke-width="21"/><path d="m598.87 288.21 2.09 27.41 2.89 38.08 2.15 28.3" stroke="#231f20" stroke-width="21"/><path d="m587.4 137.18 2.32 30.54 2.79 36.75.48 6.35" stroke="#231f20" stroke-width="21"/><path d="m394.96 335.22-.02 1.04-.03 1.38-.27 14.37-.64 33.99" stroke="#231f20" stroke-width="21"/><path d="m394.96 135.9v31.82 36.75 37.31 25.15" stroke="#231f20" stroke-width="21"/><path d="m458.6 358.05-.6 23.95" stroke="#231f20" stroke-width="21"/><path d="m458.6 267.21v11.88 30.44" stroke="#231f20" stroke-width="21"/><path d="m458.6 139.19v11.48" stroke="#231f20" stroke-width="21"/><path d="m524.12 167.72h65.6 115.89 2.18" stroke="#231f20" stroke-width="21"/><path d="m143.92 167.72h64.63 53.36 133.05 30.28" stroke="#231f20" stroke-width="21"/><path d="m582.89 204.47h9.62 121.75" stroke="#231f20" stroke-width="21"/><path d="m309.92 204.47h7.36 77.68 14.92" stroke="#231f20" stroke-width="21"/><path d="m137.34 204.47 16.66-.47" stroke="#231f20" stroke-width="21"/><path d="m645.93 241.78h81.1" stroke="#231f20" stroke-width="21"/><path d="m355.46 241.78h1.59 17.31 20.6 26.56" stroke="#231f20" stroke-width="21"/><path d="m124.17 241.78 21.83-1.78" stroke="#231f20" stroke-width="21"/><path d="m695.45 279.09h40.43" stroke="#231f20" stroke-width="21"/><path d="m415.8 279.09h15.84 26.96 98.52" stroke="#231f20" stroke-width="21"/><path d="m118.68 279.09h54.03 2.8" stroke="#231f20" stroke-width="21"/><path d="m726.45 315.62h17.49" stroke="#231f20" stroke-width="21"/><path d="m458.6 315.62h142.36 50.72" stroke="#231f20" stroke-width="21"/><path d="m453.05 315.62h.02 5.53" stroke="#231f20" stroke-width="19.7501"/><path d="m108.81 315.62h136.98 108.79 2.25" stroke="#231f20" stroke-width="21"/><path d="m458.6 353.7h4.93 140.32 146.07" stroke="#231f20" stroke-width="21"/><path d="m102 352h143.21 148.79" stroke="#231f20" stroke-width="21"/><path d="m394 476-259.63-1.06-31.82-61.58" stroke="#231f20" stroke-width="21"/><path d="m746.62 413.36-31.82 61.58-242.8-.94" stroke="#231f20" stroke-width="21"/><path d="m543.08 278c-20.12-.92-50.7-.96-68.71-4.9 0 0-6.95-2.23-15.771-5.89-11.79-4.89-26.93-12.36-33.26-20.54-1.29-1.66-2.57-3.29-3.82-4.89-8.26-10.62-15.02-20.59-11.64-37.31.5-2.49 1.23-5.14 2.22-7.96 1.63-4.66 5.31-12.66 8.8-19.92h.01c1.54-3.22 3.05-6.3 4.33-8.87 2.069-4.18 3.529-7.03 3.529-7.03s12.591-7.89 29.83-10.02c4.7-.58 9.75-.73 14.99-.17 17.26 1.84 29.34 5.27 50.53 17.22 8.81 4.96 19.189 11.4 32.17 19.81 0 0 11.77 7.59 26.6 16.94 3.25 2.05 6.65 4.19 10.101 6.35 18.46 11.53 38.479 23.75 46.069 27.28 2.011.93 4.33 2.18 6.87 3.68 14.21 8.37 35.45 24.52 49.521 37.31 2.819 2.57 5.35 5 7.479 7.21 11.561 11.99 20.44 20.45 23.521 29.32.83 2.37 1.24 4.77 1.18 7.27-.07 2.84-1.91 6.14-4.84 9.38-4.61 5.1-11.95 10.06-19.38 12.89-7.54 2.87-15.19 3.55-20.2-.03-6.729-4.81-18.75-17.66-31.53-29.51-12.1-11.23-24.87-21.57-34.47-23.38-5.79-1.09-12.01-2.51-18.34-4.03-14.7-3.52-29.99-7.54-41.75-9.12-.47-.07-.93-.13-1.38-.18-3.26-.39-7.46-.67-12.271-.89" stroke="#231f20" stroke-width="14"/><path d="m421.28 176.78s14.56-5.76 31.03-9.06c2.07-.42 4.181-.79 6.29-1.12 9.21-1.4 18.5-1.75 25.78.32.851.24 1.71.51 2.59.8 17.8 5.87 41.141 21.49 64.41 36.75 5.53 3.63 11.061 7.24 16.521 10.69 1.68 1.07 3.33 2.1 4.939 3.11 8.03 5.01 15.22 9.32 21.71 13.08 6.99 4.05 13.17 7.46 18.72 10.43 20.12 10.77 31.891 15.72 43.551 24.01 5.18 3.68 10.689 8.27 16.229 13.3 12.9 11.69 25.98 25.79 35.49 36.53 8.57 9.69 14.24 16.64 14.24 16.64" stroke="#231f20" stroke-width="14"/><path d="m572.84 218.27c5.62 5.45 8.44 14.87 8.28 23.51-.08 4.68-1.04 9.12-2.9 12.59-.45.84-.97 1.69-1.55 2.54-3.68 5.44-9.689 10.96-14.76 14.35-.49.32-1.05.64-1.67.95-4.82 2.41-13.21 4.37-16.771 5.81-.18.08-.35.15-.51.22" stroke="#231f20" stroke-width="14"/><path d="m560.28 272.3c5.149-2.39 14.939-8.39 23.72-11.6 4.85-1.78 9.39-2.71 12.66-1.69.149.04.3.09.439.14 9.92 3.73 14.891 12.59 25 16.79 2.551 1.06 4.931 2.09 7.19 3.15 5.89 2.75 10.99 5.73 16.33 10.04 2.83 2.3 4.77 4.33 5.91 6.39 2.35 4.22 1.42 8.56-1.84 15.54" stroke="#231f20" stroke-width="14"/><path d="m654.93 315.78c.021-.05.04-.11.07-.16 2.25-5.2 9.73-10.67 15.2-9.33 4.8 1.17 7.81 5.59 10.89 9.33.66.81 1.32 1.58 2.01 2.29 7.65 7.84 26.98 12.9 20.311 27.25" stroke="#231f20" stroke-width="14"/><path d="m251.75 297.29c-1.83-.09-3.65-.18-5.46-.28-11.26-.63-22.08-1.62-30.3-3.41 0 0-6.08-1.94-14.08-5.19-10.36-4.2-23.94-10.58-31.73-17.77-1.23-1.13-2.32-2.29-3.23-3.46-6.97-9-13.82-16.81-15.79-27.5-1.15-6.28-.63-13.56 2.55-22.66.99-2.84 2.74-6.91 4.75-11.3 1.29-2.83 2.68-5.78 4.04-8.62 4.07-8.45 7.88-15.91 7.88-15.91s16.81-10.53 38.17-10.53c2.17 0 4.4.11 6.65.35 15.79 1.68 27.25 4.69 45.33 14.35" stroke="#231f20" stroke-width="14"/><path d="m373.34 319.67c-5.19-3.53-10.09-6.05-14.36-6.9-.05-.01-.11-.02-.16-.03-19.72-3.73-44.59-11.29-61.47-13.32-3.25-.4-7.44-.67-12.25-.9-9.53-.44-21.48-.68-33.35-1.23" stroke="#231f20" stroke-width="14"/><path d="m398.1 340.65c-1.05-1.01-2.12-2.01-3.19-3.01-2.02-1.9-4.06-3.78-6.1-5.6-2.41-2.15-4.83-4.23-7.22-6.17-2.79-2.28-5.56-4.38-8.25-6.2" stroke="#231f20" stroke-width="13.1668"/><path d="m458.59 321.61c6.75 7.68 10.83 14.26 10.65 21.79-.07 2.84-1.9 6.14-4.84 9.38-.28.3-.57.61-.87.92-1.44 1.49-3.11 2.95-4.931 4.35-4.01 3.07-8.779 5.79-13.58 7.62-7.539 2.87-15.18 3.55-20.2-.03-5.87-4.2-15.79-14.54-26.72-24.99" stroke="#231f20" stroke-width="14"/><path d="m297.9 208.03s3.7 2.38 9.55 6.12c14.08 8.99 40.64 25.82 58.43 36.29 6.39 3.76 11.65 6.7 14.79 8.16 3.84 1.79 8.79 4.71 14.29 8.33 1.79 1.18 3.64 2.43 5.53 3.75 15.76 10.93 34.21 25.92 44.06 36.12 3.04 3.16 5.9 6.08 8.521 8.82 1.989 2.09 3.84 4.07 5.52 5.99" stroke="#231f20" stroke-width="14"/><path d="m260.53 185.36c9.88 5.28 21.74 12.55 37.37 22.67" stroke="#231f20" stroke-width="13.1668"/><path d="m458.58 345.83c3.66 4.3 5.81 6.94 5.81 6.94" stroke="#231f20" stroke-width="13.1668"/><path d="m162.89 197.29s40.91-16.17 63.11-9.86c22.19 6.3 54 29.55 83.51 48.23 1.68 1.06 3.33 2.1 4.94 3.11 48.01 29.98 66.12 34.83 83.98 47.53 21.39 15.2 48.47 45.81 60.15 59.53" stroke="#231f20" stroke-width="14"/><path d="m314.45 238.77c8.66 8.41 10.68 26.21 5.38 36.11-3.32 6.2-10.44 12.97-16.31 16.89-.48.33-1.05.64-1.67.95-4.82 2.4-13.18 4.36-16.75 5.8-.19.08-.37.16-.53.23" stroke="#231f20" stroke-width="14"/><path d="m301.89 292.8c8.13-3.77 27.82-16.53 36.82-13.15 9.92 3.73 14.89 12.6 25 16.79 9.22 3.83 16.13 7.22 23.53 13.2 8.61 6.98 8.91 11.52 4.07 21.93" stroke="#231f20" stroke-width="14"/><path d="m396.54 336.29c2.17-5.25 9.75-10.84 15.28-9.49 5.82 1.42 9.02 7.65 12.89 11.62 7.65 7.84 26.99 12.9 20.31 27.25" stroke="#231f20" stroke-width="14"/><path d="m498.8 713.4v.01c-5.24 9.91-11.54 13.84-31.22 13.84 0 0-21.58-4.34-24.76-29.51-.54-4.29-1.29-8.58-2.181-12.9-1.399-6.81-3.149-13.68-5-20.7-3.58-13.6-7.54-27.739-10.03-43.05-.43-2.66-.82-5.359-1.15-8.1-.71-5.76-1.17-11.7-1.31-17.84-.04-1.67-.15-3.53-.34-5.561-.69-7.5-2.35-17.28-4.64-28.38-1.45-7.02-3.15-14.56-5.01-22.4-4.91-20.659-10.97-43.31-16.55-63.52-7.68-27.71-14.48-50.84-16.29-57.95-.13-.54-.24-.99-.32-1.34" stroke="#231f20" stroke-width="21"/><path d="m470 420s-.37 25.03-.07 54.02c.21 20.49.75 42.971 2 59.99.511 7 1.141 13.08 1.92 17.721" stroke="#231f20" stroke-width="21"/><path d="m472 534c25.65 5.21 53.9 7.52 59.41 9.8 24.27 10.05 79.72 29.061 79.72 29.061s23.561 10.029 31.18 36.47c7.61 26.4 53.37 134.189 53.37 134.189" stroke="#231f20" stroke-width="21"/><path d="m582.02 599.8s-33.96.55-52.68-13.729c-12.37-9.431-38.93-24.931-55.49-34.34-8.489-4.82-14.35-8.051-14.35-8.051s-16.8-18.37-29.27-14.66c-8.271 2.44-14.49 5.091-17.07 9.79-1.6 2.91-1.79 6.631-.19 11.58 1 3.091 2.7 6.66 5.2 10.82 1.09 1.82 2.34 3.771 3.75 5.83 18.01 26.43 57.17 45.72 67.22 58.66 10.04 12.95 3.471 29.58-.699 42.26-2.41 7.38 3.01 26.38 10.359 45.45 5.28 13.729 11.58 27.5 16.681 36.979 11.079 20.601 33.27 41.21 33.27 41.21" stroke="#231f20" stroke-width="21"/><path d="m412.67 594.16 8.24-4.41" stroke="#231f20" stroke-width="21"/><path d="m411.42 551.2c-18.03 5.819-59.7 25.38-51.02 38.58 5.45 8.31 20.72 15.14 39.61 10.819.36-.069.73-.159 1.1-.25l6-3.21 5.52-2.96" stroke="#231f20" stroke-width="21"/><path d="m412.67 594.16c-.01.01-.03.02-.04.02-1.6.94-3.47 1.92-5.52 2.96-2.19 1.101-4.59 2.25-7.1 3.46-11.61 5.58-25.45 12.2-30.95 19.301-7.63 9.83-3.12 22.79 3.45 32.319 8.59 12.53 15.35 5.95 23.54-.069 1.51-1.11 3-2.221 4.46-3.33 12.79-9.69 23.25-19.16 25.1-27.73.61-2.8.3-5.51-1.15-8.1-.96-1.721-2.43-3.38-4.46-4.99" stroke="#231f20" stroke-width="21"/><path d="m418 658c.68-.43.87-.63.69-.63-.66 0-6.2 2.55-12.46 6.399-10.42 6.391-22.86 16.381-18.23 24.231 3.7 6.25 13.27 9.16 23.08 9.86 2.32.159 4.65.199 6.92.14" stroke="#231f20" stroke-width="21"/><path d="m406.76 664.73c-.18-.33-.36-.65-.53-.961-4.31-8.06-4.44-12.609-2.14-14.579 2.99-2.58 10.12-.75 17.42 3.449 5.061 2.92 10.21 6.98 14.13 11.5 5.721 6.63 8.78 14.25 5 20.7-3.38 5.78-12.239 10.641-29.56 13.021-.36.05-.72.09-1.08.14" stroke="#231f20" stroke-width="21"/><path d="m0 0h850.394v850.394h-850.394z"/></g></svg>