<svg enable-background="new 0 0 850.394 850.394" height="850.394" viewBox="0 0 850.394 850.394" width="850.394" xmlns="http://www.w3.org/2000/svg"><path d="m202.43 212.91 5.44-5.44-.07-.07 2.41-2.42.72.72 270.27 270.27-4.87 4.87.07.07-2.98 2.98-270.65-270.64z" fill="#f6cc4b"/><path d="m492.7 464.46-11.5 11.51-270.27-270.27-.72-.72 9.64-9.63 210.02 207.14z" fill="#f6cc4b"/><path d="m622.08 610.44-13.1 13.109-62.18-62.179c2.98-1.84 5.79-4.05 8.36-6.62 1.91-1.91 3.62-3.95 5.12-6.1z" fill="#f6cc4b"/><path d="m504.67 466.82c-9.15 1.66-17.74 5.92-24.64 12.81-7.71 7.71-12.12 17.54-13.29 27.9-1.74 15.42 3.689 32 16.1 44.41 12.41 12.42 28.99 17.859 44.42 16.109l68.61 68.601-30.89 30.899 20.13 20.12 102.03-102.029-20.13-20.13-31.83 31.83-67.22-67.22c2.97-16.311-2.32-34.38-15.62-47.68-13.29-13.29-31.36-18.58-47.67-15.62zm-89.95 93.69c-29.49-18.26-38.85-50.08-38.85-50.08-16.39-44.47 22.58-78.62 22.58-78.62l63.09 63.971 11.88-11.891 2.98-2.979-.07-.07 4.87-4.87 11.5-11.51-62.83-61.97s36.34-43.82 80.8-27.44c0 0 31.83 9.37 50.08 38.85 18.25 29.49 31.35 61.3 57.1 68.331 0 0 65.681 2.449 102.971 29.029 114.779 81.811 2.83 198.19-4.2 205.86-.01.02-.03.04-.05.05-12.37 11.271-110.21 97.69-204.5 3.41-32.38-32.39-29.021-102.97-29.021-102.97-7.03-25.751-38.85-38.851-68.33-57.101z" fill="#f6cc4b"/><path d="m567.96 530.12 67.22 67.22-13.1 13.101-61.8-61.79c3.93-5.601 6.49-11.921 7.68-18.531z" fill="#f6cc4b"/><path d="m608.98 623.55-13.11 13.101-68.61-68.601c6.9-.78 13.57-3.01 19.54-6.68z" fill="#f6cc4b"/><path d="m595.87 636.65 13.11-13.1 13.1-13.11 13.1-13.1 31.83-31.83 20.13 20.13-102.03 102.03-20.13-20.12z" fill="#f6cc4b"/><path d="m546.8 561.37c-5.97 3.67-12.64 5.899-19.54 6.68l-60.52-60.52c1.17-10.36 5.58-20.19 13.29-27.9 6.899-6.89 15.489-11.149 24.64-12.81l63.29 63.3c-1.19 6.61-3.75 12.93-7.68 18.53-1.5 2.149-3.21 4.189-5.12 6.1-2.57 2.57-5.38 4.78-8.36 6.62z" fill="#9e5b16"/><path d="m466.74 507.53 60.52 60.52c-15.43 1.75-32.01-3.689-44.42-16.109-12.41-12.411-17.84-28.991-16.1-44.411z" fill="#9e5b16"/><path d="m473.42 483.89-11.88 11.89-63.09-63.97-206.02-208.9 10-10 .34.34z" fill="#f6cc4b"/><path d="m552.34 482.44c13.3 13.3 18.59 31.369 15.62 47.68l-63.29-63.3c16.31-2.96 34.38 2.33 47.67 15.62z" fill="#9e5b16"/><path d="m207.8 207.4.07.07-5.44 5.44-10 10-1.87 1.87-117.01-100.15 48.01-48.16 100.16 117.01-1.87 1.87-9.64 9.63z" fill="#f6cc4b"/><g fill="none"><path d="m716.57 717.17c-12.37 11.271-110.21 97.69-204.5 3.41-32.38-32.39-29.021-102.97-29.021-102.97-7.03-25.75-38.85-38.851-68.33-57.101-29.49-18.26-38.85-50.08-38.85-50.08-16.39-44.47 22.58-78.62 22.58-78.62" stroke="#000" stroke-width="17"/><path d="m429.87 402.49s36.34-43.82 80.8-27.44c0 0 31.83 9.37 50.08 38.85 18.25 29.49 31.35 61.3 57.1 68.331 0 0 65.681 2.449 102.971 29.029 114.779 81.811 2.83 198.19-4.2 205.86-.01.02-.03.04-.05.05 0 .01 0 .01-.011.021 0 0 .381-.36.94-.87l-.56.51c-.101.09-.21.189-.32.29" stroke="#000" stroke-width="17"/><path d="m192.43 222.91 206.02 208.9 63.09 63.97 11.88-11.89 2.98-2.98 1.52-1.52" stroke="#000" stroke-width="15.8855"/><path d="m204.4 210.79 3.4-3.39 2.41-2.42 9.64-9.63 1.87-1.87-100.16-117.01-48.01 48.16 117.01 100.15 1.87-1.87 10-10 5.44-5.44" stroke="#000" stroke-width="23.8283"/><path d="m219.85 195.35 210.02 207.14 62.83 61.97-11.5 11.51-4.87 4.87" stroke="#000" stroke-width="15.8855"/><path d="m504.67 466.82c16.311-2.96 34.38 2.33 47.67 15.62 13.3 13.3 18.59 31.369 15.62 47.68-1.19 6.61-3.75 12.93-7.68 18.53-1.5 2.149-3.21 4.189-5.12 6.1-2.57 2.57-5.38 4.78-8.36 6.62-5.97 3.67-12.64 5.899-19.54 6.68-15.43 1.75-32.01-3.689-44.42-16.109-12.41-12.41-17.84-28.99-16.1-44.41 1.17-10.36 5.58-20.19 13.29-27.9 6.9-6.891 15.49-11.151 24.64-12.811z" stroke="#000" stroke-width="23.8283"/><path d="m156.08 95.11c2.68 2.68 3.44 6.26 1.7 8-1.73 1.74-5.32.98-8-1.71-2.68-2.68-3.45-6.26-1.7-8 1.73-1.74 5.32-.97 8 1.71z" stroke="#000" stroke-width="23.8283"/><path d="m182.66 127.99c2.68 2.68 3.44 6.26 1.7 8-1.73 1.74-5.32.97-8-1.71s-3.44-6.26-1.7-8c1.73-1.74 5.32-.97 8 1.71z" stroke="#000" stroke-width="23.8283"/><path d="m210.1 159.97c2.68 2.68 3.44 6.26 1.7 8-1.74 1.73-5.32.97-8-1.71s-3.45-6.26-1.71-8 5.33-.97 8.01 1.71z" stroke="#000" stroke-width="23.8283"/><path d="m92.02 158.5c2.68 2.68 6.26 3.44 8 1.7 1.74-1.73.98-5.32-1.71-8-2.68-2.68-6.26-3.44-8-1.7-1.74 1.73-.97 5.32 1.71 8z" stroke="#000" stroke-width="23.8283"/><path d="m124.9 185.08c2.68 2.68 6.26 3.44 8 1.7 1.74-1.73.97-5.32-1.71-8s-6.26-3.44-8-1.7c-1.74 1.73-.98 5.32 1.71 8z" stroke="#000" stroke-width="23.8283"/><path d="m156.88 212.52c2.68 2.68 6.26 3.44 8 1.7 1.73-1.74.97-5.32-1.71-8s-6.26-3.45-8-1.71-.97 5.33 1.71 8.01z" stroke="#000" stroke-width="23.8283"/><path d="m635.18 597.34 31.83-31.83 20.13 20.13-102.03 102.03-20.13-20.12 30.89-30.9 13.11-13.1 13.1-13.11z" stroke="#000" stroke-width="7.9427"/><path d="m491.55 479.92 68.73 68.73 61.8 61.79 4.69 4.69" stroke="#000" stroke-width="7.9427"/><path d="m502.32 464.47 2.35 2.35 63.29 63.3 67.22 67.22 6.56 6.56" stroke="#000" stroke-width="7.9427"/><path d="m465.34 506.13 1.4 1.4 60.52 60.52 68.61 68.6 4.69 4.69" stroke="#000" stroke-width="7.9427"/><path d="m476.11 490.68 70.69 70.69 62.18 62.18 6.55 6.55" stroke="#000" stroke-width="7.9427"/><path d="m202.77 213.25 270.65 270.64.42.42" stroke="#000" stroke-width="7.9427"/><path d="m210.93 205.7 270.27 270.27.79.79" stroke="#000" stroke-width="7.9427"/><path d="m0 0h850.394v850.394h-850.394z"/></g></svg>