<svg enable-background="new 0 0 850.394 850.394" height="850.394" viewBox="0 0 850.394 850.394" width="850.394" xmlns="http://www.w3.org/2000/svg"><path d="m765.58 142.86v28.59h-17.43v-5.04c5.319 0 9.619-4.31 9.619-9.62 0-5.3-4.3-9.6-9.619-9.6v-4.33h16.59z" fill="#f6cc4b"/><path d="m764.74 141.9v.96h-16.59-15.85v-.96l10.45-24.5v-.25h.85 9.6 1.09v.25z" fill="#c8c8c8"/><path d="m734.96 265.4h26.67v18.97h-26.67z" fill="#f6cc4b"/><path d="m734.96 242.81h26.67v22.59h-26.67z" fill="#f6cc4b"/><path d="m734.96 221.55v-.6h26.29.38v21.86h-26.67z" fill="#f6cc4b"/><path d="m761.63 202.69v18.26h-.38-26.29v-18.26h.34z" fill="#f6cc4b"/><path d="m761.63 172.05v30.64h-26.33-.34v-30.64z" fill="#f6cc4b"/><path d="m748.15 147.19c5.319 0 9.619 4.3 9.619 9.6 0 5.31-4.3 9.62-9.619 9.62-5.301 0-9.601-4.31-9.601-9.62.001-5.3 4.301-9.6 9.601-9.6z" fill="#fff"/><path d="m754.29 105.26v11.89h-1.09-9.6-.85v-11.89l.19-.96h11.16z" fill="#c8c8c8"/><path d="m748.52 76.43 5.58 27.87h-11.16z" fill="#c8c8c8"/><path d="m748.15 166.41v5.04h-16.69v-28.59h.84 15.851v4.33c-5.301 0-9.601 4.3-9.601 9.6 0 5.31 4.3 9.62 9.6 9.62z" fill="#f6cc4b"/><path d="m734.96 284.37v.01h-7.61v-18.98h7.61z" fill="#f6cc4b"/><path d="m727.35 242.81h7.61v22.59h-7.61z" fill="#f6cc4b"/><path d="m727.35 221.55h7.61v21.26h-7.61z" fill="#f6cc4b"/><path d="m727.35 284.38v.01h-26.67v-18.99h26.67z" fill="#f6cc4b"/><path d="m727.35 242.81v22.59h-26.67v-22.59zm-9.51 14.54v-12.25h-6.859v12.25z" fill="#f6cc4b"/><path d="m727.35 221.55v21.26h-26.67v-21.26zm-9.04 13.93v-12.25h-6.85v12.25z" fill="#f6cc4b"/><path d="m701.4 199.7h25.04.91v21.25.6h-26.67v-21.85z" fill="#f6cc4b"/><path d="m726.44 198.62v1.08h-25.04v-1.18l7.02-11.68h10.82l7.09 11.78z" fill="#c8c8c8"/><path d="m711.46 223.23h6.85v12.25h-6.85z" fill="#f6cc4b"/><path d="m710.98 245.1h6.859v12.25h-6.859z" fill="#f6cc4b"/><path d="m674.17 265.4h25.82v18.98h-25.82z" fill="#f6cc4b"/><path d="m674.17 242.81h25.82v22.59h-25.82z" fill="#f6cc4b"/><path d="m674.17 221.55h25.82v21.26h-25.82z" fill="#f6cc4b"/><path d="m674.17 214.82h25.82v6.73h-25.82z" fill="#f6cc4b"/><path d="m645.62 265.4h26.68v18.97h-26.68z" fill="#f6cc4b"/><path d="m672.3 242.81v22.59h-26.68v-22.59zm-9.73 15.98v-12.26h-6.851v12.26z" fill="#f6cc4b"/><path d="m672.3 221.55v21.26h-26.68v-21.26zm-9.73 13.93v-12.25h-6.851v12.25z" fill="#f6cc4b"/><path d="m671.4 199.68h.9v21.87h-26.68v-21.87h.74z" fill="#f6cc4b"/><path d="m671.4 198.6v1.08h-25.04v-1.2l7.02-11.65h10.81l7.09 11.77z" fill="#c8c8c8"/><path d="m655.72 246.53h6.851v12.26h-6.851z" fill="#f6cc4b"/><path d="m655.72 223.23h6.851v12.25h-6.851z" fill="#f6cc4b"/><path d="m643.65 265.4v18.97h-37.91v-3.96h6.85v-12.25-2.76z" fill="#f6cc4b"/><path d="m643.65 242.81v22.59h-31.06-32.67-32.44-32.68-31.53v-22.59h25.171 32.68 32.42 32.69zm-30.58 15.98v-12.25h-6.84v12.25zm-32.67.24v-12.25h-6.86v12.25zm-32.44 0v-12.25h-6.84v12.25zm-32.67.24v-12.26h-6.85v12.26z" fill="#f6cc4b"/><path d="m643.65 221.55v21.26h-37.42v-5.88h6.84v-12.26-3.12z" fill="#f6cc4b"/><path d="m606.23 246.54h6.84v12.25h-6.84z" fill="#f6cc4b"/><path d="m606.23 224.67h6.84v12.26h-6.84z" fill="#f6cc4b"/><path d="m613.07 221.55v3.12h-6.84v12.26 5.88h-32.69v-5.65h6.86v-12.25-3.36z" fill="#f6cc4b"/><path d="m605.74 268.16h6.85v12.25h-6.85z" fill="#f6cc4b"/><path d="m612.59 265.4v2.76h-6.85v12.25 3.96h-32.67v-3.72h6.85v-12.25-3z" fill="#f6cc4b"/><path d="m573.54 246.78h6.86v12.25h-6.86z" fill="#231f20"/><path d="m573.54 224.91h6.86v12.25h-6.86z" fill="#f6cc4b"/><path d="m580.4 221.55v3.36h-6.86v12.25 5.65h-32.42v-5.65h6.84v-12.25-3.36z" fill="#f6cc4b"/><path d="m573.07 268.4h6.85v12.25h-6.85z" fill="#f6cc4b"/><path d="m579.92 265.4v3h-6.85v12.25 3.72h-32.43v-3.72h6.84v-12.25-3z" fill="#f6cc4b"/><path d="m541.12 246.78h6.84v12.25h-6.84z" fill="#231f20"/><path d="m541.12 224.91h6.84v12.25h-6.84z" fill="#f6cc4b"/><path d="m547.96 221.55v3.36h-6.84v12.25 5.65h-32.68v-5.4h6.85v-12.26-3.6z" fill="#f6cc4b"/><path d="m540.64 268.4h6.841v12.25h-6.841z" fill="#f6cc4b"/><path d="m547.48 265.4v3h-6.84v12.25 3.72h-32.68v-3.47h6.84v-12.26-3.24z" fill="#f6cc4b"/><path d="m535.67 773.96h-342.13s3.1-69.12 16.29-124.2c6.57-27.42 12.36-49.66 15.57-69.479.07.08.14.149.21.229 0 0 49.39-23.85 85.08 7.96 21.11 18.811 27.28 24.601 28.81 26.19-.07.13-.11.189-.11.189s1.16.91.11-.189c2.39-3.83 41.54-65.67 101.49-92.21l.029.08s16.301 18.62 48.881 39.56c32.59 20.95 43.45 57.41 45.77 211.87z" fill="#33a048"/><path d="m508.44 247.01h6.85v12.26h-6.85z" fill="#f6cc4b"/><path d="m508.44 225.15h6.85v12.26h-6.85z" fill="#f6cc4b"/><path d="m515.29 221.55v3.6h-6.85v12.26 5.4h-25.17v-21.26z" fill="#f6cc4b"/><path d="m507.96 268.64h6.84v12.26h-6.84z" fill="#231f20"/><path d="m514.8 265.4v3.24h-6.84v12.26 3.47h-24.69v-18.97z" fill="#f6cc4b"/><path d="m504.64 510.89c-23.01-1.84-44.399 3.04-63.649 11.561-59.95 26.54-99.1 88.38-101.49 92.21-1.53-1.59-7.7-7.38-28.81-26.19-35.69-31.81-85.08-7.96-85.08-7.96-.07-.08-.14-.149-.21-.229.15-.94.3-1.87.44-2.8l1.83.13s5.94-13.96 19.12-33.63c11.05-1.301 64.03-5.33 91.05 32.079 0 0 30.4-37.1 71.38-60.52 16.29-9.31 22.2-11.99 61.29-24.05l1.11-.96c18.049 11.599 33.019 20.359 33.019 20.359z" fill="#fff"/><path d="m480.59 292.11c33.36 27.93 37.24 82.23 3.88 99.3-28.17 14.41-59.66 17.76-68.78 18.45-1.31-27.7-8.66-38.5-44.23-79.48-14.15-16.3-18.1-52.24-18.1-52.24l-1.17-4.58c8.09-2.08 17.22-3.56 26.86-4.37 24.89-2.09 53.23.33 76.05 8.76v6.48h14.21c4.1 2.28 7.89 4.84 11.28 7.68z" fill="#9e5c26"/><path d="m481.77 265.4v19.03h-12.46c-4.399-2.47-9.17-4.63-14.21-6.48v-12.55h.181z" fill="#f6cc4b"/><path d="m481.77 242.81v22.59h-26.49-.18v-22.59zm-9.97 14.78v-12.25h-6.85v12.25z" fill="#f6cc4b"/><path d="m481.77 221.55v21.26h-26.67v-21.26zm-9.49 14.42v-12.26h-6.851v12.26z" fill="#f6cc4b"/><path d="m455.82 199.74h25.05.9v21.81h-26.67v-21.81z" fill="#f6cc4b"/><path d="m480.87 198.66v1.08h-25.05v-1.18l7.03-11.67h10.81l7.08 11.77z" fill="#c8c8c8"/><path d="m465.43 223.71h6.851v12.26h-6.851z" fill="#f6cc4b"/><path d="m464.95 245.34h6.85v12.25h-6.85z" fill="#f6cc4b"/><path d="m471.62 490.53-1.11.96c-39.09 12.06-45 14.74-61.29 24.05-40.98 23.42-71.38 60.52-71.38 60.52-27.02-37.409-80-33.38-91.05-32.079 16.79-25.04 45.32-59.351 88.27-85.86 5.54 13.53 26.15 17.6 43.12 17.6 14.52 0 28.74-9.229 34.75-29.489l.94.27c9.76 11.878 35.99 30.018 57.75 44.028z" fill="#fff"/><path d="m415.69 409.86c.19 4.11.25 8.6.25 13.62 0 8.74-1.09 16.31-3.01 22.75-6.01 20.26-20.23 29.489-34.75 29.489-16.97 0-37.58-4.069-43.12-17.6-.71-1.74-1.18-3.62-1.35-5.68-1.38-16.011-1.14-29.2.38-42.411 3.64-8.11 5.67-15.31 6.71-21.98 2.14-13.45.28-24.76-.37-36.98-1.55-28.96-4.66-69.82-4.66-69.82l-4.13-.65c3.05-1.12 5.91-2.2 8.53-3.23 3.66-1.43 7.69-2.71 12.02-3.81l1.17 4.58s3.95 35.94 18.1 52.24c35.57 40.982 42.92 51.782 44.23 79.482z" fill="#231f20"/><path d="m378.96 268.06.09 1.13c-9.64.81-18.77 2.29-26.86 4.37-4.33 1.1-8.36 2.38-12.02 3.81-2.62 1.03-5.48 2.11-8.53 3.23-35.01 12.85-96.18 30.92-135.62 31.91l18.61-65.42 3.73 1.06h154.13l3.79-.5z" fill="#9e5c26"/><path d="m361.11 132.29 15.17 115.36-3.79.5h-154.13l-3.73-1.06 32.44-114.03z" fill="#9e5c26"/><path d="m272.38 356.4 2.64.02c.01.29.11.6.11 1.3 0 4.87 4.14 8.83 9.26 8.83 5.1 0 9.24-3.96 9.24-8.83 0-1.34.1-1.96-.24-2.73l.47-1.47c-2.79-1.31-5.83-2.05-9.08-1.98-4.43.1-8.98 1.93-12.4 4.86zm-76.17 4.39c-.56-24.9.43-45.41.43-45.41l-.78-2.33.16-.54c39.44-.99 100.61-19.06 135.62-31.91l4.13.65s3.11 40.86 4.66 69.82c.65 12.22 2.51 23.53.37 36.98-4.21.19-13.91 20.57-22.36 33.36-7.75 11.75-19.15 21.58-34.75 25.02-.01.011-.01.011-.01 0-7.59-1.149-14.77-1.55-20.89-.76-2.91.37-5.95.55-9.05.67-1.58-.399-3.35-.87-5.38-1.399-13.48-3.551-30.2 9.34-32.96 11.569-3.66-7.33-6.75-14.91-9.45-21.649-1.09-2.71-2.06-5.771-2.92-9.09 5.2.22 10.27-.98 15.34-2.06 6.32-1.34 12.21.49 18.86.29 5.27-.17 8.27-4.14 5.17-9.83 0 0-3.36-4.65-20.04-.38-7.12 1.82-14.33 2.38-21.51 1.99-.94-5.14-1.7-10.65-2.32-16.35-1.37-12.631-2.04-26.191-2.32-38.641zm2.96-3.22 2.64.01c.01.3.11.6.11 1.3 0 4.87 4.14 8.83 9.26 8.83 5.1 0 9.24-3.96 9.24-8.83 0-1.34.1-1.96-.24-2.73l.47-1.47c-2.79-1.31-5.83-2.05-9.08-1.98-4.43.1-8.98 1.94-12.4 4.87zm92.5 67.45c7.01-1.43 6.92-4.92 8.88-10.75-10.74 1.87-21.67 2-32.41-.74-16.68-4.27-20.04.38-20.04.38-3.1 5.69-.1 9.66 5.17 9.83 6.65.2 12.55-1.63 18.87-.29 6.41 1.37 12.85 2.93 19.53 1.57z" fill="#ffeec8"/><path d="m334.09 410.03c-6.4 14.27-17.79 31.34-37.6 53.25l-1.45-1.3c2.99-3.5 5.64-7.341 7.99-11.37-6.49-1.74-13.06-3.221-19.34-4.181 15.6-3.439 27-13.27 34.75-25.02 8.45-12.79 18.15-33.17 22.36-33.36-1.04 6.671-3.07 13.871-6.71 21.981z" fill="#9e5c26"/><path d="m246.79 543.98c-13.18 19.67-19.12 33.63-19.12 33.63l-1.83-.13c1.9-12.591 2.7-24.23 1.91-35.671-.39-5.67-1.17-11.3-2.4-16.96-7.76-35.68-19.4-60.51-19.4-60.51l-.8-.689 5.45-6.29 4.4-.521s.14-.12.4-.33c14.56 29.181 38.06 54.351 81.06 6.8.01-.01.02-.02.03-.029 19.81-21.91 31.2-38.98 37.6-53.25-1.52 13.21-1.76 26.4-.38 42.411.17 2.06.64 3.939 1.35 5.68-42.95 26.509-71.48 60.819-88.27 85.859z" fill="#33a048"/><path d="m300.55 414.27c-1.96 5.83-1.87 9.32-8.88 10.75-6.68 1.36-13.12-.2-19.53-1.57-6.32-1.34-12.22.49-18.87.29-5.27-.17-8.27-4.14-5.17-9.83 0 0 3.36-4.65 20.04-.38 10.74 2.74 21.67 2.61 32.41.74z" fill="#231f20"/><path d="m303.03 450.61c-2.35 4.029-5 7.87-7.99 11.37-9.2 10.8-21.52 18.31-37.36 17.88-8.85-.25-41.59-10.311-34.95-24.971 5.68-5.42 7.73-7.649 17.31-8.13 4.54-.229 9.18-.25 13.7-.42 9.9 2.53 12.4 2.57 25.14.93 1.64-.21 3.24-.489 4.8-.84 0 .011 0 .011.01 0 6.28.961 12.85 2.441 19.34 4.181z" fill="#231f20"/><path d="m293.86 353.52-.47 1.47c.34.77.24 1.39.24 2.73 0 4.87-4.14 8.83-9.24 8.83-5.12 0-9.26-3.96-9.26-8.83 0-.7-.1-1.01-.11-1.3l-2.64-.02c3.42-2.93 7.97-4.76 12.4-4.86 3.25-.07 6.29.67 9.08 1.98zm-6.19 4.27c0-1.64-1.5-2.97-3.34-2.97s-3.34 1.33-3.34 2.97c0 1.65 1.5 2.98 3.34 2.98s3.34-1.33 3.34-2.98z" fill="#fff"/><path d="m284.33 354.82c1.84 0 3.34 1.33 3.34 2.97 0 1.65-1.5 2.98-3.34 2.98s-3.34-1.33-3.34-2.98c0-1.64 1.5-2.97 3.34-2.97z" fill="#231f20"/><path d="m283.68 446.43c-1.56.351-3.16.63-4.8.84-12.74 1.641-15.24 1.601-25.14-.93 3.1-.12 6.14-.3 9.05-.67 6.12-.79 13.3-.39 20.89.76z" fill="#231f20"/><path d="m242.4 414.17c3.1 5.69.1 9.66-5.17 9.83-6.65.2-12.54-1.63-18.86-.29-5.07 1.08-10.14 2.28-15.34 2.06-.82-3.11-1.54-6.46-2.18-9.99 7.18.39 14.39-.17 21.51-1.99 16.68-4.27 20.04.38 20.04.38z" fill="#231f20"/><path d="m227.75 541.81c.79 11.44-.01 23.08-1.91 35.671-.14.93-.29 1.859-.44 2.8-19.33-21.79-42.65-29.521-61.3-31.771-19.16-2.31-33.41 1.17-33.41 1.17l24.24-28.01c2.77-1.15 37.7-14.729 71.19 20.25z" fill="#fff"/><path d="m227.75 541.81-1.63.11c-33.49-34.979-68.42-21.4-71.19-20.25l50.22-58.02.8.689s11.64 24.83 19.4 60.51c1.23 5.661 2.01 11.291 2.4 16.961z" fill="#fff"/><path d="m221.47 456.07 2.44-3.25c-.49.699-.88 1.39-1.18 2.069-.4.371-.82.771-1.26 1.181z" fill="#231f20"/><path d="m220.65 354.68-.47 1.47c.34.77.24 1.39.24 2.73 0 4.87-4.14 8.83-9.24 8.83-5.12 0-9.26-3.96-9.26-8.83 0-.7-.1-1-.11-1.3l-2.64-.01c3.42-2.93 7.97-4.77 12.4-4.87 3.25-.07 6.29.67 9.08 1.98zm-6.19 4.27c0-1.64-1.49-2.97-3.34-2.97-1.84 0-3.34 1.33-3.34 2.97 0 1.65 1.5 2.98 3.34 2.98 1.85 0 3.34-1.33 3.34-2.98z" fill="#fff"/><path d="m211.12 355.98c1.85 0 3.34 1.33 3.34 2.97 0 1.65-1.49 2.98-3.34 2.98-1.84 0-3.34-1.33-3.34-2.98 0-1.64 1.5-2.97 3.34-2.97z" fill="#231f20"/><path d="m225.4 580.28c-3.21 19.819-9 42.06-15.57 69.479-13.19 55.08-16.29 124.2-16.29 124.2h-96.21s1.56-94.72 36.47-172.3c7.07-15.71 16.29-34.141 30.26-52.76l.04-.391c18.65 2.252 41.97 9.982 61.3 31.772z" fill="#33a048"/><path d="m200.85 415.78c.64 3.53 1.36 6.88 2.18 9.99-1.39-.05-2.79-.2-4.2-.49-7.01-1.43-6.92-4.92-8.88-10.74 3.62.63 7.26 1.06 10.9 1.24z" fill="#231f20"/><path d="m196.21 360.79c.28 12.45.95 26.01 2.32 38.64l-2.41.26s-117.92-4.14-110.68-62.07c5.15-41.17 58.44-28.45 99.56-25.34 3.43.26 7.12.33 11.02.23l-.16.54.78 2.33s-.99 20.51-.43 45.41z" fill="#9e5c26"/><g fill="none"><path d="m378.96 268.06-2.68-20.41-15.17-115.36-114.04.77-32.44 114.03-18.61 65.42-.16.54" stroke="#231f20" stroke-width="14"/><path d="m196.12 399.69s-117.92-4.14-110.68-62.07c5.15-41.17 58.44-28.45 99.56-25.34 3.43.26 7.12.33 11.02.23 39.44-.99 100.61-19.06 135.62-31.91 3.05-1.12 5.91-2.2 8.53-3.23 3.66-1.43 7.69-2.71 12.02-3.81 8.09-2.08 17.22-3.56 26.86-4.37 24.89-2.09 53.23.33 76.05 8.76 5.04 1.85 9.811 4.01 14.21 6.48 4.101 2.28 7.891 4.84 11.28 7.68 33.36 27.93 37.24 82.23 3.88 99.3-28.17 14.41-59.66 17.76-68.78 18.45-1.68.13-2.6.17-2.6.17" stroke="#231f20" stroke-width="14"/><path d="m203.03 425.77c.86 3.32 1.83 6.38 2.92 9.09 2.7 6.739 5.79 14.319 9.45 21.649 14.56 29.181 38.06 54.351 81.06 6.8.01-.01.02-.02.03-.029 19.81-21.91 31.2-38.98 37.6-53.25 3.64-8.11 5.67-15.31 6.71-21.98 2.14-13.45.28-24.76-.37-36.98-1.55-28.96-4.66-69.82-4.66-69.82" stroke="#231f20" stroke-width="14"/><path d="m196.64 315.38s-.99 20.51-.43 45.41c.28 12.45.95 26.01 2.32 38.64.62 5.7 1.38 11.21 2.32 16.35" stroke="#231f20" stroke-width="14"/><path d="m303.98 361.69c-2.82-3.41-6.23-6.35-10.12-8.17-2.79-1.31-5.83-2.05-9.08-1.98-4.43.1-8.98 1.93-12.4 4.86-1.55 1.33-2.88 2.9-3.85 4.62" stroke="#231f20" stroke-linecap="square" stroke-miterlimit="10" stroke-width="6.2066"/><path d="m275.02 356.42c.01.29.11.6.11 1.3 0 4.87 4.14 8.83 9.26 8.83 5.1 0 9.24-3.96 9.24-8.83 0-1.34.1-1.96-.24-2.73" stroke="#231f20" stroke-linecap="square" stroke-miterlimit="10" stroke-width="6.2066"/><path d="m287.67 357.79c0 1.65-1.5 2.98-3.34 2.98s-3.34-1.33-3.34-2.98c0-1.64 1.5-2.97 3.34-2.97s3.34 1.33 3.34 2.97z" stroke="#231f20" stroke-width="3.1033"/><path d="m261.3 344.92c3.95-8.32 19.4-11.56 27.21-10 7.37 1.47 11.01 2.35 18.67 8.29" stroke="#231f20" stroke-width="7"/><path d="m230.77 362.85c-2.82-3.41-6.23-6.35-10.12-8.17-2.79-1.31-5.83-2.05-9.08-1.98-4.43.1-8.98 1.94-12.4 4.87-1.12.96-2.12 2.04-2.96 3.22-.32.45-.62.92-.89 1.4" stroke="#231f20" stroke-linecap="square" stroke-miterlimit="10" stroke-width="6.2066"/><path d="m201.81 357.58c.01.3.11.6.11 1.3 0 4.87 4.14 8.83 9.26 8.83 5.1 0 9.24-3.96 9.24-8.83 0-1.34.1-1.96-.24-2.73" stroke="#231f20" stroke-linecap="square" stroke-miterlimit="10" stroke-width="6.2066"/><path d="m214.46 358.95c0 1.65-1.49 2.98-3.34 2.98-1.84 0-3.34-1.33-3.34-2.98 0-1.64 1.5-2.97 3.34-2.97 1.85 0 3.34 1.33 3.34 2.97z" stroke="#231f20" stroke-width="3.1033"/><path d="m197.35 338.43c6.01-2.51 13.32-3.27 17.95-2.35 7.37 1.47 11.01 2.35 18.67 8.29" stroke="#231f20" stroke-width="7"/><path d="m241.12 347.97s1.65 25.19-3.1 38.79c-7.24 20.69 2.07 16.03 8.79 16.55 6.73.52 12.42-7.24 17.59-4.14s3.62 1.56 6.2-3.62" stroke="#231f20" stroke-width="7"/><path d="m230.12 435.85s11.47 6.471 37.88-.83" stroke="#231f20" stroke-linecap="round" stroke-linejoin="round" stroke-width="14"/><path d="m268.14 413.53c10.74 2.74 21.67 2.61 32.41.74-1.96 5.83-1.87 9.32-8.88 10.75-6.68 1.36-13.12-.2-19.53-1.57-6.32-1.34-12.22.49-18.87.29-5.27-.17-8.27-4.14-5.17-9.83 0 0 3.36-4.65 20.04-.38z" stroke="#231f20" stroke-width="6.2066"/><path d="m203.03 425.77c5.2.22 10.27-.98 15.34-2.06 6.32-1.34 12.21.49 18.86.29 5.27-.17 8.27-4.14 5.17-9.83 0 0-3.36-4.65-20.04-.38-7.12 1.82-14.33 2.38-21.51 1.99-3.64-.18-7.28-.61-10.9-1.24 1.96 5.82 1.87 9.31 8.88 10.74 1.41.29 2.81.44 4.2.49z" stroke="#231f20" stroke-width="6.2066"/><path d="m283.69 446.43c15.6-3.439 27-13.27 34.75-25.02 8.45-12.79 18.15-33.17 22.36-33.36h.14" stroke="#231f20" stroke-width="12.4132"/><path d="m215 456.84s.14-.12.4-.33c2.76-2.229 19.48-15.12 32.96-11.569 2.03.529 3.8 1 5.38 1.399" stroke="#231f20" stroke-width="12.4132"/><path d="m353.36 278.14s3.95 35.94 18.1 52.24c35.57 40.98 42.92 51.78 44.23 79.48.19 4.11.25 8.6.25 13.62 0 8.74-1.09 16.31-3.01 22.75-6.01 20.26-20.23 29.489-34.75 29.489-16.97 0-37.58-4.069-43.12-17.6-.71-1.74-1.18-3.62-1.35-5.68-1.38-16.011-1.14-29.2.38-42.411.19-1.72.41-3.44.65-5.17" stroke="#231f20" stroke-width="14"/><path d="m164.06 548.9c-13.97 18.619-23.19 37.05-30.26 52.76-34.91 77.58-36.47 172.3-36.47 172.3" stroke="#231f20" stroke-width="14"/><path d="m225.61 580.51c-.07-.08-.14-.149-.21-.229-19.33-21.79-42.65-29.521-61.3-31.771-19.16-2.31-33.41 1.17-33.41 1.17l24.24-28.01 50.22-58.02 5.45-6.29" stroke="#231f20" stroke-width="14"/><path d="m205.95 464.34s11.64 24.83 19.4 60.51c1.23 5.66 2.01 11.29 2.4 16.96.79 11.44-.01 23.08-1.91 35.671-.14.93-.29 1.859-.44 2.8-3.21 19.819-9 42.06-15.57 69.479-13.19 55.08-16.29 124.2-16.29 124.2" stroke="#231f20" stroke-width="14"/><path d="m339.5 614.66c2.39-3.83 41.54-65.67 101.49-92.21 19.25-8.521 40.64-13.4 63.649-11.561 0 0-14.97-8.76-33.02-20.359-21.76-14.011-47.99-32.15-57.75-44.03" stroke="#231f20" stroke-width="14"/><path d="m339.5 614.66c1.05 1.1-.11.189-.11.189s.04-.059.11-.189z" stroke="#231f20" stroke-width="14"/><path d="m225.61 580.51s49.39-23.85 85.08 7.96c21.11 18.811 27.28 24.601 28.81 26.19" stroke="#231f20" stroke-width="14"/><path d="m441.02 522.53s16.301 18.62 48.881 39.56c32.59 20.95 43.449 57.41 45.77 211.87" stroke="#231f20" stroke-width="14"/><path d="m227.67 577.61s5.94-13.96 19.12-33.63c16.79-25.04 45.32-59.351 88.27-85.86.41-.26.82-.51 1.23-.76" stroke="#231f20" stroke-width="14"/><path d="m244.74 544.25s.72-.12 2.05-.27c11.05-1.301 64.03-5.33 91.05 32.079 0 0 30.4-37.1 71.38-60.52 16.29-9.31 22.2-11.99 61.29-24.05" stroke="#231f20" stroke-width="14"/><path d="m154.75 521.75s.06-.03.18-.08c2.77-1.15 37.7-14.729 71.19 20.25" stroke="#231f20" stroke-width="14"/><path d="m223.91 452.82c-.49.699-.88 1.39-1.18 2.069-6.64 14.66 26.1 24.721 34.95 24.971 15.84.43 28.16-7.08 37.36-17.88 2.99-3.5 5.64-7.341 7.99-11.37-6.49-1.74-13.06-3.221-19.34-4.181-.01.011-.01.011-.01 0-7.59-1.149-14.77-1.55-20.89-.76-2.91.37-5.95.55-9.05.67-4.52.17-9.16.19-13.7.42-9.58.48-11.63 2.71-17.31 8.13-.4.37-.82.771-1.26 1.181" stroke="#231f20" stroke-width="12.4132"/><path d="m224.57 451.93-.66.89" stroke="#231f20" stroke-width="12.4132"/><path d="m218.36 248.15h154.13" stroke="#231f20" stroke-width="14"/><path d="m643.65 265.4v18.97h-37.91-32.67-32.43-32.68-24.69v-18.97-22.59-21.26-6.73h160.38v6.73 21.26z" stroke="#231f20" stroke-width="6.2066"/><path d="m699.99 265.4v18.98h-25.82v-18.98-22.59-21.26-6.73h25.82v6.73 21.26z" stroke="#231f20" stroke-width="6.2066"/><path d="m672.3 265.4v18.97h-26.68v-18.97-22.59-21.26-21.87h.74 25.04.9v21.87 21.26z" stroke="#231f20" stroke-width="6.2066"/><path d="m671.28 198.6-7.09-11.77h-10.81l-7.02 11.65-.07.12" stroke="#231f20" stroke-width="6.2066"/><path d="m646.36 178.9v19.58 1.2.66" stroke="#231f20" stroke-width="6.2066"/><path d="m671.4 178.9v19.7 1.08.66" stroke="#231f20" stroke-width="6.2066"/><path d="m481.77 265.4v19.03h-12.46-14.21v-6.48-12.55-22.59-21.26-21.81h.72 25.05.9v21.81 21.26z" stroke="#231f20" stroke-width="6.2066"/><path d="m480.74 198.66-7.08-11.77h-10.81l-7.03 11.67-.06.1" stroke="#231f20" stroke-width="6.2066"/><path d="m455.82 178.96v19.6 1.18.66" stroke="#231f20" stroke-width="6.2066"/><path d="m480.87 178.95v19.71 1.08.66" stroke="#231f20" stroke-width="6.2066"/><path d="m727.35 284.38v.01h-26.67v-18.99-22.59-21.26-21.85h.72 25.04.91v21.25.6 21.26 22.59z" stroke="#231f20" stroke-width="6.2066"/><path d="m726.33 198.62-7.09-11.78h-10.82l-7.02 11.68-.06.1" stroke="#231f20" stroke-width="6.2066"/><path d="m701.4 178.92v19.6 1.18.66" stroke="#231f20" stroke-width="6.2066"/><path d="m726.44 178.91v19.71 1.08.66" stroke="#231f20" stroke-width="6.2066"/><path d="m761.63 265.4v18.97h-26.67v-18.97-22.59-21.26-.6-18.26-30.64h26.67v30.64 18.26 21.86z" stroke="#231f20" stroke-width="6.2066"/><path d="m455.28 265.4h26.49 1.5 31.53 32.68 32.44 32.67 31.06 1.97 26.68 1.87 25.82.69 26.67 7.61 26.67.71" stroke="#231f20" stroke-width="6.2066"/><path d="m454.8 242.81h.3 26.67 1.5 25.17 32.68 32.42 32.69 37.42 1.97 26.68 1.87 25.82.69 26.67 7.61 26.67.22" stroke="#231f20" stroke-width="6.2066"/><path d="m452.39 221.55h2.71 26.67 1.5 32.02 32.67 32.44 32.67 30.58 1.97 26.68 1.87 25.82.69 26.67 7.61 24.49" stroke="#231f20" stroke-width="6.2066"/><path d="m764.74 142.86h.84v28.59h-17.43-16.69v-28.59h.84 15.85z" stroke="#231f20" stroke-width="6.2066"/><path d="m748.15 147.19c5.319 0 9.619 4.3 9.619 9.6 0 5.31-4.3 9.62-9.619 9.62-5.301 0-9.601-4.31-9.601-9.62.001-5.3 4.301-9.6 9.601-9.6z" stroke="#231f20" stroke-width="6.2066"/><path d="m764.74 141.9-10.45-24.5v-.25-11.89l-.19-.96-5.58-27.87-5.58 27.87-.19.96v11.89.25l-10.45 24.5" stroke="#231f20" stroke-width="6.2066"/><path d="m742.51 104.3h.43 11.16.19" stroke="#231f20" stroke-width="6.2066"/><path d="m743.6 117.15h9.6" stroke="#231f20" stroke-width="6.2066"/><path d="m725.7 220.95h1.65 7.61 26.29" stroke="#231f20" stroke-width="6.2066"/><path d="m735.3 202.69h26.33.58" stroke="#231f20" stroke-width="6.2066"/><path d="m726.36 284.38h.99 7.61 2.93" stroke="#231f20" stroke-width="6.2066"/><path d="m508.44 225.15h6.85v12.26h-6.85z" stroke="#231f20" stroke-width="6.2066"/><path d="m464.95 245.34h6.85v12.25h-6.85z" stroke="#231f20" stroke-width="6.2066"/><path d="m465.43 223.71h6.851v12.26h-6.851z" stroke="#231f20" stroke-width="6.2066"/><path d="m508.44 247.01h6.85v12.26h-6.85z" stroke="#231f20" stroke-width="6.2066"/><path d="m655.72 223.23h6.851v12.25h-6.851z" stroke="#231f20" stroke-width="6.2066"/><path d="m711.46 223.23h6.85v12.25h-6.85z" stroke="#231f20" stroke-width="6.2066"/><path d="m710.98 245.1h6.859v12.25h-6.859z" stroke="#231f20" stroke-width="6.2066"/><path d="m655.72 246.53h6.851v12.26h-6.851z" stroke="#231f20" stroke-width="6.2066"/><path d="m507.96 268.64h6.84v12.26h-6.84z" stroke="#231f20" stroke-width="6.2066"/><path d="m541.12 224.91h6.84v12.25h-6.84z" stroke="#231f20" stroke-width="6.2066"/><path d="m541.12 246.78h6.84v12.25h-6.84z" stroke="#231f20" stroke-width="6.2066"/><path d="m540.64 268.4h6.841v12.25h-6.841z" stroke="#231f20" stroke-width="6.2066"/><path d="m573.54 224.91h6.86v12.25h-6.86z" stroke="#231f20" stroke-width="6.2066"/><path d="m573.54 246.78h6.86v12.25h-6.86z" stroke="#231f20" stroke-width="6.2066"/><path d="m573.07 268.4h6.85v12.25h-6.85z" stroke="#231f20" stroke-width="6.2066"/><path d="m606.23 224.67h6.84v12.26h-6.84z" stroke="#231f20" stroke-width="6.2066"/><path d="m606.23 246.54h6.84v12.25h-6.84z" stroke="#231f20" stroke-width="6.2066"/><path d="m605.74 268.16h6.85v12.25h-6.85z" stroke="#231f20" stroke-width="6.2066"/><path d="m511.62 203.17v11.29" stroke="#231f20" stroke-linecap="round" stroke-linejoin="round" stroke-width="6.2066"/><path d="m544.72 203.28v11.3" stroke="#231f20" stroke-linecap="round" stroke-linejoin="round" stroke-width="6.2066"/><path d="m577.15 203.1v11.3" stroke="#231f20" stroke-linecap="round" stroke-linejoin="round" stroke-width="6.2066"/><path d="m609.59 203.1v11.3" stroke="#231f20" stroke-linecap="round" stroke-linejoin="round" stroke-width="6.2066"/><path d="m0 0h850.394v850.394h-850.394z"/></g></svg>