<svg enable-background="new 0 0 850.394 850.394" height="850.394" viewBox="0 0 850.394 850.394" width="850.394" xmlns="http://www.w3.org/2000/svg"><path d="m603.53 272.96c10.109 1.12 20.04 3.62 30.2 1.27v-.01c2.68.22 5.329.29 7.649.33-11.09 1.81-22.13 4.31-33.27 5.78-6.96.91-14.65 1.25-20.851-2.9-5.399-3.62-4.27-7.59-7.85-12.3.58-.1 1.189-.22 1.8-.34 7.722 2 13.462 7.19 22.322 8.17z" fill="#fff"/><path d="m633.73 274.23c-10.16 2.35-20.091-.15-30.2-1.27-8.86-.98-14.601-6.17-22.32-8.17 9.55-1.84 22.46-5.34 30.69-1.14 4.51 2.3 6.939 7.22 12.609 9.02 2.66.85 5.95 1.31 9.221 1.55z" fill="#fff"/><path d="m731.02 242.7c1.45-.08 5.461-.41 10.75-1.25l.141.91c-12.53 2.05-26.521 7.15-34.17 14.8-30.681 30.67-32.9 50.96-39.37 67.1l-.58-.22c-14.04 3.3-28.87 4.82-44.19 7.27-22.42 3.58-52.58 11.48-63.3-15.28-8.04-20.07-6.84-47.06-10.189-68.46-1.15-7.36-1.46-13.81-.99-19.79 1.11-14.36 6.689-25.94 15.78-40.56 11.42-18.35 1.869-36.62 1.869-52.57 0-15.94 19.11-24.94 30.711-28.72 34.72-11.29 98.67-16.76 118.199 22.18 7.87 15.68 7.45 37.22 11.021 54.36 3.558 17.04 6.418 43.05 4.318 60.23zm-149.81 22.09c-.61.12-1.22.24-1.8.34 3.58 4.71 2.45 8.68 7.85 12.3 6.2 4.15 13.891 3.81 20.851 2.9 11.14-1.47 22.18-3.97 33.27-5.78-2.32-.04-4.97-.11-7.649-.33-3.271-.24-6.561-.7-9.221-1.55-5.67-1.8-8.1-6.72-12.609-9.02-8.232-4.2-21.142-.7-30.692 1.14z" fill="#fff"/><path d="m756.37 241.43c20.95 1.27 36.08 31.79 39.47 50.97-29.8 42.88-82.63 68.83-157.75 49.5 14.53 1.99 21.391.39 27.94-12.44.859-1.69 1.62-3.42 2.34-5.2 6.47-16.14 8.689-36.43 39.37-67.1 7.649-7.65 21.64-12.75 34.17-14.8 5.27-.86 10.28-1.18 14.46-.93z" fill="#fff"/><path d="m782 146.67c.6 14.62-15.58 24.66-27.86 27.5 4.931.22 35.86-2.84 35.86 34.13 0 22.23-30.95 30.4-48.23 33.15-5.289.84-9.3 1.17-10.75 1.25 2.101-17.18-.76-43.19-4.319-60.23-3.57-17.14-3.15-38.68-11.021-54.36-19.53-38.94-83.48-33.47-118.2-22.18-11.601 3.78-30.711 12.78-30.711 28.72 0 15.95 9.551 34.22-1.869 52.57-9.091 14.62-14.67 26.2-15.78 40.56-19.79-3.11-47.11-15.46-47.11-41.72 0-26.67 20.19-23.43 32.37-22.41-11.189-5.69-31.05-5.65-25.05-35.8 5.479-27.52 38.01-19.2 50.13-15.72-12.13-6.8-26.72-31.03-7.46-50.44 16.09-16.22 41.6-8.42 47.59 10.02.17 2.12.57 4.17 1.22 6.11-.17-2.14-.579-4.18-1.22-6.11-1.16-14.7 9.01-32.38 27.08-32.38 25.5 0 29.36 26.23 28.87 41.91 2.92-15.62 11.83-42.02 39.13-34.57 22 6 17.04 25.82 14.85 39.55 2.91-10.21 22.15-31.22 42.48-10.89 13 13 9.62 33.65-2.03 45.3 14.78-8.35 31.34 9.19 32.03 26.04zm-3.78 58.05c0-10.46-8.479-18.94-18.939-18.94s-18.95 8.48-18.95 18.94c0 10.47 8.49 18.95 18.95 18.95s18.939-8.48 18.939-18.95zm-8-57c0-10.46-8.479-18.94-18.939-18.94s-18.95 8.48-18.95 18.94c0 10.47 8.49 18.95 18.95 18.95s18.939-8.48 18.939-18.95zm-19-49c0-10.46-8.479-18.94-18.939-18.94s-18.95 8.48-18.95 18.94c0 10.47 8.49 18.95 18.95 18.95s18.939-8.48 18.939-18.95zm-47-23c0-10.46-8.479-18.94-18.939-18.94s-18.95 8.48-18.95 18.94c0 10.47 8.49 18.95 18.95 18.95s18.939-8.48 18.939-18.95zm-55-4c0-10.46-8.479-18.94-18.939-18.94s-18.95 8.48-18.95 18.94c0 10.47 8.49 18.95 18.95 18.95s18.939-8.48 18.939-18.95zm-57 15c0-10.46-8.479-18.94-18.939-18.94s-18.95 8.48-18.95 18.94c0 10.47 8.49 18.95 18.95 18.95s18.939-8.48 18.939-18.95zm-32 49c0-10.46-8.479-18.94-18.939-18.94s-18.95 8.48-18.95 18.94c0 10.47 8.49 18.95 18.95 18.95s18.939-8.48 18.939-18.95zm-9 52c0-10.46-8.479-18.94-18.939-18.94s-18.95 8.48-18.95 18.94c0 10.47 8.49 18.95 18.95 18.95s18.939-8.48 18.939-18.95z"/><path d="m759.28 185.78c10.46 0 18.939 8.48 18.939 18.94 0 10.47-8.479 18.95-18.939 18.95s-18.95-8.48-18.95-18.95c0-10.46 8.49-18.94 18.95-18.94z"/><path d="m751.28 128.78c10.46 0 18.939 8.48 18.939 18.94 0 10.47-8.479 18.95-18.939 18.95s-18.95-8.48-18.95-18.95c0-10.46 8.49-18.94 18.95-18.94z"/><path d="m732.28 79.78c10.46 0 18.939 8.48 18.939 18.94 0 10.47-8.479 18.95-18.939 18.95s-18.95-8.48-18.95-18.95c0-10.46 8.49-18.94 18.95-18.94z"/><path d="m685.28 56.78c10.46 0 18.939 8.48 18.939 18.94 0 10.47-8.479 18.95-18.939 18.95s-18.95-8.48-18.95-18.95c0-10.46 8.49-18.94 18.95-18.94z"/><path d="m630.28 52.78c10.46 0 18.939 8.48 18.939 18.94 0 10.47-8.479 18.95-18.939 18.95s-18.95-8.48-18.95-18.95c0-10.46 8.49-18.94 18.95-18.94z"/><path d="m599.59 71.71c.641 1.93 1.05 3.97 1.22 6.11-.65-1.94-1.05-3.99-1.22-6.11z"/><path d="m573.28 67.78c10.46 0 18.939 8.48 18.939 18.94 0 10.47-8.479 18.95-18.939 18.95s-18.95-8.48-18.95-18.95c0-10.46 8.49-18.94 18.95-18.94z"/><path d="m541.28 116.78c10.46 0 18.939 8.48 18.939 18.94 0 10.47-8.479 18.95-18.939 18.95s-18.95-8.48-18.95-18.95c0-10.46 8.49-18.94 18.95-18.94z"/><path d="m532.28 168.78c10.46 0 18.939 8.48 18.939 18.94 0 10.47-8.479 18.95-18.939 18.95s-18.95-8.48-18.95-18.95c0-10.46 8.49-18.94 18.95-18.94z"/><g fill="none"><path d="m579.28 181.94c3.18 7.06 5.489 8.64 14.779 10.45 5.08.99 17.83-.96 20.79-5.37" stroke="#000" stroke-width="9"/><path d="m575.68 164.24c13.4-6.24 13.37-5.11 28.07-5.11 14.92 0 21.09 4.48 21.05 17.66-.08 21.26-25.39 35.63-30.96 53.37-4.899 15.6 24.4 14.82 33.43 14.03" stroke="#000" stroke-width="9"/><path d="m633.73 274.22c2.68.22 5.329.29 7.649.33-11.09 1.81-22.13 4.31-33.27 5.78-6.96.91-14.65 1.25-20.851-2.9-5.399-3.62-4.27-7.59-7.85-12.3.58-.1 1.189-.22 1.8-.34 9.55-1.84 22.46-5.34 30.69-1.14 4.51 2.3 6.939 7.22 12.609 9.02 2.663.85 5.953 1.31 9.223 1.55z" stroke="#000" stroke-width="9"/><path d="m579.28 264.37c.66.12 1.3.26 1.93.42 7.72 2 13.46 7.19 22.32 8.17 10.109 1.12 20.04 3.62 30.2 1.27" stroke="#000" stroke-width="9"/><path d="m648.62 188.09c10.89 9.99 26.05 19.91 47.86 5.62" stroke="#000" stroke-width="9"/><path d="m645.91 168.26c12.66-5.04 28.979-12.28 43.06-9.96 10.67 1.76 17.99 10.05 19.54 15.03" stroke="#000" stroke-width="9"/><path d="m599.59 71.71c-1.16-14.7 9.01-32.38 27.08-32.38 25.5 0 29.36 26.23 28.87 41.91 2.92-15.62 11.83-42.02 39.13-34.57 22 6 17.04 25.82 14.85 39.55 2.91-10.21 22.15-31.22 42.48-10.89 13 13 9.62 33.65-2.03 45.3 14.78-8.35 31.34 9.19 32.03 26.04.6 14.62-15.58 24.66-27.86 27.5 4.931.22 35.86-2.84 35.86 34.13 0 22.23-30.95 30.4-48.23 33.15-5.289.84-9.3 1.17-10.75 1.25 2.101-17.18-.76-43.19-4.319-60.23-3.57-17.14-3.15-38.68-11.021-54.36-19.53-38.94-83.48-33.47-118.2-22.18-11.601 3.78-30.711 12.78-30.711 28.72 0 15.95 9.551 34.22-1.869 52.57-9.091 14.62-14.67 26.2-15.78 40.56-.47 5.98-.16 12.43.99 19.79 3.35 21.4 2.149 48.39 10.189 68.46 10.72 26.76 40.88 18.86 63.3 15.28 15.32-2.45 30.15-3.97 44.19-7.27" stroke="#000" stroke-width="9"/><path d="m599.59 71.71c.641 1.93 1.05 3.97 1.22 6.11-.65-1.94-1.05-3.99-1.22-6.11z" stroke="#000" stroke-width="9"/><path d="m549.12 227.78c-19.79-3.11-47.11-15.46-47.11-41.72 0-26.67 20.19-23.43 32.37-22.41-11.189-5.69-31.05-5.65-25.05-35.8 5.479-27.52 38.01-19.2 50.13-15.72-12.13-6.8-26.72-31.03-7.46-50.44 16.09-16.22 41.6-8.42 47.59 10.02" stroke="#000" stroke-width="9"/><path d="m638.09 341.9c14.53 1.99 21.391.39 27.94-12.44.859-1.69 1.62-3.42 2.34-5.2 6.47-16.14 8.689-36.43 39.37-67.1 7.649-7.65 21.64-12.75 34.17-14.8 5.27-.86 10.28-1.18 14.46-.93 20.95 1.27 36.08 31.79 39.47 50.97" stroke="#000" stroke-width="9"/><path d="m551.22 187.72c0 10.47-8.479 18.95-18.939 18.95s-18.95-8.48-18.95-18.95c0-10.46 8.49-18.94 18.95-18.94s18.939 8.48 18.939 18.94z" stroke="#fff" stroke-width="9"/><path d="m560.22 135.72c0 10.47-8.479 18.95-18.939 18.95s-18.95-8.48-18.95-18.95c0-10.46 8.49-18.94 18.95-18.94s18.939 8.48 18.939 18.94z" stroke="#fff" stroke-width="9"/><path d="m592.22 86.72c0 10.47-8.479 18.95-18.939 18.95s-18.95-8.48-18.95-18.95c0-10.46 8.49-18.94 18.95-18.94s18.939 8.48 18.939 18.94z" stroke="#fff" stroke-width="9"/><path d="m649.22 71.72c0 10.47-8.479 18.95-18.939 18.95s-18.95-8.48-18.95-18.95c0-10.46 8.49-18.94 18.95-18.94s18.939 8.48 18.939 18.94z" stroke="#fff" stroke-width="9"/><path d="m704.22 75.72c0 10.47-8.479 18.95-18.939 18.95s-18.95-8.48-18.95-18.95c0-10.46 8.49-18.94 18.95-18.94s18.939 8.48 18.939 18.94z" stroke="#fff" stroke-width="9"/><path d="m751.22 98.72c0 10.47-8.479 18.95-18.939 18.95s-18.95-8.48-18.95-18.95c0-10.46 8.49-18.94 18.95-18.94s18.939 8.48 18.939 18.94z" stroke="#fff" stroke-width="9"/><path d="m770.22 147.72c0 10.47-8.479 18.95-18.939 18.95s-18.95-8.48-18.95-18.95c0-10.46 8.49-18.94 18.95-18.94s18.939 8.48 18.939 18.94z" stroke="#fff" stroke-width="9"/><path d="m778.22 204.72c0 10.47-8.479 18.95-18.939 18.95s-18.95-8.48-18.95-18.95c0-10.46 8.49-18.94 18.95-18.94s18.939 8.48 18.939 18.94z" stroke="#fff" stroke-width="9"/></g><path d="m276.712 682.449c83.157 0 150.571-28.042 150.571-62.623h.025v41.276h-.025c0 34.581-67.414 62.614-150.571 62.614-82.379 0-149.313-27.512-150.555-61.646v-41.276c1.241 34.135 68.176 61.655 150.555 61.655z" fill="#ffd3f7"/><path d="m276.712 553.05c83.157 0 150.571-28.034 150.571-62.614h.025v41.276h-.025c0 34.58-67.414 62.614-150.571 62.614-82.379 0-149.313-27.513-150.555-61.646v-41.276c1.241 34.133 68.176 61.646 150.555 61.646z" fill="#ffd3f7"/><path d="m276.712 419.396c83.157 0 150.571-28.034 150.571-62.614h.025v41.268h-.025c0 34.58-67.414 62.614-150.571 62.614-82.379 0-149.313-27.513-150.555-61.646v-41.268c1.241 34.134 68.176 61.646 150.555 61.646z" fill="#ffd3f7"/><path d="m427.309 295.939c-8.054 31.427-72.008 55.901-149.711 55.901-80.07 0-145.547-25.989-150.29-58.79-.19-1.266-.281-2.541-.281-3.824 0-34.581 67.414-62.614 150.571-62.614s150.571 28.033 150.571 62.614c0 2.269-.29 4.511-.86 6.713z" fill="#ffd3f7"/><path d="m276.712 460.664c83.157 0 150.571-28.034 150.571-62.614h.025v92.386h-.025c0 34.58-67.414 62.614-150.571 62.614-82.379 0-149.313-27.513-150.555-61.646v-92.386c1.241 34.133 68.176 61.646 150.555 61.646z" fill="#ffd3f7"/><path d="m276.712 594.326c83.157 0 150.571-28.034 150.571-62.614h.025v88.114h-.025c0 34.581-67.414 62.623-150.571 62.623-82.379 0-149.313-27.521-150.555-61.654v-88.114c1.241 34.132 68.176 61.645 150.555 61.645z" fill="#ffd3f7"/><path d="m276.712 723.717c83.157 0 150.571-28.033 150.571-62.614h.025v58.939h-.025c0 34.572-67.414 62.614-150.571 62.614-82.379 0-149.313-27.521-150.555-61.646v-1.846-57.094c1.241 34.135 68.176 61.647 150.555 61.647z" fill="#ffd3f7"/><path d="m277.598 351.84c77.703 0 141.657-24.474 149.711-55.901v60.843h-.025c0 34.581-67.414 62.614-150.571 62.614-82.379 0-149.313-27.512-150.555-61.646v-64.542l1.15-.157c4.742 32.801 70.22 58.789 150.29 58.789z" fill="#ffd3f7"/><path d="m127.308 293.05c-.19-1.266-.281-2.541-.281-3.824 0-34.581 67.414-62.614 150.571-62.614s150.571 28.033 150.571 62.614c0 2.268-.29 4.511-.86 6.712-8.054 31.427-72.008 55.901-149.711 55.901-80.07.001-145.548-25.987-150.29-58.789z" fill="none" stroke="#000" stroke-width="23.8532"/><path d="m126.141 720.042c0-.29.008-.588.017-.877.066-2.053.364-4.081.902-6.075" fill="none" stroke="#000" stroke-width="17.8899"/><path d="m427.283 720.042c0 34.572-67.414 62.614-150.571 62.614-82.379 0-149.313-27.521-150.555-61.646-.008-.323-.017-.646-.017-.969" fill="none" stroke="#000" stroke-width="23.8532"/><path d="m427.283 661.103c0 34.581-67.414 62.614-150.571 62.614-82.379 0-149.313-27.512-150.555-61.646-.008-.322-.017-.646-.017-.969" fill="none" stroke="#000" stroke-dasharray="16.5536 28.9688" stroke-width="17.8899"/><path d="m427.283 619.826c0 34.581-67.414 62.623-150.571 62.623-82.379 0-149.313-27.521-150.555-61.654-.008-.322-.017-.646-.017-.969" fill="none" stroke="#000" stroke-dasharray="16.5536 28.9688" stroke-width="17.8899"/><path d="m427.283 531.712c0 34.58-67.414 62.614-150.571 62.614-82.379 0-149.313-27.513-150.555-61.646-.008-.323-.017-.646-.017-.969" fill="none" stroke="#000" stroke-dasharray="16.5536 28.9688" stroke-width="17.8899"/><path d="m427.283 490.436c0 34.58-67.414 62.614-150.571 62.614-82.379 0-149.313-27.513-150.555-61.646-.008-.323-.017-.646-.017-.969" fill="none" stroke="#000" stroke-dasharray="16.5536 28.9688" stroke-width="17.8899"/><path d="m427.283 398.05c0 34.58-67.414 62.614-150.571 62.614-82.379 0-149.313-27.513-150.555-61.646-.008-.323-.017-.646-.017-.968" fill="none" stroke="#000" stroke-dasharray="16.5536 28.9688" stroke-width="17.8899"/><path d="m427.283 356.782c0 34.581-67.414 62.614-150.571 62.614-82.379 0-149.313-27.512-150.555-61.646-.008-.323-.017-.646-.017-.968" fill="none" stroke="#000" stroke-dasharray="16.5536 28.9688" stroke-width="17.8899"/><path d="m427.309 295.906v.033 60.843 41.268 92.386 41.276 88.114 41.277 58.939 3.518" fill="none" stroke="#000" stroke-width="23.8532"/><path d="m126.157 725.555v-4.544-1.846-57.094-41.276-88.114-41.277-92.386-41.268-64.542" fill="none" stroke="#000" stroke-width="23.8532"/><path d="m0 0h850.394v850.394h-850.394z" fill="none"/></svg>