<svg enable-background="new 0 0 850.394 850.394" height="850.394" viewBox="0 0 850.394 850.394" width="850.394" xmlns="http://www.w3.org/2000/svg"><path d="m710.31 420.9 2.69-30.75c1.03.75 1.99 1.51 2.89 2.28 5.36 4.61 9.521 9.3 12.75 13.8l-2.819 12.95 2.09.46v35.6c-24.98 20.38-83.83 28.95-132.74 28.95-60.78 0-113.26-15.58-137.82-38.12l-1.689-8.681-5.32-27.33c1.24-.34 2.46-.69 3.66-1.06 1.68-.83 3.41-1.72 5.18-2.66 4.63-2.44 9.521-5.19 14.5-8.01.471-.26.931-.52 1.4-.79 6.03-3.4 12.18-6.88 18.17-10.02 4.13-2.17 8.18-4.17 12.05-5.87.88-.39 1.75-.76 2.61-1.12 1.5-.62 3-1.21 4.51-1.79 4.14-1.57 8.33-2.99 12.561-4.28 13.859-4.26 28.149-7.18 42.35-9.98 21.36-4.2 53.05-2.88 74.1-.06 11.65 1.56 29.08 6.01 44.86 12.09 7.67 2.95 14.95 6.29 20.979 9.87l2.631 34.48z" fill="#be0000"/><path d="m740.07 432.43c-.011-.47-.03-.949-.07-1.43l15.23-46.44 1.649.54-9.3 56.99c0 36.851-68.34 66.93-152.65 66.93-92.97 0-140.37-39.27-140.37-39.27-3.399-3.4-28.93-15.26-95.68-15.26-38 0-111.83 2-145.4 18.79-23.68 11.85-59.67 20.3-87.56 14.13-48.21-10.66-52.74-43.4-36.14-64.61 26-33.2 69.7-27.98 97.42-27.45 67.61 1.3 194.23 33.48 263.14 14.71l5.32 27.33 1.689 8.681c24.561 22.54 77.04 38.12 137.82 38.12 48.91 0 107.76-8.57 132.74-28.95 7.852-6.401 12.362-13.971 12.162-22.811z" fill="#be0000"/><g fill="none"><path d="m440.59 368.25 3.42 7 15.17 31.09 5.48 11.22" stroke="#000" stroke-linecap="round" stroke-miterlimit="10" stroke-width="14.0913"/><path d="m459.44 351.35 11.23 33.15 4.41 13.04 1.96 5.79" stroke="#000" stroke-linecap="round" stroke-miterlimit="10" stroke-width="14.0913"/><path d="m469.13 377.46 1.54 7.04 3.01 13.83 7.14 32.75" stroke="#000" stroke-linecap="round" stroke-miterlimit="10" stroke-width="14.0913"/><path d="m481.03 334.64 8.97 54.15" stroke="#000" stroke-linecap="round" stroke-miterlimit="10" stroke-width="14.0913"/><path d="m735.22 376.09-4.75 21.75-1.83 8.39-2.82 12.95-2.3 10.53" stroke="#000" stroke-linecap="round" stroke-miterlimit="10" stroke-width="14.0913"/><path d="m714.74 370.24-1.74 19.91-2.69 30.75-.35 4.01" stroke="#000" stroke-linecap="round" stroke-miterlimit="10" stroke-width="14.0913"/><path d="m760 370-4.77 14.56-15.23 46.44" stroke="#000" stroke-linecap="round" stroke-miterlimit="10" stroke-width="14.0913"/><path d="m746.45 354.27-15.98 43.57-1.62 4.43" stroke="#000" stroke-linecap="round" stroke-miterlimit="10" stroke-width="14.0913"/><path d="m724.86 338.28-8.97 54.15" stroke="#000" stroke-linecap="round" stroke-miterlimit="10" stroke-width="14.0913"/><path d="m501.38 330.19 3.92 51.46.25 3.26" stroke="#000" stroke-linecap="round" stroke-miterlimit="10" stroke-width="14.0913"/><path d="m521.1 323.58 3.88 50.88.29 3.84" stroke="#000" stroke-linecap="round" stroke-miterlimit="10" stroke-width="14.0913"/><path d="m538.75 311.18 2.63 54.81" stroke="#000" stroke-linecap="round" stroke-miterlimit="10" stroke-width="14.0913"/><path d="m558.91 310.58 2.63 54.82" stroke="#000" stroke-linecap="round" stroke-miterlimit="10" stroke-width="14.0913"/><path d="m577.5 305.5 2.64 54.83" stroke="#000" stroke-linecap="round" stroke-miterlimit="10" stroke-width="14.0913"/><path d="m597.67 304.92 2.62 54.81" stroke="#000" stroke-linecap="round" stroke-miterlimit="10" stroke-width="14.0913"/><path d="m617.21 306.05 2.64 54.83" stroke="#000" stroke-linecap="round" stroke-miterlimit="10" stroke-width="14.0913"/><path d="m637.37 305.47 2.64 54.81" stroke="#000" stroke-linecap="round" stroke-miterlimit="10" stroke-width="14.0913"/><path d="m659.12 310.49 2.63 54.82" stroke="#000" stroke-linecap="round" stroke-miterlimit="10" stroke-width="14.0913"/><path d="m682.19 316.97-2.64 54.82" stroke="#000" stroke-linecap="round" stroke-miterlimit="10" stroke-width="14.0913"/><path d="m703.33 323.95-7.65 54.35" stroke="#000" stroke-linecap="round" stroke-miterlimit="10" stroke-width="14.0913"/><path d="m491.7 378.15 1.55 9.37 7.41 44.78" stroke="#000" stroke-linecap="round" stroke-miterlimit="10" stroke-width="14.0913"/><path d="m512.04 373.7.38 5.04 3.79 49.68" stroke="#000" stroke-linecap="round" stroke-miterlimit="10" stroke-width="14.0913"/><path d="m532.18 372.54 4.17 54.72" stroke="#000" stroke-linecap="round" stroke-miterlimit="10" stroke-width="14.0913"/><path d="m551.2 378.4 8.96 54.14" stroke="#000" stroke-linecap="round" stroke-miterlimit="10" stroke-width="14.0913"/><path d="m571.54 373.95 4.17 54.72" stroke="#000" stroke-linecap="round" stroke-miterlimit="10" stroke-width="14.0913"/><path d="m591.67 372.79 4.18 54.72" stroke="#000" stroke-linecap="round" stroke-miterlimit="10" stroke-width="14.0913"/><path d="m607.63 371.62 8.96 54.15" stroke="#000" stroke-linecap="round" stroke-miterlimit="10" stroke-width="14.0913"/><path d="m627.97 367.17 4.18 54.72" stroke="#000" stroke-linecap="round" stroke-miterlimit="10" stroke-width="14.0913"/><path d="m648.1 366.01 4.18 54.72" stroke="#000" stroke-linecap="round" stroke-miterlimit="10" stroke-width="14.0913"/><path d="m665.25 371.75 8.96 54.15" stroke="#000" stroke-linecap="round" stroke-miterlimit="10" stroke-width="14.0913"/><path d="m685.59 367.3.7 9.21 3.48 45.51" stroke="#000" stroke-linecap="round" stroke-miterlimit="10" stroke-width="14.0913"/><path d="m705.72 366.14 1.55 20.24 2.63 34.48" stroke="#000" stroke-linecap="round" stroke-miterlimit="10" stroke-width="14.0913"/><path d="m756.88 385.1-9.3 56.99c0 36.851-68.34 66.93-152.65 66.93-92.97 0-140.37-39.27-140.37-39.27-3.399-3.4-28.93-15.26-95.68-15.26-38 0-111.83 2-145.4 18.79-23.68 11.85-59.67 20.3-87.56 14.13-48.21-10.66-52.74-43.4-36.14-64.61 26-33.2 69.7-27.98 97.42-27.45 67.61 1.3 194.23 33.48 263.14 14.71 1.24-.34 2.46-.69 3.66-1.06" stroke="#000" stroke-linecap="square" stroke-miterlimit="10" stroke-width="14.0913"/><path d="m443.6 375.45 6.74 34.61 5.32 27.33 1.689 8.681c24.561 22.54 77.04 38.12 137.82 38.12 48.91 0 107.76-8.57 132.74-28.95 7.85-6.4 12.359-13.971 12.16-22.811-.011-.47-.03-.949-.07-1.43" stroke="#000" stroke-linecap="square" stroke-miterlimit="10" stroke-width="14.0913"/><path d="m469.22 411.26 3.82 42.97" stroke="#000" stroke-linecap="square" stroke-miterlimit="10" stroke-width="14.0913"/><path d="m489.44 422.38v41.1" stroke="#000" stroke-linecap="square" stroke-miterlimit="10" stroke-width="14.0913"/><path d="m508 428.25v40.51" stroke="#000" stroke-linecap="square" stroke-miterlimit="10" stroke-width="14.0913"/><path d="m529.06 434.71v37.57" stroke="#000" stroke-linecap="square" stroke-miterlimit="10" stroke-width="14.0913"/><path d="m549.52 437.64v37.58" stroke="#000" stroke-linecap="square" stroke-miterlimit="10" stroke-width="14.0913"/><path d="m570.07 439.99v37.58" stroke="#000" stroke-linecap="square" stroke-miterlimit="10" stroke-width="14.0913"/><path d="m588.86 439.99v37.58" stroke="#000" stroke-linecap="square" stroke-miterlimit="10" stroke-width="14.0913"/><path d="m608.82 439.99v37.58" stroke="#000" stroke-linecap="square" stroke-miterlimit="10" stroke-width="14.0913"/><path d="m629.96 439.99v37.58" stroke="#000" stroke-linecap="square" stroke-miterlimit="10" stroke-width="14.0913"/><path d="m649.33 436.47v37.57" stroke="#000" stroke-linecap="square" stroke-miterlimit="10" stroke-width="14.0913"/><path d="m669.88 433.24v37.58" stroke="#000" stroke-linecap="square" stroke-miterlimit="10" stroke-width="14.0913"/><path d="m687.98 426.39v37.58" stroke="#000" stroke-linecap="square" stroke-miterlimit="10" stroke-width="14.0913"/><path d="m707.36 422.87v37.57" stroke="#000" stroke-linecap="square" stroke-miterlimit="10" stroke-width="14.0913"/><path d="m727.91 419.64v35.6 1.98" stroke="#000" stroke-linecap="square" stroke-miterlimit="10" stroke-width="14.0913"/><path d="m454 409c1.68-.83 3.41-1.72 5.18-2.66 4.63-2.44 9.521-5.19 14.5-8.01.471-.26.931-.52 1.4-.79 6.03-3.4 12.18-6.88 18.17-10.02 4.13-2.17 8.18-4.17 12.05-5.87.88-.39 1.75-.76 2.61-1.12 1.5-.62 3-1.21 4.51-1.79 4.14-1.57 8.33-2.99 12.561-4.28 13.859-4.26 28.149-7.18 42.35-9.98 21.36-4.2 53.05-2.88 74.1-.06 11.65 1.56 29.08 6.01 44.86 12.09 7.67 2.95 14.95 6.29 20.979 9.87 2.07 1.23 3.99 2.48 5.73 3.77 1.03.75 1.99 1.51 2.89 2.28 5.36 4.61 9.521 9.3 12.75 13.8 8.28 11.54 10.471 21.8 11.431 26.2.229 1.061.39 1.78.54 2.101" stroke="#000" stroke-miterlimit="10" stroke-width="14"/><path d="m0 0h850.394v850.394h-850.394z"/></g></svg>