<svg enable-background="new 0 0 850.394 850.394" height="850.394" viewBox="0 0 850.394 850.394" width="850.394" xmlns="http://www.w3.org/2000/svg"><path d="m500.38 197.61v.13h-76.13-4.13-78.72l31.63-29.99 95.72-.13z" fill="#ffffc2"/><path d="m608.32 417.96h16.43s74.78-1.64 91.21 28.76c16.44 30.4 43.55 127.36 43.55 127.36s11.41 32.229-52.17 42.72c-2.5.42-5.12.8-7.859 1.141-51.341 6.409-503.24 6.409-554.59 0-2.74-.341-5.36-.721-7.86-1.141-63.57-10.49-52.17-42.72-52.17-42.72s27.12-96.96 43.55-127.36c16.44-30.4 91.21-28.76 91.21-28.76h14z" fill="#ffffc2"/><path d="m707.34 616.8-40.68 112.59s-6.58 28.761-41.91 28.761c-27.12 0-378.01 0-405.13 0-35.33 0-41.91-28.761-41.91-28.761l-40.68-112.59c2.5.42 5.12.8 7.86 1.141 51.35 6.409 503.25 6.409 554.59 0 2.74-.341 5.36-.721 7.86-1.141z" fill="#ffffc2"/><path d="m666.66 127.07c14.09 35.4 26.22 63.93 30 72.76-23.38-3.09-47.26-2.09-47.26-2.09h-149.02v-.13l-31.63-29.99-95.72.13-31.63 29.99h-146.43s-23.88-1-47.26 2.09c3.78-8.83 15.91-37.36 30-72.76 11.64-29.22 49.31-38.89 59.17-38.89h183.24 4.13 183.25c9.86 0 47.53 9.67 59.16 38.89z" fill="#ffffc2"/><path d="m696.66 199.83c13.6 1.79 27.53 16.75 26.7 27.49-4.391 56.7-7.32 95.89-11.66 125.33-4.49 30.47-40.11 29.98-77.09 29.98s-387.87 0-424.851 0c-36.98 0-72.59.49-77.09-29.98-4.33-29.44-7.27-68.63-11.65-125.33-.84-10.74 13.09-25.7 26.69-27.49 23.38-3.09 47.26-2.09 47.26-2.09h146.431 78.72 4.13 76.13 149.02s23.88-1 47.26 2.09z" fill="#ffffc2"/><g fill="none"><path d="m707.34 616.8c-2.5.42-5.12.8-7.859 1.141-51.341 6.409-503.24 6.409-554.59 0-2.74-.341-5.36-.721-7.86-1.141-63.57-10.49-52.17-42.72-52.17-42.72s27.12-96.96 43.55-127.36c16.44-30.4 91.21-28.76 91.21-28.76h14 374.7 16.43s74.78-1.64 91.21 28.76c16.44 30.4 43.55 127.36 43.55 127.36s11.409 32.23-52.171 42.72z" stroke="#231f20" stroke-width="21"/><path d="m137.03 616.79v.01l40.68 112.59s6.58 28.761 41.91 28.761h405.13c35.33 0 41.91-28.761 41.91-28.761l40.68-112.59v-.01" stroke="#231f20" stroke-width="21"/><path d="m146.49 202.67s.43-.98 1.22-2.84c3.78-8.83 15.91-37.36 30-72.76 11.64-29.22 49.31-38.89 59.17-38.89h183.24 4.13 183.25c9.86 0 47.53 9.67 59.16 38.89 14.09 35.4 26.22 63.93 30 72.76.79 1.86 1.22 2.84 1.22 2.84" stroke="#231f20" stroke-width="21"/><path d="m696.66 199.83c13.6 1.79 27.53 16.75 26.7 27.49-4.391 56.7-7.32 95.89-11.66 125.33-4.49 30.47-40.11 29.98-77.09 29.98s-387.87 0-424.851 0c-36.98 0-72.59.49-77.09-29.98-4.33-29.44-7.27-68.63-11.65-125.33-.84-10.74 13.09-25.7 26.69-27.49 23.38-3.09 47.26-2.09 47.26-2.09h146.431 78.72 4.13 76.13 149.02s23.88-1 47.26 2.09z" stroke="#231f20" stroke-width="21"/><path d="m500.38 197.61-31.63-29.99-95.72.13-31.63 29.99" stroke="#231f20" stroke-width="21"/><path d="m233.62 389.19v28.77.68" stroke="#231f20" stroke-width="21"/><path d="m608.32 389.19v28.77.68" stroke="#231f20" stroke-width="21"/><path d="m0 0h850.394v850.394h-850.394z"/></g></svg>