<svg enable-background="new 0 0 850.394 850.394" height="850.394" viewBox="0 0 850.394 850.394" width="850.394" xmlns="http://www.w3.org/2000/svg"><path d="m763.87 267.85-148.28 421.75-.18-.06-30.82-10.84 148.28-421.75z" fill="#fff"/><path d="m732.87 256.95-148.28 421.75-32.59-11.45 148.27-421.76z" fill="#a3d9ff"/><path d="m700.27 245.49-148.27 421.76-443.55-155.96-.55-.19 148.26-421.74z" fill="#fff"/><path d="m615.59 689.6-11.45 32.58-.18-.06-30.82-10.84 11.45-32.58 30.82 10.84z" fill="#a3d9ff"/><path d="m604.14 722.18-11.46 32.59-31-10.9 11.46-32.59 30.82 10.84z" fill="#fff"/><path d="m545.303 671.994h34.534v34.543h-34.534z" fill="#33a02c" transform="matrix(.3316 -.9434 .9434 .3316 -274.2343 991.4738)"/><path d="m573.14 711.28-11.46 32.59-32.59-11.45 11.46-32.59z" fill="#a3d9ff"/><path d="m108.45 511.29 443.55 155.96-11.45 32.58-443.56-155.94-.55-.19 11.46-32.6z" fill="#a3d9ff"/><path d="m540.55 699.83-11.46 32.59-444.11-156.13 11.46-32.59.55.19z" fill="#fff"/><g fill="none"><path d="m604.14 722.18-11.46 32.59-31-10.9-32.59-11.45-444.11-156.13 11.46-32.59 11.46-32.6 148.26-421.74 444.11 156.13 32.6 11.46 31 10.9-148.28 421.75z" stroke="#000" stroke-width="20.2232"/><path d="m732.87 256.95-148.28 421.75-11.45 32.58-11.46 32.59" stroke="#000" stroke-width="20.2232"/><path d="m700.27 245.49-148.27 421.76-11.45 32.58-11.46 32.59" stroke="#000" stroke-width="20.2232"/><path d="m108.45 511.29 443.55 155.96 32.59 11.45 30.82 10.84" stroke="#000" stroke-width="20.2232"/><path d="m96.99 543.89 443.56 155.94 32.59 11.45 30.82 10.84" stroke="#000" stroke-width="20.2232"/><path d="m0 0h850.394v850.394h-850.394z"/></g></svg>