<svg enable-background="new 0 0 850.394 850.394" height="850.394" viewBox="0 0 850.394 850.394" width="850.394" xmlns="http://www.w3.org/2000/svg"><path d="m150.33 493.72h38.32v206.681h-38.32z" fill="#f6cc4b"/><path d="m653.53 493.71h38.319v206.69h-38.319z" fill="#f6cc4b"/><path d="m725.46 487.75h-115l58.99-28.64c.399 1.3 1.8 2.26 3.45 2.26.8 0 1.529-.22 2.119-.59z" fill="#eedceb"/><path d="m553.23 487.75h-113.4l59.09-29.37c.5.22 1.061.351 1.66.351 1.07 0 2.03-.4 2.68-1.03l54.34 29.05v1h-4.37z" fill="#eedceb"/><path d="m284.47 486.75 54.34-29.05c.65.63 1.61 1.03 2.69 1.03.6 0 1.16-.131 1.66-.351l59.09 29.37h-113.41-4.37z" fill="#eedceb"/><path d="m343.16 458.38c1.14-.5 1.91-1.51 1.91-2.68 0-.42-.1-.83-.29-1.19l73.29-39.19c.62.43 1.41.69 2.27.69 1.13 0 2.15-.45 2.8-1.15l74.15 39.65c-.19.36-.29.771-.29 1.19 0 1.17.78 2.18 1.92 2.68l-59.09 29.37h-20.31-4.51-12.76z" fill="#eedceb"/><path d="m256.79 415.44c.75-.55 1.23-1.37 1.23-2.29 0-.32-.06-.63-.17-.92l79.79-42.66.9.46c-.19.36-.29.76-.29 1.18 0 1.67 1.6 3.03 3.57 3.03 1.12 0 2.13-.44 2.78-1.14l73.76 37.37c-.96.55-1.59 1.47-1.59 2.52 0 .32.06.63.17.92.21.56.61 1.05 1.13 1.41l-73.29 39.19c-.55-1.069-1.81-1.83-3.28-1.83-1.98 0-3.57 1.36-3.57 3.021 0 .03 0 .05.01.08z" fill="#eedceb"/><path d="m256.79 415.44 81.15 40.34c.01.739.34 1.41.87 1.92l-54.34 29.05v1h-52.86l-58.99-28.64c.08-.25.12-.511.12-.78 0-.19-.02-.37-.06-.55l79.33-42.42c.63.51 1.49.82 2.44.82.9 0 1.71-.28 2.34-.74z" fill="#eedceb"/><path d="m231.61 487.75h-114.99l50.44-26.97c.59.37 1.32.59 2.11.59 1.65 0 3.05-.96 3.45-2.26z" fill="#eedceb"/><path d="m86.34 330.71 81.43 40.48c-1.11.51-1.85 1.51-1.85 2.65 0 .6.21 1.16.57 1.63l-79.08 42.29-8.3-4.03c-.06-8.09-.09-16.55-.09-25.24 0-20.27-2.2-37.51-2.88-52.32z" fill="#eedceb"/><path d="m165.6 458.33c0 1.01.57 1.9 1.46 2.45l-50.44 26.97h-36.34s-.77-27.67-1.1-65.59l8.23-4.4 79.22 38.45c-.63.55-1.03 1.29-1.03 2.12z" fill="#eedceb"/><path d="m231.61 487.75h-114.99l50.44-26.97c.59.37 1.32.59 2.11.59 1.65 0 3.05-.96 3.45-2.26z" fill="#eedceb"/><path d="m165.6 458.33c0 1.01.57 1.9 1.46 2.45l-50.44 26.97h-36.34s-.77-27.67-1.1-65.59l8.23-4.4 79.22 38.45c-.63.55-1.03 1.29-1.03 2.12z" fill="#eedceb"/><path d="m256.79 415.44c.75-.55 1.23-1.37 1.23-2.29 0-.32-.06-.63-.17-.92l79.79-42.66.9.46c-.19.36-.29.76-.29 1.18 0 1.67 1.6 3.03 3.57 3.03 1.12 0 2.13-.44 2.78-1.14l73.76 37.37c-.96.55-1.59 1.47-1.59 2.52 0 .32.06.63.17.92.21.56.61 1.05 1.13 1.41l-73.29 39.19c-.55-1.069-1.81-1.83-3.28-1.83-1.98 0-3.57 1.36-3.57 3.021 0 .03 0 .05.01.08z" fill="#eedceb"/><path d="m256.79 415.44 81.15 40.34c.01.739.34 1.41.87 1.92l-54.34 29.05v1h-52.86l-58.99-28.64c.08-.25.12-.511.12-.78 0-.19-.02-.37-.06-.55l79.33-42.42c.63.51 1.49.82 2.44.82.9 0 1.71-.28 2.34-.74z" fill="#eedceb"/><path d="m343.16 458.38c1.14-.5 1.91-1.51 1.91-2.68 0-.42-.1-.83-.29-1.19l73.29-39.19c.62.43 1.41.69 2.27.69 1.13 0 2.15-.45 2.8-1.15l74.15 39.65c-.19.36-.29.771-.29 1.19 0 1.17.78 2.18 1.92 2.68l-59.09 29.37h-20.31-4.51-12.76z" fill="#eedceb"/><path d="m86.34 330.71 81.43 40.48c-1.11.51-1.85 1.51-1.85 2.65 0 .6.21 1.16.57 1.63l-79.08 42.29-8.3-4.03c-.06-8.09-.09-16.55-.09-25.24 0-20.27-2.2-37.51-2.88-52.32z" fill="#eedceb"/><path d="m257.44 323.58c-1.98 0-3.57 1.36-3.57 3.03 0 .18.02.36.06.54l-80.87-40.97c0-.57-.2-1.1-.53-1.55l82.04-43.87c.64.75 1.68 1.24 2.86 1.24 1.46 0 2.72-.74 3.27-1.81l79.97 40.52c-1.41.4-2.43 1.54-2.43 2.87v.05l-77.67 41.53c-.6-.94-1.78-1.58-3.13-1.58z" fill="#eedceb"/><path d="m173.06 286.18 80.87 40.97c.09.45.31.87.62 1.23l-82.03 43.87c-.63-.86-1.75-1.43-3.03-1.43-.62 0-1.21.14-1.72.37l-81.43-40.48 80.15-42.85c.64.83 1.74 1.37 2.99 1.37 1.98 0 3.58-1.35 3.58-3.03 0-.01 0-.01 0-.02z" fill="#eedceb"/><path d="m173.06 373.82 77.89 38.72c-.05.2-.07.4-.07.61 0 .87.43 1.66 1.13 2.21l-79.33 42.42c-.3-1.4-1.76-2.46-3.51-2.46-1 0-1.89.34-2.54.89l-79.22-38.45 79.08-42.29c.63.84 1.73 1.4 3 1.4 1.97 0 3.57-1.36 3.57-3.03 0-.01 0-.01 0-.02z" fill="#eedceb"/><path d="m337.64 369.57-79.79 42.66c-.46-1.22-1.8-2.1-3.4-2.1-1.72 0-3.16 1.03-3.5 2.41l-77.89-38.72c0-.58-.2-1.12-.54-1.57l82.03-43.87c.64.76 1.7 1.25 2.89 1.25.37 0 .74-.05 1.08-.15z" fill="#eedceb"/><path d="m167.83 283.53c-1.14.5-1.92 1.51-1.92 2.67 0 .61.21 1.18.58 1.66l-80.15 42.85-10.2 5.46c-1.16-25.57 2.22-43.93 29.26-58.25 18.8-9.95 56.94 1.01 102.74-64.36l46.48 23.55c-.48.51-.76 1.16-.76 1.86 0 .67.26 1.29.71 1.79l-82.04 43.87c-.63-.87-1.76-1.45-3.05-1.45-.59 0-1.16.12-1.65.35z" fill="#eedceb"/><path d="m669.45 459.11-58.99 28.64h-52.86v-1l-54.34-29.05c.54-.51.87-1.181.88-1.92l80.46-40c.641.8 1.73 1.33 2.96 1.33 1.301 0 2.44-.58 3.051-1.46l78.779 42.12c-.04.181-.06.37-.06.561 0 .269.04.529.12.779z" fill="#eedceb"/><path d="m284.14 165.81c54.76-15.86 118.01-15.3 133.22-14.9-2.27.06-3.5.11-3.5.11l.32 4.4-70.03 37.45c-.65-.55-1.54-.89-2.54-.89-1.28 0-2.4.57-3.03 1.42z" fill="#eedceb"/><path d="m669.02 286.2c0 1.68 1.591 3.03 3.57 3.03 1.26 0 2.36-.54 2.99-1.37l80.15 42.86-81.421 40.47c-.51-.23-1.09-.37-1.72-.37-1.29 0-2.41.57-3.03 1.43l-82.04-43.87c.32-.36.54-.78.631-1.23l80.869-40.98c.001.01.001.02.001.03z" fill="#eedceb"/><path d="m343.4 280.87 77.4-41.38c.15 0 .29-.01.43-.03l77.44 41.41c-1.01.42-1.74 1.24-1.93 2.21l-74.26 37.63-.01.02c-.59-.38-1.33-.6-2.13-.6-.5 0-.97.09-1.4.24l-73.6-37.29c-.19-.97-.93-1.79-1.94-2.21z" fill="#eedceb"/><path d="m698.14 267.51-1.68 4.76-22.22 11.26c-.49-.23-1.05-.35-1.65-.35-1.29 0-2.42.58-3.04 1.45l-82.04-43.87c.44-.5.7-1.12.7-1.79 0-.69-.28-1.34-.76-1.85l46.479-23.55c24.091 34.38 46.061 47.64 64.211 53.94z" fill="#eedceb"/><path d="m421.23 239.46c1.75-.19 3.12-1.46 3.12-3 0-.93-.5-1.76-1.28-2.32l74.291-37.64c.609.91 1.77 1.52 3.1 1.52 1.55 0 2.87-.83 3.37-2l77.66 41.53c-.271.42-.42.91-.42 1.42 0 .43.109.85.31 1.22l-79.97 40.53c-.36-.11-.75-.17-1.15-.17-.569 0-1.109.11-1.59.32z" fill="#eedceb"/><path d="m557.26 166.15-53.77 27.25c-.63-.85-1.75-1.42-3.03-1.42-.99 0-1.88.34-2.53.88l-70.03-37.44-.021-4.65c25.421-.06 80.981 1.61 129.381 15.38z" fill="#eedceb"/><path d="m423.9 413.28c.01-.1.02-.19.02-.29 0-.81-.38-1.56-1.01-2.11l74.56-37.78c.65.7 1.66 1.14 2.78 1.14 1.97 0 3.58-1.36 3.58-3.03 0-.42-.1-.83-.29-1.19l.9-.45 80.14 42.86c-.37.47-.59 1.04-.59 1.65 0 .63.229 1.22.609 1.7l-80.46 40c.011-.03.011-.05.011-.08 0-1.66-1.601-3.021-3.57-3.021-1.48 0-2.74.761-3.29 1.83l-74.15-39.65c.42-.439.7-.989.76-1.579z" fill="#eedceb"/><path d="m417.43 150.91c2.4-.06 5.95-.13 10.45-.14l.021 4.65 70.029 37.44c-.64.55-1.04 1.3-1.04 2.14 0 .55.17 1.06.471 1.5l-74.291 37.64c-.63-.43-1.42-.7-2.3-.7-.77 0-1.49.21-2.07.55l-73.99-37.48c.31-.44.48-.96.48-1.51 0-.84-.4-1.58-1.04-2.13l70.03-37.45-.32-4.4s1.23-.05 3.5-.11z" fill="#eedceb"/><path d="m675.02 460.78c.891-.55 1.461-1.44 1.461-2.45 0-.83-.4-1.57-1.04-2.12l79.22-38.45 8.24 4.4c-.341 37.92-1.11 65.59-1.11 65.59h-36.33z" fill="#eedceb"/><path d="m670.74 458.49 4.279 2.29c-.59.37-1.319.59-2.119.59-1.65 0-3.051-.96-3.45-2.26z" fill="#eedceb"/><path d="m258.52 329.48c1.44-.38 2.49-1.52 2.49-2.87 0-.52-.16-1.02-.44-1.45l77.67-41.53c.03 1.65 1.62 2.97 3.57 2.97 1.98 0 3.58-1.35 3.58-3.02 0-.17-.02-.34-.05-.5l73.6 37.29c-1.28.46-2.17 1.54-2.17 2.78 0 1.32.98 2.43 2.36 2.85l-81.49 43.57z" fill="#eedceb"/><path d="m337.64 369.57 81.49-43.57c.38.12.78.18 1.21.18.73 0 1.42-.19 1.99-.51h.01l82.101 43.9-.9.45c-.55-1.07-1.82-1.83-3.29-1.83-1.97 0-3.57 1.36-3.57 3.02 0 .71.29 1.37.79 1.89l-74.56 37.78c-.65-.56-1.56-.91-2.57-.91-.73 0-1.41.19-1.98.5l-73.761-37.37c.5-.52.79-1.18.79-1.89 0-1.66-1.6-3.02-3.57-3.02-1.47 0-2.74.76-3.28 1.84z" fill="#eedceb"/><path d="m284.14 165.81 54.44 27.59c-.34.46-.54 1.01-.54 1.6 0 .36.07.7.21 1.02l-77.66 41.52c-.61-.95-1.79-1.59-3.16-1.59-1.14 0-2.16.45-2.81 1.16l-46.48-23.55c.52-.73 1.03-1.48 1.55-2.23 15.34-22.39 43.54-36.57 74.45-45.52z" fill="#eedceb"/><path d="m675.44 456.21-4.7 2.28-1.351-.721c.311-1.39 1.771-2.449 3.511-2.449 1 0 1.89.34 2.54.89z" fill="#eedceb"/><path d="m669.02 373.84c0 1.67 1.591 3.03 3.57 3.03 1.26 0 2.37-.56 3-1.4l79.07 42.29-79.22 38.45c-.65-.55-1.54-.89-2.54-.89-1.74 0-3.2 1.06-3.511 2.449l-78.779-42.12c.33-.46.52-.99.52-1.57 0-.49-.14-.95-.38-1.35l78.27-38.91z" fill="#eedceb"/><path d="m669.02 373.82-78.27 38.91c-.59-.99-1.79-1.67-3.19-1.67-1.25 0-2.34.54-2.979 1.37l-80.14-42.86 79.109-40.09c.34.1.7.15 1.08.15 1.19 0 2.25-.49 2.89-1.25l82.04 43.87c-.34.45-.54.99-.54 1.57z" fill="#eedceb"/><path d="m417.2 236.46c0 1.67 1.6 3.03 3.57 3.03h.03l-77.4 41.38c-.48-.21-1.02-.32-1.59-.32-.4 0-.79.06-1.14.16l-79.97-40.52c.2-.37.31-.79.31-1.22 0-.51-.15-1-.42-1.43l77.66-41.52c.49 1.17 1.81 2 3.36 2 1.33 0 2.48-.61 3.1-1.51l73.99 37.48c-.91.56-1.5 1.45-1.5 2.47z" fill="#eedceb"/><path d="m669.02 286.17-80.869 40.98c.04-.18.06-.36.06-.54 0-1.67-1.6-3.03-3.58-3.03-1.35 0-2.53.64-3.13 1.58l-77.67-41.53c0-.02 0-.03 0-.05 0-1.33-1.01-2.46-2.42-2.86l79.97-40.53c.54 1.07 1.8 1.81 3.26 1.81 1.181 0 2.221-.49 2.87-1.24l82.04 43.87c-.331.45-.521.97-.531 1.54z" fill="#eedceb"/><path d="m633.93 213.57-46.479 23.55c-.641-.71-1.66-1.17-2.811-1.17-1.37 0-2.55.65-3.149 1.6l-77.66-41.53c.14-.32.21-.66.21-1.02 0-.59-.2-1.14-.55-1.6l53.77-27.25c31.5 8.98 59.971 23.08 75.12 45.18.519.76 1.039 1.5 1.549 2.24z" fill="#eedceb"/><path d="m755.73 330.72 10.199 5.44c-.68 14.81-2.88 32.05-2.88 52.33 0 8.69-.03 17.15-.09 25.24l-8.3 4.03-79.07-42.29c.36-.47.57-1.03.57-1.63 0-1.14-.75-2.13-1.851-2.65z" fill="#eedceb"/><path d="m736.67 277.92c27.05 14.32 30.42 32.67 29.26 58.24l-10.199-5.44-80.15-42.86c.37-.48.58-1.05.58-1.66 0-1.16-.78-2.17-1.92-2.67l22.22-11.26 1.68-4.76c16.369 5.67 29.619 5.69 38.529 10.41z" fill="#eedceb"/><path d="m583.55 329.48-79.109 40.09-82.101-43.9c.86-.5 1.46-1.3 1.56-2.22.01-.1.02-.2.02-.3 0-.99-.57-1.87-1.45-2.42l.01-.02 74.26-37.63c-.03.16-.05.33-.05.5 0 1.67 1.59 3.02 3.569 3.02 1.95 0 3.54-1.32 3.57-2.97l77.67 41.53c-.28.43-.44.93-.44 1.45.001 1.35 1.051 2.49 2.491 2.87z" fill="#eedceb"/><path d="m583.98 238.88 3.529 1.88c-.649.75-1.689 1.24-2.87 1.24-1.46 0-2.72-.74-3.26-1.81z" fill="#eedceb"/><g fill="none"><path d="m288.84 487.75h113.41 12.76" stroke="#231f20" stroke-width="21"/><path d="m417.36 150.91c-15.21-.4-78.46-.96-133.22 14.9-30.91 8.95-59.11 23.13-74.45 45.52-.52.75-1.03 1.5-1.55 2.23-45.8 65.37-83.94 54.41-102.74 64.36-27.04 14.32-30.42 32.68-29.26 58.25.68 14.81 2.88 32.05 2.88 52.32 0 8.69.03 17.15.09 25.24.02 2.86.04 5.67.07 8.43.33 37.92 1.1 65.59 1.1 65.59h36.34 114.99 52.86 4.37" stroke="#231f20" stroke-width="21"/><path d="m420.77 151.02s-1.17-.05-3.34-.11" stroke="#231f20" stroke-width="21"/><path d="m173.06 286.18v.02c0 1.68-1.6 3.03-3.58 3.03-1.25 0-2.35-.54-2.99-1.37-.37-.48-.58-1.05-.58-1.66 0-1.16.78-2.17 1.92-2.67.49-.23 1.06-.35 1.65-.35 1.29 0 2.42.58 3.05 1.45.33.45.53.98.53 1.55z" stroke="#231f20" stroke-width="15.0773"/><path d="m173.06 373.82v.02c0 1.67-1.6 3.03-3.57 3.03-1.27 0-2.37-.56-3-1.4-.36-.47-.57-1.03-.57-1.63 0-1.14.74-2.14 1.85-2.65.51-.23 1.1-.37 1.72-.37 1.28 0 2.4.57 3.03 1.43.34.45.54.99.54 1.57z" stroke="#231f20" stroke-width="15.0773"/><path d="m172.68 457.78c.04.18.06.359.06.55 0 .27-.04.53-.12.78-.4 1.3-1.8 2.26-3.45 2.26-.79 0-1.52-.22-2.11-.59-.89-.55-1.46-1.44-1.46-2.45 0-.83.4-1.57 1.03-2.12.65-.55 1.54-.89 2.54-.89 1.75 0 3.21 1.06 3.51 2.46z" stroke="#231f20" stroke-width="15.0773"/><path d="m260.59 237.54c.27.43.42.92.42 1.43 0 .43-.11.85-.31 1.22-.55 1.07-1.81 1.81-3.27 1.81-1.18 0-2.22-.49-2.86-1.24-.45-.5-.71-1.12-.71-1.79 0-.7.28-1.35.76-1.86.65-.71 1.67-1.16 2.81-1.16 1.37 0 2.55.64 3.16 1.59z" stroke="#231f20" stroke-width="15.0773"/><path d="m260.57 325.16c.28.43.44.93.44 1.45 0 1.35-1.05 2.49-2.49 2.87-.34.1-.71.15-1.08.15-1.19 0-2.25-.49-2.89-1.25-.31-.36-.53-.78-.62-1.23-.04-.18-.06-.36-.06-.54 0-1.67 1.59-3.03 3.57-3.03 1.35 0 2.53.64 3.13 1.58z" stroke="#231f20" stroke-width="15.0773"/><path d="m257.85 412.23c.11.29.17.6.17.92 0 .92-.48 1.74-1.23 2.29-.63.46-1.44.74-2.34.74-.95 0-1.81-.31-2.44-.82-.7-.55-1.13-1.34-1.13-2.21 0-.21.02-.41.07-.61.34-1.38 1.78-2.41 3.5-2.41 1.6 0 2.94.88 3.4 2.1z" stroke="#231f20" stroke-width="15.0773"/><path d="m345.34 283.08c.03.16.05.33.05.5 0 1.67-1.6 3.02-3.58 3.02-1.95 0-3.54-1.32-3.57-2.97 0-.02 0-.03 0-.05 0-1.33 1.02-2.47 2.43-2.87.35-.1.74-.16 1.14-.16.57 0 1.11.11 1.59.32 1.01.42 1.75 1.24 1.94 2.21z" stroke="#231f20" stroke-width="15.0773"/><path d="m344.15 192.87c.64.55 1.04 1.29 1.04 2.13 0 .55-.17 1.07-.48 1.51-.62.9-1.77 1.51-3.1 1.51-1.55 0-2.87-.83-3.36-2-.14-.32-.21-.66-.21-1.02 0-.59.2-1.14.54-1.6.63-.85 1.75-1.42 3.03-1.42 1 0 1.89.34 2.54.89z" stroke="#231f20" stroke-width="15.0773"/><path d="m338.54 370.03c.54-1.08 1.81-1.84 3.28-1.84 1.97 0 3.57 1.36 3.57 3.02 0 .71-.29 1.37-.79 1.89-.65.7-1.66 1.14-2.78 1.14-1.97 0-3.57-1.36-3.57-3.03 0-.42.1-.82.29-1.18z" stroke="#231f20" stroke-width="15.0773"/><path d="m344.78 454.51c.19.36.29.771.29 1.19 0 1.17-.77 2.18-1.91 2.68-.5.22-1.06.351-1.66.351-1.08 0-2.04-.4-2.69-1.03-.53-.51-.86-1.181-.87-1.92-.01-.03-.01-.05-.01-.08 0-1.66 1.59-3.021 3.57-3.021 1.47 0 2.73.76 3.28 1.83z" stroke="#231f20" stroke-width="15.0773"/><path d="m145.61 272.27 22.22 11.26 3.47 1.76 1.76.89 80.87 40.97 1.5.76 3.09 1.57 79.12 40.09.9.46 6.06 3.07 73.76 37.37 2.68 1.36 2.86 1.45 2.53 1.28" stroke="#231f20" stroke-width="7"/><path d="m78.71 326.92 7.63 3.79 81.43 40.48 3.48 1.73 1.81.9 77.89 38.72 3.28 1.63 2.56 1.27 81.15 40.34 2.31 1.15 2.91 1.45 59.09 29.37.62.31" stroke="#231f20" stroke-width="7"/><path d="m77.98 413.18 1.13.55 8.3 4.03 79.22 38.45 4.71 2.28 1.28.62 58.99 28.64 2.23 1.08" stroke="#231f20" stroke-width="7"/><path d="m204.98 211.96 3.16 1.6 46.48 23.55 3.48 1.77 2.6 1.31 79.97 40.52 1.55.79 3.12 1.58 73.6 37.29.66.34" stroke="#231f20" stroke-width="7"/><path d="m280.36 163.9 3.78 1.91 54.44 27.59 2.35 1.19 3.78 1.92 73.99 37.48 2.33 1.18 2.56 1.3" stroke="#231f20" stroke-width="7"/><path d="m73.99 424.93 5.19-2.77 8.23-4.4 79.08-42.29 4.76-2.55 1.27-.67 82.03-43.87.88-.47 5.14-2.75 77.67-41.53 3.98-2.13 1.18-.63 77.4-41.38.24-.13.56-.3" stroke="#231f20" stroke-width="7"/><path d="m73.61 337.52 2.53-1.35 10.2-5.46 80.15-42.85 4.81-2.57 1.23-.66 82.04-43.87 3.53-1.88 2.49-1.34 77.66-41.52 2.68-1.43 3.22-1.72 70.03-37.45" stroke="#231f20" stroke-width="7"/><path d="m110.75 490.89 5.87-3.14 50.44-26.97 4.28-2.29 1.34-.71 79.33-42.42 2.22-1.19 3.62-1.94 79.79-42.66 81.49-43.57 1.91-1.02 2.86-1.53.61-.33" stroke="#231f20" stroke-width="7"/><path d="m284.47 486.75 54.34-29.05 1.44-.77 4.53-2.42 73.29-39.19 2.97-1.58.89-.48" stroke="#231f20" stroke-width="7"/><path d="m553.23 487.75h-113.4-20.31-4.51" stroke="#231f20" stroke-width="21"/><path d="m413.86 151.02s1.23-.05 3.5-.11h.07c2.4-.06 5.95-.13 10.45-.14 25.42-.06 80.98 1.61 129.38 15.38 31.5 8.98 59.971 23.08 75.12 45.18.521.76 1.04 1.5 1.55 2.24 24.09 34.38 46.061 47.64 64.21 53.94 16.37 5.67 29.62 5.69 38.53 10.41 27.05 14.32 30.42 32.67 29.26 58.24-.68 14.81-2.88 32.05-2.88 52.33 0 8.69-.03 17.15-.09 25.24-.02 2.86-.04 5.67-.06 8.43-.341 37.92-1.11 65.59-1.11 65.59h-36.33-115-52.86-4.369" stroke="#231f20" stroke-width="21"/><path d="m669.02 286.17v.03c0 1.68 1.591 3.03 3.57 3.03 1.26 0 2.36-.54 2.99-1.37.37-.48.58-1.05.58-1.66 0-1.16-.78-2.17-1.92-2.67-.49-.23-1.05-.35-1.65-.35-1.29 0-2.42.58-3.04 1.45-.33.45-.52.97-.53 1.54z" stroke="#231f20" stroke-width="15.0773"/><path d="m669.02 373.82v.02c0 1.67 1.591 3.03 3.57 3.03 1.26 0 2.37-.56 3-1.4.36-.47.57-1.03.57-1.63 0-1.14-.75-2.13-1.851-2.65-.51-.23-1.09-.37-1.72-.37-1.29 0-2.41.57-3.03 1.43-.339.45-.539.99-.539 1.57z" stroke="#231f20" stroke-width="15.0773"/><path d="m669.39 457.77c-.04.181-.06.37-.06.561 0 .27.04.53.12.78.399 1.3 1.8 2.26 3.45 2.26.8 0 1.529-.22 2.119-.59.891-.55 1.461-1.44 1.461-2.45 0-.83-.4-1.57-1.04-2.12-.65-.55-1.54-.89-2.54-.89-1.74-.001-3.2 1.059-3.51 2.449z" stroke="#231f20" stroke-width="15.0773"/><path d="m581.49 237.55c-.271.42-.42.91-.42 1.42 0 .43.109.85.31 1.22.54 1.07 1.8 1.81 3.26 1.81 1.181 0 2.221-.49 2.87-1.24.44-.5.7-1.12.7-1.79 0-.69-.28-1.34-.76-1.85-.641-.71-1.66-1.17-2.811-1.17-1.369 0-2.549.65-3.149 1.6z" stroke="#231f20" stroke-width="15.0773"/><path d="m581.5 325.16c-.28.43-.44.93-.44 1.45 0 1.35 1.051 2.49 2.49 2.87.34.1.7.15 1.08.15 1.19 0 2.25-.49 2.89-1.25.32-.36.54-.78.631-1.23.04-.18.06-.36.06-.54 0-1.67-1.6-3.03-3.58-3.03-1.351 0-2.531.64-3.131 1.58z" stroke="#231f20" stroke-width="15.0773"/><path d="m584.58 412.43c-.37.47-.59 1.04-.59 1.65 0 .63.229 1.22.609 1.7.641.8 1.73 1.33 2.96 1.33 1.301 0 2.44-.58 3.051-1.46.33-.46.52-.99.52-1.57 0-.49-.14-.95-.38-1.35-.59-.99-1.79-1.67-3.19-1.67-1.25 0-2.34.54-2.98 1.37z" stroke="#231f20" stroke-width="15.0773"/><path d="m496.74 283.08c-.03.16-.05.33-.05.5 0 1.67 1.59 3.02 3.569 3.02 1.95 0 3.54-1.32 3.57-2.97 0-.02 0-.03 0-.05 0-1.33-1.01-2.46-2.42-2.86-.36-.11-.75-.17-1.15-.17-.569 0-1.109.11-1.59.32-1.009.42-1.739 1.24-1.929 2.21z" stroke="#231f20" stroke-width="15.0773"/><path d="m497.93 192.86c-.64.55-1.04 1.3-1.04 2.14 0 .55.17 1.06.471 1.5.609.91 1.77 1.52 3.1 1.52 1.55 0 2.87-.83 3.37-2 .14-.32.21-.66.21-1.02 0-.59-.2-1.14-.55-1.6-.63-.85-1.75-1.42-3.03-1.42-.991 0-1.881.34-2.531.88z" stroke="#231f20" stroke-width="15.0773"/><path d="m418.7 233.99c-.91.56-1.5 1.45-1.5 2.47 0 1.67 1.6 3.03 3.57 3.03h.03c.15 0 .29-.01.43-.03 1.75-.19 3.12-1.46 3.12-3 0-.93-.5-1.76-1.28-2.32-.63-.43-1.42-.7-2.3-.7-.77 0-1.49.21-2.07.55z" stroke="#231f20" stroke-width="15.0773"/><path d="m422.34 325.67c.86-.5 1.46-1.3 1.56-2.22.01-.1.02-.2.02-.3 0-.99-.57-1.87-1.45-2.42-.59-.38-1.33-.6-2.13-.6-.5 0-.97.09-1.4.24-1.28.46-2.17 1.54-2.17 2.78 0 1.32.98 2.43 2.36 2.85.38.12.78.18 1.21.18.73 0 1.42-.19 1.99-.51" stroke="#231f20" stroke-width="15.0773"/><path d="m418.36 410.47c-.96.55-1.59 1.47-1.59 2.52 0 .32.06.63.17.92.21.56.61 1.05 1.13 1.41.62.43 1.41.69 2.27.69 1.13 0 2.15-.45 2.8-1.15.42-.44.7-.99.76-1.58.01-.1.02-.19.02-.29 0-.81-.38-1.56-1.01-2.11-.65-.56-1.56-.91-2.57-.91-.73 0-1.41.19-1.98.5z" stroke="#231f20" stroke-width="15.0773"/><path d="m503.54 370.02c-.55-1.07-1.82-1.83-3.29-1.83-1.97 0-3.57 1.36-3.57 3.02 0 .71.29 1.37.79 1.89.65.7 1.66 1.14 2.78 1.14 1.97 0 3.58-1.36 3.58-3.03 0-.42-.1-.83-.29-1.19z" stroke="#231f20" stroke-width="15.0773"/><path d="m497.29 454.51c-.19.36-.29.771-.29 1.19 0 1.17.78 2.18 1.92 2.68.5.22 1.061.351 1.66.351 1.07 0 2.03-.4 2.68-1.03.54-.51.87-1.181.88-1.92.011-.03.011-.05.011-.08 0-1.66-1.601-3.021-3.57-3.021-1.481 0-2.741.76-3.291 1.83z" stroke="#231f20" stroke-width="15.0773"/><path d="m696.46 272.27-22.22 11.26-3.47 1.76-1.75.88-80.87 40.98-1.5.76-3.1 1.57-79.11 40.09-.9.45-6.07 3.08-74.56 37.78-1.87.95-4.1 2.08-1.29.65" stroke="#231f20" stroke-width="7"/><path d="m763.37 326.92-7.64 3.8-81.42 40.47-3.49 1.73-1.8.9-78.27 38.91-2.9 1.44-3.25 1.61-80.46 40-2.31 1.15-2.91 1.45-59.09 29.37-.62.31" stroke="#231f20" stroke-width="7"/><path d="m764.09 413.18-1.13.55-8.3 4.03-79.22 38.45-4.7 2.28-1.29.62-58.99 28.64-2.23 1.08" stroke="#231f20" stroke-width="7"/><path d="m637.1 211.96-3.17 1.61-46.48 23.55-3.47 1.76-2.6 1.31-79.97 40.53-1.56.78-3.11 1.58-74.26 37.63" stroke="#231f20" stroke-width="7"/><path d="m561.71 163.9-4.45 2.25-53.77 27.25-2.35 1.18-3.78 1.92-74.29 37.64-2.04 1.03-2.56 1.3" stroke="#231f20" stroke-width="7"/><path d="m768.08 424.93-5.18-2.77-8.24-4.4-79.07-42.29-4.77-2.55-1.26-.67-82.04-43.87-.87-.47-5.15-2.75-77.67-41.53-3.98-2.13-1.18-.63-77.44-41.41-.19-.1-.56-.3" stroke="#231f20" stroke-width="7"/><path d="m768.46 337.52-2.53-1.36-10.2-5.44-80.15-42.86-4.81-2.57-1.22-.66-82.04-43.87-3.53-1.88-2.49-1.33-77.66-41.53-2.69-1.44-3.21-1.72-70.03-37.44" stroke="#231f20" stroke-width="7"/><path d="m731.33 490.89-5.87-3.14-50.44-26.97-4.28-2.29-1.35-.72-78.78-42.12-2.76-1.48-3.27-1.74-80.14-42.86-82.1-43.9h-.01l-1.29-.69-3.48-1.86" stroke="#231f20" stroke-width="7"/><path d="m557.6 486.75-54.34-29.05-1.43-.77-4.54-2.42-74.15-39.65-2.1-1.12-.89-.48" stroke="#231f20" stroke-width="7"/><path d="m150.33 493.72h38.32v206.681h-38.32z" stroke="#231f20" stroke-width="14"/><path d="m653.53 493.71h38.319v206.69h-38.319z" stroke="#231f20" stroke-width="14"/><path d="m0 0h850.394v850.394h-850.394z"/></g></svg>