<svg enable-background="new 0 0 850.394 850.394" height="850.394" viewBox="0 0 850.394 850.394" width="850.394" xmlns="http://www.w3.org/2000/svg"><path d="m426.75 106.99c53.17 0 103.54 11.87 148.57 32.5 14.72 6.75 28.88 14.43 42.37 22.94 93.78 59.17 155.64 158.35 155.64 261.07 0 32.29-8.59 65.84-19.89 94.91.939-6.3 1.64-12.67 2.079-19.101.391-5.59.591-11.22.591-16.89 0-86.29-45.49-163.51-117.13-215.18-40.83-29.45-90.16-50.6-144.41-60.38-22.15-4.01-45.12-6.11-68.67-6.11-23.85 0-47.11 2.16-69.53 6.26-148.98 27.231-260.67 140.201-260.67 275.411 0 8.26.42 16.43 1.24 24.51-.61.761-1.22 1.521-1.82 2.29l-.03.011c-9.7-27.12-14.91-55.91-14.91-85.73 0-106.75 66.81-209.69 166.84-267.86 13.76-8 28.16-15.16 43.1-21.35 41.92-17.421 88.11-27.301 136.63-27.301z" fill="#c8c8c8"/><path d="m290 134 .12.29c-14.94 6.19-29.34 13.35-43.1 21.35l-1.75-2.96-18.67-44.73c-5.16-12.35.67-26.55 13.03-31.7 3.05-1.28 6.22-1.88 9.33-1.88 9.48 0 18.49 5.6 22.37 14.9z" fill="#c8c8c8"/><path d="m624 84.96c12.35 5.16 18.19 19.35 13.03 31.7l-18.67 44.73-.67 1.04c-13.49-8.51-27.65-16.19-42.37-22.94l.68-1.49 16.3-40.01c3.88-9.3 12.891-14.9 22.38-14.9 3.11 0 6.27.6 9.32 1.87z" fill="#c8c8c8"/><path d="m626.75 553.22h118.83c-11.53 38.03-32.15 72.94-59.76 102.95h-38.45c-8.44-21.73-19.6-58.53-20.62-102.95z" fill="#fff400"/><path d="m577.01 391.68c15.7 3.39 32.561 8.13 49.88 14.72l-.22 2.43v137.78c0 2.22.03 4.42.08 6.609h-81.77c0-67.31 0-165.12 0-165.12l.22-1.83c9.84 1.231 20.53 2.971 31.81 5.411z" fill="#fff400"/><path d="m545.2 386.27-.22 1.83v165.12h-63.94l-4.64-102.93c8.43-9.79 13.449-22.13 13.449-35.54 0-10.94-3.34-21.16-9.13-29.87l3.021-.71s24.86-2.48 61.46 2.1z" fill="#fff400"/><path d="m551.17 656.17h-65.49l-4.64-102.95h63.94v42.971c0 22.009 2.56 42.289 6.19 59.979z" fill="#fff400"/><path d="m551.17 656.17h96.2c5.27 13.58 9.47 21.28 9.47 21.28l2.55 4.14c-59.75 50.97-142.31 82.5-233.49 82.5l1.02-107.92h58.76z" fill="#fff400"/><path d="m481.04 553.22 4.64 102.95h-58.76l.98-102.95z" fill="#fff400"/><path d="m427.9 553.22-.98 102.95h-59.45l4.65-102.95z" fill="#fff400"/><path d="m367.47 656.17-.47 10.37s-5.31 64.18-28.65 87.52v.011c-21.14-4.94-41.44-11.63-60.66-19.891 0 0 16.85-30.859 25.37-78.01z" fill="#fff400"/><path d="m426.92 656.17-1.02 107.92c-30.31 0-59.67-3.479-87.55-10.02v-.011c23.34-23.34 28.65-87.52 28.65-87.52l.47-10.37h59.45z" fill="#fff400"/><path d="m372.12 553.22-4.65 102.95h-64.41c2.88-15.939 4.8-33.74 4.8-52.84 0-12.561 0-30.26 0-50.11z" fill="#fff400"/><path d="m307.86 553.22v50.11c0 19.1-1.92 36.9-4.8 52.84h-94.93c8.39-23.42 18.04-59.67 18.04-102.42 0-.18 0-.35 0-.53z" fill="#fff400"/><path d="m208.13 656.17h94.93c-8.52 47.15-25.37 78.01-25.37 78.01-30.17-12.94-57.69-29.71-81.69-49.58 0 0 5.69-10.43 12.13-28.43z" fill="#fff400"/><path d="m166.03 656.17h42.1c-6.44 18-12.13 28.43-12.13 28.43-10.73-8.869-20.75-18.359-29.99-28.409z" fill="#fff400"/><path d="m226.17 553.22v.53c0 42.75-9.65 79-18.04 102.42h-42.1l-.02.021c-27.62-30.011-48.25-64.931-59.78-102.971z" fill="#fff400"/><path d="m226.17 415.97v137.25h-119.94-.01c-3.52-11.58-6.19-23.45-7.96-35.56-.52-3.55-.96-7.13-1.32-10.73 37.22-46.64 82.05-74.77 124.48-91.63z" fill="#fff400"/><path d="m376.78 449.92-4.66 103.3h-64.26c0-66.87 0-157.979 0-157.979l-.22-1.83c36.13-4.52 60.82-2.16 61.45-2.1-3.5 7.16-5.44 15.09-5.44 23.44 0 13.239 4.9 25.439 13.13 35.169z" fill="#fff400"/><path d="m275.83 398.83s0 0 0-.01c11.28-2.44 21.97-4.18 31.81-5.41l.22 1.83v157.979h-81.69c0-54.87 0-137.25 0-137.25l-4.75-.67c18.91-7.509 37.34-12.789 54.41-16.469z" fill="#fff400"/><path d="m428.36 420.23c15.04 0 27.229 18.93 27.229 42.28 0 23.351-12.189 42.28-27.229 42.28-15.03 0-27.22-18.93-27.22-42.28s12.19-42.28 27.22-42.28z" fill="#fff400"/><path d="m428.36 504.79c15.04 0 27.229-18.93 27.229-42.28s-12.189-42.28-27.229-42.28c-15.03 0-27.22 18.93-27.22 42.28s12.19 42.28 27.22 42.28zm48.04-54.5 4.64 102.93h-53.14-55.78l4.66-103.3c-8.23-9.729-13.13-21.93-13.13-35.17 0-8.35 1.94-16.28 5.44-23.44 2.51-5.13 5.81-9.87 9.77-14.07 11.57-12.31 28.73-20.11 47.89-20.11 16.34 0 31.22 5.67 42.43 14.97 4.48 3.72 8.37 8.02 11.54 12.78 5.79 8.71 9.13 18.93 9.13 29.87 0 13.41-5.02 25.75-13.45 35.54z" fill="#fff400"/><path d="m275.83 398.82v.01c-17.07 3.68-35.5 8.96-54.41 16.47-42.43 16.86-87.26 44.99-124.48 91.63-.82-8.08-1.24-16.25-1.24-24.51 0-135.21 111.69-248.18 260.67-275.41l.79 4.34s22.43 51.16 21.97 96.68-.46 69.03-.46 69.03l.19.18c-3.96 4.2-7.26 8.94-9.77 14.07-.63-.06-25.32-2.42-61.45 2.1-9.84 1.23-20.53 2.97-31.81 5.41z" fill="#fff400"/><path d="m378.67 377.06s0-23.51.46-69.03-21.97-96.68-21.97-96.68l-.79-4.34c22.42-4.1 45.68-6.26 69.53-6.26 23.55 0 46.52 2.1 68.67 6.11-4.521 11.04-21.261 54.65-20.851 94.03.45 45.52.45 69.03.45 69.03l-4.99 2.18c-11.21-9.3-26.09-14.97-42.43-14.97-19.16 0-36.32 7.8-47.89 20.11z" fill="#fff400"/><path d="m494.57 206.86c54.25 9.78 103.58 30.93 144.41 60.38l-4.381 3.19s-33.85 39.67-45.729 80.48c-10.76 36.97-11.771 40.44-11.86 40.77-11.279-2.44-21.97-4.18-31.81-5.41-36.601-4.58-61.46-2.1-61.46-2.1l-3.021.71c-3.17-4.76-7.06-9.06-11.54-12.78l4.99-2.18s0-23.51-.45-69.03c-.409-39.38 16.331-82.99 20.851-94.03z" fill="#fff400"/><path d="m756.11 482.42c0 5.67-.2 11.3-.591 16.89-38.479-48.01-85.02-76.33-128.63-92.91-17.319-6.59-34.18-11.33-49.88-14.72.09-.33 1.101-3.8 11.86-40.77 11.88-40.81 45.729-80.48 45.729-80.48l4.381-3.19c71.641 51.67 117.131 128.89 117.131 215.18z" fill="#fff400"/><path d="m753.44 518.41c-1.771 11.85-4.41 23.47-7.86 34.81h-118.83c-.05-2.189-.08-4.39-.08-6.609 0-54.87 0-137.78 0-137.78l.22-2.43c43.61 16.58 90.15 44.9 128.63 92.91-.44 6.429-1.14 12.799-2.08 19.099z" fill="#fff400"/><path d="m647.37 656.17h-96.2c-3.63-17.689-6.189-37.97-6.189-59.979 0-11.03 0-26.03 0-42.971h81.77c1.019 44.42 12.179 81.22 20.619 102.95z" fill="#fff400"/><g fill="none"><path d="m106.22 553.22c-3.52-11.58-6.19-23.45-7.96-35.56-.52-3.55-.96-7.13-1.32-10.73-.82-8.08-1.24-16.25-1.24-24.51 0-135.21 111.69-248.18 260.67-275.41 22.42-4.1 45.68-6.26 69.53-6.26 23.55 0 46.52 2.1 68.67 6.11 54.25 9.78 103.58 30.93 144.41 60.38 71.64 51.67 117.13 128.89 117.13 215.18 0 5.67-.2 11.3-.591 16.89-.439 6.431-1.14 12.801-2.079 19.101-1.771 11.85-4.41 23.47-7.86 34.81-11.53 38.03-32.15 72.94-59.76 102.95-8.21 8.92-17.04 17.41-26.431 25.42-59.75 50.97-142.31 82.5-233.49 82.5-30.31 0-59.67-3.479-87.55-10.02-21.14-4.94-41.44-11.63-60.66-19.891-30.169-12.94-57.689-29.71-81.689-49.58-10.73-8.869-20.75-18.359-29.99-28.409-27.62-30.011-48.25-64.931-59.78-102.971" stroke="#231f20" stroke-width="28"/><path d="m98.26 517.66c-1.11-2.79-2.17-5.601-3.17-8.43-9.7-27.12-14.91-55.91-14.91-85.73 0-106.75 66.81-209.69 166.84-267.86 13.76-8 28.16-15.16 43.1-21.35 41.92-17.42 88.11-27.3 136.63-27.3 53.17 0 103.54 11.87 148.57 32.5 14.72 6.75 28.88 14.43 42.37 22.94 93.78 59.17 155.64 158.35 155.64 261.07 0 32.29-8.59 65.84-19.89 94.91-.011.04-.03.07-.04.109" stroke="#231f20" stroke-width="28"/><path d="m393.18 463.54c-6.31-3.63-11.86-8.25-16.4-13.62-8.23-9.729-13.13-21.93-13.13-35.17 0-8.35 1.94-16.28 5.44-23.44 2.51-5.13 5.81-9.87 9.77-14.07 11.57-12.31 28.73-20.11 47.89-20.11 16.34 0 31.22 5.67 42.43 14.97 4.48 3.72 8.37 8.02 11.54 12.78 5.79 8.71 9.13 18.93 9.13 29.87 0 13.41-5.02 25.75-13.449 35.54-3.16 3.68-6.811 7-10.851 9.89" stroke="#231f20" stroke-width="21"/><path d="m401.14 462.51c0-23.35 12.19-42.28 27.22-42.28 15.04 0 27.229 18.93 27.229 42.28 0 23.351-12.189 42.28-27.229 42.28-15.03 0-27.22-18.93-27.22-42.28" stroke="#231f20" stroke-width="28"/><path d="m275.83 398.83c-17.07 3.68-35.5 8.96-54.41 16.47-42.43 16.86-87.26 44.99-124.48 91.63-.61.761-1.22 1.521-1.82 2.29" stroke="#231f20" stroke-width="14"/><path d="m369.1 391.31s0 0-.01 0c-.63-.06-25.32-2.42-61.45 2.1-9.84 1.23-20.53 2.97-31.81 5.41" stroke="#231f20" stroke-width="14"/><path d="m226.17 415.97v137.25.53c0 42.75-9.65 79-18.04 102.42-6.44 18-12.13 28.43-12.13 28.43" stroke="#231f20" stroke-width="14"/><path d="m307.86 395.24v157.979 50.11c0 19.1-1.92 36.9-4.8 52.84-8.52 47.15-25.37 78.01-25.37 78.01" stroke="#231f20" stroke-width="14"/><path d="m376.78 449.89v.03l-4.66 103.3-4.65 102.95-.47 10.37s-5.31 64.18-28.65 87.52" stroke="#231f20" stroke-width="14"/><path d="m428.36 504.79-.46 48.43-.98 102.95-1.02 107.92" stroke="#231f20" stroke-width="14"/><path d="m218.24 277.57s33.85 39.67 45.73 80.48c10.82 37.19 11.78 40.48 11.86 40.77v.01c.01.02.01.02.01.02" stroke="#231f20" stroke-width="14"/><path d="m304.75 229.77s20.94 47.77 20.5 90.26c-.43 42.5-.43 64.45-.43 64.45" stroke="#231f20" stroke-width="14"/><path d="m357.16 211.35s22.43 51.16 21.97 96.68-.46 69.03-.46 69.03" stroke="#231f20" stroke-width="14"/><path d="m483.74 384.17s24.859-2.48 61.46 2.1c9.84 1.23 20.53 2.97 31.81 5.41 15.7 3.39 32.561 8.13 49.88 14.72 43.61 16.58 90.15 44.9 128.63 92.91.74.921 1.471 1.841 2.2 2.771" stroke="#231f20" stroke-width="14"/><path d="m626.67 408.83v137.78c0 2.22.03 4.42.08 6.609 1.02 44.42 12.18 81.221 20.62 102.95 5.27 13.58 9.47 21.28 9.47 21.28" stroke="#231f20" stroke-width="14"/><path d="m544.98 388.1v165.12 42.971c0 22.01 2.56 42.29 6.189 59.979 8.811 43.1 23.97 70.87 23.97 70.87" stroke="#231f20" stroke-width="14"/><path d="m476.06 442.75.341 7.54 4.64 102.93 4.64 102.95.15 3.23s5.32 64.18 28.66 87.529" stroke="#231f20" stroke-width="14"/><path d="m634.6 270.43s-33.85 39.67-45.729 80.48c-10.76 36.97-11.771 40.44-11.86 40.77-.01.03-.01.03-.01.03" stroke="#231f20" stroke-width="14"/><path d="m548.09 222.63s-20.93 47.77-20.5 90.26c.43 42.5.43 64.45.43 64.45" stroke="#231f20" stroke-width="14"/><path d="m495.68 204.21s-.41.93-1.109 2.65c-4.521 11.04-21.261 54.65-20.851 94.03.45 45.52.45 69.03.45 69.03" stroke="#231f20" stroke-width="14"/><path d="m426.75 211.73v140.37" stroke="#231f20" stroke-width="14"/><path d="m106.22 553.22h.01 119.94 81.69 64.26 55.78 53.14 63.94 81.77 118.83 2.65" stroke="#231f20" stroke-width="14"/><path d="m166.03 656.17h42.1 94.93 64.41 59.45 58.76 65.49 96.2 38.45 7.96" stroke="#231f20" stroke-width="14"/><path d="m245.27 152.68-18.67-44.73c-5.16-12.35.67-26.55 13.03-31.7 3.05-1.28 6.22-1.88 9.33-1.88 9.48 0 18.49 5.6 22.37 14.9l18.67 44.73" stroke="#231f20" stroke-width="28"/><path d="m618.36 161.39 18.67-44.73c5.16-12.35-.681-26.54-13.03-31.7-3.05-1.27-6.21-1.87-9.32-1.87-9.489 0-18.5 5.6-22.38 14.9l-16.3 40.01" stroke="#231f20" stroke-width="28"/><path d="m0 0h850.394v850.394h-850.394z"/></g></svg>