<svg enable-background="new 0 0 850.394 850.394" height="850.394" viewBox="0 0 850.394 850.394" width="850.394" xmlns="http://www.w3.org/2000/svg"><path d="m588.11 605.446v-46.958h-127.604v46.826 147.134h-145.482v-280.741h417.54v280.741h-144.454zm115.872 110.634v-45.939h-60.229v45.939zm-.254-179.028v-45.938h-60.229v45.938zm-.133 88.678v-45.938h-60.22v45.938zm-93.53-88.678v-45.938h-60.23v45.938zm-113.069-.264v-45.939h-60.229v45.939zm-93.152 178.527v-45.939h-60.229v45.939zm0-89.585v-45.938h-60.229v45.938zm-.51-88.678v-45.938h-60.229v45.938z" fill="#fff5b4"/><path d="m732.563 300.202v171.505h-417.54v-171.505zm-28.081 151.598v-45.939h-60.221v45.939zm-.5-86.772v-45.939h-60.229v45.939zm-93.162 86.772v-45.939h-60.22v45.939zm-.5-86.772v-45.939h-60.23v45.939zm-112.559 86.517v-45.939h-60.229v45.939zm-.51-86.772v-45.939h-60.229v45.939zm-93.162 87.027v-45.939h-60.229v45.939zm-.5-86.772v-45.939h-60.229v45.939z" fill="#fff5b4"/><path d="m732.563 211.382v88.82h-417.54v-89.434l413.461.614zm-28.835 68.913v-45.939h-60.229v45.939zm-93.663 0v-45.939h-60.23v45.939zm-113.069-.254v-45.939h-60.229v45.939zm-93.662.254v-45.939h-60.229v45.939z" fill="#fff5b4"/><path d="m732.563 127.668v83.714h-4.078l-413.461-.614v-83.1z" fill="#f6cc4b"/><path d="m644.262 405.861h60.221v45.939h-60.221z" fill="#fff"/><path d="m643.753 670.141h60.229v45.939h-60.229z" fill="#fff"/><path d="m643.753 319.089h60.229v45.939h-60.229z" fill="#fff"/><path d="m643.498 491.113h60.229v45.938h-60.229z" fill="#fff"/><path d="m643.498 234.356h60.229v45.939h-60.229z" fill="#fff"/><path d="m643.375 579.792h60.22v45.938h-60.22z" fill="#fff"/><path d="m550.6 405.861h60.221v45.939h-60.221z" fill="#fff"/><path d="m550.09 319.089h60.23v45.939h-60.23z" fill="#fff"/><path d="m549.835 491.113h60.23v45.938h-60.23z" fill="#fff"/><path d="m549.835 234.356h60.23v45.939h-60.23z" fill="#fff"/><path d="m588.11 605.446v147.002h-127.604v-147.134h3.69z" fill="#34a047"/><path d="m588.11 558.488v46.958l-123.914-.132h-3.69v-46.826z" fill="#fff"/><path d="m437.531 405.606h60.229v45.939h-60.229z" fill="#fff"/><path d="m437.021 318.834h60.229v45.939h-60.229z" fill="#fff"/><path d="m436.767 490.849h60.229v45.939h-60.229z" fill="#fff"/><path d="m436.767 234.101h60.229v45.939h-60.229z" fill="#fff"/><path d="m343.86 405.861h60.229v45.939h-60.229z" fill="#fff"/><path d="m343.614 669.376h60.229v45.939h-60.229z" fill="#fff"/><path d="m343.614 579.792h60.229v45.938h-60.229z" fill="#fff"/><path d="m343.359 319.089h60.229v45.939h-60.229z" fill="#fff"/><path d="m343.104 491.113h60.229v45.938h-60.229z" fill="#fff"/><path d="m343.104 234.356h60.229v45.939h-60.229z" fill="#fff"/><g fill="none"><path d="m732.563 471.707v280.741h-144.453-127.604-145.482v-280.741-171.505-89.434-83.1h417.539v83.714 88.82z" stroke="#231f20" stroke-width="19.8217"/><path d="m314.004 300.202h1.02 417.539 4.087" stroke="#231f20" stroke-width="13.2145"/><path d="m313.174 210.768h1.85l413.461.614" stroke="#231f20" stroke-width="13.2145"/><path d="m310.946 471.707h4.078 417.539 1.029" stroke="#231f20" stroke-width="13.2145"/><path d="m343.359 319.089h60.229v45.939h-60.229z" stroke="#231f20" stroke-width="13.2145"/><path d="m437.021 318.834h60.229v45.939h-60.229z" stroke="#231f20" stroke-width="13.2145"/><path d="m550.09 319.089h60.23v45.939h-60.23z" stroke="#231f20" stroke-width="13.2145"/><path d="m643.753 319.089h60.229v45.939h-60.229z" stroke="#231f20" stroke-width="13.2145"/><path d="m343.86 405.861h60.229v45.939h-60.229z" stroke="#231f20" stroke-width="13.2145"/><path d="m437.531 405.606h60.229v45.939h-60.229z" stroke="#231f20" stroke-width="13.2145"/><path d="m550.6 405.861h60.221v45.939h-60.221z" stroke="#231f20" stroke-width="13.2145"/><path d="m644.262 405.861h60.221v45.939h-60.221z" stroke="#231f20" stroke-width="13.2145"/><path d="m343.104 234.356h60.229v45.939h-60.229z" stroke="#231f20" stroke-width="13.2145"/><path d="m436.767 234.101h60.229v45.939h-60.229z" stroke="#231f20" stroke-width="13.2145"/><path d="m549.835 234.356h60.23v45.939h-60.23z" stroke="#231f20" stroke-width="13.2145"/><path d="m643.498 234.356h60.229v45.939h-60.229z" stroke="#231f20" stroke-width="13.2145"/><path d="m343.104 491.113h60.229v45.938h-60.229z" stroke="#231f20" stroke-width="13.2145"/><path d="m343.614 579.792h60.229v45.938h-60.229z" stroke="#231f20" stroke-width="13.2145"/><path d="m643.375 579.792h60.22v45.938h-60.22z" stroke="#231f20" stroke-width="13.2145"/><path d="m343.614 669.376h60.229v45.939h-60.229z" stroke="#231f20" stroke-width="13.2145"/><path d="m643.753 670.141h60.229v45.939h-60.229z" stroke="#231f20" stroke-width="13.2145"/><path d="m436.767 490.849h60.229v45.939h-60.229z" stroke="#231f20" stroke-width="13.2145"/><path d="m549.835 491.113h60.23v45.938h-60.23z" stroke="#231f20" stroke-width="13.2145"/><path d="m643.498 491.113h60.229v45.938h-60.229z" stroke="#231f20" stroke-width="13.2145"/><path d="m588.11 752.448v.132h-127.604v-.132-147.134-46.826h127.604v46.958z" stroke="#231f20" stroke-width="19.8217"/><path d="m464.196 605.314 123.914.132h.51" stroke="#231f20" stroke-width="18.3759"/><path d="m0 0h850.394v850.394h-850.394z"/><path d="m314 642h148" stroke="#231f20" stroke-width="14"/><path d="m522 606v146" stroke="#231f20" stroke-width="19.4683"/><path d="m318 552h414" stroke="#231f20" stroke-width="21"/><path d="m590 648h144" stroke="#231f20" stroke-width="14"/><path d="m316 386h418" stroke="#231f20" stroke-width="14"/><path d="m72.55 139.649 211.999.221" stroke="#000" stroke-linecap="round" stroke-linejoin="round" stroke-width="15.1793"/><path d="m201.174 59.938 84.996 80.226-85.141 80.208" stroke="#000" stroke-linecap="round" stroke-linejoin="round" stroke-width="15.1793"/><path d="m72.55 139.649v615.351" stroke="#000" stroke-linecap="round" stroke-linejoin="round" stroke-width="15.1793"/><path d="m72.55 755h78.028" stroke="#000" stroke-linecap="round" stroke-linejoin="round" stroke-width="15.1793"/><path d="m72.55 457.995h78.028" stroke="#000" stroke-linecap="round" stroke-linejoin="round" stroke-width="15.1793"/><path d="m72.55 294.05h78.028" stroke="#000" stroke-linecap="round" stroke-linejoin="round" stroke-width="15.1793"/><path d="m72.55 372.46h78.028" stroke="#000" stroke-linecap="round" stroke-linejoin="round" stroke-width="15.1793"/><path d="m72.55 210.888h78.028" stroke="#000" stroke-linecap="round" stroke-linejoin="round" stroke-width="15.1793"/><path d="m72.55 598.182h78.028" stroke="#000" stroke-linecap="round" stroke-linejoin="round" stroke-width="15.1793"/><path d="m72.55 526.899h78.028" stroke="#000" stroke-linecap="round" stroke-linejoin="round" stroke-width="15.1793"/><path d="m72.55 674.215h78.028" stroke="#000" stroke-linecap="round" stroke-linejoin="round" stroke-width="15.1793"/></g></svg>