<svg enable-background="new 0 0 850.394 850.394" height="850.394" viewBox="0 0 850.394 850.394" width="850.394" xmlns="http://www.w3.org/2000/svg"><path d="m332.512 595.909h179.979v179.977h-179.979z" fill="none"/><path d="m332.512 606.413h149.959 30.02c-3.501-3.501-7.003-7.003-10.504-10.504v149.958 30.019c3.501-3.501 7.003-7.003 10.504-10.504-49.986 0-99.973 0-149.959 0-10.007 0-20.013 0-30.02 0l10.504 10.504c0-49.986 0-99.972 0-149.958 0-10.006 0-20.013 0-30.019 0-13.548-21.009-13.548-21.009 0v149.958 30.019c0 5.727 4.778 10.504 10.504 10.504h149.959 30.02c5.727 0 10.504-4.777 10.504-10.504 0-49.986 0-99.972 0-149.958 0-10.006 0-20.013 0-30.019 0-5.727-4.777-10.504-10.504-10.504-49.986 0-99.973 0-149.959 0-10.007 0-20.013 0-30.02 0-13.547 0-13.547 21.008.001 21.008z" fill="#231f20"/><path d="m332.512 347.308h179.979v179.981h-179.979z" fill="none"/><path d="m332.512 357.813h149.959 30.02c-3.501-3.501-7.003-7.003-10.504-10.504v149.961 30.02c3.501-3.501 7.003-7.003 10.504-10.504-49.986 0-99.973 0-149.959 0-10.007 0-20.013 0-30.02 0l10.504 10.504c0-49.987 0-99.975 0-149.961 0-10.006 0-20.013 0-30.02 0-13.548-21.009-13.548-21.009 0v149.961 30.02c0 5.727 4.778 10.504 10.504 10.504h149.959 30.02c5.727 0 10.504-4.777 10.504-10.504 0-49.987 0-99.975 0-149.961 0-10.006 0-20.013 0-30.02 0-5.726-4.777-10.504-10.504-10.504-49.986 0-99.973 0-149.959 0-10.007 0-20.013 0-30.02 0-13.547-.001-13.547 21.008.001 21.008z" fill="#231f20"/><path d="m332.512 81.201h179.979v179.969h-179.979z" fill="none"/><g fill="#5668af"><circle cx="512.491" cy="111.196" r="14.292"/><circle cx="512.491" cy="141.191" r="14.292"/><circle cx="512.491" cy="171.186" r="14.292"/><circle cx="512.491" cy="201.181" r="14.292"/><circle cx="512.491" cy="231.176" r="14.292"/><circle cx="482.494" cy="261.17" r="14.292"/><circle cx="452.498" cy="261.17" r="14.292"/><circle cx="422.501" cy="261.17" r="14.292"/><circle cx="392.504" cy="261.17" r="14.292"/><circle cx="362.508" cy="261.17" r="14.292"/><circle cx="332.512" cy="231.175" r="14.292"/><circle cx="332.512" cy="201.18" r="14.292"/><circle cx="332.512" cy="171.185" r="14.292"/><circle cx="332.512" cy="141.19" r="14.292"/><circle cx="332.512" cy="111.195" r="14.292"/><circle cx="362.509" cy="81.201" r="14.292"/><circle cx="392.505" cy="81.201" r="14.292"/><circle cx="422.502" cy="81.201" r="14.292"/><circle cx="452.499" cy="81.201" r="14.292"/><circle cx="482.495" cy="81.201" r="14.292"/><circle cx="512.49" cy="261.17" r="14.292"/><circle cx="332.512" cy="261.169" r="14.292"/><circle cx="332.513" cy="81.201" r="14.292"/><circle cx="512.491" cy="81.202" r="14.292"/></g><path d="m0 0h850.394v850.394h-850.394z" fill="none"/></svg>