<svg enable-background="new 0 0 850.394 850.394" height="850.394" viewBox="0 0 850.394 850.394" width="850.394" xmlns="http://www.w3.org/2000/svg"><path d="m209.9 408.51 570.15-285.56 14.82 29.15-570.05 285.57-2.47-4.85-11.36-22.23z" fill="#9e5b16"/><path d="m166.62 545.37v46.24l-94.96 30.93v-46.44l94.47-30.73z" fill="#c8c8c8"/><path d="m140.14 415.23c12.16 5.34 21.74 16.11 35.67 17 10.18.59 17.29-3.36 23.42-8.791 4.25-3.86 8-8.5 11.76-12.85l11.36 22.23-.1.1c-3.65 3.85-7.41 7.12-11.06 9.88-20.86 15.521-41.8 15.41-53.17 9.09-12.15-6.909-27.37-27.27-38.34-11.359-2.86 4.05.5 9.68.5 19.359-6.92 0-13.54 1.891-19.47 5.15l-.89-1.38c-3.16-14.73-3.06-35.09 9.59-44.67 9.58-7.109 20.06-8.499 30.73-3.759z" fill="#f73900"/><path d="m120.18 459.89c23.12 0 41.3 14.431 46.44 46.841v38.64h-.49l-94.47 30.729v-53.95c0-25.101 11.86-47.33 29.05-57.11 5.93-3.26 12.55-5.15 19.47-5.15z" fill="#f73900"/><g fill="none"><path d="m71.66 519.29v2.86 53.95 46.44l94.96-30.93v-46.24-38.64-1.58" stroke="#000" stroke-width="12.326"/><path d="m71.17 576.3.49-.2 94.47-30.73" stroke="#000" stroke-width="12.326"/><path d="m71.66 522.15c0-25.101 11.86-47.33 29.05-57.11 5.93-3.26 12.55-5.15 19.47-5.15 23.12 0 41.3 14.431 46.44 46.841" stroke="#000" stroke-width="12.326"/><path d="m99.82 463.66c-3.16-14.73-3.06-35.09 9.59-44.67 9.58-7.11 20.06-8.5 30.73-3.76 12.16 5.34 21.74 16.11 35.67 17 10.18.59 17.29-3.36 23.42-8.791 4.25-3.86 8-8.5 11.76-12.85" stroke="#000" stroke-width="12.326"/><path d="m120.18 459.89c0-9.68-3.36-15.31-.5-19.359 10.97-15.91 26.19 4.45 38.34 11.359 11.37 6.32 32.31 6.431 53.17-9.09 3.65-2.76 7.41-6.03 11.06-9.88" stroke="#000" stroke-width="12.326"/><path d="m210.99 410.59-1.09-2.08 570.15-285.56 14.82 29.15-570.05 285.57-2.47-4.85z" stroke="#000" stroke-width="12.326"/><path d="m0 0h850.394v850.394h-850.394z"/></g></svg>