<svg enable-background="new 0 0 850.394 850.394" height="850.394" viewBox="0 0 850.394 850.394" width="850.394" xmlns="http://www.w3.org/2000/svg"><path d="m253.79 95.36c2.11 1.65 4.15 3.39 6.14 5.19 23.96 21.77 39.15 54.18 39.15 90.38 0 65.56-49.86 118.71-111.37 118.71-29.49 0-56.3-12.22-76.23-32.16-1.54-1.54-3.04-3.14-4.49-4.77-18.99-21.29-30.64-50.09-30.64-81.78 0-65.56 49.86-118.72 111.36-118.72 24.74 0 47.6 8.6 66.08 23.15z" fill="#ffeec8"/><path d="m253.79 95.36 422.15 297.08c-27.931-15.89-59.78-24.89-93.58-24.89-110.66 0-200.36 96.45-200.36 215.44 0 37.729 9.02 73.2 24.87 104.04l-.2.109-299.68-414.429c1.45 1.63 2.95 3.23 4.49 4.77 19.93 19.94 46.74 32.16 76.23 32.16 61.51 0 111.37-53.15 111.37-118.71 0-36.2-15.19-68.61-39.15-90.38-1.99-1.8-4.03-3.54-6.14-5.19z" fill="#ffeec8"/><path d="m706.96 414.27c46.15 39.46 75.74 100.37 75.74 168.72 0 118.979-89.681 215.43-200.34 215.43-75.57 0-141.36-44.979-175.48-111.39h-.01c-15.85-30.84-24.87-66.31-24.87-104.04 0-118.99 89.7-215.44 200.36-215.44 33.8 0 65.649 9 93.58 24.89zm35.6 170.67c0-97.921-71.989-177.271-160.81-177.271-88.81 0-160.82 79.35-160.82 177.271 0 97.89 72.01 177.25 160.82 177.25 88.82 0 160.81-79.36 160.81-177.25z" fill="#ffeec8"/><path d="m581.75 407.67c88.82 0 160.81 79.35 160.81 177.271 0 97.89-71.989 177.25-160.81 177.25-88.81 0-160.82-79.36-160.82-177.25 0-97.921 72.01-177.271 160.82-177.271z" fill="#ffeec8"/><g fill="none"><path d="m259.93 100.55c23.96 21.77 39.15 54.18 39.15 90.38 0 65.56-49.86 118.71-111.37 118.71-29.49 0-56.3-12.22-76.23-32.16" stroke="#231f20" stroke-dasharray="14.9734" stroke-width="14"/><path d="m111.48 277.48c-1.54-1.54-3.04-3.14-4.49-4.77-18.99-21.29-30.64-50.09-30.64-81.78 0-65.56 49.86-118.72 111.36-118.72 24.74 0 47.6 8.6 66.08 23.15 2.11 1.65 4.15 3.39 6.14 5.19" stroke="#231f20" stroke-width="21"/><path d="m706.96 414.27c46.15 39.46 75.74 100.37 75.74 168.72 0 118.979-89.681 215.43-200.34 215.43-75.57 0-141.36-44.979-175.48-111.39h-.01c-15.85-30.84-24.87-66.31-24.87-104.04 0-118.99 89.7-215.44 200.36-215.44 33.8 0 65.649 9 93.58 24.89 10.98 6.25 21.37 13.57 31.02 21.83z" stroke="#231f20" stroke-width="21"/><path d="m253.53 95.18.26.18 422.15 297.08 31.02 21.83 2.33 1.64" stroke="#231f20" stroke-width="21"/><path d="m406.67 687.14-299.68-414.43-1.01-1.4" stroke="#231f20" stroke-width="21"/><path d="m742.56 584.94c0 97.89-71.989 177.25-160.81 177.25-88.81 0-160.82-79.36-160.82-177.25 0-97.921 72.01-177.271 160.82-177.271 88.82.001 160.81 79.351 160.81 177.271z" stroke="#231f20" stroke-width="21"/><path d="m0 0h850.394v850.394h-850.394z"/></g></svg>