<svg enable-background="new 0 0 850.394 850.394" height="850.394" viewBox="0 0 850.394 850.394" width="850.394" xmlns="http://www.w3.org/2000/svg"><path d="m445.01 693.87c9.061 1.68 15.91 9.62 15.91 19.149v52.981c0 10.77-8.729 19.5-19.5 19.5h-39.23c-10.76 0-19.49-8.73-19.49-19.5v-52.98c0-8.739 5.76-16.14 13.69-18.609 1.83-.57 3.78-.88 5.8-.88h19.62 19.61c1.23-.001 2.43.109 3.59.339z" fill="#ffa500"/><path d="m368.33 67.51v-.01c8.71-.97 16.84-1.66 24.05-2.14-11.83 2.89-72.52 21.92-96.63 112.33-27.51 103.14 1.72 190.81 33.81 269.89l54.89 136.47h-14.07c-31.9-44.46-99.46-142.21-122.77-203.52-30.94-81.36-33.91-164.61-1.14-226.91 38.64-73.48 117-85.43 121.86-86.11z" fill="#fff400"/><path d="m424.1 418.35v165.7h-19.05c-7.88-31.53-25.02-100.689-33.67-140.49-11.46-52.71-30.37-119.76-19.48-240.66 9.33-103.58 44.98-134.92 48.85-138.04 6.83-.35 12.46-.51 16.48-.58.1 4.54 6.87 310.84 6.87 354.07z" fill="#fff400"/><path d="m547.14 177.14c27.511 103.14-1.72 190.81-33.81 269.89l-55.11 137.02h-20.52c7.81-31.25 25.109-101.01 33.8-141.04 11.47-52.72 30.37-119.76 19.49-240.66-8.99-99.82-42.42-132.55-48.3-137.59 3.149.15 6.55.33 10.17.57v.01s67.51 11.39 94.28 111.8z" fill="#fff400"/><path d="m475.29 67.29c32.47 3.53 72.96 11.12 103.94 27.33 0 0 77.35 37.25 105.43 131.79 0 0 19.479 90.54-30.94 161.59 0 0-89.97 112.88-122.63 145.54-16.08 16.09-32.71 35.22-45.46 50.51h-13.52c31.729-44.21 99.75-142.51 123.159-204.07 30.95-81.37 33.921-164.61 1.15-226.91-39.899-75.85-121.189-85.24-121.189-85.24z" fill="#fff400"/><path d="m458.22 584.05h13.891 13.52c-13.14 15.76-22.149 27.431-22.149 27.431l-18.471 25.46-2.729 3.76-20.47.27-21.2.28-4.22-5.81-16.98-23.41s-34.96-45.271-67.62-77.931c-32.66-32.659-122.62-145.54-122.62-145.54-50.42-71.06-30.94-161.59-30.94-161.59 28.068-94.55 105.428-131.79 105.428-131.79 31.12-16.29 71.97-24.01 104.67-27.68v.01c-4.86.68-83.22 12.63-121.86 86.11-32.77 62.3-29.8 145.55 1.14 226.91 23.31 61.31 90.87 159.06 122.77 203.52h14.07 20.6 19.05 11.9 1.7z" fill="#ff001c"/><path d="m405.05 584.05h-20.6l-54.89-136.47c-32.09-79.08-61.32-166.75-33.81-269.89 24.11-90.41 84.8-109.44 96.63-112.33 2.95-.2 5.75-.36 8.37-.5-3.87 3.12-39.52 34.46-48.85 138.04-10.89 120.9 8.02 187.95 19.48 240.66 8.65 39.8 25.79 108.96 33.67 140.49z" fill="#ff001c"/><path d="m420.41 64.24c2.77-.02 10.84-.01 22.28.52 5.88 5.04 39.31 37.77 48.3 137.59 10.88 120.9-8.021 187.94-19.49 240.66-8.69 40.03-25.99 109.79-33.8 141.04h-1.7-11.9c0-24.06 0-127.34 0-165.7 0-43.23-6.77-349.53-6.87-354.07 1.21-.03 2.27-.04 3.18-.04z" fill="#ff001c"/><path d="m596.42 153.07c32.771 62.3 29.8 145.54-1.15 226.91-23.409 61.56-91.43 159.86-123.159 204.07h-13.891l55.11-137.02c32.09-79.08 61.32-166.75 33.81-269.89-26.77-100.41-94.28-111.8-94.28-111.8v-.01c6.8.45 14.37 1.08 22.43 1.96l-.06.54s81.29 9.39 121.19 85.24z" fill="#ff001c"/><g fill="none"><path d="m368.57 67.48s-.08.01-.24.03c-4.86.68-83.22 12.63-121.86 86.11-32.77 62.3-29.8 145.55 1.14 226.91 23.31 61.31 90.87 159.06 122.77 203.52 1.32 1.84 2.58 3.59 3.77 5.24" stroke="#231f20" stroke-width="21"/><path d="m394.4 64.92s-.71.12-2.02.44c-11.83 2.89-72.52 21.92-96.63 112.33-27.51 103.14 1.72 190.81 33.81 269.89l54.89 136.47 1.07 2.67" stroke="#231f20" stroke-width="21"/><path d="m401.09 64.59s-.12.09-.34.27c-3.87 3.12-39.52 34.46-48.85 138.04-10.89 120.9 8.02 187.95 19.48 240.66 8.65 39.801 25.79 108.96 33.67 140.49.25.98.48 1.931.71 2.84" stroke="#231f20" stroke-width="21"/><path d="m419.36 64.25s.36-.01 1.05-.01c2.77-.02 10.84-.01 22.28.52 3.149.15 6.55.33 10.17.57 6.8.45 14.37 1.08 22.43 1.96 32.47 3.53 72.96 11.12 103.94 27.33 0 0 77.35 37.25 105.43 131.79 0 0 19.479 90.54-30.94 161.59 0 0-89.97 112.88-122.63 145.54-16.08 16.09-32.71 35.22-45.46 50.51-13.14 15.76-22.149 27.431-22.149 27.431l-18.471 25.46-2.729 3.76-20.47.27-21.2.28-4.22-5.81-16.98-23.41s-34.96-45.271-67.62-77.931c-32.66-32.659-122.62-145.54-122.62-145.54-50.42-71.06-30.94-161.59-30.94-161.59 28.069-94.55 105.429-131.79 105.429-131.79 31.12-16.29 71.97-24.01 104.67-27.68 8.71-.97 16.84-1.66 24.05-2.14 2.95-.2 5.75-.36 8.37-.5 6.83-.35 12.46-.51 16.48-.58 1.21-.03 2.27-.04 3.18-.04 2.39-.02 3.689-.01 3.689-.01" stroke="#231f20" stroke-width="21"/><path d="m475.23 67.83s81.289 9.39 121.189 85.24c32.771 62.3 29.8 145.54-1.15 226.91-23.409 61.56-91.43 159.86-123.159 204.07" stroke="#231f20" stroke-width="21"/><path d="m452.86 65.34s67.51 11.39 94.279 111.8c27.511 103.14-1.72 190.81-33.81 269.89l-55.11 137.02-1.37 3.4" stroke="#231f20" stroke-width="21"/><path d="m441.8 64.04s.311.23.891.72c5.88 5.04 39.31 37.77 48.3 137.59 10.88 120.9-8.021 187.94-19.49 240.66-8.69 40.03-25.99 109.79-33.8 141.04-.29 1.15-.561 2.24-.82 3.271" stroke="#231f20" stroke-width="21"/><path d="m417.23 64.23v.05c.1 4.54 6.87 310.84 6.87 354.07v165.7 5.061" stroke="#231f20" stroke-width="21"/><path d="m436 584.05h1.7 20.52 13.89 13.52 1.5" stroke="#231f20" stroke-width="21"/><path d="m405.05 584.05h19.05 11.9" stroke="#231f20" stroke-width="21"/><path d="m363.72 584.05h6.66 14.07 20.6" stroke="#231f20" stroke-width="21"/><path d="m445.01 693.87c9.061 1.68 15.91 9.62 15.91 19.149v52.981c0 10.77-8.729 19.5-19.5 19.5h-39.23c-10.76 0-19.49-8.73-19.49-19.5v-52.98c0-8.739 5.76-16.14 13.69-18.609 1.83-.57 3.78-.88 5.8-.88h19.62 19.61c1.23-.001 2.43.109 3.59.339z" stroke="#231f20" stroke-width="21"/><path d="m396.39 635.44v58.97.1" stroke="#231f20" stroke-width="14"/><path d="m445.01 635.44v1.5 56.93.64" stroke="#231f20" stroke-width="14"/><path d="m421.81 635.44v5.53 52.56.98" stroke="#231f20" stroke-width="14"/><path d="m0 0h850.394v850.394h-850.394z"/></g></svg>