<svg enable-background="new 0 0 850.394 850.394" height="850.394" viewBox="0 0 850.394 850.394" width="850.394" xmlns="http://www.w3.org/2000/svg"><path d="m125.96 580.74c-4.51-7.74-5.37-17.53-2.18-26.83l43.98-25.49 2.25.33c-1.44 13.24 1.85 22.58 9.65 29.97 4.58 4.33 10.7 7.99 18.33 11.36l-.06.03-48.96 25.05c-10.85-1.37-18.63-6.94-23.01-14.42z" fill="#0b00ea"/><path d="m387.65 460.92-189.66 109.16c-7.63-3.37-13.75-7.03-18.33-11.36l2.93-.22 195.44-112.68 6.89 11.71c.76 1.29 1.68 2.42 2.73 3.39z" fill="#0b00ea"/><path d="m370.74 433.41 7.29 12.41-195.44 112.68-2.93.22c-7.8-7.39-11.09-16.729-9.65-29.97.06-.6.14-1.2.22-1.82l2.3.311 190.44-111.82c-.12 2.82.53 5.68 2.05 8.26z" fill="#0b00ea"/><path d="m492.56 400.51c1.061 6.36-2.01 13.15-8.17 16.78l-77.209 45.39c-3.64 2.141-7.72 2.801-11.5 2.16-.83-7.35-5.1-18.55-11.91-30.13-6.51-11.07-13.84-19.94-19.73-24.45 1.32-3.43 3.81-6.49 7.3-8.53l77.21-45.4c7.891-4.63 17.851-2.32 22.24 5.16l.16.27 19.75 33.59c.959 1.63 1.569 3.38 1.859 5.16z" fill="#0b00ea"/><path d="m635.05 265.23 70.91-41.72 22.48 38.23.01.01-235.89 138.76c-.29-1.78-.899-3.53-1.859-5.16l-19.75-33.59.31-.18 136.37-80.23zm67.78-5.57c3.47-2.04 4.63-6.51 2.59-9.98s-6.5-4.63-9.979-2.59c-3.471 2.04-4.631 6.51-2.591 9.98s6.52 4.64 9.98 2.59zm-26.39 15.51c3.47-2.04 4.63-6.51 2.59-9.97-2.04-3.48-6.511-4.64-9.98-2.6s-4.63 6.51-2.59 9.98c2.04 3.48 6.51 4.63 9.98 2.59zm-27.19 15.99c3.47-2.04 4.63-6.51 2.58-9.98-2.03-3.47-6.5-4.63-9.97-2.59-3.471 2.04-4.63 6.51-2.601 9.98 2.051 3.47 6.511 4.63 9.991 2.59zm-27.11 15.93c3.471-2.03 4.63-6.51 2.591-9.98-2.04-3.47-6.511-4.63-9.98-2.59s-4.63 6.51-2.59 9.98c2.039 3.48 6.509 4.63 9.979 2.59zm-27.62 16.37c3.48-2.04 4.631-6.51 2.591-9.99-2.051-3.46-6.511-4.63-9.98-2.58-3.47 2.04-4.63 6.5-2.59 9.98 2.039 3.47 6.509 4.63 9.979 2.59zm-26.75 15.61c3.48-2.04 4.641-6.51 2.591-9.98-2.04-3.48-6.5-4.63-9.971-2.59-3.47 2.04-4.64 6.51-2.6 9.98s6.51 4.63 9.98 2.59zm-26.97 16.12c3.47-2.03 4.63-6.51 2.59-9.97-2.04-3.48-6.51-4.64-9.979-2.59-3.47 2.03-4.63 6.5-2.59 9.97 2.049 3.47 6.509 4.63 9.979 2.59zm-27.51 16.17c3.479-2.04 4.64-6.51 2.6-9.98-2.05-3.47-6.51-4.63-9.979-2.59-3.48 2.04-4.641 6.51-2.59 9.98 2.029 3.47 6.499 4.63 9.969 2.59z" fill="#c8c8c8"/><path d="m764.83 216.03c5.88 9.98.53 24.01-11.93 31.34l-24.45 14.38-.01-.01-22.48-38.23 24.46-14.39c12.46-7.32 27.311-5.18 33.18 4.81z" fill="#c8c8c8"/><path d="m705.42 249.68c2.04 3.47.88 7.94-2.59 9.98-3.46 2.05-7.94.88-9.98-2.59s-.88-7.94 2.591-9.98c3.479-2.04 7.939-.88 9.979 2.59z"/><path d="m679.03 265.2c2.04 3.46.88 7.93-2.59 9.97-3.471 2.04-7.94.89-9.98-2.59-2.04-3.47-.88-7.94 2.59-9.98s7.94-.88 9.98 2.6z"/><path d="m651.83 281.18c2.05 3.47.89 7.94-2.58 9.98-3.48 2.04-7.94.88-9.99-2.59-2.029-3.47-.87-7.94 2.601-9.98 3.469-2.04 7.939-.88 9.969 2.59z"/><path d="m624.73 297.11c2.039 3.47.88 7.95-2.591 9.98-3.47 2.04-7.939.89-9.979-2.59-2.04-3.47-.88-7.94 2.59-9.98s7.94-.88 9.98 2.59z"/><path d="m597.11 313.47c2.04 3.48.89 7.95-2.591 9.99-3.47 2.04-7.939.88-9.979-2.59-2.04-3.48-.88-7.94 2.59-9.98 3.47-2.05 7.93-.88 9.98 2.58z"/><path d="m570.36 329.09c2.05 3.47.89 7.94-2.591 9.98-3.47 2.04-7.939.88-9.979-2.59s-.87-7.94 2.6-9.98 7.93-.89 9.97 2.59z"/><path d="m543.39 345.22c2.04 3.46.88 7.94-2.59 9.97-3.47 2.04-7.93.88-9.979-2.59-2.04-3.47-.88-7.94 2.59-9.97 3.469-2.05 7.939-.89 9.979 2.59z"/><path d="m515.89 361.38c2.04 3.47.88 7.94-2.6 9.98-3.47 2.04-7.94.88-9.97-2.59-2.051-3.47-.891-7.94 2.59-9.98 3.47-2.04 7.93-.88 9.98 2.59z"/><g fill="none"><path d="m170.52 525.02c-.11.65-.2 1.28-.29 1.91-.08.62-.16 1.221-.22 1.82-1.44 13.24 1.85 22.58 9.65 29.97 4.58 4.33 10.7 7.99 18.33 11.36.95.42 1.92.83 2.91 1.24" stroke="#000" stroke-linecap="round" stroke-linejoin="round" stroke-width="16.6372"/><path d="m123.78 553.91c-3.19 9.3-2.33 19.09 2.18 26.83 4.38 7.479 12.16 13.05 23.01 14.42l48.96-25.05.06-.03 189.66-109.16 1.41-.81" stroke="#000" stroke-width="16.6372"/><path d="m364.74 414.38-1.77 1.04-190.44 111.82" stroke="#000" stroke-width="16.6372"/><path d="m374.9 431.03-4.16 2.38-192.91 110.33" stroke="#000" stroke-width="11.0914"/><path d="m383.46 442.69-5.43 3.13-195.44 112.68" stroke="#000" stroke-width="11.0914"/><path d="m167.76 528.42-43.98 25.49" stroke="#000" stroke-linecap="round" stroke-linejoin="round" stroke-width="16.6372"/><path d="m125.98 580.73s-.01 0-.02.01c-1.15.29-50.48 13.45-45.68 74.12" stroke="#000" stroke-linecap="round" stroke-linejoin="round" stroke-width="16.6372"/><path d="m492.53 400.53.029-.02 235.891-138.76 24.45-14.38c12.46-7.33 17.81-21.36 11.93-31.34l-1.23-2.1c-5.869-9.99-20.72-12.13-33.18-4.81l-24.46 14.39-70.91 41.72-27.42 16.12-136.37 80.23" stroke="#000" stroke-width="16.6372"/><path d="m470.95 361.76-.16-.27c-4.39-7.48-14.35-9.79-22.24-5.16l-77.21 45.4c-3.49 2.04-5.98 5.1-7.3 8.53-.64 1.66-1.01 3.4-1.07 5.16-.12 2.82.53 5.68 2.05 8.26l5.72 9.73 7.29 12.41 6.89 11.71c.76 1.29 1.68 2.42 2.73 3.39 2.23 2.08 5.03 3.41 8.03 3.92 3.78.641 7.86-.02 11.5-2.16l77.209-45.39c6.16-3.63 9.23-10.42 8.17-16.78-.29-1.78-.899-3.53-1.859-5.16z" stroke="#000" stroke-width="16.6372"/><path d="m393.68 473c1.86-1.09 2.48-4.02 2-8.16-.83-7.35-5.1-18.55-11.91-30.13-6.51-11.07-13.84-19.94-19.73-24.45-3.74-2.88-6.91-4-8.92-2.82" stroke="#000" stroke-linecap="round" stroke-linejoin="round" stroke-width="16.6372"/><path d="m728.44 261.74-22.48-38.23v-.01" stroke="#000" stroke-linecap="round" stroke-linejoin="round" stroke-width="16.6372"/><path d="m688.43 233.8-7.72-13.15" stroke="#000" stroke-linecap="round" stroke-linejoin="round" stroke-width="16.6372"/><path d="m662.04 249.17-7.74-13.15" stroke="#000" stroke-linecap="round" stroke-linejoin="round" stroke-width="16.6372"/><path d="m635.1 265.32-.05-.09-7.69-13.06" stroke="#000" stroke-linecap="round" stroke-linejoin="round" stroke-width="16.6372"/><path d="m607.68 281.43-.05-.08-7.69-13.06" stroke="#000" stroke-linecap="round" stroke-linejoin="round" stroke-width="16.6372"/><path d="m580.28 296.73-7.72-13.14" stroke="#000" stroke-linecap="round" stroke-linejoin="round" stroke-width="16.6372"/><path d="m553.39 313.18-7.73-13.15" stroke="#000" stroke-linecap="round" stroke-linejoin="round" stroke-width="16.6372"/><path d="m526.58 328.94-7.73-13.15" stroke="#000" stroke-linecap="round" stroke-linejoin="round" stroke-width="16.6372"/><path d="m498.72 345.16-7.73-13.15" stroke="#000" stroke-linecap="round" stroke-linejoin="round" stroke-width="16.6372"/><path d="m719.02 285.81-7.74-13.14" stroke="#000" stroke-linecap="round" stroke-linejoin="round" stroke-width="16.6372"/><path d="m692.61 301.19-7.72-13.15" stroke="#000" stroke-linecap="round" stroke-linejoin="round" stroke-width="16.6372"/><path d="m665.67 317.33-7.73-13.15" stroke="#000" stroke-linecap="round" stroke-linejoin="round" stroke-width="16.6372"/><path d="m638.25 333.44-7.72-13.15" stroke="#000" stroke-linecap="round" stroke-linejoin="round" stroke-width="16.6372"/><path d="m610.87 348.75-7.74-13.15" stroke="#000" stroke-linecap="round" stroke-linejoin="round" stroke-width="16.6372"/><path d="m583.97 365.19-7.73-13.15" stroke="#000" stroke-linecap="round" stroke-linejoin="round" stroke-width="16.6372"/><path d="m557.15 380.96-7.72-13.16" stroke="#000" stroke-linecap="round" stroke-linejoin="round" stroke-width="16.6372"/><path d="m529.3 397.17-7.73-13.15" stroke="#000" stroke-linecap="round" stroke-linejoin="round" stroke-width="16.6372"/><path d="m0 0h850.394v850.394h-850.394z"/></g></svg>