<svg enable-background="new 0 0 850.394 850.394" height="850.394" viewBox="0 0 850.394 850.394" width="850.394" xmlns="http://www.w3.org/2000/svg"><path d="m310.86 623.29h63.21v64.5h-126.33v-112.66h63.12v1.72z" fill="#fff"/><path d="m374.07 575.13v48.16h-63.21v-46.44-1.72z" fill="#fff"/><path d="m311.78 422.05h62.29v55.9h-62.29z" fill="#fff"/><path d="m247.74 422.05h64.04v55.9h-64.04z" fill="#fff"/><path d="m311.78 368.73v53.32h-64.04v-56.76h64.04z" fill="#fff"/><path d="m374.07 365.29v56.76h-62.29v-53.32-3.44z" fill="#fff"/><path d="m527.13 368.73v53.32h-58.48-5.57v-56.76h64.05z" fill="#fff"/><path d="m527.13 422.05v55.9h-64.05v-55.9h5.57z" fill="#fff"/><path d="m527.13 422.05h62.29v55.9h-62.29z" fill="#fff"/><path d="m589.42 365.29v56.76h-62.29v-53.32-3.44z" fill="#fff"/><path d="m463.08 563.09h126.34v204.68h-126.34z" fill="#00e800"/><path d="m302 184 .57.69-36.89 30.39h-22.89v-96.32h59.4z" fill="#be0000"/><path d="m657.08 295.12v472.65h-67.66v-204.68h-126.34v204.68h-271.04v-472.65zm-67.66 182.83v-55.9-56.76h-62.29-64.05v56.76 55.9h64.05zm-215.35 209.84v-64.5-48.16h-63.21-63.12v112.66zm0-209.84v-55.9-56.76h-62.29-64.04v56.76 55.9h64.04z" fill="#f6cc4b"/><path d="m423.53 85 243.16 200.17-.69.83-8.92 9.12h-465.04l-13.13-8.53 86.77-71.51 36.89-30.39z" fill="#be0000"/><g fill="none"><path d="m463.08 767.77h-271.04v-472.65h465.04v472.65h-67.66" stroke="#231f20" stroke-width="21"/><path d="m374.07 422.05v55.9h-62.29-64.04v-55.9-56.76h64.04 62.29z" stroke="#231f20" stroke-width="21"/><path d="m374.07 623.29v64.5h-126.33v-112.66h63.12 63.21z" stroke="#231f20" stroke-width="21"/><path d="m463.08 563.09h126.34v204.68h-126.34z" stroke="#231f20" stroke-width="21"/><path d="m589.42 422.05v55.9h-62.29-64.05v-55.9-56.76h64.05 62.29z" stroke="#231f20" stroke-width="21"/><path d="m689.92 304.29-23.23-19.12-243.16-200.17-120.96 99.69-36.89 30.39-86.77 71.51-19.32 15.93" stroke="#231f20" stroke-width="28"/><path d="m265.68 215.08h-22.89v-96.32h59.4l-.19 65.24" stroke="#231f20" stroke-width="21"/><path d="m310.86 576.85v46.44 58.48" stroke="#231f20" stroke-width="14"/><path d="m310.86 623.29h63.21" stroke="#231f20" stroke-width="14"/><path d="m247.74 422.05h64.04 62.29" stroke="#231f20" stroke-width="14"/><path d="m311.78 368.73v53.32 55.9" stroke="#231f20" stroke-width="14"/><path d="m527.13 368.73v53.32 55.9" stroke="#231f20" stroke-width="14"/><path d="m468.65 422.05h58.48 62.29" stroke="#231f20" stroke-width="14"/><path d="m0 0h850.394v850.394h-850.394z"/></g></svg>