<svg enable-background="new 0 0 850.394 850.394" height="850.394" viewBox="0 0 850.394 850.394" width="850.394" xmlns="http://www.w3.org/2000/svg"><path d="m700.513 519.529h17.811v49.76h-17.811z" fill="#f6cc4b"/><path d="m700.513 569.289h17.811v52.872h-17.811z" fill="#f6cc4b"/><path d="m636.476 569.289h1.615v52.872h-1.615z" fill="#f6cc4b"/><path d="m636.476 519.529h1.615v49.76h-1.615z" fill="#f6cc4b"/><path d="m636.476 519.529h1.615v49.76h-1.615z" fill="#f6cc4b"/><path d="m636.476 569.289h1.615v52.872h-1.615z" fill="#f6cc4b"/><path d="m789.99 335.354v66.915h-40.795v-11.796c12.451 0 22.516-10.088 22.516-22.516 0-12.405-10.064-22.469-22.516-22.469v-10.134h38.829z" fill="#f6cc4b"/><path d="m788.024 333.107v2.247h-38.829-37.097v-2.247l24.458-57.342v-.585h1.99 22.469 2.55v.585z" fill="#f6cc4b"/><path d="m718.323 622.161h62.422v44.399h-62.422z" fill="#f6cc4b"/><path d="m718.323 569.289h62.422v52.872h-62.422z" fill="#f6cc4b"/><path d="m718.323 519.529v-1.404h61.532.89v51.164h-62.422z" fill="#f6cc4b"/><path d="m780.745 475.388v42.737h-.89-61.532v-42.737h.796z" fill="#f6cc4b"/><path d="m780.745 403.674v71.714h-61.626-.796v-71.714z" fill="#f6cc4b"/><path d="m749.195 345.489c12.451 0 22.516 10.064 22.516 22.469 0 12.428-10.064 22.516-22.516 22.516-12.405 0-22.47-10.088-22.47-22.516.001-12.405 10.065-22.469 22.47-22.469z" fill="#fff"/><path d="m763.565 247.351v27.829h-2.55-22.469-1.99v-27.829l.445-2.247h26.12z" fill="#c8c8c8"/><path d="m750.061 179.875 13.06 65.229h-26.12z" fill="#c8c8c8"/><path d="m749.195 390.474v11.796h-39.063v-66.915h1.966 37.098v10.134c-12.405 0-22.47 10.064-22.47 22.469 0 12.428 10.064 22.516 22.469 22.516z" fill="#f6cc4b"/><path d="m718.323 666.561v.023h-17.81v-44.423h17.81z" fill="#f6cc4b"/><path d="m700.513 666.584v.023h-62.422v-44.446h62.422z" fill="#f6cc4b"/><path d="m700.513 569.289v52.872h-62.422v-52.872zm-22.259 34.03v-28.671h-16.056v28.671z" fill="#f6cc4b"/><path d="m700.513 519.529v49.76h-62.422v-49.76zm-21.159 32.604v-28.671h-16.032v28.671z" fill="#f6cc4b"/><path d="m700.513 518.125v1.404h-62.422v-51.139h1.685 58.607 2.13z" fill="#f6cc4b"/><path d="m698.383 465.861v2.529h-58.607v-2.763l16.43-27.337h25.324l16.595 27.571z" fill="#c8c8c8"/><path d="m663.321 523.462h16.032v28.671h-16.032z" fill="#fff"/><path d="m662.198 574.648h16.056v28.671h-16.056z" fill="#fff"/><path d="m576.044 622.161h60.432v44.423h-60.432z" fill="#f6cc4b"/><path d="m576.044 569.289h60.432v52.872h-60.432z" fill="#f6cc4b"/><path d="m576.044 519.529h60.432v49.76h-60.432z" fill="#f6cc4b"/><path d="m576.044 503.777h60.432v15.752h-60.432z" fill="#fff"/><path d="m571.667 569.289h4.377v52.872h-4.377z" fill="#fff"/><path d="m571.667 519.529h4.377v49.76h-4.377z" fill="#f6cc4b"/><path d="m509.223 622.161h62.444v44.399h-62.444z" fill="#f6cc4b"/><path d="m571.667 569.289v52.872h-62.444v-52.872zm-22.773 37.401v-28.695h-16.032v28.695z" fill="#f6cc4b"/><path d="m571.667 519.529v49.76h-62.444v-49.76zm-22.773 32.604v-28.671h-16.032v28.671z" fill="#f6cc4b"/><path d="m569.561 468.343h2.106v51.186h-62.444v-51.186h1.731z" fill="#f6cc4b"/><path d="m569.561 465.814v2.529h-58.607v-2.809l16.431-27.267h25.301l16.593 27.547z" fill="#c8c8c8"/><path d="m532.861 577.995h16.032v28.695h-16.032z" fill="#fff"/><path d="m532.861 523.462h16.032v28.671h-16.032z" fill="#fff"/><path d="m504.611 622.161v44.4h-88.729v-9.269h16.033v-28.671-6.46z" fill="#f6cc4b"/><path d="m504.611 569.289v52.872h-72.696-76.464-75.926-76.488-73.797v-52.872h58.911 76.488 75.879 76.511zm-71.573 37.401v-28.672h-16.009v28.672zm-76.464.562v-28.672h-16.056v28.672zm-75.926 0v-28.672h-16.009v28.672zm-76.465.561v-28.694h-16.032v28.694z" fill="#f6cc4b"/><path d="m504.611 519.529v49.76h-87.582v-13.763h16.009v-28.694-7.303z" fill="#f6cc4b"/><path d="m504.611 503.777v15.752h-71.573-76.464-75.926-76.465-74.943v-15.752z" fill="#fff"/><path d="m417.029 578.019h16.009v28.672h-16.009z" fill="#fff"/><path d="m417.029 526.832h16.009v28.694h-16.009z" fill="#fff"/><path d="m433.038 519.529v7.303h-16.009v28.694 13.763h-76.511v-13.225h16.056v-28.67-7.865z" fill="#f6cc4b"/><path d="m415.882 628.621h16.033v28.671h-16.033z" fill="#fff"/><path d="m431.915 622.161v6.46h-16.033v28.671 9.269h-76.464v-8.707h16.033v-28.671-7.022z" fill="#f6cc4b"/><path d="m340.518 578.58h16.056v28.672h-16.056z" fill="#fff"/><path d="m340.518 527.394h16.056v28.671h-16.056z" fill="#fff"/><path d="m356.574 519.529v7.865h-16.056v28.67 13.225h-75.879v-13.225h16.009v-28.67-7.865z" fill="#f6cc4b"/><path d="m339.418 629.183h16.033v28.671h-16.033z" fill="#fff"/><path d="m355.451 622.161v7.022h-16.033v28.671 8.707h-75.903v-8.707h16.009v-28.671-7.022z" fill="#f6cc4b"/><path d="m264.639 578.58h16.009v28.672h-16.009z" fill="#fff"/><path d="m264.639 527.394h16.009v28.671h-16.009z" fill="#fff"/><path d="m280.648 519.529v7.865h-16.009v28.67 13.225h-76.488v-12.639h16.032v-28.695-8.426z" fill="#f6cc4b"/><path d="m263.515 629.183h16.009v28.671h-16.009z" fill="#fff"/><path d="m279.524 622.161v7.022h-16.009v28.671 8.707h-76.488v-8.123h16.01v-28.694-7.583z" fill="#f6cc4b"/><path d="m188.151 579.119h16.032v28.694h-16.032z" fill="#fff"/><path d="m188.151 527.955h16.032v28.695h-16.032z" fill="#fff"/><path d="m204.183 519.529v8.426h-16.032v28.695 12.639h-58.911v-49.76z" fill="#f6cc4b"/><path d="m187.027 629.744h16.009v28.694h-16.009z" fill="#fff"/><path d="m203.037 622.161v7.583h-16.01v28.694 8.123h-57.787v-44.4z" fill="#f6cc4b"/><path d="m125.729 622.161v44.54h-62.421v-44.54h.421z" fill="#f6cc4b"/><path d="m125.729 569.289v52.872h-62-.421v-52.872zm-23.334 34.593v-28.672h-16.033v28.672z" fill="#f6cc4b"/><path d="m125.729 519.529v49.76h-62.421v-49.76zm-22.211 33.75v-28.694h-16.033v28.694z" fill="#f6cc4b"/><path d="m123.623 468.482h2.106v51.047h-62.421v-51.047h1.685z" fill="#f6cc4b"/><path d="m123.623 465.955v2.527h-58.63v-2.761l16.454-27.314h25.301l16.57 27.548z" fill="#c8c8c8"/><path d="m87.485 524.585h16.033v28.694h-16.033z" fill="#fff"/><path d="m86.362 575.21h16.033v28.672h-16.033z" fill="#fff"/><g fill="none"><path d="m504.611 622.161v44.4h-88.729-76.464-75.903-76.488-57.787v-44.4-52.872-49.76-15.752h375.371v15.752 49.76z" stroke="#231f20" stroke-width="14.5266"/><path d="m636.476 622.161v44.423h-60.432v-44.423-52.872-49.76-15.752h60.432v15.752 49.76z" stroke="#231f20" stroke-width="14.5266"/><path d="m571.667 622.161v44.4h-62.444v-44.4-52.872-49.76-51.186h1.731 58.607 2.106v51.186 49.76z" stroke="#231f20" stroke-width="14.5266"/><path d="m569.279 465.814-16.593-27.547h-25.301l-16.431 27.267-.164.28" stroke="#231f20" stroke-width="14.5266"/><path d="m510.954 419.707v45.827 2.809 1.544" stroke="#231f20" stroke-width="14.5266"/><path d="m569.561 419.707v46.107 2.529 1.544" stroke="#231f20" stroke-width="14.5266"/><path d="m125.729 622.161v44.54h-62.421v-44.54-52.872-49.76-51.047h1.685 58.63 2.106v51.047 49.76z" stroke="#231f20" stroke-width="14.5266"/><path d="m123.318 465.955-16.57-27.548h-25.301l-16.454 27.314-.14.234" stroke="#231f20" stroke-width="14.5266"/><path d="m64.993 419.847v45.874 2.761 1.545" stroke="#231f20" stroke-width="14.5266"/><path d="m123.623 419.824v46.131 2.527 1.545" stroke="#231f20" stroke-width="14.5266"/><path d="m700.513 666.584v.023h-62.422v-44.446-52.872-49.76-51.139h1.685 58.607 2.13v49.735 1.404 49.76 52.872z" stroke="#231f20" stroke-width="14.5266"/><path d="m698.125 465.861-16.595-27.571h-25.324l-16.43 27.337-.14.234" stroke="#231f20" stroke-width="14.5266"/><path d="m639.776 419.753v45.874 2.763 1.544" stroke="#231f20" stroke-width="14.5266"/><path d="m698.383 419.73v46.131 2.529 1.544" stroke="#231f20" stroke-width="14.5266"/><path d="m780.745 622.161v44.4h-62.422v-44.4-52.872-49.76-1.404-42.737-71.714h62.422v71.714 42.737 51.164z" stroke="#231f20" stroke-width="14.5266"/><path d="m63.729 622.161h62 3.511 73.797 76.487 75.927 76.464 72.696 4.612 62.444 4.377 60.432 1.615 62.422 17.81 62.422 1.662" stroke="#231f20" stroke-width="14.5266"/><path d="m62.605 569.289h.703 62.421 3.511 58.911 76.488 75.879 76.511 87.582 4.612 62.444 4.377 60.432 1.615 62.422 17.81 62.422.515" stroke="#231f20" stroke-width="14.5266"/><path d="m56.965 519.529h6.343 62.421 3.511 74.943 76.465 75.926 76.464 71.573 4.612 62.444 4.377 60.432 1.615 62.422 17.81 57.32" stroke="#231f20" stroke-width="14.5266"/><path d="m788.024 335.354h1.966v66.916h-40.795-39.063v-66.916h1.966 37.097z" stroke="#231f20" stroke-width="14.5266"/><path d="m749.195 345.489c12.451 0 22.516 10.064 22.516 22.469 0 12.428-10.064 22.516-22.516 22.516-12.405 0-22.47-10.088-22.47-22.516.001-12.405 10.065-22.469 22.47-22.469z" stroke="#231f20" stroke-width="14.5266"/><path d="m788.024 333.107-24.459-57.342v-.585-27.829l-.444-2.247-13.06-65.229-13.06 65.229-.445 2.247v27.829.585l-24.458 57.342" stroke="#231f20" stroke-width="14.5266"/><path d="m735.994 245.104h1.007 26.12.444" stroke="#231f20" stroke-width="14.5266"/><path d="m738.546 275.18h22.469" stroke="#231f20" stroke-width="14.5266"/><path d="m696.65 518.125h3.863 17.81 61.532" stroke="#231f20" stroke-width="14.5266"/><path d="m719.119 475.388h61.626 1.358" stroke="#231f20" stroke-width="14.5266"/><path d="m698.195 666.584h2.318 17.81 6.859" stroke="#231f20" stroke-width="14.5266"/><path d="m188.151 527.955h16.032v28.695h-16.032z" stroke="#231f20" stroke-width="14.5266"/><path d="m86.362 575.21h16.033v28.672h-16.033z" stroke="#231f20" stroke-width="14.5266"/><path d="m87.485 524.585h16.033v28.694h-16.033z" stroke="#231f20" stroke-width="14.5266"/><path d="m188.151 579.119h16.032v28.694h-16.032z" stroke="#231f20" stroke-width="14.5266"/><path d="m532.861 523.462h16.032v28.671h-16.032z" stroke="#231f20" stroke-width="14.5266"/><path d="m663.321 523.462h16.032v28.671h-16.032z" stroke="#231f20" stroke-width="14.5266"/><path d="m662.198 574.648h16.056v28.671h-16.056z" stroke="#231f20" stroke-width="14.5266"/><path d="m532.861 577.995h16.032v28.695h-16.032z" stroke="#231f20" stroke-width="14.5266"/><path d="m187.027 629.744h16.009v28.694h-16.009z" stroke="#231f20" stroke-width="14.5266"/><path d="m264.639 527.394h16.009v28.671h-16.009z" stroke="#231f20" stroke-width="14.5266"/><path d="m264.639 578.58h16.009v28.672h-16.009z" stroke="#231f20" stroke-width="14.5266"/><path d="m263.515 629.183h16.009v28.671h-16.009z" stroke="#231f20" stroke-width="14.5266"/><path d="m340.518 527.394h16.056v28.671h-16.056z" stroke="#231f20" stroke-width="14.5266"/><path d="m340.518 578.58h16.056v28.672h-16.056z" stroke="#231f20" stroke-width="14.5266"/><path d="m339.418 629.183h16.033v28.671h-16.033z" stroke="#231f20" stroke-width="14.5266"/><path d="m417.029 526.832h16.009v28.694h-16.009z" stroke="#231f20" stroke-width="14.5266"/><path d="m417.029 578.019h16.009v28.672h-16.009z" stroke="#231f20" stroke-width="14.5266"/><path d="m415.882 628.621h16.033v28.671h-16.033z" stroke="#231f20" stroke-width="14.5266"/><path d="m195.594 476.511v26.425" stroke="#231f20" stroke-linecap="round" stroke-linejoin="round" stroke-width="14.5266"/><path d="m273.064 476.769v26.447" stroke="#231f20" stroke-linecap="round" stroke-linejoin="round" stroke-width="14.5266"/><path d="m348.967 476.347v26.448" stroke="#231f20" stroke-linecap="round" stroke-linejoin="round" stroke-width="14.5266"/><path d="m424.894 476.347v26.448" stroke="#231f20" stroke-linecap="round" stroke-linejoin="round" stroke-width="14.5266"/><path d="m0 0h850.394v850.394h-850.394z"/><path d="m0 0h850.394v850.394h-850.394z"/></g></svg>