<svg enable-background="new 0 0 850.394 850.394" height="850.394" viewBox="0 0 850.394 850.394" width="850.394" xmlns="http://www.w3.org/2000/svg"><path d="m415.27 781.87c-12.13 0-21.96-12.59-21.96-30.69v-218.22h30.35.41 31.23v218.22c0 21.98-9.84 30.69-21.97 30.69z" fill="#ffeec8"/><path d="m424.07 77.75s40.67-.64 67.15 46.49c26.48 47.14 52.3 125.91 65.86 247.94 13.56 122.04-5.811 160.78-63.92 160.78-15.9 0-28.271 0-37.86 0-25.439 0-31.23 0-31.23 0h-.41s-5.66 0-30.35 0c-9.71 0-22.35 0-38.74 0-58.11 0-77.48-38.74-63.92-160.78 13.56-122.03 39.38-200.8 65.86-247.94 26.47-47.13 67.15-46.49 67.15-46.49z" fill="#ff6b00"/><g fill="none"><path d="m455.3 532.96v218.22c0 21.98-9.84 30.69-21.97 30.69h-18.06c-12.13 0-21.96-12.59-21.96-30.69v-218.22" stroke="#000" stroke-width="20.1897"/><path d="m393.31 532.96h30.35.41 31.23 37.86c58.109 0 77.479-38.74 63.92-160.78-13.561-122.03-39.38-200.8-65.86-247.94-26.479-47.13-67.15-46.49-67.15-46.49h-.41s-40.68-.64-67.15 46.49c-26.48 47.14-52.3 125.91-65.86 247.94-13.56 122.04 5.81 160.78 63.92 160.78z" stroke="#000" stroke-width="20.1897"/><path d="m0 0h850.394v850.394h-850.394z"/></g></svg>