<svg enable-background="new 0 0 850.394 850.394" height="850.394" viewBox="0 0 850.394 850.394" width="850.394" xmlns="http://www.w3.org/2000/svg"><path d="m659.149 576.447c11.981 23.099 3.463 83.148-44.508 112.123-33.55 20.251-69.333 19.682-69.333 19.682s-.704-.071-2.021-.223l.312-2.342c-7.485-10.433-13.174-23.518-16.378-37.849-8.902-39.719 1.219-88.997 44.632-117.928 11.875-7.922 25.369-9.453 38.25-7.059 1.353.249 2.697.552 4.032.881 20.046 5.032 37.982 19.131 45.014 32.715z" fill="#a8d7f4"/><path d="m614.232 543.351-.098.383c-1.335-.329-2.68-.632-4.032-.881-12.881-2.395-26.375-.863-38.25 7.059-43.413 28.931-53.534 78.209-44.632 117.928l-4.166.187-187.324-19.681c-1.932-2.226-3.658-4.317-5.172-6.187l5.056-.668s33.381-2.563 50.499-29.099 46.225-112.124 106.987-100.143z" fill="#0071bc"/><path d="m543.599 705.688-.312 2.342c-14.073-1.514-98.023-10.638-142.62-16.896-26.891-3.774-51.112-26.847-64.937-42.789l187.324 19.681 4.166-.187c3.205 14.331 8.893 27.416 16.379 37.849z" fill="#0071bc"/><path d="m324.284 181.496c15.257 9.079 21.818 25.013 31.022 44.027 12.836 26.535 137.795 286.726 137.795 286.726-60.762-11.981-89.869 73.606-106.987 100.143-17.118 26.535-50.499 29.099-50.499 29.099l-5.056.668c-4.433-5.537-6.925-9.231-6.925-9.231s-160.913-324.38-160.913-331.234c0-4.175 6.036-9.934 10.753-13.797 3.026-2.483 5.51-4.175 5.51-4.175s37.662-47.071 53.925-72.752c16.263-25.672 35.09-41.081 68.471-36.799 9.462 1.219 16.86 3.738 22.904 7.325z" fill="#0071bc"/><path d="m304.077 141.982 20.207 39.514c-6.044-3.587-13.441-6.106-22.903-7.326-33.381-4.282-52.208 11.127-68.471 36.799-16.263 25.681-53.925 72.752-53.925 72.752s-2.483 1.691-5.51 4.175l-3.143-4.246-27.71-59.115c-6.881-13.468 1.994-31.778 19.824-40.902l96.875-49.528c17.829-9.116 37.867-5.591 44.756 7.877z" fill="#fff5b4"/><path d="m256.276 640.075v50.987c0 36.273-45.086 65.657-100.738 65.657-55.635 0-100.48-29.134-100.48-65.39v-46.662c3.605 34.119 47.214 61.064 100.48 61.064 55.643.001 100.738-29.391 100.738-65.656z" fill="#0071bc"/><path d="m55.058 644.668c-.169-1.522-.249-3.053-.249-4.593 0-36.265 45.095-65.649 100.729-65.649 55.643 0 100.738 29.385 100.738 65.649s-45.095 65.657-100.738 65.657c-53.267 0-96.875-26.945-100.48-61.064z" fill="#0071bc"/><path d="m543.599 705.688c-7.485-10.433-13.174-23.518-16.378-37.849-8.902-39.719 1.219-88.997 44.632-117.928 11.875-7.922 25.369-9.453 38.25-7.059 1.353.249 2.697.552 4.032.881 20.046 5.03 37.982 19.13 45.015 32.714 11.981 23.099 3.463 83.148-44.508 112.123-33.55 20.251-69.333 19.682-69.333 19.682s-.704-.071-2.021-.223c-14.073-1.514-98.023-10.638-142.62-16.896-26.891-3.774-51.112-26.847-64.937-42.789-1.932-2.226-3.658-4.317-5.172-6.187-4.433-5.537-6.925-9.231-6.925-9.231s-160.913-324.38-160.913-331.234c0-4.175 6.036-9.934 10.753-13.797 3.026-2.483 5.51-4.175 5.51-4.175s37.662-47.071 53.925-72.752c16.263-25.672 35.09-41.081 68.471-36.799 9.462 1.22 16.859 3.739 22.903 7.326 15.257 9.079 21.818 25.013 31.022 44.027 12.836 26.535 137.795 286.726 137.795 286.726l121.132 31.102 5.546 1.425" fill="none" stroke="#231f20" stroke-width="18.6932"/><path d="m170.332 283.649-27.71-59.115c-6.881-13.468 1.994-31.778 19.824-40.902l96.875-49.528c17.83-9.115 37.867-5.59 44.757 7.877l20.207 39.514.89 1.745" fill="none" stroke="#231f20" stroke-width="18.6932"/><path d="m335.615 648.335.116.01 187.324 19.68" fill="none" stroke="#231f20" stroke-width="18.6932"/><path d="m335.615 641.49s33.381-2.563 50.499-29.099 46.225-112.124 106.987-100.143" fill="none" stroke="#231f20" stroke-width="18.6932"/><path d="m256.276 640.075c0-36.265-45.095-65.649-100.738-65.649-55.635 0-100.729 29.385-100.729 65.649 0 1.54.08 3.07.249 4.593 3.605 34.119 47.214 61.064 100.48 61.064 55.643 0 100.738-29.392 100.738-65.657z" fill="none" stroke="#231f20" stroke-width="18.6932"/><path d="m55.058 691.33c0 36.256 44.846 65.39 100.48 65.39 55.652 0 100.738-29.384 100.738-65.657" fill="none" stroke="#231f20" stroke-width="18.6932"/><path d="m256.276 640.075v50.988 2.27" fill="none" stroke="#231f20" stroke-width="18.6932"/><path d="m55.058 643.716v.952 46.662 2.252" fill="none" stroke="#231f20" stroke-width="18.6932"/><path d="m0 0h850.394v850.394h-850.394z" fill="none"/><path d="m777.991 155.189c9.283 1.489 8.035 11.907 5.484 17.104-6.201 12.651-3.364 17.304-4.154 26.959-.194 2.36-4.402 8.112-9.954 8.112l-.322-.032c1.025-10.699 1.543-32.183 1.543-33.06 0-6.418-.081-10.921-.272-18.506h.114l.89-.009c1.996-.713 4.234-.958 6.671-.568z" fill="#ffeec8"/><path d="m777.991 155.189c-2.438-.39-4.675-.145-6.672.567l-.89.009c-.037-.186-.082-.372-.132-.563-3.183-12.851-17.141-23.809-20.718-28.752-19.256-26.591-33.831-36.604-37.436-38.833-.567-.35-.862-.508-.862-.508-.036.027-.072.05-.108.077-16.246 11.344-71.072 29.419-78.04 34.53 0 0-12.928 13.332-21.562 24.503-2.878 3.727-5.279 7.213-6.563 9.887l-.817-26.31c0-41.966 34.258-66.323 34.258-66.323 3.959-2.697 6.609-4.045 6.609-4.045 17.472-10.395 40.063-14.058 68.884-10.699 34.798 4.053 61.498 38.711 66.587 81.852.826 7.014-1.325 17.187-2.538 24.608z" fill="#9c5c25"/><path d="m722.98 244.109c5.828-2.764 6.123-4.131 12.256 1.698 3.291 3.127-9.174 18.425-19.777 32.419-.663.876-1.316 1.743-1.961 2.601-1.925 2.579-3.75 5.084-5.348 7.422-10.735 15.647-78.716 74.935-78.716 74.935l-43.286-36.759c4.38-3.904 16.713-16.859 15.061-37.78-.726-9.161 6.287-28.221 11.208-36.764 3-5.202 7.957-12.401 11.961-18.606 2.564-3.981 4.734-7.554 5.747-9.928 2.27-5.32 15.719-.631 11.356 12.043-.621 1.807-1.606 3.786-3.05 5.91 0 0-8.353 16.963-3.559 17.385.771.063 2.941-1.507 6.046-4.212 2.696-2.338 6.105-5.533 9.923-9.242 12.511-12.151 29.41-29.827 40.19-41.216 5.557-5.865 9.479-10.055 10.354-10.972 3.427-3.613 8.361-2.41 11.289.831 2.66 2.946 3.659 7.585.345 11.825 3.282-3.459 5.983-6.305 7.794-8.216 4.05-4.267 10.649 2.882 10.649 2.882 2.319 5.361.286 10.568-6.051 17.808.69-.671 1.294-1.234 1.798-1.675 4.426-3.881 10.154 2.401 10.154 2.401.948 4.072 1.529 5.933-4.689 13.4-2.612 3.144-5.976 7.243-9.694 11.81z" fill="#ffeec8"/><path d="m713.697 193.591-1.021.282c-2.928-3.241-7.862-4.444-11.289-.831-.876.917-4.798 5.107-10.354 10.972-10.78 11.389-27.68 29.065-40.19 41.216-3.817 3.709-7.227 6.904-9.923 9.242l-.477-.554 33.786-63.899s19.7-19.705 39.468 3.572z" fill="#0071bc"/><path d="m613.202 156.601c-.245-5.442-.345-9.237-.317-10.381h-1.313c8.634-11.171 21.562-24.503 21.562-24.503 6.968-5.111 61.794-23.187 78.04-34.53.182.159.526.304.971.431 3.604 2.229 18.18 12.243 37.436 38.833 3.577 4.943 17.535 15.901 20.718 28.752.009.191.014.377.018.563.191 7.585.272 12.088.272 18.506 0 .876-.518 22.361-1.543 33.06-.06.654-.123 1.267-.19 1.83-1.217 10.358-2.992 20.753-6.133 27.839 0 0-18.783 44.154-46.927 44.154l-2.297-.327c.645-.858 1.298-1.725 1.961-2.601 10.604-13.995 23.068-29.292 19.777-32.419-6.133-5.829-6.428-4.462-12.256-1.698 3.718-4.566 7.081-8.666 9.695-11.811 6.219-7.467 5.638-9.328 4.689-13.4 0 0-5.729-6.282-10.154-2.401-.504.44-1.107 1.003-1.798 1.675 6.337-7.24 8.37-12.446 6.051-17.808 0 0-6.6-7.149-10.649-2.882-1.811 1.911-4.512 4.757-7.794 8.216 3.314-4.24 2.315-8.879-.345-11.825l1.021-.282c-19.769-23.277-39.469-3.572-39.469-3.572l-33.786 63.899.477.554c-3.104 2.706-5.274 4.276-6.046 4.212-4.794-.422 3.559-17.385 3.559-17.385 1.443-2.125 2.429-4.104 3.05-5.91 4.362-12.674-9.087-17.363-11.356-12.043-1.013 2.374-3.183 5.947-5.747 9.928l-2.047-1.194c-1.889-5.297-3.455-13.518-4.73-22.824-2.453-17.917-3.828-39.846-4.4-52.656z" fill="#ffeec8"/><path d="m603.679 200.169c-.785-9.651 2.052-14.303-4.153-26.959-2.547-5.197-3.8-15.615 5.483-17.104 2.438-.39 4.671-.145 6.668.567l1.525-.073c.572 12.81 1.947 34.739 4.398 52.656l-.694.045c-8.742 1.667-12.923-5.46-13.227-9.132z" fill="#ffeec8"/><g fill="none"><path d="m611.677 156.673c-1.997-.712-4.23-.958-6.668-.567-9.283 1.489-8.03 11.907-5.483 17.104 6.205 12.656 3.368 17.308 4.153 26.959.305 3.672 4.485 10.799 13.228 9.133" stroke="#231f20" stroke-width="9.5325"/><path d="m771.319 155.756c1.997-.712 4.234-.958 6.672-.567 9.283 1.489 8.035 11.907 5.484 17.104-6.201 12.651-3.364 17.304-4.154 26.959-.194 2.36-4.402 8.112-9.954 8.112" stroke="#231f20" stroke-width="9.5325"/><path d="m622.331 232.08c-1.889-5.297-3.455-13.518-4.73-22.824-2.451-17.917-3.826-39.846-4.398-52.656-.245-5.442-.345-9.237-.317-10.381" stroke="#231f20" stroke-width="9.5325"/><path d="m770.274 154.204c.01.34.019.672.023.999.009.191.014.377.018.563.191 7.585.272 12.088.272 18.506 0 .876-.518 22.361-1.543 33.06-.06.654-.123 1.267-.19 1.83-1.217 10.358-2.992 20.753-6.133 27.839 0 0-18.783 44.154-46.927 44.154" stroke="#231f20" stroke-width="9.5325"/><path d="m676.834 153.896c-3.867-8.148-19.006-11.326-26.673-9.792-7.204 1.435-10.776 2.297-18.289 8.125" stroke="#231f20" stroke-width="6.355"/><path d="m708.209 152.111c3.872-8.144 19.011-11.325 26.673-9.796 7.213 1.439 10.781 2.302 18.289 8.125" stroke="#231f20" stroke-width="6.355"/><path d="m777.991 155.189c1.213-7.421 3.364-17.594 2.538-24.607-5.089-43.141-31.789-77.799-66.587-81.852-28.82-3.359-51.412.304-68.884 10.699 0 0-2.65 1.348-6.609 4.045 0 0-34.258 24.357-34.258 66.323l.817 26.31c1.284-2.674 3.686-6.16 6.563-9.887 8.634-11.171 21.562-24.503 21.562-24.503 6.968-5.111 61.794-23.187 78.04-34.53.036-.027.072-.05.108-.077 0 0 .295.159.862.508 3.604 2.229 18.18 12.243 37.436 38.833 3.577 4.943 17.535 15.901 20.718 28.752.05.191.095.377.132.563.263 1.167.431 2.347.494 3.536" stroke="#231f20" stroke-width="9.5325"/><path d="m717.614 88.321c-.803.009-3.813-.227-5.47-.704-.444-.127-.789-.272-.971-.431-.063-.059-.104-.113-.128-.172 4.98-4.857 8.916-12.773 8.916-20.804" stroke="#231f20" stroke-width="9.8328"/><path d="m691.032 204.014c5.557-5.865 9.479-10.055 10.354-10.972 3.427-3.613 8.361-2.41 11.289.831 2.66 2.946 3.659 7.585.345 11.825" stroke="#231f20" stroke-width="9.8328"/><path d="m650.842 245.23c12.511-12.151 29.41-29.827 40.19-41.216" stroke="#231f20" stroke-width="9.5325"/><path d="m641.481 235.389c-.621 1.807-1.606 3.786-3.05 5.91 0 0-8.353 16.963-3.559 17.385.771.063 2.941-1.507 6.046-4.212 2.696-2.338 6.105-5.533 9.923-9.242" stroke="#231f20" stroke-width="9.5325"/><path d="m584.641 327.677s.572-.422 1.508-1.253c4.38-3.904 16.713-16.859 15.061-37.78-.726-9.161 6.287-28.221 11.208-36.764 3-5.202 7.957-12.401 11.961-18.606 2.564-3.981 4.734-7.554 5.747-9.928 2.27-5.32 15.719-.631 11.356 12.043" stroke="#231f20" stroke-width="9.5325"/><path d="m715.459 278.226c10.604-13.995 23.068-29.292 19.777-32.419-6.133-5.829-6.428-4.462-12.256-1.698-.118.059-.241.114-.363.173" stroke="#231f20" stroke-width="9.5325"/><path d="m629.435 363.184s67.98-59.288 78.716-74.935c1.598-2.338 3.423-4.843 5.348-7.422.645-.858 1.298-1.725 1.961-2.601" stroke="#231f20" stroke-width="9.5325"/><path d="m686.253 289.706s21.389-26.75 36.728-45.597c3.718-4.566 7.081-8.666 9.695-11.811 6.219-7.467 5.638-9.328 4.689-13.4 0 0-5.729-6.282-10.154-2.401-.504.44-1.107 1.003-1.798 1.675-10.509 10.218-41.181 45.198-41.181 45.198" stroke="#231f20" stroke-width="9.5325"/><path d="m725.327 218.271c.027-.032.059-.068.086-.1 6.337-7.24 8.37-12.446 6.051-17.808 0 0-6.6-7.149-10.649-2.882-1.811 1.911-4.512 4.757-7.794 8.216-18.579 19.591-55.783 58.838-55.783 58.838" stroke="#231f20" stroke-width="9.5325"/><path d="m680.783 161.067s1.239 10.359 1.217 22.933" stroke="#231f20" stroke-width="6.355"/><path d="m716.839 197.667c-1.044-1.484-2.093-2.841-3.142-4.076-19.769-23.277-39.469-3.572-39.469-3.572l-33.786 63.899" stroke="#231f20" stroke-width="9.5325"/><path d="m713.557 162.706 34.412 2.733" stroke="#231f20" stroke-linecap="square" stroke-miterlimit="10" stroke-width="6.355"/><path d="m636.397 165.716 34.414-2.733" stroke="#231f20" stroke-linecap="square" stroke-miterlimit="10" stroke-width="6.355"/></g></svg>