<svg enable-background="new 0 0 850.394 850.394" height="850.394" viewBox="0 0 850.394 850.394" width="850.394" xmlns="http://www.w3.org/2000/svg"><path d="m100.27 572.2h-14.78l-5.54 13.6h25.86zm25.77-3.26-5.54-13.601h-14.77l-5.54 13.601zm15.12 3.05h-14.77l-5.54 13.6h25.85zm25.77-3.25-5.53-13.61h-14.78l-5.54 13.61zm17.09 3.15h-14.78l-5.54 13.601h25.86zm25.77-3.26-5.54-13.6h-14.77l-5.55 13.6zm18.2 3.47h-14.77l-5.54 13.591h25.86zm25.77-3.26-5.53-13.609h-14.77l-5.54 13.609zm19.62 3.36h-14.77l-5.54 13.6h25.86zm25.77-3.26-5.53-13.601h-14.78l-5.54 13.601zm15.13 3.05h-14.78l-5.54 13.6h25.86zm25.77-3.25-5.55-13.61h-14.76l-5.55 13.61zm17.08 3.15h-14.78l-5.54 13.601h25.85zm25.77-3.26-5.53-13.6h-14.78l-5.54 13.6zm15.95 3.47h-14.76l-5.55 13.591h25.86zm2.18-3.26h25.86l-5.55-13.609h-14.77zm10.39-28.25v-.01h10.89c6.91 0 10.72 3.81 12.49 12.51l11.771 45.55c1.47 11.391-5.601 12.5-12.5 12.5h-14.171-6.28-332.5c-6.91 0-13.97-1.1-12.5-12.5l11.75-45.55c1.8-8.689 5.6-12.5 12.5-12.5zm11.17 30.84-5.54 13.61h25.86l-5.54-13.61z" fill="#7a7878"/><path d="m288.43 483.27h92.06v16.54h-92.06z" fill="#7a7878"/><path d="m323.16 446.33h57.33v16.54h-57.33z" fill="#7a7878"/><path d="m406.39 424.3v108.92h-298.73v-108.92h107.47 83.78zm-25.9 75.51v-16.54h-92.06v16.54zm0-36.94v-16.54h-57.33v16.54z" fill="#c8c8c8"/><path d="m161.9 229.18h190.25v127.42h-190.25z" fill="#fff"/><path d="m533.55 466.18c-.25-2.6-.38-5.229-.38-7.88 0-55.45 55.53-100.39 124.03-100.39 68.51 0 124.04 44.94 124.04 100.39 0 55.44-55.53 100.38-124.04 100.38-65.22 0-118.69-40.74-123.65-92.5zm149.62-7.89c0-11.63-11.63-21.04-25.979-21.04-14.33 0-25.96 9.41-25.96 21.04 0 11.6 11.63 21 25.96 21 14.349 0 25.979-9.4 25.979-21z" fill="#c8c8c8"/><path d="m657.19 437.25c14.35 0 25.979 9.41 25.979 21.04 0 11.6-11.63 21-25.979 21-14.33 0-25.96-9.4-25.96-21 0-11.63 11.63-21.04 25.96-21.04zm13.76 21.04c0-6.16-6.141-11.14-13.75-11.14-7.59 0-13.75 4.979-13.75 11.14 0 6.13 6.16 11.13 13.75 11.13 7.61 0 13.75-5 13.75-11.13z" fill="#c8c8c8"/><path d="m446.45 611.14v24.98h-377.56v-24.98h12.23 332.5 6.28 14.17z" fill="#7a7878"/><path d="m437.37 571.43 5.54 13.61h-25.86l5.54-13.61z" fill="#231f20"/><path d="m421.34 555.23 5.55 13.61h-25.86l5.54-13.61z" fill="#231f20"/><path d="m398.85 572.1 5.55 13.59h-25.86l5.55-13.59z" fill="#231f20"/><path d="m377.37 555.03 5.53 13.6h-25.85l5.54-13.6z" fill="#231f20"/><path d="m357.13 571.89 5.53 13.6h-25.85l5.54-13.6z" fill="#231f20"/><path d="m352.28 365.5c3.35 0 6.06 2.72 6.06 6.06 0 3.35-2.71 6.07-6.06 6.07s-6.06-2.72-6.06-6.07c0-3.34 2.71-6.06 6.06-6.06z" fill="#231f20"/><path d="m344.66 371.65c0-3.34-2.72-6.06-6.06-6.06-3.35 0-6.06 2.72-6.06 6.06 0 3.35 2.71 6.07 6.06 6.07 3.34 0 6.06-2.72 6.06-6.07zm1.56-.09c0 3.35 2.71 6.07 6.06 6.07s6.06-2.72 6.06-6.07c0-3.34-2.71-6.06-6.06-6.06s-6.06 2.72-6.06 6.06zm27.47-148.49v148.36c0 8.19-6.65 14.82-14.85 14.82h-204.2c-8.19 0-14.83-6.63-14.83-14.82v-148.36c0-8.2 6.64-14.84 14.83-14.84h204.2c8.2 0 14.85 6.64 14.85 14.84zm-21.54 133.53v-127.42h-190.25v127.42z" fill="#c8c8c8"/><path d="m338.6 365.59c3.34 0 6.06 2.72 6.06 6.06 0 3.35-2.72 6.07-6.06 6.07-3.35 0-6.06-2.72-6.06-6.07 0-3.34 2.71-6.06 6.06-6.06z" fill="#231f20"/><path d="m334.5 555.13 5.55 13.61h-25.86l5.55-13.61z" fill="#231f20"/><path d="m314.28 571.99 5.54 13.6h-25.86l5.54-13.6z" fill="#231f20"/><path d="m293.62 555.34 5.53 13.6h-25.85l5.54-13.6z" fill="#231f20"/><path d="m273.38 572.2 5.55 13.6h-25.86l5.54-13.6z" fill="#231f20"/><path d="m248.23 555.23 5.53 13.61h-25.84l5.54-13.61z" fill="#231f20"/><path d="m227.99 572.1 5.55 13.59h-25.86l5.54-13.59z" fill="#231f20"/><path d="m204.25 555.03 5.54 13.6h-25.86l5.55-13.6z" fill="#231f20"/><path d="m184.02 571.89 5.54 13.6h-25.86l5.54-13.6z" fill="#231f20"/><path d="m161.4 555.13 5.53 13.61h-25.85l5.54-13.61z" fill="#231f20"/><path d="m141.16 571.99 5.54 13.6h-25.85l5.54-13.6z" fill="#231f20"/><path d="m120.5 555.34 5.54 13.6h-25.85l5.54-13.6z" fill="#231f20"/><path d="m100.27 572.2 5.54 13.6h-25.86l5.54-13.6z" fill="#231f20"/><g fill="none"><path d="m373.69 371.43c0 8.19-6.65 14.82-14.85 14.82h-204.2c-8.19 0-14.83-6.63-14.83-14.82v-148.36c0-8.2 6.64-14.84 14.83-14.84h204.2c8.2 0 14.85 6.64 14.85 14.84z" stroke="#231f20" stroke-width="14"/><path d="m161.9 229.18h190.25v127.42h-190.25z" stroke="#231f20" stroke-width="14"/><path d="m215.13 424.3v-37.61h83.78v37.61" stroke="#231f20" stroke-width="14"/><path d="m298.91 424.3h107.48v108.92h-298.73v-108.92h107.47z" stroke="#231f20" stroke-width="14"/><path d="m288.43 483.27h92.06v16.54h-92.06z" stroke="#231f20" stroke-width="7"/><path d="m323.16 446.33h57.33v16.54h-57.33z" stroke="#231f20" stroke-width="7"/><path d="m81.12 611.14c-6.91 0-13.97-1.1-12.5-12.5l11.75-45.55c1.8-8.689 5.6-12.5 12.5-12.5h318.55 7" stroke="#231f20" stroke-width="14"/><path d="m434.07 611.14c6.899 0 13.97-1.109 12.5-12.5l-11.77-45.55c-1.77-8.7-5.58-12.51-12.49-12.51h-10.89" stroke="#231f20" stroke-width="14"/><path d="m177.68 595.32h157.64" stroke="#231f20" stroke-width="7"/><path d="m434.07 611.14h12.38v24.98h-377.56v-24.98h12.23 332.5 6.28z" stroke="#231f20" stroke-width="14"/><path d="m781.24 458.3c0 55.44-55.53 100.38-124.04 100.38-65.22 0-118.69-40.739-123.65-92.5-.25-2.6-.38-5.229-.38-7.88 0-55.45 55.53-100.39 124.03-100.39 68.51 0 124.04 44.94 124.04 100.39z" stroke="#231f20" stroke-width="14"/><path d="m670.95 458.29c0 6.13-6.141 11.13-13.75 11.13-7.59 0-13.75-5-13.75-11.13 0-6.16 6.16-11.14 13.75-11.14 7.61 0 13.75 4.98 13.75 11.14z" stroke="#231f20" stroke-width="7"/><path d="m683.17 458.29c0 11.6-11.63 21-25.979 21-14.33 0-25.96-9.4-25.96-21 0-11.63 11.63-21.04 25.96-21.04 14.349 0 25.979 9.41 25.979 21.04z" stroke="#231f20" stroke-width="7"/><path d="m620.24 466.18h-86.69-83.96" stroke="#231f20" stroke-width="21"/><path d="m498.97 511.72-50.35-45.71 50.42-45.69" stroke="#231f20" stroke-width="21"/><path d="m0 0h850.394v850.394h-850.394z"/></g></svg>