<svg enable-background="new 0 0 850.394 850.394" height="850.394" viewBox="0 0 850.394 850.394" width="850.394" xmlns="http://www.w3.org/2000/svg"><path d="m548.79 437.5 53.18.26 50.03.24 2.46-.25 5.28 52.07-1.74.18-107.45-.51z" fill="#f6cc4b"/><path d="m644.07 335.2 5.17 51.03h-50.69l-3.85-51.03z" fill="#fff5b4"/><path d="m601.97 437.76-53.18-.26-1.73-51.27h51.49l3.45 45.77z" fill="#f6cc4b"/><path d="m598.55 386.23h-51.49l-1.73-51.03h49.37z" fill="#fff5b4"/><path d="m649.24 386.23 5.22 51.52-2.46.25-50.03-.24.03-5.76-3.45-45.77z" fill="#f6cc4b"/><path d="m397.24 436.76v-50.53h49.36v50.77z" fill="#f6cc4b"/><path d="m548.79 437.5 1.76 51.99-54.59-.26v-51.99z" fill="#f6cc4b"/><path d="m222.79 293.08 5.01-25.06-29.3-3.47-.38 15.42zm426.45 93.15-5.17-51.03h-49.37-49.37-49.37-49.36-49.36-49.37-49.36-49.36l-5.17 51.03-5.02 49.46-5.28 52.069-5.23 51.561h56.26 56.26 56.27 49.36 49.36 56.271 112.529l-5.02-49.5-5.28-52.07zm23.42-92.89 24.67-13.11-.38-15.42-29.3 3.47zm-447.98 14.39c-1.3-22.47-29.26-25.83-29.26-25.83l2.7-19.92 224.08.12c5.52 1.69 12.6 2.71 20.319 2.71 7.69 0 14.74-1.01 20.25-2.69l234.561.12 2.7 19.92s-28.91 3.47-29.3 26.99l-.221.02 23.61 251.76-493.18-.06zm109.9 7.45v-31.86l-78.64-.01-3.59 31.87z" fill="#c8c8c8"/><path d="m446.6 437v52l-49.36-.24v-52z" fill="#f6cc4b"/><path d="m291.68 436.24-3.52 52.01-52.16-.25-2.32-.24 5.28-52.07 3.04.31z" fill="#f6cc4b"/><path d="m547.06 386.23 1.73 51.27-52.83-.26v-51.01z" fill="#f6cc4b"/><path d="m346.15 386.23-1.7 50.27-52.77-.26 3.38-50.01z" fill="#fff5b4"/><path d="m344.45 436.5-1.76 52.01-54.53-.26 3.52-52.01z" fill="#f6cc4b"/><path d="m344.45 436.5 1.7-50.27h51.09v50.53z" fill="#fff5b4"/><path d="m295.06 386.23-3.38 50.01-49.68-.24-3.04-.31 5.02-49.46z" fill="#fff5b4"/><path d="m397.24 436.76v52l-54.55-.25 1.76-52.01z" fill="#f6cc4b"/><path d="m495.96 386.23v51.01l-49.36-.24v-50.77z" fill="#f6cc4b"/><path d="m495.96 437.24v51.99l-49.36-.23v-52z" fill="#f6cc4b"/><path d="m342.69 488.51-1.72 50.81h-56.26l3.45-51.07z" fill="#f6cc4b"/><path d="m397.24 488.76v50.56h-56.27l1.72-50.81z" fill="#f6cc4b"/><path d="m659.74 489.82 5.02 49.5h-112.53l-1.68-49.83 107.45.51z" fill="#f6cc4b"/><path d="m495.96 489.23v50.09h-49.36v-50.32z" fill="#f6cc4b"/><path d="m550.55 489.49 1.68 49.83h-56.27v-50.09z" fill="#f6cc4b"/><path d="m288.16 488.25-3.45 51.07h-56.26l5.23-51.56 2.32.24z" fill="#f6cc4b"/><path d="m446.6 489v50.32h-49.36v-50.56z" fill="#f6cc4b"/><path d="m547.06 386.23h-51.1v-51.03h49.37z" fill="#fff5b4"/><path d="m446.6 335.2h49.36v51.03h-49.36z" fill="#fff5b4"/><path d="m397.24 335.2h49.359v51.03h-49.359z" fill="#fff5b4"/><path d="m397.24 335.2v51.03h-51.09l1.72-51.03z" fill="#fff5b4"/><path d="m347.87 335.2-1.72 51.03h-51.09l3.45-51.03z" fill="#fff5b4"/><path d="m298.51 335.2-3.45 51.03h-51.08l5.17-51.03z" fill="#fff5b4"/><path d="m160.85 450.88c0 6.93-5.98 12.55-13.36 12.55s-13.36-5.62-13.36-12.55c0-6.939 5.98-12.56 13.36-12.56s13.36 5.62 13.36 12.56z" fill="#c8c8c8"/><ellipse cx="156.74" cy="393.31" fill="#c8c8c8" rx="13.36" ry="12.55"/><ellipse cx="165.99" cy="337.58" fill="#c8c8c8" rx="13.36" ry="12.55"/><path d="m767.11 562.58s12.069 55.51-32.341 73.43l-622.16-.189c-44.42-17.92-31.17-71.69-31.17-71.69l.37-.05c1.68 13.07 9.28 31.74 38.95 31.74 70.93 0 535.771-.5 606.7-.5 30.45 0 37.65-19.67 39.08-32.771z" fill="#797878"/><path d="m766.52 551.11s.73 4.899.021 11.439c-1.43 13.101-8.63 32.771-39.08 32.771-70.93 0-535.77.5-606.7.5-29.67 0-37.27-18.67-38.95-31.74-.92-7.04-.11-12.46-.11-12.46s34.95-208.68 43.17-282.7c4.48-40.25 40.1-46.26 40.1-46.26l518.28-.51s35.62 6.01 40.1 46.26c8.219 74.01 43.169 282.7 43.169 282.7zm-66.49-268.95-2.7-19.92-234.561-.12c7.091-2.17 11.62-5.45 11.62-9.13 0-6.53-14.27-11.82-31.87-11.82s-31.87 5.29-31.87 11.82c0 3.67 4.5 6.94 11.55 9.11l-224.08-.12-2.7 19.92s27.96 3.36 29.26 25.83l-23.74 253.14 493.18.06-23.61-251.76.221-.02c.39-23.52 29.3-26.99 29.3-26.99zm-534.04 67.97c7.38 0 13.36-5.62 13.36-12.55s-5.98-12.55-13.36-12.55-13.36 5.62-13.36 12.55 5.98 12.55 13.36 12.55zm-9.25 55.73c7.38 0 13.36-5.62 13.36-12.55s-5.98-12.55-13.36-12.55-13.36 5.62-13.36 12.55 5.98 12.55 13.36 12.55zm-9.25 57.57c7.38 0 13.36-5.62 13.36-12.55 0-6.939-5.98-12.56-13.36-12.56s-13.36 5.62-13.36 12.56c0 6.93 5.98 12.55 13.36 12.55z" fill="#797878"/><path d="m696.95 264.81.38 15.42-24.67 13.11-5.01-25.06z" fill="#231f20"/><path d="m442.52 241.17c17.601 0 31.87 5.29 31.87 11.82 0 3.68-4.529 6.96-11.62 9.13l-40.57-.02c-7.05-2.17-11.55-5.44-11.55-9.11 0-6.53 14.27-11.82 31.87-11.82z" fill="#231f20"/><path d="m422.2 262.1 40.569.02c-5.51 1.68-12.56 2.69-20.25 2.69-7.719 0-14.799-1.02-20.319-2.71z" fill="#231f20"/><path d="m334.58 283.32v31.86h-82.23l3.59-31.87z" fill="#797878"/><path d="m227.8 268.02-5.01 25.06-24.67-13.11.38-15.42z" fill="#231f20"/><g fill="none"><path d="m81.81 564.08c1.68 13.07 9.28 31.74 38.95 31.74 70.93 0 535.771-.5 606.7-.5 30.45 0 37.65-19.67 39.08-32.771.71-6.54-.021-11.439-.021-11.439s-34.949-208.69-43.17-282.7c-4.479-40.25-40.1-46.26-40.1-46.26l-518.28.51s-35.62 6.01-40.1 46.26c-8.22 74.02-43.17 282.7-43.17 282.7s-.809 5.42.111 12.46z" stroke="#231f20" stroke-width="14"/><path d="m666.36 264.87 4.15 44.3 23.61 251.76-493.18-.06 23.74-253.14 4.02-42.92" stroke="#231f20" stroke-width="14"/><ellipse cx="165.99" cy="337.58" rx="13.36" ry="12.55" stroke="#231f20" stroke-width="12.4667"/><ellipse cx="156.74" cy="393.31" rx="13.36" ry="12.55" stroke="#231f20" stroke-width="12.4667"/><path d="m160.85 450.88c0 6.93-5.98 12.55-13.36 12.55s-13.36-5.62-13.36-12.55c0-6.939 5.98-12.56 13.36-12.56s13.36 5.62 13.36 12.56z" stroke="#231f20" stroke-width="12.4667"/><path d="m243.98 386.23 5.17-51.03h49.36 49.36 49.37 49.36 49.36 49.37 49.37 49.37l5.17 51.03 5.22 51.52 5.28 52.07 5.02 49.5h-112.53-56.27-49.36-49.36-56.27-56.26-56.26l5.23-51.56 5.28-52.07z" stroke="#231f20" stroke-width="14"/><path d="m236 488 52.16.25 54.53.26 54.55.25 49.36.24 49.36.23 54.59.26 107.45.51" stroke="#231f20" stroke-width="14"/><path d="m242 436 49.68.24 52.77.26 52.79.26 49.36.24 49.36.24 52.83.26 53.18.26 50.03.24" stroke="#231f20" stroke-width="14"/><path d="m242.25 386.23h1.73 51.08 51.09 51.09 49.36 49.36 51.1 51.49 50.69 1.72" stroke="#231f20" stroke-width="14"/><path d="m594.7 335.2 3.85 51.03 3.45 45.77" stroke="#231f20" stroke-width="14"/><path d="m545.33 335.2 1.73 51.03 1.73 51.27 1.76 51.99 1.68 49.83" stroke="#231f20" stroke-width="14"/><path d="m495.96 335.2v51.03 51.01 51.99 50.09" stroke="#231f20" stroke-width="14"/><path d="m446.6 335.2v51.03 50.77 52 50.32" stroke="#231f20" stroke-width="14"/><path d="m397.24 335.2v51.03 50.53 52 50.56" stroke="#231f20" stroke-width="14"/><path d="m347.87 335.2-1.72 51.03-1.7 50.27-1.76 52.01-1.72 50.81" stroke="#231f20" stroke-width="14"/><path d="m298.51 335.2-3.45 51.03-3.38 50.01-3.52 52.01-3.45 51.07" stroke="#231f20" stroke-width="14"/><path d="m583.73 301.19v21.4" stroke="#231f20" stroke-width="4.675"/><path d="m590.63 314.87-6.93 7.87-6.94-7.88" stroke="#231f20" stroke-width="4.675"/><path d="m583.73 298.47v-21.4" stroke="#231f20" stroke-width="4.675"/><path d="m576.83 284.79 6.94-7.87 6.93 7.88" stroke="#231f20" stroke-width="4.675"/><path d="m603.6 299.93h21.39" stroke="#231f20" stroke-width="4.675"/><path d="m617.28 293.03 7.87 6.93-7.89 6.93" stroke="#231f20" stroke-width="4.675"/><path d="m563.87 299.92h-21.4" stroke="#231f20" stroke-width="4.675"/><path d="m550.19 306.83-7.87-6.94 7.89-6.93" stroke="#231f20" stroke-width="4.675"/><path d="m334.58 315.18h-82.23l3.59-31.87 78.64.01z" stroke="#231f20" stroke-width="12.4667"/><path d="m198.5 264.55 29.3 3.47-5.01 25.06-24.67-13.11z" stroke="#231f20" stroke-width="18.7"/><path d="m422.2 262.1-224.08-.12-2.7 19.92s27.96 3.36 29.26 25.83c.02.38.03.76.04 1.15" stroke="#231f20" stroke-width="14"/><path d="m670.73 309.15c.39-23.52 29.3-26.99 29.3-26.99l-2.7-19.92-234.561-.12" stroke="#231f20" stroke-width="14"/><path d="m696.95 264.81-29.3 3.47 5.01 25.06 24.67-13.11z" stroke="#231f20" stroke-width="18.7"/><path d="m422.2 262.1c-7.05-2.17-11.55-5.44-11.55-9.11 0-6.53 14.27-11.82 31.87-11.82 17.601 0 31.87 5.29 31.87 11.82 0 3.68-4.529 6.96-11.62 9.13-5.51 1.68-12.56 2.69-20.25 2.69-7.72 0-14.8-1.02-20.32-2.71z" stroke="#231f20" stroke-width="12.4667"/><path d="m767.11 562.58s12.069 55.51-32.341 73.43l-622.16-.189c-44.42-17.92-31.17-71.69-31.17-71.69" stroke="#231f20" stroke-width="14"/><path d="m0 0h850.394v850.394h-850.394z"/></g></svg>