<svg enable-background="new 0 0 850.89 850.89" height="850.89" viewBox="0 0 850.89 850.89" width="850.89" xmlns="http://www.w3.org/2000/svg"><path d="m508.25 699.62h-418.33v-530.85h664.99v530.85h-84.66v-1.37-268h-162v264zm-88.58-253.41h-87.43v-25.56-5.38h48.76c6.66 0 12.07-5.4 12.07-12.07v-120.68c0-6.66-5.41-12.07-12.07-12.07h-166.11c-6.67 0-12.07 5.41-12.07 12.07v120.68c0 6.67 5.4 12.07 12.07 12.07h49.2v5.38 25.56h-87.43l-.4 94.6h-11.62c-5.62 0-8.72 3.091-10.17 10.16l-9.56 37.061c-1.19 9.279 4.55 10.18 10.16 10.18h-9.94v20.32h307.13v-20.32h-10.07v-.01c5.619 0 11.359-.891 10.17-10.17l-9.57-37.061c-1.45-7.069-4.54-10.16-10.16-10.16h-3.16-5.7-5.5z" fill="#fff"/><path d="m430.67 598.21h-275.6c-5.61 0-11.35-.9-10.16-10.18l9.56-37.061c1.45-7.069 4.55-10.16 10.17-10.16h11.62 242.01 5.5 5.7 3.16c5.62 0 8.71 3.091 10.16 10.16l9.57 37.061c1.189 9.279-4.551 10.17-10.17 10.17v.01z" fill="#c8c8c8"/><path d="m419.67 446.21-1.4 94.6h-242.01l.4-94.6h87.43 68.15zm-21.07 61.43v-13.46h-74.88v13.46zm0-30.05v-13.45h-46.63v13.45z" fill="#787878"/><path d="m670.25 698.25v1.37h-162v-5.37-264h162zm-36-158v-70l-94 2v68zm-71.89 50c0-7.38-5.42-13.39-12.11-13.39s-12.11 6.01-12.11 13.39c0 7.39 5.42 13.39 12.11 13.39s12.11-6 12.11-13.39z" fill="#33a02c"/><path d="m634.25 470.25v70h-94v-68z" fill="#231f20"/><path d="m550.25 576.86c6.69 0 12.11 6.01 12.11 13.39 0 7.39-5.42 13.39-12.11 13.39s-12.11-6-12.11-13.39c0-7.38 5.42-13.39 12.11-13.39z" fill="#231f20"/><path d="m452.26 598.21v20.32h-307.13v-20.32h9.94 275.6 11.52z" fill="#787878"/><path d="m323.72 494.18h74.88v13.46h-74.88z" fill="#c8c8c8"/><path d="m351.97 464.14h46.63v13.45h-46.63z" fill="#c8c8c8"/><path d="m393.07 282.52v120.68c0 6.67-5.41 12.07-12.07 12.07h-48.76-68.15-49.2c-6.67 0-12.07-5.4-12.07-12.07v-120.68c0-6.66 5.4-12.07 12.07-12.07h166.11c6.66 0 12.07 5.41 12.07 12.07zm-12.48 120.8c0-2.73-2.2-4.93-4.94-4.93-2.71 0-4.93 2.2-4.93 4.93 0 2.72 2.22 4.93 4.93 4.93 2.74 0 4.94-2.21 4.94-4.93zm-5.04-12.18v-103.65h-154.76v103.65zm-6.09 12.25c0-2.72-2.22-4.93-4.93-4.93-2.74 0-4.94 2.21-4.94 4.93 0 2.73 2.2 4.93 4.94 4.93 2.71 0 4.93-2.2 4.93-4.93z" fill="#c8c8c8"/><path d="m375.65 398.39c2.74 0 4.94 2.2 4.94 4.93 0 2.72-2.2 4.93-4.94 4.93-2.71 0-4.93-2.21-4.93-4.93 0-2.73 2.22-4.93 4.93-4.93z" fill="#231f20"/><path d="m220.79 287.49h154.76v103.65h-154.76z" fill="#fff"/><path d="m364.53 398.46c2.71 0 4.93 2.21 4.93 4.93 0 2.73-2.22 4.93-4.93 4.93-2.74 0-4.94-2.2-4.94-4.93 0-2.72 2.2-4.93 4.94-4.93z" fill="#231f20"/><path d="m332.24 420.65v25.56h-68.15v-25.56-5.38h68.15z" fill="#fff"/><g fill="none"><path d="m670.25 698.25v-268h-162v264" stroke="#231f20" stroke-width="21"/><path d="m508.25 699.62h-418.33v-530.85h664.99v530.85h-84.66z" stroke="#231f20" stroke-width="28"/><path d="m264.09 415.27h-49.2c-6.67 0-12.07-5.4-12.07-12.07v-120.68c0-6.66 5.4-12.07 12.07-12.07h166.11c6.66 0 12.07 5.41 12.07 12.07v120.68c0 6.67-5.41 12.07-12.07 12.07h-48.76z" stroke="#231f20" stroke-width="12.4546"/><path d="m220.79 287.49h154.76v103.65h-154.76z" stroke="#231f20" stroke-width="12.4546"/><path d="m332.24 420.65v25.56" stroke="#231f20" stroke-width="12.4546"/><path d="m264.09 446.21v-25.56" stroke="#231f20" stroke-width="12.4546"/><path d="m176.25 542.25.01-1.44.4-94.6h87.43 68.15 87.43l-1.4 94.6-.02 1.44" stroke="#231f20" stroke-width="12.4546"/><path d="m323.72 494.18h74.88v13.46h-74.88z" stroke="#231f20" stroke-width="12.4546"/><path d="m351.97 464.14h46.63v13.45h-46.63z" stroke="#231f20" stroke-width="12.4546"/><path d="m155.07 598.21c-5.61 0-11.35-.9-10.16-10.18l9.56-37.061c1.45-7.069 4.55-10.16 10.17-10.16h11.62 242.01 5.5" stroke="#231f20" stroke-width="12.4546"/><path d="m425.56 598.2h16.63c5.619 0 11.359-.891 10.17-10.17l-9.57-37.061c-1.45-7.069-4.54-10.16-10.16-10.16h-3.16-5.7" stroke="#231f20" stroke-width="12.4546"/><path d="m188.18 556.06h236.54" stroke="#231f20" stroke-dasharray="21.8589" stroke-width="14.5726"/><path d="m188.18 581.21h237.4" stroke="#231f20" stroke-dasharray="21.8589" stroke-width="14.5726"/><path d="m442.19 598.21h10.07v20.32h-307.13v-20.32h9.94 275.6z" stroke="#231f20" stroke-width="12.4546"/><path d="m.25.25h850.394v850.394h-850.394z"/></g></svg>