<svg enable-background="new 0 0 850.394 850.394" height="850.394" viewBox="0 0 850.394 850.394" width="850.394" xmlns="http://www.w3.org/2000/svg"><path d="m599.8 102-.52 102.56-2.391-.01s-37.54 9.43-70.33-35.77c-16.5-22.74-13.899-63.57-13.899-63.57l-.021-2.29 29.841-.32v3.15h16.909v-3.32z" fill="#0071bc"/><path d="m542.47 60.35 57.52-.32.01 1.97-.2 40-40.41.43v-40.4h-16.91z" fill="#0071bc"/><path d="m559.39 62.03v40.4l-16.91.17v-40.57z" fill="#0071bc"/><path d="m285.89 61.78 256.58-1.43.01 1.68v40.57l-29.84.32-91.39.95-94.11.99-24.34.25v-43.08h-16.91z" fill="#0071bc"/><path d="m302.8 62.03v43.08l-16.91.18v-43.26z" fill="#0071bc"/><path d="m285.89 62.03v43.26l-43.72.46h-.06l-.27-43.72 44.05-.25z" fill="#0071bc"/><path d="m260.58 205.2 2.62 583.46h-16.81l-3.65-583.57h.17s7.03 1.77 17.67.11z" fill="#0071bc"/><path d="m260.58 205.2c-10.64 1.66-17.67-.11-17.67-.11h-.17l-.63-99.34h.06l43.72-.46v.46h16.91v-.64l24.34-.25.01.89s2.58 40.83-13.92 63.57c-18.59 25.63-38.72 33.7-52.65 35.88z" fill="#0071bc"/><path d="m421.27 105.75v143.2l-31.29 539.71h-126.78l-2.62-583.46c13.93-2.18 34.06-10.25 52.65-35.88 16.5-22.74 13.92-63.57 13.92-63.57l-.01-.89 94.11-.99z" fill="#0071bc"/><path d="m526.56 168.78c32.79 45.2 70.33 35.77 70.33 35.77l2.391.01-2.94 583.959h-143.591l-31.48-538.76v-.81-143.2l-.02-1.88 91.39-.95.021 2.29c-.001.001-2.601 40.831 13.899 63.571z" fill="#0071bc"/><g fill="none"><path d="m421.27 248.95-31.29 539.71h-126.78-16.81l-3.65-583.57-.63-99.34-.27-43.72 44.05-.25 256.58-1.43 57.52-.32 6.01-.03" stroke="#231f20" stroke-width="21"/><path d="m421.27 249.76 31.48 538.76h143.59l2.94-583.96.52-102.56.2-40" stroke="#231f20" stroke-width="21"/><path d="m242.17 105.75 43.72-.46 16.91-.18 24.34-.25 94.11-.99 91.39-.95 29.84-.32 16.91-.17 40.41-.43h.2" stroke="#231f20" stroke-width="21"/><path d="m421.27 105.75v143.2.81 25.54" stroke="#231f20" stroke-width="21"/><path d="m327.15 105.75s2.58 40.83-13.92 63.57c-18.59 25.63-38.72 33.7-52.65 35.88-10.64 1.66-17.67-.11-17.67-.11" stroke="#231f20" stroke-width="21"/><path d="m512.66 105.21s-2.601 40.83 13.899 63.57c32.79 45.2 70.33 35.77 70.33 35.77" stroke="#231f20" stroke-width="21"/><path d="m302.8 105.11v.64h-16.91v-.46-43.26h16.91z" stroke="#231f20" stroke-width="13.5177"/><path d="m559.39 102.43v3.32h-16.91v-3.15-40.57h16.91z" stroke="#231f20" stroke-width="13.5177"/><path d="m260.56 201.34.02 3.86 2.62 583.46" stroke="#231f20" stroke-dasharray="13.5177" stroke-width="6.7588"/><path d="m582.37 210.18-2.57 571.69" stroke="#231f20" stroke-dasharray="13.5177" stroke-width="6.7588"/><path d="m0 0h850.394v850.394h-850.394z"/></g></svg>