<svg enable-background="new 0 0 850.394 850.394" height="850.394" viewBox="0 0 850.394 850.394" width="850.394" xmlns="http://www.w3.org/2000/svg"><path d="m764.82 629.42 6.439 49.521-103.8 13.47-44.65-198.53-23.039-102.481s-7.68-27.03-7.68-46.1c0-119.06 60.66-169.59 60.66-169.59l.02-.03c41.07 22.27 55.82 92.16 55.82 92.16z" fill="#33a02c"/><path d="m652.77 175.68-.02.03s-60.66 50.53-60.66 169.59c0 19.07 7.68 46.1 7.68 46.1l23.04 102.48-19.52 248.96h-341.84l-24.97-248.94v-.011l23.05-102.49s7.68-27.03 7.68-46.1c0-119.06-60.67-169.59-60.67-169.59l-.02-.03c6.18-3.35 12.95-5.62 20.36-6.42 17.02-1.82 84.38-17.85 120.71-28.7-5.27 8.2-8.2 17.32-8.2 26.94 0 35.71 41.22 75.06 91.06 75.06 49.859 0 89.45-39.35 89.45-75.06 0-9.67-2.96-18.84-8.28-27.08 36.33 10.86 103.77 27.02 120.79 28.84 7.41.801 14.18 3.071 20.36 6.421z" fill="#33a02c"/><path d="m511.62 140.42c5.32 8.24 8.28 17.41 8.28 27.08 0 35.71-39.591 75.06-89.45 75.06-49.84 0-91.06-39.35-91.06-75.06 0-9.62 2.93-18.74 8.2-26.94 14.25-22.26 45.64-37.71 82.05-37.71 36.36 0 67.68 15.39 81.98 37.57z" fill="#33a02c"/><path d="m267.21 345.3c0 19.07-7.68 46.1-7.68 46.1l-23.05 102.49v.011l-44.64 198.51-103.8-13.47 6.43-49.521 56.23-361.58s14.76-69.89 55.82-92.16l.02.03s60.67 50.53 60.67 169.59z" fill="#33a02c"/><g fill="none"><path d="m511.62 140.42c5.32 8.24 8.28 17.41 8.28 27.08 0 35.71-39.591 75.06-89.45 75.06-49.84 0-91.06-39.35-91.06-75.06 0-9.62 2.93-18.74 8.2-26.94 14.25-22.26 45.64-37.71 82.05-37.71 36.36 0 67.68 15.39 81.98 37.57z" stroke="#000" stroke-width="14"/><path d="m557.61 157.06c.21 2.15.31 4.32.31 6.51 0 51.93-57.06 108.76-127.47 108.76-70.4 0-127.47-56.83-127.47-108.76 0-1.83.11-3.69.31-5.56" stroke="#000" stroke-width="14"/><path d="m236.48 493.9-44.64 198.51-103.8-13.47 6.43-49.521 56.23-361.58s14.76-69.89 55.82-92.16c6.18-3.35 12.95-5.62 20.36-6.42 17.02-1.82 84.38-17.85 120.71-28.7.02-.01.03-.02.05-.02" stroke="#000" stroke-width="14"/><path d="m206.54 175.71s60.67 50.53 60.67 169.59c0 19.07-7.68 46.1-7.68 46.1l-23.05 102.49" stroke="#000" stroke-width="14"/><path d="m652.75 175.71s-60.66 50.53-60.66 169.59c0 19.07 7.68 46.1 7.68 46.1l23.04 102.48 44.65 198.53 103.8-13.47-6.439-49.521-56.23-361.58s-14.75-69.89-55.82-92.16c-6.18-3.35-12.949-5.62-20.359-6.42-17.021-1.82-84.46-17.98-120.79-28.84-.01 0-.03-.01-.04-.01" stroke="#000" stroke-width="14"/><path d="m622.81 493.88-19.52 248.96h-341.84l-24.97-248.94v-.01" stroke="#000" stroke-width="14"/><path d="m0 0h850.394v850.394h-850.394z"/><path d="m94 638 104 14" stroke="#000" stroke-width="14"/><path d="m106 640-6 36" stroke="#000" stroke-width="7"/><path d="m120 642-6 38" stroke="#000" stroke-width="7"/><path d="m136 644-6 34" stroke="#000" stroke-width="7"/><path d="m164 648-8 36" stroke="#000" stroke-width="7"/><path d="m178 650-8 36" stroke="#000" stroke-width="7"/><path d="m148 646-6 34" stroke="#000" stroke-width="7"/><path d="m662 658 104-16" stroke="#000" stroke-width="14"/><path d="m676 654 6 32" stroke="#000" stroke-width="7"/><path d="m690 652 8 34" stroke="#000" stroke-width="7"/><path d="m706 650 6 32" stroke="#000" stroke-width="7"/><path d="m722 646 6 36" stroke="#000" stroke-width="7"/><path d="m738 644 6 36" stroke="#000" stroke-width="7"/><path d="m752 642 2 36" stroke="#000" stroke-width="7"/><path d="m258 702h346" stroke="#000" stroke-width="14"/><path d="m272 700 2 40" stroke="#000" stroke-width="7"/><path d="m290 700v40" stroke="#000" stroke-width="7"/><path d="m308 700v38" stroke="#000" stroke-width="7"/><path d="m326 700v38" stroke="#000" stroke-width="7"/><path d="m342 702v36" stroke="#000" stroke-width="7"/><path d="m358 702v38" stroke="#000" stroke-width="7"/><path d="m376 702v38" stroke="#000" stroke-width="7"/><path d="m392 702v38" stroke="#000" stroke-width="7"/><path d="m412 702-2 38" stroke="#000" stroke-width="7"/><path d="m432 702v42" stroke="#000" stroke-width="7"/><path d="m448 702v40" stroke="#000" stroke-width="7"/><path d="m464 700v42" stroke="#000" stroke-width="7"/><path d="m482 700v40" stroke="#000" stroke-width="7"/><path d="m500 700v38" stroke="#000" stroke-width="7"/><path d="m518 702v40" stroke="#000" stroke-width="7"/><path d="m536 702-2 36" stroke="#000" stroke-width="7"/><path d="m556 702v36" stroke="#000" stroke-width="7"/><path d="m572 700v38" stroke="#000" stroke-width="7"/><path d="m588 702v36" stroke="#000" stroke-width="7"/></g></svg>