<svg enable-background="new 0 0 850.394 850.394" height="850.394" viewBox="0 0 850.394 850.394" width="850.394" xmlns="http://www.w3.org/2000/svg"><path d="m288.94 77.08h69.79v27.44h-69.79z" fill="#fbed24"/><path d="m288.94 161.79h69.79v27.44h-69.79z" fill="#fbed24"/><path d="m396.91 63.36v141.98h-38.18v-16.11-27.44-57.27-27.44-13.72z" fill="#fbed24"/><path d="m442.24 56.51v574.14h-16.7-2.88-25.75v-425.31-141.98-6.85z" fill="#fbed24"/><path d="m544.84 703.43c4.12 18.41 16.12 43.54 0 59.65-27.68 27.68-106.729 32.189-120.74 32.78-14.01-.591-93.05-5.101-120.74-32.78-16.1-16.11-4.11-41.24 0-59.65 9.34-41.76 20.28-72.779 20.28-72.779h73.27 25.75 2.88 16.7 82.319c.001-.001 10.951 31.019 20.281 72.779zm-65.61 37.58c0-14.17-25.641-25.649-57.271-25.649-31.62 0-57.26 11.479-57.26 25.649 0 14.16 25.64 25.65 57.26 25.65 31.631 0 57.271-11.49 57.271-25.65z" fill="#fbed24"/><g fill="none"><path d="m396.91 630.65v-425.31" stroke="#231f20" stroke-width="21"/><path d="m396.91 63.36v-6.85h45.33v574.14" stroke="#231f20" stroke-width="21"/><path d="m426.24 795.94s-.75-.021-2.14-.08c-14.01-.591-93.05-5.101-120.74-32.78-16.1-16.11-4.11-41.24 0-59.65 9.34-41.76 20.28-72.779 20.28-72.779h73.27 25.75 2.88 16.7 82.319s10.95 31.02 20.28 72.779c4.12 18.41 16.12 43.54 0 59.65-27.68 27.68-106.729 32.189-120.74 32.78-1.39.06-2.14.08-2.14.08" stroke="#231f20" stroke-width="21"/><path d="m364.7 741.01c0-14.17 25.64-25.649 57.26-25.649 31.63 0 57.271 11.479 57.271 25.649 0 14.16-25.641 25.65-57.271 25.65-31.62 0-57.26-11.49-57.26-25.65z" stroke="#231f20" stroke-width="21"/><path d="m358.73 161.79v-57.27" stroke="#231f20" stroke-width="21"/><path d="m358.73 77.08v-13.72h38.18v141.98h-38.18v-16.11" stroke="#231f20" stroke-width="21"/><path d="m288.94 161.79h69.79v27.44h-69.79z" stroke="#231f20" stroke-width="21"/><path d="m288.94 77.08h69.79v27.44h-69.79z" stroke="#231f20" stroke-width="21"/><path d="m0 0h850.394v850.394h-850.394z"/></g></svg>