<svg enable-background="new 0 0 850.394 850.394" height="850.394" viewBox="0 0 850.394 850.394" width="850.394" xmlns="http://www.w3.org/2000/svg"><path d="m446.87 296.19h-7.78v116.9h7.78 11.99v-116.9zm-33.64.27h-9.04v116.9h9.04 10.73v-116.9zm-33.66.24h-9.03v116.9h9.03 10.74v-116.9zm302.87-.79h-11.03v116.91h11.03 8.739v-116.91zm-33.64.24h-11.05v116.9h11.05 8.73v-116.9zm-44.29.06v116.9h10.641 9.14v-116.9h-9.14zm-292.24-.39h-8.64v116.91h8.64 11.13v-116.91zm-87.31 117.1v-101.75l-9.6 101.75zm322.88-116.74h-8.859v116.91h8.859 10.91v-116.91zm-279.11-.09v116.91h9.88 9.89v-116.91h-9.89zm245.45-.73h33.66 33.65 33.66 33.65 33.641 33.659 2.591c18.21 0 33 14.77 33 33v143.56c0 18.23-14.79 33-33 33h-474.381c-18.23 0-33-14.77-33-33v-143.56c0-18.23 14.77-33 33-33h.65 33.65 33.66 33.65 33.65 33.66 33.64 33.66zm0 116.97h10.92v-116.91h-10.92-8.85v116.91zm234.22.21-.95-67.63-8.94-32.98v100.61z" fill="#fff"/><path d="m215.36 412.92 9.6-101.75v101.75z"/><path d="m211.31 328.36v143.56c0 18.23 14.77 33 33 33h-73.75s-39.9-.18-56.27-5.71c-30.44-10.27-38.33-25.79-46.21-52.75-13.82-47.29 16.32-95.74 16.32-95.74 5.7-13.1 6.12-48.08 6.12-48.08v-48.5c0-18.22 14.78-33 33-33h628.17c18.22 0 32.989 14.78 32.989 33v217.78c0 18.23-14.77 33-32.989 33h-33c18.21 0 33-14.77 33-33v-143.56c0-18.23-14.79-33-33-33h-2.59-33.66-33.64-33.65-33.66-33.65-33.66-33.65-33.66-33.64-33.66-33.65-33.65-33.66-33.65-.65c-18.23 0-33 14.77-33 33zm186.03-61.13v-17.47c0-2.41-.98-4.59-2.56-6.17s-3.76-2.56-6.17-2.56c-4.83 0-8.74 3.91-8.74 8.73v17.47c0 2.41.98 4.59 2.56 6.17s3.77 2.56 6.18 2.56c4.82 0 8.73-3.91 8.73-8.73zm-33.84 0v-17.47c0-2.41-.98-4.59-2.56-6.17s-3.76-2.56-6.17-2.56c-4.82 0-8.73 3.91-8.73 8.73v17.47c0 2.41.98 4.59 2.56 6.17s3.76 2.56 6.17 2.56c4.82 0 8.73-3.91 8.73-8.73zm-32.74 0v-17.47c0-2.41-.98-4.59-2.56-6.17s-3.76-2.56-6.17-2.56c-4.82 0-8.73 3.91-8.73 8.73v17.47c0 2.41.98 4.59 2.56 6.17s3.76 2.56 6.17 2.56c4.82 0 8.73-3.91 8.73-8.73zm-32.38 0v-17.47c0-2.41-.98-4.59-2.56-6.17s-3.76-2.56-6.17-2.56c-4.83 0-8.73 3.91-8.73 8.73v17.47c0 2.41.98 4.59 2.55 6.17 1.58 1.58 3.77 2.56 6.18 2.56 4.82 0 8.73-3.91 8.73-8.73zm-33.83 0v-17.47c0-2.41-.98-4.59-2.56-6.17s-3.77-2.56-6.18-2.56c-4.82 0-8.73 3.91-8.73 8.73v17.47c0 2.41.98 4.59 2.56 6.17s3.76 2.56 6.17 2.56c4.83 0 8.74-3.91 8.74-8.73zm-39.3-8.73c0-4.82-3.91-8.74-8.73-8.74h-17.46c-2.41 0-4.59.98-6.17 2.56s-2.56 3.77-2.56 6.18c0 4.82 3.91 8.73 8.73 8.73h17.46c2.41 0 4.59-.98 6.17-2.56s2.56-3.76 2.56-6.17z" fill="#787878"/><path d="m748.4 412.54h-9.89v-100.61l8.94 32.98z"/><path d="m682.44 295.91h8.739v116.91h-8.739z"/><path d="m671.41 295.91h11.03v116.91h-11.03z"/><path d="m648.8 296.15h8.73v116.9h-8.73z"/><path d="m637.75 296.15h11.05v116.9h-11.05z"/><path d="m615.15 296.21h9.14v116.9h-9.14z"/><path d="m604.51 296.21h10.641v116.9h-10.641z"/><path d="m547.84 296.18h10.91v116.91h-10.91z"/><path d="m538.98 296.18h8.859v116.91h-8.859z"/><path d="m514.18 295.42h10.92v116.91h-10.92z"/><path d="m505.33 295.42h8.85v116.91h-8.85z"/><path d="m446.87 296.19h11.99v116.9h-11.99z"/><path d="m439.09 296.19h7.78v116.9h-7.78z"/><path d="m413.23 296.46h10.73v116.9h-10.73z"/><path d="m404.19 296.46h9.04v116.9h-9.04z"/><path d="m397.34 249.76v17.47c0 4.82-3.91 8.73-8.73 8.73-2.41 0-4.6-.98-6.18-2.56s-2.56-3.76-2.56-6.17v-17.47c0-4.82 3.91-8.73 8.74-8.73 2.41 0 4.59.98 6.17 2.56s2.56 3.76 2.56 6.17z" fill="#00e800"/><path d="m379.57 296.7h10.74v116.9h-10.74z"/><path d="m370.54 296.7h9.03v116.9h-9.03z"/><path d="m363.5 249.76v17.47c0 4.82-3.91 8.73-8.73 8.73-2.41 0-4.59-.98-6.17-2.56s-2.56-3.76-2.56-6.17v-17.47c0-4.82 3.91-8.73 8.73-8.73 2.41 0 4.59.98 6.17 2.56s2.56 3.76 2.56 6.17z" fill="#00e800"/><path d="m330.76 249.76v17.47c0 4.82-3.91 8.73-8.73 8.73-2.41 0-4.59-.98-6.17-2.56s-2.56-3.76-2.56-6.17v-17.47c0-4.82 3.91-8.73 8.73-8.73 2.41 0 4.59.98 6.17 2.56s2.56 3.76 2.56 6.17z" fill="#00e800"/><path d="m312.27 295.82h11.13v116.91h-11.13z"/><path d="m303.63 295.82h8.64v116.91h-8.64z"/><path d="m298.38 249.76v17.47c0 4.82-3.91 8.73-8.73 8.73-2.41 0-4.6-.98-6.18-2.56-1.57-1.58-2.55-3.76-2.55-6.17v-17.47c0-4.82 3.9-8.73 8.73-8.73 2.41 0 4.59.98 6.17 2.56s2.56 3.76 2.56 6.17z" fill="#00e800"/><path d="m278.61 296.09h9.89v116.91h-9.89z"/><path d="m268.73 296.09h9.88v116.91h-9.88z"/><path d="m264.55 249.76v17.47c0 4.82-3.91 8.73-8.74 8.73-2.41 0-4.59-.98-6.17-2.56s-2.56-3.76-2.56-6.17v-17.47c0-4.82 3.91-8.73 8.73-8.73 2.41 0 4.6.98 6.18 2.56s2.56 3.76 2.56 6.17z" fill="#00e800"/><path d="m216.52 249.76c4.82 0 8.73 3.92 8.73 8.74 0 2.41-.98 4.59-2.56 6.17s-3.76 2.56-6.17 2.56h-17.46c-4.82 0-8.73-3.91-8.73-8.73 0-2.41.98-4.6 2.56-6.18s3.76-2.56 6.17-2.56z" fill="#f73900"/><g fill="none"><path d="m718.69 504.92h33c18.22 0 32.989-14.77 32.989-33v-217.78c0-18.22-14.77-33-32.989-33h-628.17c-18.22 0-33 14.78-33 33v48.5s-.42 34.98-6.12 48.08c0 0-30.14 48.45-16.32 95.74 7.88 26.96 15.77 42.48 46.21 52.75 16.37 5.53 56.27 5.71 56.27 5.71h73.75z" stroke="#000" stroke-width="19.7983"/><path d="m244.31 504.92c-18.23 0-33-14.77-33-33v-143.56c0-18.23 14.77-33 33-33h.65 33.65 33.66 33.65 33.65 33.66 33.64 33.66 33.649 33.66 33.65 33.66 33.651 33.641 33.659 2.591c18.21 0 33 14.77 33 33v143.56c0 18.23-14.79 33-33 33" stroke="#000" stroke-width="19.7983"/><path d="m716.1 295.36v205.19" stroke="#000" stroke-width="13.1989"/><path d="m682.44 412.82v87.73" stroke="#000" stroke-width="13.1989"/><path d="m682.44 295.36v.55" stroke="#000" stroke-width="13.1989"/><path d="m648.8 413.05v87.5" stroke="#000" stroke-width="13.1989"/><path d="m648.8 295.36v.79" stroke="#000" stroke-width="13.1989"/><path d="m615.15 413.11v87.44" stroke="#000" stroke-width="13.1989"/><path d="m615.15 295.36v.85" stroke="#000" stroke-width="13.1989"/><path d="m581.49 295.36v205.19" stroke="#000" stroke-width="13.1989"/><path d="m547.84 413.09v87.46" stroke="#000" stroke-width="13.1989"/><path d="m514.18 412.33v88.22" stroke="#000" stroke-width="13.1989"/><path d="m514.18 295.36v.06" stroke="#000" stroke-width="13.1989"/><path d="m480.53 295.36v205.19" stroke="#000" stroke-width="13.1989"/><path d="m446.87 413.09v87.46" stroke="#000" stroke-width="13.1989"/><path d="m446.87 295.36v.83" stroke="#000" stroke-width="13.1989"/><path d="m413.23 413.36v87.19" stroke="#000" stroke-width="13.1989"/><path d="m413.23 295.36v1.1" stroke="#000" stroke-width="13.1989"/><path d="m379.57 413.6v86.95" stroke="#000" stroke-width="13.1989"/><path d="m379.57 295.36v1.34" stroke="#000" stroke-width="13.1989"/><path d="m345.92 295.36v205.19" stroke="#000" stroke-width="13.1989"/><path d="m312.27 412.73v87.82" stroke="#000" stroke-width="13.1989"/><path d="m312.27 295.36v.46" stroke="#000" stroke-width="13.1989"/><path d="m278.61 413v87.55" stroke="#000" stroke-width="13.1989"/><path d="m278.61 295.36v.73" stroke="#000" stroke-width="13.1989"/><path d="m244.96 295.36v205.19" stroke="#000" stroke-width="13.1989"/><path d="m278.61 296.09h9.89v116.91h-9.89-9.88v-116.91z" stroke="#000" stroke-width="6.5994"/><path d="m312.27 295.82h11.13v116.91h-11.13-8.64v-116.91z" stroke="#000" stroke-width="6.5994"/><path d="m379.57 296.7h10.74v116.9h-10.74-9.03v-116.9z" stroke="#000" stroke-width="6.5994"/><path d="m413.23 296.46h10.73v116.9h-10.73-9.04v-116.9z" stroke="#000" stroke-width="6.5994"/><path d="m446.87 296.19h11.99v116.9h-11.99-7.78v-116.9z" stroke="#000" stroke-width="6.5994"/><path d="m514.18 295.42h10.92v116.91h-10.92-8.85v-116.91z" stroke="#000" stroke-width="6.5994"/><path d="m547.84 296.18h10.91v116.91h-10.91-8.86v-116.91z" stroke="#000" stroke-width="6.5994"/><path d="m615.15 296.21h9.14v116.9h-9.14-10.64v-116.9z" stroke="#000" stroke-width="6.5994"/><path d="m648.8 296.15h8.73v116.9h-8.73-11.05v-116.9z" stroke="#000" stroke-width="6.5994"/><path d="m682.44 295.91h8.74v116.91h-8.74-11.03v-116.91z" stroke="#000" stroke-width="6.5994"/><path d="m747.45 344.91.95 67.63h-9.89v-100.61z" stroke="#000" stroke-width="6.5994"/><path d="m264.55 267.23c0 4.82-3.91 8.73-8.74 8.73-2.41 0-4.59-.98-6.17-2.56s-2.56-3.76-2.56-6.17v-17.47c0-4.82 3.91-8.73 8.73-8.73 2.41 0 4.6.98 6.18 2.56s2.56 3.76 2.56 6.17z" stroke="#000" stroke-width="13.1989"/><path d="m216.52 249.76c4.82 0 8.73 3.92 8.73 8.74 0 2.41-.98 4.59-2.56 6.17s-3.76 2.56-6.17 2.56h-17.46c-4.82 0-8.73-3.91-8.73-8.73 0-2.41.98-4.6 2.56-6.18s3.76-2.56 6.17-2.56z" stroke="#000" stroke-width="13.1989"/><path d="m298.38 267.23c0 4.82-3.91 8.73-8.73 8.73-2.41 0-4.6-.98-6.18-2.56-1.57-1.58-2.55-3.76-2.55-6.17v-17.47c0-4.82 3.9-8.73 8.73-8.73 2.41 0 4.59.98 6.17 2.56s2.56 3.76 2.56 6.17z" stroke="#000" stroke-width="13.1989"/><path d="m330.76 267.23c0 4.82-3.91 8.73-8.73 8.73-2.41 0-4.59-.98-6.17-2.56s-2.56-3.76-2.56-6.17v-17.47c0-4.82 3.91-8.73 8.73-8.73 2.41 0 4.59.98 6.17 2.56s2.56 3.76 2.56 6.17z" stroke="#000" stroke-width="13.1989"/><path d="m363.5 267.23c0 4.82-3.91 8.73-8.73 8.73-2.41 0-4.59-.98-6.17-2.56s-2.56-3.76-2.56-6.17v-17.47c0-4.82 3.91-8.73 8.73-8.73 2.41 0 4.59.98 6.17 2.56s2.56 3.76 2.56 6.17z" stroke="#000" stroke-width="13.1989"/><path d="m397.34 267.23c0 4.82-3.91 8.73-8.73 8.73-2.41 0-4.6-.98-6.18-2.56s-2.56-3.76-2.56-6.17v-17.47c0-4.82 3.91-8.73 8.74-8.73 2.41 0 4.59.98 6.17 2.56s2.56 3.76 2.56 6.17z" stroke="#000" stroke-width="13.1989"/><path d="m76.82 376.44h90.95" stroke="#000" stroke-linecap="round" stroke-linejoin="round" stroke-width="26.3977"/><path d="m69.54 410.08h98.23" stroke="#000" stroke-linecap="round" stroke-linejoin="round" stroke-width="26.3977"/><path d="m97.92 309.67h69.12" stroke="#000" stroke-linecap="round" stroke-linejoin="round" stroke-width="26.3977"/><path d="m95.01 343.31h72.03" stroke="#000" stroke-linecap="round" stroke-linejoin="round" stroke-width="26.3977"/><path d="m76.82 441.37h90.95" stroke="#000" stroke-linecap="round" stroke-linejoin="round" stroke-width="26.3977"/><path d="m84.09 475.01h83.68" stroke="#000" stroke-linecap="round" stroke-linejoin="round" stroke-width="26.3977"/><path d="m224.96 311.17v101.75h-9.6z" stroke="#000" stroke-width="6.5994"/><path d="m0 0h850.394v850.394h-850.394z"/></g></svg>