<svg enable-background="new 0 0 850.394 850.394" height="850.394" viewBox="0 0 850.394 850.394" width="850.394" xmlns="http://www.w3.org/2000/svg"><path d="m455.97 357.73v438.64h-49.81l.84-404.98s.28-15.16-1.26-33.66z" fill="#c8c8c8"/><path d="m455.97 87.45v270.28h-50.23c-1.13-13.58-3.25-28.97-7.18-41.48-9.29-29.55-20.26-31.24-14.35-85.28 5.91-54.03 17.29-89.81 24.48-125.79 6.76-33.78 12.38-56.25 35.49-49.82 0 0 11.79-1.69 11.79 32.09z" fill="#c8c8c8"/><g fill="none"><path d="m405.74 357.73c1.54 18.5 1.26 33.66 1.26 33.66l-.84 404.98h49.81s0-238.15 0-438.64c0-137.09 0-256.57 0-270.28 0-33.78-11.79-32.09-11.79-32.09-23.11-6.43-28.729 16.04-35.49 49.82-7.19 35.98-18.57 71.76-24.48 125.79-5.91 54.04 5.06 55.73 14.35 85.28 3.93 12.51 6.05 27.9 7.18 41.48z" stroke="#000" stroke-width="20.2629"/><path d="m405.73 357.73h.01 50.23" stroke="#000" stroke-width="20.2629"/><path d="m0 0h850.394v850.394h-850.394z"/></g></svg>