<svg enable-background="new 0 0 850.394 850.394" height="850.394" viewBox="0 0 850.394 850.394" width="850.394" xmlns="http://www.w3.org/2000/svg"><path d="m382.92 185.23c7.16 0 12.97 5.47 12.97 12.24 0 6.76-5.81 12.24-12.97 12.24s-12.96-5.48-12.96-12.24c0-6.77 5.8-12.24 12.96-12.24z" fill="#231f20"/><path d="m646.74 163h-1.64-22.06l.96-3v-2.88h21.7.46 23.84v2.88l.92 3z" fill="#231f20"/><path d="m646.35 330.61h-.86-13.11v-.3h-15.68v.3h-47.2l45.49-142.41 8.05-25.2h22.06 1.64 24.18l7.5 24.44 43.94 143.17h-47.21v-.3h-15.67v.3z" fill="#231f20"/><path d="m276 343.9h52v.1l2.11 52.71v.82l-23.72-.06h-32.3l1.91-53.47z" fill="#fff"/><path d="m274.09 397.47h32.3l23.72.06 75.47.2v1.74s38.61 72.419 19.29 123.959c-19.25 51.32-86.32 69.181-116.56 71.38l-2.08.061c-29.98-2.05-96.5-20.08-115.85-71.7-17.6-46.93 12.83-111.17 18.42-122.28v-3.42z" fill="#a8d7f4"/><path d="m395.89 197.47c0-6.77-5.81-12.24-12.97-12.24s-12.96 5.47-12.96 12.24c0 6.76 5.8 12.24 12.96 12.24s12.97-5.48 12.97-12.24zm-67.89 146.43h-52-123.82c-9.73 0-17.62-7.89-17.62-17.62v-160.61-5.19h334.7l2.08 5.19v160.61c0 9.73-7.89 17.62-17.63 17.62z" fill="#fff"/><path d="m224.82 598.95c-22.99-12.95-43.71-31.8-53.65-58.32-22.32-59.51 22.27-143.16 22.27-143.16h15.36v3.42c-5.59 11.11-36.02 75.35-18.42 122.28 19.35 51.62 85.87 69.65 115.85 71.7l2.08-.061c30.24-2.199 97.31-20.06 116.56-71.38 19.32-51.54-19.29-123.959-19.29-123.959v-1.74l14.14.04s44.589 83.65 22.27 143.17c-11.11 29.64-36.03 49.609-62.54 62.5-26.51 12.88-54.61 18.68-72.07 19.949l-2.4.061c-19.23-1.3-51.47-8.311-80.16-24.49 0 0 0 0 0-.01z" fill="#fff"/><path d="m379.45 603.44 5.35 1.869c-4.12 11.99-30.71 96.721-18.95 126.921 18.59 47.829-31.88 61.1-61.11 61.1l.42-.03c-29.22 0-79.7-13.29-61.1-61.1 10.23-26.33-17.37-126.53-19.24-133.24 28.69 16.18 60.93 23.19 80.16 24.49l2.4-.061c17.46-1.269 45.56-7.069 72.07-19.949z" fill="#fff"/><path d="m486.89 140.79v2.07c0 9.73-7.899 17.62-17.63 17.62h-334.7c-9.73 0-17.63-7.89-17.63-17.62v-2.07c0-9.72 7.9-17.61 17.63-17.61h334.7c9.73 0 17.63 7.89 17.63 17.61z" fill="#fff"/><path d="m713.95 181 .28.9c-.101-.3-.2-.6-.311-.89z" fill="#ec008c"/><path d="m728.11 261.9-20.04-65.34c.51.91.76 1.48.76 1.48l-3.49-14.41 8.58-2.62c.11.29.21.59.311.89l23.63 77.01c.729 2.41 1.09 4.75 1.09 6.76 0 3.15-.88 5.47-2.521 5.98-2.69.82-6.42-3.54-8.32-9.75z" fill="#ec008c"/><path d="m705 186.55-.79-2.57 1.13-.35 3.49 14.41s-.25-.57-.76-1.48c0 0 0 0 0-.01z" fill="#ec008c"/><path d="m705 186.55 3.07 10c-2.54-4.55-11.44-17.56-26.86-9.97l-5.29-17.63 24.92 8.57c1.49 2.54 2.9 5.53 4.16 9.03z" fill="#ec008c"/><path d="m704.21 183.98.79 2.57c-1.26-3.5-2.67-6.49-4.16-9.03l3.29 1.13 1.21 4.98z" fill="#ec008c"/><path d="m675.15 330.61v90.61c0 3.24-.881 6.18-2.29 8.31-1.42 2.13-3.38 3.45-5.54 3.45-4.34 0-7.84-5.271-7.84-11.76v-90.61z" fill="#231f20"/><path d="m659.48 330.31h15.67v.3h-15.67z" fill="#231f20"/><path d="m646.48 58.18c18.93 0 34.279 15.35 34.279 34.28 0 18.94-15.35 34.29-34.279 34.29-18.931 0-34.28-15.35-34.28-34.29 0-18.93 15.35-34.28 34.28-34.28z" fill="#231f20"/><path d="m632.38 330.61v90.61c0 6.49-3.52 11.76-7.85 11.76-2.16 0-4.12-1.32-5.53-3.45-1.42-2.13-2.3-5.07-2.3-8.31v-90.61z" fill="#231f20"/><path d="m616.7 330.31h15.68v.3h-15.68z" fill="#231f20"/><path d="m583.34 198.04 3.521-11.48c1.18-3.31 2.51-6.16 3.909-8.61l25.341-8.71-5.29 17.63c-17.211-8.47-26.291 8.71-27.481 11.17z" fill="#ec008c"/><path d="m587.65 183.98-.9-.28 1.15-4.76 2.869-.99c-1.399 2.45-2.729 5.3-3.909 8.61z" fill="#ec008c"/><path d="m586.86 186.56-3.521 11.48c-.09.19-.14.29-.14.29l3.55-14.63.9.28z" fill="#ec008c"/><path d="m583.2 198.33s.05-.1.14-.29l-19.6 63.86c-1.91 6.21-5.63 10.57-8.32 9.75-1.64-.51-2.52-2.83-2.52-5.98 0-2 .359-4.34 1.1-6.76l23.79-77.53c.04-.13.09-.25.14-.38l8.82 2.7z" fill="#ec008c"/><path d="m577.91 181h.02c-.05.13-.1.25-.14.38z" fill="#ec008c"/><g fill="none"><path d="m632.38 330.61v90.61c0 6.49-3.52 11.76-7.85 11.76-2.16 0-4.12-1.32-5.53-3.45-1.42-2.13-2.3-5.07-2.3-8.31v-90.61" stroke="#231f20" stroke-width="20.8381"/><path d="m583.34 198.04-19.6 63.86c-1.91 6.21-5.63 10.57-8.32 9.75-1.64-.51-2.52-2.83-2.52-5.98 0-2 .359-4.34 1.1-6.76l23.79-77.53.12-.38" stroke="#231f20" stroke-width="20.8381"/><path d="m659.48 330.61h-13.13-.86-13.11-15.68-47.2l45.49-142.41 8.05-25.2.96-3" stroke="#231f20" stroke-width="20.8381"/><path d="m670 160 .92 3 7.5 24.44 43.94 143.17h-47.21" stroke="#231f20" stroke-width="20.8381"/><path d="m659.48 330.31v.3 90.61c0 6.49 3.5 11.76 7.84 11.76 2.16 0 4.12-1.32 5.54-3.45 1.409-2.13 2.29-5.07 2.29-8.31v-90.61-.3" stroke="#231f20" stroke-width="20.8381"/><path d="m708.07 196.56 20.04 65.34c1.899 6.21 5.63 10.57 8.319 9.75 1.641-.51 2.521-2.83 2.521-5.98 0-2.01-.36-4.35-1.09-6.76l-23.63-77.01-.28-.9" stroke="#231f20" stroke-width="20.8381"/><path d="m714.33 182.2c-.03-.1-.07-.2-.1-.3-.101-.3-.2-.6-.311-.89-9.52-26.94-27.79-23.89-27.79-23.89h-16.129-23.84-.46-21.7-18.27s-18.271-3.05-27.801 23.88c-.05.13-.1.25-.14.38-.09.27-.19.54-.28.82" stroke="#231f20" stroke-width="20.8381"/><path d="m700.84 177.52c-9.87-16.8-23.53-14.52-23.53-14.52h-6.39-24.18-1.64-22.06-8.5s-13.89-2.32-23.771 14.95" stroke="#231f20" stroke-width="20.8381"/><path d="m680.76 92.46c0 18.94-15.35 34.29-34.279 34.29-18.931 0-34.28-15.35-34.28-34.29 0-18.93 15.35-34.28 34.28-34.28 18.929 0 34.279 15.35 34.279 34.28z" stroke="#231f20" stroke-width="20.8381"/><path d="m586.75 183.7-3.55 14.63s.05-.1.14-.29c1.19-2.46 10.271-19.64 27.48-11.17l5.29-17.63-25.341 8.71-2.869.99z" stroke="#231f20" stroke-width="20.8381"/><path d="m705.34 183.63 3.49 14.41s-.25-.57-.76-1.48c0 0 0 0 0-.01-2.54-4.55-11.44-17.56-26.86-9.97l-5.29-17.63 24.92 8.57 3.29 1.13z" stroke="#231f20" stroke-width="20.8381"/><path d="m134.56 160.48c-9.73 0-17.63-7.89-17.63-17.62v-2.07c0-9.72 7.9-17.61 17.63-17.61h334.7c9.73 0 17.63 7.89 17.63 17.61v2.07c0 9.73-7.899 17.62-17.63 17.62z" stroke="#231f20" stroke-width="21"/><path d="m471.34 165.67v160.61c0 9.73-7.89 17.62-17.63 17.62h-125.71-52-123.82c-9.73 0-17.62-7.89-17.62-17.62v-160.61" stroke="#231f20" stroke-width="21"/><path d="m274 400 .09-2.53 1.91-53.47" stroke="#231f20" stroke-width="21"/><path d="m328 344 2.11 52.71" stroke="#231f20" stroke-width="21"/><path d="m208.8 400.89c-5.59 11.11-36.02 75.35-18.42 122.28 19.35 51.62 85.87 69.65 115.85 71.7l2.08-.061c30.24-2.199 97.31-20.06 116.56-71.38 19.32-51.54-19.29-123.959-19.29-123.959" stroke="#231f20" stroke-width="14"/><path d="m224.82 598.96c28.69 16.18 60.93 23.19 80.16 24.49l2.4-.061c17.46-1.27 45.56-7.069 72.07-19.949 26.51-12.891 51.43-32.86 62.54-62.5 22.319-59.521-22.27-143.17-22.27-143.17l-14.14-.04-75.47-.2-23.72-.06h-32.3-65.29-15.36s-44.59 83.65-22.27 143.16c9.94 26.521 30.66 45.37 53.65 58.32" stroke="#231f20" stroke-width="21"/><path d="m385.19 604.41c.28-.95.12-.57-.39.899-4.12 11.99-30.71 96.721-18.95 126.921 18.59 47.829-31.88 61.1-61.11 61.1l.42-.03c-29.22 0-79.7-13.29-61.1-61.1 10.23-26.33-17.37-126.53-19.24-133.24 0 0 0 0 0-.01-.07-.22-.1-.34-.1-.34" stroke="#231f20" stroke-width="21"/><path d="m395.89 197.47c0 6.76-5.81 12.24-12.97 12.24s-12.96-5.48-12.96-12.24c0-6.77 5.8-12.24 12.96-12.24s12.97 5.47 12.97 12.24z" stroke="#231f20" stroke-width="21"/><path d="m395.89 197.47h53.36" stroke="#231f20" stroke-width="21"/><path d="m0 0h850.394v850.394h-850.394z"/></g></svg>