<svg enable-background="new 0 0 850.394 850.394" height="850.394" viewBox="0 0 850.394 850.394" width="850.394" xmlns="http://www.w3.org/2000/svg"><path d="m727.96 685.277v.01h-47.734-177.903s0 0 .01-.01h177.893z" fill="#eedceb"/><path d="m425.744 747.684c-37.769 0-69.283-26.789-76.58-62.396h153.16c-7.298 35.607-38.803 62.396-76.58 62.396z" fill="#fbee34"/><path d="m349.154 685.277h153.179c-.01.01-.01.01-.01.01h-153.16c.001 0 .001 0-.009-.01z" fill="#eedceb"/><path d="m425.744 591.329c-43.172 0-78.177 35.005-78.177 78.177 0 5.404.545 10.684 1.588 15.771h-177.73-47.735l141.166-423.507h151.027 9.153 161.749l141.175 423.507h-47.734-177.893c1.042-5.088 1.588-10.367 1.588-15.771 0-43.172-34.995-78.177-78.177-78.177z" fill="#eedceb"/><path d="m502.333 685.277h-153.179c-1.042-5.088-1.588-10.367-1.588-15.771 0-43.172 35.005-78.177 78.177-78.177 43.182 0 78.177 35.005 78.177 78.177.001 5.404-.545 10.683-1.587 15.771z" fill="#eedceb"/><path d="m171.424 685.277h177.73c.009.01.009.01.009.01h-177.739-47.734v-.01z" fill="#eedceb"/><g fill="none"><path d="m502.323 685.287c-7.297 35.607-38.802 62.396-76.58 62.396-37.769 0-69.283-26.789-76.58-62.396" stroke="#231f20" stroke-width="13.3897"/><path d="m727.96 685.277h-47.734-177.893-153.179-177.73-47.734" stroke="#231f20" stroke-linecap="round" stroke-linejoin="round" stroke-width="33.4744"/><path d="m171.424 685.287h177.74 153.159 177.903 47.734v-.01l-141.176-423.507h-161.748-9.153-151.027l-141.166 423.507v.01z" stroke="#231f20" stroke-linecap="round" stroke-linejoin="round" stroke-width="33.4744"/><path d="m425.036 261.77v-211.75" stroke="#231f20" stroke-width="33.4744"/><path d="m0 0h850.394v850.394h-850.394z"/></g></svg>