<svg enable-background="new 0 0 850.394 850.394" height="850.394" viewBox="0 0 850.394 850.394" width="850.394" xmlns="http://www.w3.org/2000/svg"><path d="m521.35 228.4h-191.44-17.96l53.12-159.36h56.83 3.44 60.87l53.11 159.36z" fill="#ee947d"/><path d="m426.59 677.28c60.26.12 109.03 22.87 109.03 50.939 0 28.13-49.021 50.931-109.49 50.931s-109.49-22.8-109.49-50.93c0-28.14 49.02-50.939 109.49-50.939.15-.001.31-.001.46-.001z" fill="#fbee34"/><g fill="none"><path d="m329.91 228.4h191.44 17.97l-53.11-159.36h-60.87-3.44-56.83l-53.12 159.36z" stroke="#231f20" stroke-linecap="round" stroke-linejoin="round" stroke-width="28"/><path d="m425.66 233.75.93 443.53.12 57.38" stroke="#231f20" stroke-width="28"/><path d="m535.62 728.22c0 28.13-49.021 50.931-109.49 50.931s-109.49-22.801-109.49-50.931c0-28.14 49.02-50.939 109.49-50.939h.46c60.26.119 109.03 22.869 109.03 50.939z" stroke="#231f20" stroke-width="28"/><path d="m0 0h850.394v850.394h-850.394z"/><path d="m786.373 155.543-220.061-.855" stroke="#23201f" stroke-width="21"/><path d="m619.117 204.678-53.843-50.184 55.207-48.757" stroke="#23201f" stroke-width="21"/></g></svg>