<svg enable-background="new 0 0 850.394 850.394" height="850.394" viewBox="0 0 850.394 850.394" width="850.394" xmlns="http://www.w3.org/2000/svg"><path d="m409.56 458.59v287.92l-140.25-26.33v-281.33z" fill="#fbee34"/><path d="m602.47 438.85v281.33l-140.26 26.33v-287.92z" fill="#fbee34"/><path d="m435.48 780.92.22 1.33-.22.04-194.96-32.08v-345.5l.15-1.17 193.49 25.34.77.101.551 1.229v350.71zm-25.92-34.41v-287.92l-140.25-19.74v281.33z" fill="#c8c8c8"/><path d="m434.16 428.88 195.66-26.86v348.19l-194.12 32.04-.22-1.33v-350.71l-.551-1.229zm168.31 291.3v-281.33l-140.26 19.74v287.92z" fill="#c8c8c8"/><path d="m430.83 296.62 72.5-4.82v36.17l-71.08 14.19-2.53-.43v-45.19z" fill="#c8c8c8"/><path d="m429.72 296.54v45.19l-77.21-13.04 1.67-.76v-36.23z" fill="#c8c8c8"/><path d="m629.82 402.02-195.66 26.86-193.49-25.34-41.29-5.41 115.17-52.23 37.96-17.21 77.21 13.04 2.53.43 71.08-14.19v.17l29.56 13.08 127.84 56.56z" fill="#c8c8c8"/><g fill="none"><path d="m240.52 404.71v345.5l194.96 32.08.22-.04 194.12-32.04v-348.19-1.42" stroke="#231f20" stroke-width="19.7429"/><path d="m435.48 780.92v-350.71" stroke="#231f20" stroke-width="14"/><path d="m409.56 746.51-140.25-26.33v-281.33l140.25 19.74z" stroke="#231f20" stroke-width="14"/><path d="m462.21 746.51 140.26-26.33v-281.33l-140.26 19.74z" stroke="#231f20" stroke-width="14"/><path d="m434.11 342.47-1.86-.31-2.53-.43-77.21-13.04-4.5-.76" stroke="#231f20" stroke-width="21"/><path d="m430.91 277.36-1.29.21-84.63 13.54 9.19.59 75.54 4.84 1.11.08.84.05" stroke="#231f20" stroke-width="21"/><path d="m354.18 290.64v1.06 36.23l-1.67.76-37.96 17.21-115.17 52.23 41.29 5.41 193.49 25.34.77.1" stroke="#231f20" stroke-width="21"/><path d="m430.68 342.47 1.57-.31 71.08-14.19 3.29-.66" stroke="#231f20" stroke-width="21"/><path d="m427.51 277.22 2.11.35 82.97 13.61-9.26.62-72.5 4.82-.82.05" stroke="#231f20" stroke-width="21"/><path d="m503.33 290.85v.95 36.17.17l29.56 13.08 127.84 56.56-30.91 4.24-195.66 26.86-.74.1" stroke="#231f20" stroke-width="21"/><path d="m429.72 295.58v.96 45.19.74" stroke="#231f20" stroke-width="14"/><path d="m314.55 373.45v-27.55-141.91c0-74.51 49.35-134.91 110.23-134.91s102.831 51 110.23 180.98v86.37" stroke="#231f20" stroke-linecap="round" stroke-linejoin="round" stroke-width="21"/><path d="m0 0h850.394v850.394h-850.394z"/></g></svg>