<svg enable-background="new 0 0 850.394 850.394" height="850.394" viewBox="0 0 850.394 850.394" width="850.394" xmlns="http://www.w3.org/2000/svg"><path d="m466.75 613.39h73.83v73.83h-73.83z" fill="#fff"/><path d="m540.58 613.39h73.84v73.83h-73.84z" fill="#fff"/><path d="m614.42 613.39h73.83v73.83h-73.83z" fill="#fff"/><path d="m688.25 613.39h73.84v73.83h-73.84z" fill="#fff"/><path d="m688.25 539.55h73.84v73.84h-73.84z" fill="#fff"/><path d="m614.42 539.55h73.83v73.84h-73.83z" fill="#fff"/><path d="m540.58 539.55h73.84v73.84h-73.84z" fill="#fff"/><path d="m466.75 539.55h73.83v73.84h-73.83z" fill="#fff"/><path d="m466.75 465.72h73.83v73.83h-73.83z" fill="#fff"/><path d="m540.58 465.72h73.84v73.83h-73.84z" fill="#fff"/><path d="m614.42 465.72h73.83v73.83h-73.83z" fill="#fff"/><path d="m688.25 465.72h73.84v73.83h-73.84z" fill="#fff"/><path d="m688.25 392.12h73.84v73.6h-73.84z" fill="#fff"/><path d="m614.42 392.12h73.83v73.6h-73.83z" fill="#fff"/><path d="m540.58 392.12h73.84v73.6h-73.84z" fill="#fff"/><path d="m466.75 392.12h73.83v73.6h-73.83z" fill="#fff"/><path d="m85.53 613.39h73.84v73.83h-73.84z" fill="#fff"/><path d="m159.37 613.39h73.83v73.83h-73.83z" fill="#fff"/><path d="m233.2 613.39h73.83v73.83h-73.83z" fill="#fff"/><path d="m307.03 613.39h73.84v73.83h-73.84z" fill="#fff"/><path d="m307.03 539.55h73.84v73.84h-73.84z" fill="#fff"/><path d="m233.2 539.55h73.83v73.84h-73.83z" fill="#fff"/><path d="m159.37 539.55h73.83v73.84h-73.83z" fill="#fff"/><path d="m85.53 539.55h73.84v73.84h-73.84z" fill="#fff"/><path d="m85.53 465.72h73.84v73.83h-73.84z" fill="#fff"/><path d="m159.37 465.72h73.83v73.83h-73.83z" fill="#fff"/><path d="m233.2 465.72h73.83v73.83h-73.83z" fill="#fff"/><path d="m307.03 465.72h73.84v73.83h-73.84z" fill="#fff"/><path d="m307.03 392.12h73.84v73.6h-73.84z" fill="#fff"/><path d="m233.2 392.12h73.83v73.6h-73.83z" fill="#fff"/><path d="m159.37 392.12h73.83v73.6h-73.83z" fill="#fff"/><path d="m85.53 392.12h73.84v73.6h-73.84z" fill="#fff"/><path d="m380.87 391.88h-73.84-73.83-73.83-73.84v-64.81h295.46v65.05h-.12z" fill="#ed1e29"/><path d="m762.21 327.07v65.05h-.12v-.24h-73.84-73.83-73.84-73.83v-64.81z" fill="#ed1e29"/><g fill="none"><path d="m85.53 391.88h73.84 73.83 73.83 73.84v.24 73.6 73.83 73.84 73.83h-73.84-73.83-73.83-73.84v-73.83-73.84-73.83-73.6" stroke="#231f20" stroke-width="19.7933"/><path d="m85.53 613.39h73.84 73.83 73.83 73.84" stroke="#231f20" stroke-width="19.7933"/><path d="m85.53 539.55h73.84 73.83 73.83 73.84" stroke="#231f20" stroke-width="19.7933"/><path d="m85.53 465.72h73.84 73.83 73.83 73.84" stroke="#231f20" stroke-width="19.7933"/><path d="m307.03 391.88v.24 73.6 73.83 73.84 73.83" stroke="#231f20" stroke-width="19.7933"/><path d="m233.2 391.88v.24 73.6 73.83 73.84 73.83" stroke="#231f20" stroke-width="19.7933"/><path d="m159.37 391.88v.24 73.6 73.83 73.84 73.83" stroke="#231f20" stroke-width="19.7933"/><path d="m85.53 391.88v-64.81h295.46v65.05h-.12-73.84-73.83-73.83-73.84z" stroke="#231f20" stroke-width="21"/><path d="m97.46 311.25v11.56" stroke="#231f20" stroke-linecap="round" stroke-linejoin="round" stroke-width="19.7933"/><path d="m124.05 311.25v11.56" stroke="#231f20" stroke-linecap="round" stroke-linejoin="round" stroke-width="19.7933"/><path d="m151.27 311.29v11.57" stroke="#231f20" stroke-linecap="round" stroke-linejoin="round" stroke-width="19.7933"/><path d="m177.87 311.38v11.57" stroke="#231f20" stroke-linecap="round" stroke-linejoin="round" stroke-width="19.7933"/><path d="m205.09 311.56v11.57" stroke="#231f20" stroke-linecap="round" stroke-linejoin="round" stroke-width="19.7933"/><path d="m233.2 311.64v11.57" stroke="#231f20" stroke-linecap="round" stroke-linejoin="round" stroke-width="19.7933"/><path d="m259.79 311.64v11.57" stroke="#231f20" stroke-linecap="round" stroke-linejoin="round" stroke-width="19.7933"/><path d="m287.01 311.69v11.56" stroke="#231f20" stroke-linecap="round" stroke-linejoin="round" stroke-width="19.7933"/><path d="m313.6 311.78v11.56" stroke="#231f20" stroke-linecap="round" stroke-linejoin="round" stroke-width="19.7933"/><path d="m340.83 311.96v11.56" stroke="#231f20" stroke-linecap="round" stroke-linejoin="round" stroke-width="19.7933"/><path d="m369.24 311.3v11.57" stroke="#231f20" stroke-linecap="round" stroke-linejoin="round" stroke-width="19.7933"/><path d="m466.75 391.88h73.83 73.84 73.83 73.84v.24 73.6 73.83 73.84 73.83h-73.84-73.83-73.84-73.83v-73.83-73.84-73.83-73.6" stroke="#231f20" stroke-width="19.7933"/><path d="m466.75 613.39h73.83 73.84 73.83 73.84" stroke="#231f20" stroke-width="19.7933"/><path d="m466.75 539.55h73.83 73.84 73.83 73.84" stroke="#231f20" stroke-width="19.7933"/><path d="m466.75 465.72h73.83 73.84 73.83 73.84" stroke="#231f20" stroke-width="19.7933"/><path d="m688.25 391.88v.24 73.6 73.83 73.84 73.83" stroke="#231f20" stroke-width="19.7933"/><path d="m614.42 391.88v.24 73.6 73.83 73.84 73.83" stroke="#231f20" stroke-width="19.7933"/><path d="m540.58 391.88v.24 73.6 73.83 73.84 73.83" stroke="#231f20" stroke-width="19.7933"/><path d="m466.75 391.88v-64.81h295.46v65.05h-.12-73.84-73.83-73.84-73.83z" stroke="#231f20" stroke-width="21"/><path d="m478.68 311.25v11.56" stroke="#231f20" stroke-linecap="round" stroke-linejoin="round" stroke-width="19.7933"/><path d="m505.27 311.25v11.56" stroke="#231f20" stroke-linecap="round" stroke-linejoin="round" stroke-width="19.7933"/><path d="m532.49 311.29v11.57" stroke="#231f20" stroke-linecap="round" stroke-linejoin="round" stroke-width="19.7933"/><path d="m559.09 311.38v11.57" stroke="#231f20" stroke-linecap="round" stroke-linejoin="round" stroke-width="19.7933"/><path d="m586.3 311.56v11.57" stroke="#231f20" stroke-linecap="round" stroke-linejoin="round" stroke-width="19.7933"/><path d="m614.42 311.64v11.57" stroke="#231f20" stroke-linecap="round" stroke-linejoin="round" stroke-width="19.7933"/><path d="m641 311.64v11.57" stroke="#231f20" stroke-linecap="round" stroke-linejoin="round" stroke-width="19.7933"/><path d="m668.23 311.69v11.56" stroke="#231f20" stroke-linecap="round" stroke-linejoin="round" stroke-width="19.7933"/><path d="m694.82 311.78v11.56" stroke="#231f20" stroke-linecap="round" stroke-linejoin="round" stroke-width="19.7933"/><path d="m722.05 311.96v11.56" stroke="#231f20" stroke-linecap="round" stroke-linejoin="round" stroke-width="19.7933"/><path d="m750.45 311.3v11.57" stroke="#231f20" stroke-linecap="round" stroke-linejoin="round" stroke-width="19.7933"/><path d="m300.32 162.03 31.9 95.52 90.75-43.84" stroke="#231f20" stroke-width="21"/><path d="m540.16 218.18c-10.29-42.83-53.061-78.56-97.13-78.56-55.7 0-104.32 45.5-104.32 110.46" stroke="#231f20" stroke-width="21"/><path d="m0 0h850.394v850.394h-850.394z"/></g></svg>