<svg enable-background="new 0 0 850.394 850.394" height="850.394" viewBox="0 0 850.394 850.394" width="850.394" xmlns="http://www.w3.org/2000/svg"><g fill="none"><g stroke="#231f20"><path d="m532.701 606s-35.641-80.19-40.588-187.112c-3.399-73.427 40.095-182.657 40.095-182.657h-139.846s43.495 109.23 40.095 182.657c-4.948 106.922-40.588 187.112-40.588 187.112z" stroke-width="14"/><path d="m87.934 275.338h375.215l266.311-143.057" stroke-width="7"/><path d="m87.934 353.548h336.605" stroke-width="7"/><path d="m87.934 572.338h375.215l275.221 129.817" stroke-width="7"/><path d="m87.934 494.131h336.605" stroke-width="7"/><path d="m87.934 423.839h673.517" stroke-width="7"/><path d="m170.973 423.596 290.691-146.28" stroke-dasharray="23.7602" stroke-width="7"/><path d="m171.094 696.093v-274.235" stroke-width="7"/><path d="m174.064 424.829 300.965 152.463" stroke-dasharray="23.7602" stroke-width="7"/><path d="m429.136 356.68 332.315-83.323" stroke-width="7"/><path d="m180.997 418.888 248.139-62.208" stroke-dasharray="23.7602" stroke-width="7"/><path d="m426.949 488.476-255.855-63.647" stroke-dasharray="23.7602" stroke-width="7"/><path d="m761.451 572.344-334.502-83.868" stroke-width="7"/><path d="m113.115 262.663 26.301 12.988-26.301 12.985z" stroke-width="5.9401"/><path d="m113.115 339.884 26.301 12.988-26.301 12.985z" stroke-width="5.9401"/><path d="m113.115 411.165 26.301 12.988-26.301 12.985z" stroke-width="5.9401"/><path d="m113.115 482.442 26.301 12.995-26.301 12.982z" stroke-width="5.9401"/><path d="m113.115 559.663 26.301 12.994-26.301 12.983z" stroke-width="5.9401"/><path d="m706.129 411.84 26.301 12.989-26.301 12.984z" stroke-width="5.9401"/><path d="m691.963 278.166 28.836 5.345-21.776 19.651z" stroke-width="5.9401"/><path d="m660.041 154.115 29.283 1.766-19.201 22.174z" stroke-width="5.9401"/><path d="m690.107 566.067 28.836-5.342-21.776-19.648z" stroke-width="5.9401"/><path d="m664.867 682.699 29.283-1.769-19.201-22.177z" stroke-width="5.9401"/></g><path d="m0 0h850.394v850.394h-850.394z"/></g></svg>