<svg enable-background="new 0 0 850.394 850.394" height="850.394" viewBox="0 0 850.394 850.394" width="850.394" xmlns="http://www.w3.org/2000/svg"><path d="m240.31 106.68v664.55 6.56l-27.73-1.17-6.56-15.57v-685.21h534.97l-2.97 700.45-30.95 1.5v-6.56-664.55h-235.19z" fill="#f6cc4b"/><path d="m161.92 438.28v67.62h-69.24v-67.62h3.78z" fill="#f6cc4b"/><path d="m161.92 371.74v66.54h-65.46-3.78v-66.54z" fill="#f6cc4b"/><path d="m471.88 770.96v.27h-231.57v-664.55h231.57z" fill="#c8c8c8"/><path d="m707.07 106.68v664.55h-.41-234.78v-.27-664.28z" fill="#c8c8c8"/><g fill="none"><path d="m198 776 14.58.62 27.73 1.17v-6.56-664.55h231.57 235.19v664.55 6.56l30.95-1.5 5.98-.29" stroke="#231f20" stroke-width="14"/><path d="m237.78 771.23h2.53 231.57 234.78" stroke="#231f20" stroke-width="25.9653"/><path d="m206.02 773.26v-12.21-685.21h534.97l-2.97 700.45-.02 3.71" stroke="#231f20" stroke-width="21"/><path d="m471.88 106.68v664.28" stroke="#231f20" stroke-width="14"/><path d="m161.92 438.28v67.62h-69.24v-67.62-66.54h69.24z" stroke="#231f20" stroke-width="14"/><path d="m127.02 448.6v44.31" stroke="#231f20" stroke-width="6.4913"/><path d="m139.99 478.43-13.01 14.77-13.01-14.8" stroke="#231f20" stroke-width="6.4913"/><path d="m127.29 429.63v-44.31" stroke="#231f20" stroke-width="6.4913"/><path d="m114.33 399.81 13.01-14.77 13.01 14.79" stroke="#231f20" stroke-width="6.4913"/><path d="m96.46 438.28h65.46" stroke="#231f20" stroke-width="14"/><path d="m0 0h850.394v850.394h-850.394z"/></g></svg>