<svg enable-background="new 0 0 850.394 850.394" height="850.394" viewBox="0 0 850.394 850.394" width="850.394" xmlns="http://www.w3.org/2000/svg"><path d="m626.05 603.69v147.06c0 7.01-3.91 12.7-8.729 12.7h-159.851c-4.83 0-8.739-5.69-8.739-12.7v-147.06c0-7.011 3.909-12.69 8.739-12.69h7.48 134.89 11.58 5.9c4.82 0 8.73 5.68 8.73 12.69z" fill="#be0000"/><path d="m611.42 384.92v206.08h-11.58-134.89v-206.08h15.97c5.28 14.59 28.65 25.59 56.68 25.59 28.591 0 51.62-10.72 56.12-25.59z" fill="#ffa500"/><path d="m593.72 384.92c-4.5 14.87-27.529 25.59-56.12 25.59-28.029 0-51.399-11-56.68-25.59-.729-2.03-1.12-4.13-1.12-6.27v-245.9h.04c1.03 15.6 5.96 33.3 14.87 50.69 21.42 41.78 57.71 65.94 81.07 53.96 11.27-5.78 17.47-18.91 18.47-35.65l.27.01v177.79c0 1.84-.27 3.63-.8 5.37z" fill="#f73900"/><path d="m579.31 140.08c11.08 21.62 16 43.72 14.94 61.67-1 16.74-7.2 29.87-18.47 35.65-23.36 11.98-59.65-12.18-81.07-53.96-8.91-17.39-13.84-35.09-14.87-50.69-1.45-21.89 4.76-39.65 18.4-46.64 23.36-11.97 59.66 12.19 81.07 53.97z" fill="#f73900"/><path d="m57.817 480.418h436.915v135.284h-436.915z" fill="#be0000" transform="matrix(.2803 -.9599 .9599 .2803 -327.255 659.635)"/><g fill="none"><path d="m479.84 132.75c-1.45-21.89 4.76-39.65 18.4-46.64 23.36-11.97 59.66 12.19 81.07 53.97 11.08 21.62 16 43.72 14.94 61.67-1 16.74-7.2 29.87-18.47 35.65-23.36 11.98-59.65-12.18-81.07-53.96-8.91-17.39-13.84-35.09-14.87-50.69z" stroke="#000" stroke-width="21.9368"/><path d="m479.8 132.75v245.9 5.02" stroke="#000" stroke-width="21.9368"/><path d="m594.52 201.76v177.79 4.31" stroke="#000" stroke-width="21.9368"/><path d="m594.52 379.55c0 1.84-.27 3.63-.8 5.37-4.5 14.87-27.529 25.59-56.12 25.59-28.029 0-51.399-11-56.68-25.59-.729-2.03-1.12-4.13-1.12-6.27" stroke="#000" stroke-width="21.9368"/><path d="m464.95 591v-206.08h15.97.02" stroke="#000" stroke-width="21.9368"/><path d="m593.65 384.92h.07 17.7v206.08" stroke="#000" stroke-width="21.9368"/><path d="m57.817 480.418h436.916v135.283h-436.916z" stroke="#000" stroke-width="21.9368" transform="matrix(-.2803 .9599 -.9599 -.2803 879.8049 436.4852)"/><path d="m599.84 591h11.58 5.9c4.819 0 8.729 5.68 8.729 12.69v147.06c0 7.01-3.91 12.7-8.729 12.7h-159.85c-4.83 0-8.739-5.69-8.739-12.7v-147.06c0-7.011 3.909-12.69 8.739-12.69h7.48z" stroke="#000" stroke-width="21.9368"/><path d="m0 0h850.394v850.394h-850.394z"/></g></svg>