<svg enable-background="new 0 0 850.394 850.394" height="850.394" viewBox="0 0 850.394 850.394" width="850.394" xmlns="http://www.w3.org/2000/svg"><path d="m657.15 700.25s.55 44.15-12.301 57c-12.849 12.85-20.109 24.58-74.869 24.58-44.931 0-115.44 0-139.32 0-5.23 0-8.22 0-8.22 0-23.88 0-94.38 0-139.31 0-54.76 0-62.03-11.74-74.88-24.59-12.85-12.84-12.29-57-12.29-57s0-210.11 0-244.76 34.65-42.471 34.65-42.471l122.93-44.7 7.62-15.54c9.37 5.78 27.66 12.83 61.12 12.83h1.72c39.83 0 57.86-10 65.05-15.93l1.38.04 9.141 18.6 122.93 44.71s34.65 7.82 34.65 42.47c-.001 34.641-.001 244.761-.001 244.761z" fill="#ffeec8"/><path d="m361.16 352.77c-6.49-4-8.7-7.39-8.7-7.39l17.46-119.83h26.09 26.27 6.01 19.69 27.77l17.45 119.83s-1.11 1.78-4.15 4.29c-7.189 5.93-25.22 15.93-65.05 15.93h-1.72c-33.46 0-51.75-7.05-61.12-12.83z" fill="#f0947d"/><path d="m447.98 223.57v1.98c-5.49 0-12 0-19.69 0h-6.01c-10.53 0-19.21 0-26.27 0v-.3-112.32l1.68-4.19h44.83.091z" fill="#f0947d"/><path d="m463.07 67.67 5.03 23.47-25.64 14.3.15 3.3h-.09-44.83l-1.68 4.19-79.63-10.06-32.69 11.74-18.02-18.03 42.33-12.99 128.25-4.19z" fill="#f0947d"/><g fill="none"><path d="m396.01 225.25v-112.32l-79.63-10.06-32.69 11.74-18.02-18.03 42.33-12.99 128.25-4.19 26.82-11.73 5.03 23.47-25.64 14.3.15 3.3 5.37 114.83" stroke="#231f20" stroke-width="21"/><path d="m361.16 352.77c9.37 5.78 27.66 12.83 61.12 12.83h1.72c39.83 0 57.86-10 65.05-15.93 3.04-2.51 4.15-4.29 4.15-4.29l-17.45-119.83s-5.67 0-27.77 0c-5.49 0-12 0-19.69 0h-6.01c-10.53 0-19.21 0-26.27 0-18.82 0-26.09 0-26.09 0l-17.46 119.83s2.21 3.39 8.7 7.39z" stroke="#231f20" stroke-width="21"/><path d="m362.67 349.7-1.51 3.07-7.62 15.54-122.93 44.7s-34.65 7.82-34.65 42.471v244.76s-.56 44.16 12.29 57c12.85 12.85 20.12 24.59 74.88 24.59h139.31" stroke="#231f20" stroke-width="21"/><path d="m490.43 349.71 9.141 18.6 122.93 44.71s34.65 7.82 34.65 42.47v244.76s.55 44.15-12.301 57c-12.85 12.85-20.11 24.58-74.87 24.58-44.931 0-115.44 0-139.32 0-5.23 0-8.22 0-8.22 0" stroke="#231f20" stroke-width="21"/><path d="m397.69 108.74h44.83" stroke="#231f20" stroke-width="21"/><path d="m0 0h850.394v850.394h-850.394z"/></g></svg>