<svg enable-background="new 0 0 850.394 850.394" height="850.394" viewBox="0 0 850.394 850.394" width="850.394" xmlns="http://www.w3.org/2000/svg"><path d="m302.71 725.4h32.05v48.569h-32.05z" fill="#a3d9ff"/><path d="m302.71 725.4v48.569h-26.62s-1.27-19.2-3.27-48.569z" fill="#a3d9ff"/><path d="m542.79 725.37h29.89c-2 29.37-3.27 48.57-3.27 48.57h-26.62z" fill="#a3d9ff"/><path d="m510.74 725.37h32.05v48.57h-32.05z" fill="#a3d9ff"/><path d="m284.23 74.82 159.15-.03 36.93-.01h37.49l43.46-.01s4.03 17.16 9.17 42.17l-1.3.27h-146.39v.05h-146.38l-1.3-.27c5.14-25.01 9.17-42.17 9.17-42.17z" fill="#a3d9ff"/><path d="m510.74 725.37v48.57h-32.59s-15.61-259.221-17.931-291.721c-4.149-58.33-1.39-158.69-37.77-160.89-.41-.03-.82-.04-1.23-.04l1.09.04c-35.83.06-32.83 101.98-37.03 160.92-2.32 32.51-17.93 291.72-17.93 291.72h-32.59v-48.569h-32.05-29.89c-3.56-52.25-9.44-136.681-14.66-202.41-8.15-102.67-4.89-250.98-4.89-250.98 0-41.68 12.66-110.68 21.79-155.02l1.3.27h146.38v-.05h146.39l1.3-.27c9.141 44.34 21.801 113.35 21.801 155.03 0 0 3.26 148.31-4.891 250.99-5.22 65.73-11.1 150.16-14.66 202.41h-29.89z" fill="#a3d9ff"/><g fill="none"><path d="m271.24 725.4h1.58 29.89 32.05 29" stroke="#231f20" stroke-width="21"/><path d="m276.36 117.26h146.38.02" stroke="#231f20" stroke-width="21"/><path d="m327.7 74.82v35.92" stroke="#231f20" stroke-width="21"/><path d="m365.18 74.82v33.68" stroke="#231f20" stroke-width="21"/><path d="m402.12 74.82v33.68" stroke="#231f20" stroke-width="21"/><path d="m302.71 725.4v48.57" stroke="#231f20" stroke-width="21"/><path d="m334.76 725.4v48.57" stroke="#231f20" stroke-width="21"/><path d="m422.31 321.33c-35.83.06-32.83 101.98-37.03 160.92-2.32 32.51-17.93 291.72-17.93 291.72h-32.59-32.05-26.62s-1.27-19.2-3.27-48.569c-3.56-52.25-9.44-136.681-14.66-202.41-8.15-102.67-4.89-250.98-4.89-250.98 0-41.68 12.66-110.68 21.79-155.02 5.14-25.01 9.17-42.17 9.17-42.17l159.15-.03 36.93-.01h37.49l43.46-.01s4.03 17.16 9.17 42.17c9.141 44.34 21.801 113.35 21.801 155.03 0 0 3.26 148.31-4.891 250.99-5.22 65.73-11.1 150.16-14.66 202.41-2 29.37-3.27 48.57-3.27 48.57h-26.62-32.05-32.59s-15.61-259.221-17.931-291.721c-4.149-58.33-1.39-158.69-37.77-160.89-.41-.03-.82-.04-1.23-.04z" stroke="#231f20" stroke-width="21"/><path d="m574.26 725.37h-1.58-29.89-32.05-29" stroke="#231f20" stroke-width="21"/><path d="m569.13 117.21h-146.39" stroke="#231f20" stroke-width="21"/><path d="m517.8 74.77v.01 35.92" stroke="#231f20" stroke-width="21"/><path d="m480.31 74.77v.01 33.68" stroke="#231f20" stroke-width="21"/><path d="m443.38 74.77v.02 33.67" stroke="#231f20" stroke-width="21"/><path d="m542.79 725.37v48.57" stroke="#231f20" stroke-width="21"/><path d="m510.74 725.37v48.57" stroke="#231f20" stroke-width="21"/><path d="m472.21 284.96-26.85 36.35-22.91.02h-.14l-21.57.02-26.86-36.36" stroke="#231f20" stroke-width="21"/><path d="m0 0h850.394v850.394h-850.394z"/></g></svg>