<svg enable-background="new 0 0 850.394 850.394" height="850.394" viewBox="0 0 850.394 850.394" width="850.394" xmlns="http://www.w3.org/2000/svg"><path d="m328.439 61.481h188.124v188.12h-188.124z" fill="none"/><path d="m516.563 239.601c-49.69 0-99.38 0-149.07 0-13.018 0-26.036 0-39.054 0 3.333 3.333 6.667 6.667 10 10 0-49.689 0-99.378 0-149.067 0-13.018 0-26.035 0-39.053-3.333 3.333-6.667 6.667-10 10h149.07 39.054c-3.333-3.333-6.667-6.667-10-10v149.067 39.053c0 12.897 20 12.897 20 0 0-49.689 0-99.378 0-149.067 0-13.018 0-26.035 0-39.053 0-5.451-4.549-10-10-10-49.69 0-99.38 0-149.07 0-13.018 0-26.036 0-39.054 0-5.451 0-10 4.549-10 10v149.067 39.053c0 5.451 4.549 10 10 10h149.07 39.054c12.898 0 12.898-20 0-20z" fill="#231f20"/><path d="m328.439 321.328h188.124v188.119h-188.124z" fill="none"/><path d="m516.563 499.447c-49.69 0-99.38 0-149.07 0-13.018 0-26.036 0-39.054 0l10 10c0-49.688 0-99.377 0-149.066 0-13.018 0-26.035 0-39.053-3.333 3.333-6.667 6.667-10 10h149.07 39.054c-3.333-3.333-6.667-6.667-10-10v149.066 39.053c0 12.897 20 12.897 20 0 0-49.688 0-99.377 0-149.066 0-13.018 0-26.035 0-39.053 0-5.451-4.549-10-10-10-49.69 0-99.38 0-149.07 0-13.018 0-26.036 0-39.054 0-5.451 0-10 4.549-10 10v149.066 39.053c0 5.451 4.549 10 10 10h149.07 39.054c12.898 0 12.898-20 0-20z" fill="#231f20"/><path d="m328.439 599.484h188.124v188.111h-188.124z" fill="none"/><g fill="#5668af"><circle cx="328.439" cy="756.244" r="14.292"/><circle cx="328.439" cy="724.892" r="14.292"/><circle cx="328.439" cy="693.539" r="14.292"/><circle cx="328.439" cy="662.188" r="14.292"/><circle cx="328.439" cy="630.836" r="14.292"/><circle cx="359.793" cy="599.484" r="14.292"/><circle cx="391.148" cy="599.484" r="14.292"/><circle cx="422.502" cy="599.484" r="14.292"/><circle cx="453.856" cy="599.484" r="14.292"/><circle cx="485.21" cy="599.484" r="14.292"/><circle cx="516.563" cy="630.836" r="14.292"/><circle cx="516.563" cy="662.188" r="14.292"/><circle cx="516.563" cy="693.541" r="14.292"/><circle cx="516.563" cy="724.893" r="14.292"/><circle cx="516.563" cy="756.244" r="14.292"/><circle cx="485.209" cy="787.596" r="14.292"/><circle cx="453.855" cy="787.596" r="14.292"/><circle cx="422.501" cy="787.596" r="14.292"/><circle cx="391.147" cy="787.596" r="14.292"/><circle cx="359.792" cy="787.596" r="14.292"/><circle cx="328.44" cy="599.484" r="14.292"/><circle cx="516.563" cy="599.484" r="14.292"/><circle cx="516.563" cy="787.596" r="14.292"/><circle cx="328.439" cy="787.596" r="14.292"/></g><path d="m0 0h850.394v850.394h-850.394z" fill="none"/></svg>