<svg enable-background="new 0 0 850.394 850.394" height="850.394" viewBox="0 0 850.394 850.394" width="850.394" xmlns="http://www.w3.org/2000/svg"><path d="m563.21 399.5 58.05-17.91.74 2.41c-15.37 29.06-27.08 55.32-45.34 89.79l.18.31-11.87 6.9-33.25-21.62z" fill="#9e5c26"/><path d="m750.04 562.76-.8.92-37.59-32.63-49.38-162.11 25.71-7.94c16.79 54.76 37.2 121.1 62.06 201.76z" fill="#9e5c26"/><path d="m729.42 347.16-.31 1.15-41.13 12.69-25.71 7.94-8.32 2.56-32.69 10.09-58.05 17.91-318.57 98.3-7.08-23.22.89-.27 52.57-191.92 485.89-109.79z" fill="#9e5c26"/><path d="m653.95 371.5 1.38 4.49-39.73 75.58-38.76 22.53-.18-.31c18.26-34.47 29.97-60.73 45.34-89.79l-.74-2.41z" fill="#9e5c26"/><path d="m729.42 347.16 63.17 207.26-36.71 15.021-6.64-5.761.8-.92c-24.86-80.66-45.271-147-62.06-201.76l41.13-12.69z" fill="#9e5c26"/><path d="m167.78 245.66-46.34-13.81-33.4-9.96-9.8-2.92h1.67l530.7-93.45 175.24 45.06-8.94 2.02-485.89 109.79z" fill="#f6cc4b"/><path d="m244.64 497.8 65.58 215.16-36.72 15.02-6.63-5.761.79-.91c-137.93-447.499-138.64-454.419-146.86-487.319l.64-2.14 46.34 13.81 69.78 228.92z" fill="#9e5c26"/><path d="m291.02 282.39-52.57 191.92-.89.27-69.78-228.92z" fill="#9e5c26"/><path d="m267.66 721.31-.79.91-37.6-32.62-48.1-157.89-11.61-38.12-17.81-58.43-64.33-211.18.62-2.09 33.4 9.96-.64 2.14c8.22 32.9 8.93 39.82 146.86 487.32z" fill="#9e5c26"/><path d="m169.56 493.59 11.61 38.12-3.52 1.07-39.72 75.58-43.03 25.02-.61-1.05c27.66-52.22 51.87-97.95 73.08-138.07z" fill="#9e5c26"/><path d="m169.56 493.59-2.19.67c-21.21 40.12-45.42 85.851-73.08 138.07l.61 1.05-7.6 4.42-33.26-21.63 94.68-180.09 3.03-.92z" fill="#9e5c26"/><g fill="none"><path d="m88.04 221.89-9.8-2.92h1.67l530.7-93.45 175.24 45.06-8.94 2.02-485.89 109.79-123.24-36.73-46.34-13.81z" stroke="#231f20" stroke-width="21"/><path d="m87.42 223.98 64.33 211.18 17.81 58.43 11.61 38.12 48.1 157.89 37.6 32.62 6.63 5.76 36.72-15.02-65.58-215.16-7.08-23.22-69.78-228.92-.25-.82" stroke="#231f20" stroke-width="21"/><path d="m120.8 233.99c8.22 32.9 8.93 39.82 146.86 487.319" stroke="#231f20" stroke-width="21"/><path d="m177.65 532.78-39.72 75.58-43.03 25.02-7.6 4.42-33.26-21.63 94.68-180.09" stroke="#231f20" stroke-width="21"/><path d="m167.37 494.26c-21.21 40.12-45.42 85.851-73.08 138.07" stroke="#231f20" stroke-width="21"/><path d="m661.87 367.63.4 1.31 49.38 162.11 37.59 32.63 6.64 5.76 36.71-15.02-63.17-207.26-.63-2.07" stroke="#231f20" stroke-width="21"/><path d="m687.56 359.62c.141.46.28.92.421 1.38 16.789 54.76 37.199 121.1 62.06 201.76" stroke="#231f20" stroke-width="21"/><path d="m655.33 375.99-39.73 75.58-38.76 22.53-11.87 6.9-33.25-21.62 31.49-59.88.79-1.5" stroke="#231f20" stroke-width="21"/><path d="m622 384c-15.37 29.06-27.08 55.32-45.34 89.79" stroke="#231f20" stroke-width="21"/><path d="m238.45 474.31 52.57-191.92" stroke="#231f20" stroke-width="21"/><path d="m777.23 171.41-.32 1.19-47.49 174.56-.31 1.15-41.13 12.69-25.71 7.94-8.32 2.56-32.69 10.09-58.05 17.91-318.57 98.3-.64.2" stroke="#231f20" stroke-width="21"/><path d="m580.18 640.06s1.42 17.771-57.93 14.58c-53.99-2.909-134.07-21.739-187.28-39.449" stroke="#231f20" stroke-linecap="round" stroke-linejoin="round" stroke-width="13.3511"/><path d="m327.59 572.61s-8.16 15.84 47.86 35.729c50.96 18.09 132.12 31.5 188.04 35.62" stroke="#231f20" stroke-linecap="round" stroke-linejoin="round" stroke-width="13.3511"/><path d="m346.13 560.25s-8.15 15.84 47.86 35.73c50.96 18.09 132.109 31.5 188.05 35.64" stroke="#231f20" stroke-linecap="round" stroke-linejoin="round" stroke-width="13.3511"/><path d="m671.21 576.55s4.39 17.28-54.66 24.101c-20.99 2.42-46.24 2.439-72.52 1.06-40.98-2.15-84.471-7.72-118.23-12.92" stroke="#231f20" stroke-linecap="round" stroke-linejoin="round" stroke-width="13.3511"/><path d="m666.68 610.33c-13.55 9.86-77.18.43-122.649-8.62-22.78-4.54-41-8.979-46.101-10.84-15.08-5.53-75.15-22.61-90.57-23.561" stroke="#231f20" stroke-linecap="round" stroke-linejoin="round" stroke-width="13.3511"/><path d="m0 0h850.394v850.394h-850.394z"/></g></svg>