<svg enable-background="new 0 0 850.394 850.394" height="850.394" viewBox="0 0 850.394 850.394" width="850.394" xmlns="http://www.w3.org/2000/svg"><path d="m375.46 735.95c1.65-46.58 9.87-195.67 9.87-229.65 0-33.99-29.05-143.07-40.56-188.57-11.51-45.49-20.28-95.92-21.92-140.31-1.65-44.41-1.1-62.49-1.1-62.49s-4.93-32.34 14.25-27.41 64.13 21.38 88.8 54.26c24.66 32.89 91.53 171.02 108.53 233.51 16.99 62.479 21.92 190.75 18.63 230.21-3.29 39.47-23.59 112.41-55.91 137.58-42.2 32.89-71.49 44.15-90.44 49.68-13.16 3.84-31.79-10.21-30.15-56.81z" fill="#6ebe44"/><g fill="none"><path d="m321.75 114.93s-4.93-32.34 14.25-27.41 64.13 21.38 88.8 54.26c24.66 32.89 91.53 171.02 108.53 233.51 16.99 62.479 21.92 190.75 18.63 230.21-3.29 39.47-23.59 112.41-55.91 137.58-42.2 32.89-71.49 44.15-90.44 49.68-13.16 3.84-31.79-10.21-30.15-56.81 1.65-46.58 9.87-195.67 9.87-229.65 0-33.99-29.05-143.07-40.56-188.57-11.51-45.49-20.28-95.92-21.92-140.31-1.65-44.41-1.1-62.49-1.1-62.49z" stroke="#231f20" stroke-width="21"/><path d="m309.14 60.11 16.45 25.22" stroke="#231f20" stroke-linecap="round" stroke-linejoin="round" stroke-width="21"/><path d="m468.38 471.75c5.23 7.92 8.28 17.47 8.28 27.75 0 27.36-21.601 49.54-48.22 49.54-17.13 0-32.17-9.16-40.72-22.98" stroke="#231f20" stroke-linecap="round" stroke-linejoin="round" stroke-width="21"/><path d="m453.04 379.65c5.22 7.92 8.27 17.48 8.27 27.76 0 27.37-21.59 49.54-48.209 49.54-17.14 0-29.63-8.09-38.18-21.92" stroke="#231f20" stroke-linecap="round" stroke-linejoin="round" stroke-width="21"/><path d="m434.14 291.14c5.23 7.92 8.271 17.48 8.271 27.76 0 27.36-21.59 49.54-48.21 49.54-17.14 0-32.17-9.16-40.73-22.99" stroke="#231f20" stroke-linecap="round" stroke-linejoin="round" stroke-width="21"/><path d="m414.4 207.83c5.23 7.92 8.28 17.47 8.28 27.76 0 27.36-21.59 49.53-48.22 49.53-17.13 0-32.16-9.16-40.72-22.98" stroke="#231f20" stroke-linecap="round" stroke-linejoin="round" stroke-width="21"/><path d="m464.83 573.98c5.229 7.92 8.27 17.47 8.27 27.76 0 27.359-21.59 49.54-48.209 49.54-17.13 0-32.17-9.17-40.72-22.99" stroke="#231f20" stroke-linecap="round" stroke-linejoin="round" stroke-width="21"/><path d="m0 0h850.394v850.394h-850.394z"/></g></svg>