<svg enable-background="new 0 0 850.394 850.394" height="850.394" viewBox="0 0 850.394 850.394" width="850.394" xmlns="http://www.w3.org/2000/svg"><path d="m166 216c27.2 46.02 177.05 34.22 135.21 136.72l-3.67 1.25c-29.49-87.26-133.76-69.04-145.54-125.97l-2.42-.42c4.76-4.76 10-9.05 15.63-12.78z" fill="#faa41f"/><path d="m222.82 463.18c-15.8 83.52 156.9 52.44 143.18 132.82l3.36 2.46c-3.18 2.5-6.52 4.81-9.99 6.92l-1.37-3.38c-25.9-43.83-174.83-40.03-136.45-136.86.41-.66.84-1.31 1.27-1.96z" fill="#fbee34"/><path d="m468 300c27.2 46.02 177.05 34.22 135.21 136.72l-3.67 1.25c-29.49-87.26-133.76-69.04-145.54-125.97l-2.42-.42c4.76-4.76 10-9.05 15.63-12.78z" fill="#0d72ba"/><path d="m440.55 571.14c.41-.659.84-1.31 1.271-1.96-15.801 83.52 156.899 52.44 143.179 132.82l3.36 2.46c-3.181 2.5-6.521 4.81-9.99 6.92l-1.37-3.38c-25.9-43.83-174.83-40.03-136.45-136.86z" fill="#0d72ba"/><path d="m471 542c27.2 46.02 177.05 34.22 135.21 136.72l-3.67 1.25c-29.49-87.26-133.76-69.04-145.54-125.97l-2.42-.42c4.76-4.76 10-9.05 15.63-12.78z" fill="#33a048"/><path d="m136.82 243.18c-15.8 83.52 156.9 52.44 143.18 132.82l3.36 2.46c-3.18 2.5-6.52 4.81-9.99 6.92l-1.37-3.38c-25.9-43.83-174.83-40.03-136.45-136.86.41-.66.84-1.31 1.27-1.96z" fill="#33a048"/><path d="m362 104c27.2 46.02 177.05 34.22 135.21 136.72l-3.67 1.25c-29.49-87.26-133.76-69.04-145.54-125.97l-2.42-.42c4.76-4.76 10-9.05 15.63-12.78z" fill="#33a048"/><path d="m438.82 327.18c-15.8 83.52 156.9 52.44 143.18 132.82l3.36 2.46c-3.181 2.5-6.521 4.81-9.99 6.92l-1.37-3.38c-25.9-43.83-174.83-40.03-136.45-136.86.41-.66.84-1.31 1.27-1.96z" fill="#ed1d31"/><path d="m252 436c27.2 46.02 177.05 34.22 135.21 136.72l-3.67 1.25c-29.49-87.26-133.76-69.04-145.54-125.97l-2.42-.42c4.76-4.76 10-9.05 15.63-12.78z" fill="#ed1d31"/><path d="m331.55 133.14c.41-.66.84-1.31 1.27-1.96-15.8 83.52 156.9 52.44 143.18 132.82l3.36 2.46c-3.181 2.5-6.521 4.81-9.99 6.92l-1.37-3.38c-25.9-43.83-174.83-40.03-136.45-136.86z" fill="#ed1d31"/><g fill="none"><path d="m165.21 214.8c15.98-10.62 35.16-16.8 55.79-16.8 55.78 0 101 45.22 101 101 0 23.53-8.05 45.18-21.54 62.36-5 6.36-10.74 12.1-17.1 17.1-3.18 2.5-6.52 4.81-9.99 6.92-15.27 9.28-33.2 14.62-52.37 14.62-55.78 0-101-45.22-101-101 0-19.8 5.7-38.27 15.55-53.86.41-.66.84-1.31 1.27-1.96 3.73-5.62 8.01-10.85 12.76-15.6 4.76-4.76 10-9.05 15.63-12.78z" stroke="#000" stroke-width="14"/><path d="m136 244c-.16.38-.31.76-.45 1.14-38.38 96.83 110.55 93.03 136.45 136.86" stroke="#000" stroke-width="7"/><path d="m138 238c-.47 1.77-.87 3.5-1.18 5.18-15.8 83.52 156.9 52.44 143.18 132.82" stroke="#000" stroke-width="7"/><path d="m301.21 352.72c41.84-102.5-108.01-90.7-135.21-136.72" stroke="#000" stroke-width="7.3217"/><path d="m299.12 359c-.5-1.72-1.03-3.39-1.58-5.03-29.49-87.26-133.76-69.04-145.54-125.97" stroke="#000" stroke-width="7.3217"/><path d="m251.21 434.8c15.98-10.62 35.16-16.8 55.79-16.8 55.78 0 101 45.22 101 101 0 23.53-8.05 45.18-21.54 62.36-5 6.359-10.74 12.1-17.1 17.1-3.18 2.5-6.52 4.81-9.99 6.92-15.27 9.28-33.2 14.62-52.37 14.62-55.78 0-101-45.22-101-101 0-19.8 5.7-38.27 15.55-53.86.41-.659.84-1.31 1.27-1.96 3.73-5.62 8.01-10.85 12.76-15.6 4.76-4.76 10-9.05 15.63-12.78z" stroke="#000" stroke-width="14"/><path d="m222 464c-.16.38-.31.76-.45 1.14-38.38 96.83 110.55 93.03 136.45 136.86" stroke="#000" stroke-width="7"/><path d="m224 458c-.47 1.77-.87 3.5-1.18 5.18-15.8 83.52 156.9 52.44 143.18 132.82" stroke="#000" stroke-width="7"/><path d="m387.21 572.72c41.84-102.5-108.01-90.7-135.21-136.72" stroke="#000" stroke-width="7.3217"/><path d="m385.12 579c-.5-1.72-1.03-3.39-1.58-5.03-29.49-87.26-133.76-69.04-145.54-125.97" stroke="#000" stroke-width="7.3217"/><path d="m467.21 298.8c15.98-10.62 35.16-16.8 55.79-16.8 55.78 0 101 45.22 101 101 0 23.53-8.05 45.18-21.54 62.36-5 6.359-10.74 12.1-17.1 17.1-3.181 2.5-6.521 4.81-9.99 6.92-15.27 9.28-33.2 14.62-52.37 14.62-55.78 0-101-45.22-101-101 0-19.8 5.7-38.27 15.55-53.86.41-.66.84-1.31 1.271-1.96 3.729-5.62 8.01-10.85 12.76-15.6 4.759-4.76 9.999-9.05 15.629-12.78z" stroke="#000" stroke-width="14"/><path d="m438 328c-.16.38-.31.76-.45 1.14-38.38 96.83 110.55 93.03 136.45 136.86" stroke="#000" stroke-width="7"/><path d="m440 322c-.47 1.77-.87 3.5-1.18 5.18-15.8 83.52 156.9 52.44 143.18 132.82" stroke="#000" stroke-width="7"/><path d="m603.21 436.72c41.84-102.5-108.01-90.7-135.21-136.72" stroke="#000" stroke-width="7.3217"/><path d="m601.12 443c-.5-1.72-1.03-3.39-1.58-5.03-29.49-87.26-133.76-69.04-145.54-125.97" stroke="#000" stroke-width="7.3217"/><path d="m470.21 540.8c15.98-10.62 35.16-16.8 55.79-16.8 55.78 0 101 45.22 101 101 0 23.53-8.05 45.18-21.54 62.36-5 6.359-10.74 12.1-17.1 17.1-3.181 2.5-6.521 4.81-9.99 6.92-15.27 9.28-33.2 14.62-52.37 14.62-55.78 0-101-45.22-101-101 0-19.8 5.7-38.27 15.55-53.86.41-.659.84-1.31 1.271-1.96 3.729-5.62 8.01-10.85 12.76-15.6 4.759-4.76 9.999-9.05 15.629-12.78z" stroke="#000" stroke-width="14"/><path d="m441 570c-.16.38-.31.76-.45 1.14-38.38 96.83 110.55 93.03 136.45 136.86" stroke="#000" stroke-width="7"/><path d="m443 564c-.47 1.77-.87 3.5-1.18 5.18-15.8 83.52 156.9 52.44 143.18 132.82" stroke="#000" stroke-width="7"/><path d="m606.21 678.72c41.84-102.5-108.01-90.7-135.21-136.72" stroke="#000" stroke-width="7.3217"/><path d="m604.12 685c-.5-1.72-1.03-3.39-1.58-5.03-29.49-87.26-133.76-69.04-145.54-125.97" stroke="#000" stroke-width="7.3217"/><path d="m361.21 102.8c15.98-10.62 35.16-16.8 55.79-16.8 55.78 0 101 45.22 101 101 0 23.53-8.05 45.18-21.54 62.36-5 6.36-10.74 12.1-17.1 17.1-3.181 2.5-6.521 4.81-9.99 6.92-15.27 9.28-33.2 14.62-52.37 14.62-55.78 0-101-45.22-101-101 0-19.8 5.7-38.27 15.55-53.86.41-.66.84-1.31 1.27-1.96 3.73-5.62 8.01-10.85 12.76-15.6 4.76-4.76 10-9.05 15.63-12.78z" stroke="#000" stroke-width="14"/><path d="m332 132c-.16.38-.31.76-.45 1.14-38.38 96.83 110.55 93.03 136.45 136.86" stroke="#000" stroke-width="7"/><path d="m334 126c-.47 1.77-.87 3.5-1.18 5.18-15.8 83.52 156.9 52.44 143.18 132.82" stroke="#000" stroke-width="7"/><path d="m497.21 240.72c41.84-102.5-108.01-90.7-135.21-136.72" stroke="#000" stroke-width="7.3217"/><path d="m495.12 247c-.5-1.72-1.03-3.39-1.58-5.03-29.49-87.26-133.76-69.04-145.54-125.97" stroke="#000" stroke-width="7.3217"/><path d="m0 0h850.394v850.394h-850.394z"/></g></svg>