<svg enable-background="new 0 0 850.394 850.394" height="850.394" viewBox="0 0 850.394 850.394" width="850.394" xmlns="http://www.w3.org/2000/svg"><path d="m374.96 518.62h87.33v262h-87.33z" fill="#787878"/><path d="m438.4 209.66v301.55h-37.9v-301.55h13.83 8.2z" fill="#c8c8c8"/><path d="m432.84 82.75v7.12c0 .96-.09 1.89-.27 2.79h-28.35c-.18-.9-.27-1.83-.27-2.79v-7.12c0-7.98 6.46-14.44 14.44-14.44 3.99 0 7.6 1.61 10.22 4.23 2.61 2.61 4.23 6.22 4.23 10.21z"/><path d="m423.57 96.78h-10.28l-.5 6.41c-1.74-.73-3.3-1.79-4.61-3.1-1.99-1.99-3.4-4.56-3.96-7.43h28.35c-.931 4.74-4.17 8.64-8.5 10.5z"/><path d="m428.79 162.73c.01.46.02.92.01 1.38l-1.6-20.57h.13c.7 6.33 1.3 12.68 1.46 19.19z"/><path d="m428.78 193.18c.1 2.17-.25 4.15-1.681 6.55-2.8 4.7-8.16 8.95-12.31 6.75-3.4-1.82-4.72-7.99-5.82-13.3z"/><path d="m427.2 143.54 1.6 20.57c0 1.33-.06 2.64-.149 3.94h-20.891l1.9-24.51z"/><path d="m428.03 187.37c.319 2.26.67 4.09.75 5.81h-19.81c-.26-1.3-.51-2.54-.78-3.66-.87-3.64-1.22-7.24-1.26-10.86l.83-10.61h20.891c-.411 6.48-1.551 12.65-.621 19.32z"/><path d="m427.33 143.54h-.13l-.3-3.89c.15 1.3.29 2.59.43 3.89z"/><path d="m426.9 139.65.3 3.89h-17.54l.21-2.69c.71-7.59 1.51-15.17 2.15-22.75h12.97c.18 3.36.28 6.7.57 9.6.41 4.01.88 7.98 1.34 11.95z"/><path d="m424.99 118.1h-12.97c.11-1.13.2-2.26.29-3.39.32-4.05 1.32-7.37 2.03-10.97 1.29.38 2.64.58 4.05.58 1.39 0 2.74-.2 4.01-.57.09.18.18.37.26.57 1.61 3.73 2.07 8.78 2.33 13.78z"/><path d="m414.05 102.86c2.87-4.57 5.85-4.51 8.35.89-1.27.37-2.62.57-4.01.57-1.41 0-2.76-.2-4.05-.58.1-.49.2-.99.28-1.49z"/><path d="m413.29 96.78h10.28l.5 6.38c-.54.23-1.1.43-1.67.59-2.5-5.4-5.48-5.46-8.35-.89l.57-.61c-.08.5-.18 1-.28 1.49l-1.55-.55z"/><path d="m409.62 143.54c.08-.9.16-1.79.25-2.69l-.21 2.69z"/><path d="m409.66 143.54-1.9 24.51h-.31c.39-4.12.88-8.28 1.18-12.52.28-4.01.62-8 .99-11.99z"/><path d="m407.76 168.05-.83 10.61c-.05-3.52.2-7.05.52-10.61z"/><g fill="none"><path d="m374.96 518.62h87.33v262h-87.33z" stroke="#000" stroke-width="19.7738"/><path d="m422.53 209.66h15.87v301.55h-37.9v-301.55h13.83" stroke="#000" stroke-width="19.7738"/><path d="m424.99 118.1h.24 23.43" stroke="#000" stroke-linecap="round" stroke-linejoin="round" stroke-width="19.7738"/><path d="m390.99 118.1h20.64.39" stroke="#000" stroke-linecap="round" stroke-linejoin="round" stroke-width="19.7738"/><path d="m432.57 92.66h16.09" stroke="#000" stroke-linecap="round" stroke-linejoin="round" stroke-width="19.7738"/><path d="m390.99 92.66h13.23" stroke="#000" stroke-linecap="round" stroke-linejoin="round" stroke-width="19.7738"/><path d="m428.65 168.05h.45 19.05" stroke="#000" stroke-linecap="round" stroke-linejoin="round" stroke-width="19.7738"/><path d="m390.48 168.05h16.97" stroke="#000" stroke-linecap="round" stroke-linejoin="round" stroke-width="19.7738"/><path d="m427.33 143.54h21.44" stroke="#000" stroke-linecap="round" stroke-linejoin="round" stroke-width="19.7738"/><path d="m391.09 143.54h18.53" stroke="#000" stroke-linecap="round" stroke-linejoin="round" stroke-width="19.7738"/><path d="m428.78 193.18h2.28 16.81" stroke="#000" stroke-linecap="round" stroke-linejoin="round" stroke-width="19.7738"/><path d="m390.2 193.18h15.6 3.17" stroke="#000" stroke-linecap="round" stroke-linejoin="round" stroke-width="19.7738"/><path d="m426.9 139.65-1.67-21.55-1.16-14.94" stroke="#000" stroke-width="19.7738"/><path d="m406.93 178.66-1.13 14.52-.06.83 8.59 15.65h8.2l8.59-15.65-.06-.83-1.96-25.13-.3-3.94" stroke="#000" stroke-width="19.7738"/><path d="m412.79 103.19-1.16 14.91-1.76 22.75" stroke="#000" stroke-width="19.7738"/><path d="m422.4 103.75c.09.18.18.37.26.57 1.61 3.73 2.07 8.78 2.33 13.78.18 3.36.28 6.7.57 9.6.41 4.01.88 7.98 1.34 11.95.149 1.3.29 2.59.43 3.89.7 6.33 1.3 12.68 1.46 19.19.01.46.02.92.01 1.38 0 1.33-.06 2.64-.149 3.94-.41 6.48-1.551 12.65-.62 19.32.319 2.26.67 4.09.75 5.81.1 2.17-.25 4.15-1.681 6.55-2.8 4.7-8.16 8.95-12.31 6.75-3.4-1.82-4.72-7.99-5.82-13.3-.26-1.3-.51-2.54-.78-3.66-.87-3.64-1.22-7.24-1.26-10.86-.05-3.52.2-7.05.52-10.61.39-4.12.88-8.28 1.18-12.52.28-4.01.62-8 .99-11.99.08-.9.16-1.79.25-2.69.71-7.59 1.51-15.17 2.15-22.75.11-1.13.2-2.26.29-3.39.32-4.05 1.32-7.37 2.03-10.97" stroke="#000" stroke-width="19.7738"/><path d="m0 0h850.394v850.394h-850.394z"/></g></svg>