<svg enable-background="new 0 0 850.394 850.394" height="850.394" viewBox="0 0 850.394 850.394" width="850.394" xmlns="http://www.w3.org/2000/svg"><path d="m643.09 154.56-3.35 60.3-17.27 310.85-7.17 128.98s-3.14 61.359-35.7 84.939c-35.69 25.851-81.24 50.471-185.87 50.471l.47-.1c-89.64-3.14-131.31-26.1-164.47-50.11-32.56-23.58-35.7-84.939-35.7-84.939l-19.94-344.68s2.42-49.24-26.6-89.87c-29.03-40.62-55.64-67.71-55.64-67.71l82.03-39.71c40.26-28.43 124.61-47.99 222.14-47.99 136.59 0 247.32 38.37 247.32 85.71 0 1.289-.08 2.579-.25 3.859z" fill="#ffeec8"/><g fill="none"><path d="m643.16 153.3-.07 1.26-3.35 60.3-17.27 310.85-7.17 128.98s-3.14 61.359-35.7 84.939c-35.69 25.851-81.24 50.471-185.87 50.471l.47-.1c-89.64-3.14-131.31-26.1-164.47-50.11-32.56-23.58-35.7-84.939-35.7-84.939l-19.94-344.68s2.42-49.24-26.6-89.87c-29.03-40.62-55.64-67.71-55.64-67.71l82.03-39.71c40.26-28.43 124.61-47.99 222.14-47.99 136.59 0 247.32 38.37 247.32 85.71 0 1.29-.08 2.58-.25 3.86-5.82 45.54-114.21 81.84-247.07 81.84-104.75 0-188.53-29.46-209.65-50.71-6.99-7.03-83.63-33-83.63-33" stroke="#000" stroke-width="22.1581"/><path d="m639.74 214.86h55.92s55.399 12.01 61.399 61.4-8.77 141.72-33.699 176.8c-24.931 35.091-53.99 59.94-84.94 68.32-6.63 1.811-11.85 3.22-15.95 4.33h-.01" stroke="#000" stroke-width="36.9302"/><path d="m410.68 421.06v25.46 25.7 24.58 36.36 35.01 24.58 25.7 36.16 35.75 24.58 25.7 28.18" stroke="#000" stroke-width="22.1581"/><path d="m364.6 410.36h92.33" stroke="#000" stroke-width="22.1581"/><path d="m364.44 533.16h46.24 46.09" stroke="#000" stroke-width="22.1581"/><path d="m377.29 446.52h33.39 34.31" stroke="#000" stroke-width="14.7721"/><path d="m377.41 472.22h33.27 34.43" stroke="#000" stroke-width="14.7721"/><path d="m377.05 496.8h33.63 34.08" stroke="#000" stroke-width="14.7721"/><path d="m456.92 654.61h-46.24-46.09" stroke="#000" stroke-width="22.1581"/><path d="m444.24 618.45h-33.56-34.15" stroke="#000" stroke-width="14.7721"/><path d="m444.11 592.75h-33.43-34.27" stroke="#000" stroke-width="14.7721"/><path d="m444.47 568.17h-33.79-33.92" stroke="#000" stroke-width="14.7721"/><path d="m443.34 740.64h-32.66-35.05" stroke="#000" stroke-width="14.7721"/><path d="m443.21 714.94h-32.53-35.17" stroke="#000" stroke-width="14.7721"/><path d="m443.57 690.36h-32.89-34.82" stroke="#000" stroke-width="14.7721"/><path d="m0 0h850.394v850.394h-850.394z"/></g></svg>