<svg enable-background="new 0 0 850.394 850.394" height="850.394" viewBox="0 0 850.394 850.394" width="850.394" xmlns="http://www.w3.org/2000/svg"><path d="m531.94 473.08v183.71h-30.24v-8.96-101.38l-66.09-29.12v-16.81h63.85v-12.81-14.63z" fill="#c8c8c8"/><path d="m499.46 467.76c0 1.3-1.81 2.561-5.16 3.75-14.54 5.13-58.14 8.851-109.66 8.851-63.41 0-114.81-5.641-114.81-12.601s51.4-12.6 114.81-12.6 114.82 5.64 114.82 12.6z" fill="#fff"/><path d="m499.46 473.08v14.63h-.19c0 4.94-25.96 9.22-63.75 11.29-15.379.84-32.72 1.31-51.06 1.31-61.82 0-112.22-5.369-114.7-12.079l.07-.03v-20.44c0 6.96 51.4 12.601 114.81 12.601 51.52 0 95.12-3.721 109.66-8.851z" fill="#c8c8c8"/><path d="m398.3 383.33-1.54 38.35-18.05-.72 1.58-39.46 15.15.6z" fill="#787878"/><path d="m356.52 385.72-16.23 36.01-16.46-7.43 16.22-36z" fill="#787878"/><path d="m304.45 356.14 11.65 13.81-30.18 25.47-11.65-13.81z" fill="#787878"/><path d="m415.98 539.31c4.94 1.431 7.87 3.19 7.87 5.11 0 4.76-18.06 8.61-40.33 8.61s-40.32-3.851-40.32-8.61c0-1.92 2.93-3.689 7.9-5.12l-.52-22.64v-2.28h66.13z" fill="#787878"/><path d="m418.25 646.28v1.55h-64.41v-1.41-25.76c0 3.56 14.42 6.439 32.2 6.439 17.79 0 32.21-2.88 32.21-6.439z" fill="#c8c8c8"/><path d="m634.02 654.41 14.98 14.98v86.54h-3.92-378.61-3.37v-26.05l.58-.14 298.79-72.95h69.17v-2.38z" fill="#c8c8c8"/><path d="m562.47 656.79-298.79 72.95-.58-2.38v-35.85l63.85-43.68h26.89 64.41 83.45v8.96h30.24z" fill="#c8c8c8"/><path d="m631.64 654.41v2.38h-69.17-30.53v-183.71-48.17l-194.35-84.01v-38.08h89.061l204.989 75.61zm-13.94-69.24c0-19.65-15.91-35.57-35.561-35.57-19.649 0-35.56 15.92-35.56 35.57s15.91 35.561 35.56 35.561c19.651-.001 35.561-15.911 35.561-35.561z" fill="#c8c8c8"/><path d="m582.15 570.75c7.97 0 14.42 6.45 14.42 14.42s-6.45 14.42-14.42 14.42c-7.971 0-14.431-6.45-14.431-14.42s6.461-14.42 14.431-14.42z" fill="#c8c8c8"/><path d="m582.14 549.6c19.65 0 35.561 15.92 35.561 35.57s-15.91 35.561-35.561 35.561c-19.649 0-35.56-15.91-35.56-35.561s15.91-35.57 35.56-35.57zm14.43 35.57c0-7.97-6.45-14.42-14.42-14.42-7.971 0-14.431 6.45-14.431 14.42s6.46 14.42 14.431 14.42c7.97 0 14.42-6.45 14.42-14.42z" fill="#787878"/><path d="m649 755.93v23.51h-385.9v-23.51h3.37 378.61z" fill="#787878"/><path d="m323.14 125.07-25.17 38.45-76.41-44.8c-5.4-3.17-8.65-8.59-9.3-14.37 2.92-3.14 6.05-7.4 8.91-12.34 3.27-5.65 5.6-11.16 6.75-15.58l2.43.67c4.72-1.23 9.91-.66 14.45 2l77.77 45.6z" fill="#787878"/><path d="m430.57 232.53v70.29h-3.92-89.06-4.48v-70.29h3.36 91.58z" fill="#787878"/><path d="m431.81 174.34-1.24 39.98v18.21h-2.52-91.58-3.36v-18.21-30.24l-14-5.6 30.81-52.09z" fill="#787878"/><path d="m341.51 361.48-16.73 11.59 1.28-1.09-2.44-2.89-4.79-16.43z" fill="#cb97c4"/><path d="m323.62 369.09 2.44 2.89-1.28 1.09z" fill="#cb97c4"/><g fill="none"><path d="m230.35 77.1c4.72-1.23 9.91-.66 14.45 2l77.77 45.6" stroke="#231f20" stroke-width="21"/><path d="m299.34 164.32-1.37-.8-76.41-44.8c-5.4-3.17-8.65-8.59-9.3-14.37 0-.02-.01-.05-.01-.07" stroke="#231f20" stroke-width="21"/><path d="m227.27 67.06c1.8 1.04 1.92 4.57.65 9.37-1.15 4.42-3.48 9.93-6.75 15.58-2.86 4.94-5.99 9.2-8.91 12.34-4.04 4.34-7.68 6.52-9.68 5.37" stroke="#231f20" stroke-linecap="round" stroke-linejoin="round" stroke-width="21"/><path d="m333.11 232.53v-18.21-30.24l-14-5.6 30.81-52.09 81.89 47.95-1.24 39.98v18.21 70.29h-3.92-89.06-4.48z" stroke="#231f20" stroke-width="21"/><path d="m323.14 125.07 10.68-16.31 13.59 8.89-41.98 64.13-13.59-8.89 6.13-9.37z" stroke="#231f20" stroke-width="21"/><path d="m337.59 302.82v38.08l194.35 84.01v48.17 183.71h30.53 69.17v-2.38-275.98l-204.99-75.61" stroke="#231f20" stroke-width="21"/><path d="m531.94 473.08h-32.48v14.63 12.81h-63.85v16.81l66.09 29.12v101.38 8.96h30.24" stroke="#231f20" stroke-width="14"/><path d="m634.02 654.41 14.98 14.98v86.54 23.51h-385.9v-23.51-26.05l.58-.14 298.79-72.95" stroke="#231f20" stroke-width="21"/><path d="m263.1 727.36v-35.85l63.85-43.68h26.89 64.41 83.45" stroke="#231f20" stroke-width="21"/><path d="m400.82 379.8-1.67 3.9-.85-.37-2.86-1.23-6.46-2.77-9.69-4.17-74.29-31.97 2.4-5.59 88.89 38.24 5.26 2.26z" stroke="#231f20" stroke-width="21"/><path d="m285.92 395.42-11.65-13.81 30.18-25.47 11.65 13.81z" stroke="#231f20" stroke-width="21"/><path d="m273.12 398.8-4.06-4.81 6.42-5.42 4.06 4.82z" stroke="#231f20" stroke-width="21"/><path d="m324.78 373.07-1.6 1.35-21.41-25.36 2.89-2.43 18.96 22.46" stroke="#231f20" stroke-width="21"/><path d="m340.29 421.73-16.46-7.43 16.22-36 16.47 7.42z" stroke="#231f20" stroke-width="21"/><path d="m325.916 420.984h6.297v8.392h-6.297z" stroke="#231f20" stroke-width="21" transform="matrix(.9115 .4113 -.4113 .9115 203.9892 -97.7137)"/><path d="m364.83 386.7-30.25-13.63 1.55-3.45 30.25 13.63z" stroke="#231f20" stroke-width="21"/><path d="m398.3 383.33-1.54 38.35-18.05-.72 1.58-39.46 15.15.6 2.9.12z" stroke="#231f20" stroke-width="21"/><path d="m390.61 433.41-6.3-.25.34-8.39 6.29.25z" stroke="#231f20" stroke-width="21"/><path d="m396.29 375.84 10.27.41-.15 3.77-5.59-.22-11.84-.47-15.72-.63.15-3.78 5.88.24z" stroke="#231f20" stroke-width="21"/><path d="m323.62 369.09-4.79-16.43 22.68 8.82-16.73 11.59z" stroke="#231f20" stroke-width="21"/><path d="m269.83 467.76c0-6.96 51.4-12.6 114.81-12.6s114.82 5.64 114.82 12.6c0 1.3-1.81 2.561-5.16 3.75-14.54 5.13-58.14 8.851-109.66 8.851-63.41-.001-114.81-5.641-114.81-12.601z" stroke="#231f20" stroke-width="14"/><path d="m499.27 487.71c0 4.94-25.96 9.22-63.75 11.29-15.379.84-32.72 1.31-51.06 1.31-61.82 0-112.22-5.369-114.7-12.079-.08-.171-.11-.351-.11-.521" stroke="#231f20" stroke-width="14"/><path d="m269.83 467.76v20.44" stroke="#231f20" stroke-width="14"/><path d="m350.58 514.38h-2.27v-10.92h72.67v10.92h-4.27z" stroke="#231f20" stroke-width="21"/><path d="m416.71 514.38-.73 24.93c4.94 1.431 7.87 3.19 7.87 5.11 0 4.76-18.06 8.61-40.33 8.61s-40.32-3.851-40.32-8.61c0-1.92 2.93-3.689 7.9-5.12l-.52-22.64" stroke="#231f20" stroke-width="21"/><path d="m418.25 620.66c0 3.56-14.42 6.439-32.21 6.439-17.78 0-32.2-2.88-32.2-6.439 0-3.561 14.42-6.44 32.2-6.44 17.79 0 32.21 2.88 32.21 6.44z" stroke="#231f20" stroke-width="14"/><path d="m353.84 620.66v25.76" stroke="#231f20" stroke-width="14"/><path d="m418.25 619.4v1.26 25.62" stroke="#231f20" stroke-width="14"/><path d="m266.47 755.93h378.61" stroke="#231f20" stroke-width="21"/><path d="m617.7 585.17c0 19.65-15.91 35.561-35.561 35.561-19.649 0-35.56-15.91-35.56-35.561s15.91-35.57 35.56-35.57c19.651 0 35.561 15.92 35.561 35.57z" stroke="#231f20" stroke-width="21"/><path d="m596.57 585.17c0 7.97-6.45 14.42-14.42 14.42-7.971 0-14.431-6.45-14.431-14.42s6.46-14.42 14.431-14.42c7.97 0 14.42 6.45 14.42 14.42z" stroke="#231f20" stroke-width="14"/><path d="m336.47 232.53h91.58" stroke="#231f20" stroke-width="21"/><path d="m0 0h850.394v850.394h-850.394z"/></g></svg>