<svg enable-background="new 0 0 850.394 850.394" height="850.394" viewBox="0 0 850.394 850.394" width="850.394" xmlns="http://www.w3.org/2000/svg"><path d="m158.438 69.201h184.124v184.12h-184.124z" fill="none"/><path d="m342.563 243.32c-49.784 0-99.567 0-149.351 0-11.591 0-23.182 0-34.773 0l10 10c0-49.783 0-99.565 0-149.348 0-11.591 0-23.181 0-34.772-3.333 3.333-6.667 6.667-10 10h149.351 34.773c-3.333-3.333-6.667-6.667-10-10v149.348 34.772c0 12.897 20 12.897 20 0 0-49.783 0-99.565 0-149.348 0-11.591 0-23.181 0-34.772 0-5.451-4.549-10-10-10-49.784 0-99.567 0-149.351 0-11.591 0-23.182 0-34.773 0-5.451 0-10 4.549-10 10v149.348 34.772c0 5.451 4.549 10 10 10h149.351 34.773c12.897 0 12.897-20 0-20z" fill="#231f20"/><path d="m161.305 597.136h178.392v178.387h-178.392z" fill="none"/><path d="m161.305 607.136h149.765 28.626c-3.333-3.333-6.667-6.667-10-10v149.762 28.625c3.333-3.333 6.667-6.667 10-10-49.922 0-99.844 0-149.765 0-9.542 0-19.084 0-28.626 0 3.333 3.333 6.667 6.667 10 10 0-49.921 0-99.841 0-149.762 0-9.541 0-19.083 0-28.625 0-12.897-20-12.897-20 0v149.762 28.625c0 5.451 4.549 10 10 10h149.765 28.626c5.451 0 10-4.549 10-10 0-49.921 0-99.841 0-149.762 0-9.541 0-19.083 0-28.625 0-5.451-4.549-10-10-10-49.922 0-99.844 0-149.765 0-9.542 0-19.084 0-28.626 0-12.898 0-12.898 20 0 20z" fill="#231f20"/><path d="m161.305 333.376h178.392v178.38h-178.392z" fill="none"/><g fill="#5668af"><circle cx="339.696" cy="363.106" r="14.292"/><circle cx="339.696" cy="392.836" r="14.292"/><circle cx="339.696" cy="422.566" r="14.292"/><circle cx="339.696" cy="452.297" r="14.292"/><circle cx="339.696" cy="482.026" r="14.292"/><circle cx="309.964" cy="511.756" r="14.292"/><circle cx="280.232" cy="511.756" r="14.292"/><circle cx="250.5" cy="511.756" r="14.292"/><circle cx="220.768" cy="511.756" r="14.292"/><circle cx="191.036" cy="511.756" r="14.292"/><circle cx="161.305" cy="482.025" r="14.292"/><circle cx="161.305" cy="452.296" r="14.292"/><circle cx="161.305" cy="422.565" r="14.292"/><circle cx="161.305" cy="392.835" r="14.292"/><circle cx="161.305" cy="363.105" r="14.292"/><circle cx="191.037" cy="333.376" r="14.292"/><circle cx="220.769" cy="333.376" r="14.292"/><circle cx="250.501" cy="333.376" r="14.292"/><circle cx="280.233" cy="333.376" r="14.292"/><circle cx="309.965" cy="333.376" r="14.292"/><circle cx="339.696" cy="511.756" r="14.292"/><circle cx="161.305" cy="511.756" r="14.292"/><circle cx="161.305" cy="333.376" r="14.292"/><circle cx="339.696" cy="333.376" r="14.292"/></g><path d="m0 0h850.394v850.394h-850.394z" fill="none"/><path d="m755.042 424.54h-312.993" fill="#fff" stroke="#231f20" stroke-width="25.9953"/><path d="m540.126 334.09-99.983 90.78 100.147 90.753" fill="none" stroke="#231f20" stroke-width="25.9953"/></svg>