<svg enable-background="new 0 0 850.89 850.89" height="850.89" viewBox="0 0 850.89 850.89" width="850.89" xmlns="http://www.w3.org/2000/svg"><path d="m679.85 708.52-11.69 11.03 2.76 15.57-14.45-7.35-14.45 7.35 2.76-15.57-11.69-11.03 16.16-2.27 7.22-14.17 7.23 14.17z" fill="#ffffc2"/><path d="m437.94 753.22-11.69 11.03 2.76 15.57-14.45-7.35-14.45 7.35 2.76-15.57-11.69-11.03 16.16-2.27 7.22-14.17 7.23 14.17z" fill="#ffffc2"/><path d="m199.85 702.52-11.69 11.03 2.76 15.57-14.45-7.35-14.45 7.35 2.76-15.57-11.69-11.03 16.16-2.27 7.22-14.17 7.23 14.17z" fill="#ffffc2"/><path d="m781.85 314.52-11.69 11.03 2.76 15.57-14.45-7.35-14.45 7.35 2.76-15.57-11.69-11.03 16.16-2.27 7.22-14.17 7.23 14.17z" fill="#ffffc2"/><path d="m673.85 124.52-11.69 11.03 2.76 15.57-14.45-7.35-14.45 7.35 2.76-15.57-11.69-11.03 16.16-2.27 7.22-14.17 7.23 14.17z" fill="#ffffc2"/><path d="m401.85 162.52-11.69 11.03 2.76 15.57-14.45-7.35-14.45 7.35 2.76-15.57-11.69-11.03 16.16-2.27 7.22-14.17 7.23 14.17z" fill="#ffffc2"/><path d="m178.85 102.52-11.69 11.03 2.76 15.57-14.45-7.35-14.45 7.35 2.76-15.57-11.69-11.03 16.16-2.27 7.22-14.17 7.23 14.17z" fill="#ffffc2"/><path d="m687.85 566.52-11.69 11.03 2.76 15.57-14.45-7.35-14.45 7.35 2.76-15.57-11.69-11.03 16.16-2.27 7.22-14.17 7.23 14.17z" fill="#ffffc2"/><path d="m481.85 294.52-11.69 11.03 2.76 15.57-14.45-7.35-14.45 7.35 2.76-15.57-11.69-11.03 16.16-2.27 7.22-14.17 7.23 14.17z" fill="#ffffc2"/><path d="m390.92 524.84c27.5 9.75 54.59 13.67 77.65 12.311h.01c31.54-1.86 55.53-13.591 62.689-33.771 12.381-34.95-30.38-81.99-95.51-105.06-65.12-23.09-127.96-13.48-140.34 21.47-12.379 34.94 30.371 81.98 95.501 105.05zm214.75-202.47c110.85 65.12 184.29 153.8 145.49 245.25-20.36 48-78.13 73.86-148.67 80.18l.02.181-311.36 27.829-.01-.109c-84.51-49.881-282.09-236.741-173.19-360.261 113.62-128.86 374.43-59.63 487.72 6.93zm70.49 255.18 11.689-11.03-16.149-2.27-7.23-14.17-7.22 14.17-16.16 2.27 11.69 11.03-2.761 15.57 14.45-7.351 14.45 7.351zm-206-272 11.689-11.03-16.149-2.27-7.23-14.17-7.22 14.17-16.16 2.27 11.69 11.03-2.761 15.57 14.45-7.35 14.45 7.35zm-326 96 11.69-11.03-16.15-2.27-7.23-14.17-7.22 14.17-16.16 2.27 11.69 11.03-2.76 15.57 14.45-7.35 14.45 7.35z" fill="#a9d7f3"/><path d="m377.14 444.73c-5.39 16.42 8.5 35.729 31.01 43.119 22.52 7.4 45.15.07 50.541-16.33 5.399-16.42-8.48-35.729-31-43.13-22.521-7.399-45.151-.079-50.551 16.341zm58.62-46.41c65.13 23.07 107.891 70.11 95.51 105.06-7.159 20.18-31.149 31.91-62.689 33.771h-.01c-23.061 1.359-50.15-2.561-77.65-12.311-65.13-23.07-107.88-70.109-95.5-105.05 12.379-34.95 75.219-44.56 140.339-21.47z" fill="#a9d7f3"/><path d="m427.69 428.39c22.52 7.4 36.399 26.71 31 43.13-5.391 16.4-28.021 23.73-50.541 16.33-22.51-7.39-36.4-26.699-31.01-43.119 5.401-16.421 28.031-23.741 50.551-16.341z" fill="#231f20"/><path d="m155.85 390.52-11.69 11.03 2.76 15.57-14.45-7.35-14.45 7.35 2.76-15.57-11.69-11.03 16.16-2.27 7.22-14.17 7.23 14.17z" fill="#ffffc2"/><g fill="none"><path d="m468.57 537.15c-23.061 1.359-50.15-2.561-77.65-12.311-65.13-23.07-107.88-70.109-95.5-105.05 12.38-34.95 75.22-44.56 140.34-21.47 65.13 23.07 107.891 70.11 95.51 105.06-7.159 20.18-31.149 31.91-62.689 33.771" stroke="#231f20" stroke-width="21"/><path d="m468.5 537.14s.02 0 .07.011h.01c4.49.619 195.49 26.33 162.03-63.75-19.22-51.751-87.29-101.151-181.51-135.791-73.76-27.12-238.32-42.95-270.189 34.64-29.33 71.43 78.99 195.38 218.93 246.64 66.49 24.351 140.8 34.641 204.65 28.91 70.54-6.319 128.31-32.18 148.67-80.18 38.8-91.45-34.641-180.13-145.49-245.25-113.29-66.56-374.1-135.79-487.72-6.93-108.901 123.52 88.679 310.38 173.189 360.26" stroke="#231f20" stroke-width="21"/><path d="m155.47 121.77 14.45 7.35-2.76-15.57 11.69-11.03-16.15-2.27-7.23-14.17-7.22 14.17-16.16 2.27 11.69 11.03-2.76 15.57z" stroke="#000" stroke-linecap="round" stroke-linejoin="round" stroke-width="7"/><path d="m378.47 181.77 14.45 7.35-2.76-15.57 11.69-11.03-16.15-2.27-7.23-14.17-7.22 14.17-16.16 2.27 11.69 11.03-2.76 15.57z" stroke="#000" stroke-linecap="round" stroke-linejoin="round" stroke-width="7"/><path d="m650.47 143.77 14.45 7.35-2.76-15.57 11.69-11.03-16.15-2.27-7.23-14.17-7.22 14.17-16.16 2.27 11.69 11.03-2.76 15.57z" stroke="#000" stroke-linecap="round" stroke-linejoin="round" stroke-width="7"/><path d="m758.47 333.77 14.45 7.35-2.76-15.57 11.69-11.03-16.15-2.27-7.23-14.17-7.22 14.17-16.16 2.27 11.69 11.03-2.76 15.57z" stroke="#000" stroke-linecap="round" stroke-linejoin="round" stroke-width="7"/><path d="m458.47 313.77 14.45 7.35-2.76-15.57 11.69-11.03-16.15-2.27-7.23-14.17-7.22 14.17-16.16 2.27 11.69 11.03-2.76 15.57z" stroke="#000" stroke-linecap="round" stroke-linejoin="round" stroke-width="7"/><path d="m132.47 409.77 14.45 7.35-2.76-15.57 11.69-11.03-16.15-2.27-7.23-14.17-7.22 14.17-16.16 2.27 11.69 11.03-2.76 15.57z" stroke="#000" stroke-linecap="round" stroke-linejoin="round" stroke-width="7"/><path d="m664.47 585.77 14.45 7.35-2.76-15.57 11.69-11.03-16.15-2.27-7.23-14.17-7.22 14.17-16.16 2.27 11.69 11.03-2.76 15.57z" stroke="#000" stroke-linecap="round" stroke-linejoin="round" stroke-width="7"/><path d="m176.47 721.77 14.45 7.35-2.76-15.57 11.69-11.03-16.15-2.27-7.23-14.17-7.22 14.17-16.16 2.27 11.69 11.03-2.76 15.57z" stroke="#000" stroke-linecap="round" stroke-linejoin="round" stroke-width="7"/><path d="m414.56 772.47 14.45 7.35-2.76-15.57 11.69-11.03-16.15-2.27-7.23-14.17-7.22 14.17-16.16 2.27 11.69 11.03-2.76 15.57z" stroke="#000" stroke-linecap="round" stroke-linejoin="round" stroke-width="7"/><path d="m656.47 727.77 14.45 7.35-2.76-15.57 11.69-11.03-16.15-2.27-7.23-14.17-7.22 14.17-16.16 2.27 11.69 11.03-2.76 15.57z" stroke="#000" stroke-linecap="round" stroke-linejoin="round" stroke-width="7"/><path d="m.25.25h850.394v850.394h-850.394z"/></g></svg>