<svg enable-background="new 0 0 850.394 850.394" height="850.394" viewBox="0 0 850.394 850.394" width="850.394" xmlns="http://www.w3.org/2000/svg"><path d="m416.79 141.183c13.347-15.937 29.653 11.4 26.542 22.554l-3.639 24.643h-105.661-55.468-105.661l-5.038-21.353c-3.11-11.154 11.343-41.781 24.681-25.844 5.341-6.021 3.875-15.833 11.825-21.136 7.43-4.962 17.185-2.042 21.401 5.671 5.879-14.415 16.589-15.171 28.962-8.356 5.218-6.154 3.904-13.857 12.629-16.637 7.25-2.315 16.013-4.962 19.765 1.002 8.176-9.273 26.912-9.273 35.088 0 3.753-5.964 12.506-3.317 19.766-1.002 8.715 2.779 7.401 10.483 12.628 16.637 12.374-6.815 23.083-6.059 28.963 8.356 4.216-7.713 13.961-10.634 21.391-5.671 7.95 5.303 6.485 15.115 11.826 21.136z" fill="#fff"/><path d="m331.726 672.683c-6.9 3.856-15.294 5.937-25.097 5.937-18.139 0-31.6-4.604-39.795-17.639-1.569-4.112-3.696-9.273-6.201-15.152-.009-.01-.009-.01-.009-.02-12.855-30.163-35.589-79.25-43.123-103.005-22.459-70.78-35.759-121.352-40.58-199.317-3.488-56.347-4.018-155.107-4.018-155.107h105.661 55.468 105.661s-.539 98.761-4.027 155.107c-4.82 77.965-18.12 128.537-40.57 199.317-7.543 23.755-30.267 72.842-43.123 103.005-.009.028-.019.048-.028.076-1.758 4.111-3.327 7.874-4.641 11.173-3.772 6.654-8.99 11.948-15.578 15.625z" fill="#9e5c26"/><path d="m429.654 791.945c0 1.796.113 3.678 0 5.625h-246.721c-.104-1.947.009-3.829.009-5.625 0-13.517 16.07-28.934 16.07-28.934 13.451-13.451 31.449-22.563 45.92-28.273 14.065-5.548 24.804-7.893 24.804-7.893 0-.208-.01-.406-.028-.604 9.386-1.06 20.947-1.002 36.458-1.002 16.334 0 27.223.037 36.695 1.427v.18s11.816 2.581 26.902 8.744c14.084 5.747 31.014 14.613 43.822 27.422 0 0 16.069 15.417 16.069 28.933z" fill="#ffeec8"/><path d="m331.726 672.683c6.588-3.677 11.807-8.971 15.578-15.625-2.77 6.9-4.443 11.749-4.443 13.526 0 8.838 18.083 6.834 18.083 27.725 0 20.758-17.837 19.718-18.083 28.357-9.472-1.39-20.361-1.427-36.695-1.427-15.512 0-27.072-.058-36.458 1.002-.813-8.187-18.055-7.524-18.055-27.933 0-20.891 18.083-18.887 18.083-27.725 0-1.418-1.068-4.792-2.902-9.604 8.195 13.035 21.656 17.639 39.795 17.639 9.803.001 18.196-2.079 25.097-5.935z" fill="#ffeec8"/><path d="m351.973 645.809c12.855-30.163 35.58-79.25 43.123-103.005 22.45-70.78 35.75-121.352 40.57-199.317 3.488-56.347 4.027-155.107 4.027-155.107h-105.661" fill="none" stroke="#000" stroke-width="19.2884"/><path d="m260.633 645.828c2.505 5.879 4.632 11.04 6.201 15.152 1.833 4.812 2.902 8.186 2.902 9.604 0 8.838-18.083 6.834-18.083 27.725 0 20.408 17.242 19.746 18.055 27.933.019.198.028.396.028.604 0 0-10.738 2.345-24.804 7.893-14.472 5.71-32.47 14.822-45.92 28.273 0 0-16.07 15.417-16.07 28.934 0 1.796-.113 3.678-.009 5.625h246.722c.113-1.947 0-3.829 0-5.625 0-13.517-16.069-28.934-16.069-28.934-12.808-12.809-29.738-21.675-43.822-27.422-15.086-6.163-26.902-8.744-26.902-8.744 0-.057 0-.123 0-.18.246-8.64 18.083-7.6 18.083-28.357 0-20.891-18.083-18.887-18.083-27.725 0-1.777 1.673-6.626 4.443-13.526 1.314-3.299 2.883-7.062 4.641-11.173" fill="none" stroke="#000" stroke-width="19.2884"/><path d="m334.032 188.379h-55.468-105.661s.529 98.761 4.018 155.107c4.821 77.965 18.121 128.537 40.58 199.317 7.534 23.755 30.267 72.842 43.123 103.005" fill="none" stroke="#000" stroke-width="19.2884"/><path d="m279.16 672.786c0-8.848-20.153-87.351-30.882-121.172-22.459-70.771-25.739-131.382-30.56-209.337-1.55-25.04-2.515-58.445-3.11-87.852" fill="none" stroke="#000" stroke-width="19.2884"/><path d="m351.973 645.809c-.009.028-.019.048-.028.076-1.163 4.055-2.713 7.788-4.641 11.173-3.771 6.654-8.99 11.948-15.578 15.625-6.9 3.856-15.294 5.937-25.097 5.937-18.139 0-31.6-4.604-39.795-17.639-2.609-4.15-4.688-9.16-6.201-15.152-.009-.01-.009-.01-.009-.02" fill="none" stroke="#000" stroke-width="19.2884"/><path d="m244.932 734.738c7.25-5.01 14.793-7.382 24.775-8.497 9.386-1.06 20.947-1.002 36.458-1.002 16.334 0 27.223.037 36.695 1.427 9.093 1.333 16.882 3.913 26.902 8.914" fill="none" stroke="#000" stroke-width="19.2884"/><path d="m172.903 188.379-5.038-21.353c-3.11-11.154 11.343-41.781 24.681-25.844 5.341-6.021 3.875-15.833 11.825-21.136 7.43-4.962 17.185-2.042 21.401 5.671 5.879-14.415 16.589-15.171 28.962-8.356 5.218-6.154 3.904-13.857 12.629-16.637 7.25-2.315 16.013-4.962 19.765 1.002 8.176-9.273 26.912-9.273 35.088 0 3.753-5.964 12.506-3.317 19.766-1.002 8.715 2.779 7.401 10.483 12.628 16.637 12.374-6.815 23.083-6.059 28.963 8.356 4.216-7.713 13.961-10.634 21.391-5.671 7.95 5.303 6.484 15.115 11.825 21.136 13.347-15.937 29.653 11.4 26.542 22.554l-3.639 24.643" fill="none" stroke="#000" stroke-width="19.2884"/><path d="m260.104 254.434c.236 58.568 1.134 140.475 4.272 173.984 6.438 68.569 28.935 214.318 28.935 241.098" fill="none" stroke="#000" stroke-width="19.2884"/><path d="m331.527 674.885c0-.511.066-1.248.198-2.202 2.089-15.55 20.56-87.097 30.683-118.971 22.45-70.771 25.73-131.381 30.551-209.336 1.588-25.635 2.562-60.043 3.157-89.941" fill="none" stroke="#000" stroke-width="19.2884"/><path d="m350.583 254.434c-.217 58.691-1.106 142.167-4.282 176.074-6.428 68.578-28.925 214.327-28.925 241.106" fill="none" stroke="#000" stroke-width="19.2884"/><path d="m304.03 254.434v421.586" fill="none" stroke="#000" stroke-width="19.2884"/><path d="m0 0h850.394v850.394h-850.394z" fill="none"/><path d="m797.606 137.906c.954 2.566.955 5.549-.23 8.345l-133.347 314.336c-2.369 5.585-8.58 8.298-13.865 6.056l-156.302-66.306c-5.285-2.242-7.646-8.59-5.277-14.176l133.347-314.337c1.358-3.201 3.971-5.458 6.949-6.378l7.01 21.727-24.74 58.321-19.206 5.67-.162.117 11.109 15.525-24.753 58.349-19.933 6.853 11.354 13.371-.663-.281-24.74 58.321-.002.004-20.514 6.258 11.926 13.985.331 1.063-25.603 60.353-.265.625 61.636 26.147-.017.038 2.616 19.902 14.105-13.096 62.604 26.558.379-.892 25.487-60.081 17.533-3.228-10.018-16.333 24.689-58.202.043.019 20.169-4.901-10.896-15.231 25.474-60.047.353.149 18.424-3.497-11.253-16.233 24.723-58.278.002-.005 20.445-10.04z" fill="#9e5b16"/><path d="m797.606 137.906-1.078.55-20.445 10.04.75-1.77-60.958-25.859-1.705-21.069.281-.663 77.644 32.938c2.642 1.12 4.557 3.267 5.511 5.833z" fill="#9e5b16"/><path d="m718.361 286.406 10.897 15.232-20.169 4.901-.043-.018.794-1.87-62.605-26.558-2.412-10.58-.187-.817 10.731-5.927 62.604 26.558z" fill="#9e5b16"/><path d="m651.354 444.364-.379.892-62.604-26.558 25.465-60.028.4-.944 62.605 26.557z" fill="#9e5b16"/><path d="m718.361 286.406-.39.921-62.604-26.558 25.461-60.019.402-.949 62.605 26.558z" fill="#9e5b16"/><path d="m684.356 364.722 10.018 16.334-17.533 3.227-62.605-26.557-.4.944-.663-.281-3.204-11.817 11.403-7.511 62.604 26.558z" fill="#9e5b16"/><path d="m750.97 207.695.388-.916 11.253 16.233-18.423 3.496-.353-.149-62.605-26.558-.402.949-.663-.281-3.999-12.159 12.621-8.165-.421.992z" fill="#9e5b16"/><path d="m684.356 364.722-.38.897-62.604-26.558 25.863-60.968 62.605 26.558-.794 1.87z" fill="#9e5b16"/><path d="m751.358 206.779-.388.916-62.604-26.558.421-.992 25.442-59.976 1.646.698 60.958 25.86-.75 1.769-.002.005z" fill="#9e5b16"/><path d="m644.636 266.696.187.817-12.659 4.423-.663-.281-61.941-26.277-11.354-13.371 19.933-6.853-1.113 2.624 61.636 26.146-.018.043z" fill="#9e5b16"/><path d="m714.451 99.135-.281.663-15.675 13.933-62.604-26.558-7.01-21.727c2.23-.692 4.65-.639 6.911.32z" fill="#9e5b16"/><path d="m671.643 174.335 4.523 13.975-11.004 3.994-.329.778-61.941-26.277-11.11-15.525.162-.116 19.206-5.67-1.125 2.652 61.636 26.146z" fill="#9e5b16"/><path d="m510.295 385.082 25.602-60.353 61.942 26.276.663.282-25.868 60.977-.968-.41-61.636-26.147z" fill="#9e5b16"/><path d="m578.139 225.154 24.753-58.349 61.941 26.277.663.281-25.866 60.972-.968-.411-61.636-26.146z" fill="#9e5b16"/><path d="m638.644 253.967.018-.043.968.411 25.866-60.972-.663-.281.329-.778 11.004-3.994 3.999 12.159.663.281-25.461 60.019-10.731 5.927z" fill="#9e5b16"/><path d="m571.649 411.892.017-.038.968.41 25.868-60.977-.663-.282.332-.782 11.798-3.651 3.204 11.817.663.281-25.465 60.028-14.105 13.096z" fill="#9e5b16"/><path d="m611.15 145.494 24.741-58.321 62.604 26.557-25.866 60.973-.968-.411-61.636-26.146z" fill="#9e5b16"/><path d="m672.629 174.703 25.866-60.973 15.675-13.932 1.705 21.069-1.646-.698-25.442 59.976-12.621 8.165-4.523-13.975.018-.043z" fill="#9e5b16"/><path d="m605.635 332.627 25.866-60.972.663.281 12.659-4.423 2.412 10.58-25.863 60.968-11.403 7.511-5.321-14.312.019-.043z" fill="#9e5b16"/><path d="m544.156 303.418 24.74-58.321.664.281 61.941 26.277-25.866 60.972-.968-.41-61.636-26.147 1.123-2.648z" fill="#9e5b16"/><path d="m535.566 323.666-11.925-13.986 20.513-6.258-1.123 2.648 61.636 26.147-.019.043 5.321 14.312-11.798 3.651-.332.782-61.942-26.276z" fill="#9e5b16"/><g fill="none"><path d="m698.495 113.73-25.866 60.973-.968-.411-61.636-26.146 1.125-2.652 24.741-58.321z" stroke="#000" stroke-width="11.0038"/><path d="m776.081 148.501-24.723 58.278-.388.916-62.604-26.558.421-.992 25.442-59.976 1.646.698 60.958 25.86-.75 1.769" stroke="#000" stroke-width="11.0038"/><path d="m628.864 65.394.017.052 7.01 21.727" stroke="#000" stroke-width="11.0038"/><path d="m591.944 151.164 19.206-5.67.495-.145" stroke="#000" stroke-width="11.0038"/><path d="m796.528 138.456-20.445 10.04-.002.005-.091.041" stroke="#000" stroke-width="11.0038"/><path d="m714.17 99.798-15.675 13.932" stroke="#000" stroke-width="11.0038"/><path d="m714.17 99.798 1.705 21.069" stroke="#000" stroke-width="11.0038"/><path d="m676.166 188.31 12.621-8.165" stroke="#000" stroke-width="11.0038"/><path d="m676.166 188.31-4.523-13.975" stroke="#000" stroke-width="11.0038"/><path d="m591.521 150.916.261.364 11.11 15.525" stroke="#000" stroke-width="11.0038"/><path d="m762.611 223.012-18.423 3.496" stroke="#000" stroke-width="11.0038"/><path d="m762.611 223.012-11.253-16.233-.188-.272" stroke="#000" stroke-width="11.0038"/><path d="m665.162 192.304 11.004-3.994 3.999 12.159" stroke="#000" stroke-width="11.0038"/><path d="m664.833 193.082.663.281-25.866 60.972-.968-.411-61.636-26.146 1.113-2.624 24.753-58.349z" stroke="#000" stroke-width="11.0038"/><path d="m718.361 286.406-.39.921-62.604-26.558 25.461-60.019.402-.949 62.605 26.558z" stroke="#000" stroke-width="11.0038"/><path d="m558.206 232.007 19.933-6.853.507-.173" stroke="#000" stroke-width="11.0038"/><path d="m644.636 266.696 10.731-5.927" stroke="#000" stroke-width="11.0038"/><path d="m644.636 266.696-5.992-12.729" stroke="#000" stroke-width="11.0038"/><path d="m558.206 232.007 11.354 13.371" stroke="#000" stroke-width="11.0038"/><path d="m729.258 301.638-20.169 4.901" stroke="#000" stroke-width="11.0038"/><path d="m729.258 301.638-10.897-15.232-.187-.26" stroke="#000" stroke-width="11.0038"/><path d="m632.164 271.936 12.659-4.423 2.412 10.58" stroke="#000" stroke-width="11.0038"/><path d="m544.156 303.418 24.74-58.321.664.281 61.941 26.277-25.866 60.972-.968-.41-61.636-26.147 1.123-2.648" stroke="#000" stroke-width="11.0038"/><path d="m684.356 364.722-.38.897-62.604-26.558 25.863-60.968 62.605 26.558-.794 1.87z" stroke="#000" stroke-width="11.0038"/><path d="m523.641 309.68 20.513-6.258.002-.004.496-.15" stroke="#000" stroke-width="11.0038"/><path d="m609.969 346.572 11.403-7.511" stroke="#000" stroke-width="11.0038"/><path d="m609.969 346.572-5.321-14.312" stroke="#000" stroke-width="11.0038"/><path d="m523.637 309.678.004.002 11.925 13.986" stroke="#000" stroke-width="11.0038"/><path d="m694.374 381.056-17.533 3.227" stroke="#000" stroke-width="11.0038"/><path d="m694.374 381.056-10.018-16.334-.18-.29" stroke="#000" stroke-width="11.0038"/><path d="m598.171 350.223 11.798-3.651 3.204 11.817" stroke="#000" stroke-width="11.0038"/><path d="m597.839 351.005.663.282-25.868 60.977-.968-.41-61.636-26.147.265-.625 25.602-60.353z" stroke="#000" stroke-width="11.0038"/><path d="m651.354 444.364-.379.892-62.604-26.558 25.465-60.028.4-.944 62.605 26.557z" stroke="#000" stroke-width="11.0038"/><path d="m490.302 394.903 19.993-9.821.548-.269" stroke="#000" stroke-width="11.0038"/><path d="m574.266 431.794 14.105-13.096" stroke="#000" stroke-width="11.0038"/><path d="m574.266 431.794-2.617-19.902" stroke="#000" stroke-width="11.0038"/><path d="m660.405 459.629-9.051-15.265-.174-.294" stroke="#000" stroke-width="11.0038"/><path d="m797.606 137.906c.954 2.566.955 5.549-.23 8.345l-133.347 314.336c-2.369 5.585-8.58 8.298-13.865 6.056l-156.302-66.306c-5.285-2.242-7.646-8.59-5.277-14.176l133.347-314.337c1.358-3.201 3.971-5.458 6.949-6.378 2.23-.692 4.65-.639 6.911.32l78.659 33.369 77.644 32.938c2.642 1.12 4.557 3.267 5.511 5.833z" stroke="#000" stroke-width="11.0038"/></g></svg>