<svg enable-background="new 0 0 850.394 850.394" height="850.394" viewBox="0 0 850.394 850.394" width="850.394" xmlns="http://www.w3.org/2000/svg"><path d="m376 784-.31 2.12c-20.58-3-40.54-7.94-59.67-14.64l.77-2.24c-10.63-10.931-21.07-26.49-30.73-44.94l.13-.89c6.31.93 12.96 1.84 19.95 2.68 15.12 1.83 31.8 3.37 49.95 4.4l-.09 1.51c14.91 43.75 12.92 39.02 20 52z" fill="#c8c8c8"/><path d="m376 784c-7.08-12.98-5.09-8.25-20-52l.09-1.51c3.5.2 7.05.38 10.66.54 14.84.66 30.59.979 47.23.819l.02 2.151c5.99 36.79 10.83 54.77 11.04 55.52-.75.021-1.5.021-2.25.021-16 0-31.72-1.16-47.1-3.42z" fill="#c8c8c8"/><path d="m422.51 731.74v-.14c19.9.36 38.61.07 56.04-.71 5.181-.229 10.25-.5 15.21-.81l.24 3.92c-13.25 38.87-20 48-20 48l.54 3.41c-16.13 2.6-32.66 4.01-49.5 4.109-.21-.75-5.05-18.729-11.04-55.52l-.02-2.15c2.81-.019 5.66-.059 8.53-.109z" fill="#c8c8c8"/><path d="m529.35 771.55c-17.63 6.16-35.949 10.83-54.81 13.86l-.54-3.41s6.75-9.13 20-48l-.24-3.92c16.391-1.021 31.55-2.46 45.4-4.13 6.979-.84 13.63-1.75 19.939-2.69l.131.891c-9.66 18.46-20.101 34.02-30.73 44.939z" fill="#c8c8c8"/><path d="m604 578c-3.47 26.19-3.76 39.51-12 66l.17 1.64c-7.51.78-15.46 1.54-23.88 2.261-20.59 1.76-43.94 3.319-70.36 4.52-13.149.59-27.06 1.1-41.76 1.5l-.17-5.921c3.18-24.6 4.63-36.79 7.07-65.11 15.569-.659 40.16-2.159 87.42-5.21 7.81-.5 15.479-1.08 22.979-1.699 10.34-.86 20.37-1.83 30.011-2.86z" fill="#c8c8c8"/><path d="m643.59 568.21c-12.399 1.71-25.84 3.38-40.109 4.91-9.641 1.03-19.671 2-30.011 2.86l-.439-5.421c1.479-11.22 2.45-22.17 2.83-32.619.439-12.16.84-23.551 1.14-34.33 14.55-.811 28.39-1.851 41.41-3.04 13.12-1.2 25.42-2.561 36.81-3.99l.09.74c-2.189 23.17-6.09 47.13-11.729 70.819z" fill="#c8c8c8"/><path d="m592 644c8.24-26.49 8.53-39.81 12-66l-.52-4.88c14.27-1.53 27.71-3.2 40.109-4.91 12.04-1.66 23.11-3.36 33.01-4.979l.811 4.909c-6.01 25.2-13.35 40.52-23.41 63.86l.88 5.11c-1.229.22-2.49.43-3.77.649-3.65.62-7.521 1.25-11.601 1.87-13.35 2.05-29.029 4.101-47.34 6.01z" fill="#c8c8c8"/><path d="m418.42 236.28c-4.64.09-13.25.16-27.2-.07-3.94-.06-8.3-.15-13.12-.28-6.14-.15-13.03-.36-20.71-.62-3.93-.14-7.94-.3-12-.49l.12-2.55c8.49-22.72 13.52-33.77 20.49-48.27l.31-4.02c12.34.96 24.91 1.78 36.8 2.28 6.68.28 13.19.49 19.39.62v-.14c16.79-.33 36.31-1.44 55.35-2.82l.15 2.08c6.97 14.5 13.29 27.38 21.78 50.13l.239 2.53c-4.109.2-8.159.37-12.119.51-6.58.22-12.57.4-18.021.55-5.899.16-11.149.27-15.81.34v.49c-16.011.15-30.59-.02-35.62-.08-.009-.06-.019-.13-.029-.19z" fill="#c8c8c8"/><path d="m499.78 232.13c-8.49-22.75-14.81-35.63-21.78-50.13l-.15-2.08c18.101-1.31 35.761-2.87 50.24-4.24 10 13 22.75 31.37 35.16 54.24-12.07 1.15-24.79 2.24-37.46 3.15-8.69.63-17.35 1.18-25.771 1.59z" fill="#c8c8c8"/><path d="m477.85 179.92c-19.04 1.38-38.56 2.49-55.35 2.82v.14c-6.2-.13-12.71-.34-19.39-.62-11.89-.5-24.46-1.32-36.8-2.28-16.78-1.32-33.13-2.9-46.78-4.33-17.29-1.82-30.23-3.4-34.18-3.89 41.72-19.63 88.3-30.6 137.44-30.6 49.58 0 96.55 11.17 138.55 31.14-3.899.43-16.42 1.78-33.25 3.38-14.48 1.37-32.14 2.93-50.24 4.24z" fill="#c8c8c8"/><path d="m366 184c-6.97 14.5-12 25.55-20.49 48.27l-.12 2.55c-8.87-.41-17.98-.94-27.07-1.55-12.38-.82-24.72-1.79-36.39-2.79l.02-.26c14.39-26.52 26.9-40.17 37.38-53.26l.2-1.31c13.65 1.43 30 3.01 46.78 4.33z" fill="#c8c8c8"/><path d="m258.15 228.34c7.43.7 15.43 1.43 23.78 2.14 11.67 1 24.01 1.97 36.39 2.79l-.32 4.73c-9.55 17.59-14.36 30.07-22.1 52.58l-.31 4.52c-12.44-.86-24.15-1.78-35.1-2.72-11.99-1.03-23.06-2.1-33.14-3.15l.38-3.73c12.54-22.23 17.46-38.5 30.27-55.5z" fill="#c8c8c8"/><path d="m295.9 290.58c7.74-22.51 12.55-34.99 22.1-52.58l.32-4.73c9.09.61 18.2 1.14 27.07 1.55 4.06.19 8.07.35 12 .49 7.68.26 14.57.47 20.71.62l-.1 4.07c-6.17 16.54-11.43 34.94-17.23 55.36l-.1 3.04c-11.18-.34-23.63-.84-37.18-1.57-3.56-.19-7.21-.4-10.93-.63-5.8-.35-11.45-.72-16.97-1.1z" fill="#c8c8c8"/><path d="m200.29 286.18c-26.27-3.17-41.38-5.71-43.16-6.02 14.68-21.1 31.8-40.36 50.95-57.38l3.28.69s19.49 2.27 46.79 4.87l-.15 1.66c-12.81 17-17.73 33.27-30.27 55.5l-.38 3.73c-10.02-1.05-19.06-2.08-27.06-3.05z" fill="#c8c8c8"/><path d="m281.93 230.48c-8.35-.71-16.35-1.44-23.78-2.14-27.3-2.6-46.79-4.87-46.79-4.87l-3.28-.69c23.05-20.5 49.05-37.74 77.27-51.02 3.95.49 16.89 2.07 34.18 3.89l-.2 1.31c-10.48 13.09-22.99 26.74-37.38 53.26z" fill="#c8c8c8"/><path d="m577 503.61c-1.98.109-3.96.21-5.97.31-1.2.061-2.41.12-3.63.18-8.601.41-17.07.79-25.341 1.16l-4.059-3.26c1.74-29.21-1.12-39.03-2-68l-.2-3.51c12.16-.71 25.24-1.53 39.21-2.5 14.16-.971 27.851-2.12 40.86-3.36l.13 1.37c1.94 25.93 2.86 38.75 2 70l.41 4.57c-13.02 1.19-26.86 2.23-41.41 3.04z" fill="#c8c8c8"/><path d="m692.17 415.57c-20.35 2.89-46.58 6.22-76.3 9.06-13.01 1.24-26.7 2.39-40.86 3.36-13.97.97-27.05 1.79-39.21 2.5-11.25.649-21.71 1.21-31.359 1.68l-.23-4.77c-.69-22.891-2.3-45.28-4.97-66.51l-.04-1.77c5.7-.16 11.79-.32 18.3-.48 17.77-.45 34.31-1.05 49.64-1.75 11.88-.54 23.03-1.15 33.45-1.79 30.28-1.87 54.46-4.07 72.67-6.05l-.3-2.85c-7.75-21.25-17.46-41.47-27.96-60.16 27.41-3.31 42.66-5.93 43.32-6.05 26.22 37.6 44.67 81.03 53.04 127.97l-4.82.58s-15.21 2.82-40.51 6.47c-1.261.19-2.551.37-3.861.56z" fill="#c8c8c8"/><path d="m696.52 418.41c2.2 23.92 2.131 39.52-.52 67.59l.76 4.51c-11.979 2.01-25.899 4.101-41.54 6.07-11.39 1.43-23.689 2.79-36.81 3.99l-.41-4.57c.86-31.25-.06-44.07-2-70l-.13-1.37c29.72-2.84 55.95-6.17 76.3-9.06 1.311-.19 2.6-.37 3.86-.56z" fill="#c8c8c8"/><path d="m538 502 4.06 3.26c8.271-.37 16.74-.75 25.341-1.16 1.22-.06 2.43-.119 3.63-.18l.04.89c-31.07 3.421-72.16 4.671-103.25 5.091 1.04-26.631-1.23-46.7-1.82-73.9l-4.93-1.77c3.17-.171 6.51-.381 10.02-.631 9.72-.35 20.851-.819 33.351-1.43 9.649-.47 20.109-1.03 31.359-1.68l.199 3.51c.88 28.97 3.74 38.79 2 68z" fill="#c8c8c8"/><path d="m222 424.04c-26.67-2.66-50.24-5.68-68.88-8.33-3.88-.55-7.55-1.09-10.98-1.6-21-3.13-33.39-5.43-33.39-5.43l-4.54-.72c8.36-46.86 26.77-90.24 52.92-127.8 1.78.31 16.89 2.85 43.16 6.02-10.5 18.69-20.21 38.91-27.96 60.17l-.3 2.84c9.12 1 19.74 2.04 31.88 3.07 11.81 1.01 25.06 2 39.76 2.91 10.72.67 22.21 1.3 34.49 1.86 15.32.7 31.86 1.3 49.63 1.75 6.51.16 12.6.32 18.3.48l-.04 1.77c-2.67 21.23-4.28 43.62-4.97 66.51l-.23 4.77c-10.02-.489-20.91-1.069-32.65-1.75-11.79-.699-24.44-1.5-37.92-2.43-16.87-1.16-33.08-2.57-48.28-4.09z" fill="#c8c8c8"/><path d="m141.77 485.52c-2.39-26.649-1.9-43.77.24-66.97l.13-4.44c3.43.51 7.1 1.05 10.98 1.6 18.64 2.65 42.21 5.67 68.88 8.33-1.94 25.9-4.86 40.729-4 71.96l-.38 3.83c-9.69-.97-18.88-2.021-27.55-3.1-18.99-2.391-35.45-4.971-48.97-7.36z" fill="#c8c8c8"/><path d="m310 504c-1.74-29.21-2.88-41.03-2-70l.2-3.44c11.74.681 22.63 1.261 32.65 1.75 12.5.61 23.63 1.08 33.35 1.431-.61 27.529 2.65 43.16 3.8 70.26l-.18 5.34c-17.81-.59-39.37-1.64-61.73-3.43-.04 0-.08 0-.11-.01-2.03-.17-4.06-.341-6.1-.521z" fill="#c8c8c8"/><path d="m308 434c-.88 28.97.26 40.79 2 70l-.12 1.38c2.04.18 4.07.351 6.1.521-8.81-.391-29.76-1.261-38.09-1.65-3.23-.15-6.43-.32-9.6-.49-18.06-1-35-2.359-50.67-3.93l.38-3.831c-.86-31.23 2.06-46.06 4-71.96 15.2 1.52 31.41 2.93 48.28 4.09 13.48.93 26.13 1.73 37.92 2.43z" fill="#c8c8c8"/><path d="m600.59 355.1c-2.95-13.98-6.63-28.79-11.2-44.94-1.899-6.75-5.189-7.76-7.39-14.16l-.29-3.5c13.19-1.11 25.29-2.27 36.23-3.41 10.02-1.05 19.06-2.08 27.06-3.05 10.5 18.69 20.21 38.91 27.96 60.16l.3 2.85c-18.21 1.98-42.39 4.18-72.67 6.05z" fill="#c8c8c8"/><path d="m563.25 229.92c5.83-.55 11.5-1.11 16.94-1.67 12.329 16.53 25.359 35.81 37.369 57.11l.381 3.73c-10.94 1.14-23.04 2.3-36.23 3.41-10.05.86-20.729 1.68-32 2.45l-.31-4.52c-7.74-22.51-13.851-36.84-23.4-54.43l-.21-2.93c12.67-.91 25.39-2 37.46-3.15z" fill="#c8c8c8"/><path d="m567.14 356.89c-15.33.7-31.87 1.3-49.64 1.75-6.51.16-12.6.32-18.3.48-13.01.36-23.95.69-33.12 1l-.08-2.12c-1.56-23.18-3.77-33.03-6-54l-.08-5.22c8.34-.1 17.93-.3 28.62-.65 10.14-.33 21.27-.8 33.26-1.44 3.57-.19 7.21-.4 10.931-.63 5.8-.35 11.46-.72 16.979-1.11 11.271-.77 21.95-1.59 32-2.45l.29 3.5c2.2 6.4 5.49 7.41 7.39 14.16 4.57 16.15 8.25 30.96 11.2 44.94-10.42.64-21.57 1.25-33.45 1.79zm-44.28-51.24c1.66 5.85-1.58-6.15 0 0z" fill="#c8c8c8"/><path d="m568.55 650.93c-8.229 26.511-18.41 51.811-29.609 73.221l.22 1.8c-13.851 1.67-29.01 3.109-45.4 4.13-4.96.31-10.029.58-15.21.81l-.25-5.3c6.771-19.89 13.84-43.7 19.76-70.28l-.13-2.89c26.42-1.2 49.771-2.76 70.36-4.52z" fill="#c8c8c8"/><path d="m422.51 654.78v-.141c11.66-.18 22.87-.42 33.66-.72 14.7-.4 28.61-.91 41.76-1.5l.13 2.89c-5.92 26.58-12.989 50.391-19.76 70.28l.25 5.3c-17.43.78-36.14 1.07-56.04.71v.141c-2.87.05-5.72.09-8.53.109-16.64.16-32.39-.159-47.23-.819l.25-5.3c-6.78-19.881-13.85-43.7-19.77-70.28l.13-2.891c13.97.631 28.8 1.171 44.53 1.58 9.85.261 20.05.481 30.62.641z" fill="#c8c8c8"/><path d="m367 725.73-.25 5.3c-3.61-.16-7.16-.34-10.66-.54-18.15-1.03-34.83-2.57-49.95-4.4l.22-1.79c-11.21-21.42-21.38-46.72-29.62-73.229l.26-3.03c20.59 1.76 43.94 3.32 70.36 4.52l-.13 2.891c5.92 26.578 12.99 50.398 19.77 70.278z" fill="#c8c8c8"/><path d="m294.8 577.82c47.26 3.05 71.85 4.55 87.42 5.21 2.5 28.359 6.6 42.37 9.78 66.97l-.11 4.14c-15.73-.409-30.56-.949-44.53-1.58-26.42-1.199-49.77-2.76-70.36-4.52-8.98-.771-17.43-1.58-25.38-2.42l.38-3.62c-8.23-26.49-12.54-39.82-16-66l.31-3.34c11.32 1.26 23.2 2.43 35.52 3.46 7.5.62 15.16 1.2 22.97 1.7z" fill="#c8c8c8"/><path d="m272.27 570.71-.44 5.41c-12.32-1.03-24.2-2.2-35.52-3.46-12.22-1.36-23.81-2.82-34.6-4.311l.01-.069c-5.65-23.681-9.55-47.641-11.74-70.811l.09-.739c8.67 1.079 17.86 2.13 27.55 3.1 15.67 1.57 32.61 2.93 50.67 3.93.31 10.79.7 22.16 1.14 34.32.38 10.45 1.35 21.4 2.84 32.63z" fill="#c8c8c8"/><path d="m189.11 637.02c1.64.29 3.34.591 5.07.881 3.65.619 7.52 1.25 11.6 1.869l-.3 1.961c11.72 27.189 26.23 52.25 43.66 73.199l-.38 1.78c-23.98-5.06-38.85-9.83-43.62-11.44-25.23-22.97-46.81-49.89-63.79-79.77 5.71 2.05 20.08 6.55 47.31 11.44.15.03.3.05.45.08z" fill="#c8c8c8"/><path d="m167.89 568.28.81-4.91c9.9 1.62 20.97 3.32 33.01 4.979 10.79 1.49 22.38 2.95 34.6 4.311l-.31 3.34c3.46 26.18 7.77 39.51 16 66l-.38 3.62c-17.67-1.86-32.86-3.851-45.84-5.851-4.08-.619-7.95-1.25-11.6-1.869-1.73-.29-3.43-.591-5.07-.881l.89-5.019c-10.06-23.34-16.11-38.51-22.11-63.72z" fill="#c8c8c8"/><path d="m115.51 553.3s20.09 4.641 53.19 10.07l-.81 4.91c6 25.21 12.05 40.38 22.11 63.72l-.89 5.02c-.15-.029-.3-.05-.45-.079-27.23-4.891-41.6-9.391-47.31-11.44-12.67-22.28-22.77-46.22-29.91-71.41z" fill="#c8c8c8"/><path d="m251.62 645.62c7.95.84 16.4 1.649 25.38 2.42l-.26 3.03c8.24 26.51 18.41 51.81 29.62 73.229l-.22 1.79c-6.99-.84-13.64-1.75-19.95-2.68-14.23-2.12-26.74-4.44-37.43-6.7l.38-1.78c-17.43-20.949-31.94-46.01-43.66-73.199l.3-1.961c12.98 2.001 28.17 3.991 45.84 5.851z" fill="#c8c8c8"/><path d="m422.71 582.79c.28.01.55.01.82.02v.091c-16.8.46-22.38.92-41.31.13-15.57-.66-40.16-2.16-87.42-5.21-7.81-.5-15.47-1.08-22.97-1.7l.44-5.41c-1.49-11.229-2.46-22.18-2.84-32.63-.44-12.16-.83-23.53-1.14-34.32 3.17.17 6.37.34 9.6.49 8.33.39 29.28 1.26 38.09 1.65.03.01.07.01.11.01 22.36 1.79 43.92 2.84 61.73 3.43 18.68.641 33.24.79 40.3.82l-.01.83c1.03 24.319 2.64 48.18 4.62 71.069z" fill="#c8c8c8"/><path d="m423.53 582.9v-.091c15.451.44 21.291.851 39.541.08-2.441 28.321-3.891 40.511-7.071 65.111l.17 5.92c-10.79.3-22 .54-33.66.72v.141c-10.57-.16-20.77-.38-30.62-.641l.11-4.14c-3.18-24.6-7.28-38.61-9.78-66.97 18.93.79 24.51.33 41.31-.13z" fill="#c8c8c8"/><path d="m463.07 582.89c-18.25.771-24.09.36-39.541-.08-.27-.01-.54-.01-.82-.02l.02-.73c-1.98-22.89-3.59-46.75-4.62-71.069l.01-.83c2.3.01 3.8.01 4.39.01v-.15s19.101.23 45.311-.119c31.09-.42 72.18-1.67 103.25-5.091l-.04-.89c2.01-.1 3.989-.2 5.97-.31-.3 10.779-.7 22.17-1.14 34.33-.38 10.449-1.351 21.399-2.83 32.619l.439 5.421c-7.5.619-15.17 1.199-22.979 1.699-47.26 3.05-71.85 4.55-87.42 5.21z" fill="#c8c8c8"/><path d="m639.51 639.63.3 1.96c-11.72 27.18-26.229 52.25-43.659 73.19l.46 1.77c-10.71 2.271-23.24 4.59-37.511 6.71-6.31.94-12.96 1.851-19.939 2.69l-.22-1.8c11.199-21.41 21.38-46.71 29.609-73.221l-.26-3.029c8.42-.721 16.37-1.48 23.88-2.261 18.31-1.909 33.99-3.959 47.34-6.009z" fill="#c8c8c8"/><path d="m656.63 636.81c-.58.101-1.16.2-1.75.301l-.88-5.111c10.06-23.34 17.4-38.66 23.41-63.86l-.811-4.909v-.011c28.011-4.58 46.7-8.609 51.78-9.75l5.75.62c-7.1 25.07-17.149 48.9-29.74 71.101-5.369 1.959-19.769 6.579-47.759 11.619z" fill="#c8c8c8"/><path d="m654.88 637.11c.59-.101 1.17-.2 1.75-.301 27.99-5.04 42.39-9.659 47.76-11.619-16.899 29.84-38.409 56.729-63.55 79.699-3.84 1.33-18.979 6.33-44.229 11.66l-.46-1.77c17.43-20.94 31.939-46.011 43.659-73.19l-.3-1.96c4.08-.62 7.95-1.25 11.601-1.87 1.279-.219 2.539-.429 3.769-.649z" fill="#c8c8c8"/><path d="m746.41 465.34c0 5.11-.12 10.19-.36 15.24-3.47.88-20.93 5.16-49.29 9.93l-.76-4.51c2.65-28.07 2.72-43.67.52-67.59l-.489-3.4c25.3-3.65 40.51-6.47 40.51-6.47l4.82-.58c3.319 18.62 5.049 37.8 5.049 57.38z" fill="#c8c8c8"/><path d="m728.38 553.47c-5.08 1.141-23.77 5.17-51.78 9.75v.011c-9.899 1.619-20.97 3.319-33.01 4.979l-.01-.07c5.64-23.689 9.54-47.649 11.729-70.819l-.09-.74c15.641-1.97 29.561-4.061 41.54-6.07 28.36-4.77 45.82-9.05 49.29-9.93-1.16 25.38-5.25 49.99-11.92 73.51z" fill="#c8c8c8"/><path d="m645 286.04c-8 .97-17.04 2-27.06 3.05l-.381-3.73c-12.01-21.3-25.04-40.58-37.369-57.11 30.96-3.17 54.5-6.24 56.18-6.46 19.56 17.21 37.02 36.76 51.95 58.2-.66.12-15.91 2.74-43.32 6.05z" fill="#c8c8c8"/><path d="m596.61 716.55c25.25-5.33 40.39-10.33 44.229-11.66-31.95 29.221-69.78 52.101-111.49 66.66l-.85-2.46c10.63-10.92 21.07-26.479 30.73-44.939l-.131-.891c14.272-2.12 26.802-4.44 37.512-6.71z" fill="#c8c8c8"/><path d="m580.19 228.25c-5.44.56-11.11 1.12-16.94 1.67-12.41-22.87-25.16-41.24-35.16-54.24 16.83-1.6 29.351-2.95 33.25-3.38 27.34 12.98 52.561 29.69 75.03 49.49-1.68.22-25.22 3.29-56.18 6.46z" fill="#c8c8c8"/><path d="m549.4 290.43.31 4.52c-5.52.39-11.18.76-16.979 1.11-3.721.23-7.36.44-10.931.63-11.99.64-23.12 1.11-33.26 1.44l-.07-1.93c-5.8-20.41-6.939-41.18-18.47-56.2l-.12-4.28c5.45-.15 11.44-.33 18.021-.55 3.96-.14 8.01-.31 12.119-.51 8.421-.41 17.08-.96 25.771-1.59l.209 2.93c9.55 17.59 15.66 31.92 23.4 54.43z" fill="#c8c8c8"/><path d="m522.86 305.65c-1.58-6.15 1.66 5.85 0 0z" fill="#c8c8c8"/><path d="m504.21 427.4.23 4.77c-12.5.61-23.631 1.08-33.351 1.43-3.51.25-6.85.46-10.02.631-18.301.979-31.04.689-37.45.399l.3-5.93c.49-22.28 1.53-44.2 2.94-65.4l-.101-1.57c5.8-.32 17.601-.88 39.32-1.61 9.17-.31 20.11-.64 33.12-1l.04 1.77c2.672 21.23 4.282 43.62 4.972 66.51z" fill="#c8c8c8"/><path d="m454.07 236.55v-.49c4.66-.07 9.91-.18 15.81-.34l.12 4.28c11.53 15.02 12.67 35.79 18.47 56.2l.07 1.93c-10.69.35-20.28.55-28.62.65-16.59.21-28.26.04-33.78-.08l.04-2.01c-2.53-23.82-4.939-40.77-7.729-60.22 5.029.06 19.609.23 35.619.08z" fill="#c8c8c8"/><path d="m422.42 434.9v-.33c.37.02.77.04 1.2.06 6.41.29 19.149.58 37.45-.399l4.93 1.769c.59 27.2 2.86 47.27 1.82 73.9-26.21.35-45.311.119-45.311.119v.15c-.59 0-2.09 0-4.39-.01-7.06-.03-21.62-.18-40.3-.82l.181-5.339c-1.15-27.1-4.41-42.73-3.8-70.26 30.28 1.11 46.87 1.16 48.22 1.16z" fill="#c8c8c8"/><path d="m322.43 305.79c1.58-6.15-1.66 5.85 0 0zm-44.27 51.24c-12.28-.56-23.77-1.19-34.49-1.86l.33-5.17c2.99-14.29 7.23-23.15 11.9-39.7 1.91-6.75 1.9-5.91 4.1-12.3l.49-5.62c10.95.94 22.66 1.86 35.1 2.72 5.52.38 11.17.75 16.97 1.1 3.72.23 7.37.44 10.93.63 13.55.73 26 1.23 37.18 1.57 38.77 1.16 62.11.35 62.11.35v-.14c.48.01 1.62.05 3.36.09 5.521.12 17.19.29 33.78.08l.08 5.22c2.23 20.97 4.44 30.82 6 54l.08 2.12c-21.72.73-33.521 1.29-39.32 1.61-3.5.2-4.82.3-4.82.3v.04c-4.92-.31-23.94-1.38-75.85-2.81-5.7-.16-11.79-.32-18.3-.48-17.77-.45-34.31-1.05-49.63-1.75z" fill="#c8c8c8"/><path d="m422.42 434.57v.33c-1.35 0-17.94-.051-48.22-1.16-9.72-.351-20.85-.82-33.35-1.431l.23-4.77c.69-22.89 2.3-45.28 4.97-66.51l.04-1.77c51.91 1.43 70.93 2.5 75.85 2.81v-.04s1.32-.1 4.82-.3l.101 1.57c-1.41 21.2-2.45 43.12-2.94 65.4l-.3 5.93c-.431-.019-.831-.039-1.201-.059z" fill="#c8c8c8"/><path d="m422.78 298.61v.14s-23.34.81-62.11-.35l.1-3.04c5.8-20.42 11.06-38.82 17.23-55.36l.1-4.07c4.82.13 9.18.22 13.12.28 13.95.23 22.56.16 27.2.07.01.06.02.13.03.19 2.79 19.45 5.2 36.4 7.729 60.22l-.04 2.01c-1.739-.04-2.879-.08-3.359-.09z" fill="#c8c8c8"/><path d="m322.43 305.79c-1.66 5.85 1.58-6.15 0 0z" fill="#c8c8c8"/><path d="m316.79 769.24-.77 2.24c-41.46-14.511-79.06-37.23-110.88-66.211 4.77 1.61 19.64 6.381 43.62 11.44 10.69 2.26 23.2 4.58 37.43 6.7l-.13.89c9.66 18.451 20.1 34.011 30.73 44.941z" fill="#c8c8c8"/><path d="m203.91 352.26c-12.14-1.03-22.76-2.07-31.88-3.07l.3-2.84c7.75-21.26 17.46-41.48 27.96-60.17 8 .97 17.04 2 27.06 3.05 10.08 1.05 21.15 2.12 33.14 3.15l-.49 5.62c-2.2 6.39-2.19 5.55-4.1 12.3-4.67 16.55-8.91 25.41-11.9 39.7l-.33 5.17c-14.7-.91-27.95-1.9-39.76-2.91z" fill="#c8c8c8"/><path d="m201.72 568.28-.01.069c-12.04-1.659-23.11-3.359-33.01-4.979-33.1-5.43-53.19-10.07-53.19-10.07l-4.07.79c-6.65-23.45-10.73-47.99-11.91-73.29 3.69.931 18.26 4.46 41.57 8.57 13.52 2.39 29.98 4.97 48.97 7.36l-.09.739c2.19 23.171 6.09 47.131 11.74 70.811z" fill="#c8c8c8"/><path d="m142.14 414.11-.13 4.44c-2.14 23.2-2.63 40.32-.24 66.97l-.67 3.851c-23.31-4.11-37.88-7.64-41.57-8.57-.25-5.12-.37-10.28-.37-15.46 0-19.58 1.73-38.76 5.05-57.38l4.54.72c0-.001 12.39 2.299 33.39 5.429z" fill="#c8c8c8"/><g fill="none"><path d="m741.36 407.96c3.319 18.62 5.05 37.8 5.05 57.38 0 5.11-.12 10.19-.36 15.24-1.16 25.38-5.25 49.99-11.92 73.51-7.1 25.07-17.149 48.9-29.74 71.101-16.899 29.84-38.409 56.729-63.55 79.699-31.95 29.221-69.78 52.101-111.49 66.66-17.63 6.16-35.949 10.83-54.81 13.86-16.13 2.6-32.66 4.01-49.5 4.109-.75.021-1.5.021-2.25.021-16 0-31.72-1.16-47.1-3.42-20.58-3-40.54-7.94-59.67-14.64-41.46-14.511-79.06-37.23-110.88-66.211-25.23-22.97-46.81-49.89-63.79-79.77-12.67-22.28-22.77-46.22-29.91-71.41-6.65-23.45-10.73-47.99-11.91-73.29-.25-5.12-.37-10.28-.37-15.46 0-19.58 1.73-38.76 5.05-57.38 8.36-46.86 26.77-90.24 52.92-127.8 14.68-21.1 31.8-40.36 50.95-57.38 23.05-20.5 49.05-37.74 77.27-51.02 41.72-19.63 88.3-30.6 137.44-30.6 49.58 0 96.55 11.17 138.55 31.14 27.34 12.98 52.561 29.69 75.03 49.49 19.56 17.21 37.02 36.76 51.95 58.2 26.22 37.601 44.67 81.031 53.04 127.971z" stroke="#231f20" stroke-width="21"/><path d="m129.89 343.56s13.88 2.56 42.14 5.63c9.12 1 19.74 2.04 31.88 3.07 11.81 1.01 25.06 2 39.76 2.91 10.72.67 22.21 1.3 34.49 1.86 15.32.7 31.86 1.3 49.63 1.75 6.51.16 12.6.32 18.3.48 51.91 1.43 70.93 2.5 75.85 2.81.99.07 1.41.1 1.41.1" stroke="#231f20" stroke-width="21"/><path d="m374.2 433.74c30.28 1.109 46.87 1.16 48.22 1.16h.09" stroke="#231f20" stroke-width="21"/><path d="m153.12 415.71c18.64 2.65 42.21 5.67 68.88 8.33 15.2 1.52 31.41 2.93 48.28 4.09 13.48.93 26.13 1.73 37.92 2.43 11.74.681 22.63 1.261 32.65 1.75 12.5.61 23.63 1.08 33.35 1.431" stroke="#231f20" stroke-width="21"/><path d="m108.75 408.68s12.39 2.3 33.39 5.43c3.43.51 7.1 1.05 10.98 1.6" stroke="#231f20" stroke-width="21"/><path d="m316.09 505.91c22.36 1.79 43.92 2.84 61.73 3.43 18.68.641 33.24.79 40.3.82 2.3.01 3.8.01 4.39.01h.28" stroke="#231f20" stroke-width="21"/><path d="m297.62 504.25c4.09.41 8.19.78 12.26 1.13 2.04.18 4.07.351 6.1.521" stroke="#231f20" stroke-width="21"/><path d="m98.6 480.57s.31.08.93.229c3.69.931 18.26 4.46 41.57 8.57 13.52 2.39 29.98 4.97 48.97 7.36 8.67 1.079 17.86 2.13 27.55 3.1 15.67 1.57 32.61 2.93 50.67 3.93 3.17.17 6.37.34 9.6.49 8.33.39 29.28 1.26 38.09 1.65.03.01.07.01.11.01.24.01.48.02.7.03" stroke="#231f20" stroke-width="21"/><path d="m115.51 553.3s20.09 4.641 53.19 10.07c9.9 1.62 20.97 3.32 33.01 4.979 10.79 1.49 22.38 2.95 34.6 4.311 11.32 1.26 23.2 2.43 35.52 3.46 7.5.62 15.16 1.2 22.97 1.7 47.26 3.05 71.85 4.55 87.42 5.21 18.93.79 24.51.33 41.31-.13h.1" stroke="#231f20" stroke-width="21"/><path d="m194.18 637.9c3.65.619 7.52 1.25 11.6 1.869 12.98 2 28.17 3.99 45.84 5.851 7.95.84 16.4 1.649 25.38 2.42 20.59 1.76 43.94 3.32 70.36 4.52 13.97.631 28.8 1.171 44.53 1.58 9.85.261 20.05.48 30.62.641h.28" stroke="#231f20" stroke-width="21"/><path d="m188.66 636.94c.15.029.3.05.45.079 1.64.29 3.34.591 5.07.881" stroke="#231f20" stroke-width="21"/><path d="m138.35 624.34s.93.42 3 1.16c5.71 2.05 20.08 6.55 47.31 11.44" stroke="#231f20" stroke-width="21"/><path d="m323.49 296.83c13.55.73 26 1.23 37.18 1.57 38.77 1.16 62.11.35 62.11.35" stroke="#231f20" stroke-width="21"/><path d="m156.95 280.13s.06.01.18.03c1.78.31 16.89 2.85 43.16 6.02 8 .97 17.04 2 27.06 3.05 10.08 1.05 21.15 2.12 33.14 3.15 10.95.94 22.66 1.86 35.1 2.72 5.52.38 11.17.75 16.97 1.1 3.72.23 7.37.44 10.93.63" stroke="#231f20" stroke-width="21"/><path d="m391.22 236.21c13.95.23 22.56.16 27.2.07 3.04-.05 4.37-.12 4.37-.12" stroke="#231f20" stroke-width="21"/><path d="m211.36 223.47s19.49 2.27 46.79 4.87c7.43.7 15.43 1.43 23.78 2.14 11.67 1 24.01 1.97 36.39 2.79 9.09.61 18.2 1.14 27.07 1.55 4.06.19 8.07.35 12 .49 7.68.26 14.57.47 20.71.62 4.82.13 9.18.22 13.12.28" stroke="#231f20" stroke-width="21"/><path d="m403.11 182.26c6.68.28 13.19.49 19.39.62.1.01.19.01.29.01" stroke="#231f20" stroke-width="21"/><path d="m284.09 171.6s.43.06 1.26.16c3.95.49 16.89 2.07 34.18 3.89 13.65 1.43 30 3.01 46.78 4.33 12.34.96 24.91 1.78 36.8 2.28" stroke="#231f20" stroke-width="21"/><path d="m203.47 704.68s.56.21 1.67.59c4.77 1.61 19.64 6.381 43.62 11.44 10.69 2.26 23.2 4.58 37.43 6.7 6.31.93 12.96 1.84 19.95 2.68 15.12 1.83 31.8 3.37 49.95 4.4 3.5.2 7.05.38 10.66.54 14.84.66 30.59.979 47.23.819 2.81-.02 5.66-.06 8.53-.109h.28" stroke="#231f20" stroke-width="21"/><path d="m227.73 285.5c12.54-22.23 17.46-38.5 30.27-55.5" stroke="#231f20" stroke-width="21"/><path d="m172.33 346.35c7.75-21.26 17.46-41.48 27.96-60.17.13-.23.25-.45.38-.68" stroke="#231f20" stroke-width="21"/><path d="m190.22 410.73c2.74-22.04 6.23-37.95 13.69-58.47.03-.09.06-.17.09-.26" stroke="#231f20" stroke-width="21"/><path d="m142 488c-.08-.84-.15-1.66-.23-2.48-2.39-26.649-1.9-43.77.24-66.97" stroke="#231f20" stroke-width="21"/><path d="m201.72 568.28c-5.65-23.681-9.55-47.641-11.74-70.811" stroke="#231f20" stroke-width="21"/><path d="m190 632c-10.06-23.34-16.11-38.51-22.11-63.72" stroke="#231f20" stroke-width="21"/><path d="m249.14 714.93c-17.43-20.949-31.94-46.01-43.66-73.199" stroke="#231f20" stroke-width="21"/><path d="m286.06 724.3c9.66 18.45 20.1 34.01 30.73 44.94" stroke="#231f20" stroke-width="21"/><path d="m276.74 651.07c8.24 26.51 18.41 51.81 29.62 73.229" stroke="#231f20" stroke-width="21"/><path d="m236 576c3.46 26.18 7.77 39.51 16 66" stroke="#231f20" stroke-width="21"/><path d="m268.27 503.12c.01.21.01.42.02.64.31 10.79.7 22.16 1.14 34.32.38 10.45 1.35 21.4 2.84 32.63" stroke="#231f20" stroke-width="21"/><path d="m222 424v.04c-1.94 25.9-4.86 40.729-4 71.96" stroke="#231f20" stroke-width="21"/><path d="m278.32 356.27c-.05.25-.11.51-.16.76-4.59 22.12-7.36 42.24-8.88 62.61" stroke="#231f20" stroke-width="21"/><path d="m260 298c-2.2 6.39-2.19 5.55-4.1 12.3-4.67 16.55-8.91 25.41-11.9 39.7" stroke="#231f20" stroke-width="21"/><path d="m318 238c-9.55 17.59-14.36 30.07-22.1 52.58" stroke="#231f20" stroke-width="21"/><path d="m319.33 176.96c-10.48 13.09-22.99 26.74-37.38 53.26" stroke="#231f20" stroke-width="21"/><path d="m356 732c14.91 43.75 12.92 39.02 20 52" stroke="#231f20" stroke-width="21"/><path d="m347.23 655.45c5.92 26.58 12.99 50.399 19.77 70.28" stroke="#231f20" stroke-width="21"/><path d="m315 584.25c1.55 12.42 3.28 24.51 5.17 36.14 1.98 12.12 1.34 14.391 3.83 25.61" stroke="#231f20" stroke-width="21"/><path d="m342.53 515.49c1.4 23.51.72 36.41 3.47 58.51" stroke="#231f20" stroke-width="21"/><path d="m308 434c-.88 28.97.26 40.79 2 70" stroke="#231f20" stroke-width="21"/><path d="m346.05 361.03c-2.67 21.23-4.28 43.62-4.97 66.51" stroke="#231f20" stroke-width="21"/><path d="m322.43 305.79c-4.38 17.07-7.97 28.63-10.43 48.21" stroke="#231f20" stroke-width="21"/><path d="m322.43 305.79c-1.66 5.85 1.58-6.15 0 0z" stroke="#231f20" stroke-width="21"/><path d="m378 240c-6.17 16.54-11.43 34.94-17.23 55.36" stroke="#231f20" stroke-width="21"/><path d="m366 184c-6.97 14.5-12 25.55-20.49 48.27" stroke="#231f20" stroke-width="21"/><path d="m414 734c5.99 36.79 10.83 54.77 11.04 55.52v.021" stroke="#231f20" stroke-width="21"/><path d="m418.01 663.43c3.2 24.75 6.54 46.94 9.57 65.551" stroke="#231f20" stroke-width="21"/><path d="m382.13 582.06c.03.33.06.65.09.971 2.5 28.359 6.6 42.37 9.78 66.97" stroke="#231f20" stroke-width="21"/><path d="m418.11 510.99c1.03 24.319 2.64 48.18 4.62 71.069" stroke="#231f20" stroke-width="21"/><path d="m374.2 433.74c-.61 27.529 2.65 43.16 3.8 70.26" stroke="#231f20" stroke-width="21"/><path d="m426.86 363.3c-1.41 21.2-2.45 43.12-2.94 65.4" stroke="#231f20" stroke-width="21"/><path d="m388 302c-2.23 20.97-6.45 28.82-8 52" stroke="#231f20" stroke-width="21"/><path d="m400 188c-2.48 14.26-3.45 21.74-6.37 42.12" stroke="#231f20" stroke-width="21"/><path d="m715.4 343.42s-13.881 2.56-42.141 5.63c-18.21 1.98-42.39 4.18-72.67 6.05-10.42.64-21.57 1.25-33.45 1.79-15.33.7-31.87 1.3-49.64 1.75-6.51.16-12.6.32-18.3.48-13.01.36-23.95.69-33.12 1-21.72.73-33.521 1.29-39.32 1.61-3.5.2-4.82.3-4.82.3" stroke="#231f20" stroke-width="21"/><path d="m471.09 433.6c-3.51.25-6.85.46-10.02.631-18.301.979-31.04.689-37.45.399-.43-.02-.83-.04-1.2-.06-2.37-.13-3.58-.24-3.58-.24" stroke="#231f20" stroke-width="21"/><path d="m692.17 415.57c-20.35 2.89-46.58 6.22-76.3 9.06-13.01 1.24-26.7 2.39-40.86 3.36-13.97.97-27.05 1.79-39.21 2.5-11.25.649-21.71 1.21-31.359 1.68-12.5.61-23.631 1.08-33.351 1.43" stroke="#231f20" stroke-width="21"/><path d="m736.54 408.54s-15.21 2.82-40.51 6.47c-1.261.19-2.55.37-3.86.56" stroke="#231f20" stroke-width="21"/><path d="m571.07 504.81c-31.07 3.421-72.16 4.671-103.25 5.091-26.21.35-45.311.119-45.311.119" stroke="#231f20" stroke-width="21"/><path d="m746.69 480.42s-.221.061-.641.16c-3.47.88-20.93 5.16-49.29 9.93-11.979 2.01-25.899 4.101-41.54 6.07-11.39 1.43-23.689 2.79-36.81 3.99-13.021 1.189-26.86 2.229-41.41 3.04-1.98.109-3.96.21-5.97.31-1.2.061-2.41.12-3.63.18-8.601.41-17.07.79-25.341 1.16" stroke="#231f20" stroke-width="21"/><path d="m729.78 553.16s-.471.109-1.4.31c-5.08 1.141-23.77 5.17-51.78 9.75v.011c-9.899 1.619-20.97 3.319-33.01 4.979-12.399 1.71-25.84 3.38-40.109 4.91-9.641 1.03-19.671 2-30.011 2.86-7.5.619-15.17 1.199-22.979 1.699-47.26 3.051-71.851 4.551-87.42 5.21-18.25.771-24.09.36-39.541-.08-.27-.01-.54-.01-.82-.02-.35-.01-.7-.021-1.05-.03" stroke="#231f20" stroke-width="21"/><path d="m651.11 637.76c-3.65.62-7.521 1.25-11.601 1.87-13.35 2.05-29.029 4.101-47.34 6.01-7.51.78-15.46 1.54-23.88 2.261-20.59 1.76-43.94 3.319-70.36 4.52-13.149.59-27.06 1.1-41.76 1.5-10.79.3-22 .54-33.66.72" stroke="#231f20" stroke-width="21"/><path d="m656.63 636.81c-.58.101-1.16.2-1.75.301-1.229.22-2.49.43-3.77.649" stroke="#231f20" stroke-width="21"/><path d="m706.94 624.2s-.801.359-2.551.99c-5.37 1.96-19.77 6.579-47.76 11.619" stroke="#231f20" stroke-width="21"/><path d="m521.8 296.69c-11.99.64-23.12 1.11-33.26 1.44-10.69.35-20.28.55-28.62.65-16.59.21-28.26.04-33.78-.08-1.74-.04-2.88-.08-3.36-.09-.18-.01-.27-.01-.27-.01" stroke="#231f20" stroke-width="21"/><path d="m688.34 279.99s-.01 0-.02 0c-.66.12-15.91 2.74-43.32 6.05-8 .97-17.04 2-27.06 3.05-10.94 1.14-23.04 2.3-36.23 3.41-10.05.86-20.729 1.68-32 2.45-5.52.39-11.18.76-16.979 1.11-3.721.23-7.36.44-10.931.63" stroke="#231f20" stroke-width="21"/><path d="m462.82 236.44c-2.931.05-5.86.09-8.75.11-16.011.15-30.59-.02-35.62-.08-1.2-.02-1.86-.03-1.86-.03" stroke="#231f20" stroke-width="21"/><path d="m636.47 221.78s-.029 0-.1.01c-1.68.22-25.22 3.29-56.18 6.46-5.44.56-11.11 1.12-16.94 1.67-12.07 1.15-24.79 2.24-37.46 3.15-8.69.63-17.35 1.18-25.771 1.59-4.109.2-8.159.37-12.119.51-6.58.22-12.57.4-18.021.55-5.899.16-11.149.27-15.81.34" stroke="#231f20" stroke-width="21"/><path d="m562.62 172.16s-.44.05-1.28.14c-3.899.43-16.42 1.78-33.25 3.38-14.479 1.37-32.14 2.93-50.24 4.24-19.04 1.38-38.56 2.49-55.35 2.82" stroke="#231f20" stroke-width="21"/><path d="m641.82 704.54s-.33.12-.98.35c-3.84 1.33-18.979 6.33-44.229 11.66-10.71 2.271-23.24 4.59-37.511 6.71-6.31.94-12.96 1.851-19.939 2.69-13.851 1.67-29.01 3.109-45.4 4.13-4.96.31-10.029.58-15.21.81-17.43.78-36.14 1.07-56.04.71" stroke="#231f20" stroke-width="21"/><path d="m617.56 285.36c-12.01-21.3-25.04-40.58-37.369-57.11-.54-.73-1.08-1.45-1.62-2.16" stroke="#231f20" stroke-width="21"/><path d="m672.96 346.2c-7.75-21.25-17.46-41.47-27.96-60.16-.13-.23-.25-.45-.38-.68" stroke="#231f20" stroke-width="21"/><path d="m655.07 410.59c-2.76-22.13-7.55-35.94-15.07-56.59" stroke="#231f20" stroke-width="21"/><path d="m696 486c2.65-28.07 2.72-43.67.52-67.59" stroke="#231f20" stroke-width="21"/><path d="m643.58 568.14c5.64-23.689 9.54-47.649 11.729-70.819" stroke="#231f20" stroke-width="21"/><path d="m654 632c10.06-23.34 17.4-38.66 23.41-63.86" stroke="#231f20" stroke-width="21"/><path d="m596.15 714.78c17.43-20.94 31.939-46.011 43.659-73.19" stroke="#231f20" stroke-width="21"/><path d="m559.23 724.15c-9.66 18.46-20.101 34.02-30.73 44.939" stroke="#231f20" stroke-width="21"/><path d="m568.55 650.93c-8.229 26.511-18.41 51.811-29.609 73.221" stroke="#231f20" stroke-width="21"/><path d="m604 578c-3.47 26.19-3.76 39.51-12 66" stroke="#231f20" stroke-width="21"/><path d="m577.02 502.98c-.01.21-.01.42-.02.63-.3 10.779-.7 22.17-1.14 34.33-.38 10.449-1.351 21.399-2.83 32.619" stroke="#231f20" stroke-width="21"/><path d="m616 426c1.94 25.93 2.86 38.75 2 70" stroke="#231f20" stroke-width="21"/><path d="m566.98 356.13c.05.25.109.51.159.76 4.591 22.11 7.351 42.24 8.88 62.6" stroke="#231f20" stroke-width="21"/><path d="m582 296c2.2 6.4 5.49 7.41 7.39 14.16 4.57 16.15 8.25 30.96 11.2 44.94.08.35.15.69.22 1.03" stroke="#231f20" stroke-width="21"/><path d="m526 236c9.55 17.59 15.66 31.92 23.4 54.43" stroke="#231f20" stroke-width="21"/><path d="m526.49 173.6c.529.68 1.06 1.37 1.6 2.08 10 13 22.75 31.37 35.16 54.24.03.05.06.11.09.16" stroke="#231f20" stroke-width="21"/><path d="m494 734c-13.25 38.87-20 48-20 48" stroke="#231f20" stroke-width="21"/><path d="m498.06 655.31c-5.92 26.58-12.989 50.391-19.76 70.28" stroke="#231f20" stroke-width="21"/><path d="m530.29 584.11c-1.54 12.42-3.28 24.51-5.18 36.14-1.96 12.12-.61 12.53-3.11 23.75" stroke="#231f20" stroke-width="21"/><path d="m502.77 515.34c-1.4 23.52-2.03 38.56-4.77 60.66" stroke="#231f20" stroke-width="21"/><path d="m536 434c.88 28.97 3.74 38.79 2 68" stroke="#231f20" stroke-width="21"/><path d="m499.24 360.89c2.67 21.23 4.279 43.62 4.97 66.51" stroke="#231f20" stroke-width="21"/><path d="m522.86 305.65c4.38 17.07 4.68 26.77 7.14 46.35" stroke="#231f20" stroke-width="21"/><path d="m522.86 305.65c1.66 5.85-1.58-6.15 0 0z" stroke="#231f20" stroke-width="21"/><path d="m470 240c11.53 15.02 12.67 35.79 18.47 56.2" stroke="#231f20" stroke-width="21"/><path d="m478 182c6.97 14.5 13.29 27.38 21.78 50.13" stroke="#231f20" stroke-width="21"/><path d="m463.16 581.91c-.03.33-.061.66-.09.979-2.44 28.321-3.89 40.511-7.07 65.111" stroke="#231f20" stroke-width="21"/><path d="m466 436c.59 27.2 2.86 47.27 1.82 73.9-.011.31-.03.63-.04.949" stroke="#231f20" stroke-width="21"/><path d="m460 304c2.23 20.97 4.44 30.82 6 54" stroke="#231f20" stroke-width="21"/><path d="m418.28 235.31c.05.32.09.65.14.97.01.06.02.13.03.19 2.79 19.45 5.2 36.4 7.729 60.22" stroke="#231f20" stroke-width="21"/><path d="m444 184c2.47 14.23 4.76 25.71 7.67 45.98" stroke="#231f20" stroke-width="21"/><path d="m421.66 100v4.46 36.7" stroke="#231f20" stroke-width="21"/><path d="m444.21 81.64c0 12.62-9.59 22.85-21.42 22.85-.38 0-.76-.01-1.13-.03-11.31-.63-20.29-10.61-20.29-22.82 0-12.62 9.59-22.85 21.42-22.85s21.42 10.23 21.42 22.85z" stroke="#231f20" stroke-width="21"/><path d="m0 0h850.394v850.394h-850.394z"/></g></svg>