<svg enable-background="new 0 0 850.394 850.394" height="850.394" viewBox="0 0 850.394 850.394" width="850.394" xmlns="http://www.w3.org/2000/svg"><path d="m635.08 702.31-162.44-51.89s25.641-101.5 30.761-137.39c5.13-35.88-5.48-42.181-18-68.05-9.471-19.541-43.07-128.141-43.07-128.141-5.11-44.08 29.74-54.84 47.17-37.42 18.48 18.49 28.7 40.5 32.8 58.95 4.101 18.45 14.36 0 22.57-26.66 8.189-26.65 34.84-120.97 63.54-138.39 28.72-17.44 73.52-22.48 113.8 5.12 55.37 37.93 58.44 112.78 47.17 197.86-11.281 85.101-54.341 136.351-67.661 159.931-13.33 23.58-66.64 166.08-66.64 166.08z" fill="#33a02c"/><path d="m376.1 651.89-162.43 51.9s-53.31-142.5-66.64-166.09c-13.32-23.58-56.39-74.84-67.66-159.93-11.28-85.09-8.2-159.93 47.16-197.86 40.28-27.6 85.09-22.56 113.8-5.13 28.7 17.43 55.35 111.75 63.56 138.4 8.2 26.66 18.45 45.11 22.55 26.66s14.32-40.46 32.81-58.95c17.43-17.43 52.28-6.66 47.16 37.42 0 0-33.59 108.59-43.06 128.14-12.53 25.859-23.13 32.17-18 68.05 5.12 35.89 30.75 137.39 30.75 137.39z" fill="#33a02c"/><g fill="none"><path d="m213.67 703.79s-53.31-142.5-66.64-166.09c-13.32-23.58-56.39-74.84-67.66-159.93-11.28-85.09-8.2-159.93 47.16-197.86 40.28-27.6 85.09-22.56 113.8-5.13 28.7 17.43 55.35 111.75 63.56 138.4 8.2 26.66 18.45 45.11 22.55 26.66s14.32-40.46 32.81-58.95c17.43-17.43 52.28-6.66 47.16 37.42 0 0-33.59 108.59-43.06 128.14-12.53 25.859-23.13 32.17-18 68.05 5.12 35.89 30.75 137.39 30.75 137.39z" stroke="#000" stroke-width="19.5576"/><path d="m200.5 543.59 48.93 146.77" stroke="#000" stroke-width="19.5576"/><path d="m247.07 528.6 49.15 147.46" stroke="#000" stroke-width="19.5576"/><path d="m293.28 510.74 50.11 150.32" stroke="#000" stroke-width="19.5576"/><path d="m635.08 702.31s53.31-142.5 66.64-166.079c13.32-23.58 56.38-74.83 67.66-159.931 11.271-85.08 8.2-159.93-47.17-197.86-40.28-27.6-85.08-22.56-113.8-5.12-28.7 17.42-55.351 111.74-63.54 138.39-8.21 26.66-18.47 45.11-22.57 26.66s-14.319-40.46-32.8-58.95c-17.43-17.42-52.28-6.66-47.17 37.42 0 0 33.6 108.6 43.07 128.141 12.52 25.869 23.13 32.17 18 68.05-5.12 35.89-30.761 137.39-30.761 137.39z" stroke="#000" stroke-width="19.5576"/><path d="m648.24 542.12-48.94 146.83" stroke="#000" stroke-width="19.5576"/><path d="m601.68 527.14-48.9 146.67" stroke="#000" stroke-width="19.5576"/><path d="m555.46 509.27-50.08 150.22" stroke="#000" stroke-width="19.5576"/><path d="m0 0h850.394v850.394h-850.394z"/></g></svg>