<svg enable-background="new 0 0 850.394 850.394" height="850.394" viewBox="0 0 850.394 850.394" width="850.394" xmlns="http://www.w3.org/2000/svg"><path d="m394.89 506.13c0 12.82-2.42 25.07-6.83 36.33h-185.65c-4.42-11.25-6.84-23.5-6.84-36.33 0-55.04 44.62-99.66 99.67-99.66 55.03 0 99.65 44.62 99.65 99.66z" fill="#fbed24"/><g fill="none"><path d="m388.03 542.53c.01-.021.02-.05.03-.07 4.41-11.26 6.83-23.51 6.83-36.33 0-55.04-44.62-99.66-99.65-99.66-55.05 0-99.67 44.62-99.67 99.66 0 12.83 2.42 25.08 6.84 36.33" stroke="#231f20" stroke-width="21"/><path d="m296.01 388.33v-75.81" stroke="#231f20" stroke-width="21"/><path d="m356.48 403.09 41.88-63.2" stroke="#231f20" stroke-width="21"/><path d="m399.89 449.68 68.69-32.1" stroke="#231f20" stroke-width="21"/><path d="m233.38 401.88-41.87-63.2" stroke="#231f20" stroke-width="21"/><path d="m189.97 448.46-68.68-32.1" stroke="#231f20" stroke-width="21"/><path d="m414.01 507.3h75.81" stroke="#231f20" stroke-width="21"/><path d="m101.81 507.3h75.82" stroke="#231f20" stroke-width="21"/><path d="m747.46 542.46h-359.4-185.65-100.87" stroke="#231f20" stroke-width="21"/><path d="m0 0h850.394v850.394h-850.394z"/></g></svg>