<svg enable-background="new 0 0 850.394 850.394" height="850.394" viewBox="0 0 850.394 850.394" width="850.394" xmlns="http://www.w3.org/2000/svg"><path d="m186.43 685.27h-.77v-60.98h1.77 40.81v60.98h-40.81z" fill="#7a7878"/><path d="m350.83 460.53v15.87l-66.37.17h-123.3v-15.86c37.68-5.55 48.52-19.81 48.52-19.81v-42.81-2.81h92.63v2.62 42.8s10.84 14.26 48.52 19.83z" fill="#c8c8c8"/><path d="m447.48 627.83h19.77v24.56h-19.77z" fill="#c8c8c8"/><path d="m448.44 582.98h19.779v24.56h-19.779z" fill="#c8c8c8"/><path d="m410.81 603.04v61.4h-107.28v-32.12l32.93-29.28z" fill="#fff"/><path d="m185.66 685.27v21.31h-35.88v-100.23h35.88v17.94z" fill="#7a7878"/><path d="m270.59 685.45h159.97v-102.42h-159.97zm238.09 18.86v23.37c0 6.62-5.359 11.971-11.97 11.971h-256.51c-6.6 0-11.96-5.351-11.96-11.971v-42.41-60.98-47.71c0-6.61 5.36-11.97 11.96-11.97h247.81 8.7c6.61 0 11.97 5.359 11.97 11.97v30.67zm-40.46-96.77v-24.56h-19.78v24.56zm-.97 44.85v-24.56h-19.77v24.56z" fill="#c8c8c8"/><path d="m567.29 548.64-58.61 58.61v-30.67c0-6.61-5.359-11.97-11.97-11.97h-8.7l46.431-46.44c1.579 7.41 5.439 14.54 11.51 20.23 6.189 5.8 13.699 9.21 21.339 10.24z" fill="#7a7878"/><path d="m430.56 583.03v102.42h-159.97v-102.42zm-19.75 81.41v-61.4h-74.35l-32.93 29.28v32.12z" fill="#c8c8c8"/><path d="m108.8 151.26h295.54v197.93h-295.54z" fill="#7a7878"/><path d="m614.5 350.5v104.19l-79.6-57.29h-52.23v-46.4-44.61h52.23l79.6-57.31z" fill="#f6cc4b"/><path d="m567.29 548.64c-7.64-1.029-15.15-4.439-21.34-10.239-6.07-5.69-9.931-12.82-11.51-20.23-2.33-10.97.35-22.55 8.279-31.03l54.601 51.15c-7.85 8.369-19.06 11.819-30.03 10.349z" fill="#231f20"/><path d="m404.54 363.03c5.21 0 9.42 4.21 9.42 9.41s-4.21 9.42-9.42 9.42c-5.2 0-9.41-4.22-9.41-9.42s4.21-9.41 9.41-9.41z" fill="#231f20"/><path d="m302.31 395.28h-92.63-112.15c-12.73 0-23.05-10.32-23.05-23.05v-230.46c0-12.73 10.32-23.05 23.05-23.05h317.21c12.729 0 23.05 10.32 23.05 23.05v230.46c0 12.73-10.32 23.05-23.05 23.05zm90.39-22.7c0-5.19-4.21-9.41-9.41-9.41-5.21 0-9.42 4.22-9.42 9.41 0 5.21 4.21 9.43 9.42 9.43 5.2 0 9.41-4.22 9.41-9.43zm2.43-.14c0 5.2 4.21 9.42 9.41 9.42 5.21 0 9.42-4.22 9.42-9.42s-4.21-9.41-9.42-9.41c-5.2 0-9.41 4.21-9.41 9.41zm9.21-23.25v-197.93h-295.54v197.93z" fill="#c8c8c8"/><path d="m383.29 363.17c5.2 0 9.41 4.22 9.41 9.41 0 5.21-4.21 9.43-9.41 9.43-5.21 0-9.42-4.22-9.42-9.43 0-5.19 4.21-9.41 9.42-9.41z" fill="#231f20"/><g fill="none"><path d="m209.68 395.28h-112.15c-12.73 0-23.05-10.32-23.05-23.05v-230.46c0-12.73 10.32-23.05 23.05-23.05h317.21c12.729 0 23.05 10.32 23.05 23.05v230.46c0 12.73-10.32 23.05-23.05 23.05h-112.43z" stroke="#231f20" stroke-width="21"/><path d="m108.8 151.26h295.54v197.93h-295.54z" stroke="#231f20" stroke-width="14"/><path d="m302.31 397.9v42.8s10.84 14.26 48.52 19.83v15.87l-66.37.17h-123.3v-15.86c37.68-5.55 48.52-19.81 48.52-19.81v-42.81" stroke="#231f20" stroke-width="21"/><path d="m614.5 454.69-79.6-57.29h-52.23v-46.4-44.61h52.23l79.6-57.31v101.42z" stroke="#231f20" stroke-width="21"/><path d="m667.14 292.23c15.95 13.99 26.23 36 26.23 60.74 0 25.05-10.53 47.26-26.79 61.23" stroke="#231f20" stroke-width="21"/><path d="m727.77 244.73c28.37 24.87 46.66 64.02 46.66 108.07 0 44.53-18.699 84.07-47.63 108.891" stroke="#231f20" stroke-width="21"/><path d="m508.68 704.31v23.37c0 6.62-5.359 11.971-11.97 11.971h-256.51c-6.6 0-11.96-5.351-11.96-11.971v-42.41-60.98-47.71c0-6.61 5.36-11.97 11.96-11.97h247.81 8.7c6.61 0 11.97 5.359 11.97 11.97v30.67z" stroke="#231f20" stroke-width="21"/><path d="m270.59 583.03h159.97v102.42h-159.97z" stroke="#231f20" stroke-width="14"/><path d="m511.51 704.31h-2.83-63.99l-28.23 26.9h-145.87v-45.76" stroke="#231f20" stroke-width="14"/><path d="m448.44 582.98h19.779v24.56h-19.779z" stroke="#231f20" stroke-width="14"/><path d="m447.48 627.83h19.77v24.56h-19.77z" stroke="#231f20" stroke-width="14"/><path d="m303.53 632.32 32.93-29.28h74.35v61.4h-107.28z" stroke="#231f20" stroke-width="14"/><path d="m228.24 624.29h-40.81" stroke="#231f20" stroke-width="21"/><path d="m228.24 685.27h-40.81" stroke="#231f20" stroke-width="21"/><path d="m488.01 564.61 46.43-46.44" stroke="#231f20" stroke-width="21"/><path d="m508.68 607.25 58.61-58.61" stroke="#231f20" stroke-width="21"/><path d="m185.66 685.27v21.31h-35.88v-100.23h35.88v17.94z" stroke="#231f20" stroke-width="21"/><path d="m542.72 487.14c-7.93 8.48-10.609 20.061-8.279 31.03 1.579 7.41 5.439 14.54 11.51 20.23 6.189 5.8 13.7 9.21 21.34 10.239 10.97 1.471 22.18-1.979 30.03-10.35" stroke="#231f20" stroke-width="21"/><path d="m0 0h850.394v850.394h-850.394z"/></g></svg>