<svg enable-background="new 0 0 850.394 850.394" height="850.394" viewBox="0 0 850.394 850.394" width="850.394" xmlns="http://www.w3.org/2000/svg"><path d="m754.66 168.52v530.85h-84.66v-1.37-268h-162v264 5.37h-418.33v-530.85z" fill="#fff"/><path d="m670 698v1.37h-162v-5.37-264h162zm-36-158v-70l-94 2v68zm-71.89 50c0-7.38-5.42-13.39-12.11-13.39s-12.11 6.01-12.11 13.39c0 7.39 5.42 13.39 12.11 13.39s12.11-6 12.11-13.39z" fill="#33a02c"/><path d="m634 470v70h-94v-68z" fill="#231f20"/><path d="m550 576.61c6.69 0 12.11 6.01 12.11 13.39 0 7.39-5.42 13.39-12.11 13.39s-12.11-6-12.11-13.39c0-7.38 5.42-13.39 12.11-13.39z" fill="#231f20"/><path d="m670 698v-268h-162v264" fill="none" stroke="#231f20" stroke-width="21"/><path d="m508 699.37h-418.33v-530.85h664.99v530.85h-84.66z" fill="none" stroke="#231f20" stroke-width="28"/><path d="m0 0h850.394v850.394h-850.394z" fill="none"/><path d="m241.7 540.917h-.98v-1.391c.35.451.67.911.98 1.391z" fill="#231f20"/><path d="m439.49 451.637h-4.25v-8.04c1.78 2.349 3.22 5.07 4.25 8.04z" fill="#231f20"/><path d="m298.44 495.597h40.99c-4.08 8.44-11.73 14.12-20.5 14.12-8.76 0-16.41-5.68-20.49-14.12z" fill="#231f20"/><path d="m435.24 451.637h-39.5c3.55-10.23 12.01-17.43 21.88-17.43 7 0 13.29 3.62 17.62 9.39z" fill="#231f20"/><path d="m223.13 530.177c6.99 0 13.27 3.61 17.59 9.35v1.391h-36.16c4.32-6.541 11.03-10.741 18.57-10.741z" fill="#231f20"/><path d="m318.93 453.337c6.98 0 13.26 3.6 17.59 9.34 3.78 4.99 6.08 11.6 6.08 18.85 0 5.12-1.15 9.931-3.17 14.07h-40.99c-2.02-4.14-3.17-8.95-3.17-14.07 0-15.57 10.6-28.19 23.66-28.19z" fill="#231f20"/><path d="m393.95 462.396c0-3.81.63-7.439 1.79-10.76h39.5 4.25c1.16 3.32 1.79 6.95 1.79 10.76 0 15.57-10.601 28.19-23.66 28.19-13.07.001-23.67-12.619-23.67-28.19z" fill="#231f20"/><path d="m199.47 558.366c0-6.59 1.9-12.649 5.09-17.449h36.16.98c3.19 4.8 5.09 10.859 5.09 17.449 0 12.57-6.91 23.221-16.45 26.851h-14.41c-9.55-3.62-16.46-14.271-16.46-26.851z" fill="#231f20"/><path d="m215.93 585.217h14.41c-2.27.87-4.69 1.34-7.21 1.34-2.51 0-4.93-.47-7.2-1.34z" fill="#231f20"/><g fill="none"><path d="m336.52 462.677c3.78 4.99 6.08 11.6 6.08 18.85 0 5.12-1.15 9.931-3.17 14.07-4.08 8.44-11.73 14.12-20.5 14.12-8.76 0-16.41-5.68-20.49-14.12-2.02-4.14-3.17-8.95-3.17-14.07 0-15.569 10.6-28.189 23.66-28.189 6.98-.001 13.26 3.599 17.59 9.339z" stroke="#231f20" stroke-width="7"/><path d="m439.49 451.637c1.16 3.32 1.79 6.95 1.79 10.76 0 15.57-10.601 28.19-23.66 28.19-13.07 0-23.67-12.62-23.67-28.19 0-3.81.63-7.439 1.79-10.76 3.55-10.23 12.01-17.43 21.88-17.43 7 0 13.29 3.62 17.62 9.39 1.78 2.349 3.22 5.07 4.25 8.04z" stroke="#231f20" stroke-width="7"/><path d="m336.52 481.747v-19.07-11.04-98.77l98.72-28.2v118.93 8.04 10.759" stroke="#231f20" stroke-width="21"/><path d="m241.7 540.917c3.19 4.8 5.09 10.859 5.09 17.449 0 12.57-6.91 23.221-16.45 26.851-2.27.87-4.69 1.34-7.21 1.34-2.51 0-4.93-.47-7.2-1.34-9.55-3.62-16.46-14.271-16.46-26.851 0-6.59 1.9-12.649 5.09-17.449 4.32-6.54 11.03-10.74 18.57-10.74 6.99 0 13.27 3.61 17.59 9.35.35.45.67.91.98 1.39z" stroke="#231f20" stroke-width="7"/><path d="m240.72 558.587v-17.67-1.391-43.929-43.96-21.93" stroke="#231f20" stroke-width="21"/><path d="m136 451.637h104.72 95.8 59.22 39.5 4.25 30.8" stroke="#231f20" stroke-width="14"/><path d="m136 495.597h104.72 57.72 40.99 78.19 52.68" stroke="#231f20" stroke-width="14"/><path d="m136 540.917h68.56 36.16.98 228.6" stroke="#231f20" stroke-width="14"/><path d="m136 585.217h79.93 14.41 239.96" stroke="#231f20" stroke-width="14"/><path d="m0 0h850.394v850.394h-850.394z"/><path d="m0 0h850.394v850.394h-850.394z"/></g></svg>