<svg enable-background="new 0 0 850.394 850.394" height="850.394" viewBox="0 0 850.394 850.394" width="850.394" xmlns="http://www.w3.org/2000/svg"><path d="m538.07 244.37c-.391.43 12.01-1.5 17.41-8.82 6.029-8.2 12.38-13.67 12.34-20.32-.061-9.32-11.851.6-15.24 3.24-6.39 4.98-13.3 11.58-20.39 15.56-4.08 0-7.381 2.79-7.381 6.22 0 3.44 3.301 6.23 7.381 6.23 2.3 0 4.35-.89 5.699-2.27zm176.43-166.13c3.92 3.92-9.23 17.07-20.53 28.37-11.29 11.29-51.2 57.19-68.029 74.03-7.37 7.37-17.04 19.6-26.391 31.48-12.02 15.27-23.52 29.98-28.96 33.09-9.689 5.53-16.149 5.53-27.67 8.77-11.54 3.22-18.46 3.22-18.46 3.22l-18.45-18.44s1.44-1.04 3.79-2.62c3.91-2.61 10.351-6.68 16.97-9.84 10.601-5.08 43.36-37.82 66.65-61.12 23.29-23.29 61.57-54.65 77.25-64.8 15.69-10.15 39.9-26.06 43.83-22.14z" fill="#c8c8c8"/><path d="m537.89 244.21c1.051-1.08 1.681-2.46 1.681-3.96 0-3.43-3.301-6.22-7.38-6.22 7.09-3.98 14-10.58 20.39-15.56 3.39-2.64 15.18-12.56 15.24-3.24.04 6.65-6.311 12.12-12.34 20.32-5.4 7.32-17.801 9.25-17.41 8.82z" fill="#c8c8c8"/><path d="m506.01 238.76 18.45 18.44s6.92 0 18.46-3.22c11.521-3.24 17.98-3.24 27.67-8.77 5.44-3.11 16.94-17.82 28.96-33.09 0 0 112.63-19.95 121.87-22.72 9.22-2.77 28.59-13.84 36.44-13.84 7.83 0 18.149 4.44 17.979 10.15s-.17 5.71-.17 5.71c-.28.94-.57 1.79-.87 2.54-2.66 6.72-6.12 6.49-11.41 8.35-5.88 2.08-117.62 37.02-137.34 41.86-19.72 4.85-78.88 20.41-89.25 20.41-10.38 0-17.3 1.62-17.3 1.62-8.3 3.69-14.41 12.68-14.41 12.68-2.77-2.76-3.92-3.92-8.3-8.3-1.37-1.37-3.01-3.01-4.62-4.61-3.54-3.54-6.91-6.92-6.91-6.92s4.38-14.08 8.76-18.45c4.381-4.38 15.681-4.61 15.681-4.61l.1.15c-2.35 1.58-3.79 2.62-3.79 2.62z" fill="#c8c8c8"/><path d="m763.39 202.31c5.29-1.86 8.75-1.63 11.41-8.35-.04 16.21-34.49 24.03-42.78 26.34-8.3 2.31-110.689 47.98-122.229 53.51-11.53 5.53-68.81 23.17-81.271 25.93-4.909 1.09-12.189 2.47-16.97-.33-4.5-2.63-12.16-6.47-12.16-6.47s-4.34-11.31-11.55-17.01c-5.17-4.09-7.18-5.37-7.18-5.37l10.479-3.55 1.03-1.04c1.61 1.6 3.25 3.24 4.62 4.61 4.38 4.38 5.53 5.54 8.3 8.3 0 0 6.11-8.99 14.41-12.68 0 0 6.92-1.62 17.3-1.62 10.37 0 69.53-15.56 89.25-20.41 19.721-4.84 131.461-39.78 137.341-41.86z" fill="#c8c8c8"/><path d="m572.5 494.06c6.46 6.82 3.63 19.98-6.32 29.431-9.949 9.45-23.25 11.58-29.71 4.779-6.45-6.8 7.891-7.84 17.84-17.289 9.96-9.441 11.74-23.721 18.19-16.921z" fill="#fff"/><path d="m518.96 467.63c13.73 0 24.84-9.11 24.84.26 0 9.38-11.109 16.98-24.84 16.98-13.72 0-24.84-7.601-24.84-16.98 0-9.37 11.12-.26 24.84-.26z" fill="#fff"/><path d="m478.14 360.86s23.17 22.9-8.93 35.51c-22.41-.35-30.38-25.95-12.91-34.41 6.95-1.05 14.101-2.2 21.44-3.44z" fill="#fff"/><path d="m492.26 325.49c18.38 1.39 19.91 26.89 1.12 30.29-5 .9-9.91 1.77-14.729 2.58-14.49-2.85-21.71-21.45-12.061-31.94 13.29-.73 23.16-1.12 25.67-.93z" fill="#fff"/><path d="m476.74 304.86c4.71 7.15.229 14.11-5.971 18.21-.01 0-.02.01-.02.01-.24.14-.47.28-.7.44-.09.05-.17.1-.26.16-2.76 1.65-5.771 2.73-8.42 3.02-2.49.15-5.07.3-7.73.46-.01 0-.01 0-.02 0-18.23-3.49-30.73-23.35-15.33-30.57 7.69-.24 13.38-.49 15.72-.77.001 0 15.711-1.6 22.731 9.04z" fill="#fff"/><path d="m406.36 269.7c16.16 1.11 20.18 22.16 8.28 26.7l.02.8c-5.78.14-11.84.27-17.91.41v-.01c-13.67-2.51-21.3-20.56-8.63-28.24 7.91-.02 14.46.07 18.24.34z" fill="#fff"/><path d="m456.3 361.96c-17.47 8.46-9.5 34.06 12.91 34.41-26.74 10.5-69.46 15.25-83.91 21.78-14.42 6.51-61.65 48.51-76.93 66.05-6.93 8-14.41 19.34-19.22 29.28-5.79 11.93-7.78 21.85-.51 21.699 0 0 12.87 4.271 41.59-13.06 34.8-20.96 63.96-19.32 75.3-10.83 11.32 8.49 11.61 18.95 4.84 25.2-6.81 6.24-19.82 5.649-54.89 20.439-35.12 14.73-58.88 37.971-83.22 51.57-24.31 13.62-71.59 28.13-110.1 19.1-9.54-2.239-21.16-3-33.59-2.859l-58.04-140.409c31.42-20.33 32.57-33.98 56.6-67.88 0 0 42.64-81.59 64.17-95.2 21.49-13.64 110.93-49.91 129.05-50.51 13.32-.43 45.81-1.34 67.77-1.38-12.67 7.68-5.04 25.73 8.63 28.24v.01c6.07-.14 12.13-.27 17.91-.41 8.79-.2 16.96-.4 23.63-.61-15.4 7.22-2.9 27.08 15.33 30.57h.02c2.66-.16 5.24-.31 7.73-.46 1.79-.1 3.53-.2 5.22-.28-9.649 10.49-2.43 29.09 12.061 31.94-.301.06-.61.11-.91.16-7.341 1.24-14.491 2.39-21.441 3.44z" fill="#ffeec8"/><path d="m744.99 510.04c7.42 13.12 2.35 29.99-11.311 37.729l-388.379 219.811c-13.65 7.74-30.75 3.39-38.16-9.7l-2.35-4.17c-7.41-13.09-2.35-29.979 11.32-37.72l388.36-219.82c13.67-7.72 30.75-3.38 38.16 9.72zm-23.17 26.15c2.16-1.23 2.93-3.98 1.699-6.141-1.229-2.18-3.979-2.939-6.149-1.72-2.17 1.229-2.92 3.99-1.71 6.16 1.24 2.151 3.98 2.921 6.16 1.701zm-2.49-15.73c2.18-1.229 2.939-3.979 1.71-6.15-1.22-2.159-3.97-2.93-6.14-1.689-2.17 1.22-2.94 3.97-1.7 6.14 1.22 2.159 3.97 2.919 6.13 1.699zm-11.67 20.86c2.17-1.24 2.92-3.98 1.7-6.15-1.23-2.17-3.98-2.93-6.141-1.7-2.17 1.23-2.939 3.971-1.7 6.141 1.221 2.169 3.971 2.929 6.141 1.709zm-2.63-15.93c2.17-1.239 2.92-3.989 1.7-6.159-1.221-2.16-3.98-2.921-6.141-1.7-2.17 1.229-2.92 3.979-1.71 6.14 1.241 2.169 3.981 2.929 6.151 1.719zm-19.2 7.14c2.16-1.23 2.93-3.98 1.7-6.15s-3.98-2.93-6.141-1.7c-2.18 1.221-2.93 3.971-1.699 6.141 1.22 2.159 3.97 2.929 6.14 1.709zm-20.21 34.56c2.16-1.22 2.92-3.979 1.689-6.14-1.22-2.17-3.97-2.931-6.13-1.71-2.18 1.229-2.939 3.97-1.71 6.149 1.231 2.161 3.981 2.931 6.151 1.701zm-2.48-15.72c2.16-1.23 2.931-3.98 1.7-6.16-1.229-2.16-3.97-2.92-6.14-1.69s-2.931 3.971-1.71 6.141c1.24 2.169 3.98 2.939 6.15 1.709zm-11.69 20.86c2.17-1.24 2.939-4 1.71-6.16-1.23-2.16-3.98-2.931-6.15-1.7-2.17 1.22-2.93 3.979-1.71 6.149 1.23 2.161 3.99 2.931 6.15 1.711zm-2.62-15.94c2.17-1.23 2.93-3.98 1.7-6.15-1.221-2.159-3.98-2.93-6.141-1.699-2.17 1.22-2.93 3.97-1.699 6.14 1.22 2.169 3.98 2.939 6.14 1.709zm-19.3 33.58c2.16-1.23 2.92-3.98 1.689-6.15-1.22-2.16-3.97-2.93-6.14-1.7-2.18 1.23-2.93 3.98-1.7 6.15 1.231 2.16 3.981 2.92 6.151 1.7zm-26.72 15.4c2.171-1.22 2.931-3.97 1.7-6.14-1.22-2.17-3.97-2.93-6.14-1.71-2.17 1.23-2.92 3.98-1.7 6.15s3.98 2.94 6.14 1.7zm-2.47-15.73c2.16-1.23 2.92-3.97 1.7-6.14-1.23-2.16-3.99-2.931-6.14-1.7-2.17 1.22-2.94 3.979-1.7 6.14 1.21 2.17 3.97 2.93 6.14 1.7zm-11.69 20.87c2.18-1.24 2.93-3.99 1.71-6.15-1.23-2.17-3.971-2.93-6.141-1.7-2.18 1.23-2.93 3.971-1.71 6.15 1.221 2.15 3.981 2.92 6.141 1.7zm-2.62-15.93c2.17-1.23 2.93-3.99 1.7-6.16-1.221-2.16-3.98-2.92-6.141-1.69-2.17 1.21-2.93 3.97-1.71 6.14 1.231 2.16 3.991 2.93 6.151 1.71zm-24.33 15.18c2.17-1.22 2.92-3.98 1.689-6.141-1.22-2.159-3.97-2.93-6.14-1.699-2.16 1.22-2.93 3.97-1.71 6.14 1.241 2.16 3.991 2.93 6.161 1.7zm-25.12 33.1c2.17-1.22 2.92-3.97 1.71-6.14-1.24-2.17-3.98-2.94-6.15-1.71-2.17 1.229-2.93 3.979-1.71 6.149 1.24 2.171 3.97 2.931 6.15 1.701zm-2.47-15.72c2.159-1.22 2.92-3.98 1.689-6.15-1.22-2.17-3.979-2.92-6.14-1.699-2.16 1.229-2.93 3.979-1.7 6.149 1.231 2.17 3.981 2.92 6.151 1.7zm-11.69 20.86c2.16-1.23 2.93-3.98 1.71-6.16-1.24-2.16-3.99-2.92-6.16-1.69-2.16 1.22-2.92 3.97-1.689 6.141 1.219 2.159 3.969 2.929 6.139 1.709zm-2.62-15.94c2.16-1.22 2.931-3.979 1.7-6.14-1.23-2.181-3.98-2.94-6.15-1.71-2.159 1.239-2.93 3.97-1.699 6.149 1.229 2.171 3.979 2.921 6.149 1.701zm-18.73 20.1c2.16-1.229 2.92-3.979 1.689-6.149-1.22-2.16-3.97-2.92-6.14-1.7-2.16 1.23-2.93 3.98-1.7 6.15 1.231 2.159 3.981 2.929 6.151 1.699zm-29.33 27.41c2.17-1.22 2.92-3.979 1.7-6.14-1.23-2.18-3.98-2.94-6.141-1.72-2.17 1.229-2.93 3.979-1.71 6.149 1.231 2.171 3.981 2.931 6.151 1.711zm-2.48-15.73c2.17-1.221 2.931-3.98 1.7-6.141-1.22-2.17-3.979-2.939-6.14-1.71-2.17 1.221-2.92 3.98-1.69 6.141 1.22 2.16 3.97 2.93 6.13 1.71zm-11.67 20.85c2.17-1.22 2.92-3.979 1.69-6.14-1.23-2.17-3.971-2.94-6.141-1.71-2.17 1.229-2.939 3.979-1.699 6.149 1.22 2.161 3.98 2.931 6.15 1.701zm-2.63-15.93c2.16-1.22 2.92-3.98 1.7-6.141-1.23-2.18-3.98-2.939-6.15-1.71-2.17 1.23-2.93 3.971-1.7 6.141 1.22 2.17 3.97 2.93 6.15 1.71zm-24.24 21.34c2.16-1.22 2.92-3.98 1.7-6.14-1.229-2.181-3.99-2.94-6.15-1.721-2.169 1.24-2.939 3.98-1.709 6.16 1.229 2.161 3.979 2.931 6.159 1.701zm-24.66 26.64c2.17-1.22 2.93-3.979 1.7-6.149-1.23-2.16-3.99-2.931-6.14-1.71-2.18 1.239-2.94 4-1.71 6.16 1.22 2.169 3.98 2.929 6.15 1.699zm-2.48-15.73c2.17-1.22 2.92-3.97 1.71-6.141-1.24-2.17-3.98-2.93-6.15-1.689-2.17 1.22-2.93 3.97-1.7 6.13 1.21 2.17 3.97 2.94 6.14 1.7zm-11.68 20.87c2.17-1.23 2.92-3.98 1.7-6.15-1.23-2.17-3.97-2.939-6.14-1.71-2.18 1.23-2.93 3.98-1.71 6.15 1.23 2.16 3.98 2.92 6.15 1.71zm-2.62-15.95c2.17-1.22 2.92-3.98 1.69-6.14-1.22-2.16-3.97-2.931-6.14-1.71-2.17 1.239-2.93 3.979-1.7 6.149 1.22 2.171 3.97 2.931 6.15 1.701zm-21.31 7.84c2.17-1.22 2.94-3.97 1.7-6.15-1.22-2.159-3.98-2.93-6.13-1.71-2.19 1.23-2.94 3.99-1.72 6.15 1.23 2.18 3.98 2.94 6.15 1.71zm-17.86 34.64c2.16-1.22 2.93-3.979 1.69-6.14-1.22-2.17-3.97-2.93-6.13-1.71-2.18 1.23-2.94 3.99-1.72 6.15 1.23 2.17 3.98 2.94 6.16 1.7zm-2.48-15.73c2.16-1.22 2.93-3.97 1.69-6.15-1.22-2.16-3.97-2.92-6.14-1.689-2.17 1.22-2.93 3.979-1.7 6.14s3.97 2.929 6.15 1.699zm-11.69 20.86c2.17-1.221 2.93-3.98 1.7-6.141-1.23-2.17-3.98-2.93-6.14-1.71-2.16 1.23-2.93 3.97-1.7 6.141 1.23 2.18 3.98 2.94 6.14 1.71zm-2.62-15.93c2.17-1.24 2.93-3.979 1.7-6.149s-3.98-2.931-6.14-1.71c-2.17 1.239-2.94 3.989-1.71 6.149 1.23 2.17 3.98 2.94 6.15 1.71z" fill="#f6cc4b"/><g fill="#231f20"><path d="m723.52 530.05c1.23 2.16.461 4.91-1.699 6.141-2.181 1.22-4.92.449-6.16-1.7-1.21-2.17-.46-4.931 1.71-6.16 2.169-1.221 4.919-.461 6.149 1.719z"/><path d="m721.04 514.31c1.229 2.171.47 4.921-1.71 6.15-2.16 1.22-4.91.46-6.13-1.7-1.24-2.17-.47-4.92 1.7-6.14 2.17-1.24 4.92-.47 6.14 1.69z"/><path d="m709.36 535.17c1.22 2.17.47 4.91-1.7 6.15-2.17 1.22-4.92.46-6.141-1.71-1.239-2.17-.47-4.91 1.7-6.141 2.161-1.229 4.911-.469 6.141 1.701z"/><path d="m706.73 519.23c1.22 2.17.47 4.92-1.7 6.159-2.17 1.21-4.91.45-6.15-1.72-1.21-2.16-.46-4.91 1.71-6.14 2.16-1.219 4.92-.459 6.14 1.701z"/><path d="m687.53 526.38c1.229 2.17.46 4.92-1.7 6.15-2.17 1.22-4.92.45-6.14-1.71-1.23-2.17-.48-4.92 1.699-6.141 2.161-1.229 4.911-.469 6.141 1.701z"/><path d="m667.31 560.95c1.23 2.16.471 4.92-1.689 6.14-2.17 1.23-4.92.46-6.15-1.7-1.229-2.18-.47-4.92 1.71-6.149 2.159-1.221 4.909-.461 6.129 1.709z"/><path d="m664.84 545.21c1.23 2.18.46 4.93-1.7 6.16-2.17 1.229-4.909.46-6.149-1.71-1.221-2.17-.46-4.91 1.71-6.141 2.169-1.229 4.909-.469 6.139 1.691z"/><path d="m653.16 566.07c1.229 2.16.46 4.92-1.71 6.16-2.16 1.22-4.92.449-6.15-1.711-1.22-2.17-.46-4.93 1.71-6.149 2.17-1.23 4.92-.46 6.15 1.7z"/><path d="m650.53 550.14c1.229 2.17.47 4.92-1.7 6.15-2.16 1.229-4.92.46-6.14-1.71-1.23-2.17-.471-4.92 1.699-6.14 2.161-1.23 4.921-.46 6.141 1.7z"/><path d="m631.22 583.72c1.23 2.17.471 4.92-1.689 6.15-2.17 1.22-4.92.46-6.15-1.7-1.229-2.17-.479-4.92 1.7-6.15 2.169-1.23 4.919-.46 6.139 1.7z"/><path d="m604.51 599.13c1.23 2.17.471 4.92-1.7 6.14-2.159 1.24-4.92.471-6.14-1.699s-.47-4.92 1.7-6.15c2.17-1.221 4.92-.461 6.14 1.709z"/><path d="m602.04 583.4c1.22 2.17.46 4.909-1.7 6.14-2.17 1.229-4.93.47-6.14-1.7-1.24-2.16-.47-4.92 1.7-6.14 2.15-1.23 4.91-.46 6.14 1.7z"/><path d="m590.36 604.26c1.22 2.16.47 4.91-1.71 6.15-2.16 1.22-4.92.45-6.141-1.7-1.22-2.18-.47-4.92 1.71-6.15 2.171-1.23 4.911-.47 6.141 1.7z"/><path d="m587.73 588.32c1.229 2.17.47 4.93-1.7 6.16-2.16 1.22-4.92.449-6.15-1.711-1.22-2.17-.46-4.93 1.71-6.14 2.16-1.229 4.92-.469 6.14 1.691z"/><path d="m563.39 603.52c1.23 2.16.48 4.921-1.689 6.141-2.17 1.229-4.92.46-6.16-1.7-1.22-2.17-.45-4.92 1.71-6.14 2.169-1.231 4.919-.461 6.139 1.699z"/><path d="m538.29 636.62c1.21 2.17.46 4.92-1.71 6.14-2.18 1.23-4.91.471-6.15-1.7-1.22-2.17-.46-4.92 1.71-6.149 2.17-1.231 4.91-.461 6.15 1.709z"/><path d="m535.8 620.89c1.23 2.17.47 4.931-1.689 6.15-2.17 1.22-4.92.47-6.15-1.7-1.229-2.17-.46-4.92 1.7-6.149 2.159-1.221 4.919-.471 6.139 1.699z"/><path d="m524.13 641.74c1.22 2.18.45 4.93-1.71 6.16-2.17 1.22-4.92.449-6.14-1.71-1.23-2.171-.471-4.921 1.689-6.141 2.171-1.229 4.921-.469 6.161 1.691z"/><path d="m521.5 625.82c1.23 2.16.46 4.92-1.7 6.14-2.17 1.22-4.92.47-6.149-1.7-1.23-2.18-.46-4.91 1.699-6.149 2.17-1.231 4.92-.471 6.15 1.709z"/><path d="m502.76 645.91c1.23 2.17.471 4.92-1.689 6.149-2.17 1.23-4.92.46-6.15-1.699-1.229-2.17-.46-4.92 1.7-6.15 2.169-1.22 4.919-.46 6.139 1.7z"/><path d="m473.44 673.33c1.22 2.16.47 4.92-1.7 6.14-2.17 1.221-4.92.46-6.15-1.71-1.22-2.17-.46-4.92 1.71-6.149 2.16-1.221 4.91-.461 6.14 1.719z"/><path d="m470.96 657.6c1.23 2.16.47 4.92-1.7 6.141-2.16 1.22-4.91.45-6.13-1.71-1.229-2.16-.479-4.92 1.69-6.141 2.16-1.23 4.92-.46 6.14 1.71z"/><path d="m459.28 678.45c1.229 2.16.479 4.92-1.69 6.14-2.17 1.23-4.93.46-6.149-1.7-1.24-2.17-.471-4.92 1.699-6.149 2.17-1.231 4.91-.461 6.14 1.709z"/><path d="m456.66 662.52c1.22 2.16.46 4.921-1.7 6.141-2.18 1.22-4.93.46-6.15-1.71-1.229-2.17-.47-4.91 1.7-6.141 2.17-1.23 4.92-.47 6.15 1.71z"/><path d="m432.42 683.86c1.22 2.159.46 4.92-1.7 6.14-2.18 1.23-4.93.46-6.16-1.7-1.23-2.18-.46-4.92 1.709-6.16 2.161-1.22 4.921-.46 6.151 1.72z"/><path d="m407.76 710.49c1.23 2.17.47 4.93-1.7 6.149-2.17 1.23-4.93.471-6.15-1.699-1.23-2.16-.47-4.921 1.71-6.16 2.15-1.22 4.91-.45 6.14 1.71z"/><path d="m405.29 694.77c1.21 2.171.46 4.921-1.71 6.141-2.17 1.24-4.93.47-6.14-1.7-1.23-2.16-.47-4.91 1.7-6.13 2.17-1.241 4.91-.481 6.15 1.689z"/><path d="m393.6 715.63c1.22 2.17.47 4.92-1.7 6.15-2.17 1.21-4.92.45-6.15-1.71-1.22-2.17-.47-4.92 1.71-6.15 2.17-1.23 4.91-.46 6.14 1.71z"/><path d="m390.97 699.69c1.23 2.159.48 4.92-1.69 6.14-2.18 1.229-4.93.47-6.15-1.7-1.23-2.17-.47-4.91 1.7-6.149 2.17-1.221 4.92-.451 6.14 1.709z"/><path d="m369.67 707.52c1.24 2.181.47 4.931-1.7 6.15-2.17 1.23-4.92.47-6.15-1.71-1.22-2.16-.47-4.92 1.72-6.15 2.15-1.22 4.91-.45 6.13 1.71z"/><path d="m351.8 742.17c1.24 2.16.47 4.92-1.69 6.14-2.18 1.24-4.93.471-6.16-1.699-1.22-2.16-.46-4.92 1.72-6.15 2.16-1.221 4.91-.461 6.13 1.709z"/><path d="m349.32 726.43c1.24 2.181.47 4.931-1.69 6.15-2.18 1.229-4.92.46-6.15-1.7s-.47-4.92 1.7-6.14c2.17-1.23 4.92-.47 6.14 1.69z"/><path d="m337.64 747.3c1.23 2.16.47 4.92-1.7 6.141-2.16 1.229-4.91.47-6.14-1.71-1.23-2.171-.46-4.91 1.7-6.141 2.16-1.22 4.91-.46 6.14 1.71z"/><path d="m335.02 731.36c1.23 2.17.47 4.909-1.7 6.149-2.17 1.23-4.92.46-6.15-1.71-1.23-2.16-.46-4.91 1.71-6.149 2.16-1.22 4.91-.46 6.14 1.71z"/></g><path d="m345.3 767.58c-13.65 7.74-30.75 3.39-38.16-9.7l-2.35-4.17c-7.41-13.09-2.35-29.979 11.32-37.72l388.36-219.82c13.67-7.72 30.75-3.38 38.16 9.72l2.36 4.15c7.42 13.12 2.35 29.99-11.311 37.729z" fill="none" stroke="#231f20" stroke-width="19.5263"/><path d="m599.55 212.12c-12.02 15.27-23.52 29.98-28.96 33.09-9.689 5.53-16.149 5.53-27.67 8.77-11.54 3.22-18.46 3.22-18.46 3.22l-18.45-18.44s1.44-1.04 3.79-2.62c3.91-2.61 10.351-6.68 16.97-9.84 10.601-5.08 43.36-37.82 66.65-61.12 23.29-23.29 61.57-54.65 77.25-64.8 15.69-10.15 39.9-26.06 43.83-22.14 3.92 3.92-9.23 17.07-20.53 28.37-11.29 11.29-51.2 57.19-68.029 74.03-7.371 7.37-17.041 19.6-26.391 31.48z" fill="none" stroke="#231f20" stroke-width="13.0175"/><path d="m532.19 234.03c4.079 0 7.38 2.79 7.38 6.22 0 1.5-.63 2.88-1.681 3.96-1.35 1.38-3.399 2.27-5.699 2.27-4.08 0-7.381-2.79-7.381-6.23.001-3.43 3.301-6.22 7.381-6.22z" fill="none" stroke="#231f20" stroke-width="13.0175"/><path d="m532.19 234.03c7.09-3.98 14-10.58 20.39-15.56 3.39-2.64 15.18-12.56 15.24-3.24.04 6.65-6.311 12.12-12.34 20.32-5.4 7.32-17.801 9.25-17.41 8.82.09-.09.85-.32 2.54-.63" fill="none" stroke="#231f20" stroke-width="13.0175"/><path d="m599.55 212.12s112.63-19.95 121.87-22.72c9.22-2.77 28.59-13.84 36.44-13.84 7.83 0 18.149 4.44 17.979 10.15s-.17 5.71-.17 5.71c-.28.94-.57 1.79-.87 2.54-2.66 6.72-6.12 6.49-11.41 8.35-5.88 2.08-117.62 37.02-137.34 41.86-19.72 4.85-78.88 20.41-89.25 20.41-10.38 0-17.3 1.62-17.3 1.62-8.3 3.69-14.41 12.68-14.41 12.68-2.77-2.76-3.92-3.92-8.3-8.3-1.37-1.37-3.01-3.01-4.62-4.61-3.54-3.54-6.91-6.92-6.91-6.92s4.38-14.08 8.76-18.45c4.381-4.38 15.681-4.61 15.681-4.61" fill="none" stroke="#231f20" stroke-width="13.0175"/><path d="m491.14 267.01-10.479 3.55s2.01 1.28 7.18 5.37c7.21 5.7 11.55 17.01 11.55 17.01s7.66 3.84 12.16 6.47c4.78 2.8 12.061 1.42 16.97.33 12.461-2.76 69.74-20.4 81.271-25.93 11.54-5.53 113.93-51.2 122.229-53.51 8.29-2.31 42.74-10.13 42.78-26.34 0-.01 0-.02 0-.03" fill="none" stroke="#231f20" stroke-width="13.0175"/><path d="m469.79 323.68c-2.76 1.65-5.771 2.73-8.42 3.02" fill="none" stroke="#231f20" stroke-miterlimit="10" stroke-width="19.5263"/><path d="m470.75 323.08c-.23.15-.46.3-.7.44" fill="none" stroke="#231f20" stroke-miterlimit="10" stroke-width="19.5263"/><path d="m248.23 343.01s79.54-40.56 88.28-42.86c4.54-1.16 32.57-1.9 60.24-2.54 6.07-.14 12.13-.27 17.91-.41 8.79-.2 16.96-.4 23.63-.61 7.69-.24 13.38-.49 15.72-.77 0 0 15.71-1.6 22.73 9.04 4.71 7.15.229 14.11-5.971 18.21" fill="none" stroke="#231f20" stroke-miterlimit="10" stroke-width="19.5263"/><path d="m453.64 327.16c2.66-.16 5.24-.31 7.73-.46 1.79-.1 3.53-.2 5.22-.28 13.29-.73 23.16-1.12 25.67-.93 18.38 1.39 19.91 26.89 1.12 30.29-5 .9-9.91 1.77-14.729 2.58-.301.06-.61.11-.91.16-7.34 1.24-14.49 2.39-21.44 3.44-21.12 3.21-40.49 5.58-58.28 7.24-27.75 2.54-38.2 8.52-50.65 17.59-12.47 9.07-55.46 34.87-55.46 34.87" fill="none" stroke="#231f20" stroke-miterlimit="10" stroke-width="19.5263"/><path d="m264.97 386.29s88.57-49.34 95.94-51.59c4.83-1.51 55.58-5.3 92.71-7.54" fill="none" stroke="#231f20" stroke-miterlimit="10" stroke-width="19.5263"/><path d="m289.15 513.48c-5.79 11.93-7.78 21.85-.51 21.699 0 0 12.87 4.271 41.59-13.06 34.8-20.96 63.96-19.32 75.3-10.83 11.32 8.49 11.61 18.95 4.84 25.2-6.81 6.24-19.82 5.649-54.89 20.439-35.12 14.73-58.88 37.971-83.22 51.57-24.31 13.62-71.59 28.13-110.1 19.1-9.54-2.239-21.16-3-33.59-2.859" fill="none" stroke="#231f20" stroke-miterlimit="10" stroke-width="19.5263"/><path d="m478.14 360.86s23.17 22.9-8.93 35.51c-26.74 10.5-69.46 15.25-83.91 21.78-14.42 6.51-61.65 48.51-76.93 66.05-6.93 8-14.41 19.34-19.22 29.28" fill="none" stroke="#231f20" stroke-miterlimit="10" stroke-width="19.5263"/><path d="m191.3 321.25c21.49-13.64 110.93-49.91 129.05-50.51 13.32-.43 45.81-1.34 67.77-1.38 7.91-.02 14.46.07 18.24.34 16.16 1.11 20.18 22.16 8.28 26.7" fill="none" stroke="#231f20" stroke-miterlimit="10" stroke-width="19.5263"/><path d="m70.53 484.33c31.42-20.33 32.57-33.98 56.6-67.88 0 0 42.64-81.59 64.17-95.2" fill="none" stroke="#231f20" stroke-miterlimit="10" stroke-width="19.5263"/><path d="m388.97 268.87c-.29.16-.58.32-.85.49-12.67 7.68-5.04 25.73 8.63 28.24" fill="none" stroke="#231f20" stroke-miterlimit="10" stroke-width="19.5263"/><path d="m440.04 295.87c-.62.22-1.2.46-1.75.72-15.4 7.22-2.9 27.08 15.33 30.57h.02" fill="none" stroke="#231f20" stroke-miterlimit="10" stroke-width="19.5263"/><path d="m471.53 322.63c-.261.14-.511.28-.761.44-.01 0-.02.01-.02.01-.24.14-.47.28-.7.44-.09.05-.17.1-.26.16-1.22.83-2.29 1.75-3.2 2.74-9.649 10.49-2.43 29.09 12.061 31.94.069.02.14.04.21.05" fill="none" stroke="#231f20" stroke-miterlimit="10" stroke-width="19.5263"/><path d="m456.35 361.94c-.02.01-.029.02-.05.02-17.47 8.46-9.5 34.06 12.91 34.41" fill="none" stroke="#231f20" stroke-miterlimit="10" stroke-width="19.5263"/><path d="m543.8 467.89c0 9.38-11.109 16.98-24.84 16.98-13.72 0-24.84-7.601-24.84-16.98 0-9.37 11.12-.26 24.84-.26 13.73 0 24.84-9.11 24.84.26z" fill="none" stroke="#231f20" stroke-width="13.0175"/><path d="m572.5 494.06c6.46 6.82 3.63 19.98-6.32 29.431-9.949 9.45-23.25 11.58-29.71 4.779-6.45-6.8 7.891-7.84 17.84-17.289 9.96-9.441 11.74-23.721 18.19-16.921z" fill="none" stroke="#231f20" stroke-width="13.0175"/><path d="m0 0h850.394v850.394h-850.394z" fill="none"/></svg>