<svg enable-background="new 0 0 850.394 850.394" height="850.394" viewBox="0 0 850.394 850.394" width="850.394" xmlns="http://www.w3.org/2000/svg"><path d="m717.88 402.01-5.88-.01-118.37 6.7-3.19.18-41.86 2.3-257.64 14.17h-1.48v-62.47l-.19-3.66 428.6-21.77.13 2.55z" fill="#f6cc4b"/><path d="m717.88 402.01.12-62.01-.13-2.55 41.19-2.09.02.32v348.32 76.42l-41.88 2.95z" fill="#f6cc4b"/><path d="m717.87 337.45-428.6 21.77-41.78 2.12-1.38.07c-.01 0-24.11-17.41-24.11-17.41h-2.18v-149.83l-.22-4.36 515.91-26.2v108.57l-42.18 2.31.06 1.13 40.54 23.72 33.24 19.44v16.17l-8.11.41z" fill="#f6cc4b"/><path d="m219.82 344h2.18s24.1 17.41 24.11 17.41l1.38-.07.08 1.54v53.66h-2.94l-22.63-22.54h-2.18z" fill="#f6cc4b"/><path d="m219.82 194.17v149.83 50 323l-49.91 3.5v-462.4-63.93l-.09-1.83 49.78-2.53z" fill="#f6cc4b"/><path d="m71.82 184.54 50.17 39.02-2 408.49-49.92 3.5v-451.01z" fill="#f6cc4b"/><path d="m121.99 223.56-50.17-39.02h-1.75v-61.18l98.08 69.06 1.67-.08.09 1.83v63.93h-3.51z" fill="#f6cc4b"/><path d="m735.51 163.61-515.91 26.2-49.78 2.53-1.67.08-98.08-69.06-7.01-4.94v-25.84l12.92-.67.22 4.18 98.08 65.68 602.8-27.04 11.99 6.9v19.26z" fill="#f6cc4b"/><path d="m735.51 272.18v-108.57l53.56-2.72-1.07 523.11h-28-.92v-348.32l-.02-.32 8.11-.41v-16.17l-33.24-19.44 1.58-2.7z" fill="#f6cc4b"/><path d="m590.72 413.99v233.51l-41.89 2.94v-234.7l-.25-4.56 41.86-2.3z" fill="#f6cc4b"/><path d="m289.46 425.35v362.27l-41.89 2.94v-374.02-53.66l-.08-1.54 41.78-2.12.19 3.66z" fill="#f6cc4b"/><path d="m650.7 61.93 126.38 72.8-602.8 27.04-98.08-65.68-.22-4.18z" fill="#f6cc4b"/><g fill="none"><path d="m70.07 123.36-7.01-4.94v-25.84l12.92-.67 574.72-29.98 126.38 72.8 11.99 6.9v19.26l-53.56 2.72-515.91 26.2-49.78 2.53-1.67.08z" stroke="#231f20" stroke-width="21"/><path d="m76.2 96.09 98.08 65.68 602.8-27.04 2.35-.11" stroke="#231f20" stroke-width="21"/><path d="m219.82 194.17v149.83 50 323l-49.91 3.5v-462.4-63.93" stroke="#231f20" stroke-width="21"/><path d="m735.51 296.64v-24.46-108.57-1.84" stroke="#231f20" stroke-width="21"/><path d="m789.07 160.89-1.07 523.11h-28" stroke="#231f20" stroke-width="21"/><path d="m122 222-.01 1.56-2 408.49-49.92 3.5v-451.01-61.18-.12" stroke="#231f20" stroke-width="21"/><path d="m71.82 184.54 50.17 39.02 44.41 34.54" stroke="#231f20" stroke-width="21"/><path d="m226.83 300.14 466.5-25.65 42.18-2.31 1.01-.06" stroke="#231f20" stroke-width="21"/><path d="m693.39 275.62 40.54 23.72 33.24 19.44v16.17l-8.11.41-41.189 2.09-428.6 21.77-41.78 2.12-1.38.07c-.011 0-24.111-17.41-24.111-17.41" stroke="#231f20" stroke-width="21"/><path d="m289.46 362.88v62.47 362.27l-41.89 2.94v-374.02-53.66" stroke="#231f20" stroke-width="21"/><path d="m590.72 413.99v233.51l-41.89 2.94v-234.7" stroke="#231f20" stroke-width="21"/><path d="m759.08 335.68v348.32 76.42l-41.88 2.95.68-361.36.12-62.01" stroke="#231f20" stroke-width="21"/><path d="m222 394 22.63 22.54" stroke="#231f20" stroke-width="21"/><path d="m593.63 408.7 118.37-6.7" stroke="#231f20" stroke-width="21"/><path d="m290.94 425.35 257.64-14.17 41.86-2.3 3.19-.18" stroke="#231f20" stroke-width="21"/><path d="m0 0h850.394v850.394h-850.394z"/></g></svg>