<svg enable-background="new 0 0 850.394 850.394" height="850.394" viewBox="0 0 850.394 850.394" width="850.394" xmlns="http://www.w3.org/2000/svg"><path d="m256.26 479.23h79.62v14.31h-79.62z" fill="#7a7878"/><path d="m286.3 447.28h49.58v14.3h-49.58z" fill="#7a7878"/><path d="m648.45 478.88h79.62v14.29h-79.62z" fill="#7a7878"/><path d="m678.48 446.92h49.59v14.29h-49.59z" fill="#7a7878"/><path d="m353.65 553.24h22.36l-4.8-11.771h-12.77zm36.22 14.01-4.8-11.77h-12.77l-4.8 11.77zm-7.01-27.63 10.17 39.39c1.28 9.86-4.83 10.82-10.81 10.82h-12.25-5.43-287.6c-5.97 0-12.08-.95-10.81-10.82l10.17-39.39c1.55-7.521 4.83-10.811 10.81-10.811h275.52v-.02h9.42c5.98.001 9.27 3.301 10.81 10.831zm-289.35 16.53h-12.78l-4.79 11.76h22.36zm22.29-2.83-4.79-11.761h-12.78l-4.79 11.761zm13.07 2.65h-12.77l-4.8 11.761h22.37zm22.3-2.82-4.79-11.771h-12.78l-4.79 11.771zm14.77 2.73h-12.78l-4.79 11.76h22.36zm22.29-2.82-4.79-11.77h-12.78l-4.79 11.77zm15.75 3h-12.78l-4.79 11.761h22.36zm22.29-2.82-4.79-11.771h-12.77l-4.79 11.771zm16.97 2.91h-12.78l-4.79 11.76h22.36zm22.29-2.83-4.79-11.761h-12.78l-4.79 11.761zm13.08 2.65h-12.78l-4.8 11.761h22.37zm22.29-2.82-4.79-11.771h-12.78l-4.8 11.771zm14.77 2.73h-12.78l-4.79 11.76h22.36zm22.29-2.82-4.78-11.77h-12.78l-4.8 11.77zm13.8 3h-12.77l-4.8 11.761h22.37z" fill="#7a7878"/><path d="m743.96 555.71h-12.78l-4.8 11.75h22.38zm1.87-2.84h22.36l-4.79-11.77h-12.77zm36.23 14.02-4.79-11.77h-12.78l-4.8 11.77zm-7.02-27.63 10.18 39.4c1.28 9.85-4.84 10.81-10.81 10.81h-12.25-5.43-287.6c-5.97 0-12.07-.96-10.81-10.81l10.17-39.4c1.55-7.529 4.84-10.81 10.8-10.81h275.53v-.021h9.43c5.97.001 9.26 3.301 10.79 10.831zm-289.34 16.53h-12.79l-4.78 11.76h22.36zm22.29-2.83-4.79-11.75h-12.78l-4.79 11.75zm13.07 2.64h-12.77l-4.8 11.771h22.359zm22.3-2.81-4.801-11.771h-12.779l-4.78 11.771zm14.78 2.73h-12.79l-4.79 11.771h22.36zm22.29-2.82-4.8-11.771h-12.78l-4.79 11.771zm15.74 3.01h-12.77l-4.801 11.75h22.36zm22.29-2.84-4.79-11.771h-12.77l-4.79 11.771zm16.97 2.92h-12.77l-4.8 11.76h22.359zm22.29-2.83-4.79-11.75h-12.78l-4.78 11.75zm13.08 2.64h-12.78l-4.8 11.771h22.38zm22.29-2.81-4.79-11.771h-12.78l-4.789 11.771zm14.77 2.73h-12.77l-4.8 11.771h22.36zm22.29-2.82-4.78-11.771h-12.78l-4.8 11.771z" fill="#7a7878"/><path d="m192.86 395.7h72.46v32.52h-72.46z" fill="#c8c8c8"/><path d="m358.28 428.22v94.21h-258.38v-94.21h92.96 72.46zm-22.4 65.32v-14.31h-79.62v14.31zm0-31.96v-14.3h-49.58v14.3z" fill="#c8c8c8"/><path d="m585.05 395.33h72.46v32.52h-72.46z" fill="#c8c8c8"/><path d="m750.48 427.85v94.21h-258.39v-94.21h92.96 72.46zm-22.41 65.32v-14.29h-79.62v14.29zm0-31.96v-14.29h-49.59v14.29z" fill="#c8c8c8"/><path d="m785.12 589.47v21.61h-326.57v-21.61h10.58 287.6 5.43 12.25z" fill="#7a7878"/><path d="m777.27 555.12 4.79 11.77h-22.37l4.8-11.77z" fill="#231f20"/><path d="m763.4 541.1 4.79 11.77h-22.36l4.8-11.77z" fill="#231f20"/><path d="m743.96 555.71 4.8 11.75h-22.38l4.8-11.75z" fill="#231f20"/><path d="m725.37 540.93 4.78 11.77h-22.36l4.8-11.77z" fill="#231f20"/><path d="m707.86 555.52 4.79 11.77h-22.36l4.8-11.77z" fill="#231f20"/><path d="m703.67 377c2.89 0 5.24 2.36 5.24 5.25s-2.351 5.24-5.24 5.24c-2.9 0-5.25-2.35-5.25-5.24s2.35-5.25 5.25-5.25z" fill="#231f20"/><path d="m519.89 305.66v-51.85c0-7.09 5.75-12.84 12.83-12.84h176.62c7.101 0 12.851 5.75 12.851 12.84v128.32c0 7.09-5.75 12.82-12.851 12.82h-176.62c-7.08 0-12.83-5.73-12.83-12.82zm19.11-.71v64.35h164.55v-110.2h-164.55zm158.08 77.38c0-2.9-2.35-5.25-5.25-5.25s-5.24 2.35-5.24 5.25 2.34 5.25 5.24 5.25 5.25-2.35 5.25-5.25zm1.34-.08c0 2.89 2.35 5.24 5.25 5.24 2.89 0 5.24-2.35 5.24-5.24s-2.351-5.25-5.24-5.25c-2.9 0-5.25 2.36-5.25 5.25z" fill="#c8c8c8"/><path d="m691.83 377.08c2.9 0 5.25 2.35 5.25 5.25s-2.35 5.25-5.25 5.25-5.24-2.35-5.24-5.25 2.34-5.25 5.24-5.25z" fill="#231f20"/><path d="m688.3 541.02 4.79 11.77h-22.36l4.79-11.77z" fill="#231f20"/><path d="m670.8 555.6 4.8 11.77h-22.38l4.8-11.77z" fill="#231f20"/><path d="m652.93 541.21 4.79 11.75h-22.35l4.78-11.75z" fill="#231f20"/><path d="m635.43 555.79 4.79 11.76h-22.36l4.8-11.76z" fill="#231f20"/><path d="m539 304.95v-45.85h164.55v110.2h-164.55z" fill="#fff"/><path d="m613.67 541.1 4.79 11.77h-22.35l4.79-11.77z" fill="#231f20"/><path d="m596.17 555.71 4.79 11.75h-22.36l4.8-11.75z" fill="#231f20"/><path d="m575.63 540.93 4.8 11.77h-22.37l4.79-11.77z" fill="#231f20"/><path d="m558.14 555.52 4.78 11.77h-22.36l4.79-11.77z" fill="#231f20"/><path d="m538.56 541.02 4.8 11.77h-22.36l4.78-11.77z" fill="#231f20"/><path d="m521.06 555.6 4.79 11.77h-22.36l4.8-11.77z" fill="#231f20"/><path d="m503.2 541.21 4.79 11.75h-22.36l4.79-11.75z" fill="#231f20"/><path d="m485.7 555.79 4.79 11.76h-22.36l4.78-11.76z" fill="#231f20"/><path d="m392.93 589.83v21.61h-326.56v-21.61h10.57 287.6 5.43 12.25z" fill="#7a7878"/><path d="m385.07 555.48 4.8 11.77h-22.37l4.8-11.77z" fill="#231f20"/><path d="m371.21 541.47 4.8 11.77h-22.36l4.79-11.77z" fill="#231f20"/><path d="m351.76 556.06 4.8 11.76h-22.37l4.8-11.76z" fill="#231f20"/><path d="m333.18 541.29 4.78 11.77h-22.36l4.8-11.77z" fill="#231f20"/><path d="m315.67 555.88 4.79 11.76h-22.36l4.79-11.76z" fill="#231f20"/><path d="m311.48 377.36c2.89 0 5.24 2.36 5.24 5.25s-2.35 5.24-5.24 5.24c-2.9 0-5.25-2.35-5.25-5.24s2.35-5.25 5.25-5.25z" fill="#231f20"/><path d="m304.89 382.69c0-2.9-2.35-5.25-5.24-5.25-2.9 0-5.25 2.35-5.25 5.25s2.35 5.25 5.25 5.25c2.89 0 5.24-2.35 5.24-5.25zm1.34-.08c0 2.89 2.35 5.24 5.25 5.24 2.89 0 5.24-2.35 5.24-5.24s-2.35-5.25-5.24-5.25c-2.9 0-5.25 2.36-5.25 5.25zm23.77-128.44v128.32c0 7.09-5.75 12.82-12.85 12.82h-176.62c-7.08 0-12.83-5.73-12.83-12.82v-128.32c0-7.09 5.75-12.83 12.83-12.83h176.62c7.1 0 12.85 5.74 12.85 12.83zm-18.63 115.49v-110.2h-164.56v110.2z" fill="#7a7878"/><path d="m299.65 377.44c2.89 0 5.24 2.35 5.24 5.25s-2.35 5.25-5.24 5.25c-2.9 0-5.25-2.35-5.25-5.25s2.35-5.25 5.25-5.25z" fill="#231f20"/><path d="m296.11 541.38 4.79 11.77h-22.37l4.8-11.77z" fill="#231f20"/><path d="m278.61 555.97 4.79 11.76h-22.37l4.8-11.76z" fill="#231f20"/><path d="m260.74 541.56 4.79 11.76h-22.36l4.79-11.76z" fill="#231f20"/><path d="m243.24 556.15 4.79 11.76h-22.36l4.79-11.76z" fill="#231f20"/><path d="m221.48 541.47 4.79 11.77h-22.35l4.79-11.77z" fill="#231f20"/><path d="m146.81 259.46h164.56v110.2h-164.56z" fill="#fff"/><path d="m203.98 556.06 4.79 11.76h-22.36l4.79-11.76z" fill="#231f20"/><path d="m183.44 541.29 4.79 11.77h-22.36l4.79-11.77z" fill="#231f20"/><path d="m165.94 555.88 4.79 11.76h-22.36l4.79-11.76z" fill="#231f20"/><path d="m146.38 541.38 4.79 11.77h-22.36l4.79-11.77z" fill="#231f20"/><path d="m128.87 555.97 4.8 11.76h-22.37l4.8-11.76z" fill="#231f20"/><path d="m111.01 541.56 4.79 11.76h-22.36l4.79-11.76z" fill="#231f20"/><path d="m93.51 556.15 4.79 11.76h-22.36l4.79-11.76z" fill="#231f20"/><g fill="none"><path d="m343.11 305.66h176.78" stroke="#231f20" stroke-dasharray="17.8031" stroke-width="14"/><path d="m330 382.49c0 7.09-5.75 12.82-12.85 12.82h-176.62c-7.08 0-12.83-5.73-12.83-12.82v-128.32c0-7.09 5.75-12.83 12.83-12.83h176.62c7.1 0 12.85 5.74 12.85 12.83z" stroke="#231f20" stroke-width="14"/><path d="m146.81 259.46h164.56v110.2h-164.56z" stroke="#231f20" stroke-width="8.9016"/><path d="m192.86 428.22v-32.52h72.46v32.52" stroke="#231f20" stroke-width="14"/><path d="m265.32 428.22h92.96v94.21h-258.38v-94.21h92.96z" stroke="#231f20" stroke-width="14"/><path d="m256.26 479.23h79.62v14.31h-79.62z" stroke="#231f20" stroke-width="7"/><path d="m286.3 447.28h49.58v14.3h-49.58z" stroke="#231f20" stroke-width="7"/><path d="m76.94 589.83c-5.97 0-12.08-.95-10.81-10.82l10.17-39.39c1.55-7.521 4.83-10.811 10.81-10.811h275.52 6.06" stroke="#231f20" stroke-width="14"/><path d="m382.22 589.83c5.98 0 12.09-.96 10.81-10.82l-10.17-39.39c-1.54-7.53-4.83-10.83-10.81-10.83h-9.42" stroke="#231f20" stroke-width="14"/><path d="m160.46 576.14h136.35" stroke="#231f20" stroke-width="7"/><path d="m382.22 589.83h10.71v21.61h-326.56v-21.61h10.57 287.6 5.43z" stroke="#231f20" stroke-width="14"/><path d="m722.19 382.13c0 7.09-5.75 12.82-12.851 12.82h-176.619c-7.08 0-12.83-5.73-12.83-12.82v-76.47-51.85c0-7.09 5.75-12.84 12.83-12.84h176.62c7.101 0 12.851 5.75 12.851 12.84v128.32z" stroke="#231f20" stroke-width="14"/><path d="m703.55 369.3h-164.55v-64.35-45.85h164.55z" stroke="#231f20" stroke-width="8.9016"/><path d="m585.05 427.85v-32.52h72.46v32.52" stroke="#231f20" stroke-width="14"/><path d="m657.51 427.85h92.97v94.21h-258.39v-94.21h92.96z" stroke="#231f20" stroke-width="14"/><path d="m648.45 478.88h79.62v14.29h-79.62z" stroke="#231f20" stroke-width="7"/><path d="m678.48 446.92h49.59v14.29h-49.59z" stroke="#231f20" stroke-width="7"/><path d="m469.13 589.47c-5.97 0-12.07-.96-10.81-10.81l10.17-39.4c1.55-7.529 4.84-10.81 10.8-10.81h275.53 6.05" stroke="#231f20" stroke-width="14"/><path d="m774.41 589.47c5.97 0 12.09-.96 10.81-10.81l-10.18-39.4c-1.53-7.529-4.82-10.83-10.79-10.83h-9.43" stroke="#231f20" stroke-width="14"/><path d="m552.64 575.79h136.36" stroke="#231f20" stroke-width="7"/><path d="m774.41 589.47h10.71v21.61h-326.57v-21.61h10.58 287.6 5.43z" stroke="#231f20" stroke-width="14"/><path d="m538.68 304.95h.32 88.19" stroke="#231f20" stroke-width="14"/><path d="m597.26 277.33 30.52 27.72-30.58 27.71" stroke="#231f20" stroke-width="14"/><path d="m308.8 304.95h-88.51" stroke="#231f20" stroke-width="14"/><path d="m250.23 277.33-30.52 27.72 30.58 27.71" stroke="#231f20" stroke-width="14"/><path d="m0 0h850.394v850.394h-850.394z"/></g></svg>