<svg enable-background="new 0 0 850.394 850.394" height="850.394" viewBox="0 0 850.394 850.394" width="850.394" xmlns="http://www.w3.org/2000/svg"><path d="m465.96 654.83-319.18 81.39-78.12-494.05 31.32-4.13 68.77 457.52 280.94-66.94-2.06-11.07 3.96-.74 2.02 10.45.28-.05v-.01l2.39-.46 285.06-37.78-96.82-452.41 30.76-7.18 105.56 488.51z" fill="#fff"/><path d="m99.98 238.04-3.47-23.06 275.72-3.38 75.4 405.95 2.061 11.07-280.941 66.94zm142.12 123.4-16.27-112.63-87.5 2.08 16.97 122.08z" fill="#fff"/><path d="m644.52 136.55 96.82 452.41-285.06 37.78-75.89-419.01 259.25-93.98zm-4.24 145.76-27.14-120.23-82.62 28.89 24.461 111.14z" fill="#fff"/><path d="m613.14 162.08 27.14 120.23-85.3 19.8-24.46-111.14z" fill="#231f20"/><path d="m225.83 248.81 16.27 112.63-86.8 11.53-16.97-122.08z" fill="#231f20"/><g fill="none"><path d="m447.63 617.55 2.06 11.07-280.94 66.94-68.77-457.52-3.47-23.06 275.72-3.38z" stroke="#231f20" stroke-width="26.4064"/><path d="m105.03 237.37-5.05.67-31.32 4.13 78.12 494.05 319.18-81.39" stroke="#231f20" stroke-width="16.504"/><path d="m138.33 250.89 16.97 122.08 86.8-11.53-16.27-112.63z" stroke="#231f20" stroke-width="13.2032"/><path d="m256.63 257.11 90.28-7.78" stroke="#231f20" stroke-width="13.2032"/><path d="m260.55 291.18 90.28-14.01" stroke="#231f20" stroke-width="13.2032"/><path d="m265.98 323.88 90.29-14" stroke="#231f20" stroke-width="13.2032"/><path d="m270.65 351.89 90.29-14.01" stroke="#231f20" stroke-width="13.2032"/><path d="m283.16 400.37 90.29-14.01" stroke="#231f20" stroke-width="13.2032"/><path d="m287.08 428.21 90.28-14.01" stroke="#231f20" stroke-width="13.2032"/><path d="m292.52 460.92 90.28-20.24" stroke="#231f20" stroke-width="13.2032"/><path d="m297.18 488.93 90.29-20.24" stroke="#231f20" stroke-width="13.2032"/><path d="m309.83 531.1 90.28-20.24" stroke="#231f20" stroke-width="13.2032"/><path d="m313.74 558.93 90.28-20.23" stroke="#231f20" stroke-width="13.2032"/><path d="m319.18 585.42 90.28-20.24" stroke="#231f20" stroke-width="13.2032"/><path d="m323.85 613.42 90.28-20.23" stroke="#231f20" stroke-width="13.2032"/><path d="m166.44 421.99 90.29-14.01" stroke="#231f20" stroke-width="13.2032"/><path d="m170.36 449.83 90.28-14.01" stroke="#231f20" stroke-width="13.2032"/><path d="m175.79 482.54 90.29-20.24" stroke="#231f20" stroke-width="13.2032"/><path d="m180.46 510.55 90.29-20.24" stroke="#231f20" stroke-width="13.2032"/><path d="m192.95 558.7 90.28-20.24" stroke="#231f20" stroke-width="13.2032"/><path d="m196.87 586.53 90.28-20.23" stroke="#231f20" stroke-width="13.2032"/><path d="m202.3 613.02 90.28-20.24" stroke="#231f20" stroke-width="13.2032"/><path d="m206.97 641.02 90.28-20.24" stroke="#231f20" stroke-width="13.2032"/><path d="m456.28 626.74 285.06-37.78-96.82-452.41-4.88-22.8-259.25 93.98z" stroke="#231f20" stroke-width="26.4064"/><path d="m639.54 137.71 4.98-1.16 30.76-7.18 105.56 488.51-314.88 36.95-1.05.12" stroke="#231f20" stroke-width="16.504"/><path d="m613.14 162.08 27.14 120.23-85.3 19.8-24.46-111.14z" stroke="#231f20" stroke-width="13.2032"/><path d="m504.63 209.59-87.25 24.53" stroke="#231f20" stroke-width="13.2032"/><path d="m512.96 242.85-89.43 18.7" stroke="#231f20" stroke-width="13.2032"/><path d="m519.39 275.37-89.43 18.7" stroke="#231f20" stroke-width="13.2032"/><path d="m524.89 303.23-89.43 18.7" stroke="#231f20" stroke-width="13.2032"/><path d="m530.27 353.01-89.43 18.7" stroke="#231f20" stroke-width="13.2032"/><path d="m536.4 380.45-89.43 18.69" stroke="#231f20" stroke-width="13.2032"/><path d="m542.84 412.97-91.62 12.87" stroke="#231f20" stroke-width="13.2032"/><path d="m548.34 440.83-91.63 12.86" stroke="#231f20" stroke-width="13.2032"/><path d="m551.37 484.75-91.63 12.86" stroke="#231f20" stroke-width="13.2032"/><path d="m557.52 512.17-91.63 12.88" stroke="#231f20" stroke-width="13.2032"/><path d="m561.76 538.88-91.62 12.87" stroke="#231f20" stroke-width="13.2032"/><path d="m567.25 566.73-91.62 12.87" stroke="#231f20" stroke-width="13.2032"/><path d="m647.12 332.12-89.43 18.7" stroke="#231f20" stroke-width="13.2032"/><path d="m653.26 359.56-89.43 18.7" stroke="#231f20" stroke-width="13.2032"/><path d="m659.69 392.08-91.61 12.88" stroke="#231f20" stroke-width="13.2032"/><path d="m665.19 419.94-91.62 12.87" stroke="#231f20" stroke-width="13.2032"/><path d="m670.47 469.4-91.61 12.87" stroke="#231f20" stroke-width="13.2032"/><path d="m676.62 496.84-91.63 12.86" stroke="#231f20" stroke-width="13.2032"/><path d="m680.86 523.53-91.62 12.87" stroke="#231f20" stroke-width="13.2032"/><path d="m686.36 551.39-91.63 12.87" stroke="#231f20" stroke-width="13.2032"/><path d="m451.59 616.81 2.02 10.45 4.39 22.74" stroke="#231f20" stroke-width="33.0079"/><path d="m0 0h850.394v850.394h-850.394z"/></g></svg>