<svg enable-background="new 0 0 850.394 850.394" height="850.394" viewBox="0 0 850.394 850.394" width="850.394" xmlns="http://www.w3.org/2000/svg"><path d="m757.81 328.2v64.2h-.12v-.23h-72.88-72.87-72.88-72.87v-63.97z" fill="#ed1e29"/><path d="m684.81 610.79h72.881v72.88h-72.881z" fill="#fff"/><path d="m684.81 537.92h72.881v72.87h-72.881z" fill="#fff"/><path d="m684.81 465.04h72.881v72.88h-72.881z" fill="#fff"/><path d="m684.81 392.4h72.881v72.64h-72.881z" fill="#fff"/><path d="m611.94 610.79h72.869v72.88h-72.869z" fill="#fff"/><path d="m611.94 537.92h72.869v72.87h-72.869z" fill="#fff"/><path d="m611.94 465.04h72.869v72.88h-72.869z" fill="#fff"/><path d="m611.94 392.4h72.869v72.64h-72.869z" fill="#fff"/><path d="m539.06 610.79h72.881v72.88h-72.881z" fill="#fff"/><path d="m539.06 537.92h72.881v72.87h-72.881z" fill="#fff"/><path d="m539.06 465.04h72.881v72.88h-72.881z" fill="#fff"/><path d="m539.06 392.4h72.881v72.64h-72.881z" fill="#fff"/><path d="m466.19 610.79h72.869v72.88h-72.869z" fill="#fff"/><path d="m466.19 537.92h72.869v72.87h-72.869z" fill="#fff"/><path d="m466.19 465.04h72.869v72.88h-72.869z" fill="#fff"/><path d="m466.19 392.4h72.869v72.64h-72.869z" fill="#fff"/><path d="m381.55 328.2v64.2h-.12v-.23h-72.88-72.87-72.87-72.88v-63.97z" fill="#ed1e29"/><path d="m308.55 610.79h72.88v72.88h-72.88z" fill="#fff"/><path d="m308.55 537.92h72.88v72.87h-72.88z" fill="#fff"/><path d="m308.55 465.04h72.88v72.88h-72.88z" fill="#fff"/><path d="m308.55 392.4h72.88v72.64h-72.88z" fill="#fff"/><path d="m235.68 610.79h72.87v72.88h-72.87z" fill="#fff"/><path d="m235.68 537.92h72.87v72.87h-72.87z" fill="#fff"/><path d="m235.68 465.04h72.87v72.88h-72.87z" fill="#fff"/><path d="m235.68 392.4h72.87v72.64h-72.87z" fill="#fff"/><path d="m162.81 610.79h72.87v72.88h-72.87z" fill="#fff"/><path d="m162.81 537.92h72.87v72.87h-72.87z" fill="#fff"/><path d="m162.81 465.04h72.87v72.88h-72.87z" fill="#fff"/><path d="m162.81 392.4h72.87v72.64h-72.87z" fill="#fff"/><path d="m89.93 610.79h72.88v72.88h-72.88z" fill="#fff"/><path d="m89.93 537.92h72.88v72.87h-72.88z" fill="#fff"/><path d="m89.93 465.04h72.88v72.88h-72.88z" fill="#fff"/><path d="m89.93 392.4h72.88v72.64h-72.88z" fill="#fff"/><g fill="none"><path d="m89.93 392.17h72.88 72.87 72.87 72.88v.23 72.64 72.88 72.87 72.88h-72.88-72.87-72.87-72.88v-72.88-72.87-72.88-72.64" stroke="#231f20" stroke-width="21"/><path d="m89.93 610.79h72.88 72.87 72.87 72.88" stroke="#231f20" stroke-width="21"/><path d="m89.93 537.92h72.88 72.87 72.87 72.88" stroke="#231f20" stroke-width="21"/><path d="m89.93 465.04h72.88 72.87 72.87 72.88" stroke="#231f20" stroke-width="21"/><path d="m308.55 392.17v.23 72.64 72.88 72.87 72.88" stroke="#231f20" stroke-width="21"/><path d="m235.68 392.17v.23 72.64 72.88 72.87 72.88" stroke="#231f20" stroke-width="21"/><path d="m162.81 392.17v.23 72.64 72.88 72.87 72.88" stroke="#231f20" stroke-width="21"/><path d="m89.93 392.17v-63.97h291.62v64.2h-.12-72.88-72.87-72.87-72.88z" stroke="#231f20" stroke-width="21"/><path d="m101.7 312.58v11.41" stroke="#231f20" stroke-linecap="round" stroke-linejoin="round" stroke-width="21"/><path d="m127.95 312.58v11.41" stroke="#231f20" stroke-linecap="round" stroke-linejoin="round" stroke-width="21"/><path d="m154.82 312.62v11.42" stroke="#231f20" stroke-linecap="round" stroke-linejoin="round" stroke-width="21"/><path d="m181.06 312.71v11.41" stroke="#231f20" stroke-linecap="round" stroke-linejoin="round" stroke-width="21"/><path d="m207.93 312.89v11.41" stroke="#231f20" stroke-linecap="round" stroke-linejoin="round" stroke-width="21"/><path d="m235.68 312.97v11.41" stroke="#231f20" stroke-linecap="round" stroke-linejoin="round" stroke-width="21"/><path d="m261.92 312.97v11.41" stroke="#231f20" stroke-linecap="round" stroke-linejoin="round" stroke-width="21"/><path d="m288.79 313.01v11.42" stroke="#231f20" stroke-linecap="round" stroke-linejoin="round" stroke-width="21"/><path d="m315.03 313.1v11.41" stroke="#231f20" stroke-linecap="round" stroke-linejoin="round" stroke-width="21"/><path d="m341.9 313.28v11.41" stroke="#231f20" stroke-linecap="round" stroke-linejoin="round" stroke-width="21"/><path d="m369.95 312.63v11.41" stroke="#231f20" stroke-linecap="round" stroke-linejoin="round" stroke-width="21"/><path d="m466.19 392.17h72.87 72.88 72.87 72.88v.23 72.64 72.88 72.87 72.88h-72.88-72.87-72.88-72.87v-72.88-72.87-72.88-72.64" stroke="#231f20" stroke-width="21"/><path d="m466.19 610.79h72.87 72.88 72.87 72.88" stroke="#231f20" stroke-width="21"/><path d="m466.19 537.92h72.87 72.88 72.87 72.88" stroke="#231f20" stroke-width="21"/><path d="m466.19 465.04h72.87 72.88 72.87 72.88" stroke="#231f20" stroke-width="21"/><path d="m684.81 392.17v.23 72.64 72.88 72.87 72.88" stroke="#231f20" stroke-width="21"/><path d="m611.94 392.17v.23 72.64 72.88 72.87 72.88" stroke="#231f20" stroke-width="21"/><path d="m539.06 392.17v.23 72.64 72.88 72.87 72.88" stroke="#231f20" stroke-width="21"/><path d="m466.19 392.17v-63.97h291.62v64.2h-.12-72.88-72.87-72.88-72.87z" stroke="#231f20" stroke-width="21"/><path d="m477.96 312.58v11.41" stroke="#231f20" stroke-linecap="round" stroke-linejoin="round" stroke-width="21"/><path d="m504.21 312.58v11.41" stroke="#231f20" stroke-linecap="round" stroke-linejoin="round" stroke-width="21"/><path d="m531.08 312.62v11.42" stroke="#231f20" stroke-linecap="round" stroke-linejoin="round" stroke-width="21"/><path d="m557.33 312.71v11.41" stroke="#231f20" stroke-linecap="round" stroke-linejoin="round" stroke-width="21"/><path d="m584.19 312.89v11.41" stroke="#231f20" stroke-linecap="round" stroke-linejoin="round" stroke-width="21"/><path d="m611.94 312.97v11.41" stroke="#231f20" stroke-linecap="round" stroke-linejoin="round" stroke-width="21"/><path d="m638.18 312.97v11.41" stroke="#231f20" stroke-linecap="round" stroke-linejoin="round" stroke-width="21"/><path d="m665.05 313.01v11.42" stroke="#231f20" stroke-linecap="round" stroke-linejoin="round" stroke-width="21"/><path d="m691.29 313.1v11.41" stroke="#231f20" stroke-linecap="round" stroke-linejoin="round" stroke-width="21"/><path d="m718.17 313.28v11.41" stroke="#231f20" stroke-linecap="round" stroke-linejoin="round" stroke-width="21"/><path d="m746.21 312.63v11.41" stroke="#231f20" stroke-linecap="round" stroke-linejoin="round" stroke-width="21"/><path d="m538.64 165.3-31.49 94.28-89.56-43.27" stroke="#231f20" stroke-width="21"/><path d="m301.92 220.72c10.16-42.27 52.37-77.54 95.86-77.54 54.98 0 102.97 44.91 102.97 109.03" stroke="#231f20" stroke-width="21"/><path d="m0 0h850.394v850.394h-850.394z"/></g></svg>