<svg enable-background="new 0 0 850.394 850.394" height="850.394" viewBox="0 0 850.394 850.394" width="850.394" xmlns="http://www.w3.org/2000/svg"><path d="m780.55 464.83v105.22h-68.47v-105.22zm-22.26 68.9v-5.69h-23v33.56h6.78v-14.25h14v-5.68h-14v-7.939h16.22zm1.01-34.02c0-7.22-5.85-13.06-13.05-13.06-7.22 0-13.06 5.84-13.06 13.06 0 7.2 5.84 13.04 13.06 13.04 7.2 0 13.05-5.84 13.05-13.04z" fill="#fff5b4"/><path d="m712.08 464.83v105.22h-68.46v-105.22zm-8.95 96.77v-14.25c0-2.18-.11-3.79-.33-4.83-.22-1.029-.64-1.979-1.24-2.829-.6-.86-1.5-1.561-2.689-2.11-1.19-.55-2.53-.82-4.01-.82-2.891 0-5.37 1.221-7.45 3.65v-12.37h-6.44v33.56h6.44v-12.18c0-2.04.2-3.59.59-4.63.28-.79.7-1.42 1.25-1.91.18-.16.38-.31.59-.439.84-.521 1.79-.771 2.87-.771.93 0 1.7.2 2.32.6.62.41 1.05.95 1.3 1.641.24.689.36 2.3.36 4.85v12.84h6.439zm-12.45-61.96c0-7.21-5.84-13.06-13.06-13.06-7.21 0-13.05 5.85-13.05 13.06s5.84 13.061 13.05 13.061c7.22-.001 13.06-5.851 13.06-13.061zm-13.94 34.09v-5.69h-26.69v5.69h9.97v27.87h6.78v-27.87z" fill="#fff5b4"/><path d="m643.62 464.83v105.22h-68.54v-105.22zm-20.86 96.77 8.16-33.56h-6.83l-5.16 23.44-5.899-23.44h-8.07l-6.12 23.05-5.02-23.05h-6.971l7.94 33.56h7.41l6.67-25.09 6.67 25.09zm-.34-61.96c0-7.22-5.84-13.06-13.05-13.06s-13.05 5.84-13.05 13.06c0 7.2 5.84 13.051 13.05 13.051s13.05-5.851 13.05-13.051z" fill="#fff5b4"/><path d="m575.08 464.83v105.22h-68.47v-105.22zm-20.69 68.9v-5.69h-26.69v5.69h9.97v27.87h6.78v-27.87zm-.43-34.09c0-7.22-5.84-13.06-13.05-13.06-7.22 0-13.061 5.84-13.061 13.06 0 7.2 5.841 13.051 13.061 13.051 7.21-.001 13.05-5.851 13.05-13.051z" fill="#fff5b4"/><path d="m506.61 464.83v105.22h-68.47v-105.22zm-18.15 96.77v-33.56h-10.16l-6.01 22.89-6.06-22.89h-10.14v33.56h6.28l.01-26.42 6.61 26.42h6.52l6.65-26.42.02 26.42zm-3.23-61.96c0-7.22-5.851-13.06-13.061-13.06s-13.05 5.84-13.05 13.06c0 7.2 5.84 13.051 13.05 13.051s13.061-5.851 13.061-13.051z" fill="#fff5b4"/><path d="m758.29 528.04v5.69h-16.22v7.94h14v5.68h-14v14.25h-6.78v-33.56z" fill="#231f20"/><path d="m746.25 486.65c7.2 0 13.05 5.84 13.05 13.06 0 7.2-5.85 13.04-13.05 13.04-7.22 0-13.06-5.84-13.06-13.04 0-7.22 5.84-13.06 13.06-13.06z" fill="#fbed24"/><path d="m703.13 547.35v14.25h-6.439v-12.84c0-2.55-.12-4.16-.36-4.85-.25-.69-.68-1.23-1.3-1.641-.62-.399-1.391-.6-2.32-.6-1.08 0-2.03.25-2.87.771-.21.13-.41.279-.59.439l-1.84-2.47c2.08-2.43 4.56-3.65 7.45-3.65 1.479 0 2.819.271 4.01.82 1.189.55 2.09 1.25 2.689 2.11.601.85 1.021 1.8 1.24 2.829.22 1.042.33 2.652.33 4.832z" fill="#231f20"/><path d="m687.41 540.41 1.84 2.47c-.55.49-.97 1.12-1.25 1.91-.39 1.04-.59 2.59-.59 4.63v12.18h-6.44v-33.56h6.44z" fill="#231f20"/><path d="m677.62 486.58c7.22 0 13.06 5.85 13.06 13.06s-5.84 13.061-13.06 13.061c-7.21 0-13.05-5.851-13.05-13.061s5.84-13.06 13.05-13.06z" fill="#fbed24"/><path d="m676.74 528.04v5.69h-9.94v27.87h-6.78v-27.87h-9.97v-5.69z" fill="#231f20"/><path d="m630.92 528.04-8.16 33.56h-7.22l-6.67-25.09-6.67 25.09h-7.41l-7.94-33.56h6.97l5.02 23.05 6.12-23.05h8.07l5.9 23.44 5.16-23.44z" fill="#231f20"/><path d="m609.37 486.58c7.21 0 13.05 5.84 13.05 13.06 0 7.2-5.84 13.051-13.05 13.051s-13.05-5.851-13.05-13.051c0-7.22 5.84-13.06 13.05-13.06z" fill="#fbed24"/><path d="m554.39 528.04v5.69h-9.94v27.87h-6.78v-27.87h-9.97v-5.69z" fill="#231f20"/><path d="m540.91 486.58c7.21 0 13.05 5.84 13.05 13.06 0 7.2-5.84 13.051-13.05 13.051-7.22 0-13.061-5.851-13.061-13.051.001-7.22 5.841-13.06 13.061-13.06z" fill="#fbed24"/><path d="m488.46 528.04v33.56h-6.28l-.02-26.42-6.65 26.42h-6.52l-6.61-26.42-.01 26.42h-6.28v-33.56h10.14l6.06 22.89 6.01-22.89z" fill="#231f20"/><path d="m472.17 486.58c7.21 0 13.061 5.84 13.061 13.06 0 7.2-5.851 13.051-13.061 13.051s-13.05-5.851-13.05-13.051c0-7.22 5.84-13.06 13.05-13.06z" fill="#fbed24"/><path d="m411.3 464.83v105.22h-68.46v-105.22zm-22.25 68.9v-5.69h-23v33.56h6.78v-14.25h14v-5.68h-14v-7.939h16.22zm1-34.02c0-7.22-5.84-13.06-13.04-13.06-7.22 0-13.06 5.84-13.06 13.06 0 7.2 5.84 13.04 13.06 13.04 7.2 0 13.04-5.84 13.04-13.04z" fill="#fff5b4"/><path d="m389.05 528.04v5.69h-16.22v7.94h14v5.68h-14v14.25h-6.78v-33.56z" fill="#231f20"/><path d="m377.01 486.65c7.2 0 13.04 5.84 13.04 13.06 0 7.2-5.84 13.04-13.04 13.04-7.22 0-13.06-5.84-13.06-13.04 0-7.22 5.84-13.06 13.06-13.06z" fill="#fbed24"/><path d="m342.84 464.83v105.22h-68.46v-105.22zm-8.96 96.77v-14.25c0-2.18-.11-3.79-.33-4.83-.22-1.029-.63-1.979-1.24-2.829-.6-.86-1.5-1.561-2.69-2.11s-2.53-.82-4.01-.82c-2.88 0-5.37 1.221-7.44 3.65v-12.37h-6.44v33.56h6.44v-12.18c0-2.04.19-3.59.58-4.63.29-.79.71-1.42 1.26-1.91.18-.16.38-.31.59-.439.84-.521 1.79-.771 2.86-.771.93 0 1.71.2 2.33.6.61.41 1.05.95 1.29 1.641.24.689.37 2.3.37 4.85v12.84h6.43zm-12.44-61.96c0-7.21-5.84-13.06-13.06-13.06-7.21 0-13.05 5.85-13.05 13.06s5.84 13.061 13.05 13.061c7.22-.001 13.06-5.851 13.06-13.061zm-13.94 34.09v-5.69h-26.69v5.69h9.97v27.87h6.78v-27.87z" fill="#fff5b4"/><path d="m333.88 547.35v14.25h-6.43v-12.84c0-2.55-.13-4.16-.37-4.85s-.68-1.23-1.29-1.641c-.62-.399-1.4-.6-2.33-.6-1.07 0-2.02.25-2.86.771-.21.13-.41.279-.59.439l-1.84-2.47c2.07-2.43 4.56-3.65 7.44-3.65 1.48 0 2.82.271 4.01.82s2.09 1.25 2.69 2.11c.61.85 1.02 1.8 1.24 2.829.22 1.042.33 2.652.33 4.832z" fill="#231f20"/><path d="m318.17 540.41 1.84 2.47c-.55.49-.97 1.12-1.26 1.91-.39 1.04-.58 2.59-.58 4.63v12.18h-6.44v-33.56h6.44z" fill="#231f20"/><path d="m308.38 486.58c7.22 0 13.06 5.85 13.06 13.06s-5.84 13.06-13.06 13.06c-7.21 0-13.05-5.851-13.05-13.061s5.84-13.059 13.05-13.059z" fill="#fbed24"/><path d="m307.5 528.04v5.69h-9.94v27.87h-6.78v-27.87h-9.97v-5.69z" fill="#231f20"/><path d="m274.38 464.83v105.22h-68.55v-105.22zm-20.87 96.77 8.16-33.56h-6.82l-5.16 23.44-5.9-23.44h-8.07l-6.12 23.05-5.02-23.05h-6.97l7.94 33.56h7.41l6.67-25.09 6.67 25.09zm-.33-61.96c0-7.22-5.85-13.06-13.05-13.06-7.22 0-13.05 5.84-13.05 13.06 0 7.2 5.83 13.051 13.05 13.051 7.2-.001 13.05-5.851 13.05-13.051z" fill="#fff5b4"/><path d="m261.67 528.04-8.16 33.56h-7.21l-6.67-25.09-6.67 25.09h-7.41l-7.94-33.56h6.97l5.02 23.05 6.12-23.05h8.07l5.9 23.44 5.16-23.44z" fill="#231f20"/><path d="m240.13 486.58c7.2 0 13.05 5.84 13.05 13.06 0 7.2-5.85 13.051-13.05 13.051-7.22 0-13.05-5.851-13.05-13.051 0-7.22 5.83-13.06 13.05-13.06z" fill="#fbed24"/><path d="m205.83 464.83v105.22h-68.47v-105.22zm-20.69 68.9v-5.69h-26.68v5.69h9.97v27.87h6.78v-27.87zm-.42-34.09c0-7.22-5.84-13.06-13.05-13.06-7.22 0-13.06 5.84-13.06 13.06 0 7.2 5.84 13.051 13.06 13.051 7.21-.001 13.05-5.851 13.05-13.051z" fill="#fff5b4"/><path d="m185.14 528.04v5.69h-9.93v27.87h-6.78v-27.87h-9.97v-5.69z" fill="#231f20"/><path d="m171.67 486.58c7.21 0 13.05 5.84 13.05 13.06 0 7.2-5.84 13.051-13.05 13.051-7.22 0-13.06-5.851-13.06-13.051 0-7.22 5.84-13.06 13.06-13.06z" fill="#fbed24"/><path d="m137.36 464.83v105.22h-68.46v-105.22zm-18.14 96.77v-33.56h-10.16l-6.01 22.89-6.06-22.89h-10.15v33.56h6.29l.01-26.42 6.61 26.42h6.51l6.66-26.42.02 26.42zm-3.24-61.96c0-7.22-5.84-13.06-13.05-13.06-7.22 0-13.05 5.84-13.05 13.06 0 7.2 5.83 13.051 13.05 13.051 7.21-.001 13.05-5.851 13.05-13.051z" fill="#fff5b4"/><path d="m119.22 528.04v33.56h-6.28l-.02-26.42-6.66 26.42h-6.51l-6.61-26.42-.01 26.42h-6.29v-33.56h10.15l6.06 22.89 6.01-22.89z" fill="#231f20"/><path d="m102.93 486.58c7.21 0 13.05 5.84 13.05 13.06 0 7.2-5.84 13.051-13.05 13.051-7.22 0-13.05-5.851-13.05-13.051 0-7.22 5.83-13.06 13.05-13.06z" fill="#fbed24"/><g fill="none"><path d="m485.23 499.64c0 7.2-5.851 13.051-13.061 13.051s-13.05-5.851-13.05-13.051c0-7.22 5.84-13.06 13.05-13.06s13.061 5.84 13.061 13.06z" stroke="#231f20" stroke-width="6.4761"/><path d="m472.06 484.19v-9.92" stroke="#231f20" stroke-width="6.4761"/><path d="m464.15 486.12-5.49-8.26" stroke="#231f20" stroke-width="6.4761"/><path d="m458.46 492.24-9-4.21" stroke="#231f20" stroke-width="6.4761"/><path d="m480.27 485.98 5.49-8.28" stroke="#231f20" stroke-width="6.4761"/><path d="m485.96 492.08 9-4.2" stroke="#231f20" stroke-width="6.4761"/><path d="m479.94 513.24 5.49 8.27" stroke="#231f20" stroke-width="6.4761"/><path d="m485.63 507.13 9 4.21" stroke="#231f20" stroke-width="6.4761"/><path d="m463.82 513.4-5.49 8.28" stroke="#231f20" stroke-width="6.4761"/><path d="m458.13 507.3-9 4.2" stroke="#231f20" stroke-width="6.4761"/><path d="m456.61 499.78h-9.94" stroke="#231f20" stroke-width="6.4761"/><path d="m497.51 499.78h-9.94" stroke="#231f20" stroke-width="6.4761"/><path d="m472.06 524.79v-9.94" stroke="#231f20" stroke-width="6.4761"/><path d="m553.96 499.64c0 7.2-5.84 13.051-13.05 13.051-7.22 0-13.061-5.851-13.061-13.051 0-7.22 5.841-13.06 13.061-13.06 7.21 0 13.05 5.84 13.05 13.06z" stroke="#231f20" stroke-width="6.4761"/><path d="m540.8 484.19v-9.92" stroke="#231f20" stroke-width="6.4761"/><path d="m532.88 486.12-5.48-8.26" stroke="#231f20" stroke-width="6.4761"/><path d="m527.19 492.24-8.99-4.21" stroke="#231f20" stroke-width="6.4761"/><path d="m549.01 485.98 5.49-8.28" stroke="#231f20" stroke-width="6.4761"/><path d="m554.69 492.08 9-4.2" stroke="#231f20" stroke-width="6.4761"/><path d="m548.68 513.24 5.49 8.27" stroke="#231f20" stroke-width="6.4761"/><path d="m554.37 507.13 9 4.21" stroke="#231f20" stroke-width="6.4761"/><path d="m532.55 513.4-5.48 8.28" stroke="#231f20" stroke-width="6.4761"/><path d="m526.87 507.3-9 4.2" stroke="#231f20" stroke-width="6.4761"/><path d="m525.34 499.78h-9.92" stroke="#231f20" stroke-width="6.4761"/><path d="m566.25 499.78h-9.94" stroke="#231f20" stroke-width="6.4761"/><path d="m540.8 524.79v-9.94" stroke="#231f20" stroke-width="6.4761"/><path d="m622.42 499.64c0 7.2-5.84 13.051-13.05 13.051s-13.05-5.851-13.05-13.051c0-7.22 5.84-13.06 13.05-13.06s13.05 5.84 13.05 13.06z" stroke="#231f20" stroke-width="6.4761"/><path d="m609.26 484.19v-9.92" stroke="#231f20" stroke-width="6.4761"/><path d="m601.34 486.12-5.49-8.26" stroke="#231f20" stroke-width="6.4761"/><path d="m595.65 492.24-8.99-4.21" stroke="#231f20" stroke-width="6.4761"/><path d="m617.46 485.98 5.49-8.28" stroke="#231f20" stroke-width="6.4761"/><path d="m623.16 492.08 8.99-4.2" stroke="#231f20" stroke-width="6.4761"/><path d="m617.14 513.24 5.49 8.27" stroke="#231f20" stroke-width="6.4761"/><path d="m622.83 507.13 9 4.21" stroke="#231f20" stroke-width="6.4761"/><path d="m601.02 513.4-5.49 8.28" stroke="#231f20" stroke-width="6.4761"/><path d="m595.33 507.3-9 4.2" stroke="#231f20" stroke-width="6.4761"/><path d="m593.81 499.78h-9.94" stroke="#231f20" stroke-width="6.4761"/><path d="m634.7 499.78h-9.93" stroke="#231f20" stroke-width="6.4761"/><path d="m609.26 524.79v-9.94" stroke="#231f20" stroke-width="6.4761"/><path d="m690.68 499.64c0 7.21-5.84 13.061-13.06 13.061-7.21 0-13.05-5.851-13.05-13.061s5.84-13.06 13.05-13.06c7.22 0 13.06 5.85 13.06 13.06z" stroke="#231f20" stroke-width="6.4761"/><path d="m677.52 484.21v-9.94" stroke="#231f20" stroke-width="6.4761"/><path d="m669.6 486.14-5.48-8.28" stroke="#231f20" stroke-width="6.4761"/><path d="m663.92 492.25-9-4.21" stroke="#231f20" stroke-width="6.4761"/><path d="m685.73 485.98 5.49-8.27" stroke="#231f20" stroke-width="6.4761"/><path d="m691.42 492.09 8.99-4.21" stroke="#231f20" stroke-width="6.4761"/><path d="m685.4 513.24 5.49 8.28" stroke="#231f20" stroke-width="6.4761"/><path d="m691.09 507.14 8.99 4.2" stroke="#231f20" stroke-width="6.4761"/><path d="m669.28 513.41-5.49 8.28" stroke="#231f20" stroke-width="6.4761"/><path d="m663.59 507.3-9 4.2" stroke="#231f20" stroke-width="6.4761"/><path d="m662.07 499.79h-9.94" stroke="#231f20" stroke-width="6.4761"/><path d="m702.96 499.79h-9.93" stroke="#231f20" stroke-width="6.4761"/><path d="m677.52 524.8v-9.93" stroke="#231f20" stroke-width="6.4761"/><path d="m759.3 499.71c0 7.2-5.85 13.04-13.05 13.04-7.22 0-13.06-5.84-13.06-13.04 0-7.22 5.84-13.06 13.06-13.06 7.2 0 13.05 5.84 13.05 13.06z" stroke="#231f20" stroke-width="6.4761"/><path d="m746.14 484.27v-9.94" stroke="#231f20" stroke-width="6.4761"/><path d="m738.22 486.2-5.48-8.27" stroke="#231f20" stroke-width="6.4761"/><path d="m732.54 492.31-9.01-4.21" stroke="#231f20" stroke-width="6.4761"/><path d="m754.35 486.05 5.48-8.29" stroke="#231f20" stroke-width="6.4761"/><path d="m760.04 492.14 8.99-4.2" stroke="#231f20" stroke-width="6.4761"/><path d="m754.01 513.31 5.49 8.27" stroke="#231f20" stroke-width="6.4761"/><path d="m759.71 507.21 9 4.2" stroke="#231f20" stroke-width="6.4761"/><path d="m737.9 513.47-5.49 8.28" stroke="#231f20" stroke-width="6.4761"/><path d="m732.21 507.37-9 4.2" stroke="#231f20" stroke-width="6.4761"/><path d="m730.68 499.86h-9.93" stroke="#231f20" stroke-width="6.4761"/><path d="m771.58 499.86h-9.93" stroke="#231f20" stroke-width="6.4761"/><path d="m746.14 524.87v-9.95" stroke="#231f20" stroke-width="6.4761"/><path d="m506.61 570.05h-68.47v-105.22h68.47 68.47 68.54 68.46 68.47v105.22h-68.47-68.46-68.54z" stroke="#231f20" stroke-width="12.9522"/><path d="m712.08 464.83v105.22" stroke="#231f20" stroke-width="12.9522"/><path d="m643.62 464.83v105.22" stroke="#231f20" stroke-width="12.9522"/><path d="m575.08 464.83v105.22" stroke="#231f20" stroke-width="12.9522"/><path d="m506.61 464.83v105.22" stroke="#231f20" stroke-width="12.9522"/><path d="m115.98 499.64c0 7.2-5.84 13.051-13.05 13.051-7.22 0-13.05-5.851-13.05-13.051 0-7.22 5.83-13.06 13.05-13.06 7.21 0 13.05 5.84 13.05 13.06z" stroke="#231f20" stroke-width="6.4761"/><path d="m102.83 484.19v-9.92" stroke="#231f20" stroke-width="6.4761"/><path d="m94.9 486.12-5.48-8.26" stroke="#231f20" stroke-width="6.4761"/><path d="m89.22 492.24-9-4.21" stroke="#231f20" stroke-width="6.4761"/><path d="m111.03 485.98 5.49-8.28" stroke="#231f20" stroke-width="6.4761"/><path d="m116.72 492.08 9-4.2" stroke="#231f20" stroke-width="6.4761"/><path d="m110.7 513.24 5.49 8.27" stroke="#231f20" stroke-width="6.4761"/><path d="m116.39 507.13 9 4.21" stroke="#231f20" stroke-width="6.4761"/><path d="m94.58 513.4-5.49 8.28" stroke="#231f20" stroke-width="6.4761"/><path d="m88.89 507.3-9 4.2" stroke="#231f20" stroke-width="6.4761"/><path d="m87.37 499.78h-9.94" stroke="#231f20" stroke-width="6.4761"/><path d="m128.27 499.78h-9.94" stroke="#231f20" stroke-width="6.4761"/><path d="m102.83 524.79v-9.94" stroke="#231f20" stroke-width="6.4761"/><path d="m184.72 499.64c0 7.2-5.84 13.051-13.05 13.051-7.22 0-13.06-5.851-13.06-13.051 0-7.22 5.84-13.06 13.06-13.06 7.21 0 13.05 5.84 13.05 13.06z" stroke="#231f20" stroke-width="6.4761"/><path d="m171.56 484.19v-9.92" stroke="#231f20" stroke-width="6.4761"/><path d="m163.64 486.12-5.48-8.26" stroke="#231f20" stroke-width="6.4761"/><path d="m157.96 492.24-9-4.21" stroke="#231f20" stroke-width="6.4761"/><path d="m179.77 485.98 5.49-8.28" stroke="#231f20" stroke-width="6.4761"/><path d="m185.45 492.08 9-4.2" stroke="#231f20" stroke-width="6.4761"/><path d="m179.44 513.24 5.49 8.27" stroke="#231f20" stroke-width="6.4761"/><path d="m185.13 507.13 9 4.21" stroke="#231f20" stroke-width="6.4761"/><path d="m163.31 513.4-5.48 8.28" stroke="#231f20" stroke-width="6.4761"/><path d="m157.63 507.3-9 4.2" stroke="#231f20" stroke-width="6.4761"/><path d="m156.1 499.78h-9.92" stroke="#231f20" stroke-width="6.4761"/><path d="m197.01 499.78h-9.94" stroke="#231f20" stroke-width="6.4761"/><path d="m171.56 524.79v-9.94" stroke="#231f20" stroke-width="6.4761"/><path d="m253.18 499.64c0 7.2-5.85 13.051-13.05 13.051-7.22 0-13.05-5.851-13.05-13.051 0-7.22 5.83-13.06 13.05-13.06 7.2 0 13.05 5.84 13.05 13.06z" stroke="#231f20" stroke-width="6.4761"/><path d="m240.03 484.19v-9.92" stroke="#231f20" stroke-width="6.4761"/><path d="m232.1 486.12-5.49-8.26" stroke="#231f20" stroke-width="6.4761"/><path d="m226.41 492.24-9-4.21" stroke="#231f20" stroke-width="6.4761"/><path d="m248.22 485.98 5.49-8.28" stroke="#231f20" stroke-width="6.4761"/><path d="m253.91 492.08 9-4.2" stroke="#231f20" stroke-width="6.4761"/><path d="m247.9 513.24 5.49 8.27" stroke="#231f20" stroke-width="6.4761"/><path d="m253.59 507.13 9 4.21" stroke="#231f20" stroke-width="6.4761"/><path d="m231.78 513.4-5.49 8.28" stroke="#231f20" stroke-width="6.4761"/><path d="m226.09 507.3-9 4.2" stroke="#231f20" stroke-width="6.4761"/><path d="m224.57 499.78h-9.94" stroke="#231f20" stroke-width="6.4761"/><path d="m265.46 499.78h-9.93" stroke="#231f20" stroke-width="6.4761"/><path d="m240.03 524.79v-9.94" stroke="#231f20" stroke-width="6.4761"/><path d="m321.44 499.64c0 7.21-5.84 13.061-13.06 13.061-7.21 0-13.05-5.851-13.05-13.061s5.84-13.06 13.05-13.06c7.22 0 13.06 5.85 13.06 13.06z" stroke="#231f20" stroke-width="6.4761"/><path d="m308.28 484.21v-9.94" stroke="#231f20" stroke-width="6.4761"/><path d="m300.36 486.14-5.49-8.28" stroke="#231f20" stroke-width="6.4761"/><path d="m294.68 492.25-9-4.21" stroke="#231f20" stroke-width="6.4761"/><path d="m316.49 485.98 5.49-8.27" stroke="#231f20" stroke-width="6.4761"/><path d="m322.18 492.09 8.99-4.21" stroke="#231f20" stroke-width="6.4761"/><path d="m316.16 513.24 5.48 8.28" stroke="#231f20" stroke-width="6.4761"/><path d="m321.85 507.14 8.99 4.2" stroke="#231f20" stroke-width="6.4761"/><path d="m300.03 513.41-5.49 8.28" stroke="#231f20" stroke-width="6.4761"/><path d="m294.35 507.3-9 4.2" stroke="#231f20" stroke-width="6.4761"/><path d="m292.82 499.79h-9.93" stroke="#231f20" stroke-width="6.4761"/><path d="m333.72 499.79h-9.93" stroke="#231f20" stroke-width="6.4761"/><path d="m308.28 524.8v-9.93" stroke="#231f20" stroke-width="6.4761"/><path d="m390.05 499.71c0 7.2-5.84 13.04-13.04 13.04-7.22 0-13.06-5.84-13.06-13.04 0-7.22 5.84-13.06 13.06-13.06 7.2 0 13.04 5.84 13.04 13.06z" stroke="#231f20" stroke-width="6.4761"/><path d="m376.9 484.27v-9.94" stroke="#231f20" stroke-width="6.4761"/><path d="m368.98 486.2-5.48-8.27" stroke="#231f20" stroke-width="6.4761"/><path d="m363.3 492.31-9.01-4.21" stroke="#231f20" stroke-width="6.4761"/><path d="m385.11 486.05 5.48-8.29" stroke="#231f20" stroke-width="6.4761"/><path d="m390.79 492.14 9-4.2" stroke="#231f20" stroke-width="6.4761"/><path d="m384.77 513.31 5.49 8.27" stroke="#231f20" stroke-width="6.4761"/><path d="m390.47 507.21 9 4.2" stroke="#231f20" stroke-width="6.4761"/><path d="m368.66 513.47-5.49 8.28" stroke="#231f20" stroke-width="6.4761"/><path d="m362.97 507.37-9 4.2" stroke="#231f20" stroke-width="6.4761"/><path d="m361.44 499.86h-9.93" stroke="#231f20" stroke-width="6.4761"/><path d="m402.34 499.86h-9.93" stroke="#231f20" stroke-width="6.4761"/><path d="m376.9 524.87v-9.95" stroke="#231f20" stroke-width="6.4761"/><path d="m137.36 570.05h-68.46v-105.22h68.46 68.47 68.55 68.46 68.46v105.22h-68.46-68.46-68.55z" stroke="#231f20" stroke-width="12.9522"/><path d="m342.84 464.83v105.22" stroke="#231f20" stroke-width="12.9522"/><path d="m274.38 464.83v105.22" stroke="#231f20" stroke-width="12.9522"/><path d="m205.83 464.83v105.22" stroke="#231f20" stroke-width="12.9522"/><path d="m137.36 464.83v105.22" stroke="#231f20" stroke-width="12.9522"/><path d="m562.616 297.779-31.318 93.758-89.071-43.027" stroke="#231f20" stroke-width="21"/><path d="m327.2 352.899c10.1-42.044 52.074-77.116 95.333-77.116 54.673 0 102.403 44.666 102.403 108.424" stroke="#231f20" stroke-width="21"/><path d="m0 0h850.394v850.394h-850.394z"/></g></svg>