<svg enable-background="new 0 0 850.394 850.394" height="850.394" viewBox="0 0 850.394 850.394" width="850.394" xmlns="http://www.w3.org/2000/svg"><path d="m630.33 397.96-28.79 28.06 6.79 39.63-35.59-18.71-35.58 18.71 6.8-39.63-28.79-28.06 39.78-5.78 17.79-36.06 17.81 36.06z" fill="#fff5b4"/><path d="m485.32 526.22-24.22 6.26c-14.369 3.539-29.39 5.42-44.84 5.42-103.16 0-186.77-83.631-186.77-186.76 0-103.18 83.61-186.79 186.77-186.79 12.021 0 23.771 1.13 35.17 3.3 0 0-47.25 17.71-73.59 56.37 0 0-43.01 45.58-43.01 127.12 0 85.71 71.76 153.11 150.49 175.08z" fill="#fff5b4"/><path d="m540.89 257.53-28.78 28.06 6.79 39.63-35.58-18.71-35.6 18.71 6.8-39.63-28.79-28.06 39.8-5.78 17.79-36.06 17.79 36.06z" fill="#fff5b4"/><path d="m754 654v1.76h-665.37l-.63-575.76 664-2zm-152.46-227.98 28.79-28.06-39.78-5.78-17.81-36.06-17.79 36.06-39.78 5.78 28.79 28.06-6.8 39.631 35.58-18.71 35.59 18.71zm-89.43-140.43 28.779-28.06-39.779-5.78-17.79-36.06-17.79 36.06-39.8 5.78 28.79 28.06-6.8 39.63 35.601-18.71 35.58 18.71zm-51.01 246.89 24.221-6.261c-78.73-21.97-150.49-89.37-150.49-175.08 0-81.54 43.01-127.12 43.01-127.12 26.34-38.66 73.59-56.37 73.59-56.37-11.399-2.17-23.149-3.3-35.17-3.3-103.16 0-186.77 83.61-186.77 186.79 0 103.129 83.61 186.76 186.77 186.76 15.449.001 30.469-1.879 44.839-5.419z" fill="#394ea1"/><g fill="none"><path d="m760.37 655.76h-6.37-665.37" stroke="#231f20" stroke-width="21.669"/><path d="m334.83 351.14c0 85.709 71.76 153.11 150.49 175.08l-24.22 6.26c-14.369 3.539-29.39 5.42-44.84 5.42-103.16 0-186.77-83.631-186.77-186.76 0-103.18 83.61-186.79 186.77-186.79 12.021 0 23.771 1.13 35.17 3.3 0 0-47.25 17.71-73.59 56.37 0 0-43.01 45.58-43.01 127.12z" stroke="#231f20" stroke-width="21.669"/><path d="m483.32 215.69 17.79 36.06 39.78 5.78-28.78 28.06 6.79 39.63-35.58-18.71-35.6 18.71 6.8-39.63-28.79-28.06 39.8-5.78z" stroke="#231f20" stroke-width="21.669"/><path d="m572.74 356.12 17.81 36.06 39.78 5.78-28.79 28.06 6.79 39.63-35.59-18.71-35.58 18.71 6.8-39.63-28.79-28.06 39.78-5.78z" stroke="#231f20" stroke-width="21.669"/><path d="m0 0h850.394v850.394h-850.394z"/><path d="m0 0h850.394v850.394h-850.394z"/></g></svg>