<svg enable-background="new 0 0 850.629 850.633" height="850.633" viewBox="0 0 850.629 850.633" width="850.629" xmlns="http://www.w3.org/2000/svg"><path d="m699.109 551.495c-1.276 3.854-4.157 6.372-9.581 5.742-6.096-.715-17.405-19.508-23.77-29.886-3.36-5.485-4.513-7.688 1.046-13.517.807-.84 1.699-1.622 2.669-2.338l-.479-.629s-10.455-4.073-7.815-14.862c1.901-7.765 4.714-10.483 10.244-13.87l-.894-1.001s-35.193-7.937-46.474-11.104c-12.979-3.635-10.743-21.177-5.703-25.193.941-.753 4.253-1.049 9.024-1.04.586-3.624 4.08-11.446 23.213-12.267 24.971-1.078 77.349-1.431 77.349-1.431s12.029-1.164 29.569 16.063c22.051 21.635 38.756 32.07 41.434 57.893 2.305 22.313-8.602 68.453-7.267 87.646l-2.631.2-73.058 67.365c-11.318-18.964-19.556-35.79-18.058-56.156 1.729-23.418 1.212-50.432 1.182-51.615z" fill="#ffeec8"/><path d="m587.689 401.445 1.565-.019c3.965-1.402 8.391-1.889 13.219-1.116 1.057.162 2.055.391 2.986.677 15.11 4.588 12.644 23.361 7.872 33.005-12.279 24.916-6.653 34.073-8.218 53.085-.604 7.222-8.89 21.263-26.219 17.981l-.921-.258c6.183-21.425 9.83-43.976 9.83-66.907 0-12.649-.163-21.511-.557-36.449h.443z" fill="#ffeec8"/><path d="m568.173 354.703c.797 1.307 1.612 2.661 2.419 4.044-.817-1.383-1.622-2.737-2.419-4.044z" fill="#9c5c25"/><path d="m566.973 352.767c.403.629.797 1.278 1.2 1.937-.403-.659-.807-1.308-1.2-1.937z" fill="#9c5c25"/><path d="m565.792 350.897c.394.61.787 1.23 1.181 1.87-.394-.64-.787-1.26-1.181-1.87z" fill="#9c5c25"/><path d="m564.63 349.084c.384.591.778 1.192 1.162 1.813-.394-.62-.778-1.221-1.162-1.813z" fill="#9c5c25"/><path d="m563.497 347.348c.375.573.749 1.145 1.133 1.736-.384-.591-.768-1.163-1.133-1.736z" fill="#9c5c25"/><path d="m561.846 344.887c.538.792 1.095 1.612 1.651 2.461-.566-.848-1.113-1.669-1.651-2.461z" fill="#9c5c25"/><path d="m558.822 340.5c.787 1.106 1.622 2.318 2.496 3.605-.883-1.288-1.718-2.499-2.496-3.605z" fill="#9c5c25"/><path d="m557.478 338.601c.288.4.586.811.884 1.24-.308-.429-.605-.84-.884-1.24z" fill="#9c5c25"/><path d="m556.269 336.913c.384.524.787 1.087 1.209 1.688-.432-.601-.835-1.164-1.209-1.688z" fill="#9c5c25"/><path d="m555.212 335.453c.327.448.682.935 1.057 1.459-.384-.525-.739-1.011-1.065-1.459-3.217-4.407-6.403-8.538-9.563-12.411 3.168 3.874 6.365 8.004 9.571 12.411z" fill="#9c5c25"/><path d="m531.683 307.303c4.55 4.703 9.216 9.93 13.958 15.739-4.743-5.809-9.417-11.036-13.958-15.739z" fill="#9c5c25"/><path d="m528.668 304.241c.998 1.001 2.006 2.022 3.015 3.062-1.018-1.04-2.017-2.06-3.015-3.062z" fill="#9c5c25"/><path d="m526.939 426.59c.049.496.049 1.03.039 1.669.01-.629.01-1.173-.039-1.669z" fill="#ffeec8"/><path d="m526.834 425.884c.048.229.087.458.105.696-.028-.238-.057-.467-.105-.696z" fill="#ffeec8"/><path d="m527.324 422.211-.816 2.623c.153.353.259.696.326 1.04-.076-.344-.183-.677-.336-1.04z" fill="#ffeec8"/><path d="m511.992 425.188c.365.172.711.382 1.027.62-.316-.229-.662-.439-1.027-.62z" fill="#231f20"/><path d="m508.901 435.995c3.58 0 6.479-2.575 6.479-5.752 0-1.784-.921-3.387-2.361-4.436-.316-.238-.662-.448-1.027-.62-.922-.448-1.978-.696-3.091-.696-1.114 0-2.17.248-3.092.696-.374.172-.72.382-1.036.62-1.44 1.049-2.362 2.651-2.362 4.436 0 3.177 2.909 5.752 6.49 5.752zm.106 11.151c-9.937 0-17.981-7.641-17.981-17.056 0-1.326-.183-1.927-.221-2.48l-3.245-1.526c6.375-4.789 14.382-7.736 22.205-7.908 6.317-.133 12.212 1.278 17.636 3.806l-.076.229-.826 2.623c.153.363.26.696.336 1.04v.009c.048.229.077.458.105.696-.009.01-.009.01 0 .01.049.496.049 1.04.039 1.669-.01.534-.02 1.126-.02 1.832 0 9.416-8.055 17.056-17.952 17.056z" fill="#fff"/><path d="m511.992 425.188c-.922-.439-1.968-.687-3.091-.687s-2.17.248-3.092.687c.922-.448 1.978-.696 3.092-.696 1.114-.001 2.169.247 3.091.696z" fill="#231f20"/><path d="m505.81 425.188c.922-.439 1.969-.687 3.092-.687s2.169.248 3.091.687c.365.181.711.391 1.027.62 1.44 1.049 2.361 2.651 2.361 4.436 0 3.177-2.899 5.752-6.479 5.752-3.581 0-6.49-2.575-6.49-5.752 0-1.784.922-3.387 2.362-4.436.316-.229.662-.439 1.036-.62z" fill="#231f20"/><path d="m504.773 425.808c.316-.238.662-.448 1.036-.62-.373.181-.719.391-1.036.62z" fill="#231f20"/><path d="m339.016 200.58c34.618-20.461 79.403-27.673 136.515-21.063 68.958 7.994 121.884 87.378 131.974 172.334 1.603 13.498.259 34.55-2.045 49.136-.932-.286-1.93-.515-2.986-.677-4.828-.773-9.254-.286-13.219 1.116l-1.565.019c-.153-.906-.326-1.822-.509-2.738-2.842-13.908-9.725-28.198-16.589-39.959-.807-1.383-1.622-2.738-2.419-4.044-.403-.658-.797-1.307-1.2-1.937-.394-.639-.787-1.259-1.181-1.87-.384-.62-.778-1.221-1.162-1.813s-.758-1.164-1.133-1.736c-.557-.849-1.113-1.669-1.651-2.461-.182-.267-.354-.524-.527-.782-.874-1.288-1.709-2.499-2.496-3.605-.154-.22-.317-.439-.461-.658-.298-.43-.596-.84-.884-1.24-.422-.601-.825-1.164-1.209-1.688-.375-.525-.729-1.011-1.057-1.459-3.206-4.407-6.403-8.538-9.571-12.411-4.742-5.809-9.408-11.037-13.958-15.739-1.009-1.04-2.017-2.061-3.015-3.062-23.463-23.352-43.316-32.757-52.677-36.201-3.677-1.364-5.73-1.793-5.73-1.793-.067.047-.135.095-.212.143-32.15 22.226-130.773 32.013-154.668 68.014 0 0-24.663 25.26-41.751 46.999-.768.973-1.517 1.946-2.247 2.9-1.469 1.917-2.87 3.797-4.167 5.619-.653.906-1.277 1.803-1.872 2.681-1.498 2.185-2.832 4.273-3.936 6.2-.672 1.154-1.257 2.251-1.757 3.291l-1.622-51.788c0-82.638 67.883-141.751 67.883-141.751 7.853-5.307 13.104-7.977 13.104-7.977z" fill="#9c5c25"/><path d="m437.533 543.119 1.526-.104c-.288 0-.566 0-.835-.02-.23.048-.46.086-.691.124zm-77.051-95.448c9.917 0 18.71-12.066 18.71-21.482l.672-1.011c-6-3.94-13.152-6.315-20.16-6.477-7.238-.153-13.939 1.736-19.978 4.998l3.082 2.08c-.451 1.317-.307 2.509-.307 4.846 0 9.415 8.055 17.046 17.981 17.046zm109.567-181.281c.836.725 3.341 1.278 5.942 1.65 9.36 3.444 29.214 12.849 52.677 36.201.998 1.001 1.997 2.022 3.015 3.062 4.541 4.703 9.216 9.93 13.958 15.739 3.159 3.873 6.346 8.003 9.563 12.411.326.448.682.935 1.065 1.459.374.524.777 1.087 1.209 1.688.279.4.576.811.884 1.24.144.219.307.438.461.658.777 1.106 1.612 2.318 2.496 3.605.173.258.346.515.527.782.538.792 1.085 1.612 1.651 2.461.365.573.749 1.145 1.133 1.736s.769 1.192 1.162 1.813c.394.61.787 1.23 1.181 1.87.394.629.797 1.278 1.2 1.937.797 1.307 1.603 2.661 2.419 4.044 6.864 11.762 13.747 26.051 16.589 39.959.029.935.048 1.841.067 2.738.394 14.938.557 23.8.557 36.449 0 22.932-3.647 45.482-9.83 66.907-19.104 66.249-62.459 121.614-97.058 143.535-16.993 8.156-29.943 6.992-49.595 6.992-18.173 0-29.809 1.793-45.755-5.218-37.354-20.805-81.381-76.456-100.744-143.697-6.298-21.883-9.984-44.986-9.984-68.52 0-7.793.01-21.454.125-34.636.067-7.393.153-14.633.297-20.614l-1.632-1.24c17.088-21.739 41.751-46.999 41.751-46.999 23.895-35.999 122.518-45.786 154.669-68.012zm20.976 163.701c0 9.415 8.045 17.056 17.981 17.056 9.897 0 17.952-7.641 17.952-17.056 0-.706.01-1.298.02-1.832.01-.639.01-1.173-.039-1.669-.009 0-.009 0 0-.01-.019-.238-.058-.467-.105-.696v-.009c-.067-.344-.173-.687-.326-1.04l.816-2.623.076-.229c-5.424-2.528-11.318-3.939-17.636-3.806-7.823.172-15.83 3.119-22.205 7.908l3.245 1.526c.039.553.221 1.154.221 2.48z" fill="#ffeec8"/><path d="m360.415 424.539c3.581 0 6.49 2.575 6.49 5.752 0 3.167-2.909 5.742-6.49 5.742s-6.49-2.575-6.49-5.742c0-3.177 2.909-5.752 6.49-5.752z" fill="#231f20"/><path d="m360.415 436.033c3.581 0 6.49-2.575 6.49-5.742 0-3.177-2.909-5.752-6.49-5.752s-6.49 2.575-6.49 5.752c0 3.167 2.909 5.742 6.49 5.742zm-.71-17.332c7.008.162 14.16 2.537 20.16 6.477l-.672 1.011c0 9.416-8.793 21.482-18.71 21.482-9.927 0-17.981-7.631-17.981-17.046 0-2.337-.144-3.529.307-4.846l-3.082-2.08c6.038-3.262 12.739-5.151 19.978-4.998z" fill="#fff"/><path d="m283.22 506.871c-17.328 3.291-25.613-10.751-26.218-17.972-1.555-19.021 4.07-28.179-8.218-53.095-5.05-10.235-7.527-30.754 10.858-33.692h.009c4.829-.763 9.255-.276 13.21 1.125l2.103.02c-.115 13.183-.125 26.843-.125 34.636 0 23.533 3.687 46.637 9.984 68.52z" fill="#ffeec8"/><path d="m258.029 350.306 1.622 51.788c0 .01-.009.01-.009.019z" fill="#9c5c25"/><path d="m190.981 522.238c.989.744 1.901 1.574 2.717 2.461 5.625 6.115 4.464 8.433 1.056 14.185-6.423 10.903-17.856 30.631-24.02 31.384-5.5.668-8.41-1.993-9.696-6.066-.01.677-.566 29.38 1.2 54.229 1.507 21.377-6.816 39.054-18.25 58.962l-73.864-70.733-2.649-.19c1.344-20.137-9.696-68.605-7.354-92.043 2.708-27.11 19.594-38.061 41.886-60.783 17.731-18.086 29.885-16.865 29.885-16.865s52.955.372 78.203 1.498c19.316.868 22.858 9.062 23.454 12.878 4.829 0 8.188.314 9.139 1.097 5.088 4.216 7.354 22.637-5.77 26.452-11.396 3.329-46.983 11.666-46.983 11.666l-2.429.096c6.604 4.063 9.802 6.648 11.885 15.511 2.669 11.332-7.901 15.615-7.901 15.615z" fill="#ffeec8"/><g fill="none"><path d="m271.383 384.303c-1.469 1.917-2.861 3.797-4.167 5.619-.643.906-1.277 1.803-1.872 2.681-1.498 2.185-2.822 4.273-3.936 6.2-.662 1.164-1.248 2.271-1.757 3.31v-.019l-1.622-51.788" stroke="#231f20" stroke-width="14.1708"/><path d="m558.361 339.841c-.298-.43-.596-.84-.884-1.24-.422-.601-.825-1.164-1.209-1.688-.375-.525-.729-1.011-1.057-1.459-3.206-4.407-6.403-8.538-9.571-12.411-4.742-5.809-9.408-11.037-13.958-15.739-1.009-1.04-2.017-2.061-3.015-3.062" stroke="#231f20" stroke-width="14.1708"/><path d="m561.318 344.105c-.874-1.288-1.709-2.499-2.496-3.605" stroke="#231f20" stroke-width="14.1708"/><path d="m570.592 358.748c-.807-1.383-1.622-2.738-2.419-4.044-.403-.658-.797-1.307-1.2-1.937-.394-.639-.787-1.259-1.181-1.87-.384-.62-.778-1.221-1.162-1.813s-.758-1.164-1.133-1.736c-.557-.849-1.113-1.669-1.651-2.461" stroke="#231f20" stroke-width="14.1708"/><path d="m526.939 426.59c.049.496.049 1.03.039 1.669" stroke="#231f20" stroke-linecap="square" stroke-miterlimit="10" stroke-width="9.4472"/><path d="m513.02 425.808c-.316-.229-.662-.439-1.027-.62-.922-.439-1.968-.687-3.091-.687s-2.17.248-3.092.687c-.374.181-.72.391-1.036.62" stroke="#231f20" stroke-width="5.5892"/><path d="m322.417 438.294c4.906-5.886 10.724-11.056 17.309-14.595 6.039-3.262 12.74-5.151 19.978-4.998 7.008.162 14.16 2.537 20.16 6.477 4.724 3.081 8.727 7.135 11.396 11.829" stroke="#231f20" stroke-linecap="square" stroke-miterlimit="10" stroke-width="9.4472"/><path d="m379.193 426.189c0 9.416-8.793 21.482-18.71 21.482-9.927 0-17.981-7.631-17.981-17.046 0-2.337-.144-3.529.307-4.846" stroke="#231f20" stroke-linecap="square" stroke-miterlimit="10" stroke-width="9.4472"/><path d="m547.052 437.751c-5.472-6.573-12.096-12.249-19.651-15.769-5.424-2.528-11.318-3.939-17.636-3.806-7.823.172-15.83 3.119-22.205 7.908-3.83 2.871-7.075 6.401-9.351 10.389" stroke="#231f20" stroke-linecap="square" stroke-miterlimit="10" stroke-width="9.4472"/><path d="m526.834 425.884v-.009c-.076-.344-.183-.677-.336-1.04" stroke="#231f20" stroke-linecap="square" stroke-miterlimit="10" stroke-width="9.4472"/><path d="m490.805 427.61c.038.554.221 1.154.221 2.48 0 9.415 8.045 17.056 17.981 17.056 9.897 0 17.952-7.641 17.952-17.056 0-.706.01-1.298.02-1.832.01-.629.01-1.173-.039-1.669-.009 0-.009 0 0-.01" stroke="#231f20" stroke-linecap="square" stroke-miterlimit="10" stroke-width="9.4472"/><path d="m272.861 403.238c-3.955-1.402-8.381-1.889-13.21-1.125h-.009c-18.385 2.938-15.908 23.457-10.858 33.692 12.288 24.916 6.663 34.073 8.218 53.095.604 7.221 8.89 21.263 26.218 17.972" stroke="#231f20" stroke-width="14.1708"/><path d="m589.255 401.426c3.965-1.402 8.391-1.889 13.219-1.116 1.057.162 2.055.391 2.986.677 15.11 4.588 12.644 23.361 7.872 33.005-12.279 24.916-6.653 34.073-8.218 53.085-.604 7.222-8.89 21.263-26.219 17.981" stroke="#231f20" stroke-width="14.1708"/><path d="m394.64 588.373c27.879-6.124 53.607-6.124 77.714-.429" stroke="#231f20" stroke-width="14"/><path d="m587.171 398.373c0 .115.01.219.01.334.029.935.048 1.841.067 2.738.394 14.938.557 23.8.557 36.449 0 22.932-3.647 45.482-9.83 66.907-19.104 66.249-62.459 121.614-97.058 143.535-16.993 8.156-29.943 6.992-49.595 6.992-18.173 0-29.809 1.793-45.755-5.218-37.354-20.805-81.381-76.456-100.744-143.697-6.298-21.883-9.984-44.986-9.984-68.52 0-7.793.01-21.454.125-34.636.067-7.393.153-14.633.297-20.614" stroke="#231f20" stroke-width="14"/><path d="m438.225 542.995c8.554-1.573 7.027-6.61 16.205-4.397 7.93 1.908 16.349 5.838 18.317-6.486 1.363-8.471-5.04-9.587-8.458-16.388" stroke="#231f20" stroke-width="9.4472"/><path d="m438.225 542.995c.269.02.547.02.835.02l-1.526.104c.23-.038.46-.076.691-.124z" stroke="#231f20" stroke-width="9.4472"/><path d="m411.421 437.359c14.208 15.511 9.907 51.931 3.542 70.895l-2.669 7.374c-3.408 6.802-9.821 7.917-8.458 16.397 1.968 12.306 10.388 8.385 18.308 6.486 9.149-2.213 7.076 4.121 16.081 4.483" stroke="#231f20" stroke-width="7"/><path d="m366.905 430.291c0 3.167-2.909 5.742-6.49 5.742s-6.49-2.575-6.49-5.742c0-3.177 2.909-5.752 6.49-5.752s6.49 2.575 6.49 5.752z" stroke="#231f20" stroke-width="5.5892"/><path d="m513.02 425.808c1.44 1.049 2.361 2.651 2.361 4.436 0 3.177-2.899 5.752-6.479 5.752-3.581 0-6.49-2.575-6.49-5.752 0-1.784.922-3.387 2.362-4.436.316-.238.662-.448 1.036-.62.922-.448 1.978-.696 3.092-.696 1.113 0 2.169.248 3.091.696.364.171.71.381 1.027.62z" stroke="#231f20" stroke-width="5.5892"/><path d="m401.994 408.914c-7.671-16.054-37.671-22.312-52.869-19.297-14.275 2.824-21.351 4.541-36.241 16.007" stroke="#231f20" stroke-width="7"/><path d="m464.164 405.403c7.671-16.054 37.681-22.312 52.868-19.297 14.295 2.833 21.37 4.531 36.25 15.997" stroke="#231f20" stroke-width="7"/><path d="m570.592 358.748c6.864 11.762 13.747 26.051 16.589 39.959.183.916.355 1.832.509 2.738.394 2.347.653 4.674.778 6.963" stroke="#231f20" stroke-width="14"/><path d="m561.318 344.105c.173.258.346.515.527.782.538.792 1.085 1.612 1.651 2.461.365.573.749 1.145 1.133 1.736s.769 1.192 1.162 1.813c.394.61.787 1.23 1.181 1.87.394.629.797 1.278 1.2 1.937" stroke="#231f20" stroke-width="14"/><path d="m558.361 339.841c.144.219.307.438.461.658" stroke="#231f20" stroke-width="14"/><path d="m605.297 401.979c.058-.324.115-.658.163-.992 2.304-14.585 3.647-35.638 2.045-49.136-10.09-84.956-63.016-164.34-131.974-172.334-57.112-6.61-101.897.601-136.515 21.063 0 0-5.251 2.671-13.104 7.975 0 0-67.883 59.114-67.883 141.751l1.613 51.807c0-.009.009-.009.009-.019.5-1.04 1.085-2.137 1.757-3.291 1.104-1.927 2.438-4.016 3.936-6.2.595-.878 1.219-1.774 1.872-2.681 1.296-1.822 2.698-3.701 4.167-5.619.729-.954 1.479-1.927 2.247-2.9 17.088-21.739 41.751-46.999 41.751-46.999 23.895-36 122.518-45.788 154.668-68.014.077-.048.145-.096.212-.143 0 0 2.054.429 5.73 1.793 9.36 3.444 29.214 12.849 52.677 36.201.998 1.001 1.997 2.022 3.015 3.062 4.541 4.703 9.216 9.93 13.958 15.739 3.159 3.873 6.346 8.003 9.563 12.411.326.448.682.935 1.065 1.459.374.524.777 1.087 1.209 1.688" stroke="#231f20" stroke-width="14"/><path d="m482.808 268.632c-1.046 0-3.993-.191-6.816-.592-2.602-.372-5.106-.925-5.942-1.65-.125-.105-.211-.22-.259-.334 9.879-9.558 17.674-36.296 17.674-52.103" stroke="#231f20" stroke-width="14.1708"/><path d="m511.829 354.569s-15.149-17.428-37.939-5.437c-12.404 6.524-24.452 13.049-38.747 12.258h-2.294c-14.305.792-26.343-5.733-38.756-12.258-22.791-11.991-37.94 5.437-37.94 5.437" stroke="#231f20" stroke-width="7"/><path d="m514.172 327.641s-15.149-17.428-37.95-5.438c-12.403 6.525-24.441 13.05-38.736 12.268h-2.304c-14.295.782-26.343-5.743-38.747-12.268-22.791-11.991-37.95 5.438-37.95 5.438" stroke="#231f20" stroke-width="7"/><path d="m670.529 481.135s-35.193-7.937-46.474-11.104c-12.979-3.635-10.743-21.177-5.703-25.193.941-.753 4.253-1.049 9.024-1.04 20.823.029 69.419 5.924 69.419 5.924s21.523-.114 40.34 14.929c22.992 18.392 35.377 33.836 35.377 33.836" stroke="#000" stroke-linecap="round" stroke-linejoin="round" stroke-width="7"/><path d="m668.994 510.868s-10.455-4.073-7.815-14.862c1.901-7.765 4.714-10.483 10.244-13.87 2.169-1.325 4.742-2.757 7.843-4.636 11.04-6.678 13.373-2.853 13.373-2.853s38.113 12.554 52.129 35.419" stroke="#000" stroke-linecap="round" stroke-linejoin="round" stroke-width="7"/><path d="m666.805 513.835c.807-.84 1.699-1.622 2.669-2.338 3.303-2.451 7.401-4.188 11.386-5.246 21.658-5.742 32.507 12.086 47.194 23.733" stroke="#000" stroke-linecap="round" stroke-linejoin="round" stroke-width="7"/><path d="m694.703 526.007c2.515 2.661 7.162 17.18 4.406 25.488-1.276 3.854-4.157 6.372-9.581 5.742-6.096-.715-17.405-19.508-23.77-29.886-3.36-5.485-4.513-7.688 1.046-13.517" stroke="#000" stroke-linecap="round" stroke-linejoin="round" stroke-width="7"/><path d="m627.3 445.63s-.096-.716.077-1.832c.586-3.624 4.08-11.446 23.213-12.267 24.971-1.078 77.349-1.431 77.349-1.431s12.029-1.164 29.569 16.063c22.051 21.635 38.756 32.07 41.434 57.893 2.305 22.313-8.602 68.453-7.267 87.646.201 3.015.71 5.361 1.622 6.85" stroke="#000" stroke-linecap="round" stroke-linejoin="round" stroke-width="7"/><path d="m699.109 551.457v.038c.029 1.183.547 28.197-1.181 51.616-1.498 20.366 6.739 37.192 18.058 56.156" stroke="#000" stroke-linecap="round" stroke-linejoin="round" stroke-width="7"/><path d="m189.935 490.368s35.588-8.337 46.983-11.666c13.123-3.815 10.857-22.236 5.77-26.452-.951-.782-4.311-1.097-9.139-1.097-21.063.038-70.168 6.229-70.168 6.229s-21.764-.124-40.772 15.673c-23.251 19.316-35.771 35.523-35.771 35.523" stroke="#000" stroke-linecap="round" stroke-linejoin="round" stroke-width="7"/><path d="m191.49 521.59s10.57-4.283 7.901-15.615c-2.083-8.862-5.28-11.447-11.885-15.511-1.853-1.136-3.965-2.385-6.403-3.921-11.165-7.002-13.517-2.995-13.517-2.995s-38.526 13.183-52.705 37.193" stroke="#000" stroke-linecap="round" stroke-linejoin="round" stroke-width="7"/><path d="m193.698 524.699c-.816-.887-1.728-1.717-2.717-2.461-3.332-2.585-7.469-4.397-11.482-5.514-21.898-6.019-32.871 12.697-47.713 24.926" stroke="#000" stroke-linecap="round" stroke-linejoin="round" stroke-width="7"/><path d="m161.039 564.201c1.286 4.073 4.195 6.734 9.696 6.066 6.164-.753 17.597-20.48 24.02-31.384 3.408-5.752 4.569-8.069-1.056-14.185" stroke="#000" stroke-linecap="round" stroke-linejoin="round" stroke-width="7"/><path d="m165.493 537.482c-2.534 2.785-7.219 17.98-4.454 26.709" stroke="#000" stroke-linecap="round" stroke-linejoin="round" stroke-width="7"/><path d="m233.635 453.08s.096-.754-.086-1.927c-.595-3.816-4.138-12.01-23.454-12.878-25.249-1.126-78.203-1.498-78.203-1.498s-12.154-1.221-29.885 16.865c-22.292 22.723-39.178 33.673-41.886 60.783-2.342 23.438 8.698 71.906 7.354 92.043-.211 3.157-.729 5.609-1.651 7.174" stroke="#000" stroke-linecap="round" stroke-linejoin="round" stroke-width="7"/><path d="m161.039 564.191v.01c-.01.677-.566 29.38 1.2 54.229 1.507 21.377-6.816 39.054-18.25 58.962" stroke="#000" stroke-linecap="round" stroke-linejoin="round" stroke-width="7"/><path d="m0 .239h850.394v850.394h-850.394z"/><path d="m0 .239h850.394v850.394h-850.394z"/></g></svg>