<svg enable-background="new 0 0 850.394 850.394" height="850.394" viewBox="0 0 850.394 850.394" width="850.394" xmlns="http://www.w3.org/2000/svg"><path d="m459.71 347.01c-4.82-25.06 4.13-45.13 22.33-63.34l1.82.91c-6.38 20.93-2.591 29.36 8.18 38.42 7.81 6.55 16.09 17.43 16.05 28.3l-47.26-.16c-.48-1.36-.85-2.74-1.12-4.13z" fill="#a8d7f4"/><path d="m460.83 351.14 47.26.16c-.02 5.18-1.91 10.34-6.64 15.04-4.45 4.44-9.4 6.31-14.29 6.31-11.3 0-22.33-9.99-26.33-21.51z" fill="#a8d7f4"/><path d="m561.62 259.2c11.53 9.68 24.07 28.78 9.42 43.35-15.95 15.86-38.25-1.09-41.75-19.33-4.82-25.06 4.13-45.13 22.32-63.35l1.819.92c-6.359 20.92-2.589 29.36 8.191 38.41z" fill="#a8d7f4"/><path d="m726 352v26h-238.84v-5.35c4.89 0 9.84-1.87 14.29-6.31 4.729-4.7 6.62-9.86 6.64-15.04z" fill="#a9d7f3"/><path d="m286.11 350.58c5.57 2.53 11.72 2.95 17.48.06l157.24.5c4 11.52 15.03 21.51 26.33 21.51v5.35h-381.16v-28z" fill="#a9d7f3"/><path d="m303.59 350.64c-5.76 2.89-11.91 2.47-17.48-.06z" fill="#a8d7f4"/><path d="m515.04 150.55c-15.95 15.86-38.25-1.09-41.75-19.33-4.82-25.06 4.13-45.13 22.32-63.35l1.819.92c-6.359 20.92-2.59 29.36 8.19 38.41 11.531 9.68 24.071 28.78 9.421 43.35z" fill="#a8d7f4"/><path d="m436.04 171c11.53 9.67 24.07 28.77 9.41 43.34-15.95 15.89-38.24-1.09-41.74-19.33-4.82-25.06 4.13-45.13 22.33-63.34l1.82.91c-6.38 20.93-2.59 29.36 8.18 38.42z" fill="#a8d7f4"/><path d="m359.61 199.87 1.82.92c-6.36 20.92-2.59 29.36 8.19 38.41 11.53 9.67 24.07 28.78 9.42 43.35-15.95 15.86-38.25-1.1-41.75-19.33-4.82-25.06 4.13-45.13 22.32-63.35z" fill="#a8d7f4"/><path d="m363.04 138.55c-15.95 15.86-38.24-1.09-41.75-19.33-4.82-25.06 4.13-45.13 22.32-63.35l1.82.92c-6.36 20.92-2.59 29.36 8.19 38.41 11.53 9.67 24.07 28.78 9.42 43.35z" fill="#a8d7f4"/><path d="m291.86 264.58c-6.38 20.93-2.59 29.37 8.18 38.42 11.53 9.67 24.07 28.77 9.41 43.35-1.88 1.87-3.84 3.28-5.86 4.29l-17.48-.06c-9-4.07-16.49-13.63-18.4-23.57-4.82-25.06 4.13-45.13 22.33-63.34z" fill="#a8d7f4"/><path d="m277.45 194.34c-15.95 15.89-38.24-1.09-41.74-19.33-4.82-25.06 4.13-45.13 22.33-63.34l1.82.91c-6.38 20.93-2.59 29.36 8.18 38.42 11.53 9.67 24.07 28.77 9.41 43.34z" fill="#a8d7f4"/><g fill="none"><path d="m726 352v26 340h-620v-340-28" stroke="#231f20" stroke-width="21"/><path d="m359.61 199.87c-18.19 18.22-27.14 38.29-22.32 63.35 3.5 18.23 25.8 35.19 41.75 19.33 14.65-14.57 2.11-33.68-9.42-43.35-10.78-9.05-14.55-17.49-8.19-38.41z" stroke="#231f20" stroke-width="5.91"/><path d="m303.59 350.64c2.02-1.01 3.98-2.42 5.86-4.29 14.66-14.58 2.12-33.68-9.41-43.35-10.77-9.05-14.56-17.49-8.18-38.42l-1.82-.91c-18.2 18.21-27.15 38.28-22.33 63.34 1.91 9.94 9.4 19.5 18.4 23.57 5.57 2.53 11.72 2.95 17.48.06z" stroke="#231f20" stroke-width="5.91"/><path d="m551.61 219.87c-18.19 18.22-27.141 38.29-22.32 63.35 3.5 18.24 25.8 35.19 41.75 19.33 14.65-14.57 2.11-33.67-9.42-43.35-10.78-9.05-14.55-17.49-8.19-38.41z" stroke="#231f20" stroke-width="5.91"/><path d="m508.09 351.3c.04-10.87-8.24-21.75-16.05-28.3-10.771-9.06-14.56-17.49-8.18-38.42l-1.82-.91c-18.2 18.21-27.15 38.28-22.33 63.34.271 1.39.64 2.77 1.12 4.13 4 11.52 15.03 21.51 26.33 21.51 4.89 0 9.84-1.87 14.29-6.31 4.73-4.7 6.62-9.86 6.64-15.04z" stroke="#231f20" stroke-width="5.91"/><path d="m343.61 55.87c-18.19 18.22-27.14 38.29-22.32 63.35 3.51 18.24 25.8 35.19 41.75 19.33 14.65-14.57 2.11-33.68-9.42-43.35-10.78-9.05-14.55-17.49-8.19-38.41z" stroke="#231f20" stroke-width="5.91"/><path d="m258.04 111.67c-18.2 18.21-27.15 38.28-22.33 63.34 3.5 18.24 25.79 35.22 41.74 19.33 14.66-14.57 2.12-33.67-9.41-43.34-10.77-9.06-14.56-17.49-8.18-38.42z" stroke="#231f20" stroke-width="5.91"/><path d="m495.61 67.87c-18.19 18.22-27.141 38.29-22.32 63.35 3.5 18.24 25.8 35.19 41.75 19.33 14.65-14.57 2.11-33.67-9.42-43.35-10.78-9.05-14.55-17.49-8.19-38.41z" stroke="#231f20" stroke-width="5.91"/><path d="m426.04 131.67c-18.2 18.21-27.15 38.28-22.33 63.34 3.5 18.24 25.79 35.22 41.74 19.33 14.66-14.57 2.12-33.67-9.41-43.34-10.77-9.06-14.56-17.49-8.18-38.42z" stroke="#231f20" stroke-width="5.91"/><path d="m104 378h2 381.16 238.84" stroke="#231f20" stroke-width="7"/><path d="m0 0h850.394v850.394h-850.394z"/></g></svg>