<svg enable-background="new 0 0 850.394 850.394" height="850.394" viewBox="0 0 850.394 850.394" width="850.394" xmlns="http://www.w3.org/2000/svg"><path d="m665.24 68.64 110.08 598.1-5.99 1.1-560.07 103.09-.66-3.6 20-6.25-106.49-581.98-7.65 8.73-12.63-.45-2.65-14.55z" fill="#ffeec8"/><path d="m769.73 670.23 9.28 48.5-20.66 1.9-549.09 50.3 560.07-103.09z" fill="#ffeec8"/><path d="m122.11 179.1 106.49 581.98-106.49-572.98-7.65-.27z" fill="#fff"/><path d="m122.11 188.1 106.49 572.98-18 3-2.26 1.81-1.97-10.73 7.08-17.76-96.2-522.95-13.18-14.77 10.39-11.85z"/><path d="m228.6 761.08-20 6.25-.26-1.44 2.26-1.81z"/><path d="m117.25 214.45 96.2 522.95-7.08 17.76-70.36-382.43-31.94-173.05z"/><path d="m208.34 765.89.26 1.44-3.38 1.06z"/><path d="m206.37 755.16 1.97 10.73-3.12 2.5-.62.19-1.09-6.23z"/><path d="m136.01 372.73 70.36 382.43-2.86 7.19-68.17-389.49z"/><path d="m205.22 768.39-6.04 4.83 4.33-10.87 1.09 6.23z" fill="#fff"/><path d="m135.34 372.86 68.17 389.49-4.33 10.87-3.39.6h-3.79l-8.39-43.61-9.38-49.4-9.58-50.1-9.68-50.4-9.58-50.49-9.48-49.8-9.48-49.5-10.28-54.09 13.57-2.5z"/><path d="m209.26 770.93 549.09-50.3.61 5.99 5.08 49.5-565.16-2.3.3-.6 6.04-4.83 3.38-1.06z" fill="#ffeec8"/><path d="m195.79 773.82 3.39-.6-.3.6z"/><path d="m195.79 773.82h3.09l-4.69 11.78-2.09-11.08z"/><path d="m192 773.82h3.79l-3.69.7z"/><path d="m133.16 360.41 2.18 12.45-5.62 1.07-13.57 2.5-9.68-50.41-9.58-50.39-9.48-49.9-9.48-49.4 4.68-.9 20.73 23.43z"/><path d="m114.46 187.83-10.39 11.85-2.24-12.3z"/><path d="m101.83 187.38 2.24 12.3-.73-.82-2.12-11.5z"/><path d="m136.01 372.73-.67.13-2.18-12.45-29.82-161.55.73.82z"/><path d="m76.43 168.44 6.18 6.99-4.68.9z"/><g fill="none"><path d="m104.07 199.68-2.24-12.3-2.65-14.55 566.06-104.19 110.08 598.1-5.99 1.1-560.07 103.09-.66-3.6-.26-1.44-1.97-10.73" stroke="#000" stroke-width="39.9195"/><path d="m209.26 770.93 549.09-50.3 20.66-1.9-9.28-48.5" stroke="#000" stroke-width="29.9396"/><path d="m198.88 773.82 565.16 2.3-5.08-49.5" stroke="#000" stroke-width="29.9396"/><path d="m189.6 773.82h2.4" stroke="#000" stroke-width="29.9396"/><path d="m77.93 176.33-10.98 1.99" stroke="#000" stroke-linecap="round" stroke-linejoin="round" stroke-width="39.9195"/><path d="m92.7 173.63-10.09 1.8" stroke="#000" stroke-linecap="round" stroke-linejoin="round" stroke-width="39.9195"/><path d="m87.41 225.73-11.38 2.09" stroke="#000" stroke-linecap="round" stroke-linejoin="round" stroke-width="39.9195"/><path d="m96.89 275.63-11.78 2.09" stroke="#000" stroke-linecap="round" stroke-linejoin="round" stroke-width="39.9195"/><path d="m106.47 326.02-11.88 2.2" stroke="#000" stroke-linecap="round" stroke-linejoin="round" stroke-width="39.9195"/><path d="m116.15 376.43-12.18 2.29" stroke="#000" stroke-linecap="round" stroke-linejoin="round" stroke-width="39.9195"/><path d="m126.43 430.52-12.97 2.39" stroke="#000" stroke-linecap="round" stroke-linejoin="round" stroke-width="39.9195"/><path d="m135.91 480.02-13.38 2.39" stroke="#000" stroke-linecap="round" stroke-linejoin="round" stroke-width="39.9195"/><path d="m145.39 529.82-13.77 2.49" stroke="#000" stroke-linecap="round" stroke-linejoin="round" stroke-width="39.9195"/><path d="m154.97 580.31-13.87 2.5" stroke="#000" stroke-linecap="round" stroke-linejoin="round" stroke-width="39.9195"/><path d="m164.65 630.71-14.17 2.6" stroke="#000" stroke-linecap="round" stroke-linejoin="round" stroke-width="39.9195"/><path d="m174.23 680.81-15.07 2.69" stroke="#000" stroke-linecap="round" stroke-linejoin="round" stroke-width="39.9195"/><path d="m183.61 730.21-15.37 2.79" stroke="#000" stroke-linecap="round" stroke-linejoin="round" stroke-width="39.9195"/><path d="m199.18 773.22 6.99-1.29" stroke="#000" stroke-linecap="round" stroke-linejoin="round" stroke-width="39.9195"/><path d="m180.32 776.71 11.78-2.19" stroke="#000" stroke-linecap="round" stroke-linejoin="round" stroke-width="39.9195"/><path d="m198.88 773.82-4.69 11.78-2.09-11.08-.1-.7-8.39-43.61-9.38-49.4-9.58-50.1-9.68-50.4-9.58-50.49-9.48-49.8-9.48-49.5-10.28-54.09-9.68-50.41-9.58-50.39-9.48-49.9-9.48-49.4-1.5-7.89 6.18 6.99 20.73 23.43.73.82 10.39-11.85 7.65-8.73 106.49 581.98-18 3-2.26 1.81-3.12 2.5-6.04 4.83z" stroke="#000" stroke-linecap="round" stroke-linejoin="round" stroke-width="8"/><path d="m0 0h850.394v850.394h-850.394z"/></g></svg>