<svg enable-background="new 0 0 850.394 850.394" height="850.394" viewBox="0 0 850.394 850.394" width="850.394" xmlns="http://www.w3.org/2000/svg"><path d="m706.72 474.3 23.01 43.56-1.82.96-377.14 162.39-23.71-49.94 377.82-156z" fill="#ffeec8"/><path d="m533.62 146.5 20 37.88-1.46.77-369.38 138.66-1.42.68-18.36-38.67 1.85-.88z" fill="#ffeec8"/><path d="m729.73 517.86 20.4 38.63-.46.2-378.92 166.58-19.98-42.06 377.14-162.39z" fill="#ffeec8"/><path d="m553.62 184.38 153.1 289.92-1.84.97-377.82 156-145.7-306.78 1.42-.68 369.38-138.66z" fill="#ffeec8"/><path d="m113.57 186.52c1.83 1.15 2.34 3.05 3.92 3.92l.24.07 45.27 95.31 18.36 38.67 145.7 306.779 23.71 49.94 19.98 42.06 378.92-166.579.03.06c1.74-.08 3.09.72 4.71 1.04l.03.1-23.72 70.97-382.81 166.78-247.75-528.45 4.83-28.97 8.57-51.46z" fill="#ffeec8"/><path d="m533.62 146.5-368.77 138.44-1.85.88-45.27-95.31 367.25-136.11z" fill="#ffeec8"/><g fill="none"><path d="m729.73 517.86 20.4 38.63-.46.2-378.92 166.58-19.98-42.06-23.71-49.94-145.7-306.78-18.36-38.67-45.27-95.31 367.25-136.11 48.64 92.1 20 37.88 153.1 289.92z" stroke="#000" stroke-width="20.4865"/><path d="m741.85 582.38-379.39 166.78-253.02-532.76" stroke="#000" stroke-width="6.8288"/><path d="m735.78 600.79-379.39 166.79-251.4-529.36" stroke="#000" stroke-width="6.8288"/><path d="m113.56 186.76-8.57 51.46-4.83 28.97 247.75 528.45 382.81-166.78 23.72-70.97" stroke="#000" stroke-width="20.4865"/><path d="m164.85 284.94 368.77-138.44.61-.23" stroke="#000" stroke-width="13.6577"/><path d="m182.78 323.81 369.38-138.66" stroke="#000" stroke-width="13.6577"/><path d="m205.49 366.96 369.38-138.66" stroke="#000" stroke-width="13.6577"/><path d="m227.96 409.47 369.38-138.66" stroke="#000" stroke-width="13.6577"/><path d="m245.89 448.34 369.38-138.65" stroke="#000" stroke-width="13.6577"/><path d="m270.65 492.14 369.38-138.66" stroke="#000" stroke-width="13.6577"/><path d="m293.12 534.65 369.39-138.66" stroke="#000" stroke-width="13.6577"/><path d="m311.05 582.19 369.39-147.31" stroke="#000" stroke-width="13.6577"/><path d="m327.06 631.27 377.82-156" stroke="#000" stroke-width="13.6577"/><path d="m350.77 681.21 377.14-162.39" stroke="#000" stroke-width="13.6577"/><path d="m0 0h850.394v850.394h-850.394z"/></g></svg>