<svg enable-background="new 0 0 850.394 850.394" height="850.394" viewBox="0 0 850.394 850.394" width="850.394" xmlns="http://www.w3.org/2000/svg"><path d="m384.218 666.802c3.249 32.003-3.572 77.635-29.827 88.34-26.26 10.689-44.109 9.061-62.917-15.132-16.554-21.283-15.208-56.867-12.627-71.053 2.572-14.196 6.724-27.127 6.724-27.127s24.057-76.972 29.486-90.642c5.434-13.669 21.785-28.745 34.482-1.958 12.696 26.783 31.425 85.583 34.679 117.572z" fill="#ffffc2"/><path d="m216.505 518.113c8.411 19.31 5.941 32.595 4.337 60.834-1.608 28.244-5.097 74.433-.958 104.356 4.143 29.924-.544 72.116-44.801 89.221-44.261 17.104-82.038-13.244-99.45-48.592-14.434-29.302-10.973-68.175-6.369-87.763l1.226-3.987s16.277-69.394 60.613-108.434c44.335-39.034 76.987-24.945 85.402-5.635z" fill="#9e5c26"/><path d="m285.57 641.83s24.057-76.972 29.486-90.642c5.434-13.669 21.785-28.745 34.482-1.958 12.697 26.782 31.426 85.583 34.68 117.571 3.249 32.003-3.572 77.635-29.827 88.34-26.26 10.689-44.109 9.061-62.917-15.132-16.554-21.283-15.208-56.867-12.627-71.053 2.571-14.195 6.723-27.126 6.723-27.126z" fill="none" stroke="#231f20" stroke-width="10.14"/><path d="m70.49 632.183s16.277-69.394 60.613-108.434c44.335-39.035 76.987-24.946 85.402-5.636 8.411 19.31 5.941 32.595 4.337 60.834-1.608 28.244-5.097 74.433-.958 104.356 4.143 29.924-.544 72.116-44.801 89.221-44.261 17.104-82.038-13.244-99.45-48.592-14.434-29.302-10.973-68.175-6.369-87.763z" fill="none" stroke="#231f20" stroke-width="10.14"/><path d="m0 0h850.394v850.394h-850.394z" fill="none"/><path d="m781.47 694.998c6.361 20.991 7.32 69.393-20.311 83.984-18.842 9.951-39.08 9.327-58.021-8.752-18.924-18.073-44.245-46.048-58.881-85.255-8.072-21.632-7.088-52.153-7.088-52.153s6.284-74.63 7.305-94.549c1.025-19.918-5.965-89.818 17.485-130.739 18.275-31.887 47.551-35.837 70.991-10.918 0 0 18.27 17.974 26.342 61.237 8.47 45.39 12.826 78.84-1.81 106.881-14.63 28.041-20.63 38.737-18.285 47.247 2.342 8.509 35.917 62.033 42.273 83.017zm-20.378 49.739c15.218-17.896-2.572-77.288-15.449-102.003-20.548-39.444-74.037-53.142-74.037-53.142s-3.063-.199-7.397 10.382c-4.33 10.586-9.146 35.483-2.613 58.176 6.536 22.687 27.007 64.889 47.611 87.155 20.605 22.262 36.667 17.329 51.885-.568zm-17.47-217.519c2.283-23.621-1.129-71.05-11.95-100.185-10.814-29.129-27.394-31.345-47.937-21.267-20.548 10.078-25.884 72.182-23.074 100.328 4.485 44.926 48.689 79.989 48.689 79.989s2.748 1.47 10.604-6.448c7.862-7.917 21.384-28.802 23.668-52.417z" fill="#ffffc2"/><path d="m745.643 642.734c12.877 24.715 30.667 84.106 15.449 102.003s-31.28 22.83-51.886.568c-20.604-22.267-41.075-64.469-47.611-87.155-6.532-22.692-1.717-47.59 2.613-58.176 4.335-10.581 7.397-10.382 7.397-10.382s53.49 13.698 74.038 53.142z" fill="#f6cc4b"/><path d="m731.672 427.033c10.821 29.135 14.233 76.563 11.95 100.185-2.284 23.615-15.806 44.5-23.667 52.418-7.856 7.918-10.604 6.448-10.604 6.448s-44.204-35.063-48.689-79.989c-2.81-28.146 2.526-90.25 23.074-100.328 20.542-10.079 37.121-7.863 47.936 21.266z" fill="#f6cc4b"/><path d="m526.218 522.963c.025-1.171.082-2.381.18-3.646.397-5.16 1.099-10.708 1.943-16.543h.006c4.098.039 23.378.139 24.976-.961l1.423.813c-3.907 7.829-7.212 14.569-8.392 20.001-4.558 21.046-7.089 24.416 5.382 43.479 12.465 19.057 30.945 47.783 29.45 91.952-1.201 35.527-8.846 63.59-13.058 76.569l-1.69-.481s-5.583-1.148-12.656-7.26l2.794-.304s3.16-18.438 4.938-42.838c1.475-20.267 2.001-44.649-1.041-65.978-.948-6.663-2.242-13.028-3.97-18.88-1.36-4.619-2.768-8.813-4.195-12.652-12.492-33.617-26.549-39.76-26.09-63.271z" fill="#ffffc2"/><path d="m534.894 428.713c-.459-5.21-1.269-10.305-2.516-15.228-.975-3.846-2.063-7.448-3.176-10.741l2.041-.409 28.049-1.708.222-.182c2.64 3.674 5.104 8.006 7.325 13.111 8.527 19.587 7.269 38.036 2.542 54.424l-34.358-16.229c.489-7.783.54-15.529-.129-23.038z" fill="#ffffc2"/><path d="m529.867 492.729c2.036-13.039 4.289-27.068 5.155-40.976l34.358 16.229c-3.743 12.995-9.671 24.697-14.636 34.644l-1.423-.813c-1.598 1.1-20.878 1-24.976.961.47-3.265.991-6.62 1.522-10.045z" fill="#ffffc2"/><path d="m527.182 667.781c.783 4.464 1.706 9.028 2.794 13.696 5.866 25.201 15.795 38.489 23.806 45.407 7.073 6.111 12.656 7.26 12.656 7.26l1.69.481c-1.645 5.077-2.763 7.846-2.763 7.846s-.32 1.039-.97 2.79l-.186-.083s-25.095-9.47-45.767-30.925c-6.459-6.702-12.49-14.575-17.187-23.698-2.856-5.547-5.223-11.559-6.888-18.051l1.165-.337 27.683-28.875.691-.077c.754 7.868 1.77 16.04 3.276 24.566z" fill="#ffffc2"/><path d="m564.21 745.179.186.083c-4.676 12.72-26.321 63.088-64.851 27.472-4.619-4.271-8.732-8.398-12.393-12.398l.541-.58 30.75-45.501c20.672 21.454 45.767 30.924 45.767 30.924z" fill="#ffffc2"/><path d="m560.473 617.766c3.042 21.328 2.516 45.711 1.041 65.978l-2.123-.061-32.209-15.901c-1.506-8.526-2.521-16.698-3.273-24.565-.351-3.714-.649-7.354-.907-10.94l2.443-.017z" fill="#ffffc2"/><path d="m559.391 683.683 2.123.061c-1.778 24.399-4.938 42.838-4.938 42.838l-2.794.304c-8.011-6.918-17.939-20.206-23.806-45.407-1.088-4.668-2.011-9.232-2.794-13.696z" fill="#ffffc2"/><path d="m510.5 549.7c-1.47-5.205-2.882-10.465-4.212-15.764l.541-.022 19.389-10.951c-.459 23.511 13.599 29.654 26.09 63.271 1.428 3.84 2.835 8.033 4.195 12.652 1.728 5.852 3.021 12.217 3.97 18.88l-35.028 14.493-2.443.017c-.191-2.63-.361-5.232-.526-7.802-1.381-22.073-2.031-41.843-7.825-60.701-1.424-4.63-2.811-9.327-4.151-14.073z" fill="#ffffc2"/><path d="m559.514 400.446-.222.182-28.049 1.708-2.041.409c-4.371-12.924-9.16-21.156-9.16-21.156l-.011-.171c11.512-.825 27.281 1.993 39.483 19.028z" fill="#ffffc2"/><path d="m535.022 451.753c-.866 13.907-3.119 27.937-5.155 40.976l-33.91-14.438c-.794-7.349-1.314-14.608-1.51-21.726-.16-5.834-.099-11.564.2-17.167l.176.012 40.07-10.697c.67 7.509.619 15.255.129 23.04z" fill="#ffffc2"/><path d="m534.894 428.713-40.07 10.697-.176-.012c.242-4.437.645-8.796 1.212-13.051 2.154-16.222 6.764-30.985 14.584-43.351 2.566-.668 5.855-1.315 9.588-1.58l.011.171s4.789 8.232 9.16 21.156c1.113 3.293 2.201 6.896 3.176 10.741 1.246 4.924 2.056 10.018 2.515 15.229z" fill="#ffffc2"/><path d="m528.341 502.773c-.845 5.835-1.546 11.383-1.943 16.543-.098 1.266-.154 2.476-.18 3.646l-19.389 10.951-.541.022c-.841-3.349-1.655-6.708-2.428-10.072-3.501-15.2-6.274-30.566-7.903-45.573l33.91 14.438c-.531 3.426-1.052 6.78-1.521 10.045z" fill="#ffffc2"/><path d="m523.908 643.216-.691.077-27.683 28.875-1.165.337c-.521-2.017-.974-4.083-1.351-6.193-1.557-8.714-2.84-16.896-3.928-24.671-1.222-8.708-2.191-16.907-3.036-24.775l1.912-.232s20.584 4.78 32.869 7.957l1.639-.116c.165 2.569.335 5.172.526 7.802.259 3.584.558 7.225.908 10.939z" fill="#ffffc2"/><path d="m522.475 624.474-1.639.116c-12.285-3.177-32.869-7.957-32.869-7.957l-1.912.232c-1.284-12.072-2.258-23.355-3.33-34.494l.793-.089c1.187-1.58 24.142-29.173 26.982-32.582 1.34 4.746 2.727 9.442 4.149 14.072 5.794 18.859 6.445 38.628 7.826 60.702z" fill="#ffffc2"/><path d="m518.443 714.254-30.75 45.501-.541.58c-25.43-27.798-28.895-49.38-27.466-69.441l40.643.21.928-.548c4.696 9.123 10.727 16.996 17.186 23.698z" fill="#ffffc2"/><path d="m478.327 545.451c-.701-4.592-1.485-9.277-2.382-14.084-1.088-5.829-2.083-12.028-2.954-18.449l29.967 11.188.902-.242c.772 3.364 1.587 6.724 2.428 10.072 1.33 5.299 2.742 10.559 4.212 15.764-2.841 3.409-25.796 31.002-26.982 32.582l-.793.089c-1.171-12.2-2.459-24.228-4.398-36.92z" fill="#ffffc2"/><path d="m504.592 384.936s2.206-.989 5.852-1.939c-7.82 12.366-12.43 27.129-14.584 43.351l-1.434-.221-18.048-12.769-.51-.21c2.19-6.238 4.995-11.393 8.526-15.084l-.165-.199c6.506-6.05 13.424-10.316 20.363-12.929z" fill="#ffffc2"/><path d="m495.957 478.291c1.629 15.007 4.402 30.373 7.903 45.573l-.902.242-29.967-11.188c-1.263-9.338-2.258-19.145-2.866-28.963l22.142-27.323 2.181-.066c.195 7.117.715 14.376 1.509 21.725z" fill="#ffffc2"/><path d="m501.257 690.556-.928.548-40.643-.21c.314-4.448.876-8.818 1.484-13.167 2.222-15.83 3.686-28.937 4.542-39.915l1.938.177 20.481 3.758.959-.105c1.088 7.774 2.371 15.957 3.928 24.671.377 2.11.83 4.177 1.351 6.193 1.665 6.491 4.031 12.503 6.888 18.05z" fill="#ffffc2"/><path d="m494.426 426.127 1.434.221c-.567 4.255-.97 8.614-1.212 13.051-.299 5.603-.36 11.333-.2 17.167l-2.181.066-22.142 27.323c-.288-4.581-.484-9.161-.588-13.697-.5-21.698 1.187-42.412 6.331-57.11l.51.21z" fill="#ffffc2"/><path d="m489.091 641.641-.959.105-20.481-3.758-1.938-.177c2.659-34.224-.578-47.738-4.99-58.507-5.583-13.62-9.47-27.665-11.635-42.219l29.239 8.365c1.938 12.691 3.227 24.72 4.397 36.92 1.072 11.139 2.046 22.422 3.33 34.494.845 7.869 1.815 16.069 3.037 24.777z" fill="#ffffc2"/><path d="m484.229 397.865.165.199c-3.531 3.691-6.336 8.846-8.526 15.084-5.145 14.698-6.831 35.412-6.331 57.11l-2.195.061-19.316 18.189c.83-8.702 2.196-17.587 4.099-26.671 6.329-30.268 18.289-51.142 32.104-63.972z" fill="#ffffc2"/><path d="m472.991 512.918c.871 6.421 1.866 12.62 2.954 18.449.896 4.807 1.681 9.492 2.382 14.084l-29.239-8.365c-2.33-15.57-2.691-31.731-1.063-48.578l19.316-18.189 2.195-.061c.104 4.536.3 9.116.588 13.697.609 9.818 1.605 19.625 2.867 28.963z" fill="#ffffc2"/><g fill="none"><path d="m709.351 586.084s-44.204-35.063-48.689-79.989c-2.81-28.146 2.526-90.25 23.074-100.328 20.543-10.078 37.122-7.863 47.937 21.267 10.821 29.135 14.233 76.563 11.95 100.185-2.284 23.615-15.806 44.5-23.667 52.418-7.857 7.917-10.605 6.447-10.605 6.447z" stroke="#231f20" stroke-width="11.2076"/><path d="m671.605 589.593s53.489 13.697 74.037 53.142c12.877 24.715 30.667 84.106 15.449 102.003s-31.28 22.83-51.886.568c-20.604-22.267-41.075-64.469-47.611-87.155-6.532-22.692-1.717-47.59 2.613-58.176 4.336-10.581 7.398-10.382 7.398-10.382z" stroke="#231f20" stroke-width="11.2076"/><path d="m637.17 632.822s6.284-74.63 7.305-94.549c1.025-19.918-5.965-89.818 17.485-130.739 18.275-31.887 47.551-35.837 70.991-10.918 0 0 18.27 17.974 26.342 61.237 8.47 45.39 12.826 78.84-1.81 106.881-14.63 28.041-20.63 38.737-18.285 47.247 2.341 8.509 35.916 62.032 42.271 83.017 6.361 20.991 7.32 69.393-20.311 83.984-18.842 9.951-39.08 9.327-58.021-8.752-18.924-18.073-44.245-46.048-58.881-85.255-8.07-21.631-7.086-52.153-7.086-52.153z" stroke="#231f20" stroke-width="11.2076"/><path d="m568.128 734.626c-1.645 5.077-2.763 7.846-2.763 7.846s-.32 1.039-.97 2.79c-4.676 12.72-26.321 63.088-64.851 27.472-4.619-4.271-8.732-8.398-12.393-12.398-25.43-27.798-28.895-49.38-27.466-69.441.314-4.448.876-8.818 1.484-13.167 2.222-15.83 3.686-28.937 4.542-39.915 2.659-34.224-.578-47.738-4.99-58.507-5.583-13.62-9.47-27.665-11.635-42.219-2.33-15.57-2.691-31.731-1.063-48.578.83-8.702 2.196-17.587 4.099-26.671 6.33-30.268 18.29-51.142 32.105-63.972 6.506-6.05 13.424-10.316 20.362-12.929 0 0 2.206-.989 5.852-1.939 2.566-.668 5.855-1.315 9.588-1.58 11.512-.823 27.28 1.995 39.482 19.029 2.64 3.674 5.104 8.006 7.325 13.111 8.527 19.587 7.269 38.036 2.542 54.424-3.743 12.995-9.671 24.697-14.636 34.644-3.907 7.829-7.212 14.569-8.392 20.001-4.558 21.046-7.089 24.416 5.382 43.479 12.465 19.057 30.945 47.783 29.45 91.952-1.198 35.526-8.842 63.588-13.054 76.568z" stroke="#231f20" stroke-width="11.2076"/><path d="m564.21 745.179s-25.095-9.47-45.767-30.925c-6.459-6.702-12.49-14.575-17.187-23.698-2.856-5.547-5.223-11.559-6.888-18.051-.521-2.017-.974-4.083-1.351-6.193-1.557-8.714-2.84-16.896-3.928-24.671-1.222-8.708-2.191-16.907-3.036-24.775-1.284-12.072-2.258-23.355-3.33-34.494-1.171-12.2-2.459-24.229-4.397-36.92-.701-4.592-1.485-9.277-2.382-14.084-1.088-5.829-2.083-12.028-2.954-18.449-1.263-9.338-2.258-19.145-2.866-28.963-.288-4.581-.484-9.161-.588-13.697-.5-21.698 1.187-42.412 6.331-57.11 2.19-6.238 4.995-11.393 8.526-15.084" stroke="#231f20" stroke-width="11.2076"/><path d="m511.005 382.129c-.186.287-.376.58-.562.867-7.82 12.366-12.43 27.129-14.584 43.351-.567 4.255-.97 8.614-1.212 13.051-.299 5.603-.36 11.333-.2 17.167.195 7.117.716 14.377 1.51 21.726 1.629 15.007 4.402 30.373 7.903 45.573.772 3.364 1.587 6.724 2.428 10.072 1.33 5.299 2.742 10.559 4.212 15.764 1.34 4.746 2.727 9.442 4.149 14.072 5.794 18.858 6.444 38.628 7.825 60.701.165 2.569.335 5.172.526 7.802.258 3.586.557 7.227.907 10.94.752 7.867 1.768 16.039 3.273 24.565.783 4.464 1.706 9.028 2.794 13.696 5.866 25.201 15.795 38.489 23.806 45.407 7.073 6.111 12.656 7.26 12.656 7.26" stroke="#231f20" stroke-width="11.2076"/><path d="m528.347 502.773c.469-3.265.989-6.619 1.521-10.045 2.036-13.039 4.289-27.068 5.155-40.976.489-7.785.541-15.531-.129-23.04-.459-5.21-1.269-10.305-2.516-15.228-.975-3.846-2.063-7.448-3.176-10.741-4.371-12.924-9.16-21.156-9.16-21.156" stroke="#231f20" stroke-width="11.2076"/><path d="m556.575 726.581s3.16-18.438 4.938-42.838c1.475-20.267 2.001-44.649-1.041-65.978-.948-6.663-2.242-13.028-3.97-18.88-1.36-4.619-2.768-8.813-4.195-12.652-12.491-33.616-26.549-39.76-26.09-63.271.025-1.171.082-2.381.18-3.646.397-5.16 1.099-10.708 1.943-16.543" stroke="#231f20" stroke-width="11.2076"/><path d="m495.534 672.168 27.683-28.875" stroke="#231f20" stroke-width="11.2076"/><path d="m487.967 616.633s20.584 4.78 32.869 7.957" stroke="#231f20" stroke-width="11.2076"/><path d="m483.518 582.282c1.187-1.58 24.142-29.173 26.982-32.582.19-.227.288-.349.288-.349" stroke="#231f20" stroke-width="11.2076"/><path d="m472.62 512.78.371.138 29.967 11.188" stroke="#231f20" stroke-width="11.2076"/><path d="m467.65 637.988 20.482 3.758" stroke="#231f20" stroke-width="11.2076"/><path d="m500.329 691.104-40.642-.21-1.486-.006" stroke="#231f20" stroke-width="11.2076"/><path d="m519.305 712.983-.862 1.271-30.75 45.501" stroke="#231f20" stroke-width="11.2076"/><path d="m526.64 667.51.542.271 32.209 15.902" stroke="#231f20" stroke-width="11.2076"/><path d="m525.444 632.259 35.029-14.493 1.248-.514" stroke="#231f20" stroke-width="11.2076"/><path d="m521.351 577.862 30.957 8.371 3.479.94" stroke="#231f20" stroke-width="11.2076"/><path d="m506.829 533.914 19.389-10.951.066-.038" stroke="#231f20" stroke-width="11.2076"/><path d="m447.778 536.71 1.31.376 29.239 8.365h.01" stroke="#231f20" stroke-width="11.2076"/><path d="m446.819 489.641 1.206-1.133 19.317-18.19" stroke="#231f20" stroke-width="11.2076"/><path d="m469.306 484.96.819-1.005 22.142-27.323" stroke="#231f20" stroke-width="11.2076"/><path d="m476.378 413.358 18.048 12.769" stroke="#231f20" stroke-width="11.2076"/><path d="m495.9 478.264.057.027 33.91 14.438.047.022" stroke="#231f20" stroke-width="11.2076"/><path d="m494.823 439.41 40.071-10.697.922-.249" stroke="#231f20" stroke-width="11.2076"/><path d="m534.826 451.659.196.094 34.359 16.228 1.134.536" stroke="#231f20" stroke-width="11.2076"/><path d="m527.583 502.769s.273.005.758.005h.006c4.098.039 23.378.139 24.976-.961" stroke="#231f20" stroke-width="11.2076"/><path d="m531.243 402.335 28.049-1.707" stroke="#231f20" stroke-width="11.2076"/></g><path d="m394.227 374.384c29.852 1.304 29.368-23.905 17.697-48.156-14.494-30.126-17.388-65.341 7.224-88.748 22.068-20.991 44.621-44.291 38.044-80.191-3.775-20.552-29.123-50.318-49.125-36.114l-1.126-.279c.659-3.413 1.348-7.053 2.054-10.932 2.889-15.821 7.551-41.383 37.66-35.508 39.41 7.684 50.986 50.178 54.651 109.458 3.664 59.273-1.267 92.4-18.503 144.175-27.611 82.912-96.705 102.772-130.945 107.356-4.289.572-8.501.386-12.54-.466l.415-2.542s0 0 0-.007c-1.5-16.193 5.695-32.687 15.574-44.457 13.758-16.377 20.177-14.421 38.92-13.589z" fill="#9e5c26"/><path d="m419.148 237.48c-24.612 23.406-21.718 58.622-7.224 88.748 11.67 24.251 12.155 49.46-17.697 48.156-18.742-.832-25.161-2.788-38.92 13.592-9.879 11.77-17.073 28.263-15.574 44.457v.007l-.415 2.542c-28.236-5.948-47.777-44.331-21.333-82.494 30.231-43.612 78.884-188.259 78.884-188.259s4.049-12.288 10.071-43.332l1.126.279c20.002-14.205 45.35 15.562 49.125 36.114 6.578 35.9-15.975 59.2-38.043 80.19z" fill="#ffffc2"/><path d="m267.606 432.893s-7.883-61.536-18.188-84.35c-10.311-22.82-26.789-93.63-19.408-185.305 3.775-46.852 1.546-100.271 1.546-100.271l.315-.685c7.947 6.42 16.052 17.352 20.574 35.96 10.912 44.942 3.641 61.536 11.524 96.112 7.877 34.57 31.526 145.193 31.526 145.193s4.855 49.786-23.042 87.124c-1.581 2.116-3.174 4.212-4.837 6.234z" fill="#9e5c26"/><path d="m267.617 432.905c-10.427 12.682-23.743 22.641-54.587 17.271-35.78-6.221-106.122-40.791-116.433-149.344-10.305-108.554 18.801-171.473 37.601-199.131 18.795-27.657 44.568-49.094 74.584-48.575h.91s10.929.06 22.179 9.155l-.315.685s2.229 53.418-1.546 100.271c-7.381 91.675 9.097 162.485 19.408 185.305 10.305 22.814 18.188 84.35 18.188 84.35z" fill="#9e5c26"/><path d="m267.617 432.905c-10.427 12.682-23.743 22.641-54.587 17.271-35.78-6.221-106.122-40.791-116.433-149.344-10.305-108.554 18.801-171.473 37.601-199.131 18.795-27.657 44.568-49.094 74.584-48.575h.91s10.929.06 22.179 9.155c7.947 6.42 16.052 17.352 20.574 35.96 10.912 44.942 3.641 61.536 11.524 96.112 7.877 34.57 31.526 145.193 31.526 145.193s4.855 49.786-23.042 87.124c-1.579 2.117-3.173 4.213-4.836 6.235z" fill="none" stroke="#231f20" stroke-width="13.0845"/><path d="m231.557 62.967s2.229 53.418-1.546 100.271c-7.381 91.675 9.097 162.485 19.408 185.305 10.305 22.814 18.188 84.35 18.188 84.35" fill="none" stroke="#231f20" stroke-width="13.0845"/><path d="m406.941 120.896c-6.022 31.044-10.071 43.332-10.071 43.332s-48.653 144.647-78.884 188.259c-26.444 38.163-6.903 76.545 21.333 82.494 4.038.852 8.251 1.038 12.54.466 34.24-4.584 103.333-24.444 130.945-107.356 17.236-51.775 22.167-84.902 18.503-144.175-3.665-59.28-15.241-101.774-54.651-109.458-30.109-5.875-34.771 19.687-37.66 35.508-.707 3.878-1.396 7.517-2.055 10.93z" fill="none" stroke="#231f20" stroke-width="13.0845"/><path d="m408.067 121.176c20.002-14.205 45.35 15.562 49.125 36.114 6.576 35.9-15.977 59.2-38.044 80.191-24.612 23.406-21.718 58.622-7.224 88.748 11.67 24.251 12.155 49.46-17.697 48.156-18.742-.832-25.161-2.788-38.92 13.592-9.879 11.77-17.073 28.263-15.574 44.457v.007c.046.479.099.958.157 1.438" fill="none" stroke="#231f20" stroke-width="13.0845"/></svg>