<svg enable-background="new 0 0 850.394 850.394" height="850.394" viewBox="0 0 850.394 850.394" width="850.394" xmlns="http://www.w3.org/2000/svg"><path d="m663.02 367.66v192.34h-1.02l-303.66 1.3-162.34.7h-.58v-194h2.58zm-31.45 74.89v-51.45h-67.44v51.45zm-104.89 0v-51.45h-67.45v51.45zm-126.62-.29v-51.44h-67.45v51.44zm-104.89.29v-51.45h-67.45v51.45zm335.55 95.47v-51.45h-67.44v51.449h67.44zm-104.89 0v-51.45h-67.45v51.449h67.45zm-126.62-.29v-51.45h-67.45v51.45zm-104.9.29v-51.45h-67.45v51.449h67.45z" fill="#fff5b4"/><path d="m195.42 779.25v-217.25h.58l162.34-.7v.73 51.97 165.25zm99.47-41.59v-51.45h-67.45v51.45zm0-100.32v-51.45h-67.45v51.45z" fill="#c8c8c8"/><path d="m428.02 614.28-.02 3.72v158 3.25h-69.66v-165.25h5.66z" fill="#f6cc4b"/><path d="m501.25 614.61v164.64h-73.25v-3.25-158l.02-3.72z" fill="#f6cc4b"/><path d="m358.34 561.3 303.66-1.3h1.02v219.25h-161.77v-164.64-52.58h-142.91zm272.24 76.04v-51.45h-67.45v51.45zm.43 101.18v-51.45h-67.45v51.449h67.45z" fill="#c8c8c8"/><path d="m501.25 562.03v52.58l-73.23-.33-64.02-.28h-5.66v-51.97z" fill="#fff"/><path d="m195.42 368v-96h4.58 460 3.02v95.66l-465.02.34zm435.59-22.63v-51.45h-67.45v51.45zm-104.89 0v-51.45h-67.45v51.45zm-126.62-.28v-51.45h-67.45v51.45zm-104.9.28v-51.45h-67.45v51.45z" fill="#fff5b4"/><path d="m663.02 173.31v98.69h-3.02-460-4.58v-98l463.03-.69zm-32.3 77.17v-51.45h-67.44v51.45zm-104.89 0v-51.45h-67.45v51.45zm-126.62-.28v-51.45h-67.45v51.45zm-104.9.28v-51.45h-67.45v51.45z" fill="#fff5b4"/><path d="m195.42 174v-94.44h467.6v93.75h-4.57z" fill="#bd2025"/><path d="m563.56 687.07h67.45v51.449h-67.45z" fill="#fff"/><path d="m563.13 585.89h67.45v51.45h-67.45z" fill="#fff"/><path d="m227.44 686.21h67.45v51.45h-67.45z" fill="#fff"/><path d="m227.44 585.89h67.45v51.45h-67.45z" fill="#fff"/><path d="m226.86 486.57h67.45v51.449h-67.45z" fill="#fff"/><path d="m331.76 486.28h67.45v51.45h-67.45z" fill="#fff"/><path d="m458.38 486.57h67.45v51.449h-67.45z" fill="#fff"/><path d="m563.28 486.57h67.439v51.449h-67.439z" fill="#fff"/><path d="m564.13 391.1h67.44v51.45h-67.44z" fill="#fff"/><path d="m459.23 391.1h67.449v51.45h-67.449z" fill="#fff"/><path d="m332.61 390.82h67.45v51.44h-67.45z" fill="#fff"/><path d="m227.72 391.1h67.45v51.45h-67.45z" fill="#fff"/><path d="m227.15 293.92h67.45v51.45h-67.45z" fill="#fff"/><path d="m332.05 293.64h67.45v51.45h-67.45z" fill="#fff"/><path d="m458.67 293.92h67.45v51.45h-67.45z" fill="#fff"/><path d="m563.56 293.92h67.45v51.45h-67.45z" fill="#fff"/><path d="m563.28 199.03h67.439v51.45h-67.439z" fill="#fff"/><path d="m458.38 199.03h67.45v51.45h-67.45z" fill="#fff"/><path d="m331.76 198.75h67.45v51.45h-67.45z" fill="#fff"/><path d="m226.86 199.03h67.45v51.45h-67.45z" fill="#fff"/><g fill="none"><path d="m663.02 560v219.25h-161.77-73.25-69.66-162.92v-217.25-194-96-98-94.44h467.6v93.75 98.69 95.66z" stroke="#231f20" stroke-width="21"/><path d="m200 272h460" stroke="#231f20" stroke-width="21"/><path d="m194 174h1.42l463.03-.69" stroke="#231f20" stroke-width="21"/><path d="m198 368 465.02-.34" stroke="#231f20" stroke-width="21"/><path d="m196 562 162.34-.7 303.66-1.3" stroke="#231f20" stroke-width="20.5791"/><path d="m227.15 293.92h67.45v51.45h-67.45z" stroke="#231f20" stroke-width="14"/><path d="m332.05 293.64h67.45v51.45h-67.45z" stroke="#231f20" stroke-width="14"/><path d="m458.67 293.92h67.45v51.45h-67.45z" stroke="#231f20" stroke-width="14"/><path d="m563.56 293.92h67.45v51.45h-67.45z" stroke="#231f20" stroke-width="14"/><path d="m227.72 391.1h67.45v51.45h-67.45z" stroke="#231f20" stroke-width="14"/><path d="m332.61 390.82h67.45v51.44h-67.45z" stroke="#231f20" stroke-width="14"/><path d="m459.23 391.1h67.449v51.45h-67.449z" stroke="#231f20" stroke-width="14"/><path d="m564.13 391.1h67.44v51.45h-67.44z" stroke="#231f20" stroke-width="14"/><path d="m226.86 199.03h67.45v51.45h-67.45z" stroke="#231f20" stroke-width="14"/><path d="m331.76 198.75h67.45v51.45h-67.45z" stroke="#231f20" stroke-width="14"/><path d="m458.38 199.03h67.45v51.45h-67.45z" stroke="#231f20" stroke-width="14"/><path d="m563.28 199.03h67.439v51.45h-67.439z" stroke="#231f20" stroke-width="14"/><path d="m226.86 486.57h67.45v51.449h-67.45z" stroke="#231f20" stroke-width="14"/><path d="m227.44 585.89h67.45v51.45h-67.45z" stroke="#231f20" stroke-width="14"/><path d="m563.13 585.89h67.45v51.45h-67.45z" stroke="#231f20" stroke-width="14"/><path d="m227.44 686.21h67.45v51.45h-67.45z" stroke="#231f20" stroke-width="14"/><path d="m563.56 687.07h67.45v51.449h-67.45z" stroke="#231f20" stroke-width="14"/><path d="m331.76 486.28h67.45v51.45h-67.45z" stroke="#231f20" stroke-width="14"/><path d="m458.38 486.57h67.45v51.449h-67.45z" stroke="#231f20" stroke-width="14"/><path d="m563.28 486.57h67.439v51.449h-67.439z" stroke="#231f20" stroke-width="14"/><path d="m501.25 779.25v.14h-142.91v-.14-165.25-51.97h142.91v52.58z" stroke="#231f20" stroke-width="21"/><path d="m364 614 64.02.28 73.23.33h.57" stroke="#231f20" stroke-width="21"/><path d="m428 618v158" stroke="#231f20" stroke-width="21"/><path d="m0 0h850.394v850.394h-850.394z"/><path d="m500 660h160" stroke="#231f20" stroke-width="21"/><path d="m198 658h158" stroke="#231f20" stroke-width="21"/><path d="m198 462h464" stroke="#231f20" stroke-width="21"/></g></svg>