<svg enable-background="new 0 0 850.394 850.394" height="850.394" viewBox="0 0 850.394 850.394" width="850.394" xmlns="http://www.w3.org/2000/svg"><path d="m521.66 99.21c-20.55 4.33-56.521 7.2-97.45 7.2-43.85 0-82-3.29-101.61-8.15-8.95-2.22-14.04-4.77-14.04-7.47 0-8.64 51.78-15.63 115.65-15.63s115.65 6.99 115.65 15.63c0 3.1-6.68 5.99-18.2 8.42z" fill="#fff5b4"/><path d="m566.41 702.8h.02c-1.93 7.07-2.79 15.38-2.029 25.8 0 0-21.37 43.57-69.24 49.841-38.13 5.01-72.51 4.38-72.51 4.38h-.31s-34.39.63-72.52-4.38c-47.86-6.28-69.23-49.851-69.23-49.851.74-10.18-.06-18.34-1.9-25.3l.96-.25s33.47 41.18 142.85 42.43h1.88c109.379-1.25 142.029-42.67 142.029-42.67z" fill="#ef3e23"/><path d="m317.31 552.77-.59 42.521-.65-.01-37.51-15-43.76 38.76-1.43.58c-18.14-45.021-25.74-91.561-27.71-133.101l59.14 1.24-5 53.75z" fill="#ef3e23"/><path d="m634.82 512.9 2.489.25c-3.369 32.239-10.42 66.489-23.18 100.069l-28.8-.43-1.61-60.21-46.81 8.63-26.309-44.079 41.67-72.62.11-.02 9.7 48.01 30.729-16.47-26.46 51.779 34.391 11.96z" fill="#ef3e23"/><path d="m628.41 365.71c1.76 3.9 3.109 8.09 3.97 12.65 5.65 29.8 10.74 79.31 4.93 134.791l-2.489-.25-34.08 26.869-34.391-11.96 26.46-51.779-30.73 16.469-9.7-48.01-.11.02-41.67 72.62 26.311 44.08 46.81-8.63 1.61 60.21 28.8.43c-5.36 14.11-11.729 28.101-19.25 41.771-10.25 18.62-23.25 28.779-28.45 47.81h-.02s-32.65 41.42-142.03 42.67h-1.88c-109.38-1.25-142.85-42.43-142.85-42.43l-.96.25c-5.11-19.36-18.24-29.521-28.58-48.31-6.38-11.601-11.93-23.421-16.74-35.36l1.43-.58 43.76-38.76 37.51 15 .65.01.59-42.521-57.51-11.26 5-53.75-59.14-1.24c-2.12-44.489 2.21-83.229 6.94-108.169.86-4.55 2.21-8.75 3.97-12.65 19.28-42.72 88.64-50.91 127.31-120.5 6.91-12.44 10.88-24.87 12.68-36.97 7.55-50.62-22.74-95.4-33.96-109.97 19.61 4.86 57.76 8.15 101.61 8.15 40.93 0 76.9-2.87 97.45-7.2-11.74 15.48-40.63 59.46-33.24 109.02 1.811 12.11 5.78 24.54 12.68 36.97 38.669 69.589 108.029 77.779 127.309 120.509z" fill="#ef3e23"/><g fill="none"><path d="m322.6 98.26c-8.95-2.22-14.04-4.77-14.04-7.47 0-8.64 51.78-15.63 115.65-15.63s115.65 6.99 115.65 15.63c0 3.1-6.681 5.99-18.2 8.42-20.55 4.33-56.521 7.2-97.45 7.2-43.85 0-82-3.29-101.61-8.15z" stroke="#231f20" stroke-width="21"/><path d="m351.07 207.69s-47.51-21.88-81.27-3.75c-33.76 18.12-44.39 57.51-49.39 96.27-4.02 31.19-4 56.71-3.84 65.49.04 2.13.09 3.27.09 3.27" stroke="#231f20" stroke-width="21"/><path d="m526.42 93.29s-1.86 2.09-4.76 5.92c-11.74 15.48-40.63 59.46-33.24 109.02 1.811 12.11 5.78 24.54 12.68 36.97 38.67 69.59 108.03 77.78 127.311 120.51 1.76 3.9 3.109 8.09 3.97 12.65 5.65 29.8 10.74 79.31 4.93 134.791-3.369 32.239-10.42 66.489-23.18 100.069-5.36 14.11-11.729 28.101-19.25 41.771-10.25 18.62-23.25 28.779-28.45 47.81-1.93 7.07-2.79 15.38-2.029 25.8 0 0-21.37 43.57-69.24 49.841-38.13 5.01-72.51 4.38-72.51 4.38h-.31s-34.39.63-72.52-4.38c-47.86-6.28-69.23-49.851-69.23-49.851.74-10.18-.06-18.34-1.9-25.3-5.11-19.36-18.24-29.521-28.58-48.31-6.38-11.601-11.93-23.421-16.74-35.36-18.14-45.021-25.74-91.561-27.71-133.101-2.12-44.489 2.21-83.229 6.94-108.169.86-4.55 2.21-8.75 3.97-12.65 19.28-42.72 88.64-50.91 127.31-120.5 6.91-12.44 10.88-24.87 12.68-36.97 7.55-50.62-22.74-95.4-33.96-109.97-2.49-3.23-4.04-4.97-4.04-4.97" stroke="#231f20" stroke-width="21"/><path d="m493.92 207.69s47.5-21.88 81.26-3.75c33.761 18.13 44.391 57.52 49.391 96.27 4.02 31.2 4 56.73 3.84 65.5-.04 2.13-.09 3.27-.09 3.27" stroke="#231f20" stroke-width="21"/><path d="m566.41 702.8s-32.65 41.42-142.03 42.67h-1.88c-109.38-1.25-142.85-42.43-142.85-42.43" stroke="#231f20" stroke-width="21"/><path d="m204.79 486.5.87.02 59.14 1.24-5 53.75 57.51 11.26-.59 42.52-.65 47.5 81.26 21.26-18.18 29.75-23.08 37.76" stroke="#231f20" stroke-width="7"/><path d="m316.07 595.28-37.51-15-43.76 38.76" stroke="#231f20" stroke-width="7"/><path d="m349.98 651.54 74.86-37.51 42.51 28.76-11.25 46.26 60.01 5-1.25 30.01" stroke="#231f20" stroke-width="7"/><path d="m378.58 694.05.57-.25 53.19-23.5 10 35.01-28.75 32.5" stroke="#231f20" stroke-width="7"/><path d="m395.71 290.23-2.14 59.99 53.95-1.96 7.99 58.06 89.94 3.84 6.93 34.33 9.7 48.01 30.73-16.47 39.02-20.91" stroke="#231f20" stroke-width="7"/><path d="m498.02 407.48-12.86-38.3 41.17-41.5" stroke="#231f20" stroke-width="7"/><path d="m552.27 444.51-41.67 72.62 26.31 44.08 46.81-8.63 1.61 60.21 28.8.43 1.23.02" stroke="#231f20" stroke-width="7"/><path d="m593.1 475.47-.29.56-26.46 51.78 34.39 11.96 34.08-26.87" stroke="#231f20" stroke-width="7"/><path d="m0 0h850.394v850.394h-850.394z"/></g></svg>