<svg enable-background="new 0 0 850.503 850.503" height="850.503" viewBox="0 0 850.503 850.503" width="850.503" xmlns="http://www.w3.org/2000/svg"><path d="m755.227 215.131c-16.527-5.236-29.393-18.718-33.758-35.612 3.592.578 7.025 1.632 10.236 3.088 3.989 9.068 11.207 16.4 20.201 20.529 4.261 1.959 8.919 3.198 13.823 3.565 1.006.075 2.025.114 3.054.114 22.357 0 40.485-18.123 40.485-40.481s-18.128-40.485-40.485-40.485c-22.358 0-40.481 18.127-40.481 40.485 0 1.334.065 2.651.192 3.955l-.062.28c-2.782-.656-5.656-1.085-8.596-1.255v-.004l.044-.796c-.021-.573-.03-1.155-.03-1.736 0-28.005 22.703-50.713 50.713-50.713 28.009 0 50.713 22.708 50.713 50.713 0 28.009-22.704 50.717-50.713 50.717-1.059 0-2.108-.031-3.154-.096-4.221-.26-8.303-1.039-12.182-2.268z" fill="#ed1d31"/><path d="m668.188 205.31c4.781-15.914 17.174-28.539 32.943-33.639-.616 3.989-1.815 7.791-3.508 11.303l-.079-.035c-8.351 3.989-15.118 10.757-19.104 19.107h-.004c-1.934 4.046-3.216 8.464-3.705 13.119-.153 1.417-.232 2.861-.232 4.317 0 22.358 18.124 40.481 40.481 40.481s40.481-18.123 40.481-40.481c0-1.47-.079-2.922-.236-4.353 3.88 1.229 7.961 2.008 12.183 2.266.044.84.065 1.684.065 2.533 0 28.01-22.708 50.713-50.713 50.713-28.01 0-50.717-22.703-50.717-50.713 0-1.15.039-2.296.118-3.43.255-3.86.946-7.609 2.027-11.188z" fill="#33a048"/><path d="m731.705 182.607c-3.211-1.457-6.645-2.511-10.236-3.088-2.113-.341-4.278-.516-6.487-.516-.993 0-1.978.035-2.953.105l-.14-.04c.845-3.141 1.396-6.4 1.614-9.75 1.076-.066 2.165-.101 3.259-.101 1.032 0 2.056.031 3.075.092v.004c2.939.17 5.813.599 8.596 1.255 18.115 4.265 32.48 18.242 37.297 36.133-4.904-.367-9.563-1.605-13.823-3.565l.062-.131c-4.026-9.029-11.266-16.313-20.264-20.398z" fill="#33a048"/><path d="m713.503 169.317c-.219 3.351-.77 6.61-1.614 9.75-4.781 17.817-19.021 31.759-37.012 36.111l-.145-.013c.489-4.655 1.771-9.073 3.705-13.119h.004c8.373-3.968 15.167-10.726 19.183-19.073 1.692-3.513 2.892-7.314 3.508-11.303.315-2.03.477-4.112.477-6.229 0-22.357-18.123-40.481-40.48-40.481-22.358 0-40.481 18.124-40.481 40.481 0 1.194.053 2.371.153 3.539l-.123.617c-2.742-.564-5.563-.91-8.451-1.006l.018-.49c-.035-.735-.048-1.47-.048-2.213 0-28.009 22.703-50.713 50.713-50.713s50.713 22.704 50.713 50.713c-.002 1.15-.041 2.297-.12 3.429z" fill="#231f20"/><path d="m661.054 216.566c-4.204-.149-8.272-.81-12.152-1.925-17.152-4.917-30.578-18.64-35.079-35.967 3.513.446 6.881 1.343 10.053 2.633 4.169 9.777 12.078 17.585 21.925 21.619 4.208 1.719 8.767 2.756 13.543 2.961.591.026 1.186.04 1.785.04 2.41 0 4.768-.214 7.061-.617-1.081 3.579-1.772 7.328-2.025 11.19h-.031c-1.067.066-2.139.101-3.224.101-.623 0-1.244-.014-1.856-.035z" fill="#231f20"/><path d="m559.702 219.199c.004-3.688.402-7.288 1.159-10.752 3.91-17.988 17.357-32.41 34.785-37.704-.24 3.824-1.02 7.502-2.253 10.962l-.516-.179c-10.543 4.462-18.806 13.259-22.542 24.165-1.334 3.884-2.091 8.031-2.174 12.349-.005.262-.009.525-.009.787 0 22.358 18.123 40.481 40.481 40.481 22.357 0 40.48-18.124 40.48-40.481 0-1.417-.069-2.808-.214-4.186 3.88 1.115 7.948 1.776 12.152 1.925.052.896.074 1.798.074 2.703 0 28.01-22.704 50.717-50.713 50.717-28.01 0-50.713-22.708-50.713-50.717.003-.022.003-.048.003-.07z" fill="#fbee34"/><path d="m623.875 181.308c-3.172-1.291-6.54-2.187-10.053-2.633-1.697-.219-3.43-.333-5.188-.333-.617 0-1.229.013-1.842.044.621-3.159.949-6.422.953-9.76.884-.048 1.771-.07 2.669-.07.607 0 1.211.009 1.811.035 2.888.096 5.709.442 8.451 1.006 18.723 3.845 33.68 18.01 38.666 36.291-4.776-.206-9.335-1.242-13.543-2.961l.039-.092c-4.198-9.752-12.111-17.521-21.963-21.527z" fill="#fbee34"/><path d="m606.793 178.386c-3.863 19.676-19.112 35.275-38.601 39.654h-.03c.083-4.318.84-8.465 2.174-12.349 10.718-4.309 19.169-13.066 23.058-23.985 1.233-3.46 2.013-7.139 2.253-10.962.062-.87.088-1.75.088-2.633 0-22.358-18.124-40.481-40.481-40.481s-40.481 18.123-40.481 40.481 18.124 40.486 40.481 40.486c1.671 0 3.32-.101 4.938-.298l.67.149c-.757 3.464-1.155 7.064-1.159 10.752-.884.048-1.776.07-2.669.07-28.01 0-50.717-22.703-50.717-50.713s22.707-50.713 50.717-50.713c28.005 0 50.713 22.703 50.713 50.713v.07c-.005 3.337-.333 6.6-.954 9.759z" fill="#0d72ba"/><g fill="none"><path d="m559.803 219.195c-.035 0-.066.004-.101.004-.884.048-1.776.07-2.669.07-28.01 0-50.717-22.703-50.717-50.713s22.707-50.713 50.717-50.713c28.005 0 50.713 22.703 50.713 50.713v.07c-.004 3.338-.332 6.601-.953 9.76-3.863 19.676-19.112 35.275-38.601 39.654" stroke="#231f20" stroke-width="3.114"/><path d="m560.191 208.298c-1.618.197-3.268.298-4.938.298-22.357 0-40.481-18.128-40.481-40.486s18.124-40.481 40.481-40.481 40.481 18.123 40.481 40.481c0 .884-.026 1.763-.088 2.633-.24 3.824-1.02 7.502-2.253 10.962-3.889 10.919-12.34 19.676-23.058 23.985-.062.022-.118.048-.18.07" stroke="#231f20" stroke-width="3.114"/><path d="m661.036 216.194c.009.123.013.25.018.372.052.896.074 1.798.074 2.703 0 28.01-22.704 50.717-50.713 50.717-28.01 0-50.713-22.708-50.713-50.717 0-.022 0-.048 0-.07.004-3.688.402-7.288 1.159-10.752 3.91-17.988 17.357-32.41 34.785-37.704.035-.013.074-.021.109-.035" stroke="#231f20" stroke-width="3.114"/><path d="m607.746 168.626c.884-.048 1.771-.07 2.669-.07.607 0 1.211.009 1.811.035 2.888.096 5.709.442 8.451 1.006 18.723 3.845 33.68 18.01 38.666 36.291.005.018.009.031.014.048" stroke="#231f20" stroke-width="3.114"/><path d="m648.879 214.422c.009.074.018.144.022.219.145 1.378.214 2.769.214 4.186 0 22.358-18.123 40.481-40.48 40.481-22.358 0-40.481-18.124-40.481-40.481 0-.262.004-.525.009-.787.083-4.318.84-8.465 2.174-12.349 3.736-10.906 11.999-19.703 22.542-24.165" stroke="#231f20" stroke-width="3.114"/><path d="m606.578 178.395c.07-.004.145-.009.215-.009.612-.031 1.225-.044 1.842-.044 1.758 0 3.49.114 5.188.333 3.513.446 6.881 1.343 10.053 2.633 9.852 4.007 17.765 11.776 21.964 21.527" stroke="#231f20" stroke-width="3.114"/><path d="m666.132 216.5c-1.067.066-2.139.101-3.224.101-.621 0-1.242-.013-1.854-.035-4.204-.149-8.272-.81-12.152-1.925-17.152-4.917-30.578-18.64-35.079-35.967-.044-.149-.078-.297-.118-.451" stroke="#231f20" stroke-width="3.114"/><path d="m612.243 168.101c-.035-.735-.048-1.47-.048-2.213 0-28.009 22.703-50.713 50.713-50.713s50.713 22.704 50.713 50.713c0 1.15-.039 2.297-.118 3.43-.219 3.351-.77 6.61-1.614 9.75-4.781 17.817-19.021 31.759-37.012 36.111" stroke="#231f20" stroke-width="3.114"/><path d="m668.328 205.289c-.048.009-.092.017-.14.021-2.293.403-4.65.617-7.061.617-.6 0-1.194-.013-1.785-.04-4.776-.206-9.335-1.242-13.543-2.961-9.847-4.033-17.756-11.842-21.925-21.619-.088-.201-.171-.407-.254-.608" stroke="#231f20" stroke-width="3.114"/><path d="m620.8 168.98c-.101-1.168-.153-2.345-.153-3.539 0-22.357 18.123-40.481 40.481-40.481 22.357 0 40.48 18.124 40.48 40.481 0 2.117-.161 4.2-.477 6.229-.616 3.989-1.815 7.791-3.508 11.303-4.016 8.347-10.81 15.105-19.183 19.073" stroke="#231f20" stroke-width="3.114"/><path d="m767.396 217.091c.004.101.013.206.013.306.044.84.065 1.684.065 2.533 0 28.01-22.708 50.713-50.713 50.713-28.01 0-50.717-22.703-50.717-50.713 0-1.15.039-2.296.118-3.43.253-3.862.944-7.611 2.025-11.19 4.781-15.914 17.174-28.539 32.943-33.639.026-.009.048-.018.074-.026" stroke="#231f20" stroke-width="3.114"/><path d="m713.297 169.331c.07-.004.136-.009.206-.013 1.076-.066 2.165-.101 3.259-.101 1.032 0 2.056.031 3.075.092v.004c2.939.17 5.813.599 8.596 1.255 18.115 4.265 32.48 18.242 37.297 36.133.026.101.057.206.083.311" stroke="#231f20" stroke-width="3.114"/><path d="m755.2 214.855c.009.092.021.184.026.275.157 1.431.236 2.883.236 4.353 0 22.358-18.124 40.481-40.481 40.481s-40.481-18.123-40.481-40.481c0-1.457.079-2.9.232-4.317.489-4.655 1.771-9.073 3.705-13.119h.004c3.985-8.351 10.753-15.118 19.104-19.107" stroke="#231f20" stroke-width="3.114"/><path d="m712.028 179.107c.976-.07 1.96-.105 2.953-.105 2.209 0 4.374.175 6.487.516 3.592.578 7.025 1.632 10.236 3.088 8.998 4.085 16.238 11.369 20.263 20.398" stroke="#231f20" stroke-width="3.114"/><path d="m719.881 168.512c-.021-.573-.03-1.155-.03-1.736 0-28.005 22.703-50.713 50.713-50.713 28.009 0 50.713 22.708 50.713 50.713 0 28.009-22.704 50.717-50.713 50.717-1.059 0-2.108-.031-3.154-.096-4.222-.258-8.303-1.037-12.183-2.266-16.527-5.236-29.393-18.718-33.758-35.612-.03-.109-.062-.214-.088-.324" stroke="#231f20" stroke-width="3.114"/><path d="m728.494 170.289c-.127-1.304-.192-2.621-.192-3.955 0-22.358 18.123-40.485 40.481-40.485 22.357 0 40.485 18.127 40.485 40.485s-18.128 40.481-40.485 40.481c-1.028 0-2.048-.039-3.054-.114-4.904-.367-9.563-1.605-13.823-3.565-8.994-4.129-16.212-11.461-20.201-20.529-.044-.096-.088-.192-.127-.289" stroke="#231f20" stroke-width="3.114"/><path d="m0 .109h850.394v850.394h-850.394z"/><path d="m0 .109h850.394v850.394h-850.394z"/></g><path d="m254.39 289.139h-.02c-.83-7.99.53-26.53 1.56-28.38 4.11-7.4 11.91 13.39 19.31 14.53 5.34.82-.17-10.52-.48-18.95-.17-4.98 14.92-39.36 18.06-43.17 1.74-2.12 5.17 20.37 8.18 26.54 11.88 24.33 15.87 23.25 16.62 33.01.63 8.19 4.92 7.23 2.86 11.55-1.16 2.45-3.12 4.57-4.4 6.97-.72 1.35-1.65 3.42-.27 4.22 2.67 1.56 2.44 1.2 4.75 1.84 5.29 1.41 5.96 27.83 4.31 30.71v.38h-68.79c-2.06-.48.3-8.43-2.25-19.97-.17-.81.47-12.56.56-19.28z" fill="#ed1d31"/><path d="m353.19 477.47-34.54 328.479h-55.8l-34.54-328.479-.44-1.691h125.76z" fill="#c8c8c8"/><path d="m235.03 328.119c-5.91 0-13.98-26.98-19.82-53.46-.39-1.78 1.04-27.73 1.24-42.57h-.06c-1.81-17.64 1.18-58.55 3.45-62.64 9.08-16.32 26.3 29.55 42.64 32.07 11.78 1.82-.39-23.21-1.06-41.84-.4-10.97 32.92-86.86 39.84-95.28 3.85-4.69 11.43 44.98 18.07 58.59 26.22 53.7 35.03 51.33 36.69 72.86 1.39 18.08 10.86 15.96 6.32 25.49-2.58 5.41-6.9 10.11-9.72 15.4-1.6 2.98-3.64 7.53-.6 9.31 5.9 3.44 5.4 2.67 10.48 4.05 11.69 3.11 2.72 23.13-.94 29.47-4.76 8.27-4.81 38.94-10.75 46.11v2.71h-25.94v-.38c1.65-2.88.98-29.3-4.31-30.71-2.31-.64-2.08-.28-4.75-1.84-1.38-.8-.45-2.87.27-4.22 1.28-2.4 3.24-4.52 4.4-6.97 2.06-4.32-2.23-3.36-2.86-11.55-.75-9.76-4.74-8.68-16.62-33.01-3.01-6.17-6.44-28.66-8.18-26.54-3.14 3.81-18.23 38.19-18.06 43.17.31 8.43 5.82 19.77.48 18.95-7.4-1.14-15.2-21.93-19.31-14.53-1.03 1.85-2.39 20.39-1.56 28.38h.02c-.09 6.72-.73 18.47-.56 19.28 2.55 11.54.19 19.49 2.25 19.97h-21.05z" fill="#fbee34"/><path d="m256.08 328.389h68.79 25.94 40.27v4.211l-37.45 143.179h-125.76l-37.45-143.179v-4.211h44.61z" fill="#c8c8c8"/><path d="m176.1 328.389h14.32 44.61 21.05 68.79 25.94 40.27 13.27" fill="none" stroke="#231f20" stroke-linecap="round" stroke-linejoin="round" stroke-width="21"/><path d="m218.21 475.779h9.66 125.76 10.29" fill="none" stroke="#231f20" stroke-linecap="round" stroke-linejoin="round" stroke-width="21"/><path d="m391.08 332.6-37.45 143.179-.44 1.691-34.54 328.479h-55.8l-34.54-328.479-.44-1.691-37.45-143.179" fill="none" stroke="#231f20" stroke-width="21"/><path d="m216.39 232.089c-1.81-17.64 1.18-58.55 3.45-62.64 9.08-16.32 26.3 29.55 42.64 32.07 11.78 1.82-.39-23.21-1.06-41.84-.4-10.97 32.92-86.86 39.84-95.28 3.85-4.69 11.43 44.98 18.07 58.59 26.22 53.7 35.03 51.33 36.69 72.86 1.39 18.08 10.86 15.96 6.32 25.49-2.58 5.41-6.9 10.11-9.72 15.4-1.6 2.98-3.64 7.53-.6 9.31 5.9 3.44 5.4 2.67 10.48 4.05 11.69 3.11 2.72 23.13-.94 29.47-4.76 8.27-4.81 38.94-10.75 46.11" fill="none" stroke="#231f20" stroke-width="14"/><path d="m235.28 328.1c-.08.01-.17.02-.25.02-5.91 0-13.98-26.98-19.82-53.46-.39-1.78 1.04-27.73 1.24-42.57.07-5.71-.03-9.77-.49-10.19" fill="none" stroke="#231f20" stroke-width="14"/><path d="m254.37 289.139c-.83-7.99.53-26.53 1.56-28.38 4.11-7.4 11.91 13.39 19.31 14.53 5.34.82-.17-10.52-.48-18.95-.17-4.98 14.92-39.36 18.06-43.17 1.74-2.12 5.17 20.37 8.18 26.54 11.88 24.33 15.87 23.25 16.62 33.01.63 8.19 4.92 7.23 2.86 11.55-1.16 2.45-3.12 4.57-4.4 6.97-.72 1.35-1.65 3.42-.27 4.22 2.67 1.56 2.44 1.2 4.75 1.84 5.29 1.41 5.96 27.83 4.31 30.71" fill="none" stroke="#231f20" stroke-width="7"/><path d="m256.45 328.409c-.14.02-.26.01-.37-.02-2.06-.48.3-8.43-2.25-19.97-.17-.81.47-12.56.56-19.28.04-2.59-.01-4.43-.22-4.62" fill="none" stroke="#231f20" stroke-width="7"/></svg>