<svg enable-background="new 0 0 850.503 850.503" height="850.503" viewBox="0 0 850.503 850.503" width="850.503" xmlns="http://www.w3.org/2000/svg"><path d="m755.227 215.131c-16.527-5.236-29.393-18.718-33.758-35.612 3.592.578 7.025 1.632 10.236 3.088 3.989 9.068 11.207 16.4 20.201 20.529 4.261 1.959 8.919 3.198 13.823 3.565 1.006.075 2.025.114 3.054.114 22.357 0 40.485-18.123 40.485-40.481s-18.128-40.485-40.485-40.485c-22.358 0-40.481 18.127-40.481 40.485 0 1.334.065 2.651.192 3.955l-.062.28c-2.782-.656-5.656-1.085-8.596-1.255v-.004l.044-.796c-.021-.573-.03-1.155-.03-1.736 0-28.005 22.703-50.713 50.713-50.713 28.009 0 50.713 22.708 50.713 50.713 0 28.009-22.704 50.717-50.713 50.717-1.059 0-2.108-.031-3.154-.096-4.221-.26-8.303-1.039-12.182-2.268z" fill="#ed1d31"/><path d="m668.188 205.31c4.781-15.914 17.174-28.539 32.943-33.639-.616 3.989-1.815 7.791-3.508 11.303l-.079-.035c-8.351 3.989-15.118 10.757-19.104 19.107h-.004c-1.934 4.046-3.216 8.464-3.705 13.119-.153 1.417-.232 2.861-.232 4.317 0 22.358 18.124 40.481 40.481 40.481s40.481-18.123 40.481-40.481c0-1.47-.079-2.922-.236-4.353 3.88 1.229 7.961 2.008 12.183 2.266.044.84.065 1.684.065 2.533 0 28.01-22.708 50.713-50.713 50.713-28.01 0-50.717-22.703-50.717-50.713 0-1.15.039-2.296.118-3.43.255-3.86.946-7.609 2.027-11.188z" fill="#33a048"/><path d="m731.705 182.607c-3.211-1.457-6.645-2.511-10.236-3.088-2.113-.341-4.278-.516-6.487-.516-.993 0-1.978.035-2.953.105l-.14-.04c.845-3.141 1.396-6.4 1.614-9.75 1.076-.066 2.165-.101 3.259-.101 1.032 0 2.056.031 3.075.092v.004c2.939.17 5.813.599 8.596 1.255 18.115 4.265 32.48 18.242 37.297 36.133-4.904-.367-9.563-1.605-13.823-3.565l.062-.131c-4.026-9.029-11.266-16.313-20.264-20.398z" fill="#33a048"/><path d="m713.503 169.317c-.219 3.351-.77 6.61-1.614 9.75-4.781 17.817-19.021 31.759-37.012 36.111l-.145-.013c.489-4.655 1.771-9.073 3.705-13.119h.004c8.373-3.968 15.167-10.726 19.183-19.073 1.692-3.513 2.892-7.314 3.508-11.303.315-2.03.477-4.112.477-6.229 0-22.357-18.123-40.481-40.48-40.481-22.358 0-40.481 18.124-40.481 40.481 0 1.194.053 2.371.153 3.539l-.123.617c-2.742-.564-5.563-.91-8.451-1.006l.018-.49c-.035-.735-.048-1.47-.048-2.213 0-28.009 22.703-50.713 50.713-50.713s50.713 22.704 50.713 50.713c-.002 1.15-.041 2.297-.12 3.429z" fill="#231f20"/><path d="m661.054 216.566c-4.204-.149-8.272-.81-12.152-1.925-17.152-4.917-30.578-18.64-35.079-35.967 3.513.446 6.881 1.343 10.053 2.633 4.169 9.777 12.078 17.585 21.925 21.619 4.208 1.719 8.767 2.756 13.543 2.961.591.026 1.186.04 1.785.04 2.41 0 4.768-.214 7.061-.617-1.081 3.579-1.772 7.328-2.025 11.19h-.031c-1.067.066-2.139.101-3.224.101-.623 0-1.244-.014-1.856-.035z" fill="#231f20"/><path d="m559.702 219.199c.004-3.688.402-7.288 1.159-10.752 3.91-17.988 17.357-32.41 34.785-37.704-.24 3.824-1.02 7.502-2.253 10.962l-.516-.179c-10.543 4.462-18.806 13.259-22.542 24.165-1.334 3.884-2.091 8.031-2.174 12.349-.005.262-.009.525-.009.787 0 22.358 18.123 40.481 40.481 40.481 22.357 0 40.48-18.124 40.48-40.481 0-1.417-.069-2.808-.214-4.186 3.88 1.115 7.948 1.776 12.152 1.925.052.896.074 1.798.074 2.703 0 28.01-22.704 50.717-50.713 50.717-28.01 0-50.713-22.708-50.713-50.717.003-.022.003-.048.003-.07z" fill="#fbee34"/><path d="m623.875 181.308c-3.172-1.291-6.54-2.187-10.053-2.633-1.697-.219-3.43-.333-5.188-.333-.617 0-1.229.013-1.842.044.621-3.159.949-6.422.953-9.76.884-.048 1.771-.07 2.669-.07.607 0 1.211.009 1.811.035 2.888.096 5.709.442 8.451 1.006 18.723 3.845 33.68 18.01 38.666 36.291-4.776-.206-9.335-1.242-13.543-2.961l.039-.092c-4.198-9.752-12.111-17.521-21.963-21.527z" fill="#fbee34"/><path d="m606.793 178.386c-3.863 19.676-19.112 35.275-38.601 39.654h-.03c.083-4.318.84-8.465 2.174-12.349 10.718-4.309 19.169-13.066 23.058-23.985 1.233-3.46 2.013-7.139 2.253-10.962.062-.87.088-1.75.088-2.633 0-22.358-18.124-40.481-40.481-40.481s-40.481 18.123-40.481 40.481 18.124 40.486 40.481 40.486c1.671 0 3.32-.101 4.938-.298l.67.149c-.757 3.464-1.155 7.064-1.159 10.752-.884.048-1.776.07-2.669.07-28.01 0-50.717-22.703-50.717-50.713s22.707-50.713 50.717-50.713c28.005 0 50.713 22.703 50.713 50.713v.07c-.005 3.337-.333 6.6-.954 9.759z" fill="#0d72ba"/><g fill="none"><path d="m559.803 219.195c-.035 0-.066.004-.101.004-.884.048-1.776.07-2.669.07-28.01 0-50.717-22.703-50.717-50.713s22.707-50.713 50.717-50.713c28.005 0 50.713 22.703 50.713 50.713v.07c-.004 3.338-.332 6.601-.953 9.76-3.863 19.676-19.112 35.275-38.601 39.654" stroke="#231f20" stroke-width="3.114"/><path d="m560.191 208.298c-1.618.197-3.268.298-4.938.298-22.357 0-40.481-18.128-40.481-40.486s18.124-40.481 40.481-40.481 40.481 18.123 40.481 40.481c0 .884-.026 1.763-.088 2.633-.24 3.824-1.02 7.502-2.253 10.962-3.889 10.919-12.34 19.676-23.058 23.985-.062.022-.118.048-.18.07" stroke="#231f20" stroke-width="3.114"/><path d="m661.036 216.194c.009.123.013.25.018.372.052.896.074 1.798.074 2.703 0 28.01-22.704 50.717-50.713 50.717-28.01 0-50.713-22.708-50.713-50.717 0-.022 0-.048 0-.07.004-3.688.402-7.288 1.159-10.752 3.91-17.988 17.357-32.41 34.785-37.704.035-.013.074-.021.109-.035" stroke="#231f20" stroke-width="3.114"/><path d="m607.746 168.626c.884-.048 1.771-.07 2.669-.07.607 0 1.211.009 1.811.035 2.888.096 5.709.442 8.451 1.006 18.723 3.845 33.68 18.01 38.666 36.291.005.018.009.031.014.048" stroke="#231f20" stroke-width="3.114"/><path d="m648.879 214.422c.009.074.018.144.022.219.145 1.378.214 2.769.214 4.186 0 22.358-18.123 40.481-40.48 40.481-22.358 0-40.481-18.124-40.481-40.481 0-.262.004-.525.009-.787.083-4.318.84-8.465 2.174-12.349 3.736-10.906 11.999-19.703 22.542-24.165" stroke="#231f20" stroke-width="3.114"/><path d="m606.578 178.395c.07-.004.145-.009.215-.009.612-.031 1.225-.044 1.842-.044 1.758 0 3.49.114 5.188.333 3.513.446 6.881 1.343 10.053 2.633 9.852 4.007 17.765 11.776 21.964 21.527" stroke="#231f20" stroke-width="3.114"/><path d="m666.132 216.5c-1.067.066-2.139.101-3.224.101-.621 0-1.242-.013-1.854-.035-4.204-.149-8.272-.81-12.152-1.925-17.152-4.917-30.578-18.64-35.079-35.967-.044-.149-.078-.297-.118-.451" stroke="#231f20" stroke-width="3.114"/><path d="m612.243 168.101c-.035-.735-.048-1.47-.048-2.213 0-28.009 22.703-50.713 50.713-50.713s50.713 22.704 50.713 50.713c0 1.15-.039 2.297-.118 3.43-.219 3.351-.77 6.61-1.614 9.75-4.781 17.817-19.021 31.759-37.012 36.111" stroke="#231f20" stroke-width="3.114"/><path d="m668.328 205.289c-.048.009-.092.017-.14.021-2.293.403-4.65.617-7.061.617-.6 0-1.194-.013-1.785-.04-4.776-.206-9.335-1.242-13.543-2.961-9.847-4.033-17.756-11.842-21.925-21.619-.088-.201-.171-.407-.254-.608" stroke="#231f20" stroke-width="3.114"/><path d="m620.8 168.98c-.101-1.168-.153-2.345-.153-3.539 0-22.357 18.123-40.481 40.481-40.481 22.357 0 40.48 18.124 40.48 40.481 0 2.117-.161 4.2-.477 6.229-.616 3.989-1.815 7.791-3.508 11.303-4.016 8.347-10.81 15.105-19.183 19.073" stroke="#231f20" stroke-width="3.114"/><path d="m767.396 217.091c.004.101.013.206.013.306.044.84.065 1.684.065 2.533 0 28.01-22.708 50.713-50.713 50.713-28.01 0-50.717-22.703-50.717-50.713 0-1.15.039-2.296.118-3.43.253-3.862.944-7.611 2.025-11.19 4.781-15.914 17.174-28.539 32.943-33.639.026-.009.048-.018.074-.026" stroke="#231f20" stroke-width="3.114"/><path d="m713.297 169.331c.07-.004.136-.009.206-.013 1.076-.066 2.165-.101 3.259-.101 1.032 0 2.056.031 3.075.092v.004c2.939.17 5.813.599 8.596 1.255 18.115 4.265 32.48 18.242 37.297 36.133.026.101.057.206.083.311" stroke="#231f20" stroke-width="3.114"/><path d="m755.2 214.855c.009.092.021.184.026.275.157 1.431.236 2.883.236 4.353 0 22.358-18.124 40.481-40.481 40.481s-40.481-18.123-40.481-40.481c0-1.457.079-2.9.232-4.317.489-4.655 1.771-9.073 3.705-13.119h.004c3.985-8.351 10.753-15.118 19.104-19.107" stroke="#231f20" stroke-width="3.114"/><path d="m712.028 179.107c.976-.07 1.96-.105 2.953-.105 2.209 0 4.374.175 6.487.516 3.592.578 7.025 1.632 10.236 3.088 8.998 4.085 16.238 11.369 20.263 20.398" stroke="#231f20" stroke-width="3.114"/><path d="m719.881 168.512c-.021-.573-.03-1.155-.03-1.736 0-28.005 22.703-50.713 50.713-50.713 28.009 0 50.713 22.708 50.713 50.713 0 28.009-22.704 50.717-50.713 50.717-1.059 0-2.108-.031-3.154-.096-4.222-.258-8.303-1.037-12.183-2.266-16.527-5.236-29.393-18.718-33.758-35.612-.03-.109-.062-.214-.088-.324" stroke="#231f20" stroke-width="3.114"/><path d="m728.494 170.289c-.127-1.304-.192-2.621-.192-3.955 0-22.358 18.123-40.485 40.481-40.485 22.357 0 40.485 18.127 40.485 40.485s-18.128 40.481-40.485 40.481c-1.028 0-2.048-.039-3.054-.114-4.904-.367-9.563-1.605-13.823-3.565-8.994-4.129-16.212-11.461-20.201-20.529-.044-.096-.088-.192-.127-.289" stroke="#231f20" stroke-width="3.114"/><path d="m0 .109h850.394v850.394h-850.394z"/></g><path d="m320.257 586.506c-13.333 3.849-22.468 4.296-22.468 4.296s-7.969-4.62-18.076-14.307c-15.911-15.253-37.133-43.068-40.982-85.19-3.366-36.932 19.119-129.643 19.119-129.643l45.716 10.835 17.751 4.208 25.966 6.154 33.943 8.117 22.284 5.33 34.39 8.223s-21.504 92.931-41.088 124.428c-22.563 36.282-55.025 51.334-76.555 57.549z" fill="#c8c8c8"/><path d="m335.361 345.794c2.56-6.986 11.221-21.863 12.834-22.985 6.426-4.488 4.471 15.981 10.169 19.943 4.111 2.849 4.129-8.828 7.302-15.972 1.876-4.217 28.411-26.702 32.566-28.596 2.314-1.061-3.971 19.058-3.971 25.414 0 25.08 3.761 25.808.421 34.232-2.805 7.074 1.157 8.021-2.314 10.774-1.963 1.569-4.453 2.542-6.496 4.015-1.148.833-2.762 2.174-1.938 3.401 1.587 2.384 1.543 1.999 3.208 3.463 3.831 3.322-3.235 9.213-5.786 10.94l-.131.552-33.943-8.117-25.966-6.154c.167-1.823 3.612-6.198 5.76-15.078.184-.745 5.496-10.265 8.301-15.823z" fill="#ed1d31"/><path d="m314.13 723.697c1.709.903 2.761 1.911 2.945 3.042 1.622 9.678-5.987 18.523-15.858 25.281 0 0-6.286 3.568-11.756 4.463-4.076.666-7.705-.149-7.959-5.032-.395-8.126-27.666-4.725-42.762 6.355-12.483 9.188-13.482 14.078-21.784 21.048-1.727 1.446-3.769 2.98-6.294 4.663-14.666 9.766-38.168 11.213-55.201 13.439-17.568 2.287-36.249-1.754-48.25 14.596l-19.391-90.029c16.91-11.458 141.197-95.657 152.769-103.267 7.188-4.733 16.077-7.723 28.464-7.819 11.694-.087 26.5 2.42 45.917 8.495 0 0 21.609 14.28 22.906 23.721 0 0-.342 17.34-13.737 14.307l-.009.026c1.543.579 2.928 1.14 4.103 1.692 3.445 1.586 5.953 3.208 7.109 4.83 5.321 7.521-4.348 28.157-15.551 27.885l-.017.062c7.241 2.314 12.202 4.742 12.597 7.136 2.472 14.815-10.318 23.634-18.233 25.089z" fill="#ffeec8"/><path d="m326.928 282.879c5.663-15.419 24.782-48.258 28.333-50.739 14.184-9.897 9.879 35.284 22.459 44.024 9.064 6.303 9.1-19.479 16.112-35.258 4.129-9.292 62.705-58.926 71.883-63.117 5.111-2.34-8.766 42.078-8.766 56.104 0 55.358 8.293 56.963.929 75.556-6.188 15.613 2.56 17.699-5.093 23.792-4.349 3.454-9.854 5.61-14.351 8.863-2.542 1.832-6.093 4.787-4.277 7.504 3.506 5.26 3.4 4.418 7.074 7.635 8.459 7.337-7.136 20.355-12.755 24.142-7.329 4.953-16.884 10.441-24.748 13.991l-.219.929-22.284-5.33.131-.552c2.551-1.727 9.617-7.618 5.786-10.94-1.666-1.464-1.622-1.079-3.208-3.463-.824-1.227.789-2.568 1.938-3.401 2.042-1.473 4.532-2.446 6.496-4.015 3.472-2.753-.491-3.7 2.314-10.774 3.34-8.424-.421-9.152-.421-34.232 0-6.355 6.285-26.474 3.971-25.414-4.155 1.894-30.69 24.379-32.566 28.596-3.173 7.145-3.191 18.821-7.302 15.972-5.698-3.962-3.743-24.432-10.169-19.943-1.613 1.122-10.274 15.999-12.834 22.985l.018.009c-2.805 5.558-8.117 15.078-8.301 15.823-2.148 8.88-5.593 13.254-5.76 15.078l-17.751-4.208.851-3.603c-5.26-1.753-1.753-26.299 4.234-51.063.403-1.64 12.124-22.652 18.321-34.925z" fill="#fbee34"/><path d="m292.512 756.982-3.577 21.916s-2.042 26.491-25.562 32.022c-9.88 2.323-13.579 2.35-18.103 1.307l-.123-.026c-4.506-1.096-7.679-2.823-15.499-9.362-8.442-7.057-10.958-15.998-11.186-23.643l-1.508-.342c8.302-6.97 9.301-11.86 21.784-21.048 15.096-11.08 42.367-14.481 42.762-6.355.254 4.883 3.883 5.698 7.959 5.032z" fill="#c8c8c8"/><path d="m314.971 618.933c-19.417-6.075-34.223-8.582-45.917-8.495v-.359l10.476-33.382.184-.201c10.107 9.687 18.076 14.307 18.076 14.307s9.134-.447 22.468-4.296z" fill="#c8c8c8"/><path d="m320.257 586.506c21.53-6.215 53.991-21.267 76.555-57.55 19.584-31.497 41.088-124.428 41.088-124.428l-34.39-8.223-22.284-5.33-33.943-8.117-25.966-6.154-17.751-4.208-45.716-10.835s-22.485 92.711-19.119 129.643c3.849 42.122 25.071 69.938 40.982 85.19 10.107 9.687 18.076 14.307 18.076 14.307s9.135-.447 22.468-4.295z" fill="none" stroke="#231f20" stroke-width="13.5635"/><path d="m269.054 610.078 10.475-33.382" fill="none" stroke="#231f20" stroke-width="13.5635"/><path d="m292.521 756.912-.009.07-3.577 21.916s-2.042 26.491-25.562 32.022c-9.88 2.323-13.579 2.35-18.103 1.307l-.123-.026c-4.506-1.096-7.679-2.823-15.499-9.362-8.442-7.057-10.958-15.998-11.186-23.643" fill="none" stroke="#231f20" stroke-width="13.5635"/><path d="m320.266 586.436-.009.07-5.286 32.427" fill="none" stroke="#231f20" stroke-width="13.5635"/><path d="m328.234 658.679c3.445 1.586 5.953 3.208 7.109 4.83 5.321 7.521-4.348 28.157-15.551 27.885" fill="none" stroke="#231f20" stroke-width="13.5635"/><path d="m328.234 658.679c-1.174-.553-2.56-1.113-4.103-1.692-16.866-6.32-53.482-14.043-64.046-16.077" fill="none" stroke="#231f20" stroke-width="13.5635"/><path d="m85.919 722.812s.666-.446 1.902-1.288c16.91-11.458 141.197-95.657 152.769-103.267 7.188-4.733 16.077-7.723 28.464-7.819 11.694-.087 26.5 2.42 45.917 8.495 0 0 21.609 14.28 22.906 23.721 0 0-.342 17.34-13.737 14.307" fill="none" stroke="#231f20" stroke-width="13.5635"/><path d="m254.344 678.525s43.34 5.891 65.431 12.93c7.241 2.314 12.202 4.742 12.597 7.136 2.472 14.815-10.318 23.634-18.233 25.089" fill="none" stroke="#231f20" stroke-width="13.5635"/><path d="m250.417 715.957s50.783.858 63.713 7.74c1.709.903 2.761 1.911 2.945 3.042 1.622 9.678-5.987 18.523-15.858 25.281 0 0-6.286 3.568-11.756 4.463-4.076.666-7.705-.149-7.959-5.032-.395-8.126-27.666-4.725-42.762 6.355-12.483 9.188-13.482 14.078-21.784 21.048-1.727 1.446-3.769 2.98-6.294 4.663-14.666 9.766-38.168 11.213-55.201 13.439-17.568 2.287-36.249-1.754-48.25 14.596" fill="none" stroke="#231f20" stroke-width="13.5635"/><path d="m326.928 282.879c5.663-15.419 24.782-48.258 28.333-50.739 14.184-9.897 9.879 35.284 22.459 44.024 9.064 6.303 9.1-19.479 16.112-35.258 4.129-9.292 62.705-58.926 71.883-63.117 5.111-2.34-8.766 42.078-8.766 56.104 0 55.358 8.293 56.963.929 75.556-6.188 15.613 2.56 17.699-5.093 23.792-4.349 3.454-9.854 5.61-14.351 8.863-2.542 1.832-6.093 4.787-4.277 7.504 3.506 5.26 3.4 4.418 7.074 7.635 8.459 7.337-7.136 20.355-12.755 24.142-7.329 4.953-16.884 10.441-24.748 13.991" fill="none" stroke="#231f20" stroke-width="13.5635"/><path d="m304.417 368.894c-5.26-1.753-1.753-26.299 4.234-51.063.403-1.64 12.124-22.652 18.321-34.925 2.384-4.725 3.954-8.152 3.743-8.688" fill="none" stroke="#231f20" stroke-width="13.5635"/><path d="m335.361 345.794c2.56-6.986 11.221-21.863 12.834-22.985 6.426-4.488 4.471 15.981 10.169 19.943 4.111 2.849 4.129-8.828 7.302-15.972 1.876-4.217 28.411-26.702 32.566-28.596 2.314-1.061-3.971 19.058-3.971 25.414 0 25.08 3.761 25.808.421 34.232-2.805 7.074 1.157 8.021-2.314 10.774-1.963 1.569-4.453 2.542-6.496 4.015-1.148.833-2.762 2.174-1.938 3.401 1.587 2.384 1.543 1.999 3.208 3.463 3.831 3.322-3.235 9.213-5.786 10.94" fill="none" stroke="#231f20" stroke-width="6.1363"/><path d="m321.949 377.66c-.5-.167-.684-.473-.631-.956.167-1.823 3.612-6.198 5.76-15.078.184-.745 5.496-10.265 8.301-15.823 1.079-2.139 1.789-3.69 1.692-3.936" fill="none" stroke="#231f20" stroke-width="6.1363"/><path d="m0 .109h850.394v850.394h-850.394z" fill="none"/></svg>