<svg enable-background="new 0 0 850.394 850.394" height="850.394" viewBox="0 0 850.394 850.394" width="850.394" xmlns="http://www.w3.org/2000/svg"><path d="m745.71 529.83c3.87 15.71 13.45 48.61 13.45 48.61l-15.17 3.819-29.311-64.13-3.5 36.58c1.08 2.89 3.86 11.021 5.681 22.41l-1.04.17h-83.65l-3.51-.39c1.6-13.811 4.21-22.17 4.21-22.17l-2.9-36.95-29.29 64.13-14.09-7.59c2.62-9.09 9.271-32.37 12.36-44.83 5.63-22.771 24.26-60.32 24.26-60.32 4.75-4.74 12.73-10.32 19.54-14.71 6.62-4.28 12.12-7.44 12.41-7.61h.01c4.14 4.37 9.43 6.98 15.2 6.98 5.63 0 10.81-2.5 14.92-6.69l4.21.061s5.62 3.21 12.42 7.6c6.8 4.4 14.79 9.98 19.54 14.72 0 0 18.62 37.55 24.25 60.31z" fill="#abd150"/><path d="m636.59 734.74c0 .14-.01.29-.03.43-1.01-12.59-9.1-114-9.1-137.189 0-7.91.5-15.021 1.2-21.08l3.51.39h83.65l1.04-.17c1 6.2 1.71 13.38 1.71 21.189 0 23.48-7.59 127.29-8.36 137.75l-18.08 5.7-1.68-11.24h-.021l-13.799-121.62-7.02-.04-14.11 122.14h.04l-1.21 9.51z" fill="#797878"/><path d="m710.21 736.06.03-.01c.02 5.15 9.96 9.69 17.72 14.12 4.85 2.76 7.61 7.55 6.18 12.66-1.21 4.24-10.56 6.61-15.29 3.9-8.21-4.681-2.869-3.07-8.97-5.44-14.08-5.51-16.78-2.87-17.75-19.53z" fill="#231f20"/><path d="m636.56 735.22c0-.02 0-.029 0-.05.021-.14.03-.29.03-.43l17.74 5.77c-.99 16.67-3.68 14.03-17.76 19.53-6.11 2.36-.761.77-8.971 5.45-4.739 2.71-14.08.33-15.29-3.91-1.439-5.12 1.33-9.9 6.181-12.66 7.52-4.29 17.44-8.74 18.07-13.7z" fill="#231f20"/><path d="m759.16 578.44c3.729 11.88 4.43 26.529 3.13 31.18-.771 2.74-4.32 6.62-7.66 6.22-3.71-.41-4.55-9.13-6.35-11.92-2.8.59-1.36 4.67-3.431 4.67-1.8-1.79-2.399-6.729-2.399-11.89 0-6.09.84-12.5 1.54-14.44z" fill="#ffeec8"/><path d="m586.59 574.32 14.09 7.59c.7 1.939 1.54 8.34 1.54 14.43 0 5.17-.6 10.11-2.399 11.91-2.061 0-.641-4.1-3.44-4.67-1.79 2.77-2.64 11.52-6.34 11.92-3.34.39-6.9-3.49-7.66-6.23-1.31-4.649-.61-19.279 3.12-31.18-.001 0 .409-1.4 1.089-3.77z" fill="#ffeec8"/><path d="m670.37 391.17c13.35 0 24.17 14.03 24.17 31.33 0 10-3.62 18.91-9.25 24.64-4.11 4.19-9.29 6.69-14.92 6.69-5.771 0-11.061-2.61-15.2-6.98 0 0 0 0-.01 0-5.47-5.739-8.97-14.52-8.97-24.35 0-17.3 10.82-31.33 24.18-31.33z" fill="#ffeec8"/><path d="m395.41 387.71h54.49v48.9h-54.49z" fill="#fff"/><path d="m449.9 338.07v49.64h-54.49v-46.64-3z" fill="#fff"/><path d="m395.41 341.07v46.64h-51.16-4.87v-49.64h56.03z" fill="#fff"/><path d="m395.41 387.71v48.9h-56.03v-48.9h4.87z" fill="#fff"/><path d="m261.53 563.74v56.42h-55.3v-5.27-51.15z" fill="#fff"/><path d="m261.53 521.61v42.13h-55.3v-40.63-1.5z" fill="#fff"/><path d="m206.23 614.89v5.27h-55.22v-98.55h55.22v1.5 40.63z" fill="#fff"/><path d="m151.01 387.71h56.03v48.9h-56.03z" fill="#fff"/><path d="m207.04 387.71h54.49v48.9h-54.49z" fill="#fff"/><path d="m261.53 338.07v49.64h-54.49v-46.64-3z" fill="#fff"/><path d="m207.04 341.07v46.64h-56.03v-49.64h56.03z" fill="#fff"/><path d="m484.1 276.69h24.98v413.43h-59.18v-179.03h-110.52v179.03h-237.08v-413.43h4.43zm-34.2 159.92v-48.9-49.64h-54.49-56.03v49.64 48.9h56.03zm-188.37 183.55v-56.42-42.13h-55.3-55.22v98.55h55.22zm0-183.55v-48.9-49.64h-54.49-56.03v49.64 48.9h56.03z" fill="#fff5b4"/><path d="m339.38 511.09h110.521v179.03h-110.521z" fill="#394ea1"/><path d="m198.65 173.06 3.58 4.34-35.52 29.27h-20.03v-84.25h51.97z" fill="#bd2025"/><path d="m509.1 261.06-25 15.63h-377.37l-8.4-13.66 68.38-56.36 35.52-29.27 102.55-84.52z" fill="#bd2025"/><g fill="none"><path d="m339.38 690.12h-237.08v-413.43h4.43 377.37 24.98v413.43h-59.18" stroke="#231f20" stroke-width="21"/><path d="m261.53 387.71v48.9h-54.49-56.03v-48.9-49.64h56.03 54.49z" stroke="#231f20" stroke-width="21"/><path d="m261.53 563.74v56.42h-55.3-55.22v-98.55h55.22 55.3z" stroke="#231f20" stroke-width="21"/><path d="m339.38 511.09h110.521v179.03h-110.521z" stroke="#231f20" stroke-width="21"/><path d="m449.9 387.71v48.9h-54.49-56.03v-48.9-49.64h56.03 54.49z" stroke="#231f20" stroke-width="21"/><path d="m537.81 284.7-28.71-23.64-204.32-168.18-102.55 84.52-35.52 29.27-68.38 56.36-24.42 20.12" stroke="#231f20" stroke-width="28"/><path d="m166.71 206.67h-20.03v-84.25h51.97v50.64" stroke="#231f20" stroke-width="21"/><path d="m206.23 523.11v40.63 51.15" stroke="#231f20" stroke-width="14"/><path d="m206.23 563.74h55.3" stroke="#231f20" stroke-width="14"/><path d="m151.01 387.71h56.03 54.49" stroke="#231f20" stroke-width="14"/><path d="m207.04 341.07v46.64 48.9" stroke="#231f20" stroke-width="14"/><path d="m395.41 341.07v46.64 48.9" stroke="#231f20" stroke-width="14"/><path d="m344.25 387.71h51.16 54.49" stroke="#231f20" stroke-width="14"/><path d="m655.16 446.85c-5.47-5.739-8.97-14.52-8.97-24.35 0-17.3 10.819-31.33 24.18-31.33 13.35 0 24.17 14.03 24.17 31.33 0 10-3.62 18.91-9.25 24.64-4.11 4.19-9.29 6.69-14.92 6.69-5.771 0-11.061-2.61-15.2-6.98" stroke="#231f20" stroke-width="14"/><path d="m585.5 578.09s.41-1.399 1.09-3.77c2.62-9.09 9.271-32.37 12.36-44.83 5.63-22.771 24.26-60.32 24.26-60.32 4.75-4.74 12.73-10.32 19.54-14.71 6.62-4.28 12.12-7.44 12.41-7.61h.01" stroke="#231f20" stroke-width="14"/><path d="m636.56 735.17c-1.01-12.59-9.1-114-9.1-137.189 0-7.91.5-15.021 1.2-21.08 1.6-13.811 4.21-22.17 4.21-22.17l-2.9-36.95-29.29 64.13c.7 1.939 1.54 8.34 1.54 14.43 0 5.17-.6 10.11-2.399 11.91-2.061 0-.641-4.1-3.44-4.67-1.79 2.77-2.64 11.52-6.34 11.92-3.34.39-6.9-3.49-7.66-6.23-1.31-4.649-.61-19.279 3.12-31.18" stroke="#231f20" stroke-width="14"/><path d="m636.66 736.45s-.03-.431-.101-1.23" stroke="#231f20" stroke-width="14"/><path d="m759.16 578.44s-9.58-32.9-13.45-48.61c-5.63-22.76-24.25-60.311-24.25-60.311-4.75-4.739-12.74-10.319-19.54-14.72-6.8-4.39-12.42-7.6-12.42-7.6" stroke="#231f20" stroke-width="14"/><path d="m711.05 556.04.13-1.33 3.5-36.58 29.311 64.13c-.7 1.94-1.54 8.351-1.54 14.44 0 5.16.6 10.1 2.399 11.89 2.07 0 .631-4.08 3.431-4.67 1.8 2.79 2.64 11.51 6.35 11.92 3.34.4 6.89-3.479 7.66-6.22 1.3-4.65.6-19.3-3.13-31.18" stroke="#231f20" stroke-width="14"/><path d="m710.15 736.91s.02-.29.06-.851c.771-10.46 8.36-114.27 8.36-137.75 0-7.81-.71-14.989-1.71-21.189-1.82-11.39-4.601-19.521-5.681-22.41-.279-.76-.449-1.16-.449-1.16" stroke="#231f20" stroke-width="14"/><path d="m655.58 730.66-.04.34-1.21 9.51c-.99 16.67-3.68 14.03-17.76 19.53-6.11 2.36-.761.77-8.971 5.45-4.739 2.71-14.08.33-15.29-3.91-1.439-5.12 1.33-9.9 6.181-12.66 7.52-4.29 17.439-8.74 18.069-13.7 0-.02 0-.029 0-.05.021-.14.03-.29.03-.43" stroke="#231f20" stroke-width="14"/><path d="m690.45 730.52 1.68 11.24c.97 16.66 3.67 14.021 17.75 19.53 6.101 2.37.76.76 8.97 5.44 4.73 2.71 14.08.34 15.29-3.9 1.431-5.11-1.33-9.9-6.18-12.66-7.76-4.43-17.7-8.97-17.72-14.12" stroke="#231f20" stroke-width="14"/><path d="m690.52 731.3-.09-.78-13.8-121.62-7.02-.04-14.11 122.14" stroke="#231f20" stroke-width="14"/><path d="m632.17 577.29h83.65" stroke="#231f20" stroke-width="14"/><path d="m586 574 .59.32 14.09 7.59" stroke="#231f20" stroke-width="7"/><path d="m743.99 582.26 15.17-3.82" stroke="#231f20" stroke-width="7"/><path d="m636.59 734.74 17.74 5.77" stroke="#231f20" stroke-width="7"/><path d="m692.13 741.76 18.08-5.7.03-.01" stroke="#231f20" stroke-width="7"/><path d="m0 0h850.394v850.394h-850.394z"/></g></svg>