<svg enable-background="new 0 0 850.394 850.394" height="850.394" viewBox="0 0 850.394 850.394" width="850.394" xmlns="http://www.w3.org/2000/svg"><path d="m364.09 60.51 6.12 169.61h-32.54l-8.67-169.61z" fill="#787878"/><path d="m398.46 60.51 6.12 169.61h-34.37l-6.12-169.61z" fill="#787878"/><path d="m476.83 60.51h34.45l-8.68 169.61h-98.02l-6.12-169.61h43.99z" fill="#787878"/><path d="m502.6 230.12h.17v112.6h-.16-164.94v-112.6h32.54 34.37z" fill="#c8c8c8"/><path d="m502.61 343.34s2.29 84.34-10.61 97.23c-12.9 12.91-38.02 31.239-38.02 59.76 0 28.52 5.43 33.95 14.93 59.76 9.52 25.8 0 89.63-8.15 134.44-4.85 26.7-11.12 57.77-16.97 76.93 0 0-5.8 20.12-23.77 20.12-17.96 0-23.57-20.73-23.57-20.73-5.85-19.17-12.12-50.229-16.97-76.92-8.15-44.819-17.66-108.649-8.15-134.449 9.5-25.801 14.93-31.24 14.93-59.761 0-28.52-25.12-46.85-38.02-59.76-12.9-12.89-10.61-97.24-10.61-97.24h.04 164.94z" fill="#be0000"/><g fill="none"><path d="m502.12 239.5.48-9.38 8.68-169.61h-34.45-34.38-43.99-34.37-35.09l8.67 169.61.48 9.38" stroke="#000" stroke-width="20.0506"/><path d="m502.6 230.12h.17v112.6h-.16-164.94v-112.6h32.54 34.37z" stroke="#000" stroke-width="20.0506"/><path d="m502.61 343.34s2.29 84.34-10.61 97.23c-12.9 12.91-38.02 31.239-38.02 59.76 0 28.52 5.43 33.95 14.93 59.76 9.52 25.8 0 89.63-8.15 134.44-4.85 26.7-11.12 57.77-16.97 76.93 0 0-5.8 20.12-23.77 20.12-17.96 0-23.57-20.73-23.57-20.73-5.85-19.17-12.12-50.229-16.97-76.92-8.15-44.819-17.66-108.649-8.15-134.449 9.5-25.801 14.93-31.24 14.93-59.761 0-28.52-25.12-46.85-38.02-59.76-12.9-12.89-10.61-97.24-10.61-97.24" stroke="#000" stroke-width="20.0506"/><path d="m364.09 60.51 6.12 169.61" stroke="#000" stroke-width="20.0506"/><path d="m398.46 60.51 6.12 169.61" stroke="#000" stroke-width="20.0506"/><path d="m476.83 60.51-6.14 166.14" stroke="#000" stroke-width="20.0506"/><path d="m442.45 60.51-6.13 166.14" stroke="#000" stroke-width="20.0506"/><path d="m0 0h850.394v850.394h-850.394z"/></g></svg>