<svg enable-background="new 0 0 850.394 850.394" height="850.394" viewBox="0 0 850.394 850.394" width="850.394" xmlns="http://www.w3.org/2000/svg"><path d="m744.84 197.49v70.99h-640.43v-70.99h639.28z" fill="#a3d9ff"/><path d="m409.97 626.5h-72.54s-22.36-67.11-58.64-103.39c-68.67-68.67-174.38-72.53-174.38-72.53v-182.1h640.43v182.11s-105.7 3.86-174.37 72.53c-36.28 36.28-58.65 103.39-58.65 103.39h-101.85z" fill="#fff"/><g fill="none"><path d="m409.97 626.51h101.85s22.37-67.109 58.649-103.39c68.67-68.67 174.37-72.53 174.37-72.53v-182.11-70.99h-1.149-639.28v70.99 182.1s105.71 3.86 174.38 72.53c36.28 36.279 58.64 103.39 58.64 103.39h72.54 29.32" stroke="#000" stroke-width="18.5187"/><path d="m104.41 268.48h640.43" stroke="#000" stroke-width="18.5187"/><path d="m0 0h850.394v850.394h-850.394z"/></g><path d="m290.189 536 129.811-144 139.078 144" fill="#fff" stroke="#000" stroke-width="18.5187"/><path d="m420 392v-123.52" fill="#fff" stroke="#000" stroke-width="18.5187"/></svg>