<svg enable-background="new 0 0 850.394 850.394" height="850.394" viewBox="0 0 850.394 850.394" width="850.394" xmlns="http://www.w3.org/2000/svg"><path d="m718.96 362.62-20.75 45.64h-.01l-555.36-162.47 38.94-85.67 555.37 162.47z" fill="#abda4d"/><path d="m698.21 408.26 20.75-45.64 3.04 1.38 43.13 15.86-26.8 58.97-12.14 26.72h-.01l-.01-.01-46.17-15.54-.63-.29z" fill="#abda4d"/><path d="m679.37 449.71-12.42 27.33-555.37-162.47 31.26-68.78 555.36 162.47h.01z" fill="#abda4d"/><path d="m666.95 477.04 12.42-27.33.63.29 46.17 15.54.01.01-26.8 58.96-4.46 9.81-40.92-14.32-5.45-2.48 3.16-6.96z" fill="#abda4d"/><path d="m694.92 534.32-35.65 78.43-509.86-149.16-45.51-13.31 19.69-43.34 507.71 148.53 15.95-35.09 1.3-2.86 5.45 2.48z" fill="#abda4d"/><path d="m648.55 517.52-1.3 2.86-15.95 35.09-507.71-148.53-47.66-13.94 35.65-78.43 555.37 162.47-15.24 33.52z" fill="#abda4d"/><path d="m713.64 606.6-35.65 78.42-555.38-162.46 21.9-48.2 4.9-10.77 509.86 149.16 35.65-78.43 4.46-9.81 45.51 13.32h.01z" fill="#abda4d"/><path d="m783.85 452.14-38.95 85.69h-.01l-45.51-13.32 26.8-58.96h.01l12.14-26.72z" fill="#abda4d"/><g fill="none"><path d="m144.51 474.36 4.9-10.77" stroke="#231f20" stroke-width="21"/><path d="m738.33 438.83 45.52 13.31-38.95 85.69-31.26 68.77-35.65 78.42-555.38-162.46 21.9-48.2" stroke="#231f20" stroke-width="21"/><path d="m699.38 524.51 45.51 13.32" stroke="#231f20" stroke-width="21"/><path d="m677.55 596.04 36.09 10.56h.01" stroke="#231f20" stroke-width="21"/><path d="m738.33 438.83-12.14 26.72h-.01l-26.8 58.96-4.46 9.81-35.65 78.43-509.86-149.16-45.51-13.31 19.69-43.34" stroke="#231f20" stroke-width="21"/><path d="m722 364 43.13 15.86-26.8 58.97" stroke="#231f20" stroke-width="21"/><path d="m680 450 46.17 15.54" stroke="#231f20" stroke-width="21"/><path d="m654 520 40.92 14.32" stroke="#231f20" stroke-width="21"/><path d="m651.71 510.56-3.16 6.96-1.3 2.86" stroke="#231f20" stroke-width="21"/><path d="m647.25 520.38-15.95 35.09-507.71-148.53-47.66-13.94 35.65-78.43 31.26-68.78 38.94-85.67 555.37 162.47-18.19 40.03-20.75 45.64-18.84 41.45-12.42 27.33-15.24 33.52" stroke="#231f20" stroke-width="21"/><path d="m142.84 245.79 555.36 162.47" stroke="#231f20" stroke-width="21"/><path d="m111.58 314.57 555.37 162.47" stroke="#231f20" stroke-width="21"/><path d="m0 0h850.394v850.394h-850.394z"/></g></svg>