<svg enable-background="new 0 0 850.89 850.89" height="850.89" viewBox="0 0 850.89 850.89" width="850.89" xmlns="http://www.w3.org/2000/svg"><path d="m368.28 137.3c-1.74-.17-3.51-.25-5.29-.25-.64 0-1.26.02-1.89.05.64-3.24.98-6.58.98-10.01.9-.05 1.81-.07 2.73-.07.63 0 1.25.01 1.87.03 2.98.08 5.89.37 8.71.87 19.01 3.3 33.77 15.6 38.86 34.33l-.2 1.33c-4.12-.66-8.25-1.8-12.19-3.36v-.01l.39-.96c-4.37-10.14-13.18-16.82-23.82-20.02-3.24-.97-6.65-1.61-10.15-1.93z" fill="#fbee34"/><path d="m470.51 127.81c-.229 3.43-.79 6.77-1.649 9.99-4.91 18.26-19.511 32.56-37.96 37.02l-.141-.01c.5-4.78 1.811-9.31 3.8-13.46 8.591-4.06 15.551-10.99 19.66-19.55 1.74-3.6 2.971-7.49 3.601-11.58.319-2.08.489-4.22.489-6.39 0-22.93-18.579-41.51-41.5-41.51-22.93 0-41.51 18.58-41.51 41.51 0 1.22.06 2.43.16 3.63l-.07.46c-2.82-.5-5.73-.79-8.71-.87l.01-.49c-.04-.76-.05-1.51-.05-2.27 0-28.72 23.27-52 51.99-52s52 23.28 52 52c0 1.18-.04 2.35-.12 3.52z" fill="#231f20"/><path d="m698.2 247.25h-545.95v-9-186h546v195zm-117.19-122.05c0-28.72-23.279-52-52-52-28.72 0-51.99 23.28-51.99 52l-.14 2.59c-1-.06-2.01-.09-3.03-.09-1.119 0-2.239.04-3.34.11.08-1.17.12-2.34.12-3.52 0-28.72-23.28-52-52-52s-51.99 23.28-51.99 52c0 .76.01 1.51.05 2.27l-.01.49c-.62-.02-1.24-.03-1.87-.03-.92 0-1.83.02-2.73.07 0-.02 0-.05 0-.07 0-28.72-23.29-51.99-52-51.99-28.72 0-52 23.27-52 51.99s23.28 52 52 52c.92 0 1.83-.02 2.74-.08v.08c0 28.72 23.27 52 51.99 52s52-23.28 52-52c0-.93-.02-1.86-.08-2.78.63.03 1.26.04 1.9.04 1.12 0 2.21-.03 3.31-.1h.03c-.08 1.16-.12 2.33-.12 3.51 0 28.72 23.28 52 52 52 28.71 0 51.99-23.28 51.99-52 0-.86-.02-1.73-.07-2.59 1.07.07 2.15.1 3.24.1 28.72 0 52-23.29 52-52z" fill="#fff"/><path d="m513.29 174.78c-16.95-5.37-30.14-19.2-34.62-36.52 3.69.59 7.21 1.68 10.51 3.18 4.09 9.29 11.48 16.8 20.7 21.03 4.37 2.01 9.14 3.29 14.17 3.66 1.04.08 2.08.12 3.141.12 22.92 0 41.51-18.58 41.51-41.51 0-22.92-18.59-41.51-41.51-41.51-22.931 0-41.511 18.59-41.511 41.51 0 1.37.07 2.72.2 4.06l-.06.28c-2.891-.68-5.88-1.12-8.94-1.29l.14-2.59c0-28.72 23.271-52 51.99-52 28.721 0 52 23.28 52 52 0 28.71-23.279 52-52 52-1.09 0-2.17-.03-3.24-.1-4.33-.27-8.51-1.06-12.48-2.32z" fill="#ed1d31"/><path d="m527.19 83.23c22.92 0 41.51 18.59 41.51 41.51 0 22.93-18.59 41.51-41.51 41.51-1.061 0-2.101-.04-3.141-.12-4.93-18.34-19.66-32.67-38.229-37.05l.06-.28c-.13-1.34-.2-2.69-.2-4.06 0-22.92 18.58-41.51 41.51-41.51z" fill="#fff"/><path d="m434.56 161.35c-1.989 4.15-3.3 8.68-3.8 13.46-.16 1.45-.24 2.93-.24 4.43 0 22.92 18.58 41.5 41.5 41.5 22.931 0 41.511-18.58 41.511-41.5 0-1.51-.08-2.99-.24-4.46 3.97 1.26 8.15 2.05 12.479 2.32.051.86.07 1.73.07 2.59 0 28.72-23.28 52-51.99 52-28.72 0-52-23.28-52-52 0-1.18.04-2.35.12-3.51.26-3.94.96-7.75 2.05-11.4 4.89-16.35 17.61-29.32 33.8-34.56-.63 4.09-1.86 7.98-3.601 11.58l-.069-.03c-8.56 4.09-15.5 11.03-19.59 19.58z" fill="#33a048"/><path d="m513.29 174.78c.16 1.47.24 2.95.24 4.46 0 22.92-18.58 41.5-41.511 41.5-22.92 0-41.5-18.58-41.5-41.5 0-1.5.08-2.98.24-4.43l.141.01c18.449-4.46 33.05-18.76 37.96-37.02l.14.04c1-.07 2.01-.11 3.02-.11 2.261 0 4.48.18 6.65.53 4.48 17.32 17.67 31.15 34.62 36.52z" fill="#fff"/><path d="m489.18 141.44c-3.3-1.5-6.819-2.59-10.51-3.18-2.17-.35-4.39-.53-6.65-.53-1.01 0-2.02.04-3.02.11l-.14-.04c.859-3.22 1.42-6.56 1.649-9.99 1.101-.07 2.221-.11 3.34-.11 1.021 0 2.03.03 3.03.09 3.061.17 6.05.61 8.94 1.29 18.569 4.38 33.3 18.71 38.229 37.05-5.03-.37-9.8-1.65-14.17-3.66l.061-.13c-4.119-9.25-11.539-16.72-20.759-20.9z" fill="#33a048"/><path d="m509.94 162.34-.061.13c-9.22-4.23-16.61-11.74-20.7-21.03 9.221 4.18 16.641 11.65 20.761 20.9z" fill="#fff"/><path d="m458.31 123.83c0 2.17-.17 4.31-.489 6.39-16.19 5.24-28.91 18.21-33.8 34.56l-1.77-.53c-2.69 0-5.44-.23-8.2-.67l.2-1.33c-5.09-18.73-19.85-31.03-38.86-34.33l.07-.46c-.1-1.2-.16-2.41-.16-3.63 0-22.93 18.58-41.51 41.51-41.51 22.919 0 41.499 18.58 41.499 41.51z" fill="#fff"/><path d="m454.15 141.77.069.03c-4.109 8.56-11.069 15.49-19.66 19.55 4.091-8.55 11.031-15.49 19.591-19.58z" fill="#fff"/><path d="m404.27 174.27c-17.61-5.05-31.4-19.16-35.99-36.97 3.5.32 6.91.96 10.15 1.93l-.08.24c3.8 9.34 12.97 16.57 23.51 20.74v.01c3.94 1.56 8.07 2.7 12.19 3.36 2.76.44 5.51.67 8.2.67l1.77.53c-1.09 3.65-1.79 7.46-2.05 11.4h-.03c-1.1.07-2.19.1-3.31.1-.64 0-1.27-.01-1.9-.04-4.31-.15-8.49-.83-12.46-1.97z" fill="#231f20"/><path d="m323.72 165.09c-1.37 3.98-2.15 8.24-2.22 12.67-.02.26-.02.53-.02.8 0 22.93 18.58 41.51 41.51 41.51 22.92 0 41.5-18.58 41.5-41.51 0-1.45-.07-2.88-.22-4.29 3.97 1.14 8.15 1.82 12.46 1.97.06.92.08 1.85.08 2.78 0 28.72-23.28 52-52 52s-51.99-23.28-51.99-52c0-.03 0-.05 0-.08.01-3.78.41-7.47 1.19-11.02 4-18.44 17.79-33.23 35.65-38.65-.24 3.92-1.03 7.68-2.29 11.23l-.54-.18c-10.8 4.57-19.28 13.59-23.11 24.77z" fill="#fbee34"/><path d="m404.27 174.27c.15 1.41.22 2.84.22 4.29 0 22.93-18.58 41.51-41.5 41.51-22.93 0-41.51-18.58-41.51-41.51 0-.27 0-.54.02-.8h.02c19.98-4.49 35.62-20.48 39.58-40.66.63-.03 1.25-.05 1.89-.05 1.78 0 3.55.08 5.29.25 4.59 17.81 18.38 31.92 35.99 36.97z" fill="#fff"/><path d="m402.25 159.25-.39.96c-10.54-4.17-19.71-11.4-23.51-20.74l.08-.24c10.64 3.2 19.45 9.88 23.82 20.02z" fill="#fff"/><path d="m361.1 137.1c-3.96 20.18-19.6 36.17-39.58 40.66h-.02c.07-4.43.85-8.69 2.22-12.67 10.99-4.41 19.65-13.39 23.65-24.59 1.26-3.55 2.05-7.31 2.29-11.23.07-.9.1-1.8.1-2.71 0-22.92-18.58-41.5-41.51-41.5-22.92 0-41.5 18.58-41.5 41.5 0 22.93 18.58 41.51 41.5 41.51 1.72 0 3.41-.1 5.07-.3l.69.15c-.78 3.55-1.18 7.24-1.19 11.02-.91.06-1.82.08-2.74.08-28.72 0-52-23.28-52-52s23.28-51.99 52-51.99c28.71 0 52 23.27 52 51.99v.07c0 3.43-.34 6.77-.98 10.01z" fill="#0d72ba"/><path d="m349.76 126.56c0 .91-.03 1.81-.1 2.71-17.86 5.42-31.65 20.21-35.65 38.65l-.69-.15c-1.66.2-3.35.3-5.07.3-22.92 0-41.5-18.58-41.5-41.51 0-22.92 18.58-41.5 41.5-41.5 22.93 0 41.51 18.58 41.51 41.5z" fill="#fff"/><path d="m346.83 140.32.54.18c-4 11.2-12.66 20.18-23.65 24.59 3.83-11.18 12.31-20.2 23.11-24.77z" fill="#fff"/><path d="m362.08 127.02v.07c0 3.43-.34 6.77-.98 10.01-3.96 20.18-19.6 36.17-39.58 40.66" fill="none" stroke="#000" stroke-linecap="round" stroke-linejoin="round" stroke-width="5"/><path d="m312.92 178.94c-.03 0-.07 0-.1 0-.91.06-1.82.08-2.74.08-28.72 0-52-23.28-52-52s23.28-51.99 52-51.99c28.71 0 52 23.27 52 51.99" fill="none" stroke="#000" stroke-linecap="round" stroke-linejoin="round" stroke-width="5"/><path d="m313.32 167.77c-1.66.2-3.35.3-5.07.3-22.92 0-41.5-18.58-41.5-41.51 0-22.92 18.58-41.5 41.5-41.5 22.93 0 41.51 18.58 41.51 41.5 0 .91-.03 1.81-.1 2.71-.24 3.92-1.03 7.68-2.29 11.23-4 11.2-12.66 20.18-23.65 24.59-.06.03-.12.06-.18.08" fill="none" stroke="#000" stroke-linecap="round" stroke-linejoin="round" stroke-width="5"/><path d="m416.71 175.86c.01.13.02.25.02.38.06.92.08 1.85.08 2.78 0 28.72-23.28 52-52 52s-51.99-23.28-51.99-52c0-.03 0-.05 0-.08.01-3.78.41-7.47 1.19-11.02 4-18.44 17.79-33.23 35.65-38.65.04-.02.08-.03.12-.04" fill="none" stroke="#000" stroke-linecap="round" stroke-linejoin="round" stroke-width="5"/><path d="m364.81 127.02c.63 0 1.25.01 1.87.03 2.98.08 5.89.37 8.71.87 19.01 3.3 33.77 15.6 38.86 34.33" fill="none" stroke="#000" stroke-linecap="round" stroke-linejoin="round" stroke-width="5"/><path d="m362.08 127.09c.9-.05 1.81-.07 2.73-.07" fill="none" stroke="#000" stroke-linecap="round" stroke-linejoin="round" stroke-width="5"/><path d="m404.25 174.05c.01.07.02.15.02.22.15 1.41.22 2.84.22 4.29 0 22.93-18.58 41.51-41.5 41.51-22.93 0-41.51-18.58-41.51-41.51 0-.27 0-.54.02-.8.07-4.43.85-8.69 2.22-12.67 3.83-11.18 12.31-20.2 23.11-24.77" fill="none" stroke="#000" stroke-linecap="round" stroke-linejoin="round" stroke-width="5"/><path d="m360.88 137.11c.07 0 .15-.01.22-.01.63-.03 1.25-.05 1.89-.05 1.78 0 3.55.08 5.29.25 3.5.32 6.91.96 10.15 1.93 10.64 3.2 19.45 9.88 23.82 20.02" fill="none" stroke="#000" stroke-linecap="round" stroke-linejoin="round" stroke-width="5"/><path d="m421.94 176.18c-1.1.07-2.19.1-3.31.1-.64 0-1.27-.01-1.9-.04-4.31-.15-8.49-.83-12.46-1.97-17.61-5.05-31.4-19.16-35.99-36.97-.04-.12-.07-.25-.1-.37" fill="none" stroke="#000" stroke-linecap="round" stroke-linejoin="round" stroke-width="5"/><path d="m366.69 126.56c-.04-.76-.05-1.51-.05-2.27 0-28.72 23.27-52 51.99-52s52 23.28 52 52c0 1.18-.04 2.35-.12 3.52-.229 3.43-.79 6.77-1.649 9.99-4.91 18.26-19.511 32.56-37.96 37.02" fill="none" stroke="#000" stroke-linecap="round" stroke-linejoin="round" stroke-width="5"/><path d="m422.25 164.25c-2.69 0-5.44-.23-8.2-.67-4.12-.66-8.25-1.8-12.19-3.36v-.01c-10.54-4.17-19.71-11.4-23.51-20.74" fill="none" stroke="#000" stroke-linecap="round" stroke-linejoin="round" stroke-width="5"/><path d="m375.46 127.46c-.1-1.2-.16-2.41-.16-3.63 0-22.93 18.58-41.51 41.51-41.51 22.92 0 41.5 18.58 41.5 41.51 0 2.17-.17 4.31-.489 6.39-.63 4.09-1.86 7.98-3.601 11.58-4.109 8.56-11.069 15.49-19.66 19.55l-.01.01" fill="none" stroke="#000" stroke-linecap="round" stroke-linejoin="round" stroke-width="5"/><path d="m525.76 176.78c.01.11.01.21.01.32.051.86.07 1.73.07 2.59 0 28.72-23.28 52-51.99 52-28.72 0-52-23.28-52-52 0-1.18.04-2.35.12-3.51.26-3.94.96-7.75 2.05-11.4 4.89-16.35 17.61-29.32 33.8-34.56.029-.01.05-.02.08-.03" fill="none" stroke="#000" stroke-linecap="round" stroke-linejoin="round" stroke-width="5"/><path d="m473.85 127.7c1.021 0 2.03.03 3.03.09 3.061.17 6.05.61 8.94 1.29 18.569 4.38 33.3 18.71 38.229 37.05.03.11.061.21.09.32" fill="none" stroke="#000" stroke-linecap="round" stroke-linejoin="round" stroke-width="5"/><path d="m470.3 127.82c.07 0 .141-.01.21-.01 1.101-.07 2.221-.11 3.34-.11" fill="none" stroke="#000" stroke-linecap="round" stroke-linejoin="round" stroke-width="5"/><path d="m513.26 174.49c.01.1.021.19.03.29.16 1.47.24 2.95.24 4.46 0 22.92-18.58 41.5-41.511 41.5-22.92 0-41.5-18.58-41.5-41.5 0-1.5.08-2.98.24-4.43.5-4.78 1.811-9.31 3.8-13.46 4.091-8.55 11.03-15.49 19.591-19.58" fill="none" stroke="#000" stroke-linecap="round" stroke-linejoin="round" stroke-width="5"/><path d="m469 137.84c1-.07 2.01-.11 3.02-.11 2.261 0 4.48.18 6.65.53 3.69.59 7.21 1.68 10.51 3.18 9.221 4.18 16.641 11.65 20.761 20.9" fill="none" stroke="#000" stroke-linecap="round" stroke-linejoin="round" stroke-width="5"/><path d="m477.02 125.2c0-28.72 23.271-52 51.99-52 28.721 0 52 23.28 52 52 0 28.71-23.279 52-52 52-1.09 0-2.17-.03-3.24-.1-4.329-.27-8.51-1.06-12.479-2.32-16.95-5.37-30.14-19.2-34.62-36.52-.03-.11-.06-.22-.09-.33" fill="none" stroke="#000" stroke-linecap="round" stroke-linejoin="round" stroke-width="5"/><path d="m485.88 128.8c-.13-1.34-.2-2.69-.2-4.06 0-22.92 18.58-41.51 41.511-41.51 22.92 0 41.51 18.59 41.51 41.51 0 22.93-18.59 41.51-41.51 41.51-1.061 0-2.101-.04-3.141-.12-5.03-.37-9.8-1.65-14.17-3.66-9.22-4.23-16.61-11.74-20.7-21.03-.05-.1-.1-.21-.14-.31" fill="none" stroke="#000" stroke-linecap="round" stroke-linejoin="round" stroke-width="5"/><path d="m152.25 238.25v-186h546v195h-.05-545.95" fill="none" stroke="#000" stroke-linecap="round" stroke-linejoin="round" stroke-width="14.1564"/><path d="m152.25 238.25v9 535" fill="none" stroke="#000" stroke-linecap="round" stroke-linejoin="round" stroke-width="14"/><path d="m698.2 238.25v9 539" fill="none" stroke="#000" stroke-linecap="round" stroke-linejoin="round" stroke-width="14.1823"/><path d="m.25.25h850.394v850.394h-850.394z" fill="none"/><path d="m575.149 664.36c4.142 5.824 6.583 12.937 6.583 20.629 0 19.645-15.92 35.564-35.564 35.564-19.639 0-35.564-15.92-35.564-35.564s15.926-35.564 35.564-35.564c11.952 0 22.528 5.898 28.981 14.935z" fill="#797878"/><path d="m459.386 500.925c21.613 13.989 38.811 34.082 49.087 57.801 6.814 15.714 10.582 33.017 10.582 51.191 0 71.915-59.021 130.232-131.832 130.232-72.817 0-131.838-58.317-131.838-130.232 0-37.639 16.169-71.553 42.023-95.327 23.544-21.644 55.116-34.886 89.815-34.886 26.639 0 51.428 7.805 72.163 21.221zm-177.369 95.657c-.467 3.98-.71 8.022-.71 12.127 0 4.11.243 8.159.71 12.146 1.29 10.969 4.298 21.414 8.757 31.074 3.868 8.377 8.826 16.163 14.693 23.176 5.195 6.21 11.105 11.815 17.608 16.692 14.475 10.863 31.877 18.119 50.837 20.411 4.248.517 8.57.778 12.961.778 3.942 0 7.842-.212 11.672-.629 19.925-2.167 38.188-9.816 53.198-21.389 6.439-4.958 12.276-10.639 17.39-16.917 5.78-7.094 10.645-14.948 14.4-23.388 4.136-9.286 6.938-19.271 8.172-29.734.479-4.005.723-8.085.723-12.221 0-4.13-.243-8.196-.717-12.201-1.14-9.654-3.612-18.91-7.243-27.574-3.65-8.744-8.478-16.885-14.282-24.241-5.014-6.365-10.77-12.14-17.122-17.197-15.254-12.146-34.001-20.187-54.519-22.416-3.83-.417-7.729-.629-11.672-.629-4.26 0-8.465.249-12.594.735-19.688 2.311-37.707 9.972-52.531 21.463-6.428 4.982-12.251 10.676-17.346 16.973-5.88 7.256-10.8 15.31-14.562 23.961-3.949 9.075-6.633 18.816-7.823 29z" fill="#797878"/><path d="m398.546 602.848c.424.698.779 1.439 1.046 2.212.399 1.151.617 2.379.617 3.655 0 6.696-5.979 12.14-13.348 12.14-4.758 0-8.938-2.273-11.292-5.687-.23-.324-.442-.66-.629-1.003-.909-1.638-1.42-3.488-1.42-5.45 0-.616.05-1.227.149-1.818.168-1.04.486-2.037.928-2.971 2.049-4.323 6.764-7.344 12.264-7.344 5.027 0 9.412 2.529 11.685 6.266z" fill="#797878"/><g fill="none"><path d="m508.473 558.726c6.814 15.714 10.582 33.017 10.582 51.191 0 71.915-59.021 130.232-131.832 130.232-72.817 0-131.838-58.317-131.838-130.232 0-37.639 16.169-71.553 42.023-95.327 23.544-21.644 55.116-34.886 89.815-34.886 26.639 0 51.429 7.805 72.163 21.221 21.613 13.989 38.81 34.082 49.087 57.801z" stroke="#231f20" stroke-width="17.4398"/><path d="m491.712 596.508c.474 4.005.717 8.071.717 12.201 0 4.136-.243 8.216-.723 12.221-1.233 10.464-4.036 20.448-8.172 29.734-3.756 8.439-8.62 16.294-14.4 23.388-5.113 6.278-10.95 11.959-17.39 16.917-15.011 11.572-33.273 19.222-53.198 21.389-3.83.417-7.729.629-11.672.629-4.391 0-8.714-.262-12.961-.778-18.96-2.292-36.362-9.548-50.837-20.411-6.502-4.877-12.413-10.482-17.608-16.692-5.867-7.013-10.825-14.799-14.693-23.176-4.459-9.66-7.468-20.105-8.757-31.074-.467-3.986-.71-8.035-.71-12.146 0-4.104.243-8.146.71-12.127 1.189-10.184 3.874-19.925 7.823-29 3.762-8.651 8.682-16.705 14.562-23.961 5.095-6.297 10.918-11.99 17.346-16.973 14.824-11.491 32.843-19.152 52.531-21.463 4.129-.486 8.334-.735 12.594-.735 3.942 0 7.842.212 11.672.629 20.517 2.229 39.265 10.271 54.519 22.416 6.353 5.058 12.108 10.832 17.122 17.197 5.805 7.356 10.632 15.497 14.282 24.241 3.631 8.664 6.103 17.92 7.243 27.574z" stroke="#231f20" stroke-width="8.7199"/><path d="m280.909 596.582h1.108 75.34.156 16.767 9.704 2.877 4.815 6.87 19.751 1.208 71.578" stroke="#231f20" stroke-width="4.36"/><path d="m280.909 620.854h1.108 77.694 2.741 11.828 7.337 5.244 7.157 4.528 14.949 2.454 75.134" stroke="#231f20" stroke-width="4.36"/><path d="m374.28 602.449v-5.867-17.396-74-.662" stroke="#231f20" stroke-width="4.36"/><path d="m374.28 709.219v-68.626-19.739-3.849" stroke="#231f20" stroke-width="4.36"/><path d="m398.546 603.72v-.872-6.266-14.562-76.941-.555" stroke="#231f20" stroke-width="4.36"/><path d="m398.546 714.693v-2.336-74.574-16.929-4.521-.555" stroke="#231f20" stroke-width="4.36"/><path d="m470.174 544.705-51.877 51.877-.897.897-12.414 12.414-5.151 5.144-1.289 1.296-4.528 4.521-6.197 6.205-13.541 13.534-51.198 51.198" stroke="#231f20" stroke-width="4.36"/><path d="m374.28 606.286-.611.61-2.996 2.997-10.962 10.961-2.092 2.093-52.152 52.157" stroke="#231f20" stroke-width="4.36"/><path d="m453.064 527.495-54.518 54.525-10.719 10.712-3.843 3.85" stroke="#231f20" stroke-width="4.36"/><path d="m381.617 620.854 6.204 6.205 10.725 10.724 53.179 53.167" stroke="#231f20" stroke-width="4.36"/><path d="m304.415 543.634 52.83 52.83.112.118 13.316 13.311 4.267 4.272.019.019" stroke="#231f20" stroke-width="4.36"/><path d="m400.751 605.657 4.235 4.236 10.963 10.961 1.812 1.813 51.367 51.379" stroke="#231f20" stroke-width="4.36"/><path d="m321.768 526.674 52.512 52.512 13.547 13.546 3.849 3.85" stroke="#231f20" stroke-width="4.36"/><path d="m399.829 615.037h.006l13.66 5.817 4.266 1.813 65.76 27.991" stroke="#231f20" stroke-width="4.36"/><path d="m289.846 567.582 67.399 28.882.268.118 16.785 7.194" stroke="#231f20" stroke-width="4.36"/><path d="m375.569 615.168-13.117 5.686-4.833 2.093-66.838 28.975" stroke="#231f20" stroke-width="4.36"/><path d="m484.456 568.94-64.951 27.642-2.105.897-17.808 7.581h-.006" stroke="#231f20" stroke-width="4.36"/><path d="m399.592 605.06c.399 1.151.617 2.379.617 3.655 0 6.696-5.979 12.14-13.348 12.14-4.758 0-8.938-2.273-11.292-5.687-.23-.324-.442-.66-.629-1.003-.909-1.638-1.42-3.488-1.42-5.45 0-.616.05-1.227.149-1.818.168-1.04.486-2.037.928-2.971 2.049-4.323 6.764-7.344 12.264-7.344 5.026 0 9.412 2.529 11.685 6.266.424.698.779 1.439 1.046 2.212z" stroke="#231f20" stroke-width="5.4716"/><path d="m295.24 421.63v-119.008s3.419-22.566-62.92 13.684" stroke="#231f20" stroke-linecap="round" stroke-linejoin="round" stroke-width="21.7997"/><path d="m295.24 513.114v-80.541" stroke="#231f20" stroke-linecap="round" stroke-linejoin="round" stroke-width="21.7997"/><path d="m508.473 558.726h52.138l24.479 98.559 15.191 61.183h38.299" stroke="#231f20" stroke-width="17.4398"/><path d="m295.24 421.63h191.508v10.943h-27.362-164.146z" stroke="#231f20" stroke-width="17.4398"/><path d="m459.386 432.573v68.352.031" stroke="#231f20" stroke-width="17.4398"/><path d="m581.732 684.989c0 19.645-15.92 35.564-35.564 35.564-19.639 0-35.564-15.92-35.564-35.564s15.926-35.564 35.564-35.564c11.952 0 22.528 5.898 28.981 14.936 4.142 5.824 6.583 12.936 6.583 20.628z" stroke="#231f20" stroke-width="17.4398"/><path d="m546.168 684.989 28.981-20.629 9.941-7.075" stroke="#231f20" stroke-linecap="round" stroke-linejoin="round" stroke-width="17.4398"/></g></svg>