<svg enable-background="new 0 0 850.89 850.89" height="850.89" viewBox="0 0 850.89 850.89" width="850.89" xmlns="http://www.w3.org/2000/svg"><path d="m789.25 288.25-256.03 43.41 140.03-219.41c65.07 38.69 106.42 96.91 119.42 175.47z" fill="#efdcef"/><path d="m633.67 437.72c2.39 14.391 3.63 29.19 3.63 44.271 0 145.88-116.01 264.13-259.13 264.13s-259.12-118.251-259.12-264.131c0-145.87 116-264.11 259.12-264.11 47.54 0 92.1 13.04 130.4 35.82 4.149 2.47 8.229 5.05 12.229 7.74l-146.569 220.22 259.33-44.601z" fill="#efdcef"/><g fill="none"><path d="m633.67 437.72c2.39 14.391 3.63 29.19 3.63 44.271 0 145.88-116.01 264.13-259.13 264.13s-259.12-118.251-259.12-264.131c0-145.87 116-264.11 259.12-264.11 47.54 0 92.1 13.04 130.4 35.82" stroke="#50264c" stroke-width="17.8881"/><path d="m508.57 253.7c4.149 2.47 8.229 5.05 12.229 7.74" stroke="#50264c" stroke-width="17.8881"/><path d="m638.25 436.25-4.69.81-259.33 44.6 146.57-220.22" stroke="#50264c" stroke-width="13.0426"/><path d="m673.25 112.25c65.07 38.69 106.42 96.91 119.42 175.47" stroke="#50264c" stroke-linecap="round" stroke-linejoin="round" stroke-width="14"/><path d="m789.25 288.25-256.03 43.41 140.03-219.41" stroke="#50264c" stroke-width="14"/><path d="m.25.25h850.394v850.394h-850.394z"/><path d="m384.25 163.595 176.71.22" stroke="#000" stroke-linecap="round" stroke-linejoin="round" stroke-width="14"/><path d="m520.1 105.49 51.6 58.76-51.37 58.99" stroke="#000" stroke-linecap="round" stroke-linejoin="round" stroke-width="14"/></g></svg>