<svg enable-background="new 0 0 850.394 850.394" height="850.394" viewBox="0 0 850.394 850.394" width="850.394" xmlns="http://www.w3.org/2000/svg"><path d="m292.39 701.33v-519.41h267.67v140.53h127.14v459.81h-394.81z" fill="#ffffc2"/><path d="m580.78 204.82 106.42 117.63h-127.14v-140.53z" fill="#ffffc2"/><path d="m560.06 181.92h-267.67v519.41h-131.44v-600.34h109.55 3.88v28.67h193.74v-28.67h3.78 110.95v101.96l-2.07 1.87z" fill="#f6cc4b"/><path d="m468.12 100.99v28.67h-193.74v-28.67-23.59h193.74z" fill="#7a7878"/><g fill="none"><path d="m560.06 181.92h-267.67v519.41 80.93h394.81v-459.81l-106.42-117.63z" stroke="#231f20" stroke-width="21"/><path d="m560.06 180.97v.95 140.53h127.14" stroke="#231f20" stroke-width="21"/><path d="m350.06 399.88h281.7" stroke="#231f20" stroke-width="21"/><path d="m348.79 508.21h281.7" stroke="#231f20" stroke-width="21"/><path d="m348.79 617.84h281.7" stroke="#231f20" stroke-width="21"/><path d="m293.5 701.33h-1.11-131.44v-600.34h109.55" stroke="#231f20" stroke-width="21"/><path d="m471.9 100.99h110.95v101.96" stroke="#231f20" stroke-width="21"/><path d="m468.12 100.99v28.67h-193.74v-28.67-23.59h193.74z" stroke="#231f20" stroke-width="21"/><path d="m0 0h850.394v850.394h-850.394z"/></g></svg>