<svg enable-background="new 0 0 850.394 850.394" height="850.394" viewBox="0 0 850.394 850.394" width="850.394" xmlns="http://www.w3.org/2000/svg"><path d="m361.36 478.92 9.82 19.6-17.93 8.98-20.59 10.31-19.92 9.97-9.83-19.63-10.31-20.58-10.45-20.88 19.58-9.81 20.59-10.31 18.26-9.14 10.48 20.91z" fill="#0b00ea"/><path d="m536.49 121.58h16.06 39.13l-.54 86.67h-.69l-57.11-83.19v-3.48z" fill="#f6cc4b"/><path d="m591.94 80.06-.26 41.52h-39.13v-41.52z" fill="#f6cc4b"/><path d="m536.49 80.06h16.06v41.52h-16.06z" fill="#f6cc4b"/><path d="m536.49 80.06v41.52h-3.15-111.94v-39.39-2.13z" fill="#f6cc4b"/><path d="m421.4 82.19v39.39h-110.13-2.36v-41.52h112.49z" fill="#f6cc4b"/><path d="m292.85 80.06h16.06v41.52h-16.06z" fill="#f6cc4b"/><path d="m292.85 80.06v41.52h-41.51-.05l-.26-41.52z" fill="#f6cc4b"/><path d="m308.91 121.58h2.36v2.35l-57.11 83.19-2.33.01-.54-85.55h.05 41.51z" fill="#f6cc4b"/><path d="m587.82 739.6-.19 30.29h-136.34l-1.76-30.09 3.51-.2z" fill="#f6cc4b"/><path d="m393.45 739.6-1.76 30.42h-136.34l-.19-30.42z" fill="#f6cc4b"/><path d="m353.25 507.5 17.93-8.98-9.82-19.6-10.3-20.58-10.48-20.91-18.26 9.141-20.59 10.31-19.58 9.811 10.45 20.88 10.31 20.58 9.83 19.63 19.92-9.971zm68.15-385.92v135.97l-27.95 482.05h-138.29l-3.33-532.47 2.33-.01 57.11-83.19v-2.35z" fill="#f6cc4b"/><path d="m591.14 208.25-3.32 531.35h-134.78l-3.51.2-28.13-481.47v-.78-135.97h111.94v3.48l57.11 83.19z" fill="#f6cc4b"/><g fill="none"><path d="m552.55 80.06h39.39 9.61" stroke="#231f20" stroke-width="21"/><path d="m308.91 80.06h112.49 115.09" stroke="#231f20" stroke-width="21"/><path d="m421.4 257.55-27.95 482.05-1.76 30.42h-136.34l-.19-30.42-3.33-532.47-.54-85.55-.26-41.52h41.82" stroke="#231f20" stroke-width="21"/><path d="m421.4 258.33 28.13 481.47 1.76 30.09h136.34l.19-30.29 3.32-531.35.54-86.67.26-41.52v-.12" stroke="#231f20" stroke-width="21"/><path d="m552.55 121.58h39.13 4.25" stroke="#231f20" stroke-width="21"/><path d="m308.91 121.58h2.36 110.13 111.94 3.15" stroke="#231f20" stroke-width="21"/><path d="m251.34 121.58h41.51" stroke="#231f20" stroke-width="21"/><path d="m421.4 82.19v39.39 135.97.78 24.24" stroke="#231f20" stroke-width="21"/><path d="m292.85 80.06h16.06v41.52h-16.06z" stroke="#231f20" stroke-width="12.8355"/><path d="m536.49 80.06h16.06v41.52h-16.06z" stroke="#231f20" stroke-width="12.8355"/><path d="m254.16 207.12 57.11-83.19" stroke="#231f20" stroke-width="21"/><path d="m590.45 208.25-57.11-83.19" stroke="#231f20" stroke-width="21"/><path d="m255.16 739.6h138.29.01" stroke="#231f20" stroke-width="21"/><path d="m453.04 739.6h134.78 3.52" stroke="#231f20" stroke-width="21"/><path d="m361.36 478.92 9.82 19.6-17.93 8.98-20.59 10.31-19.92 9.97-9.83-19.63-10.31-20.58-10.45-20.88 19.58-9.81 20.59-10.31 18.26-9.14 10.48 20.91z" stroke="#231f20" stroke-width="14"/><path d="m292.42 438.29 9.31 18.59 3.5 6.98" stroke="#231f20" stroke-linecap="round" stroke-linejoin="round" stroke-width="9.6266"/><path d="m313.01 427.98 9.31 18.59 3.49 6.98" stroke="#231f20" stroke-linecap="round" stroke-linejoin="round" stroke-width="9.6266"/><path d="m328.67 509.84 3.99 7.97 8.81 17.59" stroke="#231f20" stroke-linecap="round" stroke-linejoin="round" stroke-width="9.6266"/><path d="m349.26 499.52 3.99 7.98 8.81 17.59" stroke="#231f20" stroke-linecap="round" stroke-linejoin="round" stroke-width="9.6266"/><path d="m284.03 517.61 18.88-9.46 6.68-3.35" stroke="#231f20" stroke-linecap="round" stroke-linejoin="round" stroke-width="9.6266"/><path d="m273.72 497.03 18.88-9.46 6.68-3.35" stroke="#231f20" stroke-linecap="round" stroke-linejoin="round" stroke-width="9.6266"/><path d="m353.81 482.71 7.55-3.79 18.01-9.02" stroke="#231f20" stroke-linecap="round" stroke-linejoin="round" stroke-width="9.6266"/><path d="m343.5 462.13 7.56-3.79 18.01-9.02" stroke="#231f20" stroke-linecap="round" stroke-linejoin="round" stroke-width="9.6266"/><path d="m0 0h850.394v850.394h-850.394z"/></g></svg>