<svg enable-background="new 0 0 850.394 850.394" height="850.394" viewBox="0 0 850.394 850.394" width="850.394" xmlns="http://www.w3.org/2000/svg"><path d="m640.533 121.122s40.908 111.126 0 254.658c-23.252 81.561-74.259 202.187-100.023 246.942-25.765 44.765-88.236 112.668-117.615 112.668-29.378 0-39.991-12.35-58.17-12.35-18.189 0-26.526-17.749-9.099-35.497 17.437-17.749 74.258-104.942 96.987-151.248 22.738-46.306 53.181-140.328 77.295-191.379 24.104-51.051 40.908-95.694 60.609-138.908 19.702-43.214 50.016-84.886 50.016-84.886zm-34.24 228.548c38.67-4.549 45.312-68.725 13.805-90.201-42.761-29.155-88.054 46.614-54.337 80.813-.587.131-1.164.28-1.742.448-.532.14-1.073.309-1.605.477-.119.038-.238.084-.357.122-.486.149-.963.317-1.431.495-.027 0-.046.009-.064.019-.486.168-.973.355-1.449.551-.092.037-.184.075-.284.112-.532.225-1.055.449-1.578.691-.522.233-1.036.486-1.541.738-.109.056-.22.112-.33.168-.449.233-.898.477-1.339.719-.009.009-.019.019-.027.019-.523.29-1.036.598-1.541.916-.514.308-1.027.645-1.522.99-.505.336-.991.691-1.477 1.056-.45.327-.89.672-1.321 1.027-.073.056-.146.122-.22.178-.404.336-.798.672-1.184 1.027-.073.056-.138.122-.211.187-.413.374-.825.766-1.22 1.167-.44.43-.871.878-1.284 1.336-.349.364-.679.748-.99 1.13-.147.168-.285.336-.422.504-.34.402-.661.822-.981 1.243-13.401 17.852-10.731 45.838 4.998 60.084-11.987-.271-23.297 3.839-30.754 16.563-10.42 17.777-4.742 38.478 7.952 50.547-10.301-2.457-19.133-.935-26.196 3.102-.522.299-1.036.616-1.55.943-1.771 1.158-3.421 2.466-4.943 3.924-.221.205-.432.42-.643.635-8.09 8.137-12.327 20.299-11.786 32.34.009.374.027.738.055 1.112.028.485.064.962.119 1.447.056.505.11 1.019.184 1.523.064.514.138 1.027.229 1.531.175 1.009.386 2.009.633 2.999.119.505.248.99.395 1.485.11.43.238.85.386 1.271.018.084.045.168.073.252.146.467.312.935.485 1.401.175.485.358.962.56 1.438.184.477.395.953.615 1.42.201.477.431.943.669 1.401.221.467.468.925.725 1.373.229.43.478.859.743 1.28.019.037.037.084.073.121.221.374.449.738.706 1.103.019.056.056.111.102.168-18.51-3.736-35.928 14.647-37.304 32.677-.037.354-.055.71-.064 1.074-.018.299-.027.598-.027.896-.009.569 0 1.13.027 1.69.01.253.019.505.037.748.019.252.036.495.055.737 0 .094.01.188.027.28.028.355.064.701.102 1.047.046.383.101.766.165 1.148.055.364.109.72.184 1.074.018.122.036.243.063.364.074.393.156.775.248 1.158.082.355.165.701.257 1.056.037.159.082.309.128.468.074.289.156.569.248.859.092.336.202.672.312 1.009.11.346.229.682.349 1.018.102.29.202.58.321.859.119.337.257.664.395.99.165.411.339.813.522 1.215.184.43.386.85.597 1.271.174.374.357.747.56 1.121.403.784.834 1.56 1.293 2.326-14.346-2.989-29.122 11.368-36.322 22.223-.12.188-.239.364-.358.552-.193.299-.385.588-.56.878-.422.691-.816 1.364-1.183 2.036-.367.673-.707 1.346-1.009 1.999-.459.99-.853 1.962-1.192 2.924-.339.963-.615 1.906-.826 2.84-.293 1.243-.477 2.467-.569 3.672-.128 1.653-.083 3.278.138 4.866.009.047.019.104.027.159.037.336.092.673.166 1.009.055.336.119.663.202 1 .092.42.192.831.321 1.242.074.289.156.569.248.85.074.233.147.477.229.71-1.504-.149-2.972-.205-4.412-.158-.055 0-.11 0-.166 0-29.645-1.103-45.026 35.264-29.938 61.326.092.169.193.337.303.505.202.354.413.7.642 1.056.284.458.596.915.908 1.373 9.658 13.984 26.654 17.375 42.284 14.143 15.217-3.129 35.882-21.027 30.342-38.478 9.777 3.531 20.298 2.522 32.167-5.707 13.822-9.594 28.7-42.737 8.127-53.303l-.119-1.495c27.947-1.979 58.454-38.813 37.505-61.271l-.055-.616c9.566-.804 18.619-4.409 25.086-11.705 10.896-12.293 23.518-47.081 5.273-58.674l-.119-.7c15.969-2.69 29.773-14.228 34.772-34.508 5.613-22.803-2.917-29.379-15.107-34.311 16.693-7.109 32.497-16.124 36.074-36.385.826-4.652 1.027-9.257.624-13.667-.027-.364-.064-.729-.11-1.083-.027-.28-.063-.551-.101-.822-.036-.308-.082-.617-.128-.925-.028-.168-.046-.327-.083-.495-.046-.317-.101-.645-.165-.962-.046-.252-.092-.505-.146-.748-.064-.317-.129-.626-.202-.934-.036-.187-.073-.364-.119-.533-.073-.308-.146-.607-.229-.906-.046-.187-.092-.364-.146-.542-.064-.243-.138-.486-.202-.729-.082-.252-.155-.504-.238-.757-.082-.271-.165-.532-.257-.794-.293-.869-.614-1.719-.963-2.55-.238-.588-.495-1.167-.771-1.737-.138-.299-.284-.598-.431-.888-.432-.85-.891-1.681-1.376-2.494-1.202-1.99-2.587-3.849-4.146-5.558-.174-.196-.349-.383-.531-.57-.272-.277-.548-.557-.832-.838z" fill="#33a02c"/><path d="m620.098 259.469c31.507 21.476 24.865 85.652-13.805 90.201-.063-.065-.128-.122-.192-.187-.238-.234-.486-.467-.743-.701-.063-.056-.128-.112-.192-.168-.128-.121-.266-.243-.395-.346-.284-.252-.568-.495-.853-.729-.193-.159-.395-.317-.597-.467-.184-.149-.376-.299-.578-.439-.211-.168-.431-.327-.65-.476-.294-.215-.588-.42-.89-.607-.175-.131-.358-.243-.542-.355-.211-.14-.431-.28-.65-.401-.285-.178-.56-.346-.854-.504-.174-.103-.357-.206-.541-.299-.312-.177-.624-.336-.936-.504-.459-.224-.927-.448-1.395-.663-.55-.252-1.109-.486-1.679-.71-5.687-2.251-12.079-3.335-18.537-3.176-.357.009-.725.019-1.082.038-.312.019-.624.037-.936.056-.257.009-.514.028-.771.056-.238.019-.468.038-.706.056-.395.047-.779.084-1.165.131-.44.047-.89.103-1.33.177-.486.065-.972.14-1.449.234-.027 0-.046.009-.073.009-.936.168-1.871.355-2.798.588-33.715-34.2 11.578-109.969 54.339-80.814z" fill="#00e800"/><path d="m617.465 374.538c.403 4.409.202 9.015-.624 13.667-3.577 20.262-19.381 29.276-36.074 36.385-2.98-1.205-6.173-2.308-9.438-3.531-7.861-2.933-16.437-5.194-24.692-5.372-15.729-14.246-18.399-42.232-4.998-60.084.32-.42.642-.841.981-1.243.128-.168.274-.336.422-.504.32-.383.65-.766.99-1.13.413-.458.844-.906 1.284-1.336.395-.401.807-.785 1.22-1.167.073-.065.138-.131.211-.187.386-.355.789-.691 1.184-1.027.073-.056.146-.122.22-.178.432-.355.871-.691 1.321-1.027.485-.364.981-.719 1.477-1.056.504-.346 1.009-.672 1.522-.99.505-.317 1.018-.617 1.541-.916.009 0 .019-.009.027-.019.44-.243.89-.486 1.339-.719.11-.056.221-.112.33-.168.514-.252 1.019-.505 1.541-.738.523-.243 1.046-.467 1.578-.691.101-.037.192-.075.284-.112.477-.196.963-.374 1.449-.551.019-.009.037-.019.064-.019.468-.178.944-.346 1.431-.495.119-.038.238-.084.357-.122.532-.168 1.064-.327 1.605-.477.578-.159 1.155-.308 1.742-.448.927-.224 1.862-.42 2.798-.588.027 0 .046-.009.073-.009.486-.084.963-.168 1.449-.234.44-.065.881-.13 1.33-.177.386-.047.771-.084 1.165-.131.229-.019.468-.037.706-.056.257-.028.514-.046.771-.056.312-.019.624-.038.936-.056.357-.019.725-.028 1.082-.038 6.458-.159 12.851.925 18.537 3.176.569.224 1.129.458 1.679.71.468.215.936.439 1.395.663.321.168.633.327.936.504.184.094.367.196.541.299.284.159.568.327.854.504.22.121.439.261.65.401.184.112.358.224.542.355.302.187.596.393.89.607.22.149.439.308.65.476.202.14.395.29.578.439.202.149.403.308.597.467.293.233.577.477.853.729.129.103.267.225.395.346.321.28.633.57.936.869.064.065.129.121.192.187.284.28.56.561.826.841.183.187.357.374.531.57 1.56 1.709 2.944 3.568 4.146 5.558.485.813.944 1.644 1.376 2.494.146.29.293.589.431.888.275.57.532 1.149.771 1.737.349.832.67 1.682.963 2.55.092.262.175.523.257.794.083.252.156.504.238.757.064.243.138.486.202.729.055.178.101.355.146.542.083.299.156.598.229.906.046.168.083.346.119.533.073.308.138.617.202.934.055.243.101.495.146.748.064.317.119.635.165.962.037.168.055.327.083.495.046.308.092.617.128.925.037.271.073.542.101.822.046.354.084.718.111 1.083z" fill="#00e800"/><path d="m617.465 374.538c-.027-.364-.064-.729-.11-1.083.045.354.083.718.11 1.083z" fill="#fff"/><path d="m617.254 372.632c-.036-.308-.082-.617-.128-.925.046.308.092.617.128.925z" fill="#fff"/><path d="m617.043 371.212c-.046-.327-.101-.645-.165-.962.064.317.119.645.165.962z" fill="#fff"/><path d="m616.731 369.502c-.064-.317-.129-.626-.202-.934.074.308.138.617.202.934z" fill="#fff"/><path d="m616.41 368.036c-.073-.308-.146-.607-.229-.906.083.299.156.598.229.906z" fill="#fff"/><path d="m616.034 366.588c-.064-.243-.138-.486-.202-.729.064.243.138.486.202.729z" fill="#fff"/><path d="m615.832 365.859c-.082-.252-.155-.504-.238-.757.083.253.156.505.238.757z" fill="#fff"/><path d="m615.594 365.103c-.082-.271-.165-.532-.257-.794.092.261.175.523.257.794z" fill="#fff"/><path d="m614.374 361.758c-.238-.588-.495-1.167-.771-1.737.276.57.533 1.149.771 1.737z" fill="#fff"/><path d="m611.797 356.639c.485.813.944 1.644 1.376 2.494-.432-.85-.891-1.681-1.376-2.494z" fill="#fff"/><path d="m607.65 351.081c-.174-.196-.349-.383-.531-.57.183.187.358.374.531.57z" fill="#fff"/><path d="m606.101 349.484c-.303-.299-.614-.589-.936-.869.064.056.129.112.192.168.257.234.505.467.744.701z" fill="#fff"/><path d="m604.771 348.269c-.275-.252-.56-.495-.853-.729.284.234.568.477.853.729z" fill="#fff"/><path d="m603.918 347.541c-.193-.159-.395-.317-.597-.467.202.149.404.308.597.467z" fill="#fff"/><path d="m602.743 346.634c-.211-.168-.431-.327-.65-.476.22.15.439.308.65.476z" fill="#fff"/><path d="m602.093 346.158c-.294-.215-.588-.42-.89-.607.302.187.596.392.89.607z" fill="#fff"/><path d="m601.203 345.551c-.184-.131-.358-.243-.542-.355.184.112.367.224.542.355z" fill="#fff"/><path d="m600.661 345.196c-.211-.14-.431-.28-.65-.401.219.121.439.261.65.401z" fill="#fff"/><path d="m600.011 344.794c-.285-.178-.569-.346-.854-.504.294.159.569.327.854.504z" fill="#fff"/><path d="m598.616 343.991c-.303-.177-.614-.336-.936-.504.312.168.625.326.936.504z" fill="#fff"/><path d="m546.637 415.687c8.256.178 16.831 2.438 24.692 5.372 3.265 1.224 6.457 2.326 9.438 3.531 12.19 4.932 20.721 11.508 15.107 34.311-4.999 20.28-18.804 31.817-34.772 34.508-7.806 1.326-16.125.532-24.178-2.383-4.834-1.756-9.264-4.604-13.08-8.229h-.009c-12.694-12.069-18.372-32.77-7.952-50.547 7.457-12.724 18.766-16.834 30.754-16.563z" fill="#00e800"/><path d="m596.286 342.823c-.55-.252-1.109-.486-1.679-.71.57.224 1.129.458 1.679.71z" fill="#fff"/><path d="m576.07 338.937c-.357.009-.725.019-1.082.038.358-.019.725-.029 1.082-.038z" fill="#fff"/><path d="m574.053 339.031c-.257.009-.514.028-.771.056.257-.028.514-.047.771-.056z" fill="#fff"/><path d="m573.282 339.086c-.238.019-.477.038-.706.056.238-.018.468-.037.706-.056z" fill="#fff"/><path d="m571.411 339.273c-.449.047-.89.112-1.33.177.44-.074.89-.13 1.33-.177z" fill="#fff"/><path d="m570.081 339.451c-.486.065-.963.15-1.449.234.477-.094.963-.169 1.449-.234z" fill="#fff"/><path d="m568.559 339.694c-.936.168-1.871.364-2.798.588.927-.233 1.862-.42 2.798-.588z" fill="#fff"/><path d="m565.761 340.282c-.587.14-1.164.29-1.742.448.578-.167 1.155-.317 1.742-.448z" fill="#fff"/><path d="m564.019 340.73c-.541.15-1.073.309-1.605.477.531-.168 1.072-.336 1.605-.477z" fill="#fff"/><path d="m562.056 341.329c-.486.149-.963.317-1.431.495.468-.178.944-.346 1.431-.495z" fill="#fff"/><path d="m561.221 494.108c18.244 11.593 5.623 46.381-5.273 58.674-6.467 7.296-15.52 10.901-25.086 11.705-11.282.953-23.271-1.99-32.553-7.39-.679-.392-1.349-.803-1.99-1.232-.651-.43-1.275-.869-1.881-1.327-.696-.514-1.366-1.055-2.008-1.615-.202-.169-.404-.337-.605-.523-1.312-1.168-2.522-2.41-3.633-3.718-.184-.215-.366-.43-.541-.654-.22-.271-.44-.542-.642-.813-.184-.225-.358-.458-.523-.691-.073-.094-.138-.196-.211-.289-.165-.225-.32-.458-.477-.683-.083-.121-.165-.242-.248-.364-.036-.037-.063-.084-.082-.121-.046-.057-.083-.112-.102-.168-.247-.364-.477-.729-.706-1.103-.036-.037-.055-.084-.073-.121-.257-.421-.504-.851-.743-1.28-.247-.458-.495-.915-.725-1.373-.229-.467-.458-.935-.669-1.401s-.422-.943-.615-1.42c-.192-.477-.376-.953-.56-1.438-.165-.467-.33-.925-.485-1.401-.028-.084-.056-.168-.073-.252-.138-.421-.267-.851-.386-1.271-.146-.495-.275-.99-.395-1.485-.247-1-.458-1.999-.633-2.999-.092-.504-.165-1.018-.229-1.531-.073-.505-.128-1.009-.184-1.523-.055-.485-.091-.962-.119-1.447-.027-.374-.046-.738-.055-1.112-.541-12.041 3.696-24.203 11.786-32.34.211-.215.432-.43.643-.635 1.522-1.458 3.173-2.766 4.943-3.924.514-.327 1.027-.645 1.55-.943 7.063-4.036 15.896-5.559 26.196-3.102h.009c3.816 3.625 8.246 6.474 13.08 8.229 8.053 2.915 16.372 3.709 24.178 2.383z" fill="#00e800"/><path d="m560.561 341.842c-.486.178-.973.355-1.449.551.476-.196.962-.383 1.449-.551z" fill="#fff"/><path d="m558.827 342.505c-.532.225-1.055.449-1.578.691.523-.242 1.046-.466 1.578-.691z" fill="#fff"/><path d="m557.249 343.197c-.522.233-1.027.486-1.541.738.505-.252 1.019-.505 1.541-.738z" fill="#fff"/><path d="m555.378 344.103c-.449.233-.898.477-1.339.719.44-.242.89-.486 1.339-.719z" fill="#fff"/><path d="m554.012 344.841c-.523.299-1.036.598-1.541.916.505-.318 1.017-.627 1.541-.916z" fill="#fff"/><path d="m552.471 345.756c-.514.318-1.019.645-1.522.99.494-.345 1.008-.682 1.522-.99z" fill="#fff"/><path d="m550.948 346.747c-.495.336-.991.691-1.477 1.056.486-.365.972-.72 1.477-1.056z" fill="#fff"/><path d="m549.472 347.802c-.45.336-.89.672-1.321 1.027.431-.354.87-.7 1.321-1.027z" fill="#fff"/><path d="m547.931 349.007c-.395.336-.798.672-1.184 1.027.386-.354.779-.69 1.184-1.027z" fill="#fff"/><path d="m546.536 350.222c-.413.383-.825.766-1.22 1.167.395-.401.807-.794 1.22-1.167z" fill="#fff"/><path d="m525.844 69.286c25.967 10.163 25.967 10.163 20.271 21.009-7.979 15.236-45.348-15.955-61.032 2.961-.22-3.195-.788-5.941-1.907-7.94-.313-.551-.624-1.074-.954-1.56-.303-.458-.605-.887-.927-1.289-.101-.14-.211-.28-.33-.411-.211-.262-.431-.514-.66-.747-.11-.122-.221-.243-.34-.346-.119-.122-.229-.234-.349-.336-.229-.215-.458-.42-.688-.598-.119-.103-.238-.196-.357-.28-.119-.094-.238-.178-.349-.252-.119-.093-.238-.168-.357-.243-.12-.084-.248-.159-.367-.224-.119-.075-.238-.15-.357-.206-.12-.065-.239-.131-.349-.187-.285-.14-.569-.271-.854-.383 12.877-10.267 34.716-14.919 49.906-8.968z" fill="#00e800"/><path d="m545.316 351.389c-.44.43-.871.878-1.284 1.336.413-.457.844-.906 1.284-1.336z" fill="#fff"/><path d="m544.032 352.725c-.34.364-.67.748-.99 1.13.312-.382.642-.766.99-1.13z" fill="#fff"/><path d="m543.042 353.855c-.147.168-.294.336-.422.504.137-.167.275-.336.422-.504z" fill="#fff"/><path d="m542.62 354.36c-.34.402-.661.822-.981 1.243.32-.421.641-.841.981-1.243z" fill="#fff"/><path d="m530.916 565.104c20.949 22.457-9.558 59.291-37.505 61.271-6.054.431-11.988-.766-17.253-4.109-1-.636-2-1.299-2.99-1.999-.267-.188-.523-.374-.789-.57-.312-.215-.624-.439-.927-.673-2.21-1.644-4.384-3.446-6.457-5.381-.303-.279-.605-.56-.898-.85-.11-.112-.229-.225-.34-.336-.422-.402-.835-.822-1.238-1.243-.413-.42-.825-.85-1.22-1.289-.349-.373-.688-.756-1.027-1.14-.312-.354-.624-.71-.917-1.074-.064-.065-.119-.14-.175-.205-.366-.439-.733-.878-1.082-1.336-.046-.047-.083-.094-.119-.149-.294-.374-.587-.757-.871-1.14-.202-.271-.404-.552-.605-.841-.184-.243-.358-.495-.523-.747-.303-.43-.587-.851-.871-1.289-.046-.065-.092-.131-.119-.196-.357-.542-.697-1.093-1.027-1.653-.459-.767-.89-1.542-1.293-2.326-.193-.374-.386-.747-.56-1.121-.211-.421-.413-.841-.597-1.271-.184-.401-.357-.804-.522-1.215-.138-.326-.275-.653-.395-.99-.119-.279-.22-.569-.321-.859-.119-.336-.238-.672-.349-1.018-.109-.337-.22-.673-.312-1.009-.092-.28-.174-.57-.248-.859-.046-.159-.091-.309-.128-.468-.092-.346-.175-.7-.257-1.056-.092-.392-.174-.775-.248-1.158-.027-.121-.046-.242-.063-.364-.074-.354-.129-.71-.184-1.074-.064-.383-.119-.766-.165-1.148-.037-.346-.073-.701-.102-1.047-.018-.093-.027-.187-.027-.28-.027-.242-.036-.485-.055-.737-.019-.253-.027-.495-.037-.748-.027-.561-.036-1.121-.027-1.69 0-.299.01-.598.027-.896.01-.364.027-.72.064-1.074 1.431-18.31 19.978-32.182 37.624-32.191h.01c.156.233.312.458.477.683.073.093.138.195.211.289.165.233.34.467.523.691.201.271.412.542.642.813.175.225.357.439.541.654 1.11 1.308 2.321 2.55 3.633 3.718.201.187.403.354.605.523.642.561 1.312 1.102 2.008 1.615.605.458 1.238.897 1.881 1.327.642.43 1.312.841 1.99 1.232 9.282 5.399 21.271 8.343 32.553 7.39z" fill="#00e800"/><path d="m496.089 486.841c.514-.327 1.027-.645 1.55-.943-.523.298-1.036.616-1.55.943z" fill="#fff"/><path d="m494.438 554.538c.605.458 1.229.897 1.881 1.327-.643-.429-1.276-.869-1.881-1.327z" fill="#fff"/><path d="m413.383 647.421c-.009-.019-.009-.028-.018-.047-.11-.317-.22-.645-.321-.972-.091-.28-.174-.569-.248-.85-.128-.411-.229-.822-.321-1.242-.074-.327-.147-.664-.202-1-.064-.336-.12-.673-.166-1.009-.009-.056-.018-.112-.027-.159-.211-1.588-.266-3.213-.138-4.866.101-1.205.285-2.429.569-3.672.22-.934.495-1.877.826-2.84.339-.962.733-1.934 1.192-2.924.302-.653.642-1.326 1.009-1.999.367-.672.761-1.345 1.183-2.036.184-.29.367-.589.56-.878.119-.188.238-.364.358-.552 7.567-11.313 21.838-22.736 37.129-20.896.073.112.137.215.22.327.027.065.073.131.119.196.275.438.568.859.871 1.289.165.252.34.504.523.747.192.28.403.561.605.841.293.383.577.766.871 1.14.036.056.073.103.119.149.357.458.716.896 1.082 1.336.056.065.11.14.175.205.293.364.605.72.917 1.074.339.384.679.767 1.027 1.14.395.439.807.869 1.22 1.289.403.421.816.841 1.238 1.243.11.111.229.224.34.336.293.28.596.57.898.85 2.073 1.935 4.247 3.737 6.457 5.381.313.233.615.458.927.673.266.196.522.393.789.57.99.7 1.99 1.363 2.99 1.999 5.265 3.344 11.199 4.54 17.253 4.109l.119 1.495c20.573 10.565 5.695 43.709-8.127 53.303-11.869 8.229-22.39 9.238-32.167 5.707-8.566-3.082-16.556-9.649-24.389-17.879-1.294-1.354-2.56-2.709-3.77-4.055-.78-.868-1.541-1.737-2.293-2.597-.028-.028-.046-.065-.073-.094-.725-.859-1.431-1.709-2.11-2.568-.532-.663-1.037-1.336-1.522-2.009-.156-.215-.312-.42-.458-.635-.651-.906-1.266-1.813-1.834-2.729-.138-.224-.275-.448-.413-.682-.679-1.13-1.293-2.27-1.834-3.419-.083-.187-.165-.364-.248-.542-.338-.744-.641-1.491-.907-2.248z" fill="#00e800"/><path d="m491.824 552.399c.201.187.403.354.605.523-.201-.168-.404-.336-.605-.523z" fill="#fff"/><path d="m491.146 490.765c-.211.205-.432.42-.643.635.211-.215.422-.43.643-.635z" fill="#fff"/><path d="m487.65 548.027c.175.225.357.439.541.654-.183-.214-.366-.429-.541-.654z" fill="#fff"/><path d="m487.009 547.215c.201.271.422.542.642.813-.23-.271-.441-.543-.642-.813z" fill="#fff"/><path d="m486.485 546.523c.165.233.34.467.523.691-.183-.224-.358-.457-.523-.691z" fill="#fff"/><path d="m485.798 545.552c.156.225.312.458.477.683-.166-.225-.321-.45-.477-.683z" fill="#fff"/><path d="m485.55 545.188c.083.122.165.243.248.364h-.01c-.082-.121-.165-.242-.238-.364z" fill="#fff"/><path d="m485.55 545.188c.073.122.156.243.238.364-17.646.01-36.193 13.882-37.624 32.191 1.376-18.029 18.794-36.413 37.304-32.677.018.038.046.084.082.122z" fill="#fff"/><path d="m484.66 543.796c.229.374.459.738.706 1.103-.257-.365-.485-.729-.706-1.103z" fill="#fff"/><path d="m485.082 93.256c.789 11.761-3.256 29.575-2.898 38.178.551 14.003-1.091 31.378-18.527 33.163l-.44.046c-2.825-28.79-10.769-43.839-10.769-43.839s-.155.028-.449.093c-.128.028-.284.065-.477.112-1.376.327-4.21 1.065-8.072 2.373-.238.084-.485.168-.733.252-.66.224-1.349.476-2.055.738-.22.075-.44.159-.67.243-2.164.813-4.54 1.775-7.08 2.905-.395.178-.789.355-1.192.542-.734.327-1.468.673-2.22 1.037l-.881-2.279c-.027-.103-.055-.206-.092-.309-5.136-20.271 1.385-26.483 16.491-35.441.386-.224.771-.448 1.165-.682 7.292-4.269 17.271-13.162 25.994-12.891.129 0 .267.009.395.019.66.038 1.312.131 1.944.29.257.065.505.131.762.215.119.038.247.084.376.131.092.028.192.065.284.103.284.112.568.243.854.383.109.056.229.122.349.187.119.065.238.131.357.206.119.065.247.14.367.224.119.075.238.159.357.243.119.075.238.168.349.252.119.093.238.187.357.28.229.177.459.383.688.598.12.112.229.215.349.336.11.112.221.224.34.346.22.233.44.485.66.747.119.131.229.271.33.411.313.402.624.832.927 1.289.33.486.642 1.009.954 1.56 1.118 1.998 1.686 4.745 1.906 7.939z" fill="#00e800"/><g fill="#fff"><path d="m483.844 542.395c.239.43.486.859.743 1.28-.266-.421-.514-.851-.743-1.28z"/><path d="m483.119 541.021c.229.458.478.915.725 1.373-.257-.448-.504-.906-.725-1.373z"/><path d="m482.45 539.62c.211.467.44.935.669 1.401-.238-.458-.468-.924-.669-1.401z"/><path d="m481.835 538.2c.193.477.404.953.615 1.42-.221-.467-.431-.943-.615-1.42z"/><path d="m481.275 536.762c.184.485.367.962.56 1.438-.201-.476-.385-.953-.56-1.438z"/><path d="m482.221 83.756c-.303-.458-.614-.887-.927-1.289.321.402.624.831.927 1.289z"/><path d="m480.79 535.36c.155.477.32.935.485 1.401-.173-.466-.338-.934-.485-1.401z"/><path d="m480.331 533.838c.119.42.248.85.386 1.271-.148-.421-.276-.841-.386-1.271z"/><path d="m480.304 81.309c.229.233.449.485.66.747-.22-.262-.441-.514-.66-.747z"/><path d="m479.937 532.353c.119.495.248.99.395 1.485-.147-.495-.276-.981-.395-1.485z"/><path d="m480.304 81.309c-.119-.122-.229-.234-.34-.346.119.102.229.224.34.346z"/><path d="m479.615 80.626c.12.103.229.215.349.336-.119-.121-.229-.223-.349-.336z"/><path d="m479.304 529.354c.175 1 .386 1.999.633 2.999-.248-.991-.458-1.991-.633-2.999z"/><path d="m478.891 526.299c.056.515.11 1.019.184 1.523-.074-.505-.129-1.018-.184-1.523z"/><path d="m478.928 80.029c-.119-.094-.238-.187-.357-.28.118.084.238.177.357.28z"/><path d="m478.717 523.739c.009.374.027.738.055 1.112-.028-.373-.046-.738-.055-1.112z"/><path d="m478.57 79.749c-.11-.084-.229-.178-.349-.252.111.074.23.158.349.252z"/><path d="m478.222 79.496c-.119-.084-.238-.168-.357-.243.118.075.238.15.357.243z"/><path d="m477.497 79.029c-.119-.075-.238-.14-.357-.206.119.056.238.132.357.206z"/><path d="m477.14 78.824c-.12-.065-.239-.131-.349-.187.109.056.229.121.349.187z"/><path d="m475.653 78.151c-.129-.046-.257-.093-.376-.131.128.038.247.084.376.131z"/><path d="m474.516 77.805c.257.056.514.131.762.215-.257-.084-.506-.149-.762-.215z"/><path d="m472.379 619.695c.266.196.522.383.789.57-.267-.177-.523-.373-.789-.57z"/><path d="m472.571 77.516c-.128-.009-.266-.019-.395-.019.13 0 .267.009.395.019z"/><path d="m471.452 619.022c.303.233.615.458.927.673-.312-.215-.614-.439-.927-.673z"/><path d="m464.097 612.792c.293.29.596.57.898.85-.303-.28-.605-.57-.898-.85z"/><path d="m462.519 611.213c.403.421.816.841 1.238 1.243-.422-.402-.835-.822-1.238-1.243z"/></g><path d="m463.216 164.644c3.146 32.004-.046 81-27.535 145.195-52.199 121.944-88.273 199.384-106.765 232.631-18.491 33.236-58.968 102.102-107.471 118.59-48.512 16.469-99.767-3.774-111.085 3.961-11.318 7.744-36.9 11.098 20.748-52.799 57.647-63.896 116.35-156.834 164.238-264.232 47.888-107.409 68.636-160.207 95.583-190.221.789-.878 1.587-1.738 2.385-2.578.403-.42.807-.841 1.21-1.243.193-.196.376-.392.569-.57.605-.617 1.21-1.214 1.825-1.803 1.21-1.168 2.431-2.289 3.669-3.373.403-.364.816-.719 1.229-1.074 1.669-1.448 3.357-2.812 5.045-4.11.789-.607 1.577-1.205 2.366-1.775 2.586-1.896 5.164-3.634 7.695-5.212.339-.224.679-.43 1.018-.635 1.615-.99 3.201-1.915 4.761-2.774.385-.215.779-.43 1.165-.645s.771-.42 1.156-.617c.376-.196.761-.401 1.138-.598 1.055-.542 2.091-1.065 3.1-1.551.083-.037.156-.075.239-.112.752-.364 1.485-.71 2.22-1.037.394-.187.798-.364 1.192-.542 2.54-1.13 4.916-2.092 7.08-2.905.229-.084.45-.168.67-.243.706-.262 1.395-.514 2.055-.738.248-.084.495-.168.733-.252 3.862-1.308 6.696-2.046 8.072-2.373.183-.038.349-.075.477-.112.294-.065.449-.093.449-.093s7.944 15.05 10.769 43.84z" fill="#00e800"/><path d="m461.299 609.924c.395.439.807.869 1.22 1.289-.414-.42-.826-.85-1.22-1.289z" fill="#fff"/><path d="m459.354 607.71c.293.364.605.72.917 1.074-.311-.354-.624-.71-.917-1.074z" fill="#fff"/><path d="m458.098 606.169c.349.458.716.896 1.082 1.336-.367-.44-.725-.878-1.082-1.336z" fill="#fff"/><path d="m457.107 604.88c.284.383.577.766.871 1.14-.293-.374-.578-.757-.871-1.14z" fill="#fff"/><path d="m456.502 604.039c.201.289.403.569.605.841-.202-.28-.413-.561-.605-.841z" fill="#fff"/><path d="m455.979 603.292c.165.252.34.504.523.747-.184-.243-.358-.495-.523-.747z" fill="#fff"/><path d="m455.107 602.003c.284.438.568.859.871 1.289-.302-.43-.595-.851-.871-1.289z" fill="#fff"/><path d="m454.988 601.807c-.083-.112-.146-.215-.22-.327-.275-.439-.551-.878-.808-1.326.331.56.671 1.111 1.028 1.653z" fill="#fff"/><path d="m453.961 600.153c.257.448.532.887.808 1.326-15.291-1.84-29.563 9.584-37.129 20.896 7.199-10.854 21.975-25.211 36.321-22.222z" fill="#fff"/><path d="m453.236 686.879c5.54 17.45-15.125 35.349-30.342 38.478-15.629 3.232-32.625-.158-42.284-14.143-.312-.458-.624-.915-.908-1.373-.22-.355-.44-.701-.642-1.056-.11-.168-.211-.336-.303-.505-14.538-25.381 1.541-60.514 29.938-61.326h.166c1.467.065 2.981.215 4.521.467.266.757.569 1.504.908 2.251.073.178.156.364.248.542.542 1.149 1.156 2.289 1.834 3.419.128.225.266.458.413.682.568.916 1.183 1.822 1.834 2.729.146.205.293.42.458.635.486.673.991 1.346 1.522 2.009.679.859 1.376 1.709 2.11 2.568.027.028.045.065.073.094.743.869 1.504 1.729 2.293 2.597 1.21 1.346 2.476 2.7 3.77 4.055 7.836 8.227 15.825 14.795 24.391 17.877z" fill="#00e800"/><path d="m452.108 596.706c.174.374.366.747.56 1.121-.202-.374-.386-.747-.56-1.121z" fill="#fff"/><path d="m451.521 121.01c.192-.047.349-.084.477-.112-.128.037-.294.074-.477.112z" fill="#fff"/><path d="m450.989 594.221c.165.411.339.813.522 1.215-.183-.402-.357-.804-.522-1.215z" fill="#fff"/><path d="m450.595 593.23c.119.337.257.664.395.99-.138-.325-.276-.653-.395-.99z" fill="#fff"/><path d="m449.925 591.354c.11.346.229.682.349 1.018-.12-.337-.239-.673-.349-1.018z" fill="#fff"/><path d="m449.365 589.485c.074.289.156.579.248.859-.092-.289-.174-.57-.248-.859z" fill="#fff"/><path d="m448.98 587.962c.082.355.165.71.257 1.056-.091-.355-.174-.701-.257-1.056z" fill="#fff"/><path d="m448.732 586.804c.074.383.156.767.248 1.158-.091-.383-.173-.766-.248-1.158z" fill="#fff"/><path d="m448.485 585.365c.055.364.109.72.184 1.074-.074-.354-.129-.71-.184-1.074z" fill="#fff"/><path d="m448.219 583.17c.028.346.064.701.102 1.047-.038-.346-.074-.692-.102-1.047z" fill="#fff"/><path d="m448.137 582.152c.019.252.027.495.055.737-.019-.242-.037-.485-.055-.737z" fill="#fff"/><path d="m448.1 581.404c.01.253.019.495.037.748-.019-.243-.028-.495-.037-.748z" fill="#fff"/><path d="m448.1 578.817c-.018.299-.027.598-.027.896-.001-.298.009-.597.027-.896z" fill="#fff"/><path d="m443.449 123.382c-.238.084-.485.168-.733.252.248-.083.495-.168.733-.252z" fill="#fff"/><path d="m440.661 124.373c-.22.075-.44.159-.67.243.23-.085.45-.169.67-.243z" fill="#fff"/><path d="m432.911 127.521c-.395.178-.799.355-1.192.542.403-.188.798-.365 1.192-.542z" fill="#fff"/><path d="m428.618 126.82.881 2.279c-.083.037-.156.075-.239.112-.266-.925-.504-1.831-.733-2.7.036.104.064.206.091.309z" fill="#fff"/><path d="m445.018 91.07c-15.106 8.958-21.627 15.17-16.491 35.441-6.265-22.166.779-26.258 16.491-35.441z" fill="#fff"/><path d="m426.16 130.762c-.376.196-.762.402-1.138.598.386-.205.762-.402 1.138-.598z" fill="#00e800"/><path d="m425.078 664.945c-.789-.868-1.55-1.728-2.293-2.597.752.86 1.513 1.729 2.293 2.597z" fill="#fff"/><path d="m423.867 131.977c-.385.215-.779.43-1.165.645.394-.225.779-.44 1.165-.645z" fill="#00e800"/><path d="m422.711 662.255c-.734-.859-1.431-1.709-2.11-2.568.679.859 1.386 1.709 2.11 2.568z" fill="#fff"/><path d="m418.621 657.043c.146.215.302.42.458.635-.165-.215-.312-.43-.458-.635z" fill="#fff"/><path d="m417.941 135.396c-.339.206-.679.411-1.018.635.34-.224.679-.43 1.018-.635z" fill="#00e800"/><path d="m417.281 622.928c-.193.289-.376.588-.56.878.175-.29.367-.579.56-.878z" fill="#fff"/><path d="m416.373 653.633c.138.233.275.458.413.682-.147-.224-.285-.458-.413-.682z" fill="#fff"/><path d="m415.539 625.842c-.367.673-.707 1.346-1.009 1.999.302-.653.641-1.326 1.009-1.999z" fill="#fff"/><path d="m414.291 649.672c.083.178.165.355.248.542-.092-.178-.175-.364-.248-.542z" fill="#fff"/><path d="m413.365 647.374c.009.019.009.028.018.047-1.541-.252-3.054-.401-4.521-.467 1.44-.047 2.907.009 4.412.158.026.084.063.178.091.262z" fill="#fff"/><path d="m413.365 647.374c-.027-.084-.064-.178-.092-.262-.083-.233-.156-.477-.229-.71.101.327.21.655.321.972z" fill="#fff"/><path d="m412.796 645.553c.074.28.156.569.248.85-.092-.281-.174-.561-.248-.85z" fill="#fff"/><path d="m413.337 630.765c-.331.963-.605 1.906-.826 2.84.212-.934.487-1.877.826-2.84z" fill="#fff"/><path d="m412.273 643.311c.055.336.128.673.202 1-.082-.337-.147-.665-.202-1z" fill="#fff"/><path d="m412.108 642.302c.046.336.101.673.166 1.009-.074-.336-.129-.673-.166-1.009z" fill="#fff"/><path d="m412.512 633.604c-.284 1.243-.468 2.467-.569 3.672.092-1.205.275-2.428.569-3.672z" fill="#fff"/><path d="m411.943 637.276c-.128 1.653-.073 3.278.138 4.866-.221-1.587-.267-3.212-.138-4.866z" fill="#fff"/><path d="m378.758 708.28c-15.088-26.063.293-62.429 29.938-61.326-28.397.813-44.476 35.945-29.938 61.326z" fill="#fff"/><path d="m406.862 143.018c.789-.616 1.577-1.205 2.366-1.775-.789.57-1.578 1.168-2.366 1.775z" fill="#fff"/><path d="m401.817 147.128c-.413.355-.826.71-1.229 1.074.403-.373.816-.728 1.229-1.074z" fill="#fff"/><path d="m395.094 153.378c.605-.617 1.22-1.214 1.825-1.803-.615.589-1.22 1.186-1.825 1.803z" fill="#fff"/><path d="m394.525 153.948c-.403.402-.807.822-1.21 1.243.403-.421.807-.841 1.21-1.243z" fill="#00e800"/><path d="m379.061 708.785c.202.354.422.7.642 1.056-.23-.356-.441-.701-.642-1.056z" fill="#fff"/><path d="m413.392 647.421h-.009c-1.541-.252-3.054-.401-4.521-.467-.055 0-.11 0-.166 0-29.645-1.103-45.026 35.264-29.938 61.326.092.169.193.337.303.505.202.354.413.7.642 1.056.284.458.596.915.908 1.373 9.658 13.984 26.654 17.375 42.284 14.143 15.217-3.129 35.882-21.027 30.342-38.478-.027-.121-.073-.233-.11-.354" fill="none" stroke="#000" stroke-width="14"/><path d="m454.769 601.479c-15.291-1.84-29.563 9.584-37.129 20.896-.12.188-.239.364-.358.552-.193.289-.376.588-.56.878-.422.691-.816 1.364-1.183 2.036-.367.673-.707 1.346-1.009 1.999-.459.99-.853 1.962-1.192 2.924-.331.963-.605 1.906-.826 2.84-.284 1.243-.468 2.467-.569 3.672-.128 1.653-.073 3.278.138 4.866.009.047.019.104.027.159.046.336.101.673.166 1.009.055.336.128.673.202 1 .092.42.192.831.321 1.242.074.28.156.569.248.85.101.327.211.654.321.972.009.019.009.028.018.047.266.757.569 1.504.908 2.251.083.178.165.355.248.542.542 1.149 1.156 2.289 1.834 3.419.138.233.275.458.413.682.568.916 1.183 1.822 1.834 2.729.146.215.302.42.458.635.486.673.991 1.346 1.522 2.009.679.859 1.376 1.709 2.11 2.568.027.028.045.065.073.094.743.869 1.504 1.729 2.293 2.597 1.21 1.346 2.476 2.7 3.77 4.055 7.833 8.229 15.822 14.797 24.389 17.879 9.777 3.531 20.298 2.522 32.167-5.707 13.822-9.594 28.7-42.737 8.127-53.303" fill="none" stroke="#000" stroke-width="14"/><path d="m485.788 545.552c-17.646.01-36.193 13.882-37.624 32.191-.037.354-.055.71-.064 1.074-.018.299-.027.598-.027.896-.009.569 0 1.13.027 1.69.01.253.019.505.037.748.019.252.027.495.055.737 0 .094.01.188.027.28.028.346.064.701.102 1.047.046.383.101.766.165 1.148.055.364.109.72.184 1.074.018.122.036.243.063.364.074.393.156.775.248 1.158.082.355.165.701.257 1.056.037.159.082.309.128.468.074.289.156.569.248.859.092.336.202.672.312 1.009.11.346.229.682.349 1.018.102.29.202.58.321.859.119.337.257.664.395.99.165.411.339.813.522 1.215.184.43.386.85.597 1.271.174.374.357.747.56 1.121.403.784.834 1.56 1.293 2.326.257.448.532.887.808 1.326.073.112.137.215.22.327.027.065.073.131.119.196.275.438.568.859.871 1.289.165.252.34.504.523.747.192.28.403.561.605.841.284.383.577.766.871 1.14.036.056.073.103.119.149.349.458.716.896 1.082 1.336.056.065.11.14.175.205.293.364.605.72.917 1.074.339.384.679.767 1.027 1.14.395.439.807.869 1.22 1.289.403.421.816.841 1.238 1.243.11.111.229.224.34.336.293.28.596.57.898.85 2.073 1.935 4.247 3.737 6.457 5.381.313.233.615.458.927.673.266.196.522.383.789.57.99.7 1.99 1.363 2.99 1.999 5.265 3.344 11.199 4.54 17.253 4.109 27.947-1.979 58.454-38.813 37.505-61.271" fill="none" stroke="#000" stroke-width="14"/><path d="m523.835 482.796c-10.301-2.457-19.133-.935-26.196 3.102-.522.299-1.036.616-1.55.943-1.771 1.158-3.421 2.466-4.943 3.924-.211.205-.432.42-.643.635-8.09 8.137-12.327 20.299-11.786 32.34.009.374.027.738.055 1.112.028.485.064.962.119 1.447.056.505.11 1.019.184 1.523.064.514.138 1.027.229 1.531.175 1.009.386 2.009.633 2.999.119.505.248.99.395 1.485.11.43.238.85.386 1.271.018.084.045.168.073.252.146.467.312.935.485 1.401.175.485.358.962.56 1.438.184.477.395.953.615 1.42.201.477.431.943.669 1.401.221.467.468.925.725 1.373.229.43.478.859.743 1.28.019.037.037.084.073.121.221.374.449.738.706 1.103.019.056.056.111.102.168.019.037.046.084.082.121.073.122.156.243.238.364h.01c.156.225.312.458.477.683.073.093.138.195.211.289.165.233.34.467.523.691.201.271.422.542.642.813.175.225.357.439.541.654 1.11 1.308 2.321 2.55 3.633 3.718.201.187.403.354.605.523.642.561 1.312 1.102 2.008 1.615.605.458 1.238.897 1.881 1.327.642.43 1.312.841 1.99 1.232 9.282 5.399 21.271 8.343 32.553 7.39 9.566-.804 18.619-4.409 25.086-11.705 10.896-12.293 23.518-47.081 5.273-58.674" fill="none" stroke="#000" stroke-width="14"/><path d="m580.767 424.589c-2.98-1.205-6.173-2.308-9.438-3.531-7.861-2.933-16.437-5.194-24.692-5.372-11.987-.271-23.297 3.839-30.754 16.563-10.42 17.777-4.742 38.478 7.952 50.547h.009c3.816 3.625 8.246 6.474 13.08 8.229 8.053 2.915 16.372 3.709 24.178 2.383 15.969-2.69 29.773-14.228 34.772-34.508 5.613-22.802-2.917-29.379-15.107-34.311z" fill="none" stroke="#000" stroke-width="14"/><path d="m548.086 416.938c-.495-.402-.981-.822-1.449-1.252-15.729-14.246-18.399-42.232-4.998-60.084.32-.42.642-.841.981-1.243.137-.168.274-.336.422-.504.32-.383.65-.766.99-1.13.413-.458.844-.906 1.284-1.336.395-.401.807-.785 1.22-1.167.073-.065.138-.131.211-.187.386-.355.789-.691 1.184-1.027.073-.056.146-.122.22-.178.432-.355.871-.691 1.321-1.027.485-.364.981-.719 1.477-1.056.504-.346 1.009-.672 1.522-.99.505-.317 1.018-.617 1.541-.916.009 0 .019-.009.027-.019.44-.243.89-.486 1.339-.719.11-.056.221-.112.33-.168.514-.252 1.019-.505 1.541-.738.523-.243 1.046-.467 1.578-.691.101-.037.192-.075.284-.112.477-.196.963-.374 1.449-.551.019-.009.037-.019.064-.019.468-.178.944-.346 1.431-.495.119-.038.238-.084.357-.122.532-.168 1.064-.327 1.605-.477.578-.159 1.155-.308 1.742-.448.927-.224 1.862-.42 2.798-.588.027 0 .046-.009.073-.009.486-.084.963-.168 1.449-.234.44-.065.881-.13 1.33-.177.386-.047.771-.084 1.165-.131.238-.019.468-.037.706-.056.257-.028.514-.046.771-.056.312-.019.624-.038.936-.056.357-.019.725-.028 1.082-.038 6.458-.159 12.851.925 18.537 3.176.569.224 1.129.458 1.679.71.468.215.936.439 1.395.663.312.168.624.327.936.504.184.094.367.196.541.299.294.159.568.327.854.504.22.121.439.261.65.401.184.112.367.224.542.355.302.187.596.393.89.607.22.149.439.308.65.476.202.14.395.29.578.439.202.149.403.308.597.467.293.233.577.477.853.729.129.103.267.225.395.346.321.28.633.57.936.869.064.065.129.121.192.187.284.28.56.561.826.841.183.187.357.374.531.57 1.56 1.709 2.944 3.568 4.146 5.558.485.813.944 1.644 1.376 2.494.146.29.293.589.431.888.275.57.532 1.149.771 1.737.349.832.67 1.682.963 2.55.092.262.175.523.257.794.083.252.156.504.238.757.064.243.138.486.202.729.055.178.101.355.146.542.083.299.156.598.229.906.046.168.083.346.119.533.073.308.138.617.202.934.055.243.101.495.146.748.064.317.119.645.165.962.037.168.055.327.083.495.046.308.092.617.128.925.037.271.073.542.101.822.046.355.083.719.11 1.083.403 4.409.202 9.015-.624 13.667-3.577 20.262-19.381 29.276-36.074 36.385-.449.196-.898.392-1.357.579" fill="none" stroke="#000" stroke-width="14"/><path d="m565.761 340.282c-33.717-34.199 11.576-109.968 54.337-80.813 31.507 21.476 24.865 85.652-13.805 90.201" fill="none" stroke="#000" stroke-width="14"/><path d="m529.907 344.916c24.104-51.051 40.908-95.694 60.609-138.908 19.702-43.214 50.017-84.886 50.017-84.886s40.908 111.126 0 254.658c-23.252 81.561-74.259 202.187-100.023 246.942-25.765 44.765-88.236 112.668-117.615 112.668-29.378 0-39.991-12.35-58.17-12.35-18.189 0-26.526-17.749-9.099-35.497 17.437-17.749 74.258-104.942 96.987-151.248 22.738-46.306 53.18-140.328 77.294-191.379z" fill="none" stroke="#000" stroke-width="21"/><path d="m429.26 129.211c.083-.037.156-.075.239-.112.752-.364 1.485-.71 2.22-1.037.394-.187.798-.364 1.192-.542 2.54-1.13 4.916-2.092 7.08-2.905.229-.084.45-.168.67-.243.706-.262 1.395-.514 2.055-.738.248-.084.495-.168.733-.252 3.862-1.308 6.696-2.046 8.072-2.373.183-.038.349-.075.477-.112.294-.065.449-.093.449-.093s7.943 15.049 10.769 43.839c3.146 32.004-.046 81-27.535 145.195-52.199 121.944-88.273 199.384-106.765 232.631-18.491 33.236-58.968 102.102-107.471 118.59-48.512 16.469-99.767-3.774-111.085 3.961-11.318 7.744-36.9 11.098 20.748-52.799 57.647-63.896 116.35-156.834 164.238-264.232 47.888-107.409 68.636-160.207 95.583-190.221.789-.878 1.587-1.738 2.385-2.578.403-.42.807-.841 1.21-1.243.193-.196.376-.392.569-.57.605-.617 1.21-1.214 1.825-1.803 1.21-1.168 2.431-2.289 3.669-3.373.403-.364.816-.719 1.229-1.074 1.669-1.448 3.357-2.812 5.045-4.11.789-.607 1.577-1.205 2.366-1.775 2.586-1.896 5.164-3.634 7.695-5.212.339-.224.679-.43 1.018-.635 1.615-.99 3.201-1.915 4.761-2.774.394-.224.779-.439 1.165-.645.385-.215.771-.42 1.156-.617.385-.205.761-.401 1.138-.598 1.055-.541 2.091-1.064 3.1-1.55z" fill="none" stroke="#000" stroke-width="21"/><path d="m429.26 129.211c-.266-.925-.504-1.831-.733-2.7-5.136-20.271 1.385-26.483 16.491-35.441.386-.224.771-.448 1.165-.682 7.292-4.269 17.271-13.162 25.994-12.891.129 0 .267.009.395.019.66.038 1.312.131 1.944.29.257.056.514.131.762.215.128.038.247.084.376.131.092.028.192.065.284.103.284.112.568.243.854.383.109.056.229.122.349.187.119.056.238.131.357.206.119.065.247.14.367.224.119.075.238.149.357.243.11.075.229.159.349.252.119.084.238.177.357.28.229.177.459.383.688.598.12.103.229.215.349.336.119.103.229.224.34.346.229.233.449.485.66.747.119.131.229.271.33.411.321.402.624.832.927 1.289.33.486.642 1.009.954 1.56 1.119 1.999 1.688 4.746 1.907 7.94.789 11.761-3.256 29.575-2.898 38.178.551 14.003-1.091 31.378-18.527 33.163" fill="none" stroke="#000" stroke-width="21"/><path d="m475.938 78.254c12.878-10.267 34.717-14.918 49.906-8.968 25.967 10.163 25.967 10.163 20.271 21.009-7.979 15.236-45.348-15.955-61.032 2.961-.055.056-.109.121-.155.177" fill="none" stroke="#000" stroke-width="21"/><path d="m0 0h780v794.394h-780z" fill="none"/><path d="m719.77 656.59c12.19 4.93 20.721 11.51 15.101 34.311-4.99 20.279-18.8 31.819-34.771 34.51-7.8 1.32-16.119.53-24.18-2.38-4.83-1.761-9.27-4.61-13.09-8.23-12.69-12.069-18.37-32.77-7.95-50.55 7.46-12.72 18.771-16.83 30.76-16.56 8.25.17 16.83 2.43 24.69 5.369 3.26 1.22 6.46 2.32 9.44 3.53z" fill="#00e800"/><path d="m719.77 656.59c-2.979-1.21-6.18-2.31-9.439-3.53-7.86-2.939-16.44-5.199-24.69-5.369-11.989-.271-23.3 3.84-30.76 16.56-10.42 17.78-4.74 38.48 7.95 50.55 3.82 3.62 8.26 6.47 13.09 8.23 8.061 2.91 16.38 3.7 24.18 2.38 15.971-2.69 29.78-14.23 34.771-34.51 5.618-22.801-2.912-29.381-15.102-34.311z" fill="none" stroke="#000" stroke-linecap="round" stroke-linejoin="round" stroke-width="14"/><path d="m712.785 418.132-1.771 187.577" fill="none" stroke="#000" stroke-linecap="round" stroke-linejoin="round" stroke-width="14"/><path d="m762.382 560.622-51.569 45.965-50.664-46.995" fill="none" stroke="#000" stroke-linecap="round" stroke-linejoin="round" stroke-width="14"/><path d="m0 0h850.394v850.394h-850.394z" fill="none"/></svg>