<svg enable-background="new 0 0 850.394 850.394" height="850.394" viewBox="0 0 850.394 850.394" width="850.394" xmlns="http://www.w3.org/2000/svg"><path d="m616.82 364.27c-36.761-36.61 12.62-117.72 59.239-86.51 34.351 22.99 27.11 91.69-15.05 96.56-.069-.07-.14-.13-.21-.2-.26-.25-.53-.5-.81-.75-.07-.06-.141-.12-.21-.18-.141-.13-.29-.26-.431-.37-.31-.27-.619-.53-.93-.78-.21-.17-.43-.34-.65-.5-.199-.16-.409-.32-.63-.47-.229-.18-.47-.35-.71-.51-.319-.23-.64-.45-.97-.65-.19-.14-.39-.26-.59-.38-.23-.15-.47-.3-.71-.43-.311-.19-.61-.37-.93-.54-.19-.11-.391-.22-.591-.32-.34-.19-.68-.36-1.02-.54-.5-.24-1.01-.48-1.521-.71-.6-.27-1.21-.52-1.83-.76-6.199-2.41-13.17-3.57-20.21-3.4-.39.01-.79.02-1.18.04-.34.02-.68.04-1.02.06-.28.01-.561.03-.841.06-.26.02-.51.04-.77.06-.43.05-.85.09-1.27.14-.48.05-.971.11-1.45.19-.53.07-1.061.15-1.58.25-.03 0-.05.01-.08.01-1.015.18-2.035.38-3.045.63z" fill="#00e800"/><path d="m673.19 400.94c-.03-.39-.07-.78-.12-1.16.05.38.09.77.12 1.16z" fill="#fff"/><path d="m672.96 398.9c-.04-.33-.09-.66-.14-.99.05.33.1.66.14.99z" fill="#fff"/><path d="m672.73 397.38c-.051-.35-.11-.69-.181-1.03.071.34.131.69.181 1.03z" fill="#fff"/><path d="m672.39 395.55c-.069-.34-.14-.67-.22-1 .08.33.15.66.22 1z" fill="#fff"/><path d="m672.04 393.98c-.08-.33-.16-.65-.25-.97.09.32.17.64.25.97z" fill="#fff"/><path d="m671.63 392.43c-.07-.26-.149-.52-.22-.78.07.26.15.52.22.78z" fill="#fff"/><path d="m671.41 391.65c-.09-.27-.17-.54-.26-.81.09.27.17.54.26.81z" fill="#fff"/><path d="m671.15 390.84c-.091-.29-.181-.57-.28-.85.1.28.19.56.28.85z" fill="#fff"/><path d="m669.82 387.26c-.261-.63-.54-1.25-.84-1.86.3.61.58 1.23.84 1.86z" fill="#fff"/><path d="m667.01 381.78c.53.87 1.03 1.76 1.5 2.67-.47-.91-.97-1.8-1.5-2.67z" fill="#fff"/><path d="m672.51 415.57c-3.899 21.69-21.13 31.34-39.33 38.95-3.25-1.289-6.729-2.47-10.29-3.779-8.569-3.141-17.92-5.561-26.92-5.75-17.149-15.25-20.06-45.21-5.45-64.32.351-.45.7-.9 1.07-1.33.141-.18.3-.36.46-.54.351-.41.71-.82 1.08-1.21.45-.49.92-.97 1.4-1.43.43-.43.88-.84 1.33-1.25.08-.07.149-.14.229-.2.42-.38.86-.74 1.29-1.1.08-.06.16-.13.24-.19.47-.38.95-.74 1.439-1.1.53-.39 1.07-.77 1.61-1.13.55-.37 1.1-.72 1.66-1.06.55-.34 1.11-.66 1.68-.98.01 0 .021-.01.03-.02.479-.26.97-.52 1.46-.77l.36-.18c.56-.27 1.109-.54 1.68-.79.57-.26 1.14-.5 1.72-.74.11-.04.21-.08.311-.12.52-.21 1.05-.4 1.58-.59.02-.01.04-.02.069-.02.511-.19 1.03-.37 1.561-.53.13-.04.26-.09.39-.13.58-.18 1.16-.35 1.75-.51.63-.17 1.26-.33 1.9-.48 1.01-.24 2.029-.45 3.05-.63.03 0 .05-.01.08-.01.53-.09 1.05-.18 1.58-.25.479-.07.96-.14 1.45-.19.42-.05.84-.09 1.27-.14.25-.02.51-.04.77-.06.28-.03.561-.05.841-.06.34-.02.68-.04 1.02-.06.39-.02.79-.03 1.18-.04 7.04-.17 14.011.99 20.21 3.4.62.24 1.23.49 1.83.76.511.23 1.021.47 1.521.71.35.18.689.35 1.02.54.2.1.4.21.591.32.31.17.619.35.93.54.24.13.479.28.71.43.2.12.39.24.59.38.33.2.65.42.97.65.24.16.48.33.71.51.221.15.431.31.63.47.221.16.44.33.65.5.32.25.63.51.93.78.141.11.29.24.431.37.35.3.689.61 1.02.93.07.07.141.13.21.2.311.3.61.6.9.9.2.2.39.4.58.61 1.7 1.83 3.21 3.82 4.52 5.95.53.87 1.03 1.76 1.5 2.67.16.31.32.63.471.95.3.61.579 1.23.84 1.86.38.89.729 1.8 1.05 2.73.1.28.189.56.28.85.09.27.17.54.26.81.07.26.149.52.22.78.061.19.11.38.16.58.09.32.17.64.25.97.05.18.09.37.13.57.08.33.15.66.22 1 .061.26.11.53.16.8.07.34.13.68.181 1.03.039.18.06.35.09.53.05.33.1.66.14.99.04.29.08.58.11.88.05.38.09.77.12 1.16.435 4.719.215 9.649-.685 14.629z" fill="#00e800"/><path d="m662.49 375.83c-.19-.21-.38-.41-.58-.61.2.2.39.4.58.61z" fill="#fff"/><path d="m660.8 374.12c-.33-.32-.67-.63-1.02-.93.069.06.14.12.21.18.28.25.55.5.81.75z" fill="#fff"/><path d="m659.35 372.82c-.3-.27-.609-.53-.93-.78.31.25.62.51.93.78z" fill="#fff"/><path d="m658.42 372.04c-.21-.17-.43-.34-.65-.5.22.16.44.33.65.5z" fill="#fff"/><path d="m657.14 371.07c-.229-.18-.47-.35-.71-.51.24.16.48.33.71.51z" fill="#fff"/><path d="m656.43 370.56c-.319-.23-.64-.45-.97-.65.33.2.65.42.97.65z" fill="#fff"/><path d="m655.46 369.91c-.2-.14-.39-.26-.59-.38.2.12.4.24.59.38z" fill="#fff"/><path d="m654.87 369.53c-.23-.15-.47-.3-.71-.43.24.13.48.28.71.43z" fill="#fff"/><path d="m654.16 369.1c-.311-.19-.62-.37-.93-.54.32.17.62.35.93.54z" fill="#fff"/><path d="m652.64 368.24c-.33-.19-.67-.36-1.02-.54.34.18.68.35 1.02.54z" fill="#fff"/><path d="m650.1 366.99c-.6-.27-1.21-.52-1.83-.76.62.24 1.23.49 1.83.76z" fill="#fff"/><path d="m628.06 362.83c-.39.01-.79.02-1.18.04.39-.02.79-.03 1.18-.04z" fill="#fff"/><path d="m625.86 362.93c-.28.01-.561.03-.841.06.281-.03.561-.05.841-.06z" fill="#fff"/><path d="m625.02 362.99c-.26.02-.52.04-.77.06.26-.02.51-.04.77-.06z" fill="#fff"/><path d="m622.98 363.19c-.49.05-.971.12-1.45.19.48-.08.97-.14 1.45-.19z" fill="#fff"/><path d="m621.53 363.38c-.53.07-1.05.16-1.58.25.52-.1 1.05-.18 1.58-.25z" fill="#fff"/><path d="m542.55 520.15c7.7-4.32 17.33-5.95 28.561-3.32h.01c4.16 3.88 8.99 6.93 14.26 8.81 8.78 3.12 17.851 3.971 26.36 2.551l.13.75c19.89 12.409 6.13 49.649-5.75 62.81-7.05 7.81-16.92 11.67-27.351 12.53-12.3 1.02-25.369-2.13-35.489-7.91-.74-.42-1.471-.86-2.17-1.32-.71-.46-1.391-.93-2.051-1.42-.76-.55-1.489-1.13-2.189-1.729-.22-.181-.44-.36-.66-.561-1.43-1.25-2.75-2.58-3.96-3.979-.2-.23-.4-.46-.59-.7-.24-.29-.48-.58-.7-.87-.2-.24-.39-.49-.57-.74-.08-.1-.149-.21-.229-.31-.18-.24-.351-.49-.521-.73-.09-.13-.18-.26-.27-.39-.04-.04-.07-.09-.09-.13-.05-.061-.09-.12-.11-.181-.27-.39-.52-.779-.77-1.18-.04-.04-.061-.09-.08-.13-.28-.45-.551-.91-.811-1.37-.27-.49-.54-.979-.79-1.47-.25-.5-.5-1-.729-1.5-.23-.5-.46-1.01-.67-1.521-.21-.51-.41-1.02-.61-1.54-.18-.5-.36-.989-.53-1.5-.029-.09-.06-.18-.08-.27-.149-.45-.29-.91-.42-1.36-.16-.529-.3-1.06-.43-1.59-.27-1.07-.5-2.14-.69-3.21-.1-.54-.18-1.09-.25-1.64-.079-.54-.14-1.08-.199-1.63-.061-.521-.101-1.03-.13-1.551-.03-.399-.051-.79-.061-1.189-.59-12.891 4.03-25.91 12.85-34.62.23-.23.471-.46.7-.68 1.66-1.561 3.46-2.96 5.391-4.2.558-.35 1.118-.69 1.688-1.01z" fill="#00e800"/><path d="m619.87 363.64c-1.021.18-2.04.39-3.05.63 1.01-.25 2.03-.45 3.05-.63z" fill="#fff"/><path d="m616.82 364.27c-.641.15-1.271.31-1.9.48.63-.18 1.26-.34 1.9-.48z" fill="#fff"/><path d="m614.92 364.75c-.59.16-1.17.33-1.75.51.58-.18 1.17-.36 1.75-.51z" fill="#fff"/><path d="m612.78 365.39c-.53.16-1.05.34-1.561.53.511-.19 1.031-.37 1.561-.53z" fill="#fff"/><path d="m611.15 365.94c-.53.19-1.061.38-1.58.59.52-.21 1.05-.41 1.58-.59z" fill="#fff"/><path d="m609.26 366.65c-.58.24-1.149.48-1.72.74.57-.26 1.14-.5 1.72-.74z" fill="#fff"/><path d="m607.54 367.39c-.57.25-1.12.52-1.68.79.55-.27 1.11-.54 1.68-.79z" fill="#fff"/><path d="m605.5 368.36c-.49.25-.98.51-1.46.77.48-.26.97-.52 1.46-.77z" fill="#fff"/><path d="m604.01 369.15c-.569.32-1.13.64-1.68.98.55-.34 1.11-.67 1.68-.98z" fill="#fff"/><path d="m602.33 370.13c-.561.34-1.11.69-1.66 1.06.54-.37 1.1-.73 1.66-1.06z" fill="#fff"/><path d="m600.67 371.19c-.54.36-1.08.74-1.61 1.13.53-.39 1.06-.77 1.61-1.13z" fill="#fff"/><path d="m599.06 372.32c-.489.36-.97.72-1.439 1.1.469-.38.949-.75 1.439-1.1z" fill="#fff"/><path d="m597.38 373.61c-.43.36-.87.72-1.29 1.1.42-.38.85-.74 1.29-1.1z" fill="#fff"/><path d="m595.97 444.99c9 .189 18.351 2.609 26.92 5.75 3.561 1.31 7.04 2.49 10.29 3.779 13.29 5.28 22.59 12.32 16.471 36.73-5.45 21.71-20.5 34.06-37.91 36.94-8.51 1.42-17.58.569-26.36-2.551-5.27-1.88-10.1-4.93-14.26-8.81h-.01c-13.841-12.92-20.03-35.08-8.67-54.11 8.129-13.618 20.459-18.018 33.529-17.728z" fill="#00e800"/><path d="m595.86 374.91c-.45.41-.9.82-1.33 1.25.43-.43.88-.85 1.33-1.25z" fill="#fff"/><path d="m594.53 376.16c-.48.46-.95.94-1.4 1.43.45-.49.92-.97 1.4-1.43z" fill="#fff"/><path d="m593.13 377.59c-.37.39-.729.8-1.08 1.21.34-.41.7-.82 1.08-1.21z" fill="#fff"/><path d="m592.05 378.8c-.16.18-.319.36-.46.54.15-.18.3-.36.46-.54z" fill="#fff"/><path d="m591.59 379.34c-.37.43-.72.88-1.07 1.33.35-.45.7-.9 1.07-1.33z" fill="#fff"/><path d="m529.64 584.01c.17.25.341.49.521.73.08.1.149.21.229.31.181.25.37.5.57.74.22.29.45.58.7.87.189.24.39.47.59.7 1.21 1.399 2.53 2.729 3.96 3.979.22.2.44.38.66.561.7.6 1.43 1.18 2.189 1.729.66.49 1.351.96 2.051 1.42.699.46 1.43.9 2.17 1.32 10.12 5.78 23.189 8.93 35.489 7.91l.061.66c22.84 24.04-10.42 63.47-40.89 65.59-6.601.46-13.07-.82-18.811-4.4-1.09-.68-2.18-1.39-3.26-2.14-.29-.2-.57-.4-.86-.61-.34-.229-.68-.47-1.01-.72-2.41-1.76-4.78-3.69-7.04-5.76-.33-.301-.66-.601-.979-.91-.12-.12-.25-.24-.37-.36-.46-.43-.91-.88-1.351-1.33-.45-.45-.899-.91-1.33-1.38-.38-.4-.75-.81-1.12-1.22-.34-.38-.68-.76-1-1.15-.069-.069-.13-.149-.189-.22-.4-.47-.8-.94-1.18-1.43-.051-.051-.091-.101-.131-.16-.319-.4-.64-.811-.949-1.221-.221-.289-.44-.59-.66-.899-.2-.26-.391-.53-.57-.8-.33-.46-.64-.91-.95-1.38-.05-.07-.1-.141-.13-.21-.39-.58-.76-1.171-1.12-1.771-.5-.82-.97-1.65-1.41-2.49-.21-.399-.42-.8-.609-1.2-.23-.449-.45-.899-.65-1.359-.2-.43-.39-.86-.569-1.3-.15-.351-.301-.7-.431-1.061-.13-.3-.24-.609-.35-.92-.13-.36-.26-.72-.38-1.09-.12-.36-.24-.72-.34-1.08-.101-.3-.19-.61-.271-.92-.05-.17-.1-.33-.14-.5-.101-.37-.19-.75-.28-1.13-.1-.42-.19-.83-.27-1.24-.03-.13-.051-.26-.07-.39-.08-.38-.141-.761-.2-1.15-.07-.41-.13-.82-.18-1.229-.04-.37-.08-.75-.11-1.12-.02-.101-.03-.2-.03-.3-.029-.261-.04-.521-.06-.79-.021-.271-.03-.53-.04-.801-.03-.6-.04-1.199-.03-1.81 0-.32.01-.64.03-.96.01-.39.03-.771.07-1.15 1.56-19.6 21.779-34.45 41.02-34.46h.01z" fill="#00e800"/><path d="m528.86 99.83c-.24-3.42-.86-6.36-2.08-8.5-.34-.59-.681-1.15-1.04-1.67-.33-.49-.66-.95-1.01-1.38-.11-.15-.23-.3-.36-.44-.23-.28-.47-.55-.72-.8-.12-.13-.24-.26-.37-.37-.13-.13-.25-.25-.38-.36-.25-.23-.5-.45-.75-.64-.131-.11-.261-.21-.391-.3-.13-.1-.26-.19-.38-.27-.13-.1-.26-.18-.39-.26-.13-.09-.271-.17-.4-.24-.13-.08-.26-.16-.39-.22-.13-.07-.26-.14-.38-.2-.311-.15-.62-.29-.931-.41 14.04-10.99 37.851-15.97 54.41-9.6 28.312 10.88 28.312 10.88 22.102 22.49-8.7 16.31-49.44-17.08-66.54 3.17z" fill="#00e800"/><path d="m450.69 693.06c-.011-.02-.011-.029-.021-.05-.12-.34-.24-.689-.35-1.04-.101-.3-.19-.609-.271-.91-.14-.439-.25-.88-.35-1.329-.08-.351-.16-.711-.22-1.07-.07-.36-.131-.72-.181-1.08-.01-.061-.02-.12-.03-.17-.229-1.7-.289-3.44-.149-5.21.11-1.29.31-2.601.62-3.931.24-1 .54-2.01.899-3.039.37-1.03.801-2.07 1.301-3.131.329-.699.699-1.42 1.1-2.14s.83-1.44 1.29-2.18c.2-.311.4-.63.61-.94.13-.2.26-.39.39-.59 8.25-12.11 23.81-24.34 40.479-22.37.08.12.15.23.24.351.03.069.08.14.13.21.301.47.62.92.95 1.38.18.27.37.54.57.8.21.3.439.6.66.899.319.41.63.82.949 1.221.04.06.08.109.131.16.39.489.779.96 1.18 1.43.06.07.12.15.189.22.32.391.66.771 1 1.15.37.41.74.819 1.12 1.22.431.47.88.93 1.33 1.38.44.45.891.9 1.351 1.33.12.12.25.24.37.36.319.3.649.609.979.91 2.26 2.069 4.63 4 7.04 5.76.34.25.67.49 1.01.72.29.21.57.42.86.61 1.08.75 2.17 1.46 3.26 2.14 5.74 3.58 12.21 4.86 18.811 4.4l.13 1.6c22.43 11.311 6.21 46.79-8.86 57.061-12.94 8.81-24.41 9.89-35.07 6.109-9.34-3.3-18.05-10.33-26.59-19.14-1.41-1.45-2.79-2.9-4.109-4.34-.851-.931-1.681-1.86-2.5-2.78-.03-.03-.051-.07-.08-.1-.79-.921-1.561-1.83-2.301-2.75-.579-.71-1.13-1.431-1.659-2.15-.17-.23-.341-.45-.5-.68-.71-.971-1.381-1.94-2-2.92-.15-.24-.301-.48-.45-.73-.74-1.21-1.41-2.43-2-3.66-.09-.2-.181-.39-.271-.58-.367-.801-.697-1.601-.987-2.411z" fill="#00e800"/><g fill="#fff"><path d="m540.86 521.16c.56-.351 1.12-.69 1.689-1.01-.569.32-1.129.66-1.689 1.01z"/><path d="m539.06 593.63c.66.49 1.341.96 2.051 1.42-.701-.46-1.391-.93-2.051-1.42z"/><path d="m536.21 591.34c.22.2.44.38.66.561-.22-.181-.44-.361-.66-.561z"/><path d="m535.47 525.36c-.229.22-.47.449-.7.68.23-.23.46-.46.7-.68z"/><path d="m531.66 586.66c.189.24.39.47.59.7-.2-.23-.4-.46-.59-.7z"/><path d="m530.96 585.79c.22.29.46.58.7.87-.25-.29-.48-.58-.7-.87z"/><path d="m530.39 585.05c.181.25.37.5.57.74-.2-.24-.39-.49-.57-.74z"/><path d="m529.64 584.01c.17.24.341.49.521.73-.181-.24-.351-.48-.521-.73z"/><path d="m529.37 583.62c.09.13.18.26.27.39h-.01c-.09-.13-.18-.26-.26-.39z"/><path d="m529.17 583.31c-.28-.39-.53-.779-.77-1.18.25.4.5.79.77 1.18z"/><path d="m527.51 580.63c.26.46.53.92.811 1.37-.291-.45-.561-.91-.811-1.37z"/><path d="m526.72 579.16c.25.49.521.979.79 1.47-.28-.48-.55-.97-.79-1.47z"/><path d="m525.99 577.66c.229.5.479 1 .729 1.5-.259-.49-.509-.99-.729-1.5z"/><path d="m525.32 576.14c.21.511.439 1.021.67 1.521-.24-.501-.47-1.011-.67-1.521z"/><path d="m524.71 574.6c.2.521.4 1.03.61 1.54-.22-.51-.42-1.02-.61-1.54z"/><path d="m525.74 89.66c-.33-.49-.67-.95-1.01-1.38.35.43.68.89 1.01 1.38z"/><path d="m524.18 573.1c.17.511.351 1 .53 1.5-.19-.5-.37-1-.53-1.5z"/><path d="m523.68 571.47c.13.45.271.91.42 1.36-.16-.45-.3-.9-.42-1.36z"/><path d="m523.65 87.04c.25.25.489.52.72.8-.24-.28-.48-.55-.72-.8z"/><path d="m523.25 569.88c.13.53.27 1.061.43 1.59-.16-.53-.3-1.05-.43-1.59z"/><path d="m523.65 87.04c-.131-.13-.25-.25-.37-.37.13.11.25.24.37.37z"/><path d="m522.9 86.31c.13.11.25.23.38.36-.13-.13-.25-.24-.38-.36z"/><path d="m522.56 566.67c.19 1.07.421 2.14.69 3.21-.27-1.06-.5-2.13-.69-3.21z"/><path d="m522.11 563.4c.06.55.12 1.09.199 1.63-.079-.54-.139-1.09-.199-1.63z"/><path d="m522.15 85.67c-.131-.1-.261-.2-.391-.3.131.09.261.19.391.3z"/><path d="m521.92 560.66c.01.399.03.79.061 1.189-.031-.399-.051-.789-.061-1.189z"/><path d="m521.76 85.37c-.12-.09-.25-.19-.38-.27.12.08.25.17.38.27z"/><path d="m521.38 85.1c-.13-.09-.26-.18-.39-.26.13.08.26.16.39.26z"/><path d="m520.59 84.6c-.13-.08-.26-.15-.39-.22.13.06.26.14.39.22z"/><path d="m520.2 84.38c-.13-.07-.26-.14-.38-.2.12.06.25.13.38.2z"/><path d="m518.58 83.66c-.14-.05-.28-.1-.41-.14.14.04.27.09.41.14z"/><path d="m517.34 83.29c.28.06.561.14.83.23-.28-.09-.55-.16-.83-.23z"/><path d="m515.01 663.38c.29.21.57.41.86.61-.29-.19-.57-.4-.86-.61z"/><path d="m515.22 82.98c-.14-.01-.29-.02-.43-.02.14 0 .29.01.43.02z"/><path d="m514 662.66c.33.25.67.49 1.01.72-.34-.23-.67-.47-1.01-.72z"/><path d="m505.98 655.99c.319.31.649.609.979.91-.329-.3-.659-.61-.979-.91z"/><path d="m504.26 654.3c.44.45.891.9 1.351 1.33-.461-.43-.911-.88-1.351-1.33z"/></g><path d="m505.02 176.25c-3.079-30.82-11.739-46.93-11.739-46.93s-.17.03-.49.1c-.14.03-.31.07-.521.12-1.5.35-4.59 1.14-8.8 2.54-.26.09-.529.18-.8.27-.72.24-1.47.51-2.24.79-.239.08-.479.17-.729.26-2.36.87-4.95 1.9-7.72 3.11-.431.19-.86.38-1.301.58-.8.35-1.6.72-2.42 1.11l-.96-2.44c-.03-.11-.06-.22-.1-.33-5.601-21.7 1.51-28.35 17.979-37.94.42-.24.84-.48 1.271-.73 7.95-4.57 18.83-14.09 28.34-13.8.14 0 .29.01.43.02.721.04 1.431.14 2.12.31.28.07.55.14.83.23.13.04.271.09.41.14.1.03.21.07.31.11.311.12.62.26.931.41.12.06.25.13.38.2s.26.14.39.22c.13.07.271.15.4.24.13.08.26.17.39.26.13.08.26.18.38.27.13.1.26.2.391.3.25.19.5.41.75.64.13.12.25.23.38.36.12.12.239.24.37.37.239.25.479.52.72.8.13.14.25.29.36.44.34.43.68.89 1.01 1.38.359.52.7 1.08 1.04 1.67 1.22 2.14 1.84 5.08 2.08 8.5.859 12.59-3.551 31.66-3.16 40.87.6 14.99-1.19 33.59-20.2 35.5z" fill="#00e800"/><path d="m502.93 652.92c.431.47.88.93 1.33 1.38-.45-.45-.9-.91-1.33-1.38z" fill="#fff"/><path d="m500.81 650.55c.32.391.66.771 1 1.15-.34-.38-.68-.76-1-1.15z" fill="#fff"/><path d="m529.63 584.01c-19.24.01-39.46 14.86-41.02 34.46 1.5-19.3 20.489-38.979 40.67-34.979.02.04.05.09.09.13.08.129.17.259.26.389z" fill="#fff"/><path d="m499.44 648.9c.38.489.779.96 1.18 1.43-.4-.47-.79-.94-1.18-1.43z" fill="#fff"/><path d="m498.36 647.52c.31.41.63.82.949 1.221-.319-.401-.629-.811-.949-1.221z" fill="#fff"/><path d="m497.7 646.62c.22.31.439.61.66.899-.22-.299-.45-.599-.66-.899z" fill="#fff"/><path d="m497.13 645.82c.18.27.37.54.57.8-.2-.26-.39-.53-.57-.8z" fill="#fff"/><path d="m496.18 644.44c.311.47.62.92.95 1.38-.33-.46-.65-.91-.95-1.38z" fill="#fff"/><path d="m450.69 693.06c.29.811.619 1.61.989 2.41.08.19.17.391.271.58.59 1.23 1.26 2.45 2 3.66.14.24.29.49.45.73.619.979 1.29 1.949 2 2.92.159.22.319.449.5.68.529.72 1.08 1.44 1.659 2.15.74.92 1.5 1.829 2.301 2.75.029.029.05.069.08.1.81.93 1.64 1.85 2.5 2.78 1.319 1.439 2.699 2.89 4.109 4.34 8.54 8.81 17.25 15.84 26.59 19.14 6.04 18.681-16.489 37.84-33.08 41.19-17.04 3.46-35.569-.17-46.1-15.141-.34-.489-.68-.979-.99-1.47-.24-.38-.48-.75-.7-1.13-.12-.18-.23-.36-.33-.54-15.85-27.17 1.68-64.78 32.64-65.65h.18c1.601.071 3.251.231 4.931.501z" fill="#00e800"/><path d="m494.93 642.46c.36.6.73 1.19 1.12 1.771-.09-.12-.16-.23-.24-.351-.3-.47-.6-.94-.88-1.42z" fill="#fff"/><path d="m577.73 369.23c26.279-54.65 44.6-102.44 66.079-148.7 21.48-46.26 54.53-90.87 54.53-90.87s44.601 118.96 0 272.61c-25.35 87.31-80.96 216.44-109.05 264.35-28.09 47.92-96.2 120.61-128.23 120.61-32.029 0-43.6-13.221-63.419-13.221-19.83 0-28.92-19-9.92-38 19.01-19 80.959-112.34 105.74-161.91 24.79-49.569 57.98-150.219 84.27-204.869zm-132.15 323.33c-32.32-1.18-49.09 37.75-32.64 65.65.1.18.21.36.33.54.22.38.45.75.7 1.13.31.49.65.98.99 1.47 10.53 14.971 29.06 18.601 46.1 15.141 16.591-3.351 39.12-22.51 33.08-41.19 10.66 3.78 22.13 2.7 35.07-6.109 15.07-10.271 31.29-45.75 8.86-57.061l-.13-1.6c30.47-2.12 63.729-41.55 40.89-65.59l-.061-.66c10.431-.86 20.301-4.721 27.351-12.53 11.88-13.16 25.64-50.4 5.75-62.81l-.13-.75c17.41-2.881 32.46-15.23 37.91-36.94 6.119-24.41-3.181-31.45-16.471-36.73 18.2-7.609 35.431-17.26 39.33-38.95.9-4.98 1.12-9.91.681-14.63-.03-.39-.07-.78-.12-1.16-.03-.3-.07-.59-.11-.88-.04-.33-.09-.66-.14-.99-.03-.18-.051-.35-.09-.53-.051-.34-.11-.69-.181-1.03-.05-.27-.1-.54-.16-.8-.069-.34-.14-.67-.22-1-.04-.2-.08-.39-.13-.57-.08-.33-.16-.65-.25-.97-.05-.2-.1-.39-.16-.58-.07-.26-.149-.52-.22-.78-.09-.27-.17-.54-.26-.81-.091-.29-.181-.57-.28-.85-.32-.93-.67-1.84-1.05-2.73-.261-.63-.54-1.25-.84-1.86-.15-.32-.311-.64-.471-.95-.47-.91-.97-1.8-1.5-2.67-1.31-2.13-2.819-4.12-4.52-5.95-.19-.21-.38-.41-.58-.61-.29-.3-.59-.6-.9-.9 42.16-4.87 49.4-73.57 15.05-96.56-46.619-31.21-96 49.9-59.239 86.51-.641.14-1.271.3-1.9.48-.58.15-1.17.33-1.75.51-.13.04-.26.09-.39.13-.53.16-1.05.34-1.561.53-.029 0-.05.01-.069.02-.53.18-1.061.38-1.58.59-.101.04-.2.08-.311.12-.58.24-1.149.48-1.72.74-.57.25-1.13.52-1.68.79-.12.06-.24.12-.36.18-.49.25-.98.51-1.46.77-.01.01-.021.02-.03.02-.569.31-1.13.64-1.68.98-.561.33-1.12.69-1.66 1.06-.55.36-1.08.74-1.61 1.13-.489.35-.97.72-1.439 1.1-.08.06-.16.13-.24.19-.439.36-.87.72-1.29 1.1-.08.06-.149.13-.229.2-.45.4-.9.82-1.33 1.25-.48.46-.95.94-1.4 1.43-.38.39-.74.8-1.08 1.21-.16.18-.31.36-.46.54-.37.43-.72.88-1.07 1.33-14.609 19.11-11.699 49.07 5.45 64.32-13.07-.291-25.4 4.109-33.53 17.729-11.36 19.03-5.171 41.19 8.67 54.11-11.23-2.63-20.86-1-28.561 3.32-.569.319-1.13.659-1.689 1.01-1.931 1.24-3.73 2.64-5.391 4.2-.239.22-.47.449-.7.68-8.819 8.71-13.439 21.729-12.85 34.62.01.399.03.79.061 1.189.029.521.069 1.03.13 1.551.06.54.12 1.09.199 1.63.07.55.15 1.1.25 1.64.19 1.08.421 2.15.69 3.21.13.54.27 1.061.43 1.59.12.46.261.91.42 1.36.021.09.051.18.08.27.16.5.34 1 .53 1.5.19.521.39 1.03.61 1.54.199.511.43 1.021.67 1.521.22.51.47 1.01.729 1.5.24.5.511.99.79 1.47.25.46.521.92.811 1.37.02.04.04.09.08.13.239.4.489.79.77 1.18.021.061.061.12.11.181-20.181-4-39.17 15.68-40.67 34.979-.04.38-.061.761-.07 1.15-.021.32-.03.64-.03.96-.01.61 0 1.21.03 1.81.01.271.02.54.04.801.02.27.04.529.06.79 0 .1.011.199.03.3.03.38.07.75.11 1.12.05.409.109.819.18 1.229.06.39.12.771.2 1.15.02.13.04.26.07.39.079.42.17.83.27 1.24.09.38.18.75.28 1.13.04.17.09.33.14.5.08.31.17.61.271.92.1.36.22.72.34 1.08.12.37.25.729.38 1.09.109.311.22.62.35.92.13.36.28.71.431 1.061.18.439.369.87.569 1.3.2.46.42.91.65 1.359.189.4.39.801.609 1.2.44.84.91 1.67 1.41 2.49-15.64-3.2-31.75 12.17-39.6 23.79-.13.2-.26.39-.39.59-.21.32-.421.63-.61.94-.46.739-.89 1.46-1.29 2.18s-.771 1.44-1.1 2.14c-.5 1.061-.931 2.101-1.301 3.131-.37 1.029-.67 2.039-.899 3.039-.32 1.33-.521 2.641-.62 3.931-.14 1.77-.09 3.51.149 5.21.011.05.021.109.03.17.04.36.101.72.181 1.08.06.359.13.71.22 1.07.1.449.21.89.35 1.329.08.311.17.61.271.91.08.25.16.511.25.761-1.641-.16-3.24-.221-4.811-.171-.059-.001-.119-.001-.179-.001z" fill="#33a02c"/><path d="m492.91 638.77c.189.4.399.801.609 1.2-.219-.4-.419-.8-.609-1.2z" fill="#fff"/><path d="m505.02 176.25c3.431 34.26-.05 86.71-30.02 155.43-56.91 130.54-96.24 213.44-116.4 249.03-20.16 35.58-64.29 109.3-117.17 126.95-52.89 17.63-108.77-4.04-121.11 4.24-12.34 8.29-40.23 11.88 22.62-56.521 62.85-68.399 126.85-167.889 179.06-282.859 52.21-114.98 74.83-171.5 104.21-203.63.86-.94 1.73-1.86 2.6-2.76.44-.45.881-.9 1.32-1.33.21-.21.41-.42.62-.61.66-.66 1.32-1.3 1.99-1.93 1.319-1.25 2.649-2.45 4-3.61.439-.39.89-.77 1.34-1.15 1.82-1.55 3.66-3.01 5.5-4.4.86-.65 1.72-1.29 2.58-1.9 2.82-2.03 5.63-3.89 8.39-5.58.37-.24.74-.46 1.11-.68 1.76-1.06 3.49-2.05 5.189-2.97.42-.23.851-.46 1.271-.69s.84-.45 1.26-.66c.41-.21.83-.43 1.24-.64 1.149-.58 2.28-1.14 3.38-1.66.09-.04.17-.08.26-.12.82-.39 1.62-.76 2.42-1.11.431-.2.87-.39 1.301-.58 2.77-1.21 5.359-2.24 7.72-3.11.25-.09.49-.18.729-.26.771-.28 1.521-.55 2.24-.79.271-.09.54-.18.8-.27 4.21-1.4 7.3-2.19 8.8-2.54.2-.04.381-.08.521-.12.32-.07.49-.1.49-.1s8.659 16.11 11.739 46.93z" fill="#00e800"/><path d="m492.27 129.54c.211-.05.381-.09.521-.12-.141.04-.321.08-.521.12z" fill="#fff"/><path d="m491.69 636.11c.18.439.369.87.569 1.3-.199-.43-.389-.86-.569-1.3z" fill="#fff"/><path d="m495.81 643.88c-16.67-1.97-32.229 10.26-40.479 22.37 7.85-11.62 23.96-26.99 39.6-23.79.279.48.579.95.879 1.42z" fill="#fff"/><path d="m491.26 635.05c.13.36.28.71.431 1.061-.151-.351-.301-.701-.431-1.061z" fill="#fff"/><path d="m490.53 633.04c.12.37.25.729.38 1.09-.13-.36-.26-.72-.38-1.09z" fill="#fff"/><path d="m489.92 631.04c.08.31.17.62.271.92-.101-.31-.191-.61-.271-.92z" fill="#fff"/><path d="m489.5 629.41c.09.38.18.76.28 1.13-.1-.38-.19-.75-.28-1.13z" fill="#fff"/><path d="m489.23 628.17c.079.41.17.82.27 1.24-.1-.41-.19-.82-.27-1.24z" fill="#fff"/><path d="m488.96 626.63c.06.39.12.771.2 1.15-.08-.38-.14-.76-.2-1.15z" fill="#fff"/><path d="m488.67 624.28c.03.37.07.75.11 1.12-.04-.37-.08-.74-.11-1.12z" fill="#fff"/><path d="m488.58 623.19c.02.27.03.529.06.79-.02-.26-.04-.52-.06-.79z" fill="#fff"/><path d="m488.54 622.39c.01.271.02.53.04.801-.02-.261-.03-.531-.04-.801z" fill="#fff"/><path d="m488.54 619.62c-.021.32-.03.64-.03.96 0-.32.01-.64.03-.96z" fill="#fff"/><path d="m483.47 132.08c-.26.09-.529.18-.8.27.27-.09.54-.18.8-.27z" fill="#fff"/><path d="m480.43 133.14c-.239.08-.479.17-.729.26.249-.09.489-.18.729-.26z" fill="#fff"/><path d="m471.98 136.51c-.431.19-.87.38-1.301.58.441-.2.871-.39 1.301-.58z" fill="#fff"/><path d="m468.26 138.2c-.09.04-.17.08-.26.12-.29-.99-.56-1.96-.8-2.89.04.11.069.22.1.33z" fill="#fff"/><path d="m485.18 97.49c-16.47 9.59-23.58 16.24-17.979 37.94-6.831-23.73.849-28.11 17.979-37.94z" fill="#fff"/><path d="m464.62 139.98c-.41.21-.83.43-1.24.64.42-.22.83-.43 1.24-.64z" fill="#00e800"/><path d="m463.44 711.82c-.86-.931-1.69-1.851-2.5-2.78.82.92 1.65 1.85 2.5 2.78z" fill="#fff"/><path d="m462.12 141.28c-.42.23-.851.46-1.271.69.431-.24.851-.47 1.271-.69z" fill="#00e800"/><path d="m460.86 708.94c-.801-.921-1.561-1.83-2.301-2.75.741.92 1.511 1.83 2.301 2.75z" fill="#fff"/><path d="m456.4 703.36c.159.229.33.449.5.68-.18-.23-.34-.46-.5-.68z" fill="#fff"/><path d="m455.66 144.94c-.37.22-.74.44-1.11.68.37-.24.74-.46 1.11-.68z" fill="#00e800"/><path d="m454.94 666.84c-.21.311-.41.63-.61.94.19-.31.4-.62.61-.94z" fill="#fff"/><path d="m453.95 699.71c.149.25.3.49.45.73-.16-.24-.31-.49-.45-.73z" fill="#fff"/><path d="m453.04 669.96c-.4.72-.771 1.44-1.1 2.14.33-.7.7-1.42 1.1-2.14z" fill="#fff"/><path d="m451.68 695.47c.09.19.181.38.271.58-.101-.19-.191-.39-.271-.58z" fill="#fff"/><path d="m450.67 693.01c-.03-.09-.07-.189-.1-.279-.09-.25-.17-.511-.25-.761.11.35.23.7.35 1.04z" fill="#fff"/><path d="m450.57 692.73c.029.09.069.189.1.279.01.021.01.03.021.05-1.681-.27-3.33-.43-4.931-.5 1.57-.049 3.17.011 4.81.171z" fill="#fff"/><path d="m450.05 691.06c.08.301.17.61.271.91-.101-.3-.191-.6-.271-.91z" fill="#fff"/><path d="m450.64 675.23c-.359 1.029-.659 2.039-.899 3.039.229-.999.529-2.009.899-3.039z" fill="#fff"/><path d="m449.48 688.66c.06.359.14.72.22 1.07-.09-.36-.16-.71-.22-1.07z" fill="#fff"/><path d="m449.3 687.58c.05.36.11.72.181 1.08-.081-.36-.141-.72-.181-1.08z" fill="#fff"/><path d="m449.74 678.27c-.311 1.33-.51 2.641-.62 3.931.1-1.291.3-2.601.62-3.931z" fill="#fff"/><path d="m449.12 682.2c-.14 1.77-.08 3.51.149 5.21-.239-1.7-.289-3.44-.149-5.21z" fill="#fff"/><path d="m443.58 153.1c.86-.66 1.72-1.29 2.58-1.9-.86.61-1.72 1.25-2.58 1.9z" fill="#fff"/><path d="m438.08 157.5c-.45.38-.9.76-1.34 1.15.44-.4.89-.78 1.34-1.15z" fill="#fff"/><path d="m430.75 164.19c.66-.66 1.33-1.3 1.99-1.93-.67.63-1.33 1.27-1.99 1.93z" fill="#fff"/><path d="m430.13 164.8c-.439.43-.88.88-1.32 1.33.44-.45.88-.9 1.32-1.33z" fill="#00e800"/><path d="m413.27 758.75c.22.38.46.75.7 1.13-.25-.38-.48-.75-.7-1.13z" fill="#fff"/><path d="m445.58 692.56c-30.96.87-48.49 38.48-32.64 65.65-16.45-27.9.32-66.83 32.64-65.65z" fill="#fff"/><path d="m450.7 693.06h-.01c-1.681-.27-3.33-.43-4.931-.5-.06 0-.12 0-.18 0-32.32-1.18-49.09 37.75-32.64 65.65.1.18.21.36.33.54.22.38.45.75.7 1.13.31.49.65.98.99 1.47 10.53 14.971 29.06 18.601 46.1 15.141 16.591-3.351 39.12-22.51 33.08-41.19-.029-.13-.08-.25-.12-.38" fill="none" stroke="#000" stroke-width="19.8262"/><path d="m495.81 643.88c-16.67-1.97-32.229 10.26-40.479 22.37-.13.2-.26.39-.39.59-.21.311-.41.63-.61.94-.46.739-.89 1.46-1.29 2.18s-.771 1.44-1.1 2.14c-.5 1.061-.931 2.101-1.301 3.131-.359 1.029-.659 2.039-.899 3.039-.311 1.33-.51 2.641-.62 3.931-.14 1.77-.08 3.51.149 5.21.011.05.021.109.03.17.05.36.11.72.181 1.08.06.359.14.72.22 1.07.1.449.21.89.35 1.329.08.301.17.61.271.91.109.351.229.7.35 1.04.01.021.01.03.021.05.29.811.619 1.61.989 2.41.09.19.181.38.271.58.59 1.23 1.26 2.45 2 3.66.149.25.3.49.45.73.619.979 1.29 1.949 2 2.92.159.229.33.449.5.68.529.72 1.08 1.44 1.659 2.15.74.92 1.5 1.829 2.301 2.75.029.029.05.069.08.1.81.93 1.64 1.85 2.5 2.78 1.319 1.439 2.699 2.89 4.109 4.34 8.54 8.81 17.25 15.84 26.59 19.14 10.66 3.78 22.13 2.7 35.07-6.109 15.07-10.271 31.29-45.75 8.86-57.061" fill="none" stroke="#000" stroke-width="19.8262"/><path d="m529.63 584.01c-19.24.01-39.46 14.86-41.02 34.46-.04.38-.061.761-.07 1.15-.021.32-.03.64-.03.96-.01.61 0 1.21.03 1.81.01.271.02.54.04.801.02.27.03.529.06.79 0 .1.011.199.03.3.03.37.07.75.11 1.12.05.409.109.819.18 1.229.06.39.12.771.2 1.15.02.13.04.26.07.39.079.42.17.83.27 1.24.09.38.18.75.28 1.13.04.17.09.33.14.5.08.31.17.61.271.92.1.36.22.72.34 1.08.12.37.25.729.38 1.09.109.311.22.62.35.92.13.36.28.71.431 1.061.18.439.369.87.569 1.3.2.46.42.91.65 1.359.189.4.39.801.609 1.2.44.84.91 1.67 1.41 2.49.28.48.58.95.88 1.42.08.12.15.23.24.351.03.069.08.14.13.21.301.47.62.92.95 1.38.18.27.37.54.57.8.21.3.439.6.66.899.31.41.63.82.949 1.221.04.06.08.109.131.16.38.489.779.96 1.18 1.43.06.07.12.15.189.22.32.391.66.771 1 1.15.37.41.74.819 1.12 1.22.431.47.88.93 1.33 1.38.44.45.891.9 1.351 1.33.12.12.25.24.37.36.319.3.649.609.979.91 2.26 2.069 4.63 4 7.04 5.76.34.25.67.49 1.01.72.29.21.57.41.86.61 1.08.75 2.17 1.46 3.26 2.14 5.74 3.58 12.21 4.86 18.811 4.4 30.47-2.12 63.729-41.55 40.89-65.59" fill="none" stroke="#000" stroke-width="19.8262"/><path d="m571.11 516.83c-11.23-2.63-20.86-1-28.561 3.32-.569.319-1.13.659-1.689 1.01-1.931 1.24-3.73 2.64-5.391 4.2-.229.22-.47.449-.7.68-8.819 8.71-13.439 21.729-12.85 34.62.01.399.03.79.061 1.189.029.521.069 1.03.13 1.551.06.54.12 1.09.199 1.63.07.55.15 1.1.25 1.64.19 1.08.421 2.15.69 3.21.13.54.27 1.061.43 1.59.12.46.261.91.42 1.36.021.09.051.18.08.27.16.5.34 1 .53 1.5.19.521.39 1.03.61 1.54.199.511.43 1.021.67 1.521.22.51.47 1.01.729 1.5.24.5.511.99.79 1.47.25.46.521.92.811 1.37.02.04.04.09.08.13.239.4.489.79.77 1.18.021.061.061.12.11.181.02.04.05.09.09.13.08.13.17.26.26.39h.01c.17.24.341.49.521.73.08.1.149.21.229.31.181.25.37.5.57.74.22.29.46.58.7.87.189.24.39.47.59.7 1.21 1.399 2.53 2.729 3.96 3.979.22.2.44.38.66.561.7.6 1.43 1.18 2.189 1.729.66.49 1.351.96 2.051 1.42.699.46 1.43.9 2.17 1.32 10.12 5.78 23.189 8.93 35.489 7.91 10.431-.86 20.301-4.721 27.351-12.53 11.88-13.16 25.64-50.4 5.75-62.81" fill="none" stroke="#000" stroke-width="19.8262"/><path d="m633.18 454.52c-3.25-1.289-6.729-2.47-10.29-3.779-8.569-3.141-17.92-5.561-26.92-5.75-13.07-.291-25.4 4.109-33.53 17.729-11.36 19.03-5.171 41.19 8.67 54.11h.01c4.16 3.88 8.99 6.93 14.26 8.81 8.78 3.12 17.851 3.971 26.36 2.551 17.41-2.881 32.46-15.23 37.91-36.94 6.12-24.411-3.18-31.451-16.47-36.731z" fill="none" stroke="#000" stroke-width="19.8262"/><path d="m597.55 446.33c-.54-.43-1.069-.88-1.58-1.34-17.149-15.25-20.06-45.21-5.45-64.32.351-.45.7-.9 1.07-1.33.15-.18.3-.36.46-.54.351-.41.71-.82 1.08-1.21.45-.49.92-.97 1.4-1.43.43-.43.88-.84 1.33-1.25.08-.07.149-.14.229-.2.42-.38.86-.74 1.29-1.1.08-.06.16-.13.24-.19.47-.38.95-.74 1.439-1.1.53-.39 1.07-.77 1.61-1.13.55-.37 1.1-.72 1.66-1.06.55-.34 1.11-.66 1.68-.98.01 0 .021-.01.03-.02.479-.26.97-.52 1.46-.77.12-.06.24-.12.36-.18.56-.27 1.109-.54 1.68-.79.57-.26 1.14-.5 1.72-.74.11-.04.21-.08.311-.12.52-.21 1.05-.4 1.58-.59.02-.01.04-.02.069-.02.511-.19 1.03-.37 1.561-.53.13-.04.26-.09.39-.13.58-.18 1.16-.35 1.75-.51.63-.17 1.26-.33 1.9-.48 1.01-.24 2.029-.45 3.05-.63.03 0 .05-.01.08-.01.53-.09 1.05-.18 1.58-.25.479-.07.96-.14 1.45-.19.42-.05.84-.09 1.27-.14.26-.02.51-.04.77-.06.28-.03.561-.05.841-.06l1.02-.06c.39-.02.79-.03 1.18-.04 7.04-.17 14.011.99 20.21 3.4.62.24 1.23.49 1.83.76.511.23 1.021.47 1.521.71.34.18.68.35 1.02.54.2.1.4.21.591.32.319.17.619.35.93.54.24.13.479.28.71.43.2.12.399.24.59.38.33.2.65.42.97.65.24.16.48.33.71.51.221.15.431.31.63.47.221.16.44.33.65.5.32.25.63.51.93.78.141.11.29.24.431.37.35.3.689.61 1.02.93.07.07.141.13.21.2.311.3.61.6.9.9.2.2.39.4.58.61 1.7 1.83 3.21 3.82 4.52 5.95.53.87 1.03 1.76 1.5 2.67.16.31.32.63.471.95.3.61.579 1.23.84 1.86.38.89.729 1.8 1.05 2.73.1.28.189.56.28.85.09.27.17.54.26.81.07.26.149.52.22.78.061.19.11.38.16.58.09.32.17.64.25.97.05.18.09.37.13.57.08.33.15.66.22 1 .061.26.11.53.16.8.07.34.13.69.181 1.03.039.18.06.35.09.53.05.33.1.66.14.99.04.29.08.58.11.88.05.38.09.77.12 1.16.439 4.72.22 9.65-.681 14.63-3.899 21.69-21.13 31.34-39.33 38.95-.489.211-.979.421-1.479.62" fill="none" stroke="#000" stroke-width="19.8262"/><path d="m616.82 364.27c-36.761-36.61 12.62-117.72 59.239-86.51 34.351 22.99 27.11 91.69-15.05 96.56" fill="none" stroke="#000" stroke-width="19.8262"/><path d="m698.34 129.66s44.601 118.96 0 272.61c-25.35 87.31-80.96 216.44-109.05 264.35-28.09 47.92-96.2 120.61-128.23 120.61-32.029 0-43.6-13.221-63.419-13.221-19.83 0-28.92-19-9.92-38 19.01-19 80.959-112.34 105.74-161.91 24.79-49.569 57.98-150.22 84.271-204.87 26.279-54.65 44.6-102.44 66.079-148.7 21.479-46.259 54.529-90.869 54.529-90.869z" fill="none" stroke="#000" stroke-width="19.8262"/><path d="m468 138.32c.09-.04.17-.08.26-.12.82-.39 1.62-.76 2.42-1.11.431-.2.87-.39 1.301-.58 2.77-1.21 5.359-2.24 7.72-3.11.25-.09.49-.18.729-.26.771-.28 1.521-.55 2.24-.79.271-.09.54-.18.8-.27 4.21-1.4 7.3-2.19 8.8-2.54.2-.04.381-.08.521-.12.32-.07.49-.1.49-.1s8.66 16.11 11.739 46.93c3.431 34.26-.05 86.71-30.02 155.43-56.91 130.54-96.24 213.44-116.4 249.03-20.16 35.58-64.29 109.3-117.17 126.95-52.89 17.63-108.77-4.04-121.11 4.24-12.34 8.29-40.23 11.88 22.62-56.521 62.85-68.399 126.85-167.889 179.06-282.859 52.21-114.98 74.83-171.5 104.21-203.63.86-.94 1.73-1.86 2.6-2.76.44-.45.881-.9 1.32-1.33.21-.21.41-.42.62-.61.66-.66 1.32-1.3 1.99-1.93 1.319-1.25 2.649-2.45 4-3.61.439-.39.89-.77 1.34-1.15 1.82-1.55 3.66-3.01 5.5-4.4.86-.65 1.72-1.29 2.58-1.9 2.82-2.03 5.63-3.89 8.39-5.58.37-.24.74-.46 1.11-.68 1.76-1.06 3.49-2.05 5.189-2.97.431-.24.851-.47 1.271-.69.42-.23.84-.45 1.26-.66.42-.22.83-.43 1.24-.64 1.15-.58 2.28-1.14 3.38-1.66z" fill="none" stroke="#000" stroke-width="19.8262"/><path d="m468 138.32c-.29-.99-.56-1.96-.8-2.89-5.601-21.7 1.51-28.35 17.979-37.94.42-.24.84-.48 1.271-.73 7.95-4.57 18.83-14.09 28.34-13.8.14 0 .29.01.43.02.721.04 1.431.14 2.12.31.28.06.561.14.83.23.14.04.271.09.41.14.1.03.21.07.31.11.311.12.62.26.931.41.12.06.25.13.38.2.13.06.26.14.39.22.13.07.271.15.4.24.13.08.26.16.39.26.12.08.25.17.38.27.13.09.26.19.391.3.25.19.5.41.75.64.13.11.25.23.38.36.13.11.25.24.37.37.25.25.489.52.72.8.13.14.25.29.36.44.35.43.68.89 1.01 1.38.359.52.7 1.08 1.04 1.67 1.22 2.14 1.84 5.08 2.08 8.5.859 12.59-3.551 31.66-3.16 40.87.6 14.99-1.19 33.59-20.2 35.5" fill="none" stroke="#000" stroke-width="19.8262"/><path d="m518.89 83.77c14.04-10.99 37.851-15.97 54.41-9.6 28.31 10.88 28.31 10.88 22.1 22.49-8.7 16.31-49.44-17.08-66.54 3.17-.061.06-.12.13-.17.19" fill="none" stroke="#000" stroke-width="19.8262"/><path d="m0 0h850.394v850.394h-850.394z" fill="none"/></svg>