<svg enable-background="new 0 0 850.394 850.394" height="850.394" viewBox="0 0 850.394 850.394" width="850.394" xmlns="http://www.w3.org/2000/svg"><path d="m532.148 159.511v456.489h-368.141v-52.003-404.486h323.21z" fill="#fff"/><path d="m487.217 107.508v52.003h-323.21v404.486h-44.931v-47.107-409.382h322.675z" fill="#fff"/><path d="m441.751 60.4v47.108h-322.675v409.382h-45.466v-456.49z" fill="#fff"/><g fill="none"><path d="m441.751 107.508h45.466v52.003" stroke="#000" stroke-width="14"/><path d="m119.076 516.89v-409.382h322.675" stroke="#000" stroke-width="14"/><path d="m119.076 516.89h-45.466v-456.49h368.141v47.108" stroke="#000" stroke-width="14"/><path d="m164.007 563.997h-44.931v-47.107" stroke="#000" stroke-width="14"/><path d="m164.007 563.997v-404.486h323.21" stroke="#000" stroke-width="14"/><path d="m487.217 159.511h44.931v456.489h-368.141v-52.003" stroke="#000" stroke-width="14"/><path d="m0 0h850.394v850.394h-850.394z"/></g><path d="m595.159 648.487c-3.447 3.745-9.6 3.684-13.741-.13-4.147-3.819-4.717-9.945-1.269-13.689 3.453-3.751 9.604-3.689 13.753.13 4.142 3.812 4.711 9.938 1.257 13.689z" fill="#c8c8c8"/><path d="m390.07 425.835-51-60.61 8.242-8.839 64.958 46.083c-1.735 4.485-4.581 9.094-8.434 13.279-4.218 4.582-9.022 7.995-13.75 10.069z" fill="#c8c8c8"/><path d="m556.628 595.016-.924-.851 1.131-1.228c7.548.362 17.055-4.116 24.652-12.369 7.792-8.463 11.466-18.599 10.205-26.151l1.262-1.37 1.302 1.198s22.655 20.858 47.375 43.618c24.721 22.76 93.294 93.981 106.426 106.072 7.651 7.044 6.393 14.122 3.997 18.802l.007.006c-1.705 3.345-3.991 5.467-3.991 5.467l-1.775 1.929-1.837 1.895-1.774 1.929s-1.983 2.527-5.266 4.512c-3.834 2.335-9.435 3.938-15.729-.036-1.048-.667-2.113-1.487-3.192-2.48-13.132-12.091-89.771-74.564-114.492-97.324-24.715-22.755-47.377-43.619-47.377-43.619z" fill="#0b00ea"/><path d="m591.692 554.417c1.261 7.553-2.413 17.688-10.205 26.151-7.598 8.253-17.104 12.731-24.652 12.369l-1.131 1.228-85.593-78.805-70.615-78.325-9.427-11.2.017-.019c4.728-2.074 9.531-5.487 13.75-10.069 3.854-4.185 6.699-8.794 8.434-13.279l11.588 8.218 83.886 63.91 85.209 78.451z" fill="#0b00ea"/><path d="m748.069 728.21s2.286-2.122 3.991-5.467c.291.269 8.022 7.387 15.352 14.134 7.465 6.873.633 15.326.633 15.326s-7.762 7.323-15.227.45c-7.472-6.879-15.401-14.18-15.401-14.18 3.282-1.984 5.266-4.512 5.266-4.512l1.774-1.929 1.837-1.895z" fill="#0b00ea"/><path d="m737.417 738.474s7.93 7.301 15.401 14.18c7.465 6.873 15.227-.45 15.227-.45s6.832-8.453-.633-15.326c-7.329-6.747-15.061-13.865-15.352-14.134" fill="none" stroke="#000" stroke-width="16.7993"/><path d="m412.271 402.468-64.958-46.083-8.242 8.839 51 60.61 9.427 11.2 70.615 78.325 85.593 78.805.924.851s22.662 20.864 47.375 43.617c24.721 22.76 101.36 85.233 114.492 97.324 1.079.993 2.145 1.813 3.192 2.48 6.295 3.975 11.896 2.371 15.729.036 3.282-1.984 5.266-4.512 5.266-4.512l1.774-1.929 1.837-1.895 1.775-1.929s2.286-2.122 3.991-5.467l-.007-.006c2.396-4.68 3.654-11.758-3.997-18.802-13.132-12.091-81.705-83.313-106.426-106.072-24.72-22.76-47.375-43.618-47.375-43.618l-1.302-1.198-85.209-78.451-83.886-63.91z" fill="none" stroke="#000" stroke-width="16.7993"/><path d="m591.692 554.417c1.261 7.553-2.413 17.688-10.205 26.151-7.598 8.253-17.104 12.731-24.652 12.369" fill="none" stroke="#000" stroke-width="16.7993"/><path d="m335.115 361.022-5.896-5.429c-3.615-3.328-4.863-7.857-2.785-10.114 1.039-1.128 2.707-1.472 4.57-1.119 1.87.358 3.929 1.406 5.733 3.067l5.896 5.429" fill="none" stroke="#000" stroke-width="11.1995"/><path d="m412.325 402.335c-.016.042-.038.091-.054.133-1.735 4.485-4.581 9.094-8.434 13.279-4.218 4.582-9.022 7.995-13.75 10.069" fill="none" stroke="#000" stroke-width="16.7993"/><path d="m581.418 648.357c-4.147-3.819-4.717-9.945-1.269-13.689 3.453-3.751 9.604-3.689 13.753.13 4.142 3.813 4.711 9.938 1.257 13.689-3.447 3.745-9.599 3.684-13.741-.13z" fill="none" stroke="#000" stroke-width="16.7993"/><path d="m721.722 738.4s-.012.012-.034.037c-.832.94-16.457 18.036-39.323 1.302-23.5-17.191-87.205-91.252-87.205-91.252" fill="none" stroke="#000" stroke-width="16.7993"/></svg>