<svg enable-background="new 0 0 850.394 850.394" height="850.394" viewBox="0 0 850.394 850.394" width="850.394" xmlns="http://www.w3.org/2000/svg"><path d="m532.148 159.511v456.489h-368.141v-52.003-404.486h323.21z" fill="#fff"/><path d="m487.217 107.508v52.003h-323.21v404.486h-44.931v-47.107-409.382h322.675z" fill="#fff"/><path d="m441.751 60.4v47.108h-322.675v409.382h-45.466v-456.49z" fill="#fff"/><g fill="none"><path d="m441.751 107.508h45.466v52.003" stroke="#000" stroke-width="14"/><path d="m119.076 516.89v-409.382h322.675" stroke="#000" stroke-width="14"/><path d="m119.076 516.89h-45.466v-456.49h368.141v47.108" stroke="#000" stroke-width="14"/><path d="m164.007 563.997h-44.931v-47.107" stroke="#000" stroke-width="14"/><path d="m164.007 563.997v-404.486h323.21" stroke="#000" stroke-width="14"/><path d="m487.217 159.511h44.931v456.489h-368.141v-52.003" stroke="#000" stroke-width="14"/><path d="m0 0h850.394v850.394h-850.394z"/></g><path d="m708.968 724.207-330.929-348.983 39.675-37.622 322.871 340.484 8.058 8.498z" fill="#fbee34"/><path d="m719.134 700.555h62.011v54.677h-62.011z" fill="#c8c8c8" transform="matrix(.6881 .7256 -.7256 .6881 762.1606 -317.2828)"/><path d="m378.039 375.224-20.132-44.046 17.426-16.523 42.381 22.947z" fill="#ffeec8"/><path d="m357.907 331.178-15.765-34.492 33.191 17.969z" fill="#fff"/><path d="m378.039 375.224 39.675-37.622 322.871 340.484 8.058 8.498 42.669 44.997-39.675 37.623-42.669-44.997z" fill="none" stroke="#000" stroke-width="17.5775"/><path d="m708.968 724.207 39.675-37.623" fill="none" stroke="#000" stroke-width="17.5775"/><path d="m417.714 337.602-42.381-22.947-33.191-17.969 15.765 34.492 20.132 44.046" fill="none" stroke="#000" stroke-width="17.5775"/><path d="m375.333 314.655-17.426 16.523" fill="none" stroke="#000" stroke-width="16.0541"/></svg>