<svg enable-background="new 0 0 850.394 850.394" height="850.394" viewBox="0 0 850.394 850.394" width="850.394" xmlns="http://www.w3.org/2000/svg"><path d="m452.31 139.5 1.04 2.64-25.93 14.83-1.8-2.37-7.09-43.97z" fill="#787878"/><path d="m401.03 169.04 1.06 2.63-25.85 14.98-1.81-2.36-7.33-43.93z" fill="#787878"/><path d="m346.88 194.89.94 2.68-26.46 13.89-1.7-2.44-5.49-44.2z" fill="#787878"/><path d="m293.84 220.25.92 2.68-26.6 13.61-1.68-2.45-5.04-44.25z" fill="#787878"/><path d="m245.31 249.72.92 2.69-26.55 13.7-1.69-2.45-5.18-44.24z" fill="#787878"/><path d="m190.98 273.51.89 2.69-26.71 13.37-1.67-2.47-4.63-44.3z" fill="#787878"/><path d="m143.04 299.79.8 2.72-27.14 12.47-1.59-2.52-3.15-44.42z" fill="#787878"/><path d="m464.11 766.89v.01l-34.54 12.38-10.93-30.47 34.54-12.38z" fill="#00e800"/><path d="m749.03 639.27 5.38 15.03-19.34 15.91-3.01.61-10.93-30.46 2.87-1.48z" fill="#00e800"/><path d="m772.25 639.63-17.84 14.67-5.38-15.03z" fill="#00e800"/><path d="m772.25 573.17-17.84 14.67-5.38-15.03z" fill="#0b00ea"/><path d="m749.03 572.81 5.38 15.03-19.34 15.91-3.01.61-10.93-30.47 2.87-1.47z" fill="#0b00ea"/><path d="m425.189 673.042h32.371v36.695h-32.371z" fill="#0b00ea" transform="matrix(-.3377 -.9413 .9413 -.3377 -60.3682 1340.3015)"/><path d="m721.13 640.36 10.93 30.46-261.42 93.74-6.53 2.34v-.01l-10.93-30.46z" fill="#fff400"/><path d="m721.13 573.89 10.93 30.47-261.42 93.73-6.53 2.34-10.93-30.47z" fill="#fff400"/><path d="m193.2 409.94-26.78 13.28-49.72-108.24 27.14-12.47z" fill="#fff400"/><path d="m191.87 276.2 53.88 107.68-26.76 13.28-53.83-107.59z" fill="#fff400"/><path d="m246.23 252.41 53.91 104.5-26.77 13.28-53.69-104.08z" fill="#fff400"/><path d="m294.76 222.93 55.78 108.99-26.77 13.28-55.61-108.66z" fill="#fff400"/><path d="m347.82 197.57 56.5 107.68-26.77 13.28-56.19-107.07z" fill="#fff400"/><path d="m402.09 171.67 60.61 104.63-26.83 13.3-59.63-102.95z" fill="#fff400"/><path d="m453.35 142.14 61.83 108.14-26.81 13.29-60.95-106.6z" fill="#fff400"/><path d="m454.76 91.97 84.45 146.39-24.03 11.92-61.83-108.14-1.04-2.64-33.78-28.87 7.09 43.97 1.8 2.37 60.95 106.6-25.67 12.73-60.61-104.63-1.06-2.63-33.93-28.68 7.33 43.93 1.81 2.36 59.63 102.95-31.55 15.65-56.5-107.68-.94-2.68-32.71-30.07 5.49 44.2 1.7 2.44 56.19 107.07-27.01 13.39-55.78-108.99-.92-2.68-32.4-30.41 5.04 44.25 1.68 2.45 55.61 108.66-23.63 11.71-53.91-104.5-.92-2.69-32.5-30.3 5.18 44.24 1.69 2.45 53.69 104.08-27.62 13.69-53.88-107.68-.89-2.69-32.12-30.71 4.63 44.3 1.67 2.47 53.83 107.59-25.79 12.78-49.36-107.43-.8-2.72-31.08-31.75 3.15 44.42 1.59 2.52 49.72 108.24-26.25 13.02-61.58-159.89c-8.8-18.06-1.31-39.82 16.74-48.62l310.81-152.51c18.05-8.8 39.81-1.3 48.62 16.75z" fill="#f6cc4b"/><path d="m515.18 250.28 24.03-11.92 103.6 179.57-4.27 2.46-419.05 208.16-4.57 1.76-74.75-194.07 26.25-13.02 26.78-13.28 25.79-12.78 26.76-13.28 27.62-13.69 26.77-13.28 23.63-11.71 26.77-13.28 27.01-13.39 26.77-13.28 31.55-15.65 26.83-13.3 25.67-12.73z" fill="#9c5b16"/><path d="m253.99 691.64c-9.61-2.72-18.06-9.37-22.78-19.05l-16.29-42.28 4.57-1.76 419.05-208.16 4.27-2.46 26.101 45.24c7.7 15.79 2.92 34.43-10.5 44.72-1.91 1.48-4 2.78-6.25 3.88l-372.341 177.57c-8.37 4.08-17.53 4.66-25.83 2.3z" fill="#9c5b16"/><path d="m658.42 507.9s13.021 26.659 0 39.67c-13.01 13.02-373.38 160.32-373.38 160.32s-31.01 6.58-31.05-16.25c8.3 2.36 17.46 1.78 25.83-2.3l372.34-177.57c2.25-1.1 4.34-2.399 6.25-3.88z" fill="#9c5b16"/><g fill="none"><path d="m642.81 417.93 26.101 45.24c7.7 15.79 2.92 34.43-10.5 44.72-1.91 1.48-4 2.78-6.25 3.88l-372.341 177.57c-8.37 4.08-17.53 4.66-25.83 2.3-9.61-2.72-18.06-9.37-22.78-19.05l-16.29-42.28-74.75-194.07-61.58-159.89c-8.8-18.06-1.31-39.82 16.74-48.62l310.81-152.51c18.05-8.8 39.81-1.3 48.62 16.75l84.45 146.39z" stroke="#231f20" stroke-width="21"/><path d="m658.42 507.9s13.021 26.659 0 39.67c-13.01 13.02-373.38 160.32-373.38 160.32s-31.01 6.58-31.05-16.25c0-.01 0-.029 0-.04" stroke="#231f20" stroke-width="21"/><path d="m167.69 425.98-1.27-2.76-49.72-108.24 27.14-12.47 49.36 107.43 1.6 3.49" stroke="#231f20" stroke-width="14"/><path d="m143.04 299.79-31.08-31.75 3.15 44.42" stroke="#231f20" stroke-width="14"/><path d="m220.87 400.92-1.88-3.76-53.83-107.59 26.71-13.37 53.88 107.68 1.93 3.85" stroke="#231f20" stroke-width="14"/><path d="m190.98 273.51-32.12-30.71 4.63 44.3" stroke="#231f20" stroke-width="14"/><path d="m275.83 374.95-2.46-4.76-53.69-104.08 26.55-13.7 53.91 104.5 1.98 3.83" stroke="#231f20" stroke-width="14"/><path d="m245.31 249.72-32.5-30.3 5.18 44.24" stroke="#231f20" stroke-width="14"/><path d="m325.87 349.3-2.1-4.1-55.61-108.66 26.6-13.61 55.78 108.99 2.15 4.2" stroke="#231f20" stroke-width="14"/><path d="m293.84 220.25-32.4-30.41 5.04 44.25" stroke="#231f20" stroke-width="14"/><path d="m377.55 318.53-56.19-107.07 26.46-13.89 56.5 107.68.01.01" stroke="#231f20" stroke-width="14"/><path d="m346.88 194.89-32.71-30.07 5.49 44.2" stroke="#231f20" stroke-width="14"/><path d="m437.68 292.72-1.81-3.12-59.63-102.95 25.85-14.98 60.61 104.63 2.33 4.02" stroke="#231f20" stroke-width="14"/><path d="m401.03 169.04-33.93-28.68 7.33 43.93" stroke="#231f20" stroke-width="14"/><path d="m490.24 266.84-1.87-3.27-60.95-106.6 25.93-14.83 61.83 108.14 2.18 3.81" stroke="#231f20" stroke-width="14"/><path d="m452.31 139.5-33.78-28.87 7.09 43.97" stroke="#231f20" stroke-width="14"/><path d="m140.17 436.24 26.25-13.02 26.78-13.28 25.79-12.78 26.76-13.28 27.62-13.69 26.77-13.28 23.63-11.71 26.77-13.28 27.01-13.39 26.77-13.28 31.55-15.65 26.83-13.3 25.67-12.73 26.81-13.29 24.03-11.92" stroke="#231f20" stroke-width="21"/><path d="m219.49 628.55 419.05-208.16" stroke="#231f20" stroke-width="21"/><path d="m721.13 573.89 10.93 30.47-261.42 93.73-6.53 2.34-34.54 12.39-10.93-30.47 34.54-12.39z" stroke="#231f20" stroke-width="14"/><path d="m453.18 669.96 10.93 30.47" stroke="#231f20" stroke-width="14"/><path d="m735.07 603.75 19.34-15.91 17.84-14.67-23.22-.36-25.03-.39" stroke="#231f20" stroke-width="14"/><path d="m754.41 587.84-5.38-15.03" stroke="#231f20" stroke-width="14"/><path d="m721.13 640.36 10.93 30.46-261.42 93.74-6.53 2.34-34.54 12.38-10.93-30.47 34.54-12.38z" stroke="#231f20" stroke-width="14"/><path d="m453.18 736.43 10.93 30.46" stroke="#231f20" stroke-width="14"/><path d="m735.07 670.21 19.34-15.91 17.84-14.67-23.22-.36-25.03-.39" stroke="#231f20" stroke-width="14"/><path d="m754.41 654.3-5.38-15.03" stroke="#231f20" stroke-width="14"/><path d="m0 0h850.394v850.394h-850.394z"/></g></svg>