<svg enable-background="new 0 0 850.394 850.394" height="850.394" viewBox="0 0 850.394 850.394" width="850.394" xmlns="http://www.w3.org/2000/svg"><path d="m471.62 168.24.11 29.54h-87.11l.21-28.56v-1.67l63.47-.14h23.32z" fill="#ffeec8"/><path d="m368.95 274.5.04-60.9v-2.35h120.02v1.76l.11 61.49z" fill="#ffeec8"/><path d="m567.35 94.54v43.12l-29.76 29.75h-65.97-23.32l-63.47.14-64.03.15-29.75-29.75v-43.12l32.77-23.29h150.03l60.72-.28z" fill="#ffeec8"/><path d="m340.39 409.4h175.56v154.49h-175.56z" fill="#0b00ea"/><path d="m543.17 385.46v202.38h-229.99v-202.38zm-27.22 178.43v-154.49h-175.56v154.49z" fill="#ffeec8"/><path d="m640.53 726.97s4.02 52.32-64.4 52.32h-157.53-12.27-124.19c-68.42 0-64.39-52.32-64.39-52.32v-400.15l56.34-46h129.36 10.55 170.19l56.34 46zm-97.36-139.13v-202.38h-229.99v202.38z" fill="#ffeec8"/><g fill="none"><path d="m418.6 779.29h157.53c68.42 0 64.4-52.32 64.4-52.32v-400.15l-56.34-46h-170.19-10.55-129.36l-56.34 46v400.15s-4.03 52.32 64.39 52.32h124.19z" stroke="#000" stroke-width="20.6978"/><path d="m313.18 385.46h229.99v202.38h-229.99z" stroke="#000" stroke-width="20.6978"/><path d="m340.39 409.4h175.56v154.49h-175.56z" stroke="#000" stroke-width="13.7985"/><path d="m384.83 167.55 63.47-.14h23.32 65.97l29.76-29.75v-43.12l-32.78-23.28-60.72.28h-150.03l-32.77 23.29v43.12l29.75 29.75z" stroke="#000" stroke-width="20.6978"/><path d="m471.62 168.24.11 29.54h-87.11l.21-28.56" stroke="#000" stroke-width="20.6978"/><path d="m356.89 211.25h12.1 120.02 12.19" stroke="#000" stroke-linecap="round" stroke-linejoin="round" stroke-width="34.4964"/><path d="m489.01 213.01.11 61.49h-120.17l.04-60.9" stroke="#000" stroke-linecap="round" stroke-linejoin="round" stroke-width="20.6978"/><path d="m0 0h850.394v850.394h-850.394z"/></g></svg>