<svg enable-background="new 0 0 850.394 850.394" height="850.394" viewBox="0 0 850.394 850.394" width="850.394" xmlns="http://www.w3.org/2000/svg"><path d="m515.22 475.72c11.15 12.79 23.79 29.101 19.601 33.05-7.15 6.721-23.99 12.15-42.86 14.561-79.76 10.21-139.29 61.61-165.47 110.9 0 0-15.49 33.6-30.96 29.119-7.11-2.069-14.72-9.319-20.87-16.569l.01-.011c.26-47.649 52.88-100.92 94.05-125.68 49.429-29.75 87.709-45.19 146.499-45.37z" fill="#abda4d"/><path d="m368.72 521.09c-41.17 24.76-93.79 78.03-94.05 125.68l-.01.011c-7.25-8.521-12.47-17.04-12.47-17.04l-195.23-266.591s-18.21-18.78 15.47-59.36c33.93-40.89 111.91-88.49 164.29-98.58 0 0 28.87-10.36 63.69 33.61l81.36 94.54 45.52 52.91 63.01 73.22s7.09 7.25 14.92 16.229c-58.79.181-97.07 15.621-146.5 45.371z" fill="#abda4d"/><path d="m773.38 200.81c23.21 21.85 27.97 54.34-10.13 66.65-38.09 12.32-188.09 56.01-236.9 75.05-48.819 19.05-87.14 42.11-87.14 42.11l-1.92 1.65-45.52-52.91 2.85-2.45s65.06-35.44 82.91-52.25c14.59-13.72 133.989-64.8 194.779-89.77-26.109 21.93-1.89 40.78 24.061 33.97 24.76-6.49 54.81-14.67 56.89-38.38l.641-.84c6.239 4.71 12.509 10.61 19.479 17.17z" fill="#abda4d"/><g fill="none"><path d="m274.66 646.78c-7.25-8.521-12.47-17.04-12.47-17.04l-195.23-266.59s-18.21-18.78 15.47-59.36c33.93-40.89 111.91-88.49 164.29-98.58 0 0 28.87-10.36 63.69 33.61l81.36 94.54 45.52 52.91 63.01 73.22s7.09 7.25 14.92 16.229c11.15 12.79 23.79 29.101 19.601 33.05-7.15 6.721-23.99 12.15-42.86 14.561-79.76 10.21-139.29 61.61-165.47 110.9 0 0-15.49 33.6-30.96 29.119-7.111-2.069-14.721-9.319-20.871-16.569z" stroke="#231f20" stroke-width="21"/><path d="m274.67 646.77c.26-47.649 52.88-100.92 94.05-125.68 49.43-29.75 87.709-45.189 146.5-45.37" stroke="#231f20" stroke-width="21"/><path d="m394.62 330.91s65.06-35.44 82.91-52.25c14.59-13.72 133.989-64.8 194.779-89.77 13.641-5.61 24.341-9.9 30.23-12.16 22.49-8.62 36.82-4.08 51.36 6.91 6.239 4.71 12.51 10.61 19.479 17.17 23.21 21.85 27.97 54.34-10.13 66.65-38.09 12.32-188.09 56.01-236.9 75.05-48.819 19.05-87.14 42.11-87.14 42.11" stroke="#231f20" stroke-width="21"/><path d="m256.24 224.25-7.14 50.41" stroke="#231f20" stroke-width="21"/><path d="m282.22 248.69-7.14 50.41" stroke="#231f20" stroke-width="21"/><path d="m309.11 274-7.14 50.4" stroke="#231f20" stroke-width="21"/><path d="m335.09 298.44-7.15 50.4" stroke="#231f20" stroke-width="21"/><path d="m357 334.37-7.14 50.41" stroke="#231f20" stroke-width="21"/><path d="m382.97 358.81-7.14 50.4" stroke="#231f20" stroke-width="21"/><path d="m405.11 389.17-7.14 50.4" stroke="#231f20" stroke-width="21"/><path d="m431.08 413.6-7.14 50.41" stroke="#231f20" stroke-width="21"/><path d="m208.27 241.31-7.14 50.41" stroke="#231f20" stroke-width="21"/><path d="m234.24 265.75-7.14 50.41" stroke="#231f20" stroke-width="21"/><path d="m261.14 291.06-7.14 50.4" stroke="#231f20" stroke-width="21"/><path d="m287.11 315.49-7.14 50.41" stroke="#231f20" stroke-width="21"/><path d="m309.03 351.43-7.15 50.4" stroke="#231f20" stroke-width="21"/><path d="m335 375.87-7.14 50.4" stroke="#231f20" stroke-width="21"/><path d="m357.14 406.22-7.15 50.41" stroke="#231f20" stroke-width="21"/><path d="m383.11 430.66-7.14 50.41" stroke="#231f20" stroke-width="21"/><path d="m172.06 275.38-7.14 50.41" stroke="#231f20" stroke-width="21"/><path d="m198.04 299.82-7.15 50.4" stroke="#231f20" stroke-width="21"/><path d="m224.93 325.12-7.14 50.41" stroke="#231f20" stroke-width="21"/><path d="m250.9 349.56-7.14 50.41" stroke="#231f20" stroke-width="21"/><path d="m272.82 385.49-7.14 50.41" stroke="#231f20" stroke-width="21"/><path d="m298.79 409.93-7.14 50.41" stroke="#231f20" stroke-width="21"/><path d="m320.93 440.29-7.14 50.4" stroke="#231f20" stroke-width="21"/><path d="m346.9 464.73-7.14 50.41" stroke="#231f20" stroke-width="21"/><path d="m123.57 294.16-7.15 50.41" stroke="#231f20" stroke-width="21"/><path d="m149.54 318.6-7.14 50.4" stroke="#231f20" stroke-width="21"/><path d="m176.43 343.9-7.14 50.41" stroke="#231f20" stroke-width="21"/><path d="m202.41 368.34-7.15 50.41" stroke="#231f20" stroke-width="21"/><path d="m224.32 404.28-7.14 50.4" stroke="#231f20" stroke-width="21"/><path d="m250.29 428.71-7.14 50.41" stroke="#231f20" stroke-width="21"/><path d="m272.43 459.07-7.14 50.41" stroke="#231f20" stroke-width="21"/><path d="m298.41 483.51-7.15 50.41" stroke="#231f20" stroke-width="21"/><path d="m93.08 329.56-7.14 50.41" stroke="#231f20" stroke-width="21"/><path d="m119.06 354-7.15 50.41" stroke="#231f20" stroke-width="21"/><path d="m145.95 379.31-7.14 50.4" stroke="#231f20" stroke-width="21"/><path d="m171.92 403.74-7.14 50.41" stroke="#231f20" stroke-width="21"/><path d="m193.84 439.68-7.15 50.4" stroke="#231f20" stroke-width="21"/><path d="m219.81 464.12-7.14 50.4" stroke="#231f20" stroke-width="21"/><path d="m241.95 494.47-7.14 50.41" stroke="#231f20" stroke-width="21"/><path d="m267.92 518.92-7.14 50.4" stroke="#231f20" stroke-width="21"/><path d="m672.31 188.89c-26.109 21.93-1.89 40.78 24.061 33.97 24.76-6.49 54.81-14.67 56.89-38.38" stroke="#231f20" stroke-width="21"/><path d="m0 0h850.394v850.394h-850.394z"/></g></svg>