<svg enable-background="new 0 0 850.394 850.394" height="850.394" viewBox="0 0 850.394 850.394" width="850.394" xmlns="http://www.w3.org/2000/svg"><path d="m768.26 314.97-.26 31.03-23.36 2.22-32.33 3.06-.31-3.28.46-28.77 52.77-4.29z" fill="#f6cc4b"/><path d="m768.35 304.02-.09 10.95-3.03-.03-52.77 4.29-30.67 2.49-32.09 2.61-28.95 2.35-30.66 2.5-29.7 2.41-33.22 2.7-30.66 2.49-29.71 2.42-31.8 2.58-30.65 2.49-29.7 2.42-29.45 2.39-30.65 2.49-29.7 2.42.06.72v35.87l.12 1.25-64.06 6.08v-47.1l-22.85-11.06 2.58-5.32 513.07-40.54-1.59-5.45.03-.01z" fill="#f6cc4b"/><path d="m374.84 383.31 29.4-2.79 32.09-3.05 32.09-3.04 29.92-2.84 30.11-2.86 34.07-3.23 29.73-2.82 29.92-2.84 29.71-2.82 30.32-2.88 30.11-2.86 32.33-3.06.32 3.37v233.92l-.81 2.12-63.91-24.47-3.12 1.56v37.43h-3.12l-404.11 56.7-49.7 6.97-1.15 2.13-16.31-8.8 1.87-3.46v-246.4l.83-2.61 15.54 4.95v-13.72l64.06-6.08 29.77-2.83 29.6-2.8z" fill="#f6cc4b"/><path d="m712.46 319.23-.46 28.77.31 3.28-30.11 2.86-.2-2.14-.21-30.28z" fill="#fff"/><path d="m681.79 321.72.21 30.28.2 2.14-30.32 2.88-1.88-29.02-.3-3.67z" fill="#fff"/><path d="m758.99 593.31v35.86l-13.25 3.12-68.62-27.02v-3.12-37.43l3.12-1.56 63.91 24.47z" fill="#f6cc4b"/><path d="m734.3 629.57c8.46 0 15.32 7.27 15.32 16.239 0 8.98-6.86 16.25-15.32 16.25-8.45 0-15.319-7.27-15.319-16.25-.001-8.969 6.869-16.239 15.319-16.239z" fill="#7a7878"/><path d="m699.73 119.34-550.49 24.06-55.24-11.54-15.72-3.28 568.43-21.83 73.29 11.7z" fill="#f6cc4b"/><path d="m712.18 288.44 1.59 5.45-513.07 40.54-2.58 5.32-3.97-1.92-13.72-90.73 509.94-33.53 9.11 31.26z" fill="#f6cc4b"/><path d="m149.24 316.1v72.92 285.38l-.31.56-55.84-30.19.91-512.91 55.24 11.54 550.49-24.06v125.42l-.25.07-9.11-31.26-509.94 33.53 13.72 90.73z" fill="#f6cc4b"/><path d="m650 328 1.88 29.02-29.71 2.82-.17-1.84-1.02-28.51-.23-2.81 28.95-2.35z" fill="#fff"/><path d="m622 358 .17 1.84-29.92 2.84-.25-2.68-1.69-28.17-.22-2.65 30.66-2.5.23 2.81z" fill="#fff"/><path d="m592 360 .25 2.68-29.73 2.82-.52-5.5-1.59-28.17-.02-.24 29.7-2.41.22 2.65z" fill="#fff"/><path d="m562 360 .52 5.5-34.07 3.23-.45-4.73-.59-26.71-.24-3 33.22-2.7.02.24z" fill="#fff"/><path d="m528 364 .45 4.73-30.11 2.86-.34-3.59-1.26-28.37-.23-2.85 30.66-2.49.24 3z" fill="#fff"/><path d="m498 368 .34 3.59-29.92 2.84-.42-4.43-1.16-30.37-.04-.43 29.71-2.42.23 2.85z" fill="#fff"/><path d="m468 370 .42 4.43-32.09 3.04-.33-3.47-.6-27.35-.4-4.87 31.8-2.58.04.43z" fill="#fff"/><path d="m436 374 .33 3.47-32.09 3.05-.24-2.52.73-29.01-.38-4.72 30.65-2.49.4 4.87z" fill="#fff"/><path d="m404.35 344.27.38 4.72-.73 29.01.24 2.52-29.4 2.79v-34.32l-.19-2.3z" fill="#fff"/><path d="m374.84 348.99v34.32l-30.44 2.89-.4-4.2 1.47-29.63-.27-3.29 29.45-2.39z" fill="#fff"/><path d="m345.2 349.08.27 3.29-1.47 29.63.4 4.2-29.6 2.8v-34.29l-.25-3.14z" fill="#fff"/><path d="m314.8 354.71v34.29l-29.77 2.83-.12-1.25v-35.87l-.06-.72 29.7-2.42z" fill="#fff"/><path d="m270.1 660.37v49.899l-38.74 6.711c-2.55-2.021-5.7-3.2-9.11-3.2-1.16 0-2.28.14-3.37.399l-.38-1.569 11.05-3.12v-35.87l-10.51-5.67 1.15-2.13 49.7-6.971z" fill="#f6cc4b"/><path d="m231.36 716.98c3.77 2.939 6.21 7.689 6.21 13.039 0 8.98-6.86 16.25-15.32 16.25-8.45 0-15.31-7.27-15.31-16.25 0-7.739 5.11-14.22 11.94-15.84 1.09-.26 2.21-.399 3.37-.399 3.41 0 6.56 1.18 9.11 3.2z" fill="#7a7878"/><path d="m229.55 673.62v35.87l-11.05 3.12-19.97-11.23-43.84-24.64v-40.55l2.6-1.56 45.44 24.52 16.31 8.8z" fill="#f6cc4b"/><path d="m220.97 397.91v13.72l-15.54-4.95-55.41-17.66h-.78v-72.92l44.91 21.73 3.97 1.92 22.85 11.06z" fill="#f6cc4b"/><path d="m205.43 406.68-.83 2.61v246.4l-1.87 3.46-45.44-24.52-2.6 1.56v40.55l43.84 24.64-.17.31-49.43-26.72v-.01l.31-.56v-285.38h.78z" fill="#f6cc4b"/><g fill="none"><path d="m699.73 244.76v-125.42-2.45" stroke="#231f20" stroke-width="14"/><path d="m94 131.86-15.72-3.28 568.43-21.83 73.29 11.7-20.27.89-550.49 24.06z" stroke="#231f20" stroke-width="14"/><path d="m94 130v1.86l-.91 512.91 55.84 30.19v.01l49.43 26.72" stroke="#231f20" stroke-width="14"/><path d="m220.19 665.82 49.7-6.97 404.11-56.7" stroke="#231f20" stroke-width="14"/><path d="m149.24 149.64v166.46 72.92 285.38" stroke="#231f20" stroke-width="14"/><path d="m194.46 339.89-.31-2.06-13.72-90.73 509.94-33.53 9.11 31.26 12.7 43.61 1.59 5.45-513.07 40.54" stroke="#231f20" stroke-width="14"/><path d="m220 398 .97-.09 64.06-6.08 29.77-2.83 29.6-2.8 30.44-2.89 29.4-2.79 32.09-3.05 32.09-3.04 29.92-2.84 30.11-2.86 34.07-3.23 29.73-2.82 29.92-2.84 29.71-2.82 30.32-2.88 30.11-2.86 32.33-3.06 23.36-2.22" stroke="#231f20" stroke-width="14"/><path d="m702.07 360.17v210.53" stroke="#231f20" stroke-width="14"/><path d="m148.46 315.72.78.38 44.91 21.73 3.97 1.92 22.85 11.06v47.1 13.72l-15.54-4.95-55.41-17.66" stroke="#231f20" stroke-width="14"/><path d="m204.6 409.29v246.4" stroke="#231f20" stroke-width="14"/><path d="m712.21 288.43 56.14 15.59-.09 10.95-.26 31.03" stroke="#231f20" stroke-width="14"/><path d="m227.99 358.61 56.86-4.62 29.7-2.42 30.65-2.49 29.45-2.39 29.7-2.42 30.65-2.49 31.8-2.58 29.71-2.42 30.66-2.49 33.22-2.7 29.7-2.41 30.66-2.5 28.95-2.35 32.09-2.61 30.67-2.49 52.77-4.29" stroke="#231f20" stroke-width="14"/><path d="m744.96 351.59v233.92" stroke="#231f20" stroke-width="14"/><path d="m677.12 602.15v-37.43l3.12-1.56 63.91 24.47 14.84 5.68v35.86l-13.25 3.12-68.62-27.02z" stroke="#231f20" stroke-width="14"/><path d="m198.53 701.38-43.84-24.64v-40.55l2.6-1.56 45.44 24.52 16.31 8.8 10.51 5.67v35.87l-11.05 3.12z" stroke="#231f20" stroke-width="14"/><path d="m231.36 716.98c3.77 2.939 6.21 7.689 6.21 13.039 0 8.98-6.86 16.25-15.32 16.25-8.45 0-15.31-7.27-15.31-16.25 0-7.739 5.11-14.22 11.94-15.84 1.09-.26 2.21-.399 3.37-.399 3.41 0 6.56 1.18 9.11 3.2z" stroke="#231f20" stroke-width="14"/><path d="m749.62 645.81c0 8.98-6.86 16.25-15.32 16.25-8.45 0-15.319-7.27-15.319-16.25 0-8.97 6.869-16.239 15.319-16.239 8.46-.001 15.32 7.269 15.32 16.239z" stroke="#231f20" stroke-width="14"/><path d="m284.91 354.71v35.87" stroke="#231f20" stroke-width="14"/><path d="m314.8 354.71v34.29 1.58" stroke="#231f20" stroke-width="14"/><path d="m345.47 352.37-1.47 29.63" stroke="#231f20" stroke-width="14"/><path d="m374.84 348.99v34.32 1.54" stroke="#231f20" stroke-width="14"/><path d="m404.73 348.99-.73 29.01" stroke="#231f20" stroke-width="14"/><path d="m435.4 346.65.6 27.35" stroke="#231f20" stroke-width="14"/><path d="m466.84 339.63 1.16 30.37" stroke="#231f20" stroke-width="14"/><path d="m496.74 339.63 1.26 28.37" stroke="#231f20" stroke-width="14"/><path d="m527.41 337.29.59 26.71" stroke="#231f20" stroke-width="14"/><path d="m560.41 331.83 1.59 28.17" stroke="#231f20" stroke-width="14"/><path d="m590.31 331.83 1.69 28.17" stroke="#231f20" stroke-width="14"/><path d="m620.98 329.49 1.02 28.51" stroke="#231f20" stroke-width="14"/><path d="m650 328 1.88 29.02.02.29" stroke="#231f20" stroke-width="14"/><path d="m681.79 321.44v.28l.21 30.28" stroke="#231f20" stroke-width="14"/><path d="m712.46 319.1v.13l-.46 28.77" stroke="#231f20" stroke-width="14"/><path d="m229.55 717.29 1.81-.31 38.74-6.71v-49.9" stroke="#231f20" stroke-width="14"/><path d="m509.47 626.84 29.63 19.49" stroke="#231f20" stroke-linecap="round" stroke-linejoin="round" stroke-width="14"/><path d="m479.84 633.85 25.74 18.72" stroke="#231f20" stroke-linecap="round" stroke-linejoin="round" stroke-width="14"/><path d="m438.52 636.97 35.09 22.61" stroke="#231f20" stroke-linecap="round" stroke-linejoin="round" stroke-width="14"/><path d="m0 0h850.394v850.394h-850.394z"/></g></svg>