<svg enable-background="new 0 0 850.394 850.394" height="850.394" viewBox="0 0 850.394 850.394" width="850.394" xmlns="http://www.w3.org/2000/svg"><path d="m690.25 676.69c.04-.98.06-1.96.06-2.94 0-5.53-.63-10.91-1.829-16.08-1.41-6.1-3.601-11.9-6.471-17.29l97.811-36.53-15.16 38.66 21.229 14.39-21.99 21.99 19.319 24.25-24.63 9.101 18.19 40.93-95.761-44.25c3.16-5.54 5.591-11.54 7.171-17.88 1.161-4.621 1.861-9.421 2.061-14.351z" fill="#fbee34"/><path d="m550.5 692.26c1.7 6.34 4.25 12.33 7.54 17.83l-94.78 43.79 18.19-40.939-24.63-9.091 19.319-24.26-21.979-21.98 21.229-14.4-15.159-38.65 96.1 35.891c-2.91 5.47-5.13 11.37-6.521 17.58-1.149 5.05-1.75 10.319-1.75 15.72 0 1.22.03 2.44.091 3.65.26 5.119 1.06 10.089 2.35 14.859z" fill="#fbee34"/><path d="m690.25 676.69c-.2 4.93-.9 9.729-2.06 14.35-1.58 6.34-4.011 12.34-7.171 17.88-12.25 21.47-35.35 35.95-61.829 35.95-26.011 0-48.75-13.95-61.15-34.78-3.29-5.5-5.84-11.49-7.54-17.83-1.29-4.77-2.09-9.74-2.35-14.859-.061-1.21-.091-2.431-.091-3.65 0-5.4.601-10.67 1.75-15.72 1.391-6.21 3.61-12.11 6.521-17.58 11.939-22.5 35.61-37.83 62.86-37.83 27.21 0 50.859 15.29 62.819 37.76 2.87 5.39 5.061 11.19 6.471 17.29 1.199 5.17 1.829 10.55 1.829 16.08.001.979-.019 1.959-.059 2.939z" fill="#fbee34"/><path d="m359.6 533.64c25.14 17.061 38.9 40.9 31.45 54.03l-1.23 1.84-.06.08c-9.45 11.75-36.69 7.79-61.83-9.25-23.36-15.84-36.91-37.56-32.73-51.09.43-1.4 1.05-2.71 1.87-3.92 8.75-12.89 36.73-9.17 62.53 8.31z" fill="#ee947d"/><path d="m229.44 626.24 65.75-96.99h.01c-4.18 13.53 9.37 35.25 32.73 51.09 25.14 17.04 52.38 21 61.83 9.25l-66.89 99.99c-8.75 12.89-36.73 9.17-62.53-8.32-25.78-17.479-39.6-42.1-30.86-54.99z" fill="#ee947d"/><path d="m611.46 487.53c-15.46-1.931-24.88-28.54-21.03-59.46 3.761-30.16 18.74-53.26 33.82-52.58h.02l2.16.26c14.84 2.96 23.74 29.07 19.99 59.28-3.49 28.02-16.67 49.96-30.62 52.39-1.44.25-2.89.29-4.34.11z" fill="#ee947d"/><path d="m734.03 501.95c-.641.01-1.29-.03-1.94-.11l-.01.05-116.28-14.47c13.95-2.43 27.13-24.37 30.62-52.39 3.75-30.21-5.15-56.32-19.99-59.28l73.34 8.67 46.24 5.46c15.46 1.92 24.88 28.54 21.03 59.47-3.69 29.62-18.21 52.43-33.01 52.6z" fill="#ee947d"/><path d="m121.27 145.09c30.49 12.72 129.26 61.95 176.25 91.55-.8 1.5-1.57 3.03-2.3 4.57l-.41-.2c-49.82-29.94-106.68-47.7-163.47-58.69-75.12-14.52-76.14-37.99-66.09-61.54l7.86-18.8c-2.06 17.52 21.31 31.91 48.16 43.11z" fill="#ffffc2"/><path d="m156.23 109 148.71 115.05c-2.66 4.04-5.14 8.24-7.42 12.59-46.99-29.6-145.76-78.83-176.25-91.55-26.85-11.2-50.22-25.59-48.16-43.11l4.69-11.22c19.42-27.18 78.43 18.24 78.43 18.24z" fill="#ffffc2"/><path d="m304.94 224.05c11.25-17.11 25.59-31.42 40.94-42.88-15.4 12.21-26.78 31.76-31.36 59.06-13.63 81.18 76.27 135.87 135.16 170.8 42.86 25.44 139.66 80.33 182.32 106.38 16.48 10.07 36.48 26.22 54.48 33.24-10.931-3.78-283.25-97.9-305.911-107.36-23.13-9.64-86.97-56.46-96.71-110.92-6.32-35.34-.86-65.77 11.36-91.16.73-1.54 1.5-3.07 2.3-4.57 2.281-4.35 4.761-8.55 7.421-12.59z" fill="#ffffc2"/><path d="m732.08 501.89.01-.05c.65.08 1.3.12 1.94.11-.351 4.01-.851 8.03-1.54 12.069-6.8 40.45-24.931 44.771-45.79 36.711-.05-.021-.13-.04-.22-.08-18-7.021-38-23.17-54.48-33.24-42.66-26.05-139.46-80.94-182.32-106.38-58.89-34.93-148.79-89.62-135.16-170.8 4.58-27.3 15.96-46.85 31.36-59.06 26.56-21.05 65.09-20.26 101.43.38 30.14 17.13 154.23 111.65 188.22 136.85 24.229 17.95 46.779 40.44 64.239 66.02l-73.34-8.67c-.34-.07-.689-.13-1.04-.17-.37-.04-.75-.08-1.12-.09h-.02c-15.08-.68-30.06 22.42-33.82 52.58-3.85 30.92 5.57 57.529 21.03 59.46 1.45.18 2.9.14 4.34-.11z" fill="#ffffc2"/><g fill="none"><path d="m686.7 550.73c20.859 8.06 38.99 3.739 45.79-36.711.689-4.039 1.189-8.06 1.54-12.069.01-.021.01-.04.01-.061" stroke="#231f20" stroke-width="21"/><path d="m699.78 384.43s0-.01-.011-.01c-17.46-25.58-40.01-48.07-64.239-66.02-33.99-25.2-158.08-119.72-188.221-136.85-36.339-20.64-74.87-21.43-101.43-.38-15.4 12.21-26.78 31.76-31.36 59.06-13.63 81.18 76.27 135.87 135.16 170.8 42.861 25.44 139.661 80.33 182.321 106.38 16.48 10.07 36.48 26.22 54.48 33.24" stroke="#231f20" stroke-width="21"/><path d="m686.82 550.77s-.04-.01-.12-.039c-.05-.021-.13-.04-.22-.08-10.931-3.78-283.25-97.9-305.911-107.36-23.13-9.64-86.97-56.46-96.71-110.92-6.32-35.34-.86-65.77 11.36-91.16.73-1.54 1.5-3.07 2.3-4.57 2.28-4.35 4.76-8.55 7.42-12.59 11.25-17.11 25.59-31.42 40.94-42.88.81-.61 1.64-1.22 2.46-1.81" stroke="#231f20" stroke-width="21"/><path d="m304.97 224.07-.03-.02-148.71-115.05s-59.01-45.42-78.43-18.24c-2.77 3.88-4.27 7.61-4.69 11.22-2.06 17.52 21.31 31.91 48.16 43.11 30.49 12.72 129.26 61.95 176.25 91.55 2.9 1.83 5.6 3.59 8.08 5.25" stroke="#231f20" stroke-width="21"/><path d="m294.81 241.01c-49.82-29.94-106.68-47.7-163.47-58.69-75.12-14.52-76.14-37.99-66.09-61.54l7.86-18.8 4.69-11.22" stroke="#231f20" stroke-width="21"/><path d="m595.43 388.13c-58-25.86-93.35-46.97-141.09-69.76-58.82-28.07-87.37-56.31-129.35-19.52" stroke="#231f20" stroke-linecap="round" stroke-linejoin="round" stroke-width="21"/><path d="m688.48 657.67c1.199 5.17 1.829 10.55 1.829 16.08 0 .98-.02 1.96-.06 2.94-.2 4.93-.9 9.729-2.06 14.35-1.58 6.34-4.011 12.34-7.171 17.88-12.25 21.47-35.35 35.95-61.829 35.95-26.011 0-48.75-13.95-61.15-34.78-3.29-5.5-5.84-11.49-7.54-17.83-1.29-4.77-2.09-9.74-2.35-14.859-.061-1.21-.091-2.431-.091-3.65 0-5.4.601-10.67 1.75-15.72 1.391-6.21 3.61-12.11 6.521-17.58 11.939-22.5 35.61-37.83 62.86-37.83 27.21 0 50.859 15.29 62.819 37.76 2.872 5.389 5.062 11.189 6.472 17.289z" stroke="#231f20" stroke-width="21"/><path d="m556.33 640.45-96.1-35.89 15.16 38.65-21.23 14.4 21.98 21.98-19.32 24.26 24.63 9.09-18.19 40.94 94.78-43.79 1.43-.66" stroke="#231f20" stroke-width="21"/><path d="m501.92 648.51 47.89 9.52 2.07.41" stroke="#231f20" stroke-width="14"/><path d="m486.04 677.44 62.11-.04" stroke="#231f20" stroke-width="14"/><path d="m507.6 708.78 42.9-16.52h.01" stroke="#231f20" stroke-width="14"/><path d="m682 640.38h.01l97.81-36.53-15.16 38.66 21.23 14.39-21.99 21.99 19.32 24.25-24.63 9.1 18.19 40.93-95.76-44.25-.02-.01" stroke="#231f20" stroke-width="21"/><path d="m738.13 647.81-49.65 9.86h-.01" stroke="#231f20" stroke-width="14"/><path d="m754 676.74-63.75-.05h-.01" stroke="#231f20" stroke-width="14"/><path d="m732.45 708.07-44.26-17.03h-.01" stroke="#231f20" stroke-width="14"/><path d="m624.27 375.49c.37.01.75.05 1.12.09.351.04.7.1 1.04.17 14.84 2.96 23.74 29.07 19.99 59.28-3.49 28.02-16.67 49.96-30.62 52.39-1.439.25-2.89.29-4.34.11-15.46-1.931-24.88-28.54-21.03-59.46 3.761-30.16 18.74-53.26 33.82-52.58" stroke="#231f20" stroke-width="21"/><path d="m732.09 501.84c.65.08 1.3.12 1.94.11 14.8-.17 29.319-22.98 33.01-52.601 3.85-30.93-5.57-57.55-21.03-59.47l-46.24-5.46-73.34-8.67-2.16-.26h-.02" stroke="#231f20" stroke-width="21"/><path d="m615.8 487.42 116.28 14.47.75.09" stroke="#231f20" stroke-width="21"/><path d="m389.76 589.59c-9.45 11.75-36.69 7.79-61.83-9.25-23.36-15.84-36.91-37.56-32.73-51.09.43-1.4 1.05-2.71 1.87-3.92 8.75-12.89 36.73-9.17 62.53 8.31 25.14 17.061 38.9 40.9 31.45 54.03-.18.33-.38.66-.6.98-.2.3-.41.58-.63.859" stroke="#231f20" stroke-width="21"/><path d="m229.48 626.27c-8.74 12.891 5.08 37.511 30.86 54.99 25.8 17.49 53.78 21.21 62.53 8.32l66.89-99.99.06-.08 1.23-1.84" stroke="#231f20" stroke-width="21"/><path d="m295.19 529.25-65.75 96.99-.42.62" stroke="#231f20" stroke-width="21"/><path d="m0 0h850.394v850.394h-850.394z"/></g></svg>