<svg enable-background="new 0 0 850.394 850.394" height="850.394" viewBox="0 0 850.394 850.394" width="850.394" xmlns="http://www.w3.org/2000/svg"><path d="m164.42 526.18c-23.864-10.32-43.206-22.034-56.963-34.745-3.737-3.446-7.067-6.971-9.961-10.571-6.38-11.608-10.794-19.421-11.434-20.563-.009-.01-.019-.02-.019-.029-1.491-4.715-2.256-9.507-2.256-14.357 0-3.707.445-7.367 1.326-10.997 2.885-11.976 10.465-23.486 22.063-34.261 6.651-6.186 14.618-12.14 23.786-17.793 9.691-6.002 20.717-11.675 32.935-16.98 9.168-3.998 18.994-7.774 29.44-11.317 46.043-15.664 103.896-26.903 168.285-31.821 13.001-.997 26.274-1.733 39.769-2.198 10.427-.358 20.979-.552 31.657-.571.727 0 1.462-.01 2.188-.01.774 0 1.539 0 2.304.01 10.669.02 21.23.213 31.647.571 13.495.465 26.768 1.201 39.77 2.198 64.388 4.918 122.251 16.157 168.284 31.821 10.445 3.543 20.271 7.319 29.439 11.317 12.218 5.305 23.234 10.979 32.925 16.971 9.168 5.664 17.146 11.617 23.796 17.803 11.598 10.785 19.179 22.286 22.063 34.261.881 3.63 1.326 7.29 1.326 10.997 0 4.87-.774 9.672-2.275 14.396-.658 1.171-5.063 8.954-11.414 20.514-2.895 3.611-6.234 7.154-9.99 10.61-13.757 12.721-33.1 24.425-56.953 34.745-9.178 3.979-19.023 7.744-29.469 11.269-10.998 3.736-22.663 7.202-34.93 10.397-19.913 5.188-41.405 9.651-64.165 13.263-11.801 1.878-23.941 3.523-36.381 4.928-33.409 3.785-68.978 5.828-105.871 5.828-.039 0-.068 0-.106 0-36.895 0-72.462-2.043-105.872-5.828-12.44-1.404-24.58-3.05-36.381-4.928-22.77-3.611-44.262-8.074-64.175-13.263-12.266-3.195-23.931-6.67-34.919-10.397-10.455-3.535-20.291-7.292-29.469-11.27zm347.479-86.287c0-6.351-11.036-11.501-24.647-11.501-13.602 0-24.638 5.15-24.638 11.501 0 6.352 11.036 11.501 24.638 11.501 13.611 0 24.647-5.15 24.647-11.501zm-103.934 0c0-6.351-11.037-11.501-24.648-11.501-13.602 0-24.638 5.15-24.638 11.501 0 6.352 11.037 11.501 24.638 11.501 13.611 0 24.648-5.15 24.648-11.501z" fill="#faa41f"/><path d="m107.458 491.435c13.757 12.711 33.099 24.425 56.963 34.745 9.178 3.979 19.014 7.735 29.469 11.269 10.988 3.728 22.654 7.202 34.919 10.397 19.914 5.188 41.406 9.651 64.175 13.263 11.801 1.878 23.941 3.523 36.381 4.928 33.409 3.785 68.977 5.828 105.872 5.828h.106c36.894 0 72.462-2.043 105.871-5.828 12.439-1.404 24.58-3.05 36.381-4.928 22.76-3.611 44.252-8.074 64.165-13.263 12.267-3.195 23.932-6.661 34.93-10.397 10.445-3.524 20.291-7.29 29.469-11.269 23.854-10.32 43.196-22.024 56.953-34.745 3.756-3.456 7.096-6.999 9.99-10.61-8.548 15.528-20.61 37.862-31.859 60.08l-.959-.484c-59.267 38.646-173.502 64.95-304.989 65.386-131.497-.436-245.732-26.739-304.999-65.386l-.949.475c-11.249-22.188-23.302-44.513-31.85-60.031 2.894 3.599 6.224 7.123 9.961 10.57z" fill="#faa41f"/><path d="m435.294 605.806c131.487-.436 245.723-26.739 304.989-65.386l.959.484c-7.028 13.844-13.728 27.648-19.063 39.721-13.466 30.466-9.864 70.091-15.344 104.042-6.476 40.186-48.182 97.478-270.505 107.333h-2.081c-222.324-9.855-264.03-67.147-270.516-107.333-5.47-33.951-1.868-73.576-15.334-104.042-5.334-12.082-12.033-25.877-19.052-39.73l.949-.475c59.266 38.646 173.501 64.95 304.998 65.386z" fill="#f6cc4b"/><path d="m487.252 428.392c13.611 0 24.647 5.15 24.647 11.501 0 6.352-11.036 11.501-24.647 11.501-13.602 0-24.638-5.149-24.638-11.501 0-6.351 11.036-11.501 24.638-11.501z" fill="#ffeec8"/><path d="m383.317 428.392c13.611 0 24.648 5.15 24.648 11.501 0 6.352-11.037 11.501-24.648 11.501-13.602 0-24.638-5.149-24.638-11.501 0-6.351 11.036-11.501 24.638-11.501z" fill="#ffeec8"/><g fill="none"><path d="m86.043 460.271c-1.491-4.715-2.256-9.507-2.256-14.357 0-3.707.445-7.367 1.326-10.997 2.885-11.976 10.465-23.486 22.063-34.261 6.651-6.186 14.618-12.14 23.786-17.793 9.691-6.002 20.717-11.675 32.935-16.98 9.168-3.998 18.994-7.774 29.44-11.317 46.043-15.664 103.896-26.903 168.285-31.821 13.001-.997 26.274-1.733 39.769-2.198 10.427-.358 20.979-.552 31.657-.571" stroke="#231f20" stroke-width="20.33"/><path d="m435.236 571.864c-36.895 0-72.462-2.043-105.872-5.828-12.44-1.404-24.58-3.05-36.381-4.928-22.77-3.611-44.262-8.074-64.175-13.263-12.266-3.195-23.931-6.67-34.919-10.397-10.455-3.533-20.291-7.29-29.469-11.269-23.864-10.32-43.206-22.034-56.963-34.745-3.737-3.446-7.067-6.971-9.961-10.571-5.344-6.642-9.207-13.515-11.434-20.563" stroke="#231f20" stroke-width="20.33"/><path d="m438.624 605.815c-1.113 0-2.227 0-3.33-.01-131.497-.436-245.732-26.739-304.999-65.386" stroke="#231f20" stroke-width="20.33"/><path d="m401.391 318.871v1.675 37.746" stroke="#231f20" stroke-linecap="round" stroke-linejoin="round" stroke-width="13.5534"/><path d="m360.963 319.839.659 2.905 8.016 35.558" stroke="#231f20" stroke-linecap="round" stroke-linejoin="round" stroke-width="13.5534"/><path d="m328.106 326.413 8.665 38.462" stroke="#231f20" stroke-linecap="round" stroke-linejoin="round" stroke-width="13.5534"/><path d="m291.89 332.076 13.127 37.175" stroke="#231f20" stroke-linecap="round" stroke-linejoin="round" stroke-width="13.5534"/><path d="m260.979 339.007 13.127 37.176" stroke="#231f20" stroke-linecap="round" stroke-linejoin="round" stroke-width="13.5534"/><path d="m228.76 345.155 12.586 37.359" stroke="#231f20" stroke-linecap="round" stroke-linejoin="round" stroke-width="13.5534"/><path d="m193.318 354.526.019.039 16.865 35.578" stroke="#231f20" stroke-linecap="round" stroke-linejoin="round" stroke-width="13.5534"/><path d="m163.288 364.594.609 1.288 16.274 34.338" stroke="#231f20" stroke-linecap="round" stroke-linejoin="round" stroke-width="13.5534"/><path d="m130.557 382.456.406.406 27.775 27.175" stroke="#231f20" stroke-linecap="round" stroke-linejoin="round" stroke-width="13.5534"/><path d="m403.579 569.938v-39.431" stroke="#231f20" stroke-linecap="round" stroke-linejoin="round" stroke-width="13.5534"/><path d="m363.151 568.97 8.675-38.463" stroke="#231f20" stroke-linecap="round" stroke-linejoin="round" stroke-width="13.5534"/><path d="m329.2 566.781.165-.745 8.5-37.717" stroke="#231f20" stroke-linecap="round" stroke-linejoin="round" stroke-width="13.5534"/><path d="m292.984 561.108 13.127-37.174" stroke="#231f20" stroke-linecap="round" stroke-linejoin="round" stroke-width="13.5534"/><path d="m262.072 554.177 13.128-37.165" stroke="#231f20" stroke-linecap="round" stroke-linejoin="round" stroke-width="13.5534"/><path d="m228.75 548.029.059-.183 12.527-37.175" stroke="#231f20" stroke-linecap="round" stroke-linejoin="round" stroke-width="13.5534"/><path d="m193.309 538.668.58-1.22 16.313-34.406" stroke="#231f20" stroke-linecap="round" stroke-linejoin="round" stroke-width="13.5534"/><path d="m163.278 528.59 1.142-2.41 15.751-33.216" stroke="#231f20" stroke-linecap="round" stroke-linejoin="round" stroke-width="13.5534"/><path d="m132.744 507.447 28.182-27.582" stroke="#231f20" stroke-linecap="round" stroke-linejoin="round" stroke-width="13.5534"/><path d="m106.228 399.93.949.726 30.272 23.35" stroke="#231f20" stroke-linecap="round" stroke-linejoin="round" stroke-width="13.5534"/><path d="m83.333 434.84 1.781.077 37.611 1.588" stroke="#231f20" stroke-linecap="round" stroke-linejoin="round" stroke-width="13.5534"/><path d="m89.838 465.79 37.446-12.314" stroke="#231f20" stroke-linecap="round" stroke-linejoin="round" stroke-width="13.5534"/><path d="m105.018 492.944 2.44-1.509 31.095-19.227" stroke="#231f20" stroke-linecap="round" stroke-linejoin="round" stroke-width="13.5534"/><path d="m407.965 439.893c0 6.352-11.037 11.501-24.648 11.501-13.602 0-24.638-5.149-24.638-11.501 0-6.351 11.037-11.501 24.638-11.501 13.611 0 24.648 5.15 24.648 11.501z" stroke="#231f20" stroke-width="13.5534"/><path d="m435.236 571.864h.106c36.894 0 72.462-2.043 105.871-5.828 12.439-1.404 24.58-3.05 36.381-4.928 22.76-3.611 44.252-8.074 64.165-13.263 12.267-3.195 23.932-6.661 34.93-10.397 10.445-3.524 20.291-7.29 29.469-11.269 23.854-10.32 43.196-22.024 56.953-34.745 3.756-3.456 7.096-6.999 9.99-10.61 5.335-6.632 9.188-13.485 11.414-20.514 1.501-4.725 2.275-9.526 2.275-14.396 0-3.707-.445-7.367-1.326-10.997-2.885-11.976-10.466-23.477-22.063-34.261-6.65-6.186-14.628-12.14-23.796-17.803-9.69-5.992-20.707-11.666-32.925-16.971-9.168-3.998-18.994-7.774-29.439-11.317-46.033-15.664-103.896-26.903-168.284-31.821-13.002-.997-26.274-1.733-39.77-2.198-10.417-.358-20.979-.552-31.647-.571-.765-.01-1.529-.01-2.304-.01-.727 0-1.462.01-2.188.01" stroke="#231f20" stroke-width="20.33"/><path d="m431.954 605.815c1.113 0 2.227 0 3.34-.01 131.487-.436 245.723-26.739 304.989-65.386" stroke="#231f20" stroke-width="20.33"/><path d="m435.236 318.871v1.094 38.327" stroke="#231f20" stroke-linecap="round" stroke-linejoin="round" stroke-width="13.5534"/><path d="m469.188 318.871v1.675 37.746" stroke="#231f20" stroke-linecap="round" stroke-linejoin="round" stroke-width="13.5534"/><path d="m509.615 319.839-.658 2.905-8.017 35.558" stroke="#231f20" stroke-linecap="round" stroke-linejoin="round" stroke-width="13.5534"/><path d="m542.472 326.413-8.664 38.462" stroke="#231f20" stroke-linecap="round" stroke-linejoin="round" stroke-width="13.5534"/><path d="m578.688 332.076-13.126 37.175" stroke="#231f20" stroke-linecap="round" stroke-linejoin="round" stroke-width="13.5534"/><path d="m609.609 339.007-13.136 37.176" stroke="#231f20" stroke-linecap="round" stroke-linejoin="round" stroke-width="13.5534"/><path d="m641.818 345.155-12.585 37.359" stroke="#231f20" stroke-linecap="round" stroke-linejoin="round" stroke-width="13.5534"/><path d="m677.261 354.526-.02.039-16.864 35.578" stroke="#231f20" stroke-linecap="round" stroke-linejoin="round" stroke-width="13.5534"/><path d="m707.291 364.594-.61 1.288-16.274 34.338" stroke="#231f20" stroke-linecap="round" stroke-linejoin="round" stroke-width="13.5534"/><path d="m740.013 382.456-.408.397-27.764 27.184" stroke="#231f20" stroke-linecap="round" stroke-linejoin="round" stroke-width="13.5534"/><path d="m433.048 569.938v-39.431" stroke="#231f20" stroke-linecap="round" stroke-linejoin="round" stroke-width="13.5534"/><path d="m466.999 569.938v-39.431" stroke="#231f20" stroke-linecap="round" stroke-linejoin="round" stroke-width="13.5534"/><path d="m507.417 568.97-8.664-38.463" stroke="#231f20" stroke-linecap="round" stroke-linejoin="round" stroke-width="13.5534"/><path d="m541.378 566.781-.164-.745-8.5-37.717" stroke="#231f20" stroke-linecap="round" stroke-linejoin="round" stroke-width="13.5534"/><path d="m577.595 561.108-13.127-37.174" stroke="#231f20" stroke-linecap="round" stroke-linejoin="round" stroke-width="13.5534"/><path d="m608.506 554.177-13.117-37.165" stroke="#231f20" stroke-linecap="round" stroke-linejoin="round" stroke-width="13.5534"/><path d="m641.818 548.029-.058-.183-12.517-37.175" stroke="#231f20" stroke-linecap="round" stroke-linejoin="round" stroke-width="13.5534"/><path d="m677.271 538.668-.582-1.22-16.312-34.406" stroke="#231f20" stroke-linecap="round" stroke-linejoin="round" stroke-width="13.5534"/><path d="m707.301 528.59-1.143-2.41-15.751-33.216" stroke="#231f20" stroke-linecap="round" stroke-linejoin="round" stroke-width="13.5534"/><path d="m737.834 507.447-28.181-27.582" stroke="#231f20" stroke-linecap="round" stroke-linejoin="round" stroke-width="13.5534"/><path d="m764.351 399.93-.95.726-30.282 23.35" stroke="#231f20" stroke-linecap="round" stroke-linejoin="round" stroke-width="13.5534"/><path d="m787.246 434.84-1.781.077-37.611 1.588" stroke="#231f20" stroke-linecap="round" stroke-linejoin="round" stroke-width="13.5534"/><path d="m780.74 465.79-37.456-12.314" stroke="#231f20" stroke-linecap="round" stroke-linejoin="round" stroke-width="13.5534"/><path d="m765.551 492.944-2.44-1.509-31.076-19.227" stroke="#231f20" stroke-linecap="round" stroke-linejoin="round" stroke-width="13.5534"/><path d="m462.614 439.893c0 6.352 11.036 11.501 24.638 11.501 13.611 0 24.647-5.149 24.647-11.501 0-6.351-11.036-11.501-24.647-11.501-13.602 0-24.638 5.15-24.638 11.501z" stroke="#231f20" stroke-width="13.5534"/><path d="m784.603 460.155s-.028.049-.087.155c-.658 1.171-5.063 8.954-11.414 20.514-8.548 15.528-20.61 37.862-31.859 60.08-7.028 13.844-13.728 27.648-19.063 39.721-13.466 30.466-9.864 70.091-15.344 104.042-6.477 40.186-48.183 97.478-270.506 107.333h-2.081c-222.324-9.855-264.03-67.147-270.516-107.333-5.47-33.951-1.868-73.576-15.334-104.042-5.334-12.082-12.033-25.877-19.052-39.73-11.249-22.188-23.302-44.513-31.85-60.031-6.38-11.608-10.794-19.421-11.434-20.563-.009-.01-.019-.02-.019-.029-.048-.077-.068-.116-.068-.116" stroke="#231f20" stroke-width="20.33"/><path d="m0 0h850.394v850.394h-850.394z"/></g><path d="m548.818 175.415c.1.304.188.607.27.913 16.001.86 33.457 5.024 40.448 19.929 8.275 17.643-7.085 40.902-18.791 55.161-19.664 23.958-47.541 26.914-65.854 17.385-18.137-9.438-30.215-31.13-28.242-58.122 1.553-21.193 11.74-55.925 37.193-58.139 15.238-1.329 30.77 9.552 34.976 22.873z" fill="#be0000"/><path d="m634.193 84.376c.459 5.701-24.012 8.532-26.411 2.862-.016-.025-.024-.052-.03-.083 5.957-2.938 25.405-15.63 26.441-2.779z" fill="#9e5b16"/><path d="m607.782 87.239c-.067-.001-.134-.002-.202.001.058-.026.111-.054.172-.084.006.031.015.058.03.083z" fill="#fff"/><path d="m538.647 176.161c3.313-.055 6.842-.027 10.44.167 16.001.86 33.457 5.024 40.448 19.929 8.275 17.643-7.085 40.902-18.791 55.161-19.664 23.958-47.541 26.914-65.854 17.385-18.137-9.438-30.215-31.13-28.242-58.122 1.553-21.193 11.74-55.925 37.193-58.139 15.237-1.328 30.77 9.553 34.976 22.874.1.304.188.607.27.913.021.067.04.138.059.21" fill="none" stroke="#000" stroke-width="7.2831"/><path d="m548.803 175.445c.005-.009.012-.022.016-.031 10.002-19.242 10.675-41.497 22.354-60.308 8.498-13.684 19.493-27.931 36.407-27.867.068-.003.135-.002.202-.001" fill="none" stroke="#000" stroke-width="7.2831"/><path d="m607.468 87.293c.038-.02.074-.034.112-.054.058-.026.111-.054.172-.084 5.957-2.939 25.405-15.631 26.441-2.779.459 5.701-24.012 8.532-26.411 2.862-.016-.025-.024-.052-.03-.083-.034-.074-.062-.161-.085-.246" fill="none" stroke="#000" stroke-width="7.2831"/><path d="m624.873 109.401c.802-6.594.834-29.813 12.153-23.647 5.021 2.738-6.007 24.768-12.068 23.667-.028 0-.056-.008-.085-.02z" fill="#9e5b16"/><path d="m624.849 109.591c.011-.063.017-.123.024-.19.029.012.057.02.085.02-.037.056-.074.111-.109.17z" fill="#fff"/><path d="m656.444 286.741c-16.883-12.904-40.367-40.447-28.282-62.957 7.232-13.477 24.843-20.516 38.292-16.741.308.083.61.175.911.274 9.481-12.918 22.523-25.244 38.823-22.933 19.297 2.741 30.346 28.326 35.869 45.933 9.276 29.569-3.515 54.513-21.516 64.618-17.827 10.008-42.59 8.24-64.097-8.194z" fill="#be0000"/><path d="m661.509 215.962c1.768-2.803 3.724-5.74 5.856-8.646 9.481-12.918 22.523-25.244 38.823-22.933 19.297 2.741 30.346 28.326 35.869 45.933 9.276 29.569-3.515 54.513-21.516 64.618-17.828 10.008-42.591 8.241-64.098-8.194-16.883-12.904-40.367-40.447-28.282-62.957 7.232-13.477 24.843-20.516 38.292-16.741.308.083.61.175.911.274.067.019.138.042.207.066" fill="none" stroke="#000" stroke-width="7.2831"/><path d="m666.471 207.073c-.005-.009-.012-.022-.017-.03-10.625-18.906-28.879-31.655-38.221-51.724-6.8-14.608-12.7-31.61-3.385-45.727.035-.06.072-.115.109-.17" fill="none" stroke="#000" stroke-width="7.2831"/><path d="m624.832 109.714c.005-.042.012-.081.017-.123.011-.063.017-.123.024-.19.802-6.594.834-29.813 12.153-23.647 5.021 2.738-6.007 24.768-12.068 23.667-.028 0-.056-.008-.085-.02-.081-.012-.169-.037-.252-.063" fill="none" stroke="#000" stroke-width="7.2831"/></svg>