<svg enable-background="new 0 0 850.394 850.394" height="850.394" viewBox="0 0 850.394 850.394" width="850.394" xmlns="http://www.w3.org/2000/svg"><path d="m802.822 413.735c.951 3.919 1.432 7.869 1.432 11.872 0 5.256-.836 10.44-2.455 15.54-.711 1.265-5.466 9.666-12.321 22.144-3.124 3.898-6.729 7.723-10.784 11.453-14.85 13.731-35.729 26.366-61.479 37.506-9.906 4.295-20.534 8.36-31.81 12.164-11.872 4.034-24.464 7.775-37.705 11.224-21.495 5.602-44.695 10.419-69.263 14.316-12.739 2.027-25.844 3.804-39.272 5.319-36.063 4.086-74.457 6.291-114.283 6.291-.042 0-.073 0-.115 0-39.826 0-78.219-2.205-114.283-6.291-13.428-1.516-26.533-3.292-39.271-5.319-24.579-3.897-47.778-8.715-69.274-14.316-13.24-3.448-25.833-7.2-37.694-11.224-11.286-3.814-21.903-7.869-31.81-12.164-25.76-11.14-46.639-23.784-61.489-37.506-4.034-3.72-7.629-7.523-10.753-11.411-6.887-12.529-11.652-20.963-12.341-22.196-.011-.011-.021-.021-.021-.031-1.609-5.089-2.435-10.262-2.435-15.498 0-4.002.481-7.953 1.432-11.872 3.114-12.927 11.297-25.352 23.816-36.983 7.179-6.678 15.78-13.104 25.676-19.208 10.46-6.479 22.363-12.603 35.551-18.33 9.896-4.316 20.503-8.391 31.779-12.216 49.701-16.909 112.151-29.041 181.655-34.35 14.034-1.076 28.361-1.87 42.929-2.372 11.255-.387 22.646-.596 34.172-.616.784 0 1.578-.011 2.362-.011.836 0 1.661 0 2.487.011 11.516.021 22.917.229 34.161.616 14.567.502 28.895 1.296 42.93 2.372 69.504 5.309 131.964 17.442 181.654 34.351 11.276 3.825 21.883 7.9 31.779 12.216 13.188 5.727 25.08 11.851 35.541 18.319 9.896 6.113 18.507 12.54 25.687 19.218 12.519 11.641 20.702 24.056 23.815 36.982zm-295.3 5.372c0-6.855-11.913-12.415-26.606-12.415-14.683 0-26.596 5.559-26.596 12.415s11.913 12.415 26.596 12.415c14.693-.001 26.606-5.56 26.606-12.415zm-112.192 0c0-6.855-11.914-12.415-26.606-12.415-14.682 0-26.596 5.559-26.596 12.415s11.914 12.415 26.596 12.415c14.692-.001 26.606-5.56 26.606-12.415z" fill="#faa41f"/><path d="m778.693 474.743c4.055-3.73 7.66-7.555 10.784-11.453-9.228 16.763-22.248 40.871-34.392 64.854l-1.034-.522c-63.976 41.718-187.287 70.11-329.222 70.581-141.944-.471-265.256-28.863-329.232-70.581l-1.024.513c-12.143-23.952-25.154-48.05-34.381-64.802 3.125 3.888 6.72 7.691 10.753 11.411 14.85 13.722 35.729 26.366 61.489 37.506 9.907 4.295 20.524 8.35 31.81 12.164 11.861 4.023 24.454 7.775 37.694 11.224 21.496 5.602 44.695 10.419 69.274 14.316 12.739 2.027 25.843 3.804 39.271 5.319 36.064 4.086 74.458 6.291 114.283 6.291h.115c39.826 0 78.219-2.205 114.283-6.291 13.429-1.516 26.533-3.292 39.272-5.319 24.567-3.897 47.768-8.715 69.263-14.316 13.241-3.448 25.833-7.189 37.705-11.224 11.275-3.804 21.903-7.869 31.81-12.164 25.75-11.141 46.63-23.775 61.479-37.507z" fill="#faa41f"/><path d="m424.83 598.202c141.935-.471 265.246-28.863 329.222-70.581l1.034.522c-7.586 14.944-14.817 29.846-20.576 42.877-14.536 32.887-10.648 75.659-16.563 112.309-6.991 43.378-52.01 105.222-291.998 115.86h-2.247c-239.988-10.639-285.007-72.482-292.009-115.86-5.904-36.649-2.017-79.422-16.553-112.309-5.758-13.041-12.989-27.933-20.565-42.887l1.024-.513c63.975 41.719 187.287 70.111 329.231 70.582z" fill="#f6cc4b"/><path d="m480.916 406.692c14.693 0 26.606 5.559 26.606 12.415s-11.913 12.415-26.606 12.415c-14.683 0-26.596-5.559-26.596-12.415s11.913-12.415 26.596-12.415z" fill="#ffeec8"/><path d="m368.723 406.692c14.693 0 26.606 5.559 26.606 12.415s-11.914 12.415-26.606 12.415c-14.682 0-26.596-5.559-26.596-12.415s11.914-12.415 26.596-12.415z" fill="#ffeec8"/><g fill="none"><path d="m47.831 441.104c-1.609-5.089-2.435-10.262-2.435-15.498 0-4.002.481-7.953 1.432-11.872 3.114-12.927 11.297-25.352 23.816-36.983 7.179-6.678 15.78-13.104 25.676-19.208 10.46-6.479 22.363-12.603 35.551-18.33 9.896-4.316 20.503-8.391 31.779-12.216 49.701-16.909 112.151-29.041 181.655-34.35 14.034-1.076 28.361-1.87 42.929-2.372 11.255-.387 22.646-.596 34.172-.616" stroke="#231f20" stroke-width="21.9453"/><path d="m424.768 561.563c-39.826 0-78.219-2.205-114.283-6.291-13.428-1.516-26.533-3.292-39.271-5.319-24.579-3.897-47.778-8.715-69.274-14.316-13.24-3.448-25.833-7.2-37.694-11.224-11.286-3.814-21.903-7.869-31.81-12.164-25.76-11.14-46.639-23.784-61.489-37.506-4.034-3.72-7.629-7.523-10.753-11.411-5.769-7.169-9.938-14.589-12.341-22.196" stroke="#231f20" stroke-width="21.9453"/><path d="m428.425 598.212c-1.201 0-2.403 0-3.595-.01-141.944-.471-265.256-28.863-329.232-70.581" stroke="#231f20" stroke-width="21.9453"/><path d="m388.234 288.47v1.807 40.745" stroke="#231f20" stroke-linecap="round" stroke-linejoin="round" stroke-width="14.6302"/><path d="m344.594 289.515.711 3.134 8.652 38.384" stroke="#231f20" stroke-linecap="round" stroke-linejoin="round" stroke-width="14.6302"/><path d="m309.126 296.61 9.353 41.519" stroke="#231f20" stroke-linecap="round" stroke-linejoin="round" stroke-width="14.6302"/><path d="m270.032 302.724 14.171 40.128" stroke="#231f20" stroke-linecap="round" stroke-linejoin="round" stroke-width="14.6302"/><path d="m236.665 310.206 14.17 40.128" stroke="#231f20" stroke-linecap="round" stroke-linejoin="round" stroke-width="14.6302"/><path d="m201.887 316.842 13.585 40.327" stroke="#231f20" stroke-linecap="round" stroke-linejoin="round" stroke-width="14.6302"/><path d="m163.628 326.958.021.042 18.205 38.404" stroke="#231f20" stroke-linecap="round" stroke-linejoin="round" stroke-width="14.6302"/><path d="m131.212 337.826.659 1.389 17.567 37.067" stroke="#231f20" stroke-linecap="round" stroke-linejoin="round" stroke-width="14.6302"/><path d="m95.88 357.106.439.439 29.982 29.334" stroke="#231f20" stroke-linecap="round" stroke-linejoin="round" stroke-width="14.6302"/><path d="m390.596 559.484v-42.564" stroke="#231f20" stroke-linecap="round" stroke-linejoin="round" stroke-width="14.6302"/><path d="m346.956 558.438 9.363-41.518" stroke="#231f20" stroke-linecap="round" stroke-linejoin="round" stroke-width="14.6302"/><path d="m310.307 556.077.177-.805 9.176-40.713" stroke="#231f20" stroke-linecap="round" stroke-linejoin="round" stroke-width="14.6302"/><path d="m271.213 549.953 14.17-40.128" stroke="#231f20" stroke-linecap="round" stroke-linejoin="round" stroke-width="14.6302"/><path d="m237.846 542.471 14.17-40.118" stroke="#231f20" stroke-linecap="round" stroke-linejoin="round" stroke-width="14.6302"/><path d="m201.876 535.835.063-.198 13.522-40.129" stroke="#231f20" stroke-linecap="round" stroke-linejoin="round" stroke-width="14.6302"/><path d="m163.618 525.729.627-1.316 17.609-37.14" stroke="#231f20" stroke-linecap="round" stroke-linejoin="round" stroke-width="14.6302"/><path d="m131.202 514.852 1.233-2.603 17.003-35.854" stroke="#231f20" stroke-linecap="round" stroke-linejoin="round" stroke-width="14.6302"/><path d="m98.242 492.028 30.421-29.772" stroke="#231f20" stroke-linecap="round" stroke-linejoin="round" stroke-width="14.6302"/><path d="m69.619 375.969 1.024.783 32.678 25.206" stroke="#231f20" stroke-linecap="round" stroke-linejoin="round" stroke-width="14.6302"/><path d="m44.904 413.652 1.923.083 40.599 1.714" stroke="#231f20" stroke-linecap="round" stroke-linejoin="round" stroke-width="14.6302"/><path d="m51.927 447.062 40.421-13.293" stroke="#231f20" stroke-linecap="round" stroke-linejoin="round" stroke-width="14.6302"/><path d="m68.313 476.374 2.633-1.631 33.566-20.754" stroke="#231f20" stroke-linecap="round" stroke-linejoin="round" stroke-width="14.6302"/><path d="m395.33 419.107c0 6.855-11.914 12.415-26.606 12.415-14.682 0-26.596-5.559-26.596-12.415s11.914-12.415 26.596-12.415c14.692 0 26.606 5.559 26.606 12.415z" stroke="#231f20" stroke-width="14.6302"/><path d="m424.768 561.563h.115c39.826 0 78.219-2.205 114.283-6.291 13.429-1.516 26.533-3.292 39.272-5.319 24.567-3.897 47.768-8.715 69.263-14.316 13.241-3.448 25.833-7.189 37.705-11.224 11.275-3.804 21.903-7.869 31.81-12.164 25.749-11.14 46.629-23.774 61.479-37.506 4.055-3.73 7.66-7.555 10.784-11.453 5.759-7.158 9.918-14.557 12.321-22.144 1.619-5.1 2.455-10.283 2.455-15.54 0-4.002-.48-7.953-1.432-11.872-3.113-12.927-11.296-25.341-23.815-36.983-7.18-6.678-15.79-13.104-25.687-19.218-10.461-6.469-22.353-12.592-35.541-18.319-9.896-4.316-20.503-8.391-31.779-12.216-49.69-16.909-112.15-29.041-181.654-34.35-14.035-1.076-28.362-1.87-42.93-2.372-11.244-.387-22.646-.596-34.161-.616-.826-.011-1.651-.011-2.487-.011-.784 0-1.578.011-2.362.011" stroke="#231f20" stroke-width="21.9453"/><path d="m421.225 598.212c1.202 0 2.403 0 3.605-.01 141.935-.471 265.246-28.863 329.222-70.581" stroke="#231f20" stroke-width="21.9453"/><path d="m424.768 288.47v1.18 41.372" stroke="#231f20" stroke-linecap="round" stroke-linejoin="round" stroke-width="14.6302"/><path d="m461.416 288.47v1.807 40.745" stroke="#231f20" stroke-linecap="round" stroke-linejoin="round" stroke-width="14.6302"/><path d="m505.056 289.515-.71 3.134-8.654 38.384" stroke="#231f20" stroke-linecap="round" stroke-linejoin="round" stroke-width="14.6302"/><path d="m540.523 296.61-9.352 41.519" stroke="#231f20" stroke-linecap="round" stroke-linejoin="round" stroke-width="14.6302"/><path d="m579.618 302.724-14.171 40.128" stroke="#231f20" stroke-linecap="round" stroke-linejoin="round" stroke-width="14.6302"/><path d="m612.996 310.206-14.182 40.128" stroke="#231f20" stroke-linecap="round" stroke-linejoin="round" stroke-width="14.6302"/><path d="m647.764 316.842-13.586 40.327" stroke="#231f20" stroke-linecap="round" stroke-linejoin="round" stroke-width="14.6302"/><path d="m686.021 326.958-.021.042-18.204 38.404" stroke="#231f20" stroke-linecap="round" stroke-linejoin="round" stroke-width="14.6302"/><path d="m718.438 337.826-.659 1.389-17.566 37.067" stroke="#231f20" stroke-linecap="round" stroke-linejoin="round" stroke-width="14.6302"/><path d="m753.759 357.106-.439.429-29.97 29.344" stroke="#231f20" stroke-linecap="round" stroke-linejoin="round" stroke-width="14.6302"/><path d="m422.406 559.484v-42.564" stroke="#231f20" stroke-linecap="round" stroke-linejoin="round" stroke-width="14.6302"/><path d="m459.055 559.484v-42.564" stroke="#231f20" stroke-linecap="round" stroke-linejoin="round" stroke-width="14.6302"/><path d="m502.684 558.438-9.353-41.518" stroke="#231f20" stroke-linecap="round" stroke-linejoin="round" stroke-width="14.6302"/><path d="m539.343 556.077-.178-.805-9.175-40.713" stroke="#231f20" stroke-linecap="round" stroke-linejoin="round" stroke-width="14.6302"/><path d="m578.438 549.953-14.171-40.128" stroke="#231f20" stroke-linecap="round" stroke-linejoin="round" stroke-width="14.6302"/><path d="m611.805 542.471-14.16-40.118" stroke="#231f20" stroke-linecap="round" stroke-linejoin="round" stroke-width="14.6302"/><path d="m647.764 535.835-.064-.198-13.512-40.129" stroke="#231f20" stroke-linecap="round" stroke-linejoin="round" stroke-width="14.6302"/><path d="m686.032 525.729-.627-1.316-17.609-37.14" stroke="#231f20" stroke-linecap="round" stroke-linejoin="round" stroke-width="14.6302"/><path d="m718.448 514.852-1.233-2.603-17.002-35.854" stroke="#231f20" stroke-linecap="round" stroke-linejoin="round" stroke-width="14.6302"/><path d="m751.408 492.028-30.421-29.772" stroke="#231f20" stroke-linecap="round" stroke-linejoin="round" stroke-width="14.6302"/><path d="m780.031 375.969-1.024.783-32.689 25.206" stroke="#231f20" stroke-linecap="round" stroke-linejoin="round" stroke-width="14.6302"/><path d="m804.745 413.652-1.923.083-40.598 1.714" stroke="#231f20" stroke-linecap="round" stroke-linejoin="round" stroke-width="14.6302"/><path d="m797.723 447.062-40.432-13.293" stroke="#231f20" stroke-linecap="round" stroke-linejoin="round" stroke-width="14.6302"/><path d="m781.327 476.374-2.634-1.631-33.545-20.754" stroke="#231f20" stroke-linecap="round" stroke-linejoin="round" stroke-width="14.6302"/><path d="m454.32 419.107c0 6.855 11.913 12.415 26.596 12.415 14.693 0 26.606-5.559 26.606-12.415s-11.913-12.415-26.606-12.415c-14.683 0-26.596 5.559-26.596 12.415z" stroke="#231f20" stroke-width="14.6302"/><path d="m801.893 440.979s-.031.052-.094.167c-.711 1.265-5.466 9.666-12.321 22.144-9.228 16.763-22.248 40.871-34.392 64.854-7.586 14.944-14.817 29.846-20.576 42.877-14.536 32.887-10.648 75.659-16.563 112.309-6.991 43.378-52.01 105.222-291.998 115.86h-2.247c-239.988-10.639-285.007-72.482-292.009-115.86-5.904-36.649-2.017-79.422-16.553-112.309-5.758-13.041-12.989-27.933-20.565-42.887-12.143-23.952-25.154-48.05-34.381-64.802-6.887-12.529-11.652-20.963-12.341-22.196-.011-.011-.021-.021-.021-.031-.052-.084-.073-.125-.073-.125" stroke="#231f20" stroke-width="21.9453"/><path d="m0 0h850.394v850.394h-850.394z"/></g><path d="m534.887 176.334c0-37.029 3.696-74.49 21.574-89.601 22.491-19.004 45.662-16.116 60.633-10.746-15.887-.076-30.577 6.579-41.921 21.06-6.21 7.915-9.124 17.693-11.306 27.275-1.184 5.128-8.138 26.614-5.714 30.698 5.803 9.646 47.488-21.594 52.56-27.333 9.778-11.108 13.297-33.109 22.236-43.753.344.235.521.369.521.369.954-1.342 2.004-2.615 3.155-3.824.287-.318.592-.636.904-.929 17.814-17.688 54.62-19.729 77.028-.242.006 0 .006.006.013.013 22.694 23.458 29.693 55.244 29.693 87.915 0 37.665-21.894 81.063-44.136 108.122l-1.133.884c-7.794 7.794-20.646 12.565-28.21 10.644-7.12-1.807-7.852-12.731-18.521-12.731-5.414 0-3.276 6.19-6.47 9.792-3.519 3.977-6.643 4.556-11.765 5.434-18.247 3.124-33.937-8.71-33.937-8.71-36.224-30.323-65.204-64.718-65.204-104.337z" fill="#00e800"/><path d="m563.867 124.322c2.182-9.582 5.096-19.36 11.306-27.275 11.344-14.481 26.034-21.136 41.921-21.06 8.348 2.997 14.15 6.77 15.855 7.947-8.939 10.644-12.458 32.645-22.236 43.753-5.071 5.739-46.757 36.978-52.56 27.333-2.424-4.084 4.531-25.569 5.714-30.698z" fill="#33a02c"/><path d="m595.818 34.55s17.809 5.745 23.961 14.277c6.954 9.639 9.581 24.838 10.147 28.618.083.56.121.872.121.872" fill="none" stroke="#000" stroke-width="13.6558"/><path d="m637.733 79.614c-.07-.025-.134-.044-.203-.063-2.545-.853-5.084-1.559-7.604-2.106-4.333-.941-8.627-1.438-12.833-1.457-15.887-.076-30.577 6.579-41.921 21.06-6.21 7.915-9.124 17.693-11.306 27.275-1.184 5.128-8.138 26.614-5.714 30.698 5.803 9.646 47.488-21.594 52.56-27.333 9.778-11.108 13.297-33.109 22.236-43.753 1.126-1.349 2.348-2.52 3.677-3.455.013-.013.02-.019.032-.025" fill="none" stroke="#000" stroke-width="13.6558"/><path d="m714.571 79.322c22.694 23.458 29.693 55.244 29.693 87.915 0 37.665-21.894 81.063-44.136 108.122l-1.133.884c-7.794 7.794-20.646 12.565-28.21 10.644-7.12-1.807-7.852-12.731-18.521-12.731-5.414 0-3.276 6.19-6.47 9.792-3.519 3.977-6.643 4.556-11.765 5.434-18.247 3.124-33.937-8.71-33.937-8.71-36.227-30.323-65.207-64.718-65.207-104.336 0-37.029 3.696-74.49 21.574-89.601 22.491-19.004 45.662-16.116 60.633-10.746 8.348 2.997 14.15 6.77 15.855 7.947.344.235.521.369.521.369.954-1.342 2.004-2.615 3.155-3.824.287-.318.592-.636.904-.929 17.814-17.688 54.62-19.729 77.028-.242.009-.001.009.005.016.012.025.019.045.038.07.057l-1.165-1.17c.363.362.726.731 1.082 1.101" fill="none" stroke="#000" stroke-width="13.6558"/></svg>