<svg enable-background="new 0 0 850.394 850.394" height="850.394" viewBox="0 0 850.394 850.394" width="850.394" xmlns="http://www.w3.org/2000/svg"><path d="m544.92 469.57c29.8 0 53.95 16.22 53.95 36.229s-24.15 36.23-53.95 36.23c-29.79 0-53.939-16.221-53.939-36.23s24.149-36.229 53.939-36.229z" fill="#ef3d27"/><path d="m342.58 492.13c29.79 0 53.94 16.22 53.94 36.23s-24.15 36.239-53.94 36.239c-29.8 0-53.95-16.229-53.95-36.239s24.15-36.23 53.95-36.23z" fill="#ef3d27"/><path d="m221.87 396.13c26.01 0 47.1 14.16 47.1 31.63 0 17.471-21.09 31.641-47.1 31.641s-47.1-14.17-47.1-31.641c0-17.47 21.09-31.63 47.1-31.63z" fill="#ef3d27"/><path d="m326.64 322.53c26.01 0 47.1 14.16 47.1 31.63s-21.09 31.64-47.1 31.64c-26.02 0-47.11-14.17-47.11-31.64s21.09-31.63 47.11-31.63z" fill="#ef3d27"/><path d="m553.46 330.29c0 6.39-.74 17.76-14.229 23-3.011-.4-6.021-.79-9.011-1.19 0 0 0 0-.01 0-23.64-3.1-46.63-6.03-66.58-8.49-.72-.09-1.439-.18-2.16-.26l.351-2.73c-1.66-3.24-2.57-6.71-2.57-10.33 0-17.47 21.09-31.63 47.11-31.63 26.009 0 47.099 14.16 47.099 31.63z" fill="#ef3d27"/><path d="m243.09 511.41v11.27c0 3.561-2.88 6.44-6.44 6.44h-15.3c-3.55 0-6.44-2.88-6.44-6.44v-11.27c0-3.57 2.89-6.45 6.44-6.45h15.3c3.56 0 6.44 2.88 6.44 6.45z" fill="#ed1d31"/><path d="m382.66 435.18v11.271c0 3.56-2.89 6.439-6.44 6.439h-15.3c-3.56 0-6.44-2.88-6.44-6.439v-11.271c0-3.56 2.88-6.439 6.44-6.439h15.3c3.55-.001 6.44 2.879 6.44 6.439z" fill="#ed1d31"/><path d="m453.3 558.97v11.28c0 3.55-2.88 6.44-6.439 6.44h-15.301c-3.55 0-6.439-2.891-6.439-6.44v-11.28c0-3.56 2.89-6.439 6.439-6.439h15.301c3.559-.001 6.439 2.879 6.439 6.439z" fill="#ed1d31"/><path d="m600.45 255.9v11.27c0 3.56-2.88 6.44-6.44 6.44h-15.3c-3.55 0-6.44-2.88-6.44-6.44v-11.27c0-3.56 2.891-6.44 6.44-6.44h15.3c3.56 0 6.44 2.88 6.44 6.44z" fill="#ed1d31"/><path d="m638.59 367.09c-29.16-2.39-20.479 55.71-43.88 51.54-13.12-2.34-11.06-30.41-13.2-40.24-2.56-11.76-10.229-20.49-21.84-22.38 28.08 3.78 55.69 7.63 78.92 11.08z" fill="#fbee34"/><path d="m557.76 355.76c-5.22-.7-10.439-1.4-15.66-2.09-.96-.13-1.909-.25-2.869-.38 13.489-5.24 14.229-16.61 14.229-23 0-17.47-21.09-31.63-47.1-31.63-26.021 0-47.11 14.16-47.11 31.63 0 3.62.91 7.09 2.57 10.33l-.351 2.73c-32.95-4.05-57.18-6.76-61.57-6.76-15.51 0-25.22-14.08-6.38-25.54 0 0 22.44-13.62 50.93-31.07 19.76-12.1 42.42-26.04 62.52-38.56 28.32-17.63 51.55-32.44 54.391-35.27.479-.49 1.09-1.09 1.8-1.79l4.01.42s68.43 39.99 97.73 83.92c40.13 60.2 38.31 84.83 34.199 88.94-5.479-1.91-27.51-5.63-57.319-10.08-1.11-.23-2.181-.39-3.19-.47-23.229-3.45-50.84-7.3-78.92-11.08-.57-.1-1.15-.17-1.74-.23-.06-.01-.11-.01-.17-.02zm42.69-88.59v-11.27c0-3.56-2.88-6.44-6.44-6.44h-15.3c-3.55 0-6.44 2.88-6.44 6.44v11.27c0 3.56 2.891 6.44 6.44 6.44h15.3c3.56 0 6.44-2.88 6.44-6.44z" fill="#fbee34"/><path d="m621.12 457.46c10.92 2.85 51.53 4.021 85.32 4.5-8.19 90.94-132.301 163.13-284.2 163.13-157.19 0-284.62-77.32-284.62-172.71 0-95.38 127.43-172.7 284.62-172.7 5.649 0 16.64.1 22.21.29v.01c-28.49 17.45-50.93 31.07-50.93 31.07-18.84 11.46-9.13 25.54 6.38 25.54 4.39 0 28.62 2.71 61.57 6.76.721.08 1.44.17 2.16.26 19.95 2.46 42.94 5.39 66.58 8.49-.92.22-118.86 27.68-124.88 33.7-6.03 6.04-3.22 17.71 16.11 26.57 19.32 8.86 181.16 40.26 199.68 45.09zm-22.25 48.34c0-20.01-24.15-36.229-53.95-36.229-29.79 0-53.939 16.22-53.939 36.229s24.149 36.23 53.939 36.23c29.8 0 53.95-16.22 53.95-36.23zm-145.57 64.45v-11.28c0-3.56-2.88-6.439-6.439-6.439h-15.301c-3.55 0-6.439 2.88-6.439 6.439v11.28c0 3.55 2.89 6.44 6.439 6.44h15.301c3.559 0 6.439-2.89 6.439-6.44zm-70.64-123.8v-11.27c0-3.56-2.89-6.439-6.44-6.439h-15.3c-3.56 0-6.44 2.88-6.44 6.439v11.271c0 3.56 2.88 6.439 6.44 6.439h15.3c3.55 0 6.44-2.88 6.44-6.44zm13.86 81.91c0-20.011-24.15-36.23-53.94-36.23-29.8 0-53.95 16.22-53.95 36.23s24.15 36.239 53.95 36.239c29.79.001 53.94-16.229 53.94-36.239zm-22.78-174.2c0-17.47-21.09-31.63-47.1-31.63-26.02 0-47.11 14.16-47.11 31.63s21.09 31.64 47.11 31.64c26.01 0 47.1-14.17 47.1-31.64zm-104.77 73.6c0-17.47-21.09-31.63-47.1-31.63s-47.1 14.16-47.1 31.63c0 17.471 21.09 31.641 47.1 31.641 26.01-.001 47.1-14.171 47.1-31.641zm-25.88 94.92v-11.27c0-3.57-2.88-6.45-6.44-6.45h-15.3c-3.55 0-6.44 2.88-6.44 6.45v11.27c0 3.561 2.89 6.44 6.44 6.44h15.3c3.56 0 6.44-2.88 6.44-6.44z" fill="#fbee34"/><path d="m754.77 462.29c11.28 0 22.73 11.67 22.73 22.92-2.48 14.88-7.7 34.87-18.66 56.5-32.88 64.87-117.41 144.41-334.58 144.41-196.33 0-355.48-101.48-355.48-226.65 0-125.18 159.15-226.65 355.48-226.65 27.45 0 57.04 4.84 82.71 8.6-20.1 12.52-42.76 26.46-62.52 38.56v-.01c-5.57-.19-16.561-.29-22.21-.29-157.19 0-284.62 77.32-284.62 172.7 0 95.39 127.43 172.71 284.62 172.71 151.899 0 276.01-72.189 284.2-163.13 23.5.33 43.71.33 48.33.33z" fill="#f6cc4b"/><path d="m711.09 240.67c35.58 44.7 66.41 97.8 50.96 113.25-21.97 21.97-41.97 31.02-62.95 23.72 4.11-4.11 5.931-28.74-34.199-88.94-29.301-43.93-97.73-83.92-97.73-83.92l-4.01-.42c10.689-10.55 45.229-43.83 52.93-43.83 8.209 0 59.429 35.44 94.999 80.14z" fill="#f6cc4b"/><g fill="none"><path d="m557.76 355.76c-5.22-.7-10.439-1.4-15.66-2.09" stroke="#231f20" stroke-width="14"/><path d="m463.63 343.61c-.72-.09-1.439-.18-2.16-.26-32.95-4.05-57.18-6.76-61.57-6.76-15.51 0-25.22-14.08-6.38-25.54 0 0 22.44-13.62 50.93-31.07 19.76-12.1 42.42-26.04 62.52-38.56 28.32-17.63 51.55-32.44 54.391-35.27.479-.49 1.09-1.09 1.8-1.79 10.689-10.55 45.229-43.83 52.93-43.83 8.21 0 59.43 35.44 95 80.14 35.58 44.7 66.41 97.8 50.96 113.25-21.97 21.97-41.97 31.02-62.95 23.72-5.479-1.91-27.51-5.63-57.319-10.08-1.05-.15-2.11-.31-3.19-.47-23.229-3.45-50.84-7.3-78.92-11.08-.58-.07-1.16-.15-1.74-.23" stroke="#231f20" stroke-width="14"/><path d="m530.21 352.1c-23.64-3.1-46.63-6.03-66.58-8.49" stroke="#231f20" stroke-width="19.3239"/><path d="m542.1 353.67c-.96-.13-1.909-.25-2.869-.38-3.011-.4-6.021-.79-9.011-1.19" stroke="#231f20" stroke-width="19.3239"/><path d="m567.17 204.78s68.43 39.99 97.73 83.92c40.13 60.2 38.31 84.83 34.199 88.94" stroke="#231f20" stroke-width="14"/><path d="m530.22 352.1s0 0-.01 0c-.92.22-118.86 27.68-124.88 33.7-6.03 6.04-3.22 17.71 16.11 26.57 19.32 8.86 181.16 40.26 199.68 45.09 10.92 2.85 51.53 4.021 85.32 4.5 23.5.33 43.71.33 48.329.33 11.28 0 22.73 11.67 22.73 22.92-2.48 14.88-7.7 34.87-18.66 56.5-32.88 64.87-117.41 144.41-334.58 144.41-196.33 0-355.48-101.48-355.48-226.65 0-125.18 159.15-226.65 355.48-226.65 27.45 0 57.04 4.84 82.71 8.6" stroke="#231f20" stroke-width="14"/><path d="m706.44 461.95v.01c-8.19 90.94-132.301 163.13-284.2 163.13-157.19 0-284.62-77.32-284.62-172.71 0-95.38 127.43-172.7 284.62-172.7 5.649 0 16.64.1 22.21.29" stroke="#231f20" stroke-width="14"/><path d="m396.52 528.36c0 20.01-24.15 36.239-53.94 36.239-29.8 0-53.95-16.229-53.95-36.239 0-20.011 24.15-36.23 53.95-36.23 29.79 0 53.94 16.22 53.94 36.23z" stroke="#231f20" stroke-width="14"/><path d="m268.97 427.76c0 17.471-21.09 31.641-47.1 31.641s-47.1-14.17-47.1-31.641c0-17.47 21.09-31.63 47.1-31.63s47.1 14.16 47.1 31.63z" stroke="#231f20" stroke-width="14"/><path d="m373.74 354.16c0 17.47-21.09 31.64-47.1 31.64-26.02 0-47.11-14.17-47.11-31.64s21.09-31.63 47.11-31.63c26.01 0 47.1 14.16 47.1 31.63z" stroke="#231f20" stroke-width="14"/><path d="m461.82 340.62c-1.66-3.24-2.57-6.71-2.57-10.33 0-17.47 21.09-31.63 47.11-31.63 26.01 0 47.1 14.16 47.1 31.63 0 6.39-.74 17.76-14.229 23-.341.13-.681.26-1.04.38" stroke="#231f20" stroke-width="14"/><path d="m598.87 505.8c0 20.01-24.15 36.23-53.95 36.23-29.79 0-53.939-16.221-53.939-36.23s24.149-36.229 53.939-36.229c29.8-.001 53.95 16.219 53.95 36.229z" stroke="#231f20" stroke-width="14"/><path d="m382.66 446.45c0 3.56-2.89 6.439-6.44 6.439h-15.3c-3.56 0-6.44-2.88-6.44-6.439v-11.27c0-3.56 2.88-6.439 6.44-6.439h15.3c3.55 0 6.44 2.88 6.44 6.439z" stroke="#231f20" stroke-width="7"/><path d="m453.3 570.25c0 3.55-2.88 6.44-6.439 6.44h-15.301c-3.55 0-6.439-2.891-6.439-6.44v-11.28c0-3.56 2.89-6.439 6.439-6.439h15.301c3.56 0 6.439 2.88 6.439 6.439z" stroke="#231f20" stroke-width="7"/><path d="m243.09 522.68c0 3.561-2.88 6.44-6.44 6.44h-15.3c-3.55 0-6.44-2.88-6.44-6.44v-11.27c0-3.57 2.89-6.45 6.44-6.45h15.3c3.56 0 6.44 2.88 6.44 6.45z" stroke="#231f20" stroke-width="7"/><path d="m600.45 267.17c0 3.56-2.88 6.44-6.44 6.44h-15.3c-3.55 0-6.44-2.88-6.44-6.44v-11.27c0-3.56 2.891-6.44 6.44-6.44h15.3c3.561 0 6.44 2.88 6.44 6.44z" stroke="#231f20" stroke-width="7"/><path d="m557.76 355.76c.061.01.11.01.17.02.59.06 1.17.13 1.74.23 11.61 1.89 19.28 10.62 21.84 22.38 2.141 9.83.08 37.9 13.2 40.24 23.4 4.17 14.72-53.93 43.88-51.54 1.01.08 2.08.24 3.19.47" stroke="#231f20" stroke-width="14"/><path d="m0 0h850.394v850.394h-850.394z"/></g></svg>