<svg enable-background="new 0 0 850.394 850.394" height="850.394" viewBox="0 0 850.394 850.394" width="850.394" xmlns="http://www.w3.org/2000/svg"><path d="m772.88 445.52v69.221c0 35.83-29.04 64.88-64.88 64.88h-566.67c-35.84 0-64.89-29.05-64.89-64.88v-69.221c0-35.83 29.05-64.89 64.89-64.89h566.67c35.84 0 64.88 29.06 64.88 64.89zm-83.39 78.08c0-4.21-3.41-7.609-7.59-7.609-4.21 0-7.62 3.399-7.62 7.609 0 4.181 3.41 7.591 7.62 7.591 4.18-.001 7.59-3.411 7.59-7.591zm-.2-57.39c0-4.2-3.41-7.61-7.6-7.61-4.2 0-7.61 3.41-7.61 7.61 0 4.19 3.41 7.6 7.61 7.6 4.19 0 7.6-3.41 7.6-7.6zm-.04 28.73c0-4.21-3.41-7.61-7.61-7.61-4.189 0-7.6 3.4-7.6 7.61 0 4.189 3.41 7.59 7.6 7.59 4.2 0 7.61-3.4 7.61-7.59zm-.21-57.39c0-4.2-3.4-7.609-7.6-7.609-4.19 0-7.601 3.409-7.601 7.609 0 4.19 3.41 7.601 7.601 7.601 4.2-.001 7.6-3.411 7.6-7.601zm-27.71 86.12c0-4.21-3.41-7.62-7.6-7.62s-7.601 3.41-7.601 7.62c0 4.18 3.41 7.59 7.601 7.59 4.19 0 7.6-3.41 7.6-7.59zm-.2-57.39c0-4.2-3.41-7.61-7.61-7.61-4.189 0-7.6 3.41-7.6 7.61 0 4.189 3.41 7.6 7.6 7.6 4.2 0 7.61-3.41 7.61-7.6zm-.04 28.72c0-4.2-3.41-7.6-7.609-7.6-4.181 0-7.591 3.399-7.591 7.6s3.41 7.6 7.591 7.6c4.199 0 7.609-3.4 7.609-7.6zm-.2-57.38c0-4.2-3.409-7.61-7.609-7.61-4.19 0-7.601 3.41-7.601 7.61 0 4.189 3.41 7.6 7.601 7.6 4.199 0 7.609-3.41 7.609-7.6zm-27.14 85.78c0-4.2-3.4-7.61-7.6-7.61s-7.601 3.41-7.601 7.61c0 4.189 3.4 7.6 7.601 7.6 4.2 0 7.6-3.41 7.6-7.6zm-.2-57.39c0-4.2-3.399-7.609-7.6-7.609s-7.601 3.409-7.601 7.609c0 4.19 3.4 7.601 7.601 7.601s7.6-3.411 7.6-7.601zm-.05 28.73c0-4.2-3.4-7.61-7.59-7.61-4.2 0-7.61 3.41-7.61 7.61 0 4.189 3.41 7.6 7.61 7.6 4.19 0 7.59-3.41 7.59-7.6zm-.2-57.39c0-4.199-3.399-7.6-7.59-7.6-4.21 0-7.61 3.4-7.61 7.6s3.4 7.601 7.61 7.601c4.19-.001 7.59-3.401 7.59-7.601zm-26.85 86.32c0-4.21-3.41-7.61-7.601-7.61-4.199 0-7.609 3.4-7.609 7.61 0 4.19 3.41 7.59 7.609 7.59 4.191 0 7.601-3.4 7.601-7.59zm-.2-57.39c0-4.2-3.41-7.61-7.6-7.61-4.2 0-7.61 3.41-7.61 7.61 0 4.189 3.41 7.6 7.61 7.6 4.19 0 7.6-3.41 7.6-7.6zm-.04 28.73c0-4.2-3.41-7.609-7.61-7.609-4.189 0-7.6 3.409-7.6 7.609 0 4.19 3.41 7.601 7.6 7.601 4.2-.001 7.61-3.411 7.61-7.601zm-.21-57.39c0-4.2-3.4-7.601-7.6-7.601-4.19 0-7.601 3.4-7.601 7.601s3.41 7.6 7.601 7.6c4.2 0 7.6-3.4 7.6-7.6zm-43.72 53.05v-21.62c0-35.84-29.061-64.89-64.88-64.89h-147.09c-35.83 0-64.89 29.05-64.89 64.89v21.62c0 35.84 29.06 64.89 64.89 64.89h147.09c35.82 0 64.88-29.05 64.88-64.89zm-306.32 32.72c0-4.199-3.41-7.609-7.59-7.609-4.21 0-7.62 3.41-7.62 7.609 0 4.19 3.41 7.591 7.62 7.591 4.18-.001 7.59-3.401 7.59-7.591zm-.2-57.39c0-4.2-3.41-7.6-7.59-7.6-4.21 0-7.62 3.399-7.62 7.6 0 4.19 3.41 7.6 7.62 7.6 4.18 0 7.59-3.41 7.59-7.6zm-.04 28.73c0-4.2-3.41-7.61-7.6-7.61-4.2 0-7.61 3.41-7.61 7.61 0 4.189 3.41 7.6 7.61 7.6 4.19 0 7.6-3.41 7.6-7.6zm-.2-57.38c0-4.21-3.41-7.609-7.61-7.609-4.19 0-7.6 3.399-7.6 7.609 0 4.19 3.41 7.591 7.6 7.591 4.2-.001 7.61-3.401 7.61-7.591zm-27.72 86.11c0-4.21-3.41-7.61-7.6-7.61s-7.6 3.4-7.6 7.61c0 4.19 3.41 7.59 7.6 7.59s7.6-3.4 7.6-7.59zm-.2-57.39c0-4.2-3.41-7.601-7.61-7.601-4.19 0-7.59 3.4-7.59 7.601 0 4.189 3.4 7.6 7.59 7.6 4.2 0 7.61-3.41 7.61-7.6zm-.04 28.73c0-4.2-3.41-7.609-7.6-7.609s-7.6 3.409-7.6 7.609c0 4.19 3.41 7.59 7.6 7.59s7.6-3.4 7.6-7.59zm-.2-57.38c0-4.21-3.41-7.61-7.61-7.61-4.19 0-7.59 3.4-7.59 7.61 0 4.19 3.4 7.59 7.59 7.59 4.2 0 7.61-3.4 7.61-7.59zm-27.14 85.77c0-4.2-3.4-7.601-7.59-7.601-4.21 0-7.61 3.4-7.61 7.601 0 4.189 3.4 7.6 7.61 7.6 4.19 0 7.59-3.41 7.59-7.6zm-.2-57.38c0-4.21-3.4-7.609-7.59-7.609-4.21 0-7.61 3.399-7.61 7.609 0 4.19 3.4 7.591 7.61 7.591 4.19-.001 7.59-3.401 7.59-7.591zm-.04 28.73c0-4.21-3.41-7.61-7.6-7.61-4.2 0-7.61 3.4-7.61 7.61 0 4.18 3.41 7.59 7.61 7.59 4.19 0 7.6-3.41 7.6-7.59zm-.2-57.39c0-4.2-3.41-7.61-7.6-7.61-4.2 0-7.61 3.41-7.61 7.61 0 4.189 3.41 7.6 7.61 7.6 4.19 0 7.6-3.41 7.6-7.6zm-26.85 86.31c0-4.2-3.41-7.61-7.61-7.61-4.19 0-7.6 3.41-7.6 7.61 0 4.19 3.41 7.6 7.6 7.6 4.2 0 7.61-3.41 7.61-7.6zm-.21-57.38c0-4.21-3.41-7.61-7.6-7.61-4.2 0-7.61 3.4-7.61 7.61 0 4.189 3.41 7.59 7.61 7.59 4.19 0 7.6-3.4 7.6-7.59zm-.04 28.72c0-4.2-3.4-7.6-7.6-7.6s-7.6 3.399-7.6 7.6 3.4 7.601 7.6 7.601c4.2-.001 7.6-3.401 7.6-7.601zm-.2-57.38c0-4.2-3.41-7.61-7.6-7.61-4.2 0-7.61 3.41-7.61 7.61 0 4.19 3.41 7.6 7.61 7.6 4.19 0 7.6-3.41 7.6-7.6z" fill="#ef947d"/><path d="m681.9 515.99c4.18 0 7.59 3.399 7.59 7.609 0 4.181-3.41 7.591-7.59 7.591-4.21 0-7.62-3.41-7.62-7.591 0-4.209 3.41-7.609 7.62-7.609z" fill="#231f20"/><path d="m681.69 458.6c4.189 0 7.6 3.41 7.6 7.61 0 4.19-3.41 7.6-7.6 7.6-4.2 0-7.61-3.409-7.61-7.6 0-4.2 3.41-7.61 7.61-7.61z" fill="#231f20"/><path d="m681.64 487.33c4.2 0 7.61 3.4 7.61 7.61 0 4.189-3.41 7.59-7.61 7.59-4.189 0-7.6-3.4-7.6-7.59 0-4.21 3.41-7.61 7.6-7.61z" fill="#231f20"/><path d="m681.44 429.94c4.199 0 7.6 3.409 7.6 7.609 0 4.19-3.4 7.601-7.6 7.601-4.19 0-7.601-3.41-7.601-7.601.001-4.199 3.411-7.609 7.601-7.609z" fill="#231f20"/><path d="m653.73 516.05c4.189 0 7.6 3.41 7.6 7.62 0 4.18-3.41 7.59-7.6 7.59s-7.601-3.41-7.601-7.59c.001-4.21 3.411-7.62 7.601-7.62z" fill="#231f20"/><path d="m653.52 458.67c4.2 0 7.61 3.41 7.61 7.61 0 4.189-3.41 7.6-7.61 7.6-4.189 0-7.6-3.41-7.6-7.6 0-4.2 3.41-7.61 7.6-7.61z" fill="#231f20"/><path d="m653.48 487.4c4.199 0 7.609 3.399 7.609 7.6s-3.41 7.6-7.609 7.6c-4.181 0-7.591-3.399-7.591-7.6s3.411-7.6 7.591-7.6z" fill="#231f20"/><path d="m653.28 430.01c4.2 0 7.609 3.41 7.609 7.61 0 4.189-3.409 7.6-7.609 7.6-4.19 0-7.601-3.41-7.601-7.6.001-4.2 3.411-7.61 7.601-7.61z" fill="#231f20"/><path d="m626.15 515.79c4.199 0 7.6 3.41 7.6 7.61 0 4.189-3.4 7.6-7.6 7.6s-7.601-3.41-7.601-7.6c.001-4.2 3.401-7.61 7.601-7.61z" fill="#231f20"/><path d="m625.95 458.4c4.2 0 7.6 3.409 7.6 7.609 0 4.19-3.399 7.601-7.6 7.601s-7.601-3.41-7.601-7.601c.001-4.199 3.401-7.609 7.601-7.609z" fill="#231f20"/><path d="m625.91 487.13c4.189 0 7.59 3.41 7.59 7.61 0 4.189-3.4 7.6-7.59 7.6-4.2 0-7.61-3.41-7.61-7.6 0-4.2 3.41-7.61 7.61-7.61z" fill="#231f20"/><path d="m625.71 429.75c4.19 0 7.59 3.4 7.59 7.6s-3.399 7.601-7.59 7.601c-4.21 0-7.61-3.4-7.61-7.601 0-4.2 3.4-7.6 7.61-7.6z" fill="#231f20"/><path d="m598.85 516.06c4.19 0 7.601 3.4 7.601 7.61 0 4.19-3.41 7.59-7.601 7.59-4.199 0-7.609-3.399-7.609-7.59-.001-4.21 3.409-7.61 7.609-7.61z" fill="#231f20"/><path d="m598.65 458.67c4.189 0 7.6 3.41 7.6 7.61 0 4.189-3.41 7.6-7.6 7.6-4.2 0-7.61-3.41-7.61-7.6 0-4.2 3.41-7.61 7.61-7.61z" fill="#231f20"/><path d="m598.6 487.4c4.2 0 7.61 3.409 7.61 7.609 0 4.19-3.41 7.601-7.61 7.601-4.189 0-7.6-3.41-7.6-7.601 0-4.199 3.41-7.609 7.6-7.609z" fill="#231f20"/><path d="m598.4 430.02c4.199 0 7.6 3.4 7.6 7.601s-3.4 7.6-7.6 7.6c-4.19 0-7.601-3.399-7.601-7.6s3.411-7.601 7.601-7.601z" fill="#231f20"/><path d="m562.28 469.05v21.62c0 35.84-29.061 64.89-64.88 64.89h-147.09c-35.83 0-64.89-29.05-64.89-64.89v-21.62c0-35.84 29.06-64.89 64.89-64.89h147.09c35.82 0 64.88 29.05 64.88 64.89zm-56.63 54.61c0-4.2-3.41-7.61-7.601-7.61-4.2 0-7.609 3.41-7.609 7.61 0 4.189 3.409 7.6 7.609 7.6 4.191 0 7.601-3.41 7.601-7.6zm-.21-57.39c0-4.199-3.41-7.6-7.591-7.6-4.21 0-7.609 3.4-7.609 7.6s3.399 7.601 7.609 7.601c4.181-.001 7.591-3.401 7.591-7.601zm-.03 28.73c0-4.2-3.41-7.61-7.61-7.61-4.189 0-7.6 3.41-7.6 7.61 0 4.19 3.41 7.6 7.6 7.6 4.2 0 7.61-3.41 7.61-7.6zm-.21-57.38c0-4.2-3.41-7.61-7.601-7.61-4.199 0-7.609 3.41-7.609 7.61 0 4.189 3.41 7.6 7.609 7.6 4.191 0 7.601-3.41 7.601-7.6zm-47.18 86.11c0-4.2-3.409-7.61-7.6-7.61-4.2 0-7.61 3.41-7.61 7.61 0 4.189 3.41 7.6 7.61 7.6 4.19 0 7.6-3.41 7.6-7.6zm-.2-57.39c0-4.2-3.41-7.6-7.61-7.6-4.19 0-7.6 3.399-7.6 7.6s3.409 7.601 7.6 7.601c4.2-.001 7.61-3.401 7.61-7.601zm-.04 28.74c0-4.21-3.41-7.62-7.601-7.62-4.199 0-7.609 3.41-7.609 7.62 0 4.18 3.41 7.59 7.609 7.59 4.191 0 7.601-3.41 7.601-7.59zm-.2-57.39c0-4.2-3.41-7.61-7.61-7.61-4.189 0-7.6 3.41-7.6 7.61 0 4.189 3.41 7.6 7.6 7.6 4.2 0 7.61-3.41 7.61-7.6zm-53.09 85.77c0-4.2-3.41-7.6-7.6-7.6-4.2 0-7.61 3.399-7.61 7.6s3.41 7.6 7.61 7.6c4.19 0 7.6-3.4 7.6-7.6zm-.2-57.38c0-4.2-3.41-7.61-7.6-7.61-4.2 0-7.61 3.41-7.61 7.61 0 4.189 3.41 7.6 7.61 7.6 4.19 0 7.6-3.41 7.6-7.6zm-.04 28.73c0-4.21-3.41-7.609-7.61-7.609-4.19 0-7.6 3.399-7.6 7.609 0 4.19 3.41 7.601 7.6 7.601 4.2-.001 7.61-3.411 7.61-7.601zm-.21-57.39c0-4.2-3.4-7.61-7.6-7.61-4.19 0-7.6 3.41-7.6 7.61 0 4.19 3.41 7.6 7.6 7.6 4.2 0 7.6-3.41 7.6-7.6zm-46.32 86.32c0-4.21-3.4-7.62-7.6-7.62s-7.6 3.41-7.6 7.62c0 4.18 3.4 7.59 7.6 7.59s7.6-3.41 7.6-7.59zm-.2-57.39c0-4.199-3.41-7.609-7.6-7.609-4.2 0-7.61 3.41-7.61 7.609 0 4.19 3.41 7.601 7.61 7.601 4.19-.001 7.6-3.411 7.6-7.601zm-.05 28.73c0-4.21-3.4-7.61-7.59-7.61-4.21 0-7.61 3.4-7.61 7.61 0 4.189 3.4 7.59 7.61 7.59 4.19 0 7.59-3.4 7.59-7.59zm-.2-57.39c0-4.2-3.4-7.61-7.59-7.61-4.21 0-7.61 3.41-7.61 7.61 0 4.189 3.4 7.6 7.61 7.6 4.19 0 7.59-3.41 7.59-7.6z" fill="#ffeec8"/><g fill="#231f20"><path d="m498.05 516.05c4.19 0 7.601 3.41 7.601 7.61 0 4.189-3.41 7.6-7.601 7.6-4.2 0-7.609-3.41-7.609-7.6-.001-4.2 3.409-7.61 7.609-7.61z"/><path d="m497.85 458.67c4.181 0 7.591 3.4 7.591 7.6s-3.41 7.601-7.591 7.601c-4.21 0-7.609-3.4-7.609-7.601-.001-4.2 3.399-7.6 7.609-7.6z"/><path d="m497.8 487.39c4.2 0 7.61 3.41 7.61 7.61 0 4.19-3.41 7.6-7.61 7.6-4.189 0-7.6-3.409-7.6-7.6 0-4.2 3.41-7.61 7.6-7.61z"/><path d="m497.6 430.01c4.19 0 7.601 3.41 7.601 7.61 0 4.189-3.41 7.6-7.601 7.6-4.199 0-7.609-3.41-7.609-7.6-.001-4.2 3.409-7.61 7.609-7.61z"/><path d="m450.42 516.12c4.19 0 7.6 3.41 7.6 7.61 0 4.189-3.409 7.6-7.6 7.6-4.2 0-7.61-3.41-7.61-7.6 0-4.2 3.41-7.61 7.61-7.61z"/><path d="m450.21 458.74c4.2 0 7.61 3.399 7.61 7.6s-3.41 7.601-7.61 7.601c-4.19 0-7.6-3.4-7.6-7.601s3.41-7.6 7.6-7.6z"/><path d="m450.18 487.46c4.19 0 7.601 3.41 7.601 7.62 0 4.18-3.41 7.59-7.601 7.59-4.199 0-7.609-3.41-7.609-7.59-.001-4.21 3.409-7.62 7.609-7.62z"/><path d="m449.97 430.08c4.2 0 7.61 3.41 7.61 7.61 0 4.189-3.41 7.6-7.61 7.6-4.189 0-7.6-3.41-7.6-7.6 0-4.2 3.41-7.61 7.6-7.61z"/><path d="m396.89 515.86c4.19 0 7.6 3.399 7.6 7.6s-3.41 7.6-7.6 7.6c-4.2 0-7.61-3.399-7.61-7.6s3.41-7.6 7.61-7.6z"/><path d="m396.69 458.47c4.19 0 7.6 3.41 7.6 7.61 0 4.189-3.41 7.6-7.6 7.6-4.2 0-7.61-3.41-7.61-7.6 0-4.2 3.41-7.61 7.61-7.61z"/><path d="m396.64 487.2c4.2 0 7.61 3.399 7.61 7.609 0 4.19-3.41 7.601-7.61 7.601-4.19 0-7.6-3.41-7.6-7.601 0-4.209 3.41-7.609 7.6-7.609z"/><path d="m396.44 429.81c4.2 0 7.6 3.41 7.6 7.61 0 4.19-3.4 7.6-7.6 7.6-4.19 0-7.6-3.409-7.6-7.6 0-4.2 3.41-7.61 7.6-7.61z"/><path d="m350.12 516.12c4.2 0 7.6 3.41 7.6 7.62 0 4.18-3.4 7.59-7.6 7.59s-7.6-3.41-7.6-7.59c0-4.21 3.4-7.62 7.6-7.62z"/><path d="m349.92 458.74c4.19 0 7.6 3.41 7.6 7.609 0 4.19-3.41 7.601-7.6 7.601-4.2 0-7.61-3.41-7.61-7.601 0-4.199 3.41-7.609 7.61-7.609z"/><path d="m349.88 487.47c4.19 0 7.59 3.4 7.59 7.61 0 4.189-3.4 7.59-7.59 7.59-4.21 0-7.61-3.4-7.61-7.59 0-4.21 3.4-7.61 7.61-7.61z"/><path d="m349.68 430.08c4.19 0 7.59 3.41 7.59 7.61 0 4.189-3.4 7.6-7.59 7.6-4.21 0-7.61-3.41-7.61-7.6 0-4.2 3.4-7.61 7.61-7.61z"/><path d="m248.37 515.78c4.18 0 7.59 3.41 7.59 7.609 0 4.19-3.41 7.591-7.59 7.591-4.21 0-7.62-3.4-7.62-7.591 0-4.199 3.41-7.609 7.62-7.609z"/><path d="m248.17 458.4c4.18 0 7.59 3.399 7.59 7.6 0 4.19-3.41 7.6-7.59 7.6-4.21 0-7.62-3.409-7.62-7.6 0-4.2 3.41-7.6 7.62-7.6z"/><path d="m248.12 487.12c4.19 0 7.6 3.41 7.6 7.61 0 4.189-3.41 7.6-7.6 7.6-4.2 0-7.61-3.41-7.61-7.6 0-4.2 3.41-7.61 7.61-7.61z"/><path d="m247.91 429.74c4.2 0 7.61 3.399 7.61 7.609 0 4.19-3.41 7.591-7.61 7.591-4.19 0-7.6-3.4-7.6-7.591 0-4.209 3.41-7.609 7.6-7.609z"/><path d="m220.2 515.85c4.19 0 7.6 3.4 7.6 7.61 0 4.19-3.41 7.59-7.6 7.59s-7.6-3.399-7.6-7.59c0-4.21 3.41-7.61 7.6-7.61z"/><path d="m219.99 458.47c4.2 0 7.61 3.4 7.61 7.601 0 4.189-3.41 7.6-7.61 7.6-4.19 0-7.59-3.41-7.59-7.6 0-4.201 3.4-7.601 7.59-7.601z"/><path d="m219.96 487.19c4.19 0 7.6 3.409 7.6 7.609 0 4.19-3.41 7.59-7.6 7.59s-7.6-3.399-7.6-7.59c0-4.199 3.41-7.609 7.6-7.609z"/><path d="m219.75 429.81c4.2 0 7.61 3.4 7.61 7.61 0 4.19-3.41 7.59-7.61 7.59-4.19 0-7.59-3.399-7.59-7.59 0-4.21 3.4-7.61 7.59-7.61z"/><path d="m192.63 515.59c4.19 0 7.59 3.4 7.59 7.601 0 4.189-3.4 7.6-7.59 7.6-4.21 0-7.61-3.41-7.61-7.6 0-4.201 3.4-7.601 7.61-7.601z"/><path d="m192.43 458.2c4.19 0 7.59 3.399 7.59 7.609 0 4.19-3.4 7.591-7.59 7.591-4.21 0-7.61-3.4-7.61-7.591 0-4.209 3.4-7.609 7.61-7.609z"/><path d="m192.38 486.93c4.19 0 7.6 3.4 7.6 7.61 0 4.18-3.41 7.59-7.6 7.59-4.2 0-7.61-3.41-7.61-7.59 0-4.21 3.41-7.61 7.61-7.61z"/><path d="m192.18 429.54c4.19 0 7.6 3.41 7.6 7.61 0 4.189-3.41 7.6-7.6 7.6-4.2 0-7.61-3.41-7.61-7.6 0-4.2 3.41-7.61 7.61-7.61z"/><path d="m165.32 515.85c4.2 0 7.61 3.41 7.61 7.61 0 4.19-3.41 7.6-7.61 7.6-4.19 0-7.6-3.409-7.6-7.6 0-4.2 3.41-7.61 7.6-7.61z"/><path d="m165.12 458.47c4.19 0 7.6 3.4 7.6 7.61 0 4.189-3.41 7.59-7.6 7.59-4.2 0-7.61-3.4-7.61-7.59 0-4.21 3.41-7.61 7.61-7.61z"/><path d="m165.08 487.2c4.2 0 7.6 3.399 7.6 7.6s-3.4 7.601-7.6 7.601-7.6-3.4-7.6-7.601 3.4-7.6 7.6-7.6z"/><path d="m164.88 429.81c4.19 0 7.6 3.41 7.6 7.61 0 4.19-3.41 7.6-7.6 7.6-4.2 0-7.61-3.409-7.61-7.6 0-4.2 3.41-7.61 7.61-7.61z"/></g><path d="m708 380.63c35.84 0 64.88 29.06 64.88 64.89v69.221c0 35.83-29.04 64.88-64.88 64.88h-566.67c-35.84 0-64.89-29.05-64.89-64.88v-69.221c0-35.83 29.05-64.89 64.89-64.89z" fill="none" stroke="#231f20" stroke-width="14"/><path d="m497.4 404.16c35.819 0 64.88 29.05 64.88 64.89v21.62c0 35.84-29.061 64.89-64.88 64.89h-147.09c-35.83 0-64.89-29.05-64.89-64.89v-21.62c0-35.84 29.06-64.89 64.89-64.89z" fill="none" stroke="#231f20" stroke-width="14"/><path d="m0 0h850.394v850.394h-850.394z" fill="none"/><path d="m770.984 147.907v30.622l-25.154 4.374v32.372l-27.996 5.686v-33.685l-26.468 4.813v-31.277l25.373-4.374v-30.404l27.563-4.376v30.404z" fill="#fff"/><path d="m757.703 68.067c.454-.014.919-.021 1.388-.021 7.908 0 14.323 2.042 14.323 4.56 0 2.514-6.415 4.556-14.323 4.556-7.912 0-14.327-2.042-14.327-4.556 0-2.37 5.678-4.317 12.939-4.539z" fill="#231f20"/><path d="m660.113 86.714c-7.911 0-14.327-2.042-14.327-4.56s6.416-4.556 14.327-4.556c.947 0 1.87.028 2.765.084 6.588.408 11.56 2.253 11.56 4.472 0 2.518-6.413 4.56-14.325 4.56z" fill="#231f20"/><path d="m641.466 280.541v-180.369l175.184-19.594v161.929zm129.518-102.012v-30.623l-26.683 4.155v-30.404l-27.563 4.376v30.404l-25.373 4.373v31.277l26.468-4.813v33.686l27.996-5.687v-32.372z" fill="#34a047"/><path d="m757.703 68.067c-7.261.222-12.939 2.169-12.939 4.539 0 2.514 6.415 4.556 14.327 4.556 7.908 0 14.323-2.042 14.323-4.556 0-2.518-6.415-4.56-14.323-4.56-.469 0-.934.007-1.388.021zm-97.59 9.532c-7.911 0-14.327 2.039-14.327 4.556s6.416 4.56 14.327 4.56c7.912 0 14.324-2.042 14.324-4.56 0-2.218-4.972-4.063-11.56-4.472-.894-.056-1.816-.084-2.764-.084zm-18.647 22.573v180.369l-38.006-44.95.138-164.373 65.351-5.954 82.117-7.479 15.451-1.408 50.791 22.728-.658 1.472z" fill="#34a047"/><path d="m641.466 100.172v180.369" fill="none" stroke="#231f20" stroke-width="7.3942"/><path d="m818.67 79.715-1.362-.61-50.791-22.728-15.452 1.409-82.117 7.478-65.35 5.954-.138 164.373 38.006 44.95 175.183-38.034v-161.929l-175.183 19.594-34.563-25.644" fill="none" stroke="#231f20" stroke-width="7.3942"/><path d="m744.302 152.062v-30.404l-27.563 4.376v30.404l-25.373 4.374v31.277l26.468-4.813v33.685l27.996-5.686v-32.372l25.154-4.374v-30.622z" fill="none" stroke="#231f20" stroke-width="4.9295"/><path d="m662.878 77.683 6.07-12.419 12.437-25.436 55.565-3.908 14.115 21.866 6.638 10.281" fill="none" stroke="#231f20" stroke-linecap="round" stroke-linejoin="round" stroke-width="14.7884"/><path d="m674.438 82.155c0 2.518-6.412 4.56-14.324 4.56-7.911 0-14.327-2.042-14.327-4.56s6.416-4.556 14.327-4.556c.947 0 1.87.028 2.765.084 6.587.408 11.559 2.254 11.559 4.472z" fill="none" stroke="#231f20" stroke-width="2.6047"/><path d="m773.414 72.606c0 2.514-6.415 4.556-14.323 4.556-7.912 0-14.327-2.042-14.327-4.556 0-2.37 5.679-4.317 12.939-4.539.454-.014.919-.021 1.388-.021 7.908 0 14.323 2.042 14.323 4.56z" fill="none" stroke="#231f20" stroke-width="2.6047"/></svg>