<svg enable-background="new 0 0 850.394 850.394" height="850.394" viewBox="0 0 850.394 850.394" width="850.394" xmlns="http://www.w3.org/2000/svg"><path d="m203 63.71v720.91h-51v-720.91zm-13.91 438.12c0-6.41-5.19-11.59-11.6-11.59-6.4 0-11.58 5.18-11.58 11.59 0 6.4 5.18 11.58 11.58 11.58 6.41 0 11.6-5.18 11.6-11.58zm-.2 197.99c0-6.41-5.19-11.59-11.6-11.59-6.4 0-11.58 5.18-11.58 11.59 0 6.39 5.18 11.58 11.58 11.58 6.41 0 11.6-5.19 11.6-11.58zm-.01-359.31c0-6.4-5.19-11.59-11.59-11.59s-11.59 5.19-11.59 11.59c0 6.41 5.19 11.6 11.59 11.6s11.59-5.19 11.59-11.6zm-.2-184.49c0-6.4-5.19-11.58-11.59-11.58s-11.59 5.18-11.59 11.58c0 6.41 5.19 11.6 11.59 11.6s11.59-5.19 11.59-11.6z" fill="#fff"/><g fill="none"><path d="m203 63.71h498.73v720.91h-498.73-51v-720.91z" stroke="#000" stroke-width="20.8625"/><path d="m203 63.71v720.91" stroke="#000" stroke-width="20.8625"/><path d="m188.88 340.51c0 6.41-5.19 11.6-11.59 11.6s-11.59-5.19-11.59-11.6c0-6.4 5.19-11.59 11.59-11.59s11.59 5.19 11.59 11.59z" stroke="#000" stroke-width="13.9083"/><path d="m189.09 501.83c0 6.4-5.19 11.58-11.6 11.58-6.4 0-11.58-5.18-11.58-11.58 0-6.41 5.18-11.59 11.58-11.59 6.41 0 11.6 5.18 11.6 11.59z" stroke="#000" stroke-width="13.9083"/><path d="m188.68 156.02c0 6.41-5.19 11.6-11.59 11.6s-11.59-5.19-11.59-11.6c0-6.4 5.19-11.58 11.59-11.58s11.59 5.18 11.59 11.58z" stroke="#000" stroke-width="13.9083"/><path d="m188.89 699.82c0 6.39-5.19 11.58-11.6 11.58-6.4 0-11.58-5.19-11.58-11.58 0-6.41 5.18-11.59 11.58-11.59 6.41 0 11.6 5.18 11.6 11.59z" stroke="#000" stroke-width="13.9083"/><path d="m0 0h850.394v850.394h-850.394z"/></g></svg>