<svg enable-background="new 0 0 850.394 850.394" height="850.394" viewBox="0 0 850.394 850.394" width="850.394" xmlns="http://www.w3.org/2000/svg"><path d="m368 368.25h113.386v113.386h-113.386z" fill="none"/><path d="m786.911 170.51c7.979 79.711.951 102.402-5.563 102.402-14.933 0-6.954-101.524-6.954-101.524s-4.685 0-6.515-5.417c-9.589-28.108 19.031-106.794 19.031-106.794v111.333z" fill="#c8c8c8"/><path d="m641.03 63.57c57.972 0 104.891 46.992 104.891 104.964 0 57.899-46.919 104.891-104.891 104.891s-104.964-46.992-104.964-104.891c0-57.972 46.993-104.964 104.964-104.964zm61.046 105.11c0-33.817-27.448-61.266-61.339-61.266-33.816 0-61.266 27.449-61.266 61.266 0 33.89 27.449 61.339 61.266 61.339 33.891 0 61.339-27.449 61.339-61.339z" fill="#fff"/><path d="m640.737 107.415c33.891 0 61.339 27.449 61.339 61.266 0 33.89-27.448 61.339-61.339 61.339-33.816 0-61.266-27.449-61.266-61.339.001-33.818 27.45-61.266 61.266-61.266z" fill="#fff"/><path d="m421.66 352.111c199.461 0 361.08 97.791 361.08 218.346 0 120.628-161.618 218.419-361.08 218.419-199.461 0-361.079-97.791-361.079-218.419 0-120.555 161.618-218.346 361.079-218.346zm285.467 219.151c0-86.811-127.802-157.153-285.467-157.153s-285.467 70.342-285.467 157.153c0 86.812 127.801 157.153 285.467 157.153s285.467-70.342 285.467-157.153z" fill="#fff"/><path d="m421.66 414.109c157.666 0 285.467 70.342 285.467 157.153 0 86.812-127.802 157.153-285.467 157.153s-285.467-70.342-285.467-157.153 127.801-157.153 285.467-157.153z" fill="#fff"/><path d="m507.08 124.323c1.171 8.71 9.076 70.562 9.076 107.892 0 28.84-.585 42.162-8.271 42.162-9.077 0-11.858-8.784-11.053-44.284.805-39.087 1.83-57.606 10.027-105.769h.146.075z" fill="#c8c8c8"/><path d="m507.007 123.298s.073.366.073 1.025h-.073c-.073 0-.073 0-.146 0-.001-.293.073-.658.146-1.025z" fill="#fff"/><g fill="none"><path d="m782.739 570.457c0 120.628-161.618 218.419-361.08 218.419-199.461 0-361.079-97.791-361.079-218.419 0-120.555 161.618-218.346 361.079-218.346 199.462 0 361.08 97.791 361.08 218.346z" stroke="#000" stroke-width="21.959"/><path d="m707.127 571.262c0 86.812-127.802 157.153-285.467 157.153s-285.467-70.342-285.467-157.153 127.801-157.153 285.467-157.153 285.467 70.342 285.467 157.153z" stroke="#000" stroke-width="29.2787"/><path d="m745.921 168.534c0 57.899-46.919 104.891-104.891 104.891s-104.964-46.992-104.964-104.891c0-57.972 46.992-104.964 104.964-104.964s104.891 46.992 104.891 104.964z" stroke="#000" stroke-width="9.8416"/><path d="m702.076 168.68c0 33.89-27.448 61.339-61.339 61.339-33.816 0-61.266-27.449-61.266-61.339 0-33.817 27.449-61.266 61.266-61.266 33.891.001 61.339 27.449 61.339 61.266z" stroke="#000" stroke-width="9.8416"/><path d="m781.349 272.913c6.514 0 13.541-22.691 5.563-102.402v-111.333s-28.62 78.686-19.031 106.794c1.83 5.417 6.515 5.417 6.515 5.417s-7.98 101.524 6.953 101.524z" stroke="#000" stroke-width="9.8416"/><path d="m507.08 124.323c10.248-.073 15.298-11.785 14.347-67.927" stroke="#000" stroke-width="9.8416"/><path d="m490.831 56.396s-3.587 67.561 16.029 67.927" stroke="#000" stroke-width="9.8416"/><path d="m506.056 56.543.951 66.755" stroke="#000" stroke-width="9.8416"/><path d="m507.007 123.298c-.073.366-.146.732-.146 1.025-8.197 48.163-9.223 66.682-10.027 105.769-.806 35.5 1.976 44.284 11.053 44.284 7.686 0 8.271-13.322 8.271-42.162 0-37.33-7.905-99.181-9.076-107.892-.002-.657-.075-1.024-.075-1.024z" stroke="#000" stroke-width="9.8416"/><path d="m0 0h850.394v850.394h-850.394z"/></g></svg>