<svg enable-background="new 0 0 850.394 850.394" height="850.394" viewBox="0 0 850.394 850.394" width="850.394" xmlns="http://www.w3.org/2000/svg"><path d="m648.36 396.82v53.42c-55.67 8.75-97.19 30.75-126.801 53.67l-1.76-2.54v-158.34l.07-.09c30.071 22.71 72.251 44.82 128.491 53.88z" fill="#7a7878"/><path d="m681.78 396.05h100.229v58.11h-100.229z" fill="#7a7878"/><path d="m675.96 380.07v92.97c0 6.42-5.2 11.63-11.62 11.63h-4.359c-6.41 0-11.62-5.21-11.62-11.63v-21.37l2.909-1.87c-.97.141-1.939.29-2.909.44v-53.42c1.439.24 2.899.46 4.359.68l-4.359-2.69v-14.74c0-6.42 5.21-11.62 11.62-11.62h4.359c6.42 0 11.62 5.2 11.62 11.62z" fill="#7a7878"/><path d="m648.36 394.81 4.359 2.69c-1.46-.22-2.92-.44-4.359-.68z" fill="#fff"/><path d="m651.27 449.8-2.909 1.87v-1.43c.969-.15 1.939-.3 2.909-.44z" fill="#fff"/><path d="m519.8 501.37 1.76 2.54c-11.939 9.24-21.939 18.64-30.159 27.37l-2.83-1.58v-213.55l.43-.42c8.37 8.6 18.61 17.95 30.87 27.21l-.07.09v158.34z" fill="#7a7878"/><path d="m488.57 529.7 2.83 1.58c-21.131 22.45-30.431 40.55-30.431 40.55h-.969v-292.61c2.14 3.59 11.4 18.39 29 36.51l-.43.42z" fill="#7a7878"/><path d="m460 571.83v12.11c0 5.88-3.99 10.649-8.91 10.649h-109.06c-4.92 0-8.9-4.77-8.9-10.649v-45.09l2.72-39.939c-.89-.13-1.8-.19-2.72-.2v-177.721l1.07-15.77c-.35-.05-.71-.09-1.07-.12v-42.41c0-5.88 3.98-10.65 8.9-10.65h109.06c4.92 0 8.91 4.77 8.91 10.65v15.99l-.49-.3s.16.29.49.84z" fill="#7a7878"/><path d="m460 278.68v.54c-.33-.55-.49-.84-.49-.84z" fill="#fff"/><path d="m335.85 498.91-2.72 39.939v-40.14c.92.011 1.83.071 2.72.201z" fill="#fff"/><path d="m334.2 305.22-1.07 15.77v-15.89c.36.03.72.07 1.07.12z" fill="#fff"/><path d="m333.13 498.71v40.14l-.3 4.4h-150.83v-5.25-36-3.29h150.83z" fill="#231f20"/><path d="m333.13 305.1v15.89l-1.94 28.58h-149.19v-5.57-34-4.98h149.19c.65 0 1.3.03 1.94.08z" fill="#231f20"/><path d="m182 538v5.25h-89.35c-12.3 0-22.27-9.97-22.27-22.27 0-6.15 2.49-11.721 6.52-15.75 4.03-4.03 9.6-6.521 15.75-6.521h89.35v3.291z" fill="#c8c8c8"/><path d="m182 344v5.57h-90.98c-12.31 0-22.28-9.97-22.28-22.28 0-6.15 2.49-11.72 6.52-15.75 4.04-4.03 9.6-6.52 15.76-6.52h90.98v4.98z" fill="#c8c8c8"/><g fill="none"><path d="m331.19 349.57h-149.19-90.98c-12.31 0-22.28-9.97-22.28-22.28 0-6.15 2.49-11.72 6.52-15.75 4.04-4.03 9.6-6.52 15.76-6.52h90.98 149.19c.65 0 1.3.03 1.94.08" stroke="#231f20" stroke-width="21"/><path d="m182 310v34" stroke="#231f20" stroke-width="21"/><path d="m332.83 543.25h-150.83-89.35c-12.3 0-22.27-9.97-22.27-22.27 0-6.15 2.49-11.721 6.52-15.75 4.03-4.03 9.6-6.521 15.75-6.521h89.35 150.83.3" stroke="#231f20" stroke-width="21"/><path d="m182 502v36" stroke="#231f20" stroke-width="21"/><path d="m460 279.22v292.61 12.11c0 5.88-3.99 10.649-8.91 10.649h-109.06c-4.92 0-8.9-4.77-8.9-10.649v-45.09-40.14-177.72-15.89-42.41c0-5.88 3.98-10.65 8.9-10.65h109.06c4.92 0 8.91 4.77 8.91 10.65v15.99" stroke="#231f20" stroke-width="21"/><path d="m459.51 278.38s.16.29.49.84c2.14 3.59 11.4 18.39 29 36.51 8.37 8.6 18.61 17.95 30.87 27.21 30.07 22.71 72.25 44.82 128.49 53.88" stroke="#231f20" stroke-width="21"/><path d="m460.97 571.83s9.3-18.1 30.431-40.55c8.22-8.73 18.22-18.13 30.159-27.37 29.61-22.92 71.131-44.92 126.801-53.67" stroke="#231f20" stroke-width="21"/><path d="m648.36 394.81v-14.74c0-6.42 5.21-11.62 11.62-11.62h4.359c6.42 0 11.62 5.2 11.62 11.62v92.97c0 6.42-5.2 11.63-11.62 11.63h-4.359c-6.41 0-11.62-5.21-11.62-11.63v-21.37-1.43-53.42z" stroke="#231f20" stroke-width="21"/><path d="m681.78 396.05h100.229v58.11h-100.229z" stroke="#231f20" stroke-width="21"/><path d="m488.57 316.15v213.55" stroke="#231f20" stroke-width="21"/><path d="m519.8 343.03v158.34" stroke="#231f20" stroke-width="21"/><path d="m0 0h850.394v850.394h-850.394z"/><path d="m586 380v84" stroke="#231f20" stroke-width="21"/><path d="m554 368v108" stroke="#231f20" stroke-width="21"/></g></svg>