<svg enable-background="new 0 0 850.394 850.394" height="850.394" viewBox="0 0 850.394 850.394" width="850.394" xmlns="http://www.w3.org/2000/svg"><path d="m246.73 766.7c-102.33 0-98.39-196.8-98.39-196.8v-362.79-.17h42.23v352.6s-3.38 173.7 84.48 173.7h140.24 15.21 15.19 140.24c87.86 0 84.48-173.7 84.48-173.7v-352.6h36.8v.4 362.56s3.94 196.8-98.39 196.8h-163.34-17.7-17.71z" fill="#a3d9ff"/><path d="m707.21 206.94h-36.8-479.84-42.23-17.71v-95.36h598.24v95.36z" fill="#0b00ea"/><path d="m670.41 559.54s3.38 173.7-84.48 173.7h-140.24-15.19-15.21-140.24c-87.86 0-84.48-173.7-84.48-173.7v-352.6h479.84z" fill="#a3d9ff"/><g fill="none"><path d="m148.34 206.94h-17.71v-95.36h598.24v95.36h-21.66-36.8-479.84z" stroke="#000" stroke-width="23.615"/><path d="m707.21 207.34v362.56s3.94 196.8-98.39 196.8h-163.34-17.7-17.71-163.34c-102.33 0-98.39-196.8-98.39-196.8v-362.79" stroke="#000" stroke-width="23.615"/><path d="m670.41 206.94v352.6s3.38 173.7-84.48 173.7h-140.24-15.19-15.21-140.24c-87.86 0-84.48-173.7-84.48-173.7v-352.6" stroke="#000" stroke-dasharray="30" stroke-miterlimit="13" stroke-width="23.615"/><path d="m0 0h850.394v850.394h-850.394z"/></g></svg>