<svg enable-background="new 0 0 850.394 850.394" height="850.394" viewBox="0 0 850.394 850.394" width="850.394" xmlns="http://www.w3.org/2000/svg"><path d="m217.72 422.09c10.61-12.13 59.08-69.61 78.5-128.9 22.1-67.48 18.41-102.45 33.38-109.36 14.97-6.9 46.05-8.05 46.05 40.29 0 0 2.25 27.04-5.51 57.72-35.36 32.46-96.3 88.56-152.42 140.25z" fill="#ffeec8"/><path d="m560.07 449.22c3.43 1.42 5.67 3.19 6.35 5.351 5.85 18.529-5.63 37.35-21.89 52.489 0 0-32.141 25.051-36.641 2.881-3.14-15.761-52.609-3.641-77.279 21.01-24.64 24.67-20.07 33.78-44.37 55.81-24.25 22-67.32 29.57-98.18 37.32-31.86 8.02-67.62 3.91-84.98 38.21 0 0-3.1 4.53-4.13 17.7l-108.42-140.701c9.79-9.03 65.59-60.46 127.19-117.2 56.12-51.69 117.06-107.79 152.42-140.25 15.18-13.94 25.64-23.52 28.99-26.52 17.26-15.49 36.62-18.39 77.67-12.07 0 0 258.4 33.28 269.65 34.9 29.05 4.18 18.91 41.8-15.09 43.83l-233.69-16.12-.01.1c27.04 3.77 55.1 8.57 69.3 13.63 6.82 2.39 11.96 5.06 14.57 7.99 12.08 13.58.279 55.78-20.55 57.51l-.03.12c14.09 3.05 24 6.79 25.45 11.37 8.939 28.4-12.11 48.17-26.32 52.61z" fill="#ffeec8"/><g fill="none"><path d="m566.96 319.59c6.82 2.39 11.96 5.06 14.57 7.99 12.08 13.58.279 55.78-20.55 57.51" stroke="#231f20" stroke-width="21"/><path d="m566.96 319.59c-14.2-5.06-42.26-9.86-69.3-13.63-26.12-3.64-51.29-6.31-62.101-7.28" stroke="#231f20" stroke-width="21"/><path d="m89.01 540.69s.52-.48 1.52-1.4c9.79-9.03 65.59-60.46 127.19-117.2 56.12-51.69 117.06-107.79 152.42-140.25 15.18-13.94 25.64-23.52 28.99-26.52 17.26-15.49 36.62-18.39 77.67-12.07 0 0 258.4 33.28 269.65 34.9 29.05 4.18 18.91 41.8-15.09 43.83l-233.69-16.12" stroke="#231f20" stroke-width="21"/><path d="m436.06 373.2s81.921 2.74 124.891 12.01c14.09 3.05 24 6.79 25.45 11.37 8.939 28.4-12.11 48.17-26.32 52.61" stroke="#231f20" stroke-width="21"/><path d="m439.84 446.98s94.25-8.561 120.23 2.239c3.43 1.42 5.67 3.19 6.35 5.351 5.85 18.529-5.63 37.35-21.89 52.489 0 0-32.141 25.051-36.641 2.881-3.14-15.761-52.609-3.641-77.279 21.01-24.64 24.67-20.07 33.78-44.37 55.81-24.25 22-67.32 29.57-98.18 37.32-31.86 8.02-67.62 3.91-84.98 38.21 0 0-3.1 4.53-4.13 17.7" stroke="#231f20" stroke-width="21"/><path d="m215.64 424.43s.74-.81 2.08-2.34c10.61-12.13 59.08-69.61 78.5-128.9 22.1-67.48 18.41-102.45 33.38-109.36 14.97-6.9 46.05-8.05 46.05 40.29 0 0 2.25 27.04-5.51 57.72-.08.33-.16.66-.25.99" stroke="#231f20" stroke-width="21"/><path d="m0 0h850.394v850.394h-850.394z"/></g></svg>