<svg enable-background="new 0 0 850.394 850.394" height="850.394" viewBox="0 0 850.394 850.394" width="850.394" xmlns="http://www.w3.org/2000/svg"><path d="m559.12 307.58v413.09c0 33.24-26.55 60.18-59.311 60.18h-148.119c-32.76 0-59.3-26.939-59.3-60.18v-413.09c0-21.3 10.89-40.01 27.33-50.71 9.22-6 20.2-9.48 31.97-9.48h30.28 88.1 29.739c4.61 0 9.091.53 13.4 1.54 26.301 6.16 45.911 30.08 45.911 58.65zm-24.65 161.72c0-6.62-5.35-11.97-11.97-11.97h-13.68c-3.301 0-6.29 1.34-8.46 3.5-2.16 2.17-3.5 5.16-3.5 8.47 0 6.61 5.359 11.97 11.96 11.97h13.68c6.62 0 11.97-5.36 11.97-11.97zm0 37.99c0-6.62-5.35-11.97-11.97-11.97h-13.68c-3.301 0-6.29 1.34-8.46 3.5-2.16 2.17-3.5 5.16-3.5 8.47 0 6.61 5.359 11.97 11.96 11.97h13.68c6.62 0 11.97-5.36 11.97-11.97zm0 35.7c0-6.62-5.35-11.971-11.97-11.971h-13.68c-3.301 0-6.29 1.341-8.46 3.5-2.16 2.171-3.5 5.16-3.5 8.471 0 6.609 5.359 11.97 11.96 11.97h13.68c6.62 0 11.97-5.36 11.97-11.97zm0 37.99c0-6.62-5.35-11.971-11.97-11.971h-13.68c-3.301 0-6.29 1.34-8.46 3.5-2.16 2.17-3.5 5.16-3.5 8.471 0 6.609 5.359 11.96 11.96 11.96h13.68c6.62 0 11.97-5.35 11.97-11.96zm-18.1-183.52v-96.68c0-15.79-9.89-28.6-22.09-28.6h-137.05c-12.2 0-22.1 12.81-22.1 28.6v96.68c0 15.8 9.9 28.6 22.1 28.6h137.05c12.2 0 22.09-12.8 22.09-28.6zm-38.86 71.84c0-6.62-5.35-11.97-11.97-11.97h-13.67c-3.311 0-6.3 1.34-8.47 3.5-2.16 2.17-3.5 5.16-3.5 8.47 0 6.61 5.35 11.97 11.97 11.97h13.67c6.62 0 11.97-5.36 11.97-11.97zm0 37.99c0-6.62-5.35-11.97-11.97-11.97h-13.67c-3.311 0-6.3 1.34-8.47 3.5-2.16 2.17-3.5 5.16-3.5 8.47 0 6.61 5.35 11.97 11.97 11.97h13.67c6.62 0 11.97-5.36 11.97-11.97zm0 35.7c0-6.62-5.35-11.971-11.97-11.971h-13.67c-3.311 0-6.3 1.341-8.47 3.5-2.16 2.171-3.5 5.16-3.5 8.471 0 6.609 5.35 11.97 11.97 11.97h13.67c6.62 0 11.97-5.36 11.97-11.97zm0 37.99c0-6.62-5.35-11.971-11.97-11.971h-13.67c-3.311 0-6.3 1.34-8.47 3.5-2.16 2.17-3.5 5.16-3.5 8.471 0 6.609 5.35 11.96 11.97 11.96h13.67c6.62 0 11.97-5.35 11.97-11.96zm-66.04-111.32c0-6.61-5.36-11.96-11.97-11.96h-13.68c-3.3 0-6.29 1.34-8.46 3.5-2.16 2.16-3.5 5.16-3.5 8.46 0 6.62 5.36 11.97 11.96 11.97h13.68c6.61 0 11.97-5.35 11.97-11.97zm0 37.99c0-6.61-5.36-11.96-11.97-11.96h-13.68c-3.3 0-6.29 1.34-8.46 3.5-2.16 2.17-3.5 5.149-3.5 8.46 0 6.619 5.36 11.97 11.96 11.97h13.68c6.61 0 11.97-5.35 11.97-11.97zm0 35.7c0-6.609-5.36-11.97-11.97-11.97h-13.68c-3.3 0-6.29 1.34-8.46 3.51-2.16 2.16-3.5 5.15-3.5 8.46 0 6.62 5.36 11.971 11.96 11.971h13.68c6.61-.001 11.97-5.351 11.97-11.971zm0 37.99c0-6.609-5.36-11.96-11.97-11.96h-13.68c-3.3 0-6.29 1.34-8.46 3.5-2.16 2.16-3.5 5.16-3.5 8.46 0 6.62 5.36 11.97 11.96 11.97h13.68c6.61 0 11.97-5.35 11.97-11.97zm-56.96-111.68c0-6.61-5.36-11.96-11.97-11.96h-13.68c-3.3 0-6.3 1.34-8.46 3.5-2.17 2.16-3.51 5.16-3.51 8.46 0 6.62 5.36 11.97 11.97 11.97h13.68c6.61 0 11.97-5.35 11.97-11.97zm0 37.99c0-6.61-5.36-11.96-11.97-11.96h-13.68c-3.3 0-6.3 1.34-8.46 3.5-2.17 2.17-3.51 5.149-3.51 8.46 0 6.619 5.36 11.97 11.97 11.97h13.68c6.61 0 11.97-5.35 11.97-11.97zm0 35.7c0-6.609-5.36-11.97-11.97-11.97h-13.68c-3.3 0-6.3 1.34-8.46 3.51-2.17 2.16-3.51 5.15-3.51 8.46 0 6.62 5.36 11.971 11.97 11.971h13.68c6.61-.001 11.97-5.351 11.97-11.971zm0 37.99c0-6.609-5.36-11.96-11.97-11.96h-13.68c-3.3 0-6.3 1.34-8.46 3.5-2.17 2.16-3.51 5.16-3.51 8.46 0 6.62 5.36 11.97 11.97 11.97h13.68c6.61 0 11.97-5.35 11.97-11.97z" fill="#797878"/><path d="m476.91 168.29 34.25-.09 6.84 77.8-4.79 2.93c-4.31-1.01-8.79-1.54-13.4-1.54h-29.74v-1.31z" fill="#231f20"/><path d="m381.97 242.93v4.46h-30.28c-11.77 0-22.75 3.48-31.97 9.48l-1.72-2.87v-192.58h62.41z" fill="#231f20"/><path d="m522.5 457.33c6.62 0 11.97 5.35 11.97 11.97 0 6.61-5.35 11.97-11.97 11.97h-13.68c-6.601 0-11.96-5.359-11.96-11.97 0-3.31 1.34-6.3 3.5-8.47 2.17-2.16 5.159-3.5 8.46-3.5z" fill="#c8c8c8"/><path d="m522.5 495.32c6.62 0 11.97 5.35 11.97 11.97 0 6.61-5.35 11.97-11.97 11.97h-13.68c-6.601 0-11.96-5.359-11.96-11.97 0-3.31 1.34-6.3 3.5-8.47 2.17-2.16 5.159-3.5 8.46-3.5z" fill="#c8c8c8"/><path d="m522.5 531.02c6.62 0 11.97 5.351 11.97 11.971 0 6.609-5.35 11.97-11.97 11.97h-13.68c-6.601 0-11.96-5.36-11.96-11.97 0-3.311 1.34-6.3 3.5-8.471 2.17-2.159 5.159-3.5 8.46-3.5z" fill="#c8c8c8"/><path d="m522.5 569.01c6.62 0 11.97 5.351 11.97 11.971 0 6.609-5.35 11.96-11.97 11.96h-13.68c-6.601 0-11.96-5.351-11.96-11.96 0-3.311 1.34-6.301 3.5-8.471 2.17-2.16 5.159-3.5 8.46-3.5z" fill="#c8c8c8"/><path d="m465.54 569.01c6.62 0 11.97 5.351 11.97 11.971 0 6.609-5.35 11.96-11.97 11.96h-13.67c-6.62 0-11.97-5.351-11.97-11.96 0-3.311 1.34-6.301 3.5-8.471 2.17-2.16 5.159-3.5 8.47-3.5z" fill="#c8c8c8"/><path d="m465.54 531.02c6.62 0 11.97 5.351 11.97 11.971 0 6.609-5.35 11.97-11.97 11.97h-13.67c-6.62 0-11.97-5.36-11.97-11.97 0-3.311 1.34-6.3 3.5-8.471 2.17-2.159 5.159-3.5 8.47-3.5z" fill="#c8c8c8"/><path d="m465.54 495.32c6.62 0 11.97 5.35 11.97 11.97 0 6.61-5.35 11.97-11.97 11.97h-13.67c-6.62 0-11.97-5.359-11.97-11.97 0-3.31 1.34-6.3 3.5-8.47 2.17-2.16 5.159-3.5 8.47-3.5z" fill="#c8c8c8"/><path d="m465.54 457.33c6.62 0 11.97 5.35 11.97 11.97 0 6.61-5.35 11.97-11.97 11.97h-13.67c-6.62 0-11.97-5.359-11.97-11.97 0-3.31 1.34-6.3 3.5-8.47 2.17-2.16 5.159-3.5 8.47-3.5z" fill="#c8c8c8"/><path d="m399.5 457.7c6.61 0 11.97 5.35 11.97 11.96 0 6.62-5.36 11.97-11.97 11.97h-13.68c-6.6 0-11.96-5.35-11.96-11.97 0-3.3 1.34-6.3 3.5-8.46 2.17-2.16 5.16-3.5 8.46-3.5z" fill="#c8c8c8"/><path d="m399.5 495.69c6.61 0 11.97 5.35 11.97 11.96 0 6.619-5.36 11.97-11.97 11.97h-13.68c-6.6 0-11.96-5.351-11.96-11.97 0-3.311 1.34-6.29 3.5-8.46 2.17-2.16 5.16-3.5 8.46-3.5z" fill="#c8c8c8"/><path d="m399.5 531.38c6.61 0 11.97 5.36 11.97 11.97 0 6.62-5.36 11.971-11.97 11.971h-13.68c-6.6 0-11.96-5.351-11.96-11.971 0-3.31 1.34-6.3 3.5-8.46 2.17-2.17 5.16-3.51 8.46-3.51z" fill="#c8c8c8"/><path d="m399.5 569.38c6.61 0 11.97 5.351 11.97 11.96 0 6.62-5.36 11.97-11.97 11.97h-13.68c-6.6 0-11.96-5.35-11.96-11.97 0-3.3 1.34-6.3 3.5-8.46 2.17-2.16 5.16-3.5 8.46-3.5z" fill="#c8c8c8"/><path d="m342.54 569.38c6.61 0 11.97 5.351 11.97 11.96 0 6.62-5.36 11.97-11.97 11.97h-13.68c-6.61 0-11.97-5.35-11.97-11.97 0-3.3 1.34-6.3 3.51-8.46 2.16-2.16 5.16-3.5 8.46-3.5z" fill="#c8c8c8"/><path d="m342.54 531.38c6.61 0 11.97 5.36 11.97 11.97 0 6.62-5.36 11.971-11.97 11.971h-13.68c-6.61 0-11.97-5.351-11.97-11.971 0-3.31 1.34-6.3 3.51-8.46 2.16-2.17 5.16-3.51 8.46-3.51z" fill="#c8c8c8"/><path d="m342.54 495.69c6.61 0 11.97 5.35 11.97 11.96 0 6.619-5.36 11.97-11.97 11.97h-13.68c-6.61 0-11.97-5.351-11.97-11.97 0-3.311 1.34-6.29 3.51-8.46 2.16-2.16 5.16-3.5 8.46-3.5z" fill="#c8c8c8"/><path d="m342.54 457.7c6.61 0 11.97 5.35 11.97 11.96 0 6.62-5.36 11.97-11.97 11.97h-13.68c-6.61 0-11.97-5.35-11.97-11.97 0-3.3 1.34-6.3 3.51-8.46 2.16-2.16 5.16-3.5 8.46-3.5z" fill="#c8c8c8"/><path d="m516.37 300.78v96.68c0 15.8-9.89 28.6-22.09 28.6h-137.05c-12.2 0-22.1-12.8-22.1-28.6v-96.68c0-15.79 9.9-28.6 22.1-28.6h137.05c12.2 0 22.09 12.81 22.09 28.6z" fill="#c8c8c8"/><g fill="none"><path d="m513.21 248.93c26.3 6.16 45.91 30.08 45.91 58.65v413.09c0 33.24-26.55 60.18-59.311 60.18h-148.119c-32.76 0-59.3-26.939-59.3-60.18v-413.09c0-21.3 10.89-40.01 27.33-50.71 9.22-6 20.2-9.48 31.97-9.48h30.28 88.1 29.739c4.611 0 9.091.53 13.401 1.54z" stroke="#231f20" stroke-width="21"/><path d="m318 254v-192.58h62.41l1.56 181.51" stroke="#231f20" stroke-width="21"/><path d="m518 246-6.84-77.8-34.25.09-6.84 77.79" stroke="#231f20" stroke-width="21"/><path d="m516.37 397.46c0 15.8-9.89 28.6-22.09 28.6h-137.05c-12.2 0-22.1-12.8-22.1-28.6v-96.68c0-15.79 9.9-28.6 22.1-28.6h137.05c12.2 0 22.09 12.81 22.09 28.6z" stroke="#231f20" stroke-width="21"/><path d="m354.51 469.66c0 6.62-5.36 11.97-11.97 11.97h-13.68c-6.61 0-11.97-5.35-11.97-11.97 0-3.3 1.34-6.3 3.51-8.46 2.16-2.16 5.16-3.5 8.46-3.5h13.68c6.61 0 11.97 5.35 11.97 11.96z" stroke="#231f20" stroke-width="13.6786"/><path d="m354.51 507.65c0 6.619-5.36 11.97-11.97 11.97h-13.68c-6.61 0-11.97-5.351-11.97-11.97 0-3.311 1.34-6.29 3.51-8.46 2.16-2.16 5.16-3.5 8.46-3.5h13.68c6.61 0 11.97 5.35 11.97 11.96z" stroke="#231f20" stroke-width="13.6786"/><path d="m354.51 543.35c0 6.62-5.36 11.971-11.97 11.971h-13.68c-6.61 0-11.97-5.351-11.97-11.971 0-3.31 1.34-6.3 3.51-8.46 2.16-2.17 5.16-3.51 8.46-3.51h13.68c6.61 0 11.97 5.36 11.97 11.97z" stroke="#231f20" stroke-width="13.6786"/><path d="m354.51 581.34c0 6.62-5.36 11.97-11.97 11.97h-13.68c-6.61 0-11.97-5.35-11.97-11.97 0-3.3 1.34-6.3 3.51-8.46 2.16-2.16 5.16-3.5 8.46-3.5h13.68c6.61 0 11.97 5.35 11.97 11.96z" stroke="#231f20" stroke-width="13.6786"/><path d="m411.47 469.66c0 6.62-5.36 11.97-11.97 11.97h-13.68c-6.6 0-11.96-5.35-11.96-11.97 0-3.3 1.34-6.3 3.5-8.46 2.17-2.16 5.16-3.5 8.46-3.5h13.68c6.61 0 11.97 5.35 11.97 11.96z" stroke="#231f20" stroke-width="13.6786"/><path d="m411.47 507.65c0 6.619-5.36 11.97-11.97 11.97h-13.68c-6.6 0-11.96-5.351-11.96-11.97 0-3.311 1.34-6.29 3.5-8.46 2.17-2.16 5.16-3.5 8.46-3.5h13.68c6.61 0 11.97 5.35 11.97 11.96z" stroke="#231f20" stroke-width="13.6786"/><path d="m411.47 543.35c0 6.62-5.36 11.971-11.97 11.971h-13.68c-6.6 0-11.96-5.351-11.96-11.971 0-3.31 1.34-6.3 3.5-8.46 2.17-2.17 5.16-3.51 8.46-3.51h13.68c6.61 0 11.97 5.36 11.97 11.97z" stroke="#231f20" stroke-width="13.6786"/><path d="m411.47 581.34c0 6.62-5.36 11.97-11.97 11.97h-13.68c-6.6 0-11.96-5.35-11.96-11.97 0-3.3 1.34-6.3 3.5-8.46 2.17-2.16 5.16-3.5 8.46-3.5h13.68c6.61 0 11.97 5.35 11.97 11.96z" stroke="#231f20" stroke-width="13.6786"/><path d="m477.51 469.3c0 6.61-5.35 11.97-11.97 11.97h-13.67c-6.62 0-11.97-5.359-11.97-11.97 0-3.31 1.34-6.3 3.5-8.47 2.17-2.16 5.159-3.5 8.47-3.5h13.67c6.62 0 11.97 5.35 11.97 11.97z" stroke="#231f20" stroke-width="13.6786"/><path d="m477.51 507.29c0 6.61-5.35 11.97-11.97 11.97h-13.67c-6.62 0-11.97-5.359-11.97-11.97 0-3.31 1.34-6.3 3.5-8.47 2.17-2.16 5.159-3.5 8.47-3.5h13.67c6.62 0 11.97 5.35 11.97 11.97z" stroke="#231f20" stroke-width="13.6786"/><path d="m477.51 542.99c0 6.609-5.35 11.97-11.97 11.97h-13.67c-6.62 0-11.97-5.36-11.97-11.97 0-3.311 1.34-6.3 3.5-8.471 2.17-2.159 5.159-3.5 8.47-3.5h13.67c6.62.001 11.97 5.351 11.97 11.971z" stroke="#231f20" stroke-width="13.6786"/><path d="m477.51 580.98c0 6.609-5.35 11.96-11.97 11.96h-13.67c-6.62 0-11.97-5.351-11.97-11.96 0-3.311 1.34-6.301 3.5-8.471 2.17-2.16 5.159-3.5 8.47-3.5h13.67c6.62.001 11.97 5.351 11.97 11.971z" stroke="#231f20" stroke-width="13.6786"/><path d="m534.47 469.3c0 6.61-5.35 11.97-11.97 11.97h-13.68c-6.601 0-11.96-5.359-11.96-11.97 0-3.31 1.34-6.3 3.5-8.47 2.17-2.16 5.159-3.5 8.46-3.5h13.68c6.62 0 11.97 5.35 11.97 11.97z" stroke="#231f20" stroke-width="13.6786"/><path d="m534.47 507.29c0 6.61-5.35 11.97-11.97 11.97h-13.68c-6.601 0-11.96-5.359-11.96-11.97 0-3.31 1.34-6.3 3.5-8.47 2.17-2.16 5.159-3.5 8.46-3.5h13.68c6.62 0 11.97 5.35 11.97 11.97z" stroke="#231f20" stroke-width="13.6786"/><path d="m534.47 542.99c0 6.609-5.35 11.97-11.97 11.97h-13.68c-6.601 0-11.96-5.36-11.96-11.97 0-3.311 1.34-6.3 3.5-8.471 2.17-2.159 5.159-3.5 8.46-3.5h13.68c6.62.001 11.97 5.351 11.97 11.971z" stroke="#231f20" stroke-width="13.6786"/><path d="m534.47 580.98c0 6.609-5.35 11.96-11.97 11.96h-13.68c-6.601 0-11.96-5.351-11.96-11.96 0-3.311 1.34-6.301 3.5-8.471 2.17-2.16 5.159-3.5 8.46-3.5h13.68c6.62.001 11.97 5.351 11.97 11.971z" stroke="#231f20" stroke-width="13.6786"/><path d="m327.15 629.82h197.2" stroke="#231f20" stroke-width="13.6786"/><path d="m327.15 649.2h197.2" stroke="#231f20" stroke-width="13.6786"/><path d="m327.15 668.57h197.2" stroke="#231f20" stroke-width="13.6786"/><path d="m327.15 687.95h197.2" stroke="#231f20" stroke-width="13.6786"/><path d="m327.15 707.33h197.2" stroke="#231f20" stroke-width="13.6786"/><path d="m0 0h850.394v850.394h-850.394z"/></g></svg>