<svg enable-background="new 0 0 850.394 850.394" height="850.394" viewBox="0 0 850.394 850.394" width="850.394" xmlns="http://www.w3.org/2000/svg"><path d="m421 92.95c184.29 0 333.68 149.39 333.68 333.68s-149.39 333.67-333.68 333.67c-184.28 0-333.68-149.38-333.68-333.67s149.4-333.68 333.68-333.68z" fill="#ed1d31"/><g fill="none"><path d="m754.68 426.63c0 184.29-149.39 333.67-333.68 333.67-184.28 0-333.68-149.38-333.68-333.67s149.4-333.68 333.68-333.68c184.29 0 333.68 149.39 333.68 333.68z" stroke="#231f20" stroke-width="28"/><path d="m460.42 296.58c52.25 17.19 89.96 66.38 89.96 124.37 0 72.29-58.6 130.899-130.9 130.899-72.29 0-130.9-58.609-130.9-130.899 0-57.06 36.52-105.6 87.45-123.51" stroke="#231f20" stroke-width="35"/><path d="m417.98 263.58v183.86" stroke="#231f20" stroke-width="35"/><path d="m0 0h850.394v850.394h-850.394z"/></g></svg>