<svg enable-background="new 0 0 850.394 850.394" height="850.394" viewBox="0 0 850.394 850.394" width="850.394" xmlns="http://www.w3.org/2000/svg"><path d="m535.533 323.375-66.517 346.524s-10.316 37.093-52.458 28.176c-.331-.06-.645-.136-.976-.203l-.543-.34c-39.401-17.266-26.208-53.417-26.208-53.417l55.521-121.385 24.392-53.341z" fill="#ffffc2"/><path d="m529.807 151.008-61.129 318.348.067.033-24.392 53.341-1.002-.458c-7.788 4.251-18.36 6.448-32.528 3.444-.322-.067-.645-.144-.976-.221l-.543-.339c-23.909-10.479-28.457-27.913-28.329-39.995l2.91-15.17z" fill="#f6cc4b"/><path d="m405.885 167.153-62.826 330.582.042.025-18.733 40.962-1.663-.755c-7.908 4.776-20.736 7.084-35.795 3.902-.322-.067-.645-.161-.967-.212l-.551-.34c-39.401-17.265-26.225-53.408-26.225-53.408z" fill="#ffffc2"/><path d="m404.188 364.226-20.303 105.765-.806 1.757s-2.036 5.582-2.104 13.413l-43.312 225.589s-10.308 37.11-52.458 28.185c-.314-.067-.637-.145-.967-.212l-.552-.34c-39.393-17.265-26.216-53.417-26.216-53.417l66.898-146.243 18.733-40.962h.008z" fill="#f6cc4b"/><path d="m231.584 464.858 30.849-67.433-66.534 346.524s-10.3 37.102-52.45 28.185c-.322-.068-.645-.152-.967-.221l-.552-.339c-39.401-17.258-26.216-53.409-26.216-53.409l64.786-141.619z" fill="#ffffc2"/><path d="m162.115 573.203c-39.393-17.283-26.216-53.409-26.216-53.409l146.719-320.757-51.033 265.821-51.085 111.688-3.123-1.426c-4.148.102-8.722-.306-13.745-1.374-.322-.077-.645-.145-.967-.213z" fill="#f6cc4b"/><path d="m231.397 465.843.187-.984 51.033-265.821-146.719 320.756s-13.176 36.126 26.216 53.409" style="fill:none;stroke:#231f20;stroke-width:11.878;stroke-linecap:round;stroke-linejoin:round;stroke-miterlimit:1"/><path d="m163.633 573.746c5.023 1.068 9.596 1.476 13.745 1.374" style="fill:none;stroke:#231f20;stroke-width:11.878;stroke-linecap:round;stroke-linejoin:round;stroke-miterlimit:1"/><path d="m162.667 573.533c.322.068.645.136.967.213" style="fill:none;stroke:#231f20;stroke-width:11.878;stroke-linecap:round;stroke-linejoin:round;stroke-miterlimit:1"/><path d="m343.059 497.735 62.826-330.582-146.718 320.757s-13.176 36.144 26.225 53.408" style="fill:none;stroke:#231f20;stroke-width:11.878;stroke-linecap:round;stroke-linejoin:round;stroke-miterlimit:1"/><path d="m286.91 541.87c15.06 3.182 27.888.874 35.795-3.902" style="fill:none;stroke:#231f20;stroke-width:11.878;stroke-linecap:round;stroke-linejoin:round;stroke-miterlimit:1"/><path d="m285.943 541.658c.323.051.645.145.967.212" style="fill:none;stroke:#231f20;stroke-width:11.878;stroke-linecap:round;stroke-linejoin:round;stroke-miterlimit:1"/><path d="m468.678 469.355 61.129-318.348-145.921 318.984-.806 1.757s-2.036 5.582-2.104 13.413c-.127 12.082 4.42 29.517 28.329 39.995" style="fill:none;stroke:#231f20;stroke-width:11.878;stroke-linecap:round;stroke-linejoin:round;stroke-miterlimit:1"/><path d="m410.823 525.716c14.168 3.004 24.74.807 32.528-3.444" style="fill:none;stroke:#231f20;stroke-width:11.878;stroke-linecap:round;stroke-linejoin:round;stroke-miterlimit:1"/><path d="m409.848 525.495c.331.077.653.153.976.221" style="fill:none;stroke:#231f20;stroke-width:11.878;stroke-linecap:round;stroke-linejoin:round;stroke-miterlimit:1"/><path d="m285.205 738.935c42.15 8.926 52.458-28.185 52.458-28.185l43.313-225.589 2.91-15.17 20.303-105.765-61.079 133.535h-.008l-18.733 40.962-66.899 146.243s-13.176 36.152 26.216 53.417" style="fill:none;stroke:#231f20;stroke-width:11.878;stroke-linecap:round;stroke-linejoin:round;stroke-miterlimit:1"/><path d="m284.238 738.723c.331.067.653.145.967.212" style="fill:none;stroke:#231f20;stroke-width:11.878;stroke-linecap:round;stroke-linejoin:round;stroke-miterlimit:1"/><path d="m143.449 772.134c42.15 8.917 52.45-28.185 52.45-28.185l66.534-346.524-30.849 67.433-51.084 111.688-64.786 141.619s-13.185 36.151 26.216 53.409" style="fill:none;stroke:#231f20;stroke-width:11.878;stroke-linecap:round;stroke-linejoin:round;stroke-miterlimit:1"/><path d="m142.482 771.913c.322.068.645.152.967.221" style="fill:none;stroke:#231f20;stroke-width:11.878;stroke-linecap:round;stroke-linejoin:round;stroke-miterlimit:1"/><path d="m416.559 698.074c42.142 8.917 52.458-28.176 52.458-28.176l66.517-346.524-66.788 146.014-24.392 53.341-55.521 121.385s-13.193 36.151 26.208 53.417" style="fill:none;stroke:#231f20;stroke-width:11.878;stroke-linecap:round;stroke-linejoin:round;stroke-miterlimit:1"/><path d="m415.583 697.871c.331.067.645.144.976.203" style="fill:none;stroke:#231f20;stroke-width:11.878;stroke-linecap:round;stroke-linejoin:round;stroke-miterlimit:1"/><path d="m0 0h850.394v850.394h-850.394z" fill="none"/><path d="m806.097 147.955-16.458 4.53c-.144-2.393-.312-4.757-.526-7.065z" fill="#f6cc4b"/><path d="m804.303 164.08-14.138 4.131c-.024-2.45-.072-4.843-.144-7.179z" fill="#f6cc4b"/><path d="m801.001 106.22-16.386 11.053c-.503-2.08-1.029-4.131-1.579-6.097l3.684-1.88z" fill="#f6cc4b"/><path d="m801.001 135.136-12.583 3.817c-.263-2.279-.55-4.501-.885-6.695z" fill="#f6cc4b"/><path d="m797.819 120.834-11.243 5.726c-.358-1.937-.741-3.846-1.147-5.726z" fill="#f6cc4b"/><path d="m792.509 95.423-11.913 8.034c-.741-2.108-1.507-4.159-2.32-6.153z" fill="#f6cc4b"/><path d="m744.331 224.218c.55-1.481 1.771-3.276 4.306-4.216-.071-.171-.215-.428-.454-.712 2.225-.313 4.281-.684 5.741-1.852 3.086-2.536 2.583-12.107 1.985-17.72.67-.285 1.363-.627 2.057-.997 4.594-2.479 8.827-5.982 12.774-9.914l.718.997s-4.88 27.377-1.531 29.086c1.747.883 3.015 1.709 3.972 2.421l-9.258.285-5.861 6.581c.072-.313.479-2.25-2.081-5.27-2.009-2.365-10.956 1.054-11.339 1.453z" fill="#f6cc4b"/><path d="m730.959 224.104-.024.028s0 0 .024-.028z" fill="#f6cc4b"/><path d="m728.878 218.862c-2.01-2.393-10.956 1.054-11.339 1.424l-1.029-.114c.622-1.709 2.13-3.789 5.479-4.587l-.071-.626c1.603-.285 3.062-.684 4.162-1.595 4.473-3.618 2.057-15.213 2.057-15.213l.216-.912c.023 0 .048.028.071.028 5.215 1.938 9.809 3.817 14.497 4.416-1.244 4.045-3.277 11.908-.838 13.161 1.723.855 3.015 1.681 3.972 2.393l-9.234.313-5.86 6.552c.069-.283.5-2.191-2.083-5.24z" fill="#f6cc4b"/><path d="m669.863 35.456-1.579 12.592c-2.248.541-4.473 1.168-6.698 1.823z" fill="#f6cc4b"/><path d="m654.577 36.225.216 13.304-1.771 3.19c-1.579.542-3.157 1.14-4.713 1.738z" fill="#f6cc4b"/><path d="m627.211 52.235 3.756 10.028-.024.143c-1.578.798-3.133 1.652-4.641 2.507z" fill="#f6cc4b"/><path d="m613.48 72.832 1.052-14.928 3.493 8.831-.79 3.618c-1.267.827-2.535 1.653-3.755 2.479z" fill="#f6cc4b"/><path d="m605.036 165.333c1.89 0 3.421 1.966 3.421 4.387s-1.531 4.387-3.421 4.387c-1.866 0-3.397-1.966-3.397-4.387s1.531-4.387 3.397-4.387z" fill="#9c5c25"/><path d="m584.822 131.176c.479-1.282.98-2.592 1.555-3.96l-1.053-3.646zm150.873 7.236-.119.057-.335.399zm-101.284 75.636c4.521-2.707 2.272-11.139 2.272-11.139l-.837-1.681c-5.167-.969-8.636-2.479-13.062-3.817-4.281-1.339-8.109-1.766-12.128-1.367-4.521.427-9.233 1.909-15.095 4.387-1.268.513-2.607 1.083-3.994 1.709l-4.163 2.735-3.086 2.051-2.439 1.595c-.024-2.507-1.292-6.324-2.847-8.974-1.818-3.077-4.426-3.903-6.961-5.897l-1.962-.256c.598-1.738 1.124-2.906 1.124-2.906s.024-.199.096-.598c.551-3.219 3.254-19.001 7.679-36.778 0 0 1.053-8.375 5.048-19.828l-.479-.228-5.669-19.884c.55-2.023 1.339-4.074 2.392-6.182.67-1.368 1.436-2.763 2.32-4.188 1.89-3.077 4.234-6.21 6.985-9.315.885-1.054 1.818-2.051 2.799-3.077 3.708-3.875 7.99-7.749 12.75-11.481.766-.598 1.555-1.196 2.345-1.794.383-.313.789-.599 1.172-.883 1.555-1.14 3.157-2.279 4.809-3.418 1.22-.826 2.487-1.652 3.755-2.479.574-.371 1.125-.741 1.699-1.083.023-.029.048-.029.071-.057 2.368-1.481 4.784-2.906 7.296-4.302 1.508-.854 3.063-1.709 4.641-2.507.024-.028.048-.028.072-.057l.526 1.396-.216-1.567c2.942-1.51 5.98-2.991 9.066-4.387 1.173-.513 2.345-1.025 3.541-1.538 1.459-.627 2.918-1.225 4.377-1.795 1.556-.598 3.134-1.196 4.713-1.738.598-.228 1.196-.456 1.818-.655.861-.313 1.722-.598 2.583-.883 1.363-.456 2.751-.883 4.162-1.311 2.226-.655 4.45-1.282 6.698-1.823l-.598 4.7 5.55-5.868c.358-.085.718-.171 1.101-.228 1.746-.371 3.469-.712 5.238-.997 1.675-.285 3.35-.542 5.023-.741 4.259-.57 8.54-.883 12.774-.997 1.579-.028 3.134-.028 4.688 0l-4.33 7.236 9.426-6.866v-.142c1.842.114 3.66.285 5.478.513 1.244.171 2.488.342 3.708.57 4.521.741 8.923 1.823 13.205 3.276.263.114.55.2.813.285 3.421 1.225 6.771 2.649 10 4.33.861.456 1.722.94 2.583 1.424 3.158 1.823 6.22 3.903 9.162 6.239.646.513 1.292 1.054 1.914 1.596 3.038 2.564 5.933 5.47 8.659 8.66.455.542.909 1.083 1.363 1.652.934 1.168 1.866 2.365 2.751 3.618.048.057.096.114.168.199 2.368 3.305 4.593 6.923 6.674 10.826.622 1.168 1.244 2.393 1.842 3.646.981 2.022 1.914 4.131 2.799 6.324.813 1.994 1.579 4.045 2.32 6.153.67 1.88 1.292 3.846 1.891 5.84.191.626.358 1.253.55 1.88.55 1.966 1.076 4.017 1.579 6.097.287 1.168.55 2.365.813 3.561.406 1.88.789 3.789 1.147 5.726.335 1.852.67 3.76.957 5.698.335 2.193.622 4.416.885 6.695.264 2.108.503 4.273.694 6.467.215 2.308.383 4.672.526 7.065.119 1.909.215 3.817.287 5.783.023.114.023.228 0 .37l-2.703 1.88c.048.997.048 1.994.023 3.02-.071 2.45-.311 4.216-.789 5.669-.861 2.792-2.488 4.473-5.215 7.806-3.302 4.017-6.794 8.091-10.502 11.794-3.947 3.932-8.181 7.436-12.774 9.914-.693.37-1.387.712-2.057.997-4.736 2.165-8.899 2.535-12.989 1.966-4.688-.599-9.282-2.479-14.497-4.416-.023 0-.048-.028-.071-.028-11.147-4.103-22.798-4.387-34.83-3.048-4.903.542-8.205 3.761-13.085 5.584l-1.148-.313c-1.196 5.185-3.731 17.634-1.101 18.66 1.723.684 2.99 1.311 3.924 1.909l-9.234.342-5.933 5.356c.096-.256.503-1.823-2.033-4.216-1.961-1.88-10.956.969-11.362 1.282h-1.028c.646-1.396 2.152-3.134 5.55-3.846l-.048-.456c1.603-.256 3.062-.598 4.162-1.339 3.205-2.137 2.87-12.592 2.296-17.036l-.525-.285-1.125 2.82c-2.296.598.407.427-1.913.484-2.919.114-5.479.57-8.66.342 0 0-5.167 10.199-1.842 11.396 1.698.598 2.942 1.168 3.875 1.681l-9.21.37-5.956 4.9c.096-.256.502-1.652-1.985-3.817-1.985-1.709-10.956.94-11.363 1.225l-1.028-.057c.646-1.253 2.177-2.82 5.526-3.447l-.048-.427c1.628-.259 3.088-.573 4.187-1.256zm-25.954-44.328c0-2.421-1.531-4.387-3.421-4.387-1.866 0-3.397 1.966-3.397 4.387s1.531 4.387 3.397 4.387c1.89 0 3.421-1.965 3.421-4.387z" fill="#f6cc4b"/><path d="m568.316 202.14c.119-3.19 1.028-6.467 1.794-8.746l1.962.256c2.535 1.994 5.143 2.82 6.961 5.897 1.555 2.649 2.822 6.467 2.847 8.974l-4.114 2.707s-9.809 1.31-9.45-9.088z" fill="#231f20"/><g fill="none"><path d="m605.945 142.97-.526-17.72 8.253 20.911" stroke="#231f20" stroke-width="3.9158"/><path d="m580.492 113.77-.191-6.781-.335-10.939 2.655 6.751 3.78 9.573 1.818 4.586" stroke="#231f20" stroke-width="3.9158"/><path d="m589.798 100.152-.192-6.666-.335-11.053 3.134 7.976 4.426 11.196.693 1.738" stroke="#231f20" stroke-width="3.9158"/><path d="m603.337 79.242 1.268-17.635 4.067 14.643 2.01 7.293" stroke="#231f20" stroke-width="3.9158"/><path d="m613.289 75.538.191-2.706 1.052-14.928 3.493 8.831.837 2.165.144.314 2.224 5.64" stroke="#231f20" stroke-width="3.9158"/><path d="m625.943 69.869.359-4.957.909-12.677 3.756 10.028.048.085.526 1.396 1.771 4.729" stroke="#231f20" stroke-width="3.9158"/><path d="m584.176 141.232.646-10.056.502-7.607 1.053 3.647 5.191 18.232" stroke="#231f20" stroke-width="3.9158"/><path d="m593.912 132.258 1.124-17.662 6.244 21.879" stroke="#231f20" stroke-width="3.9158"/><path d="m604.438 119.951 1.125-17.634 6.266 21.85" stroke="#231f20" stroke-width="3.9158"/><path d="m614.03 104.596 3.732-17.15 2.894 22.848" stroke="#231f20" stroke-width="3.9158"/><path d="m621.59 116.932 3.731-17.122 2.918 22.819" stroke="#231f20" stroke-width="3.9158"/><path d="m612.428 125.478 3.731-17.122 2.919 22.82" stroke="#231f20" stroke-width="3.9158"/><path d="m625.632 98.158 3.732-17.15 2.918 22.847" stroke="#231f20" stroke-width="3.9158"/><path d="m633.216 107.16 3.731-17.15 2.918 22.848" stroke="#231f20" stroke-width="3.9158"/><path d="m576.21 128.84 1.125-17.663.574 1.994 5.669 19.885" stroke="#231f20" stroke-width="3.9158"/><path d="m585.923 119.866.478-7.492.669-10.171 6.244 21.879" stroke="#231f20" stroke-width="3.9158"/><path d="m596.448 107.559.383-5.954.766-11.709 6.243 21.879" stroke="#231f20" stroke-width="3.9158"/><path d="m603.051 88.643 2.104-9.715 1.627-7.435.718 5.641 2.2 17.206" stroke="#231f20" stroke-width="3.9158"/><path d="m614.652 82.176 2.583-11.822.79-3.619.359-1.68.478 3.845.073.371 2.368 18.631" stroke="#231f20" stroke-width="3.9158"/><path d="m627.475 78.302 3.467-15.897.025-.142.239-1.083.119.997.216 1.567 2.56 20.256" stroke="#231f20" stroke-width="3.9158"/><path d="m639.89 64.684.502-6.894.765-10.74 2.776 9.202 2.104 7.037" stroke="#231f20" stroke-width="3.9158"/><path d="m635.847 201.228c-5.167-.969-8.636-2.479-13.062-3.817-4.281-1.339-8.109-1.766-12.128-1.367-4.521.427-9.233 1.909-15.095 4.387-1.268.513-2.607 1.083-3.994 1.709l-4.163 2.735-3.086 2.051-2.439 1.595-4.114 2.707s-9.809 1.311-9.449-9.088c.119-3.19 1.028-6.467 1.794-8.746.598-1.738 1.124-2.906 1.124-2.906s.024-.199.096-.598c.551-3.219 3.254-19.001 7.679-36.778 0 0 1.053-8.375 5.048-19.828.239-.684.502-1.396.766-2.108.479-1.282.98-2.592 1.555-3.96.383-.997.813-1.994 1.268-3.02" stroke="#231f20" stroke-width="7.6907"/><path d="m662.83 202.652c-2.296.598.407.427-1.913.484-2.919.114-5.479.57-8.66.342" stroke="#231f20" stroke-width="7.6907"/><path d="m787.198 160.148c0 .114.024.256.024.371.048.997.048 1.994.023 3.02-.071 2.45-.311 4.216-.789 5.669-.861 2.792-2.488 4.473-5.215 7.806-3.302 4.017-6.794 8.091-10.502 11.794-3.947 3.932-8.181 7.436-12.774 9.914-.693.37-1.387.712-2.057.997-4.736 2.165-8.899 2.535-12.989 1.966-4.688-.599-9.282-2.479-14.497-4.416-.023 0-.048-.028-.071-.028-11.147-4.103-22.798-4.387-34.83-3.048-4.903.542-8.205 3.761-13.085 5.584" stroke="#231f20" stroke-width="7.6907"/><path d="m587.645 124.196c.766-1.709 1.579-3.447 2.464-5.213" stroke="#231f20" stroke-width="7.8316"/><path d="m647.233 57.619 1.077-3.162 6.267-18.232.216 13.304.048 2.535.071 4.615" stroke="#231f20" stroke-width="3.9158"/><path d="m659.194 54.058 2.392-4.187 8.277-14.415-1.579 12.591-.597 4.701-.479 3.874" stroke="#231f20" stroke-width="3.9158"/><path d="m675.939 51.209 3.636-5.555 8.517-12.99-3.493 12.25-2.225 7.777-.526 1.851" stroke="#231f20" stroke-width="3.9158"/><path d="m693.282 47.648 4.091-3.731 10.311-9.43-5.622 9.43-4.331 7.235-1.291 2.194" stroke="#231f20" stroke-width="3.9158"/><path d="m707.109 48.703 5.526-4.046 7.152-5.213-3.444 5.783-6.459 10.854-1.316 2.222" stroke="#231f20" stroke-width="3.9158"/><path d="m718.592 56.479 10.956-7.976 1.722-1.253-.91 1.538-8.994 15.099-1.315 2.193" stroke="#231f20" stroke-width="3.9158"/><path d="m650.152 70.752 11.099-11.765-8.253 20.91" stroke="#231f20" stroke-width="3.9158"/><path d="m662.376 72.319 11.123-11.765-8.253 20.91" stroke="#231f20" stroke-width="3.9158"/><path d="m677.136 72.177 11.099-11.766-8.253 20.91" stroke="#231f20" stroke-width="3.9158"/><path d="m692.995 69.043 12.679-9.23-11.243 18.831" stroke="#231f20" stroke-width="3.9158"/><path d="m705.1 74 12.678-9.23-11.219 18.831" stroke="#231f20" stroke-width="3.9158"/><path d="m716.582 81.806 12.679-9.259-11.22 18.859" stroke="#231f20" stroke-width="3.9158"/><path d="m729.523 87.959 12.679-9.258-11.22 18.859" stroke="#231f20" stroke-width="3.9158"/><path d="m741.651 92.916 12.679-9.23-11.219 18.831" stroke="#231f20" stroke-width="3.9158"/><path d="m753.134 100.722 12.679-9.259-11.219 18.859" stroke="#231f20" stroke-width="3.9158"/><path d="m651.635 55.226 1.387-2.507 1.771-3.19 4.999-9.003-2.368 10.655-2.943 13.19" stroke="#231f20" stroke-width="3.9158"/><path d="m663.859 56.793 3.828-4.045 5.549-5.869 1.746-1.852-.645 1.624-7.608 19.287" stroke="#231f20" stroke-width="3.9158"/><path d="m678.618 56.679 3.756-3.988 7.344-7.806-8.253 20.91" stroke="#231f20" stroke-width="3.9158"/><path d="m694.479 53.545 3.252-2.393 9.426-6.865-11.243 18.831" stroke="#231f20" stroke-width="3.9158"/><path d="m706.583 58.502 3.301-2.421 9.377-6.837-11.219 18.859" stroke="#231f20" stroke-width="3.9158"/><path d="m718.065 66.28 3.301-2.393 9.377-6.838-11.219 18.831" stroke="#231f20" stroke-width="3.9158"/><path d="m731.007 72.433 12.679-9.23-11.22 18.831" stroke="#231f20" stroke-width="3.9158"/><path d="m743.135 77.418 12.678-9.258-11.219 18.831" stroke="#231f20" stroke-width="3.9158"/><path d="m754.617 85.196 12.176-8.888.503-.371-.335.57-10.885 18.289" stroke="#231f20" stroke-width="3.9158"/><path d="m732.586 56.309 7.774-3.191 6.291-2.564-3.708 3.988-10.692 11.51" stroke="#231f20" stroke-width="3.9158"/><path d="m743.518 64.286 8.587-3.505 5.479-2.221-3.564 3.817-10.837 11.651" stroke="#231f20" stroke-width="3.9158"/><path d="m753.277 74.883 9.402-3.846 4.665-1.909-3.302 3.561-11.1 11.937" stroke="#231f20" stroke-width="3.9158"/><path d="m638.479 82.546 9.926-13.161-6.243 21.879" stroke="#231f20" stroke-width="3.9158"/><path d="m650.176 91.036 9.951-13.161-6.268 21.878" stroke="#231f20" stroke-width="3.9158"/><path d="m668.404 88.244 9.927-13.19-6.243 21.879" stroke="#231f20" stroke-width="3.9158"/><path d="m683.45 88.272 12.679-9.258-11.219 18.859" stroke="#231f20" stroke-width="3.9158"/><path d="m695.579 93.229 12.678-9.229-11.219 18.83" stroke="#231f20" stroke-width="3.9158"/><path d="m707.037 101.035 12.679-9.259-11.22 18.86" stroke="#231f20" stroke-width="3.9158"/><path d="m644.195 129.552 11.1-11.794-8.253 20.91" stroke="#231f20" stroke-width="3.9158"/><path d="m656.419 131.119 11.124-11.766-8.253 20.91" stroke="#231f20" stroke-width="3.9158"/><path d="m671.155 130.976 11.123-11.766-8.253 20.911" stroke="#231f20" stroke-width="3.9158"/><path d="m682.638 124.994 12.677-9.259-11.218 18.859" stroke="#231f20" stroke-width="3.9158"/><path d="m694.766 129.951 12.678-9.259-11.243 18.859" stroke="#231f20" stroke-width="3.9158"/><path d="m641.277 111.177 11.123-11.765-8.253 20.881" stroke="#231f20" stroke-width="3.9158"/><path d="m653.524 112.744 11.1-11.766-8.253 20.911" stroke="#231f20" stroke-width="3.9158"/><path d="m668.261 112.602 11.123-11.766-8.277 20.91" stroke="#231f20" stroke-width="3.9158"/><path d="m684.12 109.468 12.679-9.259-11.219 18.859" stroke="#231f20" stroke-width="3.9158"/><path d="m696.249 114.425 12.678-9.259-11.243 18.859" stroke="#231f20" stroke-width="3.9158"/><path d="m707.707 122.23 12.679-9.258-11.22 18.859" stroke="#231f20" stroke-width="3.9158"/><path d="m719.787 108.129 12.679-9.231-11.219 18.831" stroke="#231f20" stroke-width="3.9158"/><path d="m648.022 151.744 9.928-13.161-4.569 16.039-1.674 5.839" stroke="#231f20" stroke-width="3.9158"/><path d="m660.318 151.687 9.928-13.162-5.598 19.629-.646 2.25" stroke="#231f20" stroke-width="3.9158"/><path d="m674.959 149.579 9.927-13.162-6.243 21.879" stroke="#231f20" stroke-width="3.9158"/><path d="m697.373 143.226 12.679-9.259-10.119 17.008-1.101 1.852" stroke="#231f20" stroke-width="3.9158"/><path d="m703.928 152.457 12.677-9.259-9.926 16.665-1.316 2.194" stroke="#231f20" stroke-width="3.9158"/><path d="m646.946 174.506 11.124-11.765-8.253 20.91" stroke="#231f20" stroke-width="3.9158"/><path d="m659.194 176.102 3.923-4.16 7.177-7.606-8.253 20.882" stroke="#231f20" stroke-width="3.9158"/><path d="m673.93 175.959 11.099-11.766-8.253 20.911" stroke="#231f20" stroke-width="3.9158"/><path d="m633 192.083 11.1-11.765-8.253 20.91" stroke="#231f20" stroke-width="3.9158"/><path d="m645.224 193.65 11.124-11.765-8.253 20.91" stroke="#231f20" stroke-width="3.9158"/><path d="m659.983 193.508 11.1-11.766-7.128 18.09-1.125 2.82" stroke="#231f20" stroke-width="3.9158"/><path d="m689.79 172.825 12.679-9.258-11.22 18.859" stroke="#231f20" stroke-width="3.9158"/><path d="m680.222 185.645 12.677-9.259-11.218 18.86" stroke="#231f20" stroke-width="3.9158"/><path d="m701.895 177.782 12.677-9.259-11.218 18.86" stroke="#231f20" stroke-width="3.9158"/><path d="m733.398 111.775 12.679-9.258-11.219 18.859" stroke="#231f20" stroke-width="3.9158"/><path d="m633.287 161.373 11.1-11.766-8.253 20.882" stroke="#231f20" stroke-width="3.9158"/><path d="m645.511 162.94 7.87-8.318 3.254-3.448-8.253 20.91" stroke="#231f20" stroke-width="3.9158"/><path d="m660.271 162.797 4.377-4.643 6.722-7.122-8.253 20.91" stroke="#231f20" stroke-width="3.9158"/><path d="m691.273 157.299 8.66-6.324 4.018-2.934-11.219 18.859" stroke="#231f20" stroke-width="3.9158"/><path d="m682.9 154.935 12.679-9.259-11.22 18.831" stroke="#231f20" stroke-width="3.9158"/><path d="m703.377 162.256 3.302-2.393 9.401-6.865-11.243 18.859" stroke="#231f20" stroke-width="3.9158"/><path d="m763.851 88.956 9.784-1.623 9.664-1.625-7.822 5.271-9.067 6.125" stroke="#231f20" stroke-width="3.9158"/><path d="m777.726 97.389.549-.086 14.234-1.88-11.913 8.034-4.976 3.361" stroke="#231f20" stroke-width="3.9158"/><path d="m786.72 109.297 14.281-3.077-16.386 11.053-.503.342" stroke="#231f20" stroke-width="3.9158"/><path d="m750.216 115.023h14.879l-17.846 9.088" stroke="#231f20" stroke-width="3.9158"/><path d="m758.492 125.877h14.856l-16.051 8.176-1.771.912" stroke="#231f20" stroke-width="3.9158"/><path d="m769.568 137.443h14.879l-17.845 9.088" stroke="#231f20" stroke-width="3.9158"/><path d="m717.993 177.099 14.641 3.133-18.922 5.185" stroke="#231f20" stroke-width="3.9158"/><path d="m735.528 186.585 14.64 3.134-18.898 5.185" stroke="#231f20" stroke-width="3.9158"/><path d="m789.662 160.946.359.085 14.282 3.049-14.138 4.13-3.564 1.054" stroke="#231f20" stroke-width="3.9158"/><path d="m763.588 98.414h14.879l-17.845 9.088" stroke="#231f20" stroke-width="3.9158"/><path d="m771.841 109.297h10.645 4.234l-3.684 1.88-14.161 7.207" stroke="#231f20" stroke-width="3.9158"/><path d="m782.94 120.834h2.489 12.39l-11.243 5.727-6.601 3.361" stroke="#231f20" stroke-width="3.9158"/><path d="m786.361 132.002 1.172.256 13.468 2.878-12.583 3.817-2.129.655" stroke="#231f20" stroke-width="3.9158"/><path d="m787.772 145.22 1.34.2 16.985 2.535-16.458 4.53-2.441.683" stroke="#231f20" stroke-width="3.9158"/><path d="m718.831 129.238 13.635-7.065-13.3 16.808" stroke="#231f20" stroke-width="3.9158"/><path d="m730.05 135.278 13.636-7.093-8.11 10.284-.335.399-4.856 6.153" stroke="#231f20" stroke-width="3.9158"/><path d="m744.092 140.577 13.636-7.065-.431.541-12.87 16.267" stroke="#231f20" stroke-width="3.9158"/><path d="m764.951 154.593 14.76-2.165-14.808 10.256-1.961 1.367" stroke="#231f20" stroke-width="3.9158"/><path d="m775.836 160.348 14.09-2.08.67-.085-.67.455-2.703 1.881-13.397 9.287" stroke="#231f20" stroke-width="3.9158"/><path d="m714.74 157.043 14.186-5.242-14.784 14.956" stroke="#231f20" stroke-width="3.9158"/><path d="m725.313 164.507 14.209-5.214-14.783 14.957" stroke="#231f20" stroke-width="3.9158"/><path d="m738.781 171.657 14.209-5.213-14.806 14.928" stroke="#231f20" stroke-width="3.9158"/><path d="m755.096 178.551 14.759-2.165-16.769 11.595" stroke="#231f20" stroke-width="3.9158"/><path d="m721.486 143.653 14.09-5.184.119-.057-.454.456-14.353 14.5" stroke="#231f20" stroke-width="3.9158"/><path d="m732.06 151.117 14.209-5.213-14.784 14.956" stroke="#231f20" stroke-width="3.9158"/><path d="m745.527 158.268 14.209-5.213-14.783 14.927" stroke="#231f20" stroke-width="3.9158"/><path d="m761.052 163.253 3.851-.569 10.909-1.596-16.769 11.595" stroke="#231f20" stroke-width="3.9158"/><path d="m636.684 202.909s2.249 8.433-2.272 11.139c-1.1.684-2.56.997-4.186 1.253-3.206.456-7.033.57-9.832 2.364-.646.428-1.22.912-1.723 1.51" stroke="#231f20" stroke-linecap="round" stroke-linejoin="round" stroke-width="5.1271"/><path d="m652.257 203.479s-5.167 10.199-1.842 11.396c1.698.598 2.942 1.168 3.875 1.681 1.938 1.054 2.512 1.852 2.632 2.08.048.057.048.085.048.085" stroke="#231f20" stroke-linecap="round" stroke-linejoin="round" stroke-width="5.1271"/><path d="m624.341 220.885c-.072-.228 0-.883.406-1.709.646-1.253 2.177-2.82 5.526-3.447.358-.085.693-.114 1.076-.171" stroke="#231f20" stroke-linecap="round" stroke-linejoin="round" stroke-width="5.221"/><path d="m625.775 219.232c.407-.285 9.378-2.934 11.363-1.225 2.487 2.165 2.081 3.561 1.962 3.846l.023-.028 5.956-4.9 9.21-.37h.072" stroke="#231f20" stroke-linecap="round" stroke-linejoin="round" stroke-width="5.1271"/><path d="m664.48 200.117c.574 4.444.909 14.899-2.296 17.036-1.101.741-2.56 1.083-4.162 1.339-.359.057-.718.114-1.101.143-3.708.484-7.942.769-10.454 4.045" stroke="#231f20" stroke-linecap="round" stroke-linejoin="round" stroke-width="5.1271"/><path d="m682.135 220.03c2.297 1.424 2.632 2.393 2.632 2.393" stroke="#231f20" stroke-linecap="round" stroke-linejoin="round" stroke-width="5.1271"/><path d="m679.814 197.211s-.215.883-.526 2.25c-1.196 5.185-3.731 17.634-1.101 18.66 1.723.684 2.99 1.311 3.924 1.909" stroke="#231f20" stroke-linecap="round" stroke-linejoin="round" stroke-width="5.1271"/><path d="m652.138 224.617c-.048-.228 0-.968.383-1.823.646-1.396 2.152-3.134 5.55-3.846.335-.057.693-.114 1.076-.171" stroke="#231f20" stroke-linecap="round" stroke-linejoin="round" stroke-width="5.1271"/><path d="m653.549 222.793c.406-.313 9.401-3.162 11.362-1.282 2.536 2.393 2.129 3.96 2.01 4.245l.023-.028 5.933-5.356 9.234-.342h.023" stroke="#231f20" stroke-linecap="round" stroke-linejoin="round" stroke-width="5.1271"/><path d="m728.136 198.151s2.416 11.595-2.057 15.213c-1.101.912-2.56 1.31-4.162 1.595-3.947.712-8.779.655-11.507 5.099" stroke="#231f20" stroke-linecap="round" stroke-linejoin="round" stroke-width="5.1271"/><path d="m746.077 217.238c1.053.855 1.723 1.539 2.105 2.051.239.285.383.542.454.712.096.171.12.256.12.256" stroke="#231f20" stroke-linecap="round" stroke-linejoin="round" stroke-width="5.1271"/><path d="m743.709 199.291s-.335.968-.789 2.393c-1.244 4.045-3.277 11.908-.838 13.161 1.723.855 3.015 1.681 3.972 2.393" stroke="#231f20" stroke-linecap="round" stroke-linejoin="round" stroke-width="5.1271"/><path d="m716.128 222.537c-.072-.313-.024-1.253.382-2.364.622-1.709 2.13-3.789 5.479-4.587.335-.085.67-.142 1.053-.199" stroke="#231f20" stroke-linecap="round" stroke-linejoin="round" stroke-width="5.1271"/><path d="m730.959 224.104 5.86-6.552 9.234-.313c.023.029.023 0 .023 0" stroke="#231f20" stroke-linecap="round" stroke-linejoin="round" stroke-width="5.1271"/><path d="m730.959 224.104c-.024.028-.024.028-.024.028z" stroke="#231f20" stroke-linecap="round" stroke-linejoin="round" stroke-width="5.1271"/><path d="m717.539 220.287c.383-.37 9.329-3.817 11.339-1.424 2.583 3.048 2.152 4.957 2.081 5.242" stroke="#231f20" stroke-linecap="round" stroke-linejoin="round" stroke-width="5.1271"/><path d="m755.861 199.348c.023.114.023.256.048.371.598 5.612 1.101 15.184-1.985 17.72-1.46 1.168-3.517 1.538-5.741 1.852-3.589.513-7.56.94-9.928 4.814" stroke="#231f20" stroke-linecap="round" stroke-linejoin="round" stroke-width="5.1271"/><path d="m771.458 189.804s-4.88 27.377-1.531 29.086c1.747.883 3.015 1.709 3.972 2.421 2.32 1.795 2.679 2.992 2.679 2.992" stroke="#231f20" stroke-linecap="round" stroke-linejoin="round" stroke-width="5.1271"/><path d="m743.948 226.583c-.071-.285-.023-1.225.383-2.365.55-1.481 1.771-3.276 4.306-4.216.646-.256 1.388-.456 2.225-.57" stroke="#231f20" stroke-linecap="round" stroke-linejoin="round" stroke-width="5.1271"/><path d="m745.359 224.36c.383-.399 9.33-3.817 11.339-1.453 2.56 3.02 2.153 4.957 2.058 5.299l.023-.029 5.861-6.581 9.258-.285" stroke="#231f20" stroke-linecap="round" stroke-linejoin="round" stroke-width="5.1271"/><path d="m608.457 169.72c0 2.421-1.531 4.387-3.421 4.387-1.866 0-3.397-1.966-3.397-4.387s1.531-4.387 3.397-4.387c1.89 0 3.421 1.966 3.421 4.387z" stroke="#231f20" stroke-width="5.221"/><path d="m619.604 134.68s10.621-14.244 14.448-14.244c3.804 0 2.727 10.37 2.177 20.084-.55 9.743-4.091 13.959-10.358 17.207" stroke="#231f20" stroke-width="7.6907"/><path d="m586.497 204.59c.286.114.598.228.908.285 2.751.826 6.028.598 8.779 1.282 3.995.997 7.99 2.193 11.842 3.789 4.593 1.852 8.707 4.331 12.367 7.72 1.771 1.596 3.444 3.447 5.023 5.527" stroke="#231f20" stroke-linecap="round" stroke-linejoin="round" stroke-width="2.6105"/><path d="m587.717 207.068c6.315 3.76 11.1 10.683 12.009 19.087.933 8.518-1.579 15.697-2.823 23.845" stroke="#231f20" stroke-linecap="round" stroke-linejoin="round" stroke-width="2.6105"/><path d="m584.104 206.584c.071.114.144.228.215.342 2.536 4.045 5.311 8.831 6.34 13.76.98 4.615.598 9.116.071 13.703" stroke="#231f20" stroke-linecap="round" stroke-linejoin="round" stroke-width="2.6105"/><path d="m571.546 186.841c-2.416-.94-4.688-3.361-7.009-4.644-3.063-1.709-6.172-3.248-9.378-4.473-5.621-2.165-11.052-2.849-16.889-1.51" stroke="#231f20" stroke-linecap="round" stroke-linejoin="round" stroke-width="2.6105"/><path d="m569.704 187.753c-5.693-1.225-11.698.513-15.789 5.499-4.138 5.042-5.454 11.253-7.989 17.321" stroke="#231f20" stroke-linecap="round" stroke-linejoin="round" stroke-width="2.6105"/><path d="m572.287 189.548c-.311.114-.646.228-.957.342-3.182 1.14-6.65 2.649-9.186 5.1-2.536 2.45-4.162 5.641-5.718 8.945" stroke="#231f20" stroke-linecap="round" stroke-linejoin="round" stroke-width="2.6105"/><path d="m595.563 200.43s6.914-.883 15.095-4.387c9.019-3.846 19.544-10.854 24.113-23.304" stroke="#231f20" stroke-width="7.8316"/><path d="m572.072 193.65c2.535 1.994 5.143 2.82 6.961 5.897 1.555 2.649 2.822 6.467 2.847 8.974v.028" stroke="#231f20" stroke-width="7.8316"/></g></svg>