<svg enable-background="new 0 0 850.394 850.394" height="850.394" viewBox="0 0 850.394 850.394" width="850.394" xmlns="http://www.w3.org/2000/svg"><path d="m540.799 415.682 45.193 72.507-291.04 70.962 52.84-105.669-40.262-50.82 202.746-35.95z" fill="#efdcef"/><path d="m307.53 402.662-53.986-68.143 1.167-.926 310.288-47.129-54.723 80.248z" fill="#efdcef"/><path d="m277.167 610.877-5.049-.558-2.198-1.104 25.032-50.064 291.04-70.962 108.036 10.96z" fill="#efdcef"/><path d="m268.91 611.234-126.841-14.808 152.883-37.275-25.032 50.064z" fill="#efdcef"/><path d="m540.799 415.682-30.523-48.97 54.723-80.248-310.288 47.129-1.167.926-1.988-2.504-118.175-17.238-.242-1.882 448.131-56.606 129.418.663 75.706 105.69-78.556 132.805-13.788 3.702h-.022l-108.036-10.96z" fill="#efdcef"/><path d="m307.53 402.662 40.262 50.82-52.84 105.669-152.883 37.275-84.835-150.169 74.433-133.174 1.472-.188.242 1.882 118.175 17.238 1.988 2.504z" fill="#efdcef"/><g fill="none"><path d="m694.028 499.149-108.036-10.96-45.193-72.507-30.523-48.97 54.723-80.248 16.271-23.864" stroke="#904788" stroke-width="10.5175"/><path d="m694.849 499.233-.799-.084" stroke="#904788" stroke-width="10.5175"/><path d="m65.406 445.594 242.124-42.932 202.746-35.95" stroke="#904788" stroke-width="10.5175"/><path d="m142.069 596.426 152.883-37.275 291.04-70.962" stroke="#904788" stroke-width="10.5175"/><path d="m254.711 333.593 310.288-47.129 143.964-21.866" stroke="#50264c" stroke-width="17.8798"/><path d="m352.524 453.482 188.275-37.8 236.087-47.392" stroke="#50264c" stroke-width="17.8798"/><path d="m272.118 610.319 5.049.558 416.861-111.728h.022l13.788-3.702 78.556-132.805-75.706-105.69-129.418-.663-448.131 56.606-1.472.188-74.433 133.174 84.835 150.169 126.841 14.808 1.01-2.019 25.032-50.064 52.84-105.669-40.262-50.82-53.986-68.143-1.988-2.504-118.175-17.238" stroke="#50264c" stroke-width="17.8798"/><path d="m0 0h850.394v850.394h-850.394z"/></g></svg>