<svg enable-background="new 0 0 850.394 850.394" height="850.394" viewBox="0 0 850.394 850.394" width="850.394" xmlns="http://www.w3.org/2000/svg"><path d="m552.9 407.28.02.2-1.89 33.72h-117.62-9.72v-.26-179.03-6.83c1.55-6.9 6.48-26.02 12.53-49.11l56.471-56.06-12.851-24.24 27.71 9.86-4.45-39.91 9.15 3.05c14.85 5.27 31.78 12.64 39.17 16.83 13.7 7.78 23.69 51.48 23.69 51.48l35.909 233.43z" fill="#a3d9ff"/><path d="m293.79 407.28-58.13-6.87 35.9-233.43s10-43.7 23.7-51.48c8.27-4.69 33.23-15.41 49.43-20.9l-4.53 40.73 27.7-9.86-12.85 24.23 55.81 55.44c6.52 27.92 11.85 51.13 12.87 56.77v179.03.26h-10.42-117.62l-1.89-33.69z" fill="#a3d9ff"/><path d="m423.69 255.08v6.83c-1.02-5.64-6.35-28.85-12.87-56.77-12.3-52.72-28.88-122.28-28.88-122.28l.7-.3s52.68-23.7 85.6 1.65l.33.04c-.851 3.18-19.24 71.73-32.351 121.72-6.049 23.09-10.979 42.21-12.529 49.11z" fill="#a3d9ff"/><path d="m551.03 441.2-12.7 345.14h-93.32l-20.73-311.07h-2.44l-20.74 311.07h-93.32l-12.13-345.14h117.62 10.42 9.72z" fill="#a3d9ff"/><path d="m503.1 95.62 4.45 39.91-27.71-9.86 12.851 24.24-56.471 56.06c13.11-49.99 31.5-118.54 32.351-121.72.02-.07.029-.11.029-.11z" fill="#a3d9ff"/><path d="m410.82 205.14-55.81-55.44 12.85-24.23-27.7 9.86 4.53-40.73c.68-.23 1.34-.45 1.99-.66l35.26-11.08s16.58 69.56 28.88 122.28z" fill="#a3d9ff"/><g fill="none"><path d="m344.72 94.34-.03.26-4.53 40.73 27.7-9.86-12.85 24.23 55.81 55.44.01.01" stroke="#000" stroke-width="13.3315"/><path d="m502.98 94.55.12 1.07 4.45 39.91-27.71-9.86 12.85 24.24-56.47 56.06" stroke="#000" stroke-width="13.3315"/><path d="m413.27 441.2h-117.62l-1.89-33.69" stroke="#000" stroke-width="13.3315"/><path d="m333.61 238.4-29.07 170.15-10.75-1.27-58.13-6.87 35.9-233.43s10-43.7 23.7-51.48c8.27-4.69 33.23-15.41 49.43-20.9.68-.23 1.34-.45 1.99-.66l35.26-11.08s16.58 69.56 28.88 122.28c6.52 27.92 11.85 51.13 12.87 56.77" stroke="#000" stroke-width="13.3315"/><path d="m423.69 255.08v6.83 179.03" stroke="#000" stroke-width="13.3315"/><path d="m413.27 441.2h10.42 9.72 117.62l1.89-33.72" stroke="#000" stroke-width="13.3315"/><path d="m513.07 238.4 29.069 170.15 10.761-1.27 58.119-6.87-35.909-233.43s-9.99-43.7-23.69-51.48c-7.39-4.19-24.32-11.56-39.17-16.83l-9.15-3.05-34.5-11.48s-.01.04-.029.11c-.851 3.18-19.24 71.73-32.351 121.72-6.05 23.09-10.979 42.21-12.53 49.11-.16.67-.27 1.22-.36 1.65" stroke="#000" stroke-width="13.3315"/><path d="m382.64 82.56s52.68-23.7 85.6 1.65" stroke="#000" stroke-width="13.3315"/><path d="m551.03 441.2-12.7 345.14h-93.32l-20.73-311.07h-2.44l-20.74 311.07h-93.32l-12.13-345.14" stroke="#000" stroke-width="13.3315"/><path d="m0 0h850.394v850.394h-850.394z"/></g></svg>