<svg enable-background="new 0 0 850.394 850.394" height="850.394" viewBox="0 0 850.394 850.394" width="850.394" xmlns="http://www.w3.org/2000/svg"><path d="m724.41 273.36h-402.58-200.19-5.2v-5.19l49.23-74.4h513.07l51.95 78.22v1.37z" fill="#be0000"/><path d="m321.83 273.36h402.58v286.61h-602.77v-286.61zm351.16 57.57v-20.38h-52.51-49.22-50.32-48.96-50.59-48.14v20.79 30.63 49.23 46.22 47.86h48.14 50.59 48.96 50.319 49.221 52.51v-47.86-46.22-49.23zm-374.13 58.39c0-6.04-4.9-10.94-10.94-10.94s-10.94 4.9-10.94 10.94 4.9 10.94 10.94 10.94 10.94-4.9 10.94-10.94z" fill="#be0000"/><g fill="#f6cc4b"><path d="m620.48 457.42h52.51v47.86h-52.51z"/><path d="m620.48 411.2h52.51v46.22h-52.51z"/><path d="m620.48 361.97h52.51v49.23h-52.51z"/><path d="m672.99 330.93v31.04h-52.51v-45.95-5.47h52.51z"/><path d="m571.26 457.42h49.221v47.86h-49.221z"/><path d="m571.26 411.2h49.221v46.22h-49.221z"/><path d="m571.26 361.97h49.221v49.23h-49.221z"/><path d="m620.48 316.02v45.95h-49.22v-51.42h49.22z"/><path d="m520.94 457.42h50.319v47.86h-50.319z"/><path d="m520.94 411.2h50.319v46.22h-50.319z"/><path d="m520.94 361.97h50.319v49.23h-50.319z"/><path d="m520.94 310.55h50.319v51.42h-50.319z"/><path d="m471.98 457.42h48.96v47.86h-48.96z"/><path d="m471.98 411.2h48.96v46.22h-48.96z"/><path d="m471.98 361.97h48.96v49.23h-48.96z"/><path d="m471.98 310.55h48.96v51.42h-48.96z"/><path d="m421.39 457.42h50.59v47.86h-50.59z"/><path d="m421.39 411.2h50.59v46.22h-50.59z"/><path d="m421.39 361.97h50.59v49.23h-50.59z"/><path d="m421.39 310.55h50.59v51.42h-50.59z"/><path d="m373.25 457.42h48.14v47.86h-48.14z"/><path d="m373.25 411.2h48.14v46.22h-48.14z"/><path d="m373.25 361.97h48.14v49.23h-48.14z"/><path d="m421.39 310.55v51.42h-48.14v-30.63-20.79z"/></g><circle cx="287.92" cy="389.32" r="10.94"/><path d="m81.17 273.36h35.27 5.2 200.19 402.58 6.28 37.48" fill="none" stroke="#231f20" stroke-width="28"/><path d="m121.64 273.36v286.61 98.46" fill="none" stroke="#231f20" stroke-width="28"/><path d="m724.41 272.27v1.09 286.61 97.37" fill="none" stroke="#231f20" stroke-width="28"/><path d="m121.64 559.97h602.77" fill="none" stroke="#231f20" stroke-width="28"/><path d="m321.83 273.36v277.86" fill="none" stroke="#231f20" stroke-width="28"/><path d="m672.99 457.42v47.86h-52.51-49.22-50.32-48.96-50.59-48.14v-47.86-46.22-49.23-30.63-20.79h48.14 50.59 48.96 50.32 49.22 52.51v20.38 31.04 49.23z" fill="none" stroke="#231f20" stroke-width="28"/><path d="m116.44 268.17 49.23-74.4h513.07l51.95 78.22" fill="none" stroke="#231f20" stroke-width="28"/><circle cx="287.92" cy="389.32" fill="none" r="10.94" stroke="#231f20" stroke-width="14"/><path d="m339.33 331.34h33.92" fill="none" stroke="#231f20" stroke-width="28"/><path d="m672.03 330.93h.96 32.95" fill="none" stroke="#231f20" stroke-width="28"/><path d="m421.39 310.55v51.42 49.23 46.22 47.86" fill="none" stroke="#231f20" stroke-width="21"/><path d="m471.98 310.55v51.42 49.23 46.22 47.86" fill="none" stroke="#231f20" stroke-width="21"/><path d="m571.26 310.55v51.42 49.23 46.22 47.86" fill="none" stroke="#231f20" stroke-width="21"/><path d="m520.94 310.55v51.42 49.23 46.22 47.86" fill="none" stroke="#231f20" stroke-width="21"/><path d="m620.48 316.02v45.95 49.23 46.22 47.86 5.47" fill="none" stroke="#231f20" stroke-width="21"/><path d="m373.25 361.97h48.14 50.59 48.96 50.32 49.22 52.51" fill="none" stroke="#231f20" stroke-width="21"/><path d="m373.25 457.42h48.14 50.59 48.96 50.32 49.22 52.51" fill="none" stroke="#231f20" stroke-width="21"/><path d="m373.25 411.2h48.14 50.59 48.96 50.32 49.22 52.51" fill="none" stroke="#231f20" stroke-width="21"/><path d="m0 0h850.394v850.394h-850.394z" fill="none"/></svg>