<svg enable-background="new 0 0 850.394 850.394" height="850.394" viewBox="0 0 850.394 850.394" width="850.394" xmlns="http://www.w3.org/2000/svg"><path d="m228.12 496.52c.03-.93.2-1.84.49-2.71 1.26-3.819 4.79-6.859 9.31-7.63l.94-.12c4.23-.409 8.16 1.311 10.47 4.23.44.56.82 1.16 1.13 1.8.48.96.8 2 .94 3.11.71 5.66-3.61 10.899-9.73 11.939-.03 0-.06.011-.09.011l-.84.109c-4 .38-7.72-1.13-10.07-3.76-.22-.25-.44-.52-.63-.79l-.01-.01c-.98-1.33-1.63-2.88-1.84-4.59-.07-.529-.09-1.069-.07-1.589z" fill="#c8c8c8"/><path d="m291.15 395.01c20.32 9.81 37.46 25.41 48.97 44.92 7.64 12.931 12.81 27.58 14.79 43.391 7.82 62.54-37.17 119.68-100.5 127.609-63.33 7.92-121.01-36.38-128.84-98.93-7.83-62.54 37.16-119.68 100.5-127.6 23.17-2.9 45.59 1.19 65.08 10.61zm-29.91 190.51c17.1-4.05 32.15-12.689 43.93-24.39 5.07-5.01 9.53-10.58 13.29-16.6 4.26-6.8 7.64-14.17 9.98-21.92 2.59-8.521 3.94-17.511 3.88-26.74-.03-3.54-.26-7.101-.71-10.7-.45-3.59-1.1-7.1-1.95-10.53-2.04-8.279-5.2-16.069-9.3-23.22-4.13-7.2-9.21-13.76-15.06-19.52-5.06-4.99-10.68-9.391-16.76-13.09-14.59-8.91-31.77-13.87-49.86-13.58-3.38.06-6.79.3-10.22.73-3.71.46-7.34 1.14-10.88 2.02-16.87 4.14-31.71 12.77-43.35 24.38-5.05 5.029-9.49 10.62-13.24 16.649-4.32 6.95-7.72 14.48-10.05 22.42-2.45 8.32-3.73 17.09-3.65 26.09.02 3.511.25 7.051.7 10.62.45 3.57 1.09 7.07 1.93 10.48 2.32 9.399 6.07 18.16 11.01 26.07 4.26 6.869 9.42 13.1 15.29 18.56 5.19 4.84 10.95 9.07 17.14 12.6 13.78 7.891 29.71 12.301 46.45 12.23 3.75-.021 7.53-.26 11.34-.73 3.43-.429 6.8-1.039 10.09-1.829z" fill="#797878"/><path d="m781.05 516.67v118.11h-493.09z" fill="#ed1e29"/><g fill="none"><path d="m340.12 439.93c7.64 12.931 12.81 27.58 14.79 43.391 7.82 62.54-37.17 119.68-100.5 127.609-63.33 7.92-121.01-36.38-128.84-98.93-7.83-62.54 37.16-119.68 100.5-127.6 23.17-2.9 45.59 1.19 65.08 10.61 20.32 9.81 37.46 25.41 48.97 44.92z" stroke="#231f20" stroke-width="21"/><path d="m329.66 474.64c.85 3.431 1.5 6.94 1.95 10.53.45 3.6.68 7.16.71 10.7.06 9.229-1.29 18.22-3.88 26.74-2.34 7.75-5.72 15.12-9.98 21.92-3.76 6.02-8.22 11.59-13.29 16.6-11.78 11.7-26.83 20.34-43.93 24.39-3.29.79-6.66 1.4-10.09 1.83-3.81.471-7.59.71-11.34.73-16.74.07-32.67-4.34-46.45-12.23-6.19-3.529-11.95-7.76-17.14-12.6-5.87-5.46-11.03-11.69-15.29-18.56-4.94-7.91-8.69-16.671-11.01-26.07-.84-3.41-1.48-6.91-1.93-10.48-.45-3.569-.68-7.109-.7-10.62-.08-9 1.2-17.77 3.65-26.09 2.33-7.939 5.73-15.47 10.05-22.42 3.75-6.029 8.19-11.62 13.24-16.649 11.64-11.61 26.48-20.24 43.35-24.38 3.54-.88 7.17-1.56 10.88-2.02 3.43-.43 6.84-.67 10.22-.73 18.09-.29 35.27 4.67 49.86 13.58 6.08 3.7 11.7 8.1 16.76 13.09 5.85 5.76 10.93 12.319 15.06 19.52 4.1 7.149 7.26 14.939 9.3 23.219z" stroke="#231f20" stroke-width="14.3162"/><path d="m146.32 497.64.97-.12 65.53-8.2.16-.02 14.55-1.82 8.44-1.06 1.95-.24.94-.12 3.8-.47 5.98-.75 17.16-2.15 1.04-.13 62.28-7.79" stroke="#231f20" stroke-width="7.1581"/><path d="m241.67 507.14 5.67-.71 3.94-.49 13-1.63 2.12-.26 65.37-8.18" stroke="#231f20" stroke-width="7.1581"/><path d="m148.96 518.74.96-.12 67.58-8.46 2.38-.29 10.29-1.29 6.38-.8 4.19-.52.84-.11" stroke="#231f20" stroke-width="7.1581"/><path d="m228.17 492.57-.64-5.09-1.89-15.15-8.06-64.35-.07-.58" stroke="#231f20" stroke-width="7.1581"/><path d="m239.79 585.45-7.47-59.7-2.15-17.17-.42-3.35" stroke="#231f20" stroke-width="7.1581"/><path d="m249.42 491.04-.09-.75-.69-5.45-1.58-12.68-8.38-66.93-.06-.48" stroke="#231f20" stroke-width="7.1581"/><path d="m261.49 587.56-.25-2.04-8.12-64.85-1.84-14.73-.49-3.94-.06-.48" stroke="#231f20" stroke-width="7.1581"/><path d="m251.76 500.74-.97 1.26-3.45 4.43-4.72 6.07-10.3 13.25-38.96 50.1" stroke="#231f20" stroke-width="7.1581"/><path d="m305.29 431.91-39.49 50.78-.67.87-9.45 12.15-3.91 5.03" stroke="#231f20" stroke-width="7.1581"/><path d="m228.59 495.91-.47.61-2.28 2.92-8.34 10.72-1.59 2.05-39.69 51.04" stroke="#231f20" stroke-width="7.1581"/><path d="m288.54 418.81-41.48 53.35-8.16 10.49-2.93 3.77" stroke="#231f20" stroke-width="7.1581"/><path d="m236.55 507.78 6.07 4.72 10.5 8.17 52.04 40.45" stroke="#231f20" stroke-width="7.1581"/><path d="m161 449.01 51.69 40.21.13.1 13.02 10.12 4.19 3.26" stroke="#231f20" stroke-width="7.1581"/><path d="m251.54 492.49 4.14 3.22 10.72 8.34 1.77 1.37 50.29 39.11" stroke="#231f20" stroke-width="7.1581"/><path d="m174.25 432.38 51.39 39.95 13.26 10.32 3.76 2.92" stroke="#231f20" stroke-width="7.1581"/><path d="m251.76 500.74h.01l12.51 3.57 3.89 1.11 60.26 17.19" stroke="#231f20" stroke-width="7.1581"/><path d="m150.94 471.43 61.75 17.79.29.08 15.35 4.42" stroke="#231f20" stroke-width="7.1581"/><path d="m230.68 503.49-.01.01-10.79 6.37-3.97 2.34-54.98 32.48" stroke="#231f20" stroke-width="7.1581"/><path d="m320.35 451.43-53.51 31.13-1.71 1-14.67 8.53" stroke="#231f20" stroke-width="7.1581"/><path d="m250.46 492.09c.48.96.8 2 .94 3.11.71 5.66-3.61 10.899-9.73 11.939-.03 0-.06.011-.09.011-.15.029-.3.05-.46.069-.13.021-.25.03-.38.04-4 .38-7.72-1.13-10.07-3.76-.22-.25-.44-.52-.63-.79l-.01-.01c-.98-1.33-1.63-2.88-1.84-4.59-.07-.53-.09-1.07-.07-1.591.03-.93.2-1.84.49-2.71 1.26-3.819 4.79-6.859 9.31-7.63.19-.029.37-.06.56-.08.13-.02.25-.029.38-.04 4.23-.409 8.16 1.311 10.47 4.23.44.562.82 1.162 1.13 1.802z" stroke="#231f20" stroke-width="7.1581"/><path d="m148.38 415.86-21.58-175.46s.51-20.01-53.25 18.74" stroke="#231f20" stroke-linecap="round" stroke-linejoin="round" stroke-width="28"/><path d="m340.12 439.93 45.36-5.66 32.01 83.05 19.88 51.56 33.31-4.15" stroke="#231f20" stroke-width="21.4743"/><path d="m307.5 332.58-23.79 2.98-142.77 17.86-1.19-9.52 166.56-20.84z" stroke="#231f20" stroke-width="21"/><path d="m283.71 335.56 7.44 59.45v.03" stroke="#231f20" stroke-width="21.4743"/><path d="m417.59 541.78c2.15 17.09-9.98 32.67-27.06 34.819-17.09 2.131-32.67-9.989-34.81-27.069-2.14-17.09 9.98-32.67 27.07-34.811 10.4-1.3 20.25 2.681 26.82 9.851 4.25 4.61 7.14 10.53 7.98 17.21z" stroke="#231f20" stroke-width="21.4743"/><path d="m386.66 545.66 22.95-21.09 7.88-7.25" stroke="#231f20" stroke-linecap="round" stroke-linejoin="round" stroke-width="21"/><path d="m287.96 634.78 493.09-118.11v118.11z" stroke="#231f20" stroke-width="14"/><path d="m0 0h850.394v850.394h-850.394z"/></g></svg>