<svg enable-background="new 0 0 850.394 850.394" height="850.394" viewBox="0 0 850.394 850.394" width="850.394" xmlns="http://www.w3.org/2000/svg"><path d="m425.82 108.24h149.07v20.43h-149.07z" fill="#c8c8c8"/><path d="m274.86 108.24h150.96v20.43h-150.96z" fill="#c8c8c8"/><path d="m445.04 310.64v449.05c0 5.17-4.1 9.369-9.15 9.369h-22.03c-5.05 0-9.15-4.199-9.15-9.369v-449.05c0-5.17 4.1-9.37 9.15-9.37h22.03c5.05 0 9.15 4.2 9.15 9.37z" fill="#fff"/><path d="m464.53 157.98v134.15c0 5.05-4.09 9.14-9.141 9.14h-19.5-22.03-17.61c-5.05 0-9.14-4.09-9.14-9.14v-134.15c0-5.05 4.09-9.14 9.14-9.14h29.57 29.57c5.051 0 9.141 4.09 9.141 9.14z" fill="#ffa500"/><path d="m574.89 128.67v12.85c0 4.04-4.1 7.32-9.14 7.32h-110.36-29.57v-20.17z" fill="#fff"/><path d="m425.82 128.67v20.17h-29.57-112.24c-5.06 0-9.15-3.28-9.15-7.32v-12.85z" fill="#fff"/><path d="m574.89 91.63v16.61h-149.07v-23.93h139.93c5.04 0 9.14 3.28 9.14 7.32z" fill="#fff"/><path d="m425.82 84.31v23.93h-150.96v-16.61c0-4.04 4.09-7.32 9.15-7.32z" fill="#fff"/><g fill="none"><path d="m396.25 148.84h-112.24c-5.06 0-9.15-3.28-9.15-7.32v-12.85-20.43-16.61c0-4.04 4.09-7.32 9.15-7.32h141.81 139.93c5.04 0 9.14 3.28 9.14 7.32v16.61 20.43 12.85c0 4.04-4.1 7.32-9.14 7.32h-110.36" stroke="#000" stroke-width="19.3568"/><path d="m413.86 301.27h-17.61c-5.05 0-9.14-4.09-9.14-9.14v-134.15c0-5.05 4.09-9.14 9.14-9.14h29.57 29.57c5.051 0 9.141 4.09 9.141 9.14v134.15c0 5.05-4.09 9.14-9.141 9.14h-19.5" stroke="#000" stroke-width="19.3568"/><path d="m435.89 301.27c5.051 0 9.15 4.2 9.15 9.37v449.05c0 5.17-4.1 9.369-9.15 9.369h-22.03c-5.05 0-9.15-4.199-9.15-9.369v-449.05c0-5.17 4.1-9.37 9.15-9.37z" stroke="#000" stroke-width="19.3568"/><path d="m425.82 148.84v-20.17-20.43-23.93" stroke="#000" stroke-width="19.3568"/><path d="m274.86 108.24h150.96 149.07" stroke="#000" stroke-width="12.9045"/><path d="m274.86 128.67h150.96 149.07" stroke="#000" stroke-width="12.9045"/><path d="m0 0h850.394v850.394h-850.394z"/></g></svg>