<svg enable-background="new 0 0 850.394 850.394" height="850.394" viewBox="0 0 850.394 850.394" width="850.394" xmlns="http://www.w3.org/2000/svg"><path d="m147.3 550.97-2.25 29.92-2.2.16s-65.09-21.88-67.82-42.67v-21.33c15.31 15.32 72.27 33.92 72.27 33.92z" fill="#787878"/><path d="m147.3 550.97 124.24-10.13c-3.43 16.8-2.36 31.18-2.36 31.18l-124.13 8.87z" fill="#787878"/><path d="m679.56 509.72c.391 2.49.591 5.061.591 7.681 0 23.96-16.94 43.39-37.83 43.39-20.891 0-37.82-19.43-37.82-43.39 0-23.971 16.93-43.391 37.82-43.391 18.609 0 34.079 15.4 37.239 35.71zm-19.22 7.68c0-11.42-8.07-20.67-18.02-20.67s-18.021 9.25-18.021 20.67c0 11.409 8.07 20.68 18.021 20.68 9.95 0 18.02-9.27 18.02-20.68z" fill="#787878"/><path d="m642.32 496.73c9.949 0 18.02 9.25 18.02 20.67 0 11.409-8.07 20.68-18.02 20.68s-18.021-9.271-18.021-20.68c.001-11.42 8.071-20.67 18.021-20.67z" fill="#c8c8c8"/><path d="m336.47 532.61c12.2 0 22.08 11.33 22.08 25.319 0 13.99-9.88 25.33-22.08 25.33-12.19 0-22.07-11.34-22.07-25.33 0-13.989 9.88-25.319 22.07-25.319z" fill="#c8c8c8"/><path d="m271.54 540.84c3.5-17.109 11.67-36.75 30.41-46.28 34.84-17.72 68.71-2.399 77.19 6.08l13.67 15.32h3.28v25.15l.18-.021-13.85 4.95-.75.14c-4.66-23.699-23.13-41.39-45.2-41.39-25.58 0-46.33 23.78-46.33 53.14 0 3.91.37 7.73 1.07 11.4l-22.03 2.689c0 .002-1.07-14.378 2.36-31.178z" fill="#c8c8c8"/><path d="m291.21 569.33c-.7-3.67-1.07-7.49-1.07-11.4 0-29.359 20.75-53.14 46.33-53.14 22.07 0 40.54 17.69 45.2 41.39.75 3.78 1.14 7.71 1.14 11.75 0 29.36-20.75 53.16-46.34 53.16-22.17 0-40.71-17.88-45.26-41.76zm67.34-11.4c0-13.989-9.88-25.319-22.08-25.319-12.19 0-22.07 11.33-22.07 25.319 0 13.99 9.88 25.33 22.07 25.33 12.2 0 22.08-11.34 22.08-25.33z" fill="#787878"/><path d="m474.85 455.28v50.28l-48.68 5.47v-50.32l-.14-3.48z" fill="#c8c8c8"/><path d="m380 474 .01.71-227.31 4.6s-39.93-2.199-57.43-6.569c-17.51-4.37-17.51-4.37-17.51-4.37h-2.73v-8.2l3.73-15.46c51.78 10.26 69.01 6.16 69.01 6.16h9.03 159.98l27.9-45.13-4.1-87.78.34-3.25c13 1.3 21.26 2.15 21.26 2.15s13.67 9.3 13.67 44.31c0 34.999 4.15 112.829 4.15 112.829z" fill="#c8c8c8"/><path d="m176.31 300.54.18 5.11-19.69 145.22h-9.03s-17.23 4.1-69.01-6.16l27.44-113.63s6.43-5.18 22.35-13.92c1.79-.24 3.37-1.13 4.49-2.42 1.05-.56 2.13-1.13 3.25-1.71 16.97-8.8 23.41-11.98 40.02-12.49z" fill="#fff"/><path d="m340.58 317.96 4.1 87.78-27.9 45.13h-159.98l19.69-145.22-.18-5.11c1.68-.06 3.46-.08 5.37-.08 12.07 0 70.97 5.53 118.26 10.17 15.63 1.53 30 2.97 40.98 4.08z" fill="#fff"/><path d="m77.76 468.37s0 0 17.51 4.37c17.5 4.37 57.43 6.569 57.43 6.569l-5.4 71.66s-56.96-18.6-72.27-33.92v-48.68h2.73z" fill="#0b00ea"/><path d="m396.09 509.94v6.02h-3.28l-13.67-15.32c-8.48-8.479-42.35-23.8-77.19-6.08-18.74 9.53-26.91 29.171-30.41 46.28l-124.24 10.13 5.4-71.66 227.31-4.6 16.08-.33z" fill="#0b00ea"/><path d="m621.4 449.44 46.529-1.86-3.92-10.42 47.34 67.09 12.301-1.63-41.511 7.06-2.58.04c-3.159-20.31-18.63-35.71-37.239-35.71-20.891 0-37.82 19.42-37.82 43.391l-208.23 23.689-.18.021v-25.15-6.02-35.561l-16.08.33-.01-.71s-4.15-77.83-4.15-112.83c0-35.01-13.67-44.31-13.67-44.31s-8.26-.85-21.26-2.15c-10.98-1.11-25.35-2.55-40.98-4.08l.06-.63-1.5-19.12 97.87-27.89.12 5.79 3.98 189.47 25.56-1.02.14 3.479v50.32l48.68-5.471v-50.278l8.48-.34 50.05-1.99z" fill="#0b00ea"/><path d="m483.33 276.83v178.11l-8.48.34-48.82 1.95-25.56 1.02-3.98-189.47z" fill="#0b00ea"/><path d="m533.38 281.46v171.49l-50.05 1.99v-178.11z" fill="#0b00ea"/><path d="m582.1 285.98 39.3 163.46-88.02 3.51v-171.49z" fill="#0b00ea"/><path d="m664.01 437.16 3.92 10.42-46.53 1.86-39.3-163.46 25.93 2.4h.01z" fill="#0b00ea"/><path d="m608.04 281.86 7.65 4.46 151.87 210.49-43.84 5.8-.07.01-12.3 1.63-47.34-67.09-55.97-148.78h-.01l-2.14-5.71z" fill="#0b00ea"/><path d="m722.08 348.31 51.68 147.68-6.2.82-151.87-210.49z" fill="#0b00ea"/><g fill="none"><path d="m396.09 509.94v-35.56l-16.08.33-227.31 4.6-5.4 71.66-2.25 29.92-.01.16" stroke="#231f20" stroke-width="21"/><path d="m380 474s-4.15-77.83-4.15-112.83c0-35.01-13.67-44.31-13.67-44.31s-8.26-.85-21.26-2.15c-10.98-1.11-25.35-2.55-40.98-4.08-47.29-4.64-106.19-10.17-118.26-10.17-1.91 0-3.69.02-5.37.08-16.61.51-23.05 3.69-40.02 12.49-1.12.58-2.2 1.15-3.25 1.71-1.58.83-3.07 1.64-4.49 2.42-15.92 8.74-22.35 13.92-22.35 13.92l-27.44 113.63-3.73 15.46v8.2 48.68 21.33c2.73 20.79 67.82 42.67 67.82 42.67l2.2-.16 124.13-8.87s-1.07-14.38 2.36-31.18c3.5-17.109 11.67-36.75 30.41-46.28 34.84-17.72 68.71-2.399 77.19 6.08l13.67 15.32h3.28" stroke="#231f20" stroke-width="21"/><path d="m152.7 479.31s-39.93-2.199-57.43-6.569c-17.51-4.37-17.51-4.37-17.51-4.37" stroke="#231f20" stroke-width="21"/><path d="m358.55 557.93c0 13.99-9.88 25.33-22.08 25.33-12.19 0-22.07-11.34-22.07-25.33 0-13.989 9.88-25.319 22.07-25.319 12.2-.001 22.08 11.329 22.08 25.319z" stroke="#231f20" stroke-width="14"/><path d="m381.67 546.18c.75 3.78 1.14 7.71 1.14 11.75 0 29.36-20.75 53.16-46.34 53.16-22.17 0-40.71-17.88-45.26-41.76-.7-3.67-1.07-7.49-1.07-11.4 0-29.359 20.75-53.14 46.33-53.14 22.07 0 40.54 17.69 45.2 41.39z" stroke="#231f20" stroke-width="21"/><path d="m660.34 517.4c0 11.409-8.07 20.68-18.02 20.68s-18.021-9.271-18.021-20.68c0-11.42 8.07-20.67 18.021-20.67 9.95 0 18.02 9.25 18.02 20.67z" stroke="#231f20" stroke-width="14"/><path d="m679.56 509.72c.391 2.49.591 5.061.591 7.681 0 23.96-16.94 43.39-37.83 43.39-20.891 0-37.82-19.43-37.82-43.39 0-23.971 16.93-43.391 37.82-43.391 18.609 0 34.079 15.4 37.239 35.71z" stroke="#231f20" stroke-width="21"/><path d="m340.58 317.96 4.1 87.78-27.9 45.13h-159.98-9.03s-17.23 4.1-69.01-6.16" stroke="#231f20" stroke-width="21"/><path d="m156.8 450.87 19.69-145.22" stroke="#231f20" stroke-width="21"/><path d="m271.55 540.84h-.01l-124.24 10.13s-56.96-18.6-72.27-33.92" stroke="#231f20" stroke-width="21"/><path d="m174.95 290.51c0 4.03-3.27 7.29-7.3 7.29-2.01 0-3.84-.82-5.16-2.13-1.31-1.32-2.13-3.15-2.13-5.16v-3.95c0-4.03 3.26-7.3 7.29-7.3 2.01 0 3.84.82 5.16 2.14s2.14 3.14 2.14 5.16z" stroke="#231f20" stroke-width="21"/><path d="m128.55 317.16c-.33.06-.67.08-1.01.08-2.01 0-3.83-.82-5.15-2.13-1.32-1.32-2.14-3.15-2.14-5.16v-3.95c0-4.03 3.27-7.3 7.29-7.3 2.02 0 3.84.82 5.16 2.14s2.14 3.14 2.14 5.16v3.95c0 1.83-.68 3.51-1.8 4.79-1.12 1.29-2.7 2.18-4.49 2.42z" stroke="#231f20" stroke-width="21"/><path d="m608.03 288.38-2.14-5.71-1.63-4.32" stroke="#231f20" stroke-linecap="round" stroke-linejoin="round" stroke-width="21"/><path d="m300 310-1.5-19.12 97.87-27.89.12 5.79 3.98 189.47 25.56-1.02 48.82-1.95 8.48-.34 50.05-1.99 88.02-3.51 46.53-1.86-3.92-10.42-55.97-148.78" stroke="#231f20" stroke-linecap="round" stroke-linejoin="round" stroke-width="21"/><path d="m396.49 268.78 86.84 8.05 50.05 4.63 48.72 4.52 25.93 2.4h.01" stroke="#231f20" stroke-width="21"/><path d="m483.33 265.86v10.97 178.11 8.23" stroke="#231f20" stroke-linecap="round" stroke-linejoin="round" stroke-width="21"/><path d="m533.38 272.83v8.63 171.49 8.99" stroke="#231f20" stroke-linecap="round" stroke-linejoin="round" stroke-width="21"/><path d="m580.03 277.35 2.07 8.63 39.3 163.46 1.75 7.29" stroke="#231f20" stroke-linecap="round" stroke-linejoin="round" stroke-width="21"/><path d="m396.09 509.94v6.02 25.15l.18-.02 208.23-23.69" stroke="#231f20" stroke-width="21"/><path d="m426.17 460.71v50.32l48.68-5.47v-50.28" stroke="#231f20" stroke-width="14"/><path d="m723.65 502.62-12.3 1.63-47.34-67.09" stroke="#231f20" stroke-width="21"/><path d="m608.04 281.86 7.65 4.46 106.39 61.99 51.68 147.68-6.2.82-43.84 5.8" stroke="#231f20" stroke-width="21"/><path d="m615.69 286.32 151.87 210.49" stroke="#231f20" stroke-width="21"/><path d="m682.14 509.68 41.51-7.06.07-.01" stroke="#231f20" stroke-width="21"/><path d="m0 0h850.394v850.394h-850.394z"/></g></svg>