<svg enable-background="new 0 0 850.394 850.394" height="850.394" viewBox="0 0 850.394 850.394" width="850.394" xmlns="http://www.w3.org/2000/svg"><path d="m626.521 637.5c13.637-15.039 12.723 4.365 6.296 16.741-3.43 6.643-6.825 8.112-9.976 15.007-1.86 4.05-2.794 12.434-7.076 15.626-5.846 4.366-9.903 2.992-15.774-.961l-1.788-.026c2.258-3.121 4.601-5.242 6.951-9.809 3.455-6.655 5.315-15.336 4.184-19.611l.906-.109c7.149-5.044 12.841-13.053 16.277-16.858z" fill="#ffeec8"/><path d="m409.037 666.043 2.092-58.086 1.198.038s12.18-.464 25.835-.444c13.915.025 29.364.548 35.044 2.586 11.28 4.024 49.487 31.684 62.681 42.428 13.192 10.744 24.108 17.045 24.108 17.045 16.694 14.406 29.463-1.219 36.804-9.893.742-.878 1.431-1.684 2.06-2.38 6.308-6.952 9.499-6.546 10.479-2.87 1.132 4.275-.729 12.956-4.184 19.611-2.351 4.566-4.693 6.688-6.951 9.809-1.032 1.419-2.038 3.044-3.024 5.198-.755 1.645-1.357 4.005-2.092 6.442-1.079 3.56-2.442 7.287-4.984 9.184-9.97 7.442-14.722-1.786-32.132-12.053-.754-.445-1.528-.891-2.33-1.335-18.501-10.306-38.247-5.282-65.639-20.914-9.28-5.302-17.555-19.502-28.709-15.975-9.936 3.147-20.745 10.467-30.337 15.349-7.03 3.572-13.206 6.326-20.164 8.622l-.179-.522z" fill="#ffeec8"/><path d="m595.098 658.529 1.701 1.188c-7.341 8.674-20.109 24.299-36.804 9.893 0 0-10.916-6.301-24.108-17.045-13.193-10.744-51.4-38.403-62.681-42.428-5.68-2.038-21.129-2.561-35.044-2.586l.007-2.283.622-17.142 1.198.039s49.613-1.896 60.88 2.135c11.273 4.024 46.906 33.754 60.105 44.498 13.186 10.737 24.479 18.74 24.479 18.74 3.304 2.858 6.54 4.405 9.645 4.991z" fill="#ffeec8"/><path d="m408.792 678.405c6.958-2.296 13.133-5.05 20.164-8.622 9.592-4.882 20.401-12.201 30.337-15.349 11.154-3.527 19.429 10.673 28.709 15.975 27.392 15.632 47.138 10.608 65.639 20.914.802.444 1.576.89 2.33 1.335l-.463.748c-41.537 19.953-40.564 19.862-40.273 19.772-.794.348-16.992 7.307-33.7 8.151-4.759.245-9.564-.013-14.066-1.064-10.936-2.554-22.182-5.107-39.055-9.938-24.115-6.913-24.625-5.959-54.783-15.929-3.085-1.02-6.48-2.154-10.247-3.425l.073-1.974c3.555.271 5.739.31 5.739.31 23.314 1.709 32.27-1.528 37.228-3.953l2.615-19.314-.424 11.84z" fill="#faa41a"/><path d="m438.824 587.133-.033.993-.622 17.142-.007 2.283c-13.656-.02-25.835.444-25.835.444l-1.198-.038.033-.987s-28.583.091-40.22-1.702l-2.78-.129c10.969-4.644 19.865-9.441 22.017-12.937 0 0 1.734-1.8 3.144-5.102l1.483.277c11.636 1.794 44.018-.244 44.018-.244z" fill="#7a7878"/><path d="m310.082 668.777c-.119-.155-.232-.316-.344-.478-12.822-18.74-13.411-23.28-13.411-23.28l.549-.49c1.602 1.722 3.191 3.327 4.746 4.817 0-.007.007-.007.007-.013l.94-1.091 2.416 1.986c2.899 3.244 8.268 10.545 12.028 12.544.794.432 17.939 6.319 26.703 6.319 1.781.007 4.865-1.16 6.441-2.044.84-.02 2.052-.297 2.913-1.593 1.191-1.883 2.714-4.005 1.37-5.075.708.109 2.376.213 3.316-.955 1.225-1.47 1.741-3.856 1.569-5.127l-.08-.283c1.502-.322 2.198-2.147 1.231-3.521-1.033-1.502-5.084-3.23-12.16-9.229l1.721-.109s1.82-.22 5.587-3.502c3.766-3.282-1.073-7.771-5.177-5.404-2.787 1.6-10.194.451-14.669-.451-.655-.284-1.297-.497-1.919-.626-4.746-.993-8.632-.122-15.993-.605l.668-.774c-.404-1.605-1.933-4.991-4.124-9.538l2.992-.097c7.99.136 32.303-7.216 50.758-15.02l2.78.129c11.637 1.793 40.22 1.702 40.22 1.702l-.033.987-2.092 58.086-2.615 19.314c-4.958 2.425-13.914 5.662-37.228 3.953 0 0-2.185-.038-5.739-.31-12.576-.965-42.31-4.848-53.371-20.222z" fill="#7a7878"/><path d="m287.933 544.009c7.222-25.474-24.466-48.806-24.466-48.806l-2.336-.258c.43-.458.867-.909 1.33-1.349.007-.006.014-.013.02-.019 1.787-1.49 7.189-5.875 14.1-10.474 5.852 1.806 11.975 1.948 17.826.077 5.044-1.618 9.334-4.553 12.736-8.435l2.647.187c25.75 6.61 38.605 13.228 51.01 34.36 0 0 21.494 31.703 32.29 59.06 3.237 8.19 1.986 14.633.231 18.747-1.41 3.302-3.144 5.102-3.144 5.102-2.151 3.495-11.048 8.293-22.017 12.937-18.455 7.804-42.769 15.155-50.758 15.02l-2.992.097c-9.32-19.372-30.516-59.949-26.849-75.033.133-.408.259-.807.372-1.213z" fill="#abd153"/><path d="m350.156 667.049c-1.576.884-4.66 2.051-6.441 2.044-8.764 0-25.909-5.888-26.703-6.319-3.76-1.999-9.128-9.3-12.028-12.544l-2.416-1.986 15.298-17.676c7.361.483 11.247-.388 15.993.605.622.129 1.264.342 1.919.626 3.687 1.605 7.911 5.456 11.842 8.874.232.199.463.399.695.593 7.076 5.998 11.127 7.727 12.16 9.229.966 1.374.271 3.199-1.231 3.521l.08.283c.172 1.271-.344 3.657-1.569 5.127-.94 1.168-2.608 1.064-3.316.955 1.344 1.07-.179 3.192-1.37 5.075-.861 1.296-2.072 1.573-2.913 1.593z" fill="#ffeec8"/><path d="m350.447 632.25c4.104-2.366 8.943 2.122 5.177 5.404-3.767 3.282-5.587 3.502-5.587 3.502l-1.721.109c-.232-.193-.463-.394-.695-.593-3.932-3.418-8.155-7.269-11.842-8.874 4.474.903 11.882 2.052 14.668.452z" fill="#ffeec8"/><path d="m317.866 630.567-15.298 17.676-.94 1.091c0 .006-.007.006-.007.013-1.555-1.49-3.144-3.096-4.746-4.817-5.018-5.353-10.24-11.782-15.291-19.07-4.693-6.765-9.248-14.265-13.352-22.339-7.05-13.846-12.802-29.355-15.754-45.665-3.25-17.967-4.263-32.303-2.847-44.943 0 0 4.197-9.776 11.499-17.566l2.336.258s31.688 23.332 24.466 48.806c-.146.381-.271.787-.371 1.213-3.667 15.084 17.528 55.661 26.849 75.033 2.191 4.547 3.72 7.933 4.124 9.538z" fill="#abd153"/><path d="m276.58 483.104c-1.476-.458-2.933-1.019-4.362-1.677-6.335-2.928-12.146-7.816-16.661-14.181-2.714-3.818-4.958-8.171-6.573-12.943-7.295-21.643 1.171-43.808 18.952-49.509 17.767-5.701 38.115 7.229 45.417 28.872 5.243 15.503 2.376 31.284-6.209 41.08-3.402 3.882-7.692 6.816-12.736 8.435-5.853 1.872-11.976 1.729-17.828-.077z" fill="#ffeec8"/><path d="m309.737 668.3c.112.161.225.322.344.478-.278-.116-.556-.226-.828-.342-18.402-7.584-35.652-14.64-48.581-19.901-1.887-5.379-3.674-10.474-5.295-15.155l22.923-6.017 3.283-1.903c5.051 7.288 10.273 13.718 15.291 19.07l-.549.49c.001 0 .59 4.54 13.412 23.28z" fill="#faa41a"/><path d="m281.584 625.459-3.283 1.903-22.923 6.017c-5.011-14.395-8.52-24.829-8.989-27.093 0-.006 0-.013 0-.013l21.844-3.153c4.104 8.074 8.658 15.574 13.351 22.339z" fill="#faa41a"/><path d="m262.48 493.578c-.006.006-.013.013-.02.019-.463.439-.9.891-1.33 1.349-7.302 7.79-11.499 17.566-11.499 17.566-1.417 12.641-.403 26.977 2.847 44.943 2.952 16.31 8.705 31.819 15.754 45.665l-21.844 3.153c.04-.322.033-.477-.033-.444-.04.019-.026.167.033.444l-19.488 2.818-42.094-107.466s-8.52-19.211 19.561-24.629c11.836-2.282 31.463-6.094 50.216-9.744l.973-.006c4.515 6.364 10.326 11.253 16.661 14.181 1.43.658 2.886 1.219 4.362 1.677-6.91 4.599-12.311 8.984-14.099 10.474z" fill="#faa41a"/><path d="m233.527 689.369c1.085 2.328 2.025 4.843 2.78 7.5 4.296 15.181.814 29.368-7.778 31.671-8.592 2.315-19.044-8.126-23.34-23.319-4.303-15.182-.821-29.375 7.778-31.678 4.455-1.199 9.406 1.032 13.742 5.572 2.568 2.683 4.918 6.178 6.818 10.254z" fill="#c8c8c8"/><g fill="none"><path d="m278.301 627.362-22.923 6.017-16.959 4.449-.238.064-11.279-28.801-42.094-107.466s-8.52-19.211 19.561-24.629c11.836-2.282 31.463-6.094 50.216-9.744" stroke="#231f20" stroke-width="7.1618"/><path d="m313.55 670.209c-1.159-.478-2.317-.954-3.469-1.432-.278-.116-.556-.226-.828-.342-18.402-7.584-35.652-14.64-48.581-19.901-13.041-5.314-21.679-8.81-22.659-9.203-.06-.025-.092-.039-.092-.039" stroke="#231f20" stroke-width="7.1618"/><path d="m555.507 693.406c-41.537 19.953-40.564 19.862-40.24 19.759 0 0-.013.007-.033.014-.794.348-16.992 7.307-33.7 8.151-4.759.245-9.564-.013-14.066-1.064-10.936-2.554-22.182-5.107-39.055-9.938-24.115-6.913-24.625-5.959-54.783-15.929-3.085-1.02-6.48-2.154-10.247-3.425" stroke="#231f20" stroke-width="7.1618"/><path d="m211.749 611.278 15.152-2.186 19.488-2.819 21.844-3.153 2.363-.342" stroke="#231f20" stroke-linecap="round" stroke-linejoin="round" stroke-width="7.1618"/><path d="m246.389 606.286c.47 2.264 3.978 12.698 8.989 27.093 1.622 4.682 3.409 9.776 5.295 15.155 3.422 9.712 7.189 20.327 10.982 30.993 4.938 13.872 9.936 27.827 14.298 39.978 7.666 21.365 13.372 37.152 13.372 37.152" stroke="#231f20" stroke-width="7.1618"/><path d="m246.389 606.273c.04-.322.033-.477-.033-.444-.04.019-.027.167.033.444z" stroke="#231f20" stroke-width="7.1618"/><path d="m227.179 678.992s5.66-20.397 10.836-39.661c.139-.503.271-1.006.404-1.503 4.018-14.955 7.646-28.872 7.97-31.555v.013" stroke="#231f20" stroke-width="7.1618"/><path d="m233.527 689.369c1.085 2.328 2.025 4.843 2.78 7.5 4.296 15.181.814 29.368-7.778 31.671-8.592 2.315-19.044-8.126-23.34-23.319-4.303-15.182-.821-29.375 7.778-31.678 4.455-1.199 9.406 1.032 13.742 5.572 2.568 2.683 4.918 6.178 6.818 10.254z" stroke="#231f20" stroke-width="7.1618"/><path d="m232.978 689.511.549-.142 38.128-9.842 36.917-9.524" stroke="#231f20" stroke-width="7.1618"/><path d="m289.018 718.447 84.604-24.022" stroke="#231f20" stroke-width="7.1618"/><path d="m481.54 721.523c-.317.941 9.313 23.403 19.15 45.917 10.095 23.094 20.408 46.239 20.408 46.239" stroke="#231f20" stroke-width="7.1618"/><path d="m593.615 695.56 14.08 27.382 14.827 28.84" stroke="#231f20" stroke-width="7.1618"/><path d="m500.114 767.679.576-.239 103.761-42.918" stroke="#231f20" stroke-width="7.1618"/><path d="m610.243 654.357c7.149-5.043 12.842-13.053 16.277-16.857 13.637-15.039 12.723 4.365 6.296 16.741-3.43 6.643-6.825 8.112-9.976 15.007-1.86 4.05-2.794 12.434-7.076 15.626-5.846 4.366-9.903 2.992-15.774-.961" stroke="#231f20" stroke-width="7.1618"/><path d="m439.989 588.165s49.613-1.896 60.88 2.135c11.273 4.024 46.906 33.754 60.105 44.498 13.186 10.737 24.479 18.74 24.479 18.74 3.304 2.857 6.54 4.405 9.645 4.991" stroke="#231f20" stroke-width="7.1618"/><path d="m438.169 605.268.622-17.142.033-.993s-32.382 2.038-44.02.245" stroke="#231f20" stroke-width="7.1618"/><path d="m409.149 665.224-.113.819-2.615 19.314c-4.958 2.425-13.914 5.662-37.228 3.953 0 0-2.185-.038-5.739-.31-12.577-.967-42.312-4.85-53.373-20.224-.119-.155-.232-.316-.344-.478-12.822-18.74-13.411-23.28-13.411-23.28" stroke="#231f20" stroke-width="7.1618"/><path d="m598.858 657.337c6.308-6.952 9.499-6.546 10.479-2.87 1.132 4.275-.729 12.956-4.184 19.611-2.351 4.566-4.693 6.688-6.951 9.809-1.032 1.419-2.038 3.044-3.024 5.198-.755 1.645-1.357 4.005-2.092 6.442-1.079 3.56-2.442 7.287-4.984 9.184-9.97 7.442-14.722-1.786-32.132-12.053-.754-.445-1.528-.891-2.33-1.335-18.501-10.306-38.247-5.282-65.639-20.914-9.28-5.302-17.555-19.502-28.709-15.975-9.936 3.147-20.745 10.467-30.337 15.349-7.03 3.572-13.206 6.326-20.164 8.622-.265.084-.529.175-.794.258" stroke="#231f20" stroke-width="7.1618"/><path d="m412.327 607.995s12.18-.464 25.835-.444c13.915.025 29.364.548 35.044 2.586 11.28 4.024 49.487 31.684 62.681 42.428 13.192 10.744 24.108 17.045 24.108 17.045 16.694 14.406 29.463-1.219 36.804-9.893.742-.878 1.431-1.684 2.06-2.38" stroke="#231f20" stroke-width="7.1618"/><path d="m408.613 677.883.424-11.84 2.092-58.086.033-.987s-28.583.091-40.22-1.702" stroke="#231f20" stroke-width="7.1618"/><path d="m272.218 481.428c1.43.658 2.886 1.219 4.362 1.677 5.852 1.806 11.975 1.948 17.826.077 5.044-1.618 9.334-4.553 12.736-8.435 8.585-9.796 11.452-25.577 6.209-41.08-7.301-21.643-27.65-34.573-45.417-28.872-17.78 5.701-26.247 27.866-18.952 49.509 1.615 4.772 3.859 9.125 6.573 12.943 4.516 6.364 10.328 11.253 16.663 14.181" stroke="#231f20" stroke-width="7.1618"/><path d="m309.79 474.934c25.75 6.61 38.605 13.228 51.01 34.36 0 0 21.494 31.703 32.29 59.06 3.237 8.19 1.986 14.633.231 18.747-1.41 3.302-3.144 5.102-3.144 5.102-2.151 3.495-11.048 8.293-22.017 12.937-18.455 7.804-42.769 15.155-50.758 15.02" stroke="#231f20" stroke-width="7.1618"/><path d="m262.48 493.578c1.682-1.657 3.521-3.18 5.494-4.45" stroke="#231f20" stroke-width="7.1618"/><path d="m289.104 541.894c-.483.606-.874 1.315-1.172 2.115-.146.381-.271.787-.371 1.213-3.667 15.084 17.528 55.661 26.849 75.033 2.191 4.547 3.72 7.933 4.124 9.538l-.668.774-15.298 17.676-.94 1.091c0 .006-.007.006-.007.013-1.555-1.49-3.144-3.096-4.746-4.817-5.018-5.353-10.24-11.782-15.291-19.07-4.693-6.765-9.248-14.265-13.352-22.339-7.05-13.846-12.802-29.355-15.754-45.665-3.25-17.967-4.263-32.303-2.847-44.943 0 0 4.197-9.776 11.499-17.566.43-.458.867-.909 1.33-1.349" stroke="#231f20" stroke-width="7.1618"/><path d="m263.467 495.203s31.688 23.332 24.466 48.806c-.113.406-.238.806-.371 1.213-.351 1.058-.768 2.121-1.265 3.186" stroke="#231f20" stroke-width="7.1618"/><path d="m261.852 494.106s.212-.181.609-.51c.007-.006.014-.013.02-.019 1.787-1.49 7.189-5.875 14.1-10.474.007-.006.02-.013.026-.02" stroke="#231f20" stroke-width="7.1618"/><path d="m304.984 650.229c2.899 3.244 8.268 10.545 12.028 12.544.794.432 17.939 6.319 26.703 6.319 1.781.007 4.865-1.16 6.441-2.044.874-.49 1.284-.89.754-.968-1.681-.219-2.085.194-10.942-2.102-2.661-.671-10.102-5.121-10.102-5.121" stroke="#231f20" stroke-miterlimit="10" stroke-width="7.1618"/><path d="m354.432 660.381c-.238-.188-.563-.342-.993-.458-3.316-.832-5.382-.909-11.617-4.089-3.893-1.999-10.062-5.056-10.062-5.056" stroke="#231f20" stroke-miterlimit="10" stroke-width="7.1618"/><path d="m349.17 666.945s.404.116.986.104c.84-.02 2.052-.297 2.913-1.593 1.191-1.883 2.714-4.005 1.37-5.075" stroke="#231f20" stroke-miterlimit="10" stroke-width="7.1618"/><path d="m354.108 660.322s.119.032.324.059c.007.006.007 0 .007 0 .708.109 2.376.213 3.316-.955 1.225-1.47 1.741-3.856 1.569-5.127" stroke="#231f20" stroke-miterlimit="10" stroke-width="7.1618"/><path d="m313.696 630.18c1.509.181 2.893.304 4.17.388 7.361.483 11.247-.388 15.993.605.622.129 1.264.342 1.919.626 3.687 1.605 7.911 5.456 11.842 8.874.232.199.463.399.695.593 7.076 5.998 11.127 7.727 12.16 9.229.966 1.374.271 3.199-1.231 3.521-.357.07-.761.064-1.198-.052-2.647-.677-3.104.032-10.776-3.979-2.429-1.264-5.918-2.192-13.418-8.499" stroke="#231f20" stroke-miterlimit="10" stroke-width="7.1618"/><path d="m332.191 630.999s1.463.374 3.587.8c4.475.902 11.882 2.051 14.669.451 4.104-2.366 8.943 2.122 5.177 5.404-3.767 3.282-5.587 3.502-5.587 3.502" stroke="#231f20" stroke-miterlimit="10" stroke-width="7.1618"/><path d="m0 0h850.394v850.394h-850.394z"/></g><path d="m788.256 205.895 15.367-4.269.402-.117c.482 1.624.758 2.556.758 2.556 3.839 11.908 4.55 26.596 3.221 31.253-.791 2.738-4.442 6.633-7.878 6.226-3.81-.398-4.671-9.151-6.52-11.94-2.884.589-1.404 4.69-3.529 4.69-1.845-1.797-2.467-6.754-2.467-11.931 0-6.104.861-12.525 1.582-14.473z" fill="#ffeec8"/><path d="m642.99 205.268-14.426-2.706-1.858-.131c1.845-6.216 9.914-33.542 13.443-47.429 5.785-22.823 24.925-60.465 24.925-60.465l17.697-11.341c5.804-2.696 10.387-4.204 10.387-4.204l.562-.075c3.632 11.65 12.605 19.888 23.118 19.888 11.332 0 20.881-9.572 23.871-22.668l.192.047s3.848 2.298 8.912 5.785 11.351 8.163 16.228 12.919c0 0 19.13 37.642 24.925 60.456 3.31 13.097 10.677 38.125 13.06 46.166l-.402.117-15.367 4.269-29.18-62.286-3.604 36.65c.364.941.912 2.448 1.554 4.452l-.211.065-82.534-.267-.398-.098c.655-2.673 1.119-4.11 1.119-4.11l-2.978-37.043z" fill="#a9d7f3"/><path d="m691.997 67.397c0-17.333 11.112-31.398 24.841-31.398 13.733 0 24.845 14.065 24.845 31.398 0 3.033-.342 5.968-.974 8.739-2.99 13.097-12.539 22.668-23.871 22.668-10.513 0-19.486-8.238-23.118-19.888-1.115-3.566-1.723-7.451-1.723-11.519z" fill="#ffeec8"/><path d="m671.543 372.439c-4.747 2.649-14.112.323-15.315-3.82-1.451-4.994 1.334-9.675 6.183-12.366 7.527-4.194 17.44-8.528 18.096-13.363-1.109-11.749-10.241-108.841-10.241-131.547l.047-5.448c.964-9.759 2.519-17.206 3.571-21.484l.398.098 82.534.267.211-.065c1.498 4.685 3.501 12.076 4.783 21.278l.225 2.672c1.493 22.379-6.853 124.671-7.704 135.006h.019c.019 5.032 9.975 9.474 17.754 13.803 4.854 2.696 7.63 7.377 6.188 12.362-1.213 4.157-10.574 6.474-15.32 3.824-8.224-4.573-2.869-3.005-8.982-5.313-14.112-5.388-16.813-2.804-17.786-19.097l-1.686-10.981-.023.004-13.826-109.673-7.026-.033-14.136 110.169.028.005-1.208 9.287c-.987 16.298-3.684 13.719-17.801 19.092-6.114 2.314-.759.75-8.983 5.323z" fill="#797878"/><path d="m630.989 241.202c-3.436.398-7.087-3.492-7.878-6.235-1.344-4.657-.613-19.327 3.216-31.258 0 0 .136-.454.379-1.278l1.858.131 14.426 2.706-1.067 2.279c.721 1.942 1.582 8.36 1.582 14.463 0 5.182-.622 10.138-2.467 11.936-2.12 0-.655-4.115-3.538-4.686-1.002 1.512-1.713 4.812-2.771 7.559-.885 2.295-2.008 4.205-3.74 4.383z" fill="#ffeec8"/><path d="m693.72 78.917c-1.114-3.567-1.723-7.452-1.723-11.52 0-17.333 11.112-31.398 24.841-31.398 13.733 0 24.845 14.065 24.845 31.398 0 3.033-.342 5.968-.974 8.739-2.99 13.097-12.539 22.668-23.871 22.668-10.513.001-19.486-8.237-23.118-19.887z" fill="none" stroke="#231f20" stroke-width="9.8294"/><path d="m626.327 203.709s.136-.454.379-1.278c1.845-6.216 9.914-33.542 13.443-47.429 5.785-22.823 24.925-60.465 24.925-60.465l17.697-11.341c5.804-2.696 10.387-4.204 10.387-4.204" fill="none" stroke="#231f20" stroke-width="9.8294"/><path d="m804.783 204.065s-.275-.932-.758-2.556c-2.383-8.042-9.75-33.069-13.06-46.166-5.795-22.813-24.925-60.456-24.925-60.456-4.877-4.756-11.163-9.432-16.228-12.919s-8.912-5.785-8.912-5.785" fill="none" stroke="#231f20" stroke-width="9.8294"/><path d="m755.341 181.607.132-1.348 3.604-36.65 29.18 62.286.937 1.994c-.721 1.947-1.582 8.369-1.582 14.473 0 5.177.622 10.134 2.467 11.931 2.125 0 .646-4.101 3.529-4.69 1.849 2.79 2.71 11.542 6.52 11.94 3.436.407 7.087-3.487 7.878-6.226 1.329-4.657.618-19.345-3.221-31.253" fill="none" stroke="#231f20" stroke-width="9.8294"/><path d="m680.618 344.056s-.037-.403-.112-1.166c-1.109-11.749-10.241-108.841-10.241-131.547l.047-5.448c.964-9.759 2.519-17.206 3.571-21.484.655-2.673 1.119-4.11 1.119-4.11l-2.978-37.043-29.034 62.01-1.067 2.279c.721 1.942 1.582 8.36 1.582 14.463 0 5.182-.622 10.138-2.467 11.936-2.12 0-.655-4.115-3.538-4.686-1.002 1.512-1.713 4.812-2.771 7.559-.885 2.294-2.008 4.204-3.739 4.381-3.436.398-7.087-3.492-7.878-6.235-1.344-4.657-.613-19.327 3.216-31.258v-.004" fill="none" stroke="#231f20" stroke-width="9.8294"/><path d="m754.26 344.509s.023-.29.07-.842c.852-10.335 9.197-112.627 7.704-135.006l-.225-2.672c-1.282-9.202-3.285-16.593-4.783-21.278-.642-2.003-1.189-3.511-1.554-4.452-.286-.753-.454-1.146-.454-1.146" fill="none" stroke="#231f20" stroke-width="9.8294"/><path d="m699.575 338.396-.042.342-1.208 9.287c-.987 16.298-3.684 13.719-17.801 19.092-6.112 2.313-.758.749-8.981 5.322-4.747 2.649-14.112.323-15.315-3.82-1.451-4.994 1.334-9.675 6.183-12.366 7.527-4.194 17.44-8.528 18.096-13.363.023-.168.038-.333.038-.497" fill="none" stroke="#231f20" stroke-width="9.8294"/><path d="m734.517 338.266 1.686 10.981c.974 16.293 3.674 13.709 17.786 19.097 6.113 2.308.759.739 8.982 5.313 4.746 2.649 14.107.333 15.32-3.824 1.441-4.985-1.334-9.666-6.188-12.362-7.779-4.33-17.735-8.771-17.754-13.803" fill="none" stroke="#231f20" stroke-width="9.8294"/><path d="m734.587 339.028-.094-.758-13.826-109.673-7.026-.033-14.136 110.169" fill="none" stroke="#231f20" stroke-width="9.8294"/><path d="m674.281 184.509 82.534.267" fill="none" stroke="#231f20" stroke-width="9.8294"/><path d="m635.286 216.324-.557 20.496-3.763 138.212" fill="none" stroke="#231f20" stroke-width="9.8294"/><path d="m628.564 202.563 14.426 2.705.553.103" fill="none" stroke="#231f20" stroke-width="9.8294"/><path d="m786.772 206.307 1.484-.412 15.367-4.269" fill="none" stroke="#231f20" stroke-width="9.8294"/><path d="m0 0h850.394v850.394h-850.394z" fill="none"/><path d="m211.32 382.29c-2.33 4.19-5.46 7.99-9.38 11.16-7.46 6.04-16.55 8.84-25.68 8.59.7-6.37 3.71-12.34 8.92-16.56 7.46-6.05 17.51-6.93 26.14-3.19z" fill="#ffffc2"/><path d="m222.04 390.47c9.41 11.62 8.18 28.22-2.76 37.089-10.94 8.86-27.44 6.631-36.85-4.99-4.93-6.09-6.94-13.54-6.17-20.53 9.13.25 18.22-2.55 25.68-8.59 3.92-3.17 7.05-6.97 9.38-11.16 4.02 1.741 7.73 4.481 10.72 8.181z" fill="#ffffc2"/><path d="m206.31 334.51c8.4 10.36 11.47 23.22 9.47 34.99-28.3-8.47-53.9-20.23-75.7-34.56 2.08-3.09 4.64-5.92 7.67-8.37 17.38-14.08 43.6-10.53 58.56 7.94z" fill="#ffffc2"/><path d="m215.78 369.5c-.75 4.49-2.25 8.81-4.46 12.79-8.63-3.74-18.68-2.86-26.14 3.19-5.21 4.22-8.22 10.19-8.92 16.56-12.14-.31-24.35-5.99-32.89-16.53-12.36-15.25-13.18-35.9-3.29-50.57 21.8 14.33 47.4 26.09 75.7 34.56z" fill="#ffffc2"/><path d="m321.49 39.83c142.77 0 258.51 77.16 258.51 172.34s-115.74 172.35-258.51 172.35c-37.66 0-73.44-5.37-105.71-15.02 2-11.77-1.07-24.63-9.47-34.99-14.96-18.47-41.18-22.02-58.56-7.94-3.03 2.45-5.59 5.28-7.67 8.37-47.6-31.25-77.1-74.71-77.1-122.77 0-95.18 115.74-172.34 258.51-172.34z" fill="#ffffc2"/><path d="m140.08 334.94c2.08-3.09 4.64-5.92 7.67-8.37 17.38-14.08 43.6-10.53 58.56 7.94 8.4 10.36 11.47 23.22 9.47 34.99-.75 4.49-2.25 8.81-4.46 12.79-2.33 4.19-5.46 7.99-9.38 11.16-7.46 6.04-16.55 8.84-25.68 8.59-12.14-.31-24.35-5.99-32.89-16.53-12.36-15.25-13.18-35.9-3.29-50.57z" fill="none" stroke="#000" stroke-linecap="round" stroke-linejoin="round" stroke-width="9"/><path d="m211.32 382.29c4.02 1.74 7.73 4.48 10.72 8.18 9.41 11.62 8.18 28.22-2.76 37.089-10.94 8.86-27.44 6.631-36.85-4.99-4.93-6.09-6.94-13.54-6.17-20.53.7-6.37 3.71-12.34 8.92-16.56 7.46-6.049 17.51-6.929 26.14-3.189z" fill="none" stroke="#000" stroke-linecap="round" stroke-linejoin="round" stroke-width="9"/><path d="m140.08 334.94c-47.6-31.25-77.1-74.71-77.1-122.77 0-95.18 115.74-172.34 258.51-172.34s258.51 77.16 258.51 172.34-115.74 172.35-258.51 172.35c-37.66 0-73.44-5.37-105.71-15.02-28.3-8.47-53.9-20.23-75.7-34.56z" fill="none" stroke="#000" stroke-linecap="round" stroke-linejoin="round" stroke-width="9"/><path d="m0 0h850.394v850.394h-850.394z" fill="none"/><path d="m280.465 250.27c2.892 9.227 3.436 20.568 2.427 24.172-.596 2.12-3.35 5.128-5.938 4.824-2.875-.318-3.532-7.083-4.917-9.232-2.178.44-1.07 3.616-2.67 3.616-1.391-1.389-1.857-5.218-1.857-9.224 0-4.72.648-9.687 1.198-11.188l-4.2-9.016h-.003l-17.49-37.534 18.378-8.475c1.912 5.088 3.581 10.083 4.648 14.396 2.141 8.645 6.505 24.035 8.851 32.207.954 3.323 1.573 5.454 1.573 5.454z" fill="#ffeec8"/><path d="m279.901 244.595h.003l38.558.359.2 53.439h-67.685l-.483.113-10.424-44.87h-52.476l-10.54 45.364-.121-.029h-65.943l.194-54.018h35.978l.567.11c-.955 3.323-1.573 5.455-1.573 5.455-1.915 6.103-2.797 13.134-2.884 18.236-.046 2.609.119 4.714.46 5.935.596 2.114 3.349 5.128 5.938 4.822 1.093-.119 1.869-1.174 2.481-2.557.998-2.244 1.577-5.342 2.433-6.675 2.181.445 1.073 3.618 2.67 3.618 1.391-1.388 1.859-5.221 1.859-9.229 0-4.717-.647-9.681-1.197-11.182l4.029-8.819 1.104.506 15.801-.09 68.662-.396 16.194-.093.798-.373h.003l4.2 9.016c-.55 1.501-1.198 6.467-1.198 11.188 0 4.006.466 7.835 1.857 9.224 1.6 0 .492-3.176 2.67-3.616 1.385 2.149 2.042 8.915 4.917 9.232 2.588.304 5.342-2.704 5.938-4.824 1.009-3.604.465-14.945-2.427-24.172 0 0-.619-2.131-1.574-5.455z" fill="#f6cc4b"/><path d="m263.707 244.595-16.194.093-.006-1.25c-.382-17.458-.905-31.715-1.09-36.476l.599-.275 17.49 37.534z" fill="#c8c8c8"/><path d="m262.839 191.688c.879 2.161 1.738 4.35 2.554 6.525l-18.378 8.475-.666-1.429s.023.593.067 1.704c.185 4.761.708 19.017 1.09 36.476l.006 1.25-68.662.396-.003-.708c.402-18.161 1.391-34.584 1.692-39.27.055-.865.087-1.331.087-1.331l-.538 1.177-18.858-6.494c1.204-3.21 2.508-6.456 3.818-9.591 5.111-12.235 10.334-22.769 10.334-22.769 3.676-3.676 10.753-7.998 16.915-11.402 4.33-2.395 8.206-4.333 10.126-5.276.81-.396 1.272-.616 1.272-.616l.229-.685c2.945 1.984 6.32 3.109 9.91 3.109 3.292 0 6.403-.949 9.168-2.638.197.096.775.373 1.646.801 2.036 1.006 5.663 2.834 9.678 5.056 6.161 3.404 13.238 7.726 16.915 11.402 0 0 6.004 12.11 11.439 25.447.051.131.107.261.159.391z" fill="#a9d7f3"/><path d="m262.68 153.972v37.326c-5.435-13.337-11.439-25.447-11.439-25.447-3.676-3.676-10.754-7.998-16.915-11.402-4.015-2.221-7.642-4.049-9.678-5.056l.078-.159h34.885c1.698 0 3.069 2.12 3.069 4.738z" fill="#c8c8c8"/><path d="m250.494 298.506 1.461 6.288h-76.246l1.345-5.793 10.54-45.364h52.476z" fill="#fff"/><path d="m246.349 205.259.666 1.429-.599.275c-.043-1.111-.067-1.704-.067-1.704z" fill="#c8c8c8"/><path d="m223.002 148.592c-2.765 1.689-5.877 2.638-9.168 2.638-3.59 0-6.965-1.125-9.91-3.109-6.484-4.362-10.884-12.868-10.884-22.65 0-14.228 9.311-25.759 20.793-25.759s20.793 11.532 20.793 25.759c0 10.149-4.737 18.927-11.624 23.121z" fill="#ffeec8"/><path d="m202.284 149.234.139.188c-1.92.943-5.796 2.881-10.126 5.276-6.161 3.404-13.239 7.726-16.915 11.402 0 0-5.224 10.534-10.334 22.769l-.067-.026v-34.871c0-2.618 1.374-4.738 3.069-4.738z" fill="#c8c8c8"/><path d="m161.229 198.459 18.858 6.494-18.144 39.715-4.029 8.819c.55 1.501 1.197 6.465 1.197 11.182 0 4.009-.468 7.841-1.859 9.229-1.597 0-.489-3.173-2.67-3.618-.856 1.333-1.435 4.431-2.433 6.675l-8.879-8.2c.087-5.102.969-12.133 2.884-18.236 0 0 .619-2.132 1.573-5.455 2.346-8.174 6.71-23.561 8.854-32.209 1.068-4.31 2.737-9.305 4.648-14.396z" fill="#ffeec8"/><path d="m178.85 245.084-15.801.09-1.104-.506 18.144-39.715.451.153c-.301 4.686-1.29 21.108-1.692 39.27z" fill="#c8c8c8"/><path d="m143.271 268.755 8.879 8.2c-.613 1.383-1.388 2.438-2.481 2.557-2.589.307-5.342-2.708-5.938-4.822-.341-1.22-.506-3.326-.46-5.935z" fill="#ffeec8"/><path d="m279.904 244.595 38.558.359" fill="none" stroke="#231f20" stroke-width="4.0493"/><path d="m163.049 245.174 15.801-.09 68.662-.396 16.195-.093" fill="none" stroke="#231f20" stroke-width="4.0493"/><path d="m111.183 244.954h35.978" fill="none" stroke="#231f20" stroke-width="4.0493"/><path d="m178.847 244.375c.402-18.161 1.391-34.584 1.692-39.27.055-.865.087-1.331.087-1.331l-.538 1.177-18.144 39.715-4.029 8.819c.55 1.501 1.197 6.465 1.197 11.182 0 4.009-.468 7.841-1.859 9.229-1.597 0-.489-3.173-2.67-3.618-.856 1.333-1.435 4.431-2.433 6.675-.613 1.383-1.388 2.438-2.481 2.557-2.589.307-5.342-2.708-5.938-4.822-.341-1.221-.506-3.326-.46-5.935.087-5.102.969-12.133 2.884-18.236" fill="none" stroke="#231f20" stroke-width="4.0493"/><path d="m161.229 198.459 18.859 6.494.451.153.443.153" fill="none" stroke="#231f20" stroke-width="4.0493"/><path d="m203.924 148.121c-6.484-4.362-10.884-12.868-10.884-22.65 0-14.228 9.311-25.759 20.793-25.759s20.793 11.532 20.793 25.759c0 10.149-4.738 18.928-11.625 23.122-2.765 1.689-5.877 2.638-9.168 2.638-3.589-.002-6.964-1.127-9.909-3.11z" fill="none" stroke="#231f20" stroke-width="4.0493"/><path d="m262.839 191.688c-.052-.13-.107-.26-.159-.39-5.435-13.337-11.439-25.447-11.439-25.447-3.676-3.676-10.754-7.998-16.915-11.402-4.015-2.221-7.642-4.049-9.678-5.056-.871-.428-1.449-.706-1.646-.801-.049-.023-.075-.035-.075-.035" fill="none" stroke="#231f20" stroke-width="4.0493"/><path d="m280.465 250.27s-.619-2.131-1.574-5.455c-2.346-8.171-6.71-23.562-8.851-32.207-1.067-4.313-2.736-9.308-4.648-14.396-.815-2.175-1.675-4.365-2.554-6.525" fill="none" stroke="#231f20" stroke-width="4.0493"/><path d="m247.506 243.438c-.382-17.458-.905-31.715-1.09-36.476-.043-1.111-.067-1.704-.067-1.704l.666 1.429 17.49 37.534h.003l4.2 9.016c-.55 1.501-1.198 6.467-1.198 11.188 0 4.006.466 7.835 1.857 9.224 1.6 0 .492-3.176 2.67-3.616 1.385 2.149 2.042 8.915 4.917 9.232 2.588.304 5.342-2.704 5.938-4.824 1.009-3.604.465-14.945-2.427-24.172" fill="none" stroke="#231f20" stroke-width="4.0493"/><path d="m265.393 198.213-18.378 8.475-.599.275-.067.032" fill="none" stroke="#231f20" stroke-width="4.0493"/><path d="m146.155 250.519s.619-2.132 1.573-5.455c2.346-8.174 6.71-23.561 8.854-32.209 1.067-4.31 2.736-9.305 4.648-14.396 1.204-3.21 2.508-6.456 3.818-9.591 5.111-12.235 10.334-22.769 10.334-22.769 3.676-3.676 10.753-7.998 16.915-11.402 4.33-2.395 8.206-4.333 10.126-5.276.81-.396 1.272-.616 1.272-.616" fill="none" stroke="#231f20" stroke-width="4.0493"/><path d="m250.494 298.506 1.461 6.288h-76.246l1.345-5.793 10.54-45.364h52.476z" fill="none" stroke="#231f20" stroke-width="4.0493"/><path d="m134.29 260.463 8.981 8.292 8.879 8.2 3.593 3.315" fill="none" stroke="#231f20" stroke-linecap="round" stroke-linejoin="round" stroke-width="4.0493"/><path d="m224.726 149.234h34.885c1.698 0 3.069 2.12 3.069 4.738v37.326.515" fill="none" stroke="#231f20" stroke-width="4.0493"/><path d="m164.981 188.842v-34.871c0-2.618 1.374-4.738 3.069-4.738h34.234" fill="none" stroke="#231f20" stroke-width="4.0493"/><path d="m117.644 112.97 202.346 193.029" fill="none" stroke="#231f20" stroke-width="9.3186"/><path d="m103 302.005 206.342-186.373" fill="none" stroke="#231f20" stroke-width="9.3186"/><path d="m520.957 246.779v46.445l-69.01-.654v-45.791z" fill="#f6cc4b"/><path d="m486.84 164.476 2.82-3.788 1.922-2.584 7.701 3.681-6.722 9.035-5.916-6.083z" fill="#c8c8c8"/><path d="m491.582 158.104-1.922 2.584-2.82 3.788c-2.707-.803-4.956 2.325-4.956 2.325l-.214.039c-.03-.173-.083-.258-.083-.258l-5.209-3.873s-.197-.052-.538.05l-.009-.077s2.652-3.568 1.578-6.949c-1.077-3.387-10.789-8.024-10.789-8.024s7.513-.478 15.132 3.087c7.62 3.565 9.83 7.308 9.83 7.308z" fill="#c8c8c8"/><path d="m481.67 166.84c.071.388.038 1.207-.918 2.49-.404.547-2.004 2.713-4.129 5.63l-1.616.297c-1.598-.844-3.384-1.831-4.692-3.241v-.002c-.577-.619-1.063-1.322-1.396-2.13-.041-.104-.088-.198-.137-.289l1.212-.003c2.072-2.732 3.595-4.763 3.988-5.291.77-1.037 1.427-1.413 1.858-1.542.341-.102.538-.05.538-.05l5.209 3.873s.053.085.083.258z" fill="#f6cc4b"/><path d="m475.007 175.257c2.727 1.446 4.896 2.474 3.164 4.508-4.179 4.893-8.279 7.518-12.928 8.609-2.108.495-4.326.673-6.718.602-.069-3.436-4.885-9.403-3.813-14.288l.008.003c7.191-2.062 12.345-8.246 14.061-5.096.049.091.096.184.137.289.333.808.819 1.512 1.396 2.13v.002c1.309 1.41 3.095 2.397 4.693 3.241z" fill="#ffeec8"/><path d="m465.243 188.374 1.35.632c-2.396 3.455-4.379 6.44-5.22 8.004-2.232 4.142-4.835 3.625-7.642 1.539-1.721-1.284-2.867-3.994-2.752-5.901 3.068-.602 5.248-1.069 5.819-1.275 1.292-.462 1.751-1.3 1.727-2.397 2.392.071 4.61-.108 6.718-.602z" fill="#f6cc4b"/><path d="m460.688 242.565c.838 4.151-5.665 1.339-10.629 2.958-.806.261-1.57.641-2.255 1.185-3.031 2.411-4.48-4.786-9.213-10.176l9.928-11.284c6.494 3.51 10.369 8.392 12.169 17.317z" fill="#ffeec8"/><path d="m458.525 188.976c.024 1.097-.435 1.935-1.727 2.397-.571.206-2.751.673-5.819 1.275-6.102 1.196-15.714 2.917-23.174 4.162-2.463.41-4.69.77-6.479 1.039l-8.634 16.957-12.839 25.208-.415.813-53.821-20.772-.014-.005s7.378-26.306 15.272-45.324c9.541-22.979 19.195-34.464 30.916-36.388.758-.124 1.58-.261 2.435-.401 2.306 3.304 23.653 33.757 30.679 40.838.479-.008.968-.022 1.468-.044 11.751-.539 28.697-5.159 28.697-5.159-.16.365-.278.736-.357 1.116-1.072 4.884 3.743 10.852 3.812 14.288z" fill="#a8d7f4"/><path d="m448.517 225.245.003.003-9.928 11.284-.003.002-25.432-21.492-.464-.236 8.634-16.957c1.789-.27 4.016-.629 6.479-1.039l.194 1.19z" fill="#a8d7f4"/><path d="m423.124 150.114c-1.534.151-3.079.044-4.604-.349-5.896-1.52-10.008-6.962-11.344-13.903-.734-3.827-.626-8.106.492-12.438 3.147-12.186 13.109-20.151 22.243-17.793 9.147 2.361 14.002 14.156 10.86 26.341-2.627 10.157-9.978 17.381-17.647 18.142z" fill="#ffeec8"/><path d="m426.352 178.209.021.522c-.5.022-.989.036-1.468.044-7.026-7.081-28.373-37.534-30.679-40.838 5.487-.91 12.333-2.059 12.333-2.059l.616-.016c1.336 6.94 5.448 12.383 11.344 13.903 1.525.393 3.07.5 4.604.349 3.259 5.113 3.229 28.095 3.229 28.095z" fill="#a8d7f4"/><path d="m388.069 291.756-29.219-.289c-.575-4.95-3.002-24.12-6.724-30.453-7.042-11.987-11.693-21.201-6.509-40.959l53.821 20.772.415-.813-1.597 51.841z" fill="#797878"/><path d="m407.176 135.862c-.734-3.827-.626-8.106.492-12.438 3.147-12.186 13.109-20.151 22.243-17.793 9.147 2.361 14.002 14.156 10.86 26.341-2.628 10.157-9.979 17.38-17.647 18.142-1.534.151-3.079.044-4.604-.349-5.896-1.52-10.008-6.963-11.344-13.903z" fill="none" stroke="#231f20" stroke-width="5.7724"/><path d="m406.56 135.878s-6.847 1.149-12.333 2.059c-.855.14-1.677.277-2.435.401-11.721 1.924-21.375 13.408-30.916 36.388-7.894 19.019-15.272 45.324-15.272 45.324l.014.005 53.821 20.772.415-.813 12.839-25.208 8.634-16.957.005-.008" fill="none" stroke="#231f20" stroke-width="5.7724"/><path d="m426.352 178.209s.03-22.982-3.228-28.095c-.005-.008-.008-.014-.014-.022" fill="none" stroke="#231f20" stroke-width="5.7724"/><path d="m425.51 179.36c-.187-.17-.391-.365-.605-.585-7.026-7.081-28.373-37.534-30.679-40.838-.137-.192-.206-.292-.206-.292" fill="none" stroke="#231f20" stroke-width="5.7724"/><path d="m391.121 175.688c3.238 3.095 22.858 22.765 26.022 22.691" fill="none" stroke="#231f20" stroke-width="5.7724"/><path d="m417.146 198.379c.555-.014 2.062-.209 4.181-.53 1.789-.27 4.016-.629 6.479-1.039 7.46-1.245 17.072-2.966 23.174-4.162 3.068-.602 5.248-1.069 5.819-1.275 1.292-.462 1.751-1.3 1.727-2.397-.069-3.436-4.885-9.403-3.813-14.288.079-.379.197-.75.357-1.116 0 0-16.946 4.621-28.697 5.159-.5.022-.989.036-1.468.044-.517.008-1.02.005-1.509-.005" fill="none" stroke="#231f20" stroke-width="5.7724"/><path d="m470.314 172.013c-.577-.619-1.063-1.322-1.396-2.13-.041-.104-.088-.198-.137-.289-1.716-3.15-6.869 3.035-14.061 5.096" fill="none" stroke="#231f20" stroke-width="5.7724"/><path d="m458.02 188.959c.17.008.338.014.506.017 2.392.071 4.609-.107 6.718-.602 4.648-1.091 8.749-3.716 12.928-8.609 1.731-2.034-.438-3.062-3.164-4.508-1.598-.844-3.384-1.831-4.692-3.241" fill="none" stroke="#231f20" stroke-width="5.7724"/><path d="m450.06 245.522c-.806.261-1.57.641-2.255 1.185-3.031 2.411-4.48-4.786-9.213-10.176-.278-.316-.563-.624-.863-.924" fill="none" stroke="#231f20" stroke-width="5.7724"/><path d="m448.52 225.248c6.493 3.51 10.368 8.392 12.169 17.317.838 4.151-5.665 1.339-10.629 2.958" fill="none" stroke="#231f20" stroke-width="5.7724"/><path d="m447.547 224.737c.33.165.654.333.97.508" fill="none" stroke="#231f20" stroke-width="5.7724"/><path d="m476.623 174.96c2.125-2.917 3.725-5.083 4.129-5.63.956-1.283.989-2.103.918-2.49-.03-.173-.083-.258-.083-.258l-5.209-3.873s-.197-.052-.538.05c-.432.129-1.089.505-1.858 1.542-.394.528-1.916 2.559-3.988 5.291" fill="none" stroke="#231f20" stroke-width="3.8482"/><path d="m451.09 191.953c-.058.214-.096.448-.11.695-.115 1.908 1.031 4.618 2.752 5.901 2.807 2.086 5.409 2.603 7.642-1.539.841-1.564 2.823-4.549 5.22-8.004" fill="none" stroke="#231f20" stroke-width="3.8482"/><path d="m475.831 162.681s2.652-3.568 1.578-6.949c-1.077-3.387-10.789-8.024-10.789-8.024s7.513-.478 15.132 3.087c7.62 3.565 9.83 7.309 9.83 7.309" fill="none" stroke="#231f20" stroke-width="3.8482"/><path d="m481.884 166.801s2.249-3.128 4.956-2.325c.146.044.292.099.44.165" fill="none" stroke="#231f20" stroke-width="3.8482"/><path d="m491.582 158.104 7.701 3.681-6.722 9.035-5.916-6.083.195-.261 2.82-3.788z" fill="none" stroke="#231f20" stroke-width="3.8482"/><path d="m345.802 219.366c-.063.231-.124.462-.185.69-5.184 19.758-.533 28.972 6.509 40.959 3.722 6.333 6.149 25.503 6.724 30.453.088.753.132 1.177.132 1.177" fill="none" stroke="#231f20" stroke-width="5.7724"/><path d="m399.906 238.318-.052 1.696-1.598 51.841" fill="none" stroke="#231f20" stroke-width="5.7724"/><path d="m387.869 238.131.2 53.625v.363" fill="none" stroke="#231f20" stroke-width="5.7724"/><path d="m428 198 20.517 27.245.003.003-9.928 11.284-.003.002-25.432-21.492" fill="none" stroke="#231f20" stroke-width="5.7724"/><path d="m451.947 293.224v-.654-45.791h69.01v46.445" fill="none" stroke="#231f20" stroke-width="5.7724"/><path d="m322.748 103.537 207.649 198.087" fill="none" stroke="#231f20" stroke-width="9.5628"/><path d="m307.721 297.526 211.748-191.257" fill="none" stroke="#231f20" stroke-width="9.5628"/></svg>