<svg enable-background="new 0 0 850.394 850.394" height="850.394" viewBox="0 0 850.394 850.394" width="850.394" xmlns="http://www.w3.org/2000/svg"><path d="m762.65 366.05c4.699 0 8.51 3.81 8.51 8.51s-3.811 8.51-8.51 8.51h-27.66c-4.7 0-8.51-3.81-8.51-8.51 0-2.35.949-4.48 2.489-6.02s3.67-2.49 6.021-2.49z" fill="#c8c8c8"/><path d="m571.7 375.09v21.01h-165.15l-.18-17.82-.08-7.98h165.41z" fill="#c8c8c8"/><path d="m669.04 351.69v23.4h-97.34v-4.79-18.61z" fill="#c8c8c8"/><path d="m342.84 400.96-2.4-.19-22.45-1.75-10.12 17.1-27.64 46.729-37.23-12.769s11.96-16.22 25-29.25c8.77-8.78 7.98-17.55-.54-26.06-1.31-1.31-3.42-2.15-6.13-2.61z" fill="#797878"/><path d="m415.33 492.1-42.02 5.851s-3.72-19.141-6.92-40.95c-3.19-21.81-7.44-54.78-7.44-54.78v-23.94h47.39.03l.18 17.82s-3.99 3.99-1.86 30.05c2.13 26.059 10.64 65.949 10.64 65.949z" fill="#797878"/><path d="m571.7 351.69v18.61h-165.41l.08 7.98h-.03-47.39v23.94l-16.03-1.25-.08-.01-81.51-8.8c-3.73-.63-8.6-.54-14.09.07l3.7-31.85 35.14-30.5 68.08 22.34z" fill="#797878"/><path d="m250.94 360.38-3.7 31.85c-16.5 1.83-38.6 8.31-52.11 13.71-21.28 8.51-97.6 39.63-102.13 35.1-4.52-4.521-11.17-47.87-11.17-47.87-5.31-28.19 0-26.59 0-26.59h161.96z" fill="#9c5c25"/><g fill="none"><path d="m342.92 400.97 16.03 1.25s4.25 32.97 7.44 54.78c3.2 21.81 6.92 40.95 6.92 40.95l42.02-5.851s-8.51-39.89-10.64-65.949c-2.13-26.061 1.86-30.05 1.86-30.05h165.15v-21.01-4.79-18.61l-217.54.53-68.08-22.34-35.14 30.5-7.15 6.2h-161.96s-5.31-1.6 0 26.59c0 0 6.65 43.35 11.17 47.87 4.53 4.53 80.85-26.59 102.13-35.1 13.51-5.4 35.61-11.88 52.11-13.71 5.49-.61 10.36-.7 14.09-.07 2.71.46 4.82 1.3 6.13 2.61 8.52 8.51 9.31 17.28.54 26.06-13.04 13.03-25 29.25-25 29.25l37.23 12.77 27.64-46.729 10.12-17.1 22.45 1.75 2.4.19" stroke="#231f20" stroke-width="14"/><path d="m311.34 418.17s18.09 6.92 22.88 2.13c4.78-4.79 6.11-18.08 6.11-18.08" stroke="#231f20" stroke-width="14"/><path d="m250.94 360.38-3.7 31.85v.01" stroke="#231f20" stroke-width="14"/><path d="m571.7 375.09h97.34 56.91" stroke="#231f20" stroke-width="14"/><path d="m571.7 351.69h97.34 3.19" stroke="#231f20" stroke-width="14"/><path d="m771.16 374.56c0 4.7-3.811 8.51-8.51 8.51h-27.66c-4.7 0-8.51-3.81-8.51-8.51 0-2.35.949-4.48 2.489-6.02s3.67-2.49 6.021-2.49h27.66c4.7 0 8.51 3.81 8.51 8.51z" stroke="#231f20" stroke-width="14"/><path d="m669.04 330.94v20.75 23.4 10.64" stroke="#231f20" stroke-width="14"/><path d="m406.55 396.1-.18-17.82-.08-7.98h165.41" stroke="#231f20" stroke-width="14"/><path d="m261.24 392.15.09.01 81.51 8.8.08.01" stroke="#231f20" stroke-width="14"/><path d="m358.95 402.22v-23.94h47.39" stroke="#231f20" stroke-width="14"/><path d="m0 0h850.394v850.394h-850.394z"/></g></svg>