<svg enable-background="new 0 0 850.394 850.394" height="850.394" viewBox="0 0 850.394 850.394" width="850.394" xmlns="http://www.w3.org/2000/svg"><path d="m503.59 131.33 8.19 14.18-42.98 74.43h-43.4v-64.18l1 .26 75.76-23.86z" fill="#f73900"/><path d="m425.4 155.76-79.65-20.41 37.11-64.28h85.94l34.79 60.26-1.43.83-75.76 23.86z" fill="#f73900"/><path d="m425.4 155.76v64.18h-42.53l-.27-.45-42.72-73.98 5.87-10.16z" fill="#f73900"/><g fill="none"><path d="m345.75 135.35 79.65 20.41 1 .26 75.76-23.86" stroke="#be0000" stroke-linecap="round" stroke-linejoin="round" stroke-width="23.8576"/><path d="m382.87 219.94h-.01l-.26-.45-42.72-73.98 5.87-10.16 37.11-64.28h85.94l34.79 60.26 8.19 14.18-42.98 74.43h-43.4z" stroke="#be0000" stroke-linecap="round" stroke-linejoin="round" stroke-width="23.8576"/><path d="m391.02 233.53c11.22-1.88 22.7-2.89 34.38-2.95.39-.01.791-.01 1.19-.01 12.71 0 25.18 1.12 37.351 3.27 114.02 20.17 201.22 131.2 201.22 265.13 0 148.23-106.811 268.4-238.57 268.4s-238.581-120.17-238.581-268.4c0-134.63 88.12-246.11 203.01-265.43" stroke="#ffa500" stroke-width="39.7627"/><path d="m328.48 129.18 54.12 90.31.27.45 8.15 13.59v.01" stroke="#ffa500" stroke-linecap="round" stroke-linejoin="round" stroke-width="23.8576"/><path d="m526.73 128.06-55.82 93.14-6.72 11.22" stroke="#ffa500" stroke-linecap="round" stroke-linejoin="round" stroke-width="23.8576"/><path d="m425.4 141.6v14.16 64.18 10.63" stroke="#ffa500" stroke-linecap="round" stroke-linejoin="round" stroke-width="23.8576"/><path d="m0 0h850.394v850.394h-850.394z"/></g></svg>