<svg enable-background="new 0 0 850.394 850.394" height="850.394" viewBox="0 0 850.394 850.394" width="850.394" xmlns="http://www.w3.org/2000/svg"><path d="m470.5 116.34c-5.37-4.2-13.07-6.82-21.62-6.82h-59.98c-9.01 0-17.08 2.91-22.47 7.51 10.94-14.61 45.99-61.16 50.63-63.75 5.01-2.8 35.08 40.62 53.44 63.06z" fill="#fbee34"/><path d="m478.27 296.37v7.37c0 11.65-13.159 21.09-29.39 21.09h-59.98c-16.23 0-29.38-9.44-29.38-21.09v-7.37h3.06 114.46z" fill="#fbee34"/><path d="m429.61 475.22v76.9c0 4.49-5.07 8.13-11.331 8.13l-8.01-2.38c-2.05-1.47-3.31-3.51-3.31-5.75v-76.9-5.6h22.65v5.6z" fill="#f6cc4b"/><path d="m447.66 448.09v21.53h-18.05-22.65-18.06v-21.53z" fill="#f6cc4b"/><path d="m400.23 325.93h36.11v121.72h-36.11z" fill="#f6cc4b"/><path d="m470.5 116.34c4.82 3.74 7.77 8.75 7.77 14.27v165.76h-1.229-114.461-3.06v-165.76c0-5.18 2.6-9.92 6.91-13.58 5.39-4.6 13.46-7.51 22.47-7.51h59.98c8.55 0 16.25 2.62 21.62 6.82z" fill="#0d72ba"/><g fill="none"><path d="m478.27 296.37v7.37c0 11.65-13.159 21.09-29.39 21.09h-59.98c-16.23 0-29.38-9.44-29.38-21.09v-7.37-165.76c0-5.18 2.6-9.92 6.91-13.58 5.39-4.6 13.46-7.51 22.47-7.51h59.98c8.55 0 16.25 2.62 21.62 6.82 4.82 3.74 7.77 8.75 7.77 14.27z" stroke="#231f20" stroke-width="21"/><path d="m363.19 121.38s1.2-1.62 3.24-4.35c10.94-14.61 45.99-61.16 50.63-63.75 5.01-2.8 35.08 40.62 53.44 63.06 1.22 1.49 2.39 2.88 3.49 4.16" stroke="#231f20" stroke-width="21"/><path d="m362.58 296.37h114.46" stroke="#231f20" stroke-width="21"/><path d="m400.23 325.93h36.11v121.72h-36.11z" stroke="#231f20" stroke-width="21"/><path d="m406.96 469.62h-18.06v-21.53h58.76v21.53h-18.05z" stroke="#231f20" stroke-width="21"/><path d="m429.61 475.22v76.9c0 4.49-5.07 8.13-11.331 8.13l-8.01-2.38c-2.05-1.47-3.31-3.51-3.31-5.75v-76.9" stroke="#231f20" stroke-width="21"/><path d="m417.46 562.12v231.42" stroke="#231f20" stroke-width="21"/><path d="m0 0h850.394v850.394h-850.394z"/></g></svg>