<svg enable-background="new 0 0 850.394 850.394" height="850.394" viewBox="0 0 850.394 850.394" width="850.394" xmlns="http://www.w3.org/2000/svg"><path d="m472.26 744.08 4.99 3.11-2.32 3.72v27.47c0 1-.81 1.811-1.819 1.811h-51.43-2.57-41.09c-1 0-1.82-.811-1.82-1.811v-27.47l-2.32-3.72 5-3.11h44.16 5.06z" fill="#ffa500"/><path d="m468.86 120.94.02.22-.54.06c.01.07.01.14.01.22 0 5.39-19.08 16.72-42.629 16.72-23.54 0-42.63-11.33-42.63-16.72l-.94-.11.04-.39c0-31.47 19.4-69.82 43.34-69.82 23.929 0 43.329 38.35 43.329 69.82z" fill="#fff"/><path d="m483.38 256.56c.01.1.01.2.01.3 0 7.38-26.13 22.9-58.37 22.9-31.08 0-56.49-14.43-58.26-22.07l15.39-136.36.94.11c0 5.39 19.09 16.72 42.63 16.72 23.549 0 42.629-11.33 42.629-16.72 0-.08 0-.15-.01-.22l.54-.06 15.36 135.3z" fill="#ff001c"/><path d="m484.57 259.35v296.28 3.84 192.28l-7.32-4.56-4.99-3.11h-44.16-5.06-44.16l-5 3.11-7.31 4.56v-192.28-3.84-296.28l.19-1.66c1.77 7.64 27.18 22.07 58.26 22.07 32.24 0 58.37-15.52 58.37-22.9 0-.1 0-.2-.01-.3l.86-.1z" fill="#c8c8c8"/><path d="m366.57 559.47v192.28l-71.72 44.66v-137.39z" fill="#c8c8c8"/><path d="m556.28 659.02v137.39l-71.71-44.66v-192.28z" fill="#c8c8c8"/><g fill="none"><path d="m419.11 780.19h-41.09c-1 0-1.82-.811-1.82-1.811v-27.47" stroke="#231f20" stroke-width="21"/><path d="m366.57 559.47v192.28 2.81" stroke="#231f20" stroke-width="21"/><path d="m419.11 780.19h2.57 51.43c1.01 0 1.819-.811 1.819-1.811v-27.47" stroke="#231f20" stroke-width="21"/><path d="m484.57 555.63v-296.28l-.33-2.89-15.36-135.3-.02-.22c0-31.47-19.4-69.82-43.331-69.82-23.94 0-43.34 38.35-43.34 69.82l-.04.39-15.39 136.36-.19 1.66v296.28 3.84l-71.72 99.55v137.39l71.72-44.66 7.31-4.56 5-3.11h44.16" stroke="#231f20" stroke-width="21"/><path d="m423.04 744.08h5.06 44.16l4.99 3.11 7.32 4.56 71.71 44.66v-137.39l-71.71-99.55" stroke="#231f20" stroke-width="21"/><path d="m484.57 555.63v3.84 192.28 2.81" stroke="#231f20" stroke-width="21"/><path d="m468.18 120.56c.08.22.141.44.16.66.01.07.01.14.01.22 0 5.39-19.08 16.72-42.629 16.72-23.54 0-42.63-11.33-42.63-16.72" stroke="#231f20" stroke-width="21"/><path d="m483.17 255.66c.11.3.18.59.21.9.01.1.01.2.01.3 0 7.38-26.13 22.9-58.37 22.9-31.08 0-56.49-14.43-58.26-22.07-.08-.29-.11-.57-.11-.83" stroke="#231f20" stroke-width="21"/><path d="m0 0h850.394v850.394h-850.394z"/></g></svg>