<svg enable-background="new 0 0 850.394 850.394" height="850.394" viewBox="0 0 850.394 850.394" width="850.394" xmlns="http://www.w3.org/2000/svg"><path d="m611.94 530.85v17.52h-4.52l-142.79 32.93-.77-.09 10.01-84.76 30.96 7.71z" fill="#9c5c25"/><path d="m473.87 496.45-10.01 84.76-.2 1.73-277.99-74.13-5.22-.59 1.5-13.38 3.72.42 167-29.01 98.4 24.51z" fill="#9c5c25"/><g fill="none"><path d="m140.76 680s7.48 1.02 20.3 1.23c27.63.449 80.04-2.87 135.63-28.341 54.48-24.97 88.97-58.6 101.07-71.63" stroke="#231f20" stroke-linecap="round" stroke-linejoin="round" stroke-width="28"/><path d="m428.37 778.26s4.49-.3 12.399-1.5c26.29-4 90.341-17.899 152.45-63.479 6.59-4.83 12.83-9.74 18.721-14.67 42.46-35.48 66.869-71.75 75.93-86.71" stroke="#231f20" stroke-linecap="round" stroke-linejoin="round" stroke-width="28"/><path d="m152.62 344.41 45.91 2.49 172.73 9.38" stroke="#231f20" stroke-linecap="round" stroke-linejoin="round" stroke-width="28"/><path d="m435.67 73.23-5.21 23.9-56.65 259.71h-.01l-23.72 108.76 2.59.65 98.4 24.51 22.8 5.69 30.96 7.71 107.11 26.69" stroke="#231f20" stroke-linecap="round" stroke-linejoin="round" stroke-width="28"/><path d="m198.53 346.9-16.58 147.94-1.5 13.38-19.39 173.01" stroke="#231f20" stroke-width="28"/><path d="m462.79 403.74h7.96 14.07 42.19 60.51 40.24" stroke="#231f20" stroke-linecap="round" stroke-linejoin="round" stroke-width="28"/><path d="m710.24 93.57-4.44 19.23-93.86 406.19v11.86 17.52 150.24" stroke="#231f20" stroke-linecap="round" stroke-linejoin="round" stroke-width="28"/><path d="m484.82 403.74-10.95 92.71-10.01 84.76-.2 1.73-22.89 193.81" stroke="#231f20" stroke-width="28"/><path d="m432.28 97.53 9.61.54 149.75 8.36 107.92 6.02 6.24.35" stroke="#231f20" stroke-width="28"/><path d="m441.89 98.06 122.59-11.27 135.08 25.66" stroke="#231f20" stroke-width="28"/><path d="m185.67 508.81 277.99 74.13.97.26" stroke="#231f20" stroke-width="35"/><path d="m464.63 581.3 142.79-32.93" stroke="#231f20" stroke-width="35"/><path d="m483.41 106.56-82.63 362.85" stroke="#231f20" stroke-width="21"/><path d="m536.48 112.28-65.73 291.46-19.06 84.54" stroke="#231f20" stroke-width="21"/><path d="m591.31 112.28-64.3 291.46-21.93 99.43" stroke="#231f20" stroke-width="21"/><path d="m650.19 118.17-62.67 285.57-23.56 107.34" stroke="#231f20" stroke-width="21"/><path d="m185.67 495.26 167-29.01" stroke="#231f20" stroke-width="20.3388"/><path d="m0 0h850.394v850.394h-850.394z"/></g></svg>