<svg enable-background="new 0 0 850.394 850.394" height="850.394" viewBox="0 0 850.394 850.394" width="850.394" xmlns="http://www.w3.org/2000/svg"><path d="m733.86 449.02c-11.011 0-20.98-3.27-28.19-8.569 0 0-10.22-6.79-27.41-6.79-17.2 0-39.899 8.609-39.899 8.609v-46.81c2.64 1.08 23.87 9.55 39.97 9.55 17.2 0 27.4-6.79 27.4-6.79 7.229-5.3 17.189-8.57 28.199-8.57 22.021 0 66.21 13.1 66.21 29.26l-.069.85c-.001 16.16-44.191 29.26-66.211 29.26z" fill="#ffeec8"/><path d="m638.36 395.46v46.81 26.95h-422.69v-25.54-47.89-26.18h422.69z" fill="#ffeec8"/><path d="m215.67 395.79v47.89h-1.19s-23.04-9.649-40.24-9.649c-17.19 0-27.4 6.79-27.4 6.79-7.22 5.3-17.19 8.569-28.2 8.569-22.02 0-66.2-13.1-66.2-29.26l.07-.85c0-16.16 44.19-29.26 66.21-29.26 11.01 0 20.98 3.27 28.2 8.57 0 0 10.21 6.79 27.4 6.79s41.35-9.59 41.35-9.59z" fill="#ffeec8"/><g fill="none"><path d="m638.36 442.27v26.95h-422.69v-25.54-47.89-26.18h422.69v25.85z" stroke="#000" stroke-width="20.0509"/><path d="m215.67 395.79s-24.16 9.59-41.35 9.59-27.4-6.79-27.4-6.79c-7.22-5.3-17.19-8.57-28.2-8.57-22.02 0-66.21 13.1-66.21 29.26l-.07.85c0 16.16 44.18 29.26 66.2 29.26 11.01 0 20.98-3.27 28.2-8.569 0 0 10.21-6.79 27.4-6.79 17.2 0 40.24 9.649 40.24 9.649" stroke="#000" stroke-width="20.0509"/><path d="m638.36 442.27s22.699-8.609 39.899-8.609c17.19 0 27.41 6.79 27.41 6.79 7.21 5.3 17.18 8.569 28.19 8.569 22.02 0 66.21-13.1 66.21-29.26l.069-.85c0-16.16-44.189-29.26-66.21-29.26-11.01 0-20.97 3.27-28.199 8.57 0 0-10.2 6.79-27.4 6.79-16.1 0-37.33-8.47-39.97-9.55-.181-.07-.271-.11-.271-.11" stroke="#000" stroke-width="20.0509"/><path d="m0 0h850.394v850.394h-850.394z"/></g></svg>