<svg enable-background="new 0 0 850.394 850.394" height="850.394" viewBox="0 0 850.394 850.394" width="850.394" xmlns="http://www.w3.org/2000/svg"><path d="m730.82 604.01c.93 27.641-4.271 41.74-10.88 48.7-10.03 10.54-23.29 4.66-23.29 4.66l-5.511.22h-.01c-4.01-103.16 20.25-141.26 26.58-149.38 2.6-.82 5.35-2.56 7.84-5.88.901 11.81 3.451 48.1 5.271 101.68z" fill="#eedceb"/><path d="m725.55 502.33c-2.49 3.32-5.24 5.06-7.84 5.88.94-1.21 1.48-1.75 1.48-1.75l-.14-.46h-28.18c-4.72-118.83 28.05-151.61 28.05-151.61l-.15-.45h-.52c2.69-1.19 5.47-3.46 7.9-7.52 1.35 10.69 5.989 50.59 7.89 106.78.94 27.83-3.19 42.06-8.49 49.13z" fill="#eedceb"/><path d="m721.93 160.42c.851 6.96 9.141 76.33 11.271 139.04.859 25.24-2.47 39.29-7.05 46.96-2.431 4.06-5.21 6.33-7.9 7.52h-11.42-16.24c-4.72-118.84 28.05-151.61 28.05-151.61l-.159-.46 3.449-.57v-4.57-36.31z" fill="#eedceb"/><g fill="#cc82b7"><path d="m721.93 160.42v36.31h-79.79v-49.84h79.73.06z"/><path d="m690.87 506h28.18l.141.46s-.54.54-1.48 1.75c-6.33 8.12-30.59 46.22-26.58 149.38h.01c.011.38.021.76.04 1.15l-49.04-.04v-152.07l48.761.04c-.012-.22-.022-.45-.032-.67z"/><path d="m690.59 353.94c.01.22.021.45.03.67l-48.48-.04v-.63z"/><path d="m706.83 353.94c1.68.69 6.41 2.21 11.42 0h.52l.15.45s-32.77 32.78-28.05 151.61h-48.73v-151.43l48.48.04c-.01-.22-.021-.45-.03-.67z"/><path d="m691.18 658.74c-.02-.391-.029-.771-.04-1.15l5.511-.22s13.26 5.88 23.29-4.66l1.989.03v69.88h-79.79v-63.92z"/><path d="m718.48 201.87.159.46s-32.77 32.77-28.05 151.61h-48.45v-152.07z"/><path d="m642.14 196.73h79.79v4.57l-3.45.57h-76.34z"/><path d="m642.14 354.57v151.43h-498.82s-.08.08-.23.24l-28.06-.021c-4.64-113.719 24.97-148.959 27.79-152.049z"/><path d="m642.14 353.94v.63l-499.32-.4c.15-.16.22-.23.22-.23z"/><path d="m140.48 146.89h501.66v49.84h-501.66z"/><path d="m721.87 71.77v75.12h-79.73-501.66-.01v-75.12z"/><path d="m642.14 506.63v152.07l-501.66-.391-25.17-.02c-4.63-113.6 24.91-148.9 27.78-152.05z"/><path d="m642.14 658.7v63.92h-501.66v-60.64-3.67z"/><path d="m140.48 196.73h501.66v5.14h-499.38s-.86.86-2.28 2.81z"/><path d="m140.48 204.68c1.42-1.95 2.28-2.81 2.28-2.81h499.38v152.07h-499.1s-.07.07-.22.23l-28.08-.02c-4.07-100.09 18.38-139.39 25.74-149.47z"/></g><path d="m642.14 741.41 1.48-1.83 21.87 17.67-19.1 23.61-21.86-17.67z" fill="#eedceb"/><path d="m140.48 146.89h-.01v-75.12h581.4v75.12" fill="none" stroke="#231f20" stroke-width="14"/><path d="m721.93 652.74v69.88h-79.79-501.66v-60.64" fill="none" stroke="#231f20" stroke-width="14"/><path d="m140.48 209.98v-5.3-7.95-49.84h501.66 79.73.06v13.53 36.31 4.57" fill="none" stroke="#231f20" stroke-width="14"/><path d="m140.48 196.73h501.66 79.79" fill="none" stroke="#231f20" stroke-width="14"/><path d="m646.39 780.86-21.86-17.67 17.61-21.78 1.48-1.83 21.87 17.67z" fill="none" stroke="#231f20" stroke-width="14"/><path d="m642.14 146.89v49.84 5.14 152.07.63 151.43.63 152.07 63.92 18.79 3.25" fill="none" stroke="#231f20" stroke-width="14"/><path d="m642.14 354.57 48.48.04c-.01-.22-.021-.45-.03-.67-4.72-118.84 28.05-151.61 28.05-151.61l-.159-.46h-76.341-499.38s-.86.86-2.28 2.81c-7.36 10.08-29.81 49.38-25.74 149.47l28.08.02z" fill="none" stroke="#231f20" stroke-width="14"/><path d="m642.14 506.63 48.761.04c-.011-.22-.021-.45-.03-.67-4.72-118.83 28.05-151.61 28.05-151.61l-.15-.45h-.52-11.42-16.24-48.45-499.1s-.07.07-.22.23c-2.82 3.09-32.43 38.33-27.79 152.05l28.06.021z" fill="none" stroke="#231f20" stroke-width="14"/><path d="m642.14 658.7 49.04.04c-.02-.391-.029-.771-.04-1.15h-.01c-4.01-103.16 20.25-141.26 26.58-149.38.94-1.21 1.48-1.75 1.48-1.75l-.14-.46h-28.18-48.73-498.82s-.08.08-.23.24c-2.87 3.149-32.41 38.45-27.78 152.05l25.17.02z" fill="none" stroke="#231f20" stroke-width="14"/><path d="m706.18 353.65s.23.12.65.29c1.68.69 6.41 2.21 11.42 0 2.69-1.19 5.47-3.46 7.9-7.52 4.58-7.67 7.909-21.72 7.05-46.96-2.13-62.71-10.42-132.08-11.271-139.04-.05-.38-.069-.57-.069-.57" fill="none" stroke="#231f20" stroke-width="14"/><path d="m707.02 507.39s4.99 2.61 10.69.82c2.6-.82 5.35-2.56 7.84-5.88 5.3-7.07 9.431-21.3 8.49-49.13-1.9-56.19-6.54-96.09-7.89-106.78-.24-1.88-.37-2.86-.37-2.86" fill="none" stroke="#231f20" stroke-width="14"/><path d="m696.65 657.37s13.26 5.88 23.29-4.66c6.609-6.96 11.81-21.06 10.88-48.7-1.82-53.58-4.37-89.87-5.271-101.68-.21-2.76-.33-4.18-.33-4.18" fill="none" stroke="#231f20" stroke-width="14"/><path d="m0 0h850.394v850.394h-850.394z" fill="none"/></svg>