<svg enable-background="new 0 0 850.394 850.394" height="850.394" viewBox="0 0 850.394 850.394" width="850.394" xmlns="http://www.w3.org/2000/svg"><path d="m754.66 168.52v530.85h-84.66v-1.37-268h-162v264 5.37h-418.33v-530.85z" fill="#fff"/><path d="m670 698v1.37h-162v-5.37-264h162zm-36-158v-70l-94 2v68zm-71.89 50c0-7.38-5.42-13.39-12.11-13.39s-12.11 6.01-12.11 13.39c0 7.39 5.42 13.39 12.11 13.39s12.11-6 12.11-13.39z" fill="#33a02c"/><path d="m634 470v70h-94v-68z" fill="#231f20"/><path d="m550 576.61c6.69 0 12.11 6.01 12.11 13.39 0 7.39-5.42 13.39-12.11 13.39s-12.11-6-12.11-13.39c0-7.38 5.42-13.39 12.11-13.39z" fill="#231f20"/><g fill="none"><path d="m670 698v-268h-162v264" stroke="#231f20" stroke-width="21"/><path d="m508 699.37h-418.33v-530.85h664.99v530.85h-84.66z" stroke="#231f20" stroke-width="28"/><path d="m0 0h850.394v850.394h-850.394z"/></g></svg>