<svg enable-background="new 0 0 850.394 850.394" height="850.394" viewBox="0 0 850.394 850.394" width="850.394" xmlns="http://www.w3.org/2000/svg"><path d="m766.82 220.32 4 12.14-69.08 21.53c.51-5.75 1-10.32 1.42-13.83z" fill="#fff"/><path d="m702.9 445.2c5.04 34.21 12.1 46.12 12.1 46.12-37.33-10.891-141.51 29.819-141.51 29.819 0-18.37-1.63-26.439-2.96-45.34 7.43-2.749 91-33.349 132.37-30.599z" fill="#0b00ea"/><path d="m657.89 210.28 46.63 20.4s-.56 2.88-1.359 9.48l-3.86 14.59 2.44-.76c-1.811 20.42-3.83 55.74-3.83 111.61 0 34.63 2.18 60.57 4.99 79.6-41.37-2.75-124.94 27.85-132.37 30.6-.931-13.109-1.71-31.42-1.71-61.98 0-31.45 3.729-77.8 8.05-120.92l4.79-1.5 1.78-.55-2.75-12.53-2.4.75c2.22-21.35 4.51-41.37 6.46-57.71 2.93-24.57 5.09-40.84 5.09-40.84l16.75 7.32z" fill="#a3d9ff"/><path d="m699.3 254.75 3.86-14.59c-.42 3.51-.91 8.08-1.42 13.83z" fill="#fff"/><path d="m580.69 278.32 2.75 12.53-1.78.55-4.36-2.74c.32-3.22.65-6.42.99-9.59z" fill="#fff"/><path d="m581.66 291.4-4.79 1.5c.14-1.42.28-2.83.43-4.24z" fill="#fff"/><path d="m567.41 282.46 10.88-3.39c-.34 3.17-.67 6.37-.99 9.59z" fill="#fff"/><path d="m567.41 282.46 9.89 6.2c-.149 1.41-.29 2.82-.43 4.24l-119.38 37.19 4.96-12.4-8.12.01z" fill="#fff"/><path d="m540 109.21-10 21.11-10.91-6.82 2.11-4.45 7.25-15.31z" fill="#fff"/><path d="m519.09 123.5 10.91 6.82-21.63 45.64-8.54-5.26z" fill="#fff"/><path d="m499.83 170.7 8.54 5.26-25.37 53.54-5.7-3.58z" fill="#fff"/><path d="m471.02 241.31 6.28-15.39 5.7 3.58-41.81 88.21-1.35.01z" fill="#fff"/><path d="m462.45 317.69-4.96 12.4-25.04 7.8-.96.3 7.44-15.69 15.4-4.8z" fill="#231f20"/><path d="m457.49 330.09-7.05 17.62-17.97.03v-9.8l-.02-.05z" fill="#231f20"/><path d="m454.33 317.7-15.4 4.8 2.26-4.79z" fill="#231f20"/><path d="m441.19 317.71-2.26 4.79-1.19.37 2.1-5.15z" fill="#231f20"/><path d="m439.84 317.72-2.1 5.15-5.35 1.67.37-1.01-7.21-2.64 1.49-3.16z" fill="#231f20"/><path d="m438.93 322.5-7.44 15.69 6.25-15.32z" fill="#231f20"/><path d="m437.74 322.87-6.25 15.32-1.94-5.91 2.84-7.74z" fill="#231f20"/><path d="m432.76 323.53-.37 1.01-4.89 1.52 2.05 6.22-1.19 3.24-8.31-3.03v-.01l.01-.01 5.49-11.58z" fill="#231f20"/><path d="m432.47 337.94v9.8l-20.27.03-8.52-21.27 16.37 5.98v.01l8.31 3.03 1.19-3.24 1.94 5.91.96-.3z" fill="#231f20"/><path d="m432.39 324.54-2.84 7.74-2.05-6.22z" fill="#231f20"/><path d="m427.04 317.73-1.49 3.16-8.63-3.15z" fill="#231f20"/><path d="m425.55 320.89-5.49 11.58-.01.01-16.37-5.98-3.5-8.74 16.74-.02z" fill="#231f20"/><path d="m305.83 277.15 111.09 40.59-16.74.02 3.5 8.74-325.77-119.03 4.4-12 31.13 11.38 89.25 32.61z" fill="#fff"/><g fill="none"><path d="m432.47 347.74v402.02" stroke="#231f20" stroke-width="28"/><path d="m113.44 206.85 400.9-86.32 6.86-1.48" stroke="#231f20" stroke-width="21"/><path d="m202.69 239.46 291.41-63.23" stroke="#231f20" stroke-width="21"/><path d="m305.83 277.15 156.54-33.96 8.65-1.88" stroke="#231f20" stroke-width="21"/><path d="m519.09 123.5-4.75-2.97-.01-.01" stroke="#231f20" stroke-width="21"/><path d="m657.89 210.28-51.3-32.08-76.59-47.88" stroke="#231f20" stroke-width="21"/><path d="m499.83 170.7-2.41-1.49-2.42-1.49" stroke="#231f20" stroke-width="21"/><path d="m581.45 220.97-73.08-45.01" stroke="#231f20" stroke-width="21"/><path d="m472.1 222.65-1-.62" stroke="#231f20" stroke-width="21"/><path d="m477.3 225.92-5.2-3.26" stroke="#231f20" stroke-width="21"/><path d="m567.41 282.46-84.41-52.96" stroke="#231f20" stroke-width="21"/><path d="m403.68 326.5-325.77-119.03 4.4-12 31.13 11.38 89.25 32.61 103.14 37.69 111.09 40.59" stroke="#231f20" stroke-width="14"/><path d="m519.09 123.5 2.11-4.45 7.25-15.31 11.55 5.47-10 21.11-21.63 45.64-25.37 53.54-41.81 88.21" stroke="#231f20" stroke-width="14"/><path d="m472.1 222.65 22-46.42 3.32-7.02 21.67-45.71" stroke="#231f20" stroke-width="14"/><path d="m427.04 317.73 35.33-74.54 9.73-20.53v-.01" stroke="#231f20" stroke-width="14"/><path d="m703.16 240.16 63.66-19.84 4 12.14-69.08 21.53-2.44.76" stroke="#231f20" stroke-width="14"/><path d="m454.33 317.7 113.08-35.24 10.88-3.39 2.4-.75" stroke="#231f20" stroke-width="14"/><path d="m583.44 290.85-1.78.55-4.79 1.5-119.38 37.19" stroke="#231f20" stroke-width="14"/><path d="m432.47 347.74 17.97-.03 7.05-17.62 4.96-12.4-8.12.01-13.14.01-1.35.01-12.8.01-10.12.01-16.74.02 3.5 8.74 8.52 21.27z" stroke="#231f20" stroke-width="21"/><path d="m657.89 210.28 46.63 20.4s-.56 2.88-1.359 9.48c-.42 3.51-.91 8.08-1.42 13.83-1.811 20.42-3.83 55.74-3.83 111.61 0 34.63 2.18 60.57 4.99 79.6 5.04 34.21 12.1 46.12 12.1 46.12-37.33-10.891-141.51 29.819-141.51 29.819 0-18.37-1.63-26.439-2.96-45.34-.931-13.109-1.71-31.42-1.71-61.98 0-31.45 3.729-77.8 8.05-120.92.14-1.42.28-2.83.43-4.24.32-3.22.65-6.42.99-9.59 2.22-21.35 4.51-41.37 6.46-57.71 2.93-24.57 5.09-40.84 5.09-40.84l16.75 7.32z" stroke="#231f20" stroke-width="21"/><path d="m705.69 445.43c-.91-.1-1.841-.18-2.79-.229-41.37-2.75-124.94 27.85-132.37 30.6-.351.13-.53.2-.53.2" stroke="#231f20" stroke-width="21"/><path d="m606.59 187.84v-9.64-18.17" stroke="#231f20" stroke-linecap="round" stroke-linejoin="round" stroke-width="21"/><path d="m688.84 219.14v-20.22" stroke="#231f20" stroke-linecap="round" stroke-linejoin="round" stroke-width="21"/><path d="m0 0h850.394v850.394h-850.394z"/></g></svg>