<svg enable-background="new 0 0 850.394 850.394" height="850.394" viewBox="0 0 850.394 850.394" width="850.394" xmlns="http://www.w3.org/2000/svg"><path d="m385.439 255.938h90.883v.875s76.591 57.448 104.444 135.779c27.854 78.34 64.419 241.984 68.765 275.058 4.355 33.085 9.576 54.843-27.854 75.735-37.431 20.884-139.27 45.257-198.458 49.612-59.188 4.346-122.732-14.797-154.067-25.248-31.334-10.441-74.86-48.737-73.12-87.042 1.75-38.296 5.23-223.697 46.142-275.924 23.032-29.4 55.717-72.323 79.887-104.221 44.838-11.832 57.351-38.821 57.351-38.821v-5.804h6.027z" fill="#f6cc4b"/><path d="m557.561 132.34-92.03 104.445h-27.31c4.93-21.778 31.714-138.103 31.714-138.103s-3.179-13.134-25.695-25.229l4.803-.885s55.708-30.761 67.315-11.608c11.608 19.152 4.385 35.136 13.923 44.683 14.504 14.506 27.28 26.697 27.28 26.697z" fill="#f6cc4b"/><path d="m403.076 236.785h-37.596l-116.053-99.224s22.05-26.697 42.359-27.854c20.31-1.157 37.139-19.736 50.487-34.815 13.348-15.089 47.58-22.05 85.302-8.711 6.484 2.294 11.987 4.764 16.664 7.272 22.517 12.095 25.695 25.229 25.695 25.229s-26.784 116.325-31.714 138.103z" fill="#f6cc4b"/><g fill="none"><path d="m449.042 72.568s55.708-30.761 67.315-11.608c11.608 19.152 4.385 35.136 13.923 44.683 14.505 14.506 27.28 26.697 27.28 26.697l-92.03 104.445-2.557 2.907" stroke="#231f20" stroke-width="20.4165"/><path d="m365.48 236.785-116.053-99.224s22.05-26.697 42.359-27.854c20.31-1.157 37.139-19.736 50.487-34.815 13.348-15.089 47.58-22.05 85.302-8.711 6.484 2.294 11.987 4.764 16.664 7.272 22.517 12.095 25.695 25.229 25.695 25.229s-26.784 116.325-31.714 138.103c-.485 2.11-.758 3.334-.777 3.48" stroke="#231f20" stroke-width="20.4165"/><path d="m352.131 74.892 50.945 161.893 1.283 4.064" stroke="#231f20" stroke-width="20.4165"/><path d="m346.911 236.785h18.569 37.596 35.145 27.309 20.067" stroke="#231f20" stroke-linecap="round" stroke-linejoin="round" stroke-width="27.222"/><path d="m348.068 255.938h6.387 24.957 6.027 90.883 10.442" stroke="#231f20" stroke-linecap="round" stroke-linejoin="round" stroke-width="27.222"/><path d="m476.322 256.813s76.591 57.448 104.444 135.779c27.854 78.34 64.419 241.984 68.765 275.058 4.355 33.085 9.576 54.843-27.854 75.735-37.431 20.884-139.27 45.257-198.458 49.612-59.188 4.346-122.732-14.797-154.067-25.248-31.334-10.441-74.86-48.737-73.12-87.042 1.75-38.296 5.23-223.697 46.142-275.924 23.032-29.4 55.717-72.323 79.887-104.221 18.764-24.762 32.394-42.884 32.394-42.884" stroke="#231f20" stroke-width="20.4165"/><path d="m379.412 261.742s-12.512 26.989-57.351 38.821c-14.7 3.889-32.88 6.144-55.231 5.279" stroke="#231f20" stroke-linecap="round" stroke-linejoin="round" stroke-width="27.222"/><path d="m384.497 252.195s.438 1.293.943 3.743c3.043 14.69 8.352 70.903-66.247 136.897" stroke="#231f20" stroke-linecap="round" stroke-linejoin="round" stroke-width="27.222"/><path d="m0 0h850.394v850.394h-850.394z"/></g></svg>