<svg enable-background="new 0 0 850.394 850.394" height="850.394" viewBox="0 0 850.394 850.394" width="850.394" xmlns="http://www.w3.org/2000/svg"><path d="m782.45 233.13-19.92 441.55-79.221-12.62-525.019-83.66 94.15-381.141 8.77-35.51zm-37.78 68.02c0-3.38-2.41-6.19-5.4-6.19-2.97 0-5.369 2.81-5.369 6.19 0 3.45 2.399 6.26 5.369 6.26 2.99 0 5.4-2.81 5.4-6.26zm-26.96 126.78c0-3.45-2.41-6.26-5.38-6.26-2.98 0-5.39 2.81-5.39 6.26 0 3.391 2.409 6.19 5.39 6.19 2.97 0 5.38-2.8 5.38-6.19zm-21.17 148.32c0-3.45-2.42-6.25-5.38-6.25-2.99 0-5.4 2.8-5.4 6.25 0 3.38 2.41 6.2 5.4 6.2 2.96 0 5.38-2.82 5.38-6.2zm-51.41-268.4c0-3.38-2.41-6.19-5.399-6.19-2.961 0-5.37 2.81-5.37 6.19 0 3.45 2.409 6.26 5.37 6.26 2.989 0 5.399-2.81 5.399-6.26zm-36.57 174.3c0-3.45-2.42-6.25-5.369-6.25-3 0-5.4 2.8-5.4 6.25 0 3.38 2.4 6.199 5.4 6.199 2.949.001 5.369-2.819 5.369-6.199zm-26.56-235.11c0-3.39-2.42-6.2-5.4-6.2-2.97 0-5.38 2.81-5.38 6.2 0 3.44 2.41 6.26 5.38 6.26 2.98 0 5.4-2.82 5.4-6.26zm-14.94 328.43c0-3.38-2.409-6.2-5.399-6.2-2.97 0-5.38 2.82-5.38 6.2 0 3.45 2.41 6.25 5.38 6.25 2.989 0 5.399-2.8 5.399-6.25zm-29.88-192.97c0-3.39-2.41-6.2-5.399-6.2-2.971 0-5.38 2.81-5.38 6.2 0 3.44 2.409 6.25 5.38 6.25 2.989 0 5.399-2.81 5.399-6.25zm-53.93-121.6c0-3.38-2.41-6.19-5.41-6.19-2.96 0-5.37 2.81-5.37 6.19 0 3.45 2.41 6.26 5.37 6.26 3 0 5.41-2.81 5.41-6.26zm-21.86 174.02c0-3.38-2.409-6.2-5.409-6.2-2.961 0-5.37 2.82-5.37 6.2 0 3.45 2.409 6.26 5.37 6.26 2.999 0 5.409-2.81 5.409-6.26zm-2.22 148.29c0-3.38-2.41-6.2-5.39-6.2-2.971 0-5.391 2.82-5.391 6.2 0 3.45 2.42 6.25 5.391 6.25 2.98 0 5.39-2.8 5.39-6.25zm-71.39-282c0-3.44-2.41-6.25-5.38-6.25-2.99 0-5.39 2.81-5.39 6.25 0 3.39 2.4 6.2 5.39 6.2 2.97 0 5.38-2.81 5.38-6.2zm-10.59 203.56c0-3.449-2.41-6.26-5.38-6.26-2.98 0-5.39 2.811-5.39 6.26 0 3.381 2.41 6.19 5.39 6.19 2.97 0 5.38-2.81 5.38-6.19zm-46.41-118.89c0-3.45-2.41-6.26-5.37-6.26-2.99 0-5.4 2.81-5.4 6.26 0 3.38 2.41 6.19 5.4 6.19 2.96 0 5.37-2.81 5.37-6.19zm-13.41-149.49c0-3.39-2.42-6.2-5.41-6.2-2.96 0-5.37 2.81-5.37 6.2 0 3.45 2.41 6.26 5.37 6.26 2.99 0 5.41-2.81 5.41-6.26zm-54.1 284.5c0-3.449-2.4-6.25-5.37-6.25-2.99 0-5.4 2.801-5.4 6.25 0 3.391 2.41 6.19 5.4 6.19 2.97 0 5.37-2.8 5.37-6.19zm-25.45-98.49c0-3.45-2.41-6.26-5.37-6.26-2.99 0-5.4 2.81-5.4 6.26 0 3.38 2.41 6.19 5.4 6.19 2.96 0 5.37-2.81 5.37-6.19z" fill="#ffeec8"/><path d="m158.29 578.4 525.02 83.659-.029.21-37.96-3.17-548.451-45.839 75.25-369.01 11.07-54.28 69.25 7.29zm45.24-308.37c0-3.39-2.41-6.2-5.4-6.2-2.97 0-5.38 2.81-5.38 6.2 0 3.45 2.41 6.26 5.38 6.26 2.99 0 5.4-2.81 5.4-6.26zm-49.8 220.78c0-3.39-2.41-6.199-5.4-6.199-2.97 0-5.38 2.81-5.38 6.199 0 3.45 2.41 6.25 5.38 6.25 2.99 0 5.4-2.8 5.4-6.25z" fill="#ffeec8"/><path d="m645.32 659.1-575.02 17.14 34.9-430.6 66.92-1.39-75.25 369.01zm-513.17-328.07c0-3.38-2.41-6.19-5.4-6.19-2.97 0-5.38 2.81-5.38 6.19 0 3.45 2.41 6.26 5.38 6.26 2.99 0 5.4-2.81 5.4-6.26zm-11.63 312.08c0-3.391-2.41-6.19-5.39-6.19-2.97 0-5.38 2.8-5.38 6.19 0 3.449 2.41 6.26 5.38 6.26 2.98 0 5.39-2.81 5.39-6.26z" fill="#ffeec8"/><path d="m739.27 294.96c2.99 0 5.4 2.81 5.4 6.19 0 3.45-2.41 6.26-5.4 6.26-2.97 0-5.369-2.81-5.369-6.26-.001-3.38 2.399-6.19 5.369-6.19z"/><path d="m712.33 421.67c2.97 0 5.38 2.81 5.38 6.26 0 3.391-2.41 6.19-5.38 6.19-2.98 0-5.39-2.8-5.39-6.19 0-3.45 2.41-6.26 5.39-6.26z"/><path d="m691.16 570c2.96 0 5.38 2.8 5.38 6.25 0 3.38-2.42 6.2-5.38 6.2-2.99 0-5.4-2.82-5.4-6.2 0-3.45 2.41-6.25 5.4-6.25z"/><path d="m639.73 301.66c2.989 0 5.399 2.81 5.399 6.19 0 3.45-2.41 6.26-5.399 6.26-2.961 0-5.37-2.81-5.37-6.26 0-3.38 2.41-6.19 5.37-6.19z"/><path d="m603.19 475.9c2.949 0 5.369 2.8 5.369 6.25 0 3.38-2.42 6.199-5.369 6.199-3 0-5.4-2.819-5.4-6.199 0-3.45 2.4-6.25 5.4-6.25z"/><path d="m576.6 240.84c2.98 0 5.4 2.81 5.4 6.2 0 3.44-2.42 6.26-5.4 6.26-2.97 0-5.38-2.82-5.38-6.26 0-3.39 2.41-6.2 5.38-6.2z"/><path d="m561.66 569.27c2.99 0 5.399 2.82 5.399 6.2 0 3.45-2.409 6.25-5.399 6.25-2.97 0-5.38-2.8-5.38-6.25 0-3.38 2.41-6.2 5.38-6.2z"/><path d="m531.78 376.3c2.989 0 5.399 2.81 5.399 6.2 0 3.44-2.41 6.25-5.399 6.25-2.971 0-5.38-2.81-5.38-6.25 0-3.39 2.41-6.2 5.38-6.2z"/><path d="m477.84 254.71c3 0 5.41 2.81 5.41 6.19 0 3.45-2.41 6.26-5.41 6.26-2.96 0-5.37-2.81-5.37-6.26 0-3.38 2.41-6.19 5.37-6.19z"/><path d="m455.98 428.72c3 0 5.409 2.82 5.409 6.2 0 3.45-2.409 6.26-5.409 6.26-2.961 0-5.37-2.81-5.37-6.26 0-3.38 2.41-6.2 5.37-6.2z"/><path d="m453.78 577.01c2.979 0 5.39 2.82 5.39 6.2 0 3.45-2.41 6.25-5.39 6.25-2.971 0-5.391-2.8-5.391-6.25.001-3.38 2.421-6.2 5.391-6.2z"/><path d="m382.4 294.96c2.97 0 5.38 2.81 5.38 6.25 0 3.39-2.41 6.2-5.38 6.2-2.99 0-5.39-2.81-5.39-6.2 0-3.44 2.4-6.25 5.39-6.25z"/><path d="m371.81 498.51c2.97 0 5.38 2.811 5.38 6.26 0 3.381-2.41 6.19-5.38 6.19-2.98 0-5.39-2.81-5.39-6.19 0-3.45 2.41-6.26 5.39-6.26z"/><path d="m325.41 379.62c2.96 0 5.37 2.81 5.37 6.26 0 3.38-2.41 6.19-5.37 6.19-2.99 0-5.4-2.81-5.4-6.19 0-3.45 2.41-6.26 5.4-6.26z"/><path d="m311.96 230.19c2.99 0 5.41 2.81 5.41 6.2 0 3.45-2.42 6.26-5.41 6.26-2.96 0-5.37-2.81-5.37-6.26 0-3.39 2.41-6.2 5.37-6.2z"/><path d="m257.9 514.64c2.97 0 5.37 2.801 5.37 6.25 0 3.391-2.4 6.19-5.37 6.19-2.99 0-5.4-2.8-5.4-6.19 0-3.45 2.41-6.25 5.4-6.25z"/><path d="m232.45 416.14c2.96 0 5.37 2.81 5.37 6.26 0 3.38-2.41 6.19-5.37 6.19-2.99 0-5.4-2.81-5.4-6.19 0-3.45 2.41-6.26 5.4-6.26z"/><path d="m198.13 263.83c2.99 0 5.4 2.81 5.4 6.2 0 3.45-2.41 6.26-5.4 6.26-2.97 0-5.38-2.81-5.38-6.26 0-3.39 2.41-6.2 5.38-6.2z"/><path d="m148.33 484.61c2.99 0 5.4 2.81 5.4 6.199 0 3.45-2.41 6.25-5.4 6.25-2.97 0-5.38-2.8-5.38-6.25 0-3.389 2.41-6.199 5.38-6.199z"/><path d="m126.75 324.84c2.99 0 5.4 2.81 5.4 6.19 0 3.45-2.41 6.26-5.4 6.26-2.97 0-5.38-2.81-5.38-6.26 0-3.38 2.41-6.19 5.38-6.19z"/><path d="m115.13 636.92c2.98 0 5.39 2.8 5.39 6.19 0 3.449-2.41 6.26-5.39 6.26-2.97 0-5.38-2.811-5.38-6.26 0-3.39 2.41-6.19 5.38-6.19z"/><g fill="none"><path d="m252.44 197.26 8.77-35.51 521.24 71.38-19.92 441.55-79.22-12.62-525.02-83.66z" stroke="#000" stroke-width="19.9198"/><path d="m683.28 662.27-37.96-3.17-548.45-45.84 75.25-369.01 11.07-54.28 69.25 7.29" stroke="#000" stroke-width="19.9198"/><path d="m646.24 659.07-.92.03-575.02 17.14 34.9-430.6 66.92-1.39" stroke="#000" stroke-width="19.9198"/><path d="m0 0h850.394v850.394h-850.394z"/></g></svg>