<svg enable-background="new 0 0 850.394 850.394" height="850.394" viewBox="0 0 850.394 850.394" width="850.394" xmlns="http://www.w3.org/2000/svg"><path d="m630 528c-130 80-222 108-294 118l-1.26 3.56c-14.64-5.29-28.74-11.989-42.09-19.979 72.54-7.051 192.74-41.571 349.35-133.581l2.86.92c-3.521 10.99-7.83 21.7-12.891 32.05z" fill="#f6cc4b"/><path d="m336 646c72-10 164-38 294-118l1.97.97c-26.73 54.78-74.19 99.47-136.24 121.25-54.271 19.061-110.791 17.46-160.99-.66z" fill="#ffffc2"/><path d="m652.91 464.19c-1.91 11.119-4.61 22.05-8.05 32.729l-2.86-.919c-156.61 92.01-276.81 126.53-349.35 133.58-10.29-6.17-20.14-13.12-29.44-20.79 60.29-10.89 129.08-29.78 200.41-56.21 71.63-26.56 136.35-57.22 189.29-88.39z" fill="#ffffc2"/><path d="m177.87 400.5c51.8 0 263.5-6.48 391.56-161.81 12.63 10.45 24.261 22.24 34.63 35.26l-.06.05c-150 156-368 174-426.46 163.27-.38.23-.75.471-1.13.711-.76-12.621-.51-25.17.7-37.561z" fill="#f6cc4b"/><path d="m187.82 497.91c-5.92-18.141-9.55-36.51-11.05-54.771-.08-.939-.15-1.88-.21-2.819-.06-.78-.11-1.561-.15-2.34.38-.24.75-.48 1.13-.711 58.46 10.731 276.46-7.269 426.46-163.269l.06-.05c1.511 1.9 3 3.83 4.46 5.78.82 1.1 1.631 2.2 2.44 3.32 10.521 14.59 19.53 30.57 26.72 47.79z" fill="#ffffc2"/><path d="m612.84 281.67c25.11.34 41.36 5.53 45.271 16.05 3.47 9.35-3.19 21.85-17.92 36.17l-2.511-3.05c-7.189-17.22-16.199-33.2-26.72-47.79z" fill="#f6cc4b"/><path d="m176.56 440.32c-52.18 36.04-80.35 69.779-71.94 92.449 16.56 44.69 168.88 29.41 340.189-34.09 171.33-63.5 296.78-151.2 280.23-195.88-8.34-22.48-51.06-29.78-113.28-23.41l-.17-1.66c99.01-14.52 170.22-5.19 183.351 30.23 14.26 38.47-43.521 98.24-142.03 156.23.06-.301.109-.601.16-.9l-392.27 143.491c.8.68 1.6 1.35 2.41 2.01-1.71.31-3.42.61-5.12.91-110.28 19.24-191.11 11.26-205.19-26.71-13.34-35.97 36.37-90.64 123.51-145.01.04.78.09 1.56.15 2.34z" fill="#faa41f"/><path d="m336.62 197.04c82.44-28.94 170.05-10.26 232.81 41.65-128.06 155.33-339.76 161.81-391.56 161.81l-.76-.08c8.8-90.12 68.46-171.41 159.51-203.38z" fill="#ffffc2"/><path d="m260.8 606.78 392.27-143.49c-.051.3-.101.6-.16.9-52.94 31.17-117.66 61.829-189.29 88.39-71.33 26.43-140.12 45.32-200.41 56.21-.81-.66-1.61-1.33-2.41-2.01z" fill="#faa41f"/><path d="m187.82 497.91 449.86-167.07 2.511 3.05c-35 34.03-115.561 78.32-213.91 114.77-99.49 36.88-190.37 55.81-238.7 52.27z" fill="#ffffc2"/><path d="m176.77 443.14c1.5 18.261 5.13 36.63 11.05 54.771l-.24 3.02c-19.55-1.43-32.13-6.54-35.5-15.63-3.94-10.63 5.2-25.33 24.41-42.14z" fill="#f6cc4b"/><path d="m176.49 443.16c-19.21 16.81-28.35 31.51-24.41 42.14 3.37 9.09 15.95 14.2 35.5 15.63 48.33 3.54 139.21-15.39 238.7-52.27 98.35-36.45 178.91-80.74 213.91-114.77 14.729-14.32 21.39-26.82 17.92-36.17-3.91-10.52-20.16-15.71-45.271-16.05l-1.88 1.38c-.81-1.12-1.62-2.22-2.44-3.32 1.091-.12 2.171-.23 3.24-.34 62.221-6.37 104.94.93 113.28 23.41 16.55 44.68-108.9 132.38-280.23 195.88-171.31 63.5-323.629 78.78-340.189 34.09-8.41-22.67 19.76-56.409 71.94-92.449.06.939.13 1.88.21 2.819z" fill="#f6cc4b"/><g fill="none"><path d="m187.82 497.91c-5.92-18.141-9.55-36.51-11.05-54.771-.08-.939-.15-1.88-.21-2.819-.06-.78-.11-1.561-.15-2.34-.76-12.621-.51-25.17.7-37.561 8.8-90.12 68.46-171.41 159.51-203.38 82.44-28.94 170.05-10.26 232.81 41.65 12.63 10.45 24.261 22.24 34.63 35.26 1.511 1.9 3 3.83 4.46 5.78.82 1.1 1.631 2.2 2.44 3.32 10.521 14.59 19.53 30.57 26.72 47.79" stroke="#231f20" stroke-width="21"/><path d="m653.07 463.29c-.051.3-.101.6-.16.9-1.91 11.119-4.61 22.05-8.05 32.729-3.521 10.99-7.83 21.7-12.891 32.05-26.729 54.781-74.189 99.471-136.239 121.251-54.271 19.061-110.791 17.46-160.99-.66-14.64-5.29-28.74-11.989-42.09-19.979-10.29-6.17-20.14-13.12-29.44-20.79-.81-.66-1.61-1.33-2.41-2.01" stroke="#231f20" stroke-width="21"/><path d="m608.13 279.77c.13-.01.26-.03.39-.04 1.091-.12 2.171-.23 3.24-.34 62.221-6.37 104.94.93 113.28 23.41 16.55 44.68-108.9 132.38-280.23 195.88-171.31 63.5-323.629 78.78-340.189 34.09-8.41-22.67 19.76-56.409 71.94-92.449.03-.03.06-.051.09-.07" stroke="#231f20" stroke-width="21"/><path d="m612.84 281.67c25.11.34 41.36 5.53 45.271 16.05 3.47 9.35-3.19 21.85-17.92 36.17-35 34.03-115.561 78.32-213.91 114.77-99.49 36.88-190.37 55.81-238.7 52.27-19.55-1.43-32.13-6.54-35.5-15.63-3.94-10.63 5.2-25.33 24.41-42.14" stroke="#231f20" stroke-width="21"/><path d="m258.09 609.7c-110.28 19.24-191.11 11.26-205.19-26.71-13.34-35.97 36.37-90.64 123.51-145.01.38-.24.75-.48 1.13-.711" stroke="#231f20" stroke-width="21"/><path d="m611.59 277.73c99.01-14.52 170.22-5.19 183.351 30.23 14.26 38.47-43.521 98.24-142.03 156.23-52.94 31.17-117.66 61.829-189.29 88.39-71.33 26.43-140.12 45.32-200.41 56.21-1.71.31-3.42.61-5.12.91" stroke="#231f20" stroke-width="21"/><path d="m177.87 400.5c51.8 0 263.5-6.48 391.56-161.81.19-.23.38-.46.57-.69" stroke="#231f20" stroke-width="7"/><path d="m177.54 437.27c58.46 10.73 276.46-7.27 426.46-163.27" stroke="#231f20" stroke-width="7"/><path d="m336 646c72-10 164-38 294-118" stroke="#231f20" stroke-width="7"/><path d="m288 630c1.53-.13 3.08-.27 4.65-.42 72.54-7.05 192.74-41.57 349.35-133.58" stroke="#231f20" stroke-width="7"/><path d="m0 0h850.394v850.394h-850.394z"/></g></svg>