<svg enable-background="new 0 0 850.394 850.394" height="850.394" viewBox="0 0 850.394 850.394" width="850.394" xmlns="http://www.w3.org/2000/svg"><path d="m64.024 495.917 549.205 16.671" fill="none"/><path d="m77.9 515.476-13.867-19.552 15.028-18.681 13.868 19.558z"/><path d="m106.806 516.353-13.868-19.552 15.028-18.68 13.869 19.558z"/><path d="m135.711 517.23-13.867-19.551 15.028-18.681 13.868 19.558z"/><path d="m164.617 518.107-13.867-19.551 15.027-18.68 13.869 19.558z"/><path d="m193.522 518.985-13.867-19.551 15.028-18.681 13.869 19.558z"/><path d="m222.428 519.862-13.867-19.551 15.028-18.68 13.868 19.557z"/><path d="m251.333 520.74-13.867-19.552 15.028-18.68 13.869 19.557z"/><path d="m280.239 521.617-13.867-19.552 15.028-18.679 13.868 19.556z"/><path d="m309.145 522.495-13.867-19.552 15.027-18.68 13.869 19.557z"/><path d="m338.05 523.372-13.867-19.552 15.028-18.679 13.868 19.556z"/><path d="m366.956 524.249-13.867-19.551 15.027-18.68 13.869 19.557z"/><path d="m395.861 525.127-13.867-19.552 15.028-18.679 13.869 19.556z"/><path d="m424.767 526.004-13.867-19.551 15.028-18.681 13.868 19.558z"/><path d="m453.673 526.882-13.867-19.552 15.027-18.68 13.868 19.557z"/><path d="m482.578 527.759-13.867-19.551 15.027-18.681 13.869 19.558z"/><path d="m511.483 528.637-13.867-19.552 15.029-18.681 13.868 19.558z"/><path d="m540.39 529.514-13.868-19.551 15.028-18.681 13.868 19.558z"/><path d="m569.295 530.392-13.867-19.552 15.027-18.681 13.869 19.558z"/><path d="m598.2 531.269-13.867-19.552 15.028-18.68 13.868 19.558z"/><path d="m537 350.71 174.68-35.6s14.87.61 9.95 13.72c-4.91 13.1-5.18 27.64 5.67 38.5 0 0 22.54 21.01 27.92 45.87 6.55 30.3 12.8 31.35 20.88 38.91 13.971 13.05 15.82 30.58-9.42 36.449-35.22 8.19-104.3 14.91-104.3 14.91-13.66.09-22.939-.71-22.939-.71l-7.24-4.88-69.76-47-23.481-100.479-1.96.32zm164.91 119.65c16.89-5.87 15.79-20.931-3.67-40.38-19.45-19.46-19.82-26.92-25.69-40.86-5.88-13.96-13.22-31.83-27.91-31.83-14.68 0-22.02 11.75-17.609 23.5 0 0 15.41 40.52 24.05 53.479 11.009 16.511 33.949 41.961 50.829 36.091z" fill="#9e5b16"/><path d="m639.44 502.76-565.75-16.93v-60.07l463.31-75.04 1.96-.32 23.48 100.48 69.76 47z" fill="#c8c8c8"/><g fill="none"><path d="m537 350.71 174.68-35.6s14.87.61 9.95 13.72c-4.91 13.1-5.18 27.64 5.67 38.5 0 0 22.54 21.01 27.92 45.87 6.55 30.3 12.8 31.35 20.88 38.91 13.971 13.05 15.82 30.58-9.42 36.449-35.22 8.19-104.3 14.91-104.3 14.91-13.66.09-22.939-.71-22.939-.71l-7.24-4.88-69.76-47-23.481-100.479-1.96.32-463.31 75.04v60.07l565.75 16.93" stroke="#000" stroke-width="19.6594"/><path d="m627.03 380.79s15.41 40.52 24.05 53.479c11.01 16.511 33.95 41.961 50.83 36.091 16.89-5.87 15.79-20.931-3.67-40.38-19.45-19.46-19.82-26.92-25.69-40.86-5.88-13.96-13.22-31.83-27.91-31.83-14.68 0-22.02 11.75-17.61 23.5z" stroke="#000" stroke-width="19.6594"/><path d="m0 0h850.394v850.394h-850.394z"/></g></svg>