<svg enable-background="new 0 0 850.394 850.393" height="850.393" viewBox="0 0 850.394 850.393" width="850.394" xmlns="http://www.w3.org/2000/svg"><path d="m345.81 74.25c8.5.56 16.62 4.53 23.36 11.27 29 29 14.59 274.56.43 447.71h-7.05-30.51-62.77s32.95-129.791 18.5-277.51c-13.22-135.19 25.23-183.679 58.04-181.47z" fill="#a3d9ff"/><path d="m369.6 533.231c14.16-173.15 28.57-418.71-.43-447.71-6.74-6.74-14.86-10.71-23.36-11.27l89.52-.9 76.25-.78c128.87 48.72 61.05 632.7 61.05 632.7h-218.87s4.03-38.149 9.24-95.56c2.08-22.84 4.34-48.73 6.6-76.48z" fill="#a3d9ff"/><g fill="none"><path d="m369.61 533.231h-.01-7.05-30.51-62.77s32.95-129.791 18.5-277.51c-13.22-135.191 25.23-183.68 58.04-181.471 8.5.56 16.62 4.53 23.36 11.27 29 29 14.59 274.56.43 447.71-2.26 27.75-4.52 53.64-6.6 76.479-5.21 57.41-9.24 95.56-9.24 95.56h218.87s67.82-583.979-61.05-632.7l-76.25.78-89.52.9-4.26.04" stroke="#000" stroke-width="20.1568"/><path d="m269.04 532.67v76.3" stroke="#000" stroke-width="20.1568"/><path d="m299.7 533.651v76.3" stroke="#000" stroke-width="20.1568"/><path d="m332.04 532.81v.421 75.89" stroke="#000" stroke-width="20.1568"/><path d="m362.55 533.361v76.309" stroke="#000" stroke-width="20.1568"/><path d="m355.41 706.02v73.44" stroke="#000" stroke-width="20.1568"/><path d="m386.07 706.02v74.421" stroke="#000" stroke-width="20.1568"/><path d="m418.4 706.43v73.181" stroke="#000" stroke-width="20.1568"/><path d="m448.91 705.611v74.55" stroke="#000" stroke-width="20.1568"/><path d="m477.9 706.43v73.03" stroke="#000" stroke-width="20.1568"/><path d="m508.56 706.43v74.011" stroke="#000" stroke-width="20.1568"/><path d="m540.89 706.43v73.181" stroke="#000" stroke-width="20.1568"/><path d="m571.4 706.43v73.731" stroke="#000" stroke-width="20.1568"/><path d="m0 0h850.394v850.393h-850.394z"/></g></svg>