<svg enable-background="new 0 0 850.394 850.394" height="850.394" viewBox="0 0 850.394 850.394" width="850.394" xmlns="http://www.w3.org/2000/svg"><path d="m764.26 381.18v279.27h-687.16v-279.05h1.39 191.32v-49.54l100.94-83.19 4.02-3.31 45.43-37.44 46.34 37.44 3.12 2.52 103.68 83.76v49.54zm-36.45 203.23v-108.08-35.49h-38.95-40.05v35.49 108.08h40.051zm-120.55 0v-108.08-35.49h-38.95-40.04v35.49 108.08h40.04zm-113.33 73.86v-175.54h-73.25-73.25v175.54h73.25zm-184.34-73.86v-108.08-35.49h-38.95-40.04v35.49 108.08h40.04zm-120.55 0v-108.08-35.49h-38.94-40.05v35.49 108.08h40.05z" fill="#ffeec8"/><path d="m764.26 245.36v135.82h-190.92v-49.54l-103.68-83.76 2.04-2.52z" fill="#787878"/><path d="m688.86 476.33h38.949v108.08h-38.949z" fill="#fff"/><path d="m727.81 440.84v35.49h-38.95v-33.34-2.15z" fill="#fff"/><path d="m648.81 476.33h40.051v108.08h-40.051z" fill="#fff"/><path d="m688.86 442.99v33.34h-40.05v-35.49h40.05z" fill="#fff"/><path d="m568.31 476.33h38.95v108.08h-38.95z" fill="#fff"/><path d="m607.26 440.84v35.49h-38.95v-33.34-2.15z" fill="#fff"/><path d="m528.27 476.33h40.04v108.08h-40.04z" fill="#fff"/><path d="m568.31 442.99v33.34h-40.04v-35.49h40.04z" fill="#fff"/><path d="m493.93 482.73v175.54h-73.25v-2.62-168.56-4.36z" fill="#ff001c"/><path d="m420.68 655.65v2.62h-73.25v-175.54h73.25v4.36z" fill="#ff001c"/><path d="m369.67 245.36 1.08 3.31-100.94 83.19v49.54h-191.32-1.39v-136.04z" fill="#787878"/><path d="m270.64 476.33h38.95v108.08h-38.95z" fill="#fff"/><path d="m309.59 440.84v35.49h-38.95v-33.34-2.15z" fill="#fff"/><path d="m230.6 476.33h40.04v108.08h-40.04z" fill="#fff"/><path d="m270.64 442.99v33.34h-40.04v-35.49h40.04z" fill="#fff"/><path d="m150.1 476.33h38.94v108.08h-38.94z" fill="#fff"/><path d="m189.04 440.84v35.49h-38.94v-33.34-2.15z" fill="#fff"/><path d="m110.05 476.33h40.05v108.08h-40.05z" fill="#fff"/><path d="m150.1 442.99v33.34h-40.05v-35.49h40.05z" fill="#fff"/><g fill="none"><path d="m471.7 245.36h292.56v135.82 279.27h-687.16v-279.05-136.04h292.57" stroke="#231f20" stroke-width="28"/><path d="m420.68 482.73h73.25v175.54h-73.25-73.25v-175.54z" stroke="#231f20" stroke-width="21"/><path d="m189.04 476.33v108.08h-38.94-40.05v-108.08-35.49h40.05 38.94z" stroke="#231f20" stroke-width="14"/><path d="m110.05 476.33h40.05 38.94" stroke="#231f20" stroke-width="14"/><path d="m150.1 442.99v33.34 108.08" stroke="#231f20" stroke-width="14"/><path d="m309.59 476.33v108.08h-38.95-40.04v-108.08-35.49h40.04 38.95z" stroke="#231f20" stroke-width="14"/><path d="m230.6 476.33h40.04 38.95" stroke="#231f20" stroke-width="14"/><path d="m270.64 442.99v33.34 108.08" stroke="#231f20" stroke-width="14"/><path d="m607.26 476.33v108.08h-38.95-40.04v-108.08-35.49h40.04 38.95z" stroke="#231f20" stroke-width="14"/><path d="m528.27 476.33h40.04 38.95" stroke="#231f20" stroke-width="14"/><path d="m568.31 442.99v33.34 108.08" stroke="#231f20" stroke-width="14"/><path d="m727.81 476.33v108.08h-38.95-40.05v-108.08-35.49h40.05 38.95z" stroke="#231f20" stroke-width="14"/><path d="m648.81 476.33h40.05 38.95" stroke="#231f20" stroke-width="14"/><path d="m688.86 442.99v33.34 108.08" stroke="#231f20" stroke-width="14"/><path d="m370.75 248.67-100.94 83.19v49.54h-191.32" stroke="#231f20" stroke-width="28"/><path d="m374.77 245.36-4.02 3.31" stroke="#231f20" stroke-width="26.5102"/><path d="m466.54 245.36-46.34-37.44-45.43 37.44" stroke="#231f20" stroke-width="28"/><path d="m764.66 381.18h-.4-190.92v-49.54l-103.68-83.76-3.12-2.52" stroke="#231f20" stroke-width="28"/><path d="m420.68 487.09v168.56" stroke="#231f20" stroke-width="21"/><path d="m0 0h850.394v850.394h-850.394z"/></g></svg>