<svg enable-background="new 0 0 850.394 850.394" height="850.394" viewBox="0 0 850.394 850.394" width="850.394" xmlns="http://www.w3.org/2000/svg"><path d="m548.7 111.29c13.02 0 23.59 12.81 23.59 28.6 0 15.8-10.57 28.62-23.59 28.62-13.03 0-23.58-12.82-23.58-28.62 0-15.79 10.55-28.6 23.58-28.6z" fill="#ffeec8"/><path d="m703.19 111.29c13.02 0 23.6 12.81 23.6 28.6 0 15.8-10.58 28.62-23.6 28.62-13.021 0-23.58-12.82-23.58-28.62 0-15.79 10.56-28.6 23.58-28.6z" fill="#ffeec8"/><path d="m533.2 171.94c-9.94 2.96-16.99 10.46-16.99 19.24v36.92h-8.78l-2.41 4.02c0-.13 0-1.83 0-24.03 0-34.51 26.73-36.09 28.18-36.15z" fill="#0b00ea"/><path d="m533.2 171.94c2.93-.88 6.12-1.36 9.46-1.36h13.189c3.2 0 6.271.44 9.11 1.26 10.12 2.89 17.33 10.46 17.33 19.34v36.92h-66.08v-36.92c.001-8.78 7.051-16.28 16.991-19.24z" fill="#0b00ea"/><path d="m593.48 207.14v22.27l-.761-1.31h-10.43v-36.92c0-8.88-7.21-16.45-17.33-19.34l.26-.85c.001 0 28.261.67 28.261 36.15z" fill="#0b00ea"/><path d="m687.68 171.94c-9.93 2.96-16.979 10.46-16.979 19.24v36.92h-8.78l-2.41 4.02c0-.13 0-1.83 0-24.03-.001-34.37 26.519-36.07 28.169-36.15z" fill="#0b00ea"/><path d="m747.97 207.14v22.27l-.76-1.31h-10.43v-36.92c0-8.88-7.2-16.45-17.32-19.34l.26-.85s28.25.67 28.25 36.15z" fill="#0b00ea"/><path d="m687.68 171.94c2.94-.88 6.13-1.36 9.471-1.36h13.199c3.2 0 6.271.44 9.11 1.26 10.12 2.89 17.32 10.46 17.32 19.34v36.92h-66.08v-36.92c0-8.78 7.05-16.28 16.98-19.24z" fill="#0b00ea"/><path d="m593.48 229.41 16.68 28.76h-11.4-94.08-15.28l15.619-26.04s0 0 0-.01l2.41-4.02h8.78 66.08 10.43z" fill="#9c5b16"/><path d="m598.76 258.41v69.97h-94.08v-69.97-.24h94.08z" fill="#9c5b16"/><path d="m753.25 258.41v69.97h-94.07v-69.97-.24h94.07z" fill="#9c5b16"/><path d="m747.97 229.41 16.69 28.76h-11.41-94.07-15.29l15.62-26.04s0 0 0-.01l2.41-4.02h8.78 66.08 10.43z" fill="#9c5b16"/><path d="m569.46 574.61h33.96v91.64h-33.96z" fill="#fff"/><path d="m603.42 574.61h33.01v91.64h-33.01z" fill="#fff"/><path d="m636.43 544.53v30.08h-33.01v-28.26-1.82z" fill="#fff"/><path d="m603.42 546.35v28.26h-33.96v-30.08h33.96z" fill="#fff"/><path d="m501.21 574.61h33.021v91.64h-33.021z" fill="#fff"/><path d="m467.26 574.61h33.95v91.64h-33.95z" fill="#fff"/><path d="m534.23 544.53v30.08h-33.02v-28.26-1.82z" fill="#fff"/><path d="m501.21 546.35v28.26h-33.95v-30.08h33.95z" fill="#fff"/><path d="m248.84 574.61h33.02v91.64h-33.02z" fill="#fff"/><path d="m214.89 574.61h33.95v91.64h-33.95z" fill="#fff"/><path d="m281.86 544.53v30.08h-33.02v-28.26-1.82z" fill="#fff"/><path d="m248.84 546.35v28.26h-33.95v-30.08h33.95z" fill="#fff"/><path d="m112.69 574.61h33.95v91.64h-33.95z" fill="#fff"/><path d="m146.64 574.61h33.02v91.64h-33.02z" fill="#fff"/><path d="m179.66 544.53v30.08h-33.02v-28.26-1.82z" fill="#fff"/><path d="m146.64 546.35v28.26h-33.95v-30.08h33.95z" fill="#fff"/><path d="m332.8 378.8 1.74 2.11-.83.69-85.58 70.53v42h-162.2-1.18v-115.33z" fill="#787878"/><path d="m667.34 378.8v115.14h-161.87v-41.99l-87.9-71.01v-.01l1.73-2.13z" fill="#787878"/><path d="m376.04 726.64v2.23h-62.1v-148.83h62.1v3.7z" fill="#ff001c"/><path d="m438.15 580.04v148.83h-62.11v-2.23-142.9-3.7z" fill="#ff001c"/><path d="m667.34 730.71h-582.59v-236.58h1.18 162.2v-42l85.58-70.53.83-.69 2.58-2.12 38.52-31.74 39.28 31.74 2.65 2.14v.01l87.9 71.01v41.99h161.87zm-353.4-1.84h62.1 62.11v-148.83h-62.11-62.1zm322.49-62.62v-91.64-30.08h-33.01-33.96v30.08 91.64h33.96zm-102.2 0v-91.64-30.08h-33.02-33.95v30.08 91.64h33.95zm-252.37 0v-91.64-30.08h-33.02-33.95v30.08 91.64h33.95zm-102.2 0v-91.64-30.08h-33.02-33.95v30.08 91.64h33.95z" fill="#ffeec8"/><g fill="none"><path d="m419.3 378.8h248.04v115.14 236.77h-582.59v-236.58-115.33h248.05" stroke="#231f20" stroke-width="28"/><path d="m376.04 580.04h62.11v148.83h-62.11-62.1v-148.83z" stroke="#231f20" stroke-width="21"/><path d="m179.66 574.61v91.64h-33.02-33.95v-91.64-30.08h33.95 33.02z" stroke="#231f20" stroke-width="14"/><path d="m112.69 574.61h33.95 33.02" stroke="#231f20" stroke-width="14"/><path d="m146.64 546.35v28.26 91.64" stroke="#231f20" stroke-width="14"/><path d="m281.86 574.61v91.64h-33.02-33.95v-91.64-30.08h33.95 33.02z" stroke="#231f20" stroke-width="14"/><path d="m214.89 574.61h33.95 33.02" stroke="#231f20" stroke-width="14"/><path d="m248.84 546.35v28.26 91.64" stroke="#231f20" stroke-width="14"/><path d="m534.23 574.61v91.64h-33.02-33.95v-91.64-30.08h33.95 33.02z" stroke="#231f20" stroke-width="14"/><path d="m467.26 574.61h33.95 33.02" stroke="#231f20" stroke-width="14"/><path d="m501.21 546.35v28.26 91.64" stroke="#231f20" stroke-width="14"/><path d="m636.43 574.61v91.64h-33.01-33.96v-91.64-30.08h33.96 33.01z" stroke="#231f20" stroke-width="14"/><path d="m569.46 574.61h33.96 33.01" stroke="#231f20" stroke-width="14"/><path d="m603.42 546.35v28.26 91.64" stroke="#231f20" stroke-width="14"/><path d="m333.71 381.6-85.58 70.53v42h-162.2" stroke="#231f20" stroke-width="28"/><path d="m337.12 378.79-2.58 2.12-.83.69" stroke="#231f20" stroke-width="25.3239"/><path d="m414.92 378.79-39.28-31.74-38.52 31.74" stroke="#231f20" stroke-width="28"/><path d="m667.68 493.94h-.34-161.87v-41.99l-87.9-71.01v-.01l-2.65-2.14" stroke="#231f20" stroke-width="28"/><path d="m376.04 583.74v142.9" stroke="#231f20" stroke-width="21"/><path d="m572.29 139.89c0 15.8-10.57 28.62-23.59 28.62-13.03 0-23.58-12.82-23.58-28.62 0-15.79 10.55-28.6 23.58-28.6 13.02 0 23.59 12.81 23.59 28.6z" stroke="#231f20" stroke-width="14"/><path d="m582.29 228.1v-36.92c0-8.88-7.21-16.45-17.33-19.34-2.84-.82-5.91-1.26-9.11-1.26h-13.19c-3.34 0-6.53.48-9.46 1.36-9.94 2.96-16.99 10.46-16.99 19.24v36.92" stroke="#231f20" stroke-width="14"/><path d="m505.02 232.12 2.41-4.02h8.78 66.08 10.43l.76 1.31 16.68 28.76h-11.4-94.08-15.28l15.62-26.04" stroke="#231f20" stroke-width="21"/><path d="m504.68 258.41v69.97h94.08v-69.97" stroke="#231f20" stroke-width="21"/><path d="m533.26 171.94s-.02 0-.06 0c-1.45.06-28.181 1.64-28.181 36.15v24.03.01" stroke="#231f20" stroke-width="14"/><path d="m565.22 170.99s28.261.67 28.261 36.15v22.27 1.76" stroke="#231f20" stroke-width="14"/><path d="m726.79 139.89c0 15.8-10.58 28.62-23.6 28.62-13.021 0-23.58-12.82-23.58-28.62 0-15.79 10.56-28.6 23.58-28.6s23.6 12.81 23.6 28.6z" stroke="#231f20" stroke-width="14"/><path d="m736.78 228.1v-36.92c0-8.88-7.2-16.45-17.32-19.34-2.84-.82-5.91-1.26-9.11-1.26h-13.2c-3.341 0-6.53.48-9.471 1.36-9.93 2.96-16.979 10.46-16.979 19.24v36.92" stroke="#231f20" stroke-width="14"/><path d="m659.51 232.12 2.41-4.02h8.78 66.08 10.43l.76 1.31 16.69 28.76h-11.41-94.07-15.29l15.62-26.04" stroke="#231f20" stroke-width="21"/><path d="m659.18 258.41v69.97h94.07v-69.97" stroke="#231f20" stroke-width="21"/><path d="m687.76 171.94s-.029 0-.08 0c-1.649.08-28.17 1.78-28.17 36.15v24.03.01" stroke="#231f20" stroke-width="14"/><path d="m719.72 170.99s28.25.67 28.25 36.15v22.27 1.76" stroke="#231f20" stroke-width="14"/><path d="m0 0h850.394v850.394h-850.394z"/></g></svg>