<svg enable-background="new 0 0 850.394 850.394" height="850.394" viewBox="0 0 850.394 850.394" width="850.394" xmlns="http://www.w3.org/2000/svg"><path d="m659.52 668.95 112.48 1.05 1.36-.5 5.05 13.85s14.55 46.99-17.11 63.69c-34.229 18.07-97.03 16.21-97.03 16.21-18.06 0-61.81 1.89-96.029-16.16-31.65-16.7-17.12-63.71-17.12-63.71l5.76-15.79 1.119.41z" fill="#f0037f"/><path d="m242.2 426.38-.31 7.92-5.94-.24.32-7.91z"/><path d="m252.21 382.12-.69 1.6-11.17-.45-9.14-3.93 16.03.64z"/><path d="m249.14 387.05-1.45 36.18-17.03-.68 1.49-37.22 14.31.57z"/><path d="m209.72 389.31-15.3 33.96-15.54-7 15.31-33.96z"/><path d="m219.03 386.98-1.46 3.25-28.54-12.86 1.46-3.25z"/><path d="m160.6 361.4 10.99 13.03-28.46 24.03-10.99-13.02z"/><path d="m247.24 379.98-16.03-.64-70.09-30.16 2.27-5.27z"/><path d="m344.58 466.71c0 1.33-2 2.61-5.69 3.81-14.48 4.69-54.96 8.07-102.63 8.07-59.82 0-108.32-5.32-108.32-11.88 0-6.57 48.5-11.89 108.32-11.89s108.32 5.32 108.32 11.89z" fill="#fff"/><path d="m344.58 471.72v13.8h-.18c0 4.671-24.49 8.711-60.14 10.65-14.51.79-30.86 1.24-48.17 1.24-58.33 0-105.89-5.061-108.22-11.4l.07-.02v-19.28c0 6.56 48.5 11.88 108.32 11.88 47.67 0 88.15-3.38 102.63-8.07z" fill="#787878"/><path d="m265.82 534.2c4.66 1.35 7.42 3.01 7.42 4.83 0 4.479-17.03 8.12-38.04 8.12s-38.04-3.641-38.04-8.12c0-1.82 2.77-3.48 7.45-4.83l-.49-21.37v-2.14h62.39z" fill="#787878"/><path d="m422.58 543.92c18.54 0 33.54 15.01 33.54 33.55s-15 33.55-33.54 33.55-33.55-15.01-33.55-33.55 15.01-33.55 33.55-33.55zm13.61 33.55c0-7.52-6.091-13.609-13.601-13.609-7.53 0-13.61 6.09-13.61 13.609 0 7.521 6.08 13.61 13.61 13.61 7.511 0 13.601-6.09 13.601-13.61z" fill="#787878"/><path d="m485.65 738.57v22.18h-364.05v-22.18h3.17 357.19z" fill="#787878"/><path d="m404.02 645.03-281.87 68.83-.55-2.25v-33.81l60.23-41.22h25.37 60.76 78.73v8.45h28.53z" fill="#c8c8c8"/><path d="m422.59 563.86c7.51 0 13.601 6.09 13.601 13.609 0 7.521-6.091 13.61-13.601 13.61-7.53 0-13.61-6.09-13.61-13.61 0-7.519 6.08-13.609 13.61-13.609z" fill="#c8c8c8"/><path d="m471.52 642.79 14.13 14.13v81.65h-3.69-357.19-3.17v-24.58l.55-.13 281.87-68.83h65.26v-2.24z" fill="#c8c8c8"/><path d="m469.28 642.79v2.24h-65.26-28.8v-173.31-45.43l-183.35-79.27v-35.92h84.02l193.39 71.33zm-13.16-65.32c0-18.54-15-33.55-33.54-33.55s-33.55 15.01-33.55 33.55 15.01 33.55 33.55 33.55 33.54-15.01 33.54-33.55z" fill="#c8c8c8"/><path d="m279.58 244.78v66.32h-3.69-84.02-4.22v-66.32h3.17 86.39z" fill="#787878"/><path d="m280.76 189.89-1.18 37.72v17.17h-2.37-86.39-3.17v-17.17-28.53l-13.21-5.29 29.06-49.13z" fill="#787878"/><path d="m178.24 143.41-23.75 36.28-72.08-42.28c-5.1-2.99-8.17-8.1-8.78-13.54 2.75-2.96 5.71-6.99 8.41-11.65 3.08-5.33 5.28-10.53 6.37-14.7l2.29.63c4.45-1.16 9.34-.62 13.63 1.89l73.37 43.02z" fill="#787878"/><path d="m195.57 366.44-15.78 10.93 1.2-1.02-2.29-2.71-4.53-15.52z" fill="#cb97c4"/><path d="m178.7 373.64 2.29 2.71-1.2 1.02z" fill="#cb97c4"/><g fill="none"><path d="m90.7 98.15c4.45-1.16 9.34-.62 13.63 1.89l73.37 43.02" stroke="#231f20" stroke-width="21"/><path d="m155.78 180.44-1.29-.75-72.08-42.28c-5.1-2.99-8.17-8.1-8.78-13.54 0-.02-.01-.05-.01-.07" stroke="#231f20" stroke-width="21"/><path d="m87.8 88.68c1.69.98 1.8 4.31.61 8.84-1.09 4.17-3.29 9.37-6.37 14.7-2.7 4.66-5.66 8.69-8.41 11.65-3.81 4.09-7.24 6.15-9.13 5.05" stroke="#231f20" stroke-linecap="round" stroke-linejoin="round" stroke-width="21"/><path d="m187.65 244.78v-17.17-28.53l-13.21-5.29 29.06-49.13 77.26 45.23-1.18 37.72v17.17 66.32h-3.69-84.02-4.22z" stroke="#231f20" stroke-width="21"/><path d="m178.24 143.41 10.07-15.39 12.82 8.39-39.6 60.5-12.82-8.39 5.78-8.83z" stroke="#231f20" stroke-width="21"/><path d="m191.87 311.1v35.92l183.35 79.27v45.43 173.31h28.8 65.26v-2.24-260.36l-193.39-71.33" stroke="#231f20" stroke-width="21"/><path d="m375.22 471.72h-30.64v13.8 12.09h-60.24v15.86l62.35 27.48v95.63 8.45h28.53" stroke="#231f20" stroke-width="21"/><path d="m471.52 642.79 14.13 14.13v81.65 22.18h-364.05v-22.18-24.58l.55-.13 281.87-68.83" stroke="#231f20" stroke-width="21"/><path d="m121.6 711.61v-33.81l60.23-41.22h25.37 60.76 78.73" stroke="#231f20" stroke-width="21"/><path d="m251.52 383.72-1.58 3.68-.8-.35-2.68-1.15-6.11-2.63-9.14-3.93-70.09-30.16 2.27-5.27 83.85 36.07 4.97 2.14z" stroke="#231f20" stroke-width="21"/><path d="m143.13 398.46-10.99-13.02 28.46-24.04 10.99 13.03z" stroke="#231f20" stroke-width="21"/><path d="m131.05 401.65-3.84-4.54 6.06-5.12 3.83 4.55z" stroke="#231f20" stroke-width="21"/><path d="m179.79 377.37-1.52 1.28-20.19-23.93 2.72-2.29 17.9 21.21" stroke="#231f20" stroke-width="21.2627"/><path d="m194.42 423.27-15.54-7 15.31-33.96 15.53 7z" stroke="#231f20" stroke-width="21"/><path d="m184.9 431.37-5.41-2.44 3.25-7.23 5.42 2.44z" stroke="#231f20" stroke-width="21"/><path d="m217.57 390.23-28.54-12.86 1.46-3.25 28.54 12.86z" stroke="#231f20" stroke-width="21"/><path d="m249.14 387.05-1.45 36.18-17.03-.68 1.49-37.22 14.31.57 2.72.11z" stroke="#231f20" stroke-width="21"/><path d="m241.89 434.3-5.94-.24.32-7.91 5.93.23z" stroke="#231f20" stroke-width="21"/><path d="m247.24 379.98 9.7.39-.15 3.56-5.27-.21-11.17-.45-14.83-.59.14-3.56 5.55.22z" stroke="#231f20" stroke-width="21"/><path d="m178.7 373.64-4.53-15.52 21.4 8.32-15.78 10.93z" stroke="#231f20" stroke-width="21"/><path d="m127.94 466.71c0-6.57 48.5-11.89 108.32-11.89s108.32 5.319 108.32 11.89c0 1.33-2 2.61-5.69 3.81-14.48 4.69-54.96 8.07-102.63 8.07-59.82 0-108.32-5.32-108.32-11.88z" stroke="#231f20" stroke-width="14"/><path d="m344.4 485.52c0 4.671-24.49 8.711-60.14 10.65-14.51.79-30.86 1.24-48.17 1.24-58.33 0-105.89-5.061-108.22-11.4-.07-.16-.1-.33-.1-.49" stroke="#231f20" stroke-width="21"/><path d="m127.94 466.71v19.28" stroke="#231f20" stroke-width="21.2627"/><path d="m204.12 510.69h-2.14v-10.3h68.56v10.3h-4.03z" stroke="#231f20" stroke-width="21"/><path d="m266.51 510.69-.69 23.51c4.66 1.35 7.42 3.01 7.42 4.83 0 4.479-17.03 8.12-38.04 8.12s-38.04-3.641-38.04-8.12c0-1.82 2.77-3.48 7.45-4.83l-.49-21.37" stroke="#231f20" stroke-width="21"/><path d="m267.96 610.96c0 3.35-13.6 6.07-30.38 6.07s-30.38-2.721-30.38-6.07c0-3.36 13.6-6.08 30.38-6.08s30.38 2.72 30.38 6.08z" stroke="#231f20" stroke-width="21"/><path d="m207.2 610.96v24.3" stroke="#231f20" stroke-width="21"/><path d="m267.96 609.77v1.19 24.17" stroke="#231f20" stroke-width="21"/><path d="m124.77 738.57h357.19" stroke="#231f20" stroke-width="21"/><path d="m456.12 577.47c0 18.54-15 33.55-33.54 33.55s-33.55-15.01-33.55-33.55 15.01-33.55 33.55-33.55 33.54 15.01 33.54 33.55z" stroke="#231f20" stroke-width="21"/><path d="m436.19 577.47c0 7.521-6.091 13.61-13.601 13.61-7.53 0-13.61-6.09-13.61-13.61s6.08-13.609 13.61-13.609c7.511-.001 13.601 6.089 13.601 13.609z" stroke="#231f20" stroke-width="14"/><path d="m190.82 244.78h86.39" stroke="#231f20" stroke-width="21"/><path d="m612.93 376.26h19.01 65.65 18.03" stroke="#231f20" stroke-width="21"/><path d="m697.59 376.23v.03 85.55l75.77 207.69 5.05 13.85s14.55 46.99-17.11 63.69c-34.229 18.07-97.03 16.21-97.03 16.21-18.06 0-61.81 1.89-96.029-16.16-31.65-16.7-17.12-63.71-17.12-63.71l5.76-15.79 75.061-205.75v-85.58" stroke="#231f20" stroke-width="21"/><path d="m691.85 605.41h-32.33v48.73 14.81 33.45h32.33" stroke="#231f20" stroke-width="14"/><path d="m659.52 654.14h32.33" stroke="#231f20" stroke-width="14"/><path d="m661.47 628.48h17.28" stroke="#231f20" stroke-width="14"/><path d="m661.47 677.65h17.28" stroke="#231f20" stroke-width="14"/><path d="m0 0h850.394v850.394h-850.394z"/></g></svg>