<svg enable-background="new 0 0 850.394 850.394" height="850.394" viewBox="0 0 850.394 850.394" width="850.394" xmlns="http://www.w3.org/2000/svg"><path d="m126.25 317.2c.29 2.68 1.81 5.2 4.31 6.67l35.45 20.79-2.84 4.34 6.3 4.13 19.48-29.75-6.3-4.13-4.96 7.57-.26-.17-36.09-21.16c-2.1-1.23-4.51-1.5-6.7-.93l-1.13-.29c-.53 2.05-1.61 4.6-3.13 7.21-1.32 2.29-2.77 4.27-4.13 5.72zm26.67 178.1c1.15 3.12 24.54 5.61 53.22 5.61 29.42 0 53.27-2.62 53.27-5.851h.08v5.95h-29.62v7.8l30.66 13.511v47.029h-38.71v-.71-11.89c0-1.65-6.69-2.99-14.95-2.99-8.25 0-14.94 1.34-14.94 2.99v11.95.649h-12.47l-29.62 20.271v16.63l.27 1.1-.27.07v12.09 10.91h179.03v-10.91-40.149l-6.95-6.95h-1.1v-128.04l-95.11-35.09h1.82v-32.61-8.44l.58-18.55-38-22.25-14.29 24.17 6.5 2.6v14.03 8.44 32.61h2.08v17.67l90.16 38.979v22.351h-15.07l-4.7-.07c3.02-.729 4.7-1.54 4.7-2.4 0-3.229-23.85-5.85-53.26-5.85-29.42 0-53.27 2.62-53.27 5.85v9.48zm247.89-52.05v40.17l-39.74 108.95s-7.15 23.11 8.42 31.33c16.83 8.88 38.34 7.939 47.22 7.939 0 0 30.89.92 47.72-7.97 15.57-8.21 8.42-31.32 8.42-31.32l-39.75-108.949v-40.15zm352.1-267.98v530.85h-664.99v-530.85zm-118.91 364.73v-70l-94 2v68zm-71.89 50c0-7.38-5.42-13.39-12.11-13.39s-12.11 6.01-12.11 13.39c0 7.39 5.42 13.39 12.11 13.39s12.11-6 12.11-13.39zm-337.7-68.62c0-.89-1.35-1.71-3.65-2.38l.34-11.56h1.98v-5.07h-33.71v5.07h1.05v1.05l.24 10.51c-2.3.67-3.66 1.49-3.66 2.38 0 2.2 8.37 3.99 18.7 3.99 10.34 0 18.71-1.79 18.71-3.99zm-8.09-76.28.07-1.75-4.76-.189-41.24-17.74-1.11 2.6 34.46 14.83-2.73-.109-.07 1.75 7.29.29 2.99 1.29-7.02-.28-.73 18.31 8.38.33.71-17.79.39.17.78-1.81zm-7.33 24.78.16-3.899-2.92-.11-.16 3.89zm-11.96-21.68.72-1.601-14.03-6.319-.72 1.6zm-11.38 16.25 7.53-16.7-7.65-3.44-7.52 16.7zm-7.16-22.6 7.73-5.35-10.53-4.09 2.22 7.62-8.79-10.42-1.34 1.13 9.93 11.77.74-.63zm2.48 26.58 1.6-3.55-2.66-1.2-1.6 3.551zm-6.54-28-5.41-6.399-14 11.81 5.41 6.41zm-16.97 10.88-1.88-2.239-2.98 2.51 1.88 2.24z" fill="#fff"/><path d="m634 470v70h-94v-68z" fill="#231f20"/><path d="m550 576.61c6.69 0 12.11 6.01 12.11 13.39 0 7.39-5.42 13.39-12.11 13.39s-12.11-6-12.11-13.39c0-7.38 5.42-13.39 12.11-13.39z" fill="#231f20"/><path d="m186.22 436.5-7.73 5.35.56-.47-1.14-1.35-2.22-7.62z" fill="#cb97c4"/><path d="m177.91 440.03 1.14 1.35-.56.47-.04.03z" fill="#cb97c4"/><g fill="none"><path d="m670 698v-268h-162v264" stroke="#231f20" stroke-width="21"/><path d="m87.92 175.27h664.99v530.85h-664.99z" stroke="#231f20" stroke-width="28"/><path d="m134.64 304.56c2.19-.57 4.6-.3 6.7.93l36.09 21.16" stroke="#231f20" stroke-width="10.3865"/><path d="m166.65 345.03-.64-.37-35.45-20.79c-2.5-1.47-4.02-3.99-4.31-6.67 0-.01 0-.01 0-.02" stroke="#231f20" stroke-width="10.3865"/><path d="m133.21 299.91c.83.48.89 2.12.3 4.36-.53 2.05-1.61 4.6-3.13 7.21-1.32 2.29-2.77 4.27-4.13 5.72-1.87 2.02-3.56 3.03-4.49 2.5" stroke="#231f20" stroke-linecap="round" stroke-linejoin="round" stroke-width="10.3865"/><path d="m182.32 376.67v-8.44-14.03l-6.5-2.6 14.29-24.17 38 22.25-.58 18.55v8.44 32.61h-1.82-41.31-2.08z" stroke="#231f20" stroke-width="10.3865"/><path d="m177.69 326.82 4.96-7.57 6.3 4.13-19.48 29.75-6.3-4.13 2.84-4.34z" stroke="#231f20" stroke-width="10.3865"/><path d="m184.4 409.28v17.67l90.16 38.98v22.35 85.23h14.16 32.1v-1.1-128.04l-95.11-35.09" stroke="#231f20" stroke-width="10.3865"/><path d="m274.56 488.28h-15.07v6.78 5.95h-29.62v7.8l30.66 13.51v47.03 4.16h14.03" stroke="#231f20" stroke-width="10.3865"/><path d="m321.92 572.41 6.95 6.95v40.15 10.91h-179.03v-10.91-12.09l.27-.07 138.61-33.84" stroke="#231f20" stroke-width="10.3865"/><path d="m149.84 606.25v-16.63l29.62-20.27h12.47 29.89 38.71" stroke="#231f20" stroke-width="10.3865"/><path d="m213.73 445-.78 1.81-.39-.17-1.34-.57-2.99-1.29-4.49-1.93-34.46-14.83 1.11-2.6 41.24 17.74 2.44 1.05z" stroke="#231f20" stroke-width="10.3865"/><path d="m160.43 452.25-5.41-6.41 14-11.81 5.41 6.4z" stroke="#231f20" stroke-width="10.3865"/><path d="m154.48 453.82-1.88-2.24 2.98-2.51 1.88 2.24z" stroke="#231f20" stroke-width="10.3865"/><path d="m178.45 441.88-.74.63-9.93-11.77 1.34-1.13 8.79 10.42" stroke="#231f20" stroke-width="10.3865"/><path d="m185.65 464.45-7.64-3.44 7.52-16.7 7.65 3.44z" stroke="#231f20" stroke-width="10.3865"/><path d="m178.981 464.107h2.918v3.895h-2.918z" stroke="#231f20" stroke-width="10.3865" transform="matrix(.9116 .411 -.411 .9116 207.4804 -32.9789)"/><path d="m182.681 443.363h15.388v1.754h-15.388z" stroke="#231f20" stroke-width="10.3865" transform="matrix(.9118 .4107 -.4107 .9118 199.2663 -38.9916)"/><path d="m212.56 446.64-.71 17.79-8.38-.33.73-18.31 7.02.28 1.36.05z" stroke="#231f20" stroke-width="10.3865"/><path d="m208.99 469.88-2.92-.12.16-3.89 2.92.11z" stroke="#231f20" stroke-width="10.3865"/><path d="m211.63 443.16 4.76.19-.07 1.75-2.59-.1-5.5-.22-7.29-.29.07-1.75 2.73.11z" stroke="#231f20" stroke-width="10.4565"/><path d="m177.91 440.03-2.22-7.62 10.53 4.09-7.73 5.35-.04.03z" stroke="#231f20" stroke-width="10.3865"/><path d="m152.96 485.81c0-3.229 23.85-5.85 53.27-5.85 29.41 0 53.26 2.62 53.26 5.85 0 .86-1.68 1.671-4.7 2.4-8.36 2.03-26.96 3.44-48.56 3.44-29.42 0-53.27-2.61-53.27-5.84z" stroke="#231f20" stroke-width="6.9243"/><path d="m259.41 495.06c0 3.23-23.85 5.851-53.27 5.851-28.68 0-52.07-2.49-53.22-5.61-.04-.08-.05-.16-.05-.24" stroke="#231f20" stroke-width="10.3865"/><path d="m152.96 485.81v9.48" stroke="#231f20" stroke-width="10.4565"/><path d="m190.42 507.44h-1.05v-5.07h33.71v5.07h-1.98z" stroke="#231f20" stroke-width="10.3865"/><path d="m221.1 507.44-.34 11.56c2.3.67 3.65 1.49 3.65 2.38 0 2.2-8.37 3.99-18.71 3.99-10.33 0-18.7-1.79-18.7-3.99 0-.89 1.36-1.71 3.66-2.38l-.24-10.51" stroke="#231f20" stroke-width="10.3865"/><path d="m221.82 556.75c0 1.65-6.69 2.99-14.95 2.99-8.25 0-14.94-1.34-14.94-2.99s6.69-2.99 14.94-2.99c8.26 0 14.95 1.34 14.95 2.99z" stroke="#231f20" stroke-width="10.3865"/><path d="m191.93 556.75v11.95" stroke="#231f20" stroke-width="10.3865"/><path d="m221.82 556.17v.58 11.89" stroke="#231f20" stroke-width="10.3865"/><path d="m151.4 619.51h175.65" stroke="#231f20" stroke-width="10.3865"/><path d="m314.35 540.28c0 9.12-7.38 16.5-16.5 16.5-9.11 0-16.49-7.38-16.49-16.5 0-9.11 7.38-16.5 16.49-16.5 9.12 0 16.5 7.39 16.5 16.5z" stroke="#231f20" stroke-width="10.3865"/><path d="m304.55 540.28c0 3.7-3 6.689-6.69 6.689-3.7 0-6.69-2.989-6.69-6.689s2.99-6.69 6.69-6.69c3.69 0 6.69 2.99 6.69 6.69z" stroke="#231f20" stroke-width="6.9243"/><path d="m183.88 376.67h42.48" stroke="#231f20" stroke-width="10.3865"/><path d="m433.1 441.32v1.93 40.15l39.75 108.949s7.15 23.11-8.42 31.32c-16.83 8.89-47.72 7.97-47.72 7.97-8.88 0-30.39.94-47.22-7.939-15.57-8.22-8.42-31.33-8.42-31.33l39.74-108.95v-40.17-1.92" stroke="#231f20" stroke-width="10.3865"/><path d="m387.75 443.25h13.06 32.29 12.65" stroke="#231f20" stroke-width="10.7398"/><path d="m0 0h850.394v850.394h-850.394z"/><path d="m440.771 562.67h-16.44v49.316h16.44" stroke="#231f20" stroke-width="7.1599"/><path d="m424.331 587.446h16.44" stroke="#231f20" stroke-width="7.1599"/><path d="m425.324 574.4h8.783" stroke="#231f20" stroke-width="7.1599"/><path d="m425.324 599.403h8.783" stroke="#231f20" stroke-width="7.1599"/><path d="m371.056 596.223h113.734"/></g><path d="m274.56 488.28v85.23h-14.03v-4.16-47.03l-30.66-13.51v-7.8h29.62v-5.95-6.78z" fill="#fff"/><path d="m126.25 317.2c.29 2.68 1.81 5.2 4.31 6.67l35.45 20.79-2.84 4.34 6.3 4.13 19.48-29.75-6.3-4.13-4.96 7.57-.26-.17-36.09-21.16c-2.1-1.23-4.51-1.5-6.7-.93l-1.13-.29c-.53 2.05-1.61 4.6-3.13 7.21-1.32 2.29-2.77 4.27-4.13 5.72zm26.67 178.1c1.15 3.12 24.54 5.61 53.22 5.61 29.42 0 53.27-2.62 53.27-5.851h.08v5.95h-29.62v7.8l30.66 13.511v47.029h-38.71v-.71-11.89c0-1.65-6.69-2.99-14.95-2.99-8.25 0-14.94 1.34-14.94 2.99v11.95.649h-12.47l-29.62 20.271v16.63l.27 1.1-.27.07v12.09 10.91h179.03v-10.91-40.149l-6.95-6.95h-1.1v-128.04l-95.11-35.09h1.82v-32.61-8.44l.58-18.55-38-22.25-14.29 24.17 6.5 2.6v14.03 8.44 32.61h2.08v17.67l90.16 38.979v22.351h-15.07l-4.7-.07c3.02-.729 4.7-1.54 4.7-2.4 0-3.229-23.85-5.85-53.26-5.85-29.42 0-53.27 2.62-53.27 5.85v9.48zm280.18-54.05h-32.29v.08 42.09l-39.74 108.95s-.7 2.26-1.18 5.61c-1.07 7.369-1.11 20.069 9.6 25.72 16.83 8.88 38.34 7.939 47.22 7.939 0 0 30.89.92 47.72-7.97 10.69-5.64 10.67-18.3 9.61-25.68-.49-3.37-1.19-5.641-1.19-5.641l-39.75-108.948v-42.08zm319.81-265.98v530.85h-82.91v-.12-276h-162v274 2.12h-420.08v-530.85zm-528.5 346.11c0-.89-1.35-1.71-3.65-2.38l.34-11.56h1.98v-5.07h-33.71v5.07h1.05v1.05l.24 10.51c-2.3.67-3.66 1.49-3.66 2.38 0 2.2 8.37 3.99 18.7 3.99 10.34 0 18.71-1.79 18.71-3.99zm-8.09-76.28.07-1.75-4.76-.189-41.24-17.74-1.11 2.6 34.46 14.83-2.73-.109-.07 1.75 7.29.29 2.99 1.29-7.02-.28-.73 18.31 8.38.33.71-17.79.39.17.78-1.81zm-7.33 24.78.16-3.899-2.92-.11-.16 3.89zm-11.96-21.68.72-1.601-14.03-6.319-.72 1.6zm-11.38 16.25 7.53-16.7-7.65-3.44-7.52 16.7zm-7.16-22.6 7.73-5.35-10.53-4.09 2.22 7.62-8.79-10.42-1.34 1.13 9.93 11.77.74-.63zm2.48 26.58 1.6-3.55-2.66-1.2-1.6 3.551zm-6.54-28-5.41-6.399-14 11.81 5.41 6.41zm-16.97 10.88-1.88-2.239-2.98 2.51 1.88 2.24z" fill="#fff"/><path d="m670 706v.12h-162v-2.12-274h162zm-36-166v-70l-94 2v68zm-71.89 50c0-7.38-5.42-13.39-12.11-13.39s-12.11 6.01-12.11 13.39c0 7.39 5.42 13.39 12.11 13.39s12.11-6 12.11-13.39z" fill="#33a02c"/><path d="m634 470v70h-94v-68z" fill="#231f20"/><path d="m550 576.61c6.69 0 12.11 6.01 12.11 13.39 0 7.39-5.42 13.39-12.11 13.39s-12.11-6-12.11-13.39c0-7.38 5.42-13.39 12.11-13.39z" fill="#231f20"/><path d="m474.04 597.99c1.06 7.38 1.08 20.04-9.61 25.68-16.83 8.89-47.72 7.97-47.72 7.97-8.88 0-30.39.94-47.22-7.939-10.71-5.65-10.67-18.351-9.6-25.72l.11.019h114z" fill="#f0037f"/><path d="m474.04 597.99-.04.01h-114l-.11-.02c.48-3.351 1.18-5.61 1.18-5.61l39.74-108.95v-42.09-.08h32.29v.07 42.08l39.75 108.949c0 .001.7 2.271 1.19 5.641z" fill="#fff"/><path d="m328.87 619.51v10.91h-179.03v-10.91h1.56 175.65z" fill="#787878"/><path d="m328.87 579.36v40.15h-1.82-175.65-1.56v-12.09l.27-.07 138.61-33.84h32.1v-1.1h1.1z" fill="#c8c8c8"/><path d="m320.82 572.41v1.1h-32.1-14.16v-85.23-22.35l-90.16-38.98v-17.67h41.31l95.11 35.09zm-6.47-32.13c0-9.11-7.38-16.5-16.5-16.5-9.11 0-16.49 7.39-16.49 16.5 0 9.12 7.38 16.5 16.49 16.5 9.12 0 16.5-7.38 16.5-16.5z" fill="#c8c8c8"/><path d="m297.85 523.78c9.12 0 16.5 7.39 16.5 16.5 0 9.12-7.38 16.5-16.5 16.5-9.11 0-16.49-7.38-16.49-16.5 0-9.11 7.38-16.5 16.49-16.5zm6.7 16.5c0-3.7-3-6.69-6.69-6.69-3.7 0-6.69 2.99-6.69 6.69s2.99 6.689 6.69 6.689c3.69.001 6.69-2.989 6.69-6.689z" fill="#787878"/><path d="m297.86 533.59c3.69 0 6.69 2.99 6.69 6.69s-3 6.689-6.69 6.689c-3.7 0-6.69-2.989-6.69-6.689s2.99-6.69 6.69-6.69z" fill="#787878"/><path d="m288.72 573.51-138.61 33.84-.27-1.1v-16.63l29.62-20.27h12.47 29.89 38.71v4.16h14.03z" fill="#c8c8c8"/><path d="m259.49 488.28v6.779h-.08c0 3.23-23.85 5.851-53.27 5.851-28.68 0-52.07-2.49-53.22-5.61l.04-.01v-9.48c0 3.23 23.85 5.841 53.27 5.841 21.6 0 40.2-1.41 48.56-3.44z" fill="#787878"/><path d="m259.49 485.81c0 .86-1.68 1.671-4.7 2.4-8.36 2.03-26.96 3.44-48.56 3.44-29.42 0-53.27-2.61-53.27-5.841 0-3.229 23.85-5.85 53.27-5.85 29.41.001 53.26 2.621 53.26 5.851z" fill="#fff"/><path d="m228.11 349.68-.58 18.55v8.44h-1.17-42.48-1.56v-8.44-14.03l-6.5-2.6 14.29-24.17z" fill="#787878"/><path d="m227.53 376.67v32.61h-1.82-41.31-2.08v-32.61h1.56 42.48z" fill="#787878"/><path d="m220.76 519c2.3.67 3.65 1.49 3.65 2.38 0 2.2-8.37 3.99-18.71 3.99-10.33 0-18.7-1.79-18.7-3.99 0-.89 1.36-1.71 3.66-2.38l-.24-10.51v-1.05h30.68z" fill="#787878"/><path d="m221.82 568.64v.71h-29.89v-.65-11.95c0 1.65 6.69 2.99 14.94 2.99 8.26 0 14.95-1.34 14.95-2.99z" fill="#787878"/><path d="m206.87 553.76c8.26 0 14.95 1.34 14.95 2.99s-6.69 2.99-14.95 2.99c-8.25 0-14.94-1.34-14.94-2.99s6.69-2.99 14.94-2.99z" fill="#787878"/><path d="m186.22 436.5-7.73 5.35.56-.47-1.14-1.35-2.22-7.62z" fill="#cb97c4"/><path d="m177.91 440.03 1.14 1.35-.56.47-.04.03z" fill="#cb97c4"/><path d="m177.69 326.82-11.68 17.84-35.45-20.79c-2.5-1.47-4.02-3.99-4.31-6.67 1.36-1.45 2.81-3.43 4.13-5.72 1.52-2.61 2.6-5.16 3.13-7.21l1.13.29c2.19-.57 4.6-.3 6.7.93l36.09 21.16z" fill="#787878"/><path d="m670 706v-276h-162v274" fill="none" stroke="#231f20" stroke-width="21"/><path d="m508 706.12h-420.08v-530.85h664.99v530.85h-82.91z" fill="none" stroke="#231f20" stroke-width="28"/><path d="m134.64 304.56c2.19-.57 4.6-.3 6.7.93l36.09 21.16" fill="none" stroke="#231f20" stroke-width="10.3865"/><path d="m166.65 345.03-.64-.37-35.45-20.79c-2.5-1.47-4.02-3.99-4.31-6.67 0-.01 0-.01 0-.02" fill="none" stroke="#231f20" stroke-width="10.3865"/><path d="m133.21 299.91c.83.48.89 2.12.3 4.36-.53 2.05-1.61 4.6-3.13 7.21-1.32 2.29-2.77 4.27-4.13 5.72-1.87 2.02-3.56 3.03-4.49 2.5" fill="none" stroke="#231f20" stroke-linecap="round" stroke-linejoin="round" stroke-width="10.3865"/><path d="m182.32 376.67v-8.44-14.03l-6.5-2.6 14.29-24.17 38 22.25-.58 18.55v8.44 32.61h-1.82-41.31-2.08z" fill="none" stroke="#231f20" stroke-width="10.3865"/><path d="m177.69 326.82 4.96-7.57 6.3 4.13-19.48 29.75-6.3-4.13 2.84-4.34z" fill="none" stroke="#231f20" stroke-width="10.3865"/><path d="m184.4 409.28v17.67l90.16 38.98v22.35 85.23h14.16 32.1v-1.1-128.04l-95.11-35.09" fill="none" stroke="#231f20" stroke-width="10.3865"/><path d="m274.56 488.28h-15.07v6.78 5.95h-29.62v7.8l30.66 13.51v47.03 4.16h14.03" fill="none" stroke="#231f20" stroke-width="10.3865"/><path d="m321.92 572.41 6.95 6.95v40.15 10.91h-179.03v-10.91-12.09l.27-.07 138.61-33.84" fill="none" stroke="#231f20" stroke-width="10.3865"/><path d="m149.84 606.25v-16.63l29.62-20.27h12.47 29.89 38.71" fill="none" stroke="#231f20" stroke-width="10.3865"/><path d="m213.73 445-.78 1.81-.39-.17-1.34-.57-2.99-1.29-4.49-1.93-34.46-14.83 1.11-2.6 41.24 17.74 2.44 1.05z" fill="none" stroke="#231f20" stroke-width="10.3865"/><path d="m160.43 452.25-5.41-6.41 14-11.81 5.41 6.4z" fill="none" stroke="#231f20" stroke-width="10.3865"/><path d="m154.48 453.82-1.88-2.24 2.98-2.51 1.88 2.24z" fill="none" stroke="#231f20" stroke-width="10.3865"/><path d="m178.45 441.88-.74.63-9.93-11.77 1.34-1.13 8.79 10.42" fill="none" stroke="#231f20" stroke-width="10.3865"/><path d="m185.65 464.45-7.64-3.44 7.52-16.7 7.65 3.44z" fill="none" stroke="#231f20" stroke-width="10.3865"/><path d="m178.981 464.107h2.918v3.895h-2.918z" fill="none" stroke="#231f20" stroke-width="10.3865" transform="matrix(.9116 .411 -.411 .9116 207.4804 -32.9789)"/><path d="m182.681 443.363h15.388v1.754h-15.388z" fill="none" stroke="#231f20" stroke-width="10.3865" transform="matrix(.9118 .4107 -.4107 .9118 199.2663 -38.9916)"/><path d="m212.56 446.64-.71 17.79-8.38-.33.73-18.31 7.02.28 1.36.05z" fill="none" stroke="#231f20" stroke-width="10.3865"/><path d="m208.99 469.88-2.92-.12.16-3.89 2.92.11z" fill="none" stroke="#231f20" stroke-width="10.3865"/><path d="m211.63 443.16 4.76.19-.07 1.75-2.59-.1-5.5-.22-7.29-.29.07-1.75 2.73.11z" fill="none" stroke="#231f20" stroke-width="10.4565"/><path d="m177.91 440.03-2.22-7.62 10.53 4.09-7.73 5.35-.04.03z" fill="none" stroke="#231f20" stroke-width="10.3865"/><path d="m152.96 485.81c0-3.229 23.85-5.85 53.27-5.85 29.41 0 53.26 2.62 53.26 5.85 0 .86-1.68 1.671-4.7 2.4-8.36 2.03-26.96 3.44-48.56 3.44-29.42 0-53.27-2.61-53.27-5.84z" fill="none" stroke="#231f20" stroke-width="6.9243"/><path d="m259.41 495.06c0 3.23-23.85 5.851-53.27 5.851-28.68 0-52.07-2.49-53.22-5.61-.04-.08-.05-.16-.05-.24" fill="none" stroke="#231f20" stroke-width="10.3865"/><path d="m152.96 485.81v9.48" fill="none" stroke="#231f20" stroke-width="10.4565"/><path d="m190.42 507.44h-1.05v-5.07h33.71v5.07h-1.98z" fill="none" stroke="#231f20" stroke-width="10.3865"/><path d="m221.1 507.44-.34 11.56c2.3.67 3.65 1.49 3.65 2.38 0 2.2-8.37 3.99-18.71 3.99-10.33 0-18.7-1.79-18.7-3.99 0-.89 1.36-1.71 3.66-2.38l-.24-10.51" fill="none" stroke="#231f20" stroke-width="10.3865"/><path d="m221.82 556.75c0 1.65-6.69 2.99-14.95 2.99-8.25 0-14.94-1.34-14.94-2.99s6.69-2.99 14.94-2.99c8.26 0 14.95 1.34 14.95 2.99z" fill="none" stroke="#231f20" stroke-width="10.3865"/><path d="m191.93 556.75v11.95" fill="none" stroke="#231f20" stroke-width="10.3865"/><path d="m221.82 556.17v.58 11.89" fill="none" stroke="#231f20" stroke-width="10.3865"/><path d="m151.4 619.51h175.65" fill="none" stroke="#231f20" stroke-width="10.3865"/><path d="m314.35 540.28c0 9.12-7.38 16.5-16.5 16.5-9.11 0-16.49-7.38-16.49-16.5 0-9.11 7.38-16.5 16.49-16.5 9.12 0 16.5 7.39 16.5 16.5z" fill="none" stroke="#231f20" stroke-width="10.3865"/><path d="m304.55 540.28c0 3.7-3 6.689-6.69 6.689-3.7 0-6.69-2.989-6.69-6.689s2.99-6.69 6.69-6.69c3.69 0 6.69 2.99 6.69 6.69z" fill="none" stroke="#231f20" stroke-width="6.9243"/><path d="m183.88 376.67h42.48" fill="none" stroke="#231f20" stroke-width="10.3865"/><path d="m433.1 441.32v42.08l39.75 108.949s.7 2.271 1.19 5.641c1.06 7.38 1.08 20.04-9.61 25.68-16.83 8.89-47.72 7.97-47.72 7.97-8.88 0-30.39.94-47.22-7.939-10.71-5.65-10.67-18.351-9.6-25.72.48-3.351 1.18-5.61 1.18-5.61l39.74-108.95v-42.09" fill="none" stroke="#231f20" stroke-width="10.3865"/><path d="m389.75 441.25h11.06 32.29 14.65" fill="none" stroke="#231f20" stroke-width="10.7398"/><path d="m0 0h850.394v850.394h-850.394z" fill="none"/><path d="m430.789 558.294h-19.357v58.068h19.357" fill="none" stroke="#231f20" stroke-width="8.4305"/><path d="m411.432 587.468h19.357" fill="none" stroke="#231f20" stroke-width="8.4305"/><path d="m412.601 572.106h10.342" fill="none" stroke="#231f20" stroke-width="8.4305"/><path d="m412.601 601.547h10.342" fill="none" stroke="#231f20" stroke-width="8.4305"/></svg>