<svg enable-background="new 0 0 850.394 850.394" height="850.394" viewBox="0 0 850.394 850.394" width="850.394" xmlns="http://www.w3.org/2000/svg"><path d="m137.24 523.75c14.88 0 26.95 14.63 26.95 32.67 0 18.05-12.07 32.69-26.95 32.69s-26.94-14.641-26.94-32.69c0-18.04 12.06-32.67 26.94-32.67z" fill="#ffeec8"/><path d="m313.73 523.75c14.88 0 26.95 14.63 26.95 32.67 0 18.05-12.07 32.69-26.95 32.69s-26.94-14.641-26.94-32.69c0-18.04 12.06-32.67 26.94-32.67z" fill="#ffeec8"/><path d="m119.55 593.03c-11.36 3.38-19.43 11.939-19.43 21.979v42.181h-10.03l-2.76 4.6s0 0 0-27.46c0-39.5 30.65-41.23 32.22-41.3z" fill="#0b00ea"/><path d="m119.55 593.03c3.35-1 6.99-1.55 10.79-1.55h15.07c3.66 0 7.16.51 10.41 1.439 11.56 3.3 19.8 11.94 19.8 22.09v42.181h-75.5v-42.18c0-10.04 8.07-18.6 19.43-21.98z" fill="#0b00ea"/><path d="m188.39 633.24v25.43l-.86-1.479h-11.91v-42.181c0-10.149-8.24-18.79-19.8-22.09l.3-.979c0-.001 32.27.769 32.27 41.299z" fill="#0b00ea"/><path d="m296.05 593.03c-11.36 3.37-19.43 11.939-19.43 21.979v42.181h-10.04l-2.75 4.59c0-.141 0-2.021 0-27.45 0-39.58 30.77-41.24 32.22-41.3z" fill="#0b00ea"/><path d="m364.88 633.24v25.43l-.86-1.479h-11.91v-42.181c0-10.149-8.24-18.79-19.8-22.09l.3-.979c0-.001 32.27.769 32.27 41.299z" fill="#0b00ea"/><path d="m296.05 593.03c3.35-1 6.98-1.55 10.78-1.55h15.08c3.66 0 7.16.51 10.4 1.439 11.56 3.3 19.8 11.94 19.8 22.09v42.181h-75.49v-42.18c0-10.04 8.07-18.61 19.43-21.98z" fill="#0b00ea"/><path d="m188.39 658.67 19.07 32.87h-13.03-107.47-17.46l17.83-29.75 2.76-4.6h10.03 75.5 11.91z" fill="#9c5b16"/><path d="m194.43 691.81v79.94h-107.47v-79.94-.27h107.47z" fill="#9c5b16"/><path d="m364.88 658.67 19.07 32.87h-13.03-107.47-17.46l17.84-29.75s0 0 0-.01l2.75-4.59h10.04 75.49 11.91z" fill="#9c5b16"/><path d="m370.92 691.81v79.94h-107.47v-79.94-.27h107.47z" fill="#9c5b16"/><path d="m488.21 307.05c0 4.1-30.31 7.43-67.67 7.43-37.38 0-67.68-3.33-67.68-7.43 0-4.09 30.3-7.42 67.68-7.42 37.36 0 67.67 3.33 67.67 7.42z" fill="#fff"/><path d="m439 349.22c2.92.85 4.64 1.88 4.64 3.02 0 2.8-10.64 5.07-23.77 5.07-13.12 0-23.76-2.27-23.76-5.07 0-1.14 1.73-2.18 4.66-3.02l-.31-13.35v-1.33h38.97z" fill="#787878"/><path d="m525.33 418.46-176.09 43-.34-1.41v-21.12l37.64-25.75h102.98v5.28h17.83z" fill="#c8c8c8"/><path d="m567.51 417.06 8.83 8.83v64.86h-227.44v-29.21l.34-.08 176.09-43h40.78v-1.4z" fill="#c8c8c8"/><path d="m566.11 417.06v1.4h-40.78-17.98v-108.27-28.39l-114.54-49.51v-22.45h52.48l120.82 44.57zm-8.22-40.81c0-11.58-9.38-20.96-20.96-20.96-11.569 0-20.96 9.38-20.96 20.96s9.391 20.96 20.96 20.96c11.58 0 20.96-9.38 20.96-20.96z" fill="#c8c8c8"/><path d="m536.93 355.29c11.58 0 20.96 9.38 20.96 20.96s-9.38 20.96-20.96 20.96c-11.569 0-20.96-9.38-20.96-20.96s9.39-20.96 20.96-20.96z" fill="#787878"/><path d="m448.33 134.13-.73 23.56v52.15h-2.31-52.48-2.64v-52.15-17.83l-8.25-3.3 18.15-30.7z" fill="#787878"/><path d="m384.29 105.08-14.84 22.67-45.03-26.41c-3.18-1.86-5.11-5.06-5.48-8.47 1.72-1.85 3.57-4.36 5.25-7.27 1.93-3.32 3.3-6.57 3.98-9.18l1.43.39c2.78-.72 5.84-.39 8.51 1.18l45.84 26.87z" fill="#787878"/><path d="m701.6 428h68.591l5.54 15.18s9.069 29.311-10.671 39.721c-21.35 11.27-60.5 10.1-60.5 10.1-11.26 0-38.54 1.18-59.89-10.08-19.74-10.411-10.67-39.721-10.67-39.721l5.6-15.351.4.151z" fill="#f0037f"/><path d="m395.12 244.42-9.86 6.83.75-.64-1.43-1.7-2.83-9.69z" fill="#cb97c4"/><path d="m386.01 250.61-.75.64-.68-2.34z" fill="#cb97c4"/><g fill="none"><path d="m329.6 76.81c2.78-.72 5.84-.39 8.51 1.18l45.84 26.87" stroke="#231f20" stroke-width="14"/><path d="m370.26 128.22-.81-.47-45.03-26.41c-3.18-1.86-5.11-5.06-5.48-8.47 0-.01 0-.02 0-.03" stroke="#231f20" stroke-width="14"/><path d="m327.79 70.9c1.06.61 1.13 2.69.38 5.52-.68 2.61-2.05 5.86-3.98 9.18-1.68 2.91-3.53 5.42-5.25 7.27-2.38 2.56-4.53 3.85-5.71 3.17" stroke="#231f20" stroke-linecap="round" stroke-linejoin="round" stroke-width="14"/><path d="m392.81 209.84h-2.64v-52.15-17.83l-8.25-3.3 18.15-30.7 48.26 28.27-.73 23.56v52.15h-2.31z" stroke="#231f20" stroke-width="14"/><path d="m384.29 105.08 6.29-9.61 8.01 5.24-24.74 37.79-8.01-5.23 3.61-5.52z" stroke="#231f20" stroke-width="14"/><path d="m392.81 209.84v22.45l114.54 49.51v28.39 108.27h17.98 40.78v-1.4-162.65l-120.82-44.57" stroke="#231f20" stroke-width="14"/><path d="m507.35 310.19h-19.14v16.18h-37.63v9.9l38.94 17.16v59.75 5.28h17.83" stroke="#231f20" stroke-width="14"/><path d="m567.51 417.06 8.83 8.83v64.86h-227.44v-29.21l.34-.08 176.09-43" stroke="#231f20" stroke-width="14"/><path d="m348.9 460.05v-21.12l37.64-25.75h102.98" stroke="#231f20" stroke-width="14"/><path d="m430.07 255.22-.99 2.29-.5-.21-1.68-.73-3.81-1.64-5.7-2.45-43.79-18.84 1.42-3.3 52.4 22.54 3.09 1.33z" stroke="#231f20" stroke-width="14"/><path d="m362.489 241.211h10.651v23.268h-10.651z" stroke="#231f20" stroke-width="14" transform="matrix(.6449 .7642 -.7642 .6449 323.8248 -191.3208)"/><path d="m354.81 266.42-2.4-2.85 3.79-3.19 2.39 2.84z" stroke="#231f20" stroke-width="14"/><path d="m385.26 251.25-.95.8-12.62-14.95 1.71-1.44 11.18 13.25" stroke="#231f20" stroke-width="14.0912"/><path d="m394.4 279.92-9.71-4.38 9.56-21.21 9.71 4.37z" stroke="#231f20" stroke-width="14"/><path d="m388.45 284.98-3.38-1.52 2.03-4.52 3.39 1.53z" stroke="#231f20" stroke-width="14"/><path d="m408.86 259.28-17.83-8.03.91-2.03 17.84 8.03z" stroke="#231f20" stroke-width="14.0912"/><path d="m428.58 257.3-.9 22.6-10.64-.42.93-23.27 8.93.36 1.71.07z" stroke="#231f20" stroke-width="14"/><path d="m420.438 281.793h3.713v4.944h-3.713z" stroke="#231f20" stroke-width="14" transform="matrix(.9992 .0404 -.0404 .9992 11.8208 -16.8173)"/><path d="m427.42 252.88 6.03.24-.09 2.23-3.29-.13-6.98-.29-9.26-.37.08-2.22 3.48.14z" stroke="#231f20" stroke-width="14.0912"/><path d="m384.58 248.91-2.83-9.69 13.37 5.2-9.86 6.83z" stroke="#231f20" stroke-width="14"/><path d="m488.21 307.05c0 4.1-30.31 7.43-67.67 7.43-37.38 0-67.68-3.33-67.68-7.43 0-4.09 30.3-7.42 67.68-7.42 37.36 0 67.67 3.33 67.67 7.42z" stroke="#231f20" stroke-width="14"/><path d="m400.46 334.54h-1.34v-6.44h42.83v6.44h-2.52z" stroke="#231f20" stroke-width="14"/><path d="m439.43 334.54-.43 14.68c2.92.85 4.64 1.88 4.64 3.02 0 2.8-10.64 5.07-23.77 5.07-13.12 0-23.76-2.27-23.76-5.07 0-1.14 1.73-2.18 4.66-3.02l-.31-13.35" stroke="#231f20" stroke-width="14"/><path d="m557.89 376.25c0 11.58-9.38 20.96-20.96 20.96-11.569 0-20.96-9.38-20.96-20.96s9.391-20.96 20.96-20.96c11.58 0 20.96 9.38 20.96 20.96z" stroke="#231f20" stroke-width="14"/><path d="m672.54 251.7h11.86 40.93 11.25" stroke="#231f20" stroke-width="14"/><path d="m725.33 251.67v.03 53.33l44.86 122.97 5.54 15.18s9.069 29.311-10.671 39.721c-21.35 11.27-60.5 10.1-60.5 10.1-11.26 0-38.54 1.18-59.89-10.08-19.739-10.411-10.669-39.721-10.669-39.721l5.6-15.351 44.8-122.789v-53.36" stroke="#231f20" stroke-width="14"/><path d="m721.76 394.58h-20.16v30.39 3.03 27.06h20.16" stroke="#231f20" stroke-width="14"/><path d="m701.6 424.97h20.16" stroke="#231f20" stroke-width="14"/><path d="m702.81 408.97h10.77" stroke="#231f20" stroke-width="14"/><path d="m702.81 439.62h10.77" stroke="#231f20" stroke-width="14"/><path d="m164.19 556.42c0 18.05-12.07 32.69-26.95 32.69s-26.94-14.641-26.94-32.69c0-18.04 12.06-32.67 26.94-32.67s26.95 14.63 26.95 32.67z" stroke="#231f20" stroke-width="21"/><path d="m175.62 657.19v-42.18c0-10.149-8.24-18.79-19.8-22.09-3.25-.93-6.75-1.439-10.41-1.439h-15.07c-3.8 0-7.44.55-10.79 1.55-11.36 3.38-19.43 11.939-19.43 21.979v42.181" stroke="#231f20" stroke-width="21"/><path d="m175.62 657.19h11.91l.86 1.48 19.07 32.87h-13.03-107.47-17.46l17.83-29.75 2.76-4.6h10.03z" stroke="#231f20" stroke-width="21"/><path d="m86.96 691.81v79.94h107.47v-79.94" stroke="#231f20" stroke-width="21"/><path d="m119.61 593.03s-.02 0-.06 0c-1.57.069-32.22 1.8-32.22 41.3v27.46" stroke="#231f20" stroke-width="14"/><path d="m156.12 591.94s32.27.77 32.27 41.3v25.43 2.03" stroke="#231f20" stroke-width="14"/><path d="m340.68 556.42c0 18.05-12.07 32.69-26.95 32.69s-26.94-14.641-26.94-32.69c0-18.04 12.06-32.67 26.94-32.67s26.95 14.63 26.95 32.67z" stroke="#231f20" stroke-width="21"/><path d="m352.11 657.19v-42.18c0-10.149-8.24-18.79-19.8-22.09-3.24-.93-6.74-1.439-10.4-1.439h-15.08c-3.8 0-7.43.55-10.78 1.55-11.36 3.37-19.43 11.939-19.43 21.979v42.181" stroke="#231f20" stroke-width="21"/><path d="m263.83 661.78 2.75-4.59h10.04 75.49 11.91l.86 1.48 19.07 32.87h-13.03-107.47-17.46l17.84-29.75" stroke="#231f20" stroke-width="21"/><path d="m263.45 691.81v79.94h107.47v-79.94" stroke="#231f20" stroke-width="21"/><path d="m296.1 593.03s-.02 0-.05 0c-1.45.06-32.22 1.72-32.22 41.3v27.45.01" stroke="#231f20" stroke-width="14"/><path d="m332.61 591.94s32.27.77 32.27 41.3v25.43 2.03" stroke="#231f20" stroke-width="14"/><path d="m0 0h850.394v850.394h-850.394z"/></g></svg>