<svg enable-background="new 0 0 850.394 850.394" height="850.394" viewBox="0 0 850.394 850.394" width="850.394" xmlns="http://www.w3.org/2000/svg"><g fill="#c8c8c8"><path d="m458.61 357.97v57.55l-68.99 20.37v-57.56z"/><path d="m458.61 357.96v.01l-68.99 20.36z"/><path d="m514.97 61.05-46.5 85.86v162.83h-9.86-68.99-8.57v-162.83l-47.99-85.7z"/><path d="m458.61 703.37v7.45l-33.37 80.03-30.54-68.61z"/><path d="m458.61 649.04v54.33l-63.91 18.87-5.08-11.42v-41.41z"/><path d="m458.61 590.79v58.25l-68.99 20.37v-58.25z"/><path d="m458.61 533.23v57.56l-68.99 20.37v-57.57z"/><path d="m458.61 473.77v59.46l-68.99 20.36v-59.45z"/><path d="m458.61 415.52v58.25l-68.99 20.37v-58.25z"/><path d="m458.61 309.74v48.22l-68.99 20.37v-68.59z"/></g><path d="m458.61 309.74h9.86v-162.83l46.5-85.86-181.91.16 47.99 85.7v162.83h8.57z" fill="none" stroke="#000" stroke-width="20.5681"/><path d="m389.62 309.74v68.59 57.56 58.25 59.45 57.57 58.25 41.41l5.08 11.42 30.54 68.61 33.37-80.03v-7.45-54.33-58.25-57.56-59.46-58.25-57.55-.01-48.22" fill="none" stroke="#000" stroke-width="20.5681"/><path d="m370.55 383.96 19.07-5.63 68.99-20.36 20.35-6.01" fill="none" stroke="#000" stroke-width="20.5681"/><path d="m369.72 441.76 19.9-5.87 68.99-20.37 19.51-5.76" fill="none" stroke="#000" stroke-width="20.5681"/><path d="m369.72 500.02 19.9-5.88 68.99-20.37 19.51-5.76" fill="none" stroke="#000" stroke-width="20.5681"/><path d="m369.78 559.45 19.84-5.86 68.99-20.36 19.59-5.78" fill="none" stroke="#000" stroke-width="20.5681"/><path d="m369.16 617.2 20.46-6.04 68.99-20.37 18.96-5.6" fill="none" stroke="#000" stroke-width="20.5681"/><path d="m369.16 675.45 20.46-6.04 68.99-20.37 18.96-5.6" fill="none" stroke="#000" stroke-width="20.5681"/><path d="m370.57 729.37 24.13-7.13 63.91-18.87 20.37-6.01" fill="none" stroke="#000" stroke-width="20.5681"/><path d="m0 0h850.394v850.394h-850.394z" fill="none"/></svg>