<svg enable-background="new 0 0 850.394 850.394" height="850.394" viewBox="0 0 850.394 850.394" width="850.394" xmlns="http://www.w3.org/2000/svg"><path d="m310.9 529.11c.67-1.061 1.24-2.091 1.73-3.101l2.05.2c6.56 12.13 6.68 31.73-6.98 45.39-13.65 13.65-110.76 80.41-110.76 80.41l2.56-39.59c23.21-14.599 103.94-71.489 111.4-83.309z" fill="#abda4d"/><path d="m199.5 612.42-2.56 39.59-118.35-51.58v-36.19l3.04-3.26z" fill="#abda4d"/><path d="m294 495.71c14.53 6.54 25.54 15.94 18.63 30.3-.49 1.01-1.06 2.04-1.73 3.101-7.46 11.819-88.19 68.71-111.4 83.31l-117.87-51.441c27.37-12.261 56.08-30.62 82.11-45.521 47.17-26.999 89.88-37.949 130.26-19.749z" fill="#abda4d"/><path d="m651.11 298.4c-79.341 55.04-336.43 227.81-336.43 227.81l-2.05-.2c6.91-14.359-4.1-23.76-18.63-30.3l4.6-3.01 49.13-31.181 276.27-175.369 16-10.15.05-.43c8.75 2.73 21.88 4.59 33.97 4.65l-.02 1.78c-1.2 1.2-9.53 7.13-22.89 16.4z" fill="#abda4d"/><path d="m771.08 258.71c0 12.06-12.82 16.37-30.35 26.02-9.73 5.35-59.061 17.01-89.62 13.67 13.36-9.27 21.69-15.2 22.89-16.4l.02-1.78c9.28.06 17.95-.94 23.551-3.41 17.979-7.9 70.13-55.01 70.13-55.01h3.38c-.001 25.68-.001 16.38-.001 36.91z" fill="#abda4d"/><path d="m699.38 215.32 68.32 6.48s-52.15 47.11-70.13 55.01c-5.601 2.47-14.271 3.47-23.551 3.41-12.09-.06-25.22-1.92-33.97-4.65-6.1-1.9-10.069-4.22-10.069-6.66 0-.07 0-.14.01-.21 1.07-9.13 69.39-53.38 69.39-53.38z" fill="#abda4d"/><g fill="none"><path d="m674 282c-1.2 1.2-9.53 7.13-22.89 16.4-79.341 55.04-336.43 227.81-336.43 227.81" stroke="#231f20" stroke-width="21"/><path d="m298.6 492.7 49.13-31.18 276.27-175.37 16-10.15" stroke="#231f20" stroke-width="21"/><path d="m623.39 285.19 1.89-17.01 8.03-72.45" stroke="#231f20" stroke-width="21"/><path d="m577.98 186.23 116.81 6.71" stroke="#231f20" stroke-width="21"/><path d="m272.3 317.2 65.26 12.48 72.31 13.82" stroke="#231f20" stroke-width="21"/><path d="m337.56 329.68 10.17 131.84.14 1.86" stroke="#231f20" stroke-width="21"/><path d="m497.88 497.25 4.71-92.01" stroke="#231f20" stroke-linecap="round" stroke-linejoin="round" stroke-width="21"/><path d="m546.42 373.84s50.08 1.52 58.67 10.12c8.601 8.6 16.58 18.91 15.17 56.65-1.8 48.5-5.05 84.96-5.05 84.96" stroke="#231f20" stroke-linecap="round" stroke-linejoin="round" stroke-width="21"/><path d="m81.63 560.98 117.87 51.44c23.21-14.6 103.94-71.49 111.4-83.31.67-1.061 1.24-2.091 1.73-3.101 6.91-14.359-4.1-23.76-18.63-30.3-40.38-18.2-83.09-7.25-130.26 19.75-26.03 14.901-54.74 33.261-82.11 45.521z" stroke="#231f20" stroke-linecap="round" stroke-linejoin="round" stroke-width="21"/><path d="m78.59 564.24v36.189l118.35 51.58s97.11-66.76 110.76-80.41c13.66-13.659 13.54-33.26 6.98-45.39" stroke="#231f20" stroke-linecap="round" stroke-linejoin="round" stroke-width="21"/><path d="m199.5 612.42-2.56 39.59" stroke="#231f20" stroke-width="21"/><path d="m629.99 268.7c1.069-9.13 69.39-53.38 69.39-53.38l68.32 6.48s-52.15 47.11-70.13 55.01c-5.601 2.47-14.271 3.47-23.551 3.41-12.09-.06-25.22-1.92-33.97-4.65-6.1-1.9-10.069-4.22-10.069-6.66 0-.07 0-.14.01-.21z" stroke="#231f20" stroke-linecap="round" stroke-linejoin="round" stroke-width="21"/><path d="m648 298c1.01.15 2.05.29 3.11.4 30.56 3.34 79.89-8.32 89.62-13.67 17.529-9.65 30.35-13.96 30.35-26.02 0-20.53 0-11.23 0-36.91 0-.4 0-.8 0-1.22" stroke="#231f20" stroke-linecap="round" stroke-linejoin="round" stroke-width="21"/><path d="m0 0h850.394v850.394h-850.394z"/></g></svg>