<svg enable-background="new 0 0 850.394 850.394" height="850.394" viewBox="0 0 850.394 850.394" width="850.394" xmlns="http://www.w3.org/2000/svg"><path d="m81.94 419.06c0-44.12 9.93-79.89 22.18-79.89 3.57 0 7.21-1.8 10.27 2.1h84.83c-10.15 7.32-17.8 39.61-17.8 78.34 0 38.4 7.52 70.48 17.55 78.14l-82.97-.02v.27c-2.06 2.27-9.61.95-11.88.95-12.25 0-22.18-35.76-22.18-79.89z" fill="#fbed24"/><path d="m550.82 421.39 2.33 13.23-10.29 8.63-12.62-4.6-2.33-13.22 10.29-8.64z" fill="#0071bc"/><path d="m385.18 410.28 2.33 13.24-10.29 8.62-12.62-4.6-2.33-13.22 10.29-8.64z" fill="#0071bc"/><path d="m282.06 376.14 6.89 11.54-6.53 11.72-13.44.2-6.89-11.53 6.55-11.73z" fill="#0071bc"/><path d="m375.05 455.23 2.33 13.23-10.29 8.63-12.62-4.59-2.32-13.23 10.28-8.63z" fill="#ed107f"/><path d="m410.87 365.94 2.32 13.22-10.28 8.63-12.63-4.6-2.33-13.22 10.29-8.64z" fill="#ed107f"/><path d="m226.38 433.2 6.89 11.53-6.54 11.72-13.43.21-6.89-11.54 6.55-11.73z" fill="#cb82b7"/><path d="m329 420.09 6.89 11.54-6.54 11.72-13.44.2-6.88-11.53 6.55-11.73z" fill="#cb82b7"/><path d="m438.37 450.87 2.33 13.23-10.29 8.63-12.62-4.6-2.33-13.22 10.29-8.64z" fill="#cb82b7"/><path d="m581.39 362.44 2.33 13.23-10.29 8.62-12.62-4.59-2.33-13.22 10.29-8.64z" fill="#cb82b7"/><path d="m199.22 341.27h424.95c-10.15 7.32-17.8 39.61-17.8 78.34 0 38.581 7.59 70.77 17.689 78.26l-425.089-.12c-10.03-7.66-17.55-39.74-17.55-78.14 0-38.73 7.65-71.02 17.8-78.34zm384.5 34.4-2.33-13.23-12.62-4.6-10.289 8.64 2.329 13.22 12.62 4.59zm-13.54 93.99 9.84-2.29-7.22-5.46 1.561-8.91-8.75 5.03-8.87-3.23 1.8 8.57-7.04 6.93 9.87.26 4.52 7.5zm-17.03-35.04-2.33-13.23-12.62-4.6-10.29 8.64 2.33 13.22 12.62 4.6zm-48.11-49.89 9.84-2.29-7.229-5.45 1.56-8.92-8.75 5.03-8.87-3.23 1.8 8.57-7.029 6.93 9.87.26 4.52 7.51zm-15.64 71.83 9.84-2.29-7.23-5.46 1.561-8.909-8.75 5.029-8.87-3.229 1.8 8.569-7.03 6.931 9.87.26 4.51 7.5zm-40.4-43.67 9.84-2.29-7.22-5.46 1.56-8.91-8.75 5.03-8.87-3.23 1.801 8.57-7.04 6.93 9.87.26 4.52 7.5zm-8.3 51.21-2.33-13.229-12.62-4.601-10.29 8.641 2.33 13.22 12.62 4.601zm-27.51-84.94-2.32-13.22-12.63-4.61-10.29 8.64 2.33 13.22 12.63 4.6zm-25.68 44.36-2.33-13.24-12.62-4.6-10.29 8.64 2.33 13.22 12.62 4.6zm-10.13 44.94-2.33-13.229-12.62-4.591-10.28 8.63 2.32 13.23 12.62 4.59zm-38.21-80.78 9.84-2.29-7.22-5.47 1.56-8.91-8.76 5.02-8.87-3.21 1.81 8.56-7.04 6.92 9.87.28 4.52 7.5zm-3.28 43.95-6.89-11.54-13.42.2-6.55 11.729 6.88 11.53 13.44-.2zm-46.94-43.95-6.89-11.54-13.42.2-6.55 11.73 6.89 11.53 13.44-.2zm-13.31 79.2 7.46-5.8-8.22-3.021-2.11-9.649-5.49 8.21-8.75-.16 4.83 8.1-3.29 9.561 8.46-3.22 6.72 6.069zm-42.37-22.15-6.89-11.53-13.42.189-6.55 11.73 6.89 11.54 13.43-.21zm-7.64-59.24 7.46-5.79-8.22-3.03-2.12-9.65-5.48 8.22-8.75-.17 4.83 8.11-3.3 9.54 8.46-3.2 6.73 6.07z" fill="#fff"/><path d="m580.02 467.37-9.84 2.29-4.29 8.4-4.52-7.5-9.87-.26 7.04-6.93-1.8-8.57 8.87 3.23 8.75-5.03-1.56 8.91z" fill="#fbed24"/><path d="m499.24 454.27-9.84 2.29-4.3 8.4-4.51-7.5-9.87-.26 7.03-6.93-1.8-8.57 8.87 3.23 8.75-5.03-1.56 8.91z" fill="#fbed24"/><path d="m514.88 382.44-9.84 2.29-4.29 8.41-4.52-7.51-9.87-.26 7.03-6.93-1.8-8.57 8.87 3.23 8.75-5.03-1.56 8.92z" fill="#fbed24"/><path d="m458.84 410.6-9.84 2.29-4.29 8.4-4.52-7.5-9.87-.26 7.04-6.93-1.8-8.57 8.87 3.23 8.75-5.03-1.56 8.91z" fill="#fbed24"/><path d="m349.01 385.39-9.84 2.29-4.29 8.4-4.52-7.5-9.87-.28 7.04-6.92-1.81-8.56 8.87 3.21 8.76-5.02-1.56 8.91z" fill="#fbed24"/><path d="m283.1 461.08-7.46 5.8-.39 10.09-6.72-6.07-8.46 3.22 3.29-9.56-4.83-8.1 8.75.16 5.49-8.21 2.11 9.65z" fill="#fbed24"/><path d="m233.09 379.7-7.46 5.79-.39 10.1-6.73-6.07-8.46 3.2 3.3-9.54-4.83-8.11 8.75.17 5.48-8.22 2.12 9.65z" fill="#fbed24"/><path d="m766.73 419.33c0 44.13-9.931 79.89-22.19 79.89-1.38 0-2.73-.45-4.03-1.319-10.33-6.83-18.149-39.4-18.149-78.57 0-38.27 7.47-70.26 17.449-78.06 1.53-1.2 3.11-1.83 4.73-1.83 12.26-.001 22.19 35.769 22.19 79.889z" fill="#fbed24"/><path d="m740.51 497.9-116.45-.03c-10.1-7.49-17.689-39.68-17.689-78.26 0-38.73 7.649-71.02 17.8-78.34h115.64c-9.979 7.8-17.449 39.79-17.449 78.06-.002 39.17 7.818 71.74 18.148 78.57z" fill="#fbed24"/><g fill="none"><path d="m116 498c-2.06 2.27-9.61.95-11.88.95-12.25 0-22.18-35.76-22.18-79.89 0-44.12 9.93-79.89 22.18-79.89 3.57 0 7.21-1.8 10.27 2.1.56.71 1.1 1.6 1.61 2.73" stroke="#231f20" stroke-width="21"/><path d="m203.6 499.5c-1.59 0-3.14-.6-4.63-1.75-10.03-7.66-17.55-39.74-17.55-78.14 0-38.73 7.65-71.02 17.8-78.34 1.42-1.02 2.88-1.56 4.38-1.56" stroke="#231f20" stroke-width="14"/><path d="m628.55 499.5c-1.54 0-3.04-.56-4.49-1.63-10.1-7.49-17.689-39.68-17.689-78.26 0-38.73 7.649-71.02 17.8-78.34 1.41-1.02 2.88-1.56 4.38-1.56" stroke="#231f20" stroke-width="14"/><path d="m309.03 432.02 6.55-11.73 13.42-.2 6.89 11.54-6.54 11.72-13.44.2z" stroke="#231f20" stroke-width="7"/><path d="m262.09 388.07 6.55-11.73 13.42-.2 6.89 11.54-6.53 11.72-13.44.2z" stroke="#231f20" stroke-width="7"/><path d="m206.41 445.12 6.55-11.73 13.42-.19 6.89 11.53-6.54 11.72-13.43.21z" stroke="#231f20" stroke-width="7"/><path d="m275.25 476.97-6.72-6.07-8.46 3.22 3.29-9.56-4.83-8.1 8.75.16 5.49-8.21 2.11 9.65 8.22 3.02-7.46 5.8z" stroke="#231f20" stroke-width="7"/><path d="m225.24 395.59-6.73-6.07-8.46 3.2 3.3-9.54-4.83-8.11 8.75.17 5.48-8.22 2.12 9.65 8.22 3.03-7.46 5.79z" stroke="#231f20" stroke-width="7"/><path d="m425.75 446.27-10.29 8.64 2.33 13.22 12.62 4.6 10.29-8.63-2.33-13.23z" stroke="#231f20" stroke-width="7"/><path d="m568.77 357.84-10.29 8.64 2.33 13.22 12.62 4.59 10.29-8.62-2.33-13.23z" stroke="#231f20" stroke-width="7"/><path d="m362.43 450.64-10.28 8.63 2.32 13.23 12.62 4.59 10.29-8.63-2.33-13.23z" stroke="#231f20" stroke-width="7"/><path d="m538.2 416.79-10.29 8.64 2.33 13.22 12.62 4.6 10.29-8.63-2.33-13.23z" stroke="#231f20" stroke-width="7"/><path d="m372.56 405.68-10.29 8.64 2.33 13.22 12.62 4.6 10.29-8.62-2.33-13.24z" stroke="#231f20" stroke-width="7"/><path d="m398.24 361.33-10.29 8.64 2.33 13.22 12.63 4.6 10.28-8.63-2.32-13.22z" stroke="#231f20" stroke-width="7"/><path d="m458.84 410.6-7.22-5.46 1.56-8.91-8.75 5.03-8.87-3.23 1.8 8.57-7.04 6.93 9.87.26 4.52 7.5 4.29-8.4z" stroke="#231f20" stroke-width="7"/><path d="m514.88 382.44-7.23-5.45 1.56-8.92-8.75 5.03-8.87-3.23 1.8 8.57-7.03 6.93 9.87.26 4.52 7.51 4.29-8.41z" stroke="#231f20" stroke-width="7"/><path d="m499.24 454.27-7.23-5.46 1.56-8.91-8.75 5.03-8.87-3.23 1.8 8.57-7.03 6.93 9.87.26 4.51 7.5 4.3-8.4z" stroke="#231f20" stroke-width="7"/><path d="m580.02 467.37-7.22-5.46 1.56-8.91-8.75 5.03-8.87-3.23 1.8 8.57-7.04 6.93 9.87.26 4.52 7.5 4.29-8.4z" stroke="#231f20" stroke-width="7"/><path d="m349.01 385.39-7.22-5.47 1.56-8.91-8.76 5.02-8.87-3.21 1.81 8.56-7.04 6.92 9.87.28 4.52 7.5 4.29-8.4z" stroke="#231f20" stroke-width="7"/><path d="m108.53 341.27h5.86 84.83 424.95 115.64 3.62" stroke="#231f20" stroke-width="21"/><path d="m104.94 341.27h3.59" stroke="#231f20" stroke-width="19.6507"/><path d="m743.43 497.9h-2.92l-116.45-.03-425.09-.12-82.97-.02h-5.4" stroke="#231f20" stroke-width="21"/><path d="m739.81 341.27c1.53-1.2 3.11-1.83 4.73-1.83 12.26 0 22.19 35.77 22.19 79.89 0 44.13-9.931 79.89-22.19 79.89-1.38 0-2.73-.45-4.03-1.319-10.33-6.83-18.149-39.4-18.149-78.57-.001-38.271 7.469-70.261 17.449-78.061z" stroke="#231f20" stroke-width="21"/><path d="m0 0h850.394v850.394h-850.394z"/></g></svg>