<svg enable-background="new 0 0 850.394 850.394" height="850.394" viewBox="0 0 850.394 850.394" width="850.394" xmlns="http://www.w3.org/2000/svg"><path d="m0 0h850.394v850.394h-850.394z" fill="none"/><path d="m0 0h850.394v850.394h-850.394z" fill="none"/><path d="m687.251 105.974c46.631 0 84.478 37.321 84.478 83.384 0 23.032-9.472 44.202-24.732 68.043l-138.192 178.912-140.903-179.964c-15.301-23.841-24.772-45.011-24.772-68.043 0-46.064 37.847-83.384 84.518-83.384 52.621 0 81.157 56.952 81.157 56.952 10.484-34.325 40.235-55.9 78.446-55.9z" fill="#eedceb"/><g stroke-width="21"><path d="m608.805 161.874c10.484-34.325 40.235-55.9 78.446-55.9 46.631 0 84.478 37.321 84.478 83.384 0 23.032-9.472 44.202-24.732 68.043l-138.192 178.912-140.903-179.964c-15.301-23.841-24.772-45.011-24.772-68.043 0-46.064 37.847-83.384 84.518-83.384 52.621 0 81.157 56.952 81.157 56.952z" fill="none" stroke="#50264b"/><path d="m88 111.991h286.009v286.009h-286.009z" fill="#efdcef" stroke="#50264c"/><path d="m246.866 765.276h465.134l-465.134-311.631z" fill="#efdcef" stroke="#50264c"/></g></svg>