<svg enable-background="new 0 0 850.394 850.394" height="850.394" viewBox="0 0 850.394 850.394" width="850.394" xmlns="http://www.w3.org/2000/svg"><path d="m292.71 646.55-37.35 45.76 17.48 55.42-56.16-19.9-49.14 33.66 2.64-58.04-47.85-34.63 57.8-15.97 19.56-55.07 33.09 48.19z" fill="#fbee34"/><path d="m733.55 425.44-11.69 11.03 2.76 15.57-14.45-7.35-14.45 7.35 2.76-15.57-11.69-11.03 16.16-2.27 7.22-14.17 7.23 14.17z" fill="#ffffc2"/><path d="m723.69 682.97-11.69 11.03 2.76 15.57-14.45-7.35-14.45 7.35 2.76-15.57-11.69-11.03 16.16-2.27 7.22-14.17 7.23 14.17z" fill="#ffffc2"/><path d="m587.55 583.44-11.69 11.03 2.76 15.57-14.45-7.35-14.45 7.35 2.76-15.57-11.69-11.03 16.16-2.27 7.22-14.17 7.23 14.17z" fill="#ffffc2"/><path d="m235.55 143.44-11.69 11.03 2.76 15.57-14.45-7.35-14.45 7.35 2.76-15.57-11.69-11.03 16.16-2.27 7.22-14.17 7.23 14.17z" fill="#ffffc2"/><path d="m133.55 375.44-11.69 11.03 2.76 15.57-14.45-7.35-14.45 7.35 2.76-15.57-11.69-11.03 16.16-2.27 7.22-14.17 7.23 14.17z" fill="#ffffc2"/><g fill="none"><path d="m247.04 585.89 290.02-445.04" stroke="#231f20" stroke-width="14"/><path d="m154.54 625.88 187.07-385.68" stroke="#231f20" stroke-width="21"/><path d="m285.48 709.46 5.67-5.52 508.6-495.08" stroke="#231f20" stroke-width="21"/><path d="m302.05 582.56 453.37-490.04" stroke="#231f20" stroke-width="14"/><path d="m235.55 143.44-16.15-2.27-7.23-14.17-7.22 14.17-16.16 2.27 11.69 11.03-2.76 15.57 14.45-7.35 14.45 7.35-2.76-15.57z" stroke="#000" stroke-linecap="round" stroke-linejoin="round" stroke-width="7"/><path d="m733.55 425.44-16.15-2.27-7.23-14.17-7.22 14.17-16.16 2.27 11.69 11.03-2.76 15.57 14.45-7.35 14.45 7.35-2.76-15.57z" stroke="#000" stroke-linecap="round" stroke-linejoin="round" stroke-width="7"/><path d="m133.55 375.44-16.15-2.27-7.23-14.17-7.22 14.17-16.16 2.27 11.69 11.03-2.76 15.57 14.45-7.35 14.45 7.35-2.76-15.57z" stroke="#000" stroke-linecap="round" stroke-linejoin="round" stroke-width="7"/><path d="m587.55 583.44-16.15-2.27-7.23-14.17-7.22 14.17-16.16 2.27 11.69 11.03-2.76 15.57 14.45-7.35 14.45 7.35-2.76-15.57z" stroke="#000" stroke-linecap="round" stroke-linejoin="round" stroke-width="7"/><path d="m723.69 682.97-16.15-2.27-7.23-14.17-7.22 14.17-16.16 2.27 11.69 11.03-2.76 15.57 14.45-7.35 14.45 7.35-2.76-15.57z" stroke="#000" stroke-linecap="round" stroke-linejoin="round" stroke-width="7"/><path d="m216.68 727.83 56.16 19.9-17.48-55.42 37.35-45.76-59.93-.58-33.09-48.19-19.56 55.07-57.8 15.97 47.85 34.63-2.64 58.04z" stroke="#231f20" stroke-linecap="round" stroke-linejoin="round" stroke-width="14"/><path d="m0 0h850.394v850.394h-850.394z"/></g></svg>