<svg enable-background="new 0 0 850.394 850.394" height="850.394" viewBox="0 0 850.394 850.394" width="850.394" xmlns="http://www.w3.org/2000/svg"><path d="m285.63 81.3h35.82v64.64h-35.82z" fill="#33a02c"/><path d="m537.85 83.68h35.801v62.26h-35.801z" fill="#33a02c"/><path d="m643.11 81.3v64.64h-69.46v-62.26-2.38z" fill="#33a02c"/><path d="m643.11 145.94s20.069 109.9 38.909 204.7l-151.47-204.7h7.3 35.801z" fill="#33a02c"/><path d="m452.33 145.94v187.07c-14.811 31.49-53.71 24.08-53.71 24.08v-211.15z" fill="#33a02c"/><path d="m537.85 83.68v62.26h-7.3-78.22-53.71-77.17v-64.64h252.2v2.38zm-100.95 29.94c0-6.82-5.53-12.35-12.351-12.35-6.82 0-12.35 5.53-12.35 12.35s5.53 12.35 12.35 12.35c6.821 0 12.351-5.53 12.351-12.35z" fill="#33a02c"/><path d="m321.45 145.94-151.7 205.02c18.37-94.87 36.24-205.02 36.24-205.02h79.64z" fill="#33a02c"/><path d="m205.99 81.3h79.64v64.64h-79.64z" fill="#33a02c"/><path d="m741.58 708.85c5.62 29.101-267.95 53.721-267.95 53.721l-45.68-390.66-4.02.16-45.68 390.65s-273.56-24.609-267.95-53.71c13.58-70.43 32.72-225.97 53.09-325.99 2.11-10.35 4.24-21.1 6.36-32.06l151.7-205.02h77.17v211.15s38.899 7.41 53.71-24.08v-187.071h78.22l151.47 204.7c2.181 11.01 4.351 21.81 6.471 32.22 20.369 100.02 39.509 255.56 53.089 325.99z" fill="#33a02c"/><circle cx="424.55" cy="113.62" fill="#787878" r="12.35"/><g fill="none"><path d="m321.45 81.3h252.2 69.46v64.64h-69.46" stroke="#000" stroke-width="22.2264"/><path d="m285.63 145.94h-79.64v-64.64h79.64" stroke="#000" stroke-width="22.2264"/><path d="m537.85 145.94h-7.3-78.22-53.71-77.17" stroke="#000" stroke-width="22.2264"/><path d="m285.63 81.3h35.82v64.64h-35.82z" stroke="#000" stroke-width="22.2264"/><path d="m537.85 83.68h35.801v62.26h-35.801z" stroke="#000" stroke-width="22.2264"/><circle cx="424.55" cy="113.62" r="12.35" stroke="#000" stroke-width="7.4088"/><path d="m398.62 85.74v60.2 211.15s38.899 7.41 53.71-24.08v-187.07-60.2" stroke="#000" stroke-width="22.2264"/><path d="m321.45 145.94-151.7 205.02-.01.01" stroke="#000" stroke-width="22.2264"/><path d="m643.11 145.94s20.069 109.9 38.909 204.7c2.181 11.01 4.351 21.81 6.471 32.22 20.37 100.02 39.51 255.56 53.09 325.99 5.62 29.101-267.95 53.721-267.95 53.721l-45.68-390.66-4.02.16-45.68 390.65s-273.56-24.609-267.95-53.71c13.58-70.43 32.72-225.97 53.09-325.99 2.11-10.35 4.24-21.1 6.36-32.06 18.37-94.87 36.24-205.02 36.24-205.02" stroke="#000" stroke-width="22.2264"/><path d="m530.43 145.78.12.16 151.47 204.7.12.17" stroke="#000" stroke-width="22.2264"/><path d="m0 0h850.394v850.394h-850.394z"/></g></svg>