<svg enable-background="new 0 0 850.394 850.394" height="850.394" viewBox="0 0 850.394 850.394" width="850.394" xmlns="http://www.w3.org/2000/svg"><path d="m754.97 192.61v200.7c0 6.21-5.029 11.25-11.239 11.25h-53.731-40-450.27-39.46-54.69c-6.21 0-11.25-5.04-11.25-11.25v-200.7c0-6.2 5.04-11.24 11.25-11.24h638.15c6.21 0 11.24 5.04 11.24 11.24zm-28.9 175.9v-151.1c0-5.49-4.45-9.94-9.94-9.94h-582.96c-5.49 0-9.94 4.45-9.94 9.94v151.1c0 5.49 4.45 9.95 9.94 9.95h582.96c5.49 0 9.94-4.46 9.94-9.95z" fill="#0b00ea"/><path d="m726.07 217.41v151.1c0 5.49-4.45 9.95-9.94 9.95h-582.96c-5.49 0-9.94-4.46-9.94-9.95v-151.1c0-5.49 4.45-9.94 9.94-9.94h582.96c5.49 0 9.94 4.45 9.94 9.94z" fill="#fff"/><path d="m690 406 .78 267.96h-39.46l-1.32-267.96v-1.44h40z" fill="#fff"/><path d="m160.27 404.56h39.46v253.44h-39.46z" fill="#fff"/><g fill="none"><path d="m160.27 404.56h-54.69c-6.21 0-11.25-5.04-11.25-11.25v-200.7c0-6.2 5.04-11.24 11.25-11.24h638.15c6.21 0 11.239 5.04 11.239 11.24v200.7c0 6.21-5.029 11.25-11.239 11.25h-53.73-40-450.27z" stroke="#231f20" stroke-width="28"/><path d="m726.07 368.51c0 5.49-4.45 9.95-9.94 9.95h-582.96c-5.49 0-9.94-4.46-9.94-9.95v-151.1c0-5.49 4.45-9.94 9.94-9.94h582.96c5.49 0 9.94 4.45 9.94 9.94z" stroke="#231f20" stroke-width="7"/><path d="m160.27 404.56v253.44 4.99" stroke="#231f20" stroke-width="28"/><path d="m199.73 404.56v253.44 4.99" stroke="#231f20" stroke-width="28"/><path d="m650 406 1.32 267.96" stroke="#231f20" stroke-width="28"/><path d="m690 406 .78 267.96" stroke="#231f20" stroke-width="28"/><path d="m0 0h850.394v850.394h-850.394z"/><path d="m580 252 76 44" stroke="#000" stroke-linecap="round" stroke-linejoin="round" stroke-width="14"/><path d="m580 336 72-40" stroke="#000" stroke-linecap="round" stroke-linejoin="round" stroke-width="14"/><path d="m514 294h136" stroke="#000" stroke-linecap="round" stroke-linejoin="round" stroke-width="14"/></g></svg>