<svg enable-background="new 0 0 850.394 850.394" height="850.394" viewBox="0 0 850.394 850.394" width="850.394" xmlns="http://www.w3.org/2000/svg"><path d="m514.11 332.72 251.64 59.41-9.75 2.35-314.77 75.87-241.38-85 314.05-51.74z" fill="#eedceb"/><path d="m441.23 470.35 314.77-75.87-.82 101.1-3-.02-310.95 82.79z" fill="#cc82b7"/><path d="m386 298 .31 4.54-299.56 42.99v-103.18l299.49-39.93z" fill="#cc82b7"/><path d="m386.31 302.54 127.8 30.18-.21.89-314.05 51.74-113.1-39.82z" fill="#eedceb"/><path d="m199.85 385.35 241.38 85v108l-2.73.72-.17-.65-351.58-136.36v-96.53z" fill="#cc82b7"/><g fill="none"><path d="m86.75 204.08v38.27 103.18 96.53 99.85" stroke="#231f20" stroke-linecap="round" stroke-linejoin="round" stroke-width="28"/><path d="m386.31 172.46-.07 29.96-.24 95.58" stroke="#231f20" stroke-linecap="round" stroke-linejoin="round" stroke-width="28"/><path d="m86.75 242.35 299.49-39.93.07-.01" stroke="#231f20" stroke-width="21"/><path d="m86.75 345.53 299.56-42.99 127.8 30.18 251.64 59.41-9.75 2.35-314.77 75.87-241.38-85z" stroke="#231f20" stroke-width="21"/><path d="m199.09 385.48.76-.13 314.05-51.74" stroke="#231f20" stroke-width="21"/><path d="m752.18 495.56-310.95 82.79-2.73.72-4.38 1.17" stroke="#231f20" stroke-width="21"/><path d="m438.33 578.42-351.58-136.36" stroke="#231f20" stroke-width="21"/><path d="m441.23 470.35v108 96.69" stroke="#231f20" stroke-width="28"/><path d="m756 394v.48l-.82 101.1-.77 96.21" stroke="#231f20" stroke-width="28"/><path d="m0 0h850.394v850.394h-850.394z"/></g></svg>