<svg enable-background="new 0 0 850.394 850.394" height="850.394" viewBox="0 0 850.394 850.394" width="850.394" xmlns="http://www.w3.org/2000/svg"><path d="m458.67 132.43-.05.05-.66-.66-21.07 16.9c-13.729-15.35-17.02-30.96-5.92-40.93 5.42-4.86 6.13-2.78 10.21.92 6.09 5.51 11.88 17.66 17.49 23.72z" fill="#ffeec8"/><path d="m766.3 188.62c5.48.57 4.15-.42 4.13 6.86-.02 14.6-15.319 18.11-35.27 18.25 2.39-.15 3.77-.24 3.77-.24v-25.57c8.26.15 19.2-.16 27.37.7z" fill="#ffeec8"/><path d="m735.12 213.73c-12.93.83-55.061 3.47-67.55 3.47-14.83 0-37.761 17.01-37.761 17.01l-7.63 76.55s-91.71 6.48-91.71 0c0-.37.021-.8.061-1.3.64-8.23 6.21-33.42 2.72-56.13-3.71-24.09-39.84-43.54-39.84-43.54l-56.521-61.07 21.07-16.9.66.66 34.79 34.69h70.62c3.34 16.56 14.45 28.72 27.64 28.72 9.78 0 18.41-6.69 23.57-16.91h.01l1.65.87s59.01 5.29 74.77 5.29c15.73 0 28.271 2.78 47.26 2.78v25.57s-1.38.09-3.77.24c-.009.01-.029.01-.039 0z" fill="#a3d9ff"/><path d="m591.93 384.56h-.01c-6.9 12.14-27.28 40.27-49.41 87.62 0 0-3.71 10.891 7.41 22l13.43 13.44-3.63 8.47v.01c-23.279-10.01-48.359-20.989-67.42-29.38 8.021-17.62 25.74-51.13 31.71-64.57 8.51-19.15 16.83-29.33 14.79-45.68-1.66-13.42-9.02-33.84-11.34-47.15-1.4-8.06-.04-14.17 3.07-19.86-.04.5-.061.93-.061 1.3 0 6.48 91.71 0 91.71 0 .82 16.83 9.65 47.64 12.971 65.77 4.3 23.53 5.449 35.68-3.87 66.451-4.061 13.42-10.971 27.81-9.101 41.81l20.271 18.49-.82 5.729-61.14-14.83 3.71-12.97c.319-.97.64-1.95.92-2.95 4.68-16.2 12.899-49.8 12.229-66.63-.279-6.86-2.219-16.16-5.419-27.07z" fill="#787878"/><path d="m367.84 520 37.38-2.42v-.01l39.06 1.6 4.56.19 188.73 195.83-101.98 20.78-5.66-6.479-177.14-202.691-1.01.021c-.18-1.12-.27-1.74-.27-1.74l-.26-4z" fill="#f6cc4b"/><path d="m529.93 729.49-.29.25-95.85-27.92-.01.02c-43.49-27.29-65.61-97.16-70.84-116.74-4.81-17.989-9.95-50.449-11.16-58.279l1.01-.021z" fill="#c8c8c8"/><path d="m441.3 418.6 3.17 96.02-.19 4.55-39.06-1.6-14.87-.61-2.24-109.34 42.4-3.6z" fill="#c8c8c8"/><path d="m390.35 516.96 14.87.61v.01l-37.38 2.42-3.22-112.38h23.49z" fill="#c8c8c8"/><path d="m390.35 516.96 14.87.61v.01l-37.38 2.42-3.22-112.38h23.49z" fill="#c8c8c8"/><path d="m364.62 407.62 3.22 112.38-16.59 1.08-4.49.29-.09-1.35-3.21-112.4z" fill="#c8c8c8"/><path d="m323.39 412.74 3.13 109.94-21.12 1.37-3.18-111.31v-5.12h21.17z" fill="#c8c8c8"/><path d="m281.71 413.61 3.18 111.77-21.09 1.37-.05-.76-3.2-112.38v-5.99h21.16z" fill="#c8c8c8"/><path d="m302.22 412.74 3.18 111.31-20.51 1.33-3.18-111.77v-5.99h20.51z" fill="#c8c8c8"/><path d="m346.67 520.02.09 1.35-20.24 1.31-3.13-109.94v-5.12h20.07z" fill="#c8c8c8"/><path d="m222.52 525.05.28 4.36-25.31 1.64-.33-5.06-3.2-112.38v-5.99h25.35v5.06z" fill="#c8c8c8"/><path d="m243.68 525.05.19 2.99-21.07 1.37-.28-4.36-3.21-112.37v-5.06h21.16v5.06z" fill="#c8c8c8"/><path d="m263.75 525.99.05.76-19.93 1.29-.19-2.99-3.21-112.37v-5.06h20.08v5.99z" fill="#c8c8c8"/><path d="m197.16 525.99.33 5.06-79.79 5.17-6.34-128.6h82.6v5.99z" fill="#c8c8c8"/><path d="m197.16 525.99.33 5.06-79.79 5.17-6.34-128.6h82.6v5.99z" fill="#c8c8c8"/><path d="m111.36 407.62 6.34 128.6-26.65 2.59-3.23.14-.16-3.57-4.68-113.62z" fill="#c8c8c8"/><path d="m173.57 743.74-1.26.18-78.09-59.93-6.4-145.04 3.23-.141 26.65-2.59 9.53 72.03c8.01 61.071 40.11 123.771 46.34 135.491z" fill="#c8c8c8"/><path d="m305.4 524.05 21.12-1.37 20.24-1.31 4.49-.29.26 4s.09.62.27 1.74c1.21 7.83 6.35 40.29 11.16 58.279 5.23 19.58 27.35 89.45 70.84 116.74 2.189 1.37 4.43 2.641 6.72 3.78l-266.93 38.12c-6.23-11.721-38.33-74.42-46.34-135.49l-9.53-72.03 79.79-5.17 25.31-1.64 21.07-1.37 19.93-1.29 21.09-1.37zm74.14 165.64c0-1.41-.99-2.561-2.21-2.561-1.24 0-2.24 1.15-2.24 2.561 0 1.439 1 2.569 2.24 2.569 1.22.001 2.21-1.129 2.21-2.569zm-17.92-27.44c0-1.43-1-2.56-2.22-2.56-1.24 0-2.23 1.13-2.23 2.56 0 1.42.99 2.57 2.23 2.57 1.22 0 2.22-1.15 2.22-2.57zm-17.31-36.86c0-1.42-.99-2.569-2.21-2.569s-2.22 1.149-2.22 2.569c0 1.431 1 2.58 2.22 2.58s2.21-1.15 2.21-2.58zm-12.53-38.35c0-1.43-1-2.58-2.22-2.58s-2.22 1.15-2.22 2.58c0 1.4 1 2.55 2.22 2.55s2.22-1.15 2.22-2.55zm-6.35-36.46c0-1.41-1-2.561-2.22-2.561s-2.22 1.15-2.22 2.561c0 1.42 1 2.59 2.22 2.59s2.22-1.17 2.22-2.59zm-1.94 140.18c0-1.41-.99-2.56-2.23-2.56-1.22 0-2.22 1.149-2.22 2.56 0 1.42 1 2.57 2.22 2.57 1.24 0 2.23-1.15 2.23-2.57zm-17.94-27.44c0-1.41-1-2.57-2.22-2.57s-2.22 1.16-2.22 2.57c0 1.439 1 2.59 2.22 2.59s2.22-1.15 2.22-2.59zm-17.29-36.86c0-1.42-1-2.59-2.23-2.59-1.22 0-2.22 1.17-2.22 2.59 0 1.43 1 2.56 2.22 2.56 1.23 0 2.23-1.13 2.23-2.56zm-12.54-38.37c0-1.41-.99-2.56-2.22-2.56s-2.22 1.149-2.22 2.56c0 1.42.99 2.58 2.22 2.58s2.22-1.16 2.22-2.58zm-4.25 104.98c0-1.4-.99-2.57-2.23-2.57-1.22 0-2.21 1.17-2.21 2.57 0 1.43.99 2.58 2.21 2.58 1.24 0 2.23-1.15 2.23-2.58zm-2.09-141.4c0-1.43-1-2.58-2.23-2.58-1.22 0-2.22 1.15-2.22 2.58 0 1.4 1 2.57 2.22 2.57 1.23 0 2.23-1.17 2.23-2.57zm-15.85 113.97c0-1.409-.99-2.56-2.21-2.56-1.23 0-2.23 1.15-2.23 2.56 0 1.42 1 2.591 2.23 2.591 1.22-.001 2.21-1.171 2.21-2.591zm-17.29-36.86c0-1.42-1-2.59-2.22-2.59-1.23 0-2.22 1.17-2.22 2.59 0 1.43.99 2.56 2.22 2.56 1.22 0 2.22-1.13 2.22-2.56zm-12.53-38.37c0-1.42-1-2.57-2.23-2.57-1.22 0-2.22 1.15-2.22 2.57 0 1.43 1 2.59 2.22 2.59 1.23 0 2.23-1.16 2.23-2.59zm-6.36-36.42c0-1.431-1-2.58-2.22-2.58s-2.21 1.149-2.21 2.58c0 1.399.99 2.569 2.21 2.569 1.22.001 2.22-1.169 2.22-2.569zm-2.71 145.98c0-1.39-1-2.56-2.22-2.56s-2.21 1.17-2.21 2.56c0 1.42.99 2.57 2.21 2.57s2.22-1.15 2.22-2.57zm-17.93-27.42c0-1.43-.99-2.58-2.23-2.58-1.22 0-2.21 1.15-2.21 2.58 0 1.41.99 2.57 2.21 2.57 1.24 0 2.23-1.16 2.23-2.57zm-17.3-36.88c0-1.41-.99-2.56-2.22-2.56-1.22 0-2.22 1.149-2.22 2.56s1 2.58 2.22 2.58c1.23 0 2.22-1.17 2.22-2.58zm-12.53-38.36c0-1.42-1-2.569-2.22-2.569-1.23 0-2.22 1.149-2.22 2.569 0 1.431.99 2.561 2.22 2.561 1.22-.001 2.22-1.131 2.22-2.561zm-6.35-36.43c0-1.43-1-2.56-2.22-2.56-1.23 0-2.22 1.13-2.22 2.56 0 1.41.99 2.57 2.22 2.57 1.22 0 2.22-1.16 2.22-2.57z" fill="#c8c8c8"/><path d="m564.03 167.17c-.67-3.31-1.03-6.81-1.03-10.42 0-21.62 12.84-39.14 28.67-39.14 15.82 0 28.66 17.52 28.66 39.14 0 8.26-1.87 15.92-5.08 22.23h-.01c-5.16 10.22-13.79 16.91-23.57 16.91-13.19 0-24.3-12.16-27.64-28.72z" fill="#ffeec8"/><path d="m377.33 687.13c1.22 0 2.21 1.15 2.21 2.561 0 1.439-.99 2.569-2.21 2.569-1.24 0-2.24-1.13-2.24-2.569 0-1.411 1-2.561 2.24-2.561z" fill="#231f20"/><path d="m359.4 659.69c1.22 0 2.22 1.13 2.22 2.56 0 1.42-1 2.57-2.22 2.57-1.24 0-2.23-1.15-2.23-2.57 0-1.43.99-2.56 2.23-2.56z" fill="#231f20"/><path d="m342.1 622.82c1.22 0 2.21 1.149 2.21 2.569 0 1.431-.99 2.58-2.21 2.58s-2.22-1.149-2.22-2.58c0-1.419 1-2.569 2.22-2.569z" fill="#231f20"/><path d="m329.56 584.46c1.22 0 2.22 1.15 2.22 2.58 0 1.4-1 2.55-2.22 2.55s-2.22-1.149-2.22-2.55c0-1.43 1-2.58 2.22-2.58z" fill="#231f20"/><path d="m323.21 548.02c1.22 0 2.22 1.15 2.22 2.561 0 1.42-1 2.59-2.22 2.59s-2.22-1.17-2.22-2.59c0-1.411 1-2.561 2.22-2.561z" fill="#231f20"/><path d="m321.26 688.2c1.24 0 2.23 1.149 2.23 2.56 0 1.42-.99 2.57-2.23 2.57-1.22 0-2.22-1.15-2.22-2.57 0-1.41 1-2.56 2.22-2.56z" fill="#231f20"/><path d="m303.33 660.75c1.22 0 2.22 1.16 2.22 2.57 0 1.439-1 2.59-2.22 2.59s-2.22-1.15-2.22-2.59c0-1.41 1-2.57 2.22-2.57z" fill="#231f20"/><path d="m286.03 623.87c1.23 0 2.23 1.17 2.23 2.59 0 1.43-1 2.56-2.23 2.56-1.22 0-2.22-1.13-2.22-2.56 0-1.42 1-2.59 2.22-2.59z" fill="#231f20"/><path d="m273.5 585.53c1.23 0 2.22 1.149 2.22 2.56 0 1.42-.99 2.58-2.22 2.58s-2.22-1.16-2.22-2.58c0-1.41.99-2.56 2.22-2.56z" fill="#231f20"/><path d="m269.24 690.5c1.24 0 2.23 1.17 2.23 2.57 0 1.43-.99 2.58-2.23 2.58-1.22 0-2.21-1.15-2.21-2.58 0-1.4.99-2.57 2.21-2.57z" fill="#231f20"/><path d="m267.15 549.09c1.23 0 2.23 1.15 2.23 2.58 0 1.4-1 2.57-2.23 2.57-1.22 0-2.22-1.17-2.22-2.57 0-1.43 1-2.58 2.22-2.58z" fill="#231f20"/><path d="m251.32 663.08c1.22 0 2.21 1.15 2.21 2.56 0 1.42-.99 2.591-2.21 2.591-1.23 0-2.23-1.171-2.23-2.591 0-1.41 1-2.56 2.23-2.56z" fill="#231f20"/><path d="m234.02 626.19c1.22 0 2.22 1.17 2.22 2.59 0 1.43-1 2.56-2.22 2.56-1.23 0-2.22-1.13-2.22-2.56 0-1.42.99-2.59 2.22-2.59z" fill="#231f20"/><path d="m221.48 587.84c1.23 0 2.23 1.15 2.23 2.57 0 1.43-1 2.59-2.23 2.59-1.22 0-2.22-1.16-2.22-2.59 0-1.42 1-2.57 2.22-2.57z" fill="#231f20"/><path d="m215.13 551.41c1.22 0 2.22 1.149 2.22 2.58 0 1.399-1 2.569-2.22 2.569s-2.21-1.17-2.21-2.569c0-1.43.99-2.58 2.21-2.58z" fill="#231f20"/><path d="m212.42 697.41c1.22 0 2.22 1.17 2.22 2.56 0 1.42-1 2.57-2.22 2.57s-2.21-1.15-2.21-2.57c0-1.39.99-2.56 2.21-2.56z" fill="#231f20"/><path d="m194.48 669.97c1.24 0 2.23 1.15 2.23 2.58 0 1.41-.99 2.57-2.23 2.57-1.22 0-2.21-1.16-2.21-2.57 0-1.43.99-2.58 2.21-2.58z" fill="#231f20"/><path d="m177.19 633.11c1.23 0 2.22 1.149 2.22 2.56s-.99 2.58-2.22 2.58c-1.22 0-2.22-1.17-2.22-2.58s1-2.56 2.22-2.56z" fill="#231f20"/><path d="m164.66 594.74c1.22 0 2.22 1.149 2.22 2.569 0 1.431-1 2.561-2.22 2.561-1.23 0-2.22-1.13-2.22-2.561 0-1.419.99-2.569 2.22-2.569z" fill="#231f20"/><path d="m158.31 558.32c1.22 0 2.22 1.13 2.22 2.56 0 1.41-1 2.57-2.22 2.57-1.23 0-2.22-1.16-2.22-2.57 0-1.43.99-2.56 2.22-2.56z" fill="#231f20"/><g fill="none"><path d="m82.65 413.63.33 8.13 4.68 113.62.16 3.57 6.4 145.04 78.09 59.93s2.3 1.76 2.31 1.771l-.01-.011c-.05-.1-.42-.76-1.04-1.939-6.23-11.721-38.33-74.42-46.34-135.49l-9.53-72.03-26.65 2.59" stroke="#231f20" stroke-width="21"/><path d="m443.97 705.13-3.47.49-266.93 38.12-1.26.18-2.16.31" stroke="#231f20" stroke-width="21"/><path d="m352.79 526.8 177.14 202.69 5.66 6.48 101.98-20.78-188.73-195.83-4.56-.19-39.06-1.6-14.87-.61-5.97-.25" stroke="#231f20" stroke-width="21"/><path d="m351.51 525.08s.09.62.27 1.74c1.21 7.83 6.35 40.29 11.16 58.279 5.23 19.58 27.35 89.45 70.84 116.74 2.189 1.37 4.43 2.641 6.72 3.78" stroke="#231f20" stroke-width="21"/><path d="m433.79 701.82 95.85 27.92" stroke="#231f20" stroke-width="21"/><path d="m444.47 514.62-3.17-96.02-10.79-14.58-42.4 3.6 2.24 109.34" stroke="#231f20" stroke-width="21"/><path d="m388.11 407.62h-23.49-21.16-20.07-21.17-20.51-21.16-20.08-21.16-25.35-82.6l-28.38 14.14-.87.44" stroke="#231f20" stroke-width="21"/><path d="m111.36 407.62 6.34 128.6 79.79-5.17 25.31-1.64 21.07-1.37 19.93-1.29 21.09-1.37 20.51-1.33 21.12-1.37 20.24-1.31 4.49-.29 16.59-1.08 37.38-2.42" stroke="#231f20" stroke-width="21"/><path d="m364.62 407.62 3.22 112.38v.02" stroke="#231f20" stroke-width="14"/><path d="m343.46 407.62 3.21 112.4" stroke="#231f20" stroke-width="14"/><path d="m323.39 412.74 3.13 109.94.07 2.44" stroke="#231f20" stroke-width="14"/><path d="m302.22 412.74 3.18 111.31.03 1.07" stroke="#231f20" stroke-width="14"/><path d="m281.71 413.61 3.18 111.77.02.61" stroke="#231f20" stroke-width="14"/><path d="m260.55 413.61 3.2 112.38" stroke="#231f20" stroke-width="14"/><path d="m240.47 412.68 3.21 112.37" stroke="#231f20" stroke-width="14"/><path d="m219.31 412.68 3.21 112.37" stroke="#231f20" stroke-width="14"/><path d="m193.96 413.61 3.2 112.38" stroke="#231f20" stroke-width="14"/><path d="m171.13 415.01 3.2 112.38" stroke="#231f20" stroke-width="14"/><path d="m149.97 415.01 3.2 112.38" stroke="#231f20" stroke-width="14"/><path d="m564.03 167.17c-.67-3.31-1.03-6.81-1.03-10.42 0-21.62 12.84-39.14 28.67-39.14 15.82 0 28.66 17.52 28.66 39.14 0 8.26-1.87 15.92-5.08 22.23h-.01c-5.16 10.22-13.79 16.91-23.57 16.91-13.19 0-24.3-12.16-27.64-28.72z" stroke="#231f20" stroke-width="14"/><path d="m735.12 213.73c-12.93.83-55.061 3.47-67.55 3.47-14.83 0-37.761 17.01-37.761 17.01l-7.63 76.55s-91.71 6.48-91.71 0c0-.37.021-.8.061-1.3.64-8.23 6.21-33.42 2.72-56.13-3.71-24.09-39.84-43.54-39.84-43.54l-56.521-61.07 21.07-16.9.66.66 34.79 34.69h70.62.029" stroke="#231f20" stroke-width="14"/><path d="m616.9 179.85s59.01 5.29 74.77 5.29c15.73 0 28.271 2.78 47.26 2.78v25.57s-1.38.09-3.77.24" stroke="#231f20" stroke-width="14"/><path d="m577.94 345.26c5.75 14.22 10.579 27.67 13.989 39.3 3.2 10.91 5.141 20.21 5.42 27.07.67 16.83-7.55 50.43-12.229 66.63-.28 1-.601 1.98-.92 2.95l-3.71 12.97 61.14 14.83.82-5.729-20.271-18.49c-1.87-14 5.04-28.39 9.101-41.81 9.319-30.771 8.17-42.92 3.87-66.451-3.32-18.13-12.15-48.94-12.971-65.77" stroke="#231f20" stroke-width="14"/><path d="m591.92 384.56c-6.9 12.14-27.28 40.27-49.41 87.62 0 0-3.71 10.891 7.41 22l13.43 13.44-3.63 8.47" stroke="#231f20" stroke-width="14"/><path d="m535.11 302.61c-1.771 2.29-3.32 4.53-4.58 6.85-3.11 5.69-4.471 11.8-3.07 19.86 2.32 13.31 9.68 33.73 11.34 47.15 2.04 16.35-6.28 26.53-14.79 45.68-5.97 13.44-23.689 46.95-31.71 64.57-.899 1.98-1.67 3.75-2.3 5.28" stroke="#231f20" stroke-width="14"/><path d="m738.93 187.92c8.261.15 19.2-.16 27.37.7 5.48.57 4.15-.42 4.13 6.86-.02 14.6-15.319 18.11-35.27 18.25-.01.01-.03.01-.04 0-.42.01-.84.01-1.271.01" stroke="#231f20" stroke-width="14"/><path d="m458.67 132.43c-5.61-6.06-11.4-18.21-17.49-23.72-4.08-3.7-4.79-5.78-10.21-.92-11.1 9.97-7.81 25.58 5.92 40.93" stroke="#231f20" stroke-width="14"/><path d="m460.99 472.89s12.819 5.7 31.31 13.83c19.061 8.391 44.141 19.37 67.42 29.38 27 11.601 51.58 21.9 61.53 25.32 26.87 9.271 39.83 1.87 45.39-9.25" stroke="#231f20" stroke-width="21"/><path d="m508.23 505.76c0 7.42-5.801 13.44-12.971 13.44-7.16 0-12.97-6.021-12.97-13.44 0-7.41 5.81-13.42 12.97-13.42 7.171 0 12.971 6.01 12.971 13.42z" stroke="#231f20" stroke-width="21"/><path d="m620.33 555.79c0 7.41-5.811 13.43-12.98 13.43-7.149 0-12.96-6.02-12.96-13.43s5.811-13.43 12.96-13.43c7.17 0 12.98 6.02 12.98 13.43z" stroke="#231f20" stroke-width="21"/><path d="m0 0h850.394v850.394h-850.394z"/></g></svg>