<svg enable-background="new 0 0 850.394 850.394" height="850.394" viewBox="0 0 850.394 850.394" width="850.394" xmlns="http://www.w3.org/2000/svg"><path d="m277.32 721.38c-1.52-5.88-2.73-12.17-3.69-18.59-.96-30.09 20.56-60.04 49.95-55.83 31.56 4.5 47.74 52.97 64.05 77.22-.23 4.221-.54 8.44-.97 12.641-.64 6.25-1.15 13.609-4.34 19.199-12.91 22.601-61.87 23.131-91.47-6.46-6.12-6.11-10.46-16.3-13.53-28.18z" fill="#a3d9ff"/><path d="m529.04 646.92c29.39-4.2 50.9 25.73 49.96 55.8-.97 6.45-2.18 12.78-3.71 18.69 0 .01-.01.01-.01.02-3.07 11.84-7.41 22-13.511 28.101-29.59 29.6-78.55 29.06-91.46 6.46-3.189-5.59-3.71-12.95-4.34-19.21-.43-4.2-.739-8.41-.97-12.63 16.311-24.251 32.491-72.711 64.041-77.231z" fill="#a3d9ff"/><path d="m558.46 89.61c-23.25-9.47-60.87 6.46-76.63 19.36-13.63 11.15-30.34 11.07-55.91 11.07l.79.03c-25.58 0-42.28.08-55.91-11.08-15.43-12.61-51.15-28.42-74.45-20.22 35.91-13.47 130.09-11.74 130.09-11.74l-.26-.03s98.17-1.8 132.28 12.61z" fill="#a3d9ff"/><path d="m440.18 577.43c-2.72-2.05-7.699-4.16-13.62-4.939l-.489.029c-5.92.78-10.9 2.881-13.62 4.94-6.13 4.63-12.77 13.31-14.89 20.38-3.12 10.41-4.65 21.29-5.77 32.07-2.62 25.07-2.71 50.32-3.44 75.49-.18 6.25-.37 12.52-.72 18.779-16.31-24.25-32.49-72.72-64.05-77.22-29.39-4.21-50.91 25.74-49.95 55.83-4.93-33.07-3.22-69.44-3.22-69.44v-389.529l-153.88 52.72-30.131-63.48s151.04-103.79 201.23-139.89c2.22-1.6 5.12-3.04 8.56-4.34.05-.02.1-.04.16-.06 23.3-8.2 59.02 7.61 74.45 20.22 13.63 11.16 30.33 11.08 55.91 11.08l-.79-.03c25.57 0 42.28.08 55.91-11.07 15.76-12.9 53.38-28.83 76.63-19.36.38.16.76.32 1.13.49 2.09.94 3.9 1.96 5.41 3.04 50.18 36.11 201.23 139.89 201.23 139.89l-30.141 63.49-153.87-52.73v389.53s1.71 36.34-3.22 69.399c.94-30.069-20.57-60-49.96-55.8-31.55 4.521-47.73 52.98-64.04 77.23-.35-6.25-.54-12.53-.72-18.78-.73-25.17-.82-50.42-3.44-75.48-1.13-10.8-2.649-21.67-5.77-32.08-2.119-7.059-8.759-15.749-14.889-20.379z" fill="#a3d9ff"/><g fill="none"><path d="m277.35 721.46c-.01-.03-.02-.05-.03-.08-2.3-5.99-3.49-12.29-3.69-18.59-.96-30.09 20.56-60.04 49.95-55.83 31.56 4.5 47.74 52.97 64.05 77.22" stroke="#231f20" stroke-width="21"/><path d="m296.19 88.83c-3.44 1.3-6.34 2.74-8.56 4.34-50.19 36.1-201.23 139.89-201.23 139.89l30.13 63.48 153.88-52.72v389.53s-1.71 36.37 3.22 69.44c.96 6.42 2.17 12.71 3.69 18.59 3.07 11.88 7.41 22.07 13.53 28.18 29.6 29.591 78.56 29.061 91.47 6.46 3.19-5.59 3.7-12.949 4.34-19.199.43-4.2.74-8.42.97-12.641.35-6.26.54-12.529.72-18.779.73-25.17.82-50.42 3.44-75.49 1.12-10.78 2.65-21.66 5.77-32.07 2.12-7.07 8.76-15.75 14.89-20.38 2.72-2.06 7.7-4.16 13.62-4.94" stroke="#231f20" stroke-width="21"/><path d="m558.46 89.61c-34.11-14.41-132.28-12.61-132.28-12.61l.261.03s-94.181-1.73-130.09 11.74" stroke="#231f20" stroke-width="21"/><path d="m575.29 721.41c1.53-5.91 2.74-12.24 3.71-18.69 4.93-33.06 3.22-69.399 3.22-69.399v-389.531l153.87 52.73 30.141-63.49s-151.051-103.78-201.23-139.89c-1.51-1.08-3.32-2.1-5.41-3.04" stroke="#231f20" stroke-width="21"/><path d="m426.56 572.49c5.921.779 10.9 2.89 13.62 4.939 6.13 4.63 12.771 13.32 14.891 20.38 3.12 10.41 4.64 21.28 5.77 32.08 2.62 25.061 2.71 50.311 3.44 75.48.18 6.25.37 12.53.72 18.78.23 4.22.54 8.43.97 12.63.63 6.26 1.15 13.62 4.34 19.21 12.91 22.6 61.87 23.14 91.46-6.46 6.101-6.101 10.44-16.261 13.511-28.101" stroke="#231f20" stroke-width="21"/><path d="m575.28 721.43c0-.01.01-.01.01-.02 2.32-6.021 3.51-12.36 3.71-18.69.94-30.069-20.57-60-49.96-55.8-31.55 4.521-47.73 52.98-64.04 77.23" stroke="#231f20" stroke-width="21"/><path d="m559.59 90.1c-.37-.17-.75-.33-1.13-.49-23.25-9.47-60.87 6.46-76.63 19.36-13.63 11.15-30.34 11.07-55.91 11.07l.79.03c-25.58 0-42.28.08-55.91-11.08-15.43-12.61-51.15-28.42-74.45-20.22-.06.02-.11.04-.16.06-.85.3-1.67.63-2.48 1" stroke="#231f20" stroke-width="21"/><path d="m482.39 547.8c0 13.38-25.29 24.21-56.49 24.21s-56.49-10.83-56.49-24.21" stroke="#231f20" stroke-width="21"/><path d="m0 0h850.394v850.394h-850.394z"/></g></svg>