<svg enable-background="new 0 0 850.394 850.394" height="850.394" viewBox="0 0 850.394 850.394" width="850.394" xmlns="http://www.w3.org/2000/svg"><path d="m479.29 454.42c-20.14 57.05-35.71 100.41-44.88 125.8l-37.04-6.39-5.14-.07c11.49-25.59 31.49-71.74 53.73-130.45 28.33-74.77 36.04-135.31 36.04-135.31l.16-.05c2.55 8.4 6.8 16.25 14.91 18.13 4.199.97 11.09 2.06 19.319 3.3l-.389 2.62s-10.11 47.02-36.71 122.42z" fill="#0071bc"/><path d="m456.55 685.29-.08 2.19c-2.58-.11-5-.101-7.21.05-.88-39.87-5.399-80.38-19.96-83.16-1.069-.2-2.21-.42-3.41-.64 1.27-3.511 4.18-11.5 8.52-23.511 9.17-25.39 24.74-68.75 44.88-125.8 26.6-75.399 36.71-122.419 36.71-122.419l.39-2.62c25.95 3.89 65.13 9.17 74.551 16.32 18.859 14.3 38.3 40.68 61.909 130.93 16.141 61.73 37.811 174.59 47.131 221.79l-80.431 16.84c-13.88-45.72-43.89-169.66-60.83-219.279l-.29.1c-13.439 12.79-14.779 47.83-15.739 58.06-1.96 20.931-.03 105.061.54 141.841l-1.231.018-19.66 25.56c-3.17-7.329-8.39-14.25-15.28-19.989 16.66-22.21 2.141-36.45-6.949-30.54-20.641 13.419-36.681 14.559-43.561 14.259z" fill="#f6cc4b"/><path d="m381.96 596.25c18.08 2.95 33.41 5.54 43.93 7.48 1.2.22 2.34.439 3.41.64 14.561 2.78 19.08 43.29 19.96 83.16.87 39.97-1.91 79.3-1.91 79.3-133.3 29.15-268.68-4.33-284.64-29.16-16.64-25.89-11.74-108.4-4.14-175.83l1.43.16s36.55 5.45 83.29 12.58c10.06 1.53 20.6 3.15 31.35 4.8 36.85 5.66 76.16 11.79 107.32 16.87z" fill="#0071bc"/><path d="m392.23 573.76 5.14.07 37.04 6.39c-4.34 12.011-7.25 20-8.52 23.511-10.52-1.94-25.85-4.53-43.93-7.48l.04-.251s3.78-7.88 10.23-22.24z" fill="#f6cc4b"/><path d="m482 308s-7.71 60.54-36.04 135.31c-22.24 58.71-42.24 104.86-53.73 130.45-6.45 14.36-10.23 22.24-10.23 22.24l-.04.25c-31.16-5.08-70.47-11.21-107.32-16.87l3.36-3.38c-.12-9.29-3.79-17.45-4.2-21.86-.88-9.29-5.37-45.22-16.26-61.319-6.25 21.189-9.26 47.189-13.54 77.179l-.71 4.58c-46.74-7.13-83.29-12.58-83.29-12.58l-1.43-.16c3.81-33.84 8.3-63.88 11.08-81.04 17.53-108.07 42.19-127.7 55.89-135.1s76.42-15.59 93.87-19.62c17.46-4.05 29.35-42.45 29.35-42.45l1.43-1.83c17.03 14.52 38.15 23.12 61.05 23.12 22.02 0 42.41-7.95 59.08-21.47l4.08 1.52c3.909-4.64 3.77 9.86 7.76 22.98z" fill="#f6cc4b"/><path d="m513.3 188.52c0 39.18-16.97 73.83-42.979 94.93-16.67 13.52-37.061 21.47-59.08 21.47-22.9 0-44.02-8.6-61.05-23.12-24.88-21.23-40.99-55.11-40.99-93.28 0-64.29 45.69-116.41 102.04-116.41 56.369 0 102.059 52.12 102.059 116.41z" fill="#ffeec8"/><path d="m456.55 685.29c6.88.3 22.92-.84 43.561-14.26 9.09-5.91 23.609 8.33 6.949 30.54-9.05-7.54-33.22-13.41-50.59-14.09z" fill="#ffeec8"/><path d="m522.34 721.56c4.51 10.4 4.88 21.61-.01 31.391-8.33 16.66-47.21 16.66-74.98 13.88 0 0 2.78-39.33 1.91-79.3 2.21-.15 4.63-.16 7.21-.05 17.37.68 41.54 6.55 50.59 14.09 6.89 5.739 12.11 12.659 15.28 19.989z" fill="#ffeec8"/><g fill="none"><path d="m348.76 283.63s-11.89 38.4-29.35 42.45c-17.45 4.03-80.17 12.22-93.87 19.62s-38.36 27.03-55.89 135.1c-2.78 17.16-7.27 47.2-11.08 81.04-7.6 67.43-12.5 149.94 4.14 175.83 15.96 24.83 151.34 58.311 284.64 29.16 0 0 2.78-39.33 1.91-79.3-.88-39.87-5.399-80.38-19.96-83.16-1.069-.2-2.21-.42-3.41-.64-10.52-1.94-25.85-4.53-43.93-7.48-31.16-5.08-70.47-11.21-107.32-16.87-10.75-1.649-21.29-3.27-31.35-4.8-46.74-7.13-83.29-12.58-83.29-12.58" stroke="#231f20" stroke-width="21"/><path d="m264.07 475.25c-2.54 5.42-4.68 11.28-6.53 17.57-6.25 21.19-9.26 47.19-13.54 77.18" stroke="#231f20" stroke-width="21"/><path d="m257.42 492.63c.04.061.08.12.12.19 10.89 16.1 15.38 52.029 16.26 61.319.41 4.41 4.08 12.57 4.2 21.86" stroke="#231f20" stroke-width="21"/><path d="m472.06 289c.921-1.95 1.69-3.26 2.341-4.03 3.909-4.64 3.77 9.86 7.76 22.98 2.55 8.4 6.8 16.25 14.91 18.13 4.199.97 11.09 2.06 19.319 3.3 25.95 3.89 65.13 9.17 74.551 16.32 18.859 14.3 38.3 40.68 61.909 130.93 16.141 61.73 37.811 174.59 47.131 221.79.529 2.65 1.02 5.1 1.46 7.32" stroke="#231f20" stroke-width="21"/><path d="m552.88 480.8c1.69 3.601 3.66 8.771 5.84 15.181 16.94 49.619 46.95 173.56 60.83 219.279.38 1.25.75 2.44 1.101 3.57" stroke="#231f20" stroke-width="21"/><path d="m558.43 496.08c-13.439 12.79-14.779 47.83-15.739 58.06-1.96 20.931-.03 105.061.54 141.841.079 5.819.14 10.46.14 13.47" stroke="#231f20" stroke-width="21"/><path d="m350.19 281.8c-24.88-21.23-40.99-55.11-40.99-93.28 0-64.29 45.69-116.41 102.04-116.41 56.37 0 102.06 52.12 102.06 116.41 0 39.18-16.97 73.83-42.979 94.93-16.67 13.52-37.061 21.47-59.08 21.47-22.901 0-44.021-8.6-61.051-23.12z" stroke="#231f20" stroke-width="21"/><path d="m482 308s-7.71 60.54-36.04 135.31c-22.24 58.71-42.24 104.86-53.73 130.45-6.45 14.36-10.23 22.24-10.23 22.24" stroke="#231f20" stroke-width="21"/><path d="m516 332s-10.11 47.02-36.71 122.42c-20.14 57.05-35.71 100.41-44.88 125.8-4.34 12.011-7.25 20-8.52 23.511-.5 1.35-.75 2.039-.75 2.039" stroke="#231f20" stroke-width="21"/><path d="m397.37 573.83 37.04 6.39 3.22.55" stroke="#231f20" stroke-width="21"/><path d="m447.35 687.68c.61-.06 1.25-.109 1.91-.149 2.21-.15 4.63-.16 7.21-.05 17.37.68 41.54 6.55 50.59 14.09 6.891 5.739 12.11 12.66 15.28 19.989 4.51 10.4 4.88 21.61-.01 31.391-8.33 16.66-47.21 16.66-74.98 13.88" stroke="#231f20" stroke-width="21"/><path d="m452.9 684.91s1.279.27 3.649.38c6.88.3 22.92-.84 43.561-14.26 9.09-5.91 23.609 8.33 6.949 30.54" stroke="#231f20" stroke-width="21"/><path d="m0 0h850.394v850.394h-850.394z"/></g></svg>