<svg enable-background="new 0 0 850.394 850.394" height="850.394" viewBox="0 0 850.394 850.394" width="850.394" xmlns="http://www.w3.org/2000/svg"><path d="m679.5 186.23h73.22s-40.68 228.66-6.27 315.2c21.84 54.9 15.8 143.19-80.88 155.34-7.04.891-110.95-8.64-252.541 66.211-149.489 79.019-211.839 3.319-209.309-64.411 1.27-34.221 19.11-66.41 50.65-75.57 46.46-13.49 192.729-66.61 215.97-89.85 30.851-30.851 61.21-73.22 48.16-156.49-10.86-69.37-13.03-150.43-13.03-150.43h35.601 33.859 35.36 5.33 28.52z" fill="#0b00ea"/><path d="m555.59 90.54h73.22s-7.369 41.42-13.189 95.68v.01h-5.33-35.36-33.861-35.6s2.17 81.06 13.03 150.43c13.05 83.27-17.31 125.64-48.16 156.49-23.24 23.24-169.51 76.36-215.97 89.85-31.54 9.16-49.38 41.35-50.65 75.57-145.06 25.01-153.63-147.91-73.25-171.25 46.45-13.5 192.73-66.62 215.96-89.85 30.85-30.85 61.22-73.23 48.17-156.49-10.87-69.37-13.03-150.44-13.03-150.44h35.6 33.85 35.36 33.86z" fill="#0b00ea"/><g fill="none"><path d="m203.72 658.57c1.27-34.221 19.11-66.41 50.65-75.57 46.46-13.49 192.729-66.61 215.97-89.85 30.851-30.851 61.21-73.22 48.16-156.49-10.86-69.37-13.03-150.43-13.03-150.43h35.601 33.859 35.36 5.33 28.52 35.36 73.22s-40.68 228.66-6.27 315.2c21.84 54.9 15.8 143.19-80.88 155.34-7.04.891-110.95-8.64-252.541 66.211-149.489 79.019-211.839 3.319-209.309-64.411z" stroke="#000" stroke-width="18.8564"/><path d="m541.07 186.23v75.22" stroke="#000" stroke-width="18.8564"/><path d="m574.93 186.22v.01 75.22" stroke="#000" stroke-width="18.8564"/><path d="m610.29 186.22v.01 75.22" stroke="#000" stroke-width="18.8564"/><path d="m644.14 186.22v.01 75.22" stroke="#000" stroke-width="18.8564"/><path d="m679.5 186.22v.01 75.22" stroke="#000" stroke-width="18.8564"/><path d="m712.6 186.47v75.23" stroke="#000" stroke-width="18.8564"/><path d="m203.75 658.56c-.01 0-.02 0-.03.011-145.06 25.009-153.63-147.911-73.25-171.251 46.45-13.5 192.73-66.62 215.96-89.85 30.85-30.85 61.22-73.23 48.17-156.49-10.87-69.37-13.03-150.44-13.03-150.44h35.6 33.85 35.36 33.86 35.35 73.22s-7.369 41.42-13.189 95.68" stroke="#000" stroke-width="18.8564"/><path d="m417.17 90.54v75.23" stroke="#000" stroke-width="18.8564"/><path d="m451.02 90.54v75.22" stroke="#000" stroke-width="18.8564"/><path d="m486.38 90.54v75.22" stroke="#000" stroke-width="18.8564"/><path d="m520.24 90.54v75.22" stroke="#000" stroke-width="18.8564"/><path d="m555.59 90.54v75.22" stroke="#000" stroke-width="18.8564"/><path d="m588.69 90.78v75.23" stroke="#000" stroke-width="18.8564"/><path d="m0 0h850.394v850.394h-850.394z"/></g></svg>