<svg enable-background="new 0 0 850.394 850.394" height="850.394" viewBox="0 0 850.394 850.394" width="850.394" xmlns="http://www.w3.org/2000/svg"><path d="m84.429 510.331c-2.697-7.017-4.099-14.218-4.099-21.562 0-72.442 136.131-131.159 304.059-131.159 167.937 0 304.05 58.717 304.05 131.159 0 6.709-1.163 13.303-3.42 19.737-3.067 8.771-8.146 17.251-15.029 25.361l-3.306-2.213c-211.122-185.117-539.043-42.313-561.698 7.052l-.943.917c-9.062-9.264-15.709-19.075-19.614-29.292z" fill="#fff"/><path d="m384.803 781.995c-123.817-.538-248.594-19.297-300.374-271.664 3.905 10.217 10.552 20.028 19.613 29.293 46.042 47.179 154.22 80.306 280.346 80.306 131.204 0 242.979-35.843 285.601-86.062 6.884-8.11 11.962-16.591 15.029-25.361-52.768 274.678-190 273.752-300.215 273.515z" fill="#a9d7f3"/><path d="m666.684 531.655 3.306 2.213c-42.621 50.219-154.396 86.062-285.601 86.062-126.126 0-234.305-33.127-280.346-80.306l.943-.917c22.655-49.364 350.576-192.168 561.698-7.052z" fill="#f6cc4b"/><path d="m84.429 510.331c-2.697-7.017-4.099-14.218-4.099-21.562 0-72.442 136.131-131.159 304.059-131.159 167.937 0 304.05 58.717 304.05 131.159 0 6.709-1.163 13.303-3.42 19.737-3.067 8.771-8.146 17.251-15.029 25.361-42.621 50.219-154.396 86.062-285.601 86.062-126.126 0-234.305-33.127-280.346-80.306-9.062-9.264-15.709-19.075-19.614-29.292z" fill="none" stroke="#010101" stroke-width="18.5117"/><path d="m81.15 493.548c1.058 5.703 2.142 11.301 3.279 16.783 51.78 252.367 176.557 271.126 300.374 271.664 2.01.009 4.011.009 6.021.009" fill="none" stroke="#010101" stroke-width="18.5117"/><path d="m686.49 500.661c-.484 2.636-.97 5.254-1.472 7.846-52.768 274.678-190 273.752-300.215 273.515-2.997-.009-5.977-.018-8.938-.018" fill="none" stroke="#010101" stroke-width="18.5117"/><path d="m104.986 538.707c22.655-49.364 350.576-192.168 561.698-7.052" fill="none" stroke="#010101" stroke-width="12.3411"/><path d="m279.26 200.208c-47.275 40.003 62.041 75.554 0 141.042" fill="none" stroke="#010101" stroke-width="12.3411"/><path d="m379.752 172c-45.838 38.786 63.469 74.046 0 141.041" fill="none" stroke="#010101" stroke-width="12.3411"/><path d="m483.771 200.208c-45.839 38.787 63.468 74.047 0 141.042" fill="none" stroke="#010101" stroke-width="12.3411"/><path d="m0 0h850.394v850.394h-850.394z" fill="none"/><path d="m793.299 51.544s15.442 41.19 0 94.392c-8.777 30.231-28.033 74.943-37.759 91.532-9.727 16.592-33.31 41.761-44.4 41.761s-15.097-4.577-21.959-4.577c-6.866 0-10.014-6.579-3.436-13.158 6.583-6.579 28.033-38.898 36.613-56.062 8.584-17.164 20.075-52.014 29.179-70.937 9.1-18.923 15.442-35.47 22.88-51.488s18.882-31.463 18.882-31.463zm-12.926 84.714c14.598-1.686 17.104-25.474 5.211-33.434-16.143-10.807-33.24 17.278-20.512 29.954-.222.049-.44.104-.658.167-.201.052-.405.114-.605.177-.045.014-.091.031-.136.045-.184.055-.363.118-.54.184-.01 0-.017.003-.024.007-.184.062-.366.131-.547.204-.034.014-.069.028-.107.042-.2.083-.397.167-.596.256-.197.086-.391.18-.581.273-.104.052-.212.107-.315.163-.107.052-.211.111-.315.167-.003.003-.007.007-.01.007-.197.107-.392.222-.582.339-.193.114-.388.239-.574.367-.19.125-.374.256-.558.391-.17.121-.336.25-.499.381-.027.021-.056.045-.083.066-.152.125-.301.249-.446.381-.028.021-.052.045-.08.069-.155.138-.312.284-.46.433-.167.159-.329.326-.485.495-.132.135-.256.277-.374.419-.055.063-.107.125-.159.187-.128.149-.249.305-.37.46-5.059 6.617-4.052 16.991 1.887 22.271-4.525-.1-8.795 1.423-11.609 6.139-3.934 6.589-1.79 14.262 3.002 18.736-3.889-.911-7.223-.346-9.89 1.149-.197.111-.391.229-.585.35-.668.43-1.291.914-1.866 1.455-.083.076-.163.156-.242.235-3.054 3.016-4.653 7.524-4.449 11.987.003.138.01.273.021.412.011.18.024.356.045.537.021.187.042.377.069.564.024.19.052.381.087.568.065.374.146.744.238 1.111.045.187.094.367.149.55.041.16.09.315.146.471.007.031.017.062.027.093.056.173.118.346.184.52.065.18.135.356.211.533.069.177.149.353.232.526.076.177.162.35.253.52.083.173.176.343.273.509.086.159.18.318.28.475.007.014.014.031.027.045.083.138.17.273.267.408.007.021.021.042.038.063-6.987-1.385-13.563 5.429-14.082 12.112-.014.132-.021.263-.024.398-.007.111-.01.222-.01.333-.004.211 0 .419.01.626.004.094.008.187.015.277.007.094.014.184.021.274 0 .035.003.069.011.104.01.132.023.26.038.388.017.142.038.284.062.426.021.135.042.267.069.398.007.045.014.09.024.135.027.146.059.287.094.429.031.132.063.26.097.392.014.059.031.114.049.173.027.107.059.211.093.318.035.125.076.25.118.374.042.128.087.253.132.377.038.107.076.215.121.319.045.125.097.246.148.367.063.152.128.301.197.45.069.159.146.315.226.471.065.138.135.277.211.416.152.291.315.578.488.862-5.415-1.108-10.993 4.214-13.712 8.237-.045.069-.09.135-.135.205-.072.111-.146.218-.211.325-.159.256-.309.506-.447.755-.138.25-.267.499-.381.741-.173.367-.321.727-.45 1.083-.128.357-.231.707-.312 1.053-.11.46-.18.914-.214 1.361-.049.613-.031 1.215.052 1.804.003.017.007.038.01.059.015.125.035.25.063.374.021.125.045.246.076.371.035.156.076.308.121.464.028.104.06.208.094.312.027.086.056.177.087.263-.568-.055-1.122-.076-1.666-.059-.021 0-.041 0-.063 0-11.19-.409-16.997 13.071-11.302 22.731.035.062.073.125.114.187.076.131.156.259.243.391.107.169.225.339.343.509 3.646 5.184 10.062 6.44 15.962 5.242 5.744-1.16 13.546-7.794 11.454-14.262 3.691 1.309 7.662.935 12.144-2.116 5.218-3.556 10.834-15.841 3.067-19.757l-.045-.554c10.55-.734 22.066-14.387 14.158-22.71l-.021-.229c3.611-.298 7.028-1.634 9.47-4.338 4.113-4.557 8.878-17.451 1.991-21.749l-.045-.26c6.028-.997 11.239-5.273 13.126-12.791 2.119-8.452-1.101-10.89-5.703-12.718 6.302-2.635 12.269-5.976 13.618-13.486.313-1.725.389-3.432.236-5.066-.011-.135-.024-.27-.042-.401-.011-.104-.024-.205-.038-.305-.014-.114-.031-.229-.049-.343-.01-.062-.017-.121-.031-.183-.017-.118-.038-.239-.062-.357-.018-.093-.035-.187-.056-.277-.024-.118-.049-.232-.076-.346-.014-.069-.028-.135-.045-.197-.028-.114-.056-.225-.087-.336-.018-.069-.034-.135-.056-.201-.023-.09-.052-.18-.076-.27-.031-.093-.059-.187-.09-.28-.031-.101-.063-.197-.097-.294-.111-.322-.232-.637-.363-.945-.091-.218-.188-.433-.291-.644-.052-.111-.107-.222-.163-.329-.162-.315-.336-.624-.52-.925-.453-.737-.977-1.426-1.564-2.06-.066-.073-.132-.142-.201-.211-.102-.106-.206-.21-.313-.314z" fill="#33a02c"/><path d="m785.584 102.824c11.894 7.96 9.387 31.748-5.211 33.434-.024-.024-.049-.045-.073-.069-.09-.086-.183-.173-.28-.259-.024-.021-.048-.042-.072-.063-.049-.045-.101-.09-.149-.128-.107-.094-.214-.184-.321-.271-.073-.059-.149-.118-.226-.173-.069-.056-.142-.111-.218-.163-.08-.063-.163-.122-.246-.177-.11-.08-.222-.156-.336-.225-.065-.048-.135-.09-.204-.132-.08-.052-.163-.104-.246-.148-.107-.066-.211-.128-.322-.187-.065-.038-.135-.076-.204-.111-.117-.066-.235-.125-.353-.187-.174-.083-.351-.167-.526-.246-.208-.093-.419-.18-.634-.263-2.146-.834-4.561-1.236-6.998-1.177-.135.003-.273.007-.408.014-.118.007-.235.014-.354.021-.097.003-.194.011-.291.021-.09.007-.177.014-.267.021-.148.018-.294.031-.439.049-.166.017-.336.038-.502.065-.184.024-.367.052-.547.087-.011 0-.018.003-.028.003-.353.062-.706.131-1.056.218-12.729-12.676 4.368-40.76 20.511-29.954z" fill="#00e800"/><path d="m784.591 145.476c.152 1.634.076 3.341-.236 5.066-1.35 7.51-7.316 10.852-13.618 13.486-1.125-.447-2.33-.855-3.563-1.309-2.968-1.087-6.205-1.925-9.321-1.991-5.938-5.28-6.945-15.654-1.887-22.271.121-.156.242-.312.37-.46.049-.063.104-.125.159-.187.121-.142.246-.284.374-.419.156-.169.318-.336.485-.495.148-.149.305-.291.46-.433.028-.024.052-.049.08-.069.146-.132.298-.256.446-.381.027-.021.056-.045.083-.066.163-.131.329-.256.499-.381.184-.135.37-.267.558-.391.19-.128.381-.25.574-.367.19-.118.385-.229.582-.339.003 0 .007-.003.01-.007.104-.056.208-.111.315-.167.104-.055.211-.11.315-.163.193-.093.384-.187.581-.273.198-.09.396-.173.596-.256.038-.014.073-.028.107-.042.181-.073.363-.139.547-.204.008-.003.015-.007.024-.007.177-.066.356-.128.54-.184.045-.014.091-.031.136-.045.2-.063.401-.122.605-.177.218-.059.437-.114.658-.167.35-.083.703-.156 1.056-.218.011 0 .018-.003.028-.003.183-.031.363-.063.547-.087.166-.024.332-.048.502-.065.146-.018.291-.031.439-.049.087-.007.177-.014.267-.021.097-.01.194-.018.291-.021.118-.007.235-.014.354-.021.135-.007.273-.011.408-.014 2.438-.059 4.852.343 6.998 1.177.215.083.426.17.634.263.176.08.353.163.526.246.121.062.238.121.353.187.069.035.139.073.204.111.107.059.215.121.322.187.083.045.166.097.246.148.069.042.135.083.204.132.114.069.226.146.336.225.083.055.166.114.246.177.076.052.148.107.218.163.076.055.152.114.226.173.11.087.218.177.321.271.049.038.101.083.149.128.121.104.238.211.353.322.024.024.049.045.073.069.107.104.211.208.312.312.069.069.135.139.201.211.588.634 1.111 1.323 1.564 2.06.184.301.357.609.52.925.056.107.111.218.163.329.104.211.2.426.291.644.131.308.252.624.363.945.034.097.065.194.097.294.031.093.059.187.09.28.024.09.053.18.076.27.021.066.038.132.056.201.031.111.059.222.087.336.017.062.031.128.045.197.027.114.052.229.076.346.021.09.038.184.056.277.023.118.045.235.062.357.015.062.021.121.031.183.018.115.035.229.049.343.014.1.027.201.038.305.018.134.032.269.043.404z" fill="#00e800"/><path d="m784.591 145.476c-.011-.135-.024-.27-.042-.401.017.131.031.266.042.401z" fill="#fff"/><path d="m784.511 144.77c-.014-.114-.031-.229-.049-.343.017.114.035.228.049.343z" fill="#fff"/><path d="m784.431 144.243c-.017-.122-.038-.239-.062-.357.024.118.045.239.062.357z" fill="#fff"/><path d="m784.313 143.609c-.024-.118-.049-.232-.076-.346.028.114.052.229.076.346z" fill="#fff"/><path d="m784.192 143.066c-.028-.114-.056-.225-.087-.336.032.111.059.222.087.336z" fill="#fff"/><path d="m784.05 142.529c-.023-.09-.052-.18-.076-.27.024.09.052.18.076.27z" fill="#fff"/><path d="m783.974 142.259c-.031-.093-.059-.187-.09-.28.031.093.058.187.09.28z" fill="#fff"/><path d="m783.884 141.979c-.031-.101-.063-.197-.097-.294.034.096.066.193.097.294z" fill="#fff"/><path d="m783.424 140.739c-.091-.218-.188-.433-.291-.644.103.211.2.426.291.644z" fill="#fff"/><path d="m782.45 138.841c.184.301.357.609.52.925-.162-.315-.336-.623-.52-.925z" fill="#fff"/><path d="m780.886 136.781c-.066-.073-.132-.142-.201-.211.069.069.134.138.201.211z" fill="#fff"/><path d="m780.3 136.189c-.114-.111-.231-.218-.353-.322.024.021.048.042.072.063.098.086.191.173.281.259z" fill="#fff"/><path d="m779.798 135.739c-.104-.094-.211-.184-.321-.271.107.088.213.178.321.271z" fill="#fff"/><path d="m779.477 135.469c-.073-.059-.149-.118-.226-.173.076.055.152.114.226.173z" fill="#fff"/><path d="m779.033 135.133c-.08-.063-.163-.122-.246-.177.083.056.166.115.246.177z" fill="#fff"/><path d="m778.787 134.957c-.11-.08-.222-.156-.336-.225.114.069.226.145.336.225z" fill="#fff"/><path d="m778.451 134.731c-.069-.048-.135-.09-.204-.132.069.043.139.084.204.132z" fill="#fff"/><path d="m778.247 134.6c-.08-.052-.163-.104-.246-.148.083.044.166.096.246.148z" fill="#fff"/><path d="m778.001 134.451c-.107-.066-.215-.128-.322-.187.111.059.215.121.322.187z" fill="#fff"/><path d="m777.475 134.153c-.114-.066-.231-.125-.353-.187.117.062.235.121.353.187z" fill="#fff"/><path d="m757.853 160.728c3.116.066 6.354.904 9.321 1.991 1.232.454 2.438.862 3.563 1.309 4.603 1.828 7.822 4.266 5.703 12.718-1.887 7.517-7.098 11.793-13.126 12.791-2.947.492-6.088.198-9.128-.883-1.824-.651-3.497-1.707-4.938-3.05h-.003c-4.792-4.474-6.936-12.146-3.002-18.736 2.815-4.717 7.084-6.24 11.61-6.14z" fill="#00e800"/><path d="m776.596 133.72c-.208-.093-.419-.18-.634-.263.215.084.426.17.634.263z" fill="#fff"/><path d="m768.964 132.28c-.135.003-.273.007-.408.014.134-.007.273-.011.408-.014z" fill="#fff"/><path d="m768.202 132.314c-.097.003-.194.011-.291.021.097-.01.194-.017.291-.021z" fill="#fff"/><path d="m767.911 132.335c-.09.007-.18.014-.267.021.09-.007.177-.014.267-.021z" fill="#fff"/><path d="m767.205 132.405c-.17.017-.336.042-.502.065.166-.027.336-.048.502-.065z" fill="#fff"/><path d="m766.703 132.47c-.184.024-.364.056-.547.087.18-.035.364-.062.547-.087z" fill="#fff"/><path d="m766.128 132.561c-.353.062-.706.135-1.056.218.35-.087.703-.156 1.056-.218z" fill="#fff"/><path d="m765.072 132.778c-.222.052-.44.107-.658.167.218-.063.437-.118.658-.167z" fill="#fff"/><path d="m764.414 132.945c-.204.055-.405.114-.605.177.2-.063.404-.125.605-.177z" fill="#fff"/><path d="m763.673 133.167c-.184.055-.363.118-.54.184.177-.067.356-.129.54-.184z" fill="#fff"/><path d="m763.358 189.796c6.887 4.297 2.122 17.191-1.991 21.749-2.441 2.704-5.858 4.041-9.47 4.338-4.259.353-8.785-.738-12.289-2.739-.256-.146-.509-.298-.751-.457-.246-.16-.481-.322-.71-.492-.264-.19-.516-.392-.759-.599-.076-.063-.152-.125-.229-.194-.495-.433-.952-.894-1.371-1.378-.069-.08-.138-.159-.204-.242-.083-.101-.166-.201-.242-.301-.069-.083-.135-.169-.197-.256-.027-.035-.052-.073-.08-.107-.062-.083-.121-.17-.18-.253-.031-.045-.063-.09-.094-.135-.014-.014-.024-.031-.031-.045-.017-.021-.031-.042-.038-.063-.093-.135-.18-.27-.267-.408-.014-.014-.021-.031-.027-.045-.097-.156-.19-.315-.28-.475-.094-.169-.188-.339-.273-.509-.087-.173-.174-.347-.253-.52-.08-.173-.159-.35-.232-.526-.072-.177-.142-.353-.211-.533-.063-.173-.125-.343-.184-.52-.011-.031-.021-.062-.027-.093-.052-.156-.101-.315-.146-.471-.056-.183-.104-.367-.149-.55-.093-.371-.173-.741-.238-1.111-.035-.187-.063-.377-.087-.568-.027-.187-.049-.374-.069-.564-.021-.18-.034-.357-.045-.537-.011-.139-.018-.274-.021-.412-.204-4.463 1.396-8.972 4.449-11.987.079-.08.163-.159.242-.235.575-.541 1.198-1.025 1.866-1.455.194-.121.388-.239.585-.35 2.667-1.496 6.001-2.06 9.89-1.149h.003c1.44 1.343 3.113 2.399 4.938 3.05 3.04 1.081 6.181 1.375 9.128.883z" fill="#00e800"/><path d="m763.108 133.357c-.184.065-.366.131-.547.204.181-.073.364-.142.547-.204z" fill="#fff"/><path d="m762.454 133.603c-.2.083-.397.167-.596.256.199-.09.396-.173.596-.256z" fill="#fff"/><path d="m761.858 133.859c-.197.086-.388.18-.581.273.191-.093.384-.187.581-.273z" fill="#fff"/><path d="m760.962 134.295c-.107.056-.211.111-.315.167.104-.056.207-.115.315-.167z" fill="#fff"/><path d="m760.637 134.468c-.197.111-.392.222-.582.339.19-.117.384-.231.582-.339z" fill="#fff"/><path d="m760.055 134.808c-.193.118-.384.239-.574.367.186-.129.38-.253.574-.367z" fill="#fff"/><path d="m759.48 135.175c-.188.125-.374.256-.558.391.184-.135.368-.267.558-.391z" fill="#fff"/><path d="m758.923 135.566c-.17.125-.336.25-.499.381.163-.132.329-.26.499-.381z" fill="#fff"/><path d="m758.341 136.013c-.148.125-.301.249-.446.381.145-.132.293-.257.446-.381z" fill="#fff"/><path d="m757.814 136.463c-.155.142-.312.284-.46.433.149-.149.305-.295.46-.433z" fill="#fff"/><path d="m750.003 32.331c9.803 3.767 9.803 3.767 7.652 7.787-3.013 5.647-17.119-5.914-23.04 1.098-.083-1.184-.298-2.202-.72-2.943-.118-.205-.235-.398-.36-.579-.114-.169-.229-.329-.35-.478-.038-.052-.079-.104-.125-.152-.079-.097-.162-.19-.249-.277-.041-.045-.083-.09-.128-.128-.045-.045-.087-.086-.132-.125-.086-.08-.173-.156-.26-.222-.045-.038-.09-.073-.135-.104-.045-.035-.09-.066-.132-.093-.045-.035-.09-.063-.135-.09-.045-.031-.094-.059-.139-.083-.045-.028-.09-.055-.135-.076-.045-.024-.09-.048-.132-.069-.107-.052-.215-.1-.322-.142 4.863-3.806 13.109-5.53 18.842-3.324z" fill="#00e800"/><path d="m757.354 136.896c-.167.159-.329.326-.485.495.156-.17.319-.336.485-.495z" fill="#fff"/><path d="m756.869 137.391c-.128.135-.253.277-.374.419.118-.143.242-.284.374-.419z" fill="#fff"/><path d="m756.495 137.81c-.055.063-.11.125-.159.187.052-.063.104-.125.159-.187z" fill="#fff"/><path d="m756.336 137.997c-.128.149-.249.305-.37.46.121-.156.242-.311.37-.46z" fill="#fff"/><path d="m751.918 216.111c7.908 8.324-3.608 21.977-14.158 22.71-2.285.16-4.525-.284-6.513-1.523-.378-.235-.755-.481-1.129-.741-.101-.069-.197-.139-.298-.211-.118-.08-.235-.163-.35-.249-.835-.609-1.655-1.278-2.438-1.995-.114-.104-.229-.208-.339-.315-.042-.042-.087-.083-.128-.125-.159-.148-.315-.305-.468-.46-.155-.156-.312-.315-.46-.478-.143-.149-.281-.301-.416-.457-.11-.118-.218-.239-.318-.364-.024-.024-.045-.052-.065-.076-.139-.163-.277-.325-.409-.495-.018-.017-.031-.035-.045-.055-.11-.139-.222-.281-.329-.423-.076-.1-.152-.204-.229-.312-.069-.09-.135-.184-.197-.277-.114-.159-.222-.315-.329-.478-.017-.024-.034-.048-.045-.073-.135-.201-.263-.405-.388-.613-.173-.284-.336-.571-.488-.862-.072-.139-.146-.277-.211-.416-.08-.156-.156-.312-.226-.471-.069-.149-.135-.298-.197-.45-.052-.121-.104-.242-.148-.367-.045-.104-.083-.211-.121-.319-.045-.125-.09-.249-.132-.377-.042-.125-.083-.249-.118-.374-.034-.104-.065-.211-.093-.318-.018-.059-.035-.114-.049-.173-.034-.128-.065-.26-.097-.392-.035-.146-.066-.287-.094-.429-.011-.045-.018-.09-.024-.135-.027-.131-.048-.263-.069-.398-.023-.142-.045-.284-.062-.426-.015-.128-.028-.26-.038-.388-.008-.035-.011-.069-.011-.104-.011-.09-.014-.18-.021-.274-.007-.093-.011-.183-.015-.277-.01-.208-.014-.416-.01-.626 0-.111.003-.222.01-.333.004-.135.011-.267.024-.398.54-6.787 7.542-11.928 14.203-11.932h.004c.059.086.118.169.18.253.028.034.053.072.08.107.063.087.128.173.197.256.076.101.156.201.242.301.066.083.135.163.204.242.419.485.876.945 1.371 1.378.076.069.152.131.229.194.243.208.495.409.759.599.229.169.468.332.71.492.242.159.495.312.751.457 3.504 2.001 8.03 3.092 12.289 2.739z" fill="#00e800"/><path d="m738.771 187.102c.194-.121.388-.239.585-.35-.198.111-.391.229-.585.35z" fill="#fff"/><path d="m738.147 212.195c.229.169.464.332.71.492-.242-.16-.481-.322-.71-.492z" fill="#fff"/><path d="m722.594 261.249c-3.234-1.143-6.25-3.577-9.207-6.627-.488-.502-.966-1.004-1.423-1.503-.294-.322-.582-.644-.866-.962-.01-.01-.017-.024-.027-.035-.273-.318-.54-.634-.796-.952-.201-.246-.392-.495-.575-.745-.059-.08-.117-.156-.173-.235-.246-.336-.479-.672-.692-1.011-.053-.083-.104-.166-.156-.252-.256-.419-.488-.841-.692-1.268-.031-.069-.063-.135-.094-.201-.128-.277-.242-.554-.343-.834-.003-.007-.003-.01-.007-.017-.041-.118-.083-.239-.121-.36-.034-.104-.065-.208-.094-.312-.045-.156-.086-.308-.121-.464-.027-.122-.056-.246-.076-.371-.024-.125-.045-.25-.063-.374-.003-.021-.007-.042-.01-.059-.08-.589-.101-1.191-.052-1.804.038-.447.106-.9.214-1.361.083-.346.188-.696.312-1.053.129-.356.277-.717.45-1.083.114-.243.243-.492.381-.741.139-.249.288-.499.447-.755.069-.107.139-.218.211-.325.045-.069.09-.135.135-.205 2.857-4.193 8.245-8.428 14.017-7.746.027.042.052.08.083.121.011.024.028.049.045.073.104.163.215.319.329.478.063.093.128.187.197.277.073.104.152.208.229.312.111.142.219.284.329.423.014.021.027.038.045.055.135.17.271.333.409.495.021.024.041.052.065.076.104.125.208.246.318.364.135.156.273.308.416.457.148.163.305.322.46.478.152.156.309.312.468.46.041.042.086.083.128.125.11.104.225.211.339.315.783.717 1.604 1.385 2.438 1.995.117.086.231.169.35.249.101.073.197.146.298.211.374.26.751.505 1.129.741 1.987 1.24 4.228 1.683 6.513 1.523l.045.554c7.767 3.916 2.15 16.201-3.067 19.757-4.483 3.051-8.454 3.425-12.145 2.116z" fill="#00e800"/><path d="m737.16 211.402c.076.069.152.131.229.194-.076-.062-.153-.124-.229-.194z" fill="#fff"/><path d="m736.904 188.557c-.079.076-.163.156-.242.235.079-.08.159-.159.242-.235z" fill="#fff"/><path d="m735.585 209.782c.066.083.135.163.204.242-.069-.08-.138-.159-.204-.242z" fill="#fff"/><path d="m735.343 209.48c.076.101.159.201.242.301-.086-.1-.166-.2-.242-.301z" fill="#fff"/><path d="m735.146 209.224c.063.087.128.173.197.256-.07-.083-.135-.169-.197-.256z" fill="#fff"/><path d="m734.886 208.864c.059.083.118.169.18.253-.062-.083-.122-.166-.18-.253z" fill="#fff"/><path d="m734.792 208.729c.031.045.063.09.094.135h-.004c-.03-.045-.062-.09-.09-.135z" fill="#fff"/><path d="m734.792 208.729c.028.045.06.09.09.135-6.661.003-13.663 5.145-14.203 11.932.52-6.683 7.095-13.497 14.082-12.112.007.014.017.031.031.045z" fill="#fff"/><path d="m734.456 208.213c.087.138.174.273.267.408-.097-.134-.184-.269-.267-.408z" fill="#fff"/><path d="m734.615 41.215c.298 4.359-1.229 10.962-1.094 14.151.208 5.19-.412 11.631-6.994 12.292l-.166.018c-1.066-10.672-4.065-16.25-4.065-16.25s-.059.011-.17.035c-.048.01-.107.024-.18.042-.52.122-1.589.395-3.047.879-.09.031-.184.063-.277.094-.249.083-.509.177-.775.273-.083.028-.166.059-.253.09-.817.301-1.714.658-2.673 1.077-.149.066-.298.131-.45.201-.277.121-.554.25-.838.384l-.332-.845c-.011-.038-.021-.076-.035-.114-1.938-7.514.522-9.816 6.226-13.137.146-.083.291-.167.439-.253 2.753-1.583 6.521-4.878 9.813-4.778.048 0 .101.003.148.007.249.014.495.049.734.107.097.024.19.049.287.08.045.014.094.031.143.049.034.01.072.024.106.038.107.042.215.09.322.142.042.021.087.045.132.069s.09.048.135.076c.045.024.094.052.139.083.045.028.09.059.135.09.045.027.09.062.132.093.045.035.09.069.135.104.087.066.174.142.26.222.045.042.087.08.132.125.042.042.083.083.128.128.083.087.166.18.249.277.046.048.087.1.125.152.118.149.235.308.35.478.125.18.242.374.36.579.421.74.636 1.758.719 2.942z" fill="#00e800"/><g fill="#fff"><path d="m734.148 207.694c.09.159.184.318.28.475-.1-.157-.194-.316-.28-.475z"/><path d="m733.875 207.185c.086.169.18.339.273.509-.097-.166-.19-.336-.273-.509z"/><path d="m733.622 206.666c.079.173.166.346.253.52-.091-.171-.177-.344-.253-.52z"/><path d="m733.39 206.139c.073.177.152.353.232.526-.083-.173-.163-.349-.232-.526z"/><path d="m733.179 205.606c.069.18.139.356.211.533-.077-.177-.146-.353-.211-.533z"/><path d="m733.535 37.694c-.114-.169-.231-.329-.35-.478.122.149.236.308.35.478z"/><path d="m732.995 205.086c.059.177.121.346.184.52-.066-.173-.128-.346-.184-.52z"/><path d="m732.822 204.522c.045.156.094.315.146.471-.056-.156-.105-.311-.146-.471z"/><path d="m732.812 36.787c.087.087.17.18.249.277-.083-.097-.166-.19-.249-.277z"/><path d="m732.673 203.972c.045.184.094.367.149.55-.055-.183-.104-.363-.149-.55z"/><path d="m732.812 36.787c-.045-.045-.086-.086-.128-.128.045.038.087.083.128.128z"/><path d="m732.552 36.534c.045.038.087.08.132.125-.045-.045-.087-.083-.132-.125z"/><path d="m732.435 202.86c.065.37.146.741.238 1.111-.093-.367-.173-.737-.238-1.111z"/><path d="m732.278 201.728c.021.19.042.377.069.564-.027-.187-.048-.377-.069-.564z"/><path d="m732.292 36.313c-.045-.035-.09-.069-.135-.104.045.031.09.065.135.104z"/><path d="m732.213 200.779c.003.138.01.273.021.412-.011-.138-.018-.274-.021-.412z"/><path d="m732.157 36.208c-.042-.031-.087-.066-.132-.093.042.028.087.059.132.093z"/><path d="m732.025 36.115c-.045-.031-.09-.063-.135-.09.046.028.09.056.135.09z"/><path d="m731.752 35.942c-.045-.028-.09-.052-.135-.076.045.021.09.048.135.076z"/><path d="m731.617 35.866c-.045-.024-.09-.048-.132-.069.042.02.087.045.132.069z"/><path d="m731.057 35.617c-.049-.018-.098-.035-.143-.049.049.014.094.031.143.049z"/><path d="m730.627 35.488c.097.021.193.049.287.08-.097-.031-.19-.055-.287-.08z"/><path d="m729.82 236.346c.101.073.197.142.298.211-.1-.065-.197-.138-.298-.211z"/><path d="m729.893 35.381c-.048-.003-.101-.007-.148-.007.047 0 .1.003.148.007z"/><path d="m729.471 236.097c.114.086.231.169.35.249-.119-.079-.233-.162-.35-.249z"/><path d="m726.693 233.788c.11.107.225.211.339.315-.114-.104-.228-.211-.339-.315z"/><path d="m726.098 233.202c.152.156.309.312.468.46-.16-.148-.316-.304-.468-.46z"/></g><path d="m726.361 67.676c1.188 11.862-.018 30.023-10.395 53.818-19.706 45.2-33.323 73.904-40.304 86.228-6.98 12.319-22.261 37.845-40.571 43.957-18.313 6.104-37.661-1.399-41.935 1.468-4.272 2.871-13.93 4.113 7.832-19.57 21.763-23.684 43.923-58.132 62.001-97.941 18.077-39.813 25.909-59.382 36.083-70.508.297-.325.599-.644.899-.956.152-.156.305-.312.457-.46.073-.073.143-.146.215-.211.229-.229.457-.45.689-.668.457-.433.917-.848 1.385-1.25.152-.135.305-.267.461-.395.633-.537 1.271-1.046 1.907-1.527.298-.225.596-.446.894-.658.977-.703 1.949-1.347 2.905-1.932.128-.083.256-.159.384-.235.609-.367 1.209-.71 1.798-1.028.145-.08.294-.159.439-.239.146-.08.291-.156.437-.229.142-.072.287-.148.429-.221.398-.201.79-.395 1.171-.575.031-.014.059-.027.09-.042.284-.135.561-.263.838-.384.148-.069.301-.135.45-.201.959-.419 1.855-.776 2.673-1.077.087-.031.17-.063.253-.09.267-.097.526-.19.775-.273.094-.031.188-.063.277-.094 1.458-.484 2.527-.758 3.047-.879.069-.014.132-.027.18-.042.111-.024.17-.035.17-.035s3 5.577 4.066 16.249z" fill="#00e800"/><path d="m725.638 232.725c.148.163.305.322.46.478-.156-.157-.312-.316-.46-.478z" fill="#fff"/><path d="m724.903 231.904c.101.125.208.246.318.364-.11-.118-.214-.24-.318-.364z" fill="#fff"/><path d="m724.429 231.333c.132.17.271.333.409.495-.139-.163-.275-.326-.409-.495z" fill="#fff"/><path d="m724.055 230.854c.107.142.219.284.329.423-.111-.138-.218-.28-.329-.423z" fill="#fff"/><path d="m723.826 230.543c.076.107.152.211.229.312-.076-.104-.156-.208-.229-.312z" fill="#fff"/><path d="m723.629 230.266c.063.093.128.187.197.277-.069-.09-.135-.184-.197-.277z" fill="#fff"/><path d="m723.3 229.788c.107.163.215.319.329.478-.114-.159-.225-.315-.329-.478z" fill="#fff"/><path d="m723.255 229.715c-.031-.042-.056-.08-.083-.121-.104-.163-.208-.325-.305-.492.125.209.253.413.388.613z" fill="#fff"/><path d="m722.867 229.103c.097.167.201.329.305.492-5.771-.682-11.159 3.553-14.017 7.746 2.719-4.025 8.297-9.346 13.712-8.238z" fill="#fff"/><path d="m722.594 261.249c2.092 6.468-5.71 13.102-11.454 14.262-5.9 1.198-12.316-.059-15.962-5.242-.118-.169-.235-.339-.343-.509-.083-.132-.167-.26-.243-.391-.041-.063-.079-.125-.114-.187-5.487-9.408.582-22.431 11.302-22.731h.063c.555.024 1.126.08 1.707.173.101.28.215.558.343.834.028.066.06.135.094.201.204.426.437.849.692 1.268.049.083.101.169.156.252.214.339.446.675.692 1.011.056.076.11.156.173.235.184.25.374.499.575.745.256.318.519.634.796.952.011.01.018.024.027.035.281.322.568.641.866.962.457.499.935 1.001 1.423 1.503 2.957 3.05 5.972 5.484 9.207 6.627z" fill="#00e800"/><path d="m722.168 227.825c.065.138.139.277.211.416-.076-.139-.146-.278-.211-.416z" fill="#fff"/><path d="m721.946 51.502c.072-.017.132-.031.18-.042-.048.015-.11.029-.18.042z" fill="#fff"/><path d="m721.745 226.904c.063.152.128.301.197.45-.069-.149-.134-.298-.197-.45z" fill="#fff"/><path d="m721.597 226.537c.045.125.097.246.148.367-.052-.121-.103-.242-.148-.367z" fill="#fff"/><path d="m721.344 225.841c.042.128.087.253.132.377-.045-.124-.09-.249-.132-.377z" fill="#fff"/><path d="m721.133 225.148c.027.107.059.215.093.318-.035-.106-.066-.21-.093-.318z" fill="#fff"/><path d="m720.987 224.584c.031.132.063.263.097.392-.034-.132-.065-.26-.097-.392z" fill="#fff"/><path d="m720.894 224.155c.027.142.059.284.094.429-.036-.142-.067-.284-.094-.429z" fill="#fff"/><path d="m720.8 223.622c.021.135.042.267.069.398-.027-.132-.048-.264-.069-.398z" fill="#fff"/><path d="m720.7 222.808c.01.128.023.26.038.388-.014-.129-.028-.257-.038-.388z" fill="#fff"/><path d="m720.669 222.43c.007.094.01.184.021.274-.007-.09-.014-.18-.021-.274z" fill="#fff"/><path d="m720.654 222.153c.004.094.008.184.015.277-.007-.09-.011-.183-.015-.277z" fill="#fff"/><path d="m720.654 221.194c-.007.111-.01.222-.01.333.001-.111.003-.222.01-.333z" fill="#fff"/><path d="m718.899 52.382c-.09.031-.184.063-.277.094.094-.032.188-.063.277-.094z" fill="#fff"/><path d="m717.847 52.749c-.083.028-.166.059-.253.09.087-.031.17-.062.253-.09z" fill="#fff"/><path d="m714.921 53.916c-.149.066-.302.131-.45.201.152-.07.3-.135.45-.201z" fill="#fff"/><path d="m713.301 53.656.332.845c-.031.014-.059.028-.09.042-.101-.343-.19-.678-.277-1 .013.037.024.075.035.113z" fill="#fff"/><path d="m719.491 40.405c-5.703 3.32-8.164 5.623-6.226 13.137-2.365-8.216.295-9.733 6.226-13.137z" fill="#fff"/><path d="m712.372 55.118c-.142.073-.287.149-.429.221.146-.076.287-.149.429-.221z" fill="#00e800"/><path d="m711.964 253.119c-.298-.322-.585-.641-.866-.962.284.318.572.64.866.962z" fill="#fff"/><path d="m711.507 55.567c-.146.08-.295.16-.439.239.148-.082.293-.162.439-.239z" fill="#00e800"/><path d="m711.07 252.122c-.277-.318-.54-.634-.796-.952.256.318.523.633.796.952z" fill="#fff"/><path d="m709.526 250.189c.056.08.114.156.173.235-.062-.079-.117-.158-.173-.235z" fill="#fff"/><path d="m709.27 56.835c-.128.076-.256.152-.384.235.128-.083.256-.159.384-.235z" fill="#00e800"/><path d="m709.021 237.544c-.072.107-.142.218-.211.325.065-.106.138-.214.211-.325z" fill="#fff"/><path d="m708.678 248.926c.052.086.104.169.156.252-.056-.083-.107-.169-.156-.252z" fill="#fff"/><path d="m708.362 238.625c-.138.25-.267.499-.381.741.115-.243.244-.492.381-.741z" fill="#fff"/><path d="m707.892 247.458c.031.066.063.132.094.201-.035-.066-.066-.136-.094-.201z" fill="#fff"/><path d="m707.542 246.606c.004.007.004.01.007.017-.581-.093-1.152-.149-1.707-.173.544-.018 1.098.003 1.666.059.01.031.023.066.034.097z" fill="#fff"/><path d="m707.542 246.606c-.011-.031-.024-.066-.034-.097-.031-.086-.06-.177-.087-.263.038.121.08.242.121.36z" fill="#fff"/><path d="m707.327 245.934c.028.104.06.208.094.312-.034-.104-.066-.208-.094-.312z" fill="#fff"/><path d="m707.531 240.449c-.124.357-.229.707-.312 1.053.081-.346.184-.696.312-1.053z" fill="#fff"/><path d="m707.13 245.1c.021.125.049.249.076.371-.031-.126-.056-.247-.076-.371z" fill="#fff"/><path d="m707.067 244.726c.018.125.038.25.063.374-.027-.125-.048-.25-.063-.374z" fill="#fff"/><path d="m707.22 241.502c-.107.46-.176.914-.214 1.361.034-.447.103-.901.214-1.361z" fill="#fff"/><path d="m707.006 242.863c-.049.613-.028 1.215.052 1.804-.083-.589-.101-1.191-.052-1.804z" fill="#fff"/><path d="m694.478 269.182c-5.695-9.661.111-23.14 11.302-22.731-10.72.3-16.79 13.323-11.302 22.731z" fill="#fff"/><path d="m705.087 59.66c.298-.229.596-.446.894-.658-.298.212-.596.433-.894.658z" fill="#fff"/><path d="m703.18 61.188c-.156.128-.309.259-.461.395.152-.136.308-.268.461-.395z" fill="#fff"/><path d="m700.645 63.5c.229-.229.461-.45.689-.668-.232.218-.461.44-.689.668z" fill="#fff"/><path d="m700.43 63.711c-.152.149-.305.305-.457.46.152-.155.304-.311.457-.46z" fill="#00e800"/><path d="m694.592 269.369c.076.131.16.259.243.391-.087-.132-.167-.26-.243-.391z" fill="#fff"/><path d="m707.553 246.623h-.004c-.581-.093-1.152-.149-1.707-.173-.021 0-.041 0-.063 0-11.19-.409-16.997 13.071-11.302 22.731.035.062.073.125.114.187.076.131.156.259.243.391.107.169.225.339.343.509 3.646 5.184 10.062 6.44 15.962 5.242 5.744-1.16 13.546-7.794 11.454-14.262-.011-.045-.027-.087-.042-.132" fill="none" stroke="#000" stroke-width="6.8649"/><path d="m723.172 229.594c-5.771-.682-11.159 3.553-14.017 7.746-.045.069-.09.135-.135.205-.072.107-.142.218-.211.325-.159.256-.309.506-.447.755-.138.25-.267.499-.381.741-.173.367-.321.727-.45 1.083-.124.357-.229.707-.312 1.053-.107.46-.176.914-.214 1.361-.049.613-.028 1.215.052 1.804.003.017.007.038.01.059.018.125.038.25.063.374.021.125.049.249.076.371.035.156.076.308.121.464.028.104.06.208.094.312.038.121.08.243.121.36.004.007.004.01.007.017.101.28.215.558.343.834.031.066.063.132.094.201.204.426.437.849.692 1.268.052.086.104.169.156.252.214.339.446.675.692 1.011.056.08.114.156.173.235.184.25.374.499.575.745.256.318.519.634.796.952.011.01.018.024.027.035.281.322.568.641.866.962.457.499.935 1.001 1.423 1.503 2.957 3.05 5.973 5.484 9.207 6.627 3.691 1.309 7.662.935 12.144-2.116 5.218-3.556 10.834-15.841 3.067-19.757" fill="none" stroke="#000" stroke-width="6.8649"/><path d="m734.882 208.864c-6.661.003-13.663 5.145-14.203 11.932-.014.132-.021.263-.024.398-.007.111-.01.222-.01.333-.004.211 0 .419.01.626.004.094.008.187.015.277.007.094.01.184.021.274 0 .035.003.069.011.104.01.128.023.26.038.388.017.142.038.284.062.426.021.135.042.267.069.398.007.045.014.09.024.135.027.146.059.287.094.429.031.132.063.26.097.392.014.059.031.114.049.173.027.107.059.211.093.318.035.125.076.25.118.374.042.128.087.253.132.377.038.107.076.215.121.319.045.125.097.246.148.367.063.152.128.301.197.45.069.159.146.315.226.471.065.138.135.277.211.416.152.291.315.578.488.862.097.167.201.329.305.492.027.042.052.08.083.121.011.024.028.049.045.073.104.163.215.319.329.478.063.093.128.187.197.277.073.104.152.208.229.312.107.142.219.284.329.423.014.021.027.038.045.055.132.17.271.333.409.495.021.024.041.052.065.076.101.125.208.246.318.364.135.156.273.308.416.457.148.163.305.322.46.478.152.156.309.312.468.46.041.042.086.083.128.125.11.104.225.211.339.315.783.717 1.604 1.385 2.438 1.995.117.086.231.169.35.249.101.073.197.142.298.211.374.26.751.505 1.129.741 1.987 1.24 4.228 1.683 6.513 1.523 10.55-.734 22.066-14.387 14.158-22.71" fill="none" stroke="#000" stroke-width="6.8649"/><path d="m749.245 185.603c-3.889-.911-7.223-.346-9.89 1.149-.197.111-.391.229-.585.35-.668.43-1.291.914-1.866 1.455-.079.076-.163.156-.242.235-3.054 3.016-4.653 7.524-4.449 11.987.003.138.01.273.021.412.011.18.024.356.045.537.021.187.042.377.069.564.024.19.052.381.087.568.065.374.146.744.238 1.111.045.187.094.367.149.55.041.16.09.315.146.471.007.031.017.062.027.093.056.173.118.346.184.52.065.18.135.356.211.533.069.177.149.353.232.526.076.177.162.35.253.52.083.173.176.343.273.509.086.159.18.318.28.475.007.014.014.031.027.045.083.138.17.273.267.408.007.021.021.042.038.063.007.014.018.031.031.045.028.045.06.09.09.135h.004c.059.083.118.169.18.253.028.034.053.072.08.107.063.087.128.173.197.256.076.101.159.201.242.301.066.083.135.163.204.242.419.485.876.945 1.371 1.378.076.069.152.131.229.194.243.208.495.409.759.599.229.169.468.332.71.492.242.159.495.312.751.457 3.504 2.001 8.03 3.092 12.289 2.739 3.611-.298 7.028-1.634 9.47-4.338 4.113-4.557 8.878-17.451 1.991-21.749" fill="none" stroke="#000" stroke-width="6.8649"/><path d="m770.736 164.028c-1.125-.447-2.33-.855-3.563-1.309-2.968-1.087-6.205-1.925-9.321-1.991-4.525-.1-8.795 1.423-11.609 6.139-3.934 6.589-1.79 14.262 3.002 18.736h.003c1.44 1.343 3.113 2.399 4.938 3.05 3.04 1.081 6.181 1.375 9.128.883 6.028-.997 11.239-5.273 13.126-12.791 2.119-8.451-1.101-10.889-5.704-12.717z" fill="none" stroke="#000" stroke-width="6.8649"/><path d="m758.399 161.192c-.187-.149-.37-.305-.547-.464-5.938-5.28-6.945-15.654-1.887-22.271.121-.156.242-.312.37-.46.052-.063.104-.125.159-.187.121-.142.246-.284.374-.419.156-.169.318-.336.485-.495.148-.149.305-.291.46-.433.028-.024.052-.049.08-.069.146-.132.298-.256.446-.381.027-.021.056-.045.083-.066.163-.131.329-.256.499-.381.184-.135.37-.267.558-.391.19-.128.381-.25.574-.367.19-.118.385-.229.582-.339.003 0 .007-.003.01-.007.104-.056.208-.111.315-.167.104-.055.211-.11.315-.163.193-.093.384-.187.581-.273.198-.09.396-.173.596-.256.038-.014.073-.028.107-.042.181-.073.363-.139.547-.204.008-.003.015-.007.024-.007.177-.066.356-.128.54-.184.045-.014.091-.031.136-.045.2-.063.401-.122.605-.177.218-.059.437-.114.658-.167.35-.083.703-.156 1.056-.218.011 0 .018-.003.028-.003.183-.031.363-.063.547-.087.166-.024.332-.048.502-.065.146-.018.291-.031.439-.049.09-.007.177-.014.267-.021.097-.01.194-.018.291-.021.118-.007.235-.014.354-.021.135-.007.273-.011.408-.014 2.438-.059 4.852.343 6.998 1.177.215.083.426.17.634.263.176.08.353.163.526.246.117.062.235.121.353.187.069.035.139.073.204.111.111.059.215.121.322.187.083.045.166.097.246.148.069.042.139.083.204.132.114.069.226.146.336.225.083.055.166.114.246.177.076.052.148.107.218.163.076.055.152.114.226.173.11.087.218.177.321.271.049.038.101.083.149.128.121.104.238.211.353.322.024.024.049.045.073.069.107.104.211.208.312.312.069.069.135.139.201.211.588.634 1.111 1.323 1.564 2.06.184.301.357.609.52.925.056.107.111.218.163.329.104.211.2.426.291.644.131.308.252.624.363.945.034.097.065.194.097.294.031.093.059.187.09.28.024.09.053.18.076.27.021.066.038.132.056.201.031.111.059.222.087.336.017.062.031.128.045.197.027.114.052.229.076.346.021.09.038.184.056.277.023.118.045.239.062.357.015.062.021.121.031.183.018.115.035.229.049.343.014.1.027.201.038.305.018.131.031.267.042.401.152 1.634.076 3.341-.236 5.066-1.35 7.51-7.316 10.852-13.618 13.486-.169.073-.339.146-.512.215" fill="none" stroke="#000" stroke-width="6.8649"/><path d="m765.072 132.778c-12.729-12.676 4.369-40.761 20.512-29.954 11.894 7.96 9.387 31.748-5.211 33.434" fill="none" stroke="#000" stroke-width="6.8649"/><path d="m751.537 134.496c9.1-18.923 15.442-35.47 22.88-51.488s18.882-31.464 18.882-31.464 15.442 41.19 0 94.392c-8.777 30.231-28.033 74.943-37.759 91.532-9.727 16.592-33.31 41.761-44.4 41.761s-15.097-4.577-21.959-4.577c-6.866 0-10.014-6.579-3.436-13.158 6.583-6.579 28.033-38.898 36.613-56.062 8.584-17.163 20.076-52.013 29.179-70.936z" fill="none" stroke="#000" stroke-width="6.8649"/><path d="m713.543 54.542c.031-.014.059-.027.09-.042.284-.135.561-.263.838-.384.148-.069.301-.135.45-.201.959-.419 1.855-.776 2.673-1.077.087-.031.17-.063.253-.09.267-.097.526-.19.775-.273.094-.031.188-.063.277-.094 1.458-.484 2.527-.758 3.047-.879.069-.014.132-.027.18-.042.111-.024.17-.035.17-.035s2.999 5.578 4.065 16.25c1.188 11.862-.018 30.023-10.395 53.818-19.706 45.2-33.323 73.904-40.304 86.228-6.98 12.319-22.261 37.845-40.571 43.957-18.313 6.104-37.661-1.399-41.935 1.468-4.272 2.871-13.93 4.113 7.832-19.57 21.763-23.684 43.923-58.132 62.001-97.941 18.077-39.813 25.909-59.382 36.083-70.508.297-.325.599-.644.899-.956.152-.156.305-.312.457-.46.073-.073.143-.146.215-.211.229-.229.457-.45.689-.668.457-.433.917-.848 1.385-1.25.152-.135.305-.267.461-.395.633-.537 1.271-1.046 1.907-1.527.298-.225.596-.446.894-.658.977-.703 1.949-1.347 2.905-1.932.128-.083.256-.159.384-.235.609-.367 1.209-.71 1.798-1.028.148-.083.294-.163.439-.239.146-.08.291-.156.437-.229.146-.076.287-.148.429-.221.4-.201.791-.395 1.172-.576z" fill="none" stroke="#000" stroke-width="6.8649"/><path d="m713.543 54.542c-.101-.343-.19-.678-.277-1-1.938-7.514.522-9.816 6.226-13.137.146-.083.291-.167.439-.253 2.753-1.583 6.521-4.878 9.813-4.778.048 0 .101.003.148.007.249.014.495.049.734.107.097.021.193.049.287.08.049.014.094.031.143.049.034.01.072.024.106.038.107.042.215.09.322.142.042.021.087.045.132.069.045.021.09.048.135.076.045.024.094.052.139.083.045.028.09.056.135.09.042.027.087.059.132.093.045.031.09.066.135.104.087.066.174.142.26.222.045.038.087.08.132.125.045.038.087.083.128.128.087.087.17.18.249.277.046.048.087.1.125.152.121.149.235.308.35.478.125.18.242.374.36.579.422.741.637 1.759.72 2.943.298 4.359-1.229 10.962-1.094 14.151.208 5.19-.412 11.631-6.994 12.292" fill="none" stroke="#000" stroke-width="6.8649"/><path d="m731.163 35.655c4.861-3.806 13.106-5.53 18.84-3.324 9.803 3.767 9.803 3.767 7.652 7.787-3.013 5.647-17.119-5.914-23.04 1.098-.021.021-.041.045-.059.066" fill="none" stroke="#000" stroke-width="6.8649"/><path d="m801.64 351.67c8.311 28.53 5.94 43.39-3.59 62.4-9.5 19.03-30.71 44.56-30.71 44.56-2.53 3.98-4.52 8.49-5.53 13.89-2.38 12.69 4.75 34.681 4.75 34.681l.601 285.13-34.99-.15.61-285.13s7.13-21.979 4.75-34.66c-1.011-5.42-3-9.939-5.54-13.909 0 0-21.221-25.53-30.721-44.561-9.5-19.01-11.88-33.87-3.569-62.4 8.33-28.53 18.03-46.6 33.28-53.5 9.1-4.11 19.43-4.52 19.43-4.52 6.229.25 10.24 1.2 17.939 4.67 15.25 6.899 24.97 24.959 33.29 53.499z" fill="#c8c8c8"/><path d="m750.41 293.5c6.229.25 10.24 1.2 17.939 4.67 15.25 6.9 24.971 24.96 33.29 53.5 8.311 28.53 5.94 43.39-3.59 62.4-9.5 19.03-30.71 44.56-30.71 44.56-2.53 3.98-4.52 8.49-5.53 13.89-2.38 12.69 4.75 34.681 4.75 34.681l.601 285.13-34.99-.15.61-285.13s7.13-21.979 4.75-34.66c-1.011-5.42-3-9.939-5.54-13.909 0 0-21.221-25.53-30.721-44.561-9.5-19.01-11.88-33.87-3.569-62.4 8.33-28.53 18.03-46.6 33.28-53.5 9.1-4.111 19.43-4.521 19.43-4.521z" fill="none" stroke="#231f20" stroke-width="14"/></svg>