<svg enable-background="new 0 0 850.394 850.394" height="850.394" viewBox="0 0 850.394 850.394" width="850.394" xmlns="http://www.w3.org/2000/svg"><path d="m76.283 506.146c-2.601-6.768-3.953-13.713-3.953-20.794 0-69.864 131.285-126.49 293.234-126.49 161.957 0 293.225 56.626 293.225 126.49 0 6.469-1.122 12.828-3.298 19.034-2.959 8.459-7.855 16.637-14.495 24.458l-3.188-2.134c-203.605-178.526-519.852-40.806-541.7 6.801l-.91.884c-8.739-8.935-15.149-18.397-18.915-28.249z" fill="#fff"/><path d="m365.963 768.137c-119.409-.519-239.744-18.609-289.68-261.991 3.766 9.853 10.176 19.314 18.916 28.249 44.402 45.499 148.729 77.446 270.365 77.446 126.532 0 234.328-34.565 275.432-82.997 6.64-7.821 11.536-15.999 14.495-24.458-50.889 264.898-183.236 264.006-289.527 263.776v-.025z" fill="#a9d7f3"/><path d="m637.808 526.71 3.188 2.134c-41.104 48.432-148.899 82.997-275.432 82.997-121.636 0-225.963-31.947-270.365-77.446l.91-.884c21.847-47.607 338.093-185.327 541.699-6.801z" fill="#f6cc4b"/><path d="m76.283 506.146c-2.601-6.768-3.953-13.713-3.953-20.794 0-69.864 131.285-126.49 293.234-126.49 161.957 0 293.225 56.626 293.225 126.49 0 6.469-1.122 12.828-3.298 19.034-2.959 8.459-7.855 16.637-14.495 24.458-41.104 48.432-148.899 82.997-275.432 82.997-121.636 0-225.963-31.947-270.365-77.446-8.74-8.935-15.15-18.397-18.916-28.249z" fill="none" stroke="#010101" stroke-width="21"/><path d="m73.121 489.959c1.02 5.5 2.065 10.898 3.162 16.187 49.937 243.382 170.271 261.473 289.68 261.991 1.938.009 3.868.009 5.806.009" fill="none" stroke="#010101" stroke-width="21"/><path d="m656.909 496.819c-.467 2.542-.935 5.066-1.419 7.566-50.889 264.898-183.236 264.006-289.527 263.776-2.891-.009-5.764-.017-8.62-.017" fill="none" stroke="#010101" stroke-width="17.8526"/><path d="m96.108 533.511c21.848-47.606 338.094-185.327 541.7-6.801" fill="none" stroke="#010101" stroke-width="14"/><path d="m264.177 207.063c-45.592 38.579 59.832 72.864 0 136.02" fill="none" stroke="#010101" stroke-width="14"/><path d="m361.092 179.859c-44.207 37.406 61.209 71.411 0 136.02" fill="none" stroke="#010101" stroke-width="14"/><path d="m461.406 207.063c-44.207 37.405 61.209 71.411 0 136.02" fill="none" stroke="#010101" stroke-width="14"/><path d="m0 0h850.394v850.394h-850.394z" fill="none"/><path d="m705.341 108.443c-8.26.03-16.005 1.031-22.975 2.794-16.438 4.152-28.573 12.532-33.019 22.383-.719 1.593-1.234 3.224-1.537 4.884-1.024 5.646 4.292 13.387 4.292 13.387s9.079 9.604 14.475 17.549c-4.737-1.357-9.281-2.958-13.606-4.774-28.185-11.827-46.921-32.792-46.921-56.685 0-36.938 44.771-66.875 100.003-66.875l-.126-.017c55.231 0 100.003 29.938 100.003 66.875 0 23.893-18.736 44.858-46.921 56.688-4.325 1.813-8.869 3.417-13.604 4.774 4.578-6.717 11.751-14.461 13.613-16.438-.093.113-.187.223-.282.33l.595-.659.047-.05c-.017.017-.03.033-.047.05-.069.073-.159.167-.272.286 3.28-3.926 5.106-9.984 5.106-14.458 0-12.455-15.106-23.144-35.782-27.705-6.884-1.521-14.386-2.359-22.15-2.359l-.485.017c-.138 0-.273 0-.407.003z" fill="#ffeec8"/><path d="m705.341 108.443c.134-.003.27-.003.406-.003l.485-.017c7.765 0 15.267.838 22.15 2.359 20.676 4.561 35.782 15.25 35.782 27.705 0 4.475-1.826 10.533-5.106 14.458-.003.003-.01.01-.01.013-.01.01-.021.02-.03.03-1.862 1.977-9.035 9.721-13.613 16.438h-.003c.961-2.848 1.477-5.852 1.477-8.966 0-5.622-2.029-10.39-5.462-14.275-2.608-2.958-6.028-5.409-9.987-7.342-7.266-3.553-16.341-5.359-25.5-5.359-4.527 0-8.999.493-13.227 1.451l-.127-.642-10.123-22.715-.087-.339c6.97-1.764 14.715-2.766 22.975-2.796z" fill="#9e5b16"/><path d="m745.402 169.427v.003c-1.271 1.863-2.342 3.646-3.044 5.206-3.633 8.074-3.633 73.056-3.633 80.322 0 1.77-.569 4.455-1.753 7.432-1.587-7.588-14.672-13.503-30.584-13.503-16.963 0-30.716 6.73-30.739 15.031-1.623-3.566-2.396-6.88-2.396-8.942 0-7.266 0-72.248-3.633-80.322-.625-1.387-1.55-2.971-2.658-4.641l-.003-.003c-.053-.167-.104-.333-.153-.502-.755-2.545-1.157-5.213-1.157-7.958 0-5.229 1.7-9.814 4.627-13.676 2.359-3.121 5.52-5.772 9.235-7.915 3.886-2.246 8.381-3.936 13.191-5.023 4.228-.958 8.699-1.451 13.227-1.451 9.159 0 18.234 1.807 25.5 5.359 3.959 1.933 7.379 4.385 9.987 7.342 3.433 3.886 5.462 8.653 5.462 14.275.001 3.114-.515 6.118-1.476 8.966z" fill="#ffeec8"/><path d="m736.973 262.39c-3.071 7.722-10.29 17.403-22.506 18.131l-17.15.006c-11.313-.765-18.311-9.231-21.667-16.61.023-8.3 13.776-15.031 30.739-15.031 15.912.001 28.997 5.916 30.584 13.504z" fill="#ffeec8"/><path d="m679.512 139.958c-3.716 2.143-6.876 4.794-9.235 7.915l-20.366-14.089-.563-.163c4.445-9.851 16.581-18.231 33.019-22.383l.087.339 10.123 22.715.127.642c-4.811 1.088-9.307 2.778-13.192 5.024z" fill="#9e5b16"/><path d="m649.91 133.784 20.366 14.089c-2.927 3.862-4.627 8.447-4.627 13.676 0 2.745.402 5.413 1.157 7.958-.076-.02-.152-.04-.229-.066-5.396-7.944-14.475-17.549-14.475-17.549s-5.316-7.741-4.292-13.387c.303-1.66.818-3.291 1.537-4.884z" fill="#9e5b16"/><g fill="none"><path d="m667.126 169.6c-.106-.03-.213-.06-.319-.093-.076-.02-.152-.04-.229-.066-4.737-1.357-9.281-2.958-13.606-4.774" stroke="#000" stroke-width="7.2654"/><path d="m759.009 164.653c28.185-11.83 46.921-32.795 46.921-56.688 0-36.938-44.771-66.875-100.003-66.875l.126.017c-55.231 0-100.003 29.938-100.003 66.875 0 23.893 18.736 44.858 46.921 56.685" stroke="#000" stroke-width="7.2654"/><path d="m745.405 169.427c4.734-1.357 9.278-2.961 13.604-4.774" stroke="#000" stroke-width="7.2654"/><path d="m744.854 169.586c.183-.053.366-.103.549-.16" stroke="#000" stroke-width="7.2654"/><path d="m759.059 152.946c.113-.12.203-.213.272-.286.017-.017.03-.033.141-.15-.004.003-.007.007-.011.01l-.083.09-.047.05-.595.659c.096-.106.189-.216.282-.33.01-.01.021-.02.03-.03.001-.003.008-.01.011-.013 3.28-3.926 5.106-9.984 5.106-14.458 0-12.455-15.106-23.144-35.782-27.705-6.884-1.521-14.386-2.359-22.15-2.359l-.485.017c-.137 0-.272 0-.406.003-8.26.03-16.005 1.031-22.975 2.794-16.438 4.152-28.573 12.532-33.019 22.383-.719 1.593-1.234 3.224-1.537 4.884-1.024 5.646 4.292 13.387 4.292 13.387s9.079 9.604 14.475 17.549c.13.189.257.383.383.569" stroke="#000" stroke-width="7.2654"/><path d="m745.402 169.427h.003c4.578-6.717 11.751-14.461 13.613-16.438" stroke="#000" stroke-width="7.2654"/><path d="m666.963 170.012c1.108 1.67 2.033 3.253 2.658 4.641 3.633 8.074 3.633 73.057 3.633 80.322 0 2.063.772 5.376 2.396 8.942 3.356 7.379 10.354 15.845 21.667 16.61l17.15-.006c12.216-.729 19.435-10.41 22.506-18.131 1.184-2.977 1.753-5.662 1.753-7.432 0-7.266 0-72.248 3.633-80.322.702-1.56 1.773-3.343 3.044-5.206" stroke="#000" stroke-width="7.2654"/><path d="m675.649 263.938c0-.007 0-.014 0-.02.023-8.3 13.776-15.031 30.739-15.031 15.912 0 28.997 5.915 30.584 13.503.003.003.003.007.003.01" stroke="#000" stroke-width="7.2654"/><path d="m666.97 170.039c-.003-.01-.007-.017-.007-.026l-.003-.003c-.053-.167-.104-.333-.153-.502-.755-2.545-1.157-5.213-1.157-7.958 0-5.229 1.7-9.814 4.627-13.676 2.359-3.121 5.52-5.772 9.235-7.915 3.886-2.246 8.381-3.936 13.191-5.023 4.228-.958 8.699-1.451 13.227-1.451 9.159 0 18.234 1.807 25.5 5.359 3.959 1.933 7.379 4.385 9.987 7.342 3.433 3.886 5.462 8.653 5.462 14.275 0 3.114-.516 6.118-1.477 8.966v.003" stroke="#000" stroke-width="7.2654"/><path d="m705.341 108.423v.02 22.436" stroke="#000" stroke-width="7.2654"/><path d="m682.453 111.577 10.123 22.715" stroke="#000" stroke-width="7.2654"/><path d="m664.994 121.235 14.518 18.723" stroke="#000" stroke-width="7.2654"/><path d="m649.91 133.784 20.366 14.089.09.063" stroke="#000" stroke-width="7.2654"/><path d="m728.575 110.346-.192.436-9.931 22.283" stroke="#000" stroke-width="7.2654"/><path d="m746.038 120.004-14.608 18.839" stroke="#000" stroke-width="7.2654"/><path d="m761.118 132.553-19.701 13.633" stroke="#000" stroke-width="7.2654"/></g><path d="m787.64 353.67c8.311 28.53 5.94 43.39-3.59 62.4-9.5 19.03-30.71 44.56-30.71 44.56-2.53 3.98-4.52 8.49-5.53 13.89-2.38 12.69 4.75 34.681 4.75 34.681l.601 285.13-34.99-.15.61-285.13s7.13-21.979 4.75-34.66c-1.011-5.42-3-9.939-5.54-13.909 0 0-21.221-25.53-30.721-44.561-9.5-19.01-11.88-33.87-3.569-62.4 8.33-28.53 18.03-46.6 33.28-53.5 9.1-4.11 19.43-4.52 19.43-4.52 6.229.25 10.24 1.2 17.939 4.67 15.25 6.899 24.97 24.959 33.29 53.499z" fill="#c8c8c8"/><path d="m736.41 295.5c6.229.25 10.24 1.2 17.939 4.67 15.25 6.9 24.971 24.96 33.29 53.5 8.311 28.53 5.94 43.39-3.59 62.4-9.5 19.03-30.71 44.56-30.71 44.56-2.53 3.98-4.52 8.49-5.53 13.89-2.38 12.69 4.75 34.681 4.75 34.681l.601 285.13-34.99-.15.61-285.13s7.13-21.979 4.75-34.66c-1.011-5.42-3-9.939-5.54-13.909 0 0-21.221-25.53-30.721-44.561-9.5-19.01-11.88-33.87-3.569-62.4 8.33-28.53 18.03-46.6 33.28-53.5 9.1-4.111 19.43-4.521 19.43-4.521z" fill="none" stroke="#231f20" stroke-width="14"/></svg>