<svg enable-background="new 0 0 850.394 850.394" height="850.394" viewBox="0 0 850.394 850.394" width="850.394" xmlns="http://www.w3.org/2000/svg"><path d="m274.314 396.254c9.798-11.089 31.218-9.396 34.732-26.376 2.117-10.234-5.815-14.937-11.154-21.957-5.321-6.994-35.46-46.357-50.806-56.711-15.722-10.602-42.548-22.452-77.699-12.816 0 0-26.457 5.925-44.94 29.249 0 0-16.308 17.374-28.633 23.342-6.836 3.3-8.602 6.985-9.187 11.251-.594 4.386.067 9.396-2.234 15.219-.51 1.291-.92 2.514-1.23 3.694-2.276 8.567.669 14.62 9.748 23.897 10.342 10.559 15.044 15.373 31.536 32.225 16.492 16.853 47.844 30.182 86.083 25 32.724-4.438 42.991-20.178 52.371-30.925 6.995-8.028 10.827-14.133 11.354-14.988 0-.008.008-.017.017-.025.025-.053.042-.079.042-.079z" fill="#fbed24"/><path d="m338.424 516.261-1.682-.008c-3.749-1.368-7.949-1.839-12.526-1.095-17.438 2.864-15.086 22.862-10.3 32.841 11.647 24.281 6.317 33.216 7.798 51.744.569 7.045 8.426 20.725 24.842 17.527l.879-.257c-5.857-20.879-9.313-42.86-9.313-65.21 0-12.329.15-20.965.519-35.543h-.217z" fill="#ffeec8"/><path d="m449.767 384.643c30.549 21.777 133.5 56.464 146.578 66.271 0 0 23.369 24.624 39.568 45.811 5.824 7.609 10.71 14.783 13.263 20.203l1.531-50.504c0-80.558-64.345-127.318-64.345-127.318-7.446-5.172-12.425-7.772-12.425-7.772-32.816-19.947-75.264-26.983-129.4-20.528-65.365 7.781-115.526 74.308-125.09 157.123-1.548 13.457 2.494 32.985 4.77 47.229 4.577-.744 8.777-.273 12.526 1.095l1.682.008c.075-.358.159-.709.243-1.068 5.991-24.675 32.197-45.699 38.916-55.19 27.445-38.714 49.827-59.123 61.993-68.596 6.393-4.976 9.966-6.926 9.966-6.926.073.051.148.102.224.162z" fill="#9c5c25"/><path d="m391.497 534.199.896 2.967c-.627 1.556-.452 2.787-.452 5.463 0 9.765 8.133 17.698 18.124 17.698 10.024 0 18.148-7.934 18.148-17.698 0-1.394.176-2.009.226-2.582l4.234-.82c-6.585-5.421-15.078-8.781-23.387-8.978-6.368-.145-12.325 1.334-17.789 3.95zm12.133 8.584c0-3.301 2.92-5.959 6.535-5.959 3.623 0 6.56 2.658 6.56 5.959 0 3.3-2.937 5.959-6.56 5.959-3.615 0-6.535-2.659-6.535-5.959z" fill="#fff"/><path d="m410.165 536.824c-3.615 0-6.535 2.658-6.535 5.959 0 3.3 2.92 5.959 6.535 5.959 3.623 0 6.56-2.659 6.56-5.959 0-3.301-2.937-5.959-6.56-5.959z" fill="#231f20"/><path d="m436.58 710.508s-4.426 6.07-4.777 7.096c0 0 3.731 17.947 11.195 26.471l.293-.051c-1.916-11.901-2.929-21.708-2.929-21.708s6.811-8.08 16.685-14.134c8.274-5.078 14.927-1.342 18.441 0 3.514 1.352 12.073 1.573 15.588.223 3.514-1.343 10.166-5.07 18.441 0 9.882 6.062 14.492 13.911 14.492 13.911s-.837 8.113-2.435 18.544l.46.077c7.463-8.524 11.195-23.786 11.195-23.786-1.322-3.805-21.956-27.368-29.854-32.07-7.907-4.711-20.198 4.48-20.198 4.48s-11.64-9.191-19.538-4.48c-6.618 3.932-21.403 17.706-27.059 25.427z" fill="#ef947d"/><path d="m491.076 708.404c-3.515 1.351-12.074 1.129-15.588-.223-3.515-1.342-10.167-5.078-18.441 0-9.874 6.054-16.685 14.134-16.685 14.134s1.013 9.807 2.929 21.708c.519 3.224 1.104 6.592 1.757 9.969.343 1.778.703 3.549 1.079 5.31 1.641 7.602 3.606 14.792 5.874 19.768 7.53 16.527 19.881 19.494 30.181 18.845-.033 0-.075-.009-.108-.009h.226c-.042 0-.075.009-.117.009 10.292.649 22.658-2.326 30.189-18.845 1.982-4.352 3.74-10.396 5.237-16.92 1.615-7.037 2.945-14.638 3.967-21.29 1.598-10.431 2.435-18.544 2.435-18.544s-4.61-7.85-14.492-13.911c-8.277-5.071-14.929-1.343-18.443-.001z" fill="#ef947d"/><path d="m410.064 560.327c-9.991 0-18.124-7.934-18.124-17.698 0-2.676-.176-3.907.452-5.463l-.896-2.967c5.464-2.616 11.421-4.096 17.789-3.95 8.309.196 16.802 3.557 23.387 8.978l-4.234.82c-.05.573-.226 1.188-.226 2.582.001 9.765-8.124 17.698-18.148 17.698zm131.308-23.418c5.856-3.719 12.709-5.951 19.42-6.104 7.781-.171 14.936 2.061 21.337 5.848l-4.293 1.488c.469 1.376.326 2.607.326 5.027 0 9.781-8.141 17.707-18.148 17.707-10.023 0-18.449-13.021-18.449-22.794zm-56.137 117.349c.21.042.427.076.645.11l-1.447-.094c.276 0 .544-.008.802-.016zm35.745 107.37c3.079-.539 1.456-.068 4.728-1.283 1.339-.487 2.703-1.051 4.108-1.684 35.402-20.272 77.138-74.521 95.487-140.074 5.975-21.323 9.472-43.853 9.472-66.783 0-7.602-.009-20.914-.117-33.772-.059-7.199-.143-14.253-.276-20.084l1.531-1.223c-16.199-21.187-39.568-45.811-39.568-45.811-13.078-9.807-116.029-44.494-146.578-66.271-1.171 1.479-6.476 4.882-10.191 6.763-12.166 9.473-34.548 29.882-61.993 68.596-6.719 9.491-32.925 30.516-38.916 55.19-.008.359-.017.718-.025 1.068-.368 14.578-.519 23.214-.519 35.543 0 22.35 3.456 44.331 9.313 65.21 18.115 64.595 59.207 118.563 91.998 139.929 2.017.991 3.966 1.838 5.882 2.573l.812-.214c-.376-1.761-.736-3.531-1.079-5.31-.652-3.377-1.238-6.745-1.757-9.969l-.293.051c-7.464-8.523-11.195-26.471-11.195-26.471.352-1.025 4.777-7.096 4.777-7.096 5.656-7.721 20.441-21.495 27.06-25.428 7.898-4.711 19.538 4.48 19.538 4.48s12.291-9.191 20.198-4.48c7.898 4.702 28.532 28.266 29.854 32.07 0 0-3.732 15.262-11.195 23.786l-.46-.077c-1.021 6.652-2.352 14.253-3.967 21.29l3.364-.521h.007z" fill="#ffeec8"/><path d="m560.072 536.858c-3.623 0-6.552 2.667-6.552 5.968 0 3.291 2.929 5.959 6.552 5.959 3.615 0 6.543-2.668 6.543-5.959 0-3.301-2.927-5.968-6.543-5.968z" fill="#231f20"/><path d="m560.792 530.805c-6.711.153-13.563 2.386-19.42 6.104l.192 1.172c0 9.772 8.426 22.794 18.449 22.794 10.008 0 18.148-7.926 18.148-17.707 0-2.42.143-3.651-.326-5.027l4.293-1.488c-6.4-3.788-13.555-6.019-21.336-5.848zm-7.271 12.021c0-3.301 2.929-5.968 6.552-5.968 3.615 0 6.543 2.667 6.543 5.968 0 3.291-2.928 5.959-6.543 5.959-3.624 0-6.552-2.668-6.552-5.959z" fill="#fff"/><path d="m625.304 618.587 1.531.444c16.416 3.206 24.273-10.474 24.843-17.519 1.48-18.527-3.85-27.463 7.798-51.744 4.786-9.986 7.138-29.984-10.3-32.841-4.577-.752-8.777-.282-12.526 1.086l-1.991.018c.108 12.858.117 26.171.117 33.772-.001 22.931-3.498 45.461-9.472 66.784z" fill="#ffeec8"/><path d="m598.428 551.137c-4.652-5.755-10.124-10.833-16.299-14.484-6.401-3.787-13.556-6.019-21.337-5.848-6.711.153-13.563 2.386-19.42 6.104-5.171 3.283-9.581 7.703-12.442 12.885" fill="none" stroke="#231f20" stroke-linecap="square" stroke-miterlimit="10" stroke-width="11.8414"/><path d="m541.564 538.081c0 9.772 8.426 22.794 18.449 22.794 10.008 0 18.148-7.926 18.148-17.707 0-2.42.143-3.651-.326-5.027" fill="none" stroke="#231f20" stroke-linecap="square" stroke-miterlimit="10" stroke-width="10.7451"/><path d="m371.659 550.581c5.522-6.832 12.199-12.723 19.838-16.382 5.464-2.616 11.421-4.096 17.789-3.95 8.309.196 16.802 3.557 23.387 8.978 3.447 2.83 6.376 6.224 8.476 10.029" fill="none" stroke="#231f20" stroke-linecap="square" stroke-miterlimit="10" stroke-width="11.8414"/><path d="m428.438 540.047c-.05.573-.226 1.188-.226 2.582 0 9.765-8.125 17.698-18.148 17.698-9.991 0-18.124-7.934-18.124-17.698 0-2.676-.176-3.907.452-5.463" fill="none" stroke="#231f20" stroke-linecap="square" stroke-miterlimit="10" stroke-width="10.7451"/><path d="m553.521 542.826c0 3.291 2.929 5.959 6.552 5.959 3.615 0 6.543-2.668 6.543-5.959 0-3.301-2.928-5.968-6.543-5.968-3.624 0-6.552 2.667-6.552 5.968z" fill="none" stroke="#231f20" stroke-width="5.3726"/><path d="m403.63 542.783c0 3.3 2.92 5.959 6.535 5.959 3.623 0 6.56-2.659 6.56-5.959 0-3.301-2.937-5.959-6.56-5.959-3.615 0-6.535 2.658-6.535 5.959z" fill="none" stroke="#231f20" stroke-width="5.3726"/><path d="m383.289 566.227c25.311-6.472 55.366-4.044 55.366-4.044" fill="none" stroke="#231f20" stroke-width="5.9207"/><path d="m586.848 566.757c-25.311-6.472-55.374-4.044-55.374-4.044" fill="none" stroke="#231f20" stroke-width="5.9207"/><path d="m514.597 530.659 64.862-24.248" fill="none" stroke="#231f20" stroke-width="11.8414"/><path d="m448.938 526.88-64.862-24.247" fill="none" stroke="#231f20" stroke-width="11.8414"/><path d="m636.649 518.014c3.749-1.368 7.949-1.838 12.526-1.086 17.438 2.856 15.086 22.854 10.3 32.841-11.647 24.281-6.317 33.217-7.798 51.744-.569 7.045-8.427 20.725-24.843 17.519" fill="none" stroke="#231f20" stroke-width="11.8414"/><path d="m336.742 516.253c-3.749-1.368-7.949-1.839-12.526-1.095-17.438 2.864-15.086 22.862-10.3 32.841 11.647 24.281 6.317 33.216 7.798 51.744.569 7.045 8.426 20.725 24.842 17.527" fill="none" stroke="#231f20" stroke-width="11.8414"/><path d="m525.708 760.345c1.339-.487 2.703-1.051 4.108-1.684 35.402-20.272 77.138-74.521 95.487-140.074 5.975-21.323 9.472-43.853 9.472-66.783 0-7.602-.009-20.914-.117-33.772-.059-7.199-.143-14.253-.276-20.084" fill="none" stroke="#231f20" stroke-width="11.8414"/><path d="m520.98 761.628c3.079-.539 1.456-.068 4.728-1.283" fill="none" stroke="#231f20" stroke-width="16.1177"/><path d="m338.717 513.269c-.017.649-.034 1.3-.05 1.924-.008.359-.017.718-.025 1.068-.368 14.578-.519 23.214-.519 35.543 0 22.35 3.456 44.331 9.313 65.21 18.115 64.595 59.207 118.563 91.998 139.929 2.017.991 3.966 1.838 5.882 2.573" fill="none" stroke="#231f20" stroke-width="11.8414"/><path d="m485.235 654.258c-8.124-1.539-6.677-6.456-15.379-4.301-7.521 1.863-15.487 5.694-17.361-6.311-1.289-8.259 4.785-9.345 8.016-15.979" fill="none" stroke="#231f20" stroke-width="11.8414"/><path d="m485.235 654.258c-.259.008-.526.017-.803.017l1.447.094c-.217-.035-.434-.069-.644-.111z" fill="none" stroke="#231f20" stroke-width="11.8414"/><path d="m510.63 551.281c-13.471 15.117-9.396 50.616-3.363 69.102l2.535 7.198c3.23 6.627 9.296 7.713 8.016 15.98-1.874 11.995-9.848 8.165-17.354 6.31-8.677-2.138-6.702 4.019-15.229 4.387" fill="none" stroke="#231f20" stroke-width="11.8414"/><path d="m324.216 515.158c-2.276-14.244-6.317-33.772-4.77-47.229 9.564-82.815 59.726-149.342 125.09-157.123 54.137-6.455 96.584.582 129.4 20.528 0 0 4.979 2.6 12.425 7.772 0 0 64.345 46.76 64.345 127.318l-1.531 50.504c-2.553-5.42-7.438-12.594-13.263-20.203-16.199-21.187-39.568-45.811-39.568-45.811-13.078-9.807-116.029-44.494-146.578-66.271-.075-.06-.15-.111-.226-.163 0 0-3.573 1.95-9.966 6.926-12.166 9.473-34.548 29.882-61.993 68.596-6.719 9.491-32.925 30.516-38.916 55.19-.084.359-.167.71-.243 1.068-.494 2.24-.812 4.515-.929 6.806" fill="none" stroke="#231f20" stroke-width="11.8414"/><path d="m436.137 392.731c.577.008 1.866-.521 3.438-1.325 3.716-1.881 9.021-5.284 10.191-6.763.109-.137.185-.248.218-.351-9.363-9.319-16.751-24.513-16.751-39.928" fill="none" stroke="#231f20" stroke-width="11.8414"/><path d="m274.272 396.331c.025-.051.042-.077.042-.077 9.798-11.089 31.218-9.396 34.732-26.376 2.117-10.234-5.815-14.937-11.154-21.957-5.321-6.994-35.46-46.357-50.806-56.711-15.722-10.602-42.548-22.452-77.699-12.816 0 0-26.457 5.925-44.94 29.249 0 0-16.308 17.374-28.633 23.342-6.836 3.3-8.602 6.985-9.187 11.251-.594 4.386.067 9.396-2.234 15.219-.51 1.291-.92 2.514-1.23 3.694-2.276 8.567.669 14.62 9.748 23.897 10.342 10.559 15.044 15.373 31.536 32.225 16.492 16.853 47.844 30.182 86.083 25 32.724-4.438 42.991-20.178 52.371-30.925 6.995-8.028 10.827-14.133 11.354-14.988" fill="none" stroke="#231f20" stroke-width="11.8414"/><path d="m87.841 341.859c-.402.145-.812.265-1.213.376-3.799 1.043-7.756.804-9.354 1.522-2.46 1.094-2.761 4.146-2.896 6.891-.217 4.096 2.368 4.515 5.154 6.583 1.205.889 2.519 2.445 3.631 3.916.117.137.226.282.327.419" fill="none" stroke="#231f20" stroke-width="11.8414"/><path d="m279.208 375.785c.578 4.839-2.577 15.732-4.937 20.546-.008.008-.017.017-.017.025-.167.333-.327.642-.485.915" fill="none" stroke="#231f20" stroke-width="11.8414"/><path d="m442.998 744.074c-7.464-8.523-11.195-26.471-11.195-26.471.352-1.025 4.777-7.096 4.777-7.096 5.656-7.721 20.441-21.495 27.06-25.428 7.898-4.711 19.538 4.48 19.538 4.48s12.291-9.191 20.198-4.48c7.898 4.702 28.532 28.266 29.854 32.07 0 0-3.732 15.262-11.195 23.786" fill="none" stroke="#231f20" stroke-width="11.8414"/><path d="m482.182 797.914c10.292.649 22.658-2.326 30.189-18.845 1.982-4.352 3.74-10.396 5.237-16.92 1.615-7.037 2.945-14.638 3.967-21.29 1.598-10.431 2.435-18.544 2.435-18.544s-4.61-7.85-14.492-13.911c-8.275-5.07-14.928-1.343-18.441 0-3.515 1.351-12.074 1.129-15.588-.223-3.515-1.342-10.167-5.078-18.441 0-9.874 6.054-16.685 14.134-16.685 14.134s1.013 9.807 2.929 21.708c.519 3.224 1.104 6.592 1.757 9.969" fill="none" stroke="#231f20" stroke-width="11.8414"/><path d="m482.182 797.914c.042 0 .075-.009.117-.009h-.226c.033 0 .075.009.109.009z" fill="none" stroke="#231f20" stroke-width="11.8414"/><path d="m445.048 753.992c.343 1.778.703 3.549 1.079 5.31 1.641 7.602 3.606 14.792 5.874 19.768 7.53 16.527 19.881 19.494 30.181 18.845" fill="none" stroke="#231f20" stroke-width="11.8414"/><path d="m483.178 709.755s-4.394 25.804-2.192 48.222" fill="none" stroke="#231f20" stroke-width="11.8414"/><path d="m0 0h850.394v850.394h-850.394z" fill="none"/><path d="m790.604 127.26c8.065 1.294 6.978 10.347 4.762 14.857-5.386 10.992-2.922 15.039-3.604 23.422-.256 3.097-3.695 9.033-10.868 8.028 2.138-9.272 3.282-19.248 3.282-29.723 0-5.581-.07-9.492-.243-16.081v-.004h.103l.777-.004c1.183-.422 2.456-.657 3.82-.657.64.001 1.298.055 1.971.162z" fill="#ffeec8"/><path d="m807.367 274.022-43.625-.228c.174-4.742-.004-8.197-.078-9.326v-.004c.004-.12.008-.24.008-.36 0-.083-.004-.161-.008-.248-.025-.715-.174-1.422-.442-2.112l.326-.12c3.308 1.654 9.095.827 14.882-2.48l.476-1.493c10.165 5.296 21.394 9.707 29.173 15.325z" fill="#a9d7f3"/><path d="m763.672 264.105c0-.083 0-.165-.008-.248.004.087.008.165.008.248z" fill="#ffeec8"/><path d="m756.28 273.753c4.506-2.654 7.201-5.845 7.384-9.285.074 1.129.252 4.584.078 9.326z" fill="#fff"/><path d="m761.956 259.492c.555.731.98 1.484 1.266 2.253.269.69.417 1.397.442 2.112-.079-1.215-.712-2.757-1.708-4.365z" fill="#9e5b16"/><path d="m757.454 133.643c.025.104.038.207.046.314-.008-.107-.024-.215-.046-.314z" fill="#abda4d"/><path d="m756.735 138.749c-.111.219-.231.43-.364.637.129-.208.253-.419.364-.637z" fill="#abda4d"/><path d="m754.929 273.745 1.352.008c-.524.31-1.074.612-1.646.906l-.004-.004c.107-.302.207-.604.298-.91z" fill="#9e5b16"/><path d="m763.672 264.105c0 .12-.004.24-.008.36v.004c-.183 3.439-2.878 6.631-7.384 9.285l-1.352-.008c.376-1.228.624-2.48.769-3.741.732-6.35-1.24-12.869-3.865-17.528 4.522 1.968 8.132 4.361 10.124 7.015.996 1.608 1.629 3.15 1.708 4.365.008.083.008.165.008.248z" fill="#ffffc2"/><path d="m755.945 139.989c-.227.289-.475.562-.739.818.265-.26.513-.533.739-.818z" fill="#abda4d"/><path d="m755.697 270.004c-.145 1.261-.393 2.513-.769 3.741l-69.93-.364c-.004 0-.004 0-.004-.004-.148-.091-.293-.182-.438-.277-.732-.476-1.406-.963-2.018-1.468l.81-.087c1.542-8.561 4.668-15.366 8.785-20.574 3.638-4.597 8.045-7.95 12.819-10.157.004.004.004.013.008.017 3.386 7.263 8.934 8.57 13.56 8.28 4.626.29 10.174-1.017 13.56-8.28.178-.384.355-.802.524-1.244 6.982 2.435 13.097 6.937 17.007 13.154.442.703.947 1.418 1.394 2.216 3.08 5.469 2.683 7.279 4.692 15.047z" fill="#ffffc2"/><path d="m754.631 274.655.004.004c-7.821 4.018-20.008 6.606-33.691 6.606-7.229 0-14.038-.72-20.008-1.997-6.275-1.335-11.624-3.282-15.552-5.651-.132-.079-.261-.157-.385-.236l69.93.364c-.091.306-.191.608-.298.91z" fill="#ffffc2"/><path d="m755.268 221.856c-4.01 18.292 8.665 28.003 23.638 35.795l-.476 1.493c-5.787 3.307-11.574 4.134-14.882 2.48l-.326.12c-.285-.769-.711-1.521-1.266-2.253-1.992-2.654-5.602-5.047-10.124-7.015 2.625 4.659 4.598 11.178 3.865 17.528-2.009-7.768-1.612-9.579-4.691-15.048-.446-.798-.951-1.513-1.394-2.216-3.91-6.217-10.024-10.719-17.007-13.154.637-1.646 1.216-3.654 1.729-5.8l.417.103c7.329-2.704 14.093-6.94 20.107-12.472z" fill="#ffeec8"/><path d="m746.748 135.553c0 1.401 1.272 2.534 2.844 2.534s2.844-1.133 2.844-2.534c0-1.397-1.272-2.534-2.844-2.534s-2.844 1.137-2.844 2.534zm10.752-1.596c.037.401.013.856.013 1.53 0 1.17-.281 2.273-.777 3.262-.111.219-.235.43-.364.637-.128.207-.272.409-.426.604-.227.285-.475.558-.739.818-1.427 1.36-3.398 2.203-5.568 2.203-4.357 0-7.884-3.369-7.884-7.523 0-.591-.078-.848-.095-1.096l-2.241-.021c2.91-2.493 6.784-4.055 10.554-4.142 2.766-.058 5.35.566 7.727 1.683l-.393 1.256c.066.161.116.314.148.471.005 0 .005 0 0 .004.021.099.037.207.045.314z" fill="#abda4d"/><ellipse cx="749.592" cy="135.553" rx="2.844" ry="2.534"/><path d="m741.146 213.816s-1.675 7.888-5.027 11.633l-.136-.021c.863-5.233 1.318-9.541 1.318-9.541s-3.055-3.551-7.495-6.213c-3.712-2.228-6.701-.591-8.275 0-1.584.595-5.424.69-7.003.099s-4.568-2.228-8.285 0c-4.431 2.667-6.506 6.114-6.506 6.114s.38 3.567 1.095 8.152l-.206.033c-3.353-3.745-5.027-10.455-5.027-10.455.592-1.674 9.859-12.025 13.406-14.093 3.551-2.075 9.07 1.968 9.07 1.968s5.229-4.043 8.776-1.968c2.972 1.728 9.606 7.776 12.149 11.174.001.001 1.989 2.667 2.146 3.118z" fill="#ee947d"/><path d="m733.396 68.567c-.488-.306-.74-.438-.74-.438-.033.021-.058.041-.091.062-14.109 9.855-61.736 25.556-67.792 29.996 0 0-10.811 11.145-18.297 20.731-2.688 3.448-4.948 6.689-6.135 9.144l-.703-22.856c0-36.453 29.748-57.61 29.748-57.61 3.447-2.34 5.746-3.518 5.746-3.518 15.18-9.024 34.804-12.208 59.834-9.293 30.224 3.526 53.419 33.633 57.842 71.104.72 6.093-1.009 12.534-2.063 18.979l-2.112 2.232c-1.364 0-2.638.235-3.82.657l-.777.004c-.037-.169-.074-.334-.115-.5-2.782-11.162-14.887-20.666-17.995-24.957-16.743-23.125-29.418-31.819-32.53-33.737z" fill="#9c5b16"/><path d="m732.605 239.587c-.169.442-.347.86-.524 1.244-3.386 7.263-8.934 8.57-13.56 8.28.017-.004.033-.004.05-.004h-.1c.017 0 .033 0 .05.004-4.626.29-10.174-1.017-13.56-8.28-.004-.004-.004-.012-.008-.017 8.839-4.092 18.926-4.274 27.652-1.227z" fill="#ffffc2"/><path d="m700.936 279.268c5.97 1.277 12.778 1.997 20.008 1.997 13.684 0 25.87-2.588 33.691-6.606.571-.294 1.121-.596 1.646-.906l7.462.042c-.472 12.927-3.567 35.444-18.603 46.684-5.994 4.481-13.886 7.172-24.266 6.747l.107.033c-36.742 1.509-42.315-36.019-42.89-53.915l6.903.033s0 .004.004.004c.124.079.253.157.385.236 3.929 2.369 9.277 4.316 15.553 5.651z" fill="#fbee34"/><path d="m673.949 133.556 2.725.563c-.05.417-.017.889-.017 1.6 0 1.951.777 3.725 2.051 5.06.761.802 1.703 1.447 2.766 1.873.942.38 1.976.591 3.063.591 2.312 0 4.391-.951 5.829-2.464 1.273-1.335 2.046-3.109 2.046-5.06l1.521-1.765c-2.799-2.112-6.304-3.415-9.731-3.493-1.261-.025-2.488.091-3.671.331-.215.042-.43.087-.641.141-.426.104-.843.223-1.257.36-.413.132-.822.281-1.224.446-1.207.486-2.36 1.102-3.46 1.817zm83.505.083c-.032-.157-.082-.31-.148-.471l.393-1.256c-2.377-1.116-4.961-1.741-7.727-1.683-3.77.087-7.644 1.649-10.554 4.142l2.241.021c.017.248.095.504.095 1.096 0 4.154 3.526 7.523 7.884 7.523 2.17 0 4.142-.843 5.568-2.203.265-.256.513-.529.739-.818.153-.194.298-.397.426-.604.133-.207.253-.418.364-.637.496-.988.777-2.092.777-3.262 0-.674.024-1.128-.013-1.53-.008-.107-.021-.21-.046-.314.006-.004.006-.004.001-.004zm-38.862 51.653c-.096.017-.182.029-.281.045l.67-.041c-.128 0-.257 0-.372-.004-.005 0-.013 0-.017 0zm13.972-117.101c.157.141.45.265.831.376 3.112 1.918 15.787 10.612 32.529 33.737 3.108 4.291 15.213 13.795 17.995 24.957.004.169.008.335.013.5v.004c.173 6.589.243 10.5.243 16.081 0 10.475-1.145 20.45-3.282 29.723-4.589 19.917-13.758 36.573-26.035 47.85-6.015 5.531-12.778 9.768-20.107 12.472l-.417-.103c.31-1.29.599-2.633.863-3.977.294-1.484.555-2.968.786-4.382l.136.021c3.353-3.745 5.027-11.633 5.027-11.633-.157-.451-2.146-3.117-2.146-3.117-2.543-3.398-9.178-9.446-12.149-11.174-3.547-2.075-8.776 1.968-8.776 1.968s-5.52-4.043-9.07-1.968c-3.547 2.067-12.814 12.418-13.406 14.093 0 0 1.675 6.709 5.027 10.455l.206-.033c.575 3.679 1.373 8.007 2.369 11.678l-.372.104c-10.476-2.472-19.967-7.962-28.028-15.829v-.004c-.355-.347-.707-.698-1.058-1.054-10.844-11.038-18.983-26.453-23.291-44.634-2.244-9.479-3.447-19.706-3.447-30.454 0-3.439.004-9.471.054-15.288.004-.814.013-1.625.021-2.422.024-2.195.058-4.303.095-6.164.005-.169.009-.335.013-.5l-.711-.554c7.486-9.586 18.297-20.731 18.297-20.731 6.054-4.442 53.681-20.143 67.79-29.998z" fill="#ffeec8"/><path d="m718.571 249.107c-.017 0-.033 0-.05.004-.017-.004-.033-.004-.05-.004z" fill="#9e5b16"/><path d="m714.528 209.773c1.579.591 5.419.496 7.003-.099 1.574-.591 4.563-2.228 8.275 0 4.44 2.662 7.495 6.213 7.495 6.213s-.455 4.308-1.318 9.541c-.231 1.414-.492 2.898-.786 4.382-.265 1.344-.554 2.687-.863 3.977-.513 2.146-1.092 4.154-1.729 5.8-8.727-3.047-18.813-2.865-27.651 1.228-.641-1.38-1.228-3.146-1.753-5.097-.996-3.671-1.794-7.999-2.369-11.678-.715-4.584-1.095-8.152-1.095-8.152s2.075-3.448 6.506-6.114c3.717-2.229 6.706-.592 8.285-.001z" fill="#ee947d"/><path d="m684.995 273.377c0 .004 0 .004.004.004-.004 0-.004-.004-.004-.004z" fill="#ffffc2"/><path d="m684.995 273.377-6.903-.033c-.128-3.993-.009-7.007.07-8.396.037 2.369 1.732 4.646 4.324 6.689.637.504 1.335.992 2.071 1.463.145.095.29.187.438.277z" fill="#fff"/><path d="m687.352 135.574c0 1.397-1.273 2.53-2.84 2.53-1.575 0-2.84-1.133-2.84-2.53 0-1.401 1.265-2.542 2.84-2.542 1.566-.001 2.84 1.14 2.84 2.542z"/><path d="m684.536 143.242c-1.087 0-2.12-.211-3.063-.591.942.376 1.976.587 3.063.587 2.312 0 4.391-.951 5.829-2.459-1.438 1.512-3.517 2.463-5.829 2.463z" fill="#abda4d"/><path d="m683.35 271.546-.81.087c-2.77-2.273-4.324-4.828-4.324-7.528 1-6.614 1.435-10.12 12.575-13.229l1.344.095c-4.117 5.209-7.243 12.014-8.785 20.575z" fill="#ffffc2"/><path d="m684.558 273.101c-.736-.471-1.435-.959-2.071-1.463l.054-.004c.61.503 1.284.991 2.017 1.467z" fill="#fff"/><path d="m678.216 264.105c0 2.7 1.555 5.254 4.324 7.528l-.054.004c-2.592-2.042-4.287-4.32-4.324-6.689.021-.409.041-.678.05-.785.004-.037.004-.058.004-.058z" fill="#fff"/><path d="m680.53 130.791c-.215.042-.426.091-.641.141.212-.055.426-.1.641-.141z" fill="#abda4d"/><path d="m678.708 140.778c.761.798 1.703 1.442 2.766 1.873-1.063-.426-2.005-1.071-2.766-1.873z" fill="#abda4d"/><path d="m678.162 264.948c-.009-.26.008-.521.05-.785-.009.108-.029.376-.05.785z" fill="#a9d7f3"/><path d="m678.216 264.105s0 .021-.004.058c-.042.265-.059.525-.05.785-.079 1.389-.198 4.403-.07 8.396l-58.023-.306c8.02-6.42 20.652-11.178 31.814-17.098l1.703.724c0 5.94 11.931 7.441 24.63 7.441z" fill="#a9d7f3"/><path d="m678.633 131.291c-.413.132-.822.281-1.224.446.402-.165.811-.314 1.224-.446z" fill="#abda4d"/><path d="m684.512 138.104c1.566 0 2.84-1.133 2.84-2.53 0-1.401-1.273-2.542-2.84-2.542-1.575 0-2.84 1.141-2.84 2.542 0 1.397 1.265 2.53 2.84 2.53zm-10.563-4.548c1.1-.715 2.253-1.331 3.46-1.819.401-.166.811-.314 1.224-.446.414-.137.831-.256 1.257-.36.215-.05.426-.099.641-.141 1.183-.24 2.41-.355 3.671-.331 3.428.079 6.933 1.381 9.731 3.493l-1.521 1.765c0 1.951-.772 3.725-2.046 5.06-1.438 1.509-3.518 2.459-5.829 2.459-1.087 0-2.12-.211-3.063-.587-1.063-.43-2.005-1.075-2.766-1.873-1.273-1.335-2.051-3.109-2.051-5.06 0-.711-.033-1.182.017-1.6z" fill="#abda4d"/><path d="m674.801 219.988v.004c-.355-.347-.711-.703-1.058-1.058.351.356.702.707 1.058 1.054z" fill="#ffffc2"/><path d="m674.801 219.992c8.062 7.867 17.553 13.356 28.028 15.829l.372-.104c.525 1.952 1.112 3.717 1.753 5.097-4.774 2.208-9.182 5.56-12.819 10.157l-1.344-.095c-11.141 3.109-11.575 6.614-12.575 13.229-12.699 0-24.63-1.5-24.63-7.441l-1.703-.724c14.543-7.709 26.581-17.391 22.662-35.283z" fill="#ffeec8"/><path d="m647.174 119.972c-.037 1.86-.07 3.969-.095 6.164.025-2.195.054-4.303.095-6.164z" fill="#ffffc2"/><path d="m650.452 174.3c-7.44 1.29-11.004-4.808-11.261-7.966-.69-8.388 1.777-12.427-3.608-23.415-2.216-4.514-3.304-13.567 4.758-14.857 2.121-.343 4.063-.128 5.796.492l.922.004c-.05 5.816-.054 11.848-.054 15.288 0 10.748 1.203 20.975 3.447 30.454z" fill="#ffeec8"/><g fill="none"><path d="m647.079 126.136c.024-2.195.058-4.303.095-6.164" stroke="#231f20" stroke-width="5.7875"/><path d="m678.708 140.778c.761.798 1.703 1.442 2.766 1.873.942.376 1.976.587 3.063.587 2.312 0 4.391-.951 5.829-2.459" stroke="#231f20" stroke-linecap="square" stroke-miterlimit="10" stroke-width="3.7449"/><path d="m784.035 127.76c-.037-.169-.074-.334-.115-.5-2.782-11.162-14.887-20.666-17.995-24.957-16.742-23.125-29.417-31.818-32.529-33.737-.488-.306-.74-.438-.74-.438-.033.021-.058.041-.091.062-14.109 9.855-61.736 25.556-67.792 29.996 0 0-10.811 11.145-18.297 20.731-2.688 3.448-4.948 6.689-6.135 9.144l-.703-22.856c0-36.453 29.748-57.61 29.748-57.61 3.447-2.34 5.746-3.518 5.746-3.518 15.18-9.024 34.804-12.208 59.834-9.293 30.224 3.526 53.419 33.633 57.842 71.104.72 6.093-1.009 12.534-2.063 18.979l-2.112 2.232" stroke="#231f20" stroke-width="7"/><path d="m755.945 139.989c-.227.285-.475.558-.739.818" stroke="#231f20" stroke-linecap="square" stroke-miterlimit="10" stroke-width="3.7449"/><path d="m757.454 133.643c.021.099.038.207.046.314" stroke="#231f20" stroke-linecap="square" stroke-miterlimit="10" stroke-width="3.7449"/><path d="m680.53 130.791c1.183-.24 2.41-.355 3.671-.331 3.428.079 6.933 1.381 9.731 3.493 1.679 1.261 3.104 2.823 4.097 4.58" stroke="#231f20" stroke-linecap="square" stroke-miterlimit="10" stroke-width="3.7449"/><path d="m678.633 131.291c.414-.137.831-.256 1.257-.36" stroke="#231f20" stroke-linecap="square" stroke-miterlimit="10" stroke-width="3.7449"/><path d="m667.856 139.1c1.773-2.133 3.812-4.059 6.093-5.543 1.1-.715 2.253-1.331 3.46-1.819" stroke="#231f20" stroke-linecap="square" stroke-miterlimit="10" stroke-width="3.7449"/><path d="m681.474 142.651c-1.063-.426-2.005-1.071-2.766-1.873-1.273-1.335-2.051-3.109-2.051-5.06 0-.711-.033-1.182.017-1.6.029-.182.058-.36.124-.534" stroke="#231f20" stroke-linecap="square" stroke-miterlimit="10" stroke-width="3.7449"/><path d="m692.411 135.718c0 1.951-.772 3.725-2.046 5.06" stroke="#231f20" stroke-linecap="square" stroke-miterlimit="10" stroke-width="3.7449"/><path d="m766.313 138.864c-2.397-2.898-5.304-5.403-8.615-6.953-2.377-1.116-4.961-1.741-7.727-1.683-3.77.087-7.644 1.649-10.554 4.142-1.327 1.133-2.451 2.468-3.278 3.931" stroke="#231f20" stroke-linecap="square" stroke-miterlimit="10" stroke-width="3.7449"/><path d="m741.659 134.391c.017.248.095.504.095 1.096 0 4.154 3.526 7.523 7.884 7.523 2.17 0 4.142-.843 5.568-2.203.265-.256.513-.529.739-.818.153-.194.298-.397.426-.604.133-.207.253-.418.364-.637.496-.988.777-2.092.777-3.262 0-.674.024-1.128-.013-1.53-.008-.107-.021-.21-.046-.314.005-.004.005-.004 0-.004-.028-.157-.074-.31-.145-.471" stroke="#231f20" stroke-linecap="square" stroke-miterlimit="10" stroke-width="3.7449"/><path d="m646.137 128.554c-1.732-.62-3.675-.835-5.796-.492-8.062 1.29-6.974 10.343-4.758 14.857 5.386 10.988 2.918 15.027 3.608 23.415.257 3.158 3.82 9.256 11.261 7.966.07-.008.145-.021.224-.037" stroke="#231f20" stroke-width="7"/><path d="m784.813 127.756c1.183-.422 2.456-.657 3.82-.657.641 0 1.298.054 1.972.161 8.065 1.294 6.978 10.347 4.762 14.857-5.386 10.992-2.922 15.039-3.604 23.422-.256 3.097-3.695 9.033-10.868 8.028-.202-.025-.409-.058-.624-.099" stroke="#231f20" stroke-width="7"/><path d="m702.829 235.821c-10.476-2.472-19.967-7.962-28.028-15.829-.355-.347-.711-.703-1.058-1.058-10.844-11.038-18.983-26.453-23.291-44.634-2.244-9.479-3.447-19.706-3.447-30.454 0-3.439.004-9.471.054-15.288.004-.814.013-1.625.021-2.422.024-2.195.054-4.303.095-6.164.005-.169.009-.335.013-.5" stroke="#231f20" stroke-width="7"/><path d="m783.895 126.409c.009.29.017.575.025.852.004.169.008.335.013.5v.004c.173 6.589.243 10.5.243 16.081 0 10.475-1.145 20.45-3.282 29.723-4.589 19.917-13.758 36.573-26.035 47.85-6.015 5.531-12.778 9.768-20.107 12.472" stroke="#231f20" stroke-width="7"/><path d="m718.608 185.292c3.758-.699 3.084-2.922 7.114-1.943 3.473.839 7.156 2.567 8.023-2.861.596-3.737-2.215-4.233-3.708-7.234" stroke="#231f20" stroke-width="5.7875"/><path d="m718.608 185.292c.115.004.244.004.372.004l-.67.041c.1-.017.186-.029.281-.045" stroke="#231f20" stroke-width="5.7875"/><path d="m706.863 138.695c6.234 6.837 4.345 22.902 1.559 31.265l-1.174 3.262c-1.492 2.997-4.299 3.489-3.708 7.226.868 5.428 4.556 3.691 8.024 2.856 4.005-.967 3.108 1.815 7.027 1.988h.017" stroke="#231f20" stroke-width="5.7875"/><path d="m687.352 135.574c0 1.397-1.273 2.53-2.84 2.53-1.575 0-2.84-1.133-2.84-2.53 0-1.401 1.265-2.542 2.84-2.542 1.566-.001 2.84 1.14 2.84 2.542z" stroke="#231f20" stroke-width="3.1427"/><ellipse cx="749.592" cy="135.553" rx="2.844" ry="2.534" stroke="#231f20" stroke-width="3.1427"/><path d="m702.734 126.144c-3.361-7.082-16.512-9.839-23.171-8.507-6.255 1.244-9.359 1.997-15.883 7.056" stroke="#231f20" stroke-width="5.7875"/><path d="m729.984 124.598c3.365-7.085 16.516-9.847 23.171-8.512 6.267 1.244 9.367 1.992 15.887 7.057" stroke="#231f20" stroke-width="5.7875"/><path d="m738.161 69.183c-.706.004-3.336-.199-4.766-.616-.381-.111-.674-.235-.831-.376-.054-.045-.091-.095-.112-.149 4.329-4.217 7.739-11.091 7.739-18.065" stroke="#231f20" stroke-width="7"/><path d="m674.545 220.658c3.919 17.892-8.119 27.573-22.662 35.283-11.162 5.92-23.795 10.678-31.814 17.098" stroke="#231f20" stroke-width="7"/><path d="m755.268 221.856c-4.01 18.292 8.665 28.003 23.638 35.795 10.165 5.296 21.394 9.707 29.173 15.325.57.409 1.129.835 1.662 1.261" stroke="#231f20" stroke-width="7"/><path d="m736.119 225.449c3.353-3.745 5.027-11.633 5.027-11.633-.157-.451-2.146-3.117-2.146-3.117-2.543-3.398-9.178-9.446-12.149-11.174-3.547-2.075-8.776 1.968-8.776 1.968s-5.52-4.043-9.07-1.968c-3.547 2.067-12.814 12.418-13.406 14.093 0 0 1.675 6.709 5.027 10.455" stroke="#000" stroke-linecap="round" stroke-linejoin="round" stroke-width="2.8937"/><path d="m704.954 240.814c-.641-1.38-1.228-3.146-1.753-5.097-.996-3.671-1.794-7.999-2.369-11.678-.715-4.584-1.095-8.152-1.095-8.152s2.075-3.448 6.506-6.114c3.717-2.228 6.706-.591 8.285 0s5.419.496 7.003-.099c1.574-.591 4.563-2.228 8.275 0 4.44 2.662 7.495 6.213 7.495 6.213s-.455 4.308-1.318 9.541c-.231 1.414-.492 2.898-.786 4.382" stroke="#000" stroke-linecap="round" stroke-linejoin="round" stroke-width="2.8937"/><path d="m735.197 229.81c-.265 1.344-.554 2.687-.863 3.977-.513 2.146-1.092 4.154-1.729 5.8" stroke="#000" stroke-linecap="round" stroke-linejoin="round" stroke-width="2.8937"/><path d="m718.075 210.364s1.972 11.339.987 21.199" stroke="#000" stroke-linecap="round" stroke-linejoin="round" stroke-width="2.8937"/><path d="m678.216 264.105c0 2.7 1.555 5.254 4.324 7.528.611.504 1.285.992 2.018 1.468" stroke="#000" stroke-width="5.7875"/><path d="m754.635 274.659-.004-.004c.107-.302.207-.604.298-.91.376-1.228.624-2.48.769-3.741.732-6.35-1.24-12.869-3.865-17.528 4.522 1.968 8.132 4.361 10.124 7.015.555.731.98 1.484 1.266 2.253.269.69.417 1.397.442 2.112.008.083.008.166.008.248" stroke="#000" stroke-width="4.2678"/><path d="m678.216 264.105c1-6.614 1.435-10.12 12.575-13.229" stroke="#000" stroke-width="7"/><path d="m763.664 264.469c-.183 3.439-2.878 6.631-7.384 9.285-.524.31-1.074.612-1.646.906-7.821 4.018-20.008 6.606-33.691 6.606-7.229 0-14.038-.72-20.008-1.997-6.275-1.335-11.624-3.282-15.552-5.651-.132-.079-.261-.157-.385-.236-.004 0-.004 0-.004-.004-.148-.091-.293-.182-.438-.277-.736-.471-1.435-.959-2.071-1.463-2.592-2.042-4.287-4.32-4.324-6.689-.009-.26.008-.521.05-.785" stroke="#000" stroke-width="7"/><path d="m749.492 250.05c4.176 0 9.711 4.981 12.464 9.442.996 1.608 1.629 3.15 1.708 4.365.004.087.008.166.008.248 0 .12-.004.24-.008.36" stroke="#000" stroke-width="7"/><path d="m678.212 264.163c.004-.037.004-.058.004-.058" stroke="#000" stroke-width="7"/><path d="m678.162 264.948c.021-.409.041-.678.05-.785" stroke="#000" stroke-width="5.7875"/><path d="m745.14 320.479c-5.994 4.481-13.886 7.172-24.266 6.747l.107.033c-36.742 1.509-42.315-36.019-42.89-53.915-.128-3.993-.009-7.007.07-8.396" stroke="#000" stroke-width="4.2678"/><path d="m763.635 264.072s.013.137.029.393v.004c.074 1.129.252 4.584.078 9.326-.472 12.927-3.567 35.444-18.603 46.684" stroke="#000" stroke-width="7"/><path d="m683.35 271.546c1.542-8.561 4.668-15.366 8.785-20.574 3.638-4.597 8.045-7.95 12.819-10.157 8.838-4.092 18.925-4.274 27.651-1.228 6.982 2.435 13.097 6.937 17.007 13.154.442.703.947 1.418 1.394 2.216 3.079 5.469 2.683 7.28 4.691 15.048.124.488.261 1 .409 1.542" stroke="#000" stroke-width="7"/><path d="m653.586 256.664c0 5.94 11.931 7.441 24.63 7.441" stroke="#231f20" stroke-width="7"/><path d="m763.548 261.625c3.308 1.654 9.095.827 14.882-2.48" stroke="#231f20" stroke-width="5.7875"/></g></svg>