<svg enable-background="new 0 0 850.394 850.394" height="850.394" viewBox="0 0 850.394 850.394" width="850.394" xmlns="http://www.w3.org/2000/svg"><path d="m403.93 783.17h-34.3c0-15.07 7.68-40.939 17.15-40.939 9.47-.001 17.15 25.869 17.15 40.939z" fill="#c8c8c8"/><path d="m479.03 783.45h-34.3c0-15.07 7.689-40.94 17.149-40.94 9.471 0 17.151 25.87 17.151 40.94z" fill="#c8c8c8"/><path d="m483.67 678.17v37.8c0 6.09-2.47 11.59-6.45 15.57l-15.58 6.45c-12.17 0-22.029-9.851-22.029-22.021v-36.569l32.37.08 3.989.01 7.66-1.5z" fill="#c8c8c8"/><path d="m409.05 679.31v36.381c0 12.17-9.86 22.02-22.03 22.02l-15.57-6.45c-3.99-3.979-6.45-9.479-6.45-15.569v-37.802l.03-.149 7.67 1.47 3.96.01z" fill="#c8c8c8"/><path d="m376.67 675.23-.01 3.989-3.96-.01-7.67-1.47-179.26-34.439v-26.69l.03-4.99h177.82c3.89 29.1 13.05 63.61 13.05 63.61z" fill="#fff"/><path d="m471.99 675.51s9.16-34.51 13.06-63.609h177.77v3.1l.319 27.75-179.51 35.24-7.66 1.5-3.989-.01z" fill="#fff"/><path d="m363.62 611.62h-177.82s0-34.09 4.55-45.46c4.54-11.36 122.13-138.61 122.13-138.61l49.42-205.81v368.279c0 6.281.67 13.741 1.72 21.601z" fill="#0b00ea"/><path d="m662.86 611.9h-.04-177.77c1.05-7.86 1.72-15.32 1.72-21.601 0-29.54 0-376.42 0-376.42l.341-.08 49.069 214.03s117.59 127.25 122.141 138.61c4.539 11.371 4.539 45.461 4.539 45.461z" fill="#0b00ea"/><path d="m485.05 611.9c-3.899 29.1-13.06 63.609-13.06 63.609l-.01 3.971-32.37-.08-14.851-.04h-1.7l-14.01-.051-32.39-.09.01-3.989s-9.16-34.511-13.05-63.61c-1.05-7.86-1.72-15.32-1.72-21.601 0-28.46 0-345.26 0-368.279l30.11-125.4c0-17.18 15.97-31.1 27.27-31.1h13.63c11.3 0 27.27 13.92 27.27 31.1l26.931 117.46-.341.08v376.42c.001 6.28-.669 13.74-1.719 21.6z" fill="#a3d9ff"/><g fill="none"><path d="m376.67 675.23s-9.16-34.511-13.05-63.61c-1.05-7.86-1.72-15.32-1.72-21.601 0-28.46 0-345.26 0-368.279 0-.87 0-1.32 0-1.32" stroke="#231f20" stroke-width="21"/><path d="m409.05 677.89v1.42 36.381c0 12.17-9.86 22.02-22.03 22.02l-15.57-6.45c-3.99-3.979-6.45-9.479-6.45-15.569v-37.802" stroke="#231f20" stroke-width="21"/><path d="m403.93 783.17c0-15.07-7.68-40.939-17.15-40.939s-17.15 25.869-17.15 40.939z" stroke="#231f20" stroke-width="21"/><path d="m483.92 611.9h1.13 177.77.04s0-34.091-4.54-45.46c-4.55-11.36-122.14-138.61-122.14-138.61l-49.07-214.03-26.93-117.46c0-17.18-15.97-31.1-27.27-31.1h-13.63c-11.3 0-27.27 13.92-27.27 31.1l-30.11 125.4-49.42 205.81s-117.59 127.25-122.13 138.61c-4.55 11.37-4.55 45.46-4.55 45.46h177.82 1.12" stroke="#231f20" stroke-width="21"/><path d="m423.06 679.36-14.01-.05-32.39-.09-3.96-.01-7.67-1.47-179.26-34.44v-26.69" stroke="#231f20" stroke-width="21"/><path d="m662.82 615 .32 27.75-179.51 35.24-7.66 1.5-3.99-.01-32.37-.08-14.85-.04h-1.7" stroke="#231f20" stroke-width="21"/><path d="m471.99 675.51s9.16-34.51 13.06-63.609c1.05-7.86 1.72-15.32 1.72-21.601 0-29.54 0-376.42 0-376.42" stroke="#231f20" stroke-width="21"/><path d="m439.61 678.17v1.23 36.569c0 12.17 9.859 22.021 22.029 22.021l15.58-6.45c3.98-3.98 6.45-9.48 6.45-15.57v-37.8" stroke="#231f20" stroke-width="21"/><path d="m444.73 783.45c0-15.07 7.689-40.94 17.149-40.94 9.47 0 17.15 25.87 17.15 40.94z" stroke="#231f20" stroke-width="21"/><path d="m388.08 201.77c0-14.45 17.73-26.15 31.2-26.15h13.63c13.47 0 31.2 11.7 31.2 26.15" stroke="#231f20" stroke-width="21"/><path d="m424.695 450.857v10.897" stroke="#231f20" stroke-width="3"/><path d="m0 0h850.394v850.394h-850.394z"/></g></svg>