<svg enable-background="new 0 0 850.394 850.394" height="850.394" viewBox="0 0 850.394 850.394" width="850.394" xmlns="http://www.w3.org/2000/svg"><path d="m178.34 318.95-10.33-25.36h-27.55l-10.33 25.36zm.65 5.7-10.33 25.35h48.2l-10.33-25.35zm322.2-5.7-10.341-25.36h-27.549l-10.33 25.36zm.64 5.7-10.34 25.35h48.22l-10.33-25.35zm189.34-5.88h48.22l-10.34-25.38h-27.55zm78.1 30.19-10.329-25.37h-27.57l-10.32 25.37zm-15.12-59.55 21.949 84.93c2.73 21.24-10.439 23.3-23.319 23.3h-26.42-11.7-620.1c-12.87 0-26.04-2.02-23.31-23.3l21.92-84.93c3.34-16.23 10.44-23.32 23.31-23.32h594.06v-.03h20.31c12.89 0 20 7.11 23.3 23.35zm-56.69 60.8-10.35-25.37h-27.54l-10.33 25.37zm-40.1-31.84-10.32-25.35h-27.56l-10.341 25.35zm-37.74 31.46-10.32-25.37h-27.55l-10.34 25.37zm-42.18-31.27-10.33-25.36h-27.55l-10.34 25.36zm-114 31.83-10.32-25.36h-27.55l-10.34 25.36zm-46.9-31.62-10.33-25.38h-27.55l-10.33 25.38zm-37.73 31.44-10.33-25.37h-27.56l-10.33 25.37zm-44.29-31.84-10.33-25.35h-27.55l-10.34 25.35zm-37.73 31.46-10.33-25.37h-27.56l-10.33 25.37zm-42.19-31.27-10.33-25.36h-27.55l-10.33 25.36zm-113.99 31.83-10.33-25.36h-27.56l-10.33 25.36z" fill="#c8c8c8"/><path d="m775.87 397.64v46.61h-332.98l-20.28-22.38-.57.63-19.75 21.75h-330.53v-46.61h22.8 620.1 11.7 26.42z" fill="#c8c8c8"/><g fill="#231f20"><path d="m758.94 323.59 10.33 25.37h-48.22l10.32-25.37z"/><path d="m729.05 293.39 10.34 25.38h-48.22l10.33-25.38z"/><path d="m687.11 324.84 10.35 25.37h-48.22l10.33-25.37z"/><path d="m647.04 293.02 10.32 25.35h-48.22l10.34-25.35z"/><path d="m609.3 324.46 10.32 25.37h-48.21l10.34-25.37z"/><path d="m567.11 293.2 10.33 25.36h-48.22l10.34-25.36z"/><path d="m529.38 324.65 10.33 25.35h-48.22l10.34-25.35z"/><path d="m490.85 293.59 10.34 25.36h-48.22l10.33-25.36z"/><path d="m453.12 325.03 10.32 25.36h-48.21l10.34-25.36z"/></g><path d="m422.61 421.87 20.28 22.38h-20.45v-21.38l-.4-.37z" fill="#fff"/><path d="m422.44 422.87v21.38h-20.15l19.75-21.75z" fill="#fff"/><path d="m406.21 293.39 10.33 25.38h-48.21l10.33-25.38z" fill="#231f20"/><path d="m368.48 324.84 10.33 25.37h-48.22l10.33-25.37z" fill="#231f20"/><path d="m324.19 293.02 10.33 25.35h-48.22l10.34-25.35z" fill="#231f20"/><path d="m286.46 324.46 10.33 25.37h-48.22l10.33-25.37z" fill="#231f20"/><path d="m244.27 293.2 10.33 25.36h-48.21l10.33-25.36z" fill="#231f20"/><path d="m206.53 324.65 10.33 25.35h-48.2l10.33-25.35z" fill="#231f20"/><path d="m168.01 293.59 10.33 25.36h-48.21l10.33-25.36z" fill="#231f20"/><path d="m130.28 325.03 10.33 25.36h-48.22l10.33-25.36z" fill="#231f20"/><path d="m94.56 397.64c-12.87 0-26.04-2.02-23.31-23.3l21.92-84.93c3.34-16.23 10.44-23.32 23.31-23.32h594.06 13.07" fill="none" stroke="#231f20" stroke-width="14"/><path d="m752.78 397.64c12.88 0 26.05-2.06 23.319-23.3l-21.949-84.93c-3.301-16.24-10.41-23.35-23.301-23.35h-20.31" fill="none" stroke="#231f20" stroke-width="14"/><path d="m274.64 368.14h293.97" fill="none" stroke="#231f20" stroke-width="28"/><path d="m752.78 397.64h23.09v46.61h-332.98-20.45-20.15-330.53v-46.61h22.8 620.1 11.7z" fill="none" stroke="#231f20" stroke-width="14"/><path d="m422.44 598.2v-153.95-21.38" fill="none" stroke="#231f20" stroke-width="21"/><path d="m375.65 473.6 26.64-29.35 19.75-21.75.57-.63 20.28 22.38 26.66 29.42" fill="none" stroke="#231f20" stroke-width="21"/><path d="m0 0h850.394v850.394h-850.394z" fill="none"/></svg>