<svg enable-background="new 0 0 850.394 850.394" height="850.394" viewBox="0 0 850.394 850.394" width="850.394" xmlns="http://www.w3.org/2000/svg"><path d="m423.33 554.97c-3.31-.17-6.3-1.59-8.5-3.79-2.35-2.359-3.81-5.62-3.81-9.21v-78.64c.46.01.92.01 1.38.01 8.36 0 16.59-.59 24.64-1.729v80.359c0 7.19-5.83 13.021-13.01 13.021-.23-.001-.47-.011-.7-.021z" fill="#7a7878"/><path d="m437.04 276.82v184.79c-8.05 1.14-16.28 1.729-24.64 1.729-.46 0-.92 0-1.38-.01v-71.52-114.989c0-7.18 5.82-13.01 13.01-13.01 3.59 0 6.84 1.46 9.201 3.81 2.349 2.36 3.809 5.61 3.809 9.2z" fill="#7a7878"/><path d="m538.34 167.5c20.08 20.87 35.021 46.72 42.78 75.51 3.92 14.54 6.01 29.83 6.01 45.6 0 5.32-.24 10.57-.7 15.77-2.76 30.86-13.55 59.42-30.26 83.56-12.979 18.75-29.53 34.84-48.68 47.28-20.84 13.55-44.75 22.771-70.45 26.391v-184.791c0-3.59-1.46-6.84-3.81-9.2-2.36-2.35-5.61-3.81-9.201-3.81-7.19 0-13.01 5.83-13.01 13.01v114.99h-1.05c-5.44 20.75-16.83 44.53-39.66 66.42-32.19-7.95-60.86-24.841-83.23-47.871-24.21-24.92-41.06-57.02-47.02-92.82-1.57-9.41-2.39-19.07-2.39-28.93 0-13 1.42-25.66 4.11-37.85 8.12-36.76 27.81-69.17 55.06-93.21 15.54-13.72 33.55-24.71 53.26-32.23 19.35-7.39 40.35-11.44 62.3-11.44 7.29 0 14.47.45 21.52 1.31 19.98 2.46 38.91 8.28 56.21 16.89 18.081 8.991 34.371 21.021 48.211 35.421z" fill="#fbee34"/><g fill="none"><path d="m434.7 238.02s-2.09-62.47 55.43-105.94c16.64-12.57 38.271-23.56 66.39-30.98" stroke="#231f20" stroke-dasharray="19.8361" stroke-width="13.2241"/><path d="m453.53 251.1s17.12-59.8 84.81-83.6c19.79-6.96 43.91-10.84 73.19-9.25" stroke="#231f20" stroke-dasharray="19.8361" stroke-width="13.2241"/><path d="m466.93 263.52s46.88-37.85 114.19-20.51c21.09 5.42 44.18 16.27 68.47 35.39" stroke="#231f20" stroke-dasharray="19.8361" stroke-width="13.2241"/><path d="m467.83 286.44s58.57-22.52 118.6 17.94c17.21 11.59 34.54 28.37 50.65 52.34" stroke="#231f20" stroke-dasharray="19.8361" stroke-width="13.2241"/><path d="m464.33 300.29s65.67 14.49 91.84 87.65c6.36 17.77 10.38 39 10.57 64.33" stroke="#231f20" stroke-dasharray="19.8361" stroke-width="13.2241"/><path d="m446.99 315.29s62.16 36.39 60.5 119.93c-.34 16.79-3.26 35.48-9.771 56.17" stroke="#231f20" stroke-dasharray="19.8361" stroke-width="13.2241"/><path d="m409.97 391.81c-5.44 20.75-16.83 44.53-39.66 66.42-13.03 12.5-29.78 24.38-51.28 34.739" stroke="#231f20" stroke-dasharray="19.8361" stroke-width="13.2241"/><path d="m399.25 313.31s-18.39 79.07-112.17 97.05c-12.3 2.36-25.91 3.67-40.94 3.61" stroke="#231f20" stroke-dasharray="19.8361" stroke-width="13.2241"/><path d="m385.25 301.57s-59.41 53.13-145.19 15.97c-12.16-5.26-24.85-12.34-37.98-21.64" stroke="#231f20" stroke-dasharray="19.8361" stroke-width="13.2241"/><path d="m383.21 278.73s-71.72 31.8-141.43-27.97c-10.51-9.02-20.98-20.11-31.14-33.71" stroke="#231f20" stroke-dasharray="19.8361" stroke-width="13.2241"/><path d="m387.57 259.05s-70.75-18.84-90.73-101.5c-3.83-15.8-5.79-33.95-5.05-54.74" stroke="#231f20" stroke-dasharray="19.8361" stroke-width="13.2241"/><path d="m405.54 244.81s-59.13-38.12-55.44-119.49c.79-17.52 4.49-37.05 12.32-58.62" stroke="#231f20" stroke-dasharray="19.8361" stroke-width="13.2241"/><path d="m418.65 236.95s-25.33-59.35 15.27-121.76c10.92-16.78 26.6-33.79 48.83-49.92" stroke="#231f20" stroke-dasharray="19.8361" stroke-width="13.2241"/><path d="m423.33 551.46v3.51 228.12" stroke="#231f20" stroke-width="14"/><path d="m437.04 461.61v80.359c0 7.19-5.83 13.021-13.01 13.021-.23 0-.47-.01-.7-.021-3.31-.17-6.3-1.59-8.5-3.79-2.35-2.359-3.81-5.62-3.81-9.21v-78.64-71.52-114.989c0-7.18 5.82-13.01 13.01-13.01 3.59 0 6.84 1.46 9.201 3.81 2.35 2.36 3.81 5.61 3.81 9.2v184.79z" stroke="#231f20" stroke-width="14"/><path d="m625.8 92.53v30.24.01.03 30.48" stroke="#231f20" stroke-linecap="round" stroke-linejoin="round" stroke-width="6.612"/><path d="m599.1 122.77h26.66.04.01 26.84" stroke="#231f20" stroke-linecap="round" stroke-linejoin="round" stroke-width="6.612"/><path d="m610.37 137.45 15.42-14.66.01-.01.01-.01 15.57-14.8" stroke="#231f20" stroke-linecap="round" stroke-linejoin="round" stroke-width="6.612"/><path d="m641.05 137.31-15.25-14.5-.01-.02-.03-.02-15.71-14.94" stroke="#231f20" stroke-linecap="round" stroke-linejoin="round" stroke-width="6.612"/><path d="m610.38 428.04v.04 30.46" stroke="#231f20" stroke-linecap="round" stroke-linejoin="round" stroke-width="6.612"/><path d="m610.38 397.78v30.25" stroke="#231f20" stroke-linecap="round" stroke-linejoin="round" stroke-width="6.612"/><path d="m610.39 428.03h26.83" stroke="#231f20" stroke-linecap="round" stroke-linejoin="round" stroke-width="6.612"/><path d="m583.68 428.03h26.65.05" stroke="#231f20" stroke-linecap="round" stroke-linejoin="round" stroke-width="6.612"/><path d="m594.95 442.71 15.41-14.65.02-.02v-.01h.01l15.56-14.8" stroke="#231f20" stroke-linecap="round" stroke-linejoin="round" stroke-width="6.612"/><path d="m625.62 442.57-15.24-14.49-.02-.02-.03-.03-15.71-14.94" stroke="#231f20" stroke-linecap="round" stroke-linejoin="round" stroke-width="6.612"/><path d="m234.59 110.16v30.24.01.04 30.47" stroke="#231f20" stroke-linecap="round" stroke-linejoin="round" stroke-width="6.612"/><path d="m207.89 140.4h26.65.05.01 26.83" stroke="#231f20" stroke-linecap="round" stroke-linejoin="round" stroke-width="6.612"/><path d="m219.16 155.08 15.41-14.65.02-.02.01-.01 15.56-14.79" stroke="#231f20" stroke-linecap="round" stroke-linejoin="round" stroke-width="6.612"/><path d="m249.83 154.94-15.24-14.49-.02-.02-.03-.03-15.71-14.94" stroke="#231f20" stroke-linecap="round" stroke-linejoin="round" stroke-width="6.612"/><path d="m215.85 353.7v30.24.02.02 30.48" stroke="#231f20" stroke-linecap="round" stroke-linejoin="round" stroke-width="6.612"/><path d="m189.15 383.94h26.66.04.02 26.83" stroke="#231f20" stroke-linecap="round" stroke-linejoin="round" stroke-width="6.612"/><path d="m200.42 398.62 15.42-14.65.01-.01.02-.02 15.56-14.79" stroke="#231f20" stroke-linecap="round" stroke-linejoin="round" stroke-width="6.612"/><path d="m231.1 398.48-15.25-14.5-.01-.01-.03-.03-15.71-14.94" stroke="#231f20" stroke-linecap="round" stroke-linejoin="round" stroke-width="6.612"/><path d="m0 0h850.394v850.394h-850.394z"/></g></svg>