<svg enable-background="new 0 0 850.394 850.394" height="850.394" viewBox="0 0 850.394 850.394" width="850.394" xmlns="http://www.w3.org/2000/svg"><path d="m447.25 339.83v427.15c0 11.909-11.05 21.579-24.69 21.579-13.63 0-24.69-9.67-24.69-21.579v-427.15z" fill="#ffa500"/><path d="m397.87 339.83h-78.22l-13.28-267.81h234.6l-13.28 267.81h-80.44zm97.64-145.4c0-30.66-4.22-55.53-9.43-55.53s-9.44 24.87-9.44 55.53c0 30.67 4.23 55.54 9.44 55.54s9.43-24.87 9.43-55.54zm-38.42-32.73c0-30.67-4.22-55.53-9.42-55.53-5.229 0-9.439 24.86-9.439 55.53s4.21 55.53 9.439 55.53c5.2 0 9.42-24.86 9.42-55.53zm-47.69-.19c0-30.67-4.23-55.53-9.45-55.53-5.2 0-9.43 24.86-9.43 55.53s4.23 55.53 9.43 55.53c5.22 0 9.45-24.86 9.45-55.53zm-38.43 32.73c0-30.67-4.22-55.53-9.43-55.53s-9.44 24.86-9.44 55.53 4.23 55.53 9.44 55.53 9.43-24.86 9.43-55.53z" fill="#ffa500"/><g fill="none"><path d="m397.87 337.61v2.22 427.15c0 11.909 11.06 21.579 24.69 21.579 13.64 0 24.69-9.67 24.69-21.579v-427.15" stroke="#231f20" stroke-width="19.9191"/><path d="m397.87 339.83h-78.22l-13.28-267.81h234.6l-13.28 267.81h-80.44z" stroke="#231f20" stroke-width="19.9191"/><path d="m457.09 161.7c0 30.67-4.22 55.53-9.42 55.53-5.229 0-9.439-24.86-9.439-55.53s4.21-55.53 9.439-55.53c5.2 0 9.42 24.86 9.42 55.53z" stroke="#231f20" stroke-width="13.2794"/><path d="m495.51 194.43c0 30.67-4.22 55.54-9.43 55.54s-9.44-24.87-9.44-55.54c0-30.66 4.23-55.53 9.44-55.53s9.43 24.87 9.43 55.53z" stroke="#231f20" stroke-width="13.2794"/><path d="m390.52 161.51c0 30.67 4.23 55.53 9.43 55.53 5.22 0 9.45-24.86 9.45-55.53s-4.23-55.53-9.45-55.53c-5.2 0-9.43 24.86-9.43 55.53z" stroke="#231f20" stroke-width="13.2794"/><ellipse cx="361.535" cy="194.24" rx="9.435" ry="55.53" stroke="#231f20" stroke-width="13.2794"/><path d="m0 0h850.394v850.394h-850.394z"/></g></svg>