<svg enable-background="new 0 0 850.394 850.394" height="850.394" viewBox="0 0 850.394 850.394" width="850.394" xmlns="http://www.w3.org/2000/svg"><g fill="none"><g stroke="#231f20" stroke-width="14"><path d="m484.963 425.567c0 25.226-23.315 45.67-52.082 45.67-28.764 0-52.086-20.444-52.086-45.67 0-25.219 23.322-45.667 52.086-45.667 28.766 0 52.082 20.448 52.082 45.667z"/><path d="m135.467 228.174 249.2 168.535"/><path d="m134.71 359.517 298.171 66.05"/><path d="m175.476 368.58s42.094 6.909 58.612-22.754c16.527-29.66-1.835-52.946-1.835-52.946"/><path d="m296.834 394.624c6.455-.981 15.8-4.232 19.259-14.591 6.568-19.685-.968-29.572-.968-29.572"/><path d="m312.546 347.606s33.129 14.341 52.134-5.71c22.712-23.956 16.027-42.487 16.027-42.487"/><path d="m609.521 155.706-179.655 259.674"/><path d="m718.22 227.417-261.387 176.783"/><path d="m718.98 358.764-285.346 65.673"/><path d="m640.464 279.503s-43.021 14.341-64.153-11.323c-21.14-25.662-3.781-58.125-3.781-58.125"/><path d="m683.496 367.069s-47.372 7.663-63.899-21.994c-16.527-29.663 1.832-52.953 1.832-52.953"/><path d="m568.001 392.73s-20.016 4.502-30.403-13.454c-10.395-17.96-3.56-29.569-3.56-29.569"/><path d="m535.545 351.971s-17.833 6.948-30.553-5.833c-12.707-12.775-6.438-30.4-6.438-30.4"/><path d="m307.187 105.79 119.652 314.119"/><path d="m427.56 56.107-.494 321.561"/><path d="m536.675 129.229-97.7 251.908"/><path d="m427.001 149.693s-12.294 43.657-45.397 46.736c-33.106 3.08-46.099-17.319-46.099-17.319"/><path d="m520.447 170.046s-17.093 36.712-50.907 33.736c-33.827-2.982-42.785-31.254-42.785-31.254"/><path d="m484.216 264.405s-11.726 27.919-32.411 26.435c-20.704-1.488-25.908-18.733-25.908-18.733"/><path d="m428.392 271.583s-4.606 24.271-22.315 27.626c-17.716 3.346-29.056-5.366-29.056-5.366"/><path d="m472.133 290.069s-.754 32.463 26.421 25.668"/><path d="m503.082 199.485s-1.526 45.359 53.596 35.867"/><path d="m463.83 398.925c6.178 7.507 9.81 16.729 9.81 26.691 0 25.209-23.315 45.667-52.076 45.667-28.776 0-52.089-20.458-52.089-45.667 0-25.223 23.313-45.667 52.089-45.667 17.404 0 32.807 7.484 42.266 18.976"/><path d="m718.98 623.016-291.381-197.066"/><path d="m719.728 491.669-240.359-55.317"/><path d="m687.271 484.074s-50.399-8.374-66.92 21.289c-16.527 29.657 1.832 52.947 1.832 52.947"/><path d="m581.586 460.674s-32.84-7.478-43.229 10.479c-10.4 17.963 5.483 33.294 5.483 33.294"/><path d="m136.218 623.763 286.853-193.992"/><path d="m135.467 492.423 242.343-55.786"/><path d="m180.004 482.567s38.319-6.113 54.847 23.55c16.521 29.65-1.845 52.946-1.845 52.946"/><path d="m286.44 458.452s20.012-4.502 30.407 13.454c10.388 17.97-1.722 31.041-1.722 31.041"/><path d="m300.027 394.241s17.992 11.999 16.153 32.674c-1.838 20.669-14.107 26.217-14.107 26.217"/><path d="m547.258 745.396-112.111-314.164"/><path d="m426.878 795.075.487-321.577"/><path d="m317.772 721.957 107.761-292.686"/><path d="m427.443 701.493s12.181-45.268 45.397-46.736c36.283-1.592 50.62 24.076 50.62 24.076"/><path d="m330.973 684.108s20.104-39.681 53.928-36.699c33.827 2.982 42.783 31.249 42.783 31.249"/><path d="m367.968 586.732s8.302-29.436 34.665-26.383c20.62 2.385 25.908 18.729 25.908 18.729"/><path d="m426.046 579.605s4.6-24.316 22.322-27.636c19.99-3.735 35.848 17.404 35.848 17.404"/><path d="m194.345 373.861s19.623 29.442 6.039 70.961c-3.534 10.804-9.06 23.4-15.098 34.718"/><path d="m562.72 393.487s-19.548 10.489-17.723 31.161c1.846 20.675 16.969 31.499 16.969 31.499"/><path d="m666.839 371.594s-20.938 31.751-9.764 73.975c6.795 25.668 19.632 36.998 19.632 36.998"/><path d="m235.864 294.601s92.095-12.077 107.189-107.946"/><path d="m378.456 568.081s3.245-36.881-21.058-51.557c-29.036-17.534-45.297-14.338-45.297-14.338"/><path d="m550.974 508.684s-36.127-6.224-52.602 16.202c-19.711 26.771-17.898 42.857-17.898 42.857"/><path d="m342.105 656.687s-32.359-89.769-131.898-83.856"/><path d="m626.555 560.246s-94.816 10.811-111.993 109.03"/></g><path d="m0 0h850.394v850.394h-850.394z"/></g></svg>