<svg enable-background="new 0 0 851.394 851.394" height="851.394" viewBox="0 0 851.394 851.394" width="851.394" xmlns="http://www.w3.org/2000/svg"><path d="m641.29 649.13c21.66 0 39.22 17.561 39.22 39.22 0 21.66-17.56 39.221-39.22 39.221-21.65 0-39.21-17.561-39.21-39.221s17.56-39.22 39.21-39.22z" fill="#ed1e29"/><path d="m681.63 454.17c21.67 0 39.22 17.561 39.22 39.22 0 21.66-17.55 39.21-39.22 39.21-21.649 0-39.21-17.55-39.21-39.21s17.56-39.22 39.21-39.22z" fill="#ed1e29"/><path d="m474.35 544.92c21.66 0 39.21 17.57 39.21 39.23 0 21.649-17.55 39.22-39.21 39.22-21.659 0-39.22-17.57-39.22-39.22 0-21.66 17.56-39.23 39.22-39.23z" fill="#ed1e29"/><path d="m342.13 687.23c21.66 0 39.22 17.56 39.22 39.22s-17.56 39.22-39.22 39.22-39.21-17.56-39.21-39.22 17.55-39.22 39.21-39.22z" fill="#ed1e29"/><path d="m118.04 625.6c21.66 0 39.21 17.551 39.21 39.21 0 21.66-17.55 39.221-39.21 39.221s-39.22-17.561-39.22-39.221 17.56-39.21 39.22-39.21z" fill="#ed1e29"/><path d="m270.42 514.67c21.66 0 39.22 17.561 39.22 39.22 0 21.65-17.56 39.21-39.22 39.21s-39.22-17.56-39.22-39.21c0-21.66 17.56-39.22 39.22-39.22z" fill="#ed1e29"/><path d="m377.99 345.48c21.65 0 39.21 17.56 39.21 39.21 0 21.67-17.56 39.22-39.21 39.22-21.66 0-39.22-17.55-39.22-39.22 0-21.65 17.56-39.21 39.22-39.21z" fill="#ed1e29"/><path d="m132.61 383.57c21.66 0 39.21 17.56 39.21 39.22s-17.55 39.22-39.21 39.22-39.22-17.56-39.22-39.22 17.56-39.22 39.22-39.22z" fill="#ed1e29"/><circle cx="234.57" cy="263.69" fill="#ed1e29" r="39.22"/><path d="m132.61 86.66c21.66 0 39.21 17.55 39.21 39.21s-17.55 39.22-39.21 39.22-39.22-17.56-39.22-39.22 17.56-39.21 39.22-39.21z" fill="#ed1e29"/><path d="m386.95 115.79c21.66 0 39.22 17.55 39.22 39.21s-17.56 39.22-39.22 39.22-39.22-17.56-39.22-39.22 17.56-39.21 39.22-39.21z" fill="#ed1e29"/><path d="m563.98 298.43c21.67 0 39.22 17.56 39.22 39.22s-17.55 39.21-39.22 39.21c-21.65 0-39.211-17.55-39.211-39.21.001-21.66 17.561-39.22 39.211-39.22z" fill="#ed1e29"/><path d="m734.3 235.68c21.66 0 39.22 17.55 39.22 39.21s-17.56 39.22-39.22 39.22c-21.649 0-39.22-17.56-39.22-39.22s17.57-39.21 39.22-39.21z" fill="#ed1e29"/><path d="m595.36 86.67c21.67 0 39.22 17.55 39.22 39.21s-17.55 39.21-39.22 39.21c-21.65 0-39.21-17.55-39.21-39.21s17.56-39.21 39.21-39.21z" fill="#ed1e29"/><g fill="none"><circle cx="234.57" cy="263.69" r="39.22" stroke="#231f20" stroke-linecap="round" stroke-linejoin="round" stroke-width="21"/><path d="m513.56 584.15c0 21.649-17.55 39.22-39.21 39.22-21.659 0-39.22-17.57-39.22-39.22 0-21.66 17.561-39.23 39.22-39.23 21.66 0 39.21 17.57 39.21 39.23z" stroke="#231f20" stroke-linecap="round" stroke-linejoin="round" stroke-width="21"/><path d="m381.35 726.45c0 21.66-17.56 39.22-39.22 39.22s-39.21-17.56-39.21-39.22 17.55-39.22 39.21-39.22 39.22 17.56 39.22 39.22z" stroke="#231f20" stroke-linecap="round" stroke-linejoin="round" stroke-width="21"/><path d="m680.51 688.35c0 21.66-17.56 39.221-39.22 39.221-21.65 0-39.21-17.561-39.21-39.221 0-21.659 17.56-39.22 39.21-39.22 21.66 0 39.22 17.56 39.22 39.22z" stroke="#231f20" stroke-linecap="round" stroke-linejoin="round" stroke-width="21"/><path d="m417.2 384.69c0 21.67-17.56 39.22-39.21 39.22-21.66 0-39.22-17.55-39.22-39.22 0-21.65 17.56-39.21 39.22-39.21 21.65 0 39.21 17.56 39.21 39.21z" stroke="#231f20" stroke-linecap="round" stroke-linejoin="round" stroke-width="21"/><path d="m426.17 155c0 21.66-17.56 39.22-39.22 39.22s-39.22-17.56-39.22-39.22 17.56-39.21 39.22-39.21 39.22 17.55 39.22 39.21z" stroke="#231f20" stroke-linecap="round" stroke-linejoin="round" stroke-width="21"/><path d="m171.82 125.87c0 21.66-17.55 39.22-39.21 39.22s-39.22-17.56-39.22-39.22 17.56-39.21 39.22-39.21 39.21 17.55 39.21 39.21z" stroke="#231f20" stroke-linecap="round" stroke-linejoin="round" stroke-width="21"/><path d="m171.82 422.79c0 21.66-17.55 39.22-39.21 39.22s-39.22-17.56-39.22-39.22 17.56-39.22 39.22-39.22 39.21 17.56 39.21 39.22z" stroke="#231f20" stroke-linecap="round" stroke-linejoin="round" stroke-width="21"/><path d="m309.64 553.89c0 21.65-17.56 39.21-39.22 39.21s-39.22-17.56-39.22-39.21c0-21.659 17.56-39.22 39.22-39.22s39.22 17.56 39.22 39.22z" stroke="#231f20" stroke-linecap="round" stroke-linejoin="round" stroke-width="21"/><path d="m157.25 664.81c0 21.66-17.55 39.221-39.21 39.221s-39.22-17.561-39.22-39.221c0-21.659 17.56-39.21 39.22-39.21s39.21 17.55 39.21 39.21z" stroke="#231f20" stroke-linecap="round" stroke-linejoin="round" stroke-width="21"/><path d="m720.85 493.39c0 21.66-17.55 39.21-39.22 39.21-21.649 0-39.21-17.55-39.21-39.21 0-21.659 17.561-39.22 39.21-39.22 21.67 0 39.22 17.56 39.22 39.22z" stroke="#231f20" stroke-linecap="round" stroke-linejoin="round" stroke-width="21"/><path d="m603.2 337.65c0 21.66-17.55 39.21-39.22 39.21-21.65 0-39.211-17.55-39.211-39.21s17.561-39.22 39.211-39.22c21.67 0 39.22 17.56 39.22 39.22z" stroke="#231f20" stroke-linecap="round" stroke-linejoin="round" stroke-width="21"/><path d="m634.58 125.88c0 21.66-17.55 39.21-39.22 39.21-21.65 0-39.21-17.55-39.21-39.21s17.56-39.21 39.21-39.21c21.67 0 39.22 17.55 39.22 39.21z" stroke="#231f20" stroke-linecap="round" stroke-linejoin="round" stroke-width="21"/><path d="m773.52 274.89c0 21.66-17.56 39.22-39.22 39.22-21.649 0-39.22-17.56-39.22-39.22s17.57-39.21 39.22-39.21c21.66 0 39.22 17.55 39.22 39.21z" stroke="#231f20" stroke-linecap="round" stroke-linejoin="round" stroke-width="21"/><path d="m.5.5h850.394v850.394h-850.394z" stroke="#fff"/></g></svg>