<svg enable-background="new 0 0 850.394 850.394" height="850.394" viewBox="0 0 850.394 850.394" width="850.394" xmlns="http://www.w3.org/2000/svg"><path d="m435.47 462.11c45.36 0 82.141 45.92 82.141 102.56 0 56.65-36.78 102.561-82.141 102.561-45.36 0-82.13-45.91-82.13-102.561 0-56.64 36.77-102.56 82.13-102.56z" fill="#00e800"/><path d="m532.67 302.71v37.38s-1.89 22.74-7.689 25.06c-7.61 3.04-1.16 40.56-1.16 40.56s8.699 10.43 8.699 23.18v72.431 240.77s.58 11.29-3.77 23.46c-4.34 12.17-16.51 30.42-32.16 30.42h-59.68-1.88-59.69c-15.64 0-27.81-18.25-32.16-30.42-4.34-12.17-3.76-23.46-3.76-23.46v-240.771s0-59.681 0-72.431 8.69-23.18 8.69-23.18 6.46-37.52-1.16-40.56c-5.79-2.31-7.68-25.06-7.68-25.06s0 0 0-37.37c0-42.67 16.3-81.92 28.25-107.78 9.69-20.97 31.29-55.63 31.29-55.63v-28.32h74.32v28.32s21.59 34.66 31.29 55.62c11.95 25.861 28.25 65.111 28.25 107.781zm-15.06 261.96c0-56.64-36.78-102.56-82.141-102.56-45.36 0-82.13 45.92-82.13 102.56 0 56.65 36.77 102.561 82.13 102.561 45.361-.001 82.141-45.911 82.141-102.561z" fill="#ffa500"/><path d="m476.56 72.18v18.08c0 10-8.109 18.1-18.109 18.1h-45.21c-9.99 0-18.09-8.1-18.09-18.1v-18.08c0-10 8.1-18.1 18.09-18.1h45.21c9.999 0 18.109 8.1 18.109 18.1z" fill="#ffa500"/><g fill="none"><path d="m476.56 90.26c0 10-8.109 18.1-18.109 18.1h-45.21c-9.99 0-18.09-8.1-18.09-18.1v-18.08c0-10 8.1-18.1 18.09-18.1h45.21c10 0 18.109 8.1 18.109 18.1z" stroke="#000" stroke-width="20.8603"/><path d="m382.22 110.99h16.59 74.32 16.44" stroke="#000" stroke-width="20.8603"/><path d="m473.13 109.61v1.38 28.32s21.59 34.66 31.29 55.62c11.95 25.86 28.25 65.11 28.25 107.78v37.38s-1.89 22.74-7.689 25.06c-7.61 3.04-1.16 40.56-1.16 40.56s8.699 10.43 8.699 23.18v72.431 240.77s.58 11.29-3.77 23.46c-4.34 12.17-16.51 30.42-32.16 30.42h-59.68-1.88-59.69c-15.64 0-27.81-18.25-32.16-30.42-4.34-12.17-3.76-23.46-3.76-23.46v-240.771s0-59.681 0-72.431 8.69-23.18 8.69-23.18 6.46-37.52-1.16-40.56c-5.79-2.31-7.68-25.06-7.68-25.06s0 0 0-37.37c0-42.67 16.3-81.92 28.25-107.78 9.69-20.97 31.29-55.63 31.29-55.63v-28.32-1.38" stroke="#000" stroke-width="20.8603"/><path d="m517.61 564.67c0 56.65-36.78 102.561-82.141 102.561-45.36 0-82.13-45.91-82.13-102.561 0-56.64 36.77-102.56 82.13-102.56 45.361 0 82.141 45.92 82.141 102.56z" stroke="#000" stroke-width="20.8603"/><path d="m0 0h850.394v850.394h-850.394z"/></g></svg>