<svg enable-background="new 0 0 850.394 850.394" height="850.394" viewBox="0 0 850.394 850.394" width="850.394" xmlns="http://www.w3.org/2000/svg"><path d="m210.95 577.73h429.72v.38h-429.72z" fill="#f6cc4b"/><path d="m569.83 315.88v86.99h-291.48v-86.99h16.77z" fill="#f6cc4b"/><path d="m616.53 402.99v86.99h-380.85v-86.99h42.67z" fill="#f6cc4b"/><path d="m667.04 577.73v86.99h-483.37v-86.99h27.28v.38h429.72v-.38z" fill="#f6cc4b"/><path d="m295.12 227.75h258.34v86.99h-258.34z" fill="#f6cc4b"/><path d="m697.67 665.86v86.99h-543.67-1.72v-86.99h31.39z" fill="#f6cc4b"/><path d="m640.67 491.12v86.61h-429.72v-86.61h24.73z" fill="#f6cc4b"/><path d="m553.67 227.75v-150.12l194.44 357.43v334.94l-2.11 4-48.33-21.15v-86.99h-514v-1.14h483.37v-86.99h-26.37v-86.61h-404.99v-1.14h380.85v-86.99h-338.18v-.12h291.48v-86.99h-274.71v-1.14h258.34v-86.99z" fill="#ffffc2"/><path d="m295.02 227.75h.1v86.99 1.14h-16.77v86.99.12h-42.67v86.99 1.14h-24.73v86.61h-27.28v86.99 1.14h-31.39v86.99h1.72v5.15l-53.43 11.16v-334.94l194.45-357.43z" fill="#ffffc2"/><g fill="none"><path d="m697.67 752.85h-543.67-1.72v-86.99h31.39 514z" stroke="#231f20" stroke-width="21"/><path d="m640.67 577.73h26.37v86.99h-483.37v-86.99h27.28z" stroke="#231f20" stroke-width="21"/><path d="m640.67 577.73v.38h-429.72v-.38-86.61h24.73 404.99z" stroke="#231f20" stroke-width="21"/><path d="m278.35 402.99h338.18v86.99h-380.85v-86.99z" stroke="#231f20" stroke-width="21"/><path d="m295.12 315.88h274.71v86.99h-291.48v-86.99z" stroke="#231f20" stroke-width="21"/><path d="m295.12 227.75h258.34v86.99h-258.34z" stroke="#231f20" stroke-width="21"/><path d="m100.57 769.16v-334.94l194.45-357.43v150.96 15.07" stroke="#231f20" stroke-linecap="round" stroke-linejoin="round" stroke-width="21"/><path d="m748.11 770v-334.94l-194.44-357.43v150.12 15.92" stroke="#231f20" stroke-linecap="round" stroke-linejoin="round" stroke-width="21"/><path d="m100.57 769.16 53.43-11.16" stroke="#231f20" stroke-width=".25"/><path d="m697.67 752.85 48.33 21.15" stroke="#231f20" stroke-width=".25"/><path d="m0 0h850.394v850.394h-850.394z"/></g></svg>