<svg enable-background="new 0 0 850.394 850.394" height="850.394" viewBox="0 0 850.394 850.394" width="850.394" xmlns="http://www.w3.org/2000/svg"><path d="m687.87 283.8h-13.09-13.11-13.1-14.84c-.811 0-1.61.07-2.381.21-6.29 1.09-11.069 6.46-11.069 12.93v2.11 142.46c0 2.84.92 5.48 2.5 7.63v1.96h1.75c2.399 2.21 5.64 3.561 9.2 3.561h133.62c7.431 0 13.45-5.891 13.45-13.15v-5.49-15.04-15-15-15.05-15.02-16.89-15.04-15-15-2.04c0-7.26-6.02-13.14-13.45-13.14h-1.3-13.09-13.1-13.11-13.08-12.71-13.09zm109.4-5.63v288.95c0 10.689-8.67 19.35-19.35 19.35h-154.14c-10.681 0-19.351-8.66-19.351-19.35v-288.95c0-10.69 8.67-19.35 19.351-19.35h154.14c10.68 0 19.35 8.66 19.35 19.35zm-50.34 240.9c0-24.971-21.01-45.23-46.93-45.23s-46.93 20.26-46.93 45.23 21.01 45.22 46.93 45.22 46.93-20.25 46.93-45.22z" fill="#c8c8c8"/><g fill="#787878"><path d="m766.44 436.02h13.1 1.26v5.49c0 7.26-6.02 13.15-13.45 13.15h-133.62c-3.561 0-6.801-1.351-9.2-3.561h11.359 13.07 13.11 13.1 13.08 13.11v-15.01-.07h12.71 13.08 13.1 13.11 13.081z"/><path d="m780.8 420.98v15.04h-1.26-13.1v-15.04h13.1z"/><path d="m780.8 405.98v15h-1.26-13.1v-15h13.1z"/><path d="m780.8 390.98v15h-1.26-13.1v-15h13.1z"/><path d="m780.8 375.93v15.05h-1.26-13.1v-15.05h13.1z"/><path d="m780.8 360.91v15.02h-1.26-13.1v-15-.18z"/><path d="m780.8 344.02v16.89l-14.36-.16-.41-.01.02-1.71v-15.01h13.1z"/><path d="m780.8 328.98v15.04h-1.65-13.1v-15.04h13.1z"/><path d="m780.8 313.98v15h-1.65-13.1v-15h13.1z"/><path d="m780.8 298.98v15h-1.65-13.1v-15h13.1z"/><path d="m780.8 296.94v2.04h-1.649-13.101v-15.18h1.3c7.43 0 13.45 5.88 13.45 13.14z"/><path d="m753.36 420.98h13.08v15.04h-13.08z"/><path d="m753.36 405.98h13.08v15h-13.08z"/><path d="m753.36 390.98h13.08v15h-13.08z"/><path d="m753.36 375.93h13.08v15.05h-13.08z"/><path d="m766.44 360.93v15h-13.08v-15-.33l12.67.14.41.01z"/><path d="m766.05 344.02v15.01l-.02 1.71-12.67-.14-.42-.01.02-1.56v-15.01z"/><path d="m752.96 328.98h13.09v15.04h-13.09z"/><path d="m752.96 313.98h13.09v15h-13.09z"/><path d="m752.96 298.98h13.09v15h-13.09z"/><path d="m752.96 283.8h13.09v15.18h-13.09z"/><path d="m740.25 420.98h13.11v15.04h-13.11z"/><path d="m740.25 405.98h13.11v15h-13.11z"/><path d="m740.25 390.98h13.11v15h-13.11z"/><path d="m740.25 375.93h13.11v15.05h-13.11z"/><path d="m753.36 360.93v15h-13.11v-15l.01-.48 12.68.14.42.01z"/><path d="m752.96 344.02v15.01l-.02 1.56-12.68-.14-.42-.01.02-1.41v-15.01z"/><path d="m739.86 328.98h13.1v15.04h-13.1z"/><path d="m739.86 313.98h13.1v15h-13.1z"/><path d="m739.86 298.98h13.1v15h-13.1z"/><path d="m739.86 283.8h13.1v15.18h-13.1z"/><path d="m740.26 360.45-.01.48v15h-13.11v-15l.01-.63 12.69.14z"/><path d="m727.15 420.98h13.1v15.04h-13.1z"/><path d="m727.15 405.98h13.1v15h-13.1z"/><path d="m740.25 390.98v15h-13.1l-.01-15z"/><path d="m727.14 375.93h13.11v15.05h-13.11z"/><path d="m739.86 344.02v15.01l-.02 1.41-12.69-.14-.4-.01.01-1.26v-15.01z"/><path d="m726.76 328.98h13.101v15.04h-13.101z"/><path d="m739.86 313.98v15h-13.1l-.01-15z"/><path d="m726.75 298.98h13.11v15h-13.11z"/><path d="m726.75 283.8h13.11v15.18h-13.11z"/><path d="m700 473.84c25.92 0 46.93 20.26 46.93 45.23s-21.01 45.22-46.93 45.22-46.93-20.25-46.93-45.22 21.01-45.23 46.93-45.23zm18.56 45.23c0-10.261-8.31-18.561-18.56-18.561s-18.56 8.3-18.56 18.561c0 10.25 8.31 18.55 18.56 18.55s18.56-8.3 18.56-18.55z"/><path d="m727.15 360.3-.01.63v15h-13.07v-15l.01-.78 12.67.14z"/><path d="m714.07 420.98h13.08v15.04h-13.08z"/><path d="m714.07 405.98h13.08v15h-13.08z"/><path d="m727.15 405.98h-13.08v-15h13.07z"/><path d="m714.07 375.93h13.069v15.05h-13.069z"/><path d="m726.76 344.02v15.01l-.01 1.26-12.67-.14h-.42l.01-1.12v-15.01z"/><path d="m713.67 328.98h13.09v15.04h-13.09z"/><path d="m726.75 313.98.01 15h-13.09v-15z"/><path d="m713.67 298.98h13.08v15h-13.08z"/><path d="m713.67 283.8h13.08v15.18h-13.08z"/><path d="m714.08 360.15-.01.78v15h-12.71v-14.94l.01-.99 12.29.15z"/><path d="m714.07 420.98v15.04h-12.71v-14.97-.07z"/><path d="m714.07 405.98v15h-12.71v-14.93-.07z"/><path d="m714.07 390.98v15h-12.71v-14.94-.06z"/><path d="m714.07 375.93v15.05h-12.71v-14.98-.07z"/><path d="m700 500.51c10.25 0 18.56 8.3 18.56 18.561 0 10.25-8.31 18.55-18.56 18.55s-18.56-8.3-18.56-18.55c0-10.261 8.31-18.561 18.56-18.561z"/><path d="m713.67 344.02v15.01l-.01 1.12-12.29-.15h-.42l.01-.9v-15-.08z"/><path d="m713.67 328.98v15.04h-12.71v-14.97-.07z"/><path d="m713.67 313.98v15h-12.71v-14.93-.07z"/><path d="m713.67 298.98v15h-12.71v-14.93-.07z"/><path d="m713.67 283.8v15.18h-12.71v-14.97-.21z"/><path d="m701.36 375.93v.07h-13.11v-15.01l.01-1.14 12.69.15h.42l-.01.99z"/><path d="m688.25 436.09h13.11v15.01h-13.11z"/><path d="m701.36 436.02v.07h-13.11v-15.04h13.11z"/><path d="m701.36 420.98v.07h-13.11v-15h13.11z"/><path d="m701.36 405.98v.07h-13.11v-15.01h13.11z"/><path d="m701.36 390.98v.06h-13.11v-15.04h13.11z"/><path d="m700.96 344.1v15l-.01.9-12.69-.15h-.4l.01-.75v-15z"/><path d="m700.96 344.02v.08h-13.09v-15.05h13.09z"/><path d="m700.96 328.98v.07h-13.09v-15h13.09z"/><path d="m700.96 313.98v.07h-13.09v-15h13.09z"/><path d="m700.96 298.98v.07h-13.09v-15.04h13.09z"/><path d="m688.26 359.85-.01 1.14v15.01h-13.08v-15.01l.01-1.29 12.68.15z"/><path d="m675.17 436.09h13.08v15.01h-13.08z"/><path d="m675.17 421.05h13.08v15.04h-13.08z"/><path d="m675.17 406.05h13.08v15h-13.08z"/><path d="m675.17 391.04h13.08v15.01h-13.08z"/><path d="m675.17 376h13.08v15.04h-13.08z"/><path d="m687.87 344.1v15l-.01.75-12.68-.15h-.41l.01-.6v-15z"/><path d="m674.78 329.05h13.09v15.05h-13.09z"/><path d="m674.78 314.05h13.09v15h-13.09z"/><path d="m674.78 299.05h13.09v15h-13.09z"/><path d="m674.78 284.01h13.09v15.04h-13.09z"/><path d="m675.18 359.7-.01 1.29v15.01h-13.1v-15.01l.02-1.44 12.68.15z"/><path d="m662.07 436.09h13.1v15.01h-13.1z"/><path d="m662.07 421.05h13.1v15.04h-13.1z"/><path d="m662.07 406.05h13.1v15h-13.1z"/><path d="m662.07 391.04h13.1v15.01h-13.1z"/><path d="m662.07 376h13.1v15.04h-13.1z"/><path d="m674.78 344.1v15l-.01.6-12.68-.15h-.43l.01-.45v-15z"/><path d="m661.67 329.05h13.11v15.05h-13.11z"/><path d="m661.67 314.05h13.11v15h-13.11z"/><path d="m661.67 299.05h13.11v15h-13.11z"/><path d="m661.67 284.01h13.11v15.04h-13.11z"/><path d="m662.09 359.55-.02 1.44v15.01h-13.11v-15.01l.02-1.59 12.68.15z"/><path d="m648.96 436.09h13.11v15.01h-13.11z"/><path d="m648.96 421.05h13.11v15.04h-13.11z"/><path d="m648.96 406.05h13.11v15h-13.11z"/><path d="m648.96 391.04h13.11v15.01h-13.11z"/><path d="m648.96 376h13.11v15.04h-13.11z"/><path d="m661.67 344.1v15l-.01.45-12.68-.15h-.41v-.3-15z"/><path d="m648.57 329.05h13.1v15.05h-13.1z"/><path d="m648.57 314.05h13.1v15h-13.1z"/><path d="m648.57 299.05h13.1v15h-13.1z"/><path d="m648.57 284.01h13.1v15.04h-13.1z"/><path d="m648.98 359.4-.02 1.59v15.01h-13.07v-15.01l.02-1.74 12.66.15z"/><path d="m635.89 436.09h13.07v15.01h-13.07z"/><path d="m635.89 421.05h13.07v15.04h-13.07z"/><path d="m635.89 406.05h13.07v15h-13.07z"/><path d="m635.89 391.04h13.07v15.01h-13.07z"/><path d="m635.89 376h13.07v15.04h-13.07z"/><path d="m648.57 359.1v.3l-12.66-.15h-.42v-.15-15h13.08z"/><path d="m635.49 329.05h13.08v15.05h-13.08z"/><path d="m635.49 314.05h13.08v15h-13.08z"/><path d="m635.49 299.05h13.08v15h-13.08z"/><path d="m635.49 284.01h13.08v15.04h-13.08z"/><path d="m635.91 359.25-.02 1.74v15.01h-13.11v-15.01l.02-1.89 12.69.15z"/><path d="m635.89 436.09v15.01h-11.36c-.65-.6-1.24-1.25-1.75-1.96v-13.05z"/><path d="m622.78 421.05h13.109v15.04h-13.109z"/><path d="m622.78 406.05h13.109v15h-13.109z"/><path d="m622.78 391.04h13.109v15.01h-13.109z"/><path d="m622.78 376h13.109v15.04h-13.109z"/><path d="m635.49 359.1v.15l-12.69-.15h-.42v-15h13.11z"/><path d="m622.38 329.05h13.11v15.05h-13.11z"/><path d="m622.38 314.05h13.11v15h-13.11z"/><path d="m622.38 314.05v15 15.05 15h.42l-.02 1.89v15.01 15.04 15.01 15 15.04 13.05c-1.58-2.149-2.5-4.79-2.5-7.63v-142.46h2.1 13.11v15z"/><path d="m635.49 284.01v15.04h-13.11-2.1v-2.11c0-6.47 4.779-11.84 11.069-12.93z"/></g><path d="m566.89 356.66v201.99c0 13.01-9.39 23.569-20.949 23.569h-235.191c-11.57 0-20.95-10.56-20.95-23.569v-201.99zm-24.11 195.68v-27.3h-229.31v27.3zm-.64-70.53v-89.88h-113.48-114.34v89.879h114.34 113.48z" fill="#c8c8c8"/><path d="m566.89 285.81v70.85h-277.09v-70.85c0-13.02 9.38-23.58 20.95-23.58h235.19c11.56 0 20.95 10.56 20.95 23.58zm-30.72 7.71c0-5.18-8.14-9.39-18.2-9.39s-18.2 4.21-18.2 9.39 8.141 9.39 18.2 9.39c10.06 0 18.2-4.21 18.2-9.39zm0 30.76c0-5.19-8.14-9.39-18.2-9.39s-18.2 4.2-18.2 9.39c0 5.18 8.141 9.38 18.2 9.38 10.06 0 18.2-4.2 18.2-9.38zm-68.26 3.98v-38.31h-153.87v38.31z" fill="#c8c8c8"/><path d="m313.47 525.04h229.31v27.3h-229.31z" fill="#787878"/><path d="m428.66 391.93h113.479v89.879h-113.479z" fill="#ffeec8"/><path d="m517.97 284.13c10.061 0 18.2 4.21 18.2 9.39s-8.14 9.39-18.2 9.39-18.2-4.21-18.2-9.39 8.14-9.39 18.2-9.39z"/><path d="m517.97 314.89c10.061 0 18.2 4.2 18.2 9.39 0 5.18-8.14 9.38-18.2 9.38s-18.2-4.2-18.2-9.38c0-5.19 8.14-9.39 18.2-9.39z"/><path d="m314.04 289.95h153.87v38.31h-153.87z" fill="#00efdc"/><path d="m314.32 391.93h114.34v89.879h-114.34z" fill="#ffeec8"/><path d="m142.52 283.45h-13.08-13.11-13.1-14.84c-.81 0-1.61.07-2.38.21-6.3 1.09-11.08 6.46-11.08 12.93v2.11 142.46c0 2.84.93 5.479 2.5 7.63v1.96h1.75c2.4 2.21 5.64 3.56 9.21 3.56h133.62c7.43 0 13.45-5.89 13.45-13.149v-5.49-15.04-15-15-15.05-15.02-16.89-15.04-15-15-2.04c0-7.26-6.02-13.14-13.45-13.14h-1.31-13.08-13.1-13.11-13.08-12.71-13.1zm109.41-5.63v288.95c0 10.69-8.67 19.36-19.35 19.36h-154.14c-10.69 0-19.35-8.67-19.35-19.36v-288.95c0-10.69 8.66-19.35 19.35-19.35h154.14c10.68 0 19.35 8.66 19.35 19.35zm-50.35 240.9c0-24.979-21.01-45.22-46.93-45.22-25.91 0-46.92 20.24-46.92 45.22 0 24.971 21.01 45.221 46.92 45.221 25.92-.001 46.93-20.251 46.93-45.221z" fill="#c8c8c8"/><path d="m221.1 435.67h13.1 1.26v5.49c0 7.26-6.02 13.149-13.45 13.149h-133.62c-3.57 0-6.81-1.35-9.21-3.56h11.37 13.07 13.1 13.11 13.08 13.1v-15.01-.07h12.72 13.08 13.1 13.11 13.08z" fill="#787878"/><path d="m235.46 420.63v15.04h-1.26-13.1v-15.04h13.1z" fill="#787878"/><path d="m235.46 405.63v15h-1.26-13.1v-15h13.1z" fill="#787878"/><path d="m235.46 390.63v15h-1.26-13.1v-15h13.1z" fill="#787878"/><path d="m235.46 375.58v15.05h-1.26-13.1v-15.05h13.1z" fill="#787878"/><path d="m235.46 360.56v15.02h-1.26-13.1v-15-.18z" fill="#787878"/><path d="m235.46 343.67v16.89l-14.36-.16-.42-.01.02-1.71v-15.01h13.11z" fill="#787878"/><path d="m235.46 328.63v15.04h-1.65-13.11v-15.04h13.11z" fill="#787878"/><path d="m235.46 313.63v15h-1.65-13.11v-15h13.11z" fill="#787878"/><path d="m235.46 298.63v15h-1.65-13.11v-15h13.11z" fill="#787878"/><path d="m235.46 296.59v2.04h-1.65-13.11v-15.18h1.31c7.43 0 13.45 5.88 13.45 13.14z" fill="#787878"/><path d="m208.02 420.63h13.08v15.04h-13.08z" fill="#787878"/><path d="m208.02 405.63h13.08v15h-13.08z" fill="#787878"/><path d="m208.02 390.63h13.08v15h-13.08z" fill="#787878"/><path d="m208.02 375.58h13.08v15.05h-13.08z" fill="#787878"/><path d="m221.1 360.58v15h-13.08v-15-.33l12.66.14.42.01z" fill="#787878"/><path d="m220.7 343.67v15.01l-.02 1.71-12.66-.14-.42-.01.02-1.56v-15.01z" fill="#787878"/><path d="m207.62 328.63h13.08v15.04h-13.08z" fill="#787878"/><path d="m207.62 313.63h13.08v15h-13.08z" fill="#787878"/><path d="m207.62 298.63h13.08v15h-13.08z" fill="#787878"/><path d="m207.62 283.45h13.08v15.18h-13.08z" fill="#787878"/><path d="m194.91 420.63h13.11v15.04h-13.11z" fill="#787878"/><path d="m194.91 405.63h13.11v15h-13.11z" fill="#787878"/><path d="m194.91 390.63h13.11v15h-13.11z" fill="#787878"/><path d="m194.91 375.58h13.11v15.05h-13.11z" fill="#787878"/><path d="m208.02 360.58v15h-13.11v-15l.01-.48 12.68.14.42.01z" fill="#787878"/><path d="m207.62 343.67v15.01l-.02 1.56-12.68-.14-.42-.01.02-1.41v-15.01z" fill="#787878"/><path d="m194.52 328.63h13.1v15.04h-13.1z" fill="#787878"/><path d="m194.52 313.63h13.1v15h-13.1z" fill="#787878"/><path d="m194.52 298.63h13.1v15h-13.1z" fill="#787878"/><path d="m194.52 283.45h13.1v15.18h-13.1z" fill="#787878"/><path d="m194.92 360.1-.01.48v15h-13.11v-15l.01-.63 12.69.14z" fill="#787878"/><path d="m181.81 420.63h13.1v15.04h-13.1z" fill="#787878"/><path d="m181.81 405.63h13.1v15h-13.1z" fill="#787878"/><path d="m194.91 390.63v15h-13.1l-.01-15z" fill="#787878"/><path d="m181.8 375.58h13.11v15.05h-13.11z" fill="#787878"/><path d="m194.52 343.67v15.01l-.02 1.41-12.69-.14-.4-.01.01-1.26v-15.01z" fill="#787878"/><path d="m181.42 328.63h13.1v15.04h-13.1z" fill="#787878"/><path d="m194.52 313.63v15h-13.1l-.01-15z" fill="#787878"/><path d="m181.41 298.63h13.11v15h-13.11z" fill="#787878"/><path d="m181.41 283.45h13.11v15.18h-13.11z" fill="#787878"/><path d="m154.65 473.5c25.92 0 46.93 20.24 46.93 45.22 0 24.971-21.01 45.221-46.93 45.221-25.91 0-46.92-20.25-46.92-45.221 0-24.98 21.01-45.22 46.92-45.22zm18.56 45.22c0-10.25-8.3-18.56-18.56-18.56-10.25 0-18.55 8.31-18.55 18.56s8.3 18.561 18.55 18.561c10.26-.001 18.56-8.311 18.56-18.561z" fill="#787878"/><path d="m181.81 359.95-.01.63v15h-13.07v-15l.01-.78 12.67.14z" fill="#787878"/><path d="m168.73 420.63h13.08v15.04h-13.08z" fill="#787878"/><path d="m168.73 405.63h13.08v15h-13.08z" fill="#787878"/><path d="m181.81 405.63h-13.08v-15h13.07z" fill="#787878"/><path d="m168.73 375.58h13.07v15.05h-13.07z" fill="#787878"/><path d="m181.42 343.67v15.01l-.01 1.26-12.67-.14h-.42l.01-1.12v-15.01z" fill="#787878"/><path d="m168.33 328.63h13.09v15.04h-13.09z" fill="#787878"/><path d="m181.41 313.63.01 15h-13.09v-15z" fill="#787878"/><path d="m168.33 298.63h13.08v15h-13.08z" fill="#787878"/><path d="m168.33 283.45h13.08v15.18h-13.08z" fill="#787878"/><path d="m168.74 359.8-.01.78v15h-12.72v-14.94l.01-.99 12.3.15z" fill="#787878"/><path d="m168.73 420.63v15.04h-12.72v-14.97-.07z" fill="#787878"/><path d="m168.73 405.63v15h-12.72v-14.93-.07z" fill="#787878"/><path d="m168.73 390.63v15h-12.72v-14.94-.06z" fill="#787878"/><path d="m168.73 375.58v15.05h-12.72v-14.98-.07z" fill="#787878"/><path d="m154.65 500.16c10.26 0 18.56 8.31 18.56 18.56s-8.3 18.561-18.56 18.561c-10.25 0-18.55-8.311-18.55-18.561s8.3-18.56 18.55-18.56z" fill="#787878"/><path d="m168.33 343.67v15.01l-.01 1.12-12.3-.15h-.41l.01-.9v-15-.08z" fill="#787878"/><path d="m168.33 328.63v15.04h-12.71v-14.97-.07z" fill="#787878"/><path d="m168.33 313.63v15h-12.71v-14.93-.07z" fill="#787878"/><path d="m168.33 298.63v15h-12.71v-14.93-.07z" fill="#787878"/><path d="m168.33 283.45v15.18h-12.71v-14.97-.21z" fill="#787878"/><path d="m156.01 375.58v.07h-13.1v-15.01l.01-1.14 12.69.15h.41l-.01.99z" fill="#787878"/><path d="m142.91 435.74h13.1v15.01h-13.1z" fill="#787878"/><path d="m156.01 435.67v.07h-13.1v-15.04h13.1z" fill="#787878"/><path d="m156.01 420.63v.07h-13.1v-15h13.1z" fill="#787878"/><path d="m156.01 405.63v.07h-13.1v-15.01h13.1z" fill="#787878"/><path d="m156.01 390.63v.06h-13.1v-15.04h13.1z" fill="#787878"/><path d="m155.62 343.75v15l-.01.9-12.69-.15h-.41l.01-.75v-15z" fill="#787878"/><path d="m155.62 343.67v.08h-13.1v-15.05h13.1z" fill="#787878"/><path d="m155.62 328.63v.07h-13.1v-15h13.1z" fill="#787878"/><path d="m155.62 313.63v.07h-13.1v-15h13.1z" fill="#787878"/><path d="m155.62 298.63v.07h-13.1v-15.04h13.1z" fill="#787878"/><path d="m142.92 359.5-.01 1.14v15.01h-13.08v-15.01l.01-1.29 12.67.15z" fill="#787878"/><path d="m129.83 435.74h13.08v15.01h-13.08z" fill="#787878"/><path d="m129.83 420.7h13.08v15.04h-13.08z" fill="#787878"/><path d="m129.83 405.7h13.08v15h-13.08z" fill="#787878"/><path d="m129.83 390.69h13.08v15.01h-13.08z" fill="#787878"/><path d="m129.83 375.65h13.08v15.04h-13.08z" fill="#787878"/><path d="m142.52 343.75v15l-.01.75-12.67-.15h-.41l.01-.6v-15z" fill="#787878"/><path d="m129.44 328.7h13.08v15.05h-13.08z" fill="#787878"/><path d="m129.44 313.7h13.08v15h-13.08z" fill="#787878"/><path d="m129.44 298.7h13.08v15h-13.08z" fill="#787878"/><path d="m129.44 283.66h13.08v15.04h-13.08z" fill="#787878"/><path d="m129.84 359.35-.01 1.29v15.01h-13.11v-15.01l.02-1.44 12.69.15z" fill="#787878"/><path d="m116.72 435.74h13.11v15.01h-13.11z" fill="#787878"/><path d="m116.72 420.7h13.11v15.04h-13.11z" fill="#787878"/><path d="m116.72 405.7h13.11v15h-13.11z" fill="#787878"/><path d="m116.72 390.69h13.11v15.01h-13.11z" fill="#787878"/><path d="m116.72 375.65h13.11v15.04h-13.11z" fill="#787878"/><path d="m129.44 343.75v15l-.01.6-12.69-.15h-.42l.01-.45v-15z" fill="#787878"/><path d="m116.33 328.7h13.11v15.05h-13.11z" fill="#787878"/><path d="m116.33 313.7h13.11v15h-13.11z" fill="#787878"/><path d="m116.33 298.7h13.11v15h-13.11z" fill="#787878"/><path d="m116.33 283.66h13.11v15.04h-13.11z" fill="#787878"/><path d="m116.74 359.2-.02 1.44v15.01h-13.1v-15.01l.02-1.59 12.68.15z" fill="#787878"/><path d="m103.62 435.74h13.1v15.01h-13.1z" fill="#787878"/><path d="m103.62 420.7h13.1v15.04h-13.1z" fill="#787878"/><path d="m103.62 405.7h13.1v15h-13.1z" fill="#787878"/><path d="m103.62 390.69h13.1v15.01h-13.1z" fill="#787878"/><path d="m103.62 375.65h13.1v15.04h-13.1z" fill="#787878"/><path d="m116.33 343.75v15l-.01.45-12.68-.15h-.41v-.3-15z" fill="#787878"/><path d="m103.23 328.7h13.1v15.05h-13.1z" fill="#787878"/><path d="m103.23 313.7h13.1v15h-13.1z" fill="#787878"/><path d="m103.23 298.7h13.1v15h-13.1z" fill="#787878"/><path d="m103.23 283.66h13.1v15.04h-13.1z" fill="#787878"/><path d="m103.64 359.05-.02 1.59v15.01h-13.07v-15.01l.02-1.74 12.66.15z" fill="#787878"/><path d="m90.55 435.74h13.07v15.01h-13.07z" fill="#787878"/><path d="m90.55 420.7h13.07v15.04h-13.07z" fill="#787878"/><path d="m90.55 405.7h13.07v15h-13.07z" fill="#787878"/><path d="m90.55 390.69h13.07v15.01h-13.07z" fill="#787878"/><path d="m90.55 375.65h13.07v15.04h-13.07z" fill="#787878"/><path d="m103.23 358.75v.3l-12.66-.15h-.42v-.15-15h13.08z" fill="#787878"/><path d="m90.15 328.7h13.08v15.05h-13.08z" fill="#787878"/><path d="m90.15 313.7h13.08v15h-13.08z" fill="#787878"/><path d="m90.15 298.7h13.08v15h-13.08z" fill="#787878"/><path d="m90.15 283.66h13.08v15.04h-13.08z" fill="#787878"/><path d="m90.57 358.9-.02 1.74v15.01h-13.12v-15.01l.02-1.89 12.7.15z" fill="#787878"/><path d="m90.55 435.74v15.01h-11.37c-.65-.6-1.24-1.25-1.75-1.96v-13.05z" fill="#787878"/><path d="m77.43 420.7h13.12v15.04h-13.12z" fill="#787878"/><path d="m77.43 405.7h13.12v15h-13.12z" fill="#787878"/><path d="m77.43 390.69h13.12v15.01h-13.12z" fill="#787878"/><path d="m77.43 375.65h13.12v15.04h-13.12z" fill="#787878"/><path d="m90.15 358.75v.15l-12.7-.15h-.41v-15h13.11z" fill="#787878"/><path d="m77.04 328.7h13.11v15.05h-13.11z" fill="#787878"/><path d="m77.04 313.7h13.11v15h-13.11z" fill="#787878"/><path d="m77.04 313.7v15 15.05 15h.41l-.02 1.89v15.01 15.04 15.01 15 15.04 13.05c-1.57-2.15-2.5-4.79-2.5-7.63v-142.46h2.11 13.11v15z" fill="#787878"/><path d="m90.15 283.66v15.04h-13.11-2.11v-2.11c0-6.47 4.78-11.84 11.08-12.93z" fill="#787878"/><path d="m566.89 356.66v201.99c0 13.01-9.39 23.569-20.949 23.569h-235.191c-11.57 0-20.95-10.56-20.95-23.569v-201.99-70.85c0-13.02 9.38-23.58 20.95-23.58h235.19c11.56 0 20.949 10.56 20.949 23.58v70.85z" fill="none" stroke="#000" stroke-width="20.4784"/><path d="m289.8 356.66h277.09" fill="none" stroke="#000" stroke-width="20.4784"/><path d="m314.04 289.95h153.87v38.31h-153.87z" fill="none" stroke="#000" stroke-width="13.6522"/><path d="m428.66 391.93h113.48v89.88h-113.48-114.34v-89.88z" fill="none" stroke="#000" stroke-width="13.6522"/><path d="m428.66 481.81v-89.88" fill="none" stroke="#000" stroke-width="13.6522"/><path d="m313.47 525.04h229.31v27.3h-229.31z" fill="none" stroke="#000" stroke-width="13.6522"/><path d="m797.27 567.12c0 10.689-8.67 19.35-19.35 19.35h-154.14c-10.681 0-19.351-8.66-19.351-19.35v-288.95c0-10.69 8.67-19.35 19.351-19.35h154.14c10.68 0 19.35 8.66 19.35 19.35z" fill="none" stroke="#000" stroke-width="13.6522"/><path d="m746.93 519.07c0 24.97-21.01 45.22-46.93 45.22s-46.93-20.25-46.93-45.22c0-24.971 21.01-45.23 46.93-45.23s46.93 20.26 46.93 45.23z" fill="none" stroke="#000" stroke-width="13.6522"/><path d="m700.96 436.02h.4 12.71 13.08 13.1 13.11 13.08 13.1" fill="none" stroke="#000" stroke-width="6.8261"/><path d="m700.96 420.98h.4 12.71 13.08 13.1 13.11 13.08 13.1" fill="none" stroke="#000" stroke-width="6.8261"/><path d="m700.96 405.98h.4 12.71 13.08 13.1 13.11 13.08 13.1" fill="none" stroke="#000" stroke-width="6.8261"/><path d="m700.96 390.98h.4 12.71 13.07 13.11 13.11 13.08 13.1" fill="none" stroke="#000" stroke-width="6.8261"/><path d="m700.96 375.93h.4 12.71 13.07 13.11 13.11 13.08 13.1" fill="none" stroke="#000" stroke-width="6.8261"/><path d="m766.44 360.93v15 15.05 15 15 15.04 15.01" fill="none" stroke="#000" stroke-width="6.8261"/><path d="m753.36 360.93v15 15.05 15 15 15.04 15.01" fill="none" stroke="#000" stroke-width="6.8261"/><path d="m740.25 360.93v15 15.05 15 15 15.04 15.01" fill="none" stroke="#000" stroke-width="6.8261"/><path d="m727.14 360.93v15 15.05l.01 15v15 15.04 15.01" fill="none" stroke="#000" stroke-width="6.8261"/><path d="m714.07 360.93v15 15.05 15 15 15.04 15.01" fill="none" stroke="#000" stroke-width="6.8261"/><path d="m701.36 360.99v14.94.07 14.98.06 14.94.07 14.93.07 14.97.07 15.01h-13.11-13.08-13.1-13.11-13.07-11.36-1.75v-1.96-13.05-15.04-15-15.01-15.04-15.01" fill="none" stroke="#000" stroke-width="6.8261"/><path d="m622.78 436.09h13.11 13.07 13.11 13.1 13.08 13.11" fill="none" stroke="#000" stroke-width="6.8261"/><path d="m622.78 421.05h13.11 13.07 13.11 13.1 13.08 13.11" fill="none" stroke="#000" stroke-width="6.8261"/><path d="m622.78 406.05h13.11 13.07 13.11 13.1 13.08 13.11" fill="none" stroke="#000" stroke-width="6.8261"/><path d="m622.78 391.04h13.11 13.07 13.11 13.1 13.08 13.11" fill="none" stroke="#000" stroke-width="6.8261"/><path d="m622.78 376h13.11 13.07 13.11 13.1 13.08 13.11" fill="none" stroke="#000" stroke-width="6.8261"/><path d="m688.25 360.99v15.01 15.04 15.01 15 15.04 15.01" fill="none" stroke="#000" stroke-width="6.8261"/><path d="m675.17 360.99v15.01 15.04 15.01 15 15.04 15.01" fill="none" stroke="#000" stroke-width="6.8261"/><path d="m662.07 360.99v15.01 15.04 15.01 15 15.04 15.01" fill="none" stroke="#000" stroke-width="6.8261"/><path d="m648.96 360.99v15.01 15.04 15.01 15 15.04 15.01" fill="none" stroke="#000" stroke-width="6.8261"/><path d="m635.89 360.99v15.01 15.04 15.01 15 15.04 15.01" fill="none" stroke="#000" stroke-width="6.8261"/><path d="m700.56 344.02h.4 12.71 13.09 13.1 13.1 13.09 13.1" fill="none" stroke="#000" stroke-width="6.8261"/><path d="m700.56 328.98h.4 12.71 13.09 13.1 13.1 13.09 13.1" fill="none" stroke="#000" stroke-width="6.8261"/><path d="m700.56 313.98h.4 12.71 13.08 13.11 13.1 13.09 13.1" fill="none" stroke="#000" stroke-width="6.8261"/><path d="m700.56 298.98h.4 12.71 13.08 13.11 13.1 13.09 13.1" fill="none" stroke="#000" stroke-width="6.8261"/><path d="m766.05 281.47v2.33 15.18 15 15 15.04 15.01" fill="none" stroke="#000" stroke-width="6.8261"/><path d="m752.96 283.8v15.18 15 15 15.04 15.01" fill="none" stroke="#000" stroke-width="6.8261"/><path d="m739.86 283.8v15.18 15 15 15.04 15.01" fill="none" stroke="#000" stroke-width="6.8261"/><path d="m726.75 283.8v15.18 15l.01 15v15.04 15.01" fill="none" stroke="#000" stroke-width="6.8261"/><path d="m713.67 283.8v15.18 15 15 15.04 15.01" fill="none" stroke="#000" stroke-width="6.8261"/><path d="m782.22 360.93-1.42-.02-14.36-.16-.41-.01-12.67-.14-.42-.01-12.68-.14-.42-.01-12.69-.14-.4-.01-12.67-.14h-.42l-12.29-.15h-.42l-12.69-.15h-.4l-12.68-.15h-.41l-12.68-.15h-.43l-12.68-.15h-.41l-12.66-.15h-.42l-12.69-.15h-.42v-15-15.05-15-9.41" fill="none" stroke="#000" stroke-width="6.8261"/><path d="m700.96 283.8v.21 14.97.07 14.93.07 14.93.07 14.97.08 15" fill="none" stroke="#000" stroke-width="6.8261"/><path d="m622.38 344.1h13.11 13.08 13.1 13.11 13.09 13.09" fill="none" stroke="#000" stroke-width="6.8261"/><path d="m622.38 329.05h13.11 13.08 13.1 13.11 13.09 13.09" fill="none" stroke="#000" stroke-width="6.8261"/><path d="m622.38 314.05h13.11 13.08 13.1 13.11 13.09 13.09" fill="none" stroke="#000" stroke-width="6.8261"/><path d="m622.38 299.05h13.11 13.08 13.1 13.11 13.09 13.09" fill="none" stroke="#000" stroke-width="6.8261"/><path d="m622.38 284.01h8.97 4.14 13.08 13.1 13.11 13.09 13.09" fill="none" stroke="#000" stroke-width="6.8261"/><path d="m687.87 282.93v.87.21 15.04 15 15 15.05 15" fill="none" stroke="#000" stroke-width="6.8261"/><path d="m674.78 283.8v.21 15.04 15 15 15.05 15" fill="none" stroke="#000" stroke-width="6.8261"/><path d="m661.67 283.8v.21 15.04 15 15 15.05 15" fill="none" stroke="#000" stroke-width="6.8261"/><path d="m648.57 283.8v.21 15.04 15 15 15.05 15" fill="none" stroke="#000" stroke-width="6.8261"/><path d="m635.49 284.01v15.04 15 15 15.05 15" fill="none" stroke="#000" stroke-width="6.8261"/><path d="m780.8 436.02v5.49c0 7.26-6.02 13.15-13.45 13.15h-133.62c-3.561 0-6.801-1.351-9.2-3.561-.65-.6-1.24-1.25-1.75-1.96-1.58-2.149-2.5-4.79-2.5-7.63v-142.459-2.11c0-6.47 4.779-11.84 11.069-12.93.771-.14 1.57-.21 2.381-.21h14.84 13.1 13.11 13.09 13.09 12.71 13.08 13.11 13.1 13.09 1.3c7.431 0 13.45 5.88 13.45 13.14v2.04 15 15 15.04 16.89 15.02 15.05 15 15z" fill="none" stroke="#000" stroke-width="13.6522"/><path d="m718.56 519.07c0 10.25-8.31 18.55-18.56 18.55s-18.56-8.3-18.56-18.55c0-10.261 8.31-18.561 18.56-18.561s18.56 8.301 18.56 18.561z" fill="none" stroke="#000" stroke-width="10.2392"/><path d="m251.93 566.77c0 10.69-8.67 19.36-19.35 19.36h-154.14c-10.69 0-19.35-8.67-19.35-19.36v-288.95c0-10.69 8.66-19.35 19.35-19.35h154.14c10.68 0 19.35 8.66 19.35 19.35z" fill="none" stroke="#000" stroke-width="13.6522"/><path d="m201.58 518.72c0 24.971-21.01 45.221-46.93 45.221-25.91 0-46.92-20.25-46.92-45.221 0-24.979 21.01-45.22 46.92-45.22 25.92 0 46.93 20.24 46.93 45.22z" fill="none" stroke="#000" stroke-width="13.6522"/><path d="m155.62 435.67h.39 12.72 13.08 13.1 13.11 13.08 13.1" fill="none" stroke="#000" stroke-width="6.8261"/><path d="m155.62 420.63h.39 12.72 13.08 13.1 13.11 13.08 13.1" fill="none" stroke="#000" stroke-width="6.8261"/><path d="m155.62 405.63h.39 12.72 13.08 13.1 13.11 13.08 13.1" fill="none" stroke="#000" stroke-width="6.8261"/><path d="m155.62 390.63h.39 12.72 13.07 13.11 13.11 13.08 13.1" fill="none" stroke="#000" stroke-width="6.8261"/><path d="m155.62 375.58h.39 12.72 13.07 13.11 13.11 13.08 13.1" fill="none" stroke="#000" stroke-width="6.8261"/><path d="m221.1 360.58v15 15.05 15 15 15.04 15" fill="none" stroke="#000" stroke-width="6.8261"/><path d="m208.02 360.58v15 15.05 15 15 15.04 15" fill="none" stroke="#000" stroke-width="6.8261"/><path d="m194.91 360.58v15 15.05 15 15 15.04 15" fill="none" stroke="#000" stroke-width="6.8261"/><path d="m181.8 360.58v15 15.05l.01 15v15 15.04 15" fill="none" stroke="#000" stroke-width="6.8261"/><path d="m168.73 360.58v15 15.05 15 15 15.04 15" fill="none" stroke="#000" stroke-width="6.8261"/><path d="m156.01 360.64v14.94.07 14.98.06 14.94.07 14.93.07 14.97.07 15.01h-13.1-13.08-13.11-13.1-13.07-11.37-1.75v-1.96-13.05-15.04-15-15.01-15.04-15.01" fill="none" stroke="#000" stroke-width="6.8261"/><path d="m77.43 435.74h13.12 13.07 13.1 13.11 13.08 13.1" fill="none" stroke="#000" stroke-width="6.8261"/><path d="m77.43 420.7h13.12 13.07 13.1 13.11 13.08 13.1" fill="none" stroke="#000" stroke-width="6.8261"/><path d="m77.43 405.7h13.12 13.07 13.1 13.11 13.08 13.1" fill="none" stroke="#000" stroke-width="6.8261"/><path d="m77.43 390.69h13.12 13.07 13.1 13.11 13.08 13.1" fill="none" stroke="#000" stroke-width="6.8261"/><path d="m77.43 375.65h13.12 13.07 13.1 13.11 13.08 13.1" fill="none" stroke="#000" stroke-width="6.8261"/><path d="m142.91 360.64v15.01 15.04 15.01 15 15.04 15.01" fill="none" stroke="#000" stroke-width="6.8261"/><path d="m129.83 360.64v15.01 15.04 15.01 15 15.04 15.01" fill="none" stroke="#000" stroke-width="6.8261"/><path d="m116.72 360.64v15.01 15.04 15.01 15 15.04 15.01" fill="none" stroke="#000" stroke-width="6.8261"/><path d="m103.62 360.64v15.01 15.04 15.01 15 15.04 15.01" fill="none" stroke="#000" stroke-width="6.8261"/><path d="m90.55 360.64v15.01 15.04 15.01 15 15.04 15.01" fill="none" stroke="#000" stroke-width="6.8261"/><path d="m155.22 343.67h.4 12.71 13.09 13.1 13.1 13.08 13.11" fill="none" stroke="#000" stroke-width="6.8261"/><path d="m155.22 328.63h.4 12.71 13.09 13.1 13.1 13.08 13.11" fill="none" stroke="#000" stroke-width="6.8261"/><path d="m155.22 313.63h.4 12.71 13.08 13.11 13.1 13.08 13.11" fill="none" stroke="#000" stroke-width="6.8261"/><path d="m155.22 298.63h.4 12.71 13.08 13.11 13.1 13.08 13.11" fill="none" stroke="#000" stroke-width="6.8261"/><path d="m220.7 281.12v2.33 15.18 15 15 15.04 15.01" fill="none" stroke="#000" stroke-width="6.8261"/><path d="m207.62 283.45v15.18 15 15 15.04 15.01" fill="none" stroke="#000" stroke-width="6.8261"/><path d="m194.52 283.45v15.18 15 15 15.04 15.01" fill="none" stroke="#000" stroke-width="6.8261"/><path d="m181.41 283.45v15.18 15l.01 15v15.04 15.01" fill="none" stroke="#000" stroke-width="6.8261"/><path d="m168.33 283.45v15.18 15 15 15.04 15.01" fill="none" stroke="#000" stroke-width="6.8261"/><path d="m236.88 360.58-1.42-.02-14.36-.16-.42-.01-12.66-.14-.42-.01-12.68-.14-.42-.01-12.69-.14-.4-.01-12.67-.14h-.42l-12.3-.15h-.41l-12.69-.15h-.41l-12.67-.15h-.41l-12.69-.15h-.42l-12.68-.15h-.41l-12.66-.15h-.42l-12.7-.15h-.41v-15-15.05-15-9.41" fill="none" stroke="#000" stroke-width="6.8261"/><path d="m155.62 283.45v.21 14.97.07 14.93.07 14.93.07 14.97.08 15" fill="none" stroke="#000" stroke-width="6.8261"/><path d="m77.04 343.75h13.11 13.08 13.1 13.11 13.08 13.1" fill="none" stroke="#000" stroke-width="6.8261"/><path d="m77.04 328.7h13.11 13.08 13.1 13.11 13.08 13.1" fill="none" stroke="#000" stroke-width="6.8261"/><path d="m77.04 313.7h13.11 13.08 13.1 13.11 13.08 13.1" fill="none" stroke="#000" stroke-width="6.8261"/><path d="m77.04 298.7h13.11 13.08 13.1 13.11 13.08 13.1" fill="none" stroke="#000" stroke-width="6.8261"/><path d="m77.04 283.66h8.97 4.14 13.08 13.1 13.11 13.08 13.1" fill="none" stroke="#000" stroke-width="6.8261"/><path d="m142.52 283.13v.32.21 15.04 15 15 15.05 15" fill="none" stroke="#000" stroke-width="6.8261"/><path d="m129.44 283.45v.21 15.04 15 15 15.05 15" fill="none" stroke="#000" stroke-width="6.8261"/><path d="m116.33 283.45v.21 15.04 15 15 15.05 15" fill="none" stroke="#000" stroke-width="6.8261"/><path d="m103.23 283.45v.21 15.04 15 15 15.05 15" fill="none" stroke="#000" stroke-width="6.8261"/><path d="m90.15 283.66v15.04 15 15 15.05 15" fill="none" stroke="#000" stroke-width="6.8261"/><path d="m235.46 435.67v5.49c0 7.26-6.02 13.149-13.45 13.149h-133.62c-3.57 0-6.81-1.35-9.21-3.56-.65-.6-1.24-1.25-1.75-1.96-1.57-2.15-2.5-4.79-2.5-7.63v-142.459-2.11c0-6.47 4.78-11.84 11.08-12.93.77-.14 1.57-.21 2.38-.21h14.84 13.1 13.11 13.08 13.1 12.71 13.08 13.11 13.1 13.08 1.31c7.43 0 13.45 5.88 13.45 13.14v2.04 15 15 15.04 16.89 15.02 15.05 15 15z" fill="none" stroke="#000" stroke-width="13.6522"/><path d="m173.21 518.72c0 10.25-8.3 18.561-18.56 18.561-10.25 0-18.55-8.311-18.55-18.561s8.3-18.56 18.55-18.56c10.26 0 18.56 8.31 18.56 18.56z" fill="none" stroke="#000" stroke-width="10.2392"/><path d="m0 0h850.394v850.394h-850.394z" fill="none"/></svg>