<svg enable-background="new 0 0 850.394 850.394" height="850.394" viewBox="0 0 850.394 850.394" width="850.394" xmlns="http://www.w3.org/2000/svg"><path d="m631.5 430.05c18.32 0 33.17 14.851 33.17 33.181 0 18.319-14.85 33.18-33.17 33.18-18.33 0-33.18-14.86-33.18-33.18 0-18.331 14.85-33.181 33.18-33.181z" fill="#c8c8c8"/><path d="m587.78 498.25c-7.7-9.59-12.3-21.76-12.3-35.02 0-30.94 25.069-56.01 56.02-56.01 30.94 0 56.01 25.07 56.01 56.01 0 30.939-25.069 56.01-56.01 56.01-17.69 0-33.46-8.19-43.72-20.99zm76.89-35.02c0-18.33-14.85-33.181-33.17-33.181-18.33 0-33.18 14.851-33.18 33.181 0 18.319 14.85 33.18 33.18 33.18 18.32 0 33.17-14.86 33.17-33.18z" fill="#c8c8c8"/><path d="m415.56 71.25c1.23-3.39 4.46-5.66 8.07-5.66.5 0 1.02.05 1.53.14l22.06 3.92c4.311.77 7.29 4.61 7.08 8.87 0 .37-.04.75-.109 1.13-.83 4.68-5.301 7.8-9.99 6.97l-22.06-3.93c-4.69-.83-7.81-5.31-6.97-9.99.089-.5.219-.98.389-1.45z" fill="#c8c8c8"/><path d="m495.79 74.63c.61 4.72-2.71 9.04-7.43 9.65l-22.23 2.87c-4.72.62-9.03-2.71-9.649-7.43-.051-.38-.07-.75-.07-1.12 0-4.27 3.17-7.97 7.51-8.54l22.22-2.87c.38-.05.75-.07 1.12-.07 3.771 0 7.11 2.48 8.21 6.05.149.47.259.96.319 1.46z" fill="#c8c8c8"/><g fill="none"><path d="m427.25 73.26s-4.64-1.07-11.69-2.01c-14.84-1.97-40.33-3.34-55.52 7.18-22.41 15.52-36.03 50.38-24.99 110.31 12.34 66.96 28.43 143.04 28.43 143.04" stroke="#231f20" stroke-width="21"/><path d="m445.81 464.09c.28.01.57.01.87.01" stroke="#231f20" stroke-linecap="round" stroke-width="28"/><path d="m363.48 331.78s14.21 104.86 54.29 124.09c13.62 6.54 16.42 8.149 27.98 8.22" stroke="#231f20" stroke-linecap="round" stroke-width="28"/><path d="m446.56 514.09c8.23.78 16.721 1.76 25.5 2.96 79.69 10.87 106.851-7.859 115.721-18.8.26-.31.5-.62.72-.92" stroke="#231f20" stroke-width="28"/><path d="m446.56 514.09c-.25 51.8-3.199 139.98-19.449 179.48-29.3 71.239-125.23 143.609-216.15 52.699-71.94-71.939-25.85-174.069 40.5-205.949-.001 0 61.189-39.01 195.099-26.23z" stroke="#231f20" stroke-width="28"/><path d="m446.21 473.97s.46 16.17.35 40.12" stroke="#231f20" stroke-width="28"/><path d="m664.67 463.23c0 18.319-14.85 33.18-33.17 33.18-18.33 0-33.18-14.86-33.18-33.18 0-18.33 14.85-33.181 33.18-33.181 18.32.001 33.17 14.851 33.17 33.181z" stroke="#231f20" stroke-linecap="round" stroke-width="21"/><path d="m687.51 463.23c0 30.939-25.069 56.01-56.01 56.01-17.69 0-33.46-8.19-43.72-20.99-7.7-9.59-12.3-21.76-12.3-35.02 0-30.94 25.069-56.01 56.02-56.01 30.94 0 56.01 25.07 56.01 56.01z" stroke="#231f20" stroke-linecap="round" stroke-width="14"/><path d="m454.3 78.52c0 .37-.04.75-.109 1.13-.83 4.68-5.301 7.8-9.99 6.97l-22.06-3.93c-4.69-.83-7.81-5.31-6.97-9.99.09-.5.22-.98.39-1.45 1.23-3.39 4.46-5.66 8.07-5.66.5 0 1.02.05 1.53.14l22.06 3.92c4.309.77 7.289 4.61 7.079 8.87z" stroke="#231f20" stroke-linecap="round" stroke-width="14"/><path d="m483.7 74.62s4.689-.85 11.77-1.45c14.92-1.26 40.45-1.42 55.12 9.8 21.64 16.56 33.6 52.03 19.73 111.37-15.511 66.3-35.2 141.53-35.2 141.53" stroke="#231f20" stroke-width="21"/><path d="m535.12 335.87s-19.16 104.07-60.11 121.38c-14.26 6.02-16.93 7.43-29.2 6.84-.02 0-.04 0-.06 0" stroke="#231f20" stroke-linecap="round" stroke-width="28"/><path d="m456.41 78.6c0 .37.02.74.07 1.12.619 4.72 4.93 8.05 9.649 7.43l22.23-2.87c4.72-.61 8.04-4.93 7.43-9.65-.06-.5-.17-.99-.32-1.46-1.1-3.57-4.439-6.05-8.21-6.05-.37 0-.74.02-1.12.07l-22.22 2.87c-4.339.57-7.509 4.27-7.509 8.54z" stroke="#231f20" stroke-linecap="round" stroke-width="14"/><path d="m0 0h850.394v850.394h-850.394z"/></g></svg>