<svg enable-background="new 0 0 850.394 850.394" height="850.394" viewBox="0 0 850.394 850.394" width="850.394" xmlns="http://www.w3.org/2000/svg"><path d="m702.576 608.732v140.747l-131.48 34.105-.783-3.022v-139.038-2.825z" fill="#ed1d31"/><path d="m702.576 604.783v3.949l-132.263 29.967-1.808-1.178 1.808-2.78 21.474-41.833-69.118-8.844 105.301-22.238-19.782 23.175 82.513 16.957 1.737-3.014z" fill="#ed1d31"/><path d="m692.438 598.944-1.737 3.014-82.513-16.957 19.782-23.175z" fill="#ed1d31"/><path d="m546.374 623.136v141.817l-1.467 1.871-48.076-37.694v-139.613l25.838-5.453 69.118 8.844-21.474 41.833-1.808 2.78z" fill="#ed1d31"/><path d="m570.313 780.562.783 3.022-3.608.936-22.581-17.696 1.467-1.871v-141.817l22.131 14.385 1.808 1.178v2.825z" fill="#ed1d31"/><path d="m474.961 198.188v422.069l-17.569 3.409h-3.257v-51.233-3.958l-10.139-5.839-64.467-37.119-105.293 22.239h-.008l-25.838 5.461v114.046h-4.21l-35.428 7.403-1.043-4.992v-439.721l263.222-31.765z" fill="#fbee34"/><path d="m207.709 229.953-132.12-66.563 242.045-24.2 157.327 54.455v4.543h-4.03z" fill="#fbee34"/><path d="m454.135 623.666v89.505l-131.481 34.104-.782-3.022v-139.038-2.824l132.263-29.958z" fill="#ed1d31"/><path d="m454.135 568.475v3.958l-132.263 29.958-1.809-1.179 1.809-2.78 21.483-41.824-69.119-8.852 105.293-22.239-19.783 23.174 82.514 16.958 1.736-3.013z" fill="#ed1d31"/><path d="m443.996 562.636-1.736 3.013-82.514-16.958 19.783-23.174z" fill="#ed1d31"/><path d="m297.933 586.827v141.818l-1.467 1.871-48.076-37.695v-25.558-114.046l25.838-5.461h.008l69.119 8.852-21.483 41.824-1.809 2.78z" fill="#ed1d31"/><path d="m321.872 744.253.782 3.022-3.607.936-22.581-17.695 1.467-1.871v-141.818l22.13 14.385 1.809 1.179v2.824z" fill="#ed1d31"/><path d="m207.709 669.674 1.043 4.992-5.083 1.062-128.08-88.749v-423.589l132.12 66.563z" fill="#fbee34"/><path d="m244.18 667.263-35.428 7.403-5.083 1.062-128.08-88.749v-423.589l242.045-24.2 157.327 54.455v4.543 422.069l-17.569 3.409" fill="none" stroke="#231f20" stroke-width="18.8922"/><path d="m207.709 669.674v-439.721-2.447" fill="none" stroke="#231f20" stroke-width="18.8922"/><path d="m470.931 198.188-263.222 31.765-132.12-66.563" fill="none" stroke="#231f20" stroke-width="18.8922"/><path d="m627.97 561.826 64.468 37.118 10.138 5.839v3.949 140.747l-131.48 34.105-3.608.936-22.581-17.696-48.076-37.694v-139.613l25.838-5.453z" fill="none" stroke="#231f20" stroke-width="12.5948"/><path d="m570.313 641.524v139.038" fill="none" stroke="#231f20" stroke-width="12.5948"/><path d="m502.49 594.608 43.884 28.528 22.131 14.385 1.808 1.178 132.263-29.967" fill="none" stroke="#231f20" stroke-width="12.5948"/><path d="m546.374 623.127v.009 141.817" fill="none" stroke="#231f20" stroke-width="12.5948"/><path d="m522.669 584.064 69.118 8.844-21.474 41.833" fill="none" stroke="#231f20" stroke-width="12.5948"/><path d="m627.97 561.826-19.782 23.175 82.513 16.957" fill="none" stroke="#231f20" stroke-width="12.5948"/><path d="m274.236 547.756 105.293-22.239 64.467 37.119 10.139 5.839v3.958 51.233 89.505l-131.481 34.104-3.607.936-22.581-17.695-48.076-37.695v-25.558-114.046l25.838-5.461" fill="none" stroke="#231f20" stroke-width="12.5948"/><path d="m321.872 605.215v139.038" fill="none" stroke="#231f20" stroke-width="12.5948"/><path d="m254.049 558.3 43.884 28.527 22.13 14.385 1.809 1.179 132.263-29.958" fill="none" stroke="#231f20" stroke-width="12.5948"/><path d="m297.933 586.827v141.818" fill="none" stroke="#231f20" stroke-width="12.5948"/><path d="m274.228 547.756h.008l69.119 8.852-21.483 41.824" fill="none" stroke="#231f20" stroke-width="12.5948"/><path d="m379.529 525.517-19.783 23.174 82.514 16.958" fill="none" stroke="#231f20" stroke-width="12.5948"/><path d="m0 0h850.394v850.394h-850.394z" fill="none"/><path d="m820.55 231.447v55.758l-52.084 13.508-.31-1.196v-55.083-1.116z" fill="#ed1d31"/><path d="m816.533 227.569-.685 1.193-32.691-6.72 7.84-9.179z" fill="#ed1d31"/><path d="m758.671 237.152v56.181l-.58.741-19.047-14.932v-55.309l10.236-2.16 27.383 3.506-8.507 16.57-.716 1.102z" fill="#ed1d31"/><path d="m768.156 241.749 8.507-16.57-27.383-3.506 41.717-8.81-7.84 9.179 32.691 6.72.685-1.193 4.017 2.313v1.565l-52.394 11.871-.716-.467z" fill="#ed1d31"/><path d="m768.156 299.517.31 1.196-1.43.372-8.945-7.011.58-.741v-56.181l8.769 5.699.716.467v1.116z" fill="#ed1d31"/><path d="m654.863 274.706c-29.206-1.025-42.785-8.5-53.587-16.329-10.604-7.679-11.63-27.674-11.63-27.674l-4.757-82.247c3.046 12.717 34.445 22.717 72.732 22.717h2.611v-.015c38.47-.459 69.369-11.017 70.343-24.096l.964.055-2.303 41.403-2.338 42.099s-1.021 19.995-11.63 27.674c-11.631 8.424-26.471 16.446-60.56 16.446z" fill="#9e5c26"/><path d="m730.576 147.062c-.974 13.079-31.873 23.636-70.343 24.096-.864.011-1.736.015-2.611.015-38.287 0-69.687-10-72.732-22.717l-.18-3.071c1.605-13.188 33.636-23.709 72.912-23.709 40.304 0 72.98 11.08 72.98 24.749.001.214-.007.426-.026.637z" fill="#9e5c26"/><g fill="none"><path d="m735.95 67.712c-1.955 14.822-37.247 26.628-80.495 26.628-34.125 0-61.424-9.602-68.304-16.522-2.276-2.291-27.248-10.751-27.248-10.751" stroke="#231f20" stroke-width="7.661"/><path d="m735.976 67.263-.025.441v.007l-1.083 19.54-3.327 59.865-2.303 41.403-2.338 42.099s-1.021 19.995-11.63 27.674c-11.631 8.424-26.471 16.446-60.56 16.446l.153-.033c-29.206-1.025-42.785-8.5-53.587-16.329-10.604-7.679-11.63-27.674-11.63-27.674l-4.757-82.247-.18-3.071-1.561-26.982s.788-16.041-8.668-29.276-18.124-22.06-18.124-22.06l2.871-1.39 23.852-11.55c13.118-9.263 40.6-15.636 72.375-15.636 44.503 0 80.583 12.502 80.583 27.922 0 .435-.029.865-.088 1.292" stroke="#231f20" stroke-width="7.661"/><path d="m736.107 87.321h16.979s18.047 3.911 20.002 20.002c1.952 16.096-2.86 46.174-10.98 57.604-8.121 11.434-17.592 19.529-27.679 22.261-2.159.587-2.4 1.05-3.731 1.412" stroke="#231f20" stroke-width="10.2147"/><path d="m660.233 154.5v8.296 8.362.014 8.004 11.849 11.405 8.007 8.376 11.78 11.652 8.008 8.372 9.179" stroke="#231f20" stroke-width="5.1074"/><path d="m645.222 151.017h30.079" stroke="#231f20" stroke-width="7.661"/><path d="m645.167 191.025h15.066 15.016" stroke="#231f20" stroke-width="5.1074"/><path d="m649.355 162.796h10.878 11.178" stroke="#231f20" stroke-width="2.5537"/><path d="m649.396 171.172h8.226 2.611 11.218" stroke="#231f20" stroke-width="4.7945"/><path d="m649.278 179.176h10.955 11.106" stroke="#231f20" stroke-width="2.5537"/><path d="m675.297 230.593h-15.064-15.015" stroke="#231f20" stroke-width="5.1074"/><path d="m671.167 218.813h-10.934-11.127" stroke="#231f20" stroke-width="2.5537"/><path d="m671.123 210.437h-10.89-11.167" stroke="#231f20" stroke-width="2.5537"/><path d="m671.244 202.43h-11.011-11.053" stroke="#231f20" stroke-width="2.5537"/><path d="m670.871 258.625h-10.638-11.418" stroke="#231f20" stroke-width="2.5537"/><path d="m670.831 250.253h-10.598-11.458" stroke="#231f20" stroke-width="2.5537"/><path d="m670.948 242.245h-10.715-11.345" stroke="#231f20" stroke-width="2.5537"/><path d="m790.997 212.863 25.536 14.706 4.017 2.313v1.565 55.758l-52.084 13.508-1.43.372-8.945-7.011-19.047-14.932v-55.309l10.236-2.16z" stroke="#231f20" stroke-width="5.1074"/><path d="m768.156 244.434v55.083" stroke="#231f20" stroke-width="5.1074"/><path d="m741.284 225.851 17.387 11.301 8.769 5.699.716.467 52.394-11.871" stroke="#231f20" stroke-width="5.1074"/><path d="m758.671 237.149v.003 56.181" stroke="#231f20" stroke-width="5.1074"/><path d="m749.28 221.673 27.383 3.506-8.507 16.57" stroke="#231f20" stroke-width="5.1074"/><path d="m790.997 212.863-7.84 9.179 32.691 6.72" stroke="#231f20" stroke-width="5.1074"/><path d="m584.71 145.384c1.605-13.188 33.636-23.709 72.912-23.709 40.304 0 72.98 11.08 72.98 24.749 0 .215-.008.427-.026.638-.974 13.079-31.873 23.636-70.343 24.096-.864.011-1.736.015-2.611.015-38.287 0-69.687-10-72.732-22.717-.165-.671-.245-1.346-.245-2.032 0-.35.022-.697.065-1.04z" stroke="#231f20" stroke-width="5.1074"/></g></svg>