<svg enable-background="new 0 0 850.394 850.394" height="850.394" viewBox="0 0 850.394 850.394" width="850.394" xmlns="http://www.w3.org/2000/svg"><path d="m338.94 428.19h7.16v-.04c105.45-1.261 190.15-30.2 192.82-66.05l2.64.15-6.31 113.49-6.41 115.399s-2.8 54.811-31.88 75.86c-31.88 23.09-72.56 45.08-166 45.08l.42-.09c-80.06-2.811-117.27-23.3-146.89-44.76-29.07-21.051-31.88-75.86-31.88-75.86l-13.04-225.45c8.35 34.861 94.42 62.271 199.37 62.271z" fill="#9e5c26"/><path d="m785.55 593.41-143.62 32.54-1.96-1.28 1.96-3.02 23.32-45.42-75.06-9.61 114.35-24.15-21.49 25.16 89.61 18.42 1.88-3.27 11.01 6.34z" fill="#ed1d31"/><path d="m615.93 609.05v154l-1.59 2.03-52.21-40.93v-151.61l28.06-5.92 75.06 9.61-23.32 45.42-1.96 3.02z" fill="#ed1d31"/><path d="m785.55 593.41v152.84l-142.77 37.03-.85-3.28v-150.99-3.06z" fill="#ed1d31"/><path d="m774.54 582.78-1.88 3.27-89.61-18.42 21.49-25.16z" fill="#ed1d31"/><path d="m641.93 780 .85 3.28-3.92 1.02-24.52-19.22 1.59-2.03v-154l24.04 15.62 1.96 1.28v3.06z" fill="#ed1d31"/><path d="m346.1 428.15c-2.37.029-4.76.04-7.16.04-104.95 0-191.02-27.411-199.37-62.271l-.49-8.42c4.4-36.15 92.2-64.99 199.86-64.99 110.48 0 200.05 30.37 200.05 67.84 0 .59-.021 1.17-.07 1.75-2.67 35.851-87.37 64.791-192.82 66.051z" fill="#9e5c26"/><g fill="none"><path d="m553.72 143.36-.069 1.23-2.971 53.56-9.12 164.1-6.31 113.49-6.41 115.399s-2.8 54.811-31.88 75.86c-31.88 23.09-72.56 45.08-166 45.08l.42-.09c-80.06-2.811-117.27-23.3-146.89-44.76-29.07-21.051-31.88-75.86-31.88-75.86l-13.04-225.45-.49-8.42-4.28-73.96s2.17-43.97-23.76-80.25c-25.92-36.28-49.68-60.47-49.68-60.47l7.87-3.81 65.38-31.66c35.96-25.389 111.29-42.859 198.39-42.859 121.99 0 220.89 34.27 220.89 76.55 0 1.19-.08 2.37-.239 3.55-5.341 40.62-102.091 72.99-220.651 72.99-93.54 0-168.37-26.32-187.23-45.29-6.24-6.28-74.69-29.47-74.69-29.47" stroke="#231f20" stroke-width="21"/><path d="m554.07 198.34h46.55s49.47 10.72 54.83 54.84c5.35 44.11-7.84 126.56-30.101 157.9-22.26 31.34-48.22 53.52-75.859 61.01-5.931 1.61-6.59 2.88-10.24 3.87" stroke="#231f20" stroke-width="28"/><path d="m346.1 382.49v22.74 22.92.04 21.94 32.48 31.26 21.95 22.96 32.29 31.94 21.95 22.95 25.16" stroke="#231f20" stroke-width="14"/><path d="m304.95 372.94h82.45" stroke="#231f20" stroke-width="21"/><path d="m304.8 482.61h41.3 41.16" stroke="#231f20" stroke-width="14"/><path d="m316.27 405.23h29.83 30.64" stroke="#231f20" stroke-width="7"/><path d="m316.39 428.19h22.55 7.16 30.75" stroke="#231f20" stroke-width="13.1424"/><path d="m316.07 450.13h30.03 30.44" stroke="#231f20" stroke-width="7"/><path d="m387.39 591.07h-41.29-41.16" stroke="#231f20" stroke-width="14"/><path d="m376.07 558.78h-29.97-30.5" stroke="#231f20" stroke-width="7"/><path d="m375.95 535.82h-29.85-30.61" stroke="#231f20" stroke-width="7"/><path d="m376.28 513.87h-30.18-30.3" stroke="#231f20" stroke-width="7"/><path d="m375.26 667.91h-29.16-31.3" stroke="#231f20" stroke-width="7"/><path d="m375.15 644.96h-29.05-31.41" stroke="#231f20" stroke-width="7"/><path d="m375.47 623.01h-29.37-31.1" stroke="#231f20" stroke-width="7"/><path d="m704.54 542.47 70 40.31 11.01 6.34v4.29 152.84l-142.77 37.03-3.92 1.02-24.52-19.22-52.21-40.93v-151.61l28.06-5.92z" stroke="#231f20" stroke-width="14"/><path d="m641.93 629.01v150.99" stroke="#231f20" stroke-width="14"/><path d="m568.27 578.07 47.66 30.98 24.04 15.62 1.96 1.28 143.62-32.54" stroke="#231f20" stroke-width="14"/><path d="m615.93 609.04v.01 154" stroke="#231f20" stroke-width="14"/><path d="m590.19 566.62 75.06 9.61-23.32 45.42" stroke="#231f20" stroke-width="14"/><path d="m704.54 542.47-21.49 25.16 89.61 18.42" stroke="#231f20" stroke-width="14"/><path d="m139.08 357.5c4.4-36.15 92.2-64.99 199.86-64.99 110.48 0 200.05 30.37 200.05 67.84 0 .59-.021 1.17-.07 1.75-2.67 35.85-87.37 64.79-192.82 66.05-2.37.029-4.76.04-7.16.04-104.95 0-191.02-27.411-199.37-62.271-.45-1.84-.67-3.69-.67-5.57 0-.959.06-1.909.18-2.849z" stroke="#231f20" stroke-width="14"/><path d="m0 0h850.394v850.394h-850.394z"/></g></svg>