<svg enable-background="new 0 0 850.394 850.394" height="850.394" viewBox="0 0 850.394 850.394" width="850.394" xmlns="http://www.w3.org/2000/svg"><path d="m586 228-1.07-4.06c15.71-4.11 29.37-8.78 40.521-13.91l4.549 1.97s49.26 245.27 54.64 278.59c5.37 33.32 22.57 164.46 22.57 164.46s4.771 26.28-13.51 26.28c-12.69 0-16.17-15.84-18.74-25.2-1.42-5.18-31.17-158.02-37.63-191.33-.94-4.88-2.71-13.399-5.04-24.39-1.95-9.25-4.31-20.25-6.91-32.31-15.42-71.51-39.38-180.1-39.38-180.1z" fill="#9c5c25"/><path d="m207.81 209.06c-19.96-9.53-31.36-20.55-31.36-32.29v-46.96c0 36.15 108 65.46 241.22 65.46s241.21-29.31 241.21-65.46v46.96c0 12.14-12.189 23.52-33.43 33.26-11.15 5.13-24.811 9.8-40.521 13.91-27.89 7.28-62.239 12.76-100.489 15.75-11.841.92-24.061 1.61-36.58 2.03-9.891.34-19.96.51-30.19.51-6.59 0-13.12-.07-19.58-.21-14.33-.32-28.3-.97-41.81-1.93-41.62-2.96-78.85-8.87-108.49-16.85-15.58-4.19-29.06-8.96-39.98-14.18z" fill="#9c5c25"/><path d="m398.09 242.02-.09 3.98-4.65 98.67-7.84 166.55-1.43 30.3s-13 186.07-17.04 218.351c-4.03 32.29-20.17 28.25-20.17 28.25-13.45 0-15.25-28.7-15.25-28.7l.9-225.07 2.74-33.899 11.49-142.08 9.25-114.372.28-3.91c13.51.96 27.48 1.61 41.81 1.93z" fill="#9c5c25"/><path d="m453.56 451.28c-.279-15.12-1.77-69.87-3.13-119.03-1.26-45.52-2.43-86.25-2.43-86.25l-.14-4.28c12.52-.42 24.739-1.11 36.58-2.03l.1 1.25s1.17 44.13 2.41 94.74c1.46 59.82 3.01 128.69 2.81 144.379-.01.551-.02 1.12-.02 1.721l-35.29 10.32c-.4-17.41-.73-32.5-.89-40.82z" fill="#9c5c25"/><path d="m417.67 64.35c133.22 0 241.21 29.31 241.21 65.46s-107.99 65.46-241.21 65.46-241.22-29.31-241.22-65.46 108-65.46 241.22-65.46z" fill="#9c5c25"/><path d="m454.45 492.1 35.29-10.319c-.521 30.72-5.11 119.16-5.11 119.16s.17 22.93-15.29 20.239c-10.74-1.88-11.35-15.77-12.149-24.069-.311-3.281-1.751-61.441-2.741-105.011z" fill="#9c5c25"/><path d="m207.81 209.06c10.92 5.22 24.4 9.99 39.98 14.18-2.14 12.61-20.1 118.22-28.51 164.64-1.12 6.23-2.08 11.4-2.8 15.13-.64 3.31-1.51 7.79-2.56 13.2-9.52 49.021-33.78 173.47-35.06 178.13-2.58 9.37-6.05 25.2-18.75 25.2-18.27 0-13.5-26.271-13.5-26.271s17.2-131.14 22.57-164.47c5.14-31.849 35.93-204.599 38.63-219.739z" fill="#9c5c25"/><g fill="none"><path d="m658.88 129.81c0 36.15-107.99 65.46-241.21 65.46s-241.22-29.31-241.22-65.46 108-65.46 241.22-65.46 241.21 29.31 241.21 65.46z" stroke="#000" stroke-width="21"/><path d="m176.45 129.81v46.96c0 11.74 11.4 22.76 31.36 32.29 10.92 5.22 24.4 9.99 39.98 14.18 29.64 7.98 66.87 13.89 108.49 16.85 13.51.96 27.48 1.61 41.81 1.93 6.46.14 12.99.21 19.58.21 10.23 0 20.3-.17 30.19-.51 12.52-.42 24.739-1.11 36.58-2.03 38.25-2.99 72.6-8.47 100.489-15.75 15.71-4.11 29.37-8.78 40.521-13.91 21.24-9.74 33.43-21.12 33.43-33.26v-46.96-2.57" stroke="#000" stroke-width="21"/><path d="m208 208s-.06.36-.19 1.06c-2.7 15.14-33.49 187.89-38.63 219.74-5.37 33.33-22.57 164.47-22.57 164.47s-4.77 26.271 13.5 26.271c12.7 0 16.17-15.83 18.75-25.2 1.28-4.66 25.54-129.109 35.06-178.13 1.05-5.41 1.92-9.89 2.56-13.2.72-3.73 1.68-8.9 2.8-15.13 8.41-46.42 26.37-152.03 28.51-164.64.14-.81.21-1.24.21-1.24" stroke="#000" stroke-width="21"/><path d="m630 212s49.26 245.27 54.64 278.59c5.37 33.32 22.57 164.46 22.57 164.46s4.771 26.28-13.51 26.28c-12.69 0-16.17-15.84-18.74-25.2-1.42-5.18-31.17-158.02-37.63-191.33-.94-4.88-2.71-13.399-5.04-24.39-1.95-9.25-4.31-20.25-6.91-32.31-15.42-71.51-39.38-180.1-39.38-180.1" stroke="#000" stroke-width="21"/><path d="m484.54 240.94s1.17 44.13 2.41 94.74c1.46 59.82 3.01 128.69 2.81 144.379-.01.551-.02 1.12-.02 1.721-.521 30.72-5.11 119.16-5.11 119.16s.17 22.93-15.29 20.239c-10.74-1.88-11.35-15.77-12.149-24.069-.311-3.28-1.75-61.44-2.74-105.011-.4-17.409-.73-32.5-.891-40.819-.279-15.12-1.77-69.87-3.13-119.03-1.26-45.52-2.43-86.25-2.43-86.25" stroke="#000" stroke-width="21"/><path d="m356 244-9.25 114.37-11.49 142.08-2.74 33.899-.9 225.07s1.8 28.7 15.25 28.7c0 0 16.14 4.04 20.17-28.25 4.04-32.28 17.04-218.351 17.04-218.351l1.43-30.3 7.84-166.55 4.65-98.668" stroke="#000" stroke-width="21"/><path d="m213.92 416.21 121.34 84.24" stroke="#000" stroke-width="21"/><path d="m490.17 335.59 135.21 72.51.82.44" stroke="#000" stroke-linecap="round" stroke-width="21"/><path d="m388.58 511.36 65.87-19.26 35.29-10.32 138.84-40.59" stroke="#000" stroke-width="21"/><path d="m397.92 344.89 52.51-12.64.28-.07" stroke="#000" stroke-width="21"/><path d="m219.32 387.89 123.83-29.81" stroke="#000" stroke-width="21"/><path d="m0 0h850.394v850.394h-850.394z"/></g></svg>