<svg enable-background="new 0 0 850.394 850.394" height="850.394" viewBox="0 0 850.394 850.394" width="850.394" xmlns="http://www.w3.org/2000/svg"><path d="m256.43 116.75v612.14h-83.59v-612.45h83.59z" fill="#fbed24"/><path d="m425.47 116.44v612.45h-84.83v-611.52-.93l84.83-.01z" fill="#fbed24"/><path d="m594.2 116.75v612.14h-84.83v-611.99-.47h84.83z" fill="#fbed24"/><path d="m763.7 116.43v612.46h-84.83v-.3-612.16z" fill="#fbed24"/><path d="m678.87 728.59v.3h-84.67v-612.14-.32h84.67z" fill="#0071bc"/><path d="m509.37 116.9v611.99h-83.9v-612.45-.01h83.9z" fill="#0071bc"/><path d="m340.64 117.37v611.52h-84.21v-612.14-.31h84.21z" fill="#0071bc"/><path d="m86.15 116.44h86.69v612.45h-86.69z" fill="#0071bc"/><g fill="none"><path d="m86.15 116.44v612.45" stroke="#231f20" stroke-width="28"/><path d="m172.84 116.44v612.45" stroke="#231f20" stroke-width="28"/><path d="m256.43 116.75v612.14.32" stroke="#231f20" stroke-width="28"/><path d="m340.64 117.37v611.52.93" stroke="#231f20" stroke-width="28"/><path d="m425.47 116.44v612.45" stroke="#231f20" stroke-width="28"/><path d="m509.37 116.9v611.99.47" stroke="#231f20" stroke-width="28"/><path d="m594.2 116.75v612.14.31" stroke="#231f20" stroke-width="28"/><path d="m678.87 116.13v.3 612.16" stroke="#231f20" stroke-width="28"/><path d="m763.7 116.43v612.46" stroke="#231f20" stroke-width="28"/><path d="m0 0h850.394v850.394h-850.394z"/></g></svg>