<svg enable-background="new 0 0 850.394 850.394" height="850.394" viewBox="0 0 850.394 850.394" width="850.394" xmlns="http://www.w3.org/2000/svg"><path d="m614.77 385.09-58.14 6.86.05.41-1.8 53.26-.01.02-.21 5.44h-117.72-17.2v-.89-167.43l60.6-90.79-10.12-28.15 28.54 6.79 9.92-90.06c.5.16 1.021.33 1.53.5 15.96 5.24 36.521 14.05 44.88 18.79 13.72 7.79 23.72 51.54 23.72 51.54zm-81.1-11.87v-24.92h-61.97v24.92zm-82.24-73.97c0-4.33-3.5-7.83-7.819-7.83-4.32 0-7.841 3.5-7.841 7.83s3.521 7.83 7.841 7.83c4.319 0 7.819-3.5 7.819-7.83zm-.09 61.35c0-4.32-3.5-7.82-7.83-7.82-4.319 0-7.83 3.5-7.83 7.82 0 4.33 3.511 7.85 7.83 7.85 4.33 0 7.83-3.52 7.83-7.85z" fill="#787878"/><path d="m419.74 450.19v.89h-2.97-117.75l-1.99-58.73.05-.39-58.12-6.87 35.94-233.71s10.01-43.75 23.73-51.54c8.63-4.89 31.36-15.08 47.45-20.33l4.49 84.73 28.53-6.8-11.08 25.04 53.3 76.63c-1.67 15.22-1.58 23.65-1.58 23.65z" fill="#787878"/><path d="m480.34 191.97-60.6 90.79s-.09-8.43 1.58-23.65c1.03-9.39 2.73-21.37 5.53-35.55v-.01c2.94-14.82 7.07-32.06 12.91-51.28 14.87-48.99 30.12-96.68 32.181-103.1.149-.48.229-.73.229-.73l38.061 12.55-.021.06c-.51-.17-1.03-.34-1.53-.5l-9.92 90.06-28.54-6.79z" fill="#787878"/><path d="m471.64 69.08.301.09c-2.061 6.42-17.311 54.11-32.181 103.1-5.84 19.22-9.97 36.46-12.91 51.28-2.97-16.32-6.109-28.93-12.899-51.28-15.74-51.84-28.15-103.48-28.53-105.08l.91-.01c-.001 0 49.669-24.01 85.309 1.9z" fill="#c8c8c8"/><path d="m426.85 223.55v.01c-2.8 14.18-4.5 26.16-5.53 35.55l-53.3-76.63 11.08-25.04-28.53 6.8-4.49-84.73-.05-.16 39.38-12.2s0 .01.01.04c.38 1.6 12.79 53.24 28.53 105.08 6.79 22.35 9.93 34.96 12.9 51.28z" fill="#787878"/><path d="m419.74 451.08h17.2 117.72l-13.07 337.63h-93.43l-20.76-311.43h-2.44l-20.76 311.43h-93.43l-11.86-337.63h.11 117.75z" fill="#787878"/><path d="m471.7 348.3h61.97v24.92h-61.97z" fill="#c8c8c8"/><path d="m443.61 291.42c4.319 0 7.819 3.5 7.819 7.83s-3.5 7.83-7.819 7.83c-4.32 0-7.841-3.5-7.841-7.83s3.521-7.83 7.841-7.83z" fill="#c8c8c8"/><path d="m443.51 352.78c4.33 0 7.83 3.5 7.83 7.82 0 4.33-3.5 7.85-7.83 7.85-4.319 0-7.83-3.52-7.83-7.85 0-4.32 3.51-7.82 7.83-7.82z" fill="#c8c8c8"/><g fill="none"><path d="m337.02 222.88-29.1 170.36-10.84-1.28-58.12-6.87 35.94-233.71s10.01-43.75 23.73-51.54c8.63-4.89 31.36-15.08 47.45-20.33l4.49 84.73 28.53-6.8-11.08 25.04 53.3 76.63 5.53 7.96" stroke="#000" stroke-width="19.8824"/><path d="m416.77 451.08h-117.75l-1.99-58.73" stroke="#000" stroke-width="19.8824"/><path d="m342.37 80.48 3.66-1.13 39.38-12.2s0 .01.01.04c.38 1.6 12.79 53.24 28.53 105.08 6.79 22.35 9.93 34.96 12.899 51.28" stroke="#000" stroke-width="19.8824"/><path d="m516.69 222.88 29.11 170.35 10.83-1.28 58.14-6.86-35.96-233.71s-10-43.75-23.72-51.54c-8.359-4.74-28.92-13.55-44.88-18.79-.51-.17-1.03-.34-1.53-.5l-9.92 90.06-28.54-6.79 10.12 28.15-60.6 90.79v167.43" stroke="#000" stroke-width="19.8824"/><path d="m554.88 445.62 1.8-53.26" stroke="#000" stroke-width="19.8824"/><path d="m416.77 451.08h2.97 17.2 117.72.03l.18-5.44" stroke="#000" stroke-width="19.8824"/><path d="m435.77 299.25c0 4.33 3.521 7.83 7.841 7.83 4.319 0 7.819-3.5 7.819-7.83s-3.5-7.83-7.819-7.83c-4.321 0-7.841 3.5-7.841 7.83z" stroke="#000" stroke-width="6.6275"/><path d="m435.68 360.6c0 4.33 3.511 7.85 7.83 7.85 4.33 0 7.83-3.52 7.83-7.85 0-4.32-3.5-7.82-7.83-7.82-4.32 0-7.83 3.5-7.83 7.82z" stroke="#000" stroke-width="6.6275"/><path d="m426.85 223.56c-2.8 14.18-4.5 26.16-5.53 35.55-1.67 15.22-1.58 23.65-1.58 23.65" stroke="#000" stroke-width="19.8824"/><path d="m511.57 81.43-1.34-.44-38.06-12.55s-.08.25-.229.73c-2.061 6.42-17.311 54.11-32.181 103.1-5.84 19.22-9.97 36.46-12.91 51.28v.01" stroke="#000" stroke-width="19.8824"/><path d="m471.7 348.3h61.97v24.92h-61.97z" stroke="#000" stroke-width="19.8824"/><path d="m386.33 67.18s49.67-24.01 85.31 1.9" stroke="#000" stroke-width="19.8824"/><path d="m554.97 443.17-.09 2.45-.01.02-.21 5.44-13.07 337.63h-93.43l-20.76-311.43h-2.44l-20.76 311.43h-93.43l-11.86-337.63-.28-7.91" stroke="#000" stroke-width="19.8824"/><path d="m0 0h850.394v850.394h-850.394z"/></g></svg>