<svg enable-background="new 0 0 850.394 850.394" height="850.394" viewBox="0 0 850.394 850.394" width="850.394" xmlns="http://www.w3.org/2000/svg"><path d="m246.836 505.571v58.206h-33.921v-60.017h33.921z" fill="#fff"/><path d="m177.726 503.76v60.017h-32.986v-58.206-1.811z" fill="#fff"/><path d="m531.943 503.76v60.017h-32.998v-58.206-1.811z" fill="#fff"/><path d="m435.956 539.244v178.619h-62.041v-2.215-172.71-3.694z" fill="#34a047"/><path d="m110.818 563.777h33.922v61.579h-33.922z" fill="#fff"/><path d="m601.054 505.571v58.206h-33.922v-60.017h33.922z" fill="#fff"/><path d="m144.74 505.571v58.206h-33.922v-60.017h33.922z" fill="#fff"/><path d="m373.915 715.648v2.215h-62.042v-178.619h62.042v3.694z" fill="#34a047"/><path d="m634.04 503.76v60.017h-32.986v-58.206-1.811z" fill="#fff"/><path d="m212.915 563.777h33.921v61.579h-33.921z" fill="#fff"/><path d="m498.945 563.777h32.998v61.579h-32.998z" fill="#fff"/><path d="m246.836 563.777h32.986v61.579h-32.986z" fill="#fff"/><path d="m631.222 317.635 33.401 100.616-3.588 1.196h-578.124v-.237l33.685-101.575z" fill="#231f20"/><path d="m279.822 503.76v60.017h-32.986v-58.206-1.811z" fill="#fff"/><path d="m498.945 505.571v58.206h-33.91v-60.017h33.91z" fill="#fff"/><path d="m664.907 419.092v300.618h-581.996v-300.263h578.124l3.588-1.196h.012zm-353.034 298.771h62.042 62.041v-178.619h-62.041-62.042zm322.167-92.507v-61.579-60.017h-32.986-33.922v60.018 61.579h33.922 32.986zm-102.097 0v-61.579-60.017h-32.998-33.91v60.018 61.579h33.91 32.998zm-252.121 0v-61.579-60.017h-32.986-33.921v60.018 61.579h33.921 32.986zm-102.096 0v-61.579-60.017h-32.986-33.922v60.018 61.579h33.922 32.986z" fill="#fff5b4"/><path d="m465.035 563.777h33.91v61.579h-33.91z" fill="#fff"/><path d="m567.132 563.777h33.922v61.579h-33.922z" fill="#fff"/><path d="m601.054 563.777h32.986v61.579h-32.986z" fill="#fff"/><path d="m144.74 563.777h32.986v61.579h-32.986z" fill="#fff"/><g fill="none"><path d="m82.911 419.447v-.237l33.685-101.575h514.626l33.401 100.616h.012l.272.841v300.618h-581.996z" stroke="#231f20" stroke-width="16.576"/><path d="m373.915 539.244h62.041v178.619h-62.041-62.042v-178.619z" stroke="#231f20" stroke-width="16.576"/><path d="m177.726 563.777v61.579h-32.986-33.922v-61.579-60.017h33.922 32.986z" stroke="#231f20" stroke-width="16.576"/><path d="m110.818 563.777h33.922 32.986" stroke="#231f20" stroke-width="8.288"/><path d="m144.74 505.571v58.206 61.579" stroke="#231f20" stroke-width="8.288"/><path d="m279.822 563.777v61.579h-32.986-33.921v-61.579-60.017h33.921 32.986z" stroke="#231f20" stroke-width="16.576"/><path d="m212.915 563.777h33.921 32.986" stroke="#231f20" stroke-width="8.288"/><path d="m246.836 505.571v58.206 61.579" stroke="#231f20" stroke-width="8.288"/><path d="m531.943 563.777v61.579h-32.998-33.91v-61.579-60.017h33.91 32.998z" stroke="#231f20" stroke-width="16.576"/><path d="m465.035 563.777h33.91 32.998" stroke="#231f20" stroke-width="8.288"/><path d="m498.945 505.571v58.206 61.579" stroke="#231f20" stroke-width="8.288"/><path d="m634.04 563.777v61.579h-32.986-33.922v-61.579-60.017h33.922 32.986z" stroke="#231f20" stroke-width="16.576"/><path d="m567.132 563.777h33.922 32.986" stroke="#231f20" stroke-width="8.288"/><path d="m601.054 505.571v58.206 61.579" stroke="#231f20" stroke-width="8.288"/><path d="m373.915 542.938v172.71" stroke="#231f20" stroke-width="16.576"/><path d="m81.94 419.447h.971 578.124" stroke="#231f20" stroke-width="16.576"/><path d="m0 0h850.394v850.394h-850.394z"/></g><path d="m767.066 148.961v30.637l-25.167 4.376v32.388l-28.009 5.689v-33.702l-26.481 4.816v-31.293l25.385-4.375v-30.419l27.576-4.379v30.419z" fill="#fff"/><path d="m753.778 69.083c.454-.014.919-.021 1.388-.021 7.912 0 14.331 2.043 14.331 4.562 0 2.516-6.419 4.559-14.331 4.559-7.916 0-14.334-2.043-14.334-4.559 0-2.372 5.683-4.32 12.946-4.541z" fill="#231f20"/><path d="m637.484 101.203 175.269-19.604v162.008l-175.269 38.053zm129.582 78.395v-30.637l-26.696 4.157v-30.419l-27.576 4.379v30.419l-25.385 4.375v31.292l26.48-4.815v33.702l28.01-5.689v-32.388z" fill="#34a047"/><path d="m658.906 78.703c6.592.409 11.565 2.254 11.565 4.474 0 2.519-6.415 4.562-14.33 4.562-7.916 0-14.334-2.043-14.334-4.562s6.418-4.558 14.334-4.558c.948 0 1.871.027 2.765.084z" fill="#231f20"/><path d="m753.778 69.083c-7.264.222-12.946 2.17-12.946 4.541 0 2.516 6.418 4.559 14.334 4.559 7.912 0 14.331-2.043 14.331-4.559 0-2.519-6.419-4.562-14.331-4.562-.469-.001-.934.006-1.388.021zm-6.64-10.287 15.458-1.409 50.815 22.74-.658 1.472-175.269 19.604v180.457l-38.024-44.972.138-164.453 65.382-5.957zm-90.996 19.823c-7.916 0-14.334 2.04-14.334 4.558 0 2.519 6.418 4.562 14.334 4.562 7.915 0 14.33-2.043 14.33-4.562 0-2.219-4.974-4.065-11.565-4.474-.895-.057-1.818-.084-2.765-.084z" fill="#34a047"/><path d="m637.484 101.203v180.457" fill="none" stroke="#231f20" stroke-width="7.3978"/><path d="m814.774 80.736-1.363-.61-50.815-22.739-15.458 1.409-82.159 7.482-65.381 5.957-.138 164.453 38.024 44.972 175.269-38.053v-162.008l-175.269 19.604-34.579-25.656" fill="none" stroke="#231f20" stroke-width="7.3978"/><path d="m740.37 153.118v-30.419l-27.576 4.379v30.419l-25.385 4.375v31.293l26.481-4.816v33.702l28.009-5.689v-32.388l25.167-4.376v-30.637z" fill="none" stroke="#231f20" stroke-width="4.9319"/><path d="m658.906 78.703 6.073-12.425 12.443-25.448 55.593-3.911 14.123 21.877 6.64 10.287" fill="none" stroke="#231f20" stroke-linecap="round" stroke-linejoin="round" stroke-width="14.7956"/><path d="m670.472 83.177c0 2.519-6.415 4.562-14.33 4.562-7.916 0-14.334-2.043-14.334-4.562s6.418-4.558 14.334-4.558c.947 0 1.87.028 2.765.084 6.591.409 11.565 2.255 11.565 4.474z" fill="none" stroke="#231f20" stroke-width="2.6059"/><path d="m769.497 73.623c0 2.516-6.419 4.559-14.331 4.559-7.916 0-14.334-2.043-14.334-4.559 0-2.371 5.683-4.319 12.946-4.541.454-.014.919-.021 1.388-.021 7.912 0 14.331 2.043 14.331 4.562z" fill="none" stroke="#231f20" stroke-width="2.6059"/></svg>