<svg enable-background="new 0 0 850.394 850.394" height="850.394" viewBox="0 0 850.394 850.394" width="850.394" xmlns="http://www.w3.org/2000/svg"><path d="m609.4 702.91v48.35h-115.32-126.87-109.71v-48.35h125.53 95.23z" fill="#be0000"/><path d="m775.69 634.5 6.62 50.98-106.86 13.86-6.62-50.97z" fill="#be0000"/><path d="m192.47 648.37-6.63 50.97-106.86-13.86 6.63-50.98z" fill="#be0000"/><path d="m515.04 131.11c5.47 8.48 8.52 17.92 8.52 27.88 0 36.76-40.76 88.14-92.09 88.14-51.31 0-93.729-51.38-93.729-88.14 0-9.91 3.02-19.3 8.44-27.75 14.68-22.91 46.98-38.81 84.459-38.81 37.42 0 69.67 15.84 84.4 38.68z" fill="#be0000"/><path d="m629.5 484.13-20.1 218.78h-131.14-95.23-125.53l-25.7-218.79-39.54 157.75-104.12-14.49-.86-50.56 56.21-314.541s20.1-95.22 78.42-101.48c17.53-1.88 86.88-18.38 124.27-29.56-5.42 8.45-8.44 17.84-8.44 27.75 0 36.76 42.42 88.14 93.729 88.14 51.33 0 92.09-51.38 92.09-88.14 0-9.96-3.05-19.4-8.52-27.88 37.4 11.17 106.81 27.81 124.34 29.69 58.32 6.26 78.43 101.48 78.43 101.48l56.2 314.541-.85 50.56-104.12 14.49z" fill="#be0000"/><g fill="none"><path d="m383.03 702.91h-125.53l-25.7-218.79" stroke="#000" stroke-width="23.724"/><path d="m515.04 131.11c5.47 8.48 8.52 17.92 8.52 27.88 0 36.76-40.76 88.14-92.09 88.14-51.31 0-93.729-51.38-93.729-88.14 0-9.91 3.02-19.3 8.44-27.75 14.68-22.91 46.98-38.81 84.459-38.81 37.42 0 69.67 15.84 84.4 38.68z" stroke="#000" stroke-width="23.724"/><path d="m263.42 342.02c0 19.64-7.9 47.45-7.9 47.45l-23.72 94.65-39.54 157.75-104.12-14.49-.86-50.56 56.21-314.541s20.1-95.22 78.42-101.48c17.53-1.88 86.88-18.38 124.27-29.56.01 0 .03-.01.04-.01" stroke="#000" stroke-width="23.724"/><path d="m185.84 699.34-106.86-13.86 6.63-50.98 106.86 13.87z" stroke="#000" stroke-width="23.724"/><path d="m257.5 702.91v48.35h109.71" stroke="#000" stroke-width="23.724"/><path d="m383.03 702.91h95.23 131.14l20.1-218.78" stroke="#000" stroke-width="23.724"/><path d="m597.87 342.02c0 19.64 7.899 47.45 7.899 47.45l23.73 94.65v.01l39.54 157.74 104.12-14.49.85-50.56-56.2-314.541s-20.109-95.22-78.43-101.48c-17.53-1.88-86.939-18.52-124.34-29.69-.021 0-.03-.01-.05-.01" stroke="#000" stroke-width="23.724"/><path d="m675.45 699.34 106.86-13.86-6.62-50.98-106.86 13.87z" stroke="#000" stroke-width="23.724"/><path d="m609.4 702.91v48.35h-115.32-126.87" stroke="#000" stroke-width="23.724"/><path d="m0 0h850.394v850.394h-850.394z"/></g></svg>