<svg enable-background="new 0 0 850.499 850.502" height="850.502" viewBox="0 0 850.499 850.502" width="850.499" xmlns="http://www.w3.org/2000/svg"><path d="m738.479 129.455c8.498 1.363 7.353 10.902 5.018 15.654-1.149 2.343-1.96 4.391-2.526 6.233-.069.231-.14.457-.2.679-.057.205-.113.405-.166.605-.069.274-.139.544-.195.806-.087.366-.161.723-.223 1.072-.592 3.136-.501 5.749-.413 8.537.065 2.06.13 4.216-.074 6.747-.271 3.263-3.895 9.517-11.451 8.458 2.252-9.769 3.459-20.279 3.459-31.316 0-5.144-.057-8.942-.192-14.465-.009-.392-.018-.797-.03-1.207-.009-.414-.018-.836-.03-1.272h.104l.818-.008c1.246-.444 2.588-.693 4.025-.693.673 0 1.366.057 2.076.17z" fill="#ffeec8"/><path d="m731.483 131.258c.013.41.021.814.03 1.207-.012-.392-.021-.797-.03-1.207z" fill="#ffeec8"/><path d="m731.448 129.986c-.004-.174-.008-.353-.013-.531.005.179.009.353.018.531.013.436.021.858.03 1.272-.012-.413-.021-.836-.035-1.272z" fill="#ffeec8"/><path d="m726.152 266.837c10.71 5.579 22.54 10.227 30.737 16.146l-.749 1.102-45.965-.239c.184-4.996-.004-8.637-.082-9.826v-.004c.004-.126.009-.252.009-.379 0-.074 0-.148-.005-.222-.004-.013-.004-.026-.004-.039 0 0 .004-.004 0-.009-.026-.749-.188-1.49-.466-2.217l.344-.126c3.484 1.742 9.582.871 15.68-2.613z" fill="#a9d7f3"/><path d="m717.394 108.54c.227.235.457.47.688.714-.235-.244-.462-.479-.688-.714z" fill="#9c5b16"/><path d="m716.731 107.856c.218.222.439.453.662.684-.226-.231-.444-.462-.662-.684z" fill="#9c5b16"/><path d="m712.48 103.161c.818 1.133 2.229 2.605 3.929 4.36-1.703-1.755-3.114-3.227-3.934-4.36-2.203-3.044-4.342-5.854-6.402-8.437 2.065 2.588 4.203 5.392 6.407 8.437z" fill="#9c5b16"/><path d="m710.094 273.375c0 .013 0 .026.004.039 0-.013 0-.026-.004-.039z" fill="#ffeec8"/><path d="m702.314 283.802c4.748-2.796 7.588-6.159 7.779-9.783.078 1.189.266 4.83.082 9.826z" fill="#fff"/><path d="m710.094 273.366c-.083-1.276-.749-2.896-1.799-4.591.583.771 1.032 1.563 1.333 2.374.278.727.439 1.468.466 2.217z" fill="#9e5b16"/><path d="m704.545 92.825c.509.619 1.015 1.25 1.528 1.895-.518-.645-1.027-1.276-1.528-1.895z" fill="#9c5b16"/><path d="m702.306 90.129c.492.58.984 1.172 1.485 1.777-.501-.605-.997-1.198-1.485-1.777z" fill="#9c5b16"/><path d="m700.891 283.793 1.424.009c-.553.327-1.133.645-1.733.954l-.004-.004c.111-.318.217-.636.313-.959z" fill="#9e5b16"/><path d="m710.094 274.02c-.191 3.624-3.031 6.986-7.779 9.783l-1.424-.009c.396-1.294.657-2.613.81-3.942.771-6.69-1.307-13.559-4.072-18.467 4.765 2.073 8.567 4.595 10.667 7.391 1.05 1.694 1.716 3.314 1.799 4.591.004.004 0 .009 0 .009.004.013.004.026.004.039.005.074.005.148.005.222 0 .126-.005.252-.009.379v.004z" fill="#ffffc2"/><path d="m700.855 88.435c.479.553.963 1.115 1.45 1.694-.487-.579-.975-1.141-1.45-1.694z" fill="#9c5b16"/><path d="m627.212 283.41c-.004 0-.004 0-.004-.004-.157-.096-.31-.192-.462-.292-.771-.501-1.48-1.015-2.125-1.546l.854-.092c1.624-9.02 4.917-16.189 9.255-21.677 3.833-4.843 8.477-8.376 13.507-10.702.004.004.004.013.009.018 3.567 7.652 9.412 9.029 14.286 8.724 4.874.305 10.719-1.072 14.286-8.724.188-.405.374-.845.553-1.311 7.356 2.565 13.799 7.309 17.919 13.859.466.74.997 1.494 1.468 2.334 3.245 5.762 2.827 7.67 4.943 15.854-.152 1.329-.413 2.648-.81 3.942z" fill="#ffffc2"/><path d="m700.581 284.756c-8.24 4.233-21.081 6.96-35.498 6.96-7.617 0-14.791-.758-21.08-2.104-6.612-1.407-12.248-3.458-16.386-5.954-.14-.083-.274-.166-.405-.248l73.679.383c-.096.322-.201.64-.313.958z" fill="#ffffc2"/><path d="m701.247 229.123c-4.225 19.273 9.13 29.504 24.905 37.715l-.501 1.572c-6.098 3.484-12.195 4.355-15.68 2.613l-.344.126c-.301-.811-.75-1.603-1.333-2.374-2.1-2.796-5.902-5.318-10.667-7.391 2.766 4.909 4.844 11.777 4.072 18.467-2.116-8.184-1.698-10.092-4.943-15.854-.471-.841-1.002-1.594-1.468-2.334-4.12-6.551-10.563-11.294-17.919-13.859.671-1.733 1.281-3.851 1.821-6.111l.439.109c7.723-2.849 14.848-7.313 21.186-13.141z" fill="#ffeec8"/><path d="m692.271 138.192c0 1.477 1.342 2.67 2.997 2.67s2.996-1.193 2.996-2.67c0-1.472-1.341-2.67-2.996-2.67s-2.997 1.198-2.997 2.67zm11.128-2.513c.291.697.213 1.25.213 2.443 0 4.377-3.72 7.927-8.297 7.927-2.296 0-4.373-.889-5.876-2.322-1.498-1.441-2.426-3.415-2.426-5.605 0-.235-.013-.418-.03-.57-.026-.253-.062-.418-.074-.584l-2.361-.021c3.066-2.626 7.147-4.273 11.12-4.364 2.914-.061 5.636.597 8.141 1.772z" fill="#abda4d"/><ellipse cx="695.268" cy="138.192" rx="2.996" ry="2.67"/><path d="m694.745 81.74c.427.44.857.893 1.293 1.359-.435-.466-.866-.919-1.293-1.359z" fill="#9c5b16"/><path d="m687.014 138.123c0 2.191.928 4.164 2.426 5.605-1.503-1.437-2.431-3.415-2.431-5.605 0-.235-.013-.418-.025-.57.017.152.03.335.03.57z" fill="#abda4d"/><path d="m680.929 232.886c.91-5.514 1.39-10.052 1.39-10.052s-3.219-3.742-7.896-6.546c-3.911-2.348-7.061-.623-8.72 0-1.668.627-5.715.727-7.379.104-1.663-.623-4.813-2.348-8.728 0-4.67 2.809-6.856 6.442-6.856 6.442s.401 3.759 1.154 8.589l-.218.035c-3.532-3.946-5.296-11.015-5.296-11.015.623-1.764 10.388-12.67 14.125-14.848 3.741-2.187 9.556 2.073 9.556 2.073s5.51-4.26 9.247-2.073c3.132 1.82 10.122 8.193 12.801 11.773 0 0 2.095 2.809 2.261 3.284 0 0-1.765 8.31-5.297 12.256z" fill="#ee947d"/><path d="m679.857 32.026c31.844 3.711 56.282 35.432 60.942 74.911.758 6.42-1.063 13.206-2.173 20l-2.226 2.348c-1.438 0-2.779.249-4.025.693l-.818.008c-.039-.183-.078-.357-.122-.531-1.969-7.901-8.371-15.014-13.354-20.201-.231-.244-.462-.479-.688-.714-.223-.231-.444-.462-.662-.684-.109-.113-.218-.222-.322-.335-1.699-1.755-3.11-3.227-3.929-4.36-2.204-3.044-4.343-5.849-6.407-8.437 0-.004 0-.004 0-.004-.514-.645-1.02-1.276-1.528-1.895-.253-.309-.506-.619-.754-.919-.501-.605-.993-1.198-1.485-1.777-.487-.579-.971-1.141-1.45-1.694-1.677-1.934-3.284-3.711-4.817-5.335-.436-.466-.866-.919-1.293-1.359-8.507-8.807-14.491-12.862-16.543-14.125-.514-.322-.779-.461-.779-.461-.035.021-.062.043-.096.065-14.865 10.383-65.046 26.926-71.427 31.608 0 0-11.39 11.738-19.277 21.838-2.479 3.18-4.612 6.189-5.941 8.628-.191.344-.361.675-.518.998l-.745-24.069c0-20.706 9.107-36.73 17.505-47.101.244-.3.488-.597.728-.889.239-.287.483-.575.723-.858.602-.701 1.193-1.376 1.777-2.021.117-.126.23-.252.349-.379.23-.252.461-.501.688-.745.345-.366.68-.719 1.011-1.059.223-.231.44-.453.658-.671.108-.109.213-.218.322-.322.104-.109.213-.213.317-.318 4.208-4.168 7.266-6.337 7.266-6.337.004-.004.004-.004.004-.004 3.628-2.465 6.05-3.702 6.05-3.702 15.991-9.512 36.666-12.866 63.039-9.791z" fill="#9c5b16"/><path d="m677.37 247.804c-.179.466-.365.906-.553 1.311-3.567 7.652-9.412 9.029-14.286 8.724.018-.004.035-.004.052-.004h-.104c.018 0 .035 0 .053.004-4.874.305-10.719-1.072-14.286-8.724-.005-.004-.005-.013-.009-.018 9.312-4.312 19.939-4.503 29.133-1.293z" fill="#ffffc2"/><path d="m627.617 283.658c4.138 2.496 9.773 4.547 16.386 5.954 6.289 1.346 13.463 2.104 21.08 2.104 14.417 0 27.258-2.727 35.498-6.96.601-.309 1.181-.627 1.733-.954l7.861.043c-.496 13.62-3.759 37.344-19.6 49.187-6.315 4.721-14.63 7.557-25.566 7.108l.113.035c-38.712 1.59-44.584-37.95-45.189-56.805l7.274.035s0 .004.004.004c.132.084.267.167.406.249z" fill="#fbee34"/><path d="m703.399 135.679.409-1.324c-2.505-1.176-5.227-1.833-8.141-1.772-3.973.091-8.054 1.738-11.12 4.364l2.361.021c.013.166.048.331.074.584.013.152.025.335.025.57 0 2.191.928 4.168 2.431 5.605 1.503 1.433 3.58 2.322 5.876 2.322 4.577 0 8.297-3.55 8.297-7.927.001-1.193.079-1.746-.212-2.443zm-40.776 54.919c-.101.018-.201.03-.306.048l.697-.043c-.134 0-.27 0-.391-.005zm-44.2-52.231c0 4.381 3.72 7.927 8.302 7.927 4.586 0 8.297-3.545 8.297-7.927l1.603-1.86c-2.948-2.226-6.642-3.598-10.253-3.681-1.328-.026-2.621.096-3.867.349-.453.087-.901.196-1.342.327-.222.061-.439.126-.657.2-.653.209-1.298.458-1.921.736-1.041.466-2.047 1.023-3.014 1.651l2.87.592c-.053.44-.018.936-.018 1.686zm-27.606 40.65c-.74-3.119-1.372-6.315-1.895-9.586-.414-2.613-.758-5.274-1.028-7.971-.204-2.025-.361-4.072-.479-6.141-.079-1.381-.136-2.77-.175-4.168s-.061-2.805-.061-4.22c0-3.624.004-9.979.057-16.107.004-.858.013-1.712.021-2.552.026-2.313.062-4.534.101-6.494.004-.179.009-.353.013-.527l-.749-.584c7.888-10.1 19.277-21.838 19.277-21.838 6.381-4.682 56.562-21.225 71.427-31.608.165.148.475.278.875.396 2.052 1.263 8.036 5.318 16.543 14.125.427.44.857.893 1.293 1.359 1.533 1.625 3.141 3.402 4.817 5.335.475.553.963 1.115 1.45 1.694.488.58.984 1.172 1.485 1.777.248.3.501.61.754.919.501.619 1.01 1.25 1.528 1.895v.004c2.061 2.583 4.199 5.392 6.402 8.437.819 1.133 2.23 2.605 3.934 4.36.104.113.213.222.322.335.218.222.436.453.662.684.227.235.453.47.688.714 4.982 5.187 11.385 12.3 13.354 20.201.005.179.009.357.013.531.014.436.022.858.035 1.272.009.41.018.814.03 1.207.136 5.523.192 9.321.192 14.465 0 11.037-1.207 21.547-3.459 31.316-4.834 20.985-14.495 38.534-27.431 50.416-6.338 5.828-13.463 10.292-21.186 13.141l-.439-.109c.326-1.359.631-2.774.91-4.19.309-1.564.583-3.127.827-4.617l.144.022c3.532-3.946 5.297-12.256 5.297-12.256-.166-.475-2.261-3.284-2.261-3.284-2.679-3.58-9.669-9.953-12.801-11.773-3.737-2.187-9.247 2.073-9.247 2.073s-5.814-4.26-9.556-2.073c-3.737 2.178-13.502 13.084-14.125 14.848 0 0 1.764 7.069 5.296 11.015l.218-.035c.605 3.876 1.446 8.437 2.496 12.304l-.393.109c-11.036-2.604-21.037-8.389-29.53-16.677-9.355-9.138-16.891-21.312-21.974-35.628-.405-1.146-.797-2.304-1.171-3.48-.932-2.934-1.769-5.948-2.501-9.036z" fill="#ffeec8"/><path d="m662.583 257.834c-.017 0-.034 0-.052.004-.018-.004-.035-.004-.053-.004z" fill="#9e5b16"/><path d="m658.323 216.392c1.664.623 5.711.522 7.379-.104 1.659-.623 4.809-2.348 8.72 0 4.678 2.805 7.896 6.546 7.896 6.546s-.479 4.538-1.39 10.052c-.244 1.49-.519 3.053-.827 4.617-.279 1.416-.584 2.831-.91 4.19-.54 2.26-1.15 4.377-1.821 6.111-9.194-3.21-19.821-3.019-29.134 1.293-.675-1.455-1.294-3.314-1.847-5.371-1.05-3.868-1.891-8.428-2.496-12.304-.753-4.83-1.154-8.589-1.154-8.589s2.187-3.633 6.856-6.442c3.916-2.347 7.065-.622 8.728.001z" fill="#ee947d"/><path d="m627.208 283.406c0 .004 0 .004.004.004-.004 0-.004-.004-.004-.004z" fill="#ffffc2"/><path d="m619.934 283.371c-.135-4.207-.008-7.382.074-8.846.039 2.496 1.825 4.896 4.557 7.047.67.532 1.406 1.045 2.182 1.542.152.1.305.196.462.292z" fill="#fff"/><path d="m626.698 140.88c-1.659 0-2.992-1.193-2.992-2.666 0-1.477 1.333-2.679 2.992-2.679 1.65 0 2.992 1.202 2.992 2.679 0 1.473-1.341 2.666-2.992 2.666z"/><path d="m625.475 281.476-.854.092c-2.919-2.396-4.557-5.087-4.557-7.932 1.055-6.969 1.512-10.658 13.25-13.938l1.415.1c-4.337 5.489-7.63 12.658-9.254 21.678z" fill="#ffffc2"/><path d="m626.746 283.114c-.775-.497-1.512-1.01-2.182-1.542l.057-.004c.645.531 1.355 1.045 2.125 1.546z" fill="#fff"/><path d="m620.064 273.636c0 2.844 1.638 5.536 4.557 7.932l-.057.004c-2.731-2.151-4.518-4.551-4.557-7.047.022-.431.044-.714.053-.828.004-.039.004-.061.004-.061z" fill="#fff"/><path d="m622.504 133.175c-.453.091-.897.2-1.342.327.441-.131.889-.24 1.342-.327z" fill="#ffeec8"/><path d="m620.008 274.525c-.009-.274.009-.549.053-.828-.009.114-.031.397-.053.828z" fill="#a9d7f3"/><path d="m619.934 283.371-61.134-.322c8.45-6.764 21.761-11.777 33.521-18.014l1.794.762c0 6.259 12.57 7.84 25.95 7.84 0 0 0 .022-.004.061-.044.279-.062.553-.053.828-.082 1.462-.209 4.638-.074 8.845z" fill="#a9d7f3"/><path d="m620.505 133.702c-.653.209-1.294.458-1.921.736.623-.279 1.268-.527 1.921-.736z" fill="#ffeec8"/><path d="m626.698 140.88c1.65 0 2.992-1.193 2.992-2.666 0-1.477-1.342-2.679-2.992-2.679-1.659 0-2.992 1.202-2.992 2.679 0 1.473 1.333 2.666 2.992 2.666zm-4.194-7.705c1.246-.252 2.539-.375 3.867-.349 3.611.083 7.305 1.455 10.253 3.681l-1.603 1.86c0 4.381-3.711 7.927-8.297 7.927-4.582 0-8.302-3.545-8.302-7.927 0-.75-.035-1.246.018-1.686l-2.87-.592c.967-.627 1.973-1.185 3.014-1.651.627-.279 1.268-.527 1.921-.736.218-.074.436-.139.657-.2.444-.127.889-.236 1.342-.327z" fill="#abda4d"/><path d="m592.32 265.034c15.322-8.123 28.006-18.324 23.877-37.175l.27-.701c8.493 8.289 18.494 14.073 29.53 16.677l.393-.109c.553 2.056 1.172 3.916 1.847 5.371-5.03 2.326-9.674 5.858-13.507 10.702l-1.415-.1c-11.738 3.279-12.195 6.969-13.25 13.938-13.38 0-25.95-1.581-25.95-7.84z" fill="#ffeec8"/><path d="m610.762 45.52h.004l-.004.004z" fill="#9c5b16"/><path d="m603.496 51.861c-.104.104-.213.209-.317.318.108-.113.213-.218.317-.318z" fill="#9c5b16"/><path d="m603.179 52.179c-.109.104-.214.213-.322.322.108-.112.217-.221.322-.322z" fill="#9c5b16"/><path d="m602.856 52.501c-.218.218-.436.44-.658.671.223-.231.441-.453.658-.671z" fill="#9c5b16"/><path d="m601.188 54.231c.34-.366.68-.719 1.011-1.059-.332.34-.667.693-1.011 1.059z" fill="#9c5b16"/><path d="m601.188 54.231c-.227.244-.457.492-.688.745.23-.253.461-.501.688-.745z" fill="#9c5b16"/><path d="m598.374 57.375c.602-.701 1.193-1.376 1.777-2.021-.584.645-1.175 1.32-1.777 2.021z" fill="#9c5b16"/><path d="m597.651 58.233c-.239.292-.483.588-.728.889.245-.3.484-.597.728-.889z" fill="#9c5b16"/><path d="m593.322 188.05c.374 1.176.766 2.334 1.171 3.48-.409-1.145-.797-2.304-1.171-3.48z" fill="#ffeec8"/><path d="m590.813 179.017h.004c.731 3.088 1.568 6.102 2.505 9.034-.941-2.932-1.777-5.946-2.509-9.034z" fill="#ffeec8"/><path d="m590.817 179.017h-.004c-.741-3.123-1.372-6.32-1.891-9.586.523 3.27 1.155 6.467 1.895 9.586z" fill="#ffeec8"/><path d="m587.895 161.459c.271 2.696.614 5.357 1.028 7.971-.414-2.613-.758-5.274-1.028-7.971z" fill="#ffeec8"/><path d="m587.241 151.15c.039 1.398.096 2.788.175 4.168-.079-1.38-.136-2.77-.175-4.168z" fill="#ffeec8"/><path d="m587.259 128.271c.026-2.313.057-4.534.101-6.494-.04 1.959-.075 4.181-.101 6.494z" fill="#ffeec8"/><path d="m588.923 169.43c.519 3.267 1.149 6.464 1.891 9.586-7.841 1.359-11.595-5.065-11.865-8.393-.728-8.837 1.873-13.093-3.802-24.669-2.335-4.756-3.48-14.295 5.013-15.654h.005c2.234-.362 4.276-.135 6.102.518l.972.004c-.053 6.128-.057 12.483-.057 16.107 0 1.416.021 2.822.061 4.22.039 1.398.096 2.788.175 4.168.117 2.069.274 4.116.479 6.141.268 2.698.612 5.359 1.026 7.972z" fill="#ffeec8"/><path d="m579.419 106.223.745 24.069-.005.008z" fill="#9c5b16"/><g fill="none"><path d="m662.623 190.598c-.104.018-.201.03-.306.048" stroke="#231f20" stroke-width="6.0977"/><path d="m731.436 129.455c.005.179.009.353.018.531" stroke="#231f20" stroke-width="6.0977"/><path d="m587.259 128.271c.026-2.313.062-4.534.101-6.494" stroke="#231f20" stroke-width="6.0977"/><path d="m587.416 155.318c-.079-1.381-.136-2.77-.175-4.168" stroke="#231f20" stroke-width="6.0977"/><path d="m594.493 191.53c-.405-1.146-.797-2.304-1.171-3.48-.937-2.932-1.773-5.945-2.505-9.034-.74-3.119-1.372-6.315-1.895-9.586-.414-2.613-.758-5.274-1.028-7.971" stroke="#231f20" stroke-width="6.0977"/><path d="m696.038 83.099c-.436-.466-.866-.919-1.293-1.359" stroke="#231f20" stroke-width="6.0977"/><path d="m703.791 91.906c-.501-.605-.993-1.198-1.485-1.777-.487-.579-.971-1.141-1.45-1.694" stroke="#231f20" stroke-width="6.0977"/><path d="m706.073 94.72c-.514-.645-1.02-1.276-1.528-1.895" stroke="#231f20" stroke-width="6.0977"/><path d="m716.409 107.521c-1.699-1.755-3.11-3.227-3.929-4.36-2.204-3.044-4.343-5.849-6.407-8.437" stroke="#231f20" stroke-width="6.0977"/><path d="m718.082 109.254c-.231-.244-.462-.479-.688-.714-.223-.231-.444-.462-.662-.684" stroke="#231f20" stroke-width="6.0977"/><path d="m610.762 45.524.004-.004" stroke="#231f20" stroke-width="6.0977"/><path d="m600.5 54.976c.23-.252.461-.501.688-.745.345-.366.68-.719 1.011-1.059.223-.231.44-.453.658-.671.108-.109.213-.218.322-.322.104-.109.213-.213.317-.318" stroke="#231f20" stroke-width="6.0977"/><path d="m598.374 57.375c.602-.701 1.193-1.376 1.777-2.021" stroke="#231f20" stroke-width="6.0977"/><path d="m596.924 59.122c.244-.3.488-.597.728-.889" stroke="#231f20" stroke-width="6.0977"/><path d="m580.682 129.294c-.187.349-.361.684-.518 1.006v-.009l-.745-24.069" stroke="#231f20" stroke-width="6.0977"/><path d="m731.483 131.258c-.009-.414-.018-.836-.03-1.272" stroke="#231f20" stroke-width="6.0977"/><path d="m740.186 154.504c-.588 3.136-.501 5.749-.413 8.537" stroke="#231f20" stroke-width="6.0977"/><path d="m740.604 152.626c-.069.27-.135.54-.195.806" stroke="#231f20" stroke-width="6.0977"/><path d="m740.97 151.342c-.069.231-.14.457-.2.679" stroke="#231f20" stroke-width="6.0977"/><path d="m689.439 143.728c-1.498-1.441-2.426-3.415-2.426-5.605 0-.235-.013-.418-.03-.57" stroke="#231f20" stroke-linecap="square" stroke-miterlimit="10" stroke-width="3.9457"/><path d="m622.504 133.175c1.246-.252 2.539-.375 3.867-.349 3.611.083 7.305 1.455 10.253 3.681 1.769 1.328 3.271 2.975 4.316 4.826" stroke="#231f20" stroke-linecap="square" stroke-miterlimit="10" stroke-width="3.9457"/><path d="m620.505 133.702c.218-.074.436-.139.657-.2" stroke="#231f20" stroke-linecap="square" stroke-miterlimit="10" stroke-width="3.9457"/><path d="m609.149 141.929c1.869-2.247 4.017-4.277 6.421-5.84.967-.627 1.973-1.185 3.014-1.651" stroke="#231f20" stroke-linecap="square" stroke-miterlimit="10" stroke-width="3.9457"/><path d="m635.021 138.367c0 4.381-3.711 7.927-8.297 7.927-4.582 0-8.302-3.545-8.302-7.927 0-.75-.035-1.246.018-1.686.03-.192.061-.379.13-.562" stroke="#231f20" stroke-linecap="square" stroke-miterlimit="10" stroke-width="3.9457"/><path d="m712.886 141.681c-2.526-3.053-5.589-5.693-9.077-7.326-2.505-1.176-5.227-1.833-8.141-1.772-3.973.091-8.054 1.738-11.12 4.364-1.397 1.193-2.582 2.6-3.453 4.142" stroke="#231f20" stroke-linecap="square" stroke-miterlimit="10" stroke-width="3.9457"/><path d="m686.909 136.968c.013.166.048.331.074.584.013.152.025.335.025.57 0 2.191.928 4.168 2.431 5.605 1.503 1.433 3.58 2.322 5.876 2.322 4.577 0 8.297-3.55 8.297-7.927 0-1.193.078-1.747-.213-2.443" stroke="#231f20" stroke-linecap="square" stroke-miterlimit="10" stroke-width="3.9457"/><path d="m586.266 130.818c-1.825-.653-3.867-.88-6.102-.518h-.005c-8.493 1.359-7.348 10.897-5.013 15.654 5.675 11.577 3.074 15.832 3.802 24.669.271 3.328 4.024 9.752 11.865 8.393h.004c.074-.009.148-.021.23-.039" stroke="#231f20" stroke-width="6.0977"/><path d="m732.376 129.978c1.246-.444 2.588-.693 4.025-.693.675 0 1.367.057 2.077.17 8.498 1.363 7.353 10.902 5.018 15.654-1.149 2.343-1.96 4.391-2.526 6.233-.069.231-.14.457-.2.679-.057.205-.113.405-.166.605-.069.274-.139.544-.195.806-.087.366-.161.723-.223 1.072-.592 3.136-.501 5.749-.413 8.537.065 2.06.13 4.216-.074 6.747-.271 3.263-3.895 9.517-11.451 8.458-.213-.026-.431-.061-.657-.104" stroke="#231f20" stroke-width="6.0977"/><path d="m645.997 243.835c-11.036-2.604-21.037-8.389-29.53-16.677-9.355-9.138-16.891-21.312-21.974-35.628-.409-1.146-.797-2.304-1.171-3.48-.941-2.932-1.777-5.945-2.509-9.034-.741-3.123-1.372-6.32-1.891-9.586-.414-2.613-.758-5.274-1.028-7.971-.204-2.025-.361-4.072-.479-6.141-.079-1.381-.136-2.77-.175-4.168s-.061-2.805-.061-4.22c0-3.624.004-9.979.057-16.107.004-.858.013-1.712.021-2.552.026-2.313.057-4.534.101-6.494.004-.179.009-.353.013-.527" stroke="#231f20" stroke-width="6.0977"/><path d="m731.409 128.558c.009.305.018.605.026.897.005.179.009.357.013.531.014.436.022.858.035 1.272.009.41.018.814.03 1.207.136 5.523.192 9.321.192 14.465 0 11.037-1.207 21.547-3.459 31.316-4.834 20.985-14.495 38.534-27.431 50.416-6.338 5.828-13.463 10.292-21.186 13.141" stroke="#231f20" stroke-width="6.0977"/><path d="m662.623 190.598c3.959-.736 3.249-3.08 7.495-2.047 3.659.884 7.54 2.705 8.454-3.014.628-3.938-2.334-4.46-3.906-7.623" stroke="#231f20" stroke-width="6.0977"/><path d="m662.623 190.598c.121.004.257.004.392.004 0 0-.697.043-.706.043h.009c.104-.017.204-.029.305-.047z" stroke="#231f20" stroke-width="6.0977"/><path d="m650.249 141.502c6.567 7.204 4.577 24.13 1.642 32.941l-1.237 3.437c-1.572 3.158-4.529 3.676-3.906 7.613.914 5.719 4.8 3.89 8.454 3.01 4.225-1.019 3.271 1.921 7.422 2.095" stroke="#231f20" stroke-width="6.0977"/><path d="m629.69 138.214c0 1.472-1.342 2.666-2.992 2.666-1.659 0-2.992-1.193-2.992-2.666 0-1.477 1.333-2.679 2.992-2.679 1.651.001 2.992 1.203 2.992 2.679z" stroke="#231f20" stroke-width="3.3112"/><ellipse cx="695.268" cy="138.192" rx="2.997" ry="2.67" stroke="#231f20" stroke-width="3.3112"/><path d="m645.897 128.279c-3.541-7.461-17.396-10.366-24.413-8.964-6.59 1.311-9.86 2.104-16.733 7.435" stroke="#231f20" stroke-width="6.0977"/><path d="m674.609 126.65c3.545-7.465 17.4-10.375 24.412-8.968 6.604 1.311 9.87 2.1 16.738 7.435" stroke="#231f20" stroke-width="6.0977"/><path d="m706.073 94.724c2.061 2.583 4.199 5.392 6.402 8.437.819 1.133 2.23 2.605 3.934 4.36.104.113.213.222.322.335.218.222.436.453.662.684.227.235.453.47.688.714 4.982 5.187 11.385 12.3 13.354 20.201.044.174.083.349.122.531.235 1.063.396 2.147.453 3.241" stroke="#231f20" stroke-width="6.0977"/><path d="m738.627 126.938c1.11-6.794 2.931-13.581 2.173-20-4.66-39.479-29.099-71.2-60.942-74.911-26.373-3.075-47.049.279-63.042 9.791 0 0-2.422 1.237-6.05 3.702h-.004v.004s-3.058 2.169-7.266 6.337c-.104.1-.209.205-.317.318-.104.101-.214.209-.322.322-.218.218-.436.44-.658.671-.331.34-.671.692-1.011 1.059-.227.244-.457.492-.688.745-.118.126-.231.252-.349.379-.584.645-1.176 1.32-1.777 2.021-.239.283-.483.571-.723.858-.244.292-.483.588-.728.889-8.397 10.371-17.505 26.395-17.505 47.101l.74 24.078c0-.004.005-.004.005-.009.156-.322.326-.653.518-.998 1.329-2.439 3.463-5.449 5.941-8.628 7.888-10.1 19.277-21.838 19.277-21.838 6.381-4.682 56.562-21.225 71.427-31.608.034-.022.061-.044.096-.065 0 0 .266.139.779.461 2.052 1.263 8.036 5.318 16.543 14.125.427.44.857.893 1.293 1.359 1.533 1.625 3.141 3.402 4.817 5.335.475.553.963 1.115 1.45 1.694.488.58.984 1.172 1.485 1.777.248.3.501.61.754.919.501.619 1.01 1.25 1.528 1.895" stroke="#231f20" stroke-width="6.0977"/><path d="m683.225 68.264c-.745.004-3.516-.209-5.022-.649-.4-.118-.71-.248-.875-.396-.057-.048-.096-.101-.118-.157 4.561-4.442 8.154-11.686 8.154-19.034" stroke="#231f20" stroke-width="6.0977"/><path d="m616.197 227.859c4.129 18.851-8.555 29.052-23.877 37.175-11.76 6.237-25.07 11.25-33.521 18.014" stroke="#231f20" stroke-width="6.0977"/><path d="m701.247 229.123c-4.225 19.273 9.13 29.504 24.905 37.715 10.71 5.579 22.54 10.227 30.737 16.146.601.431 1.188.879 1.751 1.328" stroke="#231f20" stroke-width="6.0977"/><path d="m681.072 232.908c3.532-3.946 5.297-12.256 5.297-12.256-.166-.475-2.261-3.284-2.261-3.284-2.679-3.58-9.669-9.953-12.801-11.773-3.737-2.187-9.247 2.073-9.247 2.073s-5.814-4.26-9.556-2.073c-3.737 2.178-13.502 13.084-14.125 14.848 0 0 1.764 7.069 5.296 11.015" stroke="#000" stroke-linecap="round" stroke-linejoin="round" stroke-width="3.0489"/><path d="m648.236 249.097c-.675-1.455-1.294-3.314-1.847-5.371-1.05-3.868-1.891-8.428-2.496-12.304-.753-4.83-1.154-8.589-1.154-8.589s2.187-3.633 6.856-6.442c3.915-2.348 7.064-.623 8.728 0s5.711.522 7.379-.104c1.659-.623 4.809-2.348 8.72 0 4.678 2.805 7.896 6.546 7.896 6.546s-.479 4.538-1.39 10.052c-.244 1.49-.519 3.053-.827 4.617" stroke="#000" stroke-linecap="round" stroke-linejoin="round" stroke-width="3.0489"/><path d="m680.102 237.503c-.279 1.416-.584 2.831-.91 4.19-.54 2.26-1.15 4.377-1.821 6.111" stroke="#000" stroke-linecap="round" stroke-linejoin="round" stroke-width="3.0489"/><path d="m662.061 217.014s2.078 11.947 1.041 22.335" stroke="#000" stroke-linecap="round" stroke-linejoin="round" stroke-width="3.0489"/><path d="m620.064 273.636c0 2.844 1.638 5.536 4.557 7.932.645.531 1.354 1.045 2.125 1.546" stroke="#000" stroke-width="6.0977"/><path d="m710.094 273.375c.004.013.004.026.004.039" stroke="#000" stroke-width="4.4966"/><path d="m700.581 284.756-.004-.004c.112-.318.218-.636.313-.958.396-1.294.657-2.613.81-3.942.771-6.69-1.307-13.559-4.072-18.467 4.765 2.073 8.567 4.595 10.667 7.391.583.771 1.032 1.563 1.333 2.374.278.727.439 1.468.466 2.217" stroke="#000" stroke-width="4.4966"/><path d="m620.064 273.636c1.055-6.969 1.512-10.658 13.25-13.938" stroke="#000" stroke-width="6.0977"/><path d="m710.094 274.02c-.191 3.624-3.031 6.986-7.779 9.783-.553.327-1.133.645-1.733.954-8.24 4.233-21.081 6.96-35.498 6.96-7.617 0-14.791-.758-21.08-2.104-6.612-1.407-12.248-3.458-16.386-5.954-.14-.083-.274-.166-.405-.248-.004 0-.004 0-.004-.004-.157-.096-.31-.192-.462-.292-.775-.497-1.512-1.01-2.182-1.542-2.731-2.151-4.518-4.551-4.557-7.047-.009-.274.009-.549.053-.828" stroke="#000" stroke-width="6.0977"/><path d="m695.163 258.828c4.398 0 10.23 5.248 13.132 9.948 1.05 1.694 1.716 3.314 1.799 4.591.004.004 0 .009 0 .009 0 .013 0 .026.004.039.005.074.005.148.005.222 0 .126-.005.252-.009.379" stroke="#000" stroke-width="4.4966"/><path d="m620.008 274.525c.022-.431.044-.714.053-.828.004-.039.004-.061.004-.061" stroke="#000" stroke-width="6.0977"/><path d="m690.576 333.033c-6.315 4.721-14.63 7.557-25.566 7.108l.113.035c-38.712 1.59-44.584-37.95-45.189-56.805-.135-4.207-.008-7.382.074-8.846" stroke="#000" stroke-width="4.4966"/><path d="m710.063 273.602s.013.144.03.414v.004c.078 1.189.266 4.83.082 9.826-.496 13.62-3.759 37.344-19.6 49.187" stroke="#000" stroke-width="4.4966"/><path d="m625.475 281.476c1.624-9.02 4.917-16.189 9.255-21.677 3.833-4.843 8.477-8.376 13.507-10.702 9.313-4.312 19.939-4.503 29.134-1.293 7.356 2.565 13.799 7.309 17.919 13.859.466.74.997 1.494 1.468 2.334 3.245 5.762 2.827 7.67 4.943 15.854.131.514.274 1.054.432 1.625" stroke="#000" stroke-width="6.0977"/><path d="m594.114 265.796c0 6.259 12.57 7.84 25.95 7.84" stroke="#231f20" stroke-width="6.0977"/><path d="m709.972 271.023c3.484 1.742 9.582.871 15.68-2.613" stroke="#231f20" stroke-width="6.0977"/><path d="m0 .109h850.394v850.394h-850.394z"/></g><path d="m610.34 524.759c3.19 4.109 8.391 14.199 4.67 19.06-6.66 8.72-7.62.04-18.08-7.97-6.05-4.38-11.25-12.23-6.439-18.76 4.299-5.84 15.919 2.6 19.849 7.67z" fill="#fff5b4"/><path d="m610.34 572.489c3.19 4.11 8.391 14.2 4.67 19.061-6.66 8.72-7.62.04-18.08-7.98-6.05-4.37-11.25-12.21-6.439-18.75 4.299-5.841 15.919 2.609 19.849 7.669z" fill="#fff5b4"/><path d="m385.3 727.579c96.641 0 181.7-28.67 231.181-72.12-21.461 72.19-115.711 126.54-228.75 126.54-110.07 0-202.35-51.55-226.92-120.909 50.249 40.279 132.079 66.489 224.489 66.489z" fill="#ed177f"/><path d="m576.7 587.589c4.97 5.579 8.37 14.369 2.24 19.71-5.471 4.77-14.98-5.98-17.721-11.78-2.22-4.7-5.12-15.68-.43-19.62 8.381-7.07 7.431 1.61 15.911 11.69z" fill="#fff5b4"/><path d="m552.67 626.958c5 1.41 15.16 6.46 15.05 12.58-.189 10.971-6.109 4.53-19.27 4.28-7.48.09-16.32-3.15-16.32-11.25 0-7.259 14.37-7.349 20.54-5.61z" fill="#fff5b4"/><path d="m535.52 527.939c6.82 5.52 11.881 10.08 8.891 19.689-2.94 9.4-10.73 22.591-21.891 20.82-11.8-1.89-17.479-11.68-27.979-15.24-6.8-2.3-12.93-2.029-14.89-9.949-.271-1.061-2.771-7.131-2.771-7.131-.979-9.52-.81-7.88 3.93-14.13 4.11-5.409 11.23-5.42 16.841-8.13 8.58-4.14 11.979-8.76 21.109-2.66 6.66 4.431 10.55 11.691 16.76 16.731z" fill="#ed1e29"/><path d="m534.11 598.208c4.79 9.87-3.391 6.82-15.24 12.561-6.65 3.46-15.99 4.58-19.66-2.66-3.29-6.47 9.48-13.05 15.771-14.29 5.099-1 16.439-1.111 19.129 4.389z" fill="#fff5b4"/><path d="m518.15 639.049c3.17 4.109 8.359 14.21 4.659 19.069-6.659 8.71-7.63.021-18.069-7.99-6.07-4.359-11.271-12.21-6.46-18.75 4.31-5.829 15.93 2.611 19.87 7.671z" fill="#fff5b4"/><path d="m484.49 654.159c4.979 5.58 8.359 14.37 2.26 19.7-5.48 4.77-15-5.99-17.74-11.77-2.22-4.711-5.1-15.69-.43-19.631 8.38-7.069 7.45 1.611 15.91 11.701z" fill="#fff5b4"/><path d="m453.5 623.969c9.71 5.09 1.31 7.489-4.83 19.14-3.3 6.72-10.15 13.17-17.4 9.52-6.479-3.26-.109-16.13 4.221-20.859 3.519-3.831 12.589-10.642 18.009-7.801z" fill="#fff5b4"/><path d="m434.93 673.979c4.801 9.86-3.39 6.82-15.24 12.56-6.63 3.45-15.98 4.57-19.66-2.66-3.28-6.479 9.48-13.06 15.77-14.3 5.11-.99 16.46-1.1 19.13 4.4z" fill="#fff5b4"/><path d="m160.81 661.089c-32.85-26.33-52.21-58.671-52.21-93.62 0-79.79 100.83-145.94 232.77-158.12-1.14.68-2.24 1.38-3.3 2.11-6.5 4.48-11.71 10.55-18.08 15.31-8.29 6.18-18.82 6.95-28.9 7.93-14.39 1.38-25.41 3.22-32.48 12.23-74.58 23.689-124.68 67.67-124.68 118.01 0 75.439 112.54 136.59 251.36 136.59s251.35-61.15 251.35-136.59c0-51.021-51.449-95.49-127.699-118.95-7.08-8.04-17.761-9.77-31.521-11.1-10.09-.971-20.61-1.74-28.9-7.931-6.38-4.76-12.51-9.729-18.09-15.31-.72-.72-1.479-1.39-2.29-2.02l3.16-.08c130.92 12.68 230.69 78.55 230.69 157.92 0 32.5-16.74 62.75-45.51 87.989-49.48 43.45-134.54 72.12-231.181 72.12-92.409.002-174.239-26.208-224.489-66.488z" fill="#fff"/><path d="m425.85 553.579c1.85 9.681 1.209 24.99-9.48 28.681-11.28 3.909-20.92-2.04-31.84-.23-7.09 1.18-12.37 4.311-17.84-1.74-.72-.81-5.8-4.989-5.8-4.989-5.36-7.931-4.44-6.561-3.2-14.301 1.06-6.72 7.33-10.09 11.01-15.12 5.6-7.699 6.42-13.38 17.36-12.31 7.96.771 14.82 5.33 22.66 6.84 8.63 1.659 15.24 3.279 17.13 13.169z" fill="#ed1e29"/><path d="m421.73 462.159c1.85 9.67 1.21 24.98-9.48 28.681-11.28 3.899-20.92-2.051-31.85-.24-7.08 1.18-12.36 4.319-17.83-1.74-.72-.8-5.8-4.99-5.8-4.99-5.36-7.92-4.44-6.56-3.2-14.3 1.06-6.71 7.33-10.08 11.01-15.12 5.6-7.689 6.42-13.37 17.36-12.3 7.95.76 14.82 5.33 22.66 6.84 8.63 1.649 15.24 3.279 17.13 13.169z" fill="#ed1e29"/><path d="m376.74 105.089c39.47-22.39 47.29-9.86 44.93-.05-1.66 6.95-9.98 9.34-24.83 15.3-14.84 5.97-29.45 14.58-44.12 28.8-6.19 6.01-13.57 14.54-20.02 22.39-8.85 10.76-15.97 20.25-15.97 20.25s-5.09 6.42-12.48 4.63c-6.77-1.63-3.84-7.99-3.84-7.99s5.23-9.88 14.66-23.32h.01c13.24-18.87 34.76-44.75 61.66-60.01z" fill="#c8c8c8"/><path d="m390.45 640.819c6 2.26 17.49 10.88 13.18 16.71-4.83 6.521-13.86 3.87-19.82-.65-10.74-7.619-19.32-5.979-12.95-14.909 3.55-4.981 14.72-2.991 19.59-1.151z" fill="#fff5b4"/><path d="m355.48 674.168c6.29 1.23 19.05 7.83 15.77 14.29-3.68 7.24-13.03 6.12-19.66 2.66-11.86-5.729-20.04-2.689-15.24-12.55 2.67-5.499 14.02-5.4 19.13-4.4z" fill="#fff5b4"/><path d="m361.34 189.539c.01.03.01.07.01.1.01.18.02.37.03.56 0 1.59-.63 3.15-1.84 4.66v.01c-10.36 13.02-63.26 22.93-126.95 22.93-67.95 0-121.54-4.94-126.18-18.57 0-.01 0-.03-.01-.04-.21-1.25-.31-1.92-.31-1.92 0-21.11 43.67-24.46 67.83-48.61 20.17-20.17 59.05-47.34 100.47-12.61 13 10.88 30 20.69 40.68 29.05-9.43 13.44-14.66 23.32-14.66 23.32s-2.93 6.36 3.84 7.99c7.39 1.79 12.48-4.63 12.48-4.63s7.12-9.49 15.97-20.25l4.3.58c7.29 5.49 23.39 5.98 24.34 17.43z" fill="#fff"/><path d="m179.65 344.349c-13.65-7.21-28.69-20.71-44.62-51.29-17.82-34.2-26.85-83.46-28.62-93.83 4.64 13.63 58.23 18.57 126.18 18.57 63.69 0 116.59-9.91 126.95-22.93-.31 1.97-9.67 60.4-29.34 98.15-16.01 30.73-31.12 44.21-44.83 51.4-3.94 2.07-7.78 3.62-11.48 4.91 0 0-19.51 5.01-41.25 5.01l-.05.05c-21.74 0-41.25-5.02-41.25-5.02-3.77-1.31-7.67-2.89-11.69-5.02z" fill="#ffeec8"/><path d="m335.79 636.359c4.33 4.72 10.69 17.6 4.21 20.86-7.25 3.649-14.1-2.801-17.39-9.521-6.14-11.649-14.54-14.05-4.83-19.149 5.41-2.841 14.49 3.98 18.01 7.81z" fill="#fff5b4"/><path d="m310.27 502.649c2.29 10.18 6.39 14.96-2.4 23.21-6.39 6.01-15.11 8.37-22.03 13.76-7.61 5.931-13.72 10.2-23.25 4.62-9.33-5.47-21.49-17.07-16.82-28.57 4.93-12.13 16.81-15.779 23.21-26.1 4.15-6.71 5.39-13.34 14.34-13.47 1.19-.01 8.3-1.19 8.3-1.19 10.41 1.32 8.63 1.09 14.12 7.7 4.78 5.73 3.03 13.349 4.53 20.04z" fill="#ed1e29"/><path d="m302.7 647.039c4.67 3.95 1.79 14.931-.44 19.63-2.74 5.79-12.25 16.551-17.72 11.78-6.12-5.34-2.73-14.13 2.25-19.71 8.46-10.08 7.53-18.76 15.91-11.7z" fill="#fff5b4"/><path d="m522.52 568.449c11.16 1.771 18.95-11.42 21.891-20.82 2.99-9.609-2.07-14.17-8.891-19.689-6.21-5.04-10.1-12.3-16.76-16.73-9.13-6.1-12.529-1.479-21.109 2.66-5.61 2.71-12.73 2.721-16.841 8.13-4.739 6.25-4.909 4.61-3.93 14.13 0 0 2.5 6.07 2.771 7.131 1.96 7.92 8.09 7.649 14.89 9.949 10.499 3.559 16.179 13.349 27.979 15.239zm-231.43-133.75c10.08-.979 20.61-1.75 28.9-7.93 6.37-4.76 11.58-10.83 18.08-15.31 1.06-.73 2.16-1.43 3.3-2.11 12.06-7.1 28.29-10.76 43.59-10.06 0 0 28.5-1.25 43.18 10.34.811.63 1.57 1.3 2.29 2.02 5.58 5.58 11.71 10.55 18.09 15.31 8.29 6.19 18.811 6.96 28.9 7.931 13.76 1.33 24.44 3.06 31.521 11.1 2.939 3.32 5.26 7.73 6.93 13.63 2.149 7.63 5.37 14.34 19.71 20.891 8.64 3.949 28.24 15.25 31.84 24.54 7.5 19.279 8.78 48.18-15.91 60.51-10.439 5.22-38.72 8.88-49.649 12.22-15.67 4.79-20.75 12.45-28.2 21.03-22.7 26.16-60.55 31.41-86.36 28.54l-6.1-.19c-25.8 2.86-63.66-2.38-86.35-28.54-4.44-5.12-8.04-9.91-13.54-13.95l-.44-.31c-28.37-16.84-81.77 2.14-102.53-28.37-13.67-20.08 3.58-47.729 40.77-68.07 5.41-2.949 10.38-6.029 13.81-7.6 14.34-6.55 17.57-13.27 19.72-20.89 1.48-5.261 3.48-9.33 5.97-12.5 7.068-9.013 18.088-10.852 32.478-12.232zm125.28 147.56c10.689-3.69 11.33-19 9.48-28.681-1.89-9.89-8.5-11.51-17.13-13.17-7.84-1.51-14.7-6.069-22.66-6.84-10.94-1.07-11.76 4.61-17.36 12.31-3.68 5.03-9.95 8.4-11.01 15.12-1.24 7.74-2.16 6.37 3.2 14.301 0 0 5.08 4.18 5.8 4.989 5.47 6.051 10.75 2.92 17.84 1.74 10.92-1.809 20.56 4.14 31.84.231zm-4.12-91.42c10.69-3.7 11.33-19.011 9.48-28.681-1.89-9.89-8.5-11.52-17.13-13.17-7.84-1.51-14.71-6.08-22.66-6.84-10.94-1.07-11.76 4.61-17.36 12.3-3.68 5.04-9.95 8.41-11.01 15.12-1.24 7.74-2.16 6.38 3.2 14.3 0 0 5.08 4.19 5.8 4.99 5.47 6.06 10.75 2.92 17.83 1.74 10.93-1.809 20.57 4.141 31.85.241zm-104.38 35.02c8.79-8.25 4.69-13.03 2.4-23.21-1.5-6.69.25-14.31-4.53-20.04-5.49-6.61-3.71-6.38-14.12-7.7 0 0-7.11 1.181-8.3 1.19-8.95.13-10.19 6.76-14.34 13.47-6.4 10.32-18.28 13.97-23.21 26.1-4.67 11.5 7.49 23.101 16.82 28.57 9.53 5.58 15.64 1.311 23.25-4.62 6.92-5.39 15.64-7.75 22.03-13.76z" fill="#fbed24"/><path d="m273 635.969c4.81 6.54-.39 14.38-6.46 18.75-10.45 8.02-11.41 16.689-18.07 7.979-3.71-4.859 1.48-14.95 4.66-19.07 3.94-5.049 15.56-13.5 19.87-7.659z" fill="#fff5b4"/><path d="m256.3 598.409c6.29 1.23 19.05 7.82 15.77 14.29-3.67 7.23-13.02 6.12-19.66 2.66-11.85-5.74-20.04-2.7-15.24-12.56 2.68-5.5 14.02-5.4 19.13-4.39z" fill="#fff5b4"/><path d="m218.61 631.539c6.16-1.729 20.54-1.64 20.54 5.61 0 8.11-8.85 11.35-16.32 11.26-13.17.25-19.09 6.681-19.28-4.28-.11-6.13 10.06-11.171 15.06-12.59z" fill="#fff5b4"/><path d="m210.49 593.909c4.68 3.94 1.79 14.92-.43 19.63-2.75 5.78-12.25 16.54-17.73 11.771-6.11-5.33-2.73-14.12 2.25-19.7 8.47-10.091 7.54-18.771 15.91-11.701z" fill="#fff5b4"/><path d="m180.8 569.409c4.8 6.53-.4 14.38-6.46 18.74-10.45 8.02-11.41 16.71-18.08 7.99-3.7-4.86 1.49-14.96 4.67-19.061 3.93-5.069 15.55-13.509 19.87-7.669z" fill="#fff5b4"/><path d="m165.45 547.849c6.06-4.37 11.27-12.21 6.46-18.75-4.32-5.84-15.93 2.609-19.87 7.67-3.18 4.109-8.37 14.2-4.66 19.06 6.66 8.72 7.62.04 18.07-7.98zm53.66-59.931c-37.19 20.341-54.44 47.99-40.77 68.07 20.76 30.51 74.16 11.53 102.53 28.37l.44.31c5.5 4.04 9.1 8.83 13.54 13.95 22.69 26.16 60.55 31.4 86.35 28.54l6.1.19c25.81 2.87 63.66-2.38 86.36-28.54 7.45-8.58 12.53-16.24 28.2-21.03 10.93-3.34 39.21-7 49.649-12.22 24.69-12.33 23.41-41.23 15.91-60.51-3.6-9.29-23.2-20.591-31.84-24.54-14.34-6.551-17.561-13.261-19.71-20.891-1.67-5.899-3.99-10.31-6.93-13.63 76.25 23.46 127.699 67.93 127.699 118.95 0 75.439-112.529 136.59-251.35 136.59-138.82 0-251.36-61.15-251.36-136.59 0-50.34 50.1-94.32 124.68-118.01-2.49 3.17-4.49 7.239-5.97 12.5-2.15 7.62-5.38 14.34-19.72 20.89-3.428 1.572-8.398 4.652-13.808 7.601zm395.9 55.901c3.721-4.86-1.479-14.95-4.67-19.06-3.93-5.07-15.55-13.511-19.85-7.67-4.811 6.529.39 14.38 6.439 18.76 10.461 8.01 11.421 16.69 18.081 7.97zm0 47.73c3.721-4.86-1.479-14.95-4.67-19.061-3.93-5.06-15.55-13.51-19.85-7.67-4.811 6.54.39 14.38 6.439 18.75 10.461 8.021 11.421 16.701 18.081 7.981zm-36.07 15.75c6.13-5.341 2.729-14.131-2.24-19.71-8.48-10.08-7.53-18.761-15.91-11.69-4.69 3.94-1.79 14.92.43 19.62 2.74 5.8 12.25 16.55 17.72 11.78zm-11.22 32.24c.11-6.12-10.05-11.17-15.05-12.58-6.17-1.739-20.54-1.649-20.54 5.61 0 8.1 8.84 11.34 16.32 11.25 13.16.25 19.08 6.69 19.27-4.28zm-48.85-28.77c11.85-5.74 20.03-2.69 15.24-12.561-2.69-5.5-14.03-5.39-19.13-4.39-6.29 1.24-19.061 7.82-15.771 14.29 3.671 7.241 13.011 6.121 19.661 2.661zm3.94 47.35c3.7-4.859-1.489-14.96-4.659-19.069-3.94-5.061-15.561-13.5-19.87-7.671-4.811 6.54.39 14.391 6.46 18.75 10.439 8.01 11.409 16.7 18.069 7.99zm-36.06 15.74c6.1-5.33 2.72-14.12-2.26-19.7-8.46-10.09-7.53-18.77-15.91-11.7-4.67 3.94-1.79 14.92.43 19.631 2.74 5.779 12.26 16.538 17.74 11.769zm-38.08-30.75c6.14-11.65 14.54-14.05 4.83-19.14-5.42-2.841-14.49 3.97-18.01 7.8-4.33 4.729-10.7 17.6-4.221 20.859 7.251 3.651 14.101-2.799 17.401-9.519zm-28.98 43.43c11.85-5.739 20.041-2.699 15.24-12.56-2.67-5.5-14.02-5.39-19.13-4.4-6.29 1.24-19.05 7.82-15.77 14.3 3.68 7.23 13.03 6.11 19.66 2.66zm-16.06-29.01c4.31-5.83-7.18-14.45-13.18-16.71-4.87-1.84-16.04-3.83-19.59 1.15-6.37 8.93 2.21 7.29 12.95 14.909 5.96 4.521 14.99 7.171 19.82.651zm-32.38 30.929c3.28-6.46-9.48-13.06-15.77-14.29-5.11-1-16.46-1.1-19.13 4.4-4.8 9.86 3.38 6.82 15.24 12.55 6.63 3.461 15.98 4.581 19.66-2.66zm-31.25-31.239c6.48-3.261.12-16.141-4.21-20.86-3.52-3.83-12.6-10.65-18.01-7.81-9.71 5.1-1.31 7.5 4.83 19.149 3.29 6.72 10.14 13.171 17.39 9.521zm-37.74 9.449c2.23-4.699 5.11-15.68.44-19.63-8.38-7.06-7.45 1.62-15.91 11.7-4.98 5.58-8.37 14.37-2.25 19.71 5.47 4.771 14.98-5.99 17.72-11.78zm-35.72-11.949c6.07-4.37 11.27-12.21 6.46-18.75-4.31-5.841-15.93 2.609-19.87 7.659-3.18 4.12-8.37 14.211-4.66 19.07 6.66 8.711 7.62.041 18.07-7.979zm5.53-42.02c3.28-6.47-9.48-13.06-15.77-14.29-5.11-1.01-16.45-1.109-19.13 4.391-4.8 9.859 3.39 6.819 15.24 12.56 6.64 3.459 15.99 4.569 19.66-2.661zm-32.92 24.45c0-7.25-14.38-7.34-20.54-5.61-5 1.42-15.17 6.46-15.06 12.59.19 10.961 6.11 4.53 19.28 4.28 7.47.09 16.32-3.15 16.32-11.26zm-29.09-23.61c2.22-4.71 5.11-15.689.43-19.63-8.37-7.069-7.44 1.61-15.91 11.7-4.98 5.58-8.36 14.37-2.25 19.7 5.48 4.77 14.98-5.99 17.73-11.77zm-35.72-25.39c6.06-4.36 11.26-12.21 6.46-18.74-4.32-5.84-15.94 2.601-19.87 7.67-3.18 4.101-8.37 14.2-4.67 19.061 6.67 8.719 7.63.028 18.08-7.991z" fill="#ee947d"/><path d="m171.91 529.099c4.81 6.54-.4 14.38-6.46 18.75-10.45 8.02-11.41 16.7-18.07 7.979-3.71-4.859 1.48-14.95 4.66-19.06 3.94-5.06 15.55-13.509 19.87-7.669z" fill="#fff5b4"/><path d="m153.14 361.579c0-6.85 10.24-13 26.51-17.23 4.02 2.13 7.92 3.71 11.69 5.02 0 0 19.51 5.02 41.25 5.02l.05-.05c21.74 0 41.25-5.01 41.25-5.01 3.7-1.29 7.54-2.84 11.48-4.91 16.11 4.23 26.24 10.35 26.24 17.16 0 12.75-35.47 23.09-79.24 23.09-43.76 0-79.23-10.34-79.23-23.09z" fill="#ffeec8"/><path d="m508.92 445.979c.01 0 .01 0 .021.01 76.25 23.46 127.699 67.93 127.699 118.95 0 75.439-112.529 136.59-251.35 136.59-138.82 0-251.36-61.15-251.36-136.59 0-50.34 50.1-94.32 124.68-118.01 15.92-5.061 32.96-9.2 50.87-12.271" fill="none" stroke="#231f20" stroke-width="14"/><path d="m431.3 409.549c130.92 12.68 230.69 78.55 230.69 157.92 0 32.5-16.74 62.75-45.51 87.989-49.48 43.45-134.54 72.12-231.181 72.12-92.41 0-174.24-26.21-224.49-66.489-32.85-26.33-52.21-58.671-52.21-93.62 0-79.79 100.83-145.94 232.77-158.12h.02" fill="none" stroke="#231f20" stroke-width="21"/><path d="m286.79 658.739c8.46-10.08 7.53-18.76 15.91-11.7 4.67 3.95 1.79 14.931-.44 19.63-2.74 5.79-12.25 16.551-17.72 11.78-6.12-5.34-2.73-14.13 2.25-19.71z" fill="none" stroke="#231f20" stroke-width="13.4349"/><path d="m322.61 647.699c-6.14-11.649-14.54-14.05-4.83-19.149 5.41-2.841 14.49 3.979 18.01 7.81 4.33 4.72 10.69 17.6 4.21 20.86-7.25 3.649-14.1-2.802-17.39-9.521z" fill="none" stroke="#231f20" stroke-width="13.4349"/><path d="m266.54 654.719c-10.45 8.02-11.41 16.689-18.07 7.979-3.71-4.859 1.48-14.95 4.66-19.07 3.94-5.05 15.56-13.5 19.87-7.659 4.81 6.54-.39 14.38-6.46 18.75z" fill="none" stroke="#231f20" stroke-width="13.4349"/><path d="m194.58 605.609c8.47-10.09 7.54-18.77 15.91-11.7 4.68 3.94 1.79 14.92-.43 19.63-2.75 5.78-12.25 16.54-17.73 11.771-6.11-5.331-2.73-14.121 2.25-19.701z" fill="none" stroke="#231f20" stroke-width="13.4349"/><path d="m174.34 588.149c-10.45 8.02-11.41 16.71-18.08 7.99-3.7-4.86 1.49-14.96 4.67-19.061 3.93-5.069 15.55-13.51 19.87-7.67 4.8 6.531-.4 14.381-6.46 18.741z" fill="none" stroke="#231f20" stroke-width="13.4349"/><path d="m165.45 547.849c-10.45 8.02-11.41 16.7-18.07 7.979-3.71-4.859 1.48-14.95 4.66-19.06 3.94-5.061 15.55-13.51 19.87-7.67 4.81 6.541-.4 14.381-6.46 18.751z" fill="none" stroke="#231f20" stroke-width="13.4349"/><path d="m222.83 648.409c-13.17.25-19.09 6.681-19.28-4.28-.11-6.13 10.06-11.17 15.06-12.59 6.16-1.729 20.54-1.64 20.54 5.61 0 8.11-8.85 11.35-16.32 11.26z" fill="none" stroke="#231f20" stroke-width="13.4349"/><path d="m252.41 615.359c-11.85-5.74-20.04-2.7-15.24-12.56 2.68-5.5 14.02-5.4 19.13-4.391 6.29 1.23 19.05 7.82 15.77 14.29-3.67 7.231-13.02 6.121-19.66 2.661z" fill="none" stroke="#231f20" stroke-width="13.4349"/><path d="m351.59 691.119c-11.86-5.729-20.04-2.689-15.24-12.55 2.67-5.5 14.02-5.4 19.13-4.4 6.29 1.23 19.05 7.83 15.77 14.29-3.68 7.24-13.03 6.12-19.66 2.66z" fill="none" stroke="#231f20" stroke-width="13.4349"/><path d="m383.81 656.878c-10.74-7.619-19.32-5.979-12.95-14.909 3.55-4.98 14.72-2.99 19.59-1.15 6 2.26 17.49 10.88 13.18 16.71-4.83 6.52-13.86 3.87-19.82-.651z" fill="none" stroke="#231f20" stroke-width="13.4349"/><path d="m484.49 654.159c-8.46-10.09-7.53-18.77-15.91-11.7-4.67 3.94-1.79 14.92.43 19.631 2.74 5.779 12.26 16.539 17.74 11.77 6.1-5.331 2.72-14.121-2.26-19.701z" fill="none" stroke="#231f20" stroke-width="13.4349"/><path d="m448.67 643.109c6.14-11.65 14.54-14.05 4.83-19.14-5.42-2.841-14.49 3.97-18.01 7.8-4.33 4.729-10.7 17.6-4.221 20.859 7.251 3.651 14.101-2.799 17.401-9.519z" fill="none" stroke="#231f20" stroke-width="13.4349"/><path d="m504.74 650.128c10.439 8.011 11.41 16.7 18.069 7.99 3.7-4.859-1.489-14.96-4.659-19.069-3.94-5.061-15.561-13.5-19.87-7.671-4.81 6.54.39 14.391 6.46 18.75z" fill="none" stroke="#231f20" stroke-width="13.4349"/><path d="m576.7 587.589c-8.48-10.08-7.53-18.761-15.91-11.69-4.69 3.94-1.79 14.92.43 19.62 2.74 5.8 12.25 16.55 17.721 11.78 6.129-5.341 2.729-14.131-2.241-19.71z" fill="none" stroke="#231f20" stroke-width="13.4349"/><path d="m596.93 583.569c10.46 8.021 11.42 16.7 18.08 7.98 3.721-4.86-1.479-14.95-4.67-19.061-3.93-5.06-15.55-13.51-19.85-7.67-4.81 6.541.39 14.381 6.44 18.751z" fill="none" stroke="#231f20" stroke-width="13.4349"/><path d="m596.93 535.849c10.46 8.01 11.42 16.689 18.08 7.97 3.721-4.86-1.479-14.95-4.67-19.06-3.93-5.07-15.55-13.511-19.85-7.67-4.81 6.53.39 14.38 6.44 18.76z" fill="none" stroke="#231f20" stroke-width="13.4349"/><path d="m548.45 643.819c13.16.25 19.08 6.69 19.27-4.28.11-6.12-10.05-11.17-15.05-12.58-6.17-1.739-20.54-1.649-20.54 5.61 0 8.099 8.84 11.34 16.32 11.25z" fill="none" stroke="#231f20" stroke-width="13.4349"/><path d="m518.87 610.769c11.85-5.74 20.03-2.69 15.24-12.561-2.69-5.5-14.03-5.39-19.13-4.39-6.29 1.24-19.061 7.82-15.771 14.29 3.671 7.241 13.011 6.121 19.661 2.661z" fill="none" stroke="#231f20" stroke-width="13.4349"/><path d="m419.69 686.539c11.85-5.739 20.041-2.699 15.24-12.56-2.67-5.5-14.02-5.39-19.13-4.4-6.29 1.24-19.05 7.82-15.77 14.3 3.68 7.23 13.03 6.11 19.66 2.66z" fill="none" stroke="#231f20" stroke-width="13.4349"/><path d="m360.89 575.299c-5.36-7.931-4.44-6.561-3.2-14.301 1.06-6.72 7.33-10.09 11.01-15.12 5.6-7.699 6.42-13.38 17.36-12.31 7.96.771 14.82 5.33 22.66 6.84 8.63 1.66 15.24 3.28 17.13 13.17 1.85 9.681 1.209 24.99-9.48 28.681-11.28 3.909-20.92-2.04-31.84-.23-7.09 1.18-12.37 4.311-17.84-1.74-.72-.81-5.8-4.99-5.8-4.99z" fill="none" stroke="#231f20" stroke-width="21"/><path d="m356.77 483.869c-5.36-7.92-4.44-6.56-3.2-14.3 1.06-6.71 7.33-10.08 11.01-15.12 5.6-7.689 6.42-13.37 17.36-12.3 7.95.76 14.82 5.33 22.66 6.84 8.63 1.65 15.24 3.28 17.13 13.17 1.85 9.67 1.21 24.98-9.48 28.681-11.28 3.899-20.92-2.051-31.85-.24-7.08 1.18-12.36 4.319-17.83-1.74-.72-.801-5.8-4.991-5.8-4.991z" fill="none" stroke="#231f20" stroke-width="21"/><path d="m476.88 536.128c-.979-9.52-.81-7.88 3.93-14.13 4.11-5.409 11.23-5.42 16.841-8.13 8.58-4.14 11.979-8.76 21.109-2.66 6.66 4.431 10.55 11.69 16.76 16.73 6.82 5.52 11.881 10.08 8.891 19.689-2.94 9.4-10.73 22.591-21.891 20.82-11.8-1.89-17.479-11.68-27.979-15.24-6.8-2.3-12.93-2.029-14.89-9.949-.271-1.059-2.771-7.13-2.771-7.13z" fill="none" stroke="#231f20" stroke-width="21"/><path d="m291.62 474.909c10.41 1.32 8.63 1.09 14.12 7.7 4.78 5.73 3.03 13.35 4.53 20.04 2.29 10.18 6.39 14.96-2.4 23.21-6.39 6.01-15.11 8.37-22.03 13.76-7.61 5.931-13.72 10.2-23.25 4.62-9.33-5.47-21.49-17.07-16.82-28.57 4.93-12.13 16.81-15.779 23.21-26.1 4.15-6.71 5.39-13.34 14.34-13.47 1.19-.01 8.3-1.19 8.3-1.19z" fill="none" stroke="#231f20" stroke-width="21"/><path d="m616.51 655.378c-.01.03-.02.051-.029.08-21.461 72.19-115.711 126.54-228.75 126.54-110.07 0-202.35-51.55-226.92-120.909-.17-.48-.34-.971-.5-1.45" fill="none" stroke="#231f20" stroke-width="21"/><path d="m258.61 446.929c-2.49 3.17-4.49 7.239-5.97 12.5-2.15 7.62-5.38 14.34-19.72 20.89-3.43 1.57-8.4 4.65-13.81 7.6-37.19 20.341-54.44 47.99-40.77 68.07 20.76 30.51 74.16 11.53 102.53 28.37l.44.31c5.5 4.04 9.1 8.83 13.54 13.95 22.69 26.16 60.55 31.4 86.35 28.54l6.1.19c25.81 2.87 63.66-2.38 86.36-28.54 7.45-8.58 12.53-16.24 28.2-21.03 10.93-3.34 39.21-7 49.649-12.22 24.69-12.33 23.41-41.23 15.91-60.51-3.6-9.29-23.2-20.591-31.84-24.54-14.34-6.551-17.561-13.261-19.71-20.891-1.67-5.899-3.99-10.31-6.93-13.63-7.08-8.04-17.761-9.77-31.521-11.1-10.09-.971-20.61-1.74-28.9-7.931-6.38-4.76-12.51-9.729-18.09-15.31-.72-.72-1.479-1.39-2.29-2.02-14.68-11.59-43.18-10.34-43.18-10.34-15.3-.7-31.53 2.96-43.59 10.06-1.14.68-2.24 1.38-3.3 2.11-6.5 4.48-11.71 10.55-18.08 15.31-8.29 6.18-18.82 6.95-28.9 7.93-14.388 1.382-25.408 3.221-32.478 12.232z" fill="none" stroke="#231f20" stroke-width="21"/><path d="m106.4 199.189c-.21-1.25-.31-1.92-.31-1.92" fill="none" stroke="#231f20" stroke-width="21"/><path d="m359.54 194.869c-.31 1.97-9.67 60.4-29.34 98.15-16.01 30.73-31.12 44.21-44.83 51.4-3.94 2.07-7.78 3.62-11.48 4.91 0 0-19.51 5.01-41.25 5.01l-.05.05c-21.74 0-41.25-5.02-41.25-5.02-3.77-1.31-7.67-2.89-11.69-5.02-13.65-7.21-28.69-20.71-44.62-51.29-17.82-34.2-26.85-83.46-28.62-93.83" fill="none" stroke="#231f20" stroke-width="21"/><path d="m359.55 194.819s0 .01-.01.04" fill="none" stroke="#231f20" stroke-width="21"/><path d="m315.07 165.099c-9.43 13.44-14.66 23.32-14.66 23.32s-2.93 6.36 3.84 7.99c7.39 1.79 12.48-4.63 12.48-4.63s7.12-9.49 15.97-20.25c6.45-7.85 13.83-16.38 20.02-22.39 14.67-14.22 29.28-22.83 44.12-28.8 14.85-5.96 23.17-8.35 24.83-15.3 2.36-9.81-5.46-22.34-44.93.05-26.9 15.26-48.42 41.14-61.66 60.01" fill="none" stroke="#231f20" stroke-width="14"/><path d="m285.33 344.409c.01 0 .03.01.04.01 16.11 4.23 26.24 10.35 26.24 17.16 0 12.75-35.47 23.09-79.24 23.09-43.76 0-79.23-10.34-79.23-23.09 0-6.85 10.24-13 26.51-17.23.01 0 .02-.01.03-.01" fill="none" stroke="#231f20" stroke-width="21"/><path d="m361.35 189.639c.01.18.02.37.03.56" fill="none" stroke="#231f20" stroke-width="20.1524"/><path d="m337 172.109c7.29 5.49 23.39 5.98 24.34 17.43" fill="none" stroke="#231f20" stroke-width="20.1524"/><path d="m361.35 189.639c.02.19.03.37.03.56 0 1.59-.63 3.15-1.84 4.66v.01c-10.36 13.02-63.26 22.93-126.95 22.93-67.95 0-121.54-4.94-126.18-18.57 0-.01 0-.03-.01-.04-.2-.62-.31-1.26-.31-1.92 0-21.11 43.67-24.46 67.83-48.61 20.17-20.17 59.05-47.34 100.47-12.61 13 10.88 30 20.69 40.68 29.05h.01" fill="none" stroke="#231f20" stroke-width="21"/><path d="m361.34 189.539c.01.03.01.07.01.1" fill="none" stroke="#231f20" stroke-width="20.1524"/><path d="m356.25 182.479c3.06 2.25 4.82 4.61 5.09 7.06" fill="none" stroke="#231f20" stroke-width="21"/></svg>