<svg enable-background="new 0 0 850.394 850.394" height="850.394" viewBox="0 0 850.394 850.394" width="850.394" xmlns="http://www.w3.org/2000/svg"><path d="m562.88 418.98c.08-1.93.12-3.86.12-5.81 0-10.92-1.25-21.54-3.61-31.74-2.779-12.06-7.109-23.52-12.779-34.16l193.149-72.14-29.93 76.34 41.91 28.44-43.41 43.41 38.17 47.9-48.65 17.96 35.92 80.83-189.12-87.38c6.229-10.93 11.04-22.79 14.17-35.31 2.28-9.12 3.67-18.6 4.06-28.34z" fill="#a800d4"/><path d="m562.88 418.98c-.39 9.74-1.78 19.22-4.06 28.34-3.13 12.52-7.94 24.38-14.17 35.31-24.181 42.41-69.801 71-122.101 71-51.35 0-96.26-27.56-120.76-68.689-6.48-10.87-11.53-22.69-14.9-35.2-2.53-9.431-4.11-19.26-4.62-29.37-.12-2.39-.18-4.79-.18-7.2 0-10.67 1.19-21.06 3.45-31.05 2.76-12.26 7.13-23.91 12.87-34.72 23.59-44.43 70.33-74.68 124.14-74.68 53.75 0 100.45 30.2 124.061 74.55 5.67 10.64 10 22.1 12.779 34.16 2.36 10.2 3.61 20.82 3.61 31.74.001 1.949-.039 3.879-.119 5.809z" fill="#a800d4"/><path d="m286.89 449.74c3.37 12.51 8.42 24.33 14.9 35.2l-187.16 86.46 35.93-80.83-48.65-17.96 38.17-47.9-43.41-43.41 41.91-28.44-29.93-76.33 189.76 70.87c-5.74 10.81-10.11 22.46-12.87 34.72-2.26 9.99-3.45 20.38-3.45 31.05 0 2.41.06 4.81.18 7.2.51 10.11 2.09 19.94 4.62 29.37z" fill="#a800d4"/><g fill="none"><path d="m559.39 381.43c2.36 10.2 3.61 20.82 3.61 31.74 0 1.95-.04 3.88-.12 5.81-.39 9.74-1.78 19.22-4.06 28.34-3.13 12.52-7.94 24.38-14.17 35.31-24.181 42.41-69.801 71-122.101 71-51.35 0-96.26-27.56-120.76-68.689-6.48-10.87-11.53-22.69-14.9-35.2-2.53-9.431-4.11-19.26-4.62-29.37-.12-2.39-.18-4.79-.18-7.2 0-10.67 1.19-21.06 3.45-31.05 2.76-12.26 7.13-23.91 12.87-34.72 23.59-44.43 70.33-74.68 124.14-74.68 53.75 0 100.45 30.2 124.061 74.55 5.67 10.639 10 22.099 12.78 34.159z" stroke="#000" stroke-width="17.962"/><path d="m190.97 363.34 94.57 18.78" stroke="#000" stroke-width="17.962"/><path d="m159.61 420.47 122.66-.1" stroke="#000" stroke-width="17.962"/><path d="m202.2 482.34 84.69-32.6.03-.01" stroke="#000" stroke-width="17.962"/><path d="m546.59 347.28.02-.01 193.15-72.14-29.93 76.34 41.91 28.44-43.41 43.41 38.17 47.9-48.65 17.96 35.92 80.83-189.12-87.38-.03-.01" stroke="#000" stroke-width="17.962"/><path d="m657.44 361.95-98.05 19.48h-.01" stroke="#000" stroke-width="17.962"/><path d="m688.8 419.08-125.92-.1h-.01" stroke="#000" stroke-width="17.962"/><path d="m646.21 480.95-87.39-33.63-.02-.01" stroke="#000" stroke-width="17.962"/><path d="m298.44 347.41-.03-.01-189.76-70.87 29.93 76.33-41.91 28.44 43.41 43.41-38.17 47.9 48.65 17.96-35.93 80.83 187.16-86.46" stroke="#000" stroke-width="17.962"/><path d="m0 0h850.394v850.394h-850.394z"/></g></svg>