<svg enable-background="new 0 0 850.89 850.89" height="850.89" viewBox="0 0 850.89 850.89" width="850.89" xmlns="http://www.w3.org/2000/svg"><path d="m257.76 86.42v63.72h-15.51-32.87v-63.72z" fill="#00efdc"/><path d="m257.76 86.42h83.07v63.72h-83.07z" fill="#00efdc"/><path d="m423.91 150.14h-2.31-80.77v-63.72h166.15v.91 61.88.93z" fill="#00efdc"/><path d="m588.22 149.97v.17h-81.24v-.93-61.88-.91h81.24v.91z" fill="#00efdc"/><path d="m640.25 86.42v63.72h-32.79-19.24v-.17-62.64-.91z" fill="#00efdc"/><path d="m640.25 150.14s24.65 134.94 44.74 233.53c20.08 98.59 38.939 251.91 52.33 321.33 1.27 6.6-12 12.96-33.2 18.84l-96.66-573.7z" fill="#a3d9ff"/><path d="m242.25 150.14-96.43 572.4-.21.71c-19.65-5.68-31.77-11.78-30.55-18.09 13.38-69.42 32.25-222.74 52.33-321.33s41.99-233.69 41.99-233.69z" fill="#a3d9ff"/><path d="m423.91 150.14h83.07 81.239 19.24l96.66 573.7c-71 19.72-230.92 34.11-230.92 34.11l-45.03-385.07-3.96.16-45.03 385.07s-163.99-14.761-233.57-34.86l.21-.71 96.43-572.4h15.51 83.07 80.77z" fill="#00efdc"/><g fill="none"><path d="m640.25 150.14h-32.79-19.24-81.24-83.07-2.31-80.77-83.07-15.51-32.87v-63.72h48.38 83.07 166.15 81.24 52.03z" stroke="#000" stroke-width="21.9088"/><path d="m640.25 150.14s24.65 134.94 44.74 233.53c20.08 98.59 38.939 251.91 52.33 321.33 1.27 6.6-12 12.96-33.2 18.84-71 19.72-230.92 34.11-230.92 34.11l-45.03-385.07-3.96.16-45.03 385.07s-163.99-14.761-233.57-34.86c-19.65-5.68-31.77-11.78-30.55-18.09 13.38-69.42 32.25-222.74 52.33-321.33s41.99-233.69 41.99-233.69" stroke="#000" stroke-width="21.9088"/><path d="m242.25 150.14-96.43 572.4" stroke="#000" stroke-width="21.9088"/><path d="m607.46 150.14 96.66 573.7.11.68" stroke="#000" stroke-width="21.9088"/><path d="m257.76 86.42v63.72" stroke="#000" stroke-width="21.9088"/><path d="m340.83 86.42v63.72" stroke="#000" stroke-width="21.9088"/><path d="m423.91 91.9v58.24.59" stroke="#000" stroke-width="21.9088"/><path d="m506.98 87.33v61.88" stroke="#000" stroke-width="21.9088"/><path d="m588.22 87.33v62.64" stroke="#000" stroke-width="21.9088"/><path d="m422.19 149.3c-.19.28-.39.56-.59.84-12.88 17.97-39.58 28.15-26.7 50.43 13.67 23.64 45.35 28.44 49.87 58.24 3.601 23.84-22.729 38.3-41.149 44.64-9.27 3.19-31.75 14.31-42.13 29.83" stroke="#000" stroke-width="21.9088"/><path d="m429.22 152.84c-11.25 17.17-7.03 34.11 1.08 44.96 17.271 23.1 45.48 17.77 57.59 47.23 9.69 23.54-13.689 50.88-31 62.01-8.71 5.61-31.93 21.37-43.939 41.19" stroke="#000" stroke-width="21.9088"/><path d="m.25.25h850.394v850.394h-850.394z"/></g></svg>