<svg enable-background="new 0 0 850.394 850.394" height="850.394" viewBox="0 0 850.394 850.394" width="850.394" xmlns="http://www.w3.org/2000/svg"><path d="m262.51 487.33 4.02 1.72s-8.31 37.84-15.93 47.76c-8.84 11.511-18.58 5.761-18.58 5.761-11.06-3.98-7.96-20.04-3.53-25.66 5.84-7.42 31.85-30.5 31.85-30.5z" fill="#c8c8c8"/><path d="m503.24 714.95c3.97 4.06 6.399 9.439 6.399 15.35 0 12.63-11.029 22.851-24.63 22.851-4.49 0-8.71-1.12-12.34-3.08l-.43-.23c-7.101-4.01-11.851-11.26-11.851-19.54 0-5.12 1.82-9.84 4.891-13.649 4.489-5.57 11.66-9.17 19.729-9.17 7.232-.002 13.722 2.878 18.232 7.468z" fill="#c8c8c8"/><path d="m333.31 424.48c0 6.34-5.44 11.49-12.16 11.49h-16.37c-6.72 0-12.16-5.149-12.16-11.49 0-3.18 1.36-6.06 3.56-8.14s5.24-3.36 8.6-3.36h16.37c6.72 0 12.16 5.14 12.16 11.5z" fill="#787878"/><path d="m573.87 118.68c4.83 30.08-38.101 62-95.87 71.3-57.79 9.29-108.55-7.57-113.38-37.66-1.82-11.28 3.09-22.81 12.97-33.33l.14.01c3.92 27.26 43.92 45.29 90.27 40.4 46.98-4.95 82.69-31.59 79.75-59.5-.46-4.35-1.83-8.47-4-12.31 16.81 7.01 27.98 17.75 30.12 31.09z" fill="#fff400"/><path d="m543.75 87.59c2.17 3.84 3.54 7.96 4 12.31 2.94 27.91-32.77 54.55-79.75 59.5-46.35 4.89-86.35-13.14-90.27-40.4-.05-.38-.1-.77-.14-1.16-2.95-27.91 32.75-54.55 79.74-59.5 39.67-4.19 74.69 8.42 86.42 29.25z" fill="#f73900"/><path d="m485.89 631.46h19.91v16.59 66.57l-2.56.33c-4.51-4.59-11-7.47-18.23-7.47-8.069 0-15.24 3.6-19.729 9.17l-1.94-2.25v-82.94z"/><path d="m458.29 559.08c.44-.48.91-.92 1.43-1.34 2.431-1.96 5.391-2.9 8.41-2.9 4.63 0 9.42 2.2 12.76 6.351l14.641 18.21c5.529 6.869 5.029 16.449-1.141 21.409-2.439 1.971-5.399 2.91-8.42 2.91-4.63 0-9.41-2.2-12.75-6.35l-14.649-18.2c-5.081-6.29-5.081-14.87-.281-20.09z"/><path d="m480.03 222.24c.09.03.17.07.26.11 4.97 2.36 7.8 7.53 7.8 13.14 0 2.46-.54 5.01-1.689 7.44l-10 21.11c-3.78 7.96-12.631 11.68-19.79 8.29-.99-.47-1.891-1.05-2.71-1.74-3.28-2.7-5.091-6.91-5.091-11.4 0-2.46.54-5 1.69-7.43l10.01-21.11c3.72-7.86 12.41-11.59 19.52-8.41z"/><path d="m472.67 750.07-59.75 44.15 49.53-49.53 9.79 5.15z" fill="#fff"/><path d="m351.44 436.1h-1.12c-8.82-.029-15.94-6.47-15.91-14.399.03-7.87 7.15-14.25 15.93-14.25h.1l23.36.1c8.81.04 15.93 6.48 15.91 14.39-.04 7.9-7.18 14.26-15.96 14.26-.02 0-.05 0-.08 0z"/><g fill="none"><path d="m543.75 87.59c2.17 3.84 3.54 7.96 4 12.31 2.94 27.91-32.77 54.55-79.75 59.5-46.35 4.89-86.35-13.14-90.27-40.4-.05-.38-.1-.77-.14-1.16-2.95-27.91 32.75-54.55 79.74-59.5 39.67-4.19 74.69 8.42 86.42 29.25z" stroke="#000" stroke-width="21.2293"/><path d="m543.63 87.54c.04.02.08.03.12.05 16.81 7.01 27.98 17.75 30.12 31.09 4.83 30.08-38.101 62-95.87 71.3-57.79 9.29-108.55-7.57-113.38-37.66-1.82-11.28 3.09-22.81 12.97-33.33" stroke="#000" stroke-width="21.2293"/><path d="m453.9 270.59-69.73 129.13" stroke="#000" stroke-width="26.5366"/><path d="m480.03 222.24c.09.03.17.07.26.11 4.97 2.36 7.8 7.53 7.8 13.14 0 2.46-.54 5.01-1.689 7.44l-10 21.11c-3.78 7.96-12.631 11.68-19.79 8.29-.99-.47-1.891-1.05-2.71-1.74-3.28-2.7-5.091-6.91-5.091-11.4 0-2.46.54-5 1.69-7.43l10.01-21.11c3.72-7.86 12.41-11.59 19.52-8.41z" stroke="#000" stroke-width="26.5366"/><path d="m350.32 436.1c-8.82-.029-15.94-6.47-15.91-14.399.03-7.87 7.15-14.25 15.93-14.25h.1l23.36.1c8.81.04 15.93 6.48 15.91 14.39-.04 7.9-7.18 14.26-15.96 14.26-.02 0-.05 0-.08 0l-22.23-.101z" stroke="#000" stroke-width="26.5366"/><path d="m458.57 579.17c-5.08-6.29-5.08-14.87-.28-20.09.44-.48.91-.92 1.43-1.34 2.431-1.96 5.391-2.9 8.41-2.9 4.63 0 9.42 2.2 12.76 6.351l14.641 18.21c5.529 6.869 5.029 16.449-1.141 21.409-2.439 1.971-5.399 2.91-8.42 2.91-4.63 0-9.41-2.2-12.75-6.35z" stroke="#000" stroke-width="26.5366"/><path d="m480.29 226.34-.26-4.1-1.73-27.45" stroke="#000" stroke-width="26.5366"/><path d="m350.56 435.09.88 1.01 106.85 122.98 3.72 4.28" stroke="#000" stroke-width="26.5366"/><path d="m295.55 434.12-33.04 53.21" stroke="#000" stroke-width="21.2293"/><path d="m463.34 714.4v-82.94h22.55 19.91v16.59 66.57" stroke="#000" stroke-width="21.2293"/><path d="m485.89 606.92v24.54 11.28" stroke="#000" stroke-width="21.2293"/><path d="m472.24 749.84c-7.101-4.01-11.851-11.26-11.851-19.54 0-5.12 1.82-9.84 4.891-13.649 4.489-5.57 11.66-9.17 19.729-9.17 7.23 0 13.721 2.88 18.23 7.47 3.97 4.06 6.399 9.439 6.399 15.35 0 12.63-11.029 22.851-24.63 22.851-4.49 0-8.71-1.12-12.34-3.08" stroke="#000" stroke-width="10.6146"/><path d="m472.67 750.07-59.75 44.15 49.53-49.53 9.79 5.15z" stroke="#000" stroke-width="10.6146"/><path d="m333.31 424.48c0 6.34-5.44 11.49-12.16 11.49h-16.37c-6.72 0-12.16-5.149-12.16-11.49 0-3.18 1.36-6.06 3.56-8.14s5.24-3.36 8.6-3.36h16.37c6.72 0 12.16 5.14 12.16 11.5z" stroke="#000" stroke-width="10.6146"/><path d="m266.53 489.05s-8.31 37.84-15.93 47.76c-8.84 11.511-18.58 5.761-18.58 5.761-11.06-3.98-7.96-20.04-3.53-25.66 5.84-7.42 31.85-30.5 31.85-30.5l2.17.92z" stroke="#000" stroke-width="10.6146"/><path d="m505.8 648.05h24.54" stroke="#000" stroke-width="21.2293"/><path d="m0 0h850.394v850.394h-850.394z"/></g></svg>