<svg enable-background="new 0 0 850.394 850.394" height="850.394" viewBox="0 0 850.394 850.394" width="850.394" xmlns="http://www.w3.org/2000/svg"><path d="m522.94 684.01c0 22.3 51.42 40.38 114.85 40.38s114.84-18.08 114.84-40.38c0-.7-.05-1.39-.149-2.08l8.18 40.12c0 23.78-54.83 43.05-122.44 43.05-67.62 0-122.43-19.27-122.43-43.05l7.29-40.04c-.091.66-.141 1.33-.141 2z" fill="#ed1d31"/><path d="m752.12 680.19c.13.47.229.949.3 1.42l.061.319c.1.69.149 1.38.149 2.08 0 22.3-51.41 40.38-114.84 40.38s-114.85-18.08-114.85-40.38c0-.67.05-1.34.14-2 0-.04.01-.09.02-.14 3.16-21.29 53.301-38.23 114.69-38.23 59.77.001 108.86 16.051 114.33 36.551z" fill="#ed1d31"/><path d="m489.84 723.93c0-15.939 12.46-30.58 33.26-42.06-.01.05-.02.1-.02.14l-7.29 40.04c0 23.78 54.81 43.05 122.43 43.05 67.61 0 122.44-19.27 122.44-43.05l-8.18-40.12-.061-.319c-.07-.471-.17-.95-.3-1.42 22.68 11.729 36.41 27.01 36.41 43.739 0 36.92-66.87 66.851-149.36 66.851-82.469-.001-149.329-29.931-149.329-66.851z" fill="#7a7878"/><path d="m245.71 281.13h105.23v47.24h-105.23z" fill="#c8c8c8"/><path d="m337.78 402.46h115.64v20.76h-115.64z" fill="#7a7878"/><path d="m381.41 356.05h72.01v20.78h-72.01z" fill="#7a7878"/><path d="m101.41 514.17h-18.56l-6.96 17.08h32.48zm32.38-4.1-6.96-17.09h-18.56l-6.95 17.09zm18.99 3.83h-18.56l-6.96 17.08h32.47zm32.38-4.09-6.96-17.09h-18.56l-6.96 17.09zm21.45 3.96h-18.56l-6.95 17.091h32.48zm-.1-4.09h32.48l-6.96-17.09h-18.56zm55.35 4.35h-18.56l-6.96 17.09h32.48zm-.09-4.09h32.46l-6.95-17.091h-18.55zm57.11 4.23h-18.56l-6.96 17.08h32.48zm32.37-4.1-6.95-17.09h-18.57l-6.95 17.09zm18.99 3.83h-18.55l-6.96 17.08h32.48zm32.38-4.09-6.96-17.09h-18.56l-6.96 17.09zm21.46 3.96h-18.57l-6.95 17.091h32.47zm32.37-4.09-6.95-17.09h-18.56l-6.96 17.09zm20.04 4.35h-18.55l-6.96 17.09h32.479zm2.74-4.09h32.479l-6.97-17.091h-18.55zm13.04-35.48v-.02h13.69c8.67 0 13.46 4.779 15.69 15.729l14.779 57.2c1.851 14.31-7.029 15.7-15.699 15.7h-17.8-7.89-417.69c-8.67 0-17.54-1.37-15.7-15.7l14.77-57.2c2.25-10.93 7.03-15.71 15.7-15.71h400.15zm14.04 38.73-6.96 17.09h32.48l-6.96-17.09z" fill="#7a7878"/><path d="m485.96 328.37v126h-375.27v-126h135.02 105.23zm-32.54 94.85v-20.76h-115.64v20.76zm0-46.39v-20.78h-72.01v20.78z" fill="#c8c8c8"/><path d="m536.28 563.07v31.39h-474.28v-31.39h15.35 417.69 7.89 17.8z" fill="#7a7878"/><path d="m524.87 513.19 6.96 17.09h-32.48l6.96-17.09z" fill="#231f20"/><path d="m504.74 492.85 6.97 17.09h-32.48l6.96-17.09z" fill="#231f20"/><path d="m476.49 514.03 6.97 17.09h-32.48l6.96-17.09z" fill="#231f20"/><path d="m449.5 492.59 6.95 17.09h-32.47l6.96-17.09z" fill="#231f20"/><path d="m424.08 513.77 6.95 17.09h-32.47l6.95-17.09z" fill="#231f20"/><path d="m417.98 254.51c4.21 0 7.61 3.42 7.61 7.62s-3.4 7.62-7.61 7.62-7.61-3.42-7.61-7.62 3.4-7.62 7.61-7.62z" fill="#231f20"/><path d="m178.83 83.26h238.99v160.07h-238.99z" fill="#c8c8c8"/><path d="m408.42 262.24c0-4.21-3.42-7.62-7.62-7.62-4.21 0-7.62 3.41-7.62 7.62s3.41 7.62 7.62 7.62c4.2 0 7.62-3.41 7.62-7.62zm1.95-.11c0 4.2 3.4 7.62 7.61 7.62s7.61-3.42 7.61-7.62-3.4-7.62-7.61-7.62-7.61 3.42-7.61 7.62zm34.51-186.54v186.36c0 10.3-8.35 18.63-18.649 18.63h-256.511c-10.29 0-18.64-8.33-18.64-18.63v-186.36c0-10.29 8.35-18.64 18.64-18.64h256.51c10.3 0 18.65 8.35 18.65 18.64zm-27.06 167.74v-160.07h-238.99v160.07z" fill="#7a7878"/><path d="m400.8 254.62c4.2 0 7.62 3.41 7.62 7.62s-3.42 7.62-7.62 7.62c-4.21 0-7.62-3.41-7.62-7.62s3.41-7.62 7.62-7.62z" fill="#231f20"/><path d="m395.66 492.72 6.96 17.09h-32.48l6.96-17.09z" fill="#231f20"/><path d="m370.24 513.9 6.97 17.08h-32.48l6.96-17.08z" fill="#231f20"/><path d="m344.3 492.98 6.95 17.09h-32.47l6.95-17.09z" fill="#231f20"/><path d="m318.88 514.17 6.96 17.08h-32.48l6.96-17.08z" fill="#231f20"/><path d="m287.28 492.85 6.95 17.09h-32.46l6.96-17.09z" fill="#231f20"/><path d="m261.86 514.03 6.96 17.09h-32.48l6.96-17.09z" fill="#231f20"/><path d="m232.03 492.59 6.96 17.09h-32.48l6.96-17.09z" fill="#231f20"/><path d="m206.61 513.77 6.97 17.09h-32.48l6.95-17.09z" fill="#231f20"/><path d="m178.2 492.72 6.96 17.09h-32.48l6.96-17.09z" fill="#231f20"/><path d="m152.78 513.9 6.95 17.08h-32.47l6.96-17.08z" fill="#231f20"/><path d="m126.83 492.98 6.96 17.09h-32.47l6.95-17.09z" fill="#231f20"/><path d="m101.41 514.17 6.96 17.08h-32.48l6.96-17.08z" fill="#231f20"/><g fill="none"><path d="m444.88 261.95c0 10.3-8.35 18.63-18.649 18.63h-256.511c-10.29 0-18.64-8.33-18.64-18.63v-186.36c0-10.29 8.35-18.64 18.64-18.64h256.51c10.3 0 18.649 8.35 18.649 18.64v186.36z" stroke="#231f20" stroke-width="14"/><path d="m178.83 83.26h238.99v160.07h-238.99z" stroke="#231f20" stroke-width="14"/><path d="m245.71 328.37v-47.24h105.23v47.24" stroke="#231f20" stroke-width="14"/><path d="m350.94 328.37h135.02v126h-375.27v-126h135.02z" stroke="#231f20" stroke-width="14"/><path d="m337.78 402.46h115.64v20.76h-115.64z" stroke="#231f20" stroke-width="14"/><path d="m381.41 356.05h72.01v20.78h-72.01z" stroke="#231f20" stroke-width="14"/><path d="m77.35 563.07c-8.67 0-17.54-1.37-15.7-15.7l14.77-57.2c2.25-10.93 7.03-15.71 15.7-15.71h400.15 8.811" stroke="#231f20" stroke-width="14"/><path d="m520.73 563.07c8.67 0 17.55-1.391 15.699-15.7l-14.779-57.2c-2.23-10.95-7.021-15.729-15.69-15.729h-13.69" stroke="#231f20" stroke-width="14"/><path d="m198.65 543.2h198.02" stroke="#231f20" stroke-width="17.959"/><path d="m520.73 563.07h15.55v31.39h-474.28v-31.39h15.35 417.69 7.89z" stroke="#231f20" stroke-width="14"/><path d="m752.42 681.61c-.07-.471-.17-.95-.3-1.42-5.47-20.5-54.561-36.551-114.33-36.551-61.39 0-111.53 16.94-114.69 38.23-.01.05-.02.1-.02.14-.09.66-.14 1.33-.14 2 0 22.3 51.42 40.38 114.85 40.38s114.84-18.08 114.84-40.38c0-.7-.05-1.39-.149-2.08" stroke="#231f20" stroke-width="14"/><path d="m752.42 681.61.061.319 8.18 40.12c0 23.78-54.83 43.05-122.44 43.05-67.62 0-122.43-19.27-122.43-43.05l7.29-40.04" stroke="#231f20" stroke-width="14"/><path d="m523.12 681.86c-.01 0-.01.01-.021.01-20.8 11.479-33.26 26.12-33.26 42.06 0 36.92 66.86 66.851 149.33 66.851 82.49 0 149.36-29.931 149.36-66.851 0-16.729-13.73-32.01-36.41-43.739-.01 0-.01-.011-.021-.011" stroke="#231f20" stroke-width="14"/><path d="m489.62 431.09s80.86 3.19 125.72 40.41c70.34 58.36 35.92 169.1 35.92 169.1" stroke="#231f20" stroke-width="21"/><path d="m0 0h850.394v850.394h-850.394z"/></g></svg>