<svg enable-background="new 0 0 850.394 850.394" height="850.394" viewBox="0 0 850.394 850.394" width="850.394" xmlns="http://www.w3.org/2000/svg"><path d="m680.66 764.9v-428.14h-260.26-.43-260.25v428.14h-56.18l.46-514.22h632l.83 514.22z" fill="#9e5c26"/><path d="m654.75 87.01 88.35 163.67h-7.1-632-4.59l95.14-163.67z" fill="#9e5c26"/><path d="m574.16 341.29h47.57v165.37h-47.57z" fill="#9e5c26"/><path d="m218.23 341.01h47.57v165.37h-47.57z" fill="#9e5c26"/><g fill="none"><path d="m104 250.68h-4.59l95.14-163.67h460.2l88.35 163.67h-7.1z" stroke="#231f20" stroke-width="21"/><path d="m736 250v.68l.83 514.22h-56.17v-428.14h-260.26-.43-260.25v428.14h-56.18l.46-514.22v-.68" stroke="#231f20" stroke-width="21"/><path d="m218.23 341.01h47.57v165.37h-47.57z" stroke="#231f20" stroke-width="21"/><path d="m574.16 341.29h47.57v165.37h-47.57z" stroke="#231f20" stroke-width="21"/><path d="m0 0h850.394v850.394h-850.394z"/></g></svg>