<svg enable-background="new 0 0 850.394 850.394" height="850.394" viewBox="0 0 850.394 850.394" width="850.394" xmlns="http://www.w3.org/2000/svg"><path d="m154.77 264.43-.55 2.23v378.65l-18.19 6.8-16.94-8.07-1.3-388.8z" fill="#f6cc4b"/><path d="m727.82 639.44-10.32 11.59-27.45-10.25v-378.66l-.52-2.03 36.96-9.38-1.31 390.09z" fill="#f6cc4b"/><path d="m419.2 727.64 1.65 3.72-2.62 1.16-35.13-16.59-4.88-395.99-223.45-55.51-36.98-9.19 1.3 388.8v1.3l-40.34-20.81v-451.25l341.3 70.35-1.13.25-.69.95z" fill="#f6cc4b"/><path d="m727.82 639.44-2.64 1.36 1.31-390.09-36.96 9.38-235.47 59.75-.7 397.07-32.51 14.45-1.65-3.72-.97-482.81.69-.95 1.13-.25 345.47-74.89v451.26z" fill="#f6cc4b"/><path d="m766.13 163.85-.61 4.89-345.47 74.89-341.3-70.35-.62-4.9 361.57-45.52z" fill="#f6cc4b"/><g fill="none"><path d="m418.23 244.83.97 482.81" stroke="#231f20" stroke-width="14"/><path d="m154.22 266.66v378.65l-18.19 6.8-9.26 3.46" stroke="#231f20" stroke-width="14"/><path d="m773.98 164.84-7.85-.99-326.43-40.99-361.57 45.52-7.83.99" stroke="#231f20" stroke-width="21"/><path d="m418.92 243.88 1.13-.25 345.47-74.89v451.26l-37.7 19.44-2.64 1.36 1.31-390.09-36.96 9.38-235.47 59.75-.7 397.07-32.51 14.45-2.62 1.16-35.13-16.59-4.88-395.99-223.45-55.51-36.98-9.19 1.3 388.8v1.3l-40.34-20.81v-451.25l341.3 70.35 1.1.23" stroke="#231f20" stroke-width="21"/><path d="m690.05 262.12v378.66l27.45 10.25" stroke="#231f20" stroke-width="14"/><path d="m0 0h850.394v850.394h-850.394z"/></g></svg>