<svg enable-background="new 0 0 850.394 850.394" height="850.394" viewBox="0 0 850.394 850.394" width="850.394" xmlns="http://www.w3.org/2000/svg"><path d="m477.94 646.69v10.699c0 3.37-2.73 6.101-6.101 6.101h-14.52c-3.38 0-6.11-2.73-6.11-6.101v-10.699c0-3.381 2.73-6.11 6.11-6.11h14.52c3.371 0 6.101 2.73 6.101 6.11z" fill="#ed1d31"/><path d="m278.5 601.55v10.71c0 3.37-2.73 6.11-6.11 6.11h-14.51c-3.38 0-6.11-2.74-6.11-6.11v-10.71c0-3.37 2.73-6.1 6.11-6.1h14.51c3.38 0 6.11 2.73 6.11 6.1z" fill="#ed1d31"/><path d="m410.92 529.24v10.689c0 3.38-2.74 6.11-6.12 6.11h-14.51c-3.37 0-6.11-2.73-6.11-6.11v-10.689c0-3.37 2.74-6.11 6.11-6.11h14.51c3.38 0 6.12 2.74 6.12 6.11z" fill="#ed1d31"/><path d="m617.56 359.14v10.69c0 3.38-2.739 6.11-6.109 6.11h-14.521c-3.37 0-6.109-2.73-6.109-6.11v-10.69c0-3.38 2.739-6.11 6.109-6.11h14.521c3.369 0 6.109 2.73 6.109 6.11z" fill="#ed1d31"/><path d="m564.87 561.86c28.27 0 51.18 15.399 51.18 34.38 0 18.99-22.91 34.38-51.18 34.38-28.26 0-51.18-15.39-51.18-34.38 0-18.98 22.92-34.38 51.18-34.38z" fill="#ee947d"/><path d="m372.89 583.27c28.27 0 51.18 15.391 51.18 34.381 0 18.979-22.91 34.38-51.18 34.38s-51.18-15.4-51.18-34.38c0-18.991 22.91-34.381 51.18-34.381z" fill="#ee947d"/><path d="m258.37 492.19c24.68 0 44.68 13.439 44.68 30.01 0 16.58-20 30.01-44.68 30.01s-44.69-13.43-44.69-30.01c0-16.57 20.01-30.01 44.69-30.01z" fill="#ee947d"/><path d="m357.76 422.36c24.69 0 44.69 13.44 44.69 30.01 0 16.58-20 30.02-44.69 30.02-24.68 0-44.68-13.439-44.68-30.02 0-16.57 20-30.01 44.68-30.01z" fill="#ee947d"/><path d="m572.97 429.72c0 6.07-.7 16.86-13.529 21.82-2.851-.38-5.69-.75-8.521-1.13 0 0 0 0-.01 0-22.43-2.94-44.24-5.71-63.17-8.05-.681-.08-1.36-.17-2.03-.25l.31-2.591c-1.56-3.069-2.43-6.359-2.43-9.8 0-16.57 20-30.01 44.7-30.01 24.68.001 44.68 13.441 44.68 30.011z" fill="#ee947d"/><path d="m653.71 464.63c-27.63-2.229-19.4 52.87-41.6 48.91-12.45-2.23-10.5-28.86-12.53-38.18-2.43-11.17-9.72-19.46-20.75-21.24 26.63 3.58 52.83 7.24 74.88 10.51z" fill="#fbee34"/><path d="m637.17 550.38c10.36 2.71 48.88 3.82 80.94 4.271-7.77 86.279-125.52 154.769-269.64 154.769-149.14 0-270.04-73.36-270.04-163.86s120.9-163.86 270.04-163.86c5.36 0 15.8.1 21.08.28-27.03 16.56-48.33 29.48-48.33 29.48-17.88 10.88-8.66 24.24 6.06 24.24 4.16 0 27.16 2.569 58.43 6.41.67.08 1.35.17 2.03.25 18.93 2.34 40.74 5.109 63.17 8.05-.87.2-112.771 26.26-118.48 31.979-5.729 5.73-3.05 16.801 15.28 25.2 18.33 8.411 171.89 38.211 189.46 42.791zm-21.12 45.86c0-18.98-22.91-34.38-51.18-34.38-28.26 0-51.18 15.399-51.18 34.38 0 18.99 22.92 34.38 51.18 34.38 28.27 0 51.18-15.39 51.18-34.38zm-138.11 61.15v-10.7c0-3.381-2.73-6.11-6.101-6.11h-14.52c-3.38 0-6.11 2.729-6.11 6.11v10.699c0 3.37 2.73 6.101 6.11 6.101h14.52c3.371 0 6.101-2.73 6.101-6.1zm-67.02-117.46v-10.69c0-3.37-2.74-6.11-6.12-6.11h-14.51c-3.37 0-6.11 2.74-6.11 6.11v10.689c0 3.38 2.74 6.11 6.11 6.11h14.51c3.38.001 6.12-2.729 6.12-6.109zm13.15 77.72c0-18.99-22.91-34.381-51.18-34.381s-51.18 15.391-51.18 34.381c0 18.979 22.91 34.38 51.18 34.38s51.18-15.4 51.18-34.38zm-21.62-165.28c0-16.57-20-30.01-44.69-30.01-24.68 0-44.68 13.44-44.68 30.01 0 16.58 20 30.02 44.68 30.02 24.69 0 44.69-13.44 44.69-30.02zm-99.4 69.83c0-16.57-20-30.01-44.68-30.01s-44.69 13.439-44.69 30.01c0 16.58 20.01 30.01 44.69 30.01s44.68-13.43 44.68-30.01zm-24.55 90.06v-10.71c0-3.37-2.73-6.1-6.11-6.1h-14.51c-3.38 0-6.11 2.729-6.11 6.1v10.71c0 3.37 2.73 6.11 6.11 6.11h14.51c3.38 0 6.11-2.74 6.11-6.11z" fill="#fbee34"/><path d="m577.39 453.93c-5.06-.68-10.13-1.359-15.189-2.029-.92-.12-1.84-.24-2.76-.36 12.829-4.96 13.529-15.75 13.529-21.82 0-16.57-20-30.01-44.68-30.01-24.7 0-44.7 13.44-44.7 30.01 0 3.44.87 6.73 2.43 9.8l-.31 2.591c-31.27-3.841-54.27-6.41-58.43-6.41-14.72 0-23.94-13.36-6.06-24.24 0 0 21.299-12.92 48.33-29.48 18.75-11.48 40.25-24.71 59.32-36.57 26.87-16.73 48.899-30.78 51.59-33.47.46-.46 1.04-1.03 1.71-1.7l3.811.4s64.93 37.94 92.72 79.62c38.069 57.13 36.35 80.49 32.46 84.391-5.391-1.881-27.62-5.591-57.45-10.021-22.05-3.27-48.25-6.93-74.88-10.51-.471-.082-.951-.142-1.441-.192zm40.17-84.1v-10.69c0-3.38-2.739-6.11-6.109-6.11h-14.521c-3.37 0-6.109 2.73-6.109 6.11v10.69c0 3.38 2.739 6.11 6.109 6.11h14.521c3.369 0 6.109-2.73 6.109-6.11z" fill="#fbee34"/><path d="m450.38 337.24c26.05 0 54.13 4.6 78.49 8.16v.01c-19.07 11.86-40.57 25.09-59.32 36.57-5.28-.18-15.72-.28-21.08-.28-149.14 0-270.04 73.359-270.04 163.859s120.9 163.86 270.04 163.86c144.12 0 261.87-68.49 269.641-154.77 22.3.319 41.47.319 45.859.319 10.7 0 21.57 11.07 21.57 21.74-2.36 14.11-7.31 33.09-17.71 53.6-31.2 61.552-111.39 137.022-317.45 137.022-168.8 0-308.65-79.08-333.38-182.3-2.56-10.67-3.89-21.61-3.89-32.74 0-26.55 7.55-51.98 21.36-75.46 47.92-81.55 171.29-139.59 315.91-139.59z" fill="#faa41f"/><path d="m619.02 276.71v-.01c6.03-4.77 11.021-8.04 13.37-8.04 7.79 0 56.38 33.62 90.141 76.03 33.76 42.41 63 92.791 48.34 107.46-20.84 20.83-39.811 29.42-59.71 22.5 3.89-3.9 5.609-27.261-32.46-84.391-27.79-41.68-92.72-79.62-92.72-79.62l-3.811-.4c6.87-6.789 24.16-23.489 36.85-33.529z" fill="#faa41f"/><path d="m619.02 276.71c-12.689 10.04-29.979 26.74-36.85 33.53-.67.67-1.25 1.24-1.71 1.7-2.69 2.69-24.72 16.74-51.59 33.47v-.01c-24.36-3.56-52.44-8.16-78.49-8.16-144.62 0-267.99 58.04-315.91 139.59h-58.84c-4.01 0-7.56-1.93-9.79-4.91-1.52-2.04-2.42-4.56-2.42-7.3l18.32-375.38c0-6.74 5.47-12.21 12.21-12.21h503.72c6.74 0 12.2 5.47 12.2 12.21l9.149 187.46v.01z" fill="#fbee34"/><path d="m65.84 471.92c2.23 2.98 5.78 4.91 9.79 4.91h58.84c-13.81 23.479-21.36 48.91-21.36 75.46 0 11.13 1.33 22.07 3.89 32.74l-5.38.08h-25.33c-5.83 0-10.55-4.73-10.55-10.561l-10.56-102.039z" fill="#fbee34"/><g fill="none"><path d="m134.47 476.83h-58.84c-4.01 0-7.56-1.93-9.79-4.91-1.52-2.04-2.42-4.56-2.42-7.3l18.32-375.38c0-6.74 5.47-12.21 12.21-12.21h503.72c6.74 0 12.2 5.47 12.2 12.21l9.149 187.46" stroke="#231f20" stroke-width="21"/><path d="m111.62 585.11h-25.33c-5.83 0-10.55-4.73-10.55-10.561l-10.56-102.039" stroke="#231f20" stroke-width="21"/><path d="m487.74 442.36c-.681-.08-1.36-.17-2.03-.25-31.27-3.841-54.27-6.41-58.43-6.41-14.72 0-23.94-13.36-6.06-24.24 0 0 21.299-12.92 48.33-29.48 18.75-11.48 40.25-24.71 59.32-36.57 26.87-16.73 48.899-30.78 51.59-33.47.46-.46 1.04-1.03 1.71-1.7 6.87-6.79 24.16-23.49 36.85-33.53v-.01c6.03-4.77 11.021-8.04 13.37-8.04 7.79 0 56.38 33.62 90.141 76.03 33.76 42.41 63 92.791 48.34 107.46-20.84 20.83-39.811 29.42-59.71 22.5-5.391-1.881-27.62-5.591-57.45-10.021-22.05-3.27-48.25-6.93-74.88-10.51-.48-.07-.96-.13-1.44-.19-5.06-.68-10.13-1.359-15.189-2.029" stroke="#231f20" stroke-width="21"/><path d="m550.91 450.41c-22.43-2.94-44.24-5.71-63.17-8.05" stroke="#231f20" stroke-width="21"/><path d="m562.2 451.9c-.92-.12-1.84-.24-2.76-.36-2.851-.38-5.69-.75-8.521-1.13" stroke="#231f20" stroke-width="21"/><path d="m585.98 310.64s64.93 37.94 92.72 79.62c38.069 57.13 36.35 80.49 32.46 84.391" stroke="#231f20" stroke-width="14"/><path d="m550.92 450.41s0 0-.01 0c-.87.2-112.771 26.26-118.48 31.979-5.729 5.73-3.05 16.801 15.28 25.2 18.33 8.41 171.89 38.21 189.46 42.79 10.36 2.71 48.88 3.82 80.94 4.271 22.3.319 41.47.319 45.859.319 10.7 0 21.57 11.07 21.57 21.74-2.36 14.11-7.31 33.09-17.71 53.6-31.199 61.551-111.389 137.021-317.449 137.021-168.8 0-308.65-79.08-333.38-182.3-2.56-10.67-3.89-21.61-3.89-32.74 0-26.55 7.55-51.98 21.36-75.46 47.92-81.55 171.29-139.59 315.91-139.59 26.05 0 54.13 4.6 78.49 8.16" stroke="#231f20" stroke-width="21"/><path d="m718.11 554.64v.011c-7.77 86.279-125.52 154.769-269.64 154.769-149.14 0-270.04-73.36-270.04-163.86s120.9-163.86 270.04-163.86c5.36 0 15.8.1 21.08.28" stroke="#231f20" stroke-width="14"/><path d="m424.07 617.65c0 18.979-22.91 34.38-51.18 34.38s-51.18-15.4-51.18-34.38c0-18.99 22.91-34.381 51.18-34.381s51.18 15.391 51.18 34.381z" stroke="#231f20" stroke-width="14"/><path d="m303.05 522.2c0 16.58-20 30.01-44.68 30.01s-44.69-13.43-44.69-30.01c0-16.57 20.01-30.01 44.69-30.01s44.68 13.44 44.68 30.01z" stroke="#231f20" stroke-width="14"/><path d="m402.45 452.37c0 16.58-20 30.02-44.69 30.02-24.68 0-44.68-13.439-44.68-30.02 0-16.57 20-30.01 44.68-30.01 24.69 0 44.69 13.44 44.69 30.01z" stroke="#231f20" stroke-width="14"/><path d="m486.02 439.52c-1.56-3.069-2.43-6.359-2.43-9.8 0-16.57 20-30.01 44.7-30.01 24.68 0 44.68 13.44 44.68 30.01 0 6.07-.7 16.86-13.529 21.82-.32.13-.641.24-.971.36" stroke="#231f20" stroke-width="14"/><path d="m616.05 596.24c0 18.99-22.91 34.38-51.18 34.38-28.26 0-51.18-15.39-51.18-34.38 0-18.98 22.92-34.38 51.18-34.38 28.27 0 51.18 15.4 51.18 34.38z" stroke="#231f20" stroke-width="14"/><path d="m410.92 539.93c0 3.38-2.74 6.11-6.12 6.11h-14.51c-3.37 0-6.11-2.73-6.11-6.11v-10.69c0-3.37 2.74-6.11 6.11-6.11h14.51c3.38 0 6.12 2.74 6.12 6.11z" stroke="#231f20" stroke-width="7"/><path d="m477.94 657.39c0 3.37-2.73 6.101-6.101 6.101h-14.52c-3.38 0-6.11-2.73-6.11-6.101v-10.7c0-3.381 2.73-6.11 6.11-6.11h14.52c3.37 0 6.101 2.729 6.101 6.11z" stroke="#231f20" stroke-width="7"/><path d="m278.5 612.26c0 3.37-2.73 6.11-6.11 6.11h-14.51c-3.38 0-6.11-2.74-6.11-6.11v-10.71c0-3.37 2.73-6.1 6.11-6.1h14.51c3.38 0 6.11 2.729 6.11 6.1z" stroke="#231f20" stroke-width="7"/><path d="m617.56 369.83c0 3.38-2.739 6.11-6.109 6.11h-14.521c-3.37 0-6.109-2.73-6.109-6.11v-10.69c0-3.38 2.739-6.11 6.109-6.11h14.521c3.37 0 6.109 2.73 6.109 6.11z" stroke="#231f20" stroke-width="7"/><path d="m577.05 453.89c.12.011.23.021.34.04.49.051.971.11 1.44.19 11.03 1.78 18.32 10.07 20.75 21.24 2.03 9.319.08 35.949 12.53 38.18 22.199 3.96 13.97-51.14 41.6-48.91.97.08 1.99.23 3.05.45" stroke="#231f20" stroke-width="20.4137"/><path d="m0 0h850.394v850.394h-850.394z"/></g></svg>