<svg enable-background="new 0 0 850.394 850.394" height="850.394" viewBox="0 0 850.394 850.394" width="850.394" xmlns="http://www.w3.org/2000/svg"><path d="m502.43 324.18 53.79 60.61-200.61 85.36-50.36-65.73z" fill="#fff5b4"/><path d="m667.09 453.98 32.55 39.23-3.55 2.95-36.91 16.9v-1.96l-34.27-34.27-1.53-3.45z" fill="#c8c8c8"/><path d="m659.18 511.1v1.96l-44.82 20.53v-1.4l-34.27-38.66-.35-.79 43.64-19.36 1.53 3.45z" fill="#c8c8c8"/><path d="m614.36 532.19v1.4l-46.57 21.32v-2.51l-30.75-37.78-1.09-2.45 43.79-19.43.35.79z" fill="#c8c8c8"/><path d="m567.79 552.4v2.51l-44.81 20.52v-6.33l-30.6-37.6 43.57-19.33 1.09 2.45z" fill="#c8c8c8"/><path d="m522.98 569.1v6.33l-44.82 20.52v-4.88l-30.76-37.79-.68-1.52 45.66-20.26z" fill="#c8c8c8"/><path d="m478.16 591.07v4.88l-43.06 19.72-33.39-43.94 45.01-19.97.68 1.52z" fill="#c8c8c8"/><path d="m478.16 627.1 1.42 3.15-43.6 19.69-.88-34.27 43.06-19.72z" fill="#c8c8c8"/><path d="m522.98 605.13 2.07 4.59-45.47 20.53-1.42-3.15v-31.15l44.82-20.52z" fill="#c8c8c8"/><path d="m567.79 588.43.75 1.66-43.49 19.63-2.07-4.59v-29.7l44.81-20.52z" fill="#c8c8c8"/><path d="m614.36 533.59v35.81l-45.82 20.69-.75-1.66v-33.52z" fill="#c8c8c8"/><path d="m659.18 548.01.43.96-45.25 20.43v-35.81l44.82-20.53z" fill="#c8c8c8"/><path d="m701.36 495.28-2.64 36.03-39.11 17.66-.43-.96v-34.95l36.91-16.9 3.55-2.95z" fill="#c8c8c8"/><path d="m516.1 289.18 94.75 107.56-268.89 115.24-89.64-116.95zm40.12 95.61-53.79-60.61-197.18 80.24 50.36 65.73z" fill="#c8c8c8"/><path d="m407.86 681.49v36.99l-.13.42c-6.2-1.95-8.66-6.57-8.66-6.57l-322.49-434.97 2.48-71.28 2.79.1 326.01 422.67z" fill="#797878"/><path d="m698.72 531.31 2.641-36.029-1.721-2.07-32.55-39.229-43.71 19.399-43.64 19.36-43.79 19.43-43.57 19.33-45.66 20.26-45.01 19.971 33.39 43.939.881 34.271 43.6-19.69 45.47-20.53 43.49-19.63 45.82-20.689 45.25-20.431zm36.03 32.59v6.08l-301.41 138.84-3.42 2.529-22.06-29.859v-52.64l-326.01-422.67-2.79-.1.15-4.29 305.8-115.12 344.47 397.19 5.27 36.029zm-123.9-167.16-94.75-107.56-263.78 105.85 89.64 116.951z" fill="#797878"/><g fill="none"><path d="m426.31 716.73c-8.25 3.59-14.31 3.51-18.58 2.17-6.2-1.95-8.66-6.57-8.66-6.57l-322.49-434.97 2.48-71.28.15-4.29 305.8-115.12 344.47 397.19 5.27 36.029v44.011 6.08" stroke="#231f20" stroke-width="21"/><path d="m81.85 206.18 326.01 422.67v52.64 36.99" stroke="#231f20" stroke-width="21"/><path d="m252.32 395.03 263.78-105.85 94.75 107.56-268.89 115.24z" stroke="#231f20" stroke-width="21"/><path d="m479.58 630.25-43.6 19.69-.88-34.27-33.39-43.94 45.01-19.97 45.66-20.26 43.57-19.33 43.79-19.43 43.64-19.36 43.71-19.4 32.55 39.23 1.72 2.07-2.64 36.03-39.11 17.66-45.25 20.43-45.82 20.69-43.49 19.63z" stroke="#231f20" stroke-width="21"/><path d="m435.1 615.67 43.06-19.72 44.82-20.52 44.81-20.52 46.57-21.32 44.82-20.53 36.91-16.9" stroke="#231f20" stroke-width="21"/><path d="m305.25 404.42 197.18-80.24 53.79 60.61-200.61 85.36z" stroke="#231f20" stroke-width="21"/><path d="m624.91 476.83 34.27 34.27v1.96 34.95" stroke="#231f20" stroke-width="21"/><path d="m580.09 493.53 34.27 38.66v1.4 35.81 1.46" stroke="#231f20" stroke-width="21"/><path d="m537.04 514.62 30.75 37.78v2.51 33.52" stroke="#231f20" stroke-width="21"/><path d="m492.22 531.31.16.19 30.6 37.6v6.33 29.7" stroke="#231f20" stroke-width="21"/><path d="m447.4 553.28 30.76 37.79v4.88 31.15" stroke="#231f20" stroke-width="21"/><path d="m132.56 190.71 121.52 155.19" stroke="#231f20" stroke-linecap="round" stroke-linejoin="round" stroke-width="21"/><path d="m352.96 110.56 115.24 147.17" stroke="#231f20" stroke-linecap="round" stroke-linejoin="round" stroke-width="21"/><path d="m170.93 178.11 121.52 155.19" stroke="#231f20" stroke-linecap="round" stroke-linejoin="round" stroke-width="21"/><path d="m206.34 162.24 120.09 154.07" stroke="#231f20" stroke-linecap="round" stroke-linejoin="round" stroke-width="21"/><path d="m243.58 146.48 121.52 155.19" stroke="#231f20" stroke-linecap="round" stroke-linejoin="round" stroke-width="21"/><path d="m277.56 134.76 121.52 155.19" stroke="#231f20" stroke-linecap="round" stroke-linejoin="round" stroke-width="21"/><path d="m312.96 119.48 117.75 151.73" stroke="#231f20" stroke-linecap="round" stroke-linejoin="round" stroke-width="21"/><path d="m433.34 708.82 301.41-138.84" stroke="#231f20" stroke-width="21"/><path d="m407.28 680.7.58.79 22.06 29.859 25.39 34.381s9.671 20.21 41.301 7.02c62.87-26.19 212.46-100.56 236.87-112.73 20.02-9.989 49.63-18.55 35.539-35.77l-34.27-40.35-35.14-41.37" stroke="#231f20" stroke-width="28"/><path d="m0 0h850.394v850.394h-850.394z"/></g></svg>