<svg enable-background="new 0 0 850.394 850.394" height="850.394" viewBox="0 0 850.394 850.394" width="850.394" xmlns="http://www.w3.org/2000/svg"><path d="m279.08 612.14v-39.38l.48-.59v39.4z" fill="#231f20"/><path d="m278.92 612.33v-39.38l.16-.19v39.38z" fill="#231f20"/><path d="m278.92 612.33v18.02h-15.7-39.39-18.34v-34.07l32.43-39.21h3.5l28.58 22.93 1.83 1.52 7.09-8.57z" fill="#231f20"/><path d="m278.92 557.07h-37.5l-.2-.16h37.55v-.16h.31v.32z" fill="#231f20"/><path d="m258.79 535.99h-43.64l-10.61-8.51v-9.1h32.95z" fill="#231f20"/><path d="m204.54 535.99v-8.51l10.61 8.51z" fill="#231f20"/><path d="m278.77 552.51v4.24h-37.75l-25.87-20.76h43.64z" fill="#231f20"/><path d="m278.77 556.75v.16h-37.55l-.2-.16z" fill="#231f20"/><path d="m241.42 557.07h-3.5l.13-.16h3.17z" fill="#231f20"/><path d="m278.92 557.07v15.88l-7.09 8.57-1.83-1.52-28.58-22.93z" fill="#231f20"/><path d="m204.54 527.48v8.51h-46.87v-17.61h46.87z" fill="#ed1e29"/><path d="m204.54 535.99h10.61l25.87 20.76h-2.84-33.33v.16h-.31z" fill="#231f20"/><path d="m241.22 556.91h-3.17l.13-.16h2.84z" fill="#231f20"/><path d="m630.07 610.89v-39.39l.49-.59v39.4z" fill="#231f20"/><path d="m609.8 534.74h-44.19l-10.08-8.32v-9.3h32.96z" fill="#231f20"/><path d="m629.76 551.25v4.25h-39.01l-25.14-20.76h44.19z" fill="#231f20"/><path d="m589.05 555.66h1.89l.2.16h-2.22z" fill="#231f20"/><path d="m555.53 534.74h10.08l25.14 20.76h-1.57-33.34v.16h-.31z" fill="#231f20"/><path d="m629.93 555.82h-38.79l-.2-.16h38.82v-.16h.31v.32z" fill="#231f20"/><path d="m589.18 555.5h1.57l.19.16h-1.89z" fill="#231f20"/><path d="m565.61 534.74h-10.08v-8.32z" fill="#231f20"/><path d="m614.21 629.09h-39.38-18.34v-34.06l32.43-39.21h2.22l26.86 22.18 3.97 3.29 7.96-9.62v39.39 18.03z" fill="#231f20"/><path d="m630.07 571.5v39.39l-.14.17v-39.39z" fill="#231f20"/><path d="m629.76 555.5v.16h-38.82l-.19-.16z" fill="#231f20"/><path d="m629.93 555.82v15.85l-7.96 9.62-3.97-3.29-26.86-22.18z" fill="#231f20"/><path d="m555.53 526.42v8.32h-46.86v-17.62h46.86z" fill="#ed1e29"/><path d="m624.15 231.43 5.78-6.99v39.39 18.03h-15.72-39.39-18.33v-34.06l32.43-39.21h5.72l25.36 19.41z" fill="#231f20"/><path d="m630.07 224.27v39.39l-.14.17v-39.39z" fill="#231f20"/><path d="m629.76 208.27v.16h-35.33l-.21-.16z" fill="#231f20"/><path d="m594.43 208.43h-5.38l.13-.16h5.04z" fill="#231f20"/><path d="m629.93 208.59v15.85l-5.78 6.99-4.15-3.43-25.36-19.41z" fill="#231f20"/><path d="m555.53 208.43v-20.92h11.56l27.13 20.76h-5.04-33.34v.16z" fill="#231f20"/><path d="m589.05 208.43h5.38l.21.16h-5.72z" fill="#231f20"/><path d="m629.76 204.02v4.25h-35.54l-27.13-20.76h42.71z" fill="#231f20"/><path d="m555.53 178.66v8.85h-46.86v-17.61h46.86z" fill="#ed1e29"/><path d="m609.8 187.51h-42.71l-11.56-8.85v-8.76h32.97z" fill="#231f20"/><path d="m630.07 263.66v-39.39l.49-.59v39.4z" fill="#231f20"/><path d="m629.76 208.43v-.16h.31v.32h-.14-35.29l-.21-.16z" fill="#231f20"/><path d="m555.53 187.51v-8.85l11.56 8.85z" fill="#231f20"/><path d="m204.85 209.52h34.06l.2.17h-1.06-33.2z" fill="#231f20"/><path d="m239.3 209.85h39.62v15.87l-8.5 10.28-2.42-2z" fill="#231f20"/><path d="m204.54 180.6 9.7 8.17h-9.7z" fill="#231f20"/><path d="m204.54 180.6v8.17h-46.87v-17.62h46.87z" fill="#ed1e29"/><path d="m223.82 283.12h-18.33v-34.06l32.43-39.21h1.38l28.7 24.15 2.42 2 8.5-10.28v39.38 18.02h-15.7z" fill="#231f20"/><path d="m239.11 209.69h39.66v-.17h.31v.33h-.16-39.62z" fill="#231f20"/><path d="m239.3 209.85h-1.38l.13-.16h1.06z" fill="#231f20"/><path d="m204.54 180.6v-9.45h32.95l21.31 17.62h-44.56z" fill="#231f20"/><path d="m278.92 265.1v-39.38l.16-.19v39.38z" fill="#231f20"/><path d="m279.08 264.91v-39.38l.48-.59v39.4z" fill="#231f20"/><path d="m238.91 209.52h39.86v.17h-39.66z" fill="#231f20"/><path d="m204.54 209.69v-20.92h9.7l24.67 20.75h-34.06v.17z" fill="#231f20"/><path d="m278.77 209.52h-39.86l-24.67-20.75h44.56l19.97 16.51z" fill="#231f20"/><path d="m136.14 210.16-46.4 55.25v-35.7l14.71-19.55z" fill="#231f20"/><path d="m140.05 188.77v16.73l-3.91 4.66h-31.69l16.1-21.39z" fill="#34a047"/><path d="m89.74 210.16h14.71l-14.71 19.55z" fill="#231f20"/><path d="m84.08 237.24v-143.61h55.97v2.67 74.85 17.62h-19.5l-16.1 21.39h-14.71v19.55z" fill="#34a047"/><path d="m487.13 556.13-46.39 55.25v-39.15l13.24-16.1z" fill="#231f20"/><path d="m491.05 534.74v16.72l-3.92 4.67h-33.15l17.58-21.39z" fill="#34a047"/><path d="m440.74 572.23v-16.1h13.24z" fill="#231f20"/><path d="m435.08 578v-138.4h55.97v2.67 74.85 17.62h-19.49l-17.58 21.39h-13.24v16.1l-4.74 5.77z" fill="#34a047"/><path d="m745.67 595.18v34.87h-29.14z" fill="#231f20"/><path d="m716.53 630.05h29.14v-34.87l1.4-1.67v151.95h-152.33l-.8-.62h36.13v-4.41-32.29-32.66-33.28-12.15h.49 17.03 32.3z" fill="#34a047"/><path d="m716.53 630.05h-36.64l61.37-74.23h4.41v39.36z" fill="#231f20"/><path d="m747.07 534.74v58.77l-1.4 1.67v-39.36h-4.41-32.28-32.67-33.27l17.44-21.08z" fill="#34a047"/><path d="m574.51 439.91h43.68l11.57 10.81v35.58z" fill="#231f20"/><path d="m629.76 439.91v10.81l-11.57-10.81z" fill="#231f20"/><path d="m629.76 486.3v-35.58-10.81h-11.57l-.34-.31h129.22v77.52h-1.26-116.05z" fill="#34a047"/><path d="m630.07 740.43v4.41h-36.13l-38.1-29.66v-36.14z" fill="#231f20"/><path d="m593.94 744.84h-38.1v-29.66z" fill="#231f20"/><path d="m555.84 744.84h38.1l.8.62h-86.07v-2.51-112.59h18.6 28.57v16.4 32.28 36.14z" fill="#ed1e29"/><path d="m394.67 557.07v38.95l-29.2 35.28h-.01-36.57l61.38-74.23z" fill="#231f20"/><path d="m396.07 746.71h-191.22v-.62h35.15 39.08v-4.4-32.29-32.67-33.27-12.16h.48 17.03 32.3 36.57.01 29.2v-35.28l1.4-1.69z" fill="#34a047"/><path d="m394.67 596.02v35.28h-29.2z" fill="#231f20"/><path d="m390.27 557.07h-32.29-32.67-33.26l17.43-21.08h86.59v58.34l-1.4 1.69v-38.95z" fill="#34a047"/><path d="m240 746v.09h-35.15v-29.21z" fill="#231f20"/><path d="m279.08 746.09h-39.08v-.09l-35.15-29.12v-36.57l74.23 61.38z" fill="#231f20"/><path d="m204.85 716.88v29.21.62h-47.18v-2.5-112.6h18.61 28.57v16.4 32.3z" fill="#ed1e29"/><path d="m101.81 557.38-12.07 13.78v-13.78z" fill="#231f20"/><path d="m89.74 612.64v-41.48l12.07-13.78h34.33z" fill="#231f20"/><path d="m120.55 535.99h19.5v16.73l-3.91 4.66h-34.33z" fill="#34a047"/><path d="m89.74 557.38v13.78l-5.66 6.47v-136.78h55.97v2.67 74.86 17.61h-19.5l-18.74 21.39z" fill="#34a047"/><path d="m278.77 454.74v32.81l-55.25-46.38h38.41z" fill="#231f20"/><path d="m278.77 441.17v13.57l-16.84-13.57z" fill="#231f20"/><path d="m278.77 487.55v-32.81-13.57h-16.84l-.39-.32h134.53v77.53h-1.27-116.03z" fill="#34a047"/><path d="m440.74 225.66v-16.76h13.54z" fill="#231f20"/><path d="m440.74 208.9v16.76l-5.66 7v-140.29h55.97v2.67 74.86 17.61h-19.49l-17.28 21.39z" fill="#34a047"/><path d="m491.05 187.51v16.73l-3.91 4.66h-32.86l17.28-21.39z" fill="#34a047"/><path d="m487.14 208.9-46.4 55.26v-38.5l13.54-16.76z" fill="#231f20"/><path d="m629.76 92.68h-16.47l-.38-.31h134.16v77.53h-1.26-116.05v-30.83-33z" fill="#34a047"/><path d="m629.76 106.07v33l-55.25-46.39h38.78z" fill="#231f20"/><path d="m613.29 92.68h16.47v13.39z" fill="#231f20"/><path d="m594.87 397.61h-39.03v-29.79z" fill="#231f20"/><path d="m630.07 393.2v4.41h-35.2l-39.03-29.79v-36.01z" fill="#231f20"/><path d="m555.84 397.61h39.03l.81.62h-87.01v-2.51-112.59h18.61 28.56v16.4 32.28 36.01z" fill="#ed1e29"/><path d="m747.07 398.23h-151.39l-.81-.62h35.2v-4.41-32.28-32.67-33.27-12.15h.49v-.01h17.03 32.31 36.16 29.61v-37.84l1.4-1.79z" fill="#34a047"/><path d="m708.98 208.59h-32.66-33.27l17.43-21.08h86.59v55.68l-1.4 1.79v-36.39h-4.4z" fill="#34a047"/><path d="m745.67 282.82h-29.61l29.61-37.84z" fill="#231f20"/><path d="m745.67 208.59v36.39l-29.61 37.84h-36.16l61.37-74.23z" fill="#231f20"/><path d="m394.67 209.85v38.63l-29.26 35.6h-36.53l61.38-74.23z" fill="#231f20"/><path d="m394.67 284.08h-29.26l29.26-35.6z" fill="#231f20"/><path d="m328.88 284.08h36.53 29.26v-35.6l1.4-1.7v152.71h-191.22v-.62h74.23v-4.41-32.28-32.68-33.27-12.15h.48 17.03z" fill="#34a047"/><path d="m394.67 209.85h-4.41-32.28-32.67-33.27l17.44-21.08h86.59v58.01l-1.4 1.7z" fill="#34a047"/><path d="m278.77 93.94v12.16l-13.95-12.16z" fill="#231f20"/><path d="m223.51 93.94h41.31l13.95 12.16v34.22z" fill="#231f20"/><path d="m278.77 93.94h-13.95l-.36-.31h131.61v77.52h-1.27-116.03v-30.83-34.22z" fill="#34a047"/><path d="m660.48 534.74h-30.72v-15.79-1.83h116.05 1.26v17.62z" fill="#34a047"/><path d="m629.76 171.73v-1.83h116.05 1.26v17.61h-86.59-30.72z" fill="#34a047"/><path d="m741.27 208.59-61.37 74.23h-32.31l61.39-74.23z" fill="#231f20"/><path d="m741.26 555.82-61.37 74.23h-32.3l61.39-74.23z" fill="#231f20"/><path d="m708.98 208.59-61.39 74.23h-17.03v-19.74l45.76-54.49z" fill="#231f20"/><path d="m708.98 555.82-61.39 74.23h-17.03v-19.74l45.75-54.49z" fill="#231f20"/><path d="m676.32 208.59-45.76 54.49v-39.4l12.49-15.09z" fill="#231f20"/><path d="m676.31 555.82-45.75 54.49v-39.4l12.48-15.09z" fill="#231f20"/><path d="m629.76 204.02v-16.51h30.72l-17.43 21.08h-12.49-.49v-.32h-.31z" fill="#34a047"/><path d="m629.76 551.25v-16.51h30.72l-17.44 21.08h-12.48-.49v-.32h-.31z" fill="#34a047"/><path d="m643.05 208.59-12.49 15.09v-15.09z" fill="#231f20"/><path d="m643.04 555.82-12.48 15.09v-15.09z" fill="#231f20"/><path d="m630.56 610.31v19.74h-.49v-.32-.64-18.2z" fill="#231f20"/><path d="m630.56 555.82v15.09l-.49.59v-15.68z" fill="#231f20"/><path d="m630.07 282.82h.489v.01h-.489z" fill="#231f20"/><path d="m630.56 263.08v19.74h-.49v-.32-.64-18.2z" fill="#231f20"/><path d="m630.56 208.59v15.09l-.49.59v-15.68z" fill="#231f20"/><path d="m630.07 708.14v32.29l-74.23-61.39v-32.28z" fill="#231f20"/><path d="m630.07 675.48v32.66l-74.23-61.38v-16.4h.65v-.31h19.49z" fill="#231f20"/><path d="m630.07 642.2v33.28l-54.09-45.43h39.39z" fill="#231f20"/><path d="m630.07 630.05v12.15l-14.7-12.15h14.56z" fill="#231f20"/><path d="m629.93 629.73h.141v.319h-.141z" fill="#231f20"/><path d="m629.93 629.09h.141v.641h-.141z" fill="#231f20"/><path d="m630.07 610.89v18.2h-.14v-18.03z" fill="#231f20"/><path d="m630.07 555.82v15.68l-.14.17v-15.85z" fill="#231f20"/><path d="m630.07 360.92v32.28l-74.23-61.39v-32.28z" fill="#231f20"/><path d="m630.07 328.25v32.67l-74.23-61.39v-16.4h.65v-.3h19.49z" fill="#231f20"/><path d="m630.07 294.98v33.27l-54.09-45.42h39.4z" fill="#231f20"/><path d="m630.07 282.83v12.15l-14.69-12.15z" fill="#231f20"/><path d="m630.07 282.82v.01h-14.69l-.4-.33h14.95v.32z" fill="#231f20"/><path d="m629.93 282.5h.141v.32h-.141z" fill="#231f20"/><path d="m629.93 281.86h.141v.64h-.141z" fill="#231f20"/><path d="m630.07 263.66v18.2h-.14v-18.03z" fill="#231f20"/><path d="m630.07 208.59v15.68l-.14.17v-15.85z" fill="#231f20"/><path d="m629.93 629.73v.32h-14.56l-.38-.32z" fill="#231f20"/><path d="m629.93 629.09v.64h-14.94l-.78-.64z" fill="#231f20"/><path d="m629.93 281.86v.64h-14.95l-.77-.64z" fill="#231f20"/><path d="m629.76 534.74v16.51l-19.96-16.51z" fill="#231f20"/><path d="m629.76 518.95v15.79h-19.96l-21.31-17.62h39.06z" fill="#231f20"/><path d="m629.76 517.12v1.83l-2.21-1.83z" fill="#231f20"/><path d="m629.76 486.3v30.82h-2.21l-72.02-59.55v-17.66h18.98z" fill="#231f20"/><path d="m629.76 187.51v16.51l-19.96-16.51z" fill="#231f20"/><path d="m629.76 171.73v15.78h-19.96l-21.3-17.61h39.05z" fill="#231f20"/><path d="m629.76 169.9v1.83l-2.21-1.83z" fill="#231f20"/><path d="m629.76 139.07v30.83h-2.21l-72.02-59.55v-17.67h18.98z" fill="#231f20"/><path d="m627.55 169.9h-39.05l-32.97-27.27v-32.28z" fill="#231f20"/><path d="m627.55 517.12h-39.06l-32.96-27.26v-32.29z" fill="#231f20"/><path d="m615.38 282.83h-39.4l-.4-.33h39.4z" fill="#231f20"/><path d="m614.99 629.73.38.32h-39.39l-.39-.32z" fill="#231f20"/><path d="m614.99 629.73h-39.4l-.76-.64h39.38z" fill="#231f20"/><path d="m614.98 282.5h-39.4l-.76-.64h39.39z" fill="#231f20"/><path d="m589.18 208.27-.13.16h-33.21v-.16z" fill="#231f20"/><path d="m589.18 555.5-.13.16h-33.21v-.16z" fill="#231f20"/><path d="m589.05 208.43-.13.16h-32.59v.31h-.49v-.47z" fill="#231f20"/><path d="m589.05 555.66-.13.16h-32.59v.31h-.49v-.47z" fill="#231f20"/><path d="m588.92 208.59-32.43 39.21v-38.9h-.16v-.31z" fill="#231f20"/><path d="m588.92 555.82-32.43 39.21v-38.9h-.16v-.31z" fill="#231f20"/><path d="m555.53 142.63 32.97 27.27h-32.97z" fill="#231f20"/><path d="m555.53 489.86 32.96 27.26h-32.96z" fill="#231f20"/><path d="m575.98 282.83h-19.49v-.33h19.09z" fill="#231f20"/><path d="m575.98 630.05h-19.49v-.32h19.1z" fill="#231f20"/><path d="m574.83 629.09.76.64h-19.1v-.64z" fill="#231f20"/><path d="m574.82 281.86.76.64h-19.09v-.64z" fill="#231f20"/><path d="m555.53 142.63v27.27h-46.86v-76.11-1.42h65.47l.37.31h-18.98v17.67z" fill="#ed1e29"/><path d="m555.53 457.57v32.29 27.26h-46.86v-76.1-1.42h65.47l.37.31h-18.98z" fill="#ed1e29"/><path d="m556.49 630.05v.31h-.65v-.63h.49v.32z" fill="#231f20"/><path d="m556.33 629.73h.16v.319h-.16z" fill="#231f20"/><path d="m556.33 629.09h.16v.641h-.16z" fill="#231f20"/><path d="m556.49 595.03v34.06h-.16v-33.87z" fill="#231f20"/><path d="m556.49 556.13v38.9l-.16.19v-39.09z" fill="#231f20"/><path d="m556.49 282.83v.3h-.65v-.63h.49v.33z" fill="#231f20"/><path d="m556.33 282.5h.16v.33h-.16z" fill="#231f20"/><path d="m556.33 281.86h.16v.64h-.16z" fill="#231f20"/><path d="m556.49 247.8v34.06h-.16v-33.86z" fill="#231f20"/><path d="m556.49 208.9v38.9l-.16.2v-39.1z" fill="#231f20"/><path d="m555.84 629.09h.49v.641h-.49z" fill="#231f20"/><path d="m556.33 595.22v33.87h-.49v-33.28z" fill="#231f20"/><path d="m556.33 556.13v39.09l-.49.59v-39.68z" fill="#231f20"/><path d="m555.84 281.86h.49v.64h-.49z" fill="#231f20"/><path d="m556.33 248v33.86h-.49v-33.27z" fill="#231f20"/><path d="m556.33 208.9v39.1l-.49.59v-39.69z" fill="#231f20"/><path d="m555.84 629.73v.63h-28.57l28.57-34.55v33.28z" fill="#231f20"/><path d="m555.84 556.13v39.68l-28.57 34.55h-18.6v-21.72l43.42-52.51z" fill="#231f20"/><path d="m552.09 556.13h-32.29-11.13v-21.39h46.86v20.92h.31v.47z" fill="#ed1e29"/><path d="m555.84 282.5v.63h-28.56l28.56-34.54v33.27z" fill="#231f20"/><path d="m555.84 208.9v39.69l-28.56 34.54h-18.61v-21.71l43.42-52.52z" fill="#231f20"/><path d="m552.09 208.9h-32.29-11.13v-21.39h46.86v20.92h.31v.47z" fill="#ed1e29"/><path d="m552.09 208.9-43.42 52.52v-39.07l11.13-13.45z" fill="#231f20"/><path d="m552.09 556.13-43.42 52.51v-39.06l11.13-13.45z" fill="#231f20"/><path d="m519.8 208.9-11.13 13.45v-13.45z" fill="#231f20"/><path d="m519.8 556.13-11.13 13.45v-13.45z" fill="#231f20"/><path d="m508.67 742.95v2.51h-17.62v-1.25-113.85h17.62z" fill="#fbed24"/><path d="m508.67 608.64v21.72h-17.62v-.41z" fill="#231f20"/><path d="m508.67 569.58v39.06l-17.62 21.31v-39.07z" fill="#231f20"/><path d="m508.67 556.13v13.45l-17.62 21.3v-34.75z" fill="#231f20"/><path d="m491.05 551.46v-16.72h17.62v21.39h-17.62z" fill="#fbed24"/><path d="m491.05 517.12h17.62v17.62h-17.62z" fill="#fbed24"/><path d="m508.67 441.02v76.1h-17.62v-74.85-2.67h17.62z" fill="#fbed24"/><path d="m508.67 395.72v2.51h-17.62v-1.25-113.85h17.62z" fill="#fbed24"/><path d="m508.67 261.42v21.71h-17.62v-.4z" fill="#231f20"/><path d="m508.67 222.35v39.07l-17.62 21.31v-39.07z" fill="#231f20"/><path d="m508.67 208.9v13.45l-17.62 21.31v-34.76z" fill="#231f20"/><path d="m491.05 204.24v-16.73h17.62v21.39h-17.62z" fill="#fbed24"/><path d="m491.05 169.9h17.62v17.61h-17.62z" fill="#fbed24"/><path d="m508.67 93.79v76.11h-17.62v-74.86-2.67h17.62z" fill="#fbed24"/><path d="m490.71 630.36h.34v113.85 1.25h-55.97v-129.58h1.88l3.78-4.5v18.98h17.66z" fill="#34a047"/><path d="m491.05 629.95v.41h-.34z" fill="#231f20"/><path d="m491.05 590.88v39.07l-.34.41h-32.31z" fill="#231f20"/><path d="m491.05 556.13v34.75l-32.65 39.48h-17.66v-18.98l46.39-55.25z" fill="#231f20"/><path d="m490.72 283.13h.33v113.85 1.25h-55.97v-129.57h1.88l3.78-4.5v18.97h17.66z" fill="#34a047"/><path d="m491.05 282.73v.4h-.33z" fill="#231f20"/><path d="m491.05 243.66v39.07l-.33.4h-32.32z" fill="#231f20"/><path d="m491.05 208.9v34.76l-32.65 39.47h-17.66v-18.97l46.4-55.26z" fill="#231f20"/><path d="m309.48 535.99h-30.71v-15.77-1.84h116.03 1.27v17.61z" fill="#34a047"/><path d="m278.77 173v-1.85h116.03 1.27v17.62h-86.59-30.71z" fill="#34a047"/><path d="m390.27 557.07-61.38 74.23h-32.3l61.39-74.23z" fill="#231f20"/><path d="m390.26 209.85-61.38 74.23h-32.29l61.39-74.23z" fill="#231f20"/><path d="m357.98 209.85-61.39 74.23h-17.03v-19.74l45.75-54.49z" fill="#231f20"/><path d="m357.98 557.07-61.39 74.23h-17.03v-19.73l45.75-54.5z" fill="#231f20"/><path d="m325.31 209.85-45.75 54.49v-39.4l12.48-15.09z" fill="#231f20"/><path d="m325.31 557.07-45.75 54.5v-39.4l12.49-15.1z" fill="#231f20"/><path d="m278.77 552.51v-16.52h30.71l-17.43 21.08h-12.49-.48v-.32h-.31z" fill="#34a047"/><path d="m278.77 205.28v-16.51h30.71l-17.44 21.08h-12.48-.48v-.33h-.31z" fill="#34a047"/><path d="m292.05 557.07-12.49 15.1v-15.1z" fill="#231f20"/><path d="m292.04 209.85-12.48 15.09v-15.09z" fill="#231f20"/><path d="m279.56 611.57v19.73h-.48v-.32-.63-18.21z" fill="#231f20"/><path d="m279.56 557.07v15.1l-.48.59v-15.69z" fill="#231f20"/><path d="m279.56 264.34v19.74h-.48v-.33-.63-18.21z" fill="#231f20"/><path d="m279.56 209.85v15.09l-.48.59v-15.68z" fill="#231f20"/><path d="m279.08 709.4v32.29l-74.23-61.38v-32.3z" fill="#231f20"/><path d="m279.08 676.73v32.67l-74.23-61.39v-16.4h.64v-.31h19.48z" fill="#231f20"/><path d="m279.08 643.46v33.27l-54.11-45.43h39.4z" fill="#231f20"/><path d="m279.08 631.3v12.16l-14.71-12.16h14.55z" fill="#231f20"/><path d="m278.92 630.98h.16v.319h-.16z" fill="#231f20"/><path d="m278.92 630.35h.16v.631h-.16z" fill="#231f20"/><path d="m279.08 612.14v18.21h-.16v-18.02z" fill="#231f20"/><path d="m279.08 557.07v15.69l-.16.19v-15.88z" fill="#231f20"/><path d="m204.85 370.44v-37.36l74.23 61.38v4.41h-74.23z" fill="#231f20"/><path d="m279.08 362.18v32.28l-74.23-61.38v-32.29z" fill="#231f20"/><path d="m279.08 329.5v32.68l-74.23-61.39v-16.4h.64v-.31h19.48z" fill="#231f20"/><path d="m279.08 296.23v33.27l-54.11-45.42h39.41z" fill="#231f20"/><path d="m279.08 284.08v12.15l-14.7-12.15h14.54z" fill="#231f20"/><path d="m278.92 283.75h.16v.33h-.16z" fill="#231f20"/><path d="m278.92 283.12h.16v.63h-.16z" fill="#231f20"/><path d="m279.08 264.91v18.21h-.16v-18.02z" fill="#231f20"/><path d="m279.08 209.85v15.68l-.16.19v-15.87z" fill="#231f20"/><path d="m278.92 630.98v.32h-14.55l-.38-.32z" fill="#231f20"/><path d="m278.92 630.35v.63h-14.93l-.77-.63z" fill="#231f20"/><path d="m278.92 283.75v.33h-14.54l-.39-.33z" fill="#231f20"/><path d="m278.92 283.12v.63h-14.93l-.77-.63z" fill="#231f20"/><path d="m278.77 535.99v16.52l-19.98-16.52z" fill="#231f20"/><path d="m278.77 520.22v15.77h-19.98l-21.3-17.61h39.06z" fill="#231f20"/><path d="m278.77 518.38v1.84l-2.22-1.84z" fill="#231f20"/><path d="m278.77 487.55v30.83h-2.22l-72.01-59.55v-17.66h18.98z" fill="#231f20"/><path d="m278.77 188.77v16.51l-19.97-16.51z" fill="#231f20"/><path d="m278.77 173v15.77h-19.97l-21.31-17.62h39.05z" fill="#231f20"/><path d="m278.77 171.15v1.85l-2.23-1.85z" fill="#231f20"/><path d="m278.77 140.32v30.83h-2.23l-72-59.54v-17.67h18.97z" fill="#231f20"/><path d="m276.55 518.38h-39.06l-32.95-27.25v-32.3z" fill="#231f20"/><path d="m276.54 171.15h-39.05l-32.95-27.25v-32.29z" fill="#231f20"/><path d="m263.99 283.75.39.33h-39.41l-.4-.33z" fill="#231f20"/><path d="m263.99 630.98.38.32h-39.4l-.39-.32z" fill="#231f20"/><path d="m263.99 283.75h-39.42l-.75-.63h39.4z" fill="#231f20"/><path d="m263.99 630.98h-39.41l-.75-.63h39.39z" fill="#231f20"/><path d="m238.18 556.75-.13.16h-33.2v-.16z" fill="#231f20"/><path d="m238.05 209.69-.13.16h-32.59v.31h-.48v-.47z" fill="#231f20"/><path d="m238.05 556.91-.13.16h-32.59v.31h-.48v-.47z" fill="#231f20"/><path d="m237.92 209.85-32.43 39.21v-38.9h-.16v-.31z" fill="#231f20"/><path d="m237.92 557.07-32.43 39.21v-38.9h-.16v-.31z" fill="#231f20"/><path d="m204.54 143.9 32.95 27.25h-32.95z" fill="#231f20"/><path d="m204.54 491.13 32.95 27.25h-32.95z" fill="#231f20"/><path d="m224.97 284.08h-19.48v-.33h19.08z" fill="#231f20"/><path d="m224.97 631.3h-19.48v-.32h19.09z" fill="#231f20"/><path d="m223.83 630.35.75.63h-19.09v-.63z" fill="#231f20"/><path d="m223.82 283.12.75.63h-19.08v-.63z" fill="#231f20"/><path d="m204.54 458.83v32.3 27.25h-46.87v-76.11-1.42h65.47l.38.32h-18.98z" fill="#ed1e29"/><path d="m204.54 143.9v27.25h-46.87v-76.11-1.41h65.47l.37.31h-18.97v17.67z" fill="#ed1e29"/><path d="m205.49 631.3v.31h-.64v-.63h.48v.32z" fill="#231f20"/><path d="m205.33 630.98h.16v.319h-.16z" fill="#231f20"/><path d="m205.33 630.35h.16v.631h-.16z" fill="#231f20"/><path d="m205.49 596.28v34.07h-.16v-33.87z" fill="#231f20"/><path d="m205.49 557.38v38.9l-.16.2v-39.1z" fill="#231f20"/><path d="m205.49 284.08v.31h-.64v-.64h.48v.33z" fill="#231f20"/><path d="m205.33 283.75h.16v.33h-.16z" fill="#231f20"/><path d="m205.33 283.12h.16v.63h-.16z" fill="#231f20"/><path d="m205.49 249.06v34.06h-.16v-33.87z" fill="#231f20"/><path d="m205.49 210.16v38.9l-.16.19v-39.09z" fill="#231f20"/><path d="m204.85 630.35h.48v.631h-.48z" fill="#231f20"/><path d="m205.33 596.48v33.87h-.48v-33.29z" fill="#231f20"/><path d="m205.33 557.38v39.1l-.48.58v-39.68z" fill="#231f20"/><path d="m204.85 283.12h.48v.63h-.48z" fill="#231f20"/><path d="m205.33 249.25v33.87h-.48v-33.29z" fill="#231f20"/><path d="m205.33 210.16v39.09l-.48.58v-39.67z" fill="#231f20"/><path d="m204.85 630.98v.63h-28.57l28.57-34.55v33.29z" fill="#231f20"/><path d="m204.85 557.38v39.68l-28.57 34.55h-18.61v-21.72l43.42-52.51z" fill="#231f20"/><path d="m168.8 557.38h-11.13v-21.39h46.87v20.92h.31v.47h-3.76z" fill="#ed1e29"/><path d="m176.27 284.39h28.58v16.4 32.29 37.36 28.43.62h-47.18v-2.51-112.59z" fill="#ed1e29"/><path d="m204.85 283.75v.64h-28.58l28.58-34.56v33.29z" fill="#231f20"/><path d="m204.85 210.16v39.67l-28.58 34.56h-18.6v-21.73l43.41-52.5z" fill="#231f20"/><path d="m168.8 210.16h-11.13v-21.39h46.87v20.92h.31v.47h-3.77z" fill="#ed1e29"/><path d="m201.09 557.38-43.42 52.51v-39.06l11.13-13.45z" fill="#231f20"/><path d="m201.08 210.16-43.41 52.5v-39.05l11.13-13.45z" fill="#231f20"/><path d="m168.8 210.16-11.13 13.45v-13.45z" fill="#231f20"/><path d="m168.8 557.38-11.13 13.45v-13.45z" fill="#231f20"/><path d="m157.67 744.21v2.5h-17.62v-1.24-113.86h17.62z" fill="#fbed24"/><path d="m157.67 609.89v21.72h-17.62v-.41z" fill="#231f20"/><path d="m157.67 570.83v39.06l-17.62 21.31v-39.06z" fill="#231f20"/><path d="m157.67 557.38v13.45l-17.62 21.31v-34.76z" fill="#231f20"/><path d="m140.05 552.72v-16.73h17.62v21.39h-17.62z" fill="#fbed24"/><path d="m140.05 518.38h17.62v17.61h-17.62z" fill="#fbed24"/><path d="m157.67 442.27v76.11h-17.62v-74.86-2.67h17.62z" fill="#fbed24"/><path d="m157.67 396.98v2.51h-17.62v-1.25-113.85h17.62z" fill="#fbed24"/><path d="m157.67 262.66v21.73h-17.62v-.42z" fill="#231f20"/><path d="m157.67 223.61v39.05l-17.62 21.31v-39.05z" fill="#231f20"/><path d="m157.67 210.16v13.45l-17.62 21.31v-34.76z" fill="#231f20"/><path d="m140.05 205.5v-16.73h17.62v21.39h-17.62z" fill="#fbed24"/><path d="m140.05 171.15h17.62v17.62h-17.62z" fill="#fbed24"/><path d="m157.67 95.04v76.11h-17.62v-74.85-2.67h17.62z" fill="#fbed24"/><path d="m139.71 631.61h.34v113.86 1.24h-55.97v-129.57h1.88l3.78-4.5v18.97h17.67z" fill="#34a047"/><path d="m140.05 631.2v.41h-.34z" fill="#231f20"/><path d="m140.05 592.14v39.06l-.34.41h-32.3z" fill="#231f20"/><path d="m140.05 557.38v34.76l-32.64 39.47h-17.67v-18.97l46.4-55.26z" fill="#231f20"/><path d="m139.7 284.39h.35v113.85 1.25h-55.97v-129.58h1.88l3.78-4.5v18.98h17.67z" fill="#34a047"/><path d="m140.05 283.97v.42h-.35z" fill="#231f20"/><path d="m140.05 244.92v39.05l-.35.42h-32.29z" fill="#231f20"/><path d="m140.05 210.16v34.76l-32.64 39.47h-17.67v-18.98l46.4-55.25z" fill="#231f20"/><g fill="none"><path d="m85.96 269.91 3.78-4.5 46.4-55.25 3.91-4.66 1.9-2.26" stroke="#fbed24" stroke-width="7.5484"/><path d="m82 240 2.08-2.76 5.66-7.53 14.71-19.55 16.1-21.39" stroke="#fbed24" stroke-width="7.5484"/><path d="m101.7 291.29 5.71-6.9 32.64-39.47 17.62-21.31 11.13-13.45 2.08-2.52" stroke="#fbed24" stroke-width="7.5484"/><path d="m135.03 290.04 4.67-5.65.35-.42 17.62-21.31 43.41-52.5 3.13-3.78" stroke="#fbed24" stroke-width="7.5484"/><path d="m169 293.18 7.27-8.79 28.58-34.56" stroke="#fbed24" stroke-width="7.5484"/><path d="m279.56 264.34 45.75-54.49 5.82-6.93" stroke="#fbed24" stroke-width="7.5484"/><path d="m279.56 224.94 12.48-15.09 17.44-21.08.26-.32" stroke="#fbed24" stroke-width="7.5484"/><path d="m290.88 290.99 5.71-6.91 61.39-74.23 2.08-2.52" stroke="#fbed24" stroke-width="7.5484"/><path d="m324.21 289.73 4.67-5.65 61.38-74.23 3.13-3.78" stroke="#fbed24" stroke-width="7.5484"/><path d="m358.18 292.87 7.23-8.79 29.26-35.6 1.4-1.7 3.93-4.78" stroke="#fbed24" stroke-width="7.5484"/><path d="m219.01 90.16 4.13 3.47.37.31 55.26 46.38 6.93 5.82" stroke="#fbed24" stroke-width="7.5484"/><path d="m258 88 6.46 5.63.36.31 13.95 12.16 21.4 18.65" stroke="#fbed24" stroke-width="7.5484"/><path d="m197.63 105.9 6.91 5.71 72 59.54 2.23 1.85 2.52 2.08" stroke="#fbed24" stroke-width="7.5484"/><path d="m198.89 139.23 5.65 4.67 32.95 27.25 21.31 17.62 19.97 16.51 3.78 3.13" stroke="#fbed24" stroke-width="7.5484"/><path d="m195.74 173.2 8.8 7.4 9.7 8.17 24.67 20.75" stroke="#fbed24" stroke-width="7.5484"/><path d="m224.57 283.75.4.33 54.11 45.42 6.93 5.82" stroke="#fbed24" stroke-width="7.5484"/><path d="m263.99 283.75.39.33 14.7 12.15 21.4 17.7" stroke="#fbed24" stroke-width="7.5484"/><path d="m197.95 295.08 6.9 5.71 74.23 61.39 2.52 2.08" stroke="#fbed24" stroke-width="7.5484"/><path d="m199.2 328.41 5.65 4.67 74.23 61.38 3.78 3.13" stroke="#fbed24" stroke-width="7.5484"/><path d="m196.06 362.38 8.79 8.06 19.15 17.56" stroke="#fbed24" stroke-width="7.5484"/><path d="m396.07 246.78v152.71h-191.22-47.18-17.62-55.97v-129.58-32.67-143.61h55.97 17.62 65.47 41.32 131.61v77.52 17.62z" stroke="#231f20" stroke-width="21"/><path d="m157.67 95.04v76.11 17.62 21.39 13.45 39.05 21.73 112.59" stroke="#231f20" stroke-width="7"/><path d="m140.05 96.3v74.85 17.62 16.73 4.66 34.76 39.05.42 113.85" stroke="#231f20" stroke-width="7"/><path d="m396.07 188.77h-86.59-30.71-19.97-44.56-9.7-46.87-17.62-19.5-26.42" stroke="#231f20" stroke-width="7"/><path d="m394.8 171.15h-116.03-2.23-39.05-32.95-46.87-17.62-47.18" stroke="#231f20" stroke-width="7"/><path d="m436.96 268.66 3.78-4.5 46.4-55.26 3.91-4.66 1.9-2.26" stroke="#fbed24" stroke-width="7.5484"/><path d="m434 234 1.08-1.34 5.66-7 13.54-16.76 17.28-21.39" stroke="#fbed24" stroke-width="7.5484"/><path d="m452.69 290.04 5.71-6.91 32.65-39.47 17.62-21.31 11.13-13.45 2.08-2.52" stroke="#fbed24" stroke-width="7.5484"/><path d="m486.04 288.79 4.68-5.66.33-.4 17.62-21.31 43.42-52.52 3.12-3.77" stroke="#fbed24" stroke-width="7"/><path d="m520 291.93 7.28-8.8 28.56-34.54" stroke="#fbed24" stroke-width="7.5484"/><path d="m630.56 263.08 45.76-54.49 5.81-6.92" stroke="#fbed24" stroke-width="7.5484"/><path d="m630.56 223.68 12.49-15.09 17.43-21.08.26-.31" stroke="#fbed24" stroke-width="7.5484"/><path d="m641.88 289.73 5.71-6.91 61.39-74.23 2.08-2.52" stroke="#fbed24" stroke-width="7.5484"/><path d="m675.22 288.48 4.68-5.66 61.37-74.23 3.12-3.78" stroke="#fbed24" stroke-width="7.5484"/><path d="m709.18 291.62 6.88-8.8 29.61-37.84 1.4-1.79.93-1.19" stroke="#fbed24" stroke-width="7.5484"/><path d="m570.01 88.9 4.13 3.47.37.31 55.25 46.39 6.93 5.82" stroke="#fbed24" stroke-width="7.5484"/><path d="m610 90 2.91 2.37.38.31 16.47 13.39 21.41 17.42" stroke="#fbed24" stroke-width="7.5484"/><path d="m548.63 104.64 6.9 5.71 72.02 59.55 2.21 1.83 2.53 2.09" stroke="#fbed24" stroke-width="7.5484"/><path d="m549.89 137.97 5.64 4.66 32.97 27.27 21.3 17.61 19.96 16.51 3.79 3.13" stroke="#fbed24" stroke-width="7.5484"/><path d="m546.75 171.94 8.78 6.72 11.56 8.85 27.13 20.76" stroke="#fbed24" stroke-width="7.5484"/><path d="m575.58 282.5.4.33 54.09 45.42 6.93 5.82" stroke="#fbed24" stroke-width="7.5484"/><path d="m614.98 282.5.4.33 14.69 12.15 21.41 17.7" stroke="#fbed24" stroke-width="7.5484"/><path d="m548.94 293.82 6.9 5.71 74.23 61.39 2.52 2.08" stroke="#fbed24" stroke-width="7.5484"/><path d="m550.2 327.15 5.64 4.66 74.23 61.39 3.79 3.13" stroke="#fbed24" stroke-width="7.5484"/><path d="m547.06 361.12 8.78 6.7 39.03 29.79.81.62 2.32 1.77" stroke="#fbed24" stroke-width="7.5484"/><path d="m747.07 243.19v155.04h-151.39-87.01-17.62-55.97v-129.57-36-140.29h55.97 17.62 65.47 38.77 134.16v77.53 17.61z" stroke="#231f20" stroke-width="21"/><path d="m508.67 93.79v76.11 17.61 21.39 13.45 39.07 21.71 112.59" stroke="#231f20" stroke-width="7"/><path d="m491.05 95.04v74.86 17.61 16.73 4.66 34.76 39.07.4 113.85" stroke="#231f20" stroke-width="7"/><path d="m747.07 187.51h-86.59-30.72-19.96-42.71-11.56-46.86-17.62-19.49-26.43" stroke="#231f20" stroke-width="7"/><path d="m745.81 169.9h-116.05-2.21-39.05-32.97-46.86-17.62-47.18" stroke="#231f20" stroke-width="7"/><path d="m85.96 617.14 3.78-4.5 46.4-55.26 3.91-4.66 1.9-2.26" stroke="#fbed24" stroke-width="7.5484"/><path d="m82 580 2.08-2.37 5.66-6.47 12.07-13.78 18.74-21.39" stroke="#fbed24" stroke-width="7.5484"/><path d="m101.7 638.52 5.71-6.91 32.64-39.47 17.62-21.31 11.13-13.45 2.08-2.52" stroke="#fbed24" stroke-width="7.5484"/><path d="m135.03 637.27 4.68-5.66.34-.41 17.62-21.31 43.42-52.51 3.12-3.77" stroke="#fbed24" stroke-width="7.5484"/><path d="m169 640.41 7.28-8.8 28.57-34.55" stroke="#fbed24" stroke-width="7.5484"/><path d="m279.56 611.57 45.75-54.5 5.82-6.93" stroke="#fbed24" stroke-width="7.5484"/><path d="m279.56 572.17 12.49-15.1 17.43-21.08.26-.31" stroke="#fbed24" stroke-width="7.5484"/><path d="m290.88 638.21 5.71-6.91 61.39-74.23 2.08-2.52" stroke="#fbed24" stroke-width="7.5484"/><path d="m324.21 636.96 4.68-5.66 61.38-74.23 3.12-3.77" stroke="#fbed24" stroke-width="7.5484"/><path d="m358.18 640.1 7.28-8.8h.01l29.2-35.28 1.4-1.69 1.93-2.33" stroke="#fbed24" stroke-width="7.5484"/><path d="m219.01 437.38 4.13 3.47.38.32 55.25 46.38 6.93 5.82" stroke="#fbed24" stroke-width="7.5484"/><path d="m258 438 3.54 2.85.39.32 16.84 13.57 21.4 17.24" stroke="#fbed24" stroke-width="7.5484"/><path d="m197.63 453.12 6.91 5.71 72.01 59.55 2.22 1.84 2.52 2.08" stroke="#fbed24" stroke-width="7.5484"/><path d="m198.89 486.46 5.65 4.67 32.95 27.25 21.3 17.61 19.98 16.52 3.78 3.13" stroke="#fbed24" stroke-width="7.5484"/><path d="m195.74 520.42 8.8 7.06 10.61 8.51 25.87 20.76" stroke="#fbed24" stroke-width="7.5484"/><path d="m224.58 630.98.39.32 54.11 45.43 6.93 5.82" stroke="#fbed24" stroke-width="7.5484"/><path d="m263.99 630.98.38.32 14.71 12.16 21.4 17.7" stroke="#fbed24" stroke-width="7.5484"/><path d="m197.95 642.3 6.9 5.71 74.23 61.39 2.52 2.08" stroke="#fbed24" stroke-width="7.5484"/><path d="m199.2 675.64 5.65 4.67 74.23 61.38 3.78 3.13" stroke="#fbed24" stroke-width="7.5484"/><path d="m196.06 709.6 8.79 7.28 35.15 29.12" stroke="#fbed24" stroke-width="7.5484"/><path d="m396.07 594.33v152.38h-191.22-47.18-17.62-55.97v-129.57-39.51-136.78h55.97 17.62 65.47 38.4 134.53v77.53 17.61z" stroke="#231f20" stroke-width="21"/><path d="m157.67 442.27v76.11 17.61 21.39 13.45 39.06 21.72 112.6" stroke="#231f20" stroke-width="7"/><path d="m140.05 443.52v74.86 17.61 16.73 4.66 34.76 39.06.41 113.86" stroke="#231f20" stroke-width="7"/><path d="m396.07 535.99h-86.59-30.71-19.98-43.64-10.61-46.87-17.62-19.5-26.42" stroke="#231f20" stroke-width="7"/><path d="m394.8 518.38h-116.03-2.22-39.06-32.95-46.87-17.62-47.18" stroke="#231f20" stroke-width="7"/><path d="m436.96 615.88 3.78-4.5 46.39-55.25 3.92-4.67 1.9-2.26" stroke="#fbed24" stroke-width="7.5484"/><path d="m436 578 4.74-5.77 13.24-16.1 17.58-21.39" stroke="#fbed24" stroke-width="7.5484"/><path d="m452.69 637.26 5.71-6.9 32.65-39.48 17.62-21.3 11.13-13.45 2.08-2.52" stroke="#fbed24" stroke-width="7.5484"/><path d="m486.04 636.01 4.67-5.65.34-.41 17.62-21.31 43.42-52.51 3.12-3.77" stroke="#fbed24" stroke-width="7.5484"/><path d="m520 639.15 7.27-8.79 28.57-34.55" stroke="#fbed24" stroke-width="7.5484"/><path d="m630.56 610.31 45.75-54.49 5.82-6.93" stroke="#fbed24" stroke-width="7.5484"/><path d="m630.56 570.91 12.48-15.09 17.44-21.08.26-.32" stroke="#fbed24" stroke-width="7.5484"/><path d="m641.88 636.95 5.71-6.9 61.39-74.23 2.08-2.52" stroke="#fbed24" stroke-width="7.5484"/><path d="m675.22 635.7 4.67-5.65 61.37-74.23 3.13-3.78" stroke="#fbed24" stroke-width="7.5484"/><path d="m709.18 638.84 7.35-8.79 29.14-34.87 1.4-1.67 2.93-3.51" stroke="#fbed24" stroke-width="7.5484"/><path d="m570.01 436.13 4.13 3.47.37.31 55.25 46.39 6.93 5.82" stroke="#fbed24" stroke-width="7.5484"/><path d="m614 436 3.85 3.6.34.31 11.57 10.81 21.41 20" stroke="#fbed24" stroke-width="7.5484"/><path d="m548.63 451.87 6.9 5.7 72.02 59.55 2.21 1.83 2.53 2.09" stroke="#fbed24" stroke-width="7.5484"/><path d="m549.89 485.2 5.64 4.66 32.96 27.26 21.31 17.62 19.96 16.51 3.79 3.13" stroke="#fbed24" stroke-width="7.5484"/><path d="m546.75 519.17 8.78 7.25 10.08 8.32 25.14 20.76" stroke="#fbed24" stroke-width="7.5484"/><path d="m575.59 629.73.39.32 54.09 45.43 6.93 5.82" stroke="#fbed24" stroke-width="7.5484"/><path d="m614.99 629.73.38.32 14.7 12.15 21.41 17.71" stroke="#fbed24" stroke-width="7.5484"/><path d="m548.94 641.05 6.9 5.71 74.23 61.38 2.52 2.08" stroke="#fbed24" stroke-width="7.5484"/><path d="m550.2 674.38 5.64 4.66 74.23 61.39 3.79 3.13" stroke="#fbed24" stroke-width="7.5484"/><path d="m547.06 708.35 8.78 6.83 38.1 29.66.8.62 3.26 2.54" stroke="#fbed24" stroke-width="7.5484"/><path d="m747.07 593.51v151.95h-152.33-86.07-17.62-55.97v-129.58-37.88-138.4h55.97 17.62 65.47 43.71 129.22v77.52 17.62z" stroke="#231f20" stroke-width="21"/><path d="m508.67 441.02v76.1 17.62 21.39 13.45 39.06 21.72 112.59" stroke="#231f20" stroke-width="7"/><path d="m491.05 442.27v74.85 17.62 16.72 4.67 34.75 39.07.41 113.85" stroke="#231f20" stroke-width="7"/><path d="m747.07 534.74h-86.59-30.72-19.96-44.19-10.08-46.86-17.62-19.49-26.43" stroke="#231f20" stroke-width="7"/><path d="m745.81 517.12h-116.05-2.21-39.06-32.96-46.86-17.62-47.18" stroke="#231f20" stroke-width="7"/><path d="m0 0h850.394v850.394h-850.394z"/></g></svg>