<svg enable-background="new 0 0 850.394 850.394" height="850.394" viewBox="0 0 850.394 850.394" width="850.394" xmlns="http://www.w3.org/2000/svg"><path d="m754.24 428.46c.069 35.69-.78 71.31-2.141 105.18l-105.33-.5c2.23-33.729 4.36-69.17 6.171-104.68h101.22z" fill="#a3d9ff"/><path d="m646.77 533.14 105.33.5c-1.659 41.19-4.08 79.811-6.55 112.86h-107.04c2.62-33.19 5.51-71.99 8.26-113.36z" fill="#fff"/><path d="m750.8 320.64c2.37 34.84 3.38 71.37 3.44 107.82h-.08-101.22c1.859-36.43 3.38-72.94 4.31-107.74h92.4z" fill="#fff"/><path d="m750.8 320.64-1.149.08h-92.4c1.03-38.85 1.34-75.59.57-107.74h79.38c6.609 32.15 10.949 68.85 13.599 107.66z" fill="#a3d9ff"/><path d="m638.51 646.5h107.04c-4.819 64.44-9.85 107.74-9.85 107.74h-106.36s4.08-43.3 9.17-107.74z" fill="#a3d9ff"/><path d="m639.68 96.38 32.53-.12c32.19 12.17 52.58 56.45 64.99 116.72h-79.38c-1.45-60.78-6.73-105.19-18.14-116.6z" fill="#fff"/><path d="m573.96 320.72h83.29c-.93 34.8-2.45 71.31-4.31 107.74h-84.23c2.18-36.44 4.02-72.94 5.25-107.74z" fill="#0b00ea"/><path d="m558.15 96.67 81.529-.29c11.41 11.41 16.69 55.82 18.141 116.6h-82.37c-.96-60.62-5.91-104.91-17.3-116.3z" fill="#0b00ea"/><path d="m568.71 428.46h84.23c-1.811 35.51-3.94 70.95-6.171 104.68l-85.159-.409c2.53-33.601 4.98-68.901 7.1-104.271z" fill="#fff"/><path d="m561.61 532.73 85.159.409c-2.75 41.37-5.64 80.17-8.26 113.36h-86.229c2.94-33.299 6.2-72.239 9.33-113.769z" fill="#0b00ea"/><path d="m552.28 646.5h86.229c-5.09 64.44-9.17 107.74-9.17 107.74h-87.22c.001 0 4.481-43.31 10.161-107.74z" fill="#fff"/><path d="m575.45 212.98c.5 32.14-.12 68.87-1.49 107.74h-86.77c1.22-38.87 1.68-75.6 1.05-107.74z" fill="#a3d9ff"/><path d="m575.45 212.98h82.37c.77 32.15.46 68.89-.57 107.74h-83.29c1.37-38.87 1.99-75.6 1.49-107.74z" fill="#fff"/><path d="m487.19 320.72h86.77c-1.229 34.8-3.07 71.3-5.25 107.74h-86.33c2.03-36.44 3.72-72.94 4.81-107.74z" fill="#fff"/><path d="m470.56 96.99 87.591-.32v.01c11.39 11.39 16.34 55.68 17.3 116.3h-87.21c-1.2-60.45-6.3-104.6-17.681-115.98z" fill="#fff"/><path d="m482.38 428.46h86.33c-2.12 35.37-4.57 70.67-7.1 104.271l-85.87-.41c2.39-33.491 4.67-68.641 6.64-103.861z" fill="#a3d9ff"/><path d="m475.74 532.32 85.87.41c-3.13 41.529-6.391 80.47-9.33 113.77h-85.42c2.81-33.41 5.92-72.51 8.88-114.18z" fill="#fff"/><path d="m466.86 646.5h85.42c-5.681 64.43-10.16 107.74-10.16 107.74h-84.97s4.3-43.31 9.71-107.74z" fill="#a3d9ff"/><path d="m488.24 212.98c.63 32.14.17 68.87-1.05 107.74h-91.46c1.09-38.88 1.44-75.62.69-107.74z" fill="#fff"/><path d="m395.73 320.72h91.46c-1.091 34.8-2.78 71.3-4.811 107.74h-91.1c1.911-36.44 3.481-72.94 4.451-107.74z" fill="#0b00ea"/><path d="m378.44 97.33 92.12-.34v.01c11.381 11.38 16.48 55.53 17.681 115.98h-91.82c-1.391-60.28-6.621-104.29-17.981-115.65z" fill="#0b00ea"/><path d="m391.28 428.46h91.1c-1.97 35.22-4.25 70.37-6.64 103.86l-90.72-.431c2.26-33.359 4.42-68.359 6.26-103.429z" fill="#fff"/><path d="m385.02 531.89 90.72.431c-2.96 41.67-6.07 80.77-8.88 114.18h-90.36c2.7-33.531 5.69-72.771 8.52-114.611z" fill="#0b00ea"/><path d="m376.5 646.5h90.36c-5.41 64.43-9.71 107.74-9.71 107.74h-90s4.15-43.31 9.35-107.74z" fill="#fff"/><path d="m396.42 212.98c.75 32.12.4 68.86-.69 107.74h-79.58c1.11-38.89 1.47-75.63.73-107.74z" fill="#a3d9ff"/><path d="m316.15 320.72h79.58c-.97 34.8-2.54 71.3-4.45 107.74h-79.62c1.93-36.45 3.52-72.95 4.49-107.74z" fill="#fff"/><path d="m298.95 97.62 79.49-.29c11.36 11.36 16.59 55.37 17.98 115.65h-79.54c-1.38-60.13-6.59-104.02-17.93-115.36z" fill="#fff"/><path d="m311.66 428.46h79.62c-1.84 35.07-4 70.07-6.26 103.43l-79.64-.38c2.27-33.24 4.44-68.12 6.28-103.05z" fill="#a3d9ff"/><path d="m305.38 531.51 79.64.38c-2.83 41.841-5.82 81.08-8.52 114.61h-79.72c2.73-33.63 5.74-73.01 8.6-114.99z" fill="#fff"/><path d="m296.78 646.5h79.72c-5.2 64.43-9.35 107.74-9.35 107.74h-79.77s4.17-43.31 9.4-107.74z" fill="#a3d9ff"/><path d="m316.88 212.98c.74 32.11.38 68.85-.73 107.74h-91l-.48-.02c.7-20.92 1.15-41.14 1.3-60.26.13-16.77.03-32.68-.36-47.46z" fill="#fff"/><path d="m184.77 98.03 114.18-.41c11.34 11.34 16.55 55.23 17.93 115.36h-91.27c-1.37-53.73-6.39-92.58-17.06-103.25-6.88-6.88-15.13-10.98-23.78-11.7z" fill="#0b00ea"/><path d="m225.15 320.72h91c-.97 34.79-2.56 71.29-4.49 107.74h-91.24l-.9-.05c1.11-18.45 2.12-36.9 3-55.1.86-17.85 1.59-35.47 2.15-52.61z" fill="#0b00ea"/><path d="m184.58 373.31h37.94c-.88 18.2-1.89 36.65-3 55.1-.87 14.59-1.8 29.18-2.78 43.66h-37.89c4.62-32.37 6.82-65.03 5.73-98.76z" fill="#a3d9ff"/><path d="m220.42 428.46h91.24c-1.84 34.93-4.01 69.81-6.28 103.05l-91.73-.439-1.15-.09c1.46-19.211 2.89-38.95 4.24-58.91.98-14.48 1.91-29.07 2.78-43.66z" fill="#fff"/><path d="m178.85 472.07h37.89c-1.35 19.96-2.78 39.699-4.24 58.91-1.15 15.159-2.32 29.989-3.5 44.34h-52.02c9.32-34.73 16.95-68.83 21.87-103.25z" fill="#fff"/><path d="m213.65 531.07 91.73.439c-2.86 41.98-5.87 81.36-8.6 114.99h-92.52l-1.36-.12c1.94-21.61 4.02-45.58 6.1-71.06 1.18-14.351 2.35-29.181 3.5-44.34z" fill="#0b00ea"/><path d="m208.55 109.73c10.67 10.67 15.69 49.52 17.06 103.25.39 14.78.49 30.69.36 47.46h-.04-53.18c-5.01-53.74-2.9-112.01 35.8-150.71z" fill="#a3d9ff"/><path d="m123.9 260.44-2.01.11c-4.32-78.98 10.06-125.12 29.45-146.98.83-.93 1.67-1.82 2.52-2.67 9.77-9.76 20.61-13.71 30.89-12.87h.01.01c8.65.72 16.9 4.82 23.78 11.7-38.7 38.7-40.81 96.97-35.8 150.71z" fill="#fff"/><path d="m192.52 754.24s4.6-43.46 10.38-107.86l1.36.12h92.52c-5.23 64.43-9.4 107.74-9.4 107.74z" fill="#fff"/><path d="m172.75 260.44c2.77 29.83 7.74 58.26 9.87 81.16.99 10.69 1.64 21.25 1.96 31.71h-56.89-.01c.2-27.59-.86-56.73-3.78-86.58-.89-9.1-1.56-17.82-2.01-26.18l2.01-.11z" fill="#0b00ea"/><path d="m172.75 260.44h53.18.04c-.15 19.12-.6 39.34-1.3 60.26-.56 17.14-1.29 34.76-2.15 52.61h-37.94c-.32-10.46-.97-21.02-1.96-31.71-2.13-22.9-7.1-51.33-9.87-81.16z" fill="#fff"/><path d="m153.86 110.9c-.85.85-1.69 1.74-2.52 2.67.83-.93 1.67-1.82 2.52-2.67z" fill="#fff"/><path d="m127.69 373.31h56.89c1.09 33.73-1.11 66.39-5.73 98.76h-56.98-.01c3.18-28.931 5.58-62.5 5.82-98.76z" fill="#fff"/><path d="m104.66 575.32s10.38-40.88 17.2-103.25h.01 56.98c-4.92 34.42-12.55 68.52-21.87 103.25z" fill="#0b00ea"/><g fill="none"><path d="m184.75 98.03-4.92.02" stroke="#000" stroke-width="23.087"/><path d="m209 575.32h-52.02-52.32s10.38-40.88 17.2-103.25c3.18-28.931 5.58-62.5 5.82-98.76.2-27.59-.86-56.73-3.78-86.58-.89-9.1-1.56-17.82-2.01-26.18-4.32-78.98 10.06-125.12 29.45-146.98.83-.93 1.67-1.82 2.52-2.67 9.77-9.76 20.61-13.71 30.91-12.87-.01 0-.01 0-.01 0s-.01 0 .01 0c8.65.72 16.9 4.82 23.78 11.7 10.67 10.67 15.69 49.52 17.06 103.25.39 14.78.49 30.69.36 47.46-.15 19.12-.6 39.34-1.3 60.26-.56 17.14-1.29 34.76-2.15 52.61-.88 18.2-1.89 36.65-3 55.1-.87 14.59-1.8 29.18-2.78 43.66-1.35 19.96-2.78 39.699-4.24 58.91-1.15 15.16-2.32 29.99-3.5 44.34-2.08 25.479-4.16 49.449-6.1 71.06-5.78 64.4-10.38 107.86-10.38 107.86h94.86 79.77 90 84.97 87.22 106.36s5.03-43.3 9.85-107.74c2.47-33.05 4.891-71.67 6.55-112.86 1.36-33.87 2.21-69.489 2.141-105.18-.061-36.45-1.07-72.98-3.44-107.82-2.649-38.81-6.99-75.51-13.6-107.66-12.41-60.27-32.8-104.55-64.99-116.72l-32.53.12-81.529.29-87.591.32-92.12.34-79.49.29-114.18.41" stroke="#000" stroke-width="23.087"/><path d="m298.95 97.62c11.34 11.34 16.55 55.23 17.93 115.36.74 32.11.38 68.85-.73 107.74-.97 34.79-2.56 71.29-4.49 107.74-1.84 34.93-4.01 69.81-6.28 103.05-2.86 41.98-5.87 81.36-8.6 114.99-5.23 64.43-9.4 107.74-9.4 107.74" stroke="#000" stroke-width="23.087"/><path d="m378.44 97.33c11.36 11.36 16.59 55.37 17.98 115.65.75 32.12.4 68.86-.69 107.74-.97 34.8-2.54 71.3-4.45 107.74-1.84 35.07-4 70.07-6.26 103.43-2.83 41.841-5.82 81.08-8.52 114.61-5.2 64.43-9.35 107.74-9.35 107.74" stroke="#000" stroke-width="23.087"/><path d="m470.56 97c11.381 11.38 16.48 55.53 17.681 115.98.63 32.14.17 68.87-1.05 107.74-1.091 34.8-2.78 71.3-4.811 107.74-1.97 35.22-4.25 70.37-6.64 103.86-2.96 41.67-6.07 80.77-8.88 114.18-5.41 64.43-9.71 107.74-9.71 107.74" stroke="#000" stroke-width="23.087"/><path d="m558.15 96.68c11.39 11.39 16.34 55.68 17.3 116.3.5 32.14-.12 68.87-1.49 107.74-1.229 34.8-3.07 71.3-5.25 107.74-2.12 35.37-4.57 70.67-7.1 104.271-3.13 41.529-6.391 80.47-9.33 113.77-5.681 64.43-10.16 107.74-10.16 107.74" stroke="#000" stroke-width="23.087"/><path d="m639.68 96.38c11.41 11.41 16.69 55.82 18.141 116.6.77 32.15.46 68.89-.57 107.74-.93 34.8-2.45 71.31-4.31 107.74-1.811 35.51-3.94 70.95-6.171 104.68-2.75 41.37-5.64 80.17-8.26 113.36-5.09 64.44-9.17 107.74-9.17 107.74" stroke="#000" stroke-width="23.087"/><path d="m225.1 212.98h.51 91.27 79.54 91.82 87.21 82.37 79.38" stroke="#000" stroke-width="23.087"/><path d="m225.15 320.72h91 79.58 91.46 86.77 83.29 92.4" stroke="#000" stroke-width="23.087"/><path d="m220.42 428.46h91.24 79.62 91.1 86.33 84.23 101.22" stroke="#000" stroke-width="23.087"/><path d="m752.68 533.64h-.58l-105.33-.5-85.16-.41-85.87-.41-90.72-.43-79.64-.38-91.73-.44" stroke="#000" stroke-width="23.087"/><path d="m204.26 646.5h92.52 79.72 90.36 85.42 86.23 107.04 1.12" stroke="#000" stroke-width="23.087"/><path d="m123.9 260.44h48.85 53.18" stroke="#000" stroke-width="23.087"/><path d="m127.69 373.31h56.89 37.94" stroke="#000" stroke-width="23.087"/><path d="m121.87 472.07h56.98 37.89" stroke="#000" stroke-width="23.087"/><path d="m208.55 109.73c-38.7 38.7-40.81 96.97-35.8 150.71 2.77 29.83 7.74 58.26 9.87 81.16.99 10.69 1.64 21.25 1.96 31.71 1.09 33.73-1.11 66.39-5.73 98.76-4.92 34.42-12.55 68.52-21.87 103.25" stroke="#000" stroke-width="23.087"/><path d="m0 0h850.394v850.394h-850.394z"/></g></svg>