<svg enable-background="new 0 0 850.394 850.394" height="850.394" viewBox="0 0 850.394 850.394" width="850.394" xmlns="http://www.w3.org/2000/svg"><path d="m348.88 754.92v3.27h-39.25v-.59-35.95-3.3h39.25v.62z" fill="#7a7878"/><path d="m269.79 757.3v-37.95-1h39.84v3.3 35.95.59h-39.84z" fill="#7a7878"/><path d="m269.79 757.3v.89h-46.39-.89v-39.84h3.87 43.41v1z" fill="#7a7878"/><path d="m348.88 718.97v-.62h159.07v.33 35.95 3.56h-159.07v-3.27z" fill="#7a7878"/><path d="m507.95 754.63v-35.95-.33h38.66v1.52 35.95 2.37h-38.66z" fill="#7a7878"/><path d="m587.04 754.93v3.26h-40.43v-2.37-35.95-1.52h40.43v.63z" fill="#7a7878"/><path d="m587.04 718.98v-.63h39.55v39.84h-.59-38.96v-3.26z" fill="#7a7878"/><path d="m586.15 702.3v3.26h-40.43v-2.36-35.96-1.52h40.43v.63z" fill="#7a7878"/><path d="m586.15 665.72h40.44v39.84h-1.48-38.96v-3.26-35.95z" fill="#7a7878"/><path d="m545.72 703.2v2.36h-38.66v-3.56-35.95-.33h38.66v1.52z" fill="#7a7878"/><path d="m507.06 702v3.56h-40.44v-2.66-35.96-1.22h40.44v.33z" fill="#7a7878"/><path d="m466.62 702.9v2.66h-41.03v-1.77-36.96-1.11h41.03v1.22z" fill="#7a7878"/><path d="m425.59 666.83v36.96 1.77h-37.76v-3.56-35.95-.33h37.76z" fill="#7a7878"/><path d="m387.83 702v3.56h-39.84v-3.26-36.58h39.84v.33z" fill="#7a7878"/><path d="m585.71 647v3.25h-40.44v-2.36-34.95-2.53h40.44v1.63z" fill="#7a7878"/><path d="m626.59 610.41v39.84h-1.93-38.95v-3.25-34.96-1.63z" fill="#7a7878"/><path d="m545.27 647.89v2.36h-38.65v-3.55-34.96-1.33h38.65v2.53z" fill="#7a7878"/><path d="m506.62 646.7v3.55h-40.44v-2.66-35.95-1.23h40.44v1.33z" fill="#7a7878"/><path d="m466.18 647.59v2.66h-41.04v-1.77-36.95-1.12h41.04v1.23z" fill="#7a7878"/><path d="m425.14 648.48v1.77h-37.76v-3.55-34.96-1.33h37.76v1.12z" fill="#7a7878"/><path d="m387.38 646.7v3.55h-39.84v-1.26-36.95-1.63h39.84v1.33z" fill="#7a7878"/><path d="m347.54 648.99v1.26h-39.25v-.58-38.96-.3h39.25v1.63z" fill="#7a7878"/><path d="m584.81 556.63v-.63h41.78v39.84h-2.82-38.96v-3.25z" fill="#7a7878"/><path d="m584.81 592.59v3.25h-40.43v-2.36-35.96-1.52h40.43v.63z" fill="#7a7878"/><path d="m544.38 593.48v2.36h-38.66v-3.55-35.96-.33h38.66v1.52z" fill="#7a7878"/><path d="m505.72 592.29v3.55h-40.44v-2.66-35.96-1.22h40.44v.33z" fill="#7a7878"/><path d="m465.28 593.18v2.66h-41.03v-1.77-36.95-1.12h41.03v1.22z" fill="#7a7878"/><path d="m424.25 594.07v1.77h-37.76v-3.55-35.96-.33h37.76v1.12z" fill="#7a7878"/><path d="m386.49 592.29v3.55h-39.84v-3.26-35.96-.62h39.84v.33z" fill="#7a7878"/><path d="m346.65 592.58v3.26h-39.25v-.58-38.96-.3h39.25v.62z" fill="#7a7878"/><path d="m446.41 472.26v13.45c0 3.72-3 6.73-6.72 6.73h-30.27c-3.72 0-6.73-3.011-6.73-6.73v-13.45c0-3.72 3.01-6.729 6.73-6.729h30.271c3.719-.001 6.719 3.009 6.719 6.729z" fill="#c8c8c8"/><path d="m293.43 472.3v13.45c0 3.72-3.01 6.73-6.73 6.73h-30.27c-3.72 0-6.73-3.011-6.73-6.73v-13.45c0-3.72 3.01-6.729 6.73-6.729h30.27c3.72-.001 6.73 3.009 6.73 6.729z" fill="#33a048"/><path d="m598.95 472.26v13.45c0 3.72-3.01 6.73-6.73 6.73h-30.27c-3.72 0-6.73-3.011-6.73-6.73v-13.45c0-3.72 3.011-6.729 6.73-6.729h30.27c3.72-.001 6.73 3.009 6.73 6.729z" fill="#ed1d31"/><path d="m474.16 452.71v52.56c0 3.711-3.01 6.721-6.72 6.721h-85.77c-3.72 0-6.73-3.01-6.73-6.721v-52.56c0-3.72 3.01-6.729 6.73-6.729h85.771c3.709-.001 6.719 3.009 6.719 6.729zm-27.75 33v-13.45c0-3.72-3-6.729-6.72-6.729h-30.27c-3.72 0-6.73 3.01-6.73 6.729v13.45c0 3.72 3.01 6.73 6.73 6.73h30.271c3.719 0 6.719-3.01 6.719-6.73z" fill="#7a7878"/><path d="m308.74 704.97v.59h-39.84v-.89-38.95h39.84v.3z" fill="#7a7878"/><path d="m268.9 704.67v.89h-46.39v-39.84h2.97 43.42z" fill="#7a7878"/><path d="m347.99 702.3v3.26h-39.25v-.59-38.95-.3h39.25z" fill="#7a7878"/><path d="m268.45 649.37v.88h-45.94v-39.84h2.53 43.41z" fill="#7a7878"/><path d="m308.29 649.67v.58h-39.84v-.88-38.96h39.84v.3z" fill="#7a7878"/><path d="m267.56 594.96v.88h-45.05v-39.84h1.64 43.41z" fill="#7a7878"/><path d="m307.4 595.26v.58h-39.84v-.88-38.96h39.84v.3z" fill="#7a7878"/><path d="m507.95 718.35h-159.07-39.25-39.84-43.41-3.87v-12.79h46.39 39.84 39.25 39.84 37.76 41.03 40.44 38.66 40.43 38.96 1.48v12.79h-39.55-40.43z" fill="#c8c8c8"/><path d="m506.62 610.41h-40.44-41.04-37.76-39.84-39.25-39.84-43.41-2.53v-14.57h45.05 39.84 39.25 39.84 37.76 41.03 40.44 38.66 40.43 38.96 2.82v14.57h-40.88-40.44z" fill="#c8c8c8"/><path d="m507.06 665.72h-40.44-41.03-37.76-39.84-39.25-39.84-43.42-2.97v-15.47h45.94 39.84 39.25 39.84 37.76 41.04 40.44 38.65 40.44 38.95 1.93v15.47h-40.44-40.43z" fill="#c8c8c8"/><path d="m626.59 758.19v6.689c0 11.82-9.58 21.4-21.41 21.4h-361.26c-11.82 0-21.41-9.58-21.41-21.4v-6.689h.89 46.39 39.84 39.25 159.07 38.66 40.43 38.96z" fill="#c8c8c8"/><path d="m505.72 556h-40.44-41.03-37.76-39.84-39.25-39.84-43.41-1.64v-26.17h2.83 401.25v26.17h-41.78-40.43z" fill="#c8c8c8"/><path d="m626.59 446.43v83.4h-401.25-2.83v-83.4c0-11.819 9.59-21.41 21.41-21.41h361.26c11.83 0 21.41 9.59 21.41 21.41zm-27.64 39.28v-13.45c0-3.72-3.01-6.729-6.73-6.729h-30.27c-3.72 0-6.73 3.01-6.73 6.729v13.45c0 3.72 3.011 6.73 6.73 6.73h30.27c3.72 0 6.73-3.01 6.73-6.73zm-124.79 19.56v-52.56c0-3.72-3.01-6.729-6.72-6.729h-85.77c-3.72 0-6.73 3.01-6.73 6.729v52.56c0 3.711 3.01 6.721 6.73 6.721h85.771c3.709-.001 6.719-3.011 6.719-6.721zm-180.73-19.52v-13.45c0-3.72-3.01-6.729-6.73-6.729h-30.27c-3.72 0-6.73 3.01-6.73 6.729v13.45c0 3.72 3.01 6.73 6.73 6.73h30.27c3.72 0 6.73-3.01 6.73-6.73z" fill="#c8c8c8"/><path d="m627.04 82.94v318.44c0 11.83-9.58 21.41-21.41 21.41h-361.26c-11.83 0-21.41-9.58-21.41-21.41v-318.44c0-11.83 9.58-21.41 21.41-21.41h361.26c11.83 0 21.41 9.58 21.41 21.41zm-26.54 276.97v-214.09c0-11.82-9.58-21.4-21.41-21.4h-308.19c-11.82 0-21.4 9.58-21.4 21.4v214.09c0 11.82 9.58 21.4 21.4 21.4h308.19c11.83 0 21.41-9.58 21.41-21.4z" fill="#c8c8c8"/><path d="m600.5 145.82v214.09c0 11.82-9.58 21.4-21.41 21.4h-308.19c-11.82 0-21.4-9.58-21.4-21.4v-214.09c0-11.82 9.58-21.4 21.4-21.4h308.19c11.83 0 21.41 9.58 21.41 21.4z" fill="#7a7878"/><g fill="none"><path d="m627.04 401.38c0 11.83-9.58 21.41-21.41 21.41h-361.26c-11.83 0-21.41-9.58-21.41-21.41v-318.44c0-11.83 9.58-21.41 21.41-21.41h361.26c11.83 0 21.41 9.58 21.41 21.41z" stroke="#231f20" stroke-width="21"/><path d="m626.59 758.19v6.689c0 11.82-9.58 21.4-21.41 21.4h-361.26c-11.82 0-21.41-9.58-21.41-21.4v-6.689-39.84-12.79-39.84-15.47-39.84-14.57-39.84-26.17-83.4c0-11.819 9.59-21.41 21.41-21.41h361.26c11.83 0 21.41 9.59 21.41 21.41v83.4 26.17 39.84 14.57 39.84 15.47 39.84 12.79z" stroke="#231f20" stroke-width="21"/><path d="m600.5 359.91c0 11.82-9.58 21.4-21.41 21.4h-308.19c-11.82 0-21.4-9.58-21.4-21.4v-214.09c0-11.82 9.58-21.4 21.4-21.4h308.19c11.83 0 21.41 9.58 21.41 21.4z" stroke="#231f20" stroke-width="14"/><path d="m225.34 529.83h401.25.75" stroke="#231f20" stroke-width="14"/><path d="m446.41 485.71c0 3.72-3 6.73-6.72 6.73h-30.27c-3.72 0-6.73-3.011-6.73-6.73v-13.45c0-3.72 3.01-6.729 6.73-6.729h30.271c3.72 0 6.72 3.01 6.72 6.729v13.45z" stroke="#231f20" stroke-width="14.2721"/><path d="m293.43 485.75c0 3.72-3.01 6.73-6.73 6.73h-30.27c-3.72 0-6.73-3.011-6.73-6.73v-13.45c0-3.72 3.01-6.729 6.73-6.729h30.27c3.72 0 6.73 3.01 6.73 6.729z" stroke="#231f20" stroke-width="14.2721"/><path d="m598.95 485.71c0 3.72-3.01 6.73-6.73 6.73h-30.27c-3.72 0-6.73-3.011-6.73-6.73v-13.45c0-3.72 3.011-6.729 6.73-6.729h30.27c3.721 0 6.73 3.01 6.73 6.729z" stroke="#231f20" stroke-width="14.2721"/><path d="m474.16 505.27c0 3.711-3.01 6.721-6.72 6.721h-85.77c-3.72 0-6.73-3.01-6.73-6.721v-52.56c0-3.72 3.01-6.729 6.73-6.729h85.771c3.71 0 6.72 3.01 6.72 6.729v52.56z" stroke="#231f20" stroke-width="14.2721"/><path d="m224.15 556h43.41 39.84 39.25 39.84 37.76 41.03 40.44 38.66 40.43 41.78.15" stroke="#231f20" stroke-width="7.136"/><path d="m221.17 595.84h1.34 45.05 39.84 39.25 39.84 37.76 41.03 40.44 38.66 40.43 38.96" stroke="#231f20" stroke-width="7.136"/><path d="m267.56 556v38.96" stroke="#231f20" stroke-width="7.136"/><path d="m307.4 556.3v38.96" stroke="#231f20" stroke-width="7.136"/><path d="m346.65 556.62v35.96" stroke="#231f20" stroke-width="7.136"/><path d="m386.49 556.33v35.96" stroke="#231f20" stroke-width="7.136"/><path d="m424.25 557.12v36.95" stroke="#231f20" stroke-width="7.136"/><path d="m465.28 557.22v35.96" stroke="#231f20" stroke-width="7.136"/><path d="m505.72 556.33v35.96" stroke="#231f20" stroke-width="7.136"/><path d="m544.38 557.52v35.96" stroke="#231f20" stroke-width="7.136"/><path d="m584.81 556.63v35.96" stroke="#231f20" stroke-width="7.136"/><path d="m225.04 610.41h43.41 39.84 39.25 39.84 37.76 41.04 40.44 38.65 40.44 40.88 1.05" stroke="#231f20" stroke-width="7.136"/><path d="m222.06 650.25h.45 45.94 39.84 39.25 39.84 37.76 41.04 40.44 38.65 40.44 38.95" stroke="#231f20" stroke-width="7.136"/><path d="m268.45 610.41v38.96" stroke="#231f20" stroke-width="7.136"/><path d="m308.29 610.71v38.96" stroke="#231f20" stroke-width="7.136"/><path d="m347.54 612.04v36.95" stroke="#231f20" stroke-width="7.136"/><path d="m387.38 611.74v34.96" stroke="#231f20" stroke-width="7.136"/><path d="m425.14 611.53v36.95" stroke="#231f20" stroke-width="7.136"/><path d="m466.18 611.64v35.95" stroke="#231f20" stroke-width="7.136"/><path d="m506.62 611.74v34.96" stroke="#231f20" stroke-width="7.136"/><path d="m545.27 612.94v34.95" stroke="#231f20" stroke-width="7.136"/><path d="m585.71 612.04v34.96" stroke="#231f20" stroke-width="7.136"/><path d="m225.48 665.72h43.42 39.84 39.25 39.84 37.76 41.03 40.44 38.66 40.43 40.44 1.49" stroke="#231f20" stroke-width="7.136"/><path d="m222.51 705.56h46.39 39.84 39.25 39.84 37.76 41.03 40.44 38.66 40.43 38.96" stroke="#231f20" stroke-width="7.136"/><path d="m268.9 665.72v38.95" stroke="#231f20" stroke-width="7.136"/><path d="m308.74 666.02v38.95" stroke="#231f20" stroke-width="7.136"/><path d="m347.99 665.34v.38 36.58" stroke="#231f20" stroke-width="7.136"/><path d="m387.83 666.05v35.95" stroke="#231f20" stroke-width="7.136"/><path d="m425.59 666.83v36.96" stroke="#231f20" stroke-width="7.136"/><path d="m466.62 666.94v35.96" stroke="#231f20" stroke-width="7.136"/><path d="m507.06 666.05v35.95" stroke="#231f20" stroke-width="7.136"/><path d="m545.72 667.24v35.96" stroke="#231f20" stroke-width="7.136"/><path d="m586.15 666.35v35.95" stroke="#231f20" stroke-width="7.136"/><path d="m226.38 718.35h43.41 39.84 39.25 159.07 38.66 40.43 39.55 2.38" stroke="#231f20" stroke-width="7.136"/><path d="m223.4 758.19h46.39 39.84 39.25 159.07 38.66 40.43 38.96" stroke="#231f20" stroke-width="7.136"/><path d="m269.79 719.35v37.95" stroke="#231f20" stroke-width="7.136"/><path d="m309.63 721.65v35.95" stroke="#231f20" stroke-width="7.136"/><path d="m348.88 718.97v35.95" stroke="#231f20" stroke-width="7.136"/><path d="m507.95 718.68v35.95" stroke="#231f20" stroke-width="7.136"/><path d="m546.61 719.87v35.95" stroke="#231f20" stroke-width="7.136"/><path d="m587.04 718.98v35.95" stroke="#231f20" stroke-width="7.136"/><path d="m0 0h850.394v850.394h-850.394z"/></g></svg>