<svg enable-background="new 0 0 850.394 850.394" height="850.394" viewBox="0 0 850.394 850.394" width="850.394" xmlns="http://www.w3.org/2000/svg"><path d="m473.44 428.37h253.18 18.45v39.43h-291.18v-39.43z" fill="#fbed24"/><path d="m394.83 405.77 5.75 21.57-39.67 19.66c-9.19-14.66-20.33-27.34-33.27-37.41l37.07-30.7 5.77-4.78z" fill="#ed1e29"/><path d="m364.21 378.29.5.6-37.07 30.7c-10.49-8.19-22.17-14.66-34.93-19.09l33.33-39.44 3.74-4.43z" fill="#ed1e29"/><path d="m326.04 351.06-33.33 39.44c-11.7-4.07-24.32-6.43-37.79-6.81l.07-1.92 25.35-41.55 7.34-12.03 37.23 21.92z" fill="#ed1e29"/><path d="m280.34 340.22-25.35 41.55-.07 1.92c-1.35-.05-2.7-.07-4.07-.07-9.03 0-17.88.87-26.47 2.54l-.71-4.04 13.62-46.41 3.43-11.69 37.58 14.96z" fill="#ed1e29"/><path d="m237.29 335.71-13.62 46.41.71 4.04c-11.65 2.26-22.84 6-33.4 11.02l-1.4-4.62 3.57-53.68.43-6.51 41.22 2.61z" fill="#ed1e29"/><path d="m139.83 361.59 20.87-18.78 28.71-4.18 3.74.25-3.57 53.68 1.4 4.62c-8.74 4.16-17.05 9.2-24.82 15.03l-.16-.21z" fill="#ed1e29"/><g fill="none"><path d="m757.81 252.03c0 53.01-26.159 99.92-66.27 128.52-25.75 18.35-57.24 29.16-91.26 29.2-.061 0-.13 0-.19 0s-.13 0-.189 0c-34.11-.04-65.681-10.91-91.471-29.35-40-28.61-66.069-75.45-66.069-128.37 0-87.11 70.62-157.73 157.729-157.73.61 0 1.22 0 1.83.01 86.27.98 155.89 71.22 155.89 157.72z" stroke="#231f20" stroke-width="14"/><path d="m684.11 252.03c0 1.39-.03 2.77-.101 4.14-.5 10.27-2.84 20.05-6.7 29.02-3.17 7.36-7.359 14.19-12.39 20.28-4.91 5.96-10.63 11.23-16.99 15.64-8.01 5.56-17.04 9.76-26.75 12.26v.01c-6.739 1.74-13.81 2.67-21.09 2.67-7.25 0-14.29-.92-21-2.65-9.89-2.54-19.08-6.84-27.21-12.55-6.21-4.36-11.81-9.54-16.62-15.38-5.16-6.24-9.43-13.25-12.63-20.82-3.93-9.35-6.229-19.55-6.52-30.25-.03-.79-.04-1.58-.04-2.37 0-11.36 2.25-22.19 6.34-32.07 2.95-7.15 6.87-13.81 11.58-19.8 5.29-6.74 11.59-12.64 18.67-17.49 7.38-5.06 15.6-8.97 24.42-11.47 7.31-2.08 15.03-3.19 23.01-3.19 7.26 0 14.311.92 21.03 2.66 9.1 2.34 17.61 6.17 25.24 11.23 7.59 5 14.31 11.22 19.909 18.36 4.48 5.72 8.24 12.05 11.131 18.83 4.321 10.12 6.711 21.25 6.711 32.94z" stroke="#231f20" stroke-width="14"/><path d="m614.35 252.03c0 2.62-.63 5.08-1.72 7.22-1.649 3.23-4.36 5.74-7.64 7.02-1.53.59-3.181.92-4.9.92-2.7 0-5.229-.8-7.39-2.2-2.351-1.52-4.26-3.74-5.46-6.39-.9-1.99-1.41-4.21-1.41-6.57 0-2.11.4-4.11 1.13-5.94 1.09-2.71 2.89-5.01 5.16-6.64 2.28-1.63 5.02-2.59 7.97-2.59 2.49 0 4.83.68 6.87 1.88 2.521 1.47 4.57 3.73 5.86 6.46.98 2.05 1.53 4.37 1.53 6.83z" stroke="#231f20" stroke-width="18.1878"/><path d="m600.09 94.3v1.44 72.27 68.85 15.17 15.16 68.86 73.7" stroke="#231f20" stroke-width="14"/><path d="m442.36 252.03h70.37 3.34 69.76 14.26 14.26 69.76 3.33 70.37 1.83" stroke="#231f20" stroke-width="7"/><path d="m599.48 95.74-22.44 71.97-65.52-38.22 20.63 70.36-74.63 2.43 55.21 49.14" stroke="#231f20" stroke-width="7"/><path d="m601.91 95.51 20.01 72.2 65.53-38.22-20.64 70.36 74.63 2.43-54 48.54" stroke="#231f20" stroke-width="7"/><path d="m600.09 410.35-.19-.6-22.26-71.35-65.52 38.21.62-2.11 20.01-68.25-74.62-2.44 56.42-49.35" stroke="#231f20" stroke-width="7"/><path d="m600.09 410.35.19-.6 22.26-71.35 65.52 38.21-.39-1.34-20.25-69.02 74.62-2.44-55.2-47.53" stroke="#231f20" stroke-width="7"/><path d="m646.95 181.05-.59.85-38.99 56.18" stroke="#231f20" stroke-width="6.0626"/><path d="m612.82 245.2 64.16-25.93" stroke="#231f20" stroke-width="6.0626"/><path d="m551.86 181.51.8 1.16 38.79 55.86" stroke="#231f20" stroke-width="6.0626"/><path d="m585.98 245.66-63.57-25.7-.58-.24" stroke="#231f20" stroke-width="6.0626"/><path d="m728.09 430.37-1.47-2-35.08-47.82-3.87-5.28-39.74-54.16-40.11-54.67" stroke="#231f20" stroke-width="21"/><path d="m613.28 259.31 64.03 25.88.12.05" stroke="#231f20" stroke-width="6.0626"/><path d="m473.3 428.56.14-.19 34.99-47.97 4.31-5.9 39.14-53.65 40.02-54.86" stroke="#231f20" stroke-width="21"/><path d="m586.44 258.85-63.81 25.8-.35.14" stroke="#231f20" stroke-width="6.0626"/><path d="m726.62 428.37h18.45v39.43h-291.18v-39.43h19.55z" stroke="#231f20" stroke-width="21"/><path d="m384.67 504.88c-5.13-21.32-13.14-40.92-23.76-57.88-9.19-14.66-20.33-27.34-33.27-37.41-10.49-8.19-22.17-14.66-34.93-19.09-11.7-4.07-24.32-6.43-37.79-6.81-1.35-.05-2.7-.07-4.07-.07-9.03 0-17.88.87-26.47 2.54-11.65 2.26-22.84 6-33.4 11.02-8.74 4.16-17.05 9.2-24.82 15.03-25.81 19.32-45.76 47.23-56.36 79.94-5.47 16.899-8.45 35.08-8.45 54.02 0 27.91 6.47 54.18 17.87 77.13 15.27 30.771 39.41 55.57 68.69 70.37 12.62 6.37 26.2 10.89 40.43 13.23 0 0 1.12.33 3.22.819 8.15 1.931 31.02 6.38 59.5 3.79 10.68-.97 22.15-2.93 33.93-6.39 15.04-4.41 30.59-11.26 45.64-21.601 99.71-68.5 55.25-40.21 117.07-81.96 0 0 142.29-107.79 271.62 43.78" stroke="#231f20" stroke-width="28"/><path d="m115.06 492.38h32.87l-28.71 130.92-29.21 133.18" stroke="#231f20" stroke-width="28"/><path d="m150.66 484.03 1.35 7.62 24.28 136.64 11.62 65.38 11.16 62.81" stroke="#231f20" stroke-width="28"/><path d="m232.87 711.45 15.77 45.03" stroke="#231f20" stroke-width="28"/><path d="m150.02 632.76 26.27-4.47 25.92-4.4 29.35 83.83 1.31 3.73" stroke="#231f20" stroke-width="28"/><path d="m255.96 674.5 32.18-6.88 21.57-4.61 15.28 42.11 18.63 51.36" stroke="#231f20" stroke-width="28"/><path d="m288.83 670.85 2.23 40.66 2.47 44.97" stroke="#231f20" stroke-width="28"/><path d="m189.41 338.63-28.71 4.18-20.87 18.78 26.17 50.41" stroke="#231f20" stroke-width="14"/><path d="m234.8 334.98-41.22-2.61-.43 6.51-3.57 53.68" stroke="#231f20" stroke-width="14"/><path d="m278.3 338.98-37.58-14.96-3.43 11.69-13.62 46.41" stroke="#231f20" stroke-width="14"/><path d="m254.99 381.77 25.35-41.55 7.34-12.03 37.23 21.92" stroke="#231f20" stroke-width="14"/><path d="m291.86 391.51.85-1.01 33.33-39.44 3.74-4.43 34.43 31.66" stroke="#231f20" stroke-width="14"/><path d="m360.57 447.17.34-.17 39.67-19.66-5.75-21.57-24.35-31.66-5.77 4.78-37.07 30.7-1.69 1.4" stroke="#231f20" stroke-width="14"/><path d="m0 0h850.394v850.394h-850.394z"/></g></svg>