<svg enable-background="new 0 0 850.394 850.394" height="850.394" viewBox="0 0 850.394 850.394" width="850.394" xmlns="http://www.w3.org/2000/svg"><path d="m283.42 710.54h71.2v71.2h-71.2z" fill="#fff"/><path d="m354.62 710.54h71.21v71.2h-71.21z" fill="#fff"/><path d="m425.83 710.54h71.2v71.2h-71.2z" fill="#fff"/><path d="m497.03 710.54h71.21v71.2h-71.21z" fill="#fff"/><path d="m497.03 639.33h71.21v71.21h-71.21z" fill="#fff"/><path d="m425.83 639.33h71.2v71.21h-71.2z" fill="#fff"/><path d="m354.62 639.33h71.21v71.21h-71.21z" fill="#fff"/><path d="m283.42 639.33h71.2v71.21h-71.2z" fill="#fff"/><path d="m283.42 568.13h71.2v71.2h-71.2z" fill="#fff"/><path d="m354.62 568.13h71.21v71.2h-71.21z" fill="#fff"/><path d="m425.83 568.13h71.2v71.2h-71.2z" fill="#fff"/><path d="m497.03 568.13h71.21v71.2h-71.21z" fill="#fff"/><path d="m497.03 497.15h71.21v70.979h-71.21z" fill="#fff"/><path d="m425.83 497.15h71.2v70.979h-71.2z" fill="#fff"/><path d="m354.62 497.15h71.21v70.979h-71.21z" fill="#fff"/><path d="m283.42 497.15h71.2v70.979h-71.2z" fill="#fff"/><path d="m568.24 496.92h-71.21-71.2-71.21-71.2v-62.51h284.94v62.74h-.12z" fill="#ed1e29"/><g stroke="#000"><path d="m283.42 496.92h71.2 71.21 71.2 71.21v.23 70.98 71.2 71.21 71.2h-71.21-71.2-71.21-71.2v-71.2-71.21-71.2-70.98" fill="none" stroke-width="19.0888"/><path d="m283.42 710.54h71.2 71.21 71.2 71.21" fill="none" stroke-width="19.0888"/><path d="m283.42 639.33h71.2 71.21 71.2 71.21" fill="none" stroke-width="19.0888"/><path d="m283.42 568.13h71.2 71.21 71.2 71.21" fill="none" stroke-width="19.0888"/><path d="m497.03 496.92v.23 70.98 71.2 71.21 71.2" fill="none" stroke-width="19.0888"/><path d="m425.83 496.92v.23 70.98 71.2 71.21 71.2" fill="none" stroke-width="19.0888"/><path d="m354.62 496.92v.23 70.98 71.2 71.21 71.2" fill="none" stroke-width="19.0888"/><path d="m283.42 496.92v-62.51h284.94v62.74h-.12-71.21-71.2-71.21-71.2z" fill="none" stroke-width="21"/><path d="m294.92 419.15v11.15" fill="none" stroke-linecap="round" stroke-linejoin="round" stroke-width="19.0888"/><path d="m320.56 419.15v11.15" fill="none" stroke-linecap="round" stroke-linejoin="round" stroke-width="19.0888"/><path d="m346.82 419.19v11.16" fill="none" stroke-linecap="round" stroke-linejoin="round" stroke-width="19.0888"/><path d="m372.46 419.28v11.15" fill="none" stroke-linecap="round" stroke-linejoin="round" stroke-width="19.0888"/><path d="m398.72 419.45v11.16" fill="none" stroke-linecap="round" stroke-linejoin="round" stroke-width="19.0888"/><path d="m425.83 419.53v11.15" fill="none" stroke-linecap="round" stroke-linejoin="round" stroke-width="19.0888"/><path d="m451.47 419.53v11.15" fill="none" stroke-linecap="round" stroke-linejoin="round" stroke-width="19.0888"/><path d="m477.73 419.58v11.15" fill="none" stroke-linecap="round" stroke-linejoin="round" stroke-width="19.0888"/><path d="m503.37 419.66v11.15" fill="none" stroke-linecap="round" stroke-linejoin="round" stroke-width="19.0888"/><path d="m529.62 419.83v11.16" fill="none" stroke-linecap="round" stroke-linejoin="round" stroke-width="19.0888"/><path d="m557.02 419.2v11.15" fill="none" stroke-linecap="round" stroke-linejoin="round" stroke-width="19.0888"/><path d="m426.743 66.642v307.197" fill="#fff" stroke-width="28"/><path d="m516.588 273.406-90.181 102.385-90.149-102.553" fill="none" stroke-width="28"/></g><path d="m0 0h850.394v850.394h-850.394z" fill="none"/></svg>