<svg enable-background="new 0 0 850.394 850.394" height="850.394" viewBox="0 0 850.394 850.394" width="850.394" xmlns="http://www.w3.org/2000/svg"><path d="m141.56 618.87c14.9 0 26.96-12.07 26.96-26.95 0-14.91-12.06-26.979-26.96-26.979-14.89 0-26.96 12.069-26.96 26.979 0 14.88 12.07 26.95 26.96 26.95zm71.13-98.84v217.31h-141.4v-217.31zm-37.49 199.88v-69.31h-20.99l-12.35 47.28-12.53-47.28h-20.94v69.311h12.94l.03-54.561 13.67 54.561h13.5l13.7-54.561.03 54.561h12.94z" fill="#fff5b4"/><path d="m283.52 618.87c14.9 0 26.96-12.07 26.96-26.95 0-14.91-12.06-26.979-26.96-26.979-14.89 0-26.96 12.069-26.96 26.979 0 14.88 12.07 26.95 26.96 26.95zm70.57-98.84v217.31h-141.4v-217.31zm-42.77 142.32v-11.75h-55.06v11.75h20.56v57.561h14v-57.561z" fill="#fff5b4"/><path d="m424.92 618.87c14.88 0 26.95-12.07 26.95-26.95 0-14.91-12.07-26.979-26.95-26.979-14.9 0-26.96 12.069-26.96 26.979 0 14.88 12.06 26.95 26.96 26.95zm70.73-98.84v217.31h-141.56v-217.31zm-43.05 199.88 16.76-69.31h-14.09l-10.63 48.41-12.15-48.41h-16.67l-12.62 47.61-10.39-47.61h-14.39l16.47 69.311h15.26l13.74-51.82 13.77 51.82h14.94z" fill="#fff5b4"/><path d="m565.89 618.88c14.891 0 26.95-12.07 26.95-26.95 0-14.91-12.06-26.97-26.95-26.97-14.899 0-26.96 12.06-26.96 26.97 0 14.88 12.06 26.95 26.96 26.95zm71.17-98.85v217.31h-141.41v-217.31zm-18.46 199.88v-29.44c0-4.5-.229-7.819-.689-9.97-.46-2.14-1.311-4.09-2.55-5.85-1.25-1.771-3.101-3.221-5.561-4.351s-5.22-1.7-8.27-1.7c-5.96 0-11.08 2.511-15.37 7.53v-25.529h-13.31v69.311h13.311v-25.12c0-4.22.399-7.4 1.2-9.56.81-2.16 2.069-3.771 3.8-4.841 1.74-1.069 3.7-1.6 5.91-1.6 1.92 0 3.51.41 4.79 1.25 1.279.83 2.159 1.96 2.67 3.37.5 1.42.75 4.76.75 10.01v26.49zm-54.59-57.56v-11.75h-55.06v11.75h20.56v57.561h14v-57.561z" fill="#fff5b4"/><path d="m707.61 619.02c14.89 0 26.949-12.079 26.949-26.96 0-14.909-12.06-26.979-26.949-26.979-14.9 0-26.96 12.07-26.96 26.979 0 14.88 12.06 26.96 26.96 26.96zm70.84-98.99v217.31h-141.39v-217.31zm-45.94 142.32v-11.75h-47.56v69.311h14v-29.44h29v-11.75h-29v-16.37h33.56z" fill="#fff5b4"/><path d="m734.56 592.06c0 14.881-12.06 26.96-26.949 26.96-14.9 0-26.96-12.079-26.96-26.96 0-14.909 12.06-26.979 26.96-26.979 14.889-.001 26.949 12.069 26.949 26.979z" fill="#fbed24"/><path d="m592.84 591.93c0 14.88-12.06 26.95-26.95 26.95-14.899 0-26.96-12.07-26.96-26.95 0-14.91 12.061-26.97 26.96-26.97 14.89 0 26.95 12.06 26.95 26.97z" fill="#fbed24"/><path d="m451.87 591.92c0 14.88-12.07 26.95-26.95 26.95-14.9 0-26.96-12.07-26.96-26.95 0-14.91 12.06-26.979 26.96-26.979 14.88-.001 26.95 12.069 26.95 26.979z" fill="#fbed24"/><path d="m310.48 591.92c0 14.88-12.06 26.95-26.96 26.95-14.89 0-26.96-12.07-26.96-26.95 0-14.91 12.07-26.979 26.96-26.979 14.9-.001 26.96 12.069 26.96 26.979z" fill="#fbed24"/><path d="m168.52 591.92c0 14.88-12.06 26.95-26.96 26.95-14.89 0-26.96-12.07-26.96-26.95 0-14.91 12.07-26.979 26.96-26.979 14.9-.001 26.96 12.069 26.96 26.979z" fill="#fbed24"/><path d="m732.51 650.6v11.75h-33.56v16.37h29v11.75h-29v29.44h-14v-69.31z" fill="#231f20"/><path d="m618.6 690.47v29.44h-13.32v-26.49c0-5.25-.25-8.59-.75-10.01-.511-1.41-1.391-2.54-2.67-3.37-1.28-.84-2.87-1.25-4.79-1.25-2.21 0-4.17.53-5.91 1.6-1.73 1.07-2.99 2.681-3.8 4.841-.801 2.159-1.2 5.34-1.2 9.56v25.12h-13.31v-69.311h13.311v25.53c4.29-5.02 9.41-7.53 15.37-7.53 3.05 0 5.81.57 8.27 1.7s4.311 2.58 5.561 4.351c1.239 1.76 2.09 3.71 2.55 5.85.458 2.149.688 5.469.688 9.969z" fill="#231f20"/><path d="m564.01 650.6v11.75h-20.5v57.56h-14v-57.56h-20.56v-11.75z" fill="#231f20"/><path d="m469.36 650.6-16.76 69.31h-14.94l-13.77-51.82-13.74 51.82h-15.26l-16.47-69.31h14.39l10.39 47.61 12.62-47.61h16.67l12.15 48.41 10.63-48.41z" fill="#231f20"/><path d="m311.32 650.6v11.75h-20.5v57.56h-14v-57.56h-20.56v-11.75z" fill="#231f20"/><path d="m175.2 650.6v69.31h-12.94l-.03-54.56-13.7 54.56h-13.5l-13.67-54.56-.03 54.56h-12.94v-69.31h20.94l12.53 47.28 12.35-47.28z" fill="#231f20"/><g fill="none"><path d="m168.52 591.92c0 14.88-12.06 26.95-26.96 26.95-14.89 0-26.96-12.07-26.96-26.95 0-14.91 12.07-26.979 26.96-26.979 14.9-.001 26.96 12.069 26.96 26.979z" stroke="#231f20" stroke-width="6.6865"/><path d="m141.36 560.03v-20.51" stroke="#231f20" stroke-width="6.6865"/><path d="m124.99 564.02-11.33-17.09" stroke="#231f20" stroke-width="6.6865"/><path d="m113.25 576.64-18.58-8.69" stroke="#231f20" stroke-width="6.6865"/><path d="m158.3 563.7 11.33-17.09" stroke="#231f20" stroke-width="6.6865"/><path d="m170.04 576.3 18.58-8.68" stroke="#231f20" stroke-width="6.6865"/><path d="m157.62 620.01 11.33 17.09" stroke="#231f20" stroke-width="6.6865"/><path d="m169.37 607.41 18.58 8.68" stroke="#231f20" stroke-width="6.6865"/><path d="m124.32 620.35-11.33 17.09" stroke="#231f20" stroke-width="6.6865"/><path d="m112.57 607.74-18.58 8.68" stroke="#231f20" stroke-width="6.6865"/><path d="m109.43 592.22h-20.51" stroke="#231f20" stroke-width="6.6865"/><path d="m193.9 592.22h-20.52" stroke="#231f20" stroke-width="6.6865"/><path d="m141.36 643.87v-20.52" stroke="#231f20" stroke-width="6.6865"/><path d="m310.48 591.92c0 14.88-12.06 26.95-26.96 26.95-14.89 0-26.96-12.07-26.96-26.95 0-14.91 12.07-26.979 26.96-26.979 14.9-.001 26.96 12.069 26.96 26.979z" stroke="#231f20" stroke-width="6.6865"/><path d="m283.32 560.03v-20.51" stroke="#231f20" stroke-width="6.6865"/><path d="m266.95 564.02-11.33-17.09" stroke="#231f20" stroke-width="6.6865"/><path d="m255.21 576.64-18.59-8.69" stroke="#231f20" stroke-width="6.6865"/><path d="m300.26 563.7 11.33-17.09" stroke="#231f20" stroke-width="6.6865"/><path d="m312 576.3 18.58-8.68" stroke="#231f20" stroke-width="6.6865"/><path d="m299.58 620.01 11.33 17.09" stroke="#231f20" stroke-width="6.6865"/><path d="m311.33 607.41 18.58 8.68" stroke="#231f20" stroke-width="6.6865"/><path d="m266.28 620.35-11.33 17.09" stroke="#231f20" stroke-width="6.6865"/><path d="m254.53 607.74-18.58 8.68" stroke="#231f20" stroke-width="6.6865"/><path d="m251.39 592.22h-20.51" stroke="#231f20" stroke-width="6.6865"/><path d="m335.86 592.22h-20.52" stroke="#231f20" stroke-width="6.6865"/><path d="m283.32 643.87v-20.52" stroke="#231f20" stroke-width="6.6865"/><path d="m451.87 591.92c0 14.88-12.07 26.95-26.95 26.95-14.9 0-26.96-12.07-26.96-26.95 0-14.91 12.06-26.979 26.96-26.979 14.88-.001 26.95 12.069 26.95 26.979z" stroke="#231f20" stroke-width="6.6865"/><path d="m424.71 560.03v-20.51" stroke="#231f20" stroke-width="6.6865"/><path d="m408.34 564.02-11.33-17.09" stroke="#231f20" stroke-width="6.6865"/><path d="m396.6 576.64-18.58-8.69" stroke="#231f20" stroke-width="6.6865"/><path d="m441.65 563.7 11.33-17.09" stroke="#231f20" stroke-width="6.6865"/><path d="m453.39 576.3 18.59-8.68" stroke="#231f20" stroke-width="6.6865"/><path d="m440.97 620.01 11.33 17.09" stroke="#231f20" stroke-width="6.6865"/><path d="m452.72 607.41 18.58 8.68" stroke="#231f20" stroke-width="6.6865"/><path d="m407.67 620.35-11.33 17.09" stroke="#231f20" stroke-width="6.6865"/><path d="m395.92 607.74-18.58 8.68" stroke="#231f20" stroke-width="6.6865"/><path d="m392.78 592.22h-20.51" stroke="#231f20" stroke-width="6.6865"/><path d="m477.25 592.22h-20.52" stroke="#231f20" stroke-width="6.6865"/><path d="m424.71 643.87v-20.52" stroke="#231f20" stroke-width="6.6865"/><path d="m592.84 591.93c0 14.88-12.06 26.95-26.95 26.95-14.899 0-26.96-12.07-26.96-26.95 0-14.91 12.061-26.97 26.96-26.97 14.89 0 26.95 12.06 26.95 26.97z" stroke="#231f20" stroke-width="6.6865"/><path d="m565.68 560.04v-20.5" stroke="#231f20" stroke-width="6.6865"/><path d="m549.32 564.04-11.33-17.09" stroke="#231f20" stroke-width="6.6865"/><path d="m537.57 576.65-18.59-8.68" stroke="#231f20" stroke-width="6.6865"/><path d="m582.62 563.71 11.33-17.09" stroke="#231f20" stroke-width="6.6865"/><path d="m594.36 576.32 18.59-8.69" stroke="#231f20" stroke-width="6.6865"/><path d="m581.94 620.02 11.33 17.1" stroke="#231f20" stroke-width="6.6865"/><path d="m593.69 607.42 18.59 8.68" stroke="#231f20" stroke-width="6.6865"/><path d="m548.64 620.36-11.33 17.1" stroke="#231f20" stroke-width="6.6865"/><path d="m536.9 607.75-18.59 8.69" stroke="#231f20" stroke-width="6.6865"/><path d="m533.75 592.24h-20.51" stroke="#231f20" stroke-width="6.6865"/><path d="m618.22 592.24h-20.52" stroke="#231f20" stroke-width="6.6865"/><path d="m565.68 643.88v-20.52" stroke="#231f20" stroke-width="6.6865"/><path d="m734.56 592.06c0 14.881-12.06 26.96-26.949 26.96-14.9 0-26.96-12.079-26.96-26.96 0-14.909 12.06-26.979 26.96-26.979 14.889-.001 26.949 12.069 26.949 26.979z" stroke="#231f20" stroke-width="6.6865"/><path d="m707.4 560.17v-20.5" stroke="#231f20" stroke-width="6.6865"/><path d="m691.04 564.17-11.33-17.09" stroke="#231f20" stroke-width="6.6865"/><path d="m679.29 576.78-18.58-8.68" stroke="#231f20" stroke-width="6.6865"/><path d="m724.34 563.84 11.33-17.09" stroke="#231f20" stroke-width="6.6865"/><path d="m736.09 576.45 18.58-8.69" stroke="#231f20" stroke-width="6.6865"/><path d="m723.66 620.15 11.34 17.1" stroke="#231f20" stroke-width="6.6865"/><path d="m735.41 607.55 18.59 8.68" stroke="#231f20" stroke-width="6.6865"/><path d="m690.36 620.49-11.33 17.09" stroke="#231f20" stroke-width="6.6865"/><path d="m678.62 607.88-18.59 8.69" stroke="#231f20" stroke-width="6.6865"/><path d="m675.48 592.37h-20.52" stroke="#231f20" stroke-width="6.6865"/><path d="m759.94 592.37h-20.52" stroke="#231f20" stroke-width="6.6865"/><path d="m707.4 644.01v-20.52" stroke="#231f20" stroke-width="6.6865"/><path d="m212.69 737.34h-141.4v-217.31h141.4 141.4 141.56 141.41 141.39v217.31h-141.39-141.41-141.56z" stroke="#231f20" stroke-width="20.0594"/><path d="m637.06 520.03v217.31" stroke="#231f20" stroke-width="20.0594"/><path d="m495.65 520.03v217.31" stroke="#231f20" stroke-width="20.0594"/><path d="m354.09 520.03v217.31" stroke="#231f20" stroke-width="20.0594"/><path d="m212.69 520.03v217.31" stroke="#231f20" stroke-width="20.0594"/><path d="m425.86 112.16v322.81" stroke="#231f20" stroke-width="28"/><path d="m520.28 329.43-94.77 107.59-94.73-107.76" stroke="#231f20" stroke-width="28"/><path d="m0 0h850.394v850.394h-850.394z"/></g></svg>