<svg enable-background="new 0 0 850.394 850.394" height="850.394" viewBox="0 0 850.394 850.394" width="850.394" xmlns="http://www.w3.org/2000/svg"><path d="m402.619 102.284c127.232 0 195.476 20.617 195.476 46.072 0 25.063-66.122 45.433-189.562 46.058-1.947.015-3.923.015-5.914.015s-3.966 0-5.928-.015c-1.599-.015-3.182-.015-4.766-.029-.349-.015-.712-.015-1.061-.015-119.706-1.235-183.736-21.358-183.736-46.014 0-25.455 68.23-46.072 195.491-46.072z" fill="#c8c8c8"/><path d="m154.169 705.479-.566-1.031v-12.074c31.775 33.389 112.18 58.132 249.597 58.132 131.853 0 208.451-22.782 245.341-54.121v8.106l-.843.684c3.835 4.91 5.841 10.011 5.841 15.212 0 41.655-93.815 75.421-252.649 75.421s-252.663-33.766-252.663-75.421c0-4.68 2.703-10.331 5.942-14.908z" fill="#7a7878"/><path d="m207.128 148.356c0 24.656 64.03 44.779 183.736 46.014-126.709-1.104-211.037-19.368-237.262-44.067-5.754-5.419-8.703-11.144-8.703-17.057 0-33.795 96.372-61.183 258.3-61.183 161.942 0 258.301 27.388 258.301 61.183 0 7.308-4.505 14.326-13.222 20.82-31.093 23.218-115.74 39.883-239.747 40.348 123.44-.625 189.562-20.995 189.562-46.058 0-25.455-68.243-46.072-195.476-46.072-127.259 0-195.489 20.617-195.489 46.072z" fill="#7a7878"/><path d="m648.541 154.415v49.458c-36.89 24.99-113.488 43.137-245.341 43.137-137.417 0-217.822-19.716-249.597-46.333v-50.373c26.225 24.7 110.553 42.963 237.262 44.067.349 0 .712 0 1.061.015 1.583.014 3.167.014 4.766.029 1.961.015 3.937.015 5.928.015 1.99 0 3.966 0 5.914-.015 124.006-.465 208.654-17.13 239.747-40.348z" fill="#7a7878"/><path d="m648.541 203.872v492.512c-36.89 31.339-113.488 54.121-245.341 54.121-137.417 0-217.822-24.743-249.597-58.132v-491.697c31.775 26.618 112.18 46.333 249.597 46.333 131.853 0 208.451-18.147 245.341-43.137z" fill="#ffffc2"/><path d="m390.865 194.37c-126.709-1.104-211.037-19.368-237.262-44.067-5.754-5.419-8.703-11.144-8.703-17.057 0-33.795 96.372-61.183 258.3-61.183 161.942 0 258.301 27.388 258.301 61.183 0 7.308-4.505 14.326-13.222 20.82-31.093 23.218-115.74 39.883-239.747 40.348" fill="none" stroke="#231f20" stroke-width="21"/><path d="m396.691 194.414c-1.599-.015-3.182-.015-4.766-.029" fill="none" stroke="#231f20" stroke-width="21"/><path d="m648.541 203.872c-36.89 24.99-113.488 43.137-245.341 43.137-137.417 0-217.822-19.716-249.597-46.333l-.015-.015" fill="none" stroke="#231f20" stroke-width="21"/><path d="m648.541 696.384c-36.89 31.339-113.488 54.121-245.341 54.121-137.417 0-217.822-24.743-249.597-58.132l-.015-.015" fill="none" stroke="#231f20" stroke-width="21"/><path d="m153.603 148.08v2.223 50.373 491.697 12.074" fill="none" stroke="#231f20" stroke-width="21"/><path d="m648.541 154.415v49.457 492.512 8.106" fill="none" stroke="#231f20" stroke-width="21"/><path d="m647.698 705.174c3.835 4.91 5.841 10.011 5.841 15.212 0 41.655-93.815 75.421-252.649 75.421s-252.663-33.766-252.663-75.421c0-4.679 2.703-10.33 5.942-14.907.218-.305.436-.61.654-.9" fill="none" stroke="#231f20" stroke-width="21"/><path d="m390.865 194.37c-119.706-1.235-183.736-21.358-183.736-46.014 0-25.455 68.229-46.072 195.491-46.072 127.232 0 195.476 20.617 195.476 46.072 0 25.063-66.122 45.433-189.562 46.058-1.947.015-3.923.015-5.914.015s-3.966 0-5.928-.015c-1.599-.015-3.182-.015-4.766-.029-.349-.015-.712-.015-1.061-.015z" fill="none" stroke="#231f20" stroke-width="21"/><path d="m0 0h850.394v850.394h-850.394z" fill="none"/><path d="m475.952 580.792 8.885-6.144 14.318 20.475c.483 4.876.734 9.845.734 14.884 0 1.644-.024 3.281-.081 4.913h-.007l-24.534 16.961-23.862-34.122z" fill="#f6cc4b"/><path d="m499.155 595.123-14.318-20.475 7.975-5.516 1.243-.363c2.466 8.396 4.197 17.218 5.1 26.354z" fill="#f6cc4b"/><path d="m399.218 480.923c-1.129-2.799-2.303-5.314-3.225-7.19-1.273-2.586-2.786-5.184-4.499-7.743-1.537-5.371 4.192-23.819 8.358-35.051 1.305-3.521 2.454-6.331 3.182-7.806.903-1.833 1.863-3.658 2.893-5.459 6.432-11.339 15.298-21.786 26.36-27.917 2.955-1.638 5.961-3.225 9.017-4.7 10.403-5.032 21.353-8.703 32.792-8.195 7.599.345 24.296 3.539 29.867 14.118-16.082-7.75-44.362 2.886-54.597 15.957-6.212 7.931-11.1 19.332-12.944 30.458-1.519.797-3.024 1.612-4.518 2.44-12.832 7.104-22.689 20.022-29.253 33.375-.98 1.99-2.241 4.707-3.433 7.713z" fill="#33a02c"/><path d="m475.268 631.881 24.534-16.961h.007c-.646 20.048-5.239 38.847-12.857 55.274l-.013-.007-24.892 17.206-21.861-31.261z" fill="#f6cc4b"/><path d="m486.951 670.194c-4.756 10.246-10.686 19.57-17.569 27.69l-7.335-10.491 24.892-17.206z" fill="#f6cc4b"/><path d="m462.047 687.394 7.335 10.491c-10.121 11.947-22.307 21.296-35.841 27.157l-8.515-12.061z" fill="#f6cc4b"/><path d="m462.047 687.394-37.021 25.587-21.999-31.16 24.403-16.873 12.756-8.815z" fill="#f6cc4b"/><path d="m454.894 552.342 9.675-6.683 20.268 28.989-8.885 6.144-14.526-18.604-21.316 16.872-1.192.835-7.78-11.125z" fill="#f6cc4b"/><path d="m464.569 545.659-21.887-31.298 10.818-7.479.013-.02c18.579 14.413 32.998 36.155 40.541 61.907l-1.243.363-7.975 5.516z" fill="#f6cc4b"/><path d="m442.683 514.361-15.216-21.761c2.466.853 4.888 1.819 7.272 2.898 6.62 2.987 12.901 6.809 18.774 11.363l-.013.02z" fill="#f6cc4b"/><path d="m441.742 604.435 9.663-6.676 23.863 34.122-35.082 24.252-23.863-34.122z" fill="#f6cc4b"/><path d="m440.11 579.06 21.316-16.872 14.526 18.604-24.547 16.967-12.487-17.864z" fill="#f6cc4b"/><path d="m432.907 521.119 9.776-6.758 21.886 31.298-9.675 6.683-14.872-19.057-21.314 16.873-.396.277-9.061-12.964z" fill="#f6cc4b"/><path d="m411.354 488.754c5.521.747 10.905 2.046 16.113 3.847l15.216 21.761-9.775 6.758-14.445-18.498-21.315 16.873-.32.219-9.857-14.099 24.384-16.854v-.007z" fill="#f6cc4b"/><path d="m400.115 396.289c-3.646-11.238-9.418-25.688-18.241-40.196l1.173-.709s3.451-38.527 17.256-65.979c1.048-2.096 2.165-4.123 3.338-6.061 16.597-27.421 13.277-21.579 13.277-21.579s5.616 9.839 9.958 31.531c2.836 14.187.264 38.32-1.958 53.812v.006c-12.423 17.143-20.172 35.34-24.803 49.175z" fill="#33a02c"/><path d="m425.026 712.981-27.446 18.975c-4.091-.138-8.125-.577-12.079-1.299l-17.312-24.754 34.837-24.082z" fill="#f6cc4b"/><path d="m441.742 604.435-25.419 17.576-20.274-28.99 25.67-17.745 9.419-6.506 7.78 11.125 12.487 17.864z" fill="#f6cc4b"/><path d="m418.708 550.158 21.314-16.873 14.872 19.057-23.756 16.428-12.826-18.335z" fill="#f6cc4b"/><path d="m404.545 630.155-25.538 17.651-20.405-28.902 23.316-16.113 14.131-9.77 20.274 28.99z" fill="#f6cc4b"/><path d="m355.903 500.795c1.588-.966 3.194-1.889 4.826-2.755 11.106-5.904 23.26-9.399 36.036-9.945v-.006c1.18-.051 2.366-.075 3.558-.075 3.727 0 7.411.251 11.031.74v.006l-24.384 16.854-17.889 12.374z" fill="#f6cc4b"/><path d="m399.67 544.097-25.507 17.632-22.275-31.857 17.193-11.884 17.889-12.374 9.857 14.099 12.424 17.758z" fill="#f6cc4b"/><path d="m405.618 417.498s-1.405-8.571-5.503-21.209c4.631-13.835 12.38-32.032 24.804-49.175v-.006c12.888-17.801 30.809-34.467 55.5-43.961 0 0-22.84 33.3-32.898 59.742-3.012 7.913-4.963 15.637-6.218 22.169-3.056 1.475-6.062 3.062-9.017 4.7-11.063 6.13-19.929 16.578-26.36 27.917z" fill="#33a02c"/><path d="m374.596 345.131c2.629 3.621 5.051 7.292 7.279 10.962 8.822 14.507 14.595 28.958 18.241 40.196 4.098 12.638 5.503 21.209 5.503 21.209l.308.176c-1.029 1.801-1.989 3.626-2.893 5.459-.728 1.475-1.876 4.285-3.182 7.806l-.251-.094c-1.129-2.799-2.303-5.321-3.225-7.191-6.57-13.359-19.577-27.006-32.403-34.109-.389-.213-.778-.427-1.167-.64s-.778-.427-1.167-.634c-1.098-.59-2.196-1.173-3.307-1.744-1.255-6.532-3.207-17.538-6.218-25.457-10.059-26.442-32.898-59.742-32.898-59.742 24.615 9.468 42.498 26.065 55.38 43.803z" fill="#33a02c"/><path d="m404.545 630.155 11.778-8.144 23.863 34.122-12.756 8.815-.923-1.336-15.329-19.646-21.316 16.873-1.104.777-9.751-13.81z" fill="#f6cc4b"/><path d="m421.719 575.276-25.67 17.745-21.886-31.292 25.507-17.632 9.581-6.626 9.061 12.964 12.826 18.335z" fill="#f6cc4b"/><path d="m397.58 731.956 27.446-18.975 8.515 12.061c-10.385 4.505-21.566 6.958-33.219 6.958-.916 0-1.832-.013-2.742-.044z" fill="#f6cc4b"/><path d="m375.431 262.876c9.406 6.952 24.873 26.529 24.873 26.529-13.805 27.452-17.256 65.979-17.256 65.979l-1.173.709c-2.228-3.67-4.649-7.341-7.279-10.962l.684-.502s-3.168-38.608-3.168-51.333c0-12.719-9.287-34.172-9.287-34.172s3.199-3.201 12.606 3.752z" fill="#33a02c"/><path d="m292.296 390.768c5.572-10.579 22.269-13.773 29.868-14.112.722-.031 1.437-.05 2.152-.05.433 0 .866.006 1.299.019h.031c.377.012.753.025 1.124.043.144.006.289.013.433.025.276.013.552.031.829.057.138.006.27.019.401.031.364.025.728.063 1.098.1.427.044.86.094 1.292.151.427.05.86.113 1.287.182.508.076 1.016.164 1.524.251.295.05.583.106.878.163 1.331.263 2.654.571 3.972.916.376.1.759.201 1.136.308 1.161.333 2.322.69 3.476 1.073.257.088.515.176.778.27.289.1.577.201.866.307.314.113.627.226.935.339.515.195 1.029.389 1.537.59.414.163.822.326 1.23.496.991.402 1.983.829 2.961 1.268.27.119.54.238.81.364 1.374.621 2.742 1.273 4.091 1.945.339.169.678.339 1.017.508s.671.339 1.01.515c1.11.571 2.208 1.154 3.307 1.744.389.207.778.42 1.167.634s.778.427 1.167.64c12.826 7.103 25.833 20.75 32.403 34.109.922 1.87 2.096 4.393 3.225 7.191l.251.094c-4.166 11.231-9.895 29.68-8.358 35.051-7.103-10.648-17.563-20.632-27.904-26.36-1.217-.672-2.44-1.343-3.677-1.995-1.782-11.264-6.72-22.872-13.014-30.91-10.239-13.071-38.52-23.707-54.602-15.957z" fill="#33a02c"/><path d="m397.147 519.494 21.315-16.873 14.445 18.498-23.656 16.352-12.424-17.758z" fill="#f6cc4b"/><path d="m400.322 488.014c-1.192 0-2.378.024-3.558.075.671-2.422 1.543-4.882 2.453-7.166 1.192-3.006 2.454-5.723 3.433-7.712 6.563-13.353 16.421-26.271 29.253-33.375 1.493-.828 2.999-1.644 4.518-2.44 11.728-6.137 24.177-11.038 37.284-10.448 7.599.339 24.296 3.533 29.874 14.112-16.088-7.749-44.368 2.887-54.603 15.957-7.492 9.563-13.058 24.183-13.673 37.253l-.564 1.229c-2.385-1.079-4.807-2.046-7.272-2.898-5.208-1.801-10.592-3.1-16.113-3.847-3.621-.489-7.305-.74-11.032-.74z" fill="#33a02c"/><path d="m374.163 561.729 21.886 31.292-14.131 9.77-15.335-19.64-21.315 16.872-8.691-12.317z" fill="#f6cc4b"/><path d="m291.908 440.847c5.578-10.573 22.275-13.773 29.874-14.112 13.422-.603 26.153 4.549 38.132 10.899 1.236.652 2.459 1.323 3.677 1.995 10.341 5.729 20.801 15.712 27.904 26.36 1.713 2.56 3.226 5.157 4.499 7.743.922 1.876 2.096 4.392 3.225 7.19-.91 2.284-1.782 4.744-2.453 7.166v.006c-12.775.546-24.93 4.041-36.036 9.945l-.483-1.186c.119-13.735-5.704-29.792-13.735-40.045-10.236-13.076-38.516-23.704-54.604-15.961z" fill="#33a02c"/><path d="m389.862 660.839 21.316-16.873 15.329 19.646.923 1.336-24.403 16.873-14.269-20.205z" fill="#f6cc4b"/><path d="m366.583 583.151 15.335 19.64-23.316 16.113-13.334-18.881z" fill="#f6cc4b"/><path d="m369.928 654.087-25.601 17.694-20.274-28.995 24.101-16.659 10.448-7.223 20.405 28.902z" fill="#f6cc4b"/><path d="m374.163 561.729-37.586 25.977-22.419-31.75 22.112-15.285 15.618-10.799z" fill="#f6cc4b"/><path d="m368.189 705.903-23.862-34.122 25.601-17.694 9.079-6.281 9.751 13.81 14.269 20.205z" fill="#f6cc4b"/><path d="m355.903 500.795 13.177 17.193-17.193 11.884-11.458-16.383-.471-.502c4.971-4.65 10.305-8.741 15.945-12.192z" fill="#f6cc4b"/><path d="m362.806 388.904c-.389-.213-.778-.427-1.167-.634.389.207.778.42 1.167.634z" fill="#fff"/><path d="m345.268 600.023 13.334 18.881-10.448 7.223-.953-1.381-15.33-19.64-21.315 16.867-.709.496-7.674-10.975 34.404-23.788z" fill="#f6cc4b"/><path d="m357.322 386.011c-.339-.169-.678-.339-1.017-.508.339.169.678.339 1.017.508z" fill="#fff"/><path d="m352.289 716.891 15.9-10.987 17.312 24.754c-11.884-2.172-23.084-6.922-33.212-13.767z" fill="#f6cc4b"/><path d="m352.214 383.558c-.27-.126-.54-.245-.81-.364.27.113.54.238.81.364z" fill="#fff"/><path d="m348.443 381.926c-.408-.169-.816-.333-1.23-.496.414.164.822.327 1.23.496z" fill="#fff"/><path d="m345.676 380.841c-.308-.113-.621-.226-.935-.339.314.107.621.226.935.339z" fill="#fff"/><path d="m343.875 380.195c-.264-.094-.521-.182-.778-.27.257.088.521.176.778.27z" fill="#fff"/><path d="m340.43 513.489 11.458 16.383-15.618 10.799-9.262-13.189-.006-.006c3.959-5.284 8.295-10.134 12.958-14.488z" fill="#f6cc4b"/><path d="m339.621 378.852c-.376-.107-.759-.208-1.136-.308.376.101.759.201 1.136.308z" fill="#fff"/><path d="m334.513 678.564 9.814-6.783 23.863 34.122-15.9 10.987c-17.87-12.079-32.384-30.689-41.4-53.21l7.479-5.923 15.335 19.64z" fill="#f6cc4b"/><path d="m334.513 377.628c-.295-.057-.583-.113-.878-.163.294.05.583.107.878.163z" fill="#fff"/><path d="m332.11 377.214c-.427-.069-.86-.131-1.287-.182.427.051.86.113 1.287.182z" fill="#fff"/><path d="m330.823 377.032c-.433-.057-.866-.107-1.292-.151.433.044.86.095 1.292.151z" fill="#fff"/><path d="m329.531 376.881c-.37-.038-.734-.075-1.098-.1.37.025.734.063 1.098.1z" fill="#fff"/><path d="m328.031 376.75c-.276-.025-.552-.044-.829-.057.277.013.553.032.829.057z" fill="#fff"/><path d="m326.77 376.668c-.37-.019-.747-.031-1.124-.043.371.012.748.024 1.124.043z" fill="#fff"/><path d="m324.316 376.605c.433 0 .866.006 1.299.019-.432-.012-.865-.019-1.299-.019z" fill="#fff"/><path d="m310.889 663.681c-6.212-15.505-9.82-32.867-10.115-51.221l1.399-.966 7.674 10.975 14.206 20.317 20.274 28.995-9.814 6.783-.809-1.167-15.335-19.64z" fill="#f6cc4b"/><path d="m310.556 621.973 21.315-16.867 15.33 19.64.953 1.381-24.101 16.659-14.206-20.317z" fill="#f6cc4b"/><path d="m314.158 555.956-4.279 2.956c.006-.013.006-.02.012-.032.377-.979.753-1.957 1.148-2.924 4.21-10.422 9.601-20.004 15.963-28.48l.006.006 9.262 13.189z" fill="#f6cc4b"/><path d="m300.761 609.479c.056-18.046 3.313-35.176 9.117-50.567l4.279-2.956 22.419 31.75-34.404 23.788z" fill="#f6cc4b"/><g fill="none"><path d="m309.891 558.88c.377-.979.753-1.957 1.148-2.924" stroke="#000" stroke-width="13.2759"/><path d="m396.765 488.089c1.18-.051 2.366-.075 3.558-.075 3.727 0 7.411.251 11.031.74 5.521.747 10.905 2.046 16.113 3.847 2.466.853 4.888 1.819 7.272 2.898 6.62 2.987 12.901 6.809 18.774 11.363 18.579 14.413 32.998 36.155 40.541 61.907 2.466 8.396 4.197 17.218 5.101 26.354.483 4.876.734 9.845.734 14.884 0 1.644-.024 3.281-.081 4.913-.646 20.048-5.239 38.847-12.857 55.274-4.756 10.246-10.686 19.57-17.569 27.69-10.121 11.947-22.307 21.296-35.841 27.157-10.385 4.505-21.566 6.958-33.219 6.958-.916 0-1.832-.013-2.742-.044-4.091-.138-8.125-.577-12.079-1.299-11.884-2.171-23.085-6.921-33.212-13.767-17.87-12.079-32.384-30.689-41.4-53.21-6.212-15.505-9.82-32.867-10.115-51.221-.012-.815-.019-1.631-.019-2.453 0-.176 0-.352.006-.527.056-18.046 3.313-35.176 9.117-50.567.006-.013.006-.02.012-.032" stroke="#000" stroke-width="13.2759"/><path d="m311.039 555.956c4.21-10.422 9.601-20.004 15.963-28.48 3.959-5.284 8.295-10.134 12.958-14.488 4.97-4.65 10.303-8.741 15.944-12.192 1.588-.966 3.194-1.889 4.826-2.755 11.106-5.904 23.26-9.399 36.036-9.945" stroke="#000" stroke-width="13.2759"/><path d="m396.765 488.095v-.006c.671-2.422 1.543-4.882 2.453-7.166 1.192-3.006 2.454-5.723 3.433-7.712 6.563-13.353 16.421-26.271 29.253-33.375 1.493-.828 2.999-1.644 4.518-2.44 11.728-6.137 24.177-11.038 37.284-10.448 7.599.339 24.296 3.533 29.874 14.112-16.088-7.749-44.368 2.887-54.603 15.957-7.492 9.563-13.058 24.183-13.673 37.253" stroke="#000" stroke-width="13.2759"/><path d="m399.218 480.923c-1.129-2.799-2.303-5.314-3.225-7.19-1.273-2.586-2.786-5.184-4.499-7.743-7.103-10.648-17.563-20.632-27.904-26.36-1.217-.672-2.44-1.343-3.677-1.995-11.979-6.351-24.71-11.502-38.132-10.899-7.599.339-24.295 3.539-29.874 14.112 16.088-7.743 44.369 2.886 54.603 15.963 8.032 10.253 13.854 26.31 13.735 40.045" stroke="#000" stroke-width="13.2759"/><path d="m391.506 466.046c-.006-.02-.013-.038-.013-.057-1.537-5.371 4.192-23.819 8.358-35.051 1.305-3.521 2.454-6.331 3.182-7.806.903-1.833 1.863-3.658 2.893-5.459 6.432-11.339 15.298-21.786 26.36-27.917 2.955-1.638 5.961-3.225 9.017-4.7 10.403-5.032 21.353-8.703 32.792-8.195 7.599.345 24.296 3.539 29.867 14.118-16.082-7.75-44.362 2.886-54.597 15.957-6.212 7.931-11.1 19.332-12.944 30.458" stroke="#000" stroke-width="13.2759"/><path d="m399.601 430.845c-1.129-2.799-2.303-5.321-3.225-7.191-6.57-13.359-19.577-27.006-32.403-34.109-.389-.213-.778-.427-1.167-.64s-.778-.427-1.167-.634c-1.098-.59-2.196-1.173-3.307-1.744-.339-.176-.671-.345-1.01-.515s-.678-.339-1.017-.508c-1.349-.671-2.717-1.324-4.091-1.945-.27-.126-.54-.245-.81-.364-.979-.439-1.97-.866-2.961-1.268-.408-.169-.816-.333-1.23-.496-.508-.201-1.022-.395-1.537-.59-.314-.113-.621-.232-.935-.339-.289-.106-.577-.207-.866-.307-.264-.094-.521-.182-.778-.27-1.154-.383-2.315-.74-3.476-1.073-.376-.107-.759-.208-1.136-.308-1.318-.345-2.642-.653-3.972-.916-.295-.057-.583-.113-.878-.163-.508-.088-1.016-.176-1.524-.251-.427-.069-.86-.131-1.287-.182-.433-.057-.859-.107-1.292-.151-.364-.038-.728-.075-1.098-.1-.132-.013-.264-.025-.401-.031-.276-.025-.552-.044-.829-.057-.144-.013-.289-.019-.433-.025-.376-.019-.753-.031-1.124-.043-.012 0-.025 0-.031 0-.433-.013-.866-.019-1.299-.019-.715 0-1.431.019-2.152.05-7.599.339-24.295 3.533-29.868 14.112 16.082-7.75 44.362 2.886 54.603 15.957 6.293 8.038 11.231 19.646 13.014 30.91" stroke="#000" stroke-width="13.2759"/><path d="m424.919 347.108c12.888-17.801 30.809-34.467 55.5-43.961 0 0-22.84 33.3-32.898 59.742-3.012 7.913-4.963 15.637-6.218 22.169v.006" stroke="#000" stroke-width="13.2759"/><path d="m400.109 396.302c0-.006 0-.006.006-.013 4.631-13.835 12.38-32.032 24.804-49.175" stroke="#000" stroke-width="13.2759"/><path d="m405.618 417.498s-1.405-8.571-5.503-21.209c-3.646-11.238-9.418-25.688-18.241-40.196-2.228-3.67-4.649-7.341-7.279-10.962-12.882-17.739-30.765-34.335-55.38-43.804 0 0 22.84 33.3 32.898 59.742 3.012 7.918 4.963 18.924 6.218 25.457" stroke="#000" stroke-width="13.2759"/><path d="m383.048 355.384s3.451-38.527 17.256-65.979c1.048-2.096 2.165-4.123 3.338-6.061 16.597-27.421 13.277-21.579 13.277-21.579s5.616 9.839 9.958 31.531c2.836 14.187.264 38.32-1.958 53.812v.006" stroke="#000" stroke-width="13.2759"/><path d="m400.304 289.405s-15.467-19.577-24.873-26.529c-9.406-6.953-12.606-3.752-12.606-3.752s9.287 21.453 9.287 34.172c0 12.725 3.168 51.333 3.168 51.333" stroke="#000" stroke-width="13.2759"/><path d="m300.755 612.473.018-.013 1.4-.966 34.404-23.788 37.586-25.977 25.507-17.632 9.581-6.626 23.656-16.352 9.776-6.758 10.818-7.479" stroke="#000" stroke-width="8.8506"/><path d="m307.582 560.499 2.296-1.587 4.28-2.956 22.112-15.285 15.618-10.799 17.193-11.884 17.889-12.374 24.384-16.854" stroke="#000" stroke-width="8.8506"/><path d="m310.707 652.017 13.346-9.231 24.101-16.659 10.448-7.223 23.316-16.113 14.131-9.77 25.67-17.745 9.419-6.506 23.756-16.428 9.675-6.683 10.523-7.278" stroke="#000" stroke-width="8.8506"/><path d="m328.426 682.775 6.087-4.211 9.814-6.783 25.601-17.694 9.079-6.281 25.538-17.651 11.778-8.144 25.419-17.576 9.663-6.676 24.547-16.967 8.885-6.144 7.975-5.515" stroke="#000" stroke-width="8.8506"/><path d="m350.532 718.108 1.757-1.217 15.9-10.988 34.838-24.082 24.403-16.873 12.756-8.815 35.082-24.252 24.534-16.961" stroke="#000" stroke-width="8.8506"/><path d="m397.518 732 .062-.044 27.446-18.975 37.021-25.587 24.891-17.206" stroke="#000" stroke-width="8.8506"/><path d="m379.302 494.652 7.668 10.962 9.857 14.099 12.424 17.758 9.061 12.964 12.826 18.335 7.78 11.125 12.487 17.864 23.863 34.122 14.67 20.97" stroke="#000" stroke-width="8.8506"/><path d="m426.143 490.705 1.324 1.896 15.216 21.76 21.886 31.298 20.268 28.989 14.318 20.475 1.663 2.378" stroke="#000" stroke-width="8.8506"/><path d="m340.43 513.489 11.458 16.383 22.275 31.857 21.886 31.292 20.274 28.99 23.863 34.122 21.861 31.261 7.335 10.491 1.23 1.757" stroke="#000" stroke-width="8.8506"/><path d="m314.158 555.956 22.419 31.75 8.691 12.317 13.334 18.881 20.405 28.902 9.751 13.81 14.269 20.205 21.999 31.16 8.515 12.061" stroke="#000" stroke-width="8.8506"/><path d="m300.761 609.479 1.412 2.015 7.674 10.975 14.206 20.317 20.274 28.995 23.862 34.122 17.312 24.754.942 1.343" stroke="#000" stroke-width="8.8506"/><path d="m345.268 600.023 21.315-16.872 15.335 19.64" stroke="#000" stroke-width="8.8506"/><path d="m326.801 566.152 21.316-16.872 15.329 19.646" stroke="#000" stroke-width="8.8506"/><path d="m406.239 603.123 21.316-16.866 14.187 18.178 1.142 1.461" stroke="#000" stroke-width="8.8506"/><path d="m385.188 572.659 21.315-16.866 15.216 19.483.119.157" stroke="#000" stroke-width="8.8506"/><path d="m363.684 542.184 21.316-16.873 14.67 18.786.665.853" stroke="#000" stroke-width="8.8506"/><path d="m418.708 550.158 21.314-16.873 14.872 19.057.458.59" stroke="#000" stroke-width="8.8506"/><path d="m397.147 519.494 21.315-16.873 14.445 18.498.891 1.142" stroke="#000" stroke-width="8.8506"/><path d="m440.11 579.06 21.316-16.872 14.526 18.604.809 1.035" stroke="#000" stroke-width="8.8506"/><path d="m368.095 627.639 21.309-16.873 15.141 19.389.195.251" stroke="#000" stroke-width="8.8506"/><path d="m354.052 684.896 21.316-16.867 15.329 19.64" stroke="#000" stroke-width="8.8506"/><path d="m389.862 660.839 21.316-16.873 15.329 19.646" stroke="#000" stroke-width="8.8506"/><path d="m429.079 634.886 21.316-16.872 15.329 19.639" stroke="#000" stroke-width="8.8506"/><path d="m462.73 607.66 21.316-16.866 15.329 19.64" stroke="#000" stroke-width="8.8506"/><path d="m449.83 666.624 21.316-16.873 15.334 19.64" stroke="#000" stroke-width="8.8506"/><path d="m414.133 691.842 21.315-16.873 15.336 19.646" stroke="#000" stroke-width="8.8506"/><path d="m377.997 716.094 21.315-16.873 15.335 19.646" stroke="#000" stroke-width="8.8506"/><path d="m334.011 652.242 21.315-16.873 14.602 18.718.727.929" stroke="#000" stroke-width="8.8506"/><path d="m310.556 621.973 21.315-16.867 15.33 19.64" stroke="#000" stroke-width="8.8506"/><path d="m309.106 665.093 1.783-1.412 7.479-5.923 15.336 19.639" stroke="#000" stroke-width="8.8506"/><path d="m319.008 595.324-13.133-18.668" stroke="#000" stroke-width="8.8506"/><path d="m353.532 711.457-13.134-18.674" stroke="#000" stroke-width="8.8506"/><path d="m336.27 540.671-9.262-13.19" stroke="#000" stroke-width="8.8506"/><path d="m369.081 517.988-13.178-17.193" stroke="#000" stroke-width="8.8506"/></g></svg>