<svg enable-background="new 0 0 850.394 850.394" height="850.394" viewBox="0 0 850.394 850.394" width="850.394" xmlns="http://www.w3.org/2000/svg"><path d="m402.619 102.284c127.232 0 195.476 20.617 195.476 46.072 0 25.063-66.122 45.433-189.562 46.058-1.947.015-3.923.015-5.914.015s-3.966 0-5.928-.015c-1.599-.015-3.182-.015-4.766-.029-.349-.015-.712-.015-1.061-.015-119.706-1.235-183.736-21.358-183.736-46.014 0-25.455 68.23-46.072 195.491-46.072z" fill="#c8c8c8"/><path d="m154.169 705.479-.566-1.031v-12.074c31.775 33.389 112.18 58.132 249.597 58.132 131.853 0 208.451-22.782 245.341-54.121v8.106l-.843.684c3.835 4.91 5.841 10.011 5.841 15.212 0 41.655-93.815 75.421-252.649 75.421s-252.663-33.766-252.663-75.421c0-4.68 2.703-10.331 5.942-14.908z" fill="#7a7878"/><path d="m207.128 148.356c0 24.656 64.03 44.779 183.736 46.014-126.709-1.104-211.037-19.368-237.262-44.067-5.754-5.419-8.703-11.144-8.703-17.057 0-33.795 96.372-61.183 258.3-61.183 161.942 0 258.301 27.388 258.301 61.183 0 7.308-4.505 14.326-13.222 20.82-31.093 23.218-115.74 39.883-239.747 40.348 123.44-.625 189.562-20.995 189.562-46.058 0-25.455-68.243-46.072-195.476-46.072-127.259 0-195.489 20.617-195.489 46.072z" fill="#7a7878"/><path d="m648.541 154.415v49.458c-36.89 24.99-113.488 43.137-245.341 43.137-137.417 0-217.822-19.716-249.597-46.333v-50.373c26.225 24.7 110.553 42.963 237.262 44.067.349 0 .712 0 1.061.015 1.583.014 3.167.014 4.766.029 1.961.015 3.937.015 5.928.015 1.99 0 3.966 0 5.914-.015 124.006-.465 208.654-17.13 239.747-40.348z" fill="#7a7878"/><path d="m648.541 203.872v492.512c-36.89 31.339-113.488 54.121-245.341 54.121-137.417 0-217.822-24.743-249.597-58.132v-491.697c31.775 26.618 112.18 46.333 249.597 46.333 131.853 0 208.451-18.147 245.341-43.137z" fill="#ffffc2"/><path d="m390.865 194.37c-126.709-1.104-211.037-19.368-237.262-44.067-5.754-5.419-8.703-11.144-8.703-17.057 0-33.795 96.372-61.183 258.3-61.183 161.942 0 258.301 27.388 258.301 61.183 0 7.308-4.505 14.326-13.222 20.82-31.093 23.218-115.74 39.883-239.747 40.348" fill="none" stroke="#231f20" stroke-width="21"/><path d="m396.691 194.414c-1.599-.015-3.182-.015-4.766-.029" fill="none" stroke="#231f20" stroke-width="21"/><path d="m648.541 203.872c-36.89 24.99-113.488 43.137-245.341 43.137-137.417 0-217.822-19.716-249.597-46.333l-.015-.015" fill="none" stroke="#231f20" stroke-width="21"/><path d="m648.541 696.384c-36.89 31.339-113.488 54.121-245.341 54.121-137.417 0-217.822-24.743-249.597-58.132l-.015-.015" fill="none" stroke="#231f20" stroke-width="21"/><path d="m153.603 148.08v2.223 50.373 491.697 12.074" fill="none" stroke="#231f20" stroke-width="21"/><path d="m648.541 154.415v49.457 492.512 8.106" fill="none" stroke="#231f20" stroke-width="21"/><path d="m647.698 705.174c3.835 4.91 5.841 10.011 5.841 15.212 0 41.655-93.815 75.421-252.649 75.421s-252.663-33.766-252.663-75.421c0-4.679 2.703-10.33 5.942-14.907.218-.305.436-.61.654-.9" fill="none" stroke="#231f20" stroke-width="21"/><path d="m390.865 194.37c-119.706-1.235-183.736-21.358-183.736-46.014 0-25.455 68.229-46.072 195.491-46.072 127.232 0 195.476 20.617 195.476 46.072 0 25.063-66.122 45.433-189.562 46.058-1.947.015-3.923.015-5.914.015s-3.966 0-5.928-.015c-1.599-.015-3.182-.015-4.766-.029-.349-.015-.712-.015-1.061-.015z" fill="none" stroke="#231f20" stroke-width="21"/><path d="m0 0h850.394v850.394h-850.394z" fill="none"/><path d="m515.979 457.5c-21.979-21.891 7.546-70.389 35.422-51.728 20.539 13.747 16.21 54.824-8.999 57.736-.042-.042-.084-.077-.126-.119-.155-.149-.316-.299-.484-.448-.041-.036-.083-.072-.125-.108-.084-.077-.174-.155-.257-.221-.186-.162-.371-.317-.557-.467-.125-.102-.257-.203-.389-.299-.119-.096-.245-.191-.377-.281-.137-.107-.28-.209-.424-.305-.191-.138-.383-.27-.58-.389-.114-.084-.233-.155-.353-.228-.138-.089-.281-.179-.425-.257-.186-.113-.365-.221-.557-.323-.113-.065-.232-.131-.353-.19-.203-.114-.406-.216-.609-.323-.3-.144-.604-.287-.909-.425-.358-.161-.724-.311-1.095-.454-3.707-1.441-7.874-2.135-12.084-2.033-.233.006-.473.012-.705.024-.204.012-.407.023-.61.035-.167.006-.335.019-.502.036-.155.012-.305.024-.461.036-.257.029-.508.054-.759.083-.287.03-.58.066-.867.114-.317.042-.634.09-.944.149-.019 0-.03.006-.048.006-.61.109-1.22.23-1.823.379z" fill="#00e800"/><path d="m549.685 479.426c-.019-.233-.042-.466-.072-.693.03.227.053.459.072.693z" fill="#fff"/><path d="m549.547 478.206c-.024-.197-.054-.395-.084-.592.03.198.059.395.084.592z" fill="#fff"/><path d="m549.409 477.297c-.03-.209-.065-.412-.107-.615.042.203.077.412.107.615z" fill="#fff"/><path d="m549.206 476.203c-.042-.203-.084-.4-.132-.598.048.198.09.395.132.598z" fill="#fff"/><path d="m548.996 475.265c-.048-.197-.096-.389-.149-.58.053.191.101.382.149.58z" fill="#fff"/><path d="m548.751 474.338c-.041-.156-.089-.312-.131-.467.042.155.09.311.131.467z" fill="#fff"/><path d="m548.62 473.871c-.054-.161-.102-.323-.156-.484.055.161.102.323.156.484z" fill="#fff"/><path d="m548.464 473.387c-.054-.173-.107-.341-.167-.508.059.167.113.335.167.508z" fill="#fff"/><path d="m547.669 471.246c-.155-.377-.322-.747-.502-1.112.18.365.347.735.502 1.112z" fill="#fff"/><path d="m545.989 467.97c.316.521.615 1.052.896 1.597-.281-.546-.579-1.077-.896-1.597z" fill="#fff"/><path d="m549.277 488.174c-2.332 12.969-12.634 18.739-23.517 23.289-1.943-.771-4.024-1.477-6.152-2.26-5.125-1.878-10.715-3.324-16.097-3.438-10.255-9.118-11.994-27.032-3.259-38.459.209-.269.419-.538.64-.795.084-.107.18-.216.275-.323.209-.245.425-.49.646-.724.27-.293.55-.58.837-.854.258-.257.526-.503.796-.748.048-.041.089-.083.137-.119.252-.228.515-.442.771-.658.048-.035.096-.077.144-.113.281-.228.568-.442.861-.657.316-.233.64-.461.963-.676.328-.222.657-.431.992-.634.329-.203.664-.395 1.005-.586.006 0 .012-.006.018-.013.287-.155.58-.311.873-.46.072-.036.144-.071.215-.107.335-.162.664-.323 1.005-.473.341-.155.682-.299 1.028-.442.066-.024.126-.048.186-.071.311-.126.628-.239.944-.354.013-.006.024-.012.042-.012.306-.113.616-.222.933-.316.078-.024.156-.055.233-.078.347-.107.693-.209 1.047-.305.376-.102.753-.197 1.136-.287.604-.144 1.214-.27 1.824-.377.018 0 .029-.006.048-.006.316-.054.627-.107.944-.149.287-.042.574-.084.867-.114.251-.029.502-.054.759-.083.149-.012.306-.024.461-.036.167-.018.335-.03.502-.036.203-.012.406-.023.61-.035.232-.013.472-.019.705-.024 4.21-.102 8.377.592 12.084 2.033.371.144.736.293 1.095.454.305.138.609.281.909.425.209.107.412.209.609.323.12.06.239.125.353.19.186.103.371.21.557.323.144.078.287.168.425.257.119.072.232.144.353.228.197.119.389.251.58.389.144.096.287.197.424.305.132.09.258.186.377.281.132.096.264.197.389.299.191.149.377.305.557.467.083.065.173.144.257.221.209.18.412.365.609.557.042.042.084.077.126.119.186.18.364.359.538.538.119.12.233.239.347.365 1.017 1.094 1.92 2.284 2.703 3.558.316.521.615 1.052.896 1.597.096.185.191.376.281.567.18.365.347.735.502 1.112.228.532.437 1.076.628 1.633.06.167.113.335.167.508.055.161.103.323.156.484.042.155.09.311.131.467.036.113.066.227.096.347.054.191.102.383.149.58.03.107.055.221.078.341.048.197.09.395.132.598.035.155.065.317.096.479.042.203.077.406.107.615.023.108.036.21.054.317.03.197.06.395.084.592.023.174.048.347.065.526.03.228.054.46.072.693.262 2.819.13 5.767-.408 8.745z" fill="#00e800"/><path d="m543.286 464.412c-.113-.126-.228-.245-.347-.365.12.12.234.239.347.365z" fill="#fff"/><path d="m542.275 463.39c-.197-.191-.4-.377-.609-.557.042.036.084.072.125.108.168.15.329.299.484.449z" fill="#fff"/><path d="m541.409 462.612c-.18-.162-.365-.317-.557-.467.186.15.372.305.557.467z" fill="#fff"/><path d="m540.853 462.146c-.125-.102-.257-.203-.389-.299.132.095.264.197.389.299z" fill="#fff"/><path d="m540.087 461.565c-.137-.107-.28-.209-.424-.305.144.096.287.198.424.305z" fill="#fff"/><path d="m539.663 461.261c-.191-.138-.383-.27-.58-.389.197.119.389.251.58.389z" fill="#fff"/><path d="m539.083 460.872c-.12-.084-.233-.155-.353-.228.12.073.239.144.353.228z" fill="#fff"/><path d="m538.73 460.645c-.138-.089-.281-.179-.425-.257.144.078.288.168.425.257z" fill="#fff"/><path d="m538.306 460.388c-.186-.113-.371-.221-.557-.323.191.102.371.209.557.323z" fill="#fff"/><path d="m537.396 459.874c-.197-.114-.4-.216-.609-.323.203.107.406.209.609.323z" fill="#fff"/><path d="m535.878 459.126c-.358-.161-.724-.311-1.095-.454.371.143.737.293 1.095.454z" fill="#fff"/><path d="m522.699 456.639c-.233.006-.473.012-.705.024.233-.013.472-.018.705-.024z" fill="#fff"/><path d="m521.384 456.698c-.167.006-.335.019-.502.036.167-.017.335-.03.502-.036z" fill="#fff"/><path d="m520.882 456.734c-.155.012-.312.024-.461.036.156-.011.306-.024.461-.036z" fill="#fff"/><path d="m519.662 456.854c-.293.03-.58.072-.867.114.287-.048.58-.084.867-.114z" fill="#fff"/><path d="m518.795 456.968c-.317.042-.628.096-.944.149.31-.059.627-.107.944-.149z" fill="#fff"/><path d="m471.57 550.706c4.604-2.583 10.362-3.558 17.077-1.985h.006c2.487 2.32 5.375 4.144 8.526 5.268 5.25 1.865 10.673 2.374 15.762 1.524l.077.449c11.894 7.42 3.666 29.688-3.438 37.556-4.216 4.67-10.117 6.979-16.354 7.492-7.354.61-15.17-1.273-21.221-4.729-.442-.251-.879-.515-1.298-.789-.425-.275-.831-.557-1.226-.85-.454-.328-.891-.676-1.31-1.034-.132-.107-.263-.215-.395-.335-.855-.747-1.645-1.543-2.368-2.38-.119-.138-.239-.274-.353-.418-.144-.174-.287-.347-.419-.521-.119-.144-.232-.293-.341-.442-.048-.06-.089-.126-.137-.186-.108-.144-.21-.293-.312-.437-.054-.077-.107-.155-.161-.233-.024-.023-.042-.054-.054-.077-.03-.036-.054-.072-.066-.107-.161-.233-.311-.467-.46-.706-.024-.023-.036-.054-.048-.078-.168-.269-.329-.544-.484-.818-.161-.293-.323-.586-.473-.879-.149-.3-.299-.599-.437-.897s-.274-.604-.4-.909-.245-.609-.364-.92c-.108-.3-.216-.593-.317-.897-.018-.054-.036-.107-.048-.161-.09-.27-.173-.544-.251-.813-.096-.316-.18-.634-.257-.95-.162-.641-.3-1.28-.413-1.92-.06-.323-.107-.651-.149-.98-.048-.323-.084-.646-.119-.975-.036-.311-.061-.616-.078-.927-.018-.239-.03-.473-.036-.712-.353-7.707 2.41-15.492 7.684-20.7.138-.138.281-.275.419-.406.992-.934 2.068-1.771 3.223-2.512.338-.211.672-.415 1.013-.606z" fill="#00e800"/><path d="m517.803 457.123c-.61.107-1.221.233-1.824.377.603-.149 1.213-.27 1.824-.377z" fill="#fff"/><path d="m515.979 457.5c-.383.09-.76.186-1.136.287.376-.108.753-.204 1.136-.287z" fill="#fff"/><path d="m514.843 457.787c-.354.096-.7.197-1.047.305.347-.108.7-.216 1.047-.305z" fill="#fff"/><path d="m513.563 458.17c-.316.095-.627.203-.933.316.306-.113.616-.221.933-.316z" fill="#fff"/><path d="m512.588 458.498c-.316.114-.634.228-.944.354.31-.126.627-.247.944-.354z" fill="#fff"/><path d="m511.458 458.923c-.347.144-.688.287-1.028.442.341-.155.681-.299 1.028-.442z" fill="#fff"/><path d="m510.43 459.365c-.341.149-.67.311-1.005.473.329-.162.664-.323 1.005-.473z" fill="#fff"/><path d="m509.21 459.945c-.293.149-.586.305-.873.46.287-.155.58-.31.873-.46z" fill="#fff"/><path d="m508.319 460.418c-.341.191-.676.383-1.005.586.33-.203.665-.401 1.005-.586z" fill="#fff"/><path d="m507.314 461.004c-.335.203-.664.412-.992.634.323-.222.657-.437.992-.634z" fill="#fff"/><path d="m506.322 461.638c-.323.215-.646.442-.963.676.317-.234.634-.461.963-.676z" fill="#fff"/><path d="m505.359 462.313c-.293.215-.58.43-.861.657.281-.227.568-.448.861-.657z" fill="#fff"/><path d="m504.354 463.084c-.257.216-.52.431-.771.658.252-.227.509-.442.771-.658z" fill="#fff"/><path d="m503.512 505.765c5.382.114 10.972 1.561 16.097 3.438 2.128.783 4.209 1.489 6.152 2.26 7.946 3.157 13.508 7.367 9.848 21.963-3.259 12.98-12.257 20.365-22.667 22.087-5.089.85-10.512.341-15.762-1.524-3.151-1.124-6.039-2.947-8.526-5.268h-.006c-8.275-7.726-11.977-20.976-5.185-32.354 4.861-8.144 12.233-10.775 20.049-10.602z" fill="#00e800"/><path d="m503.446 463.861c-.27.245-.538.491-.796.748.258-.256.527-.508.796-.748z" fill="#fff"/><path d="m502.65 464.609c-.287.274-.567.562-.837.854.27-.292.55-.579.837-.854z" fill="#fff"/><path d="m501.813 465.464c-.221.233-.437.479-.646.724.204-.246.419-.491.646-.724z" fill="#fff"/><path d="m501.168 466.188c-.096.107-.191.216-.275.323.089-.108.179-.216.275-.323z" fill="#fff"/><path d="m500.893 466.511c-.221.257-.431.526-.64.795.209-.269.419-.538.64-.795z" fill="#fff"/><path d="m463.851 588.89c.102.149.203.293.312.437.048.06.089.126.137.186.108.149.222.299.341.442.132.174.27.347.419.521.113.144.233.28.353.418.724.837 1.513 1.633 2.368 2.38.132.12.263.228.395.335.419.358.855.706 1.31 1.034.395.293.807.574 1.226.85.419.274.855.538 1.298.789 6.051 3.456 13.866 5.34 21.221 4.729l.035.395c13.657 14.375-6.23 37.951-24.449 39.219-3.946.275-7.814-.49-11.247-2.631-.651-.406-1.304-.831-1.949-1.279-.174-.12-.341-.239-.515-.365-.203-.138-.406-.281-.604-.431-1.441-1.052-2.858-2.206-4.209-3.443-.198-.18-.396-.359-.587-.545-.071-.071-.149-.144-.221-.215-.275-.257-.544-.526-.808-.795-.269-.27-.538-.545-.795-.825-.228-.239-.448-.484-.67-.729-.203-.228-.406-.455-.598-.688-.042-.042-.078-.09-.113-.132-.239-.281-.479-.563-.706-.855-.029-.029-.054-.06-.077-.096-.191-.239-.383-.484-.568-.729-.132-.173-.264-.353-.395-.538-.12-.155-.233-.316-.341-.479-.197-.274-.383-.544-.568-.825-.03-.041-.06-.083-.077-.125-.233-.347-.455-.699-.67-1.059-.299-.49-.58-.986-.844-1.488-.125-.239-.251-.479-.364-.718-.138-.27-.27-.538-.389-.813-.12-.257-.233-.514-.341-.777-.09-.209-.18-.418-.257-.634-.078-.18-.144-.364-.21-.55-.077-.216-.155-.431-.227-.652-.072-.215-.144-.43-.203-.646-.061-.18-.114-.364-.162-.55-.029-.102-.06-.197-.084-.299-.06-.222-.113-.449-.167-.676-.06-.251-.113-.496-.161-.741-.019-.078-.03-.156-.042-.233-.048-.228-.084-.455-.12-.688-.041-.245-.077-.49-.107-.735-.023-.222-.048-.449-.065-.67-.012-.06-.019-.12-.019-.18-.018-.155-.023-.311-.035-.473-.013-.161-.019-.316-.024-.478-.018-.359-.023-.718-.018-1.083 0-.191.006-.383.018-.573.006-.233.019-.461.042-.688.933-11.719 13.023-20.599 24.527-20.604h.004z" fill="#00e800"/><path d="m503.171 297.487c-5.202 9.752-29.562-10.213-39.786 1.896-.144-2.045-.515-3.803-1.244-5.083-.203-.353-.406-.688-.622-.999-.197-.293-.395-.568-.604-.825-.066-.09-.138-.18-.216-.263-.137-.167-.28-.329-.43-.479-.072-.078-.144-.155-.222-.221-.078-.078-.149-.149-.228-.215-.149-.137-.299-.269-.448-.382-.077-.066-.155-.126-.233-.18-.077-.06-.155-.113-.227-.161-.078-.06-.156-.108-.233-.156-.078-.054-.161-.102-.239-.144-.078-.048-.155-.096-.233-.131-.077-.042-.155-.084-.227-.12-.186-.09-.371-.173-.557-.245 8.396-6.571 22.632-9.549 32.533-5.74 16.929 6.505 16.929 6.505 13.216 13.448z" fill="#00e800"/><path d="m416.644 654.095c-.006-.013-.006-.019-.012-.03-.072-.203-.144-.412-.209-.622-.06-.179-.113-.364-.161-.544-.084-.263-.149-.526-.209-.795-.048-.209-.096-.425-.131-.64-.042-.216-.078-.431-.108-.646-.006-.035-.012-.071-.018-.102-.138-1.017-.173-2.057-.09-3.115.066-.771.186-1.555.371-2.35.144-.598.323-1.202.538-1.817.221-.616.479-1.238.777-1.872.197-.418.418-.849.658-1.279s.497-.861.771-1.304c.12-.186.239-.377.365-.562.078-.12.155-.233.233-.354 4.933-7.24 14.237-14.554 24.205-13.375.048.071.089.137.144.209.018.042.047.084.077.125.18.281.371.551.568.825.107.162.221.323.341.479.125.18.263.359.395.538.191.245.377.49.568.729.023.036.048.066.077.096.233.293.467.574.706.855.035.042.071.09.113.132.191.232.395.46.598.688.222.245.442.49.67.729.257.28.526.556.795.825.264.269.532.538.808.795.071.071.149.144.221.215.191.18.389.365.587.545 1.351 1.237 2.768 2.392 4.209 3.443.203.149.4.293.604.431.174.126.341.251.515.365.646.448 1.298.873 1.949 1.279 3.433 2.141 7.301 2.906 11.247 2.631l.078.957c13.411 6.763 3.713 27.977-5.298 34.118-7.737 5.268-14.596 5.913-20.97 3.653-5.585-1.974-10.793-6.177-15.899-11.445-.843-.866-1.668-1.733-2.457-2.595-.508-.556-1.004-1.112-1.495-1.662-.018-.018-.03-.042-.048-.06-.472-.551-.933-1.095-1.375-1.645-.347-.425-.676-.855-.993-1.285-.102-.138-.203-.27-.299-.407-.425-.58-.825-1.16-1.196-1.746-.09-.144-.18-.287-.269-.437-.443-.723-.843-1.452-1.196-2.188-.054-.119-.108-.232-.162-.347-.222-.476-.42-.954-.593-1.438z" fill="#00e800"/><g fill="#fff"><path d="m470.56 551.31c.335-.209.67-.412 1.011-.604-.342.191-.676.395-1.011.604z"/><path d="m469.483 594.642c.395.293.801.574 1.226.85-.419-.276-.831-.557-1.226-.85z"/><path d="m467.779 593.272c.132.12.263.228.395.335-.132-.107-.263-.214-.395-.335z"/><path d="m467.337 553.821c-.138.131-.281.269-.419.406.138-.137.275-.275.419-.406z"/><path d="m465.059 590.475c.113.144.233.28.353.418-.12-.138-.24-.275-.353-.418z"/><path d="m464.64 589.954c.132.174.275.347.419.521-.15-.174-.288-.347-.419-.521z"/><path d="m464.299 589.512c.108.149.222.299.341.442-.119-.143-.233-.293-.341-.442z"/><path d="m463.851 588.89c.102.144.203.293.312.437-.109-.144-.211-.288-.312-.437z"/><path d="m463.689 588.656c.054.078.107.156.161.233h-.006c-.053-.076-.107-.155-.155-.233z"/><path d="m463.569 588.472c-.167-.233-.316-.467-.46-.706.15.239.299.472.46.706z"/><path d="m462.577 586.869c.155.274.316.55.484.818-.173-.268-.334-.543-.484-.818z"/><path d="m462.104 585.99c.149.293.312.586.473.879-.167-.287-.329-.58-.473-.879z"/><path d="m461.668 585.093c.138.299.287.598.437.897-.156-.293-.305-.593-.437-.897z"/><path d="m461.268 584.184c.126.306.263.61.4.909-.144-.299-.28-.604-.4-.909z"/><path d="m460.903 583.264c.119.311.238.615.364.92-.131-.305-.25-.61-.364-.92z"/><path d="m461.519 293.301c-.197-.293-.4-.568-.604-.825.209.257.406.532.604.825z"/><path d="m460.586 582.366c.102.305.209.598.317.897-.114-.299-.221-.598-.317-.897z"/><path d="m460.287 581.392c.078.27.161.544.251.813-.096-.269-.18-.538-.251-.813z"/><path d="m460.27 291.734c.149.149.293.311.43.479-.144-.168-.288-.329-.43-.479z"/><path d="m460.03 580.441c.077.316.161.634.257.95-.096-.316-.18-.627-.257-.95z"/><path d="m460.27 291.734c-.078-.078-.15-.149-.222-.221.078.066.149.144.222.221z"/><path d="m459.82 291.298c.078.066.149.138.228.215-.078-.077-.15-.143-.228-.215z"/><path d="m459.617 578.521c.113.64.251 1.279.413 1.92-.162-.633-.3-1.274-.413-1.92z"/><path d="m459.349 576.566c.035.329.071.651.119.975-.048-.323-.084-.651-.119-.975z"/><path d="m459.372 290.916c-.077-.06-.155-.12-.233-.18.078.054.156.114.233.18z"/><path d="m459.234 574.928c.006.239.019.473.036.712-.017-.24-.03-.473-.036-.712z"/><path d="m459.139 290.736c-.071-.054-.149-.113-.227-.161.071.048.15.101.227.161z"/><path d="m458.912 290.575c-.078-.054-.156-.108-.233-.156.077.048.155.096.233.156z"/><path d="m458.439 290.275c-.078-.048-.155-.089-.233-.131.078.036.155.084.233.131z"/><path d="m458.206 290.144c-.077-.042-.155-.084-.227-.12.072.036.15.078.227.12z"/><path d="m457.237 289.713c-.083-.03-.167-.06-.245-.083.084.024.162.054.245.083z"/><path d="m456.496 289.492c.167.036.335.084.496.138-.167-.054-.329-.096-.496-.138z"/><path d="m455.103 636.348c.174.126.341.245.515.365-.175-.114-.342-.239-.515-.365z"/><path d="m455.229 289.307c-.084-.006-.174-.012-.257-.012.083 0 .173.006.257.012z"/><path d="m454.499 635.917c.197.149.4.293.604.431-.204-.138-.401-.282-.604-.431z"/><path d="m449.703 631.929c.191.186.389.365.587.545-.198-.18-.395-.366-.587-.545z"/><path d="m448.675 630.919c.264.269.532.538.808.795-.276-.257-.545-.526-.808-.795z"/></g><path d="m449.13 345.076c-1.842-18.428-7.021-28.061-7.021-28.061s-.102.018-.293.06c-.083.018-.185.042-.311.071-.896.209-2.744.682-5.262 1.519-.155.054-.317.107-.479.161-.431.144-.879.305-1.339.473-.144.048-.287.102-.437.155-1.411.521-2.96 1.136-4.616 1.86-.257.113-.515.227-.777.347-.479.209-.957.431-1.447.664l-.574-1.459c-.018-.065-.035-.131-.06-.197-3.348-12.975.903-16.951 10.751-22.686.251-.144.502-.287.76-.437 4.753-2.732 11.259-8.425 16.945-8.251.083 0 .173.006.257.012.431.024.855.083 1.268.185.167.042.329.084.496.138.078.024.162.054.245.083.06.018.126.042.186.066.186.072.371.155.557.245.071.036.149.078.227.12s.155.083.233.131c.078.042.161.09.239.144.077.048.155.102.233.156.077.048.155.107.227.161.078.06.156.12.233.18.149.113.299.245.448.382.078.072.149.138.228.215.071.072.144.144.222.221.143.149.286.311.43.479.078.083.149.173.216.263.203.257.406.532.604.825.216.311.419.646.622.999.729 1.279 1.101 3.037 1.244 5.083.514 7.528-2.123 18.93-1.89 24.438.358 8.963-.712 20.084-12.078 21.227z" fill="#00e800"/><path d="m447.88 630.094c.257.28.526.556.795.825-.269-.27-.538-.545-.795-.825z" fill="#fff"/><path d="m446.612 628.677c.191.232.395.46.598.688-.203-.228-.406-.456-.598-.688z" fill="#fff"/><path d="m463.845 588.89c-11.504.006-23.595 8.886-24.527 20.604.897-11.54 12.252-23.307 24.318-20.915.012.023.029.054.054.077.047.078.101.157.155.234z" fill="#fff"/><path d="m445.793 627.689c.228.293.467.574.706.855-.239-.28-.473-.562-.706-.855z" fill="#fff"/><path d="m445.147 626.864c.186.245.377.49.568.729-.191-.239-.376-.484-.568-.729z" fill="#fff"/><path d="m444.753 626.326c.131.186.263.365.395.538-.132-.178-.27-.358-.395-.538z" fill="#fff"/><path d="m444.412 625.848c.107.162.221.323.341.479-.12-.156-.233-.317-.341-.479z" fill="#fff"/><path d="m443.844 625.022c.186.281.371.551.568.825-.197-.274-.389-.543-.568-.825z" fill="#fff"/><path d="m413.696 653.796c.957.041 1.943.137 2.948.299.173.484.371.962.592 1.44.048.114.102.233.162.347.353.736.753 1.466 1.196 2.188.083.144.173.293.269.437.371.586.771 1.166 1.196 1.746.096.132.191.27.299.407.317.43.646.86.993 1.285.442.55.897 1.094 1.375 1.645.018.018.03.042.048.06.484.556.981 1.106 1.495 1.662.789.861 1.614 1.729 2.457 2.595 5.106 5.269 10.314 9.472 15.899 11.445 3.611 11.169-9.86 22.625-19.78 24.629-10.188 2.068-21.269-.102-27.564-9.053-.204-.293-.407-.586-.592-.879-.143-.228-.287-.449-.418-.676-.072-.108-.137-.216-.197-.323-9.477-16.246 1.004-38.734 19.517-39.254z" fill="#00e800"/><path d="m443.097 623.839c.215.359.437.712.67 1.059-.055-.072-.096-.138-.144-.209-.18-.282-.359-.563-.526-.85z" fill="#fff"/><path d="m492.605 460.466c15.714-32.678 26.668-61.252 39.512-88.913s32.605-54.334 32.605-54.334 26.667 71.13 0 163.003c-15.158 52.205-48.409 129.416-65.205 158.063-16.796 28.653-57.521 72.117-76.673 72.117s-26.07-7.905-37.921-7.905c-11.857 0-17.292-11.36-5.932-22.722 11.367-11.36 48.409-67.172 63.226-96.812 14.823-29.639 34.669-89.82 50.388-122.497zm-79.017 193.33c-19.325-.706-29.353 22.571-19.517 39.254.06.107.125.215.197.323.132.227.269.448.418.676.186.293.389.586.592.879 6.296 8.951 17.376 11.121 27.564 9.053 9.919-2.004 23.391-13.46 19.78-24.629 6.374 2.26 13.232 1.614 20.97-3.653 9.011-6.142 18.709-27.355 5.298-34.118l-.078-.957c18.219-1.268 38.106-24.844 24.449-39.219l-.035-.395c6.236-.514 12.138-2.822 16.354-7.492 7.104-7.868 15.331-30.136 3.438-37.556l-.077-.449c10.41-1.722 19.408-9.106 22.667-22.087 3.66-14.596-1.901-18.806-9.848-21.963 10.883-4.55 21.185-10.32 23.517-23.289.538-2.978.67-5.926.407-8.748-.019-.233-.042-.466-.072-.693-.018-.18-.042-.353-.065-.526-.024-.197-.054-.395-.084-.592-.018-.107-.03-.209-.054-.317-.03-.203-.065-.412-.107-.615-.03-.161-.061-.323-.096-.479-.042-.203-.084-.4-.132-.598-.023-.12-.048-.233-.078-.341-.048-.197-.096-.389-.149-.58-.029-.12-.06-.233-.096-.347-.041-.156-.089-.312-.131-.467-.054-.161-.102-.323-.156-.484-.054-.173-.107-.341-.167-.508-.191-.557-.4-1.101-.628-1.633-.155-.377-.322-.747-.502-1.112-.09-.191-.186-.383-.281-.567-.281-.545-.58-1.076-.896-1.597-.783-1.273-1.687-2.464-2.703-3.558-.113-.126-.228-.245-.347-.365-.174-.179-.353-.358-.538-.538 25.209-2.912 29.538-43.99 8.999-57.736-27.876-18.662-57.401 29.837-35.422 51.728-.383.083-.76.179-1.136.287-.347.089-.7.197-1.047.305-.077.023-.155.054-.233.078-.316.095-.627.203-.933.316-.018 0-.029.006-.042.012-.316.107-.634.228-.944.354-.06.023-.119.047-.186.071-.347.144-.688.287-1.028.442-.341.149-.676.311-1.005.473-.071.036-.143.071-.215.107-.293.149-.586.305-.873.46-.006.007-.012.013-.018.013-.341.185-.676.383-1.005.586-.335.197-.67.412-.992.634-.329.215-.646.442-.963.676-.293.209-.58.43-.861.657-.048.036-.096.078-.144.113-.263.216-.52.431-.771.658-.048.036-.089.078-.137.119-.27.239-.538.491-.796.748-.287.274-.567.562-.837.854-.228.233-.442.479-.646.724-.096.107-.186.216-.275.323-.221.257-.431.526-.64.795-8.735 11.427-6.996 29.341 3.259 38.459-7.815-.173-15.188 2.458-20.049 10.602-6.792 11.379-3.091 24.629 5.185 32.354-6.715-1.572-12.474-.598-17.077 1.985-.341.191-.676.395-1.011.604-1.154.741-2.23 1.578-3.223 2.512-.144.131-.281.269-.419.406-5.273 5.208-8.036 12.993-7.684 20.7.006.239.019.473.036.712.018.311.042.616.078.927.035.323.071.651.119.975.042.329.09.657.149.98.113.646.251 1.286.413 1.92.077.322.161.634.257.95.071.275.155.544.251.813.012.054.03.107.048.161.096.299.203.598.317.897.113.311.232.615.364.92.12.306.257.61.4.909.132.305.281.604.437.897.144.299.306.592.473.879.149.274.311.55.484.818.012.024.023.055.048.078.144.239.293.473.46.706.013.035.036.071.066.107-12.066-2.392-23.421 9.375-24.318 20.915-.023.228-.036.455-.042.688-.012.19-.018.382-.018.573-.006.365 0 .724.018 1.083.006.161.012.322.024.478.012.162.023.317.035.473 0 .06.007.12.019.18.018.227.042.448.065.67.03.245.066.49.107.735.036.232.072.46.12.688.012.077.023.155.042.233.048.251.102.496.161.741.054.227.107.448.167.676.024.102.055.197.084.299.048.186.102.364.162.55.06.216.131.431.203.646.071.222.149.437.227.652.066.186.132.37.21.55.077.216.167.425.257.634.107.264.221.521.341.777.119.275.251.544.389.813.113.239.233.479.364.718.264.502.545.998.844 1.488-9.352-1.913-18.985 7.277-23.678 14.225-.078.12-.156.233-.233.354-.125.191-.251.376-.365.562-.275.442-.532.873-.771 1.304s-.46.861-.658 1.279c-.299.634-.556 1.256-.777 1.872-.221.615-.4 1.22-.538 1.817-.191.795-.311 1.578-.371 2.35-.083 1.059-.054 2.099.09 3.115.006.03.012.066.018.102.024.216.06.431.108.646.036.215.078.424.131.64.06.269.125.532.209.795.048.186.102.365.161.544.048.149.096.306.15.455-.981-.096-1.938-.132-2.876-.102-.034.001-.07.001-.106.001z" fill="#33a02c"/><path d="m441.889 621.633c.113.239.239.479.364.718-.131-.24-.251-.479-.364-.718z" fill="#fff"/><path d="m449.13 345.076c2.051 20.485-.03 51.847-17.95 92.937-34.028 78.055-57.545 127.623-69.6 148.904-12.054 21.274-38.441 65.354-70.06 75.907-31.625 10.542-65.037-2.416-72.416 2.535-7.378 4.957-24.055 7.104 13.525-33.795 37.58-40.898 75.848-100.388 107.066-169.132 31.218-68.75 44.743-102.545 62.311-121.757.514-.562 1.035-1.112 1.555-1.65.263-.269.526-.538.789-.795.126-.125.246-.251.371-.365.395-.395.789-.777 1.19-1.154.789-.747 1.584-1.465 2.392-2.158.263-.233.532-.46.801-.688 1.088-.927 2.188-1.8 3.289-2.631.514-.389 1.028-.771 1.542-1.136 1.687-1.214 3.367-2.326 5.017-3.336.221-.144.443-.275.664-.407 1.052-.634 2.086-1.226 3.103-1.776.251-.138.508-.275.759-.413s.502-.269.753-.395c.245-.125.497-.257.742-.383.688-.347 1.363-.682 2.021-.993.054-.024.102-.048.155-.072.49-.233.969-.454 1.447-.664.257-.12.521-.233.777-.347 1.656-.724 3.205-1.339 4.616-1.86.149-.054.293-.107.437-.155.46-.167.908-.329 1.339-.473.161-.054.323-.107.479-.161 2.518-.837 4.365-1.31 5.262-1.519.12-.024.228-.048.311-.071.191-.042.293-.06.293-.06s5.178 9.635 7.02 28.063z" fill="#00e800"/><path d="m441.506 317.146c.126-.03.228-.054.311-.071-.084.024-.191.048-.311.071z" fill="#fff"/><path d="m441.159 620.042c.107.264.221.521.341.777-.12-.256-.233-.513-.341-.777z" fill="#fff"/><path d="m443.623 624.688c-9.968-1.179-19.272 6.135-24.205 13.375 4.693-6.947 14.327-16.138 23.678-14.225.168.288.347.569.527.85z" fill="#fff"/><path d="m440.902 619.408c.077.216.167.425.257.634-.09-.209-.18-.418-.257-.634z" fill="#fff"/><path d="m440.466 618.206c.071.222.149.437.227.652-.078-.215-.156-.43-.227-.652z" fill="#fff"/><path d="m440.101 617.011c.048.186.102.37.162.55-.061-.186-.115-.365-.162-.55z" fill="#fff"/><path d="m439.85 616.036c.054.227.107.454.167.676-.06-.228-.114-.449-.167-.676z" fill="#fff"/><path d="m439.688 615.295c.048.245.102.49.161.741-.059-.245-.113-.49-.161-.741z" fill="#fff"/><path d="m439.526 614.374c.036.232.072.46.12.688-.047-.228-.083-.456-.12-.688z" fill="#fff"/><path d="m439.354 612.969c.018.221.042.448.065.67-.023-.222-.048-.444-.065-.67z" fill="#fff"/><path d="m439.3 612.316c.012.162.018.317.035.473-.012-.155-.023-.31-.035-.473z" fill="#fff"/><path d="m439.275 611.839c.006.161.012.316.024.478-.012-.156-.018-.317-.024-.478z" fill="#fff"/><path d="m439.275 610.183c-.012.19-.018.382-.018.573.001-.192.007-.383.018-.573z" fill="#fff"/><path d="m436.244 318.666c-.155.054-.317.107-.479.161.162-.054.324-.108.479-.161z" fill="#fff"/><path d="m434.427 319.299c-.144.048-.287.102-.437.155.15-.053.293-.107.437-.155z" fill="#fff"/><path d="m429.374 321.314c-.257.113-.521.227-.777.347.262-.119.52-.233.777-.347z" fill="#fff"/><path d="m427.149 322.325c-.054.024-.102.048-.155.072-.174-.592-.335-1.172-.479-1.728.024.066.042.132.06.197z" fill="#fff"/><path d="m437.267 297.983c-9.848 5.734-14.099 9.71-10.751 22.686-4.084-14.19.508-16.808 10.751-22.686z" fill="#fff"/><path d="m424.973 323.389c-.245.125-.497.257-.742.383.252-.132.497-.257.742-.383z" fill="#00e800"/><path d="m424.268 665.312c-.514-.556-1.011-1.106-1.495-1.662.49.549.986 1.106 1.495 1.662z" fill="#fff"/><path d="m423.478 324.167c-.251.138-.508.275-.759.413.257-.144.508-.282.759-.413z" fill="#00e800"/><path d="m422.725 663.59c-.478-.551-.933-1.095-1.375-1.645.442.55.902 1.094 1.375 1.645z" fill="#fff"/><path d="m420.058 660.253c.096.138.197.27.299.407-.107-.138-.203-.275-.299-.407z" fill="#fff"/><path d="m419.616 326.355c-.221.131-.443.263-.664.407.221-.144.443-.276.664-.407z" fill="#00e800"/><path d="m419.185 638.417c-.125.185-.245.376-.365.562.114-.186.24-.371.365-.562z" fill="#fff"/><path d="m418.593 658.07c.089.149.179.293.269.437-.095-.144-.185-.293-.269-.437z" fill="#fff"/><path d="m418.049 640.282c-.239.431-.46.861-.658 1.279.197-.417.419-.848.658-1.279z" fill="#fff"/><path d="m417.236 655.535c.054.114.107.228.162.347-.061-.113-.114-.233-.162-.347z" fill="#fff"/><path d="m416.632 654.064c-.018-.054-.042-.113-.06-.167-.054-.149-.102-.306-.15-.455.066.21.138.419.21.622z" fill="#fff"/><path d="m413.696 653.796c.939-.03 1.896.006 2.876.102.018.054.042.113.06.167.006.012.006.018.012.03-1.005-.162-1.991-.258-2.948-.299z" fill="#fff"/><path d="m416.261 652.898c.048.18.102.365.161.544-.059-.178-.113-.358-.161-.544z" fill="#fff"/><path d="m416.614 643.434c-.215.615-.395 1.22-.538 1.817.137-.598.317-1.202.538-1.817z" fill="#fff"/><path d="m415.92 651.464c.036.215.083.431.131.64-.053-.216-.095-.425-.131-.64z" fill="#fff"/><path d="m415.813 650.817c.03.216.066.431.108.646-.048-.215-.085-.43-.108-.646z" fill="#fff"/><path d="m416.076 645.251c-.185.795-.305 1.578-.371 2.35.06-.772.179-1.555.371-2.35z" fill="#fff"/><path d="m415.705 647.601c-.083 1.059-.048 2.099.09 3.115-.144-1.017-.173-2.057-.09-3.115z" fill="#fff"/><path d="m412.393 331.234c.514-.395 1.028-.771 1.542-1.136-.514.365-1.028.747-1.542 1.136z" fill="#fff"/><path d="m409.104 333.865c-.269.228-.538.455-.801.688.263-.24.532-.467.801-.688z" fill="#fff"/><path d="m404.721 337.865c.395-.395.795-.777 1.19-1.154-.401.377-.795.76-1.19 1.154z" fill="#fff"/><path d="m404.35 338.23c-.263.257-.526.526-.789.795.263-.269.526-.538.789-.795z" fill="#00e800"/><path d="m394.269 693.373c.132.227.275.448.418.676-.149-.228-.286-.449-.418-.676z" fill="#fff"/><path d="m413.588 653.796c-18.512.52-28.994 23.008-19.517 39.254-9.835-16.683.192-39.96 19.517-39.254z" fill="#fff"/><path d="m416.65 654.095h-.006c-1.005-.162-1.991-.258-2.948-.299-.036 0-.072 0-.107 0-19.325-.706-29.353 22.571-19.517 39.254.06.107.125.215.197.323.132.227.269.448.418.676.186.293.389.586.592.879 6.296 8.951 17.376 11.121 27.564 9.053 9.919-2.004 23.391-13.46 19.78-24.629-.018-.078-.048-.149-.071-.228" fill="none" stroke="#000" stroke-width="11.8548"/><path d="m443.623 624.688c-9.968-1.179-19.272 6.135-24.205 13.375-.078.12-.156.233-.233.354-.125.185-.245.376-.365.562-.275.442-.532.873-.771 1.304s-.46.861-.658 1.279c-.299.634-.556 1.256-.777 1.872-.215.615-.395 1.22-.538 1.817-.185.795-.305 1.578-.371 2.35-.083 1.059-.048 2.099.09 3.115.006.03.012.066.018.102.03.216.066.431.108.646.036.215.083.431.131.64.06.269.125.532.209.795.048.18.102.365.161.544.066.21.138.419.209.622.006.012.006.018.012.03.173.484.371.962.592 1.44.054.114.107.228.162.347.353.736.753 1.466 1.196 2.188.089.149.179.293.269.437.371.586.771 1.166 1.196 1.746.096.138.197.27.299.407.317.43.646.86.993 1.285.442.55.897 1.094 1.375 1.645.018.018.03.042.048.06.484.556.981 1.106 1.495 1.662.789.861 1.614 1.729 2.457 2.595 5.106 5.269 10.314 9.472 15.899 11.445 6.374 2.26 13.232 1.614 20.97-3.653 9.011-6.142 18.709-27.355 5.298-34.118" fill="none" stroke="#000" stroke-width="11.8548"/><path d="m463.845 588.89c-11.504.006-23.595 8.886-24.527 20.604-.023.228-.036.455-.042.688-.012.19-.018.382-.018.573-.006.365 0 .724.018 1.083.006.161.012.322.024.478.012.162.018.317.035.473 0 .06.007.12.019.18.018.221.042.448.065.67.03.245.066.49.107.735.036.232.072.46.12.688.012.077.023.155.042.233.048.251.102.496.161.741.054.227.107.448.167.676.024.102.055.197.084.299.048.186.102.364.162.55.06.216.131.431.203.646.071.222.149.437.227.652.066.186.132.37.21.55.077.216.167.425.257.634.107.264.221.521.341.777.119.275.251.544.389.813.113.239.233.479.364.718.264.502.545.998.844 1.488.167.287.347.568.526.85.048.071.089.137.144.209.018.042.047.084.077.125.18.281.371.551.568.825.107.162.221.323.341.479.125.18.263.359.395.538.186.245.377.49.568.729.023.036.048.066.077.096.228.293.467.574.706.855.035.042.071.09.113.132.191.232.395.46.598.688.222.245.442.49.67.729.257.28.526.556.795.825.264.269.532.538.808.795.071.071.149.144.221.215.191.18.389.365.587.545 1.351 1.237 2.768 2.392 4.209 3.443.203.149.4.293.604.431.174.126.341.245.515.365.646.448 1.298.873 1.949 1.279 3.433 2.141 7.301 2.906 11.247 2.631 18.219-1.268 38.106-24.844 24.449-39.219" fill="none" stroke="#000" stroke-width="11.8548"/><path d="m488.647 548.721c-6.715-1.572-12.474-.598-17.077 1.985-.341.191-.676.395-1.011.604-1.154.741-2.23 1.578-3.223 2.512-.138.131-.281.269-.419.406-5.273 5.208-8.036 12.993-7.684 20.7.006.239.019.473.036.712.018.311.042.616.078.927.035.323.071.651.119.975.042.329.09.657.149.98.113.646.251 1.286.413 1.92.077.322.161.634.257.95.071.275.155.544.251.813.012.054.03.107.048.161.096.299.203.598.317.897.113.311.232.615.364.92.12.306.257.61.4.909.132.305.281.604.437.897.144.299.306.592.473.879.149.274.311.55.484.818.012.024.023.055.048.078.144.239.293.473.46.706.013.035.036.071.066.107.012.023.029.054.054.077.048.078.102.156.155.233h.006c.102.144.203.293.312.437.048.06.089.126.137.186.108.149.222.299.341.442.132.174.275.347.419.521.113.144.233.28.353.418.724.837 1.513 1.633 2.368 2.38.132.12.263.228.395.335.419.358.855.706 1.31 1.034.395.293.807.574 1.226.85.419.274.855.538 1.298.789 6.051 3.456 13.866 5.34 21.221 4.729 6.236-.514 12.138-2.822 16.354-7.492 7.104-7.868 15.331-30.136 3.438-37.556" fill="none" stroke="#000" stroke-width="11.8548"/><path d="m525.761 511.463c-1.943-.771-4.024-1.477-6.152-2.26-5.125-1.878-10.715-3.324-16.097-3.438-7.815-.173-15.188 2.458-20.049 10.602-6.792 11.379-3.091 24.629 5.185 32.354h.006c2.487 2.32 5.375 4.144 8.526 5.268 5.25 1.865 10.673 2.374 15.762 1.524 10.41-1.722 19.408-9.106 22.667-22.087 3.66-14.596-1.902-18.806-9.848-21.963z" fill="none" stroke="#000" stroke-width="11.8548"/><path d="m504.456 506.566c-.322-.257-.64-.526-.944-.802-10.255-9.118-11.994-27.032-3.259-38.459.209-.269.419-.538.64-.795.09-.107.18-.216.275-.323.209-.245.425-.49.646-.724.27-.293.55-.58.837-.854.258-.257.526-.503.796-.748.048-.041.089-.083.137-.119.252-.228.515-.442.771-.658.048-.035.096-.077.144-.113.281-.228.568-.442.861-.657.316-.233.64-.461.963-.676.328-.222.657-.431.992-.634.329-.203.664-.395 1.005-.586.006 0 .012-.006.018-.013.287-.155.58-.311.873-.46.072-.036.144-.071.215-.107.335-.162.664-.323 1.005-.473.341-.155.682-.299 1.028-.442.066-.024.126-.048.186-.071.311-.126.628-.239.944-.354.013-.006.024-.012.042-.012.306-.113.616-.222.933-.316.078-.024.156-.055.233-.078.347-.107.693-.209 1.047-.305.376-.102.753-.197 1.136-.287.604-.144 1.214-.27 1.824-.377.018 0 .029-.006.048-.006.316-.054.627-.107.944-.149.287-.042.574-.084.867-.114.251-.029.502-.054.759-.083.156-.012.306-.024.461-.036.167-.018.335-.03.502-.036.203-.012.406-.023.61-.035.232-.013.472-.019.705-.024 4.21-.102 8.377.592 12.084 2.033.371.144.736.293 1.095.454.305.138.609.281.909.425.203.107.406.209.609.323.12.06.239.125.353.19.191.103.371.21.557.323.144.078.287.168.425.257.119.072.238.144.353.228.197.119.389.251.58.389.144.096.287.197.424.305.132.09.258.186.377.281.132.096.264.197.389.299.191.149.377.305.557.467.083.065.173.144.257.221.209.18.412.365.609.557.042.042.084.077.126.119.186.18.364.359.538.538.119.12.233.239.347.365 1.017 1.094 1.92 2.284 2.703 3.558.316.521.615 1.052.896 1.597.096.185.191.376.281.567.18.365.347.735.502 1.112.228.532.437 1.076.628 1.633.06.167.113.335.167.508.055.161.103.323.156.484.042.155.09.311.131.467.036.113.066.227.096.347.054.191.102.383.149.58.03.107.055.221.078.341.048.197.09.395.132.598.035.155.065.317.096.479.042.203.077.412.107.615.023.108.036.21.054.317.03.197.06.395.084.592.023.174.048.347.065.526.03.228.054.46.072.693.263 2.822.131 5.771-.407 8.748-2.332 12.969-12.634 18.739-23.517 23.289-.293.126-.586.252-.885.371" fill="none" stroke="#000" stroke-width="11.8548"/><path d="m515.979 457.5c-21.979-21.891 7.546-70.389 35.422-51.728 20.539 13.747 16.21 54.824-8.999 57.736" fill="none" stroke="#000" stroke-width="11.8548"/><path d="m564.723 317.218s26.667 71.13 0 163.003c-15.158 52.205-48.409 129.416-65.205 158.063-16.796 28.653-57.521 72.117-76.673 72.117s-26.07-7.905-37.921-7.905c-11.857 0-17.292-11.36-5.932-22.722 11.367-11.36 48.409-67.172 63.226-96.812 14.822-29.64 34.668-89.821 50.388-122.498 15.714-32.678 26.668-61.252 39.512-88.913s32.605-54.333 32.605-54.333z" fill="none" stroke="#000" stroke-width="11.8548"/><path d="m426.994 322.396c.054-.024.102-.048.155-.072.49-.233.969-.454 1.447-.664.257-.12.521-.233.777-.347 1.656-.724 3.205-1.339 4.616-1.86.149-.054.293-.107.437-.155.46-.167.908-.329 1.339-.473.161-.054.323-.107.479-.161 2.518-.837 4.365-1.31 5.262-1.519.12-.024.228-.048.311-.071.191-.042.293-.06.293-.06s5.179 9.633 7.021 28.061c2.051 20.485-.03 51.847-17.95 92.937-34.028 78.055-57.545 127.623-69.6 148.904-12.054 21.274-38.441 65.354-70.06 75.907-31.625 10.542-65.037-2.416-72.416 2.535-7.378 4.957-24.055 7.104 13.525-33.795 37.58-40.898 75.848-100.388 107.066-169.132 31.218-68.75 44.743-102.545 62.311-121.757.514-.562 1.035-1.112 1.555-1.65.263-.269.526-.538.789-.795.126-.125.246-.251.371-.365.395-.395.789-.777 1.19-1.154.789-.747 1.584-1.465 2.392-2.158.263-.233.532-.46.801-.688 1.088-.927 2.188-1.8 3.289-2.631.514-.389 1.028-.771 1.542-1.136 1.687-1.214 3.367-2.326 5.017-3.336.221-.144.443-.275.664-.407 1.052-.634 2.086-1.226 3.103-1.776.257-.144.508-.281.759-.413.251-.138.502-.269.753-.395.251-.132.497-.257.742-.383.687-.345 1.362-.679 2.02-.991z" fill="none" stroke="#000" stroke-width="11.8548"/><path d="m426.994 322.396c-.174-.592-.335-1.172-.479-1.728-3.348-12.975.903-16.951 10.751-22.686.251-.144.502-.287.76-.437 4.753-2.732 11.259-8.425 16.945-8.251.083 0 .173.006.257.012.431.024.855.083 1.268.185.167.036.335.084.496.138.084.024.162.054.245.083.06.018.126.042.186.066.186.072.371.155.557.245.071.036.149.078.227.12.078.036.155.083.233.131.078.042.161.09.239.144.077.048.155.096.233.156.071.048.149.102.227.161.078.054.156.114.233.18.149.113.299.245.448.382.078.066.149.138.228.215.078.066.149.144.222.221.149.149.293.311.43.479.078.083.149.173.216.263.209.257.406.532.604.825.216.311.419.646.622.999.729 1.279 1.101 3.037 1.244 5.083.514 7.528-2.123 18.93-1.89 24.438.358 8.963-.712 20.084-12.078 21.227" fill="none" stroke="#000" stroke-width="11.8548"/><path d="m457.423 289.779c8.396-6.571 22.632-9.549 32.533-5.74 16.928 6.505 16.928 6.505 13.215 13.448-5.202 9.752-29.562-10.213-39.786 1.896-.036.036-.072.078-.103.113" fill="none" stroke="#000" stroke-width="11.8548"/></svg>