<svg enable-background="new 0 0 850.394 850.394" height="850.394" viewBox="0 0 850.394 850.394" width="850.394" xmlns="http://www.w3.org/2000/svg"><path d="m743.05 633.25c-29.64 9.32-138.88 5.09-138.88 5.09s-.58 0-1.7-.01l.011-2.61s0-268.729 0-351.36c0-7.82 0-13.97 0-18.07 0-57.58-18.07-105.32-18.07-105.32v-.23l45.17-.02s71.979 10.16 101.62 82.99c21.35 52.46 37.26 118.56 37.26 181.22v162.6s4.229 36.41-25.411 45.72zm-8.47-82.99c0-25.25-20.47-45.72-45.73-45.72-25.25 0-45.729 20.47-45.729 45.72 0 25.26 20.479 45.73 45.729 45.73 25.26 0 45.73-20.47 45.73-45.73zm-14.67-106.7v-27.1h-64.36v27.1z" fill="#787878"/><path d="m602.47 638.33c-13.239-.08-101.95-.61-203.86-1.2-5.27-5.84-12.9-9.52-21.39-9.52-8.39 0-15.94 3.59-21.2 9.31-80.45-.47-159-.93-206.32-1.189v-.011s0-268.729 0-351.36h452.78v351.36z" fill="#c8c8c8"/><path d="m399.24 161.78v96.43h56.46v-96.43zm-175.61-.85 360.78-.19v.23s18.07 47.74 18.07 105.32v18.07h-452.78c0-7.82 0-13.97 0-18.07 0-57.58 18.07-105.32 18.07-105.32v-.01l31.05-.02v96.42h56.45v-96.43zm331.99 96.33v-91.46h-56.46v91.46zm-200.42-.85v-91.46h-56.45v91.46z" fill="#fff"/><path d="m499.16 165.8h56.46v91.46h-56.46z" fill="#c8c8c8"/><path d="m399.24 161.78h56.46v96.43h-56.46z" fill="#c8c8c8"/><path d="m298.75 164.95h56.45v91.46h-56.45z" fill="#c8c8c8"/><path d="m255.27 160.93v96.43h-56.45v-96.42l24.81-.01z" fill="#c8c8c8"/><path d="m105.66 642.29h32.75v22.58h-32.75z" fill="#c8c8c8"/><path d="m398.61 637.13c4.6 5.101 7.4 11.86 7.4 19.271 0 15.909-12.89 28.8-28.79 28.8s-28.8-12.891-28.8-28.8c0-7.511 2.88-14.36 7.6-19.48 5.26-5.72 12.81-9.31 21.2-9.31 8.49-.001 16.12 3.679 21.39 9.519z" fill="#c8c8c8"/><path d="m619.41 642.29h32.75v22.58h-32.75z" fill="#c8c8c8"/><path d="m688.85 504.54c25.261 0 45.73 20.47 45.73 45.72 0 25.26-20.47 45.73-45.73 45.73-25.25 0-45.729-20.471-45.729-45.73-.001-25.25 20.479-45.72 45.729-45.72z" fill="#c8c8c8"/><path d="m655.55 416.46h64.36v27.1h-64.36z" fill="#c8c8c8"/><path d="m167.77 160.96v.01s-18.07 47.74-18.07 105.32v18.07 351.36.011c-23.94-.131-39.88-.211-44.04-.211-24.84 0-25.96-55.329-25.96-55.329s0-264.22 0-291.311c0-27.1 6.61-67.91 6.61-67.91 12.26-57.75 60-60 60-60z" fill="#787878"/><g fill="none"><path d="m398.61 637.13c101.91.59 190.621 1.12 203.86 1.2 1.12.01 1.7.01 1.7.01s109.24 4.23 138.88-5.09c29.641-9.31 25.41-45.72 25.41-45.72s0-99.931 0-162.6c0-62.66-15.91-128.76-37.26-181.22-29.641-72.83-101.62-82.99-101.62-82.99l-45.17.02-360.78.19-24.81.01-31.05.02-21.46.01s-47.74 2.25-60 60c0 0-6.61 40.81-6.61 67.91v291.311s1.12 55.329 25.96 55.329c4.16 0 20.1.08 44.04.211 47.32.26 125.87.72 206.32 1.189h.04" stroke="#000" stroke-width="20.3241"/><path d="m167.77 160.97s-18.07 47.74-18.07 105.32v18.07 351.36" stroke="#000" stroke-width="20.3241"/><path d="m584.41 160.97s18.07 47.74 18.07 105.32v18.07 351.36" stroke="#000" stroke-width="20.3241"/><path d="m734.58 550.26c0 25.26-20.47 45.73-45.73 45.73-25.25 0-45.729-20.471-45.729-45.73 0-25.25 20.479-45.72 45.729-45.72 25.26 0 45.73 20.47 45.73 45.72z" stroke="#000" stroke-width="20.3241"/><path d="m655.55 416.46h64.36v27.1h-64.36z" stroke="#000" stroke-width="20.3241"/><path d="m688.85 504.54v58.71" stroke="#000" stroke-linecap="round" stroke-linejoin="round" stroke-width="20.3241"/><path d="m105.66 642.29h32.75v22.58h-32.75z" stroke="#000" stroke-linecap="round" stroke-linejoin="round" stroke-width="20.3241"/><path d="m619.41 642.29h32.75v22.58h-32.75z" stroke="#000" stroke-linecap="round" stroke-linejoin="round" stroke-width="20.3241"/><path d="m398.61 637.13c4.6 5.101 7.4 11.86 7.4 19.271 0 15.909-12.89 28.8-28.79 28.8s-28.8-12.891-28.8-28.8c0-7.511 2.88-14.36 7.6-19.48 5.26-5.72 12.81-9.31 21.2-9.31 8.49-.001 16.12 3.679 21.39 9.519z" stroke="#000" stroke-linecap="round" stroke-linejoin="round" stroke-width="20.3241"/><path d="m377.22 557.6v70.01" stroke="#000" stroke-width="20.3241"/><path d="m223.63 160.93h31.64v96.43h-56.45v-96.42-.01z" stroke="#000" stroke-width="20.3241"/><path d="m298.75 164.95h56.45v91.46h-56.45z" stroke="#000" stroke-width="20.3241"/><path d="m399.24 161.78h56.46v96.43h-56.46z" stroke="#000" stroke-width="20.3241"/><path d="m499.16 165.8h56.46v91.46h-56.46z" stroke="#000" stroke-width="20.3241"/><path d="m149.7 284.36h452.78" stroke="#000" stroke-width="20.3241"/><path d="m0 0h850.394v850.394h-850.394z"/></g></svg>