<svg enable-background="new 0 0 850.394 850.394" height="850.394" viewBox="0 0 850.394 850.394" width="850.394" xmlns="http://www.w3.org/2000/svg"><path d="m422.93 423.93c49.45 0 89.53 40.08 89.53 89.53 0 49.44-40.08 89.521-89.53 89.521s-89.53-40.08-89.53-89.521c0-49.45 40.08-89.53 89.53-89.53z" fill="#fbed24"/><g fill="none"><path d="m716.99 776.5h-584.98" stroke="#231f20" stroke-width="21"/><path d="m512.46 513.46c0 49.44-40.08 89.521-89.53 89.521s-89.53-40.08-89.53-89.521c0-49.45 40.08-89.53 89.53-89.53s89.53 40.08 89.53 89.53z" stroke="#231f20" stroke-width="21"/><path d="m422.23 407.63v-68.11" stroke="#231f20" stroke-width="21"/><path d="m367.9 420.89-37.63-56.78" stroke="#231f20" stroke-width="21"/><path d="m328.89 462.73-61.7-28.83" stroke="#231f20" stroke-width="21"/><path d="m478.49 419.8 37.61-56.78" stroke="#231f20" stroke-width="21"/><path d="m517.48 461.65 61.71-28.84" stroke="#231f20" stroke-width="21"/><path d="m476.25 606.78 37.63 56.78" stroke="#231f20" stroke-width="21"/><path d="m515.25 564.92 61.71 28.84" stroke="#231f20" stroke-width="21"/><path d="m365.66 607.87-37.62 56.77" stroke="#231f20" stroke-width="21"/><path d="m326.66 566.02-61.71 28.83" stroke="#231f20" stroke-width="21"/><path d="m316.21 514.52h-68.1" stroke="#231f20" stroke-width="21"/><path d="m596.69 514.52h-68.11" stroke="#231f20" stroke-width="21"/><path d="m422.23 686v-68.11" stroke="#231f20" stroke-width="21"/><path d="m422.41 71.57v200.11" stroke="#231f20" stroke-width="28"/><path d="m480.94 206.25-58.75 66.7-58.72-66.8" stroke="#231f20" stroke-width="28"/><path d="m0 0h850.394v850.394h-850.394z"/></g></svg>