<svg enable-background="new 0 0 850.394 850.394" height="850.394" viewBox="0 0 850.394 850.394" width="850.394" xmlns="http://www.w3.org/2000/svg"><path d="m723.35 335.27v163.15l-107.07 34.12-1.24-3.88v-187.15l-.14-1.6 108.04-9.35z" fill="#c8c8c8"/><path d="m588.95 540 .36 1.13-14.25 4.54-10.72-1.71.22-1.41v-199.78l12.2.44 12.19-1.06z" fill="#c8c8c8"/><path d="m746.5 328.52.39 4.48-.85 158.19-22.69 7.23v-163.15l-.41-4.71z" fill="#c8c8c8"/><path d="m537.35 341.8v197.87l-25.27-4.03.03-.18v-193.95l.02-.62z" fill="#c8c8c8"/><path d="m615.04 528.66 1.24 3.88-26.97 8.59-.36-1.13v-197.85l25.95-2.24.14 1.6z" fill="#c8c8c8"/><path d="m564.56 342.77v199.78l-.22 1.41-26.99-4.29v-197.87z" fill="#c8c8c8"/><path d="m723.35 498.42 22.69-7.229v.89l39.13 12.76v54.44l-194.8 70.04-521.46-110.871v-.85s-.85-25.52 2.55-33.18c3.4-7.65 24.67-16.16 24.67-16.16h3.4v1.7l23.23 3.7 389.32 61.979 25.27 4.03 26.99 4.29 10.72 1.71 14.25-4.54 26.971-8.59z" fill="#c8c8c8"/><path d="m123.35 327.05v142.91l-.59 3.7-23.23-3.7v-1.7-142.06-.09l23.82.86z" fill="#c8c8c8"/><path d="m123.35 327.05v142.91l-.59 3.7-23.23-3.7v-1.7-142.06-.09l23.82.86z" fill="#c8c8c8"/><path d="m710.31 282.81 1.351.34-1.061 4.2-131.58 13.61-4.81-.12v-46.95c3.35-10.05 61.93-20.92 63.76-21.26h.011c.02-.01.029-.01.029-.01 34.87-4.25 72.3 21.27 72.3 21.27z" fill="#c8c8c8"/><path d="m574.21 253.89v46.95l-468.16-11.22-.33-.88 22.73-8.48v-17.01z" fill="#c8c8c8"/><path d="m588.95 342.15-12.19 1.06-12.2-.44-27.21-.97-25.22-.91-369.22-13.22-19.56-.7-23.82-.86-21.27-.76v-26.37l27.46-10.24.33.88 468.16 11.22 4.81.12 131.58-13.61 1.06-4.2 61.32 15.54.28 27.51-26.76 2.32-23.56 2.04-108.04 9.35z" fill="#c8c8c8"/><path d="m142.91 327.67 369.22 13.22-.02.62v193.95l-.03.18-389.32-61.98.59-3.7v-142.91-.08z" fill="#c8c8c8"/><g fill="none"><path d="m637.97 232.63c-1.83.34-60.41 11.21-63.76 21.26v46.95.12" stroke="#231f20" stroke-width="21"/><path d="m648.21 232.34s-3.63.1-10.229.29h-.011c-59.91 1.7-363.93 10.28-409.14 11.05-39.98.68-100.38 19.57-100.38 19.57v17.01l-22.73 8.48-27.46 10.24v26.37l21.27.76 23.82.86 19.56.7 369.22 13.22 25.22.91 27.21.97 12.2.44 12.19-1.06 25.95-2.24 108.04-9.35 23.56-2.04 26.76-2.32-.279-27.51-61.32-15.54-1.351-.34v-28.92s-37.43-25.52-72.3-21.27c0 0-.01 0-.029.01" stroke="#231f20" stroke-width="21"/><path d="m128.45 263.25 445.76-9.36" stroke="#231f20" stroke-width="20.4162"/><path d="m106.05 289.62 468.16 11.22 4.81.12 131.58-13.61" stroke="#231f20" stroke-width="14"/><path d="m99.53 326.2v142.06 1.7l23.23 3.7 389.32 61.98 25.27 4.03 26.99 4.29 10.72 1.71 14.25-4.54 26.97-8.59 107.07-34.12 22.69-7.23 2.55-.81" stroke="#231f20" stroke-width="21"/><path d="m96.13 468.26s-21.27 8.51-24.67 16.16c-3.4 7.66-2.55 33.18-2.55 33.18v.851l521.46 110.87 194.8-70.04v-54.44l-39.13-12.76v-.89l.85-158.191" stroke="#231f20" stroke-width="21"/><path d="m142.91 327.05v.62 142.29" stroke="#231f20" stroke-width="14"/><path d="m123.35 327.05v142.91" stroke="#231f20" stroke-width="14"/><path d="m512.11 341.51v193.95" stroke="#231f20" stroke-width="14"/><path d="m564.56 341.46v1.31 199.78" stroke="#231f20" stroke-width="14"/><path d="m537.35 339.81v1.99 197.87 1.23" stroke="#231f20" stroke-width="14"/><path d="m723.35 335.27v163.15 4.43" stroke="#231f20" stroke-width="14"/><path d="m615.04 341.51v187.15" stroke="#231f20" stroke-width="14"/><path d="m588.95 341.79v.36 197.85" stroke="#231f20" stroke-width="14"/><path d="m0 0h850.394v850.394h-850.394z"/></g></svg>