<svg enable-background="new 0 0 850.394 850.394" height="850.394" viewBox="0 0 850.394 850.394" width="850.394" xmlns="http://www.w3.org/2000/svg"><path d="m240.6 429.79c27.97 0 50.63 22.65 50.63 50.62 0 27.96-22.66 50.609-50.63 50.609-27.95 0-50.61-22.649-50.61-50.609 0-27.97 22.66-50.62 50.61-50.62z" fill="#fbed24"/><path d="m606.39 429.79c27.95 0 50.62 22.65 50.62 50.62 0 27.96-22.67 50.609-50.62 50.609-27.96 0-50.62-22.649-50.62-50.609 0-27.97 22.66-50.62 50.62-50.62z" fill="#fbed24"/><g fill="none"><path d="m406.87 629.13h-330.75" stroke="#231f20" stroke-width="21"/><path d="m291.23 480.41c0 27.96-22.66 50.609-50.63 50.609-27.95 0-50.61-22.649-50.61-50.609 0-27.97 22.66-50.62 50.61-50.62 27.97 0 50.63 22.65 50.63 50.62z" stroke="#231f20" stroke-width="14"/><path d="m240.21 420.57v-38.51" stroke="#231f20" stroke-width="14"/><path d="m209.49 428.07-21.27-32.11" stroke="#231f20" stroke-width="14"/><path d="m187.44 451.72-34.89-16.3" stroke="#231f20" stroke-width="14"/><path d="m272.02 427.45 21.27-32.1" stroke="#231f20" stroke-width="14"/><path d="m294.07 451.12 34.89-16.31" stroke="#231f20" stroke-width="14"/><path d="m270.75 533.17 21.28 32.11" stroke="#231f20" stroke-width="14"/><path d="m292.81 509.5 34.89 16.31" stroke="#231f20" stroke-width="14"/><path d="m208.23 533.79-21.27 32.09" stroke="#231f20" stroke-width="14"/><path d="m186.18 510.12-34.89 16.3" stroke="#231f20" stroke-width="14"/><path d="m180.27 481.01h-38.51" stroke="#231f20" stroke-width="14"/><path d="m338.85 481.01h-38.51" stroke="#231f20" stroke-width="14"/><path d="m240.21 577.95v-38.5" stroke="#231f20" stroke-width="14"/><path d="m772.65 629.13h-330.75" stroke="#231f20" stroke-width="21"/><path d="m657.01 480.41c0 27.96-22.67 50.609-50.62 50.609-27.96 0-50.62-22.649-50.62-50.609 0-27.97 22.66-50.62 50.62-50.62 27.95 0 50.62 22.65 50.62 50.62z" stroke="#231f20" stroke-width="14"/><path d="m606 420.57v-38.51" stroke="#231f20" stroke-width="14"/><path d="m575.27 428.07-21.27-32.11" stroke="#231f20" stroke-width="14"/><path d="m553.22 451.72-34.89-16.3" stroke="#231f20" stroke-width="14"/><path d="m637.8 427.45 21.27-32.1" stroke="#231f20" stroke-width="14"/><path d="m659.85 451.12 34.89-16.31" stroke="#231f20" stroke-width="14"/><path d="m636.53 533.17 21.28 32.11" stroke="#231f20" stroke-width="14"/><path d="m658.59 509.5 34.89 16.31" stroke="#231f20" stroke-width="14"/><path d="m574.01 533.79-21.27 32.09" stroke="#231f20" stroke-width="14"/><path d="m551.96 510.12-34.89 16.3" stroke="#231f20" stroke-width="14"/><path d="m546.05 481.01h-38.51" stroke="#231f20" stroke-width="14"/><path d="m704.63 481.01h-38.51" stroke="#231f20" stroke-width="14"/><path d="m606 577.95v-38.5" stroke="#231f20" stroke-width="14"/><path d="m560 247.89-31.3 93.72-89.04-43.01" stroke="#231f20" stroke-width="21"/><path d="m324.68 302.99c10.09-42.03 52.05-77.09 95.29-77.09 54.66 0 102.37 44.65 102.37 108.39" stroke="#231f20" stroke-width="21"/><path d="m0 0h850.394v850.394h-850.394z"/></g></svg>