<svg enable-background="new 0 0 850.394 850.394" height="850.394" viewBox="0 0 850.394 850.394" width="850.394" xmlns="http://www.w3.org/2000/svg"><path d="m480.1 190.28v33.81h-79.49v-17.08-16.73h.63z" fill="#fff"/><path d="m480.1 157.75v32.53h-78.86-.63v-33.01h.87l78.44.48z" fill="#fff"/><path d="m480.1 120.68v37.07h-.18l-78.44-.48h-.87v-36.59h.39 78.68z" fill="#fff"/><path d="m480.1 87.56v33.12h-.42-78.68-.39v-33.12h1.15 77.4z" fill="#fff"/><path d="m480.1 56.11v31.45h-.94-77.4-1.15v-19.7-11.75z" fill="#fff"/><path d="m427.46 394.36v388.14s-1.83 24.72-19.22 24.72c-18.31 0-19.83-27.16-19.83-27.16l1.21-382.04c0-26.84 0-40.28-17.08-89.09-17.09-48.83-7.32-101.92-7.32-101.92v-139.15c0-9.77 7.92-17.7 17.69-17.7 4.89 0 9.31 1.98 12.52 5.19 3.2 3.2 5.18 7.63 5.18 12.51v19.7 33.12 36.59 33.01 16.73s-9.76 62.85 8.55 98.25c18.3 35.4 18.3 53.7 18.3 89.1z" fill="#00e800"/><g fill="none"><path d="m400.61 207.01s-9.76 62.85 8.55 98.25c18.3 35.4 18.3 53.7 18.3 89.1v388.14s-1.83 24.72-19.22 24.72c-18.31 0-19.83-27.16-19.83-27.16l1.21-382.04c0-26.84 0-40.28-17.08-89.09-17.09-48.83-7.32-101.92-7.32-101.92v-139.15c0-9.77 7.92-17.7 17.69-17.7 4.89 0 9.31 1.98 12.52 5.19 3.2 3.2 5.18 7.63 5.18 12.51" stroke="#000" stroke-width="19.0508"/><path d="m480.1 190.28v33.81h-79.49v-17.08-16.73-33.01-36.59-33.12-19.7-11.75h79.49v31.45 33.12 37.07z" stroke="#000" stroke-width="19.0508"/><path d="m479.68 120.68h-78.68" stroke="#000" stroke-width="19.0508"/><path d="m479.92 157.75-78.44-.48" stroke="#000" stroke-width="19.0508"/><path d="m480.16 190.28h-.06-78.86" stroke="#000" stroke-width="19.0508"/><path d="m479.16 87.56h-77.4" stroke="#000" stroke-width="19.0508"/><path d="m0 0h850.394v850.394h-850.394z"/></g></svg>