<svg enable-background="new 0 0 850.394 850.394" height="850.394" viewBox="0 0 850.394 850.394" width="850.394" xmlns="http://www.w3.org/2000/svg"><path d="m403.176 748.652v37.184h-253.211v-37.184h17.36 218.612z" fill="#a3d9ff"/><path d="m385.937 748.216v.436h-218.612v-.027l23.376-488.645h172.028l.129-.009z" fill="#a3d9ff"/><path d="m362.729 257.191.129 2.78-.129.009h-172.028l.13-2.789 44.492-34.05h81.834z" fill="#c8c8c8"/><path d="m315.54 123.63 9.27 99.511-96.711-.177 9.93-99.334h47.189 2.854z" fill="#fff"/><path d="m385.937 748.652h17.239v37.184h-253.211v-37.184h17.36z" fill="none" stroke="#000" stroke-width="18.3782"/><path d="m385.937 748.216-23.079-488.245-.129-2.78-45.572-34.05h-81.834l-44.492 34.05-.13 2.789-23.376 488.645" fill="none" stroke="#000" stroke-width="18.3782"/><path d="m228.099 222.964-.084.874" fill="none" stroke="#000" stroke-width="18.3782"/><path d="m228.099 222.964 96.711.177-9.27-99.511h-27.468-2.854-47.189z" fill="none" stroke="#000" stroke-width="18.3782"/><path d="m228.07 222.964h.029" fill="none" stroke="#000" stroke-linecap="round" stroke-linejoin="round" stroke-width=".4649"/><path d="m190.701 259.98h172.028" fill="none" stroke="#000" stroke-width="18.3782"/><path d="m713.204 117.394h-17.668v-36.707h8.926 8.742v.287z" fill="#fff"/><path d="m749.573 117.394h-19.371v-.083l.246-36.227v-.397h19.125v.18 36.333z" fill="#fff"/><path d="m766.886 117.394h-17.313v-.194-36.333-.18h17.313v.531 35.742z" fill="#fff"/><path d="m783.314 117.394h-16.428v-.434-35.742-.531h10.288 6.14z" fill="#fff"/><path d="m713.204 117.394v-36.42-.287h17.244v.397l-.246 36.227v.083z" fill="#fff"/><path d="m606.563 93.086h-202.823s-12.917-.845-12.917-8.875c0-8.455 14.192-9.162 14.192-9.162l199.634.563c14.03 0 21.049 0 46.554-7.887 25.517-7.892 53.259-3.385 53.259-3.385h72.712c5.111 0 9.25 3.662 9.25 8.173 0 2.253-1.035 4.299-2.707 5.777-1.672 1.482-3.987 2.396-6.543 2.396h-10.288-17.313-19.125-17.244-8.742s-32.843-4.507-51.341 3.944c-18.498 8.456-28.06 8.456-46.558 8.456z" fill="#00e800"/><g fill="none"><path d="m704.462 80.687s-32.843-4.507-51.341 3.944c-18.498 8.455-28.061 8.455-46.559 8.455h-202.822s-12.917-.845-12.917-8.875c0-8.455 14.192-9.162 14.192-9.162l199.634.563c14.03 0 21.049 0 46.554-7.887 25.517-7.892 53.259-3.385 53.259-3.385h72.712c5.111 0 9.25 3.662 9.25 8.173 0 2.253-1.035 4.299-2.707 5.777-1.672 1.482-3.987 2.396-6.543 2.396" stroke="#000" stroke-width="9.3582"/><path d="m713.204 117.394h-17.668v-36.707h8.926 8.742 17.244 19.125 17.313 10.288 6.14v36.707h-16.428-17.313-19.371z" stroke="#000" stroke-width="9.3582"/><path d="m749.573 117.2v-36.333" stroke="#000" stroke-width="9.3582"/><path d="m730.202 117.311.246-36.227" stroke="#000" stroke-width="9.3582"/><path d="m713.204 117.421v-.027-36.42" stroke="#000" stroke-width="9.3582"/><path d="m766.886 116.96v-35.742" stroke="#000" stroke-width="9.3582"/><path d="m0 0h850.394v850.394h-850.394z"/></g></svg>