<svg enable-background="new 0 0 850.394 850.394" height="850.394" viewBox="0 0 850.394 850.394" width="850.394" xmlns="http://www.w3.org/2000/svg"><path d="m157.875 594.039h184.282v184.283h-184.282z" fill="none"/><path d="m157.875 604.039h149.479 34.803c-3.333-3.333-6.667-6.667-10-10v149.48 34.803l10-10c-49.827 0-99.653 0-149.479 0-11.601 0-23.202 0-34.803 0l10 10c0-49.827 0-99.653 0-149.48 0-11.601 0-23.202 0-34.803 0-12.897-20-12.897-20 0v149.48 34.803c0 5.451 4.549 10 10 10h149.479 34.803c5.451 0 10-4.549 10-10 0-49.827 0-99.653 0-149.48 0-11.601 0-23.202 0-34.803 0-5.451-4.549-10-10-10-49.827 0-99.653 0-149.479 0-11.601 0-23.202 0-34.803 0-12.897 0-12.897 20 0 20z" fill="#231f20"/><path d="m162.11 339.492h184.281v184.281h-184.281z" fill="none"/><path d="m162.11 349.492h149.478 34.803c-3.333-3.333-6.667-6.667-10-10v149.478 34.803c3.333-3.333 6.667-6.667 10-10-49.826 0-99.652 0-149.478 0-11.601 0-23.202 0-34.803 0l10 10c0-49.826 0-99.652 0-149.478 0-11.601 0-23.202 0-34.803 0-12.897-20-12.897-20 0v149.478 34.803c0 5.451 4.549 10 10 10h149.478 34.803c5.451 0 10-4.549 10-10 0-49.826 0-99.652 0-149.478 0-11.601 0-23.202 0-34.803 0-5.451-4.549-10-10-10-49.826 0-99.652 0-149.478 0-11.601 0-23.202 0-34.803 0-12.897 0-12.897 20 0 20z" fill="#231f20"/><path d="m157.875 67.017h184.282v184.275h-184.282z" fill="none"/><g fill="#5668af"><circle cx="342.157" cy="97.729" r="14.292"/><circle cx="342.157" cy="128.442" r="14.292"/><circle cx="342.157" cy="159.154" r="14.292"/><circle cx="342.157" cy="189.867" r="14.292"/><circle cx="342.157" cy="220.58" r="14.292"/><circle cx="311.443" cy="251.292" r="14.292"/><circle cx="280.729" cy="251.292" r="14.292"/><circle cx="250.016" cy="251.292" r="14.292"/><circle cx="219.302" cy="251.292" r="14.292"/><circle cx="188.588" cy="251.292" r="14.292"/><circle cx="157.875" cy="220.579" r="14.292"/><circle cx="157.875" cy="189.866" r="14.292"/><circle cx="157.875" cy="159.153" r="14.292"/><circle cx="157.875" cy="128.441" r="14.292"/><circle cx="157.875" cy="97.729" r="14.292"/><circle cx="188.589" cy="67.017" r="14.292"/><circle cx="219.303" cy="67.017" r="14.292"/><circle cx="250.017" cy="67.017" r="14.292"/><circle cx="280.73" cy="67.017" r="14.292"/><circle cx="311.444" cy="67.017" r="14.292"/><circle cx="342.157" cy="251.292" r="14.292"/><circle cx="157.875" cy="251.291" r="14.292"/><circle cx="157.875" cy="67.017" r="14.292"/><circle cx="342.157" cy="67.017" r="14.292"/></g><path d="m0 0h850.394v850.394h-850.394z" fill="none"/><path d="m717.478 158.835h-277.511" fill="none" stroke="#231f20" stroke-width="21"/><path d="m526.923 78.639-88.651 80.49 88.796 80.466" fill="none" stroke="#231f20" stroke-width="21"/></svg>