<svg enable-background="new 0 0 850.394 850.394" height="850.394" viewBox="0 0 850.394 850.394" width="850.394" xmlns="http://www.w3.org/2000/svg"><path d="m736.551 455.5v309.59h-640.572v-309.59zm-29.832 277.463v-244.173h-583.155v244.173z" fill="#9e5c26"/><path d="m736.551 455.5h-640.572l-2.766-2.876 6.225-5.973 86.713-83.429h227.418l234.476.079 83.366 81.071 8.204 7.969z" fill="#f6cc4b"/><path d="m653.247 118.499v242.994h-239.678-236.534v-247.662h476.212zm-32.347 213.759v-185.593h-414.095v185.593z" fill="#9e5c26"/><path d="m123.564 488.79h583.155v244.173h-583.155z" fill="#faa41f"/><path d="m206.805 146.665h414.096v185.593h-414.096z" fill="#f6cc4b"/><path d="m95.979 455.5h640.571v309.59h-640.571z" fill="none" stroke="#231f20" stroke-width="22.0046"/><path d="m740.213 452.923-.598-.582-8.204-7.969-83.366-81.071-234.476-.079h-227.418l-86.713 83.429-6.225 5.973-.754.738" fill="none" stroke="#231f20" stroke-width="22.0046"/><path d="m653.247 118.499v242.994h-239.678-236.534v-247.662h476.212z" fill="none" stroke="#231f20" stroke-width="22.0046"/><path d="m123.564 488.79h583.155v244.173h-583.155z" fill="none" stroke="#231f20" stroke-width="11.0023"/><path d="m206.805 146.665h414.096v185.593h-414.096z" fill="none" stroke="#231f20" stroke-width="11.0023"/><path d="m177.035 113.831-79.358 330.982" fill="none" stroke="#231f20" stroke-width="10.2231"/><path d="m652.666 116.079.581 2.42 78.164 325.873.645 2.672" fill="none" stroke="#231f20" stroke-width="10.2231"/><path d="m0 0h850.394v850.394h-850.394z" fill="none"/><path d="m323.5 418.749-1.431-.074c.242-3.855.993-7.956 2.204-11.736h.027c.773-2.452 1.769-4.778 2.958-6.816 0 0 0 0 .022-.024 1.407-1.478 2.669-3.103 3.687-4.678 2.351-2.207 5.165-3.42 8.438-3.178 8.801.656 12.294 5.894 12.997 16.586.315 4.683-.145 9.385-1.14 13.628l-.533-.12c0-.001-9.019 6.619-27.229-3.588z" fill="#9e5b16"/><path d="m321.97 422.991c-.049-1.382-.024-2.84.098-4.316l1.431.074c18.21 10.207 27.229 3.587 27.229 3.587l.533.12c-1.818 7.81-5.48 14.137-9.552 16.297-5.41 2.838-9.167 2.838-11.714 2.134-.68-.193-1.258-.438-1.771-.702 0 0-5.794-3.277-6.254-17.194z" fill="#9e5b16"/><path d="m300.388 394.764c-.971-2.884 1.674-3.394 8.463-7.929 6.765-4.534 6.985-7.25 6.985-7.25l1.113.92 13.263 10.963 2.038 1.671c-.362.754-.8 1.502-1.284 2.28-1.382 1.26-2.618 2.86-3.687 4.678-.022.024-.022.024-.022.024-4.729 4.972-11.277 8.634-16.902 5.821-8.15-4.074-3.638-10.866-3.638-10.866-3.395 1.144-5.36 2.551-6.329-.312z" fill="#ffeec8"/><path d="m295.199 429.101c5.045-.993 11.081-3.396 15.157-8.923 4.703-6.376 10.183-11.47 13.917-13.239-1.211 3.78-1.962 7.881-2.204 11.736-.123 1.476-.147 2.934-.098 4.316.46 13.917 6.254 17.193 6.254 17.193.514.264 1.091.509 1.771.702v.024c-10.281.436-34.796-11.786-34.796-11.786v-.023z" fill="#ffeec8"/><path d="m289.332 296.556c-1.505 0-2.743-2.084-2.743-4.681 0-2.569 1.238-4.68 2.743-4.68 1.502 0 2.713 2.111 2.713 4.68 0 2.596-1.211 4.681-2.713 4.681z" fill="#ffeec8"/><path d="m283.656 424.978-1.089.049c-18.237 10.21-27.234 3.589-27.234 3.589-1.576-4.778-2.449-10.063-2.109-15.132.702-10.692 4.194-15.93 13.021-16.586 11.057-.849 17 15.301 17.411 28.08z" fill="#9e5b16"/><path d="m268.719 294.131c0-2.569 1.214-4.68 2.74-4.68 1.502 0 2.716 2.111 2.716 4.68 0 2.594-1.213 4.681-2.716 4.681-1.526 0-2.74-2.087-2.74-4.681z" fill="#ffeec8"/><path d="m260.161 266.538s7.541 5.211 3.271 19.228z" fill="#ffeec8"/><path d="m256.642 432.107c-.484-1.138-.92-2.302-1.309-3.491 0 0 8.997 6.621 27.234-3.589l1.089-.049c.027.898.027 1.796 0 2.669-.024.678-.046 1.309-.098 1.938-.895 12.297-6.158 15.23-6.158 15.23-2.424 1.235-6.814 1.77-11.154-.22-3.394-1.551-7.033-6.351-9.604-12.488z" fill="#9e5b16"/><path d="m263.432 285.766c4.27-14.017-3.271-19.228-3.271-19.228zm25.9 10.79c1.502 0 2.713-2.084 2.713-4.681 0-2.569-1.211-4.68-2.713-4.68-1.505 0-2.743 2.111-2.743 4.68 0 2.596 1.238 4.681 2.743 4.681zm-20.613-2.425c0 2.594 1.214 4.681 2.74 4.681 1.502 0 2.716-2.087 2.716-4.681 0-2.569-1.213-4.68-2.716-4.68-1.526 0-2.74 2.111-2.74 4.68zm27.645 24.273c-4.345 7.032-11.057 11.954-19.086 13.094-9.214 1.285-18.137-2.691-24.538-9.965 0 0 0 0-.024 0-3.42-3.881-6.112-8.708-7.761-14.164l-1.818-.095c.46-.291.871-.656 1.26-1.116 1.842-2.256.874-4.147-.849-5.432-.218-1.673-.313-3.396-.313-5.094-.024-1.456.193-2.909.24-4.365 3.056-.243 5.725-1.72 5.312-5.576-.169-1.456-.925-2.378-2.011-2.838-.414-.169-.849-.267-1.336-.292v-.024c1.529-4.267 3.783-8.098 6.669-11.203 4.098-4.485 9.432-7.541 15.519-8.39 7.565-1.067 14.913 1.431 20.855 6.378 4.243 3.541 7.758 8.316 10.087 13.941.027.064.054.13.081.196 1.243 3.004 2.136 6.256 2.61 9.699.267 1.867.414 3.736.414 5.554.022 7.324-1.915 14.138-5.311 19.692z" fill="#ffeec8"/><path d="m308.852 386.835c-6.79 4.536-9.435 5.045-8.463 7.929.969 2.863 2.934 1.456 6.33.313 0 0-4.512 6.792 3.638 10.866 5.625 2.813 12.172-.849 16.902-5.821-1.189 2.038-2.185 4.365-2.958 6.816h-.027c-3.733 1.769-9.214 6.863-13.917 13.239-4.076 5.527-10.112 7.93-15.157 8.923-5.214 1.069-9.41.656-9.41.656l-2.231-.172c.052-.629.074-1.26.098-1.938.027-.873.027-1.771 0-2.669-.411-12.779-6.354-28.929-17.411-28.08-8.827.656-12.319 5.894-13.021 16.586-.34 5.069.533 10.354 2.109 15.132.389 1.189.825 2.354 1.309 3.491l-.34.145s-3.66 7.81-13.966 10.525c-8.708 2.327-31.089 5.867-39.357-2.376-7.178-7.178-5.723-12.609-2.305-17.219 8.465-11.467 14.115-27.327 14.381-28.078 0-.027 0-.027 0-.027-2.74-7.372-2.305-18.793-2.305-18.793.68-11.516.22-23.011 10.961-39.063 13.846-20.708 28.25-15.955 29.003-15.688h.024c6.4 7.274 15.323 11.25 24.538 9.965 8.03-1.14 14.741-6.063 19.086-13.094l1.6.049s13.943 2.885 24.104 25.387c9.77 21.606 15.712 32.689 8.316 47.406l-.171.223-13.263-10.963-1.113-.92s-.22 2.716-6.984 7.25zm-68.698 16.101c-4.585-6.716-5.189-8.876-5.189-8.876l-18.866 5.965c.653 8.321 6.449 20.784 15.519 20.055 9.07-.702 7.421-8.681 7.421-8.681 2.716 2.305 4.024 4.365 5.989 2.06 1.987-2.305-.291-3.782-4.874-10.523z" fill="#ffd3f7"/><path d="m239.039 411.399s1.649 7.979-7.421 8.681c-9.07.729-14.866-11.734-15.519-20.055l18.866-5.965s.604 2.161 5.189 8.876c4.583 6.741 6.86 8.218 4.874 10.523-1.965 2.305-3.274.245-5.989-2.06z" fill="#ffeec8"/><path d="m295.199 429.125s24.515 12.222 34.796 11.786" fill="none" stroke="#000" stroke-width="5.2166"/><path d="m327.28 400.098c1.069-1.818 2.305-3.418 3.687-4.678 2.351-2.207 5.165-3.42 8.438-3.178 8.801.656 12.294 5.894 12.997 16.586.315 4.683-.145 9.385-1.14 13.628-1.818 7.81-5.48 14.137-9.552 16.297-5.41 2.838-9.167 2.838-11.714 2.134-.68-.193-1.258-.438-1.771-.702 0 0-5.794-3.276-6.254-17.193-.049-1.382-.024-2.84.098-4.316.242-3.855.993-7.956 2.204-11.736" fill="none" stroke="#000" stroke-width="5.2166"/><path d="m324.3 406.939c.773-2.452 1.769-4.778 2.958-6.816" fill="none" stroke="#000" stroke-width="5.2166"/><path d="m256.642 432.107c2.571 6.137 6.209 10.937 9.603 12.488 4.34 1.989 8.73 1.455 11.154.22 0 0 5.263-2.934 6.158-15.23.052-.629.074-1.26.098-1.938.027-.873.027-1.771 0-2.669-.411-12.779-6.354-28.929-17.411-28.08-8.827.656-12.319 5.894-13.021 16.586-.34 5.069.533 10.354 2.109 15.132.39 1.19.826 2.354 1.31 3.491z" fill="none" stroke="#000" stroke-width="5.2166"/><path d="m252.715 321.534c-3.42-3.881-6.112-8.708-7.761-14.164" fill="none" stroke="#000" stroke-width="5.2166"/><path d="m245.439 282.539c1.529-4.267 3.783-8.098 6.669-11.203 4.098-4.485 9.432-7.541 15.519-8.39 7.565-1.067 14.913 1.431 20.855 6.378 4.243 3.541 7.758 8.316 10.087 13.941.027.064.054.13.081.196 1.243 3.004 2.136 6.256 2.61 9.699.267 1.867.414 3.736.414 5.554.022 7.323-1.916 14.137-5.312 19.691-4.345 7.032-11.057 11.954-19.086 13.094-9.214 1.285-18.137-2.691-24.538-9.965" fill="none" stroke="#000" stroke-width="5.2166"/><path d="m243.621 301.285c-.024-.196-.049-.365-.073-.558-.218-1.673-.313-3.396-.313-5.094-.024-1.456.193-2.909.24-4.365.027-.243.027-.509.027-.751" fill="none" stroke="#000" stroke-width="6.9554"/><path d="m215.056 395.104c.653 1.793 1.502 3.32 2.594 4.411" fill="none" stroke="#000" stroke-width="5.2166"/><path d="m252.74 321.534s0 0-.024 0c-.753-.267-15.157-5.021-29.003 15.688-10.741 16.053-10.281 27.547-10.961 39.063 0 0-.436 11.421 2.305 18.793" fill="none" stroke="#000" stroke-width="5.2166"/><path d="m285.789 429.757s4.196.413 9.41-.656c5.045-.993 11.081-3.396 15.157-8.923 4.703-6.376 10.183-11.47 13.917-13.239" fill="none" stroke="#000" stroke-width="5.2166"/><path d="m256.302 432.252s-3.66 7.81-13.966 10.525c-8.708 2.327-31.089 5.867-39.357-2.376-7.178-7.178-5.723-12.609-2.305-17.219 8.465-11.467 14.115-27.327 14.381-28.078 0-.027 0-.027 0-.027" fill="none" stroke="#000" stroke-width="5.2166"/><path d="m292.217 308.194c-1.309 5.143-6.063 8.95-11.712 8.95-3.976 0-7.494-1.869-9.701-4.754" fill="none" stroke="#000" stroke-linecap="round" stroke-linejoin="round" stroke-width="3.4777"/><path d="m265.712 264.401s8.487-.291 8.487 21.46" fill="none" stroke="#000" stroke-linecap="round" stroke-linejoin="round" stroke-width="6.9554"/><path d="m260.161 266.535v.002s7.541 5.211 3.271 19.228" fill="none" stroke="#000" stroke-linecap="round" stroke-linejoin="round" stroke-width="6.9554"/><path d="m275.68 264.11s8.025 0 8.025 21.168" fill="none" stroke="#000" stroke-linecap="round" stroke-linejoin="round" stroke-width="6.9554"/><path d="m297.964 318.453s13.943 2.885 24.104 25.387c9.77 21.606 15.712 32.689 8.316 47.406" fill="none" stroke="#000" stroke-width="5.2166"/><path d="m271.459 289.451c1.502 0 2.716 2.111 2.716 4.68 0 2.594-1.213 4.681-2.716 4.681-1.526 0-2.74-2.087-2.74-4.681 0-2.569 1.214-4.68 2.74-4.68z" fill="none" stroke="#000" stroke-width="3.4777"/><path d="m289.332 287.195c1.502 0 2.713 2.111 2.713 4.68 0 2.596-1.211 4.681-2.713 4.681-1.505 0-2.743-2.084-2.743-4.681 0-2.569 1.238-4.68 2.743-4.68z" fill="none" stroke="#000" stroke-width="3.4777"/><path d="m216.099 400.025c.653 8.321 6.449 20.784 15.519 20.055 9.07-.702 7.421-8.681 7.421-8.681 2.716 2.305 4.024 4.365 5.989 2.06 1.987-2.305-.291-3.783-4.874-10.523-4.585-6.716-5.189-8.876-5.189-8.876z" fill="none" stroke="#000" stroke-linecap="round" stroke-linejoin="round" stroke-width="4.3471"/><path d="m330.213 391.469 2.038 1.671c-.362.754-.8 1.502-1.284 2.28-1.018 1.576-2.28 3.2-3.687 4.678-.022.024-.022.024-.022.024-4.729 4.972-11.277 8.634-16.902 5.821-8.15-4.074-3.638-10.866-3.638-10.866-3.396 1.143-5.36 2.549-6.33-.313-.971-2.884 1.674-3.394 8.463-7.929 6.765-4.534 6.985-7.25 6.985-7.25l1.113.92z" fill="none" stroke="#000" stroke-linecap="round" stroke-linejoin="round" stroke-width="4.3471"/><path d="m233.12 393.866s-.218-24.393-.218-29.315" fill="none" stroke="#000" stroke-width="5.2166"/><path d="m313.483 362.948s6.33 10.621 3.467 17.557c0 .051-.022.098-.049.146" fill="none" stroke="#000" stroke-width="5.2166"/><path d="m255.333 428.616s8.997 6.621 27.234-3.589" fill="none" stroke="#000" stroke-dasharray="3.4777" stroke-width="3.4777"/><path d="m323.5 418.749c18.21 10.207 27.229 3.587 27.229 3.587" fill="none" stroke="#000" stroke-dasharray="3.4777" stroke-width="3.4777"/><path d="m286.81 271.069c.705-.702 1.213-1.26 1.673-1.745 1.091-1.14 1.891-1.796 4.316-2.522 4.147-1.263 8.39-1.263 12.537.267 6.887 2.547 12.148 9.579 7.492 15.593-.436.604-.993 1.189-1.671 1.769-2.173 1.865-10.506 3.254-12.407-1.008-.029-.066-.056-.135-.083-.203-.267-.705-.387-1.551-.267-2.569.631-5.894 10.792-2.767 14.428 1.987v.024c2.838 3.685 3.565 8.025 2.547 11.834-.533 2.155-1.649 4.145-3.273 5.769-2.789 2.813-6.958 3.711-9.336.825-.702-.849-.994-1.647-.994-2.376 0-2.207 2.621-3.832 4.754-4.46 2.814-.827 6.012-.68 8.85.242 5.312 1.673 9.435 5.965 7.856 11.443-2.231 7.736-11.25 9.823-14.961 5.992" fill="none" stroke="#000" stroke-linecap="round" stroke-linejoin="round" stroke-width="5.2166"/><path d="m246.775 282.854c-.414-.169-.849-.267-1.336-.292-3.469-.411-8.705 2.014-11.105 5.141v.024c-2.811 3.687-3.565 8.027-2.549 11.834.538 2.158 1.654 4.147 3.276 5.771 2.378 2.352 5.676 3.369 8.077 1.94.46-.291.871-.656 1.26-1.116 1.842-2.256.874-4.147-.849-5.432-.871-.631-1.916-1.116-2.885-1.407-2.836-.825-6.014-.68-8.879.242-5.307 1.673-9.43 5.965-7.854 11.445 2.231 7.736 11.252 9.821 14.986 5.99" fill="none" stroke="#000" stroke-linecap="round" stroke-linejoin="round" stroke-width="5.2166"/><path d="m243.452 291.269h.022c3.056-.243 5.725-1.72 5.312-5.576-.169-1.456-.925-2.378-2.011-2.838" fill="none" stroke="#000" stroke-linecap="round" stroke-linejoin="round" stroke-width="6.9554"/><path d="m255.989 280.527c.46-5.238 1.842-7.616-1.603-8.656-.751-.245-1.526-.414-2.278-.536-3.418-.678-6.887-.46-10.259.8-6.885 2.547-12.172 9.554-7.516 15.593.462.583 1.018 1.189 1.696 1.771 1.238 1.066 4.511 1.986 7.423 1.769" fill="none" stroke="#000" stroke-linecap="round" stroke-linejoin="round" stroke-width="5.2166"/><path d="m292.019 282.37s-.917-9.747-3.925-12.027" fill="none" stroke="#000" stroke-linecap="round" stroke-linejoin="round" stroke-width="6.9554"/><path d="m624.656 345.564 1.551 6.986c-1.093-3.099-2.681-5.354-4.376-6.993-.092-.088-.179-.175-.271-.256-.179-.168-.36-.327-.543-.479-3.8-3.213-7.815-3.601-7.815-3.601l-.769-.101c1.433-1.245 2.616-2.758 3.47-4.475 4.822.075 7.651 3.406 8.753 8.919z" fill="#ffffc2"/><path d="m583.113 391.847h41.267v46.563h-41.267z" fill="#0d72ba"/><path d="m622.424 374.281c.712-.186 1.39-.452 2.023-.796-.634.344-1.311.614-2.023.796z" fill="#ffffc2"/><path d="m622.424 374.281c-.286.074-.576.135-.87.179.294-.048.584-.108.87-.179z" fill="#ffffc2"/><path d="m621.831 345.557c-.092-.088-.179-.172-.271-.256.092.081.179.168.271.256z" fill="#faa41f"/><path d="m621.018 344.822c.183.152.364.311.543.479-.179-.165-.361-.327-.543-.479z" fill="#faa41f"/><path d="m590.399 374.459c.441.067.896.101 1.358.101h28.438c.462 0 .914-.034 1.358-.101-.444.071-.896.104-1.358.104h-28.438c-.461.001-.916-.033-1.358-.104z" fill="#ffffc2"/><ellipse cx="608.021" cy="328.464" fill="#231f20" rx="1.486" ry="1.58"/><path d="m598.539 326.699c.826 0 1.49.708 1.49 1.578 0 .874-.664 1.585-1.49 1.585-.819 0-1.483-.711-1.483-1.585 0-.87.664-1.578 1.483-1.578z" fill="#231f20"/><path d="m582.837 352.999v-7.435c0-3.831 2.41-7.098 5.803-8.362l.313-1.069.917.023c1.116 2.475 2.906 4.572 5.142 6.063-.806.01-8.665.384-12.017 10.779h-.158z" fill="#ffffc2"/><path d="m589.529 374.281c.283.071.573.131.87.179-.296-.044-.586-.105-.87-.179z" fill="#ffffc2"/><path d="m598.539 329.862c.826 0 1.49-.711 1.49-1.585 0-.87-.664-1.578-1.49-1.578-.819 0-1.483.708-1.483 1.578 0 .873.664 1.585 1.483 1.585zm7.994-1.396c0 .874.664 1.578 1.487 1.578.822 0 1.486-.705 1.486-1.578s-.664-1.582-1.486-1.582c-.823 0-1.487.709-1.487 1.582zm-17.934 1.763c0-7.957 6.447-14.404 14.401-14.404 7.96 0 14.407 6.447 14.407 14.404 0 2.017-.415 3.932-1.16 5.675-.108.25-.223.499-.344.742-.854 1.716-2.037 3.23-3.47 4.475h-.003c-2.525 2.191-5.827 3.513-9.431 3.513-2.954 0-5.702-.89-7.984-2.414h-.004c-2.235-1.491-4.025-3.588-5.142-6.063-.815-1.804-1.27-3.814-1.27-5.928z" fill="#9e5c26"/><path d="m589.529 374.281c-.715-.182-1.393-.452-2.022-.796.63.344 1.307.61 2.022.796z" fill="#ffffc2"/><path d="m582.995 352.999c3.352-10.395 11.211-10.77 12.017-10.779h.004c2.282 1.524 5.03 2.414 7.984 2.414 3.604 0 6.905-1.322 9.431-3.513h.003l.769.101s4.016.388 7.815 3.601c.183.152.364.314.543.479.092.084.179.168.271.256 1.695 1.639 3.283 3.894 4.376 6.993v.003l2.91 13.086c0 3.385-1.889 6.332-4.67 7.846-.634.344-1.312.61-2.023.796-.286.071-.576.131-.87.179-.444.067-.896.101-1.358.101h-28.438c-.462 0-.917-.034-1.358-.101-.297-.047-.587-.108-.87-.179-.715-.186-1.393-.452-2.022-.796-2.782-1.514-4.67-4.461-4.67-7.846v-12.641z" fill="#faa41f"/><path d="m603 315.825c-7.954 0-14.401 6.447-14.401 14.404 0 2.114.455 4.124 1.271 5.928l-.917-.023c-.786-.203-1.524-.53-2.205-.964-.098-.061-.192-.125-.287-.192-.283-.199-.553-.415-.813-.647-1.628-1.48-2.724-3.641-2.923-6.086-.021-.266-.03-.533-.03-.802v-29.553c0-4.926 3.635-8.921 8.115-8.921h23.083c4.481 0 8.116 3.996 8.116 8.921v29.553c0 .266-.011.529-.031.789-.289 3.638-2.565 6.649-5.624 7.718l-.107-.044c.745-1.743 1.16-3.658 1.16-5.675 0-7.959-6.447-14.406-14.407-14.406z" fill="#0d72ba"/><path d="m586.461 334.977c-.283-.195-.553-.415-.813-.647.26.232.53.448.813.647z" fill="#0d72ba"/><path d="m573.892 296.934v29.557c0 .57-.047 1.129-.145 1.669-.594 3.459-3.005 6.21-6.1 7.017-.004 0-.007.003-.011.003l-.778-.293c.731-1.723 1.133-3.618 1.133-5.607 0-7.957-6.447-14.407-14.404-14.407s-14.407 6.45-14.407 14.407c0 2.013.415 3.932 1.16 5.671l-.104.044c-2.859-.998-5.031-3.696-5.54-7.007-.074-.485-.114-.988-.114-1.497v-29.557c0-4.926 3.635-8.921 8.115-8.921h23.08c4.484-.001 8.115 3.994 8.115 8.921z" fill="#33a048"/><path d="m573.753 352.047v12.637c0 4.93-3.995 8.922-8.921 8.922h-28.44c-4.926 0-6.504-3.325-6.504-8.25l1.065-10.817.283.027c3.53-10.965 12.151-14.3 12.151-14.3l.513-.327c2.559 2.326 5.958 3.746 9.687 3.746 3.011 0 5.807-.924 8.116-2.505l.061.084s8.298-.185 11.828 10.783z" fill="#faa41f"/><path d="m531.533 391.709h41.266v46.56h-41.266z" fill="#33a048"/><path d="m567.95 336.248c3.389 1.268 5.803 4.535 5.803 8.365v7.435h-.161c-3.53-10.968-11.828-10.783-11.828-10.783l-.061-.084c2.269-1.551 4.073-3.732 5.155-6.295l.778.293c.004 0 .007-.003.011-.003z" fill="#ffffc2"/><path d="m540.684 335.691c-.121-.243-.236-.489-.344-.742-.745-1.74-1.16-3.658-1.16-5.671 0-7.957 6.45-14.407 14.407-14.407s14.404 6.45 14.404 14.407c0 1.989-.401 3.884-1.133 5.607-1.082 2.563-2.887 4.744-5.155 6.295-2.31 1.581-5.105 2.505-8.116 2.505-3.729 0-7.128-1.419-9.687-3.746-1.318-1.196-2.414-2.636-3.216-4.248zm18.851-8.365c0-.873-.664-1.582-1.487-1.582-.822 0-1.487.708-1.487 1.582s.665 1.582 1.487 1.582c.823 0 1.487-.708 1.487-1.582zm-9.478.186c0-.874-.667-1.578-1.49-1.578-.819 0-1.483.705-1.483 1.578s.664 1.581 1.483 1.581c.823 0 1.49-.708 1.49-1.581z" fill="#ffeec8"/><ellipse cx="558.048" cy="327.326" fill="#231f20" rx="1.487" ry="1.582"/><path d="m548.566 325.934c.823 0 1.49.705 1.49 1.578s-.667 1.581-1.49 1.581c-.819 0-1.483-.708-1.483-1.581 0-.874.664-1.578 1.483-1.578z" fill="#231f20"/><path d="m540.684 335.691c.803 1.612 1.898 3.051 3.217 4.249l-.513.327s-8.621 3.335-12.151 14.3l-.283-.027.978-9.926c1.101-5.514 3.926-8.848 8.752-8.923z" fill="#ffffc2"/><path d="m521.869 297.028v29.557c0 .482-.033.954-.101 1.413-.52 3.581-2.971 6.447-6.144 7.273-.003 0-.007.003-.01.003l-.779-.293c.729-1.723 1.133-3.618 1.133-5.607 0-7.954-6.446-14.408-14.403-14.408-7.958 0-14.408 6.454-14.408 14.408 0 2.013.415 3.931 1.16 5.671l-.104.044c-2.866-1.001-5.047-3.712-5.546-7.04-.071-.476-.108-.964-.108-1.463v-29.557c0-4.926 3.635-8.921 8.116-8.921h23.079c4.484-.002 8.115 3.994 8.115 8.92z" fill="#fbee34"/><path d="m521.731 352.146v12.634c0 4.933-3.996 8.921-8.922 8.921h-28.44c-4.926 0-7.08-2.745-7.08-7.67l1.571-12.803h.003c3.679-10.401 12.502-12.866 12.502-12.866l.51-.327h.003c2.56 2.327 5.958 3.743 9.688 3.743 3.011 0 5.806-.924 8.115-2.502l.061.084s8.298-.186 11.828 10.786z" fill="#faa41f"/><path d="m478.257 391.429h41.263v46.56h-41.263z" fill="#fbee34"/><path d="m515.929 336.342c3.389 1.268 5.803 4.538 5.803 8.365v7.438h-.162c-3.53-10.972-11.828-10.786-11.828-10.786l-.061-.084c2.27-1.551 4.073-3.736 5.155-6.295l.779.293c.003 0 .007-.003.01-.003z" fill="#ffffc2"/><path d="m488.661 335.786c-.121-.243-.235-.489-.344-.742-.745-1.74-1.16-3.658-1.16-5.671 0-7.954 6.45-14.408 14.408-14.408 7.957 0 14.403 6.454 14.403 14.408 0 1.989-.404 3.884-1.133 5.607-1.082 2.559-2.886 4.744-5.155 6.295-2.31 1.578-5.104 2.502-8.115 2.502-3.729 0-7.128-1.416-9.688-3.743-.003 0-.003 0-.003 0-1.317-1.2-2.41-2.64-3.213-4.248zm18.852-8.366c0-.873-.664-1.581-1.487-1.581-.822 0-1.486.708-1.486 1.581 0 .874.664 1.578 1.486 1.578.823.001 1.487-.704 1.487-1.578zm-9.478.186c0-.873-.668-1.578-1.49-1.578-.819 0-1.484.705-1.484 1.578 0 .874.665 1.582 1.484 1.582.822 0 1.49-.709 1.49-1.582z" fill="#9e5c26"/><ellipse cx="506.025" cy="327.419" fill="#231f20" rx="1.487" ry="1.58"/><path d="m496.545 326.028c.822 0 1.49.705 1.49 1.578 0 .874-.668 1.582-1.49 1.582-.819 0-1.484-.708-1.484-1.582 0-.873.665-1.578 1.484-1.578z" fill="#231f20"/><path d="m488.661 335.786c.803 1.608 1.896 3.048 3.214 4.249l-.51.327s-8.823 2.465-12.502 12.866l1.045-8.52c1.103-5.513 3.929-8.848 8.753-8.922z" fill="#ffffc2"/><path d="m468.219 345.287v7.435h-.162c-.961-2.984-2.272-5.142-3.679-6.703-.154-.175-.313-.344-.472-.499-1.578-1.591-3.23-2.478-4.596-2.967-.07-.027-.138-.05-.205-.071-1.68-.57-2.877-.543-2.877-.543l-.061-.084c2.27-1.551 4.073-3.732 5.155-6.295l.775.296c.004 0 .004-.003.007-.003.004-.003.004-.003.007-.003l.304 1.072c3.39 1.268 5.804 4.535 5.804 8.365z" fill="#ffffc2"/><path d="m426.676 391.567h41.263v46.563h-41.263z" fill="#ed1d31"/><path d="m464.378 346.019c-.154-.175-.313-.341-.472-.499.158.155.318.324.472.499z" fill="#faa41f"/><path d="m462.099 335.853h.006l-.006.003-.776-.296z" fill="#ffffc2"/><path d="m459.105 342.482c.067.021.135.044.205.071-.07-.024-.137-.047-.205-.071z" fill="#faa41f"/><ellipse cx="452.514" cy="327.999" fill="#231f20" rx="1.486" ry="1.58"/><path d="m443.032 329.767c-.819 0-1.483-.708-1.483-1.581 0-.874.664-1.578 1.483-1.578.822 0 1.49.705 1.49 1.578s-.668 1.581-1.49 1.581z" fill="#231f20"/><path d="m448.053 344.36c3.011 0 5.806-.924 8.115-2.505l.061.084s1.197-.027 2.877.543c.067.024.135.047.205.071 1.365.489 3.018 1.376 4.596 2.967.158.158.317.324.472.499 1.406 1.561 2.718 3.719 3.679 6.703h.162v12.637c0 4.93-3.995 8.922-8.922 8.922h-28.44c-4.926 0-8.921-3.992-8.921-8.922l2.9-13.059.003-.01.003-.007c3.672-10.439 13.012-11.339 13.012-11.339l.509-.33h.003c2.558 2.33 5.956 3.746 9.686 3.746z" fill="#faa41f"/><path d="m443.032 329.767c.822 0 1.49-.708 1.49-1.581 0-.874-.668-1.578-1.49-1.578-.819 0-1.483.705-1.483 1.578s.664 1.581 1.483 1.581zm7.994-1.767c0 .874.664 1.578 1.487 1.578.822 0 1.486-.705 1.486-1.578s-.664-1.581-1.486-1.581c-.823 0-1.487.708-1.487 1.581zm-15.877 8.366c-.122-.239-.236-.485-.345-.742-.745-1.74-1.159-3.658-1.159-5.671 0-7.957 6.45-14.407 14.407-14.407s14.403 6.45 14.403 14.407c0 1.989-.4 3.884-1.133 5.607-1.082 2.563-2.886 4.744-5.155 6.295-2.31 1.581-5.104 2.505-8.115 2.505-3.729 0-7.128-1.416-9.688-3.746h-.003c-1.317-1.2-2.41-2.636-3.212-4.248z" fill="#ffeec8"/><path d="m448.053 315.545c-7.957 0-14.407 6.45-14.407 14.407 0 2.013.414 3.932 1.159 5.671l-.104.047c-3.058-1.069-5.334-4.083-5.624-7.721-.02-.256-.03-.52-.03-.786v-29.557c0-4.923 3.635-8.918 8.116-8.918h23.079c4.484 0 8.116 3.995 8.116 8.918v29.557c0 .263-.011.526-.03.782-.308 3.867-2.856 7.03-6.215 7.903-.003 0-.003 0-.007.003-.003 0-.003 0-.007 0l-.775-.293c.732-1.723 1.133-3.618 1.133-5.607-.001-7.955-6.447-14.406-14.404-14.406z" fill="#ed1d31"/><path d="m437.854 340.944s-9.34.9-13.012 11.339l1.555-6.997c1.103-5.513 3.928-8.847 8.753-8.921.802 1.612 1.895 3.048 3.213 4.249z" fill="#ffffc2"/><path d="m633.301 382.646c4.805 0 8.723-2.741 8.915-6.181h.007v64.174c0 4.929-3.972 8.921-8.871 8.921h-104.608l-111.044-.272c-4.896 0-8.867-3.999-8.867-8.925v-64.174h.006c.189 3.439 4.11 6.184 8.915 6.184l110.154.273zm-8.921 55.764v-46.563h-41.267v46.563zm-51.581-.141v-46.56h-41.266v46.56zm-53.279-.28v-46.56h-41.263v46.56zm-51.582.142v-46.563h-41.263v46.563z" fill="#ffffc2"/><path d="m642.216 376.465c-.192 3.439-4.11 6.181-8.915 6.181h-105.393l-110.154-.273c-4.805 0-8.726-2.744-8.915-6.184-.003-.084-.006-.172-.006-.263l8.921-41.482c0-3.561 3.996-6.443 8.921-6.443h1.858l.542-.05c.29 3.638 2.566 6.652 5.624 7.721l.104-.047c.108.256.223.502.345.742-4.825.074-7.65 3.409-8.753 8.921l-1.555 6.997-.003.007-.003.01-2.9 13.059c0 4.93 3.996 8.922 8.921 8.922h28.44c4.927 0 8.922-3.992 8.922-8.922v-12.637-7.435c0-3.83-2.414-7.097-5.803-8.365l-.304-1.072c3.358-.874 5.907-4.036 6.215-7.903l.356.054 12.651.267 1.332-.219c.499 3.328 2.68 6.039 5.546 7.04l.104-.044c.108.253.223.499.344.742-4.824.074-7.65 3.409-8.753 8.922l-1.045 8.52h-.003l-1.571 12.803c0 4.926 2.154 7.67 7.08 7.67h28.44c4.926 0 8.922-3.989 8.922-8.921v-12.634-7.438c0-3.827-2.414-7.098-5.803-8.365l-.304-1.072c3.173-.826 5.624-3.692 6.144-7.273l.026.003h12.813l.088-.014c.509 3.311 2.681 6.009 5.54 7.007l.104-.044c.107.253.223.499.344.742-4.825.074-7.65 3.409-8.753 8.921l-.978 9.926-1.065 10.817c0 4.926 1.578 8.25 6.504 8.25h28.44c4.926 0 8.921-3.992 8.921-8.922v-12.637-7.435c0-3.83-2.414-7.097-5.803-8.365l-.303-1.072c3.095-.806 5.506-3.558 6.1-7.017l.646.118h7.975l.357-.034c.199 2.445 1.295 4.606 2.923 6.086.26.233.529.452.813.647.095.067.189.131.287.192.681.435 1.419.762 2.205.964l-.313 1.069c-3.393 1.264-5.803 4.531-5.803 8.362v7.435 12.641c0 3.385 1.888 6.332 4.67 7.846.63.344 1.308.614 2.022.796.283.074.573.135.87.179.441.071.896.104 1.358.104h28.438c.462 0 .914-.034 1.358-.104.294-.044.584-.104.87-.179.712-.182 1.39-.452 2.023-.796 2.781-1.514 4.67-4.461 4.67-7.846l-2.91-13.086v-.003l-1.551-6.986c-1.103-5.513-3.932-8.844-8.753-8.918.121-.243.235-.492.344-.742l.107.044c3.059-1.069 5.335-4.08 5.624-7.718l.54.05h1.861c4.926 0 8.921 2.883 8.921 6.44l8.922 41.486c.006.082.003.17-.001.257z" fill="#ffffc2"/><g fill="none"><path d="m624.447 373.485c-.634.344-1.312.614-2.023.796-.286.074-.576.135-.87.179-.444.071-.896.104-1.358.104h-28.438c-.462 0-.917-.034-1.358-.104-.297-.044-.587-.104-.87-.179-.715-.182-1.393-.452-2.022-.796" stroke="#231f20" stroke-width="4.7204"/><path d="m586.461 334.977c-.283-.195-.553-.415-.813-.647" stroke="#231f20" stroke-width="4.7204"/><path d="m588.953 336.133c-.786-.203-1.524-.53-2.205-.964" stroke="#231f20" stroke-width="4.7204"/><path d="m463.906 345.52c.158.158.317.324.472.499" stroke="#231f20" stroke-width="4.7204"/><path d="m459.105 342.482c.067.024.135.047.205.071" stroke="#231f20" stroke-width="4.7204"/><path d="m521.795 328h12.812" stroke="#231f20" stroke-width="4.7204"/><path d="m468.684 328 12.651.267" stroke="#231f20" stroke-width="4.7204"/><path d="m424.842 352.284 1.555-6.997c1.103-5.513 3.928-8.847 8.753-8.921.057-.003.114-.003.172-.003" stroke="#231f20" stroke-width="4.7204"/><path d="m462.416 336.922c3.389 1.268 5.803 4.535 5.803 8.365v7.435 12.637c0 4.93-3.995 8.922-8.922 8.922h-28.44c-4.926 0-8.921-3.992-8.921-8.922l2.9-13.059" stroke="#231f20" stroke-width="4.7204"/><path d="m434.7 335.671c-3.058-1.069-5.334-4.083-5.624-7.721-.02-.256-.03-.52-.03-.786v-29.557c0-4.923 3.635-8.918 8.116-8.918h23.079c4.484 0 8.116 3.995 8.116 8.918v29.557c0 .263-.011.526-.03.782-.308 3.867-2.856 7.03-6.215 7.903-.003 0-.003 0-.007.003-.003 0-.003.003-.007.003" stroke="#231f20" stroke-width="4.7204"/><path d="m426.676 391.567h41.263v46.563h-41.263z" stroke="#231f20" stroke-width="4.7204"/><path d="m478.257 391.429h41.263v46.56h-41.263z" stroke="#231f20" stroke-width="4.7204"/><path d="m434.805 335.624c-.745-1.74-1.159-3.658-1.159-5.671 0-7.957 6.45-14.407 14.407-14.407s14.403 6.45 14.403 14.407c0 1.989-.4 3.884-1.133 5.607-1.082 2.563-2.886 4.744-5.155 6.295-2.31 1.581-5.104 2.505-8.115 2.505-3.729 0-7.128-1.416-9.688-3.746h-.003c-1.318-1.201-2.411-2.637-3.213-4.249-.122-.239-.236-.485-.344-.741z" stroke="#231f20" stroke-width="4.7204"/><path d="m444.522 328.186c0 .873-.668 1.581-1.49 1.581-.819 0-1.483-.708-1.483-1.581 0-.874.664-1.578 1.483-1.578.822 0 1.49.705 1.49 1.578z" stroke="#231f20" stroke-width="2.3602"/><ellipse cx="452.513" cy="328" rx="1.487" ry="1.578" stroke="#231f20" stroke-width="2.3602"/><path d="m437.854 340.944s-9.34.9-13.012 11.339l-.003.007-.003.01c-.061.175-.118.354-.179.536" stroke="#231f20" stroke-width="4.7204"/><path d="m456.229 341.939s1.197-.027 2.877.543c.067.021.135.044.205.071 1.365.489 3.018 1.376 4.596 2.967.158.155.317.324.472.499 1.406 1.561 2.718 3.719 3.679 6.703" stroke="#231f20" stroke-width="4.7204"/><path d="m622.519 328.28h1.861c4.926 0 8.921 2.883 8.921 6.44l8.922 41.486c0 .084-.003.172-.007.259-.192 3.439-4.11 6.181-8.915 6.181h-105.393l-110.154-.273c-4.805 0-8.726-2.744-8.915-6.184-.003-.084-.006-.172-.006-.263l8.921-41.482c0-3.561 3.996-6.443 8.921-6.443h1.858" stroke="#231f20" stroke-width="4.7204"/><path d="m582.368 328.277h-7.974" stroke="#231f20" stroke-width="6.6915"/><path d="m642.223 376.465v64.174c0 4.929-3.972 8.921-8.871 8.921h-104.608l-111.044-.272c-4.896 0-8.867-3.999-8.867-8.925v-64.174" stroke="#231f20" stroke-width="4.7204"/><path d="m626.207 352.55-1.551-6.986c-1.103-5.513-3.932-8.844-8.753-8.918-.058-.003-.111-.003-.169-.003" stroke="#231f20" stroke-width="4.7204"/><path d="m588.64 337.202c-3.393 1.264-5.803 4.531-5.803 8.362v7.435 12.641c0 3.385 1.888 6.332 4.67 7.846.63.344 1.308.61 2.022.796.283.071.573.131.87.179.441.067.896.101 1.358.101h28.438c.462 0 .914-.034 1.358-.101.294-.047.584-.108.87-.179.712-.186 1.39-.452 2.023-.796 2.781-1.514 4.67-4.461 4.67-7.846l-2.91-13.086" stroke="#231f20" stroke-width="4.7204"/><path d="m616.354 335.948c3.059-1.069 5.335-4.08 5.624-7.718.021-.26.031-.523.031-.789v-29.553c0-4.926-3.635-8.921-8.116-8.921h-23.083c-4.48 0-8.115 3.996-8.115 8.921v29.553c0 .27.01.536.03.802.199 2.445 1.295 4.606 2.923 6.086.26.233.529.449.813.647.095.067.189.131.287.192.681.432 1.419.758 2.205.961" stroke="#231f20" stroke-width="4.7204"/><path d="m583.113 391.847h41.267v46.563h-41.267z" stroke="#231f20" stroke-width="4.7204"/><path d="m531.533 391.709h41.266v46.56h-41.266z" stroke="#231f20" stroke-width="4.7204"/><path d="m595.016 342.219c2.282 1.524 5.03 2.414 7.984 2.414 3.604 0 6.905-1.322 9.431-3.513h.003c1.433-1.245 2.616-2.758 3.47-4.475.121-.243.235-.492.344-.742.745-1.743 1.16-3.658 1.16-5.675 0-7.957-6.447-14.404-14.407-14.404-7.954 0-14.401 6.447-14.401 14.404 0 2.114.455 4.124 1.271 5.928 1.116 2.475 2.906 4.572 5.142 6.063" stroke="#231f20" stroke-width="4.7204"/><ellipse cx="608.02" cy="328.466" rx="1.487" ry="1.582" stroke="#231f20" stroke-width="2.3602"/><path d="m600.029 328.277c0-.87-.664-1.578-1.49-1.578-.819 0-1.483.708-1.483 1.578 0 .874.664 1.585 1.483 1.585.826 0 1.49-.712 1.49-1.585z" stroke="#231f20" stroke-width="2.3602"/><path d="m621.018 344.822c.183.152.364.311.543.479.092.081.179.168.271.256 1.695 1.639 3.283 3.894 4.376 6.993v.003c.067.186.132.371.192.563" stroke="#231f20" stroke-width="4.7204"/><path d="m595.079 342.219s-.023 0-.063 0h-.004c-.806.01-8.665.384-12.017 10.779" stroke="#231f20" stroke-width="4.7204"/><path d="m478.863 353.228 1.045-8.52c1.103-5.513 3.929-8.848 8.753-8.922.058-.003.115-.003.172-.003" stroke="#231f20" stroke-linecap="round" stroke-linejoin="round" stroke-width="4.7204"/><path d="m515.929 336.342c3.389 1.268 5.803 4.538 5.803 8.365v7.438 12.634c0 4.933-3.996 8.921-8.922 8.921h-28.44c-4.926 0-7.08-2.745-7.08-7.67l1.571-12.803" stroke="#231f20" stroke-linecap="round" stroke-linejoin="round" stroke-width="4.7204"/><path d="m488.213 335.088c-2.866-1.001-5.047-3.712-5.546-7.04-.071-.476-.108-.964-.108-1.463v-29.557c0-4.926 3.635-8.921 8.116-8.921h23.079c4.484 0 8.115 3.996 8.115 8.921v29.557c0 .482-.033.954-.101 1.413-.52 3.581-2.971 6.447-6.144 7.273-.003 0-.007.003-.01.003" stroke="#231f20" stroke-linecap="round" stroke-linejoin="round" stroke-width="4.7204"/><path d="m488.317 335.044c-.745-1.74-1.16-3.658-1.16-5.671 0-7.954 6.45-14.408 14.408-14.408 7.957 0 14.403 6.454 14.403 14.408 0 1.989-.404 3.884-1.133 5.607-1.082 2.559-2.886 4.744-5.155 6.295-2.31 1.578-5.104 2.502-8.115 2.502-3.729 0-7.128-1.416-9.688-3.743-.003 0-.003 0-.003 0-1.318-1.2-2.411-2.64-3.214-4.249-.12-.242-.234-.488-.343-.741z" stroke="#231f20" stroke-linecap="round" stroke-linejoin="round" stroke-width="4.7204"/><path d="m498.035 327.606c0 .874-.668 1.582-1.49 1.582-.819 0-1.484-.708-1.484-1.582 0-.873.665-1.578 1.484-1.578.822 0 1.49.705 1.49 1.578z" stroke="#231f20" stroke-linecap="round" stroke-linejoin="round" stroke-width="2.3602"/><ellipse cx="506.026" cy="327.42" rx="1.487" ry="1.578" stroke="#231f20" stroke-linecap="round" stroke-linejoin="round" stroke-width="2.3602"/><path d="m491.365 340.361s-8.823 2.465-12.502 12.866h-.003c-.074.219-.152.438-.223.665" stroke="#231f20" stroke-linecap="round" stroke-linejoin="round" stroke-width="4.7204"/><path d="m509.741 341.359s8.298-.186 11.828 10.786" stroke="#231f20" stroke-linecap="round" stroke-linejoin="round" stroke-width="4.7204"/><path d="m567.95 336.248c3.389 1.268 5.803 4.535 5.803 8.365v7.435 12.637c0 4.93-3.995 8.922-8.921 8.922h-28.44c-4.926 0-6.504-3.325-6.504-8.25l1.065-10.817.978-9.926c1.103-5.513 3.928-8.847 8.753-8.921.058-.003.114-.003.172-.003" stroke="#231f20" stroke-linecap="round" stroke-linejoin="round" stroke-width="4.7204"/><path d="m540.235 334.994c-2.859-.998-5.031-3.696-5.54-7.007-.074-.485-.114-.988-.114-1.497v-29.557c0-4.926 3.635-8.921 8.115-8.921h23.08c4.484 0 8.115 3.995 8.115 8.921v29.557c0 .57-.047 1.129-.145 1.669-.594 3.459-3.005 6.21-6.1 7.017-.004 0-.007.003-.011.003" stroke="#231f20" stroke-linecap="round" stroke-linejoin="round" stroke-width="4.7204"/><path d="m540.34 334.95c-.745-1.74-1.16-3.658-1.16-5.671 0-7.957 6.45-14.407 14.407-14.407s14.404 6.45 14.404 14.407c0 1.989-.401 3.884-1.133 5.607-1.082 2.563-2.887 4.744-5.155 6.295-2.31 1.581-5.105 2.505-8.116 2.505-3.729 0-7.128-1.419-9.687-3.746-1.318-1.197-2.414-2.637-3.217-4.249-.12-.242-.236-.488-.343-.741z" stroke="#231f20" stroke-linecap="round" stroke-linejoin="round" stroke-width="4.7204"/><path d="m548.566 325.934c.823 0 1.49.705 1.49 1.578s-.667 1.581-1.49 1.581c-.819 0-1.483-.708-1.483-1.581 0-.874.664-1.578 1.483-1.578z" stroke="#231f20" stroke-linecap="round" stroke-linejoin="round" stroke-width="2.3602"/><ellipse cx="558.048" cy="327.326" rx="1.487" ry="1.582" stroke="#231f20" stroke-linecap="round" stroke-linejoin="round" stroke-width="2.3602"/><path d="m543.388 340.267s-8.621 3.335-12.151 14.3" stroke="#231f20" stroke-linecap="round" stroke-linejoin="round" stroke-width="4.7204"/><path d="m561.764 341.265s8.298-.185 11.828 10.783" stroke="#231f20" stroke-linecap="round" stroke-linejoin="round" stroke-width="4.7204"/></g><path d="m410.158 673.272c.547 4.206.83 8.501.83 12.862 0 52.495-40.837 95.049-91.218 95.049-50.375 0-91.212-42.554-91.212-95.049 0-11.471 1.95-22.467 5.522-32.647l.458.159c-.271 1.117-.499 2.249-.674 3.404-5.033 32.515 30.164 64.955 78.606 72.447 48.442 7.496 91.794-12.79 96.824-45.305.562-3.624.622-7.251.222-10.838z" fill="#f73900"/><path d="m410.158 673.272-.643.083c.4 3.587.34 7.214-.222 10.838-5.03 32.515-48.382 52.801-96.824 45.305-48.442-7.492-83.639-39.933-78.606-72.447.175-1.155.403-2.287.674-3.404l-.458-.159c12.779-36.412 46.322-62.401 85.69-62.401 46.193-.001 84.365 35.774 90.389 82.185z" fill="#f73900"/><path d="m410.158 673.272c.547 4.206.83 8.501.83 12.862 0 52.495-40.837 95.049-91.218 95.049-50.375 0-91.212-42.554-91.212-95.049 0-11.471 1.95-22.467 5.522-32.647 12.779-36.412 46.322-62.401 85.69-62.401 46.192 0 84.364 35.775 90.388 82.186z" fill="none" stroke="#000" stroke-width="14"/><path d="m409.515 673.355c.4 3.587.34 7.214-.222 10.838-5.03 32.515-48.382 52.801-96.824 45.305-48.442-7.492-83.639-39.933-78.606-72.447.175-1.155.403-2.287.674-3.404" fill="none" stroke="#000" stroke-dasharray="5.739" stroke-width="7"/></svg>