<svg enable-background="new 0 0 850.394 850.394" height="850.394" viewBox="0 0 850.394 850.394" width="850.394" xmlns="http://www.w3.org/2000/svg"><path d="m547.83 491.12c4.91-11.25 11.65-21 20.189-29.89 5.471-5.681 11.66-11.011 18.591-16.141 1.479-1.1 3-2.2 4.55-3.28 4.84-3.38 9.7-6.26 14.51-8.699 6.57-3.33 13.061-5.851 19.28-7.74v-.01c28.29-8.6 51.02-4.23 51.02-4.23v29.16l-.21 3.43c-1.88-.109-3.779-.17-5.689-.17-53.32 0-96.53 43.21-96.53 96.521 0 1.16.02 2.31.07 3.449h-35.65c-.13-5.02-.09-10.619.19-16.829.789-17.791 4.029-32.661 9.679-45.571z" fill="#abda4d"/><path d="m217.13 215.47v21.32.02h-23.52v-21.34z" fill="#ffa500"/><path d="m352.63 339.24v14.05h-30.74v-3.32-10.73z" fill="#787878"/><path d="m472.1 553.68 2.181 16.931h-59.63s-.74-5.08-2.04-13.28c-1.56-9.85-3.91-24.21-6.74-39.7h61.58z" fill="#c8c8c8"/><path d="m624.95 404.83v20.53.01c-6.22 1.89-12.71 4.41-19.28 7.74v-28.28z" fill="#c8c8c8"/><path d="m586.39 443.4v-38.57h19.28v28.28c-4.81 2.439-9.67 5.319-14.51 8.699-1.55 1.08-3.07 2.181-4.55 3.28z" fill="#c8c8c8"/><path d="m586.39 443.4.221 1.689c-6.931 5.13-13.12 10.46-18.591 16.141l-.909-1.53v-54.87h19.279z" fill="#c8c8c8"/><path d="m567.11 459.7.909 1.53c-8.539 8.89-15.279 18.64-20.189 29.89v-86.29h19.28z" fill="#c8c8c8"/><path d="m153.92 563.11c5.29 9.449 12.31 17.81 20.63 24.63 14.89 12.22 33.94 19.56 54.7 19.56 14.89 0 28.9-3.77 41.12-10.41 8.76-4.76 16.6-10.989 23.18-18.35 13.66-15.271 21.97-35.41 21.97-57.5 0-14.14-3.41-27.49-9.44-39.271-5.2-10.17-12.36-19.159-20.99-26.489-15.04-12.8-34.53-20.511-55.84-20.511-13.96 0-27.15 3.32-38.82 9.211-11.35 5.729-21.26 13.89-29.05 23.8-11.52 14.67-18.4 33.16-18.4 53.26 0 15.28 3.97 29.62 10.94 42.07zm220.28-42.07c0 12.53-1.59 24.69-4.58 36.29-16.11 62.49-72.84 108.66-140.37 108.66-80.05 0-144.95-64.9-144.95-144.95 0-33.78 11.55-64.85 30.92-89.5 26.54-33.77 67.75-55.46 114.03-55.46 80.06 0 144.95 64.9 144.95 144.96z" fill="#787878"/><path d="m573.61 553.52c-.051-1.14-.07-2.289-.07-3.449 0-53.311 43.21-96.521 96.53-96.521 1.91 0 3.81.061 5.689.17 50.66 2.94 90.83 44.95 90.83 96.351 0 53.31-43.21 96.529-96.52 96.529-52.159 0-94.649-41.37-96.459-93.08zm60.03 40.97c9.91 8.14 22.591 13.029 36.431 13.029 9.91 0 19.239-2.51 27.38-6.93 5.83-3.17 11.04-7.32 15.43-12.22 9.101-10.16 14.63-23.58 14.63-38.3 0-9.42-2.27-18.301-6.29-26.15-3.46-6.76-8.229-12.75-13.97-17.63-10.02-8.521-23-13.66-37.18-13.66-9.301 0-18.08 2.21-25.851 6.14-7.56 3.801-14.16 9.24-19.34 15.841-7.68 9.76-12.26 22.08-12.26 35.46 0 10.18 2.64 19.729 7.28 28.02 3.53 6.29 8.2 11.85 13.74 16.4z" fill="#787878"/><path d="m447.47 219.97h-135.39-70.77l-6.35 123.45c-8.41.01-16.46.19-23.71.43l-.15-4.61 6.03-102.43v-.02l1.13-19.2s-3.98-21.47 41.34-21.47h160.61s26.43 4.78 27.03 19.08c.05 1.1.12 2.71.23 4.77z" fill="#33a02c"/><path d="m412.61 557.33h-.01-42.98c2.99-11.6 4.58-23.76 4.58-36.29 0-80.06-64.89-144.96-144.95-144.96-46.28 0-87.49 21.69-114.03 55.46l-4.3-4.05s-33.4-6.47-18.69-18.68c6.16-5.12 12.31-10.05 18.32-14.74 0 0 0 0 0-.01 30.82-24.1 58.05-42.06 65.77-47.07h.01c8.42-1.44 11.87-2.03 12.09-2.07h.01c5.74-.35 13.64-.76 22.82-1.07 7.25-.24 15.3-.42 23.71-.43 31.35-.09 67.74 1.95 86.62 10.54.28.13.56.26.83.39 36.58 17.49 62.02 69.96 72.36 110.51 3.99 15.649 7.85 34.949 11.1 52.77 2.83 15.49 5.18 29.85 6.74 39.7z" fill="#33a02c"/><path d="m460.76 465.66 6.69 51.97h-61.58c-3.25-17.82-7.11-37.12-11.1-52.77h65.94c.03.53.05.8.05.8z" fill="#33a02c"/><path d="m476.66 370.25 150.54 3.18s48.77-3.71 48.77 37.11v10.59s-22.729-4.37-51.02 4.23v-20.53h-19.28-19.28-19.28-19.28v86.29c-5.65 12.91-8.89 27.78-9.68 45.57-.28 6.21-.32 11.81-.19 16.829h-64.61l-1.25.16-4.649-36.05-6.69-51.97s-.02-.271-.05-.8c-.33-6.181-2.62-47.581-5.21-95.061z" fill="#33a02c"/><path d="m306.08 481.77-2.72.771-15.71 9.97-7.51 69.42 13.21 16.431.2.18c-6.58 7.36-14.42 13.59-23.18 18.35l-2.21-3.859-10.64-13.46-69.37-4.16-13.6 12.33c-8.32-6.82-15.34-15.181-20.63-24.63l14.97-12.091 7.42-69.439-13.23-13.08-1.7-.72c7.79-9.91 17.7-18.07 29.05-23.8l9.54 14.26 68.82 9.62 16.29-12.57.01-.01c8.63 7.327 15.79 16.317 20.99 26.487z" fill="#abda4d"/><path d="m721.22 523.92-1.8.51-10.46 6.641-5 46.229 8.79 10.95.13.12c-4.39 4.899-9.6 9.05-15.43 12.22l-1.47-2.58-7.08-8.96-46.2-2.77-9.061 8.21c-5.54-4.55-10.21-10.11-13.739-16.4l9.97-8.05 4.939-46.25-8.81-8.7-1.12-.479c5.18-6.601 11.78-12.04 19.34-15.841l6.351 9.48 45.83 6.41 10.85-8.37c5.74 4.88 10.51 10.87 13.97 17.63z" fill="#abda4d"/><path d="m721.22 523.92c4.021 7.85 6.29 16.73 6.29 26.15 0 14.72-5.529 28.14-14.63 38.3l-.13-.12-8.79-10.95 5-46.229 10.46-6.641z" fill="#fff"/><path d="m695.98 598.01 1.47 2.58c-8.141 4.42-17.47 6.93-27.38 6.93-13.84 0-26.521-4.89-36.431-13.029l9.061-8.21 46.2 2.77z" fill="#fff"/><path d="m707.25 506.29-10.85 8.37-45.83-6.41-6.351-9.48c7.771-3.93 16.55-6.14 25.851-6.14 14.18 0 27.16 5.14 37.18 13.66z" fill="#fff"/><path d="m634.81 523.79-4.939 46.25-9.97 8.05c-4.641-8.29-7.28-17.84-7.28-28.02 0-13.38 4.58-25.7 12.26-35.46l1.12.479z" fill="#fff"/><path d="m268.16 593.03 2.21 3.859c-12.22 6.641-26.23 10.41-41.12 10.41-20.76 0-39.81-7.34-54.7-19.56l13.6-12.33 69.37 4.16z" fill="#fff"/><path d="m306.08 481.77c6.03 11.78 9.44 25.131 9.44 39.271 0 22.09-8.31 42.229-21.97 57.5l-.2-.18-13.21-16.431 7.51-69.42 15.71-9.97z" fill="#fff"/><path d="m285.09 455.28-.01.01-16.29 12.57-68.82-9.62-9.54-14.26c11.67-5.891 24.86-9.211 38.82-9.211 21.31.001 40.8 7.711 55.84 20.511z" fill="#fff"/><path d="m176.31 481.58-7.42 69.439-14.97 12.091c-6.97-12.45-10.94-26.79-10.94-42.07 0-20.1 6.88-38.59 18.4-53.26l1.7.72z" fill="#fff"/><path d="m455.5 369.8c2.59 47.48 4.88 88.88 5.21 95.061h-65.94c-10.34-40.55-35.78-93.021-72.36-110.51-.27-.13-.55-.26-.83-.39l.31-.67h30.74v-14.05h-30.74v10.73h-3.85l-5.96-130h135.39c1.03 21.199 4.78 90.299 8.03 149.829z" fill="#fff"/><path d="m318.04 349.97h3.85v3.32l-.31.67c-18.88-8.59-55.27-10.63-86.62-10.54l6.35-123.45h70.77z" fill="#fff"/><g fill="none"><path d="m306.08 481.77c6.03 11.78 9.44 25.131 9.44 39.271 0 22.09-8.31 42.229-21.97 57.5-6.58 7.36-14.42 13.59-23.18 18.35-12.22 6.641-26.23 10.41-41.12 10.41-20.76 0-39.81-7.34-54.7-19.56-8.32-6.82-15.34-15.181-20.63-24.63-6.97-12.45-10.94-26.79-10.94-42.07 0-20.1 6.88-38.59 18.4-53.26 7.79-9.91 17.7-18.07 29.05-23.8 11.67-5.891 24.86-9.211 38.82-9.211 21.31 0 40.8 7.711 55.84 20.511 8.63 7.329 15.79 16.319 20.99 26.489z" stroke="#231f20" stroke-width="21"/><path d="m115.22 431.54c26.54-33.77 67.75-55.46 114.03-55.46 80.06 0 144.95 64.9 144.95 144.96 0 12.53-1.59 24.69-4.58 36.29-16.11 62.49-72.84 108.66-140.37 108.66-80.05 0-144.95-64.9-144.95-144.95 0-33.78 11.55-64.85 30.92-89.5z" stroke="#231f20" stroke-width="21"/><path d="m110.55 394.07c-6.01 4.69-12.16 9.62-18.32 14.74-14.71 12.21 18.69 18.68 18.69 18.68" stroke="#231f20" stroke-width="21"/><path d="m176.32 346.99c-7.72 5.01-34.95 22.97-65.77 47.07" stroke="#231f20" stroke-width="21"/><path d="m188.42 344.92c-6.24.38-9.92.68-9.92.68s-.76.48-2.17 1.39" stroke="#231f20" stroke-width="21"/><path d="m217.13 236.79 1.13-19.2s-3.98-21.47 41.34-21.47h160.61s26.43 4.78 27.03 19.08c.05 1.1.12 2.71.229 4.77 1.03 21.2 4.78 90.3 8.03 149.83 2.59 47.48 4.88 88.88 5.21 95.061.03.529.05.8.05.8l6.69 51.97 4.649 36.05 2.181 16.931h-59.63s-.74-5.08-2.04-13.28c-1.56-9.85-3.91-24.21-6.74-39.7-3.25-17.82-7.11-37.12-11.1-52.77-10.34-40.55-35.78-93.021-72.36-110.51-.27-.13-.55-.26-.83-.39-18.88-8.59-55.27-10.63-86.62-10.54-8.41.01-16.46.19-23.71.43-9.18.31-17.08.72-22.82 1.07" stroke="#231f20" stroke-width="21"/><path d="m211.1 339.24 6.03-102.43" stroke="#231f20" stroke-width="21"/><path d="m234.96 343.42 6.35-123.45h70.77 135.39" stroke="#231f20" stroke-width="14"/><path d="m312.08 219.97 5.96 130" stroke="#231f20" stroke-width="14"/><path d="m394.77 464.86h65.94.05" stroke="#231f20" stroke-width="19.0823"/><path d="m405.87 517.63h61.58.48" stroke="#231f20" stroke-width="19.0823"/><path d="m455.5 369.8 21.16.45 150.54 3.18s48.77-3.71 48.77 37.11v10.59 29.16" stroke="#231f20" stroke-width="21"/><path d="m110.55 394.07s0 0 0-.01c.03-.73 1.7-36.09 28.99-40.77 17.27-2.96 29.09-4.98 36.78-6.3h.01c8.42-1.44 11.87-2.03 12.09-2.07h.01" stroke="#231f20" stroke-width="14"/><path d="m476.66 219.97v150.28 135.16" stroke="#231f20" stroke-linecap="round" stroke-linejoin="round" stroke-width="21"/><path d="m369.62 557.33h42.98" stroke="#231f20" stroke-width="21"/><path d="m190.43 443.98 9.54 14.26 68.82 9.62 16.29-12.57" stroke="#231f20" stroke-width="14"/><path d="m268.16 593.03-10.64-13.46-69.37-4.16-13.6 12.33-1.64 1.48" stroke="#231f20" stroke-width="14"/><path d="m163.08 468.5 13.23 13.08-7.42 69.44-14.97 12.09-1.43 1.16" stroke="#231f20" stroke-width="14"/><path d="m303.36 482.54-15.71 9.97-7.51 69.42 13.21 16.43" stroke="#231f20" stroke-width="14"/><path d="m721.22 523.92c4.021 7.85 6.29 16.73 6.29 26.15 0 14.72-5.529 28.14-14.63 38.3-4.39 4.899-9.6 9.05-15.43 12.22-8.141 4.42-17.47 6.93-27.38 6.93-13.84 0-26.521-4.89-36.431-13.029-5.54-4.55-10.21-10.11-13.739-16.4-4.641-8.29-7.28-17.84-7.28-28.02 0-13.38 4.58-25.7 12.26-35.46 5.18-6.601 11.78-12.04 19.34-15.841 7.771-3.93 16.55-6.14 25.851-6.14 14.18 0 27.16 5.14 37.18 13.66 5.739 4.88 10.509 10.87 13.969 17.63z" stroke="#231f20" stroke-width="14"/><path d="m675.76 453.72c50.66 2.94 90.83 44.95 90.83 96.351 0 53.31-43.21 96.529-96.52 96.529-52.16 0-94.65-41.369-96.46-93.08-.051-1.14-.07-2.289-.07-3.449 0-53.311 43.21-96.521 96.53-96.521 1.91 0 3.81.06 5.69.17z" stroke="#231f20" stroke-width="21"/><path d="m644.21 498.75.01.02 6.35 9.48 45.83 6.41 10.85-8.37" stroke="#231f20" stroke-width="14"/><path d="m695.98 598.01-7.08-8.96-46.2-2.77-9.06 8.21-1.09.99" stroke="#231f20" stroke-width="14"/><path d="m626 515.09 8.81 8.7-4.94 46.25-9.97 8.05-.95.77" stroke="#231f20" stroke-width="14"/><path d="m719.42 524.43-10.46 6.64-5 46.23 8.79 10.95" stroke="#231f20" stroke-width="14"/><path d="m624.95 425.37c-6.22 1.89-12.71 4.41-19.28 7.74-4.81 2.439-9.67 5.319-14.51 8.699-1.55 1.08-3.07 2.181-4.55 3.28-6.931 5.13-13.12 10.46-18.591 16.141-8.539 8.89-15.279 18.64-20.189 29.89-5.65 12.91-8.89 27.78-9.68 45.57-.28 6.21-.32 11.81-.19 16.829.75 28.66 7.08 38.83 7.08 38.83" stroke="#231f20" stroke-linecap="round" stroke-linejoin="round" stroke-width="21"/><path d="m675.97 421.13s-22.729-4.37-51.02 4.23" stroke="#231f20" stroke-linecap="round" stroke-linejoin="round" stroke-width="21"/><path d="m473.35 553.52h64.61 35.65.01" stroke="#231f20" stroke-width="21"/><path d="m217.13 236.81h-23.52v-21.34h23.52v21.32z" stroke="#231f20" stroke-linecap="round" stroke-linejoin="round" stroke-width="7"/><path d="m321.89 349.97v-10.73h30.74v14.05h-30.74z" stroke="#231f20" stroke-linecap="round" stroke-linejoin="round" stroke-width="7"/><path d="m547.83 491.15v-.03-86.29h19.28 19.28 19.28 19.28v20.53.01" stroke="#231f20" stroke-width="14"/><path d="m605.67 433.11v-28.28" stroke="#231f20" stroke-width="14"/><path d="m586.39 443.4v-38.57" stroke="#231f20" stroke-width="14"/><path d="m567.11 459.7v-54.87" stroke="#231f20" stroke-width="14"/><path d="m0 0h850.394v850.394h-850.394z"/><path d="m0 0h850.394v850.394h-850.394z"/></g></svg>