<svg enable-background="new 0 0 850.394 850.394" height="850.394" viewBox="0 0 850.394 850.394" width="850.394" xmlns="http://www.w3.org/2000/svg"><path d="m523.04 506.41v12.09l-97.47 125.98-2.33.87v-105.24z" fill="#f6cc4b"/><path d="m523.04 489.52v16.89l-99.8 33.7v-99.28l.76-.83z" fill="#f6cc4b"/><path d="m423.24 440.83v99.28l-86.46 29.2-4.42-.01.04-29.02z" fill="#f6cc4b"/><path d="m423.24 540.11v105.24l-88.72 32.89h-2.32l.16-108.94 4.42.01z" fill="#f6cc4b"/><path d="m423.24 645.35v2.14l-91.16 117.83.12-87.08h2.32z" fill="#f6cc4b"/><path d="m332.4 540.28-.04 29.02-.16 108.94-.12 87.08-.03 17.47-3.28 4.11-144.01-84.99 67.25-73.62 67.94-74.38z" fill="#f6cc4b"/><g fill="none"><path d="m689.05 349.28-73.92 23.07-92.81 28.96-100.52 31.36-89.28 27.86-.02 13.47-.1 66.28-.04 29.02-.16 108.94-.12 87.08-.03 17.47 93.15-35.42 193.85-73.72 70-26.62v-100.24-96.45-101.06-.6-6" stroke="#231f20" stroke-width="19.8484"/><path d="m190.32 385.92 66.34 34.81 75.86 39.8" stroke="#231f20" stroke-width="19.8484"/><path d="m693.6 350.15-4.55-1.47-97.93-31.74-83.65-27.1-57.12 16.48-84.15 24.28-34.4 9.92-19.96 5.76-37.21 10.74-18.57 5.35-63.83 18.42-7.47 2.15-6.3 1.82" stroke="#231f20" stroke-width="19.8484"/><path d="m184.76 379.41v3.53 140.8 94.26 83.91l144.01 84.99" stroke="#231f20" stroke-width="19.8484"/><path d="m619.05 675.07v-1.42-100.91-98.76-100.11l-3.92-1.52-89.62-34.77-74.48-28.9" stroke="#231f20" stroke-width="13.2322"/><path d="m523.04 702.82v-94.48-89.84-12.09-16.89-87.89l-.72-.32-82.65-37.19-73.31-32.98" stroke="#231f20" stroke-width="13.2322"/><path d="m423.24 742.22v-94.73-2.14-105.24-99.28-7.45l-1.44-.71-78.49-38.74-11.51-5.69-56.16-27.72" stroke="#231f20" stroke-width="13.2322"/><path d="m260.72 419.47 2.36-.73 68.72-21.25 11.51-3.56 96.36-29.81 85.84-26.54 65.49-20.26" stroke="#231f20" stroke-width="13.2322"/><path d="m253.47 421.72 3.19-.99 4.06-1.26" stroke="#231f20" stroke-width="13.2322"/><path d="m689.05 450.34-70 23.64-83.34 28.15-12.67 4.28-99.8 33.7-86.46 29.2" stroke="#231f20" stroke-width="13.2322"/><path d="m689.05 546.79-70 25.95-96.01 35.6-97.47 36.14-2.33.87-88.72 32.89" stroke="#231f20" stroke-width="13.2322"/><path d="m256.06 410.62v-48.25-48.63-111.67-106.09" stroke="#231f20" stroke-width="13.2322"/><path d="m329.9 243.51-73.84-41.44-68.7-38.56" stroke="#231f20" stroke-width="13.2322"/><path d="m333.2 358.74-1.4-.82-19.96-11.64-55.78-32.54-68.7-40.07" stroke="#231f20" stroke-width="13.2322"/><path d="m331.8 397.49v58.06l-68.72-36.81-8.83-4.73-62.02-33.22-5.59-3v-104.12-110.16-101.08l69.92 32.47 75.24 34.93v113.68 97.01 17.4 30.32z" stroke="#231f20" stroke-width="19.8484"/><path d="m184.76 701.91 67.25-73.62 67.94-74.38 12.45-13.63 90.84-99.45.76-.83" stroke="#231f20" stroke-width="14"/><path d="m330 768 2.08-2.68 91.16-117.83 2.33-3.01 97.47-125.98 12.67-16.37 6.29-8.13" stroke="#231f20" stroke-width="14"/><path d="m424 440 99.04 49.52 8.96 4.48" stroke="#231f20" stroke-width="14"/><path d="m253.47 421.72-.56 78.68-.6 86.37-.3 41.52-.01 1.71" stroke="#231f20" stroke-width="14"/><path d="m184 524 .76-.26 68.15-23.34 77.09-26.4" stroke="#231f20" stroke-width="14"/><path d="m188 618 64.31-31.23 67.64-32.86 8.05-3.91" stroke="#231f20" stroke-width="14"/><path d="m0 0h850.394v850.394h-850.394z"/></g></svg>