<svg enable-background="new 0 0 850.394 850.394" height="850.394" viewBox="0 0 850.394 850.394" width="850.394" xmlns="http://www.w3.org/2000/svg"><g fill="#c8c8c8"><path d="m421.32 74.31v2.22 39.75l-111.95.19h-2.39v-42.1-.02z"/><path d="m248.14 74.37 58.84-.02v.02h-16.33v42.13l-42.2.07h-.05z"/><path d="m421.32 76.53v-2.22l133.31-.05v.11h-16.32v41.72l-3.22.01-113.77.18z"/><path d="m594.68 74.24-.26 41.76h-.42l-39.37.06v-41.69-.11z"/><path d="m554.63 74.37v41.69l-16.32.03v-41.72z"/><path d="m594.42 116-.56 88.67h-.71l-58.05-84.56-.01-4.01 3.22-.01v.48h16.32v-.51l39.37-.06z"/><path d="m535.09 116.1.01 4.01 58.05 84.56h.71l-3.38 540.12h-137l-3.56.21-28.6-489.43v-.78-138.51z"/><path d="m421.32 116.28v138.51l-28.41 490h-140.57l-3.39-541.26 2.37-.01 58.05-84.56v-2.49z"/><path d="m554.63 116.06v.51h-16.32v-.48z"/><path d="m306.98 74.37v42.1l-16.33.03v-42.13z"/><path d="m306.98 116.47v.1h-16.33v-.07z"/><path d="m309.37 116.47v2.49l-58.05 84.56-2.37.01-.55-86.96h.05l42.2-.07v.07h16.33v-.1z"/><path d="m392.91 744.79-1.79 30.92h-138.59l-.19-30.92z"/><path d="m590.48 744.79-.19 30.79h-138.58l-1.79-30.58 3.56-.21z"/></g><path d="m421.32 254.79-28.41 490-1.79 30.92h-138.59l-.19-30.92-3.39-541.26-.55-86.96-.26-42.2 58.84-.02 114.34-.04 133.31-.05 40.05-.02" fill="none" stroke="#231f20" stroke-width="21"/><path d="m421.32 255.57 28.6 489.43 1.79 30.58h138.58l.19-30.79 3.38-540.12.56-88.67.26-41.76" fill="none" stroke="#231f20" stroke-width="21"/><path d="m248.45 116.57 42.2-.07 16.33-.03h2.39l111.95-.19 113.77-.18 3.22-.01 16.32-.03 39.37-.06" fill="none" stroke="#231f20" stroke-width="21"/><path d="m421.32 76.53v39.75 138.51.78 24.65" fill="none" stroke="#231f20" stroke-width="21"/><path d="m306.98 116.47v.1h-16.33v-.07-42.13h16.33z" fill="none" stroke="#231f20" stroke-width="21"/><path d="m554.63 116.06v.51h-16.32v-.48-41.72h16.32z" fill="none" stroke="#231f20" stroke-width="21"/><path d="m251.32 203.52 58.05-84.56" fill="none" stroke="#231f20" stroke-width="21"/><path d="m593.15 204.67-58.05-84.56" fill="none" stroke="#231f20" stroke-width="21"/><path d="m252.33 744.79h.01 140.57.01" fill="none" stroke="#231f20" stroke-width="21"/><path d="m453.48 744.79h137 3.59" fill="none" stroke="#231f20" stroke-width="21"/><path d="m0 0h850.394v850.394h-850.394z" fill="none"/></svg>