<svg enable-background="new 0 0 850.394 850.394" height="850.394" viewBox="0 0 850.394 850.394" width="850.394" xmlns="http://www.w3.org/2000/svg"><path d="m390.29 422.41c-46.85-33.85-63.4 95.77-65.73 120.68-4.14 44.22-8.89 172.24-8.89 212.44l-99.69-696.15c.64 2.7 14.51 60.36 45.61 67.56 31.85 7.37 146.29 22.3 171.29 35.81s84.22 89.79 139.811 218.84c50.6 117.48 83.779 194.19 83.779 236.11 0 40.979-95.87 138.09-164.06 169.22l-.41-.92-171.91-6.21c21.74-32.73 140.5-155.31 183.101-178.69 0 0-65.551-97.989-112.891-178.689h-.01z" fill="#ffeec8"/><g fill="none"><path d="m215.98 59.38c.64 2.7 14.51 60.36 45.61 67.56 31.85 7.37 146.29 22.3 171.29 35.81s84.22 89.79 139.811 218.84c50.6 117.48 83.779 194.19 83.779 236.11 0 40.979-95.87 138.09-164.06 169.22-1.57.71-3.12 1.4-4.66 2.04" stroke="#231f20" stroke-width="14"/><path d="m390.3 422.41c47.34 80.7 112.89 178.69 112.89 178.69-42.6 23.38-161.36 145.96-183.1 178.69" stroke="#231f20" stroke-width="14"/><path d="m353.18 354.02c8.68 18.51 21.97 42.56 37.11 68.39" stroke="#231f20" stroke-width="14"/><path d="m390.3 422.41h-.01c-46.85-33.85-63.4 95.77-65.73 120.68-4.14 44.22-8.89 172.24-8.89 212.44" stroke="#231f20" stroke-width="14"/><path d="m351.06 445.38 31.72 36.31" stroke="#231f20" stroke-width="7"/><path d="m366.31 427.58 28.69 31.57" stroke="#231f20" stroke-width="7"/><path d="m341.2 469.71 33.43 38.76" stroke="#231f20" stroke-width="7"/><path d="m215.96 59.28.02.1" stroke="#231f20" stroke-width="14"/><path d="m0 0h850.394v850.394h-850.394z"/><path d="m332 490 20 30" stroke="#231f20" stroke-width="7"/><path d="m342 452 36 42" stroke="#231f20" stroke-width="7"/><path d="m352 428 36 44" stroke="#231f20" stroke-width="7"/><path d="m334 480 28 34" stroke="#231f20" stroke-width="7"/><path d="m124.669 457.687 180.766.959" stroke="#231f20" stroke-width="14"/><path d="m243.644 515.024 62.991-56.589-62.485-57.214" stroke="#231f20" stroke-width="14"/></g></svg>