<svg enable-background="new 0 0 850.89 850.89" height="850.89" viewBox="0 0 850.89 850.89" width="850.89" xmlns="http://www.w3.org/2000/svg"><path d="m298.95 570.32h2.64l124.95-5.13 335.03-139.2-3.32 18.26 1.72 4-551.14 237.14-123.15-147.79 91.66 20.82v32.8l73.89 10.01h47.72z" fill="#787878"/><path d="m763.16 332.4c.87 32.21-.12 70.5-.12 70.5l-1.47.59-72.011 28.66c-.56-21.67-1.489-58.73-2.17-89.831l2.86-.07z" fill="#ff001c"/><path d="m760.73 297.45c1.319 8.05 2.05 20.93 2.43 34.95l-72.91 9.85-2.86.07c-.51-22.73-.88-42.27-.88-50.28 0-3.06-.8-6.34-2.22-9.77l3.96-.02 66-4 .56-.26c2.6 5.56 4.7 12.01 5.92 19.46z" fill="#fff"/><path d="m725.42 247.43s18.79 7.79 29.39 30.56l-.56.26-66 4-3.96.02c-6.16-14.84-24.021-32.34-39.24-45.36l.021-.12z" fill="#ff001c"/><path d="m689.56 432.15 72.01-28.66v22.5l-335.03 139.2-124.95 5.13h-2.64v-4.5l-38.48-3.08-83.13-6.93v2.61l-91.66-20.82v-20.78l.71-3.72 92.43 17.58h.25v11.03l121.11 8.73v-10.56l121.1-3.05 5 .13 34.19-13.61 161.72-64.38z" fill="#ff001c"/><path d="m687.39 342.32c.681 31.1 1.61 68.16 2.17 89.831l-67.37 26.819-.011-.029s-1.67-63.23-2.71-110.75c-.479-21.6-.819-39.96-.819-47.66 0-6.06-3.15-13.03-8.061-20.21-17.56-25.65-57.689-54.07-57.689-54.07l.22-1.64 91.95 12.18-.021.12c15.22 13.02 33.08 30.52 39.24 45.36 1.42 3.43 2.22 6.71 2.22 9.77.001 8.009.371 27.549.881 50.279z" fill="#ff001c"/><path d="m622.18 458.94.011.029-161.721 64.381c-.01-17.029-.13-94.649-1.42-157.189l155.2-17.91 5.22-.06c1.04 47.519 2.71 110.749 2.71 110.749z" fill="#ff001c"/><path d="m618.65 300.53c0 7.7.34 26.06.819 47.66l-5.22.06-155.2 17.91c-.55-26.51-1.31-50.3-2.359-65.63-.48-6.98-1.94-13.75-4.131-20.25l155.69 1.97 2.34-1.93c4.911 7.18 8.061 14.15 8.061 20.21z" fill="#fff"/><path d="m552.9 226.25s40.13 28.42 57.689 54.07l-2.34 1.93-155.69-1.97c-13.89-41.28-57.18-71.95-65.74-77.69l166.3 22.02z" fill="#ff001c"/><path d="m459.05 366.16c1.29 62.54 1.41 140.16 1.42 157.189l-34.189 13.61-5-.13s0-22.84 0-53.11c0-22.859 0-49.95 0-74.66 0-29.44 0-55.49 0-66.97 0-33.87-6.83-61.37-6.83-61.37-6.85-23-22.77-43.52-44.87-59.49h-.01c-19.99-14.45-45.05-25.16-73.04-30.6l90.29 11.96c8.56 5.74 51.85 36.41 65.74 77.69 2.19 6.5 3.65 13.27 4.131 20.25 1.048 15.331 1.808 39.121 2.358 65.631z" fill="#ff001c"/><path d="m414.45 280.72s6.83 27.5 6.83 61.37v66.97s-4.62 23.86-23.86 23.86-101.22 2.7-101.22 2.7l-2.7-.101-106.99-4-3.85-.14s-60.8-5.39-74.28-9.62c-13.47-4.23-22.7-22.7-22.7-22.7v-.01c0-26.62 0-50.62 0-62.35 0-34.63 11.99-65.99 11.99-65.99 8.19-19.23 22.84-36.38 42.1-50.09l229.8.61h.01c22.1 15.971 38.02 36.491 44.87 59.491z" fill="#fff"/><path d="m379.74 450.99c4.88 0 8.85 3.96 8.85 8.85 0 4.891-3.97 8.851-8.85 8.851-4.89 0-8.86-3.96-8.86-8.851 0-4.89 3.97-8.85 8.86-8.85z" fill="#fff400"/><path d="m346.2 457.68c4.88 0 8.85 3.971 8.85 8.86s-3.97 8.85-8.85 8.85c-4.89 0-8.86-3.96-8.86-8.85s3.97-8.86 8.86-8.86z" fill="#fff400"/><path d="m369.57 221.23-229.8-.61c29.55-21.05 69.94-34.01 114.48-34.01 14.62 0 28.79 1.4 42.28 4.02 27.99 5.44 53.05 16.15 73.04 30.6z" fill="#ff001c"/><path d="m300.18 539.88v10.56l-121.11-8.73v-11.03-12.06l15.4-4.11 91.34 6.16 14.37 5.65z" fill="#c8c8c8"/><path d="m298.95 565.82v4.5 30.91h-47.72l-73.89-10.01v-32.8-2.61l83.13 6.93z" fill="#c8c8c8"/><path d="m337.34 466.54c0 4.89 3.97 8.85 8.86 8.85 4.88 0 8.85-3.96 8.85-8.85s-3.97-8.86-8.85-8.86c-4.89 0-8.86 3.97-8.86 8.86zm42.4 2.15c4.88 0 8.85-3.96 8.85-8.851 0-4.89-3.97-8.85-8.85-8.85-4.89 0-8.86 3.96-8.86 8.85 0 4.891 3.97 8.851 8.86 8.851zm17.68-35.77c19.24 0 23.86-23.86 23.86-23.86v74.66l-127.5 8.16-.28-4.31v-52.05l2.7.101c0-.001 81.98-2.701 101.22-2.701z" fill="#fff"/><path d="m293.78 491.88-4.89.31-96.99-4.62-5.39-1.08v-54.97l106.99 4v52.05z" fill="#ff001c"/><path d="m142.72 457.36c0 4.89 3.96 8.85 8.85 8.85s8.85-3.96 8.85-8.85c0-4.891-3.96-8.851-8.85-8.851-4.89.001-8.85 3.961-8.85 8.851zm-34.34-35.6c13.48 4.23 74.28 9.62 74.28 9.62l3.85.14v54.971l5.39 1.08 96.99 4.62 4.89-.311 127.5-8.16v53.11l-121.1 3.05v-13.56l-14.37-5.65-91.34-6.16-15.4 4.11v12.06h-.25l-92.43-17.58-.71-.13s0-61.939 0-113.91c0 0 9.23 18.47 22.7 22.7zm.8 28.9c0 4.89 3.96 8.85 8.85 8.85s8.85-3.96 8.85-8.85c0-4.891-3.96-8.851-8.85-8.851-4.89.001-8.85 3.961-8.85 8.851z" fill="#fff"/><path d="m151.57 466.21c-4.89 0-8.85-3.96-8.85-8.85 0-4.891 3.96-8.851 8.85-8.851s8.85 3.96 8.85 8.851c0 4.89-3.96 8.85-8.85 8.85z" fill="#fff400"/><path d="m118.03 441.81c4.89 0 8.85 3.96 8.85 8.851 0 4.89-3.96 8.85-8.85 8.85s-8.85-3.96-8.85-8.85c0-4.891 3.96-8.851 8.85-8.851z" fill="#fff400"/><g fill="none"><path d="m369.58 221.23c22.1 15.97 38.02 36.49 44.87 59.49 0 0 6.83 27.5 6.83 61.37v66.97 74.66 53.11l-121.1 3.05-1.29.03" stroke="#231f20" stroke-width="21"/><path d="m85.68 399.05c0-26.62 0-50.62 0-62.35 0-34.63 11.99-65.99 11.99-65.99 8.19-19.23 22.84-36.38 42.1-50.09 29.55-21.05 69.94-34.01 114.48-34.01 14.62 0 28.79 1.4 42.28 4.02 27.99 5.44 53.05 16.15 73.04 30.6" stroke="#231f20" stroke-width="21"/><path d="m178.82 530.68-92.43-17.58-.71-.13s0-61.939 0-113.91" stroke="#231f20" stroke-width="21"/><path d="m91.84 467.56 94.67 18.93 5.39 1.08 96.99 4.62 4.89-.31 127.5-8.16" stroke="#231f20" stroke-width="21"/><path d="m139.77 220.62 229.8.61h.01" stroke="#231f20" stroke-width="21"/><path d="m186.51 229.71v201.81 54.97 3.39" stroke="#231f20" stroke-width="21"/><path d="m293.5 227.4v208.12 52.05" stroke="#231f20" stroke-width="21"/><path d="m85.68 399.05v.01s9.23 18.47 22.7 22.7c13.48 4.23 74.28 9.62 74.28 9.62l3.85.14 106.99 4 2.7.101s81.98-2.7 101.22-2.7 23.86-23.86 23.86-23.86" stroke="#231f20" stroke-width="21"/><path d="m126.88 450.66c0 4.89-3.96 8.85-8.85 8.85s-8.85-3.96-8.85-8.85c0-4.891 3.96-8.851 8.85-8.851 4.89.001 8.85 3.961 8.85 8.851z" stroke="#231f20" stroke-width="7"/><path d="m160.42 457.36c0 4.89-3.96 8.85-8.85 8.85s-8.85-3.96-8.85-8.85c0-4.891 3.96-8.851 8.85-8.851 4.89.001 8.85 3.961 8.85 8.851z" stroke="#231f20" stroke-width="7"/><path d="m388.59 459.84c0-4.89-3.97-8.85-8.85-8.85-4.89 0-8.86 3.96-8.86 8.85 0 4.891 3.97 8.851 8.86 8.851 4.88-.001 8.85-3.961 8.85-8.851z" stroke="#231f20" stroke-width="7"/><path d="m355.05 466.54c0-4.89-3.97-8.86-8.85-8.86-4.89 0-8.86 3.971-8.86 8.86s3.97 8.85 8.86 8.85c4.88 0 8.85-3.96 8.85-8.85z" stroke="#231f20" stroke-width="7"/><path d="m300.18 539.88v10.56l-121.11-8.73v-11.03-12.06l15.4-4.11 91.34 6.16 14.37 5.65z" stroke="#231f20" stroke-width="14"/><path d="m296.53 190.63 90.29 11.96 166.3 22.02 91.95 12.18 80.35 10.64s18.79 7.79 29.39 30.56c2.601 5.56 4.7 12.01 5.921 19.46 1.319 8.05 2.05 20.93 2.43 34.95.87 32.21-.12 70.5-.12 70.5l-1.47.59-72.011 28.66-67.37 26.82-161.72 64.38-34.189 13.61" stroke="#231f20" stroke-width="21"/><path d="m385.34 201.61s.52.33 1.48.98c8.56 5.74 51.85 36.41 65.74 77.69 2.19 6.5 3.65 13.27 4.131 20.25 1.05 15.33 1.81 39.12 2.359 65.63 1.29 62.54 1.41 140.16 1.42 157.189v3.41" stroke="#231f20" stroke-width="21"/><path d="m552.9 226.25s40.13 28.42 57.689 54.07c4.91 7.18 8.061 14.15 8.061 20.21 0 7.7.34 26.06.819 47.66 1.04 47.52 2.71 110.75 2.71 110.75" stroke="#231f20" stroke-width="14"/><path d="m645.05 236.91c15.22 13.02 33.08 30.52 39.24 45.36 1.42 3.43 2.22 6.71 2.22 9.77 0 8.01.37 27.55.88 50.28.681 31.1 1.61 68.16 2.17 89.831.011.279.011.55.021.819" stroke="#231f20" stroke-width="14"/><path d="m627.02 268.87c6.57 7.4 14.53 18.7 14.53 29.99v66.97" stroke="#231f20" stroke-linecap="round" stroke-linejoin="round" stroke-width="14"/><path d="m651.65 268.87c6.569 7.4 14.529 18.7 14.529 29.99v61.32" stroke="#231f20" stroke-linecap="round" stroke-linejoin="round" stroke-width="14"/><path d="m298.95 570.32v30.91h-47.72l-73.89-10.01v-32.8-2.61l83.13 6.93 38.48 3.08z" stroke="#231f20" stroke-width="14"/><path d="m85.68 516.82v20.78l91.66 20.82 1.57.36" stroke="#231f20" stroke-width="21"/><path d="m301.59 570.32 124.95-5.13 335.03-139.2v-22.5-4.19" stroke="#231f20" stroke-width="21"/><path d="m208.83 685.39 551.14-237.14 6.99-3.01" stroke="#231f20" stroke-width="14"/><path d="m458.25 366.25.8-.09 155.2-17.91" stroke="#231f20" stroke-linecap="round" stroke-linejoin="round" stroke-width="14"/><path d="m450.25 280.25 2.31.03 155.69 1.97" stroke="#231f20" stroke-linecap="round" stroke-linejoin="round" stroke-width="14"/><path d="m688.25 282.25 66-4" stroke="#231f20" stroke-linecap="round" stroke-linejoin="round" stroke-width="14"/><path d="m690.25 342.25 72.91-9.85 1.09-.15" stroke="#231f20" stroke-linecap="round" stroke-linejoin="round" stroke-width="14"/><path d="m.25.25h850.394v850.394h-850.394z"/></g></svg>