<svg enable-background="new 0 0 850.394 850.394" height="850.394" viewBox="0 0 850.394 850.394" width="850.394" xmlns="http://www.w3.org/2000/svg"><path d="m452.33 232.224c-20.504 29.202-52.676 54.165-85.167 68.525-15.698 6.943-33.944 7.997-50.812 8.037-13.712.035-40.702-2.061-50.945 9.815h-.006c-.307-4.626-1.373-9.137-2.832-12.479-.492-1.129-1.129-2.293-1.899-3.503.399-.846 13.388-27.824 27.835-27.824 14.679 0 55.965 3.961 75.937 0 13.179-2.611 39.683-16.254 58.873-27.905v-.006c9.902-6.01 17.852-11.494 21.025-14.667 9.179-9.178 13.191-13.19 13.313-13.312-.063.243-1.546 5.773-4.47 13.92z" fill="#33a02c"/><path d="m452.33 232.224.852.603c-5.519 15.362-16.179 40.018-32.149 55.989-16.978 16.978-74.565 53.261-96.54 53.261-21.969 0-54.5-.799-61.895-8.194 2.45-4.036 3.173-9.739 2.803-15.281h.006c10.243-11.876 37.233-9.78 50.945-9.815 16.868-.041 35.114-1.094 50.812-8.037 32.49-14.361 64.662-39.325 85.166-68.526z" fill="#33a02c"/><path d="m406.788 161.145c30.279.793 33.637 57.772 16.526 85.74v.006c-19.19 11.651-45.693 25.293-58.873 27.905-19.972 3.961-61.258 0-75.937 0 2.177-3.787 6.219-11.986 7.087-14.609.788-2.386 3.283-5.281 4.337-8.275 3.226-9.172.226-10.666-3.017-18.75-1.314-3.272-2.571-2.114-3.069-5.941-.244-1.864 2.084-5.686 2.067-8.188-.052-8.054-4.134-10.133-8.807-11.465l.069-1.303c11.176.747 27.754-5.408 26.723-18.79 8.466-1.836 16.289-8.79 20.806-17.175 4.893 8.576 10.771 16.77 22.085 14.749 8.2-1.459 9.312-10.991 16.978-10.782 8.703.238 9.016 9.265 19.729 6.503 9.827-2.526 13.985-10.285 13.296-19.625z" fill="#ffeec8"/><path d="m407.494 134.317c-.811 7.991-3.897 18.455-2.629 26.851.654-.035 1.291-.041 1.922-.023.689 9.34-3.469 17.099-13.295 19.624-10.713 2.762-11.025-6.265-19.729-6.503-7.667-.208-8.778 9.323-16.978 10.782-11.314 2.021-17.192-6.173-22.085-14.749v-.006c5.895-10.927 6.178-24.28-5.032-31.883 3.278-4.268 5.976-11.448 2.948-16.63-4.256-7.279-11.129-4.215-17.708-4.575-1.76-7.11-6.868-11.888-12.682-13.202 4.117-6.132 4.228-8.836 1.871-16.654-2.299-7.597-5.744-5.582-10.232-10.186-8.083-8.286 9.207-34.002-10.776-35.918 2.079-.816 4.517-1.859 7.823-2.728 9.363-2.455 19.109-2.328 28.86-.301 21.361 4.441 43.146 14.442 47.02 38.2 2.137 13.087-.631 10.782 12.959 14.731 9.855 2.86 16.283 8.553 21.17 16.955 4.662 8.01 7.511 16.98 6.573 26.215z" fill="#ffeec8"/><path d="m287.172 206.265-.069 1.303c-5.298-1.512-11.367-2.073-13.214-9.306-1.326-5.194.417-9.097-1.951-13.938-3.532-7.227-15.964-16.005-21.518-21.518 1.042-.724 2.2-1.841 3.567-3.549 5.854-7.325 2.409-11.558 2.652-19.943.342-11.755 2.618-18.176-3.723-25.003 3.214-17.649 22.334-14.575 34.378-5.24 4.383-4.754 9.925-6.196 14.934-5.067 5.814 1.314 10.921 6.092 12.682 13.202 6.578.359 13.451-2.704 17.708 4.575 3.028 5.183.33 12.363-2.948 16.63 11.21 7.603 10.927 20.956 5.032 31.883v.006c-4.517 8.385-12.34 15.339-20.806 17.175 1.03 13.381-15.548 19.537-26.724 18.79z" fill="#ffeec8"/><path d="m304.098 87.35c2.357 7.817 2.247 10.521-1.871 16.654-5.009-1.129-10.55.313-14.934 5.067-12.044-9.334-31.165-12.409-34.378 5.24-1.488-1.604-3.457-3.237-6.045-4.962-4.001-2.669-4.702-2.189-8.888-6.387-6.092-6.109-6.851-8.79-15.86-8.593-6.254.139-11.072 4.384-16.347 5.936-2.276.672-3.828 2.513-6.711 2.901-1.998.272-5.188-2.397-8.037-1.847-8.848 1.726-7.157 15.084-12.044 19.972-5.501-19.155-21.483-32.908-39.856-23.51 2.339-4.215 1.239-9.745 2.901-16.41 2.374-9.514 8.987-18.588 17.985-22.965 4.082-1.992 9.629-3.996 14.279-4.053 4.094-.046 8.836 2.941 12.705 1.841 7.331-2.079 11.963-13.643 17.927-17.985 19.526-14.21 46.492-10.388 64.75 1.494 6.173 4.013 8.975 3.26 13.417 1.506 19.983 1.917 2.693 27.632 10.776 35.918 4.487 4.601 7.932 2.586 10.231 10.183z" fill="#ffeec8"/><path d="m260.669 302.62c.77 1.21 1.407 2.374 1.899 3.503 1.459 3.341 2.524 7.852 2.832 12.479.371 5.542-.353 11.246-2.803 15.281-2.032 3.341-5.252 5.536-10.018 5.536-4.551 0-9.606.498-14.604 1.054-.301-.486-14.152-23.307-26.011-48.994-11.98-25.971-41.171-82.208-41.171-82.208h-.006c.516-4.528 1.228-7.018 1.228-7.018s1.813 2.357 4.812 6.196c10.284 13.162 34.495 43.765 47.124 56.394 14.587 14.585 30.238 27.574 36.718 37.777z" fill="#33a02c"/><path d="m252.916 114.311c6.341 6.827 4.065 13.249 3.723 25.003-.243 8.385 3.202 12.618-2.652 19.943-1.367 1.708-2.525 2.826-3.567 3.549-3.758 2.606-6.069.168-11.437 2.403-7.557 3.138-12.78 10.255-22.044 10.898-6.619.457-10.354-3.527-15.936-3.811-8.53-.44-2.363 3.903-13.741.307-.967-.435-1.899-.938-2.791-1.5-14.731-9.299-19.693-35.565-5.489-49.775 4.887-4.887 3.196-18.246 12.044-19.972 2.849-.55 6.04 2.12 8.037 1.847 2.884-.388 4.436-2.229 6.711-2.901 5.275-1.552 10.093-5.796 16.347-5.936 9.01-.197 9.769 2.484 15.86 8.593 4.187 4.198 4.887 3.718 8.888 6.387 2.589 1.728 4.558 3.361 6.047 4.965z" fill="#ffeec8"/><path d="m187.262 172.604c11.378 3.596 5.211-.747 13.741-.307 5.582.284 9.317 4.268 15.936 3.811 9.265-.643 14.488-7.76 22.044-10.898 5.368-2.235 7.678.203 11.437-2.403 5.553 5.513 17.985 14.291 21.518 21.518 2.368 4.841.625 8.744 1.951 13.938 1.847 7.232 7.916 7.794 13.214 9.306 4.673 1.332 8.755 3.411 8.807 11.465.018 2.502-2.311 6.324-2.067 8.188.498 3.828 1.754 2.669 3.069 5.941 3.243 8.083 6.242 9.577 3.017 18.75-1.054 2.994-3.549 5.889-4.337 8.275-.869 2.623-4.91 10.822-7.087 14.609-14.448 0-27.436 26.978-27.835 27.824-6.479-10.203-22.131-23.191-36.718-37.778-12.629-12.629-36.839-43.232-47.124-56.394 6.387-4.187 5.073-.77 6.225-9.189.515-3.764-3.445-7.435-3.046-11.986.573-6.451 2.704-9.317 8.993-12.982-1.685-.944-3.254-1.905-4.737-2.861l.208-.324c.892.56 1.824 1.063 2.791 1.497z" fill="#ffeec8"/><path d="m201.293 324.299c-1.292-2.791-2.594-5.918-3.897-9.375-2.548-6.769-5.073-14.812-7.4-24.112 0 0-1.871-4.088-4.436-10.359h-.006c-4.447-10.875-11.002-28.304-13.539-42.242-2.304-12.705-1.945-22.734-1.228-28.941h.006s29.19 56.238 41.171 82.208c11.859 25.687 25.71 48.507 26.011 48.994-11.824 1.309-23.365 2.924-27.343-1.054-2.674-2.675-5.94-7.73-9.339-15.119z" fill="#33a02c"/><path d="m185.554 280.453c-.435-.336-14.511-11.083-34.176-19.606-18.066-7.829-36.133-4.216-53.215-3.457l-.052-1.205c-11.002-7.07-13.973-17.221-13.984-29.96 0-8.506 4.939-14.673 6.63-21.645.179-.752.318-1.505.417-2.275.139-1.135.15-2.171.052-3.139 4.279-12.629 29.856-13.243 29.856-.903 0-12.907 10.278-11.529 19.827-12.143-.805-6.248 1.256-15.583 9.01-14.951 15.397-15.392 21.599-7.951 34.344.26 1.482.956 3.052 1.917 4.737 2.861-6.289 3.666-8.419 6.532-8.993 12.982-.399 4.551 3.561 8.223 3.046 11.986-1.152 8.419.162 5.003-6.225 9.189-3-3.839-4.812-6.196-4.812-6.196s-.712 2.49-1.228 7.018c-.718 6.208-1.077 16.237 1.228 28.941 2.536 13.939 9.091 31.369 13.538 42.243z" fill="#ffeec8"/><path d="m141.39 296.806c-32.624-6.659-71.409-43.776-71.409-43.776v-.006l.167-1.187c6.451 3.011 14.477 5.686 22.635 5.686 1.778 0 3.573-.046 5.379-.133 17.083-.759 35.149-4.372 53.215 3.457 19.665 8.523 33.741 19.271 34.176 19.606h.006c2.565 6.271 4.436 10.359 4.436 10.359 2.328 9.3 4.853 17.343 7.4 24.112-4.643-7.331-26.3-12.056-56.005-18.118z" fill="#33a02c"/><path d="m75.117 181.03c-8.106-11.668-7.238-30.597-1.998-43.441 5.275-12.93 17.105-23.724 29.764-28.993 9.479-3.943 20.104-1.83 29.404-5.466 3.654-1.424 5.675-3.202 6.838-5.31 18.374-9.398 34.355 4.354 39.856 23.51-14.204 14.21-9.242 40.476 5.489 49.775l-.208.324c-12.745-8.211-18.946-15.652-34.344-.26-7.753-.631-9.815 8.703-9.01 14.951-9.549.614-19.827-.765-19.827 12.143 0-12.339-25.577-11.726-29.856.903-.919-8.877-11.273-11.176-16.108-18.136z" fill="#ffeec8"/><path d="m87.457 287.483c-26.538-26.544-31.153-43.412-31.286-43.933.15.11 5.796 4.464 13.978 8.286l-.167 1.187v.006s38.785 37.117 71.409 43.776c29.706 6.063 51.362 10.788 56.006 18.119 1.303 3.457 2.605 6.584 3.897 9.375-3.712 4.499-22.033 24.754-44.587 16.445-25.3-9.317-42.284-26.294-69.25-53.261z" fill="#33a02c"/><path d="m98.111 256.185c-11.002-7.07-13.973-17.221-13.984-29.96 0-8.506 4.939-14.673 6.63-21.645.179-.752.318-1.505.417-2.275.139-1.135.15-2.171.052-3.139-.92-8.877-11.274-11.176-16.109-18.136-8.106-11.668-7.238-30.597-1.998-43.441 5.275-12.93 17.105-23.724 29.764-28.993 9.479-3.943 20.104-1.83 29.404-5.466 3.654-1.424 5.675-3.202 6.838-5.31 2.339-4.215 1.239-9.745 2.901-16.41 2.374-9.514 8.987-18.588 17.985-22.965 4.082-1.992 9.629-3.996 14.279-4.053 4.094-.046 8.836 2.941 12.705 1.841 7.331-2.079 11.963-13.643 17.927-17.985 19.526-14.21 46.492-10.388 64.75 1.494 6.173 4.013 8.975 3.26 13.417 1.506 2.079-.816 4.517-1.859 7.823-2.728 9.363-2.455 19.109-2.328 28.86-.301 21.361 4.441 43.146 14.442 47.02 38.2 2.137 13.087-.631 10.782 12.959 14.731 9.855 2.86 16.283 8.553 21.17 16.955 4.661 8.008 7.51 16.978 6.572 26.214-.811 7.991-3.897 18.455-2.629 26.851.654-.035 1.291-.041 1.922-.023 30.279.793 33.637 57.772 16.526 85.74" fill="none" stroke="#000" stroke-width="11.9847"/><path d="m185.56 280.453c.006.006.006.006.006.006" fill="none" stroke="#000" stroke-width="11.9847"/><path d="m201.982 323.437s-.237.313-.689.863c-3.712 4.499-22.033 24.754-44.587 16.445-25.299-9.317-42.282-26.294-69.249-53.261-26.538-26.544-31.153-43.412-31.292-43.944 0 0 0 0 .006.012.15.11 5.796 4.464 13.978 8.286 6.451 3.011 14.477 5.686 22.635 5.686 1.778 0 3.573-.046 5.379-.133 17.083-.759 35.149-4.372 53.215 3.457 19.665 8.523 33.741 19.271 34.176 19.606" fill="none" stroke="#000" stroke-width="11.9847"/><path d="m69.981 253.029s38.785 37.117 71.409 43.776c29.706 6.063 51.362 10.788 56.006 18.119.457.724.747 1.465.868 2.241" fill="none" stroke="#000" stroke-width="11.9847"/><path d="m170.788 209.27c.516-4.528 1.228-7.018 1.228-7.018s1.813 2.357 4.812 6.196c10.284 13.162 34.495 43.765 47.124 56.394 14.586 14.586 30.238 27.575 36.718 37.778.77 1.21 1.407 2.374 1.899 3.503 1.459 3.341 2.524 7.852 2.832 12.479.371 5.542-.353 11.246-2.803 15.281-2.032 3.341-5.252 5.536-10.018 5.536-4.551 0-9.606.498-14.604 1.054-11.824 1.309-23.365 2.924-27.343-1.054-2.675-2.675-5.941-7.73-9.34-15.119-1.292-2.791-2.594-5.918-3.897-9.375-2.548-6.769-5.073-14.812-7.4-24.112 0 0-1.871-4.088-4.436-10.359h-.006c-4.447-10.875-11.002-28.304-13.539-42.242-2.304-12.705-1.945-22.734-1.227-28.942z" fill="none" stroke="#000" stroke-width="11.9847"/><path d="m170.794 209.27s29.19 56.238 41.171 82.208c11.859 25.687 25.71 48.507 26.011 48.994v.006" fill="none" stroke="#000" stroke-width="11.9847"/><path d="m260.657 302.637s.006-.006.012-.017c.399-.846 13.388-27.824 27.835-27.824 14.679 0 55.965 3.961 75.937 0 13.179-2.611 39.683-16.254 58.873-27.905v-.006c9.902-6.01 17.852-11.494 21.025-14.667 9.179-9.178 13.191-13.19 13.318-13.318 0 0 0 0-.006.006-.063.243-1.546 5.773-4.47 13.92-5.519 15.362-16.179 40.018-32.149 55.989-16.978 16.978-74.565 53.261-96.54 53.261-21.969 0-54.5-.799-61.895-8.194" fill="none" stroke="#000" stroke-width="11.9847"/><path d="m265.406 318.601c10.243-11.876 37.233-9.78 50.945-9.815 16.868-.041 35.114-1.094 50.812-8.037 32.491-14.36 64.663-39.324 85.167-68.525v-.006" fill="none" stroke="#000" stroke-width="11.9847"/><path d="m187.262 172.604c-.967-.435-1.899-.938-2.791-1.5-14.731-9.299-19.693-35.565-5.489-49.775 4.887-4.887 3.196-18.246 12.044-19.972 2.849-.55 6.04 2.12 8.037 1.847 2.884-.388 4.436-2.229 6.711-2.901 5.275-1.552 10.093-5.796 16.347-5.936 9.01-.197 9.769 2.484 15.86 8.593 4.187 4.198 4.887 3.718 8.888 6.387 2.588 1.726 4.557 3.358 6.045 4.962 6.341 6.827 4.065 13.249 3.723 25.003-.243 8.385 3.202 12.618-2.652 19.943-1.367 1.708-2.525 2.826-3.567 3.549-3.758 2.606-6.069.168-11.437 2.403-7.557 3.138-12.78 10.255-22.044 10.898-6.619.457-10.354-3.527-15.936-3.811-8.527-.437-2.36 3.906-13.739.31" fill="none" stroke="#000" stroke-width="11.9847"/><path d="m250.42 162.807c5.553 5.513 17.985 14.291 21.518 21.518 2.368 4.841.625 8.744 1.951 13.938 1.847 7.232 7.916 7.794 13.214 9.306 4.673 1.332 8.755 3.411 8.807 11.465.018 2.502-2.311 6.324-2.067 8.188.498 3.828 1.754 2.669 3.069 5.941 3.243 8.083 6.242 9.577 3.017 18.75-1.054 2.994-3.549 5.889-4.337 8.275-.869 2.623-4.91 10.822-7.087 14.609" fill="none" stroke="#000" stroke-width="11.9847"/><path d="m334.701 170.3c-4.517 8.385-12.34 15.339-20.806 17.175 1.031 13.382-15.547 19.537-26.723 18.79-.099 0-.203-.011-.301-.017" fill="none" stroke="#000" stroke-width="11.9847"/><path d="m252.916 114.311c3.214-17.649 22.334-14.575 34.378-5.24 4.383-4.754 9.925-6.196 14.934-5.067 5.814 1.314 10.921 6.092 12.682 13.202 6.578.359 13.451-2.704 17.708 4.575 3.028 5.183.33 12.363-2.948 16.63 11.21 7.603 10.927 20.956 5.032 31.883" fill="none" stroke="#000" stroke-width="11.9847"/><path d="m334.701 170.294v.006c4.893 8.576 10.771 16.77 22.085 14.749 8.2-1.459 9.312-10.991 16.978-10.782 8.703.238 9.016 9.265 19.729 6.503 9.826-2.525 13.984-10.284 13.295-19.624-.018-.278-.041-.556-.069-.834" fill="none" stroke="#000" stroke-width="11.9847"/><path d="m189 174.29c-1.685-.944-3.254-1.905-4.737-2.861-12.745-8.211-18.946-15.652-34.344-.26-7.753-.631-9.815 8.703-9.01 14.951-9.549.614-19.827-.765-19.827 12.143 0-12.339-25.577-11.726-29.856.903-.55 1.604-.752 3.405-.509 5.403" fill="none" stroke="#000" stroke-width="11.9847"/><path d="m138.06 98.387c.359-.197.712-.388 1.065-.568 18.374-9.398 34.355 4.354 39.856 23.51" fill="none" stroke="#000" stroke-width="11.9847"/><path d="m283.09 41.246c19.983 1.917 2.693 27.632 10.776 35.918 4.488 4.604 7.933 2.588 10.232 10.186 2.357 7.817 2.247 10.521-1.871 16.654" fill="none" stroke="#000" stroke-width="11.9847"/><path d="m189 174.29c-6.289 3.666-8.419 6.532-8.993 12.982-.399 4.551 3.561 8.223 3.046 11.986-1.152 8.419.162 5.003-6.225 9.189" fill="none" stroke="#000" stroke-width="11.9847"/><path d="m0 0h850.394v850.394h-850.394z" fill="none"/><path d="m721.621 158.803c10.531 5.63 18.725 13.126 21.952 20.408 14.109 31.846-5.146 74.162-19.225 106.993-23.131 53.921-33.692 83.519-52.367 124.725-9.044 19.963-112.09 217.857-118.628 231.062-11.028 22.282-25.55 54.281-38.768 60.735-4.457 2.159-12.7 7.458-19.485 1.248-19.811-18.146-3.522-77.13 1.363-92.671 6.501-20.68 11.495-40.882 18.126-61.45 7.071-21.895 12.914-44.192 20.068-66.116 14.862-45.548 25.796-83.338 45.544-136.67 10.556-28.5 40.478-133.301 43.976-143.821 5.411-16.295 17.38-32.626 32.889-44.386 13.01-9.873 29.769-10.992 45.149-7.379 6.9 1.612 13.515 4.174 19.406 7.322z" fill="#ffa500"/><path d="m721.621 158.803c10.531 5.63 18.725 13.126 21.952 20.408 14.109 31.846-5.146 74.162-19.225 106.993-23.131 53.921-33.692 83.519-52.367 124.725-9.044 19.963-112.09 217.857-118.628 231.062-11.028 22.282-25.55 54.281-38.768 60.735-4.457 2.159-12.7 7.458-19.485 1.248-19.811-18.146-3.522-77.13 1.363-92.671 6.501-20.68 11.495-40.882 18.126-61.45 7.071-21.895 12.914-44.192 20.068-66.116 14.862-45.548 25.796-83.338 45.544-136.67 10.556-28.5 40.478-133.301 43.976-143.821 5.411-16.295 17.38-32.626 32.889-44.386 13.01-9.873 29.769-10.992 45.149-7.379 6.9 1.612 13.515 4.174 19.406 7.322z" fill="none" stroke="#000" stroke-width="17.6498"/><path d="m702.216 151.48 8.447-71.718" fill="none" stroke="#000" stroke-width="17.6498"/><path d="m721.632 158.959s-.009-.054-.011-.157c-.071-1.503.956-14.034 45.974-53.925" fill="none" stroke="#000" stroke-width="17.6498"/><path d="m716.821 156.442s20.2-52.365 29.024-75.242" fill="none" stroke="#000" stroke-width="17.6498"/><path d="m621.597 218.301s15.341-4.516 32.716 2.187" fill="none" stroke="#000" stroke-width="17.6498"/><path d="m573.665 369.818s10.133-3.522 27.517 3.184" fill="none" stroke="#000" stroke-width="17.6498"/><path d="m587.914 568.069s-8.815-12.348-26.199-19.053" fill="none" stroke="#000" stroke-width="17.6498"/><path d="m375.151 537.235c-21.032-20.946 7.221-67.354 33.894-49.496 19.653 13.153 15.511 52.46-8.611 55.246-.04-.04-.08-.074-.12-.114-.149-.144-.303-.286-.463-.43-.04-.034-.08-.068-.12-.103-.08-.074-.166-.148-.246-.212-.177-.154-.354-.303-.532-.446-.12-.097-.246-.194-.372-.286-.115-.091-.235-.183-.361-.269-.131-.104-.269-.2-.406-.292-.183-.132-.366-.258-.555-.372-.109-.08-.223-.148-.337-.217-.132-.086-.269-.172-.406-.246-.178-.109-.349-.212-.532-.31-.109-.063-.223-.126-.337-.183-.195-.108-.389-.206-.584-.31-.286-.137-.578-.274-.87-.405-.343-.155-.692-.298-1.047-.436-3.547-1.379-7.535-2.042-11.563-1.945-.223.006-.452.012-.675.023-.194.011-.389.022-.583.034-.16.006-.32.017-.48.034-.149.012-.292.022-.441.034-.246.028-.486.052-.727.08-.274.028-.555.063-.83.108-.303.041-.606.086-.904.144-.017 0-.029.006-.046.006-.584.106-1.168.22-1.746.363z" fill="#00e800"/><path d="m407.403 558.216c-.017-.223-.04-.446-.068-.664.028.218.051.441.068.664z" fill="#fff"/><path d="m407.272 557.049c-.023-.188-.052-.378-.08-.566.028.188.057.377.08.566z" fill="#fff"/><path d="m407.14 556.179c-.028-.2-.063-.395-.103-.589.04.194.075.394.103.589z" fill="#fff"/><path d="m406.946 555.132c-.04-.194-.08-.383-.126-.572.046.189.086.378.126.572z" fill="#fff"/><path d="m406.746 554.233c-.046-.188-.092-.371-.143-.555.051.184.097.367.143.555z" fill="#fff"/><path d="m406.511 553.347c-.04-.148-.086-.297-.126-.446.04.149.086.297.126.446z" fill="#fff"/><path d="m406.385 552.9c-.051-.154-.097-.309-.148-.463.051.155.096.309.148.463z" fill="#fff"/><path d="m406.236 552.438c-.052-.166-.103-.326-.16-.486.057.159.109.319.16.486z" fill="#fff"/><path d="m405.475 550.389c-.148-.36-.309-.715-.48-1.063.172.348.332.702.48 1.063z" fill="#fff"/><path d="m403.868 547.254c.303.497.589 1.007.858 1.527-.269-.52-.555-1.03-.858-1.527z" fill="#fff"/><path d="m407.014 566.586c-2.231 12.41-12.089 17.932-22.502 22.285-1.859-.737-3.851-1.413-5.887-2.162-4.903-1.797-10.253-3.182-15.402-3.29-9.812-8.726-11.477-25.867-3.118-36.801.2-.257.4-.515.612-.761.08-.103.171-.206.263-.309.2-.234.406-.47.618-.692.258-.28.526-.555.801-.818.246-.246.503-.48.761-.715.046-.04.086-.08.132-.115.24-.217.492-.423.738-.629.046-.034.092-.074.138-.108.269-.218.543-.424.824-.63.303-.223.612-.44.921-.646.315-.212.629-.412.95-.606.314-.194.635-.378.961-.561.006 0 .012-.006.017-.012.275-.148.555-.297.835-.44.069-.034.137-.068.206-.103.32-.154.635-.31.961-.452.326-.148.652-.286.984-.424.063-.022.12-.046.177-.068.297-.12.601-.229.904-.338.012-.006.023-.011.04-.011.292-.109.589-.212.893-.304.075-.022.149-.052.223-.074.332-.104.664-.2 1.001-.292.36-.097.721-.188 1.087-.274.578-.138 1.162-.258 1.745-.36.017 0 .029-.006.046-.006.303-.052.601-.103.904-.144.275-.04.549-.08.83-.108.24-.028.481-.052.727-.08.143-.012.292-.022.441-.034.16-.018.32-.028.48-.034.194-.012.389-.023.583-.034.223-.012.452-.018.675-.023 4.028-.097 8.016.566 11.563 1.945.355.138.704.28 1.047.436.292.131.584.269.87.405.201.104.395.201.584.31.114.057.229.12.337.183.177.098.354.2.532.31.137.074.274.16.406.246.114.068.223.137.337.217.189.114.372.24.555.372.137.092.274.188.406.292.126.086.246.178.361.269.125.092.251.189.372.286.183.144.361.292.532.446.08.063.166.138.246.212.2.172.395.349.583.532.04.04.08.074.12.114.177.172.349.344.515.515.114.114.223.229.332.35.973 1.047 1.837 2.186 2.586 3.404.303.497.589 1.007.858 1.527.092.178.183.36.269.544.172.349.332.703.48 1.063.218.51.418 1.03.601 1.563.057.16.108.32.16.486.051.154.097.309.148.463.04.149.086.298.126.446.035.109.063.218.092.332.051.184.097.366.143.555.028.104.051.212.074.326.046.189.086.378.126.572.034.149.063.304.091.458.04.194.075.389.103.589.023.104.034.2.052.304.028.188.057.378.08.566.023.166.045.332.063.503.028.218.051.441.068.664.254 2.698.128 5.519-.387 8.368z" fill="#00e800"/><path d="m401.281 543.85c-.108-.12-.217-.235-.332-.35.115.114.224.229.332.35z" fill="#fff"/><path d="m400.314 542.871c-.189-.184-.383-.36-.583-.532.04.034.08.068.12.103.16.143.315.286.463.429z" fill="#fff"/><path d="m399.485 542.127c-.171-.154-.349-.303-.532-.446.177.143.355.292.532.446z" fill="#fff"/><path d="m398.953 541.681c-.12-.097-.246-.194-.372-.286.126.091.252.189.372.286z" fill="#fff"/><path d="m398.22 541.126c-.131-.104-.269-.2-.406-.292.138.092.275.188.406.292z" fill="#fff"/><path d="m397.814 540.834c-.183-.132-.366-.258-.555-.372.189.114.372.24.555.372z" fill="#fff"/><path d="m397.259 540.462c-.114-.08-.223-.148-.337-.217.114.068.228.137.337.217z" fill="#fff"/><path d="m396.922 540.245c-.132-.086-.269-.172-.406-.246.137.074.274.16.406.246z" fill="#fff"/><path d="m396.516 539.999c-.178-.109-.355-.212-.532-.31.183.098.354.201.532.31z" fill="#fff"/><path d="m395.646 539.507c-.189-.108-.383-.206-.584-.31.195.104.389.201.584.31z" fill="#fff"/><path d="m394.192 538.792c-.343-.155-.692-.298-1.047-.436.355.138.704.281 1.047.436z" fill="#fff"/><path d="m381.583 536.411c-.223.006-.452.012-.675.023.222-.011.451-.017.675-.023z" fill="#fff"/><path d="m380.324 536.469c-.16.006-.32.017-.48.034.159-.018.32-.028.48-.034z" fill="#fff"/><path d="m379.843 536.503c-.149.012-.298.022-.441.034.149-.012.292-.022.441-.034z" fill="#fff"/><path d="m378.676 536.617c-.28.028-.555.068-.83.108.275-.044.555-.079.83-.108z" fill="#fff"/><path d="m377.846 536.726c-.303.041-.601.092-.904.144.298-.058.601-.103.904-.144z" fill="#fff"/><path d="m332.658 626.422c4.406-2.472 9.916-3.404 16.34-1.9h.006c2.38 2.221 5.144 3.966 8.159 5.041 5.023 1.785 10.213 2.271 15.082 1.459l.074.429c11.38 7.101 3.507 28.407-3.29 35.937-4.034 4.469-9.681 6.678-15.648 7.169-7.038.584-14.515-1.218-20.306-4.525-.423-.24-.841-.492-1.241-.755-.406-.264-.795-.532-1.173-.813-.435-.314-.853-.646-1.253-.99-.125-.103-.251-.206-.377-.32-.818-.715-1.573-1.476-2.266-2.277-.114-.131-.229-.263-.337-.4-.138-.166-.275-.331-.401-.497-.114-.138-.223-.28-.326-.424-.045-.058-.085-.12-.131-.178-.103-.137-.2-.28-.297-.417-.052-.074-.103-.149-.155-.224-.023-.022-.04-.051-.051-.074-.029-.034-.052-.068-.063-.103-.154-.224-.297-.446-.44-.676-.023-.022-.035-.051-.046-.074-.16-.258-.315-.521-.463-.784-.155-.28-.309-.561-.452-.841-.143-.286-.286-.572-.417-.858-.132-.286-.263-.577-.383-.869s-.235-.584-.349-.881c-.103-.286-.206-.566-.303-.858-.017-.052-.034-.104-.046-.154-.086-.258-.166-.521-.24-.778-.092-.304-.172-.606-.246-.91-.154-.612-.286-1.224-.395-1.836-.058-.31-.103-.624-.143-.938-.046-.31-.08-.618-.115-.933-.034-.298-.057-.59-.074-.887-.017-.229-.029-.452-.034-.682-.338-7.374 2.306-14.824 7.352-19.808.131-.131.269-.263.4-.389.95-.893 1.979-1.693 3.084-2.403.318-.202.638-.397.964-.579z" fill="#00e800"/><path d="m376.896 536.875c-.583.103-1.167.223-1.745.36.578-.143 1.162-.257 1.745-.36z" fill="#fff"/><path d="m375.151 537.235c-.366.086-.727.178-1.087.274.361-.102.721-.194 1.087-.274z" fill="#fff"/><path d="m374.064 537.51c-.337.092-.669.188-1.001.292.332-.104.669-.206 1.001-.292z" fill="#fff"/><path d="m372.84 537.876c-.303.092-.601.194-.893.304.292-.11.59-.212.893-.304z" fill="#fff"/><path d="m371.907 538.19c-.303.109-.606.218-.904.338.298-.12.601-.234.904-.338z" fill="#fff"/><path d="m370.826 538.597c-.332.138-.658.275-.984.424.326-.149.652-.287.984-.424z" fill="#fff"/><path d="m369.842 539.021c-.326.143-.641.298-.961.452.314-.155.635-.31.961-.452z" fill="#fff"/><path d="m368.675 539.575c-.28.144-.561.292-.835.44.274-.148.555-.296.835-.44z" fill="#fff"/><path d="m367.822 540.027c-.326.183-.646.366-.961.561.315-.194.635-.383.961-.561z" fill="#fff"/><path d="m366.861 540.588c-.321.194-.635.395-.95.606.309-.212.63-.417.95-.606z" fill="#fff"/><path d="m365.911 541.194c-.309.206-.618.424-.921.646.303-.222.607-.44.921-.646z" fill="#fff"/><path d="m364.99 541.841c-.28.206-.555.412-.824.63.269-.218.544-.43.824-.63z" fill="#fff"/><path d="m364.029 542.579c-.246.206-.498.412-.738.629.24-.217.486-.423.738-.629z" fill="#fff"/><path d="m344.038 593.563c4.652-7.793 11.706-10.311 19.184-10.145 5.149.108 10.499 1.493 15.402 3.29 2.037.749 4.028 1.425 5.887 2.162 7.604 3.021 12.925 7.049 9.423 21.016-3.118 12.421-11.729 19.487-21.69 21.135-4.869.813-10.059.326-15.082-1.459-3.015-1.075-5.778-2.82-8.159-5.041h-.006c-7.917-7.391-11.458-20.07-4.959-30.958z" fill="#00e800"/><path d="m363.159 543.323c-.257.234-.515.469-.761.715.247-.246.504-.486.761-.715z" fill="#fff"/><path d="m362.398 544.038c-.275.264-.543.538-.801.818.258-.28.527-.554.801-.818z" fill="#fff"/><path d="m361.597 544.856c-.211.223-.417.458-.618.692.195-.234.401-.469.618-.692z" fill="#fff"/><path d="m360.979 545.549c-.092.103-.183.206-.263.309.086-.103.172-.207.263-.309z" fill="#fff"/><path d="m360.716 545.857c-.212.246-.412.504-.612.761.2-.257.4-.514.612-.761z" fill="#fff"/><path d="m325.272 662.959c.097.143.194.28.297.417.046.058.086.12.131.178.103.144.212.286.326.424.126.166.258.331.401.497.108.138.223.27.337.4.692.802 1.447 1.563 2.266 2.277.126.114.252.218.377.32.401.344.818.676 1.253.99.377.28.772.549 1.173.813.4.263.818.515 1.241.755 5.791 3.308 13.268 5.109 20.306 4.525l.034.378c13.068 13.755-5.961 36.314-23.395 37.527-3.776.263-7.478-.47-10.762-2.518-.624-.389-1.247-.795-1.865-1.225-.166-.114-.326-.229-.492-.349-.195-.132-.389-.269-.578-.412-1.379-1.007-2.735-2.111-4.028-3.296-.188-.171-.377-.343-.561-.521-.069-.068-.143-.137-.212-.206-.263-.246-.521-.503-.772-.761-.257-.258-.515-.521-.761-.789-.217-.229-.429-.464-.641-.698-.195-.218-.389-.435-.572-.658-.04-.04-.074-.086-.109-.126-.229-.269-.458-.538-.675-.818-.029-.028-.052-.057-.075-.091-.183-.229-.366-.464-.543-.698-.126-.166-.251-.338-.377-.515-.115-.149-.223-.304-.326-.458-.189-.264-.366-.521-.543-.79-.029-.04-.058-.08-.075-.12-.223-.331-.435-.669-.641-1.013-.286-.469-.555-.943-.807-1.425-.12-.229-.24-.457-.349-.687-.131-.257-.257-.515-.372-.777-.114-.246-.223-.492-.326-.744-.085-.2-.171-.4-.246-.606-.075-.172-.138-.349-.2-.526-.075-.206-.149-.412-.218-.624-.068-.206-.137-.411-.194-.617-.057-.172-.109-.35-.155-.526-.028-.098-.057-.189-.08-.286-.057-.212-.108-.43-.16-.646-.057-.24-.108-.476-.154-.71-.017-.074-.029-.148-.04-.223-.046-.218-.08-.436-.114-.658-.04-.234-.075-.47-.103-.704-.023-.212-.046-.429-.063-.641-.012-.058-.017-.114-.017-.172-.018-.148-.023-.297-.035-.452-.011-.154-.017-.303-.023-.457-.017-.344-.022-.687-.017-1.036 0-.183.006-.366.017-.549.006-.224.018-.44.04-.658.893-11.214 12.461-19.71 23.47-19.716h.007z" fill="#00e800"/><path d="m324.826 385.937c-.138-1.957-.492-3.639-1.19-4.863-.194-.338-.389-.658-.595-.956-.189-.28-.378-.543-.578-.79-.063-.086-.131-.172-.206-.252-.131-.16-.269-.314-.412-.458-.069-.074-.137-.149-.212-.212-.074-.074-.143-.143-.217-.206-.143-.132-.286-.258-.429-.366-.074-.063-.148-.12-.223-.172-.074-.057-.148-.109-.217-.154-.074-.057-.149-.103-.223-.149-.074-.051-.154-.097-.229-.137-.074-.046-.148-.092-.223-.126-.074-.04-.148-.08-.217-.114-.177-.086-.355-.166-.532-.235 8.033-6.288 21.656-9.137 31.13-5.493 16.198 6.225 16.198 6.225 12.645 12.868-4.98 9.333-28.289-9.771-38.072 1.815z" fill="#00e800"/><path d="m280.101 725.352c-.005-.012-.005-.018-.011-.029-.069-.194-.137-.395-.2-.595-.057-.172-.109-.349-.154-.521-.08-.252-.143-.504-.201-.761-.045-.2-.091-.406-.125-.612-.04-.206-.075-.412-.103-.618-.006-.034-.012-.068-.017-.097-.132-.973-.166-1.969-.086-2.981.063-.738.177-1.487.354-2.248.138-.572.309-1.15.515-1.739.211-.59.458-1.185.744-1.791.189-.4.4-.813.629-1.225s.475-.824.738-1.247c.114-.178.229-.36.349-.538.075-.114.149-.223.223-.338 4.72-6.929 13.623-13.926 23.161-12.799.046.069.086.132.137.2.017.04.046.08.075.12.171.27.354.526.543.79.103.154.211.309.326.458.12.171.251.343.377.515.183.234.36.469.543.698.023.034.046.063.075.091.223.28.446.55.675.818.035.04.069.086.109.126.183.224.377.44.572.658.211.234.423.469.641.698.246.269.503.531.761.789.252.258.509.515.772.761.069.069.143.138.212.206.183.172.372.35.561.521 1.293 1.185 2.649 2.289 4.028 3.296.195.144.383.28.578.412.166.12.326.24.492.349.618.43 1.241.836 1.865 1.225 3.284 2.048 6.986 2.78 10.762 2.518l.075.915c12.833 6.472 3.553 26.771-5.069 32.647-7.404 5.04-13.966 5.658-20.065 3.495-5.344-1.888-10.327-5.91-15.213-10.95-.807-.83-1.596-1.66-2.352-2.483-.486-.532-.961-1.064-1.43-1.591-.017-.018-.029-.04-.046-.058-.452-.526-.893-1.047-1.316-1.573-.332-.406-.646-.817-.95-1.229-.097-.132-.194-.258-.286-.39-.406-.555-.79-1.109-1.144-1.67-.086-.138-.172-.275-.258-.418-.423-.692-.807-1.391-1.144-2.094-.052-.115-.103-.224-.154-.332-.213-.459-.402-.917-.568-1.379z" fill="#00e800"/><g fill="#fff"><path d="m331.691 626.999c.32-.2.641-.395.967-.577-.326.182-.646.377-.967.577z"/><path d="m330.662 668.463c.377.28.767.549 1.173.813-.401-.264-.796-.533-1.173-.813z"/><path d="m329.031 667.152c.126.114.252.218.377.32-.125-.102-.251-.205-.377-.32z"/><path d="m328.607 629.402c-.132.126-.269.258-.4.389.131-.131.263-.263.4-.389z"/><path d="m326.428 664.475c.108.138.223.27.337.4-.114-.131-.229-.263-.337-.4z"/><path d="m326.027 663.978c.126.166.263.331.401.497-.143-.166-.275-.331-.401-.497z"/><path d="m325.701 663.554c.103.144.212.286.326.424-.114-.138-.223-.281-.326-.424z"/><path d="m325.272 662.959c.097.137.194.28.297.417-.103-.137-.2-.274-.297-.417z"/><path d="m325.117 662.735c.052.074.103.149.155.224h-.006c-.052-.074-.103-.149-.149-.224z"/><path d="m325.003 662.559c-.16-.224-.303-.446-.44-.676.143.229.286.452.44.676z"/><path d="m324.053 661.024c.148.264.303.526.463.784-.165-.257-.32-.52-.463-.784z"/><path d="m323.601 660.184c.143.28.297.561.452.841-.16-.275-.315-.555-.452-.841z"/><path d="m323.184 659.325c.131.286.274.572.417.858-.149-.28-.292-.566-.417-.858z"/><path d="m322.8 658.456c.12.292.251.583.383.869-.137-.286-.268-.577-.383-.869z"/><path d="m322.451 657.575c.114.297.229.589.349.881-.126-.292-.24-.584-.349-.881z"/><path d="m323.041 380.118c-.189-.28-.383-.543-.578-.79.2.247.389.51.578.79z"/><path d="m322.148 656.717c.097.292.2.572.303.858-.109-.286-.212-.572-.303-.858z"/><path d="m321.862 655.784c.074.257.154.521.24.778-.091-.257-.171-.515-.24-.778z"/><path d="m321.845 378.619c.143.143.28.297.412.458-.138-.16-.275-.315-.412-.458z"/><path d="m321.616 654.874c.074.304.154.606.246.91-.092-.304-.172-.6-.246-.91z"/><path d="m321.845 378.619c-.075-.074-.143-.143-.212-.212.075.063.143.138.212.212z"/><path d="m321.416 378.202c.074.063.143.131.217.206-.074-.075-.143-.138-.217-.206z"/><path d="m321.221 653.038c.108.612.24 1.224.395 1.836-.155-.606-.286-1.219-.395-1.836z"/><path d="m320.963 651.167c.035.314.069.623.115.933-.046-.31-.08-.624-.115-.933z"/><path d="m320.986 377.835c-.074-.058-.148-.115-.223-.172.075.052.149.109.223.172z"/><path d="m320.855 649.599c.005.229.017.452.034.682-.017-.23-.029-.453-.034-.682z"/><path d="m320.763 377.664c-.068-.051-.143-.109-.217-.154.069.045.143.096.217.154z"/><path d="m320.546 377.509c-.074-.052-.149-.103-.223-.149.074.046.149.092.223.149z"/><path d="m320.094 377.223c-.074-.046-.148-.086-.223-.126.074.034.149.08.223.126z"/><path d="m319.871 377.097c-.074-.04-.148-.08-.217-.114.068.034.142.074.217.114z"/><path d="m318.944 376.685c-.08-.028-.16-.057-.234-.08.08.023.154.052.234.08z"/><path d="m318.234 376.474c.16.034.32.08.475.131-.16-.051-.314-.091-.475-.131z"/><path d="m316.901 708.37c.166.12.326.234.492.349-.165-.109-.326-.229-.492-.349z"/><path d="m317.021 376.296c-.08-.006-.166-.012-.246-.012.08.001.166.007.246.012z"/><path d="m316.323 707.958c.189.144.383.28.578.412-.194-.132-.383-.268-.578-.412z"/><path d="m311.735 704.142c.183.178.372.35.561.521-.189-.172-.378-.35-.561-.521z"/><path d="m310.75 703.175c.252.258.509.515.772.761-.262-.247-.52-.503-.772-.761z"/></g><path d="m311.186 429.66c-1.762-17.633-6.717-26.851-6.717-26.851s-.098.017-.281.057c-.08.017-.177.04-.297.069-.858.2-2.626.652-5.035 1.453-.149.051-.303.103-.458.154-.412.137-.841.292-1.281.452-.138.046-.275.097-.418.149-1.35.498-2.832 1.087-4.417 1.779-.246.108-.492.217-.744.332-.458.2-.916.412-1.385.635l-.549-1.396c-.017-.063-.034-.126-.057-.189-3.204-12.416.864-16.22 10.287-21.707.24-.137.481-.275.727-.418 4.549-2.615 10.774-8.062 16.215-7.896.08 0 .166.006.246.012.412.022.818.08 1.213.177.16.04.314.08.475.131.074.023.154.052.234.08.057.018.12.04.177.063.177.069.355.149.532.235.069.034.143.074.217.114.075.04.149.08.223.126.075.04.155.086.229.137.074.046.149.097.223.149.074.045.149.103.217.154.075.057.149.114.223.172.143.108.286.234.429.366.074.068.143.131.217.206.069.069.137.138.212.212.137.143.274.297.412.458.075.08.143.166.206.252.195.246.389.509.578.79.206.297.4.618.595.956.698 1.224 1.053 2.906 1.19 4.863.492 7.203-2.031 18.114-1.808 23.383.343 8.577-.681 19.219-11.558 20.312z" fill="#00e800"/><path d="m309.99 702.386c.246.269.503.531.761.789-.258-.258-.515-.521-.761-.789z" fill="#fff"/><path d="m308.777 701.029c.183.224.377.44.572.658-.195-.217-.389-.434-.572-.658z" fill="#fff"/><path d="m325.266 662.959c-11.008.006-22.577 8.502-23.47 19.716.858-11.042 11.724-22.302 23.27-20.014.011.023.028.052.051.074.046.075.097.15.149.224z" fill="#fff"/><path d="m307.993 700.085c.217.28.446.55.675.818-.229-.268-.452-.538-.675-.818z" fill="#fff"/><path d="m307.375 699.296c.177.234.36.469.543.698-.183-.229-.36-.464-.543-.698z" fill="#fff"/><path d="m306.998 698.781c.126.177.251.349.377.515-.126-.172-.257-.344-.377-.515z" fill="#fff"/><path d="m306.671 698.323c.103.154.211.309.326.458-.114-.149-.223-.303-.326-.458z" fill="#fff"/><path d="m306.128 697.533c.177.27.354.526.543.79-.189-.263-.372-.52-.543-.79z" fill="#fff"/><path d="m277.28 725.065c.916.04 1.859.132 2.82.286.166.463.355.921.567 1.379.045.108.097.223.154.332.337.703.721 1.401 1.144 2.094.08.137.166.28.258.418.354.561.738 1.115 1.144 1.67.092.126.183.258.286.39.303.412.618.823.95 1.229.423.526.858 1.047 1.316 1.573.017.018.029.04.046.058.463.532.938 1.059 1.43 1.591.755.823 1.545 1.653 2.352 2.483 4.886 5.04 9.87 9.063 15.213 10.95 3.456 10.688-9.435 21.65-18.926 23.567-9.75 1.979-20.352-.098-26.376-8.663-.195-.28-.389-.561-.566-.841-.138-.218-.275-.429-.401-.646-.068-.103-.131-.206-.188-.309-9.069-15.546.961-37.063 18.675-37.562.033.001.068.001.102.001z" fill="#00e800"/><path d="m305.413 696.4c.206.344.417.682.641 1.013-.051-.068-.091-.131-.137-.2-.172-.269-.344-.537-.504-.813z" fill="#fff"/><path d="m352.786 540.073c15.036-31.268 25.518-58.61 37.808-85.078s31.199-51.991 31.199-51.991 25.518 68.063 0 155.973c-14.504 49.954-46.321 123.836-62.393 151.247-16.072 27.417-55.041 69.007-73.366 69.007-18.326 0-24.946-7.563-36.286-7.563-11.346 0-16.546-10.871-5.676-21.742 10.876-10.87 46.321-64.274 60.499-92.636 14.184-28.362 33.174-85.949 48.215-117.217zm-75.609 184.992c-18.492-.676-28.087 21.599-18.675 37.562.057.103.12.206.188.309.126.218.258.429.401.646.177.28.372.561.566.841 6.024 8.565 16.626 10.643 26.376 8.663 9.492-1.917 22.382-12.88 18.926-23.567 6.099 2.163 12.662 1.545 20.065-3.495 8.622-5.876 17.902-26.176 5.069-32.647l-.075-.915c17.434-1.213 36.463-23.772 23.395-37.527l-.034-.378c5.967-.491 11.615-2.7 15.648-7.169 6.797-7.529 14.669-28.836 3.29-35.937l-.074-.429c9.961-1.647 18.572-8.714 21.69-21.135 3.501-13.967-1.819-17.994-9.423-21.016 10.413-4.354 20.271-9.875 22.502-22.285.515-2.849.641-5.67.389-8.37-.017-.223-.04-.446-.068-.664-.018-.171-.04-.337-.063-.503-.023-.188-.052-.378-.08-.566-.018-.104-.029-.2-.052-.304-.028-.194-.063-.395-.103-.589-.028-.154-.057-.309-.091-.458-.04-.194-.08-.383-.126-.572-.023-.114-.046-.223-.074-.326-.046-.188-.092-.371-.143-.555-.029-.114-.057-.223-.092-.332-.04-.148-.086-.297-.126-.446-.051-.154-.097-.309-.148-.463-.052-.166-.103-.326-.16-.486-.183-.532-.383-1.053-.601-1.563-.148-.36-.309-.715-.48-1.063-.086-.184-.177-.366-.269-.544-.269-.521-.555-1.03-.858-1.527-.75-1.219-1.614-2.357-2.586-3.404-.108-.12-.217-.235-.332-.35-.166-.171-.338-.343-.515-.515 24.122-2.786 28.264-42.093 8.611-55.246-26.673-17.857-54.926 28.55-33.894 49.496-.366.08-.727.172-1.087.274-.332.086-.669.188-1.001.292-.074.022-.148.052-.223.074-.303.092-.601.194-.893.304-.017 0-.028.005-.04.011-.303.104-.606.218-.904.338-.057.022-.114.046-.177.068-.332.138-.658.275-.984.424-.326.143-.646.298-.961.452-.069.034-.137.068-.206.103-.28.144-.561.292-.835.44-.005.006-.011.012-.017.012-.326.178-.646.366-.961.561-.321.189-.641.395-.95.606-.314.206-.618.424-.921.646-.28.2-.555.412-.824.63-.046.034-.092.074-.138.108-.251.206-.498.412-.738.629-.046.035-.086.075-.132.115-.257.229-.515.469-.761.715-.275.264-.543.538-.801.818-.217.223-.423.458-.618.692-.092.103-.177.206-.263.309-.212.246-.412.504-.612.761-8.359 10.934-6.694 28.075 3.118 36.801-7.478-.166-14.532 2.352-19.184 10.145-6.5 10.888-2.958 23.566 4.96 30.958-6.425-1.504-11.935-.571-16.34 1.9-.326.183-.646.377-.967.577-1.104.71-2.134 1.511-3.084 2.403-.137.126-.269.258-.4.389-5.046 4.983-7.69 12.434-7.352 19.808.005.229.017.452.034.682.017.297.04.589.074.887.035.309.069.623.115.933.04.314.085.629.143.938.108.617.24 1.229.395 1.836.074.31.154.606.246.91.069.263.149.521.24.778.012.051.029.103.046.154.091.286.194.572.303.858.108.297.223.589.349.881.114.292.246.583.383.869.125.292.269.578.417.858.137.286.292.566.452.841.143.264.297.526.463.784.011.023.023.052.046.074.137.229.28.452.44.676.011.034.034.068.063.103-11.546-2.288-22.411 8.972-23.27 20.014-.022.218-.034.435-.04.658-.011.183-.017.366-.017.549-.005.35 0 .692.017 1.036.006.154.012.309.023.457.012.155.023.304.035.452 0 .058.005.114.017.172.017.218.04.429.063.641.028.234.063.47.103.704.034.223.068.44.114.658.011.074.023.148.04.223.046.24.097.475.154.71.052.217.103.429.16.646.023.097.052.188.08.286.046.177.098.349.155.526.057.206.126.411.194.617.069.212.143.418.218.624.063.178.125.354.2.526.074.206.16.406.246.606.103.252.212.498.326.744.115.263.241.521.372.777.109.229.223.458.349.687.251.481.521.956.807 1.425-8.948-1.831-18.166 6.963-22.657 13.611-.074.115-.148.224-.223.338-.12.183-.24.36-.349.538-.263.423-.509.835-.738 1.247s-.44.824-.629 1.225c-.286.606-.532 1.201-.744 1.791-.212.589-.383 1.167-.515 1.739-.183.761-.297 1.51-.354 2.248-.08 1.013-.052 2.009.086 2.981.005.028.011.063.017.097.023.206.057.412.103.618.034.206.074.406.125.612.058.257.121.509.201.761.045.178.097.349.154.521.046.144.091.292.143.435-.938-.091-1.854-.126-2.752-.097-.032.001-.067.001-.101.001z" fill="#33a02c"/><path d="m304.257 694.289c.109.229.229.458.349.687-.126-.229-.24-.457-.349-.687z" fill="#fff"/><path d="m303.891 402.936c.12-.029.217-.052.297-.069-.08.023-.183.046-.297.069z" fill="#fff"/><path d="m303.559 692.768c.103.252.212.498.326.744-.114-.246-.223-.492-.326-.744z" fill="#fff"/><path d="m305.916 697.213c-9.538-1.127-18.44 5.87-23.161 12.799 4.492-6.648 13.709-15.442 22.657-13.611.161.275.333.543.504.812z" fill="#fff"/><path d="m303.313 692.161c.074.206.16.406.246.606-.086-.2-.172-.4-.246-.606z" fill="#fff"/><path d="m302.895 691.011c.069.212.143.418.218.624-.075-.206-.149-.412-.218-.624z" fill="#fff"/><path d="m302.546 689.867c.046.177.098.354.155.526-.057-.177-.109-.349-.155-.526z" fill="#fff"/><path d="m302.306 688.935c.052.217.103.435.16.646-.057-.218-.109-.43-.16-.646z" fill="#fff"/><path d="m302.151 688.225c.046.234.097.47.154.71-.056-.236-.108-.47-.154-.71z" fill="#fff"/><path d="m301.997 687.344c.034.223.068.44.114.658-.046-.218-.08-.436-.114-.658z" fill="#fff"/><path d="m301.831 685.999c.017.212.04.429.063.641-.023-.212-.046-.423-.063-.641z" fill="#fff"/><path d="m301.779 685.375c.012.155.017.304.035.452-.012-.148-.023-.297-.035-.452z" fill="#fff"/><path d="m301.756 684.918c.006.154.012.303.023.457-.011-.148-.017-.303-.023-.457z" fill="#fff"/><path d="m301.756 683.333c-.011.183-.017.366-.017.549 0-.183.006-.366.017-.549z" fill="#fff"/><path d="m298.856 404.389c-.149.051-.303.103-.458.154.155-.051.309-.103.458-.154z" fill="#fff"/><path d="m297.117 404.995c-.138.046-.275.097-.418.149.143-.052.28-.103.418-.149z" fill="#fff"/><path d="m292.282 406.923c-.246.108-.498.217-.744.332.252-.114.498-.223.744-.332z" fill="#fff"/><path d="m290.153 407.89c-.051.023-.097.046-.148.069-.166-.566-.321-1.122-.458-1.654.023.063.04.126.057.189z" fill="#fff"/><path d="m299.834 384.598c-9.423 5.487-13.491 9.292-10.287 21.707-3.908-13.577.486-16.083 10.287-21.707z" fill="#fff"/><path d="m288.071 408.909c-.234.12-.475.246-.709.366.24-.126.474-.246.709-.366z" fill="#00e800"/><path d="m287.396 736.085c-.492-.532-.967-1.059-1.43-1.591.469.527.943 1.059 1.43 1.591z" fill="#fff"/><path d="m286.641 409.652c-.24.131-.486.263-.727.395.246-.137.486-.269.727-.395z" fill="#00e800"/><path d="m285.919 734.437c-.458-.526-.893-1.047-1.316-1.573.424.526.865 1.046 1.316 1.573z" fill="#fff"/><path d="m283.368 731.244c.092.132.189.258.286.39-.103-.132-.195-.264-.286-.39z" fill="#fff"/><path d="m282.944 411.747c-.211.125-.423.251-.635.389.212-.138.424-.264.635-.389z" fill="#00e800"/><path d="m282.532 710.35c-.12.178-.234.36-.349.538.109-.178.229-.356.349-.538z" fill="#fff"/><path d="m281.966 729.156c.086.143.172.28.258.418-.092-.137-.178-.281-.258-.418z" fill="#fff"/><path d="m281.445 712.135c-.229.412-.44.824-.629 1.225.189-.401.4-.813.629-1.225z" fill="#fff"/><path d="m280.667 726.73c.051.108.103.217.154.332-.056-.109-.108-.223-.154-.332z" fill="#fff"/><path d="m280.089 725.322c-.017-.051-.04-.108-.057-.16-.052-.143-.097-.291-.143-.435.063.201.132.401.2.595z" fill="#fff"/><path d="m277.28 725.065c.898-.029 1.813.006 2.752.097.017.052.04.109.057.16.006.012.006.018.011.029-.96-.154-1.904-.246-2.82-.286z" fill="#fff"/><path d="m279.735 724.207c.045.172.097.349.154.521-.057-.172-.109-.343-.154-.521z" fill="#fff"/><path d="m280.072 715.15c-.206.589-.377 1.167-.515 1.739.132-.572.303-1.15.515-1.739z" fill="#fff"/><path d="m279.409 722.834c.034.206.08.412.125.612-.051-.206-.091-.406-.125-.612z" fill="#fff"/><path d="m279.306 722.216c.028.206.063.412.103.618-.046-.206-.08-.412-.103-.618z" fill="#fff"/><path d="m279.557 716.89c-.177.761-.292 1.51-.354 2.248.057-.739.171-1.488.354-2.248z" fill="#fff"/><path d="m279.203 719.138c-.08 1.013-.046 2.009.086 2.981-.138-.973-.166-1.969-.086-2.981z" fill="#fff"/><path d="m276.033 416.415c.492-.377.984-.738 1.476-1.087-.492.349-.984.715-1.476 1.087z" fill="#fff"/><path d="m272.886 418.933c-.258.217-.515.435-.767.658.252-.229.509-.447.767-.658z" fill="#fff"/><path d="m268.692 422.76c.377-.377.761-.744 1.138-1.104-.383.361-.76.727-1.138 1.104z" fill="#fff"/><path d="m268.337 423.109c-.251.246-.503.503-.755.761.252-.257.504-.515.755-.761z" fill="#00e800"/><path d="m258.691 762.936c.126.218.263.429.401.646-.143-.218-.275-.429-.401-.646z" fill="#fff"/><path d="m277.177 725.065c-17.714.498-27.744 22.016-18.675 37.562-9.412-15.963.184-38.237 18.675-37.562z" fill="#fff"/><path d="m227.412 661.07c-11.534 20.357-36.783 62.536-67.038 72.635-30.261 10.087-62.232-2.312-69.293 2.426-7.06 4.743-23.017 6.797 12.942-32.338s72.577-96.058 102.448-161.838c29.872-65.785 42.814-98.123 59.624-116.506.492-.538.99-1.064 1.487-1.579.252-.257.504-.515.755-.761.12-.12.235-.24.355-.349.377-.377.755-.744 1.138-1.104.755-.715 1.517-1.401 2.289-2.065.252-.223.509-.44.767-.658 1.041-.887 2.094-1.722 3.146-2.518.492-.372.984-.738 1.476-1.087 1.614-1.162 3.221-2.226 4.8-3.193.212-.137.424-.263.635-.389 1.007-.606 1.997-1.173 2.97-1.699.24-.132.486-.264.727-.395.24-.132.48-.257.721-.377.234-.12.475-.246.709-.366.658-.332 1.305-.652 1.934-.95.051-.023.097-.046.148-.069.469-.223.927-.435 1.385-.635.246-.114.498-.223.744-.332 1.585-.692 3.067-1.282 4.417-1.779.143-.052.28-.103.418-.149.44-.16.87-.315 1.281-.452.155-.051.309-.103.458-.154 2.409-.801 4.176-1.253 5.035-1.453.114-.023.217-.046.297-.069.183-.04.281-.057.281-.057s4.955 9.217 6.717 26.851c1.962 19.602-.029 49.611-17.176 88.929-32.56 74.687-55.063 122.118-66.597 142.48z" fill="#00e800"/><path d="m280.106 725.352h-.006c-.961-.154-1.905-.246-2.82-.286-.035 0-.069 0-.103 0-18.492-.676-28.087 21.599-18.675 37.562.057.103.12.206.188.309.126.218.258.429.401.646.177.28.372.561.566.841 6.024 8.565 16.626 10.643 26.376 8.663 9.492-1.917 22.382-12.88 18.926-23.567-.017-.074-.045-.143-.068-.217" fill="none" stroke="#000" stroke-width="11.3435"/><path d="m305.916 697.213c-9.538-1.127-18.44 5.87-23.161 12.799-.074.115-.148.224-.223.338-.12.178-.234.36-.349.538-.263.423-.509.835-.738 1.247s-.44.824-.629 1.225c-.286.606-.532 1.201-.744 1.791-.206.589-.377 1.167-.515 1.739-.177.761-.292 1.51-.354 2.248-.08 1.013-.046 2.009.086 2.981.005.028.011.063.017.097.028.206.063.412.103.618.034.206.08.412.125.612.058.257.121.509.201.761.045.172.097.349.154.521.063.2.131.4.2.595.006.012.006.018.011.029.166.463.355.921.567 1.379.051.108.103.217.154.332.337.703.721 1.401 1.144 2.094.086.143.172.28.258.418.354.561.738 1.115 1.144 1.67.092.132.189.258.286.39.303.412.618.823.95 1.229.423.526.858 1.047 1.316 1.573.017.018.029.04.046.058.463.532.938 1.059 1.43 1.591.755.823 1.545 1.653 2.352 2.483 4.886 5.04 9.87 9.063 15.213 10.95 6.099 2.163 12.662 1.545 20.065-3.495 8.622-5.876 17.902-26.176 5.069-32.647" fill="none" stroke="#000" stroke-width="11.3435"/><path d="m325.266 662.959c-11.008.006-22.577 8.502-23.47 19.716-.022.218-.034.435-.04.658-.011.183-.017.366-.017.549-.005.35 0 .692.017 1.036.006.154.012.309.023.457.012.155.017.304.035.452 0 .058.005.114.017.172.017.212.04.429.063.641.028.234.063.47.103.704.034.223.068.44.114.658.011.074.023.148.04.223.046.24.097.475.154.71.052.217.103.429.16.646.023.097.052.188.08.286.046.177.098.349.155.526.057.206.126.411.194.617.069.212.143.418.218.624.063.178.125.354.2.526.074.206.16.406.246.606.103.252.212.498.326.744.115.263.241.521.372.777.109.229.223.458.349.687.251.481.521.956.807 1.425.16.275.332.544.503.813.046.069.086.132.137.2.017.04.046.08.075.12.171.27.354.526.543.79.103.154.211.309.326.458.12.171.251.343.377.515.177.234.36.469.543.698.023.034.046.063.075.091.217.28.446.55.675.818.035.04.069.086.109.126.183.224.377.44.572.658.211.234.423.469.641.698.246.269.503.531.761.789.252.258.509.515.772.761.069.069.143.138.212.206.183.172.372.35.561.521 1.293 1.185 2.649 2.289 4.028 3.296.195.144.383.28.578.412.166.12.326.234.492.349.618.43 1.241.836 1.865 1.225 3.284 2.048 6.986 2.78 10.762 2.518 17.434-1.213 36.463-23.772 23.395-37.527" fill="none" stroke="#000" stroke-width="11.3435"/><path d="m348.999 624.521c-6.425-1.504-11.935-.571-16.34 1.9-.326.183-.646.377-.967.577-1.104.71-2.134 1.511-3.084 2.403-.132.126-.269.258-.4.389-5.046 4.983-7.69 12.434-7.352 19.808.005.229.017.452.034.682.017.297.04.589.074.887.035.309.069.623.115.933.04.314.085.629.143.938.108.617.24 1.229.395 1.836.074.31.154.606.246.91.069.263.149.521.24.778.012.051.029.103.046.154.091.286.194.572.303.858.108.297.223.589.349.881.114.292.246.583.383.869.125.292.269.578.417.858.137.286.292.566.452.841.143.264.297.526.463.784.011.023.023.052.046.074.137.229.28.452.44.676.011.034.034.068.063.103.011.023.028.052.051.074.046.074.097.149.149.224h.006c.097.137.194.28.297.417.046.058.086.12.131.178.103.144.212.286.326.424.126.166.263.331.401.497.108.138.223.27.337.4.692.802 1.447 1.563 2.266 2.277.126.114.252.218.377.32.401.344.818.676 1.253.99.377.28.772.549 1.173.813.4.263.818.515 1.241.755 5.791 3.308 13.268 5.109 20.306 4.525 5.967-.491 11.615-2.7 15.648-7.169 6.797-7.529 14.669-28.836 3.29-35.937" fill="none" stroke="#000" stroke-width="11.3435"/><path d="m384.512 588.871c-1.859-.737-3.851-1.413-5.887-2.162-4.903-1.797-10.253-3.182-15.402-3.29-7.478-.166-14.532 2.352-19.184 10.145-6.5 10.888-2.958 23.566 4.96 30.958h.006c2.38 2.221 5.144 3.966 8.159 5.041 5.023 1.785 10.213 2.271 15.082 1.459 9.961-1.647 18.572-8.714 21.69-21.135 3.501-13.967-1.82-17.994-9.424-21.016z" fill="none" stroke="#000" stroke-width="11.3435"/><path d="m364.126 584.186c-.309-.246-.612-.504-.904-.767-9.812-8.726-11.477-25.867-3.118-36.801.2-.257.4-.515.612-.761.086-.103.171-.206.263-.309.2-.234.406-.47.618-.692.258-.28.526-.555.801-.818.246-.246.503-.48.761-.715.046-.04.086-.08.132-.115.24-.217.492-.423.738-.629.046-.034.092-.074.138-.108.269-.218.543-.424.824-.63.303-.223.612-.44.921-.646.315-.212.629-.412.95-.606.314-.194.635-.378.961-.561.006 0 .012-.006.017-.012.275-.148.555-.297.835-.44.069-.034.137-.068.206-.103.32-.154.635-.31.961-.452.326-.148.652-.286.984-.424.063-.022.12-.046.177-.068.297-.12.601-.229.904-.338.012-.006.023-.011.04-.011.292-.109.589-.212.893-.304.075-.022.149-.052.223-.074.332-.104.664-.2 1.001-.292.36-.097.721-.188 1.087-.274.578-.138 1.162-.258 1.745-.36.017 0 .029-.006.046-.006.303-.052.601-.103.904-.144.275-.04.549-.08.83-.108.24-.028.481-.052.727-.08.149-.012.292-.022.441-.034.16-.018.32-.028.48-.034.194-.012.389-.023.583-.034.223-.012.452-.018.675-.023 4.028-.097 8.016.566 11.563 1.945.355.138.704.28 1.047.436.292.131.584.269.87.405.195.104.389.201.584.31.114.057.229.12.337.183.183.098.354.2.532.31.137.074.274.16.406.246.114.068.229.137.337.217.189.114.372.24.555.372.137.092.274.188.406.292.126.086.246.178.361.269.125.092.251.189.372.286.183.144.361.292.532.446.08.063.166.138.246.212.2.172.395.349.583.532.04.04.08.074.12.114.177.172.349.344.515.515.114.114.223.229.332.35.973 1.047 1.837 2.186 2.586 3.404.303.497.589 1.007.858 1.527.092.178.183.36.269.544.172.349.332.703.48 1.063.218.51.418 1.03.601 1.563.057.16.108.32.16.486.051.154.097.309.148.463.04.149.086.298.126.446.035.109.063.218.092.332.051.184.097.366.143.555.028.104.051.212.074.326.046.189.086.378.126.572.034.149.063.304.091.458.04.194.075.395.103.589.023.104.034.2.052.304.028.188.057.378.08.566.023.166.045.332.063.503.028.218.051.441.068.664.252 2.7.126 5.521-.389 8.37-2.231 12.41-12.089 17.932-22.502 22.285-.28.12-.561.24-.847.355" fill="none" stroke="#000" stroke-width="11.3435"/><path d="m375.151 537.235c-21.032-20.946 7.221-67.354 33.894-49.496 19.653 13.153 15.511 52.46-8.611 55.246" fill="none" stroke="#000" stroke-width="11.3435"/><path d="m421.793 403.004s25.518 68.063 0 155.973c-14.504 49.954-46.321 123.836-62.393 151.247-16.072 27.417-55.041 69.007-73.366 69.007-18.326 0-24.946-7.563-36.286-7.563-11.346 0-16.546-10.871-5.676-21.742 10.876-10.87 46.321-64.274 60.499-92.636 14.184-28.361 33.173-85.948 48.215-117.216 15.036-31.268 25.518-58.61 37.808-85.078s31.199-51.992 31.199-51.992z" fill="none" stroke="#000" stroke-width="11.3435"/><path d="m290.005 407.959c.051-.023.097-.046.148-.069.469-.223.927-.435 1.385-.635.246-.114.498-.223.744-.332 1.585-.692 3.067-1.282 4.417-1.779.143-.052.28-.103.418-.149.44-.16.87-.315 1.281-.452.155-.051.309-.103.458-.154 2.409-.801 4.176-1.253 5.035-1.453.114-.023.217-.046.297-.069.183-.04.281-.057.281-.057s4.955 9.217 6.717 26.851c1.962 19.602-.029 49.611-17.176 88.929-32.561 74.688-55.063 122.119-66.598 142.481-11.534 20.357-36.783 62.536-67.038 72.635-30.261 10.087-62.232-2.312-69.293 2.426-7.06 4.743-23.017 6.797 12.942-32.338s72.577-96.058 102.448-161.838c29.872-65.785 42.814-98.123 59.624-116.506.492-.538.99-1.064 1.487-1.579.252-.257.504-.515.755-.761.12-.12.235-.24.355-.349.377-.377.755-.744 1.138-1.104.755-.715 1.517-1.401 2.289-2.065.252-.223.509-.44.767-.658 1.041-.887 2.094-1.722 3.146-2.518.492-.372.984-.738 1.476-1.087 1.614-1.162 3.221-2.226 4.8-3.193.212-.137.424-.263.635-.389 1.007-.606 1.997-1.173 2.97-1.699.246-.138.486-.269.727-.395.24-.132.48-.257.721-.377.24-.126.475-.246.709-.366.659-.333 1.305-.654 1.935-.951z" fill="none" stroke="#000" stroke-width="11.3435"/><path d="m290.005 407.959c-.166-.566-.321-1.122-.458-1.654-3.204-12.416.864-16.22 10.287-21.707.24-.137.481-.275.727-.418 4.549-2.615 10.774-8.062 16.215-7.896.08 0 .166.006.246.012.412.022.818.08 1.213.177.16.034.32.08.475.131.08.023.154.052.234.08.057.018.12.04.177.063.177.069.355.149.532.235.069.034.143.074.217.114.075.034.149.08.223.126.075.04.155.086.229.137.074.046.149.092.223.149.069.045.143.097.217.154.075.052.149.109.223.172.143.108.286.234.429.366.074.063.143.131.217.206.075.063.143.138.212.212.143.143.28.297.412.458.075.08.143.166.206.252.2.246.389.509.578.79.206.297.4.618.595.956.698 1.224 1.053 2.906 1.19 4.863.492 7.203-2.031 18.114-1.808 23.383.343 8.577-.681 19.219-11.558 20.312" fill="none" stroke="#000" stroke-width="11.3435"/><path d="m319.121 376.748c8.033-6.288 21.656-9.137 31.13-5.493 16.198 6.225 16.198 6.225 12.645 12.868-4.978 9.332-28.287-9.772-38.07 1.814-.035.034-.069.074-.098.108" fill="none" stroke="#000" stroke-width="11.3435"/></svg>