<svg enable-background="new 0 0 850.394 850.394" height="850.394" viewBox="0 0 850.394 850.394" width="850.394" xmlns="http://www.w3.org/2000/svg"><path d="m726.42 77.07v60.12h-27.32-42.72-83.25-202.87-101.68-100.17-27.83v-60.12z" fill="#ffffc2"/><path d="m699.1 142.65v554.15l-42.61 6.66-.11-561.48v-4.79h42.72z" fill="#ffeec8"/><path d="m656.5 748.26 1.28-1.71 19.75 17.24-17.25 23.04-19.74-17.24z" fill="#ffffc2"/><path d="m573.13 702.24v-560.68-4.37h83.25v4.79l.11 561.48-83.36 13.02z" fill="#ffeec8"/><path d="m471.45 703.4-101.19 15.8v-14.22-563.42-4.37h202.87v4.37 560.68l-101.68 15.88z" fill="#ffeec8"/><path d="m268.58 703.56v-566.37h101.68v4.37 563.42h-.08l-101.6 15.86z" fill="#ffeec8"/><path d="m268.58 137.19v566.37l-100.17 15.64v-580.92-1.09z" fill="#ffeec8"/><g fill="none"><path d="m270.38 703.28-1.8.28-100.17 15.64v-580.92" stroke="#231f20" stroke-width="21"/><path d="m370.18 704.98-101.6 15.86v-17.28-566.37" stroke="#231f20" stroke-width="21"/><path d="m471.76 703.35-.31.05-101.19 15.8v-14.22-563.42" stroke="#231f20" stroke-width="21"/><path d="m574.64 702-1.51.24-101.68 15.88v-14.72-559.66" stroke="#231f20" stroke-width="21"/><path d="m699.1 142.65v554.15l-42.61 6.66-83.36 13.02v-14.24-560.68" stroke="#231f20" stroke-width="21"/><path d="m168.41 137.19h-27.83v-60.12h585.84v60.12h-27.32-42.72-83.25-202.87-101.68z" stroke="#231f20" stroke-width="21"/><path d="m660.28 786.83-19.74-17.24 15.96-21.33 1.28-1.71 19.75 17.24z" stroke="#231f20" stroke-width="21"/><path d="m656.38 141.98.11 561.48.01 44.8v3.21" stroke="#231f20" stroke-width="21"/><path d="m0 0h850.394v850.394h-850.394z"/></g></svg>