<svg enable-background="new 0 0 850.394 850.394" height="850.394" viewBox="0 0 850.394 850.394" width="850.394" xmlns="http://www.w3.org/2000/svg"><path d="m626.48 771.91-2.221.399c-.2-.13-.399-.26-.6-.399l-556.349-387.47v-41.49h.86l551.95 384.22c1.979 1.42 4.31 1.93 6.36 1.58z" fill="#ee947d"/><path d="m626.48 771.91v-43.16c1.6-.28 3.029-1.1 3.989-2.42l151.911-212.27v49.101l-148.37 207.899c-2.06 2.851-6.3 3.341-9.75 1.25z" fill="#ee947d"/><path d="m69.08 296.23 550.55 386.46c2.16 1.51 4.7 1.939 6.851 1.38v44.68c-2.051.35-4.381-.16-6.36-1.58l-551.951-384.22h-.86v-48.18l.08-.07c.48.56 1.05 1.08 1.69 1.53z" fill="#f6cc4b"/><path d="m782.38 464.56v49.5l-151.91 212.27c-.96 1.32-2.39 2.14-3.989 2.42v-44.68c1.399-.37 2.63-1.16 3.479-2.37l.1-.15 25.511-36.34 25.46-36.27 25.5-36.33 25.51-36.341 25.47-36.289z" fill="#f6cc4b"/><path d="m119.8 214.99 93.45 65.6-25.47 36.28-93.44-65.59h-.01z" fill="#f6cc4b"/><path d="m782.38 460.91c.18.79.21 1.59.101 2.359l-.101-.069z" fill="#fff"/><path d="m782.38 463.2.101.069c-.03.171-.061.341-.101.5z" fill="#fff"/><g fill="#f6cc4b"><path d="m782.38 463.2v.569c-.16.73-.46 1.431-.91 2.07l-23.96 34.141h-.01l-93.43-65.58 25.51-36.34z"/><path d="m757.5 499.98-25.46 36.29-93.44-65.59 25.47-36.28z"/><path d="m650.365 464.563h44.4v114.163h-44.4z" transform="matrix(.5745 -.8185 .8185 .5745 -140.8036 772.4196)"/><path d="m624.867 500.898h44.386v114.163h-44.386z" transform="matrix(.5745 -.8185 .8185 .5745 -181.3862 767.0377)"/><path d="m689.58 398.06-25.51 36.34-93.72-65.79 25.5-36.33z"/><path d="m681.03 608.94-25.46 36.27h-.01l-93.43-65.58 25.46-36.28z"/><path d="m570.35 368.61 93.72 65.79-25.47 36.28-93.72-65.78z"/><path d="m655.57 645.21-25.51 36.34-93.44-65.59 25.51-36.33 93.43 65.58z"/><path d="m638.6 470.68-25.51 36.34-93.72-65.79 25.51-36.33z"/><path d="m531.287 435.036h44.386v114.506h-44.386z" transform="matrix(.5745 -.8185 .8185 .5745 -167.4364 662.4912)"/><path d="m502.4 266.68 93.45 65.6-25.5 36.33-93.46-65.6z"/><path d="m587.59 543.35-25.46 36.28-93.73-65.79 25.47-36.28z"/><path d="m488.717 296.862h44.336v114.185h-44.336z" transform="matrix(.5745 -.8185 .8185 .5745 -72.3247 568.7896)"/><path d="m562.13 579.63-25.51 36.33-93.72-65.79 25.5-36.33z"/><path d="m451.42 339.3 93.46 65.6-25.51 36.33-93.45-65.6z"/><path d="m519.37 441.23-25.5 36.33-93.46-65.6 25.51-36.33z"/><path d="m502.4 266.68-25.51 36.33-93.44-65.59 25.5-36.33z"/><path d="m493.87 477.56-25.47 36.28-93.46-65.6 25.47-36.28z"/><path d="m476.89 303.01-25.47 36.29-93.44-65.59 25.47-36.29z"/><path d="m386.727 442.113h44.386v114.185h-44.386z" transform="matrix(.5745 -.8185 .8185 .5745 -234.6063 547.1113)"/><path d="m357.98 273.71 93.44 65.59-25.5 36.33-93.45-65.59z"/><path d="m425.92 375.63-25.51 36.33-93.44-65.59 25.5-36.33z"/><path d="m292.087 164.167h114.507v44.386h-114.507z" transform="matrix(-.8185 -.5746 .5746 -.8185 528.1906 539.6034)"/><path d="m400.41 411.96-25.47 36.28-93.44-65.59 25.47-36.28z"/><path d="m383.45 237.42-25.47 36.29-93.72-65.79 25.47-36.29z"/><path d="m374.94 448.24-25.5 36.33-93.44-65.58 25.5-36.34z"/><path d="m357.98 273.71-25.51 36.33-93.72-65.79 25.51-36.33z"/><path d="m332.47 310.04-25.5 36.33-93.72-65.78 25.5-36.34z"/><path d="m315.23 135.3-25.5 36.33-93.45-65.59 25.45-36.27.05-.06z"/><path d="m306.97 346.37-25.47 36.28-93.72-65.78 25.47-36.28z"/><path d="m208.102 99.895h44.336v114.17h-44.336z" transform="matrix(.5745 -.8185 .8185 .5745 -30.5064 255.2787)"/><path d="m281.5 382.65-25.5 36.34-93.72-65.79 25.5-36.33z"/><path d="m264.26 207.92-25.51 36.33-93.44-65.59 25.5-36.33z"/><path d="m238.75 244.25-25.5 36.34-93.45-65.6 25.51-36.33z"/></g><path d="m228.34 69.35 550.56 386.44c1.869 1.33 3.08 3.2 3.479 5.12v2.29l-92.8-65.14-93.73-65.78-93.449-65.6-93.45-65.59-93.72-65.79-93.45-65.59-.05.06-1.74-1.22c2.37-1.31 5.66-1.09 8.35.8z" fill="#fff"/><path d="m94.34 251.28 93.44 65.59-25.5 36.33-93.45-65.59 25.5-36.33z" fill="#f6cc4b"/><path d="m536.62 615.96 93.439 65.59-.1.15c-.85 1.21-2.08 2-3.479 2.37-2.15.56-4.69.13-6.851-1.38l-550.549-386.46c-.64-.45-1.21-.97-1.69-1.53-2.19-2.55-2.64-6.01-.89-8.51l151.51-215.86c.53-.75 1.21-1.35 1.98-1.78l1.74 1.22-25.45 36.27-25.47 36.29-25.5 36.33-25.51 36.33-25.47 36.29-25.5 36.33 93.45 65.59 93.72 65.79 93.44 65.58 93.46 65.6z" fill="#f6cc4b"/><path d="m630.06 681.55-.1.15c-.85 1.21-2.08 2-3.479 2.37-2.15.56-4.69.13-6.851-1.38l-550.55-386.46c-.64-.45-1.21-.97-1.69-1.53-2.19-2.55-2.64-6.01-.89-8.51l151.51-215.86c.53-.75 1.21-1.35 1.98-1.78 2.37-1.31 5.66-1.09 8.35.8l550.56 386.44c1.869 1.33 3.08 3.2 3.479 5.12.18.79.21 1.59.101 2.359-.03.171-.061.341-.101.5-.16.73-.46 1.431-.91 2.07l-23.96 34.141h-.01l-25.46 36.289" fill="none" stroke="#231f20" stroke-width="14"/><path d="m162.28 353.2-93.45-65.59 25.5-36.33 25.47-36.29 25.51-36.33 25.5-36.33 25.47-36.29 25.45-36.27.05-.06 93.45 65.59 93.72 65.79 93.45 65.59 93.45 65.6 93.73 65.78 92.8 65.14.1.07.54.38-.64.91-24.87 35.42-25.47 36.29-25.51 36.34-25.5 36.33-25.46 36.27-25.51 36.34-93.44-65.59-93.72-65.79-93.46-65.6-93.44-65.58z" fill="none" stroke="#231f20" stroke-width="14"/><path d="m536.62 615.96 25.51-36.33 25.46-36.28 25.5-36.33 25.51-36.34 25.47-36.28 25.51-36.34" fill="none" stroke="#231f20" stroke-width="14"/><path d="m442.9 550.17 25.5-36.33 25.47-36.28 25.5-36.33 25.51-36.33 25.47-36.29 25.5-36.33" fill="none" stroke="#231f20" stroke-width="14"/><path d="m349.44 484.57 25.5-36.33 25.47-36.28 25.51-36.33 25.5-36.33 25.47-36.29 25.51-36.33" fill="none" stroke="#231f20" stroke-width="14"/><path d="m256 418.99 25.5-36.34 25.47-36.28 25.5-36.33 25.51-36.33 25.47-36.29 25.5-36.33" fill="none" stroke="#231f20" stroke-width="14"/><path d="m162.28 353.2 25.5-36.33 25.47-36.28 25.5-36.34 25.51-36.33 25.47-36.29 25.5-36.33" fill="none" stroke="#231f20" stroke-width="14"/><path d="m196.28 106.04 93.45 65.59 93.72 65.79 93.44 65.59 93.46 65.6 93.72 65.79 93.43 65.58" fill="none" stroke="#231f20" stroke-width="14"/><path d="m170.81 142.33 93.45 65.59 93.72 65.79 93.44 65.59 93.46 65.6 93.72 65.78 93.44 65.59" fill="none" stroke="#231f20" stroke-width="14"/><path d="m145.31 178.66 93.44 65.59 93.72 65.79 93.45 65.59 93.45 65.6 93.72 65.79 93.44 65.59" fill="none" stroke="#231f20" stroke-width="14"/><path d="m119.8 214.99 93.45 65.6 93.72 65.78 93.44 65.59 93.46 65.6 93.72 65.79 93.44 65.59" fill="none" stroke="#231f20" stroke-width="14"/><path d="m94.34 251.28 93.44 65.59 93.72 65.78 93.44 65.59 93.46 65.6 93.73 65.79 93.43 65.58" fill="none" stroke="#231f20" stroke-width="14"/><path d="m782.38 457.88v3.03 2.29.569.79 49.5 49.101l-148.37 207.9c-2.06 2.851-6.3 3.341-9.75 1.25-.2-.13-.399-.26-.6-.399l-556.35-387.471v-41.49-48.18" fill="none" stroke="#231f20" stroke-width="14"/><path d="m782.84 513.42-.46.64-151.91 212.27c-.96 1.32-2.39 2.14-3.989 2.42-2.051.35-4.381-.16-6.36-1.58l-551.951-384.22" fill="none" stroke="#231f20" stroke-width="14"/><path d="m626.48 684.05v.02 44.68 43.16" fill="none" stroke="#231f20" stroke-width="14"/><path d="m0 0h850.394v850.394h-850.394z" fill="none"/></svg>