<svg enable-background="new 0 0 850.394 850.394" height="850.394" viewBox="0 0 850.394 850.394" width="850.394" xmlns="http://www.w3.org/2000/svg"><path d="m805.06 340.9c-1.01 2.71-2.479 5.37-4.399 7.84-4.641 5.97-10.98 9.63-17.22 10.59-5.19.8-10.33-.27-14.391-3.43-8.96-6.96-9.319-21.46-.819-32.4 8.51-10.92 22.659-14.12 31.609-7.15 6.92 5.39 8.71 15.29 5.22 24.55z" fill="#787878"/><path d="m751.92 417.12-2.96-3.55 34.48-54.24c6.239-.96 12.579-4.62 17.22-10.59 1.92-2.47 3.39-5.13 4.399-7.84.08.61 1.631 13.88-7.52 28.85-9.36 15.32-36.3 44.93-36.3 44.93l-6.69 5.59z" fill="#c8c8c8"/><path d="m683.56 313.57c6.801-7.2 16.48-9.94 24.37-6.09 10.19 4.99 13.521 19.11 7.44 31.54-6.09 12.43-19.28 18.48-29.47 13.49-4.62-2.26-7.841-6.41-9.4-11.42-1.87-6.04-1.36-13.34 1.96-20.13 1.38-2.81 3.12-5.29 5.1-7.39z" fill="#787878"/><path d="m683.56 313.57c-1.979 2.1-3.72 4.58-5.1 7.39-3.32 6.79-3.83 14.09-1.96 20.13l-33.6 54.78-8.471-2.08 2.09-8.47s14.771-37.2 24.431-52.34c9.37-14.67 21.84-19.14 22.61-19.41z" fill="#c8c8c8"/><path d="m348.62 293.93h24.36v54.39h-24.36z"/><path d="m348.62 382.53h24.09v54.39h-24.09z"/><path d="m348.62 436.92v162.39c0 7.49-6.32 13.561-14.11 13.561h-246.31c-7.79 0-14.11-6.07-14.11-13.561v-364.38c0-7.5 6.32-13.57 14.11-13.57h221.83 24.48c7.79 0 14.11 6.07 14.11 13.57v59 54.39 34.21h-.27v54.39zm-76.88 85.8v-212.13c0-4.36-2.56-7.9-5.73-7.9h-99.98c-3.17 0-5.73 3.54-5.73 7.9v212.13c0 4.36 2.56 7.9 5.73 7.9h99.98c3.17 0 5.73-3.54 5.73-7.9z" fill="#0b00ea"/><path d="m348.35 382.53h.27v54.39h-.27z"/><path d="m247.98 362.13c0-17.58-14.26-31.83-31.84-31.83-17.59 0-31.85 14.25-31.85 31.83 0 17.59 14.26 31.85 31.85 31.85 17.58 0 31.84-14.26 31.84-31.85zm23.76-51.54v212.13c0 4.36-2.56 7.9-5.73 7.9h-99.98c-3.17 0-5.73-3.54-5.73-7.9v-212.13c0-4.36 2.56-7.9 5.73-7.9h99.98c3.17 0 5.73 3.54 5.73 7.9zm-24.59 155.57c0-17.59-14.26-31.84-31.84-31.84-17.59 0-31.84 14.25-31.84 31.84 0 17.58 14.25 31.84 31.84 31.84 17.58 0 31.84-14.26 31.84-31.84z" fill="#c8c8c8"/><path d="m216.14 330.3c17.58 0 31.84 14.25 31.84 31.83 0 17.59-14.26 31.85-31.84 31.85-17.59 0-31.85-14.26-31.85-31.85 0-17.58 14.26-31.83 31.85-31.83z" fill="#787878"/><path d="m215.31 434.32c17.58 0 31.84 14.25 31.84 31.84 0 17.58-14.26 31.84-31.84 31.84-17.59 0-31.84-14.26-31.84-31.84 0-17.59 14.25-31.84 31.84-31.84z" fill="#787878"/><g fill="none"><path d="m348.62 348.32v34.21" stroke="#000" stroke-width="19.9156"/><path d="m348.62 436.92v162.39c0 7.49-6.32 13.561-14.11 13.561h-246.31c-7.79 0-14.11-6.07-14.11-13.561v-364.38c0-7.5 6.32-13.57 14.11-13.57h221.83 24.48c7.79 0 14.11 6.07 14.11 13.57v59" stroke="#000" stroke-width="19.9156"/><path d="m166.03 530.62c-3.17 0-5.73-3.54-5.73-7.9v-212.13c0-4.36 2.56-7.9 5.73-7.9h99.98c3.17 0 5.73 3.54 5.73 7.9v212.13c0 4.36-2.56 7.9-5.73 7.9z" stroke="#000" stroke-width="19.9156"/><path d="m216.14 393.98c-17.59 0-31.85-14.26-31.85-31.85 0-17.58 14.26-31.83 31.85-31.83 17.58 0 31.84 14.25 31.84 31.83 0 17.59-14.26 31.85-31.84 31.85z" stroke="#000" stroke-width="19.9156"/><path d="m215.31 498c-17.59 0-31.84-14.26-31.84-31.84 0-17.59 14.25-31.84 31.84-31.84 17.58 0 31.84 14.25 31.84 31.84 0 17.58-14.26 31.84-31.84 31.84z" stroke="#000" stroke-width="19.9156"/><path d="m348.62 293.93h24.36v54.39h-24.36z" stroke="#000" stroke-width="19.9156"/><path d="m348.62 436.92h-.27v-54.39h.27 24.09v54.39z" stroke="#000" stroke-width="19.9156"/><path d="m319.99 185.05h-9.96-18.67v29.88" stroke="#000" stroke-linecap="round" stroke-linejoin="round" stroke-width="29.8734"/><path d="m310.03 185.05v36.31" stroke="#000" stroke-width="9.9578"/><path d="m247.98 362.13v99.91" stroke="#000" stroke-width="14.9367"/><path d="m683.56 313.57c6.801-7.2 16.48-9.94 24.37-6.09 10.19 4.99 13.521 19.11 7.44 31.54-6.09 12.43-19.28 18.48-29.47 13.49-4.62-2.26-7.841-6.41-9.4-11.42-1.87-6.04-1.36-13.34 1.96-20.13 1.38-2.81 3.12-5.29 5.1-7.39z" stroke="#000" stroke-width="14.9367"/><path d="m683.6 313.56s-.01 0-.04.01c-.77.27-13.239 4.74-22.609 19.41-9.66 15.14-24.431 52.34-24.431 52.34l-2.09 8.47 8.471 2.08 33.6-54.78.01-.02" stroke="#000" stroke-width="14.9367"/><path d="m805.06 340.9c3.49-9.26 1.7-19.16-5.22-24.55-8.95-6.97-23.1-3.77-31.609 7.15-8.5 10.94-8.141 25.44.819 32.4 4.061 3.16 9.2 4.23 14.391 3.43 6.239-.96 12.579-4.62 17.22-10.59 1.919-2.47 3.389-5.13 4.399-7.84z" stroke="#000" stroke-width="14.9367"/><path d="m805.06 340.88v.02c.08.61 1.631 13.88-7.52 28.85-9.36 15.32-36.3 44.93-36.3 44.93l-6.69 5.59-2.63-3.15-2.96-3.55 34.48-54.24.01-.02" stroke="#000" stroke-width="14.9367"/><path d="m634.86 394.83c-16.19 14.42-3.62 38.41 2.5 54.77 8.479 22.681 17.31 42.261 16.25 66.9-1.311 30.79-18.721 56.35-42.62 73.31-24.98 17.75-57.07 26.101-85.24 21.19-48.8-8.5-96.27-44.81-77.75-121.77 2.64-10.971 7.64-20.841 13.97-29.87l2.04-2.79c47.67-66.97 40.41-131.11.67-191.85-29.239-44.69-84.47-76.53-138.459-77.18" stroke="#000" stroke-width="14.9367"/><path d="m610.52 590.12c.15-.101.311-.21.471-.311 34.399-22.859 89.899-48.729 109.63-87.42 11.81-23.159 14.53-62.26 31.3-85.27 3.17-4.34 6.83-8.11 11.15-11.09" stroke="#000" stroke-width="14.9367"/><path d="m0 0h850.394v850.394h-850.394z"/></g></svg>