<svg enable-background="new 0 0 850.394 850.394" height="850.394" viewBox="0 0 850.394 850.394" width="850.394" xmlns="http://www.w3.org/2000/svg"><path d="m170.55 154.24s-85.86 2.16-75.42-37.72c3.04-2.83 6.63-5.12 10.85-6.66 5.85-2.14 69.9-2.84 78.44-1.54 0 0 523.54 16.02 539.57 16.02 16.02 0 46.3 8.91 46.3 56.99s0 422.04 0 422.04v33.83s1.78 32.06-32.06 32.06c-33.83 0-123.761 0-123.761 0 0-59.76 0-183.06 0-282.52h68.561 28.64c0-48.08-30.27-56.99-46.3-56.99-4.2 0 9.99-1.09-50.9-2.71 0-16.92 0-32.16 0-45.05h81.03 18.34c0-48.08-30.27-56.98-46.3-56.98-4.2 0 7.52-.62-53.38-2.24-1.08-11.67-4.48-27.3-14.4-37.25-4.569-4.59-10.529-7.97-18.279-9.21-53.791-8.58-410.931-22.07-410.931-22.07z" fill="#9e5b16"/><path d="m79.35 576.66v-391.77s-6.01-48.08 15.78-68.37c-10.44 39.88 75.42 37.72 75.42 37.72s357.141 13.49 410.931 22.07c7.75 1.24 13.71 4.62 18.279 9.21 9.92 9.95 13.32 25.58 14.4 37.25.84 8.93.31 15.54.31 15.54s0 16.66 0 43.68v45.05 59.7 282.52 32.94c0 39.18-27.6 38.29-57.87 38.29-19.59 0-429.169-71.23-429.169-71.23-51.641-12.47-48.081-92.6-48.081-92.6z" fill="#9e5b16"/><path d="m711.67 386.74h-28.64-68.56c0-21.28 0-41.46 0-59.7 60.891 1.62 46.7 2.71 50.9 2.71 16.03 0 46.3 8.91 46.3 56.99z" fill="#0b00ea"/><path d="m713.84 281.99h-18.34-81.03c0-27.02 0-43.68 0-43.68s.53-6.61-.31-15.54c60.899 1.62 49.18 2.24 53.38 2.24 16.03 0 46.3 8.9 46.3 56.98z" fill="#33a02c"/><g fill="none"><path d="m614.47 669.26h123.761c33.84 0 32.06-32.06 32.06-32.06v-33.83s0-373.96 0-422.04-30.28-56.99-46.3-56.99c-16.03 0-539.57-16.02-539.57-16.02-8.54-1.3-72.59-.6-78.44 1.54-4.22 1.54-7.81 3.83-10.85 6.66-21.79 20.29-15.78 68.37-15.78 68.37v391.77s-3.56 80.13 48.08 92.6c0 0 409.58 71.23 429.169 71.23 30.271 0 57.87.89 57.87-38.29 0-5.08 0-16.65 0-32.94 0-59.76 0-183.06 0-282.52 0-21.28 0-41.46 0-59.7 0-16.92 0-32.16 0-45.05 0-27.02 0-43.68 0-43.68s.53-6.61-.31-15.54c-1.08-11.67-4.48-27.3-14.4-37.25-4.569-4.59-10.529-7.97-18.279-9.21-53.79-8.58-410.931-22.07-410.931-22.07s-85.86 2.16-75.42-37.72" stroke="#000" stroke-width="21.3692"/><path d="m736.45 188.63c-5.101 0-41.87-.89-136.69-3.11-.01 0-.02 0-.029 0" stroke="#000" stroke-width="21.3692"/><path d="m695.5 281.99h-81.03" stroke="#000" stroke-width="21.3692"/><path d="m736.45 281.99h-22.61" stroke="#000" stroke-width="21.3692"/><path d="m614.16 222.77c60.899 1.62 49.18 2.24 53.38 2.24 16.03 0 46.3 8.9 46.3 56.98h-18.34" stroke="#000" stroke-width="21.3692"/><path d="m683.03 386.74h-68.56" stroke="#000" stroke-width="21.3692"/><path d="m736.45 386.74h-24.78" stroke="#000" stroke-width="21.3692"/><path d="m614.47 327.04c60.891 1.62 46.7 2.71 50.9 2.71 16.03 0 46.3 8.91 46.3 56.99h-28.64" stroke="#000" stroke-width="21.3692"/><path d="m618.03 517.89h117.529" stroke="#000" stroke-width="21.3692"/><path d="m618.03 452h117.529" stroke="#000" stroke-width="21.3692"/><path d="m0 0h850.394v850.394h-850.394z"/></g></svg>