<svg enable-background="new 0 0 850.394 850.394" height="850.394" viewBox="0 0 850.394 850.394" width="850.394" xmlns="http://www.w3.org/2000/svg"><path d="m624.03 325.44v-84.06h.85l123.2-142.79 12 4.66v637.3l-16.22 4.63-119.68-138.73h-.15z" fill="#fff5b4"/><path d="m742.61 96.46 5.47 2.13-123.2 142.79h-.85v-1.42h-400.68v.7l-122.62-142.13 8.49-1.99 315.32-.08z" fill="#fff"/><path d="m624.18 606.45 119.68 138.73-21.72 6.21-298.45.08h-315.15l-4.11-7.09 118.92-137.84h238.01 118.34 44.33v-.09z" fill="#f6cc4b"/><path d="m624.03 325.44v281.01.09h-44.33v-4.87-223.94h-118.34v223.94 4.87h-238.01v-365.88-.7h400.68v1.42zm-246.05 156.2v-60.41-45.11h-59.21-59.12v105.52h59.12z" fill="#fff5b4"/><path d="m579.7 601.67v4.87h-118.34v-4.87-223.94h118.34z" fill="#9c5c25"/><path d="m223.35 240.66v365.88l-118.92 137.84-15.26-26.36v-616.77l11.56-2.72z" fill="#fff5b4"/><g fill="none"><path d="m624.03 606.45v.09h-44.33-118.34-238.01v-365.88-.7h400.68v1.42 84.06z" stroke="#231f20" stroke-width="19.3329"/><path d="m624.18 606.45 119.68 138.73 5.35 6.2-27.07.01-298.45.08h-315.15-10.23l6.12-7.09 118.92-137.84" stroke="#231f20" stroke-width="19.3329"/><path d="m224.05 241.47-.7-.81-122.62-142.13-1.72-1.99h10.21l315.32-.08h318.07 7.3l-1.83 2.13-123.2 142.79" stroke="#231f20" stroke-width="19.3329"/><path d="m89.17 88.11v13.14 616.77 41.89" stroke="#231f20" stroke-width="19.3329"/><path d="m760.08 87.93v15.32 637.3 19.18" stroke="#231f20" stroke-width="19.3329"/><path d="m377.98 421.23v60.41h-59.21-59.12v-105.52h59.12 59.21z" stroke="#231f20" stroke-width="19.3329"/><path d="m461.36 601.67v-223.94h118.34v223.94" stroke="#231f20" stroke-width="19.3329"/><path d="m318.77 377.73v43.5 54.78" stroke="#231f20" stroke-width="12.8886"/><path d="m318.77 421.23h59.21" stroke="#231f20" stroke-width="12.8886"/><path d="m519.4 325.44h104.63 93.04" stroke="#231f20" stroke-width="25.7772"/><path d="m652.45 267.63 65.88 58.03-65.99 58.01" stroke="#231f20" stroke-width="25.7772"/><path d="m720 752 2.14-.61 21.72-6.21 16.22-4.63 1.92-.55" stroke="#cb82b7"/><path d="m0 0h850.394v850.394h-850.394z"/></g></svg>