<svg enable-background="new 0 0 850.394 850.394" height="850.394" viewBox="0 0 850.394 850.394" width="850.394" xmlns="http://www.w3.org/2000/svg"><path d="m195.94 751.83h25.11v40.85h-25.11z" fill="#f6cc4b"/><path d="m625.7 751.19h25.1v41.279h-25.1z" fill="#f6cc4b"/><path d="m451.03 470.44h164.52v247.35h-164.52z" fill="#ffffc2"/><path d="m228.92 470.16h164.53v247.35h-164.53z" fill="#ffffc2"/><path d="m229.2 91.18h164.53v346.06h-164.53z" fill="#ffffc2"/><path d="m451.31 91.46h164.53v346.06h-164.53z" fill="#ffffc2"/><path d="m421.82 748.47v1.94h-222.27v-689.87h222.27v2.79zm-28.09-311.23v-346.06h-164.53v346.06zm-.28 280.27v-247.35h-164.53v247.35z" fill="#f6cc4b"/><path d="m647.34 60.54v689.87h-225.52v-1.94-685.14-2.79zm-31.5 376.98v-346.06h-164.53v346.06zm-.29 280.27v-247.35h-164.52v247.35z" fill="#f6cc4b"/><g fill="none"><path d="m647.34 60.54v689.87h-225.52-222.27v-689.87" stroke="#231f20" stroke-width="21"/><path d="m199.55 60.54h-43.53" stroke="#231f20" stroke-width="20.424"/><path d="m647.34 60.54h-225.52-222.27" stroke="#231f20" stroke-width="21"/><path d="m690.88 60.54h-43.54" stroke="#231f20" stroke-width="20.424"/><path d="m421.82 63.33v685.14" stroke="#231f20" stroke-width="6.808"/><path d="m229.2 91.18h164.53v346.06h-164.53z" stroke="#231f20" stroke-width="14"/><path d="m228.92 470.16h164.53v247.35h-164.53z" stroke="#231f20" stroke-width="14"/><path d="m451.31 91.46h164.53v346.06h-164.53z" stroke="#231f20" stroke-width="14"/><path d="m451.03 470.44h164.52v247.35h-164.52z" stroke="#231f20" stroke-width="14"/><path d="m195.94 751.83h25.11v40.85h-25.11z" stroke="#231f20" stroke-width="14"/><path d="m625.7 751.19h25.1v41.279h-25.1z" stroke="#231f20" stroke-width="14"/><path d="m409.15 386.33v57.73" stroke="#231f20" stroke-width="13.616"/><path d="m434.79 386.33v58.05" stroke="#231f20" stroke-width="13.616"/><path d="m0 0h850.394v850.394h-850.394z"/></g></svg>