<svg enable-background="new 0 0 850.394 850.394" height="850.394" viewBox="0 0 850.394 850.394" width="850.394" xmlns="http://www.w3.org/2000/svg"><path d="m687.04 644.96s11.59.89 15.15 15.15c3.569 14.27 9.81 68.649 9.81 68.649s11.54 31.061-285.03 38.29c-296.58-7.229-285.04-38.29-285.04-38.29s6.24-54.38 9.8-68.649c3.57-14.261 15.16-15.15 15.16-15.15l1.59.16-.34 3.35.53.05s9.39 4.341 33.17 9.471c8.47 1.84 18.77 3.77 31.12 5.63 17.3 2.62 38.63 5.12 64.6 7.05 30.46 2.28 67.31 3.771 111.56 3.79 5.81 0 11.77-.02 17.85-.07 6.08.051 12.021.07 17.83.07 44.25-.02 81.101-1.51 111.561-3.79 25.979-1.93 47.3-4.43 64.6-7.05 12.36-1.86 22.66-3.79 31.13-5.63 23.78-5.13 33.16-9.471 33.16-9.471l.54-.05-.34-3.35z" fill="#7a7878"/><path d="m439.7 435.45v4.31h-24.97v-3.42-31.69-59.99h24.97v60.42z" fill="#f6cc4b"/><path d="m426.03 111.23c106.35 0 192.569 86.22 192.569 192.57 0 83.38-52.989 154.38-127.119 181.16l-.07-.18-50.521-49.33h-1.189v-30.37h.35c49.83-6.84 88.21-49.57 88.21-101.28 0-56.46-45.77-102.23-102.229-102.23-56.46 0-102.23 45.77-102.23 102.23 0 50.73 36.96 92.83 85.42 100.85h5.51v31.69l-50.51 49.33-.18.51c-75.94-25.8-130.58-97.709-130.58-182.38-.001-106.35 86.219-192.57 192.569-192.57z" fill="#f6cc4b"/><path d="m439.7 439.76v-4.31h1.189l50.521 49.33.07.18v.01c-20.431 7.38-42.471 11.41-65.45 11.41-21.69 0-42.54-3.59-61.99-10.2l.18-.51 50.51-49.33v3.42z" fill="#faa41f"/><path d="m528.26 303.8c0 51.71-38.38 94.44-88.21 101.28h-.35v-60.42h-24.97v59.99h-5.51c-48.46-8.02-85.42-50.12-85.42-100.85 0-56.46 45.77-102.23 102.23-102.23s102.23 45.77 102.23 102.23z" fill="#faa41f"/><path d="m426.03 496.38c22.979 0 45.02-4.03 65.45-11.41v-.01c74.13-26.78 127.12-97.78 127.12-181.16 0-106.35-86.22-192.57-192.569-192.57-106.35 0-192.57 86.22-192.57 192.57 0 84.67 54.64 156.58 130.58 182.38 19.449 6.61 40.299 10.2 61.989 10.2zm242.99-27.21c4.78 1.9 7.32 3.89 7.32 5.92 0 2.76-4.6 5.41-13.09 7.88-6.89 2.011-16.34 3.891-27.97 5.63-9.11 1.36-19.561 2.62-31.16 3.771-18.69 1.87-40.39 3.43-64.311 4.63-30.06 1.5-63.64 2.42-99.199 2.61-4.45.02-8.94.029-13.45.029h-.391c-4.51 0-9-.01-13.45-.029-35.56-.19-69.14-1.11-99.2-2.61-23.92-1.2-45.61-2.76-64.31-4.63-11.6-1.15-22.05-2.41-31.16-3.771-14.93-2.229-26.28-4.71-33.22-7.369-5.12-1.961-7.84-4.021-7.84-6.141 0-2.03 2.53-4.02 7.32-5.92.84-28.32 5.31-128.52 28.34-213.81 50.821-188.11 213.071-172.95 213.071-172.95h1.279s162.261-15.16 213.08 172.95c23.031 85.29 27.501 185.49 28.341 213.81z" fill="#faa41f"/><path d="m685.45 645.12.34 3.35-.54.05s-9.38 4.341-33.16 9.471l-.71-3.221-16.05-165.83-.05-.341c11.63-1.739 21.08-3.619 27.97-5.63l5.96.62z" fill="#faa41f"/><path d="m218.65 488.6-.05.341-16.05 165.829-.71 3.221c-23.78-5.13-33.17-9.471-33.17-9.471l-.53-.05.34-3.35 16.24-161.53.71-2.359c6.94 2.659 18.29 5.139 33.22 7.369z" fill="#faa41f"/><path d="m314.12 497c30.06 1.5 63.64 2.42 99.2 2.61l-.03 4.71-4.16 166.21-.01 3.93c-44.25-.02-81.1-1.51-111.56-3.79l.38-5.21 16.05-165.82z" fill="#faa41f"/><path d="m249.81 492.37-.01.14-16.05 165.82-.79 5.29c-12.35-1.86-22.65-3.79-31.12-5.63l.71-3.221 16.05-165.829.05-.341c9.11 1.361 19.56 2.621 31.16 3.771z" fill="#faa41f"/><path d="m440.61 499.61c35.56-.19 69.14-1.11 99.199-2.61l.131 2.64 16.04 165.82.38 5.21c-30.46 2.28-67.311 3.771-111.561 3.79l-.01-3.93-4.15-166.21z" fill="#faa41f"/><path d="m604.13 492.51 16.04 165.82.79 5.29c-17.3 2.62-38.62 5.12-64.6 7.05l-.38-5.21-16.04-165.82-.13-2.64c23.921-1.2 45.62-2.76 64.311-4.63z" fill="#faa41f"/><path d="m426.97 674.39c-6.08.051-12.04.07-17.85.07l.01-3.93 4.16-166.21.03-4.71c4.45.02 8.94.029 13.45.029h.391c4.51 0 9-.01 13.45-.029l.029 4.71 4.15 166.21.01 3.93c-5.81 0-11.75-.02-17.83-.07z" fill="#faa41f"/><path d="m651.38 654.77.71 3.221c-8.47 1.84-18.77 3.77-31.13 5.63l-.79-5.29-16.04-165.82-.01-.14c11.6-1.15 22.05-2.41 31.16-3.771l.05.341z" fill="#faa41f"/><path d="m249.81 492.37c18.7 1.87 40.39 3.43 64.31 4.63l-.13 2.64-16.05 165.82-.38 5.21c-25.97-1.93-47.3-4.43-64.6-7.05l.79-5.29 16.05-165.82z" fill="#faa41f"/><g fill="none"><path d="m426.77 499.64c-4.51 0-9-.01-13.45-.029-35.56-.19-69.14-1.11-99.2-2.61-23.92-1.2-45.61-2.76-64.31-4.63-11.6-1.15-22.05-2.41-31.16-3.771-14.93-2.229-26.28-4.71-33.22-7.369-5.12-1.961-7.84-4.021-7.84-6.141 0-2.03 2.53-4.02 7.32-5.92.27-.11.55-.22.84-.33" stroke="#231f20" stroke-width="21"/><path d="m184.72 483.59-16.24 161.53-.34 3.35-.36 3.62" stroke="#231f20" stroke-width="21"/><path d="m168.67 648.52s9.39 4.341 33.17 9.471c8.47 1.84 18.77 3.77 31.12 5.63 17.3 2.62 38.63 5.12 64.6 7.05 30.46 2.28 67.31 3.771 111.56 3.79 5.81 0 11.77-.02 17.85-.07.38 0 .761-.01 1.141-.01" stroke="#231f20" stroke-width="21"/><path d="m218.6 488.94-16.05 165.83" stroke="#231f20" stroke-width="21"/><path d="m249.8 492.51-16.05 165.82" stroke="#231f20" stroke-width="21"/><path d="m282.79 496.07-16.05 165.83" stroke="#231f20" stroke-width="21"/><path d="m313.99 499.64-16.05 165.82" stroke="#231f20" stroke-width="21"/><path d="m348.92 499.03-11.29 166.22" stroke="#231f20" stroke-width="21"/><path d="m380.21 501.69-4.15 166.23" stroke="#231f20" stroke-width="21"/><path d="m413.29 504.32-4.16 166.21" stroke="#231f20" stroke-width="21"/><path d="m669.12 472.82c-.03-1.04-.061-2.261-.101-3.65-.84-28.32-5.31-128.52-28.34-213.81-50.819-188.11-213.079-172.95-213.079-172.95h-1.279s-162.25-15.16-213.07 172.95c-23.03 85.29-27.5 185.49-28.34 213.81-.04 1.39-.07 2.61-.1 3.65" stroke="#231f20" stroke-width="21"/><path d="m427.16 499.64c4.51 0 9-.01 13.45-.029 35.56-.19 69.14-1.11 99.199-2.61 23.921-1.2 45.62-2.76 64.311-4.63 11.6-1.15 22.05-2.41 31.16-3.771 11.63-1.739 21.08-3.619 27.97-5.63 8.49-2.47 13.09-5.12 13.09-7.88 0-2.03-2.54-4.02-7.32-5.92-.27-.11-.55-.22-.84-.33" stroke="#231f20" stroke-width="21"/><path d="m669.21 483.59 16.24 161.53.34 3.35.36 3.62" stroke="#231f20" stroke-width="21"/><path d="m426.97 767.05c-296.58-7.229-285.04-38.29-285.04-38.29s6.24-54.38 9.8-68.649c3.57-14.261 15.16-15.15 15.16-15.15" stroke="#231f20" stroke-width="21"/><path d="m426.97 767.05c-.68.021-1.36.03-2.04.05h4.07c-.68-.02-1.36-.03-2.03-.05z" stroke="#231f20" stroke-width="21"/><path d="m687.04 644.96s11.59.89 15.15 15.15c3.569 14.27 9.81 68.649 9.81 68.649s11.54 31.061-285.03 38.29" stroke="#231f20" stroke-width="21"/><path d="m685.25 648.52s-9.38 4.341-33.16 9.471c-8.47 1.84-18.77 3.77-31.13 5.63-17.3 2.62-38.62 5.12-64.6 7.05-30.46 2.28-67.311 3.771-111.561 3.79-5.81 0-11.75-.02-17.83-.07-.38 0-.76-.01-1.15-.01" stroke="#231f20" stroke-width="21"/><path d="m635.33 488.94 16.05 165.83" stroke="#231f20" stroke-width="21"/><path d="m604.13 492.51 16.04 165.82" stroke="#231f20" stroke-width="21"/><path d="m571.14 496.07 16.05 165.83" stroke="#231f20" stroke-width="21"/><path d="m539.94 499.64 16.04 165.82" stroke="#231f20" stroke-width="21"/><path d="m505.01 499.03 11.29 166.22" stroke="#231f20" stroke-width="21"/><path d="m473.71 501.69 4.16 166.23" stroke="#231f20" stroke-width="21"/><path d="m440.64 504.32 4.15 166.21" stroke="#231f20" stroke-width="21"/><path d="m364.04 486.18c-75.94-25.8-130.58-97.709-130.58-182.38 0-106.35 86.22-192.57 192.57-192.57s192.569 86.22 192.569 192.57c0 83.38-52.989 154.38-127.119 181.16v.01c-20.431 7.38-42.471 11.41-65.45 11.41-21.69 0-42.54-3.59-61.99-10.2z" stroke="#231f20" stroke-width="21"/><path d="m439.7 435.45v4.31h-24.97v-3.42-31.69-59.99h24.97v60.42z" stroke="#231f20" stroke-width="21"/><path d="m414.73 436.34-50.51 49.33" stroke="#231f20" stroke-width="21"/><path d="m440.89 435.45 50.52 49.33" stroke="#231f20" stroke-width="21"/><path d="m409.22 404.65c-48.46-8.02-85.42-50.12-85.42-100.85 0-56.46 45.77-102.23 102.23-102.23s102.229 45.77 102.229 102.23c0 51.71-38.38 94.44-88.21 101.28" stroke="#231f20" stroke-width="21"/><path d="m0 0h850.394v850.394h-850.394z"/></g></svg>