<svg enable-background="new 0 0 850.394 850.394" height="850.394" viewBox="0 0 850.394 850.394" width="850.394" xmlns="http://www.w3.org/2000/svg"><path d="m571.47 496.32v20.22c-2.279-29.96-39.43-40.45-83.42-40.45-43.06 0-77.5 9.88-81.05 38.47v-22.77-380.08c0-32.24 36.82-44.22 82.24-44.22 45.41 0 82.229 11.98 82.229 44.22v384.61z" fill="#a3d9ff"/><path d="m571.47 516.54v47.62l-150.54 126.63-8.21-9.31-13.82-15.69-7.37-8.36 60.49-52.569-45.02-34.491v-55.81c3.55-28.59 37.99-38.47 81.05-38.47 43.99 0 81.14 10.49 83.42 40.45z" fill="#ff001c"/><path d="m398.9 665.79 13.82 15.69-3.06 2.699-108.19 92.75c-4.45 3.69-11.04 3.08-14.73-1.35-1.62-1.95-2.42-4.33-2.42-6.69 0-3 1.28-5.979 3.77-8.05l108.19-92.74z" fill="#c8c8c8"/><g fill="none"><path d="m407 491.79v-380.08c0-32.24 36.82-44.22 82.24-44.22 45.41 0 82.229 11.98 82.229 44.22v384.61" stroke="#231f20" stroke-width="21"/><path d="m407 514.56c3.55-28.59 37.99-38.47 81.05-38.47 43.99 0 81.141 10.49 83.42 40.45.07.97.11 1.95.11 2.96" stroke="#231f20" stroke-width="21"/><path d="m407 491.79v22.77 55.81l45.02 34.49-60.49 52.57 7.37 8.36 13.82 15.69 8.21 9.31 150.54-126.63v-47.62-20.22" stroke="#231f20" stroke-width="21"/><path d="m409.66 684.18-108.19 92.75c-4.45 3.69-11.04 3.08-14.73-1.35-1.62-1.95-2.42-4.33-2.42-6.69 0-3 1.28-5.979 3.77-8.05l108.19-92.74" stroke="#231f20" stroke-width="14"/><path d="m0 0h850.394v850.394h-850.394z"/></g></svg>