<svg enable-background="new 0 0 850.394 850.394" height="850.394" viewBox="0 0 850.394 850.394" width="850.394" xmlns="http://www.w3.org/2000/svg"><path d="m141.76 445.44c14.88 0 26.94-12.061 26.94-26.931 0-14.9-12.06-26.96-26.94-26.96s-26.94 12.06-26.94 26.96c0 14.871 12.06 26.931 26.94 26.931zm71.08-98.77v217.16h-141.3v-217.16zm-37.47 199.75v-69.25h-20.99l-12.36 47.23-12.53-47.23h-20.94v69.25h12.94l.03-54.51 13.69 54.51h13.48l13.71-54.51.03 54.51z" fill="#fff5b4"/><path d="m283.62 445.44c14.88 0 26.94-12.061 26.94-26.931 0-14.9-12.06-26.96-26.94-26.96s-26.94 12.06-26.94 26.96c0 14.871 12.06 26.931 26.94 26.931zm70.51-98.77v217.16h-141.29v-217.16zm-42.69 142.18v-11.68h-55.07v11.68h20.57v57.57h14v-57.57z" fill="#fff5b4"/><path d="m424.91 445.44c14.88 0 26.939-12.061 26.939-26.931 0-14.9-12.06-26.96-26.939-26.96-14.88 0-26.94 12.06-26.94 26.96 0 14.871 12.06 26.931 26.94 26.931zm70.69-98.77v217.16h-141.47v-217.16zm-42.99 199.75 16.77-69.25h-14.08l-10.63 48.37-12.16-48.37h-16.66l-12.62 47.57-10.39-47.57h-14.39l16.46 69.25h15.26l13.75-51.78 13.78 51.78z" fill="#fff5b4"/><path d="m565.79 445.46c14.87 0 26.93-12.07 26.93-26.94 0-14.9-12.06-26.96-26.93-26.96-14.89 0-26.95 12.06-26.95 26.96 0 14.87 12.06 26.94 26.95 26.94zm71.11-98.79v217.16h-141.3v-217.16zm-18.41 199.75v-29.44c0-4.5-.23-7.83-.681-9.971-.46-2.14-1.31-4.09-2.56-5.859-1.25-1.761-3.1-3.21-5.57-4.341-2.46-1.14-5.22-1.71-8.29-1.71-5.97 0-11.1 2.53-15.399 7.591v-25.52h-13.25v69.25h13.25v-25.12c0-4.22.41-7.41 1.22-9.56.8-2.16 2.08-3.771 3.82-4.84 1.739-1.07 3.72-1.61 5.939-1.61 1.94 0 3.54.42 4.83 1.25 1.28.84 2.181 1.96 2.681 3.38.51 1.42.76 4.75.76 10.01v26.49zm-54.54-57.57v-11.68h-55.06v11.68h20.561v57.57h14v-57.57z" fill="#fff5b4"/><path d="m707.41 445.59c14.88 0 26.93-12.07 26.93-26.94 0-14.9-12.05-26.95-26.93-26.95-14.891 0-26.94 12.05-26.94 26.95 0 14.87 12.05 26.94 26.94 26.94zm70.79-98.92v217.16h-141.3v-217.16zm-45.87 142.18v-11.68h-47.56v69.25h14v-29.44h29v-11.69h-29v-16.44z" fill="#fff5b4"/><path d="m168.7 418.51c0 14.87-12.06 26.931-26.94 26.931s-26.94-12.061-26.94-26.931c0-14.9 12.06-26.96 26.94-26.96s26.94 12.06 26.94 26.96z" fill="#fbed24"/><path d="m310.56 418.51c0 14.87-12.06 26.931-26.94 26.931s-26.94-12.061-26.94-26.931c0-14.9 12.06-26.96 26.94-26.96s26.94 12.06 26.94 26.96z" fill="#fbed24"/><path d="m451.85 418.51c0 14.87-12.06 26.931-26.939 26.931-14.88 0-26.94-12.061-26.94-26.931 0-14.9 12.06-26.96 26.94-26.96 14.879 0 26.939 12.06 26.939 26.96z" fill="#fbed24"/><path d="m592.72 418.52c0 14.87-12.06 26.94-26.93 26.94-14.89 0-26.95-12.07-26.95-26.94 0-14.9 12.061-26.96 26.95-26.96 14.87 0 26.93 12.06 26.93 26.96z" fill="#fbed24"/><path d="m734.34 418.65c0 14.87-12.05 26.94-26.93 26.94-14.891 0-26.94-12.07-26.94-26.94 0-14.9 12.05-26.95 26.94-26.95 14.88 0 26.93 12.05 26.93 26.95z" fill="#fbed24"/><path d="m732.33 477.17v11.68h-33.56v16.44h29v11.69h-29v29.44h-14v-69.25z" fill="#231f20"/><path d="m618.49 516.98v29.439h-13.25v-26.49c0-5.26-.25-8.59-.76-10.01-.5-1.42-1.4-2.54-2.681-3.38-1.29-.83-2.89-1.25-4.83-1.25-2.22 0-4.2.54-5.939 1.61-1.74 1.069-3.021 2.68-3.82 4.84-.81 2.149-1.22 5.34-1.22 9.56v25.12h-13.25v-69.25h13.25v25.521c4.3-5.061 9.43-7.591 15.399-7.591 3.07 0 5.83.57 8.29 1.71 2.471 1.131 4.32 2.58 5.57 4.341 1.25 1.77 2.1 3.72 2.56 5.859.451 2.141.681 5.471.681 9.971z" fill="#231f20"/><path d="m563.95 477.17v11.68h-20.5v57.57h-14v-57.57h-20.56v-11.68z" fill="#231f20"/><path d="m469.38 477.17-16.77 69.25h-14.91l-13.78-51.78-13.75 51.78h-15.26l-16.46-69.25h14.39l10.39 47.57 12.62-47.57h16.66l12.16 48.37 10.63-48.37z" fill="#231f20"/><path d="m311.44 477.17v11.68h-20.5v57.57h-14v-57.57h-20.57v-11.68z" fill="#231f20"/><path d="m175.37 477.17v69.25h-12.94l-.03-54.51-13.71 54.51h-13.48l-13.69-54.51-.03 54.51h-12.94v-69.25h20.94l12.53 47.23 12.36-47.23z" fill="#231f20"/><g fill="none"><path d="m168.7 418.51c0 14.87-12.06 26.931-26.94 26.931s-26.94-12.061-26.94-26.931c0-14.9 12.06-26.96 26.94-26.96s26.94 12.06 26.94 26.96z" stroke="#231f20" stroke-width="6.6818"/><path d="m141.55 386.65v-20.5" stroke="#231f20" stroke-width="6.6818"/><path d="m125.2 390.63-11.32-17.07" stroke="#231f20" stroke-width="6.6818"/><path d="m113.46 403.24-18.57-8.68" stroke="#231f20" stroke-width="6.6818"/><path d="m158.48 390.31 11.32-17.08" stroke="#231f20" stroke-width="6.6818"/><path d="m170.22 402.91 18.57-8.68" stroke="#231f20" stroke-width="6.6818"/><path d="m157.8 446.58 11.33 17.08" stroke="#231f20" stroke-width="6.6818"/><path d="m169.54 433.99 18.58 8.67" stroke="#231f20" stroke-width="6.6818"/><path d="m124.52 446.92-11.32 17.08" stroke="#231f20" stroke-width="6.6818"/><path d="m112.79 434.32-18.57 8.68" stroke="#231f20" stroke-width="6.6818"/><path d="m109.65 418.81h-20.5" stroke="#231f20" stroke-width="6.6818"/><path d="m194.06 418.81h-20.51" stroke="#231f20" stroke-width="6.6818"/><path d="m141.55 470.42v-20.5" stroke="#231f20" stroke-width="6.6818"/><path d="m310.56 418.51c0 14.87-12.06 26.931-26.94 26.931s-26.94-12.061-26.94-26.931c0-14.9 12.06-26.96 26.94-26.96s26.94 12.06 26.94 26.96z" stroke="#231f20" stroke-width="6.6818"/><path d="m283.41 386.65v-20.5" stroke="#231f20" stroke-width="6.6818"/><path d="m267.06 390.63-11.32-17.07" stroke="#231f20" stroke-width="6.6818"/><path d="m255.32 403.24-18.57-8.68" stroke="#231f20" stroke-width="6.6818"/><path d="m300.34 390.31 11.32-17.08" stroke="#231f20" stroke-width="6.6818"/><path d="m312.08 402.91 18.57-8.68" stroke="#231f20" stroke-width="6.6818"/><path d="m299.66 446.58 11.33 17.08" stroke="#231f20" stroke-width="6.6818"/><path d="m311.41 433.99 18.57 8.67" stroke="#231f20" stroke-width="6.6818"/><path d="m266.38 446.92-11.32 17.08" stroke="#231f20" stroke-width="6.6818"/><path d="m254.65 434.32-18.57 8.68" stroke="#231f20" stroke-width="6.6818"/><path d="m251.51 418.81h-20.5" stroke="#231f20" stroke-width="6.6818"/><path d="m335.92 418.81h-20.5" stroke="#231f20" stroke-width="6.6818"/><path d="m283.41 470.42v-20.5" stroke="#231f20" stroke-width="6.6818"/><path d="m451.85 418.51c0 14.87-12.06 26.931-26.939 26.931-14.88 0-26.94-12.061-26.94-26.931 0-14.9 12.06-26.96 26.94-26.96 14.879 0 26.939 12.06 26.939 26.96z" stroke="#231f20" stroke-width="6.6818"/><path d="m424.71 386.65v-20.5" stroke="#231f20" stroke-width="6.6818"/><path d="m408.35 390.63-11.32-17.07" stroke="#231f20" stroke-width="6.6818"/><path d="m396.61 403.24-18.56-8.68" stroke="#231f20" stroke-width="6.6818"/><path d="m441.63 390.31 11.33-17.08" stroke="#231f20" stroke-width="6.6818"/><path d="m453.37 402.91 18.57-8.68" stroke="#231f20" stroke-width="6.6818"/><path d="m440.95 446.58 11.33 17.08" stroke="#231f20" stroke-width="6.6818"/><path d="m452.7 433.99 18.57 8.67" stroke="#231f20" stroke-width="6.6818"/><path d="m407.68 446.92-11.32 17.08" stroke="#231f20" stroke-width="6.6818"/><path d="m395.94 434.32-18.57 8.68" stroke="#231f20" stroke-width="6.6818"/><path d="m392.8 418.81h-20.5" stroke="#231f20" stroke-width="6.6818"/><path d="m477.21 418.81h-20.5" stroke="#231f20" stroke-width="6.6818"/><path d="m424.71 470.42v-20.5" stroke="#231f20" stroke-width="6.6818"/><path d="m592.72 418.52c0 14.87-12.06 26.94-26.93 26.94-14.89 0-26.95-12.07-26.95-26.94 0-14.9 12.061-26.96 26.95-26.96 14.87 0 26.93 12.06 26.93 26.96z" stroke="#231f20" stroke-width="6.6818"/><path d="m565.58 386.66v-20.5" stroke="#231f20" stroke-width="6.6818"/><path d="m549.23 390.65-11.33-17.08" stroke="#231f20" stroke-width="6.6818"/><path d="m537.49 403.25-18.57-8.68" stroke="#231f20" stroke-width="6.6818"/><path d="m582.5 390.33 11.33-17.09" stroke="#231f20" stroke-width="6.6818"/><path d="m594.24 402.92 18.57-8.68" stroke="#231f20" stroke-width="6.6818"/><path d="m581.83 446.59 11.32 17.08" stroke="#231f20" stroke-width="6.6818"/><path d="m593.57 434 18.57 8.68" stroke="#231f20" stroke-width="6.6818"/><path d="m548.55 446.93-11.32 17.08" stroke="#231f20" stroke-width="6.6818"/><path d="m536.81 434.33-18.57 8.68" stroke="#231f20" stroke-width="6.6818"/><path d="m533.68 418.83h-20.51" stroke="#231f20" stroke-width="6.6818"/><path d="m618.08 418.83h-20.5" stroke="#231f20" stroke-width="6.6818"/><path d="m565.58 470.43v-20.5" stroke="#231f20" stroke-width="6.6818"/><path d="m734.34 418.65c0 14.87-12.05 26.94-26.93 26.94-14.891 0-26.94-12.07-26.94-26.94 0-14.9 12.05-26.95 26.94-26.95 14.88 0 26.93 12.05 26.93 26.95z" stroke="#231f20" stroke-width="6.6818"/><path d="m707.2 386.79v-20.5" stroke="#231f20" stroke-width="6.6818"/><path d="m690.85 390.78-11.32-17.08" stroke="#231f20" stroke-width="6.6818"/><path d="m679.11 403.38-18.57-8.68" stroke="#231f20" stroke-width="6.6818"/><path d="m724.13 390.46 11.32-17.09" stroke="#231f20" stroke-width="6.6818"/><path d="m735.87 403.05 18.57-8.68" stroke="#231f20" stroke-width="6.6818"/><path d="m723.45 446.72 11.33 17.09" stroke="#231f20" stroke-width="6.6818"/><path d="m735.19 434.13 18.57 8.68" stroke="#231f20" stroke-width="6.6818"/><path d="m690.18 447.06-11.33 17.08" stroke="#231f20" stroke-width="6.6818"/><path d="m678.44 434.46-18.57 8.68" stroke="#231f20" stroke-width="6.6818"/><path d="m675.3 418.96h-20.5" stroke="#231f20" stroke-width="6.6818"/><path d="m759.7 418.96h-20.5" stroke="#231f20" stroke-width="6.6818"/><path d="m707.2 470.57v-20.51" stroke="#231f20" stroke-width="6.6818"/><path d="m212.84 563.83h-141.3v-217.16h141.3 141.29 141.47 141.3 141.3v217.16h-141.3-141.3-141.47z" stroke="#231f20" stroke-width="20.0454"/><path d="m636.9 346.67v217.16" stroke="#231f20" stroke-width="20.0454"/><path d="m495.6 346.67v217.16" stroke="#231f20" stroke-width="20.0454"/><path d="m354.13 346.67v217.16" stroke="#231f20" stroke-width="20.0454"/><path d="m212.84 346.67v217.16" stroke="#231f20" stroke-width="20.0454"/><path d="m0 0h850.394v850.394h-850.394z"/></g></svg>