<svg enable-background="new 0 0 850.89 850.89" height="850.89" viewBox="0 0 850.89 850.89" width="850.89" xmlns="http://www.w3.org/2000/svg"><path d="m716.25 378.15c5.79 0 10.47 4.68 10.47 10.47s-4.68 10.47-10.47 10.47v-10.47h-10.47c0-5.79 4.69-10.47 10.47-10.47z" fill="#5668af"/><path d="m716.25 400.54c5.79 0 10.47 4.69 10.47 10.48 0 5.78-4.68 10.47-10.47 10.47z" fill="#5668af"/><path d="m716.25 422.94c5.79 0 10.47 4.69 10.47 10.48 0 5.78-4.68 10.47-10.47 10.47z" fill="#5668af"/><path d="m716.25 445.34c5.79 0 10.47 4.69 10.47 10.47 0 5.79-4.68 10.48-10.47 10.48z" fill="#5668af"/><path d="m707.72 484.28c-1.22-1.71-1.939-3.8-1.939-6.07h10.47v-10.47c5.79 0 10.47 4.689 10.47 10.47 0 5.79-4.68 10.48-10.47 10.48-3.531 0-6.641-1.74-8.531-4.41z" fill="#5668af"/><path d="m716.25 467.74v10.47h-10.47c0-5.78 4.68-10.47 10.47-10.47z" fill="#5668af"/><path d="m716.25 445.34v20.95c-5.78 0-10.47-4.69-10.47-10.48 0-5.78 4.69-10.47 10.47-10.47z" fill="#5668af"/><path d="m716.25 422.94v20.95c-5.78 0-10.47-4.689-10.47-10.47 0-5.79 4.69-10.48 10.47-10.48z" fill="#5668af"/><path d="m716.25 400.54v20.95c-5.78 0-10.47-4.69-10.47-10.47 0-5.79 4.69-10.48 10.47-10.48z" fill="#5668af"/><path d="m716.25 388.62v10.47c-5.78 0-10.47-4.68-10.47-10.47z" fill="#5668af"/><path d="m707.72 484.28-5.38.08c1.25-1.721 1.99-3.851 1.99-6.15h1.45c0 2.27.72 4.36 1.94 6.07z" fill="#fff"/><path d="m704.33 388.62h-20.95c0-5.79 4.69-10.47 10.47-10.47 5.79 0 10.48 4.68 10.48 10.47z" fill="#5668af"/><path d="m683.38 388.62h20.95c0 5.78-4.69 10.47-10.48 10.47-5.78 0-10.47-4.69-10.47-10.47z" fill="#5668af"/><path d="m704.33 478.21h-20.95c0-5.78 4.69-10.47 10.47-10.47 5.79 0 10.48 4.69 10.48 10.47z" fill="#5668af"/><path d="m683.38 478.21h20.95c0 2.3-.74 4.43-1.99 6.15l-16.8.229c-1.35-1.759-2.16-3.969-2.16-6.379z" fill="#5668af"/><path d="m685.54 484.59 16.8-.229c-1.91 2.63-5 4.33-8.49 4.33-3.38-.001-6.39-1.611-8.31-4.101z" fill="#5668af"/><path d="m699.15 605.33v40.18h-24.23v-.52h-48.45v.52h-480.83v-40.18z" fill="#fbee34"/><path d="m685.54 484.59-5.84.08c1.399-1.77 2.229-4.02 2.229-6.46h1.45c.001 2.41.811 4.62 2.161 6.38z" fill="#fff"/><path d="m681.93 388.62h-20.95c0-5.79 4.689-10.47 10.47-10.47 5.79 0 10.48 4.68 10.48 10.47z" fill="#5668af"/><path d="m660.98 388.62h20.949c0 5.78-4.689 10.47-10.479 10.47-5.78 0-10.47-4.69-10.47-10.47z" fill="#5668af"/><path d="m681.93 478.21h-20.95c0-5.78 4.689-10.47 10.47-10.47 5.79 0 10.48 4.69 10.48 10.47z" fill="#5668af"/><path d="m660.98 478.21h20.949c0 2.44-.83 4.69-2.229 6.46l-16.32.22c-1.5-1.81-2.4-4.14-2.4-6.68z" fill="#5668af"/><path d="m663.38 484.89 16.32-.22c-1.91 2.45-4.9 4.021-8.25 4.021-3.25-.001-6.15-1.481-8.07-3.801z" fill="#5668af"/><path d="m626.47 645.51h48.45v44.21h-48.45z" fill="#fbee34"/><path d="m626.47 644.99h48.45v.52h-48.45z" fill="#fff"/><path d="m663.38 484.89-6.32.091c1.54-1.82 2.471-4.181 2.471-6.771h1.45c-.001 2.54.899 4.87 2.399 6.68z" fill="#fff"/><path d="m659.53 388.62h-20.95c0-5.79 4.689-10.47 10.47-10.47 5.79 0 10.48 4.68 10.48 10.47z" fill="#5668af"/><path d="m638.58 388.62h20.95c0 5.78-4.69 10.47-10.48 10.47-5.78 0-10.47-4.69-10.47-10.47z" fill="#5668af"/><path d="m659.53 478.21h-20.95c0-5.78 4.689-10.47 10.47-10.47 5.79 0 10.48 4.69 10.48 10.47z" fill="#5668af"/><path d="m638.58 478.21h20.95c0 2.59-.931 4.95-2.471 6.771l-15.819.21c-1.66-1.851-2.66-4.291-2.66-6.981z" fill="#5668af"/><path d="m641.24 485.19 15.819-.21c-1.93 2.27-4.8 3.71-8.01 3.71-3.099 0-5.889-1.35-7.809-3.5z" fill="#5668af"/><path d="m641.24 485.19-6.86.1c1.71-1.86 2.75-4.35 2.75-7.08h1.45c0 2.69 1 5.13 2.66 6.98z" fill="#fff"/><path d="m637.13 388.62h-10.47v10.47c-5.79 0-10.48-4.69-10.48-10.47 0-5.79 4.69-10.47 10.48-10.47 5.78 0 10.47 4.68 10.47 10.47z" fill="#5668af"/><path d="m626.66 388.62h10.47c0 5.78-4.689 10.47-10.47 10.47z" fill="#5668af"/><path d="m637.13 478.21h-10.47v-10.47c5.78 0 10.47 4.68 10.47 10.47z" fill="#5668af"/><path d="m626.66 478.21h10.47c0 2.73-1.04 5.22-2.75 7.08l-15.25.21c-1.83-1.88-2.95-4.45-2.95-7.29 0-5.79 4.69-10.47 10.48-10.47z" fill="#5668af"/><path d="m626.66 400.54c5.78 0 10.47 4.69 10.47 10.48 0 5.78-4.689 10.47-10.47 10.47z" fill="#5668af"/><path d="m626.66 422.94c5.78 0 10.47 4.69 10.47 10.48 0 5.78-4.689 10.47-10.47 10.47z" fill="#5668af"/><path d="m626.66 445.34c5.78 0 10.47 4.69 10.47 10.47 0 5.79-4.689 10.48-10.47 10.48z" fill="#5668af"/><path d="m634.38 485.29c-1.91 2.09-4.66 3.4-7.72 3.4-2.96 0-5.62-1.221-7.53-3.19z" fill="#5668af"/><path d="m626.66 445.34v20.95c-5.79 0-10.48-4.69-10.48-10.48 0-5.78 4.69-10.47 10.48-10.47z" fill="#5668af"/><path d="m626.66 422.94v20.95c-5.79 0-10.48-4.689-10.48-10.47 0-5.79 4.69-10.48 10.48-10.48z" fill="#5668af"/><path d="m626.66 400.54v20.95c-5.79 0-10.48-4.69-10.48-10.47 0-5.79 4.69-10.48 10.48-10.48z" fill="#5668af"/><path d="m428.92 108.25c21.1 0 38.2 17.1 38.2 38.21 0 21.1-17.101 38.2-38.2 38.2-21.1 0-38.21-17.1-38.21-38.2 0-21.11 17.11-38.21 38.21-38.21zm15.84 38.21c0-9.78-7.93-17.71-17.71-17.71-9.77 0-17.7 7.93-17.7 17.71 0 9.77 7.93 17.7 17.7 17.7 9.78 0 17.71-7.93 17.71-17.7z" fill="#fbee34"/><path d="m412.14 188.39h31.69v411.87h-31.69z" fill="#fbee34"/><path d="m427.05 128.75c9.78 0 17.71 7.93 17.71 17.71 0 9.77-7.93 17.7-17.71 17.7-9.77 0-17.7-7.93-17.7-17.7 0-9.78 7.93-17.71 17.7-17.71z" fill="#231f20"/><path d="m236.37 398.25v80h-80v-80zm-16.93 28.58h-2.81l-.11 2.59h-.07c-.79-1.439-2.41-2.99-5.44-2.99-4.03 0-7.88 3.311-7.88 9.221 0 4.859 3.1 8.529 7.42 8.529 2.7 0 4.6-1.3 5.54-2.92h.07v1.91c0 4.43-2.37 6.12-5.61 6.12-2.16 0-3.96-.65-5.12-1.4l-.79 2.44c1.41.939 3.71 1.439 5.8 1.439 2.19 0 4.64-.539 6.37-2.079 1.66-1.551 2.48-3.96 2.48-8v-10.11c0-2.13.04-3.53.15-4.75zm-17.32 17.42-9.47-13.97 8.79-10.29h-3.89l-7.42 9.1c-.61.8-1.26 1.66-1.9 2.601h-.11v-11.7h-3.13v24.26h3.13v-9.251l2.34-2.67 7.95 11.92z" fill="#c8c8c8"/><path d="m216.63 426.83h2.81c-.11 1.22-.15 2.62-.15 4.75v10.11c0 4.04-.82 6.449-2.48 8-1.73 1.54-4.18 2.079-6.37 2.079-2.09 0-4.39-.5-5.8-1.439l.79-2.44c1.16.75 2.96 1.4 5.12 1.4 3.24 0 5.61-1.69 5.61-6.12v-1.91h-.07c-.94 1.62-2.84 2.92-5.54 2.92-4.32 0-7.42-3.67-7.42-8.529 0-5.91 3.85-9.221 7.88-9.221 3.03 0 4.65 1.551 5.44 2.99h.07zm-.5 9.97v-3.13c0-.51-.04-.979-.18-1.41-.58-1.87-2.09-3.38-4.43-3.38-3.03 0-5.19 2.55-5.19 6.62 0 3.39 1.77 6.27 5.15 6.27 1.98 0 3.75-1.229 4.39-3.279.18-.501.26-1.121.26-1.691z"/><path d="m168 646.86h48.46v44.72h-48.46z" fill="#fbee34"/><path d="m216.13 433.67v3.13c0 .57-.08 1.19-.26 1.69-.64 2.05-2.41 3.279-4.39 3.279-3.38 0-5.15-2.88-5.15-6.27 0-4.07 2.16-6.62 5.19-6.62 2.34 0 3.85 1.51 4.43 3.38.14.431.18.901.18 1.411z" fill="#c8c8c8"/><path d="m192.65 430.28 9.47 13.97h-3.71l-7.95-11.92-2.34 2.67v9.25h-3.13v-24.26h3.13v11.7h.11c.64-.94 1.29-1.801 1.9-2.601l7.42-9.1h3.89z"/><g fill="none"><path d="m626.47 645.51h-480.83v-40.18h553.51v40.18h-24.23" stroke="#231f20" stroke-width="13.0458"/><path d="m168 646.86h48.46v44.72h-48.46z" stroke="#231f20" stroke-width="13.0458"/><path d="m674.92 645.51v44.21h-48.45v-44.21-.52h48.45z" stroke="#231f20" stroke-width="13.0458"/><path d="m412.14 188.39h31.69v411.87h-31.69z" stroke="#231f20" stroke-width="13.0458"/><path d="m444.76 146.46c0 9.77-7.93 17.7-17.71 17.7-9.77 0-17.7-7.93-17.7-17.7 0-9.78 7.93-17.71 17.7-17.71 9.78 0 17.71 7.93 17.71 17.71z" stroke="#231f20" stroke-width="13.0458"/><path d="m702.34 484.36 5.38-.08" stroke="#231f20" stroke-width="13.0458"/><path d="m679.7 484.67 5.84-.08" stroke="#231f20" stroke-width="13.0458"/><path d="m657.06 484.98 6.32-.09" stroke="#231f20" stroke-width="13.0458"/><path d="m634.38 485.29 6.86-.1" stroke="#231f20" stroke-width="13.0458"/><path d="m468.05 149.25h139.78v336.4l11.3-.15" stroke="#231f20" stroke-width="13.0458"/><path d="m156.82 486.58 102.5.93v-336.4l130.93 1.14" stroke="#231f20" stroke-width="13.0458"/><path d="m467.12 146.46c0 21.1-17.101 38.2-38.2 38.2-21.1 0-38.21-17.1-38.21-38.2 0-21.11 17.11-38.21 38.21-38.21s38.2 17.1 38.2 38.21z" stroke="#231f20" stroke-width="15"/><path d="m156.37 398.25h80v80h-80z" stroke="#231f20" stroke-width="14"/><path d="m222.43 368.31c.61 13.85-10.11 25.57-23.96 26.19-13.85.61-25.58-10.12-26.19-23.96-.62-13.85 10.11-25.58 23.96-26.19 13.85-.62 25.58 10.11 26.19 23.96z" stroke="#231f20" stroke-width="14"/><path d="m.25.25h850.394v850.394h-850.394z"/><path d="m607.83 485.65 118.42-1.4" stroke="#231f20" stroke-width="14"/></g></svg>