<svg enable-background="new 0 0 850.394 850.394" height="850.394" viewBox="0 0 850.394 850.394" width="850.394" xmlns="http://www.w3.org/2000/svg"><path d="m369.63 567.01c.64 1.851.99 3.82.99 5.87 0 10.75-9.6 19.49-21.43 19.49-7.64 0-14.35-3.65-18.13-9.13-.37-.521-.71-1.061-1.01-1.61-1.46-2.63-2.28-5.6-2.28-8.75 0-.99.08-1.97.24-2.92.27-1.67.78-3.27 1.49-4.77 3.29-6.94 10.86-11.79 19.69-11.79 8.07 0 15.11 4.06 18.76 10.06.68 1.12 1.25 2.31 1.68 3.55z" fill="#797878"/><path d="m651.49 662.22c6.649 9.351 10.569 20.771 10.569 33.12 0 31.54-25.56 57.101-57.1 57.101-31.53 0-57.1-25.561-57.1-57.101s25.569-57.1 57.1-57.1c19.191 0 36.171 9.47 46.531 23.98z" fill="#797878"/><path d="m367.95 739.28c31.99-3.48 61.31-15.761 85.41-34.34 10.34-7.96 19.71-17.08 27.92-27.16 9.279-11.391 17.09-24 23.12-37.55 6.64-14.9 11.14-30.94 13.119-47.74.771-6.431 1.16-12.98 1.16-19.61s-.39-13.17-1.16-19.6c-1.819-15.5-5.789-30.36-11.619-44.271-5.86-14.04-13.61-27.109-22.931-38.92-8.05-10.22-17.29-19.49-27.489-27.609-24.49-19.5-54.59-32.411-87.53-35.99-6.15-.67-12.41-1.01-18.74-1.01-6.84 0-13.59.4-20.22 1.18-31.61 3.71-60.54 16.01-84.34 34.46-10.32 8-19.67 17.149-27.85 27.25-9.44 11.649-17.34 24.58-23.38 38.47-6.34 14.57-10.65 30.21-12.56 46.561-.75 6.39-1.14 12.89-1.14 19.479s.39 13.101 1.14 19.49c2.06 17.61 6.9 34.38 14.06 49.89 6.21 13.45 14.17 25.95 23.59 37.21 8.34 9.971 17.83 18.971 28.27 26.8 23.24 17.44 51.18 29.091 81.62 32.771 6.82.83 13.76 1.25 20.81 1.25 6.33-.001 12.59-.341 18.74-1.011zm97.68-339.46c34.7 22.46 62.311 54.72 78.811 92.8 10.939 25.229 16.989 53.01 16.989 82.189 0 115.46-94.76 209.091-211.66 209.091-116.91 0-211.67-93.631-211.67-209.091 0-60.43 25.96-114.88 67.47-153.05 37.8-34.75 88.49-56.01 144.2-56.01 42.77.001 82.57 12.531 115.86 34.071z" fill="#797878"/><g fill="none"><path d="m544.44 492.62c10.939 25.229 16.989 53.01 16.989 82.189 0 115.46-94.76 209.091-211.66 209.091-116.91 0-211.67-93.631-211.67-209.091 0-60.43 25.96-114.88 67.47-153.05 37.8-34.75 88.49-56.01 144.2-56.01 42.77 0 82.57 12.53 115.86 34.07 34.701 22.461 62.311 54.721 78.811 92.801z" stroke="#231f20" stroke-width="28"/><path d="m517.52 553.28c.771 6.43 1.16 12.97 1.16 19.6s-.39 13.18-1.16 19.61c-1.979 16.8-6.479 32.84-13.119 47.74-6.03 13.55-13.841 26.159-23.12 37.55-8.21 10.08-17.58 19.2-27.92 27.16-24.101 18.579-53.42 30.859-85.41 34.34-6.15.67-12.41 1.01-18.74 1.01-7.05 0-13.99-.42-20.81-1.25-30.44-3.68-58.38-15.33-81.62-32.771-10.44-7.829-19.93-16.829-28.27-26.8-9.42-11.26-17.38-23.76-23.59-37.21-7.16-15.51-12-32.279-14.06-49.89-.75-6.39-1.14-12.9-1.14-19.49s.39-13.09 1.14-19.479c1.91-16.351 6.22-31.99 12.56-46.561 6.04-13.89 13.94-26.82 23.38-38.47 8.18-10.101 17.53-19.25 27.85-27.25 23.8-18.45 52.73-30.75 84.34-34.46 6.63-.78 13.38-1.18 20.22-1.18 6.33 0 12.59.34 18.74 1.01 32.94 3.58 63.04 16.49 87.53 35.99 10.199 8.119 19.439 17.39 27.489 27.609 9.32 11.811 17.07 24.88 22.931 38.92 5.829 13.912 9.799 28.772 11.619 44.272z" stroke="#231f20" stroke-width="14"/><path d="m179.08 553.4h1.78 120.96.25 26.92 15.58 4.62 7.73 11.03 31.71 1.94 114.92" stroke="#231f20" stroke-width="7"/><path d="m179.08 592.37h1.78 124.74 4.4 18.99 11.78 8.42 11.49 7.27 24 3.94 120.63" stroke="#231f20" stroke-width="7"/><path d="m328.99 562.82v-9.42-27.93-118.81-1.06" stroke="#231f20" stroke-width="7"/><path d="m328.99 734.24v-110.18-31.69-6.18" stroke="#231f20" stroke-width="7"/><path d="m367.95 564.86v-1.4-10.06-23.38-123.53-.89" stroke="#231f20" stroke-width="7"/><path d="m367.95 743.03v-3.75-119.73-27.18-7.26-.89" stroke="#231f20" stroke-width="7"/><path d="m482.95 470.11-83.29 83.29-1.44 1.44-19.93 19.93-8.27 8.26-2.07 2.08-7.27 7.26-9.95 9.96-21.74 21.73-82.2 82.2" stroke="#231f20" stroke-width="7"/><path d="m328.99 568.98-.98.98-4.81 4.81-17.6 17.6-3.36 3.36-83.73 83.74" stroke="#231f20" stroke-width="7"/><path d="m455.48 442.48-87.53 87.54-17.21 17.2-6.17 6.18" stroke="#231f20" stroke-width="7"/><path d="m340.77 592.37 9.96 9.96 17.22 17.22 85.38 85.36" stroke="#231f20" stroke-width="7"/><path d="m216.82 468.39 84.82 84.82.18.19 21.38 21.37 6.85 6.86.03.03" stroke="#231f20" stroke-width="7"/><path d="m371.49 567.97 6.8 6.8 17.6 17.6 2.91 2.91 82.47 82.49" stroke="#231f20" stroke-width="7"/><path d="m244.68 441.16 84.31 84.31 21.75 21.75 6.18 6.18" stroke="#231f20" stroke-width="7"/><path d="m370.01 583.03h.01l21.93 9.34 6.85 2.91 105.58 44.94" stroke="#231f20" stroke-width="7"/><path d="m193.43 506.84 108.21 46.37.43.19 26.95 11.55" stroke="#231f20" stroke-width="7"/><path d="m331.06 583.24-21.06 9.13-7.76 3.36-107.31 46.52" stroke="#231f20" stroke-width="7"/><path d="m505.88 509.02-104.28 44.38-3.38 1.44-28.59 12.17h-.01" stroke="#231f20" stroke-width="7"/><path d="m369.63 567.01c.64 1.851.99 3.82.99 5.87 0 10.75-9.6 19.49-21.43 19.49-7.64 0-14.35-3.65-18.13-9.13-.37-.521-.71-1.061-1.01-1.61-1.46-2.63-2.28-5.6-2.28-8.75 0-.99.08-1.97.24-2.92.27-1.67.78-3.27 1.49-4.77 3.29-6.94 10.86-11.79 19.69-11.79 8.07 0 15.11 4.06 18.76 10.06.68 1.12 1.25 2.31 1.68 3.55z" stroke="#231f20" stroke-width="8.7848"/><path d="m202.09 272.51v-191.07s5.49-36.23-101.02 21.97" stroke="#231f20" stroke-linecap="round" stroke-linejoin="round" stroke-width="35"/><path d="m202.09 419.39v-129.31" stroke="#231f20" stroke-linecap="round" stroke-linejoin="round" stroke-width="35"/><path d="m544.44 492.62h83.71l39.3 158.24 24.39 98.23h61.49" stroke="#231f20" stroke-width="28"/><path d="m202.09 272.51h307.47v17.57h-43.93-263.54z" stroke="#231f20" stroke-width="28"/><path d="m465.63 290.08v109.74.05" stroke="#231f20" stroke-width="28"/><path d="m662.06 695.34c0 31.54-25.56 57.101-57.1 57.101-31.53 0-57.1-25.561-57.1-57.101s25.569-57.1 57.1-57.1c19.19 0 36.17 9.47 46.53 23.979 6.65 9.351 10.57 20.771 10.57 33.121z" stroke="#231f20" stroke-width="28"/><path d="m604.96 695.34 46.53-33.12 15.96-11.36" stroke="#231f20" stroke-linecap="round" stroke-linejoin="round" stroke-width="28"/><path d="m0 0h850.394v850.394h-850.394z"/></g></svg>