<svg enable-background="new 0 0 850.394 850.394" height="850.394" viewBox="0 0 850.394 850.394" width="850.394" xmlns="http://www.w3.org/2000/svg"><path d="m634.72 670.48c5.98 8.55 9.49 18.97 9.49 30.199 0 29.141-23.62 52.761-52.76 52.761-29.141 0-52.76-23.62-52.76-52.761 0-29.14 23.619-52.76 52.76-52.76 17.91.001 33.73 8.921 43.27 22.561z" fill="#797878"/><path d="m372.46 741.28c29.56-3.21 56.64-14.561 78.9-31.721 9.55-7.35 18.22-15.779 25.81-25.1 8.58-10.52 15.79-22.18 21.36-34.7 6.14-13.77 10.29-28.59 12.12-44.109.71-5.94 1.069-11.99 1.069-18.12s-.359-12.17-1.06-18.11c-1.69-14.32-5.36-28.05-10.74-40.9-5.42-12.97-12.58-25.05-21.18-35.96-7.45-9.439-15.98-18.01-25.41-25.52-22.63-18.021-50.43-29.94-80.87-33.25-5.69-.62-11.47-.94-17.33-.94-6.32 0-12.56.37-18.68 1.091-29.2 3.43-55.93 14.79-77.93 31.84-9.53 7.39-18.18 15.85-25.74 25.189-8.72 10.761-16.01 22.7-21.59 35.53-5.87 13.46-9.85 27.91-11.62 43.03-.69 5.899-1.05 11.91-1.05 18s.36 12.1 1.05 18.01c1.91 16.27 6.38 31.77 12.99 46.1 5.74 12.431 13.1 23.98 21.81 34.38 7.7 9.211 16.47 17.53 26.12 24.761 21.48 16.12 47.31 26.89 75.44 30.29 6.29.76 12.7 1.149 19.2 1.149 5.861 0 11.641-.32 17.331-.94zm163.07-227.91c10.109 23.31 15.7 48.99 15.7 75.95 0 106.68-87.56 193.19-195.58 193.19s-195.58-86.51-195.58-193.19c0-55.84 23.99-106.15 62.34-141.431 34.93-32.11 81.76-51.75 133.24-51.75 50.11 0 95.831 18.61 130.43 49.22 21.13 18.711 38.13 41.871 49.45 68.011z" fill="#797878"/><path d="m374 582.1c.6 1.71.92 3.53.92 5.431 0 9.939-8.87 18.01-19.8 18.01-7.06 0-13.26-3.37-16.76-8.44-.33-.47-.63-.949-.9-1.46 0 0-.01 0-.01-.01-1.36-2.43-2.12-5.18-2.12-8.1 0-.92.08-1.82.22-2.7.26-1.54.72-3.01 1.38-4.4 3.03-6.41 10.03-10.899 18.19-10.899 7.46 0 13.97 3.75 17.34 9.31.63 1.028 1.14 2.118 1.54 3.258z" fill="#c8c8c8"/><path d="m537.18 147.39v-82.94h185.38v170.46h-185.38z" fill="#c8c8c8"/><g fill="none"><path d="m535.53 513.37c10.109 23.31 15.7 48.99 15.7 75.95 0 106.68-87.56 193.19-195.58 193.19s-195.58-86.51-195.58-193.19c0-55.84 23.99-106.15 62.34-141.431 34.93-32.11 81.76-51.75 133.24-51.75 50.11 0 95.831 18.61 130.43 49.22 21.13 18.711 38.13 41.871 49.45 68.011z" stroke="#231f20" stroke-width="21"/><path d="m510.66 569.42c.7 5.94 1.06 11.98 1.06 18.11s-.359 12.18-1.069 18.12c-1.83 15.52-5.98 30.34-12.12 44.109-5.57 12.521-12.78 24.181-21.36 34.7-7.59 9.32-16.26 17.75-25.81 25.1-22.261 17.16-49.34 28.511-78.9 31.721-5.69.62-11.47.939-17.33.939-6.5 0-12.91-.39-19.2-1.149-28.13-3.4-53.96-14.17-75.44-30.29-9.65-7.23-18.42-15.55-26.12-24.761-8.71-10.399-16.07-21.949-21.81-34.38-6.61-14.33-11.08-29.83-12.99-46.1-.69-5.91-1.05-11.92-1.05-18.01s.36-12.101 1.05-18c1.77-15.12 5.75-29.57 11.62-43.03 5.58-12.83 12.87-24.77 21.59-35.53 7.56-9.34 16.21-17.8 25.74-25.189 22-17.05 48.73-28.41 77.93-31.84 6.12-.721 12.36-1.091 18.68-1.091 5.86 0 11.64.32 17.33.94 30.44 3.31 58.24 15.229 80.87 33.25 9.43 7.51 17.96 16.08 25.41 25.52 8.6 10.91 15.76 22.99 21.18 35.96 5.379 12.851 9.049 26.581 10.739 40.901z" stroke="#231f20" stroke-width="14"/><path d="m197.94 569.53h1.63 111.78.24 24.86 14.4 4.27 7.14 10.2 29.29 1.78 106.2" stroke="#231f20" stroke-width="7"/><path d="m197.94 605.54h1.63 115.27 4.06 17.55 10.89 7.78 10.62 6.72 22.18 3.63 111.46" stroke="#231f20" stroke-width="7"/><path d="m336.45 578.24v-8.71-25.81-109.78-.98" stroke="#231f20" stroke-width="7"/><path d="m336.45 736.63v-101.8-29.29-5.71" stroke="#231f20" stroke-width="7"/><path d="m372.46 580.12v-1.28-9.31-21.61-114.13-.83" stroke="#231f20" stroke-width="7"/><path d="m372.46 744.75v-3.47-110.62-25.12-6.72-.82" stroke="#231f20" stroke-width="7"/><path d="m478.72 492.57-76.97 76.96-1.32 1.32-18.43 18.43-7.63 7.63-1.91 1.91-6.72 6.72-9.2 9.2-20.09 20.09-75.95 75.94" stroke="#231f20" stroke-width="7"/><path d="m336.45 583.93-.9.9-4.45 4.45-16.26 16.26-3.1 3.11-77.37 77.37" stroke="#231f20" stroke-width="7"/><path d="m453.33 467.04-80.87 80.88-15.91 15.9-5.7 5.71" stroke="#231f20" stroke-width="7"/><path d="m347.34 605.54 9.2 9.2 15.92 15.92 78.88 78.87" stroke="#231f20" stroke-width="7"/><path d="m232.8 490.98 78.37 78.37.18.18 19.75 19.75 6.35 6.35" stroke="#231f20" stroke-width="7"/><path d="m375.72 582.99 6.28 6.29 16.27 16.26 2.68 2.69 76.21 76.22" stroke="#231f20" stroke-width="7"/><path d="m258.55 465.82 77.9 77.9 20.1 20.1 5.71 5.71" stroke="#231f20" stroke-width="7"/><path d="m374.36 596.91h.01l20.27 8.63 6.31 2.69 97.57 41.52" stroke="#231f20" stroke-width="7"/><path d="m211.2 526.5 99.97 42.85.42.18 24.89 10.67" stroke="#231f20" stroke-width="7"/><path d="m338.37 597.1h-.01l-19.46 8.44-7.16 3.11-99.16 42.98" stroke="#231f20" stroke-width="7"/><path d="m499.9 528.53-96.37 41-3.1 1.32-26.43 11.25h-.01" stroke="#231f20" stroke-width="7"/><path d="m374 582.1c.6 1.71.92 3.53.92 5.431 0 9.939-8.87 18.01-19.8 18.01-7.06 0-13.26-3.37-16.76-8.44-.33-.47-.63-.949-.9-1.46 0 0-.01 0-.01-.01-1.36-2.43-2.12-5.18-2.12-8.1 0-.92.08-1.82.22-2.7.26-1.54.72-3.01 1.38-4.4 3.03-6.41 10.03-10.899 18.19-10.899 7.46 0 13.97 3.75 17.34 9.31.63 1.028 1.14 2.118 1.54 3.258z" stroke="#231f20" stroke-width="8.1171"/><path d="m219.2 309.99v-176.55s5.07-33.48-93.35 20.29" stroke="#231f20" stroke-linecap="round" stroke-linejoin="round" stroke-width="28"/><path d="m219.2 445.71v-119.49" stroke="#231f20" stroke-linecap="round" stroke-linejoin="round" stroke-width="28"/><path d="m535.53 513.37h77.35l58.85 236.97h56.82" stroke="#231f20" stroke-width="21"/><path d="m486.45 309.99h31.46v16.23h-31.46-267.25v-16.23z" stroke="#231f20" stroke-width="21"/><path d="m644.21 700.68c0 29.141-23.62 52.761-52.76 52.761-29.141 0-52.76-23.62-52.76-52.761 0-29.14 23.619-52.76 52.76-52.76 17.91 0 33.729 8.92 43.27 22.561 5.98 8.549 9.49 18.969 9.49 30.199z" stroke="#231f20" stroke-width="21"/><path d="m591.45 700.68 43.27-30.2 9.28-6.48" stroke="#231f20" stroke-linecap="round" stroke-linejoin="round" stroke-width="21"/><path d="m486.45 444.94v-118.72-16.23-150.16l50.73-12.44" stroke="#231f20" stroke-width="21"/><path d="m722.56 234.91h-185.38v-87.52-82.94h185.38z" stroke="#231f20" stroke-width="28"/><path d="m0 0h850.394v850.394h-850.394z"/></g></svg>