<svg enable-background="new 0 0 850.394 850.394" height="850.394" viewBox="0 0 850.394 850.394" width="850.394" xmlns="http://www.w3.org/2000/svg"><path d="m494.46 94.77c6-10.64 23.89-17.09 44.16-14.95 24.01 2.53 42.26 16.15 40.75 30.41-.021.2-.05.4-.07.59-2.01 13.93-22.439 23.14-46.13 20.65-24.01-2.53-42.26-16.15-40.75-30.41.24-2.22.94-4.33 2.04-6.29z" fill="#ed1e29"/><path d="m373.99 570.38c.6 1.71.92 3.54.92 5.43 0 9.94-8.87 18.021-19.81 18.021-7.07 0-13.27-3.37-16.76-8.44-.34-.479-.65-.979-.93-1.489-1.35-2.431-2.11-5.181-2.11-8.091 0-.909.08-1.81.22-2.689.26-1.55.73-3.03 1.39-4.42 3.02-6.4 10.03-10.891 18.19-10.891 7.47 0 13.97 3.75 17.34 9.301.63 1.028 1.15 2.118 1.55 3.268z" fill="#c8c8c8"/><path d="m579.37 110.82c5.05 5.37 7.55 11.26 6.62 17.03-2.46 15.37-28.4 23.99-57.931 19.24-29.529-4.75-51.46-21.06-48.989-36.43 1.09-6.81 6.79-12.3 15.39-15.89-1.1 1.96-1.8 4.07-2.04 6.29-1.51 14.26 16.74 27.88 40.75 30.41 23.69 2.49 44.12-6.72 46.13-20.65z" fill="#797878"/><path d="m634.5 658.4c6.16 8.63 9.78 19.189 9.78 30.6 0 29.15-23.63 52.78-52.78 52.78-29.14 0-52.77-23.63-52.77-52.78s23.63-52.78 52.77-52.78c17.74 0 33.44 8.75 43 22.18z" fill="#797878"/><path d="m372.44 729.61c29.57-3.21 56.66-14.57 78.93-31.73 9.56-7.36 18.22-15.79 25.82-25.11 8.579-10.52 15.79-22.18 21.369-34.71 6.131-13.77 10.29-28.6 12.12-44.119.71-5.95 1.07-12 1.07-18.131 0-6.13-.36-12.17-1.06-18.109-1.69-14.33-5.36-28.061-10.75-40.92-5.421-12.971-12.58-25.061-21.19-35.971-7.45-9.449-15.98-18.01-25.41-25.52-22.64-18.021-50.46-29.95-80.9-33.26-5.69-.62-11.47-.94-17.33-.94-6.32 0-12.56.37-18.68 1.09-29.21 3.43-55.95 14.79-77.95 31.85-9.54 7.39-18.18 15.85-25.75 25.189-8.73 10.771-16.02 22.71-21.61 35.55-5.86 13.471-9.84 27.921-11.61 43.04-.69 5.91-1.05 11.91-1.05 18 0 6.101.36 12.11 1.05 18.021 1.91 16.27 6.38 31.77 13 46.1 5.73 12.44 13.09 23.99 21.8 34.4 7.72 9.22 16.49 17.54 26.14 24.77 21.49 16.131 47.32 26.9 75.46 30.301 6.29.76 12.7 1.149 19.2 1.149 5.861 0 11.641-.32 17.331-.94zm163.13-227.98c10.1 23.32 15.699 49 15.699 75.97 0 106.71-87.59 193.25-195.64 193.25s-195.629-86.54-195.629-193.25c0-55.859 24-106.18 62.37-141.46 34.93-32.12 81.76-51.77 133.26-51.77 38.36 0 74.13 10.9 104.32 29.74 21.01 13.1 39.31 30.041 53.899 49.82v2.75l3.29 1.84c7.181 10.351 13.37 21.431 18.42 33.11z" fill="#797878"/><path d="m593.3 272.87h-.569l-11.36.05c-.01 0-.03 0-.04 0-4.48 0-8.13-3.25-8.15-7.29s3.62-7.33 8.13-7.35l11.931-.06c4.51-.02 8.18 3.25 8.2 7.29-.002 0-.022 7.06-8.142 7.36z" fill="#231f20"/><path d="m540.38 188.29c-.41.35-.88.65-1.39.89-3.66 1.73-8.181-.17-10.11-4.24l-5.12-10.79c-.58-1.24-.859-2.54-.859-3.8 0-2.86 1.439-5.51 3.989-6.71.04-.02.091-.04.13-.06 3.631-1.63 8.07.28 9.98 4.3l5.11 10.79c.59 1.24.87 2.54.87 3.8 0 2.29-.93 4.44-2.6 5.82z" fill="#231f20"/><path d="m538.13 335.71c2.46 2.66 2.46 7.05-.14 10.27l-7.49 9.3c-1.71 2.12-4.15 3.25-6.51 3.25-1.55 0-3.061-.49-4.311-1.49-3.149-2.54-3.399-7.44-.58-10.94l7.49-9.31c1.71-2.12 4.15-3.24 6.51-3.24 1.551 0 3.061.48 4.301 1.48.26.21.51.44.73.68z" fill="#231f20"/><path d="m524.03 372.71h11.52v106.15l-18.41-10.341c-1.08-1.55-2.17-3.079-3.29-4.59v-91.22h10.18z" fill="#231f20"/><path d="m517.14 468.52-3.29-1.84v-2.75c1.12 1.51 2.21 3.04 3.29 4.59z" fill="#231f20"/><g fill="none"><path d="m517.14 468.52c7.181 10.351 13.37 21.431 18.42 33.11" stroke="#231f20" stroke-width="21"/><path d="m535.57 501.63c10.1 23.32 15.699 49 15.699 75.97 0 106.71-87.59 193.25-195.64 193.25s-195.629-86.54-195.629-193.25c0-55.859 24-106.18 62.37-141.46 34.93-32.12 81.76-51.77 133.26-51.77 38.36 0 74.13 10.9 104.32 29.74 21.01 13.1 39.31 30.041 53.899 49.82" stroke="#231f20" stroke-width="21"/><path d="m510.69 557.7c.699 5.939 1.06 11.979 1.06 18.109 0 6.131-.36 12.181-1.07 18.131-1.83 15.52-5.989 30.35-12.12 44.119-5.579 12.53-12.79 24.19-21.369 34.71-7.601 9.32-16.261 17.75-25.82 25.11-22.271 17.16-49.36 28.521-78.93 31.73-5.69.62-11.47.939-17.33.939-6.5 0-12.91-.39-19.2-1.149-28.14-3.4-53.97-14.17-75.46-30.301-9.65-7.229-18.42-15.55-26.14-24.77-8.71-10.41-16.07-21.96-21.8-34.4-6.62-14.33-11.09-29.83-13-46.1-.69-5.91-1.05-11.92-1.05-18.021 0-6.09.36-12.09 1.05-18 1.77-15.119 5.75-29.569 11.61-43.04 5.59-12.84 12.88-24.779 21.61-35.55 7.57-9.34 16.21-17.8 25.75-25.189 22-17.061 48.74-28.42 77.95-31.85 6.12-.72 12.36-1.09 18.68-1.09 5.86 0 11.64.32 17.33.94 30.44 3.31 58.26 15.24 80.9 33.26 9.43 7.51 17.96 16.07 25.41 25.52 8.61 10.91 15.77 23 21.19 35.971 5.389 12.861 9.059 26.591 10.749 40.921z" stroke="#231f20" stroke-width="14"/><path d="m197.87 557.81h1.64 111.81.24 24.87 14.4 4.27 7.15 10.19 29.31 1.79 106.22" stroke="#231f20" stroke-width="7"/><path d="m197.87 593.83h1.64 115.3 4.06 17.56 10.88 7.79 10.62 6.72 22.19 3.64 111.49" stroke="#231f20" stroke-width="7"/><path d="m336.43 566.52v-8.71-25.82-109.81-.98" stroke="#231f20" stroke-width="7"/><path d="m336.43 724.96v-101.84-29.29-5.71" stroke="#231f20" stroke-width="7"/><path d="m372.44 568.4v-1.29-9.3-21.61-114.17-.83" stroke="#231f20" stroke-width="7"/><path d="m372.44 733.08v-3.47-110.65-25.13-6.71-.83" stroke="#231f20" stroke-width="7"/><path d="m478.73 480.83-76.98 76.98-1.33 1.33-18.42 18.42-7.65 7.64-1.91 1.92-6.72 6.71-9.2 9.21-20.09 20.08-75.97 75.97" stroke="#231f20" stroke-width="7"/><path d="m336.43 572.21-.91.91-4.44 4.45-16.27 16.26-3.11 3.11-77.39 77.39" stroke="#231f20" stroke-width="7"/><path d="m453.34 455.29-80.9 80.91-15.9 15.9-5.71 5.71" stroke="#231f20" stroke-width="7"/><path d="m347.31 593.83 9.21 9.21 15.92 15.92 78.91 78.89" stroke="#231f20" stroke-width="7"/><path d="m232.75 479.24 78.39 78.39.18.18 19.76 19.76 6.33 6.33.03.03" stroke="#231f20" stroke-width="7"/><path d="m375.71 571.27 6.29 6.29 16.27 16.27 2.69 2.69 76.22 76.24" stroke="#231f20" stroke-width="7"/><path d="m258.5 454.06 77.93 77.93 20.11 20.11 5.71 5.71" stroke="#231f20" stroke-width="7"/><path d="m374.35 585.2 20.28 8.63 6.33 2.69 97.58 41.53" stroke="#231f20" stroke-width="7"/><path d="m211.13 514.77 100.01 42.86.42.18 24.9 10.67" stroke="#231f20" stroke-width="7"/><path d="m338.34 585.39-19.47 8.44-7.17 3.11-99.18 42.99" stroke="#231f20" stroke-width="7"/><path d="m499.92 516.79-96.38 41.02-3.12 1.33-26.43 11.24-.01.01" stroke="#231f20" stroke-width="7"/><path d="m373.99 570.38c.6 1.71.92 3.54.92 5.43 0 9.94-8.87 18.021-19.81 18.021-7.07 0-13.27-3.37-16.76-8.44-.34-.479-.65-.979-.93-1.489-1.35-2.431-2.11-5.181-2.11-8.091 0-.909.08-1.81.22-2.689.26-1.55.73-3.03 1.39-4.42 3.02-6.4 10.03-10.891 18.19-10.891 7.47 0 13.97 3.75 17.34 9.301.63 1.028 1.15 2.118 1.55 3.268z" stroke="#231f20" stroke-width="8.1195"/><path d="m219.14 298.19v-176.6s5.07-33.49-93.38 20.3" stroke="#231f20" stroke-linecap="round" stroke-linejoin="round" stroke-width="28"/><path d="m219.14 433.95v-119.52" stroke="#231f20" stroke-linecap="round" stroke-linejoin="round" stroke-width="28"/><path d="m535.56 501.63h.01 77.37l36.32 146.26 22.54 90.79h56.84" stroke="#231f20" stroke-width="21"/><path d="m219.14 298.19h250.08v16.24h-9.14-240.94z" stroke="#231f20" stroke-width="21"/><path d="m644.28 689c0 29.15-23.63 52.78-52.78 52.78-29.14 0-52.77-23.63-52.77-52.78s23.63-52.78 52.77-52.78c17.74 0 33.44 8.75 43 22.181 6.16 8.629 9.78 19.189 9.78 30.599z" stroke="#231f20" stroke-width="21"/><path d="m591.5 689 43-30.6 14.76-10.51" stroke="#231f20" stroke-linecap="round" stroke-linejoin="round" stroke-width="21"/><path d="m494.46 94.77c-1.1 1.96-1.8 4.07-2.04 6.29-1.51 14.26 16.74 27.88 40.75 30.41 23.69 2.49 44.12-6.72 46.13-20.65.021-.19.05-.39.07-.59 1.51-14.26-16.74-27.88-40.75-30.41-20.27-2.14-38.16 4.31-44.16 14.95z" stroke="#231f20" stroke-width="14"/><path d="m494.52 94.75c-.02.01-.039.02-.06.02-8.6 3.59-14.3 9.08-15.39 15.89-2.471 15.37 19.46 31.68 48.989 36.43 29.53 4.75 55.471-3.87 57.931-19.24.93-5.77-1.57-11.66-6.62-17.03" stroke="#231f20" stroke-width="14"/><path d="m540.38 188.29 35.63 65.98" stroke="#231f20" stroke-width="21"/><path d="m527.02 163.58c-.039.02-.09.04-.13.06-2.55 1.2-3.989 3.85-3.989 6.71 0 1.26.279 2.56.859 3.8l5.12 10.79c1.93 4.07 6.45 5.97 10.11 4.24.51-.24.979-.54 1.39-.89 1.67-1.38 2.601-3.53 2.601-5.82 0-1.26-.28-2.56-.87-3.8l-5.111-10.79c-1.91-4.02-6.35-5.93-9.98-4.3z" stroke="#231f20" stroke-width="20.2988"/><path d="m593.3 272.87c8.12-.3 8.141-7.36 8.141-7.36-.021-4.04-3.69-7.31-8.2-7.29l-11.931.06c-4.51.02-8.149 3.31-8.13 7.35.021 4.04 3.67 7.29 8.15 7.29h.04l11.36-.05z" stroke="#231f20" stroke-width="20.2988"/><path d="m537.99 345.98c2.6-3.22 2.6-7.61.14-10.27-.22-.24-.47-.47-.729-.68-1.24-1-2.75-1.48-4.301-1.48-2.359 0-4.8 1.12-6.51 3.24l-7.49 9.31c-2.819 3.5-2.569 8.4.58 10.94 1.25 1 2.761 1.49 4.311 1.49 2.359 0 4.8-1.13 6.51-3.25z" stroke="#231f20" stroke-width="20.2988"/><path d="m526.89 165.67.13-2.09 1.04-16.49" stroke="#231f20" stroke-width="20.2988"/><path d="m593.18 272.35-.45.52-54.6 62.84-1.9 2.19" stroke="#231f20" stroke-width="21"/><path d="m513.85 463.93v2.75l3.29 1.84 18.41 10.34v-106.15h-11.52-10.18z" stroke="#231f20" stroke-width="14"/><path d="m524.03 360.16v12.55 5.75" stroke="#231f20" stroke-width="16.2391"/><path d="m460.08 304.29v10.14 99.47" stroke="#231f20" stroke-width="21"/><path d="m0 0h850.394v850.394h-850.394z"/></g></svg>