<svg enable-background="new 0 0 850.394 850.394" height="850.394" viewBox="0 0 850.394 850.394" width="850.394" xmlns="http://www.w3.org/2000/svg"><g fill="#c8c8c8"><path d="m591.3 254.32-9.9 7.68-22.06-4.36 11.79-8.04.68.99z"/><path d="m610.39 257.97-10.03 7.78-18.96-3.75 9.9-7.68z"/><path d="m631.29 261.96-5.95 7.5-.24 1.19-24.74-4.9 10.03-7.78z"/><path d="m650.04 265.55-6.22 7.83-.19.94-18.53-3.67.24-1.19 5.95-7.5z"/><path d="m669.28 269.23-6.45 8.13-.14.73-19.06-3.77.19-.94 6.22-7.83z"/><path d="m685.23 272.28-4.54 7.46-.36 1.83-17.64-3.48.14-.73 6.45-8.13z"/><path d="m701.12 275.32-3.9 7.66-.37 1.86-16.52-3.27.36-1.83 4.54-7.46z"/><path d="m724.73 269.63-4.4 9.57-.75-.35-18.46-3.53 4.86-9.56 16.62 2.89z"/><path d="m720.33 279.2-4.34 9.43-19.14-3.79.37-1.86 3.9-7.66 18.46 3.53z"/><path d="m705.98 265.76-4.86 9.56-15.89-3.04 5.58-9.16z"/><path d="m690.81 263.12-5.58 9.16-15.95-3.05 6.88-8.66z"/><path d="m676.16 260.57-6.88 8.66-19.24-3.68 6.65-8.37z"/><path d="m637.7 253.87-6.41 8.09-20.9-3.99 9.31-7.23z"/><path d="m619.7 250.74-9.31 7.23-19.09-3.65 8.96-6.96z"/><path d="m600.26 247.36-8.96 6.96-19.49-3.73-.68-.99 8.55-5.82z"/><path d="m663.92 248.08-7.23 9.1-18.99-3.31 6.96-8.77z"/><path d="m729.95 258.29-5.22 11.34-2.13-.98-16.62-2.89 5.23-10.28.01-.09z"/><path d="m711.22 255.39-.01.09-5.23 10.28-15.17-2.64 5.32-8.73.2-1.3z"/><path d="m696.33 253.09-.2 1.3-5.32 8.73-14.65-2.55 6.79-8.56.15-.96z"/><path d="m683.1 251.05-.15.96-6.79 8.56-19.47-3.39 7.23-9.1z"/><path d="m656.69 257.18-6.65 8.37-18.75-3.59 6.41-8.09z"/><path d="m644.66 245.1-6.96 8.77-18-3.13 9.13-7.09.15-.97z"/><path d="m628.98 242.68-.15.97-9.13 7.09-19.44-3.38 9.79-7.61h.01z"/><path d="m610.05 239.75-9.79 7.61-20.58-3.58 10.42-7.11z"/></g><path d="m757.43 108.62-15.98 119.58-146.33-18.99 1.29-106.62z" fill="#fff"/><path d="m636.56 283.47-17.4 22.27-56.42-13.2 20.5-20.5z" fill="#787878"/><path d="m725.49 321.16h.01c-4.02 11.06-7.54 20-9.3 22.51-6.8 9.72-22.57 7.67-22.57 7.67-13.93-1.94-152.63-37.29-180.27-43.88 0 0-8.07-1.56-14.08-7.58-2.57-2.57-4.21-7.71-3.71-11.79 11.949 2.98 196.01 48.88 201.859 48.88 9.491 0 23.661-4.07 28.061-15.81z" fill="#787878"/><path d="m742.48 246.62c-2.011.95-4.48 1.39-7.5 1.01l-6.801-.87-5.96-1.18.58-4.46-14.42-2.37-1.32 4.11-20.22-2.98-69.49-9.73v-4.33l-14.449-2.15-.82 4.42-6.64-.76c-.671-.15-1.301-.36-1.891-.63-9.22-4.11-7.93-20.95-7.93-20.95v-101.87s-2.16-15.54 15.54-15.54c17.71 0 152.82 4.32 152.82 4.32s16.399-2.17 14.46 14.45c-1.95 16.62-17.051 123.24-17.051 123.24s-.699 12.38-8.899 16.27c.001 0 .001 0-.009 0zm-1.03-18.42 15.979-119.58-161.02-6.03-1.29 106.62z" fill="#787878"/><path d="m663.92 248.08-19.26-2.98-15.68-2.42-18.921-2.93h-.01l-19.95-3.08-10.42 7.11-8.55 5.82-11.79 8.04 22.061 4.36 18.96 3.75 24.739 4.9 18.53 3.67 19.061 3.77 17.64 3.48 16.52 3.27 19.141 3.79 4.34-9.43 4.4-9.57 5.22-11.34-18.73-2.9-14.89-2.3-13.23-2.04zm64.26-1.32 6.801.87c3.02.38 5.489-.06 7.5-1.01h.01c.47.25 8.729 4.79 2.85 16.54-.42.85-11.25 34.3-19.84 58h-.01c-4.4 11.74-18.57 15.81-28.061 15.81-5.85 0-189.91-45.9-201.859-48.88.27-2.22 1.17-4.12 2.91-5.13 4.93-2.84 80.67-53.46 83.689-53.46 0 0 6.23-3.12 11.38-2.79v-.01c.59.27 1.22.48 1.891.63l6.64.76.82-4.42 14.449 2.15v4.33l69.49 9.73 20.22 2.98 1.32-4.11 14.42 2.37-.58 4.46zm-109.02 58.98 17.399-22.27-53.319-11.43-20.5 20.5z" fill="#c8c8c8"/><path d="m225.76 703.92c3.6 0 6.51 2.92 6.51 6.51 0 3.601-2.91 6.511-6.51 6.511h-53.37c-3.59 0-6.51-2.91-6.51-6.511 0-1.79.73-3.42 1.91-4.6s2.81-1.91 4.6-1.91z" fill="#00e800"/><path d="m79.97 729.97h554.52v27.33h-554.52z" fill="#c8c8c8"/><path d="m427.08 452.28v3.93c0 .66-.05 1.22-.19 1.78-.75 3.1-3.28 4.92-6.04 4.92-4.46 0-6.7-3.79-6.7-8.38 0-5.021 2.53-8.771 6.79-8.771 3.09 0 5.34 2.16 5.95 4.78.14.521.19 1.221.19 1.741z" fill="#fff"/><path d="m389.22 437.14c8.62 0 12.84 4.73 12.79 12.181 0 8.529-4.73 13.41-13.45 13.41-1.59 0-3.09-.051-4.12-.24v-24.931c1.07-.23 2.67-.42 4.78-.42z" fill="#fff"/><path d="m296.62 445.81c4.41 0 6.75 3.891 6.75 8.44 0 5.2-2.58 8.71-6.89 8.71-3 0-5.39-1.97-6.18-4.83-.1-.46-.19-.979-.19-1.5v-4.07c0-.659.14-1.22.23-1.689.85-3.141 3.47-5.061 6.28-5.061z" fill="#fff"/><path d="m268.46 437.05c4.12 0 6.93 1.45 6.93 5.15 0 3.05-2.53 5.3-6.84 5.3h-3.7v-10.17c.66-.14 1.73-.28 3.61-.28z" fill="#fff"/><path d="m268.22 450.59c4.46 0 8.16 1.78 8.16 6.09 0 4.59-3.89 6.141-8.11 6.141-1.45 0-2.62-.051-3.42-.19v-12.04h3.37z" fill="#fff"/><path d="m239.83 459.4c-.66 1.92-2.53 3.8-5.48 3.8-2.11 0-3.89-1.271-3.89-3.94 0-4.41 5.1-5.2 9.6-5.109v3.939c0 .42-.09.89-.23 1.31z" fill="#fff"/><path d="m211.76 443.51 3.09 9.09h-9.51l3.09-9.13c.61-1.92 1.13-3.85 1.59-5.72h.1c.47 1.83.94 3.7 1.64 5.76z" fill="#fff"/><path d="m223.43 465.73-10.78-31.591h-4.92l-10.73 31.591h4.22l3.28-9.94h11.2l3.37 9.94zm54.59-2.68c1.59-1.54 2.67-3.6 2.67-6.319 0-4.69-3.52-7.171-6.51-7.921v-.1c3.32-1.21 5.34-3.88 5.34-6.93 0-2.48-.99-4.36-2.63-5.58-1.96-1.59-4.59-2.29-8.67-2.29-2.85 0-5.67.28-7.45.649v31.07c1.36.19 3.52.38 6.33.38 5.15.001 8.72-.939 10.92-2.959zm-38.05-11.76c-8.76-.04-13.64 2.96-13.64 8.44 0 3.279 2.34 6.51 6.94 6.51 3.23 0 5.67-1.59 6.93-3.37h.14l.33 2.86h3.75c-.28-1.551-.37-3.471-.37-5.44v-8.48c0-4.55-1.69-9.279-8.63-9.279-2.86 0-5.57.8-7.45 2.01l.94 2.72c1.59-1.029 3.8-1.68 5.9-1.68 4.64 0 5.16 3.37 5.16 5.24zm49.76 10.69c1.69 3 4.31 4.26 7.59 4.26 5.07 0 10.17-4.03 10.17-12.141.05-6.88-3.93-11.569-9.56-11.569-3.65 0-6.28 1.64-7.73 4.17h-.09v-14.25h-4.08v27.42c0 2.01-.09 4.31-.19 5.86h3.57l.18-3.75zm54.27-.52c-1.64.8-4.17 1.31-6.66 1.31-7.68 0-12.13-4.96-12.13-12.699 0-8.29 4.92-13.021 12.32-13.021 2.62 0 4.83.561 6.37 1.311l.99-3.33c-1.08-.561-3.56-1.4-7.5-1.4-9.79 0-16.5 6.7-16.5 16.58 0 10.36 6.71 16.03 15.61 16.03 3.84 0 6.84-.8 8.34-1.55zm3.65-6.84c0 6.93 4.45 11.62 11.29 11.62 3.05 0 5.44-.8 6.52-1.36l-.7-3.09c-1.18.51-2.72 1.12-5.07 1.12-4.49 0-7.87-3.23-7.87-8.48 0-4.729 2.81-8.569 8.01-8.569 2.25 0 3.8.51 4.78 1.069l.94-3.18c-1.12-.56-3.28-1.17-5.72-1.17-7.4 0-12.18 5.06-12.18 12.04zm58.62-5.44c0-5.1-1.64-8.76-4.45-11.34-2.76-2.57-6.93-3.93-12.79-3.93-3.24 0-6.19.28-8.67.649v31.07c2.06.24 4.5.38 7.4.38 6.14 0 11.02-1.6 13.97-4.55 2.95-2.899 4.54-7.119 4.54-12.279zm13.87-6.65c-5.53 0-10.21 4.64-10.17 12.18 0 6.89 4.22 11.53 9.7 11.53 3.71 0 6.47-1.92 7.74-4.45h.09l.19 3.94h3.699c-.14-1.551-.189-3.851-.189-5.86v-27.42h-4.12v13.55h-.09c-1.04-1.83-3.38-3.47-6.85-3.47zm188.31-77.04v363.17h-503.74v-363.17zm-376.18 344.94c0-3.59-2.91-6.51-6.51-6.51h-53.37c-1.79 0-3.42.73-4.6 1.91s-1.91 2.81-1.91 4.6c0 3.601 2.92 6.511 6.51 6.511h53.37c3.6-.001 6.51-2.911 6.51-6.511z" fill="#fff"/><path d="m427.08 456.21v-3.93c0-.521-.05-1.221-.19-1.74-.609-2.62-2.86-4.78-5.95-4.78-4.26 0-6.79 3.75-6.79 8.771 0 4.59 2.24 8.38 6.7 8.38 2.76 0 5.29-1.82 6.04-4.92.14-.561.19-1.121.19-1.781zm-17.11-1.5c-.04-7.54 4.64-12.18 10.17-12.18 3.47 0 5.81 1.64 6.85 3.47h.09v-13.55h4.12v27.42c0 2.01.05 4.31.189 5.86h-3.699l-.19-3.94h-.09c-1.271 2.53-4.03 4.45-7.74 4.45-5.48 0-9.7-4.64-9.7-11.53z" fill="#231f20"/><path d="m388.56 462.73c8.72 0 13.45-4.881 13.45-13.41.05-7.45-4.17-12.181-12.79-12.181-2.11 0-3.71.19-4.78.42v24.931c1.03.19 2.53.24 4.12.24zm13.26-24.89c2.81 2.58 4.45 6.24 4.45 11.34 0 5.16-1.59 9.38-4.54 12.28-2.95 2.95-7.83 4.55-13.97 4.55-2.9 0-5.34-.14-7.4-.38v-31.07c2.48-.369 5.43-.649 8.67-.649 5.86-.001 10.03 1.359 12.79 3.929z" fill="#231f20"/><path d="m359.69 462.91c2.35 0 3.89-.61 5.07-1.12l.7 3.09c-1.08.561-3.47 1.36-6.52 1.36-6.84 0-11.29-4.69-11.29-11.62 0-6.98 4.78-12.04 12.18-12.04 2.44 0 4.6.61 5.72 1.17l-.94 3.18c-.98-.56-2.53-1.069-4.78-1.069-5.2 0-8.01 3.84-8.01 8.569 0 5.25 3.38 8.48 7.87 8.48z" fill="#231f20"/><path d="m344.84 464.69c-1.5.75-4.5 1.55-8.34 1.55-8.9 0-15.61-5.67-15.61-16.03 0-9.88 6.71-16.58 16.5-16.58 3.94 0 6.42.84 7.5 1.4l-.99 3.33c-1.54-.75-3.75-1.311-6.37-1.311-7.4 0-12.32 4.73-12.32 13.021 0 7.739 4.45 12.699 12.13 12.699 2.49 0 5.02-.51 6.66-1.31z" fill="#231f20"/><path d="m303.37 454.25c0-4.55-2.34-8.44-6.75-8.44-2.81 0-5.43 1.921-6.28 5.061-.09.47-.23 1.03-.23 1.689v4.07c0 .521.09 1.04.19 1.5.79 2.86 3.18 4.83 6.18 4.83 4.31 0 6.89-3.51 6.89-8.71zm-5.44-11.72c5.63 0 9.61 4.689 9.56 11.569 0 8.11-5.1 12.141-10.17 12.141-3.28 0-5.9-1.26-7.59-4.26h-.14l-.18 3.75h-3.57c.1-1.551.19-3.851.19-5.86v-27.42h4.08v14.25h.09c1.45-2.53 4.08-4.17 7.73-4.17z" fill="#231f20"/><path d="m268.27 462.82c4.22 0 8.11-1.551 8.11-6.141 0-4.31-3.7-6.09-8.16-6.09h-3.37v12.04c.8.141 1.97.191 3.42.191zm11.25-21.04c0 3.05-2.02 5.72-5.34 6.93v.1c2.99.75 6.51 3.23 6.51 7.921 0 2.72-1.08 4.779-2.67 6.319-2.2 2.021-5.77 2.96-10.92 2.96-2.81 0-4.97-.189-6.33-.38v-31.07c1.78-.369 4.6-.649 7.45-.649 4.08 0 6.71.7 8.67 2.29 1.64 1.219 2.63 3.099 2.63 5.579zm-4.13.42c0-3.7-2.81-5.15-6.93-5.15-1.88 0-2.95.141-3.61.28v10.17h3.7c4.31 0 6.84-2.25 6.84-5.3z" fill="#231f20"/><path d="m234.35 463.2c2.95 0 4.82-1.88 5.48-3.8.14-.42.23-.891.23-1.311v-3.939c-4.5-.091-9.6.699-9.6 5.109 0 2.671 1.78 3.941 3.89 3.941zm5.62-12.38c0-1.87-.52-5.24-5.16-5.24-2.1 0-4.31.65-5.9 1.68l-.94-2.72c1.88-1.21 4.59-2.01 7.45-2.01 6.94 0 8.63 4.729 8.63 9.279v8.48c0 1.97.09 3.89.37 5.44h-3.75l-.33-2.86h-.14c-1.26 1.78-3.7 3.37-6.93 3.37-4.6 0-6.94-3.23-6.94-6.51 0-5.48 4.88-8.48 13.64-8.44z" fill="#231f20"/><path d="m208.43 443.47-3.09 9.13h9.51l-3.09-9.09c-.7-2.06-1.17-3.93-1.64-5.76h-.1c-.46 1.87-.98 3.8-1.59 5.72zm-.7-9.33h4.92l10.78 31.591h-4.36l-3.37-9.94h-11.2l-3.28 9.94h-4.22z" fill="#231f20"/><path d="m104.71 365.49h503.74v363.17h-503.74z" fill="none" stroke="#231f20" stroke-width="21"/><path d="m79.97 729.97h554.52v27.33h-554.52z" fill="none" stroke="#231f20" stroke-width="21"/><path d="m232.27 710.43c0 3.601-2.91 6.511-6.51 6.511h-53.37c-3.59 0-6.51-2.91-6.51-6.511 0-1.79.73-3.42 1.91-4.6s2.81-1.91 4.6-1.91h53.37c3.6 0 6.51 2.92 6.51 6.51z" fill="none" stroke="#231f20" stroke-width="7"/><path d="m742.48 246.62c-2.011.95-4.48 1.39-7.5 1.01l-6.801-.87" fill="none" stroke="#231f20" stroke-width="7"/><path d="m728.78 246.88-.601-.12-5.96-1.18.58-4.46-14.42-2.37-1.32 4.11-20.22-2.98-69.49-9.73v-4.33l-14.449-2.15-.82 4.42-6.64-.76c-.671-.15-1.301-.36-1.891-.63-9.22-4.11-7.93-20.95-7.93-20.95v-101.87s-2.16-15.54 15.54-15.54c17.71 0 152.82 4.32 152.82 4.32s16.399-2.17 14.46 14.45c-1.95 16.62-17.051 123.24-17.051 123.24s-.699 12.38-8.899 16.27" fill="none" stroke="#231f20" stroke-width="7"/><path d="m596.41 102.59 161.02 6.03-15.98 119.58-146.33-18.99z" fill="none" stroke="#231f20" stroke-width="7"/><path d="m593.55 226.71c-5.149-.33-11.38 2.79-11.38 2.79-3.02 0-78.76 50.62-83.689 53.46-1.74 1.01-2.641 2.91-2.91 5.13-.5 4.08 1.14 9.22 3.71 11.79 6.01 6.02 14.08 7.58 14.08 7.58 27.64 6.59 166.34 41.94 180.27 43.88 0 0 15.771 2.05 22.57-7.67 1.76-2.51 5.28-11.45 9.3-22.51 8.59-23.7 19.42-57.15 19.84-58 5.88-11.75-2.38-16.29-2.85-16.54 0 0 0 0-.01 0-.011-.01-.011-.01-.011-.01" fill="none" stroke="#231f20" stroke-width="7"/><path d="m610.06 239.75 18.92 2.93 15.68 2.42 19.26 2.98 19.18 2.97 13.23 2.04 14.89 2.3 18.73 2.9-5.22 11.34-4.4 9.57-4.34 9.43-19.14-3.79-16.52-3.27-17.64-3.48-19.06-3.77-18.53-3.67-24.74-4.9-18.96-3.75-22.06-4.36 11.79-8.04 8.55-5.82 10.42-7.11 19.95 3.08" fill="none" stroke="#231f20" stroke-width="7"/><path d="m579.47 243.74.21.04 20.58 3.58 19.44 3.38 18 3.13 18.99 3.31 19.47 3.39 14.65 2.55 15.17 2.64 16.62 2.89" fill="none" stroke="#231f20" stroke-width="6.3555"/><path d="m571.81 250.59 19.49 3.73 19.09 3.65 20.9 3.99 18.75 3.59 19.24 3.68 15.95 3.05 15.89 3.04 18.46 3.53" fill="none" stroke="#231f20" stroke-width="6.3555"/><path d="m562.74 292.54 20.5-20.5 53.32 11.43-17.4 22.27z" fill="none" stroke="#231f20" stroke-width="9.5332"/><path d="m494.96 287.94s.21.05.61.15c11.949 2.98 196.01 48.88 201.859 48.88 9.49 0 23.66-4.07 28.061-15.81" fill="none" stroke="#231f20" stroke-width="7"/><path d="m581.4 262 9.9-7.68 8.96-6.96 9.79-7.61h.01" fill="none" stroke="#231f20" stroke-width="6.3555"/><path d="m600.18 265.89.18-.14 10.03-7.78 9.31-7.23 9.13-7.09" fill="none" stroke="#231f20" stroke-width="6.3555"/><path d="m625.34 269.46 5.95-7.5 6.41-8.09 6.96-8.77.79-.99" fill="none" stroke="#231f20" stroke-width="6.3555"/><path d="m643.82 273.38 6.22-7.83 6.65-8.37 7.23-9.1.04-.05" fill="none" stroke="#231f20" stroke-width="6.3555"/><path d="m662.83 277.36 6.45-8.13 6.88-8.66 6.79-8.56" fill="none" stroke="#231f20" stroke-width="6.3555"/><path d="m680.69 279.74 4.54-7.46 5.58-9.16 5.32-8.73" fill="none" stroke="#231f20" stroke-width="6.3555"/><path d="m697.22 282.98 3.9-7.66 4.86-9.56 5.23-10.28" fill="none" stroke="#231f20" stroke-width="6.3555"/><path d="m0 0h850.394v850.394h-850.394z" fill="none"/><path d="m746 258c10.433 33.905-22 156-52 166" fill="none" stroke="#231f20" stroke-width="7"/><path d="m694 424c42 118 4 138-24 156" fill="none" stroke="#231f20" stroke-width="7"/><path d="m670 580c64 144-29.578 166-34 166" fill="none" stroke="#231f20" stroke-width="7"/></svg>