<svg enable-background="new 0 0 850.394 850.394" height="850.394" viewBox="0 0 850.394 850.394" width="850.394" xmlns="http://www.w3.org/2000/svg"><path d="m762.64 626.81c18.74 42.591 30.67 67.301-5.96 89.44-36.63 22.15-67.3-6.81-97.97-6.81s-443 .239-473.67.239-61.34 28.96-97.97 6.811c-36.63-22.15-24.7-46.851-5.96-89.45.34-.771.68-1.56 1.01-2.36-1.35 16.71 5.46 29.7 25.58 41.86 34.3 20.74 63.02-6.38 91.73-6.38 14.37 0 118.33-.061 222.17-.11 103.55-.06 206.98-.109 221.32-.109 28.72 0 57.43 27.119 91.73 6.38 22.13-13.391 28.17-27.771 24.939-47.011.991 2.62 2.001 5.12 3.051 7.5z" fill="#fff"/><path d="m751.21 592.35c2.5 9.66 5.3 18.83 8.38 26.96 3.23 19.24-2.81 33.62-24.939 47.011-34.301 20.739-63.011-6.38-91.73-6.38-14.34 0-117.77.05-221.32.109v-245.37-5.84l224.33-.12s57.931-13.63 80.931 9.37 7.67 46 7.67 64.75c-.002 14.43 5.558 66.76 16.678 109.51zm-84.1 31.85-27.26-179.47c0-3.771-3.05-6.82-6.819-6.82h-134.021c-3.77 0-6.819 3.05-6.819 6.82l6.819 179.47c0 3.76 3.05 6.81 6.811 6.81h154.47c3.769 0 6.819-3.05 6.819-6.81z" fill="#fff"/><path d="m639.85 444.73 27.26 179.47c0 3.76-3.051 6.81-6.82 6.81h-154.47c-3.761 0-6.811-3.05-6.811-6.81l-6.819-179.47c0-3.771 3.05-6.82 6.819-6.82h134.021c3.77 0 6.82 3.05 6.82 6.82z" fill="#fff"/><path d="m94.57 584.46c9.77-41.02 14.65-87.85 14.65-101.38 0-18.75-15.33-41.75 7.67-64.75s80.93-9.37 80.93-9.37l223.78-.12v5.84 245.37c-103.84.05-207.8.11-222.17.11-28.71 0-57.43 27.12-91.73 6.38-20.12-12.16-26.93-25.15-25.58-41.86 4.78-11.44 8.93-25.45 12.45-40.22zm249.74 39.74 6.81-179.47c0-3.771-3.05-6.82-6.81-6.82h-134.04c-3.76 0-6.81 3.05-6.81 6.82l-27.26 179.47c0 3.76 3.05 6.81 6.81 6.81h154.48c3.76 0 6.82-3.05 6.82-6.81z" fill="#fff"/><path d="m351.12 444.73-6.81 179.47c0 3.76-3.06 6.81-6.82 6.81h-154.48c-3.76 0-6.81-3.05-6.81-6.81l27.26-179.47c0-3.771 3.05-6.82 6.81-6.82h134.04c3.76 0 6.81 3.05 6.81 6.82z" fill="#fff"/><path d="m759.59 619.31c.99 2.62 2 5.12 3.05 7.5 18.74 42.591 30.67 67.301-5.96 89.44-36.63 22.15-67.3-6.81-97.97-6.81s-443 .239-473.67.239-61.34 28.96-97.97 6.811c-36.63-22.15-24.7-46.851-5.96-89.45.34-.771.68-1.56 1.01-2.36 4.78-11.439 8.93-25.449 12.45-40.22 9.77-41.02 14.65-87.85 14.65-101.38 0-18.75-15.33-41.75 7.67-64.75s80.93-9.37 80.93-9.37l223.78-.12 224.33-.12s57.931-13.63 80.931 9.37 7.67 46 7.67 64.75c0 14.43 5.56 66.76 16.68 109.51 2.499 9.66 5.299 18.83 8.379 26.96z" fill="none" stroke="#231f20" stroke-width="21"/><path d="m747.05 582.57c1.49 3.38 2.88 6.64 4.16 9.779 4.08 10.03 7.04 18.92 8.38 26.96 3.23 19.24-2.81 33.62-24.939 47.011-34.301 20.739-63.011-6.38-91.73-6.38-14.34 0-117.77.05-221.32.109-103.84.05-207.8.11-222.17.11-28.71 0-57.43 27.12-91.73 6.38-20.12-12.16-26.93-25.15-25.58-41.86.9-11.37 5.59-24.47 12.45-40.22.24-.55.48-1.11.73-1.67" fill="none" stroke="#231f20" stroke-width="13.6303"/><path d="m344.31 624.2c0 3.76-3.06 6.81-6.82 6.81h-154.48c-3.76 0-6.81-3.05-6.81-6.81l27.26-179.47c0-3.771 3.05-6.82 6.81-6.82h134.04c3.76 0 6.81 3.05 6.81 6.82z" fill="none" stroke="#231f20" stroke-width="14"/><path d="m667.11 624.2c0 3.76-3.051 6.81-6.82 6.81h-154.47c-3.761 0-6.811-3.05-6.811-6.81l-6.819-179.47c0-3.771 3.05-6.82 6.819-6.82h134.021c3.77 0 6.819 3.05 6.819 6.82z" fill="none" stroke="#231f20" stroke-width="14"/><path d="m421.6 414.68v245.37" fill="none" stroke="#231f20" stroke-width="14"/><path d="m795.479 95.372-10.962 116.157.088.508v.004l-151.144 25.711-.157-.034-2.505-.52 21.156-179.506.529-1.904z" fill="#c8c8c8"/><path d="m787.827 211.491-4.339 42.475-155.728 33.091-.238-1.121 5.312-45.958.47-2.26.157.034 151.144-25.711v-.004z" fill="#7a7878"/><path d="m651.955 55.64.529.148-.529 1.904-21.156 179.506-29.499-6.124 6.238-48.497 1.088.139h5.997l10.275-79.121-6.339.169-.868-.11 6.179-48.014z" fill="#c8c8c8"/><path d="m601.3 231.074 29.499 6.124 2.505.52-.47 2.26-5.312 45.958.238 1.121-1.152.246-36.079-8.219 6.623-48.87z" fill="#7a7878"/><path d="m624.898 103.595-10.275 79.121h-5.997l-1.088-.139 10.153-78.923.868.11z" fill="#7a7878"/><path d="m546.002 131.113v158.019c0 1.515-1.228 2.742-2.742 2.742h-37.451c-1.511 0-2.738-1.227-2.738-2.742v-158.019c0-1.515 1.228-2.743 2.738-2.743h37.451c1.514 0 2.742 1.228 2.742 2.743zm-14.729 55.658c0-3.813-3.094-6.907-6.911-6.907-3.813 0-6.907 3.094-6.907 6.907s3.094 6.907 6.907 6.907c3.818 0 6.911-3.094 6.911-6.907zm-3.77 56.462c0-1.765-1.431-3.195-3.195-3.195s-3.2 1.43-3.2 3.195c0 1.769 1.436 3.195 3.2 3.195s3.195-1.426 3.195-3.195zm0 15.871c0-1.769-1.431-3.2-3.195-3.2s-3.2 1.431-3.2 3.2c0 1.765 1.436 3.195 3.2 3.195s3.195-1.431 3.195-3.195z" fill="#c8c8c8"/><path d="m524.362 179.864c3.817 0 6.911 3.094 6.911 6.907s-3.094 6.907-6.911 6.907c-3.813 0-6.907-3.094-6.907-6.907s3.094-6.907 6.907-6.907z" fill="#7a7878"/><g fill="none"><path d="m784.517 211.529 10.962-116.157-142.995-39.584-.529-.148h-28.085l-6.179 48.014-10.153 78.923-6.238 48.497-.038.283" stroke="#231f20" stroke-width="7"/><path d="m651.955 57.692-21.156 179.506-.081.668" stroke="#231f20" stroke-width="7"/><path d="m627.76 287.057-1.152.246-36.079-8.219 6.623-48.87 4.148.86 29.499 6.124 2.505.52.157.034 151.144-25.711v-.004l3.222-.546-4.339 42.475z" stroke="#231f20" stroke-width="7"/><path d="m632.834 239.978-5.312 45.958" stroke="#231f20" stroke-width="7"/><path d="m641.68 70.025-17.297 147.802" stroke="#231f20" stroke-linecap="round" stroke-linejoin="round" stroke-width="7"/><path d="m618.559 103.764 6.339-.169-10.275 79.121h-5.997" stroke="#231f20" stroke-width="7"/><path d="m546.002 289.131c0 1.515-1.228 2.742-2.742 2.742h-37.451c-1.511 0-2.738-1.227-2.738-2.742v-158.018c0-1.515 1.228-2.743 2.738-2.743h37.451c1.515 0 2.742 1.228 2.742 2.743z" stroke="#231f20" stroke-width="7"/><path d="m524.308 148.008v11.418 10.733" stroke="#231f20" stroke-width="7"/><path d="m513.803 159.426h10.505 10.504" stroke="#231f20" stroke-width="7"/><circle cx="524.364" cy="186.771" r="6.909" stroke="#231f20" stroke-width="7"/><path d="m527.503 243.233c0 1.769-1.431 3.195-3.195 3.195s-3.2-1.426-3.2-3.195c0-1.765 1.436-3.195 3.2-3.195s3.195 1.43 3.195 3.195z" stroke="#231f20" stroke-width="7"/><path d="m527.503 259.104c0 1.765-1.431 3.195-3.195 3.195s-3.2-1.431-3.2-3.195c0-1.769 1.436-3.2 3.2-3.2s3.195 1.43 3.195 3.2z" stroke="#231f20" stroke-width="7"/><path d="m514.146 281.255h20.78" stroke="#231f20" stroke-linecap="round" stroke-linejoin="round" stroke-width="7"/><path d="m0 0h850.394v850.394h-850.394z"/></g></svg>