<svg enable-background="new 0 0 850.394 850.394" height="850.394" viewBox="0 0 850.394 850.394" width="850.394" xmlns="http://www.w3.org/2000/svg"><path d="m348.14 184.97c13.82 8.19 4.84 30.89-8.83 26.96l2.03-31.11c3.2 1.97 5.54 3.41 6.8 4.15z" fill="#9c5c25"/><path d="m341.34 180.82-2.03 31.11c-1.87-.53-3.84-1.57-5.85-3.21l-.04-.04-133.71-101.86 7.95-9.64s103.95 65.29 133.68 83.64z" fill="#9c5c25"/><path d="m567.06 304.72-11.26 27.48-3.92.38-.12.01-1.279.13c-.011 0-.021 0-.021 0-19.8 1.39-16.49-28.38 1.38-28.05 2.28.04 7.69.05 15.22.05z" fill="#9c5c25"/><path d="m717.49 303.92 1.689 12.39-163.379 15.89 11.26-27.48c42.08-.06 150.43-.8 150.43-.8z" fill="#9c5c25"/><path d="m569.19 299.5-2.131 5.22c-7.529 0-12.939-.01-15.22-.05-17.87-.33-21.18 29.44-1.38 28.05h.021c.409-.02.84-.07 1.279-.13l.12-.01 3.92-.38-14.63 35.73c-17.64 41.26-29.95 71.19-34.55 132.32 0 0 1.24 68.94 2.13 91.13 1.25 31.2 2.76 75.14 22.59 100.43 12.7 16.19 23.79 21.75 29.07 37.921 0 .01 0 .02.01.029 5.91 15.65 7.561 34.01-10.35 40.811-10.54 3.989-18.03 4.739-28.63 8.109-32.74 10.431-53.131 19.16-100.19-.939 0 0-38.67-5.67-38.7-39.54 6.38-31.72 17.57-21.641 30.15-45.09 13.21-24.641 7.39-76.41 7.39-103.931 0-35.18.99-68.92-7.4-102.96-6.13-24.93-88.62-152.05-88.62-152.05l-183.16-99.29 18.39-19.51 177.3 79.07 4.61-78.5-2.15-.14.25-3.87c13.67 3.93 22.65-18.77 8.83-26.96-1.26-.74-3.6-2.18-6.8-4.15l2.661-40.82 1.66.1 2.91-49.61 28.44-20.07 2.78 232.76 72.33 92.11 43.99-88.76 24.159-48.75-60.329-183.9 27.149-8.42 26.82 63.91 45.02 107.27 145.921-128.04 23.351 13.2-145.541 149.08c-4.141 9.69-8.29 19.37-12.42 29.05z" fill="#9c5c25"/><path d="m723.18 464.28c0 6.79-5.8 12.29-12.939 12.29-7.141 0-12.94-5.5-12.94-12.29 0-6.78 5.8-12.28 12.94-12.28 7.139 0 12.939 5.5 12.939 12.28z" fill="#fff"/><path d="m718.19 590.64c0 6.79-5.801 12.29-12.94 12.29s-12.94-5.5-12.94-12.29c0-6.779 5.801-12.29 12.94-12.29s12.94 5.51 12.94 12.29z" fill="#fff"/><path d="m713.42 233c0 6.78-5.8 12.29-12.939 12.29-7.141 0-12.94-5.51-12.94-12.29 0-6.79 5.8-12.29 12.94-12.29 7.139 0 12.939 5.5 12.939 12.29z" fill="#fff"/><path d="m649.06 390.16c0 6.79-5.8 12.29-12.939 12.29s-12.94-5.5-12.94-12.29c0-6.78 5.801-12.28 12.94-12.28s12.939 5.5 12.939 12.28z" fill="#fff"/><path d="m626.02 510.76c0 6.78-5.8 12.28-12.939 12.28s-12.94-5.5-12.94-12.28c0-6.79 5.801-12.29 12.94-12.29s12.939 5.5 12.939 12.29z" fill="#fff"/><path d="m612.19 639.03c0 6.79-5.801 12.29-12.94 12.29-7.13 0-12.93-5.5-12.93-12.29 0-6.78 5.8-12.28 12.93-12.28 7.14 0 12.94 5.5 12.94 12.28z" fill="#fff"/><path d="m351.8 485.41c0 6.78-5.8 12.28-12.94 12.28s-12.94-5.5-12.94-12.28c0-6.79 5.8-12.29 12.94-12.29s12.94 5.5 12.94 12.29z" fill="#fff"/><path d="m290.47 604.47c0 6.78-5.8 12.28-12.94 12.28s-12.94-5.5-12.94-12.28c0-6.79 5.8-12.29 12.94-12.29s12.94 5.5 12.94 12.29z" fill="#fff"/><path d="m243.5 479.26c0 6.79-5.8 12.29-12.95 12.29-7.13 0-12.93-5.5-12.93-12.29 0-6.779 5.8-12.279 12.93-12.279 7.15-.001 12.95 5.499 12.95 12.279z" fill="#fff"/><path d="m205.37 374.8c0 6.78-5.8 12.29-12.94 12.29-7.13 0-12.93-5.51-12.93-12.29 0-6.79 5.8-12.29 12.93-12.29 7.14 0 12.94 5.5 12.94 12.29z" fill="#fff"/><path d="m200.86 677.05c0 6.79-5.8 12.29-12.94 12.29-7.13 0-12.93-5.5-12.93-12.29 0-6.78 5.8-12.28 12.93-12.28 7.14 0 12.94 5.5 12.94 12.28z" fill="#fff"/><path d="m140.95 539.56c0 6.79-5.8 12.29-12.94 12.29s-12.93-5.5-12.93-12.29c0-6.779 5.79-12.279 12.93-12.279 7.14-.001 12.94 5.499 12.94 12.279z" fill="#fff"/><g fill="none"><path d="m560.41 729.73c-.96-2.53-2.03-5-3.141-7.33" stroke="#231f20" stroke-width="21"/><path d="m341.21 215.94-4.61 78.5-177.3-79.07-18.39 19.51 183.16 99.29s82.49 127.12 88.62 152.05c8.39 34.04 7.4 67.78 7.4 102.96 0 27.521 5.82 79.29-7.39 103.931-12.58 23.449-23.77 13.37-30.15 45.09-.06.28-.11.56-.51 2.68l.3-1.61c.01-.069.03-.149.04-.22l.17-.89v.04c.03 33.87 38.7 39.54 38.7 39.54 47.06 20.1 67.45 11.37 100.19.939 10.6-3.37 18.09-4.12 28.63-8.109 17.91-6.801 16.26-25.16 10.35-40.811" stroke="#231f20" stroke-width="21"/><path d="m474.84 424.23-22.72-28.94-72.33-92.11-2.78-232.76-28.44 20.07-2.91 49.61-2.04 34.8" stroke="#231f20" stroke-width="21"/><path d="m556.55 336.1c-4.09 9.57-11.3 22.26-15.38 31.83-17.64 41.26-29.95 71.19-34.55 132.32 0 0 1.24 68.94 2.13 91.13 1.25 31.2 2.76 75.14 22.59 100.43 12.7 16.19 23.79 21.75 29.07 37.921 0 .01 0 .02.01.029.16.51.32 1.04.48 1.57" stroke="#231f20" stroke-width="21"/><path d="m452.12 395.29 43.99-88.76 24.159-48.75-60.329-183.9 27.149-8.42 26.82 63.91 45.02 107.27 145.921-128.04 23.351 13.2-145.541 149.08c-4.141 9.69-8.29 19.37-12.42 29.05" stroke="#231f20" stroke-width="21"/><path d="m333.46 208.72 1.1.83" stroke="#231f20" stroke-width="21"/><path d="m333.42 208.68.04.04c2.01 1.64 3.98 2.68 5.85 3.21 13.67 3.93 22.65-18.77 8.83-26.96-1.26-.74-3.6-2.18-6.8-4.15-29.73-18.35-133.68-83.64-133.68-83.64l-7.95 9.64z" stroke="#231f20" stroke-width="21"/><path d="m551.76 332.59-1.28.13" stroke="#231f20" stroke-width="21"/><path d="m551.88 332.58-.12.01c-.439.06-.87.11-1.279.13-.011 0-.021 0-.021 0-19.8 1.39-16.49-28.38 1.38-28.05 2.28.04 7.69.05 15.22.05 42.08-.06 150.431-.8 150.431-.8l1.689 12.39-163.38 15.89z" stroke="#231f20" stroke-width="21"/><path d="m513.91 129.37 53.71-53.71" stroke="#231f20" stroke-width="21"/><path d="m496.11 306.53-60.4-60.39 20.74-58.65" stroke="#231f20" stroke-width="21"/><path d="m713.42 233c0 6.78-5.8 12.29-12.939 12.29-7.141 0-12.94-5.51-12.94-12.29 0-6.79 5.8-12.29 12.94-12.29 7.139 0 12.939 5.5 12.939 12.29z" stroke="#231f20" stroke-width="7"/><path d="m649.06 390.16c0 6.79-5.8 12.29-12.939 12.29s-12.94-5.5-12.94-12.29c0-6.78 5.801-12.28 12.94-12.28s12.939 5.5 12.939 12.28z" stroke="#231f20" stroke-width="7"/><path d="m723.18 464.28c0 6.79-5.8 12.29-12.939 12.29-7.141 0-12.94-5.5-12.94-12.29 0-6.78 5.8-12.28 12.94-12.28 7.139 0 12.939 5.5 12.939 12.28z" stroke="#231f20" stroke-width="7"/><path d="m626.02 510.76c0 6.78-5.8 12.28-12.939 12.28s-12.94-5.5-12.94-12.28c0-6.79 5.801-12.29 12.94-12.29s12.939 5.5 12.939 12.29z" stroke="#231f20" stroke-width="7"/><path d="m205.37 374.8c0 6.78-5.8 12.29-12.94 12.29-7.13 0-12.93-5.51-12.93-12.29 0-6.79 5.8-12.29 12.93-12.29 7.14 0 12.94 5.5 12.94 12.29z" stroke="#231f20" stroke-width="7"/><path d="m351.8 485.41c0 6.78-5.8 12.28-12.94 12.28s-12.94-5.5-12.94-12.28c0-6.79 5.8-12.29 12.94-12.29s12.94 5.5 12.94 12.29z" stroke="#231f20" stroke-width="7"/><path d="m243.5 479.26c0 6.79-5.8 12.29-12.95 12.29-7.13 0-12.93-5.5-12.93-12.29 0-6.779 5.8-12.279 12.93-12.279 7.15-.001 12.95 5.499 12.95 12.279z" stroke="#231f20" stroke-width="7"/><path d="m140.95 539.56c0 6.79-5.8 12.29-12.94 12.29s-12.93-5.5-12.93-12.29c0-6.779 5.79-12.279 12.93-12.279 7.14-.001 12.94 5.499 12.94 12.279z" stroke="#231f20" stroke-width="7"/><path d="m290.47 604.47c0 6.78-5.8 12.28-12.94 12.28s-12.94-5.5-12.94-12.28c0-6.79 5.8-12.29 12.94-12.29s12.94 5.5 12.94 12.29z" stroke="#231f20" stroke-width="7"/><path d="m200.86 677.05c0 6.79-5.8 12.29-12.94 12.29-7.13 0-12.93-5.5-12.93-12.29 0-6.78 5.8-12.28 12.93-12.28 7.14 0 12.94 5.5 12.94 12.28z" stroke="#231f20" stroke-width="7"/><path d="m718.19 590.64c0 6.79-5.801 12.29-12.94 12.29s-12.94-5.5-12.94-12.29c0-6.779 5.801-12.29 12.94-12.29s12.94 5.51 12.94 12.29z" stroke="#231f20" stroke-width="7"/><path d="m612.19 639.03c0 6.79-5.801 12.29-12.94 12.29-7.13 0-12.93-5.5-12.93-12.29 0-6.78 5.8-12.28 12.93-12.28 7.14 0 12.94 5.5 12.94 12.28z" stroke="#231f20" stroke-width="7"/><path d="m0 0h850.394v850.394h-850.394z"/></g></svg>