<svg enable-background="new 0 0 850.394 850.394" height="850.394" viewBox="0 0 850.394 850.394" width="850.394" xmlns="http://www.w3.org/2000/svg"><path d="m777.37 563.1-326.42 22.82 300.51-55.3-67.39-366.23 32.25-5.11 75.38 402.82z" fill="#ffeec8"/><path d="m777.37 563.1 2.83 39.48-329.35-14.39.1-2.27z" fill="#ffeec8"/><path d="m381.321 222.377h372.379v305.556h-372.379z" fill="#ffeec8" transform="matrix(-.181 -.9835 .9835 -.181 301.2524 1001.187)"/><path d="m362.78 223.5 67.39 366.25-300.5 55.29-67.4-366.24z" fill="#ffeec8"/><g fill="none"><path d="m430.17 589.75-300.5 55.29-67.4-366.24 300.51-55.3z" stroke="#000" stroke-width="24.4441"/><path d="m381.321 222.377h372.379v305.556h-372.379z" stroke="#000" stroke-width="24.4441" transform="matrix(-.181 -.9835 .9835 -.181 301.2524 1001.187)"/><path d="m438.71 586.94.3 1.65" stroke="#fff" stroke-dasharray="12.222" stroke-width="6.111"/><path d="m371.51 221.74 67.2 365.2" stroke="#fff" stroke-dasharray="12.222" stroke-width="6.111"/><path d="m450.95 585.92 326.42-22.82 14.33-1-75.38-402.82-32.25 5.11" stroke="#000" stroke-width="18.3331"/><path d="m438.95 587.67 11.9.52 329.35 14.39-2.83-39.48-.01-.13" stroke="#000" stroke-width="18.3331"/><path d="m423.33 256.89 241.38-48.89" stroke="#000" stroke-width="12.222"/><path d="m428.75 284.29 241.38-48.89" stroke="#000" stroke-width="12.222"/><path d="m432.85 308.91 241.38-48.89" stroke="#000" stroke-width="12.222"/><path d="m438.18 335.27 241.39-48.89" stroke="#000" stroke-width="12.222"/><path d="m444.94 360.75 241.39-48.89" stroke="#000" stroke-width="12.222"/><path d="m450.36 388.15 241.39-48.89" stroke="#000" stroke-width="12.222"/><path d="m454.46 412.77 241.39-48.89" stroke="#000" stroke-width="12.222"/><path d="m459.8 439.13 241.38-48.89" stroke="#000" stroke-width="12.222"/><path d="m0 0h850.394v850.394h-850.394z"/></g></svg>