<svg enable-background="new 0 0 850.394 850.394" height="850.394" viewBox="0 0 850.394 850.394" width="850.394" xmlns="http://www.w3.org/2000/svg"><path d="m745.55 370.11-42.06 2.33v-.82l-35.46-103.53v-.11l36.52 1 10.73 26.48z" fill="#f6cc4b"/><path d="m703.49 371.62v.82l-41.75 2.31v-.07l-32.69-107.71v-.05l38.98 1.06v.11z" fill="#f6cc4b"/><path d="m614.73 375.59-24.78-109.74 39.1 1.07v.05l32.69 107.71v.07l-46.62 2.58z" fill="#f6cc4b"/><path d="m614.73 375.59v1.76l-44.78 2.48-17.93-110.85.11-4.17 37.82 1.04z" fill="#f6cc4b"/><path d="m552.02 268.98 17.93 110.85-.96.06-43.16 2.39-.23-1.99-13.46-116.57 39.99 1.09z" fill="#f6cc4b"/><path d="m477.87 384.93-.56.03-8.29-122.42 43.12 1.18 13.46 116.57v2z" fill="#f6cc4b"/><path d="m381.64 390.26 10.63-129.82 39.94 1.09-.1 3.83v122.11l-49.69 2.75z" fill="#f6cc4b"/><path d="m334.27 392.88 21.11-133.45 36.89 1.01-10.63 129.82-46.91 2.6z" fill="#f6cc4b"/><path d="m432.11 387.47v-122.11l.1-3.83 36.81 1.01 8.29 122.42-44.79 2.48z" fill="#f6cc4b"/><path d="m318.61 258.42v.01l-33.58 137.18-47.52 2.63-2.47.14 43.76-141.04z" fill="#f6cc4b"/><path d="m285.03 395.61 33.58-137.18v-.01l36.77 1.01-21.11 133.45-47.69 2.64z" fill="#f6cc4b"/><path d="m148.8 388.19 51.21-112.68 9.12-20.08 33.75.92-55.69 144.68-45.36 2.51z" fill="#f6cc4b"/><path d="m187.19 401.03 55.69-144.68 35.92.99-43.76 141.04-44.77 2.48z" fill="#f6cc4b"/><path d="m703.49 391.02.12 1.88-41.62 2.57-.25-4.12v-16.6l41.75-2.31z" fill="#9e5c26"/><path d="m615.12 377.33 46.62-2.58v16.6l.25 4.12-47.06 2.91-.2-3.31v-17.72z" fill="#9e5c26"/><path d="m569.95 379.83 44.78-2.48v17.72l.2 3.31-45.77 2.82-.17-2.75v-18.56z" fill="#9e5c26"/><path d="m568.99 398.45.17 2.75-43.39 2.68-.17-2.71v-18.88l.23-.01 43.16-2.39z" fill="#9e5c26"/><path d="m525.6 401.17.17 2.71-47.82 2.96-.08-1.27v-20.64l47.73-2.64z" fill="#9e5c26"/><path d="m477.87 384.93v20.64l.08 1.27-45.18 2.79-.25-4.06v-18.13l44.79-2.48z" fill="#9e5c26"/><path d="m432.52 405.57.25 4.06-50.16 3.09-.19-3.07v-19.43l49.69-2.75.41-.03z" fill="#9e5c26"/><path d="m381.64 390.26.78-.04v19.43l.19 3.07-47.76 2.95-.12-1.96v-20.85z" fill="#9e5c26"/><path d="m334.27 392.88.46-.02v20.85l.12 1.96-48.17 2.98-.1-1.56v-21.57z" fill="#9e5c26"/><path d="m285.03 395.61 1.55-.09v21.57l.1 1.56-49.03 3.02v-20.82l-.14-2.61z" fill="#9e5c26"/><path d="m237.65 400.85v20.82l-47.27 2.92-.11-1.74v-21.99l44.77-2.48 2.47-.14z" fill="#9e5c26"/><path d="m703.49 391.02.12 1.88-41.62 2.57-.25-4.12v-16.6l41.75-2.31z" fill="#9e5c26"/><path d="m615.12 377.33 46.62-2.58v16.6l.25 4.12-47.06 2.91-.2-3.31v-17.72z" fill="#9e5c26"/><path d="m569.95 379.83 44.78-2.48v17.72l.2 3.31-45.77 2.82-.17-2.75v-18.56z" fill="#9e5c26"/><path d="m568.99 398.45.17 2.75-43.39 2.68-.17-2.71v-18.88l.23-.01 43.16-2.39z" fill="#9e5c26"/><path d="m525.6 401.17.17 2.71-47.82 2.96-.08-1.27v-20.64l47.73-2.64z" fill="#9e5c26"/><path d="m477.87 384.93v20.64l.08 1.27-45.18 2.79-.25-4.06v-18.13l44.79-2.48z" fill="#9e5c26"/><path d="m432.52 405.57.25 4.06-50.16 3.09-.19-3.07v-19.43l49.69-2.75.41-.03z" fill="#9e5c26"/><path d="m334.27 392.88.46-.02v20.85l.12 1.96-48.17 2.98-.1-1.56v-21.57z" fill="#9e5c26"/><path d="m381.64 390.26.78-.04v19.43l.19 3.07-47.76 2.95-.12-1.96v-20.85z" fill="#9e5c26"/><path d="m285.03 395.61 1.55-.09v21.57l.1 1.56-49.03 3.02v-20.82l-.14-2.61z" fill="#9e5c26"/><path d="m237.65 400.85v20.82l-47.27 2.92-.11-1.74v-21.99l44.77-2.48 2.47-.14z" fill="#9e5c26"/><path d="m752.93 294.15 26.29 71.47-33.67 4.49-30.27-74.65 3.23-1.31z" fill="#9e5c26"/><path d="m200.01 275.51-51.21 112.68h-43.8-13.67l61.01-113.42h46.05z" fill="#9e5c26"/><path d="m237.65 421.67 49.03-3.02 48.17-2.98 47.76-2.95 50.16-3.09 45.18-2.79 47.82-2.96 43.39-2.68 45.77-2.82 47.06-2.91 41.62-2.57 46.79-2.89.34 5.48-11.48 66.76-62.05 3.6-23.16-19.86-525.89 46.97-23.16-99.35v-5.42h43.8l-6.97 15.35 45.36-2.51 3.08-.17v21.99l.11 1.74z" fill="#9e5c26"/><path d="m536.84 538.55c21.351 0 38.65 14.87 38.65 33.19 0 18.33-17.3 33.2-38.65 33.2s-38.64-14.87-38.64-33.2c0-18.32 17.29-33.19 38.64-33.19z" fill="#ffffc2"/><path d="m621.59 480.98c21.351 0 38.66 14.859 38.66 33.18 0 18.34-17.31 33.189-38.66 33.189-21.34 0-38.66-14.85-38.66-33.189 0-18.32 17.32-33.18 38.66-33.18z" fill="#ffffc2"/><g fill="none"><path d="m187.19 401.03-45.36 2.51 6.97-15.35 51.21-112.68 9.12-20.08 33.75.92 35.92.99 39.81 1.08 36.77 1.01 36.89 1.01 39.94 1.09 36.81 1.01 43.12 1.18 39.99 1.09 37.82 1.04 39.1 1.07 38.98 1.06 36.52 1 10.73 26.48 30.27 74.65-42.06 2.33-41.75 2.31-46.62 2.58-.39.02-44.78 2.48-.96.06-43.16 2.39-.23.01-47.73 2.64-.56.03-44.79 2.48-.41.03-49.69 2.75-.78.04-46.91 2.6-.46.02-47.69 2.64-1.55.09-47.52 2.63-2.47.14-44.77 2.48z" stroke="#231f20" stroke-width="21"/><path d="m242.88 256.35-55.69 144.68" stroke="#231f20" stroke-width="21"/><path d="m279.58 254.81-.78 2.53-43.76 141.04-1.3 4.19" stroke="#231f20" stroke-width="21"/><path d="m318.61 258.43-33.58 137.18v.01" stroke="#231f20" stroke-width="21"/><path d="m355.38 259.43-21.11 133.45v.01" stroke="#231f20" stroke-width="21"/><path d="m392.27 260.43v.01l-10.63 129.82v.01" stroke="#231f20" stroke-width="21"/><path d="m432.11 265.36v122.11" stroke="#231f20" stroke-width="21"/><path d="m469.02 262.54 8.29 122.42v.01" stroke="#231f20" stroke-width="21"/><path d="m512.14 263.71v.01l13.46 116.57.23 1.99" stroke="#231f20" stroke-width="21"/><path d="m552.02 268.98 17.93 110.85v.03" stroke="#231f20" stroke-width="21"/><path d="m589.95 265.85 24.78 109.74.39 1.74.01.03" stroke="#231f20" stroke-width="21"/><path d="m629.05 266.97 32.69 107.71v.07 16.6" stroke="#231f20" stroke-width="21"/><path d="m668.03 268.09 35.46 103.53.21.61" stroke="#231f20" stroke-width="21"/><path d="m136.32 411.43v16.5l54.06-3.34 47.27-2.92 49.03-3.02 48.17-2.98 47.76-2.95 50.16-3.09 45.18-2.79 47.82-2.96 43.39-2.68 45.77-2.82 47.06-2.91 41.62-2.57 46.79-2.89.39-.02v-13.54" stroke="#231f20" stroke-width="21"/><path d="m190.27 400.85v.01 21.99" stroke="#231f20" stroke-width="21"/><path d="m237.65 400.85v20.82 1.18" stroke="#231f20" stroke-width="21"/><path d="m286.58 395.09v.43 21.57" stroke="#231f20" stroke-width="21"/><path d="m334.73 391.72v1.14 20.85" stroke="#231f20" stroke-width="21"/><path d="m382.42 387.65v2.57 19.43" stroke="#231f20" stroke-width="21"/><path d="m432.52 383.59v3.85 18.13" stroke="#231f20" stroke-width="21"/><path d="m477.87 383.59v1.34 20.64" stroke="#231f20" stroke-width="21"/><path d="m525.6 379.17v1.12 2 18.88" stroke="#231f20" stroke-width="21"/><path d="m568.99 376.47v3.42 18.56" stroke="#231f20" stroke-width="21"/><path d="m614.73 373.09v2.5 1.76 17.72" stroke="#231f20" stroke-width="21"/><path d="m703.49 369.02v2.6.82 18.58" stroke="#231f20" stroke-width="21"/><path d="m198.39 274.77h-46.05l-61.01 113.42h13.67 43.8 1.56" stroke="#231f20" stroke-width="21"/><path d="m105 393.61 23.16 99.35 525.89-46.97 23.16 19.86 62.05-3.6 11.48-66.76" stroke="#231f20" stroke-width="21"/><path d="m718.51 294.15h34.42l26.29 71.47-33.67 4.49" stroke="#231f20" stroke-width="21"/><path d="m621.59 547.35c-21.34 0-38.66-14.85-38.66-33.189 0-18.32 17.32-33.18 38.66-33.18 21.351 0 38.66 14.859 38.66 33.18 0 18.339-17.31 33.189-38.66 33.189z" stroke="#231f20" stroke-width="21"/><path d="m242.13 513.49h332.91" stroke="#231f20" stroke-width="21"/><path d="m536.84 604.94c-21.35 0-38.64-14.87-38.64-33.2 0-18.32 17.29-33.19 38.64-33.19 21.351 0 38.65 14.87 38.65 33.19 0 18.33-17.3 33.2-38.65 33.2z" stroke="#231f20" stroke-width="21"/><path d="m157.38 571.06h332.91" stroke="#231f20" stroke-width="21"/><path d="m0 0h850.394v850.394h-850.394z"/></g></svg>