<svg enable-background="new 0 0 850.394 850.394" height="850.394" viewBox="0 0 850.394 850.394" width="850.394" xmlns="http://www.w3.org/2000/svg"><path d="m278.5 797.891-8-66.141c15.422 4.164 28.883 6.25 40.383 6.25 15.688 0 28.234-2.609 37.641-7.813 9.406-5.219 17.125-12.508 23.141-21.883 4.438-7.039 11.625-24.492 21.563-52.359 1.305-3.906 3.398-9.641 6.273-17.195l-157.501-415.75h75.352l86.516 240.133c11.219 30.461 21.273 62.477 30.148 96.055 8.203-32.055 17.938-63.438 29.203-94.148l88.781-242.04h70.32l-157.5 422.148c-17 45.578-30.211 76.961-39.617 94.156-12.555 23.172-26.938 40.164-43.148 50.984-16.219 10.806-35.571 16.212-58.055 16.212-13.602 0-28.766-2.875-45.5-8.609z" fill="#50264c"/><path d="m0 0h850.394v850.394h-850.394z" fill="none"/></svg>