<svg enable-background="new 0 0 850.394 850.394" height="850.394" viewBox="0 0 850.394 850.394" width="850.394" xmlns="http://www.w3.org/2000/svg"><path d="m238.09 429.82c28.35 0 51.32 22.97 51.32 51.31s-22.97 51.311-51.32 51.311c-28.33 0-51.3-22.971-51.3-51.311s22.97-51.31 51.3-51.31z" fill="#fbed24"/><circle cx="608.87" cy="481.13" fill="#fbed24" r="51.31"/><g fill="none"><path d="m406.63 631.89h-335.27" stroke="#231f20" stroke-width="21"/><path d="m289.41 481.13c0 28.34-22.97 51.311-51.32 51.311-28.33 0-51.3-22.971-51.3-51.311s22.97-51.31 51.3-51.31c28.35 0 51.32 22.97 51.32 51.31z" stroke="#231f20" stroke-width="14"/><path d="m237.7 420.48v-39.04" stroke="#231f20" stroke-width="14"/><path d="m206.56 428.08-21.57-32.55" stroke="#231f20" stroke-width="14"/><path d="m184.21 452.05-35.37-16.52" stroke="#231f20" stroke-width="14"/><path d="m269.94 427.45 21.56-32.54" stroke="#231f20" stroke-width="14"/><path d="m292.29 451.44 35.36-16.53" stroke="#231f20" stroke-width="14"/><path d="m268.65 534.62 21.58 32.54" stroke="#231f20" stroke-width="14"/><path d="m291.01 510.62 35.37 16.53" stroke="#231f20" stroke-width="14"/><path d="m205.28 535.25-21.57 32.52" stroke="#231f20" stroke-width="14"/><path d="m182.93 511.25-35.37 16.52" stroke="#231f20" stroke-width="14"/><path d="m176.94 481.74h-39.04" stroke="#231f20" stroke-width="14"/><path d="m337.68 481.74h-39.03" stroke="#231f20" stroke-width="14"/><path d="m237.7 580.01v-39.03" stroke="#231f20" stroke-width="14"/><path d="m777.4 631.89h-335.27" stroke="#231f20" stroke-width="21"/><circle cx="608.87" cy="481.13" r="51.31" stroke="#231f20" stroke-width="14"/><path d="m608.47 420.48v-39.04" stroke="#231f20" stroke-width="14"/><path d="m577.33 428.08-21.57-32.55" stroke="#231f20" stroke-width="14"/><path d="m554.98 452.05-35.37-16.52" stroke="#231f20" stroke-width="14"/><path d="m640.71 427.45 21.56-32.54" stroke="#231f20" stroke-width="14"/><path d="m663.06 451.44 35.36-16.53" stroke="#231f20" stroke-width="14"/><path d="m639.42 534.62 21.57 32.54" stroke="#231f20" stroke-width="14"/><path d="m661.78 510.62 35.37 16.53" stroke="#231f20" stroke-width="14"/><path d="m576.05 535.25-21.56 32.52" stroke="#231f20" stroke-width="14"/><path d="m553.69 511.25-35.36 16.52" stroke="#231f20" stroke-width="14"/><path d="m547.71 481.74h-39.04" stroke="#231f20" stroke-width="14"/><path d="m708.45 481.74h-39.03" stroke="#231f20" stroke-width="14"/><path d="m608.47 580.01v-39.03" stroke="#231f20" stroke-width="14"/><path d="m303.63 245.44 31.73 95 90.25-43.59" stroke="#231f20" stroke-width="21"/><path d="m542.17 301.29c-10.24-42.6-52.77-78.14-96.6-78.14-55.4 0-103.76 45.26-103.76 109.87" stroke="#231f20" stroke-width="21"/><path d="m0 0h850.394v850.394h-850.394z"/></g></svg>