<svg enable-background="new 0 0 850.493 850.498" height="850.498" viewBox="0 0 850.493 850.498" width="850.493" xmlns="http://www.w3.org/2000/svg"><path d="m737.852 123.948c1.188-.424 2.467-.661 3.838-.661.644 0 1.304.054 1.98.162 8.104 1.3 7.012 10.396 4.785 14.928-5.412 11.044-2.937 15.11-3.622 23.534-.258 3.111-3.713 9.075-10.919 8.066 2.147-9.316 3.298-19.339 3.298-29.864 0-4.905-.055-8.527-.184-13.793-.008-.374-.017-.76-.028-1.15-.009-.395-.017-.797-.029-1.213h.1z" fill="#ffeec8"/><path d="m737 125.169c.012.39.021.776.028 1.15-.011-.373-.02-.759-.028-1.15z" fill="#ffeec8"/><path d="m736.967 123.957c0-.083-.005-.166-.005-.249 0 .083.005.166.009.249.013.416.021.818.029 1.213-.013-.395-.021-.798-.033-1.213z" fill="#ffeec8"/><path d="m716.681 270.678c.175-4.764-.004-8.236-.079-9.37v-.004c.005-.121.009-.241.009-.361 0-.071 0-.142-.004-.212-.005-.013-.005-.025-.005-.038 0 0 .005-.004 0-.008-.024-.714-.178-1.42-.444-2.114l.328-.12c3.323 1.661 9.138.831 14.953-2.492l.478-1.5c10.213 5.321 21.494 9.752 29.311 15.397l-.714 1.051z" fill="#a9d7f3"/><path d="m716.602 260.693c0 .013 0 .025.005.038-.001-.013-.001-.025-.005-.038z" fill="#ffeec8"/><path d="m709.184 270.636c4.527-2.667 7.235-5.873 7.418-9.329.075 1.134.254 4.606.079 9.37z" fill="#fff"/><path d="m716.602 260.685c-.078-1.217-.714-2.762-1.715-4.377.557.735.984 1.491 1.271 2.263.266.693.419 1.399.444 2.114z" fill="#9e5b16"/><path d="m710.363 129.863c.025.104.038.208.046.315-.008-.108-.025-.216-.046-.315z" fill="#abda4d"/><path d="m707.826 270.628 1.357.008c-.527.312-1.079.615-1.652.91l-.005-.004c.109-.303.208-.606.3-.914z" fill="#9e5b16"/><path d="m709.184 270.636-1.357-.008c.378-1.233.627-2.492.772-3.759.734-6.38-1.246-12.93-3.884-17.611 4.544 1.977 8.17 4.382 10.172 7.049 1.001 1.615 1.637 3.161 1.715 4.377.005.004 0 .008 0 .008.005.013.005.025.005.038.004.07.004.141.004.212 0 .12-.004.241-.009.361v.004c-.183 3.456-2.891 6.663-7.418 9.329z" fill="#ffffc2"/><path d="m637.565 270.263c-.004 0-.004 0-.004-.004-.149-.091-.295-.183-.44-.278-.735-.478-1.412-.968-2.026-1.474l.813-.087c1.55-8.602 4.689-15.438 8.826-20.672 3.655-4.619 8.083-7.987 12.88-10.205.004.004.004.013.009.017 3.401 7.298 8.976 8.61 13.623 8.319 4.647.291 10.222-1.021 13.623-8.319.179-.386.357-.806.528-1.25 7.015 2.446 13.158 6.969 17.087 13.216.444.706.951 1.424 1.399 2.226 3.095 5.495 2.696 7.314 4.715 15.119-.146 1.267-.395 2.525-.772 3.759z" fill="#ffffc2"/><path d="m707.531 271.546c-7.858 4.037-20.104 6.637-33.852 6.637-7.264 0-14.104-.723-20.103-2.006-6.305-1.342-11.68-3.298-15.625-5.678-.133-.079-.262-.158-.387-.237l70.261.365c-.092.308-.191.611-.3.914z" fill="#ffffc2"/><path d="m704.715 249.258c2.638 4.681 4.618 11.231 3.884 17.611-2.019-7.804-1.62-9.624-4.715-15.119-.448-.802-.955-1.52-1.399-2.226-3.929-6.247-10.072-10.77-17.087-13.216.639-1.653 1.221-3.672 1.735-5.828l.42.104c7.364-2.716 14.159-6.974 20.202-12.531l.411.44c-4.028 18.379 8.706 28.136 23.75 35.965l-.478 1.5c-5.815 3.323-11.63 4.153-14.953 2.492l-.328.12c-.286-.772-.714-1.528-1.271-2.263-2.001-2.667-5.627-5.072-10.171-7.049z" fill="#ffeec8"/><path d="m699.606 131.782c0 1.408 1.279 2.546 2.857 2.546s2.857-1.138 2.857-2.546c0-1.404-1.279-2.546-2.857-2.546s-2.857 1.142-2.857 2.546zm10.803-1.604c.037.403.013.86.013 1.537 0 4.174-3.547 7.559-7.912 7.559-2.189 0-4.171-.847-5.604-2.214-1.429-1.375-2.313-3.256-2.313-5.345 0-.225-.013-.399-.029-.544-.024-.241-.058-.398-.07-.556l-2.251-.021c2.924-2.504 6.815-4.075 10.604-4.162 2.778-.058 5.375.569 7.763 1.69l-.395 1.263c.066.162.116.315.149.473.004 0 .004 0 0 .004.02.1.037.208.045.316z" fill="#abda4d"/><ellipse cx="702.464" cy="131.781" rx="2.857" ry="2.546"/><path d="m699.606 75.564c.19.187.382.378.572.573-.19-.195-.385-.386-.572-.573z" fill="#ffeec8"/><path d="m694.862 71.133c.32.282.648.573.984.876-.335-.303-.663-.594-.984-.876z" fill="#ffeec8"/><path d="m694.589 131.715c0-.225-.013-.399-.025-.544.017.146.029.32.029.544 0 2.089.885 3.971 2.313 5.345-1.432-1.37-2.317-3.256-2.317-5.345z" fill="#abda4d"/><path d="m693.924 70.314c.304.262.619.536.938.818-.319-.282-.634-.556-.938-.818z" fill="#ffeec8"/><path d="m692.176 68.848c.552.449 1.134.939 1.748 1.466-.614-.523-1.196-1.013-1.748-1.466z" fill="#ffeec8"/><path d="m693.979 210.415s-1.683 7.925-5.051 11.688l-.138-.021c.868-5.258 1.325-9.586 1.325-9.586s-3.069-3.568-7.53-6.243c-3.729-2.239-6.732-.594-8.315 0-1.591.598-5.449.694-7.036.1-1.586-.594-4.589-2.239-8.323 0-4.452 2.679-6.537 6.143-6.537 6.143s.382 3.584 1.101 8.19l-.208.033c-3.368-3.763-5.051-10.504-5.051-10.504.594-1.682 9.906-12.083 13.47-14.159 3.568-2.085 9.113 1.977 9.113 1.977s5.254-4.062 8.817-1.977c2.986 1.736 9.652 7.813 12.207 11.227-.001.001 1.997 2.679 2.156 3.132z" fill="#ee947d"/><path d="m690.609 67.602c.49.378 1.014.793 1.566 1.246-.552-.449-1.075-.864-1.566-1.246z" fill="#ffeec8"/><path d="m688.338 65.912c.656.461 1.416 1.022 2.271 1.69-.855-.664-1.615-1.225-2.271-1.69z" fill="#ffeec8"/><path d="m687.553 65.368c.241.162.503.345.785.544-.282-.2-.544-.378-.785-.544z" fill="#ffeec8"/><path d="m687.096 65.06c.146.096.295.195.457.308-.162-.108-.312-.212-.457-.308z" fill="#ffeec8"/><path d="m686.344 64.574c.162.1.341.216.544.349-.203-.133-.382-.249-.544-.349z" fill="#ffeec8"/><path d="m685.447 64.039c-.033.021-.059.042-.092.062-3.768 2.629-9.906 5.674-17.013 8.814-.415.183-.839.37-1.263.552-.848.37-1.707.744-2.579 1.113-.652.278-1.313.557-1.973.839-.444.183-.89.37-1.334.557-2.006.839-4.045 1.674-6.097 2.504-.682.274-1.367.548-2.052.827-.457.183-.914.366-1.371.548-3.646 1.458-7.281 2.882-10.745 4.245-2.604 1.018-5.108 2.002-7.464 2.937-.195.075-.391.154-.585.233-.387.153-.772.303-1.151.457-.378.15-.751.299-1.121.449-.369.146-.73.295-1.092.44-.715.287-1.413.569-2.086.847-.336.137-.664.274-.988.407s-.644.266-.955.398c-.312.129-.614.258-.914.386-.299.125-.59.25-.876.374-.282.121-.561.241-.831.361-.27.116-.535.232-.789.349-.382.17-.747.336-1.097.499-.232.108-.457.212-.673.316-.216.1-.419.203-.618.299-1.093.54-1.924 1.009-2.447 1.392 0 0-10.861 11.193-18.383 20.825-2.363 3.032-4.398 5.902-5.665 8.228-.183.328-.345.644-.494.951l-.711-22.952c0-36.629 29.889-57.887 29.889-57.887 3.464-2.351 5.773-3.53 5.773-3.53 15.251-9.071 34.968-12.27 60.117-9.337 30.366 3.539 53.671 33.789 58.115 71.436.723 6.123-1.014 12.594-2.072 19.073l-2.122 2.239c-1.371 0-2.65.237-3.838.661l-.781.008c-.037-.174-.075-.341-.116-.507-2.795-11.214-14.957-20.763-18.08-25.074-7.094-9.798-13.462-17.017-18.695-22.238-.19-.195-.382-.386-.572-.573-1.334-1.317-2.592-2.496-3.76-3.556-.336-.303-.664-.594-.984-.876-.319-.283-.635-.557-.938-.818-.614-.527-1.196-1.018-1.748-1.466-.553-.453-1.076-.868-1.566-1.246-.855-.668-1.615-1.229-2.271-1.69-.282-.199-.544-.382-.785-.544-.162-.112-.312-.212-.457-.308-.07-.05-.142-.095-.208-.137-.203-.133-.382-.25-.544-.349-.054-.033-.104-.066-.153-.096-.492-.31-.745-.442-.745-.442z" fill="#9c5b16"/><path d="m685.397 236.308c-.171.444-.35.864-.528 1.25-3.401 7.298-8.976 8.61-13.623 8.319.017-.004.033-.004.05-.004h-.1c.017 0 .033 0 .05.004-4.647.291-10.222-1.021-13.623-8.319-.005-.004-.005-.012-.009-.017 8.88-4.111 19.015-4.294 27.783-1.233z" fill="#ffffc2"/><path d="m637.952 270.5c3.945 2.38 9.32 4.336 15.625 5.678 5.998 1.283 12.839 2.006 20.103 2.006 13.748 0 25.993-2.6 33.852-6.637.573-.295 1.125-.598 1.652-.91l7.497.042c-.474 12.988-3.584 35.612-18.69 46.905-6.022 4.502-13.951 7.207-24.381 6.778l.108.034c-36.916 1.516-42.516-36.189-43.093-54.17l6.937.033s0 .004.004.004c.124.078.253.157.386.237z" fill="#fbee34"/><path d="m671.333 181.756c-.1.017-.195.029-.299.045l.673-.042c-.129.001-.258.001-.374-.003zm-44.87-51.981 2.737.565c-.012.091-.017.187-.021.287-.008.158-.008.328-.004.519.004.233.008.495.008.802 0 4.178 3.547 7.56 7.917 7.56 4.373 0 7.912-3.381 7.912-7.56l1.528-1.773c-2.812-2.123-6.334-3.431-9.777-3.51-1.267-.025-2.5.091-3.688.333-.216.042-.432.087-.644.141-.428.104-.847.224-1.263.361-.415.133-.826.282-1.229.448-1.212.49-2.371 1.109-3.476 1.827zm83.751-.39.395-1.263c-2.388-1.122-4.984-1.749-7.763-1.69-3.788.087-7.68 1.657-10.604 4.162l2.251.021c.013.158.046.315.07.556.013.146.025.32.025.544 0 2.089.885 3.975 2.317 5.345 1.433 1.367 3.414 2.214 5.604 2.214 4.365 0 7.912-3.385 7.912-7.559 0-.677.024-1.134-.013-1.537-.008-.108-.021-.211-.046-.315.004-.004.004-.004 0-.004-.032-.158-.082-.312-.148-.474zm-103.85 53.26c-.34-.959-.668-1.927-.984-2.903-.104-.312-.203-.623-.295-.938-.83-2.629-1.573-5.325-2.226-8.087v-.004c-.706-2.978-1.309-6.026-1.807-9.142-.395-2.492-.723-5.03-.98-7.601-.195-1.931-.345-3.883-.457-5.856-.074-1.317-.129-2.642-.166-3.975s-.059-2.675-.059-4.025c0-3.456.005-9.516.055-15.359.004-.818.012-1.632.021-2.434.024-2.205.059-4.324.096-6.193.004-.17.008-.336.013-.502l-.715-.557c7.521-9.632 18.383-20.825 18.383-20.825.523-.382 1.354-.852 2.447-1.392.199-.096.402-.195.618-.299s.44-.208.673-.316c.35-.162.715-.328 1.097-.499.254-.116.52-.232.789-.349.271-.121.549-.241.831-.361.286-.125.577-.25.876-.374.3-.128.603-.257.914-.386s.631-.262.955-.398c.324-.133.652-.27.988-.407.673-.278 1.371-.561 2.086-.847.361-.146.723-.291 1.092-.44.37-.146.743-.295 1.121-.449.379-.149.765-.303 1.151-.457.194-.079.39-.158.585-.233 2.355-.93 4.859-1.915 7.464-2.937 3.464-1.358 7.099-2.787 10.745-4.245.457-.183.914-.366 1.371-.548.685-.274 1.37-.548 2.052-.827 2.052-.831 4.091-1.666 6.097-2.504.444-.187.89-.374 1.334-.557.66-.278 1.32-.557 1.973-.839.872-.37 1.731-.744 2.579-1.113.424-.183.848-.37 1.263-.552 7.106-3.14 13.245-6.185 17.013-8.814.158.142.453.266.835.378.05.029.1.063.153.096.162.1.341.216.544.349.066.042.138.087.208.137.146.096.295.2.457.308.241.166.503.345.785.544.656.465 1.416 1.026 2.271 1.69.49.382 1.014.797 1.566 1.246.552.453 1.134.943 1.748 1.466.304.262.619.536.938.818.32.282.648.573.984.876 1.168 1.06 2.426 2.239 3.76 3.556.187.187.382.378.572.573 5.233 5.221 11.602 12.439 18.695 22.238 3.123 4.311 15.285 13.86 18.08 25.074.004.087.004.174.008.258 0 .083.005.166.005.249.012.416.021.818.033 1.213.008.39.017.776.028 1.15.129 5.267.184 8.888.184 13.793 0 10.525-1.15 20.547-3.298 29.864-4.61 20.011-13.823 36.746-26.159 48.076-6.043 5.558-12.838 9.815-20.202 12.531l-.42-.104c.312-1.296.603-2.646.868-3.996.295-1.491.557-2.982.789-4.402l.138.021c3.368-3.763 5.051-11.688 5.051-11.688-.158-.453-2.156-3.131-2.156-3.131-2.555-3.415-9.221-9.491-12.207-11.227-3.563-2.085-8.817 1.977-8.817 1.977s-5.545-4.062-9.113-1.977c-3.563 2.077-12.876 12.477-13.47 14.159 0 0 1.683 6.741 5.051 10.504l.208-.033c.577 3.697 1.379 8.045 2.38 11.734l-.374.104c-10.524-2.483-20.062-8-28.16-15.903-8.923-8.716-16.108-20.325-20.956-33.977z" fill="#ffeec8"/><path d="m671.296 245.874c-.017 0-.033 0-.05.004-.017-.004-.033-.004-.05-.004z" fill="#9e5b16"/><path d="m667.233 206.353c1.587.594 5.445.499 7.036-.1 1.583-.594 4.586-2.239 8.315 0 4.461 2.675 7.53 6.243 7.53 6.243s-.457 4.328-1.325 9.586c-.232 1.42-.494 2.911-.789 4.402-.266 1.35-.557 2.7-.868 3.996-.515 2.156-1.097 4.174-1.735 5.828-8.769-3.062-18.903-2.878-27.783 1.233-.644-1.387-1.233-3.161-1.761-5.121-1.001-3.688-1.803-8.037-2.38-11.734-.719-4.606-1.101-8.19-1.101-8.19s2.085-3.464 6.537-6.143c3.736-2.239 6.738-.594 8.324 0z" fill="#ee947d"/><path d="m667.08 73.467c.424-.183.848-.37 1.263-.552-.415.182-.839.369-1.263.552z" fill="#ffeec8"/><path d="m662.528 75.419c.66-.282 1.32-.561 1.973-.839-.652.282-1.313.561-1.973.839z" fill="#ffeec8"/><path d="m655.098 78.48c2.052-.831 4.091-1.666 6.097-2.504-2.007.838-4.046 1.673-6.097 2.504z" fill="#ffeec8"/><path d="m653.046 79.307c.685-.278 1.37-.552 2.052-.827-.682.278-1.368.553-2.052.827z" fill="#ffeec8"/><path d="m640.93 84.1c3.464-1.362 7.099-2.787 10.745-4.245-3.647 1.458-7.281 2.887-10.745 4.245z" fill="#ffeec8"/><path d="m637.562 270.258c0 .004 0 .004.004.004-.004.001-.004-.004-.004-.004z" fill="#ffffc2"/><path d="m630.625 270.225c-.129-4.012-.008-7.04.07-8.436.038 2.38 1.741 4.668 4.345 6.72.64.507 1.342.997 2.081 1.47.146.096.291.187.44.278z" fill="#fff"/><path d="m637.075 129.248c1.574 0 2.854 1.146 2.854 2.554 0 1.404-1.279 2.542-2.854 2.542-1.582 0-2.854-1.138-2.854-2.542.001-1.407 1.272-2.554 2.854-2.554z"/><path d="m635.908 268.418-.813.087c-2.783-2.285-4.345-4.852-4.345-7.563 1.005-6.646 1.441-10.164 12.635-13.292l1.35.096c-4.137 5.234-7.277 12.07-8.827 20.672z" fill="#ffffc2"/><path d="m637.121 269.98c-.739-.473-1.441-.963-2.081-1.47l.055-.004c.614.506 1.291.996 2.026 1.474z" fill="#fff"/><path d="m630.75 260.942c0 2.712 1.562 5.279 4.345 7.563l-.055.004c-2.604-2.052-4.307-4.34-4.345-6.72.021-.411.042-.681.05-.789.005-.037.005-.058.005-.058z" fill="#fff"/><path d="m633.466 87.036c2.355-.935 4.859-1.919 7.464-2.937-2.605 1.023-5.109 2.007-7.464 2.937z" fill="#ffeec8"/><path d="m633.075 126.997c-.216.042-.428.091-.644.141.213-.054.428-.099.644-.141z" fill="#ffeec8"/><path d="m631.729 87.726c.379-.153.765-.303 1.151-.457-.386.153-.772.307-1.151.457z" fill="#ffeec8"/><path d="m630.608 88.174c.37-.149.743-.299 1.121-.449-.377.154-.75.304-1.121.449z" fill="#ffeec8"/><path d="m630.695 261.79c-.008-.262.009-.523.05-.789-.008.107-.028.377-.05.789z" fill="#a9d7f3"/><path d="m606.003 253.466c0 5.969 11.987 7.477 24.747 7.477 0 0 0 .021-.005.058-.041.266-.058.527-.05.789-.078 1.396-.199 4.423-.07 8.436l-58.298-.307c8.058-6.451 20.751-11.231 31.965-17.179z" fill="#a9d7f3"/><path d="m631.169 127.5c-.415.133-.826.282-1.229.448.403-.166.814-.316 1.229-.448z" fill="#ffeec8"/><path d="m629.517 88.615c.361-.146.723-.295 1.092-.44-.37.149-.731.294-1.092.44z" fill="#ffeec8"/><path d="m634.222 131.802c0 1.404 1.271 2.542 2.854 2.542 1.574 0 2.854-1.138 2.854-2.542 0-1.408-1.279-2.554-2.854-2.554-1.583 0-2.854 1.147-2.854 2.554zm-1.147-4.805c1.188-.241 2.422-.357 3.688-.333 3.443.079 6.966 1.387 9.777 3.51l-1.528 1.773c0 4.178-3.539 7.56-7.912 7.56-4.37 0-7.917-3.381-7.917-7.56 0-.307-.004-.569-.008-.802 0-.191 0-.361.004-.519.004-.1.009-.195.021-.287l-2.737-.565c1.105-.718 2.264-1.337 3.477-1.828.403-.166.814-.315 1.229-.448.416-.137.835-.258 1.263-.361.215-.049.427-.098.643-.14z" fill="#abda4d"/><path d="m629.18 130.627c-.004.158-.004.328-.004.519-.004-.191-.004-.361.004-.519z" fill="#abda4d"/><path d="m627.319 216.621c8.099 7.904 17.636 13.42 28.16 15.903l.374-.104c.527 1.96 1.117 3.734 1.761 5.121-4.797 2.218-9.225 5.586-12.88 10.205l-1.35-.096c-11.193 3.128-11.63 6.646-12.635 13.292-12.76 0-24.747-1.508-24.747-7.477l-1.711-.727c14.612-7.747 26.707-17.474 22.77-35.45z" fill="#ffeec8"/><path d="m626.442 89.869c.324-.133.652-.27.988-.407-.335.137-.663.274-.988.407z" fill="#ffeec8"/><path d="m625.487 90.268c.312-.133.631-.266.955-.398-.324.136-.643.269-.955.398z" fill="#ffeec8"/><path d="m624.573 90.654c.3-.128.603-.257.914-.386-.311.128-.614.257-.914.386z" fill="#ffeec8"/><path d="m622.866 91.389c.271-.121.549-.241.831-.361-.282.12-.56.241-.831.361z" fill="#ffeec8"/><path d="m620.98 92.236c.35-.162.715-.328 1.097-.499-.382.171-.747.337-1.097.499z" fill="#ffeec8"/><path d="m619.689 92.851c.199-.096.402-.199.618-.299-.215.104-.418.203-.618.299z" fill="#ffeec8"/><path d="m605.38 179.742c.316.976.645 1.944.984 2.903-.34-.959-.668-1.927-.984-2.903z" fill="#ffeec8"/><path d="m602.859 170.712v.004c.652 2.762 1.396 5.458 2.226 8.087-.834-2.629-1.573-5.329-2.229-8.091z" fill="#ffeec8"/><path d="m602.859 170.712h-.004c-.707-2.978-1.309-6.026-1.803-9.142.499 3.116 1.101 6.164 1.807 9.142z" fill="#ffeec8"/><path d="m600.072 153.969c.258 2.571.586 5.109.98 7.601-.394-2.492-.722-5.029-.98-7.601z" fill="#ffeec8"/><path d="m599.449 144.138c.037 1.333.092 2.658.166 3.975-.074-1.317-.129-2.641-.166-3.975z" fill="#ffeec8"/><path d="m599.466 122.32c.024-2.205.054-4.324.096-6.193-.038 1.869-.072 3.988-.096 6.193z" fill="#ffeec8"/><path d="m592.7 124.255c2.13-.345 4.078-.128 5.818.495l.927.004c-.05 5.844-.055 11.904-.055 15.359 0 1.35.021 2.692.059 4.025.037 1.333.092 2.658.166 3.975.112 1.973.262 3.925.457 5.856.258 2.571.586 5.109.98 7.601.494 3.115 1.096 6.164 1.803 9.142-7.477 1.296-11.057-4.83-11.314-8.003-.693-8.428 1.786-12.485-3.626-23.525-2.227-4.536-3.318-13.632 4.78-14.928h.005z" fill="#ffeec8"/><path d="m591.989 101.295.711 22.952-.005.008z" fill="#9c5b16"/><g fill="none"><path d="m736.962 123.708c0 .083.005.166.009.249" stroke="#231f20" stroke-width="5.8149"/><path d="m599.466 122.32c.024-2.205.059-4.324.096-6.193" stroke="#231f20" stroke-width="5.8149"/><path d="m599.615 148.113c-.074-1.317-.129-2.642-.166-3.975" stroke="#231f20" stroke-width="5.8149"/><path d="m605.085 178.803c-.83-2.629-1.573-5.325-2.226-8.087v-.004c-.706-2.978-1.309-6.026-1.807-9.142-.395-2.492-.723-5.03-.98-7.601" stroke="#231f20" stroke-width="5.8149"/><path d="m606.364 182.645c-.34-.959-.668-1.927-.984-2.903" stroke="#231f20" stroke-width="5.8149"/><path d="m629.18 130.627c-.004.158-.004.328-.004.519" stroke="#231f20" stroke-linecap="square" stroke-miterlimit="10" stroke-width="3.7627"/><path d="m686.888 64.923c-.203-.133-.382-.25-.544-.349" stroke="#231f20" stroke-width="5.8149"/><path d="m695.847 72.009c-.336-.303-.664-.594-.984-.876-.319-.283-.635-.557-.938-.818-.614-.523-1.196-1.014-1.748-1.466-.553-.449-1.076-.864-1.566-1.246-.855-.665-1.615-1.225-2.271-1.69-.282-.199-.544-.378-.785-.544-.162-.108-.312-.212-.457-.308" stroke="#231f20" stroke-width="5.8149"/><path d="m700.179 76.138c-.19-.195-.386-.386-.572-.573" stroke="#231f20" stroke-width="5.8149"/><path d="m593.194 123.296c-.179.333-.345.652-.494.959v-.008l-.711-22.952" stroke="#231f20" stroke-width="5.8149"/><path d="m620.308 92.552c-.216.104-.419.203-.618.299" stroke="#231f20" stroke-width="5.8149"/><path d="m622.077 91.738c-.382.17-.747.336-1.097.499" stroke="#231f20" stroke-width="5.8149"/><path d="m623.697 91.028c-.282.121-.561.241-.831.361" stroke="#231f20" stroke-width="5.8149"/><path d="m627.431 89.462c-.336.137-.664.274-.988.407-.324.137-.644.27-.955.398s-.614.258-.914.386" stroke="#231f20" stroke-width="5.8149"/><path d="m632.881 87.269c-.387.153-.772.307-1.151.457-.378.154-.751.303-1.121.449-.369.149-.73.295-1.092.44" stroke="#231f20" stroke-width="5.8149"/><path d="m651.675 79.855c-3.646 1.458-7.281 2.887-10.745 4.245-2.604 1.022-5.108 2.006-7.464 2.937" stroke="#231f20" stroke-width="5.8149"/><path d="m661.194 75.976c-2.006.839-4.045 1.674-6.097 2.504-.682.278-1.367.553-2.052.827" stroke="#231f20" stroke-width="5.8149"/><path d="m664.501 74.58c-.652.282-1.313.561-1.973.839" stroke="#231f20" stroke-width="5.8149"/><path d="m668.343 72.915c-.415.183-.839.37-1.263.552" stroke="#231f20" stroke-width="5.8149"/><path d="m737 125.169c-.009-.395-.017-.797-.029-1.213" stroke="#231f20" stroke-width="5.8149"/><path d="m696.906 137.061c-1.429-1.375-2.313-3.256-2.313-5.345 0-.225-.013-.399-.029-.544" stroke="#231f20" stroke-linecap="square" stroke-miterlimit="10" stroke-width="3.7627"/><path d="m710.363 129.863c.021.1.038.208.046.315" stroke="#231f20" stroke-linecap="square" stroke-miterlimit="10" stroke-width="3.7627"/><path d="m598.519 124.75.926.004" stroke="#231f20" stroke-width="5.8149"/><path d="m633.075 126.997c1.188-.241 2.422-.357 3.688-.333 3.443.079 6.966 1.387 9.777 3.51 1.687 1.267 3.119 2.837 4.116 4.602" stroke="#231f20" stroke-linecap="square" stroke-miterlimit="10" stroke-width="3.7627"/><path d="m631.169 127.5c.416-.137.835-.258 1.263-.361" stroke="#231f20" stroke-linecap="square" stroke-miterlimit="10" stroke-width="3.7627"/><path d="m620.341 135.345c1.782-2.143 3.83-4.079 6.122-5.57 1.105-.718 2.264-1.337 3.477-1.828" stroke="#231f20" stroke-linecap="square" stroke-miterlimit="10" stroke-width="3.7627"/><path d="m645.013 131.948c0 4.178-3.539 7.56-7.912 7.56-4.37 0-7.917-3.381-7.917-7.56 0-.307-.004-.569-.008-.802-.004-.191-.004-.361.004-.519.004-.1.009-.195.021-.287.029-.183.059-.361.125-.536" stroke="#231f20" stroke-linecap="square" stroke-miterlimit="10" stroke-width="3.7627"/><path d="m719.265 135.108c-2.409-2.912-5.329-5.428-8.656-6.986-2.388-1.122-4.984-1.749-7.763-1.69-3.788.087-7.68 1.657-10.604 4.162-1.334 1.138-2.463 2.479-3.294 3.95" stroke="#231f20" stroke-linecap="square" stroke-miterlimit="10" stroke-width="3.7627"/><path d="m694.493 130.615c.013.158.046.315.07.556.013.146.025.32.025.544 0 2.089.885 3.975 2.317 5.345 1.433 1.367 3.414 2.214 5.604 2.214 4.365 0 7.912-3.385 7.912-7.559 0-.677.024-1.134-.013-1.537-.008-.108-.021-.211-.046-.315.004-.004.004-.004 0-.004-.029-.158-.074-.312-.146-.473" stroke="#231f20" stroke-linecap="square" stroke-miterlimit="10" stroke-width="3.7627"/><path d="m598.519 124.75c-1.74-.623-3.688-.839-5.818-.495h-.005c-8.099 1.296-7.007 10.392-4.78 14.928 5.412 11.04 2.933 15.098 3.626 23.525.258 3.173 3.838 9.299 11.314 8.003h.004c.07-.008.141-.021.22-.037" stroke="#231f20" stroke-width="5.8149"/><path d="m737.852 123.948c1.188-.424 2.467-.661 3.838-.661.644 0 1.304.054 1.98.162 8.104 1.3 7.012 10.396 4.785 14.928-5.412 11.044-2.937 15.11-3.622 23.534-.258 3.111-3.713 9.075-10.919 8.066-.204-.025-.411-.058-.628-.1" stroke="#231f20" stroke-width="5.8149"/><path d="m655.479 232.524c-10.524-2.483-20.062-8-28.16-15.903-8.922-8.714-16.107-20.323-20.955-33.976-.34-.959-.668-1.927-.984-2.903-.104-.312-.203-.623-.295-.938-.834-2.629-1.573-5.329-2.229-8.091-.707-2.978-1.309-6.026-1.803-9.142-.395-2.492-.723-5.03-.98-7.601-.195-1.931-.345-3.883-.457-5.856-.074-1.317-.129-2.642-.166-3.975s-.059-2.675-.059-4.025c0-3.456.005-9.516.055-15.359.004-.818.012-1.632.021-2.434.024-2.205.054-4.324.096-6.193.004-.17.008-.336.013-.502" stroke="#231f20" stroke-width="5.8149"/><path d="m736.929 122.594c.009.291.017.577.025.855.004.087.004.174.008.258 0 .083.005.166.005.249.012.416.021.818.033 1.213.008.39.017.776.028 1.15.129 5.267.184 8.888.184 13.793 0 10.525-1.15 20.547-3.298 29.864-4.61 20.011-13.823 36.746-26.159 48.076-6.043 5.558-12.838 9.815-20.202 12.531" stroke="#231f20" stroke-width="5.8149"/><path d="m671.333 181.756c3.775-.702 3.099-2.937 7.148-1.952 3.489.843 7.189 2.579 8.062-2.875.599-3.754-2.226-4.253-3.726-7.269" stroke="#231f20" stroke-width="5.8149"/><path d="m671.333 181.756c.116.004.245.004.374.004l-.673.042c.104-.017.199-.029.299-.046z" stroke="#231f20" stroke-width="5.8149"/><path d="m659.533 134.938c6.264 6.87 4.365 23.01 1.566 31.413l-1.18 3.277c-1.5 3.011-4.32 3.506-3.726 7.26.872 5.454 4.577 3.709 8.062 2.87 4.029-.972 3.119 1.832 7.077 1.998" stroke="#231f20" stroke-width="5.8149"/><path d="m639.929 131.802c0 1.404-1.279 2.542-2.854 2.542-1.582 0-2.854-1.138-2.854-2.542 0-1.408 1.271-2.554 2.854-2.554 1.574 0 2.854 1.147 2.854 2.554z" stroke="#231f20" stroke-width="3.1576"/><ellipse cx="702.464" cy="131.781" rx="2.857" ry="2.546" stroke="#231f20" stroke-width="3.1576"/><path d="m655.384 122.328c-3.377-7.115-16.589-9.885-23.28-8.548-6.284 1.25-9.403 2.006-15.957 7.09" stroke="#231f20" stroke-width="5.8149"/><path d="m682.764 120.775c3.381-7.119 16.593-9.894 23.28-8.552 6.297 1.25 9.412 2.002 15.962 7.09" stroke="#231f20" stroke-width="5.8149"/><path d="m743.812 121.049c1.059-6.479 2.795-12.95 2.072-19.073-4.444-37.647-27.749-67.896-58.115-71.436-25.149-2.932-44.866.266-60.117 9.337 0 0-2.31 1.179-5.773 3.53 0 0-29.889 21.257-29.889 57.887l.706 22.96c0-.004.005-.004.005-.008.149-.307.312-.623.494-.951 1.267-2.326 3.302-5.196 5.665-8.228 7.521-9.632 18.383-20.825 18.383-20.825.523-.382 1.354-.852 2.447-1.392.199-.096.402-.199.618-.299.216-.104.44-.208.673-.316.35-.162.715-.328 1.097-.499.254-.116.52-.232.789-.349.271-.121.549-.241.831-.361.286-.125.577-.25.876-.374.3-.128.603-.257.914-.386.312-.133.631-.266.955-.398.324-.133.652-.27.988-.407.673-.278 1.371-.561 2.086-.847.361-.146.723-.295 1.092-.44.37-.149.743-.299 1.121-.449.379-.153.765-.303 1.151-.457.194-.079.39-.158.585-.233 2.355-.935 4.859-1.919 7.464-2.937 3.464-1.362 7.099-2.787 10.745-4.245.457-.183.914-.366 1.371-.548.685-.278 1.37-.552 2.052-.827 2.052-.831 4.091-1.666 6.097-2.504.444-.187.89-.374 1.334-.557.66-.282 1.32-.561 1.973-.839.872-.37 1.731-.744 2.579-1.113.424-.183.848-.37 1.263-.552 7.106-3.14 13.245-6.185 17.013-8.814.033-.021.059-.042.092-.062 0 0 .253.133.743.44.05.029.1.063.153.096.162.1.341.216.544.349.066.042.138.087.208.137.146.096.295.195.457.308.241.162.503.345.785.544.656.461 1.416 1.022 2.271 1.69.49.378 1.014.793 1.566 1.246.552.449 1.134.939 1.748 1.466.304.262.619.536.938.818.32.282.648.573.984.876 1.168 1.06 2.426 2.239 3.76 3.556.19.187.382.378.572.573 5.233 5.221 11.602 12.439 18.695 22.238 3.123 4.311 15.285 13.86 18.08 25.074.041.166.079.333.116.507.225 1.013.378 2.047.432 3.09" stroke="#231f20" stroke-width="5.8149"/><path d="m690.979 65.098c-.711.004-3.353-.199-4.789-.619-.382-.112-.677-.236-.835-.378-.054-.045-.092-.095-.112-.149 4.349-4.236 7.775-11.144 7.775-18.15" stroke="#231f20" stroke-width="5.8149"/><path d="m627.062 217.289c3.938 17.977-8.157 27.704-22.77 35.45-11.214 5.948-23.907 10.728-31.965 17.179" stroke="#231f20" stroke-width="5.8149"/><path d="m708.166 218.494c-4.028 18.379 8.706 28.136 23.75 35.965 10.213 5.321 21.494 9.752 29.311 15.397.573.411 1.134.839 1.67 1.267" stroke="#231f20" stroke-width="5.8149"/><path d="m688.928 222.103c3.368-3.763 5.051-11.688 5.051-11.688-.158-.453-2.156-3.131-2.156-3.131-2.555-3.415-9.221-9.491-12.207-11.227-3.563-2.085-8.817 1.977-8.817 1.977s-5.545-4.062-9.113-1.977c-3.563 2.077-12.876 12.477-13.47 14.159 0 0 1.683 6.741 5.051 10.504" stroke="#000" stroke-linecap="round" stroke-linejoin="round" stroke-width="2.9074"/><path d="m657.614 237.542c-.644-1.387-1.233-3.161-1.761-5.121-1.001-3.688-1.803-8.037-2.38-11.734-.719-4.606-1.101-8.19-1.101-8.19s2.085-3.464 6.537-6.143c3.734-2.239 6.737-.594 8.323 0 1.587.594 5.445.499 7.036-.1 1.583-.594 4.586-2.239 8.315 0 4.461 2.675 7.53 6.243 7.53 6.243s-.457 4.328-1.325 9.586c-.232 1.42-.494 2.911-.789 4.402" stroke="#000" stroke-linecap="round" stroke-linejoin="round" stroke-width="2.9074"/><path d="m688.001 226.485c-.266 1.35-.557 2.7-.868 3.996-.515 2.156-1.097 4.174-1.735 5.828" stroke="#000" stroke-linecap="round" stroke-linejoin="round" stroke-width="2.9074"/><path d="m670.798 206.947s1.98 11.393.992 21.299" stroke="#000" stroke-linecap="round" stroke-linejoin="round" stroke-width="2.9074"/><path d="m630.75 260.942c0 2.712 1.562 5.279 4.345 7.563.614.506 1.291.997 2.026 1.474" stroke="#000" stroke-width="5.8149"/><path d="m716.602 260.693c.005.013.005.025.005.038" stroke="#000" stroke-width="4.288"/><path d="m707.531 271.546-.005-.004c.108-.303.208-.606.3-.914.378-1.233.627-2.492.772-3.759.734-6.38-1.246-12.93-3.884-17.611 4.544 1.977 8.17 4.382 10.172 7.049.557.735.984 1.491 1.271 2.263.267.694.42 1.4.444 2.114" stroke="#000" stroke-width="4.288"/><path d="m630.75 260.942c1.005-6.646 1.441-10.164 12.635-13.292" stroke="#000" stroke-width="5.8149"/><path d="m716.602 261.308c-.183 3.456-2.891 6.662-7.418 9.329-.527.312-1.079.615-1.652.91-7.858 4.037-20.104 6.637-33.852 6.637-7.264 0-14.104-.723-20.103-2.006-6.305-1.342-11.68-3.298-15.625-5.678-.133-.079-.262-.158-.387-.237-.004 0-.004 0-.004-.004-.149-.091-.295-.183-.44-.278-.739-.473-1.441-.963-2.081-1.47-2.604-2.052-4.307-4.34-4.345-6.72-.008-.262.009-.523.05-.789" stroke="#000" stroke-width="5.8149"/><path d="m702.364 246.82c4.194 0 9.756 5.005 12.522 9.487 1.001 1.615 1.637 3.161 1.715 4.377.005.004 0 .008 0 .008 0 .013 0 .025.005.038.004.07.004.141.004.212 0 .12-.004.241-.009.361" stroke="#000" stroke-width="4.288"/><path d="m630.695 261.79c.021-.411.042-.681.05-.789.005-.038.005-.058.005-.058" stroke="#000" stroke-width="5.8149"/><path d="m697.99 317.583c-6.022 4.502-13.951 7.207-24.381 6.778l.108.034c-36.916 1.516-42.516-36.189-43.093-54.17-.129-4.012-.008-7.04.07-8.436" stroke="#000" stroke-width="4.288"/><path d="m716.573 260.909s.012.137.028.395v.004c.075 1.134.254 4.606.079 9.37-.474 12.988-3.584 35.612-18.69 46.905" stroke="#000" stroke-width="4.288"/><path d="m635.908 268.418c1.55-8.602 4.689-15.438 8.826-20.672 3.655-4.619 8.083-7.987 12.88-10.205 8.88-4.112 19.015-4.295 27.783-1.233 7.015 2.446 13.158 6.969 17.087 13.216.444.706.951 1.424 1.399 2.226 3.095 5.495 2.696 7.314 4.715 15.119.124.49.262 1.005.411 1.549" stroke="#000" stroke-width="5.8149"/><path d="m606.003 253.466c0 5.969 11.987 7.477 24.747 7.477" stroke="#231f20" stroke-width="5.8149"/><path d="m716.485 258.45c3.323 1.661 9.138.831 14.953-2.492" stroke="#231f20" stroke-width="5.8149"/><path d="m0 .104h850.394v850.394h-850.394z"/></g><path d="m516.486 408.658 2.265-.018c5.063-1.812 10.737-2.434 16.919-1.448 23.561 3.783 20.391 30.222 13.916 43.41-15.737 32.105-8.534 43.917-10.533 68.41-.772 9.316-11.385 27.407-33.561 23.162l-1.19-.347c7.922-27.593 12.585-56.651 12.585-86.198 0-16.297-.214-27.718-.693-46.972h.292z" fill="#ffeec8"/><path d="m368.548 235.71c-1.421-.879-2.167-1.279-2.167-1.279-.089.062-.178.125-.267.187-41.208 28.783-180.372 74.671-198.054 87.637 0 0-31.563 32.549-53.437 60.568-7.869 10.062-14.476 19.538-17.922 26.705l-2.078-66.767c0-106.492 86.927-168.312 86.927-168.312 10.053-6.83 16.776-10.266 16.776-10.266 44.333-26.376 101.669-35.675 174.813-27.149 88.286 10.293 156.056 98.241 168.969 207.717 2.104 17.797-3.357 43.623-6.438 62.442-6.182-.986-11.856-.364-16.919 1.448l-2.265.018c-.098-.471-.213-.941-.328-1.412-8.091-32.628-43.499-60.435-52.575-72.975-48.899-67.523-85.923-92.932-95.035-98.562z" fill="#9c5c25"/><path d="m243.717 436.828c-8.215-5.443-18.011-8.738-27.611-8.96-9.876-.214-19.014 2.389-27.256 6.855l4.209 2.851c-.622 1.821-.435 3.446-.435 6.652 0 12.922 10.995 23.401 24.529 23.401 13.543 0 26.039-16.182 26.039-29.104zm74.449 154.245c-.284.053-.577.106-.879.15l1.962-.124c-.373 0-.736-.009-1.083-.026zm72.282-153.081 4.44 2.104c.062.755.302 1.563.302 3.401 0 12.913 10.977 23.401 24.512 23.401 13.499 0 24.493-10.488 24.493-23.401 0-3.534.231-5.16-.612-7.22l1.19-3.917c-7.381-3.464-15.418-5.408-24.015-5.23-10.683.248-21.607 4.298-30.31 10.862zm125.745-29.334c.479 19.254.693 30.675.693 46.972 0 29.547-4.663 58.605-12.585 86.198-24.458 85.399-79.964 156.749-124.271 184.999-2.717 1.314-5.364 2.442-7.948 3.401l-1.092-.284c.506-2.318.995-4.671 1.456-7.016.879-4.468 1.67-8.926 2.372-13.188l.399.071c10.08-11.262 15.125-34.991 15.125-34.991-.48-1.35-6.457-9.378-6.457-9.378-7.646-10.214-27.611-28.41-36.554-33.615-10.657-6.234-26.394 5.924-26.394 5.924s-16.59-12.158-27.282-5.924c-10.666 6.226-38.543 37.362-40.32 42.398 0 0 5.036 20.177 15.125 31.447l.613-.098c1.376 8.792 3.17 18.836 5.364 28.135l-4.565-.675c-4.147-.72-1.963-.106-6.395-1.696-1.803-.657-3.65-1.403-5.542-2.238-47.833-26.794-104.209-98.517-128.996-185.177-8.073-28.197-12.797-57.975-12.797-88.294 0-10.045.018-27.646.169-44.645.071-9.52.195-18.854.373-26.554l-2.061-1.607c21.874-28.02 53.437-60.568 53.437-60.568 17.682-12.966 156.847-58.854 198.054-87.637.453.409 1.323.772 2.434 1.092 9.112 5.63 46.136 31.039 95.035 98.561 9.076 12.54 44.484 40.346 52.575 72.975.009.479.018.95.035 1.412z" fill="#ffeec8"/><path d="m444.773 432.361-1.19 3.917c.844 2.06.612 3.686.612 7.22 0 12.913-10.994 23.401-24.493 23.401-13.535 0-24.512-10.488-24.512-23.401 0-1.838-.24-2.646-.302-3.401l-4.44-2.104c8.703-6.563 19.627-10.613 30.311-10.861 8.596-.179 16.634 1.765 24.014 5.229zm-16.377 11.349c0-4.36-3.952-7.877-8.828-7.877-4.894 0-8.863 3.517-8.863 7.877 0 4.361 3.97 7.878 8.863 7.878 4.876 0 8.828-3.516 8.828-7.878z" fill="#6ebe44"/><path d="m419.569 435.833c4.875 0 8.828 3.517 8.828 7.877 0 4.361-3.952 7.878-8.828 7.878-4.894 0-8.863-3.517-8.863-7.878 0-4.36 3.969-7.877 8.863-7.877z" fill="#231f20"/><path d="m383.885 665.442s5.977 8.028 6.457 9.378c0 0-5.044 23.729-15.125 34.991l-.399-.071c2.584-15.737 3.952-28.686 3.952-28.686s-9.191-10.684-22.54-18.694c-11.172-6.705-20.16-1.776-24.894 0-4.76 1.794-16.314 2.078-21.074.302-4.743-1.776-13.73-6.705-24.911 0-13.339 8.02-19.574 18.393-19.574 18.393s1.137 10.729 3.295 24.521l-.613.098c-10.089-11.271-15.125-31.447-15.125-31.447 1.776-5.036 29.654-36.173 40.32-42.398 10.692-6.234 27.282 5.924 27.282 5.924s15.737-12.158 26.394-5.924c8.944 5.203 28.909 23.399 36.555 33.613z" fill="#ef947d"/><path d="m378.77 681.054s-1.368 12.948-3.952 28.686c-.702 4.263-1.492 8.721-2.372 13.188-.461 2.345-.95 4.697-1.456 7.016-2.221 10.054-4.867 19.556-7.931 26.137-10.177 21.847-26.865 25.781-40.781 24.911.053 0 .107-.009.16-.009h-.311c.053 0 .098.009.151.009-13.917.861-30.595-3.073-40.781-24.911-2.673-5.755-5.036-13.739-7.06-22.371-2.194-9.299-3.988-19.343-5.364-28.135-2.158-13.792-3.295-24.521-3.295-24.521s6.234-10.373 19.574-18.393c11.181-6.705 20.168-1.776 24.911 0 4.76 1.776 16.314 1.492 21.074-.302 4.734-1.776 13.721-6.705 24.894 0 13.347 8.012 22.539 18.695 22.539 18.695z" fill="#ee947d"/><path d="m243.717 436.828-.524 1.696c0 12.922-12.496 29.104-26.039 29.104-13.535 0-24.529-10.479-24.529-23.401 0-3.206-.187-4.831.435-6.652l-4.209-2.851c8.242-4.467 17.38-7.069 27.256-6.855 9.6.22 19.395 3.515 27.61 8.959zm-17.806 6.936c0-4.36-3.961-7.887-8.854-7.887-4.876 0-8.837 3.526-8.837 7.887s3.961 7.886 8.837 7.886c4.893 0 8.854-3.525 8.854-7.886z" fill="#6ebe44"/><path d="m217.057 435.877c4.893 0 8.854 3.526 8.854 7.887s-3.961 7.886-8.854 7.886c-4.876 0-8.837-3.525-8.837-7.886s3.961-7.887 8.837-7.887z" fill="#231f20"/><path d="m128.939 543.923-2.06.595c-22.176 4.228-32.797-13.862-33.561-23.17-1.999-24.494 5.204-36.297-10.533-68.41-6.474-13.197-9.645-39.636 13.917-43.41 6.172-.995 11.847-.364 16.918 1.439l2.691.018c-.151 16.999-.169 34.6-.169 44.645 0 30.319 4.725 60.096 12.797 88.293z" fill="#ffeec8"/><path d="m165.245 454.75c6.688-8.072 14.618-15.159 23.605-20.026 8.242-4.467 17.38-7.069 27.256-6.855 9.6.222 19.396 3.517 27.611 8.96 6.385 4.236 11.803 9.77 15.417 16.155" fill="none" stroke="#231f20" stroke-linecap="square" stroke-miterlimit="10" stroke-width="12.4333"/><path d="m243.193 438.524c0 12.922-12.496 29.104-26.039 29.104-13.535 0-24.529-10.479-24.529-23.401 0-3.206-.187-4.831.435-6.652" fill="none" stroke="#231f20" stroke-linecap="square" stroke-miterlimit="10" stroke-width="12.4333"/><path d="m471.585 454.013c-7.47-9.023-16.492-16.813-26.812-21.652-7.381-3.464-15.418-5.408-24.015-5.23-10.684.248-21.607 4.298-30.311 10.861-5.213 3.943-9.636 8.792-12.735 14.271" fill="none" stroke="#231f20" stroke-linecap="square" stroke-miterlimit="10" stroke-width="12.4333"/><path d="m394.889 440.096c.062.755.302 1.563.302 3.401 0 12.913 10.977 23.401 24.512 23.401 13.499 0 24.493-10.488 24.493-23.401 0-3.534.231-5.16-.612-7.22" fill="none" stroke="#231f20" stroke-linecap="square" stroke-miterlimit="10" stroke-width="12.4333"/><path d="m225.911 443.764c0 4.36-3.961 7.886-8.854 7.886-4.876 0-8.837-3.525-8.837-7.886s3.961-7.887 8.837-7.887c4.893 0 8.854 3.527 8.854 7.887z" fill="none" stroke="#231f20" stroke-width="6.4951"/><path d="m428.396 443.71c0 4.361-3.952 7.878-8.828 7.878-4.894 0-8.863-3.517-8.863-7.878 0-4.36 3.97-7.877 8.863-7.877 4.876 0 8.828 3.517 8.828 7.877z" fill="none" stroke="#231f20" stroke-width="6.4951"/><path d="m455.883 474.706c-34.191-8.553-74.795-5.347-74.795-5.347" fill="none" stroke="#231f20" stroke-width="12.4333"/><path d="m180.893 475.407c34.201-8.562 74.804-5.346 74.804-5.346" fill="none" stroke="#231f20" stroke-width="12.4333"/><path d="m278.504 427.681-87.637-32.06" fill="none" stroke="#231f20" stroke-width="12.4333"/><path d="m367.189 422.689 87.628-32.051" fill="none" stroke="#231f20" stroke-width="12.4333"/><path d="m113.62 410.967c-5.071-1.803-10.746-2.434-16.918-1.439-23.561 3.774-20.391 30.213-13.917 43.41 15.737 32.113 8.535 43.916 10.533 68.41.764 9.308 11.385 27.397 33.561 23.17" fill="none" stroke="#231f20" stroke-width="18.65"/><path d="m518.751 408.64c5.063-1.812 10.737-2.434 16.919-1.448 23.561 3.783 20.391 30.222 13.916 43.41-15.737 32.105-8.534 43.917-10.533 68.41-.772 9.316-11.385 27.407-33.561 23.162" fill="none" stroke="#231f20" stroke-width="18.65"/><path d="m263.477 731.338c-1.803-.657-3.65-1.403-5.542-2.238-47.833-26.794-104.209-98.517-128.996-185.177-8.073-28.197-12.797-57.975-12.797-88.294 0-10.045.018-27.646.169-44.645.071-9.52.195-18.854.373-26.554" fill="none" stroke="#231f20" stroke-width="18.65"/><path d="m269.872 733.035c-4.147-.72-1.963-.106-6.395-1.696" fill="none" stroke="#231f20" stroke-width="19.4853"/><path d="m516.087 404.697c.026.861.045 1.714.071 2.549.009.479.018.95.035 1.412.479 19.254.693 30.675.693 46.972 0 29.547-4.663 58.605-12.585 86.198-24.458 85.399-79.964 156.749-124.271 184.999-2.717 1.314-5.364 2.442-7.948 3.401" fill="none" stroke="#231f20" stroke-width="18.65"/><path d="m318.166 591.073c10.977-2.025 9.023-8.526 20.782-5.675 10.142 2.46 20.915 7.521 23.437-8.349 1.741-10.924-6.447-12.354-10.834-21.128" fill="none" stroke="#231f20" stroke-width="12.4333"/><path d="m318.166 591.073c.347.018.71.026 1.083.026l-1.962.124c.302-.044.595-.098.879-.15z" fill="none" stroke="#231f20" stroke-width="12.4333"/><path d="m283.85 454.945c18.206 19.982 12.7 66.918 4.565 91.35l-3.437 9.512c-4.37 8.766-12.566 10.204-10.826 21.128 2.522 15.861 13.303 10.799 23.445 8.348 11.705-2.833 9.05 5.312 20.568 5.791" fill="none" stroke="#231f20" stroke-width="12.4333"/><path d="m535.67 407.192c3.081-18.819 8.543-44.645 6.438-62.442-12.913-109.476-80.684-197.424-168.969-207.717-73.144-8.525-130.479.773-174.813 27.149 0 0-6.723 3.437-16.776 10.266 0 0-86.927 61.82-86.927 168.312l2.078 66.767c3.446-7.167 10.053-16.643 17.922-26.705 21.874-28.02 53.437-60.568 53.437-60.568 17.682-12.966 156.847-58.854 198.054-87.637.089-.062.178-.125.267-.187 0 0 .746.4 2.167 1.279 9.112 5.63 46.136 31.039 95.035 98.561 9.076 12.54 44.484 40.346 52.575 72.975.115.471.23.941.328 1.412.666 2.958 1.093 5.959 1.253 8.987" fill="none" stroke="#231f20" stroke-width="18.65"/><path d="m382.455 237.504c-2.042.018-9.715-.577-13.907-1.794-1.11-.32-1.98-.684-2.434-1.092-.16-.142-.266-.284-.32-.435 12.629-12.309 22.611-32.407 22.611-52.78" fill="none" stroke="#231f20" stroke-width="18.65"/><path d="m375.217 709.811c10.08-11.262 15.125-34.991 15.125-34.991-.48-1.35-6.457-9.378-6.457-9.378-7.646-10.214-27.611-28.41-36.554-33.615-10.657-6.234-26.394 5.924-26.394 5.924s-16.59-12.158-27.282-5.924c-10.666 6.226-38.543 37.362-40.32 42.398 0 0 5.036 20.177 15.125 31.447" fill="none" stroke="#231f20" stroke-width="12.4333"/><path d="m322.278 780.992c-13.917.861-30.595-3.073-40.781-24.911-2.673-5.755-5.036-13.739-7.06-22.371-2.194-9.299-3.988-19.343-5.364-28.135-2.158-13.792-3.295-24.521-3.295-24.521s6.234-10.373 19.574-18.393c11.181-6.705 20.168-1.776 24.911 0 4.76 1.776 16.314 1.492 21.074-.302 4.734-1.776 13.721-6.705 24.894 0 13.348 8.011 22.54 18.694 22.54 18.694s-1.368 12.948-3.952 28.686c-.702 4.263-1.492 8.721-2.372 13.188" fill="none" stroke="#231f20" stroke-width="12.4333"/><path d="m322.278 780.992c-.053 0-.098-.009-.151-.009h.311c-.053 0-.107.009-.16.009z" fill="none" stroke="#231f20" stroke-width="12.4333"/><path d="m372.446 722.928c-.461 2.345-.95 4.697-1.456 7.016-2.221 10.054-4.867 19.556-7.931 26.137-10.177 21.847-26.865 25.781-40.781 24.911" fill="none" stroke="#231f20" stroke-width="12.4333"/><path d="m320.937 664.438s5.933 34.111 2.966 63.766" fill="none" stroke="#231f20" stroke-width="12.4333"/><path d="m0 .104h850.394v850.394h-850.394z" fill="none"/></svg>